G04 EAGLE Gerber RS-274X export*
G75*
%MOMM*%
%FSLAX34Y34*%
%LPD*%
%INSoldermask Top*%
%IPPOS*%
%AMOC8*
5,1,8,0,0,1.08239X$1,22.5*%
G01*
%ADD10C,0.253525*%
%ADD11C,0.449434*%
%ADD12C,2.032000*%
%ADD13C,0.243431*%
%ADD14C,0.255816*%
%ADD15C,3.454400*%
%ADD16C,0.787400*%
%ADD17C,0.402400*%
%ADD18C,1.152400*%
%ADD19C,1.270000*%
%ADD20C,1.652400*%


D10*
X116281Y91363D02*
X126271Y91363D01*
X126271Y82373D01*
X116281Y82373D01*
X116281Y91363D01*
X116281Y84781D02*
X126271Y84781D01*
X126271Y87189D02*
X116281Y87189D01*
X116281Y89597D02*
X126271Y89597D01*
X109271Y91363D02*
X99281Y91363D01*
X109271Y91363D02*
X109271Y82373D01*
X99281Y82373D01*
X99281Y91363D01*
X99281Y84781D02*
X109271Y84781D01*
X109271Y87189D02*
X99281Y87189D01*
X99281Y89597D02*
X109271Y89597D01*
D11*
X17859Y83271D02*
X17859Y76241D01*
X10829Y76241D01*
X10829Y83271D01*
X17859Y83271D01*
X17859Y80510D02*
X10829Y80510D01*
X35399Y83271D02*
X35399Y76241D01*
X28369Y76241D01*
X28369Y83271D01*
X35399Y83271D01*
X35399Y80510D02*
X28369Y80510D01*
D12*
X63500Y12700D03*
X88900Y12700D03*
X114300Y12700D03*
X139700Y12700D03*
D13*
X4505Y149455D02*
X4505Y160545D01*
X23595Y160545D01*
X23595Y149455D01*
X4505Y149455D01*
X4505Y151767D02*
X23595Y151767D01*
X23595Y154079D02*
X4505Y154079D01*
X4505Y156391D02*
X23595Y156391D01*
X23595Y158703D02*
X4505Y158703D01*
X4505Y104545D02*
X4505Y93455D01*
X4505Y104545D02*
X23595Y104545D01*
X23595Y93455D01*
X4505Y93455D01*
X4505Y95767D02*
X23595Y95767D01*
X23595Y98079D02*
X4505Y98079D01*
X4505Y100391D02*
X23595Y100391D01*
X23595Y102703D02*
X4505Y102703D01*
D14*
X44567Y139517D02*
X44567Y144483D01*
X57033Y144483D01*
X57033Y139517D01*
X44567Y139517D01*
X44567Y141947D02*
X57033Y141947D01*
X57033Y144377D02*
X44567Y144377D01*
X44567Y134483D02*
X44567Y129517D01*
X44567Y134483D02*
X57033Y134483D01*
X57033Y129517D01*
X44567Y129517D01*
X44567Y131947D02*
X57033Y131947D01*
X57033Y134377D02*
X44567Y134377D01*
X44567Y124483D02*
X44567Y119517D01*
X44567Y124483D02*
X57033Y124483D01*
X57033Y119517D01*
X44567Y119517D01*
X44567Y121947D02*
X57033Y121947D01*
X57033Y124377D02*
X44567Y124377D01*
X44567Y114483D02*
X44567Y109517D01*
X44567Y114483D02*
X57033Y114483D01*
X57033Y109517D01*
X44567Y109517D01*
X44567Y111947D02*
X57033Y111947D01*
X57033Y114377D02*
X44567Y114377D01*
D12*
X165100Y12700D03*
D10*
X18593Y60783D02*
X8603Y60783D01*
X8603Y69773D01*
X18593Y69773D01*
X18593Y60783D01*
X18593Y63191D02*
X8603Y63191D01*
X8603Y65599D02*
X18593Y65599D01*
X18593Y68007D02*
X8603Y68007D01*
X25603Y60783D02*
X35593Y60783D01*
X25603Y60783D02*
X25603Y69773D01*
X35593Y69773D01*
X35593Y60783D01*
X35593Y63191D02*
X25603Y63191D01*
X25603Y65599D02*
X35593Y65599D01*
X35593Y68007D02*
X25603Y68007D01*
X226009Y182041D02*
X235999Y182041D01*
X235999Y173051D01*
X226009Y173051D01*
X226009Y182041D01*
X226009Y175459D02*
X235999Y175459D01*
X235999Y177867D02*
X226009Y177867D01*
X226009Y180275D02*
X235999Y180275D01*
X218999Y182041D02*
X209009Y182041D01*
X218999Y182041D02*
X218999Y173051D01*
X209009Y173051D01*
X209009Y182041D01*
X209009Y175459D02*
X218999Y175459D01*
X218999Y177867D02*
X209009Y177867D01*
X209009Y180275D02*
X218999Y180275D01*
X222555Y56973D02*
X212565Y56973D01*
X212565Y65963D01*
X222555Y65963D01*
X222555Y56973D01*
X222555Y59381D02*
X212565Y59381D01*
X212565Y61789D02*
X222555Y61789D01*
X222555Y64197D02*
X212565Y64197D01*
X229565Y56973D02*
X239555Y56973D01*
X229565Y56973D02*
X229565Y65963D01*
X239555Y65963D01*
X239555Y56973D01*
X239555Y59381D02*
X229565Y59381D01*
X229565Y61789D02*
X239555Y61789D01*
X239555Y64197D02*
X229565Y64197D01*
X222809Y73991D02*
X212819Y73991D01*
X212819Y82981D01*
X222809Y82981D01*
X222809Y73991D01*
X222809Y76399D02*
X212819Y76399D01*
X212819Y78807D02*
X222809Y78807D01*
X222809Y81215D02*
X212819Y81215D01*
X229819Y73991D02*
X239809Y73991D01*
X229819Y73991D02*
X229819Y82981D01*
X239809Y82981D01*
X239809Y73991D01*
X239809Y76399D02*
X229819Y76399D01*
X229819Y78807D02*
X239809Y78807D01*
X239809Y81215D02*
X229819Y81215D01*
D13*
X249495Y93455D02*
X249495Y104545D01*
X249495Y93455D02*
X230405Y93455D01*
X230405Y104545D01*
X249495Y104545D01*
X249495Y95767D02*
X230405Y95767D01*
X230405Y98079D02*
X249495Y98079D01*
X249495Y100391D02*
X230405Y100391D01*
X230405Y102703D02*
X249495Y102703D01*
X249495Y149455D02*
X249495Y160545D01*
X249495Y149455D02*
X230405Y149455D01*
X230405Y160545D01*
X249495Y160545D01*
X249495Y151767D02*
X230405Y151767D01*
X230405Y154079D02*
X249495Y154079D01*
X249495Y156391D02*
X230405Y156391D01*
X230405Y158703D02*
X249495Y158703D01*
D14*
X209433Y114483D02*
X209433Y109517D01*
X196967Y109517D01*
X196967Y114483D01*
X209433Y114483D01*
X209433Y111947D02*
X196967Y111947D01*
X196967Y114377D02*
X209433Y114377D01*
X209433Y119517D02*
X209433Y124483D01*
X209433Y119517D02*
X196967Y119517D01*
X196967Y124483D01*
X209433Y124483D01*
X209433Y121947D02*
X196967Y121947D01*
X196967Y124377D02*
X209433Y124377D01*
X209433Y129517D02*
X209433Y134483D01*
X209433Y129517D02*
X196967Y129517D01*
X196967Y134483D01*
X209433Y134483D01*
X209433Y131947D02*
X196967Y131947D01*
X196967Y134377D02*
X209433Y134377D01*
X209433Y139517D02*
X209433Y144483D01*
X209433Y139517D02*
X196967Y139517D01*
X196967Y144483D01*
X209433Y144483D01*
X209433Y141947D02*
X196967Y141947D01*
X196967Y144377D02*
X209433Y144377D01*
D15*
X228600Y228600D03*
X25400Y228600D03*
X25400Y25400D03*
X228600Y25400D03*
D16*
X7112Y7112D03*
X246634Y245618D03*
D17*
X127000Y125000D03*
X131000Y125000D03*
X131000Y129000D03*
X127000Y129000D03*
X123000Y129000D03*
X123000Y125000D03*
D12*
X190500Y12700D03*
D10*
X225755Y196773D02*
X235745Y196773D01*
X235745Y187783D01*
X225755Y187783D01*
X225755Y196773D01*
X225755Y190191D02*
X235745Y190191D01*
X235745Y192599D02*
X225755Y192599D01*
X225755Y195007D02*
X235745Y195007D01*
X218745Y196773D02*
X208755Y196773D01*
X218745Y196773D02*
X218745Y187783D01*
X208755Y187783D01*
X208755Y196773D01*
X208755Y190191D02*
X218745Y190191D01*
X218745Y192599D02*
X208755Y192599D01*
X208755Y195007D02*
X218745Y195007D01*
X375361Y91363D02*
X385351Y91363D01*
X385351Y82373D01*
X375361Y82373D01*
X375361Y91363D01*
X375361Y84781D02*
X385351Y84781D01*
X385351Y87189D02*
X375361Y87189D01*
X375361Y89597D02*
X385351Y89597D01*
X368351Y91363D02*
X358361Y91363D01*
X368351Y91363D02*
X368351Y82373D01*
X358361Y82373D01*
X358361Y91363D01*
X358361Y84781D02*
X368351Y84781D01*
X368351Y87189D02*
X358361Y87189D01*
X358361Y89597D02*
X368351Y89597D01*
D11*
X276939Y83271D02*
X276939Y76241D01*
X269909Y76241D01*
X269909Y83271D01*
X276939Y83271D01*
X276939Y80510D02*
X269909Y80510D01*
X294479Y83271D02*
X294479Y76241D01*
X287449Y76241D01*
X287449Y83271D01*
X294479Y83271D01*
X294479Y80510D02*
X287449Y80510D01*
D12*
X322580Y12700D03*
X347980Y12700D03*
X373380Y12700D03*
X398780Y12700D03*
D13*
X263585Y149455D02*
X263585Y160545D01*
X282675Y160545D01*
X282675Y149455D01*
X263585Y149455D01*
X263585Y151767D02*
X282675Y151767D01*
X282675Y154079D02*
X263585Y154079D01*
X263585Y156391D02*
X282675Y156391D01*
X282675Y158703D02*
X263585Y158703D01*
X263585Y104545D02*
X263585Y93455D01*
X263585Y104545D02*
X282675Y104545D01*
X282675Y93455D01*
X263585Y93455D01*
X263585Y95767D02*
X282675Y95767D01*
X282675Y98079D02*
X263585Y98079D01*
X263585Y100391D02*
X282675Y100391D01*
X282675Y102703D02*
X263585Y102703D01*
D14*
X303647Y139517D02*
X303647Y144483D01*
X316113Y144483D01*
X316113Y139517D01*
X303647Y139517D01*
X303647Y141947D02*
X316113Y141947D01*
X316113Y144377D02*
X303647Y144377D01*
X303647Y134483D02*
X303647Y129517D01*
X303647Y134483D02*
X316113Y134483D01*
X316113Y129517D01*
X303647Y129517D01*
X303647Y131947D02*
X316113Y131947D01*
X316113Y134377D02*
X303647Y134377D01*
X303647Y124483D02*
X303647Y119517D01*
X303647Y124483D02*
X316113Y124483D01*
X316113Y119517D01*
X303647Y119517D01*
X303647Y121947D02*
X316113Y121947D01*
X316113Y124377D02*
X303647Y124377D01*
X303647Y114483D02*
X303647Y109517D01*
X303647Y114483D02*
X316113Y114483D01*
X316113Y109517D01*
X303647Y109517D01*
X303647Y111947D02*
X316113Y111947D01*
X316113Y114377D02*
X303647Y114377D01*
D12*
X424180Y12700D03*
D10*
X277673Y60783D02*
X267683Y60783D01*
X267683Y69773D01*
X277673Y69773D01*
X277673Y60783D01*
X277673Y63191D02*
X267683Y63191D01*
X267683Y65599D02*
X277673Y65599D01*
X277673Y68007D02*
X267683Y68007D01*
X284683Y60783D02*
X294673Y60783D01*
X284683Y60783D02*
X284683Y69773D01*
X294673Y69773D01*
X294673Y60783D01*
X294673Y63191D02*
X284683Y63191D01*
X284683Y65599D02*
X294673Y65599D01*
X294673Y68007D02*
X284683Y68007D01*
X485089Y182041D02*
X495079Y182041D01*
X495079Y173051D01*
X485089Y173051D01*
X485089Y182041D01*
X485089Y175459D02*
X495079Y175459D01*
X495079Y177867D02*
X485089Y177867D01*
X485089Y180275D02*
X495079Y180275D01*
X478079Y182041D02*
X468089Y182041D01*
X478079Y182041D02*
X478079Y173051D01*
X468089Y173051D01*
X468089Y182041D01*
X468089Y175459D02*
X478079Y175459D01*
X478079Y177867D02*
X468089Y177867D01*
X468089Y180275D02*
X478079Y180275D01*
X481635Y56973D02*
X471645Y56973D01*
X471645Y65963D01*
X481635Y65963D01*
X481635Y56973D01*
X481635Y59381D02*
X471645Y59381D01*
X471645Y61789D02*
X481635Y61789D01*
X481635Y64197D02*
X471645Y64197D01*
X488645Y56973D02*
X498635Y56973D01*
X488645Y56973D02*
X488645Y65963D01*
X498635Y65963D01*
X498635Y56973D01*
X498635Y59381D02*
X488645Y59381D01*
X488645Y61789D02*
X498635Y61789D01*
X498635Y64197D02*
X488645Y64197D01*
X481889Y73991D02*
X471899Y73991D01*
X471899Y82981D01*
X481889Y82981D01*
X481889Y73991D01*
X481889Y76399D02*
X471899Y76399D01*
X471899Y78807D02*
X481889Y78807D01*
X481889Y81215D02*
X471899Y81215D01*
X488899Y73991D02*
X498889Y73991D01*
X488899Y73991D02*
X488899Y82981D01*
X498889Y82981D01*
X498889Y73991D01*
X498889Y76399D02*
X488899Y76399D01*
X488899Y78807D02*
X498889Y78807D01*
X498889Y81215D02*
X488899Y81215D01*
D13*
X508575Y93455D02*
X508575Y104545D01*
X508575Y93455D02*
X489485Y93455D01*
X489485Y104545D01*
X508575Y104545D01*
X508575Y95767D02*
X489485Y95767D01*
X489485Y98079D02*
X508575Y98079D01*
X508575Y100391D02*
X489485Y100391D01*
X489485Y102703D02*
X508575Y102703D01*
X508575Y149455D02*
X508575Y160545D01*
X508575Y149455D02*
X489485Y149455D01*
X489485Y160545D01*
X508575Y160545D01*
X508575Y151767D02*
X489485Y151767D01*
X489485Y154079D02*
X508575Y154079D01*
X508575Y156391D02*
X489485Y156391D01*
X489485Y158703D02*
X508575Y158703D01*
D14*
X468513Y114483D02*
X468513Y109517D01*
X456047Y109517D01*
X456047Y114483D01*
X468513Y114483D01*
X468513Y111947D02*
X456047Y111947D01*
X456047Y114377D02*
X468513Y114377D01*
X468513Y119517D02*
X468513Y124483D01*
X468513Y119517D02*
X456047Y119517D01*
X456047Y124483D01*
X468513Y124483D01*
X468513Y121947D02*
X456047Y121947D01*
X456047Y124377D02*
X468513Y124377D01*
X468513Y129517D02*
X468513Y134483D01*
X468513Y129517D02*
X456047Y129517D01*
X456047Y134483D01*
X468513Y134483D01*
X468513Y131947D02*
X456047Y131947D01*
X456047Y134377D02*
X468513Y134377D01*
X468513Y139517D02*
X468513Y144483D01*
X468513Y139517D02*
X456047Y139517D01*
X456047Y144483D01*
X468513Y144483D01*
X468513Y141947D02*
X456047Y141947D01*
X456047Y144377D02*
X468513Y144377D01*
D15*
X487680Y228600D03*
X284480Y228600D03*
X284480Y25400D03*
X487680Y25400D03*
D16*
X266192Y7112D03*
X505714Y245618D03*
D17*
X386080Y125000D03*
X390080Y125000D03*
X390080Y129000D03*
X386080Y129000D03*
X382080Y129000D03*
X382080Y125000D03*
D12*
X449580Y12700D03*
D10*
X484835Y196773D02*
X494825Y196773D01*
X494825Y187783D01*
X484835Y187783D01*
X484835Y196773D01*
X484835Y190191D02*
X494825Y190191D01*
X494825Y192599D02*
X484835Y192599D01*
X484835Y195007D02*
X494825Y195007D01*
X477825Y196773D02*
X467835Y196773D01*
X477825Y196773D02*
X477825Y187783D01*
X467835Y187783D01*
X467835Y196773D01*
X467835Y190191D02*
X477825Y190191D01*
X477825Y192599D02*
X467835Y192599D01*
X467835Y195007D02*
X477825Y195007D01*
X634441Y91363D02*
X644431Y91363D01*
X644431Y82373D01*
X634441Y82373D01*
X634441Y91363D01*
X634441Y84781D02*
X644431Y84781D01*
X644431Y87189D02*
X634441Y87189D01*
X634441Y89597D02*
X644431Y89597D01*
X627431Y91363D02*
X617441Y91363D01*
X627431Y91363D02*
X627431Y82373D01*
X617441Y82373D01*
X617441Y91363D01*
X617441Y84781D02*
X627431Y84781D01*
X627431Y87189D02*
X617441Y87189D01*
X617441Y89597D02*
X627431Y89597D01*
D11*
X536019Y83271D02*
X536019Y76241D01*
X528989Y76241D01*
X528989Y83271D01*
X536019Y83271D01*
X536019Y80510D02*
X528989Y80510D01*
X553559Y83271D02*
X553559Y76241D01*
X546529Y76241D01*
X546529Y83271D01*
X553559Y83271D01*
X553559Y80510D02*
X546529Y80510D01*
D12*
X581660Y12700D03*
X607060Y12700D03*
X632460Y12700D03*
X657860Y12700D03*
D13*
X522665Y149455D02*
X522665Y160545D01*
X541755Y160545D01*
X541755Y149455D01*
X522665Y149455D01*
X522665Y151767D02*
X541755Y151767D01*
X541755Y154079D02*
X522665Y154079D01*
X522665Y156391D02*
X541755Y156391D01*
X541755Y158703D02*
X522665Y158703D01*
X522665Y104545D02*
X522665Y93455D01*
X522665Y104545D02*
X541755Y104545D01*
X541755Y93455D01*
X522665Y93455D01*
X522665Y95767D02*
X541755Y95767D01*
X541755Y98079D02*
X522665Y98079D01*
X522665Y100391D02*
X541755Y100391D01*
X541755Y102703D02*
X522665Y102703D01*
D14*
X562727Y139517D02*
X562727Y144483D01*
X575193Y144483D01*
X575193Y139517D01*
X562727Y139517D01*
X562727Y141947D02*
X575193Y141947D01*
X575193Y144377D02*
X562727Y144377D01*
X562727Y134483D02*
X562727Y129517D01*
X562727Y134483D02*
X575193Y134483D01*
X575193Y129517D01*
X562727Y129517D01*
X562727Y131947D02*
X575193Y131947D01*
X575193Y134377D02*
X562727Y134377D01*
X562727Y124483D02*
X562727Y119517D01*
X562727Y124483D02*
X575193Y124483D01*
X575193Y119517D01*
X562727Y119517D01*
X562727Y121947D02*
X575193Y121947D01*
X575193Y124377D02*
X562727Y124377D01*
X562727Y114483D02*
X562727Y109517D01*
X562727Y114483D02*
X575193Y114483D01*
X575193Y109517D01*
X562727Y109517D01*
X562727Y111947D02*
X575193Y111947D01*
X575193Y114377D02*
X562727Y114377D01*
D12*
X683260Y12700D03*
D10*
X536753Y60783D02*
X526763Y60783D01*
X526763Y69773D01*
X536753Y69773D01*
X536753Y60783D01*
X536753Y63191D02*
X526763Y63191D01*
X526763Y65599D02*
X536753Y65599D01*
X536753Y68007D02*
X526763Y68007D01*
X543763Y60783D02*
X553753Y60783D01*
X543763Y60783D02*
X543763Y69773D01*
X553753Y69773D01*
X553753Y60783D01*
X553753Y63191D02*
X543763Y63191D01*
X543763Y65599D02*
X553753Y65599D01*
X553753Y68007D02*
X543763Y68007D01*
X744169Y182041D02*
X754159Y182041D01*
X754159Y173051D01*
X744169Y173051D01*
X744169Y182041D01*
X744169Y175459D02*
X754159Y175459D01*
X754159Y177867D02*
X744169Y177867D01*
X744169Y180275D02*
X754159Y180275D01*
X737159Y182041D02*
X727169Y182041D01*
X737159Y182041D02*
X737159Y173051D01*
X727169Y173051D01*
X727169Y182041D01*
X727169Y175459D02*
X737159Y175459D01*
X737159Y177867D02*
X727169Y177867D01*
X727169Y180275D02*
X737159Y180275D01*
X740715Y56973D02*
X730725Y56973D01*
X730725Y65963D01*
X740715Y65963D01*
X740715Y56973D01*
X740715Y59381D02*
X730725Y59381D01*
X730725Y61789D02*
X740715Y61789D01*
X740715Y64197D02*
X730725Y64197D01*
X747725Y56973D02*
X757715Y56973D01*
X747725Y56973D02*
X747725Y65963D01*
X757715Y65963D01*
X757715Y56973D01*
X757715Y59381D02*
X747725Y59381D01*
X747725Y61789D02*
X757715Y61789D01*
X757715Y64197D02*
X747725Y64197D01*
X740969Y73991D02*
X730979Y73991D01*
X730979Y82981D01*
X740969Y82981D01*
X740969Y73991D01*
X740969Y76399D02*
X730979Y76399D01*
X730979Y78807D02*
X740969Y78807D01*
X740969Y81215D02*
X730979Y81215D01*
X747979Y73991D02*
X757969Y73991D01*
X747979Y73991D02*
X747979Y82981D01*
X757969Y82981D01*
X757969Y73991D01*
X757969Y76399D02*
X747979Y76399D01*
X747979Y78807D02*
X757969Y78807D01*
X757969Y81215D02*
X747979Y81215D01*
D13*
X767655Y93455D02*
X767655Y104545D01*
X767655Y93455D02*
X748565Y93455D01*
X748565Y104545D01*
X767655Y104545D01*
X767655Y95767D02*
X748565Y95767D01*
X748565Y98079D02*
X767655Y98079D01*
X767655Y100391D02*
X748565Y100391D01*
X748565Y102703D02*
X767655Y102703D01*
X767655Y149455D02*
X767655Y160545D01*
X767655Y149455D02*
X748565Y149455D01*
X748565Y160545D01*
X767655Y160545D01*
X767655Y151767D02*
X748565Y151767D01*
X748565Y154079D02*
X767655Y154079D01*
X767655Y156391D02*
X748565Y156391D01*
X748565Y158703D02*
X767655Y158703D01*
D14*
X727593Y114483D02*
X727593Y109517D01*
X715127Y109517D01*
X715127Y114483D01*
X727593Y114483D01*
X727593Y111947D02*
X715127Y111947D01*
X715127Y114377D02*
X727593Y114377D01*
X727593Y119517D02*
X727593Y124483D01*
X727593Y119517D02*
X715127Y119517D01*
X715127Y124483D01*
X727593Y124483D01*
X727593Y121947D02*
X715127Y121947D01*
X715127Y124377D02*
X727593Y124377D01*
X727593Y129517D02*
X727593Y134483D01*
X727593Y129517D02*
X715127Y129517D01*
X715127Y134483D01*
X727593Y134483D01*
X727593Y131947D02*
X715127Y131947D01*
X715127Y134377D02*
X727593Y134377D01*
X727593Y139517D02*
X727593Y144483D01*
X727593Y139517D02*
X715127Y139517D01*
X715127Y144483D01*
X727593Y144483D01*
X727593Y141947D02*
X715127Y141947D01*
X715127Y144377D02*
X727593Y144377D01*
D15*
X746760Y228600D03*
X543560Y228600D03*
X543560Y25400D03*
X746760Y25400D03*
D16*
X525272Y7112D03*
X764794Y245618D03*
D17*
X645160Y125000D03*
X649160Y125000D03*
X649160Y129000D03*
X645160Y129000D03*
X641160Y129000D03*
X641160Y125000D03*
D12*
X708660Y12700D03*
D10*
X743915Y196773D02*
X753905Y196773D01*
X753905Y187783D01*
X743915Y187783D01*
X743915Y196773D01*
X743915Y190191D02*
X753905Y190191D01*
X753905Y192599D02*
X743915Y192599D01*
X743915Y195007D02*
X753905Y195007D01*
X736905Y196773D02*
X726915Y196773D01*
X736905Y196773D02*
X736905Y187783D01*
X726915Y187783D01*
X726915Y196773D01*
X726915Y190191D02*
X736905Y190191D01*
X736905Y192599D02*
X726915Y192599D01*
X726915Y195007D02*
X736905Y195007D01*
X893521Y91363D02*
X903511Y91363D01*
X903511Y82373D01*
X893521Y82373D01*
X893521Y91363D01*
X893521Y84781D02*
X903511Y84781D01*
X903511Y87189D02*
X893521Y87189D01*
X893521Y89597D02*
X903511Y89597D01*
X886511Y91363D02*
X876521Y91363D01*
X886511Y91363D02*
X886511Y82373D01*
X876521Y82373D01*
X876521Y91363D01*
X876521Y84781D02*
X886511Y84781D01*
X886511Y87189D02*
X876521Y87189D01*
X876521Y89597D02*
X886511Y89597D01*
D11*
X795099Y83271D02*
X795099Y76241D01*
X788069Y76241D01*
X788069Y83271D01*
X795099Y83271D01*
X795099Y80510D02*
X788069Y80510D01*
X812639Y83271D02*
X812639Y76241D01*
X805609Y76241D01*
X805609Y83271D01*
X812639Y83271D01*
X812639Y80510D02*
X805609Y80510D01*
D12*
X840740Y12700D03*
X866140Y12700D03*
X891540Y12700D03*
X916940Y12700D03*
D13*
X781745Y149455D02*
X781745Y160545D01*
X800835Y160545D01*
X800835Y149455D01*
X781745Y149455D01*
X781745Y151767D02*
X800835Y151767D01*
X800835Y154079D02*
X781745Y154079D01*
X781745Y156391D02*
X800835Y156391D01*
X800835Y158703D02*
X781745Y158703D01*
X781745Y104545D02*
X781745Y93455D01*
X781745Y104545D02*
X800835Y104545D01*
X800835Y93455D01*
X781745Y93455D01*
X781745Y95767D02*
X800835Y95767D01*
X800835Y98079D02*
X781745Y98079D01*
X781745Y100391D02*
X800835Y100391D01*
X800835Y102703D02*
X781745Y102703D01*
D14*
X821807Y139517D02*
X821807Y144483D01*
X834273Y144483D01*
X834273Y139517D01*
X821807Y139517D01*
X821807Y141947D02*
X834273Y141947D01*
X834273Y144377D02*
X821807Y144377D01*
X821807Y134483D02*
X821807Y129517D01*
X821807Y134483D02*
X834273Y134483D01*
X834273Y129517D01*
X821807Y129517D01*
X821807Y131947D02*
X834273Y131947D01*
X834273Y134377D02*
X821807Y134377D01*
X821807Y124483D02*
X821807Y119517D01*
X821807Y124483D02*
X834273Y124483D01*
X834273Y119517D01*
X821807Y119517D01*
X821807Y121947D02*
X834273Y121947D01*
X834273Y124377D02*
X821807Y124377D01*
X821807Y114483D02*
X821807Y109517D01*
X821807Y114483D02*
X834273Y114483D01*
X834273Y109517D01*
X821807Y109517D01*
X821807Y111947D02*
X834273Y111947D01*
X834273Y114377D02*
X821807Y114377D01*
D12*
X942340Y12700D03*
D10*
X795833Y60783D02*
X785843Y60783D01*
X785843Y69773D01*
X795833Y69773D01*
X795833Y60783D01*
X795833Y63191D02*
X785843Y63191D01*
X785843Y65599D02*
X795833Y65599D01*
X795833Y68007D02*
X785843Y68007D01*
X802843Y60783D02*
X812833Y60783D01*
X802843Y60783D02*
X802843Y69773D01*
X812833Y69773D01*
X812833Y60783D01*
X812833Y63191D02*
X802843Y63191D01*
X802843Y65599D02*
X812833Y65599D01*
X812833Y68007D02*
X802843Y68007D01*
X1003249Y182041D02*
X1013239Y182041D01*
X1013239Y173051D01*
X1003249Y173051D01*
X1003249Y182041D01*
X1003249Y175459D02*
X1013239Y175459D01*
X1013239Y177867D02*
X1003249Y177867D01*
X1003249Y180275D02*
X1013239Y180275D01*
X996239Y182041D02*
X986249Y182041D01*
X996239Y182041D02*
X996239Y173051D01*
X986249Y173051D01*
X986249Y182041D01*
X986249Y175459D02*
X996239Y175459D01*
X996239Y177867D02*
X986249Y177867D01*
X986249Y180275D02*
X996239Y180275D01*
X999795Y56973D02*
X989805Y56973D01*
X989805Y65963D01*
X999795Y65963D01*
X999795Y56973D01*
X999795Y59381D02*
X989805Y59381D01*
X989805Y61789D02*
X999795Y61789D01*
X999795Y64197D02*
X989805Y64197D01*
X1006805Y56973D02*
X1016795Y56973D01*
X1006805Y56973D02*
X1006805Y65963D01*
X1016795Y65963D01*
X1016795Y56973D01*
X1016795Y59381D02*
X1006805Y59381D01*
X1006805Y61789D02*
X1016795Y61789D01*
X1016795Y64197D02*
X1006805Y64197D01*
X1000049Y73991D02*
X990059Y73991D01*
X990059Y82981D01*
X1000049Y82981D01*
X1000049Y73991D01*
X1000049Y76399D02*
X990059Y76399D01*
X990059Y78807D02*
X1000049Y78807D01*
X1000049Y81215D02*
X990059Y81215D01*
X1007059Y73991D02*
X1017049Y73991D01*
X1007059Y73991D02*
X1007059Y82981D01*
X1017049Y82981D01*
X1017049Y73991D01*
X1017049Y76399D02*
X1007059Y76399D01*
X1007059Y78807D02*
X1017049Y78807D01*
X1017049Y81215D02*
X1007059Y81215D01*
D13*
X1026735Y93455D02*
X1026735Y104545D01*
X1026735Y93455D02*
X1007645Y93455D01*
X1007645Y104545D01*
X1026735Y104545D01*
X1026735Y95767D02*
X1007645Y95767D01*
X1007645Y98079D02*
X1026735Y98079D01*
X1026735Y100391D02*
X1007645Y100391D01*
X1007645Y102703D02*
X1026735Y102703D01*
X1026735Y149455D02*
X1026735Y160545D01*
X1026735Y149455D02*
X1007645Y149455D01*
X1007645Y160545D01*
X1026735Y160545D01*
X1026735Y151767D02*
X1007645Y151767D01*
X1007645Y154079D02*
X1026735Y154079D01*
X1026735Y156391D02*
X1007645Y156391D01*
X1007645Y158703D02*
X1026735Y158703D01*
D14*
X986673Y114483D02*
X986673Y109517D01*
X974207Y109517D01*
X974207Y114483D01*
X986673Y114483D01*
X986673Y111947D02*
X974207Y111947D01*
X974207Y114377D02*
X986673Y114377D01*
X986673Y119517D02*
X986673Y124483D01*
X986673Y119517D02*
X974207Y119517D01*
X974207Y124483D01*
X986673Y124483D01*
X986673Y121947D02*
X974207Y121947D01*
X974207Y124377D02*
X986673Y124377D01*
X986673Y129517D02*
X986673Y134483D01*
X986673Y129517D02*
X974207Y129517D01*
X974207Y134483D01*
X986673Y134483D01*
X986673Y131947D02*
X974207Y131947D01*
X974207Y134377D02*
X986673Y134377D01*
X986673Y139517D02*
X986673Y144483D01*
X986673Y139517D02*
X974207Y139517D01*
X974207Y144483D01*
X986673Y144483D01*
X986673Y141947D02*
X974207Y141947D01*
X974207Y144377D02*
X986673Y144377D01*
D15*
X1005840Y228600D03*
X802640Y228600D03*
X802640Y25400D03*
X1005840Y25400D03*
D16*
X784352Y7112D03*
X1023874Y245618D03*
D17*
X904240Y125000D03*
X908240Y125000D03*
X908240Y129000D03*
X904240Y129000D03*
X900240Y129000D03*
X900240Y125000D03*
D12*
X967740Y12700D03*
D10*
X1002995Y196773D02*
X1012985Y196773D01*
X1012985Y187783D01*
X1002995Y187783D01*
X1002995Y196773D01*
X1002995Y190191D02*
X1012985Y190191D01*
X1012985Y192599D02*
X1002995Y192599D01*
X1002995Y195007D02*
X1012985Y195007D01*
X995985Y196773D02*
X985995Y196773D01*
X995985Y196773D02*
X995985Y187783D01*
X985995Y187783D01*
X985995Y196773D01*
X985995Y190191D02*
X995985Y190191D01*
X995985Y192599D02*
X985995Y192599D01*
X985995Y195007D02*
X995985Y195007D01*
X1152601Y91363D02*
X1162591Y91363D01*
X1162591Y82373D01*
X1152601Y82373D01*
X1152601Y91363D01*
X1152601Y84781D02*
X1162591Y84781D01*
X1162591Y87189D02*
X1152601Y87189D01*
X1152601Y89597D02*
X1162591Y89597D01*
X1145591Y91363D02*
X1135601Y91363D01*
X1145591Y91363D02*
X1145591Y82373D01*
X1135601Y82373D01*
X1135601Y91363D01*
X1135601Y84781D02*
X1145591Y84781D01*
X1145591Y87189D02*
X1135601Y87189D01*
X1135601Y89597D02*
X1145591Y89597D01*
D11*
X1054179Y83271D02*
X1054179Y76241D01*
X1047149Y76241D01*
X1047149Y83271D01*
X1054179Y83271D01*
X1054179Y80510D02*
X1047149Y80510D01*
X1071719Y83271D02*
X1071719Y76241D01*
X1064689Y76241D01*
X1064689Y83271D01*
X1071719Y83271D01*
X1071719Y80510D02*
X1064689Y80510D01*
D12*
X1099820Y12700D03*
X1125220Y12700D03*
X1150620Y12700D03*
X1176020Y12700D03*
D13*
X1040825Y149455D02*
X1040825Y160545D01*
X1059915Y160545D01*
X1059915Y149455D01*
X1040825Y149455D01*
X1040825Y151767D02*
X1059915Y151767D01*
X1059915Y154079D02*
X1040825Y154079D01*
X1040825Y156391D02*
X1059915Y156391D01*
X1059915Y158703D02*
X1040825Y158703D01*
X1040825Y104545D02*
X1040825Y93455D01*
X1040825Y104545D02*
X1059915Y104545D01*
X1059915Y93455D01*
X1040825Y93455D01*
X1040825Y95767D02*
X1059915Y95767D01*
X1059915Y98079D02*
X1040825Y98079D01*
X1040825Y100391D02*
X1059915Y100391D01*
X1059915Y102703D02*
X1040825Y102703D01*
D14*
X1080887Y139517D02*
X1080887Y144483D01*
X1093353Y144483D01*
X1093353Y139517D01*
X1080887Y139517D01*
X1080887Y141947D02*
X1093353Y141947D01*
X1093353Y144377D02*
X1080887Y144377D01*
X1080887Y134483D02*
X1080887Y129517D01*
X1080887Y134483D02*
X1093353Y134483D01*
X1093353Y129517D01*
X1080887Y129517D01*
X1080887Y131947D02*
X1093353Y131947D01*
X1093353Y134377D02*
X1080887Y134377D01*
X1080887Y124483D02*
X1080887Y119517D01*
X1080887Y124483D02*
X1093353Y124483D01*
X1093353Y119517D01*
X1080887Y119517D01*
X1080887Y121947D02*
X1093353Y121947D01*
X1093353Y124377D02*
X1080887Y124377D01*
X1080887Y114483D02*
X1080887Y109517D01*
X1080887Y114483D02*
X1093353Y114483D01*
X1093353Y109517D01*
X1080887Y109517D01*
X1080887Y111947D02*
X1093353Y111947D01*
X1093353Y114377D02*
X1080887Y114377D01*
D12*
X1201420Y12700D03*
D10*
X1054913Y60783D02*
X1044923Y60783D01*
X1044923Y69773D01*
X1054913Y69773D01*
X1054913Y60783D01*
X1054913Y63191D02*
X1044923Y63191D01*
X1044923Y65599D02*
X1054913Y65599D01*
X1054913Y68007D02*
X1044923Y68007D01*
X1061923Y60783D02*
X1071913Y60783D01*
X1061923Y60783D02*
X1061923Y69773D01*
X1071913Y69773D01*
X1071913Y60783D01*
X1071913Y63191D02*
X1061923Y63191D01*
X1061923Y65599D02*
X1071913Y65599D01*
X1071913Y68007D02*
X1061923Y68007D01*
X1262329Y182041D02*
X1272319Y182041D01*
X1272319Y173051D01*
X1262329Y173051D01*
X1262329Y182041D01*
X1262329Y175459D02*
X1272319Y175459D01*
X1272319Y177867D02*
X1262329Y177867D01*
X1262329Y180275D02*
X1272319Y180275D01*
X1255319Y182041D02*
X1245329Y182041D01*
X1255319Y182041D02*
X1255319Y173051D01*
X1245329Y173051D01*
X1245329Y182041D01*
X1245329Y175459D02*
X1255319Y175459D01*
X1255319Y177867D02*
X1245329Y177867D01*
X1245329Y180275D02*
X1255319Y180275D01*
X1258875Y56973D02*
X1248885Y56973D01*
X1248885Y65963D01*
X1258875Y65963D01*
X1258875Y56973D01*
X1258875Y59381D02*
X1248885Y59381D01*
X1248885Y61789D02*
X1258875Y61789D01*
X1258875Y64197D02*
X1248885Y64197D01*
X1265885Y56973D02*
X1275875Y56973D01*
X1265885Y56973D02*
X1265885Y65963D01*
X1275875Y65963D01*
X1275875Y56973D01*
X1275875Y59381D02*
X1265885Y59381D01*
X1265885Y61789D02*
X1275875Y61789D01*
X1275875Y64197D02*
X1265885Y64197D01*
X1259129Y73991D02*
X1249139Y73991D01*
X1249139Y82981D01*
X1259129Y82981D01*
X1259129Y73991D01*
X1259129Y76399D02*
X1249139Y76399D01*
X1249139Y78807D02*
X1259129Y78807D01*
X1259129Y81215D02*
X1249139Y81215D01*
X1266139Y73991D02*
X1276129Y73991D01*
X1266139Y73991D02*
X1266139Y82981D01*
X1276129Y82981D01*
X1276129Y73991D01*
X1276129Y76399D02*
X1266139Y76399D01*
X1266139Y78807D02*
X1276129Y78807D01*
X1276129Y81215D02*
X1266139Y81215D01*
D13*
X1285815Y93455D02*
X1285815Y104545D01*
X1285815Y93455D02*
X1266725Y93455D01*
X1266725Y104545D01*
X1285815Y104545D01*
X1285815Y95767D02*
X1266725Y95767D01*
X1266725Y98079D02*
X1285815Y98079D01*
X1285815Y100391D02*
X1266725Y100391D01*
X1266725Y102703D02*
X1285815Y102703D01*
X1285815Y149455D02*
X1285815Y160545D01*
X1285815Y149455D02*
X1266725Y149455D01*
X1266725Y160545D01*
X1285815Y160545D01*
X1285815Y151767D02*
X1266725Y151767D01*
X1266725Y154079D02*
X1285815Y154079D01*
X1285815Y156391D02*
X1266725Y156391D01*
X1266725Y158703D02*
X1285815Y158703D01*
D14*
X1245753Y114483D02*
X1245753Y109517D01*
X1233287Y109517D01*
X1233287Y114483D01*
X1245753Y114483D01*
X1245753Y111947D02*
X1233287Y111947D01*
X1233287Y114377D02*
X1245753Y114377D01*
X1245753Y119517D02*
X1245753Y124483D01*
X1245753Y119517D02*
X1233287Y119517D01*
X1233287Y124483D01*
X1245753Y124483D01*
X1245753Y121947D02*
X1233287Y121947D01*
X1233287Y124377D02*
X1245753Y124377D01*
X1245753Y129517D02*
X1245753Y134483D01*
X1245753Y129517D02*
X1233287Y129517D01*
X1233287Y134483D01*
X1245753Y134483D01*
X1245753Y131947D02*
X1233287Y131947D01*
X1233287Y134377D02*
X1245753Y134377D01*
X1245753Y139517D02*
X1245753Y144483D01*
X1245753Y139517D02*
X1233287Y139517D01*
X1233287Y144483D01*
X1245753Y144483D01*
X1245753Y141947D02*
X1233287Y141947D01*
X1233287Y144377D02*
X1245753Y144377D01*
D15*
X1264920Y228600D03*
X1061720Y228600D03*
X1061720Y25400D03*
X1264920Y25400D03*
D16*
X1043432Y7112D03*
X1282954Y245618D03*
D17*
X1163320Y125000D03*
X1167320Y125000D03*
X1167320Y129000D03*
X1163320Y129000D03*
X1159320Y129000D03*
X1159320Y125000D03*
D12*
X1226820Y12700D03*
D10*
X1262075Y196773D02*
X1272065Y196773D01*
X1272065Y187783D01*
X1262075Y187783D01*
X1262075Y196773D01*
X1262075Y190191D02*
X1272065Y190191D01*
X1272065Y192599D02*
X1262075Y192599D01*
X1262075Y195007D02*
X1272065Y195007D01*
X1255065Y196773D02*
X1245075Y196773D01*
X1255065Y196773D02*
X1255065Y187783D01*
X1245075Y187783D01*
X1245075Y196773D01*
X1245075Y190191D02*
X1255065Y190191D01*
X1255065Y192599D02*
X1245075Y192599D01*
X1245075Y195007D02*
X1255065Y195007D01*
X1411681Y91363D02*
X1421671Y91363D01*
X1421671Y82373D01*
X1411681Y82373D01*
X1411681Y91363D01*
X1411681Y84781D02*
X1421671Y84781D01*
X1421671Y87189D02*
X1411681Y87189D01*
X1411681Y89597D02*
X1421671Y89597D01*
X1404671Y91363D02*
X1394681Y91363D01*
X1404671Y91363D02*
X1404671Y82373D01*
X1394681Y82373D01*
X1394681Y91363D01*
X1394681Y84781D02*
X1404671Y84781D01*
X1404671Y87189D02*
X1394681Y87189D01*
X1394681Y89597D02*
X1404671Y89597D01*
D11*
X1313259Y83271D02*
X1313259Y76241D01*
X1306229Y76241D01*
X1306229Y83271D01*
X1313259Y83271D01*
X1313259Y80510D02*
X1306229Y80510D01*
X1330799Y83271D02*
X1330799Y76241D01*
X1323769Y76241D01*
X1323769Y83271D01*
X1330799Y83271D01*
X1330799Y80510D02*
X1323769Y80510D01*
D12*
X1358900Y12700D03*
X1384300Y12700D03*
X1409700Y12700D03*
X1435100Y12700D03*
D13*
X1299905Y149455D02*
X1299905Y160545D01*
X1318995Y160545D01*
X1318995Y149455D01*
X1299905Y149455D01*
X1299905Y151767D02*
X1318995Y151767D01*
X1318995Y154079D02*
X1299905Y154079D01*
X1299905Y156391D02*
X1318995Y156391D01*
X1318995Y158703D02*
X1299905Y158703D01*
X1299905Y104545D02*
X1299905Y93455D01*
X1299905Y104545D02*
X1318995Y104545D01*
X1318995Y93455D01*
X1299905Y93455D01*
X1299905Y95767D02*
X1318995Y95767D01*
X1318995Y98079D02*
X1299905Y98079D01*
X1299905Y100391D02*
X1318995Y100391D01*
X1318995Y102703D02*
X1299905Y102703D01*
D14*
X1339967Y139517D02*
X1339967Y144483D01*
X1352433Y144483D01*
X1352433Y139517D01*
X1339967Y139517D01*
X1339967Y141947D02*
X1352433Y141947D01*
X1352433Y144377D02*
X1339967Y144377D01*
X1339967Y134483D02*
X1339967Y129517D01*
X1339967Y134483D02*
X1352433Y134483D01*
X1352433Y129517D01*
X1339967Y129517D01*
X1339967Y131947D02*
X1352433Y131947D01*
X1352433Y134377D02*
X1339967Y134377D01*
X1339967Y124483D02*
X1339967Y119517D01*
X1339967Y124483D02*
X1352433Y124483D01*
X1352433Y119517D01*
X1339967Y119517D01*
X1339967Y121947D02*
X1352433Y121947D01*
X1352433Y124377D02*
X1339967Y124377D01*
X1339967Y114483D02*
X1339967Y109517D01*
X1339967Y114483D02*
X1352433Y114483D01*
X1352433Y109517D01*
X1339967Y109517D01*
X1339967Y111947D02*
X1352433Y111947D01*
X1352433Y114377D02*
X1339967Y114377D01*
D12*
X1460500Y12700D03*
D10*
X1313993Y60783D02*
X1304003Y60783D01*
X1304003Y69773D01*
X1313993Y69773D01*
X1313993Y60783D01*
X1313993Y63191D02*
X1304003Y63191D01*
X1304003Y65599D02*
X1313993Y65599D01*
X1313993Y68007D02*
X1304003Y68007D01*
X1321003Y60783D02*
X1330993Y60783D01*
X1321003Y60783D02*
X1321003Y69773D01*
X1330993Y69773D01*
X1330993Y60783D01*
X1330993Y63191D02*
X1321003Y63191D01*
X1321003Y65599D02*
X1330993Y65599D01*
X1330993Y68007D02*
X1321003Y68007D01*
X1521409Y182041D02*
X1531399Y182041D01*
X1531399Y173051D01*
X1521409Y173051D01*
X1521409Y182041D01*
X1521409Y175459D02*
X1531399Y175459D01*
X1531399Y177867D02*
X1521409Y177867D01*
X1521409Y180275D02*
X1531399Y180275D01*
X1514399Y182041D02*
X1504409Y182041D01*
X1514399Y182041D02*
X1514399Y173051D01*
X1504409Y173051D01*
X1504409Y182041D01*
X1504409Y175459D02*
X1514399Y175459D01*
X1514399Y177867D02*
X1504409Y177867D01*
X1504409Y180275D02*
X1514399Y180275D01*
X1517955Y56973D02*
X1507965Y56973D01*
X1507965Y65963D01*
X1517955Y65963D01*
X1517955Y56973D01*
X1517955Y59381D02*
X1507965Y59381D01*
X1507965Y61789D02*
X1517955Y61789D01*
X1517955Y64197D02*
X1507965Y64197D01*
X1524965Y56973D02*
X1534955Y56973D01*
X1524965Y56973D02*
X1524965Y65963D01*
X1534955Y65963D01*
X1534955Y56973D01*
X1534955Y59381D02*
X1524965Y59381D01*
X1524965Y61789D02*
X1534955Y61789D01*
X1534955Y64197D02*
X1524965Y64197D01*
X1518209Y73991D02*
X1508219Y73991D01*
X1508219Y82981D01*
X1518209Y82981D01*
X1518209Y73991D01*
X1518209Y76399D02*
X1508219Y76399D01*
X1508219Y78807D02*
X1518209Y78807D01*
X1518209Y81215D02*
X1508219Y81215D01*
X1525219Y73991D02*
X1535209Y73991D01*
X1525219Y73991D02*
X1525219Y82981D01*
X1535209Y82981D01*
X1535209Y73991D01*
X1535209Y76399D02*
X1525219Y76399D01*
X1525219Y78807D02*
X1535209Y78807D01*
X1535209Y81215D02*
X1525219Y81215D01*
D13*
X1544895Y93455D02*
X1544895Y104545D01*
X1544895Y93455D02*
X1525805Y93455D01*
X1525805Y104545D01*
X1544895Y104545D01*
X1544895Y95767D02*
X1525805Y95767D01*
X1525805Y98079D02*
X1544895Y98079D01*
X1544895Y100391D02*
X1525805Y100391D01*
X1525805Y102703D02*
X1544895Y102703D01*
X1544895Y149455D02*
X1544895Y160545D01*
X1544895Y149455D02*
X1525805Y149455D01*
X1525805Y160545D01*
X1544895Y160545D01*
X1544895Y151767D02*
X1525805Y151767D01*
X1525805Y154079D02*
X1544895Y154079D01*
X1544895Y156391D02*
X1525805Y156391D01*
X1525805Y158703D02*
X1544895Y158703D01*
D14*
X1504833Y114483D02*
X1504833Y109517D01*
X1492367Y109517D01*
X1492367Y114483D01*
X1504833Y114483D01*
X1504833Y111947D02*
X1492367Y111947D01*
X1492367Y114377D02*
X1504833Y114377D01*
X1504833Y119517D02*
X1504833Y124483D01*
X1504833Y119517D02*
X1492367Y119517D01*
X1492367Y124483D01*
X1504833Y124483D01*
X1504833Y121947D02*
X1492367Y121947D01*
X1492367Y124377D02*
X1504833Y124377D01*
X1504833Y129517D02*
X1504833Y134483D01*
X1504833Y129517D02*
X1492367Y129517D01*
X1492367Y134483D01*
X1504833Y134483D01*
X1504833Y131947D02*
X1492367Y131947D01*
X1492367Y134377D02*
X1504833Y134377D01*
X1504833Y139517D02*
X1504833Y144483D01*
X1504833Y139517D02*
X1492367Y139517D01*
X1492367Y144483D01*
X1504833Y144483D01*
X1504833Y141947D02*
X1492367Y141947D01*
X1492367Y144377D02*
X1504833Y144377D01*
D15*
X1524000Y228600D03*
X1320800Y228600D03*
X1320800Y25400D03*
X1524000Y25400D03*
D16*
X1302512Y7112D03*
X1542034Y245618D03*
D17*
X1422400Y125000D03*
X1426400Y125000D03*
X1426400Y129000D03*
X1422400Y129000D03*
X1418400Y129000D03*
X1418400Y125000D03*
D12*
X1485900Y12700D03*
D10*
X1521155Y196773D02*
X1531145Y196773D01*
X1531145Y187783D01*
X1521155Y187783D01*
X1521155Y196773D01*
X1521155Y190191D02*
X1531145Y190191D01*
X1531145Y192599D02*
X1521155Y192599D01*
X1521155Y195007D02*
X1531145Y195007D01*
X1514145Y196773D02*
X1504155Y196773D01*
X1514145Y196773D02*
X1514145Y187783D01*
X1504155Y187783D01*
X1504155Y196773D01*
X1504155Y190191D02*
X1514145Y190191D01*
X1514145Y192599D02*
X1504155Y192599D01*
X1504155Y195007D02*
X1514145Y195007D01*
X126271Y350443D02*
X116281Y350443D01*
X126271Y350443D02*
X126271Y341453D01*
X116281Y341453D01*
X116281Y350443D01*
X116281Y343861D02*
X126271Y343861D01*
X126271Y346269D02*
X116281Y346269D01*
X116281Y348677D02*
X126271Y348677D01*
X109271Y350443D02*
X99281Y350443D01*
X109271Y350443D02*
X109271Y341453D01*
X99281Y341453D01*
X99281Y350443D01*
X99281Y343861D02*
X109271Y343861D01*
X109271Y346269D02*
X99281Y346269D01*
X99281Y348677D02*
X109271Y348677D01*
D11*
X17859Y342351D02*
X17859Y335321D01*
X10829Y335321D01*
X10829Y342351D01*
X17859Y342351D01*
X17859Y339590D02*
X10829Y339590D01*
X35399Y342351D02*
X35399Y335321D01*
X28369Y335321D01*
X28369Y342351D01*
X35399Y342351D01*
X35399Y339590D02*
X28369Y339590D01*
D12*
X63500Y271780D03*
X88900Y271780D03*
X114300Y271780D03*
X139700Y271780D03*
D13*
X4505Y408535D02*
X4505Y419625D01*
X23595Y419625D01*
X23595Y408535D01*
X4505Y408535D01*
X4505Y410847D02*
X23595Y410847D01*
X23595Y413159D02*
X4505Y413159D01*
X4505Y415471D02*
X23595Y415471D01*
X23595Y417783D02*
X4505Y417783D01*
X4505Y363625D02*
X4505Y352535D01*
X4505Y363625D02*
X23595Y363625D01*
X23595Y352535D01*
X4505Y352535D01*
X4505Y354847D02*
X23595Y354847D01*
X23595Y357159D02*
X4505Y357159D01*
X4505Y359471D02*
X23595Y359471D01*
X23595Y361783D02*
X4505Y361783D01*
D14*
X44567Y398597D02*
X44567Y403563D01*
X57033Y403563D01*
X57033Y398597D01*
X44567Y398597D01*
X44567Y401027D02*
X57033Y401027D01*
X57033Y403457D02*
X44567Y403457D01*
X44567Y393563D02*
X44567Y388597D01*
X44567Y393563D02*
X57033Y393563D01*
X57033Y388597D01*
X44567Y388597D01*
X44567Y391027D02*
X57033Y391027D01*
X57033Y393457D02*
X44567Y393457D01*
X44567Y383563D02*
X44567Y378597D01*
X44567Y383563D02*
X57033Y383563D01*
X57033Y378597D01*
X44567Y378597D01*
X44567Y381027D02*
X57033Y381027D01*
X57033Y383457D02*
X44567Y383457D01*
X44567Y373563D02*
X44567Y368597D01*
X44567Y373563D02*
X57033Y373563D01*
X57033Y368597D01*
X44567Y368597D01*
X44567Y371027D02*
X57033Y371027D01*
X57033Y373457D02*
X44567Y373457D01*
D12*
X165100Y271780D03*
D10*
X18593Y319863D02*
X8603Y319863D01*
X8603Y328853D01*
X18593Y328853D01*
X18593Y319863D01*
X18593Y322271D02*
X8603Y322271D01*
X8603Y324679D02*
X18593Y324679D01*
X18593Y327087D02*
X8603Y327087D01*
X25603Y319863D02*
X35593Y319863D01*
X25603Y319863D02*
X25603Y328853D01*
X35593Y328853D01*
X35593Y319863D01*
X35593Y322271D02*
X25603Y322271D01*
X25603Y324679D02*
X35593Y324679D01*
X35593Y327087D02*
X25603Y327087D01*
X226009Y441121D02*
X235999Y441121D01*
X235999Y432131D01*
X226009Y432131D01*
X226009Y441121D01*
X226009Y434539D02*
X235999Y434539D01*
X235999Y436947D02*
X226009Y436947D01*
X226009Y439355D02*
X235999Y439355D01*
X218999Y441121D02*
X209009Y441121D01*
X218999Y441121D02*
X218999Y432131D01*
X209009Y432131D01*
X209009Y441121D01*
X209009Y434539D02*
X218999Y434539D01*
X218999Y436947D02*
X209009Y436947D01*
X209009Y439355D02*
X218999Y439355D01*
X222555Y316053D02*
X212565Y316053D01*
X212565Y325043D01*
X222555Y325043D01*
X222555Y316053D01*
X222555Y318461D02*
X212565Y318461D01*
X212565Y320869D02*
X222555Y320869D01*
X222555Y323277D02*
X212565Y323277D01*
X229565Y316053D02*
X239555Y316053D01*
X229565Y316053D02*
X229565Y325043D01*
X239555Y325043D01*
X239555Y316053D01*
X239555Y318461D02*
X229565Y318461D01*
X229565Y320869D02*
X239555Y320869D01*
X239555Y323277D02*
X229565Y323277D01*
X222809Y333071D02*
X212819Y333071D01*
X212819Y342061D01*
X222809Y342061D01*
X222809Y333071D01*
X222809Y335479D02*
X212819Y335479D01*
X212819Y337887D02*
X222809Y337887D01*
X222809Y340295D02*
X212819Y340295D01*
X229819Y333071D02*
X239809Y333071D01*
X229819Y333071D02*
X229819Y342061D01*
X239809Y342061D01*
X239809Y333071D01*
X239809Y335479D02*
X229819Y335479D01*
X229819Y337887D02*
X239809Y337887D01*
X239809Y340295D02*
X229819Y340295D01*
D13*
X249495Y352535D02*
X249495Y363625D01*
X249495Y352535D02*
X230405Y352535D01*
X230405Y363625D01*
X249495Y363625D01*
X249495Y354847D02*
X230405Y354847D01*
X230405Y357159D02*
X249495Y357159D01*
X249495Y359471D02*
X230405Y359471D01*
X230405Y361783D02*
X249495Y361783D01*
X249495Y408535D02*
X249495Y419625D01*
X249495Y408535D02*
X230405Y408535D01*
X230405Y419625D01*
X249495Y419625D01*
X249495Y410847D02*
X230405Y410847D01*
X230405Y413159D02*
X249495Y413159D01*
X249495Y415471D02*
X230405Y415471D01*
X230405Y417783D02*
X249495Y417783D01*
D14*
X209433Y373563D02*
X209433Y368597D01*
X196967Y368597D01*
X196967Y373563D01*
X209433Y373563D01*
X209433Y371027D02*
X196967Y371027D01*
X196967Y373457D02*
X209433Y373457D01*
X209433Y378597D02*
X209433Y383563D01*
X209433Y378597D02*
X196967Y378597D01*
X196967Y383563D01*
X209433Y383563D01*
X209433Y381027D02*
X196967Y381027D01*
X196967Y383457D02*
X209433Y383457D01*
X209433Y388597D02*
X209433Y393563D01*
X209433Y388597D02*
X196967Y388597D01*
X196967Y393563D01*
X209433Y393563D01*
X209433Y391027D02*
X196967Y391027D01*
X196967Y393457D02*
X209433Y393457D01*
X209433Y398597D02*
X209433Y403563D01*
X209433Y398597D02*
X196967Y398597D01*
X196967Y403563D01*
X209433Y403563D01*
X209433Y401027D02*
X196967Y401027D01*
X196967Y403457D02*
X209433Y403457D01*
D15*
X228600Y487680D03*
X25400Y487680D03*
X25400Y284480D03*
X228600Y284480D03*
D16*
X7112Y266192D03*
X246634Y504698D03*
D17*
X127000Y384080D03*
X131000Y384080D03*
X131000Y388080D03*
X127000Y388080D03*
X123000Y388080D03*
X123000Y384080D03*
D12*
X190500Y271780D03*
D10*
X225755Y455853D02*
X235745Y455853D01*
X235745Y446863D01*
X225755Y446863D01*
X225755Y455853D01*
X225755Y449271D02*
X235745Y449271D01*
X235745Y451679D02*
X225755Y451679D01*
X225755Y454087D02*
X235745Y454087D01*
X218745Y455853D02*
X208755Y455853D01*
X218745Y455853D02*
X218745Y446863D01*
X208755Y446863D01*
X208755Y455853D01*
X208755Y449271D02*
X218745Y449271D01*
X218745Y451679D02*
X208755Y451679D01*
X208755Y454087D02*
X218745Y454087D01*
X375361Y350443D02*
X385351Y350443D01*
X385351Y341453D01*
X375361Y341453D01*
X375361Y350443D01*
X375361Y343861D02*
X385351Y343861D01*
X385351Y346269D02*
X375361Y346269D01*
X375361Y348677D02*
X385351Y348677D01*
X368351Y350443D02*
X358361Y350443D01*
X368351Y350443D02*
X368351Y341453D01*
X358361Y341453D01*
X358361Y350443D01*
X358361Y343861D02*
X368351Y343861D01*
X368351Y346269D02*
X358361Y346269D01*
X358361Y348677D02*
X368351Y348677D01*
D11*
X276939Y342351D02*
X276939Y335321D01*
X269909Y335321D01*
X269909Y342351D01*
X276939Y342351D01*
X276939Y339590D02*
X269909Y339590D01*
X294479Y342351D02*
X294479Y335321D01*
X287449Y335321D01*
X287449Y342351D01*
X294479Y342351D01*
X294479Y339590D02*
X287449Y339590D01*
D12*
X322580Y271780D03*
X347980Y271780D03*
X373380Y271780D03*
X398780Y271780D03*
D13*
X263585Y408535D02*
X263585Y419625D01*
X282675Y419625D01*
X282675Y408535D01*
X263585Y408535D01*
X263585Y410847D02*
X282675Y410847D01*
X282675Y413159D02*
X263585Y413159D01*
X263585Y415471D02*
X282675Y415471D01*
X282675Y417783D02*
X263585Y417783D01*
X263585Y363625D02*
X263585Y352535D01*
X263585Y363625D02*
X282675Y363625D01*
X282675Y352535D01*
X263585Y352535D01*
X263585Y354847D02*
X282675Y354847D01*
X282675Y357159D02*
X263585Y357159D01*
X263585Y359471D02*
X282675Y359471D01*
X282675Y361783D02*
X263585Y361783D01*
D14*
X303647Y398597D02*
X303647Y403563D01*
X316113Y403563D01*
X316113Y398597D01*
X303647Y398597D01*
X303647Y401027D02*
X316113Y401027D01*
X316113Y403457D02*
X303647Y403457D01*
X303647Y393563D02*
X303647Y388597D01*
X303647Y393563D02*
X316113Y393563D01*
X316113Y388597D01*
X303647Y388597D01*
X303647Y391027D02*
X316113Y391027D01*
X316113Y393457D02*
X303647Y393457D01*
X303647Y383563D02*
X303647Y378597D01*
X303647Y383563D02*
X316113Y383563D01*
X316113Y378597D01*
X303647Y378597D01*
X303647Y381027D02*
X316113Y381027D01*
X316113Y383457D02*
X303647Y383457D01*
X303647Y373563D02*
X303647Y368597D01*
X303647Y373563D02*
X316113Y373563D01*
X316113Y368597D01*
X303647Y368597D01*
X303647Y371027D02*
X316113Y371027D01*
X316113Y373457D02*
X303647Y373457D01*
D12*
X424180Y271780D03*
D10*
X277673Y319863D02*
X267683Y319863D01*
X267683Y328853D01*
X277673Y328853D01*
X277673Y319863D01*
X277673Y322271D02*
X267683Y322271D01*
X267683Y324679D02*
X277673Y324679D01*
X277673Y327087D02*
X267683Y327087D01*
X284683Y319863D02*
X294673Y319863D01*
X284683Y319863D02*
X284683Y328853D01*
X294673Y328853D01*
X294673Y319863D01*
X294673Y322271D02*
X284683Y322271D01*
X284683Y324679D02*
X294673Y324679D01*
X294673Y327087D02*
X284683Y327087D01*
X485089Y441121D02*
X495079Y441121D01*
X495079Y432131D01*
X485089Y432131D01*
X485089Y441121D01*
X485089Y434539D02*
X495079Y434539D01*
X495079Y436947D02*
X485089Y436947D01*
X485089Y439355D02*
X495079Y439355D01*
X478079Y441121D02*
X468089Y441121D01*
X478079Y441121D02*
X478079Y432131D01*
X468089Y432131D01*
X468089Y441121D01*
X468089Y434539D02*
X478079Y434539D01*
X478079Y436947D02*
X468089Y436947D01*
X468089Y439355D02*
X478079Y439355D01*
X481635Y316053D02*
X471645Y316053D01*
X471645Y325043D01*
X481635Y325043D01*
X481635Y316053D01*
X481635Y318461D02*
X471645Y318461D01*
X471645Y320869D02*
X481635Y320869D01*
X481635Y323277D02*
X471645Y323277D01*
X488645Y316053D02*
X498635Y316053D01*
X488645Y316053D02*
X488645Y325043D01*
X498635Y325043D01*
X498635Y316053D01*
X498635Y318461D02*
X488645Y318461D01*
X488645Y320869D02*
X498635Y320869D01*
X498635Y323277D02*
X488645Y323277D01*
X481889Y333071D02*
X471899Y333071D01*
X471899Y342061D01*
X481889Y342061D01*
X481889Y333071D01*
X481889Y335479D02*
X471899Y335479D01*
X471899Y337887D02*
X481889Y337887D01*
X481889Y340295D02*
X471899Y340295D01*
X488899Y333071D02*
X498889Y333071D01*
X488899Y333071D02*
X488899Y342061D01*
X498889Y342061D01*
X498889Y333071D01*
X498889Y335479D02*
X488899Y335479D01*
X488899Y337887D02*
X498889Y337887D01*
X498889Y340295D02*
X488899Y340295D01*
D13*
X508575Y352535D02*
X508575Y363625D01*
X508575Y352535D02*
X489485Y352535D01*
X489485Y363625D01*
X508575Y363625D01*
X508575Y354847D02*
X489485Y354847D01*
X489485Y357159D02*
X508575Y357159D01*
X508575Y359471D02*
X489485Y359471D01*
X489485Y361783D02*
X508575Y361783D01*
X508575Y408535D02*
X508575Y419625D01*
X508575Y408535D02*
X489485Y408535D01*
X489485Y419625D01*
X508575Y419625D01*
X508575Y410847D02*
X489485Y410847D01*
X489485Y413159D02*
X508575Y413159D01*
X508575Y415471D02*
X489485Y415471D01*
X489485Y417783D02*
X508575Y417783D01*
D14*
X468513Y373563D02*
X468513Y368597D01*
X456047Y368597D01*
X456047Y373563D01*
X468513Y373563D01*
X468513Y371027D02*
X456047Y371027D01*
X456047Y373457D02*
X468513Y373457D01*
X468513Y378597D02*
X468513Y383563D01*
X468513Y378597D02*
X456047Y378597D01*
X456047Y383563D01*
X468513Y383563D01*
X468513Y381027D02*
X456047Y381027D01*
X456047Y383457D02*
X468513Y383457D01*
X468513Y388597D02*
X468513Y393563D01*
X468513Y388597D02*
X456047Y388597D01*
X456047Y393563D01*
X468513Y393563D01*
X468513Y391027D02*
X456047Y391027D01*
X456047Y393457D02*
X468513Y393457D01*
X468513Y398597D02*
X468513Y403563D01*
X468513Y398597D02*
X456047Y398597D01*
X456047Y403563D01*
X468513Y403563D01*
X468513Y401027D02*
X456047Y401027D01*
X456047Y403457D02*
X468513Y403457D01*
D15*
X487680Y487680D03*
X284480Y487680D03*
X284480Y284480D03*
X487680Y284480D03*
D16*
X266192Y266192D03*
X505714Y504698D03*
D17*
X386080Y384080D03*
X390080Y384080D03*
X390080Y388080D03*
X386080Y388080D03*
X382080Y388080D03*
X382080Y384080D03*
D12*
X449580Y271780D03*
D10*
X484835Y455853D02*
X494825Y455853D01*
X494825Y446863D01*
X484835Y446863D01*
X484835Y455853D01*
X484835Y449271D02*
X494825Y449271D01*
X494825Y451679D02*
X484835Y451679D01*
X484835Y454087D02*
X494825Y454087D01*
X477825Y455853D02*
X467835Y455853D01*
X477825Y455853D02*
X477825Y446863D01*
X467835Y446863D01*
X467835Y455853D01*
X467835Y449271D02*
X477825Y449271D01*
X477825Y451679D02*
X467835Y451679D01*
X467835Y454087D02*
X477825Y454087D01*
X634441Y350443D02*
X644431Y350443D01*
X644431Y341453D01*
X634441Y341453D01*
X634441Y350443D01*
X634441Y343861D02*
X644431Y343861D01*
X644431Y346269D02*
X634441Y346269D01*
X634441Y348677D02*
X644431Y348677D01*
X627431Y350443D02*
X617441Y350443D01*
X627431Y350443D02*
X627431Y341453D01*
X617441Y341453D01*
X617441Y350443D01*
X617441Y343861D02*
X627431Y343861D01*
X627431Y346269D02*
X617441Y346269D01*
X617441Y348677D02*
X627431Y348677D01*
D11*
X536019Y342351D02*
X536019Y335321D01*
X528989Y335321D01*
X528989Y342351D01*
X536019Y342351D01*
X536019Y339590D02*
X528989Y339590D01*
X553559Y342351D02*
X553559Y335321D01*
X546529Y335321D01*
X546529Y342351D01*
X553559Y342351D01*
X553559Y339590D02*
X546529Y339590D01*
D12*
X581660Y271780D03*
X607060Y271780D03*
X632460Y271780D03*
X657860Y271780D03*
D13*
X522665Y408535D02*
X522665Y419625D01*
X541755Y419625D01*
X541755Y408535D01*
X522665Y408535D01*
X522665Y410847D02*
X541755Y410847D01*
X541755Y413159D02*
X522665Y413159D01*
X522665Y415471D02*
X541755Y415471D01*
X541755Y417783D02*
X522665Y417783D01*
X522665Y363625D02*
X522665Y352535D01*
X522665Y363625D02*
X541755Y363625D01*
X541755Y352535D01*
X522665Y352535D01*
X522665Y354847D02*
X541755Y354847D01*
X541755Y357159D02*
X522665Y357159D01*
X522665Y359471D02*
X541755Y359471D01*
X541755Y361783D02*
X522665Y361783D01*
D14*
X562727Y398597D02*
X562727Y403563D01*
X575193Y403563D01*
X575193Y398597D01*
X562727Y398597D01*
X562727Y401027D02*
X575193Y401027D01*
X575193Y403457D02*
X562727Y403457D01*
X562727Y393563D02*
X562727Y388597D01*
X562727Y393563D02*
X575193Y393563D01*
X575193Y388597D01*
X562727Y388597D01*
X562727Y391027D02*
X575193Y391027D01*
X575193Y393457D02*
X562727Y393457D01*
X562727Y383563D02*
X562727Y378597D01*
X562727Y383563D02*
X575193Y383563D01*
X575193Y378597D01*
X562727Y378597D01*
X562727Y381027D02*
X575193Y381027D01*
X575193Y383457D02*
X562727Y383457D01*
X562727Y373563D02*
X562727Y368597D01*
X562727Y373563D02*
X575193Y373563D01*
X575193Y368597D01*
X562727Y368597D01*
X562727Y371027D02*
X575193Y371027D01*
X575193Y373457D02*
X562727Y373457D01*
D12*
X683260Y271780D03*
D10*
X536753Y319863D02*
X526763Y319863D01*
X526763Y328853D01*
X536753Y328853D01*
X536753Y319863D01*
X536753Y322271D02*
X526763Y322271D01*
X526763Y324679D02*
X536753Y324679D01*
X536753Y327087D02*
X526763Y327087D01*
X543763Y319863D02*
X553753Y319863D01*
X543763Y319863D02*
X543763Y328853D01*
X553753Y328853D01*
X553753Y319863D01*
X553753Y322271D02*
X543763Y322271D01*
X543763Y324679D02*
X553753Y324679D01*
X553753Y327087D02*
X543763Y327087D01*
X744169Y441121D02*
X754159Y441121D01*
X754159Y432131D01*
X744169Y432131D01*
X744169Y441121D01*
X744169Y434539D02*
X754159Y434539D01*
X754159Y436947D02*
X744169Y436947D01*
X744169Y439355D02*
X754159Y439355D01*
X737159Y441121D02*
X727169Y441121D01*
X737159Y441121D02*
X737159Y432131D01*
X727169Y432131D01*
X727169Y441121D01*
X727169Y434539D02*
X737159Y434539D01*
X737159Y436947D02*
X727169Y436947D01*
X727169Y439355D02*
X737159Y439355D01*
X740715Y316053D02*
X730725Y316053D01*
X730725Y325043D01*
X740715Y325043D01*
X740715Y316053D01*
X740715Y318461D02*
X730725Y318461D01*
X730725Y320869D02*
X740715Y320869D01*
X740715Y323277D02*
X730725Y323277D01*
X747725Y316053D02*
X757715Y316053D01*
X747725Y316053D02*
X747725Y325043D01*
X757715Y325043D01*
X757715Y316053D01*
X757715Y318461D02*
X747725Y318461D01*
X747725Y320869D02*
X757715Y320869D01*
X757715Y323277D02*
X747725Y323277D01*
X740969Y333071D02*
X730979Y333071D01*
X730979Y342061D01*
X740969Y342061D01*
X740969Y333071D01*
X740969Y335479D02*
X730979Y335479D01*
X730979Y337887D02*
X740969Y337887D01*
X740969Y340295D02*
X730979Y340295D01*
X747979Y333071D02*
X757969Y333071D01*
X747979Y333071D02*
X747979Y342061D01*
X757969Y342061D01*
X757969Y333071D01*
X757969Y335479D02*
X747979Y335479D01*
X747979Y337887D02*
X757969Y337887D01*
X757969Y340295D02*
X747979Y340295D01*
D13*
X767655Y352535D02*
X767655Y363625D01*
X767655Y352535D02*
X748565Y352535D01*
X748565Y363625D01*
X767655Y363625D01*
X767655Y354847D02*
X748565Y354847D01*
X748565Y357159D02*
X767655Y357159D01*
X767655Y359471D02*
X748565Y359471D01*
X748565Y361783D02*
X767655Y361783D01*
X767655Y408535D02*
X767655Y419625D01*
X767655Y408535D02*
X748565Y408535D01*
X748565Y419625D01*
X767655Y419625D01*
X767655Y410847D02*
X748565Y410847D01*
X748565Y413159D02*
X767655Y413159D01*
X767655Y415471D02*
X748565Y415471D01*
X748565Y417783D02*
X767655Y417783D01*
D14*
X727593Y373563D02*
X727593Y368597D01*
X715127Y368597D01*
X715127Y373563D01*
X727593Y373563D01*
X727593Y371027D02*
X715127Y371027D01*
X715127Y373457D02*
X727593Y373457D01*
X727593Y378597D02*
X727593Y383563D01*
X727593Y378597D02*
X715127Y378597D01*
X715127Y383563D01*
X727593Y383563D01*
X727593Y381027D02*
X715127Y381027D01*
X715127Y383457D02*
X727593Y383457D01*
X727593Y388597D02*
X727593Y393563D01*
X727593Y388597D02*
X715127Y388597D01*
X715127Y393563D01*
X727593Y393563D01*
X727593Y391027D02*
X715127Y391027D01*
X715127Y393457D02*
X727593Y393457D01*
X727593Y398597D02*
X727593Y403563D01*
X727593Y398597D02*
X715127Y398597D01*
X715127Y403563D01*
X727593Y403563D01*
X727593Y401027D02*
X715127Y401027D01*
X715127Y403457D02*
X727593Y403457D01*
D15*
X746760Y487680D03*
X543560Y487680D03*
X543560Y284480D03*
X746760Y284480D03*
D16*
X525272Y266192D03*
X764794Y504698D03*
D17*
X645160Y384080D03*
X649160Y384080D03*
X649160Y388080D03*
X645160Y388080D03*
X641160Y388080D03*
X641160Y384080D03*
D12*
X708660Y271780D03*
D10*
X743915Y455853D02*
X753905Y455853D01*
X753905Y446863D01*
X743915Y446863D01*
X743915Y455853D01*
X743915Y449271D02*
X753905Y449271D01*
X753905Y451679D02*
X743915Y451679D01*
X743915Y454087D02*
X753905Y454087D01*
X736905Y455853D02*
X726915Y455853D01*
X736905Y455853D02*
X736905Y446863D01*
X726915Y446863D01*
X726915Y455853D01*
X726915Y449271D02*
X736905Y449271D01*
X736905Y451679D02*
X726915Y451679D01*
X726915Y454087D02*
X736905Y454087D01*
X893521Y350443D02*
X903511Y350443D01*
X903511Y341453D01*
X893521Y341453D01*
X893521Y350443D01*
X893521Y343861D02*
X903511Y343861D01*
X903511Y346269D02*
X893521Y346269D01*
X893521Y348677D02*
X903511Y348677D01*
X886511Y350443D02*
X876521Y350443D01*
X886511Y350443D02*
X886511Y341453D01*
X876521Y341453D01*
X876521Y350443D01*
X876521Y343861D02*
X886511Y343861D01*
X886511Y346269D02*
X876521Y346269D01*
X876521Y348677D02*
X886511Y348677D01*
D11*
X795099Y342351D02*
X795099Y335321D01*
X788069Y335321D01*
X788069Y342351D01*
X795099Y342351D01*
X795099Y339590D02*
X788069Y339590D01*
X812639Y342351D02*
X812639Y335321D01*
X805609Y335321D01*
X805609Y342351D01*
X812639Y342351D01*
X812639Y339590D02*
X805609Y339590D01*
D12*
X840740Y271780D03*
X866140Y271780D03*
X891540Y271780D03*
X916940Y271780D03*
D13*
X781745Y408535D02*
X781745Y419625D01*
X800835Y419625D01*
X800835Y408535D01*
X781745Y408535D01*
X781745Y410847D02*
X800835Y410847D01*
X800835Y413159D02*
X781745Y413159D01*
X781745Y415471D02*
X800835Y415471D01*
X800835Y417783D02*
X781745Y417783D01*
X781745Y363625D02*
X781745Y352535D01*
X781745Y363625D02*
X800835Y363625D01*
X800835Y352535D01*
X781745Y352535D01*
X781745Y354847D02*
X800835Y354847D01*
X800835Y357159D02*
X781745Y357159D01*
X781745Y359471D02*
X800835Y359471D01*
X800835Y361783D02*
X781745Y361783D01*
D14*
X821807Y398597D02*
X821807Y403563D01*
X834273Y403563D01*
X834273Y398597D01*
X821807Y398597D01*
X821807Y401027D02*
X834273Y401027D01*
X834273Y403457D02*
X821807Y403457D01*
X821807Y393563D02*
X821807Y388597D01*
X821807Y393563D02*
X834273Y393563D01*
X834273Y388597D01*
X821807Y388597D01*
X821807Y391027D02*
X834273Y391027D01*
X834273Y393457D02*
X821807Y393457D01*
X821807Y383563D02*
X821807Y378597D01*
X821807Y383563D02*
X834273Y383563D01*
X834273Y378597D01*
X821807Y378597D01*
X821807Y381027D02*
X834273Y381027D01*
X834273Y383457D02*
X821807Y383457D01*
X821807Y373563D02*
X821807Y368597D01*
X821807Y373563D02*
X834273Y373563D01*
X834273Y368597D01*
X821807Y368597D01*
X821807Y371027D02*
X834273Y371027D01*
X834273Y373457D02*
X821807Y373457D01*
D12*
X942340Y271780D03*
D10*
X795833Y319863D02*
X785843Y319863D01*
X785843Y328853D01*
X795833Y328853D01*
X795833Y319863D01*
X795833Y322271D02*
X785843Y322271D01*
X785843Y324679D02*
X795833Y324679D01*
X795833Y327087D02*
X785843Y327087D01*
X802843Y319863D02*
X812833Y319863D01*
X802843Y319863D02*
X802843Y328853D01*
X812833Y328853D01*
X812833Y319863D01*
X812833Y322271D02*
X802843Y322271D01*
X802843Y324679D02*
X812833Y324679D01*
X812833Y327087D02*
X802843Y327087D01*
X1003249Y441121D02*
X1013239Y441121D01*
X1013239Y432131D01*
X1003249Y432131D01*
X1003249Y441121D01*
X1003249Y434539D02*
X1013239Y434539D01*
X1013239Y436947D02*
X1003249Y436947D01*
X1003249Y439355D02*
X1013239Y439355D01*
X996239Y441121D02*
X986249Y441121D01*
X996239Y441121D02*
X996239Y432131D01*
X986249Y432131D01*
X986249Y441121D01*
X986249Y434539D02*
X996239Y434539D01*
X996239Y436947D02*
X986249Y436947D01*
X986249Y439355D02*
X996239Y439355D01*
X999795Y316053D02*
X989805Y316053D01*
X989805Y325043D01*
X999795Y325043D01*
X999795Y316053D01*
X999795Y318461D02*
X989805Y318461D01*
X989805Y320869D02*
X999795Y320869D01*
X999795Y323277D02*
X989805Y323277D01*
X1006805Y316053D02*
X1016795Y316053D01*
X1006805Y316053D02*
X1006805Y325043D01*
X1016795Y325043D01*
X1016795Y316053D01*
X1016795Y318461D02*
X1006805Y318461D01*
X1006805Y320869D02*
X1016795Y320869D01*
X1016795Y323277D02*
X1006805Y323277D01*
X1000049Y333071D02*
X990059Y333071D01*
X990059Y342061D01*
X1000049Y342061D01*
X1000049Y333071D01*
X1000049Y335479D02*
X990059Y335479D01*
X990059Y337887D02*
X1000049Y337887D01*
X1000049Y340295D02*
X990059Y340295D01*
X1007059Y333071D02*
X1017049Y333071D01*
X1007059Y333071D02*
X1007059Y342061D01*
X1017049Y342061D01*
X1017049Y333071D01*
X1017049Y335479D02*
X1007059Y335479D01*
X1007059Y337887D02*
X1017049Y337887D01*
X1017049Y340295D02*
X1007059Y340295D01*
D13*
X1026735Y352535D02*
X1026735Y363625D01*
X1026735Y352535D02*
X1007645Y352535D01*
X1007645Y363625D01*
X1026735Y363625D01*
X1026735Y354847D02*
X1007645Y354847D01*
X1007645Y357159D02*
X1026735Y357159D01*
X1026735Y359471D02*
X1007645Y359471D01*
X1007645Y361783D02*
X1026735Y361783D01*
X1026735Y408535D02*
X1026735Y419625D01*
X1026735Y408535D02*
X1007645Y408535D01*
X1007645Y419625D01*
X1026735Y419625D01*
X1026735Y410847D02*
X1007645Y410847D01*
X1007645Y413159D02*
X1026735Y413159D01*
X1026735Y415471D02*
X1007645Y415471D01*
X1007645Y417783D02*
X1026735Y417783D01*
D14*
X986673Y373563D02*
X986673Y368597D01*
X974207Y368597D01*
X974207Y373563D01*
X986673Y373563D01*
X986673Y371027D02*
X974207Y371027D01*
X974207Y373457D02*
X986673Y373457D01*
X986673Y378597D02*
X986673Y383563D01*
X986673Y378597D02*
X974207Y378597D01*
X974207Y383563D01*
X986673Y383563D01*
X986673Y381027D02*
X974207Y381027D01*
X974207Y383457D02*
X986673Y383457D01*
X986673Y388597D02*
X986673Y393563D01*
X986673Y388597D02*
X974207Y388597D01*
X974207Y393563D01*
X986673Y393563D01*
X986673Y391027D02*
X974207Y391027D01*
X974207Y393457D02*
X986673Y393457D01*
X986673Y398597D02*
X986673Y403563D01*
X986673Y398597D02*
X974207Y398597D01*
X974207Y403563D01*
X986673Y403563D01*
X986673Y401027D02*
X974207Y401027D01*
X974207Y403457D02*
X986673Y403457D01*
D15*
X1005840Y487680D03*
X802640Y487680D03*
X802640Y284480D03*
X1005840Y284480D03*
D16*
X784352Y266192D03*
X1023874Y504698D03*
D17*
X904240Y384080D03*
X908240Y384080D03*
X908240Y388080D03*
X904240Y388080D03*
X900240Y388080D03*
X900240Y384080D03*
D12*
X967740Y271780D03*
D10*
X1002995Y455853D02*
X1012985Y455853D01*
X1012985Y446863D01*
X1002995Y446863D01*
X1002995Y455853D01*
X1002995Y449271D02*
X1012985Y449271D01*
X1012985Y451679D02*
X1002995Y451679D01*
X1002995Y454087D02*
X1012985Y454087D01*
X995985Y455853D02*
X985995Y455853D01*
X995985Y455853D02*
X995985Y446863D01*
X985995Y446863D01*
X985995Y455853D01*
X985995Y449271D02*
X995985Y449271D01*
X995985Y451679D02*
X985995Y451679D01*
X985995Y454087D02*
X995985Y454087D01*
X1152601Y350443D02*
X1162591Y350443D01*
X1162591Y341453D01*
X1152601Y341453D01*
X1152601Y350443D01*
X1152601Y343861D02*
X1162591Y343861D01*
X1162591Y346269D02*
X1152601Y346269D01*
X1152601Y348677D02*
X1162591Y348677D01*
X1145591Y350443D02*
X1135601Y350443D01*
X1145591Y350443D02*
X1145591Y341453D01*
X1135601Y341453D01*
X1135601Y350443D01*
X1135601Y343861D02*
X1145591Y343861D01*
X1145591Y346269D02*
X1135601Y346269D01*
X1135601Y348677D02*
X1145591Y348677D01*
D11*
X1054179Y342351D02*
X1054179Y335321D01*
X1047149Y335321D01*
X1047149Y342351D01*
X1054179Y342351D01*
X1054179Y339590D02*
X1047149Y339590D01*
X1071719Y342351D02*
X1071719Y335321D01*
X1064689Y335321D01*
X1064689Y342351D01*
X1071719Y342351D01*
X1071719Y339590D02*
X1064689Y339590D01*
D12*
X1099820Y271780D03*
X1125220Y271780D03*
X1150620Y271780D03*
X1176020Y271780D03*
D13*
X1040825Y408535D02*
X1040825Y419625D01*
X1059915Y419625D01*
X1059915Y408535D01*
X1040825Y408535D01*
X1040825Y410847D02*
X1059915Y410847D01*
X1059915Y413159D02*
X1040825Y413159D01*
X1040825Y415471D02*
X1059915Y415471D01*
X1059915Y417783D02*
X1040825Y417783D01*
X1040825Y363625D02*
X1040825Y352535D01*
X1040825Y363625D02*
X1059915Y363625D01*
X1059915Y352535D01*
X1040825Y352535D01*
X1040825Y354847D02*
X1059915Y354847D01*
X1059915Y357159D02*
X1040825Y357159D01*
X1040825Y359471D02*
X1059915Y359471D01*
X1059915Y361783D02*
X1040825Y361783D01*
D14*
X1080887Y398597D02*
X1080887Y403563D01*
X1093353Y403563D01*
X1093353Y398597D01*
X1080887Y398597D01*
X1080887Y401027D02*
X1093353Y401027D01*
X1093353Y403457D02*
X1080887Y403457D01*
X1080887Y393563D02*
X1080887Y388597D01*
X1080887Y393563D02*
X1093353Y393563D01*
X1093353Y388597D01*
X1080887Y388597D01*
X1080887Y391027D02*
X1093353Y391027D01*
X1093353Y393457D02*
X1080887Y393457D01*
X1080887Y383563D02*
X1080887Y378597D01*
X1080887Y383563D02*
X1093353Y383563D01*
X1093353Y378597D01*
X1080887Y378597D01*
X1080887Y381027D02*
X1093353Y381027D01*
X1093353Y383457D02*
X1080887Y383457D01*
X1080887Y373563D02*
X1080887Y368597D01*
X1080887Y373563D02*
X1093353Y373563D01*
X1093353Y368597D01*
X1080887Y368597D01*
X1080887Y371027D02*
X1093353Y371027D01*
X1093353Y373457D02*
X1080887Y373457D01*
D12*
X1201420Y271780D03*
D10*
X1054913Y319863D02*
X1044923Y319863D01*
X1044923Y328853D01*
X1054913Y328853D01*
X1054913Y319863D01*
X1054913Y322271D02*
X1044923Y322271D01*
X1044923Y324679D02*
X1054913Y324679D01*
X1054913Y327087D02*
X1044923Y327087D01*
X1061923Y319863D02*
X1071913Y319863D01*
X1061923Y319863D02*
X1061923Y328853D01*
X1071913Y328853D01*
X1071913Y319863D01*
X1071913Y322271D02*
X1061923Y322271D01*
X1061923Y324679D02*
X1071913Y324679D01*
X1071913Y327087D02*
X1061923Y327087D01*
X1262329Y441121D02*
X1272319Y441121D01*
X1272319Y432131D01*
X1262329Y432131D01*
X1262329Y441121D01*
X1262329Y434539D02*
X1272319Y434539D01*
X1272319Y436947D02*
X1262329Y436947D01*
X1262329Y439355D02*
X1272319Y439355D01*
X1255319Y441121D02*
X1245329Y441121D01*
X1255319Y441121D02*
X1255319Y432131D01*
X1245329Y432131D01*
X1245329Y441121D01*
X1245329Y434539D02*
X1255319Y434539D01*
X1255319Y436947D02*
X1245329Y436947D01*
X1245329Y439355D02*
X1255319Y439355D01*
X1258875Y316053D02*
X1248885Y316053D01*
X1248885Y325043D01*
X1258875Y325043D01*
X1258875Y316053D01*
X1258875Y318461D02*
X1248885Y318461D01*
X1248885Y320869D02*
X1258875Y320869D01*
X1258875Y323277D02*
X1248885Y323277D01*
X1265885Y316053D02*
X1275875Y316053D01*
X1265885Y316053D02*
X1265885Y325043D01*
X1275875Y325043D01*
X1275875Y316053D01*
X1275875Y318461D02*
X1265885Y318461D01*
X1265885Y320869D02*
X1275875Y320869D01*
X1275875Y323277D02*
X1265885Y323277D01*
X1259129Y333071D02*
X1249139Y333071D01*
X1249139Y342061D01*
X1259129Y342061D01*
X1259129Y333071D01*
X1259129Y335479D02*
X1249139Y335479D01*
X1249139Y337887D02*
X1259129Y337887D01*
X1259129Y340295D02*
X1249139Y340295D01*
X1266139Y333071D02*
X1276129Y333071D01*
X1266139Y333071D02*
X1266139Y342061D01*
X1276129Y342061D01*
X1276129Y333071D01*
X1276129Y335479D02*
X1266139Y335479D01*
X1266139Y337887D02*
X1276129Y337887D01*
X1276129Y340295D02*
X1266139Y340295D01*
D13*
X1285815Y352535D02*
X1285815Y363625D01*
X1285815Y352535D02*
X1266725Y352535D01*
X1266725Y363625D01*
X1285815Y363625D01*
X1285815Y354847D02*
X1266725Y354847D01*
X1266725Y357159D02*
X1285815Y357159D01*
X1285815Y359471D02*
X1266725Y359471D01*
X1266725Y361783D02*
X1285815Y361783D01*
X1285815Y408535D02*
X1285815Y419625D01*
X1285815Y408535D02*
X1266725Y408535D01*
X1266725Y419625D01*
X1285815Y419625D01*
X1285815Y410847D02*
X1266725Y410847D01*
X1266725Y413159D02*
X1285815Y413159D01*
X1285815Y415471D02*
X1266725Y415471D01*
X1266725Y417783D02*
X1285815Y417783D01*
D14*
X1245753Y373563D02*
X1245753Y368597D01*
X1233287Y368597D01*
X1233287Y373563D01*
X1245753Y373563D01*
X1245753Y371027D02*
X1233287Y371027D01*
X1233287Y373457D02*
X1245753Y373457D01*
X1245753Y378597D02*
X1245753Y383563D01*
X1245753Y378597D02*
X1233287Y378597D01*
X1233287Y383563D01*
X1245753Y383563D01*
X1245753Y381027D02*
X1233287Y381027D01*
X1233287Y383457D02*
X1245753Y383457D01*
X1245753Y388597D02*
X1245753Y393563D01*
X1245753Y388597D02*
X1233287Y388597D01*
X1233287Y393563D01*
X1245753Y393563D01*
X1245753Y391027D02*
X1233287Y391027D01*
X1233287Y393457D02*
X1245753Y393457D01*
X1245753Y398597D02*
X1245753Y403563D01*
X1245753Y398597D02*
X1233287Y398597D01*
X1233287Y403563D01*
X1245753Y403563D01*
X1245753Y401027D02*
X1233287Y401027D01*
X1233287Y403457D02*
X1245753Y403457D01*
D15*
X1264920Y487680D03*
X1061720Y487680D03*
X1061720Y284480D03*
X1264920Y284480D03*
D16*
X1043432Y266192D03*
X1282954Y504698D03*
D17*
X1163320Y384080D03*
X1167320Y384080D03*
X1167320Y388080D03*
X1163320Y388080D03*
X1159320Y388080D03*
X1159320Y384080D03*
D12*
X1226820Y271780D03*
D10*
X1262075Y455853D02*
X1272065Y455853D01*
X1272065Y446863D01*
X1262075Y446863D01*
X1262075Y455853D01*
X1262075Y449271D02*
X1272065Y449271D01*
X1272065Y451679D02*
X1262075Y451679D01*
X1262075Y454087D02*
X1272065Y454087D01*
X1255065Y455853D02*
X1245075Y455853D01*
X1255065Y455853D02*
X1255065Y446863D01*
X1245075Y446863D01*
X1245075Y455853D01*
X1245075Y449271D02*
X1255065Y449271D01*
X1255065Y451679D02*
X1245075Y451679D01*
X1245075Y454087D02*
X1255065Y454087D01*
X1411681Y350443D02*
X1421671Y350443D01*
X1421671Y341453D01*
X1411681Y341453D01*
X1411681Y350443D01*
X1411681Y343861D02*
X1421671Y343861D01*
X1421671Y346269D02*
X1411681Y346269D01*
X1411681Y348677D02*
X1421671Y348677D01*
X1404671Y350443D02*
X1394681Y350443D01*
X1404671Y350443D02*
X1404671Y341453D01*
X1394681Y341453D01*
X1394681Y350443D01*
X1394681Y343861D02*
X1404671Y343861D01*
X1404671Y346269D02*
X1394681Y346269D01*
X1394681Y348677D02*
X1404671Y348677D01*
D11*
X1313259Y342351D02*
X1313259Y335321D01*
X1306229Y335321D01*
X1306229Y342351D01*
X1313259Y342351D01*
X1313259Y339590D02*
X1306229Y339590D01*
X1330799Y342351D02*
X1330799Y335321D01*
X1323769Y335321D01*
X1323769Y342351D01*
X1330799Y342351D01*
X1330799Y339590D02*
X1323769Y339590D01*
D12*
X1358900Y271780D03*
X1384300Y271780D03*
X1409700Y271780D03*
X1435100Y271780D03*
D13*
X1299905Y408535D02*
X1299905Y419625D01*
X1318995Y419625D01*
X1318995Y408535D01*
X1299905Y408535D01*
X1299905Y410847D02*
X1318995Y410847D01*
X1318995Y413159D02*
X1299905Y413159D01*
X1299905Y415471D02*
X1318995Y415471D01*
X1318995Y417783D02*
X1299905Y417783D01*
X1299905Y363625D02*
X1299905Y352535D01*
X1299905Y363625D02*
X1318995Y363625D01*
X1318995Y352535D01*
X1299905Y352535D01*
X1299905Y354847D02*
X1318995Y354847D01*
X1318995Y357159D02*
X1299905Y357159D01*
X1299905Y359471D02*
X1318995Y359471D01*
X1318995Y361783D02*
X1299905Y361783D01*
D14*
X1339967Y398597D02*
X1339967Y403563D01*
X1352433Y403563D01*
X1352433Y398597D01*
X1339967Y398597D01*
X1339967Y401027D02*
X1352433Y401027D01*
X1352433Y403457D02*
X1339967Y403457D01*
X1339967Y393563D02*
X1339967Y388597D01*
X1339967Y393563D02*
X1352433Y393563D01*
X1352433Y388597D01*
X1339967Y388597D01*
X1339967Y391027D02*
X1352433Y391027D01*
X1352433Y393457D02*
X1339967Y393457D01*
X1339967Y383563D02*
X1339967Y378597D01*
X1339967Y383563D02*
X1352433Y383563D01*
X1352433Y378597D01*
X1339967Y378597D01*
X1339967Y381027D02*
X1352433Y381027D01*
X1352433Y383457D02*
X1339967Y383457D01*
X1339967Y373563D02*
X1339967Y368597D01*
X1339967Y373563D02*
X1352433Y373563D01*
X1352433Y368597D01*
X1339967Y368597D01*
X1339967Y371027D02*
X1352433Y371027D01*
X1352433Y373457D02*
X1339967Y373457D01*
D12*
X1460500Y271780D03*
D10*
X1313993Y319863D02*
X1304003Y319863D01*
X1304003Y328853D01*
X1313993Y328853D01*
X1313993Y319863D01*
X1313993Y322271D02*
X1304003Y322271D01*
X1304003Y324679D02*
X1313993Y324679D01*
X1313993Y327087D02*
X1304003Y327087D01*
X1321003Y319863D02*
X1330993Y319863D01*
X1321003Y319863D02*
X1321003Y328853D01*
X1330993Y328853D01*
X1330993Y319863D01*
X1330993Y322271D02*
X1321003Y322271D01*
X1321003Y324679D02*
X1330993Y324679D01*
X1330993Y327087D02*
X1321003Y327087D01*
X1521409Y441121D02*
X1531399Y441121D01*
X1531399Y432131D01*
X1521409Y432131D01*
X1521409Y441121D01*
X1521409Y434539D02*
X1531399Y434539D01*
X1531399Y436947D02*
X1521409Y436947D01*
X1521409Y439355D02*
X1531399Y439355D01*
X1514399Y441121D02*
X1504409Y441121D01*
X1514399Y441121D02*
X1514399Y432131D01*
X1504409Y432131D01*
X1504409Y441121D01*
X1504409Y434539D02*
X1514399Y434539D01*
X1514399Y436947D02*
X1504409Y436947D01*
X1504409Y439355D02*
X1514399Y439355D01*
X1517955Y316053D02*
X1507965Y316053D01*
X1507965Y325043D01*
X1517955Y325043D01*
X1517955Y316053D01*
X1517955Y318461D02*
X1507965Y318461D01*
X1507965Y320869D02*
X1517955Y320869D01*
X1517955Y323277D02*
X1507965Y323277D01*
X1524965Y316053D02*
X1534955Y316053D01*
X1524965Y316053D02*
X1524965Y325043D01*
X1534955Y325043D01*
X1534955Y316053D01*
X1534955Y318461D02*
X1524965Y318461D01*
X1524965Y320869D02*
X1534955Y320869D01*
X1534955Y323277D02*
X1524965Y323277D01*
X1518209Y333071D02*
X1508219Y333071D01*
X1508219Y342061D01*
X1518209Y342061D01*
X1518209Y333071D01*
X1518209Y335479D02*
X1508219Y335479D01*
X1508219Y337887D02*
X1518209Y337887D01*
X1518209Y340295D02*
X1508219Y340295D01*
X1525219Y333071D02*
X1535209Y333071D01*
X1525219Y333071D02*
X1525219Y342061D01*
X1535209Y342061D01*
X1535209Y333071D01*
X1535209Y335479D02*
X1525219Y335479D01*
X1525219Y337887D02*
X1535209Y337887D01*
X1535209Y340295D02*
X1525219Y340295D01*
D13*
X1544895Y352535D02*
X1544895Y363625D01*
X1544895Y352535D02*
X1525805Y352535D01*
X1525805Y363625D01*
X1544895Y363625D01*
X1544895Y354847D02*
X1525805Y354847D01*
X1525805Y357159D02*
X1544895Y357159D01*
X1544895Y359471D02*
X1525805Y359471D01*
X1525805Y361783D02*
X1544895Y361783D01*
X1544895Y408535D02*
X1544895Y419625D01*
X1544895Y408535D02*
X1525805Y408535D01*
X1525805Y419625D01*
X1544895Y419625D01*
X1544895Y410847D02*
X1525805Y410847D01*
X1525805Y413159D02*
X1544895Y413159D01*
X1544895Y415471D02*
X1525805Y415471D01*
X1525805Y417783D02*
X1544895Y417783D01*
D14*
X1504833Y373563D02*
X1504833Y368597D01*
X1492367Y368597D01*
X1492367Y373563D01*
X1504833Y373563D01*
X1504833Y371027D02*
X1492367Y371027D01*
X1492367Y373457D02*
X1504833Y373457D01*
X1504833Y378597D02*
X1504833Y383563D01*
X1504833Y378597D02*
X1492367Y378597D01*
X1492367Y383563D01*
X1504833Y383563D01*
X1504833Y381027D02*
X1492367Y381027D01*
X1492367Y383457D02*
X1504833Y383457D01*
X1504833Y388597D02*
X1504833Y393563D01*
X1504833Y388597D02*
X1492367Y388597D01*
X1492367Y393563D01*
X1504833Y393563D01*
X1504833Y391027D02*
X1492367Y391027D01*
X1492367Y393457D02*
X1504833Y393457D01*
X1504833Y398597D02*
X1504833Y403563D01*
X1504833Y398597D02*
X1492367Y398597D01*
X1492367Y403563D01*
X1504833Y403563D01*
X1504833Y401027D02*
X1492367Y401027D01*
X1492367Y403457D02*
X1504833Y403457D01*
D15*
X1524000Y487680D03*
X1320800Y487680D03*
X1320800Y284480D03*
X1524000Y284480D03*
D16*
X1302512Y266192D03*
X1542034Y504698D03*
D17*
X1422400Y384080D03*
X1426400Y384080D03*
X1426400Y388080D03*
X1422400Y388080D03*
X1418400Y388080D03*
X1418400Y384080D03*
D12*
X1485900Y271780D03*
D10*
X1521155Y455853D02*
X1531145Y455853D01*
X1531145Y446863D01*
X1521155Y446863D01*
X1521155Y455853D01*
X1521155Y449271D02*
X1531145Y449271D01*
X1531145Y451679D02*
X1521155Y451679D01*
X1521155Y454087D02*
X1531145Y454087D01*
X1514145Y455853D02*
X1504155Y455853D01*
X1514145Y455853D02*
X1514145Y446863D01*
X1504155Y446863D01*
X1504155Y455853D01*
X1504155Y449271D02*
X1514145Y449271D01*
X1514145Y451679D02*
X1504155Y451679D01*
X1504155Y454087D02*
X1514145Y454087D01*
X126271Y609523D02*
X116281Y609523D01*
X126271Y609523D02*
X126271Y600533D01*
X116281Y600533D01*
X116281Y609523D01*
X116281Y602941D02*
X126271Y602941D01*
X126271Y605349D02*
X116281Y605349D01*
X116281Y607757D02*
X126271Y607757D01*
X109271Y609523D02*
X99281Y609523D01*
X109271Y609523D02*
X109271Y600533D01*
X99281Y600533D01*
X99281Y609523D01*
X99281Y602941D02*
X109271Y602941D01*
X109271Y605349D02*
X99281Y605349D01*
X99281Y607757D02*
X109271Y607757D01*
D11*
X17859Y601431D02*
X17859Y594401D01*
X10829Y594401D01*
X10829Y601431D01*
X17859Y601431D01*
X17859Y598670D02*
X10829Y598670D01*
X35399Y601431D02*
X35399Y594401D01*
X28369Y594401D01*
X28369Y601431D01*
X35399Y601431D01*
X35399Y598670D02*
X28369Y598670D01*
D12*
X63500Y530860D03*
X88900Y530860D03*
X114300Y530860D03*
X139700Y530860D03*
D13*
X4505Y667615D02*
X4505Y678705D01*
X23595Y678705D01*
X23595Y667615D01*
X4505Y667615D01*
X4505Y669927D02*
X23595Y669927D01*
X23595Y672239D02*
X4505Y672239D01*
X4505Y674551D02*
X23595Y674551D01*
X23595Y676863D02*
X4505Y676863D01*
X4505Y622705D02*
X4505Y611615D01*
X4505Y622705D02*
X23595Y622705D01*
X23595Y611615D01*
X4505Y611615D01*
X4505Y613927D02*
X23595Y613927D01*
X23595Y616239D02*
X4505Y616239D01*
X4505Y618551D02*
X23595Y618551D01*
X23595Y620863D02*
X4505Y620863D01*
D14*
X44567Y657677D02*
X44567Y662643D01*
X57033Y662643D01*
X57033Y657677D01*
X44567Y657677D01*
X44567Y660107D02*
X57033Y660107D01*
X57033Y662537D02*
X44567Y662537D01*
X44567Y652643D02*
X44567Y647677D01*
X44567Y652643D02*
X57033Y652643D01*
X57033Y647677D01*
X44567Y647677D01*
X44567Y650107D02*
X57033Y650107D01*
X57033Y652537D02*
X44567Y652537D01*
X44567Y642643D02*
X44567Y637677D01*
X44567Y642643D02*
X57033Y642643D01*
X57033Y637677D01*
X44567Y637677D01*
X44567Y640107D02*
X57033Y640107D01*
X57033Y642537D02*
X44567Y642537D01*
X44567Y632643D02*
X44567Y627677D01*
X44567Y632643D02*
X57033Y632643D01*
X57033Y627677D01*
X44567Y627677D01*
X44567Y630107D02*
X57033Y630107D01*
X57033Y632537D02*
X44567Y632537D01*
D12*
X165100Y530860D03*
D10*
X18593Y578943D02*
X8603Y578943D01*
X8603Y587933D01*
X18593Y587933D01*
X18593Y578943D01*
X18593Y581351D02*
X8603Y581351D01*
X8603Y583759D02*
X18593Y583759D01*
X18593Y586167D02*
X8603Y586167D01*
X25603Y578943D02*
X35593Y578943D01*
X25603Y578943D02*
X25603Y587933D01*
X35593Y587933D01*
X35593Y578943D01*
X35593Y581351D02*
X25603Y581351D01*
X25603Y583759D02*
X35593Y583759D01*
X35593Y586167D02*
X25603Y586167D01*
X226009Y700201D02*
X235999Y700201D01*
X235999Y691211D01*
X226009Y691211D01*
X226009Y700201D01*
X226009Y693619D02*
X235999Y693619D01*
X235999Y696027D02*
X226009Y696027D01*
X226009Y698435D02*
X235999Y698435D01*
X218999Y700201D02*
X209009Y700201D01*
X218999Y700201D02*
X218999Y691211D01*
X209009Y691211D01*
X209009Y700201D01*
X209009Y693619D02*
X218999Y693619D01*
X218999Y696027D02*
X209009Y696027D01*
X209009Y698435D02*
X218999Y698435D01*
X222555Y575133D02*
X212565Y575133D01*
X212565Y584123D01*
X222555Y584123D01*
X222555Y575133D01*
X222555Y577541D02*
X212565Y577541D01*
X212565Y579949D02*
X222555Y579949D01*
X222555Y582357D02*
X212565Y582357D01*
X229565Y575133D02*
X239555Y575133D01*
X229565Y575133D02*
X229565Y584123D01*
X239555Y584123D01*
X239555Y575133D01*
X239555Y577541D02*
X229565Y577541D01*
X229565Y579949D02*
X239555Y579949D01*
X239555Y582357D02*
X229565Y582357D01*
X222809Y592151D02*
X212819Y592151D01*
X212819Y601141D01*
X222809Y601141D01*
X222809Y592151D01*
X222809Y594559D02*
X212819Y594559D01*
X212819Y596967D02*
X222809Y596967D01*
X222809Y599375D02*
X212819Y599375D01*
X229819Y592151D02*
X239809Y592151D01*
X229819Y592151D02*
X229819Y601141D01*
X239809Y601141D01*
X239809Y592151D01*
X239809Y594559D02*
X229819Y594559D01*
X229819Y596967D02*
X239809Y596967D01*
X239809Y599375D02*
X229819Y599375D01*
D13*
X249495Y611615D02*
X249495Y622705D01*
X249495Y611615D02*
X230405Y611615D01*
X230405Y622705D01*
X249495Y622705D01*
X249495Y613927D02*
X230405Y613927D01*
X230405Y616239D02*
X249495Y616239D01*
X249495Y618551D02*
X230405Y618551D01*
X230405Y620863D02*
X249495Y620863D01*
X249495Y667615D02*
X249495Y678705D01*
X249495Y667615D02*
X230405Y667615D01*
X230405Y678705D01*
X249495Y678705D01*
X249495Y669927D02*
X230405Y669927D01*
X230405Y672239D02*
X249495Y672239D01*
X249495Y674551D02*
X230405Y674551D01*
X230405Y676863D02*
X249495Y676863D01*
D14*
X209433Y632643D02*
X209433Y627677D01*
X196967Y627677D01*
X196967Y632643D01*
X209433Y632643D01*
X209433Y630107D02*
X196967Y630107D01*
X196967Y632537D02*
X209433Y632537D01*
X209433Y637677D02*
X209433Y642643D01*
X209433Y637677D02*
X196967Y637677D01*
X196967Y642643D01*
X209433Y642643D01*
X209433Y640107D02*
X196967Y640107D01*
X196967Y642537D02*
X209433Y642537D01*
X209433Y647677D02*
X209433Y652643D01*
X209433Y647677D02*
X196967Y647677D01*
X196967Y652643D01*
X209433Y652643D01*
X209433Y650107D02*
X196967Y650107D01*
X196967Y652537D02*
X209433Y652537D01*
X209433Y657677D02*
X209433Y662643D01*
X209433Y657677D02*
X196967Y657677D01*
X196967Y662643D01*
X209433Y662643D01*
X209433Y660107D02*
X196967Y660107D01*
X196967Y662537D02*
X209433Y662537D01*
D15*
X228600Y746760D03*
X25400Y746760D03*
X25400Y543560D03*
X228600Y543560D03*
D16*
X7112Y525272D03*
X246634Y763778D03*
D17*
X127000Y643160D03*
X131000Y643160D03*
X131000Y647160D03*
X127000Y647160D03*
X123000Y647160D03*
X123000Y643160D03*
D12*
X190500Y530860D03*
D10*
X225755Y714933D02*
X235745Y714933D01*
X235745Y705943D01*
X225755Y705943D01*
X225755Y714933D01*
X225755Y708351D02*
X235745Y708351D01*
X235745Y710759D02*
X225755Y710759D01*
X225755Y713167D02*
X235745Y713167D01*
X218745Y714933D02*
X208755Y714933D01*
X218745Y714933D02*
X218745Y705943D01*
X208755Y705943D01*
X208755Y714933D01*
X208755Y708351D02*
X218745Y708351D01*
X218745Y710759D02*
X208755Y710759D01*
X208755Y713167D02*
X218745Y713167D01*
X375361Y609523D02*
X385351Y609523D01*
X385351Y600533D01*
X375361Y600533D01*
X375361Y609523D01*
X375361Y602941D02*
X385351Y602941D01*
X385351Y605349D02*
X375361Y605349D01*
X375361Y607757D02*
X385351Y607757D01*
X368351Y609523D02*
X358361Y609523D01*
X368351Y609523D02*
X368351Y600533D01*
X358361Y600533D01*
X358361Y609523D01*
X358361Y602941D02*
X368351Y602941D01*
X368351Y605349D02*
X358361Y605349D01*
X358361Y607757D02*
X368351Y607757D01*
D11*
X276939Y601431D02*
X276939Y594401D01*
X269909Y594401D01*
X269909Y601431D01*
X276939Y601431D01*
X276939Y598670D02*
X269909Y598670D01*
X294479Y601431D02*
X294479Y594401D01*
X287449Y594401D01*
X287449Y601431D01*
X294479Y601431D01*
X294479Y598670D02*
X287449Y598670D01*
D12*
X322580Y530860D03*
X347980Y530860D03*
X373380Y530860D03*
X398780Y530860D03*
D13*
X263585Y667615D02*
X263585Y678705D01*
X282675Y678705D01*
X282675Y667615D01*
X263585Y667615D01*
X263585Y669927D02*
X282675Y669927D01*
X282675Y672239D02*
X263585Y672239D01*
X263585Y674551D02*
X282675Y674551D01*
X282675Y676863D02*
X263585Y676863D01*
X263585Y622705D02*
X263585Y611615D01*
X263585Y622705D02*
X282675Y622705D01*
X282675Y611615D01*
X263585Y611615D01*
X263585Y613927D02*
X282675Y613927D01*
X282675Y616239D02*
X263585Y616239D01*
X263585Y618551D02*
X282675Y618551D01*
X282675Y620863D02*
X263585Y620863D01*
D14*
X303647Y657677D02*
X303647Y662643D01*
X316113Y662643D01*
X316113Y657677D01*
X303647Y657677D01*
X303647Y660107D02*
X316113Y660107D01*
X316113Y662537D02*
X303647Y662537D01*
X303647Y652643D02*
X303647Y647677D01*
X303647Y652643D02*
X316113Y652643D01*
X316113Y647677D01*
X303647Y647677D01*
X303647Y650107D02*
X316113Y650107D01*
X316113Y652537D02*
X303647Y652537D01*
X303647Y642643D02*
X303647Y637677D01*
X303647Y642643D02*
X316113Y642643D01*
X316113Y637677D01*
X303647Y637677D01*
X303647Y640107D02*
X316113Y640107D01*
X316113Y642537D02*
X303647Y642537D01*
X303647Y632643D02*
X303647Y627677D01*
X303647Y632643D02*
X316113Y632643D01*
X316113Y627677D01*
X303647Y627677D01*
X303647Y630107D02*
X316113Y630107D01*
X316113Y632537D02*
X303647Y632537D01*
D12*
X424180Y530860D03*
D10*
X277673Y578943D02*
X267683Y578943D01*
X267683Y587933D01*
X277673Y587933D01*
X277673Y578943D01*
X277673Y581351D02*
X267683Y581351D01*
X267683Y583759D02*
X277673Y583759D01*
X277673Y586167D02*
X267683Y586167D01*
X284683Y578943D02*
X294673Y578943D01*
X284683Y578943D02*
X284683Y587933D01*
X294673Y587933D01*
X294673Y578943D01*
X294673Y581351D02*
X284683Y581351D01*
X284683Y583759D02*
X294673Y583759D01*
X294673Y586167D02*
X284683Y586167D01*
X485089Y700201D02*
X495079Y700201D01*
X495079Y691211D01*
X485089Y691211D01*
X485089Y700201D01*
X485089Y693619D02*
X495079Y693619D01*
X495079Y696027D02*
X485089Y696027D01*
X485089Y698435D02*
X495079Y698435D01*
X478079Y700201D02*
X468089Y700201D01*
X478079Y700201D02*
X478079Y691211D01*
X468089Y691211D01*
X468089Y700201D01*
X468089Y693619D02*
X478079Y693619D01*
X478079Y696027D02*
X468089Y696027D01*
X468089Y698435D02*
X478079Y698435D01*
X481635Y575133D02*
X471645Y575133D01*
X471645Y584123D01*
X481635Y584123D01*
X481635Y575133D01*
X481635Y577541D02*
X471645Y577541D01*
X471645Y579949D02*
X481635Y579949D01*
X481635Y582357D02*
X471645Y582357D01*
X488645Y575133D02*
X498635Y575133D01*
X488645Y575133D02*
X488645Y584123D01*
X498635Y584123D01*
X498635Y575133D01*
X498635Y577541D02*
X488645Y577541D01*
X488645Y579949D02*
X498635Y579949D01*
X498635Y582357D02*
X488645Y582357D01*
X481889Y592151D02*
X471899Y592151D01*
X471899Y601141D01*
X481889Y601141D01*
X481889Y592151D01*
X481889Y594559D02*
X471899Y594559D01*
X471899Y596967D02*
X481889Y596967D01*
X481889Y599375D02*
X471899Y599375D01*
X488899Y592151D02*
X498889Y592151D01*
X488899Y592151D02*
X488899Y601141D01*
X498889Y601141D01*
X498889Y592151D01*
X498889Y594559D02*
X488899Y594559D01*
X488899Y596967D02*
X498889Y596967D01*
X498889Y599375D02*
X488899Y599375D01*
D13*
X508575Y611615D02*
X508575Y622705D01*
X508575Y611615D02*
X489485Y611615D01*
X489485Y622705D01*
X508575Y622705D01*
X508575Y613927D02*
X489485Y613927D01*
X489485Y616239D02*
X508575Y616239D01*
X508575Y618551D02*
X489485Y618551D01*
X489485Y620863D02*
X508575Y620863D01*
X508575Y667615D02*
X508575Y678705D01*
X508575Y667615D02*
X489485Y667615D01*
X489485Y678705D01*
X508575Y678705D01*
X508575Y669927D02*
X489485Y669927D01*
X489485Y672239D02*
X508575Y672239D01*
X508575Y674551D02*
X489485Y674551D01*
X489485Y676863D02*
X508575Y676863D01*
D14*
X468513Y632643D02*
X468513Y627677D01*
X456047Y627677D01*
X456047Y632643D01*
X468513Y632643D01*
X468513Y630107D02*
X456047Y630107D01*
X456047Y632537D02*
X468513Y632537D01*
X468513Y637677D02*
X468513Y642643D01*
X468513Y637677D02*
X456047Y637677D01*
X456047Y642643D01*
X468513Y642643D01*
X468513Y640107D02*
X456047Y640107D01*
X456047Y642537D02*
X468513Y642537D01*
X468513Y647677D02*
X468513Y652643D01*
X468513Y647677D02*
X456047Y647677D01*
X456047Y652643D01*
X468513Y652643D01*
X468513Y650107D02*
X456047Y650107D01*
X456047Y652537D02*
X468513Y652537D01*
X468513Y657677D02*
X468513Y662643D01*
X468513Y657677D02*
X456047Y657677D01*
X456047Y662643D01*
X468513Y662643D01*
X468513Y660107D02*
X456047Y660107D01*
X456047Y662537D02*
X468513Y662537D01*
D15*
X487680Y746760D03*
X284480Y746760D03*
X284480Y543560D03*
X487680Y543560D03*
D16*
X266192Y525272D03*
X505714Y763778D03*
D17*
X386080Y643160D03*
X390080Y643160D03*
X390080Y647160D03*
X386080Y647160D03*
X382080Y647160D03*
X382080Y643160D03*
D12*
X449580Y530860D03*
D10*
X484835Y714933D02*
X494825Y714933D01*
X494825Y705943D01*
X484835Y705943D01*
X484835Y714933D01*
X484835Y708351D02*
X494825Y708351D01*
X494825Y710759D02*
X484835Y710759D01*
X484835Y713167D02*
X494825Y713167D01*
X477825Y714933D02*
X467835Y714933D01*
X477825Y714933D02*
X477825Y705943D01*
X467835Y705943D01*
X467835Y714933D01*
X467835Y708351D02*
X477825Y708351D01*
X477825Y710759D02*
X467835Y710759D01*
X467835Y713167D02*
X477825Y713167D01*
X634441Y609523D02*
X644431Y609523D01*
X644431Y600533D01*
X634441Y600533D01*
X634441Y609523D01*
X634441Y602941D02*
X644431Y602941D01*
X644431Y605349D02*
X634441Y605349D01*
X634441Y607757D02*
X644431Y607757D01*
X627431Y609523D02*
X617441Y609523D01*
X627431Y609523D02*
X627431Y600533D01*
X617441Y600533D01*
X617441Y609523D01*
X617441Y602941D02*
X627431Y602941D01*
X627431Y605349D02*
X617441Y605349D01*
X617441Y607757D02*
X627431Y607757D01*
D11*
X536019Y601431D02*
X536019Y594401D01*
X528989Y594401D01*
X528989Y601431D01*
X536019Y601431D01*
X536019Y598670D02*
X528989Y598670D01*
X553559Y601431D02*
X553559Y594401D01*
X546529Y594401D01*
X546529Y601431D01*
X553559Y601431D01*
X553559Y598670D02*
X546529Y598670D01*
D12*
X581660Y530860D03*
X607060Y530860D03*
X632460Y530860D03*
X657860Y530860D03*
D13*
X522665Y667615D02*
X522665Y678705D01*
X541755Y678705D01*
X541755Y667615D01*
X522665Y667615D01*
X522665Y669927D02*
X541755Y669927D01*
X541755Y672239D02*
X522665Y672239D01*
X522665Y674551D02*
X541755Y674551D01*
X541755Y676863D02*
X522665Y676863D01*
X522665Y622705D02*
X522665Y611615D01*
X522665Y622705D02*
X541755Y622705D01*
X541755Y611615D01*
X522665Y611615D01*
X522665Y613927D02*
X541755Y613927D01*
X541755Y616239D02*
X522665Y616239D01*
X522665Y618551D02*
X541755Y618551D01*
X541755Y620863D02*
X522665Y620863D01*
D14*
X562727Y657677D02*
X562727Y662643D01*
X575193Y662643D01*
X575193Y657677D01*
X562727Y657677D01*
X562727Y660107D02*
X575193Y660107D01*
X575193Y662537D02*
X562727Y662537D01*
X562727Y652643D02*
X562727Y647677D01*
X562727Y652643D02*
X575193Y652643D01*
X575193Y647677D01*
X562727Y647677D01*
X562727Y650107D02*
X575193Y650107D01*
X575193Y652537D02*
X562727Y652537D01*
X562727Y642643D02*
X562727Y637677D01*
X562727Y642643D02*
X575193Y642643D01*
X575193Y637677D01*
X562727Y637677D01*
X562727Y640107D02*
X575193Y640107D01*
X575193Y642537D02*
X562727Y642537D01*
X562727Y632643D02*
X562727Y627677D01*
X562727Y632643D02*
X575193Y632643D01*
X575193Y627677D01*
X562727Y627677D01*
X562727Y630107D02*
X575193Y630107D01*
X575193Y632537D02*
X562727Y632537D01*
D12*
X683260Y530860D03*
D10*
X536753Y578943D02*
X526763Y578943D01*
X526763Y587933D01*
X536753Y587933D01*
X536753Y578943D01*
X536753Y581351D02*
X526763Y581351D01*
X526763Y583759D02*
X536753Y583759D01*
X536753Y586167D02*
X526763Y586167D01*
X543763Y578943D02*
X553753Y578943D01*
X543763Y578943D02*
X543763Y587933D01*
X553753Y587933D01*
X553753Y578943D01*
X553753Y581351D02*
X543763Y581351D01*
X543763Y583759D02*
X553753Y583759D01*
X553753Y586167D02*
X543763Y586167D01*
X744169Y700201D02*
X754159Y700201D01*
X754159Y691211D01*
X744169Y691211D01*
X744169Y700201D01*
X744169Y693619D02*
X754159Y693619D01*
X754159Y696027D02*
X744169Y696027D01*
X744169Y698435D02*
X754159Y698435D01*
X737159Y700201D02*
X727169Y700201D01*
X737159Y700201D02*
X737159Y691211D01*
X727169Y691211D01*
X727169Y700201D01*
X727169Y693619D02*
X737159Y693619D01*
X737159Y696027D02*
X727169Y696027D01*
X727169Y698435D02*
X737159Y698435D01*
X740715Y575133D02*
X730725Y575133D01*
X730725Y584123D01*
X740715Y584123D01*
X740715Y575133D01*
X740715Y577541D02*
X730725Y577541D01*
X730725Y579949D02*
X740715Y579949D01*
X740715Y582357D02*
X730725Y582357D01*
X747725Y575133D02*
X757715Y575133D01*
X747725Y575133D02*
X747725Y584123D01*
X757715Y584123D01*
X757715Y575133D01*
X757715Y577541D02*
X747725Y577541D01*
X747725Y579949D02*
X757715Y579949D01*
X757715Y582357D02*
X747725Y582357D01*
X740969Y592151D02*
X730979Y592151D01*
X730979Y601141D01*
X740969Y601141D01*
X740969Y592151D01*
X740969Y594559D02*
X730979Y594559D01*
X730979Y596967D02*
X740969Y596967D01*
X740969Y599375D02*
X730979Y599375D01*
X747979Y592151D02*
X757969Y592151D01*
X747979Y592151D02*
X747979Y601141D01*
X757969Y601141D01*
X757969Y592151D01*
X757969Y594559D02*
X747979Y594559D01*
X747979Y596967D02*
X757969Y596967D01*
X757969Y599375D02*
X747979Y599375D01*
D13*
X767655Y611615D02*
X767655Y622705D01*
X767655Y611615D02*
X748565Y611615D01*
X748565Y622705D01*
X767655Y622705D01*
X767655Y613927D02*
X748565Y613927D01*
X748565Y616239D02*
X767655Y616239D01*
X767655Y618551D02*
X748565Y618551D01*
X748565Y620863D02*
X767655Y620863D01*
X767655Y667615D02*
X767655Y678705D01*
X767655Y667615D02*
X748565Y667615D01*
X748565Y678705D01*
X767655Y678705D01*
X767655Y669927D02*
X748565Y669927D01*
X748565Y672239D02*
X767655Y672239D01*
X767655Y674551D02*
X748565Y674551D01*
X748565Y676863D02*
X767655Y676863D01*
D14*
X727593Y632643D02*
X727593Y627677D01*
X715127Y627677D01*
X715127Y632643D01*
X727593Y632643D01*
X727593Y630107D02*
X715127Y630107D01*
X715127Y632537D02*
X727593Y632537D01*
X727593Y637677D02*
X727593Y642643D01*
X727593Y637677D02*
X715127Y637677D01*
X715127Y642643D01*
X727593Y642643D01*
X727593Y640107D02*
X715127Y640107D01*
X715127Y642537D02*
X727593Y642537D01*
X727593Y647677D02*
X727593Y652643D01*
X727593Y647677D02*
X715127Y647677D01*
X715127Y652643D01*
X727593Y652643D01*
X727593Y650107D02*
X715127Y650107D01*
X715127Y652537D02*
X727593Y652537D01*
X727593Y657677D02*
X727593Y662643D01*
X727593Y657677D02*
X715127Y657677D01*
X715127Y662643D01*
X727593Y662643D01*
X727593Y660107D02*
X715127Y660107D01*
X715127Y662537D02*
X727593Y662537D01*
D15*
X746760Y746760D03*
X543560Y746760D03*
X543560Y543560D03*
X746760Y543560D03*
D16*
X525272Y525272D03*
X764794Y763778D03*
D17*
X645160Y643160D03*
X649160Y643160D03*
X649160Y647160D03*
X645160Y647160D03*
X641160Y647160D03*
X641160Y643160D03*
D12*
X708660Y530860D03*
D10*
X743915Y714933D02*
X753905Y714933D01*
X753905Y705943D01*
X743915Y705943D01*
X743915Y714933D01*
X743915Y708351D02*
X753905Y708351D01*
X753905Y710759D02*
X743915Y710759D01*
X743915Y713167D02*
X753905Y713167D01*
X736905Y714933D02*
X726915Y714933D01*
X736905Y714933D02*
X736905Y705943D01*
X726915Y705943D01*
X726915Y714933D01*
X726915Y708351D02*
X736905Y708351D01*
X736905Y710759D02*
X726915Y710759D01*
X726915Y713167D02*
X736905Y713167D01*
X893521Y609523D02*
X903511Y609523D01*
X903511Y600533D01*
X893521Y600533D01*
X893521Y609523D01*
X893521Y602941D02*
X903511Y602941D01*
X903511Y605349D02*
X893521Y605349D01*
X893521Y607757D02*
X903511Y607757D01*
X886511Y609523D02*
X876521Y609523D01*
X886511Y609523D02*
X886511Y600533D01*
X876521Y600533D01*
X876521Y609523D01*
X876521Y602941D02*
X886511Y602941D01*
X886511Y605349D02*
X876521Y605349D01*
X876521Y607757D02*
X886511Y607757D01*
D11*
X795099Y601431D02*
X795099Y594401D01*
X788069Y594401D01*
X788069Y601431D01*
X795099Y601431D01*
X795099Y598670D02*
X788069Y598670D01*
X812639Y601431D02*
X812639Y594401D01*
X805609Y594401D01*
X805609Y601431D01*
X812639Y601431D01*
X812639Y598670D02*
X805609Y598670D01*
D12*
X840740Y530860D03*
X866140Y530860D03*
X891540Y530860D03*
X916940Y530860D03*
D13*
X781745Y667615D02*
X781745Y678705D01*
X800835Y678705D01*
X800835Y667615D01*
X781745Y667615D01*
X781745Y669927D02*
X800835Y669927D01*
X800835Y672239D02*
X781745Y672239D01*
X781745Y674551D02*
X800835Y674551D01*
X800835Y676863D02*
X781745Y676863D01*
X781745Y622705D02*
X781745Y611615D01*
X781745Y622705D02*
X800835Y622705D01*
X800835Y611615D01*
X781745Y611615D01*
X781745Y613927D02*
X800835Y613927D01*
X800835Y616239D02*
X781745Y616239D01*
X781745Y618551D02*
X800835Y618551D01*
X800835Y620863D02*
X781745Y620863D01*
D14*
X821807Y657677D02*
X821807Y662643D01*
X834273Y662643D01*
X834273Y657677D01*
X821807Y657677D01*
X821807Y660107D02*
X834273Y660107D01*
X834273Y662537D02*
X821807Y662537D01*
X821807Y652643D02*
X821807Y647677D01*
X821807Y652643D02*
X834273Y652643D01*
X834273Y647677D01*
X821807Y647677D01*
X821807Y650107D02*
X834273Y650107D01*
X834273Y652537D02*
X821807Y652537D01*
X821807Y642643D02*
X821807Y637677D01*
X821807Y642643D02*
X834273Y642643D01*
X834273Y637677D01*
X821807Y637677D01*
X821807Y640107D02*
X834273Y640107D01*
X834273Y642537D02*
X821807Y642537D01*
X821807Y632643D02*
X821807Y627677D01*
X821807Y632643D02*
X834273Y632643D01*
X834273Y627677D01*
X821807Y627677D01*
X821807Y630107D02*
X834273Y630107D01*
X834273Y632537D02*
X821807Y632537D01*
D12*
X942340Y530860D03*
D10*
X795833Y578943D02*
X785843Y578943D01*
X785843Y587933D01*
X795833Y587933D01*
X795833Y578943D01*
X795833Y581351D02*
X785843Y581351D01*
X785843Y583759D02*
X795833Y583759D01*
X795833Y586167D02*
X785843Y586167D01*
X802843Y578943D02*
X812833Y578943D01*
X802843Y578943D02*
X802843Y587933D01*
X812833Y587933D01*
X812833Y578943D01*
X812833Y581351D02*
X802843Y581351D01*
X802843Y583759D02*
X812833Y583759D01*
X812833Y586167D02*
X802843Y586167D01*
X1003249Y700201D02*
X1013239Y700201D01*
X1013239Y691211D01*
X1003249Y691211D01*
X1003249Y700201D01*
X1003249Y693619D02*
X1013239Y693619D01*
X1013239Y696027D02*
X1003249Y696027D01*
X1003249Y698435D02*
X1013239Y698435D01*
X996239Y700201D02*
X986249Y700201D01*
X996239Y700201D02*
X996239Y691211D01*
X986249Y691211D01*
X986249Y700201D01*
X986249Y693619D02*
X996239Y693619D01*
X996239Y696027D02*
X986249Y696027D01*
X986249Y698435D02*
X996239Y698435D01*
X999795Y575133D02*
X989805Y575133D01*
X989805Y584123D01*
X999795Y584123D01*
X999795Y575133D01*
X999795Y577541D02*
X989805Y577541D01*
X989805Y579949D02*
X999795Y579949D01*
X999795Y582357D02*
X989805Y582357D01*
X1006805Y575133D02*
X1016795Y575133D01*
X1006805Y575133D02*
X1006805Y584123D01*
X1016795Y584123D01*
X1016795Y575133D01*
X1016795Y577541D02*
X1006805Y577541D01*
X1006805Y579949D02*
X1016795Y579949D01*
X1016795Y582357D02*
X1006805Y582357D01*
X1000049Y592151D02*
X990059Y592151D01*
X990059Y601141D01*
X1000049Y601141D01*
X1000049Y592151D01*
X1000049Y594559D02*
X990059Y594559D01*
X990059Y596967D02*
X1000049Y596967D01*
X1000049Y599375D02*
X990059Y599375D01*
X1007059Y592151D02*
X1017049Y592151D01*
X1007059Y592151D02*
X1007059Y601141D01*
X1017049Y601141D01*
X1017049Y592151D01*
X1017049Y594559D02*
X1007059Y594559D01*
X1007059Y596967D02*
X1017049Y596967D01*
X1017049Y599375D02*
X1007059Y599375D01*
D13*
X1026735Y611615D02*
X1026735Y622705D01*
X1026735Y611615D02*
X1007645Y611615D01*
X1007645Y622705D01*
X1026735Y622705D01*
X1026735Y613927D02*
X1007645Y613927D01*
X1007645Y616239D02*
X1026735Y616239D01*
X1026735Y618551D02*
X1007645Y618551D01*
X1007645Y620863D02*
X1026735Y620863D01*
X1026735Y667615D02*
X1026735Y678705D01*
X1026735Y667615D02*
X1007645Y667615D01*
X1007645Y678705D01*
X1026735Y678705D01*
X1026735Y669927D02*
X1007645Y669927D01*
X1007645Y672239D02*
X1026735Y672239D01*
X1026735Y674551D02*
X1007645Y674551D01*
X1007645Y676863D02*
X1026735Y676863D01*
D14*
X986673Y632643D02*
X986673Y627677D01*
X974207Y627677D01*
X974207Y632643D01*
X986673Y632643D01*
X986673Y630107D02*
X974207Y630107D01*
X974207Y632537D02*
X986673Y632537D01*
X986673Y637677D02*
X986673Y642643D01*
X986673Y637677D02*
X974207Y637677D01*
X974207Y642643D01*
X986673Y642643D01*
X986673Y640107D02*
X974207Y640107D01*
X974207Y642537D02*
X986673Y642537D01*
X986673Y647677D02*
X986673Y652643D01*
X986673Y647677D02*
X974207Y647677D01*
X974207Y652643D01*
X986673Y652643D01*
X986673Y650107D02*
X974207Y650107D01*
X974207Y652537D02*
X986673Y652537D01*
X986673Y657677D02*
X986673Y662643D01*
X986673Y657677D02*
X974207Y657677D01*
X974207Y662643D01*
X986673Y662643D01*
X986673Y660107D02*
X974207Y660107D01*
X974207Y662537D02*
X986673Y662537D01*
D15*
X1005840Y746760D03*
X802640Y746760D03*
X802640Y543560D03*
X1005840Y543560D03*
D16*
X784352Y525272D03*
X1023874Y763778D03*
D17*
X904240Y643160D03*
X908240Y643160D03*
X908240Y647160D03*
X904240Y647160D03*
X900240Y647160D03*
X900240Y643160D03*
D12*
X967740Y530860D03*
D10*
X1002995Y714933D02*
X1012985Y714933D01*
X1012985Y705943D01*
X1002995Y705943D01*
X1002995Y714933D01*
X1002995Y708351D02*
X1012985Y708351D01*
X1012985Y710759D02*
X1002995Y710759D01*
X1002995Y713167D02*
X1012985Y713167D01*
X995985Y714933D02*
X985995Y714933D01*
X995985Y714933D02*
X995985Y705943D01*
X985995Y705943D01*
X985995Y714933D01*
X985995Y708351D02*
X995985Y708351D01*
X995985Y710759D02*
X985995Y710759D01*
X985995Y713167D02*
X995985Y713167D01*
X1152601Y609523D02*
X1162591Y609523D01*
X1162591Y600533D01*
X1152601Y600533D01*
X1152601Y609523D01*
X1152601Y602941D02*
X1162591Y602941D01*
X1162591Y605349D02*
X1152601Y605349D01*
X1152601Y607757D02*
X1162591Y607757D01*
X1145591Y609523D02*
X1135601Y609523D01*
X1145591Y609523D02*
X1145591Y600533D01*
X1135601Y600533D01*
X1135601Y609523D01*
X1135601Y602941D02*
X1145591Y602941D01*
X1145591Y605349D02*
X1135601Y605349D01*
X1135601Y607757D02*
X1145591Y607757D01*
D11*
X1054179Y601431D02*
X1054179Y594401D01*
X1047149Y594401D01*
X1047149Y601431D01*
X1054179Y601431D01*
X1054179Y598670D02*
X1047149Y598670D01*
X1071719Y601431D02*
X1071719Y594401D01*
X1064689Y594401D01*
X1064689Y601431D01*
X1071719Y601431D01*
X1071719Y598670D02*
X1064689Y598670D01*
D12*
X1099820Y530860D03*
X1125220Y530860D03*
X1150620Y530860D03*
X1176020Y530860D03*
D13*
X1040825Y667615D02*
X1040825Y678705D01*
X1059915Y678705D01*
X1059915Y667615D01*
X1040825Y667615D01*
X1040825Y669927D02*
X1059915Y669927D01*
X1059915Y672239D02*
X1040825Y672239D01*
X1040825Y674551D02*
X1059915Y674551D01*
X1059915Y676863D02*
X1040825Y676863D01*
X1040825Y622705D02*
X1040825Y611615D01*
X1040825Y622705D02*
X1059915Y622705D01*
X1059915Y611615D01*
X1040825Y611615D01*
X1040825Y613927D02*
X1059915Y613927D01*
X1059915Y616239D02*
X1040825Y616239D01*
X1040825Y618551D02*
X1059915Y618551D01*
X1059915Y620863D02*
X1040825Y620863D01*
D14*
X1080887Y657677D02*
X1080887Y662643D01*
X1093353Y662643D01*
X1093353Y657677D01*
X1080887Y657677D01*
X1080887Y660107D02*
X1093353Y660107D01*
X1093353Y662537D02*
X1080887Y662537D01*
X1080887Y652643D02*
X1080887Y647677D01*
X1080887Y652643D02*
X1093353Y652643D01*
X1093353Y647677D01*
X1080887Y647677D01*
X1080887Y650107D02*
X1093353Y650107D01*
X1093353Y652537D02*
X1080887Y652537D01*
X1080887Y642643D02*
X1080887Y637677D01*
X1080887Y642643D02*
X1093353Y642643D01*
X1093353Y637677D01*
X1080887Y637677D01*
X1080887Y640107D02*
X1093353Y640107D01*
X1093353Y642537D02*
X1080887Y642537D01*
X1080887Y632643D02*
X1080887Y627677D01*
X1080887Y632643D02*
X1093353Y632643D01*
X1093353Y627677D01*
X1080887Y627677D01*
X1080887Y630107D02*
X1093353Y630107D01*
X1093353Y632537D02*
X1080887Y632537D01*
D12*
X1201420Y530860D03*
D10*
X1054913Y578943D02*
X1044923Y578943D01*
X1044923Y587933D01*
X1054913Y587933D01*
X1054913Y578943D01*
X1054913Y581351D02*
X1044923Y581351D01*
X1044923Y583759D02*
X1054913Y583759D01*
X1054913Y586167D02*
X1044923Y586167D01*
X1061923Y578943D02*
X1071913Y578943D01*
X1061923Y578943D02*
X1061923Y587933D01*
X1071913Y587933D01*
X1071913Y578943D01*
X1071913Y581351D02*
X1061923Y581351D01*
X1061923Y583759D02*
X1071913Y583759D01*
X1071913Y586167D02*
X1061923Y586167D01*
X1262329Y700201D02*
X1272319Y700201D01*
X1272319Y691211D01*
X1262329Y691211D01*
X1262329Y700201D01*
X1262329Y693619D02*
X1272319Y693619D01*
X1272319Y696027D02*
X1262329Y696027D01*
X1262329Y698435D02*
X1272319Y698435D01*
X1255319Y700201D02*
X1245329Y700201D01*
X1255319Y700201D02*
X1255319Y691211D01*
X1245329Y691211D01*
X1245329Y700201D01*
X1245329Y693619D02*
X1255319Y693619D01*
X1255319Y696027D02*
X1245329Y696027D01*
X1245329Y698435D02*
X1255319Y698435D01*
X1258875Y575133D02*
X1248885Y575133D01*
X1248885Y584123D01*
X1258875Y584123D01*
X1258875Y575133D01*
X1258875Y577541D02*
X1248885Y577541D01*
X1248885Y579949D02*
X1258875Y579949D01*
X1258875Y582357D02*
X1248885Y582357D01*
X1265885Y575133D02*
X1275875Y575133D01*
X1265885Y575133D02*
X1265885Y584123D01*
X1275875Y584123D01*
X1275875Y575133D01*
X1275875Y577541D02*
X1265885Y577541D01*
X1265885Y579949D02*
X1275875Y579949D01*
X1275875Y582357D02*
X1265885Y582357D01*
X1259129Y592151D02*
X1249139Y592151D01*
X1249139Y601141D01*
X1259129Y601141D01*
X1259129Y592151D01*
X1259129Y594559D02*
X1249139Y594559D01*
X1249139Y596967D02*
X1259129Y596967D01*
X1259129Y599375D02*
X1249139Y599375D01*
X1266139Y592151D02*
X1276129Y592151D01*
X1266139Y592151D02*
X1266139Y601141D01*
X1276129Y601141D01*
X1276129Y592151D01*
X1276129Y594559D02*
X1266139Y594559D01*
X1266139Y596967D02*
X1276129Y596967D01*
X1276129Y599375D02*
X1266139Y599375D01*
D13*
X1285815Y611615D02*
X1285815Y622705D01*
X1285815Y611615D02*
X1266725Y611615D01*
X1266725Y622705D01*
X1285815Y622705D01*
X1285815Y613927D02*
X1266725Y613927D01*
X1266725Y616239D02*
X1285815Y616239D01*
X1285815Y618551D02*
X1266725Y618551D01*
X1266725Y620863D02*
X1285815Y620863D01*
X1285815Y667615D02*
X1285815Y678705D01*
X1285815Y667615D02*
X1266725Y667615D01*
X1266725Y678705D01*
X1285815Y678705D01*
X1285815Y669927D02*
X1266725Y669927D01*
X1266725Y672239D02*
X1285815Y672239D01*
X1285815Y674551D02*
X1266725Y674551D01*
X1266725Y676863D02*
X1285815Y676863D01*
D14*
X1245753Y632643D02*
X1245753Y627677D01*
X1233287Y627677D01*
X1233287Y632643D01*
X1245753Y632643D01*
X1245753Y630107D02*
X1233287Y630107D01*
X1233287Y632537D02*
X1245753Y632537D01*
X1245753Y637677D02*
X1245753Y642643D01*
X1245753Y637677D02*
X1233287Y637677D01*
X1233287Y642643D01*
X1245753Y642643D01*
X1245753Y640107D02*
X1233287Y640107D01*
X1233287Y642537D02*
X1245753Y642537D01*
X1245753Y647677D02*
X1245753Y652643D01*
X1245753Y647677D02*
X1233287Y647677D01*
X1233287Y652643D01*
X1245753Y652643D01*
X1245753Y650107D02*
X1233287Y650107D01*
X1233287Y652537D02*
X1245753Y652537D01*
X1245753Y657677D02*
X1245753Y662643D01*
X1245753Y657677D02*
X1233287Y657677D01*
X1233287Y662643D01*
X1245753Y662643D01*
X1245753Y660107D02*
X1233287Y660107D01*
X1233287Y662537D02*
X1245753Y662537D01*
D15*
X1264920Y746760D03*
X1061720Y746760D03*
X1061720Y543560D03*
X1264920Y543560D03*
D16*
X1043432Y525272D03*
X1282954Y763778D03*
D17*
X1163320Y643160D03*
X1167320Y643160D03*
X1167320Y647160D03*
X1163320Y647160D03*
X1159320Y647160D03*
X1159320Y643160D03*
D12*
X1226820Y530860D03*
D10*
X1262075Y714933D02*
X1272065Y714933D01*
X1272065Y705943D01*
X1262075Y705943D01*
X1262075Y714933D01*
X1262075Y708351D02*
X1272065Y708351D01*
X1272065Y710759D02*
X1262075Y710759D01*
X1262075Y713167D02*
X1272065Y713167D01*
X1255065Y714933D02*
X1245075Y714933D01*
X1255065Y714933D02*
X1255065Y705943D01*
X1245075Y705943D01*
X1245075Y714933D01*
X1245075Y708351D02*
X1255065Y708351D01*
X1255065Y710759D02*
X1245075Y710759D01*
X1245075Y713167D02*
X1255065Y713167D01*
X1411681Y609523D02*
X1421671Y609523D01*
X1421671Y600533D01*
X1411681Y600533D01*
X1411681Y609523D01*
X1411681Y602941D02*
X1421671Y602941D01*
X1421671Y605349D02*
X1411681Y605349D01*
X1411681Y607757D02*
X1421671Y607757D01*
X1404671Y609523D02*
X1394681Y609523D01*
X1404671Y609523D02*
X1404671Y600533D01*
X1394681Y600533D01*
X1394681Y609523D01*
X1394681Y602941D02*
X1404671Y602941D01*
X1404671Y605349D02*
X1394681Y605349D01*
X1394681Y607757D02*
X1404671Y607757D01*
D11*
X1313259Y601431D02*
X1313259Y594401D01*
X1306229Y594401D01*
X1306229Y601431D01*
X1313259Y601431D01*
X1313259Y598670D02*
X1306229Y598670D01*
X1330799Y601431D02*
X1330799Y594401D01*
X1323769Y594401D01*
X1323769Y601431D01*
X1330799Y601431D01*
X1330799Y598670D02*
X1323769Y598670D01*
D12*
X1358900Y530860D03*
X1384300Y530860D03*
X1409700Y530860D03*
X1435100Y530860D03*
D13*
X1299905Y667615D02*
X1299905Y678705D01*
X1318995Y678705D01*
X1318995Y667615D01*
X1299905Y667615D01*
X1299905Y669927D02*
X1318995Y669927D01*
X1318995Y672239D02*
X1299905Y672239D01*
X1299905Y674551D02*
X1318995Y674551D01*
X1318995Y676863D02*
X1299905Y676863D01*
X1299905Y622705D02*
X1299905Y611615D01*
X1299905Y622705D02*
X1318995Y622705D01*
X1318995Y611615D01*
X1299905Y611615D01*
X1299905Y613927D02*
X1318995Y613927D01*
X1318995Y616239D02*
X1299905Y616239D01*
X1299905Y618551D02*
X1318995Y618551D01*
X1318995Y620863D02*
X1299905Y620863D01*
D14*
X1339967Y657677D02*
X1339967Y662643D01*
X1352433Y662643D01*
X1352433Y657677D01*
X1339967Y657677D01*
X1339967Y660107D02*
X1352433Y660107D01*
X1352433Y662537D02*
X1339967Y662537D01*
X1339967Y652643D02*
X1339967Y647677D01*
X1339967Y652643D02*
X1352433Y652643D01*
X1352433Y647677D01*
X1339967Y647677D01*
X1339967Y650107D02*
X1352433Y650107D01*
X1352433Y652537D02*
X1339967Y652537D01*
X1339967Y642643D02*
X1339967Y637677D01*
X1339967Y642643D02*
X1352433Y642643D01*
X1352433Y637677D01*
X1339967Y637677D01*
X1339967Y640107D02*
X1352433Y640107D01*
X1352433Y642537D02*
X1339967Y642537D01*
X1339967Y632643D02*
X1339967Y627677D01*
X1339967Y632643D02*
X1352433Y632643D01*
X1352433Y627677D01*
X1339967Y627677D01*
X1339967Y630107D02*
X1352433Y630107D01*
X1352433Y632537D02*
X1339967Y632537D01*
D12*
X1460500Y530860D03*
D10*
X1313993Y578943D02*
X1304003Y578943D01*
X1304003Y587933D01*
X1313993Y587933D01*
X1313993Y578943D01*
X1313993Y581351D02*
X1304003Y581351D01*
X1304003Y583759D02*
X1313993Y583759D01*
X1313993Y586167D02*
X1304003Y586167D01*
X1321003Y578943D02*
X1330993Y578943D01*
X1321003Y578943D02*
X1321003Y587933D01*
X1330993Y587933D01*
X1330993Y578943D01*
X1330993Y581351D02*
X1321003Y581351D01*
X1321003Y583759D02*
X1330993Y583759D01*
X1330993Y586167D02*
X1321003Y586167D01*
X1521409Y700201D02*
X1531399Y700201D01*
X1531399Y691211D01*
X1521409Y691211D01*
X1521409Y700201D01*
X1521409Y693619D02*
X1531399Y693619D01*
X1531399Y696027D02*
X1521409Y696027D01*
X1521409Y698435D02*
X1531399Y698435D01*
X1514399Y700201D02*
X1504409Y700201D01*
X1514399Y700201D02*
X1514399Y691211D01*
X1504409Y691211D01*
X1504409Y700201D01*
X1504409Y693619D02*
X1514399Y693619D01*
X1514399Y696027D02*
X1504409Y696027D01*
X1504409Y698435D02*
X1514399Y698435D01*
X1517955Y575133D02*
X1507965Y575133D01*
X1507965Y584123D01*
X1517955Y584123D01*
X1517955Y575133D01*
X1517955Y577541D02*
X1507965Y577541D01*
X1507965Y579949D02*
X1517955Y579949D01*
X1517955Y582357D02*
X1507965Y582357D01*
X1524965Y575133D02*
X1534955Y575133D01*
X1524965Y575133D02*
X1524965Y584123D01*
X1534955Y584123D01*
X1534955Y575133D01*
X1534955Y577541D02*
X1524965Y577541D01*
X1524965Y579949D02*
X1534955Y579949D01*
X1534955Y582357D02*
X1524965Y582357D01*
X1518209Y592151D02*
X1508219Y592151D01*
X1508219Y601141D01*
X1518209Y601141D01*
X1518209Y592151D01*
X1518209Y594559D02*
X1508219Y594559D01*
X1508219Y596967D02*
X1518209Y596967D01*
X1518209Y599375D02*
X1508219Y599375D01*
X1525219Y592151D02*
X1535209Y592151D01*
X1525219Y592151D02*
X1525219Y601141D01*
X1535209Y601141D01*
X1535209Y592151D01*
X1535209Y594559D02*
X1525219Y594559D01*
X1525219Y596967D02*
X1535209Y596967D01*
X1535209Y599375D02*
X1525219Y599375D01*
D13*
X1544895Y611615D02*
X1544895Y622705D01*
X1544895Y611615D02*
X1525805Y611615D01*
X1525805Y622705D01*
X1544895Y622705D01*
X1544895Y613927D02*
X1525805Y613927D01*
X1525805Y616239D02*
X1544895Y616239D01*
X1544895Y618551D02*
X1525805Y618551D01*
X1525805Y620863D02*
X1544895Y620863D01*
X1544895Y667615D02*
X1544895Y678705D01*
X1544895Y667615D02*
X1525805Y667615D01*
X1525805Y678705D01*
X1544895Y678705D01*
X1544895Y669927D02*
X1525805Y669927D01*
X1525805Y672239D02*
X1544895Y672239D01*
X1544895Y674551D02*
X1525805Y674551D01*
X1525805Y676863D02*
X1544895Y676863D01*
D14*
X1504833Y632643D02*
X1504833Y627677D01*
X1492367Y627677D01*
X1492367Y632643D01*
X1504833Y632643D01*
X1504833Y630107D02*
X1492367Y630107D01*
X1492367Y632537D02*
X1504833Y632537D01*
X1504833Y637677D02*
X1504833Y642643D01*
X1504833Y637677D02*
X1492367Y637677D01*
X1492367Y642643D01*
X1504833Y642643D01*
X1504833Y640107D02*
X1492367Y640107D01*
X1492367Y642537D02*
X1504833Y642537D01*
X1504833Y647677D02*
X1504833Y652643D01*
X1504833Y647677D02*
X1492367Y647677D01*
X1492367Y652643D01*
X1504833Y652643D01*
X1504833Y650107D02*
X1492367Y650107D01*
X1492367Y652537D02*
X1504833Y652537D01*
X1504833Y657677D02*
X1504833Y662643D01*
X1504833Y657677D02*
X1492367Y657677D01*
X1492367Y662643D01*
X1504833Y662643D01*
X1504833Y660107D02*
X1492367Y660107D01*
X1492367Y662537D02*
X1504833Y662537D01*
D15*
X1524000Y746760D03*
X1320800Y746760D03*
X1320800Y543560D03*
X1524000Y543560D03*
D16*
X1302512Y525272D03*
X1542034Y763778D03*
D17*
X1422400Y643160D03*
X1426400Y643160D03*
X1426400Y647160D03*
X1422400Y647160D03*
X1418400Y647160D03*
X1418400Y643160D03*
D12*
X1485900Y530860D03*
D10*
X1521155Y714933D02*
X1531145Y714933D01*
X1531145Y705943D01*
X1521155Y705943D01*
X1521155Y714933D01*
X1521155Y708351D02*
X1531145Y708351D01*
X1531145Y710759D02*
X1521155Y710759D01*
X1521155Y713167D02*
X1531145Y713167D01*
X1514145Y714933D02*
X1504155Y714933D01*
X1514145Y714933D02*
X1514145Y705943D01*
X1504155Y705943D01*
X1504155Y714933D01*
X1504155Y708351D02*
X1514145Y708351D01*
X1514145Y710759D02*
X1504155Y710759D01*
X1504155Y713167D02*
X1514145Y713167D01*
X126271Y868603D02*
X116281Y868603D01*
X126271Y868603D02*
X126271Y859613D01*
X116281Y859613D01*
X116281Y868603D01*
X116281Y862021D02*
X126271Y862021D01*
X126271Y864429D02*
X116281Y864429D01*
X116281Y866837D02*
X126271Y866837D01*
X109271Y868603D02*
X99281Y868603D01*
X109271Y868603D02*
X109271Y859613D01*
X99281Y859613D01*
X99281Y868603D01*
X99281Y862021D02*
X109271Y862021D01*
X109271Y864429D02*
X99281Y864429D01*
X99281Y866837D02*
X109271Y866837D01*
D11*
X17859Y860511D02*
X17859Y853481D01*
X10829Y853481D01*
X10829Y860511D01*
X17859Y860511D01*
X17859Y857750D02*
X10829Y857750D01*
X35399Y860511D02*
X35399Y853481D01*
X28369Y853481D01*
X28369Y860511D01*
X35399Y860511D01*
X35399Y857750D02*
X28369Y857750D01*
D12*
X63500Y789940D03*
X88900Y789940D03*
X114300Y789940D03*
X139700Y789940D03*
D13*
X4505Y926695D02*
X4505Y937785D01*
X23595Y937785D01*
X23595Y926695D01*
X4505Y926695D01*
X4505Y929007D02*
X23595Y929007D01*
X23595Y931319D02*
X4505Y931319D01*
X4505Y933631D02*
X23595Y933631D01*
X23595Y935943D02*
X4505Y935943D01*
X4505Y881785D02*
X4505Y870695D01*
X4505Y881785D02*
X23595Y881785D01*
X23595Y870695D01*
X4505Y870695D01*
X4505Y873007D02*
X23595Y873007D01*
X23595Y875319D02*
X4505Y875319D01*
X4505Y877631D02*
X23595Y877631D01*
X23595Y879943D02*
X4505Y879943D01*
D14*
X44567Y916757D02*
X44567Y921723D01*
X57033Y921723D01*
X57033Y916757D01*
X44567Y916757D01*
X44567Y919187D02*
X57033Y919187D01*
X57033Y921617D02*
X44567Y921617D01*
X44567Y911723D02*
X44567Y906757D01*
X44567Y911723D02*
X57033Y911723D01*
X57033Y906757D01*
X44567Y906757D01*
X44567Y909187D02*
X57033Y909187D01*
X57033Y911617D02*
X44567Y911617D01*
X44567Y901723D02*
X44567Y896757D01*
X44567Y901723D02*
X57033Y901723D01*
X57033Y896757D01*
X44567Y896757D01*
X44567Y899187D02*
X57033Y899187D01*
X57033Y901617D02*
X44567Y901617D01*
X44567Y891723D02*
X44567Y886757D01*
X44567Y891723D02*
X57033Y891723D01*
X57033Y886757D01*
X44567Y886757D01*
X44567Y889187D02*
X57033Y889187D01*
X57033Y891617D02*
X44567Y891617D01*
D12*
X165100Y789940D03*
D10*
X18593Y838023D02*
X8603Y838023D01*
X8603Y847013D01*
X18593Y847013D01*
X18593Y838023D01*
X18593Y840431D02*
X8603Y840431D01*
X8603Y842839D02*
X18593Y842839D01*
X18593Y845247D02*
X8603Y845247D01*
X25603Y838023D02*
X35593Y838023D01*
X25603Y838023D02*
X25603Y847013D01*
X35593Y847013D01*
X35593Y838023D01*
X35593Y840431D02*
X25603Y840431D01*
X25603Y842839D02*
X35593Y842839D01*
X35593Y845247D02*
X25603Y845247D01*
X226009Y959281D02*
X235999Y959281D01*
X235999Y950291D01*
X226009Y950291D01*
X226009Y959281D01*
X226009Y952699D02*
X235999Y952699D01*
X235999Y955107D02*
X226009Y955107D01*
X226009Y957515D02*
X235999Y957515D01*
X218999Y959281D02*
X209009Y959281D01*
X218999Y959281D02*
X218999Y950291D01*
X209009Y950291D01*
X209009Y959281D01*
X209009Y952699D02*
X218999Y952699D01*
X218999Y955107D02*
X209009Y955107D01*
X209009Y957515D02*
X218999Y957515D01*
X222555Y834213D02*
X212565Y834213D01*
X212565Y843203D01*
X222555Y843203D01*
X222555Y834213D01*
X222555Y836621D02*
X212565Y836621D01*
X212565Y839029D02*
X222555Y839029D01*
X222555Y841437D02*
X212565Y841437D01*
X229565Y834213D02*
X239555Y834213D01*
X229565Y834213D02*
X229565Y843203D01*
X239555Y843203D01*
X239555Y834213D01*
X239555Y836621D02*
X229565Y836621D01*
X229565Y839029D02*
X239555Y839029D01*
X239555Y841437D02*
X229565Y841437D01*
X222809Y851231D02*
X212819Y851231D01*
X212819Y860221D01*
X222809Y860221D01*
X222809Y851231D01*
X222809Y853639D02*
X212819Y853639D01*
X212819Y856047D02*
X222809Y856047D01*
X222809Y858455D02*
X212819Y858455D01*
X229819Y851231D02*
X239809Y851231D01*
X229819Y851231D02*
X229819Y860221D01*
X239809Y860221D01*
X239809Y851231D01*
X239809Y853639D02*
X229819Y853639D01*
X229819Y856047D02*
X239809Y856047D01*
X239809Y858455D02*
X229819Y858455D01*
D13*
X249495Y870695D02*
X249495Y881785D01*
X249495Y870695D02*
X230405Y870695D01*
X230405Y881785D01*
X249495Y881785D01*
X249495Y873007D02*
X230405Y873007D01*
X230405Y875319D02*
X249495Y875319D01*
X249495Y877631D02*
X230405Y877631D01*
X230405Y879943D02*
X249495Y879943D01*
X249495Y926695D02*
X249495Y937785D01*
X249495Y926695D02*
X230405Y926695D01*
X230405Y937785D01*
X249495Y937785D01*
X249495Y929007D02*
X230405Y929007D01*
X230405Y931319D02*
X249495Y931319D01*
X249495Y933631D02*
X230405Y933631D01*
X230405Y935943D02*
X249495Y935943D01*
D14*
X209433Y891723D02*
X209433Y886757D01*
X196967Y886757D01*
X196967Y891723D01*
X209433Y891723D01*
X209433Y889187D02*
X196967Y889187D01*
X196967Y891617D02*
X209433Y891617D01*
X209433Y896757D02*
X209433Y901723D01*
X209433Y896757D02*
X196967Y896757D01*
X196967Y901723D01*
X209433Y901723D01*
X209433Y899187D02*
X196967Y899187D01*
X196967Y901617D02*
X209433Y901617D01*
X209433Y906757D02*
X209433Y911723D01*
X209433Y906757D02*
X196967Y906757D01*
X196967Y911723D01*
X209433Y911723D01*
X209433Y909187D02*
X196967Y909187D01*
X196967Y911617D02*
X209433Y911617D01*
X209433Y916757D02*
X209433Y921723D01*
X209433Y916757D02*
X196967Y916757D01*
X196967Y921723D01*
X209433Y921723D01*
X209433Y919187D02*
X196967Y919187D01*
X196967Y921617D02*
X209433Y921617D01*
D15*
X228600Y1005840D03*
X25400Y1005840D03*
X25400Y802640D03*
X228600Y802640D03*
D16*
X7112Y784352D03*
X246634Y1022858D03*
D17*
X127000Y902240D03*
X131000Y902240D03*
X131000Y906240D03*
X127000Y906240D03*
X123000Y906240D03*
X123000Y902240D03*
D12*
X190500Y789940D03*
D10*
X225755Y974013D02*
X235745Y974013D01*
X235745Y965023D01*
X225755Y965023D01*
X225755Y974013D01*
X225755Y967431D02*
X235745Y967431D01*
X235745Y969839D02*
X225755Y969839D01*
X225755Y972247D02*
X235745Y972247D01*
X218745Y974013D02*
X208755Y974013D01*
X218745Y974013D02*
X218745Y965023D01*
X208755Y965023D01*
X208755Y974013D01*
X208755Y967431D02*
X218745Y967431D01*
X218745Y969839D02*
X208755Y969839D01*
X208755Y972247D02*
X218745Y972247D01*
X375361Y868603D02*
X385351Y868603D01*
X385351Y859613D01*
X375361Y859613D01*
X375361Y868603D01*
X375361Y862021D02*
X385351Y862021D01*
X385351Y864429D02*
X375361Y864429D01*
X375361Y866837D02*
X385351Y866837D01*
X368351Y868603D02*
X358361Y868603D01*
X368351Y868603D02*
X368351Y859613D01*
X358361Y859613D01*
X358361Y868603D01*
X358361Y862021D02*
X368351Y862021D01*
X368351Y864429D02*
X358361Y864429D01*
X358361Y866837D02*
X368351Y866837D01*
D11*
X276939Y860511D02*
X276939Y853481D01*
X269909Y853481D01*
X269909Y860511D01*
X276939Y860511D01*
X276939Y857750D02*
X269909Y857750D01*
X294479Y860511D02*
X294479Y853481D01*
X287449Y853481D01*
X287449Y860511D01*
X294479Y860511D01*
X294479Y857750D02*
X287449Y857750D01*
D12*
X322580Y789940D03*
X347980Y789940D03*
X373380Y789940D03*
X398780Y789940D03*
D13*
X263585Y926695D02*
X263585Y937785D01*
X282675Y937785D01*
X282675Y926695D01*
X263585Y926695D01*
X263585Y929007D02*
X282675Y929007D01*
X282675Y931319D02*
X263585Y931319D01*
X263585Y933631D02*
X282675Y933631D01*
X282675Y935943D02*
X263585Y935943D01*
X263585Y881785D02*
X263585Y870695D01*
X263585Y881785D02*
X282675Y881785D01*
X282675Y870695D01*
X263585Y870695D01*
X263585Y873007D02*
X282675Y873007D01*
X282675Y875319D02*
X263585Y875319D01*
X263585Y877631D02*
X282675Y877631D01*
X282675Y879943D02*
X263585Y879943D01*
D14*
X303647Y916757D02*
X303647Y921723D01*
X316113Y921723D01*
X316113Y916757D01*
X303647Y916757D01*
X303647Y919187D02*
X316113Y919187D01*
X316113Y921617D02*
X303647Y921617D01*
X303647Y911723D02*
X303647Y906757D01*
X303647Y911723D02*
X316113Y911723D01*
X316113Y906757D01*
X303647Y906757D01*
X303647Y909187D02*
X316113Y909187D01*
X316113Y911617D02*
X303647Y911617D01*
X303647Y901723D02*
X303647Y896757D01*
X303647Y901723D02*
X316113Y901723D01*
X316113Y896757D01*
X303647Y896757D01*
X303647Y899187D02*
X316113Y899187D01*
X316113Y901617D02*
X303647Y901617D01*
X303647Y891723D02*
X303647Y886757D01*
X303647Y891723D02*
X316113Y891723D01*
X316113Y886757D01*
X303647Y886757D01*
X303647Y889187D02*
X316113Y889187D01*
X316113Y891617D02*
X303647Y891617D01*
D12*
X424180Y789940D03*
D10*
X277673Y838023D02*
X267683Y838023D01*
X267683Y847013D01*
X277673Y847013D01*
X277673Y838023D01*
X277673Y840431D02*
X267683Y840431D01*
X267683Y842839D02*
X277673Y842839D01*
X277673Y845247D02*
X267683Y845247D01*
X284683Y838023D02*
X294673Y838023D01*
X284683Y838023D02*
X284683Y847013D01*
X294673Y847013D01*
X294673Y838023D01*
X294673Y840431D02*
X284683Y840431D01*
X284683Y842839D02*
X294673Y842839D01*
X294673Y845247D02*
X284683Y845247D01*
X485089Y959281D02*
X495079Y959281D01*
X495079Y950291D01*
X485089Y950291D01*
X485089Y959281D01*
X485089Y952699D02*
X495079Y952699D01*
X495079Y955107D02*
X485089Y955107D01*
X485089Y957515D02*
X495079Y957515D01*
X478079Y959281D02*
X468089Y959281D01*
X478079Y959281D02*
X478079Y950291D01*
X468089Y950291D01*
X468089Y959281D01*
X468089Y952699D02*
X478079Y952699D01*
X478079Y955107D02*
X468089Y955107D01*
X468089Y957515D02*
X478079Y957515D01*
X481635Y834213D02*
X471645Y834213D01*
X471645Y843203D01*
X481635Y843203D01*
X481635Y834213D01*
X481635Y836621D02*
X471645Y836621D01*
X471645Y839029D02*
X481635Y839029D01*
X481635Y841437D02*
X471645Y841437D01*
X488645Y834213D02*
X498635Y834213D01*
X488645Y834213D02*
X488645Y843203D01*
X498635Y843203D01*
X498635Y834213D01*
X498635Y836621D02*
X488645Y836621D01*
X488645Y839029D02*
X498635Y839029D01*
X498635Y841437D02*
X488645Y841437D01*
X481889Y851231D02*
X471899Y851231D01*
X471899Y860221D01*
X481889Y860221D01*
X481889Y851231D01*
X481889Y853639D02*
X471899Y853639D01*
X471899Y856047D02*
X481889Y856047D01*
X481889Y858455D02*
X471899Y858455D01*
X488899Y851231D02*
X498889Y851231D01*
X488899Y851231D02*
X488899Y860221D01*
X498889Y860221D01*
X498889Y851231D01*
X498889Y853639D02*
X488899Y853639D01*
X488899Y856047D02*
X498889Y856047D01*
X498889Y858455D02*
X488899Y858455D01*
D13*
X508575Y870695D02*
X508575Y881785D01*
X508575Y870695D02*
X489485Y870695D01*
X489485Y881785D01*
X508575Y881785D01*
X508575Y873007D02*
X489485Y873007D01*
X489485Y875319D02*
X508575Y875319D01*
X508575Y877631D02*
X489485Y877631D01*
X489485Y879943D02*
X508575Y879943D01*
X508575Y926695D02*
X508575Y937785D01*
X508575Y926695D02*
X489485Y926695D01*
X489485Y937785D01*
X508575Y937785D01*
X508575Y929007D02*
X489485Y929007D01*
X489485Y931319D02*
X508575Y931319D01*
X508575Y933631D02*
X489485Y933631D01*
X489485Y935943D02*
X508575Y935943D01*
D14*
X468513Y891723D02*
X468513Y886757D01*
X456047Y886757D01*
X456047Y891723D01*
X468513Y891723D01*
X468513Y889187D02*
X456047Y889187D01*
X456047Y891617D02*
X468513Y891617D01*
X468513Y896757D02*
X468513Y901723D01*
X468513Y896757D02*
X456047Y896757D01*
X456047Y901723D01*
X468513Y901723D01*
X468513Y899187D02*
X456047Y899187D01*
X456047Y901617D02*
X468513Y901617D01*
X468513Y906757D02*
X468513Y911723D01*
X468513Y906757D02*
X456047Y906757D01*
X456047Y911723D01*
X468513Y911723D01*
X468513Y909187D02*
X456047Y909187D01*
X456047Y911617D02*
X468513Y911617D01*
X468513Y916757D02*
X468513Y921723D01*
X468513Y916757D02*
X456047Y916757D01*
X456047Y921723D01*
X468513Y921723D01*
X468513Y919187D02*
X456047Y919187D01*
X456047Y921617D02*
X468513Y921617D01*
D15*
X487680Y1005840D03*
X284480Y1005840D03*
X284480Y802640D03*
X487680Y802640D03*
D16*
X266192Y784352D03*
X505714Y1022858D03*
D17*
X386080Y902240D03*
X390080Y902240D03*
X390080Y906240D03*
X386080Y906240D03*
X382080Y906240D03*
X382080Y902240D03*
D12*
X449580Y789940D03*
D10*
X484835Y974013D02*
X494825Y974013D01*
X494825Y965023D01*
X484835Y965023D01*
X484835Y974013D01*
X484835Y967431D02*
X494825Y967431D01*
X494825Y969839D02*
X484835Y969839D01*
X484835Y972247D02*
X494825Y972247D01*
X477825Y974013D02*
X467835Y974013D01*
X477825Y974013D02*
X477825Y965023D01*
X467835Y965023D01*
X467835Y974013D01*
X467835Y967431D02*
X477825Y967431D01*
X477825Y969839D02*
X467835Y969839D01*
X467835Y972247D02*
X477825Y972247D01*
X634441Y868603D02*
X644431Y868603D01*
X644431Y859613D01*
X634441Y859613D01*
X634441Y868603D01*
X634441Y862021D02*
X644431Y862021D01*
X644431Y864429D02*
X634441Y864429D01*
X634441Y866837D02*
X644431Y866837D01*
X627431Y868603D02*
X617441Y868603D01*
X627431Y868603D02*
X627431Y859613D01*
X617441Y859613D01*
X617441Y868603D01*
X617441Y862021D02*
X627431Y862021D01*
X627431Y864429D02*
X617441Y864429D01*
X617441Y866837D02*
X627431Y866837D01*
D11*
X536019Y860511D02*
X536019Y853481D01*
X528989Y853481D01*
X528989Y860511D01*
X536019Y860511D01*
X536019Y857750D02*
X528989Y857750D01*
X553559Y860511D02*
X553559Y853481D01*
X546529Y853481D01*
X546529Y860511D01*
X553559Y860511D01*
X553559Y857750D02*
X546529Y857750D01*
D12*
X581660Y789940D03*
X607060Y789940D03*
X632460Y789940D03*
X657860Y789940D03*
D13*
X522665Y926695D02*
X522665Y937785D01*
X541755Y937785D01*
X541755Y926695D01*
X522665Y926695D01*
X522665Y929007D02*
X541755Y929007D01*
X541755Y931319D02*
X522665Y931319D01*
X522665Y933631D02*
X541755Y933631D01*
X541755Y935943D02*
X522665Y935943D01*
X522665Y881785D02*
X522665Y870695D01*
X522665Y881785D02*
X541755Y881785D01*
X541755Y870695D01*
X522665Y870695D01*
X522665Y873007D02*
X541755Y873007D01*
X541755Y875319D02*
X522665Y875319D01*
X522665Y877631D02*
X541755Y877631D01*
X541755Y879943D02*
X522665Y879943D01*
D14*
X562727Y916757D02*
X562727Y921723D01*
X575193Y921723D01*
X575193Y916757D01*
X562727Y916757D01*
X562727Y919187D02*
X575193Y919187D01*
X575193Y921617D02*
X562727Y921617D01*
X562727Y911723D02*
X562727Y906757D01*
X562727Y911723D02*
X575193Y911723D01*
X575193Y906757D01*
X562727Y906757D01*
X562727Y909187D02*
X575193Y909187D01*
X575193Y911617D02*
X562727Y911617D01*
X562727Y901723D02*
X562727Y896757D01*
X562727Y901723D02*
X575193Y901723D01*
X575193Y896757D01*
X562727Y896757D01*
X562727Y899187D02*
X575193Y899187D01*
X575193Y901617D02*
X562727Y901617D01*
X562727Y891723D02*
X562727Y886757D01*
X562727Y891723D02*
X575193Y891723D01*
X575193Y886757D01*
X562727Y886757D01*
X562727Y889187D02*
X575193Y889187D01*
X575193Y891617D02*
X562727Y891617D01*
D12*
X683260Y789940D03*
D10*
X536753Y838023D02*
X526763Y838023D01*
X526763Y847013D01*
X536753Y847013D01*
X536753Y838023D01*
X536753Y840431D02*
X526763Y840431D01*
X526763Y842839D02*
X536753Y842839D01*
X536753Y845247D02*
X526763Y845247D01*
X543763Y838023D02*
X553753Y838023D01*
X543763Y838023D02*
X543763Y847013D01*
X553753Y847013D01*
X553753Y838023D01*
X553753Y840431D02*
X543763Y840431D01*
X543763Y842839D02*
X553753Y842839D01*
X553753Y845247D02*
X543763Y845247D01*
X744169Y959281D02*
X754159Y959281D01*
X754159Y950291D01*
X744169Y950291D01*
X744169Y959281D01*
X744169Y952699D02*
X754159Y952699D01*
X754159Y955107D02*
X744169Y955107D01*
X744169Y957515D02*
X754159Y957515D01*
X737159Y959281D02*
X727169Y959281D01*
X737159Y959281D02*
X737159Y950291D01*
X727169Y950291D01*
X727169Y959281D01*
X727169Y952699D02*
X737159Y952699D01*
X737159Y955107D02*
X727169Y955107D01*
X727169Y957515D02*
X737159Y957515D01*
X740715Y834213D02*
X730725Y834213D01*
X730725Y843203D01*
X740715Y843203D01*
X740715Y834213D01*
X740715Y836621D02*
X730725Y836621D01*
X730725Y839029D02*
X740715Y839029D01*
X740715Y841437D02*
X730725Y841437D01*
X747725Y834213D02*
X757715Y834213D01*
X747725Y834213D02*
X747725Y843203D01*
X757715Y843203D01*
X757715Y834213D01*
X757715Y836621D02*
X747725Y836621D01*
X747725Y839029D02*
X757715Y839029D01*
X757715Y841437D02*
X747725Y841437D01*
X740969Y851231D02*
X730979Y851231D01*
X730979Y860221D01*
X740969Y860221D01*
X740969Y851231D01*
X740969Y853639D02*
X730979Y853639D01*
X730979Y856047D02*
X740969Y856047D01*
X740969Y858455D02*
X730979Y858455D01*
X747979Y851231D02*
X757969Y851231D01*
X747979Y851231D02*
X747979Y860221D01*
X757969Y860221D01*
X757969Y851231D01*
X757969Y853639D02*
X747979Y853639D01*
X747979Y856047D02*
X757969Y856047D01*
X757969Y858455D02*
X747979Y858455D01*
D13*
X767655Y870695D02*
X767655Y881785D01*
X767655Y870695D02*
X748565Y870695D01*
X748565Y881785D01*
X767655Y881785D01*
X767655Y873007D02*
X748565Y873007D01*
X748565Y875319D02*
X767655Y875319D01*
X767655Y877631D02*
X748565Y877631D01*
X748565Y879943D02*
X767655Y879943D01*
X767655Y926695D02*
X767655Y937785D01*
X767655Y926695D02*
X748565Y926695D01*
X748565Y937785D01*
X767655Y937785D01*
X767655Y929007D02*
X748565Y929007D01*
X748565Y931319D02*
X767655Y931319D01*
X767655Y933631D02*
X748565Y933631D01*
X748565Y935943D02*
X767655Y935943D01*
D14*
X727593Y891723D02*
X727593Y886757D01*
X715127Y886757D01*
X715127Y891723D01*
X727593Y891723D01*
X727593Y889187D02*
X715127Y889187D01*
X715127Y891617D02*
X727593Y891617D01*
X727593Y896757D02*
X727593Y901723D01*
X727593Y896757D02*
X715127Y896757D01*
X715127Y901723D01*
X727593Y901723D01*
X727593Y899187D02*
X715127Y899187D01*
X715127Y901617D02*
X727593Y901617D01*
X727593Y906757D02*
X727593Y911723D01*
X727593Y906757D02*
X715127Y906757D01*
X715127Y911723D01*
X727593Y911723D01*
X727593Y909187D02*
X715127Y909187D01*
X715127Y911617D02*
X727593Y911617D01*
X727593Y916757D02*
X727593Y921723D01*
X727593Y916757D02*
X715127Y916757D01*
X715127Y921723D01*
X727593Y921723D01*
X727593Y919187D02*
X715127Y919187D01*
X715127Y921617D02*
X727593Y921617D01*
D15*
X746760Y1005840D03*
X543560Y1005840D03*
X543560Y802640D03*
X746760Y802640D03*
D16*
X525272Y784352D03*
X764794Y1022858D03*
D17*
X645160Y902240D03*
X649160Y902240D03*
X649160Y906240D03*
X645160Y906240D03*
X641160Y906240D03*
X641160Y902240D03*
D12*
X708660Y789940D03*
D10*
X743915Y974013D02*
X753905Y974013D01*
X753905Y965023D01*
X743915Y965023D01*
X743915Y974013D01*
X743915Y967431D02*
X753905Y967431D01*
X753905Y969839D02*
X743915Y969839D01*
X743915Y972247D02*
X753905Y972247D01*
X736905Y974013D02*
X726915Y974013D01*
X736905Y974013D02*
X736905Y965023D01*
X726915Y965023D01*
X726915Y974013D01*
X726915Y967431D02*
X736905Y967431D01*
X736905Y969839D02*
X726915Y969839D01*
X726915Y972247D02*
X736905Y972247D01*
X893521Y868603D02*
X903511Y868603D01*
X903511Y859613D01*
X893521Y859613D01*
X893521Y868603D01*
X893521Y862021D02*
X903511Y862021D01*
X903511Y864429D02*
X893521Y864429D01*
X893521Y866837D02*
X903511Y866837D01*
X886511Y868603D02*
X876521Y868603D01*
X886511Y868603D02*
X886511Y859613D01*
X876521Y859613D01*
X876521Y868603D01*
X876521Y862021D02*
X886511Y862021D01*
X886511Y864429D02*
X876521Y864429D01*
X876521Y866837D02*
X886511Y866837D01*
D11*
X795099Y860511D02*
X795099Y853481D01*
X788069Y853481D01*
X788069Y860511D01*
X795099Y860511D01*
X795099Y857750D02*
X788069Y857750D01*
X812639Y860511D02*
X812639Y853481D01*
X805609Y853481D01*
X805609Y860511D01*
X812639Y860511D01*
X812639Y857750D02*
X805609Y857750D01*
D12*
X840740Y789940D03*
X866140Y789940D03*
X891540Y789940D03*
X916940Y789940D03*
D13*
X781745Y926695D02*
X781745Y937785D01*
X800835Y937785D01*
X800835Y926695D01*
X781745Y926695D01*
X781745Y929007D02*
X800835Y929007D01*
X800835Y931319D02*
X781745Y931319D01*
X781745Y933631D02*
X800835Y933631D01*
X800835Y935943D02*
X781745Y935943D01*
X781745Y881785D02*
X781745Y870695D01*
X781745Y881785D02*
X800835Y881785D01*
X800835Y870695D01*
X781745Y870695D01*
X781745Y873007D02*
X800835Y873007D01*
X800835Y875319D02*
X781745Y875319D01*
X781745Y877631D02*
X800835Y877631D01*
X800835Y879943D02*
X781745Y879943D01*
D14*
X821807Y916757D02*
X821807Y921723D01*
X834273Y921723D01*
X834273Y916757D01*
X821807Y916757D01*
X821807Y919187D02*
X834273Y919187D01*
X834273Y921617D02*
X821807Y921617D01*
X821807Y911723D02*
X821807Y906757D01*
X821807Y911723D02*
X834273Y911723D01*
X834273Y906757D01*
X821807Y906757D01*
X821807Y909187D02*
X834273Y909187D01*
X834273Y911617D02*
X821807Y911617D01*
X821807Y901723D02*
X821807Y896757D01*
X821807Y901723D02*
X834273Y901723D01*
X834273Y896757D01*
X821807Y896757D01*
X821807Y899187D02*
X834273Y899187D01*
X834273Y901617D02*
X821807Y901617D01*
X821807Y891723D02*
X821807Y886757D01*
X821807Y891723D02*
X834273Y891723D01*
X834273Y886757D01*
X821807Y886757D01*
X821807Y889187D02*
X834273Y889187D01*
X834273Y891617D02*
X821807Y891617D01*
D12*
X942340Y789940D03*
D10*
X795833Y838023D02*
X785843Y838023D01*
X785843Y847013D01*
X795833Y847013D01*
X795833Y838023D01*
X795833Y840431D02*
X785843Y840431D01*
X785843Y842839D02*
X795833Y842839D01*
X795833Y845247D02*
X785843Y845247D01*
X802843Y838023D02*
X812833Y838023D01*
X802843Y838023D02*
X802843Y847013D01*
X812833Y847013D01*
X812833Y838023D01*
X812833Y840431D02*
X802843Y840431D01*
X802843Y842839D02*
X812833Y842839D01*
X812833Y845247D02*
X802843Y845247D01*
X1003249Y959281D02*
X1013239Y959281D01*
X1013239Y950291D01*
X1003249Y950291D01*
X1003249Y959281D01*
X1003249Y952699D02*
X1013239Y952699D01*
X1013239Y955107D02*
X1003249Y955107D01*
X1003249Y957515D02*
X1013239Y957515D01*
X996239Y959281D02*
X986249Y959281D01*
X996239Y959281D02*
X996239Y950291D01*
X986249Y950291D01*
X986249Y959281D01*
X986249Y952699D02*
X996239Y952699D01*
X996239Y955107D02*
X986249Y955107D01*
X986249Y957515D02*
X996239Y957515D01*
X999795Y834213D02*
X989805Y834213D01*
X989805Y843203D01*
X999795Y843203D01*
X999795Y834213D01*
X999795Y836621D02*
X989805Y836621D01*
X989805Y839029D02*
X999795Y839029D01*
X999795Y841437D02*
X989805Y841437D01*
X1006805Y834213D02*
X1016795Y834213D01*
X1006805Y834213D02*
X1006805Y843203D01*
X1016795Y843203D01*
X1016795Y834213D01*
X1016795Y836621D02*
X1006805Y836621D01*
X1006805Y839029D02*
X1016795Y839029D01*
X1016795Y841437D02*
X1006805Y841437D01*
X1000049Y851231D02*
X990059Y851231D01*
X990059Y860221D01*
X1000049Y860221D01*
X1000049Y851231D01*
X1000049Y853639D02*
X990059Y853639D01*
X990059Y856047D02*
X1000049Y856047D01*
X1000049Y858455D02*
X990059Y858455D01*
X1007059Y851231D02*
X1017049Y851231D01*
X1007059Y851231D02*
X1007059Y860221D01*
X1017049Y860221D01*
X1017049Y851231D01*
X1017049Y853639D02*
X1007059Y853639D01*
X1007059Y856047D02*
X1017049Y856047D01*
X1017049Y858455D02*
X1007059Y858455D01*
D13*
X1026735Y870695D02*
X1026735Y881785D01*
X1026735Y870695D02*
X1007645Y870695D01*
X1007645Y881785D01*
X1026735Y881785D01*
X1026735Y873007D02*
X1007645Y873007D01*
X1007645Y875319D02*
X1026735Y875319D01*
X1026735Y877631D02*
X1007645Y877631D01*
X1007645Y879943D02*
X1026735Y879943D01*
X1026735Y926695D02*
X1026735Y937785D01*
X1026735Y926695D02*
X1007645Y926695D01*
X1007645Y937785D01*
X1026735Y937785D01*
X1026735Y929007D02*
X1007645Y929007D01*
X1007645Y931319D02*
X1026735Y931319D01*
X1026735Y933631D02*
X1007645Y933631D01*
X1007645Y935943D02*
X1026735Y935943D01*
D14*
X986673Y891723D02*
X986673Y886757D01*
X974207Y886757D01*
X974207Y891723D01*
X986673Y891723D01*
X986673Y889187D02*
X974207Y889187D01*
X974207Y891617D02*
X986673Y891617D01*
X986673Y896757D02*
X986673Y901723D01*
X986673Y896757D02*
X974207Y896757D01*
X974207Y901723D01*
X986673Y901723D01*
X986673Y899187D02*
X974207Y899187D01*
X974207Y901617D02*
X986673Y901617D01*
X986673Y906757D02*
X986673Y911723D01*
X986673Y906757D02*
X974207Y906757D01*
X974207Y911723D01*
X986673Y911723D01*
X986673Y909187D02*
X974207Y909187D01*
X974207Y911617D02*
X986673Y911617D01*
X986673Y916757D02*
X986673Y921723D01*
X986673Y916757D02*
X974207Y916757D01*
X974207Y921723D01*
X986673Y921723D01*
X986673Y919187D02*
X974207Y919187D01*
X974207Y921617D02*
X986673Y921617D01*
D15*
X1005840Y1005840D03*
X802640Y1005840D03*
X802640Y802640D03*
X1005840Y802640D03*
D16*
X784352Y784352D03*
X1023874Y1022858D03*
D17*
X904240Y902240D03*
X908240Y902240D03*
X908240Y906240D03*
X904240Y906240D03*
X900240Y906240D03*
X900240Y902240D03*
D12*
X967740Y789940D03*
D10*
X1002995Y974013D02*
X1012985Y974013D01*
X1012985Y965023D01*
X1002995Y965023D01*
X1002995Y974013D01*
X1002995Y967431D02*
X1012985Y967431D01*
X1012985Y969839D02*
X1002995Y969839D01*
X1002995Y972247D02*
X1012985Y972247D01*
X995985Y974013D02*
X985995Y974013D01*
X995985Y974013D02*
X995985Y965023D01*
X985995Y965023D01*
X985995Y974013D01*
X985995Y967431D02*
X995985Y967431D01*
X995985Y969839D02*
X985995Y969839D01*
X985995Y972247D02*
X995985Y972247D01*
X1152601Y868603D02*
X1162591Y868603D01*
X1162591Y859613D01*
X1152601Y859613D01*
X1152601Y868603D01*
X1152601Y862021D02*
X1162591Y862021D01*
X1162591Y864429D02*
X1152601Y864429D01*
X1152601Y866837D02*
X1162591Y866837D01*
X1145591Y868603D02*
X1135601Y868603D01*
X1145591Y868603D02*
X1145591Y859613D01*
X1135601Y859613D01*
X1135601Y868603D01*
X1135601Y862021D02*
X1145591Y862021D01*
X1145591Y864429D02*
X1135601Y864429D01*
X1135601Y866837D02*
X1145591Y866837D01*
D11*
X1054179Y860511D02*
X1054179Y853481D01*
X1047149Y853481D01*
X1047149Y860511D01*
X1054179Y860511D01*
X1054179Y857750D02*
X1047149Y857750D01*
X1071719Y860511D02*
X1071719Y853481D01*
X1064689Y853481D01*
X1064689Y860511D01*
X1071719Y860511D01*
X1071719Y857750D02*
X1064689Y857750D01*
D12*
X1099820Y789940D03*
X1125220Y789940D03*
X1150620Y789940D03*
X1176020Y789940D03*
D13*
X1040825Y926695D02*
X1040825Y937785D01*
X1059915Y937785D01*
X1059915Y926695D01*
X1040825Y926695D01*
X1040825Y929007D02*
X1059915Y929007D01*
X1059915Y931319D02*
X1040825Y931319D01*
X1040825Y933631D02*
X1059915Y933631D01*
X1059915Y935943D02*
X1040825Y935943D01*
X1040825Y881785D02*
X1040825Y870695D01*
X1040825Y881785D02*
X1059915Y881785D01*
X1059915Y870695D01*
X1040825Y870695D01*
X1040825Y873007D02*
X1059915Y873007D01*
X1059915Y875319D02*
X1040825Y875319D01*
X1040825Y877631D02*
X1059915Y877631D01*
X1059915Y879943D02*
X1040825Y879943D01*
D14*
X1080887Y916757D02*
X1080887Y921723D01*
X1093353Y921723D01*
X1093353Y916757D01*
X1080887Y916757D01*
X1080887Y919187D02*
X1093353Y919187D01*
X1093353Y921617D02*
X1080887Y921617D01*
X1080887Y911723D02*
X1080887Y906757D01*
X1080887Y911723D02*
X1093353Y911723D01*
X1093353Y906757D01*
X1080887Y906757D01*
X1080887Y909187D02*
X1093353Y909187D01*
X1093353Y911617D02*
X1080887Y911617D01*
X1080887Y901723D02*
X1080887Y896757D01*
X1080887Y901723D02*
X1093353Y901723D01*
X1093353Y896757D01*
X1080887Y896757D01*
X1080887Y899187D02*
X1093353Y899187D01*
X1093353Y901617D02*
X1080887Y901617D01*
X1080887Y891723D02*
X1080887Y886757D01*
X1080887Y891723D02*
X1093353Y891723D01*
X1093353Y886757D01*
X1080887Y886757D01*
X1080887Y889187D02*
X1093353Y889187D01*
X1093353Y891617D02*
X1080887Y891617D01*
D12*
X1201420Y789940D03*
D10*
X1054913Y838023D02*
X1044923Y838023D01*
X1044923Y847013D01*
X1054913Y847013D01*
X1054913Y838023D01*
X1054913Y840431D02*
X1044923Y840431D01*
X1044923Y842839D02*
X1054913Y842839D01*
X1054913Y845247D02*
X1044923Y845247D01*
X1061923Y838023D02*
X1071913Y838023D01*
X1061923Y838023D02*
X1061923Y847013D01*
X1071913Y847013D01*
X1071913Y838023D01*
X1071913Y840431D02*
X1061923Y840431D01*
X1061923Y842839D02*
X1071913Y842839D01*
X1071913Y845247D02*
X1061923Y845247D01*
X1262329Y959281D02*
X1272319Y959281D01*
X1272319Y950291D01*
X1262329Y950291D01*
X1262329Y959281D01*
X1262329Y952699D02*
X1272319Y952699D01*
X1272319Y955107D02*
X1262329Y955107D01*
X1262329Y957515D02*
X1272319Y957515D01*
X1255319Y959281D02*
X1245329Y959281D01*
X1255319Y959281D02*
X1255319Y950291D01*
X1245329Y950291D01*
X1245329Y959281D01*
X1245329Y952699D02*
X1255319Y952699D01*
X1255319Y955107D02*
X1245329Y955107D01*
X1245329Y957515D02*
X1255319Y957515D01*
X1258875Y834213D02*
X1248885Y834213D01*
X1248885Y843203D01*
X1258875Y843203D01*
X1258875Y834213D01*
X1258875Y836621D02*
X1248885Y836621D01*
X1248885Y839029D02*
X1258875Y839029D01*
X1258875Y841437D02*
X1248885Y841437D01*
X1265885Y834213D02*
X1275875Y834213D01*
X1265885Y834213D02*
X1265885Y843203D01*
X1275875Y843203D01*
X1275875Y834213D01*
X1275875Y836621D02*
X1265885Y836621D01*
X1265885Y839029D02*
X1275875Y839029D01*
X1275875Y841437D02*
X1265885Y841437D01*
X1259129Y851231D02*
X1249139Y851231D01*
X1249139Y860221D01*
X1259129Y860221D01*
X1259129Y851231D01*
X1259129Y853639D02*
X1249139Y853639D01*
X1249139Y856047D02*
X1259129Y856047D01*
X1259129Y858455D02*
X1249139Y858455D01*
X1266139Y851231D02*
X1276129Y851231D01*
X1266139Y851231D02*
X1266139Y860221D01*
X1276129Y860221D01*
X1276129Y851231D01*
X1276129Y853639D02*
X1266139Y853639D01*
X1266139Y856047D02*
X1276129Y856047D01*
X1276129Y858455D02*
X1266139Y858455D01*
D13*
X1285815Y870695D02*
X1285815Y881785D01*
X1285815Y870695D02*
X1266725Y870695D01*
X1266725Y881785D01*
X1285815Y881785D01*
X1285815Y873007D02*
X1266725Y873007D01*
X1266725Y875319D02*
X1285815Y875319D01*
X1285815Y877631D02*
X1266725Y877631D01*
X1266725Y879943D02*
X1285815Y879943D01*
X1285815Y926695D02*
X1285815Y937785D01*
X1285815Y926695D02*
X1266725Y926695D01*
X1266725Y937785D01*
X1285815Y937785D01*
X1285815Y929007D02*
X1266725Y929007D01*
X1266725Y931319D02*
X1285815Y931319D01*
X1285815Y933631D02*
X1266725Y933631D01*
X1266725Y935943D02*
X1285815Y935943D01*
D14*
X1245753Y891723D02*
X1245753Y886757D01*
X1233287Y886757D01*
X1233287Y891723D01*
X1245753Y891723D01*
X1245753Y889187D02*
X1233287Y889187D01*
X1233287Y891617D02*
X1245753Y891617D01*
X1245753Y896757D02*
X1245753Y901723D01*
X1245753Y896757D02*
X1233287Y896757D01*
X1233287Y901723D01*
X1245753Y901723D01*
X1245753Y899187D02*
X1233287Y899187D01*
X1233287Y901617D02*
X1245753Y901617D01*
X1245753Y906757D02*
X1245753Y911723D01*
X1245753Y906757D02*
X1233287Y906757D01*
X1233287Y911723D01*
X1245753Y911723D01*
X1245753Y909187D02*
X1233287Y909187D01*
X1233287Y911617D02*
X1245753Y911617D01*
X1245753Y916757D02*
X1245753Y921723D01*
X1245753Y916757D02*
X1233287Y916757D01*
X1233287Y921723D01*
X1245753Y921723D01*
X1245753Y919187D02*
X1233287Y919187D01*
X1233287Y921617D02*
X1245753Y921617D01*
D15*
X1264920Y1005840D03*
X1061720Y1005840D03*
X1061720Y802640D03*
X1264920Y802640D03*
D16*
X1043432Y784352D03*
X1282954Y1022858D03*
D17*
X1163320Y902240D03*
X1167320Y902240D03*
X1167320Y906240D03*
X1163320Y906240D03*
X1159320Y906240D03*
X1159320Y902240D03*
D12*
X1226820Y789940D03*
D10*
X1262075Y974013D02*
X1272065Y974013D01*
X1272065Y965023D01*
X1262075Y965023D01*
X1262075Y974013D01*
X1262075Y967431D02*
X1272065Y967431D01*
X1272065Y969839D02*
X1262075Y969839D01*
X1262075Y972247D02*
X1272065Y972247D01*
X1255065Y974013D02*
X1245075Y974013D01*
X1255065Y974013D02*
X1255065Y965023D01*
X1245075Y965023D01*
X1245075Y974013D01*
X1245075Y967431D02*
X1255065Y967431D01*
X1255065Y969839D02*
X1245075Y969839D01*
X1245075Y972247D02*
X1255065Y972247D01*
X1411681Y868603D02*
X1421671Y868603D01*
X1421671Y859613D01*
X1411681Y859613D01*
X1411681Y868603D01*
X1411681Y862021D02*
X1421671Y862021D01*
X1421671Y864429D02*
X1411681Y864429D01*
X1411681Y866837D02*
X1421671Y866837D01*
X1404671Y868603D02*
X1394681Y868603D01*
X1404671Y868603D02*
X1404671Y859613D01*
X1394681Y859613D01*
X1394681Y868603D01*
X1394681Y862021D02*
X1404671Y862021D01*
X1404671Y864429D02*
X1394681Y864429D01*
X1394681Y866837D02*
X1404671Y866837D01*
D11*
X1313259Y860511D02*
X1313259Y853481D01*
X1306229Y853481D01*
X1306229Y860511D01*
X1313259Y860511D01*
X1313259Y857750D02*
X1306229Y857750D01*
X1330799Y860511D02*
X1330799Y853481D01*
X1323769Y853481D01*
X1323769Y860511D01*
X1330799Y860511D01*
X1330799Y857750D02*
X1323769Y857750D01*
D12*
X1358900Y789940D03*
X1384300Y789940D03*
X1409700Y789940D03*
X1435100Y789940D03*
D13*
X1299905Y926695D02*
X1299905Y937785D01*
X1318995Y937785D01*
X1318995Y926695D01*
X1299905Y926695D01*
X1299905Y929007D02*
X1318995Y929007D01*
X1318995Y931319D02*
X1299905Y931319D01*
X1299905Y933631D02*
X1318995Y933631D01*
X1318995Y935943D02*
X1299905Y935943D01*
X1299905Y881785D02*
X1299905Y870695D01*
X1299905Y881785D02*
X1318995Y881785D01*
X1318995Y870695D01*
X1299905Y870695D01*
X1299905Y873007D02*
X1318995Y873007D01*
X1318995Y875319D02*
X1299905Y875319D01*
X1299905Y877631D02*
X1318995Y877631D01*
X1318995Y879943D02*
X1299905Y879943D01*
D14*
X1339967Y916757D02*
X1339967Y921723D01*
X1352433Y921723D01*
X1352433Y916757D01*
X1339967Y916757D01*
X1339967Y919187D02*
X1352433Y919187D01*
X1352433Y921617D02*
X1339967Y921617D01*
X1339967Y911723D02*
X1339967Y906757D01*
X1339967Y911723D02*
X1352433Y911723D01*
X1352433Y906757D01*
X1339967Y906757D01*
X1339967Y909187D02*
X1352433Y909187D01*
X1352433Y911617D02*
X1339967Y911617D01*
X1339967Y901723D02*
X1339967Y896757D01*
X1339967Y901723D02*
X1352433Y901723D01*
X1352433Y896757D01*
X1339967Y896757D01*
X1339967Y899187D02*
X1352433Y899187D01*
X1352433Y901617D02*
X1339967Y901617D01*
X1339967Y891723D02*
X1339967Y886757D01*
X1339967Y891723D02*
X1352433Y891723D01*
X1352433Y886757D01*
X1339967Y886757D01*
X1339967Y889187D02*
X1352433Y889187D01*
X1352433Y891617D02*
X1339967Y891617D01*
D12*
X1460500Y789940D03*
D10*
X1313993Y838023D02*
X1304003Y838023D01*
X1304003Y847013D01*
X1313993Y847013D01*
X1313993Y838023D01*
X1313993Y840431D02*
X1304003Y840431D01*
X1304003Y842839D02*
X1313993Y842839D01*
X1313993Y845247D02*
X1304003Y845247D01*
X1321003Y838023D02*
X1330993Y838023D01*
X1321003Y838023D02*
X1321003Y847013D01*
X1330993Y847013D01*
X1330993Y838023D01*
X1330993Y840431D02*
X1321003Y840431D01*
X1321003Y842839D02*
X1330993Y842839D01*
X1330993Y845247D02*
X1321003Y845247D01*
X1521409Y959281D02*
X1531399Y959281D01*
X1531399Y950291D01*
X1521409Y950291D01*
X1521409Y959281D01*
X1521409Y952699D02*
X1531399Y952699D01*
X1531399Y955107D02*
X1521409Y955107D01*
X1521409Y957515D02*
X1531399Y957515D01*
X1514399Y959281D02*
X1504409Y959281D01*
X1514399Y959281D02*
X1514399Y950291D01*
X1504409Y950291D01*
X1504409Y959281D01*
X1504409Y952699D02*
X1514399Y952699D01*
X1514399Y955107D02*
X1504409Y955107D01*
X1504409Y957515D02*
X1514399Y957515D01*
X1517955Y834213D02*
X1507965Y834213D01*
X1507965Y843203D01*
X1517955Y843203D01*
X1517955Y834213D01*
X1517955Y836621D02*
X1507965Y836621D01*
X1507965Y839029D02*
X1517955Y839029D01*
X1517955Y841437D02*
X1507965Y841437D01*
X1524965Y834213D02*
X1534955Y834213D01*
X1524965Y834213D02*
X1524965Y843203D01*
X1534955Y843203D01*
X1534955Y834213D01*
X1534955Y836621D02*
X1524965Y836621D01*
X1524965Y839029D02*
X1534955Y839029D01*
X1534955Y841437D02*
X1524965Y841437D01*
X1518209Y851231D02*
X1508219Y851231D01*
X1508219Y860221D01*
X1518209Y860221D01*
X1518209Y851231D01*
X1518209Y853639D02*
X1508219Y853639D01*
X1508219Y856047D02*
X1518209Y856047D01*
X1518209Y858455D02*
X1508219Y858455D01*
X1525219Y851231D02*
X1535209Y851231D01*
X1525219Y851231D02*
X1525219Y860221D01*
X1535209Y860221D01*
X1535209Y851231D01*
X1535209Y853639D02*
X1525219Y853639D01*
X1525219Y856047D02*
X1535209Y856047D01*
X1535209Y858455D02*
X1525219Y858455D01*
D13*
X1544895Y870695D02*
X1544895Y881785D01*
X1544895Y870695D02*
X1525805Y870695D01*
X1525805Y881785D01*
X1544895Y881785D01*
X1544895Y873007D02*
X1525805Y873007D01*
X1525805Y875319D02*
X1544895Y875319D01*
X1544895Y877631D02*
X1525805Y877631D01*
X1525805Y879943D02*
X1544895Y879943D01*
X1544895Y926695D02*
X1544895Y937785D01*
X1544895Y926695D02*
X1525805Y926695D01*
X1525805Y937785D01*
X1544895Y937785D01*
X1544895Y929007D02*
X1525805Y929007D01*
X1525805Y931319D02*
X1544895Y931319D01*
X1544895Y933631D02*
X1525805Y933631D01*
X1525805Y935943D02*
X1544895Y935943D01*
D14*
X1504833Y891723D02*
X1504833Y886757D01*
X1492367Y886757D01*
X1492367Y891723D01*
X1504833Y891723D01*
X1504833Y889187D02*
X1492367Y889187D01*
X1492367Y891617D02*
X1504833Y891617D01*
X1504833Y896757D02*
X1504833Y901723D01*
X1504833Y896757D02*
X1492367Y896757D01*
X1492367Y901723D01*
X1504833Y901723D01*
X1504833Y899187D02*
X1492367Y899187D01*
X1492367Y901617D02*
X1504833Y901617D01*
X1504833Y906757D02*
X1504833Y911723D01*
X1504833Y906757D02*
X1492367Y906757D01*
X1492367Y911723D01*
X1504833Y911723D01*
X1504833Y909187D02*
X1492367Y909187D01*
X1492367Y911617D02*
X1504833Y911617D01*
X1504833Y916757D02*
X1504833Y921723D01*
X1504833Y916757D02*
X1492367Y916757D01*
X1492367Y921723D01*
X1504833Y921723D01*
X1504833Y919187D02*
X1492367Y919187D01*
X1492367Y921617D02*
X1504833Y921617D01*
D15*
X1524000Y1005840D03*
X1320800Y1005840D03*
X1320800Y802640D03*
X1524000Y802640D03*
D16*
X1302512Y784352D03*
X1542034Y1022858D03*
D17*
X1422400Y902240D03*
X1426400Y902240D03*
X1426400Y906240D03*
X1422400Y906240D03*
X1418400Y906240D03*
X1418400Y902240D03*
D12*
X1485900Y789940D03*
D10*
X1521155Y974013D02*
X1531145Y974013D01*
X1531145Y965023D01*
X1521155Y965023D01*
X1521155Y974013D01*
X1521155Y967431D02*
X1531145Y967431D01*
X1531145Y969839D02*
X1521155Y969839D01*
X1521155Y972247D02*
X1531145Y972247D01*
X1514145Y974013D02*
X1504155Y974013D01*
X1514145Y974013D02*
X1514145Y965023D01*
X1504155Y965023D01*
X1504155Y974013D01*
X1504155Y967431D02*
X1514145Y967431D01*
X1514145Y969839D02*
X1504155Y969839D01*
X1504155Y972247D02*
X1514145Y972247D01*
D18*
X68580Y1052195D03*
X1480185Y1052195D03*
D19*
X59525Y-20955D02*
X59528Y-20733D01*
X59536Y-20511D01*
X59550Y-20289D01*
X59569Y-20067D01*
X59593Y-19847D01*
X59623Y-19626D01*
X59658Y-19407D01*
X59699Y-19188D01*
X59745Y-18971D01*
X59796Y-18755D01*
X59853Y-18540D01*
X59915Y-18326D01*
X59982Y-18115D01*
X60054Y-17904D01*
X60132Y-17696D01*
X60214Y-17490D01*
X60302Y-17286D01*
X60394Y-17083D01*
X60492Y-16884D01*
X60594Y-16687D01*
X60701Y-16492D01*
X60813Y-16300D01*
X60930Y-16111D01*
X61051Y-15924D01*
X61177Y-15741D01*
X61307Y-15561D01*
X61442Y-15384D01*
X61580Y-15211D01*
X61723Y-15041D01*
X61871Y-14874D01*
X62022Y-14711D01*
X62177Y-14552D01*
X62336Y-14397D01*
X62499Y-14246D01*
X62666Y-14098D01*
X62836Y-13955D01*
X63009Y-13817D01*
X63186Y-13682D01*
X63366Y-13552D01*
X63549Y-13426D01*
X63736Y-13305D01*
X63925Y-13188D01*
X64117Y-13076D01*
X64312Y-12969D01*
X64509Y-12867D01*
X64708Y-12769D01*
X64911Y-12677D01*
X65115Y-12589D01*
X65321Y-12507D01*
X65529Y-12429D01*
X65740Y-12357D01*
X65951Y-12290D01*
X66165Y-12228D01*
X66380Y-12171D01*
X66596Y-12120D01*
X66813Y-12074D01*
X67032Y-12033D01*
X67251Y-11998D01*
X67472Y-11968D01*
X67692Y-11944D01*
X67914Y-11925D01*
X68136Y-11911D01*
X68358Y-11903D01*
X68580Y-11900D01*
X68802Y-11903D01*
X69024Y-11911D01*
X69246Y-11925D01*
X69468Y-11944D01*
X69688Y-11968D01*
X69909Y-11998D01*
X70128Y-12033D01*
X70347Y-12074D01*
X70564Y-12120D01*
X70780Y-12171D01*
X70995Y-12228D01*
X71209Y-12290D01*
X71420Y-12357D01*
X71631Y-12429D01*
X71839Y-12507D01*
X72045Y-12589D01*
X72249Y-12677D01*
X72452Y-12769D01*
X72651Y-12867D01*
X72848Y-12969D01*
X73043Y-13076D01*
X73235Y-13188D01*
X73424Y-13305D01*
X73611Y-13426D01*
X73794Y-13552D01*
X73974Y-13682D01*
X74151Y-13817D01*
X74324Y-13955D01*
X74494Y-14098D01*
X74661Y-14246D01*
X74824Y-14397D01*
X74983Y-14552D01*
X75138Y-14711D01*
X75289Y-14874D01*
X75437Y-15041D01*
X75580Y-15211D01*
X75718Y-15384D01*
X75853Y-15561D01*
X75983Y-15741D01*
X76109Y-15924D01*
X76230Y-16111D01*
X76347Y-16300D01*
X76459Y-16492D01*
X76566Y-16687D01*
X76668Y-16884D01*
X76766Y-17083D01*
X76858Y-17286D01*
X76946Y-17490D01*
X77028Y-17696D01*
X77106Y-17904D01*
X77178Y-18115D01*
X77245Y-18326D01*
X77307Y-18540D01*
X77364Y-18755D01*
X77415Y-18971D01*
X77461Y-19188D01*
X77502Y-19407D01*
X77537Y-19626D01*
X77567Y-19847D01*
X77591Y-20067D01*
X77610Y-20289D01*
X77624Y-20511D01*
X77632Y-20733D01*
X77635Y-20955D01*
X77632Y-21177D01*
X77624Y-21399D01*
X77610Y-21621D01*
X77591Y-21843D01*
X77567Y-22063D01*
X77537Y-22284D01*
X77502Y-22503D01*
X77461Y-22722D01*
X77415Y-22939D01*
X77364Y-23155D01*
X77307Y-23370D01*
X77245Y-23584D01*
X77178Y-23795D01*
X77106Y-24006D01*
X77028Y-24214D01*
X76946Y-24420D01*
X76858Y-24624D01*
X76766Y-24827D01*
X76668Y-25026D01*
X76566Y-25223D01*
X76459Y-25418D01*
X76347Y-25610D01*
X76230Y-25799D01*
X76109Y-25986D01*
X75983Y-26169D01*
X75853Y-26349D01*
X75718Y-26526D01*
X75580Y-26699D01*
X75437Y-26869D01*
X75289Y-27036D01*
X75138Y-27199D01*
X74983Y-27358D01*
X74824Y-27513D01*
X74661Y-27664D01*
X74494Y-27812D01*
X74324Y-27955D01*
X74151Y-28093D01*
X73974Y-28228D01*
X73794Y-28358D01*
X73611Y-28484D01*
X73424Y-28605D01*
X73235Y-28722D01*
X73043Y-28834D01*
X72848Y-28941D01*
X72651Y-29043D01*
X72452Y-29141D01*
X72249Y-29233D01*
X72045Y-29321D01*
X71839Y-29403D01*
X71631Y-29481D01*
X71420Y-29553D01*
X71209Y-29620D01*
X70995Y-29682D01*
X70780Y-29739D01*
X70564Y-29790D01*
X70347Y-29836D01*
X70128Y-29877D01*
X69909Y-29912D01*
X69688Y-29942D01*
X69468Y-29966D01*
X69246Y-29985D01*
X69024Y-29999D01*
X68802Y-30007D01*
X68580Y-30010D01*
X68358Y-30007D01*
X68136Y-29999D01*
X67914Y-29985D01*
X67692Y-29966D01*
X67472Y-29942D01*
X67251Y-29912D01*
X67032Y-29877D01*
X66813Y-29836D01*
X66596Y-29790D01*
X66380Y-29739D01*
X66165Y-29682D01*
X65951Y-29620D01*
X65740Y-29553D01*
X65529Y-29481D01*
X65321Y-29403D01*
X65115Y-29321D01*
X64911Y-29233D01*
X64708Y-29141D01*
X64509Y-29043D01*
X64312Y-28941D01*
X64117Y-28834D01*
X63925Y-28722D01*
X63736Y-28605D01*
X63549Y-28484D01*
X63366Y-28358D01*
X63186Y-28228D01*
X63009Y-28093D01*
X62836Y-27955D01*
X62666Y-27812D01*
X62499Y-27664D01*
X62336Y-27513D01*
X62177Y-27358D01*
X62022Y-27199D01*
X61871Y-27036D01*
X61723Y-26869D01*
X61580Y-26699D01*
X61442Y-26526D01*
X61307Y-26349D01*
X61177Y-26169D01*
X61051Y-25986D01*
X60930Y-25799D01*
X60813Y-25610D01*
X60701Y-25418D01*
X60594Y-25223D01*
X60492Y-25026D01*
X60394Y-24827D01*
X60302Y-24624D01*
X60214Y-24420D01*
X60132Y-24214D01*
X60054Y-24006D01*
X59982Y-23795D01*
X59915Y-23584D01*
X59853Y-23370D01*
X59796Y-23155D01*
X59745Y-22939D01*
X59699Y-22722D01*
X59658Y-22503D01*
X59623Y-22284D01*
X59593Y-22063D01*
X59569Y-21843D01*
X59550Y-21621D01*
X59536Y-21399D01*
X59528Y-21177D01*
X59525Y-20955D01*
D20*
X68580Y-20955D03*
M02*
