%
T1C.00984F0S0
X042087Y042874
X041535Y042894
X039665Y043268
X041693Y043386
X040157Y043445
X039705Y043819
X042087Y043898
X041693Y044311
X042087Y044567
X041043Y044705
X039685Y044783
X041555Y044783
X040157Y044823
X042126Y045079
X041043Y045236
X041732Y045236
X039685Y045748
X041654Y046339
X040453Y046378
X039685Y046398
X041358Y046594
X040748Y046594
X040748Y04687
X041673Y047165
X040669Y047362
X039685Y047382
X041043Y047638
X040846Y048051
X041634Y048189
X041752Y048819
X041181Y048858
X042028Y049075
X041791Y049272
X041181Y049331
X039705Y04937
X041614Y049646
X040177Y049665
X041713Y05
X040925Y050197
X041634Y050394
X039705Y050413
X041634Y050768
X04187Y050984
X04124Y051319
X039705Y051772
X041634Y051791
X039705Y05315
X041634Y053307
X042146Y053661
X04063Y053701
X042146Y05435
X039705Y054528
X039705Y055886
X039705Y056378
X040453Y056398
X04185Y056398
X042185Y055591
X043703Y055433
X042815Y055157
X043012Y054587
X043681Y054469
X043543Y054232
X043681Y053976
X042717Y053858
X043406Y053051
X043996Y052913
X043799Y052717
X044587Y052461
X043307Y052224
X043681Y052087
X043543Y051732
X043248Y051732
X042815Y051654
X043622Y051457
X043248Y051398
X042539Y050787
X044094Y05061
X044488Y05061
X043406Y049823
X042815Y049823
X044114Y049823
X042205Y049783
X042264Y049272
X042736Y049272
X042205Y048819
X04435Y047539
X044094Y047264
X04435Y047087
X043268Y047087
X042185Y046594
X043839Y046575
X042756Y046555
X043563Y046181
X04248Y046142
X043563Y045492
X042461Y045413
X043209Y045374
X042815Y045217
X042815Y044843
X04376Y044823
X04439Y044291
X042933Y043169
X043819Y041201
X044094Y040768
X044449Y040768
X044449Y040433
X044094Y040413
X042992Y040197
X044626Y040177
X043819Y040157
X045748Y039685
X045256Y039685
X045512Y039685
X045512Y039921
X045512Y040138
X045512Y040354
X044882Y044311
X045492Y044823
X044783Y044823
X046398Y044823
X045866Y045571
X044783Y045984
X045866Y046024
X045768Y046752
X044803Y047126
X044764Y04748
X04498Y048091
X046358Y048622
X046555Y048622
X04685Y049547
X04685Y049764
X046654Y049764
X044783Y049902
X046634Y050571
X046161Y05063
X045236Y050787
X04687Y050965
X045965Y051398
X045039Y051437
X046161Y051969
X046063Y052559
X045177Y052559
X04685Y053012
X047047Y053031
X044764Y053976
X044744Y055709
X044685Y056398
X049606Y056398
X049606Y05561
X049606Y054921
X049606Y054232
X049606Y053543
X048031Y053051
X048327Y053051
X0475Y053031
X047264Y053031
X048327Y052756
X04752Y052461
X048327Y052461
X048524Y052067
X047343Y050591
X04752Y047343
X047539Y045571
X04813Y044094
X051831Y039705
X050531Y039705
X05128Y040059
X051929Y040472
X051673Y040472
X051673Y042323
X051673Y042815
X049902Y05
X049902Y051181
X049902Y051969
X049902Y055217
X05Y056004
X050492Y056398
X051772Y056398
X053051Y056398
X054331Y056398
X054035Y056004
X054134Y053839
X054528Y052953
X054134Y052165
X054134Y050591
X054331Y04872
X053642Y04872
X054331Y048031
X053642Y048031
X054331Y047343
X053642Y047343
X054331Y046654
X053642Y046654
X054134Y043898
X053346Y043898
X053346Y04311
X054134Y04311
X053346Y042323
X054134Y042323
X054626Y042323
X053701Y040492
X053425Y040472
X053051Y040059
X052362Y040059
X054173Y039705
X05313Y039685
X056319Y039705
X056319Y041811
X055709Y042323
X056398Y042913
X056398Y043602
X056398Y044291
X056398Y045079
X056398Y045768
X055709Y046358
X054823Y046358
X056398Y046949
X056299Y047933
X056398Y04872
X055512Y049114
X056398Y049902
X055512Y049902
X055906Y050591
X056398Y051083
X056398Y052165
X055807Y052953
X056398Y053346
X055118Y053642
X056102Y053937
X056398Y054528
X056398Y055709
X056398Y056299
X055512Y056398
T2C.01575F095S3
X04626Y047441
X046654Y047441
X046654Y047835
X04626Y047835
X045965Y053642
X046358Y053642
X047146Y053642
X046752Y053642
X047146Y054035
X046752Y054035
X048819Y052657
X049311Y052657
X048031Y052362
X049311Y052165
X048031Y051772
X049311Y051673
X048031Y051181
X049311Y051181
X049311Y050492
X04872Y050492
X048819Y049213
X049213Y049213
X049606Y049213
X049213Y046949
X048819Y046949
X049213Y046555
X048819Y046555
X049606Y042224
X04813Y042224
X049114Y042224
X048622Y042224
X04813Y041634
X049114Y040748
X048622Y040748
X04813Y040748
X049606Y040748
X049606Y040256
X04813Y040256
X048622Y040256
X049114Y040256
T3C.02165F197S55
X043947Y056004
X043455Y056004
X042963Y056004
X04247Y056004
T4C.025F197S55
X052743Y047263
X052743Y048113
X053618Y049638
X054468Y049638
X055193Y048063
X055193Y047213
T5C.0315F197S55
X040354Y050689
X040354Y051476
X040354Y052264
X040354Y053051
T6C.03937F197S55
X043406Y040748
X043406Y041732
X043406Y042717
X043406Y043701
X048819Y055315
X048819Y054134
X045079Y042717
X045079Y041732
X045079Y040748
X050984Y040748
X052657Y040748
X050984Y041732
X052657Y041732
X050984Y042717
X052657Y042717
X052657Y043701
X050787Y054134
X050787Y055315
T7C.04331F139S55
X040157Y047925
X040157Y048925
X046949Y055012
X046949Y056012
X055315Y044587
X055315Y043209
T8C.05512F107S55
X053051Y051575
X055217Y051575
T9C.15748F035S9
X040945Y040945
X040945Y055118
X055118Y055118
X055118Y040945
M30
