%TF.GenerationSoftware,KiCad,Pcbnew,9.0.5*%
%TF.CreationDate,2025-10-21T20:43:03-06:00*%
%TF.ProjectId,SparkFun_Qwiic_GNSS_SAM-M8Q_panelized,53706172-6b46-4756-9e5f-51776969635f,v10*%
%TF.SameCoordinates,Original*%
%TF.FileFunction,Soldermask,Top*%
%TF.FilePolarity,Negative*%
%FSLAX46Y46*%
G04 Gerber Fmt 4.6, Leading zero omitted, Abs format (unit mm)*
G04 Created by KiCad (PCBNEW 9.0.5) date 2025-10-21 20:43:03*
%MOMM*%
%LPD*%
G01*
G04 APERTURE LIST*
G04 Aperture macros list*
%AMRoundRect*
0 Rectangle with rounded corners*
0 $1 Rounding radius*
0 $2 $3 $4 $5 $6 $7 $8 $9 X,Y pos of 4 corners*
0 Add a 4 corners polygon primitive as box body*
4,1,4,$2,$3,$4,$5,$6,$7,$8,$9,$2,$3,0*
0 Add four circle primitives for the rounded corners*
1,1,$1+$1,$2,$3*
1,1,$1+$1,$4,$5*
1,1,$1+$1,$6,$7*
1,1,$1+$1,$8,$9*
0 Add four rect primitives between the rounded corners*
20,1,$1+$1,$2,$3,$4,$5,0*
20,1,$1+$1,$4,$5,$6,$7,0*
20,1,$1+$1,$6,$7,$8,$9,0*
20,1,$1+$1,$8,$9,$2,$3,0*%
G04 Aperture macros list end*
%ADD10C,0.000000*%
%ADD11C,3.000000*%
%ADD12RoundRect,0.558000X-0.000010X-0.000010X0.000010X-0.000010X0.000010X0.000010X-0.000010X0.000010X0*%
%ADD13C,1.979600*%
%ADD14RoundRect,0.250000X0.250000X0.275000X-0.250000X0.275000X-0.250000X-0.275000X0.250000X-0.275000X0*%
%ADD15RoundRect,0.250000X-0.275000X0.250000X-0.275000X-0.250000X0.275000X-0.250000X0.275000X0.250000X0*%
%ADD16C,3.200000*%
%ADD17RoundRect,0.050000X0.415000X-0.315000X0.415000X0.315000X-0.415000X0.315000X-0.415000X-0.315000X0*%
%ADD18RoundRect,0.050000X-0.600000X0.275000X-0.600000X-0.275000X0.600000X-0.275000X0.600000X0.275000X0*%
%ADD19RoundRect,0.225000X0.300000X-0.225000X0.300000X0.225000X-0.300000X0.225000X-0.300000X-0.225000X0*%
%ADD20RoundRect,0.225000X0.225000X0.300000X-0.225000X0.300000X-0.225000X-0.300000X0.225000X-0.300000X0*%
%ADD21RoundRect,0.225000X-0.300000X0.225000X-0.300000X-0.225000X0.300000X-0.225000X0.300000X0.225000X0*%
%ADD22RoundRect,0.165000X0.165000X0.195000X-0.165000X0.195000X-0.165000X-0.195000X0.165000X-0.195000X0*%
%ADD23RoundRect,0.050000X-0.350000X0.150000X-0.350000X-0.150000X0.350000X-0.150000X0.350000X0.150000X0*%
%ADD24RoundRect,0.050000X-0.675000X0.300000X-0.675000X-0.300000X0.675000X-0.300000X0.675000X0.300000X0*%
%ADD25RoundRect,0.050000X-1.000000X0.600000X-1.000000X-0.600000X1.000000X-0.600000X1.000000X0.600000X0*%
%ADD26C,0.750000*%
%ADD27RoundRect,0.050000X-0.150000X-0.500000X0.150000X-0.500000X0.150000X0.500000X-0.150000X0.500000X0*%
%ADD28RoundRect,0.050000X0.150000X0.500000X-0.150000X0.500000X-0.150000X-0.500000X0.150000X-0.500000X0*%
%ADD29RoundRect,0.050000X-0.300000X-0.500000X0.300000X-0.500000X0.300000X0.500000X-0.300000X0.500000X0*%
%ADD30RoundRect,0.050000X0.300000X0.500000X-0.300000X0.500000X-0.300000X-0.500000X0.300000X-0.500000X0*%
%ADD31O,1.100000X1.700000*%
%ADD32O,1.100000X2.200000*%
%ADD33C,0.600000*%
%ADD34RoundRect,0.050000X0.675000X-0.300000X0.675000X0.300000X-0.675000X0.300000X-0.675000X-0.300000X0*%
%ADD35RoundRect,0.050000X1.000000X-0.600000X1.000000X0.600000X-1.000000X0.600000X-1.000000X-0.600000X0*%
%ADD36C,2.400000*%
%ADD37RoundRect,0.050000X-0.750000X-0.800000X0.750000X-0.800000X0.750000X0.800000X-0.750000X0.800000X0*%
%ADD38RoundRect,0.243750X-0.243750X-0.281250X0.243750X-0.281250X0.243750X0.281250X-0.243750X0.281250X0*%
%ADD39RoundRect,0.250000X0.275000X-0.250000X0.275000X0.250000X-0.275000X0.250000X-0.275000X-0.250000X0*%
G04 APERTURE END LIST*
D10*
%TO.C,U4*%
G36*
X63000000Y133735500D02*
G01*
X61900000Y133735500D01*
X61900000Y134135500D01*
X63000000Y134135500D01*
X63000000Y133735500D01*
G37*
G36*
X63000000Y133235500D02*
G01*
X61900000Y133235500D01*
X61900000Y133635500D01*
X63000000Y133635500D01*
X63000000Y133235500D01*
G37*
G36*
X63000000Y132735500D02*
G01*
X61900000Y132735500D01*
X61900000Y133135500D01*
X63000000Y133135500D01*
X63000000Y132735500D01*
G37*
G36*
X63000000Y132235500D02*
G01*
X61900000Y132235500D01*
X61900000Y132635500D01*
X63000000Y132635500D01*
X63000000Y132235500D01*
G37*
G36*
X63000000Y131735500D02*
G01*
X61900000Y131735500D01*
X61900000Y132135500D01*
X63000000Y132135500D01*
X63000000Y131735500D01*
G37*
G36*
X67100000Y133735500D02*
G01*
X66000000Y133735500D01*
X66000000Y134135500D01*
X67100000Y134135500D01*
X67100000Y133735500D01*
G37*
G36*
X67100000Y133235500D02*
G01*
X66000000Y133235500D01*
X66000000Y133635500D01*
X67100000Y133635500D01*
X67100000Y133235500D01*
G37*
G36*
X67100000Y132735500D02*
G01*
X66000000Y132735500D01*
X66000000Y133135500D01*
X67100000Y133135500D01*
X67100000Y132735500D01*
G37*
G36*
X67100000Y132235500D02*
G01*
X66000000Y132235500D01*
X66000000Y132635500D01*
X67100000Y132635500D01*
X67100000Y132235500D01*
G37*
G36*
X67100000Y131735500D02*
G01*
X66000000Y131735500D01*
X66000000Y132135500D01*
X67100000Y132135500D01*
X67100000Y131735500D01*
G37*
G36*
X63000000Y104787500D02*
G01*
X61900000Y104787500D01*
X61900000Y105187500D01*
X63000000Y105187500D01*
X63000000Y104787500D01*
G37*
G36*
X63000000Y104287500D02*
G01*
X61900000Y104287500D01*
X61900000Y104687500D01*
X63000000Y104687500D01*
X63000000Y104287500D01*
G37*
G36*
X63000000Y103787500D02*
G01*
X61900000Y103787500D01*
X61900000Y104187500D01*
X63000000Y104187500D01*
X63000000Y103787500D01*
G37*
G36*
X63000000Y103287500D02*
G01*
X61900000Y103287500D01*
X61900000Y103687500D01*
X63000000Y103687500D01*
X63000000Y103287500D01*
G37*
G36*
X63000000Y102787500D02*
G01*
X61900000Y102787500D01*
X61900000Y103187500D01*
X63000000Y103187500D01*
X63000000Y102787500D01*
G37*
G36*
X67100000Y104787500D02*
G01*
X66000000Y104787500D01*
X66000000Y105187500D01*
X67100000Y105187500D01*
X67100000Y104787500D01*
G37*
G36*
X67100000Y104287500D02*
G01*
X66000000Y104287500D01*
X66000000Y104687500D01*
X67100000Y104687500D01*
X67100000Y104287500D01*
G37*
G36*
X67100000Y103787500D02*
G01*
X66000000Y103787500D01*
X66000000Y104187500D01*
X67100000Y104187500D01*
X67100000Y103787500D01*
G37*
G36*
X67100000Y103287500D02*
G01*
X66000000Y103287500D01*
X66000000Y103687500D01*
X67100000Y103687500D01*
X67100000Y103287500D01*
G37*
G36*
X67100000Y102787500D02*
G01*
X66000000Y102787500D01*
X66000000Y103187500D01*
X67100000Y103187500D01*
X67100000Y102787500D01*
G37*
G36*
X63000000Y75839500D02*
G01*
X61900000Y75839500D01*
X61900000Y76239500D01*
X63000000Y76239500D01*
X63000000Y75839500D01*
G37*
G36*
X63000000Y75339500D02*
G01*
X61900000Y75339500D01*
X61900000Y75739500D01*
X63000000Y75739500D01*
X63000000Y75339500D01*
G37*
G36*
X63000000Y74839500D02*
G01*
X61900000Y74839500D01*
X61900000Y75239500D01*
X63000000Y75239500D01*
X63000000Y74839500D01*
G37*
G36*
X63000000Y74339500D02*
G01*
X61900000Y74339500D01*
X61900000Y74739500D01*
X63000000Y74739500D01*
X63000000Y74339500D01*
G37*
G36*
X63000000Y73839500D02*
G01*
X61900000Y73839500D01*
X61900000Y74239500D01*
X63000000Y74239500D01*
X63000000Y73839500D01*
G37*
G36*
X67100000Y75839500D02*
G01*
X66000000Y75839500D01*
X66000000Y76239500D01*
X67100000Y76239500D01*
X67100000Y75839500D01*
G37*
G36*
X67100000Y75339500D02*
G01*
X66000000Y75339500D01*
X66000000Y75739500D01*
X67100000Y75739500D01*
X67100000Y75339500D01*
G37*
G36*
X67100000Y74839500D02*
G01*
X66000000Y74839500D01*
X66000000Y75239500D01*
X67100000Y75239500D01*
X67100000Y74839500D01*
G37*
G36*
X67100000Y74339500D02*
G01*
X66000000Y74339500D01*
X66000000Y74739500D01*
X67100000Y74739500D01*
X67100000Y74339500D01*
G37*
G36*
X67100000Y73839500D02*
G01*
X66000000Y73839500D01*
X66000000Y74239500D01*
X67100000Y74239500D01*
X67100000Y73839500D01*
G37*
G36*
X63000000Y46891500D02*
G01*
X61900000Y46891500D01*
X61900000Y47291500D01*
X63000000Y47291500D01*
X63000000Y46891500D01*
G37*
G36*
X63000000Y46391500D02*
G01*
X61900000Y46391500D01*
X61900000Y46791500D01*
X63000000Y46791500D01*
X63000000Y46391500D01*
G37*
G36*
X63000000Y45891500D02*
G01*
X61900000Y45891500D01*
X61900000Y46291500D01*
X63000000Y46291500D01*
X63000000Y45891500D01*
G37*
G36*
X63000000Y45391500D02*
G01*
X61900000Y45391500D01*
X61900000Y45791500D01*
X63000000Y45791500D01*
X63000000Y45391500D01*
G37*
G36*
X63000000Y44891500D02*
G01*
X61900000Y44891500D01*
X61900000Y45291500D01*
X63000000Y45291500D01*
X63000000Y44891500D01*
G37*
G36*
X67100000Y46891500D02*
G01*
X66000000Y46891500D01*
X66000000Y47291500D01*
X67100000Y47291500D01*
X67100000Y46891500D01*
G37*
G36*
X67100000Y46391500D02*
G01*
X66000000Y46391500D01*
X66000000Y46791500D01*
X67100000Y46791500D01*
X67100000Y46391500D01*
G37*
G36*
X67100000Y45891500D02*
G01*
X66000000Y45891500D01*
X66000000Y46291500D01*
X67100000Y46291500D01*
X67100000Y45891500D01*
G37*
G36*
X67100000Y45391500D02*
G01*
X66000000Y45391500D01*
X66000000Y45791500D01*
X67100000Y45791500D01*
X67100000Y45391500D01*
G37*
G36*
X67100000Y44891500D02*
G01*
X66000000Y44891500D01*
X66000000Y45291500D01*
X67100000Y45291500D01*
X67100000Y44891500D01*
G37*
G36*
X63000000Y17943500D02*
G01*
X61900000Y17943500D01*
X61900000Y18343500D01*
X63000000Y18343500D01*
X63000000Y17943500D01*
G37*
G36*
X63000000Y17443500D02*
G01*
X61900000Y17443500D01*
X61900000Y17843500D01*
X63000000Y17843500D01*
X63000000Y17443500D01*
G37*
G36*
X63000000Y16943500D02*
G01*
X61900000Y16943500D01*
X61900000Y17343500D01*
X63000000Y17343500D01*
X63000000Y16943500D01*
G37*
G36*
X63000000Y16443500D02*
G01*
X61900000Y16443500D01*
X61900000Y16843500D01*
X63000000Y16843500D01*
X63000000Y16443500D01*
G37*
G36*
X63000000Y15943500D02*
G01*
X61900000Y15943500D01*
X61900000Y16343500D01*
X63000000Y16343500D01*
X63000000Y15943500D01*
G37*
G36*
X67100000Y17943500D02*
G01*
X66000000Y17943500D01*
X66000000Y18343500D01*
X67100000Y18343500D01*
X67100000Y17943500D01*
G37*
G36*
X67100000Y17443500D02*
G01*
X66000000Y17443500D01*
X66000000Y17843500D01*
X67100000Y17843500D01*
X67100000Y17443500D01*
G37*
G36*
X67100000Y16943500D02*
G01*
X66000000Y16943500D01*
X66000000Y17343500D01*
X67100000Y17343500D01*
X67100000Y16943500D01*
G37*
G36*
X67100000Y16443500D02*
G01*
X66000000Y16443500D01*
X66000000Y16843500D01*
X67100000Y16843500D01*
X67100000Y16443500D01*
G37*
G36*
X67100000Y15943500D02*
G01*
X66000000Y15943500D01*
X66000000Y16343500D01*
X67100000Y16343500D01*
X67100000Y15943500D01*
G37*
G36*
X37100000Y133735500D02*
G01*
X36000000Y133735500D01*
X36000000Y134135500D01*
X37100000Y134135500D01*
X37100000Y133735500D01*
G37*
G36*
X37100000Y133235500D02*
G01*
X36000000Y133235500D01*
X36000000Y133635500D01*
X37100000Y133635500D01*
X37100000Y133235500D01*
G37*
G36*
X37100000Y132735500D02*
G01*
X36000000Y132735500D01*
X36000000Y133135500D01*
X37100000Y133135500D01*
X37100000Y132735500D01*
G37*
G36*
X37100000Y132235500D02*
G01*
X36000000Y132235500D01*
X36000000Y132635500D01*
X37100000Y132635500D01*
X37100000Y132235500D01*
G37*
G36*
X37100000Y131735500D02*
G01*
X36000000Y131735500D01*
X36000000Y132135500D01*
X37100000Y132135500D01*
X37100000Y131735500D01*
G37*
G36*
X41200000Y133735500D02*
G01*
X40100000Y133735500D01*
X40100000Y134135500D01*
X41200000Y134135500D01*
X41200000Y133735500D01*
G37*
G36*
X41200000Y133235500D02*
G01*
X40100000Y133235500D01*
X40100000Y133635500D01*
X41200000Y133635500D01*
X41200000Y133235500D01*
G37*
G36*
X41200000Y132735500D02*
G01*
X40100000Y132735500D01*
X40100000Y133135500D01*
X41200000Y133135500D01*
X41200000Y132735500D01*
G37*
G36*
X41200000Y132235500D02*
G01*
X40100000Y132235500D01*
X40100000Y132635500D01*
X41200000Y132635500D01*
X41200000Y132235500D01*
G37*
G36*
X41200000Y131735500D02*
G01*
X40100000Y131735500D01*
X40100000Y132135500D01*
X41200000Y132135500D01*
X41200000Y131735500D01*
G37*
G36*
X37100000Y104787500D02*
G01*
X36000000Y104787500D01*
X36000000Y105187500D01*
X37100000Y105187500D01*
X37100000Y104787500D01*
G37*
G36*
X37100000Y104287500D02*
G01*
X36000000Y104287500D01*
X36000000Y104687500D01*
X37100000Y104687500D01*
X37100000Y104287500D01*
G37*
G36*
X37100000Y103787500D02*
G01*
X36000000Y103787500D01*
X36000000Y104187500D01*
X37100000Y104187500D01*
X37100000Y103787500D01*
G37*
G36*
X37100000Y103287500D02*
G01*
X36000000Y103287500D01*
X36000000Y103687500D01*
X37100000Y103687500D01*
X37100000Y103287500D01*
G37*
G36*
X37100000Y102787500D02*
G01*
X36000000Y102787500D01*
X36000000Y103187500D01*
X37100000Y103187500D01*
X37100000Y102787500D01*
G37*
G36*
X41200000Y104787500D02*
G01*
X40100000Y104787500D01*
X40100000Y105187500D01*
X41200000Y105187500D01*
X41200000Y104787500D01*
G37*
G36*
X41200000Y104287500D02*
G01*
X40100000Y104287500D01*
X40100000Y104687500D01*
X41200000Y104687500D01*
X41200000Y104287500D01*
G37*
G36*
X41200000Y103787500D02*
G01*
X40100000Y103787500D01*
X40100000Y104187500D01*
X41200000Y104187500D01*
X41200000Y103787500D01*
G37*
G36*
X41200000Y103287500D02*
G01*
X40100000Y103287500D01*
X40100000Y103687500D01*
X41200000Y103687500D01*
X41200000Y103287500D01*
G37*
G36*
X41200000Y102787500D02*
G01*
X40100000Y102787500D01*
X40100000Y103187500D01*
X41200000Y103187500D01*
X41200000Y102787500D01*
G37*
G36*
X37100000Y75839500D02*
G01*
X36000000Y75839500D01*
X36000000Y76239500D01*
X37100000Y76239500D01*
X37100000Y75839500D01*
G37*
G36*
X37100000Y75339500D02*
G01*
X36000000Y75339500D01*
X36000000Y75739500D01*
X37100000Y75739500D01*
X37100000Y75339500D01*
G37*
G36*
X37100000Y74839500D02*
G01*
X36000000Y74839500D01*
X36000000Y75239500D01*
X37100000Y75239500D01*
X37100000Y74839500D01*
G37*
G36*
X37100000Y74339500D02*
G01*
X36000000Y74339500D01*
X36000000Y74739500D01*
X37100000Y74739500D01*
X37100000Y74339500D01*
G37*
G36*
X37100000Y73839500D02*
G01*
X36000000Y73839500D01*
X36000000Y74239500D01*
X37100000Y74239500D01*
X37100000Y73839500D01*
G37*
G36*
X41200000Y75839500D02*
G01*
X40100000Y75839500D01*
X40100000Y76239500D01*
X41200000Y76239500D01*
X41200000Y75839500D01*
G37*
G36*
X41200000Y75339500D02*
G01*
X40100000Y75339500D01*
X40100000Y75739500D01*
X41200000Y75739500D01*
X41200000Y75339500D01*
G37*
G36*
X41200000Y74839500D02*
G01*
X40100000Y74839500D01*
X40100000Y75239500D01*
X41200000Y75239500D01*
X41200000Y74839500D01*
G37*
G36*
X41200000Y74339500D02*
G01*
X40100000Y74339500D01*
X40100000Y74739500D01*
X41200000Y74739500D01*
X41200000Y74339500D01*
G37*
G36*
X41200000Y73839500D02*
G01*
X40100000Y73839500D01*
X40100000Y74239500D01*
X41200000Y74239500D01*
X41200000Y73839500D01*
G37*
G36*
X37100000Y46891500D02*
G01*
X36000000Y46891500D01*
X36000000Y47291500D01*
X37100000Y47291500D01*
X37100000Y46891500D01*
G37*
G36*
X37100000Y46391500D02*
G01*
X36000000Y46391500D01*
X36000000Y46791500D01*
X37100000Y46791500D01*
X37100000Y46391500D01*
G37*
G36*
X37100000Y45891500D02*
G01*
X36000000Y45891500D01*
X36000000Y46291500D01*
X37100000Y46291500D01*
X37100000Y45891500D01*
G37*
G36*
X37100000Y45391500D02*
G01*
X36000000Y45391500D01*
X36000000Y45791500D01*
X37100000Y45791500D01*
X37100000Y45391500D01*
G37*
G36*
X37100000Y44891500D02*
G01*
X36000000Y44891500D01*
X36000000Y45291500D01*
X37100000Y45291500D01*
X37100000Y44891500D01*
G37*
G36*
X41200000Y46891500D02*
G01*
X40100000Y46891500D01*
X40100000Y47291500D01*
X41200000Y47291500D01*
X41200000Y46891500D01*
G37*
G36*
X41200000Y46391500D02*
G01*
X40100000Y46391500D01*
X40100000Y46791500D01*
X41200000Y46791500D01*
X41200000Y46391500D01*
G37*
G36*
X41200000Y45891500D02*
G01*
X40100000Y45891500D01*
X40100000Y46291500D01*
X41200000Y46291500D01*
X41200000Y45891500D01*
G37*
G36*
X41200000Y45391500D02*
G01*
X40100000Y45391500D01*
X40100000Y45791500D01*
X41200000Y45791500D01*
X41200000Y45391500D01*
G37*
G36*
X41200000Y44891500D02*
G01*
X40100000Y44891500D01*
X40100000Y45291500D01*
X41200000Y45291500D01*
X41200000Y44891500D01*
G37*
G36*
X37100000Y17943500D02*
G01*
X36000000Y17943500D01*
X36000000Y18343500D01*
X37100000Y18343500D01*
X37100000Y17943500D01*
G37*
G36*
X37100000Y17443500D02*
G01*
X36000000Y17443500D01*
X36000000Y17843500D01*
X37100000Y17843500D01*
X37100000Y17443500D01*
G37*
G36*
X37100000Y16943500D02*
G01*
X36000000Y16943500D01*
X36000000Y17343500D01*
X37100000Y17343500D01*
X37100000Y16943500D01*
G37*
G36*
X37100000Y16443500D02*
G01*
X36000000Y16443500D01*
X36000000Y16843500D01*
X37100000Y16843500D01*
X37100000Y16443500D01*
G37*
G36*
X37100000Y15943500D02*
G01*
X36000000Y15943500D01*
X36000000Y16343500D01*
X37100000Y16343500D01*
X37100000Y15943500D01*
G37*
G36*
X41200000Y17943500D02*
G01*
X40100000Y17943500D01*
X40100000Y18343500D01*
X41200000Y18343500D01*
X41200000Y17943500D01*
G37*
G36*
X41200000Y17443500D02*
G01*
X40100000Y17443500D01*
X40100000Y17843500D01*
X41200000Y17843500D01*
X41200000Y17443500D01*
G37*
G36*
X41200000Y16943500D02*
G01*
X40100000Y16943500D01*
X40100000Y17343500D01*
X41200000Y17343500D01*
X41200000Y16943500D01*
G37*
G36*
X41200000Y16443500D02*
G01*
X40100000Y16443500D01*
X40100000Y16843500D01*
X41200000Y16843500D01*
X41200000Y16443500D01*
G37*
G36*
X41200000Y15943500D02*
G01*
X40100000Y15943500D01*
X40100000Y16343500D01*
X41200000Y16343500D01*
X41200000Y15943500D01*
G37*
G36*
X11200000Y133735500D02*
G01*
X10100000Y133735500D01*
X10100000Y134135500D01*
X11200000Y134135500D01*
X11200000Y133735500D01*
G37*
G36*
X11200000Y133235500D02*
G01*
X10100000Y133235500D01*
X10100000Y133635500D01*
X11200000Y133635500D01*
X11200000Y133235500D01*
G37*
G36*
X11200000Y132735500D02*
G01*
X10100000Y132735500D01*
X10100000Y133135500D01*
X11200000Y133135500D01*
X11200000Y132735500D01*
G37*
G36*
X11200000Y132235500D02*
G01*
X10100000Y132235500D01*
X10100000Y132635500D01*
X11200000Y132635500D01*
X11200000Y132235500D01*
G37*
G36*
X11200000Y131735500D02*
G01*
X10100000Y131735500D01*
X10100000Y132135500D01*
X11200000Y132135500D01*
X11200000Y131735500D01*
G37*
G36*
X15300000Y133735500D02*
G01*
X14200000Y133735500D01*
X14200000Y134135500D01*
X15300000Y134135500D01*
X15300000Y133735500D01*
G37*
G36*
X15300000Y133235500D02*
G01*
X14200000Y133235500D01*
X14200000Y133635500D01*
X15300000Y133635500D01*
X15300000Y133235500D01*
G37*
G36*
X15300000Y132735500D02*
G01*
X14200000Y132735500D01*
X14200000Y133135500D01*
X15300000Y133135500D01*
X15300000Y132735500D01*
G37*
G36*
X15300000Y132235500D02*
G01*
X14200000Y132235500D01*
X14200000Y132635500D01*
X15300000Y132635500D01*
X15300000Y132235500D01*
G37*
G36*
X15300000Y131735500D02*
G01*
X14200000Y131735500D01*
X14200000Y132135500D01*
X15300000Y132135500D01*
X15300000Y131735500D01*
G37*
G36*
X11200000Y104787500D02*
G01*
X10100000Y104787500D01*
X10100000Y105187500D01*
X11200000Y105187500D01*
X11200000Y104787500D01*
G37*
G36*
X11200000Y104287500D02*
G01*
X10100000Y104287500D01*
X10100000Y104687500D01*
X11200000Y104687500D01*
X11200000Y104287500D01*
G37*
G36*
X11200000Y103787500D02*
G01*
X10100000Y103787500D01*
X10100000Y104187500D01*
X11200000Y104187500D01*
X11200000Y103787500D01*
G37*
G36*
X11200000Y103287500D02*
G01*
X10100000Y103287500D01*
X10100000Y103687500D01*
X11200000Y103687500D01*
X11200000Y103287500D01*
G37*
G36*
X11200000Y102787500D02*
G01*
X10100000Y102787500D01*
X10100000Y103187500D01*
X11200000Y103187500D01*
X11200000Y102787500D01*
G37*
G36*
X15300000Y104787500D02*
G01*
X14200000Y104787500D01*
X14200000Y105187500D01*
X15300000Y105187500D01*
X15300000Y104787500D01*
G37*
G36*
X15300000Y104287500D02*
G01*
X14200000Y104287500D01*
X14200000Y104687500D01*
X15300000Y104687500D01*
X15300000Y104287500D01*
G37*
G36*
X15300000Y103787500D02*
G01*
X14200000Y103787500D01*
X14200000Y104187500D01*
X15300000Y104187500D01*
X15300000Y103787500D01*
G37*
G36*
X15300000Y103287500D02*
G01*
X14200000Y103287500D01*
X14200000Y103687500D01*
X15300000Y103687500D01*
X15300000Y103287500D01*
G37*
G36*
X15300000Y102787500D02*
G01*
X14200000Y102787500D01*
X14200000Y103187500D01*
X15300000Y103187500D01*
X15300000Y102787500D01*
G37*
G36*
X11200000Y75839500D02*
G01*
X10100000Y75839500D01*
X10100000Y76239500D01*
X11200000Y76239500D01*
X11200000Y75839500D01*
G37*
G36*
X11200000Y75339500D02*
G01*
X10100000Y75339500D01*
X10100000Y75739500D01*
X11200000Y75739500D01*
X11200000Y75339500D01*
G37*
G36*
X11200000Y74839500D02*
G01*
X10100000Y74839500D01*
X10100000Y75239500D01*
X11200000Y75239500D01*
X11200000Y74839500D01*
G37*
G36*
X11200000Y74339500D02*
G01*
X10100000Y74339500D01*
X10100000Y74739500D01*
X11200000Y74739500D01*
X11200000Y74339500D01*
G37*
G36*
X11200000Y73839500D02*
G01*
X10100000Y73839500D01*
X10100000Y74239500D01*
X11200000Y74239500D01*
X11200000Y73839500D01*
G37*
G36*
X15300000Y75839500D02*
G01*
X14200000Y75839500D01*
X14200000Y76239500D01*
X15300000Y76239500D01*
X15300000Y75839500D01*
G37*
G36*
X15300000Y75339500D02*
G01*
X14200000Y75339500D01*
X14200000Y75739500D01*
X15300000Y75739500D01*
X15300000Y75339500D01*
G37*
G36*
X15300000Y74839500D02*
G01*
X14200000Y74839500D01*
X14200000Y75239500D01*
X15300000Y75239500D01*
X15300000Y74839500D01*
G37*
G36*
X15300000Y74339500D02*
G01*
X14200000Y74339500D01*
X14200000Y74739500D01*
X15300000Y74739500D01*
X15300000Y74339500D01*
G37*
G36*
X15300000Y73839500D02*
G01*
X14200000Y73839500D01*
X14200000Y74239500D01*
X15300000Y74239500D01*
X15300000Y73839500D01*
G37*
G36*
X11200000Y46891500D02*
G01*
X10100000Y46891500D01*
X10100000Y47291500D01*
X11200000Y47291500D01*
X11200000Y46891500D01*
G37*
G36*
X11200000Y46391500D02*
G01*
X10100000Y46391500D01*
X10100000Y46791500D01*
X11200000Y46791500D01*
X11200000Y46391500D01*
G37*
G36*
X11200000Y45891500D02*
G01*
X10100000Y45891500D01*
X10100000Y46291500D01*
X11200000Y46291500D01*
X11200000Y45891500D01*
G37*
G36*
X11200000Y45391500D02*
G01*
X10100000Y45391500D01*
X10100000Y45791500D01*
X11200000Y45791500D01*
X11200000Y45391500D01*
G37*
G36*
X11200000Y44891500D02*
G01*
X10100000Y44891500D01*
X10100000Y45291500D01*
X11200000Y45291500D01*
X11200000Y44891500D01*
G37*
G36*
X15300000Y46891500D02*
G01*
X14200000Y46891500D01*
X14200000Y47291500D01*
X15300000Y47291500D01*
X15300000Y46891500D01*
G37*
G36*
X15300000Y46391500D02*
G01*
X14200000Y46391500D01*
X14200000Y46791500D01*
X15300000Y46791500D01*
X15300000Y46391500D01*
G37*
G36*
X15300000Y45891500D02*
G01*
X14200000Y45891500D01*
X14200000Y46291500D01*
X15300000Y46291500D01*
X15300000Y45891500D01*
G37*
G36*
X15300000Y45391500D02*
G01*
X14200000Y45391500D01*
X14200000Y45791500D01*
X15300000Y45791500D01*
X15300000Y45391500D01*
G37*
G36*
X15300000Y44891500D02*
G01*
X14200000Y44891500D01*
X14200000Y45291500D01*
X15300000Y45291500D01*
X15300000Y44891500D01*
G37*
%TO.C,BT1*%
G36*
X61795000Y128711645D02*
G01*
X61795000Y131197000D01*
X64280355Y131197000D01*
X61795000Y128711645D01*
G37*
G36*
X67200000Y126992000D02*
G01*
X65500000Y126992000D01*
X65500000Y131192000D01*
X67200000Y131192000D01*
X67200000Y126992000D01*
G37*
G36*
X61795000Y99763645D02*
G01*
X61795000Y102249000D01*
X64280355Y102249000D01*
X61795000Y99763645D01*
G37*
G36*
X67200000Y98044000D02*
G01*
X65500000Y98044000D01*
X65500000Y102244000D01*
X67200000Y102244000D01*
X67200000Y98044000D01*
G37*
G36*
X61795000Y70815645D02*
G01*
X61795000Y73301000D01*
X64280355Y73301000D01*
X61795000Y70815645D01*
G37*
G36*
X67200000Y69096000D02*
G01*
X65500000Y69096000D01*
X65500000Y73296000D01*
X67200000Y73296000D01*
X67200000Y69096000D01*
G37*
G36*
X61795000Y41867645D02*
G01*
X61795000Y44353000D01*
X64280355Y44353000D01*
X61795000Y41867645D01*
G37*
G36*
X67200000Y40148000D02*
G01*
X65500000Y40148000D01*
X65500000Y44348000D01*
X67200000Y44348000D01*
X67200000Y40148000D01*
G37*
G36*
X61795000Y12919645D02*
G01*
X61795000Y15405000D01*
X64280355Y15405000D01*
X61795000Y12919645D01*
G37*
G36*
X67200000Y11200000D02*
G01*
X65500000Y11200000D01*
X65500000Y15400000D01*
X67200000Y15400000D01*
X67200000Y11200000D01*
G37*
G36*
X35895000Y128711645D02*
G01*
X35895000Y131197000D01*
X38380355Y131197000D01*
X35895000Y128711645D01*
G37*
G36*
X41300000Y126992000D02*
G01*
X39600000Y126992000D01*
X39600000Y131192000D01*
X41300000Y131192000D01*
X41300000Y126992000D01*
G37*
G36*
X35895000Y99763645D02*
G01*
X35895000Y102249000D01*
X38380355Y102249000D01*
X35895000Y99763645D01*
G37*
G36*
X41300000Y98044000D02*
G01*
X39600000Y98044000D01*
X39600000Y102244000D01*
X41300000Y102244000D01*
X41300000Y98044000D01*
G37*
G36*
X35895000Y70815645D02*
G01*
X35895000Y73301000D01*
X38380355Y73301000D01*
X35895000Y70815645D01*
G37*
G36*
X41300000Y69096000D02*
G01*
X39600000Y69096000D01*
X39600000Y73296000D01*
X41300000Y73296000D01*
X41300000Y69096000D01*
G37*
G36*
X35895000Y41867645D02*
G01*
X35895000Y44353000D01*
X38380355Y44353000D01*
X35895000Y41867645D01*
G37*
G36*
X41300000Y40148000D02*
G01*
X39600000Y40148000D01*
X39600000Y44348000D01*
X41300000Y44348000D01*
X41300000Y40148000D01*
G37*
G36*
X35895000Y12919645D02*
G01*
X35895000Y15405000D01*
X38380355Y15405000D01*
X35895000Y12919645D01*
G37*
G36*
X41300000Y11200000D02*
G01*
X39600000Y11200000D01*
X39600000Y15400000D01*
X41300000Y15400000D01*
X41300000Y11200000D01*
G37*
G36*
X9995000Y128711645D02*
G01*
X9995000Y131197000D01*
X12480355Y131197000D01*
X9995000Y128711645D01*
G37*
G36*
X15400000Y126992000D02*
G01*
X13700000Y126992000D01*
X13700000Y131192000D01*
X15400000Y131192000D01*
X15400000Y126992000D01*
G37*
G36*
X9995000Y99763645D02*
G01*
X9995000Y102249000D01*
X12480355Y102249000D01*
X9995000Y99763645D01*
G37*
G36*
X15400000Y98044000D02*
G01*
X13700000Y98044000D01*
X13700000Y102244000D01*
X15400000Y102244000D01*
X15400000Y98044000D01*
G37*
G36*
X9995000Y70815645D02*
G01*
X9995000Y73301000D01*
X12480355Y73301000D01*
X9995000Y70815645D01*
G37*
G36*
X15400000Y69096000D02*
G01*
X13700000Y69096000D01*
X13700000Y73296000D01*
X15400000Y73296000D01*
X15400000Y69096000D01*
G37*
G36*
X9995000Y41867645D02*
G01*
X9995000Y44353000D01*
X12480355Y44353000D01*
X9995000Y41867645D01*
G37*
G36*
X15400000Y40148000D02*
G01*
X13700000Y40148000D01*
X13700000Y44348000D01*
X15400000Y44348000D01*
X15400000Y40148000D01*
G37*
G36*
X9995000Y12919645D02*
G01*
X9995000Y15405000D01*
X12480355Y15405000D01*
X9995000Y12919645D01*
G37*
G36*
X15400000Y11200000D02*
G01*
X13700000Y11200000D01*
X13700000Y15400000D01*
X15400000Y15400000D01*
X15400000Y11200000D01*
G37*
%TO.C,U4*%
G36*
X11200000Y17943500D02*
G01*
X10100000Y17943500D01*
X10100000Y18343500D01*
X11200000Y18343500D01*
X11200000Y17943500D01*
G37*
G36*
X11200000Y17443500D02*
G01*
X10100000Y17443500D01*
X10100000Y17843500D01*
X11200000Y17843500D01*
X11200000Y17443500D01*
G37*
G36*
X11200000Y16943500D02*
G01*
X10100000Y16943500D01*
X10100000Y17343500D01*
X11200000Y17343500D01*
X11200000Y16943500D01*
G37*
G36*
X11200000Y16443500D02*
G01*
X10100000Y16443500D01*
X10100000Y16843500D01*
X11200000Y16843500D01*
X11200000Y16443500D01*
G37*
G36*
X11200000Y15943500D02*
G01*
X10100000Y15943500D01*
X10100000Y16343500D01*
X11200000Y16343500D01*
X11200000Y15943500D01*
G37*
G36*
X15300000Y17943500D02*
G01*
X14200000Y17943500D01*
X14200000Y18343500D01*
X15300000Y18343500D01*
X15300000Y17943500D01*
G37*
G36*
X15300000Y17443500D02*
G01*
X14200000Y17443500D01*
X14200000Y17843500D01*
X15300000Y17843500D01*
X15300000Y17443500D01*
G37*
G36*
X15300000Y16943500D02*
G01*
X14200000Y16943500D01*
X14200000Y17343500D01*
X15300000Y17343500D01*
X15300000Y16943500D01*
G37*
G36*
X15300000Y16443500D02*
G01*
X14200000Y16443500D01*
X14200000Y16843500D01*
X15300000Y16843500D01*
X15300000Y16443500D01*
G37*
G36*
X15300000Y15943500D02*
G01*
X14200000Y15943500D01*
X14200000Y16343500D01*
X15300000Y16343500D01*
X15300000Y15943500D01*
G37*
%TD*%
D11*
%TO.C,*%
X79287500Y142240000D03*
%TD*%
%TO.C,*%
X-2087500Y142240000D03*
%TD*%
%TO.C,*%
X-2087500Y-1048000D03*
%TD*%
D12*
%TO.C,TP1*%
X60372500Y130714500D03*
%TD*%
%TO.C,TP1*%
X60372500Y101766500D03*
%TD*%
%TO.C,TP1*%
X60372500Y72818500D03*
%TD*%
%TO.C,TP1*%
X60372500Y43870500D03*
%TD*%
%TO.C,TP1*%
X60372500Y14922500D03*
%TD*%
%TO.C,TP1*%
X34472500Y130714500D03*
%TD*%
%TO.C,TP1*%
X34472500Y101766500D03*
%TD*%
%TO.C,TP1*%
X34472500Y72818500D03*
%TD*%
%TO.C,TP1*%
X34472500Y43870500D03*
%TD*%
%TO.C,TP1*%
X34472500Y14922500D03*
%TD*%
%TO.C,TP1*%
X8572500Y130714500D03*
%TD*%
%TO.C,TP1*%
X8572500Y101766500D03*
%TD*%
%TO.C,TP1*%
X8572500Y72818500D03*
%TD*%
%TO.C,TP1*%
X8572500Y43870500D03*
%TD*%
D13*
%TO.C,J7*%
X70850000Y117062000D03*
X68310000Y117062000D03*
X65770000Y117062000D03*
X63230000Y117062000D03*
X60690000Y117062000D03*
X58150000Y117062000D03*
%TD*%
%TO.C,J7*%
X70850000Y88114000D03*
X68310000Y88114000D03*
X65770000Y88114000D03*
X63230000Y88114000D03*
X60690000Y88114000D03*
X58150000Y88114000D03*
%TD*%
%TO.C,J7*%
X70850000Y59166000D03*
X68310000Y59166000D03*
X65770000Y59166000D03*
X63230000Y59166000D03*
X60690000Y59166000D03*
X58150000Y59166000D03*
%TD*%
%TO.C,J7*%
X70850000Y30218000D03*
X68310000Y30218000D03*
X65770000Y30218000D03*
X63230000Y30218000D03*
X60690000Y30218000D03*
X58150000Y30218000D03*
%TD*%
%TO.C,J7*%
X70850000Y1270000D03*
X68310000Y1270000D03*
X65770000Y1270000D03*
X63230000Y1270000D03*
X60690000Y1270000D03*
X58150000Y1270000D03*
%TD*%
%TO.C,J7*%
X44950000Y117062000D03*
X42410000Y117062000D03*
X39870000Y117062000D03*
X37330000Y117062000D03*
X34790000Y117062000D03*
X32250000Y117062000D03*
%TD*%
%TO.C,J7*%
X44950000Y88114000D03*
X42410000Y88114000D03*
X39870000Y88114000D03*
X37330000Y88114000D03*
X34790000Y88114000D03*
X32250000Y88114000D03*
%TD*%
%TO.C,J7*%
X44950000Y59166000D03*
X42410000Y59166000D03*
X39870000Y59166000D03*
X37330000Y59166000D03*
X34790000Y59166000D03*
X32250000Y59166000D03*
%TD*%
%TO.C,J7*%
X44950000Y30218000D03*
X42410000Y30218000D03*
X39870000Y30218000D03*
X37330000Y30218000D03*
X34790000Y30218000D03*
X32250000Y30218000D03*
%TD*%
%TO.C,J7*%
X44950000Y1270000D03*
X42410000Y1270000D03*
X39870000Y1270000D03*
X37330000Y1270000D03*
X34790000Y1270000D03*
X32250000Y1270000D03*
%TD*%
%TO.C,J7*%
X19050000Y117062000D03*
X16510000Y117062000D03*
X13970000Y117062000D03*
X11430000Y117062000D03*
X8890000Y117062000D03*
X6350000Y117062000D03*
%TD*%
%TO.C,J7*%
X19050000Y88114000D03*
X16510000Y88114000D03*
X13970000Y88114000D03*
X11430000Y88114000D03*
X8890000Y88114000D03*
X6350000Y88114000D03*
%TD*%
%TO.C,J7*%
X19050000Y59166000D03*
X16510000Y59166000D03*
X13970000Y59166000D03*
X11430000Y59166000D03*
X8890000Y59166000D03*
X6350000Y59166000D03*
%TD*%
%TO.C,J7*%
X19050000Y30218000D03*
X16510000Y30218000D03*
X13970000Y30218000D03*
X11430000Y30218000D03*
X8890000Y30218000D03*
X6350000Y30218000D03*
%TD*%
D14*
%TO.C,C11*%
X58607500Y132619500D03*
X57057500Y132619500D03*
%TD*%
%TO.C,C11*%
X58607500Y103671500D03*
X57057500Y103671500D03*
%TD*%
%TO.C,C11*%
X58607500Y74723500D03*
X57057500Y74723500D03*
%TD*%
%TO.C,C11*%
X58607500Y45775500D03*
X57057500Y45775500D03*
%TD*%
%TO.C,C11*%
X58607500Y16827500D03*
X57057500Y16827500D03*
%TD*%
%TO.C,C11*%
X32707500Y132619500D03*
X31157500Y132619500D03*
%TD*%
%TO.C,C11*%
X32707500Y103671500D03*
X31157500Y103671500D03*
%TD*%
%TO.C,C11*%
X32707500Y74723500D03*
X31157500Y74723500D03*
%TD*%
%TO.C,C11*%
X32707500Y45775500D03*
X31157500Y45775500D03*
%TD*%
%TO.C,C11*%
X32707500Y16827500D03*
X31157500Y16827500D03*
%TD*%
%TO.C,C11*%
X6807500Y132619500D03*
X5257500Y132619500D03*
%TD*%
%TO.C,C11*%
X6807500Y103671500D03*
X5257500Y103671500D03*
%TD*%
%TO.C,C11*%
X6807500Y74723500D03*
X5257500Y74723500D03*
%TD*%
%TO.C,C11*%
X6807500Y45775500D03*
X5257500Y45775500D03*
%TD*%
D15*
%TO.C,C1*%
X70532500Y134664500D03*
X70532500Y133114500D03*
%TD*%
%TO.C,C1*%
X70532500Y105716500D03*
X70532500Y104166500D03*
%TD*%
%TO.C,C1*%
X70532500Y76768500D03*
X70532500Y75218500D03*
%TD*%
%TO.C,C1*%
X70532500Y47820500D03*
X70532500Y46270500D03*
%TD*%
%TO.C,C1*%
X70532500Y18872500D03*
X70532500Y17322500D03*
%TD*%
%TO.C,C1*%
X44632500Y134664500D03*
X44632500Y133114500D03*
%TD*%
%TO.C,C1*%
X44632500Y105716500D03*
X44632500Y104166500D03*
%TD*%
%TO.C,C1*%
X44632500Y76768500D03*
X44632500Y75218500D03*
%TD*%
%TO.C,C1*%
X44632500Y47820500D03*
X44632500Y46270500D03*
%TD*%
%TO.C,C1*%
X44632500Y18872500D03*
X44632500Y17322500D03*
%TD*%
%TO.C,C1*%
X18732500Y134664500D03*
X18732500Y133114500D03*
%TD*%
%TO.C,C1*%
X18732500Y105716500D03*
X18732500Y104166500D03*
%TD*%
%TO.C,C1*%
X18732500Y76768500D03*
X18732500Y75218500D03*
%TD*%
%TO.C,C1*%
X18732500Y47820500D03*
X18732500Y46270500D03*
%TD*%
D16*
%TO.C,ST1*%
X54340000Y138652000D03*
%TD*%
%TO.C,ST1*%
X54340000Y109704000D03*
%TD*%
%TO.C,ST1*%
X54340000Y80756000D03*
%TD*%
%TO.C,ST1*%
X54340000Y51808000D03*
%TD*%
%TO.C,ST1*%
X54340000Y22860000D03*
%TD*%
%TO.C,ST1*%
X28440000Y138652000D03*
%TD*%
%TO.C,ST1*%
X28440000Y109704000D03*
%TD*%
%TO.C,ST1*%
X28440000Y80756000D03*
%TD*%
%TO.C,ST1*%
X28440000Y51808000D03*
%TD*%
%TO.C,ST1*%
X28440000Y22860000D03*
%TD*%
%TO.C,ST1*%
X2540000Y138652000D03*
%TD*%
%TO.C,ST1*%
X2540000Y109704000D03*
%TD*%
%TO.C,ST1*%
X2540000Y80756000D03*
%TD*%
%TO.C,ST1*%
X2540000Y51808000D03*
%TD*%
%TO.C,ST2*%
X74660000Y138652000D03*
%TD*%
%TO.C,ST2*%
X74660000Y109704000D03*
%TD*%
%TO.C,ST2*%
X74660000Y80756000D03*
%TD*%
%TO.C,ST2*%
X74660000Y51808000D03*
%TD*%
%TO.C,ST2*%
X74660000Y22860000D03*
%TD*%
%TO.C,ST2*%
X48760000Y138652000D03*
%TD*%
%TO.C,ST2*%
X48760000Y109704000D03*
%TD*%
%TO.C,ST2*%
X48760000Y80756000D03*
%TD*%
%TO.C,ST2*%
X48760000Y51808000D03*
%TD*%
%TO.C,ST2*%
X48760000Y22860000D03*
%TD*%
%TO.C,ST2*%
X22860000Y138652000D03*
%TD*%
%TO.C,ST2*%
X22860000Y109704000D03*
%TD*%
%TO.C,ST2*%
X22860000Y80756000D03*
%TD*%
%TO.C,ST2*%
X22860000Y51808000D03*
%TD*%
D17*
%TO.C,D5*%
X60372500Y127342000D03*
X60372500Y129642000D03*
%TD*%
%TO.C,D5*%
X60372500Y98394000D03*
X60372500Y100694000D03*
%TD*%
%TO.C,D5*%
X60372500Y69446000D03*
X60372500Y71746000D03*
%TD*%
%TO.C,D5*%
X60372500Y40498000D03*
X60372500Y42798000D03*
%TD*%
%TO.C,D5*%
X60372500Y11550000D03*
X60372500Y13850000D03*
%TD*%
%TO.C,D5*%
X34472500Y127342000D03*
X34472500Y129642000D03*
%TD*%
%TO.C,D5*%
X34472500Y98394000D03*
X34472500Y100694000D03*
%TD*%
%TO.C,D5*%
X34472500Y69446000D03*
X34472500Y71746000D03*
%TD*%
%TO.C,D5*%
X34472500Y40498000D03*
X34472500Y42798000D03*
%TD*%
%TO.C,D5*%
X34472500Y11550000D03*
X34472500Y13850000D03*
%TD*%
%TO.C,D5*%
X8572500Y127342000D03*
X8572500Y129642000D03*
%TD*%
%TO.C,D5*%
X8572500Y98394000D03*
X8572500Y100694000D03*
%TD*%
%TO.C,D5*%
X8572500Y69446000D03*
X8572500Y71746000D03*
%TD*%
%TO.C,D5*%
X8572500Y40498000D03*
X8572500Y42798000D03*
%TD*%
D18*
%TO.C,U6*%
X72089900Y134839500D03*
X72089900Y133889500D03*
X72089900Y132939500D03*
X74690100Y132939500D03*
X74690100Y134839500D03*
%TD*%
%TO.C,U6*%
X72089900Y105891500D03*
X72089900Y104941500D03*
X72089900Y103991500D03*
X74690100Y103991500D03*
X74690100Y105891500D03*
%TD*%
%TO.C,U6*%
X72089900Y76943500D03*
X72089900Y75993500D03*
X72089900Y75043500D03*
X74690100Y75043500D03*
X74690100Y76943500D03*
%TD*%
%TO.C,U6*%
X72089900Y47995500D03*
X72089900Y47045500D03*
X72089900Y46095500D03*
X74690100Y46095500D03*
X74690100Y47995500D03*
%TD*%
%TO.C,U6*%
X72089900Y19047500D03*
X72089900Y18097500D03*
X72089900Y17147500D03*
X74690100Y17147500D03*
X74690100Y19047500D03*
%TD*%
%TO.C,U6*%
X46189900Y134839500D03*
X46189900Y133889500D03*
X46189900Y132939500D03*
X48790100Y132939500D03*
X48790100Y134839500D03*
%TD*%
%TO.C,U6*%
X46189900Y105891500D03*
X46189900Y104941500D03*
X46189900Y103991500D03*
X48790100Y103991500D03*
X48790100Y105891500D03*
%TD*%
%TO.C,U6*%
X46189900Y76943500D03*
X46189900Y75993500D03*
X46189900Y75043500D03*
X48790100Y75043500D03*
X48790100Y76943500D03*
%TD*%
%TO.C,U6*%
X46189900Y47995500D03*
X46189900Y47045500D03*
X46189900Y46095500D03*
X48790100Y46095500D03*
X48790100Y47995500D03*
%TD*%
%TO.C,U6*%
X46189900Y19047500D03*
X46189900Y18097500D03*
X46189900Y17147500D03*
X48790100Y17147500D03*
X48790100Y19047500D03*
%TD*%
%TO.C,U6*%
X20289900Y134839500D03*
X20289900Y133889500D03*
X20289900Y132939500D03*
X22890100Y132939500D03*
X22890100Y134839500D03*
%TD*%
%TO.C,U6*%
X20289900Y105891500D03*
X20289900Y104941500D03*
X20289900Y103991500D03*
X22890100Y103991500D03*
X22890100Y105891500D03*
%TD*%
%TO.C,U6*%
X20289900Y76943500D03*
X20289900Y75993500D03*
X20289900Y75043500D03*
X22890100Y75043500D03*
X22890100Y76943500D03*
%TD*%
%TO.C,U6*%
X20289900Y47995500D03*
X20289900Y47045500D03*
X20289900Y46095500D03*
X22890100Y46095500D03*
X22890100Y47995500D03*
%TD*%
D19*
%TO.C,R5*%
X70532500Y126079500D03*
X70532500Y127729500D03*
%TD*%
%TO.C,R5*%
X70532500Y97131500D03*
X70532500Y98781500D03*
%TD*%
%TO.C,R5*%
X70532500Y68183500D03*
X70532500Y69833500D03*
%TD*%
%TO.C,R5*%
X70532500Y39235500D03*
X70532500Y40885500D03*
%TD*%
%TO.C,R5*%
X70532500Y10287500D03*
X70532500Y11937500D03*
%TD*%
%TO.C,R5*%
X44632500Y126079500D03*
X44632500Y127729500D03*
%TD*%
%TO.C,R5*%
X44632500Y97131500D03*
X44632500Y98781500D03*
%TD*%
%TO.C,R5*%
X44632500Y68183500D03*
X44632500Y69833500D03*
%TD*%
%TO.C,R5*%
X44632500Y39235500D03*
X44632500Y40885500D03*
%TD*%
%TO.C,R5*%
X44632500Y10287500D03*
X44632500Y11937500D03*
%TD*%
%TO.C,R5*%
X18732500Y126079500D03*
X18732500Y127729500D03*
%TD*%
%TO.C,R5*%
X18732500Y97131500D03*
X18732500Y98781500D03*
%TD*%
%TO.C,R5*%
X18732500Y68183500D03*
X18732500Y69833500D03*
%TD*%
%TO.C,R5*%
X18732500Y39235500D03*
X18732500Y40885500D03*
%TD*%
D15*
%TO.C,C10*%
X76247500Y134664500D03*
X76247500Y133114500D03*
%TD*%
%TO.C,C10*%
X76247500Y105716500D03*
X76247500Y104166500D03*
%TD*%
%TO.C,C10*%
X76247500Y76768500D03*
X76247500Y75218500D03*
%TD*%
%TO.C,C10*%
X76247500Y47820500D03*
X76247500Y46270500D03*
%TD*%
%TO.C,C10*%
X76247500Y18872500D03*
X76247500Y17322500D03*
%TD*%
%TO.C,C10*%
X50347500Y134664500D03*
X50347500Y133114500D03*
%TD*%
%TO.C,C10*%
X50347500Y105716500D03*
X50347500Y104166500D03*
%TD*%
%TO.C,C10*%
X50347500Y76768500D03*
X50347500Y75218500D03*
%TD*%
%TO.C,C10*%
X50347500Y47820500D03*
X50347500Y46270500D03*
%TD*%
%TO.C,C10*%
X50347500Y18872500D03*
X50347500Y17322500D03*
%TD*%
%TO.C,C10*%
X24447500Y134664500D03*
X24447500Y133114500D03*
%TD*%
%TO.C,C10*%
X24447500Y105716500D03*
X24447500Y104166500D03*
%TD*%
%TO.C,C10*%
X24447500Y76768500D03*
X24447500Y75218500D03*
%TD*%
%TO.C,C10*%
X24447500Y47820500D03*
X24447500Y46270500D03*
%TD*%
D19*
%TO.C,R10*%
X70532500Y129254500D03*
X70532500Y130904500D03*
%TD*%
%TO.C,R10*%
X70532500Y100306500D03*
X70532500Y101956500D03*
%TD*%
%TO.C,R10*%
X70532500Y71358500D03*
X70532500Y73008500D03*
%TD*%
%TO.C,R10*%
X70532500Y42410500D03*
X70532500Y44060500D03*
%TD*%
%TO.C,R10*%
X70532500Y13462500D03*
X70532500Y15112500D03*
%TD*%
%TO.C,R10*%
X44632500Y129254500D03*
X44632500Y130904500D03*
%TD*%
%TO.C,R10*%
X44632500Y100306500D03*
X44632500Y101956500D03*
%TD*%
%TO.C,R10*%
X44632500Y71358500D03*
X44632500Y73008500D03*
%TD*%
%TO.C,R10*%
X44632500Y42410500D03*
X44632500Y44060500D03*
%TD*%
%TO.C,R10*%
X44632500Y13462500D03*
X44632500Y15112500D03*
%TD*%
%TO.C,R10*%
X18732500Y129254500D03*
X18732500Y130904500D03*
%TD*%
%TO.C,R10*%
X18732500Y100306500D03*
X18732500Y101956500D03*
%TD*%
%TO.C,R10*%
X18732500Y71358500D03*
X18732500Y73008500D03*
%TD*%
%TO.C,R10*%
X18732500Y42410500D03*
X18732500Y44060500D03*
%TD*%
D20*
%TO.C,R3*%
X55165000Y122459500D03*
X53515000Y122459500D03*
%TD*%
%TO.C,R3*%
X55165000Y93511500D03*
X53515000Y93511500D03*
%TD*%
%TO.C,R3*%
X55165000Y64563500D03*
X53515000Y64563500D03*
%TD*%
%TO.C,R3*%
X55165000Y35615500D03*
X53515000Y35615500D03*
%TD*%
%TO.C,R3*%
X55165000Y6667500D03*
X53515000Y6667500D03*
%TD*%
%TO.C,R3*%
X29265000Y122459500D03*
X27615000Y122459500D03*
%TD*%
%TO.C,R3*%
X29265000Y93511500D03*
X27615000Y93511500D03*
%TD*%
%TO.C,R3*%
X29265000Y64563500D03*
X27615000Y64563500D03*
%TD*%
%TO.C,R3*%
X29265000Y35615500D03*
X27615000Y35615500D03*
%TD*%
%TO.C,R3*%
X29265000Y6667500D03*
X27615000Y6667500D03*
%TD*%
%TO.C,R3*%
X3365000Y122459500D03*
X1715000Y122459500D03*
%TD*%
%TO.C,R3*%
X3365000Y93511500D03*
X1715000Y93511500D03*
%TD*%
%TO.C,R3*%
X3365000Y64563500D03*
X1715000Y64563500D03*
%TD*%
%TO.C,R3*%
X3365000Y35615500D03*
X1715000Y35615500D03*
%TD*%
D21*
%TO.C,R11*%
X68627500Y130904500D03*
X68627500Y129254500D03*
%TD*%
%TO.C,R11*%
X68627500Y101956500D03*
X68627500Y100306500D03*
%TD*%
%TO.C,R11*%
X68627500Y73008500D03*
X68627500Y71358500D03*
%TD*%
%TO.C,R11*%
X68627500Y44060500D03*
X68627500Y42410500D03*
%TD*%
%TO.C,R11*%
X68627500Y15112500D03*
X68627500Y13462500D03*
%TD*%
%TO.C,R11*%
X42727500Y130904500D03*
X42727500Y129254500D03*
%TD*%
%TO.C,R11*%
X42727500Y101956500D03*
X42727500Y100306500D03*
%TD*%
%TO.C,R11*%
X42727500Y73008500D03*
X42727500Y71358500D03*
%TD*%
%TO.C,R11*%
X42727500Y44060500D03*
X42727500Y42410500D03*
%TD*%
%TO.C,R11*%
X42727500Y15112500D03*
X42727500Y13462500D03*
%TD*%
%TO.C,R11*%
X16827500Y130904500D03*
X16827500Y129254500D03*
%TD*%
%TO.C,R11*%
X16827500Y101956500D03*
X16827500Y100306500D03*
%TD*%
%TO.C,R11*%
X16827500Y73008500D03*
X16827500Y71358500D03*
%TD*%
%TO.C,R11*%
X16827500Y44060500D03*
X16827500Y42410500D03*
%TD*%
%TO.C,R4*%
X70532500Y140112000D03*
X70532500Y138462000D03*
%TD*%
%TO.C,R4*%
X70532500Y111164000D03*
X70532500Y109514000D03*
%TD*%
%TO.C,R4*%
X70532500Y82216000D03*
X70532500Y80566000D03*
%TD*%
%TO.C,R4*%
X70532500Y53268000D03*
X70532500Y51618000D03*
%TD*%
%TO.C,R4*%
X70532500Y24320000D03*
X70532500Y22670000D03*
%TD*%
%TO.C,R4*%
X44632500Y140112000D03*
X44632500Y138462000D03*
%TD*%
%TO.C,R4*%
X44632500Y111164000D03*
X44632500Y109514000D03*
%TD*%
%TO.C,R4*%
X44632500Y82216000D03*
X44632500Y80566000D03*
%TD*%
%TO.C,R4*%
X44632500Y53268000D03*
X44632500Y51618000D03*
%TD*%
%TO.C,R4*%
X44632500Y24320000D03*
X44632500Y22670000D03*
%TD*%
%TO.C,R4*%
X18732500Y140112000D03*
X18732500Y138462000D03*
%TD*%
%TO.C,R4*%
X18732500Y111164000D03*
X18732500Y109514000D03*
%TD*%
%TO.C,R4*%
X18732500Y82216000D03*
X18732500Y80566000D03*
%TD*%
%TO.C,R4*%
X18732500Y53268000D03*
X18732500Y51618000D03*
%TD*%
D22*
%TO.C,D3*%
X58312500Y136588250D03*
X57352500Y136588250D03*
%TD*%
%TO.C,D3*%
X58312500Y107640250D03*
X57352500Y107640250D03*
%TD*%
%TO.C,D3*%
X58312500Y78692250D03*
X57352500Y78692250D03*
%TD*%
%TO.C,D3*%
X58312500Y49744250D03*
X57352500Y49744250D03*
%TD*%
%TO.C,D3*%
X58312500Y20796250D03*
X57352500Y20796250D03*
%TD*%
%TO.C,D3*%
X32412500Y136588250D03*
X31452500Y136588250D03*
%TD*%
%TO.C,D3*%
X32412500Y107640250D03*
X31452500Y107640250D03*
%TD*%
%TO.C,D3*%
X32412500Y78692250D03*
X31452500Y78692250D03*
%TD*%
%TO.C,D3*%
X32412500Y49744250D03*
X31452500Y49744250D03*
%TD*%
%TO.C,D3*%
X32412500Y20796250D03*
X31452500Y20796250D03*
%TD*%
%TO.C,D3*%
X6512500Y136588250D03*
X5552500Y136588250D03*
%TD*%
%TO.C,D3*%
X6512500Y107640250D03*
X5552500Y107640250D03*
%TD*%
%TO.C,D3*%
X6512500Y78692250D03*
X5552500Y78692250D03*
%TD*%
%TO.C,D3*%
X6512500Y49744250D03*
X5552500Y49744250D03*
%TD*%
D19*
%TO.C,R8*%
X55292500Y133382000D03*
X55292500Y135032000D03*
%TD*%
%TO.C,R8*%
X55292500Y104434000D03*
X55292500Y106084000D03*
%TD*%
%TO.C,R8*%
X55292500Y75486000D03*
X55292500Y77136000D03*
%TD*%
%TO.C,R8*%
X55292500Y46538000D03*
X55292500Y48188000D03*
%TD*%
%TO.C,R8*%
X55292500Y17590000D03*
X55292500Y19240000D03*
%TD*%
%TO.C,R8*%
X29392500Y133382000D03*
X29392500Y135032000D03*
%TD*%
%TO.C,R8*%
X29392500Y104434000D03*
X29392500Y106084000D03*
%TD*%
%TO.C,R8*%
X29392500Y75486000D03*
X29392500Y77136000D03*
%TD*%
%TO.C,R8*%
X29392500Y46538000D03*
X29392500Y48188000D03*
%TD*%
%TO.C,R8*%
X29392500Y17590000D03*
X29392500Y19240000D03*
%TD*%
%TO.C,R8*%
X3492500Y133382000D03*
X3492500Y135032000D03*
%TD*%
%TO.C,R8*%
X3492500Y104434000D03*
X3492500Y106084000D03*
%TD*%
%TO.C,R8*%
X3492500Y75486000D03*
X3492500Y77136000D03*
%TD*%
%TO.C,R8*%
X3492500Y46538000D03*
X3492500Y48188000D03*
%TD*%
D23*
%TO.C,D7*%
X57032500Y135492000D03*
X57032500Y134842000D03*
X57032500Y134192000D03*
X58632500Y134192000D03*
X58632500Y135492000D03*
%TD*%
%TO.C,D7*%
X57032500Y106544000D03*
X57032500Y105894000D03*
X57032500Y105244000D03*
X58632500Y105244000D03*
X58632500Y106544000D03*
%TD*%
%TO.C,D7*%
X57032500Y77596000D03*
X57032500Y76946000D03*
X57032500Y76296000D03*
X58632500Y76296000D03*
X58632500Y77596000D03*
%TD*%
%TO.C,D7*%
X57032500Y48648000D03*
X57032500Y47998000D03*
X57032500Y47348000D03*
X58632500Y47348000D03*
X58632500Y48648000D03*
%TD*%
%TO.C,D7*%
X57032500Y19700000D03*
X57032500Y19050000D03*
X57032500Y18400000D03*
X58632500Y18400000D03*
X58632500Y19700000D03*
%TD*%
%TO.C,D7*%
X31132500Y135492000D03*
X31132500Y134842000D03*
X31132500Y134192000D03*
X32732500Y134192000D03*
X32732500Y135492000D03*
%TD*%
%TO.C,D7*%
X31132500Y106544000D03*
X31132500Y105894000D03*
X31132500Y105244000D03*
X32732500Y105244000D03*
X32732500Y106544000D03*
%TD*%
%TO.C,D7*%
X31132500Y77596000D03*
X31132500Y76946000D03*
X31132500Y76296000D03*
X32732500Y76296000D03*
X32732500Y77596000D03*
%TD*%
%TO.C,D7*%
X31132500Y48648000D03*
X31132500Y47998000D03*
X31132500Y47348000D03*
X32732500Y47348000D03*
X32732500Y48648000D03*
%TD*%
%TO.C,D7*%
X31132500Y19700000D03*
X31132500Y19050000D03*
X31132500Y18400000D03*
X32732500Y18400000D03*
X32732500Y19700000D03*
%TD*%
%TO.C,D7*%
X5232500Y135492000D03*
X5232500Y134842000D03*
X5232500Y134192000D03*
X6832500Y134192000D03*
X6832500Y135492000D03*
%TD*%
%TO.C,D7*%
X5232500Y106544000D03*
X5232500Y105894000D03*
X5232500Y105244000D03*
X6832500Y105244000D03*
X6832500Y106544000D03*
%TD*%
%TO.C,D7*%
X5232500Y77596000D03*
X5232500Y76946000D03*
X5232500Y76296000D03*
X6832500Y76296000D03*
X6832500Y77596000D03*
%TD*%
%TO.C,D7*%
X5232500Y48648000D03*
X5232500Y47998000D03*
X5232500Y47348000D03*
X6832500Y47348000D03*
X6832500Y48648000D03*
%TD*%
D24*
%TO.C,J2*%
X56562500Y129992000D03*
X56562500Y128992000D03*
X56562500Y127992000D03*
X56562500Y126992000D03*
D25*
X52887500Y125692000D03*
X52887500Y131292000D03*
%TD*%
D24*
%TO.C,J2*%
X56562500Y101044000D03*
X56562500Y100044000D03*
X56562500Y99044000D03*
X56562500Y98044000D03*
D25*
X52887500Y96744000D03*
X52887500Y102344000D03*
%TD*%
D24*
%TO.C,J2*%
X56562500Y72096000D03*
X56562500Y71096000D03*
X56562500Y70096000D03*
X56562500Y69096000D03*
D25*
X52887500Y67796000D03*
X52887500Y73396000D03*
%TD*%
D24*
%TO.C,J2*%
X56562500Y43148000D03*
X56562500Y42148000D03*
X56562500Y41148000D03*
X56562500Y40148000D03*
D25*
X52887500Y38848000D03*
X52887500Y44448000D03*
%TD*%
D24*
%TO.C,J2*%
X56562500Y14200000D03*
X56562500Y13200000D03*
X56562500Y12200000D03*
X56562500Y11200000D03*
D25*
X52887500Y9900000D03*
X52887500Y15500000D03*
%TD*%
D24*
%TO.C,J2*%
X30662500Y129992000D03*
X30662500Y128992000D03*
X30662500Y127992000D03*
X30662500Y126992000D03*
D25*
X26987500Y125692000D03*
X26987500Y131292000D03*
%TD*%
D24*
%TO.C,J2*%
X30662500Y101044000D03*
X30662500Y100044000D03*
X30662500Y99044000D03*
X30662500Y98044000D03*
D25*
X26987500Y96744000D03*
X26987500Y102344000D03*
%TD*%
D24*
%TO.C,J2*%
X30662500Y72096000D03*
X30662500Y71096000D03*
X30662500Y70096000D03*
X30662500Y69096000D03*
D25*
X26987500Y67796000D03*
X26987500Y73396000D03*
%TD*%
D24*
%TO.C,J2*%
X30662500Y43148000D03*
X30662500Y42148000D03*
X30662500Y41148000D03*
X30662500Y40148000D03*
D25*
X26987500Y38848000D03*
X26987500Y44448000D03*
%TD*%
D24*
%TO.C,J2*%
X30662500Y14200000D03*
X30662500Y13200000D03*
X30662500Y12200000D03*
X30662500Y11200000D03*
D25*
X26987500Y9900000D03*
X26987500Y15500000D03*
%TD*%
D24*
%TO.C,J2*%
X4762500Y129992000D03*
X4762500Y128992000D03*
X4762500Y127992000D03*
X4762500Y126992000D03*
D25*
X1087500Y125692000D03*
X1087500Y131292000D03*
%TD*%
D24*
%TO.C,J2*%
X4762500Y101044000D03*
X4762500Y100044000D03*
X4762500Y99044000D03*
X4762500Y98044000D03*
D25*
X1087500Y96744000D03*
X1087500Y102344000D03*
%TD*%
D24*
%TO.C,J2*%
X4762500Y72096000D03*
X4762500Y71096000D03*
X4762500Y70096000D03*
X4762500Y69096000D03*
D25*
X1087500Y67796000D03*
X1087500Y73396000D03*
%TD*%
D24*
%TO.C,J2*%
X4762500Y43148000D03*
X4762500Y42148000D03*
X4762500Y41148000D03*
X4762500Y40148000D03*
D25*
X1087500Y38848000D03*
X1087500Y44448000D03*
%TD*%
D26*
%TO.C,J4*%
X67390000Y136297000D03*
X61610000Y136297000D03*
D27*
X65750000Y135192000D03*
X64750000Y135192000D03*
D28*
X64250000Y135192000D03*
X63250000Y135192000D03*
X62750000Y135192000D03*
X63750000Y135192000D03*
D27*
X65250000Y135192000D03*
X66250000Y135192000D03*
D29*
X67725000Y135192000D03*
D30*
X61275000Y135192000D03*
D31*
X68818000Y139947000D03*
D32*
X68818000Y135767000D03*
X60182000Y135767000D03*
D31*
X60182000Y139947000D03*
D29*
X66950000Y135192000D03*
D30*
X62050000Y135192000D03*
%TD*%
D26*
%TO.C,J4*%
X67390000Y107349000D03*
X61610000Y107349000D03*
D27*
X65750000Y106244000D03*
X64750000Y106244000D03*
D28*
X64250000Y106244000D03*
X63250000Y106244000D03*
X62750000Y106244000D03*
X63750000Y106244000D03*
D27*
X65250000Y106244000D03*
X66250000Y106244000D03*
D29*
X67725000Y106244000D03*
D30*
X61275000Y106244000D03*
D31*
X68818000Y110999000D03*
D32*
X68818000Y106819000D03*
X60182000Y106819000D03*
D31*
X60182000Y110999000D03*
D29*
X66950000Y106244000D03*
D30*
X62050000Y106244000D03*
%TD*%
D26*
%TO.C,J4*%
X67390000Y78401000D03*
X61610000Y78401000D03*
D27*
X65750000Y77296000D03*
X64750000Y77296000D03*
D28*
X64250000Y77296000D03*
X63250000Y77296000D03*
X62750000Y77296000D03*
X63750000Y77296000D03*
D27*
X65250000Y77296000D03*
X66250000Y77296000D03*
D29*
X67725000Y77296000D03*
D30*
X61275000Y77296000D03*
D31*
X68818000Y82051000D03*
D32*
X68818000Y77871000D03*
X60182000Y77871000D03*
D31*
X60182000Y82051000D03*
D29*
X66950000Y77296000D03*
D30*
X62050000Y77296000D03*
%TD*%
D26*
%TO.C,J4*%
X67390000Y49453000D03*
X61610000Y49453000D03*
D27*
X65750000Y48348000D03*
X64750000Y48348000D03*
D28*
X64250000Y48348000D03*
X63250000Y48348000D03*
X62750000Y48348000D03*
X63750000Y48348000D03*
D27*
X65250000Y48348000D03*
X66250000Y48348000D03*
D29*
X67725000Y48348000D03*
D30*
X61275000Y48348000D03*
D31*
X68818000Y53103000D03*
D32*
X68818000Y48923000D03*
X60182000Y48923000D03*
D31*
X60182000Y53103000D03*
D29*
X66950000Y48348000D03*
D30*
X62050000Y48348000D03*
%TD*%
D26*
%TO.C,J4*%
X67390000Y20505000D03*
X61610000Y20505000D03*
D27*
X65750000Y19400000D03*
X64750000Y19400000D03*
D28*
X64250000Y19400000D03*
X63250000Y19400000D03*
X62750000Y19400000D03*
X63750000Y19400000D03*
D27*
X65250000Y19400000D03*
X66250000Y19400000D03*
D29*
X67725000Y19400000D03*
D30*
X61275000Y19400000D03*
D31*
X68818000Y24155000D03*
D32*
X68818000Y19975000D03*
X60182000Y19975000D03*
D31*
X60182000Y24155000D03*
D29*
X66950000Y19400000D03*
D30*
X62050000Y19400000D03*
%TD*%
D26*
%TO.C,J4*%
X41490000Y136297000D03*
X35710000Y136297000D03*
D27*
X39850000Y135192000D03*
X38850000Y135192000D03*
D28*
X38350000Y135192000D03*
X37350000Y135192000D03*
X36850000Y135192000D03*
X37850000Y135192000D03*
D27*
X39350000Y135192000D03*
X40350000Y135192000D03*
D29*
X41825000Y135192000D03*
D30*
X35375000Y135192000D03*
D31*
X42918000Y139947000D03*
D32*
X42918000Y135767000D03*
X34282000Y135767000D03*
D31*
X34282000Y139947000D03*
D29*
X41050000Y135192000D03*
D30*
X36150000Y135192000D03*
%TD*%
D26*
%TO.C,J4*%
X41490000Y107349000D03*
X35710000Y107349000D03*
D27*
X39850000Y106244000D03*
X38850000Y106244000D03*
D28*
X38350000Y106244000D03*
X37350000Y106244000D03*
X36850000Y106244000D03*
X37850000Y106244000D03*
D27*
X39350000Y106244000D03*
X40350000Y106244000D03*
D29*
X41825000Y106244000D03*
D30*
X35375000Y106244000D03*
D31*
X42918000Y110999000D03*
D32*
X42918000Y106819000D03*
X34282000Y106819000D03*
D31*
X34282000Y110999000D03*
D29*
X41050000Y106244000D03*
D30*
X36150000Y106244000D03*
%TD*%
D26*
%TO.C,J4*%
X41490000Y78401000D03*
X35710000Y78401000D03*
D27*
X39850000Y77296000D03*
X38850000Y77296000D03*
D28*
X38350000Y77296000D03*
X37350000Y77296000D03*
X36850000Y77296000D03*
X37850000Y77296000D03*
D27*
X39350000Y77296000D03*
X40350000Y77296000D03*
D29*
X41825000Y77296000D03*
D30*
X35375000Y77296000D03*
D31*
X42918000Y82051000D03*
D32*
X42918000Y77871000D03*
X34282000Y77871000D03*
D31*
X34282000Y82051000D03*
D29*
X41050000Y77296000D03*
D30*
X36150000Y77296000D03*
%TD*%
D26*
%TO.C,J4*%
X41490000Y49453000D03*
X35710000Y49453000D03*
D27*
X39850000Y48348000D03*
X38850000Y48348000D03*
D28*
X38350000Y48348000D03*
X37350000Y48348000D03*
X36850000Y48348000D03*
X37850000Y48348000D03*
D27*
X39350000Y48348000D03*
X40350000Y48348000D03*
D29*
X41825000Y48348000D03*
D30*
X35375000Y48348000D03*
D31*
X42918000Y53103000D03*
D32*
X42918000Y48923000D03*
X34282000Y48923000D03*
D31*
X34282000Y53103000D03*
D29*
X41050000Y48348000D03*
D30*
X36150000Y48348000D03*
%TD*%
D26*
%TO.C,J4*%
X41490000Y20505000D03*
X35710000Y20505000D03*
D27*
X39850000Y19400000D03*
X38850000Y19400000D03*
D28*
X38350000Y19400000D03*
X37350000Y19400000D03*
X36850000Y19400000D03*
X37850000Y19400000D03*
D27*
X39350000Y19400000D03*
X40350000Y19400000D03*
D29*
X41825000Y19400000D03*
D30*
X35375000Y19400000D03*
D31*
X42918000Y24155000D03*
D32*
X42918000Y19975000D03*
X34282000Y19975000D03*
D31*
X34282000Y24155000D03*
D29*
X41050000Y19400000D03*
D30*
X36150000Y19400000D03*
%TD*%
D26*
%TO.C,J4*%
X15590000Y136297000D03*
X9810000Y136297000D03*
D27*
X13950000Y135192000D03*
X12950000Y135192000D03*
D28*
X12450000Y135192000D03*
X11450000Y135192000D03*
X10950000Y135192000D03*
X11950000Y135192000D03*
D27*
X13450000Y135192000D03*
X14450000Y135192000D03*
D29*
X15925000Y135192000D03*
D30*
X9475000Y135192000D03*
D31*
X17018000Y139947000D03*
D32*
X17018000Y135767000D03*
X8382000Y135767000D03*
D31*
X8382000Y139947000D03*
D29*
X15150000Y135192000D03*
D30*
X10250000Y135192000D03*
%TD*%
D26*
%TO.C,J4*%
X15590000Y107349000D03*
X9810000Y107349000D03*
D27*
X13950000Y106244000D03*
X12950000Y106244000D03*
D28*
X12450000Y106244000D03*
X11450000Y106244000D03*
X10950000Y106244000D03*
X11950000Y106244000D03*
D27*
X13450000Y106244000D03*
X14450000Y106244000D03*
D29*
X15925000Y106244000D03*
D30*
X9475000Y106244000D03*
D31*
X17018000Y110999000D03*
D32*
X17018000Y106819000D03*
X8382000Y106819000D03*
D31*
X8382000Y110999000D03*
D29*
X15150000Y106244000D03*
D30*
X10250000Y106244000D03*
%TD*%
D26*
%TO.C,J4*%
X15590000Y78401000D03*
X9810000Y78401000D03*
D27*
X13950000Y77296000D03*
X12950000Y77296000D03*
D28*
X12450000Y77296000D03*
X11450000Y77296000D03*
X10950000Y77296000D03*
X11950000Y77296000D03*
D27*
X13450000Y77296000D03*
X14450000Y77296000D03*
D29*
X15925000Y77296000D03*
D30*
X9475000Y77296000D03*
D31*
X17018000Y82051000D03*
D32*
X17018000Y77871000D03*
X8382000Y77871000D03*
D31*
X8382000Y82051000D03*
D29*
X15150000Y77296000D03*
D30*
X10250000Y77296000D03*
%TD*%
D26*
%TO.C,J4*%
X15590000Y49453000D03*
X9810000Y49453000D03*
D27*
X13950000Y48348000D03*
X12950000Y48348000D03*
D28*
X12450000Y48348000D03*
X11450000Y48348000D03*
X10950000Y48348000D03*
X11950000Y48348000D03*
D27*
X13450000Y48348000D03*
X14450000Y48348000D03*
D29*
X15925000Y48348000D03*
D30*
X9475000Y48348000D03*
D31*
X17018000Y53103000D03*
D32*
X17018000Y48923000D03*
X8382000Y48923000D03*
D31*
X8382000Y53103000D03*
D29*
X15150000Y48348000D03*
D30*
X10250000Y48348000D03*
%TD*%
D21*
%TO.C,R2*%
X58467500Y140112000D03*
X58467500Y138462000D03*
%TD*%
%TO.C,R2*%
X58467500Y111164000D03*
X58467500Y109514000D03*
%TD*%
%TO.C,R2*%
X58467500Y82216000D03*
X58467500Y80566000D03*
%TD*%
%TO.C,R2*%
X58467500Y53268000D03*
X58467500Y51618000D03*
%TD*%
%TO.C,R2*%
X58467500Y24320000D03*
X58467500Y22670000D03*
%TD*%
%TO.C,R2*%
X32567500Y140112000D03*
X32567500Y138462000D03*
%TD*%
%TO.C,R2*%
X32567500Y111164000D03*
X32567500Y109514000D03*
%TD*%
%TO.C,R2*%
X32567500Y82216000D03*
X32567500Y80566000D03*
%TD*%
%TO.C,R2*%
X32567500Y53268000D03*
X32567500Y51618000D03*
%TD*%
%TO.C,R2*%
X32567500Y24320000D03*
X32567500Y22670000D03*
%TD*%
%TO.C,R2*%
X6667500Y140112000D03*
X6667500Y138462000D03*
%TD*%
%TO.C,R2*%
X6667500Y111164000D03*
X6667500Y109514000D03*
%TD*%
%TO.C,R2*%
X6667500Y82216000D03*
X6667500Y80566000D03*
%TD*%
%TO.C,R2*%
X6667500Y53268000D03*
X6667500Y51618000D03*
%TD*%
%TO.C,R12*%
X68627500Y127729500D03*
X68627500Y126079500D03*
%TD*%
%TO.C,R12*%
X68627500Y98781500D03*
X68627500Y97131500D03*
%TD*%
%TO.C,R12*%
X68627500Y69833500D03*
X68627500Y68183500D03*
%TD*%
%TO.C,R12*%
X68627500Y40885500D03*
X68627500Y39235500D03*
%TD*%
%TO.C,R12*%
X68627500Y11937500D03*
X68627500Y10287500D03*
%TD*%
%TO.C,R12*%
X42727500Y127729500D03*
X42727500Y126079500D03*
%TD*%
%TO.C,R12*%
X42727500Y98781500D03*
X42727500Y97131500D03*
%TD*%
%TO.C,R12*%
X42727500Y69833500D03*
X42727500Y68183500D03*
%TD*%
%TO.C,R12*%
X42727500Y40885500D03*
X42727500Y39235500D03*
%TD*%
%TO.C,R12*%
X42727500Y11937500D03*
X42727500Y10287500D03*
%TD*%
%TO.C,R12*%
X16827500Y127729500D03*
X16827500Y126079500D03*
%TD*%
%TO.C,R12*%
X16827500Y98781500D03*
X16827500Y97131500D03*
%TD*%
%TO.C,R12*%
X16827500Y69833500D03*
X16827500Y68183500D03*
%TD*%
%TO.C,R12*%
X16827500Y40885500D03*
X16827500Y39235500D03*
%TD*%
D15*
%TO.C,C14*%
X60372500Y133712000D03*
X60372500Y132162000D03*
%TD*%
%TO.C,C14*%
X60372500Y104764000D03*
X60372500Y103214000D03*
%TD*%
%TO.C,C14*%
X60372500Y75816000D03*
X60372500Y74266000D03*
%TD*%
%TO.C,C14*%
X60372500Y46868000D03*
X60372500Y45318000D03*
%TD*%
%TO.C,C14*%
X60372500Y17920000D03*
X60372500Y16370000D03*
%TD*%
%TO.C,C14*%
X34472500Y133712000D03*
X34472500Y132162000D03*
%TD*%
%TO.C,C14*%
X34472500Y104764000D03*
X34472500Y103214000D03*
%TD*%
%TO.C,C14*%
X34472500Y75816000D03*
X34472500Y74266000D03*
%TD*%
%TO.C,C14*%
X34472500Y46868000D03*
X34472500Y45318000D03*
%TD*%
%TO.C,C14*%
X34472500Y17920000D03*
X34472500Y16370000D03*
%TD*%
%TO.C,C14*%
X8572500Y133712000D03*
X8572500Y132162000D03*
%TD*%
%TO.C,C14*%
X8572500Y104764000D03*
X8572500Y103214000D03*
%TD*%
%TO.C,C14*%
X8572500Y75816000D03*
X8572500Y74266000D03*
%TD*%
%TO.C,C14*%
X8572500Y46868000D03*
X8572500Y45318000D03*
%TD*%
D33*
%TO.C,FID4*%
X76565000Y116427000D03*
%TD*%
%TO.C,FID4*%
X76565000Y87479000D03*
%TD*%
%TO.C,FID4*%
X76565000Y58531000D03*
%TD*%
%TO.C,FID4*%
X76565000Y29583000D03*
%TD*%
%TO.C,FID4*%
X76565000Y635000D03*
%TD*%
%TO.C,FID4*%
X50665000Y116427000D03*
%TD*%
%TO.C,FID4*%
X50665000Y87479000D03*
%TD*%
%TO.C,FID4*%
X50665000Y58531000D03*
%TD*%
%TO.C,FID4*%
X50665000Y29583000D03*
%TD*%
%TO.C,FID4*%
X50665000Y635000D03*
%TD*%
%TO.C,FID4*%
X24765000Y116427000D03*
%TD*%
%TO.C,FID4*%
X24765000Y87479000D03*
%TD*%
%TO.C,FID4*%
X24765000Y58531000D03*
%TD*%
%TO.C,FID4*%
X24765000Y29583000D03*
%TD*%
D16*
%TO.C,ST4*%
X74660000Y118411375D03*
%TD*%
%TO.C,ST4*%
X74660000Y89463375D03*
%TD*%
%TO.C,ST4*%
X74660000Y60515375D03*
%TD*%
%TO.C,ST4*%
X74660000Y31567375D03*
%TD*%
%TO.C,ST4*%
X74660000Y2619375D03*
%TD*%
%TO.C,ST4*%
X48760000Y118411375D03*
%TD*%
%TO.C,ST4*%
X48760000Y89463375D03*
%TD*%
%TO.C,ST4*%
X48760000Y60515375D03*
%TD*%
%TO.C,ST4*%
X48760000Y31567375D03*
%TD*%
%TO.C,ST4*%
X48760000Y2619375D03*
%TD*%
%TO.C,ST4*%
X22860000Y118411375D03*
%TD*%
%TO.C,ST4*%
X22860000Y89463375D03*
%TD*%
%TO.C,ST4*%
X22860000Y60515375D03*
%TD*%
%TO.C,ST4*%
X22860000Y31567375D03*
%TD*%
D19*
%TO.C,R6*%
X53387500Y133382000D03*
X53387500Y135032000D03*
%TD*%
%TO.C,R6*%
X53387500Y104434000D03*
X53387500Y106084000D03*
%TD*%
%TO.C,R6*%
X53387500Y75486000D03*
X53387500Y77136000D03*
%TD*%
%TO.C,R6*%
X53387500Y46538000D03*
X53387500Y48188000D03*
%TD*%
%TO.C,R6*%
X53387500Y17590000D03*
X53387500Y19240000D03*
%TD*%
%TO.C,R6*%
X27487500Y133382000D03*
X27487500Y135032000D03*
%TD*%
%TO.C,R6*%
X27487500Y104434000D03*
X27487500Y106084000D03*
%TD*%
%TO.C,R6*%
X27487500Y75486000D03*
X27487500Y77136000D03*
%TD*%
%TO.C,R6*%
X27487500Y46538000D03*
X27487500Y48188000D03*
%TD*%
%TO.C,R6*%
X27487500Y17590000D03*
X27487500Y19240000D03*
%TD*%
%TO.C,R6*%
X1587500Y133382000D03*
X1587500Y135032000D03*
%TD*%
%TO.C,R6*%
X1587500Y104434000D03*
X1587500Y106084000D03*
%TD*%
%TO.C,R6*%
X1587500Y75486000D03*
X1587500Y77136000D03*
%TD*%
%TO.C,R6*%
X1587500Y46538000D03*
X1587500Y48188000D03*
%TD*%
D34*
%TO.C,J1*%
X72437500Y126992000D03*
X72437500Y127992000D03*
X72437500Y128992000D03*
X72437500Y129992000D03*
D35*
X76112500Y131292000D03*
X76112500Y125692000D03*
%TD*%
D34*
%TO.C,J1*%
X72437500Y98044000D03*
X72437500Y99044000D03*
X72437500Y100044000D03*
X72437500Y101044000D03*
D35*
X76112500Y102344000D03*
X76112500Y96744000D03*
%TD*%
D34*
%TO.C,J1*%
X72437500Y69096000D03*
X72437500Y70096000D03*
X72437500Y71096000D03*
X72437500Y72096000D03*
D35*
X76112500Y73396000D03*
X76112500Y67796000D03*
%TD*%
D34*
%TO.C,J1*%
X72437500Y40148000D03*
X72437500Y41148000D03*
X72437500Y42148000D03*
X72437500Y43148000D03*
D35*
X76112500Y44448000D03*
X76112500Y38848000D03*
%TD*%
D34*
%TO.C,J1*%
X72437500Y11200000D03*
X72437500Y12200000D03*
X72437500Y13200000D03*
X72437500Y14200000D03*
D35*
X76112500Y15500000D03*
X76112500Y9900000D03*
%TD*%
D34*
%TO.C,J1*%
X46537500Y126992000D03*
X46537500Y127992000D03*
X46537500Y128992000D03*
X46537500Y129992000D03*
D35*
X50212500Y131292000D03*
X50212500Y125692000D03*
%TD*%
D34*
%TO.C,J1*%
X46537500Y98044000D03*
X46537500Y99044000D03*
X46537500Y100044000D03*
X46537500Y101044000D03*
D35*
X50212500Y102344000D03*
X50212500Y96744000D03*
%TD*%
D34*
%TO.C,J1*%
X46537500Y69096000D03*
X46537500Y70096000D03*
X46537500Y71096000D03*
X46537500Y72096000D03*
D35*
X50212500Y73396000D03*
X50212500Y67796000D03*
%TD*%
D34*
%TO.C,J1*%
X46537500Y40148000D03*
X46537500Y41148000D03*
X46537500Y42148000D03*
X46537500Y43148000D03*
D35*
X50212500Y44448000D03*
X50212500Y38848000D03*
%TD*%
D34*
%TO.C,J1*%
X46537500Y11200000D03*
X46537500Y12200000D03*
X46537500Y13200000D03*
X46537500Y14200000D03*
D35*
X50212500Y15500000D03*
X50212500Y9900000D03*
%TD*%
D34*
%TO.C,J1*%
X20637500Y126992000D03*
X20637500Y127992000D03*
X20637500Y128992000D03*
X20637500Y129992000D03*
D35*
X24312500Y131292000D03*
X24312500Y125692000D03*
%TD*%
D34*
%TO.C,J1*%
X20637500Y98044000D03*
X20637500Y99044000D03*
X20637500Y100044000D03*
X20637500Y101044000D03*
D35*
X24312500Y102344000D03*
X24312500Y96744000D03*
%TD*%
D34*
%TO.C,J1*%
X20637500Y69096000D03*
X20637500Y70096000D03*
X20637500Y71096000D03*
X20637500Y72096000D03*
D35*
X24312500Y73396000D03*
X24312500Y67796000D03*
%TD*%
D34*
%TO.C,J1*%
X20637500Y40148000D03*
X20637500Y41148000D03*
X20637500Y42148000D03*
X20637500Y43148000D03*
D35*
X24312500Y44448000D03*
X24312500Y38848000D03*
%TD*%
D12*
%TO.C,TP3*%
X59737500Y125634500D03*
%TD*%
%TO.C,TP3*%
X59737500Y96686500D03*
%TD*%
%TO.C,TP3*%
X59737500Y67738500D03*
%TD*%
%TO.C,TP3*%
X59737500Y38790500D03*
%TD*%
%TO.C,TP3*%
X59737500Y9842500D03*
%TD*%
%TO.C,TP3*%
X33837500Y125634500D03*
%TD*%
%TO.C,TP3*%
X33837500Y96686500D03*
%TD*%
%TO.C,TP3*%
X33837500Y67738500D03*
%TD*%
%TO.C,TP3*%
X33837500Y38790500D03*
%TD*%
%TO.C,TP3*%
X33837500Y9842500D03*
%TD*%
%TO.C,TP3*%
X7937500Y125634500D03*
%TD*%
%TO.C,TP3*%
X7937500Y96686500D03*
%TD*%
%TO.C,TP3*%
X7937500Y67738500D03*
%TD*%
%TO.C,TP3*%
X7937500Y38790500D03*
%TD*%
D16*
%TO.C,ST3*%
X54340000Y118332000D03*
%TD*%
%TO.C,ST3*%
X54340000Y89384000D03*
%TD*%
%TO.C,ST3*%
X54340000Y60436000D03*
%TD*%
%TO.C,ST3*%
X54340000Y31488000D03*
%TD*%
%TO.C,ST3*%
X54340000Y2540000D03*
%TD*%
%TO.C,ST3*%
X28440000Y118332000D03*
%TD*%
%TO.C,ST3*%
X28440000Y89384000D03*
%TD*%
%TO.C,ST3*%
X28440000Y60436000D03*
%TD*%
%TO.C,ST3*%
X28440000Y31488000D03*
%TD*%
%TO.C,ST3*%
X28440000Y2540000D03*
%TD*%
%TO.C,ST3*%
X2540000Y118332000D03*
%TD*%
%TO.C,ST3*%
X2540000Y89384000D03*
%TD*%
%TO.C,ST3*%
X2540000Y60436000D03*
%TD*%
%TO.C,ST3*%
X2540000Y31488000D03*
%TD*%
D36*
%TO.C,D2*%
X74342500Y123094500D03*
D37*
X76142500Y123094500D03*
X72542500Y123094500D03*
%TD*%
D36*
%TO.C,D2*%
X74342500Y94146500D03*
D37*
X76142500Y94146500D03*
X72542500Y94146500D03*
%TD*%
D36*
%TO.C,D2*%
X74342500Y65198500D03*
D37*
X76142500Y65198500D03*
X72542500Y65198500D03*
%TD*%
D36*
%TO.C,D2*%
X74342500Y36250500D03*
D37*
X76142500Y36250500D03*
X72542500Y36250500D03*
%TD*%
D36*
%TO.C,D2*%
X74342500Y7302500D03*
D37*
X76142500Y7302500D03*
X72542500Y7302500D03*
%TD*%
D36*
%TO.C,D2*%
X48442500Y123094500D03*
D37*
X50242500Y123094500D03*
X46642500Y123094500D03*
%TD*%
D36*
%TO.C,D2*%
X48442500Y94146500D03*
D37*
X50242500Y94146500D03*
X46642500Y94146500D03*
%TD*%
D36*
%TO.C,D2*%
X48442500Y65198500D03*
D37*
X50242500Y65198500D03*
X46642500Y65198500D03*
%TD*%
D36*
%TO.C,D2*%
X48442500Y36250500D03*
D37*
X50242500Y36250500D03*
X46642500Y36250500D03*
%TD*%
D36*
%TO.C,D2*%
X48442500Y7302500D03*
D37*
X50242500Y7302500D03*
X46642500Y7302500D03*
%TD*%
D36*
%TO.C,D2*%
X22542500Y123094500D03*
D37*
X24342500Y123094500D03*
X20742500Y123094500D03*
%TD*%
D36*
%TO.C,D2*%
X22542500Y94146500D03*
D37*
X24342500Y94146500D03*
X20742500Y94146500D03*
%TD*%
D36*
%TO.C,D2*%
X22542500Y65198500D03*
D37*
X24342500Y65198500D03*
X20742500Y65198500D03*
%TD*%
D36*
%TO.C,D2*%
X22542500Y36250500D03*
D37*
X24342500Y36250500D03*
X20742500Y36250500D03*
%TD*%
D21*
%TO.C,R7*%
X58150000Y127729500D03*
X58150000Y126079500D03*
%TD*%
%TO.C,R7*%
X58150000Y98781500D03*
X58150000Y97131500D03*
%TD*%
%TO.C,R7*%
X58150000Y69833500D03*
X58150000Y68183500D03*
%TD*%
%TO.C,R7*%
X58150000Y40885500D03*
X58150000Y39235500D03*
%TD*%
%TO.C,R7*%
X58150000Y11937500D03*
X58150000Y10287500D03*
%TD*%
%TO.C,R7*%
X32250000Y127729500D03*
X32250000Y126079500D03*
%TD*%
%TO.C,R7*%
X32250000Y98781500D03*
X32250000Y97131500D03*
%TD*%
%TO.C,R7*%
X32250000Y69833500D03*
X32250000Y68183500D03*
%TD*%
%TO.C,R7*%
X32250000Y40885500D03*
X32250000Y39235500D03*
%TD*%
%TO.C,R7*%
X32250000Y11937500D03*
X32250000Y10287500D03*
%TD*%
%TO.C,R7*%
X6350000Y127729500D03*
X6350000Y126079500D03*
%TD*%
%TO.C,R7*%
X6350000Y98781500D03*
X6350000Y97131500D03*
%TD*%
%TO.C,R7*%
X6350000Y69833500D03*
X6350000Y68183500D03*
%TD*%
%TO.C,R7*%
X6350000Y40885500D03*
X6350000Y39235500D03*
%TD*%
D33*
%TO.C,FID3*%
X52435000Y140557000D03*
%TD*%
%TO.C,FID3*%
X52435000Y111609000D03*
%TD*%
%TO.C,FID3*%
X52435000Y82661000D03*
%TD*%
%TO.C,FID3*%
X52435000Y53713000D03*
%TD*%
%TO.C,FID3*%
X52435000Y24765000D03*
%TD*%
%TO.C,FID3*%
X26535000Y140557000D03*
%TD*%
%TO.C,FID3*%
X26535000Y111609000D03*
%TD*%
%TO.C,FID3*%
X26535000Y82661000D03*
%TD*%
%TO.C,FID3*%
X26535000Y53713000D03*
%TD*%
%TO.C,FID3*%
X26535000Y24765000D03*
%TD*%
%TO.C,FID3*%
X635000Y140557000D03*
%TD*%
%TO.C,FID3*%
X635000Y111609000D03*
%TD*%
%TO.C,FID3*%
X635000Y82661000D03*
%TD*%
%TO.C,FID3*%
X635000Y53713000D03*
%TD*%
D38*
%TO.C,D1*%
X53552500Y124047000D03*
X55127500Y124047000D03*
%TD*%
%TO.C,D1*%
X53552500Y95099000D03*
X55127500Y95099000D03*
%TD*%
%TO.C,D1*%
X53552500Y66151000D03*
X55127500Y66151000D03*
%TD*%
%TO.C,D1*%
X53552500Y37203000D03*
X55127500Y37203000D03*
%TD*%
%TO.C,D1*%
X53552500Y8255000D03*
X55127500Y8255000D03*
%TD*%
%TO.C,D1*%
X27652500Y124047000D03*
X29227500Y124047000D03*
%TD*%
%TO.C,D1*%
X27652500Y95099000D03*
X29227500Y95099000D03*
%TD*%
%TO.C,D1*%
X27652500Y66151000D03*
X29227500Y66151000D03*
%TD*%
%TO.C,D1*%
X27652500Y37203000D03*
X29227500Y37203000D03*
%TD*%
%TO.C,D1*%
X27652500Y8255000D03*
X29227500Y8255000D03*
%TD*%
%TO.C,D1*%
X1752500Y124047000D03*
X3327500Y124047000D03*
%TD*%
%TO.C,D1*%
X1752500Y95099000D03*
X3327500Y95099000D03*
%TD*%
%TO.C,D1*%
X1752500Y66151000D03*
X3327500Y66151000D03*
%TD*%
%TO.C,D1*%
X1752500Y37203000D03*
X3327500Y37203000D03*
%TD*%
D13*
%TO.C,J6*%
X58150000Y119602000D03*
X60690000Y119602000D03*
X63230000Y119602000D03*
X65770000Y119602000D03*
X68310000Y119602000D03*
X70850000Y119602000D03*
%TD*%
%TO.C,J6*%
X58150000Y90654000D03*
X60690000Y90654000D03*
X63230000Y90654000D03*
X65770000Y90654000D03*
X68310000Y90654000D03*
X70850000Y90654000D03*
%TD*%
%TO.C,J6*%
X58150000Y61706000D03*
X60690000Y61706000D03*
X63230000Y61706000D03*
X65770000Y61706000D03*
X68310000Y61706000D03*
X70850000Y61706000D03*
%TD*%
%TO.C,J6*%
X58150000Y32758000D03*
X60690000Y32758000D03*
X63230000Y32758000D03*
X65770000Y32758000D03*
X68310000Y32758000D03*
X70850000Y32758000D03*
%TD*%
%TO.C,J6*%
X58150000Y3810000D03*
X60690000Y3810000D03*
X63230000Y3810000D03*
X65770000Y3810000D03*
X68310000Y3810000D03*
X70850000Y3810000D03*
%TD*%
%TO.C,J6*%
X32250000Y119602000D03*
X34790000Y119602000D03*
X37330000Y119602000D03*
X39870000Y119602000D03*
X42410000Y119602000D03*
X44950000Y119602000D03*
%TD*%
%TO.C,J6*%
X32250000Y90654000D03*
X34790000Y90654000D03*
X37330000Y90654000D03*
X39870000Y90654000D03*
X42410000Y90654000D03*
X44950000Y90654000D03*
%TD*%
%TO.C,J6*%
X32250000Y61706000D03*
X34790000Y61706000D03*
X37330000Y61706000D03*
X39870000Y61706000D03*
X42410000Y61706000D03*
X44950000Y61706000D03*
%TD*%
%TO.C,J6*%
X32250000Y32758000D03*
X34790000Y32758000D03*
X37330000Y32758000D03*
X39870000Y32758000D03*
X42410000Y32758000D03*
X44950000Y32758000D03*
%TD*%
%TO.C,J6*%
X32250000Y3810000D03*
X34790000Y3810000D03*
X37330000Y3810000D03*
X39870000Y3810000D03*
X42410000Y3810000D03*
X44950000Y3810000D03*
%TD*%
%TO.C,J6*%
X6350000Y119602000D03*
X8890000Y119602000D03*
X11430000Y119602000D03*
X13970000Y119602000D03*
X16510000Y119602000D03*
X19050000Y119602000D03*
%TD*%
%TO.C,J6*%
X6350000Y90654000D03*
X8890000Y90654000D03*
X11430000Y90654000D03*
X13970000Y90654000D03*
X16510000Y90654000D03*
X19050000Y90654000D03*
%TD*%
%TO.C,J6*%
X6350000Y61706000D03*
X8890000Y61706000D03*
X11430000Y61706000D03*
X13970000Y61706000D03*
X16510000Y61706000D03*
X19050000Y61706000D03*
%TD*%
%TO.C,J6*%
X6350000Y32758000D03*
X8890000Y32758000D03*
X11430000Y32758000D03*
X13970000Y32758000D03*
X16510000Y32758000D03*
X19050000Y32758000D03*
%TD*%
D39*
%TO.C,C9*%
X58150000Y129304500D03*
X58150000Y130854500D03*
%TD*%
%TO.C,C9*%
X58150000Y100356500D03*
X58150000Y101906500D03*
%TD*%
%TO.C,C9*%
X58150000Y71408500D03*
X58150000Y72958500D03*
%TD*%
%TO.C,C9*%
X58150000Y42460500D03*
X58150000Y44010500D03*
%TD*%
%TO.C,C9*%
X58150000Y13512500D03*
X58150000Y15062500D03*
%TD*%
%TO.C,C9*%
X32250000Y129304500D03*
X32250000Y130854500D03*
%TD*%
%TO.C,C9*%
X32250000Y100356500D03*
X32250000Y101906500D03*
%TD*%
%TO.C,C9*%
X32250000Y71408500D03*
X32250000Y72958500D03*
%TD*%
%TO.C,C9*%
X32250000Y42460500D03*
X32250000Y44010500D03*
%TD*%
%TO.C,C9*%
X32250000Y13512500D03*
X32250000Y15062500D03*
%TD*%
%TO.C,C9*%
X6350000Y129304500D03*
X6350000Y130854500D03*
%TD*%
%TO.C,C9*%
X6350000Y100356500D03*
X6350000Y101906500D03*
%TD*%
%TO.C,C9*%
X6350000Y71408500D03*
X6350000Y72958500D03*
%TD*%
%TO.C,C9*%
X6350000Y42460500D03*
X6350000Y44010500D03*
%TD*%
%TO.C,C9*%
X6350000Y13512500D03*
X6350000Y15062500D03*
%TD*%
D13*
%TO.C,J6*%
X6350000Y3810000D03*
X8890000Y3810000D03*
X11430000Y3810000D03*
X13970000Y3810000D03*
X16510000Y3810000D03*
X19050000Y3810000D03*
%TD*%
D38*
%TO.C,D1*%
X1752500Y8255000D03*
X3327500Y8255000D03*
%TD*%
D33*
%TO.C,FID3*%
X635000Y24765000D03*
%TD*%
D21*
%TO.C,R7*%
X6350000Y11937500D03*
X6350000Y10287500D03*
%TD*%
D36*
%TO.C,D2*%
X22542500Y7302500D03*
D37*
X24342500Y7302500D03*
X20742500Y7302500D03*
%TD*%
D16*
%TO.C,ST3*%
X2540000Y2540000D03*
%TD*%
D12*
%TO.C,TP3*%
X7937500Y9842500D03*
%TD*%
D34*
%TO.C,J1*%
X20637500Y11200000D03*
X20637500Y12200000D03*
X20637500Y13200000D03*
X20637500Y14200000D03*
D35*
X24312500Y15500000D03*
X24312500Y9900000D03*
%TD*%
D19*
%TO.C,R6*%
X1587500Y17590000D03*
X1587500Y19240000D03*
%TD*%
D16*
%TO.C,ST4*%
X22860000Y2619375D03*
%TD*%
D33*
%TO.C,FID4*%
X24765000Y635000D03*
%TD*%
D15*
%TO.C,C14*%
X8572500Y17920000D03*
X8572500Y16370000D03*
%TD*%
D21*
%TO.C,R12*%
X16827500Y11937500D03*
X16827500Y10287500D03*
%TD*%
%TO.C,R2*%
X6667500Y24320000D03*
X6667500Y22670000D03*
%TD*%
D26*
%TO.C,J4*%
X15590000Y20505000D03*
X9810000Y20505000D03*
D27*
X13950000Y19400000D03*
X12950000Y19400000D03*
D28*
X12450000Y19400000D03*
X11450000Y19400000D03*
X10950000Y19400000D03*
X11950000Y19400000D03*
D27*
X13450000Y19400000D03*
X14450000Y19400000D03*
D29*
X15925000Y19400000D03*
D30*
X9475000Y19400000D03*
D31*
X17018000Y24155000D03*
D32*
X17018000Y19975000D03*
X8382000Y19975000D03*
D31*
X8382000Y24155000D03*
D29*
X15150000Y19400000D03*
D30*
X10250000Y19400000D03*
%TD*%
D24*
%TO.C,J2*%
X4762500Y14200000D03*
X4762500Y13200000D03*
X4762500Y12200000D03*
X4762500Y11200000D03*
D25*
X1087500Y9900000D03*
X1087500Y15500000D03*
%TD*%
D23*
%TO.C,D7*%
X5232500Y19700000D03*
X5232500Y19050000D03*
X5232500Y18400000D03*
X6832500Y18400000D03*
X6832500Y19700000D03*
%TD*%
D19*
%TO.C,R8*%
X3492500Y17590000D03*
X3492500Y19240000D03*
%TD*%
D22*
%TO.C,D3*%
X6512500Y20796250D03*
X5552500Y20796250D03*
%TD*%
D21*
%TO.C,R4*%
X18732500Y24320000D03*
X18732500Y22670000D03*
%TD*%
%TO.C,R11*%
X16827500Y15112500D03*
X16827500Y13462500D03*
%TD*%
D20*
%TO.C,R3*%
X3365000Y6667500D03*
X1715000Y6667500D03*
%TD*%
D19*
%TO.C,R10*%
X18732500Y13462500D03*
X18732500Y15112500D03*
%TD*%
D15*
%TO.C,C10*%
X24447500Y18872500D03*
X24447500Y17322500D03*
%TD*%
D19*
%TO.C,R5*%
X18732500Y10287500D03*
X18732500Y11937500D03*
%TD*%
D18*
%TO.C,U6*%
X20289900Y19047500D03*
X20289900Y18097500D03*
X20289900Y17147500D03*
X22890100Y17147500D03*
X22890100Y19047500D03*
%TD*%
D17*
%TO.C,D5*%
X8572500Y11550000D03*
X8572500Y13850000D03*
%TD*%
D16*
%TO.C,ST2*%
X22860000Y22860000D03*
%TD*%
%TO.C,ST1*%
X2540000Y22860000D03*
%TD*%
D15*
%TO.C,C1*%
X18732500Y18872500D03*
X18732500Y17322500D03*
%TD*%
D14*
%TO.C,C11*%
X6807500Y16827500D03*
X5257500Y16827500D03*
%TD*%
D13*
%TO.C,J7*%
X19050000Y1270000D03*
X16510000Y1270000D03*
X13970000Y1270000D03*
X11430000Y1270000D03*
X8890000Y1270000D03*
X6350000Y1270000D03*
%TD*%
D12*
%TO.C,TP1*%
X8572500Y14922500D03*
%TD*%
M02*
