%TF.GenerationSoftware,KiCad,Pcbnew,9.0.5*%
%TF.CreationDate,2025-10-21T20:43:03-06:00*%
%TF.ProjectId,SparkFun_Qwiic_GNSS_SAM-M8Q_panelized,53706172-6b46-4756-9e5f-51776969635f,v10*%
%TF.SameCoordinates,Original*%
%TF.FileFunction,Soldermask,Bot*%
%TF.FilePolarity,Negative*%
%FSLAX46Y46*%
G04 Gerber Fmt 4.6, Leading zero omitted, Abs format (unit mm)*
G04 Created by KiCad (PCBNEW 9.0.5) date 2025-10-21 20:43:03*
%MOMM*%
%LPD*%
G01*
G04 APERTURE LIST*
%TA.AperFunction,Profile*%
%ADD10C,0.100000*%
%TD*%
%ADD11C,0.250000*%
%ADD12C,0.500000*%
G04 APERTURE END LIST*
D10*
X-500000Y-3548000D02*
X-500000Y144740000D01*
X77700000Y-3548000D02*
X-500000Y-3548000D01*
X77700000Y144740000D02*
X77700000Y-3548000D01*
X-500000Y144740000D02*
X77700000Y144740000D01*
X-6850000Y-9898000D02*
X-6850000Y151090000D01*
X84050000Y-9898000D02*
X-6850000Y-9898000D01*
X84050000Y151090000D02*
X84050000Y-9898000D01*
X-6850000Y151090000D02*
X84050000Y151090000D01*
X51800000Y141192000D02*
X77200000Y141192000D01*
X77200000Y115792000D01*
X51800000Y115792000D01*
X51800000Y141192000D01*
X51800000Y112244000D02*
X77200000Y112244000D01*
X77200000Y86844000D01*
X51800000Y86844000D01*
X51800000Y112244000D01*
X51800000Y83296000D02*
X77200000Y83296000D01*
X77200000Y57896000D01*
X51800000Y57896000D01*
X51800000Y83296000D01*
X51800000Y54348000D02*
X77200000Y54348000D01*
X77200000Y28948000D01*
X51800000Y28948000D01*
X51800000Y54348000D01*
X51800000Y25400000D02*
X77200000Y25400000D01*
X77200000Y0D01*
X51800000Y0D01*
X51800000Y25400000D01*
X25900000Y141192000D02*
X51300000Y141192000D01*
X51300000Y115792000D01*
X25900000Y115792000D01*
X25900000Y141192000D01*
X25900000Y112244000D02*
X51300000Y112244000D01*
X51300000Y86844000D01*
X25900000Y86844000D01*
X25900000Y112244000D01*
X25900000Y83296000D02*
X51300000Y83296000D01*
X51300000Y57896000D01*
X25900000Y57896000D01*
X25900000Y83296000D01*
X25900000Y54348000D02*
X51300000Y54348000D01*
X51300000Y28948000D01*
X25900000Y28948000D01*
X25900000Y54348000D01*
X25900000Y25400000D02*
X51300000Y25400000D01*
X51300000Y0D01*
X25900000Y0D01*
X25900000Y25400000D01*
X0Y141192000D02*
X25400000Y141192000D01*
X25400000Y115792000D01*
X0Y115792000D01*
X0Y141192000D01*
X0Y112244000D02*
X25400000Y112244000D01*
X25400000Y86844000D01*
X0Y86844000D01*
X0Y112244000D01*
X0Y83296000D02*
X25400000Y83296000D01*
X25400000Y57896000D01*
X0Y57896000D01*
X0Y83296000D01*
X0Y54348000D02*
X25400000Y54348000D01*
X25400000Y28948000D01*
X0Y28948000D01*
X0Y54348000D01*
X0Y25400000D02*
X25400000Y25400000D01*
X25400000Y0D01*
X0Y0D01*
X0Y25400000D01*
D11*
X31838094Y-2686238D02*
X31171427Y-1733857D01*
X30695237Y-2686238D02*
X30695237Y-686238D01*
X30695237Y-686238D02*
X31457142Y-686238D01*
X31457142Y-686238D02*
X31647618Y-781476D01*
X31647618Y-781476D02*
X31742856Y-876714D01*
X31742856Y-876714D02*
X31838094Y-1067190D01*
X31838094Y-1067190D02*
X31838094Y-1352904D01*
X31838094Y-1352904D02*
X31742856Y-1543380D01*
X31742856Y-1543380D02*
X31647618Y-1638619D01*
X31647618Y-1638619D02*
X31457142Y-1733857D01*
X31457142Y-1733857D02*
X30695237Y-1733857D01*
X33076189Y-686238D02*
X33457142Y-686238D01*
X33457142Y-686238D02*
X33647618Y-781476D01*
X33647618Y-781476D02*
X33838094Y-971952D01*
X33838094Y-971952D02*
X33933332Y-1352904D01*
X33933332Y-1352904D02*
X33933332Y-2019571D01*
X33933332Y-2019571D02*
X33838094Y-2400523D01*
X33838094Y-2400523D02*
X33647618Y-2591000D01*
X33647618Y-2591000D02*
X33457142Y-2686238D01*
X33457142Y-2686238D02*
X33076189Y-2686238D01*
X33076189Y-2686238D02*
X32885713Y-2591000D01*
X32885713Y-2591000D02*
X32695237Y-2400523D01*
X32695237Y-2400523D02*
X32599999Y-2019571D01*
X32599999Y-2019571D02*
X32599999Y-1352904D01*
X32599999Y-1352904D02*
X32695237Y-971952D01*
X32695237Y-971952D02*
X32885713Y-781476D01*
X32885713Y-781476D02*
X33076189Y-686238D01*
X34790475Y-686238D02*
X34790475Y-2305285D01*
X34790475Y-2305285D02*
X34885713Y-2495761D01*
X34885713Y-2495761D02*
X34980951Y-2591000D01*
X34980951Y-2591000D02*
X35171427Y-2686238D01*
X35171427Y-2686238D02*
X35552380Y-2686238D01*
X35552380Y-2686238D02*
X35742856Y-2591000D01*
X35742856Y-2591000D02*
X35838094Y-2495761D01*
X35838094Y-2495761D02*
X35933332Y-2305285D01*
X35933332Y-2305285D02*
X35933332Y-686238D01*
X36599999Y-686238D02*
X37742856Y-686238D01*
X37171427Y-2686238D02*
X37171427Y-686238D01*
X38409523Y-1638619D02*
X39076190Y-1638619D01*
X39361904Y-2686238D02*
X38409523Y-2686238D01*
X38409523Y-2686238D02*
X38409523Y-686238D01*
X38409523Y-686238D02*
X39361904Y-686238D01*
X42123809Y-686238D02*
X42504762Y-686238D01*
X42504762Y-686238D02*
X42695238Y-781476D01*
X42695238Y-781476D02*
X42885714Y-971952D01*
X42885714Y-971952D02*
X42980952Y-1352904D01*
X42980952Y-1352904D02*
X42980952Y-2019571D01*
X42980952Y-2019571D02*
X42885714Y-2400523D01*
X42885714Y-2400523D02*
X42695238Y-2591000D01*
X42695238Y-2591000D02*
X42504762Y-2686238D01*
X42504762Y-2686238D02*
X42123809Y-2686238D01*
X42123809Y-2686238D02*
X41933333Y-2591000D01*
X41933333Y-2591000D02*
X41742857Y-2400523D01*
X41742857Y-2400523D02*
X41647619Y-2019571D01*
X41647619Y-2019571D02*
X41647619Y-1352904D01*
X41647619Y-1352904D02*
X41742857Y-971952D01*
X41742857Y-971952D02*
X41933333Y-781476D01*
X41933333Y-781476D02*
X42123809Y-686238D01*
X43838095Y-686238D02*
X43838095Y-2305285D01*
X43838095Y-2305285D02*
X43933333Y-2495761D01*
X43933333Y-2495761D02*
X44028571Y-2591000D01*
X44028571Y-2591000D02*
X44219047Y-2686238D01*
X44219047Y-2686238D02*
X44600000Y-2686238D01*
X44600000Y-2686238D02*
X44790476Y-2591000D01*
X44790476Y-2591000D02*
X44885714Y-2495761D01*
X44885714Y-2495761D02*
X44980952Y-2305285D01*
X44980952Y-2305285D02*
X44980952Y-686238D01*
X45647619Y-686238D02*
X46790476Y-686238D01*
X46219047Y-2686238D02*
X46219047Y-686238D01*
X31838094Y26261762D02*
X31171427Y27214143D01*
X30695237Y26261762D02*
X30695237Y28261762D01*
X30695237Y28261762D02*
X31457142Y28261762D01*
X31457142Y28261762D02*
X31647618Y28166524D01*
X31647618Y28166524D02*
X31742856Y28071286D01*
X31742856Y28071286D02*
X31838094Y27880810D01*
X31838094Y27880810D02*
X31838094Y27595096D01*
X31838094Y27595096D02*
X31742856Y27404620D01*
X31742856Y27404620D02*
X31647618Y27309381D01*
X31647618Y27309381D02*
X31457142Y27214143D01*
X31457142Y27214143D02*
X30695237Y27214143D01*
X33076189Y28261762D02*
X33457142Y28261762D01*
X33457142Y28261762D02*
X33647618Y28166524D01*
X33647618Y28166524D02*
X33838094Y27976048D01*
X33838094Y27976048D02*
X33933332Y27595096D01*
X33933332Y27595096D02*
X33933332Y26928429D01*
X33933332Y26928429D02*
X33838094Y26547477D01*
X33838094Y26547477D02*
X33647618Y26357000D01*
X33647618Y26357000D02*
X33457142Y26261762D01*
X33457142Y26261762D02*
X33076189Y26261762D01*
X33076189Y26261762D02*
X32885713Y26357000D01*
X32885713Y26357000D02*
X32695237Y26547477D01*
X32695237Y26547477D02*
X32599999Y26928429D01*
X32599999Y26928429D02*
X32599999Y27595096D01*
X32599999Y27595096D02*
X32695237Y27976048D01*
X32695237Y27976048D02*
X32885713Y28166524D01*
X32885713Y28166524D02*
X33076189Y28261762D01*
X34790475Y28261762D02*
X34790475Y26642715D01*
X34790475Y26642715D02*
X34885713Y26452239D01*
X34885713Y26452239D02*
X34980951Y26357000D01*
X34980951Y26357000D02*
X35171427Y26261762D01*
X35171427Y26261762D02*
X35552380Y26261762D01*
X35552380Y26261762D02*
X35742856Y26357000D01*
X35742856Y26357000D02*
X35838094Y26452239D01*
X35838094Y26452239D02*
X35933332Y26642715D01*
X35933332Y26642715D02*
X35933332Y28261762D01*
X36599999Y28261762D02*
X37742856Y28261762D01*
X37171427Y26261762D02*
X37171427Y28261762D01*
X38409523Y27309381D02*
X39076190Y27309381D01*
X39361904Y26261762D02*
X38409523Y26261762D01*
X38409523Y26261762D02*
X38409523Y28261762D01*
X38409523Y28261762D02*
X39361904Y28261762D01*
X42123809Y28261762D02*
X42504762Y28261762D01*
X42504762Y28261762D02*
X42695238Y28166524D01*
X42695238Y28166524D02*
X42885714Y27976048D01*
X42885714Y27976048D02*
X42980952Y27595096D01*
X42980952Y27595096D02*
X42980952Y26928429D01*
X42980952Y26928429D02*
X42885714Y26547477D01*
X42885714Y26547477D02*
X42695238Y26357000D01*
X42695238Y26357000D02*
X42504762Y26261762D01*
X42504762Y26261762D02*
X42123809Y26261762D01*
X42123809Y26261762D02*
X41933333Y26357000D01*
X41933333Y26357000D02*
X41742857Y26547477D01*
X41742857Y26547477D02*
X41647619Y26928429D01*
X41647619Y26928429D02*
X41647619Y27595096D01*
X41647619Y27595096D02*
X41742857Y27976048D01*
X41742857Y27976048D02*
X41933333Y28166524D01*
X41933333Y28166524D02*
X42123809Y28261762D01*
X43838095Y28261762D02*
X43838095Y26642715D01*
X43838095Y26642715D02*
X43933333Y26452239D01*
X43933333Y26452239D02*
X44028571Y26357000D01*
X44028571Y26357000D02*
X44219047Y26261762D01*
X44219047Y26261762D02*
X44600000Y26261762D01*
X44600000Y26261762D02*
X44790476Y26357000D01*
X44790476Y26357000D02*
X44885714Y26452239D01*
X44885714Y26452239D02*
X44980952Y26642715D01*
X44980952Y26642715D02*
X44980952Y28261762D01*
X45647619Y28261762D02*
X46790476Y28261762D01*
X46219047Y26261762D02*
X46219047Y28261762D01*
X31838094Y55209762D02*
X31171427Y56162143D01*
X30695237Y55209762D02*
X30695237Y57209762D01*
X30695237Y57209762D02*
X31457142Y57209762D01*
X31457142Y57209762D02*
X31647618Y57114524D01*
X31647618Y57114524D02*
X31742856Y57019286D01*
X31742856Y57019286D02*
X31838094Y56828810D01*
X31838094Y56828810D02*
X31838094Y56543096D01*
X31838094Y56543096D02*
X31742856Y56352620D01*
X31742856Y56352620D02*
X31647618Y56257381D01*
X31647618Y56257381D02*
X31457142Y56162143D01*
X31457142Y56162143D02*
X30695237Y56162143D01*
X33076189Y57209762D02*
X33457142Y57209762D01*
X33457142Y57209762D02*
X33647618Y57114524D01*
X33647618Y57114524D02*
X33838094Y56924048D01*
X33838094Y56924048D02*
X33933332Y56543096D01*
X33933332Y56543096D02*
X33933332Y55876429D01*
X33933332Y55876429D02*
X33838094Y55495477D01*
X33838094Y55495477D02*
X33647618Y55305000D01*
X33647618Y55305000D02*
X33457142Y55209762D01*
X33457142Y55209762D02*
X33076189Y55209762D01*
X33076189Y55209762D02*
X32885713Y55305000D01*
X32885713Y55305000D02*
X32695237Y55495477D01*
X32695237Y55495477D02*
X32599999Y55876429D01*
X32599999Y55876429D02*
X32599999Y56543096D01*
X32599999Y56543096D02*
X32695237Y56924048D01*
X32695237Y56924048D02*
X32885713Y57114524D01*
X32885713Y57114524D02*
X33076189Y57209762D01*
X34790475Y57209762D02*
X34790475Y55590715D01*
X34790475Y55590715D02*
X34885713Y55400239D01*
X34885713Y55400239D02*
X34980951Y55305000D01*
X34980951Y55305000D02*
X35171427Y55209762D01*
X35171427Y55209762D02*
X35552380Y55209762D01*
X35552380Y55209762D02*
X35742856Y55305000D01*
X35742856Y55305000D02*
X35838094Y55400239D01*
X35838094Y55400239D02*
X35933332Y55590715D01*
X35933332Y55590715D02*
X35933332Y57209762D01*
X36599999Y57209762D02*
X37742856Y57209762D01*
X37171427Y55209762D02*
X37171427Y57209762D01*
X38409523Y56257381D02*
X39076190Y56257381D01*
X39361904Y55209762D02*
X38409523Y55209762D01*
X38409523Y55209762D02*
X38409523Y57209762D01*
X38409523Y57209762D02*
X39361904Y57209762D01*
X42123809Y57209762D02*
X42504762Y57209762D01*
X42504762Y57209762D02*
X42695238Y57114524D01*
X42695238Y57114524D02*
X42885714Y56924048D01*
X42885714Y56924048D02*
X42980952Y56543096D01*
X42980952Y56543096D02*
X42980952Y55876429D01*
X42980952Y55876429D02*
X42885714Y55495477D01*
X42885714Y55495477D02*
X42695238Y55305000D01*
X42695238Y55305000D02*
X42504762Y55209762D01*
X42504762Y55209762D02*
X42123809Y55209762D01*
X42123809Y55209762D02*
X41933333Y55305000D01*
X41933333Y55305000D02*
X41742857Y55495477D01*
X41742857Y55495477D02*
X41647619Y55876429D01*
X41647619Y55876429D02*
X41647619Y56543096D01*
X41647619Y56543096D02*
X41742857Y56924048D01*
X41742857Y56924048D02*
X41933333Y57114524D01*
X41933333Y57114524D02*
X42123809Y57209762D01*
X43838095Y57209762D02*
X43838095Y55590715D01*
X43838095Y55590715D02*
X43933333Y55400239D01*
X43933333Y55400239D02*
X44028571Y55305000D01*
X44028571Y55305000D02*
X44219047Y55209762D01*
X44219047Y55209762D02*
X44600000Y55209762D01*
X44600000Y55209762D02*
X44790476Y55305000D01*
X44790476Y55305000D02*
X44885714Y55400239D01*
X44885714Y55400239D02*
X44980952Y55590715D01*
X44980952Y55590715D02*
X44980952Y57209762D01*
X45647619Y57209762D02*
X46790476Y57209762D01*
X46219047Y55209762D02*
X46219047Y57209762D01*
X31838094Y84157762D02*
X31171427Y85110143D01*
X30695237Y84157762D02*
X30695237Y86157762D01*
X30695237Y86157762D02*
X31457142Y86157762D01*
X31457142Y86157762D02*
X31647618Y86062524D01*
X31647618Y86062524D02*
X31742856Y85967286D01*
X31742856Y85967286D02*
X31838094Y85776810D01*
X31838094Y85776810D02*
X31838094Y85491096D01*
X31838094Y85491096D02*
X31742856Y85300620D01*
X31742856Y85300620D02*
X31647618Y85205381D01*
X31647618Y85205381D02*
X31457142Y85110143D01*
X31457142Y85110143D02*
X30695237Y85110143D01*
X33076189Y86157762D02*
X33457142Y86157762D01*
X33457142Y86157762D02*
X33647618Y86062524D01*
X33647618Y86062524D02*
X33838094Y85872048D01*
X33838094Y85872048D02*
X33933332Y85491096D01*
X33933332Y85491096D02*
X33933332Y84824429D01*
X33933332Y84824429D02*
X33838094Y84443477D01*
X33838094Y84443477D02*
X33647618Y84253000D01*
X33647618Y84253000D02*
X33457142Y84157762D01*
X33457142Y84157762D02*
X33076189Y84157762D01*
X33076189Y84157762D02*
X32885713Y84253000D01*
X32885713Y84253000D02*
X32695237Y84443477D01*
X32695237Y84443477D02*
X32599999Y84824429D01*
X32599999Y84824429D02*
X32599999Y85491096D01*
X32599999Y85491096D02*
X32695237Y85872048D01*
X32695237Y85872048D02*
X32885713Y86062524D01*
X32885713Y86062524D02*
X33076189Y86157762D01*
X34790475Y86157762D02*
X34790475Y84538715D01*
X34790475Y84538715D02*
X34885713Y84348239D01*
X34885713Y84348239D02*
X34980951Y84253000D01*
X34980951Y84253000D02*
X35171427Y84157762D01*
X35171427Y84157762D02*
X35552380Y84157762D01*
X35552380Y84157762D02*
X35742856Y84253000D01*
X35742856Y84253000D02*
X35838094Y84348239D01*
X35838094Y84348239D02*
X35933332Y84538715D01*
X35933332Y84538715D02*
X35933332Y86157762D01*
X36599999Y86157762D02*
X37742856Y86157762D01*
X37171427Y84157762D02*
X37171427Y86157762D01*
X38409523Y85205381D02*
X39076190Y85205381D01*
X39361904Y84157762D02*
X38409523Y84157762D01*
X38409523Y84157762D02*
X38409523Y86157762D01*
X38409523Y86157762D02*
X39361904Y86157762D01*
X42123809Y86157762D02*
X42504762Y86157762D01*
X42504762Y86157762D02*
X42695238Y86062524D01*
X42695238Y86062524D02*
X42885714Y85872048D01*
X42885714Y85872048D02*
X42980952Y85491096D01*
X42980952Y85491096D02*
X42980952Y84824429D01*
X42980952Y84824429D02*
X42885714Y84443477D01*
X42885714Y84443477D02*
X42695238Y84253000D01*
X42695238Y84253000D02*
X42504762Y84157762D01*
X42504762Y84157762D02*
X42123809Y84157762D01*
X42123809Y84157762D02*
X41933333Y84253000D01*
X41933333Y84253000D02*
X41742857Y84443477D01*
X41742857Y84443477D02*
X41647619Y84824429D01*
X41647619Y84824429D02*
X41647619Y85491096D01*
X41647619Y85491096D02*
X41742857Y85872048D01*
X41742857Y85872048D02*
X41933333Y86062524D01*
X41933333Y86062524D02*
X42123809Y86157762D01*
X43838095Y86157762D02*
X43838095Y84538715D01*
X43838095Y84538715D02*
X43933333Y84348239D01*
X43933333Y84348239D02*
X44028571Y84253000D01*
X44028571Y84253000D02*
X44219047Y84157762D01*
X44219047Y84157762D02*
X44600000Y84157762D01*
X44600000Y84157762D02*
X44790476Y84253000D01*
X44790476Y84253000D02*
X44885714Y84348239D01*
X44885714Y84348239D02*
X44980952Y84538715D01*
X44980952Y84538715D02*
X44980952Y86157762D01*
X45647619Y86157762D02*
X46790476Y86157762D01*
X46219047Y84157762D02*
X46219047Y86157762D01*
X31838094Y113105761D02*
X31171427Y114058142D01*
X30695237Y113105761D02*
X30695237Y115105761D01*
X30695237Y115105761D02*
X31457142Y115105761D01*
X31457142Y115105761D02*
X31647618Y115010523D01*
X31647618Y115010523D02*
X31742856Y114915285D01*
X31742856Y114915285D02*
X31838094Y114724809D01*
X31838094Y114724809D02*
X31838094Y114439095D01*
X31838094Y114439095D02*
X31742856Y114248619D01*
X31742856Y114248619D02*
X31647618Y114153380D01*
X31647618Y114153380D02*
X31457142Y114058142D01*
X31457142Y114058142D02*
X30695237Y114058142D01*
X33076189Y115105761D02*
X33457142Y115105761D01*
X33457142Y115105761D02*
X33647618Y115010523D01*
X33647618Y115010523D02*
X33838094Y114820047D01*
X33838094Y114820047D02*
X33933332Y114439095D01*
X33933332Y114439095D02*
X33933332Y113772428D01*
X33933332Y113772428D02*
X33838094Y113391476D01*
X33838094Y113391476D02*
X33647618Y113201000D01*
X33647618Y113201000D02*
X33457142Y113105761D01*
X33457142Y113105761D02*
X33076189Y113105761D01*
X33076189Y113105761D02*
X32885713Y113201000D01*
X32885713Y113201000D02*
X32695237Y113391476D01*
X32695237Y113391476D02*
X32599999Y113772428D01*
X32599999Y113772428D02*
X32599999Y114439095D01*
X32599999Y114439095D02*
X32695237Y114820047D01*
X32695237Y114820047D02*
X32885713Y115010523D01*
X32885713Y115010523D02*
X33076189Y115105761D01*
X34790475Y115105761D02*
X34790475Y113486714D01*
X34790475Y113486714D02*
X34885713Y113296238D01*
X34885713Y113296238D02*
X34980951Y113201000D01*
X34980951Y113201000D02*
X35171427Y113105761D01*
X35171427Y113105761D02*
X35552380Y113105761D01*
X35552380Y113105761D02*
X35742856Y113201000D01*
X35742856Y113201000D02*
X35838094Y113296238D01*
X35838094Y113296238D02*
X35933332Y113486714D01*
X35933332Y113486714D02*
X35933332Y115105761D01*
X36599999Y115105761D02*
X37742856Y115105761D01*
X37171427Y113105761D02*
X37171427Y115105761D01*
X38409523Y114153380D02*
X39076190Y114153380D01*
X39361904Y113105761D02*
X38409523Y113105761D01*
X38409523Y113105761D02*
X38409523Y115105761D01*
X38409523Y115105761D02*
X39361904Y115105761D01*
X42123809Y115105761D02*
X42504762Y115105761D01*
X42504762Y115105761D02*
X42695238Y115010523D01*
X42695238Y115010523D02*
X42885714Y114820047D01*
X42885714Y114820047D02*
X42980952Y114439095D01*
X42980952Y114439095D02*
X42980952Y113772428D01*
X42980952Y113772428D02*
X42885714Y113391476D01*
X42885714Y113391476D02*
X42695238Y113201000D01*
X42695238Y113201000D02*
X42504762Y113105761D01*
X42504762Y113105761D02*
X42123809Y113105761D01*
X42123809Y113105761D02*
X41933333Y113201000D01*
X41933333Y113201000D02*
X41742857Y113391476D01*
X41742857Y113391476D02*
X41647619Y113772428D01*
X41647619Y113772428D02*
X41647619Y114439095D01*
X41647619Y114439095D02*
X41742857Y114820047D01*
X41742857Y114820047D02*
X41933333Y115010523D01*
X41933333Y115010523D02*
X42123809Y115105761D01*
X43838095Y115105761D02*
X43838095Y113486714D01*
X43838095Y113486714D02*
X43933333Y113296238D01*
X43933333Y113296238D02*
X44028571Y113201000D01*
X44028571Y113201000D02*
X44219047Y113105761D01*
X44219047Y113105761D02*
X44600000Y113105761D01*
X44600000Y113105761D02*
X44790476Y113201000D01*
X44790476Y113201000D02*
X44885714Y113296238D01*
X44885714Y113296238D02*
X44980952Y113486714D01*
X44980952Y113486714D02*
X44980952Y115105761D01*
X45647619Y115105761D02*
X46790476Y115105761D01*
X46219047Y113105761D02*
X46219047Y115105761D01*
X31838094Y142053761D02*
X31171427Y143006142D01*
X30695237Y142053761D02*
X30695237Y144053761D01*
X30695237Y144053761D02*
X31457142Y144053761D01*
X31457142Y144053761D02*
X31647618Y143958523D01*
X31647618Y143958523D02*
X31742856Y143863285D01*
X31742856Y143863285D02*
X31838094Y143672809D01*
X31838094Y143672809D02*
X31838094Y143387095D01*
X31838094Y143387095D02*
X31742856Y143196619D01*
X31742856Y143196619D02*
X31647618Y143101380D01*
X31647618Y143101380D02*
X31457142Y143006142D01*
X31457142Y143006142D02*
X30695237Y143006142D01*
X33076189Y144053761D02*
X33457142Y144053761D01*
X33457142Y144053761D02*
X33647618Y143958523D01*
X33647618Y143958523D02*
X33838094Y143768047D01*
X33838094Y143768047D02*
X33933332Y143387095D01*
X33933332Y143387095D02*
X33933332Y142720428D01*
X33933332Y142720428D02*
X33838094Y142339476D01*
X33838094Y142339476D02*
X33647618Y142149000D01*
X33647618Y142149000D02*
X33457142Y142053761D01*
X33457142Y142053761D02*
X33076189Y142053761D01*
X33076189Y142053761D02*
X32885713Y142149000D01*
X32885713Y142149000D02*
X32695237Y142339476D01*
X32695237Y142339476D02*
X32599999Y142720428D01*
X32599999Y142720428D02*
X32599999Y143387095D01*
X32599999Y143387095D02*
X32695237Y143768047D01*
X32695237Y143768047D02*
X32885713Y143958523D01*
X32885713Y143958523D02*
X33076189Y144053761D01*
X34790475Y144053761D02*
X34790475Y142434714D01*
X34790475Y142434714D02*
X34885713Y142244238D01*
X34885713Y142244238D02*
X34980951Y142149000D01*
X34980951Y142149000D02*
X35171427Y142053761D01*
X35171427Y142053761D02*
X35552380Y142053761D01*
X35552380Y142053761D02*
X35742856Y142149000D01*
X35742856Y142149000D02*
X35838094Y142244238D01*
X35838094Y142244238D02*
X35933332Y142434714D01*
X35933332Y142434714D02*
X35933332Y144053761D01*
X36599999Y144053761D02*
X37742856Y144053761D01*
X37171427Y142053761D02*
X37171427Y144053761D01*
X38409523Y143101380D02*
X39076190Y143101380D01*
X39361904Y142053761D02*
X38409523Y142053761D01*
X38409523Y142053761D02*
X38409523Y144053761D01*
X38409523Y144053761D02*
X39361904Y144053761D01*
X42123809Y144053761D02*
X42504762Y144053761D01*
X42504762Y144053761D02*
X42695238Y143958523D01*
X42695238Y143958523D02*
X42885714Y143768047D01*
X42885714Y143768047D02*
X42980952Y143387095D01*
X42980952Y143387095D02*
X42980952Y142720428D01*
X42980952Y142720428D02*
X42885714Y142339476D01*
X42885714Y142339476D02*
X42695238Y142149000D01*
X42695238Y142149000D02*
X42504762Y142053761D01*
X42504762Y142053761D02*
X42123809Y142053761D01*
X42123809Y142053761D02*
X41933333Y142149000D01*
X41933333Y142149000D02*
X41742857Y142339476D01*
X41742857Y142339476D02*
X41647619Y142720428D01*
X41647619Y142720428D02*
X41647619Y143387095D01*
X41647619Y143387095D02*
X41742857Y143768047D01*
X41742857Y143768047D02*
X41933333Y143958523D01*
X41933333Y143958523D02*
X42123809Y144053761D01*
X43838095Y144053761D02*
X43838095Y142434714D01*
X43838095Y142434714D02*
X43933333Y142244238D01*
X43933333Y142244238D02*
X44028571Y142149000D01*
X44028571Y142149000D02*
X44219047Y142053761D01*
X44219047Y142053761D02*
X44600000Y142053761D01*
X44600000Y142053761D02*
X44790476Y142149000D01*
X44790476Y142149000D02*
X44885714Y142244238D01*
X44885714Y142244238D02*
X44980952Y142434714D01*
X44980952Y142434714D02*
X44980952Y144053761D01*
X45647619Y144053761D02*
X46790476Y144053761D01*
X46219047Y142053761D02*
X46219047Y144053761D01*
X76362238Y153694949D02*
X78362238Y154361615D01*
X78362238Y154361615D02*
X76362238Y155028282D01*
X77600333Y155694949D02*
X77600333Y157218759D01*
X78267000Y158075901D02*
X78362238Y158361615D01*
X78362238Y158361615D02*
X78362238Y158837806D01*
X78362238Y158837806D02*
X78267000Y159028282D01*
X78267000Y159028282D02*
X78171761Y159123520D01*
X78171761Y159123520D02*
X77981285Y159218758D01*
X77981285Y159218758D02*
X77790809Y159218758D01*
X77790809Y159218758D02*
X77600333Y159123520D01*
X77600333Y159123520D02*
X77505095Y159028282D01*
X77505095Y159028282D02*
X77409857Y158837806D01*
X77409857Y158837806D02*
X77314619Y158456853D01*
X77314619Y158456853D02*
X77219380Y158266377D01*
X77219380Y158266377D02*
X77124142Y158171139D01*
X77124142Y158171139D02*
X76933666Y158075901D01*
X76933666Y158075901D02*
X76743190Y158075901D01*
X76743190Y158075901D02*
X76552714Y158171139D01*
X76552714Y158171139D02*
X76457476Y158266377D01*
X76457476Y158266377D02*
X76362238Y158456853D01*
X76362238Y158456853D02*
X76362238Y158933044D01*
X76362238Y158933044D02*
X76457476Y159218758D01*
X78171761Y161218758D02*
X78267000Y161123520D01*
X78267000Y161123520D02*
X78362238Y160837806D01*
X78362238Y160837806D02*
X78362238Y160647330D01*
X78362238Y160647330D02*
X78267000Y160361615D01*
X78267000Y160361615D02*
X78076523Y160171139D01*
X78076523Y160171139D02*
X77886047Y160075901D01*
X77886047Y160075901D02*
X77505095Y159980663D01*
X77505095Y159980663D02*
X77219380Y159980663D01*
X77219380Y159980663D02*
X76838428Y160075901D01*
X76838428Y160075901D02*
X76647952Y160171139D01*
X76647952Y160171139D02*
X76457476Y160361615D01*
X76457476Y160361615D02*
X76362238Y160647330D01*
X76362238Y160647330D02*
X76362238Y160837806D01*
X76362238Y160837806D02*
X76457476Y161123520D01*
X76457476Y161123520D02*
X76552714Y161218758D01*
X76362238Y162456853D02*
X76362238Y162837806D01*
X76362238Y162837806D02*
X76457476Y163028282D01*
X76457476Y163028282D02*
X76647952Y163218758D01*
X76647952Y163218758D02*
X77028904Y163313996D01*
X77028904Y163313996D02*
X77695571Y163313996D01*
X77695571Y163313996D02*
X78076523Y163218758D01*
X78076523Y163218758D02*
X78267000Y163028282D01*
X78267000Y163028282D02*
X78362238Y162837806D01*
X78362238Y162837806D02*
X78362238Y162456853D01*
X78362238Y162456853D02*
X78267000Y162266377D01*
X78267000Y162266377D02*
X78076523Y162075901D01*
X78076523Y162075901D02*
X77695571Y161980663D01*
X77695571Y161980663D02*
X77028904Y161980663D01*
X77028904Y161980663D02*
X76647952Y162075901D01*
X76647952Y162075901D02*
X76457476Y162266377D01*
X76457476Y162266377D02*
X76362238Y162456853D01*
X78362238Y165313996D02*
X77409857Y164647329D01*
X78362238Y164171139D02*
X76362238Y164171139D01*
X76362238Y164171139D02*
X76362238Y164933044D01*
X76362238Y164933044D02*
X76457476Y165123520D01*
X76457476Y165123520D02*
X76552714Y165218758D01*
X76552714Y165218758D02*
X76743190Y165313996D01*
X76743190Y165313996D02*
X77028904Y165313996D01*
X77028904Y165313996D02*
X77219380Y165218758D01*
X77219380Y165218758D02*
X77314619Y165123520D01*
X77314619Y165123520D02*
X77409857Y164933044D01*
X77409857Y164933044D02*
X77409857Y164171139D01*
X77314619Y166171139D02*
X77314619Y166837806D01*
X78362238Y167123520D02*
X78362238Y166171139D01*
X78362238Y166171139D02*
X76362238Y166171139D01*
X76362238Y166171139D02*
X76362238Y167123520D01*
D12*
X77450000Y151340000D02*
X77450000Y-10148000D01*
D11*
X50462238Y153694949D02*
X52462238Y154361615D01*
X52462238Y154361615D02*
X50462238Y155028282D01*
X51700333Y155694949D02*
X51700333Y157218759D01*
X52367000Y158075901D02*
X52462238Y158361615D01*
X52462238Y158361615D02*
X52462238Y158837806D01*
X52462238Y158837806D02*
X52367000Y159028282D01*
X52367000Y159028282D02*
X52271761Y159123520D01*
X52271761Y159123520D02*
X52081285Y159218758D01*
X52081285Y159218758D02*
X51890809Y159218758D01*
X51890809Y159218758D02*
X51700333Y159123520D01*
X51700333Y159123520D02*
X51605095Y159028282D01*
X51605095Y159028282D02*
X51509857Y158837806D01*
X51509857Y158837806D02*
X51414619Y158456853D01*
X51414619Y158456853D02*
X51319380Y158266377D01*
X51319380Y158266377D02*
X51224142Y158171139D01*
X51224142Y158171139D02*
X51033666Y158075901D01*
X51033666Y158075901D02*
X50843190Y158075901D01*
X50843190Y158075901D02*
X50652714Y158171139D01*
X50652714Y158171139D02*
X50557476Y158266377D01*
X50557476Y158266377D02*
X50462238Y158456853D01*
X50462238Y158456853D02*
X50462238Y158933044D01*
X50462238Y158933044D02*
X50557476Y159218758D01*
X52271761Y161218758D02*
X52367000Y161123520D01*
X52367000Y161123520D02*
X52462238Y160837806D01*
X52462238Y160837806D02*
X52462238Y160647330D01*
X52462238Y160647330D02*
X52367000Y160361615D01*
X52367000Y160361615D02*
X52176523Y160171139D01*
X52176523Y160171139D02*
X51986047Y160075901D01*
X51986047Y160075901D02*
X51605095Y159980663D01*
X51605095Y159980663D02*
X51319380Y159980663D01*
X51319380Y159980663D02*
X50938428Y160075901D01*
X50938428Y160075901D02*
X50747952Y160171139D01*
X50747952Y160171139D02*
X50557476Y160361615D01*
X50557476Y160361615D02*
X50462238Y160647330D01*
X50462238Y160647330D02*
X50462238Y160837806D01*
X50462238Y160837806D02*
X50557476Y161123520D01*
X50557476Y161123520D02*
X50652714Y161218758D01*
X50462238Y162456853D02*
X50462238Y162837806D01*
X50462238Y162837806D02*
X50557476Y163028282D01*
X50557476Y163028282D02*
X50747952Y163218758D01*
X50747952Y163218758D02*
X51128904Y163313996D01*
X51128904Y163313996D02*
X51795571Y163313996D01*
X51795571Y163313996D02*
X52176523Y163218758D01*
X52176523Y163218758D02*
X52367000Y163028282D01*
X52367000Y163028282D02*
X52462238Y162837806D01*
X52462238Y162837806D02*
X52462238Y162456853D01*
X52462238Y162456853D02*
X52367000Y162266377D01*
X52367000Y162266377D02*
X52176523Y162075901D01*
X52176523Y162075901D02*
X51795571Y161980663D01*
X51795571Y161980663D02*
X51128904Y161980663D01*
X51128904Y161980663D02*
X50747952Y162075901D01*
X50747952Y162075901D02*
X50557476Y162266377D01*
X50557476Y162266377D02*
X50462238Y162456853D01*
X52462238Y165313996D02*
X51509857Y164647329D01*
X52462238Y164171139D02*
X50462238Y164171139D01*
X50462238Y164171139D02*
X50462238Y164933044D01*
X50462238Y164933044D02*
X50557476Y165123520D01*
X50557476Y165123520D02*
X50652714Y165218758D01*
X50652714Y165218758D02*
X50843190Y165313996D01*
X50843190Y165313996D02*
X51128904Y165313996D01*
X51128904Y165313996D02*
X51319380Y165218758D01*
X51319380Y165218758D02*
X51414619Y165123520D01*
X51414619Y165123520D02*
X51509857Y164933044D01*
X51509857Y164933044D02*
X51509857Y164171139D01*
X51414619Y166171139D02*
X51414619Y166837806D01*
X52462238Y167123520D02*
X52462238Y166171139D01*
X52462238Y166171139D02*
X50462238Y166171139D01*
X50462238Y166171139D02*
X50462238Y167123520D01*
D12*
X51550000Y151340000D02*
X51550000Y-10148000D01*
D11*
X24562238Y153694949D02*
X26562238Y154361615D01*
X26562238Y154361615D02*
X24562238Y155028282D01*
X25800333Y155694949D02*
X25800333Y157218759D01*
X26467000Y158075901D02*
X26562238Y158361615D01*
X26562238Y158361615D02*
X26562238Y158837806D01*
X26562238Y158837806D02*
X26467000Y159028282D01*
X26467000Y159028282D02*
X26371761Y159123520D01*
X26371761Y159123520D02*
X26181285Y159218758D01*
X26181285Y159218758D02*
X25990809Y159218758D01*
X25990809Y159218758D02*
X25800333Y159123520D01*
X25800333Y159123520D02*
X25705095Y159028282D01*
X25705095Y159028282D02*
X25609857Y158837806D01*
X25609857Y158837806D02*
X25514619Y158456853D01*
X25514619Y158456853D02*
X25419380Y158266377D01*
X25419380Y158266377D02*
X25324142Y158171139D01*
X25324142Y158171139D02*
X25133666Y158075901D01*
X25133666Y158075901D02*
X24943190Y158075901D01*
X24943190Y158075901D02*
X24752714Y158171139D01*
X24752714Y158171139D02*
X24657476Y158266377D01*
X24657476Y158266377D02*
X24562238Y158456853D01*
X24562238Y158456853D02*
X24562238Y158933044D01*
X24562238Y158933044D02*
X24657476Y159218758D01*
X26371761Y161218758D02*
X26467000Y161123520D01*
X26467000Y161123520D02*
X26562238Y160837806D01*
X26562238Y160837806D02*
X26562238Y160647330D01*
X26562238Y160647330D02*
X26467000Y160361615D01*
X26467000Y160361615D02*
X26276523Y160171139D01*
X26276523Y160171139D02*
X26086047Y160075901D01*
X26086047Y160075901D02*
X25705095Y159980663D01*
X25705095Y159980663D02*
X25419380Y159980663D01*
X25419380Y159980663D02*
X25038428Y160075901D01*
X25038428Y160075901D02*
X24847952Y160171139D01*
X24847952Y160171139D02*
X24657476Y160361615D01*
X24657476Y160361615D02*
X24562238Y160647330D01*
X24562238Y160647330D02*
X24562238Y160837806D01*
X24562238Y160837806D02*
X24657476Y161123520D01*
X24657476Y161123520D02*
X24752714Y161218758D01*
X24562238Y162456853D02*
X24562238Y162837806D01*
X24562238Y162837806D02*
X24657476Y163028282D01*
X24657476Y163028282D02*
X24847952Y163218758D01*
X24847952Y163218758D02*
X25228904Y163313996D01*
X25228904Y163313996D02*
X25895571Y163313996D01*
X25895571Y163313996D02*
X26276523Y163218758D01*
X26276523Y163218758D02*
X26467000Y163028282D01*
X26467000Y163028282D02*
X26562238Y162837806D01*
X26562238Y162837806D02*
X26562238Y162456853D01*
X26562238Y162456853D02*
X26467000Y162266377D01*
X26467000Y162266377D02*
X26276523Y162075901D01*
X26276523Y162075901D02*
X25895571Y161980663D01*
X25895571Y161980663D02*
X25228904Y161980663D01*
X25228904Y161980663D02*
X24847952Y162075901D01*
X24847952Y162075901D02*
X24657476Y162266377D01*
X24657476Y162266377D02*
X24562238Y162456853D01*
X26562238Y165313996D02*
X25609857Y164647329D01*
X26562238Y164171139D02*
X24562238Y164171139D01*
X24562238Y164171139D02*
X24562238Y164933044D01*
X24562238Y164933044D02*
X24657476Y165123520D01*
X24657476Y165123520D02*
X24752714Y165218758D01*
X24752714Y165218758D02*
X24943190Y165313996D01*
X24943190Y165313996D02*
X25228904Y165313996D01*
X25228904Y165313996D02*
X25419380Y165218758D01*
X25419380Y165218758D02*
X25514619Y165123520D01*
X25514619Y165123520D02*
X25609857Y164933044D01*
X25609857Y164933044D02*
X25609857Y164171139D01*
X25514619Y166171139D02*
X25514619Y166837806D01*
X26562238Y167123520D02*
X26562238Y166171139D01*
X26562238Y166171139D02*
X24562238Y166171139D01*
X24562238Y166171139D02*
X24562238Y167123520D01*
D12*
X25650000Y151340000D02*
X25650000Y-10148000D01*
D11*
X-1337762Y153694949D02*
X662238Y154361615D01*
X662238Y154361615D02*
X-1337762Y155028282D01*
X-99667Y155694949D02*
X-99667Y157218759D01*
X567000Y158075901D02*
X662238Y158361615D01*
X662238Y158361615D02*
X662238Y158837806D01*
X662238Y158837806D02*
X567000Y159028282D01*
X567000Y159028282D02*
X471761Y159123520D01*
X471761Y159123520D02*
X281285Y159218758D01*
X281285Y159218758D02*
X90809Y159218758D01*
X90809Y159218758D02*
X-99667Y159123520D01*
X-99667Y159123520D02*
X-194905Y159028282D01*
X-194905Y159028282D02*
X-290143Y158837806D01*
X-290143Y158837806D02*
X-385381Y158456853D01*
X-385381Y158456853D02*
X-480620Y158266377D01*
X-480620Y158266377D02*
X-575858Y158171139D01*
X-575858Y158171139D02*
X-766334Y158075901D01*
X-766334Y158075901D02*
X-956810Y158075901D01*
X-956810Y158075901D02*
X-1147286Y158171139D01*
X-1147286Y158171139D02*
X-1242524Y158266377D01*
X-1242524Y158266377D02*
X-1337762Y158456853D01*
X-1337762Y158456853D02*
X-1337762Y158933044D01*
X-1337762Y158933044D02*
X-1242524Y159218758D01*
X471761Y161218758D02*
X567000Y161123520D01*
X567000Y161123520D02*
X662238Y160837806D01*
X662238Y160837806D02*
X662238Y160647330D01*
X662238Y160647330D02*
X567000Y160361615D01*
X567000Y160361615D02*
X376523Y160171139D01*
X376523Y160171139D02*
X186047Y160075901D01*
X186047Y160075901D02*
X-194905Y159980663D01*
X-194905Y159980663D02*
X-480620Y159980663D01*
X-480620Y159980663D02*
X-861572Y160075901D01*
X-861572Y160075901D02*
X-1052048Y160171139D01*
X-1052048Y160171139D02*
X-1242524Y160361615D01*
X-1242524Y160361615D02*
X-1337762Y160647330D01*
X-1337762Y160647330D02*
X-1337762Y160837806D01*
X-1337762Y160837806D02*
X-1242524Y161123520D01*
X-1242524Y161123520D02*
X-1147286Y161218758D01*
X-1337762Y162456853D02*
X-1337762Y162837806D01*
X-1337762Y162837806D02*
X-1242524Y163028282D01*
X-1242524Y163028282D02*
X-1052048Y163218758D01*
X-1052048Y163218758D02*
X-671096Y163313996D01*
X-671096Y163313996D02*
X-4429Y163313996D01*
X-4429Y163313996D02*
X376523Y163218758D01*
X376523Y163218758D02*
X567000Y163028282D01*
X567000Y163028282D02*
X662238Y162837806D01*
X662238Y162837806D02*
X662238Y162456853D01*
X662238Y162456853D02*
X567000Y162266377D01*
X567000Y162266377D02*
X376523Y162075901D01*
X376523Y162075901D02*
X-4429Y161980663D01*
X-4429Y161980663D02*
X-671096Y161980663D01*
X-671096Y161980663D02*
X-1052048Y162075901D01*
X-1052048Y162075901D02*
X-1242524Y162266377D01*
X-1242524Y162266377D02*
X-1337762Y162456853D01*
X662238Y165313996D02*
X-290143Y164647329D01*
X662238Y164171139D02*
X-1337762Y164171139D01*
X-1337762Y164171139D02*
X-1337762Y164933044D01*
X-1337762Y164933044D02*
X-1242524Y165123520D01*
X-1242524Y165123520D02*
X-1147286Y165218758D01*
X-1147286Y165218758D02*
X-956810Y165313996D01*
X-956810Y165313996D02*
X-671096Y165313996D01*
X-671096Y165313996D02*
X-480620Y165218758D01*
X-480620Y165218758D02*
X-385381Y165123520D01*
X-385381Y165123520D02*
X-290143Y164933044D01*
X-290143Y164933044D02*
X-290143Y164171139D01*
X-385381Y166171139D02*
X-385381Y166837806D01*
X662238Y167123520D02*
X662238Y166171139D01*
X662238Y166171139D02*
X-1337762Y166171139D01*
X-1337762Y166171139D02*
X-1337762Y167123520D01*
D12*
X-250000Y151340000D02*
X-250000Y-10148000D01*
M02*
