M48
;GenerationSoftware,Autodesk,EAGLE,9.6.2*%
;CreationDate,2022-06-16T15:33:58Z*%
FMAT,2
ICI,OFF
METRIC,TZ,000.000
T5C0.254
T4C0.381
T3C0.650
T2C1.016
T1C3.302
%
G90
M71
T1
X113792Y2540
X96012Y2540
X96012Y86360
X49276Y2540
X25908Y2540
X113792Y86360
X43688Y2540
X90424Y2540
X49276Y86360
X67056Y86360
X20320Y86360
X72644Y2540
X2540Y86360
X2540Y2540
X20320Y2540
X67056Y2540
X72644Y86360
X90424Y86360
X43688Y86360
X25908Y86360
T2
X24638Y148590
X24638Y151130
X44958Y151130
X44958Y148590
X44958Y146050
X44958Y143510
X44958Y140970
X24638Y135890
X24638Y133350
X24638Y130810
X24638Y128270
X24638Y125730
X24638Y123190
X24638Y120650
X24638Y118110
X24638Y115570
X24638Y113030
X24638Y110490
X24638Y107950
X44958Y97790
X44958Y100330
X44958Y102870
X44958Y105410
X44958Y107950
X44958Y110490
X44958Y113030
X44958Y115570
X44958Y118110
X44958Y120650
X44958Y123190
X44958Y125730
X44958Y128270
X44958Y130810
X44958Y133350
X44958Y135890
X1270Y140970
X1270Y143510
X1270Y146050
X1270Y148590
X1270Y151130
X21590Y151130
X21590Y148590
X21590Y146050
X21590Y143510
X21590Y140970
X1270Y135890
X1270Y133350
X1270Y130810
X1270Y128270
X1270Y125730
X1270Y123190
X1270Y120650
X1270Y118110
X1270Y115570
X1270Y113030
X1270Y110490
X1270Y107950
X21590Y97790
X21590Y100330
X21590Y102870
X21590Y105410
X21590Y107950
X21590Y110490
X21590Y113030
X21590Y115570
X21590Y118110
X21590Y120650
X21590Y123190
X21590Y125730
X21590Y128270
X21590Y130810
X21590Y133350
X21590Y135890
X94742Y57150
X94742Y59690
X94742Y62230
X94742Y64770
X94742Y67310
X115062Y67310
X115062Y64770
X115062Y62230
X115062Y59690
X115062Y57150
X94742Y52070
X94742Y49530
X94742Y46990
X94742Y44450
X94742Y41910
X94742Y39370
X94742Y36830
X94742Y34290
X94742Y31750
X94742Y29210
X94742Y26670
X94742Y24130
X115062Y13970
X115062Y16510
X115062Y19050
X115062Y21590
X115062Y24130
X115062Y26670
X115062Y29210
X115062Y31750
X115062Y34290
X115062Y36830
X115062Y39370
X115062Y41910
X115062Y44450
X115062Y46990
X115062Y49530
X115062Y52070
X71374Y57150
X71374Y59690
X71374Y62230
X71374Y64770
X71374Y67310
X91694Y67310
X91694Y64770
X91694Y62230
X91694Y59690
X91694Y57150
X71374Y52070
X71374Y49530
X71374Y46990
X71374Y44450
X71374Y41910
X71374Y39370
X71374Y36830
X71374Y34290
X71374Y31750
X71374Y29210
X71374Y26670
X71374Y24130
X91694Y13970
X91694Y16510
X91694Y19050
X91694Y21590
X91694Y24130
X91694Y26670
X91694Y29210
X91694Y31750
X91694Y34290
X91694Y36830
X91694Y39370
X91694Y41910
X91694Y44450
X91694Y46990
X91694Y49530
X91694Y52070
X48006Y57150
X48006Y59690
X48006Y62230
X48006Y64770
X48006Y67310
X68326Y67310
X68326Y64770
X68326Y62230
X68326Y59690
X68326Y57150
X48006Y52070
X48006Y49530
X48006Y46990
X48006Y44450
X48006Y41910
X48006Y39370
X48006Y36830
X48006Y34290
X48006Y31750
X48006Y29210
X48006Y26670
X48006Y24130
X68326Y13970
X68326Y16510
X68326Y19050
X68326Y21590
X68326Y24130
X68326Y26670
X68326Y29210
X68326Y34290
X68326Y36830
X68326Y39370
X68326Y41910
X68326Y44450
X68326Y46990
X68326Y49530
X68326Y52070
X24638Y57150
X24638Y59690
X24638Y62230
X24638Y64770
X24638Y67310
X44958Y67310
X44958Y64770
X44958Y62230
X44958Y59690
X44958Y57150
X24638Y52070
X24638Y49530
X24638Y46990
X24638Y44450
X24638Y41910
X24638Y39370
X24638Y36830
X24638Y34290
X24638Y31750
X24638Y29210
X24638Y26670
X24638Y24130
X44958Y13970
X44958Y16510
X44958Y19050
X44958Y21590
X44958Y24130
X44958Y26670
X44958Y29210
X44958Y31750
X44958Y34290
X44958Y36830
X44958Y39370
X44958Y41910
X44958Y44450
X44958Y46990
X44958Y49530
X44958Y52070
X1270Y57150
X1270Y59690
X1270Y62230
X1270Y64770
X1270Y67310
X21590Y67310
X21590Y64770
X21590Y62230
X21590Y59690
X21590Y57150
X1270Y52070
X1270Y49530
X1270Y46990
X1270Y44450
X1270Y41910
X1270Y39370
X1270Y36830
X1270Y34290
X1270Y31750
X1270Y29210
X1270Y26670
X1270Y24130
X21590Y13970
X21590Y16510
X21590Y19050
X21590Y21590
X21590Y24130
X21590Y26670
X21590Y29210
X21590Y31750
X21590Y34290
X21590Y36830
X21590Y39370
X21590Y41910
X68326Y31750
X94742Y143510
X94742Y146050
X94742Y148590
X94742Y151130
X115062Y151130
X115062Y148590
X115062Y146050
X115062Y143510
X94742Y140970
X115062Y140970
X94742Y135890
X94742Y133350
X94742Y130810
X94742Y128270
X94742Y125730
X94742Y123190
X94742Y120650
X94742Y118110
X94742Y115570
X21590Y44450
X21590Y46990
X21590Y49530
X94742Y113030
X21590Y52070
X94742Y110490
X94742Y107950
X115062Y97790
X115062Y100330
X115062Y102870
X115062Y105410
X115062Y107950
X115062Y110490
X115062Y113030
X115062Y115570
X115062Y118110
X115062Y120650
X115062Y123190
X115062Y125730
X115062Y128270
X115062Y130810
X115062Y133350
X115062Y135890
X71374Y140970
X71374Y143510
X71374Y146050
X71374Y148590
X71374Y151130
X91694Y151130
X91694Y148590
X91694Y146050
X91694Y143510
X91694Y140970
X71374Y135890
X71374Y133350
X71374Y130810
X71374Y128270
X71374Y125730
X71374Y123190
X71374Y120650
X71374Y118110
X71374Y115570
X71374Y113030
X71374Y110490
X71374Y107950
X91694Y97790
X91694Y100330
X24638Y143510
X24638Y146050
X91694Y102870
X91694Y105410
X91694Y107950
X91694Y110490
X91694Y113030
X91694Y115570
X91694Y118110
X91694Y120650
X91694Y123190
X91694Y125730
X91694Y128270
X91694Y130810
X91694Y133350
X91694Y135890
X48006Y140970
X48006Y143510
X48006Y146050
X48006Y148590
X48006Y151130
X68326Y151130
X68326Y148590
X68326Y146050
X68326Y143510
X68326Y140970
X48006Y135890
X48006Y133350
X48006Y130810
X48006Y128270
X48006Y125730
X48006Y123190
X48006Y120650
X48006Y118110
X48006Y115570
X48006Y113030
X48006Y110490
X48006Y107950
X68326Y97790
X68326Y100330
X68326Y102870
X68326Y105410
X68326Y107950
X68326Y110490
X68326Y113030
X68326Y115570
X68326Y118110
X68326Y120650
X68326Y123190
X68326Y125730
X68326Y128270
X68326Y130810
X68326Y133350
X68326Y135890
X24638Y140970
T3
X78644Y88979
X31908Y88979
X37688Y88979
X61056Y88979
X55276Y88979
X8540Y5159
X37688Y5159
X31908Y5159
X78644Y5159
X84424Y5159
X61056Y5159
X14320Y5159
X55276Y5159
X102012Y5159
X107792Y5159
X107792Y88979
X102012Y88979
X14320Y88979
X8540Y88979
X84424Y88979
T4
X6358Y9942
X10048Y111125
X10251Y29180
X13365Y39400
X13383Y40249
X14501Y40239
X14508Y39362
X9586Y29180
X9576Y29863
X10221Y29853
X10546Y101857
X33922Y18793
X36454Y22779
X29413Y21285
X30183Y21288
X36449Y23584
X10554Y102613
X13086Y106599
X6045Y105105
X6815Y105108
X13081Y107404
X29726Y93762
X33619Y113000
X29726Y9942
X36733Y123220
X33619Y29180
X36733Y39400
X36751Y40249
X37869Y40239
X37876Y39362
X32954Y29180
X32944Y29863
X33589Y29853
X36751Y124069
X37869Y124059
X37876Y123182
X32954Y113000
X32944Y113683
X33589Y113673
X79680Y29863
X37234Y91112
X32342Y91110
X33416Y111125
X33914Y101857
X33922Y102613
X36454Y106599
X29413Y105105
X30183Y105108
X36449Y107404
X53094Y93762
X56987Y113000
X60101Y123220
X60119Y124069
X61237Y124059
X61244Y123182
X56322Y113000
X56312Y113683
X56957Y113673
X60602Y91112
X55710Y91110
X56784Y111125
X57282Y101857
X60602Y7292
X53094Y9942
X55710Y7290
X56987Y29180
X60101Y39400
X60119Y40249
X61237Y40239
X61244Y39362
X56322Y29180
X56312Y29863
X56957Y29853
X56784Y27305
X57290Y102613
X57282Y18037
X59822Y106599
X52781Y105105
X53551Y105108
X57290Y18793
X59822Y22779
X52781Y21285
X53551Y21288
X59817Y23584
X59817Y107404
X76462Y93762
X80355Y113000
X83469Y123220
X83487Y124069
X84605Y124059
X84612Y123182
X79690Y113000
X79680Y113683
X80325Y113673
X83970Y91112
X79078Y91110
X80152Y111125
X80650Y101857
X80658Y102613
X83190Y106599
X76149Y105105
X76919Y105108
X83185Y107404
X99830Y93762
X103723Y113000
X106837Y123220
X106855Y124069
X107973Y124059
X107980Y123182
X103058Y113000
X103048Y113683
X103693Y113673
X107338Y91112
X102446Y91110
X103520Y111125
X104018Y101857
X104026Y102613
X106558Y106599
X99517Y105105
X100287Y105108
X106553Y107404
X83970Y7292
X76462Y9942
X79078Y7290
X80355Y29180
X83469Y39400
X83487Y40249
X84605Y40239
X84612Y39362
X79690Y29180
X80152Y27305
X80325Y29853
X80650Y18037
X80658Y18793
X83190Y22779
X76149Y21285
X76919Y21288
X83185Y23584
X99830Y9942
X103723Y29180
X106837Y39400
X106855Y40249
X107973Y40239
X13866Y7292
X8974Y7290
X10048Y27305
X107980Y39362
X10546Y18037
X103058Y29180
X103048Y29863
X103693Y29853
X10554Y18793
X13086Y22779
X6045Y21285
X6815Y21288
X13081Y23584
X107338Y7292
X102446Y7290
X103520Y27305
X104018Y18037
X104026Y18793
X106558Y22779
X99517Y21285
X100287Y21288
X106553Y23584
X6358Y93762
X10251Y113000
X13365Y123220
X13383Y124069
X14501Y124059
X14508Y123182
X9586Y113000
X9576Y113683
X10221Y113673
X37234Y7292
X32342Y7290
X33416Y27305
X13866Y91112
X33914Y18037
X8974Y91110
T5
X13830Y11656
X16081Y16393
X7572Y7300
X6652Y7343
X15270Y7249
X16241Y7249
X12464Y14298
X10561Y40442
X12200Y24900
X13020Y27297
X13165Y17305
X13772Y10836
X13307Y30272
X5519Y24722
X6175Y26568
X7587Y15710
X6215Y15735
X4590Y15837
X4336Y16523
X4310Y17158
X6927Y15710
X15217Y16393
X16132Y17384
X17046Y16393
X16106Y15428
X9919Y15344
X17752Y1252
X21562Y5062
X5052Y1252
X1242Y5062
X1273Y15893
X1262Y19540
X21941Y7808
X22012Y10818
X12832Y7991
X10013Y7991
X13315Y9185
X5199Y19901
X7079Y20511
X4006Y23127
X3388Y27818
X9619Y17844
X7282Y17844
X9911Y11242
X11257Y30300
X8461Y30706
X9027Y33640
X11433Y33586
X13183Y33574
X15748Y33505
X17948Y33492
X17094Y36007
X15486Y36038
X13698Y36022
X18049Y40737
X15357Y40406
X8600Y39408
X1918Y43180
X5062Y37823
X5217Y32720
X21565Y54079
X3907Y55893
X3807Y58905
X4308Y63713
X2517Y58440
X2169Y8443
X3782Y9703
X5037Y11768
X9017Y36124
X5184Y35946
X3305Y33523
X9716Y12753
X5052Y3792
X17752Y3792
X11440Y7783
X16838Y66358
X13218Y66370
X9634Y66383
X5989Y66370
X6025Y64475
X9670Y64458
X13259Y64475
X16810Y64437
X5992Y60983
X9583Y60950
X13238Y60917
X16861Y60947
X16861Y59126
X13256Y59091
X9578Y59144
X6063Y59144
X6022Y57335
X9629Y57335
X13251Y57353
X16858Y57305
X16843Y55486
X13236Y55552
X9662Y55570
X6040Y55570
X6040Y53767
X9695Y53782
X13251Y53764
X16858Y53647
X16876Y50165
X13251Y50147
X9609Y50147
X5928Y50239
X5949Y48275
X9591Y48311
X13287Y48257
X16873Y48222
X5984Y46492
X9609Y46563
X13287Y46563
X16947Y46619
X16894Y42977
X13160Y42956
X9583Y62626
X13244Y62644
X16850Y62715
X6030Y62824
X6063Y52088
X9708Y52179
X13233Y52009
X16843Y52009
X16906Y44587
X13277Y44694
X18839Y27699
X9091Y34590
X17579Y37724
X4013Y42901
X20173Y62393
X20104Y64234
X19337Y25872
X13081Y19050
X19774Y14676
X17831Y6629
X11435Y10036
X14021Y25400
X19677Y9776
X14194Y30094
X9588Y44671
X3785Y8890
X2794Y8865
X10185Y26162
X8966Y23089
X10312Y23960
X17089Y20104
X12540Y17940
X16157Y19482
X16789Y11481
X20549Y61110
X17427Y36934
X3818Y57300
X17254Y40234
X4549Y58829
X17313Y38550
X2484Y60472
X16845Y51021
X3975Y63144
X16871Y49116
X2489Y63922
X10752Y35662
X4295Y35847
X9802Y36510
X3307Y37828
X9992Y35062
X3419Y35420
X10005Y34287
X3749Y33002
X9677Y4724
X15126Y28153
X11176Y5326
X12187Y5316
X18669Y20317
X19009Y23282
X37198Y11656
X39449Y16393
X30940Y7300
X30020Y7343
X38638Y7249
X39609Y7249
X35832Y14298
X33929Y40442
X35568Y24900
X36388Y27297
X36533Y17305
X37140Y10836
X36675Y30272
X28887Y24722
X29543Y26568
X30955Y15710
X29583Y15735
X27958Y15837
X27704Y16523
X27678Y17158
X30295Y15710
X38585Y16393
X39500Y17384
X40414Y16393
X39474Y15428
X33287Y15344
X41120Y1252
X44930Y5062
X28420Y1252
X24610Y5062
X24641Y15893
X24630Y19540
X45309Y7808
X45380Y10818
X36200Y7991
X33381Y7991
X36683Y9185
X28567Y19901
X30447Y20511
X27374Y23127
X26756Y27818
X32987Y17844
X30650Y17844
X33279Y11242
X34625Y30300
X31829Y30706
X32395Y33640
X34801Y33586
X36551Y33574
X39116Y33505
X41316Y33492
X40462Y36007
X38854Y36038
X37066Y36022
X41417Y40737
X38725Y40406
X31968Y39408
X25286Y43180
X28430Y37823
X28585Y32720
X44933Y54079
X27275Y55893
X27175Y58905
X27676Y63713
X25885Y58440
X25537Y8443
X27150Y9703
X28405Y11768
X32385Y36124
X28552Y35946
X26673Y33523
X33084Y12753
X28420Y3792
X41120Y3792
X34808Y7783
X40206Y66358
X36586Y66370
X33002Y66383
X29357Y66370
X29393Y64475
X33038Y64458
X36627Y64475
X40178Y64437
X29360Y60983
X32951Y60950
X36606Y60917
X40229Y60947
X40229Y59126
X36624Y59091
X32946Y59144
X29431Y59144
X29390Y57335
X36619Y57353
X40226Y57305
X40211Y55486
X36604Y55552
X33030Y55570
X29408Y55570
X29408Y53767
X33063Y53782
X36619Y53764
X40226Y53647
X40244Y50165
X36619Y50147
X32977Y50147
X29296Y50239
X29317Y48275
X32959Y48311
X36655Y48257
X40241Y48222
X29352Y46492
X32977Y46563
X36655Y46563
X40315Y46619
X40262Y42977
X36528Y42956
X32951Y62626
X36612Y62644
X40218Y62715
X29398Y62824
X29431Y52088
X33076Y52179
X36601Y52009
X40211Y52009
X40274Y44587
X36645Y44694
X42207Y27699
X32459Y34590
X40947Y37724
X27381Y42901
X43541Y62393
X43472Y64234
X42705Y25872
X36449Y19050
X43142Y14676
X41199Y6629
X34803Y10036
X37389Y25400
X43045Y9776
X37562Y30094
X32956Y44671
X27153Y8890
X26162Y8865
X33553Y26162
X32334Y23089
X33680Y23960
X40457Y20104
X35908Y17940
X39525Y19482
X40157Y11481
X43917Y61110
X40795Y36934
X27186Y57300
X40622Y40234
X27917Y58829
X40681Y38550
X25852Y60472
X40213Y51021
X27343Y63144
X40239Y49116
X25857Y63922
X34120Y35662
X27663Y35847
X33170Y36510
X26675Y37828
X33360Y35062
X26787Y35420
X33373Y34287
X27117Y33002
X33045Y4724
X38494Y28153
X34544Y5326
X35555Y5316
X42037Y20317
X42377Y23282
X60566Y11656
X62817Y16393
X54308Y7300
X53388Y7343
X62006Y7249
X62977Y7249
X59200Y14298
X57297Y40442
X58936Y24900
X59756Y27297
X59901Y17305
X60508Y10836
X60043Y30272
X52255Y24722
X52911Y26568
X54323Y15710
X52951Y15735
X51326Y15837
X51072Y16523
X51046Y17158
X53663Y15710
X61953Y16393
X62868Y17384
X63782Y16393
X62842Y15428
X56655Y15344
X64488Y1252
X68298Y5062
X51788Y1252
X47978Y5062
X48009Y15893
X47998Y19540
X68677Y7808
X68748Y10818
X59568Y7991
X56749Y7991
X60051Y9185
X51935Y19901
X53815Y20511
X50742Y23127
X50124Y27818
X56355Y17844
X54018Y17844
X56647Y11242
X57993Y30300
X55197Y30706
X55763Y33640
X58169Y33586
X59919Y33574
X62484Y33505
X64684Y33492
X63830Y36007
X62222Y36038
X60434Y36022
X64785Y40737
X62093Y40406
X55336Y39408
X48654Y43180
X51798Y37823
X51953Y32720
X68301Y54079
X50643Y55893
X50543Y58905
X51044Y63713
X49253Y58440
X48905Y8443
X50518Y9703
X51773Y11768
X55753Y36124
X51920Y35946
X50041Y33523
X56452Y12753
X51788Y3792
X64488Y3792
X58176Y7783
X63574Y66358
X59954Y66370
X56370Y66383
X52725Y66370
X52761Y64475
X56406Y64458
X59995Y64475
X63546Y64437
X52728Y60983
X56319Y60950
X59974Y60917
X63597Y60947
X63597Y59126
X59992Y59091
X56314Y59144
X52799Y59144
X52758Y57335
X56365Y57335
X59987Y57353
X63594Y57305
X63579Y55486
X59972Y55552
X56398Y55570
X52776Y55570
X52776Y53767
X56431Y53782
X59987Y53764
X63594Y53647
X63612Y50165
X59987Y50147
X56345Y50147
X52664Y50239
X52685Y48275
X56327Y48311
X60023Y48257
X63609Y48222
X52720Y46492
X56345Y46563
X60023Y46563
X63683Y46619
X63630Y42977
X59896Y42956
X56319Y62626
X59980Y62644
X63586Y62715
X52766Y62824
X52799Y52088
X56444Y52179
X59969Y52009
X63579Y52009
X63642Y44587
X60013Y44694
X65575Y27699
X55827Y34590
X64315Y37724
X50749Y42901
X66909Y62393
X66840Y64234
X66073Y25872
X59817Y19050
X66510Y14676
X64567Y6629
X58171Y10036
X60757Y25400
X66413Y9776
X60930Y30094
X56324Y44671
X50521Y8890
X49530Y8865
X56921Y26162
X55702Y23089
X57048Y23960
X63825Y20104
X59276Y17940
X62893Y19482
X63525Y11481
X67285Y61110
X64163Y36934
X50554Y57300
X63990Y40234
X51285Y58829
X64049Y38550
X49220Y60472
X63581Y51021
X50711Y63144
X63607Y49116
X49225Y63922
X57488Y35662
X51031Y35847
X56538Y36510
X50043Y37828
X56728Y35062
X50155Y35420
X56741Y34287
X50485Y33002
X56413Y4724
X61862Y28153
X57912Y5326
X58923Y5316
X65405Y20317
X65745Y23282
X83934Y11656
X32997Y57335
X86185Y16393
X77676Y7300
X76756Y7343
X85374Y7249
X86345Y7249
X82568Y14298
X80665Y40442
X82304Y24900
X83124Y27297
X83269Y17305
X83876Y10836
X83411Y30272
X75623Y24722
X76279Y26568
X77691Y15710
X76319Y15735
X74694Y15837
X74440Y16523
X74414Y17158
X77031Y15710
X85321Y16393
X86236Y17384
X87150Y16393
X86210Y15428
X80023Y15344
X87856Y1252
X91666Y5062
X75156Y1252
X71346Y5062
X71377Y15893
X71366Y19540
X92045Y7808
X92116Y10818
X82936Y7991
X80117Y7991
X83419Y9185
X75303Y19901
X77183Y20511
X74110Y23127
X73492Y27818
X79723Y17844
X77386Y17844
X80015Y11242
X81361Y30300
X78565Y30706
X79131Y33640
X81537Y33586
X83287Y33574
X85852Y33505
X88052Y33492
X87198Y36007
X85590Y36038
X83802Y36022
X88153Y40737
X85461Y40406
X78704Y39408
X72022Y43180
X75166Y37823
X75321Y32720
X91669Y54079
X74011Y55893
X73911Y58905
X74412Y63713
X72621Y58440
X72273Y8443
X73886Y9703
X75141Y11768
X79121Y36124
X75288Y35946
X73409Y33523
X79820Y12753
X75156Y3792
X87856Y3792
X81544Y7783
X86942Y66358
X83322Y66370
X79738Y66383
X76093Y66370
X76129Y64475
X79774Y64458
X83363Y64475
X86914Y64437
X76096Y60983
X79687Y60950
X83342Y60917
X86965Y60947
X86965Y59126
X83360Y59091
X79682Y59144
X76167Y59144
X76126Y57335
X79733Y57335
X83355Y57353
X86962Y57305
X86947Y55486
X83340Y55552
X79766Y55570
X76144Y55570
X76144Y53767
X79799Y53782
X83355Y53764
X86962Y53647
X86980Y50165
X83355Y50147
X79713Y50147
X76032Y50239
X76053Y48275
X79695Y48311
X83391Y48257
X86977Y48222
X76088Y46492
X79713Y46563
X83391Y46563
X87051Y46619
X86998Y42977
X33084Y96573
X28420Y87612
X41120Y87612
X34808Y91603
X40206Y150178
X36586Y150190
X33002Y150203
X29357Y150190
X29393Y148295
X33038Y148278
X36627Y148295
X40178Y148257
X29360Y144803
X32951Y144770
X36606Y144737
X40229Y144767
X40229Y142946
X36624Y142911
X32946Y142964
X29431Y142964
X29390Y141155
X32997Y141155
X36619Y141173
X40226Y141125
X40211Y139306
X36604Y139372
X33030Y139390
X29408Y139390
X29408Y137587
X33063Y137602
X36619Y137584
X40226Y137467
X40244Y133985
X36619Y133967
X32977Y133967
X29296Y134059
X29317Y132095
X32959Y132131
X36655Y132077
X40241Y132042
X29352Y130312
X32977Y130383
X36655Y130383
X40315Y130439
X40262Y126797
X36528Y126776
X32951Y146446
X36612Y146464
X40218Y146535
X29398Y146644
X29431Y135908
X33076Y135999
X36601Y135829
X40211Y135829
X40274Y128407
X36645Y128514
X42207Y111519
X32459Y118410
X40947Y121544
X27381Y126721
X43541Y146213
X43472Y148054
X42705Y109692
X35568Y108720
X36388Y111117
X36533Y101125
X36449Y102870
X37140Y94656
X43142Y98496
X41199Y90449
X34803Y93856
X36675Y114092
X28887Y108542
X29543Y110388
X30955Y99530
X29583Y99555
X37389Y109220
X43045Y93596
X37562Y113914
X32956Y128491
X27153Y92710
X26162Y92685
X33553Y109982
X32334Y106909
X33680Y107780
X40457Y103924
X35908Y101760
X39525Y103302
X40157Y95301
X43917Y144930
X40795Y120754
X27186Y141120
X40622Y124054
X27917Y142649
X40681Y122370
X25852Y144292
X40213Y134841
X27343Y146964
X40239Y132936
X25857Y147742
X34120Y119482
X27663Y119667
X33170Y120330
X26675Y121648
X33360Y118882
X26787Y119240
X33373Y118107
X27117Y116822
X33045Y88544
X38494Y111973
X34544Y89146
X35555Y89136
X42037Y104137
X42377Y107102
X27958Y99657
X60566Y95476
X27704Y100343
X27678Y100978
X30295Y99530
X38585Y100213
X39500Y101204
X40414Y100213
X39474Y99248
X33287Y99164
X62817Y100213
X54308Y91120
X53388Y91163
X62006Y91069
X62977Y91069
X59200Y98118
X57297Y124262
X58936Y108720
X59756Y111117
X59901Y101125
X60508Y94656
X60043Y114092
X52255Y108542
X52911Y110388
X54323Y99530
X52951Y99555
X51326Y99657
X51072Y100343
X51046Y100978
X53663Y99530
X61953Y100213
X62868Y101204
X63782Y100213
X62842Y99248
X56655Y99164
X64488Y85072
X68298Y88882
X51788Y85072
X47978Y88882
X48009Y99713
X47998Y103360
X68677Y91628
X68748Y94638
X59568Y91811
X56749Y91811
X60051Y93005
X51935Y103721
X53815Y104331
X50742Y106947
X50124Y111638
X56355Y101664
X54018Y101664
X56647Y95062
X57993Y114120
X55197Y114526
X55763Y117460
X58169Y117406
X59919Y117394
X62484Y117325
X64684Y117312
X63830Y119827
X62222Y119858
X60434Y119842
X64785Y124557
X62093Y124226
X55336Y123228
X48654Y127000
X51798Y121643
X51953Y116540
X68301Y137899
X50643Y139713
X50543Y142725
X51044Y147533
X49253Y142260
X48905Y92263
X50518Y93523
X51773Y95588
X55753Y119944
X51920Y119766
X50041Y117343
X56452Y96573
X51788Y87612
X64488Y87612
X58176Y91603
X63574Y150178
X59954Y150190
X56370Y150203
X52725Y150190
X52761Y148295
X56406Y148278
X59995Y148295
X63546Y148257
X52728Y144803
X56319Y144770
X59974Y144737
X63597Y144767
X63597Y142946
X59992Y142911
X56314Y142964
X52799Y142964
X52758Y141155
X56365Y141155
X59987Y141173
X63594Y141125
X63579Y139306
X59972Y139372
X56398Y139390
X52776Y139390
X52776Y137587
X56431Y137602
X59987Y137584
X63594Y137467
X63612Y133985
X59987Y133967
X56345Y133967
X52664Y134059
X52685Y132095
X56327Y132131
X60023Y132077
X63609Y132042
X52720Y130312
X56345Y130383
X60023Y130383
X63683Y130439
X63630Y126797
X59896Y126776
X56319Y146446
X59980Y146464
X63586Y146535
X52766Y146644
X52799Y135908
X56444Y135999
X59969Y135829
X63579Y135829
X63642Y128407
X60013Y128514
X65575Y111519
X55827Y118410
X64315Y121544
X50749Y126721
X66909Y146213
X66840Y148054
X66073Y109692
X41120Y85072
X44930Y88882
X28420Y85072
X59817Y102870
X24610Y88882
X66510Y98496
X64567Y90449
X58171Y93856
X24641Y99713
X24630Y103360
X45309Y91628
X45380Y94638
X36200Y91811
X60757Y109220
X66413Y93596
X60930Y113914
X56324Y128491
X50521Y92710
X49530Y92685
X56921Y109982
X55702Y106909
X57048Y107780
X63825Y103924
X59276Y101760
X62893Y103302
X63525Y95301
X67285Y144930
X64163Y120754
X50554Y141120
X63990Y124054
X51285Y142649
X64049Y122370
X49220Y144292
X63581Y134841
X50711Y146964
X63607Y132936
X49225Y147742
X57488Y119482
X51031Y119667
X56538Y120330
X50043Y121648
X56728Y118882
X50155Y119240
X56741Y118107
X50485Y116822
X56413Y88544
X61862Y111973
X57912Y89146
X58923Y89136
X65405Y104137
X65745Y107102
X33381Y91811
X83934Y95476
X36683Y93005
X28567Y103721
X30447Y104331
X27374Y106947
X26756Y111638
X32987Y101664
X30650Y101664
X33279Y95062
X86185Y100213
X77676Y91120
X76756Y91163
X85374Y91069
X86345Y91069
X82568Y98118
X80665Y124262
X82304Y108720
X83124Y111117
X83269Y101125
X83876Y94656
X83411Y114092
X75623Y108542
X76279Y110388
X77691Y99530
X76319Y99555
X74694Y99657
X74440Y100343
X74414Y100978
X77031Y99530
X85321Y100213
X86236Y101204
X87150Y100213
X86210Y99248
X80023Y99164
X87856Y85072
X91666Y88882
X75156Y85072
X71346Y88882
X71377Y99713
X71366Y103360
X92045Y91628
X92116Y94638
X82936Y91811
X80117Y91811
X83419Y93005
X75303Y103721
X77183Y104331
X74110Y106947
X73492Y111638
X79723Y101664
X77386Y101664
X80015Y95062
X81361Y114120
X78565Y114526
X79131Y117460
X81537Y117406
X83287Y117394
X85852Y117325
X88052Y117312
X87198Y119827
X85590Y119858
X83802Y119842
X88153Y124557
X85461Y124226
X78704Y123228
X72022Y127000
X75166Y121643
X75321Y116540
X91669Y137899
X74011Y139713
X73911Y142725
X74412Y147533
X72621Y142260
X72273Y92263
X73886Y93523
X75141Y95588
X79121Y119944
X75288Y119766
X73409Y117343
X79820Y96573
X75156Y87612
X87856Y87612
X81544Y91603
X86942Y150178
X83322Y150190
X79738Y150203
X76093Y150190
X76129Y148295
X79774Y148278
X83363Y148295
X86914Y148257
X76096Y144803
X79687Y144770
X83342Y144737
X86965Y144767
X86965Y142946
X83360Y142911
X79682Y142964
X76167Y142964
X76126Y141155
X79733Y141155
X83355Y141173
X86962Y141125
X86947Y139306
X83340Y139372
X79766Y139390
X76144Y139390
X76144Y137587
X79799Y137602
X83355Y137584
X86962Y137467
X86980Y133985
X83355Y133967
X79713Y133967
X76032Y134059
X76053Y132095
X79695Y132131
X83391Y132077
X86977Y132042
X76088Y130312
X79713Y130383
X83391Y130383
X87051Y130439
X86998Y126797
X83264Y126776
X79687Y146446
X83348Y146464
X86954Y146535
X76134Y146644
X76167Y135908
X79812Y135999
X83337Y135829
X86947Y135829
X87010Y128407
X83381Y128514
X88943Y111519
X79195Y118410
X87683Y121544
X74117Y126721
X90277Y146213
X90208Y148054
X89441Y109692
X34625Y114120
X31829Y114526
X32395Y117460
X83185Y102870
X34801Y117406
X89878Y98496
X87935Y90449
X81539Y93856
X36551Y117394
X39116Y117325
X41316Y117312
X40462Y119827
X38854Y119858
X84125Y109220
X89781Y93596
X84298Y113914
X79692Y128491
X73889Y92710
X72898Y92685
X80289Y109982
X79070Y106909
X80416Y107780
X87193Y103924
X82644Y101760
X86261Y103302
X86893Y95301
X90653Y144930
X87531Y120754
X73922Y141120
X87358Y124054
X74653Y142649
X87417Y122370
X72588Y144292
X86949Y134841
X74079Y146964
X86975Y132936
X72593Y147742
X80856Y119482
X74399Y119667
X79906Y120330
X73411Y121648
X80096Y118882
X73523Y119240
X80109Y118107
X73853Y116822
X79781Y88544
X85230Y111973
X81280Y89146
X82291Y89136
X88773Y104137
X89113Y107102
X37066Y119842
X107302Y95476
X41417Y124557
X38725Y124226
X31968Y123228
X25286Y127000
X28430Y121643
X28585Y116540
X44933Y137899
X27275Y139713
X109553Y100213
X101044Y91120
X100124Y91163
X108742Y91069
X109713Y91069
X105936Y98118
X104033Y124262
X105672Y108720
X106492Y111117
X106637Y101125
X107244Y94656
X106779Y114092
X98991Y108542
X35832Y98118
X101059Y99530
X99687Y99555
X98062Y99657
X97808Y100343
X97782Y100978
X100399Y99530
X108689Y100213
X109604Y101204
X110518Y100213
X109578Y99248
X103391Y99164
X111224Y85072
X115034Y88882
X98524Y85072
X94714Y88882
X94745Y99713
X94734Y103360
X115413Y91628
X115484Y94638
X106304Y91811
X103485Y91811
X106787Y93005
X98671Y103721
X100551Y104331
X97478Y106947
X96860Y111638
X103091Y101664
X100754Y101664
X103383Y95062
X104729Y114120
X101933Y114526
X102499Y117460
X104905Y117406
X106655Y117394
X109220Y117325
X111420Y117312
X110566Y119827
X108958Y119858
X107170Y119842
X111521Y124557
X108829Y124226
X102072Y123228
X95390Y127000
X98534Y121643
X98689Y116540
X115037Y137899
X97379Y139713
X97279Y142725
X97780Y147533
X95989Y142260
X95641Y92263
X97254Y93523
X98509Y95588
X102489Y119944
X98656Y119766
X96777Y117343
X103188Y96573
X98524Y87612
X111224Y87612
X104912Y91603
X110310Y150178
X106690Y150190
X103106Y150203
X99461Y150190
X99497Y148295
X103142Y148278
X106731Y148295
X110282Y148257
X99464Y144803
X103055Y144770
X106710Y144737
X110333Y144767
X110333Y142946
X106728Y142911
X103050Y142964
X99535Y142964
X99494Y141155
X103101Y141155
X106723Y141173
X110330Y141125
X110315Y139306
X106708Y139372
X103134Y139390
X99512Y139390
X99512Y137587
X103167Y137602
X106723Y137584
X110330Y137467
X110348Y133985
X106723Y133967
X103081Y133967
X99400Y134059
X99421Y132095
X103063Y132131
X106759Y132077
X110345Y132042
X99456Y130312
X103081Y130383
X106759Y130383
X110419Y130439
X110366Y126797
X106632Y126776
X103055Y146446
X106716Y146464
X110322Y146535
X99502Y146644
X99535Y135908
X103180Y135999
X106705Y135829
X110315Y135829
X110378Y128407
X106749Y128514
X112311Y111519
X102563Y118410
X111051Y121544
X97485Y126721
X113645Y146213
X113576Y148054
X112809Y109692
X27175Y142725
X27676Y147533
X25885Y142260
X106553Y102870
X25537Y92263
X113246Y98496
X111303Y90449
X104907Y93856
X27150Y93523
X28405Y95588
X32385Y119944
X28552Y119766
X26673Y117343
X107493Y109220
X113149Y93596
X107666Y113914
X103060Y128491
X97257Y92710
X96266Y92685
X103657Y109982
X102438Y106909
X103784Y107780
X110561Y103924
X106012Y101760
X109629Y103302
X110261Y95301
X114021Y144930
X110899Y120754
X97290Y141120
X110726Y124054
X98021Y142649
X110785Y122370
X95956Y144292
X110317Y134841
X97447Y146964
X110343Y132936
X95961Y147742
X104224Y119482
X97767Y119667
X103274Y120330
X96779Y121648
X103464Y118882
X96891Y119240
X103477Y118107
X97221Y116822
X103149Y88544
X108598Y111973
X104648Y89146
X105659Y89136
X112141Y104137
X112481Y107102
X39609Y91069
X38638Y91069
X30020Y91163
X30940Y91120
X39449Y100213
X37198Y95476
X19009Y107102
X18669Y104137
X12187Y89136
X11176Y89146
X15126Y111973
X9677Y88544
X3749Y116822
X10005Y118107
X3419Y119240
X9992Y118882
X3307Y121648
X9802Y120330
X4295Y119667
X10752Y119482
X2489Y147742
X16871Y132936
X3975Y146964
X16845Y134841
X2484Y144292
X17313Y122370
X4549Y142649
X17254Y124054
X3818Y141120
X17427Y120754
X20549Y144930
X16789Y95301
X16157Y103302
X12540Y101760
X17089Y103924
X10312Y107780
X8966Y106909
X10185Y109982
X2794Y92685
X3785Y92710
X9588Y128491
X14194Y113914
X19677Y93596
X14021Y109220
X11435Y93856
X17831Y90449
X19774Y98496
X13081Y102870
X19337Y109692
X20104Y148054
X20173Y146213
X4013Y126721
X17579Y121544
X9091Y118410
X18839Y111519
X13277Y128514
X16906Y128407
X16843Y135829
X13233Y135829
X9708Y135999
X6063Y135908
X6030Y146644
X16850Y146535
X13244Y146464
X9583Y146446
X13160Y126776
X16894Y126797
X16947Y130439
X13287Y130383
X9609Y130383
X5984Y130312
X16873Y132042
X13287Y132077
X9591Y132131
X5949Y132095
X5928Y134059
X9609Y133967
X13251Y133967
X16876Y133985
X16858Y137467
X13251Y137584
X9695Y137602
X6040Y137587
X6040Y139390
X9662Y139390
X13236Y139372
X16843Y139306
X16858Y141125
X13251Y141173
X9629Y141155
X6022Y141155
X6063Y142964
X9578Y142964
X13256Y142911
X16861Y142946
X16861Y144767
X13238Y144737
X9583Y144770
X5992Y144803
X16810Y148257
X13259Y148295
X9670Y148278
X6025Y148295
X5989Y150190
X9634Y150203
X13218Y150190
X16838Y150178
X11440Y91603
X17752Y87612
X5052Y87612
X9716Y96573
X3305Y117343
X5184Y119766
X9017Y119944
X5037Y95588
X3782Y93523
X2169Y92263
X2517Y142260
X4308Y147533
X3807Y142725
X3907Y139713
X21565Y137899
X5217Y116540
X5062Y121643
X33929Y124262
X1918Y127000
X8600Y123228
X15357Y124226
X18049Y124557
X13698Y119842
X15486Y119858
X17094Y119827
X17948Y117312
X15748Y117325
X13183Y117394
X11433Y117406
X9027Y117460
X8461Y114526
X11257Y114120
X9911Y95062
X7282Y101664
X9619Y101664
X3388Y111638
X4006Y106947
X7079Y104331
X5199Y103721
X13315Y93005
X10013Y91811
X12832Y91811
X22012Y94638
X21941Y91628
X1262Y103360
X1273Y99713
X1242Y88882
X5052Y85072
X21562Y88882
X17752Y85072
X9919Y99164
X16106Y99248
X17046Y100213
X16132Y101204
X15217Y100213
X6927Y99530
X4310Y100978
X4336Y100343
X4590Y99657
X6215Y99555
X7587Y99530
X6175Y110388
X5519Y108542
X13307Y114092
X13772Y94656
X13165Y101125
X13020Y111117
X12200Y108720
X10561Y124262
X12464Y98118
X16241Y91069
X15270Y91069
X6652Y91163
X7572Y91120
X16081Y100213
X13830Y95476
X112481Y23282
X112141Y20317
X105659Y5316
X104648Y5326
X108598Y28153
X103149Y4724
X97221Y33002
X103477Y34287
X96891Y35420
X103464Y35062
X96779Y37828
X103274Y36510
X97767Y35847
X104224Y35662
X95961Y63922
X110343Y49116
X97447Y63144
X110317Y51021
X95956Y60472
X110785Y38550
X98021Y58829
X110726Y40234
X97290Y57300
X110899Y36934
X114021Y61110
X110261Y11481
X109629Y19482
X106012Y17940
X110561Y20104
X103784Y23960
X102438Y23089
X103657Y26162
X96266Y8865
X97257Y8890
X103060Y44671
X107666Y30094
X113149Y9776
X107493Y25400
X104907Y10036
X111303Y6629
X113246Y14676
X106553Y19050
X112809Y25872
X113576Y64234
X113645Y62393
X97485Y42901
X111051Y37724
X102563Y34590
X112311Y27699
X106749Y44694
X110378Y44587
X110315Y52009
X106705Y52009
X103180Y52179
X99535Y52088
X99502Y62824
X110322Y62715
X106716Y62644
X103055Y62626
X106632Y42956
X110366Y42977
X110419Y46619
X106759Y46563
X103081Y46563
X99456Y46492
X110345Y48222
X106759Y48257
X103063Y48311
X99421Y48275
X99400Y50239
X103081Y50147
X106723Y50147
X110348Y50165
X110330Y53647
X106723Y53764
X103167Y53782
X99512Y53767
X99512Y55570
X103134Y55570
X106708Y55552
X110315Y55486
X110330Y57305
X106723Y57353
X103101Y57335
X99494Y57335
X99535Y59144
X103050Y59144
X106728Y59091
X110333Y59126
X110333Y60947
X106710Y60917
X103055Y60950
X99464Y60983
X110282Y64437
X106731Y64475
X103142Y64458
X99497Y64475
X99461Y66370
X103106Y66383
X106690Y66370
X110310Y66358
X104912Y7783
X111224Y3792
X98524Y3792
X103188Y12753
X96777Y33523
X98656Y35946
X102489Y36124
X98509Y11768
X97254Y9703
X95641Y8443
X95989Y58440
X97780Y63713
X97279Y58905
X97379Y55893
X115037Y54079
X98689Y32720
X98534Y37823
X95390Y43180
X102072Y39408
X108829Y40406
X111521Y40737
X107170Y36022
X108958Y36038
X110566Y36007
X111420Y33492
X109220Y33505
X106655Y33574
X104905Y33586
X102499Y33640
X101933Y30706
X104729Y30300
X103383Y11242
X100754Y17844
X103091Y17844
X96860Y27818
X97478Y23127
X100551Y20511
X98671Y19901
X106787Y9185
X103485Y7991
X106304Y7991
X115484Y10818
X115413Y7808
X94734Y19540
X94745Y15893
X94714Y5062
X98524Y1252
X115034Y5062
X111224Y1252
X103391Y15344
X109578Y15428
X110518Y16393
X109604Y17384
X108689Y16393
X100399Y15710
X97782Y17158
X97808Y16523
X98062Y15837
X99687Y15735
X101059Y15710
X99647Y26568
X98991Y24722
X106779Y30272
X107244Y10836
X106637Y17305
X106492Y27297
X105672Y24900
X104033Y40442
X105936Y14298
X109713Y7249
X108742Y7249
X100124Y7343
X101044Y7300
X109553Y16393
X107302Y11656
X89113Y23282
X88773Y20317
X82291Y5316
X81280Y5326
X85230Y28153
X79781Y4724
X73853Y33002
X80109Y34287
X73523Y35420
X80096Y35062
X73411Y37828
X79906Y36510
X74399Y35847
X80856Y35662
X72593Y63922
X86975Y49116
X74079Y63144
X86949Y51021
X72588Y60472
X87417Y38550
X74653Y58829
X87358Y40234
X73922Y57300
X87531Y36934
X90653Y61110
X86893Y11481
X86261Y19482
X82644Y17940
X87193Y20104
X80416Y23960
X79070Y23089
X80289Y26162
X72898Y8865
X73889Y8890
X79692Y44671
X84298Y30094
X89781Y9776
X84125Y25400
X81539Y10036
X87935Y6629
X89878Y14676
X83185Y19050
X89441Y25872
X90208Y64234
X90277Y62393
X74117Y42901
X87683Y37724
X79195Y34590
X88943Y27699
X83381Y44694
X87010Y44587
X86947Y52009
X83337Y52009
X79812Y52179
X76167Y52088
X76134Y62824
X86954Y62715
X83348Y62644
X79687Y62626
X83264Y42956
X99647Y110388
M30