*
*
G04 PADS 9.5 Build Number: 522968 generated Gerber (RS-274-X) file*
G04 PC Version=2.1*
*
%IN "RADXA_ROCK2_BASEBD-1501"*%
*
%MOIN*%
*
%FSLAX35Y35*%
*
*
*
*
G04 PC Standard Apertures*
*
*
G04 Thermal Relief Aperture macro.*
%AMTER*
1,1,$1,0,0*
1,0,$1-$2,0,0*
21,0,$3,$4,0,0,45*
21,0,$3,$4,0,0,135*
%
*
*
G04 Annular Aperture macro.*
%AMANN*
1,1,$1,0,0*
1,0,$2,0,0*
%
*
*
G04 Odd Aperture macro.*
%AMODD*
1,1,$1,0,0*
1,0,$1-0.005,0,0*
%
*
*
G04 PC Custom Aperture Macros*
*
*
*
*
*
*
G04 PC Aperture Table*
*
%ADD010C,0.001*%
%ADD024R,0.15748X0.05906*%
%ADD027R,0.02008X0.02008*%
%ADD032R,0.03583X0.04803*%
%ADD039R,0.04X0.05*%
%ADD040R,0.05X0.04*%
%ADD041R,0.06299X0.07087*%
%ADD043R,0.02756X0.03543*%
%ADD044R,0.03543X0.02756*%
%ADD055R,0.04173X0.02559*%
%ADD056R,0.02559X0.04173*%
%ADD063O,0.05906X0.01575*%
%ADD092R,0.08902X0.01701*%
%ADD093R,0.07323X0.10236*%
%ADD094R,0.01181X0.05906*%
%ADD095R,0.04429X0.01968*%
%ADD096R,0.01968X0.04429*%
%ADD097C,0.01181*%
%ADD111C,0.039*%
%ADD121C,0.006*%
%ADD123C,0.03*%
%ADD125C,0.012*%
%ADD135C,0.024*%
%ADD194R,0.02362X0.02756*%
%ADD195R,0.02756X0.02362*%
%ADD196R,0.07087X0.07874*%
%ADD197R,0.04X0.04*%
%ADD198R,0.01181X0.04724*%
%ADD199R,0.01378X0.05118*%
%ADD200O,0.01181X0.05906*%
%ADD201R,0.07874X0.09055*%
%ADD202R,0.01575X0.03543*%
%ADD203R,0.05905X0.15748*%
%ADD204R,0.04331X0.11811*%
%ADD207R,0.00787X0.02657*%
%ADD208R,0.01575X0.03051*%
%ADD209O,0.071X0.018*%
%ADD210O,0.071X0.01*%
%ADD211O,0.018X0.071*%
%ADD212O,0.01X0.071*%
%ADD213R,0.01102X0.03646*%
%ADD214R,0.03646X0.01102*%
%ADD215R,0.09843X0.09843*%
%ADD216R,0.01181X0.02165*%
%ADD217R,0.10236X0.0689*%
%ADD218R,0.09449X0.06693*%
%ADD219R,0.04724X0.02362*%
%ADD220R,0.05512X0.04528*%
%ADD221R,0.03543X0.01575*%
%ADD224R,0.01772X0.01772*%
*
*
*
*
G04 PC Copper Outlines (0)*
G04 Layer Name RADXA_ROCK2_BASEBD-1501 - dark (0)*
%LPD*%
*
*
G04 PC Area=_PSI_PAC_C7343_000_0000741_P324000000M*
G75*
G36*
G01*
X2737850Y2425118D02*
X2747250D01*
Y2414882D01*
X2737850D01*
Y2425118D01*
G37*
G74*
*
*
G04 PC Copper Outlines (1)*
G04 Layer Name RADXA_ROCK2_BASEBD-1501 - dark (1)*
%LPD*%
*
*
G04 PC Area=_PSI_PAC_C7343_001_0000742_P324000000M*
G75*
G36*
G01*
X2762250Y2425118D02*
X2771650D01*
Y2414882D01*
X2762250D01*
Y2425118D01*
G37*
G74*
*
*
G04 PC Copper Outlines (2)*
G04 Layer Name RADXA_ROCK2_BASEBD-1501 - dark (2)*
%LPD*%
*
*
G04 PC Area=_PSI_PAC_SOT-23_000_0000760_N162000000M*
G75*
G36*
G01*
X2440433Y2675236D02*
X2444764D01*
Y2672087D01*
X2440433D01*
Y2675236D01*
G37*
G74*
*
*
G04 PC Copper Outlines (3)*
G04 Layer Name RADXA_ROCK2_BASEBD-1501 - dark (3)*
%LPD*%
*
*
G04 PC Area=_PSI_PAC_SOT-23_001_0000761_N162000000M*
G75*
G36*
G01*
X2440433Y2667756D02*
X2444764D01*
Y2664606D01*
X2440433D01*
Y2667756D01*
G37*
G74*
*
*
G04 PC Copper Outlines (4)*
G04 Layer Name RADXA_ROCK2_BASEBD-1501 - dark (4)*
%LPD*%
*
*
G04 PC Area=_PSI_PAC_SOT-23_002_0000762_N162000000M*
G75*
G36*
G01*
X2429803Y2671496D02*
X2434134D01*
Y2668346D01*
X2429803D01*
Y2671496D01*
G37*
G74*
*
*
G04 PC Copper Outlines (5)*
G04 Layer Name RADXA_ROCK2_BASEBD-1501 - dark (5)*
%LPD*%
*
*
G04 PC Area=_PSI_PAC_SOT-23_000_0000760_P324000000M*
G75*
G36*
G01*
X2494195Y2425854D02*
Y2430185D01*
X2497344D01*
Y2425854D01*
X2494195D01*
G37*
G74*
*
*
G04 PC Copper Outlines (6)*
G04 Layer Name RADXA_ROCK2_BASEBD-1501 - dark (6)*
%LPD*%
*
*
G04 PC Area=_PSI_PAC_SOT-23_001_0000761_P324000000M*
G75*
G36*
G01*
X2501675Y2425854D02*
Y2430185D01*
X2504825D01*
Y2425854D01*
X2501675D01*
G37*
G74*
*
*
G04 PC Copper Outlines (7)*
G04 Layer Name RADXA_ROCK2_BASEBD-1501 - dark (7)*
%LPD*%
*
*
G04 PC Area=_PSI_PAC_SOT-23_002_0000762_P324000000M*
G75*
G36*
G01*
X2497935Y2415224D02*
Y2419555D01*
X2501085D01*
Y2415224D01*
X2497935D01*
G37*
G74*
*
*
G04 PC Copper Outlines (8)*
G04 Layer Name RADXA_ROCK2_BASEBD-1501 - dark (8)*
%LPD*%
*
*
G04 PC Area=_PSI_PAC_SOT-23_000_0000760_P324000000M*
G75*
G36*
G01*
X2709195Y2426354D02*
Y2430685D01*
X2712344D01*
Y2426354D01*
X2709195D01*
G37*
G74*
*
*
G04 PC Copper Outlines (9)*
G04 Layer Name RADXA_ROCK2_BASEBD-1501 - dark (9)*
%LPD*%
*
*
G04 PC Area=_PSI_PAC_SOT-23_001_0000761_P324000000M*
G75*
G36*
G01*
X2716675Y2426354D02*
Y2430685D01*
X2719825D01*
Y2426354D01*
X2716675D01*
G37*
G74*
*
*
G04 PC Copper Outlines (10)*
G04 Layer Name RADXA_ROCK2_BASEBD-1501 - dark (10)*
%LPD*%
*
*
G04 PC Area=_PSI_PAC_SOT-23_002_0000762_P324000000M*
G75*
G36*
G01*
X2712935Y2415724D02*
Y2420055D01*
X2716085D01*
Y2415724D01*
X2712935D01*
G37*
G74*
*
*
G04 PC Copper Outlines (11)*
G04 Layer Name RADXA_ROCK2_BASEBD-1501 - dark (11)*
%LPD*%
*
*
G04 PC Area=_PSI_PAC_SOT-23_000_0000760_M*
G75*
G36*
G01*
X2718555Y2482646D02*
Y2478315D01*
X2715406D01*
Y2482646D01*
X2718555D01*
G37*
G74*
*
*
G04 PC Copper Outlines (12)*
G04 Layer Name RADXA_ROCK2_BASEBD-1501 - dark (12)*
%LPD*%
*
*
G04 PC Area=_PSI_PAC_SOT-23_001_0000761_M*
G75*
G36*
G01*
X2711075Y2482646D02*
Y2478315D01*
X2707925D01*
Y2482646D01*
X2711075D01*
G37*
G74*
*
*
G04 PC Copper Outlines (13)*
G04 Layer Name RADXA_ROCK2_BASEBD-1501 - dark (13)*
%LPD*%
*
*
G04 PC Area=_PSI_PAC_SOT-23_002_0000762_M*
G75*
G36*
G01*
X2714815Y2493276D02*
Y2488945D01*
X2711665D01*
Y2493276D01*
X2714815D01*
G37*
G74*
*
*
G04 PC Copper Outlines (14)*
G04 Layer Name RADXA_ROCK2_BASEBD-1501 - dark (14)*
%LPD*%
*
*
G04 PC Area=_PSI_PAC_SOT-23_000_0000760_N162000000M*
G75*
G36*
G01*
X2647104Y2433305D02*
X2651435D01*
Y2430156D01*
X2647104D01*
Y2433305D01*
G37*
G74*
*
*
G04 PC Copper Outlines (15)*
G04 Layer Name RADXA_ROCK2_BASEBD-1501 - dark (15)*
%LPD*%
*
*
G04 PC Area=_PSI_PAC_SOT-23_001_0000761_N162000000M*
G75*
G36*
G01*
X2647104Y2425825D02*
X2651435D01*
Y2422675D01*
X2647104D01*
Y2425825D01*
G37*
G74*
*
*
G04 PC Copper Outlines (16)*
G04 Layer Name RADXA_ROCK2_BASEBD-1501 - dark (16)*
%LPD*%
*
*
G04 PC Area=_PSI_PAC_SOT-23_002_0000762_N162000000M*
G75*
G36*
G01*
X2636474Y2429565D02*
X2640805D01*
Y2426415D01*
X2636474D01*
Y2429565D01*
G37*
G74*
*
*
G04 PC Copper Outlines (17)*
G04 Layer Name RADXA_ROCK2_BASEBD-1501 - dark (17)*
%LPD*%
*
*
G04 PC Area=_PSI_PAC_SOT-23_000_0000760_M*
G75*
G36*
G01*
X2682055Y2482646D02*
Y2478315D01*
X2678906D01*
Y2482646D01*
X2682055D01*
G37*
G74*
*
*
G04 PC Copper Outlines (18)*
G04 Layer Name RADXA_ROCK2_BASEBD-1501 - dark (18)*
%LPD*%
*
*
G04 PC Area=_PSI_PAC_SOT-23_001_0000761_M*
G75*
G36*
G01*
X2674575Y2482646D02*
Y2478315D01*
X2671425D01*
Y2482646D01*
X2674575D01*
G37*
G74*
*
*
G04 PC Copper Outlines (19)*
G04 Layer Name RADXA_ROCK2_BASEBD-1501 - dark (19)*
%LPD*%
*
*
G04 PC Area=_PSI_PAC_SOT-23_002_0000762_M*
G75*
G36*
G01*
X2678315Y2493276D02*
Y2488945D01*
X2675165D01*
Y2493276D01*
X2678315D01*
G37*
G74*
*
*
G04 PC Copper Outlines (20)*
G04 Layer Name RADXA_ROCK2_BASEBD-1501 - dark (20)*
%LPD*%
*
*
G04 PC Area=_PSI_PAC_SOT-23_000_0000760_M*
G75*
G36*
G01*
X2494055Y2549396D02*
Y2545065D01*
X2490906D01*
Y2549396D01*
X2494055D01*
G37*
G74*
*
*
G04 PC Copper Outlines (21)*
G04 Layer Name RADXA_ROCK2_BASEBD-1501 - dark (21)*
%LPD*%
*
*
G04 PC Area=_PSI_PAC_SOT-23_001_0000761_M*
G75*
G36*
G01*
X2486575Y2549396D02*
Y2545065D01*
X2483425D01*
Y2549396D01*
X2486575D01*
G37*
G74*
*
*
G04 PC Copper Outlines (22)*
G04 Layer Name RADXA_ROCK2_BASEBD-1501 - dark (22)*
%LPD*%
*
*
G04 PC Area=_PSI_PAC_SOT-23_002_0000762_M*
G75*
G36*
G01*
X2490315Y2560026D02*
Y2555695D01*
X2487165D01*
Y2560026D01*
X2490315D01*
G37*
G74*
*
*
G04 PC Copper Outlines (23)*
G04 Layer Name RADXA_ROCK2_BASEBD-1501 - dark (23)*
%LPD*%
*
*
G04 PC Area=_PSI_PAC_SOT-23_000_0000760_M*
G75*
G36*
G01*
X2506305Y2549396D02*
Y2545065D01*
X2503156D01*
Y2549396D01*
X2506305D01*
G37*
G74*
*
*
G04 PC Copper Outlines (24)*
G04 Layer Name RADXA_ROCK2_BASEBD-1501 - dark (24)*
%LPD*%
*
*
G04 PC Area=_PSI_PAC_SOT-23_001_0000761_M*
G75*
G36*
G01*
X2498825Y2549396D02*
Y2545065D01*
X2495675D01*
Y2549396D01*
X2498825D01*
G37*
G74*
*
*
G04 PC Copper Outlines (25)*
G04 Layer Name RADXA_ROCK2_BASEBD-1501 - dark (25)*
%LPD*%
*
*
G04 PC Area=_PSI_PAC_SOT-23_002_0000762_M*
G75*
G36*
G01*
X2502565Y2560026D02*
Y2555695D01*
X2499415D01*
Y2560026D01*
X2502565D01*
G37*
G74*
*
*
G04 PC Copper Outlines (26)*
G04 Layer Name RADXA_ROCK2_BASEBD-1501 - dark (26)*
%LPD*%
*
*
G04 PC Area=_PSI_PAC_SOT-23_000_0000760_M*
G75*
G36*
G01*
X2380555Y2409896D02*
Y2405565D01*
X2377406D01*
Y2409896D01*
X2380555D01*
G37*
G74*
*
*
G04 PC Copper Outlines (27)*
G04 Layer Name RADXA_ROCK2_BASEBD-1501 - dark (27)*
%LPD*%
*
*
G04 PC Area=_PSI_PAC_SOT-23_001_0000761_M*
G75*
G36*
G01*
X2373075Y2409896D02*
Y2405565D01*
X2369925D01*
Y2409896D01*
X2373075D01*
G37*
G74*
*
*
G04 PC Copper Outlines (28)*
G04 Layer Name RADXA_ROCK2_BASEBD-1501 - dark (28)*
%LPD*%
*
*
G04 PC Area=_PSI_PAC_SOT-23_002_0000762_M*
G75*
G36*
G01*
X2376815Y2420526D02*
Y2416195D01*
X2373665D01*
Y2420526D01*
X2376815D01*
G37*
G74*
*
*
G04 PC Copper Outlines (29)*
G04 Layer Name RADXA_ROCK2_BASEBD-1501 - dark (29)*
%LPD*%
*
*
G04 PC Area=_PSI_PAC_SOT-23_000_0000760_M*
G75*
G36*
G01*
X2411654Y2409685D02*
Y2405354D01*
X2408504D01*
Y2409685D01*
X2411654D01*
G37*
G74*
*
*
G04 PC Copper Outlines (30)*
G04 Layer Name RADXA_ROCK2_BASEBD-1501 - dark (30)*
%LPD*%
*
*
G04 PC Area=_PSI_PAC_SOT-23_001_0000761_M*
G75*
G36*
G01*
X2404173Y2409685D02*
Y2405354D01*
X2401024D01*
Y2409685D01*
X2404173D01*
G37*
G74*
*
*
G04 PC Copper Outlines (31)*
G04 Layer Name RADXA_ROCK2_BASEBD-1501 - dark (31)*
%LPD*%
*
*
G04 PC Area=_PSI_PAC_SOT-23_002_0000762_M*
G75*
G36*
G01*
X2407913Y2420315D02*
Y2415984D01*
X2404764D01*
Y2420315D01*
X2407913D01*
G37*
G74*
*
*
G04 PC Copper Outlines (32)*
G04 Layer Name RADXA_ROCK2_BASEBD-1501 - dark (32)*
%LPD*%
*
*
G04 PC Area=_PSI_PAC_SOT-23_000_0000760_M*
G75*
G36*
G01*
X2543028Y2665268D02*
Y2660937D01*
X2539878D01*
Y2665268D01*
X2543028D01*
G37*
G74*
*
*
G04 PC Copper Outlines (33)*
G04 Layer Name RADXA_ROCK2_BASEBD-1501 - dark (33)*
%LPD*%
*
*
G04 PC Area=_PSI_PAC_SOT-23_001_0000761_M*
G75*
G36*
G01*
X2535547Y2665268D02*
Y2660937D01*
X2532398D01*
Y2665268D01*
X2535547D01*
G37*
G74*
*
*
G04 PC Copper Outlines (34)*
G04 Layer Name RADXA_ROCK2_BASEBD-1501 - dark (34)*
%LPD*%
*
*
G04 PC Area=_PSI_PAC_SOT-23_002_0000762_M*
G75*
G36*
G01*
X2539287Y2675898D02*
Y2671567D01*
X2536138D01*
Y2675898D01*
X2539287D01*
G37*
G74*
*
*
G04 PC Copper Outlines (35)*
G04 Layer Name RADXA_ROCK2_BASEBD-1501 - dark (35)*
%LPD*%
*
*
G04 PC Area=_PSI_PAC_SOT-23_000_0000760_M*
G75*
G36*
G01*
X2562055Y2666146D02*
Y2661815D01*
X2558906D01*
Y2666146D01*
X2562055D01*
G37*
G74*
*
*
G04 PC Copper Outlines (36)*
G04 Layer Name RADXA_ROCK2_BASEBD-1501 - dark (36)*
%LPD*%
*
*
G04 PC Area=_PSI_PAC_SOT-23_001_0000761_M*
G75*
G36*
G01*
X2554575Y2666146D02*
Y2661815D01*
X2551425D01*
Y2666146D01*
X2554575D01*
G37*
G74*
*
*
G04 PC Copper Outlines (37)*
G04 Layer Name RADXA_ROCK2_BASEBD-1501 - dark (37)*
%LPD*%
*
*
G04 PC Area=_PSI_PAC_SOT-23_002_0000762_M*
G75*
G36*
G01*
X2558315Y2676776D02*
Y2672445D01*
X2555165D01*
Y2676776D01*
X2558315D01*
G37*
G74*
*
*
G04 PC Copper Outlines (38)*
G04 Layer Name RADXA_ROCK2_BASEBD-1501 - dark (38)*
%LPD*%
*
*
G04 PC Area=_PSI_PAC_SOT-23_000_0000760_P324000000M*
G75*
G36*
G01*
X2721945Y2426354D02*
Y2430685D01*
X2725094D01*
Y2426354D01*
X2721945D01*
G37*
G74*
*
*
G04 PC Copper Outlines (39)*
G04 Layer Name RADXA_ROCK2_BASEBD-1501 - dark (39)*
%LPD*%
*
*
G04 PC Area=_PSI_PAC_SOT-23_001_0000761_P324000000M*
G75*
G36*
G01*
X2729425Y2426354D02*
Y2430685D01*
X2732575D01*
Y2426354D01*
X2729425D01*
G37*
G74*
*
*
G04 PC Copper Outlines (40)*
G04 Layer Name RADXA_ROCK2_BASEBD-1501 - dark (40)*
%LPD*%
*
*
G04 PC Area=_PSI_PAC_SOT-23_002_0000762_P324000000M*
G75*
G36*
G01*
X2725685Y2415724D02*
Y2420055D01*
X2728835D01*
Y2415724D01*
X2725685D01*
G37*
G74*
*
*
G04 PC Copper Outlines (41)*
G04 Layer Name RADXA_ROCK2_BASEBD-1501 - dark (41)*
%LPD*%
*
*
G04 PC Area=_PSI_PAC_R1206_000_0000851_N162000000M*
G75*
G36*
G01*
X2521504Y2570891D02*
Y2565691D01*
X2515205D01*
Y2570891D01*
X2521504D01*
G37*
G74*
*
*
G04 PC Copper Outlines (42)*
G04 Layer Name RADXA_ROCK2_BASEBD-1501 - dark (42)*
%LPD*%
*
*
G04 PC Area=_PSI_PAC_R1206_001_0000852_N162000000M*
G75*
G36*
G01*
X2521504Y2559891D02*
Y2554691D01*
X2515205D01*
Y2559891D01*
X2521504D01*
G37*
G74*
*
*
G04 PC Copper Outlines (43)*
G04 Layer Name RADXA_ROCK2_BASEBD-1501 - dark (43)*
%LPD*%
*
*
G04 PC Area=_PSI_PAC_R1206_000_0000851_N162000000M*
G75*
G36*
G01*
X2529772Y2570891D02*
Y2565691D01*
X2523472D01*
Y2570891D01*
X2529772D01*
G37*
G74*
*
*
G04 PC Copper Outlines (44)*
G04 Layer Name RADXA_ROCK2_BASEBD-1501 - dark (44)*
%LPD*%
*
*
G04 PC Area=_PSI_PAC_R1206_001_0000852_N162000000M*
G75*
G36*
G01*
X2529772Y2559891D02*
Y2554691D01*
X2523472D01*
Y2559891D01*
X2529772D01*
G37*
G74*
*
*
G04 PC Copper Outlines (45)*
G04 Layer Name RADXA_ROCK2_BASEBD-1501 - dark (45)*
%LPD*%
*
*
G04 PC Area=_PSI_PAC_TSOP-6_000_0000950_M*
G75*
G36*
G01*
X2436280Y2620709D02*
Y2616378D01*
X2433917D01*
Y2620709D01*
X2436280D01*
G37*
G74*
*
*
G04 PC Copper Outlines (46)*
G04 Layer Name RADXA_ROCK2_BASEBD-1501 - dark (46)*
%LPD*%
*
*
G04 PC Area=_PSI_PAC_TSOP-6_001_0000951_M*
G75*
G36*
G01*
X2432539Y2620709D02*
Y2616378D01*
X2430177D01*
Y2620709D01*
X2432539D01*
G37*
G74*
*
*
G04 PC Copper Outlines (47)*
G04 Layer Name RADXA_ROCK2_BASEBD-1501 - dark (47)*
%LPD*%
*
*
G04 PC Area=_PSI_PAC_TSOP-6_002_0000952_M*
G75*
G36*
G01*
X2428799Y2620709D02*
Y2616378D01*
X2426437D01*
Y2620709D01*
X2428799D01*
G37*
G74*
*
*
G04 PC Copper Outlines (48)*
G04 Layer Name RADXA_ROCK2_BASEBD-1501 - dark (48)*
%LPD*%
*
*
G04 PC Area=_PSI_PAC_TSOP-6_003_0000953_M*
G75*
G36*
G01*
X2428799Y2631339D02*
Y2627008D01*
X2426437D01*
Y2631339D01*
X2428799D01*
G37*
G74*
*
*
G04 PC Copper Outlines (49)*
G04 Layer Name RADXA_ROCK2_BASEBD-1501 - dark (49)*
%LPD*%
*
*
G04 PC Area=_PSI_PAC_TSOP-6_004_0000954_M*
G75*
G36*
G01*
X2432539Y2631339D02*
Y2627008D01*
X2430177D01*
Y2631339D01*
X2432539D01*
G37*
G74*
*
*
G04 PC Copper Outlines (50)*
G04 Layer Name RADXA_ROCK2_BASEBD-1501 - dark (50)*
%LPD*%
*
*
G04 PC Area=_PSI_PAC_TSOP-6_005_0000955_M*
G75*
G36*
G01*
X2436280Y2631339D02*
Y2627008D01*
X2433917D01*
Y2631339D01*
X2436280D01*
G37*
G74*
*
*
G04 PC Copper Outlines (51)*
G04 Layer Name RADXA_ROCK2_BASEBD-1501 - dark (51)*
%LPD*%
*
*
G04 PC Area=_PSI_PAC_SOT-23_000_0000760_P324000000M*
G75*
G36*
G01*
X2581575Y2410906D02*
Y2415236D01*
X2584724D01*
Y2410906D01*
X2581575D01*
G37*
G74*
*
*
G04 PC Copper Outlines (52)*
G04 Layer Name RADXA_ROCK2_BASEBD-1501 - dark (52)*
%LPD*%
*
*
G04 PC Area=_PSI_PAC_SOT-23_001_0000761_P324000000M*
G75*
G36*
G01*
X2589055Y2410906D02*
Y2415236D01*
X2592205D01*
Y2410906D01*
X2589055D01*
G37*
G74*
*
*
G04 PC Copper Outlines (53)*
G04 Layer Name RADXA_ROCK2_BASEBD-1501 - dark (53)*
%LPD*%
*
*
G04 PC Area=_PSI_PAC_SOT-23_002_0000762_P324000000M*
G75*
G36*
G01*
X2585315Y2400276D02*
Y2404606D01*
X2588465D01*
Y2400276D01*
X2585315D01*
G37*
G74*
*
*
G04 PC Copper Outlines (54)*
G04 Layer Name RADXA_ROCK2_BASEBD-1501 - dark (54)*
%LPD*%
*
*
G04 PC Area=Custom_Thermal*
*
G04 PC Custom Flashes*
G04 Layer Name RADXA_ROCK2_BASEBD-1501 - flashes*
%LPD*%
*
*
G04 PC Circuitry*
G04 Layer Name RADXA_ROCK2_BASEBD-1501 - circuitry*
%LPD*%
*
G54D10*
G01X2694688Y2478419D02*
X2694687Y2480681D01*
X2693212*
X2693213Y2478419*
X2694688*
X2693213D02*
X2693213D01*
Y2478519D02*
X2694688D01*
X2693213Y2478619D02*
X2694688D01*
X2693213Y2478719D02*
X2694688D01*
X2693213Y2478819D02*
X2694688D01*
X2693213Y2478919D02*
X2694688D01*
X2693213Y2479019D02*
X2694688D01*
X2693213Y2479119D02*
X2694687D01*
X2693213Y2479219D02*
X2694687D01*
X2693213Y2479319D02*
X2694687D01*
X2693213Y2479419D02*
X2694687D01*
X2693213Y2479519D02*
X2694687D01*
X2693213Y2479619D02*
X2694687D01*
X2693213Y2479719D02*
X2694687D01*
X2693213Y2479819D02*
X2694687D01*
X2693213Y2479919D02*
X2694687D01*
X2693213Y2480019D02*
X2694687D01*
X2693212Y2480119D02*
X2694687D01*
X2693212Y2480219D02*
X2694687D01*
X2693212Y2480319D02*
X2694687D01*
X2693212Y2480419D02*
X2694687D01*
X2693212Y2480519D02*
X2694687D01*
X2693212Y2480619D02*
X2694687D01*
X2693300Y2478419D02*
Y2480681D01*
X2693400Y2478419D02*
Y2480681D01*
X2693500Y2478419D02*
Y2480681D01*
X2693600Y2478419D02*
Y2480681D01*
X2693700Y2478419D02*
Y2480681D01*
X2693800Y2478419D02*
Y2480681D01*
X2693900Y2478419D02*
Y2480681D01*
X2694000Y2478419D02*
Y2480681D01*
X2694100Y2478419D02*
Y2480681D01*
X2694200Y2478419D02*
Y2480681D01*
X2694300Y2478419D02*
Y2480681D01*
X2694400Y2478419D02*
Y2480681D01*
X2694500Y2478419D02*
Y2480681D01*
X2694600Y2478419D02*
Y2480681D01*
X2694694Y2482360D02*
X2694681Y2484622D01*
X2693206Y2484614*
X2693219Y2482352*
X2694694Y2482360*
X2693219Y2482352D02*
X2693219D01*
X2693218Y2482452D02*
X2694693D01*
X2693218Y2482552D02*
X2694693D01*
X2693217Y2482652D02*
X2694692D01*
X2693217Y2482752D02*
X2694691D01*
X2693216Y2482852D02*
X2694691D01*
X2693216Y2482952D02*
X2694690D01*
X2693215Y2483052D02*
X2694690D01*
X2693214Y2483152D02*
X2694689D01*
X2693214Y2483252D02*
X2694689D01*
X2693213Y2483352D02*
X2694688D01*
X2693213Y2483452D02*
X2694688D01*
X2693212Y2483552D02*
X2694687D01*
X2693212Y2483652D02*
X2694687D01*
X2693211Y2483752D02*
X2694686D01*
X2693211Y2483852D02*
X2694685D01*
X2693210Y2483952D02*
X2694685D01*
X2693209Y2484052D02*
X2694684D01*
X2693209Y2484152D02*
X2694684D01*
X2693208Y2484252D02*
X2694683D01*
X2693208Y2484352D02*
X2694683D01*
X2693207Y2484452D02*
X2694682D01*
X2693207Y2484552D02*
X2694682D01*
X2693300Y2482352D02*
Y2484615D01*
X2693400Y2482353D02*
Y2484615D01*
X2693500Y2482353D02*
Y2484616D01*
X2693600Y2482354D02*
Y2484616D01*
X2693700Y2482354D02*
Y2484617D01*
X2693800Y2482355D02*
Y2484617D01*
X2693900Y2482356D02*
Y2484618D01*
X2694000Y2482356D02*
Y2484618D01*
X2694100Y2482357D02*
Y2484619D01*
X2694200Y2482357D02*
Y2484620D01*
X2694300Y2482358D02*
Y2484620D01*
X2694400Y2482358D02*
Y2484621D01*
X2694500Y2482359D02*
Y2484621D01*
X2694600Y2482359D02*
Y2484622D01*
X2645312Y2700081D02*
X2645313Y2697819D01*
X2646788*
X2646787Y2700081*
X2645312*
X2645313Y2697900D02*
X2646788D01*
X2645313Y2698000D02*
X2646788D01*
X2645313Y2698100D02*
X2646788D01*
X2645313Y2698200D02*
X2646788D01*
X2645313Y2698300D02*
X2646788D01*
X2645313Y2698400D02*
X2646788D01*
X2645313Y2698500D02*
X2646787D01*
X2645313Y2698600D02*
X2646787D01*
X2645313Y2698700D02*
X2646787D01*
X2645313Y2698800D02*
X2646787D01*
X2645313Y2698900D02*
X2646787D01*
X2645313Y2699000D02*
X2646787D01*
X2645313Y2699100D02*
X2646787D01*
X2645313Y2699200D02*
X2646787D01*
X2645313Y2699300D02*
X2646787D01*
X2645313Y2699400D02*
X2646787D01*
X2645312Y2699500D02*
X2646787D01*
X2645312Y2699600D02*
X2646787D01*
X2645312Y2699700D02*
X2646787D01*
X2645312Y2699800D02*
X2646787D01*
X2645312Y2699900D02*
X2646787D01*
X2645312Y2700000D02*
X2646787D01*
X2645400Y2697819D02*
Y2700081D01*
X2645500Y2697819D02*
Y2700081D01*
X2645600Y2697819D02*
Y2700081D01*
X2645700Y2697819D02*
Y2700081D01*
X2645800Y2697819D02*
Y2700081D01*
X2645900Y2697819D02*
Y2700081D01*
X2646000Y2697819D02*
Y2700081D01*
X2646100Y2697819D02*
Y2700081D01*
X2646200Y2697819D02*
Y2700081D01*
X2646300Y2697819D02*
Y2700081D01*
X2646400Y2697819D02*
Y2700081D01*
X2646500Y2697819D02*
Y2700081D01*
X2646600Y2697819D02*
Y2700081D01*
X2646700Y2697819D02*
Y2700081D01*
X2645306Y2696140D02*
X2645319Y2693878D01*
X2646794Y2693886*
X2646781Y2696148*
X2645306Y2696140*
X2645319Y2693900D02*
X2646794D01*
X2645318Y2694000D02*
X2646793D01*
X2645318Y2694100D02*
X2646792D01*
X2645317Y2694200D02*
X2646792D01*
X2645316Y2694300D02*
X2646791D01*
X2645316Y2694400D02*
X2646791D01*
X2645315Y2694500D02*
X2646790D01*
X2645315Y2694600D02*
X2646790D01*
X2645314Y2694700D02*
X2646789D01*
X2645314Y2694800D02*
X2646789D01*
X2645313Y2694900D02*
X2646788D01*
X2645313Y2695000D02*
X2646787D01*
X2645312Y2695100D02*
X2646787D01*
X2645312Y2695200D02*
X2646786D01*
X2645311Y2695300D02*
X2646786D01*
X2645310Y2695400D02*
X2646785D01*
X2645310Y2695500D02*
X2646785D01*
X2645309Y2695600D02*
X2646784D01*
X2645309Y2695700D02*
X2646784D01*
X2645308Y2695800D02*
X2646783D01*
X2645308Y2695900D02*
X2646783D01*
X2645307Y2696000D02*
X2646782D01*
X2645307Y2696100D02*
X2646781D01*
X2645400Y2693878D02*
Y2696141D01*
X2645500Y2693879D02*
Y2696141D01*
X2645600Y2693879D02*
Y2696142D01*
X2645700Y2693880D02*
Y2696142D01*
X2645800Y2693880D02*
Y2696143D01*
X2645900Y2693881D02*
Y2696143D01*
X2646000Y2693882D02*
Y2696144D01*
X2646100Y2693882D02*
Y2696144D01*
X2646200Y2693883D02*
Y2696145D01*
X2646300Y2693883D02*
Y2696146D01*
X2646400Y2693884D02*
Y2696146D01*
X2646500Y2693884D02*
Y2696147D01*
X2646600Y2693885D02*
Y2696147D01*
X2646700Y2693885D02*
Y2696148D01*
X2514419Y2408312D02*
X2516681Y2408313D01*
Y2409788*
X2514419Y2409787*
Y2408312*
X2514419*
Y2408412D02*
X2516681D01*
X2514419Y2408512D02*
X2516681D01*
X2514419Y2408612D02*
X2516681D01*
X2514419Y2408712D02*
X2516681D01*
X2514419Y2408812D02*
X2516681D01*
X2514419Y2408912D02*
X2516681D01*
X2514419Y2409012D02*
X2516681D01*
X2514419Y2409112D02*
X2516681D01*
X2514419Y2409212D02*
X2516681D01*
X2514419Y2409312D02*
X2516681D01*
X2514419Y2409412D02*
X2516681D01*
X2514419Y2409512D02*
X2516681D01*
X2514419Y2409612D02*
X2516681D01*
X2514419Y2409712D02*
X2516681D01*
X2514419Y2409787D02*
X2514419D01*
X2514519Y2408312D02*
Y2409787D01*
X2514619Y2408312D02*
Y2409787D01*
X2514719Y2408312D02*
Y2409787D01*
X2514819Y2408312D02*
Y2409787D01*
X2514919Y2408312D02*
Y2409787D01*
X2515019Y2408312D02*
Y2409787D01*
X2515119Y2408313D02*
Y2409787D01*
X2515219Y2408313D02*
Y2409787D01*
X2515319Y2408313D02*
Y2409787D01*
X2515419Y2408313D02*
Y2409787D01*
X2515519Y2408313D02*
Y2409787D01*
X2515619Y2408313D02*
Y2409787D01*
X2515719Y2408313D02*
Y2409787D01*
X2515819Y2408313D02*
Y2409787D01*
X2515919Y2408313D02*
Y2409787D01*
X2516019Y2408313D02*
Y2409787D01*
X2516119Y2408313D02*
Y2409788D01*
X2516219Y2408313D02*
Y2409788D01*
X2516319Y2408313D02*
Y2409788D01*
X2516419Y2408313D02*
Y2409788D01*
X2516519Y2408313D02*
Y2409788D01*
X2516619Y2408313D02*
Y2409788D01*
X2518360Y2408306D02*
X2520622Y2408319D01*
X2520614Y2409794*
X2518352Y2409781*
X2518360Y2408306*
X2518360*
X2518359Y2408406D02*
X2520622D01*
X2518359Y2408506D02*
X2520621D01*
X2518358Y2408606D02*
X2520621D01*
X2518358Y2408706D02*
X2520620D01*
X2518357Y2408806D02*
X2520619D01*
X2518357Y2408906D02*
X2520619D01*
X2518356Y2409006D02*
X2520618D01*
X2518356Y2409106D02*
X2520618D01*
X2518355Y2409206D02*
X2520617D01*
X2518354Y2409306D02*
X2520617D01*
X2518354Y2409406D02*
X2520616D01*
X2518353Y2409506D02*
X2520616D01*
X2518353Y2409606D02*
X2520615D01*
X2518352Y2409706D02*
X2520615D01*
X2518352Y2409781D02*
X2518352D01*
X2518452Y2408307D02*
Y2409782D01*
X2518552Y2408307D02*
Y2409782D01*
X2518652Y2408308D02*
Y2409783D01*
X2518752Y2408309D02*
Y2409783D01*
X2518852Y2408309D02*
Y2409784D01*
X2518952Y2408310D02*
Y2409784D01*
X2519052Y2408310D02*
Y2409785D01*
X2519152Y2408311D02*
Y2409786D01*
X2519252Y2408311D02*
Y2409786D01*
X2519352Y2408312D02*
Y2409787D01*
X2519452Y2408312D02*
Y2409787D01*
X2519552Y2408313D02*
Y2409788D01*
X2519652Y2408313D02*
Y2409788D01*
X2519752Y2408314D02*
Y2409789D01*
X2519852Y2408315D02*
Y2409789D01*
X2519952Y2408315D02*
Y2409790D01*
X2520052Y2408316D02*
Y2409791D01*
X2520152Y2408316D02*
Y2409791D01*
X2520252Y2408317D02*
Y2409792D01*
X2520352Y2408317D02*
Y2409792D01*
X2520452Y2408318D02*
Y2409793D01*
X2520552Y2408318D02*
Y2409793D01*
X2529331Y2409688D02*
X2527069Y2409687D01*
Y2408212*
X2529331Y2408213*
Y2409688*
X2527069Y2408212D02*
X2527069D01*
Y2408312D02*
X2529331D01*
X2527069Y2408412D02*
X2529331D01*
X2527069Y2408512D02*
X2529331D01*
X2527069Y2408612D02*
X2529331D01*
X2527069Y2408712D02*
X2529331D01*
X2527069Y2408812D02*
X2529331D01*
X2527069Y2408912D02*
X2529331D01*
X2527069Y2409012D02*
X2529331D01*
X2527069Y2409112D02*
X2529331D01*
X2527069Y2409212D02*
X2529331D01*
X2527069Y2409312D02*
X2529331D01*
X2527069Y2409412D02*
X2529331D01*
X2527069Y2409512D02*
X2529331D01*
X2527069Y2409612D02*
X2529331D01*
X2527069Y2409687D02*
X2527069D01*
X2527169Y2408212D02*
Y2409687D01*
X2527269Y2408212D02*
Y2409687D01*
X2527369Y2408212D02*
Y2409687D01*
X2527469Y2408212D02*
Y2409687D01*
X2527569Y2408212D02*
Y2409687D01*
X2527669Y2408212D02*
Y2409687D01*
X2527769Y2408213D02*
Y2409687D01*
X2527869Y2408213D02*
Y2409687D01*
X2527969Y2408213D02*
Y2409687D01*
X2528069Y2408213D02*
Y2409687D01*
X2528169Y2408213D02*
Y2409687D01*
X2528269Y2408213D02*
Y2409687D01*
X2528369Y2408213D02*
Y2409687D01*
X2528469Y2408213D02*
Y2409687D01*
X2528569Y2408213D02*
Y2409687D01*
X2528669Y2408213D02*
Y2409687D01*
X2528769Y2408213D02*
Y2409688D01*
X2528869Y2408213D02*
Y2409688D01*
X2528969Y2408213D02*
Y2409688D01*
X2529069Y2408213D02*
Y2409688D01*
X2529169Y2408213D02*
Y2409688D01*
X2529269Y2408213D02*
Y2409688D01*
X2525390Y2409694D02*
X2523128Y2409681D01*
X2523136Y2408206*
X2525398Y2408219*
X2525390Y2409694*
X2523136Y2408206D02*
X2523136D01*
X2523135Y2408306D02*
X2525398D01*
X2523135Y2408406D02*
X2525397D01*
X2523134Y2408506D02*
X2525397D01*
X2523134Y2408606D02*
X2525396D01*
X2523133Y2408706D02*
X2525395D01*
X2523133Y2408806D02*
X2525395D01*
X2523132Y2408906D02*
X2525394D01*
X2523132Y2409006D02*
X2525394D01*
X2523131Y2409106D02*
X2525393D01*
X2523130Y2409206D02*
X2525393D01*
X2523130Y2409306D02*
X2525392D01*
X2523129Y2409406D02*
X2525392D01*
X2523129Y2409506D02*
X2525391D01*
X2523128Y2409606D02*
X2525391D01*
X2523128Y2409681D02*
X2523128D01*
X2523228Y2408207D02*
Y2409682D01*
X2523328Y2408207D02*
Y2409682D01*
X2523428Y2408208D02*
Y2409683D01*
X2523528Y2408209D02*
Y2409683D01*
X2523628Y2408209D02*
Y2409684D01*
X2523728Y2408210D02*
Y2409684D01*
X2523828Y2408210D02*
Y2409685D01*
X2523928Y2408211D02*
Y2409686D01*
X2524028Y2408211D02*
Y2409686D01*
X2524128Y2408212D02*
Y2409687D01*
X2524228Y2408212D02*
Y2409687D01*
X2524328Y2408213D02*
Y2409688D01*
X2524428Y2408213D02*
Y2409688D01*
X2524528Y2408214D02*
Y2409689D01*
X2524628Y2408215D02*
Y2409689D01*
X2524728Y2408215D02*
Y2409690D01*
X2524828Y2408216D02*
Y2409691D01*
X2524928Y2408216D02*
Y2409691D01*
X2525028Y2408217D02*
Y2409692D01*
X2525128Y2408217D02*
Y2409692D01*
X2525228Y2408218D02*
Y2409693D01*
X2525328Y2408218D02*
Y2409693D01*
X2531419Y2408312D02*
X2533681Y2408313D01*
Y2409788*
X2531419Y2409787*
Y2408312*
X2531419*
Y2408412D02*
X2533681D01*
X2531419Y2408512D02*
X2533681D01*
X2531419Y2408612D02*
X2533681D01*
X2531419Y2408712D02*
X2533681D01*
X2531419Y2408812D02*
X2533681D01*
X2531419Y2408912D02*
X2533681D01*
X2531419Y2409012D02*
X2533681D01*
X2531419Y2409112D02*
X2533681D01*
X2531419Y2409212D02*
X2533681D01*
X2531419Y2409312D02*
X2533681D01*
X2531419Y2409412D02*
X2533681D01*
X2531419Y2409512D02*
X2533681D01*
X2531419Y2409612D02*
X2533681D01*
X2531419Y2409712D02*
X2533681D01*
X2531419Y2409787D02*
X2531419D01*
X2531519Y2408312D02*
Y2409787D01*
X2531619Y2408312D02*
Y2409787D01*
X2531719Y2408312D02*
Y2409787D01*
X2531819Y2408312D02*
Y2409787D01*
X2531919Y2408312D02*
Y2409787D01*
X2532019Y2408312D02*
Y2409787D01*
X2532119Y2408313D02*
Y2409787D01*
X2532219Y2408313D02*
Y2409787D01*
X2532319Y2408313D02*
Y2409787D01*
X2532419Y2408313D02*
Y2409787D01*
X2532519Y2408313D02*
Y2409787D01*
X2532619Y2408313D02*
Y2409787D01*
X2532719Y2408313D02*
Y2409787D01*
X2532819Y2408313D02*
Y2409787D01*
X2532919Y2408313D02*
Y2409787D01*
X2533019Y2408313D02*
Y2409787D01*
X2533119Y2408313D02*
Y2409788D01*
X2533219Y2408313D02*
Y2409788D01*
X2533319Y2408313D02*
Y2409788D01*
X2533419Y2408313D02*
Y2409788D01*
X2533519Y2408313D02*
Y2409788D01*
X2533619Y2408313D02*
Y2409788D01*
X2535360Y2408306D02*
X2537622Y2408319D01*
X2537614Y2409794*
X2535352Y2409781*
X2535360Y2408306*
X2535360*
X2535359Y2408406D02*
X2537622D01*
X2535359Y2408506D02*
X2537621D01*
X2535358Y2408606D02*
X2537621D01*
X2535358Y2408706D02*
X2537620D01*
X2535357Y2408806D02*
X2537619D01*
X2535357Y2408906D02*
X2537619D01*
X2535356Y2409006D02*
X2537618D01*
X2535356Y2409106D02*
X2537618D01*
X2535355Y2409206D02*
X2537617D01*
X2535354Y2409306D02*
X2537617D01*
X2535354Y2409406D02*
X2537616D01*
X2535353Y2409506D02*
X2537616D01*
X2535353Y2409606D02*
X2537615D01*
X2535352Y2409706D02*
X2537615D01*
X2535352Y2409781D02*
X2535352D01*
X2535452Y2408307D02*
Y2409782D01*
X2535552Y2408307D02*
Y2409782D01*
X2535652Y2408308D02*
Y2409783D01*
X2535752Y2408309D02*
Y2409783D01*
X2535852Y2408309D02*
Y2409784D01*
X2535952Y2408310D02*
Y2409784D01*
X2536052Y2408310D02*
Y2409785D01*
X2536152Y2408311D02*
Y2409786D01*
X2536252Y2408311D02*
Y2409786D01*
X2536352Y2408312D02*
Y2409787D01*
X2536452Y2408312D02*
Y2409787D01*
X2536552Y2408313D02*
Y2409788D01*
X2536652Y2408313D02*
Y2409788D01*
X2536752Y2408314D02*
Y2409789D01*
X2536852Y2408315D02*
Y2409789D01*
X2536952Y2408315D02*
Y2409790D01*
X2537052Y2408316D02*
Y2409791D01*
X2537152Y2408316D02*
Y2409791D01*
X2537252Y2408317D02*
Y2409792D01*
X2537352Y2408317D02*
Y2409792D01*
X2537452Y2408318D02*
Y2409793D01*
X2537552Y2408318D02*
Y2409793D01*
X2439688Y2422919D02*
X2439687Y2425181D01*
X2438212*
X2438213Y2422919*
X2439688*
X2438213D02*
X2438213D01*
Y2423019D02*
X2439688D01*
X2438213Y2423119D02*
X2439688D01*
X2438213Y2423219D02*
X2439688D01*
X2438213Y2423319D02*
X2439688D01*
X2438213Y2423419D02*
X2439688D01*
X2438213Y2423519D02*
X2439688D01*
X2438213Y2423619D02*
X2439687D01*
X2438213Y2423719D02*
X2439687D01*
X2438213Y2423819D02*
X2439687D01*
X2438213Y2423919D02*
X2439687D01*
X2438213Y2424019D02*
X2439687D01*
X2438213Y2424119D02*
X2439687D01*
X2438213Y2424219D02*
X2439687D01*
X2438213Y2424319D02*
X2439687D01*
X2438213Y2424419D02*
X2439687D01*
X2438213Y2424519D02*
X2439687D01*
X2438212Y2424619D02*
X2439687D01*
X2438212Y2424719D02*
X2439687D01*
X2438212Y2424819D02*
X2439687D01*
X2438212Y2424919D02*
X2439687D01*
X2438212Y2425019D02*
X2439687D01*
X2438212Y2425119D02*
X2439687D01*
X2438212Y2425181D02*
X2438212D01*
X2438312Y2422919D02*
Y2425181D01*
X2438412Y2422919D02*
Y2425181D01*
X2438512Y2422919D02*
Y2425181D01*
X2438612Y2422919D02*
Y2425181D01*
X2438712Y2422919D02*
Y2425181D01*
X2438812Y2422919D02*
Y2425181D01*
X2438912Y2422919D02*
Y2425181D01*
X2439012Y2422919D02*
Y2425181D01*
X2439112Y2422919D02*
Y2425181D01*
X2439212Y2422919D02*
Y2425181D01*
X2439312Y2422919D02*
Y2425181D01*
X2439412Y2422919D02*
Y2425181D01*
X2439512Y2422919D02*
Y2425181D01*
X2439612Y2422919D02*
Y2425181D01*
X2439694Y2426860D02*
X2439681Y2429122D01*
X2438206Y2429114*
X2438219Y2426852*
X2439694Y2426860*
X2438219Y2426852D02*
X2438219D01*
X2438218Y2426952D02*
X2439693D01*
X2438218Y2427052D02*
X2439693D01*
X2438217Y2427152D02*
X2439692D01*
X2438217Y2427252D02*
X2439691D01*
X2438216Y2427352D02*
X2439691D01*
X2438216Y2427452D02*
X2439690D01*
X2438215Y2427552D02*
X2439690D01*
X2438214Y2427652D02*
X2439689D01*
X2438214Y2427752D02*
X2439689D01*
X2438213Y2427852D02*
X2439688D01*
X2438213Y2427952D02*
X2439688D01*
X2438212Y2428052D02*
X2439687D01*
X2438212Y2428152D02*
X2439687D01*
X2438211Y2428252D02*
X2439686D01*
X2438211Y2428352D02*
X2439685D01*
X2438210Y2428452D02*
X2439685D01*
X2438209Y2428552D02*
X2439684D01*
X2438209Y2428652D02*
X2439684D01*
X2438208Y2428752D02*
X2439683D01*
X2438208Y2428852D02*
X2439683D01*
X2438207Y2428952D02*
X2439682D01*
X2438207Y2429052D02*
X2439682D01*
X2438206Y2429114D02*
X2438206D01*
X2438306Y2426852D02*
Y2429115D01*
X2438406Y2426853D02*
Y2429115D01*
X2438506Y2426853D02*
Y2429116D01*
X2438606Y2426854D02*
Y2429116D01*
X2438706Y2426855D02*
Y2429117D01*
X2438806Y2426855D02*
Y2429117D01*
X2438906Y2426856D02*
Y2429118D01*
X2439006Y2426856D02*
Y2429118D01*
X2439106Y2426857D02*
Y2429119D01*
X2439206Y2426857D02*
Y2429120D01*
X2439306Y2426858D02*
Y2429120D01*
X2439406Y2426858D02*
Y2429121D01*
X2439506Y2426859D02*
Y2429121D01*
X2439606Y2426859D02*
Y2429122D01*
X2443688Y2422919D02*
X2443687Y2425181D01*
X2442212*
X2442213Y2422919*
X2443688*
X2442213D02*
X2442213D01*
Y2423019D02*
X2443688D01*
X2442213Y2423119D02*
X2443688D01*
X2442213Y2423219D02*
X2443688D01*
X2442213Y2423319D02*
X2443688D01*
X2442213Y2423419D02*
X2443688D01*
X2442213Y2423519D02*
X2443688D01*
X2442213Y2423619D02*
X2443687D01*
X2442213Y2423719D02*
X2443687D01*
X2442213Y2423819D02*
X2443687D01*
X2442213Y2423919D02*
X2443687D01*
X2442213Y2424019D02*
X2443687D01*
X2442213Y2424119D02*
X2443687D01*
X2442213Y2424219D02*
X2443687D01*
X2442213Y2424319D02*
X2443687D01*
X2442213Y2424419D02*
X2443687D01*
X2442213Y2424519D02*
X2443687D01*
X2442212Y2424619D02*
X2443687D01*
X2442212Y2424719D02*
X2443687D01*
X2442212Y2424819D02*
X2443687D01*
X2442212Y2424919D02*
X2443687D01*
X2442212Y2425019D02*
X2443687D01*
X2442212Y2425119D02*
X2443687D01*
X2442212Y2425181D02*
X2442212D01*
X2442312Y2422919D02*
Y2425181D01*
X2442412Y2422919D02*
Y2425181D01*
X2442512Y2422919D02*
Y2425181D01*
X2442612Y2422919D02*
Y2425181D01*
X2442712Y2422919D02*
Y2425181D01*
X2442812Y2422919D02*
Y2425181D01*
X2442912Y2422919D02*
Y2425181D01*
X2443012Y2422919D02*
Y2425181D01*
X2443112Y2422919D02*
Y2425181D01*
X2443212Y2422919D02*
Y2425181D01*
X2443312Y2422919D02*
Y2425181D01*
X2443412Y2422919D02*
Y2425181D01*
X2443512Y2422919D02*
Y2425181D01*
X2443612Y2422919D02*
Y2425181D01*
X2443694Y2426860D02*
X2443681Y2429122D01*
X2442206Y2429114*
X2442219Y2426852*
X2443694Y2426860*
X2442219Y2426852D02*
X2442219D01*
X2442218Y2426952D02*
X2443693D01*
X2442218Y2427052D02*
X2443693D01*
X2442217Y2427152D02*
X2443692D01*
X2442217Y2427252D02*
X2443691D01*
X2442216Y2427352D02*
X2443691D01*
X2442216Y2427452D02*
X2443690D01*
X2442215Y2427552D02*
X2443690D01*
X2442214Y2427652D02*
X2443689D01*
X2442214Y2427752D02*
X2443689D01*
X2442213Y2427852D02*
X2443688D01*
X2442213Y2427952D02*
X2443688D01*
X2442212Y2428052D02*
X2443687D01*
X2442212Y2428152D02*
X2443687D01*
X2442211Y2428252D02*
X2443686D01*
X2442211Y2428352D02*
X2443685D01*
X2442210Y2428452D02*
X2443685D01*
X2442209Y2428552D02*
X2443684D01*
X2442209Y2428652D02*
X2443684D01*
X2442208Y2428752D02*
X2443683D01*
X2442208Y2428852D02*
X2443683D01*
X2442207Y2428952D02*
X2443682D01*
X2442207Y2429052D02*
X2443682D01*
X2442206Y2429114D02*
X2442206D01*
X2442306Y2426852D02*
Y2429115D01*
X2442406Y2426853D02*
Y2429115D01*
X2442506Y2426853D02*
Y2429116D01*
X2442606Y2426854D02*
Y2429116D01*
X2442706Y2426855D02*
Y2429117D01*
X2442806Y2426855D02*
Y2429117D01*
X2442906Y2426856D02*
Y2429118D01*
X2443006Y2426856D02*
Y2429118D01*
X2443106Y2426857D02*
Y2429119D01*
X2443206Y2426857D02*
Y2429120D01*
X2443306Y2426858D02*
Y2429120D01*
X2443406Y2426858D02*
Y2429121D01*
X2443506Y2426859D02*
Y2429121D01*
X2443606Y2426859D02*
Y2429122D01*
X2451938Y2422919D02*
X2451937Y2425181D01*
X2450462*
X2450463Y2422919*
X2451938*
X2450463D02*
X2450463D01*
Y2423019D02*
X2451938D01*
X2450463Y2423119D02*
X2451938D01*
X2450463Y2423219D02*
X2451938D01*
X2450463Y2423319D02*
X2451938D01*
X2450463Y2423419D02*
X2451938D01*
X2450463Y2423519D02*
X2451938D01*
X2450463Y2423619D02*
X2451937D01*
X2450463Y2423719D02*
X2451937D01*
X2450463Y2423819D02*
X2451937D01*
X2450463Y2423919D02*
X2451937D01*
X2450463Y2424019D02*
X2451937D01*
X2450463Y2424119D02*
X2451937D01*
X2450463Y2424219D02*
X2451937D01*
X2450463Y2424319D02*
X2451937D01*
X2450463Y2424419D02*
X2451937D01*
X2450463Y2424519D02*
X2451937D01*
X2450462Y2424619D02*
X2451937D01*
X2450462Y2424719D02*
X2451937D01*
X2450462Y2424819D02*
X2451937D01*
X2450462Y2424919D02*
X2451937D01*
X2450462Y2425019D02*
X2451937D01*
X2450462Y2425119D02*
X2451937D01*
X2450462Y2425181D02*
X2450462D01*
X2450562Y2422919D02*
Y2425181D01*
X2450662Y2422919D02*
Y2425181D01*
X2450762Y2422919D02*
Y2425181D01*
X2450862Y2422919D02*
Y2425181D01*
X2450962Y2422919D02*
Y2425181D01*
X2451062Y2422919D02*
Y2425181D01*
X2451162Y2422919D02*
Y2425181D01*
X2451262Y2422919D02*
Y2425181D01*
X2451362Y2422919D02*
Y2425181D01*
X2451462Y2422919D02*
Y2425181D01*
X2451562Y2422919D02*
Y2425181D01*
X2451662Y2422919D02*
Y2425181D01*
X2451762Y2422919D02*
Y2425181D01*
X2451862Y2422919D02*
Y2425181D01*
X2451944Y2426860D02*
X2451931Y2429122D01*
X2450456Y2429114*
X2450469Y2426852*
X2451944Y2426860*
X2450469Y2426852D02*
X2450469D01*
X2450468Y2426952D02*
X2451943D01*
X2450468Y2427052D02*
X2451943D01*
X2450467Y2427152D02*
X2451942D01*
X2450467Y2427252D02*
X2451941D01*
X2450466Y2427352D02*
X2451941D01*
X2450466Y2427452D02*
X2451940D01*
X2450465Y2427552D02*
X2451940D01*
X2450464Y2427652D02*
X2451939D01*
X2450464Y2427752D02*
X2451939D01*
X2450463Y2427852D02*
X2451938D01*
X2450463Y2427952D02*
X2451938D01*
X2450462Y2428052D02*
X2451937D01*
X2450462Y2428152D02*
X2451937D01*
X2450461Y2428252D02*
X2451936D01*
X2450461Y2428352D02*
X2451935D01*
X2450460Y2428452D02*
X2451935D01*
X2450459Y2428552D02*
X2451934D01*
X2450459Y2428652D02*
X2451934D01*
X2450458Y2428752D02*
X2451933D01*
X2450458Y2428852D02*
X2451933D01*
X2450457Y2428952D02*
X2451932D01*
X2450457Y2429052D02*
X2451932D01*
X2450456Y2429114D02*
X2450456D01*
X2450556Y2426852D02*
Y2429115D01*
X2450656Y2426853D02*
Y2429115D01*
X2450756Y2426853D02*
Y2429116D01*
X2450856Y2426854D02*
Y2429116D01*
X2450956Y2426855D02*
Y2429117D01*
X2451056Y2426855D02*
Y2429117D01*
X2451156Y2426856D02*
Y2429118D01*
X2451256Y2426856D02*
Y2429118D01*
X2451356Y2426857D02*
Y2429119D01*
X2451456Y2426857D02*
Y2429120D01*
X2451556Y2426858D02*
Y2429120D01*
X2451656Y2426858D02*
Y2429121D01*
X2451756Y2426859D02*
Y2429121D01*
X2451856Y2426859D02*
Y2429122D01*
X2460438Y2422919D02*
X2460437Y2425181D01*
X2458962*
X2458963Y2422919*
X2460438*
X2458963D02*
X2458963D01*
Y2423019D02*
X2460438D01*
X2458963Y2423119D02*
X2460438D01*
X2458963Y2423219D02*
X2460438D01*
X2458963Y2423319D02*
X2460438D01*
X2458963Y2423419D02*
X2460438D01*
X2458963Y2423519D02*
X2460438D01*
X2458963Y2423619D02*
X2460437D01*
X2458963Y2423719D02*
X2460437D01*
X2458963Y2423819D02*
X2460437D01*
X2458963Y2423919D02*
X2460437D01*
X2458963Y2424019D02*
X2460437D01*
X2458963Y2424119D02*
X2460437D01*
X2458963Y2424219D02*
X2460437D01*
X2458963Y2424319D02*
X2460437D01*
X2458963Y2424419D02*
X2460437D01*
X2458963Y2424519D02*
X2460437D01*
X2458962Y2424619D02*
X2460437D01*
X2458962Y2424719D02*
X2460437D01*
X2458962Y2424819D02*
X2460437D01*
X2458962Y2424919D02*
X2460437D01*
X2458962Y2425019D02*
X2460437D01*
X2458962Y2425119D02*
X2460437D01*
X2458962Y2425181D02*
X2458962D01*
X2459062Y2422919D02*
Y2425181D01*
X2459162Y2422919D02*
Y2425181D01*
X2459262Y2422919D02*
Y2425181D01*
X2459362Y2422919D02*
Y2425181D01*
X2459462Y2422919D02*
Y2425181D01*
X2459562Y2422919D02*
Y2425181D01*
X2459662Y2422919D02*
Y2425181D01*
X2459762Y2422919D02*
Y2425181D01*
X2459862Y2422919D02*
Y2425181D01*
X2459962Y2422919D02*
Y2425181D01*
X2460062Y2422919D02*
Y2425181D01*
X2460162Y2422919D02*
Y2425181D01*
X2460262Y2422919D02*
Y2425181D01*
X2460362Y2422919D02*
Y2425181D01*
X2460444Y2426860D02*
X2460431Y2429122D01*
X2458956Y2429114*
X2458969Y2426852*
X2460444Y2426860*
X2458969Y2426852D02*
X2458969D01*
X2458968Y2426952D02*
X2460443D01*
X2458968Y2427052D02*
X2460443D01*
X2458967Y2427152D02*
X2460442D01*
X2458967Y2427252D02*
X2460441D01*
X2458966Y2427352D02*
X2460441D01*
X2458966Y2427452D02*
X2460440D01*
X2458965Y2427552D02*
X2460440D01*
X2458964Y2427652D02*
X2460439D01*
X2458964Y2427752D02*
X2460439D01*
X2458963Y2427852D02*
X2460438D01*
X2458963Y2427952D02*
X2460438D01*
X2458962Y2428052D02*
X2460437D01*
X2458962Y2428152D02*
X2460437D01*
X2458961Y2428252D02*
X2460436D01*
X2458961Y2428352D02*
X2460435D01*
X2458960Y2428452D02*
X2460435D01*
X2458959Y2428552D02*
X2460434D01*
X2458959Y2428652D02*
X2460434D01*
X2458958Y2428752D02*
X2460433D01*
X2458958Y2428852D02*
X2460433D01*
X2458957Y2428952D02*
X2460432D01*
X2458957Y2429052D02*
X2460432D01*
X2458956Y2429114D02*
X2458956D01*
X2459056Y2426852D02*
Y2429115D01*
X2459156Y2426853D02*
Y2429115D01*
X2459256Y2426853D02*
Y2429116D01*
X2459356Y2426854D02*
Y2429116D01*
X2459456Y2426855D02*
Y2429117D01*
X2459556Y2426855D02*
Y2429117D01*
X2459656Y2426856D02*
Y2429118D01*
X2459756Y2426856D02*
Y2429118D01*
X2459856Y2426857D02*
Y2429119D01*
X2459956Y2426857D02*
Y2429120D01*
X2460056Y2426858D02*
Y2429120D01*
X2460156Y2426858D02*
Y2429121D01*
X2460256Y2426859D02*
Y2429121D01*
X2460356Y2426859D02*
Y2429122D01*
X2464688Y2422919D02*
X2464687Y2425181D01*
X2463212*
X2463213Y2422919*
X2464688*
X2463213D02*
X2463213D01*
Y2423019D02*
X2464688D01*
X2463213Y2423119D02*
X2464688D01*
X2463213Y2423219D02*
X2464688D01*
X2463213Y2423319D02*
X2464688D01*
X2463213Y2423419D02*
X2464688D01*
X2463213Y2423519D02*
X2464688D01*
X2463213Y2423619D02*
X2464687D01*
X2463213Y2423719D02*
X2464687D01*
X2463213Y2423819D02*
X2464687D01*
X2463213Y2423919D02*
X2464687D01*
X2463213Y2424019D02*
X2464687D01*
X2463213Y2424119D02*
X2464687D01*
X2463213Y2424219D02*
X2464687D01*
X2463213Y2424319D02*
X2464687D01*
X2463213Y2424419D02*
X2464687D01*
X2463213Y2424519D02*
X2464687D01*
X2463212Y2424619D02*
X2464687D01*
X2463212Y2424719D02*
X2464687D01*
X2463212Y2424819D02*
X2464687D01*
X2463212Y2424919D02*
X2464687D01*
X2463212Y2425019D02*
X2464687D01*
X2463212Y2425119D02*
X2464687D01*
X2463212Y2425181D02*
X2463212D01*
X2463312Y2422919D02*
Y2425181D01*
X2463412Y2422919D02*
Y2425181D01*
X2463512Y2422919D02*
Y2425181D01*
X2463612Y2422919D02*
Y2425181D01*
X2463712Y2422919D02*
Y2425181D01*
X2463812Y2422919D02*
Y2425181D01*
X2463912Y2422919D02*
Y2425181D01*
X2464012Y2422919D02*
Y2425181D01*
X2464112Y2422919D02*
Y2425181D01*
X2464212Y2422919D02*
Y2425181D01*
X2464312Y2422919D02*
Y2425181D01*
X2464412Y2422919D02*
Y2425181D01*
X2464512Y2422919D02*
Y2425181D01*
X2464612Y2422919D02*
Y2425181D01*
X2464694Y2426860D02*
X2464681Y2429122D01*
X2463206Y2429114*
X2463219Y2426852*
X2464694Y2426860*
X2463219Y2426852D02*
X2463219D01*
X2463218Y2426952D02*
X2464693D01*
X2463218Y2427052D02*
X2464693D01*
X2463217Y2427152D02*
X2464692D01*
X2463217Y2427252D02*
X2464691D01*
X2463216Y2427352D02*
X2464691D01*
X2463216Y2427452D02*
X2464690D01*
X2463215Y2427552D02*
X2464690D01*
X2463214Y2427652D02*
X2464689D01*
X2463214Y2427752D02*
X2464689D01*
X2463213Y2427852D02*
X2464688D01*
X2463213Y2427952D02*
X2464688D01*
X2463212Y2428052D02*
X2464687D01*
X2463212Y2428152D02*
X2464687D01*
X2463211Y2428252D02*
X2464686D01*
X2463211Y2428352D02*
X2464685D01*
X2463210Y2428452D02*
X2464685D01*
X2463209Y2428552D02*
X2464684D01*
X2463209Y2428652D02*
X2464684D01*
X2463208Y2428752D02*
X2464683D01*
X2463208Y2428852D02*
X2464683D01*
X2463207Y2428952D02*
X2464682D01*
X2463207Y2429052D02*
X2464682D01*
X2463206Y2429114D02*
X2463206D01*
X2463306Y2426852D02*
Y2429115D01*
X2463406Y2426853D02*
Y2429115D01*
X2463506Y2426853D02*
Y2429116D01*
X2463606Y2426854D02*
Y2429116D01*
X2463706Y2426855D02*
Y2429117D01*
X2463806Y2426855D02*
Y2429117D01*
X2463906Y2426856D02*
Y2429118D01*
X2464006Y2426856D02*
Y2429118D01*
X2464106Y2426857D02*
Y2429119D01*
X2464206Y2426857D02*
Y2429120D01*
X2464306Y2426858D02*
Y2429120D01*
X2464406Y2426858D02*
Y2429121D01*
X2464506Y2426859D02*
Y2429121D01*
X2464606Y2426859D02*
Y2429122D01*
X2472938Y2422919D02*
X2472937Y2425181D01*
X2471462*
X2471463Y2422919*
X2472938*
X2471463D02*
X2471463D01*
Y2423019D02*
X2472938D01*
X2471463Y2423119D02*
X2472938D01*
X2471463Y2423219D02*
X2472938D01*
X2471463Y2423319D02*
X2472938D01*
X2471463Y2423419D02*
X2472938D01*
X2471463Y2423519D02*
X2472938D01*
X2471463Y2423619D02*
X2472937D01*
X2471463Y2423719D02*
X2472937D01*
X2471463Y2423819D02*
X2472937D01*
X2471463Y2423919D02*
X2472937D01*
X2471463Y2424019D02*
X2472937D01*
X2471463Y2424119D02*
X2472937D01*
X2471463Y2424219D02*
X2472937D01*
X2471463Y2424319D02*
X2472937D01*
X2471463Y2424419D02*
X2472937D01*
X2471463Y2424519D02*
X2472937D01*
X2471462Y2424619D02*
X2472937D01*
X2471462Y2424719D02*
X2472937D01*
X2471462Y2424819D02*
X2472937D01*
X2471462Y2424919D02*
X2472937D01*
X2471462Y2425019D02*
X2472937D01*
X2471462Y2425119D02*
X2472937D01*
X2471462Y2425181D02*
X2471462D01*
X2471562Y2422919D02*
Y2425181D01*
X2471662Y2422919D02*
Y2425181D01*
X2471762Y2422919D02*
Y2425181D01*
X2471862Y2422919D02*
Y2425181D01*
X2471962Y2422919D02*
Y2425181D01*
X2472062Y2422919D02*
Y2425181D01*
X2472162Y2422919D02*
Y2425181D01*
X2472262Y2422919D02*
Y2425181D01*
X2472362Y2422919D02*
Y2425181D01*
X2472462Y2422919D02*
Y2425181D01*
X2472562Y2422919D02*
Y2425181D01*
X2472662Y2422919D02*
Y2425181D01*
X2472762Y2422919D02*
Y2425181D01*
X2472862Y2422919D02*
Y2425181D01*
X2472944Y2426860D02*
X2472931Y2429122D01*
X2471456Y2429114*
X2471469Y2426852*
X2472944Y2426860*
X2471469Y2426852D02*
X2471469D01*
X2471468Y2426952D02*
X2472943D01*
X2471468Y2427052D02*
X2472943D01*
X2471467Y2427152D02*
X2472942D01*
X2471467Y2427252D02*
X2472941D01*
X2471466Y2427352D02*
X2472941D01*
X2471466Y2427452D02*
X2472940D01*
X2471465Y2427552D02*
X2472940D01*
X2471464Y2427652D02*
X2472939D01*
X2471464Y2427752D02*
X2472939D01*
X2471463Y2427852D02*
X2472938D01*
X2471463Y2427952D02*
X2472938D01*
X2471462Y2428052D02*
X2472937D01*
X2471462Y2428152D02*
X2472937D01*
X2471461Y2428252D02*
X2472936D01*
X2471461Y2428352D02*
X2472935D01*
X2471460Y2428452D02*
X2472935D01*
X2471459Y2428552D02*
X2472934D01*
X2471459Y2428652D02*
X2472934D01*
X2471458Y2428752D02*
X2472933D01*
X2471458Y2428852D02*
X2472933D01*
X2471457Y2428952D02*
X2472932D01*
X2471457Y2429052D02*
X2472932D01*
X2471456Y2429114D02*
X2471456D01*
X2471556Y2426852D02*
Y2429115D01*
X2471656Y2426853D02*
Y2429115D01*
X2471756Y2426853D02*
Y2429116D01*
X2471856Y2426854D02*
Y2429116D01*
X2471956Y2426855D02*
Y2429117D01*
X2472056Y2426855D02*
Y2429117D01*
X2472156Y2426856D02*
Y2429118D01*
X2472256Y2426856D02*
Y2429118D01*
X2472356Y2426857D02*
Y2429119D01*
X2472456Y2426857D02*
Y2429120D01*
X2472556Y2426858D02*
Y2429120D01*
X2472656Y2426858D02*
Y2429121D01*
X2472756Y2426859D02*
Y2429121D01*
X2472856Y2426859D02*
Y2429122D01*
X2694469Y2406384D02*
Y2408646D01*
X2692994*
Y2406383*
X2694469Y2406384*
X2692994Y2406383D02*
X2692994D01*
Y2406483D02*
X2694469D01*
X2692994Y2406583D02*
X2694469D01*
X2692994Y2406683D02*
X2694469D01*
X2692994Y2406783D02*
X2694469D01*
X2692994Y2406883D02*
X2694469D01*
X2692994Y2406983D02*
X2694469D01*
X2692994Y2407083D02*
X2694469D01*
X2692994Y2407183D02*
X2694469D01*
X2692994Y2407283D02*
X2694469D01*
X2692994Y2407383D02*
X2694469D01*
X2692994Y2407483D02*
X2694469D01*
X2692994Y2407583D02*
X2694469D01*
X2692994Y2407683D02*
X2694469D01*
X2692994Y2407783D02*
X2694469D01*
X2692994Y2407883D02*
X2694469D01*
X2692994Y2407983D02*
X2694469D01*
X2692994Y2408083D02*
X2694469D01*
X2692994Y2408183D02*
X2694469D01*
X2692994Y2408283D02*
X2694469D01*
X2692994Y2408383D02*
X2694469D01*
X2692994Y2408483D02*
X2694469D01*
X2692994Y2408583D02*
X2694469D01*
X2693000Y2406383D02*
Y2408646D01*
X2693100Y2406383D02*
Y2408646D01*
X2693200Y2406383D02*
Y2408646D01*
X2693300Y2406383D02*
Y2408646D01*
X2693400Y2406383D02*
Y2408646D01*
X2693500Y2406383D02*
Y2408646D01*
X2693600Y2406383D02*
Y2408646D01*
X2693700Y2406383D02*
Y2408646D01*
X2693800Y2406383D02*
Y2408646D01*
X2693900Y2406383D02*
Y2408646D01*
X2694000Y2406383D02*
Y2408646D01*
X2694100Y2406384D02*
Y2408646D01*
X2694200Y2406384D02*
Y2408646D01*
X2694300Y2406384D02*
Y2408646D01*
X2694400Y2406384D02*
Y2408646D01*
X2694475Y2410325D02*
X2694463Y2412587D01*
X2692988Y2412579*
X2693000Y2410316*
X2694475Y2410325*
X2693000Y2410316D02*
X2693000D01*
Y2410416D02*
X2694475D01*
X2692999Y2410516D02*
X2694474D01*
X2692999Y2410616D02*
X2694474D01*
X2692998Y2410716D02*
X2694473D01*
X2692998Y2410816D02*
X2694472D01*
X2692997Y2410916D02*
X2694472D01*
X2692996Y2411016D02*
X2694471D01*
X2692996Y2411116D02*
X2694471D01*
X2692995Y2411216D02*
X2694470D01*
X2692995Y2411316D02*
X2694470D01*
X2692994Y2411416D02*
X2694469D01*
X2692994Y2411516D02*
X2694469D01*
X2692993Y2411616D02*
X2694468D01*
X2692993Y2411716D02*
X2694467D01*
X2692992Y2411816D02*
X2694467D01*
X2692992Y2411916D02*
X2694466D01*
X2692991Y2412016D02*
X2694466D01*
X2692990Y2412116D02*
X2694465D01*
X2692990Y2412216D02*
X2694465D01*
X2692989Y2412316D02*
X2694464D01*
X2692989Y2412416D02*
X2694464D01*
X2692988Y2412516D02*
X2694463D01*
X2693000Y2410373D02*
Y2412579D01*
X2693100Y2410317D02*
Y2412579D01*
X2693200Y2410318D02*
Y2412580D01*
X2693300Y2410318D02*
Y2412580D01*
X2693400Y2410319D02*
Y2412581D01*
X2693500Y2410319D02*
Y2412581D01*
X2693600Y2410320D02*
Y2412582D01*
X2693700Y2410320D02*
Y2412583D01*
X2693800Y2410321D02*
Y2412583D01*
X2693900Y2410321D02*
Y2412584D01*
X2694000Y2410322D02*
Y2412584D01*
X2694100Y2410322D02*
Y2412585D01*
X2694200Y2410323D02*
Y2412585D01*
X2694300Y2410324D02*
Y2412586D01*
X2694400Y2410324D02*
Y2412586D01*
X2479688Y2422919D02*
X2479687Y2425181D01*
X2478212*
X2478213Y2422919*
X2479688*
X2478213D02*
X2478213D01*
Y2423019D02*
X2479688D01*
X2478213Y2423119D02*
X2479688D01*
X2478213Y2423219D02*
X2479688D01*
X2478213Y2423319D02*
X2479688D01*
X2478213Y2423419D02*
X2479688D01*
X2478213Y2423519D02*
X2479688D01*
X2478213Y2423619D02*
X2479687D01*
X2478213Y2423719D02*
X2479687D01*
X2478213Y2423819D02*
X2479687D01*
X2478213Y2423919D02*
X2479687D01*
X2478213Y2424019D02*
X2479687D01*
X2478213Y2424119D02*
X2479687D01*
X2478213Y2424219D02*
X2479687D01*
X2478213Y2424319D02*
X2479687D01*
X2478213Y2424419D02*
X2479687D01*
X2478213Y2424519D02*
X2479687D01*
X2478212Y2424619D02*
X2479687D01*
X2478212Y2424719D02*
X2479687D01*
X2478212Y2424819D02*
X2479687D01*
X2478212Y2424919D02*
X2479687D01*
X2478212Y2425019D02*
X2479687D01*
X2478212Y2425119D02*
X2479687D01*
X2478212Y2425181D02*
X2478212D01*
X2478312Y2422919D02*
Y2425181D01*
X2478412Y2422919D02*
Y2425181D01*
X2478512Y2422919D02*
Y2425181D01*
X2478612Y2422919D02*
Y2425181D01*
X2478712Y2422919D02*
Y2425181D01*
X2478812Y2422919D02*
Y2425181D01*
X2478912Y2422919D02*
Y2425181D01*
X2479012Y2422919D02*
Y2425181D01*
X2479112Y2422919D02*
Y2425181D01*
X2479212Y2422919D02*
Y2425181D01*
X2479312Y2422919D02*
Y2425181D01*
X2479412Y2422919D02*
Y2425181D01*
X2479512Y2422919D02*
Y2425181D01*
X2479612Y2422919D02*
Y2425181D01*
X2479694Y2426860D02*
X2479681Y2429122D01*
X2478206Y2429114*
X2478219Y2426852*
X2479694Y2426860*
X2478219Y2426852D02*
X2478219D01*
X2478218Y2426952D02*
X2479693D01*
X2478218Y2427052D02*
X2479693D01*
X2478217Y2427152D02*
X2479692D01*
X2478217Y2427252D02*
X2479691D01*
X2478216Y2427352D02*
X2479691D01*
X2478216Y2427452D02*
X2479690D01*
X2478215Y2427552D02*
X2479690D01*
X2478214Y2427652D02*
X2479689D01*
X2478214Y2427752D02*
X2479689D01*
X2478213Y2427852D02*
X2479688D01*
X2478213Y2427952D02*
X2479688D01*
X2478212Y2428052D02*
X2479687D01*
X2478212Y2428152D02*
X2479687D01*
X2478211Y2428252D02*
X2479686D01*
X2478211Y2428352D02*
X2479685D01*
X2478210Y2428452D02*
X2479685D01*
X2478209Y2428552D02*
X2479684D01*
X2478209Y2428652D02*
X2479684D01*
X2478208Y2428752D02*
X2479683D01*
X2478208Y2428852D02*
X2479683D01*
X2478207Y2428952D02*
X2479682D01*
X2478207Y2429052D02*
X2479682D01*
X2478206Y2429114D02*
X2478206D01*
X2478306Y2426852D02*
Y2429115D01*
X2478406Y2426853D02*
Y2429115D01*
X2478506Y2426853D02*
Y2429116D01*
X2478606Y2426854D02*
Y2429116D01*
X2478706Y2426855D02*
Y2429117D01*
X2478806Y2426855D02*
Y2429117D01*
X2478906Y2426856D02*
Y2429118D01*
X2479006Y2426856D02*
Y2429118D01*
X2479106Y2426857D02*
Y2429119D01*
X2479206Y2426857D02*
Y2429120D01*
X2479306Y2426858D02*
Y2429120D01*
X2479406Y2426858D02*
Y2429121D01*
X2479506Y2426859D02*
Y2429121D01*
X2479606Y2426859D02*
Y2429122D01*
X2739656Y2678798D02*
X2737394Y2678797D01*
Y2677323*
X2739656*
Y2678798*
X2737394Y2677400D02*
X2739656D01*
X2737394Y2677500D02*
X2739656D01*
X2737394Y2677600D02*
X2739656D01*
X2737394Y2677700D02*
X2739656D01*
X2737394Y2677800D02*
X2739656D01*
X2737394Y2677900D02*
X2739656D01*
X2737394Y2678000D02*
X2739656D01*
X2737394Y2678100D02*
X2739656D01*
X2737394Y2678200D02*
X2739656D01*
X2737394Y2678300D02*
X2739656D01*
X2737394Y2678400D02*
X2739656D01*
X2737394Y2678500D02*
X2739656D01*
X2737394Y2678600D02*
X2739656D01*
X2737394Y2678700D02*
X2739656D01*
X2737400Y2677323D02*
Y2678797D01*
X2737500Y2677323D02*
Y2678797D01*
X2737600Y2677323D02*
Y2678797D01*
X2737700Y2677323D02*
Y2678798D01*
X2737800Y2677323D02*
Y2678798D01*
X2737900Y2677323D02*
Y2678798D01*
X2738000Y2677323D02*
Y2678798D01*
X2738100Y2677323D02*
Y2678798D01*
X2738200Y2677323D02*
Y2678798D01*
X2738300Y2677323D02*
Y2678798D01*
X2738400Y2677323D02*
Y2678798D01*
X2738500Y2677323D02*
Y2678798D01*
X2738600Y2677323D02*
Y2678798D01*
X2738700Y2677323D02*
Y2678798D01*
X2738800Y2677323D02*
Y2678798D01*
X2738900Y2677323D02*
Y2678798D01*
X2739000Y2677323D02*
Y2678798D01*
X2739100Y2677323D02*
Y2678798D01*
X2739200Y2677323D02*
Y2678798D01*
X2739300Y2677323D02*
Y2678798D01*
X2739400Y2677323D02*
Y2678798D01*
X2739500Y2677323D02*
Y2678798D01*
X2739600Y2677323D02*
Y2678798D01*
X2735715Y2678804D02*
X2733453Y2678791D01*
X2733461Y2677317*
X2735723Y2677329*
X2735715Y2678804*
X2733460Y2677400D02*
X2735723D01*
X2733460Y2677500D02*
X2735722D01*
X2733459Y2677600D02*
X2735721D01*
X2733459Y2677700D02*
X2735721D01*
X2733458Y2677800D02*
X2735720D01*
X2733458Y2677900D02*
X2735720D01*
X2733457Y2678000D02*
X2735719D01*
X2733456Y2678100D02*
X2735719D01*
X2733456Y2678200D02*
X2735718D01*
X2733455Y2678300D02*
X2735718D01*
X2733455Y2678400D02*
X2735717D01*
X2733454Y2678500D02*
X2735717D01*
X2733454Y2678600D02*
X2735716D01*
X2733453Y2678700D02*
X2735715D01*
X2735013Y2678800D02*
X2735715D01*
X2733500Y2677317D02*
Y2678792D01*
X2733600Y2677317D02*
Y2678792D01*
X2733700Y2677318D02*
Y2678793D01*
X2733800Y2677318D02*
Y2678793D01*
X2733900Y2677319D02*
Y2678794D01*
X2734000Y2677320D02*
Y2678794D01*
X2734100Y2677320D02*
Y2678795D01*
X2734200Y2677321D02*
Y2678796D01*
X2734300Y2677321D02*
Y2678796D01*
X2734400Y2677322D02*
Y2678797D01*
X2734500Y2677322D02*
Y2678797D01*
X2734600Y2677323D02*
Y2678798D01*
X2734700Y2677323D02*
Y2678798D01*
X2734800Y2677324D02*
Y2678799D01*
X2734900Y2677325D02*
Y2678799D01*
X2735000Y2677325D02*
Y2678800D01*
X2735100Y2677326D02*
Y2678800D01*
X2735200Y2677326D02*
Y2678801D01*
X2735300Y2677327D02*
Y2678802D01*
X2735400Y2677327D02*
Y2678802D01*
X2735500Y2677328D02*
Y2678803D01*
X2735600Y2677328D02*
Y2678803D01*
X2735700Y2677329D02*
Y2678804D01*
X2690469Y2406384D02*
Y2408646D01*
X2688994*
Y2406383*
X2690469Y2406384*
X2688994Y2406383D02*
X2688994D01*
Y2406483D02*
X2690469D01*
X2688994Y2406583D02*
X2690469D01*
X2688994Y2406683D02*
X2690469D01*
X2688994Y2406783D02*
X2690469D01*
X2688994Y2406883D02*
X2690469D01*
X2688994Y2406983D02*
X2690469D01*
X2688994Y2407083D02*
X2690469D01*
X2688994Y2407183D02*
X2690469D01*
X2688994Y2407283D02*
X2690469D01*
X2688994Y2407383D02*
X2690469D01*
X2688994Y2407483D02*
X2690469D01*
X2688994Y2407583D02*
X2690469D01*
X2688994Y2407683D02*
X2690469D01*
X2688994Y2407783D02*
X2690469D01*
X2688994Y2407883D02*
X2690469D01*
X2688994Y2407983D02*
X2690469D01*
X2688994Y2408083D02*
X2690469D01*
X2688994Y2408183D02*
X2690469D01*
X2688994Y2408283D02*
X2690469D01*
X2688994Y2408383D02*
X2690469D01*
X2688994Y2408483D02*
X2690469D01*
X2688994Y2408583D02*
X2690469D01*
X2689000Y2406383D02*
Y2408646D01*
X2689100Y2406383D02*
Y2408646D01*
X2689200Y2406383D02*
Y2408646D01*
X2689300Y2406383D02*
Y2408646D01*
X2689400Y2406383D02*
Y2408646D01*
X2689500Y2406383D02*
Y2408646D01*
X2689600Y2406383D02*
Y2408646D01*
X2689700Y2406383D02*
Y2408646D01*
X2689800Y2406383D02*
Y2408646D01*
X2689900Y2406383D02*
Y2408646D01*
X2690000Y2406383D02*
Y2408646D01*
X2690100Y2406384D02*
Y2408646D01*
X2690200Y2406384D02*
Y2408646D01*
X2690300Y2406384D02*
Y2408646D01*
X2690400Y2406384D02*
Y2408646D01*
X2690475Y2410325D02*
X2690463Y2412587D01*
X2688988Y2412579*
X2689000Y2410316*
X2690475Y2410325*
X2689000Y2410316D02*
X2689000D01*
Y2410416D02*
X2690475D01*
X2688999Y2410516D02*
X2690474D01*
X2688999Y2410616D02*
X2690474D01*
X2688998Y2410716D02*
X2690473D01*
X2688998Y2410816D02*
X2690472D01*
X2688997Y2410916D02*
X2690472D01*
X2688996Y2411016D02*
X2690471D01*
X2688996Y2411116D02*
X2690471D01*
X2688995Y2411216D02*
X2690470D01*
X2688995Y2411316D02*
X2690470D01*
X2688994Y2411416D02*
X2690469D01*
X2688994Y2411516D02*
X2690469D01*
X2688993Y2411616D02*
X2690468D01*
X2688993Y2411716D02*
X2690467D01*
X2688992Y2411816D02*
X2690467D01*
X2688992Y2411916D02*
X2690466D01*
X2688991Y2412016D02*
X2690466D01*
X2688990Y2412116D02*
X2690465D01*
X2688990Y2412216D02*
X2690465D01*
X2688989Y2412316D02*
X2690464D01*
X2688989Y2412416D02*
X2690464D01*
X2688988Y2412516D02*
X2690463D01*
X2689000Y2410373D02*
Y2412579D01*
X2689100Y2410317D02*
Y2412579D01*
X2689200Y2410318D02*
Y2412580D01*
X2689300Y2410318D02*
Y2412580D01*
X2689400Y2410319D02*
Y2412581D01*
X2689500Y2410319D02*
Y2412581D01*
X2689600Y2410320D02*
Y2412582D01*
X2689700Y2410320D02*
Y2412583D01*
X2689800Y2410321D02*
Y2412583D01*
X2689900Y2410321D02*
Y2412584D01*
X2690000Y2410322D02*
Y2412584D01*
X2690100Y2410322D02*
Y2412585D01*
X2690200Y2410323D02*
Y2412585D01*
X2690300Y2410324D02*
Y2412586D01*
X2690400Y2410324D02*
Y2412586D01*
X2684719Y2406634D02*
Y2408896D01*
X2683244*
Y2406633*
X2684719Y2406634*
X2683244Y2406633D02*
X2683244D01*
Y2406733D02*
X2684719D01*
X2683244Y2406833D02*
X2684719D01*
X2683244Y2406933D02*
X2684719D01*
X2683244Y2407033D02*
X2684719D01*
X2683244Y2407133D02*
X2684719D01*
X2683244Y2407233D02*
X2684719D01*
X2683244Y2407333D02*
X2684719D01*
X2683244Y2407433D02*
X2684719D01*
X2683244Y2407533D02*
X2684719D01*
X2683244Y2407633D02*
X2684719D01*
X2683244Y2407733D02*
X2684719D01*
X2683244Y2407833D02*
X2684719D01*
X2683244Y2407933D02*
X2684719D01*
X2683244Y2408033D02*
X2684719D01*
X2683244Y2408133D02*
X2684719D01*
X2683244Y2408233D02*
X2684719D01*
X2683244Y2408333D02*
X2684719D01*
X2683244Y2408433D02*
X2684719D01*
X2683244Y2408533D02*
X2684719D01*
X2683244Y2408633D02*
X2684719D01*
X2683244Y2408733D02*
X2684719D01*
X2683244Y2408833D02*
X2684719D01*
X2683300Y2406633D02*
Y2408896D01*
X2683400Y2406633D02*
Y2408896D01*
X2683500Y2406633D02*
Y2408896D01*
X2683600Y2406633D02*
Y2408896D01*
X2683700Y2406633D02*
Y2408896D01*
X2683800Y2406633D02*
Y2408896D01*
X2683900Y2406633D02*
Y2408896D01*
X2684000Y2406633D02*
Y2408896D01*
X2684100Y2406633D02*
Y2408896D01*
X2684200Y2406633D02*
Y2408896D01*
X2684300Y2406634D02*
Y2408896D01*
X2684400Y2406634D02*
Y2408896D01*
X2684500Y2406634D02*
Y2408896D01*
X2684600Y2406634D02*
Y2408896D01*
X2684700Y2406634D02*
Y2408896D01*
X2684725Y2410575D02*
X2684713Y2412837D01*
X2683238Y2412829*
X2683250Y2410566*
X2684725Y2410575*
X2683250Y2410566D02*
X2683250D01*
Y2410666D02*
X2684725D01*
X2683249Y2410766D02*
X2684724D01*
X2683249Y2410866D02*
X2684724D01*
X2683248Y2410966D02*
X2684723D01*
X2683248Y2411066D02*
X2684722D01*
X2683247Y2411166D02*
X2684722D01*
X2683246Y2411266D02*
X2684721D01*
X2683246Y2411366D02*
X2684721D01*
X2683245Y2411466D02*
X2684720D01*
X2683245Y2411566D02*
X2684720D01*
X2683244Y2411666D02*
X2684719D01*
X2683244Y2411766D02*
X2684719D01*
X2683243Y2411866D02*
X2684718D01*
X2683243Y2411966D02*
X2684717D01*
X2683242Y2412066D02*
X2684717D01*
X2683242Y2412166D02*
X2684716D01*
X2683241Y2412266D02*
X2684716D01*
X2683240Y2412366D02*
X2684715D01*
X2683240Y2412466D02*
X2684715D01*
X2683239Y2412566D02*
X2684714D01*
X2683239Y2412666D02*
X2684714D01*
X2683238Y2412766D02*
X2684713D01*
X2683300Y2410567D02*
Y2412829D01*
X2683400Y2410567D02*
Y2412830D01*
X2683500Y2410568D02*
Y2412830D01*
X2683600Y2410568D02*
Y2412831D01*
X2683700Y2410569D02*
Y2412831D01*
X2683800Y2410569D02*
Y2412832D01*
X2683900Y2410570D02*
Y2412832D01*
X2684000Y2410571D02*
Y2412833D01*
X2684100Y2410571D02*
Y2412833D01*
X2684200Y2410572D02*
Y2412834D01*
X2684300Y2410572D02*
Y2412834D01*
X2684400Y2410573D02*
Y2412835D01*
X2684500Y2410573D02*
Y2412836D01*
X2684600Y2410574D02*
Y2412836D01*
X2684700Y2410574D02*
Y2412837D01*
X2665312Y2700081D02*
X2665313Y2697819D01*
X2666788*
X2666787Y2700081*
X2665312*
X2665313Y2697900D02*
X2666788D01*
X2665313Y2698000D02*
X2666788D01*
X2665313Y2698100D02*
X2666788D01*
X2665313Y2698200D02*
X2666788D01*
X2665313Y2698300D02*
X2666788D01*
X2665313Y2698400D02*
X2666788D01*
X2665313Y2698500D02*
X2666787D01*
X2665313Y2698600D02*
X2666787D01*
X2665313Y2698700D02*
X2666787D01*
X2665313Y2698800D02*
X2666787D01*
X2665313Y2698900D02*
X2666787D01*
X2665313Y2699000D02*
X2666787D01*
X2665313Y2699100D02*
X2666787D01*
X2665313Y2699200D02*
X2666787D01*
X2665313Y2699300D02*
X2666787D01*
X2665313Y2699400D02*
X2666787D01*
X2665312Y2699500D02*
X2666787D01*
X2665312Y2699600D02*
X2666787D01*
X2665312Y2699700D02*
X2666787D01*
X2665312Y2699800D02*
X2666787D01*
X2665312Y2699900D02*
X2666787D01*
X2665312Y2700000D02*
X2666787D01*
X2665400Y2697819D02*
Y2700081D01*
X2665500Y2697819D02*
Y2700081D01*
X2665600Y2697819D02*
Y2700081D01*
X2665700Y2697819D02*
Y2700081D01*
X2665800Y2697819D02*
Y2700081D01*
X2665900Y2697819D02*
Y2700081D01*
X2666000Y2697819D02*
Y2700081D01*
X2666100Y2697819D02*
Y2700081D01*
X2666200Y2697819D02*
Y2700081D01*
X2666300Y2697819D02*
Y2700081D01*
X2666400Y2697819D02*
Y2700081D01*
X2666500Y2697819D02*
Y2700081D01*
X2666600Y2697819D02*
Y2700081D01*
X2666700Y2697819D02*
Y2700081D01*
X2665306Y2696140D02*
X2665319Y2693878D01*
X2666794Y2693886*
X2666781Y2696148*
X2665306Y2696140*
X2665319Y2693900D02*
X2666794D01*
X2665318Y2694000D02*
X2666793D01*
X2665318Y2694100D02*
X2666792D01*
X2665317Y2694200D02*
X2666792D01*
X2665316Y2694300D02*
X2666791D01*
X2665316Y2694400D02*
X2666791D01*
X2665315Y2694500D02*
X2666790D01*
X2665315Y2694600D02*
X2666790D01*
X2665314Y2694700D02*
X2666789D01*
X2665314Y2694800D02*
X2666789D01*
X2665313Y2694900D02*
X2666788D01*
X2665313Y2695000D02*
X2666787D01*
X2665312Y2695100D02*
X2666787D01*
X2665312Y2695200D02*
X2666786D01*
X2665311Y2695300D02*
X2666786D01*
X2665310Y2695400D02*
X2666785D01*
X2665310Y2695500D02*
X2666785D01*
X2665309Y2695600D02*
X2666784D01*
X2665309Y2695700D02*
X2666784D01*
X2665308Y2695800D02*
X2666783D01*
X2665308Y2695900D02*
X2666783D01*
X2665307Y2696000D02*
X2666782D01*
X2665307Y2696100D02*
X2666781D01*
X2665400Y2693878D02*
Y2696141D01*
X2665500Y2693879D02*
Y2696141D01*
X2665600Y2693879D02*
Y2696142D01*
X2665700Y2693880D02*
Y2696142D01*
X2665800Y2693880D02*
Y2696143D01*
X2665900Y2693881D02*
Y2696143D01*
X2666000Y2693882D02*
Y2696144D01*
X2666100Y2693882D02*
Y2696144D01*
X2666200Y2693883D02*
Y2696145D01*
X2666300Y2693883D02*
Y2696146D01*
X2666400Y2693884D02*
Y2696146D01*
X2666500Y2693884D02*
Y2696147D01*
X2666600Y2693885D02*
Y2696147D01*
X2666700Y2693885D02*
Y2696148D01*
X2654785Y2700089D02*
Y2697827D01*
X2656260*
Y2700089*
X2654785*
Y2697900D02*
X2656260D01*
X2654785Y2698000D02*
X2656260D01*
X2654785Y2698100D02*
X2656260D01*
X2654785Y2698200D02*
X2656260D01*
X2654785Y2698300D02*
X2656260D01*
X2654785Y2698400D02*
X2656260D01*
X2654785Y2698500D02*
X2656260D01*
X2654785Y2698600D02*
X2656260D01*
X2654785Y2698700D02*
X2656260D01*
X2654785Y2698800D02*
X2656260D01*
X2654785Y2698900D02*
X2656260D01*
X2654785Y2699000D02*
X2656260D01*
X2654785Y2699100D02*
X2656260D01*
X2654785Y2699200D02*
X2656260D01*
X2654785Y2699300D02*
X2656260D01*
X2654785Y2699400D02*
X2656260D01*
X2654785Y2699500D02*
X2656260D01*
X2654785Y2699600D02*
X2656260D01*
X2654785Y2699700D02*
X2656260D01*
X2654785Y2699800D02*
X2656260D01*
X2654785Y2699900D02*
X2656260D01*
X2654785Y2700000D02*
X2656260D01*
X2654800Y2697827D02*
Y2700089D01*
X2654900Y2697827D02*
Y2700089D01*
X2655000Y2697827D02*
Y2700089D01*
X2655100Y2697827D02*
Y2700089D01*
X2655200Y2697827D02*
Y2700089D01*
X2655300Y2697827D02*
Y2700089D01*
X2655400Y2697827D02*
Y2700089D01*
X2655500Y2697827D02*
Y2700089D01*
X2655600Y2697827D02*
Y2700089D01*
X2655700Y2697827D02*
Y2700089D01*
X2655800Y2697827D02*
Y2700089D01*
X2655900Y2697827D02*
Y2700089D01*
X2656000Y2697827D02*
Y2700089D01*
X2656100Y2697827D02*
Y2700089D01*
X2656200Y2697827D02*
Y2700089D01*
X2654779Y2696148D02*
X2654791Y2693886D01*
X2656266Y2693894*
X2656254Y2696156*
X2654779Y2696148*
X2654791Y2693900D02*
X2656266D01*
X2654791Y2694000D02*
X2656265D01*
X2654790Y2694100D02*
X2656265D01*
X2654790Y2694200D02*
X2656264D01*
X2654789Y2694300D02*
X2656264D01*
X2654788Y2694400D02*
X2656263D01*
X2654788Y2694500D02*
X2656263D01*
X2654787Y2694600D02*
X2656262D01*
X2654787Y2694700D02*
X2656262D01*
X2654786Y2694800D02*
X2656261D01*
X2654786Y2694900D02*
X2656261D01*
X2654785Y2695000D02*
X2656260D01*
X2654785Y2695100D02*
X2656259D01*
X2654784Y2695200D02*
X2656259D01*
X2654783Y2695300D02*
X2656258D01*
X2654783Y2695400D02*
X2656258D01*
X2654782Y2695500D02*
X2656257D01*
X2654782Y2695600D02*
X2656257D01*
X2654781Y2695700D02*
X2656256D01*
X2654781Y2695800D02*
X2656256D01*
X2654780Y2695900D02*
X2656255D01*
X2654780Y2696000D02*
X2656254D01*
X2654779Y2696100D02*
X2656254D01*
X2654800Y2693886D02*
Y2696148D01*
X2654900Y2693886D02*
Y2696149D01*
X2655000Y2693887D02*
Y2696149D01*
X2655100Y2693887D02*
Y2696150D01*
X2655200Y2693888D02*
Y2696150D01*
X2655300Y2693889D02*
Y2696151D01*
X2655400Y2693889D02*
Y2696151D01*
X2655500Y2693890D02*
Y2696152D01*
X2655600Y2693890D02*
Y2696152D01*
X2655700Y2693891D02*
Y2696153D01*
X2655800Y2693891D02*
Y2696154D01*
X2655900Y2693892D02*
Y2696154D01*
X2656000Y2693892D02*
Y2696155D01*
X2656100Y2693893D02*
Y2696155D01*
X2656200Y2693893D02*
Y2696156D01*
X2649812Y2700081D02*
X2649813Y2697819D01*
X2651288*
X2651287Y2700081*
X2649812*
X2649813Y2697900D02*
X2651288D01*
X2649813Y2698000D02*
X2651288D01*
X2649813Y2698100D02*
X2651288D01*
X2649813Y2698200D02*
X2651288D01*
X2649813Y2698300D02*
X2651288D01*
X2649813Y2698400D02*
X2651288D01*
X2649813Y2698500D02*
X2651287D01*
X2649813Y2698600D02*
X2651287D01*
X2649813Y2698700D02*
X2651287D01*
X2649813Y2698800D02*
X2651287D01*
X2649813Y2698900D02*
X2651287D01*
X2649813Y2699000D02*
X2651287D01*
X2649813Y2699100D02*
X2651287D01*
X2649813Y2699200D02*
X2651287D01*
X2649813Y2699300D02*
X2651287D01*
X2649813Y2699400D02*
X2651287D01*
X2649812Y2699500D02*
X2651287D01*
X2649812Y2699600D02*
X2651287D01*
X2649812Y2699700D02*
X2651287D01*
X2649812Y2699800D02*
X2651287D01*
X2649812Y2699900D02*
X2651287D01*
X2649812Y2700000D02*
X2651287D01*
X2649900Y2697819D02*
Y2700081D01*
X2650000Y2697819D02*
Y2700081D01*
X2650100Y2697819D02*
Y2700081D01*
X2650200Y2697819D02*
Y2700081D01*
X2650300Y2697819D02*
Y2700081D01*
X2650400Y2697819D02*
Y2700081D01*
X2650500Y2697819D02*
Y2700081D01*
X2650600Y2697819D02*
Y2700081D01*
X2650700Y2697819D02*
Y2700081D01*
X2650800Y2697819D02*
Y2700081D01*
X2650900Y2697819D02*
Y2700081D01*
X2651000Y2697819D02*
Y2700081D01*
X2651100Y2697819D02*
Y2700081D01*
X2651200Y2697819D02*
Y2700081D01*
X2649806Y2696140D02*
X2649819Y2693878D01*
X2651294Y2693886*
X2651281Y2696148*
X2649806Y2696140*
X2649819Y2693900D02*
X2651294D01*
X2649818Y2694000D02*
X2651293D01*
X2649818Y2694100D02*
X2651292D01*
X2649817Y2694200D02*
X2651292D01*
X2649816Y2694300D02*
X2651291D01*
X2649816Y2694400D02*
X2651291D01*
X2649815Y2694500D02*
X2651290D01*
X2649815Y2694600D02*
X2651290D01*
X2649814Y2694700D02*
X2651289D01*
X2649814Y2694800D02*
X2651289D01*
X2649813Y2694900D02*
X2651288D01*
X2649813Y2695000D02*
X2651287D01*
X2649812Y2695100D02*
X2651287D01*
X2649812Y2695200D02*
X2651286D01*
X2649811Y2695300D02*
X2651286D01*
X2649810Y2695400D02*
X2651285D01*
X2649810Y2695500D02*
X2651285D01*
X2649809Y2695600D02*
X2651284D01*
X2649809Y2695700D02*
X2651284D01*
X2649808Y2695800D02*
X2651283D01*
X2649808Y2695900D02*
X2651283D01*
X2649807Y2696000D02*
X2651282D01*
X2649807Y2696100D02*
X2651281D01*
X2649900Y2693878D02*
Y2696141D01*
X2650000Y2693879D02*
Y2696141D01*
X2650100Y2693879D02*
Y2696142D01*
X2650200Y2693880D02*
Y2696142D01*
X2650300Y2693880D02*
Y2696143D01*
X2650400Y2693881D02*
Y2696143D01*
X2650500Y2693882D02*
Y2696144D01*
X2650600Y2693882D02*
Y2696144D01*
X2650700Y2693883D02*
Y2696145D01*
X2650800Y2693883D02*
Y2696146D01*
X2650900Y2693884D02*
Y2696146D01*
X2651000Y2693884D02*
Y2696147D01*
X2651100Y2693885D02*
Y2696147D01*
X2651200Y2693885D02*
Y2696148D01*
X2660812Y2700081D02*
X2660813Y2697819D01*
X2662288*
X2662287Y2700081*
X2660812*
X2660813Y2697900D02*
X2662288D01*
X2660813Y2698000D02*
X2662288D01*
X2660813Y2698100D02*
X2662288D01*
X2660813Y2698200D02*
X2662288D01*
X2660813Y2698300D02*
X2662288D01*
X2660813Y2698400D02*
X2662288D01*
X2660813Y2698500D02*
X2662287D01*
X2660813Y2698600D02*
X2662287D01*
X2660813Y2698700D02*
X2662287D01*
X2660813Y2698800D02*
X2662287D01*
X2660813Y2698900D02*
X2662287D01*
X2660813Y2699000D02*
X2662287D01*
X2660813Y2699100D02*
X2662287D01*
X2660813Y2699200D02*
X2662287D01*
X2660813Y2699300D02*
X2662287D01*
X2660813Y2699400D02*
X2662287D01*
X2660812Y2699500D02*
X2662287D01*
X2660812Y2699600D02*
X2662287D01*
X2660812Y2699700D02*
X2662287D01*
X2660812Y2699800D02*
X2662287D01*
X2660812Y2699900D02*
X2662287D01*
X2660812Y2700000D02*
X2662287D01*
X2660900Y2697819D02*
Y2700081D01*
X2661000Y2697819D02*
Y2700081D01*
X2661100Y2697819D02*
Y2700081D01*
X2661200Y2697819D02*
Y2700081D01*
X2661300Y2697819D02*
Y2700081D01*
X2661400Y2697819D02*
Y2700081D01*
X2661500Y2697819D02*
Y2700081D01*
X2661600Y2697819D02*
Y2700081D01*
X2661700Y2697819D02*
Y2700081D01*
X2661800Y2697819D02*
Y2700081D01*
X2661900Y2697819D02*
Y2700081D01*
X2662000Y2697819D02*
Y2700081D01*
X2662100Y2697819D02*
Y2700081D01*
X2662200Y2697819D02*
Y2700081D01*
X2660806Y2696140D02*
X2660819Y2693878D01*
X2662294Y2693886*
X2662281Y2696148*
X2660806Y2696140*
X2660819Y2693900D02*
X2662294D01*
X2660818Y2694000D02*
X2662293D01*
X2660818Y2694100D02*
X2662292D01*
X2660817Y2694200D02*
X2662292D01*
X2660816Y2694300D02*
X2662291D01*
X2660816Y2694400D02*
X2662291D01*
X2660815Y2694500D02*
X2662290D01*
X2660815Y2694600D02*
X2662290D01*
X2660814Y2694700D02*
X2662289D01*
X2660814Y2694800D02*
X2662289D01*
X2660813Y2694900D02*
X2662288D01*
X2660813Y2695000D02*
X2662287D01*
X2660812Y2695100D02*
X2662287D01*
X2660812Y2695200D02*
X2662286D01*
X2660811Y2695300D02*
X2662286D01*
X2660810Y2695400D02*
X2662285D01*
X2660810Y2695500D02*
X2662285D01*
X2660809Y2695600D02*
X2662284D01*
X2660809Y2695700D02*
X2662284D01*
X2660808Y2695800D02*
X2662283D01*
X2660808Y2695900D02*
X2662283D01*
X2660807Y2696000D02*
X2662282D01*
X2660807Y2696100D02*
X2662281D01*
X2660900Y2693878D02*
Y2696141D01*
X2661000Y2693879D02*
Y2696141D01*
X2661100Y2693879D02*
Y2696142D01*
X2661200Y2693880D02*
Y2696142D01*
X2661300Y2693880D02*
Y2696143D01*
X2661400Y2693881D02*
Y2696143D01*
X2661500Y2693882D02*
Y2696144D01*
X2661600Y2693882D02*
Y2696144D01*
X2661700Y2693883D02*
Y2696145D01*
X2661800Y2693883D02*
Y2696146D01*
X2661900Y2693884D02*
Y2696146D01*
X2662000Y2693884D02*
Y2696147D01*
X2662100Y2693885D02*
Y2696147D01*
X2662200Y2693885D02*
Y2696148D01*
X2640218Y2700089D02*
Y2697827D01*
X2641693*
Y2700089*
X2640218*
Y2697900D02*
X2641693D01*
X2640218Y2698000D02*
X2641693D01*
X2640218Y2698100D02*
X2641693D01*
X2640218Y2698200D02*
X2641693D01*
X2640218Y2698300D02*
X2641693D01*
X2640218Y2698400D02*
X2641693D01*
X2640218Y2698500D02*
X2641693D01*
X2640218Y2698600D02*
X2641693D01*
X2640218Y2698700D02*
X2641693D01*
X2640218Y2698800D02*
X2641693D01*
X2640218Y2698900D02*
X2641693D01*
X2640218Y2699000D02*
X2641693D01*
X2640218Y2699100D02*
X2641693D01*
X2640218Y2699200D02*
X2641693D01*
X2640218Y2699300D02*
X2641693D01*
X2640218Y2699400D02*
X2641693D01*
X2640218Y2699500D02*
X2641693D01*
X2640218Y2699600D02*
X2641693D01*
X2640218Y2699700D02*
X2641693D01*
X2640218Y2699800D02*
X2641693D01*
X2640218Y2699900D02*
X2641693D01*
X2640218Y2700000D02*
X2641693D01*
X2640300Y2697827D02*
Y2700089D01*
X2640400Y2697827D02*
Y2700089D01*
X2640500Y2697827D02*
Y2700089D01*
X2640600Y2697827D02*
Y2700089D01*
X2640700Y2697827D02*
Y2700089D01*
X2640800Y2697827D02*
Y2700089D01*
X2640900Y2697827D02*
Y2700089D01*
X2641000Y2697827D02*
Y2700089D01*
X2641100Y2697827D02*
Y2700089D01*
X2641200Y2697827D02*
Y2700089D01*
X2641300Y2697827D02*
Y2700089D01*
X2641400Y2697827D02*
Y2700089D01*
X2641500Y2697827D02*
Y2700089D01*
X2641600Y2697827D02*
Y2700089D01*
X2640212Y2696148D02*
X2640224Y2693886D01*
X2641699Y2693894*
X2641687Y2696156*
X2640212Y2696148*
X2640224Y2693900D02*
X2641699D01*
X2640224Y2694000D02*
X2641699D01*
X2640223Y2694100D02*
X2641698D01*
X2640223Y2694200D02*
X2641697D01*
X2640222Y2694300D02*
X2641697D01*
X2640221Y2694400D02*
X2641696D01*
X2640221Y2694500D02*
X2641696D01*
X2640220Y2694600D02*
X2641695D01*
X2640220Y2694700D02*
X2641695D01*
X2640219Y2694800D02*
X2641694D01*
X2640219Y2694900D02*
X2641694D01*
X2640218Y2695000D02*
X2641693D01*
X2640218Y2695100D02*
X2641693D01*
X2640217Y2695200D02*
X2641692D01*
X2640217Y2695300D02*
X2641691D01*
X2640216Y2695400D02*
X2641691D01*
X2640215Y2695500D02*
X2641690D01*
X2640215Y2695600D02*
X2641690D01*
X2640214Y2695700D02*
X2641689D01*
X2640214Y2695800D02*
X2641689D01*
X2640213Y2695900D02*
X2641688D01*
X2640213Y2696000D02*
X2641688D01*
X2640212Y2696100D02*
X2641687D01*
X2640300Y2693886D02*
Y2696148D01*
X2640400Y2693887D02*
Y2696149D01*
X2640500Y2693887D02*
Y2696150D01*
X2640600Y2693888D02*
Y2696150D01*
X2640700Y2693888D02*
Y2696151D01*
X2640800Y2693889D02*
Y2696151D01*
X2640900Y2693889D02*
Y2696152D01*
X2641000Y2693890D02*
Y2696152D01*
X2641100Y2693891D02*
Y2696153D01*
X2641200Y2693891D02*
Y2696153D01*
X2641300Y2693892D02*
Y2696154D01*
X2641400Y2693892D02*
Y2696154D01*
X2641500Y2693893D02*
Y2696155D01*
X2641600Y2693893D02*
Y2696156D01*
G54D24*
X2663543Y2674764D03*
Y2685000D03*
G54D27*
X2491500Y2428140D03*
Y2424360D03*
X2628110Y2695512D03*
Y2699292D03*
X2632713Y2598178D03*
Y2594397D03*
X2493890Y2416250D03*
X2490110D03*
X2681750Y2498610D03*
Y2502390D03*
X2685884Y2498610D03*
Y2502390D03*
X2486268Y2570390D03*
Y2566610D03*
X2701002Y2498610D03*
Y2502390D03*
X2704742Y2498610D03*
Y2502390D03*
X2736860Y2434750D03*
X2740640D03*
X2740110Y2548000D03*
X2743890D03*
X2731890Y2519500D03*
X2728110D03*
X2732250Y2510360D03*
Y2514140D03*
X2730512Y2411535D03*
X2726732D03*
X2734610Y2668500D03*
X2738390D03*
X2468500Y2570390D03*
Y2566610D03*
X2585140Y2419750D03*
X2581360D03*
X2621201Y2422750D03*
X2624981D03*
X2621201Y2414750D03*
X2624981D03*
X2598250Y2411105D03*
Y2407325D03*
X2610500D03*
Y2411105D03*
X2687500Y2436390D03*
Y2432610D03*
X2678740Y2411103D03*
Y2407322D03*
X2687610Y2604000D03*
X2691390D03*
X2687610Y2622500D03*
X2691390D03*
X2687610Y2626000D03*
X2691390D03*
Y2612500D03*
X2687610D03*
X2683110Y2667750D03*
X2686890D03*
X2691390Y2618250D03*
X2687610D03*
X2744140Y2605500D03*
X2740360D03*
X2442460Y2495531D03*
X2446241D03*
X2442460Y2499272D03*
X2446241D03*
X2442460Y2506949D03*
X2446241D03*
X2442460Y2503012D03*
X2446241D03*
X2643819Y2548657D03*
X2640039D03*
X2418000Y2524390D03*
Y2520610D03*
X2414063Y2524390D03*
Y2520610D03*
X2426750Y2417610D03*
Y2421390D03*
X2417500D03*
Y2417610D03*
X2405177Y2402933D03*
Y2399153D03*
X2377750Y2402890D03*
Y2399110D03*
X2385860Y2403250D03*
X2389640D03*
X2426640Y2413500D03*
X2422860D03*
X2413193Y2428737D03*
Y2424956D03*
X2426640Y2407250D03*
X2422860D03*
X2566500Y2598890D03*
Y2595110D03*
X2580571Y2595216D03*
Y2598996D03*
X2572000Y2587610D03*
Y2591390D03*
X2595000Y2595110D03*
Y2598890D03*
X2632441Y2569409D03*
X2636221D03*
X2564319Y2548657D03*
X2560539D03*
X2614319Y2548157D03*
X2610539D03*
X2620390Y2554500D03*
X2616610D03*
X2554094Y2570197D03*
X2557874D03*
X2604094Y2569409D03*
X2607874D03*
X2590819Y2548657D03*
X2587039D03*
X2579685Y2569213D03*
X2583465D03*
X2477750Y2558860D03*
Y2562640D03*
X2473000Y2558860D03*
Y2562640D03*
X2470000Y2622110D03*
Y2625890D03*
X2472500Y2551140D03*
Y2547360D03*
X2522610Y2628500D03*
X2526390D03*
X2564250Y2689390D03*
Y2685610D03*
X2417110Y2635000D03*
X2420890D03*
X2664890Y2659750D03*
X2661110D03*
X2385110Y2680000D03*
X2388890D03*
X2385108Y2670830D03*
Y2674611D03*
X2410860Y2618750D03*
X2414640D03*
X2384968Y2665720D03*
X2388748D03*
X2393360Y2634000D03*
X2397140D03*
X2446831Y2565217D03*
X2443051D03*
X2446831Y2561476D03*
X2443051D03*
X2446831Y2600846D03*
X2443051D03*
X2446831Y2592972D03*
X2443051D03*
X2446831Y2581161D03*
X2443051D03*
X2446831Y2577028D03*
X2443051D03*
X2446634Y2553209D03*
X2442854D03*
X2451250Y2611860D03*
Y2615640D03*
X2399937Y2547110D03*
Y2550890D03*
X2636181Y2695511D03*
Y2699292D03*
X2660750Y2410890D03*
Y2407110D03*
X2743890Y2558000D03*
X2740110D03*
X2740515Y2530819D03*
X2744296D03*
X2716396Y2502390D03*
Y2498610D03*
X2712656Y2502390D03*
Y2498610D03*
X2707750Y2564110D03*
Y2567890D03*
X2740515Y2534756D03*
X2744296D03*
X2689978Y2502390D03*
Y2498610D03*
X2676615Y2551614D03*
X2672834D03*
X2711500Y2564110D03*
Y2567890D03*
X2683110Y2663419D03*
X2686890D03*
X2495913Y2570390D03*
Y2566610D03*
X2456477Y2557146D03*
X2452697D03*
X2456390Y2596500D03*
X2452610D03*
X2456390Y2589000D03*
X2452610D03*
X2456390Y2584250D03*
X2452610D03*
X2461140Y2612500D03*
X2457360D03*
X2459860Y2596500D03*
X2463640D03*
X2459860Y2589000D03*
X2463640D03*
X2456390Y2600750D03*
X2452610D03*
X2632244Y2695511D03*
Y2699292D03*
X2664750Y2407110D03*
Y2410890D03*
X2487500Y2424360D03*
Y2428140D03*
X2623976Y2695511D03*
Y2699292D03*
X2638281Y2411105D03*
Y2407324D03*
X2640980Y2598374D03*
Y2594594D03*
X2636846Y2598374D03*
Y2594594D03*
X2577000Y2411140D03*
Y2407360D03*
X2630500Y2407325D03*
Y2411105D03*
X2631000Y2421860D03*
Y2425640D03*
X2485000Y2409610D03*
Y2413390D03*
X2472402Y2409610D03*
Y2413390D03*
X2455472Y2409610D03*
Y2413390D03*
X2503000Y2566610D03*
Y2570390D03*
X2463937Y2409610D03*
Y2413390D03*
X2447205Y2409610D03*
Y2413390D03*
X2459803Y2409610D03*
Y2413390D03*
X2480866Y2409610D03*
Y2413390D03*
X2451339Y2409610D03*
Y2413390D03*
X2443071Y2409610D03*
Y2413390D03*
X2476732Y2409610D03*
Y2413390D03*
X2435000Y2409610D03*
Y2413390D03*
X2468071Y2409610D03*
Y2413390D03*
X2438937Y2409610D03*
Y2413390D03*
X2483000Y2428140D03*
Y2424360D03*
X2503602Y2678484D03*
Y2682264D03*
X2499469Y2678484D03*
Y2682264D03*
X2449075Y2678484D03*
Y2682264D03*
X2453012Y2678484D03*
Y2682264D03*
X2457146D03*
Y2678484D03*
X2708915Y2502351D03*
Y2498570D03*
X2676811Y2547480D03*
X2673031D03*
X2690000Y2564360D03*
Y2568140D03*
X2743890Y2552500D03*
X2740110D03*
X2509750Y2547360D03*
Y2551140D03*
X2728250Y2514140D03*
Y2510360D03*
X2694331Y2564360D03*
Y2568140D03*
X2673031Y2522283D03*
X2676811D03*
Y2526417D03*
X2673031D03*
X2717250Y2564110D03*
Y2567890D03*
X2721250Y2564110D03*
Y2567890D03*
X2673031Y2530354D03*
X2676811D03*
Y2534488D03*
X2673031D03*
Y2538819D03*
X2676811D03*
X2621201Y2426750D03*
X2624981D03*
X2676811Y2543150D03*
X2673031D03*
X2723860Y2434250D03*
X2727640D03*
X2697750Y2483640D03*
Y2479860D03*
X2708360Y2434250D03*
X2712140D03*
X2720140D03*
X2716360D03*
X2722750Y2483640D03*
Y2479860D03*
X2651531Y2411105D03*
Y2407324D03*
X2734610Y2663500D03*
X2738390D03*
X2621200Y2430965D03*
X2624981D03*
X2738390Y2673500D03*
X2734610D03*
X2642531Y2407324D03*
Y2411105D03*
X2646781Y2407324D03*
Y2411105D03*
X2621201Y2418750D03*
X2624981D03*
X2681000Y2428640D03*
Y2424860D03*
X2692000Y2436390D03*
Y2432610D03*
X2686989Y2674075D03*
X2683208D03*
X2683000Y2436390D03*
Y2432610D03*
X2590000Y2685360D03*
Y2689140D03*
X2511910Y2413000D03*
X2515690D03*
X2587559Y2663819D03*
Y2667599D03*
X2509110Y2428000D03*
X2512890D03*
X2577500Y2699292D03*
Y2695512D03*
X2573583Y2663819D03*
Y2667599D03*
X2535640Y2421000D03*
X2531860D03*
X2535640Y2428000D03*
X2531860D03*
X2612953Y2685275D03*
Y2689056D03*
X2632039Y2548657D03*
X2635819D03*
X2610394Y2663819D03*
Y2667599D03*
X2600000Y2699292D03*
Y2695512D03*
X2596220Y2663819D03*
Y2667599D03*
X2687610Y2608000D03*
X2691390D03*
X2740360Y2610750D03*
X2744140D03*
X2740360Y2615250D03*
X2744140D03*
X2687610Y2630500D03*
X2691390D03*
X2446140Y2490250D03*
X2442360D03*
X2446240Y2486000D03*
X2442460D03*
X2425000Y2478110D03*
Y2481890D03*
X2456830Y2666201D03*
X2460611D03*
X2420472Y2478110D03*
Y2481890D03*
X2416339Y2478110D03*
Y2481890D03*
X2412205Y2478110D03*
Y2481890D03*
X2408268Y2478110D03*
Y2481890D03*
X2395110Y2492000D03*
X2398890D03*
X2422500Y2417610D03*
Y2421390D03*
X2423360Y2428500D03*
X2427140D03*
X2363250Y2399110D03*
Y2402890D03*
X2389640Y2399500D03*
X2385860D03*
X2381750Y2402890D03*
Y2399110D03*
X2676000Y2498360D03*
Y2502140D03*
X2371516Y2399153D03*
Y2402933D03*
X2401240Y2399153D03*
Y2402933D03*
X2413000Y2402890D03*
Y2399110D03*
X2367250D03*
Y2402890D03*
X2409000Y2399110D03*
Y2402890D03*
X2417000D03*
Y2399110D03*
X2417327Y2428737D03*
Y2424956D03*
X2421750Y2402890D03*
Y2399110D03*
X2426250D03*
Y2402890D03*
X2570500Y2598890D03*
Y2595110D03*
X2685250Y2483640D03*
Y2479860D03*
X2576000Y2598890D03*
Y2595110D03*
X2599000Y2598890D03*
Y2595110D03*
X2580500Y2591390D03*
Y2587610D03*
X2576000Y2591390D03*
Y2587610D03*
X2591000Y2595110D03*
Y2598890D03*
X2593360Y2587250D03*
X2597140D03*
X2553039Y2548657D03*
X2556819D03*
X2603039Y2548157D03*
X2606819D03*
X2579039Y2548657D03*
X2582819D03*
X2477750Y2566610D03*
Y2570390D03*
X2444941Y2678484D03*
Y2682264D03*
X2472500Y2566610D03*
Y2570390D03*
X2518500Y2624860D03*
Y2628640D03*
X2522610Y2618250D03*
X2526390D03*
X2530860Y2628128D03*
Y2624348D03*
X2526290Y2623800D03*
X2522510D03*
X2553500Y2695610D03*
Y2699390D03*
X2549250D03*
Y2695610D03*
X2559500D03*
Y2699390D03*
X2689500Y2479860D03*
Y2483640D03*
X2564000Y2699390D03*
Y2695610D03*
X2546000Y2666390D03*
Y2662610D03*
X2537478Y2686004D03*
Y2689784D03*
X2565618Y2667268D03*
Y2663488D03*
X2541612Y2686004D03*
Y2689784D03*
X2439500Y2628390D03*
Y2624610D03*
X2422890Y2623250D03*
X2419110D03*
X2410860D03*
X2414640D03*
X2418500Y2615610D03*
Y2619390D03*
X2422500D03*
Y2615610D03*
X2449547Y2666201D03*
X2453327D03*
X2446831Y2569350D03*
X2443051D03*
X2446831Y2557343D03*
X2443051D03*
X2446831Y2596909D03*
X2443051D03*
X2446831Y2589035D03*
X2443051D03*
X2446831Y2585098D03*
X2443051D03*
X2446831Y2573091D03*
X2443051D03*
X2411250Y2547110D03*
Y2550890D03*
X2454640Y2569250D03*
X2450860D03*
X2404500Y2550890D03*
Y2547110D03*
X2396000D03*
Y2550890D03*
X2397250Y2410140D03*
Y2406360D03*
Y2399110D03*
Y2402890D03*
X2393250Y2399110D03*
Y2402890D03*
G54D32*
X2559663Y2687894D03*
X2546789D03*
G54D39*
X2729819Y2688937D03*
X2737819D03*
X2694091Y2697500D03*
X2702091D03*
X2665500Y2666000D03*
X2657500D03*
X2686441Y2697598D03*
X2678441D03*
X2673750Y2516500D03*
X2681750D03*
X2491000Y2410500D03*
X2499000D03*
X2738656Y2524819D03*
X2746656D03*
X2738656Y2540569D03*
X2746656D03*
X2384250Y2408750D03*
X2392250D03*
G54D40*
X2672638Y2408559D03*
Y2416559D03*
X2432750Y2420000D03*
Y2428000D03*
X2444750Y2614500D03*
Y2606500D03*
X2721750Y2507807D03*
Y2499807D03*
X2695488Y2507813D03*
Y2499813D03*
X2463000Y2572000D03*
Y2564000D03*
X2478250Y2553750D03*
Y2545750D03*
G54D41*
X2481949Y2679193D03*
X2492972D03*
X2523681Y2610689D03*
X2534705D03*
X2386083Y2425453D03*
X2375059D03*
X2406161D03*
X2395138D03*
X2725354Y2697598D03*
X2736378D03*
G54D43*
X2577913Y2664724D03*
X2583425D03*
X2509244Y2422750D03*
X2514756D03*
X2600551Y2664724D03*
X2606063D03*
X2692382Y2599862D03*
X2686870D03*
X2740494Y2626500D03*
X2746006D03*
X2740744Y2620750D03*
X2746256D03*
X2440217Y2511476D03*
X2445728D03*
X2440217Y2516791D03*
X2445728D03*
X2401134Y2496724D03*
X2395622D03*
X2446319Y2548484D03*
X2440807D03*
G54D44*
X2619055Y2693268D03*
Y2698780D03*
X2652750Y2598006D03*
Y2592494D03*
X2463250Y2676244D03*
Y2681756D03*
X2422528Y2523878D03*
Y2518366D03*
X2409142Y2523878D03*
Y2518366D03*
X2646339Y2564291D03*
Y2558780D03*
X2603500Y2598756D03*
Y2593244D03*
X2586500Y2598756D03*
Y2593244D03*
X2566614Y2565079D03*
Y2559567D03*
X2616811Y2564882D03*
Y2559370D03*
X2593189Y2565079D03*
Y2559567D03*
X2475000Y2621744D03*
Y2627256D03*
X2419250Y2548244D03*
Y2553756D03*
X2656250Y2413256D03*
Y2407744D03*
G54D55*
X2678110Y2679488D03*
Y2683228D03*
Y2686968D03*
X2686772D03*
Y2679488D03*
G54D56*
X2640827Y2554646D03*
X2637087D03*
X2633346D03*
Y2563307D03*
X2640827D03*
X2561496Y2555630D03*
X2557756D03*
X2554016D03*
Y2564291D03*
X2561496D03*
X2611496Y2555236D03*
X2607756D03*
X2604016D03*
Y2563898D03*
X2611496D03*
X2588071Y2555236D03*
X2584331D03*
X2580591D03*
Y2563898D03*
X2588071D03*
X2584803Y2679685D03*
X2581063D03*
X2577323D03*
Y2688346D03*
X2584803D03*
X2519510Y2427831D03*
X2523250D03*
X2526990D03*
Y2419169D03*
X2519510D03*
X2607835Y2679291D03*
X2604094D03*
X2600354D03*
Y2687953D03*
X2607835D03*
G54D63*
X2597107Y2422204D03*
Y2424763D03*
Y2427323D03*
Y2429882D03*
X2614822D03*
Y2427323D03*
Y2424763D03*
Y2422204D03*
G54D92*
X2704476Y2593858D03*
Y2596417D03*
Y2598976D03*
Y2601535D03*
Y2604094D03*
Y2606654D03*
Y2609213D03*
Y2611772D03*
Y2614331D03*
Y2616890D03*
Y2619449D03*
Y2622008D03*
Y2624567D03*
Y2627126D03*
X2731075D03*
Y2624567D03*
Y2622008D03*
Y2619449D03*
Y2616890D03*
Y2614331D03*
Y2611772D03*
Y2609213D03*
Y2606654D03*
Y2604094D03*
Y2601535D03*
Y2598976D03*
Y2596417D03*
Y2593858D03*
G54D93*
X2549469Y2620630D03*
X2610098D03*
G54D94*
X2602421Y2614724D03*
X2600453D03*
X2598484D03*
X2596516D03*
X2594547D03*
X2592579D03*
X2590610D03*
X2588642D03*
X2586673D03*
X2584705D03*
X2582736D03*
X2580768D03*
X2578799D03*
X2576831D03*
X2574862D03*
X2572894D03*
X2570925D03*
X2568957D03*
X2566988D03*
X2565020D03*
X2563051D03*
X2561083D03*
X2559114D03*
X2557146D03*
G54D95*
X2428127Y2602422D03*
Y2598878D03*
Y2595335D03*
Y2591792D03*
Y2588248D03*
Y2584705D03*
Y2581162D03*
Y2577618D03*
Y2574075D03*
Y2570532D03*
Y2566988D03*
X2383047D03*
Y2570532D03*
Y2574075D03*
Y2577618D03*
Y2581162D03*
Y2584705D03*
Y2588248D03*
Y2591792D03*
Y2595335D03*
Y2598878D03*
Y2602422D03*
G54D96*
X2387722Y2607097D03*
X2391265D03*
X2394809D03*
X2398352D03*
X2401895D03*
X2405439D03*
X2408982D03*
X2412525D03*
X2416068D03*
X2419612D03*
X2423155D03*
Y2562313D03*
X2419612D03*
X2416068D03*
X2412525D03*
X2408982D03*
X2405439D03*
X2401895D03*
X2398352D03*
X2394809D03*
X2391265D03*
X2387722D03*
G54D97*
X2391414Y2595335D03*
Y2588248D03*
Y2581162D03*
G54D111*
X2353600Y2377600D03*
X2752047Y2732756D03*
G54D121*
X2756752Y2343366D02*
G75*
G03X2776437Y2363051I-0J19685D01*
G01Y2756949*
G03X2756752Y2776634I-19685J-0*
G01X2541791*
Y2776535*
X2529193*
Y2776634*
X2363248*
G03X2343563Y2756949I0J-19685*
G01Y2363138*
G03X2363248Y2343453I19685J-0*
G01X2385421*
Y2348398*
X2399839*
Y2343366*
X2756752*
G54D123*
X2742550Y2420000D03*
X2766950D03*
X2518354Y2568291D03*
Y2557291D03*
X2526622Y2568291D03*
Y2557291D03*
G54D125*
X2435098Y2618563D03*
X2431358D03*
X2427618D03*
Y2629193D03*
X2431358D03*
X2435098D03*
G54D135*
X2442579Y2673681D03*
Y2666201D03*
X2431949Y2669941D03*
X2495750Y2428000D03*
X2503230D03*
X2499490Y2417370D03*
X2710750Y2428500D03*
X2718230D03*
X2714490Y2417870D03*
X2717000Y2480500D03*
X2709520D03*
X2713260Y2491130D03*
X2649250Y2431750D03*
Y2424270D03*
X2638620Y2428010D03*
X2680500Y2480500D03*
X2673020D03*
X2676760Y2491130D03*
X2492500Y2547250D03*
X2485020D03*
X2488760Y2557880D03*
X2504750Y2547250D03*
X2497270D03*
X2501010Y2557880D03*
X2379000Y2407750D03*
X2371520D03*
X2375260Y2418380D03*
X2410098Y2407539D03*
X2402618D03*
X2406358Y2418169D03*
X2541472Y2663122D03*
X2533992D03*
X2537732Y2673752D03*
X2560500Y2664000D03*
X2553020D03*
X2556760Y2674630D03*
X2723500Y2428500D03*
X2730980D03*
X2727240Y2417870D03*
X2583130Y2413051D03*
X2590610D03*
X2586870Y2402421D03*
G54D194*
X2455807Y2670925D03*
X2450217D03*
X2433091Y2681358D03*
X2438681D03*
G54D195*
X2654750Y2423955D03*
Y2429545D03*
X2660236Y2430709D03*
Y2425118D03*
X2676500Y2430795D03*
Y2425205D03*
X2665354Y2430709D03*
Y2425118D03*
X2670472Y2430709D03*
Y2425118D03*
X2605250Y2406955D03*
Y2412545D03*
X2615217Y2407028D03*
Y2412618D03*
G54D196*
X2500577Y2609250D03*
X2515537D03*
G54D197*
X2685500Y2593500D03*
X2691500D03*
X2746000Y2633000D03*
X2740000D03*
X2428039Y2523138D03*
Y2517138D03*
X2403236Y2523138D03*
Y2517138D03*
X2659000Y2591250D03*
Y2597250D03*
X2453750Y2548250D03*
X2459750D03*
X2444744Y2621075D03*
Y2627075D03*
X2451437Y2621075D03*
Y2627075D03*
X2679890Y2508307D03*
X2673890D03*
G54D198*
X2473682Y2584844D03*
X2474862Y2598484D03*
X2476044Y2584844D03*
X2477224Y2598484D03*
X2478407Y2584844D03*
X2479586Y2598484D03*
X2480769Y2584844D03*
X2481949Y2598484D03*
X2483131Y2584844D03*
X2484311Y2598484D03*
X2485493Y2584844D03*
X2486673Y2598484D03*
X2487856Y2584844D03*
X2489035Y2598484D03*
X2490218Y2584844D03*
X2491398Y2598484D03*
X2492580Y2584844D03*
X2493760Y2598484D03*
X2494942Y2584844D03*
X2496122Y2598484D03*
X2497304Y2584844D03*
X2498484Y2598484D03*
X2499667Y2584844D03*
X2500846Y2598484D03*
X2502029Y2584844D03*
X2503209Y2598484D03*
X2504391Y2584844D03*
X2505571Y2598484D03*
X2506753Y2584844D03*
X2507933Y2598484D03*
X2509115Y2584844D03*
X2510295Y2598484D03*
X2511478Y2584844D03*
X2512657Y2598484D03*
X2513840Y2584844D03*
X2515020Y2598484D03*
X2516202Y2584844D03*
X2517382Y2598484D03*
X2518564Y2584844D03*
X2519744Y2598484D03*
X2520926Y2584844D03*
X2522106Y2598484D03*
X2523289Y2584844D03*
X2524468Y2598484D03*
X2525651Y2584844D03*
X2526831Y2598484D03*
X2528013Y2584844D03*
X2529193Y2598484D03*
X2530375Y2584844D03*
X2531555Y2598484D03*
X2532737Y2584844D03*
G54D199*
X2536569Y2586669D03*
X2469837Y2586677D03*
G54D200*
X2644421Y2610000D03*
X2642452D03*
X2640484D03*
X2638515D03*
X2636547D03*
X2634578D03*
G54D201*
X2628083Y2617800D03*
X2650917D03*
G54D202*
X2645425Y2684596D03*
X2648575D03*
Y2677904D03*
X2645425D03*
X2637425Y2684596D03*
X2640575D03*
Y2677904D03*
X2637425D03*
X2688606Y2417118D03*
X2685456Y2417119D03*
Y2423811D03*
X2688606D03*
G54D203*
X2481555Y2622303D03*
X2493366D03*
G54D204*
X2425510Y2552500D03*
X2432990D03*
G54D207*
X2513445Y2699026D03*
X2515413D03*
X2519350D03*
X2521319D03*
Y2695581D03*
X2519350D03*
X2515413D03*
X2513445D03*
X2524272Y2699026D03*
X2526240D03*
X2530177D03*
X2532146D03*
Y2695581D03*
X2530177D03*
X2526240D03*
X2524272D03*
X2535098Y2699026D03*
X2537067D03*
X2541004D03*
X2542972D03*
Y2695581D03*
X2541004D03*
X2537067D03*
X2535098D03*
G54D208*
X2517382Y2698829D03*
Y2695778D03*
X2528209Y2698829D03*
Y2695778D03*
X2539035Y2698829D03*
Y2695778D03*
G54D209*
X2724331Y2548071D03*
Y2525630D03*
X2689685D03*
Y2548071D03*
G54D210*
X2724331Y2545708D03*
Y2543740D03*
Y2541771D03*
Y2539803D03*
Y2537834D03*
Y2535866D03*
Y2533897D03*
Y2531929D03*
Y2529960D03*
Y2527992D03*
X2689685D03*
Y2529960D03*
Y2531929D03*
Y2533897D03*
Y2535866D03*
Y2537834D03*
Y2539803D03*
Y2541771D03*
Y2543740D03*
Y2545708D03*
G54D211*
X2718229Y2519527D03*
X2695788D03*
Y2554173D03*
X2718229D03*
G54D212*
X2715866Y2519527D03*
X2713898D03*
X2711929D03*
X2709961D03*
X2707992D03*
X2706024D03*
X2704055D03*
X2702087D03*
X2700118D03*
X2698150D03*
Y2554173D03*
X2700118D03*
X2702087D03*
X2704055D03*
X2706024D03*
X2707992D03*
X2709961D03*
X2711929D03*
X2713898D03*
X2715866D03*
G54D213*
X2425059Y2489831D03*
X2423287D03*
X2421516D03*
X2419744D03*
X2417972D03*
X2416201D03*
X2414429D03*
Y2506169D03*
X2416201D03*
X2417972D03*
X2419744D03*
X2421516D03*
X2423287D03*
X2425059D03*
G54D214*
X2411575Y2492685D03*
Y2494457D03*
Y2496228D03*
Y2498000D03*
Y2499772D03*
Y2501543D03*
Y2503315D03*
X2427913D03*
Y2501543D03*
Y2499772D03*
Y2498000D03*
Y2496228D03*
Y2494457D03*
Y2492685D03*
G54D215*
X2419744Y2498000D03*
G54D216*
X2509705Y2619154D03*
X2507736D03*
X2505768D03*
X2503799D03*
X2501831D03*
Y2629783D03*
X2503799D03*
X2505768D03*
X2507736D03*
X2509705D03*
G54D217*
X2505768Y2624469D03*
G54D218*
X2677250Y2608217D03*
Y2622783D03*
X2741161Y2515886D03*
Y2501319D03*
G54D219*
X2588402Y2423728D03*
Y2427272D03*
X2563598D03*
Y2423728D03*
G54D220*
X2404691Y2622222D03*
X2394455D03*
Y2628522D03*
X2404691D03*
G54D221*
X2532404Y2412925D03*
Y2416075D03*
X2539096D03*
Y2412925D03*
G54D224*
X2621500Y2564772D03*
Y2561228D03*
G74*
X0Y0D02*
M02*
