%
M48
M72
T01C0.0150
T02C0.0400
%
T01
X5666Y3765
X4966Y4495
X7236Y3785
X9166Y4495
X9866Y3765
X11436Y3785
X13366Y4495
X14066Y3765
X15636Y3785
X17566Y4495
X18266Y3765
X19836Y3785
X21766Y4495
X22466Y3765
X24036Y3785
X25966Y4495
X26666Y3765
X28236Y3785
X30166Y4495
X30866Y3765
X32436Y3785
X34366Y4495
X35066Y3765
X36636Y3785
X35216Y6275
X31016Y6275
X26816Y6275
X22616Y6275
X18416Y6275
X14216Y6275
X10016Y6275
X5816Y6275
X5666Y9465
X4966Y10195
X7236Y9485
X9166Y10195
X9866Y9465
X11436Y9485
X13366Y10195
X14066Y9465
X15636Y9485
X17566Y10195
X18266Y9465
X19836Y9485
X21766Y10195
X22466Y9465
X24036Y9485
X25966Y10195
X26666Y9465
X28236Y9485
X30166Y10195
X30866Y9465
X32436Y9485
X34366Y10195
X35066Y9465
X36636Y9485
X35216Y11975
X35066Y15165
X34366Y15895
X32436Y15185
X30866Y15165
X30166Y15895
X28236Y15185
X26666Y15165
X25966Y15895
X26816Y17675
X24036Y15185
X22466Y15165
X21766Y15895
X19836Y15185
X18266Y15165
X17566Y15895
X15636Y15185
X14066Y15165
X13366Y15895
X11436Y15185
X9866Y15165
X9166Y15895
X7236Y15185
X5666Y15165
X4966Y15895
X5816Y17675
X10016Y17675
X14216Y17675
X18416Y17675
X22616Y17675
X22466Y20865
X21766Y21595
X19836Y20885
X18266Y20865
X17566Y21595
X15636Y20885
X14066Y20865
X13366Y21595
X11436Y20885
X9866Y20865
X9166Y21595
X7236Y20885
X5666Y20865
X4966Y21595
X5816Y23375
X10016Y23375
X14216Y23375
X18416Y23375
X22616Y23375
X24036Y20885
X25966Y21595
X26666Y20865
X28236Y20885
X30166Y21595
X30866Y20865
X32436Y20885
X34366Y21595
X35066Y20865
X36636Y20885
X35216Y23375
X31016Y23375
X26816Y23375
X31016Y17675
X35216Y17675
X36636Y15185
X31016Y11975
X26816Y11975
X22616Y11975
X18416Y11975
X14216Y11975
X10016Y11975
X5816Y11975
T02
X5996Y12665
X5996Y13505
X4996Y13505
X4996Y12665
X3996Y12665
X3996Y13505
X8196Y13505
X8196Y12665
X9196Y12665
X9196Y13505
X10196Y13505
X10196Y12665
X12396Y12665
X12396Y13505
X13396Y13505
X13396Y12665
X14396Y12665
X14396Y13505
X16596Y13505
X16596Y12665
X17596Y12665
X17596Y13505
X18596Y13505
X18596Y12665
X20796Y12665
X20796Y13505
X21796Y13505
X21796Y12665
X22796Y12665
X22796Y13505
X24996Y13505
X24996Y12665
X25996Y12665
X25996Y13505
X26996Y13505
X26996Y12665
X29196Y12665
X29196Y13505
X30196Y13505
X30196Y12665
X31196Y12665
X31196Y13505
X33396Y13505
X33396Y12665
X34396Y12665
X34396Y13505
X35396Y13505
X35396Y12665
X35396Y7805
X34396Y7805
X33396Y7805
X33396Y6965
X34396Y6965
X35396Y6965
X31196Y6965
X31196Y7805
X30196Y7805
X29196Y7805
X29196Y6965
X30196Y6965
X26996Y6965
X25996Y6965
X25996Y7805
X26996Y7805
X24996Y7805
X24996Y6965
X22796Y6965
X21796Y6965
X20796Y6965
X20796Y7805
X21796Y7805
X22796Y7805
X18596Y7805
X17596Y7805
X16596Y7805
X16596Y6965
X17596Y6965
X18596Y6965
X14396Y6965
X13396Y6965
X12396Y6965
X12396Y7805
X13396Y7805
X14396Y7805
X10196Y7805
X9196Y7805
X8196Y7805
X8196Y6965
X9196Y6965
X10196Y6965
X5996Y6965
X4996Y6965
X3996Y6965
X3996Y7805
X4996Y7805
X5996Y7805
X5996Y18365
X4996Y18365
X3996Y18365
X3996Y19205
X4996Y19205
X5996Y19205
X8196Y19205
X9196Y19205
X10196Y19205
X10196Y18365
X9196Y18365
X8196Y18365
X12396Y18365
X13396Y18365
X14396Y18365
X14396Y19205
X13396Y19205
X12396Y19205
X16596Y19205
X17596Y19205
X18596Y19205
X18596Y18365
X17596Y18365
X16596Y18365
X20796Y18365
X21796Y18365
X22796Y18365
X22796Y19205
X21796Y19205
X20796Y19205
X24996Y19205
X24996Y18365
X25996Y18365
X26996Y18365
X26996Y19205
X25996Y19205
X29196Y19205
X30196Y19205
X30196Y18365
X29196Y18365
X31196Y18365
X31196Y19205
X33396Y19205
X34396Y19205
X35396Y19205
X35396Y18365
X34396Y18365
X33396Y18365
X33396Y24065
X34396Y24065
X35396Y24065
X35396Y24905
X34396Y24905
X33396Y24905
X31196Y24905
X31196Y24065
X30196Y24065
X29196Y24065
X29196Y24905
X30196Y24905
X26996Y24905
X25996Y24905
X25996Y24065
X26996Y24065
X24996Y24065
X24996Y24905
X22796Y24905
X21796Y24905
X20796Y24905
X20796Y24065
X21796Y24065
X22796Y24065
X18596Y24065
X17596Y24065
X16596Y24065
X16596Y24905
X17596Y24905
X18596Y24905
X14396Y24905
X13396Y24905
X12396Y24905
X12396Y24065
X13396Y24065
X14396Y24065
X10196Y24065
X9196Y24065
X8196Y24065
X8196Y24905
X9196Y24905
X10196Y24905
X5996Y24905
X4996Y24905
X3996Y24905
X3996Y24065
X4996Y24065
X5996Y24065
M30
