M48
;GenerationSoftware,Autodesk,EAGLE,9.6.2*%
;CreationDate,2021-02-23T16:09:56Z*%
FMAT,2
ICI,OFF
METRIC,TZ,000.000
T7C0.254
T6C0.305
T5C0.381
T4C0.508
T3C0.650
T2C1.016
T1C3.302
%
G90
M71
T1
X2540Y70358
X96012Y70358
X25908Y2540
X20320Y70358
X25908Y70358
X90424Y70358
X72644Y70358
X43688Y70358
X2540Y2540
X113792Y2540
X67056Y70358
X49276Y70358
X113792Y70358
X49276Y2540
X67056Y2540
X72644Y2540
X90424Y2540
X96012Y2540
X43688Y2540
X20320Y2540
T2
X21590Y52070
X21590Y49530
X21590Y46990
X115062Y49530
X21590Y44450
X21590Y41910
X21590Y39370
X115062Y46990
X115062Y44450
X115062Y41910
X115062Y39370
X115062Y36830
X115062Y34290
X115062Y31750
X115062Y29210
X115062Y26670
X115062Y24130
X115062Y21590
X115062Y19050
X115062Y16510
X115062Y13970
X94742Y52070
X94742Y49530
X94742Y46990
X94742Y44450
X94742Y41910
X94742Y39370
X94742Y36830
X94742Y34290
X94742Y31750
X94742Y29210
X94742Y26670
X94742Y24130
X24638Y114808
X24638Y112268
X24638Y109728
X24638Y107188
X24638Y104648
X24638Y102108
X24638Y99568
X24638Y97028
X24638Y94488
X24638Y91948
X91694Y52070
X91694Y49530
X91694Y46990
X91694Y44450
X91694Y41910
X91694Y39370
X91694Y36830
X21590Y36830
X21590Y34290
X21590Y31750
X21590Y29210
X21590Y26670
X21590Y24130
X21590Y21590
X21590Y19050
X21590Y16510
X91694Y34290
X21590Y13970
X1270Y52070
X1270Y49530
X1270Y46990
X91694Y31750
X91694Y29210
X91694Y26670
X91694Y24130
X91694Y21590
X1270Y44450
X1270Y41910
X91694Y19050
X1270Y39370
X1270Y36830
X91694Y16510
X1270Y34290
X1270Y31750
X1270Y29210
X91694Y13970
X71374Y52070
X71374Y49530
X71374Y46990
X71374Y44450
X71374Y41910
X71374Y39370
X71374Y36830
X71374Y34290
X71374Y31750
X71374Y29210
X71374Y26670
X1270Y26670
X1270Y24130
X71374Y24130
X21590Y119888
X21590Y117348
X21590Y114808
X21590Y112268
X21590Y109728
X21590Y107188
X21590Y104648
X21590Y102108
X21590Y99568
X24638Y31750
X24638Y29210
X24638Y26670
X24638Y24130
X21590Y97028
X68326Y52070
X68326Y49530
X68326Y46990
X68326Y44450
X68326Y41910
X68326Y39370
X68326Y36830
X68326Y34290
X68326Y31750
X68326Y29210
X68326Y26670
X68326Y24130
X68326Y21590
X68326Y19050
X68326Y16510
X68326Y13970
X48006Y52070
X48006Y49530
X48006Y46990
X48006Y44450
X48006Y41910
X48006Y39370
X21590Y94488
X21590Y91948
X21590Y89408
X21590Y86868
X21590Y84328
X21590Y81788
X1270Y117348
X1270Y114808
X1270Y112268
X1270Y109728
X115062Y119888
X115062Y117348
X115062Y114808
X115062Y112268
X115062Y109728
X115062Y107188
X115062Y104648
X115062Y102108
X115062Y99568
X115062Y97028
X115062Y94488
X115062Y91948
X115062Y89408
X115062Y86868
X48006Y36830
X48006Y34290
X48006Y31750
X48006Y29210
X48006Y26670
X48006Y24130
X1270Y107188
X1270Y104648
X1270Y102108
X115062Y84328
X1270Y99568
X1270Y97028
X1270Y94488
X1270Y91948
X115062Y81788
X94742Y119888
X94742Y117348
X94742Y114808
X94742Y112268
X115062Y52070
X94742Y109728
X44958Y52070
X94742Y107188
X1270Y119888
X44958Y49530
X44958Y46990
X94742Y104648
X94742Y102108
X94742Y99568
X94742Y97028
X94742Y94488
X94742Y91948
X44958Y44450
X91694Y119888
X91694Y117348
X91694Y114808
X91694Y112268
X91694Y109728
X91694Y107188
X44958Y41910
X91694Y104648
X91694Y102108
X91694Y99568
X91694Y97028
X91694Y94488
X91694Y91948
X91694Y89408
X91694Y86868
X91694Y84328
X91694Y81788
X71374Y119888
X71374Y117348
X71374Y114808
X71374Y112268
X71374Y109728
X71374Y107188
X71374Y104648
X71374Y102108
X71374Y99568
X71374Y97028
X71374Y94488
X71374Y91948
X68326Y119888
X68326Y117348
X68326Y114808
X68326Y112268
X68326Y109728
X68326Y107188
X68326Y104648
X68326Y102108
X68326Y99568
X68326Y97028
X68326Y94488
X44958Y39370
X44958Y36830
X44958Y34290
X44958Y31750
X44958Y29210
X68326Y91948
X44958Y26670
X68326Y89408
X68326Y86868
X68326Y84328
X68326Y81788
X48006Y119888
X44958Y24130
X48006Y117348
X48006Y114808
X44958Y21590
X44958Y19050
X48006Y112268
X48006Y109728
X48006Y107188
X48006Y104648
X48006Y102108
X48006Y99568
X48006Y97028
X48006Y94488
X48006Y91948
X44958Y16510
X44958Y13970
X24638Y52070
X44958Y119888
X24638Y49530
X44958Y117348
X24638Y46990
X24638Y44450
X24638Y41910
X24638Y39370
X44958Y114808
X24638Y36830
X24638Y34290
X44958Y112268
X44958Y109728
X44958Y107188
X44958Y104648
X44958Y102108
X44958Y99568
X44958Y97028
X44958Y94488
X44958Y91948
X44958Y89408
X44958Y86868
X44958Y84328
X44958Y81788
X24638Y119888
X24638Y117348
T3
X84424Y72977
X37688Y72977
X78644Y72977
X14320Y5159
X107792Y72977
X102012Y72977
X107792Y5159
X102012Y5159
X8540Y5159
X55276Y5159
X31908Y72977
X78644Y5159
X55276Y72977
X14320Y72977
X37688Y5159
X61056Y72977
X31908Y5159
X84424Y5159
X61056Y5159
X8540Y72977
T4
X64704Y28659
X64704Y29929
X63434Y26119
X63434Y27389
X63434Y28659
X63434Y29929
X111440Y99017
X111440Y93937
X111440Y95207
X111440Y96477
X111440Y97747
X110170Y99017
X110170Y93937
X110170Y95207
X110170Y96477
X110170Y97747
X41336Y31199
X41336Y26119
X41336Y27389
X41336Y28659
X41336Y29929
X40066Y31199
X40066Y26119
X40066Y27389
X41336Y96477
X41336Y97747
X40066Y93937
X40066Y95207
X17968Y99017
X17968Y93937
X17968Y95207
X17968Y96477
X17968Y97747
X16698Y99017
X16698Y93937
X16698Y95207
X16698Y96477
X16698Y97747
X40066Y96477
X40066Y97747
X63434Y31199
X88072Y31199
X86802Y96477
X86802Y97747
X86802Y95207
X64704Y99017
X88072Y97747
X88072Y26119
X88072Y27389
X64704Y93937
X64704Y95207
X88072Y96477
X88072Y95207
X17968Y31199
X17968Y26119
X40066Y99017
X17968Y27389
X17968Y28659
X88072Y93937
X17968Y29929
X64704Y96477
X88072Y28659
X64704Y97747
X88072Y29929
X86802Y93937
X88072Y99017
X40066Y29929
X86802Y31199
X86802Y26119
X86802Y27389
X86802Y28659
X16698Y31199
X86802Y29929
X40066Y28659
X63434Y99017
X63434Y93937
X63434Y95207
X63434Y96477
X63434Y97747
X64704Y31199
X41336Y99017
X41336Y93937
X41336Y95207
X64704Y26119
X111440Y31199
X111440Y26119
X64704Y27389
X16698Y26119
X16698Y27389
X111440Y27389
X111440Y28659
X111440Y29929
X110170Y31199
X110170Y26119
X110170Y27389
X110170Y28659
X110170Y29929
X16698Y28659
X86802Y99017
X16698Y29929
T5
X27153Y8890
X6358Y9942
X55710Y75108
X1628Y55532
X21206Y53833
X10251Y29180
X20013Y20582
X56784Y95123
X16789Y11481
X16459Y54661
X14478Y20447
X59817Y86868
X57277Y85979
X66510Y82494
X64567Y74447
X59817Y90805
X52781Y89103
X60757Y93218
X63957Y90251
X61239Y91923
X62382Y121818
X63830Y87528
X63246Y117348
X62916Y87351
X63246Y118618
X50521Y76708
X51232Y118872
X49530Y76683
X56921Y93980
X55702Y90907
X57048Y91778
X76462Y77760
X71732Y123350
X91310Y121651
X80355Y96998
X90117Y88400
X86893Y79299
X86563Y122479
X84582Y88265
X83970Y75110
X79078Y75108
X80152Y95123
X83185Y86868
X80645Y85979
X89878Y82494
X87935Y74447
X83185Y90805
X76149Y89103
X84125Y93218
X87325Y90251
X84607Y91923
X85750Y121818
X87198Y87528
X86614Y117348
X13866Y7292
X8974Y7290
X10048Y27305
X13081Y19050
X10541Y18161
X19774Y14676
X17831Y6629
X13081Y22987
X6045Y21285
X86284Y87351
X14021Y25400
X17221Y22433
X14503Y24105
X15646Y54000
X86614Y118618
X73889Y76708
X74600Y118872
X72898Y76683
X80289Y93980
X17094Y19710
X16510Y49530
X79070Y90907
X16180Y19533
X16510Y50800
X80416Y91778
X3785Y8890
X4496Y51054
X2794Y8865
X99830Y77760
X95100Y123350
X114678Y121651
X103723Y96998
X113485Y88400
X110261Y79299
X109931Y122479
X107950Y88265
X107338Y75110
X102446Y75108
X103520Y95123
X106553Y86868
X10185Y26162
X8966Y23089
X10312Y23960
X104013Y85979
X113246Y82494
X111303Y74447
X106553Y90805
X99517Y89103
X107493Y93218
X110693Y90251
X107975Y91923
X29726Y9942
X109118Y121818
X24996Y55532
X44574Y53833
X33619Y29180
X43381Y20582
X110566Y87528
X40157Y11481
X39827Y54661
X37846Y20447
X109982Y117348
X109652Y87351
X109982Y118618
X97257Y76708
X97968Y118872
X96266Y76683
X103657Y93980
X102438Y90907
X103784Y91778
X17780Y24130
X41148Y24130
X64516Y24130
X87884Y24130
X111252Y24130
X17780Y91948
X41148Y91948
X64516Y91948
X87884Y91948
X111252Y91948
X37234Y7292
X32342Y7290
X33416Y27305
X36449Y19050
X33909Y18161
X43142Y14676
X41199Y6629
X36449Y22987
X29413Y21285
X37389Y25400
X40589Y22433
X37871Y24105
X39014Y54000
X40462Y19710
X39878Y49530
X39548Y19533
X39878Y50800
X27864Y51054
X26162Y8865
X33553Y26162
X32334Y23089
X33680Y23960
X53094Y9942
X48364Y55532
X67942Y53833
X56987Y29180
X66749Y20582
X63525Y11481
X63195Y54661
X61214Y20447
X60602Y7292
X55710Y7290
X56784Y27305
X59817Y19050
X57277Y18161
X66510Y14676
X64567Y6629
X59817Y22987
X52781Y21285
X60757Y25400
X63957Y22433
X61239Y24105
X62382Y54000
X63830Y19710
X63246Y49530
X62916Y19533
X63246Y50800
X50521Y8890
X51232Y51054
X49530Y8865
X56921Y26162
X55702Y23089
X57048Y23960
X76462Y9942
X71732Y55532
X91310Y53833
X80355Y29180
X90117Y20582
X86893Y11481
X86563Y54661
X84582Y20447
X79078Y7290
X80152Y27305
X83185Y19050
X80645Y18161
X89878Y14676
X87935Y6629
X83185Y22987
X76149Y21285
X84125Y25400
X87325Y22433
X84607Y24105
X85750Y54000
X87198Y19710
X86614Y49530
X86284Y19533
X86614Y50800
X73889Y8890
X74600Y51054
X72898Y8865
X80289Y26162
X79070Y23089
X80416Y23960
X99830Y9942
X95100Y55532
X114678Y53833
X103723Y29180
X113485Y20582
X110261Y11481
X109931Y54661
X107950Y20447
X107338Y7292
X102446Y7290
X103520Y27305
X106553Y19050
X104013Y18161
X113246Y14676
X111303Y6629
X106553Y22987
X99517Y21285
X107493Y25400
X110693Y22433
X107975Y24105
X109118Y54000
X110566Y19710
X109982Y49530
X109652Y19533
X109982Y50800
X97257Y8890
X97968Y51054
X96266Y8865
X103657Y26162
X102438Y23089
X103784Y23960
X6358Y77760
X1628Y123350
X21206Y121651
X10251Y96998
X20013Y88400
X16789Y79299
X16459Y122479
X14478Y88265
X13866Y75110
X8974Y75108
X10048Y95123
X13081Y86868
X10541Y85979
X19774Y82494
X17831Y74447
X13081Y90805
X6045Y89103
X14021Y93218
X17221Y90251
X14503Y91923
X15646Y121818
X17094Y87528
X16510Y117348
X16180Y87351
X16510Y118618
X3785Y76708
X4496Y118872
X2794Y76683
X10185Y93980
X8966Y90907
X10312Y91778
X29726Y77760
X24996Y123350
X44574Y121651
X33619Y96998
X43381Y88400
X40157Y79299
X39827Y122479
X37846Y88265
X37234Y75110
X32342Y75108
X33416Y95123
X36449Y86868
X33909Y85979
X43142Y82494
X41199Y74447
X36449Y90805
X29413Y89103
X37389Y93218
X40589Y90251
X37871Y91923
X39014Y121818
X40462Y87528
X39878Y117348
X39548Y87351
X39878Y118618
X27153Y76708
X27864Y118872
X26162Y76683
X33553Y93980
X32334Y90907
X33680Y91778
X53094Y77760
X48364Y123350
X67942Y121651
X56987Y96998
X66749Y88400
X83970Y7292
X63525Y79299
X63195Y122479
X61214Y88265
X60602Y75110
T6
X13830Y11656
X9848Y12576
X88445Y38534
X87158Y36462
X56888Y109329
X89731Y24717
X83591Y9881
X58166Y112268
X52433Y104572
X79952Y12576
X83934Y11656
X106959Y77699
X61618Y115821
X61610Y114529
X61882Y112286
X61653Y111343
X53086Y107188
X113099Y92535
X110526Y104280
X111813Y106352
X111811Y108316
X56751Y76510
X59698Y104402
X103624Y109329
X59526Y76506
X59882Y103671
X104902Y112268
X58924Y73076
X57907Y73053
X53086Y39370
X108354Y115821
X108346Y114529
X108618Y112286
X108389Y111343
X103487Y76510
X106434Y104402
X106262Y76506
X106618Y103671
X105660Y73076
X104643Y73053
X52433Y36754
X59657Y41824
X52367Y53348
X53063Y52873
X66416Y33632
X13487Y9881
X113152Y101450
X19627Y24717
X17054Y36462
X18341Y38534
X18339Y40498
X10152Y41511
X11430Y44450
X14882Y48003
X14874Y46711
X15146Y44468
X14917Y43525
X10015Y8692
X12962Y36584
X12790Y8688
X13146Y35853
X12188Y5258
X11171Y5235
X99799Y120691
X99103Y121166
X19680Y33632
X6327Y52873
X5631Y53348
X12921Y41824
X5697Y36754
X6350Y39370
X106393Y109642
X99169Y104572
X37198Y11656
X33216Y12576
X99822Y107188
X57907Y5235
X60566Y79474
X58924Y5258
X59882Y35853
X29718Y107188
X29065Y104572
X36289Y109642
X28999Y121166
X29695Y120691
X43048Y101450
X59526Y8688
X59698Y36584
X34539Y73053
X35556Y73076
X36514Y103671
X82292Y73076
X36158Y76506
X36330Y104402
X83934Y79474
X33383Y76510
X38285Y111343
X38514Y112286
X38242Y114529
X79952Y80394
X38250Y115821
X34798Y112268
X33520Y109329
X41707Y108316
X41709Y106352
X40422Y104280
X42995Y92535
X56751Y8692
X36855Y77699
X61653Y43525
X61882Y44468
X61610Y46711
X61618Y48003
X58166Y44450
X56888Y41511
X65075Y40498
X65077Y38534
X63790Y36462
X66363Y24717
X60223Y9881
X56584Y12576
X60566Y11656
X29718Y39370
X29065Y36754
X36289Y41824
X28999Y53348
X29695Y52873
X43048Y33632
X34539Y5235
X35556Y5258
X36514Y35853
X36158Y8688
X36330Y36584
X33383Y8692
X38285Y43525
X38514Y44468
X38242Y46711
X38250Y48003
X34798Y44450
X33520Y41511
X41707Y40498
X41709Y38534
X40422Y36462
X42995Y24717
X36855Y9881
X99799Y52873
X33216Y80394
X37198Y79474
X6350Y107188
X5697Y104572
X12921Y109642
X5631Y121166
X6327Y120691
X19680Y101450
X11171Y73053
X83591Y77699
X12188Y73076
X13146Y103671
X12790Y76506
X12962Y104402
X10015Y76510
X89731Y92535
X87158Y104280
X88445Y106352
X88443Y108316
X14917Y111343
X15146Y112286
X80256Y109329
X14874Y114529
X14882Y115821
X81534Y112268
X11430Y112268
X10152Y109329
X18339Y108316
X84986Y115821
X84978Y114529
X85250Y112286
X85021Y111343
X18341Y106352
X83066Y104402
X82894Y76506
X83250Y103671
X17054Y104280
X81275Y73053
X19627Y92535
X13487Y77699
X66416Y101450
X60223Y77699
X56584Y80394
X89784Y101450
X76431Y120691
X75735Y121166
X83025Y109642
X75801Y104572
X76454Y107188
X53063Y120691
X9848Y80394
X13830Y79474
X107302Y79474
X99822Y39370
X99169Y36754
X106393Y41824
X66363Y92535
X103320Y80394
X63790Y104280
X65077Y106352
X65075Y108316
X99103Y53348
X113152Y33632
X104643Y5235
X105660Y5258
X106618Y35853
X106262Y8688
X106434Y36584
X103487Y8692
X108389Y43525
X108618Y44468
X108346Y46711
X108354Y48003
X104902Y44450
X103624Y41511
X111811Y40498
X111813Y38534
X110526Y36462
X113099Y24717
X106959Y9881
X52367Y121166
X103320Y12576
X107302Y11656
X59657Y109642
X76454Y39370
X75801Y36754
X83025Y41824
X75735Y53348
X76431Y52873
X89784Y33632
X81275Y5235
X82292Y5258
X83250Y35853
X82894Y8688
X83066Y36584
X80119Y8692
X85021Y43525
X85250Y44468
X84978Y46711
X84986Y48003
X81534Y44450
X80119Y76510
X80256Y41511
X88443Y40498
T7
X16081Y16393
X7572Y7300
X6652Y7343
X15270Y7249
X16241Y7249
X12464Y14298
X4247Y32349
X9081Y32685
X12200Y24900
X13020Y27297
X13165Y17305
X10533Y15339
X13772Y10836
X12857Y30091
X1887Y57056
X4478Y57081
X18372Y57081
X20886Y57081
X5519Y24722
X18169Y35489
X6175Y26568
X11019Y50465
X9505Y50470
X9517Y48956
X11019Y48938
X11013Y47424
X9507Y47457
X12573Y48979
X7841Y48959
X10295Y51511
X10284Y46563
X8070Y15761
X6596Y15761
X4590Y15837
X4336Y16523
X4310Y17158
X7308Y15761
X15217Y16393
X16132Y17384
X17046Y16393
X16106Y15428
X11951Y10287
X11440Y7399
X20361Y30480
X10933Y10291
X9449Y15342
X19406Y28092
X34798Y10772
X39449Y16393
X30940Y7300
X30020Y7343
X38638Y7249
X39609Y7249
X35832Y14298
X27615Y32349
X32449Y32685
X35568Y24900
X36388Y27297
X36533Y17305
X33901Y15339
X37140Y10836
X36225Y30091
X25255Y57056
X27846Y57081
X44254Y57081
X28887Y24722
X57755Y116756
X57749Y115242
X56243Y115275
X59309Y116797
X54577Y116777
X57031Y119329
X57020Y114381
X86185Y84211
X77676Y75118
X76756Y75161
X85374Y75067
X86345Y75067
X82568Y82116
X74351Y100167
X79185Y100503
X82304Y92718
X83124Y95115
X83269Y85123
X80637Y83157
X83876Y78654
X82961Y97909
X71991Y124874
X74582Y124899
X88476Y124899
X90990Y124899
X75623Y92540
X88273Y103307
X76279Y94386
X81123Y118283
X79609Y118288
X79621Y116774
X81123Y116756
X81117Y115242
X79611Y115275
X82677Y116797
X77945Y116777
X80399Y119329
X80388Y114381
X78174Y83579
X76700Y83579
X74694Y83655
X74440Y84341
X74414Y84976
X77412Y83579
X85321Y84211
X86236Y85202
X87150Y84211
X86210Y83246
X82055Y78105
X81544Y75217
X54806Y83579
X53332Y83579
X51326Y83655
X51072Y84341
X51046Y84976
X54044Y83579
X61953Y84211
X62868Y85202
X63782Y84211
X62842Y83246
X58687Y78105
X58176Y75217
X62817Y84211
X90465Y98298
X54308Y75118
X53388Y75161
X62006Y75067
X62977Y75067
X59200Y82116
X50983Y100167
X55817Y100503
X11019Y118283
X41740Y57081
X81037Y78109
X79553Y83160
X58936Y92718
X59756Y95115
X89510Y95910
X104902Y78590
X59901Y85123
X57269Y83157
X60508Y78654
X67097Y98298
X109553Y84211
X101044Y75118
X100124Y75161
X108742Y75067
X109713Y75067
X105936Y82116
X97719Y100167
X102553Y100503
X105672Y92718
X106492Y95115
X106637Y85123
X104005Y83157
X107244Y78654
X106329Y97909
X95359Y124874
X97950Y124899
X111844Y124899
X114358Y124899
X98991Y92540
X111641Y103307
X99647Y94386
X104491Y118283
X102977Y118288
X102989Y116774
X104491Y116756
X104485Y115242
X102979Y115275
X106045Y116797
X101313Y116777
X103767Y119329
X103756Y114381
X101542Y83579
X100068Y83579
X98062Y83655
X97808Y84341
X97782Y84976
X100780Y83579
X108689Y84211
X109604Y85202
X110518Y84211
X109578Y83246
X105423Y78105
X104912Y75217
X59593Y97909
X48623Y124874
X51214Y124899
X65108Y124899
X67622Y124899
X52255Y92540
X64905Y103307
X113833Y98298
X57669Y78109
X104405Y78109
X102921Y83160
X56185Y83160
X52911Y94386
X57755Y118283
X112878Y95910
X58166Y78590
X42774Y95910
X32817Y83160
X34301Y78109
X43729Y98298
X34808Y75217
X35319Y78105
X39474Y83246
X40414Y84211
X39500Y85202
X38585Y84211
X30676Y83579
X27678Y84976
X27704Y84341
X27958Y83655
X29964Y83579
X31438Y83579
X33652Y114381
X33663Y119329
X31209Y116777
X35941Y116797
X32875Y115275
X34381Y115242
X34387Y116756
X32885Y116774
X32873Y118288
X34387Y118283
X29543Y94386
X41537Y103307
X28887Y92540
X44254Y124899
X41740Y124899
X27846Y124899
X25255Y124874
X36225Y97909
X37140Y78654
X33901Y83157
X36533Y85123
X36388Y95115
X35568Y92718
X32449Y100503
X102989Y48956
X102977Y50470
X104491Y50465
X99647Y26568
X111641Y35489
X98991Y24722
X114358Y57081
X111844Y57081
X97950Y57081
X95359Y57056
X106329Y30091
X107244Y10836
X104005Y15339
X106637Y17305
X106492Y27297
X105672Y24900
X102553Y32685
X97719Y32349
X105936Y14298
X109713Y7249
X108742Y7249
X100124Y7343
X101044Y7300
X109553Y16393
X12573Y116797
X9507Y115275
X11013Y115242
X104902Y10772
X89510Y28092
X11019Y116756
X9517Y116774
X9505Y118288
X39449Y84211
X6175Y94386
X18169Y103307
X79553Y15342
X81037Y10291
X5519Y92540
X20886Y124899
X18372Y124899
X4478Y124899
X1887Y124874
X12857Y97909
X13772Y78654
X10533Y83157
X13165Y85123
X13020Y95115
X12200Y92718
X9081Y100503
X4247Y100167
X12464Y82116
X16241Y75067
X15270Y75067
X6652Y75161
X90465Y30480
X7572Y75118
X11430Y10772
X81544Y7399
X82055Y10287
X86210Y15428
X87150Y16393
X86236Y17384
X85321Y16393
X77412Y15761
X74414Y17158
X35832Y82116
X74440Y16523
X74694Y15837
X76700Y15761
X78174Y15761
X80388Y46563
X80399Y51511
X77945Y48959
X82677Y48979
X79611Y47457
X81117Y47424
X81123Y48938
X79621Y48956
X79609Y50470
X81123Y50465
X76279Y26568
X88273Y35489
X75623Y24722
X90990Y57081
X88476Y57081
X74582Y57081
X71991Y57056
X82961Y30091
X83876Y10836
X80637Y15339
X83269Y17305
X83124Y27297
X82304Y24900
X79185Y32685
X74351Y32349
X82568Y14298
X86345Y7249
X85374Y7249
X76756Y7343
X77676Y7300
X86185Y16393
X16081Y84211
X9449Y83160
X81534Y10772
X10933Y78109
X66142Y28092
X11430Y78590
X112878Y28092
X39609Y75067
X34798Y78590
X19406Y95910
X56241Y118288
X56185Y15342
X57669Y10291
X27615Y100167
X38638Y75067
X102921Y15342
X104405Y10291
X20361Y98298
X30020Y75161
X11440Y75217
X11951Y78105
X16106Y83246
X17046Y84211
X30940Y75118
X16132Y85202
X15217Y84211
X7308Y83579
X4310Y84976
X4336Y84341
X67097Y30480
X4590Y83655
X58176Y7399
X58687Y10287
X62842Y15428
X63782Y16393
X62868Y17384
X61953Y16393
X54044Y15761
X51046Y17158
X51072Y16523
X51326Y15837
X53332Y15761
X66142Y95910
X54806Y15761
X57020Y46563
X57031Y51511
X54577Y48959
X59309Y48979
X56243Y47457
X57749Y47424
X57755Y48938
X56253Y48956
X56241Y50470
X57755Y50465
X52911Y26568
X64905Y35489
X52255Y24722
X67622Y57081
X65108Y57081
X51214Y57081
X48623Y57056
X59593Y30091
X60508Y10836
X57269Y15339
X59901Y17305
X59756Y27297
X58936Y24900
X55817Y32685
X50983Y32349
X59200Y14298
X62977Y7249
X62006Y7249
X53388Y7343
X54308Y7300
X62817Y16393
X6596Y83579
X8070Y83579
X58166Y10772
X42774Y28092
X10284Y114381
X113833Y30480
X81534Y78590
X10295Y119329
X104912Y7399
X105423Y10287
X109578Y15428
X32817Y15342
X34301Y10291
X110518Y16393
X109604Y17384
X108689Y16393
X100780Y15761
X7841Y116777
X97782Y17158
X97808Y16523
X98062Y15837
X100068Y15761
X101542Y15761
X103756Y46563
X103767Y51511
X101313Y48959
X106045Y48979
X102979Y47457
X104485Y47424
X43729Y30480
X104491Y48938
X34808Y7399
X35319Y10287
X39474Y15428
X40414Y16393
X39500Y17384
X38585Y16393
X30676Y15761
X27678Y17158
X27704Y16523
X27958Y15837
X29964Y15761
X31438Y15761
X33652Y46563
X33663Y51511
X56253Y116774
X31209Y48959
X35941Y48979
X32875Y47457
X34381Y47424
X34387Y48938
X32885Y48956
X32873Y50470
X34387Y50465
X29543Y26568
X41537Y35489
M30