G04 EAGLE Gerber RS-274X export*
G75*
%MOMM*%
%FSLAX34Y34*%
%LPD*%
%INSoldermask Top*%
%IPPOS*%
%AMOC8*
5,1,8,0,0,1.08239X$1,22.5*%
G01*
%ADD10C,3.200400*%
%ADD11C,0.243431*%
%ADD12C,0.255816*%
%ADD13C,1.152400*%
%ADD14C,0.432400*%
%ADD15C,0.285238*%
%ADD16C,0.257147*%
%ADD17C,0.250600*%
%ADD18C,0.258288*%
%ADD19C,2.152400*%
%ADD20R,2.184400X2.184400*%
%ADD21C,2.184400*%
%ADD22C,0.449434*%
%ADD23C,1.270000*%
%ADD24C,1.652400*%


D10*
X25400Y25400D03*
X406400Y25400D03*
D11*
X262145Y249495D02*
X251055Y249495D01*
X262145Y249495D02*
X262145Y230405D01*
X251055Y230405D01*
X251055Y249495D01*
X251055Y232717D02*
X262145Y232717D01*
X262145Y235029D02*
X251055Y235029D01*
X251055Y237341D02*
X262145Y237341D01*
X262145Y239653D02*
X251055Y239653D01*
X251055Y241965D02*
X262145Y241965D01*
X262145Y244277D02*
X251055Y244277D01*
X251055Y246589D02*
X262145Y246589D01*
X262145Y248901D02*
X251055Y248901D01*
X206145Y249495D02*
X195055Y249495D01*
X206145Y249495D02*
X206145Y230405D01*
X195055Y230405D01*
X195055Y249495D01*
X195055Y232717D02*
X206145Y232717D01*
X206145Y235029D02*
X195055Y235029D01*
X195055Y237341D02*
X206145Y237341D01*
X206145Y239653D02*
X195055Y239653D01*
X195055Y241965D02*
X206145Y241965D01*
X206145Y244277D02*
X195055Y244277D01*
X195055Y246589D02*
X206145Y246589D01*
X206145Y248901D02*
X195055Y248901D01*
D12*
X241117Y209433D02*
X246083Y209433D01*
X246083Y196967D01*
X241117Y196967D01*
X241117Y209433D01*
X241117Y199397D02*
X246083Y199397D01*
X246083Y201827D02*
X241117Y201827D01*
X241117Y204257D02*
X246083Y204257D01*
X246083Y206687D02*
X241117Y206687D01*
X241117Y209117D02*
X246083Y209117D01*
X236083Y209433D02*
X231117Y209433D01*
X236083Y209433D02*
X236083Y196967D01*
X231117Y196967D01*
X231117Y209433D01*
X231117Y199397D02*
X236083Y199397D01*
X236083Y201827D02*
X231117Y201827D01*
X231117Y204257D02*
X236083Y204257D01*
X236083Y206687D02*
X231117Y206687D01*
X231117Y209117D02*
X236083Y209117D01*
X226083Y209433D02*
X221117Y209433D01*
X226083Y209433D02*
X226083Y196967D01*
X221117Y196967D01*
X221117Y209433D01*
X221117Y199397D02*
X226083Y199397D01*
X226083Y201827D02*
X221117Y201827D01*
X221117Y204257D02*
X226083Y204257D01*
X226083Y206687D02*
X221117Y206687D01*
X221117Y209117D02*
X226083Y209117D01*
X216083Y209433D02*
X211117Y209433D01*
X216083Y209433D02*
X216083Y196967D01*
X211117Y196967D01*
X211117Y209433D01*
X211117Y199397D02*
X216083Y199397D01*
X216083Y201827D02*
X211117Y201827D01*
X211117Y204257D02*
X216083Y204257D01*
X216083Y206687D02*
X211117Y206687D01*
X211117Y209117D02*
X216083Y209117D01*
X202403Y191434D02*
X197437Y191434D01*
X202403Y191434D02*
X202403Y186468D01*
X197437Y186468D01*
X197437Y191434D01*
X197437Y188898D02*
X202403Y188898D01*
X202403Y191328D02*
X197437Y191328D01*
X192403Y191434D02*
X187437Y191434D01*
X192403Y191434D02*
X192403Y186468D01*
X187437Y186468D01*
X187437Y191434D01*
X187437Y188898D02*
X192403Y188898D01*
X192403Y191328D02*
X187437Y191328D01*
X197437Y180893D02*
X202403Y180893D01*
X202403Y175927D01*
X197437Y175927D01*
X197437Y180893D01*
X197437Y178357D02*
X202403Y178357D01*
X202403Y180787D02*
X197437Y180787D01*
X192403Y180893D02*
X187437Y180893D01*
X192403Y180893D02*
X192403Y175927D01*
X187437Y175927D01*
X187437Y180893D01*
X187437Y178357D02*
X192403Y178357D01*
X192403Y180787D02*
X187437Y180787D01*
D13*
X50800Y12700D03*
X381000Y241300D03*
D12*
X248029Y47225D02*
X243063Y47225D01*
X243063Y52191D01*
X248029Y52191D01*
X248029Y47225D01*
X248029Y49655D02*
X243063Y49655D01*
X243063Y52085D02*
X248029Y52085D01*
X253063Y47225D02*
X258029Y47225D01*
X253063Y47225D02*
X253063Y52191D01*
X258029Y52191D01*
X258029Y47225D01*
X258029Y49655D02*
X253063Y49655D01*
X253063Y52085D02*
X258029Y52085D01*
X209497Y48190D02*
X204531Y48190D01*
X204531Y53156D01*
X209497Y53156D01*
X209497Y48190D01*
X209497Y50620D02*
X204531Y50620D01*
X204531Y53050D02*
X209497Y53050D01*
X214531Y48190D02*
X219497Y48190D01*
X214531Y48190D02*
X214531Y53156D01*
X219497Y53156D01*
X219497Y48190D01*
X219497Y50620D02*
X214531Y50620D01*
X214531Y53050D02*
X219497Y53050D01*
X230016Y42416D02*
X230016Y37450D01*
X225050Y37450D01*
X225050Y42416D01*
X230016Y42416D01*
X230016Y39880D02*
X225050Y39880D01*
X225050Y42310D02*
X230016Y42310D01*
X230016Y47450D02*
X230016Y52416D01*
X230016Y47450D02*
X225050Y47450D01*
X225050Y52416D01*
X230016Y52416D01*
X230016Y49880D02*
X225050Y49880D01*
X225050Y52310D02*
X230016Y52310D01*
X209344Y116440D02*
X204378Y116440D01*
X204378Y121406D01*
X209344Y121406D01*
X209344Y116440D01*
X209344Y118870D02*
X204378Y118870D01*
X204378Y121300D02*
X209344Y121300D01*
X214378Y116440D02*
X219344Y116440D01*
X214378Y116440D02*
X214378Y121406D01*
X219344Y121406D01*
X219344Y116440D01*
X219344Y118870D02*
X214378Y118870D01*
X214378Y121300D02*
X219344Y121300D01*
X227895Y129619D02*
X227895Y134585D01*
X232861Y134585D01*
X232861Y129619D01*
X227895Y129619D01*
X227895Y132049D02*
X232861Y132049D01*
X232861Y134479D02*
X227895Y134479D01*
X227895Y124585D02*
X227895Y119619D01*
X227895Y124585D02*
X232861Y124585D01*
X232861Y119619D01*
X227895Y119619D01*
X227895Y122049D02*
X232861Y122049D01*
X232861Y124479D02*
X227895Y124479D01*
D14*
X225483Y69591D02*
X225483Y61891D01*
X230483Y61891D02*
X230483Y69591D01*
X235483Y69591D02*
X235483Y61891D01*
X240483Y61891D02*
X240483Y69591D01*
X245483Y69591D02*
X245483Y61891D01*
X252633Y76741D02*
X260333Y76741D01*
X260333Y81741D02*
X252633Y81741D01*
X252633Y86741D02*
X260333Y86741D01*
X260333Y91741D02*
X252633Y91741D01*
X252633Y96741D02*
X260333Y96741D01*
X245483Y103891D02*
X245483Y111591D01*
X240483Y111591D02*
X240483Y103891D01*
X235483Y103891D02*
X235483Y111591D01*
X230483Y111591D02*
X230483Y103891D01*
X225483Y103891D02*
X225483Y111591D01*
X218333Y96741D02*
X210633Y96741D01*
X210633Y91741D02*
X218333Y91741D01*
X218333Y86741D02*
X210633Y86741D01*
X210633Y81741D02*
X218333Y81741D01*
X218333Y76741D02*
X210633Y76741D01*
D15*
X222647Y73905D02*
X248319Y73905D01*
X222647Y73905D02*
X222647Y99577D01*
X248319Y99577D01*
X248319Y73905D01*
X248319Y76614D02*
X222647Y76614D01*
X222647Y79323D02*
X248319Y79323D01*
X248319Y82032D02*
X222647Y82032D01*
X222647Y84741D02*
X248319Y84741D01*
X248319Y87450D02*
X222647Y87450D01*
X222647Y90159D02*
X248319Y90159D01*
X248319Y92868D02*
X222647Y92868D01*
X222647Y95577D02*
X248319Y95577D01*
X248319Y98286D02*
X222647Y98286D01*
D16*
X273806Y49514D02*
X280760Y49514D01*
X273806Y49514D02*
X273806Y60468D01*
X280760Y60468D01*
X280760Y49514D01*
X280760Y51956D02*
X273806Y51956D01*
X273806Y54398D02*
X280760Y54398D01*
X280760Y56840D02*
X273806Y56840D01*
X273806Y59282D02*
X280760Y59282D01*
X291806Y49514D02*
X298760Y49514D01*
X291806Y49514D02*
X291806Y60468D01*
X298760Y60468D01*
X298760Y49514D01*
X298760Y51956D02*
X291806Y51956D01*
X291806Y54398D02*
X298760Y54398D01*
X298760Y56840D02*
X291806Y56840D01*
X291806Y59282D02*
X298760Y59282D01*
X280760Y68564D02*
X273806Y68564D01*
X273806Y79518D01*
X280760Y79518D01*
X280760Y68564D01*
X280760Y71006D02*
X273806Y71006D01*
X273806Y73448D02*
X280760Y73448D01*
X280760Y75890D02*
X273806Y75890D01*
X273806Y78332D02*
X280760Y78332D01*
X291806Y68564D02*
X298760Y68564D01*
X291806Y68564D02*
X291806Y79518D01*
X298760Y79518D01*
X298760Y68564D01*
X298760Y71006D02*
X291806Y71006D01*
X291806Y73448D02*
X298760Y73448D01*
X298760Y75890D02*
X291806Y75890D01*
X291806Y78332D02*
X298760Y78332D01*
X280760Y106664D02*
X273806Y106664D01*
X273806Y117618D01*
X280760Y117618D01*
X280760Y106664D01*
X280760Y109106D02*
X273806Y109106D01*
X273806Y111548D02*
X280760Y111548D01*
X280760Y113990D02*
X273806Y113990D01*
X273806Y116432D02*
X280760Y116432D01*
X291806Y106664D02*
X298760Y106664D01*
X291806Y106664D02*
X291806Y117618D01*
X298760Y117618D01*
X298760Y106664D01*
X298760Y109106D02*
X291806Y109106D01*
X291806Y111548D02*
X298760Y111548D01*
X298760Y113990D02*
X291806Y113990D01*
X291806Y116432D02*
X298760Y116432D01*
X280760Y87614D02*
X273806Y87614D01*
X273806Y98568D01*
X280760Y98568D01*
X280760Y87614D01*
X280760Y90056D02*
X273806Y90056D01*
X273806Y92498D02*
X280760Y92498D01*
X280760Y94940D02*
X273806Y94940D01*
X273806Y97382D02*
X280760Y97382D01*
X291806Y87614D02*
X298760Y87614D01*
X291806Y87614D02*
X291806Y98568D01*
X298760Y98568D01*
X298760Y87614D01*
X298760Y90056D02*
X291806Y90056D01*
X291806Y92498D02*
X298760Y92498D01*
X298760Y94940D02*
X291806Y94940D01*
X291806Y97382D02*
X298760Y97382D01*
D17*
X307116Y52383D02*
X307116Y44865D01*
X307116Y52383D02*
X315134Y52383D01*
X315134Y44865D01*
X307116Y44865D01*
X307116Y47246D02*
X315134Y47246D01*
X315134Y49627D02*
X307116Y49627D01*
X307116Y52008D02*
X315134Y52008D01*
X307116Y40783D02*
X307116Y33265D01*
X307116Y40783D02*
X315134Y40783D01*
X315134Y33265D01*
X307116Y33265D01*
X307116Y35646D02*
X315134Y35646D01*
X315134Y38027D02*
X307116Y38027D01*
X307116Y40408D02*
X315134Y40408D01*
X307166Y71688D02*
X307166Y79206D01*
X315184Y79206D01*
X315184Y71688D01*
X307166Y71688D01*
X307166Y74069D02*
X315184Y74069D01*
X315184Y76450D02*
X307166Y76450D01*
X307166Y78831D02*
X315184Y78831D01*
X307166Y67606D02*
X307166Y60088D01*
X307166Y67606D02*
X315184Y67606D01*
X315184Y60088D01*
X307166Y60088D01*
X307166Y62469D02*
X315184Y62469D01*
X315184Y64850D02*
X307166Y64850D01*
X307166Y67231D02*
X315184Y67231D01*
X315515Y113606D02*
X315515Y121124D01*
X315515Y113606D02*
X307497Y113606D01*
X307497Y121124D01*
X315515Y121124D01*
X315515Y115987D02*
X307497Y115987D01*
X307497Y118368D02*
X315515Y118368D01*
X315515Y120749D02*
X307497Y120749D01*
X315515Y125206D02*
X315515Y132724D01*
X315515Y125206D02*
X307497Y125206D01*
X307497Y132724D01*
X315515Y132724D01*
X315515Y127587D02*
X307497Y127587D01*
X307497Y129968D02*
X315515Y129968D01*
X315515Y132349D02*
X307497Y132349D01*
X315489Y94987D02*
X315489Y87469D01*
X307471Y87469D01*
X307471Y94987D01*
X315489Y94987D01*
X315489Y89850D02*
X307471Y89850D01*
X307471Y92231D02*
X315489Y92231D01*
X315489Y94612D02*
X307471Y94612D01*
X315489Y99069D02*
X315489Y106587D01*
X315489Y99069D02*
X307471Y99069D01*
X307471Y106587D01*
X315489Y106587D01*
X315489Y101450D02*
X307471Y101450D01*
X307471Y103831D02*
X315489Y103831D01*
X315489Y106212D02*
X307471Y106212D01*
D18*
X92899Y220402D02*
X92899Y239344D01*
X116841Y239344D01*
X116841Y220402D01*
X92899Y220402D01*
X92899Y222856D02*
X116841Y222856D01*
X116841Y225310D02*
X92899Y225310D01*
X92899Y227764D02*
X116841Y227764D01*
X116841Y230218D02*
X92899Y230218D01*
X92899Y232672D02*
X116841Y232672D01*
X116841Y235126D02*
X92899Y235126D01*
X92899Y237580D02*
X116841Y237580D01*
X92899Y146344D02*
X92899Y127402D01*
X92899Y146344D02*
X116841Y146344D01*
X116841Y127402D01*
X92899Y127402D01*
X92899Y129856D02*
X116841Y129856D01*
X116841Y132310D02*
X92899Y132310D01*
X92899Y134764D02*
X116841Y134764D01*
X116841Y137218D02*
X92899Y137218D01*
X92899Y139672D02*
X116841Y139672D01*
X116841Y142126D02*
X92899Y142126D01*
X92899Y144580D02*
X116841Y144580D01*
X161899Y201402D02*
X161899Y220344D01*
X185841Y220344D01*
X185841Y201402D01*
X161899Y201402D01*
X161899Y203856D02*
X185841Y203856D01*
X185841Y206310D02*
X161899Y206310D01*
X161899Y208764D02*
X185841Y208764D01*
X185841Y211218D02*
X161899Y211218D01*
X161899Y213672D02*
X185841Y213672D01*
X185841Y216126D02*
X161899Y216126D01*
X161899Y218580D02*
X185841Y218580D01*
X156341Y84402D02*
X137399Y84402D01*
X137399Y108344D01*
X156341Y108344D01*
X156341Y84402D01*
X156341Y86856D02*
X137399Y86856D01*
X137399Y89310D02*
X156341Y89310D01*
X156341Y91764D02*
X137399Y91764D01*
X137399Y94218D02*
X156341Y94218D01*
X156341Y96672D02*
X137399Y96672D01*
X137399Y99126D02*
X156341Y99126D01*
X156341Y101580D02*
X137399Y101580D01*
X137399Y104034D02*
X156341Y104034D01*
X156341Y106488D02*
X137399Y106488D01*
D11*
X185915Y233328D02*
X185915Y244418D01*
X185915Y233328D02*
X161825Y233328D01*
X161825Y244418D01*
X185915Y244418D01*
X185915Y235640D02*
X161825Y235640D01*
X161825Y237952D02*
X185915Y237952D01*
X185915Y240264D02*
X161825Y240264D01*
X161825Y242576D02*
X185915Y242576D01*
D19*
X139370Y218873D03*
X139370Y148873D03*
D12*
X193634Y37243D02*
X198600Y37243D01*
X193634Y37243D02*
X193634Y42209D01*
X198600Y42209D01*
X198600Y37243D01*
X198600Y39673D02*
X193634Y39673D01*
X193634Y42103D02*
X198600Y42103D01*
X203634Y37243D02*
X208600Y37243D01*
X203634Y37243D02*
X203634Y42209D01*
X208600Y42209D01*
X208600Y37243D01*
X208600Y39673D02*
X203634Y39673D01*
X203634Y42103D02*
X208600Y42103D01*
X198346Y129521D02*
X193380Y129521D01*
X193380Y134487D01*
X198346Y134487D01*
X198346Y129521D01*
X198346Y131951D02*
X193380Y131951D01*
X193380Y134381D02*
X198346Y134381D01*
X203380Y129521D02*
X208346Y129521D01*
X203380Y129521D02*
X203380Y134487D01*
X208346Y134487D01*
X208346Y129521D01*
X208346Y131951D02*
X203380Y131951D01*
X203380Y134381D02*
X208346Y134381D01*
X219247Y134516D02*
X219247Y129550D01*
X214281Y129550D01*
X214281Y134516D01*
X219247Y134516D01*
X219247Y131980D02*
X214281Y131980D01*
X214281Y134410D02*
X219247Y134410D01*
X219247Y139550D02*
X219247Y144516D01*
X219247Y139550D02*
X214281Y139550D01*
X214281Y144516D01*
X219247Y144516D01*
X219247Y141980D02*
X214281Y141980D01*
X214281Y144410D02*
X219247Y144410D01*
X213976Y42383D02*
X213976Y37417D01*
X213976Y42383D02*
X218942Y42383D01*
X218942Y37417D01*
X213976Y37417D01*
X213976Y39847D02*
X218942Y39847D01*
X218942Y42277D02*
X213976Y42277D01*
X213976Y32383D02*
X213976Y27417D01*
X213976Y32383D02*
X218942Y32383D01*
X218942Y27417D01*
X213976Y27417D01*
X213976Y29847D02*
X218942Y29847D01*
X218942Y32277D02*
X213976Y32277D01*
X243012Y119691D02*
X247978Y119691D01*
X243012Y119691D02*
X243012Y124657D01*
X247978Y124657D01*
X247978Y119691D01*
X247978Y122121D02*
X243012Y122121D01*
X243012Y124551D02*
X247978Y124551D01*
X253012Y119691D02*
X257978Y119691D01*
X253012Y119691D02*
X253012Y124657D01*
X257978Y124657D01*
X257978Y119691D01*
X257978Y122121D02*
X253012Y122121D01*
X253012Y124551D02*
X257978Y124551D01*
X188538Y89482D02*
X188538Y84516D01*
X183572Y84516D01*
X183572Y89482D01*
X188538Y89482D01*
X188538Y86946D02*
X183572Y86946D01*
X183572Y89376D02*
X188538Y89376D01*
X188538Y94516D02*
X188538Y99482D01*
X188538Y94516D02*
X183572Y94516D01*
X183572Y99482D01*
X188538Y99482D01*
X188538Y96946D02*
X183572Y96946D01*
X183572Y99376D02*
X188538Y99376D01*
D10*
X25400Y228600D03*
X406400Y228600D03*
D20*
X393700Y74500D03*
D21*
X393700Y109500D03*
X393700Y144500D03*
X393700Y179500D03*
D20*
X332461Y218059D03*
D21*
X297461Y218059D03*
D22*
X308943Y172527D02*
X308943Y165497D01*
X301913Y165497D01*
X301913Y172527D01*
X308943Y172527D01*
X308943Y169766D02*
X301913Y169766D01*
X326483Y172527D02*
X326483Y165497D01*
X319453Y165497D01*
X319453Y172527D01*
X326483Y172527D01*
X326483Y169766D02*
X319453Y169766D01*
D12*
X292907Y161516D02*
X292907Y156550D01*
X287941Y156550D01*
X287941Y161516D01*
X292907Y161516D01*
X292907Y158980D02*
X287941Y158980D01*
X287941Y161410D02*
X292907Y161410D01*
X292907Y166550D02*
X292907Y171516D01*
X292907Y166550D02*
X287941Y166550D01*
X287941Y171516D01*
X292907Y171516D01*
X292907Y168980D02*
X287941Y168980D01*
X287941Y171410D02*
X292907Y171410D01*
D20*
X38100Y179500D03*
D21*
X38100Y144500D03*
X38100Y109500D03*
X38100Y74500D03*
D16*
X261782Y183704D02*
X261782Y190658D01*
X272736Y190658D01*
X272736Y183704D01*
X261782Y183704D01*
X261782Y186146D02*
X272736Y186146D01*
X272736Y188588D02*
X261782Y188588D01*
X261782Y172658D02*
X261782Y165704D01*
X261782Y172658D02*
X272736Y172658D01*
X272736Y165704D01*
X261782Y165704D01*
X261782Y168146D02*
X272736Y168146D01*
X272736Y170588D02*
X261782Y170588D01*
D12*
X177743Y89431D02*
X177743Y84465D01*
X172777Y84465D01*
X172777Y89431D01*
X177743Y89431D01*
X177743Y86895D02*
X172777Y86895D01*
X172777Y89325D02*
X177743Y89325D01*
X177743Y94465D02*
X177743Y99431D01*
X177743Y94465D02*
X172777Y94465D01*
X172777Y99431D01*
X177743Y99431D01*
X177743Y96895D02*
X172777Y96895D01*
X172777Y99325D02*
X177743Y99325D01*
X243063Y36633D02*
X248029Y36633D01*
X243063Y36633D02*
X243063Y41599D01*
X248029Y41599D01*
X248029Y36633D01*
X248029Y39063D02*
X243063Y39063D01*
X243063Y41493D02*
X248029Y41493D01*
X253063Y36633D02*
X258029Y36633D01*
X253063Y36633D02*
X253063Y41599D01*
X258029Y41599D01*
X258029Y36633D01*
X258029Y39063D02*
X253063Y39063D01*
X253063Y41493D02*
X258029Y41493D01*
X247978Y130740D02*
X243012Y130740D01*
X243012Y135706D01*
X247978Y135706D01*
X247978Y130740D01*
X247978Y133170D02*
X243012Y133170D01*
X243012Y135600D02*
X247978Y135600D01*
X253012Y130740D02*
X257978Y130740D01*
X253012Y130740D02*
X253012Y135706D01*
X257978Y135706D01*
X257978Y130740D01*
X257978Y133170D02*
X253012Y133170D01*
X253012Y135600D02*
X257978Y135600D01*
D10*
X462280Y25400D03*
X843280Y25400D03*
D11*
X699025Y249495D02*
X687935Y249495D01*
X699025Y249495D02*
X699025Y230405D01*
X687935Y230405D01*
X687935Y249495D01*
X687935Y232717D02*
X699025Y232717D01*
X699025Y235029D02*
X687935Y235029D01*
X687935Y237341D02*
X699025Y237341D01*
X699025Y239653D02*
X687935Y239653D01*
X687935Y241965D02*
X699025Y241965D01*
X699025Y244277D02*
X687935Y244277D01*
X687935Y246589D02*
X699025Y246589D01*
X699025Y248901D02*
X687935Y248901D01*
X643025Y249495D02*
X631935Y249495D01*
X643025Y249495D02*
X643025Y230405D01*
X631935Y230405D01*
X631935Y249495D01*
X631935Y232717D02*
X643025Y232717D01*
X643025Y235029D02*
X631935Y235029D01*
X631935Y237341D02*
X643025Y237341D01*
X643025Y239653D02*
X631935Y239653D01*
X631935Y241965D02*
X643025Y241965D01*
X643025Y244277D02*
X631935Y244277D01*
X631935Y246589D02*
X643025Y246589D01*
X643025Y248901D02*
X631935Y248901D01*
D12*
X677997Y209433D02*
X682963Y209433D01*
X682963Y196967D01*
X677997Y196967D01*
X677997Y209433D01*
X677997Y199397D02*
X682963Y199397D01*
X682963Y201827D02*
X677997Y201827D01*
X677997Y204257D02*
X682963Y204257D01*
X682963Y206687D02*
X677997Y206687D01*
X677997Y209117D02*
X682963Y209117D01*
X672963Y209433D02*
X667997Y209433D01*
X672963Y209433D02*
X672963Y196967D01*
X667997Y196967D01*
X667997Y209433D01*
X667997Y199397D02*
X672963Y199397D01*
X672963Y201827D02*
X667997Y201827D01*
X667997Y204257D02*
X672963Y204257D01*
X672963Y206687D02*
X667997Y206687D01*
X667997Y209117D02*
X672963Y209117D01*
X662963Y209433D02*
X657997Y209433D01*
X662963Y209433D02*
X662963Y196967D01*
X657997Y196967D01*
X657997Y209433D01*
X657997Y199397D02*
X662963Y199397D01*
X662963Y201827D02*
X657997Y201827D01*
X657997Y204257D02*
X662963Y204257D01*
X662963Y206687D02*
X657997Y206687D01*
X657997Y209117D02*
X662963Y209117D01*
X652963Y209433D02*
X647997Y209433D01*
X652963Y209433D02*
X652963Y196967D01*
X647997Y196967D01*
X647997Y209433D01*
X647997Y199397D02*
X652963Y199397D01*
X652963Y201827D02*
X647997Y201827D01*
X647997Y204257D02*
X652963Y204257D01*
X652963Y206687D02*
X647997Y206687D01*
X647997Y209117D02*
X652963Y209117D01*
X639283Y191434D02*
X634317Y191434D01*
X639283Y191434D02*
X639283Y186468D01*
X634317Y186468D01*
X634317Y191434D01*
X634317Y188898D02*
X639283Y188898D01*
X639283Y191328D02*
X634317Y191328D01*
X629283Y191434D02*
X624317Y191434D01*
X629283Y191434D02*
X629283Y186468D01*
X624317Y186468D01*
X624317Y191434D01*
X624317Y188898D02*
X629283Y188898D01*
X629283Y191328D02*
X624317Y191328D01*
X634317Y180893D02*
X639283Y180893D01*
X639283Y175927D01*
X634317Y175927D01*
X634317Y180893D01*
X634317Y178357D02*
X639283Y178357D01*
X639283Y180787D02*
X634317Y180787D01*
X629283Y180893D02*
X624317Y180893D01*
X629283Y180893D02*
X629283Y175927D01*
X624317Y175927D01*
X624317Y180893D01*
X624317Y178357D02*
X629283Y178357D01*
X629283Y180787D02*
X624317Y180787D01*
D13*
X487680Y12700D03*
X817880Y241300D03*
D12*
X684909Y47225D02*
X679943Y47225D01*
X679943Y52191D01*
X684909Y52191D01*
X684909Y47225D01*
X684909Y49655D02*
X679943Y49655D01*
X679943Y52085D02*
X684909Y52085D01*
X689943Y47225D02*
X694909Y47225D01*
X689943Y47225D02*
X689943Y52191D01*
X694909Y52191D01*
X694909Y47225D01*
X694909Y49655D02*
X689943Y49655D01*
X689943Y52085D02*
X694909Y52085D01*
X646377Y48190D02*
X641411Y48190D01*
X641411Y53156D01*
X646377Y53156D01*
X646377Y48190D01*
X646377Y50620D02*
X641411Y50620D01*
X641411Y53050D02*
X646377Y53050D01*
X651411Y48190D02*
X656377Y48190D01*
X651411Y48190D02*
X651411Y53156D01*
X656377Y53156D01*
X656377Y48190D01*
X656377Y50620D02*
X651411Y50620D01*
X651411Y53050D02*
X656377Y53050D01*
X666896Y42416D02*
X666896Y37450D01*
X661930Y37450D01*
X661930Y42416D01*
X666896Y42416D01*
X666896Y39880D02*
X661930Y39880D01*
X661930Y42310D02*
X666896Y42310D01*
X666896Y47450D02*
X666896Y52416D01*
X666896Y47450D02*
X661930Y47450D01*
X661930Y52416D01*
X666896Y52416D01*
X666896Y49880D02*
X661930Y49880D01*
X661930Y52310D02*
X666896Y52310D01*
X646224Y116440D02*
X641258Y116440D01*
X641258Y121406D01*
X646224Y121406D01*
X646224Y116440D01*
X646224Y118870D02*
X641258Y118870D01*
X641258Y121300D02*
X646224Y121300D01*
X651258Y116440D02*
X656224Y116440D01*
X651258Y116440D02*
X651258Y121406D01*
X656224Y121406D01*
X656224Y116440D01*
X656224Y118870D02*
X651258Y118870D01*
X651258Y121300D02*
X656224Y121300D01*
X664775Y129619D02*
X664775Y134585D01*
X669741Y134585D01*
X669741Y129619D01*
X664775Y129619D01*
X664775Y132049D02*
X669741Y132049D01*
X669741Y134479D02*
X664775Y134479D01*
X664775Y124585D02*
X664775Y119619D01*
X664775Y124585D02*
X669741Y124585D01*
X669741Y119619D01*
X664775Y119619D01*
X664775Y122049D02*
X669741Y122049D01*
X669741Y124479D02*
X664775Y124479D01*
D14*
X662363Y69591D02*
X662363Y61891D01*
X667363Y61891D02*
X667363Y69591D01*
X672363Y69591D02*
X672363Y61891D01*
X677363Y61891D02*
X677363Y69591D01*
X682363Y69591D02*
X682363Y61891D01*
X689513Y76741D02*
X697213Y76741D01*
X697213Y81741D02*
X689513Y81741D01*
X689513Y86741D02*
X697213Y86741D01*
X697213Y91741D02*
X689513Y91741D01*
X689513Y96741D02*
X697213Y96741D01*
X682363Y103891D02*
X682363Y111591D01*
X677363Y111591D02*
X677363Y103891D01*
X672363Y103891D02*
X672363Y111591D01*
X667363Y111591D02*
X667363Y103891D01*
X662363Y103891D02*
X662363Y111591D01*
X655213Y96741D02*
X647513Y96741D01*
X647513Y91741D02*
X655213Y91741D01*
X655213Y86741D02*
X647513Y86741D01*
X647513Y81741D02*
X655213Y81741D01*
X655213Y76741D02*
X647513Y76741D01*
D15*
X659527Y73905D02*
X685199Y73905D01*
X659527Y73905D02*
X659527Y99577D01*
X685199Y99577D01*
X685199Y73905D01*
X685199Y76614D02*
X659527Y76614D01*
X659527Y79323D02*
X685199Y79323D01*
X685199Y82032D02*
X659527Y82032D01*
X659527Y84741D02*
X685199Y84741D01*
X685199Y87450D02*
X659527Y87450D01*
X659527Y90159D02*
X685199Y90159D01*
X685199Y92868D02*
X659527Y92868D01*
X659527Y95577D02*
X685199Y95577D01*
X685199Y98286D02*
X659527Y98286D01*
D16*
X710686Y49514D02*
X717640Y49514D01*
X710686Y49514D02*
X710686Y60468D01*
X717640Y60468D01*
X717640Y49514D01*
X717640Y51956D02*
X710686Y51956D01*
X710686Y54398D02*
X717640Y54398D01*
X717640Y56840D02*
X710686Y56840D01*
X710686Y59282D02*
X717640Y59282D01*
X728686Y49514D02*
X735640Y49514D01*
X728686Y49514D02*
X728686Y60468D01*
X735640Y60468D01*
X735640Y49514D01*
X735640Y51956D02*
X728686Y51956D01*
X728686Y54398D02*
X735640Y54398D01*
X735640Y56840D02*
X728686Y56840D01*
X728686Y59282D02*
X735640Y59282D01*
X717640Y68564D02*
X710686Y68564D01*
X710686Y79518D01*
X717640Y79518D01*
X717640Y68564D01*
X717640Y71006D02*
X710686Y71006D01*
X710686Y73448D02*
X717640Y73448D01*
X717640Y75890D02*
X710686Y75890D01*
X710686Y78332D02*
X717640Y78332D01*
X728686Y68564D02*
X735640Y68564D01*
X728686Y68564D02*
X728686Y79518D01*
X735640Y79518D01*
X735640Y68564D01*
X735640Y71006D02*
X728686Y71006D01*
X728686Y73448D02*
X735640Y73448D01*
X735640Y75890D02*
X728686Y75890D01*
X728686Y78332D02*
X735640Y78332D01*
X717640Y106664D02*
X710686Y106664D01*
X710686Y117618D01*
X717640Y117618D01*
X717640Y106664D01*
X717640Y109106D02*
X710686Y109106D01*
X710686Y111548D02*
X717640Y111548D01*
X717640Y113990D02*
X710686Y113990D01*
X710686Y116432D02*
X717640Y116432D01*
X728686Y106664D02*
X735640Y106664D01*
X728686Y106664D02*
X728686Y117618D01*
X735640Y117618D01*
X735640Y106664D01*
X735640Y109106D02*
X728686Y109106D01*
X728686Y111548D02*
X735640Y111548D01*
X735640Y113990D02*
X728686Y113990D01*
X728686Y116432D02*
X735640Y116432D01*
X717640Y87614D02*
X710686Y87614D01*
X710686Y98568D01*
X717640Y98568D01*
X717640Y87614D01*
X717640Y90056D02*
X710686Y90056D01*
X710686Y92498D02*
X717640Y92498D01*
X717640Y94940D02*
X710686Y94940D01*
X710686Y97382D02*
X717640Y97382D01*
X728686Y87614D02*
X735640Y87614D01*
X728686Y87614D02*
X728686Y98568D01*
X735640Y98568D01*
X735640Y87614D01*
X735640Y90056D02*
X728686Y90056D01*
X728686Y92498D02*
X735640Y92498D01*
X735640Y94940D02*
X728686Y94940D01*
X728686Y97382D02*
X735640Y97382D01*
D17*
X743996Y52383D02*
X743996Y44865D01*
X743996Y52383D02*
X752014Y52383D01*
X752014Y44865D01*
X743996Y44865D01*
X743996Y47246D02*
X752014Y47246D01*
X752014Y49627D02*
X743996Y49627D01*
X743996Y52008D02*
X752014Y52008D01*
X743996Y40783D02*
X743996Y33265D01*
X743996Y40783D02*
X752014Y40783D01*
X752014Y33265D01*
X743996Y33265D01*
X743996Y35646D02*
X752014Y35646D01*
X752014Y38027D02*
X743996Y38027D01*
X743996Y40408D02*
X752014Y40408D01*
X744046Y71688D02*
X744046Y79206D01*
X752064Y79206D01*
X752064Y71688D01*
X744046Y71688D01*
X744046Y74069D02*
X752064Y74069D01*
X752064Y76450D02*
X744046Y76450D01*
X744046Y78831D02*
X752064Y78831D01*
X744046Y67606D02*
X744046Y60088D01*
X744046Y67606D02*
X752064Y67606D01*
X752064Y60088D01*
X744046Y60088D01*
X744046Y62469D02*
X752064Y62469D01*
X752064Y64850D02*
X744046Y64850D01*
X744046Y67231D02*
X752064Y67231D01*
X752395Y113606D02*
X752395Y121124D01*
X752395Y113606D02*
X744377Y113606D01*
X744377Y121124D01*
X752395Y121124D01*
X752395Y115987D02*
X744377Y115987D01*
X744377Y118368D02*
X752395Y118368D01*
X752395Y120749D02*
X744377Y120749D01*
X752395Y125206D02*
X752395Y132724D01*
X752395Y125206D02*
X744377Y125206D01*
X744377Y132724D01*
X752395Y132724D01*
X752395Y127587D02*
X744377Y127587D01*
X744377Y129968D02*
X752395Y129968D01*
X752395Y132349D02*
X744377Y132349D01*
X752369Y94987D02*
X752369Y87469D01*
X744351Y87469D01*
X744351Y94987D01*
X752369Y94987D01*
X752369Y89850D02*
X744351Y89850D01*
X744351Y92231D02*
X752369Y92231D01*
X752369Y94612D02*
X744351Y94612D01*
X752369Y99069D02*
X752369Y106587D01*
X752369Y99069D02*
X744351Y99069D01*
X744351Y106587D01*
X752369Y106587D01*
X752369Y101450D02*
X744351Y101450D01*
X744351Y103831D02*
X752369Y103831D01*
X752369Y106212D02*
X744351Y106212D01*
D18*
X529779Y220402D02*
X529779Y239344D01*
X553721Y239344D01*
X553721Y220402D01*
X529779Y220402D01*
X529779Y222856D02*
X553721Y222856D01*
X553721Y225310D02*
X529779Y225310D01*
X529779Y227764D02*
X553721Y227764D01*
X553721Y230218D02*
X529779Y230218D01*
X529779Y232672D02*
X553721Y232672D01*
X553721Y235126D02*
X529779Y235126D01*
X529779Y237580D02*
X553721Y237580D01*
X529779Y146344D02*
X529779Y127402D01*
X529779Y146344D02*
X553721Y146344D01*
X553721Y127402D01*
X529779Y127402D01*
X529779Y129856D02*
X553721Y129856D01*
X553721Y132310D02*
X529779Y132310D01*
X529779Y134764D02*
X553721Y134764D01*
X553721Y137218D02*
X529779Y137218D01*
X529779Y139672D02*
X553721Y139672D01*
X553721Y142126D02*
X529779Y142126D01*
X529779Y144580D02*
X553721Y144580D01*
X598779Y201402D02*
X598779Y220344D01*
X622721Y220344D01*
X622721Y201402D01*
X598779Y201402D01*
X598779Y203856D02*
X622721Y203856D01*
X622721Y206310D02*
X598779Y206310D01*
X598779Y208764D02*
X622721Y208764D01*
X622721Y211218D02*
X598779Y211218D01*
X598779Y213672D02*
X622721Y213672D01*
X622721Y216126D02*
X598779Y216126D01*
X598779Y218580D02*
X622721Y218580D01*
X593221Y84402D02*
X574279Y84402D01*
X574279Y108344D01*
X593221Y108344D01*
X593221Y84402D01*
X593221Y86856D02*
X574279Y86856D01*
X574279Y89310D02*
X593221Y89310D01*
X593221Y91764D02*
X574279Y91764D01*
X574279Y94218D02*
X593221Y94218D01*
X593221Y96672D02*
X574279Y96672D01*
X574279Y99126D02*
X593221Y99126D01*
X593221Y101580D02*
X574279Y101580D01*
X574279Y104034D02*
X593221Y104034D01*
X593221Y106488D02*
X574279Y106488D01*
D11*
X622795Y233328D02*
X622795Y244418D01*
X622795Y233328D02*
X598705Y233328D01*
X598705Y244418D01*
X622795Y244418D01*
X622795Y235640D02*
X598705Y235640D01*
X598705Y237952D02*
X622795Y237952D01*
X622795Y240264D02*
X598705Y240264D01*
X598705Y242576D02*
X622795Y242576D01*
D19*
X576250Y218873D03*
X576250Y148873D03*
D12*
X630514Y37243D02*
X635480Y37243D01*
X630514Y37243D02*
X630514Y42209D01*
X635480Y42209D01*
X635480Y37243D01*
X635480Y39673D02*
X630514Y39673D01*
X630514Y42103D02*
X635480Y42103D01*
X640514Y37243D02*
X645480Y37243D01*
X640514Y37243D02*
X640514Y42209D01*
X645480Y42209D01*
X645480Y37243D01*
X645480Y39673D02*
X640514Y39673D01*
X640514Y42103D02*
X645480Y42103D01*
X635226Y129521D02*
X630260Y129521D01*
X630260Y134487D01*
X635226Y134487D01*
X635226Y129521D01*
X635226Y131951D02*
X630260Y131951D01*
X630260Y134381D02*
X635226Y134381D01*
X640260Y129521D02*
X645226Y129521D01*
X640260Y129521D02*
X640260Y134487D01*
X645226Y134487D01*
X645226Y129521D01*
X645226Y131951D02*
X640260Y131951D01*
X640260Y134381D02*
X645226Y134381D01*
X656127Y134516D02*
X656127Y129550D01*
X651161Y129550D01*
X651161Y134516D01*
X656127Y134516D01*
X656127Y131980D02*
X651161Y131980D01*
X651161Y134410D02*
X656127Y134410D01*
X656127Y139550D02*
X656127Y144516D01*
X656127Y139550D02*
X651161Y139550D01*
X651161Y144516D01*
X656127Y144516D01*
X656127Y141980D02*
X651161Y141980D01*
X651161Y144410D02*
X656127Y144410D01*
X650856Y42383D02*
X650856Y37417D01*
X650856Y42383D02*
X655822Y42383D01*
X655822Y37417D01*
X650856Y37417D01*
X650856Y39847D02*
X655822Y39847D01*
X655822Y42277D02*
X650856Y42277D01*
X650856Y32383D02*
X650856Y27417D01*
X650856Y32383D02*
X655822Y32383D01*
X655822Y27417D01*
X650856Y27417D01*
X650856Y29847D02*
X655822Y29847D01*
X655822Y32277D02*
X650856Y32277D01*
X679892Y119691D02*
X684858Y119691D01*
X679892Y119691D02*
X679892Y124657D01*
X684858Y124657D01*
X684858Y119691D01*
X684858Y122121D02*
X679892Y122121D01*
X679892Y124551D02*
X684858Y124551D01*
X689892Y119691D02*
X694858Y119691D01*
X689892Y119691D02*
X689892Y124657D01*
X694858Y124657D01*
X694858Y119691D01*
X694858Y122121D02*
X689892Y122121D01*
X689892Y124551D02*
X694858Y124551D01*
X625418Y89482D02*
X625418Y84516D01*
X620452Y84516D01*
X620452Y89482D01*
X625418Y89482D01*
X625418Y86946D02*
X620452Y86946D01*
X620452Y89376D02*
X625418Y89376D01*
X625418Y94516D02*
X625418Y99482D01*
X625418Y94516D02*
X620452Y94516D01*
X620452Y99482D01*
X625418Y99482D01*
X625418Y96946D02*
X620452Y96946D01*
X620452Y99376D02*
X625418Y99376D01*
D10*
X462280Y228600D03*
X843280Y228600D03*
D20*
X830580Y74500D03*
D21*
X830580Y109500D03*
X830580Y144500D03*
X830580Y179500D03*
D20*
X769341Y218059D03*
D21*
X734341Y218059D03*
D22*
X745823Y172527D02*
X745823Y165497D01*
X738793Y165497D01*
X738793Y172527D01*
X745823Y172527D01*
X745823Y169766D02*
X738793Y169766D01*
X763363Y172527D02*
X763363Y165497D01*
X756333Y165497D01*
X756333Y172527D01*
X763363Y172527D01*
X763363Y169766D02*
X756333Y169766D01*
D12*
X729787Y161516D02*
X729787Y156550D01*
X724821Y156550D01*
X724821Y161516D01*
X729787Y161516D01*
X729787Y158980D02*
X724821Y158980D01*
X724821Y161410D02*
X729787Y161410D01*
X729787Y166550D02*
X729787Y171516D01*
X729787Y166550D02*
X724821Y166550D01*
X724821Y171516D01*
X729787Y171516D01*
X729787Y168980D02*
X724821Y168980D01*
X724821Y171410D02*
X729787Y171410D01*
D20*
X474980Y179500D03*
D21*
X474980Y144500D03*
X474980Y109500D03*
X474980Y74500D03*
D16*
X698662Y183704D02*
X698662Y190658D01*
X709616Y190658D01*
X709616Y183704D01*
X698662Y183704D01*
X698662Y186146D02*
X709616Y186146D01*
X709616Y188588D02*
X698662Y188588D01*
X698662Y172658D02*
X698662Y165704D01*
X698662Y172658D02*
X709616Y172658D01*
X709616Y165704D01*
X698662Y165704D01*
X698662Y168146D02*
X709616Y168146D01*
X709616Y170588D02*
X698662Y170588D01*
D12*
X614623Y89431D02*
X614623Y84465D01*
X609657Y84465D01*
X609657Y89431D01*
X614623Y89431D01*
X614623Y86895D02*
X609657Y86895D01*
X609657Y89325D02*
X614623Y89325D01*
X614623Y94465D02*
X614623Y99431D01*
X614623Y94465D02*
X609657Y94465D01*
X609657Y99431D01*
X614623Y99431D01*
X614623Y96895D02*
X609657Y96895D01*
X609657Y99325D02*
X614623Y99325D01*
X679943Y36633D02*
X684909Y36633D01*
X679943Y36633D02*
X679943Y41599D01*
X684909Y41599D01*
X684909Y36633D01*
X684909Y39063D02*
X679943Y39063D01*
X679943Y41493D02*
X684909Y41493D01*
X689943Y36633D02*
X694909Y36633D01*
X689943Y36633D02*
X689943Y41599D01*
X694909Y41599D01*
X694909Y36633D01*
X694909Y39063D02*
X689943Y39063D01*
X689943Y41493D02*
X694909Y41493D01*
X684858Y130740D02*
X679892Y130740D01*
X679892Y135706D01*
X684858Y135706D01*
X684858Y130740D01*
X684858Y133170D02*
X679892Y133170D01*
X679892Y135600D02*
X684858Y135600D01*
X689892Y130740D02*
X694858Y130740D01*
X689892Y130740D02*
X689892Y135706D01*
X694858Y135706D01*
X694858Y130740D01*
X694858Y133170D02*
X689892Y133170D01*
X689892Y135600D02*
X694858Y135600D01*
D10*
X25400Y309880D03*
X406400Y309880D03*
D11*
X262145Y533975D02*
X251055Y533975D01*
X262145Y533975D02*
X262145Y514885D01*
X251055Y514885D01*
X251055Y533975D01*
X251055Y517197D02*
X262145Y517197D01*
X262145Y519509D02*
X251055Y519509D01*
X251055Y521821D02*
X262145Y521821D01*
X262145Y524133D02*
X251055Y524133D01*
X251055Y526445D02*
X262145Y526445D01*
X262145Y528757D02*
X251055Y528757D01*
X251055Y531069D02*
X262145Y531069D01*
X262145Y533381D02*
X251055Y533381D01*
X206145Y533975D02*
X195055Y533975D01*
X206145Y533975D02*
X206145Y514885D01*
X195055Y514885D01*
X195055Y533975D01*
X195055Y517197D02*
X206145Y517197D01*
X206145Y519509D02*
X195055Y519509D01*
X195055Y521821D02*
X206145Y521821D01*
X206145Y524133D02*
X195055Y524133D01*
X195055Y526445D02*
X206145Y526445D01*
X206145Y528757D02*
X195055Y528757D01*
X195055Y531069D02*
X206145Y531069D01*
X206145Y533381D02*
X195055Y533381D01*
D12*
X241117Y493913D02*
X246083Y493913D01*
X246083Y481447D01*
X241117Y481447D01*
X241117Y493913D01*
X241117Y483877D02*
X246083Y483877D01*
X246083Y486307D02*
X241117Y486307D01*
X241117Y488737D02*
X246083Y488737D01*
X246083Y491167D02*
X241117Y491167D01*
X241117Y493597D02*
X246083Y493597D01*
X236083Y493913D02*
X231117Y493913D01*
X236083Y493913D02*
X236083Y481447D01*
X231117Y481447D01*
X231117Y493913D01*
X231117Y483877D02*
X236083Y483877D01*
X236083Y486307D02*
X231117Y486307D01*
X231117Y488737D02*
X236083Y488737D01*
X236083Y491167D02*
X231117Y491167D01*
X231117Y493597D02*
X236083Y493597D01*
X226083Y493913D02*
X221117Y493913D01*
X226083Y493913D02*
X226083Y481447D01*
X221117Y481447D01*
X221117Y493913D01*
X221117Y483877D02*
X226083Y483877D01*
X226083Y486307D02*
X221117Y486307D01*
X221117Y488737D02*
X226083Y488737D01*
X226083Y491167D02*
X221117Y491167D01*
X221117Y493597D02*
X226083Y493597D01*
X216083Y493913D02*
X211117Y493913D01*
X216083Y493913D02*
X216083Y481447D01*
X211117Y481447D01*
X211117Y493913D01*
X211117Y483877D02*
X216083Y483877D01*
X216083Y486307D02*
X211117Y486307D01*
X211117Y488737D02*
X216083Y488737D01*
X216083Y491167D02*
X211117Y491167D01*
X211117Y493597D02*
X216083Y493597D01*
X202403Y475914D02*
X197437Y475914D01*
X202403Y475914D02*
X202403Y470948D01*
X197437Y470948D01*
X197437Y475914D01*
X197437Y473378D02*
X202403Y473378D01*
X202403Y475808D02*
X197437Y475808D01*
X192403Y475914D02*
X187437Y475914D01*
X192403Y475914D02*
X192403Y470948D01*
X187437Y470948D01*
X187437Y475914D01*
X187437Y473378D02*
X192403Y473378D01*
X192403Y475808D02*
X187437Y475808D01*
X197437Y465373D02*
X202403Y465373D01*
X202403Y460407D01*
X197437Y460407D01*
X197437Y465373D01*
X197437Y462837D02*
X202403Y462837D01*
X202403Y465267D02*
X197437Y465267D01*
X192403Y465373D02*
X187437Y465373D01*
X192403Y465373D02*
X192403Y460407D01*
X187437Y460407D01*
X187437Y465373D01*
X187437Y462837D02*
X192403Y462837D01*
X192403Y465267D02*
X187437Y465267D01*
D13*
X50800Y297180D03*
X381000Y525780D03*
D12*
X248029Y331705D02*
X243063Y331705D01*
X243063Y336671D01*
X248029Y336671D01*
X248029Y331705D01*
X248029Y334135D02*
X243063Y334135D01*
X243063Y336565D02*
X248029Y336565D01*
X253063Y331705D02*
X258029Y331705D01*
X253063Y331705D02*
X253063Y336671D01*
X258029Y336671D01*
X258029Y331705D01*
X258029Y334135D02*
X253063Y334135D01*
X253063Y336565D02*
X258029Y336565D01*
X209497Y332670D02*
X204531Y332670D01*
X204531Y337636D01*
X209497Y337636D01*
X209497Y332670D01*
X209497Y335100D02*
X204531Y335100D01*
X204531Y337530D02*
X209497Y337530D01*
X214531Y332670D02*
X219497Y332670D01*
X214531Y332670D02*
X214531Y337636D01*
X219497Y337636D01*
X219497Y332670D01*
X219497Y335100D02*
X214531Y335100D01*
X214531Y337530D02*
X219497Y337530D01*
X230016Y326896D02*
X230016Y321930D01*
X225050Y321930D01*
X225050Y326896D01*
X230016Y326896D01*
X230016Y324360D02*
X225050Y324360D01*
X225050Y326790D02*
X230016Y326790D01*
X230016Y331930D02*
X230016Y336896D01*
X230016Y331930D02*
X225050Y331930D01*
X225050Y336896D01*
X230016Y336896D01*
X230016Y334360D02*
X225050Y334360D01*
X225050Y336790D02*
X230016Y336790D01*
X209344Y400920D02*
X204378Y400920D01*
X204378Y405886D01*
X209344Y405886D01*
X209344Y400920D01*
X209344Y403350D02*
X204378Y403350D01*
X204378Y405780D02*
X209344Y405780D01*
X214378Y400920D02*
X219344Y400920D01*
X214378Y400920D02*
X214378Y405886D01*
X219344Y405886D01*
X219344Y400920D01*
X219344Y403350D02*
X214378Y403350D01*
X214378Y405780D02*
X219344Y405780D01*
X227895Y414099D02*
X227895Y419065D01*
X232861Y419065D01*
X232861Y414099D01*
X227895Y414099D01*
X227895Y416529D02*
X232861Y416529D01*
X232861Y418959D02*
X227895Y418959D01*
X227895Y409065D02*
X227895Y404099D01*
X227895Y409065D02*
X232861Y409065D01*
X232861Y404099D01*
X227895Y404099D01*
X227895Y406529D02*
X232861Y406529D01*
X232861Y408959D02*
X227895Y408959D01*
D14*
X225483Y354071D02*
X225483Y346371D01*
X230483Y346371D02*
X230483Y354071D01*
X235483Y354071D02*
X235483Y346371D01*
X240483Y346371D02*
X240483Y354071D01*
X245483Y354071D02*
X245483Y346371D01*
X252633Y361221D02*
X260333Y361221D01*
X260333Y366221D02*
X252633Y366221D01*
X252633Y371221D02*
X260333Y371221D01*
X260333Y376221D02*
X252633Y376221D01*
X252633Y381221D02*
X260333Y381221D01*
X245483Y388371D02*
X245483Y396071D01*
X240483Y396071D02*
X240483Y388371D01*
X235483Y388371D02*
X235483Y396071D01*
X230483Y396071D02*
X230483Y388371D01*
X225483Y388371D02*
X225483Y396071D01*
X218333Y381221D02*
X210633Y381221D01*
X210633Y376221D02*
X218333Y376221D01*
X218333Y371221D02*
X210633Y371221D01*
X210633Y366221D02*
X218333Y366221D01*
X218333Y361221D02*
X210633Y361221D01*
D15*
X222647Y358385D02*
X248319Y358385D01*
X222647Y358385D02*
X222647Y384057D01*
X248319Y384057D01*
X248319Y358385D01*
X248319Y361094D02*
X222647Y361094D01*
X222647Y363803D02*
X248319Y363803D01*
X248319Y366512D02*
X222647Y366512D01*
X222647Y369221D02*
X248319Y369221D01*
X248319Y371930D02*
X222647Y371930D01*
X222647Y374639D02*
X248319Y374639D01*
X248319Y377348D02*
X222647Y377348D01*
X222647Y380057D02*
X248319Y380057D01*
X248319Y382766D02*
X222647Y382766D01*
D16*
X273806Y333994D02*
X280760Y333994D01*
X273806Y333994D02*
X273806Y344948D01*
X280760Y344948D01*
X280760Y333994D01*
X280760Y336436D02*
X273806Y336436D01*
X273806Y338878D02*
X280760Y338878D01*
X280760Y341320D02*
X273806Y341320D01*
X273806Y343762D02*
X280760Y343762D01*
X291806Y333994D02*
X298760Y333994D01*
X291806Y333994D02*
X291806Y344948D01*
X298760Y344948D01*
X298760Y333994D01*
X298760Y336436D02*
X291806Y336436D01*
X291806Y338878D02*
X298760Y338878D01*
X298760Y341320D02*
X291806Y341320D01*
X291806Y343762D02*
X298760Y343762D01*
X280760Y353044D02*
X273806Y353044D01*
X273806Y363998D01*
X280760Y363998D01*
X280760Y353044D01*
X280760Y355486D02*
X273806Y355486D01*
X273806Y357928D02*
X280760Y357928D01*
X280760Y360370D02*
X273806Y360370D01*
X273806Y362812D02*
X280760Y362812D01*
X291806Y353044D02*
X298760Y353044D01*
X291806Y353044D02*
X291806Y363998D01*
X298760Y363998D01*
X298760Y353044D01*
X298760Y355486D02*
X291806Y355486D01*
X291806Y357928D02*
X298760Y357928D01*
X298760Y360370D02*
X291806Y360370D01*
X291806Y362812D02*
X298760Y362812D01*
X280760Y391144D02*
X273806Y391144D01*
X273806Y402098D01*
X280760Y402098D01*
X280760Y391144D01*
X280760Y393586D02*
X273806Y393586D01*
X273806Y396028D02*
X280760Y396028D01*
X280760Y398470D02*
X273806Y398470D01*
X273806Y400912D02*
X280760Y400912D01*
X291806Y391144D02*
X298760Y391144D01*
X291806Y391144D02*
X291806Y402098D01*
X298760Y402098D01*
X298760Y391144D01*
X298760Y393586D02*
X291806Y393586D01*
X291806Y396028D02*
X298760Y396028D01*
X298760Y398470D02*
X291806Y398470D01*
X291806Y400912D02*
X298760Y400912D01*
X280760Y372094D02*
X273806Y372094D01*
X273806Y383048D01*
X280760Y383048D01*
X280760Y372094D01*
X280760Y374536D02*
X273806Y374536D01*
X273806Y376978D02*
X280760Y376978D01*
X280760Y379420D02*
X273806Y379420D01*
X273806Y381862D02*
X280760Y381862D01*
X291806Y372094D02*
X298760Y372094D01*
X291806Y372094D02*
X291806Y383048D01*
X298760Y383048D01*
X298760Y372094D01*
X298760Y374536D02*
X291806Y374536D01*
X291806Y376978D02*
X298760Y376978D01*
X298760Y379420D02*
X291806Y379420D01*
X291806Y381862D02*
X298760Y381862D01*
D17*
X307116Y336863D02*
X307116Y329345D01*
X307116Y336863D02*
X315134Y336863D01*
X315134Y329345D01*
X307116Y329345D01*
X307116Y331726D02*
X315134Y331726D01*
X315134Y334107D02*
X307116Y334107D01*
X307116Y336488D02*
X315134Y336488D01*
X307116Y325263D02*
X307116Y317745D01*
X307116Y325263D02*
X315134Y325263D01*
X315134Y317745D01*
X307116Y317745D01*
X307116Y320126D02*
X315134Y320126D01*
X315134Y322507D02*
X307116Y322507D01*
X307116Y324888D02*
X315134Y324888D01*
X307166Y356168D02*
X307166Y363686D01*
X315184Y363686D01*
X315184Y356168D01*
X307166Y356168D01*
X307166Y358549D02*
X315184Y358549D01*
X315184Y360930D02*
X307166Y360930D01*
X307166Y363311D02*
X315184Y363311D01*
X307166Y352086D02*
X307166Y344568D01*
X307166Y352086D02*
X315184Y352086D01*
X315184Y344568D01*
X307166Y344568D01*
X307166Y346949D02*
X315184Y346949D01*
X315184Y349330D02*
X307166Y349330D01*
X307166Y351711D02*
X315184Y351711D01*
X315515Y398086D02*
X315515Y405604D01*
X315515Y398086D02*
X307497Y398086D01*
X307497Y405604D01*
X315515Y405604D01*
X315515Y400467D02*
X307497Y400467D01*
X307497Y402848D02*
X315515Y402848D01*
X315515Y405229D02*
X307497Y405229D01*
X315515Y409686D02*
X315515Y417204D01*
X315515Y409686D02*
X307497Y409686D01*
X307497Y417204D01*
X315515Y417204D01*
X315515Y412067D02*
X307497Y412067D01*
X307497Y414448D02*
X315515Y414448D01*
X315515Y416829D02*
X307497Y416829D01*
X315489Y379467D02*
X315489Y371949D01*
X307471Y371949D01*
X307471Y379467D01*
X315489Y379467D01*
X315489Y374330D02*
X307471Y374330D01*
X307471Y376711D02*
X315489Y376711D01*
X315489Y379092D02*
X307471Y379092D01*
X315489Y383549D02*
X315489Y391067D01*
X315489Y383549D02*
X307471Y383549D01*
X307471Y391067D01*
X315489Y391067D01*
X315489Y385930D02*
X307471Y385930D01*
X307471Y388311D02*
X315489Y388311D01*
X315489Y390692D02*
X307471Y390692D01*
D18*
X92899Y504882D02*
X92899Y523824D01*
X116841Y523824D01*
X116841Y504882D01*
X92899Y504882D01*
X92899Y507336D02*
X116841Y507336D01*
X116841Y509790D02*
X92899Y509790D01*
X92899Y512244D02*
X116841Y512244D01*
X116841Y514698D02*
X92899Y514698D01*
X92899Y517152D02*
X116841Y517152D01*
X116841Y519606D02*
X92899Y519606D01*
X92899Y522060D02*
X116841Y522060D01*
X92899Y430824D02*
X92899Y411882D01*
X92899Y430824D02*
X116841Y430824D01*
X116841Y411882D01*
X92899Y411882D01*
X92899Y414336D02*
X116841Y414336D01*
X116841Y416790D02*
X92899Y416790D01*
X92899Y419244D02*
X116841Y419244D01*
X116841Y421698D02*
X92899Y421698D01*
X92899Y424152D02*
X116841Y424152D01*
X116841Y426606D02*
X92899Y426606D01*
X92899Y429060D02*
X116841Y429060D01*
X161899Y485882D02*
X161899Y504824D01*
X185841Y504824D01*
X185841Y485882D01*
X161899Y485882D01*
X161899Y488336D02*
X185841Y488336D01*
X185841Y490790D02*
X161899Y490790D01*
X161899Y493244D02*
X185841Y493244D01*
X185841Y495698D02*
X161899Y495698D01*
X161899Y498152D02*
X185841Y498152D01*
X185841Y500606D02*
X161899Y500606D01*
X161899Y503060D02*
X185841Y503060D01*
X156341Y368882D02*
X137399Y368882D01*
X137399Y392824D01*
X156341Y392824D01*
X156341Y368882D01*
X156341Y371336D02*
X137399Y371336D01*
X137399Y373790D02*
X156341Y373790D01*
X156341Y376244D02*
X137399Y376244D01*
X137399Y378698D02*
X156341Y378698D01*
X156341Y381152D02*
X137399Y381152D01*
X137399Y383606D02*
X156341Y383606D01*
X156341Y386060D02*
X137399Y386060D01*
X137399Y388514D02*
X156341Y388514D01*
X156341Y390968D02*
X137399Y390968D01*
D11*
X185915Y517808D02*
X185915Y528898D01*
X185915Y517808D02*
X161825Y517808D01*
X161825Y528898D01*
X185915Y528898D01*
X185915Y520120D02*
X161825Y520120D01*
X161825Y522432D02*
X185915Y522432D01*
X185915Y524744D02*
X161825Y524744D01*
X161825Y527056D02*
X185915Y527056D01*
D19*
X139370Y503353D03*
X139370Y433353D03*
D12*
X193634Y321723D02*
X198600Y321723D01*
X193634Y321723D02*
X193634Y326689D01*
X198600Y326689D01*
X198600Y321723D01*
X198600Y324153D02*
X193634Y324153D01*
X193634Y326583D02*
X198600Y326583D01*
X203634Y321723D02*
X208600Y321723D01*
X203634Y321723D02*
X203634Y326689D01*
X208600Y326689D01*
X208600Y321723D01*
X208600Y324153D02*
X203634Y324153D01*
X203634Y326583D02*
X208600Y326583D01*
X198346Y414001D02*
X193380Y414001D01*
X193380Y418967D01*
X198346Y418967D01*
X198346Y414001D01*
X198346Y416431D02*
X193380Y416431D01*
X193380Y418861D02*
X198346Y418861D01*
X203380Y414001D02*
X208346Y414001D01*
X203380Y414001D02*
X203380Y418967D01*
X208346Y418967D01*
X208346Y414001D01*
X208346Y416431D02*
X203380Y416431D01*
X203380Y418861D02*
X208346Y418861D01*
X219247Y418996D02*
X219247Y414030D01*
X214281Y414030D01*
X214281Y418996D01*
X219247Y418996D01*
X219247Y416460D02*
X214281Y416460D01*
X214281Y418890D02*
X219247Y418890D01*
X219247Y424030D02*
X219247Y428996D01*
X219247Y424030D02*
X214281Y424030D01*
X214281Y428996D01*
X219247Y428996D01*
X219247Y426460D02*
X214281Y426460D01*
X214281Y428890D02*
X219247Y428890D01*
X213976Y326863D02*
X213976Y321897D01*
X213976Y326863D02*
X218942Y326863D01*
X218942Y321897D01*
X213976Y321897D01*
X213976Y324327D02*
X218942Y324327D01*
X218942Y326757D02*
X213976Y326757D01*
X213976Y316863D02*
X213976Y311897D01*
X213976Y316863D02*
X218942Y316863D01*
X218942Y311897D01*
X213976Y311897D01*
X213976Y314327D02*
X218942Y314327D01*
X218942Y316757D02*
X213976Y316757D01*
X243012Y404171D02*
X247978Y404171D01*
X243012Y404171D02*
X243012Y409137D01*
X247978Y409137D01*
X247978Y404171D01*
X247978Y406601D02*
X243012Y406601D01*
X243012Y409031D02*
X247978Y409031D01*
X253012Y404171D02*
X257978Y404171D01*
X253012Y404171D02*
X253012Y409137D01*
X257978Y409137D01*
X257978Y404171D01*
X257978Y406601D02*
X253012Y406601D01*
X253012Y409031D02*
X257978Y409031D01*
X188538Y373962D02*
X188538Y368996D01*
X183572Y368996D01*
X183572Y373962D01*
X188538Y373962D01*
X188538Y371426D02*
X183572Y371426D01*
X183572Y373856D02*
X188538Y373856D01*
X188538Y378996D02*
X188538Y383962D01*
X188538Y378996D02*
X183572Y378996D01*
X183572Y383962D01*
X188538Y383962D01*
X188538Y381426D02*
X183572Y381426D01*
X183572Y383856D02*
X188538Y383856D01*
D10*
X25400Y513080D03*
X406400Y513080D03*
D20*
X393700Y358980D03*
D21*
X393700Y393980D03*
X393700Y428980D03*
X393700Y463980D03*
D20*
X332461Y502539D03*
D21*
X297461Y502539D03*
D22*
X308943Y457007D02*
X308943Y449977D01*
X301913Y449977D01*
X301913Y457007D01*
X308943Y457007D01*
X308943Y454246D02*
X301913Y454246D01*
X326483Y457007D02*
X326483Y449977D01*
X319453Y449977D01*
X319453Y457007D01*
X326483Y457007D01*
X326483Y454246D02*
X319453Y454246D01*
D12*
X292907Y445996D02*
X292907Y441030D01*
X287941Y441030D01*
X287941Y445996D01*
X292907Y445996D01*
X292907Y443460D02*
X287941Y443460D01*
X287941Y445890D02*
X292907Y445890D01*
X292907Y451030D02*
X292907Y455996D01*
X292907Y451030D02*
X287941Y451030D01*
X287941Y455996D01*
X292907Y455996D01*
X292907Y453460D02*
X287941Y453460D01*
X287941Y455890D02*
X292907Y455890D01*
D20*
X38100Y463980D03*
D21*
X38100Y428980D03*
X38100Y393980D03*
X38100Y358980D03*
D16*
X261782Y468184D02*
X261782Y475138D01*
X272736Y475138D01*
X272736Y468184D01*
X261782Y468184D01*
X261782Y470626D02*
X272736Y470626D01*
X272736Y473068D02*
X261782Y473068D01*
X261782Y457138D02*
X261782Y450184D01*
X261782Y457138D02*
X272736Y457138D01*
X272736Y450184D01*
X261782Y450184D01*
X261782Y452626D02*
X272736Y452626D01*
X272736Y455068D02*
X261782Y455068D01*
D12*
X177743Y373911D02*
X177743Y368945D01*
X172777Y368945D01*
X172777Y373911D01*
X177743Y373911D01*
X177743Y371375D02*
X172777Y371375D01*
X172777Y373805D02*
X177743Y373805D01*
X177743Y378945D02*
X177743Y383911D01*
X177743Y378945D02*
X172777Y378945D01*
X172777Y383911D01*
X177743Y383911D01*
X177743Y381375D02*
X172777Y381375D01*
X172777Y383805D02*
X177743Y383805D01*
X243063Y321113D02*
X248029Y321113D01*
X243063Y321113D02*
X243063Y326079D01*
X248029Y326079D01*
X248029Y321113D01*
X248029Y323543D02*
X243063Y323543D01*
X243063Y325973D02*
X248029Y325973D01*
X253063Y321113D02*
X258029Y321113D01*
X253063Y321113D02*
X253063Y326079D01*
X258029Y326079D01*
X258029Y321113D01*
X258029Y323543D02*
X253063Y323543D01*
X253063Y325973D02*
X258029Y325973D01*
X247978Y415220D02*
X243012Y415220D01*
X243012Y420186D01*
X247978Y420186D01*
X247978Y415220D01*
X247978Y417650D02*
X243012Y417650D01*
X243012Y420080D02*
X247978Y420080D01*
X253012Y415220D02*
X257978Y415220D01*
X253012Y415220D02*
X253012Y420186D01*
X257978Y420186D01*
X257978Y415220D01*
X257978Y417650D02*
X253012Y417650D01*
X253012Y420080D02*
X257978Y420080D01*
D10*
X462280Y309880D03*
X843280Y309880D03*
D11*
X699025Y533975D02*
X687935Y533975D01*
X699025Y533975D02*
X699025Y514885D01*
X687935Y514885D01*
X687935Y533975D01*
X687935Y517197D02*
X699025Y517197D01*
X699025Y519509D02*
X687935Y519509D01*
X687935Y521821D02*
X699025Y521821D01*
X699025Y524133D02*
X687935Y524133D01*
X687935Y526445D02*
X699025Y526445D01*
X699025Y528757D02*
X687935Y528757D01*
X687935Y531069D02*
X699025Y531069D01*
X699025Y533381D02*
X687935Y533381D01*
X643025Y533975D02*
X631935Y533975D01*
X643025Y533975D02*
X643025Y514885D01*
X631935Y514885D01*
X631935Y533975D01*
X631935Y517197D02*
X643025Y517197D01*
X643025Y519509D02*
X631935Y519509D01*
X631935Y521821D02*
X643025Y521821D01*
X643025Y524133D02*
X631935Y524133D01*
X631935Y526445D02*
X643025Y526445D01*
X643025Y528757D02*
X631935Y528757D01*
X631935Y531069D02*
X643025Y531069D01*
X643025Y533381D02*
X631935Y533381D01*
D12*
X677997Y493913D02*
X682963Y493913D01*
X682963Y481447D01*
X677997Y481447D01*
X677997Y493913D01*
X677997Y483877D02*
X682963Y483877D01*
X682963Y486307D02*
X677997Y486307D01*
X677997Y488737D02*
X682963Y488737D01*
X682963Y491167D02*
X677997Y491167D01*
X677997Y493597D02*
X682963Y493597D01*
X672963Y493913D02*
X667997Y493913D01*
X672963Y493913D02*
X672963Y481447D01*
X667997Y481447D01*
X667997Y493913D01*
X667997Y483877D02*
X672963Y483877D01*
X672963Y486307D02*
X667997Y486307D01*
X667997Y488737D02*
X672963Y488737D01*
X672963Y491167D02*
X667997Y491167D01*
X667997Y493597D02*
X672963Y493597D01*
X662963Y493913D02*
X657997Y493913D01*
X662963Y493913D02*
X662963Y481447D01*
X657997Y481447D01*
X657997Y493913D01*
X657997Y483877D02*
X662963Y483877D01*
X662963Y486307D02*
X657997Y486307D01*
X657997Y488737D02*
X662963Y488737D01*
X662963Y491167D02*
X657997Y491167D01*
X657997Y493597D02*
X662963Y493597D01*
X652963Y493913D02*
X647997Y493913D01*
X652963Y493913D02*
X652963Y481447D01*
X647997Y481447D01*
X647997Y493913D01*
X647997Y483877D02*
X652963Y483877D01*
X652963Y486307D02*
X647997Y486307D01*
X647997Y488737D02*
X652963Y488737D01*
X652963Y491167D02*
X647997Y491167D01*
X647997Y493597D02*
X652963Y493597D01*
X639283Y475914D02*
X634317Y475914D01*
X639283Y475914D02*
X639283Y470948D01*
X634317Y470948D01*
X634317Y475914D01*
X634317Y473378D02*
X639283Y473378D01*
X639283Y475808D02*
X634317Y475808D01*
X629283Y475914D02*
X624317Y475914D01*
X629283Y475914D02*
X629283Y470948D01*
X624317Y470948D01*
X624317Y475914D01*
X624317Y473378D02*
X629283Y473378D01*
X629283Y475808D02*
X624317Y475808D01*
X634317Y465373D02*
X639283Y465373D01*
X639283Y460407D01*
X634317Y460407D01*
X634317Y465373D01*
X634317Y462837D02*
X639283Y462837D01*
X639283Y465267D02*
X634317Y465267D01*
X629283Y465373D02*
X624317Y465373D01*
X629283Y465373D02*
X629283Y460407D01*
X624317Y460407D01*
X624317Y465373D01*
X624317Y462837D02*
X629283Y462837D01*
X629283Y465267D02*
X624317Y465267D01*
D13*
X487680Y297180D03*
X817880Y525780D03*
D12*
X684909Y331705D02*
X679943Y331705D01*
X679943Y336671D01*
X684909Y336671D01*
X684909Y331705D01*
X684909Y334135D02*
X679943Y334135D01*
X679943Y336565D02*
X684909Y336565D01*
X689943Y331705D02*
X694909Y331705D01*
X689943Y331705D02*
X689943Y336671D01*
X694909Y336671D01*
X694909Y331705D01*
X694909Y334135D02*
X689943Y334135D01*
X689943Y336565D02*
X694909Y336565D01*
X646377Y332670D02*
X641411Y332670D01*
X641411Y337636D01*
X646377Y337636D01*
X646377Y332670D01*
X646377Y335100D02*
X641411Y335100D01*
X641411Y337530D02*
X646377Y337530D01*
X651411Y332670D02*
X656377Y332670D01*
X651411Y332670D02*
X651411Y337636D01*
X656377Y337636D01*
X656377Y332670D01*
X656377Y335100D02*
X651411Y335100D01*
X651411Y337530D02*
X656377Y337530D01*
X666896Y326896D02*
X666896Y321930D01*
X661930Y321930D01*
X661930Y326896D01*
X666896Y326896D01*
X666896Y324360D02*
X661930Y324360D01*
X661930Y326790D02*
X666896Y326790D01*
X666896Y331930D02*
X666896Y336896D01*
X666896Y331930D02*
X661930Y331930D01*
X661930Y336896D01*
X666896Y336896D01*
X666896Y334360D02*
X661930Y334360D01*
X661930Y336790D02*
X666896Y336790D01*
X646224Y400920D02*
X641258Y400920D01*
X641258Y405886D01*
X646224Y405886D01*
X646224Y400920D01*
X646224Y403350D02*
X641258Y403350D01*
X641258Y405780D02*
X646224Y405780D01*
X651258Y400920D02*
X656224Y400920D01*
X651258Y400920D02*
X651258Y405886D01*
X656224Y405886D01*
X656224Y400920D01*
X656224Y403350D02*
X651258Y403350D01*
X651258Y405780D02*
X656224Y405780D01*
X664775Y414099D02*
X664775Y419065D01*
X669741Y419065D01*
X669741Y414099D01*
X664775Y414099D01*
X664775Y416529D02*
X669741Y416529D01*
X669741Y418959D02*
X664775Y418959D01*
X664775Y409065D02*
X664775Y404099D01*
X664775Y409065D02*
X669741Y409065D01*
X669741Y404099D01*
X664775Y404099D01*
X664775Y406529D02*
X669741Y406529D01*
X669741Y408959D02*
X664775Y408959D01*
D14*
X662363Y354071D02*
X662363Y346371D01*
X667363Y346371D02*
X667363Y354071D01*
X672363Y354071D02*
X672363Y346371D01*
X677363Y346371D02*
X677363Y354071D01*
X682363Y354071D02*
X682363Y346371D01*
X689513Y361221D02*
X697213Y361221D01*
X697213Y366221D02*
X689513Y366221D01*
X689513Y371221D02*
X697213Y371221D01*
X697213Y376221D02*
X689513Y376221D01*
X689513Y381221D02*
X697213Y381221D01*
X682363Y388371D02*
X682363Y396071D01*
X677363Y396071D02*
X677363Y388371D01*
X672363Y388371D02*
X672363Y396071D01*
X667363Y396071D02*
X667363Y388371D01*
X662363Y388371D02*
X662363Y396071D01*
X655213Y381221D02*
X647513Y381221D01*
X647513Y376221D02*
X655213Y376221D01*
X655213Y371221D02*
X647513Y371221D01*
X647513Y366221D02*
X655213Y366221D01*
X655213Y361221D02*
X647513Y361221D01*
D15*
X659527Y358385D02*
X685199Y358385D01*
X659527Y358385D02*
X659527Y384057D01*
X685199Y384057D01*
X685199Y358385D01*
X685199Y361094D02*
X659527Y361094D01*
X659527Y363803D02*
X685199Y363803D01*
X685199Y366512D02*
X659527Y366512D01*
X659527Y369221D02*
X685199Y369221D01*
X685199Y371930D02*
X659527Y371930D01*
X659527Y374639D02*
X685199Y374639D01*
X685199Y377348D02*
X659527Y377348D01*
X659527Y380057D02*
X685199Y380057D01*
X685199Y382766D02*
X659527Y382766D01*
D16*
X710686Y333994D02*
X717640Y333994D01*
X710686Y333994D02*
X710686Y344948D01*
X717640Y344948D01*
X717640Y333994D01*
X717640Y336436D02*
X710686Y336436D01*
X710686Y338878D02*
X717640Y338878D01*
X717640Y341320D02*
X710686Y341320D01*
X710686Y343762D02*
X717640Y343762D01*
X728686Y333994D02*
X735640Y333994D01*
X728686Y333994D02*
X728686Y344948D01*
X735640Y344948D01*
X735640Y333994D01*
X735640Y336436D02*
X728686Y336436D01*
X728686Y338878D02*
X735640Y338878D01*
X735640Y341320D02*
X728686Y341320D01*
X728686Y343762D02*
X735640Y343762D01*
X717640Y353044D02*
X710686Y353044D01*
X710686Y363998D01*
X717640Y363998D01*
X717640Y353044D01*
X717640Y355486D02*
X710686Y355486D01*
X710686Y357928D02*
X717640Y357928D01*
X717640Y360370D02*
X710686Y360370D01*
X710686Y362812D02*
X717640Y362812D01*
X728686Y353044D02*
X735640Y353044D01*
X728686Y353044D02*
X728686Y363998D01*
X735640Y363998D01*
X735640Y353044D01*
X735640Y355486D02*
X728686Y355486D01*
X728686Y357928D02*
X735640Y357928D01*
X735640Y360370D02*
X728686Y360370D01*
X728686Y362812D02*
X735640Y362812D01*
X717640Y391144D02*
X710686Y391144D01*
X710686Y402098D01*
X717640Y402098D01*
X717640Y391144D01*
X717640Y393586D02*
X710686Y393586D01*
X710686Y396028D02*
X717640Y396028D01*
X717640Y398470D02*
X710686Y398470D01*
X710686Y400912D02*
X717640Y400912D01*
X728686Y391144D02*
X735640Y391144D01*
X728686Y391144D02*
X728686Y402098D01*
X735640Y402098D01*
X735640Y391144D01*
X735640Y393586D02*
X728686Y393586D01*
X728686Y396028D02*
X735640Y396028D01*
X735640Y398470D02*
X728686Y398470D01*
X728686Y400912D02*
X735640Y400912D01*
X717640Y372094D02*
X710686Y372094D01*
X710686Y383048D01*
X717640Y383048D01*
X717640Y372094D01*
X717640Y374536D02*
X710686Y374536D01*
X710686Y376978D02*
X717640Y376978D01*
X717640Y379420D02*
X710686Y379420D01*
X710686Y381862D02*
X717640Y381862D01*
X728686Y372094D02*
X735640Y372094D01*
X728686Y372094D02*
X728686Y383048D01*
X735640Y383048D01*
X735640Y372094D01*
X735640Y374536D02*
X728686Y374536D01*
X728686Y376978D02*
X735640Y376978D01*
X735640Y379420D02*
X728686Y379420D01*
X728686Y381862D02*
X735640Y381862D01*
D17*
X743996Y336863D02*
X743996Y329345D01*
X743996Y336863D02*
X752014Y336863D01*
X752014Y329345D01*
X743996Y329345D01*
X743996Y331726D02*
X752014Y331726D01*
X752014Y334107D02*
X743996Y334107D01*
X743996Y336488D02*
X752014Y336488D01*
X743996Y325263D02*
X743996Y317745D01*
X743996Y325263D02*
X752014Y325263D01*
X752014Y317745D01*
X743996Y317745D01*
X743996Y320126D02*
X752014Y320126D01*
X752014Y322507D02*
X743996Y322507D01*
X743996Y324888D02*
X752014Y324888D01*
X744046Y356168D02*
X744046Y363686D01*
X752064Y363686D01*
X752064Y356168D01*
X744046Y356168D01*
X744046Y358549D02*
X752064Y358549D01*
X752064Y360930D02*
X744046Y360930D01*
X744046Y363311D02*
X752064Y363311D01*
X744046Y352086D02*
X744046Y344568D01*
X744046Y352086D02*
X752064Y352086D01*
X752064Y344568D01*
X744046Y344568D01*
X744046Y346949D02*
X752064Y346949D01*
X752064Y349330D02*
X744046Y349330D01*
X744046Y351711D02*
X752064Y351711D01*
X752395Y398086D02*
X752395Y405604D01*
X752395Y398086D02*
X744377Y398086D01*
X744377Y405604D01*
X752395Y405604D01*
X752395Y400467D02*
X744377Y400467D01*
X744377Y402848D02*
X752395Y402848D01*
X752395Y405229D02*
X744377Y405229D01*
X752395Y409686D02*
X752395Y417204D01*
X752395Y409686D02*
X744377Y409686D01*
X744377Y417204D01*
X752395Y417204D01*
X752395Y412067D02*
X744377Y412067D01*
X744377Y414448D02*
X752395Y414448D01*
X752395Y416829D02*
X744377Y416829D01*
X752369Y379467D02*
X752369Y371949D01*
X744351Y371949D01*
X744351Y379467D01*
X752369Y379467D01*
X752369Y374330D02*
X744351Y374330D01*
X744351Y376711D02*
X752369Y376711D01*
X752369Y379092D02*
X744351Y379092D01*
X752369Y383549D02*
X752369Y391067D01*
X752369Y383549D02*
X744351Y383549D01*
X744351Y391067D01*
X752369Y391067D01*
X752369Y385930D02*
X744351Y385930D01*
X744351Y388311D02*
X752369Y388311D01*
X752369Y390692D02*
X744351Y390692D01*
D18*
X529779Y504882D02*
X529779Y523824D01*
X553721Y523824D01*
X553721Y504882D01*
X529779Y504882D01*
X529779Y507336D02*
X553721Y507336D01*
X553721Y509790D02*
X529779Y509790D01*
X529779Y512244D02*
X553721Y512244D01*
X553721Y514698D02*
X529779Y514698D01*
X529779Y517152D02*
X553721Y517152D01*
X553721Y519606D02*
X529779Y519606D01*
X529779Y522060D02*
X553721Y522060D01*
X529779Y430824D02*
X529779Y411882D01*
X529779Y430824D02*
X553721Y430824D01*
X553721Y411882D01*
X529779Y411882D01*
X529779Y414336D02*
X553721Y414336D01*
X553721Y416790D02*
X529779Y416790D01*
X529779Y419244D02*
X553721Y419244D01*
X553721Y421698D02*
X529779Y421698D01*
X529779Y424152D02*
X553721Y424152D01*
X553721Y426606D02*
X529779Y426606D01*
X529779Y429060D02*
X553721Y429060D01*
X598779Y485882D02*
X598779Y504824D01*
X622721Y504824D01*
X622721Y485882D01*
X598779Y485882D01*
X598779Y488336D02*
X622721Y488336D01*
X622721Y490790D02*
X598779Y490790D01*
X598779Y493244D02*
X622721Y493244D01*
X622721Y495698D02*
X598779Y495698D01*
X598779Y498152D02*
X622721Y498152D01*
X622721Y500606D02*
X598779Y500606D01*
X598779Y503060D02*
X622721Y503060D01*
X593221Y368882D02*
X574279Y368882D01*
X574279Y392824D01*
X593221Y392824D01*
X593221Y368882D01*
X593221Y371336D02*
X574279Y371336D01*
X574279Y373790D02*
X593221Y373790D01*
X593221Y376244D02*
X574279Y376244D01*
X574279Y378698D02*
X593221Y378698D01*
X593221Y381152D02*
X574279Y381152D01*
X574279Y383606D02*
X593221Y383606D01*
X593221Y386060D02*
X574279Y386060D01*
X574279Y388514D02*
X593221Y388514D01*
X593221Y390968D02*
X574279Y390968D01*
D11*
X622795Y517808D02*
X622795Y528898D01*
X622795Y517808D02*
X598705Y517808D01*
X598705Y528898D01*
X622795Y528898D01*
X622795Y520120D02*
X598705Y520120D01*
X598705Y522432D02*
X622795Y522432D01*
X622795Y524744D02*
X598705Y524744D01*
X598705Y527056D02*
X622795Y527056D01*
D19*
X576250Y503353D03*
X576250Y433353D03*
D12*
X630514Y321723D02*
X635480Y321723D01*
X630514Y321723D02*
X630514Y326689D01*
X635480Y326689D01*
X635480Y321723D01*
X635480Y324153D02*
X630514Y324153D01*
X630514Y326583D02*
X635480Y326583D01*
X640514Y321723D02*
X645480Y321723D01*
X640514Y321723D02*
X640514Y326689D01*
X645480Y326689D01*
X645480Y321723D01*
X645480Y324153D02*
X640514Y324153D01*
X640514Y326583D02*
X645480Y326583D01*
X635226Y414001D02*
X630260Y414001D01*
X630260Y418967D01*
X635226Y418967D01*
X635226Y414001D01*
X635226Y416431D02*
X630260Y416431D01*
X630260Y418861D02*
X635226Y418861D01*
X640260Y414001D02*
X645226Y414001D01*
X640260Y414001D02*
X640260Y418967D01*
X645226Y418967D01*
X645226Y414001D01*
X645226Y416431D02*
X640260Y416431D01*
X640260Y418861D02*
X645226Y418861D01*
X656127Y418996D02*
X656127Y414030D01*
X651161Y414030D01*
X651161Y418996D01*
X656127Y418996D01*
X656127Y416460D02*
X651161Y416460D01*
X651161Y418890D02*
X656127Y418890D01*
X656127Y424030D02*
X656127Y428996D01*
X656127Y424030D02*
X651161Y424030D01*
X651161Y428996D01*
X656127Y428996D01*
X656127Y426460D02*
X651161Y426460D01*
X651161Y428890D02*
X656127Y428890D01*
X650856Y326863D02*
X650856Y321897D01*
X650856Y326863D02*
X655822Y326863D01*
X655822Y321897D01*
X650856Y321897D01*
X650856Y324327D02*
X655822Y324327D01*
X655822Y326757D02*
X650856Y326757D01*
X650856Y316863D02*
X650856Y311897D01*
X650856Y316863D02*
X655822Y316863D01*
X655822Y311897D01*
X650856Y311897D01*
X650856Y314327D02*
X655822Y314327D01*
X655822Y316757D02*
X650856Y316757D01*
X679892Y404171D02*
X684858Y404171D01*
X679892Y404171D02*
X679892Y409137D01*
X684858Y409137D01*
X684858Y404171D01*
X684858Y406601D02*
X679892Y406601D01*
X679892Y409031D02*
X684858Y409031D01*
X689892Y404171D02*
X694858Y404171D01*
X689892Y404171D02*
X689892Y409137D01*
X694858Y409137D01*
X694858Y404171D01*
X694858Y406601D02*
X689892Y406601D01*
X689892Y409031D02*
X694858Y409031D01*
X625418Y373962D02*
X625418Y368996D01*
X620452Y368996D01*
X620452Y373962D01*
X625418Y373962D01*
X625418Y371426D02*
X620452Y371426D01*
X620452Y373856D02*
X625418Y373856D01*
X625418Y378996D02*
X625418Y383962D01*
X625418Y378996D02*
X620452Y378996D01*
X620452Y383962D01*
X625418Y383962D01*
X625418Y381426D02*
X620452Y381426D01*
X620452Y383856D02*
X625418Y383856D01*
D10*
X462280Y513080D03*
X843280Y513080D03*
D20*
X830580Y358980D03*
D21*
X830580Y393980D03*
X830580Y428980D03*
X830580Y463980D03*
D20*
X769341Y502539D03*
D21*
X734341Y502539D03*
D22*
X745823Y457007D02*
X745823Y449977D01*
X738793Y449977D01*
X738793Y457007D01*
X745823Y457007D01*
X745823Y454246D02*
X738793Y454246D01*
X763363Y457007D02*
X763363Y449977D01*
X756333Y449977D01*
X756333Y457007D01*
X763363Y457007D01*
X763363Y454246D02*
X756333Y454246D01*
D12*
X729787Y445996D02*
X729787Y441030D01*
X724821Y441030D01*
X724821Y445996D01*
X729787Y445996D01*
X729787Y443460D02*
X724821Y443460D01*
X724821Y445890D02*
X729787Y445890D01*
X729787Y451030D02*
X729787Y455996D01*
X729787Y451030D02*
X724821Y451030D01*
X724821Y455996D01*
X729787Y455996D01*
X729787Y453460D02*
X724821Y453460D01*
X724821Y455890D02*
X729787Y455890D01*
D20*
X474980Y463980D03*
D21*
X474980Y428980D03*
X474980Y393980D03*
X474980Y358980D03*
D16*
X698662Y468184D02*
X698662Y475138D01*
X709616Y475138D01*
X709616Y468184D01*
X698662Y468184D01*
X698662Y470626D02*
X709616Y470626D01*
X709616Y473068D02*
X698662Y473068D01*
X698662Y457138D02*
X698662Y450184D01*
X698662Y457138D02*
X709616Y457138D01*
X709616Y450184D01*
X698662Y450184D01*
X698662Y452626D02*
X709616Y452626D01*
X709616Y455068D02*
X698662Y455068D01*
D12*
X614623Y373911D02*
X614623Y368945D01*
X609657Y368945D01*
X609657Y373911D01*
X614623Y373911D01*
X614623Y371375D02*
X609657Y371375D01*
X609657Y373805D02*
X614623Y373805D01*
X614623Y378945D02*
X614623Y383911D01*
X614623Y378945D02*
X609657Y378945D01*
X609657Y383911D01*
X614623Y383911D01*
X614623Y381375D02*
X609657Y381375D01*
X609657Y383805D02*
X614623Y383805D01*
X679943Y321113D02*
X684909Y321113D01*
X679943Y321113D02*
X679943Y326079D01*
X684909Y326079D01*
X684909Y321113D01*
X684909Y323543D02*
X679943Y323543D01*
X679943Y325973D02*
X684909Y325973D01*
X689943Y321113D02*
X694909Y321113D01*
X689943Y321113D02*
X689943Y326079D01*
X694909Y326079D01*
X694909Y321113D01*
X694909Y323543D02*
X689943Y323543D01*
X689943Y325973D02*
X694909Y325973D01*
X684858Y415220D02*
X679892Y415220D01*
X679892Y420186D01*
X684858Y420186D01*
X684858Y415220D01*
X684858Y417650D02*
X679892Y417650D01*
X679892Y420080D02*
X684858Y420080D01*
X689892Y415220D02*
X694858Y415220D01*
X689892Y415220D02*
X689892Y420186D01*
X694858Y420186D01*
X694858Y415220D01*
X694858Y417650D02*
X689892Y417650D01*
X689892Y420080D02*
X694858Y420080D01*
D10*
X25400Y594360D03*
X406400Y594360D03*
D11*
X262145Y818455D02*
X251055Y818455D01*
X262145Y818455D02*
X262145Y799365D01*
X251055Y799365D01*
X251055Y818455D01*
X251055Y801677D02*
X262145Y801677D01*
X262145Y803989D02*
X251055Y803989D01*
X251055Y806301D02*
X262145Y806301D01*
X262145Y808613D02*
X251055Y808613D01*
X251055Y810925D02*
X262145Y810925D01*
X262145Y813237D02*
X251055Y813237D01*
X251055Y815549D02*
X262145Y815549D01*
X262145Y817861D02*
X251055Y817861D01*
X206145Y818455D02*
X195055Y818455D01*
X206145Y818455D02*
X206145Y799365D01*
X195055Y799365D01*
X195055Y818455D01*
X195055Y801677D02*
X206145Y801677D01*
X206145Y803989D02*
X195055Y803989D01*
X195055Y806301D02*
X206145Y806301D01*
X206145Y808613D02*
X195055Y808613D01*
X195055Y810925D02*
X206145Y810925D01*
X206145Y813237D02*
X195055Y813237D01*
X195055Y815549D02*
X206145Y815549D01*
X206145Y817861D02*
X195055Y817861D01*
D12*
X241117Y778393D02*
X246083Y778393D01*
X246083Y765927D01*
X241117Y765927D01*
X241117Y778393D01*
X241117Y768357D02*
X246083Y768357D01*
X246083Y770787D02*
X241117Y770787D01*
X241117Y773217D02*
X246083Y773217D01*
X246083Y775647D02*
X241117Y775647D01*
X241117Y778077D02*
X246083Y778077D01*
X236083Y778393D02*
X231117Y778393D01*
X236083Y778393D02*
X236083Y765927D01*
X231117Y765927D01*
X231117Y778393D01*
X231117Y768357D02*
X236083Y768357D01*
X236083Y770787D02*
X231117Y770787D01*
X231117Y773217D02*
X236083Y773217D01*
X236083Y775647D02*
X231117Y775647D01*
X231117Y778077D02*
X236083Y778077D01*
X226083Y778393D02*
X221117Y778393D01*
X226083Y778393D02*
X226083Y765927D01*
X221117Y765927D01*
X221117Y778393D01*
X221117Y768357D02*
X226083Y768357D01*
X226083Y770787D02*
X221117Y770787D01*
X221117Y773217D02*
X226083Y773217D01*
X226083Y775647D02*
X221117Y775647D01*
X221117Y778077D02*
X226083Y778077D01*
X216083Y778393D02*
X211117Y778393D01*
X216083Y778393D02*
X216083Y765927D01*
X211117Y765927D01*
X211117Y778393D01*
X211117Y768357D02*
X216083Y768357D01*
X216083Y770787D02*
X211117Y770787D01*
X211117Y773217D02*
X216083Y773217D01*
X216083Y775647D02*
X211117Y775647D01*
X211117Y778077D02*
X216083Y778077D01*
X202403Y760394D02*
X197437Y760394D01*
X202403Y760394D02*
X202403Y755428D01*
X197437Y755428D01*
X197437Y760394D01*
X197437Y757858D02*
X202403Y757858D01*
X202403Y760288D02*
X197437Y760288D01*
X192403Y760394D02*
X187437Y760394D01*
X192403Y760394D02*
X192403Y755428D01*
X187437Y755428D01*
X187437Y760394D01*
X187437Y757858D02*
X192403Y757858D01*
X192403Y760288D02*
X187437Y760288D01*
X197437Y749853D02*
X202403Y749853D01*
X202403Y744887D01*
X197437Y744887D01*
X197437Y749853D01*
X197437Y747317D02*
X202403Y747317D01*
X202403Y749747D02*
X197437Y749747D01*
X192403Y749853D02*
X187437Y749853D01*
X192403Y749853D02*
X192403Y744887D01*
X187437Y744887D01*
X187437Y749853D01*
X187437Y747317D02*
X192403Y747317D01*
X192403Y749747D02*
X187437Y749747D01*
D13*
X50800Y581660D03*
X381000Y810260D03*
D12*
X248029Y616185D02*
X243063Y616185D01*
X243063Y621151D01*
X248029Y621151D01*
X248029Y616185D01*
X248029Y618615D02*
X243063Y618615D01*
X243063Y621045D02*
X248029Y621045D01*
X253063Y616185D02*
X258029Y616185D01*
X253063Y616185D02*
X253063Y621151D01*
X258029Y621151D01*
X258029Y616185D01*
X258029Y618615D02*
X253063Y618615D01*
X253063Y621045D02*
X258029Y621045D01*
X209497Y617150D02*
X204531Y617150D01*
X204531Y622116D01*
X209497Y622116D01*
X209497Y617150D01*
X209497Y619580D02*
X204531Y619580D01*
X204531Y622010D02*
X209497Y622010D01*
X214531Y617150D02*
X219497Y617150D01*
X214531Y617150D02*
X214531Y622116D01*
X219497Y622116D01*
X219497Y617150D01*
X219497Y619580D02*
X214531Y619580D01*
X214531Y622010D02*
X219497Y622010D01*
X230016Y611376D02*
X230016Y606410D01*
X225050Y606410D01*
X225050Y611376D01*
X230016Y611376D01*
X230016Y608840D02*
X225050Y608840D01*
X225050Y611270D02*
X230016Y611270D01*
X230016Y616410D02*
X230016Y621376D01*
X230016Y616410D02*
X225050Y616410D01*
X225050Y621376D01*
X230016Y621376D01*
X230016Y618840D02*
X225050Y618840D01*
X225050Y621270D02*
X230016Y621270D01*
X209344Y685400D02*
X204378Y685400D01*
X204378Y690366D01*
X209344Y690366D01*
X209344Y685400D01*
X209344Y687830D02*
X204378Y687830D01*
X204378Y690260D02*
X209344Y690260D01*
X214378Y685400D02*
X219344Y685400D01*
X214378Y685400D02*
X214378Y690366D01*
X219344Y690366D01*
X219344Y685400D01*
X219344Y687830D02*
X214378Y687830D01*
X214378Y690260D02*
X219344Y690260D01*
X227895Y698579D02*
X227895Y703545D01*
X232861Y703545D01*
X232861Y698579D01*
X227895Y698579D01*
X227895Y701009D02*
X232861Y701009D01*
X232861Y703439D02*
X227895Y703439D01*
X227895Y693545D02*
X227895Y688579D01*
X227895Y693545D02*
X232861Y693545D01*
X232861Y688579D01*
X227895Y688579D01*
X227895Y691009D02*
X232861Y691009D01*
X232861Y693439D02*
X227895Y693439D01*
D14*
X225483Y638551D02*
X225483Y630851D01*
X230483Y630851D02*
X230483Y638551D01*
X235483Y638551D02*
X235483Y630851D01*
X240483Y630851D02*
X240483Y638551D01*
X245483Y638551D02*
X245483Y630851D01*
X252633Y645701D02*
X260333Y645701D01*
X260333Y650701D02*
X252633Y650701D01*
X252633Y655701D02*
X260333Y655701D01*
X260333Y660701D02*
X252633Y660701D01*
X252633Y665701D02*
X260333Y665701D01*
X245483Y672851D02*
X245483Y680551D01*
X240483Y680551D02*
X240483Y672851D01*
X235483Y672851D02*
X235483Y680551D01*
X230483Y680551D02*
X230483Y672851D01*
X225483Y672851D02*
X225483Y680551D01*
X218333Y665701D02*
X210633Y665701D01*
X210633Y660701D02*
X218333Y660701D01*
X218333Y655701D02*
X210633Y655701D01*
X210633Y650701D02*
X218333Y650701D01*
X218333Y645701D02*
X210633Y645701D01*
D15*
X222647Y642865D02*
X248319Y642865D01*
X222647Y642865D02*
X222647Y668537D01*
X248319Y668537D01*
X248319Y642865D01*
X248319Y645574D02*
X222647Y645574D01*
X222647Y648283D02*
X248319Y648283D01*
X248319Y650992D02*
X222647Y650992D01*
X222647Y653701D02*
X248319Y653701D01*
X248319Y656410D02*
X222647Y656410D01*
X222647Y659119D02*
X248319Y659119D01*
X248319Y661828D02*
X222647Y661828D01*
X222647Y664537D02*
X248319Y664537D01*
X248319Y667246D02*
X222647Y667246D01*
D16*
X273806Y618474D02*
X280760Y618474D01*
X273806Y618474D02*
X273806Y629428D01*
X280760Y629428D01*
X280760Y618474D01*
X280760Y620916D02*
X273806Y620916D01*
X273806Y623358D02*
X280760Y623358D01*
X280760Y625800D02*
X273806Y625800D01*
X273806Y628242D02*
X280760Y628242D01*
X291806Y618474D02*
X298760Y618474D01*
X291806Y618474D02*
X291806Y629428D01*
X298760Y629428D01*
X298760Y618474D01*
X298760Y620916D02*
X291806Y620916D01*
X291806Y623358D02*
X298760Y623358D01*
X298760Y625800D02*
X291806Y625800D01*
X291806Y628242D02*
X298760Y628242D01*
X280760Y637524D02*
X273806Y637524D01*
X273806Y648478D01*
X280760Y648478D01*
X280760Y637524D01*
X280760Y639966D02*
X273806Y639966D01*
X273806Y642408D02*
X280760Y642408D01*
X280760Y644850D02*
X273806Y644850D01*
X273806Y647292D02*
X280760Y647292D01*
X291806Y637524D02*
X298760Y637524D01*
X291806Y637524D02*
X291806Y648478D01*
X298760Y648478D01*
X298760Y637524D01*
X298760Y639966D02*
X291806Y639966D01*
X291806Y642408D02*
X298760Y642408D01*
X298760Y644850D02*
X291806Y644850D01*
X291806Y647292D02*
X298760Y647292D01*
X280760Y675624D02*
X273806Y675624D01*
X273806Y686578D01*
X280760Y686578D01*
X280760Y675624D01*
X280760Y678066D02*
X273806Y678066D01*
X273806Y680508D02*
X280760Y680508D01*
X280760Y682950D02*
X273806Y682950D01*
X273806Y685392D02*
X280760Y685392D01*
X291806Y675624D02*
X298760Y675624D01*
X291806Y675624D02*
X291806Y686578D01*
X298760Y686578D01*
X298760Y675624D01*
X298760Y678066D02*
X291806Y678066D01*
X291806Y680508D02*
X298760Y680508D01*
X298760Y682950D02*
X291806Y682950D01*
X291806Y685392D02*
X298760Y685392D01*
X280760Y656574D02*
X273806Y656574D01*
X273806Y667528D01*
X280760Y667528D01*
X280760Y656574D01*
X280760Y659016D02*
X273806Y659016D01*
X273806Y661458D02*
X280760Y661458D01*
X280760Y663900D02*
X273806Y663900D01*
X273806Y666342D02*
X280760Y666342D01*
X291806Y656574D02*
X298760Y656574D01*
X291806Y656574D02*
X291806Y667528D01*
X298760Y667528D01*
X298760Y656574D01*
X298760Y659016D02*
X291806Y659016D01*
X291806Y661458D02*
X298760Y661458D01*
X298760Y663900D02*
X291806Y663900D01*
X291806Y666342D02*
X298760Y666342D01*
D17*
X307116Y621343D02*
X307116Y613825D01*
X307116Y621343D02*
X315134Y621343D01*
X315134Y613825D01*
X307116Y613825D01*
X307116Y616206D02*
X315134Y616206D01*
X315134Y618587D02*
X307116Y618587D01*
X307116Y620968D02*
X315134Y620968D01*
X307116Y609743D02*
X307116Y602225D01*
X307116Y609743D02*
X315134Y609743D01*
X315134Y602225D01*
X307116Y602225D01*
X307116Y604606D02*
X315134Y604606D01*
X315134Y606987D02*
X307116Y606987D01*
X307116Y609368D02*
X315134Y609368D01*
X307166Y640648D02*
X307166Y648166D01*
X315184Y648166D01*
X315184Y640648D01*
X307166Y640648D01*
X307166Y643029D02*
X315184Y643029D01*
X315184Y645410D02*
X307166Y645410D01*
X307166Y647791D02*
X315184Y647791D01*
X307166Y636566D02*
X307166Y629048D01*
X307166Y636566D02*
X315184Y636566D01*
X315184Y629048D01*
X307166Y629048D01*
X307166Y631429D02*
X315184Y631429D01*
X315184Y633810D02*
X307166Y633810D01*
X307166Y636191D02*
X315184Y636191D01*
X315515Y682566D02*
X315515Y690084D01*
X315515Y682566D02*
X307497Y682566D01*
X307497Y690084D01*
X315515Y690084D01*
X315515Y684947D02*
X307497Y684947D01*
X307497Y687328D02*
X315515Y687328D01*
X315515Y689709D02*
X307497Y689709D01*
X315515Y694166D02*
X315515Y701684D01*
X315515Y694166D02*
X307497Y694166D01*
X307497Y701684D01*
X315515Y701684D01*
X315515Y696547D02*
X307497Y696547D01*
X307497Y698928D02*
X315515Y698928D01*
X315515Y701309D02*
X307497Y701309D01*
X315489Y663947D02*
X315489Y656429D01*
X307471Y656429D01*
X307471Y663947D01*
X315489Y663947D01*
X315489Y658810D02*
X307471Y658810D01*
X307471Y661191D02*
X315489Y661191D01*
X315489Y663572D02*
X307471Y663572D01*
X315489Y668029D02*
X315489Y675547D01*
X315489Y668029D02*
X307471Y668029D01*
X307471Y675547D01*
X315489Y675547D01*
X315489Y670410D02*
X307471Y670410D01*
X307471Y672791D02*
X315489Y672791D01*
X315489Y675172D02*
X307471Y675172D01*
D18*
X92899Y789362D02*
X92899Y808304D01*
X116841Y808304D01*
X116841Y789362D01*
X92899Y789362D01*
X92899Y791816D02*
X116841Y791816D01*
X116841Y794270D02*
X92899Y794270D01*
X92899Y796724D02*
X116841Y796724D01*
X116841Y799178D02*
X92899Y799178D01*
X92899Y801632D02*
X116841Y801632D01*
X116841Y804086D02*
X92899Y804086D01*
X92899Y806540D02*
X116841Y806540D01*
X92899Y715304D02*
X92899Y696362D01*
X92899Y715304D02*
X116841Y715304D01*
X116841Y696362D01*
X92899Y696362D01*
X92899Y698816D02*
X116841Y698816D01*
X116841Y701270D02*
X92899Y701270D01*
X92899Y703724D02*
X116841Y703724D01*
X116841Y706178D02*
X92899Y706178D01*
X92899Y708632D02*
X116841Y708632D01*
X116841Y711086D02*
X92899Y711086D01*
X92899Y713540D02*
X116841Y713540D01*
X161899Y770362D02*
X161899Y789304D01*
X185841Y789304D01*
X185841Y770362D01*
X161899Y770362D01*
X161899Y772816D02*
X185841Y772816D01*
X185841Y775270D02*
X161899Y775270D01*
X161899Y777724D02*
X185841Y777724D01*
X185841Y780178D02*
X161899Y780178D01*
X161899Y782632D02*
X185841Y782632D01*
X185841Y785086D02*
X161899Y785086D01*
X161899Y787540D02*
X185841Y787540D01*
X156341Y653362D02*
X137399Y653362D01*
X137399Y677304D01*
X156341Y677304D01*
X156341Y653362D01*
X156341Y655816D02*
X137399Y655816D01*
X137399Y658270D02*
X156341Y658270D01*
X156341Y660724D02*
X137399Y660724D01*
X137399Y663178D02*
X156341Y663178D01*
X156341Y665632D02*
X137399Y665632D01*
X137399Y668086D02*
X156341Y668086D01*
X156341Y670540D02*
X137399Y670540D01*
X137399Y672994D02*
X156341Y672994D01*
X156341Y675448D02*
X137399Y675448D01*
D11*
X185915Y802288D02*
X185915Y813378D01*
X185915Y802288D02*
X161825Y802288D01*
X161825Y813378D01*
X185915Y813378D01*
X185915Y804600D02*
X161825Y804600D01*
X161825Y806912D02*
X185915Y806912D01*
X185915Y809224D02*
X161825Y809224D01*
X161825Y811536D02*
X185915Y811536D01*
D19*
X139370Y787833D03*
X139370Y717833D03*
D12*
X193634Y606203D02*
X198600Y606203D01*
X193634Y606203D02*
X193634Y611169D01*
X198600Y611169D01*
X198600Y606203D01*
X198600Y608633D02*
X193634Y608633D01*
X193634Y611063D02*
X198600Y611063D01*
X203634Y606203D02*
X208600Y606203D01*
X203634Y606203D02*
X203634Y611169D01*
X208600Y611169D01*
X208600Y606203D01*
X208600Y608633D02*
X203634Y608633D01*
X203634Y611063D02*
X208600Y611063D01*
X198346Y698481D02*
X193380Y698481D01*
X193380Y703447D01*
X198346Y703447D01*
X198346Y698481D01*
X198346Y700911D02*
X193380Y700911D01*
X193380Y703341D02*
X198346Y703341D01*
X203380Y698481D02*
X208346Y698481D01*
X203380Y698481D02*
X203380Y703447D01*
X208346Y703447D01*
X208346Y698481D01*
X208346Y700911D02*
X203380Y700911D01*
X203380Y703341D02*
X208346Y703341D01*
X219247Y703476D02*
X219247Y698510D01*
X214281Y698510D01*
X214281Y703476D01*
X219247Y703476D01*
X219247Y700940D02*
X214281Y700940D01*
X214281Y703370D02*
X219247Y703370D01*
X219247Y708510D02*
X219247Y713476D01*
X219247Y708510D02*
X214281Y708510D01*
X214281Y713476D01*
X219247Y713476D01*
X219247Y710940D02*
X214281Y710940D01*
X214281Y713370D02*
X219247Y713370D01*
X213976Y611343D02*
X213976Y606377D01*
X213976Y611343D02*
X218942Y611343D01*
X218942Y606377D01*
X213976Y606377D01*
X213976Y608807D02*
X218942Y608807D01*
X218942Y611237D02*
X213976Y611237D01*
X213976Y601343D02*
X213976Y596377D01*
X213976Y601343D02*
X218942Y601343D01*
X218942Y596377D01*
X213976Y596377D01*
X213976Y598807D02*
X218942Y598807D01*
X218942Y601237D02*
X213976Y601237D01*
X243012Y688651D02*
X247978Y688651D01*
X243012Y688651D02*
X243012Y693617D01*
X247978Y693617D01*
X247978Y688651D01*
X247978Y691081D02*
X243012Y691081D01*
X243012Y693511D02*
X247978Y693511D01*
X253012Y688651D02*
X257978Y688651D01*
X253012Y688651D02*
X253012Y693617D01*
X257978Y693617D01*
X257978Y688651D01*
X257978Y691081D02*
X253012Y691081D01*
X253012Y693511D02*
X257978Y693511D01*
X188538Y658442D02*
X188538Y653476D01*
X183572Y653476D01*
X183572Y658442D01*
X188538Y658442D01*
X188538Y655906D02*
X183572Y655906D01*
X183572Y658336D02*
X188538Y658336D01*
X188538Y663476D02*
X188538Y668442D01*
X188538Y663476D02*
X183572Y663476D01*
X183572Y668442D01*
X188538Y668442D01*
X188538Y665906D02*
X183572Y665906D01*
X183572Y668336D02*
X188538Y668336D01*
D10*
X25400Y797560D03*
X406400Y797560D03*
D20*
X393700Y643460D03*
D21*
X393700Y678460D03*
X393700Y713460D03*
X393700Y748460D03*
D20*
X332461Y787019D03*
D21*
X297461Y787019D03*
D22*
X308943Y741487D02*
X308943Y734457D01*
X301913Y734457D01*
X301913Y741487D01*
X308943Y741487D01*
X308943Y738726D02*
X301913Y738726D01*
X326483Y741487D02*
X326483Y734457D01*
X319453Y734457D01*
X319453Y741487D01*
X326483Y741487D01*
X326483Y738726D02*
X319453Y738726D01*
D12*
X292907Y730476D02*
X292907Y725510D01*
X287941Y725510D01*
X287941Y730476D01*
X292907Y730476D01*
X292907Y727940D02*
X287941Y727940D01*
X287941Y730370D02*
X292907Y730370D01*
X292907Y735510D02*
X292907Y740476D01*
X292907Y735510D02*
X287941Y735510D01*
X287941Y740476D01*
X292907Y740476D01*
X292907Y737940D02*
X287941Y737940D01*
X287941Y740370D02*
X292907Y740370D01*
D20*
X38100Y748460D03*
D21*
X38100Y713460D03*
X38100Y678460D03*
X38100Y643460D03*
D16*
X261782Y752664D02*
X261782Y759618D01*
X272736Y759618D01*
X272736Y752664D01*
X261782Y752664D01*
X261782Y755106D02*
X272736Y755106D01*
X272736Y757548D02*
X261782Y757548D01*
X261782Y741618D02*
X261782Y734664D01*
X261782Y741618D02*
X272736Y741618D01*
X272736Y734664D01*
X261782Y734664D01*
X261782Y737106D02*
X272736Y737106D01*
X272736Y739548D02*
X261782Y739548D01*
D12*
X177743Y658391D02*
X177743Y653425D01*
X172777Y653425D01*
X172777Y658391D01*
X177743Y658391D01*
X177743Y655855D02*
X172777Y655855D01*
X172777Y658285D02*
X177743Y658285D01*
X177743Y663425D02*
X177743Y668391D01*
X177743Y663425D02*
X172777Y663425D01*
X172777Y668391D01*
X177743Y668391D01*
X177743Y665855D02*
X172777Y665855D01*
X172777Y668285D02*
X177743Y668285D01*
X243063Y605593D02*
X248029Y605593D01*
X243063Y605593D02*
X243063Y610559D01*
X248029Y610559D01*
X248029Y605593D01*
X248029Y608023D02*
X243063Y608023D01*
X243063Y610453D02*
X248029Y610453D01*
X253063Y605593D02*
X258029Y605593D01*
X253063Y605593D02*
X253063Y610559D01*
X258029Y610559D01*
X258029Y605593D01*
X258029Y608023D02*
X253063Y608023D01*
X253063Y610453D02*
X258029Y610453D01*
X247978Y699700D02*
X243012Y699700D01*
X243012Y704666D01*
X247978Y704666D01*
X247978Y699700D01*
X247978Y702130D02*
X243012Y702130D01*
X243012Y704560D02*
X247978Y704560D01*
X253012Y699700D02*
X257978Y699700D01*
X253012Y699700D02*
X253012Y704666D01*
X257978Y704666D01*
X257978Y699700D01*
X257978Y702130D02*
X253012Y702130D01*
X253012Y704560D02*
X257978Y704560D01*
D10*
X462280Y594360D03*
X843280Y594360D03*
D11*
X699025Y818455D02*
X687935Y818455D01*
X699025Y818455D02*
X699025Y799365D01*
X687935Y799365D01*
X687935Y818455D01*
X687935Y801677D02*
X699025Y801677D01*
X699025Y803989D02*
X687935Y803989D01*
X687935Y806301D02*
X699025Y806301D01*
X699025Y808613D02*
X687935Y808613D01*
X687935Y810925D02*
X699025Y810925D01*
X699025Y813237D02*
X687935Y813237D01*
X687935Y815549D02*
X699025Y815549D01*
X699025Y817861D02*
X687935Y817861D01*
X643025Y818455D02*
X631935Y818455D01*
X643025Y818455D02*
X643025Y799365D01*
X631935Y799365D01*
X631935Y818455D01*
X631935Y801677D02*
X643025Y801677D01*
X643025Y803989D02*
X631935Y803989D01*
X631935Y806301D02*
X643025Y806301D01*
X643025Y808613D02*
X631935Y808613D01*
X631935Y810925D02*
X643025Y810925D01*
X643025Y813237D02*
X631935Y813237D01*
X631935Y815549D02*
X643025Y815549D01*
X643025Y817861D02*
X631935Y817861D01*
D12*
X677997Y778393D02*
X682963Y778393D01*
X682963Y765927D01*
X677997Y765927D01*
X677997Y778393D01*
X677997Y768357D02*
X682963Y768357D01*
X682963Y770787D02*
X677997Y770787D01*
X677997Y773217D02*
X682963Y773217D01*
X682963Y775647D02*
X677997Y775647D01*
X677997Y778077D02*
X682963Y778077D01*
X672963Y778393D02*
X667997Y778393D01*
X672963Y778393D02*
X672963Y765927D01*
X667997Y765927D01*
X667997Y778393D01*
X667997Y768357D02*
X672963Y768357D01*
X672963Y770787D02*
X667997Y770787D01*
X667997Y773217D02*
X672963Y773217D01*
X672963Y775647D02*
X667997Y775647D01*
X667997Y778077D02*
X672963Y778077D01*
X662963Y778393D02*
X657997Y778393D01*
X662963Y778393D02*
X662963Y765927D01*
X657997Y765927D01*
X657997Y778393D01*
X657997Y768357D02*
X662963Y768357D01*
X662963Y770787D02*
X657997Y770787D01*
X657997Y773217D02*
X662963Y773217D01*
X662963Y775647D02*
X657997Y775647D01*
X657997Y778077D02*
X662963Y778077D01*
X652963Y778393D02*
X647997Y778393D01*
X652963Y778393D02*
X652963Y765927D01*
X647997Y765927D01*
X647997Y778393D01*
X647997Y768357D02*
X652963Y768357D01*
X652963Y770787D02*
X647997Y770787D01*
X647997Y773217D02*
X652963Y773217D01*
X652963Y775647D02*
X647997Y775647D01*
X647997Y778077D02*
X652963Y778077D01*
X639283Y760394D02*
X634317Y760394D01*
X639283Y760394D02*
X639283Y755428D01*
X634317Y755428D01*
X634317Y760394D01*
X634317Y757858D02*
X639283Y757858D01*
X639283Y760288D02*
X634317Y760288D01*
X629283Y760394D02*
X624317Y760394D01*
X629283Y760394D02*
X629283Y755428D01*
X624317Y755428D01*
X624317Y760394D01*
X624317Y757858D02*
X629283Y757858D01*
X629283Y760288D02*
X624317Y760288D01*
X634317Y749853D02*
X639283Y749853D01*
X639283Y744887D01*
X634317Y744887D01*
X634317Y749853D01*
X634317Y747317D02*
X639283Y747317D01*
X639283Y749747D02*
X634317Y749747D01*
X629283Y749853D02*
X624317Y749853D01*
X629283Y749853D02*
X629283Y744887D01*
X624317Y744887D01*
X624317Y749853D01*
X624317Y747317D02*
X629283Y747317D01*
X629283Y749747D02*
X624317Y749747D01*
D13*
X487680Y581660D03*
X817880Y810260D03*
D12*
X684909Y616185D02*
X679943Y616185D01*
X679943Y621151D01*
X684909Y621151D01*
X684909Y616185D01*
X684909Y618615D02*
X679943Y618615D01*
X679943Y621045D02*
X684909Y621045D01*
X689943Y616185D02*
X694909Y616185D01*
X689943Y616185D02*
X689943Y621151D01*
X694909Y621151D01*
X694909Y616185D01*
X694909Y618615D02*
X689943Y618615D01*
X689943Y621045D02*
X694909Y621045D01*
X646377Y617150D02*
X641411Y617150D01*
X641411Y622116D01*
X646377Y622116D01*
X646377Y617150D01*
X646377Y619580D02*
X641411Y619580D01*
X641411Y622010D02*
X646377Y622010D01*
X651411Y617150D02*
X656377Y617150D01*
X651411Y617150D02*
X651411Y622116D01*
X656377Y622116D01*
X656377Y617150D01*
X656377Y619580D02*
X651411Y619580D01*
X651411Y622010D02*
X656377Y622010D01*
X666896Y611376D02*
X666896Y606410D01*
X661930Y606410D01*
X661930Y611376D01*
X666896Y611376D01*
X666896Y608840D02*
X661930Y608840D01*
X661930Y611270D02*
X666896Y611270D01*
X666896Y616410D02*
X666896Y621376D01*
X666896Y616410D02*
X661930Y616410D01*
X661930Y621376D01*
X666896Y621376D01*
X666896Y618840D02*
X661930Y618840D01*
X661930Y621270D02*
X666896Y621270D01*
X646224Y685400D02*
X641258Y685400D01*
X641258Y690366D01*
X646224Y690366D01*
X646224Y685400D01*
X646224Y687830D02*
X641258Y687830D01*
X641258Y690260D02*
X646224Y690260D01*
X651258Y685400D02*
X656224Y685400D01*
X651258Y685400D02*
X651258Y690366D01*
X656224Y690366D01*
X656224Y685400D01*
X656224Y687830D02*
X651258Y687830D01*
X651258Y690260D02*
X656224Y690260D01*
X664775Y698579D02*
X664775Y703545D01*
X669741Y703545D01*
X669741Y698579D01*
X664775Y698579D01*
X664775Y701009D02*
X669741Y701009D01*
X669741Y703439D02*
X664775Y703439D01*
X664775Y693545D02*
X664775Y688579D01*
X664775Y693545D02*
X669741Y693545D01*
X669741Y688579D01*
X664775Y688579D01*
X664775Y691009D02*
X669741Y691009D01*
X669741Y693439D02*
X664775Y693439D01*
D14*
X662363Y638551D02*
X662363Y630851D01*
X667363Y630851D02*
X667363Y638551D01*
X672363Y638551D02*
X672363Y630851D01*
X677363Y630851D02*
X677363Y638551D01*
X682363Y638551D02*
X682363Y630851D01*
X689513Y645701D02*
X697213Y645701D01*
X697213Y650701D02*
X689513Y650701D01*
X689513Y655701D02*
X697213Y655701D01*
X697213Y660701D02*
X689513Y660701D01*
X689513Y665701D02*
X697213Y665701D01*
X682363Y672851D02*
X682363Y680551D01*
X677363Y680551D02*
X677363Y672851D01*
X672363Y672851D02*
X672363Y680551D01*
X667363Y680551D02*
X667363Y672851D01*
X662363Y672851D02*
X662363Y680551D01*
X655213Y665701D02*
X647513Y665701D01*
X647513Y660701D02*
X655213Y660701D01*
X655213Y655701D02*
X647513Y655701D01*
X647513Y650701D02*
X655213Y650701D01*
X655213Y645701D02*
X647513Y645701D01*
D15*
X659527Y642865D02*
X685199Y642865D01*
X659527Y642865D02*
X659527Y668537D01*
X685199Y668537D01*
X685199Y642865D01*
X685199Y645574D02*
X659527Y645574D01*
X659527Y648283D02*
X685199Y648283D01*
X685199Y650992D02*
X659527Y650992D01*
X659527Y653701D02*
X685199Y653701D01*
X685199Y656410D02*
X659527Y656410D01*
X659527Y659119D02*
X685199Y659119D01*
X685199Y661828D02*
X659527Y661828D01*
X659527Y664537D02*
X685199Y664537D01*
X685199Y667246D02*
X659527Y667246D01*
D16*
X710686Y618474D02*
X717640Y618474D01*
X710686Y618474D02*
X710686Y629428D01*
X717640Y629428D01*
X717640Y618474D01*
X717640Y620916D02*
X710686Y620916D01*
X710686Y623358D02*
X717640Y623358D01*
X717640Y625800D02*
X710686Y625800D01*
X710686Y628242D02*
X717640Y628242D01*
X728686Y618474D02*
X735640Y618474D01*
X728686Y618474D02*
X728686Y629428D01*
X735640Y629428D01*
X735640Y618474D01*
X735640Y620916D02*
X728686Y620916D01*
X728686Y623358D02*
X735640Y623358D01*
X735640Y625800D02*
X728686Y625800D01*
X728686Y628242D02*
X735640Y628242D01*
X717640Y637524D02*
X710686Y637524D01*
X710686Y648478D01*
X717640Y648478D01*
X717640Y637524D01*
X717640Y639966D02*
X710686Y639966D01*
X710686Y642408D02*
X717640Y642408D01*
X717640Y644850D02*
X710686Y644850D01*
X710686Y647292D02*
X717640Y647292D01*
X728686Y637524D02*
X735640Y637524D01*
X728686Y637524D02*
X728686Y648478D01*
X735640Y648478D01*
X735640Y637524D01*
X735640Y639966D02*
X728686Y639966D01*
X728686Y642408D02*
X735640Y642408D01*
X735640Y644850D02*
X728686Y644850D01*
X728686Y647292D02*
X735640Y647292D01*
X717640Y675624D02*
X710686Y675624D01*
X710686Y686578D01*
X717640Y686578D01*
X717640Y675624D01*
X717640Y678066D02*
X710686Y678066D01*
X710686Y680508D02*
X717640Y680508D01*
X717640Y682950D02*
X710686Y682950D01*
X710686Y685392D02*
X717640Y685392D01*
X728686Y675624D02*
X735640Y675624D01*
X728686Y675624D02*
X728686Y686578D01*
X735640Y686578D01*
X735640Y675624D01*
X735640Y678066D02*
X728686Y678066D01*
X728686Y680508D02*
X735640Y680508D01*
X735640Y682950D02*
X728686Y682950D01*
X728686Y685392D02*
X735640Y685392D01*
X717640Y656574D02*
X710686Y656574D01*
X710686Y667528D01*
X717640Y667528D01*
X717640Y656574D01*
X717640Y659016D02*
X710686Y659016D01*
X710686Y661458D02*
X717640Y661458D01*
X717640Y663900D02*
X710686Y663900D01*
X710686Y666342D02*
X717640Y666342D01*
X728686Y656574D02*
X735640Y656574D01*
X728686Y656574D02*
X728686Y667528D01*
X735640Y667528D01*
X735640Y656574D01*
X735640Y659016D02*
X728686Y659016D01*
X728686Y661458D02*
X735640Y661458D01*
X735640Y663900D02*
X728686Y663900D01*
X728686Y666342D02*
X735640Y666342D01*
D17*
X743996Y621343D02*
X743996Y613825D01*
X743996Y621343D02*
X752014Y621343D01*
X752014Y613825D01*
X743996Y613825D01*
X743996Y616206D02*
X752014Y616206D01*
X752014Y618587D02*
X743996Y618587D01*
X743996Y620968D02*
X752014Y620968D01*
X743996Y609743D02*
X743996Y602225D01*
X743996Y609743D02*
X752014Y609743D01*
X752014Y602225D01*
X743996Y602225D01*
X743996Y604606D02*
X752014Y604606D01*
X752014Y606987D02*
X743996Y606987D01*
X743996Y609368D02*
X752014Y609368D01*
X744046Y640648D02*
X744046Y648166D01*
X752064Y648166D01*
X752064Y640648D01*
X744046Y640648D01*
X744046Y643029D02*
X752064Y643029D01*
X752064Y645410D02*
X744046Y645410D01*
X744046Y647791D02*
X752064Y647791D01*
X744046Y636566D02*
X744046Y629048D01*
X744046Y636566D02*
X752064Y636566D01*
X752064Y629048D01*
X744046Y629048D01*
X744046Y631429D02*
X752064Y631429D01*
X752064Y633810D02*
X744046Y633810D01*
X744046Y636191D02*
X752064Y636191D01*
X752395Y682566D02*
X752395Y690084D01*
X752395Y682566D02*
X744377Y682566D01*
X744377Y690084D01*
X752395Y690084D01*
X752395Y684947D02*
X744377Y684947D01*
X744377Y687328D02*
X752395Y687328D01*
X752395Y689709D02*
X744377Y689709D01*
X752395Y694166D02*
X752395Y701684D01*
X752395Y694166D02*
X744377Y694166D01*
X744377Y701684D01*
X752395Y701684D01*
X752395Y696547D02*
X744377Y696547D01*
X744377Y698928D02*
X752395Y698928D01*
X752395Y701309D02*
X744377Y701309D01*
X752369Y663947D02*
X752369Y656429D01*
X744351Y656429D01*
X744351Y663947D01*
X752369Y663947D01*
X752369Y658810D02*
X744351Y658810D01*
X744351Y661191D02*
X752369Y661191D01*
X752369Y663572D02*
X744351Y663572D01*
X752369Y668029D02*
X752369Y675547D01*
X752369Y668029D02*
X744351Y668029D01*
X744351Y675547D01*
X752369Y675547D01*
X752369Y670410D02*
X744351Y670410D01*
X744351Y672791D02*
X752369Y672791D01*
X752369Y675172D02*
X744351Y675172D01*
D18*
X529779Y789362D02*
X529779Y808304D01*
X553721Y808304D01*
X553721Y789362D01*
X529779Y789362D01*
X529779Y791816D02*
X553721Y791816D01*
X553721Y794270D02*
X529779Y794270D01*
X529779Y796724D02*
X553721Y796724D01*
X553721Y799178D02*
X529779Y799178D01*
X529779Y801632D02*
X553721Y801632D01*
X553721Y804086D02*
X529779Y804086D01*
X529779Y806540D02*
X553721Y806540D01*
X529779Y715304D02*
X529779Y696362D01*
X529779Y715304D02*
X553721Y715304D01*
X553721Y696362D01*
X529779Y696362D01*
X529779Y698816D02*
X553721Y698816D01*
X553721Y701270D02*
X529779Y701270D01*
X529779Y703724D02*
X553721Y703724D01*
X553721Y706178D02*
X529779Y706178D01*
X529779Y708632D02*
X553721Y708632D01*
X553721Y711086D02*
X529779Y711086D01*
X529779Y713540D02*
X553721Y713540D01*
X598779Y770362D02*
X598779Y789304D01*
X622721Y789304D01*
X622721Y770362D01*
X598779Y770362D01*
X598779Y772816D02*
X622721Y772816D01*
X622721Y775270D02*
X598779Y775270D01*
X598779Y777724D02*
X622721Y777724D01*
X622721Y780178D02*
X598779Y780178D01*
X598779Y782632D02*
X622721Y782632D01*
X622721Y785086D02*
X598779Y785086D01*
X598779Y787540D02*
X622721Y787540D01*
X593221Y653362D02*
X574279Y653362D01*
X574279Y677304D01*
X593221Y677304D01*
X593221Y653362D01*
X593221Y655816D02*
X574279Y655816D01*
X574279Y658270D02*
X593221Y658270D01*
X593221Y660724D02*
X574279Y660724D01*
X574279Y663178D02*
X593221Y663178D01*
X593221Y665632D02*
X574279Y665632D01*
X574279Y668086D02*
X593221Y668086D01*
X593221Y670540D02*
X574279Y670540D01*
X574279Y672994D02*
X593221Y672994D01*
X593221Y675448D02*
X574279Y675448D01*
D11*
X622795Y802288D02*
X622795Y813378D01*
X622795Y802288D02*
X598705Y802288D01*
X598705Y813378D01*
X622795Y813378D01*
X622795Y804600D02*
X598705Y804600D01*
X598705Y806912D02*
X622795Y806912D01*
X622795Y809224D02*
X598705Y809224D01*
X598705Y811536D02*
X622795Y811536D01*
D19*
X576250Y787833D03*
X576250Y717833D03*
D12*
X630514Y606203D02*
X635480Y606203D01*
X630514Y606203D02*
X630514Y611169D01*
X635480Y611169D01*
X635480Y606203D01*
X635480Y608633D02*
X630514Y608633D01*
X630514Y611063D02*
X635480Y611063D01*
X640514Y606203D02*
X645480Y606203D01*
X640514Y606203D02*
X640514Y611169D01*
X645480Y611169D01*
X645480Y606203D01*
X645480Y608633D02*
X640514Y608633D01*
X640514Y611063D02*
X645480Y611063D01*
X635226Y698481D02*
X630260Y698481D01*
X630260Y703447D01*
X635226Y703447D01*
X635226Y698481D01*
X635226Y700911D02*
X630260Y700911D01*
X630260Y703341D02*
X635226Y703341D01*
X640260Y698481D02*
X645226Y698481D01*
X640260Y698481D02*
X640260Y703447D01*
X645226Y703447D01*
X645226Y698481D01*
X645226Y700911D02*
X640260Y700911D01*
X640260Y703341D02*
X645226Y703341D01*
X656127Y703476D02*
X656127Y698510D01*
X651161Y698510D01*
X651161Y703476D01*
X656127Y703476D01*
X656127Y700940D02*
X651161Y700940D01*
X651161Y703370D02*
X656127Y703370D01*
X656127Y708510D02*
X656127Y713476D01*
X656127Y708510D02*
X651161Y708510D01*
X651161Y713476D01*
X656127Y713476D01*
X656127Y710940D02*
X651161Y710940D01*
X651161Y713370D02*
X656127Y713370D01*
X650856Y611343D02*
X650856Y606377D01*
X650856Y611343D02*
X655822Y611343D01*
X655822Y606377D01*
X650856Y606377D01*
X650856Y608807D02*
X655822Y608807D01*
X655822Y611237D02*
X650856Y611237D01*
X650856Y601343D02*
X650856Y596377D01*
X650856Y601343D02*
X655822Y601343D01*
X655822Y596377D01*
X650856Y596377D01*
X650856Y598807D02*
X655822Y598807D01*
X655822Y601237D02*
X650856Y601237D01*
X679892Y688651D02*
X684858Y688651D01*
X679892Y688651D02*
X679892Y693617D01*
X684858Y693617D01*
X684858Y688651D01*
X684858Y691081D02*
X679892Y691081D01*
X679892Y693511D02*
X684858Y693511D01*
X689892Y688651D02*
X694858Y688651D01*
X689892Y688651D02*
X689892Y693617D01*
X694858Y693617D01*
X694858Y688651D01*
X694858Y691081D02*
X689892Y691081D01*
X689892Y693511D02*
X694858Y693511D01*
X625418Y658442D02*
X625418Y653476D01*
X620452Y653476D01*
X620452Y658442D01*
X625418Y658442D01*
X625418Y655906D02*
X620452Y655906D01*
X620452Y658336D02*
X625418Y658336D01*
X625418Y663476D02*
X625418Y668442D01*
X625418Y663476D02*
X620452Y663476D01*
X620452Y668442D01*
X625418Y668442D01*
X625418Y665906D02*
X620452Y665906D01*
X620452Y668336D02*
X625418Y668336D01*
D10*
X462280Y797560D03*
X843280Y797560D03*
D20*
X830580Y643460D03*
D21*
X830580Y678460D03*
X830580Y713460D03*
X830580Y748460D03*
D20*
X769341Y787019D03*
D21*
X734341Y787019D03*
D22*
X745823Y741487D02*
X745823Y734457D01*
X738793Y734457D01*
X738793Y741487D01*
X745823Y741487D01*
X745823Y738726D02*
X738793Y738726D01*
X763363Y741487D02*
X763363Y734457D01*
X756333Y734457D01*
X756333Y741487D01*
X763363Y741487D01*
X763363Y738726D02*
X756333Y738726D01*
D12*
X729787Y730476D02*
X729787Y725510D01*
X724821Y725510D01*
X724821Y730476D01*
X729787Y730476D01*
X729787Y727940D02*
X724821Y727940D01*
X724821Y730370D02*
X729787Y730370D01*
X729787Y735510D02*
X729787Y740476D01*
X729787Y735510D02*
X724821Y735510D01*
X724821Y740476D01*
X729787Y740476D01*
X729787Y737940D02*
X724821Y737940D01*
X724821Y740370D02*
X729787Y740370D01*
D20*
X474980Y748460D03*
D21*
X474980Y713460D03*
X474980Y678460D03*
X474980Y643460D03*
D16*
X698662Y752664D02*
X698662Y759618D01*
X709616Y759618D01*
X709616Y752664D01*
X698662Y752664D01*
X698662Y755106D02*
X709616Y755106D01*
X709616Y757548D02*
X698662Y757548D01*
X698662Y741618D02*
X698662Y734664D01*
X698662Y741618D02*
X709616Y741618D01*
X709616Y734664D01*
X698662Y734664D01*
X698662Y737106D02*
X709616Y737106D01*
X709616Y739548D02*
X698662Y739548D01*
D12*
X614623Y658391D02*
X614623Y653425D01*
X609657Y653425D01*
X609657Y658391D01*
X614623Y658391D01*
X614623Y655855D02*
X609657Y655855D01*
X609657Y658285D02*
X614623Y658285D01*
X614623Y663425D02*
X614623Y668391D01*
X614623Y663425D02*
X609657Y663425D01*
X609657Y668391D01*
X614623Y668391D01*
X614623Y665855D02*
X609657Y665855D01*
X609657Y668285D02*
X614623Y668285D01*
X679943Y605593D02*
X684909Y605593D01*
X679943Y605593D02*
X679943Y610559D01*
X684909Y610559D01*
X684909Y605593D01*
X684909Y608023D02*
X679943Y608023D01*
X679943Y610453D02*
X684909Y610453D01*
X689943Y605593D02*
X694909Y605593D01*
X689943Y605593D02*
X689943Y610559D01*
X694909Y610559D01*
X694909Y605593D01*
X694909Y608023D02*
X689943Y608023D01*
X689943Y610453D02*
X694909Y610453D01*
X684858Y699700D02*
X679892Y699700D01*
X679892Y704666D01*
X684858Y704666D01*
X684858Y699700D01*
X684858Y702130D02*
X679892Y702130D01*
X679892Y704560D02*
X684858Y704560D01*
X689892Y699700D02*
X694858Y699700D01*
X689892Y699700D02*
X689892Y704666D01*
X694858Y704666D01*
X694858Y699700D01*
X694858Y702130D02*
X689892Y702130D01*
X689892Y704560D02*
X694858Y704560D01*
D10*
X25400Y878840D03*
X406400Y878840D03*
D11*
X262145Y1102935D02*
X251055Y1102935D01*
X262145Y1102935D02*
X262145Y1083845D01*
X251055Y1083845D01*
X251055Y1102935D01*
X251055Y1086157D02*
X262145Y1086157D01*
X262145Y1088469D02*
X251055Y1088469D01*
X251055Y1090781D02*
X262145Y1090781D01*
X262145Y1093093D02*
X251055Y1093093D01*
X251055Y1095405D02*
X262145Y1095405D01*
X262145Y1097717D02*
X251055Y1097717D01*
X251055Y1100029D02*
X262145Y1100029D01*
X262145Y1102341D02*
X251055Y1102341D01*
X206145Y1102935D02*
X195055Y1102935D01*
X206145Y1102935D02*
X206145Y1083845D01*
X195055Y1083845D01*
X195055Y1102935D01*
X195055Y1086157D02*
X206145Y1086157D01*
X206145Y1088469D02*
X195055Y1088469D01*
X195055Y1090781D02*
X206145Y1090781D01*
X206145Y1093093D02*
X195055Y1093093D01*
X195055Y1095405D02*
X206145Y1095405D01*
X206145Y1097717D02*
X195055Y1097717D01*
X195055Y1100029D02*
X206145Y1100029D01*
X206145Y1102341D02*
X195055Y1102341D01*
D12*
X241117Y1062873D02*
X246083Y1062873D01*
X246083Y1050407D01*
X241117Y1050407D01*
X241117Y1062873D01*
X241117Y1052837D02*
X246083Y1052837D01*
X246083Y1055267D02*
X241117Y1055267D01*
X241117Y1057697D02*
X246083Y1057697D01*
X246083Y1060127D02*
X241117Y1060127D01*
X241117Y1062557D02*
X246083Y1062557D01*
X236083Y1062873D02*
X231117Y1062873D01*
X236083Y1062873D02*
X236083Y1050407D01*
X231117Y1050407D01*
X231117Y1062873D01*
X231117Y1052837D02*
X236083Y1052837D01*
X236083Y1055267D02*
X231117Y1055267D01*
X231117Y1057697D02*
X236083Y1057697D01*
X236083Y1060127D02*
X231117Y1060127D01*
X231117Y1062557D02*
X236083Y1062557D01*
X226083Y1062873D02*
X221117Y1062873D01*
X226083Y1062873D02*
X226083Y1050407D01*
X221117Y1050407D01*
X221117Y1062873D01*
X221117Y1052837D02*
X226083Y1052837D01*
X226083Y1055267D02*
X221117Y1055267D01*
X221117Y1057697D02*
X226083Y1057697D01*
X226083Y1060127D02*
X221117Y1060127D01*
X221117Y1062557D02*
X226083Y1062557D01*
X216083Y1062873D02*
X211117Y1062873D01*
X216083Y1062873D02*
X216083Y1050407D01*
X211117Y1050407D01*
X211117Y1062873D01*
X211117Y1052837D02*
X216083Y1052837D01*
X216083Y1055267D02*
X211117Y1055267D01*
X211117Y1057697D02*
X216083Y1057697D01*
X216083Y1060127D02*
X211117Y1060127D01*
X211117Y1062557D02*
X216083Y1062557D01*
X202403Y1044874D02*
X197437Y1044874D01*
X202403Y1044874D02*
X202403Y1039908D01*
X197437Y1039908D01*
X197437Y1044874D01*
X197437Y1042338D02*
X202403Y1042338D01*
X202403Y1044768D02*
X197437Y1044768D01*
X192403Y1044874D02*
X187437Y1044874D01*
X192403Y1044874D02*
X192403Y1039908D01*
X187437Y1039908D01*
X187437Y1044874D01*
X187437Y1042338D02*
X192403Y1042338D01*
X192403Y1044768D02*
X187437Y1044768D01*
X197437Y1034333D02*
X202403Y1034333D01*
X202403Y1029367D01*
X197437Y1029367D01*
X197437Y1034333D01*
X197437Y1031797D02*
X202403Y1031797D01*
X202403Y1034227D02*
X197437Y1034227D01*
X192403Y1034333D02*
X187437Y1034333D01*
X192403Y1034333D02*
X192403Y1029367D01*
X187437Y1029367D01*
X187437Y1034333D01*
X187437Y1031797D02*
X192403Y1031797D01*
X192403Y1034227D02*
X187437Y1034227D01*
D13*
X50800Y866140D03*
X381000Y1094740D03*
D12*
X248029Y900665D02*
X243063Y900665D01*
X243063Y905631D01*
X248029Y905631D01*
X248029Y900665D01*
X248029Y903095D02*
X243063Y903095D01*
X243063Y905525D02*
X248029Y905525D01*
X253063Y900665D02*
X258029Y900665D01*
X253063Y900665D02*
X253063Y905631D01*
X258029Y905631D01*
X258029Y900665D01*
X258029Y903095D02*
X253063Y903095D01*
X253063Y905525D02*
X258029Y905525D01*
X209497Y901630D02*
X204531Y901630D01*
X204531Y906596D01*
X209497Y906596D01*
X209497Y901630D01*
X209497Y904060D02*
X204531Y904060D01*
X204531Y906490D02*
X209497Y906490D01*
X214531Y901630D02*
X219497Y901630D01*
X214531Y901630D02*
X214531Y906596D01*
X219497Y906596D01*
X219497Y901630D01*
X219497Y904060D02*
X214531Y904060D01*
X214531Y906490D02*
X219497Y906490D01*
X230016Y895856D02*
X230016Y890890D01*
X225050Y890890D01*
X225050Y895856D01*
X230016Y895856D01*
X230016Y893320D02*
X225050Y893320D01*
X225050Y895750D02*
X230016Y895750D01*
X230016Y900890D02*
X230016Y905856D01*
X230016Y900890D02*
X225050Y900890D01*
X225050Y905856D01*
X230016Y905856D01*
X230016Y903320D02*
X225050Y903320D01*
X225050Y905750D02*
X230016Y905750D01*
X209344Y969880D02*
X204378Y969880D01*
X204378Y974846D01*
X209344Y974846D01*
X209344Y969880D01*
X209344Y972310D02*
X204378Y972310D01*
X204378Y974740D02*
X209344Y974740D01*
X214378Y969880D02*
X219344Y969880D01*
X214378Y969880D02*
X214378Y974846D01*
X219344Y974846D01*
X219344Y969880D01*
X219344Y972310D02*
X214378Y972310D01*
X214378Y974740D02*
X219344Y974740D01*
X227895Y983059D02*
X227895Y988025D01*
X232861Y988025D01*
X232861Y983059D01*
X227895Y983059D01*
X227895Y985489D02*
X232861Y985489D01*
X232861Y987919D02*
X227895Y987919D01*
X227895Y978025D02*
X227895Y973059D01*
X227895Y978025D02*
X232861Y978025D01*
X232861Y973059D01*
X227895Y973059D01*
X227895Y975489D02*
X232861Y975489D01*
X232861Y977919D02*
X227895Y977919D01*
D14*
X225483Y923031D02*
X225483Y915331D01*
X230483Y915331D02*
X230483Y923031D01*
X235483Y923031D02*
X235483Y915331D01*
X240483Y915331D02*
X240483Y923031D01*
X245483Y923031D02*
X245483Y915331D01*
X252633Y930181D02*
X260333Y930181D01*
X260333Y935181D02*
X252633Y935181D01*
X252633Y940181D02*
X260333Y940181D01*
X260333Y945181D02*
X252633Y945181D01*
X252633Y950181D02*
X260333Y950181D01*
X245483Y957331D02*
X245483Y965031D01*
X240483Y965031D02*
X240483Y957331D01*
X235483Y957331D02*
X235483Y965031D01*
X230483Y965031D02*
X230483Y957331D01*
X225483Y957331D02*
X225483Y965031D01*
X218333Y950181D02*
X210633Y950181D01*
X210633Y945181D02*
X218333Y945181D01*
X218333Y940181D02*
X210633Y940181D01*
X210633Y935181D02*
X218333Y935181D01*
X218333Y930181D02*
X210633Y930181D01*
D15*
X222647Y927345D02*
X248319Y927345D01*
X222647Y927345D02*
X222647Y953017D01*
X248319Y953017D01*
X248319Y927345D01*
X248319Y930054D02*
X222647Y930054D01*
X222647Y932763D02*
X248319Y932763D01*
X248319Y935472D02*
X222647Y935472D01*
X222647Y938181D02*
X248319Y938181D01*
X248319Y940890D02*
X222647Y940890D01*
X222647Y943599D02*
X248319Y943599D01*
X248319Y946308D02*
X222647Y946308D01*
X222647Y949017D02*
X248319Y949017D01*
X248319Y951726D02*
X222647Y951726D01*
D16*
X273806Y902954D02*
X280760Y902954D01*
X273806Y902954D02*
X273806Y913908D01*
X280760Y913908D01*
X280760Y902954D01*
X280760Y905396D02*
X273806Y905396D01*
X273806Y907838D02*
X280760Y907838D01*
X280760Y910280D02*
X273806Y910280D01*
X273806Y912722D02*
X280760Y912722D01*
X291806Y902954D02*
X298760Y902954D01*
X291806Y902954D02*
X291806Y913908D01*
X298760Y913908D01*
X298760Y902954D01*
X298760Y905396D02*
X291806Y905396D01*
X291806Y907838D02*
X298760Y907838D01*
X298760Y910280D02*
X291806Y910280D01*
X291806Y912722D02*
X298760Y912722D01*
X280760Y922004D02*
X273806Y922004D01*
X273806Y932958D01*
X280760Y932958D01*
X280760Y922004D01*
X280760Y924446D02*
X273806Y924446D01*
X273806Y926888D02*
X280760Y926888D01*
X280760Y929330D02*
X273806Y929330D01*
X273806Y931772D02*
X280760Y931772D01*
X291806Y922004D02*
X298760Y922004D01*
X291806Y922004D02*
X291806Y932958D01*
X298760Y932958D01*
X298760Y922004D01*
X298760Y924446D02*
X291806Y924446D01*
X291806Y926888D02*
X298760Y926888D01*
X298760Y929330D02*
X291806Y929330D01*
X291806Y931772D02*
X298760Y931772D01*
X280760Y960104D02*
X273806Y960104D01*
X273806Y971058D01*
X280760Y971058D01*
X280760Y960104D01*
X280760Y962546D02*
X273806Y962546D01*
X273806Y964988D02*
X280760Y964988D01*
X280760Y967430D02*
X273806Y967430D01*
X273806Y969872D02*
X280760Y969872D01*
X291806Y960104D02*
X298760Y960104D01*
X291806Y960104D02*
X291806Y971058D01*
X298760Y971058D01*
X298760Y960104D01*
X298760Y962546D02*
X291806Y962546D01*
X291806Y964988D02*
X298760Y964988D01*
X298760Y967430D02*
X291806Y967430D01*
X291806Y969872D02*
X298760Y969872D01*
X280760Y941054D02*
X273806Y941054D01*
X273806Y952008D01*
X280760Y952008D01*
X280760Y941054D01*
X280760Y943496D02*
X273806Y943496D01*
X273806Y945938D02*
X280760Y945938D01*
X280760Y948380D02*
X273806Y948380D01*
X273806Y950822D02*
X280760Y950822D01*
X291806Y941054D02*
X298760Y941054D01*
X291806Y941054D02*
X291806Y952008D01*
X298760Y952008D01*
X298760Y941054D01*
X298760Y943496D02*
X291806Y943496D01*
X291806Y945938D02*
X298760Y945938D01*
X298760Y948380D02*
X291806Y948380D01*
X291806Y950822D02*
X298760Y950822D01*
D17*
X307116Y905823D02*
X307116Y898305D01*
X307116Y905823D02*
X315134Y905823D01*
X315134Y898305D01*
X307116Y898305D01*
X307116Y900686D02*
X315134Y900686D01*
X315134Y903067D02*
X307116Y903067D01*
X307116Y905448D02*
X315134Y905448D01*
X307116Y894223D02*
X307116Y886705D01*
X307116Y894223D02*
X315134Y894223D01*
X315134Y886705D01*
X307116Y886705D01*
X307116Y889086D02*
X315134Y889086D01*
X315134Y891467D02*
X307116Y891467D01*
X307116Y893848D02*
X315134Y893848D01*
X307166Y925128D02*
X307166Y932646D01*
X315184Y932646D01*
X315184Y925128D01*
X307166Y925128D01*
X307166Y927509D02*
X315184Y927509D01*
X315184Y929890D02*
X307166Y929890D01*
X307166Y932271D02*
X315184Y932271D01*
X307166Y921046D02*
X307166Y913528D01*
X307166Y921046D02*
X315184Y921046D01*
X315184Y913528D01*
X307166Y913528D01*
X307166Y915909D02*
X315184Y915909D01*
X315184Y918290D02*
X307166Y918290D01*
X307166Y920671D02*
X315184Y920671D01*
X315515Y967046D02*
X315515Y974564D01*
X315515Y967046D02*
X307497Y967046D01*
X307497Y974564D01*
X315515Y974564D01*
X315515Y969427D02*
X307497Y969427D01*
X307497Y971808D02*
X315515Y971808D01*
X315515Y974189D02*
X307497Y974189D01*
X315515Y978646D02*
X315515Y986164D01*
X315515Y978646D02*
X307497Y978646D01*
X307497Y986164D01*
X315515Y986164D01*
X315515Y981027D02*
X307497Y981027D01*
X307497Y983408D02*
X315515Y983408D01*
X315515Y985789D02*
X307497Y985789D01*
X315489Y948427D02*
X315489Y940909D01*
X307471Y940909D01*
X307471Y948427D01*
X315489Y948427D01*
X315489Y943290D02*
X307471Y943290D01*
X307471Y945671D02*
X315489Y945671D01*
X315489Y948052D02*
X307471Y948052D01*
X315489Y952509D02*
X315489Y960027D01*
X315489Y952509D02*
X307471Y952509D01*
X307471Y960027D01*
X315489Y960027D01*
X315489Y954890D02*
X307471Y954890D01*
X307471Y957271D02*
X315489Y957271D01*
X315489Y959652D02*
X307471Y959652D01*
D18*
X92899Y1073842D02*
X92899Y1092784D01*
X116841Y1092784D01*
X116841Y1073842D01*
X92899Y1073842D01*
X92899Y1076296D02*
X116841Y1076296D01*
X116841Y1078750D02*
X92899Y1078750D01*
X92899Y1081204D02*
X116841Y1081204D01*
X116841Y1083658D02*
X92899Y1083658D01*
X92899Y1086112D02*
X116841Y1086112D01*
X116841Y1088566D02*
X92899Y1088566D01*
X92899Y1091020D02*
X116841Y1091020D01*
X92899Y999784D02*
X92899Y980842D01*
X92899Y999784D02*
X116841Y999784D01*
X116841Y980842D01*
X92899Y980842D01*
X92899Y983296D02*
X116841Y983296D01*
X116841Y985750D02*
X92899Y985750D01*
X92899Y988204D02*
X116841Y988204D01*
X116841Y990658D02*
X92899Y990658D01*
X92899Y993112D02*
X116841Y993112D01*
X116841Y995566D02*
X92899Y995566D01*
X92899Y998020D02*
X116841Y998020D01*
X161899Y1054842D02*
X161899Y1073784D01*
X185841Y1073784D01*
X185841Y1054842D01*
X161899Y1054842D01*
X161899Y1057296D02*
X185841Y1057296D01*
X185841Y1059750D02*
X161899Y1059750D01*
X161899Y1062204D02*
X185841Y1062204D01*
X185841Y1064658D02*
X161899Y1064658D01*
X161899Y1067112D02*
X185841Y1067112D01*
X185841Y1069566D02*
X161899Y1069566D01*
X161899Y1072020D02*
X185841Y1072020D01*
X156341Y937842D02*
X137399Y937842D01*
X137399Y961784D01*
X156341Y961784D01*
X156341Y937842D01*
X156341Y940296D02*
X137399Y940296D01*
X137399Y942750D02*
X156341Y942750D01*
X156341Y945204D02*
X137399Y945204D01*
X137399Y947658D02*
X156341Y947658D01*
X156341Y950112D02*
X137399Y950112D01*
X137399Y952566D02*
X156341Y952566D01*
X156341Y955020D02*
X137399Y955020D01*
X137399Y957474D02*
X156341Y957474D01*
X156341Y959928D02*
X137399Y959928D01*
D11*
X185915Y1086768D02*
X185915Y1097858D01*
X185915Y1086768D02*
X161825Y1086768D01*
X161825Y1097858D01*
X185915Y1097858D01*
X185915Y1089080D02*
X161825Y1089080D01*
X161825Y1091392D02*
X185915Y1091392D01*
X185915Y1093704D02*
X161825Y1093704D01*
X161825Y1096016D02*
X185915Y1096016D01*
D19*
X139370Y1072313D03*
X139370Y1002313D03*
D12*
X193634Y890683D02*
X198600Y890683D01*
X193634Y890683D02*
X193634Y895649D01*
X198600Y895649D01*
X198600Y890683D01*
X198600Y893113D02*
X193634Y893113D01*
X193634Y895543D02*
X198600Y895543D01*
X203634Y890683D02*
X208600Y890683D01*
X203634Y890683D02*
X203634Y895649D01*
X208600Y895649D01*
X208600Y890683D01*
X208600Y893113D02*
X203634Y893113D01*
X203634Y895543D02*
X208600Y895543D01*
X198346Y982961D02*
X193380Y982961D01*
X193380Y987927D01*
X198346Y987927D01*
X198346Y982961D01*
X198346Y985391D02*
X193380Y985391D01*
X193380Y987821D02*
X198346Y987821D01*
X203380Y982961D02*
X208346Y982961D01*
X203380Y982961D02*
X203380Y987927D01*
X208346Y987927D01*
X208346Y982961D01*
X208346Y985391D02*
X203380Y985391D01*
X203380Y987821D02*
X208346Y987821D01*
X219247Y987956D02*
X219247Y982990D01*
X214281Y982990D01*
X214281Y987956D01*
X219247Y987956D01*
X219247Y985420D02*
X214281Y985420D01*
X214281Y987850D02*
X219247Y987850D01*
X219247Y992990D02*
X219247Y997956D01*
X219247Y992990D02*
X214281Y992990D01*
X214281Y997956D01*
X219247Y997956D01*
X219247Y995420D02*
X214281Y995420D01*
X214281Y997850D02*
X219247Y997850D01*
X213976Y895823D02*
X213976Y890857D01*
X213976Y895823D02*
X218942Y895823D01*
X218942Y890857D01*
X213976Y890857D01*
X213976Y893287D02*
X218942Y893287D01*
X218942Y895717D02*
X213976Y895717D01*
X213976Y885823D02*
X213976Y880857D01*
X213976Y885823D02*
X218942Y885823D01*
X218942Y880857D01*
X213976Y880857D01*
X213976Y883287D02*
X218942Y883287D01*
X218942Y885717D02*
X213976Y885717D01*
X243012Y973131D02*
X247978Y973131D01*
X243012Y973131D02*
X243012Y978097D01*
X247978Y978097D01*
X247978Y973131D01*
X247978Y975561D02*
X243012Y975561D01*
X243012Y977991D02*
X247978Y977991D01*
X253012Y973131D02*
X257978Y973131D01*
X253012Y973131D02*
X253012Y978097D01*
X257978Y978097D01*
X257978Y973131D01*
X257978Y975561D02*
X253012Y975561D01*
X253012Y977991D02*
X257978Y977991D01*
X188538Y942922D02*
X188538Y937956D01*
X183572Y937956D01*
X183572Y942922D01*
X188538Y942922D01*
X188538Y940386D02*
X183572Y940386D01*
X183572Y942816D02*
X188538Y942816D01*
X188538Y947956D02*
X188538Y952922D01*
X188538Y947956D02*
X183572Y947956D01*
X183572Y952922D01*
X188538Y952922D01*
X188538Y950386D02*
X183572Y950386D01*
X183572Y952816D02*
X188538Y952816D01*
D10*
X25400Y1082040D03*
X406400Y1082040D03*
D20*
X393700Y927940D03*
D21*
X393700Y962940D03*
X393700Y997940D03*
X393700Y1032940D03*
D20*
X332461Y1071499D03*
D21*
X297461Y1071499D03*
D22*
X308943Y1025967D02*
X308943Y1018937D01*
X301913Y1018937D01*
X301913Y1025967D01*
X308943Y1025967D01*
X308943Y1023206D02*
X301913Y1023206D01*
X326483Y1025967D02*
X326483Y1018937D01*
X319453Y1018937D01*
X319453Y1025967D01*
X326483Y1025967D01*
X326483Y1023206D02*
X319453Y1023206D01*
D12*
X292907Y1014956D02*
X292907Y1009990D01*
X287941Y1009990D01*
X287941Y1014956D01*
X292907Y1014956D01*
X292907Y1012420D02*
X287941Y1012420D01*
X287941Y1014850D02*
X292907Y1014850D01*
X292907Y1019990D02*
X292907Y1024956D01*
X292907Y1019990D02*
X287941Y1019990D01*
X287941Y1024956D01*
X292907Y1024956D01*
X292907Y1022420D02*
X287941Y1022420D01*
X287941Y1024850D02*
X292907Y1024850D01*
D20*
X38100Y1032940D03*
D21*
X38100Y997940D03*
X38100Y962940D03*
X38100Y927940D03*
D16*
X261782Y1037144D02*
X261782Y1044098D01*
X272736Y1044098D01*
X272736Y1037144D01*
X261782Y1037144D01*
X261782Y1039586D02*
X272736Y1039586D01*
X272736Y1042028D02*
X261782Y1042028D01*
X261782Y1026098D02*
X261782Y1019144D01*
X261782Y1026098D02*
X272736Y1026098D01*
X272736Y1019144D01*
X261782Y1019144D01*
X261782Y1021586D02*
X272736Y1021586D01*
X272736Y1024028D02*
X261782Y1024028D01*
D12*
X177743Y942871D02*
X177743Y937905D01*
X172777Y937905D01*
X172777Y942871D01*
X177743Y942871D01*
X177743Y940335D02*
X172777Y940335D01*
X172777Y942765D02*
X177743Y942765D01*
X177743Y947905D02*
X177743Y952871D01*
X177743Y947905D02*
X172777Y947905D01*
X172777Y952871D01*
X177743Y952871D01*
X177743Y950335D02*
X172777Y950335D01*
X172777Y952765D02*
X177743Y952765D01*
X243063Y890073D02*
X248029Y890073D01*
X243063Y890073D02*
X243063Y895039D01*
X248029Y895039D01*
X248029Y890073D01*
X248029Y892503D02*
X243063Y892503D01*
X243063Y894933D02*
X248029Y894933D01*
X253063Y890073D02*
X258029Y890073D01*
X253063Y890073D02*
X253063Y895039D01*
X258029Y895039D01*
X258029Y890073D01*
X258029Y892503D02*
X253063Y892503D01*
X253063Y894933D02*
X258029Y894933D01*
X247978Y984180D02*
X243012Y984180D01*
X243012Y989146D01*
X247978Y989146D01*
X247978Y984180D01*
X247978Y986610D02*
X243012Y986610D01*
X243012Y989040D02*
X247978Y989040D01*
X253012Y984180D02*
X257978Y984180D01*
X253012Y984180D02*
X253012Y989146D01*
X257978Y989146D01*
X257978Y984180D01*
X257978Y986610D02*
X253012Y986610D01*
X253012Y989040D02*
X257978Y989040D01*
D10*
X462280Y878840D03*
X843280Y878840D03*
D11*
X699025Y1102935D02*
X687935Y1102935D01*
X699025Y1102935D02*
X699025Y1083845D01*
X687935Y1083845D01*
X687935Y1102935D01*
X687935Y1086157D02*
X699025Y1086157D01*
X699025Y1088469D02*
X687935Y1088469D01*
X687935Y1090781D02*
X699025Y1090781D01*
X699025Y1093093D02*
X687935Y1093093D01*
X687935Y1095405D02*
X699025Y1095405D01*
X699025Y1097717D02*
X687935Y1097717D01*
X687935Y1100029D02*
X699025Y1100029D01*
X699025Y1102341D02*
X687935Y1102341D01*
X643025Y1102935D02*
X631935Y1102935D01*
X643025Y1102935D02*
X643025Y1083845D01*
X631935Y1083845D01*
X631935Y1102935D01*
X631935Y1086157D02*
X643025Y1086157D01*
X643025Y1088469D02*
X631935Y1088469D01*
X631935Y1090781D02*
X643025Y1090781D01*
X643025Y1093093D02*
X631935Y1093093D01*
X631935Y1095405D02*
X643025Y1095405D01*
X643025Y1097717D02*
X631935Y1097717D01*
X631935Y1100029D02*
X643025Y1100029D01*
X643025Y1102341D02*
X631935Y1102341D01*
D12*
X677997Y1062873D02*
X682963Y1062873D01*
X682963Y1050407D01*
X677997Y1050407D01*
X677997Y1062873D01*
X677997Y1052837D02*
X682963Y1052837D01*
X682963Y1055267D02*
X677997Y1055267D01*
X677997Y1057697D02*
X682963Y1057697D01*
X682963Y1060127D02*
X677997Y1060127D01*
X677997Y1062557D02*
X682963Y1062557D01*
X672963Y1062873D02*
X667997Y1062873D01*
X672963Y1062873D02*
X672963Y1050407D01*
X667997Y1050407D01*
X667997Y1062873D01*
X667997Y1052837D02*
X672963Y1052837D01*
X672963Y1055267D02*
X667997Y1055267D01*
X667997Y1057697D02*
X672963Y1057697D01*
X672963Y1060127D02*
X667997Y1060127D01*
X667997Y1062557D02*
X672963Y1062557D01*
X662963Y1062873D02*
X657997Y1062873D01*
X662963Y1062873D02*
X662963Y1050407D01*
X657997Y1050407D01*
X657997Y1062873D01*
X657997Y1052837D02*
X662963Y1052837D01*
X662963Y1055267D02*
X657997Y1055267D01*
X657997Y1057697D02*
X662963Y1057697D01*
X662963Y1060127D02*
X657997Y1060127D01*
X657997Y1062557D02*
X662963Y1062557D01*
X652963Y1062873D02*
X647997Y1062873D01*
X652963Y1062873D02*
X652963Y1050407D01*
X647997Y1050407D01*
X647997Y1062873D01*
X647997Y1052837D02*
X652963Y1052837D01*
X652963Y1055267D02*
X647997Y1055267D01*
X647997Y1057697D02*
X652963Y1057697D01*
X652963Y1060127D02*
X647997Y1060127D01*
X647997Y1062557D02*
X652963Y1062557D01*
X639283Y1044874D02*
X634317Y1044874D01*
X639283Y1044874D02*
X639283Y1039908D01*
X634317Y1039908D01*
X634317Y1044874D01*
X634317Y1042338D02*
X639283Y1042338D01*
X639283Y1044768D02*
X634317Y1044768D01*
X629283Y1044874D02*
X624317Y1044874D01*
X629283Y1044874D02*
X629283Y1039908D01*
X624317Y1039908D01*
X624317Y1044874D01*
X624317Y1042338D02*
X629283Y1042338D01*
X629283Y1044768D02*
X624317Y1044768D01*
X634317Y1034333D02*
X639283Y1034333D01*
X639283Y1029367D01*
X634317Y1029367D01*
X634317Y1034333D01*
X634317Y1031797D02*
X639283Y1031797D01*
X639283Y1034227D02*
X634317Y1034227D01*
X629283Y1034333D02*
X624317Y1034333D01*
X629283Y1034333D02*
X629283Y1029367D01*
X624317Y1029367D01*
X624317Y1034333D01*
X624317Y1031797D02*
X629283Y1031797D01*
X629283Y1034227D02*
X624317Y1034227D01*
D13*
X487680Y866140D03*
X817880Y1094740D03*
D12*
X684909Y900665D02*
X679943Y900665D01*
X679943Y905631D01*
X684909Y905631D01*
X684909Y900665D01*
X684909Y903095D02*
X679943Y903095D01*
X679943Y905525D02*
X684909Y905525D01*
X689943Y900665D02*
X694909Y900665D01*
X689943Y900665D02*
X689943Y905631D01*
X694909Y905631D01*
X694909Y900665D01*
X694909Y903095D02*
X689943Y903095D01*
X689943Y905525D02*
X694909Y905525D01*
X646377Y901630D02*
X641411Y901630D01*
X641411Y906596D01*
X646377Y906596D01*
X646377Y901630D01*
X646377Y904060D02*
X641411Y904060D01*
X641411Y906490D02*
X646377Y906490D01*
X651411Y901630D02*
X656377Y901630D01*
X651411Y901630D02*
X651411Y906596D01*
X656377Y906596D01*
X656377Y901630D01*
X656377Y904060D02*
X651411Y904060D01*
X651411Y906490D02*
X656377Y906490D01*
X666896Y895856D02*
X666896Y890890D01*
X661930Y890890D01*
X661930Y895856D01*
X666896Y895856D01*
X666896Y893320D02*
X661930Y893320D01*
X661930Y895750D02*
X666896Y895750D01*
X666896Y900890D02*
X666896Y905856D01*
X666896Y900890D02*
X661930Y900890D01*
X661930Y905856D01*
X666896Y905856D01*
X666896Y903320D02*
X661930Y903320D01*
X661930Y905750D02*
X666896Y905750D01*
X646224Y969880D02*
X641258Y969880D01*
X641258Y974846D01*
X646224Y974846D01*
X646224Y969880D01*
X646224Y972310D02*
X641258Y972310D01*
X641258Y974740D02*
X646224Y974740D01*
X651258Y969880D02*
X656224Y969880D01*
X651258Y969880D02*
X651258Y974846D01*
X656224Y974846D01*
X656224Y969880D01*
X656224Y972310D02*
X651258Y972310D01*
X651258Y974740D02*
X656224Y974740D01*
X664775Y983059D02*
X664775Y988025D01*
X669741Y988025D01*
X669741Y983059D01*
X664775Y983059D01*
X664775Y985489D02*
X669741Y985489D01*
X669741Y987919D02*
X664775Y987919D01*
X664775Y978025D02*
X664775Y973059D01*
X664775Y978025D02*
X669741Y978025D01*
X669741Y973059D01*
X664775Y973059D01*
X664775Y975489D02*
X669741Y975489D01*
X669741Y977919D02*
X664775Y977919D01*
D14*
X662363Y923031D02*
X662363Y915331D01*
X667363Y915331D02*
X667363Y923031D01*
X672363Y923031D02*
X672363Y915331D01*
X677363Y915331D02*
X677363Y923031D01*
X682363Y923031D02*
X682363Y915331D01*
X689513Y930181D02*
X697213Y930181D01*
X697213Y935181D02*
X689513Y935181D01*
X689513Y940181D02*
X697213Y940181D01*
X697213Y945181D02*
X689513Y945181D01*
X689513Y950181D02*
X697213Y950181D01*
X682363Y957331D02*
X682363Y965031D01*
X677363Y965031D02*
X677363Y957331D01*
X672363Y957331D02*
X672363Y965031D01*
X667363Y965031D02*
X667363Y957331D01*
X662363Y957331D02*
X662363Y965031D01*
X655213Y950181D02*
X647513Y950181D01*
X647513Y945181D02*
X655213Y945181D01*
X655213Y940181D02*
X647513Y940181D01*
X647513Y935181D02*
X655213Y935181D01*
X655213Y930181D02*
X647513Y930181D01*
D15*
X659527Y927345D02*
X685199Y927345D01*
X659527Y927345D02*
X659527Y953017D01*
X685199Y953017D01*
X685199Y927345D01*
X685199Y930054D02*
X659527Y930054D01*
X659527Y932763D02*
X685199Y932763D01*
X685199Y935472D02*
X659527Y935472D01*
X659527Y938181D02*
X685199Y938181D01*
X685199Y940890D02*
X659527Y940890D01*
X659527Y943599D02*
X685199Y943599D01*
X685199Y946308D02*
X659527Y946308D01*
X659527Y949017D02*
X685199Y949017D01*
X685199Y951726D02*
X659527Y951726D01*
D16*
X710686Y902954D02*
X717640Y902954D01*
X710686Y902954D02*
X710686Y913908D01*
X717640Y913908D01*
X717640Y902954D01*
X717640Y905396D02*
X710686Y905396D01*
X710686Y907838D02*
X717640Y907838D01*
X717640Y910280D02*
X710686Y910280D01*
X710686Y912722D02*
X717640Y912722D01*
X728686Y902954D02*
X735640Y902954D01*
X728686Y902954D02*
X728686Y913908D01*
X735640Y913908D01*
X735640Y902954D01*
X735640Y905396D02*
X728686Y905396D01*
X728686Y907838D02*
X735640Y907838D01*
X735640Y910280D02*
X728686Y910280D01*
X728686Y912722D02*
X735640Y912722D01*
X717640Y922004D02*
X710686Y922004D01*
X710686Y932958D01*
X717640Y932958D01*
X717640Y922004D01*
X717640Y924446D02*
X710686Y924446D01*
X710686Y926888D02*
X717640Y926888D01*
X717640Y929330D02*
X710686Y929330D01*
X710686Y931772D02*
X717640Y931772D01*
X728686Y922004D02*
X735640Y922004D01*
X728686Y922004D02*
X728686Y932958D01*
X735640Y932958D01*
X735640Y922004D01*
X735640Y924446D02*
X728686Y924446D01*
X728686Y926888D02*
X735640Y926888D01*
X735640Y929330D02*
X728686Y929330D01*
X728686Y931772D02*
X735640Y931772D01*
X717640Y960104D02*
X710686Y960104D01*
X710686Y971058D01*
X717640Y971058D01*
X717640Y960104D01*
X717640Y962546D02*
X710686Y962546D01*
X710686Y964988D02*
X717640Y964988D01*
X717640Y967430D02*
X710686Y967430D01*
X710686Y969872D02*
X717640Y969872D01*
X728686Y960104D02*
X735640Y960104D01*
X728686Y960104D02*
X728686Y971058D01*
X735640Y971058D01*
X735640Y960104D01*
X735640Y962546D02*
X728686Y962546D01*
X728686Y964988D02*
X735640Y964988D01*
X735640Y967430D02*
X728686Y967430D01*
X728686Y969872D02*
X735640Y969872D01*
X717640Y941054D02*
X710686Y941054D01*
X710686Y952008D01*
X717640Y952008D01*
X717640Y941054D01*
X717640Y943496D02*
X710686Y943496D01*
X710686Y945938D02*
X717640Y945938D01*
X717640Y948380D02*
X710686Y948380D01*
X710686Y950822D02*
X717640Y950822D01*
X728686Y941054D02*
X735640Y941054D01*
X728686Y941054D02*
X728686Y952008D01*
X735640Y952008D01*
X735640Y941054D01*
X735640Y943496D02*
X728686Y943496D01*
X728686Y945938D02*
X735640Y945938D01*
X735640Y948380D02*
X728686Y948380D01*
X728686Y950822D02*
X735640Y950822D01*
D17*
X743996Y905823D02*
X743996Y898305D01*
X743996Y905823D02*
X752014Y905823D01*
X752014Y898305D01*
X743996Y898305D01*
X743996Y900686D02*
X752014Y900686D01*
X752014Y903067D02*
X743996Y903067D01*
X743996Y905448D02*
X752014Y905448D01*
X743996Y894223D02*
X743996Y886705D01*
X743996Y894223D02*
X752014Y894223D01*
X752014Y886705D01*
X743996Y886705D01*
X743996Y889086D02*
X752014Y889086D01*
X752014Y891467D02*
X743996Y891467D01*
X743996Y893848D02*
X752014Y893848D01*
X744046Y925128D02*
X744046Y932646D01*
X752064Y932646D01*
X752064Y925128D01*
X744046Y925128D01*
X744046Y927509D02*
X752064Y927509D01*
X752064Y929890D02*
X744046Y929890D01*
X744046Y932271D02*
X752064Y932271D01*
X744046Y921046D02*
X744046Y913528D01*
X744046Y921046D02*
X752064Y921046D01*
X752064Y913528D01*
X744046Y913528D01*
X744046Y915909D02*
X752064Y915909D01*
X752064Y918290D02*
X744046Y918290D01*
X744046Y920671D02*
X752064Y920671D01*
X752395Y967046D02*
X752395Y974564D01*
X752395Y967046D02*
X744377Y967046D01*
X744377Y974564D01*
X752395Y974564D01*
X752395Y969427D02*
X744377Y969427D01*
X744377Y971808D02*
X752395Y971808D01*
X752395Y974189D02*
X744377Y974189D01*
X752395Y978646D02*
X752395Y986164D01*
X752395Y978646D02*
X744377Y978646D01*
X744377Y986164D01*
X752395Y986164D01*
X752395Y981027D02*
X744377Y981027D01*
X744377Y983408D02*
X752395Y983408D01*
X752395Y985789D02*
X744377Y985789D01*
X752369Y948427D02*
X752369Y940909D01*
X744351Y940909D01*
X744351Y948427D01*
X752369Y948427D01*
X752369Y943290D02*
X744351Y943290D01*
X744351Y945671D02*
X752369Y945671D01*
X752369Y948052D02*
X744351Y948052D01*
X752369Y952509D02*
X752369Y960027D01*
X752369Y952509D02*
X744351Y952509D01*
X744351Y960027D01*
X752369Y960027D01*
X752369Y954890D02*
X744351Y954890D01*
X744351Y957271D02*
X752369Y957271D01*
X752369Y959652D02*
X744351Y959652D01*
D18*
X529779Y1073842D02*
X529779Y1092784D01*
X553721Y1092784D01*
X553721Y1073842D01*
X529779Y1073842D01*
X529779Y1076296D02*
X553721Y1076296D01*
X553721Y1078750D02*
X529779Y1078750D01*
X529779Y1081204D02*
X553721Y1081204D01*
X553721Y1083658D02*
X529779Y1083658D01*
X529779Y1086112D02*
X553721Y1086112D01*
X553721Y1088566D02*
X529779Y1088566D01*
X529779Y1091020D02*
X553721Y1091020D01*
X529779Y999784D02*
X529779Y980842D01*
X529779Y999784D02*
X553721Y999784D01*
X553721Y980842D01*
X529779Y980842D01*
X529779Y983296D02*
X553721Y983296D01*
X553721Y985750D02*
X529779Y985750D01*
X529779Y988204D02*
X553721Y988204D01*
X553721Y990658D02*
X529779Y990658D01*
X529779Y993112D02*
X553721Y993112D01*
X553721Y995566D02*
X529779Y995566D01*
X529779Y998020D02*
X553721Y998020D01*
X598779Y1054842D02*
X598779Y1073784D01*
X622721Y1073784D01*
X622721Y1054842D01*
X598779Y1054842D01*
X598779Y1057296D02*
X622721Y1057296D01*
X622721Y1059750D02*
X598779Y1059750D01*
X598779Y1062204D02*
X622721Y1062204D01*
X622721Y1064658D02*
X598779Y1064658D01*
X598779Y1067112D02*
X622721Y1067112D01*
X622721Y1069566D02*
X598779Y1069566D01*
X598779Y1072020D02*
X622721Y1072020D01*
X593221Y937842D02*
X574279Y937842D01*
X574279Y961784D01*
X593221Y961784D01*
X593221Y937842D01*
X593221Y940296D02*
X574279Y940296D01*
X574279Y942750D02*
X593221Y942750D01*
X593221Y945204D02*
X574279Y945204D01*
X574279Y947658D02*
X593221Y947658D01*
X593221Y950112D02*
X574279Y950112D01*
X574279Y952566D02*
X593221Y952566D01*
X593221Y955020D02*
X574279Y955020D01*
X574279Y957474D02*
X593221Y957474D01*
X593221Y959928D02*
X574279Y959928D01*
D11*
X622795Y1086768D02*
X622795Y1097858D01*
X622795Y1086768D02*
X598705Y1086768D01*
X598705Y1097858D01*
X622795Y1097858D01*
X622795Y1089080D02*
X598705Y1089080D01*
X598705Y1091392D02*
X622795Y1091392D01*
X622795Y1093704D02*
X598705Y1093704D01*
X598705Y1096016D02*
X622795Y1096016D01*
D19*
X576250Y1072313D03*
X576250Y1002313D03*
D12*
X630514Y890683D02*
X635480Y890683D01*
X630514Y890683D02*
X630514Y895649D01*
X635480Y895649D01*
X635480Y890683D01*
X635480Y893113D02*
X630514Y893113D01*
X630514Y895543D02*
X635480Y895543D01*
X640514Y890683D02*
X645480Y890683D01*
X640514Y890683D02*
X640514Y895649D01*
X645480Y895649D01*
X645480Y890683D01*
X645480Y893113D02*
X640514Y893113D01*
X640514Y895543D02*
X645480Y895543D01*
X635226Y982961D02*
X630260Y982961D01*
X630260Y987927D01*
X635226Y987927D01*
X635226Y982961D01*
X635226Y985391D02*
X630260Y985391D01*
X630260Y987821D02*
X635226Y987821D01*
X640260Y982961D02*
X645226Y982961D01*
X640260Y982961D02*
X640260Y987927D01*
X645226Y987927D01*
X645226Y982961D01*
X645226Y985391D02*
X640260Y985391D01*
X640260Y987821D02*
X645226Y987821D01*
X656127Y987956D02*
X656127Y982990D01*
X651161Y982990D01*
X651161Y987956D01*
X656127Y987956D01*
X656127Y985420D02*
X651161Y985420D01*
X651161Y987850D02*
X656127Y987850D01*
X656127Y992990D02*
X656127Y997956D01*
X656127Y992990D02*
X651161Y992990D01*
X651161Y997956D01*
X656127Y997956D01*
X656127Y995420D02*
X651161Y995420D01*
X651161Y997850D02*
X656127Y997850D01*
X650856Y895823D02*
X650856Y890857D01*
X650856Y895823D02*
X655822Y895823D01*
X655822Y890857D01*
X650856Y890857D01*
X650856Y893287D02*
X655822Y893287D01*
X655822Y895717D02*
X650856Y895717D01*
X650856Y885823D02*
X650856Y880857D01*
X650856Y885823D02*
X655822Y885823D01*
X655822Y880857D01*
X650856Y880857D01*
X650856Y883287D02*
X655822Y883287D01*
X655822Y885717D02*
X650856Y885717D01*
X679892Y973131D02*
X684858Y973131D01*
X679892Y973131D02*
X679892Y978097D01*
X684858Y978097D01*
X684858Y973131D01*
X684858Y975561D02*
X679892Y975561D01*
X679892Y977991D02*
X684858Y977991D01*
X689892Y973131D02*
X694858Y973131D01*
X689892Y973131D02*
X689892Y978097D01*
X694858Y978097D01*
X694858Y973131D01*
X694858Y975561D02*
X689892Y975561D01*
X689892Y977991D02*
X694858Y977991D01*
X625418Y942922D02*
X625418Y937956D01*
X620452Y937956D01*
X620452Y942922D01*
X625418Y942922D01*
X625418Y940386D02*
X620452Y940386D01*
X620452Y942816D02*
X625418Y942816D01*
X625418Y947956D02*
X625418Y952922D01*
X625418Y947956D02*
X620452Y947956D01*
X620452Y952922D01*
X625418Y952922D01*
X625418Y950386D02*
X620452Y950386D01*
X620452Y952816D02*
X625418Y952816D01*
D10*
X462280Y1082040D03*
X843280Y1082040D03*
D20*
X830580Y927940D03*
D21*
X830580Y962940D03*
X830580Y997940D03*
X830580Y1032940D03*
D20*
X769341Y1071499D03*
D21*
X734341Y1071499D03*
D22*
X745823Y1025967D02*
X745823Y1018937D01*
X738793Y1018937D01*
X738793Y1025967D01*
X745823Y1025967D01*
X745823Y1023206D02*
X738793Y1023206D01*
X763363Y1025967D02*
X763363Y1018937D01*
X756333Y1018937D01*
X756333Y1025967D01*
X763363Y1025967D01*
X763363Y1023206D02*
X756333Y1023206D01*
D12*
X729787Y1014956D02*
X729787Y1009990D01*
X724821Y1009990D01*
X724821Y1014956D01*
X729787Y1014956D01*
X729787Y1012420D02*
X724821Y1012420D01*
X724821Y1014850D02*
X729787Y1014850D01*
X729787Y1019990D02*
X729787Y1024956D01*
X729787Y1019990D02*
X724821Y1019990D01*
X724821Y1024956D01*
X729787Y1024956D01*
X729787Y1022420D02*
X724821Y1022420D01*
X724821Y1024850D02*
X729787Y1024850D01*
D20*
X474980Y1032940D03*
D21*
X474980Y997940D03*
X474980Y962940D03*
X474980Y927940D03*
D16*
X698662Y1037144D02*
X698662Y1044098D01*
X709616Y1044098D01*
X709616Y1037144D01*
X698662Y1037144D01*
X698662Y1039586D02*
X709616Y1039586D01*
X709616Y1042028D02*
X698662Y1042028D01*
X698662Y1026098D02*
X698662Y1019144D01*
X698662Y1026098D02*
X709616Y1026098D01*
X709616Y1019144D01*
X698662Y1019144D01*
X698662Y1021586D02*
X709616Y1021586D01*
X709616Y1024028D02*
X698662Y1024028D01*
D12*
X614623Y942871D02*
X614623Y937905D01*
X609657Y937905D01*
X609657Y942871D01*
X614623Y942871D01*
X614623Y940335D02*
X609657Y940335D01*
X609657Y942765D02*
X614623Y942765D01*
X614623Y947905D02*
X614623Y952871D01*
X614623Y947905D02*
X609657Y947905D01*
X609657Y952871D01*
X614623Y952871D01*
X614623Y950335D02*
X609657Y950335D01*
X609657Y952765D02*
X614623Y952765D01*
X679943Y890073D02*
X684909Y890073D01*
X679943Y890073D02*
X679943Y895039D01*
X684909Y895039D01*
X684909Y890073D01*
X684909Y892503D02*
X679943Y892503D01*
X679943Y894933D02*
X684909Y894933D01*
X689943Y890073D02*
X694909Y890073D01*
X689943Y890073D02*
X689943Y895039D01*
X694909Y895039D01*
X694909Y890073D01*
X694909Y892503D02*
X689943Y892503D01*
X689943Y894933D02*
X694909Y894933D01*
X684858Y984180D02*
X679892Y984180D01*
X679892Y989146D01*
X684858Y989146D01*
X684858Y984180D01*
X684858Y986610D02*
X679892Y986610D01*
X679892Y989040D02*
X684858Y989040D01*
X689892Y984180D02*
X694858Y984180D01*
X689892Y984180D02*
X689892Y989146D01*
X694858Y989146D01*
X694858Y984180D01*
X694858Y986610D02*
X689892Y986610D01*
X689892Y989040D02*
X694858Y989040D01*
D10*
X25400Y1163320D03*
X406400Y1163320D03*
D11*
X262145Y1387415D02*
X251055Y1387415D01*
X262145Y1387415D02*
X262145Y1368325D01*
X251055Y1368325D01*
X251055Y1387415D01*
X251055Y1370637D02*
X262145Y1370637D01*
X262145Y1372949D02*
X251055Y1372949D01*
X251055Y1375261D02*
X262145Y1375261D01*
X262145Y1377573D02*
X251055Y1377573D01*
X251055Y1379885D02*
X262145Y1379885D01*
X262145Y1382197D02*
X251055Y1382197D01*
X251055Y1384509D02*
X262145Y1384509D01*
X262145Y1386821D02*
X251055Y1386821D01*
X206145Y1387415D02*
X195055Y1387415D01*
X206145Y1387415D02*
X206145Y1368325D01*
X195055Y1368325D01*
X195055Y1387415D01*
X195055Y1370637D02*
X206145Y1370637D01*
X206145Y1372949D02*
X195055Y1372949D01*
X195055Y1375261D02*
X206145Y1375261D01*
X206145Y1377573D02*
X195055Y1377573D01*
X195055Y1379885D02*
X206145Y1379885D01*
X206145Y1382197D02*
X195055Y1382197D01*
X195055Y1384509D02*
X206145Y1384509D01*
X206145Y1386821D02*
X195055Y1386821D01*
D12*
X241117Y1347353D02*
X246083Y1347353D01*
X246083Y1334887D01*
X241117Y1334887D01*
X241117Y1347353D01*
X241117Y1337317D02*
X246083Y1337317D01*
X246083Y1339747D02*
X241117Y1339747D01*
X241117Y1342177D02*
X246083Y1342177D01*
X246083Y1344607D02*
X241117Y1344607D01*
X241117Y1347037D02*
X246083Y1347037D01*
X236083Y1347353D02*
X231117Y1347353D01*
X236083Y1347353D02*
X236083Y1334887D01*
X231117Y1334887D01*
X231117Y1347353D01*
X231117Y1337317D02*
X236083Y1337317D01*
X236083Y1339747D02*
X231117Y1339747D01*
X231117Y1342177D02*
X236083Y1342177D01*
X236083Y1344607D02*
X231117Y1344607D01*
X231117Y1347037D02*
X236083Y1347037D01*
X226083Y1347353D02*
X221117Y1347353D01*
X226083Y1347353D02*
X226083Y1334887D01*
X221117Y1334887D01*
X221117Y1347353D01*
X221117Y1337317D02*
X226083Y1337317D01*
X226083Y1339747D02*
X221117Y1339747D01*
X221117Y1342177D02*
X226083Y1342177D01*
X226083Y1344607D02*
X221117Y1344607D01*
X221117Y1347037D02*
X226083Y1347037D01*
X216083Y1347353D02*
X211117Y1347353D01*
X216083Y1347353D02*
X216083Y1334887D01*
X211117Y1334887D01*
X211117Y1347353D01*
X211117Y1337317D02*
X216083Y1337317D01*
X216083Y1339747D02*
X211117Y1339747D01*
X211117Y1342177D02*
X216083Y1342177D01*
X216083Y1344607D02*
X211117Y1344607D01*
X211117Y1347037D02*
X216083Y1347037D01*
X202403Y1329354D02*
X197437Y1329354D01*
X202403Y1329354D02*
X202403Y1324388D01*
X197437Y1324388D01*
X197437Y1329354D01*
X197437Y1326818D02*
X202403Y1326818D01*
X202403Y1329248D02*
X197437Y1329248D01*
X192403Y1329354D02*
X187437Y1329354D01*
X192403Y1329354D02*
X192403Y1324388D01*
X187437Y1324388D01*
X187437Y1329354D01*
X187437Y1326818D02*
X192403Y1326818D01*
X192403Y1329248D02*
X187437Y1329248D01*
X197437Y1318813D02*
X202403Y1318813D01*
X202403Y1313847D01*
X197437Y1313847D01*
X197437Y1318813D01*
X197437Y1316277D02*
X202403Y1316277D01*
X202403Y1318707D02*
X197437Y1318707D01*
X192403Y1318813D02*
X187437Y1318813D01*
X192403Y1318813D02*
X192403Y1313847D01*
X187437Y1313847D01*
X187437Y1318813D01*
X187437Y1316277D02*
X192403Y1316277D01*
X192403Y1318707D02*
X187437Y1318707D01*
D13*
X50800Y1150620D03*
X381000Y1379220D03*
D12*
X248029Y1185145D02*
X243063Y1185145D01*
X243063Y1190111D01*
X248029Y1190111D01*
X248029Y1185145D01*
X248029Y1187575D02*
X243063Y1187575D01*
X243063Y1190005D02*
X248029Y1190005D01*
X253063Y1185145D02*
X258029Y1185145D01*
X253063Y1185145D02*
X253063Y1190111D01*
X258029Y1190111D01*
X258029Y1185145D01*
X258029Y1187575D02*
X253063Y1187575D01*
X253063Y1190005D02*
X258029Y1190005D01*
X209497Y1186110D02*
X204531Y1186110D01*
X204531Y1191076D01*
X209497Y1191076D01*
X209497Y1186110D01*
X209497Y1188540D02*
X204531Y1188540D01*
X204531Y1190970D02*
X209497Y1190970D01*
X214531Y1186110D02*
X219497Y1186110D01*
X214531Y1186110D02*
X214531Y1191076D01*
X219497Y1191076D01*
X219497Y1186110D01*
X219497Y1188540D02*
X214531Y1188540D01*
X214531Y1190970D02*
X219497Y1190970D01*
X230016Y1180336D02*
X230016Y1175370D01*
X225050Y1175370D01*
X225050Y1180336D01*
X230016Y1180336D01*
X230016Y1177800D02*
X225050Y1177800D01*
X225050Y1180230D02*
X230016Y1180230D01*
X230016Y1185370D02*
X230016Y1190336D01*
X230016Y1185370D02*
X225050Y1185370D01*
X225050Y1190336D01*
X230016Y1190336D01*
X230016Y1187800D02*
X225050Y1187800D01*
X225050Y1190230D02*
X230016Y1190230D01*
X209344Y1254360D02*
X204378Y1254360D01*
X204378Y1259326D01*
X209344Y1259326D01*
X209344Y1254360D01*
X209344Y1256790D02*
X204378Y1256790D01*
X204378Y1259220D02*
X209344Y1259220D01*
X214378Y1254360D02*
X219344Y1254360D01*
X214378Y1254360D02*
X214378Y1259326D01*
X219344Y1259326D01*
X219344Y1254360D01*
X219344Y1256790D02*
X214378Y1256790D01*
X214378Y1259220D02*
X219344Y1259220D01*
X227895Y1267539D02*
X227895Y1272505D01*
X232861Y1272505D01*
X232861Y1267539D01*
X227895Y1267539D01*
X227895Y1269969D02*
X232861Y1269969D01*
X232861Y1272399D02*
X227895Y1272399D01*
X227895Y1262505D02*
X227895Y1257539D01*
X227895Y1262505D02*
X232861Y1262505D01*
X232861Y1257539D01*
X227895Y1257539D01*
X227895Y1259969D02*
X232861Y1259969D01*
X232861Y1262399D02*
X227895Y1262399D01*
D14*
X225483Y1207511D02*
X225483Y1199811D01*
X230483Y1199811D02*
X230483Y1207511D01*
X235483Y1207511D02*
X235483Y1199811D01*
X240483Y1199811D02*
X240483Y1207511D01*
X245483Y1207511D02*
X245483Y1199811D01*
X252633Y1214661D02*
X260333Y1214661D01*
X260333Y1219661D02*
X252633Y1219661D01*
X252633Y1224661D02*
X260333Y1224661D01*
X260333Y1229661D02*
X252633Y1229661D01*
X252633Y1234661D02*
X260333Y1234661D01*
X245483Y1241811D02*
X245483Y1249511D01*
X240483Y1249511D02*
X240483Y1241811D01*
X235483Y1241811D02*
X235483Y1249511D01*
X230483Y1249511D02*
X230483Y1241811D01*
X225483Y1241811D02*
X225483Y1249511D01*
X218333Y1234661D02*
X210633Y1234661D01*
X210633Y1229661D02*
X218333Y1229661D01*
X218333Y1224661D02*
X210633Y1224661D01*
X210633Y1219661D02*
X218333Y1219661D01*
X218333Y1214661D02*
X210633Y1214661D01*
D15*
X222647Y1211825D02*
X248319Y1211825D01*
X222647Y1211825D02*
X222647Y1237497D01*
X248319Y1237497D01*
X248319Y1211825D01*
X248319Y1214534D02*
X222647Y1214534D01*
X222647Y1217243D02*
X248319Y1217243D01*
X248319Y1219952D02*
X222647Y1219952D01*
X222647Y1222661D02*
X248319Y1222661D01*
X248319Y1225370D02*
X222647Y1225370D01*
X222647Y1228079D02*
X248319Y1228079D01*
X248319Y1230788D02*
X222647Y1230788D01*
X222647Y1233497D02*
X248319Y1233497D01*
X248319Y1236206D02*
X222647Y1236206D01*
D16*
X273806Y1187434D02*
X280760Y1187434D01*
X273806Y1187434D02*
X273806Y1198388D01*
X280760Y1198388D01*
X280760Y1187434D01*
X280760Y1189876D02*
X273806Y1189876D01*
X273806Y1192318D02*
X280760Y1192318D01*
X280760Y1194760D02*
X273806Y1194760D01*
X273806Y1197202D02*
X280760Y1197202D01*
X291806Y1187434D02*
X298760Y1187434D01*
X291806Y1187434D02*
X291806Y1198388D01*
X298760Y1198388D01*
X298760Y1187434D01*
X298760Y1189876D02*
X291806Y1189876D01*
X291806Y1192318D02*
X298760Y1192318D01*
X298760Y1194760D02*
X291806Y1194760D01*
X291806Y1197202D02*
X298760Y1197202D01*
X280760Y1206484D02*
X273806Y1206484D01*
X273806Y1217438D01*
X280760Y1217438D01*
X280760Y1206484D01*
X280760Y1208926D02*
X273806Y1208926D01*
X273806Y1211368D02*
X280760Y1211368D01*
X280760Y1213810D02*
X273806Y1213810D01*
X273806Y1216252D02*
X280760Y1216252D01*
X291806Y1206484D02*
X298760Y1206484D01*
X291806Y1206484D02*
X291806Y1217438D01*
X298760Y1217438D01*
X298760Y1206484D01*
X298760Y1208926D02*
X291806Y1208926D01*
X291806Y1211368D02*
X298760Y1211368D01*
X298760Y1213810D02*
X291806Y1213810D01*
X291806Y1216252D02*
X298760Y1216252D01*
X280760Y1244584D02*
X273806Y1244584D01*
X273806Y1255538D01*
X280760Y1255538D01*
X280760Y1244584D01*
X280760Y1247026D02*
X273806Y1247026D01*
X273806Y1249468D02*
X280760Y1249468D01*
X280760Y1251910D02*
X273806Y1251910D01*
X273806Y1254352D02*
X280760Y1254352D01*
X291806Y1244584D02*
X298760Y1244584D01*
X291806Y1244584D02*
X291806Y1255538D01*
X298760Y1255538D01*
X298760Y1244584D01*
X298760Y1247026D02*
X291806Y1247026D01*
X291806Y1249468D02*
X298760Y1249468D01*
X298760Y1251910D02*
X291806Y1251910D01*
X291806Y1254352D02*
X298760Y1254352D01*
X280760Y1225534D02*
X273806Y1225534D01*
X273806Y1236488D01*
X280760Y1236488D01*
X280760Y1225534D01*
X280760Y1227976D02*
X273806Y1227976D01*
X273806Y1230418D02*
X280760Y1230418D01*
X280760Y1232860D02*
X273806Y1232860D01*
X273806Y1235302D02*
X280760Y1235302D01*
X291806Y1225534D02*
X298760Y1225534D01*
X291806Y1225534D02*
X291806Y1236488D01*
X298760Y1236488D01*
X298760Y1225534D01*
X298760Y1227976D02*
X291806Y1227976D01*
X291806Y1230418D02*
X298760Y1230418D01*
X298760Y1232860D02*
X291806Y1232860D01*
X291806Y1235302D02*
X298760Y1235302D01*
D17*
X307116Y1190303D02*
X307116Y1182785D01*
X307116Y1190303D02*
X315134Y1190303D01*
X315134Y1182785D01*
X307116Y1182785D01*
X307116Y1185166D02*
X315134Y1185166D01*
X315134Y1187547D02*
X307116Y1187547D01*
X307116Y1189928D02*
X315134Y1189928D01*
X307116Y1178703D02*
X307116Y1171185D01*
X307116Y1178703D02*
X315134Y1178703D01*
X315134Y1171185D01*
X307116Y1171185D01*
X307116Y1173566D02*
X315134Y1173566D01*
X315134Y1175947D02*
X307116Y1175947D01*
X307116Y1178328D02*
X315134Y1178328D01*
X307166Y1209608D02*
X307166Y1217126D01*
X315184Y1217126D01*
X315184Y1209608D01*
X307166Y1209608D01*
X307166Y1211989D02*
X315184Y1211989D01*
X315184Y1214370D02*
X307166Y1214370D01*
X307166Y1216751D02*
X315184Y1216751D01*
X307166Y1205526D02*
X307166Y1198008D01*
X307166Y1205526D02*
X315184Y1205526D01*
X315184Y1198008D01*
X307166Y1198008D01*
X307166Y1200389D02*
X315184Y1200389D01*
X315184Y1202770D02*
X307166Y1202770D01*
X307166Y1205151D02*
X315184Y1205151D01*
X315515Y1251526D02*
X315515Y1259044D01*
X315515Y1251526D02*
X307497Y1251526D01*
X307497Y1259044D01*
X315515Y1259044D01*
X315515Y1253907D02*
X307497Y1253907D01*
X307497Y1256288D02*
X315515Y1256288D01*
X315515Y1258669D02*
X307497Y1258669D01*
X315515Y1263126D02*
X315515Y1270644D01*
X315515Y1263126D02*
X307497Y1263126D01*
X307497Y1270644D01*
X315515Y1270644D01*
X315515Y1265507D02*
X307497Y1265507D01*
X307497Y1267888D02*
X315515Y1267888D01*
X315515Y1270269D02*
X307497Y1270269D01*
X315489Y1232907D02*
X315489Y1225389D01*
X307471Y1225389D01*
X307471Y1232907D01*
X315489Y1232907D01*
X315489Y1227770D02*
X307471Y1227770D01*
X307471Y1230151D02*
X315489Y1230151D01*
X315489Y1232532D02*
X307471Y1232532D01*
X315489Y1236989D02*
X315489Y1244507D01*
X315489Y1236989D02*
X307471Y1236989D01*
X307471Y1244507D01*
X315489Y1244507D01*
X315489Y1239370D02*
X307471Y1239370D01*
X307471Y1241751D02*
X315489Y1241751D01*
X315489Y1244132D02*
X307471Y1244132D01*
D18*
X92899Y1358322D02*
X92899Y1377264D01*
X116841Y1377264D01*
X116841Y1358322D01*
X92899Y1358322D01*
X92899Y1360776D02*
X116841Y1360776D01*
X116841Y1363230D02*
X92899Y1363230D01*
X92899Y1365684D02*
X116841Y1365684D01*
X116841Y1368138D02*
X92899Y1368138D01*
X92899Y1370592D02*
X116841Y1370592D01*
X116841Y1373046D02*
X92899Y1373046D01*
X92899Y1375500D02*
X116841Y1375500D01*
X92899Y1284264D02*
X92899Y1265322D01*
X92899Y1284264D02*
X116841Y1284264D01*
X116841Y1265322D01*
X92899Y1265322D01*
X92899Y1267776D02*
X116841Y1267776D01*
X116841Y1270230D02*
X92899Y1270230D01*
X92899Y1272684D02*
X116841Y1272684D01*
X116841Y1275138D02*
X92899Y1275138D01*
X92899Y1277592D02*
X116841Y1277592D01*
X116841Y1280046D02*
X92899Y1280046D01*
X92899Y1282500D02*
X116841Y1282500D01*
X161899Y1339322D02*
X161899Y1358264D01*
X185841Y1358264D01*
X185841Y1339322D01*
X161899Y1339322D01*
X161899Y1341776D02*
X185841Y1341776D01*
X185841Y1344230D02*
X161899Y1344230D01*
X161899Y1346684D02*
X185841Y1346684D01*
X185841Y1349138D02*
X161899Y1349138D01*
X161899Y1351592D02*
X185841Y1351592D01*
X185841Y1354046D02*
X161899Y1354046D01*
X161899Y1356500D02*
X185841Y1356500D01*
X156341Y1222322D02*
X137399Y1222322D01*
X137399Y1246264D01*
X156341Y1246264D01*
X156341Y1222322D01*
X156341Y1224776D02*
X137399Y1224776D01*
X137399Y1227230D02*
X156341Y1227230D01*
X156341Y1229684D02*
X137399Y1229684D01*
X137399Y1232138D02*
X156341Y1232138D01*
X156341Y1234592D02*
X137399Y1234592D01*
X137399Y1237046D02*
X156341Y1237046D01*
X156341Y1239500D02*
X137399Y1239500D01*
X137399Y1241954D02*
X156341Y1241954D01*
X156341Y1244408D02*
X137399Y1244408D01*
D11*
X185915Y1371248D02*
X185915Y1382338D01*
X185915Y1371248D02*
X161825Y1371248D01*
X161825Y1382338D01*
X185915Y1382338D01*
X185915Y1373560D02*
X161825Y1373560D01*
X161825Y1375872D02*
X185915Y1375872D01*
X185915Y1378184D02*
X161825Y1378184D01*
X161825Y1380496D02*
X185915Y1380496D01*
D19*
X139370Y1356793D03*
X139370Y1286793D03*
D12*
X193634Y1175163D02*
X198600Y1175163D01*
X193634Y1175163D02*
X193634Y1180129D01*
X198600Y1180129D01*
X198600Y1175163D01*
X198600Y1177593D02*
X193634Y1177593D01*
X193634Y1180023D02*
X198600Y1180023D01*
X203634Y1175163D02*
X208600Y1175163D01*
X203634Y1175163D02*
X203634Y1180129D01*
X208600Y1180129D01*
X208600Y1175163D01*
X208600Y1177593D02*
X203634Y1177593D01*
X203634Y1180023D02*
X208600Y1180023D01*
X198346Y1267441D02*
X193380Y1267441D01*
X193380Y1272407D01*
X198346Y1272407D01*
X198346Y1267441D01*
X198346Y1269871D02*
X193380Y1269871D01*
X193380Y1272301D02*
X198346Y1272301D01*
X203380Y1267441D02*
X208346Y1267441D01*
X203380Y1267441D02*
X203380Y1272407D01*
X208346Y1272407D01*
X208346Y1267441D01*
X208346Y1269871D02*
X203380Y1269871D01*
X203380Y1272301D02*
X208346Y1272301D01*
X219247Y1272436D02*
X219247Y1267470D01*
X214281Y1267470D01*
X214281Y1272436D01*
X219247Y1272436D01*
X219247Y1269900D02*
X214281Y1269900D01*
X214281Y1272330D02*
X219247Y1272330D01*
X219247Y1277470D02*
X219247Y1282436D01*
X219247Y1277470D02*
X214281Y1277470D01*
X214281Y1282436D01*
X219247Y1282436D01*
X219247Y1279900D02*
X214281Y1279900D01*
X214281Y1282330D02*
X219247Y1282330D01*
X213976Y1180303D02*
X213976Y1175337D01*
X213976Y1180303D02*
X218942Y1180303D01*
X218942Y1175337D01*
X213976Y1175337D01*
X213976Y1177767D02*
X218942Y1177767D01*
X218942Y1180197D02*
X213976Y1180197D01*
X213976Y1170303D02*
X213976Y1165337D01*
X213976Y1170303D02*
X218942Y1170303D01*
X218942Y1165337D01*
X213976Y1165337D01*
X213976Y1167767D02*
X218942Y1167767D01*
X218942Y1170197D02*
X213976Y1170197D01*
X243012Y1257611D02*
X247978Y1257611D01*
X243012Y1257611D02*
X243012Y1262577D01*
X247978Y1262577D01*
X247978Y1257611D01*
X247978Y1260041D02*
X243012Y1260041D01*
X243012Y1262471D02*
X247978Y1262471D01*
X253012Y1257611D02*
X257978Y1257611D01*
X253012Y1257611D02*
X253012Y1262577D01*
X257978Y1262577D01*
X257978Y1257611D01*
X257978Y1260041D02*
X253012Y1260041D01*
X253012Y1262471D02*
X257978Y1262471D01*
X188538Y1227402D02*
X188538Y1222436D01*
X183572Y1222436D01*
X183572Y1227402D01*
X188538Y1227402D01*
X188538Y1224866D02*
X183572Y1224866D01*
X183572Y1227296D02*
X188538Y1227296D01*
X188538Y1232436D02*
X188538Y1237402D01*
X188538Y1232436D02*
X183572Y1232436D01*
X183572Y1237402D01*
X188538Y1237402D01*
X188538Y1234866D02*
X183572Y1234866D01*
X183572Y1237296D02*
X188538Y1237296D01*
D10*
X25400Y1366520D03*
X406400Y1366520D03*
D20*
X393700Y1212420D03*
D21*
X393700Y1247420D03*
X393700Y1282420D03*
X393700Y1317420D03*
D20*
X332461Y1355979D03*
D21*
X297461Y1355979D03*
D22*
X308943Y1310447D02*
X308943Y1303417D01*
X301913Y1303417D01*
X301913Y1310447D01*
X308943Y1310447D01*
X308943Y1307686D02*
X301913Y1307686D01*
X326483Y1310447D02*
X326483Y1303417D01*
X319453Y1303417D01*
X319453Y1310447D01*
X326483Y1310447D01*
X326483Y1307686D02*
X319453Y1307686D01*
D12*
X292907Y1299436D02*
X292907Y1294470D01*
X287941Y1294470D01*
X287941Y1299436D01*
X292907Y1299436D01*
X292907Y1296900D02*
X287941Y1296900D01*
X287941Y1299330D02*
X292907Y1299330D01*
X292907Y1304470D02*
X292907Y1309436D01*
X292907Y1304470D02*
X287941Y1304470D01*
X287941Y1309436D01*
X292907Y1309436D01*
X292907Y1306900D02*
X287941Y1306900D01*
X287941Y1309330D02*
X292907Y1309330D01*
D20*
X38100Y1317420D03*
D21*
X38100Y1282420D03*
X38100Y1247420D03*
X38100Y1212420D03*
D16*
X261782Y1321624D02*
X261782Y1328578D01*
X272736Y1328578D01*
X272736Y1321624D01*
X261782Y1321624D01*
X261782Y1324066D02*
X272736Y1324066D01*
X272736Y1326508D02*
X261782Y1326508D01*
X261782Y1310578D02*
X261782Y1303624D01*
X261782Y1310578D02*
X272736Y1310578D01*
X272736Y1303624D01*
X261782Y1303624D01*
X261782Y1306066D02*
X272736Y1306066D01*
X272736Y1308508D02*
X261782Y1308508D01*
D12*
X177743Y1227351D02*
X177743Y1222385D01*
X172777Y1222385D01*
X172777Y1227351D01*
X177743Y1227351D01*
X177743Y1224815D02*
X172777Y1224815D01*
X172777Y1227245D02*
X177743Y1227245D01*
X177743Y1232385D02*
X177743Y1237351D01*
X177743Y1232385D02*
X172777Y1232385D01*
X172777Y1237351D01*
X177743Y1237351D01*
X177743Y1234815D02*
X172777Y1234815D01*
X172777Y1237245D02*
X177743Y1237245D01*
X243063Y1174553D02*
X248029Y1174553D01*
X243063Y1174553D02*
X243063Y1179519D01*
X248029Y1179519D01*
X248029Y1174553D01*
X248029Y1176983D02*
X243063Y1176983D01*
X243063Y1179413D02*
X248029Y1179413D01*
X253063Y1174553D02*
X258029Y1174553D01*
X253063Y1174553D02*
X253063Y1179519D01*
X258029Y1179519D01*
X258029Y1174553D01*
X258029Y1176983D02*
X253063Y1176983D01*
X253063Y1179413D02*
X258029Y1179413D01*
X247978Y1268660D02*
X243012Y1268660D01*
X243012Y1273626D01*
X247978Y1273626D01*
X247978Y1268660D01*
X247978Y1271090D02*
X243012Y1271090D01*
X243012Y1273520D02*
X247978Y1273520D01*
X253012Y1268660D02*
X257978Y1268660D01*
X253012Y1268660D02*
X253012Y1273626D01*
X257978Y1273626D01*
X257978Y1268660D01*
X257978Y1271090D02*
X253012Y1271090D01*
X253012Y1273520D02*
X257978Y1273520D01*
D10*
X462280Y1163320D03*
X843280Y1163320D03*
D11*
X699025Y1387415D02*
X687935Y1387415D01*
X699025Y1387415D02*
X699025Y1368325D01*
X687935Y1368325D01*
X687935Y1387415D01*
X687935Y1370637D02*
X699025Y1370637D01*
X699025Y1372949D02*
X687935Y1372949D01*
X687935Y1375261D02*
X699025Y1375261D01*
X699025Y1377573D02*
X687935Y1377573D01*
X687935Y1379885D02*
X699025Y1379885D01*
X699025Y1382197D02*
X687935Y1382197D01*
X687935Y1384509D02*
X699025Y1384509D01*
X699025Y1386821D02*
X687935Y1386821D01*
X643025Y1387415D02*
X631935Y1387415D01*
X643025Y1387415D02*
X643025Y1368325D01*
X631935Y1368325D01*
X631935Y1387415D01*
X631935Y1370637D02*
X643025Y1370637D01*
X643025Y1372949D02*
X631935Y1372949D01*
X631935Y1375261D02*
X643025Y1375261D01*
X643025Y1377573D02*
X631935Y1377573D01*
X631935Y1379885D02*
X643025Y1379885D01*
X643025Y1382197D02*
X631935Y1382197D01*
X631935Y1384509D02*
X643025Y1384509D01*
X643025Y1386821D02*
X631935Y1386821D01*
D12*
X677997Y1347353D02*
X682963Y1347353D01*
X682963Y1334887D01*
X677997Y1334887D01*
X677997Y1347353D01*
X677997Y1337317D02*
X682963Y1337317D01*
X682963Y1339747D02*
X677997Y1339747D01*
X677997Y1342177D02*
X682963Y1342177D01*
X682963Y1344607D02*
X677997Y1344607D01*
X677997Y1347037D02*
X682963Y1347037D01*
X672963Y1347353D02*
X667997Y1347353D01*
X672963Y1347353D02*
X672963Y1334887D01*
X667997Y1334887D01*
X667997Y1347353D01*
X667997Y1337317D02*
X672963Y1337317D01*
X672963Y1339747D02*
X667997Y1339747D01*
X667997Y1342177D02*
X672963Y1342177D01*
X672963Y1344607D02*
X667997Y1344607D01*
X667997Y1347037D02*
X672963Y1347037D01*
X662963Y1347353D02*
X657997Y1347353D01*
X662963Y1347353D02*
X662963Y1334887D01*
X657997Y1334887D01*
X657997Y1347353D01*
X657997Y1337317D02*
X662963Y1337317D01*
X662963Y1339747D02*
X657997Y1339747D01*
X657997Y1342177D02*
X662963Y1342177D01*
X662963Y1344607D02*
X657997Y1344607D01*
X657997Y1347037D02*
X662963Y1347037D01*
X652963Y1347353D02*
X647997Y1347353D01*
X652963Y1347353D02*
X652963Y1334887D01*
X647997Y1334887D01*
X647997Y1347353D01*
X647997Y1337317D02*
X652963Y1337317D01*
X652963Y1339747D02*
X647997Y1339747D01*
X647997Y1342177D02*
X652963Y1342177D01*
X652963Y1344607D02*
X647997Y1344607D01*
X647997Y1347037D02*
X652963Y1347037D01*
X639283Y1329354D02*
X634317Y1329354D01*
X639283Y1329354D02*
X639283Y1324388D01*
X634317Y1324388D01*
X634317Y1329354D01*
X634317Y1326818D02*
X639283Y1326818D01*
X639283Y1329248D02*
X634317Y1329248D01*
X629283Y1329354D02*
X624317Y1329354D01*
X629283Y1329354D02*
X629283Y1324388D01*
X624317Y1324388D01*
X624317Y1329354D01*
X624317Y1326818D02*
X629283Y1326818D01*
X629283Y1329248D02*
X624317Y1329248D01*
X634317Y1318813D02*
X639283Y1318813D01*
X639283Y1313847D01*
X634317Y1313847D01*
X634317Y1318813D01*
X634317Y1316277D02*
X639283Y1316277D01*
X639283Y1318707D02*
X634317Y1318707D01*
X629283Y1318813D02*
X624317Y1318813D01*
X629283Y1318813D02*
X629283Y1313847D01*
X624317Y1313847D01*
X624317Y1318813D01*
X624317Y1316277D02*
X629283Y1316277D01*
X629283Y1318707D02*
X624317Y1318707D01*
D13*
X487680Y1150620D03*
X817880Y1379220D03*
D12*
X684909Y1185145D02*
X679943Y1185145D01*
X679943Y1190111D01*
X684909Y1190111D01*
X684909Y1185145D01*
X684909Y1187575D02*
X679943Y1187575D01*
X679943Y1190005D02*
X684909Y1190005D01*
X689943Y1185145D02*
X694909Y1185145D01*
X689943Y1185145D02*
X689943Y1190111D01*
X694909Y1190111D01*
X694909Y1185145D01*
X694909Y1187575D02*
X689943Y1187575D01*
X689943Y1190005D02*
X694909Y1190005D01*
X646377Y1186110D02*
X641411Y1186110D01*
X641411Y1191076D01*
X646377Y1191076D01*
X646377Y1186110D01*
X646377Y1188540D02*
X641411Y1188540D01*
X641411Y1190970D02*
X646377Y1190970D01*
X651411Y1186110D02*
X656377Y1186110D01*
X651411Y1186110D02*
X651411Y1191076D01*
X656377Y1191076D01*
X656377Y1186110D01*
X656377Y1188540D02*
X651411Y1188540D01*
X651411Y1190970D02*
X656377Y1190970D01*
X666896Y1180336D02*
X666896Y1175370D01*
X661930Y1175370D01*
X661930Y1180336D01*
X666896Y1180336D01*
X666896Y1177800D02*
X661930Y1177800D01*
X661930Y1180230D02*
X666896Y1180230D01*
X666896Y1185370D02*
X666896Y1190336D01*
X666896Y1185370D02*
X661930Y1185370D01*
X661930Y1190336D01*
X666896Y1190336D01*
X666896Y1187800D02*
X661930Y1187800D01*
X661930Y1190230D02*
X666896Y1190230D01*
X646224Y1254360D02*
X641258Y1254360D01*
X641258Y1259326D01*
X646224Y1259326D01*
X646224Y1254360D01*
X646224Y1256790D02*
X641258Y1256790D01*
X641258Y1259220D02*
X646224Y1259220D01*
X651258Y1254360D02*
X656224Y1254360D01*
X651258Y1254360D02*
X651258Y1259326D01*
X656224Y1259326D01*
X656224Y1254360D01*
X656224Y1256790D02*
X651258Y1256790D01*
X651258Y1259220D02*
X656224Y1259220D01*
X664775Y1267539D02*
X664775Y1272505D01*
X669741Y1272505D01*
X669741Y1267539D01*
X664775Y1267539D01*
X664775Y1269969D02*
X669741Y1269969D01*
X669741Y1272399D02*
X664775Y1272399D01*
X664775Y1262505D02*
X664775Y1257539D01*
X664775Y1262505D02*
X669741Y1262505D01*
X669741Y1257539D01*
X664775Y1257539D01*
X664775Y1259969D02*
X669741Y1259969D01*
X669741Y1262399D02*
X664775Y1262399D01*
D14*
X662363Y1207511D02*
X662363Y1199811D01*
X667363Y1199811D02*
X667363Y1207511D01*
X672363Y1207511D02*
X672363Y1199811D01*
X677363Y1199811D02*
X677363Y1207511D01*
X682363Y1207511D02*
X682363Y1199811D01*
X689513Y1214661D02*
X697213Y1214661D01*
X697213Y1219661D02*
X689513Y1219661D01*
X689513Y1224661D02*
X697213Y1224661D01*
X697213Y1229661D02*
X689513Y1229661D01*
X689513Y1234661D02*
X697213Y1234661D01*
X682363Y1241811D02*
X682363Y1249511D01*
X677363Y1249511D02*
X677363Y1241811D01*
X672363Y1241811D02*
X672363Y1249511D01*
X667363Y1249511D02*
X667363Y1241811D01*
X662363Y1241811D02*
X662363Y1249511D01*
X655213Y1234661D02*
X647513Y1234661D01*
X647513Y1229661D02*
X655213Y1229661D01*
X655213Y1224661D02*
X647513Y1224661D01*
X647513Y1219661D02*
X655213Y1219661D01*
X655213Y1214661D02*
X647513Y1214661D01*
D15*
X659527Y1211825D02*
X685199Y1211825D01*
X659527Y1211825D02*
X659527Y1237497D01*
X685199Y1237497D01*
X685199Y1211825D01*
X685199Y1214534D02*
X659527Y1214534D01*
X659527Y1217243D02*
X685199Y1217243D01*
X685199Y1219952D02*
X659527Y1219952D01*
X659527Y1222661D02*
X685199Y1222661D01*
X685199Y1225370D02*
X659527Y1225370D01*
X659527Y1228079D02*
X685199Y1228079D01*
X685199Y1230788D02*
X659527Y1230788D01*
X659527Y1233497D02*
X685199Y1233497D01*
X685199Y1236206D02*
X659527Y1236206D01*
D16*
X710686Y1187434D02*
X717640Y1187434D01*
X710686Y1187434D02*
X710686Y1198388D01*
X717640Y1198388D01*
X717640Y1187434D01*
X717640Y1189876D02*
X710686Y1189876D01*
X710686Y1192318D02*
X717640Y1192318D01*
X717640Y1194760D02*
X710686Y1194760D01*
X710686Y1197202D02*
X717640Y1197202D01*
X728686Y1187434D02*
X735640Y1187434D01*
X728686Y1187434D02*
X728686Y1198388D01*
X735640Y1198388D01*
X735640Y1187434D01*
X735640Y1189876D02*
X728686Y1189876D01*
X728686Y1192318D02*
X735640Y1192318D01*
X735640Y1194760D02*
X728686Y1194760D01*
X728686Y1197202D02*
X735640Y1197202D01*
X717640Y1206484D02*
X710686Y1206484D01*
X710686Y1217438D01*
X717640Y1217438D01*
X717640Y1206484D01*
X717640Y1208926D02*
X710686Y1208926D01*
X710686Y1211368D02*
X717640Y1211368D01*
X717640Y1213810D02*
X710686Y1213810D01*
X710686Y1216252D02*
X717640Y1216252D01*
X728686Y1206484D02*
X735640Y1206484D01*
X728686Y1206484D02*
X728686Y1217438D01*
X735640Y1217438D01*
X735640Y1206484D01*
X735640Y1208926D02*
X728686Y1208926D01*
X728686Y1211368D02*
X735640Y1211368D01*
X735640Y1213810D02*
X728686Y1213810D01*
X728686Y1216252D02*
X735640Y1216252D01*
X717640Y1244584D02*
X710686Y1244584D01*
X710686Y1255538D01*
X717640Y1255538D01*
X717640Y1244584D01*
X717640Y1247026D02*
X710686Y1247026D01*
X710686Y1249468D02*
X717640Y1249468D01*
X717640Y1251910D02*
X710686Y1251910D01*
X710686Y1254352D02*
X717640Y1254352D01*
X728686Y1244584D02*
X735640Y1244584D01*
X728686Y1244584D02*
X728686Y1255538D01*
X735640Y1255538D01*
X735640Y1244584D01*
X735640Y1247026D02*
X728686Y1247026D01*
X728686Y1249468D02*
X735640Y1249468D01*
X735640Y1251910D02*
X728686Y1251910D01*
X728686Y1254352D02*
X735640Y1254352D01*
X717640Y1225534D02*
X710686Y1225534D01*
X710686Y1236488D01*
X717640Y1236488D01*
X717640Y1225534D01*
X717640Y1227976D02*
X710686Y1227976D01*
X710686Y1230418D02*
X717640Y1230418D01*
X717640Y1232860D02*
X710686Y1232860D01*
X710686Y1235302D02*
X717640Y1235302D01*
X728686Y1225534D02*
X735640Y1225534D01*
X728686Y1225534D02*
X728686Y1236488D01*
X735640Y1236488D01*
X735640Y1225534D01*
X735640Y1227976D02*
X728686Y1227976D01*
X728686Y1230418D02*
X735640Y1230418D01*
X735640Y1232860D02*
X728686Y1232860D01*
X728686Y1235302D02*
X735640Y1235302D01*
D17*
X743996Y1190303D02*
X743996Y1182785D01*
X743996Y1190303D02*
X752014Y1190303D01*
X752014Y1182785D01*
X743996Y1182785D01*
X743996Y1185166D02*
X752014Y1185166D01*
X752014Y1187547D02*
X743996Y1187547D01*
X743996Y1189928D02*
X752014Y1189928D01*
X743996Y1178703D02*
X743996Y1171185D01*
X743996Y1178703D02*
X752014Y1178703D01*
X752014Y1171185D01*
X743996Y1171185D01*
X743996Y1173566D02*
X752014Y1173566D01*
X752014Y1175947D02*
X743996Y1175947D01*
X743996Y1178328D02*
X752014Y1178328D01*
X744046Y1209608D02*
X744046Y1217126D01*
X752064Y1217126D01*
X752064Y1209608D01*
X744046Y1209608D01*
X744046Y1211989D02*
X752064Y1211989D01*
X752064Y1214370D02*
X744046Y1214370D01*
X744046Y1216751D02*
X752064Y1216751D01*
X744046Y1205526D02*
X744046Y1198008D01*
X744046Y1205526D02*
X752064Y1205526D01*
X752064Y1198008D01*
X744046Y1198008D01*
X744046Y1200389D02*
X752064Y1200389D01*
X752064Y1202770D02*
X744046Y1202770D01*
X744046Y1205151D02*
X752064Y1205151D01*
X752395Y1251526D02*
X752395Y1259044D01*
X752395Y1251526D02*
X744377Y1251526D01*
X744377Y1259044D01*
X752395Y1259044D01*
X752395Y1253907D02*
X744377Y1253907D01*
X744377Y1256288D02*
X752395Y1256288D01*
X752395Y1258669D02*
X744377Y1258669D01*
X752395Y1263126D02*
X752395Y1270644D01*
X752395Y1263126D02*
X744377Y1263126D01*
X744377Y1270644D01*
X752395Y1270644D01*
X752395Y1265507D02*
X744377Y1265507D01*
X744377Y1267888D02*
X752395Y1267888D01*
X752395Y1270269D02*
X744377Y1270269D01*
X752369Y1232907D02*
X752369Y1225389D01*
X744351Y1225389D01*
X744351Y1232907D01*
X752369Y1232907D01*
X752369Y1227770D02*
X744351Y1227770D01*
X744351Y1230151D02*
X752369Y1230151D01*
X752369Y1232532D02*
X744351Y1232532D01*
X752369Y1236989D02*
X752369Y1244507D01*
X752369Y1236989D02*
X744351Y1236989D01*
X744351Y1244507D01*
X752369Y1244507D01*
X752369Y1239370D02*
X744351Y1239370D01*
X744351Y1241751D02*
X752369Y1241751D01*
X752369Y1244132D02*
X744351Y1244132D01*
D18*
X529779Y1358322D02*
X529779Y1377264D01*
X553721Y1377264D01*
X553721Y1358322D01*
X529779Y1358322D01*
X529779Y1360776D02*
X553721Y1360776D01*
X553721Y1363230D02*
X529779Y1363230D01*
X529779Y1365684D02*
X553721Y1365684D01*
X553721Y1368138D02*
X529779Y1368138D01*
X529779Y1370592D02*
X553721Y1370592D01*
X553721Y1373046D02*
X529779Y1373046D01*
X529779Y1375500D02*
X553721Y1375500D01*
X529779Y1284264D02*
X529779Y1265322D01*
X529779Y1284264D02*
X553721Y1284264D01*
X553721Y1265322D01*
X529779Y1265322D01*
X529779Y1267776D02*
X553721Y1267776D01*
X553721Y1270230D02*
X529779Y1270230D01*
X529779Y1272684D02*
X553721Y1272684D01*
X553721Y1275138D02*
X529779Y1275138D01*
X529779Y1277592D02*
X553721Y1277592D01*
X553721Y1280046D02*
X529779Y1280046D01*
X529779Y1282500D02*
X553721Y1282500D01*
X598779Y1339322D02*
X598779Y1358264D01*
X622721Y1358264D01*
X622721Y1339322D01*
X598779Y1339322D01*
X598779Y1341776D02*
X622721Y1341776D01*
X622721Y1344230D02*
X598779Y1344230D01*
X598779Y1346684D02*
X622721Y1346684D01*
X622721Y1349138D02*
X598779Y1349138D01*
X598779Y1351592D02*
X622721Y1351592D01*
X622721Y1354046D02*
X598779Y1354046D01*
X598779Y1356500D02*
X622721Y1356500D01*
X593221Y1222322D02*
X574279Y1222322D01*
X574279Y1246264D01*
X593221Y1246264D01*
X593221Y1222322D01*
X593221Y1224776D02*
X574279Y1224776D01*
X574279Y1227230D02*
X593221Y1227230D01*
X593221Y1229684D02*
X574279Y1229684D01*
X574279Y1232138D02*
X593221Y1232138D01*
X593221Y1234592D02*
X574279Y1234592D01*
X574279Y1237046D02*
X593221Y1237046D01*
X593221Y1239500D02*
X574279Y1239500D01*
X574279Y1241954D02*
X593221Y1241954D01*
X593221Y1244408D02*
X574279Y1244408D01*
D11*
X622795Y1371248D02*
X622795Y1382338D01*
X622795Y1371248D02*
X598705Y1371248D01*
X598705Y1382338D01*
X622795Y1382338D01*
X622795Y1373560D02*
X598705Y1373560D01*
X598705Y1375872D02*
X622795Y1375872D01*
X622795Y1378184D02*
X598705Y1378184D01*
X598705Y1380496D02*
X622795Y1380496D01*
D19*
X576250Y1356793D03*
X576250Y1286793D03*
D12*
X630514Y1175163D02*
X635480Y1175163D01*
X630514Y1175163D02*
X630514Y1180129D01*
X635480Y1180129D01*
X635480Y1175163D01*
X635480Y1177593D02*
X630514Y1177593D01*
X630514Y1180023D02*
X635480Y1180023D01*
X640514Y1175163D02*
X645480Y1175163D01*
X640514Y1175163D02*
X640514Y1180129D01*
X645480Y1180129D01*
X645480Y1175163D01*
X645480Y1177593D02*
X640514Y1177593D01*
X640514Y1180023D02*
X645480Y1180023D01*
X635226Y1267441D02*
X630260Y1267441D01*
X630260Y1272407D01*
X635226Y1272407D01*
X635226Y1267441D01*
X635226Y1269871D02*
X630260Y1269871D01*
X630260Y1272301D02*
X635226Y1272301D01*
X640260Y1267441D02*
X645226Y1267441D01*
X640260Y1267441D02*
X640260Y1272407D01*
X645226Y1272407D01*
X645226Y1267441D01*
X645226Y1269871D02*
X640260Y1269871D01*
X640260Y1272301D02*
X645226Y1272301D01*
X656127Y1272436D02*
X656127Y1267470D01*
X651161Y1267470D01*
X651161Y1272436D01*
X656127Y1272436D01*
X656127Y1269900D02*
X651161Y1269900D01*
X651161Y1272330D02*
X656127Y1272330D01*
X656127Y1277470D02*
X656127Y1282436D01*
X656127Y1277470D02*
X651161Y1277470D01*
X651161Y1282436D01*
X656127Y1282436D01*
X656127Y1279900D02*
X651161Y1279900D01*
X651161Y1282330D02*
X656127Y1282330D01*
X650856Y1180303D02*
X650856Y1175337D01*
X650856Y1180303D02*
X655822Y1180303D01*
X655822Y1175337D01*
X650856Y1175337D01*
X650856Y1177767D02*
X655822Y1177767D01*
X655822Y1180197D02*
X650856Y1180197D01*
X650856Y1170303D02*
X650856Y1165337D01*
X650856Y1170303D02*
X655822Y1170303D01*
X655822Y1165337D01*
X650856Y1165337D01*
X650856Y1167767D02*
X655822Y1167767D01*
X655822Y1170197D02*
X650856Y1170197D01*
X679892Y1257611D02*
X684858Y1257611D01*
X679892Y1257611D02*
X679892Y1262577D01*
X684858Y1262577D01*
X684858Y1257611D01*
X684858Y1260041D02*
X679892Y1260041D01*
X679892Y1262471D02*
X684858Y1262471D01*
X689892Y1257611D02*
X694858Y1257611D01*
X689892Y1257611D02*
X689892Y1262577D01*
X694858Y1262577D01*
X694858Y1257611D01*
X694858Y1260041D02*
X689892Y1260041D01*
X689892Y1262471D02*
X694858Y1262471D01*
X625418Y1227402D02*
X625418Y1222436D01*
X620452Y1222436D01*
X620452Y1227402D01*
X625418Y1227402D01*
X625418Y1224866D02*
X620452Y1224866D01*
X620452Y1227296D02*
X625418Y1227296D01*
X625418Y1232436D02*
X625418Y1237402D01*
X625418Y1232436D02*
X620452Y1232436D01*
X620452Y1237402D01*
X625418Y1237402D01*
X625418Y1234866D02*
X620452Y1234866D01*
X620452Y1237296D02*
X625418Y1237296D01*
D10*
X462280Y1366520D03*
X843280Y1366520D03*
D20*
X830580Y1212420D03*
D21*
X830580Y1247420D03*
X830580Y1282420D03*
X830580Y1317420D03*
D20*
X769341Y1355979D03*
D21*
X734341Y1355979D03*
D22*
X745823Y1310447D02*
X745823Y1303417D01*
X738793Y1303417D01*
X738793Y1310447D01*
X745823Y1310447D01*
X745823Y1307686D02*
X738793Y1307686D01*
X763363Y1310447D02*
X763363Y1303417D01*
X756333Y1303417D01*
X756333Y1310447D01*
X763363Y1310447D01*
X763363Y1307686D02*
X756333Y1307686D01*
D12*
X729787Y1299436D02*
X729787Y1294470D01*
X724821Y1294470D01*
X724821Y1299436D01*
X729787Y1299436D01*
X729787Y1296900D02*
X724821Y1296900D01*
X724821Y1299330D02*
X729787Y1299330D01*
X729787Y1304470D02*
X729787Y1309436D01*
X729787Y1304470D02*
X724821Y1304470D01*
X724821Y1309436D01*
X729787Y1309436D01*
X729787Y1306900D02*
X724821Y1306900D01*
X724821Y1309330D02*
X729787Y1309330D01*
D20*
X474980Y1317420D03*
D21*
X474980Y1282420D03*
X474980Y1247420D03*
X474980Y1212420D03*
D16*
X698662Y1321624D02*
X698662Y1328578D01*
X709616Y1328578D01*
X709616Y1321624D01*
X698662Y1321624D01*
X698662Y1324066D02*
X709616Y1324066D01*
X709616Y1326508D02*
X698662Y1326508D01*
X698662Y1310578D02*
X698662Y1303624D01*
X698662Y1310578D02*
X709616Y1310578D01*
X709616Y1303624D01*
X698662Y1303624D01*
X698662Y1306066D02*
X709616Y1306066D01*
X709616Y1308508D02*
X698662Y1308508D01*
D12*
X614623Y1227351D02*
X614623Y1222385D01*
X609657Y1222385D01*
X609657Y1227351D01*
X614623Y1227351D01*
X614623Y1224815D02*
X609657Y1224815D01*
X609657Y1227245D02*
X614623Y1227245D01*
X614623Y1232385D02*
X614623Y1237351D01*
X614623Y1232385D02*
X609657Y1232385D01*
X609657Y1237351D01*
X614623Y1237351D01*
X614623Y1234815D02*
X609657Y1234815D01*
X609657Y1237245D02*
X614623Y1237245D01*
X679943Y1174553D02*
X684909Y1174553D01*
X679943Y1174553D02*
X679943Y1179519D01*
X684909Y1179519D01*
X684909Y1174553D01*
X684909Y1176983D02*
X679943Y1176983D01*
X679943Y1179413D02*
X684909Y1179413D01*
X689943Y1174553D02*
X694909Y1174553D01*
X689943Y1174553D02*
X689943Y1179519D01*
X694909Y1179519D01*
X694909Y1174553D01*
X694909Y1176983D02*
X689943Y1176983D01*
X689943Y1179413D02*
X694909Y1179413D01*
X684858Y1268660D02*
X679892Y1268660D01*
X679892Y1273626D01*
X684858Y1273626D01*
X684858Y1268660D01*
X684858Y1271090D02*
X679892Y1271090D01*
X679892Y1273520D02*
X684858Y1273520D01*
X689892Y1268660D02*
X694858Y1268660D01*
X689892Y1268660D02*
X689892Y1273626D01*
X694858Y1273626D01*
X694858Y1268660D01*
X694858Y1271090D02*
X689892Y1271090D01*
X689892Y1273520D02*
X694858Y1273520D01*
D13*
X-26238Y1390650D03*
X894918Y1390650D03*
D23*
X-35293Y63500D02*
X-35290Y63722D01*
X-35282Y63944D01*
X-35268Y64166D01*
X-35249Y64388D01*
X-35225Y64608D01*
X-35195Y64829D01*
X-35160Y65048D01*
X-35119Y65267D01*
X-35073Y65484D01*
X-35022Y65700D01*
X-34965Y65915D01*
X-34903Y66129D01*
X-34836Y66340D01*
X-34764Y66551D01*
X-34686Y66759D01*
X-34604Y66965D01*
X-34516Y67169D01*
X-34424Y67372D01*
X-34326Y67571D01*
X-34224Y67768D01*
X-34117Y67963D01*
X-34005Y68155D01*
X-33888Y68344D01*
X-33767Y68531D01*
X-33641Y68714D01*
X-33511Y68894D01*
X-33376Y69071D01*
X-33238Y69244D01*
X-33095Y69414D01*
X-32947Y69581D01*
X-32796Y69744D01*
X-32641Y69903D01*
X-32482Y70058D01*
X-32319Y70209D01*
X-32152Y70357D01*
X-31982Y70500D01*
X-31809Y70638D01*
X-31632Y70773D01*
X-31452Y70903D01*
X-31269Y71029D01*
X-31082Y71150D01*
X-30893Y71267D01*
X-30701Y71379D01*
X-30506Y71486D01*
X-30309Y71588D01*
X-30110Y71686D01*
X-29907Y71778D01*
X-29703Y71866D01*
X-29497Y71948D01*
X-29289Y72026D01*
X-29078Y72098D01*
X-28867Y72165D01*
X-28653Y72227D01*
X-28438Y72284D01*
X-28222Y72335D01*
X-28005Y72381D01*
X-27786Y72422D01*
X-27567Y72457D01*
X-27346Y72487D01*
X-27126Y72511D01*
X-26904Y72530D01*
X-26682Y72544D01*
X-26460Y72552D01*
X-26238Y72555D01*
X-26016Y72552D01*
X-25794Y72544D01*
X-25572Y72530D01*
X-25350Y72511D01*
X-25130Y72487D01*
X-24909Y72457D01*
X-24690Y72422D01*
X-24471Y72381D01*
X-24254Y72335D01*
X-24038Y72284D01*
X-23823Y72227D01*
X-23609Y72165D01*
X-23398Y72098D01*
X-23187Y72026D01*
X-22979Y71948D01*
X-22773Y71866D01*
X-22569Y71778D01*
X-22366Y71686D01*
X-22167Y71588D01*
X-21970Y71486D01*
X-21775Y71379D01*
X-21583Y71267D01*
X-21394Y71150D01*
X-21207Y71029D01*
X-21024Y70903D01*
X-20844Y70773D01*
X-20667Y70638D01*
X-20494Y70500D01*
X-20324Y70357D01*
X-20157Y70209D01*
X-19994Y70058D01*
X-19835Y69903D01*
X-19680Y69744D01*
X-19529Y69581D01*
X-19381Y69414D01*
X-19238Y69244D01*
X-19100Y69071D01*
X-18965Y68894D01*
X-18835Y68714D01*
X-18709Y68531D01*
X-18588Y68344D01*
X-18471Y68155D01*
X-18359Y67963D01*
X-18252Y67768D01*
X-18150Y67571D01*
X-18052Y67372D01*
X-17960Y67169D01*
X-17872Y66965D01*
X-17790Y66759D01*
X-17712Y66551D01*
X-17640Y66340D01*
X-17573Y66129D01*
X-17511Y65915D01*
X-17454Y65700D01*
X-17403Y65484D01*
X-17357Y65267D01*
X-17316Y65048D01*
X-17281Y64829D01*
X-17251Y64608D01*
X-17227Y64388D01*
X-17208Y64166D01*
X-17194Y63944D01*
X-17186Y63722D01*
X-17183Y63500D01*
X-17186Y63278D01*
X-17194Y63056D01*
X-17208Y62834D01*
X-17227Y62612D01*
X-17251Y62392D01*
X-17281Y62171D01*
X-17316Y61952D01*
X-17357Y61733D01*
X-17403Y61516D01*
X-17454Y61300D01*
X-17511Y61085D01*
X-17573Y60871D01*
X-17640Y60660D01*
X-17712Y60449D01*
X-17790Y60241D01*
X-17872Y60035D01*
X-17960Y59831D01*
X-18052Y59628D01*
X-18150Y59429D01*
X-18252Y59232D01*
X-18359Y59037D01*
X-18471Y58845D01*
X-18588Y58656D01*
X-18709Y58469D01*
X-18835Y58286D01*
X-18965Y58106D01*
X-19100Y57929D01*
X-19238Y57756D01*
X-19381Y57586D01*
X-19529Y57419D01*
X-19680Y57256D01*
X-19835Y57097D01*
X-19994Y56942D01*
X-20157Y56791D01*
X-20324Y56643D01*
X-20494Y56500D01*
X-20667Y56362D01*
X-20844Y56227D01*
X-21024Y56097D01*
X-21207Y55971D01*
X-21394Y55850D01*
X-21583Y55733D01*
X-21775Y55621D01*
X-21970Y55514D01*
X-22167Y55412D01*
X-22366Y55314D01*
X-22569Y55222D01*
X-22773Y55134D01*
X-22979Y55052D01*
X-23187Y54974D01*
X-23398Y54902D01*
X-23609Y54835D01*
X-23823Y54773D01*
X-24038Y54716D01*
X-24254Y54665D01*
X-24471Y54619D01*
X-24690Y54578D01*
X-24909Y54543D01*
X-25130Y54513D01*
X-25350Y54489D01*
X-25572Y54470D01*
X-25794Y54456D01*
X-26016Y54448D01*
X-26238Y54445D01*
X-26460Y54448D01*
X-26682Y54456D01*
X-26904Y54470D01*
X-27126Y54489D01*
X-27346Y54513D01*
X-27567Y54543D01*
X-27786Y54578D01*
X-28005Y54619D01*
X-28222Y54665D01*
X-28438Y54716D01*
X-28653Y54773D01*
X-28867Y54835D01*
X-29078Y54902D01*
X-29289Y54974D01*
X-29497Y55052D01*
X-29703Y55134D01*
X-29907Y55222D01*
X-30110Y55314D01*
X-30309Y55412D01*
X-30506Y55514D01*
X-30701Y55621D01*
X-30893Y55733D01*
X-31082Y55850D01*
X-31269Y55971D01*
X-31452Y56097D01*
X-31632Y56227D01*
X-31809Y56362D01*
X-31982Y56500D01*
X-32152Y56643D01*
X-32319Y56791D01*
X-32482Y56942D01*
X-32641Y57097D01*
X-32796Y57256D01*
X-32947Y57419D01*
X-33095Y57586D01*
X-33238Y57756D01*
X-33376Y57929D01*
X-33511Y58106D01*
X-33641Y58286D01*
X-33767Y58469D01*
X-33888Y58656D01*
X-34005Y58845D01*
X-34117Y59037D01*
X-34224Y59232D01*
X-34326Y59429D01*
X-34424Y59628D01*
X-34516Y59831D01*
X-34604Y60035D01*
X-34686Y60241D01*
X-34764Y60449D01*
X-34836Y60660D01*
X-34903Y60871D01*
X-34965Y61085D01*
X-35022Y61300D01*
X-35073Y61516D01*
X-35119Y61733D01*
X-35160Y61952D01*
X-35195Y62171D01*
X-35225Y62392D01*
X-35249Y62612D01*
X-35268Y62834D01*
X-35282Y63056D01*
X-35290Y63278D01*
X-35293Y63500D01*
D24*
X-26238Y63500D03*
M02*
