M48
;GenerationSoftware,Autodesk,EAGLE,9.6.2*%
;CreationDate,2022-08-19T15:53:11Z*%
FMAT,2
ICI,OFF
METRIC,TZ,000.000
T5C0.305
T4C0.381
T3C1.200
T2C2.000
T1C3.048
%
G90
M71
T1
X84328Y87884
X2540Y2540
X40640Y2540
X84328Y136652
X46228Y136652
X2540Y22860
X40640Y22860
X46228Y2540
X84328Y2540
X46228Y108204
X84328Y108204
X46228Y22860
X84328Y22860
X2540Y30988
X40640Y30988
X2540Y116332
X40640Y116332
X2540Y51308
X40640Y51308
X46228Y30988
X84328Y30988
X2540Y136652
X40640Y136652
X46228Y51308
X84328Y51308
X2540Y59436
X40640Y59436
X46228Y116332
X84328Y116332
X2540Y79756
X40640Y79756
X46228Y59436
X84328Y59436
X46228Y79756
X84328Y79756
X2540Y87884
X40640Y87884
X2540Y108204
X40640Y108204
X46228Y87884
T2
X13937Y21887
X13937Y14887
X57625Y21887
X57625Y14887
X13937Y50335
X13937Y43335
X57625Y50335
X57625Y43335
X13937Y78783
X13937Y71783
X57625Y78783
X13937Y135679
X57625Y107231
X57625Y100231
X57625Y71783
X13937Y107231
X13937Y100231
X57625Y135679
X57625Y128679
X13937Y128679
T3
X83058Y35898
X39370Y7450
X39370Y10950
X39370Y14450
X39370Y17950
X33246Y21806
X29746Y21806
X3810Y17950
X3810Y14450
X3810Y10950
X3810Y7450
X47498Y131742
X47498Y128242
X83058Y7450
X83058Y10950
X83058Y14450
X83058Y17950
X76934Y21806
X73434Y21806
X47498Y17950
X47498Y14450
X47498Y10950
X47498Y7450
X47498Y124742
X47498Y121242
X39370Y35898
X39370Y39398
X39370Y42898
X39370Y46398
X33246Y50254
X29746Y50254
X3810Y46398
X3810Y42898
X3810Y39398
X3810Y35898
X83058Y39398
X83058Y42898
X83058Y46398
X76934Y50254
X73434Y50254
X47498Y46398
X47498Y42898
X47498Y39398
X47498Y35898
X39370Y64346
X39370Y67846
X39370Y71346
X39370Y74846
X33246Y78702
X29746Y78702
X3810Y74846
X3810Y71346
X3810Y67846
X3810Y64346
X83058Y64346
X83058Y67846
X83058Y71346
X83058Y74846
X76934Y78702
X73434Y78702
X47498Y74846
X47498Y71346
X47498Y67846
X47498Y64346
X39370Y92794
X39370Y96294
X39370Y99794
X39370Y103294
X33246Y107150
X29746Y107150
X3810Y103294
X3810Y99794
X3810Y96294
X3810Y92794
X83058Y92794
X83058Y96294
X83058Y99794
X83058Y103294
X76934Y107150
X73434Y107150
X47498Y103294
X47498Y99794
X47498Y96294
X47498Y92794
X39370Y121242
X39370Y124742
X39370Y128242
X39370Y131742
X33246Y135598
X29746Y135598
X3810Y131742
X3810Y128242
X3810Y124742
X3810Y121242
X83058Y121242
X83058Y124742
X83058Y128242
X83058Y131742
X76934Y135598
X73434Y135598
T4
X21590Y21590
X21590Y17780
X65278Y21590
X65278Y17780
X21590Y106934
X21590Y103124
X21590Y135382
X21590Y131572
X65278Y106934
X65278Y103124
X65278Y50038
X65278Y46228
X21590Y46228
X21590Y50038
X65278Y78486
X65278Y74676
X21590Y78486
X21590Y74676
X65278Y135382
X65278Y131572
T5
X66012Y50549
X63040Y48920
X62682Y44486
X60173Y36043
X62296Y39032
X68235Y31425
X68245Y42636
X69152Y50912
X68235Y30663
X68997Y30663
X68245Y43398
X69007Y43398
X68997Y31425
X69007Y42636
X56388Y37973
X81760Y49817
X23371Y78539
X6566Y79667
X32228Y69695
X32253Y67206
X32261Y63218
X32324Y60808
X23543Y66218
X22903Y65570
X23536Y64879
X24206Y65575
X28791Y71638
X26845Y69629
X23553Y62276
X28600Y65258
X28837Y58966
X26873Y61397
X19731Y61943
X20752Y67813
X22261Y72639
X25347Y77295
X21626Y58712
X6891Y59378
X35336Y59324
X26744Y72702
X18852Y68778
X42507Y77201
X42431Y61504
X19291Y78318
X12332Y77556
X18148Y71714
X12078Y65568
X20056Y66281
X20066Y64788
X22324Y78997
X19352Y77368
X18994Y72934
X16485Y64491
X18608Y67480
X24547Y59873
X24557Y71084
X25464Y79360
X24547Y59111
X25309Y59111
X24557Y71846
X25319Y71846
X25309Y59873
X25319Y71084
X12700Y66421
X38072Y78265
X67059Y78539
X50254Y79667
X75916Y69695
X75941Y67206
X75949Y63218
X76012Y60808
X67231Y66218
X66591Y65570
X67224Y64879
X67894Y65575
X72479Y71638
X70533Y69629
X67241Y62276
X72288Y65258
X72525Y58966
X70561Y61397
X63419Y61943
X64440Y67813
X65949Y72639
X69035Y77295
X65314Y58712
X50579Y59378
X79024Y59324
X70432Y72702
X62540Y68778
X86195Y77201
X86119Y61504
X62979Y78318
X56020Y77556
X61836Y71714
X55766Y65568
X63744Y66281
X63754Y64788
X66012Y78997
X63040Y77368
X62682Y72934
X60173Y64491
X62296Y67480
X68235Y59873
X68245Y71084
X69152Y79360
X68235Y59111
X68997Y59111
X68245Y71846
X69007Y71846
X68997Y59873
X69007Y71084
X56388Y66421
X81760Y78265
X23371Y106987
X6566Y108115
X32228Y98143
X32253Y95654
X32261Y91666
X32324Y89256
X23543Y94666
X22903Y94018
X23536Y93327
X24206Y94023
X28791Y100086
X26845Y98077
X23553Y90724
X28600Y93706
X28837Y87414
X26873Y89845
X19731Y90391
X20752Y96261
X22261Y101087
X25347Y105743
X21626Y87160
X6891Y87826
X35336Y87772
X26744Y101150
X18852Y97226
X42507Y105649
X42431Y89952
X19291Y106766
X12332Y106004
X18148Y100162
X12078Y94016
X20056Y94729
X20066Y93236
X22324Y107445
X19352Y105816
X18994Y101382
X16485Y92939
X18608Y95928
X24547Y88321
X24557Y99532
X25464Y107808
X63040Y20472
X25309Y87559
X24557Y100294
X25319Y100294
X25309Y88321
X25319Y99532
X12700Y94869
X38072Y106713
X67059Y106987
X50254Y108115
X75916Y98143
X75941Y95654
X75949Y91666
X76012Y89256
X67231Y94666
X66591Y94018
X67224Y93327
X67894Y94023
X72479Y100086
X70533Y98077
X67241Y90724
X72288Y93706
X72525Y87414
X70561Y89845
X63419Y90391
X64440Y96261
X65949Y101087
X69035Y105743
X65314Y87160
X50579Y87826
X79024Y87772
X70432Y101150
X62540Y97226
X86195Y105649
X86119Y89952
X62979Y106766
X56020Y106004
X61836Y100162
X55766Y94016
X63744Y94729
X63754Y93236
X66012Y107445
X63040Y105816
X62682Y101382
X60173Y92939
X62296Y95928
X68235Y88321
X68245Y99532
X69152Y107808
X68235Y87559
X68997Y87559
X68245Y100294
X69007Y100294
X68997Y88321
X69007Y99532
X56388Y94869
X81760Y106713
X23371Y135435
X6566Y136563
X32228Y126591
X32253Y124102
X32261Y120114
X32324Y117704
X23543Y123114
X22903Y122466
X23536Y121775
X24206Y122471
X28791Y128534
X26845Y126525
X23553Y119172
X28600Y122154
X28837Y115862
X26873Y118293
X19731Y118839
X20752Y124709
X22261Y129535
X25347Y134191
X21626Y115608
X6891Y116274
X35336Y116220
X26744Y129598
X18852Y125674
X42507Y134097
X42431Y118400
X19291Y135214
X12332Y134452
X18148Y128610
X12078Y122464
X20056Y123177
X20066Y121684
X22324Y135893
X19352Y134264
X18994Y129830
X16485Y121387
X18608Y124376
X24547Y116769
X24557Y127980
X25464Y136256
X24547Y116007
X25309Y116007
X24557Y128742
X25319Y128742
X25309Y116769
X25319Y127980
X12700Y123317
X38072Y135161
X67059Y135435
X50254Y136563
X75916Y126591
X75941Y124102
X75949Y120114
X76012Y117704
X67231Y123114
X66591Y122466
X67224Y121775
X67894Y122471
X72479Y128534
X70533Y126525
X67241Y119172
X72288Y122154
X72525Y115862
X70561Y118293
X63419Y118839
X64440Y124709
X65949Y129535
X69035Y134191
X65314Y115608
X50579Y116274
X79024Y116220
X70432Y129598
X62540Y125674
X86195Y134097
X86119Y118400
X62979Y135214
X56020Y134452
X61836Y128610
X55766Y122464
X63744Y123177
X63754Y121684
X66012Y135893
X63040Y134264
X62682Y129830
X60173Y121387
X62296Y124376
X68235Y116769
X68245Y127980
X69152Y136256
X68235Y116007
X68997Y116007
X68245Y128742
X69007Y128742
X68997Y116769
X69007Y127980
X56388Y123317
X81760Y135161
X23371Y21643
X6566Y22771
X32228Y12799
X32253Y10310
X32261Y6322
X32324Y3912
X23543Y9322
X22903Y8674
X23536Y7983
X24206Y8679
X28791Y14742
X26845Y12733
X23553Y5380
X28600Y8362
X28837Y2070
X26873Y4501
X19731Y5047
X20752Y10917
X22261Y15743
X25347Y20399
X21626Y1816
X6891Y2482
X35336Y2428
X26744Y15806
X18852Y11882
X42507Y20305
X42431Y4608
X19291Y21422
X12332Y20660
X18148Y14818
X12078Y8672
X20056Y9385
X20066Y7892
X22324Y22101
X19352Y20472
X18994Y16038
X16485Y7595
X18608Y10584
X24547Y2977
X24557Y14188
X25464Y22464
X24547Y2215
X25309Y2215
X24557Y14950
X25319Y14950
X25309Y2977
X25319Y14188
X12700Y9525
X38072Y21369
X67059Y21643
X50254Y22771
X75916Y12799
X75941Y10310
X75949Y6322
X76012Y3912
X67231Y9322
X66591Y8674
X67224Y7983
X67894Y8679
X72479Y14742
X70533Y12733
X67241Y5380
X72288Y8362
X72525Y2070
X70561Y4501
X63419Y5047
X64440Y10917
X65949Y15743
X69035Y20399
X65314Y1816
X50579Y2482
X79024Y2428
X70432Y15806
X62540Y11882
X86195Y20305
X86119Y4608
X62979Y21422
X56020Y20660
X61836Y14818
X55766Y8672
X63744Y9385
X63754Y7892
X66012Y22101
X62682Y16038
X60173Y7595
X62296Y10584
X68235Y2977
X68245Y14188
X69152Y22464
X68235Y2215
X68997Y2215
X68245Y14950
X69007Y14950
X68997Y2977
X69007Y14188
X56388Y9525
X24547Y87559
X81760Y21369
X23371Y50091
X6566Y51219
X32228Y41247
X32253Y38758
X32261Y34770
X32324Y32360
X23543Y37770
X22903Y37122
X23536Y36431
X24206Y37127
X28791Y43190
X26845Y41181
X23553Y33828
X28600Y36810
X28837Y30518
X26873Y32949
X19731Y33495
X20752Y39365
X22261Y44191
X25347Y48847
X21626Y30264
X6891Y30930
X35336Y30876
X26744Y44254
X18852Y40330
X42507Y48753
X42431Y33056
X19291Y49870
X12332Y49108
X18148Y43266
X12078Y37120
X20056Y37833
X20066Y36340
X22324Y50549
X19352Y48920
X18994Y44486
X16485Y36043
X18608Y39032
X24547Y31425
X24557Y42636
X25464Y50912
X24547Y30663
X25309Y30663
X24557Y43398
X25319Y43398
X25309Y31425
X25319Y42636
X12700Y37973
X38072Y49817
X67059Y50091
X50254Y51219
X75916Y41247
X75941Y38758
X75949Y34770
X76012Y32360
X67231Y37770
X66591Y37122
X67224Y36431
X67894Y37127
X72479Y43190
X70533Y41181
X67241Y33828
X72288Y36810
X72525Y30518
X70561Y32949
X63419Y33495
X64440Y39365
X65949Y44191
X69035Y48847
X65314Y30264
X50579Y30930
X79024Y30876
X70432Y44254
X62540Y40330
X86195Y48753
X86119Y33056
X62979Y49870
X56020Y49108
X61836Y43266
X55766Y37120
X63744Y37833
X63754Y36340
M30