*
*
G04 PADS Layout (Build Number 2006.45.1) generated Gerber (RS-274-X) file*
G04 PC Version=2.1*
*
%IN "COMMXEL_REVE_SMD(191008"*%
*
%MOIN*%
*
%FSLAX35Y35*%
*
*
*
*
G04 PC Standard Apertures*
*
*
G04 Thermal Relief Aperture macro.*
%AMTER*
1,1,$1,0,0*
1,0,$1-$2,0,0*
21,0,$3,$4,0,0,45*
21,0,$3,$4,0,0,135*
%
*
*
G04 Annular Aperture macro.*
%AMANN*
1,1,$1,0,0*
1,0,$2,0,0*
%
*
*
G04 Odd Aperture macro.*
%AMODD*
1,1,$1,0,0*
1,0,$1-0.005,0,0*
%
*
*
G04 PC Custom Aperture Macros*
*
*
*
*
*
*
G04 PC Aperture Table*
*
%ADD010C,0.00394*%
%ADD012C,0.01*%
%ADD015C,0.00787*%
%ADD163C,0.001*%
*
*
*
*
G04 PC Custom Flashes*
G04 Layer Name COMMXEL_REVE_SMD(191008 - flashes*
%LPD*%
*
*
G04 PC Circuitry*
G04 Layer Name COMMXEL_REVE_SMD(191008 - circuitry*
%LPD*%
*
G54D10*
G01X396063Y592077D02*
X400000D01*
X396063Y596014*
X400000*
X396063Y592077*
X398819D02*
X402756D01*
X398819Y596014*
X402756*
X398819Y592077*
X398031Y595620D02*
G75*
G03Y592470I0J-1575D01*
G01X398031D02*
X400787D01*
G03Y595620I0J1575*
G01X398031*
X396063Y620423D02*
X400000D01*
X396063Y624360*
X400000*
X396063Y620423*
X398819D02*
X402756D01*
X398819Y624360*
X402756*
X398819Y620423*
X398031Y623967D02*
G03Y620817I0J-1575D01*
G01X398031D02*
X400787D01*
G03Y623967I0J1575*
G01X398031*
X408858Y596703D02*
X412795Y600640D01*
Y596703*
X408858Y600640*
Y596703*
Y615797D02*
X412795Y619734D01*
Y615797*
X408858Y619734*
Y615797*
X524606Y405512D02*
X528543D01*
Y409449*
X524606*
Y405512*
X526575Y407480D02*
Y409449D01*
X524606Y415354D02*
X528543D01*
Y419291*
X524606*
Y415354*
X526575Y417323D02*
Y419291D01*
X524606Y425197D02*
X528543D01*
Y429134*
X524606*
Y425197*
X526575Y427165D02*
Y429134D01*
X524606Y435039D02*
X528543D01*
Y438976*
X524606*
Y435039*
X526575Y437008D02*
Y438976D01*
X432087Y435039D02*
X436024D01*
Y438976*
X432087*
Y435039*
X434055Y437008D02*
Y438976D01*
X432087Y425197D02*
X436024D01*
Y429134*
X432087*
Y425197*
X434055Y427165D02*
Y429134D01*
X432087Y415354D02*
X436024D01*
Y419291*
X432087*
Y415354*
X434055Y417323D02*
Y419291D01*
X432087Y405512D02*
X436024D01*
Y409449*
X432087*
Y405512*
X434055Y407480D02*
Y409449D01*
X507874Y405512D02*
X511811D01*
Y409449*
X507874*
Y405512*
X509843Y407480D02*
Y409449D01*
X507874Y415354D02*
X511811D01*
Y419291*
X507874*
Y415354*
X509843Y417323D02*
Y419291D01*
X507874Y425197D02*
X511811D01*
Y429134*
X507874*
Y425197*
X509843Y427165D02*
Y429134D01*
X557087Y601378D02*
X561024D01*
X559055Y599409D02*
Y603346D01*
X560755Y604946D02*
X560039Y602362D01*
X560755Y604946D02*
X561471Y602362D01*
X560308Y603223D02*
X561203D01*
X557087Y609252D02*
X561024D01*
X559055Y607283D02*
Y611220D01*
X560755Y612820D02*
X560039Y610236D01*
X560755Y612820D02*
X561471Y610236D01*
X560308Y611097D02*
X561203D01*
X557087Y617126D02*
X561024D01*
X559055Y615157D02*
Y619094D01*
X560755Y620694D02*
X560039Y618110D01*
X560755Y620694D02*
X561471Y618110D01*
X560308Y618971D02*
X561203D01*
X557087Y625000D02*
X561024D01*
X559055Y623031D02*
Y626969D01*
X560755Y628568D02*
X560039Y625984D01*
X560755Y628568D02*
X561471Y625984D01*
X560308Y626845D02*
X561203D01*
X448819Y425197D02*
X452756D01*
Y429134*
X448819*
Y425197*
X450787Y427165D02*
Y429134D01*
X448819Y415354D02*
X452756D01*
Y419291*
X448819*
Y415354*
X450787Y417323D02*
Y419291D01*
X448819Y405512D02*
X452756D01*
Y409449*
X448819*
Y405512*
X450787Y407480D02*
Y409449D01*
X557087Y581693D02*
X561024D01*
X559055Y579724D02*
Y583661D01*
X560755Y585261D02*
X560039Y582677D01*
X560755Y585261D02*
X561471Y582677D01*
X560308Y583538D02*
X561203D01*
X557087Y589567D02*
X561024D01*
X559055Y587598D02*
Y591535D01*
X560755Y593135D02*
X560039Y590551D01*
X560755Y593135D02*
X561471Y590551D01*
X560308Y591412D02*
X561203D01*
X453346Y674882D02*
X457283D01*
X455315Y672913D02*
Y676850D01*
X457641Y677835D02*
X457552Y678081D01*
X457373Y678327*
X457194Y678450*
X456836*
X456657Y678327*
X456478Y678081*
X456389Y677835*
X456299Y677466*
Y676850*
X456389Y676481*
X456478Y676235*
X456657Y675989*
X456836Y675866*
X457194*
X457373Y675989*
X457552Y676235*
X457641Y676481*
X503346Y674882D02*
X507283D01*
X505315Y672913D02*
Y676850D01*
X507641Y677835D02*
X507552Y678081D01*
X507373Y678327*
X507194Y678450*
X506836*
X506657Y678327*
X506478Y678081*
X506389Y677835*
X506299Y677466*
Y676850*
X506389Y676481*
X506478Y676235*
X506657Y675989*
X506836Y675866*
X507194*
X507373Y675989*
X507552Y676235*
X507641Y676481*
X557087Y652067D02*
X561024D01*
X559055Y650098D02*
Y654035D01*
X560039Y655635D02*
Y653051D01*
Y655635D02*
X560845D01*
X561113Y655512*
X561203Y655389*
X561292Y655143*
Y654897*
X561203Y654651*
X561113Y654528*
X560845Y654405*
X560039D02*
X560845D01*
X561113Y654281*
X561203Y654158*
X561292Y653912*
Y653543*
X561203Y653297*
X561113Y653174*
X560845Y653051*
X560039*
X557087Y647146D02*
X561024D01*
X559055Y645177D02*
Y649114D01*
X560039Y650714D02*
Y648130D01*
Y650714D02*
X560845D01*
X561113Y650591*
X561203Y650468*
X561292Y650221*
Y649975*
X561203Y649729*
X561113Y649606*
X560845Y649483*
X560039D02*
X560845D01*
X561113Y649360*
X561203Y649237*
X561292Y648991*
Y648622*
X561203Y648376*
X561113Y648253*
X560845Y648130*
X560039*
X557087Y642224D02*
X561024D01*
X559055Y640256D02*
Y644193D01*
X560039Y645792D02*
Y643209D01*
Y645792D02*
X560845D01*
X561113Y645669*
X561203Y645546*
X561292Y645300*
Y645054*
X561203Y644808*
X561113Y644685*
X560845Y644562*
X560039D02*
X560845D01*
X561113Y644439*
X561203Y644316*
X561292Y644070*
Y643701*
X561203Y643455*
X561113Y643332*
X560845Y643209*
X560039*
X557087Y637303D02*
X561024D01*
X559055Y635335D02*
Y639272D01*
X560039Y640871D02*
Y638287D01*
Y640871D02*
X560845D01*
X561113Y640748*
X561203Y640625*
X561292Y640379*
Y640133*
X561203Y639887*
X561113Y639764*
X560845Y639641*
X560039D02*
X560845D01*
X561113Y639518*
X561203Y639395*
X561292Y639149*
Y638780*
X561203Y638533*
X561113Y638410*
X560845Y638287*
X560039*
X407480Y667323D02*
X411417Y671260D01*
X407480D02*
X411417Y667323D01*
X549213D02*
X553150Y671260D01*
X549213D02*
X553150Y667323D01*
X549213Y407480D02*
X553150Y411417D01*
X549213D02*
X553150Y407480D01*
X407480D02*
X411417Y411417D01*
X407480D02*
X411417Y407480D01*
X549213Y525591D02*
X553150Y529528D01*
X549213D02*
X553150Y525591D01*
X407480D02*
X411417Y529528D01*
X407480D02*
X411417Y525591D01*
X396063Y397638D02*
X400000D01*
X398031Y395669D02*
Y399606D01*
X420276Y411417D02*
X424213D01*
X422244Y409449D02*
Y413386D01*
X456693Y403543D02*
X460630D01*
X458661Y401575D02*
Y405512D01*
X456693Y407480D02*
X460630D01*
X458661Y405512D02*
Y409449D01*
X450787Y398622D02*
X454724D01*
X452756Y396654D02*
Y400591D01*
X440945Y398622D02*
X444882D01*
X442913Y396654D02*
Y400591D01*
X432283Y397244D02*
X436220D01*
X434252Y395276D02*
Y399213D01*
X420472Y397441D02*
X424409D01*
X422441Y395472D02*
Y399409D01*
X481299Y397638D02*
X485236D01*
X483268Y395669D02*
Y399606D01*
X462598Y397638D02*
X466535D01*
X464567Y395669D02*
Y399606D01*
X460630Y403543D02*
X464567D01*
X462598Y401575D02*
Y405512D01*
X464567Y403543D02*
X468504D01*
X466535Y401575D02*
Y405512D01*
X464567Y407480D02*
X468504D01*
X466535Y405512D02*
Y409449D01*
X460630Y407480D02*
X464567D01*
X462598Y405512D02*
Y409449D01*
X485236Y403543D02*
X489173D01*
X487205Y401575D02*
Y405512D01*
X481299Y407480D02*
X485236D01*
X483268Y405512D02*
Y409449D01*
X481299Y403543D02*
X485236D01*
X483268Y401575D02*
Y405512D01*
X485236Y407480D02*
X489173D01*
X487205Y405512D02*
Y409449D01*
X529528Y397638D02*
X533465D01*
X531496Y395669D02*
Y399606D01*
X533465Y404528D02*
X537402D01*
X535433Y402559D02*
Y406496D01*
X515748Y404528D02*
X519685D01*
X517717Y402559D02*
Y406496D01*
X513780Y397638D02*
X517717D01*
X515748Y395669D02*
Y399606D01*
X500984Y397638D02*
X504921D01*
X502953Y395669D02*
Y399606D01*
X561024Y417126D02*
X564961D01*
X562992Y415157D02*
Y419094D01*
X561024Y397638D02*
X564961D01*
X562992Y395669D02*
Y399606D01*
X541142Y397835D02*
X545079D01*
X543110Y395866D02*
Y399803D01*
X412402Y436024D02*
X416339D01*
X414370Y434055D02*
Y437992D01*
X408268Y426575D02*
X412205D01*
X410236Y424606D02*
Y428543D01*
X395669Y421457D02*
X399606D01*
X397638Y419488D02*
Y423425D01*
X395669Y435039D02*
X399606D01*
X397638Y433071D02*
Y437008D01*
X408465Y447835D02*
X412402D01*
X410433Y445866D02*
Y449803D01*
X395669Y447835D02*
X399606D01*
X397638Y445866D02*
Y449803D01*
X415354Y454724D02*
X419291D01*
X417323Y452756D02*
Y456693D01*
X395669Y454724D02*
X399606D01*
X397638Y452756D02*
Y456693D01*
X444882Y441929D02*
X448819D01*
X446850Y439961D02*
Y443898D01*
X456693Y426181D02*
X460630D01*
X458661Y424213D02*
Y428150D01*
X423228Y439961D02*
X427165D01*
X425197Y437992D02*
Y441929D01*
X432087Y444882D02*
X436024D01*
X434055Y442913D02*
Y446850D01*
X449803Y447835D02*
X453740D01*
X451772Y445866D02*
Y449803D01*
X439961Y447835D02*
X443898D01*
X441929Y445866D02*
Y449803D01*
X422244Y447835D02*
X426181D01*
X424213Y445866D02*
Y449803D01*
X435039Y454724D02*
X438976D01*
X437008Y452756D02*
Y456693D01*
X452756Y454724D02*
X456693D01*
X454724Y452756D02*
Y456693D01*
X460630Y426181D02*
X464567D01*
X462598Y424213D02*
Y428150D01*
X478346Y441929D02*
X482283D01*
X480315Y439961D02*
Y443898D01*
X467520Y442913D02*
X471457D01*
X469488Y440945D02*
Y444882D01*
X463583Y442913D02*
X467520D01*
X465551Y440945D02*
Y444882D01*
X458661Y442913D02*
X462598D01*
X460630Y440945D02*
Y444882D01*
X457677Y447835D02*
X461614D01*
X459646Y445866D02*
Y449803D01*
X471457Y451772D02*
X473425Y453740D01*
X471457Y455709*
X469488Y453740*
X471457Y451772*
Y453740D02*
Y455709D01*
X477362Y451772D02*
X479331Y453740D01*
X477362Y455709*
X475394Y453740*
X477362Y451772*
Y453740D02*
Y455709D01*
X492126Y420276D02*
X494094Y422244D01*
X492126Y424213*
X490157Y422244*
X492126Y420276*
Y422244D02*
Y424213D01*
X495079Y423228D02*
X497047Y425197D01*
X495079Y427165*
X493110Y425197*
X495079Y423228*
Y425197D02*
Y427165D01*
Y420276D02*
X497047Y422244D01*
X495079Y424213*
X493110Y422244*
X495079Y420276*
Y422244D02*
Y424213D01*
X492126Y423228D02*
X494094Y425197D01*
X492126Y427165*
X490157Y425197*
X492126Y423228*
Y425197D02*
Y427165D01*
X474409Y451772D02*
X476378Y453740D01*
X474409Y455709*
X472441Y453740*
X474409Y451772*
Y453740D02*
Y455709D01*
X458661Y454724D02*
X462598D01*
X460630Y452756D02*
Y456693D01*
X514764Y443898D02*
X518701D01*
X516732Y441929D02*
Y445866D01*
X529528Y422244D02*
X533465D01*
X531496Y420276D02*
Y424213D01*
X515748Y427165D02*
X519685D01*
X517717Y425197D02*
Y429134D01*
X511811Y453937D02*
X513780Y455906D01*
X511811Y457874*
X509843Y455906*
X511811Y453937*
Y455906D02*
Y457874D01*
X508858Y453937D02*
X510827Y455906D01*
X508858Y457874*
X506890Y455906*
X508858Y453937*
Y455906D02*
Y457874D01*
Y451181D02*
X510827Y453150D01*
X508858Y455118*
X506890Y453150*
X508858Y451181*
Y453150D02*
Y455118D01*
X511811Y451181D02*
X513780Y453150D01*
X511811Y455118*
X509843Y453150*
X511811Y451181*
Y453150D02*
Y455118D01*
X535236Y435039D02*
X537205Y437008D01*
X535236Y438976*
X533268Y437008*
X535236Y435039*
Y437008D02*
Y438976D01*
X524606Y453740D02*
X528543D01*
X526575Y451772D02*
Y455709D01*
X535433Y440945D02*
X537402Y442913D01*
X535433Y444882*
X533465Y442913*
X535433Y440945*
Y442913D02*
Y444882D01*
X542323Y421260D02*
X546260D01*
X544291Y419291D02*
Y423228D01*
X538386Y432087D02*
X542323D01*
X540354Y430118D02*
Y434055D01*
X547244Y435039D02*
X551181D01*
X549213Y433071D02*
Y437008D01*
X546260Y447835D02*
X550197D01*
X548228Y445866D02*
Y449803D01*
X561024Y447835D02*
X564961D01*
X562992Y445866D02*
Y449803D01*
X561024Y434055D02*
X564961D01*
X562992Y432087D02*
Y436024D01*
X561024Y453740D02*
X564961D01*
X562992Y451772D02*
Y455709D01*
X549213Y453740D02*
X553150D01*
X551181Y451772D02*
Y455709D01*
X410433Y480315D02*
X412402Y482283D01*
X410433Y484252*
X408465Y482283*
X410433Y480315*
Y482283D02*
Y484252D01*
X395669Y474409D02*
X399606D01*
X397638Y472441D02*
Y476378D01*
X395669Y492126D02*
X399606D01*
X397638Y490157D02*
Y494094D01*
X411417Y492126D02*
X415354D01*
X413386Y490157D02*
Y494094D01*
X418307Y486220D02*
X422244D01*
X420276Y484252D02*
Y488189D01*
X419291Y469488D02*
X423228D01*
X421260Y467520D02*
Y471457D01*
X444882Y466535D02*
X448819D01*
X446850Y464567D02*
Y468504D01*
X454724Y470472D02*
X458661D01*
X456693Y468504D02*
Y472441D01*
X435039Y470472D02*
X438976D01*
X437008Y468504D02*
Y472441D01*
X458661Y462598D02*
X460630Y464567D01*
X458661Y466535*
X456693Y464567*
X458661Y462598*
Y464567D02*
Y466535D01*
Y465551D02*
X460630Y467520D01*
X458661Y469488*
X456693Y467520*
X458661Y465551*
Y467520D02*
Y469488D01*
X442913Y473425D02*
X444882Y475394D01*
X442913Y477362*
X440945Y475394*
X442913Y473425*
Y475394D02*
Y477362D01*
X431102Y493110D02*
X435039D01*
X433071Y491142D02*
Y495079D01*
X431102Y485236D02*
X435039D01*
X433071Y483268D02*
Y487205D01*
X451772Y494094D02*
X453740Y496063D01*
X451772Y498031*
X449803Y496063*
X451772Y494094*
Y496063D02*
Y498031D01*
X458661Y483268D02*
X460630Y485236D01*
X458661Y487205*
X456693Y485236*
X458661Y483268*
Y485236D02*
Y487205D01*
X439469Y485236D02*
X443406D01*
X441437Y483268D02*
Y487205D01*
X453740Y483268D02*
X455709Y485236D01*
X453740Y487205*
X451772Y485236*
X453740Y483268*
Y485236D02*
Y487205D01*
X497047Y471457D02*
X499016Y473425D01*
X497047Y475394*
X495079Y473425*
X497047Y471457*
Y473425D02*
Y475394D01*
Y468504D02*
X499016Y470472D01*
X497047Y472441*
X495079Y470472*
X497047Y468504*
Y470472D02*
Y472441D01*
X492126Y468504D02*
X496063D01*
X494094Y466535D02*
Y470472D01*
X496063Y482283D02*
X500000D01*
X498031Y480315D02*
Y484252D01*
X490157Y466535D02*
X492126Y468504D01*
X490157Y470472*
X488189Y468504*
X490157Y466535*
Y468504D02*
Y470472D01*
Y469488D02*
X492126Y471457D01*
X490157Y473425*
X488189Y471457*
X490157Y469488*
Y471457D02*
Y473425D01*
X487205Y466535D02*
X489173Y468504D01*
X487205Y470472*
X485236Y468504*
X487205Y466535*
Y468504D02*
Y470472D01*
Y469488D02*
X489173Y471457D01*
X487205Y473425*
X485236Y471457*
X487205Y469488*
Y471457D02*
Y473425D01*
X464567Y462598D02*
X466535Y464567D01*
X464567Y466535*
X462598Y464567*
X464567Y462598*
Y464567D02*
Y466535D01*
X461614Y462598D02*
X463583Y464567D01*
X461614Y466535*
X459646Y464567*
X461614Y462598*
Y464567D02*
Y466535D01*
X489173Y494094D02*
X491142Y496063D01*
X489173Y498031*
X487205Y496063*
X489173Y494094*
Y496063D02*
Y498031D01*
X494094Y473425D02*
X496063Y475394D01*
X494094Y477362*
X492126Y475394*
X494094Y473425*
Y475394D02*
Y477362D01*
X461220Y492913D02*
X463189Y494882D01*
X461220Y496850*
X459252Y494882*
X461220Y492913*
Y494882D02*
Y496850D01*
X482283Y478346D02*
X484252Y480315D01*
X482283Y482283*
X480315Y480315*
X482283Y478346*
Y480315D02*
Y482283D01*
X489173Y481299D02*
X491142Y483268D01*
X489173Y485236*
X487205Y483268*
X489173Y481299*
Y483268D02*
Y485236D01*
X467520Y495079D02*
X471457D01*
X469488Y493110D02*
Y497047D01*
X465551Y457677D02*
X469488D01*
X467520Y455709D02*
Y459646D01*
X461614Y457677D02*
X465551D01*
X463583Y455709D02*
Y459646D01*
X478543Y476772D02*
X480512Y478740D01*
X478543Y480709*
X476575Y478740*
X478543Y476772*
Y478740D02*
Y480709D01*
X529528Y480315D02*
X531496Y482283D01*
X529528Y484252*
X527559Y482283*
X529528Y480315*
Y482283D02*
Y484252D01*
X500984Y477362D02*
X504921D01*
X502953Y475394D02*
Y479331D01*
X532480Y477362D02*
X536417D01*
X534449Y475394D02*
Y479331D01*
X511811Y484252D02*
X515748D01*
X513780Y482283D02*
Y486220D01*
X512795Y475394D02*
X516732D01*
X514764Y473425D02*
Y477362D01*
X525591Y487205D02*
X527559Y489173D01*
X525591Y491142*
X523622Y489173*
X525591Y487205*
Y489173D02*
Y491142D01*
X534449Y467717D02*
X536417Y469685D01*
X534449Y471654*
X532480Y469685*
X534449Y467717*
Y469685D02*
Y471654D01*
X509843Y462598D02*
X511811Y464567D01*
X509843Y466535*
X507874Y464567*
X509843Y462598*
Y464567D02*
Y466535D01*
Y460630D02*
X511811Y462598D01*
X509843Y464567*
X507874Y462598*
X509843Y460630*
Y462598D02*
Y464567D01*
X511811Y466535*
X509843Y468504*
X507874Y466535*
X509843Y464567*
Y466535D02*
Y468504D01*
X521654Y459646D02*
X525591D01*
X523622Y457677D02*
Y461614D01*
X525591Y459646D02*
X529528D01*
X527559Y457677D02*
Y461614D01*
X500000Y468307D02*
X501969Y470276D01*
X500000Y472244*
X498031Y470276*
X500000Y468307*
Y470276D02*
Y472244D01*
X503740Y458858D02*
X505709Y460827D01*
X503740Y462795*
X501772Y460827*
X503740Y458858*
Y460827D02*
Y462795D01*
Y465157D02*
X505709Y467126D01*
X503740Y469094*
X501772Y467126*
X503740Y465157*
Y467126D02*
Y469094D01*
X513189Y495079D02*
X515157Y497047D01*
X513189Y499016*
X511220Y497047*
X513189Y495079*
Y497047D02*
Y499016D01*
X527559Y470276D02*
X531496D01*
X529528Y468307D02*
Y472244D01*
X509843Y472441D02*
X513780D01*
X511811Y470472D02*
Y474409D01*
X537402Y493307D02*
X539370Y495276D01*
X537402Y497244*
X535433Y495276*
X537402Y493307*
Y495276D02*
Y497244D01*
X519685Y489567D02*
X523622D01*
X521654Y487598D02*
Y491535D01*
X516732Y472441D02*
X520669D01*
X518701Y470472D02*
Y474409D01*
X522047Y472835D02*
X525984D01*
X524016Y470866D02*
Y474803D01*
X504921Y481693D02*
X506890Y483661D01*
X504921Y485630*
X502953Y483661*
X504921Y481693*
Y483661D02*
Y485630D01*
X552165Y474409D02*
X556102D01*
X554134Y472441D02*
Y476378D01*
X542323Y474409D02*
X546260D01*
X544291Y472441D02*
Y476378D01*
X561024Y472441D02*
X564961D01*
X562992Y470472D02*
Y474409D01*
X552165Y467913D02*
X554134Y469882D01*
X552165Y471850*
X550197Y469882*
X552165Y467913*
Y469882D02*
Y471850D01*
X551772Y457283D02*
X553740Y459252D01*
X551772Y461220*
X549803Y459252*
X551772Y457283*
Y459252D02*
Y461220D01*
X540354Y490945D02*
X542323Y492913D01*
X540354Y494882*
X538386Y492913*
X540354Y490945*
Y492913D02*
Y494882D01*
X547835Y492126D02*
X549803Y494094D01*
X547835Y496063*
X545866Y494094*
X547835Y492126*
Y494094D02*
Y496063D01*
X557677Y494094D02*
X559646Y496063D01*
X557677Y498031*
X555709Y496063*
X557677Y494094*
Y496063D02*
Y498031D01*
X542717Y486417D02*
X544685Y488386D01*
X542717Y490354*
X540748Y488386*
X542717Y486417*
Y488386D02*
Y490354D01*
X557677Y485827D02*
X559646Y487795D01*
X557677Y489764*
X555709Y487795*
X557677Y485827*
Y487795D02*
Y489764D01*
X411417Y511811D02*
X415354D01*
X413386Y509843D02*
Y513780D01*
X395669Y509843D02*
X399606D01*
X397638Y507874D02*
Y511811D01*
X395866Y519291D02*
X399803D01*
X397835Y517323D02*
Y521260D01*
X428150Y509843D02*
X432087D01*
X430118Y507874D02*
Y511811D01*
X427165Y530512D02*
X431102D01*
X429134Y528543D02*
Y532480D01*
X453740Y522638D02*
X457677D01*
X455709Y520669D02*
Y524606D01*
X453740Y530512D02*
X457677D01*
X455709Y528543D02*
Y532480D01*
X446850Y531496D02*
X450787D01*
X448819Y529528D02*
Y533465D01*
X446850Y536417D02*
X450787D01*
X448819Y534449D02*
Y538386D01*
X430118Y518110D02*
X432087Y520079D01*
X430118Y522047*
X428150Y520079*
X430118Y518110*
Y520079D02*
Y522047D01*
X431102Y502559D02*
X433071Y504528D01*
X431102Y506496*
X429134Y504528*
X431102Y502559*
Y504528D02*
Y506496D01*
X446850Y525591D02*
X448819Y527559D01*
X446850Y529528*
X444882Y527559*
X446850Y525591*
Y527559D02*
Y529528D01*
Y523228D02*
X448819Y525197D01*
X446850Y527165*
X444882Y525197*
X446850Y523228*
Y525197D02*
Y527165D01*
X433465Y524606D02*
X435433Y526575D01*
X433465Y528543*
X431496Y526575*
X433465Y524606*
Y526575D02*
Y528543D01*
X443110Y519488D02*
X445079Y521457D01*
X443110Y523425*
X441142Y521457*
X443110Y519488*
Y521457D02*
Y523425D01*
X451772Y515748D02*
X453740Y517717D01*
X451772Y519685*
X449803Y517717*
X451772Y515748*
Y517717D02*
Y519685D01*
X433661Y496063D02*
X435630Y498031D01*
X433661Y500000*
X431693Y498031*
X433661Y496063*
Y498031D02*
Y500000D01*
X443110Y497047D02*
X445079Y499016D01*
X443110Y500984*
X441142Y499016*
X443110Y497047*
Y499016D02*
Y500984D01*
X445276Y515748D02*
X447244Y517717D01*
X445276Y519685*
X443307Y517717*
X445276Y515748*
Y517717D02*
Y519685D01*
X449606Y515748D02*
X451575Y517717D01*
X449606Y519685*
X447638Y517717*
X449606Y515748*
Y517717D02*
Y519685D01*
X445434Y519470D02*
X447402Y521438D01*
X445434Y523407*
X443465Y521438*
X445434Y519470*
Y521438D02*
Y523407D01*
X447441Y515748D02*
X449409Y517717D01*
X447441Y519685*
X445472Y517717*
X447441Y515748*
Y517717D02*
Y519685D01*
X478346Y502953D02*
X482283D01*
X480315Y500984D02*
Y504921D01*
X468504Y519685D02*
X472441D01*
X470472Y517717D02*
Y521654D01*
X490157Y511811D02*
X494094D01*
X492126Y509843D02*
Y513780D01*
X463091Y512795D02*
X465059Y514764D01*
X463091Y516732*
X461122Y514764*
X463091Y512795*
Y514764D02*
Y516732D01*
X461122Y532480D02*
X465059D01*
X463091Y530512D02*
Y534449D01*
X467520Y532677D02*
X469488Y534646D01*
X467520Y536614*
X465551Y534646*
X467520Y532677*
Y534646D02*
Y536614D01*
X464961Y521260D02*
X466929Y523228D01*
X464961Y525197*
X462992Y523228*
X464961Y521260*
Y523228D02*
Y525197D01*
X462598Y523228D02*
X464567Y525197D01*
X462598Y527165*
X460630Y525197*
X462598Y523228*
Y525197D02*
Y527165D01*
X477362Y532677D02*
X479331Y534646D01*
X477362Y536614*
X475394Y534646*
X477362Y532677*
Y534646D02*
Y536614D01*
X463091Y515256D02*
X465059Y517224D01*
X463091Y519193*
X461122Y517224*
X463091Y515256*
Y517224D02*
Y519193D01*
X472441Y532677D02*
X474409Y534646D01*
X472441Y536614*
X470472Y534646*
X472441Y532677*
Y534646D02*
Y536614D01*
X460138Y509843D02*
X462106Y511811D01*
X460138Y513780*
X458169Y511811*
X460138Y509843*
Y511811D02*
Y513780D01*
X490157Y531496D02*
X494094D01*
X492126Y529528D02*
Y533465D01*
X486417Y532087D02*
X488386Y534055D01*
X486417Y536024*
X484449Y534055*
X486417Y532087*
Y534055D02*
Y536024D01*
X460630Y525591D02*
X462598Y527559D01*
X460630Y529528*
X458661Y527559*
X460630Y525591*
Y527559D02*
Y529528D01*
X526575Y522638D02*
X530512D01*
X528543Y520669D02*
Y524606D01*
X505906Y518701D02*
X509843D01*
X507874Y516732D02*
Y520669D01*
X505906Y501969D02*
X509843D01*
X507874Y500000D02*
Y503937D01*
X505906Y532480D02*
X509843D01*
X507874Y530512D02*
Y534449D01*
X534449Y517717D02*
X538386D01*
X536417Y515748D02*
Y519685D01*
X516732Y501969D02*
X518701Y503937D01*
X516732Y505906*
X514764Y503937*
X516732Y501969*
Y503937D02*
Y505906D01*
Y507874D02*
X518701Y509843D01*
X516732Y511811*
X514764Y509843*
X516732Y507874*
Y509843D02*
Y511811D01*
X535433Y510827D02*
X537402Y512795D01*
X535433Y514764*
X533465Y512795*
X535433Y510827*
Y512795D02*
Y514764D01*
X529528Y504921D02*
X531496Y506890D01*
X529528Y508858*
X527559Y506890*
X529528Y504921*
Y506890D02*
Y508858D01*
X516732Y524606D02*
X518701Y526575D01*
X516732Y528543*
X514764Y526575*
X516732Y524606*
Y526575D02*
Y528543D01*
X537402Y500984D02*
X539370Y502953D01*
X537402Y504921*
X535433Y502953*
X537402Y500984*
Y502953D02*
Y504921D01*
X516732Y513780D02*
X518701Y515748D01*
X516732Y517717*
X514764Y515748*
X516732Y513780*
Y515748D02*
Y517717D01*
X513386Y520669D02*
X515354Y522638D01*
X513386Y524606*
X511417Y522638*
X513386Y520669*
Y522638D02*
Y524606D01*
X516732Y504921D02*
X518701Y506890D01*
X516732Y508858*
X514764Y506890*
X516732Y504921*
Y506890D02*
Y508858D01*
X527559Y506890D02*
X529528Y508858D01*
X527559Y510827*
X525591Y508858*
X527559Y506890*
Y508858D02*
Y510827D01*
X530512Y535433D02*
X534449D01*
X532480Y533465D02*
Y537402D01*
X561220Y514173D02*
X565157D01*
X563189Y512205D02*
Y516142D01*
X542717Y515748D02*
X546654D01*
X544685Y513780D02*
Y517717D01*
X561024Y535433D02*
X564961D01*
X562992Y533465D02*
Y537402D01*
X561024Y520866D02*
X564961D01*
X562992Y518898D02*
Y522835D01*
X561024Y506890D02*
X564961D01*
X562992Y504921D02*
Y508858D01*
X561024Y498031D02*
X564961D01*
X562992Y496063D02*
Y500000D01*
X552362Y504331D02*
X554331Y506299D01*
X552362Y508268*
X550394Y506299*
X552362Y504331*
Y506299D02*
Y508268D01*
X555906Y504331D02*
X557874Y506299D01*
X555906Y508268*
X553937Y506299*
X555906Y504331*
Y506299D02*
Y508268D01*
X548031Y504331D02*
X550000Y506299D01*
X548031Y508268*
X546063Y506299*
X548031Y504331*
Y506299D02*
Y508268D01*
X542126Y501969D02*
X544094Y503937D01*
X542126Y505906*
X540157Y503937*
X542126Y501969*
Y503937D02*
Y505906D01*
X395472Y541142D02*
X399409D01*
X397441Y539173D02*
Y543110D01*
X419291Y566929D02*
X421260Y568898D01*
X419291Y570866*
X417323Y568898*
X419291Y566929*
Y568898D02*
Y570866D01*
X415354Y562008D02*
X417323Y563976D01*
X415354Y565945*
X413386Y563976*
X415354Y562008*
Y563976D02*
Y565945D01*
X417323Y538386D02*
X421260D01*
X419291Y536417D02*
Y540354D01*
X417323Y542323D02*
X421260D01*
X419291Y540354D02*
Y544291D01*
X418504Y546457D02*
X420472Y548425D01*
X418504Y550394*
X416535Y548425*
X418504Y546457*
Y548425D02*
Y550394D01*
X395669Y551181D02*
X399606D01*
X397638Y549213D02*
Y553150D01*
X395669Y568898D02*
X399606D01*
X397638Y566929D02*
Y570866D01*
X411417D02*
X415354D01*
X413386Y568898D02*
Y572835D01*
X411417Y551181D02*
X415354D01*
X413386Y549213D02*
Y553150D01*
X427165Y538386D02*
X431102D01*
X429134Y536417D02*
Y540354D01*
X430118Y552165D02*
X434055D01*
X432087Y550197D02*
Y554134D01*
X430118Y559055D02*
X434055D01*
X432087Y557087D02*
Y561024D01*
X429134Y569685D02*
X431102Y571654D01*
X429134Y573622*
X427165Y571654*
X429134Y569685*
Y571654D02*
Y573622D01*
X453346Y558661D02*
X455315Y560630D01*
X453346Y562598*
X451378Y560630*
X453346Y558661*
Y560630D02*
Y562598D01*
X427165Y576772D02*
X431102D01*
X429134Y574803D02*
Y578740D01*
X452264Y544882D02*
X454232Y546850D01*
X452264Y548819*
X450295Y546850*
X452264Y544882*
Y546850D02*
Y548819D01*
X458465Y558661D02*
X460433Y560630D01*
X458465Y562598*
X456496Y560630*
X458465Y558661*
Y560630D02*
Y562598D01*
X443898Y542323D02*
X445866Y544291D01*
X443898Y546260*
X441929Y544291*
X443898Y542323*
Y544291D02*
Y546260D01*
X439961Y572638D02*
X443898D01*
X441929Y570669D02*
Y574606D01*
X448819Y543307D02*
X452756D01*
X450787Y541339D02*
Y545276D01*
X457677Y545866D02*
X459646Y547835D01*
X457677Y549803*
X455709Y547835*
X457677Y545866*
Y547835D02*
Y549803D01*
X454724Y566339D02*
X456693Y568307D01*
X454724Y570276*
X452756Y568307*
X454724Y566339*
Y568307D02*
Y570276D01*
X450787Y537402D02*
X454724D01*
X452756Y535433D02*
Y539370D01*
X445866Y557283D02*
X447835Y559252D01*
X445866Y561220*
X443898Y559252*
X445866Y557283*
Y559252D02*
Y561220D01*
X458661Y566535D02*
X460630Y568504D01*
X458661Y570472*
X456693Y568504*
X458661Y566535*
Y568504D02*
Y570472D01*
X490945Y535236D02*
X492913Y537205D01*
X490945Y539173*
X488976Y537205*
X490945Y535236*
Y537205D02*
Y539173D01*
X464961Y539370D02*
X466929Y541339D01*
X464961Y543307*
X462992Y541339*
X464961Y539370*
Y541339D02*
Y543307D01*
X476378Y553150D02*
X478346Y555118D01*
X476378Y557087*
X474409Y555118*
X476378Y553150*
Y555118D02*
Y557087D01*
X497441Y562992D02*
X499409Y564961D01*
X497441Y566929*
X495472Y564961*
X497441Y562992*
Y564961D02*
Y566929D01*
X476378Y556299D02*
X478346Y558268D01*
X476378Y560236*
X474409Y558268*
X476378Y556299*
Y558268D02*
Y560236D01*
Y559449D02*
X478346Y561417D01*
X476378Y563386*
X474409Y561417*
X476378Y559449*
Y561417D02*
Y563386D01*
X475394Y546654D02*
X477362Y548622D01*
X475394Y550591*
X473425Y548622*
X475394Y546654*
Y548622D02*
Y550591D01*
X486220Y564567D02*
X488189Y566535D01*
X486220Y568504*
X484252Y566535*
X486220Y564567*
Y566535D02*
Y568504D01*
X493110Y566732D02*
X495079Y568701D01*
X493110Y570669*
X491142Y568701*
X493110Y566732*
Y568701D02*
Y570669D01*
X490157Y549213D02*
X494094D01*
X492126Y547244D02*
Y551181D01*
X472441Y556299D02*
X474409Y558268D01*
X472441Y560236*
X470472Y558268*
X472441Y556299*
Y558268D02*
Y560236D01*
X490945Y539961D02*
X492913Y541929D01*
X490945Y543898*
X488976Y541929*
X490945Y539961*
Y541929D02*
Y543898D01*
X489961Y561024D02*
X493898D01*
X491929Y559055D02*
Y562992D01*
X467717Y543307D02*
X469685Y545276D01*
X467717Y547244*
X465748Y545276*
X467717Y543307*
Y545276D02*
Y547244D01*
X472441Y543307D02*
X474409Y545276D01*
X472441Y547244*
X470472Y545276*
X472441Y543307*
Y545276D02*
Y547244D01*
X486614Y552165D02*
X488583Y554134D01*
X486614Y556102*
X484646Y554134*
X486614Y552165*
Y554134D02*
Y556102D01*
X498031Y552362D02*
X500000Y554331D01*
X498031Y556299*
X496063Y554331*
X498031Y552362*
Y554331D02*
Y556299D01*
X488189Y562992D02*
X490157Y564961D01*
X488189Y566929*
X486220Y564961*
X488189Y562992*
Y564961D02*
Y566929D01*
X481299Y542913D02*
X483268Y544882D01*
X481299Y546850*
X479331Y544882*
X481299Y542913*
Y544882D02*
Y546850D01*
X493701Y551575D02*
X495669Y553543D01*
X493701Y555512*
X491732Y553543*
X493701Y551575*
Y553543D02*
Y555512D01*
X480315Y559449D02*
X482283Y561417D01*
X480315Y563386*
X478346Y561417*
X480315Y559449*
Y561417D02*
Y563386D01*
X490157Y564567D02*
X492126Y566535D01*
X490157Y568504*
X488189Y566535*
X490157Y564567*
Y566535D02*
Y568504D01*
X480315Y553150D02*
X482283Y555118D01*
X480315Y557087*
X478346Y555118*
X480315Y553150*
Y555118D02*
Y557087D01*
X457677Y540354D02*
X461614D01*
X459646Y538386D02*
Y542323D01*
X480315Y556299D02*
X482283Y558268D01*
X480315Y560236*
X478346Y558268*
X480315Y556299*
Y558268D02*
Y560236D01*
X479331Y546850D02*
X481299Y548819D01*
X479331Y550787*
X477362Y548819*
X479331Y546850*
Y548819D02*
Y550787D01*
X498031Y554724D02*
X500000Y556693D01*
X498031Y558661*
X496063Y556693*
X498031Y554724*
Y556693D02*
Y558661D01*
X497441Y558071D02*
X499409Y560039D01*
X497441Y562008*
X495472Y560039*
X497441Y558071*
Y560039D02*
Y562008D01*
X486614Y556102D02*
X488583Y558071D01*
X486614Y560039*
X484646Y558071*
X486614Y556102*
Y558071D02*
Y560039D01*
X485039Y547638D02*
X487008Y549606D01*
X485039Y551575*
X483071Y549606*
X485039Y547638*
Y549606D02*
Y551575D01*
X472441Y553150D02*
X474409Y555118D01*
X472441Y557087*
X470472Y555118*
X472441Y553150*
Y555118D02*
Y557087D01*
Y559449D02*
X474409Y561417D01*
X472441Y563386*
X470472Y561417*
X472441Y559449*
Y561417D02*
Y563386D01*
X533071Y561417D02*
X535039Y563386D01*
X533071Y565354*
X531102Y563386*
X533071Y561417*
Y563386D02*
Y565354D01*
Y551378D02*
X535039Y553346D01*
X533071Y555315*
X531102Y553346*
X533071Y551378*
Y553346D02*
Y555315D01*
X514764Y556299D02*
X516732Y558268D01*
X514764Y560236*
X512795Y558268*
X514764Y556299*
Y558268D02*
Y560236D01*
X530512Y544291D02*
X532480Y546260D01*
X530512Y548228*
X528543Y546260*
X530512Y544291*
Y546260D02*
Y548228D01*
X528543Y538386D02*
X530512Y540354D01*
X528543Y542323*
X526575Y540354*
X528543Y538386*
Y540354D02*
Y542323D01*
X522638Y565945D02*
X524606Y567913D01*
X522638Y569882*
X520669Y567913*
X522638Y565945*
Y567913D02*
Y569882D01*
X537402Y548228D02*
X541339D01*
X539370Y546260D02*
Y550197D01*
X532480Y542323D02*
X534449Y544291D01*
X532480Y546260*
X530512Y544291*
X532480Y542323*
Y544291D02*
Y546260D01*
X514764Y552756D02*
X516732Y554724D01*
X514764Y556693*
X512795Y554724*
X514764Y552756*
Y554724D02*
Y556693D01*
X508366Y549213D02*
X512303D01*
X510335Y547244D02*
Y551181D01*
X513386Y540157D02*
X515354Y542126D01*
X513386Y544094*
X511417Y542126*
X513386Y540157*
Y542126D02*
Y544094D01*
X517717Y542323D02*
X519685Y544291D01*
X517717Y546260*
X515748Y544291*
X517717Y542323*
Y544291D02*
Y546260D01*
X498031Y549213D02*
X501969D01*
X500000Y547244D02*
Y551181D01*
X535433Y574016D02*
X537402Y575984D01*
X535433Y577953*
X533465Y575984*
X535433Y574016*
Y575984D02*
Y577953D01*
X511024Y552756D02*
X512992Y554724D01*
X511024Y556693*
X509055Y554724*
X511024Y552756*
Y554724D02*
Y556693D01*
X516535Y561614D02*
X518504Y563583D01*
X516535Y565551*
X514567Y563583*
X516535Y561614*
Y563583D02*
Y565551D01*
X502953Y553346D02*
X504921Y555315D01*
X502953Y557283*
X500984Y555315*
X502953Y553346*
Y555315D02*
Y557283D01*
X510827Y566929D02*
X512795Y568898D01*
X510827Y570866*
X508858Y568898*
X510827Y566929*
Y568898D02*
Y570866D01*
X551181Y562992D02*
X553150Y564961D01*
X551181Y566929*
X549213Y564961*
X551181Y562992*
Y564961D02*
Y566929D01*
X541339Y542323D02*
X545276D01*
X543307Y540354D02*
Y544291D01*
X539370Y565945D02*
X543307D01*
X541339Y563976D02*
Y567913D01*
X561024Y572835D02*
X564961D01*
X562992Y570866D02*
Y574803D01*
X561024Y549213D02*
X564961D01*
X562992Y547244D02*
Y551181D01*
X546260Y564961D02*
X548228Y566929D01*
X546260Y568898*
X544291Y566929*
X546260Y564961*
Y566929D02*
Y568898D01*
X557087Y546850D02*
X559055Y548819D01*
X557087Y550787*
X555118Y548819*
X557087Y546850*
Y548819D02*
Y550787D01*
X551181Y558071D02*
X553150Y560039D01*
X551181Y562008*
X549213Y560039*
X551181Y558071*
Y560039D02*
Y562008D01*
X547244Y576772D02*
X551181D01*
X549213Y574803D02*
Y578740D01*
X543307Y553150D02*
X547244D01*
X545276Y551181D02*
Y555118D01*
X549213Y551181D02*
X553150D01*
X551181Y549213D02*
Y553150D01*
X563976Y558071D02*
X565945Y560039D01*
X563976Y562008*
X562008Y560039*
X563976Y558071*
Y560039D02*
Y562008D01*
X418307Y598425D02*
X420276Y600394D01*
X418307Y602362*
X416339Y600394*
X418307Y598425*
Y600394D02*
Y602362D01*
X395669Y586614D02*
X399606D01*
X397638Y584646D02*
Y588583D01*
X411417Y590551D02*
X415354D01*
X413386Y588583D02*
Y592520D01*
X425197Y612205D02*
X427165Y614173D01*
X425197Y616142*
X423228Y614173*
X425197Y612205*
Y614173D02*
Y616142D01*
X427165Y614173D02*
X429134Y616142D01*
X427165Y618110*
X425197Y616142*
X427165Y614173*
Y616142D02*
Y618110D01*
X452756Y579724D02*
X456693D01*
X454724Y577756D02*
Y581693D01*
X450394Y590551D02*
X452362Y592520D01*
X450394Y594488*
X448425Y592520*
X450394Y590551*
Y592520D02*
Y594488D01*
X427165Y598425D02*
X431102D01*
X429134Y596457D02*
Y600394D01*
X431102Y590551D02*
X435039D01*
X433071Y588583D02*
Y592520D01*
X447638Y583858D02*
X449606Y585827D01*
X447638Y587795*
X445669Y585827*
X447638Y583858*
Y585827D02*
Y587795D01*
X454291Y583858D02*
X456260Y585827D01*
X454291Y587795*
X452323Y585827*
X454291Y583858*
Y585827D02*
Y587795D01*
X450787Y610236D02*
X454724D01*
X452756Y608268D02*
Y612205D01*
X473819Y610433D02*
X477756D01*
X475787Y608465D02*
Y612402D01*
X486339Y583858D02*
X488307Y585827D01*
X486339Y587795*
X484370Y585827*
X486339Y583858*
Y585827D02*
Y587795D01*
X494370Y583071D02*
X496339Y585039D01*
X494370Y587008*
X492402Y585039*
X494370Y583071*
Y585039D02*
Y587008D01*
X474291Y604724D02*
X476260Y606693D01*
X474291Y608661*
X472323Y606693*
X474291Y604724*
Y606693D02*
Y608661D01*
X461535Y583858D02*
X463504Y585827D01*
X461535Y587795*
X459567Y585827*
X461535Y583858*
Y585827D02*
Y587795D01*
X481299Y578150D02*
X483268Y580118D01*
X481299Y582087*
X479331Y580118*
X481299Y578150*
Y580118D02*
Y582087D01*
X459449Y580315D02*
X463386D01*
X461417Y578346D02*
Y582283D01*
X498228Y583071D02*
X500197Y585039D01*
X498228Y587008*
X496260Y585039*
X498228Y583071*
Y585039D02*
Y587008D01*
X496063Y609252D02*
X500000D01*
X498031Y607283D02*
Y611220D01*
X466260Y583858D02*
X468228Y585827D01*
X466260Y587795*
X464291Y585827*
X466260Y583858*
Y585827D02*
Y587795D01*
X470276Y605512D02*
X472244Y607480D01*
X470276Y609449*
X468307Y607480*
X470276Y605512*
Y607480D02*
Y609449D01*
X489370Y576575D02*
X491339Y578543D01*
X489370Y580512*
X487402Y578543*
X489370Y576575*
Y578543D02*
Y580512D01*
X482283Y605512D02*
X484252Y607480D01*
X482283Y609449*
X480315Y607480*
X482283Y605512*
Y607480D02*
Y609449D01*
X490157Y610236D02*
X494094D01*
X492126Y608268D02*
Y612205D01*
X489370Y583268D02*
X491339Y585236D01*
X489370Y587205*
X487402Y585236*
X489370Y583268*
Y585236D02*
Y587205D01*
X478346Y578150D02*
X480315Y580118D01*
X478346Y582087*
X476378Y580118*
X478346Y578150*
Y580118D02*
Y582087D01*
X470276Y583858D02*
X472244Y585827D01*
X470276Y587795*
X468307Y585827*
X470276Y583858*
Y585827D02*
Y587795D01*
X463780Y581102D02*
X467717D01*
X465748Y579134D02*
Y583071D01*
X478346Y604724D02*
X480315Y606693D01*
X478346Y608661*
X476378Y606693*
X478346Y604724*
Y606693D02*
Y608661D01*
X486220Y575984D02*
X488189Y577953D01*
X486220Y579921*
X484252Y577953*
X486220Y575984*
Y577953D02*
Y579921D01*
X467717Y575591D02*
X469685Y577559D01*
X467717Y579528*
X465748Y577559*
X467717Y575591*
Y577559D02*
Y579528D01*
X464567Y575984D02*
X466535Y577953D01*
X464567Y579921*
X462598Y577953*
X464567Y575984*
Y577953D02*
Y579921D01*
X492913Y575591D02*
X494882Y577559D01*
X492913Y579528*
X490945Y577559*
X492913Y575591*
Y577559D02*
Y579528D01*
X482323Y583760D02*
X484291Y585728D01*
X482323Y587697*
X480354Y585728*
X482323Y583760*
Y585728D02*
Y587697D01*
X525197Y576575D02*
X527165Y578543D01*
X525197Y580512*
X523228Y578543*
X525197Y576575*
Y578543D02*
Y580512D01*
X535433Y585630D02*
X539370D01*
X537402Y583661D02*
Y587598D01*
X526575Y594488D02*
X530512D01*
X528543Y592520D02*
Y596457D01*
X514764Y575197D02*
X516732Y577165D01*
X514764Y579134*
X512795Y577165*
X514764Y575197*
Y577165D02*
Y579134D01*
X511811Y582874D02*
X513780Y584843D01*
X511811Y586811*
X509843Y584843*
X511811Y582874*
Y584843D02*
Y586811D01*
X509843Y600394D02*
X513780D01*
X511811Y598425D02*
Y602362D01*
X510827Y586614D02*
X512795Y588583D01*
X510827Y590551*
X508858Y588583*
X510827Y586614*
Y588583D02*
Y590551D01*
X500984Y583071D02*
X502953Y585039D01*
X500984Y587008*
X499016Y585039*
X500984Y583071*
Y585039D02*
Y587008D01*
X503543Y580709D02*
X505512Y582677D01*
X503543Y584646*
X501575Y582677*
X503543Y580709*
Y582677D02*
Y584646D01*
X508268Y582677D02*
X510236Y584646D01*
X508268Y586614*
X506299Y584646*
X508268Y582677*
Y584646D02*
Y586614D01*
X529528Y610236D02*
X533465D01*
X531496Y608268D02*
Y612205D01*
X514567Y579724D02*
X516535Y581693D01*
X514567Y583661*
X512598Y581693*
X514567Y579724*
Y581693D02*
Y583661D01*
X521654Y602362D02*
X525591D01*
X523622Y600394D02*
Y604331D01*
X561417Y595276D02*
X565354D01*
X563386Y593307D02*
Y597244D01*
X549606Y595079D02*
X553543D01*
X551575Y593110D02*
Y597047D01*
X548228Y611220D02*
X552165D01*
X550197Y609252D02*
Y613189D01*
X542717Y592913D02*
X546654D01*
X544685Y590945D02*
Y594882D01*
X418307Y619094D02*
X420276Y621063D01*
X418307Y623031*
X416339Y621063*
X418307Y619094*
Y621063D02*
Y623031D01*
X395669Y645669D02*
X399606D01*
X397638Y643701D02*
Y647638D01*
X395669Y629921D02*
X399606D01*
X397638Y627953D02*
Y631890D01*
X418307Y627953D02*
X422244D01*
X420276Y625984D02*
Y629921D01*
X418307Y631890D02*
X422244D01*
X420276Y629921D02*
Y633858D01*
X418307Y635827D02*
X422244D01*
X420276Y633858D02*
Y637795D01*
X431102Y624016D02*
X433071Y625984D01*
X431102Y627953*
X429134Y625984*
X431102Y624016*
Y625984D02*
Y627953D01*
X429134Y624016D02*
X431102Y625984D01*
X429134Y627953*
X427165Y625984*
X429134Y624016*
Y625984D02*
Y627953D01*
X433071Y620079D02*
X435039Y622047D01*
X433071Y624016*
X431102Y622047*
X433071Y620079*
Y622047D02*
Y624016D01*
X442913Y622047D02*
X446850D01*
X444882Y620079D02*
Y624016D01*
X440945Y633858D02*
X444882D01*
X442913Y631890D02*
Y635827D01*
X450787Y649606D02*
X454724D01*
X452756Y647638D02*
Y651575D01*
X431102Y649606D02*
X435039D01*
X433071Y647638D02*
Y651575D01*
X480315Y633858D02*
X484252D01*
X482283Y631890D02*
Y635827D01*
X490157Y649606D02*
X494094D01*
X492126Y647638D02*
Y651575D01*
X460630Y633858D02*
X464567D01*
X462598Y631890D02*
Y635827D01*
X470472Y649606D02*
X474409D01*
X472441Y647638D02*
Y651575D01*
X484252Y622047D02*
X488189D01*
X486220Y620079D02*
Y624016D01*
X462598Y622047D02*
X466535D01*
X464567Y620079D02*
Y624016D01*
X507874Y622047D02*
X511811D01*
X509843Y620079D02*
Y624016D01*
X529528Y649606D02*
X533465D01*
X531496Y647638D02*
Y651575D01*
X529528Y629921D02*
X533465D01*
X531496Y627953D02*
Y631890D01*
X507874Y634252D02*
X511811D01*
X509843Y632283D02*
Y636220D01*
Y649606D02*
X513780D01*
X511811Y647638D02*
Y651575D01*
X561417Y629921D02*
X565354D01*
X563386Y627953D02*
Y631890D01*
X561417Y642717D02*
X565354D01*
X563386Y640748D02*
Y644685D01*
X538780Y654921D02*
X542717D01*
X540748Y652953D02*
Y656890D01*
X541339Y640748D02*
X545276D01*
X543307Y638780D02*
Y642717D01*
X395866Y681102D02*
X399803D01*
X397835Y679134D02*
Y683071D01*
X395276Y659055D02*
X399213D01*
X397244Y657087D02*
Y661024D01*
X415354Y681102D02*
X419291D01*
X417323Y679134D02*
Y683071D01*
X431102Y669291D02*
X435039D01*
X433071Y667323D02*
Y671260D01*
X426181Y681496D02*
X430118D01*
X428150Y679528D02*
Y683465D01*
X435039Y681102D02*
X438976D01*
X437008Y679134D02*
Y683071D01*
X490157Y669291D02*
X494094D01*
X492126Y667323D02*
Y671260D01*
X470472Y669291D02*
X474409D01*
X472441Y667323D02*
Y671260D01*
X466535Y681102D02*
X470472D01*
X468504Y679134D02*
Y683071D01*
X490157Y681102D02*
X494094D01*
X492126Y679134D02*
Y683071D01*
X530315Y680906D02*
X534252D01*
X532283Y678937D02*
Y682874D01*
X529528Y669291D02*
X533465D01*
X531496Y667323D02*
Y671260D01*
X521654Y681102D02*
X525591D01*
X523622Y679134D02*
Y683071D01*
X561024Y680906D02*
X564961D01*
X562992Y678937D02*
Y682874D01*
X561220Y658071D02*
X565157D01*
X563189Y656102D02*
Y660039D01*
X393701Y393701D02*
X566929D01*
Y685039*
X393701*
Y393701*
X613780Y371850D02*
G03X611220Y374409I-2560J0D01*
G01X396260*
G03X393701Y371850I-0J-2559*
G01Y336024*
G03X396260Y333465I2559J-0*
G01X611220*
G03X613780Y336024I0J2559*
G01Y371850*
X554921Y374409D02*
Y333465D01*
Y364173D02*
X393701D01*
X554921Y353937D02*
X393701D01*
X529331Y353118D02*
Y333465D01*
X554921Y343701D02*
X393701D01*
X529331Y364173D02*
Y353118D01*
X496063Y364173D02*
Y333465D01*
X426969Y374409D02*
Y333465D01*
X572185Y349813D02*
X572789D01*
X572185Y349539D02*
X572789D01*
X572185Y349264D02*
X572789D01*
X572185Y348990D02*
X572789D01*
X572185Y348715D02*
X572789D01*
X588639Y364646D02*
G03X587558Y363565I-0J-1081D01*
G01X588639Y364646D02*
X597254D01*
X598335Y363565D02*
G03X597254Y364646I-1081J0D01*
G01X598335Y363565D02*
Y355015D01*
X597254Y353934D02*
G03X598335Y355015I0J1081D01*
G01X597254Y353934D02*
X588639D01*
X587558Y355015D02*
G03X588639Y353934I1081J0D01*
G01X587558Y355015D02*
Y363565D01*
X570782Y352021D02*
X572133Y350075D01*
Y348400*
X572835*
Y350075*
X574187Y352021*
X573538*
X572511Y350670*
X571430Y352021*
X570782*
X576024Y364776D02*
G03X575376Y364127I0J-649D01*
G01X576024Y364776D02*
X581105D01*
X581753Y364127D02*
G03X581105Y364776I-648J0D01*
G01X581753Y364127D02*
Y359371D01*
X581105Y358723D02*
G03X581753Y359371I-0J648D01*
G01X581105Y358723D02*
X576024D01*
X575376Y359371D02*
G03X576024Y358723I648J0D01*
G01X575376Y359371D02*
Y364127D01*
X591374Y361209D02*
G03X590941Y360776I-0J-433D01*
G01X591374Y361209D02*
X594725D01*
X595157Y360776D02*
G03X594725Y361209I-432J0D01*
G01X595157Y360776D02*
Y357750D01*
X594725Y357317D02*
G03X595157Y357750I-0J433D01*
G01X594725Y357317D02*
X591374D01*
X590941Y357750D02*
G03X591374Y357317I433J-0D01*
G01X590941Y357750D02*
Y360776D01*
X575592Y351913D02*
G03X574943Y351264I-0J-649D01*
G01X575592Y351913D02*
X577321D01*
X577970Y351264D02*
G03X577321Y351913I-649J0D01*
G01X577970Y351264D02*
Y349210D01*
X577321Y348562D02*
G03X577970Y349210I0J648D01*
G01X577321Y348562D02*
X575592D01*
X574943Y349210D02*
G03X575592Y348562I649J0D01*
G01X574943Y349210D02*
Y351264D01*
X572185Y369582D02*
X584595D01*
X570812Y368484D02*
X585968D01*
X570812Y368209D02*
X586077D01*
X570537Y367660D02*
X586185D01*
X570537Y367385D02*
X586185D01*
X570537Y367111D02*
X586185D01*
X570537Y366836D02*
X586185D01*
X570537Y366562D02*
X586185D01*
X570537Y366287D02*
X586185D01*
X570537Y366013D02*
X586185D01*
X570537Y365738D02*
X586185D01*
X570537Y365463D02*
X586185D01*
X570537Y365189D02*
X586185D01*
X570537Y364914D02*
X586185D01*
X588384Y364640D02*
X597499D01*
X581645D02*
X586185D01*
X570537D02*
X575592D01*
X588109Y364365D02*
X597859D01*
X581794D02*
X586185D01*
X570537D02*
X575260D01*
X587835Y364091D02*
X598076D01*
X581794D02*
X586185D01*
X570537D02*
X575260D01*
X587835Y363816D02*
X598323D01*
X581794D02*
X586185D01*
X570537D02*
X575260D01*
X587560Y363541D02*
X598323D01*
X581794D02*
X586185D01*
X570537D02*
X575260D01*
X587560Y363267D02*
X598323D01*
X581794D02*
X586185D01*
X570537D02*
X575260D01*
X587560Y362992D02*
X598323D01*
X581794D02*
X586185D01*
X570537D02*
X575260D01*
X587560Y362718D02*
X598323D01*
X581794D02*
X586185D01*
X570537D02*
X575260D01*
X587560Y362443D02*
X598323D01*
X581794D02*
X586185D01*
X570537D02*
X575260D01*
X587560Y362169D02*
X598323D01*
X581794D02*
X586185D01*
X570537D02*
X575260D01*
X587560Y361894D02*
X598323D01*
X581794D02*
X586185D01*
X570537D02*
X575260D01*
X587560Y361620D02*
X598323D01*
X581794D02*
X586185D01*
X570537D02*
X575260D01*
X587560Y361345D02*
X598323D01*
X581794D02*
X586185D01*
X570537D02*
X575260D01*
X595248Y361070D02*
X598323D01*
X587560D02*
X590910D01*
X581794D02*
X586185D01*
X570537D02*
X575260D01*
X595248Y360796D02*
X598323D01*
X587560D02*
X590910D01*
X581794D02*
X586185D01*
X570537D02*
X575260D01*
X595248Y360521D02*
X598323D01*
X587560D02*
X590910D01*
X581794D02*
X586185D01*
X570537D02*
X575260D01*
X595248Y360247D02*
X598323D01*
X587560D02*
X590910D01*
X581794D02*
X586185D01*
X570537D02*
X575260D01*
X595248Y359972D02*
X598323D01*
X587560D02*
X590910D01*
X581794D02*
X586185D01*
X570537D02*
X575260D01*
X595248Y359698D02*
X598323D01*
X587560D02*
X590910D01*
X581794D02*
X586185D01*
X570537D02*
X575260D01*
X595248Y359423D02*
X598323D01*
X587560D02*
X590910D01*
X581794D02*
X586185D01*
X570537D02*
X575260D01*
X595248Y359149D02*
X598323D01*
X587560D02*
X590910D01*
X581794D02*
X586185D01*
X570537D02*
X575260D01*
X595248Y358874D02*
X598323D01*
X587560D02*
X590910D01*
X581645D02*
X586185D01*
X570537D02*
X575484D01*
X595248Y358599D02*
X598323D01*
X587560D02*
X590910D01*
X570537D02*
X586185D01*
X595248Y358325D02*
X598323D01*
X587560D02*
X590910D01*
X570537D02*
X586185D01*
X595248Y358050D02*
X598323D01*
X587560D02*
X590910D01*
X570537D02*
X586185D01*
X595248Y357776D02*
X598323D01*
X587560D02*
X590910D01*
X570537D02*
X586185D01*
X595248Y357501D02*
X598323D01*
X587560D02*
X590910D01*
X570537D02*
X586185D01*
X587560Y357227D02*
X598323D01*
X570537D02*
X586185D01*
X587560Y356952D02*
X598323D01*
X570537D02*
X586185D01*
X587560Y356677D02*
X598323D01*
X570537D02*
X586185D01*
X587560Y356403D02*
X598323D01*
X570537D02*
X586185D01*
X587560Y356128D02*
X598323D01*
X570537D02*
X586185D01*
X587560Y355854D02*
X598323D01*
X570537D02*
X586185D01*
X587560Y355579D02*
X598323D01*
X570537D02*
X586185D01*
X587560Y355305D02*
X598323D01*
X570812D02*
X586185D01*
X587560Y355030D02*
X598323D01*
X570812D02*
X585968D01*
X587835Y354756D02*
X598227D01*
X570825D02*
X585968D01*
X587835Y354481D02*
X598048D01*
X571074D02*
X585693D01*
X588109Y354206D02*
X597838D01*
X571441D02*
X585419D01*
X588658Y353932D02*
X597232D01*
X572185D02*
X584672D01*
X573558Y352010D02*
X574162D01*
X570812D02*
X571416D01*
X573387Y351735D02*
X573938D01*
X571086D02*
X571582D01*
X573149Y351461D02*
X573711D01*
X571236D02*
X571819D01*
X573008Y351186D02*
X573612D01*
X571361D02*
X571965D01*
X572734Y350912D02*
X573311D01*
X571636D02*
X572240D01*
X571819Y350637D02*
X573181D01*
X572025Y350363D02*
X572911D01*
X572133Y350088D02*
X572792D01*
X579375Y351913D02*
Y349102D01*
G03X579808Y348670I433J0*
G01X581213*
G03X581645Y349102I-0J432*
G01Y351913*
X583158D02*
Y348670D01*
X584564Y351913D02*
Y348670D01*
X586618*
X590185Y351048D02*
Y351480D01*
G03X589752Y351913I-433J0*
G01X588239*
G03X587807Y351480I-0J-433*
G01Y349102*
G03X588239Y348670I432J0*
G01X589752*
G03X590185Y349102I0J432*
G01Y349535*
X571160Y369033D02*
X585645D01*
X570944Y368758D02*
X585861D01*
X572241Y369586D02*
G03X570511Y367857I-0J-1729D01*
G01X572241Y369586D02*
X584510D01*
X586239Y367857D02*
G03X584510Y369586I-1729J-0D01*
G01X586239Y367857D02*
Y355642D01*
X584510Y353912D02*
G03X586239Y355642I-0J1730D01*
G01X584510Y353912D02*
X572241D01*
X570511Y355642D02*
G03X572241Y353912I1730J-0D01*
G01X570511Y355642D02*
Y367857D01*
X570620Y367934D02*
X586242D01*
X571484Y369307D02*
X585320D01*
X591590Y348670D02*
X592455Y351697D01*
X593319*
X594184Y348670*
X593752Y349967D02*
X592022D01*
X595697Y350183D02*
Y351913D01*
X597211*
X598076Y351048D02*
G03X597211Y351913I-865J-0D01*
G01X598076Y351048D02*
Y349535D01*
X597211Y348670D02*
G03X598076Y349535I-0J865D01*
G01X597211Y348670D02*
X595697D01*
Y350183*
X582677Y551181D02*
X751969D01*
X582677Y535433D02*
X751969D01*
X582677Y519685D02*
X751969D01*
X582677Y503937D02*
X751969D01*
X582677Y488189D02*
X751969D01*
X582677Y472441D02*
X751969D01*
X582677Y456693D02*
X751969D01*
X582677Y440945D02*
X751969D01*
X582677Y425197D02*
X751969D01*
X582677Y409449D02*
X751969D01*
X582677Y393701D02*
X751969D01*
X582677Y551181D02*
Y393701D01*
X637795Y551181D02*
Y393701D01*
X661417Y551181D02*
Y393701D01*
X685039Y551181D02*
Y393701D01*
X720472Y551181D02*
Y393701D01*
X751969Y551181D02*
Y393701D01*
X606102Y543799D02*
X605744Y544291D01*
X605208Y544537*
X604492*
X603955Y544291*
X603597Y543799*
Y543307*
X603776Y542815*
X603955Y542569*
X604313Y542323*
X605387Y541831*
X605744Y541585*
X605923Y541339*
X606102Y540846*
Y540108*
X605744Y539616*
X605208Y539370*
X604492*
X603955Y539616*
X603597Y540108*
X607713Y544537D02*
Y539370D01*
X611829Y544537D02*
X609324Y539370D01*
Y544537D02*
X611829D01*
X609324Y539370D02*
X611829D01*
X613440Y544537D02*
Y539370D01*
Y544537D02*
X615766D01*
X613440Y542077D02*
X614871D01*
X613440Y539370D02*
X615766D01*
X644399Y544537D02*
X644041Y544291D01*
X643683Y543799*
X643504Y543307*
X643325Y542569*
Y541339*
X643504Y540600*
X643683Y540108*
X644041Y539616*
X644399Y539370*
X645115*
X645472Y539616*
X645830Y540108*
X646009Y540600*
X646188Y541339*
Y542569*
X646009Y543307*
X645830Y543799*
X645472Y544291*
X645115Y544537*
X644399*
X644936Y540354D02*
X646009Y538878D01*
X649052Y544537D02*
Y539370D01*
X647799Y544537D02*
X650304D01*
X651915D02*
X653346Y542077D01*
Y539370*
X654778Y544537D02*
X653346Y542077D01*
X669452Y543799D02*
X669094Y544291D01*
X668558Y544537*
X667842*
X667305Y544291*
X666947Y543799*
Y543307*
X667126Y542815*
X667305Y542569*
X667663Y542323*
X668737Y541831*
X669094Y541585*
X669273Y541339*
X669452Y540846*
Y540108*
X669094Y539616*
X668558Y539370*
X667842*
X667305Y539616*
X666947Y540108*
X671063Y544537D02*
X672495Y542077D01*
Y539370*
X673926Y544537D02*
X672495Y542077D01*
X675537Y544537D02*
Y539370D01*
Y544537D02*
X676969Y539370D01*
X678400Y544537D02*
X676969Y539370D01*
X678400Y544537D02*
Y539370D01*
X692717Y544537D02*
Y539370D01*
Y544537D02*
X694327D01*
X694864Y544291*
X695043Y544045*
X695222Y543553*
Y542815*
X695043Y542323*
X694864Y542077*
X694327Y541831*
X692717*
X696832Y544537D02*
Y539370D01*
X698980*
X702022Y544537D02*
X700591Y539370D01*
X702022Y544537D02*
X703454Y539370D01*
X701127Y541093D02*
X702917D01*
X706317Y544537D02*
Y539370D01*
X705064Y544537D02*
X707570D01*
X709180D02*
Y539370D01*
Y544537D02*
X711507D01*
X709180Y542077D02*
X710612D01*
X709180Y539370D02*
X711507D01*
X713117Y544537D02*
Y539370D01*
Y544537D02*
X714370D01*
X714907Y544291*
X715265Y543799*
X715444Y543307*
X715623Y542569*
Y541339*
X715444Y540600*
X715265Y540108*
X714907Y539616*
X714370Y539370*
X713117*
X731550Y544537D02*
Y539370D01*
X730297Y544537D02*
X732802D01*
X735487D02*
X735129Y544291D01*
X734771Y543799*
X734592Y543307*
X734413Y542569*
Y541339*
X734592Y540600*
X734771Y540108*
X735129Y539616*
X735487Y539370*
X736203*
X736560Y539616*
X736918Y540108*
X737097Y540600*
X737276Y541339*
Y542569*
X737097Y543307*
X736918Y543799*
X736560Y544291*
X736203Y544537*
X735487*
X738887D02*
Y539370D01*
X741034*
X587688Y528789D02*
X587151Y528543D01*
X586793Y527805*
X586614Y526575*
Y525837*
X586793Y524606*
X587151Y523868*
X587688Y523622*
X588046*
X588583Y523868*
X588941Y524606*
X589120Y525837*
Y526575*
X588941Y527805*
X588583Y528543*
X588046Y528789*
X587688*
X590909Y524114D02*
X590730Y523868D01*
X590909Y523622*
X591088Y523868*
X590909Y524114*
X594488Y528789D02*
X592699Y525344D01*
X595383*
X594488Y528789D02*
Y523622D01*
X643772Y527559D02*
Y527805D01*
X643951Y528297*
X644130Y528543*
X644488Y528789*
X645204*
X645562Y528543*
X645741Y528297*
X645920Y527805*
Y527313*
X645741Y526821*
X645383Y526083*
X643593Y523622*
X646099*
X648783Y528789D02*
X648246Y528543D01*
X647888Y527805*
X647709Y526575*
Y525837*
X647888Y524606*
X648246Y523868*
X648783Y523622*
X649141*
X649678Y523868*
X650036Y524606*
X650215Y525837*
Y526575*
X650036Y527805*
X649678Y528543*
X649141Y528789*
X648783*
X653615D02*
X651825Y525344D01*
X654510*
X653615Y528789D02*
Y523622D01*
X669291Y527559D02*
X677165D01*
X673228Y523622D02*
Y531496D01*
X690838Y528789D02*
X692269Y526329D01*
Y523622*
X693701Y528789D02*
X692269Y526329D01*
X695311Y528789D02*
Y523622D01*
Y528789D02*
X697638D01*
X695311Y526329D02*
X696743D01*
X695311Y523622D02*
X697638D01*
X701754Y528051D02*
X701396Y528543D01*
X700859Y528789*
X700143*
X699606Y528543*
X699248Y528051*
Y527559*
X699427Y527067*
X699606Y526821*
X699964Y526575*
X701038Y526083*
X701396Y525837*
X701575Y525591*
X701754Y525098*
Y524360*
X701396Y523868*
X700859Y523622*
X700143*
X699606Y523868*
X699248Y524360*
X725734Y528051D02*
Y523622D01*
X724123Y525837D02*
X727344D01*
X732176Y529774D02*
X728955Y521900D01*
X733787Y525837D02*
X737008D01*
X739692Y528789D02*
X739155Y528543D01*
X738797Y527805*
X738618Y526575*
Y525837*
X738797Y524606*
X739155Y523868*
X739692Y523622*
X740050*
X740587Y523868*
X740945Y524606*
X741124Y525837*
Y526575*
X740945Y527805*
X740587Y528543*
X740050Y528789*
X739692*
X742913Y524114D02*
X742734Y523868D01*
X742913Y523622*
X743092Y523868*
X742913Y524114*
X745777Y528789D02*
X745240Y528543D01*
X744882Y527805*
X744703Y526575*
Y525837*
X744882Y524606*
X745240Y523868*
X745777Y523622*
X746135*
X746671Y523868*
X747029Y524606*
X747208Y525837*
Y526575*
X747029Y527805*
X746671Y528543*
X746135Y528789*
X745777*
X588404Y513041D02*
X586614Y509596D01*
X589298*
X588404Y513041D02*
Y507874D01*
X650036Y512303D02*
X649857Y512795D01*
X649320Y513041*
X648962*
X648425Y512795*
X648067Y512057*
X647888Y510827*
Y509596*
X648067Y508612*
X648425Y508120*
X648962Y507874*
X649141*
X649678Y508120*
X650036Y508612*
X650215Y509350*
Y509596*
X650036Y510335*
X649678Y510827*
X649141Y511073*
X648962*
X648425Y510827*
X648067Y510335*
X647888Y509596*
X669291Y507874D02*
X677165Y515748D01*
X669291D02*
X677165Y507874D01*
X692806Y513041D02*
Y507874D01*
Y513041D02*
X695311Y507874D01*
Y513041D02*
Y507874D01*
X697996Y513041D02*
X697638Y512795D01*
X697280Y512303*
X697101Y511811*
X696922Y511073*
Y509843*
X697101Y509104*
X697280Y508612*
X697638Y508120*
X697996Y507874*
X698712*
X699069Y508120*
X699427Y508612*
X699606Y509104*
X699785Y509843*
Y511073*
X699606Y511811*
X699427Y512303*
X699069Y512795*
X698712Y513041*
X697996*
X725734Y512303D02*
Y507874D01*
X724123Y510089D02*
X727344D01*
X732176Y514026D02*
X728955Y506152D01*
X733787Y510089D02*
X737008D01*
X739692Y513041D02*
X739155Y512795D01*
X738797Y512057*
X738618Y510827*
Y510089*
X738797Y508858*
X739155Y508120*
X739692Y507874*
X740050*
X740587Y508120*
X740945Y508858*
X741124Y510089*
Y510827*
X740945Y512057*
X740587Y512795*
X740050Y513041*
X739692*
X742913Y508366D02*
X742734Y508120D01*
X742913Y507874*
X743092Y508120*
X742913Y508366*
X745777Y513041D02*
X745240Y512795D01*
X744882Y512057*
X744703Y510827*
Y510089*
X744882Y508858*
X745240Y508120*
X745777Y507874*
X746135*
X746671Y508120*
X747029Y508858*
X747208Y510089*
Y510827*
X747029Y512057*
X746671Y512795*
X746135Y513041*
X745777*
X586614Y496309D02*
X586972Y496555D01*
X587509Y497293*
Y492126*
X646457Y496309D02*
X646815Y496555D01*
X647351Y497293*
Y492126*
X650752Y497293D02*
X648962Y493848D01*
X651646*
X650752Y497293D02*
Y492126D01*
X669291D02*
X677165D01*
Y500000*
X669291*
Y492126*
X673228Y496063D02*
Y500000D01*
X690838Y497293D02*
X692269Y494833D01*
Y492126*
X693701Y497293D02*
X692269Y494833D01*
X695311Y497293D02*
Y492126D01*
Y497293D02*
X697638D01*
X695311Y494833D02*
X696743D01*
X695311Y492126D02*
X697638D01*
X701754Y496555D02*
X701396Y497047D01*
X700859Y497293*
X700143*
X699606Y497047*
X699248Y496555*
Y496063*
X699427Y495571*
X699606Y495325*
X699964Y495079*
X701038Y494587*
X701396Y494341*
X701575Y494094*
X701754Y493602*
Y492864*
X701396Y492372*
X700859Y492126*
X700143*
X699606Y492372*
X699248Y492864*
X725734Y496555D02*
Y492126D01*
X724123Y494341D02*
X727344D01*
X732176Y498278D02*
X728955Y490404D01*
X733787Y494341D02*
X737008D01*
X739692Y497293D02*
X739155Y497047D01*
X738797Y496309*
X738618Y495079*
Y494341*
X738797Y493110*
X739155Y492372*
X739692Y492126*
X740050*
X740587Y492372*
X740945Y493110*
X741124Y494341*
Y495079*
X740945Y496309*
X740587Y497047*
X740050Y497293*
X739692*
X742913Y492618D02*
X742734Y492372D01*
X742913Y492126*
X743092Y492372*
X742913Y492618*
X745777Y497293D02*
X745240Y497047D01*
X744882Y496309*
X744703Y495079*
Y494341*
X744882Y493110*
X745240Y492372*
X745777Y492126*
X746135*
X746671Y492372*
X747029Y493110*
X747208Y494341*
Y495079*
X747029Y496309*
X746671Y497047*
X746135Y497293*
X745777*
X587688Y481545D02*
X587151Y481299D01*
X586793Y480561*
X586614Y479331*
Y478593*
X586793Y477362*
X587151Y476624*
X587688Y476378*
X588046*
X588583Y476624*
X588941Y477362*
X589120Y478593*
Y479331*
X588941Y480561*
X588583Y481299*
X588046Y481545*
X587688*
X590909Y476870D02*
X590730Y476624D01*
X590909Y476378*
X591088Y476624*
X590909Y476870*
X592878Y480315D02*
Y480561D01*
X593057Y481053*
X593236Y481299*
X593593Y481545*
X594309*
X594667Y481299*
X594846Y481053*
X595025Y480561*
Y480069*
X594846Y479577*
X594488Y478839*
X592699Y476378*
X595204*
X599141Y481545D02*
X597351D01*
X597173Y479331*
X597351Y479577*
X597888Y479823*
X598425*
X598962Y479577*
X599320Y479085*
X599499Y478346*
X599320Y477854*
X599141Y477116*
X598783Y476624*
X598246Y476378*
X597709*
X597173Y476624*
X596994Y476870*
X596815Y477362*
X644488Y480561D02*
X644846Y480807D01*
X645383Y481545*
Y476378*
X647888Y481545D02*
X647351Y481299D01*
X647173Y480807*
Y480315*
X647351Y479823*
X647709Y479577*
X648425Y479331*
X648962Y479085*
X649320Y478593*
X649499Y478100*
Y477362*
X649320Y476870*
X649141Y476624*
X648604Y476378*
X647888*
X647351Y476624*
X647173Y476870*
X646994Y477362*
Y478100*
X647173Y478593*
X647530Y479085*
X648067Y479331*
X648783Y479577*
X649141Y479823*
X649320Y480315*
Y480807*
X649141Y481299*
X648604Y481545*
X647888*
X652004D02*
X651467Y481299D01*
X651288Y480807*
Y480315*
X651467Y479823*
X651825Y479577*
X652541Y479331*
X653078Y479085*
X653436Y478593*
X653615Y478100*
Y477362*
X653436Y476870*
X653257Y476624*
X652720Y476378*
X652004*
X651467Y476624*
X651288Y476870*
X651110Y477362*
Y478100*
X651288Y478593*
X651646Y479085*
X652183Y479331*
X652899Y479577*
X653257Y479823*
X653436Y480315*
Y480807*
X653257Y481299*
X652720Y481545*
X652004*
X673228Y476378D02*
X677165Y480315D01*
X673228Y484252*
X669291Y480315*
X673228Y476378*
Y480315D02*
Y484252D01*
X690838Y481545D02*
X692269Y479085D01*
Y476378*
X693701Y481545D02*
X692269Y479085D01*
X695311Y481545D02*
Y476378D01*
Y481545D02*
X697638D01*
X695311Y479085D02*
X696743D01*
X695311Y476378D02*
X697638D01*
X701754Y480807D02*
X701396Y481299D01*
X700859Y481545*
X700143*
X699606Y481299*
X699248Y480807*
Y480315*
X699427Y479823*
X699606Y479577*
X699964Y479331*
X701038Y478839*
X701396Y478593*
X701575Y478346*
X701754Y477854*
Y477116*
X701396Y476624*
X700859Y476378*
X700143*
X699606Y476624*
X699248Y477116*
X725734Y480807D02*
Y476378D01*
X724123Y478593D02*
X727344D01*
X732176Y482530D02*
X728955Y474656D01*
X733787Y478593D02*
X737008D01*
X739692Y481545D02*
X739155Y481299D01*
X738797Y480561*
X738618Y479331*
Y478593*
X738797Y477362*
X739155Y476624*
X739692Y476378*
X740050*
X740587Y476624*
X740945Y477362*
X741124Y478593*
Y479331*
X740945Y480561*
X740587Y481299*
X740050Y481545*
X739692*
X742913Y476870D02*
X742734Y476624D01*
X742913Y476378*
X743092Y476624*
X742913Y476870*
X745777Y481545D02*
X745240Y481299D01*
X744882Y480561*
X744703Y479331*
Y478593*
X744882Y477362*
X745240Y476624*
X745777Y476378*
X746135*
X746671Y476624*
X747029Y477362*
X747208Y478593*
Y479331*
X747029Y480561*
X746671Y481299*
X746135Y481545*
X745777*
X587688Y465797D02*
X587151Y465551D01*
X586793Y464813*
X586614Y463583*
Y462844*
X586793Y461614*
X587151Y460876*
X587688Y460630*
X588046*
X588583Y460876*
X588941Y461614*
X589120Y462844*
Y463583*
X588941Y464813*
X588583Y465551*
X588046Y465797*
X587688*
X590909Y461122D02*
X590730Y460876D01*
X590909Y460630*
X591088Y460876*
X590909Y461122*
X593593Y465797D02*
X593057Y465551D01*
X592878Y465059*
Y464567*
X593057Y464075*
X593414Y463829*
X594130Y463583*
X594667Y463337*
X595025Y462844*
X595204Y462352*
Y461614*
X595025Y461122*
X594846Y460876*
X594309Y460630*
X593593*
X593057Y460876*
X592878Y461122*
X592699Y461614*
Y462352*
X592878Y462844*
X593236Y463337*
X593772Y463583*
X594488Y463829*
X594846Y464075*
X595025Y464567*
Y465059*
X594846Y465551*
X594309Y465797*
X593593*
X600931Y464075D02*
X602899Y460630D01*
Y464075D02*
X600931Y460630D01*
X608626Y464813D02*
X608984Y465059D01*
X609520Y465797*
Y460630*
X611310Y461122D02*
X611131Y460876D01*
X611310Y460630*
X611489Y460876*
X611310Y461122*
X615426Y465797D02*
X613636D01*
X613457Y463583*
X613636Y463829*
X614173Y464075*
X614710*
X615247Y463829*
X615605Y463337*
X615784Y462598*
X615605Y462106*
X615426Y461368*
X615068Y460876*
X614531Y460630*
X613994*
X613457Y460876*
X613278Y461122*
X613099Y461614*
X647978Y464567D02*
Y464813D01*
X648157Y465305*
X648336Y465551*
X648694Y465797*
X649409*
X649767Y465551*
X649946Y465305*
X650125Y464813*
Y464321*
X649946Y463829*
X649588Y463091*
X647799Y460630*
X650304*
X669291D02*
X677165D01*
X669291Y468504*
X677165*
X669291Y460630*
X690838Y465797D02*
X692269Y463337D01*
Y460630*
X693701Y465797D02*
X692269Y463337D01*
X695311Y465797D02*
Y460630D01*
Y465797D02*
X697638D01*
X695311Y463337D02*
X696743D01*
X695311Y460630D02*
X697638D01*
X701754Y465059D02*
X701396Y465551D01*
X700859Y465797*
X700143*
X699606Y465551*
X699248Y465059*
Y464567*
X699427Y464075*
X699606Y463829*
X699964Y463583*
X701038Y463091*
X701396Y462844*
X701575Y462598*
X701754Y462106*
Y461368*
X701396Y460876*
X700859Y460630*
X700143*
X699606Y460876*
X699248Y461368*
X725734Y465059D02*
Y460630D01*
X724123Y462844D02*
X727344D01*
X732176Y466781D02*
X728955Y458907D01*
X733787Y462844D02*
X737008D01*
X739692Y465797D02*
X739155Y465551D01*
X738797Y464813*
X738618Y463583*
Y462844*
X738797Y461614*
X739155Y460876*
X739692Y460630*
X740050*
X740587Y460876*
X740945Y461614*
X741124Y462844*
Y463583*
X740945Y464813*
X740587Y465551*
X740050Y465797*
X739692*
X742913Y461122D02*
X742734Y460876D01*
X742913Y460630*
X743092Y460876*
X742913Y461122*
X745777Y465797D02*
X745240Y465551D01*
X744882Y464813*
X744703Y463583*
Y462844*
X744882Y461614*
X745240Y460876*
X745777Y460630*
X746135*
X746671Y460876*
X747029Y461614*
X747208Y462844*
Y463583*
X747029Y464813*
X746671Y465551*
X746135Y465797*
X745777*
X587688Y450049D02*
X587151Y449803D01*
X586793Y449065*
X586614Y447835*
Y447096*
X586793Y445866*
X587151Y445128*
X587688Y444882*
X588046*
X588583Y445128*
X588941Y445866*
X589120Y447096*
Y447835*
X588941Y449065*
X588583Y449803*
X588046Y450049*
X587688*
X590909Y445374D02*
X590730Y445128D01*
X590909Y444882*
X591088Y445128*
X590909Y445374*
X593593Y450049D02*
X593057Y449803D01*
X592878Y449311*
Y448819*
X593057Y448327*
X593414Y448081*
X594130Y447835*
X594667Y447589*
X595025Y447096*
X595204Y446604*
Y445866*
X595025Y445374*
X594846Y445128*
X594309Y444882*
X593593*
X593057Y445128*
X592878Y445374*
X592699Y445866*
Y446604*
X592878Y447096*
X593236Y447589*
X593772Y447835*
X594488Y448081*
X594846Y448327*
X595025Y448819*
Y449311*
X594846Y449803*
X594309Y450049*
X593593*
X599141D02*
X597351D01*
X597173Y447835*
X597351Y448081*
X597888Y448327*
X598425*
X598962Y448081*
X599320Y447589*
X599499Y446850*
X599320Y446358*
X599141Y445620*
X598783Y445128*
X598246Y444882*
X597709*
X597173Y445128*
X596994Y445374*
X596815Y445866*
X647978Y448819D02*
Y449065D01*
X648157Y449557*
X648336Y449803*
X648694Y450049*
X649409*
X649767Y449803*
X649946Y449557*
X650125Y449065*
Y448573*
X649946Y448081*
X649588Y447343*
X647799Y444882*
X650304*
X669291D02*
X677165Y452756D01*
Y444882*
X669291Y452756*
Y444882*
X690838Y450049D02*
X692269Y447589D01*
Y444882*
X693701Y450049D02*
X692269Y447589D01*
X695311Y450049D02*
Y444882D01*
Y450049D02*
X697638D01*
X695311Y447589D02*
X696743D01*
X695311Y444882D02*
X697638D01*
X701754Y449311D02*
X701396Y449803D01*
X700859Y450049*
X700143*
X699606Y449803*
X699248Y449311*
Y448819*
X699427Y448327*
X699606Y448081*
X699964Y447835*
X701038Y447343*
X701396Y447096*
X701575Y446850*
X701754Y446358*
Y445620*
X701396Y445128*
X700859Y444882*
X700143*
X699606Y445128*
X699248Y445620*
X725734Y449311D02*
Y444882D01*
X724123Y447096D02*
X727344D01*
X732176Y451033D02*
X728955Y443159D01*
X733787Y447096D02*
X737008D01*
X739692Y450049D02*
X739155Y449803D01*
X738797Y449065*
X738618Y447835*
Y447096*
X738797Y445866*
X739155Y445128*
X739692Y444882*
X740050*
X740587Y445128*
X740945Y445866*
X741124Y447096*
Y447835*
X740945Y449065*
X740587Y449803*
X740050Y450049*
X739692*
X742913Y445374D02*
X742734Y445128D01*
X742913Y444882*
X743092Y445128*
X742913Y445374*
X745777Y450049D02*
X745240Y449803D01*
X744882Y449065*
X744703Y447835*
Y447096*
X744882Y445866*
X745240Y445128*
X745777Y444882*
X746135*
X746671Y445128*
X747029Y445866*
X747208Y447096*
Y447835*
X747029Y449065*
X746671Y449803*
X746135Y450049*
X745777*
X587688Y434301D02*
X587151Y434055D01*
X586793Y433317*
X586614Y432087*
Y431348*
X586793Y430118*
X587151Y429380*
X587688Y429134*
X588046*
X588583Y429380*
X588941Y430118*
X589120Y431348*
Y432087*
X588941Y433317*
X588583Y434055*
X588046Y434301*
X587688*
X590909Y429626D02*
X590730Y429380D01*
X590909Y429134*
X591088Y429380*
X590909Y429626*
X595025Y432579D02*
X594846Y431841D01*
X594488Y431348*
X593951Y431102*
X593772*
X593236Y431348*
X592878Y431841*
X592699Y432579*
Y432825*
X592878Y433563*
X593236Y434055*
X593772Y434301*
X593951*
X594488Y434055*
X594846Y433563*
X595025Y432579*
Y431348*
X594846Y430118*
X594488Y429380*
X593951Y429134*
X593593*
X593057Y429380*
X592878Y429872*
X650036Y433563D02*
X649857Y434055D01*
X649320Y434301*
X648962*
X648425Y434055*
X648067Y433317*
X647888Y432087*
Y430856*
X648067Y429872*
X648425Y429380*
X648962Y429134*
X649141*
X649678Y429380*
X650036Y429872*
X650215Y430610*
Y430856*
X650036Y431594*
X649678Y432087*
X649141Y432333*
X648962*
X648425Y432087*
X648067Y431594*
X647888Y430856*
X669291Y433071D02*
X677165D01*
X673228Y429134D02*
Y437008D01*
X676342Y439173D02*
X675197Y435039D01*
X676342Y439173D02*
X677487Y435039D01*
X675626Y436417D02*
X677058D01*
X690838Y434301D02*
X692269Y431841D01*
Y429134*
X693701Y434301D02*
X692269Y431841D01*
X695311Y434301D02*
Y429134D01*
Y434301D02*
X697638D01*
X695311Y431841D02*
X696743D01*
X695311Y429134D02*
X697638D01*
X701754Y433563D02*
X701396Y434055D01*
X700859Y434301*
X700143*
X699606Y434055*
X699248Y433563*
Y433071*
X699427Y432579*
X699606Y432333*
X699964Y432087*
X701038Y431594*
X701396Y431348*
X701575Y431102*
X701754Y430610*
Y429872*
X701396Y429380*
X700859Y429134*
X700143*
X699606Y429380*
X699248Y429872*
X725734Y433563D02*
Y429134D01*
X724123Y431348D02*
X727344D01*
X732176Y435285D02*
X728955Y427411D01*
X733787Y431348D02*
X737008D01*
X739692Y434301D02*
X739155Y434055D01*
X738797Y433317*
X738618Y432087*
Y431348*
X738797Y430118*
X739155Y429380*
X739692Y429134*
X740050*
X740587Y429380*
X740945Y430118*
X741124Y431348*
Y432087*
X740945Y433317*
X740587Y434055*
X740050Y434301*
X739692*
X742913Y429626D02*
X742734Y429380D01*
X742913Y429134*
X743092Y429380*
X742913Y429626*
X745777Y434301D02*
X745240Y434055D01*
X744882Y433317*
X744703Y432087*
Y431348*
X744882Y430118*
X745240Y429380*
X745777Y429134*
X746135*
X746671Y429380*
X747029Y430118*
X747208Y431348*
Y432087*
X747029Y433317*
X746671Y434055*
X746135Y434301*
X745777*
X587688Y418553D02*
X587151Y418307D01*
X586793Y417569*
X586614Y416339*
Y415600*
X586793Y414370*
X587151Y413632*
X587688Y413386*
X588046*
X588583Y413632*
X588941Y414370*
X589120Y415600*
Y416339*
X588941Y417569*
X588583Y418307*
X588046Y418553*
X587688*
X590909Y413878D02*
X590730Y413632D01*
X590909Y413386*
X591088Y413632*
X590909Y413878*
X595025Y418553D02*
X593236D01*
X593057Y416339*
X593236Y416585*
X593772Y416831*
X594309*
X594846Y416585*
X595204Y416093*
X595383Y415354*
X595204Y414862*
X595025Y414124*
X594667Y413632*
X594130Y413386*
X593593*
X593057Y413632*
X592878Y413878*
X592699Y414370*
X599320Y418553D02*
X597530D01*
X597351Y416339*
X597530Y416585*
X598067Y416831*
X598604*
X599141Y416585*
X599499Y416093*
X599678Y415354*
X599499Y414862*
X599320Y414124*
X598962Y413632*
X598425Y413386*
X597888*
X597351Y413632*
X597173Y413878*
X596994Y414370*
X649499Y418553D02*
X647709Y415108D01*
X650394*
X649499Y418553D02*
Y413386D01*
X669291Y417323D02*
X677165D01*
X673228Y413386D02*
Y421260D01*
X675197Y423425D02*
Y419291D01*
Y423425D02*
X676485D01*
X676915Y423228*
X677058Y423031*
X677201Y422638*
Y422244*
X677058Y421850*
X676915Y421654*
X676485Y421457*
X675197D02*
X676485D01*
X676915Y421260*
X677058Y421063*
X677201Y420669*
Y420079*
X677058Y419685*
X676915Y419488*
X676485Y419291*
X675197*
X690838Y418553D02*
X692269Y416093D01*
Y413386*
X693701Y418553D02*
X692269Y416093D01*
X695311Y418553D02*
Y413386D01*
Y418553D02*
X697638D01*
X695311Y416093D02*
X696743D01*
X695311Y413386D02*
X697638D01*
X701754Y417815D02*
X701396Y418307D01*
X700859Y418553*
X700143*
X699606Y418307*
X699248Y417815*
Y417323*
X699427Y416831*
X699606Y416585*
X699964Y416339*
X701038Y415846*
X701396Y415600*
X701575Y415354*
X701754Y414862*
Y414124*
X701396Y413632*
X700859Y413386*
X700143*
X699606Y413632*
X699248Y414124*
X725734Y417815D02*
Y413386D01*
X724123Y415600D02*
X727344D01*
X732176Y419537D02*
X728955Y411663D01*
X733787Y415600D02*
X737008D01*
X739692Y418553D02*
X739155Y418307D01*
X738797Y417569*
X738618Y416339*
Y415600*
X738797Y414370*
X739155Y413632*
X739692Y413386*
X740050*
X740587Y413632*
X740945Y414370*
X741124Y415600*
Y416339*
X740945Y417569*
X740587Y418307*
X740050Y418553*
X739692*
X742913Y413878D02*
X742734Y413632D01*
X742913Y413386*
X743092Y413632*
X742913Y413878*
X745777Y418553D02*
X745240Y418307D01*
X744882Y417569*
X744703Y416339*
Y415600*
X744882Y414370*
X745240Y413632*
X745777Y413386*
X746135*
X746671Y413632*
X747029Y414370*
X747208Y415600*
Y416339*
X747029Y417569*
X746671Y418307*
X746135Y418553*
X745777*
X586972Y402805D02*
X588941D01*
X587867Y400837*
X588404*
X588762Y400591*
X588941Y400344*
X589120Y399606*
Y399114*
X588941Y398376*
X588583Y397884*
X588046Y397638*
X587509*
X586972Y397884*
X586793Y398130*
X586614Y398622*
X590909Y398130D02*
X590730Y397884D01*
X590909Y397638*
X591088Y397884*
X590909Y398130*
X592878Y401575D02*
Y401821D01*
X593057Y402313*
X593236Y402559*
X593593Y402805*
X594309*
X594667Y402559*
X594846Y402313*
X595025Y401821*
Y401329*
X594846Y400837*
X594488Y400098*
X592699Y397638*
X595204*
X599141Y402805D02*
X597351D01*
X597173Y400591*
X597351Y400837*
X597888Y401083*
X598425*
X598962Y400837*
X599320Y400344*
X599499Y399606*
X599320Y399114*
X599141Y398376*
X598783Y397884*
X598246Y397638*
X597709*
X597173Y397884*
X596994Y398130*
X596815Y398622*
X647978Y401575D02*
Y401821D01*
X648157Y402313*
X648336Y402559*
X648694Y402805*
X649409*
X649767Y402559*
X649946Y402313*
X650125Y401821*
Y401329*
X649946Y400837*
X649588Y400098*
X647799Y397638*
X650304*
X669291Y401575D02*
X677165D01*
X673228Y397638D02*
Y405512D01*
X677344Y406693D02*
X677201Y407087D01*
X676915Y407480*
X676628Y407677*
X676056*
X675770Y407480*
X675483Y407087*
X675340Y406693*
X675197Y406102*
Y405118*
X675340Y404528*
X675483Y404134*
X675770Y403740*
X676056Y403543*
X676628*
X676915Y403740*
X677201Y404134*
X677344Y404528*
X692806Y402805D02*
Y397638D01*
Y402805D02*
X695311Y397638D01*
Y402805D02*
Y397638D01*
X697996Y402805D02*
X697638Y402559D01*
X697280Y402067*
X697101Y401575*
X696922Y400837*
Y399606*
X697101Y398868*
X697280Y398376*
X697638Y397884*
X697996Y397638*
X698712*
X699069Y397884*
X699427Y398376*
X699606Y398868*
X699785Y399606*
Y400837*
X699606Y401575*
X699427Y402067*
X699069Y402559*
X698712Y402805*
X697996*
X725734Y402067D02*
Y397638D01*
X724123Y399852D02*
X727344D01*
X732176Y403789D02*
X728955Y395915D01*
X733787Y399852D02*
X737008D01*
X739692Y402805D02*
X739155Y402559D01*
X738797Y401821*
X738618Y400591*
Y399852*
X738797Y398622*
X739155Y397884*
X739692Y397638*
X740050*
X740587Y397884*
X740945Y398622*
X741124Y399852*
Y400591*
X740945Y401821*
X740587Y402559*
X740050Y402805*
X739692*
X742913Y398130D02*
X742734Y397884D01*
X742913Y397638*
X743092Y397884*
X742913Y398130*
X745777Y402805D02*
X745240Y402559D01*
X744882Y401821*
X744703Y400591*
Y399852*
X744882Y398622*
X745240Y397884*
X745777Y397638*
X746135*
X746671Y397884*
X747029Y398622*
X747208Y399852*
Y400591*
X747029Y401821*
X746671Y402559*
X746135Y402805*
X745777*
G54D12*
X374016Y421260D02*
Y525543D01*
Y421260D02*
X371516Y431260D01*
X376516*
X374016Y421260*
Y657480D02*
Y562452D01*
Y657480D02*
X376516Y647480D01*
X371516*
X374016Y657480*
X404449Y421260D02*
X369016D01*
X404449Y657480D02*
X369016D01*
X369375Y531271D02*
X368750Y531043D01*
X368437Y530361*
X368437D02*
Y529907D01*
X368437D02*
X368750Y529225D01*
X369687Y528771*
X369687D02*
X371250Y528543D01*
X372812*
X372812D02*
X374062Y528771D01*
X374062D02*
X374687Y529225D01*
X374687D02*
X375000Y529907D01*
Y530134*
X374687Y530816*
X374687D02*
X374062Y531271D01*
X374062D02*
X373125Y531498D01*
X372812*
X372812D02*
X371875Y531271D01*
X371250Y530816*
X370937Y530134*
X370937D02*
Y529907D01*
X370937D02*
X371250Y529225D01*
X371875Y528771*
X372812Y528543*
X368437Y534907D02*
X368750Y534225D01*
X369687Y533771*
X369687D02*
X371250Y533543D01*
X372187*
X372187D02*
X373750Y533771D01*
X374687Y534225*
X374687D02*
X375000Y534907D01*
Y535361*
X374687Y536043*
X374687D02*
X373750Y536498D01*
X372187Y536725*
X372187D02*
X371250D01*
X369687Y536498*
X369687D02*
X368750Y536043D01*
X368437Y535361*
X368437D02*
Y534907D01*
X374375Y538998D02*
X374687Y538771D01*
X374687D02*
X375000Y538998D01*
X374687Y539225*
X374687D02*
X374375Y538998D01*
X368437Y542634D02*
X368750Y541952D01*
X369687Y541498*
X369687D02*
X371250Y541271D01*
X372187*
X372187D02*
X373750Y541498D01*
X374687Y541952*
X374687D02*
X375000Y542634D01*
Y543089*
X374687Y543771*
X374687D02*
X373750Y544225D01*
X372187Y544452*
X372187D02*
X371250D01*
X369687Y544225*
X369687D02*
X368750Y543771D01*
X368437Y543089*
X368437D02*
Y542634D01*
X370625Y546498D02*
X375000D01*
X371875D02*
X370937Y547180D01*
X370937D02*
X370625Y547634D01*
Y548316*
X370937Y548771*
X370937D02*
X371875Y548998D01*
X375000*
X371875D02*
X370937Y549680D01*
X370937D02*
X370625Y550134D01*
Y550816*
X370937Y551271*
X370937D02*
X371875Y551498D01*
X375000*
X370625Y553543D02*
X375000D01*
X371875D02*
X370937Y554225D01*
X370937D02*
X370625Y554680D01*
Y555361*
X370937Y555816*
X370937D02*
X371875Y556043D01*
X375000*
X371875D02*
X370937Y556725D01*
X370937D02*
X370625Y557180D01*
Y557861*
X370937Y558316*
X370937D02*
X371875Y558543D01*
X375000*
X354331Y393701D02*
Y524559D01*
Y393701D02*
X351831Y403701D01*
X356831*
X354331Y393701*
Y685039D02*
Y561923D01*
Y685039D02*
X356831Y675039D01*
X351831*
X354331Y685039*
X388701Y393701D02*
X349331D01*
X388701Y685039D02*
X349331D01*
X347768Y530741D02*
X354331Y528468D01*
X347768Y527559D02*
Y530741D01*
Y535059D02*
X352143Y532786D01*
Y536195*
X347768Y535059D02*
X354331D01*
X353706Y538468D02*
X354018Y538241D01*
X354331Y538468*
X354018Y538695*
X353706Y538468*
X347768Y542105D02*
X348081Y541423D01*
X349018Y540968*
X350581Y540741*
X351518*
X353081Y540968*
X354018Y541423*
X354331Y542105*
Y542559*
X354018Y543241*
X353081Y543695*
X351518Y543923*
X350581*
X349018Y543695*
X348081Y543241*
X347768Y542559*
Y542105*
X349956Y545968D02*
X354331D01*
X351206D02*
X350268Y546650D01*
X349956Y547105*
Y547786*
X350268Y548241*
X351206Y548468*
X354331*
X351206D02*
X350268Y549150D01*
X349956Y549605*
Y550286*
X350268Y550741*
X351206Y550968*
X354331*
X349956Y553014D02*
X354331D01*
X351206D02*
X350268Y553695D01*
X349956Y554150*
Y554832*
X350268Y555286*
X351206Y555514*
X354331*
X351206D02*
X350268Y556195D01*
X349956Y556650*
Y557332*
X350268Y557786*
X351206Y558014*
X354331*
X566929Y708661D02*
X499110D01*
X566929D02*
X556929Y706161D01*
Y711161*
X566929Y708661*
X393701D02*
X461520D01*
X393701D02*
X403701Y711161D01*
Y706161*
X393701Y708661*
X566929Y690039D02*
Y713661D01*
X393701Y690039D02*
Y713661D01*
X466792Y711474D02*
X464520Y707099D01*
X467929*
X466792Y711474D02*
Y704911D01*
X472247Y711474D02*
X469974Y707099D01*
X473383*
X472247Y711474D02*
Y704911D01*
X475656Y705536D02*
X475429Y705224D01*
X475656Y704911*
X475883Y705224*
X475656Y705536*
X479292Y711474D02*
X478610Y711161D01*
X478156Y710224*
X477929Y708661*
Y707724*
X478156Y706161*
X478610Y705224*
X479292Y704911*
X479747*
X480429Y705224*
X480883Y706161*
X481110Y707724*
Y708661*
X480883Y710224*
X480429Y711161*
X479747Y711474*
X479292*
X483156Y709286D02*
Y704911D01*
Y708036D02*
X483838Y708974D01*
X484292Y709286*
X484974*
X485429Y708974*
X485656Y708036*
Y704911*
Y708036D02*
X486338Y708974D01*
X486792Y709286*
X487474*
X487929Y708974*
X488156Y708036*
Y704911*
X490201Y709286D02*
Y704911D01*
Y708036D02*
X490883Y708974D01*
X491338Y709286*
X492020*
X492474Y708974*
X492701Y708036*
Y704911*
Y708036D02*
X493383Y708974D01*
X493838Y709286*
X494520*
X494974Y708974*
X495201Y708036*
Y704911*
G54D15*
X542580Y350586D02*
Y347052D01*
X542731Y346428*
X543033Y346220*
X543336*
X542126Y349131D02*
X543185D01*
X531890Y360822D02*
Y356456D01*
Y360822D02*
X533251D01*
X533704Y360615*
X533856Y360407*
X534007Y359991*
Y359575*
X533856Y359159*
X533704Y358951*
X533251Y358743*
X531890*
X532948D02*
X534007Y356456D01*
X535368Y360822D02*
Y356456D01*
Y360822D02*
X537334D01*
X535368Y358743D02*
X536577D01*
X535368Y356456D02*
X537334D01*
X538695Y360822D02*
X539904Y356456D01*
X541114Y360822D02*
X539904Y356456D01*
X542475Y360822D02*
Y356456D01*
Y360822D02*
X544441D01*
X542475Y358743D02*
X543685D01*
X542475Y356456D02*
X544441D01*
X499681Y350586D02*
Y346220D01*
X498622Y350586D02*
X500739D01*
X502100D02*
Y346220D01*
X504217Y350586D02*
Y346220D01*
X502100Y348507D02*
X504217D01*
X505578Y350586D02*
Y346220D01*
X509207Y349547D02*
X509056Y349962D01*
X508754Y350378*
X508451Y350586*
X507846*
X507544Y350378*
X507241Y349962*
X507090Y349547*
X506939Y348923*
Y347883*
X507090Y347259*
X507241Y346844*
X507544Y346428*
X507846Y346220*
X508451*
X508754Y346428*
X509056Y346844*
X509207Y347259*
X510568Y350586D02*
Y346220D01*
X512685Y350586D02*
X510568Y347675D01*
X511324Y348715D02*
X512685Y346220D01*
X514046Y350586D02*
Y346220D01*
Y350586D02*
X516163Y346220D01*
Y350586D02*
Y346220D01*
X517524Y350586D02*
Y346220D01*
Y350586D02*
X519490D01*
X517524Y348507D02*
X518734D01*
X517524Y346220D02*
X519490D01*
X522968Y349962D02*
X522666Y350378D01*
X522212Y350586*
X521607*
X521153Y350378*
X520851Y349962*
Y349547*
X521002Y349131*
X521153Y348923*
X521456Y348715*
X522363Y348299*
X522666Y348091*
X522817Y347883*
X522968Y347467*
Y346844*
X522666Y346428*
X522212Y346220*
X521607*
X521153Y346428*
X520851Y346844*
X526446Y349962D02*
X526144Y350378D01*
X525690Y350586*
X525085*
X524631Y350378*
X524329Y349962*
Y349547*
X524480Y349131*
X524631Y348923*
X524934Y348715*
X525841Y348299*
X526144Y348091*
X526295Y347883*
X526446Y347467*
Y346844*
X526144Y346428*
X525690Y346220*
X525085*
X524631Y346428*
X524329Y346844*
X531890Y340350D02*
Y335984D01*
X533704*
X535217Y336399D02*
X535065Y336192D01*
X535217Y335984*
X535368Y336192*
X535217Y336399*
X538846Y339726D02*
X538543Y340142D01*
X538090Y340350*
X537485*
X537031Y340142*
X536729Y339726*
Y339310*
X536880Y338895*
X537031Y338687*
X537334Y338479*
X538241Y338063*
X538543Y337855*
X538695Y337647*
X538846Y337231*
Y336607*
X538543Y336192*
X538090Y335984*
X537485*
X537031Y336192*
X536729Y336607*
X540358Y336399D02*
X540207Y336192D01*
X540358Y335984*
X540509Y336192*
X540358Y336399*
X541870Y340350D02*
Y335984D01*
X543987Y340350D02*
X541870Y337439D01*
X542626Y338479D02*
X543987Y335984D01*
X401087Y349547D02*
X400936Y349962D01*
X400633Y350378*
X400633D02*
X400331Y350586D01*
X399726*
X399424Y350378*
X399121Y349962*
X398970Y349547*
X398819Y348923*
Y347883*
X398970Y347259*
X399121Y346844*
X399424Y346428*
X399726Y346220*
X400331*
X400633Y346428*
X400633D02*
X400936Y346844D01*
X401087Y347259*
X403355Y350586D02*
X403053Y350378D01*
X402751Y349962*
X402599Y349547*
X402448Y348923*
Y347883*
X402599Y347259*
X402751Y346844*
X403053Y346428*
X403355Y346220*
X403960*
X404263Y346428*
X404565Y346844*
X404716Y347259*
X404868Y347883*
Y348923*
X404716Y349547*
X404565Y349962*
X404263Y350378*
X403960Y350586*
X403355*
X406229D02*
Y346220D01*
Y350586D02*
X407438Y346220D01*
X408648Y350586D02*
X407438Y346220D01*
X408648Y350586D02*
Y346220D01*
X410009Y350586D02*
Y346220D01*
Y350586D02*
X411370D01*
X411824Y350378*
X411975Y350170*
X412126Y349755*
Y349131*
X411975Y348715*
X411824Y348507*
X411370Y348299*
X410009*
X414697Y350586D02*
X413487Y346220D01*
X414697Y350586D02*
X415906Y346220D01*
X413941Y347675D02*
X415453D01*
X417267Y350586D02*
Y346220D01*
Y350586D02*
X419384Y346220D01*
Y350586D02*
Y346220D01*
X420745Y350586D02*
X421955Y348507D01*
Y346220*
X423165Y350586D02*
X421955Y348507D01*
X398819Y360822D02*
Y356456D01*
X400633*
X403204Y360822D02*
X401994Y356456D01*
X403204Y360822D02*
X404414Y356456D01*
X402448Y357912D02*
X403960D01*
X405775Y360822D02*
X406985Y358743D01*
Y356456*
X408194Y360822D02*
X406985Y358743D01*
X409555Y360822D02*
Y356456D01*
Y360822D02*
X411521D01*
X409555Y358743D02*
X410765D01*
X409555Y356456D02*
X411521D01*
X412882Y360822D02*
Y356456D01*
Y360822D02*
X414243D01*
X414697Y360615*
X414848Y360407*
X414999Y359991*
Y359575*
X414848Y359159*
X414697Y358951*
X414243Y358743*
X412882*
X413941D02*
X414999Y356456D01*
X398819Y371059D02*
Y366692D01*
Y371059D02*
X400029Y366692D01*
X401238Y371059D02*
X400029Y366692D01*
X401238Y371059D02*
Y366692D01*
X403507Y371059D02*
X403204Y370851D01*
X402902Y370435*
X402751Y370019*
X402599Y369395*
Y368356*
X402751Y367732*
X402902Y367316*
X403204Y366900*
X403507Y366692*
X404111*
X404414Y366900*
X404716Y367316*
X404868Y367732*
X405019Y368356*
Y369395*
X404868Y370019*
X404716Y370435*
X404414Y370851*
X404111Y371059*
X403507*
X406380D02*
Y366692D01*
Y371059D02*
X407438D01*
X407892Y370851*
X408194Y370435*
X408346Y370019*
X408497Y369395*
Y368356*
X408346Y367732*
X408194Y367316*
X407892Y366900*
X407438Y366692*
X406380*
X409858Y371059D02*
Y366692D01*
Y371059D02*
X411824D01*
X409858Y368979D02*
X411067D01*
X409858Y366692D02*
X411824D01*
X413185Y371059D02*
Y366692D01*
X413185D02*
X414999D01*
X398819Y340350D02*
Y335984D01*
Y340350D02*
X399877D01*
X400331Y340142*
X400633Y339726*
X400633D02*
X400785Y339310D01*
X400936Y338687*
Y337647*
X400785Y337023*
X400633Y336607*
X400633D02*
X400331Y336192D01*
X399877Y335984*
X398819*
X403507Y340350D02*
X402297Y335984D01*
X403507Y340350D02*
X404716Y335984D01*
X402751Y337439D02*
X404263D01*
X407136Y340350D02*
Y335984D01*
X406077Y340350D02*
X408194D01*
X409555D02*
Y335984D01*
Y340350D02*
X411521D01*
X409555Y338271D02*
X410765D01*
X409555Y335984D02*
X411521D01*
X500739Y360199D02*
X500437Y360615D01*
X499983Y360822*
X499378*
X498924Y360615*
X498622Y360199*
Y359783*
X498773Y359367*
X498924Y359159*
X499227Y358951*
X500134Y358535*
X500437Y358327*
X500588Y358119*
X500739Y357704*
Y357080*
X500437Y356664*
X499983Y356456*
X499378*
X498924Y356664*
X498622Y357080*
X503159Y360822D02*
Y356456D01*
X502100Y360822D02*
X504217D01*
X506788D02*
X505578Y356456D01*
X506788Y360822D02*
X507997Y356456D01*
X506032Y357912D02*
X507544D01*
X511627Y359783D02*
X511475Y360199D01*
X511173Y360615*
X510871Y360822*
X510266*
X509963Y360615*
X509661Y360199*
X509510Y359783*
X509358Y359159*
Y358119*
X509510Y357496*
X509661Y357080*
X509963Y356664*
X510266Y356456*
X510871*
X511173Y356664*
X511475Y357080*
X511627Y357496*
Y358119*
X510871D02*
X511627D01*
X512988Y360822D02*
Y356456D01*
Y360822D02*
X514953D01*
X512988Y358743D02*
X514197D01*
X512988Y356456D02*
X514953D01*
X498622Y340350D02*
Y335984D01*
Y340350D02*
X499681D01*
X500134Y340142*
X500437Y339726*
X500588Y339310*
X500739Y338687*
Y337647*
X500588Y337023*
X500437Y336607*
X500134Y336192*
X499681Y335984*
X498622*
X502100Y340350D02*
Y335984D01*
Y340350D02*
X504066D01*
X502100Y338271D02*
X503310D01*
X502100Y335984D02*
X504066D01*
X507544Y339726D02*
X507241Y340142D01*
X506788Y340350*
X506183*
X505729Y340142*
X505427Y339726*
Y339310*
X505578Y338895*
X505729Y338687*
X506032Y338479*
X506939Y338063*
X507241Y337855*
X507393Y337647*
X507544Y337231*
Y336607*
X507241Y336192*
X506788Y335984*
X506183*
X505729Y336192*
X505427Y336607*
X508905Y340350D02*
Y335984D01*
X512534Y339310D02*
X512383Y339726D01*
X512080Y340142*
X511778Y340350*
X511173*
X510871Y340142*
X510568Y339726*
X510417Y339310*
X510266Y338687*
Y337647*
X510417Y337023*
X510568Y336607*
X510871Y336192*
X511173Y335984*
X511778*
X512080Y336192*
X512383Y336607*
X512534Y337023*
Y337647*
X511778D02*
X512534D01*
X513895Y340350D02*
Y335984D01*
Y340350D02*
X516012Y335984D01*
Y340350D02*
Y335984D01*
X517373Y340350D02*
Y335984D01*
Y340350D02*
X519339D01*
X517373Y338271D02*
X518583D01*
X517373Y335984D02*
X519339D01*
X520700Y340350D02*
Y335984D01*
Y340350D02*
X522061D01*
X522514Y340142*
X522666Y339934*
X522817Y339518*
Y339102*
X522666Y338687*
X522514Y338479*
X522061Y338271*
X520700*
X521758D02*
X522817Y335984D01*
X557480Y345485D02*
Y342126D01*
Y343725D02*
X557829Y344205D01*
X558062Y344365*
X558411*
X558644Y344205*
X558760Y343725*
Y342126*
X560156Y345485D02*
Y342766D01*
X560272Y342286*
X560505Y342126*
X560737*
X559807Y344365D02*
X560621D01*
X562133Y345485D02*
Y342766D01*
X562249Y342286*
X562482Y342126*
X562715*
X561784Y344365D02*
X562598D01*
X563762D02*
Y341006D01*
Y343885D02*
X563994Y344205D01*
X564227Y344365*
X564576*
X564809Y344205*
X565041Y343885*
X565157Y343406*
Y343086*
X565041Y342606*
X564809Y342286*
X564576Y342126*
X564227*
X563994Y342286*
X563762Y342606*
X566321Y344365D02*
X566204Y344205D01*
X566321Y344045*
X566437Y344205*
X566321Y344365*
Y342446D02*
X566204Y342286D01*
X566321Y342126*
X566437Y342286*
X566321Y342446*
X569578Y346125D02*
X567484Y341006D01*
X572718Y346125D02*
X570625Y341006D01*
X573765Y344365D02*
X574230Y342126D01*
X574696Y344365D02*
X574230Y342126D01*
X574696Y344365D02*
X575161Y342126D01*
X575626Y344365D02*
X575161Y342126D01*
X576673Y344365D02*
X577139Y342126D01*
X577604Y344365D02*
X577139Y342126D01*
X577604Y344365D02*
X578069Y342126D01*
X578534Y344365D02*
X578069Y342126D01*
X579581Y344365D02*
X580047Y342126D01*
X580512Y344365D02*
X580047Y342126D01*
X580512Y344365D02*
X580977Y342126D01*
X581442Y344365D02*
X580977Y342126D01*
X582606Y342446D02*
X582489Y342286D01*
X582606Y342126*
X582722Y342286*
X582606Y342446*
X583885Y344365D02*
X584583Y342126D01*
X585281Y344365D02*
X584583Y342126D01*
X584350Y341486*
X584118Y341166*
X583885Y341006*
X583769*
X586909Y344365D02*
X586677Y344205D01*
X586444Y343885*
X586328Y343406*
Y343086*
X586444Y342606*
X586677Y342286*
X586909Y342126*
X587258*
X587491Y342286*
X587724Y342606*
X587840Y343086*
Y343406*
X587724Y343885*
X587491Y344205*
X587258Y344365*
X586909*
X588887D02*
Y342766D01*
X589003Y342286*
X589236Y342126*
X589585*
X589817Y342286*
X590166Y342766*
Y344365D02*
Y342126D01*
X591213Y345485D02*
X591330Y345325D01*
X591446Y345485*
X591330Y345645*
X591213Y345485*
X591330Y344365D02*
Y342126D01*
X592493Y345485D02*
Y342126D01*
X594936Y343885D02*
X594703Y344205D01*
X594470Y344365*
X594121*
X593889Y344205*
X593656Y343885*
X593540Y343406*
Y343086*
X593656Y342606*
X593889Y342286*
X594121Y342126*
X594470*
X594703Y342286*
X594936Y342606*
X597378Y344365D02*
Y342126D01*
Y343885D02*
X597146Y344205D01*
X596913Y344365*
X596564*
X596331Y344205*
X596099Y343885*
X595982Y343406*
Y343086*
X596099Y342606*
X596331Y342286*
X596564Y342126*
X596913*
X597146Y342286*
X597378Y342606*
X599821Y345485D02*
Y342126D01*
Y343885D02*
X599588Y344205D01*
X599356Y344365*
X599007*
X598774Y344205*
X598542Y343885*
X598425Y343406*
Y343086*
X598542Y342606*
X598774Y342286*
X599007Y342126*
X599356*
X599588Y342286*
X599821Y342606*
X600984Y342446D02*
X600868Y342286D01*
X600984Y342126*
X601101Y342286*
X600984Y342446*
X603543Y343885D02*
X603311Y344205D01*
X603078Y344365*
X602729*
X602496Y344205*
X602264Y343885*
X602147Y343406*
Y343086*
X602264Y342606*
X602496Y342286*
X602729Y342126*
X603078*
X603311Y342286*
X603543Y342606*
X605172Y344365D02*
X604939Y344205D01*
X604707Y343885*
X604590Y343406*
Y343086*
X604707Y342606*
X604939Y342286*
X605172Y342126*
X605521*
X605753Y342286*
X605986Y342606*
X606102Y343086*
Y343406*
X605986Y343885*
X605753Y344205*
X605521Y344365*
X605172*
X607266Y342446D02*
X607149Y342286D01*
X607266Y342126*
X607382Y342286*
X607266Y342446*
X608429Y345485D02*
Y342126D01*
X609592Y344365D02*
X608429Y342766D01*
X608894Y343406D02*
X609708Y342126D01*
X610755Y344365D02*
Y342126D01*
Y343406D02*
X610872Y343885D01*
X611104Y344205*
X611337Y344365*
X611686*
X558295Y338461D02*
Y335102D01*
X557480Y338461D02*
X559109D01*
X560156Y336382D02*
X561552D01*
Y336702*
X561435Y337022*
X561319Y337182*
X561086Y337342*
X560737*
X560505Y337182*
X560272Y336862*
X560156Y336382*
Y336062*
X560272Y335582*
X560505Y335262*
X560737Y335102*
X561086*
X561319Y335262*
X561552Y335582*
X562598Y338461D02*
Y335102D01*
X563762Y335422D02*
X563645Y335262D01*
X563762Y335102*
X563878Y335262*
X563762Y335422*
X565623Y338461D02*
X565274Y338301D01*
X565041Y337821*
X564925Y337022*
Y336542*
X565041Y335742*
X565274Y335262*
X565623Y335102*
X565855*
X566204Y335262*
X566437Y335742*
X566553Y336542*
Y337022*
X566437Y337821*
X566204Y338301*
X565855Y338461*
X565623*
X567833D02*
X569112D01*
X568414Y337182*
X568763*
X568996Y337022*
X569112Y336862*
X569229Y336382*
Y336062*
X569112Y335582*
X568880Y335262*
X568531Y335102*
X568182*
X567833Y335262*
X567717Y335422*
X567600Y335742*
X570276Y337821D02*
X570508Y337981D01*
X570857Y338461*
Y335102*
X571904Y336542D02*
X573998D01*
X575277Y338461D02*
X576557D01*
X575859Y337182*
X576208*
X576441Y337022*
X576557Y336862*
X576673Y336382*
Y336062*
X576557Y335582*
X576324Y335262*
X575975Y335102*
X575626*
X575277Y335262*
X575161Y335422*
X575045Y335742*
X579232Y337342D02*
X579116Y336862D01*
X578883Y336542*
X578534Y336382*
X578418*
X578069Y336542*
X577836Y336862*
X577720Y337342*
Y337501*
X577836Y337981*
X578069Y338301*
X578418Y338461*
X578534*
X578883Y338301*
X579116Y337981*
X579232Y337342*
Y336542*
X579116Y335742*
X578883Y335262*
X578534Y335102*
X578302*
X577953Y335262*
X577836Y335582*
X581791Y337342D02*
X581675Y336862D01*
X581442Y336542*
X581093Y336382*
X580977*
X580628Y336542*
X580395Y336862*
X580279Y337342*
Y337501*
X580395Y337981*
X580628Y338301*
X580977Y338461*
X581093*
X581442Y338301*
X581675Y337981*
X581791Y337342*
Y336542*
X581675Y335742*
X581442Y335262*
X581093Y335102*
X580861*
X580512Y335262*
X580395Y335582*
X582838Y336542D02*
X584932D01*
X586095Y337661D02*
Y337821D01*
X586212Y338141*
X586328Y338301*
X586560Y338461*
X587026*
X587258Y338301*
X587375Y338141*
X587491Y337821*
Y337501*
X587375Y337182*
X587142Y336702*
X585979Y335102*
X587607*
X589236Y338461D02*
X588887Y338301D01*
X588771Y337981*
Y337661*
X588887Y337342*
X589120Y337182*
X589585Y337022*
X589934Y336862*
X590166Y336542*
X590283Y336222*
Y335742*
X590166Y335422*
X590050Y335262*
X589701Y335102*
X589236*
X588887Y335262*
X588771Y335422*
X588654Y335742*
Y336222*
X588771Y336542*
X589003Y336862*
X589352Y337022*
X589817Y337182*
X590050Y337342*
X590166Y337661*
Y337981*
X590050Y338301*
X589701Y338461*
X589236*
X591911D02*
X591562Y338301D01*
X591446Y337981*
Y337661*
X591562Y337342*
X591795Y337182*
X592260Y337022*
X592609Y336862*
X592842Y336542*
X592958Y336222*
Y335742*
X592842Y335422*
X592725Y335262*
X592377Y335102*
X591911*
X591562Y335262*
X591446Y335422*
X591330Y335742*
Y336222*
X591446Y336542*
X591679Y336862*
X592028Y337022*
X592493Y337182*
X592725Y337342*
X592842Y337661*
Y337981*
X592725Y338301*
X592377Y338461*
X591911*
X594121Y337661D02*
Y337821D01*
X594238Y338141*
X594354Y338301*
X594587Y338461*
X595052*
X595285Y338301*
X595401Y338141*
X595517Y337821*
Y337501*
X595401Y337182*
X595168Y336702*
X594005Y335102*
X595633*
X429528Y350586D02*
Y346220D01*
Y350586D02*
X430889D01*
X431342Y350378*
X431493Y350170*
X431645Y349755*
Y349339*
X431493Y348923*
X431342Y348715*
X430889Y348507*
X429528*
X430586D02*
X431645Y346220D01*
X433762Y349131D02*
X433459Y348923D01*
X433157Y348507*
X433006Y347883*
Y347467*
X433157Y346844*
X433459Y346428*
X433762Y346220*
X434215*
X434518Y346428*
X434820Y346844*
X434971Y347467*
Y347883*
X434820Y348507*
X434518Y348923*
X434215Y349131*
X433762*
X436332Y350586D02*
Y346220D01*
Y348507D02*
X436635Y348923D01*
X436937Y349131*
X437391*
X437693Y348923*
X437996Y348507*
X438147Y347883*
Y347467*
X437996Y346844*
X437693Y346428*
X437391Y346220*
X436937*
X436635Y346428*
X436332Y346844*
X440264Y349131D02*
X439962Y348923D01*
X439659Y348507*
X439508Y347883*
Y347467*
X439659Y346844*
X439962Y346428*
X440264Y346220*
X440718*
X441020Y346428*
X441322Y346844*
X441474Y347467*
Y347883*
X441322Y348507*
X441020Y348923*
X440718Y349131*
X440264*
X443288Y350586D02*
Y347052D01*
X443440Y346428*
X443742Y346220*
X444044*
X442835Y349131D02*
X443893D01*
X445405Y350586D02*
X445557Y350378D01*
X445708Y350586*
X445557Y350794*
X445405Y350586*
X445557Y349131D02*
Y346220D01*
X448732Y348507D02*
X448581Y348923D01*
X448127Y349131*
X447674*
X447220Y348923*
X447069Y348507*
X447220Y348091*
X447522Y347883*
X448278Y347675*
X448581Y347467*
X448732Y347052*
Y346844*
X448581Y346428*
X448127Y346220*
X447674*
X447220Y346428*
X447069Y346844*
X429679Y339310D02*
Y339518D01*
X429830Y339934*
X429981Y340142*
X430284Y340350*
X430889*
X431191Y340142*
X431342Y339934*
X431493Y339518*
Y339102*
X431342Y338687*
X431040Y338063*
X429528Y335984*
X431645*
X433913Y340350D02*
X433459Y340142D01*
X433157Y339518*
X433006Y338479*
Y337855*
X433157Y336815*
X433459Y336192*
X433913Y335984*
X434215*
X434669Y336192*
X434971Y336815*
X435123Y337855*
Y338479*
X434971Y339518*
X434669Y340142*
X434215Y340350*
X433913*
X436484Y339518D02*
X436786Y339726D01*
X437240Y340350*
Y335984*
X440566Y338895D02*
X440415Y338271D01*
X440113Y337855*
X439659Y337647*
X439508*
X439054Y337855*
X438752Y338271*
X438601Y338895*
Y339102*
X438752Y339726*
X439054Y340142*
X439508Y340350*
X439659*
X440113Y340142*
X440415Y339726*
X440566Y338895*
Y337855*
X440415Y336815*
X440113Y336192*
X439659Y335984*
X439357*
X438903Y336192*
X438752Y336607*
X442079Y336399D02*
X441927Y336192D01*
X442079Y335984*
X442230Y336192*
X442079Y336399*
X443591Y339518D02*
X443893Y339726D01*
X444347Y340350*
Y335984*
X446615Y340350D02*
X446161Y340142D01*
X445859Y339518*
X445708Y338479*
Y337855*
X445859Y336815*
X446161Y336192*
X446615Y335984*
X446918*
X446918D02*
X447371Y336192D01*
X447674Y336815*
X447825Y337855*
Y338479*
X447674Y339518*
X447371Y340142*
X446918Y340350*
X446918D02*
X446615D01*
X449337Y336399D02*
X449186Y336192D01*
X449337Y335984*
X449488Y336192*
X449337Y336399*
X450849Y339518D02*
X451152Y339726D01*
X451605Y340350*
Y335984*
X452966Y339518D02*
X453269Y339726D01*
X453722Y340350*
Y335984*
X431796Y370019D02*
X431645Y370435D01*
X431342Y370851*
X431040Y371059*
X430435*
X430132Y370851*
X429830Y370435*
X429679Y370019*
X429528Y369395*
Y368356*
X429679Y367732*
X429830Y367316*
X430132Y366900*
X430435Y366692*
X431040*
X431342Y366900*
X431645Y367316*
X431796Y367732*
X434064Y371059D02*
X433762Y370851D01*
X433459Y370435*
X433308Y370019*
X433157Y369395*
Y368356*
X433308Y367732*
X433459Y367316*
X433762Y366900*
X434064Y366692*
X434669*
X434971Y366900*
X435274Y367316*
X435425Y367732*
X435576Y368356*
Y369395*
X435425Y370019*
X435274Y370435*
X434971Y370851*
X434669Y371059*
X434064*
X436937D02*
Y366692D01*
Y371059D02*
X438147Y366692D01*
X439357Y371059D02*
X438147Y366692D01*
X439357Y371059D02*
Y366692D01*
X440718Y371059D02*
Y366692D01*
Y371059D02*
X441927Y366692D01*
X443137Y371059D02*
X441927Y366692D01*
X443137Y371059D02*
Y366692D01*
X444498Y371059D02*
X446615Y366692D01*
Y371059D02*
X444498Y366692D01*
X447976Y371059D02*
Y366692D01*
Y371059D02*
X449942D01*
X447976Y368979D02*
X449186D01*
X447976Y366692D02*
X449942D01*
X451303Y371059D02*
Y366692D01*
X453117*
X459015Y371890D02*
X458712Y371475D01*
X458410Y370851*
X458108Y370019*
X457956Y368979*
Y368148*
X458108Y367108*
X458410Y366276*
X458712Y365653*
X459015Y365237*
X461888Y371059D02*
X460376Y368148D01*
X462644*
X461888Y371059D02*
Y366692D01*
X467483Y371059D02*
Y366692D01*
X469298*
X472473Y369603D02*
Y366692D01*
Y368979D02*
X472171Y369395D01*
X471868Y369603*
X471415*
X471112Y369395*
X470810Y368979*
X470659Y368356*
Y367940*
X470810Y367316*
X471112Y366900*
X471415Y366692*
X471868*
X472171Y366900*
X472473Y367316*
X473985Y369603D02*
X474893Y366692D01*
X475800Y369603D02*
X474893Y366692D01*
X474590Y365861*
X474288Y365445*
X473985Y365237*
X473834*
X477161Y368356D02*
X478975D01*
Y368772*
X478824Y369187*
X478673Y369395*
X478371Y369603*
X477917*
X477615Y369395*
X477312Y368979*
X477161Y368356*
Y367940*
X477312Y367316*
X477615Y366900*
X477917Y366692*
X478371*
X478673Y366900*
X478975Y367316*
X480336Y369603D02*
Y366692D01*
Y368356D02*
X480488Y368979D01*
X480790Y369395*
X481093Y369603*
X481546*
X482907Y371890D02*
X483210Y371475D01*
X483512Y370851*
X483814Y370019*
X483966Y368979*
Y368148*
X483814Y367108*
X483512Y366276*
X483210Y365653*
X482907Y365237*
X429528Y360822D02*
Y356456D01*
Y360822D02*
X430586D01*
X431040Y360615*
X431342Y360199*
X431493Y359783*
X431645Y359159*
Y358119*
X431493Y357496*
X431342Y357080*
X431040Y356664*
X430586Y356456*
X429528*
X433006Y359367D02*
Y356456D01*
Y358119D02*
X433157Y358743D01*
X433459Y359159*
X433762Y359367*
X434215*
X435576Y360822D02*
X435727Y360615D01*
X435879Y360822*
X435727Y361030*
X435576Y360822*
X435727Y359367D02*
Y356456D01*
X437240Y360822D02*
Y356456D01*
X438601Y360822D02*
Y356456D01*
X443440Y360822D02*
Y356456D01*
Y360822D02*
X444498D01*
X444952Y360615*
X445254Y360199*
X445405Y359783*
X445557Y359159*
Y358119*
X445405Y357496*
X445254Y357080*
X444952Y356664*
X444498Y356456*
X443440*
X446918Y359367D02*
Y356456D01*
Y358119D02*
X447069Y358743D01*
X447371Y359159*
X447674Y359367*
X448127*
X451303D02*
Y356456D01*
Y358743D02*
X451000Y359159D01*
X450698Y359367*
X450244*
X449942Y359159*
X449639Y358743*
X449488Y358119*
Y357704*
X449639Y357080*
X449942Y356664*
X450244Y356456*
X450698*
X451000Y356664*
X451303Y357080*
X452664Y359367D02*
X453269Y356456D01*
X453873Y359367D02*
X453269Y356456D01*
X453873Y359367D02*
X454478Y356456D01*
X455083Y359367D02*
X454478Y356456D01*
X456444Y360822D02*
X456595Y360615D01*
X456747Y360822*
X456595Y361030*
X456444Y360822*
X456595Y359367D02*
Y356456D01*
X458108Y359367D02*
Y356456D01*
Y358535D02*
X458561Y359159D01*
X458864Y359367*
X459317*
X459620Y359159*
X459771Y358535*
Y356456*
X462946Y359367D02*
Y356040D01*
X462795Y355416*
X462644Y355209*
X462342Y355001*
X461888*
X461586Y355209*
X462946Y358743D02*
X462644Y359159D01*
X462342Y359367*
X461888*
X461586Y359159*
X461283Y358743*
X461132Y358119*
Y357704*
X461283Y357080*
X461586Y356664*
X461888Y356456*
X462342*
X462644Y356664*
X462946Y357080*
G54D163*
X409449Y421260D02*
X409451D01*
X409449Y657480D02*
X409451D01*
X393701Y393701D02*
X393703D01*
X393701Y685039D02*
X393703D01*
X566929D02*
X566932D01*
X393701D02*
X393703D01*
G74*
X0Y0D02*
M02*
