*
*
G04 PADS Layout (Build Number 2006.45.1) generated Gerber (RS-274-X) file*
G04 PC Version=2.1*
*
%IN "COMMXEL_REVE_SMD(191008"*%
*
%MOIN*%
*
%FSLAX35Y35*%
*
*
*
*
G04 PC Standard Apertures*
*
*
G04 Thermal Relief Aperture macro.*
%AMTER*
1,1,$1,0,0*
1,0,$1-$2,0,0*
21,0,$3,$4,0,0,45*
21,0,$3,$4,0,0,135*
%
*
*
G04 Annular Aperture macro.*
%AMANN*
1,1,$1,0,0*
1,0,$2,0,0*
%
*
*
G04 Odd Aperture macro.*
%AMODD*
1,1,$1,0,0*
1,0,$1-0.005,0,0*
%
*
*
G04 PC Custom Aperture Macros*
*
*
*
*
*
*
G04 PC Aperture Table*
*
%ADD010C,0.00394*%
%ADD015C,0.00787*%
%ADD066C,0.00591*%
%ADD123C,0.00472*%
*
*
*
*
G04 PC Custom Flashes*
G04 Layer Name COMMXEL_REVE_SMD(191008 - flashes*
%LPD*%
*
*
G04 PC Circuitry*
G04 Layer Name COMMXEL_REVE_SMD(191008 - circuitry*
%LPD*%
*
G54D10*
G01X413386Y619045D02*
Y622982D01*
X411713*
X403642*
X413386Y597392D02*
Y593455D01*
X411713*
X404035*
X395374Y622982D02*
X393701D01*
X388583*
Y593455*
X393701*
X394980*
X393701D02*
Y608219D01*
Y622982*
X413390Y613386D02*
X414571Y614961D01*
Y611811*
X413390Y613386*
X449213Y504331D02*
X459843D01*
Y499606*
X449213*
Y504331*
X454528D02*
Y502756D01*
Y499606D02*
Y501181D01*
X453740Y502756D02*
X455315D01*
X453740Y501181D02*
X455315D01*
X455709Y495079D02*
Y497047D01*
X452559Y498031D02*
X451969Y497441D01*
Y494685*
X452559Y494094*
X458858*
X459449Y494685*
Y497441*
X458858Y498031*
X452559*
X522638Y466535D02*
X524606D01*
X525591Y469685D02*
X525000Y470276D01*
X522244*
X521654Y469685*
Y463386*
X522244Y462795*
X525000*
X525591Y463386*
Y469685*
X459646Y551181D02*
Y549213D01*
X462795Y548228D02*
X463386Y548819D01*
Y551575*
X462795Y552165*
X456496*
X455906Y551575*
Y548819*
X456496Y548228*
X462795*
X489173Y572835D02*
X487205D01*
X486220Y569685D02*
X486811Y569094D01*
X489567*
X490157Y569685*
Y575984*
X489567Y576575*
X486811*
X486220Y575984*
Y569685*
X456693Y571850D02*
Y569882D01*
X459843Y568898D02*
X460433Y569488D01*
Y572244*
X459843Y572835*
X453543*
X452953Y572244*
Y569488*
X453543Y568898*
X459843*
X459646Y546260D02*
Y544291D01*
X462795Y543307D02*
X463386Y543898D01*
Y546654*
X462795Y547244*
X456496*
X455906Y546654*
Y543898*
X456496Y543307*
X462795*
X501969Y565945D02*
Y563976D01*
X505118Y562992D02*
X505709Y563583D01*
Y566339*
X505118Y566929*
X498819*
X498228Y566339*
Y563583*
X498819Y562992*
X505118*
X450394Y484646D02*
X461024D01*
Y479921*
X450394*
Y484646*
X455709D02*
Y483071D01*
Y479921D02*
Y481496D01*
X454921Y483071D02*
X456496D01*
X454921Y481496D02*
X456496D01*
X435630Y535433D02*
X446260D01*
Y529528*
X435630*
Y535433*
X440157Y533268D02*
X441732D01*
X440157Y531693D02*
X441732D01*
X440945D02*
Y530512D01*
Y533268D02*
Y534449D01*
X466535Y574803D02*
Y572835D01*
X469685Y571850D02*
X470276Y572441D01*
Y575197*
X469685Y575787*
X463386*
X462795Y575197*
Y572441*
X463386Y571850*
X469685*
X535236Y397638D02*
X520276D01*
Y446850*
X535236*
Y397638*
X526476Y397441D02*
X528346Y395571D01*
X524409*
X526280Y397441*
X425394Y446850D02*
X440354D01*
Y397638*
X425394*
Y446850*
X434154Y447047D02*
X432283Y448917D01*
X436220*
X434350Y447047*
X518504Y397638D02*
X503543D01*
Y437008*
X518504*
Y397638*
X509744D02*
X511614Y395768D01*
X507677*
X509547Y397638*
X558557Y595070D02*
X558446Y595249D01*
X558114Y595517*
X560439*
X558114Y630950D02*
X559664Y630055D01*
Y631398*
X558114Y630950D02*
X560439D01*
X555118Y597441D02*
Y628937D01*
X562992*
Y597441*
X555118*
Y605315D02*
X562992D01*
X501601Y572047D02*
G75*
G03Y570865I-458J-591D01*
Y569684I-458J-590*
G01X501575Y572047D02*
Y573228D01*
Y569685D02*
Y568504D01*
X496457Y573228D02*
X505512D01*
X496457Y568504D02*
X505512D01*
X441562Y527755D02*
G03Y526574I-458J-590D01*
Y525393I-458J-590*
G01X441535Y527756D02*
Y528937D01*
Y525394D02*
Y524213D01*
X436417Y528937D02*
X445472D01*
X436417Y524213D02*
X445472D01*
X561220Y567520D02*
Y572244D01*
X561614Y567323D02*
X552953D01*
Y572441*
X561614*
Y567323*
X562008D02*
X557874D01*
Y572441*
X562008*
Y567323*
X556299D02*
X557874Y569882D01*
X556299Y572441*
Y567323*
X544488Y571850D02*
Y567913D01*
X547835*
X548228Y568307*
X548622Y567913*
X551969*
Y571850*
X548622*
X548228Y571457*
X547835Y571850*
X544488*
X488386Y539961D02*
Y543898D01*
X485039*
X484646Y543504*
X484252Y543898*
X480906*
Y539961*
X484252*
X484646Y540354*
X485039Y539961*
X488386*
X474409Y543110D02*
X470472D01*
Y539764*
X470866Y539370*
X470472Y538976*
Y535630*
X474409*
Y538976*
X474016Y539370*
X474409Y539764*
Y543110*
X479331D02*
X475394D01*
Y539764*
X475787Y539370*
X475394Y538976*
Y535630*
X479331*
Y538976*
X478937Y539370*
X479331Y539764*
Y543110*
X495472Y554134D02*
Y558071D01*
X492126*
X491732Y557677*
X491339Y558071*
X487992*
Y554134*
X491339*
X491732Y554528*
X492126Y554134*
X495472*
X469488Y543110D02*
X465551D01*
Y539764*
X465945Y539370*
X465551Y538976*
Y535630*
X469488*
Y538976*
X469094Y539370*
X469488Y539764*
Y543110*
X470472Y525787D02*
X474409D01*
Y529134*
X474016Y529528*
X474409Y529921*
Y533268*
X470472*
Y529921*
X470866Y529528*
X470472Y529134*
Y525787*
X465551D02*
X469488D01*
Y529134*
X469094Y529528*
X469488Y529921*
Y533268*
X465551*
Y529921*
X465945Y529528*
X465551Y529134*
Y525787*
X475394D02*
X479331D01*
Y529134*
X478937Y529528*
X479331Y529921*
Y533268*
X475394*
Y529921*
X475787Y529528*
X475394Y529134*
Y525787*
X460433Y573819D02*
Y577756D01*
X457087*
X456693Y577362*
X456299Y577756*
X452953*
Y573819*
X456299*
X456693Y574213*
X457087Y573819*
X460433*
X517913Y506890D02*
Y502953D01*
X521260*
X521654Y503346*
X522047Y502953*
X525394*
Y506890*
X522047*
X521654Y506496*
X521260Y506890*
X517913*
X480906Y539173D02*
Y535236D01*
X484252*
X484646Y535630*
X485039Y535236*
X488386*
Y539173*
X485039*
X484646Y538780*
X484252Y539173*
X480906*
X517913Y511811D02*
Y507874D01*
X521260*
X521654Y508268*
X522047Y507874*
X525394*
Y511811*
X522047*
X521654Y511417*
X521260Y511811*
X517913*
X455906Y558071D02*
Y554134D01*
X459252*
X459646Y554528*
X460039Y554134*
X463386*
Y558071*
X460039*
X459646Y557677*
X459252Y558071*
X455906*
X505906Y460630D02*
X513780D01*
Y468504D02*
X505906D01*
X508661Y460630D02*
Y460039D01*
X511024*
Y460630*
X508661*
X512795Y463189D02*
X515157D01*
Y460630*
X513780*
X484252Y564961D02*
Y566929D01*
X482283*
X484252Y553150D02*
Y551181D01*
X482283*
X470472Y566929D02*
X468504D01*
Y564961*
Y553150D02*
Y551181D01*
X470472*
X469291Y566929D02*
X468504Y566142D01*
X469685Y566929D02*
X468504Y565748D01*
X468898Y566929D02*
X468504Y566535D01*
X479331Y568701D02*
Y569291D01*
X468504Y564961D02*
X466732D01*
Y562992*
X468504*
X466732Y556102D02*
X466142D01*
X477362Y548819D02*
Y549409D01*
X486614Y558071D02*
X486024D01*
X470472Y567717D02*
X467717D01*
Y564961*
X470472Y566929D02*
Y567717D01*
X481890Y564567D02*
X470866D01*
Y553543*
X481890*
Y564567*
X560630Y552165D02*
G03X560630I-3543J0D01*
G01X561713Y560039D02*
X562795D01*
Y544291*
X561713*
X552362Y560039D02*
X551378D01*
Y544291*
X552362*
X557087Y552559D02*
Y551772D01*
X557480Y552165D02*
X556693D01*
X550984Y497244D02*
X559252D01*
Y492913*
X550984*
Y497244*
X551378Y499409D02*
X550984D01*
Y490748*
X551378*
X558858Y499409D02*
X559252D01*
Y490748*
X558858*
X553150Y494291D02*
G03X553150I-591J0D01*
G01X554331Y495079D02*
X555906D01*
X555118Y495866D02*
Y494291D01*
X442520Y511417D02*
X443504D01*
X447047D02*
X448031D01*
X443503D02*
G03X444684Y511418I591J-443D01*
G01Y511417D02*
G03X445865Y511418I591J-443D01*
G01Y511417D02*
G03X447046Y511418I591J-443D01*
G01X442323Y505512D02*
Y516142D01*
X448228Y505512D02*
Y516142D01*
X442126Y437008D02*
X457087D01*
Y397638*
X442126*
Y437008*
X450886D02*
X449016Y438878D01*
X452953*
X451083Y437008*
X494094Y572835D02*
X492126D01*
X491142Y569685D02*
X491732Y569094D01*
X494488*
X495079Y569685*
Y575984*
X494488Y576575*
X491732*
X491142Y575984*
Y569685*
X501969Y561024D02*
Y559055D01*
X505118Y558071D02*
X505709Y558661D01*
Y561417*
X505118Y562008*
X498819*
X498228Y561417*
Y558661*
X498819Y558071*
X505118*
X447835Y561024D02*
Y562992D01*
X444685Y563976D02*
X444094Y563386D01*
Y560630*
X444685Y560039*
X450984*
X451575Y560630*
Y563386*
X450984Y563976*
X444685*
X455709Y488189D02*
Y490157D01*
X452559Y491142D02*
X451969Y490551D01*
Y487795*
X452559Y487205*
X458858*
X459449Y487795*
Y490551*
X458858Y491142*
X452559*
X513386Y566339D02*
Y555709D01*
X508661*
Y566339*
X513386*
Y561024D02*
X511811D01*
X508661D02*
X510236D01*
X511811Y561811D02*
Y560236D01*
X510236Y561811D02*
Y560236D01*
X555305Y593130D02*
X562805D01*
Y578130*
X555305*
Y593130*
X559055Y578130D02*
X556555Y576880D01*
X561555*
X559055Y578130*
X448031Y553150D02*
X449606D01*
X448819Y553937D02*
Y552362D01*
X442520Y552953D02*
X448228D01*
Y547835*
X442520*
Y552953*
Y558465D02*
X455118D01*
Y547835*
X442520*
Y558465*
X440945Y556890D02*
X437008D01*
Y553543*
X437402Y553150*
X437008Y552756*
Y549409*
X440945*
Y552756*
X440551Y553150*
X440945Y553543*
Y556890*
X454134Y586220D02*
X451772Y585039D01*
X456496*
X454134Y586220*
X450886Y595669D02*
X448622D01*
Y664272*
Y685039D02*
Y695669D01*
X512008*
Y685335*
Y664862D02*
Y595669D01*
X508760*
X499016Y463583D02*
X500984D01*
X501969Y466732D02*
X501378Y467323D01*
X498622*
X498031Y466732*
Y460433*
X498622Y459843*
X501378*
X501969Y460433*
Y466732*
X447441Y528937D02*
X458071D01*
Y524213*
X447441*
Y528937*
X452756D02*
Y527362D01*
Y524213D02*
Y525787D01*
X451969Y527362D02*
X453543D01*
X451969Y525787D02*
X453543D01*
X449213Y516142D02*
X459843D01*
Y511417*
X449213*
Y516142*
X454528D02*
Y514567D01*
Y511417D02*
Y512992D01*
X453740Y514567D02*
X455315D01*
X453740Y512992D02*
X455315D01*
X449213Y510236D02*
X459843D01*
Y505512*
X449213*
Y510236*
X454528D02*
Y508661D01*
Y505512D02*
Y507087D01*
X453740Y508661D02*
X455315D01*
X453740Y507087D02*
X455315D01*
X516339Y459252D02*
Y469882D01*
X521063*
Y459252*
X516339*
Y464567D02*
X517913D01*
X521063D02*
X519488D01*
X517913Y463780D02*
Y465354D01*
X519488Y463780D02*
Y465354D01*
X496850Y419488D02*
Y428150D01*
X494094Y430906*
X464961*
G03X463780Y429724I-0J-1182*
G01Y419488*
Y409252D02*
Y399016D01*
G03X464961Y397835I1181J-0*
G01X494094*
X496850Y400591*
Y409252*
X480315Y430118D02*
Y398622D01*
X480115Y419870D02*
X465551D01*
X480115Y420470D02*
X465748D01*
X480115Y421070D02*
X466142D01*
X479815Y421870D02*
X466535D01*
X480315Y422370D02*
X466732D01*
X480315Y422870D02*
X467126D01*
X480315Y423370D02*
X467520D01*
X479815Y423870D02*
X467913D01*
X479815Y424370D02*
X468307D01*
X480315Y424870D02*
X468701D01*
X480315Y408870D02*
X465551D01*
X480315Y408370D02*
X465748D01*
X480315Y407870D02*
X471315D01*
X480315Y407370D02*
X471815D01*
X480315Y406870D02*
X472315D01*
X479815Y406370D02*
X472815D01*
X480315Y405870D02*
X473315D01*
X480315Y405370D02*
X473815D01*
X480315Y404870D02*
X474315D01*
X480315Y404370D02*
X475315D01*
X480315Y403870D02*
X476315D01*
X480315Y403370D02*
X478815D01*
X480315Y403740D02*
X476772D01*
X465945Y408071D02*
X480315D01*
Y407677D02*
X466142D01*
X480315Y407283D02*
X466339D01*
X466535Y406890D02*
X480315D01*
Y406496D02*
X466732D01*
X466929Y406102D02*
X480315D01*
Y405709D02*
X467323D01*
X467520Y405315D02*
X480315D01*
Y404921D02*
X467717D01*
X468110Y404528D02*
X480315D01*
Y404134D02*
X468504D01*
X468898Y403740D02*
X480315D01*
Y403346D02*
X469291D01*
X480315Y402953D02*
X469488D01*
X469094Y403543D02*
X479921D01*
X480118Y408661D02*
X465748D01*
Y420276D02*
X480118D01*
Y420866D02*
X465945D01*
X466535Y421654D02*
X480118D01*
Y421260D02*
X466142D01*
X465945Y420669D02*
X480118D01*
Y422047D02*
X466732D01*
X466929Y422638D02*
X480118D01*
Y423228D02*
X467323D01*
Y423031D02*
X480118D01*
X480315Y423819D02*
X467913D01*
X467717Y423622D02*
X480118D01*
X480315Y424213D02*
X468110D01*
X468504Y424606D02*
X480118D01*
X480315Y425000D02*
X468898D01*
X469094Y425394D02*
X480118D01*
X480315Y425787D02*
X469685D01*
X480315Y426181D02*
X470079D01*
X480315Y426378D02*
X470276D01*
X479921Y419882D02*
Y409252D01*
X479528Y419882D02*
Y409252D01*
X479134Y419685D02*
Y409252D01*
X478740Y419685D02*
Y409252D01*
X478346Y419488D02*
Y409252D01*
X480315Y402559D02*
X470079D01*
X480315Y402165D02*
X470472D01*
X480315Y401772D02*
X471063D01*
X480315Y401378D02*
X471654D01*
X480315Y400984D02*
X472244D01*
X480315Y400591D02*
X472835D01*
X480315Y400197D02*
X473622D01*
X480315Y399803D02*
X474606D01*
X480315Y399409D02*
X475787D01*
X480315Y399016D02*
X477165D01*
X480315Y426772D02*
X470669D01*
X480315Y427165D02*
X471260D01*
X480315Y427559D02*
X471850D01*
X480315Y427953D02*
X472441D01*
X480315Y428346D02*
X473228D01*
X480315Y428740D02*
X474016D01*
X480315Y429134D02*
X475197D01*
X480315Y429528D02*
X476378D01*
X480315Y429921D02*
X478543D01*
X477953Y424213D02*
Y407087D01*
X477362Y419882D02*
Y408071D01*
X477756Y419094D02*
Y409252D01*
X495276Y419487D02*
G03X465354I-14961J-5210D01*
G01Y409253D02*
G03X495276I14961J5210D01*
G01X465354Y419488D02*
X480315D01*
X465354Y409252D02*
X480315D01*
X477165Y419488D02*
Y409252D01*
X555906Y634055D02*
Y655315D01*
X562205*
Y634055*
X555906*
Y649606D02*
X562205D01*
X433688Y630117D02*
G03Y628936I-458J-590D01*
Y627755I-458J-590*
G01X433661Y630118D02*
Y631299D01*
Y627756D02*
Y626575D01*
X428543Y631299D02*
X437598D01*
X428543Y626575D02*
X437598D01*
X538189Y445276D02*
Y440551D01*
X537795Y445472D02*
X546457D01*
Y440354*
X537795*
Y445472*
X537402D02*
X541535D01*
Y440354*
X537402*
Y445472*
X543110D02*
X541535Y442913D01*
X543110Y440354*
Y445472*
X538583Y438976D02*
Y435039D01*
X541929*
X542323Y435433*
X542717Y435039*
X546063*
Y438976*
X542717*
X542323Y438583*
X541929Y438976*
X538583*
X554134Y481890D02*
X534449D01*
Y466929*
X554134*
Y472441*
X552165*
Y476378*
X554134*
Y481890*
X546791Y474409D02*
X541791D01*
X544291Y471909D02*
Y476909D01*
X552165Y479331D02*
G03X552165I-984J0D01*
G01X554134Y460827D02*
X534449D01*
Y487992*
X553346*
X554134Y487205*
Y460827*
X555315*
Y488189*
X554134*
Y460827*
X554724Y488189D02*
Y460827D01*
X541142Y497244D02*
X549409D01*
Y492913*
X541142*
Y497244*
X541535Y499409D02*
X541142D01*
Y490748*
X541535*
X549016Y499409D02*
X549409D01*
Y490748*
X549016*
X543307Y494291D02*
G03X543307I-590J0D01*
G01X544488Y495079D02*
X546063D01*
X545276Y495866D02*
Y494291D01*
X531299Y497244D02*
X539567D01*
Y492913*
X531299*
Y497244*
X531693Y499409D02*
X531299D01*
Y490748*
X531693*
X539173Y499409D02*
X539567D01*
Y490748*
X539173*
X533465Y494291D02*
G03X533465I-591J0D01*
G01X534646Y495079D02*
X536220D01*
X535433Y495866D02*
Y494291D01*
X480906Y464764D02*
X491535D01*
Y458465*
X480906*
Y464764*
X487008Y463189D02*
Y460039D01*
X485433Y463189D02*
Y460039D01*
X487008Y461614*
X485433Y463189*
Y461614D02*
X483858D01*
X487008D02*
X488583D01*
X491535Y464764D02*
X495472D01*
Y458465*
X491535*
X495472Y464764D02*
X495866D01*
Y458465*
X495472*
X408071Y490157D02*
G03X408071I-3543J0D01*
G01X409154Y498031D02*
X410236D01*
Y482283*
X409154*
X399803Y498031D02*
X398819D01*
Y482283*
X399803*
X404528Y490551D02*
Y489764D01*
X404921Y490157D02*
X404134D01*
X546260Y502953D02*
Y504921D01*
X543110Y505906D02*
X542520Y505315D01*
Y502559*
X543110Y501969*
X549409*
X550000Y502559*
Y505315*
X549409Y505906*
X543110*
X554134Y502953D02*
Y504921D01*
X550984Y505906D02*
X550394Y505315D01*
Y502559*
X550984Y501969*
X557283*
X557874Y502559*
Y505315*
X557283Y505906*
X550984*
X543307Y459449D02*
X539370D01*
Y456102*
X539764Y455709*
X539370Y455315*
Y451969*
X543307*
Y455315*
X542913Y455709*
X543307Y456102*
Y459449*
X548228D02*
X544291D01*
Y456102*
X544685Y455709*
X544291Y455315*
Y451969*
X548228*
Y455315*
X547835Y455709*
X548228Y456102*
Y459449*
X396877Y589524D02*
Y587752D01*
X396788Y587420*
X396698Y587309*
X396519Y587199*
X396340*
X396161Y587309*
X396072Y587420*
X395982Y587752*
Y587974*
X398130Y589524D02*
X397861Y589413D01*
X397772Y589192*
Y588970*
X397861Y588749*
X398040Y588638*
X398398Y588527*
X398667Y588417*
X398846Y588195*
X398935Y587974*
Y587641*
X398846Y587420*
X398756Y587309*
X398488Y587199*
X398130*
X397861Y587309*
X397772Y587420*
X397683Y587641*
Y587974*
X397772Y588195*
X397951Y588417*
X398219Y588527*
X398577Y588638*
X398756Y588749*
X398846Y588970*
Y589192*
X398756Y589413*
X398488Y589524*
X398130*
X463359Y502356D02*
X463270Y502578D01*
X463091Y502799*
X462912Y502910*
X462554*
X462375Y502799*
X462196Y502578*
X462106Y502356*
X462017Y502024*
Y501470*
X462106Y501138*
X462196Y500917*
X462375Y500695*
X462554Y500584*
X462912*
X463091Y500695*
X463270Y500917*
X463359Y501138*
X464164Y502467D02*
X464343Y502578D01*
X464612Y502910*
Y500584*
X466580Y502910D02*
X465685D01*
X465596Y501913*
X465685Y502024*
X465954Y502135*
X466222*
X466491Y502024*
X466670Y501802*
X466759Y501470*
X466670Y501249*
X466580Y500917*
X466401Y500695*
X466133Y500584*
X465864*
X465596Y500695*
X465506Y500806*
X465417Y501027*
X463448Y496451D02*
X463359Y496672D01*
X463180Y496893*
X463001Y497004*
X462643*
X462464Y496893*
X462285Y496672*
X462196Y496451*
X462106Y496118*
Y495565*
X462196Y495233*
X462285Y495011*
X462464Y494790*
X462643Y494679*
X463001*
X463180Y494790*
X463359Y495011*
X463448Y495233*
X464254Y496561D02*
X464433Y496672D01*
X464701Y497004*
Y494679*
X466580Y496672D02*
X466491Y496893D01*
X466222Y497004*
X466043*
X465775Y496893*
X465596Y496561*
X465506Y496008*
Y495454*
X465596Y495011*
X465775Y494790*
X466043Y494679*
X466133*
X466401Y494790*
X466580Y495011*
X466670Y495343*
Y495454*
X466580Y495786*
X466401Y496008*
X466133Y496118*
X466043*
X465775Y496008*
X465596Y495786*
X465506Y495454*
X523234Y472844D02*
X523013Y472754D01*
X522792Y472575*
X522681Y472396*
Y472038*
X522792Y471859*
X523013Y471680*
X523234Y471591*
X523567Y471501*
X524120*
X524453Y471591*
X524674Y471680*
X524895Y471859*
X525006Y472038*
Y472396*
X524895Y472575*
X524674Y472754*
X524453Y472844*
X522681Y474544D02*
X524231Y473649D01*
Y474991*
X522681Y474544D02*
X525006D01*
X523013Y476870D02*
X522792Y476781D01*
X522681Y476512*
Y476333*
X522792Y476065*
X523124Y475886*
X523677Y475796*
X524231*
X524674Y475886*
X524895Y476065*
X525006Y476333*
Y476423*
X524895Y476691*
X524674Y476870*
X524342Y476960*
X524231*
X523899Y476870*
X523677Y476691*
X523567Y476423*
Y476333*
X523677Y476065*
X523899Y475886*
X524231Y475796*
X458482Y541726D02*
X458393Y541948D01*
X458214Y542169*
X458035Y542280*
X457677*
X457498Y542169*
X457319Y541948*
X457230Y541726*
X457140Y541394*
Y540840*
X457230Y540508*
X457319Y540287*
X457498Y540065*
X457677Y539954*
X458035*
X458214Y540065*
X458393Y540287*
X458482Y540508*
X459467Y542280D02*
X460451D01*
X459914Y541394*
X460183*
X460361Y541283*
X460451Y541172*
X460540Y540840*
Y540619*
X460451Y540287*
X460272Y540065*
X460004Y539954*
X459735*
X459467Y540065*
X459377Y540176*
X459288Y540397*
X461346Y541837D02*
X461525Y541948D01*
X461793Y542280*
Y539954*
X487801Y579143D02*
X487580Y579053D01*
X487359Y578874*
X487248Y578695*
Y578338*
X487359Y578159*
X487580Y577980*
X487801Y577890*
X488134Y577801*
X488687*
X489019Y577890*
X489241Y577980*
X489462Y578159*
X489573Y578338*
Y578695*
X489462Y578874*
X489241Y579053*
X489019Y579143*
X487248Y580127D02*
Y581111D01*
X488134Y580574*
Y580843*
X488244Y581022*
X488355Y581111*
X488687Y581201*
X488909*
X489241Y581111*
X489462Y580932*
X489573Y580664*
Y580395*
X489462Y580127*
X489352Y580038*
X489130Y579948*
X487801Y582096D02*
X487691D01*
X487469Y582185*
X487359Y582275*
X487248Y582453*
Y582811*
X487359Y582990*
X487469Y583080*
X487691Y583169*
X487912*
X488134Y583080*
X488466Y582901*
X489573Y582006*
Y583259*
X447253Y571254D02*
X447164Y571475D01*
X446985Y571697*
X446806Y571807*
X446448*
X446269Y571697*
X446090Y571475*
X446000Y571254*
X445911Y570922*
Y570368*
X446000Y570036*
X446090Y569814*
X446269Y569593*
X446448Y569482*
X446806*
X446985Y569593*
X447164Y569814*
X447253Y570036*
X448237Y571807D02*
X449222D01*
X448685Y570922*
X448953*
X449132Y570811*
X449222Y570700*
X449311Y570368*
Y570146*
X449222Y569814*
X449043Y569593*
X448774Y569482*
X448506*
X448237Y569593*
X448148Y569703*
X448058Y569925*
X450295Y571807D02*
X451280D01*
X450743Y570922*
X451011*
X451190Y570811*
X451280Y570700*
X451369Y570368*
Y570146*
X451280Y569814*
X451101Y569593*
X450832Y569482*
X450564*
X450295Y569593*
X450206Y569703*
X450116Y569925*
X458035Y537789D02*
X457946Y538011D01*
X457767Y538232*
X457588Y538343*
X457230*
X457051Y538232*
X456872Y538011*
X456782Y537789*
X456693Y537457*
Y536903*
X456782Y536571*
X456872Y536350*
X457051Y536128*
X457230Y536017*
X457588*
X457767Y536128*
X457946Y536350*
X458035Y536571*
X459019Y538343D02*
X460004D01*
X459467Y537457*
X459735*
X459914Y537346*
X460004Y537235*
X460093Y536903*
Y536682*
X460004Y536350*
X459825Y536128*
X459556Y536017*
X459288*
X459019Y536128*
X458930Y536239*
X458840Y536460*
X462062Y538343D02*
X461167D01*
X461077Y537346*
X461167Y537457*
X461435Y537568*
X461704*
X461972Y537457*
X462151Y537235*
X462241Y536903*
X462151Y536682*
X462062Y536350*
X461883Y536128*
X461614Y536017*
X461346*
X461077Y536128*
X460988Y536239*
X460898Y536460*
X500403Y556490D02*
X500313Y556711D01*
X500134Y556933*
X499955Y557044*
X499597*
X499418Y556933*
X499239Y556711*
X499150Y556490*
X499060Y556158*
Y555604*
X499150Y555272*
X499239Y555050*
X499418Y554829*
X499597Y554718*
X499955*
X500134Y554829*
X500313Y555050*
X500403Y555272*
X501387Y557044D02*
X502371D01*
X501834Y556158*
X502103*
X502282Y556047*
X502371Y555936*
X502461Y555604*
Y555383*
X502371Y555050*
X502192Y554829*
X501924Y554718*
X501655*
X501387Y554829*
X501297Y554940*
X501208Y555161*
X504519Y557044D02*
X503624Y554718D01*
X503266Y557044D02*
X504519D01*
X455172Y477750D02*
X455082Y477971D01*
X454903Y478193*
X454724Y478303*
X454366*
X454366D02*
X454188Y478193D01*
X454009Y477971*
X453919Y477750*
X453830Y477418*
Y476864*
X453919Y476532*
X454009Y476310*
X454188Y476089*
X454366Y475978*
X454366D02*
X454724D01*
X454903Y476089*
X455082Y476310*
X455172Y476532*
X457230Y478303D02*
X456335Y475978D01*
X455977Y478303D02*
X457230D01*
X440184Y537789D02*
X440095Y538011D01*
X439916Y538232*
X439737Y538343*
X439379*
X439200Y538232*
X439021Y538011*
X438932Y537789*
X438842Y537457*
Y536903*
X438932Y536571*
X439021Y536350*
X439200Y536128*
X439379Y536017*
X439737*
X439916Y536128*
X440095Y536350*
X440184Y536571*
X440990Y537900D02*
X441169Y538011D01*
X441437Y538343*
Y536017*
X442242Y537900D02*
X442421Y538011D01*
X442690Y538343*
Y536017*
X465954Y579128D02*
X465864Y579349D01*
X465685Y579571*
X465506Y579681*
X465149*
X464970Y579571*
X464791Y579349*
X464701Y579128*
X464612Y578796*
Y578242*
X464701Y577910*
X464791Y577688*
X464970Y577467*
X465149Y577356*
X465506*
X465685Y577467*
X465864Y577688*
X465954Y577910*
X467922Y579681D02*
X467028D01*
X466938Y578685*
X467028Y578796*
X467296Y578906*
X467564*
X467833Y578796*
X468012Y578574*
X468101Y578242*
X468012Y578020*
X467922Y577688*
X467743Y577467*
X467475Y577356*
X467207*
X466938Y577467*
X466849Y577578*
X466759Y577799*
X537581Y400547D02*
Y398776D01*
X537491Y398444*
X537402Y398333*
X537223Y398222*
X537044*
X536865Y398333*
X536775Y398444*
X536686Y398776*
Y398997*
X539549Y400547D02*
X538654D01*
X538565Y399551*
X538654Y399662*
X538923Y399772*
X539191*
X539460Y399662*
X539639Y399440*
X539728Y399108*
X539639Y398887*
X539549Y398554*
X539370Y398333*
X539102Y398222*
X538833*
X538565Y398333*
X538475Y398444*
X538386Y398665*
X421528Y400547D02*
Y398776D01*
X421439Y398444*
X421349Y398333*
X421170Y398222*
X420991*
X420812Y398333*
X420723Y398444*
X420634Y398776*
Y398997*
X423407Y400215D02*
X423318Y400437D01*
X423049Y400547*
X422870*
X422602Y400437*
X422423Y400105*
X422334Y399551*
Y398997*
X422423Y398554*
X422602Y398333*
X422870Y398222*
X422960*
X423228Y398333*
X423407Y398554*
X423497Y398887*
Y398997*
X423407Y399329*
X423228Y399551*
X422960Y399662*
X422870*
X422602Y399551*
X422423Y399329*
X422334Y398997*
X500224Y400547D02*
Y398776D01*
X500134Y398444*
X500045Y398333*
X499866Y398222*
X499687*
X499508Y398333*
X499418Y398444*
X499329Y398776*
Y398997*
X501208Y400547D02*
X502192D01*
X501655Y399662*
X501924*
X502103Y399551*
X502192Y399440*
X502282Y399108*
Y398887*
X502192Y398554*
X502013Y398333*
X501745Y398222*
X501476*
X501208Y398333*
X501118Y398444*
X501029Y398665*
X546296Y602516D02*
Y600744D01*
X546206Y600412*
X546117Y600301*
X545938Y600191*
X545759*
X545580Y600301*
X545490Y600412*
X545401Y600744*
Y600966*
X547101Y602073D02*
X547280Y602184D01*
X547548Y602516*
Y600191*
X499239Y576729D02*
Y574403D01*
X500313*
X501208Y576175D02*
Y576286D01*
X501297Y576507*
X501387Y576618*
X501566Y576729*
X501924*
X502103Y576618*
X502192Y576507*
X502282Y576286*
Y576064*
X502192Y575843*
X502013Y575511*
X501118Y574403*
X502371*
X438529Y522595D02*
Y520269D01*
Y522595D02*
X439692D01*
X438529Y521487D02*
X439245D01*
X440497Y522595D02*
Y520269D01*
Y522595D02*
X441303D01*
X441571Y522484*
X441661Y522373*
X441750Y522152*
Y521930*
X441661Y521709*
X441571Y521598*
X441303Y521487*
X440497D02*
X441303D01*
X441571Y521377*
X441661Y521266*
X441750Y521045*
Y520712*
X441661Y520491*
X441571Y520380*
X441303Y520269*
X440497*
X442555Y522152D02*
X442734Y522263D01*
X443003Y522595*
Y520269*
X563529Y570823D02*
Y568498D01*
Y570823D02*
X564155D01*
X564424Y570712*
X564603Y570491*
X564692Y570269*
X564782Y569937*
Y569384*
X564692Y569051*
X564603Y568830*
X564424Y568609*
X564155Y568498*
X563529*
X565587Y570380D02*
X565766Y570491D01*
X566034Y570823*
Y568498*
X540497Y571020D02*
Y568695D01*
Y571020D02*
X541303D01*
X541571Y570909*
X541661Y570798*
X541750Y570577*
Y570356*
X541661Y570134*
X541571Y570023*
X541303Y569913*
X540497*
X541124D02*
X541750Y568695D01*
X542555Y570577D02*
X542734Y570688D01*
X543003Y571020*
Y568695*
X489665Y543264D02*
Y540939D01*
Y543264D02*
X490471D01*
X490739Y543153*
X490829Y543043*
X490918Y542821*
Y542600*
X490829Y542378*
X490739Y542267*
X490471Y542157*
X489665*
X490292D02*
X490918Y540939D01*
X491723Y542821D02*
X491902Y542932D01*
X492171Y543264*
Y540939*
X494229Y543264D02*
X493334Y540939D01*
X492976Y543264D02*
X494229D01*
X471500Y543799D02*
X473825D01*
X471500D02*
Y544605D01*
X471610Y544873*
X471721Y544962*
X471943Y545052*
X472164*
X472386Y544962*
X472496Y544873*
X472607Y544605*
Y543799*
Y544426D02*
X473825Y545052D01*
X471943Y545857D02*
X471832Y546036D01*
X471500Y546305*
X473825*
X471500Y547557D02*
X471610Y547289D01*
X471832Y547199*
X472053*
X472275Y547289*
X472386Y547468*
X472496Y547826*
X472607Y548094*
X472828Y548273*
X473050Y548363*
X473382*
X473604Y548273*
X473714Y548184*
X473825Y547915*
Y547557*
X473714Y547289*
X473604Y547199*
X473382Y547110*
X473050*
X472828Y547199*
X472607Y547378*
X472496Y547647*
X472386Y548005*
X472275Y548184*
X472053Y548273*
X471832*
X471610Y548184*
X471500Y547915*
Y547557*
X476421Y543844D02*
X478746D01*
X476421D02*
Y544649D01*
X476532Y544918*
X476642Y545007*
X476864Y545097*
X477085*
X477307Y545007*
X477418Y544918*
X477528Y544649*
Y543844*
Y544470D02*
X478746Y545097D01*
X476864Y545902D02*
X476753Y546081D01*
X476421Y546349*
X478746*
X477196Y548318D02*
X477528Y548228D01*
X477750Y548049*
X477860Y547781*
Y547691*
X477750Y547423*
X477528Y547244*
X477196Y547155*
X477085*
X476753Y547244*
X476532Y547423*
X476421Y547691*
Y547781*
X476532Y548049*
X476753Y548228*
X477196Y548318*
X477750*
X478303Y548228*
X478636Y548049*
X478746Y547781*
Y547602*
X478636Y547334*
X478414Y547244*
X489263Y553107D02*
Y550781D01*
Y553107D02*
X490068D01*
X490336Y552996*
X490426Y552885*
X490515Y552664*
Y552442*
X490426Y552221*
X490336Y552110*
X490068Y551999*
X489263*
X489889D02*
X490515Y550781D01*
X491410Y552553D02*
Y552664D01*
X491500Y552885*
X491589Y552996*
X491768Y553107*
X492126*
X492305Y552996*
X492394Y552885*
X492484Y552664*
Y552442*
X492394Y552221*
X492215Y551889*
X491321Y550781*
X492573*
X493468Y552553D02*
Y552664D01*
X493558Y552885*
X493647Y552996*
X493826Y553107*
X494184*
X494363Y552996*
X494452Y552885*
X494542Y552664*
Y552442*
X494452Y552221*
X494273Y551889*
X493379Y550781*
X494631*
X466578Y543397D02*
X468904D01*
X466578D02*
Y544202D01*
X466689Y544470*
X466800Y544560*
X467021Y544649*
X467243*
X467464Y544560*
X467575Y544470*
X467686Y544202*
Y543397*
Y544023D02*
X468904Y544649D01*
X467132Y545544D02*
X467021D01*
X466800Y545633*
X466800D02*
X466689Y545723D01*
X466578Y545902*
Y546260*
X466689Y546439*
X466800Y546528*
X467021Y546618*
X467243*
X467464Y546528*
X467797Y546349*
X468904Y545455*
Y546707*
X466578Y547691D02*
Y548676D01*
X467464Y548139*
Y548407*
X467575Y548586*
X467686Y548676*
X468018Y548765*
X468239*
X468572Y548676*
X468793Y548497*
X468904Y548228*
Y547960*
X468793Y547691*
X468682Y547602*
X468461Y547513*
X471500Y519819D02*
X473825D01*
X471500D02*
Y520625D01*
X471610Y520893*
X471721Y520982*
X471943Y521072*
X472164*
X472386Y520982*
X472496Y520893*
X472607Y520625*
Y519819*
Y520446D02*
X473825Y521072D01*
X472053Y521967D02*
X471943D01*
X471721Y522056*
X471610Y522146*
X471500Y522325*
Y522683*
X471610Y522861*
X471721Y522951*
X471943Y523040*
X472164*
X472386Y522951*
X472718Y522772*
X473825Y521877*
Y523130*
X471832Y525009D02*
X471610Y524919D01*
X471500Y524651*
Y524472*
X471610Y524204*
X471943Y524025*
X472496Y523935*
X473050*
X473493Y524025*
X473714Y524204*
X473825Y524472*
Y524562*
X473714Y524830*
X473493Y525009*
X473161Y525098*
X473050*
X472718Y525009*
X472496Y524830*
X472386Y524562*
Y524472*
X472496Y524204*
X472718Y524025*
X473050Y523935*
X466578Y519775D02*
X468904D01*
X466578D02*
Y520580D01*
X466689Y520848*
X466800Y520938*
X467021Y521027*
X467243*
X467464Y520938*
X467575Y520848*
X467686Y520580*
Y519775*
Y520401D02*
X468904Y521027D01*
X467132Y521922D02*
X467021D01*
X466800Y522011*
X466689Y522101*
X466578Y522280*
Y522638*
X466689Y522817*
X466800Y522906*
X467021Y522996*
X467243*
X467464Y522906*
X467797Y522727*
X468904Y521832*
Y523085*
X466578Y525143D02*
X468904Y524248D01*
X466578Y523890D02*
Y525143D01*
X476421Y519775D02*
X478746D01*
X476421D02*
Y520580D01*
X476532Y520848*
X476642Y520938*
X476864Y521027*
X477085*
X477307Y520938*
X477418Y520848*
X477528Y520580*
Y519775*
Y520401D02*
X478746Y521027D01*
X476975Y521922D02*
X476864D01*
X476642Y522011*
X476532Y522101*
X476421Y522280*
Y522638*
X476532Y522817*
X476642Y522906*
X476864Y522996*
X477085*
X477307Y522906*
X477639Y522727*
X478746Y521832*
Y523085*
X476421Y524338D02*
X476532Y524069D01*
X476753Y523980*
X476975*
X477196Y524069*
X477307Y524248*
X477418Y524606*
X477528Y524875*
X477750Y525054*
X477971Y525143*
X478303*
X478525Y525054*
X478636Y524964*
X478746Y524696*
Y524338*
X478636Y524069*
X478525Y523980*
X478303Y523890*
X477971*
X477750Y523980*
X477528Y524159*
X477418Y524427*
X477307Y524785*
X477196Y524964*
X476975Y525054*
X476753*
X476532Y524964*
X476421Y524696*
Y524338*
X446000Y576729D02*
Y574403D01*
Y576729D02*
X446806D01*
X447074Y576618*
X447164Y576507*
X447253Y576286*
Y576064*
X447164Y575843*
X447074Y575732*
X446806Y575621*
X446000*
X446627D02*
X447253Y574403D01*
X448148Y576175D02*
Y576286D01*
X448237Y576507*
X448327Y576618*
X448506Y576729*
X448864*
X449043Y576618*
X449132Y576507*
X449222Y576286*
Y576064*
X449132Y575843*
X448953Y575511*
X448058Y574403*
X449311*
X451280Y575953D02*
X451190Y575621D01*
X451011Y575400*
X450743Y575289*
X450653*
X450385Y575400*
X450206Y575621*
X450116Y575953*
Y576064*
X450206Y576396*
X450385Y576618*
X450653Y576729*
X450743*
X451011Y576618*
X451190Y576396*
X451280Y575953*
Y575400*
X451190Y574846*
X451011Y574514*
X450743Y574403*
X450564*
X450295Y574514*
X450206Y574735*
X512929Y505862D02*
Y503537D01*
Y505862D02*
X513735D01*
X514003Y505752*
X514093Y505641*
X514182Y505420*
Y505198*
X514093Y504977*
X514003Y504866*
X513735Y504755*
X512929*
X513556D02*
X514182Y503537D01*
X515166Y505862D02*
X516151D01*
X515614Y504977*
X515882*
X516061Y504866*
X516151Y504755*
X516240Y504423*
Y504202*
X516151Y503869*
X515972Y503648*
X515703Y503537*
X515435*
X515166Y503648*
X515077Y503759*
X514987Y503980*
X489307Y538540D02*
Y536214D01*
Y538540D02*
X490113D01*
X490381Y538429*
X490471Y538318*
X490560Y538097*
Y537875*
X490471Y537654*
X490381Y537543*
X490113Y537432*
X489307*
X489934D02*
X490560Y536214D01*
X491544Y538540D02*
X492529D01*
X491992Y537654*
X492260*
X492439Y537543*
X492529Y537432*
X492618Y537100*
Y536879*
X492529Y536547*
X492350Y536325*
X492081Y536214*
X491813*
X491544Y536325*
X491455Y536436*
X491365Y536657*
X494497Y538207D02*
X494408Y538429D01*
X494139Y538540*
X493960*
X493692Y538429*
X493513Y538097*
X493423Y537543*
Y536989*
X493513Y536547*
X493692Y536325*
X493960Y536214*
X494050*
X494318Y536325*
X494497Y536547*
X494587Y536879*
Y536989*
X494497Y537322*
X494318Y537543*
X494050Y537654*
X493960*
X493692Y537543*
X493513Y537322*
X493423Y536989*
X512929Y510784D02*
Y508458D01*
Y510784D02*
X513735D01*
X514003Y510673*
X514093Y510562*
X514182Y510341*
Y510119*
X514093Y509898*
X514003Y509787*
X513735Y509676*
X512929*
X513556D02*
X514182Y508458D01*
X515435Y510784D02*
X515166Y510673D01*
X515077Y510452*
Y510230*
X515166Y510009*
X515345Y509898*
X515703Y509787*
X515972Y509676*
X516151Y509455*
X516240Y509234*
Y508901*
X516151Y508680*
X516061Y508569*
X515793Y508458*
X515435*
X515166Y508569*
X515077Y508680*
X514987Y508901*
Y509234*
X515077Y509455*
X515256Y509676*
X515524Y509787*
X515882Y509898*
X516061Y510009*
X516151Y510230*
Y510452*
X516061Y510673*
X515793Y510784*
X515435*
X440988Y491321D02*
X443313D01*
X440988D02*
Y492126D01*
X441099Y492394*
X441209Y492484*
X441431Y492573*
X441652*
X441874Y492484*
X441984Y492394*
X442095Y492126*
Y491321*
Y491947D02*
X443313Y492573D01*
X441763Y494542D02*
X442095Y494452D01*
X442317Y494273*
X442427Y494005*
Y493916*
X442317Y493647*
X442095Y493468*
X441763Y493379*
X441652*
X441320Y493468*
X441099Y493647*
X440988Y493916*
Y494005*
X441099Y494273*
X441320Y494452*
X441763Y494542*
X442317*
X442870Y494452*
X443203Y494273*
X443313Y494005*
Y493826*
X443203Y493558*
X442981Y493468*
X456738Y561965D02*
Y559640D01*
Y561965D02*
X457543D01*
X457811Y561854*
X457901Y561743*
X457990Y561522*
Y561300*
X457901Y561079*
X457811Y560968*
X457543Y560858*
X456738*
X457364D02*
X457990Y559640D01*
X458975Y561965D02*
X459959D01*
X459422Y561079*
X459690*
X459869Y560968*
X459959Y560858*
X460048Y560525*
Y560304*
X459959Y559972*
X459780Y559750*
X459511Y559640*
X459243*
X458975Y559750*
X458885Y559861*
X458796Y560082*
X461748Y561965D02*
X460854Y560415D01*
X462196*
X461748Y561965D02*
Y559640D01*
X508008Y472398D02*
Y470737D01*
X508098Y470405*
X508277Y470183*
X508545Y470073*
X508724*
X508992Y470183*
X509171Y470405*
X509261Y470737*
Y472398*
X510245D02*
X511229D01*
X510693Y471512*
X510961*
X511140Y471401*
X511229Y471291*
X511319Y470958*
Y470737*
X511229Y470405*
X511050Y470183*
X510782Y470073*
X510514*
X510245Y470183*
X510156Y470294*
X510066Y470516*
X473559Y571807D02*
Y570146D01*
X473649Y569814*
X473828Y569593*
X474096Y569482*
X474275*
X474544Y569593*
X474723Y569814*
X474812Y570146*
Y571807*
X476870D02*
X475975Y569482D01*
X475617Y571807D02*
X476870D01*
X547619Y555610D02*
X547398Y555431D01*
X547287Y555163*
Y554805*
X547398Y554537*
X547619Y554358*
X547841*
X548062Y554447*
X548173Y554537*
X548284Y554715*
X548505Y555252*
X548616Y555431*
X548727Y555521*
X548948Y555610*
X549280*
X549502Y555431*
X549612Y555163*
Y554805*
X549502Y554537*
X549280Y554358*
X547287Y556416D02*
X549612Y556863D01*
X547287Y557310D02*
X549612Y556863D01*
X547287Y557310D02*
X549612Y557758D01*
X547287Y558205D02*
X549612Y557758D01*
X547730Y559010D02*
X547619Y559189D01*
X547287Y559458*
X549612*
X560082Y492618D02*
X561743D01*
X562076Y492708*
X562297Y492887*
X562408Y493155*
Y493334*
X562297Y493602*
X562076Y493781*
X561743Y493871*
X560082*
X560525Y494676D02*
X560415Y494855D01*
X560082Y495123*
X562408*
X560082Y496466D02*
X560193Y496197D01*
X560525Y496018*
X561079Y495929*
X561411*
X561965Y496018*
X562297Y496197*
X562408Y496466*
Y496645*
X562297Y496913*
X561965Y497092*
X561411Y497181*
X561079*
X560525Y497092*
X560193Y496913*
X560082Y496645*
Y496466*
X439019Y509395D02*
X441345D01*
X439019D02*
Y510200D01*
X439130Y510469*
X439241Y510558*
X439462Y510648*
X439684*
X439905Y510558*
X440016Y510469*
X440127Y510200*
Y509395D02*
Y510200D01*
X440237Y510469*
X440348Y510558*
X440570Y510648*
X440902*
X441123Y510558*
X441234Y510469*
X441345Y510200*
Y509395*
X439462Y511453D02*
X439352Y511632D01*
X439019Y511901*
X439019D02*
X441345D01*
X458840Y400547D02*
Y398776D01*
X458751Y398444*
X458661Y398333*
X458482Y398222*
X458304*
X458125Y398333*
X458035Y398444*
X457946Y398776*
Y398997*
X460540Y400547D02*
X459646Y398997D01*
X460988*
X460540Y400547D02*
Y398222D01*
X492723Y579098D02*
X492501Y579009D01*
X492280Y578830*
X492169Y578651*
Y578293*
X492280Y578114*
X492501Y577935*
X492723Y577845*
X493055Y577756*
X493609*
X493941Y577845*
X494162Y577935*
X494384Y578114*
X494494Y578293*
Y578651*
X494384Y578830*
X494162Y579009*
X493941Y579098*
X492169Y580082D02*
Y581067D01*
X493055Y580530*
Y580798*
X493166Y580977*
X493276Y581067*
X493609Y581156*
X493830*
X494162Y581067*
X494384Y580888*
X494494Y580619*
Y580351*
X494384Y580082*
X494273Y579993*
X494051Y579903*
X492169Y582856D02*
X493719Y581961D01*
Y583304*
X492169Y582856D02*
X494494D01*
X500447Y553537D02*
X500358Y553759D01*
X500179Y553980*
X500000Y554091*
X499642*
X499463Y553980*
X499284Y553759*
X499195Y553537*
X499105Y553205*
Y552651*
X499195Y552319*
X499284Y552098*
X499463Y551876*
X499642Y551766*
X500000*
X500179Y551876*
X500358Y552098*
X500447Y552319*
X501432Y554091D02*
X502416D01*
X501879Y553205*
X502147*
X502326Y553094*
X502416Y552984*
X502505Y552651*
Y552430*
X502416Y552098*
X502237Y551876*
X501969Y551766*
X501700*
X501432Y551876*
X501342Y551987*
X501253Y552208*
X504384Y553759D02*
X504295Y553980D01*
X504026Y554091*
X503848*
X503579Y553980*
X503400Y553648*
X503311Y553094*
Y552541*
X503400Y552098*
X503579Y551876*
X503848Y551766*
X503937*
X504205Y551876*
X504384Y552098*
X504474Y552430*
Y552541*
X504384Y552873*
X504205Y553094*
X503937Y553205*
X503848*
X503579Y553094*
X503400Y552873*
X503311Y552541*
X438395Y562395D02*
X438305Y562617D01*
X438126Y562838*
X437947Y562949*
X437589*
X437411Y562838*
X437232Y562617*
X437142Y562395*
X437053Y562063*
Y561510*
X437142Y561177*
X437232Y560956*
X437411Y560734*
X437411D02*
X437589Y560624D01*
X437947*
X438126Y560734*
X438126D02*
X438305Y560956D01*
X438395Y561177*
X439379Y562949D02*
X440363D01*
X439826Y562063*
X440095*
X440274Y561953*
X440363Y561842*
X440453Y561510*
Y561288*
X440363Y560956*
X440184Y560734*
X440184D02*
X439916Y560624D01*
X439647*
X439379Y560734*
X439379D02*
X439290Y560845D01*
X439200Y561067*
X441705Y562949D02*
X441437Y562838D01*
X441348Y562617*
Y562395*
X441437Y562174*
X441616Y562063*
X441974Y561953*
X442242Y561842*
X442421Y561620*
X442511Y561399*
Y561067*
X442421Y560845*
X442332Y560734*
X442332D02*
X442063Y560624D01*
X441705*
X441437Y560734*
X441437D02*
X441348Y560845D01*
X441258Y561067*
Y561399*
X441348Y561620*
X441526Y561842*
X441795Y561953*
X442153Y562063*
X442332Y562174*
X442421Y562395*
Y562617*
X442332Y562838*
X442063Y562949*
X441705*
X464030Y493498D02*
X463941Y493719D01*
X463762Y493941*
X463583Y494051*
X463225*
X463046Y493941*
X462867Y493719*
X462777Y493498*
X462688Y493166*
Y492612*
X462777Y492280*
X462867Y492058*
X463046Y491837*
X463225Y491726*
X463583*
X463762Y491837*
X463941Y492058*
X464030Y492280*
X465283Y494051D02*
X465014Y493941D01*
X464925Y493719*
Y493498*
X465014Y493276*
X465193Y493166*
X465551Y493055*
X465820Y492944*
X465999Y492723*
X466088Y492501*
Y492169*
X465999Y491948*
X465909Y491837*
X465641Y491726*
X465283*
X465014Y491837*
X464925Y491948*
X464835Y492169*
Y492501*
X464925Y492723*
X465104Y492944*
X465372Y493055*
X465730Y493166*
X465909Y493276*
X465999Y493498*
Y493719*
X465909Y493941*
X465641Y494051*
X465283*
X515360Y560531D02*
X515139Y560442D01*
X514918Y560263*
X514807Y560084*
Y559726*
X514918Y559547*
X515139Y559368*
X515360Y559279*
X515693Y559189*
X516246*
X516578Y559279*
X516800Y559368*
X517021Y559547*
X517132Y559726*
Y560084*
X517021Y560263*
X516800Y560442*
X516578Y560531*
X515582Y562500D02*
X515914Y562411D01*
X516136Y562232*
X516246Y561963*
Y561874*
X516136Y561605*
X515914Y561426*
X515582Y561337*
X515471*
X515139Y561426*
X514918Y561605*
X514807Y561874*
Y561963*
X514918Y562232*
X515139Y562411*
X515582Y562500*
X516136*
X516689Y562411*
X517021Y562232*
X517132Y561963*
Y561784*
X517021Y561516*
X516800Y561426*
X558295Y575744D02*
Y573973D01*
X558205Y573641*
X558116Y573530*
X557937Y573419*
X557758*
X557579Y573530*
X557489Y573641*
X557400Y573973*
Y574194*
X559189Y575191D02*
Y575301D01*
X559279Y575523*
X559368Y575634*
X559547Y575744*
X559905*
X560084Y575634*
X560174Y575523*
X560263Y575301*
Y575080*
X560174Y574859*
X559995Y574526*
X559100Y573419*
X560353*
X442958Y546217D02*
X443674Y545109D01*
X443674D02*
Y543891D01*
X444390Y546217D02*
X443674Y545109D01*
X445285Y545663D02*
Y545774D01*
X445374Y545995*
X445463Y546106*
X445642Y546217*
X446000*
X446179Y546106*
X446269Y545995*
X446358Y545774*
Y545552*
X446269Y545331*
X446090Y544999*
X445195Y543891*
X446448*
X433114Y551226D02*
X435439D01*
X433114D02*
Y552031D01*
X433225Y552300*
X433335Y552389*
X433557Y552479*
X433778*
X434000Y552389*
X434110Y552300*
X434221Y552031*
Y551226*
Y551852D02*
X435439Y552479D01*
X433114Y553463D02*
Y554447D01*
X434000Y553910*
Y554179*
X434110Y554358*
X434221Y554447*
X434553Y554537*
X434775*
X435107Y554447*
X435328Y554268*
X435439Y554000*
Y553731*
X435328Y553463*
X435218Y553373*
X434996Y553284*
X433114Y556505D02*
Y555610D01*
X434110Y555521*
X434000Y555610*
X433889Y555879*
Y556147*
X434000Y556416*
X434221Y556594*
X434553Y556684*
X434775Y556594*
X435107Y556505*
X435328Y556326*
X435439Y556058*
Y555789*
X435328Y555521*
X435218Y555431*
X434996Y555342*
X435263Y681059D02*
Y679288D01*
X435174Y678955*
X435084Y678845*
X434905Y678734*
X434726*
X434547Y678845*
X434458Y678955*
X434368Y679288*
Y679509*
X437321Y681059D02*
X436426Y678734D01*
X436068Y681059D02*
X437321D01*
X499612Y469801D02*
X499391Y469712D01*
X499170Y469533*
X499059Y469354*
Y468996*
X499170Y468817*
X499391Y468638*
X499612Y468549*
X499945Y468459*
X500498*
X500830Y468549*
X501052Y468638*
X501273Y468817*
X501384Y468996*
Y469354*
X501273Y469533*
X501052Y469712*
X500830Y469801*
X499059Y471501D02*
X500609Y470607D01*
Y471949*
X499059Y471501D02*
X501384D01*
X499059Y473917D02*
Y473023D01*
X500055Y472933*
X499945Y473023*
X499834Y473291*
Y473559*
X499945Y473828*
X500166Y474007*
X500498Y474096*
X500720Y474007*
X501052Y473917*
X501273Y473738*
X501384Y473470*
Y473202*
X501273Y472933*
X501163Y472844*
X500941Y472754*
X451548Y522041D02*
X451458Y522263D01*
X451280Y522484*
X451101Y522595*
X450743*
X450564Y522484*
X450385Y522263*
X450295Y522041*
X450206Y521709*
Y521155*
X450295Y520823*
X450385Y520602*
X450564Y520380*
X450743Y520269*
X451101*
X451280Y520380*
X451458Y520602*
X451548Y520823*
X453248Y522595D02*
X452353Y521045D01*
X453695*
X453248Y522595D02*
Y520269D01*
X454501Y522152D02*
X454680Y522263D01*
X454948Y522595*
Y520269*
X461659Y514721D02*
Y512395D01*
Y514721D02*
X462285D01*
X462554Y514610*
X462733Y514389*
X462822Y514167*
X462912Y513835*
Y513281*
X462822Y512949*
X462733Y512728*
X462554Y512506*
X462285Y512395*
X461659*
X465059Y514167D02*
X464970Y514389D01*
X464791Y514610*
X464612Y514721*
X464254*
X464075Y514610*
X463896Y514389*
X463806Y514167*
X463717Y513835*
Y513281*
X463806Y512949*
X463896Y512728*
X464075Y512506*
X464254Y512395*
X464612*
X464791Y512506*
X464970Y512728*
X465059Y512949*
X467117Y514721D02*
X466222Y512395D01*
X465864Y514721D02*
X467117D01*
X461659Y508815D02*
Y506490D01*
Y508815D02*
X462285D01*
X462554Y508704*
X462733Y508483*
X462822Y508262*
X462912Y507929*
Y507376*
X462822Y507044*
X462733Y506822*
X462554Y506601*
X462285Y506490*
X461659*
X465059Y508262D02*
X464970Y508483D01*
X464791Y508704*
X464612Y508815*
X464254*
X464075Y508704*
X463896Y508483*
X463806Y508262*
X463717Y507929*
Y507376*
X463806Y507044*
X463896Y506822*
X464075Y506601*
X464254Y506490*
X464612*
X464791Y506601*
X464970Y506822*
X465059Y507044*
X466312Y508815D02*
X466043Y508704D01*
X465954Y508483*
Y508262*
X466043Y508040*
X466222Y507929*
X466580Y507819*
X466849Y507708*
X467028Y507486*
X467117Y507265*
Y506933*
X467028Y506711*
X466938Y506601*
X466670Y506490*
X466312*
X466043Y506601*
X465954Y506711*
X465864Y506933*
Y507265*
X465954Y507486*
X466133Y507708*
X466401Y507819*
X466759Y507929*
X466938Y508040*
X467028Y508262*
Y508483*
X466938Y508704*
X466670Y508815*
X466312*
X517760Y471546D02*
X520085D01*
X517760D02*
Y472173D01*
X517870Y472441*
X518092Y472620*
X518313Y472709*
X518645Y472799*
X519199*
X519531Y472709*
X519753Y472620*
X519974Y472441*
X520085Y472173*
Y471546*
X518313Y474946D02*
X518092Y474857D01*
X517870Y474678*
X517760Y474499*
Y474141*
X517870Y473962*
X518092Y473783*
X518313Y473694*
X518645Y473604*
X519199*
X519531Y473694*
X519753Y473783*
X519974Y473962*
X520085Y474141*
Y474499*
X519974Y474678*
X519753Y474857*
X519531Y474946*
X518535Y476915D02*
X518867Y476825D01*
X519088Y476646*
X519199Y476378*
Y476288*
X519088Y476020*
X518867Y475841*
X518535Y475752*
X518424*
X518092Y475841*
X517870Y476020*
X517760Y476288*
Y476378*
X517870Y476646*
X518092Y476825*
X518535Y476915*
X519088*
X519642Y476825*
X519974Y476646*
X520085Y476378*
Y476199*
X519974Y475931*
X519753Y475841*
X479689Y434443D02*
X479599Y434664D01*
X479420Y434886*
X479241Y434996*
X478883*
X478704Y434886*
X478525Y434664*
X478436Y434443*
X478346Y434110*
Y433557*
X478436Y433225*
X478525Y433003*
X478704Y432782*
X478883Y432671*
X479241*
X479420Y432782*
X479599Y433003*
X479689Y433225*
X481389Y434996D02*
X480494Y433446D01*
X481836*
X481389Y434996D02*
Y432671D01*
X483894Y434996D02*
X482999Y432671D01*
X482641Y434996D02*
X483894D01*
X558339Y659406D02*
Y657634D01*
X558250Y657302*
X558160Y657191*
X557981Y657080*
X557802*
X557623Y657191*
X557534Y657302*
X557445Y657634*
Y657856*
X560308Y658631D02*
X560218Y658298D01*
X560039Y658077*
X559771Y657966*
X559681*
X559413Y658077*
X559234Y658298*
X559145Y658631*
Y658741*
X559234Y659074*
X559413Y659295*
X559681Y659406*
X559771*
X560039Y659295*
X560218Y659074*
X560308Y658631*
Y658077*
X560218Y657523*
X560039Y657191*
X559771Y657080*
X559592*
X559324Y657191*
X559234Y657413*
X430252Y624957D02*
Y622632D01*
Y624957D02*
X431416D01*
X430252Y623850D02*
X430968D01*
X432221Y624957D02*
Y622632D01*
Y624957D02*
X433026D01*
X433295Y624846*
X433384Y624735*
X433474Y624514*
Y624293*
X433384Y624071*
X433295Y623960*
X433026Y623850*
X432221D02*
X433026D01*
X433295Y623739*
X433384Y623628*
X433474Y623407*
Y623075*
X433384Y622853*
X433295Y622742*
X433026Y622632*
X432221*
X434368Y624403D02*
Y624514D01*
X434458Y624735*
X434547Y624846*
X434726Y624957*
X435084*
X435263Y624846*
X435353Y624735*
X435442Y624514*
Y624293*
X435353Y624071*
X435174Y623739*
X434279Y622632*
X435531*
X548407Y444839D02*
Y442514D01*
Y444839D02*
X549034D01*
X549302Y444728*
X549481Y444507*
X549571Y444285*
X549660Y443953*
Y443399*
X549571Y443067*
X549481Y442846*
X549302Y442624*
X549034Y442514*
X548407*
X551539Y444507D02*
X551450Y444728D01*
X551181Y444839*
X551002*
X550734Y444728*
X550555Y444396*
X550465Y443842*
Y443289*
X550555Y442846*
X550734Y442624*
X551002Y442514*
X551092*
X551360Y442624*
X551539Y442846*
X551628Y443178*
Y443289*
X551539Y443621*
X551360Y443842*
X551092Y443953*
X551002*
X550734Y443842*
X550555Y443621*
X550465Y443289*
X547289Y438933D02*
Y436608D01*
Y438933D02*
X548094D01*
X548363Y438823*
X548452Y438712*
X548542Y438490*
Y438269*
X548452Y438047*
X548363Y437937*
X548094Y437826*
X547289*
X547915D02*
X548542Y436608D01*
X550510Y438933D02*
X549615D01*
X549526Y437937*
X549615Y438047*
X549884Y438158*
X550152*
X550421Y438047*
X550599Y437826*
X550599D02*
X550689Y437494D01*
X550599Y437272*
X550599D02*
X550510Y436940D01*
X550331Y436719*
X550063Y436608*
X549794*
X549526Y436719*
X549436Y436829*
X549347Y437051*
X552031Y438933D02*
X551763Y438823D01*
X551584Y438490*
X551494Y437937*
Y437605*
X551584Y437051*
X551763Y436719*
X552031Y436608*
X552210*
X552479Y436719*
X552657Y437051*
X552747Y437605*
Y437937*
X552657Y438490*
X552479Y438823*
X552210Y438933*
X552031*
X468547Y446895D02*
X470872D01*
X468547D02*
Y447700D01*
X468658Y447969*
X468768Y448058*
X468990Y448148*
X469211*
X469433Y448058*
X469544Y447969*
X469654Y447700*
Y446895*
Y447521D02*
X470872Y448148D01*
X468547Y450116D02*
Y449222D01*
X469544Y449132*
X469433Y449222*
X469322Y449490*
Y449758*
X469433Y450027*
X469654Y450206*
X469986Y450295*
X470208Y450206*
X470540Y450116*
X470762Y449937*
X470872Y449669*
Y449401*
X470762Y449132*
X470651Y449043*
X470429Y448953*
X469101Y451190D02*
X468990D01*
X468768Y451280*
X468658Y451369*
X468547Y451548*
Y451906*
X468658Y452085*
X468768Y452174*
X468990Y452264*
X469211*
X469433Y452174*
X469765Y451995*
X470872Y451101*
Y452353*
X468547Y481344D02*
X470872D01*
X468547D02*
Y482149D01*
X468658Y482418*
X468768Y482507*
X468990Y482597*
X469211*
X469433Y482507*
X469544Y482418*
X469654Y482149*
Y481344*
Y481970D02*
X470872Y482597D01*
X468547Y484565D02*
Y483670D01*
X469544Y483581*
X469433Y483670*
X469322Y483939*
Y484207*
X469433Y484476*
X469654Y484655*
X469986Y484744*
X470208Y484655*
X470540Y484565*
X470762Y484386*
X470872Y484118*
Y483849*
X470762Y483581*
X470651Y483491*
X470429Y483402*
X468547Y485728D02*
Y486713D01*
X469433Y486176*
Y486444*
X469544Y486623*
X469654Y486713*
X469986Y486802*
X470208*
X470540Y486713*
X470762Y486534*
X470872Y486265*
Y485997*
X470762Y485728*
X470651Y485639*
X470429Y485549*
X556594Y486177D02*
Y484516D01*
X556684Y484184*
X556863Y483963*
X557131Y483852*
X557310*
X557579Y483963*
X557758Y484184*
X557847Y484516*
Y486177*
X558652Y485734D02*
X558831Y485845D01*
X559100Y486177*
Y483852*
X560084Y486177D02*
X561068D01*
X560531Y485292*
X560800*
X560979Y485181*
X561068Y485070*
X561158Y484738*
Y484516*
X561068Y484184*
X560889Y483963*
X560621Y483852*
X560353*
X560084Y483963*
X559995Y484074*
X559905Y484295*
X527602Y493021D02*
X529263D01*
X529595Y493110*
X529817Y493289*
X529927Y493558*
Y493737*
X529817Y494005*
X529595Y494184*
X529263Y494273*
X527602*
X528045Y495079D02*
X527934Y495258D01*
X527602Y495526*
X529927*
X528045Y496331D02*
X527934Y496510D01*
X527602Y496779*
X529927*
X523665Y492618D02*
X525326D01*
X525658Y492708*
X525880Y492887*
X525990Y493155*
Y493334*
X525880Y493602*
X525658Y493781*
X525326Y493871*
X523665*
X524108Y494676D02*
X523997Y494855D01*
X523665Y495123*
X525990*
X524219Y496018D02*
X524108D01*
X523887Y496108*
X523776Y496197*
X523665Y496376*
Y496734*
X523776Y496913*
X523887Y497003*
X524108Y497092*
X524329*
X524551Y497003*
X524883Y496824*
X525990Y495929*
Y497181*
X486310Y468461D02*
Y466136D01*
Y468461D02*
X486936D01*
X487205Y468350*
X487384Y468129*
X487473Y467907*
X487563Y467575*
Y467021*
X487473Y466689*
X487384Y466468*
X487205Y466246*
X486936Y466136*
X486310*
X489263Y468461D02*
X488368Y466911D01*
X489710*
X489263Y468461D02*
Y466136D01*
X411793Y484341D02*
X411571Y484162D01*
X411460Y483894*
Y483536*
X411571Y483268*
X411793Y483089*
X412014*
X412235Y483178*
X412346Y483268*
X412457Y483447*
X412678Y483984*
X412789Y484162*
X412900Y484252*
X413121Y484341*
X413453*
X413675Y484162*
X413786Y483894*
Y483536*
X413675Y483268*
X413453Y483089*
X411460Y485147D02*
X413786Y485594D01*
X411460Y486042D02*
X413786Y485594D01*
X411460Y486042D02*
X413786Y486489D01*
X411460Y486936D02*
X413786Y486489D01*
X412014Y487831D02*
X411903D01*
X411682Y487921*
X411571Y488010*
X411460Y488189*
Y488547*
X411571Y488726*
X411682Y488815*
X411903Y488905*
X412125*
X412346Y488815*
X412678Y488636*
X413786Y487742*
Y488994*
X544649Y508262D02*
X544560Y508483D01*
X544381Y508704*
X544202Y508815*
X543844*
X543665Y508704*
X543486Y508483*
X543397Y508262*
X543307Y507929*
Y507376*
X543397Y507044*
X543486Y506822*
X543665Y506601*
X543844Y506490*
X544202*
X544381Y506601*
X544560Y506822*
X544649Y507044*
X546618Y508815D02*
X545723D01*
X545633Y507819*
X545633D02*
X545723Y507929D01*
X545991Y508040*
X546260*
X546528Y507929*
X546707Y507708*
X546797Y507376*
X546707Y507154*
X546618Y506822*
X546439Y506601*
X546170Y506490*
X545902*
X545633Y506601*
X545633D02*
X545544Y506711D01*
X545455Y506933*
X548139Y508815D02*
X547870Y508704D01*
X547691Y508372*
X547602Y507819*
Y507486*
X547691Y506933*
X547870Y506601*
X548139Y506490*
X548318*
X548586Y506601*
X548765Y506933*
X548855Y507486*
Y507819*
X548765Y508372*
X548586Y508704*
X548318Y508815*
X548139*
X552523Y508262D02*
X552434Y508483D01*
X552255Y508704*
X552076Y508815*
X551718*
X551539Y508704*
X551360Y508483*
X551271Y508262*
X551181Y507929*
Y507376*
X551271Y507044*
X551360Y506822*
X551539Y506601*
X551718Y506490*
X552076*
X552255Y506601*
X552434Y506822*
X552523Y507044*
X554492Y508815D02*
X553597D01*
X553508Y507819*
X553597Y507929*
X553865Y508040*
X554134*
X554402Y507929*
X554581Y507708*
X554671Y507376*
X554581Y507154*
X554492Y506822*
X554313Y506601*
X554044Y506490*
X553776*
X553508Y506601*
X553418Y506711*
X553329Y506933*
X555565Y508262D02*
Y508372D01*
X555655Y508594*
X555744Y508704*
X555923Y508815*
X556281*
X556460Y508704*
X556550Y508594*
X556639Y508372*
Y508151*
X556550Y507929*
X556371Y507597*
X555476Y506490*
X556729*
X536460Y452801D02*
X538786D01*
X536460D02*
Y453606D01*
X536571Y453874*
X536682Y453964*
X536903Y454053*
X537125*
X537346Y453964*
X537457Y453874*
X537568Y453606*
Y452801*
Y453427D02*
X538786Y454053D01*
X536460Y455753D02*
X538011Y454859D01*
Y456201*
X536460Y455753D02*
X538786D01*
X536460Y457543D02*
X536571Y457275D01*
X536903Y457096*
X537457Y457006*
X537789*
X538343Y457096*
X538675Y457275*
X538786Y457543*
Y457722*
X538675Y457990*
X538343Y458169*
X537789Y458259*
X537457*
X536903Y458169*
X536571Y457990*
X536460Y457722*
Y457543*
X549256Y453203D02*
X551581D01*
X549256D02*
Y454009D01*
X549366Y454277*
X549477Y454366*
X549477D02*
X549699Y454456D01*
X549920*
X550141Y454366*
X550141D02*
X550252Y454277D01*
X550363Y454009*
Y453203*
Y453830D02*
X551581Y454456D01*
X549256Y456156D02*
X550806Y455261D01*
Y456603*
X549256Y456156D02*
X551581D01*
X549699Y457409D02*
X549588Y457588D01*
X549256Y457856*
X551581*
X415969Y602183D02*
Y603078D01*
X414862Y603168*
X414862D02*
X414985Y603078D01*
X415108Y602810*
Y602541*
X414985Y602273*
X414739Y602094*
X414370Y602004*
X414124Y602094*
X413755Y602183*
X413509Y602362*
X413386Y602631*
Y602899*
X413509Y603168*
X413509D02*
X413632Y603257D01*
X413878Y603346*
X511811Y591412D02*
X511632Y591289D01*
X511364Y590920*
Y593504*
X510469Y591535D02*
Y591412D01*
X510379Y591166*
X510290Y591043*
X510111Y590920*
X509753*
X509574Y591043*
X509485Y591166*
X509395Y591412*
Y591658*
X509485Y591905*
X509664Y592274*
X510558Y593504*
X509306*
X411356Y492019D02*
X413939D01*
X411356D02*
Y492824D01*
X411479Y493092*
X411602Y493182*
X411848Y493271*
X412094*
X412340Y493182*
X412463Y493092*
X412586Y492824*
Y492019*
Y492645D02*
X413939Y493271D01*
X411725Y495329D02*
X411479Y495150D01*
X411356Y494882*
Y494524*
X411479Y494256*
X411725Y494077*
X411971*
X412217Y494166*
X412340Y494256*
X412463Y494435*
X412463D02*
X412709Y494971D01*
X412832Y495150*
X412955Y495240*
X413201Y495329*
X413570*
X413816Y495150*
X413939Y494882*
Y494524*
X413816Y494256*
X413570Y494077*
X411356Y496761D02*
X413939D01*
X411356Y496135D02*
Y497387D01*
X547576Y544578D02*
X549422D01*
X549791Y544667*
X550037Y544846*
X550160Y545115*
Y545293*
X550037Y545562*
X549791Y545741*
X549422Y545830*
X547576*
X547945Y547888D02*
X547699Y547709D01*
X547576Y547441*
Y547083*
X547699Y546815*
X547945Y546636*
X548191*
X548437Y546725*
X548437D02*
X548561Y546815D01*
X548684Y546994*
X548930Y547530*
X549053Y547709*
X549176Y547799*
X549422Y547888*
X549791*
X550037Y547709*
X550160Y547441*
Y547083*
X550037Y546815*
X549791Y546636*
X547576Y548694D02*
X550160D01*
X547576D02*
Y549857D01*
X548807Y548694D02*
Y549409D01*
X550160Y548694D02*
Y549857D01*
X547576Y550662D02*
X550160D01*
X547576D02*
Y551467D01*
X547699Y551736*
X547822Y551825*
X548068Y551915*
X548314*
X548561Y551825*
X548684Y551736*
X548807Y551467*
Y550662*
Y551288D02*
X550160Y551915D01*
X538841Y417824D02*
X536257Y417108D01*
X538841Y416392D02*
X536257Y417108D01*
X538226Y406988D02*
X538472Y407078D01*
X538718Y407257*
X538841Y407436*
Y407793*
X538718Y407972*
X538472Y408151*
X538226Y408241*
X537857Y408330*
X537242*
X536873Y408241*
X536626Y408151*
X536380Y407972*
X536257Y407793*
Y407436*
X536380Y407257*
X536626Y407078*
X536873Y406988*
X537242*
Y407436D02*
Y406988D01*
X538841Y428391D02*
X536257D01*
X538841D02*
Y427765D01*
X538718Y427496*
X538472Y427317*
X538226Y427228*
X537857Y427139*
X537242*
X536873Y427228*
X536626Y427317*
X536380Y427496*
X536257Y427765*
Y428391*
X538472Y425528D02*
X536257D01*
X537365Y426333D02*
Y424723D01*
X538447Y438234D02*
X535864D01*
X538447D02*
Y437607D01*
X538324Y437339*
X538078Y437160*
X537832Y437071*
X537463Y436981*
X536848*
X536479Y437071*
X536233Y437160*
X535987Y437339*
X535864Y437607*
Y438234*
X536971Y436176D02*
Y434565D01*
X421789Y426664D02*
X424373Y427380D01*
X421789Y428096D02*
X424373Y427380D01*
X422404Y437500D02*
X422158Y437411D01*
X421912Y437232*
X421789Y437053*
Y436695*
X421912Y436516*
X422158Y436337*
X422404Y436247*
X422773Y436158*
X423388*
X423757Y436247*
X424003Y436337*
X424250Y436516*
X424373Y436695*
Y437053*
X424250Y437232*
X424003Y437411*
X423757Y437500*
X423388*
Y437053D02*
Y437500D01*
X421789Y416097D02*
X424373D01*
X421789D02*
Y416723D01*
X421912Y416992*
X422158Y417171*
X422404Y417260*
X422773Y417350*
X423388*
X423757Y417260*
X424003Y417171*
X424250Y416992*
X424373Y416723*
Y416097*
X422158Y418960D02*
X424373D01*
X423265Y418155D02*
Y419766D01*
X421789Y405861D02*
X424373D01*
X421789D02*
Y406487D01*
X421912Y406756*
X422158Y406935*
X422158D02*
X422404Y407024D01*
X422773Y407113*
X423388*
X423757Y407024*
X424003Y406935*
X424003D02*
X424250Y406756D01*
X424373Y406487*
Y405861*
X423265Y407919D02*
Y409529D01*
X549195Y653408D02*
X550179D01*
X549642Y652424*
X549911*
X550089Y652301*
X550179Y652178*
X550268Y651809*
Y651563*
X550268D02*
X550179Y651193D01*
X550000Y650947*
X549732Y650824*
X549463*
X549195Y650947*
X549105Y651070*
X549016Y651316*
X551074Y653408D02*
X551790Y650824D01*
X552505Y653408D02*
X551790Y650824D01*
X553490Y653408D02*
X554474D01*
X553937Y652424*
X554205*
X554384Y652301*
X554474Y652178*
X554563Y651809*
Y651563*
X554563D02*
X554474Y651193D01*
X554295Y650947*
X554026Y650824*
X553758*
X553490Y650947*
X553400Y651070*
X553311Y651316*
X550403Y647872D02*
X550313Y648118D01*
X550134Y648364*
X549955Y648487*
X549597*
X549418Y648364*
X549239Y648118*
X549150Y647872*
X549060Y647502*
Y646887*
X549150Y646518*
X549239Y646272*
X549418Y646026*
X549597Y645903*
X549955*
X550134Y646026*
X550313Y646272*
X550403Y646518*
Y646887*
X549955D02*
X550403D01*
X551208Y648487D02*
Y645903D01*
Y648487D02*
X552461Y645903D01*
Y648487D02*
Y645903D01*
X553266Y648487D02*
Y645903D01*
Y648487D02*
X553892D01*
X554161Y648364*
X554340Y648118*
X554429Y647872*
X554519Y647502*
Y646887*
X554429Y646518*
X554340Y646272*
X554161Y646026*
X553892Y645903*
X553266*
X546600Y643196D02*
X546421Y643442D01*
X546152Y643565*
X545795*
X545526Y643442*
X545347Y643196*
Y642950*
X545437Y642704*
X545526Y642581*
X545705Y642458*
X546242Y642212*
X546421Y642089*
X546510Y641966*
X546600Y641720*
Y641351*
X546421Y641105*
X546152Y640982*
X545795*
X545526Y641105*
X545347Y641351*
X547405Y643565D02*
X547853Y640982D01*
X548300Y643565D02*
X547853Y640982D01*
X548300Y643565D02*
X548747Y640982D01*
X549195Y643565D02*
X548747Y640982D01*
X550000Y643565D02*
Y640982D01*
Y643565D02*
X550626D01*
X550895Y643442*
X551074Y643196*
X551163Y642950*
X551253Y642581*
Y641966*
X551163Y641597*
X551074Y641351*
X550895Y641105*
X550626Y640982*
X550000*
X552058Y643565D02*
Y640982D01*
X553400Y643565D02*
X553221Y643442D01*
X553042Y643196*
X552953Y642950*
X552863Y642581*
Y641966*
X552953Y641597*
X553042Y641351*
X553221Y641105*
X553400Y640982*
X553758*
X553937Y641105*
X554116Y641351*
X554205Y641597*
X554295Y641966*
Y642581*
X554205Y642950*
X554116Y643196*
X553937Y643442*
X553758Y643565*
X553400*
X546108Y638275D02*
X545929Y638521D01*
X545660Y638644*
X545302*
X545034Y638521*
X544855Y638275*
Y638029*
X544945Y637783*
X545034Y637660*
X545213Y637537*
X545750Y637291*
X545929Y637168*
X546018Y637045*
X546108Y636799*
Y636430*
X545929Y636184*
X545660Y636061*
X545302*
X545034Y636184*
X544855Y636430*
X546913Y638644D02*
X547360Y636061D01*
X547808Y638644D02*
X547360Y636061D01*
X547808Y638644D02*
X548255Y636061D01*
X548703Y638644D02*
X548255Y636061D01*
X550850Y638029D02*
X550761Y638275D01*
X550582Y638521*
X550403Y638644*
X550045*
X549866Y638521*
X549687Y638275*
X549597Y638029*
X549508Y637660*
Y637045*
X549597Y636676*
X549687Y636430*
X549866Y636184*
X550045Y636061*
X550403*
X550582Y636184*
X550761Y636430*
X550850Y636676*
X551655Y638644D02*
Y636061D01*
X552729*
X553534Y638644D02*
Y636061D01*
X554787Y638644D02*
X553534Y636922D01*
X553982Y637537D02*
X554787Y636061D01*
X549025Y626021D02*
X548935Y626267D01*
X548756Y626513*
X548577Y626636*
X548219*
X548040Y626513*
X547861Y626267*
X547772Y626021*
X547683Y625652*
Y625037*
X547772Y624668*
X547861Y624422*
X548040Y624176*
X548219Y624053*
X548577*
X548756Y624176*
X548935Y624422*
X549025Y624668*
Y625037*
X548577D02*
X549025D01*
X549830Y626636D02*
Y624053D01*
Y626636D02*
X551083Y624053D01*
Y626636D02*
Y624053D01*
X551888Y626636D02*
Y624053D01*
Y626636D02*
X552514D01*
X552783Y626513*
X552962Y626267*
X553051Y626021*
X553141Y625652*
Y625037*
X553051Y624668*
X552962Y624422*
X552783Y624176*
X552514Y624053*
X551888*
X548014Y618565D02*
X548998D01*
X548461Y617581*
X548729*
X548908Y617458*
X548998Y617335*
X549087Y616966*
Y616720*
X548998Y616351*
X548819Y616105*
X548550Y615982*
X548282*
X548014Y616105*
X547924Y616228*
X547835Y616474*
X549893Y618565D02*
X550608Y615982D01*
X551324Y618565D02*
X550608Y615982D01*
X552309Y618565D02*
X553293D01*
X552756Y617581*
X553024*
X553203Y617458*
X553293Y617335*
X553382Y616966*
Y616720*
X553293Y616351*
X553114Y616105*
X552845Y615982*
X552577*
X552309Y616105*
X552219Y616228*
X552130Y616474*
X549741Y610298D02*
Y607714D01*
Y610298D02*
X550546D01*
X550814Y610175*
X550904Y610052*
X550993Y609806*
Y609560*
X550904Y609313*
X550814Y609190*
X550546Y609067*
X549741*
X550367D02*
X550993Y607714D01*
X551798Y610298D02*
X553051Y607714D01*
Y610298D02*
X551798Y607714D01*
X550170Y602621D02*
Y600037D01*
X549544Y602621D02*
X550796D01*
X551602D02*
X552854Y600037D01*
Y602621D02*
X551602Y600037D01*
X550135Y581362D02*
X552719D01*
X550135D02*
Y582167D01*
X550258Y582436*
X550381Y582525*
X550627Y582615*
X550874*
X551120Y582525*
X551243Y582436*
X551366Y582167*
Y581362D02*
Y582167D01*
X551489Y582436*
X551612Y582525*
X551858Y582615*
X552227*
X552473Y582525*
X552596Y582436*
X552719Y582167*
Y581362*
X550135Y583957D02*
X550258Y583778D01*
X550504Y583599*
X550750Y583509*
X551120Y583420*
X551735*
X552104Y583509*
X552350Y583599*
X552596Y583778*
X552719Y583957*
Y584315*
X552596Y584494*
X552350Y584673*
X552104Y584762*
X551735Y584851*
X551120*
X550750Y584762*
X550504Y584673*
X550258Y584494*
X550135Y584315*
Y583957*
Y586194D02*
X550258Y586015D01*
X550504Y585836*
X550750Y585746*
X551120Y585657*
X551735*
X552104Y585746*
X552350Y585836*
X552596Y586015*
X552719Y586194*
Y586552*
X552596Y586730*
X552350Y586909*
X552104Y586999*
X551735Y587088*
X551120*
X550750Y586999*
X550504Y586909*
X550258Y586730*
X550135Y586552*
Y586194*
Y588520D02*
X552719D01*
X550135Y587894D02*
Y589146D01*
X393701Y393701D02*
X566929D01*
Y685039*
X393701*
Y393701*
X515056Y541723D02*
Y540112D01*
Y544442D02*
Y542834D01*
X515131Y541723D02*
Y540112D01*
Y544442D02*
Y542834D01*
X515205Y541723D02*
Y540112D01*
Y544442D02*
Y542834D01*
X515280Y541723D02*
Y540112D01*
Y544442D02*
Y542834D01*
X515354Y541723D02*
Y540112D01*
Y544442D02*
Y542834D01*
X515429Y541723D02*
Y540112D01*
Y544442D02*
Y542834D01*
X515504Y541723D02*
Y540112D01*
Y544442D02*
Y542834D01*
X515578Y541723D02*
Y540112D01*
Y544442D02*
Y542834D01*
X515653Y541723D02*
Y540112D01*
Y544442D02*
Y542834D01*
X515727Y541723D02*
Y540112D01*
Y544442D02*
Y542834D01*
X515802Y541723D02*
Y540112D01*
Y544442D02*
Y542834D01*
X515876Y541723D02*
Y540112D01*
Y544442D02*
Y542834D01*
X515951Y541723D02*
Y540112D01*
Y544442D02*
Y542834D01*
X516026Y541723D02*
Y540112D01*
Y544438D02*
Y542834D01*
X516100Y541728D02*
Y540107D01*
Y544438D02*
Y542826D01*
X516175Y541744D02*
Y540091D01*
Y544433D02*
Y542813D01*
X516249Y541769D02*
Y540066D01*
Y544429D02*
Y542784D01*
X516324Y541810D02*
Y540025D01*
Y544417D02*
Y542743D01*
X516399Y541868D02*
Y539962D01*
Y544404D02*
Y542685D01*
X516473Y541955D02*
Y539880D01*
Y544392D02*
Y542602D01*
X516548Y542105D02*
Y539726D01*
X516473Y539246D02*
Y537447D01*
X533201Y540112D02*
X535422D01*
X531842Y539009D02*
X535422D01*
X531842D02*
X531436Y538197D01*
Y541027D02*
Y538197D01*
X514161Y541723D02*
X516021D01*
X514161D02*
X513457Y540112D01*
X516021*
Y540116D02*
Y540112D01*
X516573Y539560D02*
X516577D01*
X513253Y539009D02*
X516021D01*
X513253Y542834D02*
Y539009D01*
Y542834D02*
X516021D01*
X529828Y543671D02*
Y537402D01*
X535422*
X533201Y541723D02*
X535422D01*
X533201Y542834D02*
X536524D01*
X537328Y544442D02*
X536524Y542834D01*
X533201Y544442D02*
X537328D01*
X531436D02*
Y543530D01*
X524475Y544442D02*
X531436D01*
X524475D02*
X523841Y543174D01*
X521131Y544442D02*
Y544438D01*
X511646Y544442D02*
X516021D01*
X511646D02*
Y542556D01*
X499016Y544442D02*
X503391D01*
X499016D02*
Y537402D01*
X500624*
Y542834D02*
Y537402D01*
Y542834D02*
X503391D01*
X501531Y541723D02*
X503391D01*
X501531D02*
X500822Y540112D01*
X503321Y537402*
X505554*
X502998Y540149D02*
X505554Y537402D01*
X511646Y539283D02*
Y537402D01*
X516021*
Y537397*
X524093Y542834D02*
X526145D01*
Y537402*
X527756*
Y542834D02*
Y537402D01*
Y542834D02*
X529410D01*
X529828Y543671D02*
X529410Y542834D01*
X514907Y539009D02*
Y537402D01*
X509039Y539080D02*
X511530D01*
X501775D02*
X503996D01*
X499094Y544442D02*
Y537402D01*
X499169Y544442D02*
Y537402D01*
X499244Y544442D02*
Y537402D01*
X499318Y544442D02*
Y537402D01*
X499393Y544442D02*
Y537402D01*
X499467Y544442D02*
Y537402D01*
X499542Y544442D02*
Y537402D01*
X499617Y544442D02*
Y537402D01*
X499691Y544442D02*
Y537402D01*
X499766Y544442D02*
Y537402D01*
X499840Y544442D02*
Y537402D01*
X499915Y544442D02*
Y537402D01*
X499990Y544442D02*
Y537402D01*
X500064Y544442D02*
Y537402D01*
X500139Y544442D02*
Y537402D01*
X500213Y544442D02*
Y537402D01*
X500288Y544442D02*
Y537402D01*
X500362Y544442D02*
Y537402D01*
X500437Y544442D02*
Y537402D01*
X500512Y544442D02*
Y537402D01*
X500586Y544442D02*
Y537402D01*
X500661Y544442D02*
Y542834D01*
X500735Y544442D02*
Y542834D01*
X500810Y544442D02*
Y542834D01*
X500885Y540252D02*
Y540045D01*
X500959Y540422D02*
Y539962D01*
X501034Y540592D02*
Y539884D01*
X501108Y540762D02*
Y539801D01*
X501183Y540936D02*
Y539722D01*
X501257Y541106D02*
Y539639D01*
X501332Y541276D02*
Y539556D01*
X501407Y541446D02*
Y539478D01*
X501481Y541616D02*
Y539395D01*
X501556Y541723D02*
Y539316D01*
X501630Y541723D02*
Y539233D01*
X501705Y541723D02*
Y539154D01*
X501780Y541723D02*
Y539071D01*
X501854Y541723D02*
Y538993D01*
X501929Y541723D02*
Y538910D01*
X502003Y541723D02*
Y538827D01*
X502078Y541723D02*
Y538748D01*
X502153Y541723D02*
Y538665D01*
X502227Y541723D02*
Y538587D01*
X502302Y541723D02*
Y538504D01*
X502376Y541723D02*
Y538425D01*
X502451Y541723D02*
Y538342D01*
X502525Y541723D02*
Y538259D01*
X502600Y541723D02*
Y538181D01*
X502675Y541723D02*
Y538098D01*
X502749Y541723D02*
Y538019D01*
X502824Y541723D02*
Y537936D01*
X502898Y541723D02*
Y537857D01*
X502973Y541723D02*
Y537775D01*
X503048Y540095D02*
Y537696D01*
X503122Y540016D02*
Y537613D01*
X503197Y539933D02*
Y537530D01*
X503271Y539855D02*
Y537451D01*
X503346Y539776D02*
Y537402D01*
X503420Y539693D02*
Y537402D01*
X503495Y539614D02*
Y537402D01*
X503570Y539536D02*
Y537402D01*
X503644Y539453D02*
Y537402D01*
X503719Y539374D02*
Y537402D01*
X503793Y539291D02*
Y537402D01*
X503868Y539212D02*
Y537402D01*
X503943Y539134D02*
Y537402D01*
X504017Y539051D02*
Y537402D01*
X504092Y538972D02*
Y537402D01*
X504166Y538893D02*
Y537402D01*
X504241Y538810D02*
Y537402D01*
X504316Y538732D02*
Y537402D01*
X504390Y538649D02*
Y537402D01*
X504465Y538570D02*
Y537402D01*
X504539Y538491D02*
Y537402D01*
X504614Y538408D02*
Y537402D01*
X504688Y538330D02*
Y537402D01*
X504763Y538247D02*
Y537402D01*
X504838Y538168D02*
Y537402D01*
X504912Y538089D02*
Y537402D01*
X504987Y538007D02*
Y537402D01*
X505061Y537928D02*
Y537402D01*
X505136Y537849D02*
Y537402D01*
X505211Y537766D02*
Y537402D01*
X505285Y537687D02*
Y537402D01*
X505360Y537605D02*
Y537402D01*
X505434Y537526D02*
Y537402D01*
X505509Y537447D02*
Y537402D01*
X505583Y542846D02*
Y538989D01*
X505658Y542958D02*
Y538881D01*
X505733Y543058D02*
Y538781D01*
X505807Y543153D02*
Y538686D01*
X505882Y543240D02*
Y538599D01*
X505956Y543323D02*
Y538516D01*
X506031Y543402D02*
Y538438D01*
X506106Y543472D02*
Y538367D01*
X506180Y543543D02*
Y538297D01*
X506255Y543609D02*
Y538230D01*
X506329Y543667D02*
Y538172D01*
X506404Y543725D02*
Y538114D01*
X506479Y543783D02*
Y538056D01*
X505530Y539080D02*
X508020D01*
X506553Y543833D02*
Y538007D01*
X506628Y540717D02*
Y537957D01*
X506702Y540356D02*
Y537911D01*
X506777Y540153D02*
Y537866D01*
X506851Y540004D02*
Y537824D01*
X506926Y539880D02*
Y537787D01*
X507001Y539772D02*
Y537750D01*
X507075Y539676D02*
Y537712D01*
X507150Y539598D02*
Y537679D01*
X507224Y539523D02*
Y537650D01*
X507299Y539457D02*
Y537621D01*
X507374Y539399D02*
Y537592D01*
X507448Y539345D02*
Y537567D01*
X507523Y539295D02*
Y537547D01*
X507597Y539250D02*
Y537526D01*
X507672Y539212D02*
Y537505D01*
X507747Y539175D02*
Y537489D01*
X507821Y539146D02*
Y537472D01*
X507896Y539117D02*
Y537455D01*
X507970Y539092D02*
Y537443D01*
X508045Y539071D02*
Y537435D01*
X508119Y539055D02*
Y537422D01*
X508194Y539038D02*
Y537414D01*
X508269Y539026D02*
Y537410D01*
X508343Y539018D02*
Y537406D01*
X508418Y539013D02*
Y537402D01*
X508492Y539009D02*
Y537402D01*
X508567Y539009D02*
Y537402D01*
X508642Y539013D02*
Y537402D01*
X508716Y539018D02*
Y537406D01*
X508791Y539026D02*
Y537410D01*
X508865Y539038D02*
Y537414D01*
X508940Y539055D02*
Y537422D01*
X509014Y539071D02*
Y537435D01*
X509089Y539092D02*
Y537443D01*
X509164Y539117D02*
Y537460D01*
X509238Y539146D02*
Y537472D01*
X509313Y539175D02*
Y537489D01*
X509387Y539212D02*
Y537505D01*
X509462Y539254D02*
Y537526D01*
X509537Y539295D02*
Y537547D01*
X509611Y539345D02*
Y537571D01*
X509686Y539399D02*
Y537596D01*
X509760Y539457D02*
Y537621D01*
X509835Y539523D02*
Y537650D01*
X509910Y539598D02*
Y537683D01*
X509984Y539681D02*
Y537716D01*
X510059Y539776D02*
Y537750D01*
X510133Y539884D02*
Y537787D01*
X510208Y540008D02*
Y537828D01*
X510282Y540161D02*
Y537870D01*
X510432Y540741D02*
Y537957D01*
X510506Y543833D02*
Y538007D01*
X510581Y543779D02*
Y538060D01*
X510655Y543725D02*
Y538114D01*
X510730Y543667D02*
Y538172D01*
X510805Y543605D02*
Y538234D01*
X510879Y543538D02*
Y538301D01*
X510954Y543472D02*
Y538367D01*
X511028Y543397D02*
Y538442D01*
X511103Y543319D02*
Y538520D01*
X511177Y543236D02*
Y538603D01*
X511252Y543149D02*
Y538690D01*
X511327Y543054D02*
Y538786D01*
X511401Y542954D02*
Y538885D01*
X511476Y542842D02*
Y538997D01*
X511550Y542722D02*
Y539113D01*
X511625Y542594D02*
Y539246D01*
X511700Y544442D02*
Y537402D01*
X511774Y544442D02*
Y537402D01*
X511849Y544442D02*
Y537402D01*
X511923Y544442D02*
Y537402D01*
X511998Y544442D02*
Y537402D01*
X512073Y544442D02*
Y537402D01*
X512147Y544442D02*
Y537402D01*
X512222Y544442D02*
Y537402D01*
X512296Y544442D02*
Y537402D01*
X512371Y544442D02*
Y537402D01*
X512445Y544442D02*
Y537402D01*
X512520Y544442D02*
Y537402D01*
X512595Y544442D02*
Y537402D01*
X512669Y544442D02*
Y537402D01*
X512744Y544442D02*
Y537402D01*
X512818Y544442D02*
Y537402D01*
X512893Y544442D02*
Y537402D01*
X512968Y544442D02*
Y537402D01*
X513042Y544442D02*
Y537402D01*
X513117Y544442D02*
Y537402D01*
X513191Y544442D02*
Y537402D01*
X529828Y539080D02*
X531436D01*
X511646D02*
X513253D01*
X513340Y539009D02*
Y537402D01*
X513415Y539009D02*
Y537402D01*
X513490Y539009D02*
Y537402D01*
X513564Y539009D02*
Y537402D01*
X513639Y539009D02*
Y537402D01*
X513713Y539009D02*
Y537402D01*
X513788Y539009D02*
Y537402D01*
X513863Y539009D02*
Y537402D01*
X513937Y539009D02*
Y537402D01*
X514012Y539009D02*
Y537402D01*
X514086Y539009D02*
Y537402D01*
X514161Y539009D02*
Y537402D01*
X514236Y539009D02*
Y537402D01*
X514310Y539009D02*
Y537402D01*
X514385Y539009D02*
Y537402D01*
X514459Y539009D02*
Y537402D01*
X514534Y539009D02*
Y537402D01*
X514608Y539009D02*
Y537402D01*
X514683Y539009D02*
Y537402D01*
X514758Y539009D02*
Y537402D01*
X514832Y539009D02*
Y537402D01*
X513266Y544442D02*
Y537402D01*
X514981Y539009D02*
Y537402D01*
X515056Y539009D02*
Y537402D01*
X515131Y539009D02*
Y537402D01*
X515205Y539009D02*
Y537402D01*
X515280Y539009D02*
Y537402D01*
X515354Y539009D02*
Y537402D01*
X515429Y539009D02*
Y537402D01*
X515504Y539009D02*
Y537402D01*
X515578Y539009D02*
Y537402D01*
X515653Y539009D02*
Y537402D01*
X515727Y539009D02*
Y537402D01*
X515802Y539009D02*
Y537402D01*
X515876Y539009D02*
Y537402D01*
X515951Y539009D02*
Y537402D01*
X516026Y539009D02*
Y537397D01*
X516100Y539013D02*
Y537402D01*
X516175Y539030D02*
Y537406D01*
X516249Y539059D02*
Y537410D01*
X516324Y539096D02*
Y537418D01*
X516399Y539159D02*
Y537431D01*
X516548Y539395D02*
Y537464D01*
X516622Y544355D02*
Y537484D01*
X516697Y544330D02*
Y537505D01*
X516771Y544305D02*
Y537534D01*
X516846Y544276D02*
Y537563D01*
X516921Y544243D02*
Y537596D01*
X516995Y544206D02*
Y537629D01*
X517070Y544168D02*
Y537671D01*
X517144Y544123D02*
Y537712D01*
X517219Y544077D02*
Y537762D01*
X517294Y544023D02*
Y537812D01*
X517368Y543969D02*
Y537870D01*
X517443Y543907D02*
Y537932D01*
X517517Y543837D02*
Y538002D01*
X517592Y543762D02*
Y538077D01*
X517667Y543679D02*
Y538160D01*
X517741Y543588D02*
Y538251D01*
X517816Y543485D02*
Y538359D01*
X517890Y543364D02*
Y538475D01*
X517965Y543223D02*
Y538616D01*
X518039Y543054D02*
Y538790D01*
X518114Y542817D02*
Y539051D01*
X518189Y542871D02*
Y538935D01*
X534971Y539009D02*
Y537402D01*
X518338Y543078D02*
Y538728D01*
X518412Y543170D02*
Y538632D01*
X518487Y543257D02*
Y538549D01*
X518562Y543335D02*
Y538467D01*
X518636Y543414D02*
Y538392D01*
X518711Y543485D02*
Y538317D01*
X518785Y543555D02*
Y538251D01*
X518860Y543617D02*
Y538185D01*
X518934Y543679D02*
Y538127D01*
X519009Y543733D02*
Y538069D01*
X519084Y543791D02*
Y538015D01*
X529828Y541094D02*
X536947D01*
X518263Y542979D02*
Y538827D01*
X519233Y540567D02*
Y537915D01*
X519307Y540277D02*
Y537870D01*
X519382Y540091D02*
Y537824D01*
X519457Y539946D02*
Y537783D01*
X519531Y539826D02*
Y537746D01*
X519606Y539722D02*
Y537708D01*
X519680Y539635D02*
Y537675D01*
X519755Y539552D02*
Y537642D01*
X519830Y539482D02*
Y537609D01*
X519904Y539415D02*
Y537584D01*
X519979Y539357D02*
Y537555D01*
X520053Y539304D02*
Y537530D01*
X520128Y539258D02*
Y537509D01*
X520202Y539212D02*
Y537489D01*
X520277Y539175D02*
Y537468D01*
X520352Y539142D02*
Y537451D01*
X520426Y539109D02*
Y537435D01*
X520501Y539084D02*
Y537418D01*
X520575Y539059D02*
Y537406D01*
X520650Y539038D02*
Y537397D01*
X520725Y539018D02*
Y537385D01*
X520799Y539005D02*
Y537381D01*
X520874Y538993D02*
Y537373D01*
X520948Y538984D02*
Y537368D01*
X521023Y538980D02*
Y537364D01*
X519158Y543841D02*
Y537961D01*
X521172Y538976D02*
Y537364D01*
X521247Y538980D02*
Y537364D01*
X521321Y538989D02*
Y537368D01*
X521396Y538997D02*
Y537373D01*
X521470Y539009D02*
Y537381D01*
X521545Y539022D02*
Y537385D01*
X521620Y539042D02*
Y537397D01*
X521694Y539063D02*
Y537410D01*
X521769Y539088D02*
Y537422D01*
X521843Y539113D02*
Y537435D01*
X521918Y539146D02*
Y537451D01*
X521993Y539183D02*
Y537468D01*
X522067Y539221D02*
Y537489D01*
X522142Y539266D02*
Y537509D01*
X522216Y539316D02*
Y537534D01*
X522291Y539370D02*
Y537559D01*
X522365Y539428D02*
Y537584D01*
X522440Y539494D02*
Y537613D01*
X522515Y539569D02*
Y537646D01*
X522589Y539647D02*
Y537679D01*
X522664Y539743D02*
Y537712D01*
X522738Y539846D02*
Y537750D01*
X522813Y539971D02*
Y537791D01*
X522888Y540124D02*
Y537833D01*
X529828Y539975D02*
X531436D01*
X523111Y543833D02*
Y537969D01*
X523186Y543779D02*
Y538023D01*
X523260Y543725D02*
Y538077D01*
X523335Y543667D02*
Y538135D01*
X523410Y543605D02*
Y538197D01*
X523484Y543543D02*
Y538259D01*
X523559Y543472D02*
Y538330D01*
X523633Y543402D02*
Y538400D01*
X523708Y543323D02*
Y538479D01*
X523783Y543240D02*
Y538562D01*
X523857Y543207D02*
Y538649D01*
X523932Y543356D02*
Y538744D01*
X524006Y543505D02*
Y538844D01*
X524081Y543654D02*
Y538951D01*
X524156Y542735D02*
Y539067D01*
X524230Y542602D02*
Y539200D01*
X524305Y542461D02*
Y539341D01*
X524379Y542299D02*
Y539502D01*
X524454Y542109D02*
Y539693D01*
X524528Y541881D02*
Y539921D01*
X524603Y541570D02*
Y540232D01*
X524678Y544442D02*
Y542834D01*
X524752Y544442D02*
Y542834D01*
X524827Y544442D02*
Y542834D01*
X524901Y544442D02*
Y542834D01*
X524976Y544442D02*
Y542834D01*
X525051Y544442D02*
Y542834D01*
X525125Y544442D02*
Y542834D01*
X525200Y544442D02*
Y542834D01*
X525274Y544442D02*
Y542834D01*
X525349Y544442D02*
Y542834D01*
X525424Y544442D02*
Y542834D01*
X525498Y544442D02*
Y542834D01*
X525573Y544442D02*
Y542834D01*
X525647Y544442D02*
Y542834D01*
X525722Y544442D02*
Y542834D01*
X525796Y544442D02*
Y542834D01*
X525871Y544442D02*
Y542834D01*
X525946Y544442D02*
Y542834D01*
X526020Y544442D02*
Y542834D01*
X526095Y544442D02*
Y542834D01*
X526169Y544442D02*
Y537402D01*
X526244Y544442D02*
Y537402D01*
X526319Y544442D02*
Y537402D01*
X526393Y544442D02*
Y537402D01*
X526468Y544442D02*
Y537402D01*
X526542Y544442D02*
Y537402D01*
X526617Y544442D02*
Y537402D01*
X526691Y544442D02*
Y537402D01*
X526766Y544442D02*
Y537402D01*
X526841Y544442D02*
Y537402D01*
X526915Y544442D02*
Y537402D01*
X526990Y544442D02*
Y537402D01*
X527064Y544442D02*
Y537402D01*
X527139Y544442D02*
Y537402D01*
X527214Y544442D02*
Y537402D01*
X527288Y544442D02*
Y537402D01*
X527363Y544442D02*
Y537402D01*
X527437Y544442D02*
Y537402D01*
X527512Y544442D02*
Y537402D01*
X527587Y544442D02*
Y537402D01*
X527661Y544442D02*
Y537402D01*
X527736Y544442D02*
Y537402D01*
X527810Y544442D02*
Y542834D01*
X527885Y544442D02*
Y542834D01*
X527959Y544442D02*
Y542834D01*
X528034Y544442D02*
Y542834D01*
X528109Y544442D02*
Y542834D01*
X528183Y544442D02*
Y542834D01*
X528258Y544442D02*
Y542834D01*
X528332Y544442D02*
Y542834D01*
X528407Y544442D02*
Y542834D01*
X528482Y544442D02*
Y542834D01*
X528556Y544442D02*
Y542834D01*
X528631Y544442D02*
Y542834D01*
X528705Y544442D02*
Y542834D01*
X528780Y544442D02*
Y542834D01*
X528854Y544442D02*
Y542834D01*
X528929Y544442D02*
Y542834D01*
X529004Y544442D02*
Y542834D01*
X529078Y544442D02*
Y542834D01*
X529153Y544442D02*
Y542834D01*
X529227Y544442D02*
Y542834D01*
X529302Y544442D02*
Y542834D01*
X529377Y544442D02*
Y542834D01*
X529451Y544442D02*
Y542917D01*
X529526Y544442D02*
Y543066D01*
X529600Y544442D02*
Y543215D01*
X529675Y544442D02*
Y543364D01*
X529750Y544442D02*
Y543514D01*
X529824Y544442D02*
Y543663D01*
X529899Y544442D02*
Y537402D01*
X529973Y544442D02*
Y537402D01*
X530048Y544442D02*
Y537402D01*
X530122Y544442D02*
Y537402D01*
X530197Y544442D02*
Y537402D01*
X530272Y544442D02*
Y537402D01*
X530346Y544442D02*
Y537402D01*
X530421Y544442D02*
Y537402D01*
X530495Y544442D02*
Y537402D01*
X530570Y544442D02*
Y537402D01*
X530645Y544442D02*
Y537402D01*
X530719Y544442D02*
Y537402D01*
X530794Y544442D02*
Y537402D01*
X530868Y544442D02*
Y537402D01*
X530943Y544442D02*
Y537402D01*
X531017Y544442D02*
Y537402D01*
X531092Y544442D02*
Y537402D01*
X531167Y544442D02*
Y537402D01*
X531241Y544442D02*
Y537402D01*
X531316Y544442D02*
Y537402D01*
X521172Y544438D02*
Y542826D01*
X521097Y538976D02*
Y537364D01*
X531540Y543663D02*
Y540891D01*
X531614Y543746D02*
Y540804D01*
X531689Y543824D02*
Y540729D01*
X531763Y543895D02*
Y540659D01*
X531838Y543957D02*
Y540596D01*
X531913Y544015D02*
Y540538D01*
X531987Y544069D02*
Y540484D01*
X532062Y544114D02*
Y540435D01*
X532136Y544160D02*
Y540393D01*
X532211Y544201D02*
Y540352D01*
X532285Y544239D02*
Y540315D01*
X532360Y544272D02*
Y540281D01*
X532435Y544301D02*
Y540252D01*
X532509Y544326D02*
Y540228D01*
X532584Y544351D02*
Y540203D01*
X532658Y542159D02*
Y540182D01*
X532733Y541976D02*
Y540165D01*
X532808Y541885D02*
Y540149D01*
X532882Y541823D02*
Y540136D01*
X532957Y541777D02*
Y540128D01*
X533031Y541748D02*
Y540120D01*
X533106Y541728D02*
Y540116D01*
X533180Y541723D02*
Y540112D01*
X533255Y541723D02*
Y540112D01*
X533330Y541723D02*
Y540112D01*
X533404Y541723D02*
Y540112D01*
X533479Y541723D02*
Y540112D01*
X533553Y541723D02*
Y540112D01*
X533628Y541723D02*
Y540112D01*
X533703Y541723D02*
Y540112D01*
X533777Y541723D02*
Y540112D01*
X533852Y541723D02*
Y540112D01*
X533926Y541723D02*
Y540112D01*
X534001Y541723D02*
Y540112D01*
X534076Y541723D02*
Y540112D01*
X534150Y541723D02*
Y540112D01*
X534225Y541723D02*
Y540112D01*
X534299Y541723D02*
Y540112D01*
X534374Y541723D02*
Y540112D01*
X534448Y541723D02*
Y540112D01*
X534523Y541723D02*
Y540112D01*
X534598Y541723D02*
Y540112D01*
X534672Y541723D02*
Y540112D01*
X534747Y541723D02*
Y540112D01*
X534821Y541723D02*
Y540112D01*
X534896Y541723D02*
Y540112D01*
X534971Y541723D02*
Y540112D01*
X535045Y541723D02*
Y540112D01*
X535120Y541723D02*
Y540112D01*
X535194Y541723D02*
Y540112D01*
X535269Y541723D02*
Y540112D01*
X535343Y541723D02*
Y540112D01*
X535418Y541723D02*
Y540112D01*
X535493Y541719D02*
Y540107D01*
X535567Y541715D02*
Y540091D01*
X535642Y541711D02*
Y540066D01*
X535716Y541703D02*
Y540025D01*
X535791Y541690D02*
Y539971D01*
X535866Y541674D02*
Y539884D01*
X529828Y539304D02*
X531436D01*
X536015Y541636D02*
Y537484D01*
X536089Y541616D02*
Y537505D01*
X536164Y541591D02*
Y537530D01*
X536239Y541562D02*
Y537559D01*
X536313Y541529D02*
Y537592D01*
X536388Y541491D02*
Y537629D01*
X536462Y541454D02*
Y537667D01*
X536537Y541409D02*
Y537712D01*
X536611Y541363D02*
Y537758D01*
X536686Y541313D02*
Y537812D01*
X536761Y541255D02*
Y537866D01*
X536835Y541193D02*
Y537928D01*
X536910Y541127D02*
Y537994D01*
X536984Y541052D02*
Y538069D01*
X537059Y540969D02*
Y538152D01*
X537134Y540878D02*
Y538247D01*
X537208Y540775D02*
Y538350D01*
X537283Y540654D02*
Y538467D01*
X531498Y540944D02*
X537084D01*
X526145Y541019D02*
X527756D01*
X532667Y544375D02*
X537295D01*
X532435Y544301D02*
X537258D01*
X532261Y544226D02*
X537221D01*
X532120Y544152D02*
X537183D01*
X532000Y544077D02*
X537146D01*
X531896Y544002D02*
X537109D01*
X531801Y543928D02*
X537071D01*
X531718Y543853D02*
X537034D01*
X531643Y543779D02*
X536997D01*
X531577Y543704D02*
X536960D01*
X531515Y543630D02*
X536922D01*
X529828Y543555D02*
X536885D01*
X529828Y543480D02*
X536848D01*
X529828Y543406D02*
X536810D01*
X529828Y543331D02*
X536773D01*
X529828Y543257D02*
X536736D01*
X529828Y543182D02*
X536698D01*
X529828Y543107D02*
X536661D01*
X529828Y543033D02*
X536624D01*
X529828Y542958D02*
X536587D01*
X529828Y538334D02*
X531436D01*
X516548Y544375D02*
Y542453D01*
X529828Y540944D02*
X531436D01*
X529828Y542809D02*
X533040D01*
X529828Y542735D02*
X532886D01*
X529828Y542660D02*
X532799D01*
X529828Y542585D02*
X532741D01*
X529828Y542511D02*
X532700D01*
X529828Y542436D02*
X532671D01*
X529828Y542362D02*
X532654D01*
X529828Y542287D02*
X532650D01*
X529828Y542212D02*
X532650D01*
X529828Y542138D02*
X532667D01*
X529828Y542063D02*
X532692D01*
X529828Y541989D02*
X532729D01*
X529828Y541914D02*
X532783D01*
X529828Y541839D02*
X532866D01*
X529828Y541765D02*
X532994D01*
X529828Y541690D02*
X535799D01*
X529828Y541616D02*
X536094D01*
X529828Y541541D02*
X536292D01*
X529828Y541467D02*
X536442D01*
X529828Y541392D02*
X536570D01*
X529828Y541317D02*
X536682D01*
X529828Y541243D02*
X536781D01*
X529828Y541168D02*
X536868D01*
X535692Y539080D02*
X537527D01*
X535940Y541657D02*
Y539743D01*
Y539374D02*
Y537464D01*
X529828Y539900D02*
X531436D01*
X531627Y540795D02*
X537196D01*
X529828Y539826D02*
X531436D01*
X531784Y540646D02*
X537291D01*
X529828Y539751D02*
X531436D01*
X531975Y540497D02*
X537370D01*
X529828Y539676D02*
X531436D01*
X532227Y540348D02*
X537436D01*
X529828Y539602D02*
X531436D01*
X532605Y540199D02*
X537486D01*
X529828Y539527D02*
X531436D01*
X535683Y540049D02*
X537527D01*
X529828Y539453D02*
X531436D01*
X535857Y539900D02*
X537556D01*
X529828Y539378D02*
X531436D01*
X535940Y539751D02*
X537573D01*
X537283Y544442D02*
Y544355D01*
X535973Y539602D02*
X537581D01*
X529828Y539229D02*
X531436D01*
X535965Y539453D02*
X537581D01*
X529828Y539154D02*
X531436D01*
X535911Y539304D02*
X537565D01*
X511646Y539005D02*
X520812D01*
X529828D02*
X531436D01*
X529828Y538931D02*
X531436D01*
X529828Y538856D02*
X531436D01*
X529828Y538781D02*
X531436D01*
X529828Y538707D02*
X531436D01*
X529828Y538632D02*
X531436D01*
X529828Y538558D02*
X531436D01*
X529828Y538483D02*
X531436D01*
X529828Y538408D02*
X531436D01*
X531506Y538334D02*
X537200D01*
X529828Y538259D02*
X537146D01*
X529828Y538185D02*
X537088D01*
X529828Y538110D02*
X537022D01*
X529828Y538036D02*
X536951D01*
X529828Y537961D02*
X536873D01*
X529828Y537886D02*
X536786D01*
X529828Y537812D02*
X536686D01*
X529828Y537737D02*
X536578D01*
X529828Y537663D02*
X536450D01*
X529828Y537588D02*
X536301D01*
X529828Y537513D02*
X536106D01*
X529828Y537439D02*
X535820D01*
X501158Y539751D02*
X503371D01*
X499016Y539676D02*
X500624D01*
X501228D02*
X503441D01*
X499016Y539602D02*
X500624D01*
X501295D02*
X503512D01*
X499016Y539527D02*
X500624D01*
X501365D02*
X503578D01*
X499016Y539453D02*
X500624D01*
X501432D02*
X503648D01*
X499016Y539378D02*
X500624D01*
X501502D02*
X503719D01*
X499016Y539304D02*
X500624D01*
X501572D02*
X503789D01*
X499016Y539229D02*
X500624D01*
X501639D02*
X503856D01*
X499016Y539154D02*
X500624D01*
X501709D02*
X503926D01*
X509259D02*
X511575D01*
X499016Y539080D02*
X500624D01*
X500885Y544442D02*
Y542834D01*
X500959Y544442D02*
Y542834D01*
X501034Y544442D02*
Y542834D01*
X501108Y544442D02*
Y542834D01*
X501183Y544442D02*
Y542834D01*
X501257Y544442D02*
Y542834D01*
X501332Y544442D02*
Y542834D01*
X501407Y544442D02*
Y542834D01*
X501481Y544442D02*
Y542834D01*
X501556Y544442D02*
Y542834D01*
X501630Y544442D02*
Y542834D01*
X501705Y544442D02*
Y542834D01*
X501780Y544442D02*
Y542834D01*
X501854Y544442D02*
Y542834D01*
X501929Y544442D02*
Y542834D01*
X502003Y544442D02*
Y542834D01*
X502078Y544442D02*
Y542834D01*
X502153Y544442D02*
Y542834D01*
X502227Y544442D02*
Y542834D01*
X502302Y544442D02*
Y542834D01*
X502376Y544442D02*
Y542834D01*
X502451Y544442D02*
Y542834D01*
X502525Y544442D02*
Y542834D01*
X502600Y544442D02*
Y542834D01*
X502675Y544442D02*
Y542834D01*
X502749Y544442D02*
Y542834D01*
X502824Y544442D02*
Y542834D01*
X502898Y544442D02*
Y542834D01*
X502973Y544442D02*
Y542834D01*
X503048Y544442D02*
Y542834D01*
Y541723D02*
Y540141D01*
X503122Y544442D02*
Y542834D01*
Y541723D02*
Y540128D01*
X503197Y544442D02*
Y542834D01*
Y541723D02*
Y540120D01*
X503271Y544442D02*
Y542834D01*
Y541723D02*
Y540116D01*
X503346Y544442D02*
Y542834D01*
Y541723D02*
Y540112D01*
X503420Y544438D02*
Y542830D01*
Y541723D02*
Y540116D01*
X503495Y544438D02*
Y542822D01*
Y541732D02*
Y540116D01*
X503570Y544433D02*
Y542801D01*
Y541752D02*
Y540120D01*
X503644Y544425D02*
Y542772D01*
Y541781D02*
Y540128D01*
X503719Y544413D02*
Y542726D01*
Y541827D02*
Y540136D01*
X503793Y544400D02*
Y542660D01*
Y541893D02*
Y540153D01*
X503868Y544388D02*
Y542560D01*
Y541993D02*
Y540165D01*
X503943Y544367D02*
Y542345D01*
Y542208D02*
Y540186D01*
X504017Y544346D02*
Y540207D01*
X504092Y544322D02*
Y540232D01*
X504166Y544297D02*
Y540257D01*
X504241Y544268D02*
Y540286D01*
X504316Y544230D02*
Y540319D01*
X504390Y544197D02*
Y540356D01*
X504465Y544156D02*
Y540397D01*
X504539Y544110D02*
Y540443D01*
X504614Y544060D02*
Y540493D01*
X504688Y544007D02*
Y540547D01*
X504763Y543949D02*
Y540605D01*
X504838Y543886D02*
Y540667D01*
X504912Y543816D02*
Y540737D01*
X504987Y543737D02*
Y540816D01*
X505061Y543650D02*
Y540306D01*
X505136Y543555D02*
Y539979D01*
X505211Y543447D02*
Y539743D01*
X505285Y543323D02*
Y539548D01*
X505360Y543174D02*
Y539386D01*
X505434Y542987D02*
Y539241D01*
X505509Y542730D02*
Y539109D01*
X532658Y544371D02*
Y542395D01*
X532733Y544388D02*
Y542577D01*
X532808Y544404D02*
Y542668D01*
X532882Y544417D02*
Y542730D01*
X532957Y544425D02*
Y542776D01*
X533031Y544433D02*
Y542805D01*
X533106Y544438D02*
Y542826D01*
X533180Y544442D02*
Y542830D01*
X533255Y544442D02*
Y542834D01*
X533330Y544442D02*
Y542834D01*
X533404Y544442D02*
Y542834D01*
X533479Y544442D02*
Y542834D01*
X533553Y544442D02*
Y542834D01*
X533628Y544442D02*
Y542834D01*
X533703Y544442D02*
Y542834D01*
X533777Y544442D02*
Y542834D01*
X533852Y544442D02*
Y542834D01*
X533926Y544442D02*
Y542834D01*
X534001Y544442D02*
Y542834D01*
X534076Y544442D02*
Y542834D01*
X534150Y544442D02*
Y542834D01*
X534225Y544442D02*
Y542834D01*
X534299Y544442D02*
Y542834D01*
X534374Y544442D02*
Y542834D01*
X534448Y544442D02*
Y542834D01*
X534523Y544442D02*
Y542834D01*
X534598Y544442D02*
Y542834D01*
X534672Y544442D02*
Y542834D01*
X534747Y544442D02*
Y542834D01*
X534821Y544442D02*
Y542834D01*
X534896Y544442D02*
Y542834D01*
X534971Y544442D02*
Y542834D01*
X523053Y540870D02*
X524669D01*
X526145D02*
X527756D01*
X523049Y540795D02*
X524665D01*
X526145D02*
X527756D01*
X523045Y540721D02*
X524665D01*
X526145D02*
X527756D01*
X523037Y540646D02*
X524661D01*
X526145D02*
X527756D01*
X523024Y540572D02*
X524653D01*
X526145D02*
X527756D01*
X523012Y540497D02*
X524644D01*
X526145D02*
X527756D01*
X522991Y540422D02*
X524636D01*
X526145D02*
X527756D01*
X522970Y540348D02*
X524624D01*
X526145D02*
X527756D01*
X522950Y540273D02*
X524611D01*
X526145D02*
X527756D01*
X522921Y540199D02*
X524599D01*
X526145D02*
X527756D01*
X522888Y540124D02*
X524582D01*
X526145D02*
X527756D01*
X522854Y540049D02*
X524566D01*
X526145D02*
X527756D01*
X522817Y539975D02*
X524545D01*
X526145D02*
X527756D01*
X524156Y543804D02*
Y542834D01*
X524230Y543953D02*
Y542834D01*
X524305Y544102D02*
Y542834D01*
X524379Y544251D02*
Y542834D01*
X524454Y544400D02*
Y542834D01*
X524528Y544442D02*
Y542834D01*
X524603Y544442D02*
Y542834D01*
X535045Y544442D02*
Y542834D01*
X535120Y544442D02*
Y542834D01*
X535194Y544442D02*
Y542834D01*
X535269Y544442D02*
Y542834D01*
X535343Y544442D02*
Y542834D01*
X535418Y544442D02*
Y542834D01*
X535493Y544442D02*
Y542834D01*
X535567Y544442D02*
Y542834D01*
X535642Y544442D02*
Y542834D01*
X535716Y544442D02*
Y542834D01*
X535791Y544442D02*
Y542834D01*
X535866Y544442D02*
Y542834D01*
X535940Y544442D02*
Y542834D01*
X522772Y539900D02*
X524524D01*
X526145D02*
X527756D01*
X522726Y539826D02*
X524499D01*
X526145D02*
X527756D01*
X522672Y539751D02*
X524475D01*
X526145D02*
X527756D01*
X522614Y539676D02*
X524450D01*
X526145D02*
X527756D01*
X522548Y539602D02*
X524421D01*
X526145D02*
X527756D01*
X522473Y539527D02*
X524392D01*
X526145D02*
X527756D01*
X522394Y539453D02*
X524359D01*
X526145D02*
X527756D01*
X522303Y539378D02*
X524321D01*
X526145D02*
X527756D01*
X522200Y539304D02*
X524288D01*
X526145D02*
X527756D01*
X536015Y544442D02*
Y542834D01*
X536089Y544442D02*
Y542834D01*
X536164Y544442D02*
Y542834D01*
X536239Y544442D02*
Y542834D01*
X536313Y544442D02*
Y542834D01*
X536388Y544442D02*
Y542834D01*
X536462Y544442D02*
Y542834D01*
X536537Y544442D02*
Y542863D01*
X536611Y544442D02*
Y543012D01*
X536686Y544442D02*
Y543161D01*
X536761Y544442D02*
Y543310D01*
X536835Y544442D02*
Y543460D01*
X536910Y544442D02*
Y543609D01*
X536984Y544442D02*
Y543758D01*
X537059Y544442D02*
Y543907D01*
X537134Y544442D02*
Y544056D01*
X537208Y544442D02*
Y544206D01*
X522080Y539229D02*
X524247D01*
X526145D02*
X527756D01*
X521935Y539154D02*
X524205D01*
X526145D02*
X527756D01*
X521744Y539080D02*
X524164D01*
X526145D02*
X527756D01*
X499016Y539005D02*
X500624D01*
X501846D02*
X504063D01*
X505579D02*
X511484D01*
X521446D02*
X524118D01*
X526145D02*
X527756D01*
X499016Y538931D02*
X500624D01*
X501912D02*
X504133D01*
X505629D02*
X511434D01*
X511646D02*
X518089D01*
X518193D02*
X524069D01*
X526145D02*
X527756D01*
X499016Y538856D02*
X500624D01*
X501983D02*
X504204D01*
X505679D02*
X511381D01*
X511646D02*
X518064D01*
X518247D02*
X524015D01*
X526145D02*
X527756D01*
X499016Y538781D02*
X500624D01*
X502049D02*
X504274D01*
X505737D02*
X511327D01*
X511646D02*
X518039D01*
X518300D02*
X523961D01*
X526145D02*
X527756D01*
X499016Y538707D02*
X500624D01*
X502119D02*
X504340D01*
X505795D02*
X511265D01*
X511646D02*
X518006D01*
X518359D02*
X523903D01*
X526145D02*
X527756D01*
X499016Y538632D02*
X500624D01*
X502190D02*
X504411D01*
X505857D02*
X511202D01*
X511646D02*
X517973D01*
X518417D02*
X523845D01*
X526145D02*
X527756D01*
X499016Y538558D02*
X500624D01*
X502256D02*
X504481D01*
X505923D02*
X511140D01*
X511646D02*
X517936D01*
X518483D02*
X523778D01*
X526145D02*
X527756D01*
X499016Y538483D02*
X500624D01*
X502327D02*
X504548D01*
X505990D02*
X511070D01*
X511646D02*
X517894D01*
X518549D02*
X523712D01*
X526145D02*
X527756D01*
X499016Y538408D02*
X500624D01*
X502393D02*
X504618D01*
X506064D02*
X510995D01*
X511646D02*
X517849D01*
X518624D02*
X523642D01*
X526145D02*
X527756D01*
X499016Y538334D02*
X500624D01*
X502463D02*
X504688D01*
X506143D02*
X510916D01*
X511646D02*
X517799D01*
X518698D02*
X523563D01*
X526145D02*
X527756D01*
X499016Y538259D02*
X500624D01*
X502530D02*
X504759D01*
X506226D02*
X510834D01*
X511646D02*
X517745D01*
X518781D02*
X523484D01*
X526145D02*
X527756D01*
X499016Y538185D02*
X500624D01*
X502600D02*
X504825D01*
X506317D02*
X510742D01*
X511646D02*
X517687D01*
X518868D02*
X523397D01*
X526145D02*
X527756D01*
X499016Y538110D02*
X500624D01*
X502670D02*
X504896D01*
X506412D02*
X510647D01*
X511646D02*
X517625D01*
X518959D02*
X523302D01*
X526145D02*
X527756D01*
X499016Y538036D02*
X500624D01*
X502737D02*
X504966D01*
X506516D02*
X510543D01*
X511646D02*
X517550D01*
X519059D02*
X523202D01*
X526145D02*
X527756D01*
X499016Y537961D02*
X500624D01*
X502807D02*
X505032D01*
X506628D02*
X510436D01*
X511646D02*
X517476D01*
X519167D02*
X523095D01*
X526145D02*
X527756D01*
X499016Y537886D02*
X500624D01*
X502874D02*
X505103D01*
X506748D02*
X510311D01*
X511646D02*
X517389D01*
X519283D02*
X522979D01*
X526145D02*
X527756D01*
X499016Y537812D02*
X500624D01*
X502944D02*
X505173D01*
X506880D02*
X510179D01*
X511646D02*
X517289D01*
X519411D02*
X522854D01*
X526145D02*
X527756D01*
X499016Y537737D02*
X500624D01*
X503010D02*
X505244D01*
X507030D02*
X510030D01*
X511646D02*
X517182D01*
X519552D02*
X522709D01*
X526145D02*
X527756D01*
X499016Y537663D02*
X500624D01*
X503081D02*
X505310D01*
X507200D02*
X509860D01*
X511646D02*
X517053D01*
X519709D02*
X522552D01*
X526145D02*
X527756D01*
X499016Y537588D02*
X500624D01*
X503147D02*
X505380D01*
X507398D02*
X509661D01*
X511646D02*
X516904D01*
X519896D02*
X522370D01*
X526145D02*
X527756D01*
X499016Y537513D02*
X500624D01*
X503217D02*
X505451D01*
X507651D02*
X509408D01*
X511646D02*
X516713D01*
X520120D02*
X522146D01*
X526145D02*
X527756D01*
X499016Y537439D02*
X500624D01*
X503288D02*
X505517D01*
X508020D02*
X509039D01*
X511646D02*
X516428D01*
X520414D02*
X521852D01*
X511646Y542809D02*
X513253D01*
X511646Y542735D02*
X513253D01*
X511646Y542660D02*
X513253D01*
X503856Y542585D02*
X507589D01*
X503897Y542511D02*
X507465D01*
X503926Y542436D02*
X507361D01*
X503943Y542362D02*
X507274D01*
X503947Y542287D02*
X507191D01*
X503947Y542212D02*
X507121D01*
X503930Y542138D02*
X507055D01*
X503905Y542063D02*
X506997D01*
X503868Y541989D02*
X506943D01*
X503814Y541914D02*
X506897D01*
X503731Y541839D02*
X506851D01*
X503603Y541765D02*
X506814D01*
X501514Y541690D02*
X506781D01*
X501481Y541616D02*
X506748D01*
X501452Y541541D02*
X506723D01*
X501419Y541467D02*
X506698D01*
X501386Y541392D02*
X506677D01*
X501353Y541317D02*
X506661D01*
X501320Y541243D02*
X506644D01*
X501286Y541168D02*
X506636D01*
X501253Y541094D02*
X506628D01*
X501220Y541019D02*
X506619D01*
X531465Y543567D02*
Y540986D01*
X501154Y540870D02*
X506619D01*
X505012Y540795D02*
X506624D01*
X505016Y540721D02*
X506628D01*
X505020Y540646D02*
X506640D01*
X505028Y540572D02*
X506653D01*
X505037Y540497D02*
X506665D01*
X505045Y540422D02*
X506686D01*
X505057Y540348D02*
X506706D01*
X505070Y540273D02*
X506731D01*
X505086Y540199D02*
X506760D01*
X505103Y540124D02*
X506793D01*
X505119Y540049D02*
X506831D01*
X505140Y539975D02*
X506868D01*
X505161Y539900D02*
X506914D01*
X505186Y539826D02*
X506963D01*
X505211Y539751D02*
X507021D01*
X505235Y539676D02*
X507079D01*
X505269Y539602D02*
X507150D01*
X505298Y539527D02*
X507224D01*
X505331Y539453D02*
X507307D01*
X505368Y539378D02*
X507403D01*
X505405Y539304D02*
X507514D01*
X505443Y539229D02*
X507643D01*
X511646Y539154D02*
X513253D01*
X501187Y540944D02*
X506619D01*
X506628Y543882D02*
Y541127D01*
X506702Y543928D02*
Y541487D01*
X506777Y543973D02*
Y541686D01*
X506851Y544015D02*
Y541839D01*
X506926Y544052D02*
Y541964D01*
X507001Y544089D02*
Y542067D01*
X507075Y544127D02*
Y542163D01*
X507150Y544160D02*
Y542246D01*
X507224Y544189D02*
Y542320D01*
X507299Y544218D02*
Y542382D01*
X507374Y544247D02*
Y542444D01*
X507448Y544272D02*
Y542498D01*
X507523Y544293D02*
Y542548D01*
X507597Y544313D02*
Y542589D01*
X507672Y544334D02*
Y542631D01*
X507747Y544351D02*
Y542664D01*
X507821Y544367D02*
Y542697D01*
X507896Y544384D02*
Y542726D01*
X507970Y544396D02*
Y542747D01*
X508045Y544409D02*
Y542772D01*
X508119Y544417D02*
Y542788D01*
X508194Y544425D02*
Y542801D01*
X508269Y544429D02*
Y542813D01*
X508343Y544433D02*
Y542822D01*
X508418Y544438D02*
Y542830D01*
X508492Y544442D02*
Y542830D01*
X508567Y544438D02*
Y542830D01*
X508642Y544438D02*
Y542830D01*
X508716Y544433D02*
Y542822D01*
X508791Y544429D02*
Y542813D01*
X508865Y544425D02*
Y542801D01*
X508940Y544417D02*
Y542788D01*
X509014Y544404D02*
Y542768D01*
X509089Y544396D02*
Y542747D01*
X509164Y544384D02*
Y542722D01*
X509238Y544367D02*
Y542697D01*
X509313Y544351D02*
Y542664D01*
X509387Y544334D02*
Y542627D01*
X509462Y544313D02*
Y542589D01*
X509537Y544293D02*
Y542544D01*
X509611Y544268D02*
Y542494D01*
X509686Y544243D02*
Y542440D01*
X509760Y544218D02*
Y542382D01*
X509835Y544189D02*
Y542316D01*
X509910Y544156D02*
Y542241D01*
X509984Y544123D02*
Y542159D01*
X510059Y544089D02*
Y542067D01*
X510133Y544052D02*
Y541960D01*
X510208Y544015D02*
Y541831D01*
X510282Y543969D02*
Y541682D01*
X510357Y543928D02*
Y541479D01*
X513821Y540944D02*
X519208D01*
X516191Y542809D02*
X520870D01*
X516341Y542735D02*
X520542D01*
X516428Y542660D02*
X520347D01*
X516486Y542585D02*
X520198D01*
X516527Y542511D02*
X520074D01*
X516556Y542436D02*
X519966D01*
X516573Y542362D02*
X519875D01*
X516577Y542287D02*
X519792D01*
X516573Y542212D02*
X519722D01*
X516560Y542138D02*
X519655D01*
X516535Y542063D02*
X519593D01*
X516494Y541989D02*
X519539D01*
X516440Y541914D02*
X519494D01*
X516361Y541839D02*
X519448D01*
X516233Y541765D02*
X519411D01*
X514149Y541690D02*
X519374D01*
X514115Y541616D02*
X519345D01*
X514082Y541541D02*
X519316D01*
X514049Y541467D02*
X519291D01*
X514016Y541392D02*
X519270D01*
X513983Y541317D02*
X519249D01*
X513950Y541243D02*
X519237D01*
X513921Y541168D02*
X519225D01*
X513887Y541094D02*
X519216D01*
X513854Y541019D02*
X519208D01*
X529828D02*
X537018D01*
X519233Y543891D02*
Y541234D01*
X519307Y543936D02*
Y541525D01*
X519382Y543978D02*
Y541711D01*
X519457Y544019D02*
Y541856D01*
X519531Y544060D02*
Y541976D01*
X519606Y544094D02*
Y542080D01*
X519680Y544131D02*
Y542167D01*
X519755Y544164D02*
Y542250D01*
X519830Y544193D02*
Y542320D01*
X519904Y544222D02*
Y542386D01*
X519979Y544247D02*
Y542444D01*
X520053Y544272D02*
Y542498D01*
X520128Y544297D02*
Y542544D01*
X520202Y544317D02*
Y542589D01*
X520277Y544334D02*
Y542627D01*
X520352Y544355D02*
Y542660D01*
X520426Y544371D02*
Y542693D01*
X520501Y544384D02*
Y542718D01*
X520575Y544396D02*
Y542743D01*
X520650Y544409D02*
Y542764D01*
X520725Y544417D02*
Y542784D01*
X520799Y544425D02*
Y542797D01*
X520874Y544429D02*
Y542809D01*
X520948Y544433D02*
Y542817D01*
X521023Y544438D02*
Y542822D01*
X521097Y544438D02*
Y542826D01*
X529828Y542884D02*
X536549D01*
X521247Y544438D02*
Y542822D01*
X521321Y544433D02*
Y542813D01*
X521396Y544429D02*
Y542805D01*
X521470Y544421D02*
Y542793D01*
X521545Y544417D02*
Y542780D01*
X521620Y544404D02*
Y542759D01*
X521694Y544392D02*
Y542739D01*
X521769Y544380D02*
Y542714D01*
X521843Y544367D02*
Y542689D01*
X521918Y544351D02*
Y542656D01*
X521993Y544334D02*
Y542618D01*
X522067Y544313D02*
Y542581D01*
X522142Y544293D02*
Y542536D01*
X522216Y544268D02*
Y542486D01*
X522291Y544243D02*
Y542432D01*
X522365Y544218D02*
Y542374D01*
X522440Y544189D02*
Y542308D01*
X522515Y544156D02*
Y542233D01*
X522589Y544123D02*
Y542154D01*
X522664Y544089D02*
Y542059D01*
X522738Y544052D02*
Y541955D01*
X522813Y544011D02*
Y541831D01*
X522888Y543969D02*
Y541678D01*
X522962Y543928D02*
Y541483D01*
X513788Y540870D02*
X519208D01*
X513755Y540795D02*
X519208D01*
X513722Y540721D02*
X519216D01*
X513689Y540646D02*
X519225D01*
X513655Y540572D02*
X519233D01*
X513626Y540497D02*
X519249D01*
X513593Y540422D02*
X519266D01*
X513560Y540348D02*
X519287D01*
X513527Y540273D02*
X519312D01*
X513494Y540199D02*
X519341D01*
X513461Y540124D02*
X519370D01*
X516287Y540049D02*
X519407D01*
X516390Y539975D02*
X519444D01*
X516461Y539900D02*
X519490D01*
X516510Y539826D02*
X519535D01*
X516544Y539751D02*
X519589D01*
X516564Y539676D02*
X519647D01*
X516573Y539602D02*
X519713D01*
X516573Y539527D02*
X519784D01*
X516564Y539453D02*
X519867D01*
X516544Y539378D02*
X519958D01*
X516510Y539304D02*
X520062D01*
X516465Y539229D02*
X520182D01*
X516394Y539154D02*
X520327D01*
X516291Y539080D02*
X520513D01*
X535795Y539154D02*
X537544D01*
X510357Y540364D02*
Y537911D01*
X523037Y543882D02*
Y541143D01*
X531465Y538255D02*
Y537402D01*
X531540Y538404D02*
Y537402D01*
X531614Y538554D02*
Y537402D01*
X531689Y538703D02*
Y537402D01*
X531763Y538856D02*
Y537402D01*
X531838Y539009D02*
Y537402D01*
X531913Y539009D02*
Y537402D01*
X531987Y539009D02*
Y537402D01*
X532062Y539009D02*
Y537402D01*
X532136Y539009D02*
Y537402D01*
X532211Y539009D02*
Y537402D01*
X532285Y539009D02*
Y537402D01*
X532360Y539009D02*
Y537402D01*
X532435Y539009D02*
Y537402D01*
X532509Y539009D02*
Y537402D01*
X532584Y539009D02*
Y537402D01*
X532658Y539009D02*
Y537402D01*
X532733Y539009D02*
Y537402D01*
X532808Y539009D02*
Y537402D01*
X532882Y539009D02*
Y537402D01*
X532957Y539009D02*
Y537402D01*
X533031Y539009D02*
Y537402D01*
X533106Y539009D02*
Y537402D01*
X533180Y539009D02*
Y537402D01*
X533255Y539009D02*
Y537402D01*
X533330Y539009D02*
Y537402D01*
X533404Y539009D02*
Y537402D01*
X533479Y539009D02*
Y537402D01*
X533553Y539009D02*
Y537402D01*
X533628Y539009D02*
Y537402D01*
X533703Y539009D02*
Y537402D01*
X533777Y539009D02*
Y537402D01*
X533852Y539009D02*
Y537402D01*
X533926Y539009D02*
Y537402D01*
X534001Y539009D02*
Y537402D01*
X534076Y539009D02*
Y537402D01*
X534150Y539009D02*
Y537402D01*
X534225Y539009D02*
Y537402D01*
X534299Y539009D02*
Y537402D01*
X534374Y539009D02*
Y537402D01*
X534448Y539009D02*
Y537402D01*
X534523Y539009D02*
Y537402D01*
X534598Y539009D02*
Y537402D01*
X534672Y539009D02*
Y537402D01*
X534747Y539009D02*
Y537402D01*
X534821Y539009D02*
Y537402D01*
X534896Y539009D02*
Y537402D01*
X531390Y544442D02*
Y537402D01*
X535045Y539009D02*
Y537402D01*
X535120Y539009D02*
Y537402D01*
X535194Y539009D02*
Y537402D01*
X535269Y539009D02*
Y537402D01*
X535343Y539009D02*
Y537402D01*
X535418Y539009D02*
Y537402D01*
X535493Y539013D02*
Y537402D01*
X535567Y539026D02*
Y537406D01*
X535642Y539055D02*
Y537410D01*
X535716Y539092D02*
Y537418D01*
X535791Y539150D02*
Y537431D01*
X535866Y539233D02*
Y537447D01*
X522962Y540319D02*
Y537874D01*
X523037Y540659D02*
Y537920D01*
X529828Y540870D02*
X531436D01*
X529828Y540795D02*
X531436D01*
X529828Y540721D02*
X531436D01*
X529828Y540646D02*
X531436D01*
X529828Y540572D02*
X531436D01*
X529828Y540497D02*
X531436D01*
X529828Y540422D02*
X531436D01*
X529828Y540348D02*
X531436D01*
X529828Y540273D02*
X531436D01*
X529828Y540199D02*
X531436D01*
X529828Y540124D02*
X531436D01*
X529828Y540049D02*
X531436D01*
X531560Y540870D02*
X537142D01*
X531701Y540721D02*
X537245D01*
X531871Y540572D02*
X537332D01*
X532091Y540422D02*
X537403D01*
X532389Y540273D02*
X537461D01*
X532998Y540124D02*
X537511D01*
X535787Y539975D02*
X537544D01*
X535907Y539826D02*
X537569D01*
X535961Y539676D02*
X537581D01*
X535973Y539527D02*
X537581D01*
X535944Y539378D02*
X537573D01*
X535861Y539229D02*
X537556D01*
X531838Y539005D02*
X537511D01*
X531801Y538931D02*
X537486D01*
X531763Y538856D02*
X537465D01*
X531730Y538781D02*
X537436D01*
X531693Y538707D02*
X537407D01*
X531656Y538632D02*
X537370D01*
X531618Y538558D02*
X537332D01*
X531581Y538483D02*
X537295D01*
X531544Y538408D02*
X537250D01*
X526145Y537439D02*
X527756D01*
X505559Y542809D02*
X508223D01*
X503711Y542735D02*
X507921D01*
X503798Y542660D02*
X507734D01*
X509474Y542585D02*
X513253D01*
X509595Y542511D02*
X513253D01*
X509698Y542436D02*
X513253D01*
X509789Y542362D02*
X513253D01*
X509868Y542287D02*
X513253D01*
X509943Y542212D02*
X513253D01*
X510005Y542138D02*
X513253D01*
X510063Y542063D02*
X513253D01*
X510117Y541989D02*
X513253D01*
X510166Y541914D02*
X513253D01*
X510208Y541839D02*
X513253D01*
X510245Y541765D02*
X513253D01*
X510282Y541690D02*
X513253D01*
X510311Y541616D02*
X513253D01*
X510340Y541541D02*
X513253D01*
X510361Y541467D02*
X513253D01*
X510382Y541392D02*
X513253D01*
X510403Y541317D02*
X513253D01*
X510415Y541243D02*
X513253D01*
X510427Y541168D02*
X513253D01*
X510436Y541094D02*
X513253D01*
X510440Y541019D02*
X513253D01*
X510440Y540944D02*
X513253D01*
X510440Y540870D02*
X513253D01*
X510436Y540795D02*
X513253D01*
X510432Y540721D02*
X513253D01*
X510423Y540646D02*
X513253D01*
X510411Y540572D02*
X513253D01*
X510394Y540497D02*
X513253D01*
X510374Y540422D02*
X513253D01*
X510353Y540348D02*
X513253D01*
X510328Y540273D02*
X513253D01*
X510299Y540199D02*
X513253D01*
X510266Y540124D02*
X513253D01*
X510233Y540049D02*
X513253D01*
X510191Y539975D02*
X513253D01*
X510146Y539900D02*
X513253D01*
X510096Y539826D02*
X513253D01*
X510042Y539751D02*
X513253D01*
X509980Y539676D02*
X513253D01*
X509914Y539602D02*
X513253D01*
X509839Y539527D02*
X513253D01*
X509752Y539453D02*
X513253D01*
X509657Y539378D02*
X513253D01*
X509549Y539304D02*
X513253D01*
X509416Y539229D02*
X513253D01*
X505484Y539154D02*
X507805D01*
X510432Y543882D02*
Y541098D01*
X513340Y544442D02*
Y542834D01*
X513415Y544442D02*
Y542834D01*
X513490Y540190D02*
Y540112D01*
Y544442D02*
Y542834D01*
X513564Y540360D02*
Y540112D01*
Y544442D02*
Y542834D01*
X513639Y540530D02*
Y540112D01*
Y544442D02*
Y542834D01*
X513713Y540704D02*
Y540112D01*
Y544442D02*
Y542834D01*
X513788Y540874D02*
Y540112D01*
Y544442D02*
Y542834D01*
X513863Y541044D02*
Y540112D01*
Y544442D02*
Y542834D01*
X513937Y541214D02*
Y540112D01*
Y544442D02*
Y542834D01*
X514012Y541384D02*
Y540112D01*
Y544442D02*
Y542834D01*
X514086Y541554D02*
Y540112D01*
Y544442D02*
Y542834D01*
X514161Y541723D02*
Y540112D01*
Y544442D02*
Y542834D01*
X514236Y541723D02*
Y540112D01*
Y544442D02*
Y542834D01*
X514310Y541723D02*
Y540112D01*
Y544442D02*
Y542834D01*
X514385Y541723D02*
Y540112D01*
Y544442D02*
Y542834D01*
X514459Y541723D02*
Y540112D01*
Y544442D02*
Y542834D01*
X514534Y541723D02*
Y540112D01*
Y544442D02*
Y542834D01*
X514608Y541723D02*
Y540112D01*
Y544442D02*
Y542834D01*
X514683Y541723D02*
Y540112D01*
Y544442D02*
Y542834D01*
X514758Y541723D02*
Y540112D01*
Y544442D02*
Y542834D01*
X514832Y541723D02*
Y540112D01*
Y544442D02*
Y542834D01*
X514907Y541723D02*
Y540112D01*
Y544442D02*
Y542834D01*
X514981Y541723D02*
Y540112D01*
Y544442D02*
Y542834D01*
X499016Y542809D02*
X500624D01*
X503557D02*
X505492D01*
X508836D02*
X511501D01*
X499016Y542735D02*
X500624D01*
X509139D02*
X511546D01*
X499016Y542660D02*
X500624D01*
X509325D02*
X511592D01*
X499016Y542585D02*
X500624D01*
X499016Y542511D02*
X500624D01*
X499016Y542436D02*
X500624D01*
X499016Y542362D02*
X500624D01*
X499016Y542287D02*
X500624D01*
X499016Y542212D02*
X500624D01*
X499016Y542138D02*
X500624D01*
X499016Y542063D02*
X500624D01*
X499016Y541989D02*
X500624D01*
X499016Y541914D02*
X500624D01*
X499016Y541839D02*
X500624D01*
X499016Y541765D02*
X500624D01*
X499016Y541690D02*
X500624D01*
X499016Y541616D02*
X500624D01*
X499016Y541541D02*
X500624D01*
X499016Y541467D02*
X500624D01*
X499016Y541392D02*
X500624D01*
X499016Y541317D02*
X500624D01*
X499016Y541243D02*
X500624D01*
X499016Y541168D02*
X500624D01*
X499016Y541094D02*
X500624D01*
X499016Y541019D02*
X500624D01*
X499016Y540944D02*
X500624D01*
X523053D02*
X524669D01*
X526145D02*
X527756D01*
X521392Y542809D02*
X524110D01*
X526145D02*
X527756D01*
X521719Y542735D02*
X524160D01*
X526145D02*
X527756D01*
X521914Y542660D02*
X524201D01*
X526145D02*
X527756D01*
X522063Y542585D02*
X524243D01*
X526145D02*
X527756D01*
X522187Y542511D02*
X524284D01*
X526145D02*
X527756D01*
X522291Y542436D02*
X524321D01*
X526145D02*
X527756D01*
X522386Y542362D02*
X524354D01*
X526145D02*
X527756D01*
X522465Y542287D02*
X524388D01*
X526145D02*
X527756D01*
X522539Y542212D02*
X524417D01*
X526145D02*
X527756D01*
X522606Y542138D02*
X524446D01*
X526145D02*
X527756D01*
X522664Y542063D02*
X524475D01*
X526145D02*
X527756D01*
X522718Y541989D02*
X524499D01*
X526145D02*
X527756D01*
X522767Y541914D02*
X524520D01*
X526145D02*
X527756D01*
X522809Y541839D02*
X524541D01*
X526145D02*
X527756D01*
X522850Y541765D02*
X524562D01*
X526145D02*
X527756D01*
X522888Y541690D02*
X524578D01*
X526145D02*
X527756D01*
X522917Y541616D02*
X524595D01*
X526145D02*
X527756D01*
X522946Y541541D02*
X524611D01*
X526145D02*
X527756D01*
X522970Y541467D02*
X524624D01*
X526145D02*
X527756D01*
X522991Y541392D02*
X524636D01*
X526145D02*
X527756D01*
X523008Y541317D02*
X524644D01*
X526145D02*
X527756D01*
X523024Y541243D02*
X524653D01*
X526145D02*
X527756D01*
X523037Y541168D02*
X524657D01*
X526145D02*
X527756D01*
X523045Y541094D02*
X524665D01*
X526145D02*
X527756D01*
X523049Y541019D02*
X524665D01*
X499016Y544375D02*
X503926D01*
X507850D02*
X509209D01*
X511646D02*
X516552D01*
X520451D02*
X521810D01*
X524441D02*
X531436D01*
X499016Y544301D02*
X504162D01*
X507543D02*
X509516D01*
X511646D02*
X516788D01*
X520140D02*
X522117D01*
X524404D02*
X531436D01*
X499016Y544226D02*
X504336D01*
X507316D02*
X509744D01*
X511646D02*
X516962D01*
X519917D02*
X522345D01*
X524367D02*
X531436D01*
X499016Y544152D02*
X504477D01*
X507129D02*
X509930D01*
X511646D02*
X517103D01*
X519726D02*
X522531D01*
X524330D02*
X531436D01*
X499016Y544077D02*
X504597D01*
X506967D02*
X510092D01*
X511646D02*
X517223D01*
X519564D02*
X522693D01*
X524292D02*
X531436D01*
X499016Y544002D02*
X504701D01*
X506827D02*
X510233D01*
X511646D02*
X517327D01*
X519423D02*
X522838D01*
X524255D02*
X531436D01*
X499016Y543928D02*
X504792D01*
X506698D02*
X510361D01*
X511646D02*
X517422D01*
X519295D02*
X522966D01*
X524218D02*
X531436D01*
X499016Y543853D02*
X504875D01*
X506582D02*
X510477D01*
X511646D02*
X517505D01*
X519175D02*
X523082D01*
X524180D02*
X531436D01*
X499016Y543779D02*
X504954D01*
X506474D02*
X510585D01*
X511646D02*
X517579D01*
X519067D02*
X523194D01*
X524143D02*
X531436D01*
X499016Y543704D02*
X505020D01*
X506375D02*
X510684D01*
X511646D02*
X517650D01*
X518968D02*
X523294D01*
X524106D02*
X531436D01*
X499016Y543630D02*
X505082D01*
X506280D02*
X510780D01*
X511646D02*
X517712D01*
X518876D02*
X523385D01*
X524069D02*
X531436D01*
X499016Y543555D02*
X505140D01*
X506193D02*
X510867D01*
X511646D02*
X517770D01*
X518785D02*
X523472D01*
X524031D02*
X529770D01*
X499016Y543480D02*
X505194D01*
X506114D02*
X510945D01*
X511646D02*
X517820D01*
X518707D02*
X523555D01*
X523994D02*
X529733D01*
X499016Y543406D02*
X505240D01*
X506035D02*
X511024D01*
X511646D02*
X517870D01*
X518628D02*
X523633D01*
X523957D02*
X529696D01*
X499016Y543331D02*
X505285D01*
X505965D02*
X511095D01*
X511646D02*
X517911D01*
X518557D02*
X523704D01*
X523919D02*
X529658D01*
X499016Y543257D02*
X505322D01*
X505894D02*
X511165D01*
X511646D02*
X517952D01*
X518487D02*
X523774D01*
X523882D02*
X529621D01*
X499016Y543182D02*
X505360D01*
X505832D02*
X511227D01*
X511646D02*
X517986D01*
X518425D02*
X529584D01*
X499016Y543107D02*
X505393D01*
X505770D02*
X511289D01*
X511646D02*
X518019D01*
X518363D02*
X529546D01*
X499016Y543033D02*
X505422D01*
X505712D02*
X511347D01*
X511646D02*
X518048D01*
X518305D02*
X529509D01*
X499016Y542958D02*
X505447D01*
X505658D02*
X511401D01*
X511646D02*
X518077D01*
X518251D02*
X529472D01*
X499016Y542884D02*
X505472D01*
X505608D02*
X511451D01*
X511646D02*
X518097D01*
X518197D02*
X529435D01*
X499016Y540870D02*
X500624D01*
X499016Y540795D02*
X500624D01*
X501125D02*
X504966D01*
X499016Y540721D02*
X500624D01*
X501092D02*
X504896D01*
X499016Y540646D02*
X500624D01*
X501059D02*
X504813D01*
X499016Y540572D02*
X500624D01*
X501025D02*
X504722D01*
X499016Y540497D02*
X500624D01*
X500992D02*
X504622D01*
X499016Y540422D02*
X500624D01*
X500959D02*
X504502D01*
X499016Y540348D02*
X500624D01*
X500926D02*
X504369D01*
X499016Y540273D02*
X500624D01*
X500893D02*
X504204D01*
X499016Y540199D02*
X500624D01*
X500860D02*
X503988D01*
X499016Y540124D02*
X500624D01*
X500831D02*
X503027D01*
X503188D02*
X503586D01*
X499016Y540049D02*
X500624D01*
X500885D02*
X503093D01*
X499016Y539975D02*
X500624D01*
X500951D02*
X503164D01*
X499016Y539900D02*
X500624D01*
X501021D02*
X503234D01*
X499016Y539826D02*
X500624D01*
X501092D02*
X503304D01*
X499016Y539751D02*
X500624D01*
X508530Y539009D02*
X508530D01*
X506619Y540920D02*
G03X508530Y539009I1911J-0D01*
G01X510440Y540920D02*
X510440D01*
X508530Y539009D02*
G03X510440Y540920I-7J1917D01*
G01X508530Y542834D02*
X508530D01*
X510444Y540920D02*
G03X508530Y542834I-1914J-0D01*
G01X506619Y540920D02*
X506619D01*
X508530Y542830D02*
G03X506619Y540920I-0J-1910D01*
G01X521131Y538976D02*
X521131D01*
X519204Y540903D02*
G03X521131Y538976I1927J0D01*
G01X523053Y540903D02*
X523053D01*
X521131Y538980D02*
G03X523053Y540903I-10J1933D01*
G01X521131Y542826D02*
X521131D01*
X523053Y540903D02*
G03X521131Y542826I-1922J-0D01*
G01X519204Y540903D02*
X519204D01*
X521131Y542830D02*
G03X519204Y540903I-0J-1927D01*
G01X535422Y540112D02*
X535422D01*
X535973Y539560D02*
G03X535422Y540112I-551J0D01*
G01X535973Y539560D02*
X535973D01*
X535422Y539009D02*
G03X535973Y539560I-8J559D01*
G01X533201Y540112D02*
X533201D01*
X531433Y541026D02*
G03X533201Y540112I1768J1253D01*
G01X516021Y540116D02*
X516021D01*
X516577Y539560D02*
G03X516021Y540116I-556J0D01*
G01X516573Y539560D02*
X516573D01*
X516021Y539009D02*
G03X516573Y539560I-3J555D01*
G01X516021Y542834D02*
X516021D01*
X516577Y542278D02*
G03X516021Y542834I-556J0D01*
G01X516577Y542279D02*
X516577D01*
X516021Y541723D02*
G03X516577Y542279I-5J562D01*
G01X537581Y539560D02*
X537581D01*
X535422Y537402D02*
G03X537581Y539560I-4J2162D01*
G01X535422Y541723D02*
X535422D01*
X537585Y539560D02*
G03X535422Y541723I-2163J0D01*
G01X533201D02*
X533201D01*
X532646Y542279D02*
G03X533201Y541723I555J-0D01*
G01X532646Y542279D02*
X532646D01*
X533201Y542834D02*
G03X532646Y542279I0J-555D01*
G01X531436Y543530D02*
X531436D01*
X533201Y544442D02*
G03X531435Y543529I0J-2163D01*
G01X521131Y544442D02*
X521131D01*
X523841Y543178D02*
G03X521131Y544442I-2710J-2275D01*
G01X518126Y542776D02*
X518126D01*
X521131Y544443D02*
G03X518125Y542774I-0J-3540D01*
G01X516021Y544442D02*
X516021D01*
X518126Y542776D02*
G03X516021Y544442I-2105J-498D01*
G01X508530D02*
X508530D01*
X511647Y542554D02*
G03X508530Y544442I-3123J-1640D01*
G01X505509Y542726D02*
X505509D01*
X508530Y544439D02*
G03X505509Y542727I-0J-3519D01*
G01X503391Y544442D02*
X503391D01*
X505509Y542726D02*
G03X503390Y544442I-2119J-450D01*
G01X503391Y542834D02*
X503391D01*
X503947Y542279D02*
G03X503391Y542834I-556J-0D01*
G01X503947Y542279D02*
X503947D01*
X503391Y541723D02*
G03X503947Y542279I-1J558D01*
G01X503391Y540112D02*
X503391D01*
X502999Y540147D02*
G03X503392Y540112I393J2142D01*
G01X505012Y540841D02*
X505012D01*
X503391Y540113D02*
G03X505012Y540841I-4J2175D01*
G01X508530Y537402D02*
X508530D01*
X505012Y540841D02*
G03X508530Y537402I3518J80D01*
G01X511646Y539283D02*
X511646D01*
X508532Y537402D02*
G03X511646Y539284I-6J3528D01*
G01X518118Y539042D02*
X518118D01*
X516021Y537402D02*
G03X518118Y539043I-3J2164D01*
G01X521131Y537364D02*
X521131D01*
X518120Y539044D02*
G03X521131Y537364I3011J1859D01*
G01X524669Y540903D02*
X524669D01*
X521131Y537364D02*
G03X524669Y540903I-7J3545D01*
G01X524093Y542834D02*
X524093D01*
X524667Y540903D02*
G03X524093Y542834I-3537J-0D01*
G01X613780Y371850D02*
G03X611220Y374409I-2560J0D01*
G01X396260*
G03X393701Y371850I-0J-2559*
G01Y336024*
G03X396260Y333465I2559J-0*
G01X611220*
G03X613780Y336024I0J2559*
G01Y371850*
X554921Y374409D02*
Y333465D01*
Y364173D02*
X393701D01*
X554921Y353937D02*
X393701D01*
X529331Y353118D02*
Y333465D01*
X554921Y343701D02*
X393701D01*
X529331Y364173D02*
Y353118D01*
X496063Y364173D02*
Y333465D01*
X426969Y374409D02*
Y333465D01*
X572185Y349813D02*
X572789D01*
X572185Y349539D02*
X572789D01*
X572185Y349264D02*
X572789D01*
X572185Y348990D02*
X572789D01*
X572185Y348715D02*
X572789D01*
X588639Y364646D02*
G03X587558Y363565I-0J-1081D01*
G01X588639Y364646D02*
X597254D01*
X598335Y363565D02*
G03X597254Y364646I-1081J0D01*
G01X598335Y363565D02*
Y355015D01*
X597254Y353934D02*
G03X598335Y355015I0J1081D01*
G01X597254Y353934D02*
X588639D01*
X587558Y355015D02*
G03X588639Y353934I1081J0D01*
G01X587558Y355015D02*
Y363565D01*
X570782Y352021D02*
X572133Y350075D01*
Y348400*
X572835*
Y350075*
X574187Y352021*
X573538*
X572511Y350670*
X571430Y352021*
X570782*
X576024Y364776D02*
G03X575376Y364127I0J-649D01*
G01X576024Y364776D02*
X581105D01*
X581753Y364127D02*
G03X581105Y364776I-648J0D01*
G01X581753Y364127D02*
Y359371D01*
X581105Y358723D02*
G03X581753Y359371I-0J648D01*
G01X581105Y358723D02*
X576024D01*
X575376Y359371D02*
G03X576024Y358723I648J0D01*
G01X575376Y359371D02*
Y364127D01*
X591374Y361209D02*
G03X590941Y360776I-0J-433D01*
G01X591374Y361209D02*
X594725D01*
X595157Y360776D02*
G03X594725Y361209I-432J0D01*
G01X595157Y360776D02*
Y357750D01*
X594725Y357317D02*
G03X595157Y357750I-0J433D01*
G01X594725Y357317D02*
X591374D01*
X590941Y357750D02*
G03X591374Y357317I433J-0D01*
G01X590941Y357750D02*
Y360776D01*
X575592Y351913D02*
G03X574943Y351264I-0J-649D01*
G01X575592Y351913D02*
X577321D01*
X577970Y351264D02*
G03X577321Y351913I-649J0D01*
G01X577970Y351264D02*
Y349210D01*
X577321Y348562D02*
G03X577970Y349210I0J648D01*
G01X577321Y348562D02*
X575592D01*
X574943Y349210D02*
G03X575592Y348562I649J0D01*
G01X574943Y349210D02*
Y351264D01*
X572185Y369582D02*
X584595D01*
X570812Y368484D02*
X585968D01*
X570812Y368209D02*
X586077D01*
X570537Y367660D02*
X586185D01*
X570537Y367385D02*
X586185D01*
X570537Y367111D02*
X586185D01*
X570537Y366836D02*
X586185D01*
X570537Y366562D02*
X586185D01*
X570537Y366287D02*
X586185D01*
X570537Y366013D02*
X586185D01*
X570537Y365738D02*
X586185D01*
X570537Y365463D02*
X586185D01*
X570537Y365189D02*
X586185D01*
X570537Y364914D02*
X586185D01*
X588384Y364640D02*
X597499D01*
X581645D02*
X586185D01*
X570537D02*
X575592D01*
X588109Y364365D02*
X597859D01*
X581794D02*
X586185D01*
X570537D02*
X575260D01*
X587835Y364091D02*
X598076D01*
X581794D02*
X586185D01*
X570537D02*
X575260D01*
X587835Y363816D02*
X598323D01*
X581794D02*
X586185D01*
X570537D02*
X575260D01*
X587560Y363541D02*
X598323D01*
X581794D02*
X586185D01*
X570537D02*
X575260D01*
X587560Y363267D02*
X598323D01*
X581794D02*
X586185D01*
X570537D02*
X575260D01*
X587560Y362992D02*
X598323D01*
X581794D02*
X586185D01*
X570537D02*
X575260D01*
X587560Y362718D02*
X598323D01*
X581794D02*
X586185D01*
X570537D02*
X575260D01*
X587560Y362443D02*
X598323D01*
X581794D02*
X586185D01*
X570537D02*
X575260D01*
X587560Y362169D02*
X598323D01*
X581794D02*
X586185D01*
X570537D02*
X575260D01*
X587560Y361894D02*
X598323D01*
X581794D02*
X586185D01*
X570537D02*
X575260D01*
X587560Y361620D02*
X598323D01*
X581794D02*
X586185D01*
X570537D02*
X575260D01*
X587560Y361345D02*
X598323D01*
X581794D02*
X586185D01*
X570537D02*
X575260D01*
X595248Y361070D02*
X598323D01*
X587560D02*
X590910D01*
X581794D02*
X586185D01*
X570537D02*
X575260D01*
X595248Y360796D02*
X598323D01*
X587560D02*
X590910D01*
X581794D02*
X586185D01*
X570537D02*
X575260D01*
X595248Y360521D02*
X598323D01*
X587560D02*
X590910D01*
X581794D02*
X586185D01*
X570537D02*
X575260D01*
X595248Y360247D02*
X598323D01*
X587560D02*
X590910D01*
X581794D02*
X586185D01*
X570537D02*
X575260D01*
X595248Y359972D02*
X598323D01*
X587560D02*
X590910D01*
X581794D02*
X586185D01*
X570537D02*
X575260D01*
X595248Y359698D02*
X598323D01*
X587560D02*
X590910D01*
X581794D02*
X586185D01*
X570537D02*
X575260D01*
X595248Y359423D02*
X598323D01*
X587560D02*
X590910D01*
X581794D02*
X586185D01*
X570537D02*
X575260D01*
X595248Y359149D02*
X598323D01*
X587560D02*
X590910D01*
X581794D02*
X586185D01*
X570537D02*
X575260D01*
X595248Y358874D02*
X598323D01*
X587560D02*
X590910D01*
X581645D02*
X586185D01*
X570537D02*
X575484D01*
X595248Y358599D02*
X598323D01*
X587560D02*
X590910D01*
X570537D02*
X586185D01*
X595248Y358325D02*
X598323D01*
X587560D02*
X590910D01*
X570537D02*
X586185D01*
X595248Y358050D02*
X598323D01*
X587560D02*
X590910D01*
X570537D02*
X586185D01*
X595248Y357776D02*
X598323D01*
X587560D02*
X590910D01*
X570537D02*
X586185D01*
X595248Y357501D02*
X598323D01*
X587560D02*
X590910D01*
X570537D02*
X586185D01*
X587560Y357227D02*
X598323D01*
X570537D02*
X586185D01*
X587560Y356952D02*
X598323D01*
X570537D02*
X586185D01*
X587560Y356677D02*
X598323D01*
X570537D02*
X586185D01*
X587560Y356403D02*
X598323D01*
X570537D02*
X586185D01*
X587560Y356128D02*
X598323D01*
X570537D02*
X586185D01*
X587560Y355854D02*
X598323D01*
X570537D02*
X586185D01*
X587560Y355579D02*
X598323D01*
X570537D02*
X586185D01*
X587560Y355305D02*
X598323D01*
X570812D02*
X586185D01*
X587560Y355030D02*
X598323D01*
X570812D02*
X585968D01*
X587835Y354756D02*
X598227D01*
X570825D02*
X585968D01*
X587835Y354481D02*
X598048D01*
X571074D02*
X585693D01*
X588109Y354206D02*
X597838D01*
X571441D02*
X585419D01*
X588658Y353932D02*
X597232D01*
X572185D02*
X584672D01*
X573558Y352010D02*
X574162D01*
X570812D02*
X571416D01*
X573387Y351735D02*
X573938D01*
X571086D02*
X571582D01*
X573149Y351461D02*
X573711D01*
X571236D02*
X571819D01*
X573008Y351186D02*
X573612D01*
X571361D02*
X571965D01*
X572734Y350912D02*
X573311D01*
X571636D02*
X572240D01*
X571819Y350637D02*
X573181D01*
X572025Y350363D02*
X572911D01*
X572133Y350088D02*
X572792D01*
X579375Y351913D02*
Y349102D01*
G03X579808Y348670I433J0*
G01X581213*
G03X581645Y349102I-0J432*
G01Y351913*
X583158D02*
Y348670D01*
X584564Y351913D02*
Y348670D01*
X586618*
X590185Y351048D02*
Y351480D01*
G03X589752Y351913I-433J0*
G01X588239*
G03X587807Y351480I-0J-433*
G01Y349102*
G03X588239Y348670I432J0*
G01X589752*
G03X590185Y349102I0J432*
G01Y349535*
X571160Y369033D02*
X585645D01*
X570944Y368758D02*
X585861D01*
X572241Y369586D02*
G03X570511Y367857I-0J-1729D01*
G01X572241Y369586D02*
X584510D01*
X586239Y367857D02*
G03X584510Y369586I-1729J-0D01*
G01X586239Y367857D02*
Y355642D01*
X584510Y353912D02*
G03X586239Y355642I-0J1730D01*
G01X584510Y353912D02*
X572241D01*
X570511Y355642D02*
G03X572241Y353912I1730J-0D01*
G01X570511Y355642D02*
Y367857D01*
X570620Y367934D02*
X586242D01*
X571484Y369307D02*
X585320D01*
X591590Y348670D02*
X592455Y351697D01*
X593319*
X594184Y348670*
X593752Y349967D02*
X592022D01*
X595697Y350183D02*
Y351913D01*
X597211*
X598076Y351048D02*
G03X597211Y351913I-865J-0D01*
G01X598076Y351048D02*
Y349535D01*
X597211Y348670D02*
G03X598076Y349535I-0J865D01*
G01X597211Y348670D02*
X595697D01*
Y350183*
G54D15*
X542580Y350586D02*
Y347052D01*
X542731Y346428*
X543033Y346220*
X543336*
X542126Y349131D02*
X543185D01*
X531890Y360822D02*
Y356456D01*
Y360822D02*
X533251D01*
X533704Y360615*
X533856Y360407*
X534007Y359991*
Y359575*
X533856Y359159*
X533704Y358951*
X533251Y358743*
X531890*
X532948D02*
X534007Y356456D01*
X535368Y360822D02*
Y356456D01*
Y360822D02*
X537334D01*
X535368Y358743D02*
X536577D01*
X535368Y356456D02*
X537334D01*
X538695Y360822D02*
X539904Y356456D01*
X541114Y360822D02*
X539904Y356456D01*
X542475Y360822D02*
Y356456D01*
Y360822D02*
X544441D01*
X542475Y358743D02*
X543685D01*
X542475Y356456D02*
X544441D01*
X499681Y350586D02*
Y346220D01*
X498622Y350586D02*
X500739D01*
X502100D02*
Y346220D01*
X504217Y350586D02*
Y346220D01*
X502100Y348507D02*
X504217D01*
X505578Y350586D02*
Y346220D01*
X509207Y349547D02*
X509056Y349962D01*
X508754Y350378*
X508451Y350586*
X507846*
X507544Y350378*
X507241Y349962*
X507090Y349547*
X506939Y348923*
Y347883*
X507090Y347259*
X507241Y346844*
X507544Y346428*
X507846Y346220*
X508451*
X508754Y346428*
X509056Y346844*
X509207Y347259*
X510568Y350586D02*
Y346220D01*
X512685Y350586D02*
X510568Y347675D01*
X511324Y348715D02*
X512685Y346220D01*
X514046Y350586D02*
Y346220D01*
Y350586D02*
X516163Y346220D01*
Y350586D02*
Y346220D01*
X517524Y350586D02*
Y346220D01*
Y350586D02*
X519490D01*
X517524Y348507D02*
X518734D01*
X517524Y346220D02*
X519490D01*
X522968Y349962D02*
X522666Y350378D01*
X522212Y350586*
X521607*
X521153Y350378*
X520851Y349962*
Y349547*
X521002Y349131*
X521153Y348923*
X521456Y348715*
X522363Y348299*
X522666Y348091*
X522817Y347883*
X522968Y347467*
Y346844*
X522666Y346428*
X522212Y346220*
X521607*
X521153Y346428*
X520851Y346844*
X526446Y349962D02*
X526144Y350378D01*
X525690Y350586*
X525085*
X524631Y350378*
X524329Y349962*
Y349547*
X524480Y349131*
X524631Y348923*
X524934Y348715*
X525841Y348299*
X526144Y348091*
X526295Y347883*
X526446Y347467*
Y346844*
X526144Y346428*
X525690Y346220*
X525085*
X524631Y346428*
X524329Y346844*
X531890Y340350D02*
Y335984D01*
X533704*
X535217Y336399D02*
X535065Y336192D01*
X535217Y335984*
X535368Y336192*
X535217Y336399*
X538846Y339726D02*
X538543Y340142D01*
X538090Y340350*
X537485*
X537031Y340142*
X536729Y339726*
Y339310*
X536880Y338895*
X537031Y338687*
X537334Y338479*
X538241Y338063*
X538543Y337855*
X538695Y337647*
X538846Y337231*
Y336607*
X538543Y336192*
X538090Y335984*
X537485*
X537031Y336192*
X536729Y336607*
X540358Y336399D02*
X540207Y336192D01*
X540358Y335984*
X540509Y336192*
X540358Y336399*
X541870Y340350D02*
Y335984D01*
X543987Y340350D02*
X541870Y337439D01*
X542626Y338479D02*
X543987Y335984D01*
X401087Y349547D02*
X400936Y349962D01*
X400633Y350378*
X400633D02*
X400331Y350586D01*
X399726*
X399424Y350378*
X399121Y349962*
X398970Y349547*
X398819Y348923*
Y347883*
X398970Y347259*
X399121Y346844*
X399424Y346428*
X399726Y346220*
X400331*
X400633Y346428*
X400633D02*
X400936Y346844D01*
X401087Y347259*
X403355Y350586D02*
X403053Y350378D01*
X402751Y349962*
X402599Y349547*
X402448Y348923*
Y347883*
X402599Y347259*
X402751Y346844*
X403053Y346428*
X403355Y346220*
X403960*
X404263Y346428*
X404565Y346844*
X404716Y347259*
X404868Y347883*
Y348923*
X404716Y349547*
X404565Y349962*
X404263Y350378*
X403960Y350586*
X403355*
X406229D02*
Y346220D01*
Y350586D02*
X407438Y346220D01*
X408648Y350586D02*
X407438Y346220D01*
X408648Y350586D02*
Y346220D01*
X410009Y350586D02*
Y346220D01*
Y350586D02*
X411370D01*
X411824Y350378*
X411975Y350170*
X412126Y349755*
Y349131*
X411975Y348715*
X411824Y348507*
X411370Y348299*
X410009*
X414697Y350586D02*
X413487Y346220D01*
X414697Y350586D02*
X415906Y346220D01*
X413941Y347675D02*
X415453D01*
X417267Y350586D02*
Y346220D01*
Y350586D02*
X419384Y346220D01*
Y350586D02*
Y346220D01*
X420745Y350586D02*
X421955Y348507D01*
Y346220*
X423165Y350586D02*
X421955Y348507D01*
X398819Y360822D02*
Y356456D01*
X400633*
X403204Y360822D02*
X401994Y356456D01*
X403204Y360822D02*
X404414Y356456D01*
X402448Y357912D02*
X403960D01*
X405775Y360822D02*
X406985Y358743D01*
Y356456*
X408194Y360822D02*
X406985Y358743D01*
X409555Y360822D02*
Y356456D01*
Y360822D02*
X411521D01*
X409555Y358743D02*
X410765D01*
X409555Y356456D02*
X411521D01*
X412882Y360822D02*
Y356456D01*
Y360822D02*
X414243D01*
X414697Y360615*
X414848Y360407*
X414999Y359991*
Y359575*
X414848Y359159*
X414697Y358951*
X414243Y358743*
X412882*
X413941D02*
X414999Y356456D01*
X398819Y371059D02*
Y366692D01*
Y371059D02*
X400029Y366692D01*
X401238Y371059D02*
X400029Y366692D01*
X401238Y371059D02*
Y366692D01*
X403507Y371059D02*
X403204Y370851D01*
X402902Y370435*
X402751Y370019*
X402599Y369395*
Y368356*
X402751Y367732*
X402902Y367316*
X403204Y366900*
X403507Y366692*
X404111*
X404414Y366900*
X404716Y367316*
X404868Y367732*
X405019Y368356*
Y369395*
X404868Y370019*
X404716Y370435*
X404414Y370851*
X404111Y371059*
X403507*
X406380D02*
Y366692D01*
Y371059D02*
X407438D01*
X407892Y370851*
X408194Y370435*
X408346Y370019*
X408497Y369395*
Y368356*
X408346Y367732*
X408194Y367316*
X407892Y366900*
X407438Y366692*
X406380*
X409858Y371059D02*
Y366692D01*
Y371059D02*
X411824D01*
X409858Y368979D02*
X411067D01*
X409858Y366692D02*
X411824D01*
X413185Y371059D02*
Y366692D01*
X413185D02*
X414999D01*
X398819Y340350D02*
Y335984D01*
Y340350D02*
X399877D01*
X400331Y340142*
X400633Y339726*
X400633D02*
X400785Y339310D01*
X400936Y338687*
Y337647*
X400785Y337023*
X400633Y336607*
X400633D02*
X400331Y336192D01*
X399877Y335984*
X398819*
X403507Y340350D02*
X402297Y335984D01*
X403507Y340350D02*
X404716Y335984D01*
X402751Y337439D02*
X404263D01*
X407136Y340350D02*
Y335984D01*
X406077Y340350D02*
X408194D01*
X409555D02*
Y335984D01*
Y340350D02*
X411521D01*
X409555Y338271D02*
X410765D01*
X409555Y335984D02*
X411521D01*
X500739Y360199D02*
X500437Y360615D01*
X499983Y360822*
X499378*
X498924Y360615*
X498622Y360199*
Y359783*
X498773Y359367*
X498924Y359159*
X499227Y358951*
X500134Y358535*
X500437Y358327*
X500588Y358119*
X500739Y357704*
Y357080*
X500437Y356664*
X499983Y356456*
X499378*
X498924Y356664*
X498622Y357080*
X503159Y360822D02*
Y356456D01*
X502100Y360822D02*
X504217D01*
X506788D02*
X505578Y356456D01*
X506788Y360822D02*
X507997Y356456D01*
X506032Y357912D02*
X507544D01*
X511627Y359783D02*
X511475Y360199D01*
X511173Y360615*
X510871Y360822*
X510266*
X509963Y360615*
X509661Y360199*
X509510Y359783*
X509358Y359159*
Y358119*
X509510Y357496*
X509661Y357080*
X509963Y356664*
X510266Y356456*
X510871*
X511173Y356664*
X511475Y357080*
X511627Y357496*
Y358119*
X510871D02*
X511627D01*
X512988Y360822D02*
Y356456D01*
Y360822D02*
X514953D01*
X512988Y358743D02*
X514197D01*
X512988Y356456D02*
X514953D01*
X498622Y340350D02*
Y335984D01*
Y340350D02*
X499681D01*
X500134Y340142*
X500437Y339726*
X500588Y339310*
X500739Y338687*
Y337647*
X500588Y337023*
X500437Y336607*
X500134Y336192*
X499681Y335984*
X498622*
X502100Y340350D02*
Y335984D01*
Y340350D02*
X504066D01*
X502100Y338271D02*
X503310D01*
X502100Y335984D02*
X504066D01*
X507544Y339726D02*
X507241Y340142D01*
X506788Y340350*
X506183*
X505729Y340142*
X505427Y339726*
Y339310*
X505578Y338895*
X505729Y338687*
X506032Y338479*
X506939Y338063*
X507241Y337855*
X507393Y337647*
X507544Y337231*
Y336607*
X507241Y336192*
X506788Y335984*
X506183*
X505729Y336192*
X505427Y336607*
X508905Y340350D02*
Y335984D01*
X512534Y339310D02*
X512383Y339726D01*
X512080Y340142*
X511778Y340350*
X511173*
X510871Y340142*
X510568Y339726*
X510417Y339310*
X510266Y338687*
Y337647*
X510417Y337023*
X510568Y336607*
X510871Y336192*
X511173Y335984*
X511778*
X512080Y336192*
X512383Y336607*
X512534Y337023*
Y337647*
X511778D02*
X512534D01*
X513895Y340350D02*
Y335984D01*
Y340350D02*
X516012Y335984D01*
Y340350D02*
Y335984D01*
X517373Y340350D02*
Y335984D01*
Y340350D02*
X519339D01*
X517373Y338271D02*
X518583D01*
X517373Y335984D02*
X519339D01*
X520700Y340350D02*
Y335984D01*
Y340350D02*
X522061D01*
X522514Y340142*
X522666Y339934*
X522817Y339518*
Y339102*
X522666Y338687*
X522514Y338479*
X522061Y338271*
X520700*
X521758D02*
X522817Y335984D01*
X557480Y345485D02*
Y342126D01*
Y343725D02*
X557829Y344205D01*
X558062Y344365*
X558411*
X558644Y344205*
X558760Y343725*
Y342126*
X560156Y345485D02*
Y342766D01*
X560272Y342286*
X560505Y342126*
X560737*
X559807Y344365D02*
X560621D01*
X562133Y345485D02*
Y342766D01*
X562249Y342286*
X562482Y342126*
X562715*
X561784Y344365D02*
X562598D01*
X563762D02*
Y341006D01*
Y343885D02*
X563994Y344205D01*
X564227Y344365*
X564576*
X564809Y344205*
X565041Y343885*
X565157Y343406*
Y343086*
X565041Y342606*
X564809Y342286*
X564576Y342126*
X564227*
X563994Y342286*
X563762Y342606*
X566321Y344365D02*
X566204Y344205D01*
X566321Y344045*
X566437Y344205*
X566321Y344365*
Y342446D02*
X566204Y342286D01*
X566321Y342126*
X566437Y342286*
X566321Y342446*
X569578Y346125D02*
X567484Y341006D01*
X572718Y346125D02*
X570625Y341006D01*
X573765Y344365D02*
X574230Y342126D01*
X574696Y344365D02*
X574230Y342126D01*
X574696Y344365D02*
X575161Y342126D01*
X575626Y344365D02*
X575161Y342126D01*
X576673Y344365D02*
X577139Y342126D01*
X577604Y344365D02*
X577139Y342126D01*
X577604Y344365D02*
X578069Y342126D01*
X578534Y344365D02*
X578069Y342126D01*
X579581Y344365D02*
X580047Y342126D01*
X580512Y344365D02*
X580047Y342126D01*
X580512Y344365D02*
X580977Y342126D01*
X581442Y344365D02*
X580977Y342126D01*
X582606Y342446D02*
X582489Y342286D01*
X582606Y342126*
X582722Y342286*
X582606Y342446*
X583885Y344365D02*
X584583Y342126D01*
X585281Y344365D02*
X584583Y342126D01*
X584350Y341486*
X584118Y341166*
X583885Y341006*
X583769*
X586909Y344365D02*
X586677Y344205D01*
X586444Y343885*
X586328Y343406*
Y343086*
X586444Y342606*
X586677Y342286*
X586909Y342126*
X587258*
X587491Y342286*
X587724Y342606*
X587840Y343086*
Y343406*
X587724Y343885*
X587491Y344205*
X587258Y344365*
X586909*
X588887D02*
Y342766D01*
X589003Y342286*
X589236Y342126*
X589585*
X589817Y342286*
X590166Y342766*
Y344365D02*
Y342126D01*
X591213Y345485D02*
X591330Y345325D01*
X591446Y345485*
X591330Y345645*
X591213Y345485*
X591330Y344365D02*
Y342126D01*
X592493Y345485D02*
Y342126D01*
X594936Y343885D02*
X594703Y344205D01*
X594470Y344365*
X594121*
X593889Y344205*
X593656Y343885*
X593540Y343406*
Y343086*
X593656Y342606*
X593889Y342286*
X594121Y342126*
X594470*
X594703Y342286*
X594936Y342606*
X597378Y344365D02*
Y342126D01*
Y343885D02*
X597146Y344205D01*
X596913Y344365*
X596564*
X596331Y344205*
X596099Y343885*
X595982Y343406*
Y343086*
X596099Y342606*
X596331Y342286*
X596564Y342126*
X596913*
X597146Y342286*
X597378Y342606*
X599821Y345485D02*
Y342126D01*
Y343885D02*
X599588Y344205D01*
X599356Y344365*
X599007*
X598774Y344205*
X598542Y343885*
X598425Y343406*
Y343086*
X598542Y342606*
X598774Y342286*
X599007Y342126*
X599356*
X599588Y342286*
X599821Y342606*
X600984Y342446D02*
X600868Y342286D01*
X600984Y342126*
X601101Y342286*
X600984Y342446*
X603543Y343885D02*
X603311Y344205D01*
X603078Y344365*
X602729*
X602496Y344205*
X602264Y343885*
X602147Y343406*
Y343086*
X602264Y342606*
X602496Y342286*
X602729Y342126*
X603078*
X603311Y342286*
X603543Y342606*
X605172Y344365D02*
X604939Y344205D01*
X604707Y343885*
X604590Y343406*
Y343086*
X604707Y342606*
X604939Y342286*
X605172Y342126*
X605521*
X605753Y342286*
X605986Y342606*
X606102Y343086*
Y343406*
X605986Y343885*
X605753Y344205*
X605521Y344365*
X605172*
X607266Y342446D02*
X607149Y342286D01*
X607266Y342126*
X607382Y342286*
X607266Y342446*
X608429Y345485D02*
Y342126D01*
X609592Y344365D02*
X608429Y342766D01*
X608894Y343406D02*
X609708Y342126D01*
X610755Y344365D02*
Y342126D01*
Y343406D02*
X610872Y343885D01*
X611104Y344205*
X611337Y344365*
X611686*
X558295Y338461D02*
Y335102D01*
X557480Y338461D02*
X559109D01*
X560156Y336382D02*
X561552D01*
Y336702*
X561435Y337022*
X561319Y337182*
X561086Y337342*
X560737*
X560505Y337182*
X560272Y336862*
X560156Y336382*
Y336062*
X560272Y335582*
X560505Y335262*
X560737Y335102*
X561086*
X561319Y335262*
X561552Y335582*
X562598Y338461D02*
Y335102D01*
X563762Y335422D02*
X563645Y335262D01*
X563762Y335102*
X563878Y335262*
X563762Y335422*
X565623Y338461D02*
X565274Y338301D01*
X565041Y337821*
X564925Y337022*
Y336542*
X565041Y335742*
X565274Y335262*
X565623Y335102*
X565855*
X566204Y335262*
X566437Y335742*
X566553Y336542*
Y337022*
X566437Y337821*
X566204Y338301*
X565855Y338461*
X565623*
X567833D02*
X569112D01*
X568414Y337182*
X568763*
X568996Y337022*
X569112Y336862*
X569229Y336382*
Y336062*
X569112Y335582*
X568880Y335262*
X568531Y335102*
X568182*
X567833Y335262*
X567717Y335422*
X567600Y335742*
X570276Y337821D02*
X570508Y337981D01*
X570857Y338461*
Y335102*
X571904Y336542D02*
X573998D01*
X575277Y338461D02*
X576557D01*
X575859Y337182*
X576208*
X576441Y337022*
X576557Y336862*
X576673Y336382*
Y336062*
X576557Y335582*
X576324Y335262*
X575975Y335102*
X575626*
X575277Y335262*
X575161Y335422*
X575045Y335742*
X579232Y337342D02*
X579116Y336862D01*
X578883Y336542*
X578534Y336382*
X578418*
X578069Y336542*
X577836Y336862*
X577720Y337342*
Y337501*
X577836Y337981*
X578069Y338301*
X578418Y338461*
X578534*
X578883Y338301*
X579116Y337981*
X579232Y337342*
Y336542*
X579116Y335742*
X578883Y335262*
X578534Y335102*
X578302*
X577953Y335262*
X577836Y335582*
X581791Y337342D02*
X581675Y336862D01*
X581442Y336542*
X581093Y336382*
X580977*
X580628Y336542*
X580395Y336862*
X580279Y337342*
Y337501*
X580395Y337981*
X580628Y338301*
X580977Y338461*
X581093*
X581442Y338301*
X581675Y337981*
X581791Y337342*
Y336542*
X581675Y335742*
X581442Y335262*
X581093Y335102*
X580861*
X580512Y335262*
X580395Y335582*
X582838Y336542D02*
X584932D01*
X586095Y337661D02*
Y337821D01*
X586212Y338141*
X586328Y338301*
X586560Y338461*
X587026*
X587258Y338301*
X587375Y338141*
X587491Y337821*
Y337501*
X587375Y337182*
X587142Y336702*
X585979Y335102*
X587607*
X589236Y338461D02*
X588887Y338301D01*
X588771Y337981*
Y337661*
X588887Y337342*
X589120Y337182*
X589585Y337022*
X589934Y336862*
X590166Y336542*
X590283Y336222*
Y335742*
X590166Y335422*
X590050Y335262*
X589701Y335102*
X589236*
X588887Y335262*
X588771Y335422*
X588654Y335742*
Y336222*
X588771Y336542*
X589003Y336862*
X589352Y337022*
X589817Y337182*
X590050Y337342*
X590166Y337661*
Y337981*
X590050Y338301*
X589701Y338461*
X589236*
X591911D02*
X591562Y338301D01*
X591446Y337981*
Y337661*
X591562Y337342*
X591795Y337182*
X592260Y337022*
X592609Y336862*
X592842Y336542*
X592958Y336222*
Y335742*
X592842Y335422*
X592725Y335262*
X592377Y335102*
X591911*
X591562Y335262*
X591446Y335422*
X591330Y335742*
Y336222*
X591446Y336542*
X591679Y336862*
X592028Y337022*
X592493Y337182*
X592725Y337342*
X592842Y337661*
Y337981*
X592725Y338301*
X592377Y338461*
X591911*
X594121Y337661D02*
Y337821D01*
X594238Y338141*
X594354Y338301*
X594587Y338461*
X595052*
X595285Y338301*
X595401Y338141*
X595517Y337821*
Y337501*
X595401Y337182*
X595168Y336702*
X594005Y335102*
X595633*
X429528Y350586D02*
Y346220D01*
Y350586D02*
X430889D01*
X431342Y350378*
X431493Y350170*
X431645Y349755*
Y349339*
X431493Y348923*
X431342Y348715*
X430889Y348507*
X429528*
X430586D02*
X431645Y346220D01*
X433762Y349131D02*
X433459Y348923D01*
X433157Y348507*
X433006Y347883*
Y347467*
X433157Y346844*
X433459Y346428*
X433762Y346220*
X434215*
X434518Y346428*
X434820Y346844*
X434971Y347467*
Y347883*
X434820Y348507*
X434518Y348923*
X434215Y349131*
X433762*
X436332Y350586D02*
Y346220D01*
Y348507D02*
X436635Y348923D01*
X436937Y349131*
X437391*
X437693Y348923*
X437996Y348507*
X438147Y347883*
Y347467*
X437996Y346844*
X437693Y346428*
X437391Y346220*
X436937*
X436635Y346428*
X436332Y346844*
X440264Y349131D02*
X439962Y348923D01*
X439659Y348507*
X439508Y347883*
Y347467*
X439659Y346844*
X439962Y346428*
X440264Y346220*
X440718*
X441020Y346428*
X441322Y346844*
X441474Y347467*
Y347883*
X441322Y348507*
X441020Y348923*
X440718Y349131*
X440264*
X443288Y350586D02*
Y347052D01*
X443440Y346428*
X443742Y346220*
X444044*
X442835Y349131D02*
X443893D01*
X445405Y350586D02*
X445557Y350378D01*
X445708Y350586*
X445557Y350794*
X445405Y350586*
X445557Y349131D02*
Y346220D01*
X448732Y348507D02*
X448581Y348923D01*
X448127Y349131*
X447674*
X447220Y348923*
X447069Y348507*
X447220Y348091*
X447522Y347883*
X448278Y347675*
X448581Y347467*
X448732Y347052*
Y346844*
X448581Y346428*
X448127Y346220*
X447674*
X447220Y346428*
X447069Y346844*
X429679Y339310D02*
Y339518D01*
X429830Y339934*
X429981Y340142*
X430284Y340350*
X430889*
X431191Y340142*
X431342Y339934*
X431493Y339518*
Y339102*
X431342Y338687*
X431040Y338063*
X429528Y335984*
X431645*
X433913Y340350D02*
X433459Y340142D01*
X433157Y339518*
X433006Y338479*
Y337855*
X433157Y336815*
X433459Y336192*
X433913Y335984*
X434215*
X434669Y336192*
X434971Y336815*
X435123Y337855*
Y338479*
X434971Y339518*
X434669Y340142*
X434215Y340350*
X433913*
X436484Y339518D02*
X436786Y339726D01*
X437240Y340350*
Y335984*
X440566Y338895D02*
X440415Y338271D01*
X440113Y337855*
X439659Y337647*
X439508*
X439054Y337855*
X438752Y338271*
X438601Y338895*
Y339102*
X438752Y339726*
X439054Y340142*
X439508Y340350*
X439659*
X440113Y340142*
X440415Y339726*
X440566Y338895*
Y337855*
X440415Y336815*
X440113Y336192*
X439659Y335984*
X439357*
X438903Y336192*
X438752Y336607*
X442079Y336399D02*
X441927Y336192D01*
X442079Y335984*
X442230Y336192*
X442079Y336399*
X443591Y339518D02*
X443893Y339726D01*
X444347Y340350*
Y335984*
X446615Y340350D02*
X446161Y340142D01*
X445859Y339518*
X445708Y338479*
Y337855*
X445859Y336815*
X446161Y336192*
X446615Y335984*
X446918*
X446918D02*
X447371Y336192D01*
X447674Y336815*
X447825Y337855*
Y338479*
X447674Y339518*
X447371Y340142*
X446918Y340350*
X446918D02*
X446615D01*
X449337Y336399D02*
X449186Y336192D01*
X449337Y335984*
X449488Y336192*
X449337Y336399*
X450849Y339518D02*
X451152Y339726D01*
X451605Y340350*
Y335984*
X452966Y339518D02*
X453269Y339726D01*
X453722Y340350*
Y335984*
X431796Y370019D02*
X431645Y370435D01*
X431342Y370851*
X431040Y371059*
X430435*
X430132Y370851*
X429830Y370435*
X429679Y370019*
X429528Y369395*
Y368356*
X429679Y367732*
X429830Y367316*
X430132Y366900*
X430435Y366692*
X431040*
X431342Y366900*
X431645Y367316*
X431796Y367732*
X434064Y371059D02*
X433762Y370851D01*
X433459Y370435*
X433308Y370019*
X433157Y369395*
Y368356*
X433308Y367732*
X433459Y367316*
X433762Y366900*
X434064Y366692*
X434669*
X434971Y366900*
X435274Y367316*
X435425Y367732*
X435576Y368356*
Y369395*
X435425Y370019*
X435274Y370435*
X434971Y370851*
X434669Y371059*
X434064*
X436937D02*
Y366692D01*
Y371059D02*
X438147Y366692D01*
X439357Y371059D02*
X438147Y366692D01*
X439357Y371059D02*
Y366692D01*
X440718Y371059D02*
Y366692D01*
Y371059D02*
X441927Y366692D01*
X443137Y371059D02*
X441927Y366692D01*
X443137Y371059D02*
Y366692D01*
X444498Y371059D02*
X446615Y366692D01*
Y371059D02*
X444498Y366692D01*
X447976Y371059D02*
Y366692D01*
Y371059D02*
X449942D01*
X447976Y368979D02*
X449186D01*
X447976Y366692D02*
X449942D01*
X451303Y371059D02*
Y366692D01*
X453117*
X459015Y371890D02*
X458712Y371475D01*
X458410Y370851*
X458108Y370019*
X457956Y368979*
Y368148*
X458108Y367108*
X458410Y366276*
X458712Y365653*
X459015Y365237*
X461888Y371059D02*
X460376Y368148D01*
X462644*
X461888Y371059D02*
Y366692D01*
X467483Y371059D02*
Y366692D01*
X469298*
X472473Y369603D02*
Y366692D01*
Y368979D02*
X472171Y369395D01*
X471868Y369603*
X471415*
X471112Y369395*
X470810Y368979*
X470659Y368356*
Y367940*
X470810Y367316*
X471112Y366900*
X471415Y366692*
X471868*
X472171Y366900*
X472473Y367316*
X473985Y369603D02*
X474893Y366692D01*
X475800Y369603D02*
X474893Y366692D01*
X474590Y365861*
X474288Y365445*
X473985Y365237*
X473834*
X477161Y368356D02*
X478975D01*
Y368772*
X478824Y369187*
X478673Y369395*
X478371Y369603*
X477917*
X477615Y369395*
X477312Y368979*
X477161Y368356*
Y367940*
X477312Y367316*
X477615Y366900*
X477917Y366692*
X478371*
X478673Y366900*
X478975Y367316*
X480336Y369603D02*
Y366692D01*
Y368356D02*
X480488Y368979D01*
X480790Y369395*
X481093Y369603*
X481546*
X482907Y371890D02*
X483210Y371475D01*
X483512Y370851*
X483814Y370019*
X483966Y368979*
Y368148*
X483814Y367108*
X483512Y366276*
X483210Y365653*
X482907Y365237*
X430586Y360822D02*
Y356456D01*
X429528Y360822D02*
X431645D01*
X433762Y359367D02*
X433459Y359159D01*
X433157Y358743*
X433006Y358119*
Y357704*
X433157Y357080*
X433459Y356664*
X433762Y356456*
X434215*
X434518Y356664*
X434820Y357080*
X434971Y357704*
Y358119*
X434820Y358743*
X434518Y359159*
X434215Y359367*
X433762*
X436332D02*
Y355001D01*
Y358743D02*
X436635Y359159D01*
X436937Y359367*
X437391*
X437693Y359159*
X437996Y358743*
X438147Y358119*
Y357704*
X437996Y357080*
X437693Y356664*
X437391Y356456*
X436937*
X436635Y356664*
X436332Y357080*
X445103Y360199D02*
X444800Y360615D01*
X444347Y360822*
X443742*
X443288Y360615*
X442986Y360199*
Y359783*
X443137Y359367*
X443288Y359159*
X443591Y358951*
X444498Y358535*
X444800Y358327*
X444952Y358119*
X445103Y357704*
Y357080*
X444800Y356664*
X444347Y356456*
X443742*
X443288Y356664*
X442986Y357080*
X446464Y360822D02*
X446615Y360615D01*
X446766Y360822*
X446615Y361030*
X446464Y360822*
X446615Y359367D02*
Y356456D01*
X448127Y360822D02*
Y356456D01*
X449488Y360822D02*
Y356456D01*
X451000Y359367D02*
X449488Y357288D01*
X450093Y358119D02*
X451152Y356456D01*
G54D66*
X499150Y526236D02*
Y526421D01*
X499284Y526790*
X499418Y526975*
X499687Y527159*
X500224*
X500492Y526975*
X500626Y526790*
X500761Y526421*
Y526052*
X500626Y525683*
X500358Y525129*
X499016Y523284*
X500895*
X502908Y527159D02*
X502505Y526975D01*
X502237Y526421*
X502103Y525498*
Y524945*
X502237Y524022*
X502505Y523468*
X502908Y523284*
X503176*
X503579Y523468*
X503848Y524022*
X503982Y524945*
Y525498*
X503848Y526421*
X503579Y526975*
X503176Y527159*
X502908*
X505190Y526421D02*
X505458Y526606D01*
X505861Y527159*
Y523284*
X508814Y525867D02*
X508679Y525314D01*
X508411Y524945*
X508008Y524760*
X507874*
X507471Y524945*
X507203Y525314*
X507069Y525867*
Y526052*
X507203Y526606*
X507471Y526975*
X507874Y527159*
X508008*
X508411Y526975*
X508679Y526606*
X508814Y525867*
Y524945*
X508679Y524022*
X508411Y523468*
X508008Y523284*
X507740*
X507337Y523468*
X507203Y523837*
X510021Y524945D02*
X512437D01*
X513645Y526421D02*
X513914Y526606D01*
X514316Y527159*
Y523284*
X516330Y527159D02*
X515927Y526975D01*
X515659Y526421*
X515524Y525498*
Y524945*
X515659Y524022*
X515927Y523468*
X516330Y523284*
X516598*
X517001Y523468*
X517269Y524022*
X517403Y524945*
Y525498*
X517269Y526421*
X517001Y526975*
X516598Y527159*
X516330*
X518611Y524945D02*
X521027D01*
X522235Y526421D02*
X522504Y526606D01*
X522906Y527159*
Y523284*
X524114Y526421D02*
X524383Y526606D01*
X524785Y527159*
Y523284*
X499016Y534049D02*
Y530173D01*
Y534049D02*
X500224D01*
X500626Y533864*
X500761Y533680*
X500895Y533311*
Y532757*
X500761Y532388*
X500626Y532203*
X500224Y532019*
X499016*
X502103Y534049D02*
Y530173D01*
Y534049D02*
X503311D01*
X503713Y533864*
X503848Y533680*
X503982Y533311*
Y532942*
X503848Y532573*
X503713Y532388*
X503311Y532203*
X502103*
X503042D02*
X503982Y530173D01*
X505458Y534049D02*
X506935D01*
X506935D02*
X506129Y532573D01*
X506532*
X506800Y532388*
X506935Y532203*
X506935D02*
X507069Y531650D01*
Y531281*
X506935Y530727*
X506935D02*
X506666Y530358D01*
X506263Y530173*
X505861*
X505458Y530358*
X505324Y530543*
X505190Y530912*
X508411Y533126D02*
Y533311D01*
X508545Y533680*
X508679Y533864*
X508948Y534049*
X509485*
X509753Y533864*
X509887Y533680*
X510021Y533311*
Y532942*
X509887Y532573*
X509619Y532019*
X508277Y530173*
X510156*
X511364Y531834D02*
X513780D01*
X517001Y533126D02*
X516866Y533495D01*
X516866D02*
X516598Y533864D01*
X516330Y534049*
X515793*
X515524Y533864*
X515256Y533495*
X515122Y533126*
X514987Y532573*
Y531650*
X515122Y531096*
X515256Y530727*
X515524Y530358*
X515793Y530173*
X516330*
X516598Y530358*
X516866Y530727*
X516866D02*
X517001Y531096D01*
X519014Y534049D02*
X518611Y533864D01*
X518343Y533311*
X518209Y532388*
Y531834*
X518343Y530912*
X518611Y530358*
X519014Y530173*
X519282*
X519685Y530358*
X519953Y530912*
X520088Y531834*
Y532388*
X519953Y533311*
X519685Y533864*
X519282Y534049*
X519014*
X521296Y533311D02*
X521564Y533495D01*
X521967Y534049*
Y530173*
X523175Y531834D02*
X525591D01*
X526798Y534049D02*
Y530173D01*
Y534049D02*
X528006D01*
X528409Y533864*
X528543Y533680*
X528678Y533311*
Y532942*
X528543Y532573*
X528409Y532388*
X528006Y532203*
X526798*
X527738D02*
X528678Y530173D01*
X529885Y534049D02*
Y530173D01*
Y534049D02*
X531630D01*
X529885Y532203D02*
X530959D01*
X529885Y530173D02*
X531630D01*
X532838Y534049D02*
X533912Y530173D01*
X534986Y534049D02*
X533912Y530173D01*
X536194Y534049D02*
Y530173D01*
Y534049D02*
X537938D01*
X536194Y532203D02*
X537267D01*
X536194Y530173D02*
X537938D01*
G54D123*
X450197Y498425D02*
Y487795D01*
X445472*
Y498425*
X450197*
Y493110D02*
X449409D01*
X448622Y493898*
X447047Y492323*
X446260Y493110*
X445472*
X462205Y445472D02*
Y456102D01*
X466929*
Y445472*
X462205*
Y450787D02*
X462992D01*
X463780Y450000*
X465354Y451575*
X466142Y450787*
X466929*
Y490551D02*
Y479921D01*
X462205*
Y490551*
X466929*
Y485236D02*
X466142D01*
X465354Y486024*
X463780Y484449*
X462992Y485236*
X462205*
G74*
X0Y0D02*
M02*
