%
M48
M72
T01C0.0120
T02C0.0200
T03C0.0315
T04C0.0400
T05C0.0551
T06C0.1300
%
T01
X9990Y6818
X12270Y6012
X13290Y6818
X13058Y7980
X15026Y8689
X15814Y8689
X16490Y9468
X17890Y9718
X16440Y10468
X15105Y10264
X15066Y9594
X14690Y11327
X16590Y12318
X14239Y13098
X14239Y14280
X13790Y15268
X14042Y15854
X15406Y17235
X16306Y18335
X17861Y18610
X18990Y18618
X21325Y18157
X22388Y17518
X22178Y16839
X22388Y16583
X21339Y16169
X19140Y17018
X17900Y15729
X18785Y15176
X18451Y14184
X19908Y13492
X21140Y12368
X21190Y11268
X22100Y10736
X22073Y10382
X22323Y11051
X23440Y11318
X23440Y12368
X23294Y14280
X23440Y14618
X22467Y14280
X22310Y14634
X21916Y14634
X21698Y14258
X19533Y11318
X19140Y11318
X20328Y10526
X16053Y14964
X11590Y16918
X9948Y15539
X10262Y14476
X10490Y11468
X11390Y10618
X11877Y10421
X13825Y18709
X14324Y18689
X13747Y19791
X15420Y19752
X16306Y19831
X11916Y20972
X10066Y20933
X10890Y19318
T02
X20190Y18906
X20690Y18906
X20690Y18406
X20190Y18406
X20190Y17906
X20690Y17906
X20690Y17406
X20190Y17406
X20190Y16906
X20690Y16906
T03
X10696Y20185
X10696Y6799
T04
X16940Y7118
X17940Y7118
X18940Y7118
X19940Y7118
X20940Y7118
X20940Y6118
X19940Y6118
X18940Y6118
X17940Y6118
X16940Y6118
T05
X8530Y11492
X8530Y15492
T06
X9053Y6732
X22574Y6732
X22574Y20253
X9053Y20253
M30
