G75*
%MOIN*%
%OFA0B0*%
%FSLAX25Y25*%
%IPPOS*%
%LPD*%
%AMOC8*
5,1,8,0,0,1.08239X$1,22.5*
%
%ADD10R,0.11811X0.03937*%
%ADD11R,0.07087X0.03937*%
%ADD12R,0.02362X0.02362*%
%ADD13R,0.01181X0.05512*%
%ADD14R,0.04921X0.09055*%
%ADD15R,0.05512X0.06299*%
%ADD16R,0.00984X0.01083*%
%ADD17R,0.01083X0.00984*%
%ADD18R,0.03937X0.04331*%
%ADD19R,0.04331X0.03937*%
%ADD20R,0.02480X0.03268*%
%ADD21R,0.02165X0.04724*%
%ADD22C,0.01181*%
%ADD23R,0.07874X0.04724*%
%ADD24R,0.05315X0.02362*%
%ADD25R,0.01575X0.02362*%
%ADD26R,0.02362X0.01575*%
%ADD27R,0.02055X0.02854*%
%ADD28R,0.00787X0.01969*%
%ADD29C,0.00197*%
%ADD30R,0.01969X0.00787*%
%ADD31R,0.06000X0.03000*%
D10*
X0104987Y0109921D03*
X0104987Y0119921D03*
X0104987Y0129921D03*
X0104987Y0139921D03*
X0104987Y0149921D03*
X0104987Y0159921D03*
D11*
X0177822Y0128031D03*
X0177822Y0118189D03*
D12*
X0183759Y0116406D03*
X0187589Y0116406D03*
X0187589Y0112469D03*
X0183759Y0112469D03*
X0191601Y0117205D03*
X0169948Y0117205D03*
X0169948Y0121142D03*
X0169948Y0125079D03*
X0169948Y0129016D03*
X0162073Y0113268D03*
X0162073Y0109331D03*
X0154199Y0109331D03*
X0154199Y0113268D03*
X0167979Y0101457D03*
X0167979Y0097520D03*
X0112861Y0075866D03*
X0108924Y0075866D03*
X0191601Y0152638D03*
X0185696Y0166417D03*
X0181759Y0166417D03*
X0191601Y0174291D03*
X0191601Y0178228D03*
X0185696Y0186102D03*
X0181759Y0186102D03*
X0154199Y0180197D03*
X0154199Y0176260D03*
X0147113Y0176260D03*
X0147113Y0180197D03*
X0116798Y0193976D03*
X0112861Y0193976D03*
D13*
X0135499Y0192402D03*
X0137467Y0192402D03*
X0139436Y0192402D03*
X0141404Y0192402D03*
X0143373Y0192402D03*
X0145341Y0192402D03*
X0147310Y0192402D03*
X0149278Y0192402D03*
X0151247Y0192402D03*
X0153215Y0192402D03*
X0155184Y0192402D03*
X0157152Y0192402D03*
X0159121Y0192402D03*
X0161089Y0192402D03*
X0163058Y0192402D03*
X0165026Y0192402D03*
X0166995Y0192402D03*
X0168963Y0192402D03*
X0170932Y0192402D03*
X0172900Y0192402D03*
X0174869Y0192402D03*
X0176837Y0192402D03*
X0178806Y0192402D03*
X0180774Y0192402D03*
D14*
X0185007Y0197323D03*
X0131266Y0197323D03*
D15*
X0126050Y0195945D03*
X0190223Y0195945D03*
D16*
X0159121Y0102441D03*
X0157152Y0102441D03*
X0157152Y0096535D03*
X0159121Y0096535D03*
D17*
X0161089Y0096535D03*
X0161089Y0098504D03*
X0161089Y0100472D03*
X0161089Y0102441D03*
X0155184Y0102441D03*
X0155184Y0100472D03*
X0155184Y0098504D03*
X0155184Y0096535D03*
D18*
X0154199Y0087087D03*
X0146325Y0087087D03*
X0146325Y0080394D03*
X0154199Y0080394D03*
X0162073Y0080394D03*
X0162073Y0087087D03*
X0173885Y0096142D03*
X0173885Y0102835D03*
X0138451Y0087087D03*
X0138451Y0080394D03*
X0136483Y0174882D03*
X0142388Y0174882D03*
X0142388Y0181575D03*
X0136483Y0181575D03*
D19*
X0126050Y0164449D03*
X0119357Y0164449D03*
X0119357Y0158543D03*
X0126050Y0158543D03*
X0126050Y0152638D03*
X0126050Y0146732D03*
X0119357Y0146732D03*
X0119357Y0152638D03*
X0119357Y0140827D03*
X0126050Y0140827D03*
X0126050Y0134921D03*
X0119357Y0134921D03*
X0139042Y0103425D03*
X0145735Y0103425D03*
X0145735Y0095551D03*
X0139042Y0095551D03*
X0170538Y0109331D03*
X0177231Y0109331D03*
D20*
X0127231Y0121142D03*
X0127231Y0129016D03*
X0118176Y0129016D03*
X0118176Y0121142D03*
D21*
X0179987Y0171141D03*
X0183727Y0171141D03*
X0187467Y0171141D03*
X0187467Y0181378D03*
X0179987Y0181378D03*
D22*
X0163451Y0076760D02*
X0160695Y0076760D01*
X0163451Y0076760D02*
X0163451Y0074004D01*
X0160695Y0074004D01*
X0160695Y0076760D01*
X0160695Y0075126D02*
X0163451Y0075126D01*
X0163451Y0076248D02*
X0160695Y0076248D01*
X0155577Y0076760D02*
X0152821Y0076760D01*
X0155577Y0076760D02*
X0155577Y0074004D01*
X0152821Y0074004D01*
X0152821Y0076760D01*
X0152821Y0075126D02*
X0155577Y0075126D01*
X0155577Y0076248D02*
X0152821Y0076248D01*
X0147703Y0076760D02*
X0144947Y0076760D01*
X0147703Y0076760D02*
X0147703Y0074004D01*
X0144947Y0074004D01*
X0144947Y0076760D01*
X0144947Y0075126D02*
X0147703Y0075126D01*
X0147703Y0076248D02*
X0144947Y0076248D01*
X0139829Y0076760D02*
X0137073Y0076760D01*
X0139829Y0076760D02*
X0139829Y0074004D01*
X0137073Y0074004D01*
X0137073Y0076760D01*
X0137073Y0075126D02*
X0139829Y0075126D01*
X0139829Y0076248D02*
X0137073Y0076248D01*
X0137073Y0069854D02*
X0139829Y0069854D01*
X0139829Y0067098D01*
X0137073Y0067098D01*
X0137073Y0069854D01*
X0137073Y0068220D02*
X0139829Y0068220D01*
X0139829Y0069342D02*
X0137073Y0069342D01*
X0144947Y0069854D02*
X0147703Y0069854D01*
X0147703Y0067098D01*
X0144947Y0067098D01*
X0144947Y0069854D01*
X0144947Y0068220D02*
X0147703Y0068220D01*
X0147703Y0069342D02*
X0144947Y0069342D01*
X0152821Y0069854D02*
X0155577Y0069854D01*
X0155577Y0067098D01*
X0152821Y0067098D01*
X0152821Y0069854D01*
X0152821Y0068220D02*
X0155577Y0068220D01*
X0155577Y0069342D02*
X0152821Y0069342D01*
X0160695Y0069854D02*
X0163451Y0069854D01*
X0163451Y0067098D01*
X0160695Y0067098D01*
X0160695Y0069854D01*
X0160695Y0068220D02*
X0163451Y0068220D01*
X0163451Y0069342D02*
X0160695Y0069342D01*
D23*
X0231660Y0159331D03*
X0231660Y0181378D03*
D24*
X0217192Y0176260D03*
X0217192Y0172323D03*
X0217192Y0168386D03*
X0217192Y0164449D03*
D25*
X0219160Y0152638D03*
X0217192Y0149488D03*
X0215223Y0152638D03*
X0213255Y0149488D03*
X0211286Y0152638D03*
X0209318Y0149488D03*
X0207349Y0152638D03*
X0205381Y0149488D03*
X0203412Y0152638D03*
X0201444Y0149488D03*
X0199475Y0152638D03*
X0197507Y0149488D03*
X0195538Y0152638D03*
X0221129Y0149488D03*
X0223097Y0152638D03*
X0225066Y0149488D03*
X0227034Y0152638D03*
X0229003Y0149488D03*
X0230971Y0152638D03*
X0232940Y0149488D03*
X0234908Y0152638D03*
X0232940Y0120354D03*
X0234908Y0117205D03*
X0230971Y0117205D03*
X0229003Y0120354D03*
X0227034Y0117205D03*
X0225066Y0120354D03*
X0223097Y0117205D03*
X0221129Y0120354D03*
X0219160Y0117205D03*
X0217192Y0120354D03*
X0215223Y0117205D03*
X0213255Y0120354D03*
X0211286Y0117205D03*
X0209318Y0120354D03*
X0207349Y0117205D03*
X0205381Y0120354D03*
X0203412Y0117205D03*
X0201444Y0120354D03*
X0199475Y0117205D03*
X0197507Y0120354D03*
X0195538Y0117205D03*
D26*
X0191601Y0121142D03*
X0194751Y0123110D03*
X0191601Y0125079D03*
X0194751Y0127047D03*
X0191601Y0129016D03*
X0194751Y0130984D03*
X0191601Y0132953D03*
X0194751Y0134921D03*
X0191601Y0136890D03*
X0194751Y0138858D03*
X0191601Y0140827D03*
X0194751Y0142795D03*
X0191601Y0144764D03*
X0194751Y0146732D03*
X0191601Y0148701D03*
D27*
X0116010Y0198307D03*
X0112073Y0198307D03*
X0112073Y0205394D03*
X0116010Y0205394D03*
X0116010Y0071535D03*
X0112073Y0071535D03*
X0112073Y0064449D03*
X0116010Y0064449D03*
D28*
X0109514Y0067992D03*
X0104396Y0067992D03*
X0104396Y0201850D03*
X0109514Y0201850D03*
D29*
X0104089Y0066796D02*
X0104388Y0066260D01*
X0105203Y0066811D01*
X0104999Y0067177D01*
X0104874Y0067576D01*
X0104831Y0067992D01*
X0104874Y0068409D01*
X0104999Y0068808D01*
X0105203Y0069173D01*
X0104388Y0069724D01*
X0104089Y0069188D01*
X0103905Y0068603D01*
X0103842Y0067992D01*
X0103905Y0067381D01*
X0104089Y0066796D01*
X0104388Y0066260D01*
X0105203Y0066811D01*
X0104999Y0067177D01*
X0104874Y0067576D01*
X0104831Y0067992D01*
X0104874Y0068409D01*
X0104999Y0068808D01*
X0105203Y0069173D01*
X0104388Y0069724D01*
X0104089Y0069188D01*
X0103905Y0068603D01*
X0103842Y0067992D01*
X0103905Y0067381D01*
X0104089Y0066796D01*
X0104388Y0066260D01*
X0105203Y0066811D01*
X0104999Y0067177D01*
X0104874Y0067576D01*
X0104831Y0067992D01*
X0104874Y0068409D01*
X0104999Y0068808D01*
X0105203Y0069173D01*
X0104388Y0069724D01*
X0104089Y0069188D01*
X0103905Y0068603D01*
X0103842Y0067992D01*
X0103905Y0067381D01*
X0104089Y0066796D01*
X0104388Y0066260D01*
X0105203Y0066811D01*
X0104999Y0067177D01*
X0104874Y0067576D01*
X0104831Y0067992D01*
X0104874Y0068409D01*
X0104999Y0068808D01*
X0105203Y0069173D01*
X0104388Y0069724D01*
X0104089Y0069188D01*
X0103905Y0068603D01*
X0103842Y0067992D01*
X0103905Y0067381D01*
X0104089Y0066796D01*
X0104388Y0066260D01*
X0105203Y0066811D01*
X0104999Y0067177D01*
X0104874Y0067576D01*
X0104831Y0067992D01*
X0104874Y0068409D01*
X0104999Y0068808D01*
X0105203Y0069173D01*
X0104388Y0069724D01*
X0104089Y0069188D01*
X0103905Y0068603D01*
X0103842Y0067992D01*
X0103905Y0067381D01*
X0104089Y0066796D01*
X0104388Y0066260D01*
X0105203Y0066811D01*
X0104999Y0067177D01*
X0104874Y0067576D01*
X0104831Y0067992D01*
X0104874Y0068409D01*
X0104999Y0068808D01*
X0105203Y0069173D01*
X0104388Y0069724D01*
X0104089Y0069188D01*
X0103905Y0068603D01*
X0103842Y0067992D01*
X0103905Y0067381D01*
X0104089Y0066796D01*
X0104388Y0066260D01*
X0105203Y0066811D01*
X0104999Y0067177D01*
X0104874Y0067576D01*
X0104831Y0067992D01*
X0104874Y0068409D01*
X0104999Y0068808D01*
X0105203Y0069173D01*
X0104388Y0069724D01*
X0104089Y0069188D01*
X0103905Y0068603D01*
X0103842Y0067992D01*
X0103905Y0067381D01*
X0104089Y0066796D01*
X0104126Y0066731D02*
X0105085Y0066731D01*
X0104126Y0066731D01*
X0105085Y0066731D01*
X0104126Y0066731D01*
X0105085Y0066731D01*
X0104126Y0066731D01*
X0105085Y0066731D01*
X0105139Y0066926D02*
X0104048Y0066926D01*
X0105139Y0066926D01*
X0104048Y0066926D01*
X0105139Y0066926D01*
X0104048Y0066926D01*
X0105139Y0066926D01*
X0104048Y0066926D01*
X0103987Y0067121D02*
X0105030Y0067121D01*
X0103987Y0067121D01*
X0105030Y0067121D01*
X0103987Y0067121D01*
X0105030Y0067121D01*
X0103987Y0067121D01*
X0105030Y0067121D01*
X0104955Y0067317D02*
X0103925Y0067317D01*
X0104955Y0067317D01*
X0103925Y0067317D01*
X0104955Y0067317D01*
X0103925Y0067317D01*
X0104955Y0067317D01*
X0103925Y0067317D01*
X0103891Y0067512D02*
X0104894Y0067512D01*
X0103891Y0067512D01*
X0104894Y0067512D01*
X0103891Y0067512D01*
X0104894Y0067512D01*
X0103891Y0067512D01*
X0104894Y0067512D01*
X0104860Y0067707D02*
X0103871Y0067707D01*
X0104860Y0067707D01*
X0103871Y0067707D01*
X0104860Y0067707D01*
X0103871Y0067707D01*
X0104860Y0067707D01*
X0103871Y0067707D01*
X0103851Y0067903D02*
X0104840Y0067903D01*
X0103851Y0067903D01*
X0104840Y0067903D01*
X0103851Y0067903D01*
X0104840Y0067903D01*
X0103851Y0067903D01*
X0104840Y0067903D01*
X0104842Y0068098D02*
X0103853Y0068098D01*
X0104842Y0068098D01*
X0103853Y0068098D01*
X0104842Y0068098D01*
X0103853Y0068098D01*
X0104842Y0068098D01*
X0103853Y0068098D01*
X0103873Y0068294D02*
X0104862Y0068294D01*
X0103873Y0068294D01*
X0104862Y0068294D01*
X0103873Y0068294D01*
X0104862Y0068294D01*
X0103873Y0068294D01*
X0104862Y0068294D01*
X0104899Y0068489D02*
X0103893Y0068489D01*
X0104899Y0068489D01*
X0103893Y0068489D01*
X0104899Y0068489D01*
X0103893Y0068489D01*
X0104899Y0068489D01*
X0103893Y0068489D01*
X0103930Y0068684D02*
X0104960Y0068684D01*
X0103930Y0068684D01*
X0104960Y0068684D01*
X0103930Y0068684D01*
X0104960Y0068684D01*
X0103930Y0068684D01*
X0104960Y0068684D01*
X0105040Y0068880D02*
X0103992Y0068880D01*
X0105040Y0068880D01*
X0103992Y0068880D01*
X0105040Y0068880D01*
X0103992Y0068880D01*
X0105040Y0068880D01*
X0103992Y0068880D01*
X0104054Y0069075D02*
X0105149Y0069075D01*
X0104054Y0069075D01*
X0105149Y0069075D01*
X0104054Y0069075D01*
X0105149Y0069075D01*
X0104054Y0069075D01*
X0105149Y0069075D01*
X0105060Y0069270D02*
X0104135Y0069270D01*
X0105060Y0069270D01*
X0104135Y0069270D01*
X0105060Y0069270D01*
X0104135Y0069270D01*
X0105060Y0069270D01*
X0104135Y0069270D01*
X0104244Y0069466D02*
X0104771Y0069466D01*
X0104244Y0069466D01*
X0104771Y0069466D01*
X0104244Y0069466D01*
X0104771Y0069466D01*
X0104244Y0069466D01*
X0104771Y0069466D01*
X0104482Y0069661D02*
X0104353Y0069661D01*
X0104482Y0069661D01*
X0104353Y0069661D01*
X0104482Y0069661D01*
X0104353Y0069661D01*
X0104482Y0069661D01*
X0104353Y0069661D01*
X0105302Y0070443D02*
X0108609Y0070443D01*
X0108688Y0070559D02*
X0108136Y0069744D01*
X0107771Y0069948D01*
X0107372Y0070074D01*
X0106955Y0070116D01*
X0106539Y0070074D01*
X0106140Y0069948D01*
X0105774Y0069744D01*
X0105223Y0070559D01*
X0105759Y0070858D01*
X0106345Y0071043D01*
X0106955Y0071105D01*
X0107566Y0071043D01*
X0108152Y0070858D01*
X0108688Y0070559D01*
X0108546Y0070638D02*
X0105364Y0070638D01*
X0105434Y0070247D02*
X0108477Y0070247D01*
X0108345Y0070052D02*
X0107442Y0070052D01*
X0107935Y0069856D02*
X0108212Y0069856D01*
X0108707Y0069173D02*
X0108911Y0068808D01*
X0109037Y0068409D01*
X0109080Y0067992D01*
X0109037Y0067576D01*
X0108911Y0067177D01*
X0108707Y0066811D01*
X0109522Y0066260D01*
X0109821Y0066796D01*
X0110006Y0067381D01*
X0110068Y0067992D01*
X0110006Y0068603D01*
X0109821Y0069188D01*
X0109522Y0069724D01*
X0108707Y0069173D01*
X0108762Y0069075D02*
X0109857Y0069075D01*
X0109919Y0068880D02*
X0108871Y0068880D01*
X0108950Y0068684D02*
X0109980Y0068684D01*
X0110018Y0068489D02*
X0109012Y0068489D01*
X0109049Y0068294D02*
X0110038Y0068294D01*
X0110058Y0068098D02*
X0109069Y0068098D01*
X0109071Y0067903D02*
X0110059Y0067903D01*
X0110039Y0067707D02*
X0109051Y0067707D01*
X0109017Y0067512D02*
X0110019Y0067512D01*
X0109986Y0067317D02*
X0108956Y0067317D01*
X0108881Y0067121D02*
X0109924Y0067121D01*
X0109863Y0066926D02*
X0108772Y0066926D01*
X0108826Y0066731D02*
X0109785Y0066731D01*
X0109676Y0066535D02*
X0109115Y0066535D01*
X0109404Y0066340D02*
X0109567Y0066340D01*
X0108598Y0065558D02*
X0105313Y0065558D01*
X0105223Y0065425D02*
X0105774Y0066240D01*
X0106140Y0066036D01*
X0106539Y0065910D01*
X0106955Y0065868D01*
X0107372Y0065910D01*
X0107771Y0066036D01*
X0108136Y0066240D01*
X0108688Y0065425D01*
X0108152Y0065126D01*
X0107566Y0064941D01*
X0106955Y0064879D01*
X0106345Y0064941D01*
X0105759Y0065126D01*
X0105223Y0065425D01*
X0105334Y0065363D02*
X0108576Y0065363D01*
X0108226Y0065168D02*
X0105684Y0065168D01*
X0106246Y0064972D02*
X0107664Y0064972D01*
X0107495Y0065949D02*
X0108333Y0065949D01*
X0108201Y0066145D02*
X0107965Y0066145D01*
X0108465Y0065754D02*
X0105445Y0065754D01*
X0105577Y0065949D02*
X0106416Y0065949D01*
X0105946Y0066145D02*
X0105710Y0066145D01*
X0104796Y0066535D02*
X0104235Y0066535D01*
X0104796Y0066535D01*
X0104235Y0066535D01*
X0104796Y0066535D01*
X0104235Y0066535D01*
X0104796Y0066535D01*
X0104235Y0066535D01*
X0104344Y0066340D02*
X0104507Y0066340D01*
X0104344Y0066340D01*
X0104507Y0066340D01*
X0104344Y0066340D01*
X0104507Y0066340D01*
X0104344Y0066340D01*
X0104507Y0066340D01*
X0105698Y0069856D02*
X0105976Y0069856D01*
X0105566Y0070052D02*
X0106469Y0070052D01*
X0106299Y0071029D02*
X0107611Y0071029D01*
X0108196Y0070833D02*
X0105714Y0070833D01*
X0108851Y0069270D02*
X0109776Y0069270D01*
X0109667Y0069466D02*
X0109140Y0069466D01*
X0109429Y0069661D02*
X0109558Y0069661D01*
X0106955Y0198737D02*
X0107566Y0198800D01*
X0108152Y0198984D01*
X0108688Y0199283D01*
X0108136Y0200098D01*
X0107771Y0199894D01*
X0107372Y0199769D01*
X0106955Y0199726D01*
X0106539Y0199769D01*
X0106140Y0199894D01*
X0105774Y0200098D01*
X0105223Y0199283D01*
X0105759Y0198984D01*
X0106345Y0198800D01*
X0106955Y0198737D01*
X0106389Y0198795D02*
X0107522Y0198795D01*
X0108163Y0198991D02*
X0105748Y0198991D01*
X0105398Y0199186D02*
X0108513Y0199186D01*
X0108622Y0199381D02*
X0105289Y0199381D01*
X0105421Y0199577D02*
X0108489Y0199577D01*
X0108357Y0199772D02*
X0107383Y0199772D01*
X0107902Y0199967D02*
X0108225Y0199967D01*
X0108707Y0200669D02*
X0109522Y0200118D01*
X0109821Y0200654D01*
X0110006Y0201240D01*
X0110068Y0201850D01*
X0110006Y0202461D01*
X0109821Y0203047D01*
X0109522Y0203583D01*
X0108707Y0203031D01*
X0108911Y0202666D01*
X0109037Y0202267D01*
X0109080Y0201850D01*
X0109037Y0201434D01*
X0108911Y0201035D01*
X0108707Y0200669D01*
X0108752Y0200749D02*
X0109851Y0200749D01*
X0109913Y0200944D02*
X0108861Y0200944D01*
X0108944Y0201139D02*
X0109975Y0201139D01*
X0110016Y0201335D02*
X0109006Y0201335D01*
X0109047Y0201530D02*
X0110036Y0201530D01*
X0110056Y0201726D02*
X0109067Y0201726D01*
X0109073Y0201921D02*
X0110061Y0201921D01*
X0110041Y0202116D02*
X0109053Y0202116D01*
X0109023Y0202312D02*
X0110021Y0202312D01*
X0109992Y0202507D02*
X0108961Y0202507D01*
X0108891Y0202702D02*
X0109930Y0202702D01*
X0109868Y0202898D02*
X0108782Y0202898D01*
X0108798Y0203093D02*
X0109796Y0203093D01*
X0109687Y0203288D02*
X0109087Y0203288D01*
X0109376Y0203484D02*
X0109577Y0203484D01*
X0108585Y0204265D02*
X0105326Y0204265D01*
X0105223Y0204417D02*
X0105774Y0203602D01*
X0106140Y0203806D01*
X0106539Y0203932D01*
X0106955Y0203975D01*
X0107372Y0203932D01*
X0107771Y0203806D01*
X0108136Y0203602D01*
X0108688Y0204417D01*
X0108152Y0204717D01*
X0107566Y0204901D01*
X0106955Y0204964D01*
X0106345Y0204901D01*
X0105759Y0204717D01*
X0105223Y0204417D01*
X0105301Y0204461D02*
X0108610Y0204461D01*
X0108260Y0204656D02*
X0105651Y0204656D01*
X0106187Y0204851D02*
X0107724Y0204851D01*
X0107555Y0203875D02*
X0108321Y0203875D01*
X0108453Y0204070D02*
X0105458Y0204070D01*
X0105590Y0203875D02*
X0106356Y0203875D01*
X0105912Y0203679D02*
X0105722Y0203679D01*
X0105203Y0203031D02*
X0104388Y0203583D01*
X0104089Y0203047D01*
X0103905Y0202461D01*
X0103842Y0201850D01*
X0103905Y0201240D01*
X0104089Y0200654D01*
X0104388Y0200118D01*
X0105203Y0200669D01*
X0104999Y0201035D01*
X0104874Y0201434D01*
X0104831Y0201850D01*
X0104874Y0202267D01*
X0104999Y0202666D01*
X0105203Y0203031D01*
X0104388Y0203583D01*
X0104089Y0203047D01*
X0103905Y0202461D01*
X0103842Y0201850D01*
X0103905Y0201240D01*
X0104089Y0200654D01*
X0104388Y0200118D01*
X0105203Y0200669D01*
X0104999Y0201035D01*
X0104874Y0201434D01*
X0104831Y0201850D01*
X0104874Y0202267D01*
X0104999Y0202666D01*
X0105203Y0203031D01*
X0104388Y0203583D01*
X0104089Y0203047D01*
X0103905Y0202461D01*
X0103842Y0201850D01*
X0103905Y0201240D01*
X0104089Y0200654D01*
X0104388Y0200118D01*
X0105203Y0200669D01*
X0104999Y0201035D01*
X0104874Y0201434D01*
X0104831Y0201850D01*
X0104874Y0202267D01*
X0104999Y0202666D01*
X0105203Y0203031D01*
X0104388Y0203583D01*
X0104089Y0203047D01*
X0103905Y0202461D01*
X0103842Y0201850D01*
X0103905Y0201240D01*
X0104089Y0200654D01*
X0104388Y0200118D01*
X0105203Y0200669D01*
X0104999Y0201035D01*
X0104874Y0201434D01*
X0104831Y0201850D01*
X0104874Y0202267D01*
X0104999Y0202666D01*
X0105203Y0203031D01*
X0104388Y0203583D01*
X0104089Y0203047D01*
X0103905Y0202461D01*
X0103842Y0201850D01*
X0103905Y0201240D01*
X0104089Y0200654D01*
X0104388Y0200118D01*
X0105203Y0200669D01*
X0104999Y0201035D01*
X0104874Y0201434D01*
X0104831Y0201850D01*
X0104874Y0202267D01*
X0104999Y0202666D01*
X0105203Y0203031D01*
X0104388Y0203583D01*
X0104089Y0203047D01*
X0103905Y0202461D01*
X0103842Y0201850D01*
X0103905Y0201240D01*
X0104089Y0200654D01*
X0104388Y0200118D01*
X0105203Y0200669D01*
X0104999Y0201035D01*
X0104874Y0201434D01*
X0104831Y0201850D01*
X0104874Y0202267D01*
X0104999Y0202666D01*
X0105203Y0203031D01*
X0104388Y0203583D01*
X0104089Y0203047D01*
X0103905Y0202461D01*
X0103842Y0201850D01*
X0103905Y0201240D01*
X0104089Y0200654D01*
X0104388Y0200118D01*
X0105203Y0200669D01*
X0104999Y0201035D01*
X0104874Y0201434D01*
X0104831Y0201850D01*
X0104874Y0202267D01*
X0104999Y0202666D01*
X0105203Y0203031D01*
X0105112Y0203093D02*
X0104115Y0203093D01*
X0105112Y0203093D01*
X0104115Y0203093D01*
X0105112Y0203093D01*
X0104115Y0203093D01*
X0105112Y0203093D01*
X0104115Y0203093D01*
X0104042Y0202898D02*
X0105129Y0202898D01*
X0104042Y0202898D01*
X0105129Y0202898D01*
X0104042Y0202898D01*
X0105129Y0202898D01*
X0104042Y0202898D01*
X0105129Y0202898D01*
X0105020Y0202702D02*
X0103981Y0202702D01*
X0105020Y0202702D01*
X0103981Y0202702D01*
X0105020Y0202702D01*
X0103981Y0202702D01*
X0105020Y0202702D01*
X0103981Y0202702D01*
X0103919Y0202507D02*
X0104949Y0202507D01*
X0103919Y0202507D01*
X0104949Y0202507D01*
X0103919Y0202507D01*
X0104949Y0202507D01*
X0103919Y0202507D01*
X0104949Y0202507D01*
X0104888Y0202312D02*
X0103889Y0202312D01*
X0104888Y0202312D01*
X0103889Y0202312D01*
X0104888Y0202312D01*
X0103889Y0202312D01*
X0104888Y0202312D01*
X0103889Y0202312D01*
X0103869Y0202116D02*
X0104858Y0202116D01*
X0103869Y0202116D01*
X0104858Y0202116D01*
X0103869Y0202116D01*
X0104858Y0202116D01*
X0103869Y0202116D01*
X0104858Y0202116D01*
X0104838Y0201921D02*
X0103849Y0201921D01*
X0104838Y0201921D01*
X0103849Y0201921D01*
X0104838Y0201921D01*
X0103849Y0201921D01*
X0104838Y0201921D01*
X0103849Y0201921D01*
X0103855Y0201726D02*
X0104844Y0201726D01*
X0103855Y0201726D01*
X0104844Y0201726D01*
X0103855Y0201726D01*
X0104844Y0201726D01*
X0103855Y0201726D01*
X0104844Y0201726D01*
X0104864Y0201530D02*
X0103875Y0201530D01*
X0104864Y0201530D01*
X0103875Y0201530D01*
X0104864Y0201530D01*
X0103875Y0201530D01*
X0104864Y0201530D01*
X0103875Y0201530D01*
X0103895Y0201335D02*
X0104905Y0201335D01*
X0103895Y0201335D01*
X0104905Y0201335D01*
X0103895Y0201335D01*
X0104905Y0201335D01*
X0103895Y0201335D01*
X0104905Y0201335D01*
X0104966Y0201139D02*
X0103936Y0201139D01*
X0104966Y0201139D01*
X0103936Y0201139D01*
X0104966Y0201139D01*
X0103936Y0201139D01*
X0104966Y0201139D01*
X0103936Y0201139D01*
X0103998Y0200944D02*
X0105050Y0200944D01*
X0103998Y0200944D01*
X0105050Y0200944D01*
X0103998Y0200944D01*
X0105050Y0200944D01*
X0103998Y0200944D01*
X0105050Y0200944D01*
X0105159Y0200749D02*
X0104059Y0200749D01*
X0105159Y0200749D01*
X0104059Y0200749D01*
X0105159Y0200749D01*
X0104059Y0200749D01*
X0105159Y0200749D01*
X0104059Y0200749D01*
X0104145Y0200553D02*
X0105032Y0200553D01*
X0104145Y0200553D01*
X0105032Y0200553D01*
X0104145Y0200553D01*
X0105032Y0200553D01*
X0104145Y0200553D01*
X0105032Y0200553D01*
X0104743Y0200358D02*
X0104255Y0200358D01*
X0104743Y0200358D01*
X0104255Y0200358D01*
X0104743Y0200358D01*
X0104255Y0200358D01*
X0104743Y0200358D01*
X0104255Y0200358D01*
X0104364Y0200163D02*
X0104454Y0200163D01*
X0104364Y0200163D01*
X0104454Y0200163D01*
X0104364Y0200163D01*
X0104454Y0200163D01*
X0104364Y0200163D01*
X0104454Y0200163D01*
X0105553Y0199772D02*
X0106528Y0199772D01*
X0106009Y0199967D02*
X0105686Y0199967D01*
X0108879Y0200553D02*
X0109765Y0200553D01*
X0109656Y0200358D02*
X0109168Y0200358D01*
X0109456Y0200163D02*
X0109547Y0200163D01*
X0108188Y0203679D02*
X0107999Y0203679D01*
X0104823Y0203288D02*
X0104224Y0203288D01*
X0104823Y0203288D01*
X0104224Y0203288D01*
X0104823Y0203288D01*
X0104224Y0203288D01*
X0104823Y0203288D01*
X0104224Y0203288D01*
X0104333Y0203484D02*
X0104535Y0203484D01*
X0104333Y0203484D01*
X0104535Y0203484D01*
X0104333Y0203484D01*
X0104535Y0203484D01*
X0104333Y0203484D01*
X0104535Y0203484D01*
D30*
X0106955Y0204409D03*
X0106955Y0199291D03*
X0106955Y0070551D03*
X0106955Y0065433D03*
D31*
X0110081Y0170728D03*
X0088081Y0170728D03*
X0088081Y0185728D03*
X0110081Y0185728D03*
M02*
