G75*
%MOIN*%
%OFA0B0*%
%FSLAX25Y25*%
%IPPOS*%
%LPD*%
%AMOC8*
5,1,8,0,0,1.08239X$1,22.5*
%
%ADD10C,0.08000*%
%ADD11C,0.00800*%
%ADD12R,0.00157X0.14016*%
%ADD13R,0.00157X0.14961*%
%ADD14R,0.00157X0.15591*%
%ADD15R,0.00157X0.16220*%
%ADD16R,0.00157X0.16535*%
%ADD17R,0.00157X0.16850*%
%ADD18R,0.00157X0.17165*%
%ADD19R,0.00157X0.03150*%
%ADD20R,0.00157X0.02835*%
%ADD21R,0.00157X0.11181*%
%ADD22R,0.00157X0.02992*%
%ADD23R,0.00157X0.02520*%
%ADD24R,0.00157X0.00630*%
%ADD25R,0.00157X0.01732*%
%ADD26R,0.00157X0.04252*%
%ADD27R,0.00157X0.02205*%
%ADD28R,0.00157X0.00472*%
%ADD29R,0.00157X0.01417*%
%ADD30R,0.00157X0.03937*%
%ADD31R,0.00157X0.00315*%
%ADD32R,0.00157X0.01102*%
%ADD33R,0.00157X0.03780*%
%ADD34R,0.00157X0.01890*%
%ADD35R,0.00157X0.00945*%
%ADD36R,0.00157X0.03622*%
%ADD37R,0.00157X0.00787*%
%ADD38R,0.00157X0.03307*%
%ADD39R,0.00157X0.03465*%
%ADD40R,0.00157X0.01575*%
%ADD41R,0.00157X0.01260*%
%ADD42R,0.00157X0.04094*%
%ADD43R,0.00157X0.04409*%
%ADD44R,0.00157X0.02047*%
%ADD45R,0.00157X0.02362*%
%ADD46R,0.13701X0.00157*%
%ADD47R,0.14646X0.00157*%
%ADD48R,0.15276X0.00157*%
%ADD49R,0.15906X0.00157*%
%ADD50R,0.16220X0.00157*%
%ADD51R,0.16535X0.00157*%
%ADD52R,0.16850X0.00157*%
%ADD53R,0.04252X0.00157*%
%ADD54R,0.11969X0.00157*%
%ADD55R,0.04094X0.00157*%
%ADD56R,0.01260X0.00157*%
%ADD57R,0.01890X0.00157*%
%ADD58R,0.00630X0.00157*%
%ADD59R,0.03780X0.00157*%
%ADD60R,0.00787X0.00157*%
%ADD61R,0.01575X0.00157*%
%ADD62R,0.00472X0.00157*%
%ADD63R,0.01417X0.00157*%
%ADD64R,0.03465X0.00157*%
%ADD65R,0.03622X0.00157*%
%ADD66R,0.01102X0.00157*%
%ADD67R,0.03307X0.00157*%
%ADD68R,0.00945X0.00157*%
%ADD69R,0.02835X0.00157*%
%ADD70R,0.02992X0.00157*%
%ADD71R,0.00157X0.00157*%
%ADD72R,0.00315X0.00157*%
%ADD73R,0.03937X0.00157*%
%ADD74R,0.01732X0.00157*%
%ADD75R,0.00551X0.00197*%
%ADD76R,0.01654X0.00197*%
%ADD77R,0.02205X0.00157*%
%ADD78R,0.00551X0.00157*%
%ADD79R,0.02362X0.00197*%
%ADD80R,0.00906X0.00197*%
%ADD81R,0.00748X0.00157*%
%ADD82R,0.00354X0.00197*%
%ADD83R,0.01260X0.00197*%
%ADD84R,0.00709X0.00197*%
%ADD85R,0.00748X0.00197*%
%ADD86R,0.01496X0.00197*%
%ADD87R,0.02047X0.00197*%
%ADD88R,0.01654X0.00157*%
%ADD89R,0.00709X0.00157*%
%ADD90R,0.01496X0.00157*%
%ADD91R,0.01850X0.00157*%
%ADD92R,0.02244X0.00157*%
%ADD93R,0.00945X0.00197*%
%ADD94R,0.01102X0.00197*%
%ADD95R,0.02362X0.00157*%
%ADD96R,0.00591X0.00157*%
%ADD97R,0.02205X0.00197*%
%ADD98R,0.00591X0.00197*%
%ADD99R,0.02402X0.00197*%
%ADD100R,0.00394X0.00197*%
%ADD101R,0.00394X0.00157*%
%ADD102R,0.00354X0.00157*%
%ADD103R,0.02402X0.00157*%
%ADD104R,0.01299X0.00197*%
%ADD105R,0.00906X0.00157*%
%ADD106R,0.01142X0.00197*%
%ADD107R,0.01850X0.00197*%
%ADD108R,0.02244X0.00197*%
%ADD109R,0.01299X0.00157*%
%ADD110R,0.05709X0.00157*%
%ADD111R,0.04449X0.00157*%
%ADD112R,0.05709X0.00197*%
%ADD113R,0.04449X0.00197*%
%ADD114R,0.01457X0.00197*%
%ADD115R,0.02953X0.00157*%
%ADD116R,0.03110X0.00157*%
%ADD117R,0.02913X0.00157*%
%ADD118R,0.03307X0.00197*%
%ADD119R,0.04055X0.00197*%
%ADD120R,0.03504X0.00197*%
%ADD121R,0.02953X0.00197*%
%ADD122R,0.03661X0.00197*%
%ADD123R,0.04252X0.00197*%
%ADD124R,0.01811X0.00197*%
%ADD125R,0.03701X0.00197*%
%ADD126R,0.01693X0.00197*%
%ADD127R,0.04055X0.00157*%
%ADD128R,0.04606X0.00157*%
%ADD129R,0.04606X0.00197*%
%ADD130R,0.02756X0.00197*%
%ADD131R,0.02756X0.00157*%
%ADD132R,0.01457X0.00157*%
%ADD133R,0.00197X0.00157*%
%ADD134R,0.01811X0.00157*%
%ADD135R,0.03858X0.00197*%
%ADD136R,0.03110X0.00197*%
%ADD137R,0.03150X0.00197*%
%ADD138R,0.02008X0.00197*%
%ADD139C,0.00300*%
%ADD140C,0.00591*%
%ADD141R,0.00157X0.11496*%
%ADD142R,0.00157X0.12441*%
%ADD143R,0.00157X0.13071*%
%ADD144R,0.00157X0.13701*%
%ADD145R,0.00157X0.14331*%
%ADD146R,0.00157X0.14646*%
%ADD147R,0.00157X0.04567*%
%ADD148R,0.00157X0.02677*%
%ADD149R,0.00157X0.04724*%
%ADD150R,0.00157X0.04882*%
%ADD151R,0.00157X0.05039*%
%ADD152R,0.00157X0.00157*%
%ADD153R,0.00157X0.15276*%
%ADD154R,0.00157X0.17480*%
%ADD155R,0.00157X0.17795*%
%ADD156R,0.00157X0.18110*%
%ADD157R,0.00157X0.18425*%
%ADD158R,0.00157X0.11811*%
%ADD159R,0.00157X0.06142*%
%ADD160R,0.00157X0.08189*%
%ADD161R,0.00157X0.08031*%
%ADD162R,0.00157X0.07874*%
%ADD163R,0.00157X0.07717*%
%ADD164R,0.00157X0.06929*%
%ADD165R,0.00157X0.06772*%
%ADD166R,0.00157X0.06614*%
%ADD167R,0.00157X0.06457*%
%ADD168R,0.00157X0.07087*%
%ADD169R,0.00157X0.08819*%
%ADD170R,0.00157X0.08661*%
%ADD171R,0.00157X0.08504*%
%ADD172R,0.00157X0.12126*%
%ADD173R,0.00157X0.07244*%
%ADD174R,0.00157X0.08976*%
%ADD175R,0.01181X0.00236*%
%ADD176R,0.03780X0.00236*%
%ADD177R,0.01417X0.00236*%
%ADD178R,0.04724X0.00236*%
%ADD179R,0.01654X0.00236*%
%ADD180R,0.02362X0.00236*%
%ADD181R,0.04961X0.00236*%
%ADD182R,0.03071X0.00236*%
%ADD183R,0.03543X0.00236*%
%ADD184R,0.04252X0.00236*%
%ADD185R,0.00472X0.00236*%
%ADD186R,0.01890X0.00236*%
%ADD187R,0.02126X0.00236*%
%ADD188R,0.04016X0.00236*%
%ADD189R,0.04488X0.00236*%
%ADD190R,0.02598X0.00236*%
%ADD191R,0.02835X0.00236*%
%ADD192R,0.00709X0.00236*%
%ADD193R,0.03307X0.00236*%
%ADD194R,0.00945X0.00236*%
D10*
X0169396Y0071181D02*
X0211396Y0071181D01*
D11*
X0149672Y0105394D02*
X0139042Y0093386D01*
X0133333Y0093386D01*
X0149672Y0105394D02*
X0149672Y0164449D01*
X0139042Y0176457D01*
X0133333Y0176457D01*
X0108136Y0176457D02*
X0102822Y0176457D01*
X0089436Y0156772D01*
X0089436Y0156771D02*
X0089954Y0155892D01*
X0090451Y0155000D01*
X0090926Y0154096D01*
X0091379Y0153182D01*
X0091810Y0152256D01*
X0092218Y0151321D01*
X0092604Y0150376D01*
X0092967Y0149421D01*
X0093306Y0148458D01*
X0093622Y0147488D01*
X0093914Y0146510D01*
X0094183Y0145525D01*
X0094428Y0144534D01*
X0094648Y0143537D01*
X0094845Y0142535D01*
X0095017Y0141529D01*
X0095165Y0140519D01*
X0095288Y0139506D01*
X0095387Y0138490D01*
X0095461Y0137472D01*
X0095510Y0136452D01*
X0095535Y0135431D01*
X0095535Y0134411D01*
X0095510Y0133390D01*
X0095461Y0132370D01*
X0095387Y0131352D01*
X0095288Y0130336D01*
X0095165Y0129323D01*
X0095017Y0128313D01*
X0094845Y0127307D01*
X0094648Y0126305D01*
X0094428Y0125308D01*
X0094183Y0124317D01*
X0093914Y0123332D01*
X0093622Y0122354D01*
X0093306Y0121384D01*
X0092967Y0120421D01*
X0092604Y0119466D01*
X0092218Y0118521D01*
X0091810Y0117586D01*
X0091379Y0116660D01*
X0090926Y0115746D01*
X0090451Y0114842D01*
X0089954Y0113950D01*
X0089436Y0113071D01*
X0102822Y0093386D01*
X0108136Y0093386D01*
D12*
X0166247Y0084866D03*
X0172546Y0084866D03*
X0176877Y0083606D03*
X0181916Y0083606D03*
X0196877Y0083764D03*
X0201916Y0083764D03*
D13*
X0201444Y0083764D03*
X0207034Y0083921D03*
X0211759Y0083921D03*
X0181444Y0083606D03*
X0172388Y0084866D03*
X0166404Y0084866D03*
D14*
X0166562Y0084866D03*
X0172231Y0084866D03*
X0211444Y0083921D03*
D15*
X0192388Y0085654D03*
X0186404Y0085654D03*
X0172073Y0084866D03*
X0166719Y0084866D03*
D16*
X0166877Y0084866D03*
X0171916Y0084866D03*
D17*
X0171759Y0084866D03*
X0167034Y0084866D03*
X0186562Y0085654D03*
X0192231Y0085654D03*
D18*
X0171601Y0084866D03*
X0167192Y0084866D03*
D19*
X0171444Y0077701D03*
X0170656Y0077228D03*
X0177979Y0077386D03*
X0181286Y0082740D03*
X0189396Y0081795D03*
X0198294Y0083055D03*
X0208294Y0083055D03*
X0207979Y0090457D03*
X0207822Y0090457D03*
X0210814Y0090457D03*
X0210971Y0090457D03*
X0200656Y0090142D03*
X0198451Y0090142D03*
X0198294Y0090142D03*
X0198136Y0090142D03*
X0197822Y0089984D03*
X0197664Y0089827D03*
X0190656Y0093921D03*
X0190499Y0093921D03*
X0190341Y0093921D03*
X0188451Y0093921D03*
X0188294Y0093921D03*
X0188136Y0093921D03*
X0180971Y0089827D03*
X0180814Y0089827D03*
X0178451Y0089984D03*
X0178294Y0089984D03*
X0177979Y0089827D03*
X0177664Y0089669D03*
D20*
X0187349Y0093606D03*
X0187664Y0093764D03*
X0191129Y0093764D03*
X0191286Y0086362D03*
X0198451Y0083055D03*
X0208451Y0083055D03*
X0201129Y0089984D03*
X0181129Y0082740D03*
X0177664Y0077386D03*
X0177507Y0077386D03*
X0171129Y0077386D03*
X0171444Y0080850D03*
D21*
X0171444Y0088016D03*
D22*
X0181129Y0089748D03*
X0181286Y0089748D03*
X0187507Y0093685D03*
X0187822Y0093843D03*
X0187979Y0093843D03*
X0190814Y0093843D03*
X0190971Y0093843D03*
X0191286Y0093685D03*
X0197979Y0090063D03*
X0200814Y0090063D03*
X0200971Y0090063D03*
X0201286Y0089906D03*
X0207349Y0090220D03*
X0207507Y0090378D03*
X0207664Y0090378D03*
X0211129Y0090378D03*
X0211286Y0090378D03*
X0177822Y0077307D03*
X0177349Y0077622D03*
X0171286Y0077465D03*
X0170971Y0077307D03*
X0170814Y0077307D03*
D23*
X0171286Y0080850D03*
X0177349Y0080850D03*
X0187349Y0084630D03*
X0189869Y0086992D03*
D24*
X0188609Y0086677D03*
X0188451Y0086677D03*
X0187664Y0086992D03*
X0189081Y0084630D03*
X0189239Y0084630D03*
X0189711Y0090142D03*
X0190499Y0090299D03*
X0197507Y0085890D03*
X0198451Y0085890D03*
X0198924Y0085890D03*
X0198294Y0087150D03*
X0200656Y0085890D03*
X0200814Y0085890D03*
X0200971Y0085890D03*
X0201129Y0085890D03*
X0201129Y0084315D03*
X0200971Y0084315D03*
X0200814Y0084315D03*
X0199081Y0082268D03*
X0198924Y0082268D03*
X0198766Y0082268D03*
X0199239Y0080850D03*
X0208766Y0082268D03*
X0208924Y0082268D03*
X0209081Y0082268D03*
X0209239Y0080850D03*
X0210814Y0084315D03*
X0210971Y0084315D03*
X0211129Y0084315D03*
X0210656Y0085890D03*
X0210499Y0085890D03*
X0210341Y0085890D03*
X0210184Y0085890D03*
X0210499Y0087622D03*
X0210656Y0087622D03*
X0210814Y0087622D03*
X0210971Y0087622D03*
X0211129Y0087622D03*
X0211286Y0087622D03*
X0180184Y0085417D03*
X0180026Y0085417D03*
X0178766Y0086992D03*
X0177979Y0085417D03*
X0177822Y0085417D03*
X0179081Y0080850D03*
X0179239Y0080850D03*
X0171286Y0083055D03*
X0170499Y0083055D03*
X0170341Y0083055D03*
X0169396Y0080850D03*
X0169239Y0080850D03*
X0168451Y0086992D03*
X0168294Y0086992D03*
X0168294Y0088724D03*
X0170341Y0086992D03*
X0170499Y0086992D03*
D25*
X0171286Y0086441D03*
X0169554Y0089118D03*
X0169396Y0089118D03*
X0169239Y0089118D03*
X0168294Y0082504D03*
X0168136Y0082504D03*
X0170499Y0080929D03*
X0178766Y0083291D03*
X0178924Y0083291D03*
X0180499Y0082504D03*
X0190184Y0086441D03*
X0190341Y0086283D03*
X0190499Y0086283D03*
X0191129Y0090378D03*
D26*
X0180341Y0089433D03*
X0171286Y0091638D03*
X0167349Y0091480D03*
X0168451Y0077780D03*
X0168766Y0077622D03*
X0168924Y0077622D03*
X0179711Y0077622D03*
X0179869Y0077622D03*
X0189396Y0077780D03*
X0199396Y0077780D03*
D27*
X0190971Y0086205D03*
X0189554Y0086992D03*
X0189396Y0086992D03*
X0189081Y0087150D03*
X0187507Y0084630D03*
X0180814Y0082583D03*
X0177507Y0080850D03*
X0171129Y0080850D03*
X0170971Y0080850D03*
X0187349Y0090299D03*
D28*
X0189869Y0090220D03*
X0190341Y0090220D03*
X0188294Y0086756D03*
X0188136Y0086756D03*
X0187979Y0086913D03*
X0187822Y0086913D03*
X0197664Y0085811D03*
X0198294Y0085811D03*
X0199081Y0085811D03*
X0199396Y0085811D03*
X0199554Y0085811D03*
X0199711Y0085811D03*
X0199869Y0085811D03*
X0200026Y0085811D03*
X0200184Y0085811D03*
X0200341Y0085811D03*
X0200499Y0085811D03*
X0198924Y0087228D03*
X0209554Y0085811D03*
X0209711Y0085811D03*
X0209869Y0085811D03*
X0210026Y0085811D03*
X0189239Y0080929D03*
X0179869Y0085339D03*
X0179711Y0085339D03*
X0179554Y0085339D03*
X0179396Y0085339D03*
X0179239Y0085339D03*
X0179081Y0085339D03*
X0178766Y0085339D03*
X0178609Y0085339D03*
X0178451Y0085339D03*
X0178294Y0085339D03*
X0178136Y0085339D03*
X0171129Y0083134D03*
X0170814Y0083134D03*
X0170656Y0083134D03*
X0170184Y0087071D03*
X0170026Y0087071D03*
X0169869Y0087071D03*
X0168924Y0087071D03*
X0168766Y0087071D03*
X0168609Y0087071D03*
D29*
X0167507Y0086598D03*
X0168609Y0085024D03*
X0168766Y0085024D03*
X0170026Y0085024D03*
X0171129Y0086598D03*
X0170026Y0088961D03*
X0168609Y0088961D03*
X0168766Y0082661D03*
X0168924Y0082661D03*
X0170184Y0080929D03*
X0177349Y0083449D03*
X0178136Y0083449D03*
X0178294Y0083449D03*
X0179711Y0082661D03*
X0180026Y0082504D03*
X0180184Y0082504D03*
X0188294Y0082189D03*
X0189239Y0082504D03*
X0189239Y0090535D03*
X0187822Y0090535D03*
X0190971Y0090378D03*
D30*
X0179554Y0089748D03*
X0171129Y0091795D03*
X0167507Y0091795D03*
X0169396Y0077465D03*
X0169554Y0077465D03*
X0178924Y0077465D03*
X0179081Y0077465D03*
X0179239Y0077465D03*
X0189239Y0077622D03*
X0209239Y0077465D03*
D31*
X0208451Y0080063D03*
X0208609Y0085732D03*
X0208766Y0085732D03*
X0208924Y0085732D03*
X0209081Y0085732D03*
X0209239Y0085732D03*
X0209396Y0085732D03*
X0199239Y0085732D03*
X0198136Y0085732D03*
X0197979Y0085732D03*
X0197822Y0085732D03*
X0198451Y0080063D03*
X0188451Y0080063D03*
X0189396Y0084630D03*
X0189554Y0084630D03*
X0190499Y0088567D03*
X0190184Y0090142D03*
X0190026Y0090142D03*
X0178924Y0085260D03*
X0178136Y0086992D03*
X0170971Y0083213D03*
X0169081Y0080850D03*
X0168924Y0080850D03*
X0169081Y0087150D03*
X0169239Y0087150D03*
X0169396Y0087150D03*
X0169554Y0087150D03*
X0169711Y0087150D03*
X0179396Y0080850D03*
X0179554Y0080850D03*
D32*
X0180814Y0085654D03*
X0188451Y0088488D03*
X0188451Y0090693D03*
X0188294Y0090693D03*
X0188609Y0090693D03*
X0188766Y0090693D03*
X0190814Y0090378D03*
X0197349Y0085969D03*
X0198451Y0087071D03*
X0188766Y0082504D03*
X0170971Y0086756D03*
X0167822Y0086756D03*
X0168451Y0084866D03*
X0169396Y0082819D03*
X0169554Y0082819D03*
X0211286Y0085969D03*
D33*
X0199711Y0089984D03*
X0199239Y0077543D03*
X0209081Y0077386D03*
X0178766Y0077386D03*
X0178609Y0077386D03*
X0169869Y0077386D03*
X0169711Y0077386D03*
X0179396Y0089827D03*
X0170971Y0092031D03*
X0167664Y0091874D03*
D34*
X0167822Y0082425D03*
X0167979Y0082425D03*
X0170656Y0080850D03*
X0170814Y0080850D03*
X0177822Y0080850D03*
X0177979Y0080850D03*
X0179081Y0083213D03*
X0179239Y0083213D03*
X0181286Y0086047D03*
X0187822Y0084630D03*
X0187979Y0084630D03*
X0190026Y0086520D03*
X0190656Y0086205D03*
X0187507Y0090457D03*
D35*
X0188294Y0088567D03*
X0190026Y0088409D03*
X0190184Y0088567D03*
X0190341Y0088567D03*
X0188766Y0086677D03*
X0180656Y0085575D03*
X0178451Y0086992D03*
X0177507Y0085575D03*
X0170814Y0086835D03*
X0170341Y0088724D03*
X0167979Y0086835D03*
X0170341Y0084787D03*
X0169869Y0082898D03*
X0169711Y0082898D03*
X0169711Y0080850D03*
X0169554Y0080850D03*
X0199554Y0084157D03*
X0199711Y0084157D03*
X0199869Y0084157D03*
X0200026Y0084157D03*
X0201286Y0085890D03*
X0209554Y0087465D03*
X0209711Y0087465D03*
X0209711Y0084157D03*
X0209554Y0084157D03*
X0209869Y0084157D03*
X0210026Y0084157D03*
D36*
X0199554Y0090063D03*
X0199081Y0077465D03*
X0208294Y0077465D03*
X0208766Y0077307D03*
X0208924Y0077307D03*
X0189081Y0077465D03*
X0188924Y0077465D03*
X0179239Y0089906D03*
X0170814Y0092110D03*
X0170656Y0092268D03*
X0168136Y0092268D03*
X0167979Y0092110D03*
X0167822Y0092110D03*
X0170026Y0077307D03*
X0170184Y0077307D03*
D37*
X0170184Y0082976D03*
X0170026Y0082976D03*
X0168294Y0084709D03*
X0168136Y0086913D03*
X0170656Y0086913D03*
X0177664Y0085496D03*
X0178294Y0086913D03*
X0178609Y0086913D03*
X0180341Y0085496D03*
X0180499Y0085496D03*
X0187507Y0087071D03*
X0190656Y0090378D03*
X0200184Y0084236D03*
X0200341Y0084236D03*
X0200499Y0084236D03*
X0200656Y0084236D03*
X0201286Y0084236D03*
X0199239Y0082189D03*
X0198609Y0082189D03*
X0198294Y0080142D03*
X0208294Y0080142D03*
X0208609Y0082189D03*
X0209239Y0082189D03*
X0210184Y0084236D03*
X0210341Y0084236D03*
X0210499Y0084236D03*
X0210656Y0084236D03*
X0211286Y0084236D03*
X0211129Y0085969D03*
X0210971Y0085969D03*
X0210814Y0085969D03*
X0210341Y0087543D03*
X0210184Y0087543D03*
X0210026Y0087543D03*
X0209869Y0087543D03*
X0188294Y0080142D03*
D38*
X0188451Y0077465D03*
X0198451Y0077465D03*
X0198609Y0077307D03*
X0197349Y0089591D03*
X0197507Y0089748D03*
X0198609Y0090220D03*
X0198766Y0090220D03*
X0198924Y0090220D03*
X0199081Y0090220D03*
X0199239Y0090220D03*
X0200499Y0090063D03*
X0208136Y0090535D03*
X0208294Y0090535D03*
X0208451Y0090535D03*
X0210341Y0090535D03*
X0210499Y0090535D03*
X0210656Y0090535D03*
X0190184Y0094000D03*
X0190026Y0094000D03*
X0189869Y0094000D03*
X0189711Y0094000D03*
X0189554Y0094000D03*
X0189396Y0094000D03*
X0189239Y0094000D03*
X0189081Y0094000D03*
X0188924Y0094000D03*
X0188766Y0094000D03*
X0188609Y0094000D03*
X0180656Y0089906D03*
X0178766Y0090063D03*
X0178609Y0090063D03*
X0178136Y0089906D03*
X0177822Y0089748D03*
X0177507Y0089591D03*
X0169869Y0092583D03*
X0169711Y0092583D03*
X0169554Y0092583D03*
X0169396Y0092583D03*
X0169239Y0092583D03*
X0169081Y0092583D03*
X0168924Y0092583D03*
X0168451Y0092425D03*
X0170341Y0077307D03*
X0170499Y0077307D03*
X0178136Y0077307D03*
D39*
X0178294Y0077386D03*
X0178451Y0077386D03*
X0188294Y0077543D03*
X0188609Y0077386D03*
X0188766Y0077386D03*
X0198294Y0077543D03*
X0198766Y0077386D03*
X0198924Y0077386D03*
X0208451Y0077386D03*
X0208609Y0077228D03*
X0199396Y0090142D03*
X0208609Y0090614D03*
X0208766Y0090614D03*
X0208924Y0090614D03*
X0209081Y0090614D03*
X0209239Y0090614D03*
X0209396Y0090614D03*
X0209554Y0090614D03*
X0209711Y0090614D03*
X0209869Y0090614D03*
X0210026Y0090614D03*
X0210184Y0090614D03*
X0180499Y0089827D03*
X0179081Y0089984D03*
X0178924Y0089984D03*
X0177349Y0089354D03*
X0170499Y0092346D03*
X0170341Y0092346D03*
X0170184Y0092504D03*
X0170026Y0092504D03*
X0168766Y0092504D03*
X0168609Y0092504D03*
X0168294Y0092346D03*
D40*
X0168766Y0089039D03*
X0168924Y0089039D03*
X0169081Y0089039D03*
X0169711Y0089039D03*
X0169869Y0089039D03*
X0169869Y0085102D03*
X0169711Y0085102D03*
X0169554Y0085102D03*
X0169396Y0085102D03*
X0169239Y0085102D03*
X0169081Y0085102D03*
X0168924Y0085102D03*
X0168609Y0082583D03*
X0168451Y0082583D03*
X0170341Y0080850D03*
X0178136Y0080850D03*
X0178451Y0083370D03*
X0178609Y0083370D03*
X0180341Y0082425D03*
X0181129Y0085890D03*
X0188136Y0084630D03*
X0187664Y0090457D03*
X0189396Y0090457D03*
X0189554Y0090457D03*
D41*
X0189081Y0090614D03*
X0188924Y0090614D03*
X0188136Y0090614D03*
X0187979Y0090614D03*
X0188609Y0088567D03*
X0188766Y0088409D03*
X0187349Y0087150D03*
X0180971Y0085732D03*
X0179869Y0082583D03*
X0177979Y0083528D03*
X0177822Y0083528D03*
X0177664Y0083528D03*
X0177507Y0083528D03*
X0177349Y0085575D03*
X0170184Y0084945D03*
X0169239Y0082740D03*
X0169081Y0082740D03*
X0169869Y0080850D03*
X0170026Y0080850D03*
X0167664Y0086677D03*
X0168451Y0088882D03*
X0170184Y0088882D03*
X0188451Y0082268D03*
X0188609Y0082425D03*
X0188924Y0082583D03*
X0189081Y0082583D03*
D42*
X0179554Y0077543D03*
X0179396Y0077543D03*
X0169239Y0077543D03*
X0169081Y0077543D03*
X0199869Y0089827D03*
D43*
X0209396Y0077701D03*
X0181129Y0078173D03*
X0180814Y0078016D03*
X0180499Y0077858D03*
X0180341Y0077858D03*
X0180184Y0077701D03*
X0180026Y0077701D03*
X0168609Y0077701D03*
X0168294Y0077858D03*
X0168136Y0077858D03*
X0167979Y0078016D03*
X0167822Y0078016D03*
X0167664Y0078173D03*
X0167507Y0078173D03*
X0167349Y0078331D03*
X0179711Y0089512D03*
D44*
X0187664Y0084709D03*
X0189239Y0087071D03*
X0190814Y0086283D03*
X0191286Y0090378D03*
X0198609Y0086598D03*
X0198766Y0086598D03*
X0180656Y0082504D03*
X0179554Y0083134D03*
X0179396Y0083134D03*
X0177664Y0080929D03*
X0167664Y0082346D03*
X0167507Y0082346D03*
X0167349Y0086441D03*
D45*
X0167349Y0082346D03*
X0189711Y0086913D03*
X0191129Y0086283D03*
X0199396Y0081402D03*
X0207507Y0086756D03*
X0207664Y0086756D03*
X0207822Y0086756D03*
X0207979Y0086756D03*
X0208136Y0086756D03*
X0208294Y0086756D03*
X0208451Y0086756D03*
X0209396Y0081402D03*
D46*
G36*
X0221304Y0084933D02*
X0211618Y0075247D01*
X0211508Y0075357D01*
X0221194Y0085043D01*
X0221304Y0084933D01*
G37*
G36*
X0225758Y0080479D02*
X0216072Y0070793D01*
X0215962Y0070903D01*
X0225648Y0080589D01*
X0225758Y0080479D01*
G37*
D47*
G36*
X0225982Y0080924D02*
X0215627Y0070569D01*
X0215516Y0070680D01*
X0225871Y0081035D01*
X0225982Y0080924D01*
G37*
G36*
X0221751Y0085156D02*
X0211396Y0074801D01*
X0211285Y0074912D01*
X0221640Y0085267D01*
X0221751Y0085156D01*
G37*
D48*
G36*
X0222085Y0085267D02*
X0211284Y0074466D01*
X0211173Y0074577D01*
X0221974Y0085378D01*
X0222085Y0085267D01*
G37*
G36*
X0226094Y0081259D02*
X0215293Y0070458D01*
X0215182Y0070569D01*
X0225983Y0081370D01*
X0226094Y0081259D01*
G37*
D49*
G36*
X0226204Y0081593D02*
X0214958Y0070347D01*
X0214848Y0070457D01*
X0226094Y0081703D01*
X0226204Y0081593D01*
G37*
G36*
X0222418Y0085379D02*
X0211172Y0074133D01*
X0211062Y0074243D01*
X0222308Y0085489D01*
X0222418Y0085379D01*
G37*
D50*
G36*
X0222641Y0085379D02*
X0211173Y0073911D01*
X0211063Y0074021D01*
X0222531Y0085489D01*
X0222641Y0085379D01*
G37*
G36*
X0226204Y0081815D02*
X0214736Y0070347D01*
X0214626Y0070457D01*
X0226094Y0081925D01*
X0226204Y0081815D01*
G37*
D51*
G36*
X0226204Y0082038D02*
X0214514Y0070348D01*
X0214404Y0070458D01*
X0226094Y0082148D01*
X0226204Y0082038D01*
G37*
G36*
X0222863Y0085378D02*
X0211173Y0073688D01*
X0211063Y0073798D01*
X0222753Y0085488D01*
X0222863Y0085378D01*
G37*
D52*
G36*
X0223086Y0085379D02*
X0211172Y0073465D01*
X0211062Y0073575D01*
X0222976Y0085489D01*
X0223086Y0085379D01*
G37*
G36*
X0226204Y0082261D02*
X0214290Y0070347D01*
X0214180Y0070457D01*
X0226094Y0082371D01*
X0226204Y0082261D01*
G37*
D53*
G36*
X0223309Y0085379D02*
X0220303Y0082373D01*
X0220193Y0082483D01*
X0223199Y0085489D01*
X0223309Y0085379D01*
G37*
G36*
X0217073Y0073353D02*
X0214067Y0070347D01*
X0213957Y0070457D01*
X0216963Y0073463D01*
X0217073Y0073353D01*
G37*
D54*
G36*
X0226204Y0082484D02*
X0217742Y0074022D01*
X0217632Y0074132D01*
X0226094Y0082594D01*
X0226204Y0082484D01*
G37*
D55*
G36*
X0226204Y0082706D02*
X0223310Y0079812D01*
X0223200Y0079922D01*
X0226094Y0082816D01*
X0226204Y0082706D01*
G37*
G36*
X0214066Y0076136D02*
X0211172Y0073242D01*
X0211062Y0073352D01*
X0213956Y0076246D01*
X0214066Y0076136D01*
G37*
G36*
X0216739Y0073241D02*
X0213845Y0070347D01*
X0213735Y0070457D01*
X0216629Y0073351D01*
X0216739Y0073241D01*
G37*
D56*
G36*
X0218855Y0075357D02*
X0217965Y0074467D01*
X0217855Y0074577D01*
X0218745Y0075467D01*
X0218855Y0075357D01*
G37*
G36*
X0220191Y0077584D02*
X0219301Y0076694D01*
X0219191Y0076804D01*
X0220081Y0077694D01*
X0220191Y0077584D01*
G37*
G36*
X0218075Y0079255D02*
X0217185Y0078365D01*
X0217075Y0078475D01*
X0217965Y0079365D01*
X0218075Y0079255D01*
G37*
G36*
X0217964Y0079366D02*
X0217074Y0078476D01*
X0216964Y0078586D01*
X0217854Y0079476D01*
X0217964Y0079366D01*
G37*
G36*
X0216071Y0078141D02*
X0215181Y0077251D01*
X0215071Y0077361D01*
X0215961Y0078251D01*
X0216071Y0078141D01*
G37*
G36*
X0215737Y0076248D02*
X0214847Y0075358D01*
X0214737Y0075468D01*
X0215627Y0076358D01*
X0215737Y0076248D01*
G37*
G36*
X0221416Y0081704D02*
X0220526Y0080814D01*
X0220416Y0080924D01*
X0221306Y0081814D01*
X0221416Y0081704D01*
G37*
G36*
X0222418Y0080702D02*
X0221528Y0079812D01*
X0221418Y0079922D01*
X0222308Y0080812D01*
X0222418Y0080702D01*
G37*
X0153432Y0082685D03*
X0146621Y0082685D03*
X0142762Y0076626D03*
X0142762Y0076075D03*
X0142762Y0075524D03*
X0142762Y0074972D03*
X0142762Y0074421D03*
X0142762Y0073870D03*
X0142762Y0073319D03*
X0140361Y0076626D03*
X0140361Y0077177D03*
X0137605Y0073870D03*
X0131345Y0074972D03*
X0131345Y0075524D03*
X0131345Y0076075D03*
X0113668Y0074972D03*
X0107408Y0073319D03*
X0151778Y0074421D03*
D57*
G36*
X0217964Y0080034D02*
X0216628Y0078698D01*
X0216518Y0078808D01*
X0217854Y0080144D01*
X0217964Y0080034D01*
G37*
G36*
X0220748Y0077251D02*
X0219412Y0075915D01*
X0219302Y0076025D01*
X0220638Y0077361D01*
X0220748Y0077251D01*
G37*
D58*
G36*
X0221750Y0078252D02*
X0221306Y0077808D01*
X0221196Y0077918D01*
X0221640Y0078362D01*
X0221750Y0078252D01*
G37*
G36*
X0219634Y0078141D02*
X0219190Y0077697D01*
X0219080Y0077807D01*
X0219524Y0078251D01*
X0219634Y0078141D01*
G37*
G36*
X0218187Y0078252D02*
X0217743Y0077808D01*
X0217633Y0077918D01*
X0218077Y0078362D01*
X0218187Y0078252D01*
G37*
G36*
X0217630Y0076359D02*
X0217186Y0075915D01*
X0217076Y0076025D01*
X0217520Y0076469D01*
X0217630Y0076359D01*
G37*
G36*
X0218187Y0075802D02*
X0217743Y0075358D01*
X0217633Y0075468D01*
X0218077Y0075912D01*
X0218187Y0075802D01*
G37*
G36*
X0218298Y0075691D02*
X0217854Y0075247D01*
X0217744Y0075357D01*
X0218188Y0075801D01*
X0218298Y0075691D01*
G37*
G36*
X0218409Y0075580D02*
X0217965Y0075136D01*
X0217855Y0075246D01*
X0218299Y0075690D01*
X0218409Y0075580D01*
G37*
G36*
X0218521Y0075468D02*
X0218077Y0075024D01*
X0217967Y0075134D01*
X0218411Y0075578D01*
X0218521Y0075468D01*
G37*
G36*
X0216182Y0077807D02*
X0215738Y0077363D01*
X0215628Y0077473D01*
X0216072Y0077917D01*
X0216182Y0077807D01*
G37*
G36*
X0219077Y0080925D02*
X0218633Y0080481D01*
X0218523Y0080591D01*
X0218967Y0081035D01*
X0219077Y0080925D01*
G37*
G36*
X0220748Y0081481D02*
X0220304Y0081037D01*
X0220194Y0081147D01*
X0220638Y0081591D01*
X0220748Y0081481D01*
G37*
D59*
G36*
X0226093Y0082818D02*
X0223421Y0080146D01*
X0223311Y0080256D01*
X0225983Y0082928D01*
X0226093Y0082818D01*
G37*
G36*
X0226093Y0083041D02*
X0223421Y0080369D01*
X0223311Y0080479D01*
X0225983Y0083151D01*
X0226093Y0083041D01*
G37*
G36*
X0216405Y0073130D02*
X0213733Y0070458D01*
X0213623Y0070568D01*
X0216295Y0073240D01*
X0216405Y0073130D01*
G37*
G36*
X0216183Y0073130D02*
X0213511Y0070458D01*
X0213401Y0070568D01*
X0216073Y0073240D01*
X0216183Y0073130D01*
G37*
D60*
G36*
X0218632Y0075356D02*
X0218077Y0074801D01*
X0217966Y0074912D01*
X0218521Y0075467D01*
X0218632Y0075356D01*
G37*
G36*
X0218075Y0075913D02*
X0217520Y0075358D01*
X0217409Y0075469D01*
X0217964Y0076024D01*
X0218075Y0075913D01*
G37*
G36*
X0219746Y0078029D02*
X0219191Y0077474D01*
X0219080Y0077585D01*
X0219635Y0078140D01*
X0219746Y0078029D01*
G37*
G36*
X0218187Y0078474D02*
X0217632Y0077919D01*
X0217521Y0078030D01*
X0218076Y0078585D01*
X0218187Y0078474D01*
G37*
G36*
X0218075Y0078586D02*
X0217520Y0078031D01*
X0217409Y0078142D01*
X0217964Y0078697D01*
X0218075Y0078586D01*
G37*
G36*
X0218966Y0081035D02*
X0218411Y0080480D01*
X0218300Y0080591D01*
X0218855Y0081146D01*
X0218966Y0081035D01*
G37*
G36*
X0215514Y0076247D02*
X0214959Y0075692D01*
X0214848Y0075803D01*
X0215403Y0076358D01*
X0215514Y0076247D01*
G37*
D61*
G36*
X0215959Y0076025D02*
X0214847Y0074913D01*
X0214737Y0075023D01*
X0215849Y0076135D01*
X0215959Y0076025D01*
G37*
G36*
X0216071Y0075914D02*
X0214959Y0074802D01*
X0214849Y0074912D01*
X0215961Y0076024D01*
X0216071Y0075914D01*
G37*
G36*
X0220525Y0077250D02*
X0219413Y0076138D01*
X0219303Y0076248D01*
X0220415Y0077360D01*
X0220525Y0077250D01*
G37*
G36*
X0222418Y0081147D02*
X0221306Y0080035D01*
X0221196Y0080145D01*
X0222308Y0081257D01*
X0222418Y0081147D01*
G37*
G36*
X0222307Y0081259D02*
X0221195Y0080147D01*
X0221085Y0080257D01*
X0222197Y0081369D01*
X0222307Y0081259D01*
G37*
G36*
X0222195Y0081370D02*
X0221083Y0080258D01*
X0220973Y0080368D01*
X0222085Y0081480D01*
X0222195Y0081370D01*
G37*
G36*
X0222084Y0081481D02*
X0220972Y0080369D01*
X0220862Y0080479D01*
X0221974Y0081591D01*
X0222084Y0081481D01*
G37*
G36*
X0221973Y0081593D02*
X0220861Y0080481D01*
X0220751Y0080591D01*
X0221863Y0081703D01*
X0221973Y0081593D01*
G37*
D62*
G36*
X0220080Y0079699D02*
X0219747Y0079366D01*
X0219636Y0079477D01*
X0219969Y0079810D01*
X0220080Y0079699D01*
G37*
G36*
X0220192Y0079588D02*
X0219859Y0079255D01*
X0219748Y0079366D01*
X0220081Y0079699D01*
X0220192Y0079588D01*
G37*
G36*
X0220303Y0079477D02*
X0219970Y0079144D01*
X0219859Y0079255D01*
X0220192Y0079588D01*
X0220303Y0079477D01*
G37*
G36*
X0220414Y0079365D02*
X0220081Y0079032D01*
X0219970Y0079143D01*
X0220303Y0079476D01*
X0220414Y0079365D01*
G37*
G36*
X0220526Y0079254D02*
X0220193Y0078921D01*
X0220082Y0079032D01*
X0220415Y0079365D01*
X0220526Y0079254D01*
G37*
G36*
X0220637Y0079143D02*
X0220304Y0078810D01*
X0220193Y0078921D01*
X0220526Y0079254D01*
X0220637Y0079143D01*
G37*
G36*
X0220748Y0079031D02*
X0220415Y0078698D01*
X0220304Y0078809D01*
X0220637Y0079142D01*
X0220748Y0079031D01*
G37*
G36*
X0220860Y0078920D02*
X0220527Y0078587D01*
X0220416Y0078698D01*
X0220749Y0079031D01*
X0220860Y0078920D01*
G37*
G36*
X0220971Y0078809D02*
X0220638Y0078476D01*
X0220527Y0078587D01*
X0220860Y0078920D01*
X0220971Y0078809D01*
G37*
G36*
X0221082Y0078697D02*
X0220749Y0078364D01*
X0220638Y0078475D01*
X0220971Y0078808D01*
X0221082Y0078697D01*
G37*
G36*
X0221194Y0078586D02*
X0220861Y0078253D01*
X0220750Y0078364D01*
X0221083Y0078697D01*
X0221194Y0078586D01*
G37*
G36*
X0221305Y0078475D02*
X0220972Y0078142D01*
X0220861Y0078253D01*
X0221194Y0078586D01*
X0221305Y0078475D01*
G37*
G36*
X0221417Y0078363D02*
X0221084Y0078030D01*
X0220973Y0078141D01*
X0221306Y0078474D01*
X0221417Y0078363D01*
G37*
G36*
X0221528Y0078252D02*
X0221195Y0077919D01*
X0221084Y0078030D01*
X0221417Y0078363D01*
X0221528Y0078252D01*
G37*
G36*
X0219523Y0078252D02*
X0219190Y0077919D01*
X0219079Y0078030D01*
X0219412Y0078363D01*
X0219523Y0078252D01*
G37*
G36*
X0219412Y0078363D02*
X0219079Y0078030D01*
X0218968Y0078141D01*
X0219301Y0078474D01*
X0219412Y0078363D01*
G37*
G36*
X0219969Y0079811D02*
X0219636Y0079478D01*
X0219525Y0079589D01*
X0219858Y0079922D01*
X0219969Y0079811D01*
G37*
G36*
X0219858Y0079922D02*
X0219525Y0079589D01*
X0219414Y0079700D01*
X0219747Y0080033D01*
X0219858Y0079922D01*
G37*
G36*
X0219746Y0080033D02*
X0219413Y0079700D01*
X0219302Y0079811D01*
X0219635Y0080144D01*
X0219746Y0080033D01*
G37*
G36*
X0219635Y0080145D02*
X0219302Y0079812D01*
X0219191Y0079923D01*
X0219524Y0080256D01*
X0219635Y0080145D01*
G37*
G36*
X0219523Y0080256D02*
X0219190Y0079923D01*
X0219079Y0080034D01*
X0219412Y0080367D01*
X0219523Y0080256D01*
G37*
G36*
X0219412Y0080368D02*
X0219079Y0080035D01*
X0218968Y0080146D01*
X0219301Y0080479D01*
X0219412Y0080368D01*
G37*
G36*
X0219301Y0080479D02*
X0218968Y0080146D01*
X0218857Y0080257D01*
X0219190Y0080590D01*
X0219301Y0080479D01*
G37*
G36*
X0219189Y0080590D02*
X0218856Y0080257D01*
X0218745Y0080368D01*
X0219078Y0080701D01*
X0219189Y0080590D01*
G37*
G36*
X0219078Y0080702D02*
X0218745Y0080369D01*
X0218634Y0080480D01*
X0218967Y0080813D01*
X0219078Y0080702D01*
G37*
G36*
X0218187Y0078029D02*
X0217854Y0077696D01*
X0217743Y0077807D01*
X0218076Y0078140D01*
X0218187Y0078029D01*
G37*
G36*
X0217074Y0076916D02*
X0216741Y0076583D01*
X0216630Y0076694D01*
X0216963Y0077027D01*
X0217074Y0076916D01*
G37*
G36*
X0217185Y0076804D02*
X0216852Y0076471D01*
X0216741Y0076582D01*
X0217074Y0076915D01*
X0217185Y0076804D01*
G37*
G36*
X0217296Y0076693D02*
X0216963Y0076360D01*
X0216852Y0076471D01*
X0217185Y0076804D01*
X0217296Y0076693D01*
G37*
G36*
X0217408Y0076581D02*
X0217075Y0076248D01*
X0216964Y0076359D01*
X0217297Y0076692D01*
X0217408Y0076581D01*
G37*
G36*
X0217519Y0076470D02*
X0217186Y0076137D01*
X0217075Y0076248D01*
X0217408Y0076581D01*
X0217519Y0076470D01*
G37*
G36*
X0216962Y0077027D02*
X0216629Y0076694D01*
X0216518Y0076805D01*
X0216851Y0077138D01*
X0216962Y0077027D01*
G37*
G36*
X0216851Y0077138D02*
X0216518Y0076805D01*
X0216407Y0076916D01*
X0216740Y0077249D01*
X0216851Y0077138D01*
G37*
G36*
X0216740Y0077250D02*
X0216407Y0076917D01*
X0216296Y0077028D01*
X0216629Y0077361D01*
X0216740Y0077250D01*
G37*
G36*
X0216628Y0077361D02*
X0216295Y0077028D01*
X0216184Y0077139D01*
X0216517Y0077472D01*
X0216628Y0077361D01*
G37*
G36*
X0216517Y0077472D02*
X0216184Y0077139D01*
X0216073Y0077250D01*
X0216406Y0077583D01*
X0216517Y0077472D01*
G37*
G36*
X0216406Y0077584D02*
X0216073Y0077251D01*
X0215962Y0077362D01*
X0216295Y0077695D01*
X0216406Y0077584D01*
G37*
G36*
X0216294Y0077695D02*
X0215961Y0077362D01*
X0215850Y0077473D01*
X0216183Y0077806D01*
X0216294Y0077695D01*
G37*
D63*
G36*
X0217963Y0079588D02*
X0216963Y0078588D01*
X0216853Y0078698D01*
X0217853Y0079698D01*
X0217963Y0079588D01*
G37*
G36*
X0220302Y0077472D02*
X0219302Y0076472D01*
X0219192Y0076582D01*
X0220192Y0077582D01*
X0220302Y0077472D01*
G37*
G36*
X0220413Y0077361D02*
X0219413Y0076361D01*
X0219303Y0076471D01*
X0220303Y0077471D01*
X0220413Y0077361D01*
G37*
G36*
X0222418Y0080924D02*
X0221418Y0079924D01*
X0221308Y0080034D01*
X0222308Y0081034D01*
X0222418Y0080924D01*
G37*
G36*
X0221750Y0081592D02*
X0220750Y0080592D01*
X0220640Y0080702D01*
X0221640Y0081702D01*
X0221750Y0081592D01*
G37*
G36*
X0221638Y0081704D02*
X0220638Y0080704D01*
X0220528Y0080814D01*
X0221528Y0081814D01*
X0221638Y0081704D01*
G37*
G36*
X0215848Y0076136D02*
X0214848Y0075136D01*
X0214738Y0075246D01*
X0215738Y0076246D01*
X0215848Y0076136D01*
G37*
D64*
G36*
X0213843Y0075023D02*
X0211395Y0072575D01*
X0211285Y0072685D01*
X0213733Y0075133D01*
X0213843Y0075023D01*
G37*
G36*
X0213843Y0074800D02*
X0211395Y0072352D01*
X0211285Y0072462D01*
X0213733Y0074910D01*
X0213843Y0074800D01*
G37*
G36*
X0213955Y0074689D02*
X0211507Y0072241D01*
X0211397Y0072351D01*
X0213845Y0074799D01*
X0213955Y0074689D01*
G37*
G36*
X0214066Y0074354D02*
X0211618Y0071906D01*
X0211508Y0072016D01*
X0213956Y0074464D01*
X0214066Y0074354D01*
G37*
G36*
X0214178Y0074243D02*
X0211730Y0071795D01*
X0211620Y0071905D01*
X0214068Y0074353D01*
X0214178Y0074243D01*
G37*
G36*
X0215068Y0073352D02*
X0212620Y0070904D01*
X0212510Y0071014D01*
X0214958Y0073462D01*
X0215068Y0073352D01*
G37*
G36*
X0215848Y0073018D02*
X0213400Y0070570D01*
X0213290Y0070680D01*
X0215738Y0073128D01*
X0215848Y0073018D01*
G37*
G36*
X0215514Y0073130D02*
X0213066Y0070682D01*
X0212956Y0070792D01*
X0215404Y0073240D01*
X0215514Y0073130D01*
G37*
G36*
X0215180Y0073241D02*
X0212732Y0070793D01*
X0212622Y0070903D01*
X0215070Y0073351D01*
X0215180Y0073241D01*
G37*
G36*
X0225870Y0083486D02*
X0223422Y0081038D01*
X0223312Y0081148D01*
X0225760Y0083596D01*
X0225870Y0083486D01*
G37*
G36*
X0225758Y0083820D02*
X0223310Y0081372D01*
X0223200Y0081482D01*
X0225648Y0083930D01*
X0225758Y0083820D01*
G37*
G36*
X0224645Y0084933D02*
X0222197Y0082485D01*
X0222087Y0082595D01*
X0224535Y0085043D01*
X0224645Y0084933D01*
G37*
G36*
X0224311Y0085045D02*
X0221863Y0082597D01*
X0221753Y0082707D01*
X0224201Y0085155D01*
X0224311Y0085045D01*
G37*
G36*
X0224200Y0085156D02*
X0221752Y0082708D01*
X0221642Y0082818D01*
X0224090Y0085266D01*
X0224200Y0085156D01*
G37*
G36*
X0223977Y0085156D02*
X0221529Y0082708D01*
X0221419Y0082818D01*
X0223867Y0085266D01*
X0223977Y0085156D01*
G37*
D65*
G36*
X0223866Y0085268D02*
X0221306Y0082708D01*
X0221196Y0082818D01*
X0223756Y0085378D01*
X0223866Y0085268D01*
G37*
G36*
X0223643Y0085268D02*
X0221083Y0082708D01*
X0220973Y0082818D01*
X0223533Y0085378D01*
X0223643Y0085268D01*
G37*
G36*
X0225982Y0083375D02*
X0223422Y0080815D01*
X0223312Y0080925D01*
X0225872Y0083485D01*
X0225982Y0083375D01*
G37*
G36*
X0225982Y0083152D02*
X0223422Y0080592D01*
X0223312Y0080702D01*
X0225872Y0083262D01*
X0225982Y0083152D01*
G37*
G36*
X0213844Y0075468D02*
X0211284Y0072908D01*
X0211174Y0073018D01*
X0213734Y0075578D01*
X0213844Y0075468D01*
G37*
G36*
X0213844Y0075246D02*
X0211284Y0072686D01*
X0211174Y0072796D01*
X0213734Y0075356D01*
X0213844Y0075246D01*
G37*
G36*
X0215737Y0073130D02*
X0213177Y0070570D01*
X0213067Y0070680D01*
X0215627Y0073240D01*
X0215737Y0073130D01*
G37*
D66*
G36*
X0216182Y0074911D02*
X0215404Y0074133D01*
X0215294Y0074243D01*
X0216072Y0075021D01*
X0216182Y0074911D01*
G37*
G36*
X0217073Y0074911D02*
X0216295Y0074133D01*
X0216185Y0074243D01*
X0216963Y0075021D01*
X0217073Y0074911D01*
G37*
G36*
X0220080Y0077695D02*
X0219302Y0076917D01*
X0219192Y0077027D01*
X0219970Y0077805D01*
X0220080Y0077695D01*
G37*
G36*
X0218075Y0079032D02*
X0217297Y0078254D01*
X0217187Y0078364D01*
X0217965Y0079142D01*
X0218075Y0079032D01*
G37*
G36*
X0221193Y0081704D02*
X0220415Y0080926D01*
X0220305Y0081036D01*
X0221083Y0081814D01*
X0221193Y0081704D01*
G37*
G36*
X0222418Y0080479D02*
X0221640Y0079701D01*
X0221530Y0079811D01*
X0222308Y0080589D01*
X0222418Y0080479D01*
G37*
X0151857Y0076626D03*
X0148550Y0076626D03*
X0145991Y0076626D03*
X0145991Y0076075D03*
X0145991Y0075524D03*
X0145991Y0074972D03*
X0145991Y0074421D03*
X0145991Y0073870D03*
X0145991Y0073319D03*
X0140636Y0074421D03*
X0137329Y0074421D03*
X0135125Y0075524D03*
X0131621Y0074421D03*
X0131424Y0076626D03*
X0129219Y0077925D03*
X0125007Y0077925D03*
X0125007Y0078476D03*
X0125007Y0079028D03*
X0125007Y0077177D03*
X0125007Y0075524D03*
X0125007Y0074972D03*
X0125007Y0074421D03*
X0125007Y0073870D03*
X0125007Y0073319D03*
X0119298Y0073319D03*
X0119298Y0073870D03*
X0119298Y0074421D03*
X0119298Y0074972D03*
X0119298Y0075524D03*
X0119298Y0076075D03*
X0119298Y0076626D03*
X0119298Y0077177D03*
X0119298Y0077925D03*
X0119298Y0078476D03*
X0119298Y0079028D03*
X0119298Y0079579D03*
X0119298Y0080130D03*
X0117251Y0076626D03*
X0117251Y0074972D03*
X0117093Y0074421D03*
X0113589Y0075524D03*
X0113589Y0076075D03*
X0113747Y0076626D03*
X0111739Y0077177D03*
X0111542Y0076626D03*
X0111385Y0075524D03*
X0111188Y0074972D03*
X0110636Y0073319D03*
X0106778Y0075524D03*
X0106581Y0076075D03*
X0106385Y0077177D03*
X0106227Y0077925D03*
X0108983Y0077925D03*
X0111936Y0077925D03*
X0131818Y0083236D03*
X0134573Y0082685D03*
X0139180Y0082685D03*
X0145991Y0077925D03*
X0150046Y0084339D03*
D67*
G36*
X0213955Y0074466D02*
X0211618Y0072129D01*
X0211507Y0072240D01*
X0213844Y0074577D01*
X0213955Y0074466D01*
G37*
G36*
X0214178Y0074020D02*
X0211841Y0071683D01*
X0211730Y0071794D01*
X0214067Y0074131D01*
X0214178Y0074020D01*
G37*
G36*
X0214290Y0073909D02*
X0211953Y0071572D01*
X0211842Y0071683D01*
X0214179Y0074020D01*
X0214290Y0073909D01*
G37*
G36*
X0214401Y0073797D02*
X0212064Y0071460D01*
X0211953Y0071571D01*
X0214290Y0073908D01*
X0214401Y0073797D01*
G37*
G36*
X0214512Y0073686D02*
X0212175Y0071349D01*
X0212064Y0071460D01*
X0214401Y0073797D01*
X0214512Y0073686D01*
G37*
G36*
X0214624Y0073575D02*
X0212287Y0071238D01*
X0212176Y0071349D01*
X0214513Y0073686D01*
X0214624Y0073575D01*
G37*
G36*
X0214735Y0073463D02*
X0212398Y0071126D01*
X0212287Y0071237D01*
X0214624Y0073574D01*
X0214735Y0073463D01*
G37*
G36*
X0215292Y0073129D02*
X0212955Y0070792D01*
X0212844Y0070903D01*
X0215181Y0073240D01*
X0215292Y0073129D01*
G37*
G36*
X0214846Y0073352D02*
X0212509Y0071015D01*
X0212398Y0071126D01*
X0214735Y0073463D01*
X0214846Y0073352D01*
G37*
G36*
X0225759Y0083597D02*
X0223422Y0081260D01*
X0223311Y0081371D01*
X0225648Y0083708D01*
X0225759Y0083597D01*
G37*
G36*
X0225648Y0083931D02*
X0223311Y0081594D01*
X0223200Y0081705D01*
X0225537Y0084042D01*
X0225648Y0083931D01*
G37*
G36*
X0225536Y0084042D02*
X0223199Y0081705D01*
X0223088Y0081816D01*
X0225425Y0084153D01*
X0225536Y0084042D01*
G37*
G36*
X0225425Y0084153D02*
X0223088Y0081816D01*
X0222977Y0081927D01*
X0225314Y0084264D01*
X0225425Y0084153D01*
G37*
G36*
X0225314Y0084265D02*
X0222977Y0081928D01*
X0222866Y0082039D01*
X0225203Y0084376D01*
X0225314Y0084265D01*
G37*
G36*
X0225202Y0084376D02*
X0222865Y0082039D01*
X0222754Y0082150D01*
X0225091Y0084487D01*
X0225202Y0084376D01*
G37*
G36*
X0225091Y0084488D02*
X0222754Y0082151D01*
X0222643Y0082262D01*
X0224980Y0084599D01*
X0225091Y0084488D01*
G37*
G36*
X0224980Y0084599D02*
X0222643Y0082262D01*
X0222532Y0082373D01*
X0224869Y0084710D01*
X0224980Y0084599D01*
G37*
G36*
X0224868Y0084710D02*
X0222531Y0082373D01*
X0222420Y0082484D01*
X0224757Y0084821D01*
X0224868Y0084710D01*
G37*
G36*
X0224757Y0084822D02*
X0222420Y0082485D01*
X0222309Y0082596D01*
X0224646Y0084933D01*
X0224757Y0084822D01*
G37*
G36*
X0224423Y0084933D02*
X0222086Y0082596D01*
X0221975Y0082707D01*
X0224312Y0085044D01*
X0224423Y0084933D01*
G37*
D68*
G36*
X0222418Y0080256D02*
X0221752Y0079590D01*
X0221642Y0079700D01*
X0222308Y0080366D01*
X0222418Y0080256D01*
G37*
G36*
X0218075Y0078809D02*
X0217409Y0078143D01*
X0217299Y0078253D01*
X0217965Y0078919D01*
X0218075Y0078809D01*
G37*
G36*
X0219856Y0077918D02*
X0219190Y0077252D01*
X0219080Y0077362D01*
X0219746Y0078028D01*
X0219856Y0077918D01*
G37*
G36*
X0219968Y0077806D02*
X0219302Y0077140D01*
X0219192Y0077250D01*
X0219858Y0077916D01*
X0219968Y0077806D01*
G37*
G36*
X0216182Y0078029D02*
X0215516Y0077363D01*
X0215406Y0077473D01*
X0216072Y0078139D01*
X0216182Y0078029D01*
G37*
G36*
X0215625Y0075245D02*
X0214959Y0074579D01*
X0214849Y0074689D01*
X0215515Y0075355D01*
X0215625Y0075245D01*
G37*
G36*
X0215736Y0075134D02*
X0215070Y0074468D01*
X0214960Y0074578D01*
X0215626Y0075244D01*
X0215736Y0075134D01*
G37*
G36*
X0215848Y0075022D02*
X0215182Y0074356D01*
X0215072Y0074466D01*
X0215738Y0075132D01*
X0215848Y0075022D01*
G37*
G36*
X0215959Y0074911D02*
X0215293Y0074245D01*
X0215183Y0074355D01*
X0215849Y0075021D01*
X0215959Y0074911D01*
G37*
X0111463Y0076075D03*
X0109810Y0075524D03*
X0109613Y0076075D03*
X0106857Y0074972D03*
D69*
G36*
X0217964Y0076025D02*
X0215961Y0074022D01*
X0215850Y0074133D01*
X0217853Y0076136D01*
X0217964Y0076025D01*
G37*
D70*
G36*
X0217852Y0076136D02*
X0215738Y0074022D01*
X0215628Y0074132D01*
X0217742Y0076246D01*
X0217852Y0076136D01*
G37*
G36*
X0217741Y0076248D02*
X0215627Y0074134D01*
X0215517Y0074244D01*
X0217631Y0076358D01*
X0217741Y0076248D01*
G37*
D71*
G36*
X0218298Y0077473D02*
X0218188Y0077363D01*
X0218078Y0077473D01*
X0218188Y0077583D01*
X0218298Y0077473D01*
G37*
G36*
X0219189Y0078586D02*
X0219079Y0078476D01*
X0218969Y0078586D01*
X0219079Y0078696D01*
X0219189Y0078586D01*
G37*
D72*
G36*
X0219300Y0078474D02*
X0219079Y0078253D01*
X0218968Y0078364D01*
X0219189Y0078585D01*
X0219300Y0078474D01*
G37*
G36*
X0218298Y0077695D02*
X0218077Y0077474D01*
X0217966Y0077585D01*
X0218187Y0077806D01*
X0218298Y0077695D01*
G37*
G36*
X0218187Y0077806D02*
X0217966Y0077585D01*
X0217855Y0077696D01*
X0218076Y0077917D01*
X0218187Y0077806D01*
G37*
D73*
G36*
X0213955Y0075802D02*
X0211173Y0073020D01*
X0211063Y0073130D01*
X0213845Y0075912D01*
X0213955Y0075802D01*
G37*
G36*
X0223531Y0085379D02*
X0220749Y0082597D01*
X0220639Y0082707D01*
X0223421Y0085489D01*
X0223531Y0085379D01*
G37*
D74*
G36*
X0217964Y0079811D02*
X0216740Y0078587D01*
X0216630Y0078697D01*
X0217854Y0079921D01*
X0217964Y0079811D01*
G37*
D75*
X0157290Y0082862D03*
X0157290Y0083059D03*
X0157290Y0083413D03*
X0157290Y0083610D03*
X0157290Y0084516D03*
X0157290Y0084713D03*
X0157290Y0085067D03*
X0157290Y0085264D03*
X0157290Y0085618D03*
X0155282Y0085264D03*
X0155282Y0085067D03*
X0153432Y0085264D03*
X0152526Y0084161D03*
X0152526Y0083965D03*
X0152526Y0083610D03*
X0152526Y0083413D03*
X0151227Y0083965D03*
X0151227Y0084161D03*
X0151424Y0084516D03*
X0151424Y0084713D03*
X0148825Y0084161D03*
X0148825Y0083965D03*
X0148668Y0084516D03*
X0148668Y0084713D03*
X0148471Y0085067D03*
X0147526Y0083610D03*
X0147526Y0083413D03*
X0145873Y0084516D03*
X0146621Y0085264D03*
X0144613Y0084516D03*
X0144613Y0084161D03*
X0144613Y0083965D03*
X0144613Y0083610D03*
X0144613Y0083413D03*
X0144613Y0083059D03*
X0144613Y0082862D03*
X0142959Y0083610D03*
X0142762Y0084516D03*
X0142014Y0085264D03*
X0139259Y0085264D03*
X0138156Y0085264D03*
X0138156Y0085067D03*
X0138156Y0085618D03*
X0138156Y0085815D03*
X0138156Y0086169D03*
X0138156Y0086366D03*
X0138156Y0084161D03*
X0138156Y0083965D03*
X0138156Y0083610D03*
X0138156Y0083413D03*
X0135597Y0083413D03*
X0135597Y0083610D03*
X0135597Y0083965D03*
X0135597Y0084161D03*
X0135597Y0085264D03*
X0135597Y0085618D03*
X0135597Y0085815D03*
X0135597Y0086169D03*
X0135597Y0086366D03*
X0132644Y0084713D03*
X0132448Y0084161D03*
X0132251Y0083610D03*
X0131345Y0083610D03*
X0131148Y0084161D03*
X0130991Y0084516D03*
X0130991Y0084713D03*
X0130794Y0085067D03*
X0131896Y0082508D03*
X0131896Y0082311D03*
X0131896Y0082114D03*
X0132093Y0081760D03*
X0132093Y0081563D03*
X0133747Y0083413D03*
X0133747Y0083610D03*
X0148668Y0074244D03*
D76*
X0140007Y0077551D03*
X0138904Y0078299D03*
X0133196Y0078299D03*
X0137802Y0075150D03*
X0146621Y0082862D03*
X0153432Y0082862D03*
X0156739Y0083965D03*
X0156739Y0086169D03*
X0115518Y0078299D03*
X0114219Y0077354D03*
X0110715Y0074244D03*
X0109062Y0076803D03*
X0109062Y0077000D03*
X0107408Y0074244D03*
X0107408Y0074047D03*
D77*
X0138983Y0084890D03*
X0146699Y0083787D03*
X0156463Y0085992D03*
X0139731Y0076075D03*
D78*
X0138156Y0082685D03*
X0138156Y0083787D03*
X0138156Y0084339D03*
X0138156Y0085441D03*
X0138156Y0085992D03*
X0135597Y0085992D03*
X0135597Y0085441D03*
X0135597Y0084339D03*
X0135597Y0083787D03*
X0135597Y0082685D03*
X0133747Y0084339D03*
X0132448Y0084339D03*
X0132251Y0083787D03*
X0131345Y0083787D03*
X0131148Y0084339D03*
X0130991Y0084890D03*
X0132093Y0081937D03*
X0141109Y0083236D03*
X0141109Y0084339D03*
X0142762Y0083236D03*
X0144613Y0083236D03*
X0144613Y0082685D03*
X0144613Y0083787D03*
X0144613Y0084339D03*
X0145873Y0084339D03*
X0145873Y0083236D03*
X0147526Y0084339D03*
X0148668Y0084339D03*
X0148668Y0084890D03*
X0148825Y0083787D03*
X0151227Y0083787D03*
X0152526Y0083787D03*
X0152526Y0084339D03*
X0155282Y0084890D03*
X0157290Y0084890D03*
X0157290Y0085441D03*
X0157290Y0083787D03*
X0157290Y0083236D03*
X0157290Y0082685D03*
D79*
X0156385Y0085815D03*
X0146621Y0083965D03*
X0138156Y0075346D03*
D80*
X0138885Y0072945D03*
X0133176Y0072945D03*
X0148648Y0074047D03*
X0149199Y0083059D03*
X0142585Y0083059D03*
X0139633Y0083059D03*
X0155459Y0084516D03*
X0155459Y0085618D03*
X0111837Y0077551D03*
X0111640Y0076803D03*
X0111286Y0075346D03*
X0109987Y0075346D03*
X0109987Y0075150D03*
X0108333Y0075701D03*
X0108333Y0075898D03*
X0108136Y0075346D03*
X0108136Y0075150D03*
X0106680Y0075701D03*
X0106680Y0075898D03*
X0106483Y0076449D03*
D81*
X0108058Y0074972D03*
X0131798Y0082685D03*
X0133648Y0083787D03*
X0135499Y0083236D03*
X0138255Y0083236D03*
X0139908Y0083236D03*
X0142861Y0084339D03*
X0150026Y0084890D03*
X0151325Y0084339D03*
X0150774Y0082685D03*
X0154278Y0083236D03*
X0155381Y0085441D03*
D82*
X0149672Y0083965D03*
X0143766Y0085264D03*
X0134554Y0085264D03*
D83*
X0139259Y0085067D03*
X0146621Y0085067D03*
X0153432Y0085067D03*
X0151778Y0077000D03*
X0142762Y0077000D03*
X0142762Y0076803D03*
X0142762Y0076449D03*
X0142762Y0076252D03*
X0142762Y0075898D03*
X0142762Y0075701D03*
X0142762Y0075346D03*
X0142762Y0075150D03*
X0142762Y0074795D03*
X0142762Y0074598D03*
X0142762Y0074244D03*
X0142762Y0074047D03*
X0142762Y0073693D03*
X0142762Y0073496D03*
X0142762Y0073142D03*
X0140361Y0074047D03*
X0140361Y0076449D03*
X0137605Y0077354D03*
X0131345Y0076252D03*
X0131345Y0075898D03*
X0131345Y0075701D03*
X0131345Y0075346D03*
X0131345Y0075150D03*
X0131896Y0074047D03*
X0117172Y0074598D03*
X0117172Y0076803D03*
X0113668Y0076449D03*
X0113668Y0076252D03*
X0113668Y0075150D03*
X0113668Y0074795D03*
X0107408Y0073693D03*
X0107408Y0073496D03*
D84*
X0132723Y0085067D03*
X0133825Y0084516D03*
X0140085Y0084161D03*
X0140085Y0083965D03*
X0140085Y0083610D03*
X0140085Y0083413D03*
X0147448Y0084516D03*
X0149298Y0082862D03*
X0151503Y0085067D03*
X0152605Y0084516D03*
D85*
X0152782Y0084713D03*
X0154081Y0084713D03*
X0154278Y0084516D03*
X0155381Y0084713D03*
X0154081Y0083059D03*
X0152782Y0083059D03*
X0150774Y0083059D03*
X0150774Y0082862D03*
X0150026Y0084516D03*
X0150026Y0084713D03*
X0150026Y0085067D03*
X0147270Y0084713D03*
X0145971Y0084713D03*
X0145971Y0083059D03*
X0147270Y0083059D03*
X0142861Y0083413D03*
X0142664Y0084713D03*
X0141365Y0084713D03*
X0141207Y0084516D03*
X0139908Y0084516D03*
X0138255Y0084516D03*
X0135499Y0084516D03*
X0133648Y0084161D03*
X0133648Y0083965D03*
X0132546Y0084516D03*
X0132349Y0083965D03*
X0131247Y0083965D03*
X0131798Y0082862D03*
X0141365Y0083059D03*
D86*
X0141936Y0085067D03*
X0144140Y0085067D03*
X0144140Y0084713D03*
X0143038Y0077354D03*
X0140085Y0076252D03*
X0134573Y0074047D03*
X0151503Y0074047D03*
X0151503Y0077354D03*
X0116896Y0074047D03*
X0110636Y0074047D03*
D87*
X0107408Y0074795D03*
X0115518Y0073142D03*
X0134849Y0085067D03*
X0143865Y0078102D03*
D88*
X0148825Y0073870D03*
X0151227Y0073870D03*
X0153432Y0084890D03*
X0146621Y0084890D03*
X0134298Y0073870D03*
X0132093Y0073870D03*
X0116621Y0073870D03*
X0114416Y0073870D03*
X0107408Y0074421D03*
D89*
X0132723Y0084890D03*
X0133825Y0083236D03*
X0140085Y0083787D03*
X0140085Y0084339D03*
X0147448Y0083236D03*
X0149298Y0082685D03*
X0151503Y0084890D03*
X0152605Y0083236D03*
D90*
X0144140Y0084890D03*
X0145794Y0077177D03*
X0127566Y0077925D03*
X0124810Y0076075D03*
X0110636Y0073870D03*
X0108983Y0077177D03*
D91*
X0108963Y0076626D03*
X0128845Y0077177D03*
X0141916Y0084890D03*
D92*
X0134751Y0084890D03*
D93*
X0107408Y0073142D03*
X0106857Y0075150D03*
X0106857Y0075346D03*
X0108510Y0076252D03*
X0108510Y0076449D03*
X0109613Y0076449D03*
X0109613Y0076252D03*
X0109810Y0075898D03*
X0109810Y0075701D03*
X0111463Y0075898D03*
X0112014Y0078299D03*
X0109062Y0078299D03*
X0109062Y0078102D03*
X0106306Y0077354D03*
X0115518Y0072945D03*
X0129140Y0078299D03*
X0134101Y0083059D03*
X0134101Y0084713D03*
X0135400Y0084713D03*
X0139810Y0084713D03*
X0150125Y0072945D03*
D94*
X0151857Y0074598D03*
X0152054Y0075150D03*
X0151857Y0076803D03*
X0148747Y0077000D03*
X0148550Y0076803D03*
X0148550Y0076449D03*
X0148550Y0076252D03*
X0145991Y0076252D03*
X0145991Y0076449D03*
X0145991Y0076803D03*
X0145991Y0075898D03*
X0145991Y0075701D03*
X0145991Y0075346D03*
X0145991Y0075150D03*
X0145991Y0074795D03*
X0145991Y0074598D03*
X0145991Y0074244D03*
X0145991Y0074047D03*
X0145991Y0073693D03*
X0145991Y0073496D03*
X0145991Y0073142D03*
X0140636Y0074598D03*
X0140440Y0074244D03*
X0140440Y0076803D03*
X0140440Y0077000D03*
X0137329Y0076803D03*
X0137329Y0074598D03*
X0137329Y0074244D03*
X0134928Y0074598D03*
X0135125Y0075346D03*
X0135125Y0075701D03*
X0135125Y0075898D03*
X0131424Y0076449D03*
X0131424Y0074795D03*
X0129219Y0078102D03*
X0127369Y0078299D03*
X0125007Y0078299D03*
X0125007Y0078102D03*
X0125007Y0077748D03*
X0125007Y0077551D03*
X0125007Y0077354D03*
X0125007Y0078654D03*
X0125007Y0078850D03*
X0125007Y0075898D03*
X0125007Y0075701D03*
X0125007Y0075346D03*
X0125007Y0075150D03*
X0125007Y0074795D03*
X0125007Y0074598D03*
X0125007Y0074244D03*
X0125007Y0074047D03*
X0125007Y0073693D03*
X0125007Y0073496D03*
X0125007Y0073142D03*
X0119298Y0073142D03*
X0119298Y0073496D03*
X0119298Y0073693D03*
X0119298Y0074047D03*
X0119298Y0074244D03*
X0119298Y0074598D03*
X0119298Y0074795D03*
X0119298Y0075150D03*
X0119298Y0075346D03*
X0119298Y0075701D03*
X0119298Y0075898D03*
X0119298Y0076252D03*
X0119298Y0076449D03*
X0119298Y0076803D03*
X0119298Y0077000D03*
X0119298Y0077354D03*
X0119298Y0077551D03*
X0119298Y0077748D03*
X0119298Y0078102D03*
X0119298Y0078299D03*
X0119298Y0078654D03*
X0119298Y0078850D03*
X0119298Y0079205D03*
X0119298Y0079402D03*
X0119298Y0079756D03*
X0119298Y0079953D03*
X0117093Y0077000D03*
X0117251Y0076449D03*
X0117251Y0074795D03*
X0113747Y0074598D03*
X0113589Y0075346D03*
X0113589Y0075701D03*
X0113589Y0075898D03*
X0111542Y0076252D03*
X0111542Y0076449D03*
X0111739Y0077000D03*
X0111739Y0077354D03*
X0111936Y0077748D03*
X0111936Y0078102D03*
X0111385Y0075701D03*
X0111188Y0075150D03*
X0110636Y0073496D03*
X0110636Y0073142D03*
X0106581Y0076252D03*
X0106385Y0076803D03*
X0106385Y0077000D03*
X0106227Y0077551D03*
X0106227Y0077748D03*
X0106030Y0078102D03*
X0106030Y0078299D03*
X0131818Y0083059D03*
X0131818Y0083413D03*
X0138432Y0083059D03*
X0138432Y0084713D03*
X0145991Y0078299D03*
X0145991Y0078102D03*
X0149298Y0083413D03*
X0150046Y0084161D03*
X0150755Y0083610D03*
X0150755Y0083413D03*
D95*
X0156385Y0084339D03*
X0143865Y0077925D03*
D96*
X0154357Y0083787D03*
X0154357Y0084339D03*
D97*
X0156463Y0084161D03*
X0150203Y0078102D03*
X0150046Y0073142D03*
X0138983Y0082862D03*
X0146699Y0084161D03*
D98*
X0154357Y0084161D03*
X0154357Y0083965D03*
X0154357Y0083610D03*
X0154357Y0083413D03*
D99*
X0142034Y0083965D03*
X0142034Y0084161D03*
X0138885Y0078102D03*
X0133176Y0078102D03*
X0138885Y0073142D03*
X0115499Y0078102D03*
D100*
X0150400Y0083965D03*
D101*
X0150400Y0083787D03*
D102*
X0149672Y0083787D03*
D103*
X0142034Y0083787D03*
D104*
X0149199Y0083610D03*
X0154711Y0078850D03*
X0154711Y0078654D03*
X0154711Y0078299D03*
X0154711Y0078102D03*
X0154711Y0077748D03*
X0154711Y0077551D03*
X0154711Y0077354D03*
X0154711Y0077000D03*
X0154711Y0076803D03*
X0154711Y0076449D03*
X0154711Y0076252D03*
X0154711Y0075898D03*
X0154711Y0075701D03*
X0154711Y0075346D03*
X0154711Y0075150D03*
X0154711Y0074795D03*
X0154711Y0074598D03*
X0154711Y0074244D03*
X0154711Y0074047D03*
X0154711Y0073693D03*
X0154711Y0073496D03*
X0154711Y0073142D03*
X0151955Y0074795D03*
X0151601Y0074244D03*
X0151955Y0076252D03*
X0151955Y0076449D03*
X0145892Y0077000D03*
X0140184Y0077354D03*
X0137428Y0077000D03*
X0137428Y0074795D03*
X0137428Y0074047D03*
X0135026Y0074795D03*
X0135026Y0075150D03*
X0134672Y0074244D03*
X0135026Y0076252D03*
X0135026Y0076449D03*
X0134829Y0076803D03*
X0134829Y0077000D03*
X0131719Y0077000D03*
X0131522Y0076803D03*
X0131522Y0074598D03*
X0131719Y0074244D03*
X0129121Y0074244D03*
X0129121Y0074047D03*
X0129121Y0073693D03*
X0129121Y0073496D03*
X0129121Y0073142D03*
X0129121Y0074598D03*
X0129121Y0074795D03*
X0129121Y0075150D03*
X0129121Y0075346D03*
X0129121Y0075701D03*
X0129121Y0075898D03*
X0129121Y0076252D03*
X0129121Y0076449D03*
X0129121Y0076803D03*
X0127467Y0078102D03*
X0117349Y0076252D03*
X0117349Y0075898D03*
X0117349Y0075701D03*
X0117349Y0075346D03*
X0117349Y0075150D03*
X0116995Y0074244D03*
X0114042Y0074244D03*
X0113845Y0076803D03*
X0113845Y0077000D03*
X0110735Y0073693D03*
X0109081Y0077354D03*
X0109081Y0077551D03*
X0109081Y0077748D03*
D105*
X0108333Y0076075D03*
X0108136Y0075524D03*
X0109987Y0074972D03*
X0106483Y0076626D03*
X0149199Y0083236D03*
X0150853Y0083236D03*
D106*
X0135302Y0083059D03*
D107*
X0141916Y0082862D03*
X0145617Y0077354D03*
X0107507Y0074598D03*
D108*
X0134751Y0082862D03*
D109*
X0142034Y0082685D03*
X0142940Y0077177D03*
X0140184Y0073870D03*
X0137428Y0077177D03*
X0135026Y0076626D03*
X0135026Y0076075D03*
X0135026Y0074972D03*
X0134829Y0074421D03*
X0134672Y0077177D03*
X0131719Y0077177D03*
X0129121Y0076626D03*
X0129121Y0076075D03*
X0129121Y0075524D03*
X0129121Y0074972D03*
X0129121Y0074421D03*
X0129121Y0073870D03*
X0129121Y0073319D03*
X0117349Y0075524D03*
X0117349Y0076075D03*
X0116995Y0077177D03*
X0114042Y0077177D03*
X0113845Y0074421D03*
X0148845Y0077177D03*
X0151601Y0077177D03*
X0151955Y0074972D03*
X0154711Y0074972D03*
X0154711Y0074421D03*
X0154711Y0073870D03*
X0154711Y0073319D03*
X0154711Y0075524D03*
X0154711Y0076075D03*
X0154711Y0076626D03*
X0154711Y0077177D03*
X0154711Y0077925D03*
X0154711Y0078476D03*
X0154711Y0079028D03*
D110*
X0154711Y0079579D03*
X0154711Y0080130D03*
D111*
X0123333Y0080130D03*
X0123333Y0079579D03*
D112*
X0154711Y0079402D03*
X0154711Y0079205D03*
X0154711Y0079756D03*
X0154711Y0079953D03*
D113*
X0123333Y0079953D03*
X0123333Y0079756D03*
X0123333Y0079402D03*
X0123333Y0079205D03*
D114*
X0129042Y0077000D03*
X0131995Y0077354D03*
X0143766Y0078299D03*
X0148924Y0077354D03*
X0150223Y0078299D03*
X0116719Y0077354D03*
X0114121Y0074047D03*
D115*
X0115420Y0077925D03*
X0150223Y0077925D03*
D116*
X0138885Y0077925D03*
D117*
X0133274Y0077925D03*
D118*
X0150203Y0077748D03*
X0150046Y0073496D03*
D119*
X0144514Y0077748D03*
X0123530Y0077000D03*
X0123530Y0076803D03*
X0123530Y0076449D03*
X0123530Y0076252D03*
D120*
X0115499Y0077748D03*
X0115499Y0073693D03*
X0133176Y0073693D03*
X0138885Y0073496D03*
X0138885Y0077748D03*
X0133176Y0077748D03*
D121*
X0128294Y0077748D03*
X0128294Y0077551D03*
X0128294Y0077354D03*
D122*
X0115420Y0077551D03*
X0150223Y0077551D03*
X0150026Y0073693D03*
D123*
X0144416Y0077551D03*
D124*
X0137881Y0077551D03*
X0110636Y0074795D03*
X0110636Y0074598D03*
D125*
X0133274Y0077551D03*
D126*
X0134475Y0077354D03*
D127*
X0123530Y0076626D03*
D128*
X0150302Y0076075D03*
X0150302Y0075524D03*
D129*
X0150302Y0075701D03*
X0150302Y0075898D03*
X0150302Y0075346D03*
D130*
X0139259Y0075898D03*
X0138904Y0075701D03*
D131*
X0138510Y0075524D03*
X0138904Y0073319D03*
X0133196Y0073319D03*
X0150125Y0073319D03*
X0115518Y0073319D03*
D132*
X0107507Y0073870D03*
X0137507Y0074972D03*
D133*
X0148648Y0074421D03*
D134*
X0110636Y0074421D03*
D135*
X0138904Y0073693D03*
D136*
X0133176Y0073496D03*
D137*
X0115518Y0073496D03*
D138*
X0133176Y0073142D03*
D139*
X0190613Y0192382D02*
X0190810Y0192539D01*
X0191007Y0192736D01*
X0191400Y0193051D01*
X0191755Y0193406D01*
X0191951Y0193563D01*
X0192148Y0193760D01*
X0192148Y0201004D01*
X0191951Y0201043D01*
X0191794Y0201083D01*
X0191597Y0201122D01*
X0191440Y0201122D01*
X0191046Y0201201D01*
X0190888Y0201240D01*
X0190692Y0201280D01*
X0190692Y0200571D01*
X0190377Y0200965D01*
X0189983Y0201201D01*
X0189747Y0201319D01*
X0189038Y0201437D01*
X0188408Y0201358D01*
X0187896Y0201161D01*
X0187463Y0200886D01*
X0187109Y0200531D01*
X0186833Y0200059D01*
X0186636Y0199547D01*
X0186518Y0198996D01*
X0186518Y0198445D01*
X0188014Y0198484D01*
X0188093Y0199114D01*
X0188211Y0199429D01*
X0188329Y0199705D01*
X0188526Y0199941D01*
X0188762Y0200098D01*
X0189038Y0200217D01*
X0189353Y0200256D01*
X0189707Y0200217D01*
X0189983Y0200098D01*
X0190219Y0199941D01*
X0190416Y0199705D01*
X0190534Y0199429D01*
X0190692Y0198799D01*
X0190692Y0198130D01*
X0190534Y0197500D01*
X0190219Y0197028D01*
X0189983Y0196870D01*
X0189707Y0196752D01*
X0189353Y0196713D01*
X0188999Y0196752D01*
X0188723Y0196870D01*
X0188487Y0197028D01*
X0188172Y0197500D01*
X0186833Y0196870D01*
X0187109Y0196437D01*
X0187463Y0196083D01*
X0187857Y0195807D01*
X0188369Y0195610D01*
X0188959Y0195571D01*
X0189196Y0195571D01*
X0189432Y0195610D01*
X0189904Y0195768D01*
X0190101Y0195886D01*
X0190298Y0196043D01*
X0190455Y0196201D01*
X0190613Y0196398D01*
X0190613Y0192382D01*
X0190613Y0192601D02*
X0190871Y0192601D01*
X0190613Y0192899D02*
X0191210Y0192899D01*
X0191547Y0193198D02*
X0190613Y0193198D01*
X0190613Y0193496D02*
X0191868Y0193496D01*
X0192148Y0193795D02*
X0190613Y0193795D01*
X0190613Y0194093D02*
X0192148Y0194093D01*
X0192148Y0194392D02*
X0190613Y0194392D01*
X0190613Y0194690D02*
X0192148Y0194690D01*
X0192148Y0194989D02*
X0190613Y0194989D01*
X0190613Y0195287D02*
X0192148Y0195287D01*
X0192148Y0195586D02*
X0190613Y0195586D01*
X0190613Y0195884D02*
X0192148Y0195884D01*
X0192148Y0196183D02*
X0190613Y0196183D01*
X0190437Y0196183D02*
X0187363Y0196183D01*
X0187081Y0196481D02*
X0192148Y0196481D01*
X0192148Y0196780D02*
X0189773Y0196780D01*
X0190253Y0197078D02*
X0192148Y0197078D01*
X0192148Y0197377D02*
X0190452Y0197377D01*
X0190578Y0197675D02*
X0192148Y0197675D01*
X0192148Y0197974D02*
X0190653Y0197974D01*
X0190692Y0198272D02*
X0192148Y0198272D01*
X0192148Y0198571D02*
X0190692Y0198571D01*
X0190674Y0198870D02*
X0192148Y0198870D01*
X0192148Y0199168D02*
X0190599Y0199168D01*
X0190518Y0199467D02*
X0192148Y0199467D01*
X0192148Y0199765D02*
X0190366Y0199765D01*
X0190035Y0200064D02*
X0192148Y0200064D01*
X0192148Y0200362D02*
X0187010Y0200362D01*
X0186836Y0200064D02*
X0188710Y0200064D01*
X0188380Y0199765D02*
X0186720Y0199765D01*
X0186619Y0199467D02*
X0188227Y0199467D01*
X0188113Y0199168D02*
X0186555Y0199168D01*
X0186518Y0198870D02*
X0188063Y0198870D01*
X0188025Y0198571D02*
X0186518Y0198571D01*
X0186518Y0198445D02*
X0186558Y0197894D01*
X0186636Y0197343D01*
X0186833Y0196870D01*
X0188172Y0197500D01*
X0188093Y0197815D01*
X0188054Y0198130D01*
X0188014Y0198484D01*
X0186518Y0198445D01*
X0186531Y0198272D02*
X0188038Y0198272D01*
X0188073Y0197974D02*
X0186552Y0197974D01*
X0186589Y0197675D02*
X0188128Y0197675D01*
X0188254Y0197377D02*
X0187910Y0197377D01*
X0186632Y0197377D01*
X0186747Y0197078D02*
X0187276Y0197078D01*
X0188453Y0197078D01*
X0188933Y0196780D02*
X0186891Y0196780D01*
X0186046Y0196988D02*
X0186046Y0197185D01*
X0186007Y0197618D01*
X0185888Y0197972D01*
X0185692Y0198248D01*
X0185455Y0198484D01*
X0185180Y0198642D01*
X0184865Y0198760D01*
X0184510Y0198839D01*
X0184196Y0198878D01*
X0183881Y0198051D01*
X0184274Y0197854D01*
X0184432Y0197697D01*
X0184510Y0197539D01*
X0184510Y0197382D01*
X0184550Y0197264D01*
X0184510Y0197185D01*
X0184510Y0197106D01*
X0184471Y0196988D01*
X0184471Y0196949D01*
X0184432Y0196870D01*
X0184314Y0196752D01*
X0184235Y0196713D01*
X0184196Y0196673D01*
X0184117Y0196634D01*
X0184038Y0196634D01*
X0183959Y0196594D01*
X0183369Y0196594D01*
X0182896Y0196713D01*
X0182778Y0196791D01*
X0182581Y0196988D01*
X0182542Y0197106D01*
X0182463Y0197185D01*
X0182424Y0197303D01*
X0182424Y0197421D01*
X0182385Y0197500D01*
X0182385Y0197618D01*
X0182345Y0197697D01*
X0182345Y0198445D01*
X0182424Y0198406D01*
X0182463Y0198366D01*
X0182542Y0198327D01*
X0182581Y0198287D01*
X0182660Y0198287D01*
X0182818Y0198209D01*
X0183014Y0198209D01*
X0183172Y0199035D01*
X0182896Y0199075D01*
X0182660Y0199154D01*
X0182503Y0199272D01*
X0182385Y0199429D01*
X0182345Y0199626D01*
X0182345Y0199744D01*
X0182385Y0199862D01*
X0182385Y0199941D01*
X0182463Y0200098D01*
X0182581Y0200217D01*
X0182818Y0200335D01*
X0182896Y0200335D01*
X0182975Y0200374D01*
X0183251Y0200374D01*
X0183329Y0200413D01*
X0183448Y0200374D01*
X0183644Y0200374D01*
X0183762Y0200335D01*
X0183841Y0200335D01*
X0183999Y0200256D01*
X0184235Y0200020D01*
X0184314Y0199862D01*
X0184314Y0199744D01*
X0184353Y0199665D01*
X0184353Y0199547D01*
X0185888Y0199547D01*
X0185849Y0199823D01*
X0185810Y0200020D01*
X0185731Y0200256D01*
X0185613Y0200453D01*
X0185495Y0200610D01*
X0185337Y0200768D01*
X0185022Y0201004D01*
X0184825Y0201122D01*
X0184432Y0201280D01*
X0183723Y0201398D01*
X0182857Y0201398D01*
X0182621Y0201358D01*
X0182424Y0201358D01*
X0182227Y0201319D01*
X0181991Y0201240D01*
X0181833Y0201201D01*
X0181636Y0201122D01*
X0181479Y0201043D01*
X0181322Y0200925D01*
X0181046Y0200650D01*
X0180967Y0200453D01*
X0180888Y0200295D01*
X0180810Y0199823D01*
X0180810Y0196280D01*
X0180770Y0196201D01*
X0180770Y0196043D01*
X0180731Y0195965D01*
X0180731Y0195925D01*
X0180692Y0195846D01*
X0180692Y0195807D01*
X0180652Y0195728D01*
X0180652Y0195689D01*
X0182188Y0195689D01*
X0182188Y0195768D01*
X0182227Y0195807D01*
X0182227Y0195846D01*
X0182266Y0195886D01*
X0182266Y0196122D01*
X0182306Y0196161D01*
X0182306Y0196240D01*
X0182385Y0196161D01*
X0182463Y0196043D01*
X0182581Y0195965D01*
X0182699Y0195925D01*
X0182818Y0195846D01*
X0182896Y0195807D01*
X0183014Y0195728D01*
X0183133Y0195689D01*
X0183290Y0195650D01*
X0183408Y0195610D01*
X0183526Y0195610D01*
X0183644Y0195571D01*
X0183920Y0195571D01*
X0184038Y0195531D01*
X0184353Y0195531D01*
X0184550Y0195571D01*
X0184747Y0195571D01*
X0184904Y0195650D01*
X0185062Y0195689D01*
X0185377Y0195846D01*
X0185495Y0195925D01*
X0185731Y0196161D01*
X0185849Y0196319D01*
X0185928Y0196476D01*
X0186007Y0196791D01*
X0186046Y0196988D01*
X0186046Y0197078D02*
X0184501Y0197078D01*
X0184512Y0197377D02*
X0186028Y0197377D01*
X0185987Y0197675D02*
X0184442Y0197675D01*
X0184035Y0197974D02*
X0185887Y0197974D01*
X0185667Y0198272D02*
X0183965Y0198272D01*
X0183027Y0198272D01*
X0182690Y0198272D01*
X0183014Y0198209D02*
X0183093Y0198169D01*
X0183251Y0198169D01*
X0183369Y0198130D01*
X0183526Y0198130D01*
X0183644Y0198091D01*
X0183723Y0198091D01*
X0183802Y0198051D01*
X0183881Y0198051D01*
X0184196Y0198878D01*
X0183841Y0198957D01*
X0183487Y0198996D01*
X0183172Y0199035D01*
X0183014Y0198209D01*
X0183083Y0198571D02*
X0180810Y0198571D01*
X0180810Y0198870D02*
X0183140Y0198870D01*
X0184192Y0198870D01*
X0184263Y0198870D01*
X0184079Y0198571D02*
X0185304Y0198571D01*
X0184079Y0198571D02*
X0183083Y0198571D01*
X0182641Y0199168D02*
X0180810Y0199168D01*
X0180810Y0199467D02*
X0182377Y0199467D01*
X0182352Y0199765D02*
X0180810Y0199765D01*
X0180850Y0200064D02*
X0182446Y0200064D01*
X0182951Y0200362D02*
X0180922Y0200362D01*
X0181057Y0200661D02*
X0185444Y0200661D01*
X0185667Y0200362D02*
X0183680Y0200362D01*
X0184191Y0200064D02*
X0185795Y0200064D01*
X0185857Y0199765D02*
X0184314Y0199765D01*
X0185082Y0200959D02*
X0181367Y0200959D01*
X0182043Y0201258D02*
X0184487Y0201258D01*
X0187238Y0200661D02*
X0190620Y0200661D01*
X0190692Y0200661D02*
X0192148Y0200661D01*
X0192148Y0200959D02*
X0190692Y0200959D01*
X0190692Y0201258D02*
X0190801Y0201258D01*
X0190381Y0200959D02*
X0187578Y0200959D01*
X0188146Y0201258D02*
X0189869Y0201258D01*
X0193014Y0200098D02*
X0192936Y0199665D01*
X0194392Y0199665D01*
X0194432Y0199862D01*
X0194471Y0200020D01*
X0194707Y0200256D01*
X0194865Y0200335D01*
X0195022Y0200374D01*
X0195219Y0200413D01*
X0195573Y0200413D01*
X0195692Y0200374D01*
X0195849Y0200374D01*
X0195967Y0200335D01*
X0196203Y0200177D01*
X0196243Y0200059D01*
X0196282Y0199902D01*
X0196243Y0199705D01*
X0196125Y0199547D01*
X0195967Y0199429D01*
X0195731Y0199350D01*
X0195180Y0199193D01*
X0194865Y0199154D01*
X0194550Y0199075D01*
X0194196Y0198996D01*
X0193881Y0198878D01*
X0193605Y0198760D01*
X0193329Y0198602D01*
X0193093Y0198406D01*
X0192936Y0198169D01*
X0192818Y0197854D01*
X0192778Y0197500D01*
X0192818Y0196988D01*
X0193014Y0196594D01*
X0193251Y0196240D01*
X0193566Y0196004D01*
X0193959Y0195807D01*
X0194392Y0195650D01*
X0194865Y0195571D01*
X0195810Y0195571D01*
X0196282Y0195650D01*
X0196715Y0195807D01*
X0197109Y0196004D01*
X0197424Y0196240D01*
X0197699Y0196594D01*
X0197857Y0197028D01*
X0197936Y0197500D01*
X0196479Y0197500D01*
X0196440Y0197264D01*
X0196361Y0197106D01*
X0196282Y0196909D01*
X0196125Y0196791D01*
X0195731Y0196634D01*
X0195534Y0196594D01*
X0195298Y0196555D01*
X0195140Y0196594D01*
X0194983Y0196594D01*
X0194786Y0196673D01*
X0194629Y0196713D01*
X0194392Y0196949D01*
X0194314Y0197106D01*
X0194314Y0197303D01*
X0194353Y0197461D01*
X0194432Y0197579D01*
X0194550Y0197697D01*
X0194747Y0197815D01*
X0195298Y0197972D01*
X0195652Y0198051D01*
X0196046Y0198130D01*
X0196361Y0198248D01*
X0196676Y0198327D01*
X0196991Y0198445D01*
X0197266Y0198602D01*
X0197660Y0198996D01*
X0197778Y0199311D01*
X0197818Y0199626D01*
X0197739Y0200138D01*
X0197581Y0200531D01*
X0197345Y0200807D01*
X0197030Y0201043D01*
X0196676Y0201240D01*
X0196282Y0201358D01*
X0195849Y0201398D01*
X0195377Y0201437D01*
X0194510Y0201358D01*
X0194117Y0201240D01*
X0193762Y0201043D01*
X0193448Y0200807D01*
X0193172Y0200492D01*
X0193014Y0200098D01*
X0193008Y0200064D02*
X0194515Y0200064D01*
X0194412Y0199765D02*
X0192954Y0199765D01*
X0193120Y0200362D02*
X0194975Y0200362D01*
X0195885Y0200362D02*
X0197649Y0200362D01*
X0197750Y0200064D02*
X0196241Y0200064D01*
X0196255Y0199765D02*
X0197796Y0199765D01*
X0197798Y0199467D02*
X0196017Y0199467D01*
X0194981Y0199168D02*
X0197725Y0199168D01*
X0197534Y0198870D02*
X0193861Y0198870D01*
X0193292Y0198571D02*
X0197212Y0198571D01*
X0196459Y0198272D02*
X0193004Y0198272D01*
X0192862Y0197974D02*
X0195305Y0197974D01*
X0194528Y0197675D02*
X0192798Y0197675D01*
X0192788Y0197377D02*
X0194332Y0197377D01*
X0194328Y0197078D02*
X0192811Y0197078D01*
X0192922Y0196780D02*
X0194561Y0196780D01*
X0193805Y0195884D02*
X0196870Y0195884D01*
X0197348Y0196183D02*
X0193327Y0196183D01*
X0193090Y0196481D02*
X0197612Y0196481D01*
X0197767Y0196780D02*
X0196096Y0196780D01*
X0196350Y0197078D02*
X0197865Y0197078D01*
X0197915Y0197377D02*
X0196459Y0197377D01*
X0195900Y0195586D02*
X0194775Y0195586D01*
X0190099Y0195884D02*
X0187746Y0195884D01*
X0188734Y0195586D02*
X0189286Y0195586D01*
X0185929Y0196481D02*
X0180810Y0196481D01*
X0180810Y0196780D02*
X0182795Y0196780D01*
X0182551Y0197078D02*
X0180810Y0197078D01*
X0180810Y0197377D02*
X0182424Y0197377D01*
X0182356Y0197675D02*
X0180810Y0197675D01*
X0180810Y0197974D02*
X0182345Y0197974D01*
X0182345Y0198272D02*
X0180810Y0198272D01*
X0179983Y0198272D02*
X0178448Y0198272D01*
X0178448Y0198563D02*
X0178448Y0195689D01*
X0179983Y0195689D01*
X0179983Y0201004D01*
X0179589Y0201083D01*
X0179432Y0201122D01*
X0179235Y0201122D01*
X0179038Y0201161D01*
X0178881Y0201201D01*
X0178684Y0201240D01*
X0178526Y0201280D01*
X0178526Y0200217D01*
X0178487Y0200217D01*
X0178369Y0200492D01*
X0178211Y0200728D01*
X0178014Y0200925D01*
X0177542Y0201240D01*
X0176991Y0201398D01*
X0176440Y0201398D01*
X0176400Y0201358D01*
X0176400Y0199941D01*
X0176440Y0199941D01*
X0176518Y0199980D01*
X0176951Y0199980D01*
X0177345Y0199941D01*
X0177660Y0199862D01*
X0177896Y0199705D01*
X0178133Y0199469D01*
X0178369Y0198917D01*
X0178448Y0198563D01*
X0178446Y0198571D02*
X0179983Y0198571D01*
X0179983Y0198870D02*
X0178379Y0198870D01*
X0178261Y0199168D02*
X0179983Y0199168D01*
X0179983Y0199467D02*
X0178133Y0199467D01*
X0177806Y0199765D02*
X0179983Y0199765D01*
X0179983Y0200064D02*
X0176400Y0200064D01*
X0176400Y0200362D02*
X0178425Y0200362D01*
X0178526Y0200362D02*
X0179983Y0200362D01*
X0179983Y0200661D02*
X0178526Y0200661D01*
X0178256Y0200661D02*
X0176400Y0200661D01*
X0176400Y0200959D02*
X0177964Y0200959D01*
X0178526Y0200959D02*
X0179983Y0200959D01*
X0178614Y0201258D02*
X0178526Y0201258D01*
X0177481Y0201258D02*
X0176400Y0201258D01*
X0175770Y0201258D02*
X0174274Y0201258D01*
X0174274Y0201556D02*
X0175770Y0201556D01*
X0175770Y0201855D02*
X0174274Y0201855D01*
X0174274Y0202153D02*
X0175770Y0202153D01*
X0175770Y0202452D02*
X0174274Y0202452D01*
X0174274Y0202750D02*
X0175406Y0202750D01*
X0175770Y0202539D02*
X0174274Y0203406D01*
X0174274Y0199272D01*
X0172345Y0201280D01*
X0170534Y0201280D01*
X0172621Y0199232D01*
X0170298Y0195689D01*
X0172148Y0195689D01*
X0173684Y0198209D01*
X0174274Y0197618D01*
X0174274Y0195689D01*
X0175770Y0195689D01*
X0175770Y0202539D01*
X0174891Y0203049D02*
X0174274Y0203049D01*
X0174274Y0203347D02*
X0174375Y0203347D01*
X0174274Y0200959D02*
X0175770Y0200959D01*
X0175770Y0200661D02*
X0174274Y0200661D01*
X0174274Y0200362D02*
X0175770Y0200362D01*
X0175770Y0200064D02*
X0174274Y0200064D01*
X0174274Y0199765D02*
X0175770Y0199765D01*
X0175770Y0199467D02*
X0174274Y0199467D01*
X0174087Y0199467D02*
X0172382Y0199467D01*
X0172579Y0199168D02*
X0175770Y0199168D01*
X0175770Y0198870D02*
X0172383Y0198870D01*
X0172187Y0198571D02*
X0175770Y0198571D01*
X0175770Y0198272D02*
X0171992Y0198272D01*
X0171796Y0197974D02*
X0173541Y0197974D01*
X0173359Y0197675D02*
X0171600Y0197675D01*
X0171404Y0197377D02*
X0173177Y0197377D01*
X0172995Y0197078D02*
X0171209Y0197078D01*
X0171013Y0196780D02*
X0172813Y0196780D01*
X0172631Y0196481D02*
X0170817Y0196481D01*
X0170622Y0196183D02*
X0172449Y0196183D01*
X0172267Y0195884D02*
X0170426Y0195884D01*
X0169353Y0195884D02*
X0167818Y0195884D01*
X0167818Y0195689D02*
X0169353Y0195689D01*
X0169353Y0200256D01*
X0170849Y0200256D01*
X0170613Y0200492D01*
X0170455Y0200610D01*
X0170337Y0200768D01*
X0170101Y0201004D01*
X0169944Y0201122D01*
X0169825Y0201280D01*
X0169353Y0201280D01*
X0169353Y0201713D01*
X0169314Y0202067D01*
X0169235Y0202382D01*
X0169077Y0202657D01*
X0168881Y0202894D01*
X0168644Y0203130D01*
X0168329Y0203248D01*
X0167936Y0203366D01*
X0167503Y0203406D01*
X0167188Y0203406D01*
X0167070Y0203366D01*
X0166676Y0203366D01*
X0166676Y0202224D01*
X0167385Y0202224D01*
X0167621Y0202146D01*
X0167699Y0202106D01*
X0167739Y0201988D01*
X0167778Y0201909D01*
X0167818Y0201752D01*
X0167818Y0201280D01*
X0166755Y0201280D01*
X0166755Y0200256D01*
X0167818Y0200256D01*
X0167818Y0195689D01*
X0167818Y0196183D02*
X0169353Y0196183D01*
X0169353Y0196481D02*
X0167818Y0196481D01*
X0167818Y0196780D02*
X0169353Y0196780D01*
X0169353Y0197078D02*
X0167818Y0197078D01*
X0167818Y0197377D02*
X0169353Y0197377D01*
X0169353Y0197675D02*
X0167818Y0197675D01*
X0167818Y0197974D02*
X0169353Y0197974D01*
X0169353Y0198272D02*
X0167818Y0198272D01*
X0167818Y0198571D02*
X0169353Y0198571D01*
X0169353Y0198870D02*
X0167818Y0198870D01*
X0167818Y0199168D02*
X0169353Y0199168D01*
X0169353Y0199467D02*
X0167818Y0199467D01*
X0167818Y0199765D02*
X0169353Y0199765D01*
X0169353Y0200064D02*
X0167818Y0200064D01*
X0166755Y0200362D02*
X0170743Y0200362D01*
X0170418Y0200661D02*
X0166755Y0200661D01*
X0166755Y0200959D02*
X0170146Y0200959D01*
X0169842Y0201258D02*
X0166755Y0201258D01*
X0166322Y0201258D02*
X0164786Y0201258D01*
X0164786Y0201280D02*
X0164786Y0197815D01*
X0164747Y0197539D01*
X0164668Y0197303D01*
X0164589Y0197106D01*
X0164432Y0196949D01*
X0164274Y0196831D01*
X0164077Y0196791D01*
X0163802Y0196752D01*
X0163526Y0196791D01*
X0163290Y0196831D01*
X0163093Y0196949D01*
X0162896Y0197146D01*
X0162778Y0197343D01*
X0162699Y0197618D01*
X0162660Y0197972D01*
X0162621Y0198366D01*
X0162621Y0201280D01*
X0161125Y0201280D01*
X0161125Y0195689D01*
X0162581Y0195689D01*
X0162581Y0196476D01*
X0162739Y0196240D01*
X0162936Y0196083D01*
X0163133Y0195886D01*
X0163329Y0195768D01*
X0163802Y0195610D01*
X0164038Y0195571D01*
X0164314Y0195531D01*
X0164865Y0195610D01*
X0165298Y0195728D01*
X0165652Y0195925D01*
X0165928Y0196161D01*
X0166125Y0196516D01*
X0166243Y0196909D01*
X0166322Y0197343D01*
X0166322Y0201280D01*
X0164786Y0201280D01*
X0164786Y0200959D02*
X0166322Y0200959D01*
X0166322Y0200661D02*
X0164786Y0200661D01*
X0164786Y0200362D02*
X0166322Y0200362D01*
X0166322Y0200064D02*
X0164786Y0200064D01*
X0164786Y0199765D02*
X0166322Y0199765D01*
X0166322Y0199467D02*
X0164786Y0199467D01*
X0164786Y0199168D02*
X0166322Y0199168D01*
X0166322Y0198870D02*
X0164786Y0198870D01*
X0164786Y0198571D02*
X0166322Y0198571D01*
X0166322Y0198272D02*
X0164786Y0198272D01*
X0164786Y0197974D02*
X0166322Y0197974D01*
X0166322Y0197675D02*
X0164766Y0197675D01*
X0164693Y0197377D02*
X0166322Y0197377D01*
X0166273Y0197078D02*
X0164561Y0197078D01*
X0163998Y0196780D02*
X0166204Y0196780D01*
X0166106Y0196481D02*
X0161125Y0196481D01*
X0161125Y0196183D02*
X0162581Y0196183D01*
X0162810Y0196183D02*
X0165940Y0196183D01*
X0165579Y0195884D02*
X0163135Y0195884D01*
X0162581Y0195884D02*
X0161125Y0195884D01*
X0160298Y0195884D02*
X0158762Y0195884D01*
X0158762Y0195689D02*
X0160298Y0195689D01*
X0160298Y0200571D01*
X0160259Y0201280D01*
X0158841Y0201280D01*
X0158841Y0200492D01*
X0158802Y0200492D01*
X0158644Y0200728D01*
X0158487Y0200925D01*
X0158251Y0201083D01*
X0158054Y0201201D01*
X0157581Y0201358D01*
X0157109Y0201437D01*
X0156558Y0201358D01*
X0156085Y0201240D01*
X0155731Y0201043D01*
X0155495Y0200807D01*
X0155298Y0200453D01*
X0155140Y0200059D01*
X0155101Y0199626D01*
X0155062Y0199114D01*
X0155062Y0195689D01*
X0156597Y0195689D01*
X0156597Y0199154D01*
X0156636Y0199429D01*
X0156715Y0199665D01*
X0156833Y0199862D01*
X0156951Y0200020D01*
X0157109Y0200138D01*
X0157581Y0200217D01*
X0158133Y0200138D01*
X0158329Y0200020D01*
X0158487Y0199823D01*
X0158605Y0199626D01*
X0158684Y0199350D01*
X0158762Y0198996D01*
X0158762Y0195689D01*
X0158762Y0196183D02*
X0160298Y0196183D01*
X0160298Y0196481D02*
X0158762Y0196481D01*
X0158762Y0196780D02*
X0160298Y0196780D01*
X0160298Y0197078D02*
X0158762Y0197078D01*
X0158762Y0197377D02*
X0160298Y0197377D01*
X0160298Y0197675D02*
X0158762Y0197675D01*
X0158762Y0197974D02*
X0160298Y0197974D01*
X0160298Y0198272D02*
X0158762Y0198272D01*
X0158762Y0198571D02*
X0160298Y0198571D01*
X0160298Y0198870D02*
X0158762Y0198870D01*
X0158724Y0199168D02*
X0160298Y0199168D01*
X0160298Y0199467D02*
X0158651Y0199467D01*
X0158522Y0199765D02*
X0160298Y0199765D01*
X0160298Y0200064D02*
X0158256Y0200064D01*
X0158690Y0200661D02*
X0155413Y0200661D01*
X0155262Y0200362D02*
X0160298Y0200362D01*
X0160293Y0200661D02*
X0158841Y0200661D01*
X0158841Y0200959D02*
X0160276Y0200959D01*
X0160260Y0201258D02*
X0158841Y0201258D01*
X0158436Y0200959D02*
X0155647Y0200959D01*
X0156155Y0201258D02*
X0157883Y0201258D01*
X0157010Y0200064D02*
X0155142Y0200064D01*
X0155114Y0199765D02*
X0156775Y0199765D01*
X0156649Y0199467D02*
X0155089Y0199467D01*
X0155066Y0199168D02*
X0156599Y0199168D01*
X0156597Y0198870D02*
X0155062Y0198870D01*
X0155062Y0198571D02*
X0156597Y0198571D01*
X0156597Y0198272D02*
X0155062Y0198272D01*
X0155062Y0197974D02*
X0156597Y0197974D01*
X0156597Y0197675D02*
X0155062Y0197675D01*
X0155062Y0197377D02*
X0156597Y0197377D01*
X0156597Y0197078D02*
X0155062Y0197078D01*
X0155062Y0196780D02*
X0156597Y0196780D01*
X0156597Y0196481D02*
X0155062Y0196481D01*
X0155062Y0196183D02*
X0156597Y0196183D01*
X0156597Y0195884D02*
X0155062Y0195884D01*
X0161125Y0196780D02*
X0163606Y0196780D01*
X0162964Y0197078D02*
X0161125Y0197078D01*
X0161125Y0197377D02*
X0162768Y0197377D01*
X0162693Y0197675D02*
X0161125Y0197675D01*
X0161125Y0197974D02*
X0162660Y0197974D01*
X0162630Y0198272D02*
X0161125Y0198272D01*
X0161125Y0198571D02*
X0162621Y0198571D01*
X0162621Y0198870D02*
X0161125Y0198870D01*
X0161125Y0199168D02*
X0162621Y0199168D01*
X0162621Y0199467D02*
X0161125Y0199467D01*
X0161125Y0199765D02*
X0162621Y0199765D01*
X0162621Y0200064D02*
X0161125Y0200064D01*
X0161125Y0200362D02*
X0162621Y0200362D01*
X0162621Y0200661D02*
X0161125Y0200661D01*
X0161125Y0200959D02*
X0162621Y0200959D01*
X0162621Y0201258D02*
X0161125Y0201258D01*
X0166676Y0202452D02*
X0169195Y0202452D01*
X0169292Y0202153D02*
X0167598Y0202153D01*
X0167792Y0201855D02*
X0169337Y0201855D01*
X0169353Y0201556D02*
X0167818Y0201556D01*
X0166676Y0202750D02*
X0169000Y0202750D01*
X0168726Y0203049D02*
X0166676Y0203049D01*
X0166676Y0203347D02*
X0167999Y0203347D01*
X0170556Y0201258D02*
X0172366Y0201258D01*
X0172653Y0200959D02*
X0170861Y0200959D01*
X0171165Y0200661D02*
X0172940Y0200661D01*
X0173227Y0200362D02*
X0171469Y0200362D01*
X0171773Y0200064D02*
X0173513Y0200064D01*
X0173800Y0199765D02*
X0172078Y0199765D01*
X0173918Y0197974D02*
X0175770Y0197974D01*
X0175770Y0197675D02*
X0174217Y0197675D01*
X0174274Y0197377D02*
X0175770Y0197377D01*
X0175770Y0197078D02*
X0174274Y0197078D01*
X0174274Y0196780D02*
X0175770Y0196780D01*
X0175770Y0196481D02*
X0174274Y0196481D01*
X0174274Y0196183D02*
X0175770Y0196183D01*
X0175770Y0195884D02*
X0174274Y0195884D01*
X0178448Y0195884D02*
X0179983Y0195884D01*
X0179983Y0196183D02*
X0178448Y0196183D01*
X0178448Y0196481D02*
X0179983Y0196481D01*
X0179983Y0196780D02*
X0178448Y0196780D01*
X0178448Y0197078D02*
X0179983Y0197078D01*
X0179983Y0197377D02*
X0178448Y0197377D01*
X0178448Y0197675D02*
X0179983Y0197675D01*
X0179983Y0197974D02*
X0178448Y0197974D01*
X0180770Y0196183D02*
X0182306Y0196183D01*
X0182363Y0196183D02*
X0185747Y0196183D01*
X0185434Y0195884D02*
X0182761Y0195884D01*
X0182265Y0195884D02*
X0180711Y0195884D01*
X0183599Y0195586D02*
X0184777Y0195586D01*
X0184342Y0196780D02*
X0186004Y0196780D01*
X0193319Y0200661D02*
X0197471Y0200661D01*
X0197142Y0200959D02*
X0193650Y0200959D01*
X0194175Y0201258D02*
X0196618Y0201258D01*
X0164694Y0195586D02*
X0163948Y0195586D01*
D140*
X0090510Y0089602D02*
X0089070Y0089602D01*
X0088877Y0087696D01*
X0088236Y0087491D01*
X0087638Y0087183D01*
X0086154Y0088394D01*
X0085136Y0087376D01*
X0086347Y0085892D01*
X0086039Y0085294D01*
X0085834Y0084654D01*
X0083929Y0084460D01*
X0083929Y0083020D01*
X0085834Y0082827D01*
X0086039Y0082186D01*
X0086347Y0081589D01*
X0085136Y0080104D01*
X0086154Y0079087D01*
X0087638Y0080297D01*
X0088236Y0079989D01*
X0089084Y0082035D01*
X0088699Y0082252D01*
X0088376Y0082554D01*
X0088135Y0082924D01*
X0087989Y0083341D01*
X0087945Y0083780D01*
X0088008Y0084218D01*
X0088173Y0084627D01*
X0088430Y0084987D01*
X0088765Y0085274D01*
X0089159Y0085474D01*
X0089589Y0085574D01*
X0090031Y0085569D01*
X0090459Y0085460D01*
X0090849Y0085252D01*
X0091178Y0084957D01*
X0091427Y0084592D01*
X0091583Y0084179D01*
X0091636Y0083740D01*
X0091585Y0083309D01*
X0091435Y0082902D01*
X0091194Y0082541D01*
X0090875Y0082247D01*
X0090496Y0082035D01*
X0091344Y0079989D01*
X0091942Y0080297D01*
X0093426Y0079087D01*
X0094444Y0080104D01*
X0093233Y0081589D01*
X0093541Y0082186D01*
X0093746Y0082827D01*
X0095651Y0083020D01*
X0095651Y0084460D01*
X0093746Y0084654D01*
X0093541Y0085294D01*
X0093233Y0085892D01*
X0094444Y0087376D01*
X0093426Y0088394D01*
X0091942Y0087183D01*
X0091344Y0087491D01*
X0090703Y0087696D01*
X0090510Y0089602D01*
X0090554Y0089169D02*
X0089026Y0089169D01*
X0088966Y0088580D02*
X0090614Y0088580D01*
X0090674Y0087990D02*
X0088907Y0087990D01*
X0088062Y0087401D02*
X0091518Y0087401D01*
X0092209Y0087401D02*
X0094418Y0087401D01*
X0093984Y0086812D02*
X0085596Y0086812D01*
X0085162Y0087401D02*
X0087371Y0087401D01*
X0086649Y0087990D02*
X0085751Y0087990D01*
X0086076Y0086223D02*
X0093504Y0086223D01*
X0093366Y0085634D02*
X0086214Y0085634D01*
X0085959Y0085045D02*
X0088498Y0085045D01*
X0088104Y0084456D02*
X0083929Y0084456D01*
X0083929Y0083867D02*
X0087958Y0083867D01*
X0088011Y0083278D02*
X0083929Y0083278D01*
X0085878Y0082689D02*
X0088288Y0082689D01*
X0088969Y0082100D02*
X0086083Y0082100D01*
X0086283Y0081511D02*
X0088867Y0081511D01*
X0088623Y0080922D02*
X0085803Y0080922D01*
X0085323Y0080333D02*
X0088378Y0080333D01*
X0086960Y0079744D02*
X0085497Y0079744D01*
X0086086Y0079155D02*
X0086238Y0079155D01*
X0090958Y0080922D02*
X0093777Y0080922D01*
X0093297Y0081511D02*
X0090714Y0081511D01*
X0090612Y0082100D02*
X0093497Y0082100D01*
X0093702Y0082689D02*
X0091292Y0082689D01*
X0091573Y0083278D02*
X0095651Y0083278D01*
X0095651Y0083867D02*
X0091620Y0083867D01*
X0091478Y0084456D02*
X0095651Y0084456D01*
X0093621Y0085045D02*
X0091079Y0085045D01*
X0092931Y0087990D02*
X0093829Y0087990D01*
X0094257Y0080333D02*
X0091202Y0080333D01*
X0092620Y0079744D02*
X0094083Y0079744D01*
X0093494Y0079155D02*
X0093343Y0079155D01*
D141*
X0176247Y0083606D03*
X0182546Y0083606D03*
X0196247Y0083764D03*
X0202546Y0083764D03*
D142*
X0202388Y0083764D03*
X0196404Y0083764D03*
X0182388Y0083606D03*
X0176404Y0083606D03*
D143*
X0176562Y0083606D03*
X0182231Y0083606D03*
X0196562Y0083764D03*
X0202231Y0083764D03*
X0206404Y0083921D03*
X0212388Y0083921D03*
D144*
X0212231Y0083921D03*
X0206562Y0083921D03*
X0202073Y0083764D03*
X0196719Y0083764D03*
X0182073Y0083606D03*
X0176719Y0083606D03*
D145*
X0177034Y0083606D03*
X0181759Y0083606D03*
X0197034Y0083764D03*
X0201759Y0083764D03*
X0206719Y0083921D03*
X0212073Y0083921D03*
D146*
X0211916Y0083921D03*
X0206877Y0083921D03*
X0201601Y0083764D03*
X0197192Y0083764D03*
X0181601Y0083606D03*
X0177192Y0083606D03*
D147*
X0180656Y0077937D03*
X0180971Y0078094D03*
X0181286Y0078252D03*
X0200341Y0089433D03*
D148*
X0207349Y0086756D03*
X0188924Y0087543D03*
X0180971Y0082661D03*
D149*
X0180184Y0089354D03*
X0200026Y0089512D03*
D150*
X0200184Y0089433D03*
X0180026Y0089276D03*
D151*
X0179869Y0089197D03*
D152*
X0179711Y0086756D03*
X0179711Y0084079D03*
X0189081Y0080929D03*
X0199081Y0080929D03*
X0209081Y0080929D03*
D153*
X0207192Y0083921D03*
X0211601Y0083921D03*
X0192546Y0085654D03*
X0186247Y0085654D03*
D154*
X0186719Y0085654D03*
X0192073Y0085654D03*
D155*
X0191916Y0085654D03*
X0186877Y0085654D03*
D156*
X0187034Y0085654D03*
X0191759Y0085654D03*
D157*
X0191601Y0085654D03*
X0187192Y0085654D03*
D158*
X0191444Y0082189D03*
D159*
X0191444Y0091953D03*
D160*
X0191286Y0080220D03*
X0190971Y0080063D03*
X0190656Y0079906D03*
D161*
X0190814Y0079984D03*
X0191129Y0080142D03*
X0190499Y0079827D03*
X0190341Y0079827D03*
X0190184Y0079669D03*
X0190026Y0079669D03*
D162*
X0189869Y0079591D03*
X0189711Y0079591D03*
D163*
X0189554Y0079512D03*
D164*
X0188136Y0079276D03*
X0199554Y0079118D03*
X0200814Y0079433D03*
X0201129Y0079591D03*
X0201286Y0079591D03*
D165*
X0187979Y0079354D03*
D166*
X0187822Y0079276D03*
X0187349Y0079591D03*
D167*
X0187507Y0079354D03*
X0187664Y0079354D03*
D168*
X0199711Y0079197D03*
X0199869Y0079197D03*
X0200026Y0079197D03*
X0200184Y0079197D03*
X0200341Y0079354D03*
X0200499Y0079354D03*
X0200656Y0079354D03*
X0200971Y0079512D03*
X0209554Y0079039D03*
X0210814Y0079354D03*
X0211129Y0079512D03*
X0211286Y0079512D03*
D169*
X0207979Y0080220D03*
X0207822Y0080220D03*
X0198136Y0080220D03*
D170*
X0197979Y0080299D03*
X0197822Y0080299D03*
X0207349Y0080457D03*
X0207507Y0080299D03*
X0207664Y0080299D03*
D171*
X0197664Y0080378D03*
X0197507Y0080378D03*
X0197349Y0080535D03*
D172*
X0206247Y0083921D03*
X0212546Y0083921D03*
D173*
X0210971Y0079433D03*
X0210656Y0079276D03*
X0210499Y0079276D03*
X0210341Y0079276D03*
X0210184Y0079118D03*
X0210026Y0079118D03*
X0209869Y0079118D03*
X0209711Y0079118D03*
D174*
X0208136Y0080142D03*
D175*
X0178648Y0186969D03*
X0176995Y0186969D03*
X0178648Y0191220D03*
X0176995Y0193346D03*
X0173688Y0191220D03*
X0171798Y0191220D03*
X0162822Y0190276D03*
D176*
X0161286Y0192165D03*
X0168373Y0190512D03*
X0168373Y0187677D03*
X0173097Y0187677D03*
X0173333Y0186024D03*
X0173333Y0185787D03*
X0173097Y0190748D03*
X0178058Y0190748D03*
X0183491Y0193110D03*
X0184199Y0189331D03*
X0178058Y0187441D03*
D177*
X0179948Y0189094D03*
X0176877Y0193110D03*
X0166955Y0189803D03*
X0166955Y0189567D03*
X0171916Y0187205D03*
X0171916Y0186969D03*
X0161286Y0193110D03*
D178*
X0161050Y0187205D03*
X0183727Y0191693D03*
X0183491Y0192874D03*
D179*
X0185262Y0191457D03*
X0185262Y0191220D03*
X0185262Y0190984D03*
X0185262Y0189094D03*
X0185262Y0188858D03*
X0185262Y0188622D03*
X0179829Y0188622D03*
X0179829Y0188858D03*
X0179829Y0189331D03*
X0179829Y0189567D03*
X0176995Y0189567D03*
X0176995Y0189331D03*
X0176995Y0189094D03*
X0176995Y0188858D03*
X0176995Y0188622D03*
X0174869Y0188858D03*
X0174869Y0189094D03*
X0174869Y0189331D03*
X0174869Y0189567D03*
X0173688Y0187205D03*
X0172034Y0186732D03*
X0172034Y0186496D03*
X0172034Y0188858D03*
X0172034Y0189094D03*
X0172034Y0189331D03*
X0172034Y0189567D03*
X0169908Y0189567D03*
X0169672Y0189803D03*
X0169672Y0188386D03*
X0162822Y0190512D03*
X0162822Y0190748D03*
X0162822Y0190984D03*
X0162822Y0191220D03*
X0159751Y0191220D03*
X0159751Y0190984D03*
X0159751Y0190748D03*
X0159751Y0190512D03*
X0176995Y0191220D03*
X0176995Y0191457D03*
X0176995Y0191693D03*
X0176995Y0191929D03*
X0176995Y0192165D03*
X0176995Y0192402D03*
X0176995Y0192638D03*
X0176995Y0192874D03*
D180*
X0161286Y0192874D03*
X0160341Y0189803D03*
X0160577Y0189567D03*
D181*
X0161168Y0187913D03*
X0161168Y0187677D03*
X0161168Y0187441D03*
X0183609Y0187441D03*
X0183609Y0187677D03*
X0183609Y0187913D03*
X0183609Y0188150D03*
X0183609Y0187205D03*
X0183609Y0191929D03*
X0183609Y0192165D03*
X0183609Y0192402D03*
X0183609Y0192638D03*
D182*
X0168255Y0190984D03*
X0161404Y0192638D03*
D183*
X0161404Y0192402D03*
X0168255Y0190748D03*
X0172979Y0190984D03*
X0172979Y0187441D03*
X0173451Y0185551D03*
X0168255Y0187441D03*
X0177940Y0187205D03*
X0177940Y0190984D03*
X0184318Y0190748D03*
D184*
X0178294Y0190276D03*
X0178294Y0190039D03*
X0178294Y0188150D03*
X0178294Y0187913D03*
X0173333Y0188150D03*
X0173333Y0188386D03*
X0173333Y0190039D03*
X0168609Y0188858D03*
X0168373Y0190039D03*
X0168373Y0190276D03*
X0161286Y0191693D03*
X0161286Y0191929D03*
D185*
X0168136Y0191457D03*
X0173570Y0186969D03*
D186*
X0174751Y0188622D03*
X0174514Y0189803D03*
X0172152Y0189803D03*
X0172152Y0188622D03*
X0169554Y0188150D03*
X0162703Y0191457D03*
X0159869Y0191457D03*
X0159869Y0190276D03*
X0160105Y0190039D03*
D187*
X0168255Y0191220D03*
D188*
X0168727Y0188622D03*
X0168491Y0187913D03*
X0173215Y0187913D03*
X0173215Y0186260D03*
X0173215Y0190276D03*
X0173215Y0190512D03*
X0178176Y0190512D03*
X0178176Y0187677D03*
X0184081Y0189567D03*
X0184081Y0189803D03*
X0184081Y0190039D03*
X0184081Y0190276D03*
X0184081Y0190512D03*
X0161404Y0188386D03*
D189*
X0161168Y0188150D03*
X0161168Y0186969D03*
X0168491Y0189094D03*
X0168491Y0189331D03*
X0178412Y0189803D03*
X0178412Y0188386D03*
X0183609Y0186969D03*
X0183845Y0188386D03*
D190*
X0173451Y0185315D03*
X0168018Y0186969D03*
X0161877Y0188622D03*
X0160932Y0189331D03*
D191*
X0161286Y0189094D03*
X0161522Y0188858D03*
D192*
X0167073Y0188150D03*
D193*
X0168136Y0187205D03*
D194*
X0168136Y0186732D03*
X0174514Y0186496D03*
M02*
