G75*
%MOIN*%
%OFA0B0*%
%FSLAX25Y25*%
%IPPOS*%
%LPD*%
%AMOC8*
5,1,8,0,0,1.08239X$1,22.5*
%
%ADD10C,0.06312*%
%ADD11R,0.10800X0.07800*%
%ADD12C,0.32296*%
%ADD13C,0.13800*%
%ADD14C,0.04737*%
%ADD15C,0.08200*%
%ADD16R,0.04737X0.05131*%
%ADD17C,0.05800*%
%ADD18C,0.03950*%
D10*
X0085302Y0114921D03*
X0085302Y0154921D03*
D11*
X0114633Y0178228D03*
X0126837Y0178228D03*
X0126837Y0091614D03*
X0114633Y0091614D03*
D12*
X0120735Y0125079D02*
X0120735Y0144763D01*
D13*
X0090532Y0067317D03*
X0225741Y0067317D03*
X0225741Y0202526D03*
X0090532Y0202526D03*
D14*
X0083333Y0209724D03*
X0201896Y0189055D03*
X0206896Y0189055D03*
X0206896Y0184055D03*
X0201896Y0184055D03*
X0201896Y0179055D03*
X0206896Y0179055D03*
X0206896Y0174055D03*
X0201896Y0174055D03*
X0201896Y0169055D03*
X0206896Y0169055D03*
X0232940Y0060118D03*
D15*
X0209396Y0061181D03*
X0199396Y0061181D03*
X0189396Y0061181D03*
X0179396Y0061181D03*
X0169396Y0061181D03*
X0169396Y0071181D03*
X0179396Y0071181D03*
X0189396Y0071181D03*
X0199396Y0071181D03*
X0209396Y0071181D03*
D16*
X0217192Y0159134D03*
X0217192Y0165827D03*
X0217192Y0174882D03*
X0217192Y0181575D03*
D17*
X0229396Y0175181D03*
X0229396Y0165181D03*
X0214396Y0196181D03*
X0204396Y0196181D03*
X0154199Y0186502D03*
X0094396Y0186181D03*
X0094396Y0176181D03*
D18*
X0106955Y0201850D03*
X0106955Y0067992D03*
M02*
