G75*
%MOIN*%
%OFA0B0*%
%FSLAX25Y25*%
%IPPOS*%
%LPD*%
%AMOC8*
5,1,8,0,0,1.08239X$1,22.5*
%
%ADD10C,0.08000*%
%ADD11C,0.00800*%
%ADD12C,0.02000*%
%ADD13C,0.01000*%
%ADD14R,0.13701X0.00157*%
%ADD15R,0.14646X0.00157*%
%ADD16R,0.15276X0.00157*%
%ADD17R,0.15906X0.00157*%
%ADD18R,0.16220X0.00157*%
%ADD19R,0.16535X0.00157*%
%ADD20R,0.16850X0.00157*%
%ADD21R,0.04252X0.00157*%
%ADD22R,0.11969X0.00157*%
%ADD23R,0.04094X0.00157*%
%ADD24R,0.01260X0.00157*%
%ADD25R,0.01890X0.00157*%
%ADD26R,0.00630X0.00157*%
%ADD27R,0.03780X0.00157*%
%ADD28R,0.00787X0.00157*%
%ADD29R,0.01575X0.00157*%
%ADD30R,0.00472X0.00157*%
%ADD31R,0.01417X0.00157*%
%ADD32R,0.03465X0.00157*%
%ADD33R,0.03622X0.00157*%
%ADD34R,0.01102X0.00157*%
%ADD35R,0.03307X0.00157*%
%ADD36R,0.00945X0.00157*%
%ADD37R,0.02835X0.00157*%
%ADD38R,0.02992X0.00157*%
%ADD39R,0.00157X0.00157*%
%ADD40R,0.00315X0.00157*%
%ADD41R,0.03937X0.00157*%
%ADD42R,0.01732X0.00157*%
%ADD43R,0.00157X0.14016*%
%ADD44R,0.00157X0.14961*%
%ADD45R,0.00157X0.15591*%
%ADD46R,0.00157X0.16220*%
%ADD47R,0.00157X0.16535*%
%ADD48R,0.00157X0.16850*%
%ADD49R,0.00157X0.17165*%
%ADD50R,0.00157X0.03150*%
%ADD51R,0.00157X0.02835*%
%ADD52R,0.00157X0.11181*%
%ADD53R,0.00157X0.02992*%
%ADD54R,0.00157X0.02520*%
%ADD55R,0.00157X0.00630*%
%ADD56R,0.00157X0.01732*%
%ADD57R,0.00157X0.04252*%
%ADD58R,0.00157X0.02205*%
%ADD59R,0.00157X0.00472*%
%ADD60R,0.00157X0.01417*%
%ADD61R,0.00157X0.03937*%
%ADD62R,0.00157X0.00315*%
%ADD63R,0.00157X0.01102*%
%ADD64R,0.00157X0.03780*%
%ADD65R,0.00157X0.01890*%
%ADD66R,0.00157X0.00945*%
%ADD67R,0.00157X0.03622*%
%ADD68R,0.00157X0.00787*%
%ADD69R,0.00157X0.03307*%
%ADD70R,0.00157X0.03465*%
%ADD71R,0.00157X0.01575*%
%ADD72R,0.00157X0.01260*%
%ADD73R,0.00157X0.04094*%
%ADD74R,0.00157X0.04409*%
%ADD75R,0.00157X0.02047*%
%ADD76R,0.00157X0.02362*%
%ADD77R,0.12126X0.00157*%
%ADD78R,0.13071X0.00157*%
%ADD79R,0.14331X0.00157*%
%ADD80R,0.14961X0.00157*%
%ADD81R,0.07244X0.00157*%
%ADD82R,0.07559X0.00157*%
%ADD83R,0.02677X0.00157*%
%ADD84R,0.03150X0.00157*%
%ADD85R,0.04567X0.00157*%
%ADD86R,0.04724X0.00157*%
%ADD87R,0.02362X0.00157*%
%ADD88R,0.02205X0.00157*%
%ADD89R,0.02520X0.00157*%
%ADD90R,0.04409X0.00157*%
%ADD91C,0.00300*%
%ADD92C,0.00591*%
%ADD93R,0.11969X0.00118*%
%ADD94R,0.09764X0.00118*%
%ADD95R,0.01929X0.00118*%
%ADD96R,0.01654X0.00157*%
%ADD97R,0.01496X0.00118*%
%ADD98R,0.00827X0.00118*%
%ADD99R,0.02087X0.00118*%
%ADD100R,0.00945X0.00118*%
%ADD101R,0.01496X0.00157*%
%ADD102R,0.00669X0.00157*%
%ADD103R,0.02087X0.00157*%
%ADD104R,0.00669X0.00118*%
%ADD105R,0.00551X0.00157*%
%ADD106R,0.00551X0.00118*%
%ADD107R,0.01772X0.00118*%
%ADD108R,0.00394X0.00157*%
%ADD109R,0.01929X0.00157*%
%ADD110R,0.00276X0.00118*%
%ADD111R,0.02047X0.00118*%
%ADD112R,0.00118X0.00157*%
%ADD113R,0.02323X0.00118*%
%ADD114R,0.02480X0.00157*%
%ADD115R,0.02598X0.00118*%
%ADD116R,0.00276X0.00157*%
%ADD117R,0.02756X0.00157*%
%ADD118R,0.00394X0.00118*%
%ADD119R,0.01102X0.00118*%
%ADD120R,0.00433X0.00118*%
%ADD121R,0.01654X0.00118*%
%ADD122R,0.00433X0.00157*%
%ADD123R,0.00827X0.00157*%
%ADD124R,0.01378X0.00118*%
%ADD125R,0.13110X0.00157*%
%ADD126R,0.13110X0.00118*%
%ADD127R,0.03031X0.00118*%
%ADD128R,0.09252X0.00118*%
%ADD129R,0.02638X0.00157*%
%ADD130R,0.02362X0.00118*%
%ADD131R,0.01260X0.00118*%
%ADD132R,0.01811X0.00118*%
%ADD133R,0.00984X0.00118*%
%ADD134R,0.01811X0.00157*%
%ADD135R,0.02480X0.00118*%
%ADD136R,0.02598X0.00157*%
%ADD137R,0.00709X0.00157*%
%ADD138R,0.02756X0.00118*%
%ADD139R,0.01535X0.00157*%
%ADD140R,0.00984X0.00157*%
%ADD141R,0.01535X0.00118*%
%ADD142R,0.00709X0.00118*%
%ADD143R,0.00157X0.00118*%
%ADD144R,0.01220X0.00157*%
%ADD145R,0.01220X0.00118*%
%ADD146R,0.00157X0.08701*%
%ADD147R,0.00118X0.08701*%
%ADD148R,0.00118X0.02638*%
%ADD149R,0.00118X0.05394*%
%ADD150R,0.00157X0.00827*%
%ADD151R,0.00157X0.01654*%
%ADD152R,0.00118X0.02087*%
%ADD153R,0.00118X0.00709*%
%ADD154R,0.00118X0.01535*%
%ADD155R,0.00157X0.01929*%
%ADD156R,0.00157X0.00551*%
%ADD157R,0.00157X0.01535*%
%ADD158R,0.00118X0.01811*%
%ADD159R,0.00118X0.00433*%
%ADD160R,0.00157X0.01811*%
%ADD161R,0.00157X0.00433*%
%ADD162R,0.00118X0.00276*%
%ADD163R,0.00118X0.00394*%
%ADD164R,0.00118X0.01654*%
%ADD165R,0.00157X0.00669*%
%ADD166R,0.00157X0.01772*%
%ADD167R,0.00118X0.00984*%
%ADD168R,0.00118X0.01772*%
%ADD169R,0.00157X0.02087*%
%ADD170R,0.00157X0.02638*%
%ADD171R,0.00118X0.01378*%
%ADD172R,0.00118X0.02205*%
%ADD173R,0.00118X0.03189*%
%ADD174R,0.00118X0.01102*%
%ADD175R,0.00118X0.02362*%
%ADD176R,0.00157X0.02480*%
%ADD177R,0.00118X0.00945*%
%ADD178R,0.00118X0.02480*%
%ADD179R,0.00157X0.00984*%
%ADD180R,0.00118X0.00669*%
%ADD181R,0.00118X0.00827*%
%ADD182R,0.00157X0.02756*%
%ADD183R,0.00118X0.02756*%
%ADD184R,0.00118X0.01929*%
%ADD185R,0.00118X0.02913*%
%ADD186R,0.15906X0.00079*%
%ADD187R,0.16772X0.00079*%
%ADD188R,0.17244X0.00079*%
%ADD189R,0.17717X0.00079*%
%ADD190R,0.18031X0.00079*%
%ADD191R,0.18346X0.00079*%
%ADD192R,0.18661X0.00079*%
%ADD193R,0.18898X0.00079*%
%ADD194R,0.19134X0.00079*%
%ADD195R,0.19370X0.00079*%
%ADD196R,0.19528X0.00079*%
%ADD197R,0.19764X0.00079*%
%ADD198R,0.19921X0.00079*%
%ADD199R,0.20079X0.00079*%
%ADD200R,0.20236X0.00079*%
%ADD201R,0.20394X0.00079*%
%ADD202R,0.20551X0.00079*%
%ADD203R,0.20630X0.00079*%
%ADD204R,0.20709X0.00079*%
%ADD205R,0.20866X0.00079*%
%ADD206R,0.02362X0.00079*%
%ADD207R,0.00787X0.00079*%
%ADD208R,0.00197X0.00079*%
%ADD209R,0.01654X0.00079*%
%ADD210R,0.00157X0.00079*%
%ADD211R,0.00315X0.00079*%
%ADD212R,0.01890X0.00079*%
%ADD213R,0.02205X0.00079*%
%ADD214R,0.00630X0.00079*%
%ADD215R,0.00276X0.00079*%
%ADD216R,0.00236X0.00079*%
%ADD217R,0.01575X0.00079*%
%ADD218R,0.02283X0.00079*%
%ADD219R,0.02047X0.00079*%
%ADD220R,0.00472X0.00079*%
%ADD221R,0.01496X0.00079*%
%ADD222R,0.01417X0.00079*%
%ADD223R,0.01969X0.00079*%
%ADD224R,0.01260X0.00079*%
%ADD225R,0.00354X0.00079*%
%ADD226R,0.01102X0.00079*%
%ADD227R,0.02441X0.00079*%
%ADD228R,0.01890X0.00039*%
%ADD229R,0.00157X0.00039*%
%ADD230R,0.00354X0.00039*%
%ADD231R,0.01496X0.00039*%
%ADD232R,0.01417X0.00039*%
%ADD233R,0.00315X0.00039*%
%ADD234R,0.01024X0.00039*%
%ADD235R,0.02441X0.00039*%
%ADD236R,0.01811X0.00079*%
%ADD237R,0.00079X0.00079*%
%ADD238R,0.00433X0.00079*%
%ADD239R,0.01339X0.00079*%
%ADD240R,0.00945X0.00079*%
%ADD241R,0.02520X0.00079*%
%ADD242R,0.00394X0.00079*%
%ADD243R,0.00866X0.00079*%
%ADD244R,0.01732X0.00079*%
%ADD245R,0.02598X0.00079*%
%ADD246R,0.00512X0.00079*%
%ADD247R,0.01181X0.00079*%
%ADD248R,0.00709X0.00079*%
%ADD249R,0.02677X0.00079*%
%ADD250R,0.00591X0.00079*%
%ADD251R,0.00551X0.00079*%
%ADD252R,0.01024X0.00079*%
%ADD253R,0.02717X0.00079*%
%ADD254R,0.03110X0.00079*%
%ADD255R,0.00669X0.00079*%
%ADD256R,0.03307X0.00079*%
%ADD257R,0.03386X0.00079*%
%ADD258R,0.03543X0.00079*%
%ADD259R,0.01457X0.00079*%
%ADD260R,0.00748X0.00079*%
%ADD261R,0.03622X0.00079*%
%ADD262R,0.01614X0.00079*%
%ADD263R,0.00827X0.00079*%
%ADD264R,0.03701X0.00079*%
%ADD265R,0.01693X0.00079*%
%ADD266R,0.03780X0.00079*%
%ADD267R,0.01772X0.00079*%
%ADD268R,0.00906X0.00079*%
%ADD269R,0.00984X0.00079*%
%ADD270R,0.01063X0.00079*%
%ADD271R,0.01142X0.00079*%
%ADD272R,0.01220X0.00079*%
%ADD273R,0.03465X0.00079*%
%ADD274R,0.01299X0.00079*%
%ADD275R,0.01378X0.00079*%
%ADD276R,0.03189X0.00079*%
%ADD277R,0.01732X0.00039*%
%ADD278R,0.01535X0.00039*%
%ADD279R,0.01220X0.00039*%
%ADD280R,0.01457X0.00039*%
%ADD281R,0.00787X0.00039*%
%ADD282R,0.02520X0.00039*%
%ADD283R,0.01535X0.00079*%
%ADD284R,0.12677X0.00079*%
%ADD285R,0.03976X0.00079*%
%ADD286R,0.15394X0.00079*%
%ADD287R,0.03898X0.00079*%
%ADD288R,0.15315X0.00079*%
%ADD289R,0.15236X0.00079*%
%ADD290R,0.03819X0.00079*%
%ADD291R,0.15157X0.00079*%
%ADD292R,0.03740X0.00079*%
%ADD293R,0.15079X0.00079*%
%ADD294R,0.03661X0.00079*%
%ADD295R,0.15000X0.00079*%
%ADD296R,0.03583X0.00079*%
%ADD297R,0.03504X0.00079*%
%ADD298R,0.14843X0.00079*%
%ADD299R,0.03346X0.00079*%
%ADD300R,0.14764X0.00079*%
%ADD301R,0.03268X0.00079*%
%ADD302R,0.14685X0.00079*%
%ADD303R,0.14528X0.00079*%
%ADD304R,0.03031X0.00079*%
%ADD305R,0.14449X0.00079*%
%ADD306R,0.02953X0.00079*%
%ADD307R,0.14291X0.00079*%
%ADD308R,0.02795X0.00079*%
%ADD309R,0.14213X0.00079*%
%ADD310R,0.02638X0.00079*%
%ADD311R,0.14055X0.00079*%
%ADD312R,0.02402X0.00079*%
%ADD313R,0.13819X0.00079*%
%ADD314R,0.02244X0.00079*%
%ADD315R,0.13583X0.00079*%
%ADD316R,0.01929X0.00079*%
%ADD317R,0.13268X0.00079*%
%ADD318R,0.12874X0.00079*%
%ADD319R,0.24094X0.00157*%
%ADD320R,0.24094X0.00118*%
%ADD321R,0.03150X0.00118*%
%ADD322R,0.20512X0.00118*%
%ADD323R,0.02323X0.00157*%
%ADD324R,0.02874X0.00157*%
%ADD325R,0.02205X0.00118*%
%ADD326R,0.02874X0.00118*%
%ADD327R,0.02047X0.00157*%
%ADD328R,0.01772X0.00157*%
%ADD329R,0.01378X0.00157*%
%ADD330R,0.03189X0.00118*%
%ADD331R,0.03189X0.00157*%
%ADD332R,0.03031X0.00157*%
%ADD333R,0.00157X0.00157*%
%ADD334R,0.02913X0.00118*%
%ADD335R,0.02913X0.00157*%
%ADD336R,0.00551X0.00197*%
%ADD337R,0.01654X0.00197*%
%ADD338R,0.02362X0.00197*%
%ADD339R,0.00906X0.00197*%
%ADD340R,0.00748X0.00157*%
%ADD341R,0.00354X0.00197*%
%ADD342R,0.01260X0.00197*%
%ADD343R,0.00709X0.00197*%
%ADD344R,0.00748X0.00197*%
%ADD345R,0.01496X0.00197*%
%ADD346R,0.02047X0.00197*%
%ADD347R,0.01850X0.00157*%
%ADD348R,0.02244X0.00157*%
%ADD349R,0.00945X0.00197*%
%ADD350R,0.01102X0.00197*%
%ADD351R,0.00591X0.00157*%
%ADD352R,0.02205X0.00197*%
%ADD353R,0.00591X0.00197*%
%ADD354R,0.02402X0.00197*%
%ADD355R,0.00394X0.00197*%
%ADD356R,0.00354X0.00157*%
%ADD357R,0.02402X0.00157*%
%ADD358R,0.01299X0.00197*%
%ADD359R,0.00906X0.00157*%
%ADD360R,0.01142X0.00197*%
%ADD361R,0.01850X0.00197*%
%ADD362R,0.02244X0.00197*%
%ADD363R,0.01299X0.00157*%
%ADD364R,0.05709X0.00157*%
%ADD365R,0.04449X0.00157*%
%ADD366R,0.05709X0.00197*%
%ADD367R,0.04449X0.00197*%
%ADD368R,0.01457X0.00197*%
%ADD369R,0.02953X0.00157*%
%ADD370R,0.03110X0.00157*%
%ADD371R,0.03307X0.00197*%
%ADD372R,0.04055X0.00197*%
%ADD373R,0.03504X0.00197*%
%ADD374R,0.02953X0.00197*%
%ADD375R,0.03661X0.00197*%
%ADD376R,0.04252X0.00197*%
%ADD377R,0.01811X0.00197*%
%ADD378R,0.03701X0.00197*%
%ADD379R,0.01693X0.00197*%
%ADD380R,0.04055X0.00157*%
%ADD381R,0.04606X0.00157*%
%ADD382R,0.04606X0.00197*%
%ADD383R,0.02756X0.00197*%
%ADD384R,0.01457X0.00157*%
%ADD385R,0.00197X0.00157*%
%ADD386R,0.03858X0.00197*%
%ADD387R,0.03110X0.00197*%
%ADD388R,0.03150X0.00197*%
%ADD389R,0.02008X0.00197*%
%ADD390R,0.12244X0.00157*%
%ADD391R,0.12953X0.00118*%
%ADD392R,0.13504X0.00118*%
%ADD393R,0.13976X0.00118*%
%ADD394R,0.14213X0.00118*%
%ADD395R,0.14488X0.00157*%
%ADD396R,0.14764X0.00118*%
%ADD397R,0.08819X0.00118*%
%ADD398R,0.02126X0.00118*%
%ADD399R,0.02402X0.00118*%
%ADD400R,0.00512X0.00118*%
%ADD401R,0.01417X0.00118*%
%ADD402R,0.01890X0.00118*%
%ADD403R,0.01142X0.00118*%
%ADD404R,0.02520X0.00118*%
%ADD405R,0.00748X0.00118*%
%ADD406R,0.02638X0.00118*%
%ADD407R,0.00630X0.00118*%
%ADD408R,0.02795X0.00118*%
%ADD409R,0.02677X0.00118*%
%ADD410R,0.00866X0.00118*%
%ADD411R,0.02795X0.00157*%
%ADD412R,0.02165X0.00118*%
%ADD413R,0.02283X0.00118*%
%ADD414R,0.00236X0.00157*%
%ADD415R,0.02283X0.00157*%
%ADD416R,0.00236X0.00118*%
%ADD417R,0.00354X0.00118*%
%ADD418R,0.02165X0.00157*%
%ADD419R,0.02008X0.00118*%
%ADD420R,0.02008X0.00157*%
%ADD421R,0.00512X0.00157*%
%ADD422R,0.01024X0.00118*%
%ADD423R,0.02244X0.00118*%
%ADD424C,0.00500*%
%ADD425C,0.00600*%
%ADD426C,0.01000*%
%ADD427R,0.00157X0.12126*%
%ADD428R,0.00157X0.13071*%
%ADD429R,0.00157X0.13701*%
%ADD430R,0.00157X0.14331*%
%ADD431R,0.00157X0.14646*%
%ADD432R,0.00157X0.15276*%
%ADD433R,0.00157X0.07087*%
%ADD434R,0.00157X0.07244*%
%ADD435R,0.00157X0.08976*%
%ADD436R,0.00157X0.08819*%
%ADD437R,0.00157X0.08661*%
%ADD438R,0.00157X0.02677*%
%ADD439R,0.00157X0.11496*%
%ADD440R,0.00157X0.12441*%
%ADD441R,0.00157X0.06929*%
%ADD442R,0.00157X0.04567*%
%ADD443R,0.00157X0.04882*%
%ADD444R,0.00157X0.04724*%
%ADD445R,0.00157X0.08504*%
%ADD446R,0.00157X0.17480*%
%ADD447R,0.00157X0.17795*%
%ADD448R,0.00157X0.18110*%
%ADD449R,0.00157X0.18425*%
%ADD450R,0.00157X0.11811*%
%ADD451R,0.00157X0.06142*%
%ADD452R,0.00157X0.08189*%
%ADD453R,0.00157X0.08031*%
%ADD454R,0.00157X0.07874*%
%ADD455R,0.00157X0.07717*%
%ADD456R,0.00157X0.06772*%
%ADD457R,0.00157X0.06614*%
%ADD458R,0.00157X0.06457*%
%ADD459R,0.00157X0.05039*%
%ADD460R,0.11417X0.00157*%
%ADD461R,0.12165X0.00118*%
%ADD462R,0.12677X0.00118*%
%ADD463R,0.13189X0.00118*%
%ADD464R,0.13425X0.00157*%
%ADD465R,0.13701X0.00118*%
%ADD466R,0.13937X0.00118*%
%ADD467R,0.04843X0.00118*%
%ADD468R,0.01299X0.00118*%
%ADD469R,0.02441X0.00118*%
%ADD470R,0.01063X0.00118*%
%ADD471R,0.02559X0.00157*%
%ADD472R,0.02559X0.00118*%
%ADD473R,0.01181X0.00118*%
%ADD474R,0.02717X0.00118*%
%ADD475R,0.02717X0.00157*%
%ADD476R,0.00118X0.00118*%
%ADD477R,0.03071X0.00118*%
%ADD478R,0.03071X0.00157*%
%ADD479R,0.02953X0.00118*%
%ADD480R,0.00787X0.00118*%
%ADD481R,0.01181X0.00157*%
%ADD482R,0.01142X0.00157*%
%ADD483R,0.00157X0.07598*%
%ADD484R,0.00118X0.07598*%
%ADD485R,0.00157X0.00394*%
%ADD486R,0.00157X0.00276*%
%ADD487R,0.00157X0.01496*%
%ADD488R,0.00157X0.01378*%
%ADD489R,0.00118X0.01220*%
%ADD490R,0.00157X0.01220*%
%ADD491R,0.00157X0.07559*%
%ADD492R,0.00118X0.07559*%
%ADD493R,0.00118X0.04409*%
%ADD494R,0.00118X0.02323*%
%ADD495R,0.00157X0.00709*%
%ADD496R,0.00118X0.00551*%
%ADD497R,0.00118X0.01496*%
%ADD498R,0.00157X0.02323*%
%ADD499R,0.01181X0.00236*%
%ADD500R,0.03780X0.00236*%
%ADD501R,0.01417X0.00236*%
%ADD502R,0.04724X0.00236*%
%ADD503R,0.01654X0.00236*%
%ADD504R,0.02362X0.00236*%
%ADD505R,0.04961X0.00236*%
%ADD506R,0.03071X0.00236*%
%ADD507R,0.03543X0.00236*%
%ADD508R,0.04252X0.00236*%
%ADD509R,0.00472X0.00236*%
%ADD510R,0.01890X0.00236*%
%ADD511R,0.02126X0.00236*%
%ADD512R,0.04016X0.00236*%
%ADD513R,0.04488X0.00236*%
%ADD514R,0.02598X0.00236*%
%ADD515R,0.02835X0.00236*%
%ADD516R,0.00709X0.00236*%
%ADD517R,0.03307X0.00236*%
%ADD518R,0.00945X0.00236*%
D10*
X0169396Y0071181D02*
X0211396Y0071181D01*
D11*
X0163948Y0065679D02*
X0160198Y0065679D01*
X0156074Y0065679D02*
X0152324Y0065679D01*
X0148200Y0065679D02*
X0144450Y0065679D01*
X0140326Y0065679D02*
X0136576Y0065679D01*
X0153799Y0095151D02*
X0162473Y0095151D01*
X0162473Y0103825D01*
X0153799Y0103825D01*
X0153799Y0095151D01*
X0129672Y0118681D02*
X0129672Y0123602D01*
X0129672Y0126555D02*
X0129672Y0131476D01*
X0126247Y0131476D02*
X0119160Y0131476D01*
X0119160Y0126555D02*
X0126247Y0126555D01*
X0126247Y0123602D02*
X0119160Y0123602D01*
X0119160Y0118681D02*
X0126247Y0118681D01*
X0174475Y0121142D02*
X0174475Y0125079D01*
X0181168Y0125079D02*
X0181168Y0121142D01*
X0218570Y0158543D02*
X0218570Y0161496D01*
X0215610Y0160512D02*
X0215612Y0160552D01*
X0215618Y0160591D01*
X0215628Y0160630D01*
X0215641Y0160667D01*
X0215659Y0160703D01*
X0215680Y0160737D01*
X0215704Y0160769D01*
X0215731Y0160798D01*
X0215761Y0160825D01*
X0215793Y0160848D01*
X0215828Y0160868D01*
X0215864Y0160884D01*
X0215902Y0160897D01*
X0215941Y0160906D01*
X0215980Y0160911D01*
X0216020Y0160912D01*
X0216060Y0160909D01*
X0216099Y0160902D01*
X0216137Y0160891D01*
X0216175Y0160877D01*
X0216210Y0160858D01*
X0216243Y0160837D01*
X0216275Y0160812D01*
X0216303Y0160784D01*
X0216329Y0160754D01*
X0216351Y0160721D01*
X0216370Y0160686D01*
X0216386Y0160649D01*
X0216398Y0160611D01*
X0216406Y0160572D01*
X0216410Y0160532D01*
X0216410Y0160492D01*
X0216406Y0160452D01*
X0216398Y0160413D01*
X0216386Y0160375D01*
X0216370Y0160338D01*
X0216351Y0160303D01*
X0216329Y0160270D01*
X0216303Y0160240D01*
X0216275Y0160212D01*
X0216243Y0160187D01*
X0216210Y0160166D01*
X0216175Y0160147D01*
X0216137Y0160133D01*
X0216099Y0160122D01*
X0216060Y0160115D01*
X0216020Y0160112D01*
X0215980Y0160113D01*
X0215941Y0160118D01*
X0215902Y0160127D01*
X0215864Y0160140D01*
X0215828Y0160156D01*
X0215793Y0160176D01*
X0215761Y0160199D01*
X0215731Y0160226D01*
X0215704Y0160255D01*
X0215680Y0160287D01*
X0215659Y0160321D01*
X0215641Y0160357D01*
X0215628Y0160394D01*
X0215618Y0160433D01*
X0215612Y0160472D01*
X0215610Y0160512D01*
X0218570Y0158543D02*
X0225066Y0158543D01*
X0235302Y0164449D02*
X0235302Y0176260D01*
X0225066Y0182165D02*
X0218570Y0182165D01*
X0218570Y0179213D01*
X0188727Y0177950D02*
X0188727Y0174569D01*
X0184784Y0179050D02*
X0182670Y0179050D01*
X0178727Y0177950D02*
X0178727Y0174569D01*
X0189836Y0199983D02*
X0189836Y0204206D01*
X0192985Y0204206D01*
X0192985Y0210518D01*
X0123288Y0210518D01*
X0123288Y0204206D01*
X0126437Y0204206D01*
X0126437Y0199983D01*
X0105144Y0188228D02*
X0093018Y0188228D01*
X0089081Y0183110D02*
X0089081Y0173346D01*
X0093018Y0168228D02*
X0105144Y0168228D01*
X0109081Y0173228D02*
X0109081Y0183110D01*
X0094081Y0178228D02*
X0094083Y0178369D01*
X0094089Y0178510D01*
X0094099Y0178650D01*
X0094113Y0178790D01*
X0094131Y0178930D01*
X0094152Y0179069D01*
X0094178Y0179208D01*
X0094207Y0179346D01*
X0094241Y0179482D01*
X0094278Y0179618D01*
X0094319Y0179753D01*
X0094364Y0179887D01*
X0094413Y0180019D01*
X0094465Y0180150D01*
X0094521Y0180279D01*
X0094581Y0180406D01*
X0094644Y0180532D01*
X0094710Y0180656D01*
X0094781Y0180779D01*
X0094854Y0180899D01*
X0094931Y0181017D01*
X0095011Y0181133D01*
X0095095Y0181246D01*
X0095181Y0181357D01*
X0095271Y0181466D01*
X0095364Y0181572D01*
X0095459Y0181675D01*
X0095558Y0181776D01*
X0095659Y0181874D01*
X0095763Y0181969D01*
X0095870Y0182061D01*
X0095979Y0182150D01*
X0096091Y0182235D01*
X0096205Y0182318D01*
X0096321Y0182398D01*
X0096440Y0182474D01*
X0096561Y0182546D01*
X0096683Y0182616D01*
X0096808Y0182681D01*
X0096934Y0182744D01*
X0097062Y0182802D01*
X0097192Y0182857D01*
X0097323Y0182909D01*
X0097456Y0182956D01*
X0097590Y0183000D01*
X0097725Y0183041D01*
X0097861Y0183077D01*
X0097998Y0183109D01*
X0098136Y0183138D01*
X0098274Y0183163D01*
X0098414Y0183183D01*
X0098554Y0183200D01*
X0098694Y0183213D01*
X0098835Y0183222D01*
X0098975Y0183227D01*
X0099116Y0183228D01*
X0099257Y0183225D01*
X0099398Y0183218D01*
X0099538Y0183207D01*
X0099678Y0183192D01*
X0099818Y0183173D01*
X0099957Y0183151D01*
X0100095Y0183124D01*
X0100233Y0183094D01*
X0100369Y0183059D01*
X0100505Y0183021D01*
X0100639Y0182979D01*
X0100773Y0182933D01*
X0100905Y0182884D01*
X0101035Y0182830D01*
X0101164Y0182773D01*
X0101291Y0182713D01*
X0101417Y0182649D01*
X0101540Y0182581D01*
X0101662Y0182510D01*
X0101782Y0182436D01*
X0101899Y0182358D01*
X0102014Y0182277D01*
X0102127Y0182193D01*
X0102238Y0182106D01*
X0102346Y0182015D01*
X0102451Y0181922D01*
X0102554Y0181825D01*
X0102654Y0181726D01*
X0102751Y0181624D01*
X0102845Y0181519D01*
X0102936Y0181412D01*
X0103024Y0181302D01*
X0103109Y0181190D01*
X0103191Y0181075D01*
X0103270Y0180958D01*
X0103345Y0180839D01*
X0103417Y0180718D01*
X0103485Y0180595D01*
X0103550Y0180470D01*
X0103612Y0180343D01*
X0103669Y0180214D01*
X0103724Y0180084D01*
X0103774Y0179953D01*
X0103821Y0179820D01*
X0103864Y0179686D01*
X0103903Y0179550D01*
X0103938Y0179414D01*
X0103970Y0179277D01*
X0103997Y0179139D01*
X0104021Y0179000D01*
X0104041Y0178860D01*
X0104057Y0178720D01*
X0104069Y0178580D01*
X0104077Y0178439D01*
X0104081Y0178298D01*
X0104081Y0178158D01*
X0104077Y0178017D01*
X0104069Y0177876D01*
X0104057Y0177736D01*
X0104041Y0177596D01*
X0104021Y0177456D01*
X0103997Y0177317D01*
X0103970Y0177179D01*
X0103938Y0177042D01*
X0103903Y0176906D01*
X0103864Y0176770D01*
X0103821Y0176636D01*
X0103774Y0176503D01*
X0103724Y0176372D01*
X0103669Y0176242D01*
X0103612Y0176113D01*
X0103550Y0175986D01*
X0103485Y0175861D01*
X0103417Y0175738D01*
X0103345Y0175617D01*
X0103270Y0175498D01*
X0103191Y0175381D01*
X0103109Y0175266D01*
X0103024Y0175154D01*
X0102936Y0175044D01*
X0102845Y0174937D01*
X0102751Y0174832D01*
X0102654Y0174730D01*
X0102554Y0174631D01*
X0102451Y0174534D01*
X0102346Y0174441D01*
X0102238Y0174350D01*
X0102127Y0174263D01*
X0102014Y0174179D01*
X0101899Y0174098D01*
X0101782Y0174020D01*
X0101662Y0173946D01*
X0101540Y0173875D01*
X0101417Y0173807D01*
X0101291Y0173743D01*
X0101164Y0173683D01*
X0101035Y0173626D01*
X0100905Y0173572D01*
X0100773Y0173523D01*
X0100639Y0173477D01*
X0100505Y0173435D01*
X0100369Y0173397D01*
X0100233Y0173362D01*
X0100095Y0173332D01*
X0099957Y0173305D01*
X0099818Y0173283D01*
X0099678Y0173264D01*
X0099538Y0173249D01*
X0099398Y0173238D01*
X0099257Y0173231D01*
X0099116Y0173228D01*
X0098975Y0173229D01*
X0098835Y0173234D01*
X0098694Y0173243D01*
X0098554Y0173256D01*
X0098414Y0173273D01*
X0098274Y0173293D01*
X0098136Y0173318D01*
X0097998Y0173347D01*
X0097861Y0173379D01*
X0097725Y0173415D01*
X0097590Y0173456D01*
X0097456Y0173500D01*
X0097323Y0173547D01*
X0097192Y0173599D01*
X0097062Y0173654D01*
X0096934Y0173712D01*
X0096808Y0173775D01*
X0096683Y0173840D01*
X0096561Y0173910D01*
X0096440Y0173982D01*
X0096321Y0174058D01*
X0096205Y0174138D01*
X0096091Y0174221D01*
X0095979Y0174306D01*
X0095870Y0174395D01*
X0095763Y0174487D01*
X0095659Y0174582D01*
X0095558Y0174680D01*
X0095459Y0174781D01*
X0095364Y0174884D01*
X0095271Y0174990D01*
X0095181Y0175099D01*
X0095095Y0175210D01*
X0095011Y0175323D01*
X0094931Y0175439D01*
X0094854Y0175557D01*
X0094781Y0175677D01*
X0094710Y0175800D01*
X0094644Y0175924D01*
X0094581Y0176050D01*
X0094521Y0176177D01*
X0094465Y0176306D01*
X0094413Y0176437D01*
X0094364Y0176569D01*
X0094319Y0176703D01*
X0094278Y0176838D01*
X0094241Y0176974D01*
X0094207Y0177110D01*
X0094178Y0177248D01*
X0094152Y0177387D01*
X0094131Y0177526D01*
X0094113Y0177666D01*
X0094099Y0177806D01*
X0094089Y0177946D01*
X0094083Y0178087D01*
X0094081Y0178228D01*
D12*
X0153012Y0104613D03*
D13*
X0177427Y0172260D03*
D14*
X0098924Y0189173D03*
X0098924Y0194843D03*
G36*
X0221304Y0084933D02*
X0211618Y0075247D01*
X0211508Y0075357D01*
X0221194Y0085043D01*
X0221304Y0084933D01*
G37*
G36*
X0225758Y0080479D02*
X0216072Y0070793D01*
X0215962Y0070903D01*
X0225648Y0080589D01*
X0225758Y0080479D01*
G37*
D15*
G36*
X0225982Y0080924D02*
X0215627Y0070569D01*
X0215516Y0070680D01*
X0225871Y0081035D01*
X0225982Y0080924D01*
G37*
G36*
X0221751Y0085156D02*
X0211396Y0074801D01*
X0211285Y0074912D01*
X0221640Y0085267D01*
X0221751Y0085156D01*
G37*
X0098924Y0189488D03*
X0098924Y0194528D03*
D16*
X0098924Y0194213D03*
X0098924Y0189803D03*
G36*
X0222085Y0085267D02*
X0211284Y0074466D01*
X0211173Y0074577D01*
X0221974Y0085378D01*
X0222085Y0085267D01*
G37*
G36*
X0226094Y0081259D02*
X0215293Y0070458D01*
X0215182Y0070569D01*
X0225983Y0081370D01*
X0226094Y0081259D01*
G37*
D17*
G36*
X0226204Y0081593D02*
X0214958Y0070347D01*
X0214848Y0070457D01*
X0226094Y0081703D01*
X0226204Y0081593D01*
G37*
G36*
X0222418Y0085379D02*
X0211172Y0074133D01*
X0211062Y0074243D01*
X0222308Y0085489D01*
X0222418Y0085379D01*
G37*
D18*
G36*
X0222641Y0085379D02*
X0211173Y0073911D01*
X0211063Y0074021D01*
X0222531Y0085489D01*
X0222641Y0085379D01*
G37*
G36*
X0226204Y0081815D02*
X0214736Y0070347D01*
X0214626Y0070457D01*
X0226094Y0081925D01*
X0226204Y0081815D01*
G37*
D19*
G36*
X0226204Y0082038D02*
X0214514Y0070348D01*
X0214404Y0070458D01*
X0226094Y0082148D01*
X0226204Y0082038D01*
G37*
G36*
X0222863Y0085378D02*
X0211173Y0073688D01*
X0211063Y0073798D01*
X0222753Y0085488D01*
X0222863Y0085378D01*
G37*
D20*
G36*
X0223086Y0085379D02*
X0211172Y0073465D01*
X0211062Y0073575D01*
X0222976Y0085489D01*
X0223086Y0085379D01*
G37*
G36*
X0226204Y0082261D02*
X0214290Y0070347D01*
X0214180Y0070457D01*
X0226094Y0082371D01*
X0226204Y0082261D01*
G37*
D21*
G36*
X0226205Y0082484D02*
X0223199Y0079478D01*
X0223089Y0079588D01*
X0226095Y0082594D01*
X0226205Y0082484D01*
G37*
G36*
X0214178Y0076248D02*
X0211172Y0073242D01*
X0211062Y0073352D01*
X0214068Y0076358D01*
X0214178Y0076248D01*
G37*
X0104593Y0189961D03*
X0104751Y0190118D03*
X0104751Y0190276D03*
D22*
X0105192Y0107437D03*
X0105192Y0107161D03*
X0105192Y0106886D03*
X0105192Y0106610D03*
X0105192Y0102752D03*
X0105192Y0102476D03*
X0105192Y0102201D03*
X0105192Y0101925D03*
G36*
X0223309Y0085379D02*
X0214847Y0076917D01*
X0214737Y0077027D01*
X0223199Y0085489D01*
X0223309Y0085379D01*
G37*
D23*
G36*
X0223532Y0085379D02*
X0220638Y0082485D01*
X0220528Y0082595D01*
X0223422Y0085489D01*
X0223532Y0085379D01*
G37*
G36*
X0214066Y0075914D02*
X0211172Y0073020D01*
X0211062Y0073130D01*
X0213956Y0076024D01*
X0214066Y0075914D01*
G37*
G36*
X0216962Y0073241D02*
X0214068Y0070347D01*
X0213958Y0070457D01*
X0216852Y0073351D01*
X0216962Y0073241D01*
G37*
D24*
G36*
X0217073Y0074912D02*
X0216183Y0074022D01*
X0216073Y0074132D01*
X0216963Y0075022D01*
X0217073Y0074912D01*
G37*
G36*
X0218966Y0075246D02*
X0218076Y0074356D01*
X0217966Y0074466D01*
X0218856Y0075356D01*
X0218966Y0075246D01*
G37*
G36*
X0220191Y0077139D02*
X0219301Y0076249D01*
X0219191Y0076359D01*
X0220081Y0077249D01*
X0220191Y0077139D01*
G37*
G36*
X0220080Y0077250D02*
X0219190Y0076360D01*
X0219080Y0076470D01*
X0219970Y0077360D01*
X0220080Y0077250D01*
G37*
G36*
X0218410Y0079366D02*
X0217520Y0078476D01*
X0217410Y0078586D01*
X0218300Y0079476D01*
X0218410Y0079366D01*
G37*
G36*
X0221527Y0081593D02*
X0220637Y0080703D01*
X0220527Y0080813D01*
X0221417Y0081703D01*
X0221527Y0081593D01*
G37*
G36*
X0222530Y0080591D02*
X0221640Y0079701D01*
X0221530Y0079811D01*
X0222420Y0080701D01*
X0222530Y0080591D01*
G37*
G36*
X0216182Y0078030D02*
X0215292Y0077140D01*
X0215182Y0077250D01*
X0216072Y0078140D01*
X0216182Y0078030D01*
G37*
X0208948Y0098898D03*
X0208948Y0099449D03*
X0208948Y0100000D03*
X0202688Y0097795D03*
X0199932Y0100551D03*
X0199932Y0101102D03*
X0197530Y0100551D03*
X0197530Y0100000D03*
X0197530Y0099449D03*
X0197530Y0098898D03*
X0197530Y0098346D03*
X0197530Y0097795D03*
X0197530Y0097244D03*
X0188514Y0098346D03*
X0186861Y0106610D03*
X0193672Y0106610D03*
X0226625Y0098898D03*
X0232885Y0097244D03*
X0109050Y0166559D03*
X0106845Y0166835D03*
X0097428Y0189961D03*
X0098688Y0191220D03*
X0095381Y0190433D03*
X0095381Y0190276D03*
X0095381Y0192323D03*
X0095381Y0192480D03*
X0095381Y0192638D03*
X0095381Y0192795D03*
X0112381Y0211311D03*
X0196436Y0206354D03*
X0201121Y0207732D03*
X0212696Y0208008D03*
D25*
X0100735Y0193110D03*
X0100735Y0192953D03*
X0100735Y0192165D03*
X0100735Y0190118D03*
G36*
X0218076Y0079923D02*
X0216740Y0078587D01*
X0216630Y0078697D01*
X0217966Y0080033D01*
X0218076Y0079923D01*
G37*
G36*
X0220860Y0077139D02*
X0219524Y0075803D01*
X0219414Y0075913D01*
X0220750Y0077249D01*
X0220860Y0077139D01*
G37*
D26*
G36*
X0221750Y0078252D02*
X0221306Y0077808D01*
X0221196Y0077918D01*
X0221640Y0078362D01*
X0221750Y0078252D01*
G37*
G36*
X0222307Y0079922D02*
X0221863Y0079478D01*
X0221753Y0079588D01*
X0222197Y0080032D01*
X0222307Y0079922D01*
G37*
G36*
X0219077Y0080925D02*
X0218633Y0080481D01*
X0218523Y0080591D01*
X0218967Y0081035D01*
X0219077Y0080925D01*
G37*
G36*
X0218966Y0078809D02*
X0218522Y0078365D01*
X0218412Y0078475D01*
X0218856Y0078919D01*
X0218966Y0078809D01*
G37*
G36*
X0219077Y0077361D02*
X0218633Y0076917D01*
X0218523Y0077027D01*
X0218967Y0077471D01*
X0219077Y0077361D01*
G37*
G36*
X0217184Y0076805D02*
X0216740Y0076361D01*
X0216630Y0076471D01*
X0217074Y0076915D01*
X0217184Y0076805D01*
G37*
G36*
X0216628Y0077361D02*
X0216184Y0076917D01*
X0216074Y0077027D01*
X0216518Y0077471D01*
X0216628Y0077361D01*
G37*
G36*
X0216516Y0077473D02*
X0216072Y0077029D01*
X0215962Y0077139D01*
X0216406Y0077583D01*
X0216516Y0077473D01*
G37*
G36*
X0216405Y0077584D02*
X0215961Y0077140D01*
X0215851Y0077250D01*
X0216295Y0077694D01*
X0216405Y0077584D01*
G37*
G36*
X0216293Y0077695D02*
X0215849Y0077251D01*
X0215739Y0077361D01*
X0216183Y0077805D01*
X0216293Y0077695D01*
G37*
G36*
X0218632Y0075357D02*
X0218188Y0074913D01*
X0218078Y0075023D01*
X0218522Y0075467D01*
X0218632Y0075357D01*
G37*
X0111286Y0060354D03*
X0111286Y0058307D03*
X0107940Y0059843D03*
X0097113Y0191063D03*
X0097270Y0192008D03*
X0097270Y0192165D03*
X0097113Y0193268D03*
X0097113Y0193425D03*
X0099948Y0193898D03*
X0106791Y0210051D03*
D27*
G36*
X0223643Y0085268D02*
X0220971Y0082596D01*
X0220861Y0082706D01*
X0223533Y0085378D01*
X0223643Y0085268D01*
G37*
G36*
X0223866Y0085268D02*
X0221194Y0082596D01*
X0221084Y0082706D01*
X0223756Y0085378D01*
X0223866Y0085268D01*
G37*
G36*
X0213955Y0075580D02*
X0211283Y0072908D01*
X0211173Y0073018D01*
X0213845Y0075690D01*
X0213955Y0075580D01*
G37*
G36*
X0213955Y0075357D02*
X0211283Y0072685D01*
X0211173Y0072795D01*
X0213845Y0075467D01*
X0213955Y0075357D01*
G37*
D28*
G36*
X0216182Y0077806D02*
X0215627Y0077251D01*
X0215516Y0077362D01*
X0216071Y0077917D01*
X0216182Y0077806D01*
G37*
G36*
X0216739Y0077249D02*
X0216184Y0076694D01*
X0216073Y0076805D01*
X0216628Y0077360D01*
X0216739Y0077249D01*
G37*
G36*
X0219300Y0077361D02*
X0218745Y0076806D01*
X0218634Y0076917D01*
X0219189Y0077472D01*
X0219300Y0077361D01*
G37*
G36*
X0219412Y0077249D02*
X0218857Y0076694D01*
X0218746Y0076805D01*
X0219301Y0077360D01*
X0219412Y0077249D01*
G37*
G36*
X0218855Y0078920D02*
X0218300Y0078365D01*
X0218189Y0078476D01*
X0218744Y0079031D01*
X0218855Y0078920D01*
G37*
G36*
X0221862Y0078140D02*
X0221307Y0077585D01*
X0221196Y0077696D01*
X0221751Y0078251D01*
X0221862Y0078140D01*
G37*
G36*
X0217073Y0074688D02*
X0216518Y0074133D01*
X0216407Y0074244D01*
X0216962Y0074799D01*
X0217073Y0074688D01*
G37*
X0098766Y0190906D03*
X0097349Y0190118D03*
D29*
X0095381Y0189961D03*
X0100892Y0190433D03*
X0100892Y0190591D03*
X0100892Y0191693D03*
X0100892Y0191850D03*
G36*
X0221973Y0081593D02*
X0220861Y0080481D01*
X0220751Y0080591D01*
X0221863Y0081703D01*
X0221973Y0081593D01*
G37*
G36*
X0222084Y0081481D02*
X0220972Y0080369D01*
X0220862Y0080479D01*
X0221974Y0081591D01*
X0222084Y0081481D01*
G37*
G36*
X0222195Y0081370D02*
X0221083Y0080258D01*
X0220973Y0080368D01*
X0222085Y0081480D01*
X0222195Y0081370D01*
G37*
G36*
X0222307Y0081259D02*
X0221195Y0080147D01*
X0221085Y0080257D01*
X0222197Y0081369D01*
X0222307Y0081259D01*
G37*
G36*
X0222418Y0081147D02*
X0221306Y0080035D01*
X0221196Y0080145D01*
X0222308Y0081257D01*
X0222418Y0081147D01*
G37*
G36*
X0218075Y0079700D02*
X0216963Y0078588D01*
X0216853Y0078698D01*
X0217965Y0079810D01*
X0218075Y0079700D01*
G37*
G36*
X0216739Y0075245D02*
X0215627Y0074133D01*
X0215517Y0074243D01*
X0216629Y0075355D01*
X0216739Y0075245D01*
G37*
G36*
X0216850Y0075134D02*
X0215738Y0074022D01*
X0215628Y0074132D01*
X0216740Y0075244D01*
X0216850Y0075134D01*
G37*
D30*
G36*
X0217853Y0076136D02*
X0217520Y0075803D01*
X0217409Y0075914D01*
X0217742Y0076247D01*
X0217853Y0076136D01*
G37*
G36*
X0217964Y0076025D02*
X0217631Y0075692D01*
X0217520Y0075803D01*
X0217853Y0076136D01*
X0217964Y0076025D01*
G37*
G36*
X0218076Y0075913D02*
X0217743Y0075580D01*
X0217632Y0075691D01*
X0217965Y0076024D01*
X0218076Y0075913D01*
G37*
G36*
X0218187Y0075802D02*
X0217854Y0075469D01*
X0217743Y0075580D01*
X0218076Y0075913D01*
X0218187Y0075802D01*
G37*
G36*
X0218299Y0075691D02*
X0217966Y0075358D01*
X0217855Y0075469D01*
X0218188Y0075802D01*
X0218299Y0075691D01*
G37*
G36*
X0218410Y0075579D02*
X0218077Y0075246D01*
X0217966Y0075357D01*
X0218299Y0075690D01*
X0218410Y0075579D01*
G37*
G36*
X0218521Y0075468D02*
X0218188Y0075135D01*
X0218077Y0075246D01*
X0218410Y0075579D01*
X0218521Y0075468D01*
G37*
G36*
X0217742Y0076247D02*
X0217409Y0075914D01*
X0217298Y0076025D01*
X0217631Y0076358D01*
X0217742Y0076247D01*
G37*
G36*
X0217630Y0076359D02*
X0217297Y0076026D01*
X0217186Y0076137D01*
X0217519Y0076470D01*
X0217630Y0076359D01*
G37*
G36*
X0217519Y0076470D02*
X0217186Y0076137D01*
X0217075Y0076248D01*
X0217408Y0076581D01*
X0217519Y0076470D01*
G37*
G36*
X0217408Y0076581D02*
X0217075Y0076248D01*
X0216964Y0076359D01*
X0217297Y0076692D01*
X0217408Y0076581D01*
G37*
G36*
X0217296Y0076693D02*
X0216963Y0076360D01*
X0216852Y0076471D01*
X0217185Y0076804D01*
X0217296Y0076693D01*
G37*
G36*
X0218855Y0077361D02*
X0218522Y0077028D01*
X0218411Y0077139D01*
X0218744Y0077472D01*
X0218855Y0077361D01*
G37*
G36*
X0219189Y0078586D02*
X0218856Y0078253D01*
X0218745Y0078364D01*
X0219078Y0078697D01*
X0219189Y0078586D01*
G37*
G36*
X0219078Y0078697D02*
X0218745Y0078364D01*
X0218634Y0078475D01*
X0218967Y0078808D01*
X0219078Y0078697D01*
G37*
G36*
X0220080Y0079699D02*
X0219747Y0079366D01*
X0219636Y0079477D01*
X0219969Y0079810D01*
X0220080Y0079699D01*
G37*
G36*
X0220192Y0079588D02*
X0219859Y0079255D01*
X0219748Y0079366D01*
X0220081Y0079699D01*
X0220192Y0079588D01*
G37*
G36*
X0220303Y0079477D02*
X0219970Y0079144D01*
X0219859Y0079255D01*
X0220192Y0079588D01*
X0220303Y0079477D01*
G37*
G36*
X0220414Y0079365D02*
X0220081Y0079032D01*
X0219970Y0079143D01*
X0220303Y0079476D01*
X0220414Y0079365D01*
G37*
G36*
X0220526Y0079254D02*
X0220193Y0078921D01*
X0220082Y0079032D01*
X0220415Y0079365D01*
X0220526Y0079254D01*
G37*
G36*
X0220637Y0079143D02*
X0220304Y0078810D01*
X0220193Y0078921D01*
X0220526Y0079254D01*
X0220637Y0079143D01*
G37*
G36*
X0220748Y0079031D02*
X0220415Y0078698D01*
X0220304Y0078809D01*
X0220637Y0079142D01*
X0220748Y0079031D01*
G37*
G36*
X0220860Y0078920D02*
X0220527Y0078587D01*
X0220416Y0078698D01*
X0220749Y0079031D01*
X0220860Y0078920D01*
G37*
G36*
X0220971Y0078809D02*
X0220638Y0078476D01*
X0220527Y0078587D01*
X0220860Y0078920D01*
X0220971Y0078809D01*
G37*
G36*
X0221082Y0078697D02*
X0220749Y0078364D01*
X0220638Y0078475D01*
X0220971Y0078808D01*
X0221082Y0078697D01*
G37*
G36*
X0221194Y0078586D02*
X0220861Y0078253D01*
X0220750Y0078364D01*
X0221083Y0078697D01*
X0221194Y0078586D01*
G37*
G36*
X0221305Y0078475D02*
X0220972Y0078142D01*
X0220861Y0078253D01*
X0221194Y0078586D01*
X0221305Y0078475D01*
G37*
G36*
X0221416Y0078363D02*
X0221083Y0078030D01*
X0220972Y0078141D01*
X0221305Y0078474D01*
X0221416Y0078363D01*
G37*
G36*
X0221528Y0078252D02*
X0221195Y0077919D01*
X0221084Y0078030D01*
X0221417Y0078363D01*
X0221528Y0078252D01*
G37*
G36*
X0219969Y0079811D02*
X0219636Y0079478D01*
X0219525Y0079589D01*
X0219858Y0079922D01*
X0219969Y0079811D01*
G37*
G36*
X0219858Y0079922D02*
X0219525Y0079589D01*
X0219414Y0079700D01*
X0219747Y0080033D01*
X0219858Y0079922D01*
G37*
G36*
X0219746Y0080033D02*
X0219413Y0079700D01*
X0219302Y0079811D01*
X0219635Y0080144D01*
X0219746Y0080033D01*
G37*
G36*
X0219635Y0080145D02*
X0219302Y0079812D01*
X0219191Y0079923D01*
X0219524Y0080256D01*
X0219635Y0080145D01*
G37*
G36*
X0219523Y0080256D02*
X0219190Y0079923D01*
X0219079Y0080034D01*
X0219412Y0080367D01*
X0219523Y0080256D01*
G37*
G36*
X0219412Y0080368D02*
X0219079Y0080035D01*
X0218968Y0080146D01*
X0219301Y0080479D01*
X0219412Y0080368D01*
G37*
G36*
X0219301Y0080479D02*
X0218968Y0080146D01*
X0218857Y0080257D01*
X0219190Y0080590D01*
X0219301Y0080479D01*
G37*
G36*
X0219189Y0080590D02*
X0218856Y0080257D01*
X0218745Y0080368D01*
X0219078Y0080701D01*
X0219189Y0080590D01*
G37*
G36*
X0219078Y0080702D02*
X0218745Y0080369D01*
X0218634Y0080480D01*
X0218967Y0080813D01*
X0219078Y0080702D01*
G37*
X0097349Y0190276D03*
X0097192Y0190433D03*
X0097034Y0190906D03*
X0097192Y0192323D03*
X0097192Y0192480D03*
X0097192Y0192638D03*
X0097192Y0193110D03*
X0098766Y0193110D03*
X0100026Y0193740D03*
X0100184Y0193268D03*
D31*
X0100971Y0191535D03*
X0100971Y0191378D03*
X0100971Y0191220D03*
X0100971Y0191063D03*
X0100971Y0190906D03*
X0100971Y0190748D03*
X0097507Y0191693D03*
X0097034Y0193740D03*
X0095459Y0190118D03*
G36*
X0221749Y0081592D02*
X0220749Y0080592D01*
X0220639Y0080702D01*
X0221639Y0081702D01*
X0221749Y0081592D01*
G37*
G36*
X0222418Y0080924D02*
X0221418Y0079924D01*
X0221308Y0080034D01*
X0222308Y0081034D01*
X0222418Y0080924D01*
G37*
G36*
X0222529Y0080813D02*
X0221529Y0079813D01*
X0221419Y0079923D01*
X0222419Y0080923D01*
X0222529Y0080813D01*
G37*
G36*
X0220413Y0077138D02*
X0219413Y0076138D01*
X0219303Y0076248D01*
X0220303Y0077248D01*
X0220413Y0077138D01*
G37*
G36*
X0218297Y0079477D02*
X0217297Y0078477D01*
X0217187Y0078587D01*
X0218187Y0079587D01*
X0218297Y0079477D01*
G37*
G36*
X0218186Y0079588D02*
X0217186Y0078588D01*
X0217076Y0078698D01*
X0218076Y0079698D01*
X0218186Y0079588D01*
G37*
G36*
X0216961Y0075022D02*
X0215961Y0074022D01*
X0215851Y0074132D01*
X0216851Y0075132D01*
X0216961Y0075022D01*
G37*
X0114475Y0057795D03*
X0107940Y0060354D03*
D32*
G36*
X0213843Y0075023D02*
X0211395Y0072575D01*
X0211285Y0072685D01*
X0213733Y0075133D01*
X0213843Y0075023D01*
G37*
G36*
X0213955Y0074689D02*
X0211507Y0072241D01*
X0211397Y0072351D01*
X0213845Y0074799D01*
X0213955Y0074689D01*
G37*
G36*
X0214066Y0074354D02*
X0211618Y0071906D01*
X0211508Y0072016D01*
X0213956Y0074464D01*
X0214066Y0074354D01*
G37*
G36*
X0214178Y0074243D02*
X0211730Y0071795D01*
X0211620Y0071905D01*
X0214068Y0074353D01*
X0214178Y0074243D01*
G37*
G36*
X0215068Y0073352D02*
X0212620Y0070904D01*
X0212510Y0071014D01*
X0214958Y0073462D01*
X0215068Y0073352D01*
G37*
G36*
X0215848Y0073018D02*
X0213400Y0070570D01*
X0213290Y0070680D01*
X0215738Y0073128D01*
X0215848Y0073018D01*
G37*
G36*
X0215625Y0073018D02*
X0213177Y0070570D01*
X0213067Y0070680D01*
X0215515Y0073128D01*
X0215625Y0073018D01*
G37*
G36*
X0215514Y0073130D02*
X0213066Y0070682D01*
X0212956Y0070792D01*
X0215404Y0073240D01*
X0215514Y0073130D01*
G37*
G36*
X0215180Y0073241D02*
X0212732Y0070793D01*
X0212622Y0070903D01*
X0215070Y0073351D01*
X0215180Y0073241D01*
G37*
G36*
X0225981Y0083152D02*
X0223533Y0080704D01*
X0223423Y0080814D01*
X0225871Y0083262D01*
X0225981Y0083152D01*
G37*
G36*
X0225758Y0083820D02*
X0223310Y0081372D01*
X0223200Y0081482D01*
X0225648Y0083930D01*
X0225758Y0083820D01*
G37*
G36*
X0225870Y0083486D02*
X0223422Y0081038D01*
X0223312Y0081148D01*
X0225760Y0083596D01*
X0225870Y0083486D01*
G37*
G36*
X0225981Y0083374D02*
X0223533Y0080926D01*
X0223423Y0081036D01*
X0225871Y0083484D01*
X0225981Y0083374D01*
G37*
G36*
X0224645Y0084933D02*
X0222197Y0082485D01*
X0222087Y0082595D01*
X0224535Y0085043D01*
X0224645Y0084933D01*
G37*
G36*
X0224311Y0085045D02*
X0221863Y0082597D01*
X0221753Y0082707D01*
X0224201Y0085155D01*
X0224311Y0085045D01*
G37*
D33*
G36*
X0224200Y0085156D02*
X0221640Y0082596D01*
X0221530Y0082706D01*
X0224090Y0085266D01*
X0224200Y0085156D01*
G37*
G36*
X0223977Y0085156D02*
X0221417Y0082596D01*
X0221307Y0082706D01*
X0223867Y0085266D01*
X0223977Y0085156D01*
G37*
G36*
X0226093Y0083041D02*
X0223533Y0080481D01*
X0223423Y0080591D01*
X0225983Y0083151D01*
X0226093Y0083041D01*
G37*
G36*
X0226093Y0082818D02*
X0223533Y0080258D01*
X0223423Y0080368D01*
X0225983Y0082928D01*
X0226093Y0082818D01*
G37*
G36*
X0213955Y0074912D02*
X0211395Y0072352D01*
X0211285Y0072462D01*
X0213845Y0075022D01*
X0213955Y0074912D01*
G37*
G36*
X0216071Y0073019D02*
X0213511Y0070459D01*
X0213401Y0070569D01*
X0215961Y0073129D01*
X0216071Y0073019D01*
G37*
G36*
X0216294Y0073019D02*
X0213734Y0070459D01*
X0213624Y0070569D01*
X0216184Y0073129D01*
X0216294Y0073019D01*
G37*
D34*
G36*
X0215737Y0075357D02*
X0214959Y0074579D01*
X0214849Y0074689D01*
X0215627Y0075467D01*
X0215737Y0075357D01*
G37*
G36*
X0215737Y0076248D02*
X0214959Y0075470D01*
X0214849Y0075580D01*
X0215627Y0076358D01*
X0215737Y0076248D01*
G37*
G36*
X0218521Y0079254D02*
X0217743Y0078476D01*
X0217633Y0078586D01*
X0218411Y0079364D01*
X0218521Y0079254D01*
G37*
G36*
X0219857Y0077250D02*
X0219079Y0076472D01*
X0218969Y0076582D01*
X0219747Y0077360D01*
X0219857Y0077250D01*
G37*
G36*
X0222529Y0080368D02*
X0221751Y0079590D01*
X0221641Y0079700D01*
X0222419Y0080478D01*
X0222529Y0080368D01*
G37*
G36*
X0221304Y0081593D02*
X0220526Y0080815D01*
X0220416Y0080925D01*
X0221194Y0081703D01*
X0221304Y0081593D01*
G37*
X0220995Y0097244D03*
X0220995Y0097795D03*
X0220995Y0098346D03*
X0220995Y0098898D03*
X0220995Y0099449D03*
X0220995Y0100000D03*
X0220995Y0100551D03*
X0220995Y0101102D03*
X0220995Y0101850D03*
X0220995Y0102402D03*
X0220995Y0102953D03*
X0220995Y0103504D03*
X0220995Y0104055D03*
X0223042Y0100551D03*
X0223042Y0098898D03*
X0223199Y0098346D03*
X0226703Y0099449D03*
X0226703Y0100000D03*
X0226546Y0100551D03*
X0228554Y0101102D03*
X0228751Y0100551D03*
X0228908Y0099449D03*
X0229105Y0098898D03*
X0229656Y0097244D03*
X0233514Y0099449D03*
X0233711Y0100000D03*
X0233908Y0101102D03*
X0234066Y0101850D03*
X0231310Y0101850D03*
X0228357Y0101850D03*
X0215286Y0101850D03*
X0215286Y0102402D03*
X0215286Y0102953D03*
X0215286Y0101102D03*
X0215286Y0099449D03*
X0215286Y0098898D03*
X0215286Y0098346D03*
X0215286Y0097795D03*
X0215286Y0097244D03*
X0208672Y0098346D03*
X0208869Y0100551D03*
X0211073Y0101850D03*
X0205168Y0099449D03*
X0202963Y0098346D03*
X0199656Y0098346D03*
X0194302Y0098346D03*
X0194302Y0097795D03*
X0194302Y0097244D03*
X0194302Y0098898D03*
X0194302Y0099449D03*
X0194302Y0100000D03*
X0194302Y0100551D03*
X0194302Y0101850D03*
X0191743Y0100551D03*
X0188436Y0100551D03*
X0201113Y0106610D03*
X0205719Y0106610D03*
X0208475Y0107161D03*
X0190247Y0108264D03*
X0108302Y0106335D03*
X0108302Y0103028D03*
X0103459Y0106335D03*
X0102239Y0104130D03*
X0102239Y0103854D03*
X0105664Y0163528D03*
X0105664Y0165732D03*
X0103735Y0166835D03*
X0102357Y0164354D03*
X0108853Y0163803D03*
X0109129Y0166283D03*
X0098766Y0191063D03*
X0097349Y0191850D03*
X0095302Y0192165D03*
X0095302Y0192953D03*
X0095302Y0190748D03*
X0095302Y0190591D03*
X0201199Y0207457D03*
X0210688Y0207457D03*
X0210688Y0207732D03*
X0212617Y0207732D03*
X0210688Y0205803D03*
X0210688Y0205528D03*
D35*
X0100026Y0192795D03*
X0100026Y0192638D03*
X0092152Y0192638D03*
X0092152Y0192795D03*
X0092152Y0192480D03*
X0092152Y0192323D03*
X0092152Y0192165D03*
X0092152Y0192008D03*
X0092152Y0191850D03*
X0092152Y0191693D03*
X0092152Y0191535D03*
X0092152Y0191378D03*
X0092152Y0191220D03*
G36*
X0224423Y0084933D02*
X0222086Y0082596D01*
X0221975Y0082707D01*
X0224312Y0085044D01*
X0224423Y0084933D01*
G37*
G36*
X0224757Y0084822D02*
X0222420Y0082485D01*
X0222309Y0082596D01*
X0224646Y0084933D01*
X0224757Y0084822D01*
G37*
G36*
X0224868Y0084710D02*
X0222531Y0082373D01*
X0222420Y0082484D01*
X0224757Y0084821D01*
X0224868Y0084710D01*
G37*
G36*
X0224980Y0084599D02*
X0222643Y0082262D01*
X0222532Y0082373D01*
X0224869Y0084710D01*
X0224980Y0084599D01*
G37*
G36*
X0225091Y0084488D02*
X0222754Y0082151D01*
X0222643Y0082262D01*
X0224980Y0084599D01*
X0225091Y0084488D01*
G37*
G36*
X0225202Y0084376D02*
X0222865Y0082039D01*
X0222754Y0082150D01*
X0225091Y0084487D01*
X0225202Y0084376D01*
G37*
G36*
X0225314Y0084265D02*
X0222977Y0081928D01*
X0222866Y0082039D01*
X0225203Y0084376D01*
X0225314Y0084265D01*
G37*
G36*
X0225425Y0084153D02*
X0223088Y0081816D01*
X0222977Y0081927D01*
X0225314Y0084264D01*
X0225425Y0084153D01*
G37*
G36*
X0225536Y0084042D02*
X0223199Y0081705D01*
X0223088Y0081816D01*
X0225425Y0084153D01*
X0225536Y0084042D01*
G37*
G36*
X0225648Y0083931D02*
X0223311Y0081594D01*
X0223200Y0081705D01*
X0225537Y0084042D01*
X0225648Y0083931D01*
G37*
G36*
X0225759Y0083597D02*
X0223422Y0081260D01*
X0223311Y0081371D01*
X0225648Y0083708D01*
X0225759Y0083597D01*
G37*
G36*
X0213955Y0074466D02*
X0211618Y0072129D01*
X0211507Y0072240D01*
X0213844Y0074577D01*
X0213955Y0074466D01*
G37*
G36*
X0214178Y0074020D02*
X0211841Y0071683D01*
X0211730Y0071794D01*
X0214067Y0074131D01*
X0214178Y0074020D01*
G37*
G36*
X0214290Y0073909D02*
X0211953Y0071572D01*
X0211842Y0071683D01*
X0214179Y0074020D01*
X0214290Y0073909D01*
G37*
G36*
X0214401Y0073797D02*
X0212064Y0071460D01*
X0211953Y0071571D01*
X0214290Y0073908D01*
X0214401Y0073797D01*
G37*
G36*
X0214512Y0073686D02*
X0212175Y0071349D01*
X0212064Y0071460D01*
X0214401Y0073797D01*
X0214512Y0073686D01*
G37*
G36*
X0214624Y0073575D02*
X0212287Y0071238D01*
X0212176Y0071349D01*
X0214513Y0073686D01*
X0214624Y0073575D01*
G37*
G36*
X0214735Y0073463D02*
X0212398Y0071126D01*
X0212287Y0071237D01*
X0214624Y0073574D01*
X0214735Y0073463D01*
G37*
G36*
X0215292Y0073129D02*
X0212955Y0070792D01*
X0212844Y0070903D01*
X0215181Y0073240D01*
X0215292Y0073129D01*
G37*
G36*
X0214846Y0073352D02*
X0212509Y0071015D01*
X0212398Y0071126D01*
X0214735Y0073463D01*
X0214846Y0073352D01*
G37*
D36*
G36*
X0216070Y0074800D02*
X0215404Y0074134D01*
X0215294Y0074244D01*
X0215960Y0074910D01*
X0216070Y0074800D01*
G37*
G36*
X0215959Y0074911D02*
X0215293Y0074245D01*
X0215183Y0074355D01*
X0215849Y0075021D01*
X0215959Y0074911D01*
G37*
G36*
X0215848Y0075022D02*
X0215182Y0074356D01*
X0215072Y0074466D01*
X0215738Y0075132D01*
X0215848Y0075022D01*
G37*
G36*
X0215736Y0075134D02*
X0215070Y0074468D01*
X0214960Y0074578D01*
X0215626Y0075244D01*
X0215736Y0075134D01*
G37*
G36*
X0218854Y0075357D02*
X0218188Y0074691D01*
X0218078Y0074801D01*
X0218744Y0075467D01*
X0218854Y0075357D01*
G37*
G36*
X0219634Y0077250D02*
X0218968Y0076584D01*
X0218858Y0076694D01*
X0219524Y0077360D01*
X0219634Y0077250D01*
G37*
G36*
X0218743Y0079031D02*
X0218077Y0078365D01*
X0217967Y0078475D01*
X0218633Y0079141D01*
X0218743Y0079031D01*
G37*
G36*
X0218632Y0079143D02*
X0217966Y0078477D01*
X0217856Y0078587D01*
X0218522Y0079253D01*
X0218632Y0079143D01*
G37*
G36*
X0221081Y0081592D02*
X0220415Y0080926D01*
X0220305Y0081036D01*
X0220971Y0081702D01*
X0221081Y0081592D01*
G37*
X0233436Y0098898D03*
X0230680Y0100000D03*
X0230483Y0099449D03*
X0228829Y0100000D03*
X0108223Y0106059D03*
X0102160Y0105508D03*
X0102160Y0105232D03*
X0108774Y0164079D03*
X0102436Y0166008D03*
X0097113Y0191220D03*
X0095223Y0190906D03*
X0097113Y0193583D03*
X0098845Y0192953D03*
X0208837Y0206906D03*
X0208837Y0207181D03*
X0208837Y0207457D03*
D37*
X0105617Y0193583D03*
X0105617Y0193425D03*
X0105459Y0193898D03*
X0092388Y0193898D03*
X0092388Y0193740D03*
X0092388Y0190276D03*
X0092388Y0190118D03*
X0092546Y0189961D03*
G36*
X0216851Y0077138D02*
X0214848Y0075135D01*
X0214737Y0075246D01*
X0216740Y0077249D01*
X0216851Y0077138D01*
G37*
D38*
G36*
X0216961Y0077027D02*
X0214847Y0074913D01*
X0214737Y0075023D01*
X0216851Y0077137D01*
X0216961Y0077027D01*
G37*
G36*
X0217073Y0076916D02*
X0214959Y0074802D01*
X0214849Y0074912D01*
X0216963Y0077026D01*
X0217073Y0076916D01*
G37*
X0092310Y0190433D03*
X0092310Y0190591D03*
X0092310Y0193425D03*
X0092310Y0193583D03*
X0100184Y0192480D03*
D39*
G36*
X0219411Y0078364D02*
X0219301Y0078254D01*
X0219191Y0078364D01*
X0219301Y0078474D01*
X0219411Y0078364D01*
G37*
G36*
X0218298Y0077473D02*
X0218188Y0077363D01*
X0218078Y0077473D01*
X0218188Y0077583D01*
X0218298Y0077473D01*
G37*
D40*
G36*
X0218521Y0077472D02*
X0218300Y0077251D01*
X0218189Y0077362D01*
X0218410Y0077583D01*
X0218521Y0077472D01*
G37*
G36*
X0218632Y0077361D02*
X0218411Y0077140D01*
X0218300Y0077251D01*
X0218521Y0077472D01*
X0218632Y0077361D01*
G37*
G36*
X0219300Y0078474D02*
X0219079Y0078253D01*
X0218968Y0078364D01*
X0219189Y0078585D01*
X0219300Y0078474D01*
G37*
X0097113Y0190591D03*
X0097113Y0190748D03*
X0097113Y0192795D03*
X0097113Y0192953D03*
X0100105Y0193425D03*
X0100105Y0193583D03*
D41*
G36*
X0226204Y0082706D02*
X0223422Y0079924D01*
X0223312Y0080034D01*
X0226094Y0082816D01*
X0226204Y0082706D01*
G37*
G36*
X0216627Y0073130D02*
X0213845Y0070348D01*
X0213735Y0070458D01*
X0216517Y0073240D01*
X0216627Y0073130D01*
G37*
D42*
G36*
X0220637Y0077139D02*
X0219413Y0075915D01*
X0219303Y0076025D01*
X0220527Y0077249D01*
X0220637Y0077139D01*
G37*
X0100814Y0190276D03*
X0100814Y0192008D03*
X0097034Y0193898D03*
D43*
X0166247Y0084866D03*
X0172546Y0084866D03*
X0176877Y0083606D03*
X0181916Y0083606D03*
X0196877Y0083764D03*
X0201916Y0083764D03*
D44*
X0207034Y0083921D03*
X0211759Y0083921D03*
X0197349Y0083764D03*
X0177349Y0083606D03*
X0172388Y0084866D03*
X0166404Y0084866D03*
D45*
X0166562Y0084866D03*
X0172231Y0084866D03*
X0207349Y0083921D03*
D46*
X0192388Y0085654D03*
X0186404Y0085654D03*
X0172073Y0084866D03*
X0166719Y0084866D03*
D47*
X0166877Y0084866D03*
X0171916Y0084866D03*
D48*
X0171759Y0084866D03*
X0167034Y0084866D03*
X0186562Y0085654D03*
X0192231Y0085654D03*
D49*
X0171601Y0084866D03*
X0167192Y0084866D03*
D50*
X0167349Y0077701D03*
X0168136Y0077228D03*
X0177507Y0082740D03*
X0180814Y0077386D03*
X0189396Y0081795D03*
X0200499Y0083055D03*
X0201129Y0089827D03*
X0200971Y0089984D03*
X0200656Y0090142D03*
X0200499Y0090142D03*
X0200341Y0090142D03*
X0198136Y0090142D03*
X0190656Y0093921D03*
X0190499Y0093921D03*
X0190341Y0093921D03*
X0188451Y0093921D03*
X0188294Y0093921D03*
X0188136Y0093921D03*
X0181129Y0089669D03*
X0180814Y0089827D03*
X0180499Y0089984D03*
X0180341Y0089984D03*
X0177979Y0089827D03*
X0177822Y0089827D03*
X0207822Y0090457D03*
X0207979Y0090457D03*
X0210814Y0090457D03*
X0210971Y0090457D03*
X0210499Y0083055D03*
D51*
X0210341Y0083055D03*
X0200341Y0083055D03*
X0197664Y0089984D03*
X0191444Y0093606D03*
X0191129Y0093764D03*
X0187664Y0093764D03*
X0187507Y0086362D03*
X0177664Y0082740D03*
X0181129Y0077386D03*
X0181286Y0077386D03*
X0167664Y0077386D03*
X0167349Y0080850D03*
D52*
X0167349Y0088016D03*
D53*
X0177507Y0089748D03*
X0177664Y0089748D03*
X0187507Y0093685D03*
X0187822Y0093843D03*
X0187979Y0093843D03*
X0190814Y0093843D03*
X0190971Y0093843D03*
X0191286Y0093685D03*
X0197507Y0089906D03*
X0197822Y0090063D03*
X0197979Y0090063D03*
X0200814Y0090063D03*
X0207507Y0090378D03*
X0207664Y0090378D03*
X0211129Y0090378D03*
X0211286Y0090378D03*
X0211444Y0090220D03*
X0181444Y0077622D03*
X0180971Y0077307D03*
X0167979Y0077307D03*
X0167822Y0077307D03*
X0167507Y0077465D03*
D54*
X0167507Y0080850D03*
X0181444Y0080850D03*
X0188924Y0086992D03*
X0191444Y0084630D03*
D55*
X0189711Y0084630D03*
X0189554Y0084630D03*
X0190184Y0086677D03*
X0190341Y0086677D03*
X0191129Y0086992D03*
X0189081Y0090142D03*
X0188294Y0090299D03*
X0180971Y0085417D03*
X0180814Y0085417D03*
X0180026Y0086992D03*
X0178766Y0085417D03*
X0178609Y0085417D03*
X0179554Y0080850D03*
X0179711Y0080850D03*
X0169554Y0080850D03*
X0169396Y0080850D03*
X0168451Y0083055D03*
X0168294Y0083055D03*
X0167507Y0083055D03*
X0168294Y0086992D03*
X0168451Y0086992D03*
X0170341Y0086992D03*
X0170499Y0086992D03*
X0170499Y0088724D03*
X0197664Y0085890D03*
X0197822Y0085890D03*
X0197979Y0085890D03*
X0198136Y0085890D03*
X0197979Y0084315D03*
X0197822Y0084315D03*
X0197664Y0084315D03*
X0199869Y0085890D03*
X0200341Y0085890D03*
X0201286Y0085890D03*
X0200499Y0087150D03*
X0200026Y0082268D03*
X0199869Y0082268D03*
X0199711Y0082268D03*
X0199554Y0080850D03*
X0207664Y0084315D03*
X0207822Y0084315D03*
X0207979Y0084315D03*
X0208136Y0085890D03*
X0208294Y0085890D03*
X0208451Y0085890D03*
X0208609Y0085890D03*
X0208294Y0087622D03*
X0208136Y0087622D03*
X0207979Y0087622D03*
X0207822Y0087622D03*
X0207664Y0087622D03*
X0207507Y0087622D03*
X0209711Y0082268D03*
X0209869Y0082268D03*
X0210026Y0082268D03*
X0209554Y0080850D03*
D56*
X0188609Y0086441D03*
X0188451Y0086283D03*
X0188294Y0086283D03*
X0187664Y0090378D03*
X0180026Y0083291D03*
X0179869Y0083291D03*
X0178294Y0082504D03*
X0170656Y0082504D03*
X0170499Y0082504D03*
X0168294Y0080929D03*
X0167507Y0086441D03*
X0169239Y0089118D03*
X0169396Y0089118D03*
X0169554Y0089118D03*
D57*
X0171444Y0091480D03*
X0167507Y0091638D03*
X0178451Y0089433D03*
X0170341Y0077780D03*
X0170026Y0077622D03*
X0169869Y0077622D03*
X0178924Y0077622D03*
X0179081Y0077622D03*
X0189396Y0077780D03*
X0199396Y0077780D03*
D58*
X0191286Y0084630D03*
X0189711Y0087150D03*
X0189396Y0086992D03*
X0189239Y0086992D03*
X0187822Y0086205D03*
X0191444Y0090299D03*
X0181286Y0080850D03*
X0177979Y0082583D03*
X0167822Y0080850D03*
X0167664Y0080850D03*
X0154475Y0063937D03*
X0152822Y0058543D03*
X0144554Y0058701D03*
X0139829Y0063937D03*
X0137073Y0058543D03*
X0160420Y0057756D03*
D59*
X0189554Y0080929D03*
X0190499Y0086756D03*
X0190656Y0086756D03*
X0190814Y0086913D03*
X0190971Y0086913D03*
X0188924Y0090220D03*
X0188451Y0090220D03*
X0180656Y0085339D03*
X0180499Y0085339D03*
X0180341Y0085339D03*
X0180184Y0085339D03*
X0180026Y0085339D03*
X0179711Y0085339D03*
X0179554Y0085339D03*
X0179396Y0085339D03*
X0179239Y0085339D03*
X0179081Y0085339D03*
X0178924Y0085339D03*
X0170184Y0087071D03*
X0170026Y0087071D03*
X0169869Y0087071D03*
X0168924Y0087071D03*
X0168766Y0087071D03*
X0168609Y0087071D03*
X0168136Y0083134D03*
X0167979Y0083134D03*
X0167664Y0083134D03*
X0198294Y0085811D03*
X0198451Y0085811D03*
X0198609Y0085811D03*
X0198766Y0085811D03*
X0198924Y0085811D03*
X0199081Y0085811D03*
X0199239Y0085811D03*
X0199396Y0085811D03*
X0199711Y0085811D03*
X0200499Y0085811D03*
X0201129Y0085811D03*
X0199869Y0087228D03*
X0208766Y0085811D03*
X0208924Y0085811D03*
X0209081Y0085811D03*
X0209239Y0085811D03*
D60*
X0190971Y0090535D03*
X0189554Y0090535D03*
X0187822Y0090378D03*
X0189554Y0082504D03*
X0190499Y0082189D03*
X0181444Y0083449D03*
X0180656Y0083449D03*
X0180499Y0083449D03*
X0179081Y0082661D03*
X0178766Y0082504D03*
X0178609Y0082504D03*
X0171286Y0086598D03*
X0170184Y0085024D03*
X0170026Y0085024D03*
X0168766Y0085024D03*
X0167664Y0086598D03*
X0168766Y0088961D03*
X0170184Y0088961D03*
X0170026Y0082661D03*
X0169869Y0082661D03*
X0168609Y0080929D03*
D61*
X0169239Y0077465D03*
X0169396Y0077465D03*
X0179554Y0077465D03*
X0179711Y0077465D03*
X0179869Y0077465D03*
X0189554Y0077622D03*
X0179239Y0089748D03*
X0171286Y0091795D03*
X0167664Y0091795D03*
X0209554Y0077465D03*
D62*
X0210341Y0080063D03*
X0210184Y0085732D03*
X0210026Y0085732D03*
X0209869Y0085732D03*
X0209711Y0085732D03*
X0209554Y0085732D03*
X0209396Y0085732D03*
X0200971Y0085732D03*
X0200814Y0085732D03*
X0200656Y0085732D03*
X0199554Y0085732D03*
X0200341Y0080063D03*
X0190341Y0080063D03*
X0189396Y0084630D03*
X0189239Y0084630D03*
X0188294Y0088567D03*
X0188609Y0090142D03*
X0188766Y0090142D03*
X0180656Y0086992D03*
X0179869Y0085260D03*
X0179396Y0080850D03*
X0179239Y0080850D03*
X0169869Y0080850D03*
X0169711Y0080850D03*
X0167822Y0083213D03*
X0169081Y0087150D03*
X0169239Y0087150D03*
X0169396Y0087150D03*
X0169554Y0087150D03*
X0169711Y0087150D03*
D63*
X0170971Y0086756D03*
X0170341Y0084866D03*
X0169396Y0082819D03*
X0169239Y0082819D03*
X0167822Y0086756D03*
X0177979Y0085654D03*
X0187979Y0090378D03*
X0190026Y0090693D03*
X0190184Y0090693D03*
X0190341Y0090693D03*
X0190499Y0090693D03*
X0190341Y0088488D03*
X0190026Y0082504D03*
X0200341Y0087071D03*
X0201444Y0085969D03*
X0207507Y0085969D03*
X0162625Y0059567D03*
X0154751Y0061181D03*
D64*
X0168924Y0077386D03*
X0169081Y0077386D03*
X0180026Y0077386D03*
X0180184Y0077386D03*
X0179396Y0089827D03*
X0171129Y0091874D03*
X0167822Y0092031D03*
X0199081Y0089984D03*
X0199554Y0077543D03*
X0209711Y0077386D03*
D65*
X0190971Y0084630D03*
X0190814Y0084630D03*
X0188766Y0086520D03*
X0188136Y0086205D03*
X0191286Y0090457D03*
X0179711Y0083213D03*
X0179554Y0083213D03*
X0180814Y0080850D03*
X0180971Y0080850D03*
X0177507Y0086047D03*
X0170971Y0082425D03*
X0170814Y0082425D03*
X0168136Y0080850D03*
X0167979Y0080850D03*
D66*
X0169081Y0080850D03*
X0169239Y0080850D03*
X0169081Y0082898D03*
X0168924Y0082898D03*
X0168451Y0084787D03*
X0167979Y0086835D03*
X0168451Y0088724D03*
X0170814Y0086835D03*
X0178136Y0085575D03*
X0180341Y0086992D03*
X0181286Y0085575D03*
X0188451Y0088567D03*
X0188609Y0088567D03*
X0188766Y0088409D03*
X0190499Y0088567D03*
X0190026Y0086677D03*
X0197507Y0085890D03*
X0198766Y0084157D03*
X0198924Y0084157D03*
X0199081Y0084157D03*
X0199239Y0084157D03*
X0208766Y0084157D03*
X0208924Y0084157D03*
X0209081Y0084157D03*
X0209239Y0084157D03*
X0209239Y0087465D03*
X0209081Y0087465D03*
X0162625Y0061417D03*
X0161522Y0059488D03*
X0155026Y0061102D03*
X0138727Y0061102D03*
X0136798Y0061102D03*
D67*
X0168609Y0077307D03*
X0168766Y0077307D03*
X0179554Y0089906D03*
X0170971Y0092110D03*
X0170814Y0092110D03*
X0170656Y0092268D03*
X0168136Y0092268D03*
X0167979Y0092110D03*
X0189711Y0077465D03*
X0189869Y0077465D03*
X0199711Y0077465D03*
X0209869Y0077307D03*
X0210026Y0077307D03*
X0210499Y0077465D03*
X0199239Y0090063D03*
D68*
X0198609Y0084236D03*
X0198451Y0084236D03*
X0198294Y0084236D03*
X0198136Y0084236D03*
X0197507Y0084236D03*
X0199554Y0082189D03*
X0200184Y0082189D03*
X0200499Y0080142D03*
X0207507Y0084236D03*
X0208136Y0084236D03*
X0208294Y0084236D03*
X0208451Y0084236D03*
X0208609Y0084236D03*
X0207979Y0085969D03*
X0207822Y0085969D03*
X0207664Y0085969D03*
X0208451Y0087543D03*
X0208609Y0087543D03*
X0208766Y0087543D03*
X0208924Y0087543D03*
X0209554Y0082189D03*
X0210184Y0082189D03*
X0210499Y0080142D03*
X0191286Y0087071D03*
X0188136Y0090378D03*
X0181129Y0085496D03*
X0180499Y0086913D03*
X0180184Y0086913D03*
X0178451Y0085496D03*
X0178294Y0085496D03*
X0170656Y0086913D03*
X0170499Y0084709D03*
X0168766Y0082976D03*
X0168609Y0082976D03*
X0168136Y0086913D03*
X0190499Y0080142D03*
D69*
X0190341Y0077465D03*
X0180656Y0077307D03*
X0168451Y0077307D03*
X0168294Y0077307D03*
X0178136Y0089906D03*
X0180026Y0090063D03*
X0180184Y0090063D03*
X0180656Y0089906D03*
X0180971Y0089748D03*
X0181286Y0089591D03*
X0188609Y0094000D03*
X0188766Y0094000D03*
X0188924Y0094000D03*
X0189081Y0094000D03*
X0189239Y0094000D03*
X0189396Y0094000D03*
X0189554Y0094000D03*
X0189711Y0094000D03*
X0189869Y0094000D03*
X0190026Y0094000D03*
X0190184Y0094000D03*
X0198294Y0090063D03*
X0199554Y0090220D03*
X0199711Y0090220D03*
X0199869Y0090220D03*
X0200026Y0090220D03*
X0200184Y0090220D03*
X0201286Y0089748D03*
X0201444Y0089591D03*
X0208136Y0090535D03*
X0208294Y0090535D03*
X0208451Y0090535D03*
X0210341Y0090535D03*
X0210499Y0090535D03*
X0210656Y0090535D03*
X0200341Y0077465D03*
X0200184Y0077307D03*
X0170341Y0092425D03*
X0169869Y0092583D03*
X0169711Y0092583D03*
X0169554Y0092583D03*
X0169396Y0092583D03*
X0169239Y0092583D03*
X0169081Y0092583D03*
X0168924Y0092583D03*
D70*
X0168766Y0092504D03*
X0168609Y0092504D03*
X0168451Y0092346D03*
X0168294Y0092346D03*
X0170026Y0092504D03*
X0170184Y0092504D03*
X0170499Y0092346D03*
X0178294Y0089827D03*
X0179711Y0089984D03*
X0179869Y0089984D03*
X0181444Y0089354D03*
X0199396Y0090142D03*
X0208609Y0090614D03*
X0208766Y0090614D03*
X0208924Y0090614D03*
X0209081Y0090614D03*
X0209239Y0090614D03*
X0209396Y0090614D03*
X0209554Y0090614D03*
X0209711Y0090614D03*
X0209869Y0090614D03*
X0210026Y0090614D03*
X0210184Y0090614D03*
X0210341Y0077386D03*
X0210184Y0077228D03*
X0200499Y0077543D03*
X0200026Y0077386D03*
X0199869Y0077386D03*
X0190499Y0077543D03*
X0190184Y0077386D03*
X0190026Y0077386D03*
X0180499Y0077386D03*
X0180341Y0077386D03*
D71*
X0180656Y0080850D03*
X0180341Y0083370D03*
X0180184Y0083370D03*
X0178451Y0082425D03*
X0177664Y0085890D03*
X0169869Y0085102D03*
X0169711Y0085102D03*
X0169554Y0085102D03*
X0169396Y0085102D03*
X0169239Y0085102D03*
X0169081Y0085102D03*
X0168924Y0085102D03*
X0170184Y0082583D03*
X0170341Y0082583D03*
X0168451Y0080850D03*
X0168924Y0089039D03*
X0169081Y0089039D03*
X0169711Y0089039D03*
X0169869Y0089039D03*
X0170026Y0089039D03*
X0189239Y0090457D03*
X0189396Y0090457D03*
X0191129Y0090457D03*
X0190656Y0084630D03*
D72*
X0189869Y0082583D03*
X0189711Y0082583D03*
X0190184Y0082425D03*
X0190341Y0082268D03*
X0191444Y0087150D03*
X0190184Y0088567D03*
X0190026Y0088409D03*
X0189869Y0090614D03*
X0189711Y0090614D03*
X0190656Y0090614D03*
X0190814Y0090614D03*
X0181444Y0085575D03*
X0181286Y0083528D03*
X0181129Y0083528D03*
X0180971Y0083528D03*
X0180814Y0083528D03*
X0178924Y0082583D03*
X0177822Y0085732D03*
X0171129Y0086677D03*
X0170341Y0088882D03*
X0168609Y0088882D03*
X0168609Y0084945D03*
X0169554Y0082740D03*
X0169711Y0082740D03*
X0168924Y0080850D03*
X0168766Y0080850D03*
X0163727Y0061142D03*
X0162349Y0061417D03*
D73*
X0169554Y0077543D03*
X0169711Y0077543D03*
X0179239Y0077543D03*
X0179396Y0077543D03*
X0198924Y0089827D03*
D74*
X0209396Y0077701D03*
X0178766Y0077701D03*
X0178609Y0077701D03*
X0178451Y0077858D03*
X0178294Y0077858D03*
X0177979Y0078016D03*
X0177664Y0078173D03*
X0171444Y0078331D03*
X0171286Y0078173D03*
X0171129Y0078173D03*
X0170971Y0078016D03*
X0170814Y0078016D03*
X0170656Y0077858D03*
X0170499Y0077858D03*
X0170184Y0077701D03*
X0179081Y0089512D03*
D75*
X0171444Y0086441D03*
X0171286Y0082346D03*
X0171129Y0082346D03*
X0178136Y0082504D03*
X0179239Y0083134D03*
X0179396Y0083134D03*
X0181129Y0080929D03*
X0191129Y0084709D03*
X0189554Y0087071D03*
X0187979Y0086283D03*
X0187507Y0090378D03*
X0200026Y0086598D03*
X0200184Y0086598D03*
X0144278Y0064134D03*
D76*
X0140105Y0058622D03*
X0139829Y0058622D03*
X0139554Y0058622D03*
X0139278Y0058622D03*
X0139003Y0058622D03*
X0138727Y0058622D03*
X0138451Y0058622D03*
X0154199Y0058622D03*
X0154475Y0058622D03*
X0154751Y0058622D03*
X0155026Y0058622D03*
X0155302Y0058622D03*
X0155577Y0058622D03*
X0155853Y0058622D03*
X0154751Y0063858D03*
X0162349Y0064173D03*
X0171444Y0082346D03*
X0187664Y0086283D03*
X0189081Y0086913D03*
X0199396Y0081402D03*
X0209396Y0081402D03*
X0210341Y0086756D03*
X0210499Y0086756D03*
X0210656Y0086756D03*
X0210814Y0086756D03*
X0210971Y0086756D03*
X0211129Y0086756D03*
X0211286Y0086756D03*
D77*
X0098924Y0188858D03*
X0098924Y0195157D03*
D78*
X0098924Y0195000D03*
X0098924Y0189016D03*
D79*
X0098924Y0189331D03*
X0098924Y0194685D03*
D80*
X0098924Y0194370D03*
X0098924Y0189646D03*
D81*
X0094751Y0194055D03*
D82*
X0102940Y0194055D03*
D83*
X0105538Y0193740D03*
X0104751Y0059843D03*
X0104751Y0059331D03*
X0104751Y0058819D03*
D84*
X0092231Y0190748D03*
X0092231Y0190906D03*
X0092231Y0191063D03*
X0092231Y0192953D03*
X0092231Y0193110D03*
X0092231Y0193268D03*
X0105617Y0193268D03*
X0197262Y0207732D03*
D85*
X0104908Y0193110D03*
X0104908Y0192953D03*
X0104908Y0191063D03*
X0104908Y0190906D03*
X0104908Y0190748D03*
D86*
X0104987Y0191220D03*
X0104987Y0191378D03*
X0104987Y0191535D03*
X0104987Y0191693D03*
X0104987Y0191850D03*
X0104987Y0192008D03*
X0104987Y0192165D03*
X0104987Y0192323D03*
X0104987Y0192480D03*
X0104987Y0192638D03*
X0104987Y0192795D03*
D87*
X0100499Y0192323D03*
X0100656Y0189961D03*
X0183908Y0108264D03*
X0196428Y0101850D03*
D88*
X0200562Y0100000D03*
X0193593Y0107713D03*
X0201310Y0108815D03*
X0183829Y0109917D03*
X0110073Y0105232D03*
X0110073Y0104130D03*
X0105822Y0106335D03*
X0100152Y0166559D03*
X0097743Y0191535D03*
X0198286Y0208835D03*
X0216199Y0207457D03*
D89*
X0104468Y0209421D03*
X0104468Y0211941D03*
X0097900Y0191378D03*
D90*
X0104829Y0190591D03*
X0104829Y0190433D03*
D91*
X0138022Y0168173D02*
X0138455Y0168252D01*
X0139361Y0168252D01*
X0139794Y0168173D01*
X0140188Y0168055D01*
X0140542Y0167898D01*
X0140857Y0167661D01*
X0141093Y0167346D01*
X0141290Y0166953D01*
X0141369Y0166480D01*
X0139912Y0166480D01*
X0139873Y0166677D01*
X0139794Y0166874D01*
X0139715Y0166992D01*
X0139597Y0167071D01*
X0139440Y0167150D01*
X0139243Y0167228D01*
X0138573Y0167228D01*
X0138455Y0167189D01*
X0138298Y0167150D01*
X0138180Y0167110D01*
X0138022Y0166874D01*
X0138022Y0166717D01*
X0138062Y0166559D01*
X0138180Y0166402D01*
X0138337Y0166283D01*
X0138573Y0166165D01*
X0138810Y0166087D01*
X0139125Y0166047D01*
X0140070Y0165811D01*
X0140424Y0165732D01*
X0140975Y0165417D01*
X0141211Y0165220D01*
X0141369Y0164984D01*
X0141487Y0164709D01*
X0141526Y0164354D01*
X0141448Y0163843D01*
X0141290Y0163409D01*
X0141054Y0163094D01*
X0140739Y0162819D01*
X0140345Y0162622D01*
X0139912Y0162504D01*
X0139440Y0162425D01*
X0138967Y0162386D01*
X0138495Y0162425D01*
X0138022Y0162504D01*
X0137589Y0162622D01*
X0137196Y0162819D01*
X0136881Y0163094D01*
X0136605Y0163449D01*
X0136448Y0163843D01*
X0136369Y0164354D01*
X0137825Y0164354D01*
X0137825Y0164118D01*
X0137904Y0163921D01*
X0138022Y0163764D01*
X0138337Y0163528D01*
X0138573Y0163488D01*
X0138770Y0163449D01*
X0139007Y0163409D01*
X0139164Y0163449D01*
X0139322Y0163449D01*
X0139479Y0163488D01*
X0139636Y0163567D01*
X0139794Y0163685D01*
X0139912Y0163803D01*
X0139991Y0164118D01*
X0139951Y0164276D01*
X0139873Y0164433D01*
X0139715Y0164551D01*
X0139518Y0164669D01*
X0139282Y0164748D01*
X0138652Y0164906D01*
X0138259Y0164984D01*
X0137904Y0165063D01*
X0137589Y0165181D01*
X0137314Y0165299D01*
X0137038Y0165457D01*
X0136802Y0165614D01*
X0136644Y0165850D01*
X0136526Y0166126D01*
X0136487Y0166480D01*
X0136526Y0166953D01*
X0136684Y0167346D01*
X0136959Y0167661D01*
X0137235Y0167898D01*
X0137629Y0168094D01*
X0138022Y0168173D01*
X0137770Y0168123D02*
X0139962Y0168123D01*
X0140640Y0167824D02*
X0137149Y0167824D01*
X0136841Y0167526D02*
X0140959Y0167526D01*
X0141153Y0167227D02*
X0139245Y0167227D01*
X0139757Y0166929D02*
X0141294Y0166929D01*
X0141344Y0166630D02*
X0139882Y0166630D01*
X0139181Y0166033D02*
X0136566Y0166033D01*
X0136503Y0166332D02*
X0138273Y0166332D01*
X0138044Y0166630D02*
X0136499Y0166630D01*
X0136524Y0166929D02*
X0138059Y0166929D01*
X0138570Y0167227D02*
X0136636Y0167227D01*
X0136721Y0165735D02*
X0140413Y0165735D01*
X0140942Y0165436D02*
X0137074Y0165436D01*
X0137705Y0165138D02*
X0141266Y0165138D01*
X0141431Y0164839D02*
X0138917Y0164839D01*
X0139729Y0164541D02*
X0141506Y0164541D01*
X0141509Y0164242D02*
X0139960Y0164242D01*
X0139947Y0163944D02*
X0141463Y0163944D01*
X0141376Y0163645D02*
X0139741Y0163645D01*
X0139595Y0162451D02*
X0138339Y0162451D01*
X0137334Y0162750D02*
X0140600Y0162750D01*
X0141001Y0163048D02*
X0136934Y0163048D01*
X0136684Y0163347D02*
X0141243Y0163347D01*
X0142156Y0163347D02*
X0147226Y0163347D01*
X0147196Y0163291D02*
X0146841Y0162937D01*
X0146408Y0162622D01*
X0145936Y0162465D01*
X0145345Y0162386D01*
X0144636Y0162504D01*
X0144400Y0162622D01*
X0144007Y0162858D01*
X0143692Y0163252D01*
X0143652Y0163252D01*
X0143652Y0159236D01*
X0143298Y0159591D01*
X0142707Y0160063D01*
X0143652Y0160063D01*
X0143652Y0159765D02*
X0143080Y0159765D01*
X0143422Y0159466D02*
X0143652Y0159466D01*
X0143652Y0160362D02*
X0142409Y0160362D01*
X0142353Y0160417D02*
X0142156Y0160575D01*
X0142156Y0167858D01*
X0142314Y0167898D01*
X0142510Y0167937D01*
X0142707Y0167937D01*
X0142865Y0167976D01*
X0143062Y0168016D01*
X0143219Y0168055D01*
X0143613Y0168134D01*
X0143613Y0167425D01*
X0143770Y0167622D01*
X0143928Y0167780D01*
X0144125Y0167937D01*
X0144518Y0168173D01*
X0144991Y0168252D01*
X0145266Y0168252D01*
X0145857Y0168213D01*
X0146408Y0168016D01*
X0146841Y0167740D01*
X0147196Y0167346D01*
X0147471Y0166913D01*
X0147629Y0166402D01*
X0147747Y0165850D01*
X0147786Y0165260D01*
X0146251Y0165299D01*
X0146251Y0165654D01*
X0146211Y0165969D01*
X0146093Y0166283D01*
X0145975Y0166559D01*
X0145778Y0166795D01*
X0145542Y0166953D01*
X0145266Y0167071D01*
X0144912Y0167110D01*
X0144597Y0167071D01*
X0144282Y0166953D01*
X0144085Y0166795D01*
X0143888Y0166559D01*
X0143770Y0166283D01*
X0143652Y0165969D01*
X0143613Y0165654D01*
X0143613Y0164984D01*
X0143770Y0164354D01*
X0143888Y0164079D01*
X0144085Y0163882D01*
X0144322Y0163685D01*
X0144597Y0163606D01*
X0144951Y0163567D01*
X0145266Y0163606D01*
X0145581Y0163685D01*
X0145818Y0163882D01*
X0145975Y0164079D01*
X0146093Y0164354D01*
X0147432Y0163724D01*
X0147196Y0163291D01*
X0146952Y0163048D02*
X0143855Y0163048D01*
X0143652Y0163048D02*
X0142156Y0163048D01*
X0142156Y0162750D02*
X0143652Y0162750D01*
X0143652Y0162451D02*
X0142156Y0162451D01*
X0142156Y0162153D02*
X0143652Y0162153D01*
X0143652Y0161854D02*
X0142156Y0161854D01*
X0142156Y0161556D02*
X0143652Y0161556D01*
X0143652Y0161257D02*
X0142156Y0161257D01*
X0142156Y0160959D02*
X0143652Y0160959D01*
X0143652Y0160660D02*
X0142156Y0160660D01*
X0142353Y0160417D02*
X0142707Y0160063D01*
X0144188Y0162750D02*
X0146584Y0162750D01*
X0145835Y0162451D02*
X0144953Y0162451D01*
X0145422Y0163645D02*
X0147389Y0163645D01*
X0147432Y0163724D02*
X0146093Y0164354D01*
X0146211Y0164669D01*
X0146251Y0164984D01*
X0146251Y0165299D01*
X0147786Y0165260D01*
X0147747Y0164709D01*
X0147629Y0164197D01*
X0147432Y0163724D01*
X0147523Y0163944D02*
X0146966Y0163944D01*
X0145867Y0163944D01*
X0146045Y0164242D02*
X0146331Y0164242D01*
X0147639Y0164242D01*
X0147708Y0164541D02*
X0146163Y0164541D01*
X0146233Y0164839D02*
X0147756Y0164839D01*
X0147777Y0165138D02*
X0146251Y0165138D01*
X0146251Y0165436D02*
X0147774Y0165436D01*
X0147754Y0165735D02*
X0146241Y0165735D01*
X0146187Y0166033D02*
X0147708Y0166033D01*
X0147644Y0166332D02*
X0146072Y0166332D01*
X0145916Y0166630D02*
X0147558Y0166630D01*
X0147461Y0166929D02*
X0145578Y0166929D01*
X0146108Y0168123D02*
X0144434Y0168123D01*
X0143984Y0167824D02*
X0146709Y0167824D01*
X0147034Y0167526D02*
X0143693Y0167526D01*
X0143613Y0167526D02*
X0142156Y0167526D01*
X0142156Y0167824D02*
X0143613Y0167824D01*
X0143613Y0168123D02*
X0143558Y0168123D01*
X0144252Y0166929D02*
X0142156Y0166929D01*
X0142156Y0167227D02*
X0147271Y0167227D01*
X0148495Y0166874D02*
X0148573Y0167110D01*
X0148692Y0167268D01*
X0148810Y0167465D01*
X0148928Y0167622D01*
X0149085Y0167740D01*
X0149479Y0167976D01*
X0149676Y0168055D01*
X0149873Y0168094D01*
X0150109Y0168173D01*
X0150345Y0168213D01*
X0150542Y0168252D01*
X0151448Y0168252D01*
X0151644Y0168213D01*
X0151881Y0168213D01*
X0152077Y0168173D01*
X0152274Y0168094D01*
X0152471Y0168055D01*
X0152668Y0167976D01*
X0153140Y0167622D01*
X0153259Y0167465D01*
X0153337Y0167307D01*
X0153416Y0167110D01*
X0153455Y0166913D01*
X0153455Y0163488D01*
X0153495Y0163409D01*
X0153495Y0163055D01*
X0153534Y0162976D01*
X0153534Y0162898D01*
X0153573Y0162819D01*
X0153573Y0162701D01*
X0153613Y0162622D01*
X0153652Y0162583D01*
X0153652Y0162543D01*
X0152117Y0162543D01*
X0152117Y0162583D01*
X0152077Y0162622D01*
X0152077Y0162661D01*
X0152038Y0162701D01*
X0152038Y0162819D01*
X0151999Y0162858D01*
X0151999Y0163094D01*
X0151920Y0162976D01*
X0151802Y0162898D01*
X0151723Y0162819D01*
X0151605Y0162740D01*
X0151487Y0162701D01*
X0151369Y0162622D01*
X0150896Y0162465D01*
X0150778Y0162465D01*
X0150660Y0162425D01*
X0150503Y0162425D01*
X0150385Y0162386D01*
X0149951Y0162386D01*
X0149755Y0162425D01*
X0149558Y0162425D01*
X0149400Y0162465D01*
X0149203Y0162543D01*
X0149046Y0162622D01*
X0148928Y0162701D01*
X0148770Y0162780D01*
X0148652Y0162898D01*
X0148573Y0163016D01*
X0148455Y0163173D01*
X0148377Y0163291D01*
X0148337Y0163488D01*
X0148259Y0163646D01*
X0148259Y0163843D01*
X0148219Y0164039D01*
X0148298Y0164472D01*
X0148416Y0164827D01*
X0148573Y0165102D01*
X0148849Y0165339D01*
X0149125Y0165496D01*
X0149440Y0165614D01*
X0149755Y0165693D01*
X0150109Y0165732D01*
X0150424Y0164906D01*
X0150306Y0164866D01*
X0150227Y0164827D01*
X0150188Y0164787D01*
X0150030Y0164709D01*
X0149991Y0164669D01*
X0149912Y0164630D01*
X0149794Y0164394D01*
X0149794Y0164315D01*
X0149755Y0164236D01*
X0149755Y0164039D01*
X0149794Y0163921D01*
X0149794Y0163843D01*
X0149833Y0163764D01*
X0149873Y0163724D01*
X0149912Y0163646D01*
X0149991Y0163606D01*
X0150030Y0163567D01*
X0150188Y0163488D01*
X0150266Y0163488D01*
X0150345Y0163449D01*
X0150424Y0163449D01*
X0150503Y0163409D01*
X0150699Y0163409D01*
X0150896Y0163449D01*
X0151093Y0163449D01*
X0151251Y0163528D01*
X0151408Y0163567D01*
X0151526Y0163646D01*
X0151605Y0163724D01*
X0151684Y0163843D01*
X0151762Y0163921D01*
X0151841Y0164157D01*
X0151881Y0164236D01*
X0151920Y0164354D01*
X0151920Y0165260D01*
X0151841Y0165181D01*
X0151762Y0165181D01*
X0151605Y0165102D01*
X0151526Y0165102D01*
X0151448Y0165063D01*
X0151290Y0165063D01*
X0151093Y0165850D01*
X0151369Y0165929D01*
X0151605Y0166008D01*
X0151802Y0166126D01*
X0151920Y0166283D01*
X0151920Y0166717D01*
X0151802Y0166953D01*
X0151762Y0166992D01*
X0151723Y0167071D01*
X0151487Y0167189D01*
X0151408Y0167189D01*
X0151329Y0167228D01*
X0150621Y0167228D01*
X0150227Y0167031D01*
X0150070Y0166874D01*
X0150030Y0166795D01*
X0149991Y0166677D01*
X0149951Y0166598D01*
X0149951Y0166402D01*
X0148416Y0166402D01*
X0148495Y0166874D01*
X0148513Y0166929D02*
X0150124Y0166929D01*
X0149967Y0166630D02*
X0148454Y0166630D01*
X0148661Y0167227D02*
X0150619Y0167227D01*
X0151331Y0167227D02*
X0153369Y0167227D01*
X0153452Y0166929D02*
X0151814Y0166929D01*
X0151920Y0166630D02*
X0153455Y0166630D01*
X0153455Y0166332D02*
X0151920Y0166332D01*
X0151647Y0166033D02*
X0153455Y0166033D01*
X0153455Y0165735D02*
X0151122Y0165735D01*
X0150131Y0165735D01*
X0150109Y0165732D02*
X0150424Y0164906D01*
X0150503Y0164906D01*
X0150581Y0164945D01*
X0150739Y0164945D01*
X0150857Y0164984D01*
X0151014Y0164984D01*
X0151133Y0165024D01*
X0151211Y0165024D01*
X0151290Y0165063D01*
X0151093Y0165850D01*
X0150818Y0165811D01*
X0150109Y0165732D01*
X0150222Y0165436D02*
X0149020Y0165436D01*
X0148615Y0165138D02*
X0150335Y0165138D01*
X0151271Y0165138D01*
X0151676Y0165138D01*
X0151920Y0165138D02*
X0153455Y0165138D01*
X0153455Y0165436D02*
X0151197Y0165436D01*
X0150222Y0165436D01*
X0150252Y0164839D02*
X0148423Y0164839D01*
X0148321Y0164541D02*
X0149867Y0164541D01*
X0149758Y0164242D02*
X0148256Y0164242D01*
X0148238Y0163944D02*
X0149786Y0163944D01*
X0149913Y0163645D02*
X0148259Y0163645D01*
X0148366Y0163347D02*
X0153495Y0163347D01*
X0153498Y0163048D02*
X0151999Y0163048D01*
X0151968Y0163048D02*
X0148549Y0163048D01*
X0148830Y0162750D02*
X0151619Y0162750D01*
X0152038Y0162750D02*
X0153573Y0162750D01*
X0154322Y0162750D02*
X0155857Y0162750D01*
X0155857Y0162543D02*
X0154322Y0162543D01*
X0154322Y0167858D01*
X0154518Y0167898D01*
X0154676Y0167937D01*
X0154873Y0167937D01*
X0155070Y0167976D01*
X0155227Y0168016D01*
X0155621Y0168094D01*
X0155778Y0168134D01*
X0155778Y0167071D01*
X0155936Y0167346D01*
X0156093Y0167543D01*
X0156290Y0167780D01*
X0156487Y0167937D01*
X0156762Y0168094D01*
X0156999Y0168173D01*
X0157274Y0168252D01*
X0157825Y0168252D01*
X0157865Y0168213D01*
X0157904Y0168213D01*
X0157904Y0166795D01*
X0157865Y0166795D01*
X0157786Y0166835D01*
X0157353Y0166835D01*
X0156959Y0166795D01*
X0156644Y0166717D01*
X0156369Y0166559D01*
X0156172Y0166323D01*
X0156014Y0166047D01*
X0155936Y0165772D01*
X0155857Y0165417D01*
X0155857Y0162543D01*
X0155857Y0163048D02*
X0154322Y0163048D01*
X0154322Y0163347D02*
X0155857Y0163347D01*
X0155857Y0163645D02*
X0154322Y0163645D01*
X0154322Y0163944D02*
X0155857Y0163944D01*
X0155857Y0164242D02*
X0154322Y0164242D01*
X0154322Y0164541D02*
X0155857Y0164541D01*
X0155857Y0164839D02*
X0154322Y0164839D01*
X0154322Y0165138D02*
X0155857Y0165138D01*
X0155861Y0165436D02*
X0154322Y0165436D01*
X0154322Y0165735D02*
X0155927Y0165735D01*
X0156010Y0166033D02*
X0154322Y0166033D01*
X0154322Y0166332D02*
X0156179Y0166332D01*
X0156493Y0166630D02*
X0154322Y0166630D01*
X0154322Y0166929D02*
X0157904Y0166929D01*
X0157904Y0167227D02*
X0155868Y0167227D01*
X0155778Y0167227D02*
X0154322Y0167227D01*
X0154322Y0167526D02*
X0155778Y0167526D01*
X0155778Y0167824D02*
X0154322Y0167824D01*
X0153213Y0167526D02*
X0148856Y0167526D01*
X0149226Y0167824D02*
X0152871Y0167824D01*
X0152203Y0168123D02*
X0149958Y0168123D01*
X0151920Y0164839D02*
X0153455Y0164839D01*
X0153455Y0164541D02*
X0151920Y0164541D01*
X0151883Y0164242D02*
X0153455Y0164242D01*
X0153455Y0163944D02*
X0151770Y0163944D01*
X0151526Y0163645D02*
X0153455Y0163645D01*
X0150738Y0162451D02*
X0149454Y0162451D01*
X0144461Y0163645D02*
X0142156Y0163645D01*
X0142156Y0163944D02*
X0144023Y0163944D01*
X0143818Y0164242D02*
X0142156Y0164242D01*
X0142156Y0164541D02*
X0143724Y0164541D01*
X0143649Y0164839D02*
X0142156Y0164839D01*
X0142156Y0165138D02*
X0143613Y0165138D01*
X0143613Y0165436D02*
X0142156Y0165436D01*
X0142156Y0165735D02*
X0143623Y0165735D01*
X0143677Y0166033D02*
X0142156Y0166033D01*
X0142156Y0166332D02*
X0143791Y0166332D01*
X0143948Y0166630D02*
X0142156Y0166630D01*
X0137825Y0164242D02*
X0136386Y0164242D01*
X0136432Y0163944D02*
X0137895Y0163944D01*
X0138180Y0163645D02*
X0136526Y0163645D01*
X0155734Y0168123D02*
X0155778Y0168123D01*
X0156346Y0167824D02*
X0157904Y0167824D01*
X0157904Y0167526D02*
X0156079Y0167526D01*
X0156848Y0168123D02*
X0157904Y0168123D01*
X0158495Y0168123D02*
X0160030Y0168123D01*
X0160030Y0168421D02*
X0158495Y0168421D01*
X0158495Y0168720D02*
X0160030Y0168720D01*
X0160030Y0169018D02*
X0158495Y0169018D01*
X0158495Y0169317D02*
X0160030Y0169317D01*
X0160030Y0169615D02*
X0158906Y0169615D01*
X0158495Y0169394D02*
X0158495Y0162543D01*
X0160030Y0162543D01*
X0160030Y0164472D01*
X0160621Y0165024D01*
X0162156Y0162543D01*
X0164007Y0162543D01*
X0161684Y0166087D01*
X0163770Y0168134D01*
X0161959Y0168134D01*
X0160030Y0166126D01*
X0160030Y0170220D01*
X0158495Y0169394D01*
X0159461Y0169914D02*
X0160030Y0169914D01*
X0160015Y0170212D02*
X0160030Y0170212D01*
X0161644Y0170212D02*
X0162502Y0170212D01*
X0162392Y0170102D02*
X0162629Y0170339D01*
X0162825Y0170614D01*
X0163337Y0171126D01*
X0163534Y0171362D01*
X0163928Y0171677D01*
X0164125Y0171795D01*
X0164361Y0171835D01*
X0165109Y0171835D01*
X0165581Y0171913D01*
X0166014Y0172031D01*
X0166408Y0172189D01*
X0166802Y0172425D01*
X0167117Y0172701D01*
X0167432Y0173016D01*
X0167707Y0173370D01*
X0168101Y0174079D01*
X0168298Y0174787D01*
X0168337Y0175496D01*
X0168219Y0176126D01*
X0168022Y0176677D01*
X0167747Y0177150D01*
X0167432Y0177504D01*
X0167117Y0177661D01*
X0167117Y0177346D01*
X0167038Y0177110D01*
X0166920Y0177031D01*
X0166802Y0176992D01*
X0166526Y0176992D01*
X0166211Y0177150D01*
X0166093Y0177228D01*
X0165936Y0177346D01*
X0165818Y0177425D01*
X0165699Y0177543D01*
X0165621Y0177701D01*
X0165542Y0177819D01*
X0165503Y0177976D01*
X0165463Y0178094D01*
X0165503Y0178213D01*
X0165542Y0178291D01*
X0165581Y0178409D01*
X0165660Y0178528D01*
X0165818Y0178646D01*
X0165975Y0178724D01*
X0166172Y0178764D01*
X0166329Y0178803D01*
X0166448Y0178803D01*
X0166566Y0178764D01*
X0166684Y0178764D01*
X0166644Y0178803D01*
X0166487Y0178921D01*
X0166251Y0179039D01*
X0165936Y0179157D01*
X0165581Y0179276D01*
X0165188Y0179276D01*
X0164755Y0179197D01*
X0164322Y0178961D01*
X0163967Y0178646D01*
X0163770Y0178370D01*
X0163652Y0178016D01*
X0163652Y0177701D01*
X0163731Y0177346D01*
X0163928Y0176992D01*
X0164203Y0176677D01*
X0164518Y0176323D01*
X0164794Y0176008D01*
X0164912Y0175732D01*
X0164912Y0175457D01*
X0164833Y0175220D01*
X0164676Y0175024D01*
X0164440Y0174866D01*
X0164125Y0174787D01*
X0163810Y0174787D01*
X0163613Y0174827D01*
X0163416Y0174906D01*
X0163298Y0174984D01*
X0163180Y0175102D01*
X0163101Y0175260D01*
X0163062Y0175378D01*
X0163062Y0175496D01*
X0163101Y0175614D01*
X0163180Y0175732D01*
X0163337Y0175890D01*
X0163455Y0175929D01*
X0163613Y0176008D01*
X0163652Y0176047D01*
X0163573Y0176087D01*
X0163495Y0176087D01*
X0163337Y0176126D01*
X0163022Y0176126D01*
X0162786Y0176087D01*
X0162392Y0175929D01*
X0162235Y0175811D01*
X0162038Y0175693D01*
X0161920Y0175496D01*
X0161802Y0175260D01*
X0161723Y0175024D01*
X0161644Y0174315D01*
X0161644Y0169276D01*
X0161684Y0169276D01*
X0161762Y0169394D01*
X0161881Y0169512D01*
X0161999Y0169669D01*
X0162196Y0169866D01*
X0162392Y0170102D01*
X0162235Y0169914D02*
X0161644Y0169914D01*
X0161644Y0169615D02*
X0161958Y0169615D01*
X0161711Y0169317D02*
X0161644Y0169317D01*
X0161644Y0170511D02*
X0162752Y0170511D01*
X0163021Y0170809D02*
X0161644Y0170809D01*
X0161644Y0171108D02*
X0163319Y0171108D01*
X0163589Y0171406D02*
X0161644Y0171406D01*
X0161644Y0171705D02*
X0163974Y0171705D01*
X0165912Y0172003D02*
X0161644Y0172003D01*
X0161644Y0172302D02*
X0166597Y0172302D01*
X0167002Y0172601D02*
X0161644Y0172601D01*
X0161644Y0172899D02*
X0167315Y0172899D01*
X0167573Y0173198D02*
X0161644Y0173198D01*
X0161644Y0173496D02*
X0167777Y0173496D01*
X0167943Y0173795D02*
X0161644Y0173795D01*
X0161644Y0174093D02*
X0168105Y0174093D01*
X0168188Y0174392D02*
X0161653Y0174392D01*
X0161686Y0174690D02*
X0168271Y0174690D01*
X0168309Y0174989D02*
X0164623Y0174989D01*
X0164856Y0175287D02*
X0168326Y0175287D01*
X0168320Y0175586D02*
X0164912Y0175586D01*
X0164847Y0175884D02*
X0168265Y0175884D01*
X0168199Y0176183D02*
X0164641Y0176183D01*
X0164378Y0176481D02*
X0168092Y0176481D01*
X0167963Y0176780D02*
X0164114Y0176780D01*
X0163880Y0177078D02*
X0166354Y0177078D01*
X0165890Y0177377D02*
X0163724Y0177377D01*
X0163658Y0177675D02*
X0165634Y0177675D01*
X0165503Y0177974D02*
X0163652Y0177974D01*
X0163738Y0178272D02*
X0165532Y0178272D01*
X0165718Y0178571D02*
X0163914Y0178571D01*
X0164219Y0178869D02*
X0166556Y0178869D01*
X0165905Y0179168D02*
X0164701Y0179168D01*
X0167117Y0177377D02*
X0167545Y0177377D01*
X0167788Y0177078D02*
X0166990Y0177078D01*
X0163332Y0175884D02*
X0162332Y0175884D01*
X0161974Y0175586D02*
X0163092Y0175586D01*
X0163092Y0175287D02*
X0161815Y0175287D01*
X0161719Y0174989D02*
X0163294Y0174989D01*
X0165660Y0169945D02*
X0165975Y0170102D01*
X0166369Y0170220D01*
X0167510Y0170220D01*
X0167589Y0170181D01*
X0167589Y0169079D01*
X0166920Y0169079D01*
X0166762Y0169039D01*
X0166605Y0168961D01*
X0166526Y0168843D01*
X0166487Y0168764D01*
X0166487Y0168606D01*
X0166448Y0168449D01*
X0166448Y0168134D01*
X0167510Y0168134D01*
X0167510Y0167110D01*
X0166448Y0167110D01*
X0166448Y0162543D01*
X0164951Y0162543D01*
X0164951Y0167110D01*
X0163416Y0167110D01*
X0163573Y0167228D01*
X0164203Y0167858D01*
X0164361Y0167976D01*
X0164479Y0168134D01*
X0164951Y0168134D01*
X0164951Y0168921D01*
X0165070Y0169236D01*
X0165188Y0169512D01*
X0165385Y0169748D01*
X0165660Y0169945D01*
X0165617Y0169914D02*
X0167589Y0169914D01*
X0167589Y0169615D02*
X0165274Y0169615D01*
X0165104Y0169317D02*
X0167589Y0169317D01*
X0167527Y0170212D02*
X0166342Y0170212D01*
X0166720Y0169018D02*
X0164988Y0169018D01*
X0164951Y0168720D02*
X0166487Y0168720D01*
X0166448Y0168421D02*
X0164951Y0168421D01*
X0164471Y0168123D02*
X0167510Y0168123D01*
X0167510Y0167824D02*
X0164169Y0167824D01*
X0163871Y0167526D02*
X0167510Y0167526D01*
X0167510Y0167227D02*
X0163572Y0167227D01*
X0163151Y0167526D02*
X0161375Y0167526D01*
X0161662Y0167824D02*
X0163455Y0167824D01*
X0163759Y0168123D02*
X0161949Y0168123D01*
X0161088Y0167227D02*
X0162846Y0167227D01*
X0162542Y0166929D02*
X0160802Y0166929D01*
X0160515Y0166630D02*
X0162238Y0166630D01*
X0161934Y0166332D02*
X0160228Y0166332D01*
X0160030Y0166332D02*
X0158495Y0166332D01*
X0158495Y0166630D02*
X0160030Y0166630D01*
X0160030Y0166929D02*
X0158495Y0166929D01*
X0158495Y0167227D02*
X0160030Y0167227D01*
X0160030Y0167526D02*
X0158495Y0167526D01*
X0158495Y0167824D02*
X0160030Y0167824D01*
X0158495Y0166033D02*
X0161719Y0166033D01*
X0161914Y0165735D02*
X0158495Y0165735D01*
X0158495Y0165436D02*
X0162110Y0165436D01*
X0162306Y0165138D02*
X0158495Y0165138D01*
X0158495Y0164839D02*
X0160423Y0164839D01*
X0160735Y0164839D02*
X0162501Y0164839D01*
X0162697Y0164541D02*
X0160920Y0164541D01*
X0161104Y0164242D02*
X0162893Y0164242D01*
X0163089Y0163944D02*
X0161289Y0163944D01*
X0161474Y0163645D02*
X0163284Y0163645D01*
X0163480Y0163347D02*
X0161659Y0163347D01*
X0161844Y0163048D02*
X0163676Y0163048D01*
X0163871Y0162750D02*
X0162028Y0162750D01*
X0160030Y0162750D02*
X0158495Y0162750D01*
X0158495Y0163048D02*
X0160030Y0163048D01*
X0160030Y0163347D02*
X0158495Y0163347D01*
X0158495Y0163645D02*
X0160030Y0163645D01*
X0160030Y0163944D02*
X0158495Y0163944D01*
X0158495Y0164242D02*
X0160030Y0164242D01*
X0160103Y0164541D02*
X0158495Y0164541D01*
X0164951Y0164541D02*
X0166448Y0164541D01*
X0166448Y0164839D02*
X0164951Y0164839D01*
X0164951Y0165138D02*
X0166448Y0165138D01*
X0166448Y0165436D02*
X0164951Y0165436D01*
X0164951Y0165735D02*
X0166448Y0165735D01*
X0166448Y0166033D02*
X0164951Y0166033D01*
X0164951Y0166332D02*
X0166448Y0166332D01*
X0166448Y0166630D02*
X0164951Y0166630D01*
X0164951Y0166929D02*
X0166448Y0166929D01*
X0167983Y0166929D02*
X0169479Y0166929D01*
X0169479Y0167227D02*
X0167983Y0167227D01*
X0167983Y0167526D02*
X0169479Y0167526D01*
X0169479Y0167824D02*
X0167983Y0167824D01*
X0167983Y0168123D02*
X0169479Y0168123D01*
X0169479Y0168134D02*
X0169479Y0164984D01*
X0169558Y0164354D01*
X0169597Y0164118D01*
X0169833Y0163803D01*
X0170030Y0163685D01*
X0170227Y0163646D01*
X0170463Y0163606D01*
X0170778Y0163646D01*
X0171014Y0163685D01*
X0171211Y0163803D01*
X0171369Y0163961D01*
X0171487Y0164197D01*
X0171605Y0164472D01*
X0171644Y0164787D01*
X0171644Y0168134D01*
X0173180Y0168134D01*
X0173180Y0162543D01*
X0171723Y0162543D01*
X0171723Y0163331D01*
X0171684Y0163331D01*
X0171526Y0163094D01*
X0171369Y0162898D01*
X0171172Y0162740D01*
X0170936Y0162622D01*
X0170739Y0162543D01*
X0170503Y0162465D01*
X0170227Y0162425D01*
X0169991Y0162386D01*
X0169440Y0162425D01*
X0169007Y0162583D01*
X0168652Y0162780D01*
X0168377Y0163016D01*
X0168180Y0163370D01*
X0168062Y0163764D01*
X0167983Y0164197D01*
X0167983Y0168134D01*
X0169479Y0168134D01*
X0169479Y0166630D02*
X0167983Y0166630D01*
X0167983Y0166332D02*
X0169479Y0166332D01*
X0169479Y0166033D02*
X0167983Y0166033D01*
X0167983Y0165735D02*
X0169479Y0165735D01*
X0169479Y0165436D02*
X0167983Y0165436D01*
X0167983Y0165138D02*
X0169479Y0165138D01*
X0169497Y0164839D02*
X0167983Y0164839D01*
X0167983Y0164541D02*
X0169534Y0164541D01*
X0169576Y0164242D02*
X0167983Y0164242D01*
X0168029Y0163944D02*
X0169728Y0163944D01*
X0170230Y0163645D02*
X0168097Y0163645D01*
X0168193Y0163347D02*
X0173180Y0163347D01*
X0173180Y0163645D02*
X0170774Y0163645D01*
X0171352Y0163944D02*
X0173180Y0163944D01*
X0173180Y0164242D02*
X0171506Y0164242D01*
X0171614Y0164541D02*
X0173180Y0164541D01*
X0173180Y0164839D02*
X0171644Y0164839D01*
X0171644Y0165138D02*
X0173180Y0165138D01*
X0173180Y0165436D02*
X0171644Y0165436D01*
X0171644Y0165735D02*
X0173180Y0165735D01*
X0173180Y0166033D02*
X0171644Y0166033D01*
X0171644Y0166332D02*
X0173180Y0166332D01*
X0173180Y0166630D02*
X0171644Y0166630D01*
X0171644Y0166929D02*
X0173180Y0166929D01*
X0173180Y0167227D02*
X0171644Y0167227D01*
X0171644Y0167526D02*
X0173180Y0167526D01*
X0173180Y0167824D02*
X0171644Y0167824D01*
X0171644Y0168123D02*
X0173180Y0168123D01*
X0174007Y0168123D02*
X0175463Y0168123D01*
X0175463Y0168134D02*
X0175463Y0167346D01*
X0175503Y0167346D01*
X0175660Y0167583D01*
X0175818Y0167740D01*
X0176014Y0167898D01*
X0176251Y0168055D01*
X0176723Y0168213D01*
X0176959Y0168252D01*
X0177196Y0168252D01*
X0177747Y0168213D01*
X0178180Y0168094D01*
X0178534Y0167898D01*
X0178810Y0167622D01*
X0179007Y0167307D01*
X0179125Y0166913D01*
X0179203Y0166480D01*
X0179243Y0165969D01*
X0179243Y0162543D01*
X0177707Y0162543D01*
X0177707Y0165693D01*
X0177668Y0166008D01*
X0177629Y0166283D01*
X0177589Y0166520D01*
X0177471Y0166717D01*
X0177353Y0166874D01*
X0177156Y0166992D01*
X0176959Y0167031D01*
X0176723Y0167071D01*
X0176408Y0167031D01*
X0176172Y0166992D01*
X0175975Y0166874D01*
X0175818Y0166677D01*
X0175699Y0166480D01*
X0175581Y0166205D01*
X0175542Y0165850D01*
X0175542Y0162543D01*
X0174007Y0162543D01*
X0174007Y0168134D01*
X0175463Y0168134D01*
X0175463Y0167824D02*
X0174007Y0167824D01*
X0174007Y0167526D02*
X0175463Y0167526D01*
X0175622Y0167526D02*
X0178870Y0167526D01*
X0179030Y0167227D02*
X0174007Y0167227D01*
X0174007Y0166929D02*
X0176066Y0166929D01*
X0175789Y0166630D02*
X0174007Y0166630D01*
X0174007Y0166332D02*
X0175636Y0166332D01*
X0175562Y0166033D02*
X0174007Y0166033D01*
X0174007Y0165735D02*
X0175542Y0165735D01*
X0175542Y0165436D02*
X0174007Y0165436D01*
X0174007Y0165138D02*
X0175542Y0165138D01*
X0175542Y0164839D02*
X0174007Y0164839D01*
X0174007Y0164541D02*
X0175542Y0164541D01*
X0175542Y0164242D02*
X0174007Y0164242D01*
X0174007Y0163944D02*
X0175542Y0163944D01*
X0175542Y0163645D02*
X0174007Y0163645D01*
X0174007Y0163347D02*
X0175542Y0163347D01*
X0175542Y0163048D02*
X0174007Y0163048D01*
X0174007Y0162750D02*
X0175542Y0162750D01*
X0177707Y0162750D02*
X0179243Y0162750D01*
X0179243Y0163048D02*
X0177707Y0163048D01*
X0177707Y0163347D02*
X0179243Y0163347D01*
X0179243Y0163645D02*
X0177707Y0163645D01*
X0177707Y0163944D02*
X0179243Y0163944D01*
X0179243Y0164242D02*
X0177707Y0164242D01*
X0177707Y0164541D02*
X0179243Y0164541D01*
X0179243Y0164839D02*
X0177707Y0164839D01*
X0177707Y0165138D02*
X0179243Y0165138D01*
X0179243Y0165436D02*
X0177707Y0165436D01*
X0177702Y0165735D02*
X0179243Y0165735D01*
X0179238Y0166033D02*
X0177664Y0166033D01*
X0177621Y0166332D02*
X0179215Y0166332D01*
X0179176Y0166630D02*
X0177523Y0166630D01*
X0177262Y0166929D02*
X0179120Y0166929D01*
X0178607Y0167824D02*
X0175923Y0167824D01*
X0176454Y0168123D02*
X0178076Y0168123D01*
X0173180Y0163048D02*
X0171723Y0163048D01*
X0171489Y0163048D02*
X0168359Y0163048D01*
X0168706Y0162750D02*
X0171184Y0162750D01*
X0171723Y0162750D02*
X0173180Y0162750D01*
X0170409Y0162451D02*
X0169368Y0162451D01*
X0166448Y0162750D02*
X0164951Y0162750D01*
X0164951Y0163048D02*
X0166448Y0163048D01*
X0166448Y0163347D02*
X0164951Y0163347D01*
X0164951Y0163645D02*
X0166448Y0163645D01*
X0166448Y0163944D02*
X0164951Y0163944D01*
X0164951Y0164242D02*
X0166448Y0164242D01*
D92*
X0090510Y0089602D02*
X0089070Y0089602D01*
X0088877Y0087696D01*
X0088236Y0087491D01*
X0087638Y0087183D01*
X0086154Y0088394D01*
X0085136Y0087376D01*
X0086347Y0085892D01*
X0086039Y0085294D01*
X0085834Y0084654D01*
X0083929Y0084460D01*
X0083929Y0083020D01*
X0085834Y0082827D01*
X0086039Y0082186D01*
X0086347Y0081589D01*
X0085136Y0080104D01*
X0086154Y0079087D01*
X0087638Y0080297D01*
X0088236Y0079989D01*
X0089084Y0082035D01*
X0088705Y0082247D01*
X0088387Y0082541D01*
X0088145Y0082902D01*
X0087995Y0083309D01*
X0087944Y0083740D01*
X0087997Y0084179D01*
X0088153Y0084592D01*
X0088402Y0084957D01*
X0088731Y0085252D01*
X0089121Y0085460D01*
X0089549Y0085569D01*
X0089991Y0085574D01*
X0090421Y0085474D01*
X0090815Y0085274D01*
X0091150Y0084987D01*
X0091408Y0084627D01*
X0091572Y0084218D01*
X0091635Y0083780D01*
X0091591Y0083341D01*
X0091445Y0082924D01*
X0091204Y0082554D01*
X0090881Y0082252D01*
X0090496Y0082035D01*
X0091344Y0079989D01*
X0091942Y0080297D01*
X0093426Y0079087D01*
X0094444Y0080104D01*
X0093233Y0081589D01*
X0093541Y0082186D01*
X0093746Y0082827D01*
X0095651Y0083020D01*
X0095651Y0084460D01*
X0093746Y0084654D01*
X0093541Y0085294D01*
X0093233Y0085892D01*
X0094444Y0087376D01*
X0093426Y0088394D01*
X0091942Y0087183D01*
X0091344Y0087491D01*
X0090703Y0087696D01*
X0090510Y0089602D01*
X0090554Y0089169D02*
X0089026Y0089169D01*
X0088966Y0088580D02*
X0090614Y0088580D01*
X0090674Y0087990D02*
X0088907Y0087990D01*
X0088062Y0087401D02*
X0091519Y0087401D01*
X0092209Y0087401D02*
X0094418Y0087401D01*
X0093984Y0086812D02*
X0085596Y0086812D01*
X0085162Y0087401D02*
X0087371Y0087401D01*
X0086649Y0087990D02*
X0085751Y0087990D01*
X0086076Y0086223D02*
X0093504Y0086223D01*
X0093366Y0085634D02*
X0086214Y0085634D01*
X0085959Y0085045D02*
X0088501Y0085045D01*
X0088102Y0084456D02*
X0083929Y0084456D01*
X0083929Y0083867D02*
X0087960Y0083867D01*
X0088007Y0083278D02*
X0083929Y0083278D01*
X0085878Y0082689D02*
X0088288Y0082689D01*
X0088968Y0082100D02*
X0086083Y0082100D01*
X0086283Y0081511D02*
X0088867Y0081511D01*
X0088623Y0080922D02*
X0085803Y0080922D01*
X0085323Y0080333D02*
X0088378Y0080333D01*
X0086960Y0079744D02*
X0085497Y0079744D01*
X0086086Y0079155D02*
X0086237Y0079155D01*
X0090958Y0080922D02*
X0093777Y0080922D01*
X0093297Y0081511D02*
X0090713Y0081511D01*
X0090611Y0082100D02*
X0093497Y0082100D01*
X0093702Y0082689D02*
X0091292Y0082689D01*
X0091569Y0083278D02*
X0095651Y0083278D01*
X0095651Y0083867D02*
X0091622Y0083867D01*
X0091476Y0084456D02*
X0095651Y0084456D01*
X0093621Y0085045D02*
X0091082Y0085045D01*
X0092931Y0087990D02*
X0093829Y0087990D01*
X0094257Y0080333D02*
X0091202Y0080333D01*
X0092620Y0079744D02*
X0094083Y0079744D01*
X0093494Y0079155D02*
X0093343Y0079155D01*
D93*
X0105192Y0102063D03*
X0105192Y0102339D03*
X0105192Y0102614D03*
X0105192Y0106748D03*
X0105192Y0107024D03*
X0105192Y0107299D03*
D94*
X0104089Y0106472D03*
D95*
X0110211Y0106472D03*
X0107959Y0060728D03*
X0107959Y0058445D03*
X0107959Y0058169D03*
X0107959Y0058051D03*
X0107959Y0057933D03*
X0194172Y0205941D03*
X0194172Y0208421D03*
X0216337Y0206768D03*
D96*
X0216475Y0206354D03*
X0214152Y0205803D03*
X0200924Y0208559D03*
X0198444Y0208559D03*
X0199664Y0205803D03*
X0194034Y0206354D03*
X0194034Y0208008D03*
X0111333Y0166835D03*
X0111333Y0166559D03*
X0111333Y0166283D03*
X0111333Y0166008D03*
X0111333Y0165732D03*
X0111333Y0165457D03*
X0111333Y0165181D03*
X0111333Y0164906D03*
X0111333Y0164630D03*
X0111333Y0164354D03*
X0111333Y0164079D03*
X0111333Y0163803D03*
X0111333Y0163528D03*
X0108971Y0166835D03*
X0099877Y0165732D03*
X0099877Y0164630D03*
X0107421Y0211941D03*
X0186861Y0108815D03*
X0193672Y0108815D03*
X0191467Y0097795D03*
X0189066Y0097795D03*
X0205995Y0097795D03*
X0208199Y0097795D03*
X0223672Y0097795D03*
X0225877Y0097795D03*
X0232885Y0098346D03*
X0114475Y0060866D03*
X0110349Y0103028D03*
X0110349Y0103579D03*
X0110349Y0105783D03*
X0110349Y0106335D03*
X0100034Y0106335D03*
X0100034Y0103028D03*
D97*
X0099955Y0103165D03*
X0099955Y0103441D03*
X0099955Y0103717D03*
X0099955Y0103992D03*
X0099955Y0104268D03*
X0099955Y0104543D03*
X0099955Y0104819D03*
X0099955Y0105094D03*
X0099955Y0105370D03*
X0099955Y0105646D03*
X0099955Y0105921D03*
X0099955Y0106197D03*
X0110428Y0106197D03*
X0110428Y0105921D03*
X0110428Y0103165D03*
X0193955Y0206492D03*
X0193955Y0206768D03*
X0193955Y0207043D03*
X0193955Y0207319D03*
X0193955Y0207594D03*
X0193955Y0207870D03*
X0198089Y0207870D03*
X0212696Y0208146D03*
X0214073Y0205941D03*
X0216554Y0205941D03*
D98*
X0212203Y0206492D03*
X0210550Y0206217D03*
X0203660Y0207870D03*
X0201337Y0207043D03*
X0196495Y0206217D03*
X0109266Y0165870D03*
X0108715Y0164217D03*
X0106904Y0166697D03*
X0105526Y0164217D03*
X0103873Y0166697D03*
X0102495Y0164217D03*
X0103597Y0106197D03*
X0102101Y0105094D03*
X0102101Y0103717D03*
X0108164Y0105921D03*
D99*
X0105881Y0105921D03*
X0105881Y0105646D03*
X0105881Y0105370D03*
X0105881Y0105094D03*
X0105881Y0104819D03*
X0105881Y0104543D03*
X0105881Y0104268D03*
X0105881Y0103992D03*
X0105881Y0103717D03*
X0105881Y0106197D03*
X0100093Y0163941D03*
X0100093Y0166421D03*
X0203739Y0205665D03*
X0203739Y0205941D03*
X0203739Y0206217D03*
X0203739Y0208697D03*
D100*
X0208837Y0207319D03*
X0208837Y0207043D03*
X0212420Y0207043D03*
X0108223Y0106197D03*
X0108223Y0103165D03*
X0102160Y0105370D03*
D101*
X0099955Y0105232D03*
X0099955Y0104957D03*
X0099955Y0104681D03*
X0099955Y0104406D03*
X0099955Y0104130D03*
X0099955Y0103854D03*
X0099955Y0103579D03*
X0099955Y0103303D03*
X0099955Y0105508D03*
X0099955Y0105783D03*
X0099955Y0106059D03*
X0110428Y0106059D03*
X0110428Y0103303D03*
X0194499Y0101102D03*
X0196152Y0108815D03*
X0212727Y0101850D03*
X0215483Y0100000D03*
X0229656Y0097795D03*
X0231310Y0101102D03*
X0216554Y0205528D03*
X0216554Y0206079D03*
X0212696Y0208283D03*
X0193955Y0207732D03*
X0193955Y0207457D03*
X0193955Y0206906D03*
X0193955Y0206630D03*
D102*
X0203739Y0207732D03*
X0212282Y0206354D03*
X0108636Y0164354D03*
X0106983Y0164630D03*
X0106983Y0166559D03*
X0103951Y0166559D03*
X0103951Y0166283D03*
X0103676Y0106059D03*
X0103676Y0104681D03*
X0108085Y0105783D03*
D103*
X0105881Y0105783D03*
X0105881Y0105508D03*
X0105881Y0105232D03*
X0105881Y0104957D03*
X0105881Y0104681D03*
X0105881Y0104406D03*
X0105881Y0104130D03*
X0105881Y0103854D03*
X0105881Y0103579D03*
X0105881Y0106059D03*
X0100093Y0163803D03*
X0203739Y0205803D03*
X0203739Y0206079D03*
D104*
X0205944Y0205390D03*
X0108636Y0164492D03*
X0106983Y0164768D03*
X0103951Y0163665D03*
X0103951Y0166146D03*
X0103676Y0105921D03*
X0103676Y0104819D03*
X0103676Y0103165D03*
X0106707Y0102890D03*
X0108085Y0103441D03*
X0108589Y0058681D03*
D105*
X0108648Y0058819D03*
X0103735Y0103303D03*
X0103735Y0104957D03*
X0103735Y0105232D03*
X0103735Y0105508D03*
X0103735Y0105783D03*
X0101963Y0104406D03*
X0108026Y0103579D03*
X0183003Y0106610D03*
X0183003Y0107161D03*
X0183003Y0107713D03*
X0183003Y0108815D03*
X0183003Y0109366D03*
X0185010Y0108815D03*
X0187766Y0108264D03*
X0187766Y0107713D03*
X0189066Y0107713D03*
X0191467Y0107713D03*
X0191625Y0108264D03*
X0191625Y0108815D03*
X0192766Y0108264D03*
X0194420Y0108264D03*
X0194420Y0107161D03*
X0195680Y0107161D03*
X0195680Y0106610D03*
X0195680Y0107713D03*
X0195680Y0108264D03*
X0197530Y0107161D03*
X0199184Y0107161D03*
X0199184Y0108264D03*
X0202136Y0108264D03*
X0202136Y0107713D03*
X0202136Y0106610D03*
X0204696Y0106610D03*
X0204696Y0107713D03*
X0204696Y0108264D03*
X0204696Y0109366D03*
X0204696Y0109917D03*
X0206546Y0108264D03*
X0207845Y0108264D03*
X0208042Y0107713D03*
X0208948Y0107713D03*
X0209144Y0108264D03*
X0209302Y0108815D03*
X0208199Y0105862D03*
X0202136Y0109366D03*
X0202136Y0109917D03*
X0108577Y0164630D03*
X0107042Y0164906D03*
X0107042Y0164354D03*
X0104010Y0163803D03*
X0104010Y0165181D03*
X0104010Y0165457D03*
X0199664Y0206906D03*
X0201475Y0206354D03*
X0202971Y0206630D03*
X0204507Y0206630D03*
X0205885Y0205528D03*
X0205885Y0208835D03*
X0212223Y0206079D03*
D106*
X0212223Y0206217D03*
X0212223Y0205390D03*
X0209034Y0208146D03*
X0201475Y0206492D03*
X0201593Y0205390D03*
X0199664Y0207043D03*
X0197892Y0206217D03*
X0109404Y0165594D03*
X0107042Y0166421D03*
X0107042Y0164492D03*
X0104010Y0163941D03*
X0104010Y0165319D03*
X0104010Y0166421D03*
X0103735Y0105646D03*
X0103735Y0105370D03*
X0103735Y0105094D03*
X0103735Y0104543D03*
X0103735Y0103441D03*
X0108026Y0105646D03*
X0114278Y0060217D03*
D107*
X0110290Y0102890D03*
X0110290Y0103717D03*
X0110290Y0105646D03*
X0216416Y0206492D03*
D108*
X0214073Y0207181D03*
X0209113Y0206079D03*
X0209113Y0205803D03*
X0209113Y0205528D03*
X0209113Y0208283D03*
X0209113Y0208559D03*
X0209113Y0208835D03*
X0201672Y0205528D03*
X0197814Y0206079D03*
X0110570Y0210051D03*
X0109429Y0210051D03*
X0109429Y0209421D03*
X0109429Y0210681D03*
X0109429Y0211311D03*
X0109429Y0211941D03*
X0110570Y0211311D03*
X0107121Y0166283D03*
X0107121Y0166008D03*
X0107121Y0165181D03*
X0107121Y0164079D03*
X0104089Y0164079D03*
X0104089Y0164354D03*
X0104089Y0164630D03*
X0104089Y0164906D03*
X0189892Y0107713D03*
X0107948Y0105508D03*
X0107948Y0103854D03*
X0103814Y0103854D03*
X0103814Y0103579D03*
X0103814Y0104130D03*
X0103814Y0104406D03*
X0101885Y0104957D03*
X0109987Y0060354D03*
X0109987Y0059843D03*
X0109987Y0059331D03*
X0109987Y0058819D03*
X0109987Y0058307D03*
D109*
X0107959Y0058307D03*
X0110211Y0103854D03*
X0110211Y0105508D03*
X0100014Y0164079D03*
X0100014Y0166283D03*
X0199684Y0205528D03*
X0200904Y0208835D03*
X0212636Y0208559D03*
X0214133Y0205528D03*
X0216337Y0206906D03*
D110*
X0212203Y0205941D03*
X0204644Y0207043D03*
X0202833Y0207043D03*
X0201613Y0205941D03*
X0201613Y0205665D03*
X0199684Y0207319D03*
X0197873Y0205941D03*
X0197755Y0205665D03*
X0108440Y0165043D03*
X0107180Y0165319D03*
X0107180Y0165594D03*
X0107180Y0165870D03*
X0107180Y0163941D03*
X0107180Y0163665D03*
X0107888Y0105370D03*
X0107888Y0103992D03*
X0101825Y0104819D03*
X0108786Y0059193D03*
D111*
X0110152Y0103992D03*
X0110152Y0105370D03*
X0214073Y0205390D03*
X0216278Y0207043D03*
D112*
X0203739Y0207457D03*
X0108361Y0165181D03*
X0106535Y0210681D03*
X0107810Y0105232D03*
X0107810Y0104130D03*
X0107054Y0059331D03*
D113*
X0117093Y0060728D03*
X0117093Y0057933D03*
X0110014Y0104268D03*
X0110014Y0105094D03*
X0203739Y0205390D03*
X0208148Y0206217D03*
X0208148Y0206492D03*
X0208148Y0207594D03*
X0208148Y0207870D03*
X0216140Y0207594D03*
X0194369Y0208697D03*
D114*
X0216062Y0208008D03*
X0100290Y0163528D03*
X0109936Y0104957D03*
X0109936Y0104406D03*
D115*
X0109877Y0104543D03*
X0109877Y0104819D03*
X0196987Y0206492D03*
X0216003Y0208146D03*
D116*
X0212203Y0205803D03*
X0212203Y0205528D03*
X0202833Y0206906D03*
X0201613Y0205803D03*
X0199684Y0207181D03*
X0110511Y0210681D03*
X0107180Y0165732D03*
X0107180Y0165457D03*
X0108440Y0164906D03*
X0109542Y0165181D03*
X0107180Y0163803D03*
X0101825Y0104681D03*
D117*
X0109798Y0104681D03*
X0190168Y0097244D03*
X0201388Y0097244D03*
X0201782Y0099449D03*
X0207097Y0097244D03*
X0224774Y0097244D03*
X0215924Y0208559D03*
X0117303Y0211941D03*
D118*
X0110570Y0211173D03*
X0110570Y0211055D03*
X0110570Y0210937D03*
X0110570Y0210819D03*
X0110570Y0210543D03*
X0110570Y0210425D03*
X0110570Y0210307D03*
X0110570Y0210189D03*
X0109429Y0210189D03*
X0109429Y0210307D03*
X0109429Y0210425D03*
X0109429Y0210543D03*
X0109429Y0210819D03*
X0109429Y0210937D03*
X0109429Y0211055D03*
X0109429Y0211173D03*
X0109429Y0211449D03*
X0109429Y0211567D03*
X0109429Y0211685D03*
X0109429Y0211803D03*
X0109429Y0212079D03*
X0109429Y0209913D03*
X0109429Y0209795D03*
X0109429Y0209677D03*
X0109429Y0209559D03*
X0109429Y0209283D03*
X0109429Y0209165D03*
X0107421Y0211055D03*
X0106673Y0210425D03*
X0106673Y0210307D03*
X0107121Y0166146D03*
X0107121Y0165043D03*
X0107121Y0164217D03*
X0108499Y0164768D03*
X0104089Y0164768D03*
X0104089Y0165043D03*
X0104089Y0164492D03*
X0104089Y0164217D03*
X0101885Y0104543D03*
X0103814Y0104268D03*
X0103814Y0103992D03*
X0103814Y0103717D03*
X0107948Y0103717D03*
X0109987Y0060728D03*
X0109987Y0060610D03*
X0109987Y0060492D03*
X0109987Y0060217D03*
X0109987Y0060098D03*
X0109987Y0059980D03*
X0109987Y0059705D03*
X0109987Y0059587D03*
X0109987Y0059469D03*
X0109987Y0059193D03*
X0109987Y0059075D03*
X0109987Y0058957D03*
X0109987Y0058681D03*
X0109987Y0058563D03*
X0109987Y0058445D03*
X0109987Y0058169D03*
X0109987Y0058051D03*
X0109987Y0057933D03*
X0108727Y0058957D03*
X0108727Y0059075D03*
X0107940Y0059705D03*
X0209113Y0205665D03*
X0209113Y0205941D03*
X0209113Y0208421D03*
X0209113Y0208697D03*
X0214073Y0207043D03*
D119*
X0212617Y0207594D03*
X0210688Y0207594D03*
X0210688Y0207870D03*
X0210688Y0205665D03*
X0208759Y0206768D03*
X0201199Y0207594D03*
X0197617Y0205390D03*
X0108853Y0163941D03*
X0105664Y0163665D03*
X0105664Y0165594D03*
X0107421Y0211567D03*
X0102239Y0104268D03*
X0102239Y0103992D03*
X0103459Y0102890D03*
D120*
X0106707Y0103165D03*
X0106707Y0103441D03*
X0109463Y0165319D03*
X0201534Y0206217D03*
X0202912Y0206768D03*
X0203739Y0207594D03*
X0204566Y0206768D03*
X0205944Y0206768D03*
X0205944Y0207043D03*
X0205944Y0207319D03*
X0205944Y0207594D03*
X0205944Y0207870D03*
X0205944Y0208146D03*
X0205944Y0208421D03*
X0205944Y0208697D03*
X0205944Y0206492D03*
X0205944Y0206217D03*
X0205944Y0205941D03*
X0205944Y0205665D03*
D121*
X0203680Y0208421D03*
X0200924Y0208697D03*
X0199664Y0205941D03*
X0194034Y0206217D03*
X0194034Y0208146D03*
X0216475Y0206217D03*
X0216475Y0205390D03*
X0113720Y0209047D03*
X0111082Y0209047D03*
X0111333Y0166697D03*
X0111333Y0166421D03*
X0111333Y0166146D03*
X0111333Y0165870D03*
X0111333Y0165594D03*
X0111333Y0165319D03*
X0111333Y0165043D03*
X0111333Y0164768D03*
X0111333Y0164492D03*
X0111333Y0164217D03*
X0111333Y0163941D03*
X0111333Y0163665D03*
X0108971Y0163390D03*
X0099877Y0164492D03*
X0099877Y0164768D03*
X0099877Y0165594D03*
X0099877Y0165870D03*
X0100034Y0102890D03*
X0110349Y0103441D03*
X0107940Y0060610D03*
X0114357Y0057657D03*
D122*
X0106707Y0103028D03*
X0106707Y0103303D03*
X0107259Y0163528D03*
X0109463Y0165457D03*
X0197676Y0205528D03*
X0201534Y0206079D03*
X0204566Y0206906D03*
X0205944Y0206906D03*
X0205944Y0207181D03*
X0205944Y0207457D03*
X0205944Y0207732D03*
X0205944Y0208008D03*
X0205944Y0208283D03*
X0205944Y0208559D03*
X0205944Y0206630D03*
X0205944Y0206354D03*
X0205944Y0206079D03*
X0205944Y0205803D03*
D123*
X0204369Y0206354D03*
X0203109Y0206354D03*
X0201337Y0206906D03*
X0196495Y0208008D03*
X0210550Y0208008D03*
X0212479Y0207181D03*
X0212361Y0206906D03*
X0109266Y0166008D03*
X0105526Y0166008D03*
X0103873Y0166008D03*
X0101944Y0165457D03*
X0103873Y0163528D03*
X0105526Y0164079D03*
X0108164Y0103303D03*
X0103597Y0103028D03*
D124*
X0108282Y0102890D03*
X0105684Y0163390D03*
X0102219Y0164768D03*
X0108991Y0166697D03*
X0111062Y0212197D03*
X0196495Y0207870D03*
X0198306Y0208146D03*
X0198424Y0208421D03*
X0201062Y0208146D03*
X0210707Y0205390D03*
X0216613Y0205665D03*
D125*
X0105605Y0167937D03*
X0105605Y0167661D03*
X0105605Y0167386D03*
X0105605Y0167110D03*
X0105605Y0163252D03*
X0105605Y0162976D03*
X0105605Y0162701D03*
X0105605Y0162425D03*
D126*
X0105605Y0162563D03*
X0105605Y0162839D03*
X0105605Y0163114D03*
X0105605Y0167248D03*
X0105605Y0167524D03*
X0105605Y0167799D03*
D127*
X0100566Y0166972D03*
X0197046Y0207319D03*
D128*
X0107534Y0166972D03*
D129*
X0100369Y0166835D03*
X0117362Y0209421D03*
X0117637Y0210681D03*
D130*
X0100231Y0166697D03*
X0100231Y0163665D03*
D131*
X0103814Y0163390D03*
X0109050Y0166421D03*
X0201121Y0207870D03*
X0212696Y0207870D03*
D132*
X0212696Y0208421D03*
X0214073Y0205665D03*
X0199743Y0205665D03*
X0198365Y0208697D03*
X0111255Y0163390D03*
X0099955Y0164217D03*
X0099955Y0166146D03*
D133*
X0105605Y0165870D03*
X0105605Y0165319D03*
X0105605Y0163941D03*
X0109188Y0166146D03*
X0113779Y0209165D03*
X0115039Y0210307D03*
X0115039Y0210425D03*
X0115039Y0210543D03*
X0115039Y0210819D03*
X0115039Y0210937D03*
X0113779Y0212079D03*
X0201259Y0207319D03*
X0210629Y0207319D03*
X0210629Y0205941D03*
X0212282Y0206768D03*
X0212558Y0207319D03*
X0111463Y0057933D03*
D134*
X0229656Y0098346D03*
X0099955Y0164354D03*
X0099955Y0166008D03*
D135*
X0103046Y0165870D03*
X0216062Y0207870D03*
D136*
X0216003Y0208283D03*
X0196987Y0206630D03*
X0194507Y0208835D03*
X0102987Y0165732D03*
D137*
X0101885Y0165181D03*
X0101885Y0164906D03*
X0109325Y0165732D03*
X0197814Y0206354D03*
X0201396Y0206630D03*
X0214073Y0206906D03*
X0207570Y0108815D03*
X0206467Y0107161D03*
X0200207Y0107713D03*
X0200207Y0108264D03*
X0192845Y0107161D03*
X0190995Y0106610D03*
X0188790Y0108815D03*
X0187688Y0107161D03*
D138*
X0100428Y0163390D03*
X0102908Y0165594D03*
X0117185Y0209165D03*
X0117185Y0212079D03*
X0194585Y0205390D03*
X0215924Y0208421D03*
D139*
X0203739Y0208283D03*
X0200983Y0208283D03*
X0108912Y0163528D03*
X0099818Y0164906D03*
X0099818Y0165181D03*
X0099818Y0165457D03*
X0111581Y0060866D03*
D140*
X0105605Y0163803D03*
X0105605Y0165457D03*
X0115039Y0210681D03*
X0201259Y0207181D03*
X0203739Y0208008D03*
X0210629Y0206079D03*
X0212282Y0206630D03*
X0212558Y0207457D03*
D141*
X0200983Y0208421D03*
X0107480Y0211803D03*
X0099818Y0165319D03*
X0099818Y0165043D03*
X0107881Y0060492D03*
X0111581Y0057657D03*
D142*
X0107121Y0163390D03*
X0101885Y0165043D03*
X0101885Y0165319D03*
X0201396Y0206768D03*
X0203050Y0206492D03*
X0204428Y0206492D03*
X0209113Y0205390D03*
D143*
X0212144Y0205665D03*
X0214073Y0207319D03*
X0109601Y0165043D03*
X0107421Y0210937D03*
X0145656Y0059862D03*
D144*
X0102298Y0164630D03*
D145*
X0102298Y0164492D03*
X0108912Y0163665D03*
X0203739Y0208146D03*
D146*
X0164829Y0061004D03*
X0164554Y0061004D03*
X0164278Y0061004D03*
X0164003Y0061004D03*
X0160144Y0061004D03*
X0159869Y0061004D03*
X0159593Y0061004D03*
X0159318Y0061004D03*
D147*
X0159455Y0061004D03*
X0159731Y0061004D03*
X0160007Y0061004D03*
X0164140Y0061004D03*
X0164416Y0061004D03*
X0164692Y0061004D03*
D148*
X0163038Y0064035D03*
X0155440Y0063720D03*
X0155164Y0063720D03*
X0160282Y0057972D03*
X0161660Y0057972D03*
X0161936Y0057972D03*
X0162211Y0057972D03*
D149*
X0160282Y0062657D03*
D150*
X0160420Y0060807D03*
X0162900Y0061358D03*
X0163176Y0061358D03*
X0155853Y0061043D03*
X0155577Y0061043D03*
X0155302Y0061043D03*
X0147585Y0061161D03*
X0146759Y0062421D03*
X0146483Y0062421D03*
D151*
X0146207Y0064331D03*
X0145656Y0064331D03*
X0145381Y0064331D03*
X0145105Y0064331D03*
X0144829Y0064331D03*
X0147310Y0064331D03*
X0145656Y0058425D03*
X0138176Y0058268D03*
X0139003Y0064213D03*
X0137349Y0064213D03*
X0153648Y0064213D03*
X0153648Y0061457D03*
X0153924Y0058268D03*
X0161522Y0061772D03*
X0161798Y0061614D03*
X0162073Y0061339D03*
X0161247Y0064528D03*
X0160420Y0064528D03*
X0162900Y0057480D03*
X0163176Y0057480D03*
D152*
X0160558Y0057697D03*
X0161936Y0064311D03*
X0154337Y0063996D03*
X0152959Y0058484D03*
X0139692Y0063996D03*
X0137211Y0058484D03*
D153*
X0140243Y0060827D03*
X0145794Y0061102D03*
X0147448Y0061102D03*
X0160558Y0060866D03*
D154*
X0163865Y0061004D03*
X0160833Y0064587D03*
X0160558Y0064587D03*
X0153235Y0064272D03*
X0152959Y0064272D03*
X0152684Y0064272D03*
X0153510Y0058209D03*
X0153786Y0058209D03*
X0138038Y0058209D03*
X0137762Y0058209D03*
X0137762Y0064272D03*
X0138038Y0064272D03*
X0138314Y0064272D03*
X0138589Y0064272D03*
D155*
X0139554Y0064075D03*
X0147585Y0064193D03*
X0153924Y0064075D03*
X0153373Y0061594D03*
X0160696Y0057618D03*
X0161798Y0064390D03*
D156*
X0160696Y0060945D03*
X0147310Y0061024D03*
X0145656Y0061024D03*
X0144829Y0061024D03*
X0145105Y0062402D03*
X0145381Y0062402D03*
X0140105Y0060906D03*
X0139829Y0060906D03*
X0139554Y0060906D03*
D157*
X0138727Y0064272D03*
X0138451Y0064272D03*
X0138176Y0064272D03*
X0137900Y0064272D03*
X0137625Y0064272D03*
X0137625Y0058209D03*
X0137900Y0058209D03*
X0152546Y0064272D03*
X0152822Y0064272D03*
X0153097Y0064272D03*
X0153373Y0064272D03*
X0160696Y0064587D03*
X0160971Y0064587D03*
X0153648Y0058209D03*
X0153373Y0058209D03*
D158*
X0160833Y0057559D03*
X0161109Y0057559D03*
X0161385Y0057559D03*
X0161660Y0064449D03*
X0153786Y0064134D03*
X0139416Y0064134D03*
D159*
X0144967Y0062343D03*
X0144967Y0060965D03*
X0145243Y0060965D03*
X0146345Y0060965D03*
X0146896Y0060965D03*
X0147172Y0060965D03*
X0160833Y0061004D03*
D160*
X0161522Y0064449D03*
X0153097Y0058346D03*
X0160971Y0057559D03*
X0161247Y0057559D03*
X0162625Y0057559D03*
X0163451Y0057559D03*
X0139278Y0064134D03*
X0137073Y0064134D03*
X0137349Y0058346D03*
D161*
X0145105Y0060965D03*
X0145381Y0060965D03*
X0146207Y0060965D03*
X0147034Y0060965D03*
X0160971Y0061004D03*
D162*
X0161109Y0059705D03*
X0152959Y0060768D03*
X0146621Y0060886D03*
D163*
X0152684Y0060827D03*
X0153235Y0060827D03*
X0161109Y0061142D03*
X0138038Y0060827D03*
X0137762Y0060827D03*
X0137487Y0060827D03*
X0138038Y0062205D03*
D164*
X0139140Y0061457D03*
X0139140Y0064213D03*
X0138865Y0064213D03*
X0137487Y0064213D03*
X0137211Y0064213D03*
X0137487Y0058268D03*
X0144967Y0058425D03*
X0144967Y0064331D03*
X0144692Y0064331D03*
X0145518Y0064331D03*
X0146070Y0064331D03*
X0147172Y0064331D03*
X0153510Y0064213D03*
X0153786Y0061457D03*
X0153235Y0058268D03*
X0161660Y0061614D03*
X0161936Y0061496D03*
X0161385Y0064528D03*
X0161109Y0064528D03*
X0162762Y0057480D03*
X0163038Y0057480D03*
X0163314Y0057480D03*
D165*
X0161247Y0059626D03*
X0138451Y0060965D03*
X0137073Y0060965D03*
D166*
X0139003Y0061516D03*
X0144554Y0064272D03*
X0145932Y0064272D03*
X0144829Y0058484D03*
X0161247Y0061831D03*
D167*
X0161385Y0059626D03*
X0162762Y0059626D03*
D168*
X0161385Y0061831D03*
X0153510Y0061516D03*
X0147448Y0064272D03*
X0145794Y0064272D03*
D169*
X0136798Y0063996D03*
X0154199Y0063996D03*
X0162073Y0064311D03*
X0161522Y0057697D03*
X0163727Y0057697D03*
D170*
X0162349Y0057972D03*
X0162073Y0057972D03*
X0161798Y0057972D03*
X0162900Y0064035D03*
X0155302Y0063720D03*
X0140105Y0063720D03*
D171*
X0154062Y0061319D03*
X0162211Y0061476D03*
D172*
X0162211Y0064252D03*
X0147723Y0064055D03*
D173*
X0162487Y0058248D03*
D174*
X0163589Y0061220D03*
X0162487Y0061496D03*
X0155991Y0061024D03*
X0154613Y0061181D03*
X0147723Y0061181D03*
D175*
X0152684Y0058622D03*
X0154062Y0058622D03*
X0154337Y0058622D03*
X0154613Y0058622D03*
X0154888Y0058622D03*
X0155164Y0058622D03*
X0155440Y0058622D03*
X0155715Y0058622D03*
X0154613Y0063858D03*
X0162487Y0064173D03*
X0163865Y0057835D03*
X0139967Y0058622D03*
X0139692Y0058622D03*
X0139416Y0058622D03*
X0139140Y0058622D03*
X0138865Y0058622D03*
X0138589Y0058622D03*
X0138314Y0058622D03*
X0136936Y0058622D03*
X0139967Y0063858D03*
D176*
X0136798Y0058681D03*
X0144278Y0058839D03*
X0152546Y0058681D03*
X0155026Y0063799D03*
X0162625Y0064114D03*
D177*
X0162762Y0061417D03*
X0155164Y0061102D03*
X0154888Y0061102D03*
D178*
X0155991Y0058681D03*
X0154888Y0063799D03*
X0162762Y0064114D03*
X0140243Y0058681D03*
X0136660Y0063799D03*
D179*
X0144278Y0061240D03*
X0162900Y0059626D03*
X0163451Y0061280D03*
D180*
X0163038Y0059626D03*
X0146896Y0062343D03*
X0145243Y0062343D03*
D181*
X0146621Y0062421D03*
X0144416Y0061161D03*
X0138589Y0061043D03*
X0137762Y0062264D03*
X0136936Y0061043D03*
X0155440Y0061043D03*
X0155715Y0061043D03*
X0163038Y0061358D03*
X0163314Y0061358D03*
D182*
X0163451Y0063976D03*
X0163176Y0063976D03*
X0163727Y0063976D03*
X0155853Y0063661D03*
X0155577Y0063661D03*
D183*
X0155715Y0063661D03*
X0155991Y0063661D03*
X0163314Y0063976D03*
X0163589Y0063976D03*
D184*
X0163589Y0057618D03*
X0154062Y0064075D03*
X0144416Y0064193D03*
X0144692Y0058563D03*
X0138865Y0061594D03*
X0136936Y0064075D03*
D185*
X0140243Y0063583D03*
X0163865Y0063898D03*
D186*
X0224751Y0192756D03*
D187*
X0224790Y0192677D03*
D188*
X0224790Y0192598D03*
D189*
X0224790Y0192520D03*
D190*
X0224790Y0192441D03*
D191*
X0224790Y0192362D03*
D192*
X0224790Y0192283D03*
D193*
X0224751Y0192205D03*
D194*
X0224790Y0192126D03*
D195*
X0224751Y0192047D03*
D196*
X0224751Y0191969D03*
D197*
X0224790Y0191890D03*
D198*
X0224790Y0191811D03*
D199*
X0224790Y0191732D03*
D200*
X0224790Y0191654D03*
D201*
X0224790Y0191575D03*
D202*
X0224790Y0191496D03*
D203*
X0224751Y0191417D03*
D204*
X0224790Y0191339D03*
D205*
X0224790Y0191260D03*
D206*
X0215459Y0191181D03*
X0234199Y0191024D03*
X0234199Y0190945D03*
X0234199Y0187402D03*
X0234199Y0187323D03*
D207*
X0230774Y0190591D03*
X0227034Y0189646D03*
X0227034Y0189567D03*
X0227034Y0189488D03*
X0225105Y0189724D03*
X0223609Y0188465D03*
X0223609Y0188386D03*
X0223609Y0188307D03*
X0222152Y0189724D03*
X0218018Y0191181D03*
D208*
X0219849Y0191181D03*
D209*
X0222192Y0191181D03*
X0222192Y0191102D03*
X0225144Y0191102D03*
X0225144Y0191181D03*
X0231207Y0187165D03*
X0214790Y0187835D03*
X0214711Y0187913D03*
X0214711Y0187992D03*
X0214633Y0188071D03*
X0214633Y0188150D03*
X0214554Y0188386D03*
X0214554Y0188465D03*
X0214475Y0188780D03*
X0214475Y0188858D03*
X0214475Y0188937D03*
X0214475Y0189016D03*
X0214475Y0189252D03*
X0214475Y0189331D03*
X0214475Y0189409D03*
X0214475Y0189488D03*
X0214475Y0189567D03*
X0214554Y0189882D03*
X0214554Y0189961D03*
X0214554Y0190039D03*
X0214633Y0190118D03*
X0214633Y0190197D03*
X0214711Y0190354D03*
D210*
X0217467Y0188071D03*
X0218333Y0187480D03*
X0222231Y0188622D03*
X0223609Y0189331D03*
X0223609Y0189409D03*
X0223609Y0189488D03*
X0225105Y0188701D03*
X0225105Y0188622D03*
X0227349Y0191181D03*
D211*
X0227270Y0190866D03*
X0227270Y0190748D03*
X0228924Y0190748D03*
X0228924Y0190669D03*
X0228924Y0190591D03*
X0228924Y0190512D03*
X0228924Y0190433D03*
X0228924Y0190354D03*
X0228924Y0190276D03*
X0228924Y0190197D03*
X0228924Y0190118D03*
X0228924Y0190039D03*
X0228924Y0189961D03*
X0228924Y0189882D03*
X0228924Y0189803D03*
X0228924Y0189724D03*
X0228924Y0189646D03*
X0228924Y0189567D03*
X0228924Y0189488D03*
X0228924Y0189409D03*
X0228924Y0189331D03*
X0228924Y0189252D03*
X0228924Y0189173D03*
X0228924Y0189094D03*
X0228924Y0189016D03*
X0228924Y0188937D03*
X0228924Y0188858D03*
X0228924Y0188780D03*
X0228924Y0188701D03*
X0228924Y0188622D03*
X0228924Y0188543D03*
X0228924Y0188465D03*
X0228924Y0188386D03*
X0228924Y0188307D03*
X0228924Y0188228D03*
X0228924Y0188150D03*
X0228924Y0188071D03*
X0228924Y0187992D03*
X0228924Y0187913D03*
X0228924Y0187835D03*
X0228924Y0187756D03*
X0228924Y0187638D03*
X0228924Y0187559D03*
X0228924Y0187480D03*
X0228924Y0187402D03*
X0228924Y0187323D03*
X0228924Y0187244D03*
X0228924Y0187165D03*
X0230538Y0188543D03*
X0230538Y0188622D03*
X0230538Y0188701D03*
X0230538Y0188780D03*
X0230538Y0188858D03*
X0230538Y0188937D03*
X0230538Y0189094D03*
X0230538Y0189331D03*
X0230538Y0189409D03*
X0230538Y0189488D03*
X0230538Y0189567D03*
X0230538Y0189646D03*
X0230538Y0189724D03*
X0228924Y0190866D03*
X0228924Y0190945D03*
X0228924Y0191024D03*
X0228924Y0191102D03*
X0228924Y0191181D03*
X0225105Y0188937D03*
X0225105Y0188858D03*
X0223609Y0189094D03*
X0223609Y0189173D03*
X0223609Y0189252D03*
X0218255Y0190945D03*
X0218255Y0187323D03*
D212*
X0215066Y0187402D03*
X0215066Y0190866D03*
X0231325Y0191181D03*
D213*
X0234121Y0191181D03*
X0234121Y0187165D03*
X0234121Y0187087D03*
X0215381Y0187165D03*
X0215302Y0191102D03*
D214*
X0217467Y0190118D03*
X0218097Y0191102D03*
X0218097Y0187165D03*
X0223609Y0188543D03*
X0223609Y0188622D03*
X0223609Y0188701D03*
X0225105Y0189409D03*
X0225105Y0189488D03*
X0227113Y0189882D03*
X0227113Y0189961D03*
X0227113Y0190039D03*
X0230696Y0190354D03*
X0230696Y0190433D03*
X0230696Y0187913D03*
X0230696Y0187835D03*
D215*
X0219888Y0190945D03*
X0219888Y0191024D03*
X0219888Y0191102D03*
D216*
X0218294Y0190866D03*
X0222192Y0188858D03*
X0222192Y0188780D03*
X0222192Y0188701D03*
X0225144Y0188780D03*
X0227310Y0190945D03*
X0227310Y0191024D03*
X0227310Y0191102D03*
X0230499Y0189252D03*
X0230499Y0189173D03*
X0230499Y0189016D03*
X0218294Y0187402D03*
D217*
X0214593Y0188228D03*
X0214593Y0188307D03*
X0214514Y0188543D03*
X0214514Y0188622D03*
X0214514Y0188701D03*
X0214436Y0189094D03*
X0214436Y0189173D03*
X0214514Y0189646D03*
X0214514Y0189724D03*
X0214514Y0189803D03*
X0225105Y0190945D03*
X0225105Y0191024D03*
X0231168Y0191102D03*
D218*
X0234160Y0191102D03*
X0234160Y0187244D03*
D219*
X0215302Y0187244D03*
X0215223Y0191024D03*
D220*
X0218176Y0191024D03*
X0218176Y0187244D03*
X0223609Y0188858D03*
X0223609Y0188937D03*
X0223609Y0189016D03*
X0225105Y0189094D03*
X0225105Y0189173D03*
X0225105Y0189252D03*
X0227192Y0190354D03*
X0227192Y0190433D03*
X0227192Y0190512D03*
X0230617Y0190118D03*
X0230617Y0190039D03*
X0230617Y0188228D03*
X0230617Y0188150D03*
D221*
X0225144Y0190866D03*
X0222192Y0190866D03*
X0222192Y0190945D03*
X0222192Y0191024D03*
X0217664Y0185591D03*
D222*
X0225105Y0190748D03*
X0231089Y0191024D03*
X0231089Y0187244D03*
D223*
X0215184Y0187323D03*
X0215105Y0190945D03*
D224*
X0225105Y0190591D03*
X0225105Y0190512D03*
X0231010Y0190945D03*
X0231010Y0187323D03*
D225*
X0219928Y0190866D03*
D226*
X0225105Y0190276D03*
X0225105Y0190197D03*
X0226877Y0188780D03*
X0226877Y0188701D03*
X0226877Y0188622D03*
X0230932Y0187402D03*
X0230932Y0190866D03*
D227*
X0234239Y0190866D03*
X0234239Y0187559D03*
X0234239Y0187480D03*
X0215577Y0187087D03*
D228*
X0214987Y0190807D03*
D229*
X0218333Y0190807D03*
D230*
X0219928Y0190807D03*
D231*
X0222192Y0190807D03*
D232*
X0225105Y0190807D03*
D233*
X0227270Y0190807D03*
X0228924Y0190807D03*
X0228924Y0187697D03*
D234*
X0230892Y0190807D03*
D235*
X0234239Y0190807D03*
D236*
X0214948Y0190748D03*
X0214869Y0190669D03*
X0214948Y0187559D03*
X0215026Y0187480D03*
D237*
X0218373Y0187559D03*
X0222192Y0188465D03*
X0222192Y0188543D03*
X0225144Y0188543D03*
X0218373Y0190748D03*
D238*
X0219967Y0190748D03*
X0219967Y0190669D03*
X0219967Y0190591D03*
D239*
X0222192Y0190591D03*
X0222192Y0190669D03*
X0222192Y0190748D03*
X0225144Y0190669D03*
X0217507Y0189882D03*
X0217507Y0188386D03*
D240*
X0223609Y0188228D03*
X0223609Y0188150D03*
X0223609Y0188071D03*
X0225105Y0189961D03*
X0225105Y0190039D03*
X0226955Y0189173D03*
X0226955Y0189094D03*
X0230853Y0187559D03*
X0230853Y0190748D03*
D241*
X0234278Y0190748D03*
X0234278Y0190669D03*
X0234278Y0187638D03*
D242*
X0230577Y0188307D03*
X0230577Y0188386D03*
X0230577Y0188465D03*
X0230577Y0189803D03*
X0230577Y0189882D03*
X0230577Y0189961D03*
X0227231Y0190591D03*
X0227231Y0190669D03*
X0225144Y0189016D03*
X0222192Y0189016D03*
X0222192Y0189094D03*
X0222192Y0189173D03*
X0222192Y0188937D03*
D243*
X0222192Y0189803D03*
X0222192Y0189882D03*
X0222192Y0189961D03*
X0225144Y0189882D03*
X0225144Y0189803D03*
X0226995Y0189409D03*
X0226995Y0189331D03*
X0226995Y0189252D03*
X0230814Y0190669D03*
X0230814Y0187638D03*
X0217979Y0187087D03*
D244*
X0214908Y0187638D03*
X0214829Y0187756D03*
X0214672Y0190276D03*
X0214751Y0190433D03*
X0214751Y0190512D03*
X0214829Y0190591D03*
D245*
X0234318Y0190591D03*
X0234318Y0190512D03*
X0234318Y0187835D03*
X0234318Y0187756D03*
D246*
X0220007Y0190354D03*
X0220007Y0190433D03*
X0220007Y0190512D03*
D247*
X0222192Y0190512D03*
X0222192Y0190433D03*
X0222192Y0190354D03*
X0222192Y0190276D03*
X0225144Y0190354D03*
X0225144Y0190433D03*
X0226837Y0188543D03*
X0226837Y0188465D03*
X0226837Y0188386D03*
X0217507Y0188307D03*
X0217507Y0189961D03*
D248*
X0217507Y0188150D03*
X0222192Y0189488D03*
X0222192Y0189567D03*
X0222192Y0189646D03*
X0225144Y0189646D03*
X0225144Y0189567D03*
X0227073Y0189724D03*
X0227073Y0189803D03*
X0230735Y0190512D03*
X0230735Y0187756D03*
D249*
X0234357Y0187913D03*
X0234357Y0187992D03*
X0234357Y0188071D03*
X0234357Y0190276D03*
X0234357Y0190354D03*
X0234357Y0190433D03*
D250*
X0220046Y0190276D03*
X0220046Y0190197D03*
X0220046Y0190118D03*
D251*
X0222192Y0189409D03*
X0222192Y0189331D03*
X0222192Y0189252D03*
X0223648Y0188780D03*
X0225144Y0189331D03*
X0227152Y0190118D03*
X0227152Y0190197D03*
X0227152Y0190276D03*
X0230656Y0190276D03*
X0230656Y0190197D03*
X0230656Y0188071D03*
X0230656Y0187992D03*
D252*
X0230892Y0187480D03*
X0226916Y0188858D03*
X0226916Y0188937D03*
X0226916Y0189016D03*
X0225144Y0190118D03*
X0222192Y0190118D03*
X0222192Y0190039D03*
X0222192Y0190197D03*
X0217507Y0190039D03*
X0217507Y0188228D03*
D253*
X0234377Y0190197D03*
D254*
X0234180Y0190118D03*
D255*
X0220085Y0190039D03*
X0220085Y0189961D03*
X0220085Y0189882D03*
D256*
X0234081Y0190039D03*
X0234081Y0188228D03*
D257*
X0234042Y0188307D03*
X0234042Y0189961D03*
D258*
X0234042Y0189882D03*
X0233963Y0188465D03*
D259*
X0226699Y0187638D03*
X0226699Y0187559D03*
X0220479Y0187756D03*
X0220479Y0187835D03*
X0220479Y0187913D03*
X0217526Y0188465D03*
X0217526Y0188543D03*
X0217526Y0189724D03*
X0217526Y0189803D03*
D260*
X0220125Y0189803D03*
X0220125Y0189724D03*
D261*
X0234003Y0189724D03*
X0234003Y0189803D03*
X0234003Y0188543D03*
D262*
X0226621Y0187323D03*
X0226621Y0187244D03*
X0226621Y0187165D03*
X0220558Y0187323D03*
X0220558Y0187402D03*
X0220558Y0187480D03*
X0217526Y0188622D03*
X0217526Y0188701D03*
X0217526Y0189567D03*
X0217526Y0189646D03*
D263*
X0220164Y0189646D03*
X0220164Y0189567D03*
X0220164Y0189488D03*
D264*
X0233963Y0189567D03*
X0233963Y0189646D03*
X0233963Y0188780D03*
X0233963Y0188701D03*
X0233963Y0188622D03*
D265*
X0220597Y0187244D03*
X0220597Y0187165D03*
X0217487Y0188780D03*
X0217487Y0189488D03*
D266*
X0233924Y0189488D03*
X0233924Y0189409D03*
X0233924Y0189331D03*
X0233924Y0189252D03*
X0233924Y0189173D03*
X0233924Y0189094D03*
X0233924Y0189016D03*
X0233924Y0188937D03*
X0233924Y0188858D03*
D267*
X0217526Y0188858D03*
X0217526Y0188937D03*
X0217526Y0189016D03*
X0217526Y0189094D03*
X0217526Y0189173D03*
X0217526Y0189252D03*
X0217526Y0189331D03*
X0217526Y0189409D03*
D268*
X0220203Y0189409D03*
X0220203Y0189331D03*
X0220203Y0189252D03*
D269*
X0220243Y0189173D03*
X0220243Y0189094D03*
D270*
X0220282Y0189016D03*
X0220282Y0188937D03*
X0220282Y0188858D03*
X0223629Y0187992D03*
X0223629Y0187913D03*
X0223629Y0187835D03*
D271*
X0223668Y0187756D03*
X0220322Y0188622D03*
X0220322Y0188701D03*
X0220322Y0188780D03*
D272*
X0220361Y0188543D03*
X0220361Y0188465D03*
X0220361Y0188386D03*
X0223629Y0187638D03*
X0223629Y0187559D03*
X0226818Y0188150D03*
X0226818Y0188228D03*
X0226818Y0188307D03*
D273*
X0234003Y0188386D03*
D274*
X0226778Y0188071D03*
X0226778Y0187992D03*
X0220400Y0188228D03*
X0220400Y0188307D03*
D275*
X0220440Y0188150D03*
X0220440Y0188071D03*
X0220440Y0187992D03*
X0223629Y0187480D03*
X0223629Y0187402D03*
X0223629Y0187323D03*
X0226739Y0187756D03*
X0226739Y0187835D03*
X0226739Y0187913D03*
D276*
X0234140Y0188150D03*
X0216818Y0186220D03*
D277*
X0214829Y0187697D03*
D278*
X0220518Y0187697D03*
D279*
X0223629Y0187697D03*
D280*
X0226699Y0187697D03*
D281*
X0230774Y0187697D03*
D282*
X0234278Y0187697D03*
D283*
X0226660Y0187480D03*
X0226660Y0187402D03*
X0223629Y0187244D03*
X0223629Y0187165D03*
X0220518Y0187559D03*
X0220518Y0187638D03*
D284*
X0226089Y0187087D03*
D285*
X0216424Y0187008D03*
D286*
X0227448Y0187008D03*
D287*
X0216463Y0186929D03*
X0216463Y0186850D03*
D288*
X0227408Y0186929D03*
D289*
X0227369Y0186850D03*
D290*
X0216503Y0186772D03*
D291*
X0227329Y0186772D03*
D292*
X0216542Y0186693D03*
D293*
X0227290Y0186693D03*
D294*
X0216581Y0186614D03*
D295*
X0227251Y0186614D03*
X0227251Y0186535D03*
D296*
X0216621Y0186535D03*
D297*
X0216660Y0186457D03*
D298*
X0227172Y0186457D03*
D299*
X0216739Y0186378D03*
D300*
X0227133Y0186378D03*
D301*
X0216778Y0186299D03*
D302*
X0227093Y0186299D03*
D303*
X0227014Y0186220D03*
D304*
X0216896Y0186142D03*
D305*
X0226975Y0186142D03*
D306*
X0216936Y0186063D03*
D307*
X0226896Y0186063D03*
D308*
X0217014Y0185984D03*
D309*
X0226857Y0185984D03*
D310*
X0217093Y0185906D03*
D311*
X0226778Y0185906D03*
D312*
X0217211Y0185827D03*
D313*
X0226660Y0185827D03*
D314*
X0217290Y0185748D03*
D315*
X0226542Y0185748D03*
D316*
X0217448Y0185669D03*
D317*
X0226385Y0185669D03*
D318*
X0226188Y0185591D03*
D319*
X0205255Y0204425D03*
X0205255Y0204701D03*
X0205255Y0204976D03*
X0205255Y0205252D03*
X0205255Y0209110D03*
X0205255Y0209386D03*
X0205255Y0209661D03*
X0205255Y0209937D03*
D320*
X0205255Y0209799D03*
X0205255Y0209524D03*
X0205255Y0209248D03*
X0205255Y0205114D03*
X0205255Y0204839D03*
X0205255Y0204563D03*
D321*
X0194782Y0208972D03*
X0116870Y0212315D03*
D322*
X0207046Y0208972D03*
D323*
X0208148Y0208008D03*
X0208148Y0207732D03*
X0208148Y0206630D03*
X0208148Y0206354D03*
X0203739Y0205528D03*
X0203739Y0208835D03*
X0212558Y0208835D03*
X0216140Y0207732D03*
X0194369Y0205528D03*
X0117093Y0060866D03*
X0117093Y0057795D03*
D324*
X0215865Y0208835D03*
D325*
X0216199Y0207319D03*
X0212617Y0208697D03*
X0199664Y0205390D03*
X0194310Y0205665D03*
D326*
X0215865Y0208697D03*
X0117125Y0212197D03*
D327*
X0194231Y0208559D03*
X0194231Y0205803D03*
X0216278Y0207181D03*
D328*
X0216416Y0206630D03*
X0203739Y0208559D03*
X0194093Y0208283D03*
X0194093Y0206079D03*
D329*
X0193896Y0207181D03*
X0198306Y0208008D03*
X0198424Y0208283D03*
X0199684Y0206079D03*
X0201062Y0208008D03*
X0214133Y0206079D03*
X0216613Y0205803D03*
D330*
X0197125Y0207594D03*
D331*
X0197125Y0207457D03*
D332*
X0197046Y0207181D03*
D333*
X0197814Y0205803D03*
X0202774Y0207181D03*
X0204703Y0207181D03*
X0179081Y0086756D03*
X0179081Y0084079D03*
X0189711Y0080929D03*
X0199711Y0080929D03*
X0209711Y0080929D03*
X0153924Y0059724D03*
X0138176Y0059724D03*
X0108845Y0059331D03*
D334*
X0196987Y0206768D03*
X0196987Y0207043D03*
X0116988Y0209047D03*
D335*
X0196987Y0206906D03*
X0207018Y0101850D03*
D336*
X0208199Y0105488D03*
X0208199Y0105685D03*
X0208396Y0106039D03*
X0208396Y0106236D03*
X0208396Y0106433D03*
X0208042Y0107535D03*
X0207845Y0108087D03*
X0207648Y0108638D03*
X0206546Y0107535D03*
X0206546Y0107339D03*
X0204696Y0107339D03*
X0204696Y0107535D03*
X0204696Y0107890D03*
X0204696Y0108087D03*
X0204696Y0109189D03*
X0204696Y0109543D03*
X0204696Y0109740D03*
X0204696Y0110094D03*
X0204696Y0110291D03*
X0202136Y0110291D03*
X0202136Y0110094D03*
X0202136Y0109740D03*
X0202136Y0109543D03*
X0202136Y0109189D03*
X0202136Y0108992D03*
X0202136Y0108087D03*
X0202136Y0107890D03*
X0202136Y0107535D03*
X0202136Y0107339D03*
X0201034Y0109189D03*
X0198278Y0109189D03*
X0197530Y0108441D03*
X0197333Y0107535D03*
X0195680Y0107535D03*
X0195680Y0107339D03*
X0195680Y0106984D03*
X0195680Y0106787D03*
X0195680Y0107890D03*
X0195680Y0108087D03*
X0195680Y0108441D03*
X0194420Y0108441D03*
X0193672Y0109189D03*
X0191822Y0108992D03*
X0191625Y0108638D03*
X0191625Y0108441D03*
X0191467Y0108087D03*
X0191467Y0107890D03*
X0192766Y0107535D03*
X0192766Y0107339D03*
X0189066Y0107890D03*
X0189066Y0108087D03*
X0188869Y0108441D03*
X0188869Y0108638D03*
X0187766Y0108087D03*
X0187766Y0107890D03*
X0187766Y0107535D03*
X0187766Y0107339D03*
X0186861Y0109189D03*
X0185010Y0109189D03*
X0185010Y0108992D03*
X0183003Y0108992D03*
X0183003Y0109189D03*
X0183003Y0109543D03*
X0183003Y0108638D03*
X0183003Y0108441D03*
X0183003Y0107535D03*
X0183003Y0107339D03*
X0183003Y0106984D03*
X0183003Y0106787D03*
X0191625Y0098169D03*
X0208948Y0107535D03*
X0209144Y0108087D03*
X0209302Y0108441D03*
X0209302Y0108638D03*
X0209499Y0108992D03*
D337*
X0207097Y0102224D03*
X0202491Y0099075D03*
X0200286Y0101476D03*
X0201388Y0102224D03*
X0193672Y0106787D03*
X0186861Y0106787D03*
X0183554Y0107890D03*
X0183554Y0110094D03*
X0224774Y0102224D03*
X0226073Y0101280D03*
X0229577Y0098169D03*
X0231231Y0100728D03*
X0231231Y0100925D03*
X0232885Y0098169D03*
X0232885Y0097972D03*
D338*
X0202136Y0099272D03*
X0193672Y0107890D03*
X0183908Y0109740D03*
D339*
X0184833Y0109543D03*
X0184833Y0108441D03*
X0191093Y0106984D03*
X0197707Y0106984D03*
X0200660Y0106984D03*
X0191644Y0097972D03*
X0201408Y0096870D03*
X0207117Y0096870D03*
X0228455Y0101476D03*
X0228652Y0100728D03*
X0229007Y0099272D03*
X0230306Y0099272D03*
X0230306Y0099075D03*
X0231959Y0099626D03*
X0231959Y0099823D03*
X0232156Y0099272D03*
X0232156Y0099075D03*
X0233613Y0099626D03*
X0233613Y0099823D03*
X0233810Y0100374D03*
D340*
X0232235Y0098898D03*
X0208495Y0106610D03*
X0206644Y0107713D03*
X0204794Y0107161D03*
X0202038Y0107161D03*
X0200385Y0107161D03*
X0197432Y0108264D03*
X0190266Y0108815D03*
X0188967Y0108264D03*
X0189518Y0106610D03*
X0186014Y0107161D03*
X0184912Y0109366D03*
X0115039Y0210051D03*
X0115039Y0211311D03*
X0113779Y0211941D03*
X0113543Y0211311D03*
X0108110Y0210051D03*
X0107480Y0211311D03*
D341*
X0190621Y0107890D03*
X0196526Y0109189D03*
X0205739Y0109189D03*
D342*
X0201034Y0108992D03*
X0193672Y0108992D03*
X0186861Y0108992D03*
X0188514Y0100925D03*
X0197530Y0100925D03*
X0197530Y0100728D03*
X0197530Y0100374D03*
X0197530Y0100177D03*
X0197530Y0099823D03*
X0197530Y0099626D03*
X0197530Y0099272D03*
X0197530Y0099075D03*
X0197530Y0098720D03*
X0197530Y0098524D03*
X0197530Y0098169D03*
X0197530Y0097972D03*
X0197530Y0097618D03*
X0197530Y0097421D03*
X0197530Y0097067D03*
X0199932Y0097972D03*
X0199932Y0100374D03*
X0202688Y0101280D03*
X0208396Y0097972D03*
X0208948Y0099075D03*
X0208948Y0099272D03*
X0208948Y0099626D03*
X0208948Y0099823D03*
X0208948Y0100177D03*
X0223121Y0100728D03*
X0223121Y0098524D03*
X0226625Y0098720D03*
X0226625Y0099075D03*
X0226625Y0100177D03*
X0226625Y0100374D03*
X0232885Y0097618D03*
X0232885Y0097421D03*
D343*
X0207570Y0108992D03*
X0206467Y0108441D03*
X0200207Y0108087D03*
X0200207Y0107890D03*
X0200207Y0107535D03*
X0200207Y0107339D03*
X0192845Y0108441D03*
X0190995Y0106787D03*
X0188790Y0108992D03*
X0187688Y0108441D03*
D344*
X0187510Y0108638D03*
X0186211Y0108638D03*
X0186014Y0108441D03*
X0184912Y0108638D03*
X0186211Y0106984D03*
X0187510Y0106984D03*
X0189518Y0106984D03*
X0189518Y0106787D03*
X0190266Y0108441D03*
X0190266Y0108638D03*
X0190266Y0108992D03*
X0193022Y0108638D03*
X0194322Y0108638D03*
X0194322Y0106984D03*
X0193022Y0106984D03*
X0197432Y0107339D03*
X0197629Y0108638D03*
X0198928Y0108638D03*
X0199085Y0108441D03*
X0200385Y0108441D03*
X0202038Y0108441D03*
X0204794Y0108441D03*
X0206644Y0108087D03*
X0206644Y0107890D03*
X0207747Y0108441D03*
X0207944Y0107890D03*
X0209046Y0107890D03*
X0208495Y0106787D03*
X0198928Y0106984D03*
D345*
X0198357Y0108992D03*
X0196152Y0108992D03*
X0196152Y0108638D03*
X0197255Y0101280D03*
X0200207Y0100177D03*
X0205719Y0097972D03*
X0188790Y0097972D03*
X0188790Y0101280D03*
X0223396Y0097972D03*
X0229656Y0097972D03*
D346*
X0232885Y0098720D03*
X0224774Y0097067D03*
X0205444Y0108992D03*
X0196428Y0102028D03*
D347*
X0198377Y0108815D03*
X0211448Y0101102D03*
X0231329Y0100551D03*
D348*
X0205542Y0108815D03*
D349*
X0206192Y0108638D03*
X0204892Y0108638D03*
X0206192Y0106984D03*
X0200483Y0108638D03*
X0211152Y0102224D03*
X0224774Y0096870D03*
X0228829Y0099823D03*
X0230483Y0099823D03*
X0230483Y0099626D03*
X0230680Y0100177D03*
X0230680Y0100374D03*
X0231782Y0100374D03*
X0231782Y0100177D03*
X0233436Y0099272D03*
X0233436Y0099075D03*
X0232885Y0097067D03*
X0233987Y0101280D03*
X0231231Y0102028D03*
X0231231Y0102224D03*
X0228278Y0102224D03*
X0190168Y0096870D03*
D350*
X0188436Y0098524D03*
X0188239Y0099075D03*
X0188436Y0100728D03*
X0191546Y0100925D03*
X0191743Y0100728D03*
X0191743Y0100374D03*
X0191743Y0100177D03*
X0194302Y0100177D03*
X0194302Y0100374D03*
X0194302Y0100728D03*
X0194302Y0099823D03*
X0194302Y0099626D03*
X0194302Y0099272D03*
X0194302Y0099075D03*
X0194302Y0098720D03*
X0194302Y0098524D03*
X0194302Y0098169D03*
X0194302Y0097972D03*
X0194302Y0097618D03*
X0194302Y0097421D03*
X0194302Y0097067D03*
X0194302Y0102028D03*
X0194302Y0102224D03*
X0199853Y0100925D03*
X0199853Y0100728D03*
X0199656Y0098524D03*
X0199853Y0098169D03*
X0202963Y0098169D03*
X0202963Y0098524D03*
X0202963Y0100728D03*
X0205168Y0099823D03*
X0205168Y0099626D03*
X0205168Y0099272D03*
X0205365Y0098524D03*
X0208869Y0098720D03*
X0208869Y0100374D03*
X0211073Y0102028D03*
X0212924Y0102224D03*
X0215286Y0102224D03*
X0215286Y0102028D03*
X0215286Y0101673D03*
X0215286Y0101476D03*
X0215286Y0101280D03*
X0215286Y0102579D03*
X0215286Y0102776D03*
X0215286Y0099823D03*
X0215286Y0099626D03*
X0215286Y0099272D03*
X0215286Y0099075D03*
X0215286Y0098720D03*
X0215286Y0098524D03*
X0215286Y0098169D03*
X0215286Y0097972D03*
X0215286Y0097618D03*
X0215286Y0097421D03*
X0215286Y0097067D03*
X0220995Y0097067D03*
X0220995Y0097421D03*
X0220995Y0097618D03*
X0220995Y0097972D03*
X0220995Y0098169D03*
X0220995Y0098524D03*
X0220995Y0098720D03*
X0220995Y0099075D03*
X0220995Y0099272D03*
X0220995Y0099626D03*
X0220995Y0099823D03*
X0220995Y0100177D03*
X0220995Y0100374D03*
X0220995Y0100728D03*
X0220995Y0100925D03*
X0220995Y0101280D03*
X0220995Y0101476D03*
X0220995Y0101673D03*
X0220995Y0102028D03*
X0220995Y0102224D03*
X0220995Y0102579D03*
X0220995Y0102776D03*
X0220995Y0103130D03*
X0220995Y0103327D03*
X0220995Y0103681D03*
X0220995Y0103878D03*
X0223199Y0100925D03*
X0223042Y0100374D03*
X0223042Y0098720D03*
X0226546Y0098524D03*
X0226703Y0099272D03*
X0226703Y0099626D03*
X0226703Y0099823D03*
X0228751Y0100177D03*
X0228751Y0100374D03*
X0228554Y0100925D03*
X0228554Y0101280D03*
X0228357Y0101673D03*
X0228357Y0102028D03*
X0228908Y0099626D03*
X0229105Y0099075D03*
X0229656Y0097421D03*
X0229656Y0097067D03*
X0233711Y0100177D03*
X0233908Y0100728D03*
X0233908Y0100925D03*
X0234066Y0101476D03*
X0234066Y0101673D03*
X0234262Y0102028D03*
X0234262Y0102224D03*
X0208475Y0106984D03*
X0208475Y0107339D03*
X0201861Y0106984D03*
X0201861Y0108638D03*
X0190995Y0107339D03*
X0190247Y0108087D03*
X0189538Y0107535D03*
X0189538Y0107339D03*
D351*
X0185936Y0107713D03*
X0185936Y0108264D03*
D352*
X0183829Y0108087D03*
X0190089Y0102028D03*
X0190247Y0097067D03*
X0201310Y0106787D03*
X0193593Y0108087D03*
D353*
X0185936Y0108087D03*
X0185936Y0107890D03*
X0185936Y0107535D03*
X0185936Y0107339D03*
D354*
X0198259Y0107890D03*
X0198259Y0108087D03*
X0201408Y0102028D03*
X0201408Y0097067D03*
X0207117Y0102028D03*
X0224794Y0102028D03*
D355*
X0189892Y0107890D03*
D356*
X0190621Y0107713D03*
X0111148Y0059843D03*
X0111148Y0058819D03*
D357*
X0105007Y0057795D03*
X0105007Y0060866D03*
X0198259Y0107713D03*
D358*
X0200109Y0101280D03*
X0202865Y0100925D03*
X0202865Y0098720D03*
X0202865Y0097972D03*
X0205266Y0098720D03*
X0205266Y0099075D03*
X0205621Y0098169D03*
X0205266Y0100177D03*
X0205266Y0100374D03*
X0205463Y0100728D03*
X0205463Y0100925D03*
X0208573Y0100925D03*
X0208770Y0100728D03*
X0208770Y0098524D03*
X0208573Y0098169D03*
X0211172Y0098169D03*
X0211172Y0097972D03*
X0211172Y0097618D03*
X0211172Y0097421D03*
X0211172Y0097067D03*
X0211172Y0098524D03*
X0211172Y0098720D03*
X0211172Y0099075D03*
X0211172Y0099272D03*
X0211172Y0099626D03*
X0211172Y0099823D03*
X0211172Y0100177D03*
X0211172Y0100374D03*
X0211172Y0100728D03*
X0212825Y0102028D03*
X0222944Y0100177D03*
X0222944Y0099823D03*
X0222944Y0099626D03*
X0222944Y0099272D03*
X0222944Y0099075D03*
X0223298Y0098169D03*
X0226251Y0098169D03*
X0226448Y0100728D03*
X0226448Y0100925D03*
X0229558Y0097618D03*
X0231211Y0101280D03*
X0231211Y0101476D03*
X0231211Y0101673D03*
X0194400Y0100925D03*
X0188337Y0100374D03*
X0188337Y0100177D03*
X0188337Y0098720D03*
X0188692Y0098169D03*
X0185581Y0098169D03*
X0185581Y0097972D03*
X0185581Y0097618D03*
X0185581Y0097421D03*
X0185581Y0097067D03*
X0185581Y0098524D03*
X0185581Y0098720D03*
X0185581Y0099075D03*
X0185581Y0099272D03*
X0185581Y0099626D03*
X0185581Y0099823D03*
X0185581Y0100177D03*
X0185581Y0100374D03*
X0185581Y0100728D03*
X0185581Y0100925D03*
X0185581Y0101280D03*
X0185581Y0101476D03*
X0185581Y0101673D03*
X0185581Y0102028D03*
X0185581Y0102224D03*
X0185581Y0102579D03*
X0185581Y0102776D03*
X0191093Y0107535D03*
D359*
X0191093Y0107161D03*
X0189440Y0107161D03*
X0230306Y0098898D03*
X0232156Y0099449D03*
X0231959Y0100000D03*
X0233810Y0100551D03*
X0110826Y0209421D03*
X0110826Y0211941D03*
D360*
X0204991Y0106984D03*
D361*
X0198377Y0106787D03*
X0194676Y0101280D03*
X0232786Y0098524D03*
D362*
X0205542Y0106787D03*
D363*
X0198259Y0106610D03*
X0197353Y0101102D03*
X0200109Y0097795D03*
X0202865Y0101102D03*
X0205266Y0100551D03*
X0205266Y0100000D03*
X0205266Y0098898D03*
X0205463Y0098346D03*
X0205621Y0101102D03*
X0208573Y0101102D03*
X0211172Y0100551D03*
X0211172Y0100000D03*
X0211172Y0099449D03*
X0211172Y0098898D03*
X0211172Y0098346D03*
X0211172Y0097795D03*
X0211172Y0097244D03*
X0222944Y0099449D03*
X0222944Y0100000D03*
X0223298Y0101102D03*
X0226251Y0101102D03*
X0226448Y0098346D03*
X0191448Y0101102D03*
X0188692Y0101102D03*
X0188337Y0098898D03*
X0185581Y0098898D03*
X0185581Y0099449D03*
X0185581Y0100000D03*
X0185581Y0100551D03*
X0185581Y0101102D03*
X0185581Y0101850D03*
X0185581Y0102402D03*
X0185581Y0102953D03*
X0185581Y0098346D03*
X0185581Y0097795D03*
X0185581Y0097244D03*
D364*
X0185581Y0103504D03*
X0185581Y0104055D03*
D365*
X0216959Y0104055D03*
X0216959Y0103504D03*
D366*
X0185581Y0103327D03*
X0185581Y0103130D03*
X0185581Y0103681D03*
X0185581Y0103878D03*
D367*
X0216959Y0103878D03*
X0216959Y0103681D03*
X0216959Y0103327D03*
X0216959Y0103130D03*
D368*
X0211251Y0100925D03*
X0208298Y0101280D03*
X0196526Y0102224D03*
X0191369Y0101280D03*
X0190070Y0102224D03*
X0223573Y0101280D03*
X0226172Y0097972D03*
D369*
X0224873Y0101850D03*
X0190070Y0101850D03*
D370*
X0201408Y0101850D03*
D371*
X0190089Y0101673D03*
X0190247Y0097421D03*
D372*
X0195778Y0101673D03*
X0216762Y0100925D03*
X0216762Y0100728D03*
X0216762Y0100374D03*
X0216762Y0100177D03*
D373*
X0224794Y0101673D03*
X0224794Y0097618D03*
X0207117Y0097618D03*
X0207117Y0101673D03*
X0201408Y0101673D03*
X0201408Y0097421D03*
D374*
X0211999Y0101280D03*
X0211999Y0101476D03*
X0211999Y0101673D03*
D375*
X0224873Y0101476D03*
X0190070Y0101476D03*
X0190266Y0097618D03*
D376*
X0195877Y0101476D03*
D377*
X0202412Y0101476D03*
X0229656Y0098720D03*
X0229656Y0098524D03*
D378*
X0207018Y0101476D03*
D379*
X0205818Y0101280D03*
D380*
X0216762Y0100551D03*
D381*
X0189991Y0100000D03*
X0189991Y0099449D03*
D382*
X0189991Y0099626D03*
X0189991Y0099823D03*
X0189991Y0099272D03*
D383*
X0201034Y0099823D03*
X0201388Y0099626D03*
D384*
X0202786Y0098898D03*
X0232786Y0097795D03*
D385*
X0191644Y0098346D03*
D386*
X0201388Y0097618D03*
D387*
X0207117Y0097421D03*
D388*
X0224774Y0097421D03*
D389*
X0207117Y0097067D03*
D390*
X0110944Y0208161D03*
X0110944Y0213201D03*
D391*
X0110944Y0213063D03*
X0110944Y0208299D03*
D392*
X0110944Y0208417D03*
X0110944Y0212945D03*
D393*
X0110944Y0212827D03*
X0110944Y0208535D03*
D394*
X0110944Y0208654D03*
X0110944Y0212709D03*
D395*
X0110964Y0212571D03*
X0110964Y0208791D03*
D396*
X0110944Y0208929D03*
X0110944Y0212433D03*
D397*
X0107854Y0212315D03*
X0108333Y0061004D03*
D398*
X0107421Y0212197D03*
X0113720Y0212315D03*
D399*
X0104527Y0212197D03*
X0104527Y0212079D03*
X0104527Y0209283D03*
X0104527Y0209165D03*
D400*
X0106732Y0210189D03*
X0108228Y0210307D03*
X0109370Y0212197D03*
X0110629Y0211567D03*
X0110629Y0211449D03*
X0110629Y0209913D03*
X0110629Y0209795D03*
X0113661Y0209795D03*
X0113661Y0209677D03*
X0113779Y0209559D03*
X0115039Y0209795D03*
X0115039Y0211449D03*
X0113779Y0211685D03*
X0113779Y0211803D03*
X0113661Y0211567D03*
X0113661Y0211449D03*
X0111227Y0060217D03*
X0111227Y0060098D03*
X0111227Y0058563D03*
X0111227Y0058445D03*
X0109928Y0057657D03*
X0114140Y0060098D03*
D401*
X0107421Y0211685D03*
X0113720Y0212197D03*
D402*
X0107421Y0212079D03*
D403*
X0110944Y0212079D03*
X0112322Y0209913D03*
X0110944Y0209165D03*
X0111542Y0060728D03*
D404*
X0104468Y0209559D03*
X0104468Y0211803D03*
D405*
X0106850Y0209913D03*
X0108110Y0209913D03*
X0110748Y0209559D03*
X0112401Y0209795D03*
X0113779Y0209283D03*
X0115039Y0209913D03*
X0115039Y0211173D03*
X0112401Y0211449D03*
X0110748Y0211803D03*
X0111345Y0060492D03*
X0107881Y0059980D03*
X0107369Y0058563D03*
X0111345Y0058051D03*
D406*
X0117244Y0209283D03*
X0117362Y0209559D03*
X0117637Y0210189D03*
X0117637Y0210307D03*
X0117637Y0210425D03*
X0117637Y0210543D03*
X0117637Y0210819D03*
X0117637Y0210937D03*
X0117637Y0211055D03*
X0117362Y0211803D03*
X0104409Y0211685D03*
X0104409Y0211567D03*
X0104409Y0211449D03*
X0104409Y0209913D03*
X0104409Y0209795D03*
X0104409Y0209677D03*
D407*
X0107421Y0211173D03*
X0108169Y0210189D03*
X0109429Y0209047D03*
X0110688Y0209677D03*
X0110688Y0211685D03*
X0113602Y0209913D03*
X0114475Y0060492D03*
X0114081Y0059980D03*
X0112940Y0058445D03*
X0111286Y0058169D03*
X0107310Y0058681D03*
D408*
X0104330Y0210189D03*
X0104330Y0210307D03*
X0104330Y0210425D03*
X0104330Y0210543D03*
X0104330Y0210819D03*
X0104330Y0210937D03*
X0104330Y0211055D03*
X0104330Y0211173D03*
X0117440Y0211685D03*
X0117559Y0211173D03*
D409*
X0117499Y0211449D03*
X0117499Y0211567D03*
X0117499Y0209913D03*
X0117499Y0209795D03*
X0117499Y0209677D03*
X0104751Y0059980D03*
X0104751Y0059705D03*
X0104751Y0059587D03*
X0104751Y0059469D03*
X0104751Y0059193D03*
X0104751Y0059075D03*
X0104751Y0058957D03*
X0104751Y0058681D03*
D410*
X0107940Y0060098D03*
X0111404Y0060610D03*
X0112940Y0060098D03*
X0114980Y0210189D03*
X0114980Y0211055D03*
X0107421Y0211449D03*
D411*
X0104330Y0211311D03*
X0104330Y0210681D03*
X0104330Y0210051D03*
X0117559Y0210051D03*
X0117559Y0211311D03*
D412*
X0112716Y0211173D03*
X0112716Y0210189D03*
X0107959Y0057657D03*
D413*
X0105066Y0057657D03*
X0104948Y0057933D03*
X0104948Y0060728D03*
X0113255Y0059705D03*
X0116955Y0057657D03*
X0104586Y0209047D03*
X0112657Y0210307D03*
X0112657Y0210425D03*
X0112657Y0210543D03*
X0112657Y0210819D03*
X0112657Y0210937D03*
X0112657Y0211055D03*
D414*
X0108366Y0210681D03*
X0111089Y0059331D03*
D415*
X0112657Y0210681D03*
D416*
X0106594Y0210543D03*
X0111089Y0059587D03*
X0111089Y0059469D03*
X0111089Y0059193D03*
X0111089Y0059075D03*
X0107113Y0059075D03*
X0107113Y0059193D03*
D417*
X0107172Y0058957D03*
X0111148Y0058957D03*
X0111148Y0058681D03*
X0111148Y0059705D03*
X0111148Y0059980D03*
X0108307Y0210425D03*
X0108307Y0210543D03*
D418*
X0112716Y0210051D03*
X0107959Y0060866D03*
X0113314Y0059843D03*
X0107959Y0057795D03*
D419*
X0107480Y0209165D03*
X0107480Y0209283D03*
X0107480Y0209559D03*
X0107480Y0209677D03*
X0107480Y0209795D03*
D420*
X0107480Y0209421D03*
D421*
X0113779Y0209421D03*
X0109928Y0060866D03*
X0107251Y0058819D03*
X0109928Y0057795D03*
X0114416Y0060354D03*
D422*
X0114672Y0058169D03*
X0114672Y0058051D03*
X0110885Y0209283D03*
D423*
X0107480Y0209047D03*
D424*
X0189633Y0154606D02*
X0189633Y0115236D01*
X0248688Y0115236D01*
X0248688Y0154606D01*
X0189633Y0154606D01*
D425*
X0102892Y0063992D02*
X0102892Y0061992D01*
X0104892Y0061992D01*
X0116499Y0061992D02*
X0118499Y0061992D01*
X0118499Y0063992D01*
X0118499Y0071992D02*
X0118499Y0073992D01*
X0116499Y0073992D01*
X0104892Y0073992D02*
X0102892Y0073992D01*
X0102892Y0071992D01*
X0102892Y0195850D02*
X0102892Y0197850D01*
X0102892Y0195850D02*
X0104892Y0195850D01*
X0116499Y0195850D02*
X0118499Y0195850D01*
X0118499Y0197850D01*
X0118499Y0205850D02*
X0118499Y0207850D01*
X0116499Y0207850D01*
X0104892Y0207850D02*
X0102892Y0207850D01*
X0102892Y0205850D01*
D426*
X0200377Y0192453D02*
X0203377Y0192453D01*
D427*
X0206247Y0083921D03*
X0212546Y0083921D03*
D428*
X0212388Y0083921D03*
X0206404Y0083921D03*
X0202231Y0083764D03*
X0196562Y0083764D03*
X0182231Y0083606D03*
X0176562Y0083606D03*
D429*
X0176719Y0083606D03*
X0182073Y0083606D03*
X0196719Y0083764D03*
X0202073Y0083764D03*
X0206562Y0083921D03*
X0212231Y0083921D03*
D430*
X0212073Y0083921D03*
X0206719Y0083921D03*
X0201759Y0083764D03*
X0197034Y0083764D03*
X0181759Y0083606D03*
X0177034Y0083606D03*
D431*
X0177192Y0083606D03*
X0181601Y0083606D03*
X0197192Y0083764D03*
X0201601Y0083764D03*
X0206877Y0083921D03*
X0211916Y0083921D03*
D432*
X0211601Y0083921D03*
X0207192Y0083921D03*
X0192546Y0085654D03*
X0186247Y0085654D03*
D433*
X0197822Y0079512D03*
X0198136Y0079354D03*
X0198294Y0079354D03*
X0198451Y0079354D03*
X0198609Y0079197D03*
X0198766Y0079197D03*
X0198924Y0079197D03*
X0199081Y0079197D03*
X0207507Y0079512D03*
X0207664Y0079512D03*
X0207979Y0079354D03*
X0209239Y0079039D03*
D434*
X0209081Y0079118D03*
X0208924Y0079118D03*
X0208766Y0079118D03*
X0208609Y0079118D03*
X0208451Y0079276D03*
X0208294Y0079276D03*
X0208136Y0079276D03*
X0207822Y0079433D03*
D435*
X0210656Y0080142D03*
D436*
X0210814Y0080220D03*
X0210971Y0080220D03*
X0200656Y0080220D03*
D437*
X0200814Y0080299D03*
X0200971Y0080299D03*
X0211129Y0080299D03*
X0211286Y0080299D03*
X0211444Y0080457D03*
D438*
X0211444Y0086756D03*
X0189869Y0087543D03*
X0177822Y0082661D03*
D439*
X0176247Y0083606D03*
X0182546Y0083606D03*
X0196247Y0083764D03*
X0202546Y0083764D03*
D440*
X0202388Y0083764D03*
X0196404Y0083764D03*
X0182388Y0083606D03*
X0176404Y0083606D03*
D441*
X0190656Y0079276D03*
X0197507Y0079591D03*
X0197664Y0079591D03*
X0197979Y0079433D03*
X0199239Y0079118D03*
D442*
X0198451Y0089433D03*
X0178136Y0077937D03*
X0177822Y0078094D03*
X0177507Y0078252D03*
D443*
X0178766Y0089276D03*
X0198609Y0089433D03*
D444*
X0198766Y0089512D03*
X0178609Y0089354D03*
D445*
X0201129Y0080378D03*
X0201286Y0080378D03*
X0201444Y0080535D03*
D446*
X0192073Y0085654D03*
X0186719Y0085654D03*
D447*
X0186877Y0085654D03*
X0191916Y0085654D03*
D448*
X0191759Y0085654D03*
X0187034Y0085654D03*
D449*
X0187192Y0085654D03*
X0191601Y0085654D03*
D450*
X0187349Y0082189D03*
D451*
X0187349Y0091953D03*
D452*
X0187507Y0080220D03*
X0187822Y0080063D03*
X0188136Y0079906D03*
D453*
X0187979Y0079984D03*
X0188294Y0079827D03*
X0188451Y0079827D03*
X0188609Y0079669D03*
X0188766Y0079669D03*
X0187664Y0080142D03*
D454*
X0188924Y0079591D03*
X0189081Y0079591D03*
D455*
X0189239Y0079512D03*
D456*
X0190814Y0079354D03*
D457*
X0190971Y0079276D03*
X0191444Y0079591D03*
D458*
X0191286Y0079354D03*
X0191129Y0079354D03*
D459*
X0178924Y0089197D03*
D460*
X0111010Y0061890D03*
X0111010Y0056772D03*
D461*
X0111030Y0056909D03*
X0111030Y0061752D03*
D462*
X0111010Y0061634D03*
X0111010Y0057028D03*
D463*
X0111030Y0057146D03*
X0111030Y0061516D03*
D464*
X0111030Y0061378D03*
X0111030Y0057283D03*
D465*
X0111010Y0057421D03*
X0111010Y0061240D03*
D466*
X0111010Y0061122D03*
X0111010Y0057539D03*
D467*
X0115676Y0061004D03*
D468*
X0114534Y0060728D03*
X0112999Y0059980D03*
X0114534Y0058563D03*
D469*
X0113333Y0059587D03*
X0117152Y0060492D03*
X0117152Y0060610D03*
X0117152Y0058169D03*
X0117152Y0058051D03*
X0104869Y0058051D03*
X0104869Y0058169D03*
X0104869Y0060492D03*
X0104869Y0060610D03*
D470*
X0114534Y0060610D03*
D471*
X0117211Y0060354D03*
X0117211Y0058307D03*
X0104810Y0058307D03*
X0104810Y0060354D03*
D472*
X0104810Y0060217D03*
X0104810Y0060098D03*
X0104810Y0058563D03*
X0104810Y0058445D03*
X0117211Y0058445D03*
X0117211Y0058563D03*
X0117211Y0060098D03*
X0117211Y0060217D03*
D473*
X0114593Y0058445D03*
X0114593Y0057933D03*
X0112940Y0058563D03*
X0107940Y0060217D03*
D474*
X0117290Y0059980D03*
X0117290Y0059705D03*
X0117290Y0059587D03*
X0117290Y0059469D03*
X0117290Y0059193D03*
X0117290Y0059075D03*
X0117290Y0058957D03*
X0117290Y0058681D03*
D475*
X0117290Y0058819D03*
X0117290Y0059331D03*
X0117290Y0059843D03*
D476*
X0115125Y0059587D03*
X0107959Y0059587D03*
D477*
X0113648Y0059469D03*
X0113648Y0059193D03*
X0113648Y0059075D03*
X0113648Y0058957D03*
D478*
X0113648Y0058819D03*
X0113648Y0059331D03*
D479*
X0113707Y0058681D03*
D480*
X0108530Y0058563D03*
D481*
X0114593Y0058307D03*
D482*
X0111542Y0057795D03*
D483*
X0135696Y0061240D03*
X0135971Y0061240D03*
X0136247Y0061240D03*
X0136522Y0061240D03*
X0140381Y0061240D03*
X0140656Y0061240D03*
X0140932Y0061240D03*
X0141207Y0061240D03*
X0151444Y0061240D03*
X0151719Y0061240D03*
X0151995Y0061240D03*
X0152270Y0061240D03*
X0156129Y0061240D03*
X0156404Y0061240D03*
X0156680Y0061240D03*
X0156955Y0061240D03*
D484*
X0156818Y0061240D03*
X0156542Y0061240D03*
X0156266Y0061240D03*
X0152408Y0061240D03*
X0152133Y0061240D03*
X0151857Y0061240D03*
X0151581Y0061240D03*
X0141070Y0061240D03*
X0140794Y0061240D03*
X0140518Y0061240D03*
X0136385Y0061240D03*
X0136109Y0061240D03*
X0135833Y0061240D03*
D485*
X0137349Y0060827D03*
X0137625Y0060827D03*
X0137900Y0060827D03*
X0138176Y0060827D03*
X0152546Y0060827D03*
X0153097Y0060827D03*
D486*
X0152822Y0060768D03*
X0146759Y0060886D03*
X0146483Y0060886D03*
D487*
X0145381Y0058346D03*
X0145105Y0058346D03*
X0139278Y0061378D03*
X0146483Y0064409D03*
X0146759Y0064409D03*
X0147034Y0064409D03*
X0153924Y0061378D03*
D488*
X0154199Y0061319D03*
D489*
X0154337Y0061240D03*
X0139416Y0061240D03*
D490*
X0154475Y0061240D03*
D491*
X0148688Y0061378D03*
X0148412Y0061378D03*
X0148136Y0061378D03*
X0147861Y0061378D03*
X0144003Y0061378D03*
X0143727Y0061378D03*
X0143451Y0061378D03*
X0143176Y0061378D03*
D492*
X0143314Y0061378D03*
X0143589Y0061378D03*
X0143865Y0061378D03*
X0147999Y0061378D03*
X0148274Y0061378D03*
X0148550Y0061378D03*
D493*
X0144140Y0059803D03*
X0136660Y0059646D03*
D494*
X0144416Y0058760D03*
X0145794Y0058760D03*
X0146070Y0058760D03*
X0146345Y0058760D03*
X0146621Y0058760D03*
X0146896Y0058760D03*
X0147172Y0058760D03*
X0147448Y0058760D03*
X0147723Y0058760D03*
X0144140Y0063996D03*
D495*
X0144554Y0061102D03*
X0145932Y0061102D03*
X0137900Y0062205D03*
X0137625Y0062205D03*
D496*
X0137487Y0062283D03*
X0137211Y0060906D03*
X0138314Y0060906D03*
X0139692Y0060906D03*
X0139967Y0060906D03*
X0144692Y0061024D03*
X0145518Y0061024D03*
X0146070Y0061024D03*
X0146345Y0062402D03*
D497*
X0146345Y0064409D03*
X0146621Y0064409D03*
X0146896Y0064409D03*
X0145243Y0064409D03*
X0145243Y0058346D03*
X0145518Y0058346D03*
D498*
X0145932Y0058760D03*
X0146207Y0058760D03*
X0146483Y0058760D03*
X0146759Y0058760D03*
X0147034Y0058760D03*
X0147310Y0058760D03*
X0147585Y0058760D03*
D499*
X0159007Y0154110D03*
X0160660Y0154110D03*
X0159007Y0158362D03*
X0160660Y0160488D03*
X0163967Y0158362D03*
X0165857Y0158362D03*
X0174833Y0157417D03*
D500*
X0176369Y0159307D03*
X0169282Y0157654D03*
X0164558Y0157890D03*
X0164558Y0154819D03*
X0164322Y0153165D03*
X0164322Y0152929D03*
X0169282Y0154819D03*
X0159597Y0154583D03*
X0153455Y0156472D03*
X0159597Y0157890D03*
X0154164Y0160252D03*
D501*
X0157707Y0156236D03*
X0160778Y0160252D03*
X0165739Y0154346D03*
X0165739Y0154110D03*
X0170699Y0156709D03*
X0170699Y0156945D03*
X0176369Y0160252D03*
D502*
X0176605Y0154346D03*
X0153928Y0158835D03*
X0154164Y0160016D03*
D503*
X0152392Y0158598D03*
X0152392Y0158362D03*
X0152392Y0158126D03*
X0152392Y0156236D03*
X0152392Y0156000D03*
X0152392Y0155764D03*
X0157825Y0155764D03*
X0157825Y0156000D03*
X0157825Y0156472D03*
X0157825Y0156709D03*
X0160660Y0156709D03*
X0160660Y0156472D03*
X0160660Y0156236D03*
X0160660Y0156000D03*
X0160660Y0155764D03*
X0162786Y0156000D03*
X0162786Y0156236D03*
X0162786Y0156472D03*
X0162786Y0156709D03*
X0163967Y0154346D03*
X0165621Y0153874D03*
X0165621Y0153638D03*
X0165621Y0156000D03*
X0165621Y0156236D03*
X0165621Y0156472D03*
X0165621Y0156709D03*
X0167747Y0156709D03*
X0167983Y0156945D03*
X0167983Y0155528D03*
X0174833Y0157654D03*
X0174833Y0157890D03*
X0174833Y0158126D03*
X0174833Y0158362D03*
X0177904Y0158362D03*
X0177904Y0158126D03*
X0177904Y0157890D03*
X0177904Y0157654D03*
X0160660Y0158362D03*
X0160660Y0158598D03*
X0160660Y0158835D03*
X0160660Y0159071D03*
X0160660Y0159307D03*
X0160660Y0159543D03*
X0160660Y0159780D03*
X0160660Y0160016D03*
D504*
X0176369Y0160016D03*
X0177314Y0156945D03*
X0177077Y0156709D03*
D505*
X0176487Y0155055D03*
X0176487Y0154819D03*
X0176487Y0154583D03*
X0154046Y0154583D03*
X0154046Y0154819D03*
X0154046Y0155055D03*
X0154046Y0155291D03*
X0154046Y0154346D03*
X0154046Y0159071D03*
X0154046Y0159307D03*
X0154046Y0159543D03*
X0154046Y0159780D03*
D506*
X0169400Y0158126D03*
X0176251Y0159780D03*
D507*
X0176251Y0159543D03*
X0169400Y0157890D03*
X0164676Y0158126D03*
X0164676Y0154583D03*
X0164203Y0152693D03*
X0169400Y0154583D03*
X0159715Y0154346D03*
X0159715Y0158126D03*
X0153337Y0157890D03*
D508*
X0159361Y0157417D03*
X0159361Y0157181D03*
X0159361Y0155291D03*
X0159361Y0155055D03*
X0164322Y0155291D03*
X0164322Y0155528D03*
X0164322Y0157181D03*
X0169046Y0156000D03*
X0169282Y0157181D03*
X0169282Y0157417D03*
X0176369Y0158835D03*
X0176369Y0159071D03*
D509*
X0169518Y0158598D03*
X0164085Y0154110D03*
D510*
X0162904Y0155764D03*
X0163140Y0156945D03*
X0165503Y0156945D03*
X0165503Y0155764D03*
X0168101Y0155291D03*
X0174951Y0158598D03*
X0177786Y0158598D03*
X0177786Y0157417D03*
X0177550Y0157181D03*
D511*
X0169400Y0158362D03*
D512*
X0168928Y0155764D03*
X0169164Y0155055D03*
X0164440Y0155055D03*
X0164440Y0153402D03*
X0164440Y0157417D03*
X0164440Y0157654D03*
X0159479Y0157654D03*
X0153573Y0157654D03*
X0153573Y0157417D03*
X0153573Y0157181D03*
X0153573Y0156945D03*
X0153573Y0156709D03*
X0159479Y0154819D03*
X0176251Y0155528D03*
D513*
X0176487Y0155291D03*
X0176487Y0154110D03*
X0169164Y0156236D03*
X0169164Y0156472D03*
X0159243Y0156945D03*
X0159243Y0155528D03*
X0154046Y0154110D03*
X0153810Y0155528D03*
D514*
X0164203Y0152457D03*
X0169636Y0154110D03*
X0175778Y0155764D03*
X0176723Y0156472D03*
D515*
X0176369Y0156236D03*
X0176133Y0156000D03*
D516*
X0170581Y0155291D03*
D517*
X0169518Y0154346D03*
D518*
X0169518Y0153874D03*
X0163140Y0153638D03*
M02*
