*
*
G04 PADS 9.5 Build Number: 522968 generated Gerber (RS-274-X) file*
G04 PC Version=2.1*
*
%IN "RADXA_VER3-141022-ok.pc"*%
*
%MOIN*%
*
%FSLAX35Y35*%
*
*
*
*
G04 PC Standard Apertures*
*
*
G04 Thermal Relief Aperture macro.*
%AMTER*
1,1,$1,0,0*
1,0,$1-$2,0,0*
21,0,$3,$4,0,0,45*
21,0,$3,$4,0,0,135*
%
*
*
G04 Annular Aperture macro.*
%AMANN*
1,1,$1,0,0*
1,0,$2,0,0*
%
*
*
G04 Odd Aperture macro.*
%AMODD*
1,1,$1,0,0*
1,0,$1-0.005,0,0*
%
*
*
G04 PC Custom Aperture Macros*
*
*
*
*
*
*
G04 PC Aperture Table*
*
%ADD010C,0.001*%
%ADD012C,0.05118*%
%ADD013C,0.04724*%
%ADD016C,0.0315*%
%ADD018O,0.03937X0.03937*%
%ADD019C,0.03937*%
%ADD020R,0.02008X0.02008*%
%ADD022R,0.03X0.03*%
%ADD023R,0.04X0.04*%
%ADD024R,0.05512X0.07008*%
%ADD025R,0.07008X0.05512*%
%ADD026R,0.03583X0.04803*%
%ADD027R,0.04803X0.03583*%
%ADD030R,0.04X0.05*%
%ADD031R,0.05X0.04*%
%ADD032R,0.02756X0.03543*%
%ADD033R,0.03543X0.02756*%
%ADD034C,0.05118*%
%ADD035R,0.09055X0.05512*%
%ADD036R,0.08268X0.05118*%
%ADD037C,0.065*%
%ADD038C,0.1*%
%ADD039O,0.05X0.05*%
%ADD040C,0.07874*%
%ADD041O,0.07874X0.07874*%
%ADD042R,0.05512X0.03937*%
%ADD044R,0.06299X0.06299*%
%ADD045C,0.06299*%
%ADD046O,0.06299X0.06299*%
%ADD048C,0.0748*%
%ADD049O,0.0748X0.0748*%
%ADD050O,0.12992X0.12992*%
%ADD052C,0.05906*%
%ADD060O,0.04724X0.07087*%
%ADD061C,0.07087*%
%ADD063R,0.08819X0.16929*%
%ADD073R,0.06299X0.06299*%
%ADD074O,0.06299X0.06299*%
%ADD083O,0.05906X0.14173*%
%ADD084O,0.05906X0.09843*%
%ADD087C,0.039*%
%ADD088R,0.16142X0.03543*%
%ADD089R,0.03543X0.16142*%
%ADD092C,0.03*%
%ADD104C,0.006*%
%ADD116R,0.07087X0.03937*%
%ADD117R,0.04724X0.05906*%
%ADD118R,0.055X0.053*%
%ADD119C,0.07874*%
%ADD121R,0.03937X0.05512*%
%ADD122R,0.02559X0.04173*%
%ADD123R,0.04173X0.02559*%
%ADD125R,0.01102X0.05906*%
%ADD126O,0.06299X0.11811*%
%ADD127R,0.02362X0.08661*%
%ADD128O,0.05906X0.01575*%
%ADD129O,0.01575X0.05906*%
%ADD130R,0.07323X0.10236*%
%ADD131R,0.01181X0.05906*%
%ADD132C,0.01772*%
%ADD134R,0.05709X0.04528*%
%ADD135R,0.05906X0.01181*%
%ADD136R,0.10236X0.07323*%
%ADD149R,0.15748X0.05906*%
%ADD152R,0.01969X0.03543*%
%ADD154R,0.07874X0.07874*%
%ADD156R,0.02756X0.02362*%
%ADD157R,0.053X0.055*%
%ADD158R,0.07087X0.07087*%
%ADD159R,0.02362X0.02756*%
%ADD160R,0.074X0.102*%
*
*
*
*
G04 PC Copper Outlines (0)*
G04 Layer Name RADXA_VER3-141022-ok.pc - dark (0)*
%LPD*%
*
*
G04 PC Area=_PSI_PAC_HOLE-3.5MM_000_0005036_*
G75*
G36*
G01*
X2743979Y2402401D02*
G03*
X2743979I-0J12599D01*
G37*
G74*
*
*
G04 PC Copper Outlines (1)*
G04 Layer Name RADXA_VER3-141022-ok.pc - dark (1)*
%LPD*%
*
*
G04 PC Area=_PSI_PAC_HOLE-3.5MM_000_0005036_*
G75*
G36*
G01*
X2743979Y2692402D02*
G03*
X2743979I-0J12598D01*
G37*
G74*
*
*
G04 PC Copper Outlines (2)*
G04 Layer Name RADXA_VER3-141022-ok.pc - dark (2)*
%LPD*%
*
*
G04 PC Area=_PSI_PAC_HOLE-3.5MM_000_0005036_*
G75*
G36*
G01*
X2375379Y2692202D02*
G03*
X2375379I-0J12598D01*
G37*
G74*
*
*
G04 PC Copper Outlines (3)*
G04 Layer Name RADXA_VER3-141022-ok.pc - dark (3)*
%LPD*%
*
*
G04 PC Area=_PSI_PAC_HOLE-3.5MM_000_0005036_*
G75*
G36*
G01*
X2375379Y2402402D02*
G03*
X2375379I-0J12598D01*
G37*
G74*
*
*
G04 PC Copper Outlines (4)*
G04 Layer Name RADXA_VER3-141022-ok.pc - dark (4)*
%LPD*%
*
*
G04 PC Area=DRW41147417*
G75*
G36*
G01*
X2667120Y2595587D02*
X2656720D01*
Y2582987D01*
X2667120D01*
Y2595587D01*
G37*
G74*
*
*
G04 PC Copper Outlines (5)*
G04 Layer Name RADXA_VER3-141022-ok.pc - dark (5)*
%LPD*%
*
*
G04 PC Area=DRW27750713*
G75*
G36*
G01*
X2686320Y2634187D02*
X2682520D01*
Y2622187D01*
X2686320D01*
Y2634187D01*
G37*
G74*
*
*
G04 PC Copper Outlines (6)*
G04 Layer Name RADXA_VER3-141022-ok.pc - dark (6)*
%LPD*%
*
*
G04 PC Area=DRW85913337*
G75*
G36*
G01*
X2571920Y2526787D02*
X2560520D01*
Y2522187D01*
X2556920D01*
Y2517587D01*
X2563520D01*
Y2515187D01*
X2571920D01*
Y2526787D01*
G37*
G74*
*
*
G04 PC Copper Outlines (7)*
G04 Layer Name RADXA_VER3-141022-ok.pc - dark (7)*
%LPD*%
*
*
G04 PC Area=DRW18089856*
G75*
G36*
G01*
X2421920Y2438187D02*
X2403120D01*
Y2418387D01*
X2421920D01*
Y2438187D01*
G37*
G74*
*
*
G04 PC Copper Outlines (8)*
G04 Layer Name RADXA_VER3-141022-ok.pc - dark (8)*
%LPD*%
*
*
G04 PC Area=CFC2*
G75*
G36*
G01*
X2754720Y2688287D02*
X2754633Y2689165D01*
X2754377Y2690009D01*
X2753961Y2690787D01*
X2753402Y2691469D01*
X2752720Y2692028D01*
X2751942Y2692444D01*
X2751098Y2692700D01*
X2750220Y2692787D01*
X2749342Y2692700D01*
X2748498Y2692444D01*
X2747720Y2692028D01*
X2747038Y2691469D01*
X2746478Y2690787D01*
X2746062Y2690009D01*
X2745806Y2689165D01*
X2745720Y2688287D01*
X2745806Y2687409D01*
X2746062Y2686565D01*
X2746478Y2685787D01*
X2747038Y2685105D01*
X2747720Y2684545D01*
X2748498Y2684129D01*
X2749342Y2683873D01*
X2750220Y2683787D01*
X2751098Y2683873D01*
X2751942Y2684129D01*
X2752720Y2684545D01*
X2753402Y2685105D01*
X2753961Y2685787D01*
X2754377Y2686565D01*
X2754633Y2687409D01*
X2754720Y2688287D01*
G37*
G74*
*
*
G04 PC Copper Outlines (9)*
G04 Layer Name RADXA_VER3-141022-ok.pc - dark (9)*
%LPD*%
*
*
G04 PC Area=CFC3*
G75*
G36*
G01*
X2393120Y2455087D02*
X2393033Y2455965D01*
X2392777Y2456809D01*
X2392361Y2457587D01*
X2391802Y2458269D01*
X2391120Y2458828D01*
X2390342Y2459244D01*
X2389498Y2459500D01*
X2388620Y2459587D01*
X2387742Y2459500D01*
X2386898Y2459244D01*
X2386120Y2458828D01*
X2385438Y2458269D01*
X2384878Y2457587D01*
X2384462Y2456809D01*
X2384206Y2455965D01*
X2384120Y2455087D01*
X2384206Y2454209D01*
X2384462Y2453365D01*
X2384878Y2452587D01*
X2385438Y2451905D01*
X2386120Y2451345D01*
X2386898Y2450929D01*
X2387742Y2450673D01*
X2388620Y2450587D01*
X2389498Y2450673D01*
X2390342Y2450929D01*
X2391120Y2451345D01*
X2391802Y2451905D01*
X2392361Y2452587D01*
X2392777Y2453365D01*
X2393033Y2454209D01*
X2393120Y2455087D01*
G37*
G74*
*
*
G04 PC Copper Outlines (10)*
G04 Layer Name RADXA_VER3-141022-ok.pc - dark (10)*
%LPD*%
*
*
G04 PC Area=Custom_Thermal*
*
G04 PC Custom Flashes*
G04 Layer Name RADXA_VER3-141022-ok.pc - flashes*
%LPD*%
*
*
G04 PC Circuitry*
G04 Layer Name RADXA_VER3-141022-ok.pc - circuitry*
%LPD*%
*
G54D10*
G01X2468997Y2424929D02*
X2464372Y2424924D01*
X2464375Y2422662*
X2468999Y2422666*
X2468997Y2424929*
X2464375Y2422662D02*
X2464375D01*
Y2422762D02*
X2468999D01*
X2464374Y2422862D02*
X2468999D01*
X2464374Y2422962D02*
X2468999D01*
X2464374Y2423062D02*
X2468999D01*
X2464374Y2423162D02*
X2468999D01*
X2464374Y2423262D02*
X2468998D01*
X2464374Y2423362D02*
X2468998D01*
X2464374Y2423462D02*
X2468998D01*
X2464374Y2423562D02*
X2468998D01*
X2464374Y2423662D02*
X2468998D01*
X2464374Y2423762D02*
X2468998D01*
X2464373Y2423862D02*
X2468998D01*
X2464373Y2423962D02*
X2468998D01*
X2464373Y2424062D02*
X2468998D01*
X2464373Y2424162D02*
X2468998D01*
X2464373Y2424262D02*
X2468997D01*
X2464373Y2424362D02*
X2468997D01*
X2464373Y2424462D02*
X2468997D01*
X2464373Y2424562D02*
X2468997D01*
X2464373Y2424662D02*
X2468997D01*
X2464373Y2424762D02*
X2468997D01*
X2464372Y2424862D02*
X2468997D01*
X2464372Y2424924D02*
X2464372D01*
X2464472Y2422662D02*
Y2424924D01*
X2464572Y2422662D02*
Y2424924D01*
X2464672Y2422662D02*
Y2424924D01*
X2464772Y2422662D02*
Y2424924D01*
X2464872Y2422662D02*
Y2424924D01*
X2464972Y2422662D02*
Y2424925D01*
X2465072Y2422662D02*
Y2424925D01*
X2465172Y2422663D02*
Y2424925D01*
X2465272Y2422663D02*
Y2424925D01*
X2465372Y2422663D02*
Y2424925D01*
X2465472Y2422663D02*
Y2424925D01*
X2465572Y2422663D02*
Y2424925D01*
X2465672Y2422663D02*
Y2424925D01*
X2465772Y2422663D02*
Y2424925D01*
X2465872Y2422663D02*
Y2424925D01*
X2465972Y2422663D02*
Y2424926D01*
X2466072Y2422663D02*
Y2424926D01*
X2466172Y2422664D02*
Y2424926D01*
X2466272Y2422664D02*
Y2424926D01*
X2466372Y2422664D02*
Y2424926D01*
X2466472Y2422664D02*
Y2424926D01*
X2466572Y2422664D02*
Y2424926D01*
X2466672Y2422664D02*
Y2424926D01*
X2466772Y2422664D02*
Y2424926D01*
X2466872Y2422664D02*
Y2424926D01*
X2466972Y2422664D02*
Y2424927D01*
X2467072Y2422664D02*
Y2424927D01*
X2467172Y2422665D02*
Y2424927D01*
X2467272Y2422665D02*
Y2424927D01*
X2467372Y2422665D02*
Y2424927D01*
X2467472Y2422665D02*
Y2424927D01*
X2467572Y2422665D02*
Y2424927D01*
X2467672Y2422665D02*
Y2424927D01*
X2467772Y2422665D02*
Y2424927D01*
X2467872Y2422665D02*
Y2424927D01*
X2467972Y2422665D02*
Y2424928D01*
X2468072Y2422665D02*
Y2424928D01*
X2468172Y2422666D02*
Y2424928D01*
X2468272Y2422666D02*
Y2424928D01*
X2468372Y2422666D02*
Y2424928D01*
X2468472Y2422666D02*
Y2424928D01*
X2468572Y2422666D02*
Y2424928D01*
X2468672Y2422666D02*
Y2424928D01*
X2468772Y2422666D02*
Y2424928D01*
X2468872Y2422666D02*
Y2424928D01*
X2468972Y2422666D02*
Y2424929D01*
X2468997Y2421386D02*
X2464372Y2421381D01*
X2464375Y2419119*
X2468999Y2419123*
X2468997Y2421386*
X2464375Y2419119D02*
X2464375D01*
Y2419219D02*
X2468999D01*
X2464374Y2419319D02*
X2468999D01*
X2464374Y2419419D02*
X2468999D01*
X2464374Y2419519D02*
X2468999D01*
X2464374Y2419619D02*
X2468999D01*
X2464374Y2419719D02*
X2468998D01*
X2464374Y2419819D02*
X2468998D01*
X2464374Y2419919D02*
X2468998D01*
X2464374Y2420019D02*
X2468998D01*
X2464374Y2420119D02*
X2468998D01*
X2464374Y2420219D02*
X2468998D01*
X2464373Y2420319D02*
X2468998D01*
X2464373Y2420419D02*
X2468998D01*
X2464373Y2420519D02*
X2468998D01*
X2464373Y2420619D02*
X2468998D01*
X2464373Y2420719D02*
X2468997D01*
X2464373Y2420819D02*
X2468997D01*
X2464373Y2420919D02*
X2468997D01*
X2464373Y2421019D02*
X2468997D01*
X2464373Y2421119D02*
X2468997D01*
X2464373Y2421219D02*
X2468997D01*
X2464372Y2421319D02*
X2468997D01*
X2464372Y2421381D02*
X2464372D01*
X2464472Y2419119D02*
Y2421381D01*
X2464572Y2419119D02*
Y2421381D01*
X2464672Y2419119D02*
Y2421381D01*
X2464772Y2419119D02*
Y2421381D01*
X2464872Y2419119D02*
Y2421381D01*
X2464972Y2419119D02*
Y2421382D01*
X2465072Y2419119D02*
Y2421382D01*
X2465172Y2419120D02*
Y2421382D01*
X2465272Y2419120D02*
Y2421382D01*
X2465372Y2419120D02*
Y2421382D01*
X2465472Y2419120D02*
Y2421382D01*
X2465572Y2419120D02*
Y2421382D01*
X2465672Y2419120D02*
Y2421382D01*
X2465772Y2419120D02*
Y2421382D01*
X2465872Y2419120D02*
Y2421382D01*
X2465972Y2419120D02*
Y2421383D01*
X2466072Y2419120D02*
Y2421383D01*
X2466172Y2419121D02*
Y2421383D01*
X2466272Y2419121D02*
Y2421383D01*
X2466372Y2419121D02*
Y2421383D01*
X2466472Y2419121D02*
Y2421383D01*
X2466572Y2419121D02*
Y2421383D01*
X2466672Y2419121D02*
Y2421383D01*
X2466772Y2419121D02*
Y2421383D01*
X2466872Y2419121D02*
Y2421383D01*
X2466972Y2419121D02*
Y2421384D01*
X2467072Y2419121D02*
Y2421384D01*
X2467172Y2419122D02*
Y2421384D01*
X2467272Y2419122D02*
Y2421384D01*
X2467372Y2419122D02*
Y2421384D01*
X2467472Y2419122D02*
Y2421384D01*
X2467572Y2419122D02*
Y2421384D01*
X2467672Y2419122D02*
Y2421384D01*
X2467772Y2419122D02*
Y2421384D01*
X2467872Y2419122D02*
Y2421384D01*
X2467972Y2419122D02*
Y2421385D01*
X2468072Y2419122D02*
Y2421385D01*
X2468172Y2419123D02*
Y2421385D01*
X2468272Y2419123D02*
Y2421385D01*
X2468372Y2419123D02*
Y2421385D01*
X2468472Y2419123D02*
Y2421385D01*
X2468572Y2419123D02*
Y2421385D01*
X2468672Y2419123D02*
Y2421385D01*
X2468772Y2419123D02*
Y2421385D01*
X2468872Y2419123D02*
Y2421385D01*
X2468972Y2419123D02*
Y2421386D01*
X2396698Y2503313D02*
X2398960D01*
Y2504788*
X2396697Y2504787*
X2396698Y2503313*
X2396698*
Y2503413D02*
X2398960D01*
X2396698Y2503513D02*
X2398960D01*
X2396698Y2503613D02*
X2398960D01*
X2396698Y2503713D02*
X2398960D01*
X2396698Y2503813D02*
X2398960D01*
X2396698Y2503913D02*
X2398960D01*
X2396698Y2504013D02*
X2398960D01*
X2396698Y2504113D02*
X2398960D01*
X2396698Y2504213D02*
X2398960D01*
X2396698Y2504313D02*
X2398960D01*
X2396698Y2504413D02*
X2398960D01*
X2396698Y2504513D02*
X2398960D01*
X2396698Y2504613D02*
X2398960D01*
X2396698Y2504713D02*
X2398960D01*
X2396697Y2504787D02*
X2396697D01*
X2396797Y2503313D02*
Y2504787D01*
X2396897Y2503313D02*
Y2504787D01*
X2396997Y2503313D02*
Y2504787D01*
X2397097Y2503313D02*
Y2504787D01*
X2397197Y2503313D02*
Y2504787D01*
X2397297Y2503313D02*
Y2504788D01*
X2397397Y2503313D02*
Y2504788D01*
X2397497Y2503313D02*
Y2504788D01*
X2397597Y2503313D02*
Y2504788D01*
X2397697Y2503313D02*
Y2504788D01*
X2397797Y2503313D02*
Y2504788D01*
X2397897Y2503313D02*
Y2504788D01*
X2397997Y2503313D02*
Y2504788D01*
X2398097Y2503313D02*
Y2504788D01*
X2398197Y2503313D02*
Y2504788D01*
X2398297Y2503313D02*
Y2504788D01*
X2398397Y2503313D02*
Y2504788D01*
X2398497Y2503313D02*
Y2504788D01*
X2398597Y2503313D02*
Y2504788D01*
X2398697Y2503313D02*
Y2504788D01*
X2398797Y2503313D02*
Y2504788D01*
X2398897Y2503313D02*
Y2504788D01*
X2400639Y2503307D02*
X2402901Y2503319D01*
X2402893Y2504794*
X2400631Y2504781*
X2400639Y2503307*
X2400639*
X2400638Y2503407D02*
X2402900D01*
X2400638Y2503507D02*
X2402900D01*
X2400637Y2503607D02*
X2402899D01*
X2400636Y2503707D02*
X2402899D01*
X2400636Y2503807D02*
X2402898D01*
X2400635Y2503907D02*
X2402898D01*
X2400635Y2504007D02*
X2402897D01*
X2400634Y2504107D02*
X2402897D01*
X2400634Y2504207D02*
X2402896D01*
X2400633Y2504307D02*
X2402895D01*
X2400633Y2504407D02*
X2402895D01*
X2400632Y2504507D02*
X2402894D01*
X2400632Y2504607D02*
X2402894D01*
X2400631Y2504707D02*
X2402893D01*
X2400631Y2504781D02*
X2400631D01*
X2400731Y2503307D02*
Y2504782D01*
X2400831Y2503308D02*
Y2504782D01*
X2400931Y2503308D02*
Y2504783D01*
X2401031Y2503309D02*
Y2504784D01*
X2401131Y2503309D02*
Y2504784D01*
X2401231Y2503310D02*
Y2504785D01*
X2401331Y2503310D02*
Y2504785D01*
X2401431Y2503311D02*
Y2504786D01*
X2401531Y2503311D02*
Y2504786D01*
X2401631Y2503312D02*
Y2504787D01*
X2401731Y2503313D02*
Y2504787D01*
X2401831Y2503313D02*
Y2504788D01*
X2401931Y2503314D02*
Y2504789D01*
X2402031Y2503314D02*
Y2504789D01*
X2402131Y2503315D02*
Y2504790D01*
X2402231Y2503315D02*
Y2504790D01*
X2402331Y2503316D02*
Y2504791D01*
X2402431Y2503316D02*
Y2504791D01*
X2402531Y2503317D02*
Y2504792D01*
X2402631Y2503318D02*
Y2504792D01*
X2402731Y2503318D02*
Y2504793D01*
X2402831Y2503319D02*
Y2504793D01*
X2561091Y2452681D02*
X2561092Y2450419D01*
X2562566*
Y2452681*
X2561091*
X2561092Y2450419D02*
X2561092D01*
Y2450519D02*
X2562566D01*
X2561091Y2450619D02*
X2562566D01*
X2561091Y2450719D02*
X2562566D01*
X2561091Y2450819D02*
X2562566D01*
X2561091Y2450919D02*
X2562566D01*
X2561091Y2451019D02*
X2562566D01*
X2561091Y2451119D02*
X2562566D01*
X2561091Y2451219D02*
X2562566D01*
X2561091Y2451319D02*
X2562566D01*
X2561091Y2451419D02*
X2562566D01*
X2561091Y2451519D02*
X2562566D01*
X2561091Y2451619D02*
X2562566D01*
X2561091Y2451719D02*
X2562566D01*
X2561091Y2451819D02*
X2562566D01*
X2561091Y2451919D02*
X2562566D01*
X2561091Y2452019D02*
X2562566D01*
X2561091Y2452119D02*
X2562566D01*
X2561091Y2452219D02*
X2562566D01*
X2561091Y2452319D02*
X2562566D01*
X2561091Y2452419D02*
X2562566D01*
X2561091Y2452519D02*
X2562566D01*
X2561091Y2452619D02*
X2562566D01*
X2561091Y2452681D02*
X2561091D01*
X2561191Y2450419D02*
Y2452681D01*
X2561291Y2450419D02*
Y2452681D01*
X2561391Y2450419D02*
Y2452681D01*
X2561491Y2450419D02*
Y2452681D01*
X2561591Y2450419D02*
Y2452681D01*
X2561691Y2450419D02*
Y2452681D01*
X2561791Y2450419D02*
Y2452681D01*
X2561891Y2450419D02*
Y2452681D01*
X2561991Y2450419D02*
Y2452681D01*
X2562091Y2450419D02*
Y2452681D01*
X2562191Y2450419D02*
Y2452681D01*
X2562291Y2450419D02*
Y2452681D01*
X2562391Y2450419D02*
Y2452681D01*
X2562491Y2450419D02*
Y2452681D01*
X2561085Y2448740D02*
X2561098Y2446478D01*
X2562572Y2446486*
X2562560Y2448748*
X2561085Y2448740*
X2561098Y2446478D02*
X2561098D01*
X2561097Y2446578D02*
X2562572D01*
X2561096Y2446678D02*
X2562571D01*
X2561096Y2446778D02*
X2562571D01*
X2561095Y2446878D02*
X2562570D01*
X2561095Y2446978D02*
X2562570D01*
X2561094Y2447078D02*
X2562569D01*
X2561094Y2447178D02*
X2562569D01*
X2561093Y2447278D02*
X2562568D01*
X2561093Y2447378D02*
X2562567D01*
X2561092Y2447478D02*
X2562567D01*
X2561092Y2447578D02*
X2562566D01*
X2561091Y2447678D02*
X2562566D01*
X2561090Y2447778D02*
X2562565D01*
X2561090Y2447878D02*
X2562565D01*
X2561089Y2447978D02*
X2562564D01*
X2561089Y2448078D02*
X2562564D01*
X2561088Y2448178D02*
X2562563D01*
X2561088Y2448278D02*
X2562563D01*
X2561087Y2448378D02*
X2562562D01*
X2561087Y2448478D02*
X2562561D01*
X2561086Y2448578D02*
X2562561D01*
X2561085Y2448678D02*
X2562560D01*
X2561085Y2448740D02*
X2561085D01*
X2561185Y2446479D02*
Y2448741D01*
X2561285Y2446479D02*
Y2448741D01*
X2561385Y2446480D02*
Y2448742D01*
X2561485Y2446480D02*
Y2448742D01*
X2561585Y2446481D02*
Y2448743D01*
X2561685Y2446481D02*
Y2448744D01*
X2561785Y2446482D02*
Y2448744D01*
X2561885Y2446482D02*
Y2448745D01*
X2561985Y2446483D02*
Y2448745D01*
X2562085Y2446483D02*
Y2448746D01*
X2562185Y2446484D02*
Y2448746D01*
X2562285Y2446485D02*
Y2448747D01*
X2562385Y2446485D02*
Y2448747D01*
X2562485Y2446486D02*
Y2448748D01*
X2667098Y2697713D02*
X2669360D01*
Y2699188*
X2667097Y2699187*
X2667098Y2697713*
Y2697787D02*
X2669360D01*
X2667098Y2697887D02*
X2669360D01*
X2667098Y2697987D02*
X2669360D01*
X2667098Y2698087D02*
X2669360D01*
X2667098Y2698187D02*
X2669360D01*
X2667098Y2698287D02*
X2669360D01*
X2667098Y2698387D02*
X2669360D01*
X2667098Y2698487D02*
X2669360D01*
X2667098Y2698587D02*
X2669360D01*
X2667098Y2698687D02*
X2669360D01*
X2667098Y2698787D02*
X2669360D01*
X2667098Y2698887D02*
X2669360D01*
X2667098Y2698987D02*
X2669360D01*
X2667098Y2699087D02*
X2669360D01*
X2667097Y2699187D02*
X2669360D01*
X2667120Y2697713D02*
Y2699187D01*
X2667220Y2697713D02*
Y2699187D01*
X2667320Y2697713D02*
Y2699187D01*
X2667420Y2697713D02*
Y2699187D01*
X2667520Y2697713D02*
Y2699187D01*
X2667620Y2697713D02*
Y2699188D01*
X2667720Y2697713D02*
Y2699188D01*
X2667820Y2697713D02*
Y2699188D01*
X2667920Y2697713D02*
Y2699188D01*
X2668020Y2697713D02*
Y2699188D01*
X2668120Y2697713D02*
Y2699188D01*
X2668220Y2697713D02*
Y2699188D01*
X2668320Y2697713D02*
Y2699188D01*
X2668420Y2697713D02*
Y2699188D01*
X2668520Y2697713D02*
Y2699188D01*
X2668620Y2697713D02*
Y2699188D01*
X2668720Y2697713D02*
Y2699188D01*
X2668820Y2697713D02*
Y2699188D01*
X2668920Y2697713D02*
Y2699188D01*
X2669020Y2697713D02*
Y2699188D01*
X2669120Y2697713D02*
Y2699188D01*
X2669220Y2697713D02*
Y2699188D01*
X2669320Y2697713D02*
Y2699188D01*
X2671039Y2697707D02*
X2673301Y2697719D01*
X2673293Y2699194*
X2671031Y2699181*
X2671039Y2697707*
X2671038Y2697787D02*
X2673301D01*
X2671038Y2697887D02*
X2673300D01*
X2671037Y2697987D02*
X2673299D01*
X2671037Y2698087D02*
X2673299D01*
X2671036Y2698187D02*
X2673298D01*
X2671035Y2698287D02*
X2673298D01*
X2671035Y2698387D02*
X2673297D01*
X2671034Y2698487D02*
X2673297D01*
X2671034Y2698587D02*
X2673296D01*
X2671033Y2698687D02*
X2673296D01*
X2671033Y2698787D02*
X2673295D01*
X2671032Y2698887D02*
X2673294D01*
X2671032Y2698987D02*
X2673294D01*
X2671031Y2699087D02*
X2673293D01*
X2672018Y2699187D02*
X2673293D01*
X2671120Y2697707D02*
Y2699182D01*
X2671220Y2697708D02*
Y2699182D01*
X2671320Y2697708D02*
Y2699183D01*
X2671420Y2697709D02*
Y2699184D01*
X2671520Y2697709D02*
Y2699184D01*
X2671620Y2697710D02*
Y2699185D01*
X2671720Y2697710D02*
Y2699185D01*
X2671820Y2697711D02*
Y2699186D01*
X2671920Y2697711D02*
Y2699186D01*
X2672020Y2697712D02*
Y2699187D01*
X2672120Y2697713D02*
Y2699187D01*
X2672220Y2697713D02*
Y2699188D01*
X2672320Y2697714D02*
Y2699188D01*
X2672420Y2697714D02*
Y2699189D01*
X2672520Y2697715D02*
Y2699190D01*
X2672620Y2697715D02*
Y2699190D01*
X2672720Y2697716D02*
Y2699191D01*
X2672820Y2697716D02*
Y2699191D01*
X2672920Y2697717D02*
Y2699192D01*
X2673020Y2697717D02*
Y2699192D01*
X2673120Y2697718D02*
Y2699193D01*
X2673220Y2697719D02*
Y2699193D01*
X2683260Y2699088D02*
X2680997Y2699087D01*
X2680998Y2697613*
X2683260*
Y2699088*
X2680998Y2697687D02*
X2683260D01*
X2680998Y2697787D02*
X2683260D01*
X2680998Y2697887D02*
X2683260D01*
X2680998Y2697987D02*
X2683260D01*
X2680998Y2698087D02*
X2683260D01*
X2680998Y2698187D02*
X2683260D01*
X2680998Y2698287D02*
X2683260D01*
X2680998Y2698387D02*
X2683260D01*
X2680998Y2698487D02*
X2683260D01*
X2680998Y2698587D02*
X2683260D01*
X2680998Y2698687D02*
X2683260D01*
X2680998Y2698787D02*
X2683260D01*
X2680998Y2698887D02*
X2683260D01*
X2680998Y2698987D02*
X2683260D01*
X2680997Y2699087D02*
X2683260D01*
X2681020Y2697613D02*
Y2699087D01*
X2681120Y2697613D02*
Y2699087D01*
X2681220Y2697613D02*
Y2699087D01*
X2681320Y2697613D02*
Y2699087D01*
X2681420Y2697613D02*
Y2699087D01*
X2681520Y2697613D02*
Y2699088D01*
X2681620Y2697613D02*
Y2699088D01*
X2681720Y2697613D02*
Y2699088D01*
X2681820Y2697613D02*
Y2699088D01*
X2681920Y2697613D02*
Y2699088D01*
X2682020Y2697613D02*
Y2699088D01*
X2682120Y2697613D02*
Y2699088D01*
X2682220Y2697613D02*
Y2699088D01*
X2682320Y2697613D02*
Y2699088D01*
X2682420Y2697613D02*
Y2699088D01*
X2682520Y2697613D02*
Y2699088D01*
X2682620Y2697613D02*
Y2699088D01*
X2682720Y2697613D02*
Y2699088D01*
X2682820Y2697613D02*
Y2699088D01*
X2682920Y2697613D02*
Y2699088D01*
X2683020Y2697613D02*
Y2699088D01*
X2683120Y2697613D02*
Y2699088D01*
X2683220Y2697613D02*
Y2699088D01*
X2679319Y2699094D02*
X2677057Y2699081D01*
X2677065Y2697607*
X2679327Y2697619*
X2679319Y2699094*
X2677064Y2697687D02*
X2679327D01*
X2677064Y2697787D02*
X2679326D01*
X2677063Y2697887D02*
X2679325D01*
X2677063Y2697987D02*
X2679325D01*
X2677062Y2698087D02*
X2679324D01*
X2677062Y2698187D02*
X2679324D01*
X2677061Y2698287D02*
X2679323D01*
X2677060Y2698387D02*
X2679323D01*
X2677060Y2698487D02*
X2679322D01*
X2677059Y2698587D02*
X2679322D01*
X2677059Y2698687D02*
X2679321D01*
X2677058Y2698787D02*
X2679320D01*
X2677058Y2698887D02*
X2679320D01*
X2677057Y2698987D02*
X2679319D01*
X2678044Y2699087D02*
X2679319D01*
X2677120Y2697607D02*
Y2699082D01*
X2677220Y2697607D02*
Y2699082D01*
X2677320Y2697608D02*
Y2699083D01*
X2677420Y2697609D02*
Y2699083D01*
X2677520Y2697609D02*
Y2699084D01*
X2677620Y2697610D02*
Y2699084D01*
X2677720Y2697610D02*
Y2699085D01*
X2677820Y2697611D02*
Y2699086D01*
X2677920Y2697611D02*
Y2699086D01*
X2678020Y2697612D02*
Y2699087D01*
X2678120Y2697612D02*
Y2699087D01*
X2678220Y2697613D02*
Y2699088D01*
X2678320Y2697613D02*
Y2699088D01*
X2678420Y2697614D02*
Y2699089D01*
X2678520Y2697615D02*
Y2699089D01*
X2678620Y2697615D02*
Y2699090D01*
X2678720Y2697616D02*
Y2699091D01*
X2678820Y2697616D02*
Y2699091D01*
X2678920Y2697617D02*
Y2699092D01*
X2679020Y2697617D02*
Y2699092D01*
X2679120Y2697618D02*
Y2699093D01*
X2679220Y2697618D02*
Y2699093D01*
X2679320Y2697619D02*
Y2698932D01*
X2395898Y2476913D02*
X2398160D01*
Y2478388*
X2395897Y2478387*
X2395898Y2476913*
X2395898*
Y2477013D02*
X2398160D01*
X2395898Y2477113D02*
X2398160D01*
X2395898Y2477213D02*
X2398160D01*
X2395898Y2477313D02*
X2398160D01*
X2395898Y2477413D02*
X2398160D01*
X2395898Y2477513D02*
X2398160D01*
X2395898Y2477613D02*
X2398160D01*
X2395898Y2477713D02*
X2398160D01*
X2395898Y2477813D02*
X2398160D01*
X2395898Y2477913D02*
X2398160D01*
X2395898Y2478013D02*
X2398160D01*
X2395898Y2478113D02*
X2398160D01*
X2395898Y2478213D02*
X2398160D01*
X2395898Y2478313D02*
X2398160D01*
X2395897Y2478387D02*
X2395897D01*
X2395997Y2476913D02*
Y2478387D01*
X2396097Y2476913D02*
Y2478387D01*
X2396197Y2476913D02*
Y2478387D01*
X2396297Y2476913D02*
Y2478387D01*
X2396397Y2476913D02*
Y2478387D01*
X2396497Y2476913D02*
Y2478388D01*
X2396597Y2476913D02*
Y2478388D01*
X2396697Y2476913D02*
Y2478388D01*
X2396797Y2476913D02*
Y2478388D01*
X2396897Y2476913D02*
Y2478388D01*
X2396997Y2476913D02*
Y2478388D01*
X2397097Y2476913D02*
Y2478388D01*
X2397197Y2476913D02*
Y2478388D01*
X2397297Y2476913D02*
Y2478388D01*
X2397397Y2476913D02*
Y2478388D01*
X2397497Y2476913D02*
Y2478388D01*
X2397597Y2476913D02*
Y2478388D01*
X2397697Y2476913D02*
Y2478388D01*
X2397797Y2476913D02*
Y2478388D01*
X2397897Y2476913D02*
Y2478388D01*
X2397997Y2476913D02*
Y2478388D01*
X2398097Y2476913D02*
Y2478388D01*
X2399839Y2476907D02*
X2402101Y2476919D01*
X2402093Y2478394*
X2399831Y2478381*
X2399839Y2476907*
X2399839*
X2399838Y2477007D02*
X2402100D01*
X2399838Y2477107D02*
X2402100D01*
X2399837Y2477207D02*
X2402099D01*
X2399836Y2477307D02*
X2402099D01*
X2399836Y2477407D02*
X2402098D01*
X2399835Y2477507D02*
X2402098D01*
X2399835Y2477607D02*
X2402097D01*
X2399834Y2477707D02*
X2402097D01*
X2399834Y2477807D02*
X2402096D01*
X2399833Y2477907D02*
X2402095D01*
X2399833Y2478007D02*
X2402095D01*
X2399832Y2478107D02*
X2402094D01*
X2399832Y2478207D02*
X2402094D01*
X2399831Y2478307D02*
X2402093D01*
X2399831Y2478381D02*
X2399831D01*
X2399931Y2476907D02*
Y2478382D01*
X2400031Y2476908D02*
Y2478382D01*
X2400131Y2476908D02*
Y2478383D01*
X2400231Y2476909D02*
Y2478384D01*
X2400331Y2476909D02*
Y2478384D01*
X2400431Y2476910D02*
Y2478385D01*
X2400531Y2476910D02*
Y2478385D01*
X2400631Y2476911D02*
Y2478386D01*
X2400731Y2476911D02*
Y2478386D01*
X2400831Y2476912D02*
Y2478387D01*
X2400931Y2476913D02*
Y2478387D01*
X2401031Y2476913D02*
Y2478388D01*
X2401131Y2476914D02*
Y2478389D01*
X2401231Y2476914D02*
Y2478389D01*
X2401331Y2476915D02*
Y2478390D01*
X2401431Y2476915D02*
Y2478390D01*
X2401531Y2476916D02*
Y2478391D01*
X2401631Y2476916D02*
Y2478391D01*
X2401731Y2476917D02*
Y2478392D01*
X2401831Y2476918D02*
Y2478392D01*
X2401931Y2476918D02*
Y2478393D01*
X2402031Y2476919D02*
Y2478393D01*
X2396698Y2508913D02*
X2398960D01*
Y2510388*
X2396697Y2510387*
X2396698Y2508913*
X2396698*
Y2509013D02*
X2398960D01*
X2396698Y2509113D02*
X2398960D01*
X2396698Y2509213D02*
X2398960D01*
X2396698Y2509313D02*
X2398960D01*
X2396698Y2509413D02*
X2398960D01*
X2396698Y2509513D02*
X2398960D01*
X2396698Y2509613D02*
X2398960D01*
X2396698Y2509713D02*
X2398960D01*
X2396698Y2509813D02*
X2398960D01*
X2396698Y2509913D02*
X2398960D01*
X2396698Y2510013D02*
X2398960D01*
X2396698Y2510113D02*
X2398960D01*
X2396698Y2510213D02*
X2398960D01*
X2396698Y2510313D02*
X2398960D01*
X2396697Y2510387D02*
X2396697D01*
X2396797Y2508913D02*
Y2510387D01*
X2396897Y2508913D02*
Y2510387D01*
X2396997Y2508913D02*
Y2510387D01*
X2397097Y2508913D02*
Y2510387D01*
X2397197Y2508913D02*
Y2510387D01*
X2397297Y2508913D02*
Y2510388D01*
X2397397Y2508913D02*
Y2510388D01*
X2397497Y2508913D02*
Y2510388D01*
X2397597Y2508913D02*
Y2510388D01*
X2397697Y2508913D02*
Y2510388D01*
X2397797Y2508913D02*
Y2510388D01*
X2397897Y2508913D02*
Y2510388D01*
X2397997Y2508913D02*
Y2510388D01*
X2398097Y2508913D02*
Y2510388D01*
X2398197Y2508913D02*
Y2510388D01*
X2398297Y2508913D02*
Y2510388D01*
X2398397Y2508913D02*
Y2510388D01*
X2398497Y2508913D02*
Y2510388D01*
X2398597Y2508913D02*
Y2510388D01*
X2398697Y2508913D02*
Y2510388D01*
X2398797Y2508913D02*
Y2510388D01*
X2398897Y2508913D02*
Y2510388D01*
X2400639Y2508907D02*
X2402901Y2508919D01*
X2402893Y2510394*
X2400631Y2510381*
X2400639Y2508907*
X2400639*
X2400638Y2509007D02*
X2402900D01*
X2400638Y2509107D02*
X2402900D01*
X2400637Y2509207D02*
X2402899D01*
X2400636Y2509307D02*
X2402899D01*
X2400636Y2509407D02*
X2402898D01*
X2400635Y2509507D02*
X2402898D01*
X2400635Y2509607D02*
X2402897D01*
X2400634Y2509707D02*
X2402897D01*
X2400634Y2509807D02*
X2402896D01*
X2400633Y2509907D02*
X2402895D01*
X2400633Y2510007D02*
X2402895D01*
X2400632Y2510107D02*
X2402894D01*
X2400632Y2510207D02*
X2402894D01*
X2400631Y2510307D02*
X2402893D01*
X2400631Y2510381D02*
X2400631D01*
X2400731Y2508907D02*
Y2510382D01*
X2400831Y2508908D02*
Y2510382D01*
X2400931Y2508908D02*
Y2510383D01*
X2401031Y2508909D02*
Y2510384D01*
X2401131Y2508909D02*
Y2510384D01*
X2401231Y2508910D02*
Y2510385D01*
X2401331Y2508910D02*
Y2510385D01*
X2401431Y2508911D02*
Y2510386D01*
X2401531Y2508911D02*
Y2510386D01*
X2401631Y2508912D02*
Y2510387D01*
X2401731Y2508913D02*
Y2510387D01*
X2401831Y2508913D02*
Y2510388D01*
X2401931Y2508914D02*
Y2510389D01*
X2402031Y2508914D02*
Y2510389D01*
X2402131Y2508915D02*
Y2510390D01*
X2402231Y2508915D02*
Y2510390D01*
X2402331Y2508916D02*
Y2510391D01*
X2402431Y2508916D02*
Y2510391D01*
X2402531Y2508917D02*
Y2510392D01*
X2402631Y2508918D02*
Y2510392D01*
X2402731Y2508918D02*
Y2510393D01*
X2402831Y2508919D02*
Y2510393D01*
X2395898Y2483313D02*
X2398160D01*
Y2484788*
X2395897Y2484787*
X2395898Y2483313*
X2395898*
Y2483413D02*
X2398160D01*
X2395898Y2483513D02*
X2398160D01*
X2395898Y2483613D02*
X2398160D01*
X2395898Y2483713D02*
X2398160D01*
X2395898Y2483813D02*
X2398160D01*
X2395898Y2483913D02*
X2398160D01*
X2395898Y2484013D02*
X2398160D01*
X2395898Y2484113D02*
X2398160D01*
X2395898Y2484213D02*
X2398160D01*
X2395898Y2484313D02*
X2398160D01*
X2395898Y2484413D02*
X2398160D01*
X2395898Y2484513D02*
X2398160D01*
X2395898Y2484613D02*
X2398160D01*
X2395898Y2484713D02*
X2398160D01*
X2395897Y2484787D02*
X2395897D01*
X2395997Y2483313D02*
Y2484787D01*
X2396097Y2483313D02*
Y2484787D01*
X2396197Y2483313D02*
Y2484787D01*
X2396297Y2483313D02*
Y2484787D01*
X2396397Y2483313D02*
Y2484787D01*
X2396497Y2483313D02*
Y2484788D01*
X2396597Y2483313D02*
Y2484788D01*
X2396697Y2483313D02*
Y2484788D01*
X2396797Y2483313D02*
Y2484788D01*
X2396897Y2483313D02*
Y2484788D01*
X2396997Y2483313D02*
Y2484788D01*
X2397097Y2483313D02*
Y2484788D01*
X2397197Y2483313D02*
Y2484788D01*
X2397297Y2483313D02*
Y2484788D01*
X2397397Y2483313D02*
Y2484788D01*
X2397497Y2483313D02*
Y2484788D01*
X2397597Y2483313D02*
Y2484788D01*
X2397697Y2483313D02*
Y2484788D01*
X2397797Y2483313D02*
Y2484788D01*
X2397897Y2483313D02*
Y2484788D01*
X2397997Y2483313D02*
Y2484788D01*
X2398097Y2483313D02*
Y2484788D01*
X2399839Y2483307D02*
X2402101Y2483319D01*
X2402093Y2484794*
X2399831Y2484781*
X2399839Y2483307*
X2399839*
X2399838Y2483407D02*
X2402100D01*
X2399838Y2483507D02*
X2402100D01*
X2399837Y2483607D02*
X2402099D01*
X2399836Y2483707D02*
X2402099D01*
X2399836Y2483807D02*
X2402098D01*
X2399835Y2483907D02*
X2402098D01*
X2399835Y2484007D02*
X2402097D01*
X2399834Y2484107D02*
X2402097D01*
X2399834Y2484207D02*
X2402096D01*
X2399833Y2484307D02*
X2402095D01*
X2399833Y2484407D02*
X2402095D01*
X2399832Y2484507D02*
X2402094D01*
X2399832Y2484607D02*
X2402094D01*
X2399831Y2484707D02*
X2402093D01*
X2399831Y2484781D02*
X2399831D01*
X2399931Y2483307D02*
Y2484782D01*
X2400031Y2483308D02*
Y2484782D01*
X2400131Y2483308D02*
Y2484783D01*
X2400231Y2483309D02*
Y2484784D01*
X2400331Y2483309D02*
Y2484784D01*
X2400431Y2483310D02*
Y2484785D01*
X2400531Y2483310D02*
Y2484785D01*
X2400631Y2483311D02*
Y2484786D01*
X2400731Y2483311D02*
Y2484786D01*
X2400831Y2483312D02*
Y2484787D01*
X2400931Y2483313D02*
Y2484787D01*
X2401031Y2483313D02*
Y2484788D01*
X2401131Y2483314D02*
Y2484789D01*
X2401231Y2483314D02*
Y2484789D01*
X2401331Y2483315D02*
Y2484790D01*
X2401431Y2483315D02*
Y2484790D01*
X2401531Y2483316D02*
Y2484791D01*
X2401631Y2483316D02*
Y2484791D01*
X2401731Y2483317D02*
Y2484792D01*
X2401831Y2483318D02*
Y2484792D01*
X2401931Y2483318D02*
Y2484793D01*
X2402031Y2483319D02*
Y2484793D01*
X2396698Y2514513D02*
X2398960D01*
Y2515988*
X2396697Y2515987*
X2396698Y2514513*
X2396698*
Y2514613D02*
X2398960D01*
X2396698Y2514713D02*
X2398960D01*
X2396698Y2514813D02*
X2398960D01*
X2396698Y2514913D02*
X2398960D01*
X2396698Y2515013D02*
X2398960D01*
X2396698Y2515113D02*
X2398960D01*
X2396698Y2515213D02*
X2398960D01*
X2396698Y2515313D02*
X2398960D01*
X2396698Y2515413D02*
X2398960D01*
X2396698Y2515513D02*
X2398960D01*
X2396698Y2515613D02*
X2398960D01*
X2396698Y2515713D02*
X2398960D01*
X2396698Y2515813D02*
X2398960D01*
X2396698Y2515913D02*
X2398960D01*
X2396697Y2515987D02*
X2396697D01*
X2396797Y2514513D02*
Y2515987D01*
X2396897Y2514513D02*
Y2515987D01*
X2396997Y2514513D02*
Y2515987D01*
X2397097Y2514513D02*
Y2515987D01*
X2397197Y2514513D02*
Y2515987D01*
X2397297Y2514513D02*
Y2515988D01*
X2397397Y2514513D02*
Y2515988D01*
X2397497Y2514513D02*
Y2515988D01*
X2397597Y2514513D02*
Y2515988D01*
X2397697Y2514513D02*
Y2515988D01*
X2397797Y2514513D02*
Y2515988D01*
X2397897Y2514513D02*
Y2515988D01*
X2397997Y2514513D02*
Y2515988D01*
X2398097Y2514513D02*
Y2515988D01*
X2398197Y2514513D02*
Y2515988D01*
X2398297Y2514513D02*
Y2515988D01*
X2398397Y2514513D02*
Y2515988D01*
X2398497Y2514513D02*
Y2515988D01*
X2398597Y2514513D02*
Y2515988D01*
X2398697Y2514513D02*
Y2515988D01*
X2398797Y2514513D02*
Y2515988D01*
X2398897Y2514513D02*
Y2515988D01*
X2400639Y2514507D02*
X2402901Y2514519D01*
X2402893Y2515994*
X2400631Y2515981*
X2400639Y2514507*
X2400639*
X2400638Y2514607D02*
X2402900D01*
X2400638Y2514707D02*
X2402900D01*
X2400637Y2514807D02*
X2402899D01*
X2400636Y2514907D02*
X2402899D01*
X2400636Y2515007D02*
X2402898D01*
X2400635Y2515107D02*
X2402898D01*
X2400635Y2515207D02*
X2402897D01*
X2400634Y2515307D02*
X2402897D01*
X2400634Y2515407D02*
X2402896D01*
X2400633Y2515507D02*
X2402895D01*
X2400633Y2515607D02*
X2402895D01*
X2400632Y2515707D02*
X2402894D01*
X2400632Y2515807D02*
X2402894D01*
X2400631Y2515907D02*
X2402893D01*
X2400631Y2515981D02*
X2400631D01*
X2400731Y2514507D02*
Y2515982D01*
X2400831Y2514508D02*
Y2515982D01*
X2400931Y2514508D02*
Y2515983D01*
X2401031Y2514509D02*
Y2515984D01*
X2401131Y2514509D02*
Y2515984D01*
X2401231Y2514510D02*
Y2515985D01*
X2401331Y2514510D02*
Y2515985D01*
X2401431Y2514511D02*
Y2515986D01*
X2401531Y2514511D02*
Y2515986D01*
X2401631Y2514512D02*
Y2515987D01*
X2401731Y2514513D02*
Y2515987D01*
X2401831Y2514513D02*
Y2515988D01*
X2401931Y2514514D02*
Y2515989D01*
X2402031Y2514514D02*
Y2515989D01*
X2402131Y2514515D02*
Y2515990D01*
X2402231Y2514515D02*
Y2515990D01*
X2402331Y2514516D02*
Y2515991D01*
X2402431Y2514516D02*
Y2515991D01*
X2402531Y2514517D02*
Y2515992D01*
X2402631Y2514518D02*
Y2515992D01*
X2402731Y2514518D02*
Y2515993D01*
X2402831Y2514519D02*
Y2515993D01*
X2389307Y2662806D02*
Y2665068D01*
X2387832*
Y2662806*
X2389307*
X2387832Y2662887D02*
X2389307D01*
X2387832Y2662987D02*
X2389307D01*
X2387832Y2663087D02*
X2389307D01*
X2387832Y2663187D02*
X2389307D01*
X2387832Y2663287D02*
X2389307D01*
X2387832Y2663387D02*
X2389307D01*
X2387832Y2663487D02*
X2389307D01*
X2387832Y2663587D02*
X2389307D01*
X2387832Y2663687D02*
X2389307D01*
X2387832Y2663787D02*
X2389307D01*
X2387832Y2663887D02*
X2389307D01*
X2387832Y2663987D02*
X2389307D01*
X2387832Y2664087D02*
X2389307D01*
X2387832Y2664187D02*
X2389307D01*
X2387832Y2664287D02*
X2389307D01*
X2387832Y2664387D02*
X2389307D01*
X2387832Y2664487D02*
X2389307D01*
X2387832Y2664587D02*
X2389307D01*
X2387832Y2664687D02*
X2389307D01*
X2387832Y2664787D02*
X2389307D01*
X2387832Y2664887D02*
X2389307D01*
X2387832Y2664987D02*
X2389307D01*
X2387832Y2665068D02*
X2387832D01*
X2387932Y2662806D02*
Y2665068D01*
X2388032Y2662806D02*
Y2665068D01*
X2388132Y2662806D02*
Y2665068D01*
X2388232Y2662806D02*
Y2665068D01*
X2388332Y2662806D02*
Y2665068D01*
X2388432Y2662806D02*
Y2665068D01*
X2388532Y2662806D02*
Y2665068D01*
X2388632Y2662806D02*
Y2665068D01*
X2388732Y2662806D02*
Y2665068D01*
X2388832Y2662806D02*
Y2665068D01*
X2388932Y2662806D02*
Y2665068D01*
X2389032Y2662806D02*
Y2665068D01*
X2389132Y2662806D02*
Y2665068D01*
X2389232Y2662806D02*
Y2665068D01*
X2389313Y2666747D02*
X2389301Y2669009D01*
X2387826Y2669001*
X2387839Y2666739*
X2389313Y2666747*
X2387838Y2666787D02*
X2389313D01*
X2387838Y2666887D02*
X2389313D01*
X2387837Y2666987D02*
X2389312D01*
X2387837Y2667087D02*
X2389311D01*
X2387836Y2667187D02*
X2389311D01*
X2387835Y2667287D02*
X2389310D01*
X2387835Y2667387D02*
X2389310D01*
X2387834Y2667487D02*
X2389309D01*
X2387834Y2667587D02*
X2389309D01*
X2387833Y2667687D02*
X2389308D01*
X2387833Y2667787D02*
X2389308D01*
X2387832Y2667887D02*
X2389307D01*
X2387832Y2667987D02*
X2389306D01*
X2387831Y2668087D02*
X2389306D01*
X2387831Y2668187D02*
X2389305D01*
X2387830Y2668287D02*
X2389305D01*
X2387829Y2668387D02*
X2389304D01*
X2387829Y2668487D02*
X2389304D01*
X2387828Y2668587D02*
X2389303D01*
X2387828Y2668687D02*
X2389303D01*
X2387827Y2668787D02*
X2389302D01*
X2387827Y2668887D02*
X2389302D01*
X2387826Y2668987D02*
X2389301D01*
X2387826Y2669001D02*
X2387826D01*
X2387926Y2666739D02*
Y2669001D01*
X2388026Y2666740D02*
Y2669002D01*
X2388126Y2666740D02*
Y2669003D01*
X2388226Y2666741D02*
Y2669003D01*
X2388326Y2666741D02*
Y2669004D01*
X2388426Y2666742D02*
Y2669004D01*
X2388526Y2666742D02*
Y2669005D01*
X2388626Y2666743D02*
Y2669005D01*
X2388726Y2666744D02*
Y2669006D01*
X2388826Y2666744D02*
Y2669006D01*
X2388926Y2666745D02*
Y2669007D01*
X2389026Y2666745D02*
Y2669007D01*
X2389126Y2666746D02*
Y2669008D01*
X2389226Y2666746D02*
Y2669009D01*
X2396698Y2602513D02*
X2398960D01*
Y2603988*
X2396697Y2603987*
X2396698Y2602513*
Y2602587D02*
X2398960D01*
X2396698Y2602687D02*
X2398960D01*
X2396698Y2602787D02*
X2398960D01*
X2396698Y2602887D02*
X2398960D01*
X2396698Y2602987D02*
X2398960D01*
X2396698Y2603087D02*
X2398960D01*
X2396698Y2603187D02*
X2398960D01*
X2396698Y2603287D02*
X2398960D01*
X2396698Y2603387D02*
X2398960D01*
X2396698Y2603487D02*
X2398960D01*
X2396698Y2603587D02*
X2398960D01*
X2396698Y2603687D02*
X2398960D01*
X2396698Y2603787D02*
X2398960D01*
X2396698Y2603887D02*
X2398960D01*
X2396697Y2603987D02*
X2398960D01*
X2396697D02*
X2396697D01*
X2396797Y2602513D02*
Y2603987D01*
X2396897Y2602513D02*
Y2603987D01*
X2396997Y2602513D02*
Y2603987D01*
X2397097Y2602513D02*
Y2603987D01*
X2397197Y2602513D02*
Y2603987D01*
X2397297Y2602513D02*
Y2603988D01*
X2397397Y2602513D02*
Y2603988D01*
X2397497Y2602513D02*
Y2603988D01*
X2397597Y2602513D02*
Y2603988D01*
X2397697Y2602513D02*
Y2603988D01*
X2397797Y2602513D02*
Y2603988D01*
X2397897Y2602513D02*
Y2603988D01*
X2397997Y2602513D02*
Y2603988D01*
X2398097Y2602513D02*
Y2603988D01*
X2398197Y2602513D02*
Y2603988D01*
X2398297Y2602513D02*
Y2603988D01*
X2398397Y2602513D02*
Y2603988D01*
X2398497Y2602513D02*
Y2603988D01*
X2398597Y2602513D02*
Y2603988D01*
X2398697Y2602513D02*
Y2603988D01*
X2398797Y2602513D02*
Y2603988D01*
X2398897Y2602513D02*
Y2603988D01*
X2400639Y2602507D02*
X2402901Y2602519D01*
X2402893Y2603994*
X2400631Y2603981*
X2400639Y2602507*
X2400638Y2602587D02*
X2402901D01*
X2400638Y2602687D02*
X2402900D01*
X2400637Y2602787D02*
X2402899D01*
X2400637Y2602887D02*
X2402899D01*
X2400636Y2602987D02*
X2402898D01*
X2400635Y2603087D02*
X2402898D01*
X2400635Y2603187D02*
X2402897D01*
X2400634Y2603287D02*
X2402897D01*
X2400634Y2603387D02*
X2402896D01*
X2400633Y2603487D02*
X2402896D01*
X2400633Y2603587D02*
X2402895D01*
X2400632Y2603687D02*
X2402894D01*
X2400632Y2603787D02*
X2402894D01*
X2400631Y2603887D02*
X2402893D01*
X2401618Y2603987D02*
X2402893D01*
X2400631Y2603981D02*
X2400631D01*
X2400731Y2602507D02*
Y2603982D01*
X2400831Y2602508D02*
Y2603982D01*
X2400931Y2602508D02*
Y2603983D01*
X2401031Y2602509D02*
Y2603984D01*
X2401131Y2602509D02*
Y2603984D01*
X2401231Y2602510D02*
Y2603985D01*
X2401331Y2602510D02*
Y2603985D01*
X2401431Y2602511D02*
Y2603986D01*
X2401531Y2602511D02*
Y2603986D01*
X2401631Y2602512D02*
Y2603987D01*
X2401731Y2602513D02*
Y2603987D01*
X2401831Y2602513D02*
Y2603988D01*
X2401931Y2602514D02*
Y2603989D01*
X2402031Y2602514D02*
Y2603989D01*
X2402131Y2602515D02*
Y2603990D01*
X2402231Y2602515D02*
Y2603990D01*
X2402331Y2602516D02*
Y2603991D01*
X2402431Y2602516D02*
Y2603991D01*
X2402531Y2602517D02*
Y2603992D01*
X2402631Y2602518D02*
Y2603992D01*
X2402731Y2602518D02*
Y2603993D01*
X2402831Y2602519D02*
Y2603993D01*
X2389266Y2652519D02*
Y2654781D01*
X2387791*
X2387792Y2652519*
X2389266*
X2387792Y2652587D02*
X2389266D01*
X2387791Y2652687D02*
X2389266D01*
X2387791Y2652787D02*
X2389266D01*
X2387791Y2652887D02*
X2389266D01*
X2387791Y2652987D02*
X2389266D01*
X2387791Y2653087D02*
X2389266D01*
X2387791Y2653187D02*
X2389266D01*
X2387791Y2653287D02*
X2389266D01*
X2387791Y2653387D02*
X2389266D01*
X2387791Y2653487D02*
X2389266D01*
X2387791Y2653587D02*
X2389266D01*
X2387791Y2653687D02*
X2389266D01*
X2387791Y2653787D02*
X2389266D01*
X2387791Y2653887D02*
X2389266D01*
X2387791Y2653987D02*
X2389266D01*
X2387791Y2654087D02*
X2389266D01*
X2387791Y2654187D02*
X2389266D01*
X2387791Y2654287D02*
X2389266D01*
X2387791Y2654387D02*
X2389266D01*
X2387791Y2654487D02*
X2389266D01*
X2387791Y2654587D02*
X2389266D01*
X2387791Y2654687D02*
X2389266D01*
X2387791Y2654781D02*
X2387791D01*
X2387891Y2652519D02*
Y2654781D01*
X2387991Y2652519D02*
Y2654781D01*
X2388091Y2652519D02*
Y2654781D01*
X2388191Y2652519D02*
Y2654781D01*
X2388291Y2652519D02*
Y2654781D01*
X2388391Y2652519D02*
Y2654781D01*
X2388491Y2652519D02*
Y2654781D01*
X2388591Y2652519D02*
Y2654781D01*
X2388691Y2652519D02*
Y2654781D01*
X2388791Y2652519D02*
Y2654781D01*
X2388891Y2652519D02*
Y2654781D01*
X2388991Y2652519D02*
Y2654781D01*
X2389091Y2652519D02*
Y2654781D01*
X2389191Y2652519D02*
Y2654781D01*
X2389272Y2656460D02*
X2389260Y2658722D01*
X2387785Y2658714*
X2387798Y2656452*
X2389272Y2656460*
X2387797Y2656487D02*
X2389272D01*
X2387797Y2656587D02*
X2389272D01*
X2387796Y2656687D02*
X2389271D01*
X2387796Y2656787D02*
X2389271D01*
X2387795Y2656887D02*
X2389270D01*
X2387795Y2656987D02*
X2389269D01*
X2387794Y2657087D02*
X2389269D01*
X2387794Y2657187D02*
X2389268D01*
X2387793Y2657287D02*
X2389268D01*
X2387792Y2657387D02*
X2389267D01*
X2387792Y2657487D02*
X2389267D01*
X2387791Y2657587D02*
X2389266D01*
X2387791Y2657687D02*
X2389266D01*
X2387790Y2657787D02*
X2389265D01*
X2387790Y2657887D02*
X2389265D01*
X2387789Y2657987D02*
X2389264D01*
X2387789Y2658087D02*
X2389263D01*
X2387788Y2658187D02*
X2389263D01*
X2387787Y2658287D02*
X2389262D01*
X2387787Y2658387D02*
X2389262D01*
X2387786Y2658487D02*
X2389261D01*
X2387786Y2658587D02*
X2389261D01*
X2387785Y2658687D02*
X2389260D01*
X2387785Y2658714D02*
X2387785D01*
X2387885Y2656453D02*
Y2658715D01*
X2387985Y2656453D02*
Y2658715D01*
X2388085Y2656454D02*
Y2658716D01*
X2388185Y2656454D02*
Y2658716D01*
X2388285Y2656455D02*
Y2658717D01*
X2388385Y2656455D02*
Y2658718D01*
X2388485Y2656456D02*
Y2658718D01*
X2388585Y2656456D02*
Y2658719D01*
X2388685Y2656457D02*
Y2658719D01*
X2388785Y2656457D02*
Y2658720D01*
X2388885Y2656458D02*
Y2658720D01*
X2388985Y2656459D02*
Y2658721D01*
X2389085Y2656459D02*
Y2658721D01*
X2389185Y2656460D02*
Y2658722D01*
X2396698Y2596113D02*
X2398960D01*
Y2597588*
X2396697Y2597587*
X2396698Y2596113*
Y2596187D02*
X2398960D01*
X2396698Y2596287D02*
X2398960D01*
X2396698Y2596387D02*
X2398960D01*
X2396698Y2596487D02*
X2398960D01*
X2396698Y2596587D02*
X2398960D01*
X2396698Y2596687D02*
X2398960D01*
X2396698Y2596787D02*
X2398960D01*
X2396698Y2596887D02*
X2398960D01*
X2396698Y2596987D02*
X2398960D01*
X2396698Y2597087D02*
X2398960D01*
X2396698Y2597187D02*
X2398960D01*
X2396698Y2597287D02*
X2398960D01*
X2396698Y2597387D02*
X2398960D01*
X2396698Y2597487D02*
X2398960D01*
X2396697Y2597587D02*
X2398960D01*
X2396697D02*
X2396697D01*
X2396797Y2596113D02*
Y2597587D01*
X2396897Y2596113D02*
Y2597587D01*
X2396997Y2596113D02*
Y2597587D01*
X2397097Y2596113D02*
Y2597587D01*
X2397197Y2596113D02*
Y2597587D01*
X2397297Y2596113D02*
Y2597588D01*
X2397397Y2596113D02*
Y2597588D01*
X2397497Y2596113D02*
Y2597588D01*
X2397597Y2596113D02*
Y2597588D01*
X2397697Y2596113D02*
Y2597588D01*
X2397797Y2596113D02*
Y2597588D01*
X2397897Y2596113D02*
Y2597588D01*
X2397997Y2596113D02*
Y2597588D01*
X2398097Y2596113D02*
Y2597588D01*
X2398197Y2596113D02*
Y2597588D01*
X2398297Y2596113D02*
Y2597588D01*
X2398397Y2596113D02*
Y2597588D01*
X2398497Y2596113D02*
Y2597588D01*
X2398597Y2596113D02*
Y2597588D01*
X2398697Y2596113D02*
Y2597588D01*
X2398797Y2596113D02*
Y2597588D01*
X2398897Y2596113D02*
Y2597588D01*
X2400639Y2596107D02*
X2402901Y2596119D01*
X2402893Y2597594*
X2400631Y2597581*
X2400639Y2596107*
X2400638Y2596187D02*
X2402901D01*
X2400638Y2596287D02*
X2402900D01*
X2400637Y2596387D02*
X2402899D01*
X2400637Y2596487D02*
X2402899D01*
X2400636Y2596587D02*
X2402898D01*
X2400635Y2596687D02*
X2402898D01*
X2400635Y2596787D02*
X2402897D01*
X2400634Y2596887D02*
X2402897D01*
X2400634Y2596987D02*
X2402896D01*
X2400633Y2597087D02*
X2402896D01*
X2400633Y2597187D02*
X2402895D01*
X2400632Y2597287D02*
X2402894D01*
X2400632Y2597387D02*
X2402894D01*
X2400631Y2597487D02*
X2402893D01*
X2401618Y2597587D02*
X2402893D01*
X2400631Y2597581D02*
X2400631D01*
X2400731Y2596107D02*
Y2597582D01*
X2400831Y2596108D02*
Y2597582D01*
X2400931Y2596108D02*
Y2597583D01*
X2401031Y2596109D02*
Y2597584D01*
X2401131Y2596109D02*
Y2597584D01*
X2401231Y2596110D02*
Y2597585D01*
X2401331Y2596110D02*
Y2597585D01*
X2401431Y2596111D02*
Y2597586D01*
X2401531Y2596111D02*
Y2597586D01*
X2401631Y2596112D02*
Y2597587D01*
X2401731Y2596113D02*
Y2597587D01*
X2401831Y2596113D02*
Y2597588D01*
X2401931Y2596114D02*
Y2597589D01*
X2402031Y2596114D02*
Y2597589D01*
X2402131Y2596115D02*
Y2597590D01*
X2402231Y2596115D02*
Y2597590D01*
X2402331Y2596116D02*
Y2597591D01*
X2402431Y2596116D02*
Y2597591D01*
X2402531Y2596117D02*
Y2597592D01*
X2402631Y2596118D02*
Y2597592D01*
X2402731Y2596118D02*
Y2597593D01*
X2402831Y2596119D02*
Y2597593D01*
X2396698Y2608913D02*
X2398960D01*
Y2610388*
X2396697Y2610387*
X2396698Y2608913*
Y2608987D02*
X2398960D01*
X2396698Y2609087D02*
X2398960D01*
X2396698Y2609187D02*
X2398960D01*
X2396698Y2609287D02*
X2398960D01*
X2396698Y2609387D02*
X2398960D01*
X2396698Y2609487D02*
X2398960D01*
X2396698Y2609587D02*
X2398960D01*
X2396698Y2609687D02*
X2398960D01*
X2396698Y2609787D02*
X2398960D01*
X2396698Y2609887D02*
X2398960D01*
X2396698Y2609987D02*
X2398960D01*
X2396698Y2610087D02*
X2398960D01*
X2396698Y2610187D02*
X2398960D01*
X2396698Y2610287D02*
X2398960D01*
X2396697Y2610387D02*
X2398960D01*
X2396697D02*
X2396697D01*
X2396797Y2608913D02*
Y2610387D01*
X2396897Y2608913D02*
Y2610387D01*
X2396997Y2608913D02*
Y2610387D01*
X2397097Y2608913D02*
Y2610387D01*
X2397197Y2608913D02*
Y2610387D01*
X2397297Y2608913D02*
Y2610388D01*
X2397397Y2608913D02*
Y2610388D01*
X2397497Y2608913D02*
Y2610388D01*
X2397597Y2608913D02*
Y2610388D01*
X2397697Y2608913D02*
Y2610388D01*
X2397797Y2608913D02*
Y2610388D01*
X2397897Y2608913D02*
Y2610388D01*
X2397997Y2608913D02*
Y2610388D01*
X2398097Y2608913D02*
Y2610388D01*
X2398197Y2608913D02*
Y2610388D01*
X2398297Y2608913D02*
Y2610388D01*
X2398397Y2608913D02*
Y2610388D01*
X2398497Y2608913D02*
Y2610388D01*
X2398597Y2608913D02*
Y2610388D01*
X2398697Y2608913D02*
Y2610388D01*
X2398797Y2608913D02*
Y2610388D01*
X2398897Y2608913D02*
Y2610388D01*
X2400639Y2608907D02*
X2402901Y2608919D01*
X2402893Y2610394*
X2400631Y2610381*
X2400639Y2608907*
X2400638Y2608987D02*
X2402901D01*
X2400638Y2609087D02*
X2402900D01*
X2400637Y2609187D02*
X2402899D01*
X2400637Y2609287D02*
X2402899D01*
X2400636Y2609387D02*
X2402898D01*
X2400635Y2609487D02*
X2402898D01*
X2400635Y2609587D02*
X2402897D01*
X2400634Y2609687D02*
X2402897D01*
X2400634Y2609787D02*
X2402896D01*
X2400633Y2609887D02*
X2402896D01*
X2400633Y2609987D02*
X2402895D01*
X2400632Y2610087D02*
X2402894D01*
X2400632Y2610187D02*
X2402894D01*
X2400631Y2610287D02*
X2402893D01*
X2401618Y2610387D02*
X2402893D01*
X2400631Y2610381D02*
X2400631D01*
X2400731Y2608907D02*
Y2610382D01*
X2400831Y2608908D02*
Y2610382D01*
X2400931Y2608908D02*
Y2610383D01*
X2401031Y2608909D02*
Y2610384D01*
X2401131Y2608909D02*
Y2610384D01*
X2401231Y2608910D02*
Y2610385D01*
X2401331Y2608910D02*
Y2610385D01*
X2401431Y2608911D02*
Y2610386D01*
X2401531Y2608911D02*
Y2610386D01*
X2401631Y2608912D02*
Y2610387D01*
X2401731Y2608913D02*
Y2610387D01*
X2401831Y2608913D02*
Y2610388D01*
X2401931Y2608914D02*
Y2610389D01*
X2402031Y2608914D02*
Y2610389D01*
X2402131Y2608915D02*
Y2610390D01*
X2402231Y2608915D02*
Y2610390D01*
X2402331Y2608916D02*
Y2610391D01*
X2402431Y2608916D02*
Y2610391D01*
X2402531Y2608917D02*
Y2610392D01*
X2402631Y2608918D02*
Y2610392D01*
X2402731Y2608918D02*
Y2610393D01*
X2402831Y2608919D02*
Y2610393D01*
X2396698Y2552913D02*
X2398960D01*
Y2554388*
X2396697Y2554387*
X2396698Y2552913*
Y2552987D02*
X2398960D01*
X2396698Y2553087D02*
X2398960D01*
X2396698Y2553187D02*
X2398960D01*
X2396698Y2553287D02*
X2398960D01*
X2396698Y2553387D02*
X2398960D01*
X2396698Y2553487D02*
X2398960D01*
X2396698Y2553587D02*
X2398960D01*
X2396698Y2553687D02*
X2398960D01*
X2396698Y2553787D02*
X2398960D01*
X2396698Y2553887D02*
X2398960D01*
X2396698Y2553987D02*
X2398960D01*
X2396698Y2554087D02*
X2398960D01*
X2396698Y2554187D02*
X2398960D01*
X2396698Y2554287D02*
X2398960D01*
X2396697Y2554387D02*
X2398960D01*
X2396697D02*
X2396697D01*
X2396797Y2552913D02*
Y2554387D01*
X2396897Y2552913D02*
Y2554387D01*
X2396997Y2552913D02*
Y2554387D01*
X2397097Y2552913D02*
Y2554387D01*
X2397197Y2552913D02*
Y2554387D01*
X2397297Y2552913D02*
Y2554388D01*
X2397397Y2552913D02*
Y2554388D01*
X2397497Y2552913D02*
Y2554388D01*
X2397597Y2552913D02*
Y2554388D01*
X2397697Y2552913D02*
Y2554388D01*
X2397797Y2552913D02*
Y2554388D01*
X2397897Y2552913D02*
Y2554388D01*
X2397997Y2552913D02*
Y2554388D01*
X2398097Y2552913D02*
Y2554388D01*
X2398197Y2552913D02*
Y2554388D01*
X2398297Y2552913D02*
Y2554388D01*
X2398397Y2552913D02*
Y2554388D01*
X2398497Y2552913D02*
Y2554388D01*
X2398597Y2552913D02*
Y2554388D01*
X2398697Y2552913D02*
Y2554388D01*
X2398797Y2552913D02*
Y2554388D01*
X2398897Y2552913D02*
Y2554388D01*
X2400639Y2552907D02*
X2402901Y2552919D01*
X2402893Y2554394*
X2400631Y2554381*
X2400639Y2552907*
X2400638Y2552987D02*
X2402901D01*
X2400638Y2553087D02*
X2402900D01*
X2400637Y2553187D02*
X2402899D01*
X2400637Y2553287D02*
X2402899D01*
X2400636Y2553387D02*
X2402898D01*
X2400635Y2553487D02*
X2402898D01*
X2400635Y2553587D02*
X2402897D01*
X2400634Y2553687D02*
X2402897D01*
X2400634Y2553787D02*
X2402896D01*
X2400633Y2553887D02*
X2402896D01*
X2400633Y2553987D02*
X2402895D01*
X2400632Y2554087D02*
X2402894D01*
X2400632Y2554187D02*
X2402894D01*
X2400631Y2554287D02*
X2402893D01*
X2401618Y2554387D02*
X2402893D01*
X2400631Y2554381D02*
X2400631D01*
X2400731Y2552907D02*
Y2554382D01*
X2400831Y2552908D02*
Y2554382D01*
X2400931Y2552908D02*
Y2554383D01*
X2401031Y2552909D02*
Y2554384D01*
X2401131Y2552909D02*
Y2554384D01*
X2401231Y2552910D02*
Y2554385D01*
X2401331Y2552910D02*
Y2554385D01*
X2401431Y2552911D02*
Y2554386D01*
X2401531Y2552911D02*
Y2554386D01*
X2401631Y2552912D02*
Y2554387D01*
X2401731Y2552913D02*
Y2554387D01*
X2401831Y2552913D02*
Y2554388D01*
X2401931Y2552914D02*
Y2554389D01*
X2402031Y2552914D02*
Y2554389D01*
X2402131Y2552915D02*
Y2554390D01*
X2402231Y2552915D02*
Y2554390D01*
X2402331Y2552916D02*
Y2554391D01*
X2402431Y2552916D02*
Y2554391D01*
X2402531Y2552917D02*
Y2554392D01*
X2402631Y2552918D02*
Y2554392D01*
X2402731Y2552918D02*
Y2554393D01*
X2402831Y2552919D02*
Y2554393D01*
X2396698Y2615313D02*
X2398960D01*
Y2616788*
X2396697Y2616787*
X2396698Y2615313*
Y2615387D02*
X2398960D01*
X2396698Y2615487D02*
X2398960D01*
X2396698Y2615587D02*
X2398960D01*
X2396698Y2615687D02*
X2398960D01*
X2396698Y2615787D02*
X2398960D01*
X2396698Y2615887D02*
X2398960D01*
X2396698Y2615987D02*
X2398960D01*
X2396698Y2616087D02*
X2398960D01*
X2396698Y2616187D02*
X2398960D01*
X2396698Y2616287D02*
X2398960D01*
X2396698Y2616387D02*
X2398960D01*
X2396698Y2616487D02*
X2398960D01*
X2396698Y2616587D02*
X2398960D01*
X2396698Y2616687D02*
X2398960D01*
X2396697Y2616787D02*
X2398960D01*
X2396697D02*
X2396697D01*
X2396797Y2615313D02*
Y2616787D01*
X2396897Y2615313D02*
Y2616787D01*
X2396997Y2615313D02*
Y2616787D01*
X2397097Y2615313D02*
Y2616787D01*
X2397197Y2615313D02*
Y2616787D01*
X2397297Y2615313D02*
Y2616788D01*
X2397397Y2615313D02*
Y2616788D01*
X2397497Y2615313D02*
Y2616788D01*
X2397597Y2615313D02*
Y2616788D01*
X2397697Y2615313D02*
Y2616788D01*
X2397797Y2615313D02*
Y2616788D01*
X2397897Y2615313D02*
Y2616788D01*
X2397997Y2615313D02*
Y2616788D01*
X2398097Y2615313D02*
Y2616788D01*
X2398197Y2615313D02*
Y2616788D01*
X2398297Y2615313D02*
Y2616788D01*
X2398397Y2615313D02*
Y2616788D01*
X2398497Y2615313D02*
Y2616788D01*
X2398597Y2615313D02*
Y2616788D01*
X2398697Y2615313D02*
Y2616788D01*
X2398797Y2615313D02*
Y2616788D01*
X2398897Y2615313D02*
Y2616788D01*
X2400639Y2615307D02*
X2402901Y2615319D01*
X2402893Y2616794*
X2400631Y2616781*
X2400639Y2615307*
X2400638Y2615387D02*
X2402901D01*
X2400638Y2615487D02*
X2402900D01*
X2400637Y2615587D02*
X2402899D01*
X2400637Y2615687D02*
X2402899D01*
X2400636Y2615787D02*
X2402898D01*
X2400635Y2615887D02*
X2402898D01*
X2400635Y2615987D02*
X2402897D01*
X2400634Y2616087D02*
X2402897D01*
X2400634Y2616187D02*
X2402896D01*
X2400633Y2616287D02*
X2402896D01*
X2400633Y2616387D02*
X2402895D01*
X2400632Y2616487D02*
X2402894D01*
X2400632Y2616587D02*
X2402894D01*
X2400631Y2616687D02*
X2402893D01*
X2401618Y2616787D02*
X2402893D01*
X2400631Y2616781D02*
X2400631D01*
X2400731Y2615307D02*
Y2616782D01*
X2400831Y2615308D02*
Y2616782D01*
X2400931Y2615308D02*
Y2616783D01*
X2401031Y2615309D02*
Y2616784D01*
X2401131Y2615309D02*
Y2616784D01*
X2401231Y2615310D02*
Y2616785D01*
X2401331Y2615310D02*
Y2616785D01*
X2401431Y2615311D02*
Y2616786D01*
X2401531Y2615311D02*
Y2616786D01*
X2401631Y2615312D02*
Y2616787D01*
X2401731Y2615313D02*
Y2616787D01*
X2401831Y2615313D02*
Y2616788D01*
X2401931Y2615314D02*
Y2616789D01*
X2402031Y2615314D02*
Y2616789D01*
X2402131Y2615315D02*
Y2616790D01*
X2402231Y2615315D02*
Y2616790D01*
X2402331Y2615316D02*
Y2616791D01*
X2402431Y2615316D02*
Y2616791D01*
X2402531Y2615317D02*
Y2616792D01*
X2402631Y2615318D02*
Y2616792D01*
X2402731Y2615318D02*
Y2616793D01*
X2402831Y2615319D02*
Y2616793D01*
X2396698Y2562513D02*
X2398960D01*
Y2563988*
X2396697Y2563987*
X2396698Y2562513*
Y2562587D02*
X2398960D01*
X2396698Y2562687D02*
X2398960D01*
X2396698Y2562787D02*
X2398960D01*
X2396698Y2562887D02*
X2398960D01*
X2396698Y2562987D02*
X2398960D01*
X2396698Y2563087D02*
X2398960D01*
X2396698Y2563187D02*
X2398960D01*
X2396698Y2563287D02*
X2398960D01*
X2396698Y2563387D02*
X2398960D01*
X2396698Y2563487D02*
X2398960D01*
X2396698Y2563587D02*
X2398960D01*
X2396698Y2563687D02*
X2398960D01*
X2396698Y2563787D02*
X2398960D01*
X2396698Y2563887D02*
X2398960D01*
X2396697Y2563987D02*
X2398960D01*
X2396697D02*
X2396697D01*
X2396797Y2562513D02*
Y2563987D01*
X2396897Y2562513D02*
Y2563987D01*
X2396997Y2562513D02*
Y2563987D01*
X2397097Y2562513D02*
Y2563987D01*
X2397197Y2562513D02*
Y2563987D01*
X2397297Y2562513D02*
Y2563988D01*
X2397397Y2562513D02*
Y2563988D01*
X2397497Y2562513D02*
Y2563988D01*
X2397597Y2562513D02*
Y2563988D01*
X2397697Y2562513D02*
Y2563988D01*
X2397797Y2562513D02*
Y2563988D01*
X2397897Y2562513D02*
Y2563988D01*
X2397997Y2562513D02*
Y2563988D01*
X2398097Y2562513D02*
Y2563988D01*
X2398197Y2562513D02*
Y2563988D01*
X2398297Y2562513D02*
Y2563988D01*
X2398397Y2562513D02*
Y2563988D01*
X2398497Y2562513D02*
Y2563988D01*
X2398597Y2562513D02*
Y2563988D01*
X2398697Y2562513D02*
Y2563988D01*
X2398797Y2562513D02*
Y2563988D01*
X2398897Y2562513D02*
Y2563988D01*
X2400639Y2562507D02*
X2402901Y2562519D01*
X2402893Y2563994*
X2400631Y2563981*
X2400639Y2562507*
X2400638Y2562587D02*
X2402901D01*
X2400638Y2562687D02*
X2402900D01*
X2400637Y2562787D02*
X2402899D01*
X2400637Y2562887D02*
X2402899D01*
X2400636Y2562987D02*
X2402898D01*
X2400635Y2563087D02*
X2402898D01*
X2400635Y2563187D02*
X2402897D01*
X2400634Y2563287D02*
X2402897D01*
X2400634Y2563387D02*
X2402896D01*
X2400633Y2563487D02*
X2402896D01*
X2400633Y2563587D02*
X2402895D01*
X2400632Y2563687D02*
X2402894D01*
X2400632Y2563787D02*
X2402894D01*
X2400631Y2563887D02*
X2402893D01*
X2401618Y2563987D02*
X2402893D01*
X2400631Y2563981D02*
X2400631D01*
X2400731Y2562507D02*
Y2563982D01*
X2400831Y2562508D02*
Y2563982D01*
X2400931Y2562508D02*
Y2563983D01*
X2401031Y2562509D02*
Y2563984D01*
X2401131Y2562509D02*
Y2563984D01*
X2401231Y2562510D02*
Y2563985D01*
X2401331Y2562510D02*
Y2563985D01*
X2401431Y2562511D02*
Y2563986D01*
X2401531Y2562511D02*
Y2563986D01*
X2401631Y2562512D02*
Y2563987D01*
X2401731Y2562513D02*
Y2563987D01*
X2401831Y2562513D02*
Y2563988D01*
X2401931Y2562514D02*
Y2563989D01*
X2402031Y2562514D02*
Y2563989D01*
X2402131Y2562515D02*
Y2563990D01*
X2402231Y2562515D02*
Y2563990D01*
X2402331Y2562516D02*
Y2563991D01*
X2402431Y2562516D02*
Y2563991D01*
X2402531Y2562517D02*
Y2563992D01*
X2402631Y2562518D02*
Y2563992D01*
X2402731Y2562518D02*
Y2563993D01*
X2402831Y2562519D02*
Y2563993D01*
X2622066Y2443319D02*
Y2445581D01*
X2620591*
X2620592Y2443319*
X2622066*
X2620592D02*
X2620592D01*
Y2443419D02*
X2622066D01*
X2620591Y2443519D02*
X2622066D01*
X2620591Y2443619D02*
X2622066D01*
X2620591Y2443719D02*
X2622066D01*
X2620591Y2443819D02*
X2622066D01*
X2620591Y2443919D02*
X2622066D01*
X2620591Y2444019D02*
X2622066D01*
X2620591Y2444119D02*
X2622066D01*
X2620591Y2444219D02*
X2622066D01*
X2620591Y2444319D02*
X2622066D01*
X2620591Y2444419D02*
X2622066D01*
X2620591Y2444519D02*
X2622066D01*
X2620591Y2444619D02*
X2622066D01*
X2620591Y2444719D02*
X2622066D01*
X2620591Y2444819D02*
X2622066D01*
X2620591Y2444919D02*
X2622066D01*
X2620591Y2445019D02*
X2622066D01*
X2620591Y2445119D02*
X2622066D01*
X2620591Y2445219D02*
X2622066D01*
X2620591Y2445319D02*
X2622066D01*
X2620591Y2445419D02*
X2622066D01*
X2620591Y2445519D02*
X2622066D01*
X2620620Y2443319D02*
Y2445581D01*
X2620720Y2443319D02*
Y2445581D01*
X2620820Y2443319D02*
Y2445581D01*
X2620920Y2443319D02*
Y2445581D01*
X2621020Y2443319D02*
Y2445581D01*
X2621120Y2443319D02*
Y2445581D01*
X2621220Y2443319D02*
Y2445581D01*
X2621320Y2443319D02*
Y2445581D01*
X2621420Y2443319D02*
Y2445581D01*
X2621520Y2443319D02*
Y2445581D01*
X2621620Y2443319D02*
Y2445581D01*
X2621720Y2443319D02*
Y2445581D01*
X2621820Y2443319D02*
Y2445581D01*
X2621920Y2443319D02*
Y2445581D01*
X2622020Y2443319D02*
Y2445581D01*
X2622072Y2447260D02*
X2622060Y2449522D01*
X2620585Y2449514*
X2620598Y2447252*
X2622072Y2447260*
X2620598Y2447252D02*
X2620598D01*
X2620597Y2447352D02*
X2622072D01*
X2620596Y2447452D02*
X2622071D01*
X2620596Y2447552D02*
X2622071D01*
X2620595Y2447652D02*
X2622070D01*
X2620595Y2447752D02*
X2622070D01*
X2620594Y2447852D02*
X2622069D01*
X2620594Y2447952D02*
X2622069D01*
X2620593Y2448052D02*
X2622068D01*
X2620593Y2448152D02*
X2622067D01*
X2620592Y2448252D02*
X2622067D01*
X2620592Y2448352D02*
X2622066D01*
X2620591Y2448452D02*
X2622066D01*
X2620590Y2448552D02*
X2622065D01*
X2620590Y2448652D02*
X2622065D01*
X2620589Y2448752D02*
X2622064D01*
X2620589Y2448852D02*
X2622064D01*
X2620588Y2448952D02*
X2622063D01*
X2620588Y2449052D02*
X2622063D01*
X2620587Y2449152D02*
X2622062D01*
X2620587Y2449252D02*
X2622061D01*
X2620586Y2449352D02*
X2622061D01*
X2620585Y2449452D02*
X2622060D01*
X2620620Y2447252D02*
Y2449514D01*
X2620720Y2447253D02*
Y2449515D01*
X2620820Y2447253D02*
Y2449516D01*
X2620920Y2447254D02*
Y2449516D01*
X2621020Y2447254D02*
Y2449517D01*
X2621120Y2447255D02*
Y2449517D01*
X2621220Y2447255D02*
Y2449518D01*
X2621320Y2447256D02*
Y2449518D01*
X2621420Y2447257D02*
Y2449519D01*
X2621520Y2447257D02*
Y2449519D01*
X2621620Y2447258D02*
Y2449520D01*
X2621720Y2447258D02*
Y2449520D01*
X2621820Y2447259D02*
Y2449521D01*
X2621920Y2447259D02*
Y2449522D01*
X2622020Y2447260D02*
Y2449522D01*
X2396698Y2496913D02*
X2398960D01*
Y2498388*
X2396697Y2498387*
X2396698Y2496913*
X2396698*
Y2497013D02*
X2398960D01*
X2396698Y2497113D02*
X2398960D01*
X2396698Y2497213D02*
X2398960D01*
X2396698Y2497313D02*
X2398960D01*
X2396698Y2497413D02*
X2398960D01*
X2396698Y2497513D02*
X2398960D01*
X2396698Y2497613D02*
X2398960D01*
X2396698Y2497713D02*
X2398960D01*
X2396698Y2497813D02*
X2398960D01*
X2396698Y2497913D02*
X2398960D01*
X2396698Y2498013D02*
X2398960D01*
X2396698Y2498113D02*
X2398960D01*
X2396698Y2498213D02*
X2398960D01*
X2396698Y2498313D02*
X2398960D01*
X2396697Y2498387D02*
X2396697D01*
X2396797Y2496913D02*
Y2498387D01*
X2396897Y2496913D02*
Y2498387D01*
X2396997Y2496913D02*
Y2498387D01*
X2397097Y2496913D02*
Y2498387D01*
X2397197Y2496913D02*
Y2498387D01*
X2397297Y2496913D02*
Y2498388D01*
X2397397Y2496913D02*
Y2498388D01*
X2397497Y2496913D02*
Y2498388D01*
X2397597Y2496913D02*
Y2498388D01*
X2397697Y2496913D02*
Y2498388D01*
X2397797Y2496913D02*
Y2498388D01*
X2397897Y2496913D02*
Y2498388D01*
X2397997Y2496913D02*
Y2498388D01*
X2398097Y2496913D02*
Y2498388D01*
X2398197Y2496913D02*
Y2498388D01*
X2398297Y2496913D02*
Y2498388D01*
X2398397Y2496913D02*
Y2498388D01*
X2398497Y2496913D02*
Y2498388D01*
X2398597Y2496913D02*
Y2498388D01*
X2398697Y2496913D02*
Y2498388D01*
X2398797Y2496913D02*
Y2498388D01*
X2398897Y2496913D02*
Y2498388D01*
X2400639Y2496907D02*
X2402901Y2496919D01*
X2402893Y2498394*
X2400631Y2498381*
X2400639Y2496907*
X2400639*
X2400638Y2497007D02*
X2402900D01*
X2400638Y2497107D02*
X2402900D01*
X2400637Y2497207D02*
X2402899D01*
X2400636Y2497307D02*
X2402899D01*
X2400636Y2497407D02*
X2402898D01*
X2400635Y2497507D02*
X2402898D01*
X2400635Y2497607D02*
X2402897D01*
X2400634Y2497707D02*
X2402897D01*
X2400634Y2497807D02*
X2402896D01*
X2400633Y2497907D02*
X2402895D01*
X2400633Y2498007D02*
X2402895D01*
X2400632Y2498107D02*
X2402894D01*
X2400632Y2498207D02*
X2402894D01*
X2400631Y2498307D02*
X2402893D01*
X2400631Y2498381D02*
X2400631D01*
X2400731Y2496907D02*
Y2498382D01*
X2400831Y2496908D02*
Y2498382D01*
X2400931Y2496908D02*
Y2498383D01*
X2401031Y2496909D02*
Y2498384D01*
X2401131Y2496909D02*
Y2498384D01*
X2401231Y2496910D02*
Y2498385D01*
X2401331Y2496910D02*
Y2498385D01*
X2401431Y2496911D02*
Y2498386D01*
X2401531Y2496911D02*
Y2498386D01*
X2401631Y2496912D02*
Y2498387D01*
X2401731Y2496913D02*
Y2498387D01*
X2401831Y2496913D02*
Y2498388D01*
X2401931Y2496914D02*
Y2498389D01*
X2402031Y2496914D02*
Y2498389D01*
X2402131Y2496915D02*
Y2498390D01*
X2402231Y2496915D02*
Y2498390D01*
X2402331Y2496916D02*
Y2498391D01*
X2402431Y2496916D02*
Y2498391D01*
X2402531Y2496917D02*
Y2498392D01*
X2402631Y2496918D02*
Y2498392D01*
X2402731Y2496918D02*
Y2498393D01*
X2402831Y2496919D02*
Y2498393D01*
X2612466Y2443319D02*
Y2445581D01*
X2610991*
X2610992Y2443319*
X2612466*
X2610992D02*
X2610992D01*
Y2443419D02*
X2612466D01*
X2610991Y2443519D02*
X2612466D01*
X2610991Y2443619D02*
X2612466D01*
X2610991Y2443719D02*
X2612466D01*
X2610991Y2443819D02*
X2612466D01*
X2610991Y2443919D02*
X2612466D01*
X2610991Y2444019D02*
X2612466D01*
X2610991Y2444119D02*
X2612466D01*
X2610991Y2444219D02*
X2612466D01*
X2610991Y2444319D02*
X2612466D01*
X2610991Y2444419D02*
X2612466D01*
X2610991Y2444519D02*
X2612466D01*
X2610991Y2444619D02*
X2612466D01*
X2610991Y2444719D02*
X2612466D01*
X2610991Y2444819D02*
X2612466D01*
X2610991Y2444919D02*
X2612466D01*
X2610991Y2445019D02*
X2612466D01*
X2610991Y2445119D02*
X2612466D01*
X2610991Y2445219D02*
X2612466D01*
X2610991Y2445319D02*
X2612466D01*
X2610991Y2445419D02*
X2612466D01*
X2610991Y2445519D02*
X2612466D01*
X2611020Y2443319D02*
Y2445581D01*
X2611120Y2443319D02*
Y2445581D01*
X2611220Y2443319D02*
Y2445581D01*
X2611320Y2443319D02*
Y2445581D01*
X2611420Y2443319D02*
Y2445581D01*
X2611520Y2443319D02*
Y2445581D01*
X2611620Y2443319D02*
Y2445581D01*
X2611720Y2443319D02*
Y2445581D01*
X2611820Y2443319D02*
Y2445581D01*
X2611920Y2443319D02*
Y2445581D01*
X2612020Y2443319D02*
Y2445581D01*
X2612120Y2443319D02*
Y2445581D01*
X2612220Y2443319D02*
Y2445581D01*
X2612320Y2443319D02*
Y2445581D01*
X2612420Y2443319D02*
Y2445581D01*
X2612472Y2447260D02*
X2612460Y2449522D01*
X2610985Y2449514*
X2610998Y2447252*
X2612472Y2447260*
X2610998Y2447252D02*
X2610998D01*
X2610997Y2447352D02*
X2612472D01*
X2610996Y2447452D02*
X2612471D01*
X2610996Y2447552D02*
X2612471D01*
X2610995Y2447652D02*
X2612470D01*
X2610995Y2447752D02*
X2612470D01*
X2610994Y2447852D02*
X2612469D01*
X2610994Y2447952D02*
X2612469D01*
X2610993Y2448052D02*
X2612468D01*
X2610993Y2448152D02*
X2612467D01*
X2610992Y2448252D02*
X2612467D01*
X2610992Y2448352D02*
X2612466D01*
X2610991Y2448452D02*
X2612466D01*
X2610990Y2448552D02*
X2612465D01*
X2610990Y2448652D02*
X2612465D01*
X2610989Y2448752D02*
X2612464D01*
X2610989Y2448852D02*
X2612464D01*
X2610988Y2448952D02*
X2612463D01*
X2610988Y2449052D02*
X2612463D01*
X2610987Y2449152D02*
X2612462D01*
X2610987Y2449252D02*
X2612461D01*
X2610986Y2449352D02*
X2612461D01*
X2610985Y2449452D02*
X2612460D01*
X2611020Y2447252D02*
Y2449514D01*
X2611120Y2447253D02*
Y2449515D01*
X2611220Y2447253D02*
Y2449516D01*
X2611320Y2447254D02*
Y2449516D01*
X2611420Y2447254D02*
Y2449517D01*
X2611520Y2447255D02*
Y2449517D01*
X2611620Y2447255D02*
Y2449518D01*
X2611720Y2447256D02*
Y2449518D01*
X2611820Y2447257D02*
Y2449519D01*
X2611920Y2447257D02*
Y2449519D01*
X2612020Y2447258D02*
Y2449520D01*
X2612120Y2447258D02*
Y2449520D01*
X2612220Y2447259D02*
Y2449521D01*
X2612320Y2447259D02*
Y2449522D01*
X2612420Y2447260D02*
Y2449522D01*
X2733501Y2479574D02*
X2731238D01*
X2731239Y2478099*
X2733501Y2478100*
Y2479574*
X2731239Y2478099D02*
X2731239D01*
Y2478199D02*
X2733501D01*
X2731239Y2478299D02*
X2733501D01*
X2731239Y2478399D02*
X2733501D01*
X2731239Y2478499D02*
X2733501D01*
X2731239Y2478599D02*
X2733501D01*
X2731239Y2478699D02*
X2733501D01*
X2731239Y2478799D02*
X2733501D01*
X2731239Y2478899D02*
X2733501D01*
X2731239Y2478999D02*
X2733501D01*
X2731239Y2479099D02*
X2733501D01*
X2731239Y2479199D02*
X2733501D01*
X2731238Y2479299D02*
X2733501D01*
X2731238Y2479399D02*
X2733501D01*
X2731238Y2479499D02*
X2733501D01*
X2731320Y2478099D02*
Y2479574D01*
X2731420Y2478099D02*
Y2479574D01*
X2731520Y2478099D02*
Y2479574D01*
X2731620Y2478099D02*
Y2479574D01*
X2731720Y2478099D02*
Y2479574D01*
X2731820Y2478099D02*
Y2479574D01*
X2731920Y2478099D02*
Y2479574D01*
X2732020Y2478099D02*
Y2479574D01*
X2732120Y2478099D02*
Y2479574D01*
X2732220Y2478099D02*
Y2479574D01*
X2732320Y2478099D02*
Y2479574D01*
X2732420Y2478099D02*
Y2479574D01*
X2732520Y2478099D02*
Y2479574D01*
X2732620Y2478099D02*
Y2479574D01*
X2732720Y2478099D02*
Y2479574D01*
X2732820Y2478099D02*
Y2479574D01*
X2732920Y2478099D02*
Y2479574D01*
X2733020Y2478100D02*
Y2479574D01*
X2733120Y2478100D02*
Y2479574D01*
X2733220Y2478100D02*
Y2479574D01*
X2733320Y2478100D02*
Y2479574D01*
X2733420Y2478100D02*
Y2479574D01*
X2729560Y2479580D02*
X2727298Y2479568D01*
X2727306Y2478093*
X2729568Y2478106*
X2729560Y2479580*
X2727306Y2478093D02*
X2727306D01*
X2727305Y2478193D02*
X2729567D01*
X2727305Y2478293D02*
X2729567D01*
X2727304Y2478393D02*
X2729566D01*
X2727303Y2478493D02*
X2729566D01*
X2727303Y2478593D02*
X2729565D01*
X2727302Y2478693D02*
X2729565D01*
X2727302Y2478793D02*
X2729564D01*
X2727301Y2478893D02*
X2729564D01*
X2727301Y2478993D02*
X2729563D01*
X2727300Y2479093D02*
X2729562D01*
X2727300Y2479193D02*
X2729562D01*
X2727299Y2479293D02*
X2729561D01*
X2727298Y2479393D02*
X2729561D01*
X2727298Y2479493D02*
X2729560D01*
X2727320Y2478093D02*
Y2479568D01*
X2727420Y2478094D02*
Y2479569D01*
X2727520Y2478094D02*
Y2479569D01*
X2727620Y2478095D02*
Y2479570D01*
X2727720Y2478095D02*
Y2479570D01*
X2727820Y2478096D02*
Y2479571D01*
X2727920Y2478097D02*
Y2479571D01*
X2728020Y2478097D02*
Y2479572D01*
X2728120Y2478098D02*
Y2479573D01*
X2728220Y2478098D02*
Y2479573D01*
X2728320Y2478099D02*
Y2479574D01*
X2728420Y2478099D02*
Y2479574D01*
X2728520Y2478100D02*
Y2479575D01*
X2728620Y2478100D02*
Y2479575D01*
X2728720Y2478101D02*
Y2479576D01*
X2728820Y2478102D02*
Y2479576D01*
X2728920Y2478102D02*
Y2479577D01*
X2729020Y2478103D02*
Y2479577D01*
X2729120Y2478103D02*
Y2479578D01*
X2729220Y2478104D02*
Y2479579D01*
X2729320Y2478104D02*
Y2479579D01*
X2729420Y2478105D02*
Y2479580D01*
X2729520Y2478105D02*
Y2479580D01*
X2733501Y2489074D02*
X2731238D01*
X2731239Y2487599*
X2733501Y2487600*
Y2489074*
X2731239Y2487599D02*
X2731239D01*
Y2487699D02*
X2733501D01*
X2731239Y2487799D02*
X2733501D01*
X2731239Y2487899D02*
X2733501D01*
X2731239Y2487999D02*
X2733501D01*
X2731239Y2488099D02*
X2733501D01*
X2731239Y2488199D02*
X2733501D01*
X2731239Y2488299D02*
X2733501D01*
X2731239Y2488399D02*
X2733501D01*
X2731239Y2488499D02*
X2733501D01*
X2731239Y2488599D02*
X2733501D01*
X2731239Y2488699D02*
X2733501D01*
X2731238Y2488799D02*
X2733501D01*
X2731238Y2488899D02*
X2733501D01*
X2731238Y2488999D02*
X2733501D01*
X2731320Y2487599D02*
Y2489074D01*
X2731420Y2487599D02*
Y2489074D01*
X2731520Y2487599D02*
Y2489074D01*
X2731620Y2487599D02*
Y2489074D01*
X2731720Y2487599D02*
Y2489074D01*
X2731820Y2487599D02*
Y2489074D01*
X2731920Y2487599D02*
Y2489074D01*
X2732020Y2487599D02*
Y2489074D01*
X2732120Y2487599D02*
Y2489074D01*
X2732220Y2487599D02*
Y2489074D01*
X2732320Y2487599D02*
Y2489074D01*
X2732420Y2487599D02*
Y2489074D01*
X2732520Y2487599D02*
Y2489074D01*
X2732620Y2487599D02*
Y2489074D01*
X2732720Y2487599D02*
Y2489074D01*
X2732820Y2487599D02*
Y2489074D01*
X2732920Y2487599D02*
Y2489074D01*
X2733020Y2487600D02*
Y2489074D01*
X2733120Y2487600D02*
Y2489074D01*
X2733220Y2487600D02*
Y2489074D01*
X2733320Y2487600D02*
Y2489074D01*
X2733420Y2487600D02*
Y2489074D01*
X2729560Y2489080D02*
X2727298Y2489068D01*
X2727306Y2487593*
X2729568Y2487606*
X2729560Y2489080*
X2727306Y2487593D02*
X2727306D01*
X2727305Y2487693D02*
X2729567D01*
X2727305Y2487793D02*
X2729567D01*
X2727304Y2487893D02*
X2729566D01*
X2727303Y2487993D02*
X2729566D01*
X2727303Y2488093D02*
X2729565D01*
X2727302Y2488193D02*
X2729565D01*
X2727302Y2488293D02*
X2729564D01*
X2727301Y2488393D02*
X2729564D01*
X2727301Y2488493D02*
X2729563D01*
X2727300Y2488593D02*
X2729562D01*
X2727300Y2488693D02*
X2729562D01*
X2727299Y2488793D02*
X2729561D01*
X2727298Y2488893D02*
X2729561D01*
X2727298Y2488993D02*
X2729560D01*
X2727320Y2487593D02*
Y2489068D01*
X2727420Y2487594D02*
Y2489069D01*
X2727520Y2487594D02*
Y2489069D01*
X2727620Y2487595D02*
Y2489070D01*
X2727720Y2487595D02*
Y2489070D01*
X2727820Y2487596D02*
Y2489071D01*
X2727920Y2487597D02*
Y2489071D01*
X2728020Y2487597D02*
Y2489072D01*
X2728120Y2487598D02*
Y2489073D01*
X2728220Y2487598D02*
Y2489073D01*
X2728320Y2487599D02*
Y2489074D01*
X2728420Y2487599D02*
Y2489074D01*
X2728520Y2487600D02*
Y2489075D01*
X2728620Y2487600D02*
Y2489075D01*
X2728720Y2487601D02*
Y2489076D01*
X2728820Y2487602D02*
Y2489076D01*
X2728920Y2487602D02*
Y2489077D01*
X2729020Y2487603D02*
Y2489077D01*
X2729120Y2487603D02*
Y2489078D01*
X2729220Y2487604D02*
Y2489079D01*
X2729320Y2487604D02*
Y2489079D01*
X2729420Y2487605D02*
Y2489080D01*
X2729520Y2487605D02*
Y2489080D01*
X2532691Y2452681D02*
X2532692Y2450419D01*
X2534166*
Y2452681*
X2532691*
X2532692Y2450419D02*
X2532692D01*
Y2450519D02*
X2534166D01*
X2532691Y2450619D02*
X2534166D01*
X2532691Y2450719D02*
X2534166D01*
X2532691Y2450819D02*
X2534166D01*
X2532691Y2450919D02*
X2534166D01*
X2532691Y2451019D02*
X2534166D01*
X2532691Y2451119D02*
X2534166D01*
X2532691Y2451219D02*
X2534166D01*
X2532691Y2451319D02*
X2534166D01*
X2532691Y2451419D02*
X2534166D01*
X2532691Y2451519D02*
X2534166D01*
X2532691Y2451619D02*
X2534166D01*
X2532691Y2451719D02*
X2534166D01*
X2532691Y2451819D02*
X2534166D01*
X2532691Y2451919D02*
X2534166D01*
X2532691Y2452019D02*
X2534166D01*
X2532691Y2452119D02*
X2534166D01*
X2532691Y2452219D02*
X2534166D01*
X2532691Y2452319D02*
X2534166D01*
X2532691Y2452419D02*
X2534166D01*
X2532691Y2452519D02*
X2534166D01*
X2532691Y2452619D02*
X2534166D01*
X2532691Y2452681D02*
X2532691D01*
X2532791Y2450419D02*
Y2452681D01*
X2532891Y2450419D02*
Y2452681D01*
X2532991Y2450419D02*
Y2452681D01*
X2533091Y2450419D02*
Y2452681D01*
X2533191Y2450419D02*
Y2452681D01*
X2533291Y2450419D02*
Y2452681D01*
X2533391Y2450419D02*
Y2452681D01*
X2533491Y2450419D02*
Y2452681D01*
X2533591Y2450419D02*
Y2452681D01*
X2533691Y2450419D02*
Y2452681D01*
X2533791Y2450419D02*
Y2452681D01*
X2533891Y2450419D02*
Y2452681D01*
X2533991Y2450419D02*
Y2452681D01*
X2534091Y2450419D02*
Y2452681D01*
X2532685Y2448740D02*
X2532698Y2446478D01*
X2534172Y2446486*
X2534160Y2448748*
X2532685Y2448740*
X2532698Y2446478D02*
X2532698D01*
X2532697Y2446578D02*
X2534172D01*
X2532696Y2446678D02*
X2534171D01*
X2532696Y2446778D02*
X2534171D01*
X2532695Y2446878D02*
X2534170D01*
X2532695Y2446978D02*
X2534170D01*
X2532694Y2447078D02*
X2534169D01*
X2532694Y2447178D02*
X2534169D01*
X2532693Y2447278D02*
X2534168D01*
X2532693Y2447378D02*
X2534167D01*
X2532692Y2447478D02*
X2534167D01*
X2532692Y2447578D02*
X2534166D01*
X2532691Y2447678D02*
X2534166D01*
X2532690Y2447778D02*
X2534165D01*
X2532690Y2447878D02*
X2534165D01*
X2532689Y2447978D02*
X2534164D01*
X2532689Y2448078D02*
X2534164D01*
X2532688Y2448178D02*
X2534163D01*
X2532688Y2448278D02*
X2534163D01*
X2532687Y2448378D02*
X2534162D01*
X2532687Y2448478D02*
X2534161D01*
X2532686Y2448578D02*
X2534161D01*
X2532685Y2448678D02*
X2534160D01*
X2532685Y2448740D02*
X2532685D01*
X2532785Y2446479D02*
Y2448741D01*
X2532885Y2446479D02*
Y2448741D01*
X2532985Y2446480D02*
Y2448742D01*
X2533085Y2446480D02*
Y2448742D01*
X2533185Y2446481D02*
Y2448743D01*
X2533285Y2446481D02*
Y2448744D01*
X2533385Y2446482D02*
Y2448744D01*
X2533485Y2446482D02*
Y2448745D01*
X2533585Y2446483D02*
Y2448745D01*
X2533685Y2446483D02*
Y2448746D01*
X2533785Y2446484D02*
Y2448746D01*
X2533885Y2446485D02*
Y2448747D01*
X2533985Y2446485D02*
Y2448747D01*
X2534085Y2446486D02*
Y2448748D01*
X2538291Y2452681D02*
X2538292Y2450419D01*
X2539766*
Y2452681*
X2538291*
X2538292Y2450419D02*
X2538292D01*
Y2450519D02*
X2539766D01*
X2538291Y2450619D02*
X2539766D01*
X2538291Y2450719D02*
X2539766D01*
X2538291Y2450819D02*
X2539766D01*
X2538291Y2450919D02*
X2539766D01*
X2538291Y2451019D02*
X2539766D01*
X2538291Y2451119D02*
X2539766D01*
X2538291Y2451219D02*
X2539766D01*
X2538291Y2451319D02*
X2539766D01*
X2538291Y2451419D02*
X2539766D01*
X2538291Y2451519D02*
X2539766D01*
X2538291Y2451619D02*
X2539766D01*
X2538291Y2451719D02*
X2539766D01*
X2538291Y2451819D02*
X2539766D01*
X2538291Y2451919D02*
X2539766D01*
X2538291Y2452019D02*
X2539766D01*
X2538291Y2452119D02*
X2539766D01*
X2538291Y2452219D02*
X2539766D01*
X2538291Y2452319D02*
X2539766D01*
X2538291Y2452419D02*
X2539766D01*
X2538291Y2452519D02*
X2539766D01*
X2538291Y2452619D02*
X2539766D01*
X2538291Y2452681D02*
X2538291D01*
X2538391Y2450419D02*
Y2452681D01*
X2538491Y2450419D02*
Y2452681D01*
X2538591Y2450419D02*
Y2452681D01*
X2538691Y2450419D02*
Y2452681D01*
X2538791Y2450419D02*
Y2452681D01*
X2538891Y2450419D02*
Y2452681D01*
X2538991Y2450419D02*
Y2452681D01*
X2539091Y2450419D02*
Y2452681D01*
X2539191Y2450419D02*
Y2452681D01*
X2539291Y2450419D02*
Y2452681D01*
X2539391Y2450419D02*
Y2452681D01*
X2539491Y2450419D02*
Y2452681D01*
X2539591Y2450419D02*
Y2452681D01*
X2539691Y2450419D02*
Y2452681D01*
X2538285Y2448740D02*
X2538298Y2446478D01*
X2539772Y2446486*
X2539760Y2448748*
X2538285Y2448740*
X2538298Y2446478D02*
X2538298D01*
X2538297Y2446578D02*
X2539772D01*
X2538296Y2446678D02*
X2539771D01*
X2538296Y2446778D02*
X2539771D01*
X2538295Y2446878D02*
X2539770D01*
X2538295Y2446978D02*
X2539770D01*
X2538294Y2447078D02*
X2539769D01*
X2538294Y2447178D02*
X2539769D01*
X2538293Y2447278D02*
X2539768D01*
X2538293Y2447378D02*
X2539767D01*
X2538292Y2447478D02*
X2539767D01*
X2538292Y2447578D02*
X2539766D01*
X2538291Y2447678D02*
X2539766D01*
X2538290Y2447778D02*
X2539765D01*
X2538290Y2447878D02*
X2539765D01*
X2538289Y2447978D02*
X2539764D01*
X2538289Y2448078D02*
X2539764D01*
X2538288Y2448178D02*
X2539763D01*
X2538288Y2448278D02*
X2539763D01*
X2538287Y2448378D02*
X2539762D01*
X2538287Y2448478D02*
X2539761D01*
X2538286Y2448578D02*
X2539761D01*
X2538285Y2448678D02*
X2539760D01*
X2538285Y2448740D02*
X2538285D01*
X2538385Y2446479D02*
Y2448741D01*
X2538485Y2446479D02*
Y2448741D01*
X2538585Y2446480D02*
Y2448742D01*
X2538685Y2446480D02*
Y2448742D01*
X2538785Y2446481D02*
Y2448743D01*
X2538885Y2446481D02*
Y2448744D01*
X2538985Y2446482D02*
Y2448744D01*
X2539085Y2446482D02*
Y2448745D01*
X2539185Y2446483D02*
Y2448745D01*
X2539285Y2446483D02*
Y2448746D01*
X2539385Y2446484D02*
Y2448746D01*
X2539485Y2446485D02*
Y2448747D01*
X2539585Y2446485D02*
Y2448747D01*
X2539685Y2446486D02*
Y2448748D01*
X2543891Y2452681D02*
X2543892Y2450419D01*
X2545366*
Y2452681*
X2543891*
X2543892Y2450419D02*
X2543892D01*
Y2450519D02*
X2545366D01*
X2543891Y2450619D02*
X2545366D01*
X2543891Y2450719D02*
X2545366D01*
X2543891Y2450819D02*
X2545366D01*
X2543891Y2450919D02*
X2545366D01*
X2543891Y2451019D02*
X2545366D01*
X2543891Y2451119D02*
X2545366D01*
X2543891Y2451219D02*
X2545366D01*
X2543891Y2451319D02*
X2545366D01*
X2543891Y2451419D02*
X2545366D01*
X2543891Y2451519D02*
X2545366D01*
X2543891Y2451619D02*
X2545366D01*
X2543891Y2451719D02*
X2545366D01*
X2543891Y2451819D02*
X2545366D01*
X2543891Y2451919D02*
X2545366D01*
X2543891Y2452019D02*
X2545366D01*
X2543891Y2452119D02*
X2545366D01*
X2543891Y2452219D02*
X2545366D01*
X2543891Y2452319D02*
X2545366D01*
X2543891Y2452419D02*
X2545366D01*
X2543891Y2452519D02*
X2545366D01*
X2543891Y2452619D02*
X2545366D01*
X2543891Y2452681D02*
X2543891D01*
X2543991Y2450419D02*
Y2452681D01*
X2544091Y2450419D02*
Y2452681D01*
X2544191Y2450419D02*
Y2452681D01*
X2544291Y2450419D02*
Y2452681D01*
X2544391Y2450419D02*
Y2452681D01*
X2544491Y2450419D02*
Y2452681D01*
X2544591Y2450419D02*
Y2452681D01*
X2544691Y2450419D02*
Y2452681D01*
X2544791Y2450419D02*
Y2452681D01*
X2544891Y2450419D02*
Y2452681D01*
X2544991Y2450419D02*
Y2452681D01*
X2545091Y2450419D02*
Y2452681D01*
X2545191Y2450419D02*
Y2452681D01*
X2545291Y2450419D02*
Y2452681D01*
X2543885Y2448740D02*
X2543898Y2446478D01*
X2545372Y2446486*
X2545360Y2448748*
X2543885Y2448740*
X2543898Y2446478D02*
X2543898D01*
X2543897Y2446578D02*
X2545372D01*
X2543896Y2446678D02*
X2545371D01*
X2543896Y2446778D02*
X2545371D01*
X2543895Y2446878D02*
X2545370D01*
X2543895Y2446978D02*
X2545370D01*
X2543894Y2447078D02*
X2545369D01*
X2543894Y2447178D02*
X2545369D01*
X2543893Y2447278D02*
X2545368D01*
X2543893Y2447378D02*
X2545367D01*
X2543892Y2447478D02*
X2545367D01*
X2543892Y2447578D02*
X2545366D01*
X2543891Y2447678D02*
X2545366D01*
X2543890Y2447778D02*
X2545365D01*
X2543890Y2447878D02*
X2545365D01*
X2543889Y2447978D02*
X2545364D01*
X2543889Y2448078D02*
X2545364D01*
X2543888Y2448178D02*
X2545363D01*
X2543888Y2448278D02*
X2545363D01*
X2543887Y2448378D02*
X2545362D01*
X2543887Y2448478D02*
X2545361D01*
X2543886Y2448578D02*
X2545361D01*
X2543885Y2448678D02*
X2545360D01*
X2543885Y2448740D02*
X2543885D01*
X2543985Y2446479D02*
Y2448741D01*
X2544085Y2446479D02*
Y2448741D01*
X2544185Y2446480D02*
Y2448742D01*
X2544285Y2446480D02*
Y2448742D01*
X2544385Y2446481D02*
Y2448743D01*
X2544485Y2446481D02*
Y2448744D01*
X2544585Y2446482D02*
Y2448744D01*
X2544685Y2446482D02*
Y2448745D01*
X2544785Y2446483D02*
Y2448745D01*
X2544885Y2446483D02*
Y2448746D01*
X2544985Y2446484D02*
Y2448746D01*
X2545085Y2446485D02*
Y2448747D01*
X2545185Y2446485D02*
Y2448747D01*
X2545285Y2446486D02*
Y2448748D01*
X2556466Y2446519D02*
Y2448781D01*
X2554991*
X2554992Y2446519*
X2556466*
X2554992D02*
X2554992D01*
Y2446619D02*
X2556466D01*
X2554991Y2446719D02*
X2556466D01*
X2554991Y2446819D02*
X2556466D01*
X2554991Y2446919D02*
X2556466D01*
X2554991Y2447019D02*
X2556466D01*
X2554991Y2447119D02*
X2556466D01*
X2554991Y2447219D02*
X2556466D01*
X2554991Y2447319D02*
X2556466D01*
X2554991Y2447419D02*
X2556466D01*
X2554991Y2447519D02*
X2556466D01*
X2554991Y2447619D02*
X2556466D01*
X2554991Y2447719D02*
X2556466D01*
X2554991Y2447819D02*
X2556466D01*
X2554991Y2447919D02*
X2556466D01*
X2554991Y2448019D02*
X2556466D01*
X2554991Y2448119D02*
X2556466D01*
X2554991Y2448219D02*
X2556466D01*
X2554991Y2448319D02*
X2556466D01*
X2554991Y2448419D02*
X2556466D01*
X2554991Y2448519D02*
X2556466D01*
X2554991Y2448619D02*
X2556466D01*
X2554991Y2448719D02*
X2556466D01*
X2554991Y2448781D02*
X2554991D01*
X2555091Y2446519D02*
Y2448781D01*
X2555191Y2446519D02*
Y2448781D01*
X2555291Y2446519D02*
Y2448781D01*
X2555391Y2446519D02*
Y2448781D01*
X2555491Y2446519D02*
Y2448781D01*
X2555591Y2446519D02*
Y2448781D01*
X2555691Y2446519D02*
Y2448781D01*
X2555791Y2446519D02*
Y2448781D01*
X2555891Y2446519D02*
Y2448781D01*
X2555991Y2446519D02*
Y2448781D01*
X2556091Y2446519D02*
Y2448781D01*
X2556191Y2446519D02*
Y2448781D01*
X2556291Y2446519D02*
Y2448781D01*
X2556391Y2446519D02*
Y2448781D01*
X2556472Y2450460D02*
X2556460Y2452722D01*
X2554985Y2452714*
X2554998Y2450452*
X2556472Y2450460*
X2554998Y2450452D02*
X2554998D01*
X2554997Y2450552D02*
X2556472D01*
X2554996Y2450652D02*
X2556471D01*
X2554996Y2450752D02*
X2556471D01*
X2554995Y2450852D02*
X2556470D01*
X2554995Y2450952D02*
X2556470D01*
X2554994Y2451052D02*
X2556469D01*
X2554994Y2451152D02*
X2556469D01*
X2554993Y2451252D02*
X2556468D01*
X2554993Y2451352D02*
X2556467D01*
X2554992Y2451452D02*
X2556467D01*
X2554992Y2451552D02*
X2556466D01*
X2554991Y2451652D02*
X2556466D01*
X2554990Y2451752D02*
X2556465D01*
X2554990Y2451852D02*
X2556465D01*
X2554989Y2451952D02*
X2556464D01*
X2554989Y2452052D02*
X2556464D01*
X2554988Y2452152D02*
X2556463D01*
X2554988Y2452252D02*
X2556463D01*
X2554987Y2452352D02*
X2556462D01*
X2554987Y2452452D02*
X2556461D01*
X2554986Y2452552D02*
X2556461D01*
X2554985Y2452652D02*
X2556460D01*
X2554985Y2452714D02*
X2554985D01*
X2555085Y2450453D02*
Y2452715D01*
X2555185Y2450453D02*
Y2452715D01*
X2555285Y2450454D02*
Y2452716D01*
X2555385Y2450454D02*
Y2452716D01*
X2555485Y2450455D02*
Y2452717D01*
X2555585Y2450455D02*
Y2452718D01*
X2555685Y2450456D02*
Y2452718D01*
X2555785Y2450456D02*
Y2452719D01*
X2555885Y2450457D02*
Y2452719D01*
X2555985Y2450457D02*
Y2452720D01*
X2556085Y2450458D02*
Y2452720D01*
X2556185Y2450459D02*
Y2452721D01*
X2556285Y2450459D02*
Y2452721D01*
X2556385Y2450460D02*
Y2452722D01*
X2567491Y2452681D02*
X2567492Y2450419D01*
X2568966*
Y2452681*
X2567491*
X2567492Y2450419D02*
X2567492D01*
Y2450519D02*
X2568966D01*
X2567491Y2450619D02*
X2568966D01*
X2567491Y2450719D02*
X2568966D01*
X2567491Y2450819D02*
X2568966D01*
X2567491Y2450919D02*
X2568966D01*
X2567491Y2451019D02*
X2568966D01*
X2567491Y2451119D02*
X2568966D01*
X2567491Y2451219D02*
X2568966D01*
X2567491Y2451319D02*
X2568966D01*
X2567491Y2451419D02*
X2568966D01*
X2567491Y2451519D02*
X2568966D01*
X2567491Y2451619D02*
X2568966D01*
X2567491Y2451719D02*
X2568966D01*
X2567491Y2451819D02*
X2568966D01*
X2567491Y2451919D02*
X2568966D01*
X2567491Y2452019D02*
X2568966D01*
X2567491Y2452119D02*
X2568966D01*
X2567491Y2452219D02*
X2568966D01*
X2567491Y2452319D02*
X2568966D01*
X2567491Y2452419D02*
X2568966D01*
X2567491Y2452519D02*
X2568966D01*
X2567491Y2452619D02*
X2568966D01*
X2567520Y2450419D02*
Y2452681D01*
X2567620Y2450419D02*
Y2452681D01*
X2567720Y2450419D02*
Y2452681D01*
X2567820Y2450419D02*
Y2452681D01*
X2567920Y2450419D02*
Y2452681D01*
X2568020Y2450419D02*
Y2452681D01*
X2568120Y2450419D02*
Y2452681D01*
X2568220Y2450419D02*
Y2452681D01*
X2568320Y2450419D02*
Y2452681D01*
X2568420Y2450419D02*
Y2452681D01*
X2568520Y2450419D02*
Y2452681D01*
X2568620Y2450419D02*
Y2452681D01*
X2568720Y2450419D02*
Y2452681D01*
X2568820Y2450419D02*
Y2452681D01*
X2568920Y2450419D02*
Y2452681D01*
X2567485Y2448740D02*
X2567498Y2446478D01*
X2568972Y2446486*
X2568960Y2448748*
X2567485Y2448740*
X2567498Y2446478D02*
X2567498D01*
X2567497Y2446578D02*
X2568972D01*
X2567496Y2446678D02*
X2568971D01*
X2567496Y2446778D02*
X2568971D01*
X2567495Y2446878D02*
X2568970D01*
X2567495Y2446978D02*
X2568970D01*
X2567494Y2447078D02*
X2568969D01*
X2567494Y2447178D02*
X2568969D01*
X2567493Y2447278D02*
X2568968D01*
X2567493Y2447378D02*
X2568967D01*
X2567492Y2447478D02*
X2568967D01*
X2567492Y2447578D02*
X2568966D01*
X2567491Y2447678D02*
X2568966D01*
X2567490Y2447778D02*
X2568965D01*
X2567490Y2447878D02*
X2568965D01*
X2567489Y2447978D02*
X2568964D01*
X2567489Y2448078D02*
X2568964D01*
X2567488Y2448178D02*
X2568963D01*
X2567488Y2448278D02*
X2568963D01*
X2567487Y2448378D02*
X2568962D01*
X2567487Y2448478D02*
X2568961D01*
X2567486Y2448578D02*
X2568961D01*
X2567485Y2448678D02*
X2568960D01*
X2567520Y2446478D02*
Y2448740D01*
X2567620Y2446479D02*
Y2448741D01*
X2567720Y2446479D02*
Y2448742D01*
X2567820Y2446480D02*
Y2448742D01*
X2567920Y2446480D02*
Y2448743D01*
X2568020Y2446481D02*
Y2448743D01*
X2568120Y2446481D02*
Y2448744D01*
X2568220Y2446482D02*
Y2448744D01*
X2568320Y2446483D02*
Y2448745D01*
X2568420Y2446483D02*
Y2448745D01*
X2568520Y2446484D02*
Y2448746D01*
X2568620Y2446484D02*
Y2448746D01*
X2568720Y2446485D02*
Y2448747D01*
X2568820Y2446485D02*
Y2448748D01*
X2568920Y2446486D02*
Y2448748D01*
X2573891Y2452681D02*
X2573892Y2450419D01*
X2575366*
Y2452681*
X2573891*
X2573892Y2450419D02*
X2573892D01*
Y2450519D02*
X2575366D01*
X2573891Y2450619D02*
X2575366D01*
X2573891Y2450719D02*
X2575366D01*
X2573891Y2450819D02*
X2575366D01*
X2573891Y2450919D02*
X2575366D01*
X2573891Y2451019D02*
X2575366D01*
X2573891Y2451119D02*
X2575366D01*
X2573891Y2451219D02*
X2575366D01*
X2573891Y2451319D02*
X2575366D01*
X2573891Y2451419D02*
X2575366D01*
X2573891Y2451519D02*
X2575366D01*
X2573891Y2451619D02*
X2575366D01*
X2573891Y2451719D02*
X2575366D01*
X2573891Y2451819D02*
X2575366D01*
X2573891Y2451919D02*
X2575366D01*
X2573891Y2452019D02*
X2575366D01*
X2573891Y2452119D02*
X2575366D01*
X2573891Y2452219D02*
X2575366D01*
X2573891Y2452319D02*
X2575366D01*
X2573891Y2452419D02*
X2575366D01*
X2573891Y2452519D02*
X2575366D01*
X2573891Y2452619D02*
X2575366D01*
X2573920Y2450419D02*
Y2452681D01*
X2574020Y2450419D02*
Y2452681D01*
X2574120Y2450419D02*
Y2452681D01*
X2574220Y2450419D02*
Y2452681D01*
X2574320Y2450419D02*
Y2452681D01*
X2574420Y2450419D02*
Y2452681D01*
X2574520Y2450419D02*
Y2452681D01*
X2574620Y2450419D02*
Y2452681D01*
X2574720Y2450419D02*
Y2452681D01*
X2574820Y2450419D02*
Y2452681D01*
X2574920Y2450419D02*
Y2452681D01*
X2575020Y2450419D02*
Y2452681D01*
X2575120Y2450419D02*
Y2452681D01*
X2575220Y2450419D02*
Y2452681D01*
X2575320Y2450419D02*
Y2452681D01*
X2573885Y2448740D02*
X2573898Y2446478D01*
X2575372Y2446486*
X2575360Y2448748*
X2573885Y2448740*
X2573898Y2446478D02*
X2573898D01*
X2573897Y2446578D02*
X2575372D01*
X2573896Y2446678D02*
X2575371D01*
X2573896Y2446778D02*
X2575371D01*
X2573895Y2446878D02*
X2575370D01*
X2573895Y2446978D02*
X2575370D01*
X2573894Y2447078D02*
X2575369D01*
X2573894Y2447178D02*
X2575369D01*
X2573893Y2447278D02*
X2575368D01*
X2573893Y2447378D02*
X2575367D01*
X2573892Y2447478D02*
X2575367D01*
X2573892Y2447578D02*
X2575366D01*
X2573891Y2447678D02*
X2575366D01*
X2573890Y2447778D02*
X2575365D01*
X2573890Y2447878D02*
X2575365D01*
X2573889Y2447978D02*
X2575364D01*
X2573889Y2448078D02*
X2575364D01*
X2573888Y2448178D02*
X2575363D01*
X2573888Y2448278D02*
X2575363D01*
X2573887Y2448378D02*
X2575362D01*
X2573887Y2448478D02*
X2575361D01*
X2573886Y2448578D02*
X2575361D01*
X2573885Y2448678D02*
X2575360D01*
X2573920Y2446478D02*
Y2448740D01*
X2574020Y2446479D02*
Y2448741D01*
X2574120Y2446479D02*
Y2448742D01*
X2574220Y2446480D02*
Y2448742D01*
X2574320Y2446480D02*
Y2448743D01*
X2574420Y2446481D02*
Y2448743D01*
X2574520Y2446481D02*
Y2448744D01*
X2574620Y2446482D02*
Y2448744D01*
X2574720Y2446483D02*
Y2448745D01*
X2574820Y2446483D02*
Y2448745D01*
X2574920Y2446484D02*
Y2448746D01*
X2575020Y2446484D02*
Y2448746D01*
X2575120Y2446485D02*
Y2448747D01*
X2575220Y2446485D02*
Y2448748D01*
X2575320Y2446486D02*
Y2448748D01*
X2375266Y2442919D02*
Y2445181D01*
X2373791*
X2373792Y2442919*
X2375266*
X2373792D02*
X2373792D01*
Y2443019D02*
X2375266D01*
X2373791Y2443119D02*
X2375266D01*
X2373791Y2443219D02*
X2375266D01*
X2373791Y2443319D02*
X2375266D01*
X2373791Y2443419D02*
X2375266D01*
X2373791Y2443519D02*
X2375266D01*
X2373791Y2443619D02*
X2375266D01*
X2373791Y2443719D02*
X2375266D01*
X2373791Y2443819D02*
X2375266D01*
X2373791Y2443919D02*
X2375266D01*
X2373791Y2444019D02*
X2375266D01*
X2373791Y2444119D02*
X2375266D01*
X2373791Y2444219D02*
X2375266D01*
X2373791Y2444319D02*
X2375266D01*
X2373791Y2444419D02*
X2375266D01*
X2373791Y2444519D02*
X2375266D01*
X2373791Y2444619D02*
X2375266D01*
X2373791Y2444719D02*
X2375266D01*
X2373791Y2444819D02*
X2375266D01*
X2373791Y2444919D02*
X2375266D01*
X2373791Y2445019D02*
X2375266D01*
X2373791Y2445119D02*
X2375266D01*
X2373791Y2445181D02*
X2373791D01*
X2373891Y2442919D02*
Y2445181D01*
X2373991Y2442919D02*
Y2445181D01*
X2374091Y2442919D02*
Y2445181D01*
X2374191Y2442919D02*
Y2445181D01*
X2374291Y2442919D02*
Y2445181D01*
X2374391Y2442919D02*
Y2445181D01*
X2374491Y2442919D02*
Y2445181D01*
X2374591Y2442919D02*
Y2445181D01*
X2374691Y2442919D02*
Y2445181D01*
X2374791Y2442919D02*
Y2445181D01*
X2374891Y2442919D02*
Y2445181D01*
X2374991Y2442919D02*
Y2445181D01*
X2375091Y2442919D02*
Y2445181D01*
X2375191Y2442919D02*
Y2445181D01*
X2375272Y2446860D02*
X2375260Y2449122D01*
X2373785Y2449114*
X2373798Y2446852*
X2375272Y2446860*
X2373798Y2446852D02*
X2373798D01*
X2373797Y2446952D02*
X2375272D01*
X2373796Y2447052D02*
X2375271D01*
X2373796Y2447152D02*
X2375271D01*
X2373795Y2447252D02*
X2375270D01*
X2373795Y2447352D02*
X2375270D01*
X2373794Y2447452D02*
X2375269D01*
X2373794Y2447552D02*
X2375269D01*
X2373793Y2447652D02*
X2375268D01*
X2373793Y2447752D02*
X2375267D01*
X2373792Y2447852D02*
X2375267D01*
X2373792Y2447952D02*
X2375266D01*
X2373791Y2448052D02*
X2375266D01*
X2373790Y2448152D02*
X2375265D01*
X2373790Y2448252D02*
X2375265D01*
X2373789Y2448352D02*
X2375264D01*
X2373789Y2448452D02*
X2375264D01*
X2373788Y2448552D02*
X2375263D01*
X2373788Y2448652D02*
X2375263D01*
X2373787Y2448752D02*
X2375262D01*
X2373787Y2448852D02*
X2375261D01*
X2373786Y2448952D02*
X2375261D01*
X2373785Y2449052D02*
X2375260D01*
X2373785Y2449114D02*
X2373785D01*
X2373885Y2446853D02*
Y2449115D01*
X2373985Y2446853D02*
Y2449115D01*
X2374085Y2446854D02*
Y2449116D01*
X2374185Y2446854D02*
Y2449116D01*
X2374285Y2446855D02*
Y2449117D01*
X2374385Y2446855D02*
Y2449118D01*
X2374485Y2446856D02*
Y2449118D01*
X2374585Y2446856D02*
Y2449119D01*
X2374685Y2446857D02*
Y2449119D01*
X2374785Y2446857D02*
Y2449120D01*
X2374885Y2446858D02*
Y2449120D01*
X2374985Y2446859D02*
Y2449121D01*
X2375085Y2446859D02*
Y2449121D01*
X2375185Y2446860D02*
Y2449122D01*
X2712589Y2421449D02*
X2714851Y2421450D01*
Y2422924*
X2712588*
X2712589Y2421449*
X2712589*
Y2421549D02*
X2714851D01*
X2712589Y2421649D02*
X2714851D01*
X2712589Y2421749D02*
X2714851D01*
X2712589Y2421849D02*
X2714851D01*
X2712589Y2421949D02*
X2714851D01*
X2712589Y2422049D02*
X2714851D01*
X2712589Y2422149D02*
X2714851D01*
X2712589Y2422249D02*
X2714851D01*
X2712589Y2422349D02*
X2714851D01*
X2712589Y2422449D02*
X2714851D01*
X2712589Y2422549D02*
X2714851D01*
X2712588Y2422649D02*
X2714851D01*
X2712588Y2422749D02*
X2714851D01*
X2712588Y2422849D02*
X2714851D01*
X2712620Y2421449D02*
Y2422924D01*
X2712720Y2421449D02*
Y2422924D01*
X2712820Y2421449D02*
Y2422924D01*
X2712920Y2421449D02*
Y2422924D01*
X2713020Y2421449D02*
Y2422924D01*
X2713120Y2421449D02*
Y2422924D01*
X2713220Y2421449D02*
Y2422924D01*
X2713320Y2421449D02*
Y2422924D01*
X2713420Y2421449D02*
Y2422924D01*
X2713520Y2421449D02*
Y2422924D01*
X2713620Y2421449D02*
Y2422924D01*
X2713720Y2421449D02*
Y2422924D01*
X2713820Y2421449D02*
Y2422924D01*
X2713920Y2421449D02*
Y2422924D01*
X2714020Y2421449D02*
Y2422924D01*
X2714120Y2421449D02*
Y2422924D01*
X2714220Y2421449D02*
Y2422924D01*
X2714320Y2421450D02*
Y2422924D01*
X2714420Y2421450D02*
Y2422924D01*
X2714520Y2421450D02*
Y2422924D01*
X2714620Y2421450D02*
Y2422924D01*
X2714720Y2421450D02*
Y2422924D01*
X2714820Y2421450D02*
Y2422924D01*
X2716530Y2421443D02*
X2718792Y2421456D01*
X2718784Y2422930*
X2716522Y2422918*
X2716530Y2421443*
X2716530*
X2716529Y2421543D02*
X2718791D01*
X2716529Y2421643D02*
X2718791D01*
X2716528Y2421743D02*
X2718790D01*
X2716527Y2421843D02*
X2718790D01*
X2716527Y2421943D02*
X2718789D01*
X2716526Y2422043D02*
X2718789D01*
X2716526Y2422143D02*
X2718788D01*
X2716525Y2422243D02*
X2718788D01*
X2716525Y2422343D02*
X2718787D01*
X2716524Y2422443D02*
X2718786D01*
X2716524Y2422543D02*
X2718786D01*
X2716523Y2422643D02*
X2718785D01*
X2716522Y2422743D02*
X2718785D01*
X2716522Y2422843D02*
X2718784D01*
X2716620Y2421444D02*
Y2422919D01*
X2716720Y2421444D02*
Y2422919D01*
X2716820Y2421445D02*
Y2422920D01*
X2716920Y2421445D02*
Y2422920D01*
X2717020Y2421446D02*
Y2422921D01*
X2717120Y2421446D02*
Y2422921D01*
X2717220Y2421447D02*
Y2422922D01*
X2717320Y2421448D02*
Y2422922D01*
X2717420Y2421448D02*
Y2422923D01*
X2717520Y2421449D02*
Y2422923D01*
X2717620Y2421449D02*
Y2422924D01*
X2717720Y2421450D02*
Y2422925D01*
X2717820Y2421450D02*
Y2422925D01*
X2717920Y2421451D02*
Y2422926D01*
X2718020Y2421451D02*
Y2422926D01*
X2718120Y2421452D02*
Y2422927D01*
X2718220Y2421452D02*
Y2422927D01*
X2718320Y2421453D02*
Y2422928D01*
X2718420Y2421454D02*
Y2422928D01*
X2718520Y2421454D02*
Y2422929D01*
X2718620Y2421455D02*
Y2422930D01*
X2718720Y2421455D02*
Y2422930D01*
X2749891Y2459881D02*
X2749892Y2457619D01*
X2751366*
Y2459881*
X2749891*
X2749892Y2457619D02*
X2749892D01*
Y2457719D02*
X2751366D01*
X2749891Y2457819D02*
X2751366D01*
X2749891Y2457919D02*
X2751366D01*
X2749891Y2458019D02*
X2751366D01*
X2749891Y2458119D02*
X2751366D01*
X2749891Y2458219D02*
X2751366D01*
X2749891Y2458319D02*
X2751366D01*
X2749891Y2458419D02*
X2751366D01*
X2749891Y2458519D02*
X2751366D01*
X2749891Y2458619D02*
X2751366D01*
X2749891Y2458719D02*
X2751366D01*
X2749891Y2458819D02*
X2751366D01*
X2749891Y2458919D02*
X2751366D01*
X2749891Y2459019D02*
X2751366D01*
X2749891Y2459119D02*
X2751366D01*
X2749891Y2459219D02*
X2751366D01*
X2749891Y2459319D02*
X2751366D01*
X2749891Y2459419D02*
X2751366D01*
X2749891Y2459519D02*
X2751366D01*
X2749891Y2459619D02*
X2751366D01*
X2749891Y2459719D02*
X2751366D01*
X2749891Y2459819D02*
X2751366D01*
X2749920Y2457619D02*
Y2459881D01*
X2750020Y2457619D02*
Y2459881D01*
X2750120Y2457619D02*
Y2459881D01*
X2750220Y2457619D02*
Y2459881D01*
X2750320Y2457619D02*
Y2459881D01*
X2750420Y2457619D02*
Y2459881D01*
X2750520Y2457619D02*
Y2459881D01*
X2750620Y2457619D02*
Y2459881D01*
X2750720Y2457619D02*
Y2459881D01*
X2750820Y2457619D02*
Y2459881D01*
X2750920Y2457619D02*
Y2459881D01*
X2751020Y2457619D02*
Y2459881D01*
X2751120Y2457619D02*
Y2459881D01*
X2751220Y2457619D02*
Y2459881D01*
X2751320Y2457619D02*
Y2459881D01*
X2749885Y2455940D02*
X2749898Y2453678D01*
X2751372Y2453686*
X2751360Y2455948*
X2749885Y2455940*
X2749898Y2453678D02*
X2749898D01*
X2749897Y2453778D02*
X2751372D01*
X2749896Y2453878D02*
X2751371D01*
X2749896Y2453978D02*
X2751371D01*
X2749895Y2454078D02*
X2751370D01*
X2749895Y2454178D02*
X2751370D01*
X2749894Y2454278D02*
X2751369D01*
X2749894Y2454378D02*
X2751369D01*
X2749893Y2454478D02*
X2751368D01*
X2749893Y2454578D02*
X2751367D01*
X2749892Y2454678D02*
X2751367D01*
X2749892Y2454778D02*
X2751366D01*
X2749891Y2454878D02*
X2751366D01*
X2749890Y2454978D02*
X2751365D01*
X2749890Y2455078D02*
X2751365D01*
X2749889Y2455178D02*
X2751364D01*
X2749889Y2455278D02*
X2751364D01*
X2749888Y2455378D02*
X2751363D01*
X2749888Y2455478D02*
X2751363D01*
X2749887Y2455578D02*
X2751362D01*
X2749887Y2455678D02*
X2751361D01*
X2749886Y2455778D02*
X2751361D01*
X2749885Y2455878D02*
X2751360D01*
X2749920Y2453678D02*
Y2455940D01*
X2750020Y2453679D02*
Y2455941D01*
X2750120Y2453679D02*
Y2455942D01*
X2750220Y2453680D02*
Y2455942D01*
X2750320Y2453680D02*
Y2455943D01*
X2750420Y2453681D02*
Y2455943D01*
X2750520Y2453681D02*
Y2455944D01*
X2750620Y2453682D02*
Y2455944D01*
X2750720Y2453683D02*
Y2455945D01*
X2750820Y2453683D02*
Y2455945D01*
X2750920Y2453684D02*
Y2455946D01*
X2751020Y2453684D02*
Y2455946D01*
X2751120Y2453685D02*
Y2455947D01*
X2751220Y2453685D02*
Y2455948D01*
X2751320Y2453686D02*
Y2455948D01*
X2692054Y2711240D02*
X2692040Y2703072D01*
X2697452Y2703063*
X2697466Y2711231*
X2692054Y2711240*
X2692040Y2703087D02*
X2697452D01*
X2692040Y2703187D02*
X2697452D01*
X2692040Y2703287D02*
X2697452D01*
X2692040Y2703387D02*
X2697452D01*
X2692041Y2703487D02*
X2697452D01*
X2692041Y2703587D02*
X2697453D01*
X2692041Y2703687D02*
X2697453D01*
X2692041Y2703787D02*
X2697453D01*
X2692041Y2703887D02*
X2697453D01*
X2692041Y2703987D02*
X2697453D01*
X2692042Y2704087D02*
X2697453D01*
X2692042Y2704187D02*
X2697454D01*
X2692042Y2704287D02*
X2697454D01*
X2692042Y2704387D02*
X2697454D01*
X2692042Y2704487D02*
X2697454D01*
X2692042Y2704587D02*
X2697454D01*
X2692043Y2704687D02*
X2697454D01*
X2692043Y2704787D02*
X2697455D01*
X2692043Y2704887D02*
X2697455D01*
X2692043Y2704987D02*
X2697455D01*
X2692043Y2705087D02*
X2697455D01*
X2692043Y2705187D02*
X2697455D01*
X2692044Y2705287D02*
X2697455D01*
X2692044Y2705387D02*
X2697456D01*
X2692044Y2705487D02*
X2697456D01*
X2692044Y2705587D02*
X2697456D01*
X2692044Y2705687D02*
X2697456D01*
X2692044Y2705787D02*
X2697456D01*
X2692045Y2705887D02*
X2697456D01*
X2692045Y2705987D02*
X2697457D01*
X2692045Y2706087D02*
X2697457D01*
X2692045Y2706187D02*
X2697457D01*
X2692045Y2706287D02*
X2697457D01*
X2692045Y2706387D02*
X2697457D01*
X2692046Y2706487D02*
X2697457D01*
X2692046Y2706587D02*
X2697458D01*
X2692046Y2706687D02*
X2697458D01*
X2692046Y2706787D02*
X2697458D01*
X2692046Y2706887D02*
X2697458D01*
X2692047Y2706987D02*
X2697458D01*
X2692047Y2707087D02*
X2697459D01*
X2692047Y2707187D02*
X2697459D01*
X2692047Y2707287D02*
X2697459D01*
X2692047Y2707387D02*
X2697459D01*
X2692047Y2707487D02*
X2697459D01*
X2692048Y2707587D02*
X2697459D01*
X2692048Y2707687D02*
X2697460D01*
X2692048Y2707787D02*
X2697460D01*
X2692048Y2707887D02*
X2697460D01*
X2692048Y2707987D02*
X2697460D01*
X2692048Y2708087D02*
X2697460D01*
X2692049Y2708187D02*
X2697460D01*
X2692049Y2708287D02*
X2697461D01*
X2692049Y2708387D02*
X2697461D01*
X2692049Y2708487D02*
X2697461D01*
X2692049Y2708587D02*
X2697461D01*
X2692049Y2708687D02*
X2697461D01*
X2692050Y2708787D02*
X2697461D01*
X2692050Y2708887D02*
X2697462D01*
X2692050Y2708987D02*
X2697462D01*
X2692050Y2709087D02*
X2697462D01*
X2692050Y2709187D02*
X2697462D01*
X2692050Y2709287D02*
X2697462D01*
X2692051Y2709387D02*
X2697462D01*
X2692051Y2709487D02*
X2697463D01*
X2692051Y2709587D02*
X2697463D01*
X2692051Y2709687D02*
X2697463D01*
X2692051Y2709787D02*
X2697463D01*
X2692051Y2709887D02*
X2697463D01*
X2692052Y2709987D02*
X2697463D01*
X2692052Y2710087D02*
X2697464D01*
X2692052Y2710187D02*
X2697464D01*
X2692052Y2710287D02*
X2697464D01*
X2692052Y2710387D02*
X2697464D01*
X2692053Y2710487D02*
X2697464D01*
X2692053Y2710587D02*
X2697464D01*
X2692053Y2710687D02*
X2697465D01*
X2692053Y2710787D02*
X2697465D01*
X2692053Y2710887D02*
X2697465D01*
X2692053Y2710987D02*
X2697465D01*
X2692054Y2711087D02*
X2697465D01*
X2692054Y2711187D02*
X2697466D01*
X2692120Y2703072D02*
Y2711240D01*
X2692220Y2703072D02*
Y2711240D01*
X2692320Y2703072D02*
Y2711240D01*
X2692420Y2703072D02*
Y2711239D01*
X2692520Y2703072D02*
Y2711239D01*
X2692620Y2703071D02*
Y2711239D01*
X2692720Y2703071D02*
Y2711239D01*
X2692820Y2703071D02*
Y2711239D01*
X2692920Y2703071D02*
Y2711239D01*
X2693020Y2703071D02*
Y2711238D01*
X2693120Y2703070D02*
Y2711238D01*
X2693220Y2703070D02*
Y2711238D01*
X2693320Y2703070D02*
Y2711238D01*
X2693420Y2703070D02*
Y2711238D01*
X2693520Y2703070D02*
Y2711238D01*
X2693620Y2703070D02*
Y2711237D01*
X2693720Y2703069D02*
Y2711237D01*
X2693820Y2703069D02*
Y2711237D01*
X2693920Y2703069D02*
Y2711237D01*
X2694020Y2703069D02*
Y2711237D01*
X2694120Y2703069D02*
Y2711237D01*
X2694220Y2703069D02*
Y2711236D01*
X2694320Y2703068D02*
Y2711236D01*
X2694420Y2703068D02*
Y2711236D01*
X2694520Y2703068D02*
Y2711236D01*
X2694620Y2703068D02*
Y2711236D01*
X2694720Y2703068D02*
Y2711235D01*
X2694820Y2703068D02*
Y2711235D01*
X2694920Y2703067D02*
Y2711235D01*
X2695020Y2703067D02*
Y2711235D01*
X2695120Y2703067D02*
Y2711235D01*
X2695220Y2703067D02*
Y2711235D01*
X2695320Y2703067D02*
Y2711234D01*
X2695420Y2703067D02*
Y2711234D01*
X2695520Y2703066D02*
Y2711234D01*
X2695620Y2703066D02*
Y2711234D01*
X2695720Y2703066D02*
Y2711234D01*
X2695820Y2703066D02*
Y2711234D01*
X2695920Y2703066D02*
Y2711233D01*
X2696020Y2703066D02*
Y2711233D01*
X2696120Y2703065D02*
Y2711233D01*
X2696220Y2703065D02*
Y2711233D01*
X2696320Y2703065D02*
Y2711233D01*
X2696420Y2703065D02*
Y2711233D01*
X2696520Y2703065D02*
Y2711232D01*
X2696620Y2703065D02*
Y2711232D01*
X2696720Y2703064D02*
Y2711232D01*
X2696820Y2703064D02*
Y2711232D01*
X2696920Y2703064D02*
Y2711232D01*
X2697020Y2703064D02*
Y2711232D01*
X2697120Y2703064D02*
Y2711231D01*
X2697220Y2703063D02*
Y2711231D01*
X2697320Y2703063D02*
Y2711231D01*
X2697420Y2703063D02*
Y2711231D01*
X2723550Y2711240D02*
X2723536Y2703072D01*
X2728948Y2703063*
X2728962Y2711231*
X2723550Y2711240*
X2723536Y2703087D02*
X2728948D01*
X2723536Y2703187D02*
X2728948D01*
X2723536Y2703287D02*
X2728948D01*
X2723536Y2703387D02*
X2728948D01*
X2723537Y2703487D02*
X2728948D01*
X2723537Y2703587D02*
X2728949D01*
X2723537Y2703687D02*
X2728949D01*
X2723537Y2703787D02*
X2728949D01*
X2723537Y2703887D02*
X2728949D01*
X2723537Y2703987D02*
X2728949D01*
X2723538Y2704087D02*
X2728949D01*
X2723538Y2704187D02*
X2728950D01*
X2723538Y2704287D02*
X2728950D01*
X2723538Y2704387D02*
X2728950D01*
X2723538Y2704487D02*
X2728950D01*
X2723538Y2704587D02*
X2728950D01*
X2723539Y2704687D02*
X2728950D01*
X2723539Y2704787D02*
X2728951D01*
X2723539Y2704887D02*
X2728951D01*
X2723539Y2704987D02*
X2728951D01*
X2723539Y2705087D02*
X2728951D01*
X2723539Y2705187D02*
X2728951D01*
X2723540Y2705287D02*
X2728951D01*
X2723540Y2705387D02*
X2728952D01*
X2723540Y2705487D02*
X2728952D01*
X2723540Y2705587D02*
X2728952D01*
X2723540Y2705687D02*
X2728952D01*
X2723541Y2705787D02*
X2728952D01*
X2723541Y2705887D02*
X2728953D01*
X2723541Y2705987D02*
X2728953D01*
X2723541Y2706087D02*
X2728953D01*
X2723541Y2706187D02*
X2728953D01*
X2723541Y2706287D02*
X2728953D01*
X2723542Y2706387D02*
X2728953D01*
X2723542Y2706487D02*
X2728954D01*
X2723542Y2706587D02*
X2728954D01*
X2723542Y2706687D02*
X2728954D01*
X2723542Y2706787D02*
X2728954D01*
X2723542Y2706887D02*
X2728954D01*
X2723543Y2706987D02*
X2728954D01*
X2723543Y2707087D02*
X2728955D01*
X2723543Y2707187D02*
X2728955D01*
X2723543Y2707287D02*
X2728955D01*
X2723543Y2707387D02*
X2728955D01*
X2723543Y2707487D02*
X2728955D01*
X2723544Y2707587D02*
X2728955D01*
X2723544Y2707687D02*
X2728956D01*
X2723544Y2707787D02*
X2728956D01*
X2723544Y2707887D02*
X2728956D01*
X2723544Y2707987D02*
X2728956D01*
X2723544Y2708087D02*
X2728956D01*
X2723545Y2708187D02*
X2728956D01*
X2723545Y2708287D02*
X2728957D01*
X2723545Y2708387D02*
X2728957D01*
X2723545Y2708487D02*
X2728957D01*
X2723545Y2708587D02*
X2728957D01*
X2723545Y2708687D02*
X2728957D01*
X2723546Y2708787D02*
X2728957D01*
X2723546Y2708887D02*
X2728958D01*
X2723546Y2708987D02*
X2728958D01*
X2723546Y2709087D02*
X2728958D01*
X2723546Y2709187D02*
X2728958D01*
X2723547Y2709287D02*
X2728958D01*
X2723547Y2709387D02*
X2728959D01*
X2723547Y2709487D02*
X2728959D01*
X2723547Y2709587D02*
X2728959D01*
X2723547Y2709687D02*
X2728959D01*
X2723547Y2709787D02*
X2728959D01*
X2723548Y2709887D02*
X2728959D01*
X2723548Y2709987D02*
X2728960D01*
X2723548Y2710087D02*
X2728960D01*
X2723548Y2710187D02*
X2728960D01*
X2723548Y2710287D02*
X2728960D01*
X2723548Y2710387D02*
X2728960D01*
X2723549Y2710487D02*
X2728960D01*
X2723549Y2710587D02*
X2728961D01*
X2723549Y2710687D02*
X2728961D01*
X2723549Y2710787D02*
X2728961D01*
X2723549Y2710887D02*
X2728961D01*
X2723549Y2710987D02*
X2728961D01*
X2723550Y2711087D02*
X2728961D01*
X2723550Y2711187D02*
X2728962D01*
X2723620Y2703072D02*
Y2711240D01*
X2723720Y2703072D02*
Y2711240D01*
X2723820Y2703072D02*
Y2711240D01*
X2723920Y2703072D02*
Y2711239D01*
X2724020Y2703072D02*
Y2711239D01*
X2724120Y2703071D02*
Y2711239D01*
X2724220Y2703071D02*
Y2711239D01*
X2724320Y2703071D02*
Y2711239D01*
X2724420Y2703071D02*
Y2711239D01*
X2724520Y2703071D02*
Y2711238D01*
X2724620Y2703070D02*
Y2711238D01*
X2724720Y2703070D02*
Y2711238D01*
X2724820Y2703070D02*
Y2711238D01*
X2724920Y2703070D02*
Y2711238D01*
X2725020Y2703070D02*
Y2711238D01*
X2725120Y2703070D02*
Y2711237D01*
X2725220Y2703069D02*
Y2711237D01*
X2725320Y2703069D02*
Y2711237D01*
X2725420Y2703069D02*
Y2711237D01*
X2725520Y2703069D02*
Y2711237D01*
X2725620Y2703069D02*
Y2711237D01*
X2725720Y2703069D02*
Y2711236D01*
X2725820Y2703068D02*
Y2711236D01*
X2725920Y2703068D02*
Y2711236D01*
X2726020Y2703068D02*
Y2711236D01*
X2726120Y2703068D02*
Y2711236D01*
X2726220Y2703068D02*
Y2711235D01*
X2726320Y2703068D02*
Y2711235D01*
X2726420Y2703067D02*
Y2711235D01*
X2726520Y2703067D02*
Y2711235D01*
X2726620Y2703067D02*
Y2711235D01*
X2726720Y2703067D02*
Y2711235D01*
X2726820Y2703067D02*
Y2711234D01*
X2726920Y2703067D02*
Y2711234D01*
X2727020Y2703066D02*
Y2711234D01*
X2727120Y2703066D02*
Y2711234D01*
X2727220Y2703066D02*
Y2711234D01*
X2727320Y2703066D02*
Y2711234D01*
X2727420Y2703066D02*
Y2711233D01*
X2727520Y2703066D02*
Y2711233D01*
X2727620Y2703065D02*
Y2711233D01*
X2727720Y2703065D02*
Y2711233D01*
X2727820Y2703065D02*
Y2711233D01*
X2727920Y2703065D02*
Y2711233D01*
X2728020Y2703065D02*
Y2711232D01*
X2728120Y2703065D02*
Y2711232D01*
X2728220Y2703064D02*
Y2711232D01*
X2728320Y2703064D02*
Y2711232D01*
X2728420Y2703064D02*
Y2711232D01*
X2728520Y2703064D02*
Y2711232D01*
X2728620Y2703064D02*
Y2711231D01*
X2728720Y2703063D02*
Y2711231D01*
X2728820Y2703063D02*
Y2711231D01*
X2728920Y2703063D02*
Y2711231D01*
X2718219Y2691545D02*
X2718237Y2683377D01*
X2723255Y2683388*
X2723237Y2691556*
X2718219Y2691545*
X2718237Y2683387D02*
X2722550D01*
X2718237Y2683487D02*
X2723255D01*
X2718237Y2683587D02*
X2723255D01*
X2718237Y2683687D02*
X2723255D01*
X2718236Y2683787D02*
X2723254D01*
X2718236Y2683887D02*
X2723254D01*
X2718236Y2683987D02*
X2723254D01*
X2718236Y2684087D02*
X2723254D01*
X2718235Y2684187D02*
X2723254D01*
X2718235Y2684287D02*
X2723253D01*
X2718235Y2684387D02*
X2723253D01*
X2718235Y2684487D02*
X2723253D01*
X2718234Y2684587D02*
X2723253D01*
X2718234Y2684687D02*
X2723252D01*
X2718234Y2684787D02*
X2723252D01*
X2718234Y2684887D02*
X2723252D01*
X2718234Y2684987D02*
X2723252D01*
X2718233Y2685087D02*
X2723251D01*
X2718233Y2685187D02*
X2723251D01*
X2718233Y2685287D02*
X2723251D01*
X2718233Y2685387D02*
X2723251D01*
X2718232Y2685487D02*
X2723251D01*
X2718232Y2685587D02*
X2723250D01*
X2718232Y2685687D02*
X2723250D01*
X2718232Y2685787D02*
X2723250D01*
X2718232Y2685887D02*
X2723250D01*
X2718231Y2685987D02*
X2723249D01*
X2718231Y2686087D02*
X2723249D01*
X2718231Y2686187D02*
X2723249D01*
X2718231Y2686287D02*
X2723249D01*
X2718230Y2686387D02*
X2723248D01*
X2718230Y2686487D02*
X2723248D01*
X2718230Y2686587D02*
X2723248D01*
X2718230Y2686687D02*
X2723248D01*
X2718229Y2686787D02*
X2723248D01*
X2718229Y2686887D02*
X2723247D01*
X2718229Y2686987D02*
X2723247D01*
X2718229Y2687087D02*
X2723247D01*
X2718229Y2687187D02*
X2723247D01*
X2718228Y2687287D02*
X2723246D01*
X2718228Y2687387D02*
X2723246D01*
X2718228Y2687487D02*
X2723246D01*
X2718228Y2687587D02*
X2723246D01*
X2718227Y2687687D02*
X2723246D01*
X2718227Y2687787D02*
X2723245D01*
X2718227Y2687887D02*
X2723245D01*
X2718227Y2687987D02*
X2723245D01*
X2718226Y2688087D02*
X2723245D01*
X2718226Y2688187D02*
X2723244D01*
X2718226Y2688287D02*
X2723244D01*
X2718226Y2688387D02*
X2723244D01*
X2718226Y2688487D02*
X2723244D01*
X2718225Y2688587D02*
X2723243D01*
X2718225Y2688687D02*
X2723243D01*
X2718225Y2688787D02*
X2723243D01*
X2718225Y2688887D02*
X2723243D01*
X2718224Y2688987D02*
X2723243D01*
X2718224Y2689087D02*
X2723242D01*
X2718224Y2689187D02*
X2723242D01*
X2718224Y2689287D02*
X2723242D01*
X2718224Y2689387D02*
X2723242D01*
X2718223Y2689487D02*
X2723241D01*
X2718223Y2689587D02*
X2723241D01*
X2718223Y2689687D02*
X2723241D01*
X2718223Y2689787D02*
X2723241D01*
X2718222Y2689887D02*
X2723240D01*
X2718222Y2689987D02*
X2723240D01*
X2718222Y2690087D02*
X2723240D01*
X2718222Y2690187D02*
X2723240D01*
X2718221Y2690287D02*
X2723240D01*
X2718221Y2690387D02*
X2723239D01*
X2718221Y2690487D02*
X2723239D01*
X2718221Y2690587D02*
X2723239D01*
X2718221Y2690687D02*
X2723239D01*
X2718220Y2690787D02*
X2723238D01*
X2718220Y2690887D02*
X2723238D01*
X2718220Y2690987D02*
X2723238D01*
X2718220Y2691087D02*
X2723238D01*
X2718219Y2691187D02*
X2723238D01*
X2718219Y2691287D02*
X2723237D01*
X2718219Y2691387D02*
X2723237D01*
X2718219Y2691487D02*
X2723237D01*
X2718220Y2691057D02*
Y2691545D01*
X2718320Y2683377D02*
Y2691545D01*
X2718420Y2683377D02*
Y2691545D01*
X2718520Y2683378D02*
Y2691545D01*
X2718620Y2683378D02*
Y2691546D01*
X2718720Y2683378D02*
Y2691546D01*
X2718820Y2683378D02*
Y2691546D01*
X2718920Y2683379D02*
Y2691546D01*
X2719020Y2683379D02*
Y2691546D01*
X2719120Y2683379D02*
Y2691547D01*
X2719220Y2683379D02*
Y2691547D01*
X2719320Y2683379D02*
Y2691547D01*
X2719420Y2683380D02*
Y2691547D01*
X2719520Y2683380D02*
Y2691548D01*
X2719620Y2683380D02*
Y2691548D01*
X2719720Y2683380D02*
Y2691548D01*
X2719820Y2683381D02*
Y2691548D01*
X2719920Y2683381D02*
Y2691549D01*
X2720020Y2683381D02*
Y2691549D01*
X2720120Y2683381D02*
Y2691549D01*
X2720220Y2683381D02*
Y2691549D01*
X2720320Y2683382D02*
Y2691549D01*
X2720420Y2683382D02*
Y2691550D01*
X2720520Y2683382D02*
Y2691550D01*
X2720620Y2683382D02*
Y2691550D01*
X2720720Y2683383D02*
Y2691550D01*
X2720820Y2683383D02*
Y2691551D01*
X2720920Y2683383D02*
Y2691551D01*
X2721020Y2683383D02*
Y2691551D01*
X2721120Y2683384D02*
Y2691551D01*
X2721220Y2683384D02*
Y2691552D01*
X2721320Y2683384D02*
Y2691552D01*
X2721420Y2683384D02*
Y2691552D01*
X2721520Y2683384D02*
Y2691552D01*
X2721620Y2683385D02*
Y2691552D01*
X2721720Y2683385D02*
Y2691553D01*
X2721820Y2683385D02*
Y2691553D01*
X2721920Y2683385D02*
Y2691553D01*
X2722020Y2683386D02*
Y2691553D01*
X2722120Y2683386D02*
Y2691554D01*
X2722220Y2683386D02*
Y2691554D01*
X2722320Y2683386D02*
Y2691554D01*
X2722420Y2683387D02*
Y2691554D01*
X2722520Y2683387D02*
Y2691554D01*
X2722620Y2683387D02*
Y2691555D01*
X2722720Y2683387D02*
Y2691555D01*
X2722820Y2683387D02*
Y2691555D01*
X2722920Y2683388D02*
Y2691555D01*
X2723020Y2683388D02*
Y2691556D01*
X2723120Y2683388D02*
Y2691556D01*
X2723220Y2683388D02*
Y2691556D01*
G54D12*
X2416920Y2616117D03*
G54D13*
Y2645645D03*
G54D16*
X2368350Y2448896D03*
Y2439841D03*
X2751028Y2439881D03*
Y2448936D03*
G54D18*
X2683648Y2417316D03*
G54D19*
X2689160D03*
X2573380Y2418141D03*
X2541886Y2418150D03*
X2743998Y2404409D03*
X2751506Y2407421D03*
X2754506Y2415016D03*
X2736483Y2407457D03*
X2733538Y2414941D03*
X2736518Y2422567D03*
X2743994Y2425374D03*
X2751447Y2422460D03*
X2743998Y2694410D03*
X2751506Y2697421D03*
X2754506Y2705016D03*
X2736483Y2697457D03*
X2733538Y2704941D03*
X2736518Y2712567D03*
X2743994Y2715374D03*
X2751447Y2712461D03*
X2375398Y2694210D03*
X2382906Y2697221D03*
X2385906Y2704816D03*
X2367883Y2697257D03*
X2364938Y2704741D03*
X2367918Y2712367D03*
X2375394Y2715174D03*
X2382847Y2712261D03*
X2375398Y2404410D03*
X2382906Y2407421D03*
X2385906Y2415016D03*
X2367883Y2407457D03*
X2364938Y2414941D03*
X2367918Y2422567D03*
X2375394Y2425374D03*
X2382847Y2422461D03*
G54D20*
X2637510Y2686287D03*
X2633730D03*
X2728930Y2521887D03*
X2732710D03*
X2535560Y2544887D03*
X2531780D03*
X2535810Y2554387D03*
X2532030D03*
X2517780Y2532637D03*
X2521560D03*
X2730979Y2463890D03*
Y2460110D03*
X2396689Y2624000D03*
X2400469D03*
X2388579Y2631890D03*
Y2628110D03*
X2427220Y2472597D03*
Y2476377D03*
X2422620Y2472597D03*
Y2476377D03*
X2656020Y2412197D03*
Y2415977D03*
X2720310Y2478887D03*
X2716530D03*
X2702280Y2440387D03*
X2706060D03*
X2715889Y2612800D03*
X2719669D03*
X2706310Y2470887D03*
X2702530D03*
X2720060Y2638637D03*
X2716280D03*
X2451269Y2502000D03*
X2447489D03*
X2683779Y2666290D03*
Y2662510D03*
X2709420Y2623747D03*
Y2627527D03*
X2520420Y2600997D03*
Y2604777D03*
X2644020Y2641197D03*
Y2644977D03*
X2647920Y2641247D03*
Y2645027D03*
X2520030Y2540387D03*
X2523810D03*
X2520030Y2544637D03*
X2523810D03*
X2545669Y2511200D03*
X2541889D03*
X2702689Y2457600D03*
X2706469D03*
X2711910Y2478887D03*
X2708130D03*
X2605379Y2422910D03*
Y2426690D03*
X2619379Y2422910D03*
Y2426690D03*
X2478420Y2472377D03*
Y2468597D03*
X2727920Y2662747D03*
Y2666527D03*
X2396820Y2472577D03*
Y2468797D03*
X2574670Y2489527D03*
Y2485747D03*
X2570060Y2487137D03*
X2566280D03*
X2578920Y2489527D03*
Y2485747D03*
X2645420Y2440977D03*
Y2437197D03*
X2444930Y2577087D03*
X2448710D03*
X2706310Y2465287D03*
X2702530D03*
X2743269Y2464000D03*
X2739489D03*
X2549670Y2581277D03*
Y2577497D03*
X2397930Y2569887D03*
X2401710D03*
X2569379Y2429310D03*
Y2433090D03*
X2580289Y2421600D03*
X2584069D03*
X2629195Y2622847D03*
Y2626627D03*
X2600179Y2422910D03*
Y2426690D03*
X2503889Y2432800D03*
X2507669D03*
X2521330Y2484487D03*
X2525110D03*
X2374579Y2457090D03*
Y2453310D03*
X2450020Y2602197D03*
Y2605977D03*
X2660869Y2530400D03*
X2657089D03*
X2581495Y2508547D03*
Y2512327D03*
X2486130Y2463287D03*
X2489910D03*
X2410930Y2463887D03*
X2414710D03*
X2514469Y2421200D03*
X2510689D03*
X2714030Y2427137D03*
X2717810D03*
X2490020Y2621977D03*
Y2618197D03*
X2481020Y2621977D03*
Y2618197D03*
X2467620Y2621977D03*
Y2618197D03*
X2454220Y2611197D03*
Y2614977D03*
X2572910Y2496687D03*
X2569130D03*
X2697779Y2662510D03*
Y2666290D03*
X2661420Y2662197D03*
Y2665977D03*
X2557420Y2569527D03*
Y2565747D03*
X2637510Y2703087D03*
X2633730D03*
X2535310Y2615387D03*
X2531530D03*
X2674179Y2658690D03*
Y2654910D03*
X2379379Y2457090D03*
Y2453310D03*
X2671530Y2415687D03*
X2675310D03*
X2680530Y2425387D03*
X2684310D03*
X2454220Y2584777D03*
Y2580997D03*
X2517920Y2629997D03*
Y2633777D03*
X2531170D03*
Y2629997D03*
X2629730Y2611487D03*
X2633510D03*
X2643910D03*
X2640130D03*
X2651110D03*
X2647330D03*
X2498420Y2642027D03*
Y2638247D03*
X2585420Y2638997D03*
Y2642777D03*
X2503420Y2629997D03*
Y2633777D03*
X2575920Y2642777D03*
Y2638997D03*
X2570920D03*
Y2642777D03*
X2503170Y2638247D03*
Y2642027D03*
X2580420Y2642777D03*
Y2638997D03*
X2508420Y2633777D03*
Y2629997D03*
X2589420Y2638997D03*
Y2642777D03*
X2526920Y2642277D03*
Y2638497D03*
X2565970Y2638822D03*
Y2642602D03*
X2524020Y2699997D03*
Y2703777D03*
X2532130Y2707487D03*
X2535910D03*
X2528220Y2699997D03*
Y2703777D03*
X2532130Y2711887D03*
X2535910D03*
X2730979Y2452110D03*
Y2455890D03*
X2702280Y2444887D03*
X2706060D03*
X2680179Y2441090D03*
Y2437310D03*
X2671710Y2448887D03*
X2667930D03*
X2688220Y2666377D03*
Y2662597D03*
X2514469Y2599600D03*
X2510689D03*
X2535910Y2701487D03*
X2532130D03*
X2550420Y2627027D03*
Y2623247D03*
X2482620Y2484577D03*
Y2480797D03*
X2412110Y2483887D03*
X2408330D03*
X2652620Y2441177D03*
Y2437397D03*
X2454030Y2566387D03*
X2457810D03*
X2457910Y2577087D03*
X2454130D03*
X2550220Y2448197D03*
Y2451977D03*
X2540170Y2581277D03*
Y2577497D03*
X2544420Y2581277D03*
Y2577497D03*
X2590420Y2485747D03*
Y2489527D03*
X2581774Y2474690D03*
Y2478470D03*
X2586420Y2485747D03*
Y2489527D03*
X2586498Y2474690D03*
Y2478470D03*
X2388579Y2647890D03*
Y2644110D03*
X2387889Y2624000D03*
X2391669D03*
X2720060Y2634637D03*
X2716280D03*
X2533379Y2430510D03*
Y2434290D03*
X2422420Y2696977D03*
Y2693197D03*
X2451269Y2519200D03*
X2447489D03*
X2553560Y2601137D03*
X2549780D03*
X2615330Y2588287D03*
X2619110D03*
X2544280Y2501887D03*
X2548060D03*
X2556310Y2613387D03*
X2552530D03*
X2542030Y2610387D03*
X2545810D03*
X2506560Y2599637D03*
X2502780D03*
X2522420Y2633777D03*
Y2629997D03*
X2513420Y2633777D03*
Y2629997D03*
X2449310Y2566387D03*
X2445530D03*
X2678979Y2662510D03*
Y2666290D03*
X2550356Y2520674D03*
X2554137D03*
X2442469Y2601600D03*
X2438689D03*
X2570420Y2533277D03*
Y2529497D03*
X2582080Y2502112D03*
X2585860D03*
X2574420Y2533527D03*
Y2529747D03*
X2491280Y2519887D03*
X2495060D03*
X2480155Y2534287D03*
X2483935D03*
X2481030Y2521387D03*
X2484810D03*
X2483935Y2529787D03*
X2480155D03*
X2564620Y2504377D03*
Y2500597D03*
X2446310Y2481287D03*
X2442530D03*
X2553560Y2596887D03*
X2549780D03*
X2570695Y2508322D03*
Y2512102D03*
X2464420Y2472397D03*
Y2476177D03*
X2545810Y2606387D03*
X2542030D03*
X2546069Y2601600D03*
X2542289D03*
X2566170Y2533277D03*
Y2529497D03*
X2563310Y2616637D03*
X2559530D03*
X2561920Y2529497D03*
Y2533277D03*
X2466869Y2415600D03*
X2463089D03*
X2573978Y2550202D03*
X2577759D03*
X2573170Y2604527D03*
Y2600747D03*
X2593820Y2621977D03*
Y2618197D03*
X2573978Y2545871D03*
X2577759D03*
X2573978Y2541540D03*
X2577759D03*
X2428979Y2612510D03*
Y2616290D03*
X2413420Y2701277D03*
Y2697497D03*
X2425910Y2687287D03*
X2422130D03*
X2546060Y2523887D03*
X2542280D03*
X2624979Y2426690D03*
Y2422910D03*
X2473820Y2472377D03*
Y2468597D03*
X2401820Y2472577D03*
Y2468797D03*
X2639420Y2441177D03*
Y2437397D03*
X2474910Y2590687D03*
X2471130D03*
X2485620Y2621977D03*
Y2618197D03*
X2490310Y2614287D03*
X2486530D03*
X2476620Y2618197D03*
Y2621977D03*
X2467530Y2614287D03*
X2471310D03*
X2459330Y2614087D03*
X2463110D03*
X2566645Y2512102D03*
Y2508322D03*
X2546069Y2626800D03*
X2542289D03*
X2593820Y2626197D03*
Y2629977D03*
X2675310Y2411287D03*
X2671530D03*
X2563269Y2621200D03*
X2559489D03*
X2564020Y2603977D03*
Y2600197D03*
X2680530Y2430387D03*
X2684310D03*
X2549889Y2511600D03*
X2553669D03*
X2551530Y2501887D03*
X2555310D03*
X2549680Y2506387D03*
X2553460D03*
X2659220Y2444777D03*
Y2440997D03*
X2388579Y2635710D03*
Y2639490D03*
X2404689Y2624000D03*
X2408469D03*
X2692069Y2699600D03*
X2688289D03*
X2693379Y2666290D03*
Y2662510D03*
X2688330Y2695687D03*
X2692110D03*
X2637510D03*
X2633730D03*
X2637510Y2691287D03*
X2633730D03*
X2532280Y2549637D03*
X2536060D03*
X2519780Y2549137D03*
X2523560D03*
X2637420Y2640797D03*
Y2644577D03*
X2565130Y2632887D03*
X2568910D03*
X2559530Y2536887D03*
X2563310D03*
X2524130Y2707487D03*
X2527910D03*
X2679269Y2627200D03*
X2675489D03*
X2688179Y2617490D03*
Y2613710D03*
X2557670Y2581527D03*
Y2577747D03*
X2445130Y2585287D03*
X2448910D03*
X2569170Y2600747D03*
Y2604527D03*
X2556170Y2534997D03*
Y2538777D03*
X2552170Y2534997D03*
Y2538777D03*
X2549889Y2516000D03*
X2553669D03*
X2666530Y2666687D03*
X2670310D03*
X2511089Y2620800D03*
X2514869D03*
X2674179Y2662510D03*
Y2666290D03*
X2573305Y2501887D03*
X2577085D03*
X2448910Y2581287D03*
X2445130D03*
X2546310Y2505637D03*
X2542530D03*
X2546263Y2515556D03*
X2542482D03*
X2463220Y2621777D03*
Y2617997D03*
X2459220Y2621777D03*
Y2617997D03*
X2578420Y2533777D03*
Y2529997D03*
X2666530Y2662487D03*
X2670310D03*
X2649269Y2687200D03*
X2645489D03*
X2563269Y2626000D03*
X2559489D03*
X2510530Y2594387D03*
X2514310D03*
X2558780Y2543387D03*
X2562560D03*
X2522420Y2638497D03*
Y2642277D03*
X2511089Y2625200D03*
X2514869D03*
X2615330Y2583887D03*
X2619110D03*
X2517920Y2638497D03*
Y2642277D03*
X2555170Y2623247D03*
Y2627027D03*
X2513420Y2642277D03*
Y2638497D03*
X2542280Y2621887D03*
X2546060D03*
X2583655Y2518762D03*
X2587435D03*
X2699530Y2476387D03*
X2703310D03*
X2647440Y2506171D03*
X2643660D03*
X2636080Y2530707D03*
X2639860D03*
X2586130Y2509537D03*
X2589910D03*
X2587330Y2529687D03*
X2591110D03*
X2634559Y2506170D03*
X2638339D03*
X2647360Y2530707D03*
X2643580D03*
X2630760Y2506240D03*
X2626980D03*
X2632660Y2530707D03*
X2628880D03*
X2584420Y2533797D03*
Y2537577D03*
X2579560Y2518987D03*
X2575780D03*
X2438420Y2535197D03*
Y2538977D03*
X2542780Y2527887D03*
X2546560D03*
X2526670Y2629997D03*
Y2633777D03*
X2664710Y2670087D03*
X2660930D03*
X2661330Y2639087D03*
X2665110D03*
X2693420Y2655197D03*
Y2658977D03*
X2685020Y2655197D03*
Y2658977D03*
X2679330Y2406287D03*
X2683110D03*
X2675310D03*
X2671530D03*
G54D22*
X2450920Y2463887D03*
X2457120D03*
X2549879Y2440800D03*
X2556079D03*
X2522770Y2495137D03*
X2516570D03*
G54D23*
X2490420Y2609087D03*
X2484420D03*
X2687179Y2690000D03*
X2693179D03*
X2655579Y2687200D03*
X2661579D03*
X2645620Y2629487D03*
Y2635487D03*
G54D24*
X2641720Y2618287D03*
X2655120D03*
G54D25*
X2704920Y2669087D03*
Y2655687D03*
X2612420Y2594787D03*
Y2608187D03*
G54D26*
X2566457Y2690287D03*
X2553583D03*
G54D27*
X2639820Y2432524D03*
Y2419650D03*
X2531170Y2610324D03*
Y2597450D03*
G54D30*
X2576420Y2524387D03*
X2584420D03*
X2633620Y2605487D03*
X2625620D03*
X2640020D03*
X2648020D03*
X2547620Y2693487D03*
X2539620D03*
X2545920Y2534887D03*
X2537920D03*
G54D31*
X2713670Y2660387D03*
Y2668387D03*
X2721420Y2660387D03*
Y2668387D03*
X2558939Y2505651D03*
Y2513651D03*
X2576095Y2506212D03*
Y2514212D03*
G54D32*
X2567335Y2440800D03*
X2561823D03*
X2543914Y2616637D03*
X2549426D03*
X2468376Y2463887D03*
X2462864D03*
X2553426Y2591887D03*
X2547914D03*
X2447423Y2513600D03*
X2452935D03*
X2447423Y2496400D03*
X2452935D03*
X2486264Y2602087D03*
X2491776D03*
X2580464Y2632087D03*
X2585976D03*
X2662135Y2693200D03*
X2656623D03*
X2556971Y2525792D03*
X2551459D03*
X2556971Y2530910D03*
X2551459D03*
X2690414Y2640887D03*
X2695926D03*
G54D33*
X2448220Y2617243D03*
Y2611731D03*
X2508420Y2643643D03*
Y2638131D03*
X2633020Y2639331D03*
Y2644843D03*
X2454420Y2607243D03*
Y2601731D03*
X2443220Y2474243D03*
Y2468731D03*
X2569170Y2614393D03*
Y2608881D03*
X2730820Y2445843D03*
Y2440331D03*
X2533620Y2530843D03*
Y2525331D03*
X2536670Y2625893D03*
Y2620381D03*
X2580620Y2699043D03*
Y2693531D03*
X2619620Y2609843D03*
Y2604331D03*
G54D34*
X2715225Y2707152D03*
G54D35*
X2717391Y2675656D03*
G54D36*
X2703611Y2677624D03*
G54D37*
X2603660Y2693634D03*
X2623660D03*
G54D38*
X2624683Y2703477D03*
X2602636D03*
G54D39*
X2623660Y2683398D03*
X2613660D03*
X2603660D03*
G54D40*
X2605121Y2414777D03*
X2625121D03*
G54D41*
X2615121D03*
G54D42*
X2549048Y2427460D03*
Y2434940D03*
X2557709Y2431200D03*
X2576648Y2427460D03*
Y2434940D03*
X2585309Y2431200D03*
X2665089Y2435647D03*
Y2443127D03*
X2673750Y2439387D03*
X2713089Y2484647D03*
Y2492127D03*
X2721750Y2488387D03*
X2665089Y2421647D03*
Y2429127D03*
X2673750Y2425387D03*
X2712889Y2465147D03*
Y2472627D03*
X2721550Y2468887D03*
X2713448Y2450260D03*
Y2457740D03*
X2722109Y2454000D03*
X2687048Y2435860D03*
Y2443340D03*
X2695709Y2439600D03*
X2713448Y2435860D03*
Y2443340D03*
X2722109Y2439600D03*
G54D44*
X2631855Y2434763D03*
X2401213Y2454158D03*
X2482220Y2454131D03*
G54D45*
X2703779Y2687800D03*
X2621855Y2434763D03*
X2611855D03*
X2601855D03*
X2411056Y2454158D03*
X2418930D03*
X2428772D03*
X2492062Y2454131D03*
X2499936D03*
X2509779D03*
X2379451Y2663332D03*
X2369005Y2653332D03*
X2379451D03*
X2369005Y2643332D03*
X2379451D03*
X2369005Y2633332D03*
X2379451D03*
X2369005Y2623332D03*
X2379451D03*
X2369005Y2613332D03*
X2379451D03*
X2369005Y2603332D03*
X2379451D03*
X2369005Y2593332D03*
X2379451D03*
Y2583332D03*
X2369005Y2573332D03*
X2379451D03*
X2369005Y2563332D03*
X2379451D03*
X2369005Y2553332D03*
X2379451D03*
X2369005Y2543332D03*
X2379451D03*
X2369005Y2533332D03*
X2379451D03*
Y2523332D03*
X2369005Y2513332D03*
X2379451D03*
X2369005Y2503332D03*
X2379451D03*
X2369005Y2493332D03*
X2379451D03*
X2369005Y2483332D03*
X2379451D03*
X2369005Y2473332D03*
X2379451D03*
X2750711Y2663450D03*
X2740265Y2653450D03*
X2750711D03*
X2740265Y2643450D03*
X2750711D03*
X2740265Y2633450D03*
X2750711D03*
X2740265Y2623450D03*
X2750711D03*
X2740265Y2613450D03*
X2750711D03*
X2740265Y2603450D03*
X2750711D03*
X2740265Y2593450D03*
X2750711D03*
X2740265Y2583450D03*
X2750711D03*
X2740265Y2573450D03*
X2750711D03*
X2740265Y2563450D03*
X2750711D03*
X2740265Y2553450D03*
X2750711D03*
X2740265Y2543450D03*
X2750711D03*
X2740265Y2533450D03*
X2750711D03*
X2740265Y2523450D03*
X2750711D03*
X2740265Y2513450D03*
X2750711D03*
X2740265Y2503450D03*
X2750711D03*
X2740265Y2493450D03*
X2750711D03*
X2740265Y2483450D03*
X2750711D03*
X2740265Y2473450D03*
X2750711D03*
G54D46*
X2703779Y2697800D03*
Y2707800D03*
X2369005Y2583332D03*
Y2523332D03*
G54D48*
X2413487Y2707926D03*
G54D49*
Y2688241D03*
X2393802D03*
Y2707926D03*
X2403644Y2698084D03*
G54D50*
X2440977Y2443528D03*
X2388615D03*
X2521983Y2443501D03*
X2469621D03*
G54D52*
X2663582Y2675945D03*
G54D60*
X2638086Y2411221D03*
X2663283Y2411614D03*
G54D61*
X2490424Y2677387D03*
X2443416D03*
G54D63*
X2432983Y2704158D03*
X2500857D03*
G54D73*
X2369005Y2663332D03*
G54D74*
X2740265Y2663450D03*
G54D83*
X2517994Y2684560D03*
X2575081D03*
G54D84*
X2517994Y2708969D03*
X2575081D03*
G54D87*
X2750220Y2688287D03*
X2388620Y2455087D03*
G54D88*
X2636420Y2455887D03*
X2670420Y2577887D03*
X2618420D03*
X2686420Y2455887D03*
G54D89*
X2704420Y2493887D03*
X2602420Y2467887D03*
X2704420Y2539887D03*
G54D92*
X2754720Y2688287D02*
G75*
G03X2754720I-4500J0D01*
G01X2393120Y2455087D02*
G03X2393120I-4500J0D01*
G01X2754720Y2688287D02*
G03X2754720I-4500J0D01*
G01X2393120Y2455087D02*
G03X2393120I-4500J0D01*
G54D104*
G01X2656720Y2595587D02*
X2667120D01*
Y2582987*
X2656720*
Y2595587*
X2682520Y2634187D02*
X2686320D01*
Y2622187*
X2682520*
Y2634187*
X2560520Y2526787D02*
X2571920D01*
Y2515187*
X2563520*
Y2517587*
X2556920*
Y2522187*
X2560520*
Y2526787*
X2403120Y2438187D02*
X2421920D01*
Y2418387*
X2403120*
Y2438187*
X2751579Y2402400D02*
G03X2756579Y2407400I-0J5000D01*
G01X2751579Y2402400D02*
X2367878D01*
X2362878Y2407400D02*
G03X2367878Y2402400I5000J0D01*
G01X2362878Y2407400D02*
Y2712361D01*
X2367878Y2717361D02*
G03X2362878Y2712361I-0J-5000D01*
G01X2367878Y2717361D02*
X2438020D01*
Y2682687*
X2495620*
Y2717361*
X2656579*
Y2712400*
X2670579*
Y2717361*
X2751579*
X2756579Y2712361D02*
G03X2751579Y2717361I-5000J-0D01*
G01X2756579Y2712361D02*
Y2407400D01*
G54D116*
X2476020Y2426408D03*
Y2416566D03*
G54D117*
X2441883Y2421977D03*
G54D118*
X2540979Y2427657D03*
Y2434743D03*
G54D119*
X2681579Y2707200D03*
X2667579D03*
G54D121*
X2694319Y2674469D03*
X2686839D03*
X2690579Y2683131D03*
X2640280Y2597418D03*
X2647760D03*
X2644020Y2588756D03*
X2625880Y2597418D03*
X2633360D03*
X2629620Y2588756D03*
X2722160Y2644056D03*
X2714680D03*
X2718420Y2652718D03*
X2515119Y2606069D03*
X2507639D03*
X2511379Y2614731D03*
X2722319Y2619269D03*
X2714839D03*
X2718579Y2627931D03*
X2660880Y2654218D03*
X2668360D03*
X2664620Y2645556D03*
G54D122*
X2645880Y2429418D03*
X2649620D03*
X2653360D03*
Y2420756D03*
X2645880D03*
X2442319Y2607669D03*
X2438579D03*
X2434839D03*
Y2616331D03*
X2442319D03*
G54D123*
X2408089Y2468947D03*
Y2472687D03*
Y2476427D03*
X2416750D03*
Y2468947D03*
X2449889D03*
Y2472687D03*
Y2476427D03*
X2458550D03*
Y2468947D03*
X2484089Y2468747D03*
Y2472487D03*
Y2476227D03*
X2492750D03*
Y2468747D03*
G54D125*
X2640759Y2653910D03*
X2638790D03*
X2636822D03*
X2634853D03*
X2632885D03*
X2630916D03*
G54D126*
X2451464Y2628391D03*
X2440440D03*
X2426661D03*
X2416818D03*
X2414850Y2677210D03*
X2422724D03*
G54D127*
X2624545Y2621476D03*
X2619545D03*
X2614545D03*
X2609545D03*
Y2641948D03*
X2614545D03*
X2619545D03*
X2624545D03*
G54D128*
X2485721Y2418561D03*
Y2421120D03*
Y2423680D03*
Y2426239D03*
X2503437D03*
Y2423680D03*
Y2421120D03*
Y2418561D03*
G54D129*
X2679218Y2673142D03*
X2676659D03*
X2674099D03*
X2671540D03*
Y2690858D03*
X2674099D03*
X2676659D03*
X2679218D03*
G54D130*
X2602379Y2657002D03*
X2510253D03*
G54D131*
X2594702Y2651096D03*
X2592733D03*
X2590765D03*
X2588797D03*
X2586828D03*
X2584860D03*
X2582891D03*
X2580923D03*
X2578954D03*
X2576986D03*
X2575017D03*
X2573049D03*
X2571080D03*
X2569112D03*
X2567143D03*
X2565175D03*
X2563206D03*
X2561238D03*
X2559269D03*
X2557301D03*
X2555332D03*
X2553364D03*
X2551394D03*
X2549427D03*
X2547457D03*
X2545490D03*
X2543520D03*
X2541553D03*
X2539584D03*
X2537616D03*
X2535647D03*
X2533678D03*
X2531710D03*
X2529741D03*
X2527773D03*
X2525804D03*
X2523836D03*
X2521867D03*
X2519899D03*
X2517930D03*
G54D132*
X2626942Y2496029D03*
Y2492880D03*
Y2489730D03*
Y2477132D03*
Y2473982D03*
Y2470833D03*
X2630092Y2496029D03*
Y2492880D03*
Y2489730D03*
Y2477132D03*
Y2473982D03*
Y2470833D03*
X2633242Y2496029D03*
Y2492880D03*
Y2489730D03*
Y2477132D03*
Y2473982D03*
Y2470833D03*
X2636391Y2496029D03*
Y2492880D03*
Y2489730D03*
Y2477132D03*
Y2473982D03*
Y2470833D03*
X2639541Y2496029D03*
Y2492880D03*
Y2489730D03*
Y2477132D03*
Y2473982D03*
Y2470833D03*
X2642690Y2496029D03*
Y2492880D03*
Y2489730D03*
Y2477132D03*
Y2473982D03*
Y2470833D03*
X2645840Y2496029D03*
Y2492880D03*
Y2489730D03*
Y2477132D03*
Y2473982D03*
Y2470833D03*
X2648990Y2496029D03*
Y2492880D03*
Y2489730D03*
Y2477132D03*
Y2473982D03*
Y2470833D03*
X2652139Y2496029D03*
Y2492880D03*
Y2489730D03*
Y2477132D03*
Y2473982D03*
Y2470833D03*
X2655289Y2496029D03*
Y2492880D03*
Y2489730D03*
Y2477132D03*
Y2473982D03*
Y2470833D03*
X2658438Y2496029D03*
Y2492880D03*
Y2489730D03*
Y2477132D03*
Y2473982D03*
Y2470833D03*
X2661588Y2496029D03*
Y2492880D03*
Y2489730D03*
Y2477132D03*
Y2473982D03*
Y2470833D03*
X2664738Y2496029D03*
Y2492880D03*
Y2489730D03*
Y2477132D03*
Y2473982D03*
Y2470833D03*
X2667887Y2496029D03*
Y2492880D03*
Y2489730D03*
Y2477132D03*
Y2473982D03*
Y2470833D03*
X2671037Y2496029D03*
Y2492880D03*
Y2489730D03*
Y2477132D03*
Y2473982D03*
Y2470833D03*
X2674186Y2496029D03*
Y2492880D03*
Y2489730D03*
Y2477132D03*
Y2473982D03*
Y2470833D03*
X2626943Y2566225D03*
Y2563075D03*
Y2559926D03*
Y2547327D03*
Y2544178D03*
Y2541028D03*
X2630092Y2566225D03*
Y2563075D03*
Y2559926D03*
Y2547327D03*
Y2544178D03*
Y2541028D03*
X2633242Y2566225D03*
Y2563075D03*
Y2559926D03*
Y2547327D03*
Y2544178D03*
Y2541028D03*
X2636391Y2566225D03*
Y2563075D03*
Y2559926D03*
Y2547327D03*
Y2544178D03*
Y2541028D03*
X2639541Y2566225D03*
Y2563075D03*
Y2559926D03*
Y2547327D03*
Y2544178D03*
Y2541028D03*
X2642691Y2566225D03*
Y2563075D03*
Y2559926D03*
Y2547327D03*
Y2544178D03*
Y2541028D03*
X2645840Y2566225D03*
Y2563075D03*
Y2559926D03*
Y2547327D03*
Y2544178D03*
Y2541028D03*
X2648990Y2566225D03*
Y2563075D03*
Y2559926D03*
Y2547327D03*
Y2544178D03*
Y2541028D03*
X2652139Y2566225D03*
Y2563075D03*
Y2559926D03*
Y2547327D03*
Y2544178D03*
Y2541028D03*
X2655289Y2566225D03*
Y2563075D03*
Y2559926D03*
Y2547327D03*
Y2544178D03*
Y2541028D03*
X2658439Y2566225D03*
Y2563075D03*
Y2559926D03*
Y2547327D03*
Y2544178D03*
Y2541028D03*
X2661588Y2566225D03*
Y2563075D03*
Y2559926D03*
Y2547327D03*
Y2544178D03*
Y2541028D03*
X2664738Y2566225D03*
Y2563075D03*
Y2559926D03*
Y2547327D03*
Y2544178D03*
Y2541028D03*
X2667887Y2566225D03*
Y2563075D03*
Y2559926D03*
Y2547327D03*
Y2544178D03*
Y2541028D03*
X2671037Y2566225D03*
Y2563075D03*
Y2559926D03*
Y2547327D03*
Y2544178D03*
Y2541028D03*
X2674187Y2566225D03*
Y2563075D03*
Y2559926D03*
Y2547327D03*
Y2544178D03*
Y2541028D03*
G54D134*
X2550670Y2545897D03*
Y2553377D03*
G54D135*
X2431083Y2582274D03*
Y2580306D03*
Y2578337D03*
Y2576369D03*
Y2574400D03*
Y2572432D03*
Y2570463D03*
Y2568495D03*
Y2566526D03*
Y2564558D03*
Y2562589D03*
Y2560621D03*
Y2558652D03*
Y2556684D03*
Y2554715D03*
Y2552747D03*
Y2550778D03*
Y2548810D03*
Y2546841D03*
Y2544873D03*
Y2542904D03*
Y2540936D03*
Y2538967D03*
Y2536999D03*
G54D136*
X2425178Y2529322D03*
Y2589952D03*
G54D149*
X2559620Y2707808D03*
Y2697966D03*
G54D152*
X2547760Y2700572D03*
X2544020D03*
X2540280D03*
Y2711202D03*
X2544020D03*
X2547760D03*
G54D154*
X2729449Y2432308D03*
X2701890D03*
G54D156*
X2605379Y2446405D03*
Y2451995D03*
X2591779D03*
Y2446405D03*
X2598979Y2451995D03*
Y2446405D03*
X2584979Y2451995D03*
Y2446405D03*
X2744179Y2443195D03*
Y2437605D03*
X2737379Y2451605D03*
Y2457195D03*
Y2443195D03*
Y2437605D03*
X2744179Y2457195D03*
Y2451605D03*
G54D157*
X2532763Y2693887D03*
X2525677D03*
G54D158*
X2724528Y2422466D03*
X2706811D03*
G54D159*
X2585774Y2414800D03*
X2580183D03*
X2496574Y2433200D03*
X2490983D03*
G54D160*
X2649589Y2656901D03*
X2622019Y2656920D03*
G74*
X0Y0D02*
M02*
