%TF.GenerationSoftware,KiCad,Pcbnew,9.0.5*%
%TF.CreationDate,2025-10-21T20:43:03-06:00*%
%TF.ProjectId,SparkFun_Qwiic_GNSS_SAM-M8Q_panelized,53706172-6b46-4756-9e5f-51776969635f,v10*%
%TF.SameCoordinates,Original*%
%TF.FileFunction,Paste,Top*%
%TF.FilePolarity,Positive*%
%FSLAX46Y46*%
G04 Gerber Fmt 4.6, Leading zero omitted, Abs format (unit mm)*
G04 Created by KiCad (PCBNEW 9.0.5) date 2025-10-21 20:43:03*
%MOMM*%
%LPD*%
G01*
G04 APERTURE LIST*
G04 Aperture macros list*
%AMRoundRect*
0 Rectangle with rounded corners*
0 $1 Rounding radius*
0 $2 $3 $4 $5 $6 $7 $8 $9 X,Y pos of 4 corners*
0 Add a 4 corners polygon primitive as box body*
4,1,4,$2,$3,$4,$5,$6,$7,$8,$9,$2,$3,0*
0 Add four circle primitives for the rounded corners*
1,1,$1+$1,$2,$3*
1,1,$1+$1,$4,$5*
1,1,$1+$1,$6,$7*
1,1,$1+$1,$8,$9*
0 Add four rect primitives between the rounded corners*
20,1,$1+$1,$2,$3,$4,$5,0*
20,1,$1+$1,$4,$5,$6,$7,0*
20,1,$1+$1,$6,$7,$8,$9,0*
20,1,$1+$1,$8,$9,$2,$3,0*%
G04 Aperture macros list end*
%ADD10C,0.000000*%
%ADD11RoundRect,0.225000X0.225000X0.250000X-0.225000X0.250000X-0.225000X-0.250000X0.225000X-0.250000X0*%
%ADD12RoundRect,0.225000X-0.250000X0.225000X-0.250000X-0.225000X0.250000X-0.225000X0.250000X0.225000X0*%
%ADD13R,0.830000X0.630000*%
%ADD14R,1.200000X0.550000*%
%ADD15RoundRect,0.200000X0.275000X-0.200000X0.275000X0.200000X-0.275000X0.200000X-0.275000X-0.200000X0*%
%ADD16RoundRect,0.200000X0.200000X0.275000X-0.200000X0.275000X-0.200000X-0.275000X0.200000X-0.275000X0*%
%ADD17RoundRect,0.200000X-0.275000X0.200000X-0.275000X-0.200000X0.275000X-0.200000X0.275000X0.200000X0*%
%ADD18RoundRect,0.140000X0.140000X0.170000X-0.140000X0.170000X-0.140000X-0.170000X0.140000X-0.170000X0*%
%ADD19R,0.700000X0.300000*%
%ADD20R,1.350000X0.600000*%
%ADD21R,2.000000X1.200000*%
%ADD22R,0.300000X1.000000*%
%ADD23O,1.000000X1.600000*%
%ADD24O,1.000000X2.100000*%
%ADD25R,1.500000X1.600000*%
%ADD26RoundRect,0.218750X-0.218750X-0.256250X0.218750X-0.256250X0.218750X0.256250X-0.218750X0.256250X0*%
%ADD27RoundRect,0.225000X0.250000X-0.225000X0.250000X0.225000X-0.250000X0.225000X-0.250000X-0.225000X0*%
G04 APERTURE END LIST*
D10*
%TO.C,J4*%
G36*
X61475000Y134692000D02*
G01*
X61075000Y134692000D01*
X61075000Y135692000D01*
X61475000Y135692000D01*
X61475000Y134692000D01*
G37*
G36*
X62250000Y134692000D02*
G01*
X61850000Y134692000D01*
X61850000Y135692000D01*
X62250000Y135692000D01*
X62250000Y134692000D01*
G37*
G36*
X67150000Y134692000D02*
G01*
X66750000Y134692000D01*
X66750000Y135692000D01*
X67150000Y135692000D01*
X67150000Y134692000D01*
G37*
G36*
X67925000Y134692000D02*
G01*
X67525000Y134692000D01*
X67525000Y135692000D01*
X67925000Y135692000D01*
X67925000Y134692000D01*
G37*
G36*
X61475000Y105744000D02*
G01*
X61075000Y105744000D01*
X61075000Y106744000D01*
X61475000Y106744000D01*
X61475000Y105744000D01*
G37*
G36*
X62250000Y105744000D02*
G01*
X61850000Y105744000D01*
X61850000Y106744000D01*
X62250000Y106744000D01*
X62250000Y105744000D01*
G37*
G36*
X67150000Y105744000D02*
G01*
X66750000Y105744000D01*
X66750000Y106744000D01*
X67150000Y106744000D01*
X67150000Y105744000D01*
G37*
G36*
X67925000Y105744000D02*
G01*
X67525000Y105744000D01*
X67525000Y106744000D01*
X67925000Y106744000D01*
X67925000Y105744000D01*
G37*
G36*
X61475000Y76796000D02*
G01*
X61075000Y76796000D01*
X61075000Y77796000D01*
X61475000Y77796000D01*
X61475000Y76796000D01*
G37*
G36*
X62250000Y76796000D02*
G01*
X61850000Y76796000D01*
X61850000Y77796000D01*
X62250000Y77796000D01*
X62250000Y76796000D01*
G37*
G36*
X67150000Y76796000D02*
G01*
X66750000Y76796000D01*
X66750000Y77796000D01*
X67150000Y77796000D01*
X67150000Y76796000D01*
G37*
G36*
X67925000Y76796000D02*
G01*
X67525000Y76796000D01*
X67525000Y77796000D01*
X67925000Y77796000D01*
X67925000Y76796000D01*
G37*
G36*
X61475000Y47848000D02*
G01*
X61075000Y47848000D01*
X61075000Y48848000D01*
X61475000Y48848000D01*
X61475000Y47848000D01*
G37*
G36*
X62250000Y47848000D02*
G01*
X61850000Y47848000D01*
X61850000Y48848000D01*
X62250000Y48848000D01*
X62250000Y47848000D01*
G37*
G36*
X67150000Y47848000D02*
G01*
X66750000Y47848000D01*
X66750000Y48848000D01*
X67150000Y48848000D01*
X67150000Y47848000D01*
G37*
G36*
X67925000Y47848000D02*
G01*
X67525000Y47848000D01*
X67525000Y48848000D01*
X67925000Y48848000D01*
X67925000Y47848000D01*
G37*
G36*
X61475000Y18900000D02*
G01*
X61075000Y18900000D01*
X61075000Y19900000D01*
X61475000Y19900000D01*
X61475000Y18900000D01*
G37*
G36*
X62250000Y18900000D02*
G01*
X61850000Y18900000D01*
X61850000Y19900000D01*
X62250000Y19900000D01*
X62250000Y18900000D01*
G37*
G36*
X67150000Y18900000D02*
G01*
X66750000Y18900000D01*
X66750000Y19900000D01*
X67150000Y19900000D01*
X67150000Y18900000D01*
G37*
G36*
X67925000Y18900000D02*
G01*
X67525000Y18900000D01*
X67525000Y19900000D01*
X67925000Y19900000D01*
X67925000Y18900000D01*
G37*
G36*
X35575000Y134692000D02*
G01*
X35175000Y134692000D01*
X35175000Y135692000D01*
X35575000Y135692000D01*
X35575000Y134692000D01*
G37*
G36*
X36350000Y134692000D02*
G01*
X35950000Y134692000D01*
X35950000Y135692000D01*
X36350000Y135692000D01*
X36350000Y134692000D01*
G37*
G36*
X41250000Y134692000D02*
G01*
X40850000Y134692000D01*
X40850000Y135692000D01*
X41250000Y135692000D01*
X41250000Y134692000D01*
G37*
G36*
X42025000Y134692000D02*
G01*
X41625000Y134692000D01*
X41625000Y135692000D01*
X42025000Y135692000D01*
X42025000Y134692000D01*
G37*
G36*
X35575000Y105744000D02*
G01*
X35175000Y105744000D01*
X35175000Y106744000D01*
X35575000Y106744000D01*
X35575000Y105744000D01*
G37*
G36*
X36350000Y105744000D02*
G01*
X35950000Y105744000D01*
X35950000Y106744000D01*
X36350000Y106744000D01*
X36350000Y105744000D01*
G37*
G36*
X41250000Y105744000D02*
G01*
X40850000Y105744000D01*
X40850000Y106744000D01*
X41250000Y106744000D01*
X41250000Y105744000D01*
G37*
G36*
X42025000Y105744000D02*
G01*
X41625000Y105744000D01*
X41625000Y106744000D01*
X42025000Y106744000D01*
X42025000Y105744000D01*
G37*
G36*
X35575000Y76796000D02*
G01*
X35175000Y76796000D01*
X35175000Y77796000D01*
X35575000Y77796000D01*
X35575000Y76796000D01*
G37*
G36*
X36350000Y76796000D02*
G01*
X35950000Y76796000D01*
X35950000Y77796000D01*
X36350000Y77796000D01*
X36350000Y76796000D01*
G37*
G36*
X41250000Y76796000D02*
G01*
X40850000Y76796000D01*
X40850000Y77796000D01*
X41250000Y77796000D01*
X41250000Y76796000D01*
G37*
G36*
X42025000Y76796000D02*
G01*
X41625000Y76796000D01*
X41625000Y77796000D01*
X42025000Y77796000D01*
X42025000Y76796000D01*
G37*
G36*
X35575000Y47848000D02*
G01*
X35175000Y47848000D01*
X35175000Y48848000D01*
X35575000Y48848000D01*
X35575000Y47848000D01*
G37*
G36*
X36350000Y47848000D02*
G01*
X35950000Y47848000D01*
X35950000Y48848000D01*
X36350000Y48848000D01*
X36350000Y47848000D01*
G37*
G36*
X41250000Y47848000D02*
G01*
X40850000Y47848000D01*
X40850000Y48848000D01*
X41250000Y48848000D01*
X41250000Y47848000D01*
G37*
G36*
X42025000Y47848000D02*
G01*
X41625000Y47848000D01*
X41625000Y48848000D01*
X42025000Y48848000D01*
X42025000Y47848000D01*
G37*
G36*
X35575000Y18900000D02*
G01*
X35175000Y18900000D01*
X35175000Y19900000D01*
X35575000Y19900000D01*
X35575000Y18900000D01*
G37*
G36*
X36350000Y18900000D02*
G01*
X35950000Y18900000D01*
X35950000Y19900000D01*
X36350000Y19900000D01*
X36350000Y18900000D01*
G37*
G36*
X41250000Y18900000D02*
G01*
X40850000Y18900000D01*
X40850000Y19900000D01*
X41250000Y19900000D01*
X41250000Y18900000D01*
G37*
G36*
X42025000Y18900000D02*
G01*
X41625000Y18900000D01*
X41625000Y19900000D01*
X42025000Y19900000D01*
X42025000Y18900000D01*
G37*
G36*
X9675000Y134692000D02*
G01*
X9275000Y134692000D01*
X9275000Y135692000D01*
X9675000Y135692000D01*
X9675000Y134692000D01*
G37*
G36*
X10450000Y134692000D02*
G01*
X10050000Y134692000D01*
X10050000Y135692000D01*
X10450000Y135692000D01*
X10450000Y134692000D01*
G37*
G36*
X15350000Y134692000D02*
G01*
X14950000Y134692000D01*
X14950000Y135692000D01*
X15350000Y135692000D01*
X15350000Y134692000D01*
G37*
G36*
X16125000Y134692000D02*
G01*
X15725000Y134692000D01*
X15725000Y135692000D01*
X16125000Y135692000D01*
X16125000Y134692000D01*
G37*
G36*
X9675000Y105744000D02*
G01*
X9275000Y105744000D01*
X9275000Y106744000D01*
X9675000Y106744000D01*
X9675000Y105744000D01*
G37*
G36*
X10450000Y105744000D02*
G01*
X10050000Y105744000D01*
X10050000Y106744000D01*
X10450000Y106744000D01*
X10450000Y105744000D01*
G37*
G36*
X15350000Y105744000D02*
G01*
X14950000Y105744000D01*
X14950000Y106744000D01*
X15350000Y106744000D01*
X15350000Y105744000D01*
G37*
G36*
X16125000Y105744000D02*
G01*
X15725000Y105744000D01*
X15725000Y106744000D01*
X16125000Y106744000D01*
X16125000Y105744000D01*
G37*
G36*
X9675000Y76796000D02*
G01*
X9275000Y76796000D01*
X9275000Y77796000D01*
X9675000Y77796000D01*
X9675000Y76796000D01*
G37*
G36*
X10450000Y76796000D02*
G01*
X10050000Y76796000D01*
X10050000Y77796000D01*
X10450000Y77796000D01*
X10450000Y76796000D01*
G37*
G36*
X15350000Y76796000D02*
G01*
X14950000Y76796000D01*
X14950000Y77796000D01*
X15350000Y77796000D01*
X15350000Y76796000D01*
G37*
G36*
X16125000Y76796000D02*
G01*
X15725000Y76796000D01*
X15725000Y77796000D01*
X16125000Y77796000D01*
X16125000Y76796000D01*
G37*
G36*
X9675000Y47848000D02*
G01*
X9275000Y47848000D01*
X9275000Y48848000D01*
X9675000Y48848000D01*
X9675000Y47848000D01*
G37*
G36*
X10450000Y47848000D02*
G01*
X10050000Y47848000D01*
X10050000Y48848000D01*
X10450000Y48848000D01*
X10450000Y47848000D01*
G37*
G36*
X15350000Y47848000D02*
G01*
X14950000Y47848000D01*
X14950000Y48848000D01*
X15350000Y48848000D01*
X15350000Y47848000D01*
G37*
G36*
X16125000Y47848000D02*
G01*
X15725000Y47848000D01*
X15725000Y48848000D01*
X16125000Y48848000D01*
X16125000Y47848000D01*
G37*
%TO.C,U4*%
G36*
X62875000Y133810500D02*
G01*
X62000000Y133810500D01*
X62000000Y134060500D01*
X62875000Y134060500D01*
X62875000Y133810500D01*
G37*
G36*
X62875000Y133310500D02*
G01*
X62000000Y133310500D01*
X62000000Y133560500D01*
X62875000Y133560500D01*
X62875000Y133310500D01*
G37*
G36*
X62875000Y132810500D02*
G01*
X62000000Y132810500D01*
X62000000Y133060500D01*
X62875000Y133060500D01*
X62875000Y132810500D01*
G37*
G36*
X62875000Y132310500D02*
G01*
X62000000Y132310500D01*
X62000000Y132560500D01*
X62875000Y132560500D01*
X62875000Y132310500D01*
G37*
G36*
X62875000Y131810500D02*
G01*
X62000000Y131810500D01*
X62000000Y132060500D01*
X62875000Y132060500D01*
X62875000Y131810500D01*
G37*
G36*
X67000000Y133810500D02*
G01*
X66125000Y133810500D01*
X66125000Y134060500D01*
X67000000Y134060500D01*
X67000000Y133810500D01*
G37*
G36*
X67000000Y133310500D02*
G01*
X66125000Y133310500D01*
X66125000Y133560500D01*
X67000000Y133560500D01*
X67000000Y133310500D01*
G37*
G36*
X67000000Y132810500D02*
G01*
X66125000Y132810500D01*
X66125000Y133060500D01*
X67000000Y133060500D01*
X67000000Y132810500D01*
G37*
G36*
X67000000Y132310500D02*
G01*
X66125000Y132310500D01*
X66125000Y132560500D01*
X67000000Y132560500D01*
X67000000Y132310500D01*
G37*
G36*
X67000000Y131810500D02*
G01*
X66125000Y131810500D01*
X66125000Y132060500D01*
X67000000Y132060500D01*
X67000000Y131810500D01*
G37*
G36*
X62875000Y104862500D02*
G01*
X62000000Y104862500D01*
X62000000Y105112500D01*
X62875000Y105112500D01*
X62875000Y104862500D01*
G37*
G36*
X62875000Y104362500D02*
G01*
X62000000Y104362500D01*
X62000000Y104612500D01*
X62875000Y104612500D01*
X62875000Y104362500D01*
G37*
G36*
X62875000Y103862500D02*
G01*
X62000000Y103862500D01*
X62000000Y104112500D01*
X62875000Y104112500D01*
X62875000Y103862500D01*
G37*
G36*
X62875000Y103362500D02*
G01*
X62000000Y103362500D01*
X62000000Y103612500D01*
X62875000Y103612500D01*
X62875000Y103362500D01*
G37*
G36*
X62875000Y102862500D02*
G01*
X62000000Y102862500D01*
X62000000Y103112500D01*
X62875000Y103112500D01*
X62875000Y102862500D01*
G37*
G36*
X67000000Y104862500D02*
G01*
X66125000Y104862500D01*
X66125000Y105112500D01*
X67000000Y105112500D01*
X67000000Y104862500D01*
G37*
G36*
X67000000Y104362500D02*
G01*
X66125000Y104362500D01*
X66125000Y104612500D01*
X67000000Y104612500D01*
X67000000Y104362500D01*
G37*
G36*
X67000000Y103862500D02*
G01*
X66125000Y103862500D01*
X66125000Y104112500D01*
X67000000Y104112500D01*
X67000000Y103862500D01*
G37*
G36*
X67000000Y103362500D02*
G01*
X66125000Y103362500D01*
X66125000Y103612500D01*
X67000000Y103612500D01*
X67000000Y103362500D01*
G37*
G36*
X67000000Y102862500D02*
G01*
X66125000Y102862500D01*
X66125000Y103112500D01*
X67000000Y103112500D01*
X67000000Y102862500D01*
G37*
G36*
X62875000Y75914500D02*
G01*
X62000000Y75914500D01*
X62000000Y76164500D01*
X62875000Y76164500D01*
X62875000Y75914500D01*
G37*
G36*
X62875000Y75414500D02*
G01*
X62000000Y75414500D01*
X62000000Y75664500D01*
X62875000Y75664500D01*
X62875000Y75414500D01*
G37*
G36*
X62875000Y74914500D02*
G01*
X62000000Y74914500D01*
X62000000Y75164500D01*
X62875000Y75164500D01*
X62875000Y74914500D01*
G37*
G36*
X62875000Y74414500D02*
G01*
X62000000Y74414500D01*
X62000000Y74664500D01*
X62875000Y74664500D01*
X62875000Y74414500D01*
G37*
G36*
X62875000Y73914500D02*
G01*
X62000000Y73914500D01*
X62000000Y74164500D01*
X62875000Y74164500D01*
X62875000Y73914500D01*
G37*
G36*
X67000000Y75914500D02*
G01*
X66125000Y75914500D01*
X66125000Y76164500D01*
X67000000Y76164500D01*
X67000000Y75914500D01*
G37*
G36*
X67000000Y75414500D02*
G01*
X66125000Y75414500D01*
X66125000Y75664500D01*
X67000000Y75664500D01*
X67000000Y75414500D01*
G37*
G36*
X67000000Y74914500D02*
G01*
X66125000Y74914500D01*
X66125000Y75164500D01*
X67000000Y75164500D01*
X67000000Y74914500D01*
G37*
G36*
X67000000Y74414500D02*
G01*
X66125000Y74414500D01*
X66125000Y74664500D01*
X67000000Y74664500D01*
X67000000Y74414500D01*
G37*
G36*
X67000000Y73914500D02*
G01*
X66125000Y73914500D01*
X66125000Y74164500D01*
X67000000Y74164500D01*
X67000000Y73914500D01*
G37*
G36*
X62875000Y46966500D02*
G01*
X62000000Y46966500D01*
X62000000Y47216500D01*
X62875000Y47216500D01*
X62875000Y46966500D01*
G37*
G36*
X62875000Y46466500D02*
G01*
X62000000Y46466500D01*
X62000000Y46716500D01*
X62875000Y46716500D01*
X62875000Y46466500D01*
G37*
G36*
X62875000Y45966500D02*
G01*
X62000000Y45966500D01*
X62000000Y46216500D01*
X62875000Y46216500D01*
X62875000Y45966500D01*
G37*
G36*
X62875000Y45466500D02*
G01*
X62000000Y45466500D01*
X62000000Y45716500D01*
X62875000Y45716500D01*
X62875000Y45466500D01*
G37*
G36*
X62875000Y44966500D02*
G01*
X62000000Y44966500D01*
X62000000Y45216500D01*
X62875000Y45216500D01*
X62875000Y44966500D01*
G37*
G36*
X67000000Y46966500D02*
G01*
X66125000Y46966500D01*
X66125000Y47216500D01*
X67000000Y47216500D01*
X67000000Y46966500D01*
G37*
G36*
X67000000Y46466500D02*
G01*
X66125000Y46466500D01*
X66125000Y46716500D01*
X67000000Y46716500D01*
X67000000Y46466500D01*
G37*
G36*
X67000000Y45966500D02*
G01*
X66125000Y45966500D01*
X66125000Y46216500D01*
X67000000Y46216500D01*
X67000000Y45966500D01*
G37*
G36*
X67000000Y45466500D02*
G01*
X66125000Y45466500D01*
X66125000Y45716500D01*
X67000000Y45716500D01*
X67000000Y45466500D01*
G37*
G36*
X67000000Y44966500D02*
G01*
X66125000Y44966500D01*
X66125000Y45216500D01*
X67000000Y45216500D01*
X67000000Y44966500D01*
G37*
G36*
X62875000Y18018500D02*
G01*
X62000000Y18018500D01*
X62000000Y18268500D01*
X62875000Y18268500D01*
X62875000Y18018500D01*
G37*
G36*
X62875000Y17518500D02*
G01*
X62000000Y17518500D01*
X62000000Y17768500D01*
X62875000Y17768500D01*
X62875000Y17518500D01*
G37*
G36*
X62875000Y17018500D02*
G01*
X62000000Y17018500D01*
X62000000Y17268500D01*
X62875000Y17268500D01*
X62875000Y17018500D01*
G37*
G36*
X62875000Y16518500D02*
G01*
X62000000Y16518500D01*
X62000000Y16768500D01*
X62875000Y16768500D01*
X62875000Y16518500D01*
G37*
G36*
X62875000Y16018500D02*
G01*
X62000000Y16018500D01*
X62000000Y16268500D01*
X62875000Y16268500D01*
X62875000Y16018500D01*
G37*
G36*
X67000000Y18018500D02*
G01*
X66125000Y18018500D01*
X66125000Y18268500D01*
X67000000Y18268500D01*
X67000000Y18018500D01*
G37*
G36*
X67000000Y17518500D02*
G01*
X66125000Y17518500D01*
X66125000Y17768500D01*
X67000000Y17768500D01*
X67000000Y17518500D01*
G37*
G36*
X67000000Y17018500D02*
G01*
X66125000Y17018500D01*
X66125000Y17268500D01*
X67000000Y17268500D01*
X67000000Y17018500D01*
G37*
G36*
X67000000Y16518500D02*
G01*
X66125000Y16518500D01*
X66125000Y16768500D01*
X67000000Y16768500D01*
X67000000Y16518500D01*
G37*
G36*
X67000000Y16018500D02*
G01*
X66125000Y16018500D01*
X66125000Y16268500D01*
X67000000Y16268500D01*
X67000000Y16018500D01*
G37*
G36*
X36975000Y133810500D02*
G01*
X36100000Y133810500D01*
X36100000Y134060500D01*
X36975000Y134060500D01*
X36975000Y133810500D01*
G37*
G36*
X36975000Y133310500D02*
G01*
X36100000Y133310500D01*
X36100000Y133560500D01*
X36975000Y133560500D01*
X36975000Y133310500D01*
G37*
G36*
X36975000Y132810500D02*
G01*
X36100000Y132810500D01*
X36100000Y133060500D01*
X36975000Y133060500D01*
X36975000Y132810500D01*
G37*
G36*
X36975000Y132310500D02*
G01*
X36100000Y132310500D01*
X36100000Y132560500D01*
X36975000Y132560500D01*
X36975000Y132310500D01*
G37*
G36*
X36975000Y131810500D02*
G01*
X36100000Y131810500D01*
X36100000Y132060500D01*
X36975000Y132060500D01*
X36975000Y131810500D01*
G37*
G36*
X41100000Y133810500D02*
G01*
X40225000Y133810500D01*
X40225000Y134060500D01*
X41100000Y134060500D01*
X41100000Y133810500D01*
G37*
G36*
X41100000Y133310500D02*
G01*
X40225000Y133310500D01*
X40225000Y133560500D01*
X41100000Y133560500D01*
X41100000Y133310500D01*
G37*
G36*
X41100000Y132810500D02*
G01*
X40225000Y132810500D01*
X40225000Y133060500D01*
X41100000Y133060500D01*
X41100000Y132810500D01*
G37*
G36*
X41100000Y132310500D02*
G01*
X40225000Y132310500D01*
X40225000Y132560500D01*
X41100000Y132560500D01*
X41100000Y132310500D01*
G37*
G36*
X41100000Y131810500D02*
G01*
X40225000Y131810500D01*
X40225000Y132060500D01*
X41100000Y132060500D01*
X41100000Y131810500D01*
G37*
G36*
X36975000Y104862500D02*
G01*
X36100000Y104862500D01*
X36100000Y105112500D01*
X36975000Y105112500D01*
X36975000Y104862500D01*
G37*
G36*
X36975000Y104362500D02*
G01*
X36100000Y104362500D01*
X36100000Y104612500D01*
X36975000Y104612500D01*
X36975000Y104362500D01*
G37*
G36*
X36975000Y103862500D02*
G01*
X36100000Y103862500D01*
X36100000Y104112500D01*
X36975000Y104112500D01*
X36975000Y103862500D01*
G37*
G36*
X36975000Y103362500D02*
G01*
X36100000Y103362500D01*
X36100000Y103612500D01*
X36975000Y103612500D01*
X36975000Y103362500D01*
G37*
G36*
X36975000Y102862500D02*
G01*
X36100000Y102862500D01*
X36100000Y103112500D01*
X36975000Y103112500D01*
X36975000Y102862500D01*
G37*
G36*
X41100000Y104862500D02*
G01*
X40225000Y104862500D01*
X40225000Y105112500D01*
X41100000Y105112500D01*
X41100000Y104862500D01*
G37*
G36*
X41100000Y104362500D02*
G01*
X40225000Y104362500D01*
X40225000Y104612500D01*
X41100000Y104612500D01*
X41100000Y104362500D01*
G37*
G36*
X41100000Y103862500D02*
G01*
X40225000Y103862500D01*
X40225000Y104112500D01*
X41100000Y104112500D01*
X41100000Y103862500D01*
G37*
G36*
X41100000Y103362500D02*
G01*
X40225000Y103362500D01*
X40225000Y103612500D01*
X41100000Y103612500D01*
X41100000Y103362500D01*
G37*
G36*
X41100000Y102862500D02*
G01*
X40225000Y102862500D01*
X40225000Y103112500D01*
X41100000Y103112500D01*
X41100000Y102862500D01*
G37*
G36*
X36975000Y75914500D02*
G01*
X36100000Y75914500D01*
X36100000Y76164500D01*
X36975000Y76164500D01*
X36975000Y75914500D01*
G37*
G36*
X36975000Y75414500D02*
G01*
X36100000Y75414500D01*
X36100000Y75664500D01*
X36975000Y75664500D01*
X36975000Y75414500D01*
G37*
G36*
X36975000Y74914500D02*
G01*
X36100000Y74914500D01*
X36100000Y75164500D01*
X36975000Y75164500D01*
X36975000Y74914500D01*
G37*
G36*
X36975000Y74414500D02*
G01*
X36100000Y74414500D01*
X36100000Y74664500D01*
X36975000Y74664500D01*
X36975000Y74414500D01*
G37*
G36*
X36975000Y73914500D02*
G01*
X36100000Y73914500D01*
X36100000Y74164500D01*
X36975000Y74164500D01*
X36975000Y73914500D01*
G37*
G36*
X41100000Y75914500D02*
G01*
X40225000Y75914500D01*
X40225000Y76164500D01*
X41100000Y76164500D01*
X41100000Y75914500D01*
G37*
G36*
X41100000Y75414500D02*
G01*
X40225000Y75414500D01*
X40225000Y75664500D01*
X41100000Y75664500D01*
X41100000Y75414500D01*
G37*
G36*
X41100000Y74914500D02*
G01*
X40225000Y74914500D01*
X40225000Y75164500D01*
X41100000Y75164500D01*
X41100000Y74914500D01*
G37*
G36*
X41100000Y74414500D02*
G01*
X40225000Y74414500D01*
X40225000Y74664500D01*
X41100000Y74664500D01*
X41100000Y74414500D01*
G37*
G36*
X41100000Y73914500D02*
G01*
X40225000Y73914500D01*
X40225000Y74164500D01*
X41100000Y74164500D01*
X41100000Y73914500D01*
G37*
G36*
X36975000Y46966500D02*
G01*
X36100000Y46966500D01*
X36100000Y47216500D01*
X36975000Y47216500D01*
X36975000Y46966500D01*
G37*
G36*
X36975000Y46466500D02*
G01*
X36100000Y46466500D01*
X36100000Y46716500D01*
X36975000Y46716500D01*
X36975000Y46466500D01*
G37*
G36*
X36975000Y45966500D02*
G01*
X36100000Y45966500D01*
X36100000Y46216500D01*
X36975000Y46216500D01*
X36975000Y45966500D01*
G37*
G36*
X36975000Y45466500D02*
G01*
X36100000Y45466500D01*
X36100000Y45716500D01*
X36975000Y45716500D01*
X36975000Y45466500D01*
G37*
G36*
X36975000Y44966500D02*
G01*
X36100000Y44966500D01*
X36100000Y45216500D01*
X36975000Y45216500D01*
X36975000Y44966500D01*
G37*
G36*
X41100000Y46966500D02*
G01*
X40225000Y46966500D01*
X40225000Y47216500D01*
X41100000Y47216500D01*
X41100000Y46966500D01*
G37*
G36*
X41100000Y46466500D02*
G01*
X40225000Y46466500D01*
X40225000Y46716500D01*
X41100000Y46716500D01*
X41100000Y46466500D01*
G37*
G36*
X41100000Y45966500D02*
G01*
X40225000Y45966500D01*
X40225000Y46216500D01*
X41100000Y46216500D01*
X41100000Y45966500D01*
G37*
G36*
X41100000Y45466500D02*
G01*
X40225000Y45466500D01*
X40225000Y45716500D01*
X41100000Y45716500D01*
X41100000Y45466500D01*
G37*
G36*
X41100000Y44966500D02*
G01*
X40225000Y44966500D01*
X40225000Y45216500D01*
X41100000Y45216500D01*
X41100000Y44966500D01*
G37*
G36*
X36975000Y18018500D02*
G01*
X36100000Y18018500D01*
X36100000Y18268500D01*
X36975000Y18268500D01*
X36975000Y18018500D01*
G37*
G36*
X36975000Y17518500D02*
G01*
X36100000Y17518500D01*
X36100000Y17768500D01*
X36975000Y17768500D01*
X36975000Y17518500D01*
G37*
G36*
X36975000Y17018500D02*
G01*
X36100000Y17018500D01*
X36100000Y17268500D01*
X36975000Y17268500D01*
X36975000Y17018500D01*
G37*
G36*
X36975000Y16518500D02*
G01*
X36100000Y16518500D01*
X36100000Y16768500D01*
X36975000Y16768500D01*
X36975000Y16518500D01*
G37*
G36*
X36975000Y16018500D02*
G01*
X36100000Y16018500D01*
X36100000Y16268500D01*
X36975000Y16268500D01*
X36975000Y16018500D01*
G37*
G36*
X41100000Y18018500D02*
G01*
X40225000Y18018500D01*
X40225000Y18268500D01*
X41100000Y18268500D01*
X41100000Y18018500D01*
G37*
G36*
X41100000Y17518500D02*
G01*
X40225000Y17518500D01*
X40225000Y17768500D01*
X41100000Y17768500D01*
X41100000Y17518500D01*
G37*
G36*
X41100000Y17018500D02*
G01*
X40225000Y17018500D01*
X40225000Y17268500D01*
X41100000Y17268500D01*
X41100000Y17018500D01*
G37*
G36*
X41100000Y16518500D02*
G01*
X40225000Y16518500D01*
X40225000Y16768500D01*
X41100000Y16768500D01*
X41100000Y16518500D01*
G37*
G36*
X41100000Y16018500D02*
G01*
X40225000Y16018500D01*
X40225000Y16268500D01*
X41100000Y16268500D01*
X41100000Y16018500D01*
G37*
G36*
X11075000Y133810500D02*
G01*
X10200000Y133810500D01*
X10200000Y134060500D01*
X11075000Y134060500D01*
X11075000Y133810500D01*
G37*
G36*
X11075000Y133310500D02*
G01*
X10200000Y133310500D01*
X10200000Y133560500D01*
X11075000Y133560500D01*
X11075000Y133310500D01*
G37*
G36*
X11075000Y132810500D02*
G01*
X10200000Y132810500D01*
X10200000Y133060500D01*
X11075000Y133060500D01*
X11075000Y132810500D01*
G37*
G36*
X11075000Y132310500D02*
G01*
X10200000Y132310500D01*
X10200000Y132560500D01*
X11075000Y132560500D01*
X11075000Y132310500D01*
G37*
G36*
X11075000Y131810500D02*
G01*
X10200000Y131810500D01*
X10200000Y132060500D01*
X11075000Y132060500D01*
X11075000Y131810500D01*
G37*
G36*
X15200000Y133810500D02*
G01*
X14325000Y133810500D01*
X14325000Y134060500D01*
X15200000Y134060500D01*
X15200000Y133810500D01*
G37*
G36*
X15200000Y133310500D02*
G01*
X14325000Y133310500D01*
X14325000Y133560500D01*
X15200000Y133560500D01*
X15200000Y133310500D01*
G37*
G36*
X15200000Y132810500D02*
G01*
X14325000Y132810500D01*
X14325000Y133060500D01*
X15200000Y133060500D01*
X15200000Y132810500D01*
G37*
G36*
X15200000Y132310500D02*
G01*
X14325000Y132310500D01*
X14325000Y132560500D01*
X15200000Y132560500D01*
X15200000Y132310500D01*
G37*
G36*
X15200000Y131810500D02*
G01*
X14325000Y131810500D01*
X14325000Y132060500D01*
X15200000Y132060500D01*
X15200000Y131810500D01*
G37*
G36*
X11075000Y104862500D02*
G01*
X10200000Y104862500D01*
X10200000Y105112500D01*
X11075000Y105112500D01*
X11075000Y104862500D01*
G37*
G36*
X11075000Y104362500D02*
G01*
X10200000Y104362500D01*
X10200000Y104612500D01*
X11075000Y104612500D01*
X11075000Y104362500D01*
G37*
G36*
X11075000Y103862500D02*
G01*
X10200000Y103862500D01*
X10200000Y104112500D01*
X11075000Y104112500D01*
X11075000Y103862500D01*
G37*
G36*
X11075000Y103362500D02*
G01*
X10200000Y103362500D01*
X10200000Y103612500D01*
X11075000Y103612500D01*
X11075000Y103362500D01*
G37*
G36*
X11075000Y102862500D02*
G01*
X10200000Y102862500D01*
X10200000Y103112500D01*
X11075000Y103112500D01*
X11075000Y102862500D01*
G37*
G36*
X15200000Y104862500D02*
G01*
X14325000Y104862500D01*
X14325000Y105112500D01*
X15200000Y105112500D01*
X15200000Y104862500D01*
G37*
G36*
X15200000Y104362500D02*
G01*
X14325000Y104362500D01*
X14325000Y104612500D01*
X15200000Y104612500D01*
X15200000Y104362500D01*
G37*
G36*
X15200000Y103862500D02*
G01*
X14325000Y103862500D01*
X14325000Y104112500D01*
X15200000Y104112500D01*
X15200000Y103862500D01*
G37*
G36*
X15200000Y103362500D02*
G01*
X14325000Y103362500D01*
X14325000Y103612500D01*
X15200000Y103612500D01*
X15200000Y103362500D01*
G37*
G36*
X15200000Y102862500D02*
G01*
X14325000Y102862500D01*
X14325000Y103112500D01*
X15200000Y103112500D01*
X15200000Y102862500D01*
G37*
G36*
X11075000Y75914500D02*
G01*
X10200000Y75914500D01*
X10200000Y76164500D01*
X11075000Y76164500D01*
X11075000Y75914500D01*
G37*
G36*
X11075000Y75414500D02*
G01*
X10200000Y75414500D01*
X10200000Y75664500D01*
X11075000Y75664500D01*
X11075000Y75414500D01*
G37*
G36*
X11075000Y74914500D02*
G01*
X10200000Y74914500D01*
X10200000Y75164500D01*
X11075000Y75164500D01*
X11075000Y74914500D01*
G37*
G36*
X11075000Y74414500D02*
G01*
X10200000Y74414500D01*
X10200000Y74664500D01*
X11075000Y74664500D01*
X11075000Y74414500D01*
G37*
G36*
X11075000Y73914500D02*
G01*
X10200000Y73914500D01*
X10200000Y74164500D01*
X11075000Y74164500D01*
X11075000Y73914500D01*
G37*
G36*
X15200000Y75914500D02*
G01*
X14325000Y75914500D01*
X14325000Y76164500D01*
X15200000Y76164500D01*
X15200000Y75914500D01*
G37*
G36*
X15200000Y75414500D02*
G01*
X14325000Y75414500D01*
X14325000Y75664500D01*
X15200000Y75664500D01*
X15200000Y75414500D01*
G37*
G36*
X15200000Y74914500D02*
G01*
X14325000Y74914500D01*
X14325000Y75164500D01*
X15200000Y75164500D01*
X15200000Y74914500D01*
G37*
G36*
X15200000Y74414500D02*
G01*
X14325000Y74414500D01*
X14325000Y74664500D01*
X15200000Y74664500D01*
X15200000Y74414500D01*
G37*
G36*
X15200000Y73914500D02*
G01*
X14325000Y73914500D01*
X14325000Y74164500D01*
X15200000Y74164500D01*
X15200000Y73914500D01*
G37*
G36*
X11075000Y46966500D02*
G01*
X10200000Y46966500D01*
X10200000Y47216500D01*
X11075000Y47216500D01*
X11075000Y46966500D01*
G37*
G36*
X11075000Y46466500D02*
G01*
X10200000Y46466500D01*
X10200000Y46716500D01*
X11075000Y46716500D01*
X11075000Y46466500D01*
G37*
G36*
X11075000Y45966500D02*
G01*
X10200000Y45966500D01*
X10200000Y46216500D01*
X11075000Y46216500D01*
X11075000Y45966500D01*
G37*
G36*
X11075000Y45466500D02*
G01*
X10200000Y45466500D01*
X10200000Y45716500D01*
X11075000Y45716500D01*
X11075000Y45466500D01*
G37*
G36*
X11075000Y44966500D02*
G01*
X10200000Y44966500D01*
X10200000Y45216500D01*
X11075000Y45216500D01*
X11075000Y44966500D01*
G37*
G36*
X15200000Y46966500D02*
G01*
X14325000Y46966500D01*
X14325000Y47216500D01*
X15200000Y47216500D01*
X15200000Y46966500D01*
G37*
G36*
X15200000Y46466500D02*
G01*
X14325000Y46466500D01*
X14325000Y46716500D01*
X15200000Y46716500D01*
X15200000Y46466500D01*
G37*
G36*
X15200000Y45966500D02*
G01*
X14325000Y45966500D01*
X14325000Y46216500D01*
X15200000Y46216500D01*
X15200000Y45966500D01*
G37*
G36*
X15200000Y45466500D02*
G01*
X14325000Y45466500D01*
X14325000Y45716500D01*
X15200000Y45716500D01*
X15200000Y45466500D01*
G37*
G36*
X15200000Y44966500D02*
G01*
X14325000Y44966500D01*
X14325000Y45216500D01*
X15200000Y45216500D01*
X15200000Y44966500D01*
G37*
%TO.C,BT1*%
G36*
X61795000Y128711645D02*
G01*
X61795000Y131197000D01*
X64280355Y131197000D01*
X61795000Y128711645D01*
G37*
G36*
X67200000Y126992000D02*
G01*
X65500000Y126992000D01*
X65500000Y131192000D01*
X67200000Y131192000D01*
X67200000Y126992000D01*
G37*
G36*
X61795000Y99763645D02*
G01*
X61795000Y102249000D01*
X64280355Y102249000D01*
X61795000Y99763645D01*
G37*
G36*
X67200000Y98044000D02*
G01*
X65500000Y98044000D01*
X65500000Y102244000D01*
X67200000Y102244000D01*
X67200000Y98044000D01*
G37*
G36*
X61795000Y70815645D02*
G01*
X61795000Y73301000D01*
X64280355Y73301000D01*
X61795000Y70815645D01*
G37*
G36*
X67200000Y69096000D02*
G01*
X65500000Y69096000D01*
X65500000Y73296000D01*
X67200000Y73296000D01*
X67200000Y69096000D01*
G37*
G36*
X61795000Y41867645D02*
G01*
X61795000Y44353000D01*
X64280355Y44353000D01*
X61795000Y41867645D01*
G37*
G36*
X67200000Y40148000D02*
G01*
X65500000Y40148000D01*
X65500000Y44348000D01*
X67200000Y44348000D01*
X67200000Y40148000D01*
G37*
G36*
X61795000Y12919645D02*
G01*
X61795000Y15405000D01*
X64280355Y15405000D01*
X61795000Y12919645D01*
G37*
G36*
X67200000Y11200000D02*
G01*
X65500000Y11200000D01*
X65500000Y15400000D01*
X67200000Y15400000D01*
X67200000Y11200000D01*
G37*
G36*
X35895000Y128711645D02*
G01*
X35895000Y131197000D01*
X38380355Y131197000D01*
X35895000Y128711645D01*
G37*
G36*
X41300000Y126992000D02*
G01*
X39600000Y126992000D01*
X39600000Y131192000D01*
X41300000Y131192000D01*
X41300000Y126992000D01*
G37*
G36*
X35895000Y99763645D02*
G01*
X35895000Y102249000D01*
X38380355Y102249000D01*
X35895000Y99763645D01*
G37*
G36*
X41300000Y98044000D02*
G01*
X39600000Y98044000D01*
X39600000Y102244000D01*
X41300000Y102244000D01*
X41300000Y98044000D01*
G37*
G36*
X35895000Y70815645D02*
G01*
X35895000Y73301000D01*
X38380355Y73301000D01*
X35895000Y70815645D01*
G37*
G36*
X41300000Y69096000D02*
G01*
X39600000Y69096000D01*
X39600000Y73296000D01*
X41300000Y73296000D01*
X41300000Y69096000D01*
G37*
G36*
X35895000Y41867645D02*
G01*
X35895000Y44353000D01*
X38380355Y44353000D01*
X35895000Y41867645D01*
G37*
G36*
X41300000Y40148000D02*
G01*
X39600000Y40148000D01*
X39600000Y44348000D01*
X41300000Y44348000D01*
X41300000Y40148000D01*
G37*
G36*
X35895000Y12919645D02*
G01*
X35895000Y15405000D01*
X38380355Y15405000D01*
X35895000Y12919645D01*
G37*
G36*
X41300000Y11200000D02*
G01*
X39600000Y11200000D01*
X39600000Y15400000D01*
X41300000Y15400000D01*
X41300000Y11200000D01*
G37*
G36*
X9995000Y128711645D02*
G01*
X9995000Y131197000D01*
X12480355Y131197000D01*
X9995000Y128711645D01*
G37*
G36*
X15400000Y126992000D02*
G01*
X13700000Y126992000D01*
X13700000Y131192000D01*
X15400000Y131192000D01*
X15400000Y126992000D01*
G37*
G36*
X9995000Y99763645D02*
G01*
X9995000Y102249000D01*
X12480355Y102249000D01*
X9995000Y99763645D01*
G37*
G36*
X15400000Y98044000D02*
G01*
X13700000Y98044000D01*
X13700000Y102244000D01*
X15400000Y102244000D01*
X15400000Y98044000D01*
G37*
G36*
X9995000Y70815645D02*
G01*
X9995000Y73301000D01*
X12480355Y73301000D01*
X9995000Y70815645D01*
G37*
G36*
X15400000Y69096000D02*
G01*
X13700000Y69096000D01*
X13700000Y73296000D01*
X15400000Y73296000D01*
X15400000Y69096000D01*
G37*
G36*
X9995000Y41867645D02*
G01*
X9995000Y44353000D01*
X12480355Y44353000D01*
X9995000Y41867645D01*
G37*
G36*
X15400000Y40148000D02*
G01*
X13700000Y40148000D01*
X13700000Y44348000D01*
X15400000Y44348000D01*
X15400000Y40148000D01*
G37*
G36*
X9995000Y12919645D02*
G01*
X9995000Y15405000D01*
X12480355Y15405000D01*
X9995000Y12919645D01*
G37*
G36*
X15400000Y11200000D02*
G01*
X13700000Y11200000D01*
X13700000Y15400000D01*
X15400000Y15400000D01*
X15400000Y11200000D01*
G37*
%TO.C,U4*%
G36*
X11075000Y18018500D02*
G01*
X10200000Y18018500D01*
X10200000Y18268500D01*
X11075000Y18268500D01*
X11075000Y18018500D01*
G37*
G36*
X11075000Y17518500D02*
G01*
X10200000Y17518500D01*
X10200000Y17768500D01*
X11075000Y17768500D01*
X11075000Y17518500D01*
G37*
G36*
X11075000Y17018500D02*
G01*
X10200000Y17018500D01*
X10200000Y17268500D01*
X11075000Y17268500D01*
X11075000Y17018500D01*
G37*
G36*
X11075000Y16518500D02*
G01*
X10200000Y16518500D01*
X10200000Y16768500D01*
X11075000Y16768500D01*
X11075000Y16518500D01*
G37*
G36*
X11075000Y16018500D02*
G01*
X10200000Y16018500D01*
X10200000Y16268500D01*
X11075000Y16268500D01*
X11075000Y16018500D01*
G37*
G36*
X15200000Y18018500D02*
G01*
X14325000Y18018500D01*
X14325000Y18268500D01*
X15200000Y18268500D01*
X15200000Y18018500D01*
G37*
G36*
X15200000Y17518500D02*
G01*
X14325000Y17518500D01*
X14325000Y17768500D01*
X15200000Y17768500D01*
X15200000Y17518500D01*
G37*
G36*
X15200000Y17018500D02*
G01*
X14325000Y17018500D01*
X14325000Y17268500D01*
X15200000Y17268500D01*
X15200000Y17018500D01*
G37*
G36*
X15200000Y16518500D02*
G01*
X14325000Y16518500D01*
X14325000Y16768500D01*
X15200000Y16768500D01*
X15200000Y16518500D01*
G37*
G36*
X15200000Y16018500D02*
G01*
X14325000Y16018500D01*
X14325000Y16268500D01*
X15200000Y16268500D01*
X15200000Y16018500D01*
G37*
%TO.C,J4*%
G36*
X9675000Y18900000D02*
G01*
X9275000Y18900000D01*
X9275000Y19900000D01*
X9675000Y19900000D01*
X9675000Y18900000D01*
G37*
G36*
X10450000Y18900000D02*
G01*
X10050000Y18900000D01*
X10050000Y19900000D01*
X10450000Y19900000D01*
X10450000Y18900000D01*
G37*
G36*
X15350000Y18900000D02*
G01*
X14950000Y18900000D01*
X14950000Y19900000D01*
X15350000Y19900000D01*
X15350000Y18900000D01*
G37*
G36*
X16125000Y18900000D02*
G01*
X15725000Y18900000D01*
X15725000Y19900000D01*
X16125000Y19900000D01*
X16125000Y18900000D01*
G37*
%TD*%
D11*
%TO.C,C11*%
X58607500Y132619500D03*
X57057500Y132619500D03*
%TD*%
%TO.C,C11*%
X58607500Y103671500D03*
X57057500Y103671500D03*
%TD*%
%TO.C,C11*%
X58607500Y74723500D03*
X57057500Y74723500D03*
%TD*%
%TO.C,C11*%
X58607500Y45775500D03*
X57057500Y45775500D03*
%TD*%
%TO.C,C11*%
X58607500Y16827500D03*
X57057500Y16827500D03*
%TD*%
%TO.C,C11*%
X32707500Y132619500D03*
X31157500Y132619500D03*
%TD*%
%TO.C,C11*%
X32707500Y103671500D03*
X31157500Y103671500D03*
%TD*%
%TO.C,C11*%
X32707500Y74723500D03*
X31157500Y74723500D03*
%TD*%
%TO.C,C11*%
X32707500Y45775500D03*
X31157500Y45775500D03*
%TD*%
%TO.C,C11*%
X32707500Y16827500D03*
X31157500Y16827500D03*
%TD*%
%TO.C,C11*%
X6807500Y132619500D03*
X5257500Y132619500D03*
%TD*%
%TO.C,C11*%
X6807500Y103671500D03*
X5257500Y103671500D03*
%TD*%
%TO.C,C11*%
X6807500Y74723500D03*
X5257500Y74723500D03*
%TD*%
%TO.C,C11*%
X6807500Y45775500D03*
X5257500Y45775500D03*
%TD*%
D12*
%TO.C,C1*%
X70532500Y134664500D03*
X70532500Y133114500D03*
%TD*%
%TO.C,C1*%
X70532500Y105716500D03*
X70532500Y104166500D03*
%TD*%
%TO.C,C1*%
X70532500Y76768500D03*
X70532500Y75218500D03*
%TD*%
%TO.C,C1*%
X70532500Y47820500D03*
X70532500Y46270500D03*
%TD*%
%TO.C,C1*%
X70532500Y18872500D03*
X70532500Y17322500D03*
%TD*%
%TO.C,C1*%
X44632500Y134664500D03*
X44632500Y133114500D03*
%TD*%
%TO.C,C1*%
X44632500Y105716500D03*
X44632500Y104166500D03*
%TD*%
%TO.C,C1*%
X44632500Y76768500D03*
X44632500Y75218500D03*
%TD*%
%TO.C,C1*%
X44632500Y47820500D03*
X44632500Y46270500D03*
%TD*%
%TO.C,C1*%
X44632500Y18872500D03*
X44632500Y17322500D03*
%TD*%
%TO.C,C1*%
X18732500Y134664500D03*
X18732500Y133114500D03*
%TD*%
%TO.C,C1*%
X18732500Y105716500D03*
X18732500Y104166500D03*
%TD*%
%TO.C,C1*%
X18732500Y76768500D03*
X18732500Y75218500D03*
%TD*%
%TO.C,C1*%
X18732500Y47820500D03*
X18732500Y46270500D03*
%TD*%
D13*
%TO.C,D5*%
X60372500Y127342000D03*
X60372500Y129642000D03*
%TD*%
%TO.C,D5*%
X60372500Y98394000D03*
X60372500Y100694000D03*
%TD*%
%TO.C,D5*%
X60372500Y69446000D03*
X60372500Y71746000D03*
%TD*%
%TO.C,D5*%
X60372500Y40498000D03*
X60372500Y42798000D03*
%TD*%
%TO.C,D5*%
X60372500Y11550000D03*
X60372500Y13850000D03*
%TD*%
%TO.C,D5*%
X34472500Y127342000D03*
X34472500Y129642000D03*
%TD*%
%TO.C,D5*%
X34472500Y98394000D03*
X34472500Y100694000D03*
%TD*%
%TO.C,D5*%
X34472500Y69446000D03*
X34472500Y71746000D03*
%TD*%
%TO.C,D5*%
X34472500Y40498000D03*
X34472500Y42798000D03*
%TD*%
%TO.C,D5*%
X34472500Y11550000D03*
X34472500Y13850000D03*
%TD*%
%TO.C,D5*%
X8572500Y127342000D03*
X8572500Y129642000D03*
%TD*%
%TO.C,D5*%
X8572500Y98394000D03*
X8572500Y100694000D03*
%TD*%
%TO.C,D5*%
X8572500Y69446000D03*
X8572500Y71746000D03*
%TD*%
%TO.C,D5*%
X8572500Y40498000D03*
X8572500Y42798000D03*
%TD*%
D14*
%TO.C,U6*%
X72089900Y134839500D03*
X72089900Y133889500D03*
X72089900Y132939500D03*
X74690100Y132939500D03*
X74690100Y134839500D03*
%TD*%
%TO.C,U6*%
X72089900Y105891500D03*
X72089900Y104941500D03*
X72089900Y103991500D03*
X74690100Y103991500D03*
X74690100Y105891500D03*
%TD*%
%TO.C,U6*%
X72089900Y76943500D03*
X72089900Y75993500D03*
X72089900Y75043500D03*
X74690100Y75043500D03*
X74690100Y76943500D03*
%TD*%
%TO.C,U6*%
X72089900Y47995500D03*
X72089900Y47045500D03*
X72089900Y46095500D03*
X74690100Y46095500D03*
X74690100Y47995500D03*
%TD*%
%TO.C,U6*%
X72089900Y19047500D03*
X72089900Y18097500D03*
X72089900Y17147500D03*
X74690100Y17147500D03*
X74690100Y19047500D03*
%TD*%
%TO.C,U6*%
X46189900Y134839500D03*
X46189900Y133889500D03*
X46189900Y132939500D03*
X48790100Y132939500D03*
X48790100Y134839500D03*
%TD*%
%TO.C,U6*%
X46189900Y105891500D03*
X46189900Y104941500D03*
X46189900Y103991500D03*
X48790100Y103991500D03*
X48790100Y105891500D03*
%TD*%
%TO.C,U6*%
X46189900Y76943500D03*
X46189900Y75993500D03*
X46189900Y75043500D03*
X48790100Y75043500D03*
X48790100Y76943500D03*
%TD*%
%TO.C,U6*%
X46189900Y47995500D03*
X46189900Y47045500D03*
X46189900Y46095500D03*
X48790100Y46095500D03*
X48790100Y47995500D03*
%TD*%
%TO.C,U6*%
X46189900Y19047500D03*
X46189900Y18097500D03*
X46189900Y17147500D03*
X48790100Y17147500D03*
X48790100Y19047500D03*
%TD*%
%TO.C,U6*%
X20289900Y134839500D03*
X20289900Y133889500D03*
X20289900Y132939500D03*
X22890100Y132939500D03*
X22890100Y134839500D03*
%TD*%
%TO.C,U6*%
X20289900Y105891500D03*
X20289900Y104941500D03*
X20289900Y103991500D03*
X22890100Y103991500D03*
X22890100Y105891500D03*
%TD*%
%TO.C,U6*%
X20289900Y76943500D03*
X20289900Y75993500D03*
X20289900Y75043500D03*
X22890100Y75043500D03*
X22890100Y76943500D03*
%TD*%
%TO.C,U6*%
X20289900Y47995500D03*
X20289900Y47045500D03*
X20289900Y46095500D03*
X22890100Y46095500D03*
X22890100Y47995500D03*
%TD*%
D15*
%TO.C,R5*%
X70532500Y126079500D03*
X70532500Y127729500D03*
%TD*%
%TO.C,R5*%
X70532500Y97131500D03*
X70532500Y98781500D03*
%TD*%
%TO.C,R5*%
X70532500Y68183500D03*
X70532500Y69833500D03*
%TD*%
%TO.C,R5*%
X70532500Y39235500D03*
X70532500Y40885500D03*
%TD*%
%TO.C,R5*%
X70532500Y10287500D03*
X70532500Y11937500D03*
%TD*%
%TO.C,R5*%
X44632500Y126079500D03*
X44632500Y127729500D03*
%TD*%
%TO.C,R5*%
X44632500Y97131500D03*
X44632500Y98781500D03*
%TD*%
%TO.C,R5*%
X44632500Y68183500D03*
X44632500Y69833500D03*
%TD*%
%TO.C,R5*%
X44632500Y39235500D03*
X44632500Y40885500D03*
%TD*%
%TO.C,R5*%
X44632500Y10287500D03*
X44632500Y11937500D03*
%TD*%
%TO.C,R5*%
X18732500Y126079500D03*
X18732500Y127729500D03*
%TD*%
%TO.C,R5*%
X18732500Y97131500D03*
X18732500Y98781500D03*
%TD*%
%TO.C,R5*%
X18732500Y68183500D03*
X18732500Y69833500D03*
%TD*%
%TO.C,R5*%
X18732500Y39235500D03*
X18732500Y40885500D03*
%TD*%
D12*
%TO.C,C10*%
X76247500Y134664500D03*
X76247500Y133114500D03*
%TD*%
%TO.C,C10*%
X76247500Y105716500D03*
X76247500Y104166500D03*
%TD*%
%TO.C,C10*%
X76247500Y76768500D03*
X76247500Y75218500D03*
%TD*%
%TO.C,C10*%
X76247500Y47820500D03*
X76247500Y46270500D03*
%TD*%
%TO.C,C10*%
X76247500Y18872500D03*
X76247500Y17322500D03*
%TD*%
%TO.C,C10*%
X50347500Y134664500D03*
X50347500Y133114500D03*
%TD*%
%TO.C,C10*%
X50347500Y105716500D03*
X50347500Y104166500D03*
%TD*%
%TO.C,C10*%
X50347500Y76768500D03*
X50347500Y75218500D03*
%TD*%
%TO.C,C10*%
X50347500Y47820500D03*
X50347500Y46270500D03*
%TD*%
%TO.C,C10*%
X50347500Y18872500D03*
X50347500Y17322500D03*
%TD*%
%TO.C,C10*%
X24447500Y134664500D03*
X24447500Y133114500D03*
%TD*%
%TO.C,C10*%
X24447500Y105716500D03*
X24447500Y104166500D03*
%TD*%
%TO.C,C10*%
X24447500Y76768500D03*
X24447500Y75218500D03*
%TD*%
%TO.C,C10*%
X24447500Y47820500D03*
X24447500Y46270500D03*
%TD*%
D15*
%TO.C,R10*%
X70532500Y129254500D03*
X70532500Y130904500D03*
%TD*%
%TO.C,R10*%
X70532500Y100306500D03*
X70532500Y101956500D03*
%TD*%
%TO.C,R10*%
X70532500Y71358500D03*
X70532500Y73008500D03*
%TD*%
%TO.C,R10*%
X70532500Y42410500D03*
X70532500Y44060500D03*
%TD*%
%TO.C,R10*%
X70532500Y13462500D03*
X70532500Y15112500D03*
%TD*%
%TO.C,R10*%
X44632500Y129254500D03*
X44632500Y130904500D03*
%TD*%
%TO.C,R10*%
X44632500Y100306500D03*
X44632500Y101956500D03*
%TD*%
%TO.C,R10*%
X44632500Y71358500D03*
X44632500Y73008500D03*
%TD*%
%TO.C,R10*%
X44632500Y42410500D03*
X44632500Y44060500D03*
%TD*%
%TO.C,R10*%
X44632500Y13462500D03*
X44632500Y15112500D03*
%TD*%
%TO.C,R10*%
X18732500Y129254500D03*
X18732500Y130904500D03*
%TD*%
%TO.C,R10*%
X18732500Y100306500D03*
X18732500Y101956500D03*
%TD*%
%TO.C,R10*%
X18732500Y71358500D03*
X18732500Y73008500D03*
%TD*%
%TO.C,R10*%
X18732500Y42410500D03*
X18732500Y44060500D03*
%TD*%
D16*
%TO.C,R3*%
X55165000Y122459500D03*
X53515000Y122459500D03*
%TD*%
%TO.C,R3*%
X55165000Y93511500D03*
X53515000Y93511500D03*
%TD*%
%TO.C,R3*%
X55165000Y64563500D03*
X53515000Y64563500D03*
%TD*%
%TO.C,R3*%
X55165000Y35615500D03*
X53515000Y35615500D03*
%TD*%
%TO.C,R3*%
X55165000Y6667500D03*
X53515000Y6667500D03*
%TD*%
%TO.C,R3*%
X29265000Y122459500D03*
X27615000Y122459500D03*
%TD*%
%TO.C,R3*%
X29265000Y93511500D03*
X27615000Y93511500D03*
%TD*%
%TO.C,R3*%
X29265000Y64563500D03*
X27615000Y64563500D03*
%TD*%
%TO.C,R3*%
X29265000Y35615500D03*
X27615000Y35615500D03*
%TD*%
%TO.C,R3*%
X29265000Y6667500D03*
X27615000Y6667500D03*
%TD*%
%TO.C,R3*%
X3365000Y122459500D03*
X1715000Y122459500D03*
%TD*%
%TO.C,R3*%
X3365000Y93511500D03*
X1715000Y93511500D03*
%TD*%
%TO.C,R3*%
X3365000Y64563500D03*
X1715000Y64563500D03*
%TD*%
%TO.C,R3*%
X3365000Y35615500D03*
X1715000Y35615500D03*
%TD*%
D17*
%TO.C,R11*%
X68627500Y130904500D03*
X68627500Y129254500D03*
%TD*%
%TO.C,R11*%
X68627500Y101956500D03*
X68627500Y100306500D03*
%TD*%
%TO.C,R11*%
X68627500Y73008500D03*
X68627500Y71358500D03*
%TD*%
%TO.C,R11*%
X68627500Y44060500D03*
X68627500Y42410500D03*
%TD*%
%TO.C,R11*%
X68627500Y15112500D03*
X68627500Y13462500D03*
%TD*%
%TO.C,R11*%
X42727500Y130904500D03*
X42727500Y129254500D03*
%TD*%
%TO.C,R11*%
X42727500Y101956500D03*
X42727500Y100306500D03*
%TD*%
%TO.C,R11*%
X42727500Y73008500D03*
X42727500Y71358500D03*
%TD*%
%TO.C,R11*%
X42727500Y44060500D03*
X42727500Y42410500D03*
%TD*%
%TO.C,R11*%
X42727500Y15112500D03*
X42727500Y13462500D03*
%TD*%
%TO.C,R11*%
X16827500Y130904500D03*
X16827500Y129254500D03*
%TD*%
%TO.C,R11*%
X16827500Y101956500D03*
X16827500Y100306500D03*
%TD*%
%TO.C,R11*%
X16827500Y73008500D03*
X16827500Y71358500D03*
%TD*%
%TO.C,R11*%
X16827500Y44060500D03*
X16827500Y42410500D03*
%TD*%
%TO.C,R4*%
X70532500Y140112000D03*
X70532500Y138462000D03*
%TD*%
%TO.C,R4*%
X70532500Y111164000D03*
X70532500Y109514000D03*
%TD*%
%TO.C,R4*%
X70532500Y82216000D03*
X70532500Y80566000D03*
%TD*%
%TO.C,R4*%
X70532500Y53268000D03*
X70532500Y51618000D03*
%TD*%
%TO.C,R4*%
X70532500Y24320000D03*
X70532500Y22670000D03*
%TD*%
%TO.C,R4*%
X44632500Y140112000D03*
X44632500Y138462000D03*
%TD*%
%TO.C,R4*%
X44632500Y111164000D03*
X44632500Y109514000D03*
%TD*%
%TO.C,R4*%
X44632500Y82216000D03*
X44632500Y80566000D03*
%TD*%
%TO.C,R4*%
X44632500Y53268000D03*
X44632500Y51618000D03*
%TD*%
%TO.C,R4*%
X44632500Y24320000D03*
X44632500Y22670000D03*
%TD*%
%TO.C,R4*%
X18732500Y140112000D03*
X18732500Y138462000D03*
%TD*%
%TO.C,R4*%
X18732500Y111164000D03*
X18732500Y109514000D03*
%TD*%
%TO.C,R4*%
X18732500Y82216000D03*
X18732500Y80566000D03*
%TD*%
%TO.C,R4*%
X18732500Y53268000D03*
X18732500Y51618000D03*
%TD*%
D18*
%TO.C,D3*%
X58312500Y136588250D03*
X57352500Y136588250D03*
%TD*%
%TO.C,D3*%
X58312500Y107640250D03*
X57352500Y107640250D03*
%TD*%
%TO.C,D3*%
X58312500Y78692250D03*
X57352500Y78692250D03*
%TD*%
%TO.C,D3*%
X58312500Y49744250D03*
X57352500Y49744250D03*
%TD*%
%TO.C,D3*%
X58312500Y20796250D03*
X57352500Y20796250D03*
%TD*%
%TO.C,D3*%
X32412500Y136588250D03*
X31452500Y136588250D03*
%TD*%
%TO.C,D3*%
X32412500Y107640250D03*
X31452500Y107640250D03*
%TD*%
%TO.C,D3*%
X32412500Y78692250D03*
X31452500Y78692250D03*
%TD*%
%TO.C,D3*%
X32412500Y49744250D03*
X31452500Y49744250D03*
%TD*%
%TO.C,D3*%
X32412500Y20796250D03*
X31452500Y20796250D03*
%TD*%
%TO.C,D3*%
X6512500Y136588250D03*
X5552500Y136588250D03*
%TD*%
%TO.C,D3*%
X6512500Y107640250D03*
X5552500Y107640250D03*
%TD*%
%TO.C,D3*%
X6512500Y78692250D03*
X5552500Y78692250D03*
%TD*%
%TO.C,D3*%
X6512500Y49744250D03*
X5552500Y49744250D03*
%TD*%
D15*
%TO.C,R8*%
X55292500Y133382000D03*
X55292500Y135032000D03*
%TD*%
%TO.C,R8*%
X55292500Y104434000D03*
X55292500Y106084000D03*
%TD*%
%TO.C,R8*%
X55292500Y75486000D03*
X55292500Y77136000D03*
%TD*%
%TO.C,R8*%
X55292500Y46538000D03*
X55292500Y48188000D03*
%TD*%
%TO.C,R8*%
X55292500Y17590000D03*
X55292500Y19240000D03*
%TD*%
%TO.C,R8*%
X29392500Y133382000D03*
X29392500Y135032000D03*
%TD*%
%TO.C,R8*%
X29392500Y104434000D03*
X29392500Y106084000D03*
%TD*%
%TO.C,R8*%
X29392500Y75486000D03*
X29392500Y77136000D03*
%TD*%
%TO.C,R8*%
X29392500Y46538000D03*
X29392500Y48188000D03*
%TD*%
%TO.C,R8*%
X29392500Y17590000D03*
X29392500Y19240000D03*
%TD*%
%TO.C,R8*%
X3492500Y133382000D03*
X3492500Y135032000D03*
%TD*%
%TO.C,R8*%
X3492500Y104434000D03*
X3492500Y106084000D03*
%TD*%
%TO.C,R8*%
X3492500Y75486000D03*
X3492500Y77136000D03*
%TD*%
%TO.C,R8*%
X3492500Y46538000D03*
X3492500Y48188000D03*
%TD*%
D19*
%TO.C,D7*%
X57032500Y135492000D03*
X57032500Y134842000D03*
X57032500Y134192000D03*
X58632500Y134192000D03*
X58632500Y135492000D03*
%TD*%
%TO.C,D7*%
X57032500Y106544000D03*
X57032500Y105894000D03*
X57032500Y105244000D03*
X58632500Y105244000D03*
X58632500Y106544000D03*
%TD*%
%TO.C,D7*%
X57032500Y77596000D03*
X57032500Y76946000D03*
X57032500Y76296000D03*
X58632500Y76296000D03*
X58632500Y77596000D03*
%TD*%
%TO.C,D7*%
X57032500Y48648000D03*
X57032500Y47998000D03*
X57032500Y47348000D03*
X58632500Y47348000D03*
X58632500Y48648000D03*
%TD*%
%TO.C,D7*%
X57032500Y19700000D03*
X57032500Y19050000D03*
X57032500Y18400000D03*
X58632500Y18400000D03*
X58632500Y19700000D03*
%TD*%
%TO.C,D7*%
X31132500Y135492000D03*
X31132500Y134842000D03*
X31132500Y134192000D03*
X32732500Y134192000D03*
X32732500Y135492000D03*
%TD*%
%TO.C,D7*%
X31132500Y106544000D03*
X31132500Y105894000D03*
X31132500Y105244000D03*
X32732500Y105244000D03*
X32732500Y106544000D03*
%TD*%
%TO.C,D7*%
X31132500Y77596000D03*
X31132500Y76946000D03*
X31132500Y76296000D03*
X32732500Y76296000D03*
X32732500Y77596000D03*
%TD*%
%TO.C,D7*%
X31132500Y48648000D03*
X31132500Y47998000D03*
X31132500Y47348000D03*
X32732500Y47348000D03*
X32732500Y48648000D03*
%TD*%
%TO.C,D7*%
X31132500Y19700000D03*
X31132500Y19050000D03*
X31132500Y18400000D03*
X32732500Y18400000D03*
X32732500Y19700000D03*
%TD*%
%TO.C,D7*%
X5232500Y135492000D03*
X5232500Y134842000D03*
X5232500Y134192000D03*
X6832500Y134192000D03*
X6832500Y135492000D03*
%TD*%
%TO.C,D7*%
X5232500Y106544000D03*
X5232500Y105894000D03*
X5232500Y105244000D03*
X6832500Y105244000D03*
X6832500Y106544000D03*
%TD*%
%TO.C,D7*%
X5232500Y77596000D03*
X5232500Y76946000D03*
X5232500Y76296000D03*
X6832500Y76296000D03*
X6832500Y77596000D03*
%TD*%
%TO.C,D7*%
X5232500Y48648000D03*
X5232500Y47998000D03*
X5232500Y47348000D03*
X6832500Y47348000D03*
X6832500Y48648000D03*
%TD*%
D20*
%TO.C,J2*%
X56562500Y129992000D03*
X56562500Y128992000D03*
X56562500Y127992000D03*
X56562500Y126992000D03*
D21*
X52887500Y125692000D03*
X52887500Y131292000D03*
%TD*%
D20*
%TO.C,J2*%
X56562500Y101044000D03*
X56562500Y100044000D03*
X56562500Y99044000D03*
X56562500Y98044000D03*
D21*
X52887500Y96744000D03*
X52887500Y102344000D03*
%TD*%
D20*
%TO.C,J2*%
X56562500Y72096000D03*
X56562500Y71096000D03*
X56562500Y70096000D03*
X56562500Y69096000D03*
D21*
X52887500Y67796000D03*
X52887500Y73396000D03*
%TD*%
D20*
%TO.C,J2*%
X56562500Y43148000D03*
X56562500Y42148000D03*
X56562500Y41148000D03*
X56562500Y40148000D03*
D21*
X52887500Y38848000D03*
X52887500Y44448000D03*
%TD*%
D20*
%TO.C,J2*%
X56562500Y14200000D03*
X56562500Y13200000D03*
X56562500Y12200000D03*
X56562500Y11200000D03*
D21*
X52887500Y9900000D03*
X52887500Y15500000D03*
%TD*%
D20*
%TO.C,J2*%
X30662500Y129992000D03*
X30662500Y128992000D03*
X30662500Y127992000D03*
X30662500Y126992000D03*
D21*
X26987500Y125692000D03*
X26987500Y131292000D03*
%TD*%
D20*
%TO.C,J2*%
X30662500Y101044000D03*
X30662500Y100044000D03*
X30662500Y99044000D03*
X30662500Y98044000D03*
D21*
X26987500Y96744000D03*
X26987500Y102344000D03*
%TD*%
D20*
%TO.C,J2*%
X30662500Y72096000D03*
X30662500Y71096000D03*
X30662500Y70096000D03*
X30662500Y69096000D03*
D21*
X26987500Y67796000D03*
X26987500Y73396000D03*
%TD*%
D20*
%TO.C,J2*%
X30662500Y43148000D03*
X30662500Y42148000D03*
X30662500Y41148000D03*
X30662500Y40148000D03*
D21*
X26987500Y38848000D03*
X26987500Y44448000D03*
%TD*%
D20*
%TO.C,J2*%
X30662500Y14200000D03*
X30662500Y13200000D03*
X30662500Y12200000D03*
X30662500Y11200000D03*
D21*
X26987500Y9900000D03*
X26987500Y15500000D03*
%TD*%
D20*
%TO.C,J2*%
X4762500Y129992000D03*
X4762500Y128992000D03*
X4762500Y127992000D03*
X4762500Y126992000D03*
D21*
X1087500Y125692000D03*
X1087500Y131292000D03*
%TD*%
D20*
%TO.C,J2*%
X4762500Y101044000D03*
X4762500Y100044000D03*
X4762500Y99044000D03*
X4762500Y98044000D03*
D21*
X1087500Y96744000D03*
X1087500Y102344000D03*
%TD*%
D20*
%TO.C,J2*%
X4762500Y72096000D03*
X4762500Y71096000D03*
X4762500Y70096000D03*
X4762500Y69096000D03*
D21*
X1087500Y67796000D03*
X1087500Y73396000D03*
%TD*%
D20*
%TO.C,J2*%
X4762500Y43148000D03*
X4762500Y42148000D03*
X4762500Y41148000D03*
X4762500Y40148000D03*
D21*
X1087500Y38848000D03*
X1087500Y44448000D03*
%TD*%
D22*
%TO.C,J4*%
X65750000Y135192000D03*
X64750000Y135192000D03*
X64250000Y135192000D03*
X63250000Y135192000D03*
X62750000Y135192000D03*
X63750000Y135192000D03*
X65250000Y135192000D03*
X66250000Y135192000D03*
D23*
X68818000Y139947000D03*
D24*
X68818000Y135767000D03*
X60182000Y135767000D03*
D23*
X60182000Y139947000D03*
%TD*%
D22*
%TO.C,J4*%
X65750000Y106244000D03*
X64750000Y106244000D03*
X64250000Y106244000D03*
X63250000Y106244000D03*
X62750000Y106244000D03*
X63750000Y106244000D03*
X65250000Y106244000D03*
X66250000Y106244000D03*
D23*
X68818000Y110999000D03*
D24*
X68818000Y106819000D03*
X60182000Y106819000D03*
D23*
X60182000Y110999000D03*
%TD*%
D22*
%TO.C,J4*%
X65750000Y77296000D03*
X64750000Y77296000D03*
X64250000Y77296000D03*
X63250000Y77296000D03*
X62750000Y77296000D03*
X63750000Y77296000D03*
X65250000Y77296000D03*
X66250000Y77296000D03*
D23*
X68818000Y82051000D03*
D24*
X68818000Y77871000D03*
X60182000Y77871000D03*
D23*
X60182000Y82051000D03*
%TD*%
D22*
%TO.C,J4*%
X65750000Y48348000D03*
X64750000Y48348000D03*
X64250000Y48348000D03*
X63250000Y48348000D03*
X62750000Y48348000D03*
X63750000Y48348000D03*
X65250000Y48348000D03*
X66250000Y48348000D03*
D23*
X68818000Y53103000D03*
D24*
X68818000Y48923000D03*
X60182000Y48923000D03*
D23*
X60182000Y53103000D03*
%TD*%
D22*
%TO.C,J4*%
X65750000Y19400000D03*
X64750000Y19400000D03*
X64250000Y19400000D03*
X63250000Y19400000D03*
X62750000Y19400000D03*
X63750000Y19400000D03*
X65250000Y19400000D03*
X66250000Y19400000D03*
D23*
X68818000Y24155000D03*
D24*
X68818000Y19975000D03*
X60182000Y19975000D03*
D23*
X60182000Y24155000D03*
%TD*%
D22*
%TO.C,J4*%
X39850000Y135192000D03*
X38850000Y135192000D03*
X38350000Y135192000D03*
X37350000Y135192000D03*
X36850000Y135192000D03*
X37850000Y135192000D03*
X39350000Y135192000D03*
X40350000Y135192000D03*
D23*
X42918000Y139947000D03*
D24*
X42918000Y135767000D03*
X34282000Y135767000D03*
D23*
X34282000Y139947000D03*
%TD*%
D22*
%TO.C,J4*%
X39850000Y106244000D03*
X38850000Y106244000D03*
X38350000Y106244000D03*
X37350000Y106244000D03*
X36850000Y106244000D03*
X37850000Y106244000D03*
X39350000Y106244000D03*
X40350000Y106244000D03*
D23*
X42918000Y110999000D03*
D24*
X42918000Y106819000D03*
X34282000Y106819000D03*
D23*
X34282000Y110999000D03*
%TD*%
D22*
%TO.C,J4*%
X39850000Y77296000D03*
X38850000Y77296000D03*
X38350000Y77296000D03*
X37350000Y77296000D03*
X36850000Y77296000D03*
X37850000Y77296000D03*
X39350000Y77296000D03*
X40350000Y77296000D03*
D23*
X42918000Y82051000D03*
D24*
X42918000Y77871000D03*
X34282000Y77871000D03*
D23*
X34282000Y82051000D03*
%TD*%
D22*
%TO.C,J4*%
X39850000Y48348000D03*
X38850000Y48348000D03*
X38350000Y48348000D03*
X37350000Y48348000D03*
X36850000Y48348000D03*
X37850000Y48348000D03*
X39350000Y48348000D03*
X40350000Y48348000D03*
D23*
X42918000Y53103000D03*
D24*
X42918000Y48923000D03*
X34282000Y48923000D03*
D23*
X34282000Y53103000D03*
%TD*%
D22*
%TO.C,J4*%
X39850000Y19400000D03*
X38850000Y19400000D03*
X38350000Y19400000D03*
X37350000Y19400000D03*
X36850000Y19400000D03*
X37850000Y19400000D03*
X39350000Y19400000D03*
X40350000Y19400000D03*
D23*
X42918000Y24155000D03*
D24*
X42918000Y19975000D03*
X34282000Y19975000D03*
D23*
X34282000Y24155000D03*
%TD*%
D22*
%TO.C,J4*%
X13950000Y135192000D03*
X12950000Y135192000D03*
X12450000Y135192000D03*
X11450000Y135192000D03*
X10950000Y135192000D03*
X11950000Y135192000D03*
X13450000Y135192000D03*
X14450000Y135192000D03*
D23*
X17018000Y139947000D03*
D24*
X17018000Y135767000D03*
X8382000Y135767000D03*
D23*
X8382000Y139947000D03*
%TD*%
D22*
%TO.C,J4*%
X13950000Y106244000D03*
X12950000Y106244000D03*
X12450000Y106244000D03*
X11450000Y106244000D03*
X10950000Y106244000D03*
X11950000Y106244000D03*
X13450000Y106244000D03*
X14450000Y106244000D03*
D23*
X17018000Y110999000D03*
D24*
X17018000Y106819000D03*
X8382000Y106819000D03*
D23*
X8382000Y110999000D03*
%TD*%
D22*
%TO.C,J4*%
X13950000Y77296000D03*
X12950000Y77296000D03*
X12450000Y77296000D03*
X11450000Y77296000D03*
X10950000Y77296000D03*
X11950000Y77296000D03*
X13450000Y77296000D03*
X14450000Y77296000D03*
D23*
X17018000Y82051000D03*
D24*
X17018000Y77871000D03*
X8382000Y77871000D03*
D23*
X8382000Y82051000D03*
%TD*%
D22*
%TO.C,J4*%
X13950000Y48348000D03*
X12950000Y48348000D03*
X12450000Y48348000D03*
X11450000Y48348000D03*
X10950000Y48348000D03*
X11950000Y48348000D03*
X13450000Y48348000D03*
X14450000Y48348000D03*
D23*
X17018000Y53103000D03*
D24*
X17018000Y48923000D03*
X8382000Y48923000D03*
D23*
X8382000Y53103000D03*
%TD*%
D17*
%TO.C,R2*%
X58467500Y140112000D03*
X58467500Y138462000D03*
%TD*%
%TO.C,R2*%
X58467500Y111164000D03*
X58467500Y109514000D03*
%TD*%
%TO.C,R2*%
X58467500Y82216000D03*
X58467500Y80566000D03*
%TD*%
%TO.C,R2*%
X58467500Y53268000D03*
X58467500Y51618000D03*
%TD*%
%TO.C,R2*%
X58467500Y24320000D03*
X58467500Y22670000D03*
%TD*%
%TO.C,R2*%
X32567500Y140112000D03*
X32567500Y138462000D03*
%TD*%
%TO.C,R2*%
X32567500Y111164000D03*
X32567500Y109514000D03*
%TD*%
%TO.C,R2*%
X32567500Y82216000D03*
X32567500Y80566000D03*
%TD*%
%TO.C,R2*%
X32567500Y53268000D03*
X32567500Y51618000D03*
%TD*%
%TO.C,R2*%
X32567500Y24320000D03*
X32567500Y22670000D03*
%TD*%
%TO.C,R2*%
X6667500Y140112000D03*
X6667500Y138462000D03*
%TD*%
%TO.C,R2*%
X6667500Y111164000D03*
X6667500Y109514000D03*
%TD*%
%TO.C,R2*%
X6667500Y82216000D03*
X6667500Y80566000D03*
%TD*%
%TO.C,R2*%
X6667500Y53268000D03*
X6667500Y51618000D03*
%TD*%
%TO.C,R12*%
X68627500Y127729500D03*
X68627500Y126079500D03*
%TD*%
%TO.C,R12*%
X68627500Y98781500D03*
X68627500Y97131500D03*
%TD*%
%TO.C,R12*%
X68627500Y69833500D03*
X68627500Y68183500D03*
%TD*%
%TO.C,R12*%
X68627500Y40885500D03*
X68627500Y39235500D03*
%TD*%
%TO.C,R12*%
X68627500Y11937500D03*
X68627500Y10287500D03*
%TD*%
%TO.C,R12*%
X42727500Y127729500D03*
X42727500Y126079500D03*
%TD*%
%TO.C,R12*%
X42727500Y98781500D03*
X42727500Y97131500D03*
%TD*%
%TO.C,R12*%
X42727500Y69833500D03*
X42727500Y68183500D03*
%TD*%
%TO.C,R12*%
X42727500Y40885500D03*
X42727500Y39235500D03*
%TD*%
%TO.C,R12*%
X42727500Y11937500D03*
X42727500Y10287500D03*
%TD*%
%TO.C,R12*%
X16827500Y127729500D03*
X16827500Y126079500D03*
%TD*%
%TO.C,R12*%
X16827500Y98781500D03*
X16827500Y97131500D03*
%TD*%
%TO.C,R12*%
X16827500Y69833500D03*
X16827500Y68183500D03*
%TD*%
%TO.C,R12*%
X16827500Y40885500D03*
X16827500Y39235500D03*
%TD*%
D12*
%TO.C,C14*%
X60372500Y133712000D03*
X60372500Y132162000D03*
%TD*%
%TO.C,C14*%
X60372500Y104764000D03*
X60372500Y103214000D03*
%TD*%
%TO.C,C14*%
X60372500Y75816000D03*
X60372500Y74266000D03*
%TD*%
%TO.C,C14*%
X60372500Y46868000D03*
X60372500Y45318000D03*
%TD*%
%TO.C,C14*%
X60372500Y17920000D03*
X60372500Y16370000D03*
%TD*%
%TO.C,C14*%
X34472500Y133712000D03*
X34472500Y132162000D03*
%TD*%
%TO.C,C14*%
X34472500Y104764000D03*
X34472500Y103214000D03*
%TD*%
%TO.C,C14*%
X34472500Y75816000D03*
X34472500Y74266000D03*
%TD*%
%TO.C,C14*%
X34472500Y46868000D03*
X34472500Y45318000D03*
%TD*%
%TO.C,C14*%
X34472500Y17920000D03*
X34472500Y16370000D03*
%TD*%
%TO.C,C14*%
X8572500Y133712000D03*
X8572500Y132162000D03*
%TD*%
%TO.C,C14*%
X8572500Y104764000D03*
X8572500Y103214000D03*
%TD*%
%TO.C,C14*%
X8572500Y75816000D03*
X8572500Y74266000D03*
%TD*%
%TO.C,C14*%
X8572500Y46868000D03*
X8572500Y45318000D03*
%TD*%
D15*
%TO.C,R6*%
X53387500Y133382000D03*
X53387500Y135032000D03*
%TD*%
%TO.C,R6*%
X53387500Y104434000D03*
X53387500Y106084000D03*
%TD*%
%TO.C,R6*%
X53387500Y75486000D03*
X53387500Y77136000D03*
%TD*%
%TO.C,R6*%
X53387500Y46538000D03*
X53387500Y48188000D03*
%TD*%
%TO.C,R6*%
X53387500Y17590000D03*
X53387500Y19240000D03*
%TD*%
%TO.C,R6*%
X27487500Y133382000D03*
X27487500Y135032000D03*
%TD*%
%TO.C,R6*%
X27487500Y104434000D03*
X27487500Y106084000D03*
%TD*%
%TO.C,R6*%
X27487500Y75486000D03*
X27487500Y77136000D03*
%TD*%
%TO.C,R6*%
X27487500Y46538000D03*
X27487500Y48188000D03*
%TD*%
%TO.C,R6*%
X27487500Y17590000D03*
X27487500Y19240000D03*
%TD*%
%TO.C,R6*%
X1587500Y133382000D03*
X1587500Y135032000D03*
%TD*%
%TO.C,R6*%
X1587500Y104434000D03*
X1587500Y106084000D03*
%TD*%
%TO.C,R6*%
X1587500Y75486000D03*
X1587500Y77136000D03*
%TD*%
%TO.C,R6*%
X1587500Y46538000D03*
X1587500Y48188000D03*
%TD*%
D20*
%TO.C,J1*%
X72437500Y126992000D03*
X72437500Y127992000D03*
X72437500Y128992000D03*
X72437500Y129992000D03*
D21*
X76112500Y131292000D03*
X76112500Y125692000D03*
%TD*%
D20*
%TO.C,J1*%
X72437500Y98044000D03*
X72437500Y99044000D03*
X72437500Y100044000D03*
X72437500Y101044000D03*
D21*
X76112500Y102344000D03*
X76112500Y96744000D03*
%TD*%
D20*
%TO.C,J1*%
X72437500Y69096000D03*
X72437500Y70096000D03*
X72437500Y71096000D03*
X72437500Y72096000D03*
D21*
X76112500Y73396000D03*
X76112500Y67796000D03*
%TD*%
D20*
%TO.C,J1*%
X72437500Y40148000D03*
X72437500Y41148000D03*
X72437500Y42148000D03*
X72437500Y43148000D03*
D21*
X76112500Y44448000D03*
X76112500Y38848000D03*
%TD*%
D20*
%TO.C,J1*%
X72437500Y11200000D03*
X72437500Y12200000D03*
X72437500Y13200000D03*
X72437500Y14200000D03*
D21*
X76112500Y15500000D03*
X76112500Y9900000D03*
%TD*%
D20*
%TO.C,J1*%
X46537500Y126992000D03*
X46537500Y127992000D03*
X46537500Y128992000D03*
X46537500Y129992000D03*
D21*
X50212500Y131292000D03*
X50212500Y125692000D03*
%TD*%
D20*
%TO.C,J1*%
X46537500Y98044000D03*
X46537500Y99044000D03*
X46537500Y100044000D03*
X46537500Y101044000D03*
D21*
X50212500Y102344000D03*
X50212500Y96744000D03*
%TD*%
D20*
%TO.C,J1*%
X46537500Y69096000D03*
X46537500Y70096000D03*
X46537500Y71096000D03*
X46537500Y72096000D03*
D21*
X50212500Y73396000D03*
X50212500Y67796000D03*
%TD*%
D20*
%TO.C,J1*%
X46537500Y40148000D03*
X46537500Y41148000D03*
X46537500Y42148000D03*
X46537500Y43148000D03*
D21*
X50212500Y44448000D03*
X50212500Y38848000D03*
%TD*%
D20*
%TO.C,J1*%
X46537500Y11200000D03*
X46537500Y12200000D03*
X46537500Y13200000D03*
X46537500Y14200000D03*
D21*
X50212500Y15500000D03*
X50212500Y9900000D03*
%TD*%
D20*
%TO.C,J1*%
X20637500Y126992000D03*
X20637500Y127992000D03*
X20637500Y128992000D03*
X20637500Y129992000D03*
D21*
X24312500Y131292000D03*
X24312500Y125692000D03*
%TD*%
D20*
%TO.C,J1*%
X20637500Y98044000D03*
X20637500Y99044000D03*
X20637500Y100044000D03*
X20637500Y101044000D03*
D21*
X24312500Y102344000D03*
X24312500Y96744000D03*
%TD*%
D20*
%TO.C,J1*%
X20637500Y69096000D03*
X20637500Y70096000D03*
X20637500Y71096000D03*
X20637500Y72096000D03*
D21*
X24312500Y73396000D03*
X24312500Y67796000D03*
%TD*%
D20*
%TO.C,J1*%
X20637500Y40148000D03*
X20637500Y41148000D03*
X20637500Y42148000D03*
X20637500Y43148000D03*
D21*
X24312500Y44448000D03*
X24312500Y38848000D03*
%TD*%
D25*
%TO.C,D2*%
X76142500Y123094500D03*
X72542500Y123094500D03*
%TD*%
%TO.C,D2*%
X76142500Y94146500D03*
X72542500Y94146500D03*
%TD*%
%TO.C,D2*%
X76142500Y65198500D03*
X72542500Y65198500D03*
%TD*%
%TO.C,D2*%
X76142500Y36250500D03*
X72542500Y36250500D03*
%TD*%
%TO.C,D2*%
X76142500Y7302500D03*
X72542500Y7302500D03*
%TD*%
%TO.C,D2*%
X50242500Y123094500D03*
X46642500Y123094500D03*
%TD*%
%TO.C,D2*%
X50242500Y94146500D03*
X46642500Y94146500D03*
%TD*%
%TO.C,D2*%
X50242500Y65198500D03*
X46642500Y65198500D03*
%TD*%
%TO.C,D2*%
X50242500Y36250500D03*
X46642500Y36250500D03*
%TD*%
%TO.C,D2*%
X50242500Y7302500D03*
X46642500Y7302500D03*
%TD*%
%TO.C,D2*%
X24342500Y123094500D03*
X20742500Y123094500D03*
%TD*%
%TO.C,D2*%
X24342500Y94146500D03*
X20742500Y94146500D03*
%TD*%
%TO.C,D2*%
X24342500Y65198500D03*
X20742500Y65198500D03*
%TD*%
%TO.C,D2*%
X24342500Y36250500D03*
X20742500Y36250500D03*
%TD*%
D17*
%TO.C,R7*%
X58150000Y127729500D03*
X58150000Y126079500D03*
%TD*%
%TO.C,R7*%
X58150000Y98781500D03*
X58150000Y97131500D03*
%TD*%
%TO.C,R7*%
X58150000Y69833500D03*
X58150000Y68183500D03*
%TD*%
%TO.C,R7*%
X58150000Y40885500D03*
X58150000Y39235500D03*
%TD*%
%TO.C,R7*%
X58150000Y11937500D03*
X58150000Y10287500D03*
%TD*%
%TO.C,R7*%
X32250000Y127729500D03*
X32250000Y126079500D03*
%TD*%
%TO.C,R7*%
X32250000Y98781500D03*
X32250000Y97131500D03*
%TD*%
%TO.C,R7*%
X32250000Y69833500D03*
X32250000Y68183500D03*
%TD*%
%TO.C,R7*%
X32250000Y40885500D03*
X32250000Y39235500D03*
%TD*%
%TO.C,R7*%
X32250000Y11937500D03*
X32250000Y10287500D03*
%TD*%
%TO.C,R7*%
X6350000Y127729500D03*
X6350000Y126079500D03*
%TD*%
%TO.C,R7*%
X6350000Y98781500D03*
X6350000Y97131500D03*
%TD*%
%TO.C,R7*%
X6350000Y69833500D03*
X6350000Y68183500D03*
%TD*%
%TO.C,R7*%
X6350000Y40885500D03*
X6350000Y39235500D03*
%TD*%
D26*
%TO.C,D1*%
X53552500Y124047000D03*
X55127500Y124047000D03*
%TD*%
%TO.C,D1*%
X53552500Y95099000D03*
X55127500Y95099000D03*
%TD*%
%TO.C,D1*%
X53552500Y66151000D03*
X55127500Y66151000D03*
%TD*%
%TO.C,D1*%
X53552500Y37203000D03*
X55127500Y37203000D03*
%TD*%
%TO.C,D1*%
X53552500Y8255000D03*
X55127500Y8255000D03*
%TD*%
%TO.C,D1*%
X27652500Y124047000D03*
X29227500Y124047000D03*
%TD*%
%TO.C,D1*%
X27652500Y95099000D03*
X29227500Y95099000D03*
%TD*%
%TO.C,D1*%
X27652500Y66151000D03*
X29227500Y66151000D03*
%TD*%
%TO.C,D1*%
X27652500Y37203000D03*
X29227500Y37203000D03*
%TD*%
%TO.C,D1*%
X27652500Y8255000D03*
X29227500Y8255000D03*
%TD*%
%TO.C,D1*%
X1752500Y124047000D03*
X3327500Y124047000D03*
%TD*%
%TO.C,D1*%
X1752500Y95099000D03*
X3327500Y95099000D03*
%TD*%
%TO.C,D1*%
X1752500Y66151000D03*
X3327500Y66151000D03*
%TD*%
%TO.C,D1*%
X1752500Y37203000D03*
X3327500Y37203000D03*
%TD*%
D27*
%TO.C,C9*%
X58150000Y129304500D03*
X58150000Y130854500D03*
%TD*%
%TO.C,C9*%
X58150000Y100356500D03*
X58150000Y101906500D03*
%TD*%
%TO.C,C9*%
X58150000Y71408500D03*
X58150000Y72958500D03*
%TD*%
%TO.C,C9*%
X58150000Y42460500D03*
X58150000Y44010500D03*
%TD*%
%TO.C,C9*%
X58150000Y13512500D03*
X58150000Y15062500D03*
%TD*%
%TO.C,C9*%
X32250000Y129304500D03*
X32250000Y130854500D03*
%TD*%
%TO.C,C9*%
X32250000Y100356500D03*
X32250000Y101906500D03*
%TD*%
%TO.C,C9*%
X32250000Y71408500D03*
X32250000Y72958500D03*
%TD*%
%TO.C,C9*%
X32250000Y42460500D03*
X32250000Y44010500D03*
%TD*%
%TO.C,C9*%
X32250000Y13512500D03*
X32250000Y15062500D03*
%TD*%
%TO.C,C9*%
X6350000Y129304500D03*
X6350000Y130854500D03*
%TD*%
%TO.C,C9*%
X6350000Y100356500D03*
X6350000Y101906500D03*
%TD*%
%TO.C,C9*%
X6350000Y71408500D03*
X6350000Y72958500D03*
%TD*%
%TO.C,C9*%
X6350000Y42460500D03*
X6350000Y44010500D03*
%TD*%
%TO.C,C9*%
X6350000Y13512500D03*
X6350000Y15062500D03*
%TD*%
D26*
%TO.C,D1*%
X1752500Y8255000D03*
X3327500Y8255000D03*
%TD*%
D17*
%TO.C,R7*%
X6350000Y11937500D03*
X6350000Y10287500D03*
%TD*%
D25*
%TO.C,D2*%
X24342500Y7302500D03*
X20742500Y7302500D03*
%TD*%
D20*
%TO.C,J1*%
X20637500Y11200000D03*
X20637500Y12200000D03*
X20637500Y13200000D03*
X20637500Y14200000D03*
D21*
X24312500Y15500000D03*
X24312500Y9900000D03*
%TD*%
D15*
%TO.C,R6*%
X1587500Y17590000D03*
X1587500Y19240000D03*
%TD*%
D12*
%TO.C,C14*%
X8572500Y17920000D03*
X8572500Y16370000D03*
%TD*%
D17*
%TO.C,R12*%
X16827500Y11937500D03*
X16827500Y10287500D03*
%TD*%
%TO.C,R2*%
X6667500Y24320000D03*
X6667500Y22670000D03*
%TD*%
D22*
%TO.C,J4*%
X13950000Y19400000D03*
X12950000Y19400000D03*
X12450000Y19400000D03*
X11450000Y19400000D03*
X10950000Y19400000D03*
X11950000Y19400000D03*
X13450000Y19400000D03*
X14450000Y19400000D03*
D23*
X17018000Y24155000D03*
D24*
X17018000Y19975000D03*
X8382000Y19975000D03*
D23*
X8382000Y24155000D03*
%TD*%
D20*
%TO.C,J2*%
X4762500Y14200000D03*
X4762500Y13200000D03*
X4762500Y12200000D03*
X4762500Y11200000D03*
D21*
X1087500Y9900000D03*
X1087500Y15500000D03*
%TD*%
D19*
%TO.C,D7*%
X5232500Y19700000D03*
X5232500Y19050000D03*
X5232500Y18400000D03*
X6832500Y18400000D03*
X6832500Y19700000D03*
%TD*%
D15*
%TO.C,R8*%
X3492500Y17590000D03*
X3492500Y19240000D03*
%TD*%
D18*
%TO.C,D3*%
X6512500Y20796250D03*
X5552500Y20796250D03*
%TD*%
D17*
%TO.C,R4*%
X18732500Y24320000D03*
X18732500Y22670000D03*
%TD*%
%TO.C,R11*%
X16827500Y15112500D03*
X16827500Y13462500D03*
%TD*%
D16*
%TO.C,R3*%
X3365000Y6667500D03*
X1715000Y6667500D03*
%TD*%
D15*
%TO.C,R10*%
X18732500Y13462500D03*
X18732500Y15112500D03*
%TD*%
D12*
%TO.C,C10*%
X24447500Y18872500D03*
X24447500Y17322500D03*
%TD*%
D15*
%TO.C,R5*%
X18732500Y10287500D03*
X18732500Y11937500D03*
%TD*%
D14*
%TO.C,U6*%
X20289900Y19047500D03*
X20289900Y18097500D03*
X20289900Y17147500D03*
X22890100Y17147500D03*
X22890100Y19047500D03*
%TD*%
D13*
%TO.C,D5*%
X8572500Y11550000D03*
X8572500Y13850000D03*
%TD*%
D12*
%TO.C,C1*%
X18732500Y18872500D03*
X18732500Y17322500D03*
%TD*%
D11*
%TO.C,C11*%
X6807500Y16827500D03*
X5257500Y16827500D03*
%TD*%
M02*
