M48
; DRILL file {KiCad 9.0.5} date 2025-10-21T20:43:03-0600
; FORMAT={-:-/ absolute / metric / decimal}
; #@! TF.CreationDate,2025-10-21T20:43:03-06:00
; #@! TF.GenerationSoftware,Kicad,Pcbnew,9.0.5
; #@! TF.FileFunction,MixedPlating,1,4
FMAT,2
METRIC
; #@! TA.AperFunction,Plated,PTH,ViaDrill
T1C0.300
; #@! TA.AperFunction,Plated,PTH,ComponentDrill
T2C0.600
; #@! TA.AperFunction,Plated,PTH,ComponentDrill
T3C1.016
; #@! TA.AperFunction,NonPlated,NPTH,ComponentDrill
T4C0.650
; #@! TA.AperFunction,NonPlated,NPTH,ComponentDrill
T5C2.300
; #@! TA.AperFunction,NonPlated,NPTH,ComponentDrill
T6C3.100
%
G90
G05
T1
X0.635Y124.047
X0.635Y95.099
X0.635Y66.151
X0.635Y37.203
X0.635Y8.255
X1.27Y136.429
X1.27Y107.481
X1.27Y78.533
X1.27Y49.585
X1.27Y20.637
X1.905Y121.189
X1.905Y92.242
X1.905Y63.293
X1.905Y34.346
X1.905Y5.397
X2.54Y136.429
X2.54Y107.481
X2.54Y78.533
X2.54Y49.585
X2.54Y20.637
X3.492Y136.429
X3.492Y130.397
X3.492Y129.603
X3.492Y126.269
X3.492Y107.481
X3.492Y101.449
X3.492Y100.655
X3.492Y97.322
X3.492Y78.533
X3.492Y72.501
X3.492Y71.707
X3.492Y68.373
X3.492Y49.585
X3.492Y43.553
X3.492Y42.759
X3.492Y39.425
X3.492Y20.637
X3.492Y14.605
X3.492Y13.811
X3.492Y10.477
X3.651Y131.191
X3.651Y102.243
X3.651Y73.295
X3.651Y44.347
X3.651Y15.399
X3.704Y128.491
X3.704Y99.543
X3.704Y70.595
X3.704Y41.647
X3.704Y12.699
X3.765Y127.58
X3.765Y98.632
X3.765Y69.684
X3.765Y40.736
X3.765Y11.788
X4.127Y123.094
X4.127Y94.146
X4.127Y65.198
X4.127Y36.25
X4.127Y7.302
X4.445Y136.112
X4.445Y134.207
X4.445Y131.35
X4.445Y107.164
X4.445Y105.259
X4.445Y102.401
X4.445Y78.216
X4.445Y76.311
X4.445Y73.453
X4.445Y49.268
X4.445Y47.363
X4.445Y44.505
X4.445Y20.32
X4.445Y18.415
X4.445Y15.557
X5.715Y140.239
X5.715Y111.291
X5.715Y82.343
X5.715Y53.395
X5.715Y24.447
X6.032Y134.842
X6.032Y123.094
X6.032Y105.894
X6.032Y94.146
X6.032Y76.946
X6.032Y65.198
X6.032Y47.998
X6.032Y36.25
X6.032Y19.05
X6.032Y7.302
X6.985Y134.842
X6.985Y105.894
X6.985Y76.946
X6.985Y47.998
X6.985Y19.05
X7.62Y132.619
X7.62Y131.35
X7.62Y124.682
X7.62Y103.671
X7.62Y102.401
X7.62Y95.734
X7.62Y74.724
X7.62Y73.453
X7.62Y66.786
X7.62Y45.776
X7.62Y44.505
X7.62Y37.838
X7.62Y16.828
X7.62Y15.557
X7.62Y8.89
X7.938Y125.634
X7.938Y96.686
X7.938Y67.739
X7.938Y38.791
X7.938Y9.842
X8.572Y130.714
X8.572Y129.013
X8.572Y101.766
X8.572Y100.065
X8.572Y72.819
X8.572Y71.117
X8.572Y43.87
X8.572Y42.169
X8.572Y14.922
X8.572Y13.221
X8.89Y124.047
X8.89Y95.099
X8.89Y66.151
X8.89Y37.203
X8.89Y8.255
X9.207Y137.064
X9.207Y108.117
X9.207Y79.168
X9.207Y50.221
X9.207Y21.272
X9.525Y133.572
X9.525Y132.302
X9.525Y130.913
X9.525Y104.624
X9.525Y103.354
X9.525Y101.965
X9.525Y75.676
X9.525Y74.406
X9.525Y73.017
X9.525Y46.728
X9.525Y45.458
X9.525Y44.069
X9.525Y17.78
X9.525Y16.51
X9.525Y15.121
X9.842Y127.222
X9.842Y98.274
X9.842Y69.326
X9.842Y40.378
X9.842Y11.43
X10.477Y138.334
X10.477Y129.445
X10.477Y109.386
X10.477Y100.496
X10.477Y80.438
X10.477Y71.548
X10.477Y51.49
X10.477Y42.6
X10.477Y22.543
X10.477Y13.652
X10.795Y127.857
X10.795Y124.682
X10.795Y98.909
X10.795Y95.734
X10.795Y69.961
X10.795Y66.786
X10.795Y41.013
X10.795Y37.838
X10.795Y12.065
X10.795Y8.89
X11.747Y136.747
X11.747Y132.506
X11.747Y107.799
X11.747Y103.558
X11.747Y78.851
X11.747Y74.61
X11.747Y49.903
X11.747Y45.662
X11.747Y20.955
X11.747Y16.714
X12.7Y126.587
X12.7Y97.639
X12.7Y68.691
X12.7Y39.743
X12.7Y10.795
X12.701Y133.394
X12.701Y104.446
X12.701Y75.498
X12.701Y46.55
X12.701Y17.602
X13.249Y128.923
X13.249Y99.975
X13.249Y71.027
X13.249Y42.079
X13.249Y13.131
X13.429Y136.906
X13.429Y107.958
X13.429Y79.01
X13.429Y50.062
X13.429Y21.114
X14.98Y138.334
X14.98Y109.386
X14.98Y80.438
X14.98Y51.49
X14.98Y22.543
X15.24Y124.682
X15.24Y95.734
X15.24Y66.786
X15.24Y37.838
X15.24Y8.89
X15.637Y132.935
X15.637Y103.987
X15.637Y75.039
X15.637Y46.091
X15.637Y17.143
X15.796Y131.984
X15.796Y103.036
X15.796Y74.088
X15.796Y45.14
X15.796Y16.192
X15.875Y130.397
X15.875Y101.449
X15.875Y72.501
X15.875Y43.553
X15.875Y14.605
X15.954Y133.574
X15.954Y104.626
X15.954Y75.678
X15.954Y46.73
X15.954Y17.782
X16.192Y137.064
X16.192Y128.492
X16.192Y108.117
X16.192Y99.544
X16.192Y79.168
X16.192Y70.596
X16.192Y50.221
X16.192Y41.648
X16.192Y21.272
X16.192Y12.7
X17.009Y134.176
X17.009Y105.228
X17.009Y76.28
X17.009Y47.332
X17.009Y18.384
X17.649Y129.775
X17.649Y100.827
X17.649Y71.879
X17.649Y42.931
X17.649Y13.983
X17.78Y131.984
X17.78Y122.142
X17.78Y103.036
X17.78Y93.194
X17.78Y74.088
X17.78Y64.246
X17.78Y45.14
X17.78Y35.298
X17.78Y16.192
X17.78Y6.35
X18.098Y124.682
X18.098Y95.734
X18.098Y66.786
X18.098Y37.838
X18.098Y8.89
X19.3Y132.292
X19.3Y103.344
X19.3Y74.396
X19.3Y45.448
X19.3Y16.5
X19.304Y137.064
X19.304Y108.117
X19.304Y79.168
X19.304Y50.221
X19.304Y21.272
X20.637Y136.747
X20.637Y130.724
X20.637Y124.682
X20.637Y107.799
X20.637Y101.776
X20.637Y95.734
X20.637Y78.851
X20.637Y72.828
X20.637Y66.786
X20.637Y49.903
X20.637Y43.88
X20.637Y37.838
X20.637Y20.955
X20.637Y14.932
X20.637Y8.89
X20.955Y131.984
X20.955Y103.036
X20.955Y74.088
X20.955Y45.14
X20.955Y16.192
X21.59Y140.557
X21.59Y133.889
X21.59Y111.609
X21.59Y104.941
X21.59Y82.661
X21.59Y75.993
X21.59Y53.713
X21.59Y47.045
X21.59Y24.765
X21.59Y18.098
X21.745Y128.749
X21.745Y99.801
X21.745Y70.853
X21.745Y41.905
X21.745Y12.957
X22.85Y128.267
X22.85Y99.319
X22.85Y70.371
X22.85Y41.423
X22.85Y12.475
X22.86Y131.984
X22.86Y103.036
X22.86Y74.088
X22.86Y45.14
X22.86Y16.192
X22.974Y128.968
X22.974Y100.02
X22.974Y71.072
X22.974Y42.124
X22.974Y13.176
X23.342Y127.108
X23.342Y98.16
X23.342Y69.212
X23.342Y40.264
X23.342Y11.316
X23.9Y129.992
X23.9Y101.044
X23.9Y72.096
X23.9Y43.148
X23.9Y14.2
X24.447Y124.364
X24.447Y95.416
X24.447Y66.468
X24.447Y37.52
X24.447Y8.572
X24.765Y136.112
X24.765Y129.762
X24.765Y107.164
X24.765Y100.814
X24.765Y78.216
X24.765Y71.866
X24.765Y49.268
X24.765Y42.918
X24.765Y20.32
X24.765Y13.97
X26.535Y124.047
X26.535Y95.099
X26.535Y66.151
X26.535Y37.203
X26.535Y8.255
X27.17Y136.429
X27.17Y107.481
X27.17Y78.533
X27.17Y49.585
X27.17Y20.637
X27.805Y121.189
X27.805Y92.242
X27.805Y63.293
X27.805Y34.346
X27.805Y5.397
X28.44Y136.429
X28.44Y107.481
X28.44Y78.533
X28.44Y49.585
X28.44Y20.637
X29.392Y136.429
X29.392Y130.397
X29.392Y129.603
X29.392Y126.269
X29.392Y107.481
X29.392Y101.449
X29.392Y100.655
X29.392Y97.322
X29.392Y78.533
X29.392Y72.501
X29.392Y71.707
X29.392Y68.373
X29.392Y49.585
X29.392Y43.553
X29.392Y42.759
X29.392Y39.425
X29.392Y20.637
X29.392Y14.605
X29.392Y13.811
X29.392Y10.477
X29.551Y131.191
X29.551Y102.243
X29.551Y73.295
X29.551Y44.347
X29.551Y15.399
X29.604Y128.491
X29.604Y99.543
X29.604Y70.595
X29.604Y41.647
X29.604Y12.699
X29.665Y127.58
X29.665Y98.632
X29.665Y69.684
X29.665Y40.736
X29.665Y11.788
X30.027Y123.094
X30.027Y94.146
X30.027Y65.198
X30.027Y36.25
X30.027Y7.302
X30.345Y136.112
X30.345Y134.207
X30.345Y131.35
X30.345Y107.164
X30.345Y105.259
X30.345Y102.401
X30.345Y78.216
X30.345Y76.311
X30.345Y73.453
X30.345Y49.268
X30.345Y47.363
X30.345Y44.505
X30.345Y20.32
X30.345Y18.415
X30.345Y15.557
X31.615Y140.239
X31.615Y111.291
X31.615Y82.343
X31.615Y53.395
X31.615Y24.447
X31.932Y134.842
X31.932Y123.094
X31.932Y105.894
X31.932Y94.146
X31.932Y76.946
X31.932Y65.198
X31.932Y47.998
X31.932Y36.25
X31.932Y19.05
X31.932Y7.302
X32.885Y134.842
X32.885Y105.894
X32.885Y76.946
X32.885Y47.998
X32.885Y19.05
X33.52Y132.619
X33.52Y131.35
X33.52Y124.682
X33.52Y103.671
X33.52Y102.401
X33.52Y95.734
X33.52Y74.724
X33.52Y73.453
X33.52Y66.786
X33.52Y45.776
X33.52Y44.505
X33.52Y37.838
X33.52Y16.828
X33.52Y15.557
X33.52Y8.89
X33.837Y125.634
X33.837Y96.686
X33.837Y67.739
X33.837Y38.791
X33.837Y9.842
X34.472Y130.714
X34.472Y129.013
X34.472Y101.766
X34.472Y100.065
X34.472Y72.819
X34.472Y71.117
X34.472Y43.87
X34.472Y42.169
X34.472Y14.922
X34.472Y13.221
X34.79Y124.047
X34.79Y95.099
X34.79Y66.151
X34.79Y37.203
X34.79Y8.255
X35.108Y137.064
X35.108Y108.117
X35.108Y79.168
X35.108Y50.221
X35.108Y21.272
X35.425Y133.572
X35.425Y132.302
X35.425Y130.913
X35.425Y104.624
X35.425Y103.354
X35.425Y101.965
X35.425Y75.676
X35.425Y74.406
X35.425Y73.017
X35.425Y46.728
X35.425Y45.458
X35.425Y44.069
X35.425Y17.78
X35.425Y16.51
X35.425Y15.121
X35.742Y127.222
X35.742Y98.274
X35.742Y69.326
X35.742Y40.378
X35.742Y11.43
X36.377Y138.334
X36.377Y129.445
X36.377Y109.386
X36.377Y100.496
X36.377Y80.438
X36.377Y71.548
X36.377Y51.49
X36.377Y42.6
X36.377Y22.543
X36.377Y13.652
X36.695Y127.857
X36.695Y124.682
X36.695Y98.909
X36.695Y95.734
X36.695Y69.961
X36.695Y66.786
X36.695Y41.013
X36.695Y37.838
X36.695Y12.065
X36.695Y8.89
X37.648Y136.747
X37.648Y132.506
X37.648Y107.799
X37.648Y103.558
X37.648Y78.851
X37.648Y74.61
X37.648Y49.903
X37.648Y45.662
X37.648Y20.955
X37.648Y16.714
X38.6Y126.587
X38.6Y97.639
X38.6Y68.691
X38.6Y39.743
X38.6Y10.795
X38.601Y133.394
X38.601Y104.446
X38.601Y75.498
X38.601Y46.55
X38.601Y17.602
X39.149Y128.923
X39.149Y99.975
X39.149Y71.027
X39.149Y42.079
X39.149Y13.131
X39.329Y136.906
X39.329Y107.958
X39.329Y79.01
X39.329Y50.062
X39.329Y21.114
X40.88Y138.334
X40.88Y109.386
X40.88Y80.438
X40.88Y51.49
X40.88Y22.543
X41.14Y124.682
X41.14Y95.734
X41.14Y66.786
X41.14Y37.838
X41.14Y8.89
X41.537Y132.935
X41.537Y103.987
X41.537Y75.039
X41.537Y46.091
X41.537Y17.143
X41.696Y131.984
X41.696Y103.036
X41.696Y74.088
X41.696Y45.14
X41.696Y16.192
X41.775Y130.397
X41.775Y101.449
X41.775Y72.501
X41.775Y43.553
X41.775Y14.605
X41.854Y133.574
X41.854Y104.626
X41.854Y75.678
X41.854Y46.73
X41.854Y17.782
X42.093Y137.064
X42.093Y128.492
X42.093Y108.117
X42.093Y99.544
X42.093Y79.168
X42.093Y70.596
X42.093Y50.221
X42.093Y41.648
X42.093Y21.272
X42.093Y12.7
X42.909Y134.176
X42.909Y105.228
X42.909Y76.28
X42.909Y47.332
X42.909Y18.384
X43.549Y129.775
X43.549Y100.827
X43.549Y71.879
X43.549Y42.931
X43.549Y13.983
X43.68Y131.984
X43.68Y122.142
X43.68Y103.036
X43.68Y93.194
X43.68Y74.088
X43.68Y64.246
X43.68Y45.14
X43.68Y35.298
X43.68Y16.192
X43.68Y6.35
X43.997Y124.682
X43.997Y95.734
X43.997Y66.786
X43.997Y37.838
X43.997Y8.89
X45.2Y132.292
X45.2Y103.344
X45.2Y74.396
X45.2Y45.448
X45.2Y16.5
X45.204Y137.064
X45.204Y108.117
X45.204Y79.168
X45.204Y50.221
X45.204Y21.272
X46.538Y136.747
X46.538Y130.724
X46.538Y124.682
X46.538Y107.799
X46.538Y101.776
X46.538Y95.734
X46.538Y78.851
X46.538Y72.828
X46.538Y66.786
X46.538Y49.903
X46.538Y43.88
X46.538Y37.838
X46.538Y20.955
X46.538Y14.932
X46.538Y8.89
X46.855Y131.984
X46.855Y103.036
X46.855Y74.088
X46.855Y45.14
X46.855Y16.192
X47.49Y140.557
X47.49Y133.889
X47.49Y111.609
X47.49Y104.941
X47.49Y82.661
X47.49Y75.993
X47.49Y53.713
X47.49Y47.045
X47.49Y24.765
X47.49Y18.098
X47.645Y128.749
X47.645Y99.801
X47.645Y70.853
X47.645Y41.905
X47.645Y12.957
X48.75Y128.267
X48.75Y99.319
X48.75Y70.371
X48.75Y41.423
X48.75Y12.475
X48.76Y131.984
X48.76Y103.036
X48.76Y74.088
X48.76Y45.14
X48.76Y16.192
X48.874Y128.968
X48.874Y100.02
X48.874Y71.072
X48.874Y42.124
X48.874Y13.176
X49.242Y127.108
X49.242Y98.16
X49.242Y69.212
X49.242Y40.264
X49.242Y11.316
X49.8Y129.992
X49.8Y101.044
X49.8Y72.096
X49.8Y43.148
X49.8Y14.2
X50.347Y124.364
X50.347Y95.416
X50.347Y66.468
X50.347Y37.52
X50.347Y8.572
X50.665Y136.112
X50.665Y129.762
X50.665Y107.164
X50.665Y100.814
X50.665Y78.216
X50.665Y71.866
X50.665Y49.268
X50.665Y42.918
X50.665Y20.32
X50.665Y13.97
X52.435Y124.047
X52.435Y95.099
X52.435Y66.151
X52.435Y37.203
X52.435Y8.255
X53.07Y136.429
X53.07Y107.481
X53.07Y78.533
X53.07Y49.585
X53.07Y20.637
X53.705Y121.189
X53.705Y92.242
X53.705Y63.293
X53.705Y34.346
X53.705Y5.397
X54.34Y136.429
X54.34Y107.481
X54.34Y78.533
X54.34Y49.585
X54.34Y20.637
X55.292Y136.429
X55.292Y130.397
X55.292Y129.603
X55.292Y126.269
X55.292Y107.481
X55.292Y101.449
X55.292Y100.655
X55.292Y97.322
X55.292Y78.533
X55.292Y72.501
X55.292Y71.707
X55.292Y68.373
X55.292Y49.585
X55.292Y43.553
X55.292Y42.759
X55.292Y39.425
X55.292Y20.637
X55.292Y14.605
X55.292Y13.811
X55.292Y10.477
X55.451Y131.191
X55.451Y102.243
X55.451Y73.295
X55.451Y44.347
X55.451Y15.399
X55.504Y128.491
X55.504Y99.543
X55.504Y70.595
X55.504Y41.647
X55.504Y12.699
X55.565Y127.58
X55.565Y98.632
X55.565Y69.684
X55.565Y40.736
X55.565Y11.788
X55.927Y123.094
X55.927Y94.146
X55.927Y65.198
X55.927Y36.25
X55.927Y7.302
X56.245Y136.112
X56.245Y134.207
X56.245Y131.35
X56.245Y107.164
X56.245Y105.259
X56.245Y102.401
X56.245Y78.216
X56.245Y76.311
X56.245Y73.453
X56.245Y49.268
X56.245Y47.363
X56.245Y44.505
X56.245Y20.32
X56.245Y18.415
X56.245Y15.557
X57.515Y140.239
X57.515Y111.291
X57.515Y82.343
X57.515Y53.395
X57.515Y24.447
X57.832Y134.842
X57.832Y123.094
X57.832Y105.894
X57.832Y94.146
X57.832Y76.946
X57.832Y65.198
X57.832Y47.998
X57.832Y36.25
X57.832Y19.05
X57.832Y7.302
X58.785Y134.842
X58.785Y105.894
X58.785Y76.946
X58.785Y47.998
X58.785Y19.05
X59.42Y132.619
X59.42Y131.35
X59.42Y124.682
X59.42Y103.671
X59.42Y102.401
X59.42Y95.734
X59.42Y74.724
X59.42Y73.453
X59.42Y66.786
X59.42Y45.776
X59.42Y44.505
X59.42Y37.838
X59.42Y16.828
X59.42Y15.557
X59.42Y8.89
X59.737Y125.634
X59.737Y96.686
X59.737Y67.739
X59.737Y38.791
X59.737Y9.842
X60.372Y130.714
X60.372Y129.013
X60.372Y101.766
X60.372Y100.065
X60.372Y72.819
X60.372Y71.117
X60.372Y43.87
X60.372Y42.169
X60.372Y14.922
X60.372Y13.221
X60.69Y124.047
X60.69Y95.099
X60.69Y66.151
X60.69Y37.203
X60.69Y8.255
X61.008Y137.064
X61.008Y108.117
X61.008Y79.168
X61.008Y50.221
X61.008Y21.272
X61.325Y133.572
X61.325Y132.302
X61.325Y130.913
X61.325Y104.624
X61.325Y103.354
X61.325Y101.965
X61.325Y75.676
X61.325Y74.406
X61.325Y73.017
X61.325Y46.728
X61.325Y45.458
X61.325Y44.069
X61.325Y17.78
X61.325Y16.51
X61.325Y15.121
X61.642Y127.222
X61.642Y98.274
X61.642Y69.326
X61.642Y40.378
X61.642Y11.43
X62.277Y138.334
X62.277Y129.445
X62.277Y109.386
X62.277Y100.496
X62.277Y80.438
X62.277Y71.548
X62.277Y51.49
X62.277Y42.6
X62.277Y22.543
X62.277Y13.652
X62.595Y127.857
X62.595Y124.682
X62.595Y98.909
X62.595Y95.734
X62.595Y69.961
X62.595Y66.786
X62.595Y41.013
X62.595Y37.838
X62.595Y12.065
X62.595Y8.89
X63.547Y136.747
X63.547Y132.506
X63.547Y107.799
X63.547Y103.558
X63.547Y78.851
X63.547Y74.61
X63.547Y49.903
X63.547Y45.662
X63.547Y20.955
X63.547Y16.714
X64.5Y126.587
X64.5Y97.639
X64.5Y68.691
X64.5Y39.743
X64.5Y10.795
X64.501Y133.394
X64.501Y104.446
X64.501Y75.498
X64.501Y46.55
X64.501Y17.602
X65.049Y128.923
X65.049Y99.975
X65.049Y71.027
X65.049Y42.079
X65.049Y13.131
X65.229Y136.906
X65.229Y107.958
X65.229Y79.01
X65.229Y50.062
X65.229Y21.114
X66.78Y138.334
X66.78Y109.386
X66.78Y80.438
X66.78Y51.49
X66.78Y22.543
X67.04Y124.682
X67.04Y95.734
X67.04Y66.786
X67.04Y37.838
X67.04Y8.89
X67.437Y132.935
X67.437Y103.987
X67.437Y75.039
X67.437Y46.091
X67.437Y17.143
X67.596Y131.984
X67.596Y103.036
X67.596Y74.088
X67.596Y45.14
X67.596Y16.192
X67.675Y130.397
X67.675Y101.449
X67.675Y72.501
X67.675Y43.553
X67.675Y14.605
X67.754Y133.574
X67.754Y104.626
X67.754Y75.678
X67.754Y46.73
X67.754Y17.782
X67.992Y137.064
X67.992Y128.492
X67.992Y108.117
X67.992Y99.544
X67.992Y79.168
X67.992Y70.596
X67.992Y50.221
X67.992Y41.648
X67.992Y21.272
X67.992Y12.7
X68.809Y134.176
X68.809Y105.228
X68.809Y76.28
X68.809Y47.332
X68.809Y18.384
X69.449Y129.775
X69.449Y100.827
X69.449Y71.879
X69.449Y42.931
X69.449Y13.983
X69.58Y131.984
X69.58Y122.142
X69.58Y103.036
X69.58Y93.194
X69.58Y74.088
X69.58Y64.246
X69.58Y45.14
X69.58Y35.298
X69.58Y16.192
X69.58Y6.35
X69.897Y124.682
X69.897Y95.734
X69.897Y66.786
X69.897Y37.838
X69.897Y8.89
X71.1Y132.292
X71.1Y103.344
X71.1Y74.396
X71.1Y45.448
X71.1Y16.5
X71.104Y137.064
X71.104Y108.117
X71.104Y79.168
X71.104Y50.221
X71.104Y21.272
X72.438Y136.747
X72.438Y130.724
X72.438Y124.682
X72.438Y107.799
X72.438Y101.776
X72.438Y95.734
X72.438Y78.851
X72.438Y72.828
X72.438Y66.786
X72.438Y49.903
X72.438Y43.88
X72.438Y37.838
X72.438Y20.955
X72.438Y14.932
X72.438Y8.89
X72.755Y131.984
X72.755Y103.036
X72.755Y74.088
X72.755Y45.14
X72.755Y16.192
X73.39Y140.557
X73.39Y133.889
X73.39Y111.609
X73.39Y104.941
X73.39Y82.661
X73.39Y75.993
X73.39Y53.713
X73.39Y47.045
X73.39Y24.765
X73.39Y18.098
X73.545Y128.749
X73.545Y99.801
X73.545Y70.853
X73.545Y41.905
X73.545Y12.957
X74.65Y128.267
X74.65Y99.319
X74.65Y70.371
X74.65Y41.423
X74.65Y12.475
X74.66Y131.984
X74.66Y103.036
X74.66Y74.088
X74.66Y45.14
X74.66Y16.192
X74.774Y128.968
X74.774Y100.02
X74.774Y71.072
X74.774Y42.124
X74.774Y13.176
X75.142Y127.108
X75.142Y98.16
X75.142Y69.212
X75.142Y40.264
X75.142Y11.316
X75.7Y129.992
X75.7Y101.044
X75.7Y72.096
X75.7Y43.148
X75.7Y14.2
X76.248Y124.364
X76.248Y95.416
X76.248Y66.468
X76.248Y37.52
X76.248Y8.572
X76.565Y136.112
X76.565Y129.762
X76.565Y107.164
X76.565Y100.814
X76.565Y78.216
X76.565Y71.866
X76.565Y49.268
X76.565Y42.918
X76.565Y20.32
X76.565Y13.97
T3
X6.35Y119.602
X6.35Y117.062
X6.35Y90.654
X6.35Y88.114
X6.35Y61.706
X6.35Y59.166
X6.35Y32.758
X6.35Y30.218
X6.35Y3.81
X6.35Y1.27
X8.89Y119.602
X8.89Y117.062
X8.89Y90.654
X8.89Y88.114
X8.89Y61.706
X8.89Y59.166
X8.89Y32.758
X8.89Y30.218
X8.89Y3.81
X8.89Y1.27
X11.43Y119.602
X11.43Y117.062
X11.43Y90.654
X11.43Y88.114
X11.43Y61.706
X11.43Y59.166
X11.43Y32.758
X11.43Y30.218
X11.43Y3.81
X11.43Y1.27
X13.97Y119.602
X13.97Y117.062
X13.97Y90.654
X13.97Y88.114
X13.97Y61.706
X13.97Y59.166
X13.97Y32.758
X13.97Y30.218
X13.97Y3.81
X13.97Y1.27
X16.51Y119.602
X16.51Y117.062
X16.51Y90.654
X16.51Y88.114
X16.51Y61.706
X16.51Y59.166
X16.51Y32.758
X16.51Y30.218
X16.51Y3.81
X16.51Y1.27
X19.05Y119.602
X19.05Y117.062
X19.05Y90.654
X19.05Y88.114
X19.05Y61.706
X19.05Y59.166
X19.05Y32.758
X19.05Y30.218
X19.05Y3.81
X19.05Y1.27
X32.25Y119.602
X32.25Y117.062
X32.25Y90.654
X32.25Y88.114
X32.25Y61.706
X32.25Y59.166
X32.25Y32.758
X32.25Y30.218
X32.25Y3.81
X32.25Y1.27
X34.79Y119.602
X34.79Y117.062
X34.79Y90.654
X34.79Y88.114
X34.79Y61.706
X34.79Y59.166
X34.79Y32.758
X34.79Y30.218
X34.79Y3.81
X34.79Y1.27
X37.33Y119.602
X37.33Y117.062
X37.33Y90.654
X37.33Y88.114
X37.33Y61.706
X37.33Y59.166
X37.33Y32.758
X37.33Y30.218
X37.33Y3.81
X37.33Y1.27
X39.87Y119.602
X39.87Y117.062
X39.87Y90.654
X39.87Y88.114
X39.87Y61.706
X39.87Y59.166
X39.87Y32.758
X39.87Y30.218
X39.87Y3.81
X39.87Y1.27
X42.41Y119.602
X42.41Y117.062
X42.41Y90.654
X42.41Y88.114
X42.41Y61.706
X42.41Y59.166
X42.41Y32.758
X42.41Y30.218
X42.41Y3.81
X42.41Y1.27
X44.95Y119.602
X44.95Y117.062
X44.95Y90.654
X44.95Y88.114
X44.95Y61.706
X44.95Y59.166
X44.95Y32.758
X44.95Y30.218
X44.95Y3.81
X44.95Y1.27
X58.15Y119.602
X58.15Y117.062
X58.15Y90.654
X58.15Y88.114
X58.15Y61.706
X58.15Y59.166
X58.15Y32.758
X58.15Y30.218
X58.15Y3.81
X58.15Y1.27
X60.69Y119.602
X60.69Y117.062
X60.69Y90.654
X60.69Y88.114
X60.69Y61.706
X60.69Y59.166
X60.69Y32.758
X60.69Y30.218
X60.69Y3.81
X60.69Y1.27
X63.23Y119.602
X63.23Y117.062
X63.23Y90.654
X63.23Y88.114
X63.23Y61.706
X63.23Y59.166
X63.23Y32.758
X63.23Y30.218
X63.23Y3.81
X63.23Y1.27
X65.77Y119.602
X65.77Y117.062
X65.77Y90.654
X65.77Y88.114
X65.77Y61.706
X65.77Y59.166
X65.77Y32.758
X65.77Y30.218
X65.77Y3.81
X65.77Y1.27
X68.31Y119.602
X68.31Y117.062
X68.31Y90.654
X68.31Y88.114
X68.31Y61.706
X68.31Y59.166
X68.31Y32.758
X68.31Y30.218
X68.31Y3.81
X68.31Y1.27
X70.85Y119.602
X70.85Y117.062
X70.85Y90.654
X70.85Y88.114
X70.85Y61.706
X70.85Y59.166
X70.85Y32.758
X70.85Y30.218
X70.85Y3.81
X70.85Y1.27
T4
X9.81Y136.297
X9.81Y107.349
X9.81Y78.401
X9.81Y49.453
X9.81Y20.505
X15.59Y136.297
X15.59Y107.349
X15.59Y78.401
X15.59Y49.453
X15.59Y20.505
X35.71Y136.297
X35.71Y107.349
X35.71Y78.401
X35.71Y49.453
X35.71Y20.505
X41.49Y136.297
X41.49Y107.349
X41.49Y78.401
X41.49Y49.453
X41.49Y20.505
X61.61Y136.297
X61.61Y107.349
X61.61Y78.401
X61.61Y49.453
X61.61Y20.505
X67.39Y136.297
X67.39Y107.349
X67.39Y78.401
X67.39Y49.453
X67.39Y20.505
T5
X22.543Y123.094
X22.543Y94.146
X22.543Y65.198
X22.543Y36.25
X22.543Y7.302
X48.442Y123.094
X48.442Y94.146
X48.442Y65.198
X48.442Y36.25
X48.442Y7.302
X74.343Y123.094
X74.343Y94.146
X74.343Y65.198
X74.343Y36.25
X74.343Y7.302
T6
X2.54Y138.652
X2.54Y118.332
X2.54Y109.704
X2.54Y89.384
X2.54Y80.756
X2.54Y60.436
X2.54Y51.808
X2.54Y31.488
X2.54Y22.86
X2.54Y2.54
X22.86Y138.652
X22.86Y118.411
X22.86Y109.704
X22.86Y89.463
X22.86Y80.756
X22.86Y60.515
X22.86Y51.808
X22.86Y31.567
X22.86Y22.86
X22.86Y2.619
X28.44Y138.652
X28.44Y118.332
X28.44Y109.704
X28.44Y89.384
X28.44Y80.756
X28.44Y60.436
X28.44Y51.808
X28.44Y31.488
X28.44Y22.86
X28.44Y2.54
X48.76Y138.652
X48.76Y118.411
X48.76Y109.704
X48.76Y89.463
X48.76Y80.756
X48.76Y60.515
X48.76Y51.808
X48.76Y31.567
X48.76Y22.86
X48.76Y2.619
X54.34Y138.652
X54.34Y118.332
X54.34Y109.704
X54.34Y89.384
X54.34Y80.756
X54.34Y60.436
X54.34Y51.808
X54.34Y31.488
X54.34Y22.86
X54.34Y2.54
X74.66Y138.652
X74.66Y118.411
X74.66Y109.704
X74.66Y89.463
X74.66Y80.756
X74.66Y60.515
X74.66Y51.808
X74.66Y31.567
X74.66Y22.86
X74.66Y2.619
T2
G00X8.382Y139.647
M15
G01X8.382Y140.247
M16
G05
G00X8.382Y135.217
M15
G01X8.382Y136.317
M16
G05
G00X8.382Y110.699
M15
G01X8.382Y111.299
M16
G05
G00X8.382Y106.269
M15
G01X8.382Y107.369
M16
G05
G00X8.382Y81.751
M15
G01X8.382Y82.351
M16
G05
G00X8.382Y77.321
M15
G01X8.382Y78.421
M16
G05
G00X8.382Y52.803
M15
G01X8.382Y53.403
M16
G05
G00X8.382Y48.373
M15
G01X8.382Y49.473
M16
G05
G00X8.382Y23.855
M15
G01X8.382Y24.455
M16
G05
G00X8.382Y19.425
M15
G01X8.382Y20.525
M16
G05
G00X17.018Y139.647
M15
G01X17.018Y140.247
M16
G05
G00X17.018Y135.217
M15
G01X17.018Y136.317
M16
G05
G00X17.018Y110.699
M15
G01X17.018Y111.299
M16
G05
G00X17.018Y106.269
M15
G01X17.018Y107.369
M16
G05
G00X17.018Y81.751
M15
G01X17.018Y82.351
M16
G05
G00X17.018Y77.321
M15
G01X17.018Y78.421
M16
G05
G00X17.018Y52.803
M15
G01X17.018Y53.403
M16
G05
G00X17.018Y48.373
M15
G01X17.018Y49.473
M16
G05
G00X17.018Y23.855
M15
G01X17.018Y24.455
M16
G05
G00X17.018Y19.425
M15
G01X17.018Y20.525
M16
G05
G00X34.282Y139.647
M15
G01X34.282Y140.247
M16
G05
G00X34.282Y135.217
M15
G01X34.282Y136.317
M16
G05
G00X34.282Y110.699
M15
G01X34.282Y111.299
M16
G05
G00X34.282Y106.269
M15
G01X34.282Y107.369
M16
G05
G00X34.282Y81.751
M15
G01X34.282Y82.351
M16
G05
G00X34.282Y77.321
M15
G01X34.282Y78.421
M16
G05
G00X34.282Y52.803
M15
G01X34.282Y53.403
M16
G05
G00X34.282Y48.373
M15
G01X34.282Y49.473
M16
G05
G00X34.282Y23.855
M15
G01X34.282Y24.455
M16
G05
G00X34.282Y19.425
M15
G01X34.282Y20.525
M16
G05
G00X42.918Y139.647
M15
G01X42.918Y140.247
M16
G05
G00X42.918Y135.217
M15
G01X42.918Y136.317
M16
G05
G00X42.918Y110.699
M15
G01X42.918Y111.299
M16
G05
G00X42.918Y106.269
M15
G01X42.918Y107.369
M16
G05
G00X42.918Y81.751
M15
G01X42.918Y82.351
M16
G05
G00X42.918Y77.321
M15
G01X42.918Y78.421
M16
G05
G00X42.918Y52.803
M15
G01X42.918Y53.403
M16
G05
G00X42.918Y48.373
M15
G01X42.918Y49.473
M16
G05
G00X42.918Y23.855
M15
G01X42.918Y24.455
M16
G05
G00X42.918Y19.425
M15
G01X42.918Y20.525
M16
G05
G00X60.182Y139.647
M15
G01X60.182Y140.247
M16
G05
G00X60.182Y135.217
M15
G01X60.182Y136.317
M16
G05
G00X60.182Y110.699
M15
G01X60.182Y111.299
M16
G05
G00X60.182Y106.269
M15
G01X60.182Y107.369
M16
G05
G00X60.182Y81.751
M15
G01X60.182Y82.351
M16
G05
G00X60.182Y77.321
M15
G01X60.182Y78.421
M16
G05
G00X60.182Y52.803
M15
G01X60.182Y53.403
M16
G05
G00X60.182Y48.373
M15
G01X60.182Y49.473
M16
G05
G00X60.182Y23.855
M15
G01X60.182Y24.455
M16
G05
G00X60.182Y19.425
M15
G01X60.182Y20.525
M16
G05
G00X68.818Y139.647
M15
G01X68.818Y140.247
M16
G05
G00X68.818Y135.217
M15
G01X68.818Y136.317
M16
G05
G00X68.818Y110.699
M15
G01X68.818Y111.299
M16
G05
G00X68.818Y106.269
M15
G01X68.818Y107.369
M16
G05
G00X68.818Y81.751
M15
G01X68.818Y82.351
M16
G05
G00X68.818Y77.321
M15
G01X68.818Y78.421
M16
G05
G00X68.818Y52.803
M15
G01X68.818Y53.403
M16
G05
G00X68.818Y48.373
M15
G01X68.818Y49.473
M16
G05
G00X68.818Y23.855
M15
G01X68.818Y24.455
M16
G05
G00X68.818Y19.425
M15
G01X68.818Y20.525
M16
G05
M30
