*
*
G04 PADS Layout (Build Number 2006.45.1) generated Gerber (RS-274-X) file*
G04 PC Version=2.1*
*
%IN "SENSORXEL_REVF(191008)-"*%
*
%MOIN*%
*
%FSLAX35Y35*%
*
*
*
*
G04 PC Standard Apertures*
*
*
G04 Thermal Relief Aperture macro.*
%AMTER*
1,1,$1,0,0*
1,0,$1-$2,0,0*
21,0,$3,$4,0,0,45*
21,0,$3,$4,0,0,135*
%
*
*
G04 Annular Aperture macro.*
%AMANN*
1,1,$1,0,0*
1,0,$2,0,0*
%
*
*
G04 Odd Aperture macro.*
%AMODD*
1,1,$1,0,0*
1,0,$1-0.005,0,0*
%
*
*
G04 PC Custom Aperture Macros*
*
*
*
*
*
*
G04 PC Aperture Table*
*
%ADD010C,0.00394*%
%ADD012C,0.01*%
%ADD163C,0.001*%
*
*
*
*
G04 PC Custom Flashes*
G04 Layer Name SENSORXEL_REVF(191008)- - flashes*
%LPD*%
*
*
G04 PC Circuitry*
G04 Layer Name SENSORXEL_REVF(191008)- - circuitry*
%LPD*%
*
G54D10*
G01X557087Y459409D02*
X561024Y463346D01*
X557087D02*
X561024Y459409D01*
X557087Y469409D02*
X561024Y473346D01*
X557087D02*
X561024Y469409D01*
X557087Y479409D02*
X561024Y483346D01*
X557087D02*
X561024Y479409D01*
X557087Y489409D02*
X561024Y493346D01*
X557087D02*
X561024Y489409D01*
X553150Y507874D02*
X557087D01*
X555118Y505906D02*
Y509843D01*
X556818Y511442D02*
X556102Y508858D01*
X556818Y511442D02*
X557534Y508858D01*
X556371Y509719D02*
X557266D01*
X553150Y515748D02*
X557087D01*
X555118Y513780D02*
Y517717D01*
X556818Y519316D02*
X556102Y516732D01*
X556818Y519316D02*
X557534Y516732D01*
X556371Y517594D02*
X557266D01*
X553150Y523622D02*
X557087D01*
X555118Y521654D02*
Y525591D01*
X556818Y527190D02*
X556102Y524606D01*
X556818Y527190D02*
X557534Y524606D01*
X556371Y525468D02*
X557266D01*
X553150Y531496D02*
X557087D01*
X555118Y529528D02*
Y533465D01*
X556818Y535064D02*
X556102Y532480D01*
X556818Y535064D02*
X557534Y532480D01*
X556371Y533342D02*
X557266D01*
X523346Y557165D02*
X527283D01*
X523346Y561102*
X527283*
X523346Y557165*
X513346D02*
X517283D01*
X513346Y561102*
X517283*
X513346Y557165*
X503346D02*
X507283D01*
X503346Y561102*
X507283*
X503346Y557165*
X493346D02*
X497283D01*
X493346Y561102*
X497283*
X493346Y557165*
X483346D02*
X487283D01*
X483346Y561102*
X487283*
X483346Y557165*
X473346D02*
X477283D01*
X473346Y561102*
X477283*
X473346Y557165*
X463346D02*
X467283D01*
X463346Y561102*
X467283*
X463346Y557165*
X453346D02*
X457283D01*
X453346Y561102*
X457283*
X453346Y557165*
X443346D02*
X447283D01*
X443346Y561102*
X447283*
X443346Y557165*
X433346D02*
X437283D01*
X433346Y561102*
X437283*
X433346Y557165*
X523346Y547165D02*
X527283D01*
X523346Y551102*
X527283*
X523346Y547165*
X513346D02*
X517283D01*
X513346Y551102*
X517283*
X513346Y547165*
X503346D02*
X507283D01*
X503346Y551102*
X507283*
X503346Y547165*
X493346D02*
X497283D01*
X493346Y551102*
X497283*
X493346Y547165*
X483346D02*
X487283D01*
X483346Y551102*
X487283*
X483346Y547165*
X473346D02*
X477283D01*
X473346Y551102*
X477283*
X473346Y547165*
X463346D02*
X467283D01*
X463346Y551102*
X467283*
X463346Y547165*
X453346D02*
X457283D01*
X453346Y551102*
X457283*
X453346Y547165*
X443346D02*
X447283D01*
X443346Y551102*
X447283*
X443346Y547165*
X433346D02*
X437283D01*
X433346Y551102*
X437283*
X433346Y547165*
X399606Y427913D02*
X403543Y431850D01*
X399606D02*
X403543Y427913D01*
X399606Y437913D02*
X403543Y441850D01*
X399606D02*
X403543Y437913D01*
X399606Y447913D02*
X403543Y451850D01*
X399606D02*
X403543Y447913D01*
X399606Y457913D02*
X403543Y461850D01*
X399606D02*
X403543Y457913D01*
X399606Y476969D02*
X403543D01*
X399606Y480906*
X403543*
X399606Y476969*
Y486969D02*
X403543D01*
X399606Y490906*
X403543*
X399606Y486969*
Y496969D02*
X403543D01*
X399606Y500906*
X403543*
X399606Y496969*
Y506969D02*
X403543D01*
X399606Y510906*
X403543*
X399606Y506969*
Y516969D02*
X403543D01*
X399606Y520906*
X403543*
X399606Y516969*
Y526969D02*
X403543D01*
X399606Y530906*
X403543*
X399606Y526969*
X549213Y549213D02*
X553150D01*
Y553150*
X549213*
Y549213*
X551181Y551181D02*
Y553150D01*
X407480Y549213D02*
X411417D01*
Y553150*
X407480*
Y549213*
X409449Y551181D02*
Y553150D01*
X549213Y407480D02*
X553150D01*
Y411417*
X549213*
Y407480*
X551181Y409449D02*
Y411417D01*
X407480Y407480D02*
X411417D01*
Y411417*
X407480*
Y407480*
X409449Y409449D02*
Y411417D01*
X415354Y529606D02*
X419291D01*
X415354Y533543*
X419291*
X415354Y529606*
Y519606D02*
X419291D01*
X415354Y523543*
X419291*
X415354Y519606*
X523346Y537165D02*
X527283D01*
X523346Y541102*
X527283*
X523346Y537165*
X513346D02*
X517283D01*
X513346Y541102*
X517283*
X513346Y537165*
X503346D02*
X507283D01*
X503346Y541102*
X507283*
X503346Y537165*
X493346D02*
X497283D01*
X493346Y541102*
X497283*
X493346Y537165*
X483346D02*
X487283D01*
X483346Y541102*
X487283*
X483346Y537165*
X473346D02*
X477283D01*
X473346Y541102*
X477283*
X473346Y537165*
X463346D02*
X467283D01*
X463346Y541102*
X467283*
X463346Y537165*
X453346D02*
X457283D01*
X453346Y541102*
X457283*
X453346Y537165*
X443346D02*
X447283D01*
X443346Y541102*
X447283*
X443346Y537165*
X433346D02*
X437283D01*
X433346Y541102*
X437283*
X433346Y537165*
X523346Y527165D02*
X527283D01*
X523346Y531102*
X527283*
X523346Y527165*
X513346D02*
X517283D01*
X513346Y531102*
X517283*
X513346Y527165*
X503346D02*
X507283D01*
X503346Y531102*
X507283*
X503346Y527165*
X493346D02*
X497283D01*
X493346Y531102*
X497283*
X493346Y527165*
X483346D02*
X487283D01*
X483346Y531102*
X487283*
X483346Y527165*
X473346D02*
X477283D01*
X473346Y531102*
X477283*
X473346Y527165*
X463346D02*
X467283D01*
X463346Y531102*
X467283*
X463346Y527165*
X453346D02*
X457283D01*
X453346Y531102*
X457283*
X453346Y527165*
X443346D02*
X447283D01*
X443346Y531102*
X447283*
X443346Y527165*
X433346D02*
X437283D01*
X433346Y531102*
X437283*
X433346Y527165*
X524606Y405512D02*
X528543Y409449D01*
X524606D02*
X528543Y405512D01*
X524606Y415354D02*
X528543Y419291D01*
X524606D02*
X528543Y415354D01*
X524606Y425197D02*
X528543Y429134D01*
X524606D02*
X528543Y425197D01*
X524606Y435039D02*
X528543Y438976D01*
X524606D02*
X528543Y435039D01*
X432087D02*
X436024Y438976D01*
X432087D02*
X436024Y435039D01*
X432087Y425197D02*
X436024Y429134D01*
X432087D02*
X436024Y425197D01*
X432087Y415354D02*
X436024Y419291D01*
X432087D02*
X436024Y415354D01*
X432087Y405512D02*
X436024Y409449D01*
X432087D02*
X436024Y405512D01*
X507874D02*
X511811Y409449D01*
X507874D02*
X511811Y405512D01*
X507874Y415354D02*
X511811Y419291D01*
X507874D02*
X511811Y415354D01*
X507874Y425197D02*
X511811Y429134D01*
X507874D02*
X511811Y425197D01*
X448819D02*
X452756Y429134D01*
X448819D02*
X452756Y425197D01*
X448819Y415354D02*
X452756Y419291D01*
X448819D02*
X452756Y415354D01*
X448819Y405512D02*
X452756Y409449D01*
X448819D02*
X452756Y405512D01*
X492618Y454724D02*
X496555Y458661D01*
Y454724*
X492618Y458661*
Y454724*
X487697D02*
X491634Y458661D01*
Y454724*
X487697Y458661*
Y454724*
X482776D02*
X486713Y458661D01*
Y454724*
X482776Y458661*
Y454724*
X477854D02*
X481791Y458661D01*
Y454724*
X477854Y458661*
Y454724*
X440945Y413386D02*
X444882D01*
X442913Y411417D02*
Y415354D01*
X430118Y397638D02*
X434055D01*
X432087Y395669D02*
Y399606D01*
X421260Y407480D02*
X425197D01*
X423228Y405512D02*
Y409449D01*
X421260Y397638D02*
X425197D01*
X423228Y395669D02*
Y399606D01*
X441929Y397638D02*
X445866D01*
X443898Y395669D02*
Y399606D01*
X454724Y397638D02*
X458661D01*
X456693Y395669D02*
Y399606D01*
X461614Y397638D02*
X463583Y399606D01*
X461614Y401575*
X459646Y399606*
X461614Y397638*
Y399606D02*
Y401575D01*
X463583Y403543*
X461614Y405512*
X459646Y403543*
X461614Y401575*
Y403543D02*
Y405512D01*
X463583Y407480*
X461614Y409449*
X459646Y407480*
X461614Y405512*
Y407480D02*
Y409449D01*
X500984Y400591D02*
X504921D01*
X502953Y398622D02*
Y402559D01*
X500984Y405512D02*
X504921D01*
X502953Y403543D02*
Y407480D01*
X516732Y401575D02*
X520669D01*
X518701Y399606D02*
Y403543D01*
X516732Y405512D02*
X520669D01*
X518701Y403543D02*
Y407480D01*
X504921Y397638D02*
X508858D01*
X506890Y395669D02*
Y399606D01*
X520669Y397638D02*
X524606D01*
X522638Y395669D02*
Y399606D01*
X486220Y402559D02*
X488189Y404528D01*
X486220Y406496*
X484252Y404528*
X486220Y402559*
Y404528D02*
Y406496D01*
X490157Y402559D02*
X492126Y404528D01*
X490157Y406496*
X488189Y404528*
X490157Y402559*
Y404528D02*
Y406496D01*
X494094Y402559D02*
X496063Y404528D01*
X494094Y406496*
X492126Y404528*
X494094Y402559*
Y404528D02*
Y406496D01*
X532480Y397638D02*
X536417D01*
X534449Y395669D02*
Y399606D01*
X532480Y408465D02*
X536417D01*
X534449Y406496D02*
Y410433D01*
X394685Y438976D02*
X398622D01*
X396654Y437008D02*
Y440945D01*
X420472Y451181D02*
X424409D01*
X422441Y449213D02*
Y453150D01*
X422638Y451181D02*
X426575D01*
X424606Y449213D02*
Y453150D01*
X424803Y451181D02*
X428740D01*
X426772Y449213D02*
Y453150D01*
X424803Y453346D02*
X428740D01*
X426772Y451378D02*
Y455315D01*
X422638Y453346D02*
X426575D01*
X424606Y451378D02*
Y455315D01*
X420472Y453346D02*
X424409D01*
X422441Y451378D02*
Y455315D01*
X439961Y440945D02*
X443898D01*
X441929Y438976D02*
Y442913D01*
X439961Y437992D02*
X443898D01*
X441929Y436024D02*
Y439961D01*
X424409Y425591D02*
X428346D01*
X426378Y423622D02*
Y427559D01*
X424409Y428150D02*
X428346D01*
X426378Y426181D02*
Y430118D01*
X437008Y442913D02*
X440945D01*
X438976Y440945D02*
Y444882D01*
X429134Y442913D02*
X433071D01*
X431102Y440945D02*
Y444882D01*
X421260Y442913D02*
X425197D01*
X423228Y440945D02*
Y444882D01*
X421260Y437992D02*
X425197D01*
X423228Y436024D02*
Y439961D01*
X421260Y431102D02*
X425197D01*
X423228Y429134D02*
Y433071D01*
X421260Y423228D02*
X425197D01*
X423228Y421260D02*
Y425197D01*
X421260Y416339D02*
X425197D01*
X423228Y414370D02*
Y418307D01*
X405512Y426181D02*
X409449D01*
X407480Y424213D02*
Y428150D01*
X409449Y450787D02*
X413386D01*
X411417Y448819D02*
Y452756D01*
Y444882D02*
X415354D01*
X413386Y442913D02*
Y446850D01*
X404528Y444882D02*
X408465D01*
X406496Y442913D02*
Y446850D01*
X409449Y427165D02*
X413386D01*
X411417Y425197D02*
Y429134D01*
X412402Y427165D02*
X416339D01*
X414370Y425197D02*
Y429134D01*
X412402Y430118D02*
X416339D01*
X414370Y428150D02*
Y432087D01*
X412402Y433071D02*
X416339D01*
X414370Y431102D02*
Y435039D01*
X409449Y439961D02*
X413386D01*
X411417Y437992D02*
Y441929D01*
X406496Y439961D02*
X410433D01*
X408465Y437992D02*
Y441929D01*
X412402Y450787D02*
X416339D01*
X414370Y448819D02*
Y452756D01*
X434055Y451378D02*
X437992D01*
X436024Y449409D02*
Y453346D01*
X424409Y422835D02*
X428346D01*
X426378Y420866D02*
Y424803D01*
X424409Y431102D02*
X428346D01*
X426378Y429134D02*
Y433071D01*
X458661Y429134D02*
X462598D01*
X460630Y427165D02*
Y431102D01*
X455709Y429134D02*
X459646D01*
X457677Y427165D02*
Y431102D01*
X455709Y432087D02*
X459646D01*
X457677Y430118D02*
Y434055D01*
X479331Y442913D02*
X483268D01*
X481299Y440945D02*
Y444882D01*
X457677Y442913D02*
X461614D01*
X459646Y440945D02*
Y444882D01*
X452756Y442913D02*
X456693D01*
X454724Y440945D02*
Y444882D01*
X445866Y442913D02*
X449803D01*
X447835Y440945D02*
Y444882D01*
X480315Y449803D02*
X484252D01*
X482283Y447835D02*
Y451772D01*
X474409D02*
X478346D01*
X476378Y449803D02*
Y453740D01*
X465748Y428937D02*
X469685D01*
X467717Y426969D02*
Y430906D01*
X465551Y446850D02*
X469488D01*
X467520Y444882D02*
Y448819D01*
X480315Y426772D02*
X484252D01*
X482283Y424803D02*
Y428740D01*
X477953Y426772D02*
X481890D01*
X479921Y424803D02*
Y428740D01*
X477953Y429134D02*
X481890D01*
X479921Y427165D02*
Y431102D01*
X480315Y429134D02*
X484252D01*
X482283Y427165D02*
Y431102D01*
X506890Y450984D02*
X510827D01*
X508858Y449016D02*
Y452953D01*
X514764Y431102D02*
X518701D01*
X516732Y429134D02*
Y433071D01*
X514764Y423228D02*
X518701D01*
X516732Y421260D02*
Y425197D01*
X500984Y429134D02*
X504921D01*
X502953Y427165D02*
Y431102D01*
X500984Y423228D02*
X504921D01*
X502953Y421260D02*
Y425197D01*
X495079Y423228D02*
X499016D01*
X497047Y421260D02*
Y425197D01*
X513780Y443898D02*
X517717D01*
X515748Y441929D02*
Y445866D01*
X506890Y442913D02*
X510827D01*
X508858Y440945D02*
Y444882D01*
X500984Y442913D02*
X504921D01*
X502953Y440945D02*
Y444882D01*
Y448819D02*
X506890D01*
X504921Y446850D02*
Y450787D01*
X498031Y448819D02*
X501969D01*
X500000Y446850D02*
Y450787D01*
X491535Y449409D02*
X495472D01*
X493504Y447441D02*
Y451378D01*
X489173Y449409D02*
X493110D01*
X491142Y447441D02*
Y451378D01*
X493898Y449409D02*
X497835D01*
X495866Y447441D02*
Y451378D01*
X491339Y429134D02*
X495276D01*
X493307Y427165D02*
Y431102D01*
X488189Y425394D02*
X492126D01*
X490157Y423425D02*
Y427362D01*
X532480Y418307D02*
X536417D01*
X534449Y416339D02*
Y420276D01*
X532480Y430118D02*
X536417D01*
X534449Y428150D02*
Y432087D01*
X532480Y442913D02*
X536417D01*
X534449Y440945D02*
Y444882D01*
X524606Y442913D02*
X528543D01*
X526575Y440945D02*
Y444882D01*
X552165Y437992D02*
X556102D01*
X554134Y436024D02*
Y439961D01*
X551181Y449803D02*
X555118D01*
X553150Y447835D02*
Y451772D01*
X547244Y438976D02*
X551181D01*
X549213Y437008D02*
Y440945D01*
X537402Y437008D02*
X541339D01*
X539370Y435039D02*
Y438976D01*
X537402Y431102D02*
X541339D01*
X539370Y429134D02*
Y433071D01*
X537402Y423228D02*
X541339D01*
X539370Y421260D02*
Y425197D01*
X548228Y423228D02*
X552165D01*
X550197Y421260D02*
Y425197D01*
X561024Y423228D02*
X564961D01*
X562992Y421260D02*
Y425197D01*
X531299Y449016D02*
X535236D01*
X533268Y447047D02*
Y450984D01*
X555118Y445866D02*
X559055D01*
X557087Y443898D02*
Y447835D01*
X555118Y430118D02*
X559055D01*
X557087Y428150D02*
Y432087D01*
X550197Y433071D02*
X554134D01*
X552165Y431102D02*
Y435039D01*
X547244Y452756D02*
X551181D01*
X549213Y450787D02*
Y454724D01*
X543012Y451575D02*
X546949D01*
X544980Y449606D02*
Y453543D01*
X550197Y429134D02*
X554134D01*
X552165Y427165D02*
Y431102D01*
X543307Y436024D02*
X547244D01*
X545276Y434055D02*
Y437992D01*
X562008D02*
X565945D01*
X563976Y436024D02*
Y439961D01*
X562008Y453740D02*
X565945D01*
X563976Y451772D02*
Y455709D01*
X400591Y467520D02*
X404528D01*
X402559Y465551D02*
Y469488D01*
X394685Y454724D02*
X398622D01*
X396654Y452756D02*
Y456693D01*
X394685Y472441D02*
X398622D01*
X396654Y470472D02*
Y474409D01*
X394685Y466535D02*
X398622D01*
X396654Y464567D02*
Y468504D01*
X411024Y454921D02*
X414961D01*
X412992Y452953D02*
Y456890D01*
X430118Y472835D02*
X434055D01*
X432087Y470866D02*
Y474803D01*
X423031Y493701D02*
X426969D01*
X425000Y491732D02*
Y495669D01*
X441142Y493110D02*
X445079D01*
X443110Y491142D02*
Y495079D01*
X428150Y478346D02*
X432087D01*
X430118Y476378D02*
Y480315D01*
X407480Y456693D02*
X411417D01*
X409449Y454724D02*
Y458661D01*
X405512Y472441D02*
X409449D01*
X407480Y470472D02*
Y474409D01*
X405512Y485236D02*
X409449D01*
X407480Y483268D02*
Y487205D01*
X431102Y460630D02*
X435039D01*
X433071Y458661D02*
Y462598D01*
X431102Y463583D02*
X435039D01*
X433071Y461614D02*
Y465551D01*
X437008D02*
X440945D01*
X438976Y463583D02*
Y467520D01*
X437008Y462598D02*
X440945D01*
X438976Y460630D02*
Y464567D01*
X439961Y462598D02*
X443898D01*
X441929Y460630D02*
Y464567D01*
X439961Y465551D02*
X443898D01*
X441929Y463583D02*
Y467520D01*
X413189Y483071D02*
X417126D01*
X415157Y481102D02*
Y485039D01*
X429921Y483858D02*
X433858D01*
X431890Y481890D02*
Y485827D01*
X439961Y474409D02*
X443898D01*
X441929Y472441D02*
Y476378D01*
X422244Y458661D02*
X426181D01*
X424213Y456693D02*
Y460630D01*
X427756Y458661D02*
X431693D01*
X429724Y456693D02*
Y460630D01*
X425000Y458661D02*
X428937D01*
X426969Y456693D02*
Y460630D01*
X413386Y458661D02*
X417323D01*
X415354Y456693D02*
Y460630D01*
Y458661D02*
X419291D01*
X417323Y456693D02*
Y460630D01*
Y458661D02*
X421260D01*
X419291Y456693D02*
Y460630D01*
X440551Y483071D02*
X444488D01*
X442520Y481102D02*
Y485039D01*
X437008Y469291D02*
X440945D01*
X438976Y467323D02*
Y471260D01*
X421260Y476181D02*
X423228Y478150D01*
X421260Y480118*
X419291Y478150*
X421260Y476181*
Y478150D02*
Y480118D01*
X424803Y476181D02*
X426772Y478150D01*
X424803Y480118*
X422835Y478150*
X424803Y476181*
Y478150D02*
Y480118D01*
X409646Y476575D02*
X413583D01*
X411614Y474606D02*
Y478543D01*
X409646Y460236D02*
X413583D01*
X411614Y458268D02*
Y462205D01*
X433071Y493110D02*
X437008D01*
X435039Y491142D02*
Y495079D01*
X434055Y467913D02*
X437992D01*
X436024Y465945D02*
Y469882D01*
X432087Y470472D02*
X436024D01*
X434055Y468504D02*
Y472441D01*
Y456693D02*
X437992D01*
X436024Y454724D02*
Y458661D01*
X461614Y490551D02*
X465551D01*
X463583Y488583D02*
Y492520D01*
X447835Y471457D02*
X451772D01*
X449803Y469488D02*
Y473425D01*
X474409Y459646D02*
X478346D01*
X476378Y457677D02*
Y461614D01*
X451772Y481299D02*
X455709D01*
X453740Y479331D02*
Y483268D01*
X441929Y488189D02*
X445866D01*
X443898Y486220D02*
Y490157D01*
X458661D02*
X462598D01*
X460630Y488189D02*
Y492126D01*
X466339Y494094D02*
X470276D01*
X468307Y492126D02*
Y496063D01*
X452756Y490157D02*
X456693D01*
X454724Y488189D02*
Y492126D01*
X469488Y467520D02*
X473425D01*
X471457Y465551D02*
Y469488D01*
X466535Y467520D02*
X470472D01*
X468504Y465551D02*
Y469488D01*
X460630Y459646D02*
X464567D01*
X462598Y457677D02*
Y461614D01*
X463583Y459646D02*
X467520D01*
X465551Y457677D02*
Y461614D01*
X468504Y459646D02*
X472441D01*
X470472Y457677D02*
Y461614D01*
X468504Y456693D02*
X472441D01*
X470472Y454724D02*
Y458661D01*
X465551Y456693D02*
X469488D01*
X467520Y454724D02*
Y458661D01*
X472441Y464567D02*
X476378D01*
X474409Y462598D02*
Y466535D01*
X447638Y481299D02*
X451575D01*
X449606Y479331D02*
Y483268D01*
X455906Y481102D02*
X459843D01*
X457874Y479134D02*
Y483071D01*
X443898Y485236D02*
X447835D01*
X445866Y483268D02*
Y487205D01*
X459449Y481102D02*
X463386D01*
X461417Y479134D02*
Y483071D01*
X443898Y474213D02*
X447835D01*
X445866Y472244D02*
Y476181D01*
X448819Y486220D02*
X452756D01*
X450787Y484252D02*
Y488189D01*
X446850Y484252D02*
X450787D01*
X448819Y482283D02*
Y486220D01*
X471850Y479134D02*
X475787D01*
X473819Y477165D02*
Y481102D01*
X520669Y489567D02*
X524606D01*
X522638Y487598D02*
Y491535D01*
X497441Y494488D02*
X501378D01*
X499409Y492520D02*
Y496457D01*
X501969Y466339D02*
X505906D01*
X503937Y464370D02*
Y468307D01*
X492520Y468898D02*
X496457D01*
X494488Y466929D02*
Y470866D01*
X490157Y461024D02*
X494094D01*
X492126Y459055D02*
Y462992D01*
X498031Y456693D02*
X501969D01*
X500000Y454724D02*
Y458661D01*
X499213Y460827D02*
X503150D01*
X501181Y458858D02*
Y462795D01*
X498228Y477953D02*
X502165D01*
X500197Y475984D02*
Y479921D01*
X514173Y454921D02*
X518110D01*
X516142Y452953D02*
Y456890D01*
X512795Y468701D02*
X516732D01*
X514764Y466732D02*
Y470669D01*
X517126Y477756D02*
X521063D01*
X519094Y475787D02*
Y479724D01*
X501969Y478346D02*
X505906D01*
X503937Y476378D02*
Y480315D01*
X519685Y475394D02*
X523622D01*
X521654Y473425D02*
Y477362D01*
X504331Y456496D02*
X508268D01*
X506299Y454528D02*
Y458465D01*
X517323Y492323D02*
X521260D01*
X519291Y490354D02*
Y494291D01*
X503346Y480709D02*
X507283D01*
X505315Y478740D02*
Y482677D01*
X501969Y483268D02*
X505906D01*
X503937Y481299D02*
Y485236D01*
X500197Y494488D02*
X504134D01*
X502165Y492520D02*
Y496457D01*
X489173Y477756D02*
X493110D01*
X491142Y475787D02*
Y479724D01*
X531693Y488583D02*
X535630D01*
X533661Y486614D02*
Y490551D01*
X534449Y471457D02*
X538386D01*
X536417Y469488D02*
Y473425D01*
X539370Y466535D02*
X543307D01*
X541339Y464567D02*
Y468504D01*
X551181Y474409D02*
X555118D01*
X553150Y472441D02*
Y476378D01*
X551181Y483268D02*
X555118D01*
X553150Y481299D02*
Y485236D01*
X545276Y483268D02*
X549213D01*
X547244Y481299D02*
Y485236D01*
X540354Y478346D02*
X544291D01*
X542323Y476378D02*
Y480315D01*
X532480Y478346D02*
X536417D01*
X534449Y476378D02*
Y480315D01*
X547244Y458661D02*
X551181D01*
X549213Y456693D02*
Y460630D01*
X523622Y467520D02*
X527559D01*
X525591Y465551D02*
Y469488D01*
X535433Y456693D02*
X539370D01*
X537402Y454724D02*
Y458661D01*
X528543Y494094D02*
X532480D01*
X530512Y492126D02*
Y496063D01*
X525000Y476181D02*
X528937D01*
X526969Y474213D02*
Y478150D01*
X550197Y462598D02*
X554134D01*
X552165Y460630D02*
Y464567D01*
X526575Y454921D02*
X530512D01*
X528543Y452953D02*
Y456890D01*
X527165Y485827D02*
X531102D01*
X529134Y483858D02*
Y487795D01*
X543307Y487205D02*
X547244D01*
X545276Y485236D02*
Y489173D01*
X541339Y491339D02*
X545276D01*
X543307Y489370D02*
Y493307D01*
X426969Y515945D02*
X430906D01*
X428937Y513976D02*
Y517913D01*
X406496Y499016D02*
X410433D01*
X408465Y497047D02*
Y500984D01*
X413386Y504921D02*
X417323D01*
X415354Y502953D02*
Y506890D01*
X405512Y504921D02*
X409449D01*
X407480Y502953D02*
Y506890D01*
X411417Y514764D02*
X415354D01*
X413386Y512795D02*
Y516732D01*
X422244Y517717D02*
X426181D01*
X424213Y515748D02*
Y519685D01*
X421260Y522441D02*
X425197D01*
X423228Y520472D02*
Y524409D01*
X434055Y521850D02*
X437992D01*
X436024Y519882D02*
Y523819D01*
X406496Y520669D02*
X410433D01*
X408465Y518701D02*
Y522638D01*
X431102Y503937D02*
X435039D01*
X433071Y501969D02*
Y505906D01*
X414173Y498622D02*
X418110D01*
X416142Y496654D02*
Y500591D01*
X430906Y507874D02*
X434843D01*
X432874Y505906D02*
Y509843D01*
X409646Y497244D02*
X413583D01*
X411614Y495276D02*
Y499213D01*
X419291Y507283D02*
X423228D01*
X421260Y505315D02*
Y509252D01*
X434055Y513780D02*
X437992D01*
X436024Y511811D02*
Y515748D01*
X431102Y495079D02*
X435039D01*
X433071Y493110D02*
Y497047D01*
X455512Y515945D02*
X459449D01*
X457480Y513976D02*
Y517913D01*
X444291Y505512D02*
X448228D01*
X446260Y503543D02*
Y507480D01*
X463976Y498031D02*
X467913D01*
X465945Y496063D02*
Y500000D01*
X475197Y515945D02*
X479134D01*
X477165Y513976D02*
Y517913D01*
X469488Y534449D02*
X473425D01*
X471457Y532480D02*
Y536417D01*
X448819Y534449D02*
X452756D01*
X450787Y532480D02*
Y536417D01*
X452756Y520669D02*
X456693D01*
X454724Y518701D02*
Y522638D01*
X446850Y520669D02*
X450787D01*
X448819Y518701D02*
Y522638D01*
X465551D02*
X469488D01*
X467520Y520669D02*
Y524606D01*
X473425Y522638D02*
X477362D01*
X475394Y520669D02*
Y524606D01*
X472638Y519291D02*
X476575D01*
X474606Y517323D02*
Y521260D01*
X466732Y519291D02*
X470669D01*
X468701Y517323D02*
Y521260D01*
X455315Y498622D02*
X459252D01*
X457283Y496654D02*
Y500591D01*
X478937Y502953D02*
X482874D01*
X480906Y500984D02*
Y504921D01*
X481299Y513976D02*
X485236D01*
X483268Y512008D02*
Y515945D01*
X443110Y495079D02*
X447047D01*
X445079Y493110D02*
Y497047D01*
X461614Y513976D02*
X465551D01*
X463583Y512008D02*
Y515945D01*
X503346Y505709D02*
X507283D01*
X505315Y503740D02*
Y507677D01*
X483661Y505709D02*
X487598D01*
X485630Y503740D02*
Y507677D01*
X506890Y495079D02*
X510827D01*
X508858Y493110D02*
Y497047D01*
X488189Y533465D02*
X492126D01*
X490157Y531496D02*
Y535433D01*
X486220Y522638D02*
X490157D01*
X488189Y520669D02*
Y524606D01*
X493110Y522638D02*
X497047D01*
X495079Y520669D02*
Y524606D01*
X493110Y515748D02*
X497047D01*
X495079Y513780D02*
Y517717D01*
X486220Y515748D02*
X490157D01*
X488189Y513780D02*
Y517717D01*
X505906Y522638D02*
X509843D01*
X507874Y520669D02*
Y524606D01*
X511811Y522638D02*
X515748D01*
X513780Y520669D02*
Y524606D01*
X511811Y515748D02*
X515748D01*
X513780Y513780D02*
Y517717D01*
X505906Y515748D02*
X509843D01*
X507874Y513780D02*
Y517717D01*
X513780Y497047D02*
X517717D01*
X515748Y495079D02*
Y499016D01*
X510827Y497047D02*
X514764D01*
X512795Y495079D02*
Y499016D01*
X494685Y497047D02*
X498622D01*
X496654Y495079D02*
Y499016D01*
X539961Y505512D02*
X543898D01*
X541929Y503543D02*
Y507480D01*
X523031Y505709D02*
X526969D01*
X525000Y503740D02*
Y507677D01*
X538386Y527559D02*
X542323D01*
X540354Y525591D02*
Y529528D01*
X525591Y522638D02*
X529528D01*
X527559Y520669D02*
Y524606D01*
X524606Y515748D02*
X528543D01*
X526575Y513780D02*
Y517717D01*
X530512Y515748D02*
X534449D01*
X532480Y513780D02*
Y517717D01*
X545276Y531496D02*
X549213D01*
X547244Y529528D02*
Y533465D01*
X529528Y531496D02*
X533465D01*
X531496Y529528D02*
Y533465D01*
X561024Y528543D02*
X564961D01*
X562992Y526575D02*
Y530512D01*
X561024Y519685D02*
X564961D01*
X562992Y517717D02*
Y521654D01*
X547244Y502953D02*
X551181D01*
X549213Y500984D02*
Y504921D01*
X552165Y499016D02*
X556102D01*
X554134Y497047D02*
Y500984D01*
X561024Y504921D02*
X564961D01*
X562992Y502953D02*
Y506890D01*
X561024Y498031D02*
X564961D01*
X562992Y496063D02*
Y500000D01*
X544291Y496063D02*
X548228D01*
X546260Y494094D02*
Y498031D01*
X528543Y496260D02*
X532480D01*
X530512Y494291D02*
Y498228D01*
X535433Y512795D02*
X539370D01*
X537402Y510827D02*
Y514764D01*
X539370Y512795D02*
X543307D01*
X541339Y510827D02*
Y514764D01*
X543307Y519685D02*
X547244D01*
X545276Y517717D02*
Y521654D01*
X548228Y519685D02*
X552165D01*
X550197Y517717D02*
Y521654D01*
X395669Y562992D02*
X399606D01*
X397638Y561024D02*
Y564961D01*
X394685Y544291D02*
X398622D01*
X396654Y542323D02*
Y546260D01*
X394685Y535433D02*
X398622D01*
X396654Y533465D02*
Y537402D01*
X424213Y548031D02*
X428150D01*
X426181Y546063D02*
Y550000D01*
X421063Y541339D02*
X425000D01*
X423031Y539370D02*
Y543307D01*
X539370Y536417D02*
X543307D01*
X541339Y534449D02*
Y538386D01*
X535433Y543307D02*
X539370D01*
X537402Y541339D02*
Y545276D01*
X529528Y551181D02*
X533465D01*
X531496Y549213D02*
Y553150D01*
X530512Y562992D02*
X534449D01*
X532480Y561024D02*
Y564961D01*
X540354Y562992D02*
X544291D01*
X542323Y561024D02*
Y564961D01*
X561024Y562992D02*
X564961D01*
X562992Y561024D02*
Y564961D01*
X561024Y544291D02*
X564961D01*
X562992Y542323D02*
Y546260D01*
X561024Y537402D02*
X564961D01*
X562992Y535433D02*
Y539370D01*
X393701Y566929D02*
Y393701D01*
X566929*
Y566929*
X393701*
X503740Y383760D02*
G75*
G03X502461Y385039I-1279J-0D01*
G01X394980*
G03X393701Y383760I0J-1279*
G01Y365846*
G03X394980Y364567I1279J0*
G01X502461*
G03X503740Y365846I-0J1279*
G01Y383760*
X474311Y385039D02*
Y364567D01*
Y379921D02*
X393701D01*
X474311Y374803D02*
X393701D01*
X461516Y374394D02*
Y364567D01*
X474311Y369685D02*
X393701D01*
X461516Y379921D02*
Y374394D01*
X444882Y379921D02*
Y364567D01*
X410335Y385039D02*
Y364567D01*
X482943Y372741D02*
X483245D01*
X482943Y372604D02*
X483245D01*
X482943Y372467D02*
X483245D01*
X482943Y372330D02*
X483245D01*
X482943Y372192D02*
X483245D01*
X491170Y380158D02*
G03X490629Y379617I-0J-541D01*
G01X491170Y380158D02*
X495477D01*
X496018Y379617D02*
G03X495477Y380158I-541J0D01*
G01X496018Y379617D02*
Y375342D01*
X495477Y374802D02*
G03X496018Y375342I0J540D01*
G01X495477Y374802D02*
X491170D01*
X490629Y375342D02*
G03X491170Y374802I541J0D01*
G01X490629Y375342D02*
Y379617D01*
X482241Y373845D02*
X482917Y372872D01*
Y372034*
X483268*
Y372872*
X483944Y373845*
X483619*
X483106Y373169*
X482566Y373845*
X482241*
X484863Y380223D02*
G03X484538Y379898I-0J-325D01*
G01X484863Y380223D02*
X487403D01*
X487727Y379898D02*
G03X487403Y380223I-324J0D01*
G01X487727Y379898D02*
Y377520D01*
X487403Y377196D02*
G03X487727Y377520I-0J324D01*
G01X487403Y377196D02*
X484863D01*
X484538Y377520D02*
G03X484863Y377196I325J0D01*
G01X484538Y377520D02*
Y379898D01*
X492537Y378439D02*
G03X492321Y378223I0J-216D01*
G01X492537Y378439D02*
X494213D01*
X494429Y378223D02*
G03X494213Y378439I-216J-0D01*
G01X494429Y378223D02*
Y376710D01*
X494213Y376493D02*
G03X494429Y376710I-0J217D01*
G01X494213Y376493D02*
X492537D01*
X492321Y376710D02*
G03X492537Y376493I216J-0D01*
G01X492321Y376710D02*
Y378223D01*
X484646Y373791D02*
G03X484322Y373467I0J-324D01*
G01X484646Y373791D02*
X485511D01*
X485835Y373467D02*
G03X485511Y373791I-324J-0D01*
G01X485835Y373467D02*
Y372440D01*
X485511Y372116D02*
G03X485835Y372440I0J324D01*
G01X485511Y372116D02*
X484646D01*
X484322Y372440D02*
G03X484646Y372116I324J-0D01*
G01X484322Y372440D02*
Y373467D01*
X482943Y382626D02*
X489148D01*
X482256Y382076D02*
X489834D01*
X482256Y381939D02*
X489889D01*
X482119Y381665D02*
X489943D01*
X482119Y381527D02*
X489943D01*
X482119Y381390D02*
X489943D01*
X482119Y381253D02*
X489943D01*
X482119Y381115D02*
X489943D01*
X482119Y380978D02*
X489943D01*
X482119Y380841D02*
X489943D01*
X482119Y380704D02*
X489943D01*
X482119Y380566D02*
X489943D01*
X482119Y380429D02*
X489943D01*
X482119Y380292D02*
X489943D01*
X491042Y380155D02*
X495600D01*
X487673D02*
X489943D01*
X482119D02*
X484646D01*
X490905Y380017D02*
X495780D01*
X487748D02*
X489943D01*
X482119D02*
X484480D01*
X490768Y379880D02*
X495888D01*
X487748D02*
X489943D01*
X482119D02*
X484480D01*
X490768Y379743D02*
X496012D01*
X487748D02*
X489943D01*
X482119D02*
X484480D01*
X490630Y379605D02*
X496012D01*
X487748D02*
X489943D01*
X482119D02*
X484480D01*
X490630Y379468D02*
X496012D01*
X487748D02*
X489943D01*
X482119D02*
X484480D01*
X490630Y379331D02*
X496012D01*
X487748D02*
X489943D01*
X482119D02*
X484480D01*
X490630Y379194D02*
X496012D01*
X487748D02*
X489943D01*
X482119D02*
X484480D01*
X490630Y379056D02*
X496012D01*
X487748D02*
X489943D01*
X482119D02*
X484480D01*
X490630Y378919D02*
X496012D01*
X487748D02*
X489943D01*
X482119D02*
X484480D01*
X490630Y378782D02*
X496012D01*
X487748D02*
X489943D01*
X482119D02*
X484480D01*
X490630Y378644D02*
X496012D01*
X487748D02*
X489943D01*
X482119D02*
X484480D01*
X490630Y378507D02*
X496012D01*
X487748D02*
X489943D01*
X482119D02*
X484480D01*
X494474Y378370D02*
X496012D01*
X490630D02*
X492305D01*
X487748D02*
X489943D01*
X482119D02*
X484480D01*
X494474Y378233D02*
X496012D01*
X490630D02*
X492305D01*
X487748D02*
X489943D01*
X482119D02*
X484480D01*
X494474Y378095D02*
X496012D01*
X490630D02*
X492305D01*
X487748D02*
X489943D01*
X482119D02*
X484480D01*
X494474Y377958D02*
X496012D01*
X490630D02*
X492305D01*
X487748D02*
X489943D01*
X482119D02*
X484480D01*
X494474Y377821D02*
X496012D01*
X490630D02*
X492305D01*
X487748D02*
X489943D01*
X482119D02*
X484480D01*
X494474Y377683D02*
X496012D01*
X490630D02*
X492305D01*
X487748D02*
X489943D01*
X482119D02*
X484480D01*
X494474Y377546D02*
X496012D01*
X490630D02*
X492305D01*
X487748D02*
X489943D01*
X482119D02*
X484480D01*
X494474Y377409D02*
X496012D01*
X490630D02*
X492305D01*
X487748D02*
X489943D01*
X482119D02*
X484480D01*
X494474Y377272D02*
X496012D01*
X490630D02*
X492305D01*
X487673D02*
X489943D01*
X482119D02*
X484592D01*
X494474Y377134D02*
X496012D01*
X490630D02*
X492305D01*
X482119D02*
X489943D01*
X494474Y376997D02*
X496012D01*
X490630D02*
X492305D01*
X482119D02*
X489943D01*
X494474Y376860D02*
X496012D01*
X490630D02*
X492305D01*
X482119D02*
X489943D01*
X494474Y376723D02*
X496012D01*
X490630D02*
X492305D01*
X482119D02*
X489943D01*
X494474Y376585D02*
X496012D01*
X490630D02*
X492305D01*
X482119D02*
X489943D01*
X490630Y376448D02*
X496012D01*
X482119D02*
X489943D01*
X490630Y376311D02*
X496012D01*
X482119D02*
X489943D01*
X490630Y376173D02*
X496012D01*
X482119D02*
X489943D01*
X490630Y376036D02*
X496012D01*
X482119D02*
X489943D01*
X490630Y375899D02*
X496012D01*
X482119D02*
X489943D01*
X490630Y375762D02*
X496012D01*
X482119D02*
X489943D01*
X490630Y375624D02*
X496012D01*
X482119D02*
X489943D01*
X490630Y375487D02*
X496012D01*
X482256D02*
X489943D01*
X490630Y375350D02*
X496012D01*
X482256D02*
X489834D01*
X490768Y375212D02*
X495964D01*
X482263D02*
X489834D01*
X490768Y375075D02*
X495875D01*
X482387D02*
X489697D01*
X490905Y374938D02*
X495769D01*
X482571D02*
X489560D01*
X491180Y374801D02*
X495467D01*
X482943D02*
X489186D01*
X483629Y373840D02*
X483931D01*
X482256D02*
X482558D01*
X483544Y373702D02*
X483819D01*
X482394D02*
X482641D01*
X483425Y373565D02*
X483706D01*
X482468D02*
X482760D01*
X483355Y373428D02*
X483657D01*
X482531D02*
X482833D01*
X483217Y373291D02*
X483506D01*
X482668D02*
X482970D01*
X482760Y373153D02*
X483441D01*
X482863Y373016D02*
X483306D01*
X482917Y372879D02*
X483247D01*
X486538Y373791D02*
Y372386D01*
G03X486754Y372170I216J-0*
G01X487457*
G03X487673Y372386I-0J216*
G01Y373791*
X488430D02*
Y372170D01*
X489132Y373791D02*
Y372170D01*
X490159*
X491943Y373359D02*
Y373575D01*
G03X491727Y373791I-216J-0*
G01X490970*
G03X490754Y373575I-0J-216*
G01Y372386*
G03X490970Y372170I216J-0*
G01X491727*
G03X491943Y372386I-0J216*
G01Y372602*
X482430Y382351D02*
X489673D01*
X482322Y382214D02*
X489781D01*
X482971Y382628D02*
G03X482106Y381763I-0J-865D01*
G01X482971Y382628D02*
X489105D01*
X489970Y381763D02*
G03X489105Y382628I-865J-0D01*
G01X489970Y381763D02*
Y375656D01*
X489105Y374791D02*
G03X489970Y375656I0J865D01*
G01X489105Y374791D02*
X482971D01*
X482106Y375656D02*
G03X482971Y374791I865J-0D01*
G01X482106Y375656D02*
Y381763D01*
X482160Y381802D02*
X489971D01*
X482593Y382488D02*
X489511D01*
X492645Y372170D02*
X493078Y373683D01*
X493510*
X493942Y372170*
X493726Y372818D02*
X492862D01*
X494699Y372926D02*
Y373791D01*
X495456*
X495888Y373359D02*
G03X495456Y373791I-432J-0D01*
G01X495888Y373359D02*
Y372602D01*
X495456Y372170D02*
G03X495888Y372602I-0J432D01*
G01X495456Y372170D02*
X494699D01*
Y372926*
X468140Y373128D02*
Y371360D01*
X468216Y371049*
X468367Y370945*
X468518*
X467913Y372400D02*
X468443D01*
X412673Y383052D02*
X412521Y383260D01*
X412295Y383364*
X411992*
X411765Y383260*
X411614Y383052*
Y382844*
X411690Y382636*
X411765Y382532*
X411917Y382428*
X412370Y382220*
X412521Y382116*
X412597Y382012*
X412673Y381805*
Y381493*
X412521Y381285*
X412295Y381181*
X411992*
X411765Y381285*
X411614Y381493*
X413353Y383364D02*
Y381181D01*
Y383364D02*
X414336D01*
X413353Y382324D02*
X413958D01*
X413353Y381181D02*
X414336D01*
X415017Y383364D02*
Y381181D01*
Y383364D02*
X416075Y381181D01*
Y383364D02*
Y381181D01*
X417814Y383052D02*
X417663Y383260D01*
X417436Y383364*
X417134*
X416907Y383260*
X416756Y383052*
Y382844*
X416831Y382636*
X416907Y382532*
X417058Y382428*
X417512Y382220*
X417663Y382116*
X417738Y382012*
X417814Y381805*
Y381493*
X417663Y381285*
X417436Y381181*
X417134*
X416907Y381285*
X416756Y381493*
X418948Y383364D02*
X418797Y383260D01*
X418646Y383052*
X418570Y382844*
X418495Y382532*
Y382012*
X418570Y381701*
X418646Y381493*
X418797Y381285*
X418948Y381181*
X419251*
X419402Y381285*
X419553Y381493*
X419629Y381701*
X419704Y382012*
Y382532*
X419629Y382844*
X419553Y383052*
X419402Y383260*
X419251Y383364*
X418948*
X420385D02*
Y381181D01*
Y383364D02*
X421065D01*
X421292Y383260*
X421368Y383156*
X421443Y382948*
Y382740*
X421368Y382532*
X421292Y382428*
X421065Y382324*
X420385*
X420914D02*
X421443Y381181D01*
X422124Y383364D02*
X423182Y381181D01*
Y383364D02*
X422124Y381181D01*
X423863Y383364D02*
Y381181D01*
Y383364D02*
X424846D01*
X423863Y382324D02*
X424468D01*
X423863Y381181D02*
X424846D01*
X425526Y383364D02*
Y381181D01*
X426433*
X429382Y383780D02*
X429231Y383572D01*
X429080Y383260*
X428929Y382844*
X428853Y382324*
Y381909*
X428929Y381389*
X429080Y380973*
X429231Y380661*
X429382Y380453*
X430819Y383364D02*
X430063Y381909D01*
X431197*
X430819Y383364D02*
Y381181D01*
X433616Y383364D02*
Y381181D01*
X434524*
X436111Y382636D02*
Y381181D01*
Y382324D02*
X435960Y382532D01*
X435809Y382636*
X435582*
X435431Y382532*
X435280Y382324*
X435204Y382012*
Y381805*
X435280Y381493*
X435431Y381285*
X435582Y381181*
X435809*
X435960Y381285*
X436111Y381493*
X436867Y382636D02*
X437321Y381181D01*
X437775Y382636D02*
X437321Y381181D01*
X437170Y380765*
X437019Y380557*
X436867Y380453*
X436792*
X438455Y382012D02*
X439362D01*
Y382220*
X439287Y382428*
X439211Y382532*
X439060Y382636*
X438833*
X438682Y382532*
X438531Y382324*
X438455Y382012*
Y381805*
X438531Y381493*
X438682Y381285*
X438833Y381181*
X439060*
X439211Y381285*
X439362Y381493*
X440043Y382636D02*
Y381181D01*
Y382012D02*
X440119Y382324D01*
X440270Y382532*
X440421Y382636*
X440648*
X441328Y383780D02*
X441480Y383572D01*
X441631Y383260*
X441782Y382844*
X441858Y382324*
Y381909*
X441782Y381389*
X441631Y380973*
X441480Y380661*
X441328Y380453*
X411690Y367490D02*
Y367594D01*
X411765Y367802*
X411841Y367906*
X411992Y368010*
X412295*
X412446Y367906*
X412521Y367802*
X412597Y367594*
Y367386*
X412521Y367178*
X412370Y366866*
X411614Y365826*
X412673*
X413807Y368010D02*
X413580Y367906D01*
X413429Y367594*
X413353Y367074*
Y366762*
X413429Y366242*
X413580Y365930*
X413807Y365826*
X413958*
X414185Y365930*
X414336Y366242*
X414412Y366762*
Y367074*
X414336Y367594*
X414185Y367906*
X413958Y368010*
X413807*
X415092Y367594D02*
X415243Y367698D01*
X415470Y368010*
Y365826*
X417134Y367282D02*
X417058Y366970D01*
X416907Y366762*
X416680Y366658*
X416604*
X416378Y366762*
X416226Y366970*
X416151Y367282*
Y367386*
X416226Y367698*
X416378Y367906*
X416604Y368010*
X416680*
X416907Y367906*
X417058Y367698*
X417134Y367282*
Y366762*
X417058Y366242*
X416907Y365930*
X416680Y365826*
X416529*
X416302Y365930*
X416226Y366138*
X417890Y366034D02*
X417814Y365930D01*
X417890Y365826*
X417965Y365930*
X417890Y366034*
X418646Y367594D02*
X418797Y367698D01*
X419024Y368010*
Y365826*
X420158Y368010D02*
X419931Y367906D01*
X419780Y367594*
X419704Y367074*
Y366762*
X419780Y366242*
X419931Y365930*
X420158Y365826*
X420309*
X420536Y365930*
X420687Y366242*
X420763Y366762*
Y367074*
X420687Y367594*
X420536Y367906*
X420309Y368010*
X420158*
X421519Y366034D02*
X421443Y365930D01*
X421519Y365826*
X421594Y365930*
X421519Y366034*
X422275Y367594D02*
X422426Y367698D01*
X422653Y368010*
Y365826*
X423333Y367594D02*
X423485Y367698D01*
X423712Y368010*
Y365826*
X411614Y373128D02*
Y370945D01*
Y373128D02*
X412295D01*
X412521Y373024*
X412597Y372920*
X412673Y372712*
Y372504*
X412597Y372296*
X412521Y372192*
X412295Y372088*
X411614*
X412143D02*
X412673Y370945D01*
X413731Y372400D02*
X413580Y372296D01*
X413429Y372088*
X413353Y371776*
Y371568*
X413429Y371256*
X413580Y371049*
X413731Y370945*
X413958*
X414109Y371049*
X414260Y371256*
X414336Y371568*
Y371776*
X414260Y372088*
X414109Y372296*
X413958Y372400*
X413731*
X415017Y373128D02*
Y370945D01*
Y372088D02*
X415168Y372296D01*
X415319Y372400*
X415546*
X415697Y372296*
X415848Y372088*
X415924Y371776*
Y371568*
X415848Y371256*
X415697Y371049*
X415546Y370945*
X415319*
X415168Y371049*
X415017Y371256*
X416982Y372400D02*
X416831Y372296D01*
X416680Y372088*
X416604Y371776*
Y371568*
X416680Y371256*
X416831Y371049*
X416982Y370945*
X417209*
X417360Y371049*
X417512Y371256*
X417587Y371568*
Y371776*
X417512Y372088*
X417360Y372296*
X417209Y372400*
X416982*
X418495Y373128D02*
Y371360D01*
X418570Y371049*
X418721Y370945*
X418873*
X418268Y372400D02*
X418797D01*
X419553Y373128D02*
X419629Y373024D01*
X419704Y373128*
X419629Y373232*
X419553Y373128*
X419629Y372400D02*
Y370945D01*
X421216Y372088D02*
X421141Y372296D01*
X420914Y372400*
X420687*
X420460Y372296*
X420385Y372088*
X420460Y371880*
X420612Y371776*
X420990Y371672*
X421141Y371568*
X421216Y371360*
Y371256*
X421141Y371049*
X420914Y370945*
X420687*
X420460Y371049*
X420385Y371256*
X475966Y366905D02*
Y365354D01*
X475591Y366905D02*
X476342D01*
X476825Y365945D02*
X477470D01*
Y366093*
X477416Y366240*
X477362Y366314*
X477255Y366388*
X477094*
X476986Y366314*
X476879Y366166*
X476825Y365945*
Y365797*
X476879Y365576*
X476986Y365428*
X477094Y365354*
X477255*
X477362Y365428*
X477470Y365576*
X477953Y366905D02*
Y365354D01*
X478490Y365502D02*
X478436Y365428D01*
X478490Y365354*
X478543Y365428*
X478490Y365502*
X479349Y366905D02*
X479188Y366831D01*
X479080Y366609*
X479026Y366240*
Y366019*
X479080Y365650*
X479188Y365428*
X479349Y365354*
X479456*
X479617Y365428*
X479724Y365650*
X479778Y366019*
Y366240*
X479724Y366609*
X479617Y366831*
X479456Y366905*
X479349*
X480369D02*
X480959D01*
X480637Y366314*
X480798*
X480906Y366240*
X480959Y366166*
X481013Y365945*
Y365797*
X480959Y365576*
X480852Y365428*
X480691Y365354*
X480530*
X480369Y365428*
X480315Y365502*
X480261Y365650*
X481496Y366609D02*
X481603Y366683D01*
X481764Y366905*
Y365354*
X482248Y366019D02*
X483214D01*
X483805Y366905D02*
X484395D01*
X484073Y366314*
X484234*
X484341Y366240*
X484395Y366166*
X484449Y365945*
Y365797*
X484395Y365576*
X484288Y365428*
X484127Y365354*
X483966*
X483805Y365428*
X483751Y365502*
X483697Y365650*
X485630Y366388D02*
X485576Y366166D01*
X485469Y366019*
X485308Y365945*
X485254*
X485093Y366019*
X484986Y366166*
X484932Y366388*
Y366462*
X484986Y366683*
X485093Y366831*
X485254Y366905*
X485308*
X485469Y366831*
X485576Y366683*
X485630Y366388*
Y366019*
X485576Y365650*
X485469Y365428*
X485308Y365354*
X485200*
X485039Y365428*
X484986Y365576*
X486811Y366388D02*
X486757Y366166D01*
X486650Y366019*
X486489Y365945*
X486435*
X486274Y366019*
X486167Y366166*
X486113Y366388*
Y366462*
X486167Y366683*
X486274Y366831*
X486435Y366905*
X486489*
X486650Y366831*
X486757Y366683*
X486811Y366388*
Y366019*
X486757Y365650*
X486650Y365428*
X486489Y365354*
X486382*
X486220Y365428*
X486167Y365576*
X487294Y366019D02*
X488261D01*
X488797Y366535D02*
Y366609D01*
X488851Y366757*
X488905Y366831*
X489012Y366905*
X489227*
X489334Y366831*
X489388Y366757*
X489442Y366609*
Y366462*
X489388Y366314*
X489281Y366093*
X488744Y365354*
X489495*
X490247Y366905D02*
X490086Y366831D01*
X490032Y366683*
Y366535*
X490086Y366388*
X490193Y366314*
X490408Y366240*
X490569Y366166*
X490676Y366019*
X490730Y365871*
Y365650*
X490676Y365502*
X490623Y365428*
X490462Y365354*
X490247*
X490086Y365428*
X490032Y365502*
X489979Y365650*
Y365871*
X490032Y366019*
X490140Y366166*
X490301Y366240*
X490515Y366314*
X490623Y366388*
X490676Y366535*
Y366683*
X490623Y366831*
X490462Y366905*
X490247*
X491482D02*
X491321Y366831D01*
X491267Y366683*
Y366535*
X491321Y366388*
X491428Y366314*
X491643Y366240*
X491804Y366166*
X491911Y366019*
X491965Y365871*
Y365650*
X491911Y365502*
X491858Y365428*
X491696Y365354*
X491482*
X491321Y365428*
X491267Y365502*
X491213Y365650*
Y365871*
X491267Y366019*
X491374Y366166*
X491535Y366240*
X491750Y366314*
X491858Y366388*
X491911Y366535*
Y366683*
X491858Y366831*
X491696Y366905*
X491482*
X492502Y366535D02*
Y366609D01*
X492555Y366757*
X492609Y366831*
X492717Y366905*
X492931*
X493039Y366831*
X493092Y366757*
X493146Y366609*
Y366462*
X493092Y366314*
X492985Y366093*
X492448Y365354*
X493200*
X475591Y370577D02*
Y368898D01*
Y369697D02*
X475765Y369937D01*
X475881Y370017*
X476056*
X476172Y369937*
X476230Y369697*
Y368898*
X476928Y370577D02*
Y369218D01*
X476986Y368978*
X477103Y368898*
X477219*
X476754Y370017D02*
X477161D01*
X477917Y370577D02*
Y369218D01*
X477975Y368978*
X478091Y368898*
X478208*
X477742Y370017D02*
X478150D01*
X478731D02*
Y368338D01*
Y369777D02*
X478848Y369937D01*
X478964Y370017*
X479138*
X479255Y369937*
X479371Y369777*
X479429Y369537*
Y369377*
X479371Y369138*
X479255Y368978*
X479138Y368898*
X478964*
X478848Y368978*
X478731Y369138*
X480011Y370017D02*
X479953Y369937D01*
X480011Y369857*
X480069Y369937*
X480011Y370017*
Y369058D02*
X479953Y368978D01*
X480011Y368898*
X480069Y368978*
X480011Y369058*
X481639Y370897D02*
X480592Y368338D01*
X483210Y370897D02*
X482163Y368338D01*
X483733Y370017D02*
X483966Y368898D01*
X484198Y370017D02*
X483966Y368898D01*
X484198Y370017D02*
X484431Y368898D01*
X484664Y370017D02*
X484431Y368898D01*
X485187Y370017D02*
X485420Y368898D01*
X485652Y370017D02*
X485420Y368898D01*
X485652Y370017D02*
X485885Y368898D01*
X486118Y370017D02*
X485885Y368898D01*
X486641Y370017D02*
X486874Y368898D01*
X487106Y370017D02*
X486874Y368898D01*
X487106Y370017D02*
X487339Y368898D01*
X487572Y370017D02*
X487339Y368898D01*
X488153Y369058D02*
X488095Y368978D01*
X488153Y368898*
X488211Y368978*
X488153Y369058*
X488793Y370017D02*
X489142Y368898D01*
X489491Y370017D02*
X489142Y368898D01*
X489026Y368578*
X488909Y368418*
X488793Y368338*
X488735*
X490305Y370017D02*
X490189Y369937D01*
X490072Y369777*
X490014Y369537*
Y369377*
X490072Y369138*
X490189Y368978*
X490305Y368898*
X490480*
X490596Y368978*
X490712Y369138*
X490770Y369377*
Y369537*
X490712Y369777*
X490596Y369937*
X490480Y370017*
X490305*
X491294D02*
Y369218D01*
X491352Y368978*
X491468Y368898*
X491643*
X491759Y368978*
X491934Y369218*
Y370017D02*
Y368898D01*
X492457Y370577D02*
X492515Y370497D01*
X492573Y370577*
X492515Y370657*
X492457Y370577*
X492515Y370017D02*
Y368898D01*
X493097Y370577D02*
Y368898D01*
X494318Y369777D02*
X494202Y369937D01*
X494086Y370017*
X493911*
X493795Y369937*
X493678Y369777*
X493620Y369537*
Y369377*
X493678Y369138*
X493795Y368978*
X493911Y368898*
X494086*
X494202Y368978*
X494318Y369138*
X495540Y370017D02*
Y368898D01*
Y369777D02*
X495423Y369937D01*
X495307Y370017*
X495132*
X495016Y369937*
X494900Y369777*
X494842Y369537*
Y369377*
X494900Y369138*
X495016Y368978*
X495132Y368898*
X495307*
X495423Y368978*
X495540Y369138*
X496761Y370577D02*
Y368898D01*
Y369777D02*
X496645Y369937D01*
X496528Y370017*
X496354*
X496237Y369937*
X496121Y369777*
X496063Y369537*
Y369377*
X496121Y369138*
X496237Y368978*
X496354Y368898*
X496528*
X496645Y368978*
X496761Y369138*
X497343Y369058D02*
X497284Y368978D01*
X497343Y368898*
X497401Y368978*
X497343Y369058*
X498622Y369777D02*
X498506Y369937D01*
X498389Y370017*
X498215*
X498099Y369937*
X497982Y369777*
X497924Y369537*
Y369377*
X497982Y369138*
X498099Y368978*
X498215Y368898*
X498389*
X498506Y368978*
X498622Y369138*
X499436Y370017D02*
X499320Y369937D01*
X499204Y369777*
X499145Y369537*
Y369377*
X499204Y369138*
X499320Y368978*
X499436Y368898*
X499611*
X499727Y368978*
X499843Y369138*
X499902Y369377*
Y369537*
X499843Y369777*
X499727Y369937*
X499611Y370017*
X499436*
X500483Y369058D02*
X500425Y368978D01*
X500483Y368898*
X500541Y368978*
X500483Y369058*
X501065Y370577D02*
Y368898D01*
X501646Y370017D02*
X501065Y369218D01*
X501297Y369537D02*
X501705Y368898D01*
X502228Y370017D02*
Y368898D01*
Y369537D02*
X502286Y369777D01*
X502402Y369937*
X502519Y370017*
X502693*
X446161Y368010D02*
Y365826D01*
Y368010D02*
X446691D01*
X446918Y367906*
X446918D02*
X447069Y367698D01*
X447144Y367490*
X447220Y367178*
Y366658*
X447144Y366346*
X447069Y366138*
X446918Y365930*
X446918D02*
X446691Y365826D01*
X446161*
X447900Y368010D02*
Y365826D01*
Y368010D02*
X448883D01*
X447900Y366970D02*
X448505D01*
X447900Y365826D02*
X448883D01*
X450622Y367698D02*
X450471Y367906D01*
X450244Y368010*
X449942*
X449715Y367906*
X449564Y367698*
Y367490*
X449639Y367282*
X449715Y367178*
X449866Y367074*
X450320Y366866*
X450471Y366762*
X450547Y366658*
X450622Y366450*
Y366138*
X450471Y365930*
X450244Y365826*
X449942*
X449715Y365930*
X449564Y366138*
X451303Y368010D02*
Y365826D01*
X453117Y367490D02*
X453042Y367698D01*
X452891Y367906*
X452739Y368010*
X452437*
X452286Y367906*
X452134Y367698*
X452059Y367490*
X451983Y367178*
Y366658*
X452059Y366346*
X452134Y366138*
X452286Y365930*
X452437Y365826*
X452739*
X452891Y365930*
X453042Y366138*
X453117Y366346*
Y366658*
X452739D02*
X453117D01*
X453798Y368010D02*
Y365826D01*
Y368010D02*
X454856Y365826D01*
Y368010D02*
Y365826D01*
X455537Y368010D02*
Y365826D01*
Y368010D02*
X456520D01*
X455537Y366970D02*
X456142D01*
X455537Y365826D02*
X456520D01*
X457200Y368010D02*
Y365826D01*
Y368010D02*
X457881D01*
X458108Y367906*
X458183Y367802*
X458259Y367594*
Y367386*
X458183Y367178*
X458108Y367074*
X457881Y366970*
X457200*
X457730D02*
X458259Y365826D01*
X447220Y377934D02*
X447069Y378142D01*
X446842Y378246*
X446539*
X446313Y378142*
X446161Y377934*
Y377726*
X446237Y377518*
X446313Y377414*
X446464Y377310*
X446918Y377102*
X446918D02*
X447069Y376998D01*
X447144Y376894*
X447220Y376686*
Y376375*
X447069Y376167*
X446842Y376063*
X446539*
X446313Y376167*
X446161Y376375*
X448430Y378246D02*
Y376063D01*
X447900Y378246D02*
X448959D01*
X450244D02*
X449639Y376063D01*
X450244Y378246D02*
X450849Y376063D01*
X449866Y376790D02*
X450622D01*
X452664Y377726D02*
X452588Y377934D01*
X452437Y378142*
X452286Y378246*
X451983*
X451832Y378142*
X451681Y377934*
X451605Y377726*
X451530Y377414*
Y376894*
X451605Y376582*
X451681Y376375*
X451832Y376167*
X451983Y376063*
X452286*
X452437Y376167*
X452588Y376375*
X452664Y376582*
Y376894*
X452286D02*
X452664D01*
X453344Y378246D02*
Y376063D01*
Y378246D02*
X454327D01*
X453344Y377206D02*
X453949D01*
X453344Y376063D02*
X454327D01*
X396260Y368010D02*
Y365826D01*
Y368010D02*
X396789D01*
X397016Y367906*
X397167Y367698*
X397243Y367490*
X397318Y367178*
Y366658*
X397243Y366346*
X397167Y366138*
X397016Y365930*
X396789Y365826*
X396260*
X398604Y368010D02*
X397999Y365826D01*
X398604Y368010D02*
X399209Y365826D01*
X398226Y366554D02*
X398982D01*
X400418Y368010D02*
Y365826D01*
X399889Y368010D02*
X400948D01*
X401628D02*
Y365826D01*
Y368010D02*
X402611D01*
X401628Y366970D02*
X402233D01*
X401628Y365826D02*
X402611D01*
X396260Y383364D02*
Y381181D01*
Y383364D02*
X396865Y381181D01*
X397470Y383364D02*
X396865Y381181D01*
X397470Y383364D02*
Y381181D01*
X398604Y383364D02*
X398452Y383260D01*
X398301Y383052*
X398226Y382844*
X398150Y382532*
Y382012*
X398226Y381701*
X398301Y381493*
X398452Y381285*
X398604Y381181*
X398906*
X399057Y381285*
X399209Y381493*
X399284Y381701*
X399360Y382012*
Y382532*
X399284Y382844*
X399209Y383052*
X399057Y383260*
X398906Y383364*
X398604*
X400040D02*
Y381181D01*
Y383364D02*
X400570D01*
X400796Y383260*
X400948Y383052*
X401023Y382844*
X401099Y382532*
Y382012*
X401023Y381701*
X400948Y381493*
X400796Y381285*
X400570Y381181*
X400040*
X401779Y383364D02*
Y381181D01*
Y383364D02*
X402762D01*
X401779Y382324D02*
X402384D01*
X401779Y381181D02*
X402762D01*
X403443Y383364D02*
Y381181D01*
X404350*
X396260Y378246D02*
Y376063D01*
X397167*
X398452Y378246D02*
X397848Y376063D01*
X398452Y378246D02*
X399057Y376063D01*
X398074Y376790D02*
X398831D01*
X399738Y378246D02*
X400343Y377206D01*
Y376063*
X400948Y378246D02*
X400343Y377206D01*
X401628Y378246D02*
Y376063D01*
Y378246D02*
X402611D01*
X401628Y377206D02*
X402233D01*
X401628Y376063D02*
X402611D01*
X403291Y378246D02*
Y376063D01*
Y378246D02*
X403972D01*
X404199Y378142*
X404274Y378038*
X404350Y377830*
Y377622*
X404274Y377414*
X404199Y377310*
X403972Y377206*
X403291*
X403821D02*
X404350Y376063D01*
X397394Y372608D02*
X397318Y372816D01*
X397167Y373024*
X397016Y373128*
X396713*
X396562Y373024*
X396411Y372816*
X396335Y372608*
X396260Y372296*
Y371776*
X396335Y371464*
X396411Y371256*
X396562Y371049*
X396713Y370945*
X397016*
X397167Y371049*
X397318Y371256*
X397394Y371464*
X398528Y373128D02*
X398377Y373024D01*
X398226Y372816*
X398150Y372608*
X398074Y372296*
Y371776*
X398150Y371464*
X398226Y371256*
X398377Y371049*
X398528Y370945*
X398831*
X398982Y371049*
X399133Y371256*
X399209Y371464*
X399284Y371776*
Y372296*
X399209Y372608*
X399133Y372816*
X398982Y373024*
X398831Y373128*
X398528*
X399965D02*
Y370945D01*
Y373128D02*
X400570Y370945D01*
X401174Y373128D02*
X400570Y370945D01*
X401174Y373128D02*
Y370945D01*
X401855Y373128D02*
Y370945D01*
Y373128D02*
X402535D01*
X402762Y373024*
X402838Y372920*
X402913Y372712*
Y372400*
X402838Y372192*
X402762Y372088*
X402535Y371984*
X401855*
X404199Y373128D02*
X403594Y370945D01*
X404199Y373128D02*
X404804Y370945D01*
X403821Y371672D02*
X404577D01*
X405484Y373128D02*
Y370945D01*
Y373128D02*
X406543Y370945D01*
Y373128D02*
Y370945D01*
X407223Y373128D02*
X407828Y372088D01*
Y370945*
X408433Y373128D02*
X407828Y372088D01*
X462795Y368010D02*
Y365826D01*
X463703*
X464459Y366034D02*
X464383Y365930D01*
X464459Y365826*
X464534Y365930*
X464459Y366034*
X466273Y367698D02*
X466122Y367906D01*
X465895Y368010*
X465593*
X465366Y367906*
X465215Y367698*
Y367490*
X465290Y367282*
X465366Y367178*
X465517Y367074*
X465971Y366866*
X466122Y366762*
X466198Y366658*
X466273Y366450*
Y366138*
X466122Y365930*
X465895Y365826*
X465593*
X465366Y365930*
X465215Y366138*
X467029Y366034D02*
X466954Y365930D01*
X467029Y365826*
X467105Y365930*
X467029Y366034*
X467785Y368010D02*
Y365826D01*
X468844Y368010D02*
X467785Y366554D01*
X468163Y367074D02*
X468844Y365826D01*
X446691Y373128D02*
Y370945D01*
X446161Y373128D02*
X447220D01*
X447900D02*
Y370945D01*
X448959Y373128D02*
Y370945D01*
X447900Y372088D02*
X448959D01*
X449639Y373128D02*
Y370945D01*
X451454Y372608D02*
X451378Y372816D01*
X451227Y373024*
X451076Y373128*
X450774*
X450622Y373024*
X450471Y372816*
X450395Y372608*
X450320Y372296*
Y371776*
X450395Y371464*
X450471Y371256*
X450622Y371049*
X450774Y370945*
X451076*
X451227Y371049*
X451378Y371256*
X451454Y371464*
X452134Y373128D02*
Y370945D01*
X453193Y373128D02*
X452134Y371672D01*
X452513Y372192D02*
X453193Y370945D01*
X453873Y373128D02*
Y370945D01*
Y373128D02*
X454932Y370945D01*
Y373128D02*
Y370945D01*
X455612Y373128D02*
Y370945D01*
Y373128D02*
X456595D01*
X455612Y372088D02*
X456217D01*
X455612Y370945D02*
X456595D01*
X458334Y372816D02*
X458183Y373024D01*
X457956Y373128*
X457654*
X457427Y373024*
X457276Y372816*
Y372608*
X457351Y372400*
X457427Y372296*
X457578Y372192*
X458032Y371984*
X458183Y371880*
X458259Y371776*
X458334Y371568*
Y371256*
X458183Y371049*
X457956Y370945*
X457654*
X457427Y371049*
X457276Y371256*
X460073Y372816D02*
X459922Y373024D01*
X459695Y373128*
X459393*
X459166Y373024*
X459015Y372816*
Y372608*
X459090Y372400*
X459166Y372296*
X459317Y372192*
X459771Y371984*
X459922Y371880*
X459998Y371776*
X460073Y371568*
Y371256*
X459922Y371049*
X459695Y370945*
X459393*
X459166Y371049*
X459015Y371256*
X462795Y378246D02*
Y376063D01*
Y378246D02*
X463476D01*
X463703Y378142*
X463778Y378038*
X463854Y377830*
Y377622*
X463778Y377414*
X463703Y377310*
X463476Y377206*
X462795*
X463325D02*
X463854Y376063D01*
X464534Y378246D02*
Y376063D01*
Y378246D02*
X465517D01*
X464534Y377206D02*
X465139D01*
X464534Y376063D02*
X465517D01*
X466198Y378246D02*
X466803Y376063D01*
X467407Y378246D02*
X466803Y376063D01*
X468088Y378246D02*
Y376063D01*
Y378246D02*
X469071D01*
X468088Y377206D02*
X468693D01*
X411614Y378246D02*
Y376063D01*
Y378246D02*
X412143D01*
X412370Y378142*
X412521Y377934*
X412597Y377726*
X412673Y377414*
Y376894*
X412597Y376582*
X412521Y376375*
X412370Y376167*
X412143Y376063*
X411614*
X413353Y377518D02*
Y376063D01*
Y376894D02*
X413429Y377206D01*
X413580Y377414*
X413731Y377518*
X413958*
X414639Y378246D02*
X414714Y378142D01*
X414790Y378246*
X414714Y378350*
X414639Y378246*
X414714Y377518D02*
Y376063D01*
X415470Y378246D02*
Y376063D01*
X416151Y378246D02*
Y376063D01*
X418570Y378246D02*
Y376063D01*
Y378246D02*
X419099D01*
X419326Y378142*
X419477Y377934*
X419553Y377726*
X419629Y377414*
Y376894*
X419553Y376582*
X419477Y376375*
X419326Y376167*
X419099Y376063*
X418570*
X420309Y377518D02*
Y376063D01*
Y376894D02*
X420385Y377206D01*
X420536Y377414*
X420687Y377518*
X420914*
X422502D02*
Y376063D01*
Y377206D02*
X422351Y377414D01*
X422199Y377518*
X421973*
X421821Y377414*
X421670Y377206*
X421594Y376894*
Y376686*
X421670Y376375*
X421821Y376167*
X421973Y376063*
X422199*
X422351Y376167*
X422502Y376375*
X423182Y377518D02*
X423485Y376063D01*
X423787Y377518D02*
X423485Y376063D01*
X423787Y377518D02*
X424090Y376063D01*
X424392Y377518D02*
X424090Y376063D01*
X425072Y378246D02*
X425148Y378142D01*
X425224Y378246*
X425148Y378350*
X425072Y378246*
X425148Y377518D02*
Y376063D01*
X425904Y377518D02*
Y376063D01*
Y377102D02*
X426131Y377414D01*
X426282Y377518*
X426509*
X426660Y377414*
X426736Y377102*
Y376063*
X428324Y377518D02*
Y375855D01*
X428248Y375543*
X428172Y375439*
X428021Y375335*
X427794*
X427643Y375439*
X428324Y377206D02*
X428172Y377414D01*
X428021Y377518*
X427794*
X427643Y377414*
X427492Y377206*
X427416Y376894*
Y376686*
X427492Y376375*
X427643Y376167*
X427794Y376063*
X428021*
X428172Y376167*
X428324Y376375*
X582677Y488189D02*
X709646D01*
X582677Y476378D02*
X709646D01*
X582677Y464567D02*
X709646D01*
X582677Y452756D02*
X709646D01*
X582677Y440945D02*
X709646D01*
X582677Y429134D02*
X709646D01*
X582677Y417323D02*
X709646D01*
X582677Y405512D02*
X709646D01*
X582677Y393701D02*
X709646D01*
X582677Y488189D02*
Y393701D01*
X624016Y488189D02*
Y393701D01*
X641732Y488189D02*
Y393701D01*
X659449Y488189D02*
Y393701D01*
X686024Y488189D02*
Y393701D01*
X709646Y488189D02*
Y393701D01*
X600197Y482653D02*
X599928Y483022D01*
X599526Y483206*
X598989*
X598586Y483022*
X598318Y482653*
Y482283*
X598452Y481914*
X598586Y481730*
X598855Y481545*
X599660Y481176*
X599928Y480992*
X600063Y480807*
X600197Y480438*
Y479884*
X599928Y479515*
X599526Y479331*
X598989*
X598586Y479515*
X598318Y479884*
X601405Y483206D02*
Y479331D01*
X604492Y483206D02*
X602613Y479331D01*
Y483206D02*
X604492D01*
X602613Y479331D02*
X604492D01*
X605700Y483206D02*
Y479331D01*
Y483206D02*
X607445D01*
X605700Y481361D02*
X606773D01*
X605700Y479331D02*
X607445D01*
X628919Y483206D02*
X628651Y483022D01*
X628382Y482653*
X628248Y482283*
X628114Y481730*
Y480807*
X628248Y480253*
X628382Y479884*
X628651Y479515*
X628919Y479331*
X629456*
X629724Y479515*
X629993Y479884*
X630127Y480253*
X630261Y480807*
Y481730*
X630127Y482283*
X629993Y482653*
X629724Y483022*
X629456Y483206*
X628919*
X629322Y480069D02*
X630127Y478962D01*
X632409Y483206D02*
Y479331D01*
X631469Y483206D02*
X633348D01*
X634556D02*
X635630Y481361D01*
Y479331*
X636704Y483206D02*
X635630Y481361D01*
X647709Y482653D02*
X647441Y483022D01*
X647038Y483206*
X646501*
X646099Y483022*
X645830Y482653*
Y482283*
X645965Y481914*
X646099Y481730*
X646367Y481545*
X647173Y481176*
X647441Y480992*
X647575Y480807*
X647709Y480438*
Y479884*
X647441Y479515*
X647038Y479331*
X646501*
X646099Y479515*
X645830Y479884*
X648917Y483206D02*
X649991Y481361D01*
Y479331*
X651065Y483206D02*
X649991Y481361D01*
X652273Y483206D02*
Y479331D01*
Y483206D02*
X653346Y479331D01*
X654420Y483206D02*
X653346Y479331D01*
X654420Y483206D02*
Y479331D01*
X665157Y483206D02*
Y479331D01*
Y483206D02*
X666365D01*
X666768Y483022*
X666902Y482837*
X667037Y482468*
Y481914*
X666902Y481545*
X666768Y481361*
X666365Y481176*
X665157*
X668244Y483206D02*
Y479331D01*
X669855*
X672137Y483206D02*
X671063Y479331D01*
X672137Y483206D02*
X673210Y479331D01*
X671466Y480623D02*
X672808D01*
X675358Y483206D02*
Y479331D01*
X674418Y483206D02*
X676297D01*
X677505D02*
Y479331D01*
Y483206D02*
X679250D01*
X677505Y481361D02*
X678579D01*
X677505Y479331D02*
X679250D01*
X680458Y483206D02*
Y479331D01*
Y483206D02*
X681398D01*
X681800Y483022*
X682069Y482653*
X682203Y482283*
X682337Y481730*
Y480807*
X682203Y480253*
X682069Y479884*
X681800Y479515*
X681398Y479331*
X680458*
X694282Y483206D02*
Y479331D01*
X693343Y483206D02*
X695222D01*
X697235D02*
X696967Y483022D01*
X696698Y482653*
X696564Y482283*
X696430Y481730*
Y480807*
X696564Y480253*
X696698Y479884*
X696967Y479515*
X697235Y479331*
X697772*
X698040Y479515*
X698309Y479884*
X698443Y480253*
X698577Y480807*
Y481730*
X698443Y482283*
X698309Y482653*
X698040Y483022*
X697772Y483206*
X697235*
X699785D02*
Y479331D01*
X701396*
X586435Y471395D02*
X586033Y471211D01*
X585764Y470657*
X585630Y469734*
Y469181*
X585764Y468258*
X586033Y467704*
X586435Y467520*
X586704*
X587106Y467704*
X587375Y468258*
X587509Y469181*
Y469734*
X587375Y470657*
X587106Y471211*
X586704Y471395*
X586435*
X588851Y467889D02*
X588717Y467704D01*
X588851Y467520*
X588985Y467704*
X588851Y467889*
X590327Y470472D02*
Y470657D01*
X590462Y471026*
X590596Y471211*
X590864Y471395*
X591401*
X591670Y471211*
X591804Y471026*
X591938Y470657*
Y470288*
X591804Y469919*
X591535Y469365*
X590193Y467520*
X592072*
X595025Y471395D02*
X593683D01*
X593549Y469734*
X593683Y469919*
X594086Y470103*
X594488*
X594891Y469919*
X595159Y469550*
X595293Y468996*
X595159Y468627*
X595025Y468073*
X594757Y467704*
X594354Y467520*
X593951*
X593549Y467704*
X593414Y467889*
X593280Y468258*
X628584Y470472D02*
Y470657D01*
X628718Y471026*
X628852Y471211*
X629120Y471395*
X629657*
X629926Y471211*
X630060Y471026*
X630194Y470657*
Y470288*
X630060Y469919*
X629792Y469365*
X628449Y467520*
X630328*
X633415Y471395D02*
X632073Y467520D01*
X631536Y471395D02*
X633415D01*
X636234Y470842D02*
X636100Y471211D01*
X635697Y471395*
X635429*
X635026Y471211*
X634758Y470657*
X634623Y469734*
Y468812*
X634758Y468073*
X635026Y467704*
X635429Y467520*
X635563*
X635965Y467704*
X636234Y468073*
X636368Y468627*
Y468812*
X636234Y469365*
X635965Y469734*
X635563Y469919*
X635429*
X635026Y469734*
X634758Y469365*
X634623Y468812*
X647638Y470472D02*
X653543D01*
X650591Y467520D02*
Y473425D01*
X663748Y471395D02*
X664822Y469550D01*
Y467520*
X665896Y471395D02*
X664822Y469550D01*
X667104Y471395D02*
Y467520D01*
Y471395D02*
X668848D01*
X667104Y469550D02*
X668177D01*
X667104Y467520D02*
X668848D01*
X671935Y470842D02*
X671667Y471211D01*
X671264Y471395*
X670727*
X670325Y471211*
X670056Y470842*
Y470472*
X670191Y470103*
X670325Y469919*
X670593Y469734*
X671399Y469365*
X671667Y469181*
X671801Y468996*
X671935Y468627*
Y468073*
X671667Y467704*
X671264Y467520*
X670727*
X670325Y467704*
X670056Y468073*
X689920Y470842D02*
Y467520D01*
X688712Y469181D02*
X691128D01*
X694752Y472133D02*
X692336Y466228D01*
X695960Y469181D02*
X698376D01*
X700389Y471395D02*
X699987Y471211D01*
X699718Y470657*
X699584Y469734*
Y469181*
X699718Y468258*
X699987Y467704*
X700389Y467520*
X700658*
X701060Y467704*
X701329Y468258*
X701463Y469181*
Y469734*
X701329Y470657*
X701060Y471211*
X700658Y471395*
X700389*
X702805Y467889D02*
X702671Y467704D01*
X702805Y467520*
X702939Y467704*
X702805Y467889*
X704953Y471395D02*
X704550Y471211D01*
X704281Y470657*
X704147Y469734*
Y469181*
X704281Y468258*
X704550Y467704*
X704953Y467520*
X705221*
X705624Y467704*
X705892Y468258*
X706026Y469181*
Y469734*
X705892Y470657*
X705624Y471211*
X705221Y471395*
X704953*
X585630Y458846D02*
X585898Y459031D01*
X586301Y459584*
Y455709*
X630060Y458661D02*
Y458846D01*
X630194Y459215*
X630328Y459400*
X630597Y459584*
X631134*
X631402Y459400*
X631536Y459215*
X631671Y458846*
Y458477*
X631536Y458108*
X631268Y457554*
X629926Y455709*
X631805*
X633147Y458661D02*
Y458846D01*
X633281Y459215*
X633415Y459400*
X633684Y459584*
X634221*
X634489Y459400*
X634623Y459215*
X634758Y458846*
Y458477*
X634623Y458108*
X634355Y457554*
X633013Y455709*
X634892*
X647638D02*
X653543Y461614D01*
X647638D02*
X653543Y455709D01*
X663748Y459584D02*
X664822Y457739D01*
Y455709*
X665896Y459584D02*
X664822Y457739D01*
X667104Y459584D02*
Y455709D01*
Y459584D02*
X668848D01*
X667104Y457739D02*
X668177D01*
X667104Y455709D02*
X668848D01*
X671935Y459031D02*
X671667Y459400D01*
X671264Y459584*
X670727*
X670325Y459400*
X670056Y459031*
Y458661*
X670191Y458292*
X670325Y458108*
X670593Y457923*
X671399Y457554*
X671667Y457370*
X671801Y457185*
X671935Y456816*
Y456262*
X671667Y455893*
X671264Y455709*
X670727*
X670325Y455893*
X670056Y456262*
X689920Y459031D02*
Y455709D01*
X688712Y457370D02*
X691128D01*
X694752Y460322D02*
X692336Y454417D01*
X695960Y457370D02*
X698376D01*
X700389Y459584D02*
X699987Y459400D01*
X699718Y458846*
X699584Y457923*
Y457370*
X699718Y456447*
X699987Y455893*
X700389Y455709*
X700658*
X701060Y455893*
X701329Y456447*
X701463Y457370*
Y457923*
X701329Y458846*
X701060Y459400*
X700658Y459584*
X700389*
X702805Y456078D02*
X702671Y455893D01*
X702805Y455709*
X702939Y455893*
X702805Y456078*
X704953Y459584D02*
X704550Y459400D01*
X704281Y458846*
X704147Y457923*
Y457370*
X704281Y456447*
X704550Y455893*
X704953Y455709*
X705221*
X705624Y455893*
X705892Y456447*
X706026Y457370*
Y457923*
X705892Y458846*
X705624Y459400*
X705221Y459584*
X704953*
X586972Y447773D02*
X585630Y445189D01*
X587643*
X586972Y447773D02*
Y443898D01*
X632744Y447773D02*
X631402Y445189D01*
X633415*
X632744Y447773D02*
Y443898D01*
X647638D02*
X653543D01*
Y449803*
X647638*
Y443898*
X650591Y446850D02*
Y449803D01*
X665225Y447773D02*
Y443898D01*
Y447773D02*
X667104Y443898D01*
Y447773D02*
Y443898D01*
X669117Y447773D02*
X668848Y447589D01*
X668580Y447219*
X668446Y446850*
X668312Y446297*
Y445374*
X668446Y444820*
X668580Y444451*
X668848Y444082*
X669117Y443898*
X669654*
X669922Y444082*
X670191Y444451*
X670325Y444820*
X670459Y445374*
Y446297*
X670325Y446850*
X670191Y447219*
X669922Y447589*
X669654Y447773*
X669117*
X689920Y447219D02*
Y443898D01*
X688712Y445559D02*
X691128D01*
X694752Y448511D02*
X692336Y442606D01*
X695960Y445559D02*
X698376D01*
X700389Y447773D02*
X699987Y447589D01*
X699718Y447035*
X699584Y446112*
Y445559*
X699718Y444636*
X699987Y444082*
X700389Y443898*
X700658*
X701060Y444082*
X701329Y444636*
X701463Y445559*
Y446112*
X701329Y447035*
X701060Y447589*
X700658Y447773*
X700389*
X702805Y444267D02*
X702671Y444082D01*
X702805Y443898*
X702939Y444082*
X702805Y444267*
X704953Y447773D02*
X704550Y447589D01*
X704281Y447035*
X704147Y446112*
Y445559*
X704281Y444636*
X704550Y444082*
X704953Y443898*
X705221*
X705624Y444082*
X705892Y444636*
X706026Y445559*
Y446112*
X705892Y447035*
X705624Y447589*
X705221Y447773*
X704953*
X586435Y435962D02*
X586033Y435778D01*
X585764Y435224*
X585630Y434301*
Y433748*
X585764Y432825*
X586033Y432271*
X586435Y432087*
X586704*
X587106Y432271*
X587375Y432825*
X587509Y433748*
Y434301*
X587375Y435224*
X587106Y435778*
X586704Y435962*
X586435*
X588851Y432456D02*
X588717Y432271D01*
X588851Y432087*
X588985Y432271*
X588851Y432456*
X591535Y435962D02*
X590193Y433378D01*
X592207*
X591535Y435962D02*
Y432087D01*
X632140Y435962D02*
X631738Y435778D01*
X631603Y435408*
Y435039*
X631738Y434670*
X632006Y434486*
X632543Y434301*
X632946Y434117*
X633214Y433748*
X633348Y433378*
Y432825*
X633214Y432456*
X633080Y432271*
X632677Y432087*
X632140*
X631738Y432271*
X631603Y432456*
X631469Y432825*
Y433378*
X631603Y433748*
X631872Y434117*
X632275Y434301*
X632811Y434486*
X633080Y434670*
X633214Y435039*
Y435408*
X633080Y435778*
X632677Y435962*
X632140*
X650591Y432087D02*
X653543Y435039D01*
X650591Y437992*
X647638Y435039*
X650591Y432087*
Y435039D02*
Y437992D01*
X663748Y435962D02*
X664822Y434117D01*
Y432087*
X665896Y435962D02*
X664822Y434117D01*
X667104Y435962D02*
Y432087D01*
Y435962D02*
X668848D01*
X667104Y434117D02*
X668177D01*
X667104Y432087D02*
X668848D01*
X671935Y435408D02*
X671667Y435778D01*
X671264Y435962*
X670727*
X670325Y435778*
X670056Y435408*
Y435039*
X670191Y434670*
X670325Y434486*
X670593Y434301*
X671399Y433932*
X671667Y433748*
X671801Y433563*
X671935Y433194*
Y432640*
X671667Y432271*
X671264Y432087*
X670727*
X670325Y432271*
X670056Y432640*
X689920Y435408D02*
Y432087D01*
X688712Y433748D02*
X691128D01*
X694752Y436700D02*
X692336Y430795D01*
X695960Y433748D02*
X698376D01*
X700389Y435962D02*
X699987Y435778D01*
X699718Y435224*
X699584Y434301*
Y433748*
X699718Y432825*
X699987Y432271*
X700389Y432087*
X700658*
X701060Y432271*
X701329Y432825*
X701463Y433748*
Y434301*
X701329Y435224*
X701060Y435778*
X700658Y435962*
X700389*
X702805Y432456D02*
X702671Y432271D01*
X702805Y432087*
X702939Y432271*
X702805Y432456*
X704953Y435962D02*
X704550Y435778D01*
X704281Y435224*
X704147Y434301*
Y433748*
X704281Y432825*
X704550Y432271*
X704953Y432087*
X705221*
X705624Y432271*
X705892Y432825*
X706026Y433748*
Y434301*
X705892Y435224*
X705624Y435778*
X705221Y435962*
X704953*
X585630Y423413D02*
X585898Y423597D01*
X586301Y424151*
Y420276*
X587643Y420645D02*
X587509Y420460D01*
X587643Y420276*
X587777Y420460*
X587643Y420645*
X588985Y423413D02*
X589254Y423597D01*
X589656Y424151*
Y420276*
X631201Y424151D02*
X629859Y421567D01*
X631872*
X631201Y424151D02*
Y420276D01*
X633751Y424151D02*
X633348Y423967D01*
X633214Y423597*
Y423228*
X633348Y422859*
X633617Y422675*
X634154Y422490*
X634556Y422306*
X634825Y421937*
X634959Y421567*
Y421014*
X634825Y420645*
X634690Y420460*
X634288Y420276*
X633751*
X633348Y420460*
X633214Y420645*
X633080Y421014*
Y421567*
X633214Y421937*
X633482Y422306*
X633885Y422490*
X634422Y422675*
X634690Y422859*
X634825Y423228*
Y423597*
X634690Y423967*
X634288Y424151*
X633751*
X647638Y420276D02*
X653543D01*
X647638Y426181*
X653543*
X647638Y420276*
X663748Y424151D02*
X664822Y422306D01*
Y420276*
X665896Y424151D02*
X664822Y422306D01*
X667104Y424151D02*
Y420276D01*
Y424151D02*
X668848D01*
X667104Y422306D02*
X668177D01*
X667104Y420276D02*
X668848D01*
X671935Y423597D02*
X671667Y423967D01*
X671264Y424151*
X670727*
X670325Y423967*
X670056Y423597*
Y423228*
X670191Y422859*
X670325Y422675*
X670593Y422490*
X671399Y422121*
X671667Y421937*
X671801Y421752*
X671935Y421383*
Y420829*
X671667Y420460*
X671264Y420276*
X670727*
X670325Y420460*
X670056Y420829*
X689920Y423597D02*
Y420276D01*
X688712Y421937D02*
X691128D01*
X694752Y424889D02*
X692336Y418984D01*
X695960Y421937D02*
X698376D01*
X700389Y424151D02*
X699987Y423967D01*
X699718Y423413*
X699584Y422490*
Y421937*
X699718Y421014*
X699987Y420460*
X700389Y420276*
X700658*
X701060Y420460*
X701329Y421014*
X701463Y421937*
Y422490*
X701329Y423413*
X701060Y423967*
X700658Y424151*
X700389*
X702805Y420645D02*
X702671Y420460D01*
X702805Y420276*
X702939Y420460*
X702805Y420645*
X704953Y424151D02*
X704550Y423967D01*
X704281Y423413*
X704147Y422490*
Y421937*
X704281Y421014*
X704550Y420460*
X704953Y420276*
X705221*
X705624Y420460*
X705892Y421014*
X706026Y421937*
Y422490*
X705892Y423413*
X705624Y423967*
X705221Y424151*
X704953*
X586435Y412340D02*
X586033Y412156D01*
X585764Y411602*
X585630Y410679*
Y410125*
X585764Y409203*
X586033Y408649*
X586435Y408465*
X586704*
X587106Y408649*
X587375Y409203*
X587509Y410125*
Y410679*
X587375Y411602*
X587106Y412156*
X586704Y412340*
X586435*
X588851Y408834D02*
X588717Y408649D01*
X588851Y408465*
X588985Y408649*
X588851Y408834*
X591938Y412340D02*
X590596D01*
X590462Y410679*
X590596Y410864*
X590999Y411048*
X591401*
X591804Y410864*
X592072Y410495*
X592207Y409941*
X592072Y409572*
X591938Y409018*
X591670Y408649*
X591267Y408465*
X590864*
X590462Y408649*
X590327Y408834*
X590193Y409203*
X595159Y412340D02*
X593817D01*
X593683Y410679*
X593817Y410864*
X594220Y411048*
X594622*
X595025Y410864*
X595293Y410495*
X595428Y409941*
X595293Y409572*
X595159Y409018*
X594891Y408649*
X594488Y408465*
X594086*
X593683Y408649*
X593549Y408834*
X593414Y409203*
X632744Y412340D02*
X631402Y409756D01*
X633415*
X632744Y412340D02*
Y408465D01*
X647638D02*
X653543Y414370D01*
Y408465*
X647638Y414370*
Y408465*
X663748Y412340D02*
X664822Y410495D01*
Y408465*
X665896Y412340D02*
X664822Y410495D01*
X667104Y412340D02*
Y408465D01*
Y412340D02*
X668848D01*
X667104Y410495D02*
X668177D01*
X667104Y408465D02*
X668848D01*
X671935Y411786D02*
X671667Y412156D01*
X671264Y412340*
X670727*
X670325Y412156*
X670056Y411786*
Y411417*
X670191Y411048*
X670325Y410864*
X670593Y410679*
X671399Y410310*
X671667Y410125*
X671801Y409941*
X671935Y409572*
Y409018*
X671667Y408649*
X671264Y408465*
X670727*
X670325Y408649*
X670056Y409018*
X689920Y411786D02*
Y408465D01*
X688712Y410125D02*
X691128D01*
X694752Y413078D02*
X692336Y407173D01*
X695960Y410125D02*
X698376D01*
X700389Y412340D02*
X699987Y412156D01*
X699718Y411602*
X699584Y410679*
Y410125*
X699718Y409203*
X699987Y408649*
X700389Y408465*
X700658*
X701060Y408649*
X701329Y409203*
X701463Y410125*
Y410679*
X701329Y411602*
X701060Y412156*
X700658Y412340*
X700389*
X702805Y408834D02*
X702671Y408649D01*
X702805Y408465*
X702939Y408649*
X702805Y408834*
X704953Y412340D02*
X704550Y412156D01*
X704281Y411602*
X704147Y410679*
Y410125*
X704281Y409203*
X704550Y408649*
X704953Y408465*
X705221*
X705624Y408649*
X705892Y409203*
X706026Y410125*
Y410679*
X705892Y411602*
X705624Y412156*
X705221Y412340*
X704953*
X586435Y400529D02*
X586033Y400344D01*
X585764Y399791*
X585630Y398868*
Y398314*
X585764Y397392*
X586033Y396838*
X586435Y396654*
X586704*
X587106Y396838*
X587375Y397392*
X587509Y398314*
Y398868*
X587375Y399791*
X587106Y400344*
X586704Y400529*
X586435*
X588851Y397023D02*
X588717Y396838D01*
X588851Y396654*
X588985Y396838*
X588851Y397023*
X590864Y400529D02*
X590462Y400344D01*
X590327Y399975*
Y399606*
X590462Y399237*
X590730Y399053*
X591267Y398868*
X591670Y398684*
X591938Y398314*
X592072Y397945*
Y397392*
X591938Y397023*
X591804Y396838*
X591401Y396654*
X590864*
X590462Y396838*
X590327Y397023*
X590193Y397392*
Y397945*
X590327Y398314*
X590596Y398684*
X590999Y398868*
X591535Y399053*
X591804Y399237*
X591938Y399606*
Y399975*
X591804Y400344*
X591401Y400529*
X590864*
X632744D02*
X631402Y397945D01*
X633415*
X632744Y400529D02*
Y396654D01*
X647638Y399606D02*
X653543D01*
X650591Y396654D02*
Y402559D01*
X652926Y404183D02*
X652067Y401083D01*
X652926Y404183D02*
X653785Y401083D01*
X652389Y402116D02*
X653463D01*
X663748Y400529D02*
X664822Y398684D01*
Y396654*
X665896Y400529D02*
X664822Y398684D01*
X667104Y400529D02*
Y396654D01*
Y400529D02*
X668848D01*
X667104Y398684D02*
X668177D01*
X667104Y396654D02*
X668848D01*
X671935Y399975D02*
X671667Y400344D01*
X671264Y400529*
X670727*
X670325Y400344*
X670056Y399975*
Y399606*
X670191Y399237*
X670325Y399053*
X670593Y398868*
X671399Y398499*
X671667Y398314*
X671801Y398130*
X671935Y397761*
Y397207*
X671667Y396838*
X671264Y396654*
X670727*
X670325Y396838*
X670056Y397207*
X689920Y399975D02*
Y396654D01*
X688712Y398314D02*
X691128D01*
X694752Y401267D02*
X692336Y395362D01*
X695960Y398314D02*
X698376D01*
X700389Y400529D02*
X699987Y400344D01*
X699718Y399791*
X699584Y398868*
Y398314*
X699718Y397392*
X699987Y396838*
X700389Y396654*
X700658*
X701060Y396838*
X701329Y397392*
X701463Y398314*
Y398868*
X701329Y399791*
X701060Y400344*
X700658Y400529*
X700389*
X702805Y397023D02*
X702671Y396838D01*
X702805Y396654*
X702939Y396838*
X702805Y397023*
X704953Y400529D02*
X704550Y400344D01*
X704281Y399791*
X704147Y398868*
Y398314*
X704281Y397392*
X704550Y396838*
X704953Y396654*
X705221*
X705624Y396838*
X705892Y397392*
X706026Y398314*
Y398868*
X705892Y399791*
X705624Y400344*
X705221Y400529*
X704953*
G54D12*
X566929Y575984D02*
X499110D01*
X566929D02*
X556929Y573484D01*
Y578484*
X566929Y575984*
X393701D02*
X461520D01*
X393701D02*
X403701Y578484D01*
Y573484*
X393701Y575984*
X566929Y571929D02*
Y580984D01*
X393701Y571929D02*
Y580984D01*
X466792Y578797D02*
X464520Y574422D01*
X467929*
X466792Y578797D02*
Y572234D01*
X472247Y578797D02*
X469974Y574422D01*
X473383*
X472247Y578797D02*
Y572234D01*
X475656Y572859D02*
X475429Y572547D01*
X475656Y572234*
X475883Y572547*
X475656Y572859*
X479292Y578797D02*
X478610Y578484D01*
X478156Y577547*
X477929Y575984*
Y575047*
X478156Y573484*
X478610Y572547*
X479292Y572234*
X479747*
X480429Y572547*
X480883Y573484*
X481110Y575047*
Y575984*
X480883Y577547*
X480429Y578484*
X479747Y578797*
X479292*
X483156Y576609D02*
Y572234D01*
Y575359D02*
X483838Y576297D01*
X484292Y576609*
X484974*
X485429Y576297*
X485656Y575359*
Y572234*
Y575359D02*
X486338Y576297D01*
X486792Y576609*
X487474*
X487929Y576297*
X488156Y575359*
Y572234*
X490201Y576609D02*
Y572234D01*
Y575359D02*
X490883Y576297D01*
X491338Y576609*
X492020*
X492474Y576297*
X492701Y575359*
Y572234*
Y575359D02*
X493383Y576297D01*
X493838Y576609*
X494520*
X494974Y576297*
X495201Y575359*
Y572234*
X382677Y393701D02*
Y464323D01*
Y393701D02*
X380177Y403701D01*
X385177*
X382677Y393701*
Y566929D02*
Y501914D01*
Y566929D02*
X385177Y556929D01*
X380177*
X382677Y566929*
X388701Y393701D02*
X377677D01*
X388701Y566929D02*
X377677D01*
X377296Y469596D02*
X381671Y467323D01*
Y470732*
X377296Y469596D02*
X383858D01*
X377296Y475050D02*
X381671Y472777D01*
Y476186*
X377296Y475050D02*
X383858D01*
X383233Y478459D02*
X383546Y478232D01*
X383858Y478459*
X383546Y478686*
X383233Y478459*
X377296Y482096D02*
X377608Y481414D01*
X378546Y480959*
X380108Y480732*
X381046*
X382608Y480959*
X383546Y481414*
X383858Y482096*
Y482550*
X383546Y483232*
X382608Y483686*
X381046Y483914*
X380108*
X378546Y483686*
X377608Y483232*
X377296Y482550*
Y482096*
X379483Y485959D02*
X383858D01*
X380733D02*
X379796Y486641D01*
X379483Y487096*
Y487777*
X379796Y488232*
X380733Y488459*
X383858*
X380733D02*
X379796Y489141D01*
X379483Y489596*
Y490277*
X379796Y490732*
X380733Y490959*
X383858*
X379483Y493005D02*
X383858D01*
X380733D02*
X379796Y493686D01*
X379483Y494141*
Y494823*
X379796Y495277*
X380733Y495505*
X383858*
X380733D02*
X379796Y496186D01*
X379483Y496641*
Y497323*
X379796Y497777*
X380733Y498005*
X383858*
G54D163*
X566929Y566929D02*
X566932D01*
X393701D02*
X393703D01*
X393701Y393701D02*
X393703D01*
X393701Y566929D02*
X393703D01*
G74*
X0Y0D02*
M02*
