%
T1C.00984F0S0
X040748Y042618
X041142Y042717
X041437Y042717
X041437Y043012
X041437Y043307
X039665Y043898
X041142Y043996
X040846Y043996
X04065Y044488
X041339Y044488
X041142Y045079
X041437Y045079
X039665Y045472
X041299Y045492
X040945Y045669
X041535Y045866
X041732Y045866
X041929Y045866
X041161Y046024
X039665Y046654
X040256Y046752
X039665Y047244
X040748Y047244
X041161Y047657
X041516Y048307
X040748Y048524
X041161Y049724
X041614Y049862
X040846Y049902
X041535Y050492
X040748Y050492
X042126Y050728
X041339Y051476
X040846Y052067
X039665Y053543
X039665Y054429
X039764Y056299
X042618Y054803
X042303Y054134
X042323Y052244
X043602Y052185
X042421Y051772
X042894Y051594
X043602Y051378
X043287Y050787
X044626Y050551
X043307Y050394
X043307Y049508
X044508Y049508
X0425Y04937
X043504Y049311
X044311Y049311
X04439Y048819
X044587Y048524
X043189Y048386
X044252Y048307
X043012Y047835
X044193Y047441
X044587Y047421
X043209Y047283
X043406Y047047
X043898Y046929
X043602Y046791
X044193Y046555
X043898Y046555
X043307Y046358
X043898Y04626
X044193Y04626
X043307Y046063
X042972Y045866
X042697Y045866
X042421Y045866
X043602Y045669
X042244Y045335
X042461Y045335
X042677Y045335
X043602Y045138
X042244Y045118
X042677Y045118
X042461Y045118
X04311Y044291
X043898Y044291
X042323Y044291
X044193Y044094
X044193Y043799
X042323Y043799
X042323Y04311
X042638Y04311
X042638Y042815
X042638Y042559
X042323Y042323
X042638Y042283
X042323Y041634
X044291Y041339
X042323Y040748
X04439Y039764
X042323Y039764
X043209Y039764
X045669Y039764
X046772Y042894
X045768Y042913
X046063Y042913
X045768Y043209
X044783Y044291
X045472Y044291
X045965Y044291
X046752Y044685
X047047Y045669
X046752Y045669
X04626Y045965
X046555Y045965
X047047Y045965
X047146Y046752
X04685Y046752
X04498Y047146
X045787Y04811
X046142Y04811
X045374Y04813
X044961Y04813
X044882Y048425
X045079Y048622
X045472Y049016
X046063Y049016
X046358Y049055
X046831Y049409
X046594Y049803
X045728Y049862
X046358Y051398
X045748Y051594
X04687Y051929
X044882Y052067
X045472Y052067
X046752Y052264
X045079Y053445
X047146Y053445
X049016Y053346
X047539Y052264
X048819Y052264
X049508Y052264
X047461Y051929
X047717Y051594
X049508Y051575
X048819Y051575
X048327Y051398
X048563Y050571
X048091Y050295
X047382Y047913
X049114Y047776
X049449Y04689
X047441Y046457
X049213Y046102
X047638Y045965
X047638Y045177
X048228Y04498
X04935Y044941
X049587Y044941
X049114Y044941
X04813Y044291
X048228Y042913
X047992Y042913
X049331Y042913
X048228Y042677
X047992Y042677
X049016Y042539
X050689Y039764
X050295Y040059
X05187Y040157
X050295Y040551
X05187Y040551
X051673Y042323
X050295Y042323
X049705Y042323
X050295Y042913
X051673Y04311
X050886Y044291
X050295Y044291
X051575Y04439
X050492Y044882
X05Y044882
X050886Y045098
X051614Y045492
X05063Y04565
X05Y045669
X050118Y046083
X050394Y046634
X051476Y04687
X051909Y047776
X05002Y047795
X050394Y047835
X050531Y048071
X050394Y048327
X051929Y049232
X049941Y049449
X050217Y049449
X050886Y049508
X051575Y049705
X05128Y049705
X049665Y049705
X050531Y050571
X051378Y051575
X050787Y051575
X050787Y052264
X051378Y052264
X053248Y056299
X054232Y056299
X05315Y055118
X05374Y054331
X054134Y053642
X05315Y05315
X054035Y052756
X052756Y052264
X054528Y051969
X052657Y051575
X053248Y051575
X05374Y05128
X054134Y05128
X0525Y050571
X054193Y050551
X053051Y049626
X054626Y049606
X053051Y049409
X054331Y049134
X052264Y048957
X053366Y048858
X054528Y04872
X052913Y048583
X054232Y047835
X053445Y047835
X052697Y047618
X052165Y047539
X053642Y047146
X052559Y046752
X054134Y046654
X05374Y045669
X052854Y045492
X054498Y045157
X053327Y044902
X052657Y044291
X053445Y044291
X053937Y043701
X054528Y043602
X053937Y04311
X053445Y043012
X053937Y042323
X053445Y041831
X053445Y040846
X052264Y039764
X053445Y039764
X05502Y042323
X056299Y042323
X055217Y042913
X055709Y043012
X055217Y043307
X055413Y043799
X056398Y043799
X054921Y043898
X055709Y044587
X055315Y04498
X054921Y045276
X056398Y045374
X054921Y045866
X055217Y04626
X055315Y047441
X055315Y048327
X054724Y048327
X056299Y049803
X055413Y049902
X054921Y050295
X056299Y050492
X05502Y051969
X056299Y051969
X056299Y052854
X054724Y05315
X056299Y05374
X056299Y054429
X056299Y056299
T2C.01575F095S3
X046161Y039961
X046161Y040354
X046161Y040748
X042126Y047815
X04248Y047815
X049409Y040453
X048622Y040453
X049016Y040453
T3C.02165F197S55
X049459Y045669
X048967Y045669
X048474Y045669
X047982Y045669
T4C.0315F197S55
X055512Y050787
X055512Y051575
X055512Y052362
X055512Y05315
T5C.03937F197S55
X043406Y040748
X043406Y041732
X043406Y042717
X040157Y042988
X043406Y043701
X040157Y043988
X040157Y044988
X040157Y045988
X045079Y042717
X050984Y042717
X050984Y041732
X045079Y041732
X045079Y040748
X050984Y040748
X052657Y040748
X052657Y041732
X052657Y042717
X052657Y043701
X055906Y046138
X055906Y047138
X055906Y048138
X055906Y049138
T6C.04331F139S55
X040157Y047894
X040157Y048894
X040157Y049894
X040157Y050894
X040157Y051894
X041732Y052157
X040157Y052894
X041732Y053157
X044531Y055913
X043531Y055913
X044531Y054913
X043531Y054913
X044531Y053913
X043531Y053913
X044531Y052913
X043531Y052913
X046531Y052913
X045531Y052913
X046531Y053913
X045531Y053913
X046531Y054913
X045531Y054913
X046531Y055913
X045531Y055913
X048531Y055913
X047531Y055913
X049531Y055913
X049531Y054913
X048531Y054913
X047531Y054913
X049531Y053913
X047531Y053913
X048531Y053913
X049531Y052913
X048531Y052913
X047531Y052913
X051531Y052913
X050531Y052913
X051531Y053913
X050531Y053913
X050531Y054913
X051531Y054913
X050531Y055913
X051531Y055913
X052531Y055913
X052531Y054913
X052531Y053913
X052531Y052913
T7C.15748F035S9
X040945Y040945
X040945Y055118
X055118Y055118
X055118Y040945
M30
