*
*
G04 PADS Layout (Build Number 2006.45.1) generated Gerber (RS-274-X) file*
G04 PC Version=2.1*
*
%IN "SENSORXEL_REVF(191008)-"*%
*
%MOIN*%
*
%FSLAX35Y35*%
*
*
*
*
G04 PC Standard Apertures*
*
*
G04 Thermal Relief Aperture macro.*
%AMTER*
1,1,$1,0,0*
1,0,$1-$2,0,0*
21,0,$3,$4,0,0,45*
21,0,$3,$4,0,0,135*
%
*
*
G04 Annular Aperture macro.*
%AMANN*
1,1,$1,0,0*
1,0,$2,0,0*
%
*
*
G04 Odd Aperture macro.*
%AMODD*
1,1,$1,0,0*
1,0,$1-0.005,0,0*
%
*
*
G04 PC Custom Aperture Macros*
*
*
*
*
*
*
G04 PC Aperture Table*
*
%ADD010C,0.00394*%
%ADD026C,0.01181*%
%ADD027C,0.0315*%
%ADD031C,0.06693*%
%ADD033R,0.06299X0.06299*%
%ADD054C,0.06299*%
%ADD067C,0.01969*%
%ADD070C,0.03543*%
%ADD141R,0.05512X0.05512*%
*
*
*
*
G04 PC Custom Flashes*
G04 Layer Name SENSORXEL_REVF(191008)- - flashes*
%LPD*%
*
*
G04 PC Circuitry*
G04 Layer Name SENSORXEL_REVF(191008)- - circuitry*
%LPD*%
*
G54D10*
G01X531102Y407480D02*
G75*
G03X531102I-4527J0D01*
G01Y417323D02*
G03X531102I-4527J0D01*
G01X438583Y437008D02*
G03X438583I-4528J0D01*
G01X455315Y417323D02*
G03X455315I-4528J0D01*
G01X491831Y425394D02*
G03X491831I-1674J0D01*
G01X514370Y407480D02*
G03X514370I-4527J0D01*
G01Y417323D02*
G03X514370I-4527J0D01*
G01X558760Y445866D02*
G03X558760I-1673J0D01*
G01X562402Y471378D02*
G03X562402I-3347J0D01*
G01Y481378D02*
G03X562402I-3347J0D01*
G01Y491378D02*
G03X562402I-3347J0D01*
G01X553839Y429134D02*
G03X553839I-1674J0D01*
G01X558071Y515748D02*
G03X558071I-2953J0D01*
G01Y523622D02*
G03X558071I-2953J0D01*
G01Y531496D02*
G03X558071I-2953J0D01*
G01X546949Y436024D02*
G03X546949I-1673J0D01*
G01X546654Y451575D02*
G03X546654I-1674J0D01*
G01X546949Y487205D02*
G03X546949I-1673J0D01*
G01X544980Y491339D02*
G03X544980I-1673J0D01*
G01X543602Y505512D02*
G03X543602I-1673J0D01*
G01X543012Y512795D02*
G03X543012I-1673J0D01*
G01X563189Y551181D02*
G03X563189I-12008J0D01*
G01X539075Y512795D02*
G03X539075I-1673J0D01*
G01X535335Y488583D02*
G03X535335I-1674J0D01*
G01X530217Y454921D02*
G03X530217I-1674J0D01*
G01X530807Y485827D02*
G03X530807I-1673J0D01*
G01X523327Y475394D02*
G03X523327I-1673J0D01*
G01X526673Y505709D02*
G03X526673I-1673J0D01*
G01X528661Y529134D02*
G03X528661I-3346J0D01*
G01Y539134D02*
G03X528661I-3346J0D01*
G01Y549134D02*
G03X528661I-3346J0D01*
G01X520768Y477756D02*
G03X520768I-1674J0D01*
G01X520965Y492323D02*
G03X520965I-1674J0D01*
G01X529843Y559134D02*
G03X529843I-4528J0D01*
G01X518661Y529134D02*
G03X518661I-3346J0D01*
G01Y539134D02*
G03X518661I-3346J0D01*
G01Y549134D02*
G03X518661I-3346J0D01*
G01X519843Y559134D02*
G03X519843I-4528J0D01*
G01X510532Y450984D02*
G03X510532I-1674J0D01*
G01X507972Y456496D02*
G03X507972I-1673J0D01*
G01X505610Y466339D02*
G03X505610I-1673J0D01*
G01X506988Y505709D02*
G03X506988I-1673J0D01*
G01X508661Y529134D02*
G03X508661I-3346J0D01*
G01Y539134D02*
G03X508661I-3346J0D01*
G01Y549134D02*
G03X508661I-3346J0D01*
G01X509843Y559134D02*
G03X509843I-4528J0D01*
G01X496161Y468898D02*
G03X496161I-1673J0D01*
G01X498661Y529134D02*
G03X498661I-3346J0D01*
G01Y539134D02*
G03X498661I-3346J0D01*
G01Y549134D02*
G03X498661I-3346J0D01*
G01X499843Y559134D02*
G03X499843I-4528J0D01*
G01X487303Y505709D02*
G03X487303I-1673J0D01*
G01X484941Y513976D02*
G03X484941I-1673J0D01*
G01X488661Y529134D02*
G03X488661I-3346J0D01*
G01Y539134D02*
G03X488661I-3346J0D01*
G01Y549134D02*
G03X488661I-3346J0D01*
G01X489843Y559134D02*
G03X489843I-4528J0D01*
G01X476083Y464567D02*
G03X476083I-1674J0D01*
G01X475492Y479134D02*
G03X475492I-1673J0D01*
G01X478839Y515945D02*
G03X478839I-1674J0D01*
G01X478661Y529134D02*
G03X478661I-3346J0D01*
G01Y539134D02*
G03X478661I-3346J0D01*
G01Y549134D02*
G03X478661I-3346J0D01*
G01X479843Y559134D02*
G03X479843I-4528J0D01*
G01X463091Y481102D02*
G03X463091I-1674J0D01*
G01X465256Y490551D02*
G03X465256I-1673J0D01*
G01X467618Y498031D02*
G03X467618I-1673J0D01*
G01X465256Y513976D02*
G03X465256I-1673J0D01*
G01X468661Y529134D02*
G03X468661I-3346J0D01*
G01Y539134D02*
G03X468661I-3346J0D01*
G01Y549134D02*
G03X468661I-3346J0D01*
G01X469843Y559134D02*
G03X469843I-4528J0D01*
G01X459154Y515945D02*
G03X459154I-1674J0D01*
G01X447539Y474213D02*
G03X447539I-1673J0D01*
G01X458661Y529134D02*
G03X458661I-3346J0D01*
G01Y539134D02*
G03X458661I-3346J0D01*
G01Y549134D02*
G03X458661I-3346J0D01*
G01X459843Y559134D02*
G03X459843I-4528J0D01*
G01X444193Y483071D02*
G03X444193I-1673J0D01*
G01X447933Y505512D02*
G03X447933I-1673J0D01*
G01X448661Y529134D02*
G03X448661I-3346J0D01*
G01Y539134D02*
G03X448661I-3346J0D01*
G01Y549134D02*
G03X448661I-3346J0D01*
G01X449843Y559134D02*
G03X449843I-4528J0D01*
G01X437697Y451378D02*
G03X437697I-1673J0D01*
G01Y513780D02*
G03X437697I-1673J0D01*
G01X438661Y529134D02*
G03X438661I-3346J0D01*
G01Y539134D02*
G03X438661I-3346J0D01*
G01Y549134D02*
G03X438661I-3346J0D01*
G01X439843Y559134D02*
G03X439843I-4528J0D01*
G01X430610Y515945D02*
G03X430610I-1673J0D01*
G01X426673Y493701D02*
G03X426673I-1673J0D01*
G01X427854Y548031D02*
G03X427854I-1673J0D01*
G01X422933Y507283D02*
G03X422933I-1673J0D01*
G01X414665Y454921D02*
G03X414665I-1673J0D01*
G01X413287Y460236D02*
G03X413287I-1673J0D01*
G01Y476575D02*
G03X413287I-1673J0D01*
G01Y497244D02*
G03X413287I-1673J0D01*
G01X422047Y521575D02*
G03X422047I-4724J0D01*
G01Y531575D02*
G03X422047I-4724J0D01*
G01X404921Y429882D02*
G03X404921I-3346J0D01*
G01X406102Y439882D02*
G03X406102I-4527J0D01*
G01X404921Y449882D02*
G03X404921I-3346J0D01*
G01Y459882D02*
G03X404921I-3346J0D01*
G01X406299Y478937D02*
G03X406299I-4724J0D01*
G01Y488937D02*
G03X406299I-4724J0D01*
G01Y498937D02*
G03X406299I-4724J0D01*
G01Y508937D02*
G03X406299I-4724J0D01*
G01Y518937D02*
G03X406299I-4724J0D01*
G01Y528937D02*
G03X406299I-4724J0D01*
G01X421457Y551181D02*
G03X421457I-12008J0D01*
G01X535236Y397638D02*
Y442913D01*
G03X533465Y444685I-1771J0*
G01X423228*
G03X421457Y442913I0J-1772*
G01Y409471*
Y409426D02*
G03Y409471I-12008J23D01*
G01Y409426D02*
Y397638D01*
G03X423228Y395866I1771J-0*
G01X533465*
G03X535236Y397638I-0J1772*
G01X564764Y423228D02*
Y562992D01*
G03X562992Y564764I-1772J0*
G01X397638*
G03X395866Y562992I-0J-1772*
G01Y423228*
G03X397638Y421457I1772J0*
G01X409426*
X409471D02*
G03X409426I-22J-12008D01*
G01X409471D02*
X417323D01*
G03X419094Y423228I-0J1771*
G01Y444882*
X421260Y447047D02*
G03X419094Y444882I-0J-2165D01*
G01X421260Y447047D02*
X465858D01*
X469181D02*
G03X465858I-1661J-197D01*
G01X469181D02*
X535433D01*
X537598Y444882D02*
G03X535433Y447047I-2165J-0D01*
G01X537598Y444882D02*
Y423228D01*
G03X539370Y421457I1772J0*
G01X551159*
X551204D02*
G03X551159I-23J-12008D01*
G01X551204D02*
X562992D01*
G03X564764Y423228I0J1771*
G01X531102Y407480D02*
G03X531102I-4527J0D01*
G01Y417323D02*
G03X531102I-4527J0D01*
G01X522099Y436324D02*
G03X525842Y441476I4476J684D01*
G01X522099Y436324D02*
X521674Y437008D01*
X519516*
X519517Y437007D02*
X519517D01*
X524513Y432011*
X526201Y431677*
X522063Y427539D02*
G03X526201Y431677I4512J-374D01*
G01X522063Y427539D02*
X521729Y429227D01*
X516733Y434223*
G03X516664Y434252I-69J-69*
G01X505540*
X505541Y434251D02*
X505540Y434252D01*
X505541Y434251D02*
X505541D01*
X507780Y432011*
X509469Y431677*
X505330Y427539D02*
G03X509469Y431677I4513J-374D01*
G01X505330Y427539D02*
X504997Y429227D01*
X502757Y431467*
G03X502687Y431496I-70J-69*
G01X477628*
G03X477558Y431467I-0J-98*
G01X455633Y409542*
X455300Y407854*
X451161Y411992D02*
G03X455300Y407854I-374J-4512D01*
G01X451161Y411992D02*
X452849Y412326D01*
X467788Y427265*
X469388Y428865D02*
G03X467788Y427265I-1671J72D01*
G01X469388Y428865D02*
X474774Y434251D01*
X474774*
X474775Y434252D02*
X450659D01*
G03X450590Y434223I0J-98*
G01X446682Y430316*
G03X446654Y430246I70J-70*
G01Y429012*
Y425319D02*
G03Y429012I4133J1846D01*
G01Y425319D02*
Y424675D01*
X445472Y421822D02*
G03X446654Y424675I-2854J2853D01*
G01X445472Y421822D02*
X445472D01*
X440186Y416536*
X440186*
X438327Y415479D02*
G03X440186Y416536I-994J3911D01*
G01X438327Y415479D02*
X438015Y415127D01*
X430709Y414273D02*
G03X438015Y415127I3346J3050D01*
G01X430709Y414273D02*
Y413651D01*
G03X430738Y413582I98J0*
G01X430738*
X431993Y412326*
X433681Y411992*
X429543Y407854D02*
G03X433681Y411992I4512J-374D01*
G01X429543Y407854D02*
X429209Y409542D01*
X427954Y410798*
X426772Y413651D02*
G03X427954Y410798I4035J0D01*
G01X426772Y413651D02*
Y419419D01*
X427954Y422273D02*
G03X426772Y419419I2853J-2854D01*
G01X427954Y422273D02*
X427954D01*
X428514Y422834*
X428514*
X430837Y423981D02*
G03X428514Y422834I531J-4001D01*
G01X437837Y424676D02*
G03X430837Y423981I-3782J2489D01*
G01X437837Y424676D02*
X439341Y426180D01*
G03X439370Y426250I-69J70*
G01Y430837*
X440552Y433690D02*
G03X439370Y430837I2854J-2853D01*
G01X440552Y433690D02*
X440552D01*
X446625Y439763*
X446625*
X449478Y440945D02*
G03X446625Y439763I0J-4036D01*
G01X449478Y440945D02*
X522607D01*
X525842Y441476*
X438583Y437008D02*
G03X438583I-4528J0D01*
G01X455315Y417323D02*
G03X455315I-4528J0D01*
G01X492126Y404518D02*
G03Y404537I1968J10D01*
G01X488189Y404518D02*
G03X492126I1968J10D01*
G01X488189Y404537D02*
G03Y404518I-1969J-9D01*
G01X492126Y404537D02*
G03X488189I-1969J-9D01*
G01X491831Y425394D02*
G03X491831I-1674J0D01*
G01X514370Y407480D02*
G03X514370I-4527J0D01*
G01Y417323D02*
G03X514370I-4527J0D01*
G01X558760Y445866D02*
G03X558760I-1673J0D01*
G01X563583Y464528D02*
Y458228D01*
X562205Y456850D02*
G03X563583Y458228I-0J1378D01*
G01X562205Y456850D02*
X555906D01*
X554528Y458228D02*
G03X555906Y456850I1378J0D01*
G01X554528Y458228D02*
Y464528D01*
X555906Y465906D02*
G03X554528Y464528I-0J-1378D01*
G01X555906Y465906D02*
X562205D01*
X563583Y464528D02*
G03X562205Y465906I-1378J-0D01*
G01X562402Y471378D02*
G03X562402I-3347J0D01*
G01Y481378D02*
G03X562402I-3347J0D01*
G01Y491378D02*
G03X562402I-3347J0D01*
G01X553839Y429134D02*
G03X553839I-1674J0D01*
G01X559252Y510630D02*
Y505118D01*
X557874Y503740D02*
G03X559252Y505118I0J1378D01*
G01X557874Y503740D02*
X552362D01*
X550984Y505118D02*
G03X552362Y503740I1378J0D01*
G01X550984Y505118D02*
Y510630D01*
X552362Y512008D02*
G03X550984Y510630I0J-1378D01*
G01X552362Y512008D02*
X557874D01*
X559252Y510630D02*
G03X557874Y512008I-1378J-0D01*
G01X558071Y515748D02*
G03X558071I-2953J0D01*
G01Y523622D02*
G03X558071I-2953J0D01*
G01Y531496D02*
G03X558071I-2953J0D01*
G01X546949Y436024D02*
G03X546949I-1673J0D01*
G01X546654Y451575D02*
G03X546654I-1674J0D01*
G01X546949Y487205D02*
G03X546949I-1673J0D01*
G01X544980Y491339D02*
G03X544980I-1673J0D01*
G01X543602Y505512D02*
G03X543602I-1673J0D01*
G01X543012Y512795D02*
G03X543012I-1673J0D01*
G01X563189Y551181D02*
G03X563189I-12008J0D01*
G01X539075Y512795D02*
G03X539075I-1673J0D01*
G01X535335Y488583D02*
G03X535335I-1674J0D01*
G01X530217Y454921D02*
G03X530217I-1674J0D01*
G01X530807Y485827D02*
G03X530807I-1673J0D01*
G01X523327Y475394D02*
G03X523327I-1673J0D01*
G01X526673Y505709D02*
G03X526673I-1673J0D01*
G01X528661Y529134D02*
G03X528661I-3346J0D01*
G01Y539134D02*
G03X528661I-3346J0D01*
G01Y549134D02*
G03X528661I-3346J0D01*
G01X520768Y477756D02*
G03X520768I-1674J0D01*
G01X520965Y492323D02*
G03X520965I-1674J0D01*
G01X529843Y559134D02*
G03X529843I-4528J0D01*
G01X518661Y529134D02*
G03X518661I-3346J0D01*
G01Y539134D02*
G03X518661I-3346J0D01*
G01Y549134D02*
G03X518661I-3346J0D01*
G01X519843Y559134D02*
G03X519843I-4528J0D01*
G01X510532Y450984D02*
G03X510532I-1674J0D01*
G01X507972Y456496D02*
G03X507972I-1673J0D01*
G01X505610Y466339D02*
G03X505610I-1673J0D01*
G01X505459Y479042D02*
G03X505356Y482381I-144J1667D01*
G01X503793Y480013D02*
G03X505459Y479042I144J-1667D01*
G01X503896Y481595D02*
G03X503793Y480013I1419J-886D01*
G01X505356Y482381D02*
G03X503896Y481595I-1419J887D01*
G01X497736Y459646D02*
Y453740D01*
X497539Y453543D02*
G03X497736Y453740I0J197D01*
G01X497539Y453543D02*
X491634D01*
X491437Y453740D02*
G03X491634Y453543I197J0D01*
G01X491437Y453740D02*
Y454089D01*
X487205Y454727D02*
G03X491437Y454089I2460J1966D01*
G01X482283Y454727D02*
G03X487205I2461J1966D01*
G01X482283Y458659D02*
G03Y454727I-2460J-1966D01*
G01X487205Y458659D02*
G03X482283I-2461J-1966D01*
G01X491437Y459297D02*
G03X487205Y458659I-1772J-2604D01*
G01X491437Y459297D02*
Y459646D01*
X491634Y459843D02*
G03X491437Y459646I-0J-197D01*
G01X491634Y459843D02*
X497539D01*
X497736Y459646D02*
G03X497539Y459843I-197J-0D01*
G01X500787Y493539D02*
G03Y495437I1378J949D01*
Y493539I-1378J-949*
G01X506988Y505709D02*
G03X506988I-1673J0D01*
G01X508661Y529134D02*
G03X508661I-3346J0D01*
G01Y539134D02*
G03X508661I-3346J0D01*
G01Y549134D02*
G03X508661I-3346J0D01*
G01X509843Y559134D02*
G03X509843I-4528J0D01*
G01X496161Y468898D02*
G03X496161I-1673J0D01*
G01X498661Y529134D02*
G03X498661I-3346J0D01*
G01Y539134D02*
G03X498661I-3346J0D01*
G01Y549134D02*
G03X498661I-3346J0D01*
G01X499843Y559134D02*
G03X499843I-4528J0D01*
G01X487303Y505709D02*
G03X487303I-1673J0D01*
G01X484941Y513976D02*
G03X484941I-1673J0D01*
G01X488661Y529134D02*
G03X488661I-3346J0D01*
G01Y539134D02*
G03X488661I-3346J0D01*
G01Y549134D02*
G03X488661I-3346J0D01*
G01X489843Y559134D02*
G03X489843I-4528J0D01*
G01X476083Y464567D02*
G03X476083I-1674J0D01*
G01X475492Y479134D02*
G03X475492I-1673J0D01*
G01X478839Y515945D02*
G03X478839I-1674J0D01*
G01X478661Y529134D02*
G03X478661I-3346J0D01*
G01Y539134D02*
G03X478661I-3346J0D01*
G01Y549134D02*
G03X478661I-3346J0D01*
G01X479843Y559134D02*
G03X479843I-4528J0D01*
G01X463091Y481102D02*
G03X463091I-1674J0D01*
G01X465256Y490551D02*
G03X465256I-1673J0D01*
G01X467618Y498031D02*
G03X467618I-1673J0D01*
G01X465256Y513976D02*
G03X465256I-1673J0D01*
G01X468661Y529134D02*
G03X468661I-3346J0D01*
G01Y539134D02*
G03X468661I-3346J0D01*
G01Y549134D02*
G03X468661I-3346J0D01*
G01X469843Y559134D02*
G03X469843I-4528J0D01*
G01X459154Y515945D02*
G03X459154I-1674J0D01*
G01X447539Y474213D02*
G03X447539I-1673J0D01*
G01X450460Y484580D02*
G03X449147Y485893I327J1640D01*
X450460Y484580I-328J-1641*
G01X458661Y529134D02*
G03X458661I-3346J0D01*
G01Y539134D02*
G03X458661I-3346J0D01*
G01Y549134D02*
G03X458661I-3346J0D01*
G01X459843Y559134D02*
G03X459843I-4528J0D01*
G01X444193Y483071D02*
G03X444193I-1673J0D01*
G01X444751Y493438D02*
G03X443438Y494751I328J1641D01*
X444751Y493438I-328J-1641*
G01X447933Y505512D02*
G03X447933I-1673J0D01*
G01X448661Y529134D02*
G03X448661I-3346J0D01*
G01Y539134D02*
G03X448661I-3346J0D01*
G01Y549134D02*
G03X448661I-3346J0D01*
G01X449843Y559134D02*
G03X449843I-4528J0D01*
G01X437697Y451378D02*
G03X437697I-1673J0D01*
G01X434690Y468924D02*
G03X435388Y469461I1334J-1011D01*
G01X432564Y471231D02*
G03X434690Y468924I1491J-759D01*
G01X433578Y472076D02*
G03X432564Y471231I-1491J759D01*
G01X435388Y469461D02*
G03X433578Y472076I-1333J1011D01*
G01X433399Y493438D02*
G03X434712Y494751I1640J-328D01*
X433399Y493438I-1641J328*
G01X437697Y513780D02*
G03X437697I-1673J0D01*
G01X438661Y529134D02*
G03X438661I-3346J0D01*
G01Y539134D02*
G03X438661I-3346J0D01*
G01Y549134D02*
G03X438661I-3346J0D01*
G01X439843Y559134D02*
G03X439843I-4528J0D01*
G01X428047Y452264D02*
G03X425689Y454622I-1275J1082D01*
G01Y449905D02*
G03X428047Y452264I1083J1276D01*
G01X423524Y449905D02*
G03X425689I1082J1276D01*
G01X421165Y452264D02*
G03X423524Y449905I1276J-1083D01*
G01Y454622D02*
G03X421165Y452264I-1083J-1276D01*
G01X425689Y454622D02*
G03X423524I-1083J-1276D01*
G01X430610Y515945D02*
G03X430610I-1673J0D01*
G01X423031Y477292D02*
G03Y479008I1772J858D01*
Y477292I-1771J-858*
G01X426673Y493701D02*
G03X426673I-1673J0D01*
G01X427854Y548031D02*
G03X427854I-1673J0D01*
G01X422933Y507283D02*
G03X422933I-1673J0D01*
G01X414665Y454921D02*
G03X414665I-1673J0D01*
G01X413287Y460236D02*
G03X413287I-1673J0D01*
G01Y476575D02*
G03X413287I-1673J0D01*
G01Y497244D02*
G03X413287I-1673J0D01*
G01X422047Y521575D02*
G03X422047I-4724J0D01*
G01Y531575D02*
G03X422047I-4724J0D01*
G01X404921Y429882D02*
G03X404921I-3346J0D01*
G01X406102Y439882D02*
G03X406102I-4527J0D01*
G01X404921Y449882D02*
G03X404921I-3346J0D01*
G01Y459882D02*
G03X404921I-3346J0D01*
G01X406299Y478937D02*
G03X406299I-4724J0D01*
G01Y488937D02*
G03X406299I-4724J0D01*
G01Y498937D02*
G03X406299I-4724J0D01*
G01Y508937D02*
G03X406299I-4724J0D01*
G01Y518937D02*
G03X406299I-4724J0D01*
G01Y528937D02*
G03X406299I-4724J0D01*
G01X421457Y551181D02*
G03X421457I-12008J0D01*
G01Y442636D02*
X535236D01*
X421457Y442282D02*
X535236D01*
X421457Y441928D02*
X535236D01*
X421457Y441573D02*
X535236D01*
X528237Y441219D02*
X535236D01*
X528946Y440865D02*
X535236D01*
X529444Y440510D02*
X535236D01*
X529829Y440156D02*
X535236D01*
X530137Y439802D02*
X535236D01*
X530389Y439448D02*
X535236D01*
X530594Y439093D02*
X535236D01*
X530758Y438739D02*
X535236D01*
X530888Y438385D02*
X535236D01*
X530985Y438030D02*
X535236D01*
X531053Y437676D02*
X535236D01*
X531092Y437322D02*
X535236D01*
X531102Y436967D02*
X535236D01*
X531085Y436613D02*
X535236D01*
X531040Y436259D02*
X535236D01*
X530966Y435904D02*
X535236D01*
X530861Y435550D02*
X535236D01*
X530724Y435196D02*
X535236D01*
X530550Y434841D02*
X535236D01*
X530336Y434487D02*
X535236D01*
X530072Y434133D02*
X535236D01*
X529748Y433778D02*
X535236D01*
X529341Y433424D02*
X535236D01*
X528808Y433070D02*
X535236D01*
X528014Y432715D02*
X535236D01*
X524163Y432361D02*
X535236D01*
X524537Y432007D02*
X535236D01*
X527181Y431652D02*
X535236D01*
X528424Y431298D02*
X535236D01*
X529070Y430944D02*
X535236D01*
X529537Y430589D02*
X535236D01*
X529903Y430235D02*
X535236D01*
X530198Y429881D02*
X535236D01*
X530438Y429526D02*
X535236D01*
X530633Y429172D02*
X535236D01*
X530790Y428818D02*
X535236D01*
X530912Y428463D02*
X535236D01*
X531003Y428109D02*
X535236D01*
X531064Y427755D02*
X535236D01*
X531096Y427400D02*
X535236D01*
X531101Y427046D02*
X535236D01*
X531078Y426692D02*
X535236D01*
X531026Y426337D02*
X535236D01*
X530945Y425983D02*
X535236D01*
X530834Y425629D02*
X535236D01*
X530689Y425274D02*
X535236D01*
X530506Y424920D02*
X535236D01*
X530282Y424566D02*
X535236D01*
X530006Y424211D02*
X535236D01*
X529666Y423857D02*
X535236D01*
X529236Y423503D02*
X535236D01*
X528663Y423148D02*
X535236D01*
X527754Y422794D02*
X535236D01*
X468531Y422440D02*
X535236D01*
X468176Y422085D02*
X535236D01*
X527608Y421731D02*
X535236D01*
X528591Y421377D02*
X535236D01*
X529185Y421022D02*
X535236D01*
X529626Y420668D02*
X535236D01*
X529974Y420314D02*
X535236D01*
X530256Y419959D02*
X535236D01*
X530485Y419605D02*
X535236D01*
X530671Y419251D02*
X535236D01*
X530820Y418896D02*
X535236D01*
X530935Y418542D02*
X535236D01*
X531019Y418188D02*
X535236D01*
X531074Y417833D02*
X535236D01*
X531100Y417479D02*
X535236D01*
X531098Y417125D02*
X535236D01*
X531069Y416770D02*
X535236D01*
X531011Y416416D02*
X535236D01*
X530923Y416062D02*
X535236D01*
X530804Y415707D02*
X535236D01*
X530651Y415353D02*
X535236D01*
X530460Y414999D02*
X535236D01*
X530225Y414644D02*
X535236D01*
X529937Y414290D02*
X535236D01*
X529579Y413936D02*
X535236D01*
X529124Y413581D02*
X535236D01*
X528504Y413227D02*
X535236D01*
X527409Y412873D02*
X535236D01*
X458609Y412518D02*
X535236D01*
X458255Y412164D02*
X535236D01*
X527900Y411810D02*
X535236D01*
X528742Y411455D02*
X535236D01*
X529293Y411101D02*
X535236D01*
X529710Y410747D02*
X535236D01*
X530042Y410392D02*
X535236D01*
X530311Y410038D02*
X535236D01*
X530530Y409684D02*
X535236D01*
X530708Y409329D02*
X535236D01*
X530849Y408975D02*
X535236D01*
X530956Y408621D02*
X535236D01*
X531034Y408266D02*
X535236D01*
X531082Y407912D02*
X535236D01*
X531102Y407558D02*
X535236D01*
X531094Y407203D02*
X535236D01*
X531058Y406849D02*
X535236D01*
X530994Y406495D02*
X535236D01*
X530900Y406140D02*
X535236D01*
X530773Y405786D02*
X535236D01*
X530612Y405432D02*
X535236D01*
X530412Y405077D02*
X535236D01*
X530166Y404723D02*
X535236D01*
X529864Y404369D02*
X535236D01*
X529488Y404014D02*
X535236D01*
X529005Y403660D02*
X535236D01*
X528328Y403306D02*
X535236D01*
X495274Y402951D02*
X535236D01*
X494480Y402597D02*
X535236D01*
X421457Y402243D02*
X535236D01*
X421457Y401888D02*
X535236D01*
X421457Y401534D02*
X535236D01*
X421457Y401180D02*
X535236D01*
X421457Y400825D02*
X535236D01*
X421457Y400471D02*
X535236D01*
X421457Y400117D02*
X535236D01*
X421457Y399762D02*
X535236D01*
X421457Y399408D02*
X535236D01*
X421457Y399054D02*
X535236D01*
X421457Y398699D02*
X535236D01*
X421457Y398345D02*
X535236D01*
X421457Y397991D02*
X535236D01*
X421457Y397636D02*
X535236D01*
X421458Y442991D02*
X535235D01*
X421493Y397282D02*
X535200D01*
X421510Y443345D02*
X535183D01*
X421605Y396928D02*
X535088D01*
X421641Y443699D02*
X535052D01*
X421812Y396573D02*
X534881D01*
X421873Y444054D02*
X534820D01*
X422167Y396219D02*
X534526D01*
X422277Y444408D02*
X534416D01*
X510676Y412873D02*
X525741D01*
X510876Y421731D02*
X525542D01*
X511021Y422794D02*
X525396D01*
X511167Y411810D02*
X525250D01*
X523809Y432715D02*
X525135D01*
X511595Y403306D02*
X524822D01*
X511772Y413227D02*
X524645D01*
X511859Y421377D02*
X524558D01*
X511931Y423148D02*
X524486D01*
X512010Y411455D02*
X524407D01*
X523455Y433070D02*
X524341D01*
X435718Y441219D02*
X524278D01*
X512273Y403660D02*
X524145D01*
X512392Y413581D02*
X524025D01*
X512453Y421022D02*
X523965D01*
X512504Y423503D02*
X523913D01*
X512561Y411101D02*
X523856D01*
X523100Y433424D02*
X523808D01*
X512756Y404014D02*
X523662D01*
X512847Y413936D02*
X523570D01*
X512894Y420668D02*
X523524D01*
X512933Y423857D02*
X523484D01*
X512978Y410747D02*
X523440D01*
X522746Y433778D02*
X523402D01*
X513131Y404369D02*
X523286D01*
X513204Y414290D02*
X523213D01*
X513242Y420314D02*
X523176D01*
X513274Y424211D02*
X523144D01*
X513309Y410392D02*
X523108D01*
X522392Y434133D02*
X523077D01*
X513434Y404723D02*
X522984D01*
X513493Y414644D02*
X522924D01*
X513523Y419959D02*
X522894D01*
X513549Y424566D02*
X522868D01*
X513578Y410038D02*
X522839D01*
X522037Y434487D02*
X522814D01*
X513680Y405077D02*
X522737D01*
X513728Y414999D02*
X522689D01*
X513753Y419605D02*
X522664D01*
X513774Y424920D02*
X522643D01*
X513798Y409684D02*
X522620D01*
X521683Y434841D02*
X522599D01*
X513880Y405432D02*
X522537D01*
X513919Y415353D02*
X522498D01*
X513939Y419251D02*
X522478D01*
X513956Y425274D02*
X522461D01*
X513975Y409329D02*
X522442D01*
X521329Y435196D02*
X522426D01*
X514041Y405786D02*
X522376D01*
X514072Y415707D02*
X522345D01*
X514088Y418896D02*
X522329D01*
X514101Y425629D02*
X522316D01*
X514116Y408975D02*
X522301D01*
X520974Y435550D02*
X522288D01*
X514167Y406140D02*
X522250D01*
X514191Y416062D02*
X522226D01*
X514203Y418542D02*
X522214D01*
X514213Y425983D02*
X522204D01*
X514224Y408621D02*
X522193D01*
X520620Y435904D02*
X522184D01*
X514262Y406495D02*
X522156D01*
X514278Y416416D02*
X522139D01*
X514287Y418188D02*
X522131D01*
X514294Y426337D02*
X522124D01*
X514301Y408266D02*
X522116D01*
X520266Y436259D02*
X522110D01*
X514326Y406849D02*
X522091D01*
X514336Y416770D02*
X522081D01*
X514341Y417833D02*
X522076D01*
X514345Y426692D02*
X522072D01*
X514349Y407912D02*
X522068D01*
X514362Y407203D02*
X522056D01*
X514364Y427400D02*
X522053D01*
X514366Y417125D02*
X522052D01*
X514367Y417479D02*
X522050D01*
X514369Y427046D02*
X522049D01*
X514369Y407558D02*
X522048D01*
X514332Y427755D02*
X522020D01*
X514271Y428109D02*
X521950D01*
X519911Y436613D02*
X521919D01*
X514180Y428463D02*
X521880D01*
X514058Y428818D02*
X521810D01*
X513901Y429172D02*
X521740D01*
X519557Y436967D02*
X521699D01*
X513706Y429526D02*
X521430D01*
X513466Y429881D02*
X521076D01*
X513171Y430235D02*
X520721D01*
X512805Y430589D02*
X520367D01*
X512337Y430944D02*
X520013D01*
X511692Y431298D02*
X519658D01*
X510448Y431652D02*
X519304D01*
X507805Y432007D02*
X518950D01*
X507431Y432361D02*
X518595D01*
X507077Y432715D02*
X518241D01*
X506722Y433070D02*
X517887D01*
X506368Y433424D02*
X517532D01*
X506014Y433778D02*
X517178D01*
X505659Y434133D02*
X516824D01*
X458964Y412873D02*
X509009D01*
X467822Y421731D02*
X508809D01*
X468885Y422794D02*
X508664D01*
X457901Y411810D02*
X508518D01*
X495638Y403306D02*
X508090D01*
X459318Y413227D02*
X507913D01*
X467468Y421377D02*
X507826D01*
X469239Y423148D02*
X507754D01*
X457546Y411455D02*
X507675D01*
X495862Y403660D02*
X507413D01*
X459672Y413581D02*
X507293D01*
X467113Y421022D02*
X507232D01*
X469594Y423503D02*
X507181D01*
X457192Y411101D02*
X507124D01*
X495995Y404014D02*
X506929D01*
X460027Y413936D02*
X506838D01*
X466759Y420668D02*
X506791D01*
X490819Y423857D02*
X506752D01*
X456838Y410747D02*
X506707D01*
X496057Y404369D02*
X506554D01*
X460381Y414290D02*
X506481D01*
X466405Y420314D02*
X506443D01*
X491341Y424211D02*
X506411D01*
X456483Y410392D02*
X506376D01*
X496053Y404723D02*
X506251D01*
X460735Y414644D02*
X506192D01*
X466050Y419959D02*
X506162D01*
X491611Y424566D02*
X506136D01*
X456129Y410038D02*
X506107D01*
X495985Y405077D02*
X506005D01*
X461090Y414999D02*
X505957D01*
X465696Y419605D02*
X505932D01*
X491762Y424920D02*
X505911D01*
X455775Y409684D02*
X505887D01*
X495843Y405432D02*
X505805D01*
X461444Y415353D02*
X505766D01*
X465342Y419251D02*
X505746D01*
X491826Y425274D02*
X505729D01*
X455591Y409329D02*
X505710D01*
X495608Y405786D02*
X505644D01*
X461798Y415707D02*
X505613D01*
X464987Y418896D02*
X505597D01*
X491814Y425629D02*
X505584D01*
X455521Y408975D02*
X505569D01*
X495223Y406140D02*
X505518D01*
X462153Y416062D02*
X505494D01*
X464633Y418542D02*
X505482D01*
X491724Y425983D02*
X505472D01*
X455451Y408621D02*
X505461D01*
X494167Y406495D02*
X505424D01*
X462507Y416416D02*
X505407D01*
X464279Y418188D02*
X505398D01*
X491539Y426337D02*
X505391D01*
X455381Y408266D02*
X505384D01*
X455271Y406849D02*
X505359D01*
X462861Y416770D02*
X505349D01*
X463924Y417833D02*
X505344D01*
X491214Y426692D02*
X505340D01*
X455311Y407912D02*
X505336D01*
X455307Y407203D02*
X505323D01*
X473491Y427400D02*
X505321D01*
X463216Y417125D02*
X505319D01*
X463570Y417479D02*
X505318D01*
X490422Y427046D02*
X505317D01*
X455314Y407558D02*
X505316D01*
X473846Y427755D02*
X505288D01*
X474200Y428109D02*
X505218D01*
X474554Y428463D02*
X505148D01*
X474909Y428818D02*
X505078D01*
X475263Y429172D02*
X505008D01*
X475617Y429526D02*
X504698D01*
X475972Y429881D02*
X504343D01*
X476326Y430235D02*
X503989D01*
X476680Y430589D02*
X503635D01*
X477035Y430944D02*
X503280D01*
X477389Y431298D02*
X502926D01*
X490230Y406495D02*
X494022D01*
X490543Y402597D02*
X493709D01*
X491286Y406140D02*
X492966D01*
X491337Y402951D02*
X492915D01*
X491671Y405786D02*
X492581D01*
X491701Y403306D02*
X492551D01*
X491906Y405432D02*
X492346D01*
X491925Y403660D02*
X492327D01*
X492048Y405077D02*
X492204D01*
X492058Y404014D02*
X492194D01*
X492116Y404723D02*
X492136D01*
X492120Y404369D02*
X492132D01*
X486293Y406495D02*
X490085D01*
X473137Y427046D02*
X489893D01*
X486606Y402597D02*
X489772D01*
X469948Y423857D02*
X489496D01*
X472783Y426692D02*
X489101D01*
X487349Y406140D02*
X489029D01*
X487400Y402951D02*
X488978D01*
X470302Y424211D02*
X488974D01*
X472428Y426337D02*
X488776D01*
X470657Y424566D02*
X488704D01*
X487734Y405786D02*
X488644D01*
X487764Y403306D02*
X488614D01*
X472074Y425983D02*
X488591D01*
X471011Y424920D02*
X488553D01*
X471720Y425629D02*
X488501D01*
X471365Y425274D02*
X488488D01*
X487969Y405432D02*
X488409D01*
X487988Y403660D02*
X488390D01*
X488111Y405077D02*
X488267D01*
X488121Y404014D02*
X488257D01*
X488179Y404723D02*
X488199D01*
X488183Y404369D02*
X488195D01*
X455206Y406495D02*
X486148D01*
X421457Y402597D02*
X485835D01*
X455112Y406140D02*
X485092D01*
X421457Y402951D02*
X485041D01*
X454986Y405786D02*
X484707D01*
X452540Y403306D02*
X484677D01*
X454825Y405432D02*
X484472D01*
X453217Y403660D02*
X484453D01*
X454625Y405077D02*
X484330D01*
X453701Y404014D02*
X484320D01*
X454379Y404723D02*
X484262D01*
X454076Y404369D02*
X484258D01*
X450499Y434133D02*
X474656D01*
X450145Y433778D02*
X474301D01*
X449790Y433424D02*
X473947D01*
X449436Y433070D02*
X473593D01*
X449082Y432715D02*
X473238D01*
X448727Y432361D02*
X472884D01*
X448373Y432007D02*
X472530D01*
X451393Y431652D02*
X472175D01*
X452637Y431298D02*
X471821D01*
X453282Y430944D02*
X471467D01*
X467981Y430589D02*
X471112D01*
X468773Y430235D02*
X470758D01*
X469098Y429881D02*
X470404D01*
X469283Y429526D02*
X470049D01*
X469373Y429172D02*
X469695D01*
X455313Y427046D02*
X467569D01*
X453750Y430589D02*
X467452D01*
X455290Y426692D02*
X467215D01*
X455309Y427400D02*
X467055D01*
X455239Y426337D02*
X466860D01*
X454116Y430235D02*
X466660D01*
X455276Y427755D02*
X466533D01*
X455158Y425983D02*
X466506D01*
X454410Y429881D02*
X466335D01*
X455216Y428109D02*
X466263D01*
X455046Y425629D02*
X466152D01*
X454651Y429526D02*
X466150D01*
X455125Y428463D02*
X466112D01*
X454846Y429172D02*
X466060D01*
X455003Y428818D02*
X466048D01*
X454901Y425274D02*
X465797D01*
X454719Y424920D02*
X465443D01*
X454494Y424566D02*
X465089D01*
X454219Y424211D02*
X464734D01*
X453878Y423857D02*
X464380D01*
X453449Y423503D02*
X464026D01*
X452876Y423148D02*
X463671D01*
X451966Y422794D02*
X463317D01*
X445978Y422440D02*
X462963D01*
X445713Y422085D02*
X462608D01*
X451821Y421731D02*
X462254D01*
X452804Y421377D02*
X461900D01*
X453398Y421022D02*
X461545D01*
X453838Y420668D02*
X461191D01*
X454187Y420314D02*
X460837D01*
X454468Y419959D02*
X460482D01*
X454698Y419605D02*
X460128D01*
X454884Y419251D02*
X459774D01*
X455033Y418896D02*
X459419D01*
X455148Y418542D02*
X459065D01*
X455232Y418188D02*
X458711D01*
X455286Y417833D02*
X458357D01*
X455312Y417479D02*
X458002D01*
X455311Y417125D02*
X457648D01*
X455281Y416770D02*
X457294D01*
X455223Y416416D02*
X456939D01*
X455136Y416062D02*
X456585D01*
X455017Y415707D02*
X456231D01*
X454864Y415353D02*
X455876D01*
X454673Y414999D02*
X455522D01*
X454438Y414644D02*
X455168D01*
X454149Y414290D02*
X454813D01*
X453792Y413936D02*
X454459D01*
X453337Y413581D02*
X454105D01*
X452717Y413227D02*
X453750D01*
X451621Y412873D02*
X453396D01*
X431801Y412518D02*
X453042D01*
X432814Y412164D02*
X452029D01*
X448019Y431652D02*
X450182D01*
X434889Y412873D02*
X449954D01*
X445381Y421731D02*
X449754D01*
X446188Y422794D02*
X449608D01*
X435380Y411810D02*
X449463D01*
X435808Y403306D02*
X449035D01*
X447664Y431298D02*
X448938D01*
X435985Y413227D02*
X448858D01*
X445027Y421377D02*
X448771D01*
X446354Y423148D02*
X448699D01*
X436426Y440865D02*
X448678D01*
X436223Y411455D02*
X448620D01*
X436485Y403660D02*
X448357D01*
X447310Y430944D02*
X448293D01*
X436605Y413581D02*
X448238D01*
X444672Y421022D02*
X448177D01*
X446479Y423503D02*
X448126D01*
X436773Y411101D02*
X448069D01*
X436968Y404014D02*
X447874D01*
X446956Y430589D02*
X447825D01*
X437059Y413936D02*
X447783D01*
X444318Y420668D02*
X447736D01*
X446570Y423857D02*
X447697D01*
X436924Y440510D02*
X447657D01*
X437190Y410747D02*
X447652D01*
X437344Y404369D02*
X447498D01*
X446654Y430235D02*
X447459D01*
X437417Y414290D02*
X447426D01*
X443964Y420314D02*
X447388D01*
X446627Y424211D02*
X447356D01*
X437522Y410392D02*
X447321D01*
X437646Y404723D02*
X447196D01*
X446654Y429881D02*
X447164D01*
X437705Y414644D02*
X447137D01*
X443609Y419959D02*
X447107D01*
X437309Y440156D02*
X447082D01*
X446652Y424566D02*
X447081D01*
X437791Y410038D02*
X447052D01*
X437892Y405077D02*
X446950D01*
X446654Y429526D02*
X446924D01*
X437941Y414999D02*
X446902D01*
X443255Y419605D02*
X446877D01*
X446654Y424920D02*
X446856D01*
X438010Y409684D02*
X446832D01*
X438093Y405432D02*
X446750D01*
X446654Y429172D02*
X446729D01*
X438215Y415353D02*
X446711D01*
X442901Y419251D02*
X446691D01*
X446654Y425274D02*
X446674D01*
X437618Y439802D02*
X446664D01*
X438188Y409329D02*
X446655D01*
X438254Y405786D02*
X446589D01*
X438983Y415707D02*
X446558D01*
X442546Y418896D02*
X446542D01*
X438329Y408975D02*
X446514D01*
X438380Y406140D02*
X446463D01*
X439615Y416062D02*
X446439D01*
X442192Y418542D02*
X446427D01*
X438437Y408621D02*
X446406D01*
X438474Y406495D02*
X446368D01*
X440061Y416416D02*
X446352D01*
X441838Y418188D02*
X446343D01*
X438514Y408266D02*
X446329D01*
X437869Y439448D02*
X446309D01*
X438538Y406849D02*
X446304D01*
X440420Y416770D02*
X446294D01*
X441483Y417833D02*
X446289D01*
X438562Y407912D02*
X446280D01*
X438574Y407203D02*
X446268D01*
X440775Y417125D02*
X446264D01*
X441129Y417479D02*
X446263D01*
X438582Y407558D02*
X446260D01*
X438074Y439093D02*
X445955D01*
X438239Y438739D02*
X445601D01*
X438368Y438385D02*
X445246D01*
X438466Y438030D02*
X444892D01*
X438533Y437676D02*
X444538D01*
X438572Y437322D02*
X444183D01*
X438583Y436967D02*
X443829D01*
X438565Y436613D02*
X443475D01*
X438520Y436259D02*
X443120D01*
X438446Y435904D02*
X442766D01*
X438342Y435550D02*
X442412D01*
X438204Y435196D02*
X442057D01*
X438031Y434841D02*
X441703D01*
X437816Y434487D02*
X441349D01*
X437552Y434133D02*
X440994D01*
X437228Y433778D02*
X440640D01*
X436822Y433424D02*
X440308D01*
X436289Y433070D02*
X440044D01*
X435495Y432715D02*
X439834D01*
X421457Y432361D02*
X439669D01*
X421457Y432007D02*
X439543D01*
X434661Y431652D02*
X439453D01*
X435905Y431298D02*
X439396D01*
X436550Y430944D02*
X439371D01*
X437018Y430589D02*
X439370D01*
X437383Y430235D02*
X439370D01*
X437678Y429881D02*
X439370D01*
X437918Y429526D02*
X439370D01*
X438114Y429172D02*
X439370D01*
X438270Y428818D02*
X439370D01*
X438393Y428463D02*
X439370D01*
X438483Y428109D02*
X439370D01*
X438544Y427755D02*
X439370D01*
X438577Y427400D02*
X439370D01*
X438581Y427046D02*
X439370D01*
X438558Y426692D02*
X439370D01*
X438506Y426337D02*
X439370D01*
X438426Y425983D02*
X439144D01*
X438314Y425629D02*
X438790D01*
X438169Y425274D02*
X438435D01*
X437987Y424920D02*
X438081D01*
X421457Y431652D02*
X433449D01*
X431447Y412873D02*
X433221D01*
X421457Y432715D02*
X432616D01*
X421457Y441219D02*
X432393D01*
X421457Y403306D02*
X432302D01*
X421457Y431298D02*
X432206D01*
X431092Y413227D02*
X432126D01*
X421457Y433070D02*
X431822D01*
X421457Y440865D02*
X431684D01*
X421457Y403660D02*
X431625D01*
X421457Y430944D02*
X431560D01*
X430738Y413581D02*
X431506D01*
X421457Y433424D02*
X431289D01*
X421457Y440510D02*
X431186D01*
X421457Y404014D02*
X431142D01*
X421457Y430589D02*
X431093D01*
X430709Y413936D02*
X431051D01*
X421457Y433778D02*
X430882D01*
X421457Y440156D02*
X430801D01*
X421457Y404369D02*
X430766D01*
X421457Y430235D02*
X430727D01*
X421457Y424211D02*
X430624D01*
X421457Y434133D02*
X430558D01*
X421457Y439802D02*
X430492D01*
X421457Y404723D02*
X430464D01*
X421457Y429881D02*
X430432D01*
X421457Y424566D02*
X430348D01*
X421457Y434487D02*
X430294D01*
X421457Y423857D02*
X430247D01*
X421457Y439448D02*
X430241D01*
X421457Y405077D02*
X430218D01*
X421457Y429526D02*
X430192D01*
X421457Y424920D02*
X430124D01*
X421457Y434841D02*
X430080D01*
X421457Y439093D02*
X430036D01*
X421457Y405432D02*
X430017D01*
X421457Y429172D02*
X429996D01*
X421457Y425274D02*
X429941D01*
X421457Y435196D02*
X429906D01*
X421457Y438739D02*
X429871D01*
X421457Y405786D02*
X429856D01*
X421457Y428818D02*
X429840D01*
X421457Y425629D02*
X429796D01*
X421457Y435550D02*
X429769D01*
X421457Y438385D02*
X429742D01*
X421457Y406140D02*
X429730D01*
X421457Y428463D02*
X429718D01*
X421457Y425983D02*
X429685D01*
X421457Y435904D02*
X429664D01*
X421457Y438030D02*
X429644D01*
X421457Y406495D02*
X429636D01*
X421457Y428109D02*
X429627D01*
X421457Y426337D02*
X429604D01*
X421457Y436259D02*
X429590D01*
X421457Y437676D02*
X429577D01*
X421457Y406849D02*
X429572D01*
X421457Y427755D02*
X429566D01*
X421457Y426692D02*
X429552D01*
X421457Y436613D02*
X429545D01*
X421457Y437322D02*
X429538D01*
X421457Y407203D02*
X429536D01*
X421457Y427400D02*
X429534D01*
X421457Y407912D02*
X429532D01*
X421457Y427046D02*
X429529D01*
X421457Y407558D02*
X429528D01*
X421457Y436967D02*
X429528D01*
X421457Y408266D02*
X429461D01*
X421457Y423503D02*
X429399D01*
X421457Y408621D02*
X429391D01*
X421457Y408975D02*
X429321D01*
X421457Y409329D02*
X429251D01*
X421457Y409684D02*
X429068D01*
X421457Y423148D02*
X428868D01*
X421457Y410038D02*
X428713D01*
X421457Y422794D02*
X428475D01*
X421457Y410392D02*
X428359D01*
X421457Y422440D02*
X428120D01*
X421457Y410747D02*
X428005D01*
X421457Y422085D02*
X427778D01*
X421457Y411101D02*
X427680D01*
X421457Y421731D02*
X427499D01*
X421457Y411455D02*
X427421D01*
X421457Y421377D02*
X427278D01*
X421457Y411810D02*
X427216D01*
X421457Y421022D02*
X427104D01*
X421457Y412164D02*
X427056D01*
X421457Y420668D02*
X426970D01*
X421457Y412518D02*
X426934D01*
X421457Y420314D02*
X426872D01*
X421457Y412873D02*
X426847D01*
X421457Y419959D02*
X426808D01*
X421457Y413227D02*
X426794D01*
X421457Y419605D02*
X426776D01*
X421457Y413581D02*
X426772D01*
X421457Y419251D02*
X426772D01*
X421457Y418896D02*
X426772D01*
X421457Y418542D02*
X426772D01*
X421457Y418188D02*
X426772D01*
X421457Y417833D02*
X426772D01*
X421457Y417479D02*
X426772D01*
X421457Y417125D02*
X426772D01*
X421457Y416770D02*
X426772D01*
X421457Y416416D02*
X426772D01*
X421457Y416062D02*
X426772D01*
X421457Y415707D02*
X426772D01*
X421457Y415353D02*
X426772D01*
X421457Y414999D02*
X426772D01*
X421457Y414644D02*
X426772D01*
X421457Y414290D02*
X426772D01*
X421457Y413936D02*
X426772D01*
X554082Y562833D02*
X564764D01*
X555249Y562479D02*
X564764D01*
X556124Y562125D02*
X564764D01*
X556843Y561770D02*
X564764D01*
X557461Y561416D02*
X564764D01*
X558005Y561062D02*
X564764D01*
X558491Y560707D02*
X564764D01*
X558931Y560353D02*
X564764D01*
X559332Y559999D02*
X564764D01*
X559699Y559644D02*
X564764D01*
X560037Y559290D02*
X564764D01*
X560349Y558936D02*
X564764D01*
X560638Y558581D02*
X564764D01*
X560904Y558227D02*
X564764D01*
X561152Y557873D02*
X564764D01*
X561381Y557518D02*
X564764D01*
X561592Y557164D02*
X564764D01*
X561788Y556810D02*
X564764D01*
X561969Y556455D02*
X564764D01*
X562135Y556101D02*
X564764D01*
X562287Y555747D02*
X564764D01*
X562426Y555392D02*
X564764D01*
X562553Y555038D02*
X564764D01*
X562667Y554684D02*
X564764D01*
X562769Y554329D02*
X564764D01*
X562859Y553975D02*
X564764D01*
X562939Y553621D02*
X564764D01*
X563007Y553266D02*
X564764D01*
X563064Y552912D02*
X564764D01*
X563110Y552558D02*
X564764D01*
X563145Y552203D02*
X564764D01*
X563170Y551849D02*
X564764D01*
X563185Y551495D02*
X564764D01*
X563189Y551140D02*
X564764D01*
X563182Y550786D02*
X564764D01*
X563166Y550432D02*
X564764D01*
X563138Y550077D02*
X564764D01*
X563100Y549723D02*
X564764D01*
X563051Y549369D02*
X564764D01*
X562992Y549014D02*
X564764D01*
X562921Y548660D02*
X564764D01*
X562840Y548306D02*
X564764D01*
X562747Y547951D02*
X564764D01*
X562642Y547597D02*
X564764D01*
X562525Y547243D02*
X564764D01*
X562395Y546888D02*
X564764D01*
X562253Y546534D02*
X564764D01*
X562098Y546180D02*
X564764D01*
X561929Y545825D02*
X564764D01*
X561745Y545471D02*
X564764D01*
X561545Y545117D02*
X564764D01*
X561330Y544762D02*
X564764D01*
X561097Y544408D02*
X564764D01*
X560845Y544054D02*
X564764D01*
X560573Y543699D02*
X564764D01*
X560280Y543345D02*
X564764D01*
X559962Y542991D02*
X564764D01*
X559618Y542636D02*
X564764D01*
X559243Y542282D02*
X564764D01*
X558834Y541928D02*
X564764D01*
X558384Y541573D02*
X564764D01*
X557886Y541219D02*
X564764D01*
X557326Y540865D02*
X564764D01*
X556688Y540510D02*
X564764D01*
X555939Y540156D02*
X564764D01*
X555015Y539802D02*
X564764D01*
X553733Y539448D02*
X564764D01*
X528661Y539093D02*
X564764D01*
X528638Y538739D02*
X564764D01*
X528576Y538385D02*
X564764D01*
X528474Y538030D02*
X564764D01*
X528327Y537676D02*
X564764D01*
X528128Y537322D02*
X564764D01*
X527865Y536967D02*
X564764D01*
X527516Y536613D02*
X564764D01*
X527027Y536259D02*
X564764D01*
X526191Y535904D02*
X564764D01*
X419876Y535550D02*
X564764D01*
X420358Y535196D02*
X564764D01*
X420736Y534841D02*
X564764D01*
X421043Y534487D02*
X564764D01*
X556448Y534133D02*
X564764D01*
X556992Y533778D02*
X564764D01*
X557355Y533424D02*
X564764D01*
X557617Y533070D02*
X564764D01*
X557807Y532715D02*
X564764D01*
X557941Y532361D02*
X564764D01*
X558026Y532007D02*
X564764D01*
X558067Y531652D02*
X564764D01*
X558064Y531298D02*
X564764D01*
X558019Y530944D02*
X564764D01*
X557928Y530589D02*
X564764D01*
X557788Y530235D02*
X564764D01*
X557590Y529881D02*
X564764D01*
X557318Y529526D02*
X564764D01*
X556939Y529172D02*
X564764D01*
X556361Y528818D02*
X564764D01*
X528594Y528463D02*
X564764D01*
X528501Y528109D02*
X564764D01*
X528364Y527755D02*
X564764D01*
X528177Y527400D02*
X564764D01*
X527930Y527046D02*
X564764D01*
X527603Y526692D02*
X564764D01*
X556278Y526337D02*
X564764D01*
X556892Y525983D02*
X564764D01*
X557284Y525629D02*
X564764D01*
X557565Y525274D02*
X564764D01*
X557770Y524920D02*
X564764D01*
X557916Y524566D02*
X564764D01*
X558011Y524211D02*
X564764D01*
X558062Y523857D02*
X564764D01*
X558068Y523503D02*
X564764D01*
X558033Y523148D02*
X564764D01*
X557952Y522794D02*
X564764D01*
X557824Y522440D02*
X564764D01*
X557639Y522085D02*
X564764D01*
X557386Y521731D02*
X564764D01*
X557036Y521377D02*
X564764D01*
X556518Y521022D02*
X564764D01*
X421959Y520668D02*
X564764D01*
X421876Y520314D02*
X564764D01*
X421762Y519959D02*
X564764D01*
X421617Y519605D02*
X564764D01*
X421436Y519251D02*
X564764D01*
X421215Y518896D02*
X564764D01*
X556073Y518542D02*
X564764D01*
X556782Y518188D02*
X564764D01*
X557209Y517833D02*
X564764D01*
X557510Y517479D02*
X564764D01*
X557730Y517125D02*
X564764D01*
X557888Y516770D02*
X564764D01*
X557994Y516416D02*
X564764D01*
X558054Y516062D02*
X564764D01*
X558071Y515707D02*
X564764D01*
X558044Y515353D02*
X564764D01*
X557974Y514999D02*
X564764D01*
X557857Y514644D02*
X564764D01*
X557686Y514290D02*
X564764D01*
X557449Y513936D02*
X564764D01*
X557124Y513581D02*
X564764D01*
X556655Y513227D02*
X564764D01*
X555790Y512873D02*
X564764D01*
X542989Y512518D02*
X564764D01*
X542888Y512164D02*
X564764D01*
X558586Y511810D02*
X564764D01*
X558977Y511455D02*
X564764D01*
X559169Y511101D02*
X564764D01*
X559247Y510747D02*
X564764D01*
X559252Y510392D02*
X564764D01*
X559252Y510038D02*
X564764D01*
X559252Y509684D02*
X564764D01*
X559252Y509329D02*
X564764D01*
X559252Y508975D02*
X564764D01*
X559252Y508621D02*
X564764D01*
X559252Y508266D02*
X564764D01*
X559252Y507912D02*
X564764D01*
X559252Y507558D02*
X564764D01*
X559252Y507203D02*
X564764D01*
X559252Y506849D02*
X564764D01*
X559252Y506495D02*
X564764D01*
X559252Y506140D02*
X564764D01*
X559252Y505786D02*
X564764D01*
X559252Y505432D02*
X564764D01*
X559251Y505077D02*
X564764D01*
X559194Y504723D02*
X564764D01*
X559030Y504369D02*
X564764D01*
X558699Y504014D02*
X564764D01*
X401687Y503660D02*
X564764D01*
X403373Y503306D02*
X564764D01*
X404066Y502951D02*
X564764D01*
X404562Y502597D02*
X564764D01*
X404950Y502243D02*
X564764D01*
X405264Y501888D02*
X564764D01*
X405521Y501534D02*
X564764D01*
X405733Y501180D02*
X564764D01*
X405905Y500825D02*
X564764D01*
X406043Y500471D02*
X564764D01*
X406150Y500117D02*
X564764D01*
X406227Y499762D02*
X564764D01*
X466896Y499408D02*
X564764D01*
X467270Y499054D02*
X564764D01*
X467479Y498699D02*
X564764D01*
X467588Y498345D02*
X564764D01*
X467618Y497991D02*
X564764D01*
X467571Y497636D02*
X564764D01*
X467441Y497282D02*
X564764D01*
X467203Y496928D02*
X564764D01*
X466766Y496573D02*
X564764D01*
X446303Y496219D02*
X564764D01*
X503116Y495865D02*
X564764D01*
X503490Y495510D02*
X564764D01*
X503699Y495156D02*
X564764D01*
X503809Y494802D02*
X564764D01*
X560388Y494448D02*
X564764D01*
X561011Y494093D02*
X564764D01*
X561427Y493739D02*
X564764D01*
X561733Y493385D02*
X564764D01*
X561965Y493030D02*
X564764D01*
X562140Y492676D02*
X564764D01*
X562266Y492322D02*
X564764D01*
X562349Y491967D02*
X564764D01*
X562393Y491613D02*
X564764D01*
X562399Y491259D02*
X564764D01*
X562368Y490904D02*
X564764D01*
X562298Y490550D02*
X564764D01*
X562186Y490196D02*
X564764D01*
X562028Y489841D02*
X564764D01*
X561816Y489487D02*
X564764D01*
X561536Y489133D02*
X564764D01*
X561162Y488778D02*
X564764D01*
X560628Y488424D02*
X564764D01*
X559559Y488070D02*
X564764D01*
X546869Y487715D02*
X564764D01*
X546942Y487361D02*
X564764D01*
X546937Y487007D02*
X564764D01*
X546855Y486652D02*
X564764D01*
X546682Y486298D02*
X564764D01*
X546375Y485944D02*
X564764D01*
X545711Y485589D02*
X564764D01*
X530699Y485235D02*
X564764D01*
X530514Y484881D02*
X564764D01*
X560190Y484526D02*
X564764D01*
X560897Y484172D02*
X564764D01*
X561346Y483818D02*
X564764D01*
X561672Y483463D02*
X564764D01*
X561919Y483109D02*
X564764D01*
X562105Y482755D02*
X564764D01*
X562242Y482400D02*
X564764D01*
X562334Y482046D02*
X564764D01*
X562387Y481692D02*
X564764D01*
X562401Y481337D02*
X564764D01*
X562378Y480983D02*
X564764D01*
X562317Y480629D02*
X564764D01*
X562214Y480274D02*
X564764D01*
X562067Y479920D02*
X564764D01*
X561868Y479566D02*
X564764D01*
X561606Y479211D02*
X564764D01*
X561256Y478857D02*
X564764D01*
X560767Y478503D02*
X564764D01*
X559932Y478148D02*
X564764D01*
X520767Y477794D02*
X564764D01*
X520738Y477440D02*
X564764D01*
X520627Y477085D02*
X564764D01*
X522659Y476731D02*
X564764D01*
X523008Y476377D02*
X564764D01*
X523204Y476022D02*
X564764D01*
X523304Y475668D02*
X564764D01*
X523325Y475314D02*
X564764D01*
X523269Y474959D02*
X564764D01*
X559941Y474605D02*
X564764D01*
X560772Y474251D02*
X564764D01*
X561259Y473896D02*
X564764D01*
X561608Y473542D02*
X564764D01*
X561870Y473188D02*
X564764D01*
X562069Y472833D02*
X564764D01*
X562215Y472479D02*
X564764D01*
X562317Y472125D02*
X564764D01*
X562379Y471770D02*
X564764D01*
X562401Y471416D02*
X564764D01*
X562387Y471062D02*
X564764D01*
X562334Y470707D02*
X564764D01*
X562241Y470353D02*
X564764D01*
X562104Y469999D02*
X564764D01*
X561918Y469644D02*
X564764D01*
X561670Y469290D02*
X564764D01*
X561343Y468936D02*
X564764D01*
X560893Y468581D02*
X564764D01*
X560182Y468227D02*
X564764D01*
X504605Y467873D02*
X564764D01*
X505124Y467518D02*
X564764D01*
X505392Y467164D02*
X564764D01*
X505543Y466810D02*
X564764D01*
X505606Y466455D02*
X564764D01*
X505593Y466101D02*
X564764D01*
X562847Y465747D02*
X564764D01*
X563278Y465392D02*
X564764D01*
X563485Y465038D02*
X564764D01*
X563574Y464684D02*
X564764D01*
X563583Y464329D02*
X564764D01*
X563583Y463975D02*
X564764D01*
X563583Y463621D02*
X564764D01*
X563583Y463266D02*
X564764D01*
X563583Y462912D02*
X564764D01*
X563583Y462558D02*
X564764D01*
X563583Y462203D02*
X564764D01*
X563583Y461849D02*
X564764D01*
X563583Y461495D02*
X564764D01*
X563583Y461140D02*
X564764D01*
X563583Y460786D02*
X564764D01*
X563583Y460432D02*
X564764D01*
X563583Y460077D02*
X564764D01*
X563583Y459723D02*
X564764D01*
X563583Y459369D02*
X564764D01*
X563583Y459014D02*
X564764D01*
X563583Y458660D02*
X564764D01*
X563583Y458306D02*
X564764D01*
X563555Y457951D02*
X564764D01*
X563430Y457597D02*
X564764D01*
X563168Y457243D02*
X564764D01*
X562526Y456888D02*
X564764D01*
X528989Y456534D02*
X564764D01*
X529646Y456180D02*
X564764D01*
X529951Y455825D02*
X564764D01*
X530124Y455471D02*
X564764D01*
X530205Y455117D02*
X564764D01*
X530209Y454762D02*
X564764D01*
X530136Y454408D02*
X564764D01*
X529974Y454054D02*
X564764D01*
X529687Y453699D02*
X564764D01*
X529105Y453345D02*
X564764D01*
X545872Y452991D02*
X564764D01*
X546274Y452636D02*
X564764D01*
X546497Y452282D02*
X564764D01*
X546616Y451928D02*
X564764D01*
X546654Y451573D02*
X564764D01*
X546615Y451219D02*
X564764D01*
X546495Y450865D02*
X564764D01*
X546271Y450510D02*
X564764D01*
X545868Y450156D02*
X564764D01*
X510042Y449802D02*
X564764D01*
X509520Y449448D02*
X564764D01*
X404827Y449093D02*
X564764D01*
X404720Y448739D02*
X564764D01*
X468188Y448385D02*
X564764D01*
X468706Y448030D02*
X564764D01*
X468975Y447676D02*
X564764D01*
X557912Y447322D02*
X564764D01*
X558347Y446967D02*
X564764D01*
X558584Y446613D02*
X564764D01*
X558713Y446259D02*
X564764D01*
X558759Y445904D02*
X564764D01*
X558730Y445550D02*
X564764D01*
X558620Y445196D02*
X564764D01*
X558409Y444841D02*
X564764D01*
X558034Y444487D02*
X564764D01*
X537598Y444133D02*
X564764D01*
X537598Y443778D02*
X564764D01*
X537598Y443424D02*
X564764D01*
X537598Y443070D02*
X564764D01*
X537598Y442715D02*
X564764D01*
X537598Y442361D02*
X564764D01*
X537598Y442007D02*
X564764D01*
X537598Y441652D02*
X564764D01*
X537598Y441298D02*
X564764D01*
X537598Y440944D02*
X564764D01*
X537598Y440589D02*
X564764D01*
X537598Y440235D02*
X564764D01*
X537598Y439881D02*
X564764D01*
X537598Y439526D02*
X564764D01*
X537598Y439172D02*
X564764D01*
X537598Y438818D02*
X564764D01*
X537598Y438463D02*
X564764D01*
X537598Y438109D02*
X564764D01*
X537598Y437755D02*
X564764D01*
X546227Y437400D02*
X564764D01*
X546600Y437046D02*
X564764D01*
X546810Y436692D02*
X564764D01*
X546919Y436337D02*
X564764D01*
X546948Y435983D02*
X564764D01*
X546902Y435629D02*
X564764D01*
X546772Y435274D02*
X564764D01*
X546533Y434920D02*
X564764D01*
X546097Y434566D02*
X564764D01*
X537598Y434211D02*
X564764D01*
X537598Y433857D02*
X564764D01*
X537598Y433503D02*
X564764D01*
X537598Y433148D02*
X564764D01*
X537598Y432794D02*
X564764D01*
X537598Y432440D02*
X564764D01*
X537598Y432085D02*
X564764D01*
X537598Y431731D02*
X564764D01*
X537598Y431377D02*
X564764D01*
X537598Y431022D02*
X564764D01*
X552833Y430668D02*
X564764D01*
X553352Y430314D02*
X564764D01*
X553621Y429959D02*
X564764D01*
X553771Y429605D02*
X564764D01*
X553835Y429251D02*
X564764D01*
X553822Y428896D02*
X564764D01*
X553730Y428542D02*
X564764D01*
X553545Y428188D02*
X564764D01*
X553218Y427833D02*
X564764D01*
X552413Y427479D02*
X564764D01*
X537598Y427125D02*
X564764D01*
X537598Y426770D02*
X564764D01*
X537598Y426416D02*
X564764D01*
X537598Y426062D02*
X564764D01*
X537598Y425707D02*
X564764D01*
X537598Y425353D02*
X564764D01*
X537598Y424999D02*
X564764D01*
X537598Y424644D02*
X564764D01*
X537598Y424290D02*
X564764D01*
X537598Y423936D02*
X564764D01*
X537598Y423581D02*
X564764D01*
X537598Y423227D02*
X564764D01*
X551360Y563188D02*
X564753D01*
X537634Y422873D02*
X564728D01*
X526348Y563542D02*
X564676D01*
X537747Y422518D02*
X564615D01*
X396114Y563896D02*
X564516D01*
X537954Y422164D02*
X564408D01*
X396391Y564251D02*
X564239D01*
X538309Y421810D02*
X564053D01*
X396905Y564605D02*
X563725D01*
X546708Y488070D02*
X558552D01*
X520721Y478148D02*
X558179D01*
X523129Y474605D02*
X558169D01*
X496021Y468227D02*
X557928D01*
X530187Y484526D02*
X557921D01*
X503838Y494448D02*
X557722D01*
X546422Y488424D02*
X557483D01*
X520592Y478503D02*
X557343D01*
X522876Y474251D02*
X557339D01*
X496131Y468581D02*
X557217D01*
X529381Y484172D02*
X557213D01*
X503791Y494093D02*
X557099D01*
X545845Y488778D02*
X556948D01*
X520354Y478857D02*
X556854D01*
X522400Y473896D02*
X556851D01*
X496161Y468936D02*
X556767D01*
X505517Y483818D02*
X556764D01*
X520183Y493739D02*
X556683D01*
X535242Y489133D02*
X556574D01*
X519920Y479211D02*
X556505D01*
X447399Y473542D02*
X556503D01*
X496115Y469290D02*
X556440D01*
X505599Y483463D02*
X556438D01*
X520585Y493385D02*
X556377D01*
X535069Y489487D02*
X556294D01*
X469125Y447322D02*
X556261D01*
X506537Y479566D02*
X556242D01*
X447189Y473188D02*
X556240D01*
X495986Y469644D02*
X556193D01*
X505603Y483109D02*
X556191D01*
X520808Y493030D02*
X556145D01*
X537598Y444487D02*
X556139D01*
X544054Y489841D02*
X556082D01*
X506791Y479920D02*
X556043D01*
X446813Y472833D02*
X556042D01*
X495748Y469999D02*
X556006D01*
X505530Y482755D02*
X556005D01*
X544313Y492676D02*
X555971D01*
X544529Y490196D02*
X555924D01*
X506931Y480274D02*
X555896D01*
X433722Y472479D02*
X555895D01*
X495314Y470353D02*
X555869D01*
X505368Y482400D02*
X555869D01*
X544661Y492322D02*
X555844D01*
X536016Y446967D02*
X555827D01*
X544783Y490550D02*
X555813D01*
X506986Y480629D02*
X555794D01*
X434319Y472125D02*
X555793D01*
X435712Y470707D02*
X555777D01*
X506321Y482046D02*
X555776D01*
X537598Y444841D02*
X555764D01*
X544858Y491967D02*
X555761D01*
X544923Y490904D02*
X555742D01*
X506966Y480983D02*
X555732D01*
X435111Y471770D02*
X555732D01*
X435621Y471062D02*
X555724D01*
X506669Y481692D02*
X555723D01*
X544958Y491613D02*
X555717D01*
X544978Y491259D02*
X555711D01*
X506866Y481337D02*
X555709D01*
X435437Y471416D02*
X555709D01*
X536734Y446613D02*
X555589D01*
X507926Y456888D02*
X555584D01*
X537576Y445196D02*
X555554D01*
X537104Y446259D02*
X555460D01*
X537493Y445550D02*
X555444D01*
X537342Y445904D02*
X555414D01*
X505502Y465747D02*
X555263D01*
X507797Y457243D02*
X554942D01*
X505317Y465392D02*
X554833D01*
X507559Y457597D02*
X554681D01*
X504990Y465038D02*
X554626D01*
X507125Y457951D02*
X554556D01*
X504184Y464684D02*
X554536D01*
X476066Y464329D02*
X554528D01*
X475975Y463975D02*
X554528D01*
X475789Y463621D02*
X554528D01*
X475462Y463266D02*
X554528D01*
X474657Y462912D02*
X554528D01*
X403584Y462558D02*
X554528D01*
X403985Y462203D02*
X554528D01*
X412060Y461849D02*
X554528D01*
X412717Y461495D02*
X554528D01*
X413022Y461140D02*
X554528D01*
X413194Y460786D02*
X554528D01*
X413276Y460432D02*
X554528D01*
X413280Y460077D02*
X554528D01*
X497720Y459723D02*
X554528D01*
X497736Y459369D02*
X554528D01*
X497736Y459014D02*
X554528D01*
X497736Y458660D02*
X554528D01*
X497736Y458306D02*
X554528D01*
X543010Y512873D02*
X554446D01*
X420945Y518542D02*
X554163D01*
X527153Y526337D02*
X553958D01*
X528646Y528818D02*
X553875D01*
X421295Y534133D02*
X553789D01*
X422015Y521022D02*
X553718D01*
X542955Y513227D02*
X553581D01*
X420616Y518188D02*
X553455D01*
X526442Y525983D02*
X553345D01*
X528661Y529172D02*
X553297D01*
X421502Y533778D02*
X553244D01*
X422043Y521377D02*
X553201D01*
X542816Y513581D02*
X553112D01*
X420208Y517833D02*
X553028D01*
X419749Y525629D02*
X552952D01*
X528638Y529526D02*
X552918D01*
X421670Y533424D02*
X552882D01*
X422045Y521731D02*
X552850D01*
X542563Y513936D02*
X552787D01*
X477833Y517479D02*
X552726D01*
X420261Y525274D02*
X552671D01*
X528577Y529881D02*
X552646D01*
X421805Y533070D02*
X552620D01*
X422020Y522085D02*
X552597D01*
X542091Y514290D02*
X552550D01*
X478352Y517125D02*
X552506D01*
X420659Y524920D02*
X552466D01*
X528475Y530235D02*
X552448D01*
X421908Y532715D02*
X552429D01*
X421967Y522440D02*
X552412D01*
X484802Y514644D02*
X552379D01*
X478621Y516770D02*
X552348D01*
X420980Y524566D02*
X552320D01*
X528328Y530589D02*
X552308D01*
X526201Y532361D02*
X552295D01*
X421887Y522794D02*
X552284D01*
X484592Y514999D02*
X552262D01*
X478771Y516416D02*
X552242D01*
X421243Y524211D02*
X552225D01*
X528130Y530944D02*
X552217D01*
X527031Y532007D02*
X552210D01*
X421778Y523148D02*
X552204D01*
X484219Y515353D02*
X552192D01*
X478835Y516062D02*
X552182D01*
X421460Y523857D02*
X552175D01*
X527868Y531298D02*
X552172D01*
X527519Y531652D02*
X552169D01*
X421636Y523503D02*
X552168D01*
X478822Y515707D02*
X552166D01*
X537598Y427479D02*
X551918D01*
X542691Y511810D02*
X551650D01*
X542676Y504014D02*
X551537D01*
X537598Y430668D02*
X551497D01*
X542341Y511455D02*
X551259D01*
X543151Y504369D02*
X551206D01*
X537598Y427833D02*
X551113D01*
X405774Y511101D02*
X551067D01*
X543405Y504723D02*
X551042D01*
X527331Y563188D02*
X551002D01*
X405939Y510747D02*
X550989D01*
X543545Y505077D02*
X550985D01*
X406069Y510392D02*
X550984D01*
X406169Y510038D02*
X550984D01*
X406240Y509684D02*
X550984D01*
X406283Y509329D02*
X550984D01*
X406299Y508975D02*
X550984D01*
X422266Y508621D02*
X550984D01*
X422614Y508266D02*
X550984D01*
X422811Y507912D02*
X550984D01*
X422910Y507558D02*
X550984D01*
X525752Y507203D02*
X550984D01*
X542935Y506849D02*
X550984D01*
X543283Y506495D02*
X550984D01*
X543480Y506140D02*
X550984D01*
X543580Y505786D02*
X550984D01*
X543600Y505432D02*
X550984D01*
X537598Y430314D02*
X550979D01*
X537598Y428188D02*
X550785D01*
X537598Y429959D02*
X550710D01*
X537598Y428542D02*
X550600D01*
X537598Y429605D02*
X550560D01*
X537598Y428896D02*
X550509D01*
X537598Y429251D02*
X550496D01*
X528647Y539448D02*
X548629D01*
X527925Y562833D02*
X548280D01*
X528594Y539802D02*
X547347D01*
X528366Y562479D02*
X547113D01*
X528501Y540156D02*
X546423D01*
X528714Y562125D02*
X546239D01*
X528365Y540510D02*
X545674D01*
X528996Y561770D02*
X545519D01*
X528179Y540865D02*
X545036D01*
X529225Y561416D02*
X544901D01*
X530790Y485589D02*
X544840D01*
X535323Y488778D02*
X544706D01*
X527932Y541219D02*
X544477D01*
X537598Y434566D02*
X544455D01*
X529412Y561062D02*
X544357D01*
X537598Y437400D02*
X544324D01*
X530803Y485944D02*
X544176D01*
X535327Y488424D02*
X544130D01*
X510312Y450156D02*
X544093D01*
X436469Y452991D02*
X544089D01*
X537598Y434920D02*
X544018D01*
X527606Y541573D02*
X543978D01*
X537598Y437046D02*
X543951D01*
X529560Y560707D02*
X543871D01*
X530739Y486298D02*
X543869D01*
X535254Y488070D02*
X543843D01*
X537598Y435274D02*
X543780D01*
X537598Y436692D02*
X543741D01*
X530589Y486652D02*
X543696D01*
X510463Y450510D02*
X543689D01*
X509123Y452636D02*
X543687D01*
X535092Y487715D02*
X543682D01*
X537598Y435629D02*
X543650D01*
X537598Y436337D02*
X543632D01*
X534223Y487007D02*
X543614D01*
X534805Y487361D02*
X543610D01*
X537598Y435983D02*
X543603D01*
X527157Y541928D02*
X543528D01*
X510527Y450865D02*
X543465D01*
X509914Y452282D02*
X543464D01*
X529675Y560353D02*
X543431D01*
X510515Y451219D02*
X543345D01*
X510240Y451928D02*
X543345D01*
X510424Y451573D02*
X543307D01*
X526449Y542282D02*
X543119D01*
X529759Y559999D02*
X543030D01*
X417886Y542636D02*
X542744D01*
X529814Y559644D02*
X542663D01*
X534764Y489841D02*
X542560D01*
X418230Y542991D02*
X542400D01*
X529840Y559290D02*
X542325D01*
X520927Y492676D02*
X542301D01*
X534107Y490196D02*
X542085D01*
X418548Y543345D02*
X542082D01*
X529838Y558936D02*
X542013D01*
X520965Y492322D02*
X541953D01*
X465256Y490550D02*
X541831D01*
X418841Y543699D02*
X541789D01*
X520926Y491967D02*
X541756D01*
X529809Y558581D02*
X541725D01*
X520179Y490904D02*
X541691D01*
X520806Y491613D02*
X541656D01*
X520582Y491259D02*
X541636D01*
X419113Y544054D02*
X541517D01*
X529751Y558227D02*
X541458D01*
X419364Y544408D02*
X541266D01*
X529663Y557873D02*
X541211D01*
X447007Y504014D02*
X541182D01*
X419597Y544762D02*
X541033D01*
X529545Y557518D02*
X540982D01*
X526224Y506849D02*
X540923D01*
X419813Y545117D02*
X540817D01*
X529392Y557164D02*
X540770D01*
X526002Y504369D02*
X540707D01*
X420012Y545471D02*
X540618D01*
X538154Y514290D02*
X540587D01*
X526477Y506495D02*
X540575D01*
X529200Y556810D02*
X540574D01*
X526352Y504723D02*
X540453D01*
X525818Y545825D02*
X540434D01*
X528965Y556455D02*
X540394D01*
X526617Y506140D02*
X540378D01*
X538404Y511455D02*
X540336D01*
X526550Y505077D02*
X540313D01*
X526671Y505786D02*
X540279D01*
X526887Y546180D02*
X540264D01*
X526650Y505432D02*
X540258D01*
X528677Y556101D02*
X540227D01*
X538626Y513936D02*
X540114D01*
X527422Y546534D02*
X540109D01*
X528319Y555747D02*
X540075D01*
X538754Y511810D02*
X539986D01*
X527796Y546888D02*
X539967D01*
X527865Y555392D02*
X539936D01*
X538879Y513581D02*
X539861D01*
X528076Y547243D02*
X539837D01*
X527245Y555038D02*
X539809D01*
X538951Y512164D02*
X539789D01*
X539018Y513227D02*
X539722D01*
X528288Y547597D02*
X539721D01*
X526149Y554684D02*
X539695D01*
X539052Y512518D02*
X539688D01*
X539073Y512873D02*
X539667D01*
X528446Y547951D02*
X539616D01*
X421037Y554329D02*
X539593D01*
X528557Y548306D02*
X539523D01*
X421127Y553975D02*
X539503D01*
X528628Y548660D02*
X539441D01*
X421206Y553621D02*
X539424D01*
X528659Y549014D02*
X539370D01*
X421274Y553266D02*
X539356D01*
X528653Y549369D02*
X539311D01*
X421331Y552912D02*
X539299D01*
X528609Y549723D02*
X539262D01*
X421378Y552558D02*
X539252D01*
X528526Y550077D02*
X539224D01*
X526648Y552203D02*
X539217D01*
X528399Y550432D02*
X539197D01*
X527271Y551849D02*
X539192D01*
X528225Y550786D02*
X539180D01*
X527687Y551495D02*
X539177D01*
X527993Y551140D02*
X539173D01*
X484911Y514290D02*
X536650D01*
X405572Y511455D02*
X536399D01*
X484940Y513936D02*
X536177D01*
X405326Y511810D02*
X536049D01*
X484894Y513581D02*
X535924D01*
X436459Y512164D02*
X535852D01*
X484764Y513227D02*
X535785D01*
X484089Y512518D02*
X535751D01*
X484525Y512873D02*
X535730D01*
X465218Y490196D02*
X533216D01*
X530320Y487007D02*
X533100D01*
X465098Y489841D02*
X532559D01*
X529802Y487361D02*
X532518D01*
X464874Y489487D02*
X532254D01*
X451539Y487715D02*
X532231D01*
X464470Y489133D02*
X532081D01*
X406219Y488070D02*
X532069D01*
X406297Y488778D02*
X532000D01*
X406271Y488424D02*
X531996D01*
X505345Y484172D02*
X528886D01*
X452012Y487361D02*
X528466D01*
X507972Y456534D02*
X528098D01*
X505040Y484526D02*
X528081D01*
X428445Y453345D02*
X527982D01*
X452265Y487007D02*
X527947D01*
X504382Y484881D02*
X527754D01*
X452404Y486652D02*
X527678D01*
X452140Y485235D02*
X527569D01*
X452459Y486298D02*
X527528D01*
X452337Y485589D02*
X527478D01*
X452438Y485944D02*
X527465D01*
X507942Y456180D02*
X527441D01*
X497732Y453699D02*
X527400D01*
X507832Y455825D02*
X527135D01*
X497736Y454054D02*
X527112D01*
X507622Y455471D02*
X526963D01*
X497736Y454408D02*
X526951D01*
X507247Y455117D02*
X526882D01*
X497736Y454762D02*
X526878D01*
X515818Y545825D02*
X524812D01*
X516149Y554684D02*
X524481D01*
X516191Y535904D02*
X524438D01*
X516201Y532361D02*
X524429D01*
X516348Y563542D02*
X524282D01*
X506067Y507203D02*
X524248D01*
X516442Y525983D02*
X524188D01*
X516449Y542282D02*
X524180D01*
X506317Y504369D02*
X523998D01*
X516648Y552203D02*
X523982D01*
X506539Y506849D02*
X523776D01*
X516887Y546180D02*
X523743D01*
X506667Y504723D02*
X523648D01*
X517027Y536259D02*
X523603D01*
X517031Y532007D02*
X523598D01*
X506792Y506495D02*
X523523D01*
X517153Y526337D02*
X523477D01*
X517157Y541928D02*
X523473D01*
X506865Y505077D02*
X523450D01*
X517245Y555038D02*
X523385D01*
X506932Y506140D02*
X523383D01*
X517271Y551849D02*
X523359D01*
X506965Y505432D02*
X523350D01*
X506986Y505786D02*
X523329D01*
X517331Y563188D02*
X523299D01*
X517422Y546534D02*
X523208D01*
X517516Y536613D02*
X523114D01*
X517519Y531652D02*
X523111D01*
X517603Y526692D02*
X523027D01*
X517606Y541573D02*
X523024D01*
X517687Y551495D02*
X522943D01*
X517796Y546888D02*
X522834D01*
X517865Y555392D02*
X522765D01*
X517865Y536967D02*
X522765D01*
X517868Y531298D02*
X522762D01*
X517925Y562833D02*
X522705D01*
X517930Y527046D02*
X522700D01*
X517932Y541219D02*
X522698D01*
X517993Y551140D02*
X522637D01*
X518076Y547243D02*
X522554D01*
X518128Y537322D02*
X522502D01*
X518130Y530944D02*
X522500D01*
X518177Y527400D02*
X522453D01*
X518179Y540865D02*
X522451D01*
X518225Y550786D02*
X522405D01*
X518288Y547597D02*
X522342D01*
X518319Y555747D02*
X522311D01*
X518327Y537676D02*
X522303D01*
X518328Y530589D02*
X522302D01*
X518364Y527755D02*
X522266D01*
X518365Y540510D02*
X522265D01*
X518366Y562479D02*
X522264D01*
X518399Y550432D02*
X522230D01*
X518446Y547951D02*
X522184D01*
X518474Y538030D02*
X522156D01*
X518475Y530235D02*
X522155D01*
X518501Y528109D02*
X522129D01*
X518501Y540156D02*
X522128D01*
X518526Y550077D02*
X522104D01*
X518557Y548306D02*
X522073D01*
X518576Y538385D02*
X522053D01*
X518577Y529881D02*
X522053D01*
X518594Y528463D02*
X522036D01*
X518594Y539802D02*
X522036D01*
X518609Y549723D02*
X522021D01*
X518628Y548660D02*
X522002D01*
X518638Y538739D02*
X521992D01*
X518638Y529526D02*
X521992D01*
X518646Y528818D02*
X521983D01*
X518647Y539448D02*
X521983D01*
X518653Y549369D02*
X521977D01*
X518659Y549014D02*
X521971D01*
X518661Y539093D02*
X521969D01*
X518661Y529172D02*
X521969D01*
X518677Y556101D02*
X521953D01*
X518714Y562125D02*
X521916D01*
X518965Y556455D02*
X521665D01*
X518996Y561770D02*
X521634D01*
X519200Y556810D02*
X521429D01*
X519225Y561416D02*
X521405D01*
X519392Y557164D02*
X521238D01*
X519412Y561062D02*
X521218D01*
X519545Y557518D02*
X521085D01*
X519560Y560707D02*
X521070D01*
X519663Y557873D02*
X520967D01*
X519675Y560353D02*
X520955D01*
X447509Y473896D02*
X520907D01*
X519751Y558227D02*
X520879D01*
X519759Y559999D02*
X520871D01*
X519809Y558581D02*
X520821D01*
X519814Y559644D02*
X520816D01*
X519838Y558936D02*
X520792D01*
X519840Y559290D02*
X520790D01*
X520417Y476731D02*
X520648D01*
X447539Y474251D02*
X520432D01*
X520042Y476377D02*
X520299D01*
X447493Y474605D02*
X520178D01*
X413194Y476022D02*
X520103D01*
X447364Y474959D02*
X520038D01*
X446692Y475668D02*
X520003D01*
X447126Y475314D02*
X519982D01*
X465218Y490904D02*
X518404D01*
X503661Y493739D02*
X518400D01*
X506062Y479211D02*
X518269D01*
X425659Y476377D02*
X518147D01*
X465099Y491259D02*
X518000D01*
X503423Y493385D02*
X517998D01*
X505530Y478857D02*
X517835D01*
X464876Y491613D02*
X517776D01*
X502986Y493030D02*
X517775D01*
X504373Y476731D02*
X517772D01*
X464474Y491967D02*
X517656D01*
X444726Y492676D02*
X517656D01*
X444586Y492322D02*
X517618D01*
X505603Y478503D02*
X517597D01*
X505037Y477085D02*
X517561D01*
X505598Y478148D02*
X517468D01*
X505343Y477440D02*
X517451D01*
X505516Y477794D02*
X517422D01*
X505818Y545825D02*
X514812D01*
X506149Y554684D02*
X514481D01*
X506191Y535904D02*
X514438D01*
X506201Y532361D02*
X514429D01*
X506348Y563542D02*
X514282D01*
X506442Y525983D02*
X514188D01*
X506449Y542282D02*
X514180D01*
X506648Y552203D02*
X513982D01*
X506887Y546180D02*
X513743D01*
X507027Y536259D02*
X513603D01*
X507031Y532007D02*
X513598D01*
X507153Y526337D02*
X513477D01*
X507157Y541928D02*
X513473D01*
X507245Y555038D02*
X513385D01*
X507271Y551849D02*
X513359D01*
X507331Y563188D02*
X513299D01*
X507422Y546534D02*
X513208D01*
X507516Y536613D02*
X513114D01*
X507519Y531652D02*
X513111D01*
X507603Y526692D02*
X513027D01*
X507606Y541573D02*
X513024D01*
X507687Y551495D02*
X512943D01*
X507796Y546888D02*
X512834D01*
X507865Y555392D02*
X512765D01*
X507865Y536967D02*
X512765D01*
X507868Y531298D02*
X512762D01*
X507925Y562833D02*
X512705D01*
X507930Y527046D02*
X512700D01*
X507932Y541219D02*
X512698D01*
X507993Y551140D02*
X512637D01*
X508076Y547243D02*
X512554D01*
X508128Y537322D02*
X512502D01*
X508130Y530944D02*
X512500D01*
X508177Y527400D02*
X512453D01*
X508179Y540865D02*
X512451D01*
X508225Y550786D02*
X512405D01*
X508288Y547597D02*
X512342D01*
X508319Y555747D02*
X512311D01*
X508327Y537676D02*
X512303D01*
X508328Y530589D02*
X512302D01*
X508364Y527755D02*
X512266D01*
X508365Y540510D02*
X512265D01*
X508366Y562479D02*
X512264D01*
X508399Y550432D02*
X512230D01*
X508446Y547951D02*
X512184D01*
X508474Y538030D02*
X512156D01*
X508475Y530235D02*
X512155D01*
X508501Y528109D02*
X512129D01*
X508501Y540156D02*
X512128D01*
X508526Y550077D02*
X512104D01*
X508557Y548306D02*
X512073D01*
X508576Y538385D02*
X512053D01*
X508577Y529881D02*
X512053D01*
X508594Y528463D02*
X512036D01*
X508594Y539802D02*
X512036D01*
X508609Y549723D02*
X512021D01*
X508628Y548660D02*
X512002D01*
X508638Y538739D02*
X511992D01*
X508638Y529526D02*
X511992D01*
X508646Y528818D02*
X511983D01*
X508647Y539448D02*
X511983D01*
X508653Y549369D02*
X511977D01*
X508659Y549014D02*
X511971D01*
X508661Y539093D02*
X511969D01*
X508661Y529172D02*
X511969D01*
X508677Y556101D02*
X511953D01*
X508714Y562125D02*
X511916D01*
X508965Y556455D02*
X511665D01*
X508996Y561770D02*
X511634D01*
X509200Y556810D02*
X511429D01*
X509225Y561416D02*
X511405D01*
X509392Y557164D02*
X511238D01*
X509412Y561062D02*
X511218D01*
X509545Y557518D02*
X511085D01*
X509560Y560707D02*
X511070D01*
X509663Y557873D02*
X510967D01*
X509675Y560353D02*
X510955D01*
X509751Y558227D02*
X510879D01*
X509759Y559999D02*
X510871D01*
X509809Y558581D02*
X510821D01*
X509814Y559644D02*
X510816D01*
X509838Y558936D02*
X510792D01*
X509840Y559290D02*
X510790D01*
X437126Y452636D02*
X508594D01*
X404893Y449448D02*
X508196D01*
X437432Y452282D02*
X507802D01*
X436585Y449802D02*
X507674D01*
X437604Y451928D02*
X507476D01*
X437167Y450156D02*
X507404D01*
X437685Y451573D02*
X507292D01*
X437454Y450510D02*
X507253D01*
X437689Y451219D02*
X507202D01*
X437616Y450865D02*
X507189D01*
X497736Y457951D02*
X505474D01*
X497736Y455117D02*
X505352D01*
X497736Y457597D02*
X505039D01*
X497736Y455471D02*
X504977D01*
X495818Y545825D02*
X504812D01*
X497736Y457243D02*
X504802D01*
X497736Y455825D02*
X504766D01*
X497736Y456888D02*
X504673D01*
X497736Y456180D02*
X504656D01*
X497736Y456534D02*
X504626D01*
X486382Y507203D02*
X504563D01*
X496149Y554684D02*
X504481D01*
X496191Y535904D02*
X504438D01*
X496201Y532361D02*
X504429D01*
X486632Y504369D02*
X504313D01*
X496348Y563542D02*
X504282D01*
X496442Y525983D02*
X504188D01*
X496449Y542282D02*
X504180D01*
X486854Y506849D02*
X504091D01*
X496648Y552203D02*
X503982D01*
X486982Y504723D02*
X503963D01*
X487107Y506495D02*
X503838D01*
X487180Y505077D02*
X503765D01*
X463074Y481337D02*
X503764D01*
X496887Y546180D02*
X503743D01*
X475043Y480274D02*
X503699D01*
X487247Y506140D02*
X503698D01*
X476079Y464684D02*
X503690D01*
X487280Y505432D02*
X503665D01*
X463086Y480983D02*
X503664D01*
X474571Y480629D02*
X503644D01*
X487301Y505786D02*
X503644D01*
X497027Y536259D02*
X503603D01*
X497031Y532007D02*
X503598D01*
X426168Y476731D02*
X503501D01*
X451790Y484881D02*
X503492D01*
X497153Y526337D02*
X503477D01*
X497157Y541928D02*
X503473D01*
X497245Y555038D02*
X503385D01*
X462983Y481692D02*
X503375D01*
X475296Y479920D02*
X503368D01*
X497271Y551849D02*
X503359D01*
X497331Y563188D02*
X503299D01*
X495811Y467873D02*
X503269D01*
X497422Y546534D02*
X503208D01*
X497516Y536613D02*
X503114D01*
X497519Y531652D02*
X503111D01*
X497603Y526692D02*
X503027D01*
X497606Y541573D02*
X503024D01*
X497687Y551495D02*
X502943D01*
X476015Y465038D02*
X502884D01*
X426459Y477085D02*
X502837D01*
X450470Y484526D02*
X502834D01*
X497796Y546888D02*
X502834D01*
X462799Y482046D02*
X502794D01*
X475435Y479566D02*
X502791D01*
X497865Y555392D02*
X502765D01*
X497865Y536967D02*
X502765D01*
X497868Y531298D02*
X502762D01*
X495435Y467518D02*
X502750D01*
X497925Y562833D02*
X502705D01*
X497930Y527046D02*
X502700D01*
X497932Y541219D02*
X502698D01*
X497993Y551140D02*
X502637D01*
X475865Y465392D02*
X502557D01*
X498076Y547243D02*
X502554D01*
X426639Y477440D02*
X502531D01*
X450490Y484172D02*
X502529D01*
X462473Y482400D02*
X502506D01*
X475490Y479211D02*
X502505D01*
X498128Y537322D02*
X502502D01*
X498130Y530944D02*
X502500D01*
X437520Y467164D02*
X502482D01*
X498177Y527400D02*
X502453D01*
X498179Y540865D02*
X502451D01*
X498225Y550786D02*
X502405D01*
X475596Y465747D02*
X502372D01*
X474821Y477794D02*
X502358D01*
X450435Y483818D02*
X502357D01*
X461682Y482755D02*
X502344D01*
X475469Y478857D02*
X502344D01*
X498288Y547597D02*
X502342D01*
X437281Y466810D02*
X502331D01*
X498319Y555747D02*
X502311D01*
X498327Y537676D02*
X502303D01*
X498328Y530589D02*
X502302D01*
X475077Y466101D02*
X502281D01*
X475171Y478148D02*
X502276D01*
X450295Y483463D02*
X502275D01*
X450041Y483109D02*
X502271D01*
X475369Y478503D02*
X502271D01*
X436845Y466455D02*
X502268D01*
X498364Y527755D02*
X502266D01*
X498365Y540510D02*
X502265D01*
X498366Y562479D02*
X502264D01*
X498399Y550432D02*
X502230D01*
X498446Y547951D02*
X502184D01*
X498474Y538030D02*
X502156D01*
X498475Y530235D02*
X502155D01*
X498501Y528109D02*
X502129D01*
X498501Y540156D02*
X502128D01*
X498526Y550077D02*
X502104D01*
X498557Y548306D02*
X502073D01*
X498576Y538385D02*
X502053D01*
X498577Y529881D02*
X502053D01*
X498594Y528463D02*
X502036D01*
X498594Y539802D02*
X502036D01*
X498609Y549723D02*
X502021D01*
X498628Y548660D02*
X502002D01*
X498638Y538739D02*
X501992D01*
X498638Y529526D02*
X501992D01*
X498646Y528818D02*
X501983D01*
X498647Y539448D02*
X501983D01*
X498653Y549369D02*
X501977D01*
X498659Y549014D02*
X501971D01*
X498661Y539093D02*
X501969D01*
X498661Y529172D02*
X501969D01*
X498677Y556101D02*
X501953D01*
X498714Y562125D02*
X501916D01*
X498965Y556455D02*
X501665D01*
X498996Y561770D02*
X501634D01*
X499200Y556810D02*
X501429D01*
X499225Y561416D02*
X501405D01*
X500230Y493030D02*
X501344D01*
X499392Y557164D02*
X501238D01*
X499412Y561062D02*
X501218D01*
X500361Y495865D02*
X501214D01*
X499545Y557518D02*
X501085D01*
X499560Y560707D02*
X501070D01*
X499663Y557873D02*
X500967D01*
X499675Y560353D02*
X500955D01*
X500667Y493385D02*
X500908D01*
X499751Y558227D02*
X500879D01*
X499759Y559999D02*
X500871D01*
X500734Y495510D02*
X500841D01*
X499809Y558581D02*
X500821D01*
X499814Y559644D02*
X500816D01*
X499838Y558936D02*
X500792D01*
X499840Y559290D02*
X500790D01*
X444782Y493030D02*
X498588D01*
X446556Y495865D02*
X498458D01*
X444761Y493385D02*
X498152D01*
X446695Y495510D02*
X498085D01*
X446081Y493739D02*
X497913D01*
X446750Y495156D02*
X497875D01*
X446431Y494093D02*
X497783D01*
X446729Y494802D02*
X497766D01*
X446628Y494448D02*
X497737D01*
X485818Y545825D02*
X494812D01*
X486149Y554684D02*
X494481D01*
X486191Y535904D02*
X494438D01*
X486201Y532361D02*
X494429D01*
X486348Y563542D02*
X494282D01*
X486442Y525983D02*
X494188D01*
X486449Y542282D02*
X494180D01*
X486648Y552203D02*
X493982D01*
X486887Y546180D02*
X493743D01*
X435724Y470353D02*
X493663D01*
X487027Y536259D02*
X493603D01*
X487031Y532007D02*
X493598D01*
X437650Y467518D02*
X493541D01*
X487153Y526337D02*
X493477D01*
X487157Y541928D02*
X493473D01*
X487245Y555038D02*
X493385D01*
X487271Y551849D02*
X493359D01*
X487331Y563188D02*
X493299D01*
X435660Y469999D02*
X493228D01*
X487422Y546534D02*
X493208D01*
X437696Y467873D02*
X493166D01*
X487516Y536613D02*
X493114D01*
X487519Y531652D02*
X493111D01*
X487603Y526692D02*
X493027D01*
X487606Y541573D02*
X493024D01*
X435509Y469644D02*
X492991D01*
X437667Y468227D02*
X492955D01*
X487687Y551495D02*
X492943D01*
X436975Y469290D02*
X492862D01*
X437558Y468581D02*
X492845D01*
X487796Y546888D02*
X492834D01*
X437348Y468936D02*
X492815D01*
X487865Y555392D02*
X492765D01*
X487865Y536967D02*
X492765D01*
X487868Y531298D02*
X492762D01*
X487925Y562833D02*
X492705D01*
X487930Y527046D02*
X492700D01*
X487932Y541219D02*
X492698D01*
X487993Y551140D02*
X492637D01*
X488076Y547243D02*
X492554D01*
X488128Y537322D02*
X492502D01*
X488130Y530944D02*
X492500D01*
X488177Y527400D02*
X492453D01*
X488179Y540865D02*
X492451D01*
X488225Y550786D02*
X492405D01*
X488288Y547597D02*
X492342D01*
X488319Y555747D02*
X492311D01*
X488327Y537676D02*
X492303D01*
X488328Y530589D02*
X492302D01*
X488364Y527755D02*
X492266D01*
X488365Y540510D02*
X492265D01*
X488366Y562479D02*
X492264D01*
X488399Y550432D02*
X492230D01*
X488446Y547951D02*
X492184D01*
X488474Y538030D02*
X492156D01*
X488475Y530235D02*
X492155D01*
X488501Y528109D02*
X492129D01*
X488501Y540156D02*
X492128D01*
X488526Y550077D02*
X492104D01*
X488557Y548306D02*
X492073D01*
X488576Y538385D02*
X492053D01*
X488577Y529881D02*
X492053D01*
X488594Y528463D02*
X492036D01*
X488594Y539802D02*
X492036D01*
X488609Y549723D02*
X492021D01*
X488628Y548660D02*
X492002D01*
X488638Y538739D02*
X491992D01*
X488638Y529526D02*
X491992D01*
X488646Y528818D02*
X491983D01*
X488647Y539448D02*
X491983D01*
X488653Y549369D02*
X491977D01*
X488659Y549014D02*
X491971D01*
X488661Y539093D02*
X491969D01*
X488661Y529172D02*
X491969D01*
X488677Y556101D02*
X491953D01*
X488714Y562125D02*
X491916D01*
X488965Y556455D02*
X491665D01*
X488996Y561770D02*
X491634D01*
X490525Y459723D02*
X491453D01*
X490645Y453699D02*
X491441D01*
X491327Y459369D02*
X491437D01*
X491384Y454054D02*
X491437D01*
X489200Y556810D02*
X491429D01*
X489225Y561416D02*
X491405D01*
X489392Y557164D02*
X491238D01*
X489412Y561062D02*
X491218D01*
X489545Y557518D02*
X491085D01*
X489560Y560707D02*
X491070D01*
X489663Y557873D02*
X490967D01*
X489675Y560353D02*
X490955D01*
X489751Y558227D02*
X490879D01*
X489759Y559999D02*
X490871D01*
X489809Y558581D02*
X490821D01*
X489814Y559644D02*
X490816D01*
X489838Y558936D02*
X490792D01*
X489840Y559290D02*
X490790D01*
X485603Y459723D02*
X488806D01*
X485724Y453699D02*
X488686D01*
X486405Y459369D02*
X488004D01*
X486463Y454054D02*
X487946D01*
X486873Y459014D02*
X487537D01*
X486912Y454408D02*
X487497D01*
X487204Y458660D02*
X487206D01*
X422931Y507203D02*
X484878D01*
X475818Y545825D02*
X484812D01*
X447482Y504369D02*
X484628D01*
X476149Y554684D02*
X484481D01*
X476191Y535904D02*
X484438D01*
X476201Y532361D02*
X484429D01*
X447266Y506849D02*
X484406D01*
X476348Y563542D02*
X484282D01*
X447736Y504723D02*
X484278D01*
X476442Y525983D02*
X484188D01*
X476449Y542282D02*
X484180D01*
X447614Y506495D02*
X484153D01*
X447876Y505077D02*
X484080D01*
X447811Y506140D02*
X484013D01*
X476648Y552203D02*
X483982D01*
X447931Y505432D02*
X483980D01*
X447910Y505786D02*
X483958D01*
X480682Y459723D02*
X483885D01*
X480802Y453699D02*
X483765D01*
X476887Y546180D02*
X483743D01*
X477027Y536259D02*
X483603D01*
X477031Y532007D02*
X483598D01*
X477153Y526337D02*
X483477D01*
X477157Y541928D02*
X483473D01*
X477245Y555038D02*
X483385D01*
X477271Y551849D02*
X483359D01*
X477331Y563188D02*
X483299D01*
X477422Y546534D02*
X483208D01*
X477516Y536613D02*
X483114D01*
X477519Y531652D02*
X483111D01*
X481484Y459369D02*
X483083D01*
X477603Y526692D02*
X483027D01*
X481542Y454054D02*
X483025D01*
X477606Y541573D02*
X483024D01*
X477687Y551495D02*
X482943D01*
X477796Y546888D02*
X482834D01*
X477865Y555392D02*
X482765D01*
X477865Y536967D02*
X482765D01*
X477868Y531298D02*
X482762D01*
X477925Y562833D02*
X482705D01*
X477930Y527046D02*
X482700D01*
X477932Y541219D02*
X482698D01*
X477993Y551140D02*
X482637D01*
X481951Y459014D02*
X482616D01*
X481991Y454408D02*
X482576D01*
X478076Y547243D02*
X482554D01*
X478128Y537322D02*
X482502D01*
X478130Y530944D02*
X482500D01*
X478177Y527400D02*
X482453D01*
X478179Y540865D02*
X482451D01*
X464404Y512518D02*
X482447D01*
X478225Y550786D02*
X482405D01*
X478288Y547597D02*
X482342D01*
X478730Y515353D02*
X482317D01*
X478319Y555747D02*
X482311D01*
X478327Y537676D02*
X482303D01*
X478328Y530589D02*
X482302D01*
X482283Y458660D02*
X482284D01*
X478364Y527755D02*
X482266D01*
X478365Y540510D02*
X482265D01*
X478366Y562479D02*
X482264D01*
X478399Y550432D02*
X482230D01*
X478446Y547951D02*
X482184D01*
X478474Y538030D02*
X482156D01*
X478475Y530235D02*
X482155D01*
X478501Y528109D02*
X482129D01*
X478501Y540156D02*
X482128D01*
X478526Y550077D02*
X482104D01*
X478557Y548306D02*
X482073D01*
X478576Y538385D02*
X482053D01*
X478577Y529881D02*
X482053D01*
X478594Y528463D02*
X482036D01*
X478594Y539802D02*
X482036D01*
X478609Y549723D02*
X482021D01*
X464840Y512873D02*
X482010D01*
X478628Y548660D02*
X482002D01*
X478638Y538739D02*
X481992D01*
X478638Y529526D02*
X481992D01*
X478646Y528818D02*
X481983D01*
X478647Y539448D02*
X481983D01*
X478653Y549369D02*
X481977D01*
X478659Y549014D02*
X481971D01*
X478661Y539093D02*
X481969D01*
X478661Y529172D02*
X481969D01*
X478677Y556101D02*
X481953D01*
X478545Y514999D02*
X481943D01*
X478714Y562125D02*
X481916D01*
X465079Y513227D02*
X481772D01*
X478218Y514644D02*
X481734D01*
X478965Y556455D02*
X481665D01*
X465209Y513581D02*
X481642D01*
X478996Y561770D02*
X481634D01*
X477413Y514290D02*
X481624D01*
X465255Y513936D02*
X481595D01*
X479200Y556810D02*
X481429D01*
X479225Y561416D02*
X481405D01*
X479392Y557164D02*
X481238D01*
X479412Y561062D02*
X481218D01*
X479545Y557518D02*
X481085D01*
X479560Y560707D02*
X481070D01*
X479663Y557873D02*
X480967D01*
X479675Y560353D02*
X480955D01*
X479751Y558227D02*
X480879D01*
X479759Y559999D02*
X480871D01*
X479809Y558581D02*
X480821D01*
X479814Y559644D02*
X480816D01*
X479838Y558936D02*
X480792D01*
X479840Y559290D02*
X480790D01*
X413207Y459723D02*
X478964D01*
X428407Y453699D02*
X478843D01*
X413045Y459369D02*
X478162D01*
X428288Y454054D02*
X478104D01*
X412757Y459014D02*
X477694D01*
X428065Y454408D02*
X477655D01*
X412176Y458660D02*
X477363D01*
X427663Y454762D02*
X477334D01*
X404527Y458306D02*
X477118D01*
X414654Y455117D02*
X477096D01*
X404308Y457951D02*
X476936D01*
X414572Y455471D02*
X476920D01*
X465226Y514290D02*
X476918D01*
X404020Y457597D02*
X476806D01*
X414400Y455825D02*
X476795D01*
X403632Y457243D02*
X476722D01*
X414095Y456180D02*
X476715D01*
X403071Y456888D02*
X476679D01*
X413438Y456534D02*
X476677D01*
X458148Y517479D02*
X476497D01*
X465117Y514644D02*
X476113D01*
X458667Y517125D02*
X475979D01*
X464907Y514999D02*
X475785D01*
X458936Y516770D02*
X475710D01*
X464534Y515353D02*
X475600D01*
X459086Y516416D02*
X475560D01*
X459137Y515707D02*
X475509D01*
X459149Y516062D02*
X475496D01*
X465818Y545825D02*
X474812D01*
X466149Y554684D02*
X474481D01*
X466191Y535904D02*
X474438D01*
X466201Y532361D02*
X474429D01*
X466348Y563542D02*
X474282D01*
X466442Y525983D02*
X474188D01*
X466449Y542282D02*
X474180D01*
X402995Y462912D02*
X474162D01*
X466648Y552203D02*
X473982D01*
X466887Y546180D02*
X473743D01*
X395866Y466101D02*
X473741D01*
X467027Y536259D02*
X473603D01*
X467031Y532007D02*
X473598D01*
X467153Y526337D02*
X473477D01*
X467157Y541928D02*
X473473D01*
X467245Y555038D02*
X473385D01*
X467271Y551849D02*
X473359D01*
X395866Y463266D02*
X473357D01*
X467331Y563188D02*
X473299D01*
X395866Y465747D02*
X473223D01*
X467422Y546534D02*
X473208D01*
X467516Y536613D02*
X473114D01*
X467519Y531652D02*
X473111D01*
X463022Y480629D02*
X473067D01*
X395866Y463621D02*
X473029D01*
X467603Y526692D02*
X473027D01*
X467606Y541573D02*
X473024D01*
X395866Y465392D02*
X472954D01*
X467687Y551495D02*
X472943D01*
X395866Y463975D02*
X472844D01*
X467796Y546888D02*
X472834D01*
X426739Y477794D02*
X472817D01*
X395866Y465038D02*
X472804D01*
X467865Y555392D02*
X472765D01*
X467865Y536967D02*
X472765D01*
X467868Y531298D02*
X472762D01*
X395866Y464329D02*
X472753D01*
X395866Y464684D02*
X472740D01*
X467925Y562833D02*
X472705D01*
X467930Y527046D02*
X472700D01*
X467932Y541219D02*
X472698D01*
X467993Y551140D02*
X472637D01*
X462871Y480274D02*
X472594D01*
X468076Y547243D02*
X472554D01*
X468128Y537322D02*
X472502D01*
X468130Y530944D02*
X472500D01*
X426772Y478148D02*
X472467D01*
X468177Y527400D02*
X472453D01*
X468179Y540865D02*
X472451D01*
X468225Y550786D02*
X472405D01*
X468288Y547597D02*
X472342D01*
X462601Y479920D02*
X472342D01*
X468319Y555747D02*
X472311D01*
X468327Y537676D02*
X472303D01*
X468328Y530589D02*
X472302D01*
X426740Y478503D02*
X472269D01*
X468364Y527755D02*
X472266D01*
X468365Y540510D02*
X472265D01*
X468366Y562479D02*
X472264D01*
X468399Y550432D02*
X472230D01*
X462079Y479566D02*
X472202D01*
X468446Y547951D02*
X472184D01*
X426640Y478857D02*
X472169D01*
X468474Y538030D02*
X472156D01*
X468475Y530235D02*
X472155D01*
X426461Y479211D02*
X472147D01*
X468501Y528109D02*
X472129D01*
X468501Y540156D02*
X472128D01*
X468526Y550077D02*
X472104D01*
X468557Y548306D02*
X472073D01*
X468576Y538385D02*
X472053D01*
X468577Y529881D02*
X472053D01*
X468594Y528463D02*
X472036D01*
X468594Y539802D02*
X472036D01*
X468609Y549723D02*
X472021D01*
X468628Y548660D02*
X472002D01*
X468638Y538739D02*
X471992D01*
X468638Y529526D02*
X471992D01*
X468646Y528818D02*
X471983D01*
X468647Y539448D02*
X471983D01*
X468653Y549369D02*
X471977D01*
X468659Y549014D02*
X471971D01*
X468661Y539093D02*
X471969D01*
X468661Y529172D02*
X471969D01*
X468677Y556101D02*
X471953D01*
X468714Y562125D02*
X471916D01*
X468965Y556455D02*
X471665D01*
X468996Y561770D02*
X471634D01*
X469200Y556810D02*
X471429D01*
X469225Y561416D02*
X471405D01*
X469392Y557164D02*
X471238D01*
X469412Y561062D02*
X471218D01*
X469545Y557518D02*
X471085D01*
X469560Y560707D02*
X471070D01*
X469663Y557873D02*
X470967D01*
X469675Y560353D02*
X470955D01*
X469751Y558227D02*
X470879D01*
X469759Y559999D02*
X470871D01*
X469809Y558581D02*
X470821D01*
X469814Y559644D02*
X470816D01*
X469838Y558936D02*
X470792D01*
X469840Y559290D02*
X470790D01*
X404568Y448385D02*
X466852D01*
X404362Y448030D02*
X466333D01*
X404091Y447676D02*
X466064D01*
X403730Y447322D02*
X465914D01*
X445831Y496573D02*
X465124D01*
X406276Y499408D02*
X464994D01*
X455818Y545825D02*
X464812D01*
X413257Y496928D02*
X464687D01*
X406298Y499054D02*
X464620D01*
X456149Y554684D02*
X464481D01*
X413287Y497282D02*
X464449D01*
X456191Y535904D02*
X464438D01*
X456201Y532361D02*
X464429D01*
X412440Y498699D02*
X464411D01*
X413241Y497636D02*
X464319D01*
X412874Y498345D02*
X464301D01*
X456348Y563542D02*
X464282D01*
X413112Y497991D02*
X464272D01*
X456442Y525983D02*
X464188D01*
X456449Y542282D02*
X464180D01*
X456648Y552203D02*
X463982D01*
X456887Y546180D02*
X463743D01*
X457027Y536259D02*
X463603D01*
X457031Y532007D02*
X463598D01*
X457153Y526337D02*
X463477D01*
X457157Y541928D02*
X463473D01*
X457245Y555038D02*
X463385D01*
X457271Y551849D02*
X463359D01*
X457331Y563188D02*
X463299D01*
X457422Y546534D02*
X463208D01*
X457516Y536613D02*
X463114D01*
X457519Y531652D02*
X463111D01*
X457603Y526692D02*
X463027D01*
X457606Y541573D02*
X463024D01*
X457687Y551495D02*
X462943D01*
X457796Y546888D02*
X462834D01*
X457865Y555392D02*
X462765D01*
X457865Y536967D02*
X462765D01*
X457868Y531298D02*
X462762D01*
X437123Y512518D02*
X462762D01*
X457925Y562833D02*
X462705D01*
X457930Y527046D02*
X462700D01*
X457932Y541219D02*
X462698D01*
X406295Y489133D02*
X462695D01*
X444332Y491967D02*
X462691D01*
X457993Y551140D02*
X462637D01*
X459045Y515353D02*
X462632D01*
X458076Y547243D02*
X462554D01*
X458128Y537322D02*
X462502D01*
X458130Y530944D02*
X462500D01*
X458177Y527400D02*
X462453D01*
X458179Y540865D02*
X462451D01*
X458225Y550786D02*
X462405D01*
X458288Y547597D02*
X462342D01*
X437430Y512873D02*
X462325D01*
X458319Y555747D02*
X462311D01*
X458327Y537676D02*
X462303D01*
X458328Y530589D02*
X462302D01*
X406267Y489487D02*
X462292D01*
X443857Y491613D02*
X462289D01*
X458364Y527755D02*
X462266D01*
X458365Y540510D02*
X462265D01*
X458366Y562479D02*
X462264D01*
X458860Y514999D02*
X462258D01*
X458399Y550432D02*
X462230D01*
X458446Y547951D02*
X462184D01*
X458474Y538030D02*
X462156D01*
X458475Y530235D02*
X462155D01*
X458501Y528109D02*
X462129D01*
X458501Y540156D02*
X462128D01*
X458526Y550077D02*
X462104D01*
X437603Y513227D02*
X462087D01*
X458557Y548306D02*
X462073D01*
X406212Y489841D02*
X462068D01*
X405690Y491259D02*
X462066D01*
X458576Y538385D02*
X462053D01*
X458577Y529881D02*
X462053D01*
X458533Y514644D02*
X462049D01*
X458594Y528463D02*
X462036D01*
X458594Y539802D02*
X462036D01*
X458609Y549723D02*
X462021D01*
X458628Y548660D02*
X462002D01*
X458638Y538739D02*
X461992D01*
X458638Y529526D02*
X461992D01*
X458646Y528818D02*
X461983D01*
X458647Y539448D02*
X461983D01*
X458653Y549369D02*
X461977D01*
X458659Y549014D02*
X461971D01*
X458661Y539093D02*
X461969D01*
X458661Y529172D02*
X461969D01*
X437685Y513581D02*
X461957D01*
X458677Y556101D02*
X461953D01*
X406129Y490196D02*
X461948D01*
X405870Y490904D02*
X461947D01*
X457728Y514290D02*
X461939D01*
X458714Y562125D02*
X461916D01*
X437690Y513936D02*
X461910D01*
X406015Y490550D02*
X461909D01*
X458965Y556455D02*
X461665D01*
X458996Y561770D02*
X461634D01*
X459200Y556810D02*
X461429D01*
X459225Y561416D02*
X461405D01*
X459392Y557164D02*
X461238D01*
X459412Y561062D02*
X461218D01*
X449566Y482755D02*
X461153D01*
X459545Y557518D02*
X461085D01*
X459560Y560707D02*
X461070D01*
X459663Y557873D02*
X460967D01*
X459675Y560353D02*
X460955D01*
X459751Y558227D02*
X460879D01*
X459759Y559999D02*
X460871D01*
X459809Y558581D02*
X460821D01*
X459814Y559644D02*
X460816D01*
X459838Y558936D02*
X460792D01*
X459840Y559290D02*
X460790D01*
X426171Y479566D02*
X460755D01*
X444053Y482400D02*
X460361D01*
X425664Y479920D02*
X460233D01*
X443842Y482046D02*
X460035D01*
X406106Y480274D02*
X459963D01*
X443467Y481692D02*
X459851D01*
X405986Y480629D02*
X459813D01*
X405644Y481337D02*
X459761D01*
X405833Y480983D02*
X459748D01*
X437617Y514290D02*
X457233D01*
X429605Y517479D02*
X456812D01*
X437456Y514644D02*
X456428D01*
X430124Y517125D02*
X456294D01*
X437170Y514999D02*
X456100D01*
X430392Y516770D02*
X456025D01*
X436593Y515353D02*
X455915D01*
X430543Y516416D02*
X455875D01*
X430593Y515707D02*
X455824D01*
X430606Y516062D02*
X455811D01*
X445818Y545825D02*
X454812D01*
X446149Y554684D02*
X454481D01*
X446191Y535904D02*
X454438D01*
X446201Y532361D02*
X454429D01*
X446348Y563542D02*
X454282D01*
X446442Y525983D02*
X454188D01*
X446449Y542282D02*
X454180D01*
X446648Y552203D02*
X453982D01*
X446887Y546180D02*
X453743D01*
X447027Y536259D02*
X453603D01*
X447031Y532007D02*
X453598D01*
X447153Y526337D02*
X453477D01*
X447157Y541928D02*
X453473D01*
X447245Y555038D02*
X453385D01*
X447271Y551849D02*
X453359D01*
X447331Y563188D02*
X453299D01*
X447422Y546534D02*
X453208D01*
X447516Y536613D02*
X453114D01*
X447519Y531652D02*
X453111D01*
X447603Y526692D02*
X453027D01*
X447606Y541573D02*
X453024D01*
X447687Y551495D02*
X452943D01*
X447796Y546888D02*
X452834D01*
X447865Y555392D02*
X452765D01*
X447865Y536967D02*
X452765D01*
X447868Y531298D02*
X452762D01*
X447925Y562833D02*
X452705D01*
X447930Y527046D02*
X452700D01*
X447932Y541219D02*
X452698D01*
X447993Y551140D02*
X452637D01*
X448076Y547243D02*
X452554D01*
X448128Y537322D02*
X452502D01*
X448130Y530944D02*
X452500D01*
X448177Y527400D02*
X452453D01*
X448179Y540865D02*
X452451D01*
X448225Y550786D02*
X452405D01*
X448288Y547597D02*
X452342D01*
X448319Y555747D02*
X452311D01*
X448327Y537676D02*
X452303D01*
X448328Y530589D02*
X452302D01*
X448364Y527755D02*
X452266D01*
X448365Y540510D02*
X452265D01*
X448366Y562479D02*
X452264D01*
X448399Y550432D02*
X452230D01*
X448446Y547951D02*
X452184D01*
X448474Y538030D02*
X452156D01*
X448475Y530235D02*
X452155D01*
X448501Y528109D02*
X452129D01*
X448501Y540156D02*
X452128D01*
X448526Y550077D02*
X452104D01*
X448557Y548306D02*
X452073D01*
X448576Y538385D02*
X452053D01*
X448577Y529881D02*
X452053D01*
X448594Y528463D02*
X452036D01*
X448594Y539802D02*
X452036D01*
X448609Y549723D02*
X452021D01*
X448628Y548660D02*
X452002D01*
X448638Y538739D02*
X451992D01*
X448638Y529526D02*
X451992D01*
X448646Y528818D02*
X451983D01*
X448647Y539448D02*
X451983D01*
X448653Y549369D02*
X451977D01*
X448659Y549014D02*
X451971D01*
X448661Y539093D02*
X451969D01*
X448661Y529172D02*
X451969D01*
X448677Y556101D02*
X451953D01*
X448714Y562125D02*
X451916D01*
X448965Y556455D02*
X451665D01*
X448996Y561770D02*
X451634D01*
X449200Y556810D02*
X451429D01*
X449225Y561416D02*
X451405D01*
X449392Y557164D02*
X451238D01*
X449412Y561062D02*
X451218D01*
X449545Y557518D02*
X451085D01*
X449560Y560707D02*
X451070D01*
X449663Y557873D02*
X450967D01*
X449675Y560353D02*
X450955D01*
X449751Y558227D02*
X450879D01*
X449759Y559999D02*
X450871D01*
X449809Y558581D02*
X450821D01*
X449814Y559644D02*
X450816D01*
X449838Y558936D02*
X450792D01*
X449840Y559290D02*
X450790D01*
X406139Y487715D02*
X450035D01*
X406029Y487361D02*
X449563D01*
X405887Y487007D02*
X449310D01*
X405710Y486652D02*
X449171D01*
X405230Y485944D02*
X449137D01*
X405493Y486298D02*
X449116D01*
X444163Y482755D02*
X448072D01*
X404908Y485589D02*
X447813D01*
X444193Y483109D02*
X447597D01*
X404510Y485235D02*
X447465D01*
X444146Y483463D02*
X447343D01*
X403997Y484881D02*
X447268D01*
X444017Y483818D02*
X447203D01*
X443345Y484526D02*
X447168D01*
X443780Y484172D02*
X447148D01*
X395866Y504014D02*
X445513D01*
X422876Y506849D02*
X445254D01*
X413020Y475668D02*
X445041D01*
X402780Y504369D02*
X445038D01*
X433760Y472833D02*
X444919D01*
X422736Y506495D02*
X444906D01*
X435818Y545825D02*
X444812D01*
X403711Y504723D02*
X444784D01*
X422482Y506140D02*
X444709D01*
X404299Y505077D02*
X444644D01*
X422007Y505786D02*
X444609D01*
X412714Y475314D02*
X444606D01*
X404742Y505432D02*
X444589D01*
X433722Y473188D02*
X444544D01*
X436149Y554684D02*
X444481D01*
X436191Y535904D02*
X444438D01*
X436201Y532361D02*
X444429D01*
X412050Y474959D02*
X444369D01*
X433603Y473542D02*
X444333D01*
X433823Y496573D02*
X444327D01*
X436348Y563542D02*
X444282D01*
X403460Y474605D02*
X444240D01*
X433380Y473896D02*
X444223D01*
X432978Y474251D02*
X444193D01*
X436442Y525983D02*
X444188D01*
X436449Y542282D02*
X444180D01*
X436648Y552203D02*
X443982D01*
X434295Y496219D02*
X443854D01*
X436887Y546180D02*
X443743D01*
X437027Y536259D02*
X443603D01*
X434548Y495865D02*
X443602D01*
X437031Y532007D02*
X443598D01*
X437153Y526337D02*
X443477D01*
X437157Y541928D02*
X443473D01*
X434687Y495510D02*
X443462D01*
X434721Y494802D02*
X443429D01*
X434742Y495156D02*
X443407D01*
X437245Y555038D02*
X443385D01*
X437271Y551849D02*
X443359D01*
X437331Y563188D02*
X443299D01*
X437422Y546534D02*
X443208D01*
X437516Y536613D02*
X443114D01*
X437519Y531652D02*
X443111D01*
X437603Y526692D02*
X443027D01*
X437606Y541573D02*
X443024D01*
X437687Y551495D02*
X442943D01*
X437796Y546888D02*
X442834D01*
X437865Y555392D02*
X442765D01*
X437865Y536967D02*
X442765D01*
X437868Y531298D02*
X442762D01*
X437925Y562833D02*
X442705D01*
X437930Y527046D02*
X442700D01*
X437932Y541219D02*
X442698D01*
X437993Y551140D02*
X442637D01*
X438076Y547243D02*
X442554D01*
X438128Y537322D02*
X442502D01*
X438130Y530944D02*
X442500D01*
X438177Y527400D02*
X442453D01*
X438179Y540865D02*
X442451D01*
X438225Y550786D02*
X442405D01*
X435786Y491613D02*
X442363D01*
X438288Y547597D02*
X442342D01*
X438319Y555747D02*
X442311D01*
X438327Y537676D02*
X442303D01*
X438328Y530589D02*
X442302D01*
X438364Y527755D02*
X442266D01*
X438365Y540510D02*
X442265D01*
X438366Y562479D02*
X442264D01*
X438399Y550432D02*
X442230D01*
X438446Y547951D02*
X442184D01*
X438474Y538030D02*
X442156D01*
X438475Y530235D02*
X442155D01*
X438501Y528109D02*
X442129D01*
X438501Y540156D02*
X442128D01*
X436045Y494448D02*
X442105D01*
X438526Y550077D02*
X442104D01*
X438557Y548306D02*
X442073D01*
X438576Y538385D02*
X442053D01*
X438577Y529881D02*
X442053D01*
X438594Y528463D02*
X442036D01*
X438594Y539802D02*
X442036D01*
X438609Y549723D02*
X442021D01*
X438628Y548660D02*
X442002D01*
X438638Y538739D02*
X441992D01*
X438638Y529526D02*
X441992D01*
X438646Y528818D02*
X441983D01*
X438647Y539448D02*
X441983D01*
X438653Y549369D02*
X441977D01*
X438659Y549014D02*
X441971D01*
X438661Y539093D02*
X441969D01*
X438661Y529172D02*
X441969D01*
X438677Y556101D02*
X441953D01*
X438714Y562125D02*
X441916D01*
X436261Y491967D02*
X441888D01*
X436393Y494093D02*
X441756D01*
X403268Y484526D02*
X441694D01*
X438965Y556455D02*
X441665D01*
X436515Y492322D02*
X441635D01*
X438996Y561770D02*
X441634D01*
X405413Y481692D02*
X441572D01*
X436590Y493739D02*
X441560D01*
X436655Y492676D02*
X441494D01*
X436690Y493385D02*
X441460D01*
X436711Y493030D02*
X441439D01*
X439200Y556810D02*
X441429D01*
X439225Y561416D02*
X441405D01*
X395866Y484172D02*
X441260D01*
X439392Y557164D02*
X441238D01*
X439412Y561062D02*
X441218D01*
X405132Y482046D02*
X441197D01*
X439545Y557518D02*
X441085D01*
X439560Y560707D02*
X441070D01*
X395866Y483818D02*
X441022D01*
X404788Y482400D02*
X440987D01*
X439663Y557873D02*
X440967D01*
X439675Y560353D02*
X440955D01*
X402929Y483463D02*
X440893D01*
X439751Y558227D02*
X440879D01*
X404358Y482755D02*
X440877D01*
X439759Y559999D02*
X440871D01*
X403792Y483109D02*
X440847D01*
X439809Y558581D02*
X440821D01*
X439814Y559644D02*
X440816D01*
X439838Y558936D02*
X440792D01*
X439840Y559290D02*
X440790D01*
X405025Y512164D02*
X435588D01*
X428407Y452991D02*
X435578D01*
X427719Y449802D02*
X435462D01*
X430502Y515353D02*
X435455D01*
X395866Y466455D02*
X435203D01*
X404656Y512518D02*
X434924D01*
X428287Y452636D02*
X434921D01*
X428094Y450156D02*
X434880D01*
X430317Y514999D02*
X434878D01*
X420196Y545825D02*
X434812D01*
X395866Y466810D02*
X434766D01*
X404188Y512873D02*
X434617D01*
X428063Y452282D02*
X434616D01*
X428305Y450510D02*
X434593D01*
X429990Y514644D02*
X434591D01*
X395866Y467164D02*
X434528D01*
X395866Y468581D02*
X434489D01*
X420935Y554684D02*
X434481D01*
X403554Y513227D02*
X434444D01*
X428269Y451928D02*
X434443D01*
X419214Y535904D02*
X434438D01*
X428415Y450865D02*
X434431D01*
X429184Y514290D02*
X434430D01*
X421981Y532361D02*
X434429D01*
X395866Y467518D02*
X434398D01*
X395866Y468227D02*
X434380D01*
X402441Y513581D02*
X434362D01*
X428398Y451573D02*
X434362D01*
X428444Y451219D02*
X434358D01*
X395866Y513936D02*
X434358D01*
X395866Y467873D02*
X434351D01*
X405468Y491613D02*
X434293D01*
X395954Y563542D02*
X434282D01*
X419022Y525983D02*
X434188D01*
X417511Y542282D02*
X434180D01*
X421413Y552203D02*
X433982D01*
X405199Y491967D02*
X433817D01*
X433602Y472125D02*
X433791D01*
X420366Y546180D02*
X433743D01*
X417942Y536259D02*
X433603D01*
X422027Y532007D02*
X433598D01*
X425947Y492322D02*
X433564D01*
X405520Y526337D02*
X433477D01*
X417102Y541928D02*
X433473D01*
X426323Y492676D02*
X433423D01*
X395866Y468936D02*
X433393D01*
X426643Y493385D02*
X433389D01*
X420820Y555038D02*
X433385D01*
X426533Y493030D02*
X433368D01*
X421438Y551849D02*
X433359D01*
X409628Y563188D02*
X433299D01*
X426928Y546534D02*
X433208D01*
X395866Y536613D02*
X433114D01*
X422047Y531652D02*
X433111D01*
X405732Y526692D02*
X433027D01*
X416652Y541573D02*
X433024D01*
X421453Y551495D02*
X432943D01*
X395866Y469290D02*
X432871D01*
X427403Y546888D02*
X432834D01*
X420694Y555392D02*
X432765D01*
X395866Y536967D02*
X432765D01*
X422039Y531298D02*
X432762D01*
X412350Y562833D02*
X432705D01*
X418668Y527046D02*
X432700D01*
X416153Y541219D02*
X432698D01*
X421457Y551140D02*
X432637D01*
X395866Y469644D02*
X432601D01*
X427657Y547243D02*
X432554D01*
X395866Y537322D02*
X432502D01*
X422005Y530944D02*
X432500D01*
X395866Y471062D02*
X432489D01*
X419535Y527400D02*
X432453D01*
X415594Y540865D02*
X432451D01*
X395866Y469999D02*
X432450D01*
X421450Y550786D02*
X432405D01*
X395866Y470707D02*
X432398D01*
X395866Y470353D02*
X432386D01*
X427797Y547597D02*
X432342D01*
X413147Y496573D02*
X432319D01*
X420555Y555747D02*
X432311D01*
X395866Y537676D02*
X432303D01*
X421943Y530589D02*
X432302D01*
X420102Y527755D02*
X432266D01*
X414956Y540510D02*
X432265D01*
X413517Y562479D02*
X432264D01*
X421433Y550432D02*
X432230D01*
X427852Y547951D02*
X432184D01*
X395866Y538030D02*
X432156D01*
X421853Y530235D02*
X432155D01*
X420533Y528109D02*
X432129D01*
X414207Y540156D02*
X432128D01*
X421406Y550077D02*
X432104D01*
X427832Y548306D02*
X432073D01*
X426673Y493739D02*
X432069D01*
X395866Y538385D02*
X432053D01*
X421733Y529881D02*
X432053D01*
X420878Y528463D02*
X432036D01*
X413283Y539802D02*
X432036D01*
X421368Y549723D02*
X432021D01*
X427732Y548660D02*
X432002D01*
X395866Y538739D02*
X431992D01*
X421580Y529526D02*
X431992D01*
X421159Y528818D02*
X431983D01*
X412001Y539448D02*
X431983D01*
X427187Y549369D02*
X431977D01*
X427535Y549014D02*
X431971D01*
X395866Y539093D02*
X431969D01*
X421391Y529172D02*
X431969D01*
X420403Y556101D02*
X431953D01*
X414391Y562125D02*
X431916D01*
X412937Y496219D02*
X431846D01*
X426627Y494093D02*
X431719D01*
X420236Y556455D02*
X431665D01*
X415111Y561770D02*
X431634D01*
X412561Y495865D02*
X431594D01*
X426497Y494448D02*
X431521D01*
X404827Y495510D02*
X431454D01*
X420056Y556810D02*
X431429D01*
X426260Y494802D02*
X431421D01*
X415729Y561416D02*
X431405D01*
X425826Y495156D02*
X431399D01*
X419860Y557164D02*
X431238D01*
X416273Y561062D02*
X431218D01*
X395866Y471416D02*
X431199D01*
X402173Y474251D02*
X431195D01*
X419648Y557518D02*
X431085D01*
X416759Y560707D02*
X431070D01*
X419419Y557873D02*
X430967D01*
X417199Y560353D02*
X430955D01*
X419172Y558227D02*
X430879D01*
X417600Y559999D02*
X430871D01*
X418905Y558581D02*
X430821D01*
X417967Y559644D02*
X430816D01*
X395866Y471770D02*
X430795D01*
X395866Y473896D02*
X430793D01*
X418617Y558936D02*
X430792D01*
X418305Y559290D02*
X430790D01*
X395866Y472125D02*
X430571D01*
X395866Y473542D02*
X430570D01*
X395866Y472479D02*
X430452D01*
X395866Y473188D02*
X430451D01*
X395866Y472833D02*
X430413D01*
X402427Y514290D02*
X428690D01*
X419678Y517479D02*
X428269D01*
X403548Y514644D02*
X427884D01*
X418909Y517125D02*
X427750D01*
X404184Y514999D02*
X427557D01*
X405773Y516770D02*
X427482D01*
X404653Y515353D02*
X427372D01*
X405570Y516416D02*
X427331D01*
X405023Y515707D02*
X427281D01*
X405324Y516062D02*
X427268D01*
X425498Y454762D02*
X425880D01*
X425554Y449802D02*
X425824D01*
X420521Y546534D02*
X425434D01*
X421319Y549369D02*
X425175D01*
X420663Y546888D02*
X424959D01*
X421260Y549014D02*
X424827D01*
X420793Y547243D02*
X424705D01*
X421189Y548660D02*
X424630D01*
X420909Y547597D02*
X424565D01*
X421107Y548306D02*
X424530D01*
X421014Y547951D02*
X424510D01*
X404408Y495156D02*
X424174D01*
X404871Y492322D02*
X424053D01*
X422115Y476377D02*
X423948D01*
X422121Y479920D02*
X423942D01*
X403860Y494802D02*
X423740D01*
X423332Y454762D02*
X423715D01*
X404463Y492676D02*
X423677D01*
X423388Y449802D02*
X423659D01*
X403046Y494448D02*
X423503D01*
X403934Y493030D02*
X423467D01*
X422625Y476731D02*
X423438D01*
X422627Y479566D02*
X423436D01*
X395866Y494093D02*
X423373D01*
X403169Y493385D02*
X423357D01*
X395866Y493739D02*
X423327D01*
X422916Y477085D02*
X423147D01*
X422918Y479211D02*
X423145D01*
X414658Y454762D02*
X421549D01*
X404920Y449802D02*
X421494D01*
X403907Y452282D02*
X421150D01*
X414585Y454408D02*
X421148D01*
X404910Y450156D02*
X421118D01*
X404223Y451928D02*
X420944D01*
X403475Y452636D02*
X420926D01*
X414423Y454054D02*
X420925D01*
X404862Y450510D02*
X420908D01*
X404462Y451573D02*
X420814D01*
X402813Y452991D02*
X420806D01*
X414135Y453699D02*
X420805D01*
X404774Y450865D02*
X420798D01*
X404642Y451219D02*
X420768D01*
X413554Y453345D02*
X420768D01*
X403219Y446967D02*
X420677D01*
X405095Y505786D02*
X420513D01*
X413276Y476377D02*
X420404D01*
X406196Y479920D02*
X420399D01*
X406289Y508621D02*
X420254D01*
X405383Y506140D02*
X420038D01*
X402291Y446613D02*
X419959D01*
X406251Y508266D02*
X419906D01*
X413280Y476731D02*
X419895D01*
X406257Y479566D02*
X419892D01*
X405619Y506495D02*
X419784D01*
X406187Y507912D02*
X419709D01*
X405813Y506849D02*
X419644D01*
X406093Y507558D02*
X419609D01*
X413208Y477085D02*
X419604D01*
X406291Y479211D02*
X419602D01*
X405970Y507203D02*
X419589D01*
X395866Y446259D02*
X419588D01*
X413047Y477440D02*
X419424D01*
X406299Y478857D02*
X419423D01*
X395866Y445904D02*
X419351D01*
X412760Y477794D02*
X419324D01*
X406279Y478503D02*
X419323D01*
X412183Y478148D02*
X419291D01*
X395866Y445550D02*
X419200D01*
X395866Y445196D02*
X419117D01*
X395866Y444841D02*
X419094D01*
X395866Y444487D02*
X419094D01*
X403134Y444133D02*
X419094D01*
X403881Y443778D02*
X419094D01*
X404395Y443424D02*
X419094D01*
X404790Y443070D02*
X419094D01*
X405106Y442715D02*
X419094D01*
X405363Y442361D02*
X419094D01*
X405573Y442007D02*
X419094D01*
X405742Y441652D02*
X419094D01*
X405875Y441298D02*
X419094D01*
X405976Y440944D02*
X419094D01*
X406047Y440589D02*
X419094D01*
X406089Y440235D02*
X419094D01*
X406102Y439881D02*
X419094D01*
X406088Y439526D02*
X419094D01*
X406046Y439172D02*
X419094D01*
X405976Y438818D02*
X419094D01*
X405874Y438463D02*
X419094D01*
X405741Y438109D02*
X419094D01*
X405572Y437755D02*
X419094D01*
X405362Y437400D02*
X419094D01*
X405104Y437046D02*
X419094D01*
X404787Y436692D02*
X419094D01*
X404392Y436337D02*
X419094D01*
X403876Y435983D02*
X419094D01*
X403127Y435629D02*
X419094D01*
X395866Y435274D02*
X419094D01*
X395866Y434920D02*
X419094D01*
X395866Y434566D02*
X419094D01*
X395866Y434211D02*
X419094D01*
X395866Y433857D02*
X419094D01*
X395866Y433503D02*
X419094D01*
X402302Y433148D02*
X419094D01*
X403224Y432794D02*
X419094D01*
X403733Y432440D02*
X419094D01*
X404094Y432085D02*
X419094D01*
X404364Y431731D02*
X419094D01*
X404569Y431377D02*
X419094D01*
X404721Y431022D02*
X419094D01*
X404828Y430668D02*
X419094D01*
X404893Y430314D02*
X419094D01*
X404920Y429959D02*
X419094D01*
X404910Y429605D02*
X419094D01*
X404861Y429251D02*
X419094D01*
X404773Y428896D02*
X419094D01*
X404641Y428542D02*
X419094D01*
X404461Y428188D02*
X419094D01*
X404221Y427833D02*
X419094D01*
X403904Y427479D02*
X419094D01*
X403471Y427125D02*
X419094D01*
X402807Y426770D02*
X419094D01*
X395866Y426416D02*
X419094D01*
X395866Y426062D02*
X419094D01*
X395866Y425707D02*
X419094D01*
X395866Y425353D02*
X419094D01*
X395866Y424999D02*
X419094D01*
X395866Y424644D02*
X419094D01*
X395866Y424290D02*
X419094D01*
X395866Y423936D02*
X419094D01*
X395866Y423581D02*
X419094D01*
X395866Y423227D02*
X419094D01*
X395902Y422873D02*
X419058D01*
X396015Y422518D02*
X418946D01*
X396221Y422164D02*
X418739D01*
X396577Y421810D02*
X418384D01*
X395866Y536259D02*
X416704D01*
X405904Y527046D02*
X415978D01*
X405938Y517125D02*
X415736D01*
X405262Y525983D02*
X415623D01*
X395866Y535904D02*
X415432D01*
X406042Y527400D02*
X415111D01*
X406069Y517479D02*
X414968D01*
X404947Y525629D02*
X414897D01*
X395866Y535550D02*
X414770D01*
X406149Y527755D02*
X414543D01*
X406169Y517833D02*
X414438D01*
X404559Y525274D02*
X414384D01*
X395866Y535196D02*
X414288D01*
X406226Y528109D02*
X414112D01*
X406239Y518188D02*
X414029D01*
X404061Y524920D02*
X413987D01*
X395866Y534841D02*
X413910D01*
X406275Y528463D02*
X413768D01*
X406283Y518542D02*
X413700D01*
X403367Y524566D02*
X413666D01*
X395866Y534487D02*
X413603D01*
X406298Y528818D02*
X413486D01*
X406299Y518896D02*
X413431D01*
X395866Y524211D02*
X413402D01*
X395866Y534133D02*
X413351D01*
X406293Y529172D02*
X413255D01*
X406289Y519251D02*
X413210D01*
X395866Y523857D02*
X413186D01*
X395866Y533778D02*
X413144D01*
X406262Y529526D02*
X413066D01*
X406252Y519605D02*
X413029D01*
X402789Y523503D02*
X413010D01*
X403054Y533424D02*
X412975D01*
X406204Y529881D02*
X412913D01*
X406187Y519959D02*
X412883D01*
X403716Y523148D02*
X412868D01*
X403864Y533070D02*
X412841D01*
X406117Y530235D02*
X412792D01*
X406094Y520314D02*
X412770D01*
X404303Y522794D02*
X412758D01*
X404411Y532715D02*
X412738D01*
X406001Y530589D02*
X412702D01*
X405971Y520668D02*
X412686D01*
X404745Y522440D02*
X412678D01*
X404830Y532361D02*
X412664D01*
X405852Y530944D02*
X412641D01*
X405814Y521022D02*
X412631D01*
X405097Y522085D02*
X412626D01*
X405166Y532007D02*
X412618D01*
X405667Y531298D02*
X412607D01*
X405621Y521377D02*
X412603D01*
X405385Y521731D02*
X412601D01*
X405441Y531652D02*
X412599D01*
X395866Y456534D02*
X412547D01*
X395866Y453345D02*
X412430D01*
X395866Y456180D02*
X411889D01*
X395866Y453699D02*
X411849D01*
X395866Y455825D02*
X411584D01*
X395866Y454054D02*
X411561D01*
X395866Y455471D02*
X411412D01*
X395866Y454408D02*
X411399D01*
X395866Y455117D02*
X411330D01*
X395866Y454762D02*
X411326D01*
X404124Y474959D02*
X411178D01*
X404282Y461849D02*
X411169D01*
X404690Y458660D02*
X411052D01*
X406233Y478148D02*
X411045D01*
X406293Y498699D02*
X410789D01*
X405164Y495865D02*
X410667D01*
X404607Y475314D02*
X410515D01*
X404507Y461495D02*
X410512D01*
X404807Y459014D02*
X410471D01*
X406159Y477794D02*
X410468D01*
X406262Y498345D02*
X410354D01*
X405439Y496219D02*
X410292D01*
X404986Y475668D02*
X410208D01*
X404676Y461140D02*
X410206D01*
X404882Y459369D02*
X410183D01*
X406056Y477440D02*
X410182D01*
X406204Y497991D02*
X410117D01*
X405666Y496573D02*
X410081D01*
X405293Y476022D02*
X410035D01*
X404797Y460786D02*
X410034D01*
X404918Y459723D02*
X410022D01*
X405921Y477085D02*
X410021D01*
X406117Y497636D02*
X409988D01*
X405851Y496928D02*
X409971D01*
X405545Y476377D02*
X409953D01*
X404876Y460432D02*
X409952D01*
X404916Y460077D02*
X409948D01*
X405753Y476731D02*
X409948D01*
X406000Y497282D02*
X409941D01*
X395877Y563188D02*
X409270D01*
X395866Y539448D02*
X406897D01*
X395866Y562833D02*
X406548D01*
X395866Y539802D02*
X405615D01*
X395866Y562479D02*
X405381D01*
X395866Y540156D02*
X404691D01*
X395866Y562125D02*
X404506D01*
X395866Y540510D02*
X403942D01*
X395866Y561770D02*
X403787D01*
X395866Y540865D02*
X403304D01*
X395866Y561416D02*
X403169D01*
X395866Y541219D02*
X402744D01*
X395866Y561062D02*
X402625D01*
X395866Y541573D02*
X402246D01*
X395866Y560707D02*
X402139D01*
X395866Y541928D02*
X401796D01*
X395866Y560353D02*
X401699D01*
X395866Y503660D02*
X401463D01*
X395866Y542282D02*
X401387D01*
X395866Y559999D02*
X401298D01*
X395866Y542636D02*
X401012D01*
X395866Y474251D02*
X400976D01*
X395866Y559644D02*
X400930D01*
X395866Y446613D02*
X400859D01*
X395866Y433148D02*
X400847D01*
X395866Y514290D02*
X400723D01*
X395866Y513581D02*
X400709D01*
X395866Y542991D02*
X400668D01*
X395866Y559290D02*
X400592D01*
X395866Y504369D02*
X400370D01*
X395866Y523503D02*
X400360D01*
X395866Y543345D02*
X400350D01*
X395866Y426770D02*
X400343D01*
X395866Y452991D02*
X400336D01*
X395866Y558936D02*
X400281D01*
X395866Y483463D02*
X400221D01*
X395866Y462912D02*
X400155D01*
X395866Y494448D02*
X400104D01*
X395866Y533424D02*
X400096D01*
X395866Y456888D02*
X400079D01*
X395866Y543699D02*
X400057D01*
X395866Y435629D02*
X400023D01*
X395866Y444133D02*
X400016D01*
X395866Y558581D02*
X399992D01*
X395866Y493385D02*
X399981D01*
X395866Y446967D02*
X399931D01*
X395866Y432794D02*
X399926D01*
X395866Y484526D02*
X399882D01*
X395866Y544054D02*
X399785D01*
X395866Y524566D02*
X399783D01*
X395866Y503306D02*
X399776D01*
X395866Y558227D02*
X399725D01*
X395866Y474605D02*
X399690D01*
X395866Y427125D02*
X399678D01*
X395866Y452636D02*
X399675D01*
X395866Y514644D02*
X399602D01*
X395866Y513227D02*
X399596D01*
X395866Y462558D02*
X399565D01*
X395866Y544408D02*
X399533D01*
X395866Y457243D02*
X399517D01*
X395866Y557873D02*
X399478D01*
X395866Y504723D02*
X399439D01*
X395866Y523148D02*
X399433D01*
X395866Y447322D02*
X399420D01*
X395866Y432440D02*
X399417D01*
X395866Y483109D02*
X399358D01*
X395866Y544762D02*
X399300D01*
X395866Y494802D02*
X399290D01*
X395866Y533070D02*
X399285D01*
X395866Y435983D02*
X399273D01*
X395866Y443778D02*
X399269D01*
X395866Y557518D02*
X399249D01*
X395866Y427479D02*
X399246D01*
X395866Y452282D02*
X399243D01*
X395866Y493030D02*
X399216D01*
X395866Y462203D02*
X399165D01*
X395866Y484881D02*
X399153D01*
X395866Y457597D02*
X399130D01*
X395866Y524920D02*
X399088D01*
X395866Y545117D02*
X399085D01*
X395866Y502951D02*
X399084D01*
X395866Y447676D02*
X399058D01*
X395866Y432085D02*
X399056D01*
X395866Y557164D02*
X399038D01*
X395866Y474959D02*
X399026D01*
X395866Y514999D02*
X398965D01*
X395866Y512873D02*
X398961D01*
X395866Y427833D02*
X398929D01*
X395866Y451928D02*
X398927D01*
X395866Y545471D02*
X398885D01*
X395866Y461849D02*
X398868D01*
X395866Y505077D02*
X398850D01*
X395866Y522794D02*
X398846D01*
X395866Y556810D02*
X398842D01*
X395866Y457951D02*
X398841D01*
X395866Y482755D02*
X398792D01*
X395866Y448030D02*
X398787D01*
X395866Y431731D02*
X398786D01*
X395866Y436337D02*
X398758D01*
X395866Y443424D02*
X398755D01*
X395866Y495156D02*
X398742D01*
X395866Y532715D02*
X398738D01*
X395866Y545825D02*
X398701D01*
X395866Y428188D02*
X398689D01*
X395866Y451573D02*
X398687D01*
X395866Y492676D02*
X398687D01*
X395866Y556455D02*
X398661D01*
X395866Y461495D02*
X398643D01*
X395866Y485235D02*
X398640D01*
X395866Y458306D02*
X398623D01*
X395866Y525274D02*
X398591D01*
X395866Y502597D02*
X398588D01*
X395866Y448385D02*
X398582D01*
X395866Y431377D02*
X398581D01*
X395866Y475314D02*
X398543D01*
X395866Y546180D02*
X398532D01*
X395866Y428542D02*
X398508D01*
X395866Y451219D02*
X398507D01*
X395866Y515353D02*
X398497D01*
X395866Y556101D02*
X398495D01*
X395866Y512518D02*
X398494D01*
X395866Y461140D02*
X398474D01*
X395866Y458660D02*
X398459D01*
X395866Y448739D02*
X398430D01*
X395866Y431022D02*
X398429D01*
X395866Y505432D02*
X398407D01*
X395866Y522440D02*
X398404D01*
X395866Y428896D02*
X398377D01*
X395866Y546534D02*
X398377D01*
X395866Y450865D02*
X398376D01*
X395866Y436692D02*
X398362D01*
X395866Y482400D02*
X398361D01*
X395866Y443070D02*
X398360D01*
X395866Y460786D02*
X398353D01*
X395866Y555747D02*
X398343D01*
X395866Y459014D02*
X398343D01*
X395866Y449093D02*
X398323D01*
X395866Y495510D02*
X398322D01*
X395866Y430668D02*
X398322D01*
X395866Y532361D02*
X398319D01*
X395866Y429251D02*
X398288D01*
X395866Y450510D02*
X398288D01*
X395866Y492322D02*
X398279D01*
X395866Y460432D02*
X398274D01*
X395866Y459369D02*
X398268D01*
X395866Y449448D02*
X398257D01*
X395866Y430314D02*
X398256D01*
X395866Y485589D02*
X398241D01*
X395866Y429605D02*
X398240D01*
X395866Y450156D02*
X398240D01*
X395866Y546888D02*
X398234D01*
X395866Y460077D02*
X398234D01*
X395866Y459723D02*
X398232D01*
X395866Y449802D02*
X398229D01*
X395866Y429959D02*
X398229D01*
X395866Y555392D02*
X398204D01*
X395866Y525629D02*
X398202D01*
X395866Y502243D02*
X398200D01*
X395866Y475668D02*
X398164D01*
X395866Y515707D02*
X398127D01*
X395866Y512164D02*
X398124D01*
X395866Y547243D02*
X398105D01*
X395866Y555038D02*
X398077D01*
X395866Y505786D02*
X398055D01*
X395866Y522085D02*
X398052D01*
X395866Y437046D02*
X398045D01*
X395866Y442715D02*
X398043D01*
X395866Y482046D02*
X398017D01*
X395866Y547597D02*
X397988D01*
X395866Y495865D02*
X397986D01*
X395866Y532007D02*
X397983D01*
X395866Y554684D02*
X397963D01*
X395866Y491967D02*
X397950D01*
X395866Y485944D02*
X397920D01*
X395866Y525983D02*
X397888D01*
X395866Y501888D02*
X397886D01*
X395866Y547951D02*
X397883D01*
X395866Y554329D02*
X397861D01*
X395866Y476022D02*
X397857D01*
X395866Y516062D02*
X397826D01*
X395866Y511810D02*
X397824D01*
X395866Y548306D02*
X397790D01*
X395866Y437400D02*
X397788D01*
X395866Y442361D02*
X397786D01*
X395866Y553975D02*
X397770D01*
X395866Y506140D02*
X397767D01*
X395866Y521731D02*
X397765D01*
X395866Y481692D02*
X397737D01*
X395866Y496219D02*
X397710D01*
X395866Y531652D02*
X397709D01*
X395866Y548660D02*
X397709D01*
X395866Y553621D02*
X397691D01*
X395866Y491613D02*
X397681D01*
X395866Y486298D02*
X397656D01*
X395866Y549014D02*
X397638D01*
X395866Y526337D02*
X397630D01*
X395866Y501534D02*
X397628D01*
X395866Y553266D02*
X397623D01*
X395866Y476377D02*
X397604D01*
X395866Y516416D02*
X397579D01*
X395866Y549369D02*
X397578D01*
X395866Y437755D02*
X397578D01*
X395866Y511455D02*
X397578D01*
X395866Y442007D02*
X397577D01*
X395866Y552912D02*
X397566D01*
X395866Y506495D02*
X397531D01*
X395866Y549723D02*
X397530D01*
X395866Y521377D02*
X397529D01*
X395866Y552558D02*
X397520D01*
X395866Y481337D02*
X397506D01*
X395866Y550077D02*
X397492D01*
X395866Y552203D02*
X397485D01*
X395866Y496573D02*
X397484D01*
X395866Y531298D02*
X397483D01*
X395866Y550432D02*
X397464D01*
X395866Y491259D02*
X397460D01*
X395866Y551849D02*
X397460D01*
X395866Y550786D02*
X397447D01*
X395866Y551495D02*
X397445D01*
X395866Y551140D02*
X397441D01*
X395866Y486652D02*
X397440D01*
X395866Y526692D02*
X397418D01*
X395866Y501180D02*
X397417D01*
X395866Y438109D02*
X397409D01*
X395866Y441652D02*
X397408D01*
X395866Y476731D02*
X397397D01*
X395866Y516770D02*
X397376D01*
X395866Y511101D02*
X397375D01*
X395866Y506849D02*
X397337D01*
X395866Y521022D02*
X397335D01*
X395866Y480983D02*
X397316D01*
X395866Y496928D02*
X397299D01*
X395866Y530944D02*
X397298D01*
X395866Y490904D02*
X397279D01*
X395866Y438463D02*
X397275D01*
X395866Y441298D02*
X397274D01*
X395866Y487007D02*
X397263D01*
X395866Y527046D02*
X397245D01*
X395866Y500825D02*
X397244D01*
X395866Y477085D02*
X397228D01*
X395866Y517125D02*
X397212D01*
X395866Y510747D02*
X397211D01*
X395866Y507203D02*
X397180D01*
X395866Y520668D02*
X397179D01*
X395866Y438818D02*
X397174D01*
X395866Y440944D02*
X397173D01*
X395866Y480629D02*
X397164D01*
X395866Y497282D02*
X397150D01*
X395866Y530589D02*
X397149D01*
X395866Y490550D02*
X397134D01*
X395866Y487361D02*
X397121D01*
X395866Y527400D02*
X397107D01*
X395866Y500471D02*
X397106D01*
X395866Y439172D02*
X397103D01*
X395866Y440589D02*
X397103D01*
X395866Y477440D02*
X397094D01*
X395866Y517479D02*
X397081D01*
X395866Y510392D02*
X397080D01*
X395866Y439526D02*
X397061D01*
X395866Y440235D02*
X397061D01*
X395866Y507558D02*
X397056D01*
X395866Y520314D02*
X397055D01*
X395866Y439881D02*
X397047D01*
X395866Y480274D02*
X397044D01*
X395866Y497636D02*
X397033D01*
X395866Y530235D02*
X397032D01*
X395866Y490196D02*
X397021D01*
X395866Y487715D02*
X397011D01*
X395866Y527755D02*
X397001D01*
X395866Y500117D02*
X397000D01*
X395866Y477794D02*
X396991D01*
X395866Y517833D02*
X396981D01*
X395866Y510038D02*
X396980D01*
X395866Y507912D02*
X396963D01*
X395866Y519959D02*
X396962D01*
X395866Y479920D02*
X396954D01*
X395866Y497991D02*
X396946D01*
X395866Y529881D02*
X396946D01*
X395866Y489841D02*
X396938D01*
X395866Y488070D02*
X396931D01*
X395866Y528109D02*
X396924D01*
X395866Y499762D02*
X396923D01*
X395866Y478148D02*
X396917D01*
X395866Y518188D02*
X396910D01*
X395866Y509684D02*
X396910D01*
X395866Y508266D02*
X396898D01*
X395866Y519605D02*
X396898D01*
X395866Y479566D02*
X396892D01*
X395866Y498345D02*
X396888D01*
X395866Y529526D02*
X396887D01*
X395866Y489487D02*
X396882D01*
X395866Y488424D02*
X396878D01*
X395866Y528463D02*
X396874D01*
X395866Y499408D02*
X396874D01*
X395866Y478503D02*
X396870D01*
X395866Y518542D02*
X396867D01*
X395866Y509329D02*
X396867D01*
X395866Y508621D02*
X396861D01*
X395866Y519251D02*
X396861D01*
X395866Y479211D02*
X396858D01*
X395866Y498699D02*
X396856D01*
X395866Y529172D02*
X396856D01*
X395866Y489133D02*
X396854D01*
X395866Y488778D02*
X396853D01*
X395866Y528818D02*
X396852D01*
X395866Y499054D02*
X396852D01*
X395866Y478857D02*
X396851D01*
X395866Y518896D02*
X396851D01*
X395866Y508975D02*
X396851D01*
X393701Y566929D02*
Y393701D01*
X566929*
Y566929*
X393701*
X503740Y383760D02*
G03X502461Y385039I-1279J-0D01*
G01X394980*
G03X393701Y383760I0J-1279*
G01Y365846*
G03X394980Y364567I1279J0*
G01X502461*
G03X503740Y365846I-0J1279*
G01Y383760*
X474311Y385039D02*
Y364567D01*
Y379921D02*
X393701D01*
X474311Y374803D02*
X393701D01*
X461516Y374394D02*
Y364567D01*
X474311Y369685D02*
X393701D01*
X461516Y379921D02*
Y374394D01*
X444882Y379921D02*
Y364567D01*
X410335Y385039D02*
Y364567D01*
X482943Y372741D02*
X483245D01*
X482943Y372604D02*
X483245D01*
X482943Y372467D02*
X483245D01*
X482943Y372330D02*
X483245D01*
X482943Y372192D02*
X483245D01*
X491170Y380158D02*
G03X490629Y379617I-0J-541D01*
G01X491170Y380158D02*
X495477D01*
X496018Y379617D02*
G03X495477Y380158I-541J0D01*
G01X496018Y379617D02*
Y375342D01*
X495477Y374802D02*
G03X496018Y375342I0J540D01*
G01X495477Y374802D02*
X491170D01*
X490629Y375342D02*
G03X491170Y374802I541J0D01*
G01X490629Y375342D02*
Y379617D01*
X482241Y373845D02*
X482917Y372872D01*
Y372034*
X483268*
Y372872*
X483944Y373845*
X483619*
X483106Y373169*
X482566Y373845*
X482241*
X484863Y380223D02*
G03X484538Y379898I-0J-325D01*
G01X484863Y380223D02*
X487403D01*
X487727Y379898D02*
G03X487403Y380223I-324J0D01*
G01X487727Y379898D02*
Y377520D01*
X487403Y377196D02*
G03X487727Y377520I-0J324D01*
G01X487403Y377196D02*
X484863D01*
X484538Y377520D02*
G03X484863Y377196I325J0D01*
G01X484538Y377520D02*
Y379898D01*
X492537Y378439D02*
G03X492321Y378223I0J-216D01*
G01X492537Y378439D02*
X494213D01*
X494429Y378223D02*
G03X494213Y378439I-216J-0D01*
G01X494429Y378223D02*
Y376710D01*
X494213Y376493D02*
G03X494429Y376710I-0J217D01*
G01X494213Y376493D02*
X492537D01*
X492321Y376710D02*
G03X492537Y376493I216J-0D01*
G01X492321Y376710D02*
Y378223D01*
X484646Y373791D02*
G03X484322Y373467I0J-324D01*
G01X484646Y373791D02*
X485511D01*
X485835Y373467D02*
G03X485511Y373791I-324J-0D01*
G01X485835Y373467D02*
Y372440D01*
X485511Y372116D02*
G03X485835Y372440I0J324D01*
G01X485511Y372116D02*
X484646D01*
X484322Y372440D02*
G03X484646Y372116I324J-0D01*
G01X484322Y372440D02*
Y373467D01*
X482943Y382626D02*
X489148D01*
X482256Y382076D02*
X489834D01*
X482256Y381939D02*
X489889D01*
X482119Y381665D02*
X489943D01*
X482119Y381527D02*
X489943D01*
X482119Y381390D02*
X489943D01*
X482119Y381253D02*
X489943D01*
X482119Y381115D02*
X489943D01*
X482119Y380978D02*
X489943D01*
X482119Y380841D02*
X489943D01*
X482119Y380704D02*
X489943D01*
X482119Y380566D02*
X489943D01*
X482119Y380429D02*
X489943D01*
X482119Y380292D02*
X489943D01*
X491042Y380155D02*
X495600D01*
X487673D02*
X489943D01*
X482119D02*
X484646D01*
X490905Y380017D02*
X495780D01*
X487748D02*
X489943D01*
X482119D02*
X484480D01*
X490768Y379880D02*
X495888D01*
X487748D02*
X489943D01*
X482119D02*
X484480D01*
X490768Y379743D02*
X496012D01*
X487748D02*
X489943D01*
X482119D02*
X484480D01*
X490630Y379605D02*
X496012D01*
X487748D02*
X489943D01*
X482119D02*
X484480D01*
X490630Y379468D02*
X496012D01*
X487748D02*
X489943D01*
X482119D02*
X484480D01*
X490630Y379331D02*
X496012D01*
X487748D02*
X489943D01*
X482119D02*
X484480D01*
X490630Y379194D02*
X496012D01*
X487748D02*
X489943D01*
X482119D02*
X484480D01*
X490630Y379056D02*
X496012D01*
X487748D02*
X489943D01*
X482119D02*
X484480D01*
X490630Y378919D02*
X496012D01*
X487748D02*
X489943D01*
X482119D02*
X484480D01*
X490630Y378782D02*
X496012D01*
X487748D02*
X489943D01*
X482119D02*
X484480D01*
X490630Y378644D02*
X496012D01*
X487748D02*
X489943D01*
X482119D02*
X484480D01*
X490630Y378507D02*
X496012D01*
X487748D02*
X489943D01*
X482119D02*
X484480D01*
X494474Y378370D02*
X496012D01*
X490630D02*
X492305D01*
X487748D02*
X489943D01*
X482119D02*
X484480D01*
X494474Y378233D02*
X496012D01*
X490630D02*
X492305D01*
X487748D02*
X489943D01*
X482119D02*
X484480D01*
X494474Y378095D02*
X496012D01*
X490630D02*
X492305D01*
X487748D02*
X489943D01*
X482119D02*
X484480D01*
X494474Y377958D02*
X496012D01*
X490630D02*
X492305D01*
X487748D02*
X489943D01*
X482119D02*
X484480D01*
X494474Y377821D02*
X496012D01*
X490630D02*
X492305D01*
X487748D02*
X489943D01*
X482119D02*
X484480D01*
X494474Y377683D02*
X496012D01*
X490630D02*
X492305D01*
X487748D02*
X489943D01*
X482119D02*
X484480D01*
X494474Y377546D02*
X496012D01*
X490630D02*
X492305D01*
X487748D02*
X489943D01*
X482119D02*
X484480D01*
X494474Y377409D02*
X496012D01*
X490630D02*
X492305D01*
X487748D02*
X489943D01*
X482119D02*
X484480D01*
X494474Y377272D02*
X496012D01*
X490630D02*
X492305D01*
X487673D02*
X489943D01*
X482119D02*
X484592D01*
X494474Y377134D02*
X496012D01*
X490630D02*
X492305D01*
X482119D02*
X489943D01*
X494474Y376997D02*
X496012D01*
X490630D02*
X492305D01*
X482119D02*
X489943D01*
X494474Y376860D02*
X496012D01*
X490630D02*
X492305D01*
X482119D02*
X489943D01*
X494474Y376723D02*
X496012D01*
X490630D02*
X492305D01*
X482119D02*
X489943D01*
X494474Y376585D02*
X496012D01*
X490630D02*
X492305D01*
X482119D02*
X489943D01*
X490630Y376448D02*
X496012D01*
X482119D02*
X489943D01*
X490630Y376311D02*
X496012D01*
X482119D02*
X489943D01*
X490630Y376173D02*
X496012D01*
X482119D02*
X489943D01*
X490630Y376036D02*
X496012D01*
X482119D02*
X489943D01*
X490630Y375899D02*
X496012D01*
X482119D02*
X489943D01*
X490630Y375762D02*
X496012D01*
X482119D02*
X489943D01*
X490630Y375624D02*
X496012D01*
X482119D02*
X489943D01*
X490630Y375487D02*
X496012D01*
X482256D02*
X489943D01*
X490630Y375350D02*
X496012D01*
X482256D02*
X489834D01*
X490768Y375212D02*
X495964D01*
X482263D02*
X489834D01*
X490768Y375075D02*
X495875D01*
X482387D02*
X489697D01*
X490905Y374938D02*
X495769D01*
X482571D02*
X489560D01*
X491180Y374801D02*
X495467D01*
X482943D02*
X489186D01*
X483629Y373840D02*
X483931D01*
X482256D02*
X482558D01*
X483544Y373702D02*
X483819D01*
X482394D02*
X482641D01*
X483425Y373565D02*
X483706D01*
X482468D02*
X482760D01*
X483355Y373428D02*
X483657D01*
X482531D02*
X482833D01*
X483217Y373291D02*
X483506D01*
X482668D02*
X482970D01*
X482760Y373153D02*
X483441D01*
X482863Y373016D02*
X483306D01*
X482917Y372879D02*
X483247D01*
X486538Y373791D02*
Y372386D01*
G03X486754Y372170I216J-0*
G01X487457*
G03X487673Y372386I-0J216*
G01Y373791*
X488430D02*
Y372170D01*
X489132Y373791D02*
Y372170D01*
X490159*
X491943Y373359D02*
Y373575D01*
G03X491727Y373791I-216J-0*
G01X490970*
G03X490754Y373575I-0J-216*
G01Y372386*
G03X490970Y372170I216J-0*
G01X491727*
G03X491943Y372386I-0J216*
G01Y372602*
X482430Y382351D02*
X489673D01*
X482322Y382214D02*
X489781D01*
X482971Y382628D02*
G03X482106Y381763I-0J-865D01*
G01X482971Y382628D02*
X489105D01*
X489970Y381763D02*
G03X489105Y382628I-865J-0D01*
G01X489970Y381763D02*
Y375656D01*
X489105Y374791D02*
G03X489970Y375656I0J865D01*
G01X489105Y374791D02*
X482971D01*
X482106Y375656D02*
G03X482971Y374791I865J-0D01*
G01X482106Y375656D02*
Y381763D01*
X482160Y381802D02*
X489971D01*
X482593Y382488D02*
X489511D01*
X492645Y372170D02*
X493078Y373683D01*
X493510*
X493942Y372170*
X493726Y372818D02*
X492862D01*
X494699Y372926D02*
Y373791D01*
X495456*
X495888Y373359D02*
G03X495456Y373791I-432J-0D01*
G01X495888Y373359D02*
Y372602D01*
X495456Y372170D02*
G03X495888Y372602I-0J432D01*
G01X495456Y372170D02*
X494699D01*
Y372926*
X468140Y373128D02*
Y371360D01*
X468216Y371049*
X468367Y370945*
X468518*
X467913Y372400D02*
X468443D01*
X412673Y383052D02*
X412521Y383260D01*
X412295Y383364*
X411992*
X411765Y383260*
X411614Y383052*
Y382844*
X411690Y382636*
X411765Y382532*
X411917Y382428*
X412370Y382220*
X412521Y382116*
X412597Y382012*
X412673Y381805*
Y381493*
X412521Y381285*
X412295Y381181*
X411992*
X411765Y381285*
X411614Y381493*
X413353Y383364D02*
Y381181D01*
Y383364D02*
X414336D01*
X413353Y382324D02*
X413958D01*
X413353Y381181D02*
X414336D01*
X415017Y383364D02*
Y381181D01*
Y383364D02*
X416075Y381181D01*
Y383364D02*
Y381181D01*
X417814Y383052D02*
X417663Y383260D01*
X417436Y383364*
X417134*
X416907Y383260*
X416756Y383052*
Y382844*
X416831Y382636*
X416907Y382532*
X417058Y382428*
X417512Y382220*
X417663Y382116*
X417738Y382012*
X417814Y381805*
Y381493*
X417663Y381285*
X417436Y381181*
X417134*
X416907Y381285*
X416756Y381493*
X418948Y383364D02*
X418797Y383260D01*
X418646Y383052*
X418570Y382844*
X418495Y382532*
Y382012*
X418570Y381701*
X418646Y381493*
X418797Y381285*
X418948Y381181*
X419251*
X419402Y381285*
X419553Y381493*
X419629Y381701*
X419704Y382012*
Y382532*
X419629Y382844*
X419553Y383052*
X419402Y383260*
X419251Y383364*
X418948*
X420385D02*
Y381181D01*
Y383364D02*
X421065D01*
X421292Y383260*
X421368Y383156*
X421443Y382948*
Y382740*
X421368Y382532*
X421292Y382428*
X421065Y382324*
X420385*
X420914D02*
X421443Y381181D01*
X422124Y383364D02*
X423182Y381181D01*
Y383364D02*
X422124Y381181D01*
X423863Y383364D02*
Y381181D01*
Y383364D02*
X424846D01*
X423863Y382324D02*
X424468D01*
X423863Y381181D02*
X424846D01*
X425526Y383364D02*
Y381181D01*
X426433*
X429382Y383780D02*
X429231Y383572D01*
X429080Y383260*
X428929Y382844*
X428853Y382324*
Y381909*
X428929Y381389*
X429080Y380973*
X429231Y380661*
X429382Y380453*
X430819Y383364D02*
X430063Y381909D01*
X431197*
X430819Y383364D02*
Y381181D01*
X433616Y383364D02*
Y381181D01*
X434524*
X436111Y382636D02*
Y381181D01*
Y382324D02*
X435960Y382532D01*
X435809Y382636*
X435582*
X435431Y382532*
X435280Y382324*
X435204Y382012*
Y381805*
X435280Y381493*
X435431Y381285*
X435582Y381181*
X435809*
X435960Y381285*
X436111Y381493*
X436867Y382636D02*
X437321Y381181D01*
X437775Y382636D02*
X437321Y381181D01*
X437170Y380765*
X437019Y380557*
X436867Y380453*
X436792*
X438455Y382012D02*
X439362D01*
Y382220*
X439287Y382428*
X439211Y382532*
X439060Y382636*
X438833*
X438682Y382532*
X438531Y382324*
X438455Y382012*
Y381805*
X438531Y381493*
X438682Y381285*
X438833Y381181*
X439060*
X439211Y381285*
X439362Y381493*
X440043Y382636D02*
Y381181D01*
Y382012D02*
X440119Y382324D01*
X440270Y382532*
X440421Y382636*
X440648*
X441328Y383780D02*
X441480Y383572D01*
X441631Y383260*
X441782Y382844*
X441858Y382324*
Y381909*
X441782Y381389*
X441631Y380973*
X441480Y380661*
X441328Y380453*
X411690Y367490D02*
Y367594D01*
X411765Y367802*
X411841Y367906*
X411992Y368010*
X412295*
X412446Y367906*
X412521Y367802*
X412597Y367594*
Y367386*
X412521Y367178*
X412370Y366866*
X411614Y365826*
X412673*
X413807Y368010D02*
X413580Y367906D01*
X413429Y367594*
X413353Y367074*
Y366762*
X413429Y366242*
X413580Y365930*
X413807Y365826*
X413958*
X414185Y365930*
X414336Y366242*
X414412Y366762*
Y367074*
X414336Y367594*
X414185Y367906*
X413958Y368010*
X413807*
X415092Y367594D02*
X415243Y367698D01*
X415470Y368010*
Y365826*
X417134Y367282D02*
X417058Y366970D01*
X416907Y366762*
X416680Y366658*
X416604*
X416378Y366762*
X416226Y366970*
X416151Y367282*
Y367386*
X416226Y367698*
X416378Y367906*
X416604Y368010*
X416680*
X416907Y367906*
X417058Y367698*
X417134Y367282*
Y366762*
X417058Y366242*
X416907Y365930*
X416680Y365826*
X416529*
X416302Y365930*
X416226Y366138*
X417890Y366034D02*
X417814Y365930D01*
X417890Y365826*
X417965Y365930*
X417890Y366034*
X418646Y367594D02*
X418797Y367698D01*
X419024Y368010*
Y365826*
X420158Y368010D02*
X419931Y367906D01*
X419780Y367594*
X419704Y367074*
Y366762*
X419780Y366242*
X419931Y365930*
X420158Y365826*
X420309*
X420536Y365930*
X420687Y366242*
X420763Y366762*
Y367074*
X420687Y367594*
X420536Y367906*
X420309Y368010*
X420158*
X421519Y366034D02*
X421443Y365930D01*
X421519Y365826*
X421594Y365930*
X421519Y366034*
X422275Y367594D02*
X422426Y367698D01*
X422653Y368010*
Y365826*
X423333Y367594D02*
X423485Y367698D01*
X423712Y368010*
Y365826*
X411614Y373128D02*
Y370945D01*
Y373128D02*
X412295D01*
X412521Y373024*
X412597Y372920*
X412673Y372712*
Y372504*
X412597Y372296*
X412521Y372192*
X412295Y372088*
X411614*
X412143D02*
X412673Y370945D01*
X413731Y372400D02*
X413580Y372296D01*
X413429Y372088*
X413353Y371776*
Y371568*
X413429Y371256*
X413580Y371049*
X413731Y370945*
X413958*
X414109Y371049*
X414260Y371256*
X414336Y371568*
Y371776*
X414260Y372088*
X414109Y372296*
X413958Y372400*
X413731*
X415017Y373128D02*
Y370945D01*
Y372088D02*
X415168Y372296D01*
X415319Y372400*
X415546*
X415697Y372296*
X415848Y372088*
X415924Y371776*
Y371568*
X415848Y371256*
X415697Y371049*
X415546Y370945*
X415319*
X415168Y371049*
X415017Y371256*
X416982Y372400D02*
X416831Y372296D01*
X416680Y372088*
X416604Y371776*
Y371568*
X416680Y371256*
X416831Y371049*
X416982Y370945*
X417209*
X417360Y371049*
X417512Y371256*
X417587Y371568*
Y371776*
X417512Y372088*
X417360Y372296*
X417209Y372400*
X416982*
X418495Y373128D02*
Y371360D01*
X418570Y371049*
X418721Y370945*
X418873*
X418268Y372400D02*
X418797D01*
X419553Y373128D02*
X419629Y373024D01*
X419704Y373128*
X419629Y373232*
X419553Y373128*
X419629Y372400D02*
Y370945D01*
X421216Y372088D02*
X421141Y372296D01*
X420914Y372400*
X420687*
X420460Y372296*
X420385Y372088*
X420460Y371880*
X420612Y371776*
X420990Y371672*
X421141Y371568*
X421216Y371360*
Y371256*
X421141Y371049*
X420914Y370945*
X420687*
X420460Y371049*
X420385Y371256*
X475966Y366905D02*
Y365354D01*
X475591Y366905D02*
X476342D01*
X476825Y365945D02*
X477470D01*
Y366093*
X477416Y366240*
X477362Y366314*
X477255Y366388*
X477094*
X476986Y366314*
X476879Y366166*
X476825Y365945*
Y365797*
X476879Y365576*
X476986Y365428*
X477094Y365354*
X477255*
X477362Y365428*
X477470Y365576*
X477953Y366905D02*
Y365354D01*
X478490Y365502D02*
X478436Y365428D01*
X478490Y365354*
X478543Y365428*
X478490Y365502*
X479349Y366905D02*
X479188Y366831D01*
X479080Y366609*
X479026Y366240*
Y366019*
X479080Y365650*
X479188Y365428*
X479349Y365354*
X479456*
X479617Y365428*
X479724Y365650*
X479778Y366019*
Y366240*
X479724Y366609*
X479617Y366831*
X479456Y366905*
X479349*
X480369D02*
X480959D01*
X480637Y366314*
X480798*
X480906Y366240*
X480959Y366166*
X481013Y365945*
Y365797*
X480959Y365576*
X480852Y365428*
X480691Y365354*
X480530*
X480369Y365428*
X480315Y365502*
X480261Y365650*
X481496Y366609D02*
X481603Y366683D01*
X481764Y366905*
Y365354*
X482248Y366019D02*
X483214D01*
X483805Y366905D02*
X484395D01*
X484073Y366314*
X484234*
X484341Y366240*
X484395Y366166*
X484449Y365945*
Y365797*
X484395Y365576*
X484288Y365428*
X484127Y365354*
X483966*
X483805Y365428*
X483751Y365502*
X483697Y365650*
X485630Y366388D02*
X485576Y366166D01*
X485469Y366019*
X485308Y365945*
X485254*
X485093Y366019*
X484986Y366166*
X484932Y366388*
Y366462*
X484986Y366683*
X485093Y366831*
X485254Y366905*
X485308*
X485469Y366831*
X485576Y366683*
X485630Y366388*
Y366019*
X485576Y365650*
X485469Y365428*
X485308Y365354*
X485200*
X485039Y365428*
X484986Y365576*
X486811Y366388D02*
X486757Y366166D01*
X486650Y366019*
X486489Y365945*
X486435*
X486274Y366019*
X486167Y366166*
X486113Y366388*
Y366462*
X486167Y366683*
X486274Y366831*
X486435Y366905*
X486489*
X486650Y366831*
X486757Y366683*
X486811Y366388*
Y366019*
X486757Y365650*
X486650Y365428*
X486489Y365354*
X486382*
X486220Y365428*
X486167Y365576*
X487294Y366019D02*
X488261D01*
X488797Y366535D02*
Y366609D01*
X488851Y366757*
X488905Y366831*
X489012Y366905*
X489227*
X489334Y366831*
X489388Y366757*
X489442Y366609*
Y366462*
X489388Y366314*
X489281Y366093*
X488744Y365354*
X489495*
X490247Y366905D02*
X490086Y366831D01*
X490032Y366683*
Y366535*
X490086Y366388*
X490193Y366314*
X490408Y366240*
X490569Y366166*
X490676Y366019*
X490730Y365871*
Y365650*
X490676Y365502*
X490623Y365428*
X490462Y365354*
X490247*
X490086Y365428*
X490032Y365502*
X489979Y365650*
Y365871*
X490032Y366019*
X490140Y366166*
X490301Y366240*
X490515Y366314*
X490623Y366388*
X490676Y366535*
Y366683*
X490623Y366831*
X490462Y366905*
X490247*
X491482D02*
X491321Y366831D01*
X491267Y366683*
Y366535*
X491321Y366388*
X491428Y366314*
X491643Y366240*
X491804Y366166*
X491911Y366019*
X491965Y365871*
Y365650*
X491911Y365502*
X491858Y365428*
X491696Y365354*
X491482*
X491321Y365428*
X491267Y365502*
X491213Y365650*
Y365871*
X491267Y366019*
X491374Y366166*
X491535Y366240*
X491750Y366314*
X491858Y366388*
X491911Y366535*
Y366683*
X491858Y366831*
X491696Y366905*
X491482*
X492502Y366535D02*
Y366609D01*
X492555Y366757*
X492609Y366831*
X492717Y366905*
X492931*
X493039Y366831*
X493092Y366757*
X493146Y366609*
Y366462*
X493092Y366314*
X492985Y366093*
X492448Y365354*
X493200*
X475591Y370577D02*
Y368898D01*
Y369697D02*
X475765Y369937D01*
X475881Y370017*
X476056*
X476172Y369937*
X476230Y369697*
Y368898*
X476928Y370577D02*
Y369218D01*
X476986Y368978*
X477103Y368898*
X477219*
X476754Y370017D02*
X477161D01*
X477917Y370577D02*
Y369218D01*
X477975Y368978*
X478091Y368898*
X478208*
X477742Y370017D02*
X478150D01*
X478731D02*
Y368338D01*
Y369777D02*
X478848Y369937D01*
X478964Y370017*
X479138*
X479255Y369937*
X479371Y369777*
X479429Y369537*
Y369377*
X479371Y369138*
X479255Y368978*
X479138Y368898*
X478964*
X478848Y368978*
X478731Y369138*
X480011Y370017D02*
X479953Y369937D01*
X480011Y369857*
X480069Y369937*
X480011Y370017*
Y369058D02*
X479953Y368978D01*
X480011Y368898*
X480069Y368978*
X480011Y369058*
X481639Y370897D02*
X480592Y368338D01*
X483210Y370897D02*
X482163Y368338D01*
X483733Y370017D02*
X483966Y368898D01*
X484198Y370017D02*
X483966Y368898D01*
X484198Y370017D02*
X484431Y368898D01*
X484664Y370017D02*
X484431Y368898D01*
X485187Y370017D02*
X485420Y368898D01*
X485652Y370017D02*
X485420Y368898D01*
X485652Y370017D02*
X485885Y368898D01*
X486118Y370017D02*
X485885Y368898D01*
X486641Y370017D02*
X486874Y368898D01*
X487106Y370017D02*
X486874Y368898D01*
X487106Y370017D02*
X487339Y368898D01*
X487572Y370017D02*
X487339Y368898D01*
X488153Y369058D02*
X488095Y368978D01*
X488153Y368898*
X488211Y368978*
X488153Y369058*
X488793Y370017D02*
X489142Y368898D01*
X489491Y370017D02*
X489142Y368898D01*
X489026Y368578*
X488909Y368418*
X488793Y368338*
X488735*
X490305Y370017D02*
X490189Y369937D01*
X490072Y369777*
X490014Y369537*
Y369377*
X490072Y369138*
X490189Y368978*
X490305Y368898*
X490480*
X490596Y368978*
X490712Y369138*
X490770Y369377*
Y369537*
X490712Y369777*
X490596Y369937*
X490480Y370017*
X490305*
X491294D02*
Y369218D01*
X491352Y368978*
X491468Y368898*
X491643*
X491759Y368978*
X491934Y369218*
Y370017D02*
Y368898D01*
X492457Y370577D02*
X492515Y370497D01*
X492573Y370577*
X492515Y370657*
X492457Y370577*
X492515Y370017D02*
Y368898D01*
X493097Y370577D02*
Y368898D01*
X494318Y369777D02*
X494202Y369937D01*
X494086Y370017*
X493911*
X493795Y369937*
X493678Y369777*
X493620Y369537*
Y369377*
X493678Y369138*
X493795Y368978*
X493911Y368898*
X494086*
X494202Y368978*
X494318Y369138*
X495540Y370017D02*
Y368898D01*
Y369777D02*
X495423Y369937D01*
X495307Y370017*
X495132*
X495016Y369937*
X494900Y369777*
X494842Y369537*
Y369377*
X494900Y369138*
X495016Y368978*
X495132Y368898*
X495307*
X495423Y368978*
X495540Y369138*
X496761Y370577D02*
Y368898D01*
Y369777D02*
X496645Y369937D01*
X496528Y370017*
X496354*
X496237Y369937*
X496121Y369777*
X496063Y369537*
Y369377*
X496121Y369138*
X496237Y368978*
X496354Y368898*
X496528*
X496645Y368978*
X496761Y369138*
X497343Y369058D02*
X497284Y368978D01*
X497343Y368898*
X497401Y368978*
X497343Y369058*
X498622Y369777D02*
X498506Y369937D01*
X498389Y370017*
X498215*
X498099Y369937*
X497982Y369777*
X497924Y369537*
Y369377*
X497982Y369138*
X498099Y368978*
X498215Y368898*
X498389*
X498506Y368978*
X498622Y369138*
X499436Y370017D02*
X499320Y369937D01*
X499204Y369777*
X499145Y369537*
Y369377*
X499204Y369138*
X499320Y368978*
X499436Y368898*
X499611*
X499727Y368978*
X499843Y369138*
X499902Y369377*
Y369537*
X499843Y369777*
X499727Y369937*
X499611Y370017*
X499436*
X500483Y369058D02*
X500425Y368978D01*
X500483Y368898*
X500541Y368978*
X500483Y369058*
X501065Y370577D02*
Y368898D01*
X501646Y370017D02*
X501065Y369218D01*
X501297Y369537D02*
X501705Y368898D01*
X502228Y370017D02*
Y368898D01*
Y369537D02*
X502286Y369777D01*
X502402Y369937*
X502519Y370017*
X502693*
X446161Y368010D02*
Y365826D01*
Y368010D02*
X446691D01*
X446918Y367906*
X446918D02*
X447069Y367698D01*
X447144Y367490*
X447220Y367178*
Y366658*
X447144Y366346*
X447069Y366138*
X446918Y365930*
X446918D02*
X446691Y365826D01*
X446161*
X447900Y368010D02*
Y365826D01*
Y368010D02*
X448883D01*
X447900Y366970D02*
X448505D01*
X447900Y365826D02*
X448883D01*
X450622Y367698D02*
X450471Y367906D01*
X450244Y368010*
X449942*
X449715Y367906*
X449564Y367698*
Y367490*
X449639Y367282*
X449715Y367178*
X449866Y367074*
X450320Y366866*
X450471Y366762*
X450547Y366658*
X450622Y366450*
Y366138*
X450471Y365930*
X450244Y365826*
X449942*
X449715Y365930*
X449564Y366138*
X451303Y368010D02*
Y365826D01*
X453117Y367490D02*
X453042Y367698D01*
X452891Y367906*
X452739Y368010*
X452437*
X452286Y367906*
X452134Y367698*
X452059Y367490*
X451983Y367178*
Y366658*
X452059Y366346*
X452134Y366138*
X452286Y365930*
X452437Y365826*
X452739*
X452891Y365930*
X453042Y366138*
X453117Y366346*
Y366658*
X452739D02*
X453117D01*
X453798Y368010D02*
Y365826D01*
Y368010D02*
X454856Y365826D01*
Y368010D02*
Y365826D01*
X455537Y368010D02*
Y365826D01*
Y368010D02*
X456520D01*
X455537Y366970D02*
X456142D01*
X455537Y365826D02*
X456520D01*
X457200Y368010D02*
Y365826D01*
Y368010D02*
X457881D01*
X458108Y367906*
X458183Y367802*
X458259Y367594*
Y367386*
X458183Y367178*
X458108Y367074*
X457881Y366970*
X457200*
X457730D02*
X458259Y365826D01*
X447220Y377934D02*
X447069Y378142D01*
X446842Y378246*
X446539*
X446313Y378142*
X446161Y377934*
Y377726*
X446237Y377518*
X446313Y377414*
X446464Y377310*
X446918Y377102*
X446918D02*
X447069Y376998D01*
X447144Y376894*
X447220Y376686*
Y376375*
X447069Y376167*
X446842Y376063*
X446539*
X446313Y376167*
X446161Y376375*
X448430Y378246D02*
Y376063D01*
X447900Y378246D02*
X448959D01*
X450244D02*
X449639Y376063D01*
X450244Y378246D02*
X450849Y376063D01*
X449866Y376790D02*
X450622D01*
X452664Y377726D02*
X452588Y377934D01*
X452437Y378142*
X452286Y378246*
X451983*
X451832Y378142*
X451681Y377934*
X451605Y377726*
X451530Y377414*
Y376894*
X451605Y376582*
X451681Y376375*
X451832Y376167*
X451983Y376063*
X452286*
X452437Y376167*
X452588Y376375*
X452664Y376582*
Y376894*
X452286D02*
X452664D01*
X453344Y378246D02*
Y376063D01*
Y378246D02*
X454327D01*
X453344Y377206D02*
X453949D01*
X453344Y376063D02*
X454327D01*
X396260Y368010D02*
Y365826D01*
Y368010D02*
X396789D01*
X397016Y367906*
X397167Y367698*
X397243Y367490*
X397318Y367178*
Y366658*
X397243Y366346*
X397167Y366138*
X397016Y365930*
X396789Y365826*
X396260*
X398604Y368010D02*
X397999Y365826D01*
X398604Y368010D02*
X399209Y365826D01*
X398226Y366554D02*
X398982D01*
X400418Y368010D02*
Y365826D01*
X399889Y368010D02*
X400948D01*
X401628D02*
Y365826D01*
Y368010D02*
X402611D01*
X401628Y366970D02*
X402233D01*
X401628Y365826D02*
X402611D01*
X396260Y383364D02*
Y381181D01*
Y383364D02*
X396865Y381181D01*
X397470Y383364D02*
X396865Y381181D01*
X397470Y383364D02*
Y381181D01*
X398604Y383364D02*
X398452Y383260D01*
X398301Y383052*
X398226Y382844*
X398150Y382532*
Y382012*
X398226Y381701*
X398301Y381493*
X398452Y381285*
X398604Y381181*
X398906*
X399057Y381285*
X399209Y381493*
X399284Y381701*
X399360Y382012*
Y382532*
X399284Y382844*
X399209Y383052*
X399057Y383260*
X398906Y383364*
X398604*
X400040D02*
Y381181D01*
Y383364D02*
X400570D01*
X400796Y383260*
X400948Y383052*
X401023Y382844*
X401099Y382532*
Y382012*
X401023Y381701*
X400948Y381493*
X400796Y381285*
X400570Y381181*
X400040*
X401779Y383364D02*
Y381181D01*
Y383364D02*
X402762D01*
X401779Y382324D02*
X402384D01*
X401779Y381181D02*
X402762D01*
X403443Y383364D02*
Y381181D01*
X404350*
X396260Y378246D02*
Y376063D01*
X397167*
X398452Y378246D02*
X397848Y376063D01*
X398452Y378246D02*
X399057Y376063D01*
X398074Y376790D02*
X398831D01*
X399738Y378246D02*
X400343Y377206D01*
Y376063*
X400948Y378246D02*
X400343Y377206D01*
X401628Y378246D02*
Y376063D01*
Y378246D02*
X402611D01*
X401628Y377206D02*
X402233D01*
X401628Y376063D02*
X402611D01*
X403291Y378246D02*
Y376063D01*
Y378246D02*
X403972D01*
X404199Y378142*
X404274Y378038*
X404350Y377830*
Y377622*
X404274Y377414*
X404199Y377310*
X403972Y377206*
X403291*
X403821D02*
X404350Y376063D01*
X397394Y372608D02*
X397318Y372816D01*
X397167Y373024*
X397016Y373128*
X396713*
X396562Y373024*
X396411Y372816*
X396335Y372608*
X396260Y372296*
Y371776*
X396335Y371464*
X396411Y371256*
X396562Y371049*
X396713Y370945*
X397016*
X397167Y371049*
X397318Y371256*
X397394Y371464*
X398528Y373128D02*
X398377Y373024D01*
X398226Y372816*
X398150Y372608*
X398074Y372296*
Y371776*
X398150Y371464*
X398226Y371256*
X398377Y371049*
X398528Y370945*
X398831*
X398982Y371049*
X399133Y371256*
X399209Y371464*
X399284Y371776*
Y372296*
X399209Y372608*
X399133Y372816*
X398982Y373024*
X398831Y373128*
X398528*
X399965D02*
Y370945D01*
Y373128D02*
X400570Y370945D01*
X401174Y373128D02*
X400570Y370945D01*
X401174Y373128D02*
Y370945D01*
X401855Y373128D02*
Y370945D01*
Y373128D02*
X402535D01*
X402762Y373024*
X402838Y372920*
X402913Y372712*
Y372400*
X402838Y372192*
X402762Y372088*
X402535Y371984*
X401855*
X404199Y373128D02*
X403594Y370945D01*
X404199Y373128D02*
X404804Y370945D01*
X403821Y371672D02*
X404577D01*
X405484Y373128D02*
Y370945D01*
Y373128D02*
X406543Y370945D01*
Y373128D02*
Y370945D01*
X407223Y373128D02*
X407828Y372088D01*
Y370945*
X408433Y373128D02*
X407828Y372088D01*
X462795Y368010D02*
Y365826D01*
X463703*
X464459Y366034D02*
X464383Y365930D01*
X464459Y365826*
X464534Y365930*
X464459Y366034*
X466273Y367698D02*
X466122Y367906D01*
X465895Y368010*
X465593*
X465366Y367906*
X465215Y367698*
Y367490*
X465290Y367282*
X465366Y367178*
X465517Y367074*
X465971Y366866*
X466122Y366762*
X466198Y366658*
X466273Y366450*
Y366138*
X466122Y365930*
X465895Y365826*
X465593*
X465366Y365930*
X465215Y366138*
X467029Y366034D02*
X466954Y365930D01*
X467029Y365826*
X467105Y365930*
X467029Y366034*
X467785Y368010D02*
Y365826D01*
X468844Y368010D02*
X467785Y366554D01*
X468163Y367074D02*
X468844Y365826D01*
X446691Y373128D02*
Y370945D01*
X446161Y373128D02*
X447220D01*
X447900D02*
Y370945D01*
X448959Y373128D02*
Y370945D01*
X447900Y372088D02*
X448959D01*
X449639Y373128D02*
Y370945D01*
X451454Y372608D02*
X451378Y372816D01*
X451227Y373024*
X451076Y373128*
X450774*
X450622Y373024*
X450471Y372816*
X450395Y372608*
X450320Y372296*
Y371776*
X450395Y371464*
X450471Y371256*
X450622Y371049*
X450774Y370945*
X451076*
X451227Y371049*
X451378Y371256*
X451454Y371464*
X452134Y373128D02*
Y370945D01*
X453193Y373128D02*
X452134Y371672D01*
X452513Y372192D02*
X453193Y370945D01*
X453873Y373128D02*
Y370945D01*
Y373128D02*
X454932Y370945D01*
Y373128D02*
Y370945D01*
X455612Y373128D02*
Y370945D01*
Y373128D02*
X456595D01*
X455612Y372088D02*
X456217D01*
X455612Y370945D02*
X456595D01*
X458334Y372816D02*
X458183Y373024D01*
X457956Y373128*
X457654*
X457427Y373024*
X457276Y372816*
Y372608*
X457351Y372400*
X457427Y372296*
X457578Y372192*
X458032Y371984*
X458183Y371880*
X458259Y371776*
X458334Y371568*
Y371256*
X458183Y371049*
X457956Y370945*
X457654*
X457427Y371049*
X457276Y371256*
X460073Y372816D02*
X459922Y373024D01*
X459695Y373128*
X459393*
X459166Y373024*
X459015Y372816*
Y372608*
X459090Y372400*
X459166Y372296*
X459317Y372192*
X459771Y371984*
X459922Y371880*
X459998Y371776*
X460073Y371568*
Y371256*
X459922Y371049*
X459695Y370945*
X459393*
X459166Y371049*
X459015Y371256*
X462795Y378246D02*
Y376063D01*
Y378246D02*
X463476D01*
X463703Y378142*
X463778Y378038*
X463854Y377830*
Y377622*
X463778Y377414*
X463703Y377310*
X463476Y377206*
X462795*
X463325D02*
X463854Y376063D01*
X464534Y378246D02*
Y376063D01*
Y378246D02*
X465517D01*
X464534Y377206D02*
X465139D01*
X464534Y376063D02*
X465517D01*
X466198Y378246D02*
X466803Y376063D01*
X467407Y378246D02*
X466803Y376063D01*
X468088Y378246D02*
Y376063D01*
Y378246D02*
X469071D01*
X468088Y377206D02*
X468693D01*
X506299Y379377D02*
Y377362D01*
X507137*
X507835Y378898D02*
Y378994D01*
X507904Y379186*
X507974Y379281*
X508114Y379377*
X508393*
X508533Y379281*
X508602Y379186*
X508672Y378994*
Y378802*
X508602Y378610*
X508463Y378322*
X507765Y377362*
X508742*
X509370Y378226D02*
X510626D01*
X512301Y378898D02*
X512232Y379090D01*
X512092Y379281*
X511952Y379377*
X511673*
X511534Y379281*
X511394Y379090*
X511324Y378898*
X511254Y378610*
Y378130*
X511324Y377842*
X511394Y377650*
X511534Y377458*
X511673Y377362*
X511952*
X512092Y377458*
X512232Y377650*
X512301Y377842*
Y378130*
X511952D02*
X512301D01*
X512929Y379377D02*
Y377362D01*
Y379377D02*
X513907Y377362D01*
Y379377D02*
Y377362D01*
X514535Y379377D02*
Y377362D01*
Y379377D02*
X515023D01*
X515233Y379281*
X515372Y379090*
X515442Y378898*
X515512Y378610*
Y378130*
X515442Y377842*
X515372Y377650*
X515233Y377458*
X515023Y377362*
X514535*
X411614Y378246D02*
Y376063D01*
X412521*
X413278Y377726D02*
Y377830D01*
X413353Y378038*
X413429Y378142*
X413580Y378246*
X413882*
X414034Y378142*
X414109Y378038*
X414185Y377830*
Y377622*
X414109Y377414*
X413958Y377102*
X413202Y376063*
X414260*
X414941Y376998D02*
X416302D01*
X416982Y378246D02*
Y376063D01*
X417663Y378246D02*
Y376063D01*
Y378246D02*
X418721Y376063D01*
Y378246D02*
Y376063D01*
X419931Y378246D02*
Y376063D01*
X419402Y378246D02*
X420460D01*
X421141Y377830D02*
X421292Y377934D01*
X421519Y378246*
Y376063*
G54D26*
X428740Y413651D02*
G03X429346Y412190I2067J0D01*
G01X428740Y413651D02*
Y419419D01*
X433609Y410000D02*
X431024Y410511D01*
X431535Y407927*
X432723Y409665D02*
X431024Y410511D01*
X432246Y409290*
X431024Y410511D02*
X431870Y408813D01*
X434055Y407480D02*
X429346Y412190D01*
X451234Y410000D02*
X453818Y410511D01*
X453307Y407927*
X452120Y409665D02*
X453818Y410511D01*
X452597Y409290*
X453818Y410511D02*
X452972Y408813D01*
X450787Y407480D02*
X476166Y432859D01*
X429346Y420881D02*
G03X428740Y419419I1461J-1462D01*
G01X429346Y420881D02*
X429906Y421442D01*
X431368Y422047D02*
G03X429906Y421442I-0J-2067D01*
G01X431368Y422047D02*
X437136D01*
G03X438598Y422653I-0J2067*
G01X440733Y424788*
G03X441339Y426250I-1461J1462*
G01Y430837*
X441944Y432298D02*
G03X441339Y430837I1462J-1461D01*
G01X441944Y432298D02*
X448017Y438371D01*
X437333Y417323D02*
G03X438794Y417928I-0J2067D01*
G01X444080Y423214*
X436378Y418397D02*
X437333Y417323D01*
X436378Y416249*
X436599Y417598D02*
X437333Y417323D01*
X436599Y417048*
X434055Y417323D02*
X437333D01*
X449478Y438976D02*
G03X448017Y438371I0J-2067D01*
G01X449478Y438976D02*
X526575D01*
X444080Y423214D02*
G03X444685Y424675I-1462J1461D01*
G01Y430246*
X445290Y431708D02*
G03X444685Y430246I1462J-1462D01*
G01X445290Y431708D02*
X449198Y435615D01*
X450659Y436220D02*
G03X449198Y435615I0J-2066D01*
G01X450659Y436220D02*
X516664D01*
X477628Y433465D02*
G03X476166Y432859I-0J-2067D01*
G01X477628Y433465D02*
X502687D01*
X518125Y435615D02*
G03X516664Y436220I-1461J-1461D01*
G01X504149Y432859D02*
G03X502687Y433465I-1462J-1461D01*
G01X509396Y429685D02*
X506812Y430196D01*
X507323Y427612*
X508510Y429350D02*
X506812Y430196D01*
X508033Y428975*
X506812Y430196D02*
X507658Y428498D01*
X509843Y427165D02*
X504149Y432859D01*
X526160Y439533D02*
X522767Y438976D01*
X524016Y436969*
X524748Y438800D02*
X522767Y438976D01*
X524364Y438296*
X522767Y438976D02*
X524127Y437755D01*
X526575Y437008D02*
Y438976D01*
X526128Y429685D02*
X523544Y430196D01*
X524055Y427612*
X525242Y429350D02*
X523544Y430196D01*
X524765Y428975*
X523544Y430196D02*
X524390Y428498D01*
X526575Y427165D02*
X518125Y435615D01*
G54D27*
X461614Y399606D03*
Y403543D03*
Y407480D03*
G54D31*
X401575Y518937D03*
G54D33*
X559055Y461378D03*
G54D54*
X525315Y559134D03*
X515315D03*
X505315D03*
X495315D03*
X485315D03*
X475315D03*
X465315D03*
X455315D03*
X445315D03*
X435315D03*
X401575Y439882D03*
X526575Y407480D03*
Y427165D03*
Y437008D03*
X434055D03*
Y417323D03*
Y407480D03*
X509843D03*
Y427165D03*
X450787D03*
Y407480D03*
G54D67*
X442913Y413386D03*
X432087Y397638D03*
X423228Y407480D03*
Y397638D03*
X443898D03*
X456693D03*
X502953Y400591D03*
Y405512D03*
X518701Y401575D03*
Y405512D03*
X506890Y397638D03*
X522638D03*
X534449D03*
Y408465D03*
X396654Y438976D03*
X441929Y440945D03*
Y437992D03*
X426378Y425591D03*
Y428150D03*
X438976Y442913D03*
X431102D03*
X423228D03*
Y437992D03*
Y431102D03*
Y423228D03*
Y416339D03*
X407480Y426181D03*
X411417Y450787D03*
X413386Y444882D03*
X406496D03*
X411417Y427165D03*
X414370D03*
Y430118D03*
Y433071D03*
X411417Y439961D03*
X408465D03*
X414370Y450787D03*
X426378Y422835D03*
Y431102D03*
X460630Y429134D03*
X457677D03*
Y432087D03*
X481299Y442913D03*
X459646D03*
X454724D03*
X447835D03*
X482283Y449803D03*
X476378Y451772D03*
X482283Y426772D03*
X479921D03*
Y429134D03*
X482283D03*
X516732Y431102D03*
Y423228D03*
X502953Y429134D03*
Y423228D03*
X497047D03*
X515748Y443898D03*
X508858Y442913D03*
X502953D03*
X504921Y448819D03*
X500000D03*
X493504Y449409D03*
X491142D03*
X495866D03*
X493307Y429134D03*
X534449Y418307D03*
Y430118D03*
Y442913D03*
X526575D03*
X554134Y437992D03*
X553150Y449803D03*
X549213Y438976D03*
X539370Y437008D03*
Y431102D03*
Y423228D03*
X550197D03*
X562992D03*
X533268Y449016D03*
X557087Y430118D03*
X552165Y433071D03*
X549213Y452756D03*
X563976Y437992D03*
Y453740D03*
X402559Y467520D03*
X396654Y454724D03*
Y472441D03*
Y466535D03*
X430118Y478346D03*
X409449Y456693D03*
X407480Y472441D03*
Y485236D03*
X433071Y460630D03*
Y463583D03*
X438976Y465551D03*
Y462598D03*
X441929D03*
Y465551D03*
X415157Y483071D03*
X431890Y483858D03*
X441929Y474409D03*
X424213Y458661D03*
X429724D03*
X426969D03*
X415354D03*
X417323D03*
X419291D03*
X438976Y469291D03*
X436024Y456693D03*
X449803Y471457D03*
X476378Y459646D03*
X453740Y481299D03*
X443898Y488189D03*
X460630Y490157D03*
X468307Y494094D03*
X454724Y490157D03*
X471457Y467520D03*
X468504D03*
X462598Y459646D03*
X465551D03*
X470472D03*
Y456693D03*
X467520D03*
X449606Y481299D03*
X457874Y481102D03*
X445866Y485236D03*
X522638Y489567D03*
X492126Y461024D03*
X500000Y456693D03*
X501181Y460827D03*
X500197Y477953D03*
X516142Y454921D03*
X514764Y468701D03*
X491142Y477756D03*
X536417Y471457D03*
X541339Y466535D03*
X553150Y474409D03*
Y483268D03*
X547244D03*
X542323Y478346D03*
X534449D03*
X549213Y458661D03*
X525591Y467520D03*
X537402Y456693D03*
X530512Y494094D03*
X526969Y476181D03*
X552165Y462598D03*
X408465Y499016D03*
X415354Y504921D03*
X407480D03*
X413386Y514764D03*
X424213Y517717D03*
X423228Y522441D03*
X436024Y521850D03*
X408465Y520669D03*
X433071Y503937D03*
X416142Y498622D03*
X432874Y507874D03*
X471457Y534449D03*
X450787D03*
X454724Y520669D03*
X448819D03*
X467520Y522638D03*
X475394D03*
X474606Y519291D03*
X468701D03*
X457283Y498622D03*
X480906Y502953D03*
X508858Y495079D03*
X490157Y533465D03*
X488189Y522638D03*
X495079D03*
Y515748D03*
X488189D03*
X507874Y522638D03*
X513780D03*
Y515748D03*
X507874D03*
X515748Y497047D03*
X512795D03*
X496654D03*
X540354Y527559D03*
X527559Y522638D03*
X526575Y515748D03*
X532480D03*
X547244Y531496D03*
X531496D03*
X562992Y528543D03*
Y519685D03*
X549213Y502953D03*
X554134Y499016D03*
X562992Y504921D03*
Y498031D03*
X546260Y496063D03*
X530512Y496260D03*
X545276Y519685D03*
X550197D03*
X397638Y562992D03*
X396654Y544291D03*
Y535433D03*
X423031Y541339D03*
X541339Y536417D03*
X537402Y543307D03*
X531496Y551181D03*
X532480Y562992D03*
X542323D03*
X562992D03*
Y544291D03*
Y537402D03*
X526575Y412008D02*
Y410630D01*
X522047Y407480D02*
X523425D01*
X526575Y402953D02*
Y404331D01*
X531102Y407480D02*
X529724D01*
X509843Y412008D02*
Y410630D01*
X505315Y407480D02*
X506693D01*
X509843Y402953D02*
Y404331D01*
X514370Y407480D02*
X512992D01*
X450787Y422638D02*
Y424016D01*
X455315Y427165D02*
X453937D01*
X450787Y431693D02*
Y430315D01*
X434055Y432480D02*
Y433858D01*
X438583Y437008D02*
X437205D01*
X434055Y441535D02*
Y440157D01*
X429528Y437008D02*
X430906D01*
X489665Y459843D02*
Y458465D01*
Y453543D02*
Y454921D01*
X559252Y507874D02*
X557874D01*
X555118Y512008D02*
Y507874D01*
X550984D02*
X552362D01*
X555118Y503740D02*
Y507874D01*
X435315Y554606D02*
Y555984D01*
X439843Y559134D02*
X438465D01*
X435315Y563661D02*
Y562283D01*
X430787Y559134D02*
X432165D01*
X525315Y554606D02*
Y555984D01*
X529843Y559134D02*
X528465D01*
X525315Y563661D02*
Y562283D01*
X520787Y559134D02*
X522165D01*
X397047Y439882D02*
X398425D01*
X401575Y435354D02*
Y436732D01*
X406102Y439882D02*
X404724D01*
X401575Y444409D02*
Y443031D01*
X559055Y465906D02*
Y464528D01*
X554528Y461378D02*
X559055D01*
Y456850D02*
Y458228D01*
X563583Y461378D02*
X559055D01*
X515315Y554606D02*
Y555984D01*
X519843Y559134D02*
X518465D01*
X515315Y563661D02*
Y562283D01*
X510787Y559134D02*
X512165D01*
X505315Y554606D02*
Y555984D01*
X509843Y559134D02*
X508465D01*
X505315Y563661D02*
Y562283D01*
X500787Y559134D02*
X502165D01*
X495315Y554606D02*
Y555984D01*
X499843Y559134D02*
X498465D01*
X495315Y563661D02*
Y562283D01*
X490787Y559134D02*
X492165D01*
X485315Y554606D02*
Y555984D01*
X489843Y559134D02*
X488465D01*
X485315Y563661D02*
Y562283D01*
X480787Y559134D02*
X482165D01*
X475315Y554606D02*
Y555984D01*
X479843Y559134D02*
X478465D01*
X475315Y563661D02*
Y562283D01*
X470787Y559134D02*
X472165D01*
X465315Y554606D02*
Y555984D01*
X469843Y559134D02*
X468465D01*
X465315Y563661D02*
Y562283D01*
X460787Y559134D02*
X462165D01*
X455315Y554606D02*
Y555984D01*
X459843Y559134D02*
X458465D01*
X455315Y563661D02*
Y562283D01*
X450787Y559134D02*
X452165D01*
X445315Y554606D02*
Y555984D01*
X449843Y559134D02*
X448465D01*
X445315Y563661D02*
Y562283D01*
X440787Y559134D02*
X442165D01*
X396850Y518937D02*
X398228D01*
X406299D02*
X404921D01*
G54D70*
X489665Y456693D03*
G54D141*
X555118Y507874D03*
G74*
X0Y0D02*
M02*
