*
*
G04 PADS Layout (Build Number 2006.45.1) generated Gerber (RS-274-X) file*
G04 PC Version=2.1*
*
%IN "SENSORXEL_REVF(191008)-"*%
*
%MOIN*%
*
%FSLAX35Y35*%
*
*
*
*
G04 PC Standard Apertures*
*
*
G04 Thermal Relief Aperture macro.*
%AMTER*
1,1,$1,0,0*
1,0,$1-$2,0,0*
21,0,$3,$4,0,0,45*
21,0,$3,$4,0,0,135*
%
*
*
G04 Annular Aperture macro.*
%AMANN*
1,1,$1,0,0*
1,0,$2,0,0*
%
*
*
G04 Odd Aperture macro.*
%AMODD*
1,1,$1,0,0*
1,0,$1-0.005,0,0*
%
*
*
G04 PC Custom Aperture Macros*
*
*
*
*
*
*
G04 PC Aperture Table*
*
%ADD010C,0.00394*%
%ADD019R,0.02756X0.02756*%
%ADD023R,0.01969X0.01969*%
%ADD030R,0.06693X0.06693*%
%ADD031C,0.06693*%
%ADD033R,0.06299X0.06299*%
%ADD037C,0.15748*%
%ADD038R,0.03937X0.03937*%
%ADD053R,0.04724X0.04724*%
%ADD054C,0.06299*%
%ADD070C,0.03543*%
%ADD139C,0.05512*%
%ADD141R,0.05512X0.05512*%
%ADD146R,0.01181X0.01181*%
%ADD169R,0.0315X0.0315*%
%ADD170R,0.08661X0.08661*%
%ADD171R,0.03543X0.03543*%
*
*
*
*
G04 PC Custom Flashes*
G04 Layer Name SENSORXEL_REVF(191008)- - flashes*
%LPD*%
*
*
G04 PC Circuitry*
G04 Layer Name SENSORXEL_REVF(191008)- - circuitry*
%LPD*%
*
G54D10*
G01X393701Y566929D02*
Y393701D01*
X566929*
Y566929*
X393701*
X503740Y383760D02*
G75*
G03X502461Y385039I-1279J-0D01*
G01X394980*
G03X393701Y383760I0J-1279*
G01Y365846*
G03X394980Y364567I1279J0*
G01X502461*
G03X503740Y365846I-0J1279*
G01Y383760*
X474311Y385039D02*
Y364567D01*
Y379921D02*
X393701D01*
X474311Y374803D02*
X393701D01*
X461516Y374394D02*
Y364567D01*
X474311Y369685D02*
X393701D01*
X461516Y379921D02*
Y374394D01*
X444882Y379921D02*
Y364567D01*
X410335Y385039D02*
Y364567D01*
X482943Y372741D02*
X483245D01*
X482943Y372604D02*
X483245D01*
X482943Y372467D02*
X483245D01*
X482943Y372330D02*
X483245D01*
X482943Y372192D02*
X483245D01*
X491170Y380158D02*
G03X490629Y379617I-0J-541D01*
G01X491170Y380158D02*
X495477D01*
X496018Y379617D02*
G03X495477Y380158I-541J0D01*
G01X496018Y379617D02*
Y375342D01*
X495477Y374802D02*
G03X496018Y375342I0J540D01*
G01X495477Y374802D02*
X491170D01*
X490629Y375342D02*
G03X491170Y374802I541J0D01*
G01X490629Y375342D02*
Y379617D01*
X482241Y373845D02*
X482917Y372872D01*
Y372034*
X483268*
Y372872*
X483944Y373845*
X483619*
X483106Y373169*
X482566Y373845*
X482241*
X484863Y380223D02*
G03X484538Y379898I-0J-325D01*
G01X484863Y380223D02*
X487403D01*
X487727Y379898D02*
G03X487403Y380223I-324J0D01*
G01X487727Y379898D02*
Y377520D01*
X487403Y377196D02*
G03X487727Y377520I-0J324D01*
G01X487403Y377196D02*
X484863D01*
X484538Y377520D02*
G03X484863Y377196I325J0D01*
G01X484538Y377520D02*
Y379898D01*
X492537Y378439D02*
G03X492321Y378223I0J-216D01*
G01X492537Y378439D02*
X494213D01*
X494429Y378223D02*
G03X494213Y378439I-216J-0D01*
G01X494429Y378223D02*
Y376710D01*
X494213Y376493D02*
G03X494429Y376710I-0J217D01*
G01X494213Y376493D02*
X492537D01*
X492321Y376710D02*
G03X492537Y376493I216J-0D01*
G01X492321Y376710D02*
Y378223D01*
X484646Y373791D02*
G03X484322Y373467I0J-324D01*
G01X484646Y373791D02*
X485511D01*
X485835Y373467D02*
G03X485511Y373791I-324J-0D01*
G01X485835Y373467D02*
Y372440D01*
X485511Y372116D02*
G03X485835Y372440I0J324D01*
G01X485511Y372116D02*
X484646D01*
X484322Y372440D02*
G03X484646Y372116I324J-0D01*
G01X484322Y372440D02*
Y373467D01*
X482943Y382626D02*
X489148D01*
X482256Y382076D02*
X489834D01*
X482256Y381939D02*
X489889D01*
X482119Y381665D02*
X489943D01*
X482119Y381527D02*
X489943D01*
X482119Y381390D02*
X489943D01*
X482119Y381253D02*
X489943D01*
X482119Y381115D02*
X489943D01*
X482119Y380978D02*
X489943D01*
X482119Y380841D02*
X489943D01*
X482119Y380704D02*
X489943D01*
X482119Y380566D02*
X489943D01*
X482119Y380429D02*
X489943D01*
X482119Y380292D02*
X489943D01*
X491042Y380155D02*
X495600D01*
X487673D02*
X489943D01*
X482119D02*
X484646D01*
X490905Y380017D02*
X495780D01*
X487748D02*
X489943D01*
X482119D02*
X484480D01*
X490768Y379880D02*
X495888D01*
X487748D02*
X489943D01*
X482119D02*
X484480D01*
X490768Y379743D02*
X496012D01*
X487748D02*
X489943D01*
X482119D02*
X484480D01*
X490630Y379605D02*
X496012D01*
X487748D02*
X489943D01*
X482119D02*
X484480D01*
X490630Y379468D02*
X496012D01*
X487748D02*
X489943D01*
X482119D02*
X484480D01*
X490630Y379331D02*
X496012D01*
X487748D02*
X489943D01*
X482119D02*
X484480D01*
X490630Y379194D02*
X496012D01*
X487748D02*
X489943D01*
X482119D02*
X484480D01*
X490630Y379056D02*
X496012D01*
X487748D02*
X489943D01*
X482119D02*
X484480D01*
X490630Y378919D02*
X496012D01*
X487748D02*
X489943D01*
X482119D02*
X484480D01*
X490630Y378782D02*
X496012D01*
X487748D02*
X489943D01*
X482119D02*
X484480D01*
X490630Y378644D02*
X496012D01*
X487748D02*
X489943D01*
X482119D02*
X484480D01*
X490630Y378507D02*
X496012D01*
X487748D02*
X489943D01*
X482119D02*
X484480D01*
X494474Y378370D02*
X496012D01*
X490630D02*
X492305D01*
X487748D02*
X489943D01*
X482119D02*
X484480D01*
X494474Y378233D02*
X496012D01*
X490630D02*
X492305D01*
X487748D02*
X489943D01*
X482119D02*
X484480D01*
X494474Y378095D02*
X496012D01*
X490630D02*
X492305D01*
X487748D02*
X489943D01*
X482119D02*
X484480D01*
X494474Y377958D02*
X496012D01*
X490630D02*
X492305D01*
X487748D02*
X489943D01*
X482119D02*
X484480D01*
X494474Y377821D02*
X496012D01*
X490630D02*
X492305D01*
X487748D02*
X489943D01*
X482119D02*
X484480D01*
X494474Y377683D02*
X496012D01*
X490630D02*
X492305D01*
X487748D02*
X489943D01*
X482119D02*
X484480D01*
X494474Y377546D02*
X496012D01*
X490630D02*
X492305D01*
X487748D02*
X489943D01*
X482119D02*
X484480D01*
X494474Y377409D02*
X496012D01*
X490630D02*
X492305D01*
X487748D02*
X489943D01*
X482119D02*
X484480D01*
X494474Y377272D02*
X496012D01*
X490630D02*
X492305D01*
X487673D02*
X489943D01*
X482119D02*
X484592D01*
X494474Y377134D02*
X496012D01*
X490630D02*
X492305D01*
X482119D02*
X489943D01*
X494474Y376997D02*
X496012D01*
X490630D02*
X492305D01*
X482119D02*
X489943D01*
X494474Y376860D02*
X496012D01*
X490630D02*
X492305D01*
X482119D02*
X489943D01*
X494474Y376723D02*
X496012D01*
X490630D02*
X492305D01*
X482119D02*
X489943D01*
X494474Y376585D02*
X496012D01*
X490630D02*
X492305D01*
X482119D02*
X489943D01*
X490630Y376448D02*
X496012D01*
X482119D02*
X489943D01*
X490630Y376311D02*
X496012D01*
X482119D02*
X489943D01*
X490630Y376173D02*
X496012D01*
X482119D02*
X489943D01*
X490630Y376036D02*
X496012D01*
X482119D02*
X489943D01*
X490630Y375899D02*
X496012D01*
X482119D02*
X489943D01*
X490630Y375762D02*
X496012D01*
X482119D02*
X489943D01*
X490630Y375624D02*
X496012D01*
X482119D02*
X489943D01*
X490630Y375487D02*
X496012D01*
X482256D02*
X489943D01*
X490630Y375350D02*
X496012D01*
X482256D02*
X489834D01*
X490768Y375212D02*
X495964D01*
X482263D02*
X489834D01*
X490768Y375075D02*
X495875D01*
X482387D02*
X489697D01*
X490905Y374938D02*
X495769D01*
X482571D02*
X489560D01*
X491180Y374801D02*
X495467D01*
X482943D02*
X489186D01*
X483629Y373840D02*
X483931D01*
X482256D02*
X482558D01*
X483544Y373702D02*
X483819D01*
X482394D02*
X482641D01*
X483425Y373565D02*
X483706D01*
X482468D02*
X482760D01*
X483355Y373428D02*
X483657D01*
X482531D02*
X482833D01*
X483217Y373291D02*
X483506D01*
X482668D02*
X482970D01*
X482760Y373153D02*
X483441D01*
X482863Y373016D02*
X483306D01*
X482917Y372879D02*
X483247D01*
X486538Y373791D02*
Y372386D01*
G03X486754Y372170I216J-0*
G01X487457*
G03X487673Y372386I-0J216*
G01Y373791*
X488430D02*
Y372170D01*
X489132Y373791D02*
Y372170D01*
X490159*
X491943Y373359D02*
Y373575D01*
G03X491727Y373791I-216J-0*
G01X490970*
G03X490754Y373575I-0J-216*
G01Y372386*
G03X490970Y372170I216J-0*
G01X491727*
G03X491943Y372386I-0J216*
G01Y372602*
X482430Y382351D02*
X489673D01*
X482322Y382214D02*
X489781D01*
X482971Y382628D02*
G03X482106Y381763I-0J-865D01*
G01X482971Y382628D02*
X489105D01*
X489970Y381763D02*
G03X489105Y382628I-865J-0D01*
G01X489970Y381763D02*
Y375656D01*
X489105Y374791D02*
G03X489970Y375656I0J865D01*
G01X489105Y374791D02*
X482971D01*
X482106Y375656D02*
G03X482971Y374791I865J-0D01*
G01X482106Y375656D02*
Y381763D01*
X482160Y381802D02*
X489971D01*
X482593Y382488D02*
X489511D01*
X492645Y372170D02*
X493078Y373683D01*
X493510*
X493942Y372170*
X493726Y372818D02*
X492862D01*
X494699Y372926D02*
Y373791D01*
X495456*
X495888Y373359D02*
G03X495456Y373791I-432J-0D01*
G01X495888Y373359D02*
Y372602D01*
X495456Y372170D02*
G03X495888Y372602I-0J432D01*
G01X495456Y372170D02*
X494699D01*
Y372926*
X468140Y373128D02*
Y371360D01*
X468216Y371049*
X468367Y370945*
X468518*
X467913Y372400D02*
X468443D01*
X412673Y383052D02*
X412521Y383260D01*
X412295Y383364*
X411992*
X411765Y383260*
X411614Y383052*
Y382844*
X411690Y382636*
X411765Y382532*
X411917Y382428*
X412370Y382220*
X412521Y382116*
X412597Y382012*
X412673Y381805*
Y381493*
X412521Y381285*
X412295Y381181*
X411992*
X411765Y381285*
X411614Y381493*
X413353Y383364D02*
Y381181D01*
Y383364D02*
X414336D01*
X413353Y382324D02*
X413958D01*
X413353Y381181D02*
X414336D01*
X415017Y383364D02*
Y381181D01*
Y383364D02*
X416075Y381181D01*
Y383364D02*
Y381181D01*
X417814Y383052D02*
X417663Y383260D01*
X417436Y383364*
X417134*
X416907Y383260*
X416756Y383052*
Y382844*
X416831Y382636*
X416907Y382532*
X417058Y382428*
X417512Y382220*
X417663Y382116*
X417738Y382012*
X417814Y381805*
Y381493*
X417663Y381285*
X417436Y381181*
X417134*
X416907Y381285*
X416756Y381493*
X418948Y383364D02*
X418797Y383260D01*
X418646Y383052*
X418570Y382844*
X418495Y382532*
Y382012*
X418570Y381701*
X418646Y381493*
X418797Y381285*
X418948Y381181*
X419251*
X419402Y381285*
X419553Y381493*
X419629Y381701*
X419704Y382012*
Y382532*
X419629Y382844*
X419553Y383052*
X419402Y383260*
X419251Y383364*
X418948*
X420385D02*
Y381181D01*
Y383364D02*
X421065D01*
X421292Y383260*
X421368Y383156*
X421443Y382948*
Y382740*
X421368Y382532*
X421292Y382428*
X421065Y382324*
X420385*
X420914D02*
X421443Y381181D01*
X422124Y383364D02*
X423182Y381181D01*
Y383364D02*
X422124Y381181D01*
X423863Y383364D02*
Y381181D01*
Y383364D02*
X424846D01*
X423863Y382324D02*
X424468D01*
X423863Y381181D02*
X424846D01*
X425526Y383364D02*
Y381181D01*
X426433*
X429382Y383780D02*
X429231Y383572D01*
X429080Y383260*
X428929Y382844*
X428853Y382324*
Y381909*
X428929Y381389*
X429080Y380973*
X429231Y380661*
X429382Y380453*
X430819Y383364D02*
X430063Y381909D01*
X431197*
X430819Y383364D02*
Y381181D01*
X433616Y383364D02*
Y381181D01*
X434524*
X436111Y382636D02*
Y381181D01*
Y382324D02*
X435960Y382532D01*
X435809Y382636*
X435582*
X435431Y382532*
X435280Y382324*
X435204Y382012*
Y381805*
X435280Y381493*
X435431Y381285*
X435582Y381181*
X435809*
X435960Y381285*
X436111Y381493*
X436867Y382636D02*
X437321Y381181D01*
X437775Y382636D02*
X437321Y381181D01*
X437170Y380765*
X437019Y380557*
X436867Y380453*
X436792*
X438455Y382012D02*
X439362D01*
Y382220*
X439287Y382428*
X439211Y382532*
X439060Y382636*
X438833*
X438682Y382532*
X438531Y382324*
X438455Y382012*
Y381805*
X438531Y381493*
X438682Y381285*
X438833Y381181*
X439060*
X439211Y381285*
X439362Y381493*
X440043Y382636D02*
Y381181D01*
Y382012D02*
X440119Y382324D01*
X440270Y382532*
X440421Y382636*
X440648*
X441328Y383780D02*
X441480Y383572D01*
X441631Y383260*
X441782Y382844*
X441858Y382324*
Y381909*
X441782Y381389*
X441631Y380973*
X441480Y380661*
X441328Y380453*
X411690Y367490D02*
Y367594D01*
X411765Y367802*
X411841Y367906*
X411992Y368010*
X412295*
X412446Y367906*
X412521Y367802*
X412597Y367594*
Y367386*
X412521Y367178*
X412370Y366866*
X411614Y365826*
X412673*
X413807Y368010D02*
X413580Y367906D01*
X413429Y367594*
X413353Y367074*
Y366762*
X413429Y366242*
X413580Y365930*
X413807Y365826*
X413958*
X414185Y365930*
X414336Y366242*
X414412Y366762*
Y367074*
X414336Y367594*
X414185Y367906*
X413958Y368010*
X413807*
X415092Y367594D02*
X415243Y367698D01*
X415470Y368010*
Y365826*
X417134Y367282D02*
X417058Y366970D01*
X416907Y366762*
X416680Y366658*
X416604*
X416378Y366762*
X416226Y366970*
X416151Y367282*
Y367386*
X416226Y367698*
X416378Y367906*
X416604Y368010*
X416680*
X416907Y367906*
X417058Y367698*
X417134Y367282*
Y366762*
X417058Y366242*
X416907Y365930*
X416680Y365826*
X416529*
X416302Y365930*
X416226Y366138*
X417890Y366034D02*
X417814Y365930D01*
X417890Y365826*
X417965Y365930*
X417890Y366034*
X418646Y367594D02*
X418797Y367698D01*
X419024Y368010*
Y365826*
X420158Y368010D02*
X419931Y367906D01*
X419780Y367594*
X419704Y367074*
Y366762*
X419780Y366242*
X419931Y365930*
X420158Y365826*
X420309*
X420536Y365930*
X420687Y366242*
X420763Y366762*
Y367074*
X420687Y367594*
X420536Y367906*
X420309Y368010*
X420158*
X421519Y366034D02*
X421443Y365930D01*
X421519Y365826*
X421594Y365930*
X421519Y366034*
X422275Y367594D02*
X422426Y367698D01*
X422653Y368010*
Y365826*
X423333Y367594D02*
X423485Y367698D01*
X423712Y368010*
Y365826*
X411614Y373128D02*
Y370945D01*
Y373128D02*
X412295D01*
X412521Y373024*
X412597Y372920*
X412673Y372712*
Y372504*
X412597Y372296*
X412521Y372192*
X412295Y372088*
X411614*
X412143D02*
X412673Y370945D01*
X413731Y372400D02*
X413580Y372296D01*
X413429Y372088*
X413353Y371776*
Y371568*
X413429Y371256*
X413580Y371049*
X413731Y370945*
X413958*
X414109Y371049*
X414260Y371256*
X414336Y371568*
Y371776*
X414260Y372088*
X414109Y372296*
X413958Y372400*
X413731*
X415017Y373128D02*
Y370945D01*
Y372088D02*
X415168Y372296D01*
X415319Y372400*
X415546*
X415697Y372296*
X415848Y372088*
X415924Y371776*
Y371568*
X415848Y371256*
X415697Y371049*
X415546Y370945*
X415319*
X415168Y371049*
X415017Y371256*
X416982Y372400D02*
X416831Y372296D01*
X416680Y372088*
X416604Y371776*
Y371568*
X416680Y371256*
X416831Y371049*
X416982Y370945*
X417209*
X417360Y371049*
X417512Y371256*
X417587Y371568*
Y371776*
X417512Y372088*
X417360Y372296*
X417209Y372400*
X416982*
X418495Y373128D02*
Y371360D01*
X418570Y371049*
X418721Y370945*
X418873*
X418268Y372400D02*
X418797D01*
X419553Y373128D02*
X419629Y373024D01*
X419704Y373128*
X419629Y373232*
X419553Y373128*
X419629Y372400D02*
Y370945D01*
X421216Y372088D02*
X421141Y372296D01*
X420914Y372400*
X420687*
X420460Y372296*
X420385Y372088*
X420460Y371880*
X420612Y371776*
X420990Y371672*
X421141Y371568*
X421216Y371360*
Y371256*
X421141Y371049*
X420914Y370945*
X420687*
X420460Y371049*
X420385Y371256*
X475966Y366905D02*
Y365354D01*
X475591Y366905D02*
X476342D01*
X476825Y365945D02*
X477470D01*
Y366093*
X477416Y366240*
X477362Y366314*
X477255Y366388*
X477094*
X476986Y366314*
X476879Y366166*
X476825Y365945*
Y365797*
X476879Y365576*
X476986Y365428*
X477094Y365354*
X477255*
X477362Y365428*
X477470Y365576*
X477953Y366905D02*
Y365354D01*
X478490Y365502D02*
X478436Y365428D01*
X478490Y365354*
X478543Y365428*
X478490Y365502*
X479349Y366905D02*
X479188Y366831D01*
X479080Y366609*
X479026Y366240*
Y366019*
X479080Y365650*
X479188Y365428*
X479349Y365354*
X479456*
X479617Y365428*
X479724Y365650*
X479778Y366019*
Y366240*
X479724Y366609*
X479617Y366831*
X479456Y366905*
X479349*
X480369D02*
X480959D01*
X480637Y366314*
X480798*
X480906Y366240*
X480959Y366166*
X481013Y365945*
Y365797*
X480959Y365576*
X480852Y365428*
X480691Y365354*
X480530*
X480369Y365428*
X480315Y365502*
X480261Y365650*
X481496Y366609D02*
X481603Y366683D01*
X481764Y366905*
Y365354*
X482248Y366019D02*
X483214D01*
X483805Y366905D02*
X484395D01*
X484073Y366314*
X484234*
X484341Y366240*
X484395Y366166*
X484449Y365945*
Y365797*
X484395Y365576*
X484288Y365428*
X484127Y365354*
X483966*
X483805Y365428*
X483751Y365502*
X483697Y365650*
X485630Y366388D02*
X485576Y366166D01*
X485469Y366019*
X485308Y365945*
X485254*
X485093Y366019*
X484986Y366166*
X484932Y366388*
Y366462*
X484986Y366683*
X485093Y366831*
X485254Y366905*
X485308*
X485469Y366831*
X485576Y366683*
X485630Y366388*
Y366019*
X485576Y365650*
X485469Y365428*
X485308Y365354*
X485200*
X485039Y365428*
X484986Y365576*
X486811Y366388D02*
X486757Y366166D01*
X486650Y366019*
X486489Y365945*
X486435*
X486274Y366019*
X486167Y366166*
X486113Y366388*
Y366462*
X486167Y366683*
X486274Y366831*
X486435Y366905*
X486489*
X486650Y366831*
X486757Y366683*
X486811Y366388*
Y366019*
X486757Y365650*
X486650Y365428*
X486489Y365354*
X486382*
X486220Y365428*
X486167Y365576*
X487294Y366019D02*
X488261D01*
X488797Y366535D02*
Y366609D01*
X488851Y366757*
X488905Y366831*
X489012Y366905*
X489227*
X489334Y366831*
X489388Y366757*
X489442Y366609*
Y366462*
X489388Y366314*
X489281Y366093*
X488744Y365354*
X489495*
X490247Y366905D02*
X490086Y366831D01*
X490032Y366683*
Y366535*
X490086Y366388*
X490193Y366314*
X490408Y366240*
X490569Y366166*
X490676Y366019*
X490730Y365871*
Y365650*
X490676Y365502*
X490623Y365428*
X490462Y365354*
X490247*
X490086Y365428*
X490032Y365502*
X489979Y365650*
Y365871*
X490032Y366019*
X490140Y366166*
X490301Y366240*
X490515Y366314*
X490623Y366388*
X490676Y366535*
Y366683*
X490623Y366831*
X490462Y366905*
X490247*
X491482D02*
X491321Y366831D01*
X491267Y366683*
Y366535*
X491321Y366388*
X491428Y366314*
X491643Y366240*
X491804Y366166*
X491911Y366019*
X491965Y365871*
Y365650*
X491911Y365502*
X491858Y365428*
X491696Y365354*
X491482*
X491321Y365428*
X491267Y365502*
X491213Y365650*
Y365871*
X491267Y366019*
X491374Y366166*
X491535Y366240*
X491750Y366314*
X491858Y366388*
X491911Y366535*
Y366683*
X491858Y366831*
X491696Y366905*
X491482*
X492502Y366535D02*
Y366609D01*
X492555Y366757*
X492609Y366831*
X492717Y366905*
X492931*
X493039Y366831*
X493092Y366757*
X493146Y366609*
Y366462*
X493092Y366314*
X492985Y366093*
X492448Y365354*
X493200*
X475591Y370577D02*
Y368898D01*
Y369697D02*
X475765Y369937D01*
X475881Y370017*
X476056*
X476172Y369937*
X476230Y369697*
Y368898*
X476928Y370577D02*
Y369218D01*
X476986Y368978*
X477103Y368898*
X477219*
X476754Y370017D02*
X477161D01*
X477917Y370577D02*
Y369218D01*
X477975Y368978*
X478091Y368898*
X478208*
X477742Y370017D02*
X478150D01*
X478731D02*
Y368338D01*
Y369777D02*
X478848Y369937D01*
X478964Y370017*
X479138*
X479255Y369937*
X479371Y369777*
X479429Y369537*
Y369377*
X479371Y369138*
X479255Y368978*
X479138Y368898*
X478964*
X478848Y368978*
X478731Y369138*
X480011Y370017D02*
X479953Y369937D01*
X480011Y369857*
X480069Y369937*
X480011Y370017*
Y369058D02*
X479953Y368978D01*
X480011Y368898*
X480069Y368978*
X480011Y369058*
X481639Y370897D02*
X480592Y368338D01*
X483210Y370897D02*
X482163Y368338D01*
X483733Y370017D02*
X483966Y368898D01*
X484198Y370017D02*
X483966Y368898D01*
X484198Y370017D02*
X484431Y368898D01*
X484664Y370017D02*
X484431Y368898D01*
X485187Y370017D02*
X485420Y368898D01*
X485652Y370017D02*
X485420Y368898D01*
X485652Y370017D02*
X485885Y368898D01*
X486118Y370017D02*
X485885Y368898D01*
X486641Y370017D02*
X486874Y368898D01*
X487106Y370017D02*
X486874Y368898D01*
X487106Y370017D02*
X487339Y368898D01*
X487572Y370017D02*
X487339Y368898D01*
X488153Y369058D02*
X488095Y368978D01*
X488153Y368898*
X488211Y368978*
X488153Y369058*
X488793Y370017D02*
X489142Y368898D01*
X489491Y370017D02*
X489142Y368898D01*
X489026Y368578*
X488909Y368418*
X488793Y368338*
X488735*
X490305Y370017D02*
X490189Y369937D01*
X490072Y369777*
X490014Y369537*
Y369377*
X490072Y369138*
X490189Y368978*
X490305Y368898*
X490480*
X490596Y368978*
X490712Y369138*
X490770Y369377*
Y369537*
X490712Y369777*
X490596Y369937*
X490480Y370017*
X490305*
X491294D02*
Y369218D01*
X491352Y368978*
X491468Y368898*
X491643*
X491759Y368978*
X491934Y369218*
Y370017D02*
Y368898D01*
X492457Y370577D02*
X492515Y370497D01*
X492573Y370577*
X492515Y370657*
X492457Y370577*
X492515Y370017D02*
Y368898D01*
X493097Y370577D02*
Y368898D01*
X494318Y369777D02*
X494202Y369937D01*
X494086Y370017*
X493911*
X493795Y369937*
X493678Y369777*
X493620Y369537*
Y369377*
X493678Y369138*
X493795Y368978*
X493911Y368898*
X494086*
X494202Y368978*
X494318Y369138*
X495540Y370017D02*
Y368898D01*
Y369777D02*
X495423Y369937D01*
X495307Y370017*
X495132*
X495016Y369937*
X494900Y369777*
X494842Y369537*
Y369377*
X494900Y369138*
X495016Y368978*
X495132Y368898*
X495307*
X495423Y368978*
X495540Y369138*
X496761Y370577D02*
Y368898D01*
Y369777D02*
X496645Y369937D01*
X496528Y370017*
X496354*
X496237Y369937*
X496121Y369777*
X496063Y369537*
Y369377*
X496121Y369138*
X496237Y368978*
X496354Y368898*
X496528*
X496645Y368978*
X496761Y369138*
X497343Y369058D02*
X497284Y368978D01*
X497343Y368898*
X497401Y368978*
X497343Y369058*
X498622Y369777D02*
X498506Y369937D01*
X498389Y370017*
X498215*
X498099Y369937*
X497982Y369777*
X497924Y369537*
Y369377*
X497982Y369138*
X498099Y368978*
X498215Y368898*
X498389*
X498506Y368978*
X498622Y369138*
X499436Y370017D02*
X499320Y369937D01*
X499204Y369777*
X499145Y369537*
Y369377*
X499204Y369138*
X499320Y368978*
X499436Y368898*
X499611*
X499727Y368978*
X499843Y369138*
X499902Y369377*
Y369537*
X499843Y369777*
X499727Y369937*
X499611Y370017*
X499436*
X500483Y369058D02*
X500425Y368978D01*
X500483Y368898*
X500541Y368978*
X500483Y369058*
X501065Y370577D02*
Y368898D01*
X501646Y370017D02*
X501065Y369218D01*
X501297Y369537D02*
X501705Y368898D01*
X502228Y370017D02*
Y368898D01*
Y369537D02*
X502286Y369777D01*
X502402Y369937*
X502519Y370017*
X502693*
X446161Y368010D02*
Y365826D01*
Y368010D02*
X446691D01*
X446918Y367906*
X446918D02*
X447069Y367698D01*
X447144Y367490*
X447220Y367178*
Y366658*
X447144Y366346*
X447069Y366138*
X446918Y365930*
X446918D02*
X446691Y365826D01*
X446161*
X447900Y368010D02*
Y365826D01*
Y368010D02*
X448883D01*
X447900Y366970D02*
X448505D01*
X447900Y365826D02*
X448883D01*
X450622Y367698D02*
X450471Y367906D01*
X450244Y368010*
X449942*
X449715Y367906*
X449564Y367698*
Y367490*
X449639Y367282*
X449715Y367178*
X449866Y367074*
X450320Y366866*
X450471Y366762*
X450547Y366658*
X450622Y366450*
Y366138*
X450471Y365930*
X450244Y365826*
X449942*
X449715Y365930*
X449564Y366138*
X451303Y368010D02*
Y365826D01*
X453117Y367490D02*
X453042Y367698D01*
X452891Y367906*
X452739Y368010*
X452437*
X452286Y367906*
X452134Y367698*
X452059Y367490*
X451983Y367178*
Y366658*
X452059Y366346*
X452134Y366138*
X452286Y365930*
X452437Y365826*
X452739*
X452891Y365930*
X453042Y366138*
X453117Y366346*
Y366658*
X452739D02*
X453117D01*
X453798Y368010D02*
Y365826D01*
Y368010D02*
X454856Y365826D01*
Y368010D02*
Y365826D01*
X455537Y368010D02*
Y365826D01*
Y368010D02*
X456520D01*
X455537Y366970D02*
X456142D01*
X455537Y365826D02*
X456520D01*
X457200Y368010D02*
Y365826D01*
Y368010D02*
X457881D01*
X458108Y367906*
X458183Y367802*
X458259Y367594*
Y367386*
X458183Y367178*
X458108Y367074*
X457881Y366970*
X457200*
X457730D02*
X458259Y365826D01*
X447220Y377934D02*
X447069Y378142D01*
X446842Y378246*
X446539*
X446313Y378142*
X446161Y377934*
Y377726*
X446237Y377518*
X446313Y377414*
X446464Y377310*
X446918Y377102*
X446918D02*
X447069Y376998D01*
X447144Y376894*
X447220Y376686*
Y376375*
X447069Y376167*
X446842Y376063*
X446539*
X446313Y376167*
X446161Y376375*
X448430Y378246D02*
Y376063D01*
X447900Y378246D02*
X448959D01*
X450244D02*
X449639Y376063D01*
X450244Y378246D02*
X450849Y376063D01*
X449866Y376790D02*
X450622D01*
X452664Y377726D02*
X452588Y377934D01*
X452437Y378142*
X452286Y378246*
X451983*
X451832Y378142*
X451681Y377934*
X451605Y377726*
X451530Y377414*
Y376894*
X451605Y376582*
X451681Y376375*
X451832Y376167*
X451983Y376063*
X452286*
X452437Y376167*
X452588Y376375*
X452664Y376582*
Y376894*
X452286D02*
X452664D01*
X453344Y378246D02*
Y376063D01*
Y378246D02*
X454327D01*
X453344Y377206D02*
X453949D01*
X453344Y376063D02*
X454327D01*
X396260Y368010D02*
Y365826D01*
Y368010D02*
X396789D01*
X397016Y367906*
X397167Y367698*
X397243Y367490*
X397318Y367178*
Y366658*
X397243Y366346*
X397167Y366138*
X397016Y365930*
X396789Y365826*
X396260*
X398604Y368010D02*
X397999Y365826D01*
X398604Y368010D02*
X399209Y365826D01*
X398226Y366554D02*
X398982D01*
X400418Y368010D02*
Y365826D01*
X399889Y368010D02*
X400948D01*
X401628D02*
Y365826D01*
Y368010D02*
X402611D01*
X401628Y366970D02*
X402233D01*
X401628Y365826D02*
X402611D01*
X396260Y383364D02*
Y381181D01*
Y383364D02*
X396865Y381181D01*
X397470Y383364D02*
X396865Y381181D01*
X397470Y383364D02*
Y381181D01*
X398604Y383364D02*
X398452Y383260D01*
X398301Y383052*
X398226Y382844*
X398150Y382532*
Y382012*
X398226Y381701*
X398301Y381493*
X398452Y381285*
X398604Y381181*
X398906*
X399057Y381285*
X399209Y381493*
X399284Y381701*
X399360Y382012*
Y382532*
X399284Y382844*
X399209Y383052*
X399057Y383260*
X398906Y383364*
X398604*
X400040D02*
Y381181D01*
Y383364D02*
X400570D01*
X400796Y383260*
X400948Y383052*
X401023Y382844*
X401099Y382532*
Y382012*
X401023Y381701*
X400948Y381493*
X400796Y381285*
X400570Y381181*
X400040*
X401779Y383364D02*
Y381181D01*
Y383364D02*
X402762D01*
X401779Y382324D02*
X402384D01*
X401779Y381181D02*
X402762D01*
X403443Y383364D02*
Y381181D01*
X404350*
X396260Y378246D02*
Y376063D01*
X397167*
X398452Y378246D02*
X397848Y376063D01*
X398452Y378246D02*
X399057Y376063D01*
X398074Y376790D02*
X398831D01*
X399738Y378246D02*
X400343Y377206D01*
Y376063*
X400948Y378246D02*
X400343Y377206D01*
X401628Y378246D02*
Y376063D01*
Y378246D02*
X402611D01*
X401628Y377206D02*
X402233D01*
X401628Y376063D02*
X402611D01*
X403291Y378246D02*
Y376063D01*
Y378246D02*
X403972D01*
X404199Y378142*
X404274Y378038*
X404350Y377830*
Y377622*
X404274Y377414*
X404199Y377310*
X403972Y377206*
X403291*
X403821D02*
X404350Y376063D01*
X397394Y372608D02*
X397318Y372816D01*
X397167Y373024*
X397016Y373128*
X396713*
X396562Y373024*
X396411Y372816*
X396335Y372608*
X396260Y372296*
Y371776*
X396335Y371464*
X396411Y371256*
X396562Y371049*
X396713Y370945*
X397016*
X397167Y371049*
X397318Y371256*
X397394Y371464*
X398528Y373128D02*
X398377Y373024D01*
X398226Y372816*
X398150Y372608*
X398074Y372296*
Y371776*
X398150Y371464*
X398226Y371256*
X398377Y371049*
X398528Y370945*
X398831*
X398982Y371049*
X399133Y371256*
X399209Y371464*
X399284Y371776*
Y372296*
X399209Y372608*
X399133Y372816*
X398982Y373024*
X398831Y373128*
X398528*
X399965D02*
Y370945D01*
Y373128D02*
X400570Y370945D01*
X401174Y373128D02*
X400570Y370945D01*
X401174Y373128D02*
Y370945D01*
X401855Y373128D02*
Y370945D01*
Y373128D02*
X402535D01*
X402762Y373024*
X402838Y372920*
X402913Y372712*
Y372400*
X402838Y372192*
X402762Y372088*
X402535Y371984*
X401855*
X404199Y373128D02*
X403594Y370945D01*
X404199Y373128D02*
X404804Y370945D01*
X403821Y371672D02*
X404577D01*
X405484Y373128D02*
Y370945D01*
Y373128D02*
X406543Y370945D01*
Y373128D02*
Y370945D01*
X407223Y373128D02*
X407828Y372088D01*
Y370945*
X408433Y373128D02*
X407828Y372088D01*
X462795Y368010D02*
Y365826D01*
X463703*
X464459Y366034D02*
X464383Y365930D01*
X464459Y365826*
X464534Y365930*
X464459Y366034*
X466273Y367698D02*
X466122Y367906D01*
X465895Y368010*
X465593*
X465366Y367906*
X465215Y367698*
Y367490*
X465290Y367282*
X465366Y367178*
X465517Y367074*
X465971Y366866*
X466122Y366762*
X466198Y366658*
X466273Y366450*
Y366138*
X466122Y365930*
X465895Y365826*
X465593*
X465366Y365930*
X465215Y366138*
X467029Y366034D02*
X466954Y365930D01*
X467029Y365826*
X467105Y365930*
X467029Y366034*
X467785Y368010D02*
Y365826D01*
X468844Y368010D02*
X467785Y366554D01*
X468163Y367074D02*
X468844Y365826D01*
X446691Y373128D02*
Y370945D01*
X446161Y373128D02*
X447220D01*
X447900D02*
Y370945D01*
X448959Y373128D02*
Y370945D01*
X447900Y372088D02*
X448959D01*
X449639Y373128D02*
Y370945D01*
X451454Y372608D02*
X451378Y372816D01*
X451227Y373024*
X451076Y373128*
X450774*
X450622Y373024*
X450471Y372816*
X450395Y372608*
X450320Y372296*
Y371776*
X450395Y371464*
X450471Y371256*
X450622Y371049*
X450774Y370945*
X451076*
X451227Y371049*
X451378Y371256*
X451454Y371464*
X452134Y373128D02*
Y370945D01*
X453193Y373128D02*
X452134Y371672D01*
X452513Y372192D02*
X453193Y370945D01*
X453873Y373128D02*
Y370945D01*
Y373128D02*
X454932Y370945D01*
Y373128D02*
Y370945D01*
X455612Y373128D02*
Y370945D01*
Y373128D02*
X456595D01*
X455612Y372088D02*
X456217D01*
X455612Y370945D02*
X456595D01*
X458334Y372816D02*
X458183Y373024D01*
X457956Y373128*
X457654*
X457427Y373024*
X457276Y372816*
Y372608*
X457351Y372400*
X457427Y372296*
X457578Y372192*
X458032Y371984*
X458183Y371880*
X458259Y371776*
X458334Y371568*
Y371256*
X458183Y371049*
X457956Y370945*
X457654*
X457427Y371049*
X457276Y371256*
X460073Y372816D02*
X459922Y373024D01*
X459695Y373128*
X459393*
X459166Y373024*
X459015Y372816*
Y372608*
X459090Y372400*
X459166Y372296*
X459317Y372192*
X459771Y371984*
X459922Y371880*
X459998Y371776*
X460073Y371568*
Y371256*
X459922Y371049*
X459695Y370945*
X459393*
X459166Y371049*
X459015Y371256*
X462795Y378246D02*
Y376063D01*
Y378246D02*
X463476D01*
X463703Y378142*
X463778Y378038*
X463854Y377830*
Y377622*
X463778Y377414*
X463703Y377310*
X463476Y377206*
X462795*
X463325D02*
X463854Y376063D01*
X464534Y378246D02*
Y376063D01*
Y378246D02*
X465517D01*
X464534Y377206D02*
X465139D01*
X464534Y376063D02*
X465517D01*
X466198Y378246D02*
X466803Y376063D01*
X467407Y378246D02*
X466803Y376063D01*
X468088Y378246D02*
Y376063D01*
Y378246D02*
X469071D01*
X468088Y377206D02*
X468693D01*
X412673Y377934D02*
X412521Y378142D01*
X412295Y378246*
X411992*
X411765Y378142*
X411614Y377934*
Y377726*
X411690Y377518*
X411765Y377414*
X411917Y377310*
X412370Y377102*
X412521Y376998*
X412597Y376894*
X412673Y376686*
Y376375*
X412521Y376167*
X412295Y376063*
X411992*
X411765Y376167*
X411614Y376375*
X413731Y377518D02*
X413580Y377414D01*
X413429Y377206*
X413353Y376894*
Y376686*
X413429Y376375*
X413580Y376167*
X413731Y376063*
X413958*
X414109Y376167*
X414260Y376375*
X414336Y376686*
Y376894*
X414260Y377206*
X414109Y377414*
X413958Y377518*
X413731*
X415017Y378246D02*
Y376063D01*
X416604Y378246D02*
Y376063D01*
Y377206D02*
X416453Y377414D01*
X416302Y377518*
X416075*
X415924Y377414*
X415773Y377206*
X415697Y376894*
Y376686*
X415773Y376375*
X415924Y376167*
X416075Y376063*
X416302*
X416453Y376167*
X416604Y376375*
X417285Y376894D02*
X418192D01*
Y377102*
X418116Y377310*
X418116D02*
X418041Y377414D01*
X417890Y377518*
X417663*
X417512Y377414*
X417360Y377206*
X417285Y376894*
Y376686*
X417360Y376375*
X417512Y376167*
X417663Y376063*
X417890*
X418041Y376167*
X418192Y376375*
X418873Y377518D02*
Y376063D01*
Y376894D02*
X418948Y377206D01*
X419099Y377414*
X419251Y377518*
X419477*
X420158Y378246D02*
Y376063D01*
Y378246D02*
X420763Y376063D01*
X421368Y378246D02*
X420763Y376063D01*
X421368Y378246D02*
Y376063D01*
X422955Y377518D02*
Y376063D01*
Y377206D02*
X422804Y377414D01*
X422653Y377518*
X422426*
X422275Y377414*
X422124Y377206*
X422048Y376894*
Y376686*
X422124Y376375*
X422275Y376167*
X422426Y376063*
X422653*
X422804Y376167*
X422955Y376375*
X424468Y377206D02*
X424392Y377414D01*
X424165Y377518*
X423938*
X423712Y377414*
X423636Y377206*
X423712Y376998*
X423863Y376894*
X424241Y376790*
X424392Y376686*
X424468Y376479*
Y376375*
X424392Y376167*
X424165Y376063*
X423938*
X423712Y376167*
X423636Y376375*
X425148Y378246D02*
Y376063D01*
X425904Y377518D02*
X425148Y376479D01*
X425451Y376894D02*
X425980Y376063D01*
X426660Y376998D02*
X428021D01*
X429231Y378246D02*
Y376063D01*
X428702Y378246D02*
X429760D01*
X430894D02*
X430743Y378142D01*
X430592Y377934*
X430516Y377726*
X430441Y377414*
Y376894*
X430516Y376582*
X430592Y376375*
X430743Y376167*
X430894Y376063*
X431197*
X431348Y376167*
X431499Y376375*
X431575Y376582*
X431650Y376894*
Y377414*
X431575Y377726*
X431499Y377934*
X431348Y378142*
X431197Y378246*
X430894*
X432331D02*
Y376063D01*
Y378246D02*
X433011D01*
X433238Y378142*
X433314Y378038*
X433389Y377830*
Y377518*
X433314Y377310*
X433238Y377206*
X433011Y377102*
X432331*
G54D19*
X529154Y481890D02*
Y480315D01*
X524154Y481890D02*
Y480315D01*
X519154Y481890D02*
Y480315D01*
X514154Y481890D02*
Y480315D01*
Y460630D02*
Y459055D01*
X519154Y460630D02*
Y459055D01*
X524154Y460630D02*
Y459055D01*
X529154Y460630D02*
Y459055D01*
G54D23*
X483661Y485039D02*
Y483071D01*
X488780Y485039D02*
Y483071D01*
X460433Y470472D03*
X456890D03*
X518701Y452559D03*
Y449016D03*
X522638Y452559D03*
Y449016D03*
X493307Y484055D03*
X496850D03*
X483071Y497047D03*
X479528D03*
X431102Y487402D03*
Y490945D03*
X416535Y467520D03*
X420079D03*
X416535Y450787D03*
X420079D03*
X482874Y435039D02*
Y437008D01*
X477756Y435039D02*
Y437008D01*
X473228Y436024D03*
X469685D03*
X480315Y508661D03*
Y505118D03*
X468504Y463386D03*
Y459843D03*
X440945Y454921D03*
Y458465D03*
X528543Y452559D03*
Y449016D03*
X427165Y490945D03*
Y487402D03*
X490157Y435236D03*
Y438780D03*
X495079D03*
Y435236D03*
X522638Y487205D03*
X519094D03*
G54D30*
X401575Y478937D03*
X417323Y531575D03*
G54D31*
X401575Y488937D03*
Y498937D03*
Y508937D03*
Y518937D03*
Y528937D03*
X417323Y521575D03*
G54D33*
X559055Y461378D03*
X525315Y559134D03*
X401575Y429882D03*
X525315Y539134D03*
X526575Y407480D03*
X434055Y437008D03*
X509843Y407480D03*
X450787Y427165D03*
G54D37*
X551181Y551181D03*
X409449D03*
X551181Y409449D03*
X409449D03*
G54D38*
X418504Y458661D02*
X416142D01*
G54D53*
X462992Y464370D02*
X461811D01*
X447638D02*
X446457D01*
X447638Y454921D02*
X446457D01*
X462992D02*
X461811D01*
G54D54*
X559055Y471378D03*
Y481378D03*
Y491378D03*
X515315Y559134D03*
X505315D03*
X495315D03*
X485315D03*
X475315D03*
X465315D03*
X455315D03*
X445315D03*
X435315D03*
X525315Y549134D03*
X515315D03*
X505315D03*
X495315D03*
X485315D03*
X475315D03*
X465315D03*
X455315D03*
X445315D03*
X435315D03*
X401575Y439882D03*
Y449882D03*
Y459882D03*
X515315Y539134D03*
X505315D03*
X495315D03*
X485315D03*
X475315D03*
X465315D03*
X455315D03*
X445315D03*
X435315D03*
X525315Y529134D03*
X515315D03*
X505315D03*
X495315D03*
X485315D03*
X475315D03*
X465315D03*
X455315D03*
X445315D03*
X435315D03*
X526575Y417323D03*
Y427165D03*
Y437008D03*
X434055Y427165D03*
Y417323D03*
Y407480D03*
X509843Y417323D03*
Y427165D03*
X450787Y417323D03*
Y407480D03*
G54D70*
X489665Y456693D03*
X484744D03*
X479823D03*
G54D139*
X555118Y515748D03*
Y523622D03*
Y531496D03*
G54D141*
Y507874D03*
X561319Y431299D02*
Y428937D01*
X544980Y431299D02*
Y428937D01*
Y444685D02*
Y447047D01*
X561319Y444685D02*
Y447047D01*
G54D146*
X445866Y475787D02*
Y478150D01*
X447835Y475787D02*
Y478150D01*
X449803Y475787D02*
Y478150D01*
X451772Y475787D02*
Y478150D01*
X453740Y475787D02*
Y478150D01*
X455709Y475787D02*
Y478150D01*
X457677Y475787D02*
Y478150D01*
X459646Y475787D02*
Y478150D01*
X461614Y475787D02*
Y478150D01*
X463583Y475787D02*
Y478150D01*
X465551Y475787D02*
Y478150D01*
X467520Y475787D02*
Y478150D01*
X475000Y483268D02*
X472638D01*
X475000Y485236D02*
X472638D01*
X475000Y487205D02*
X472638D01*
X475000Y489173D02*
X472638D01*
X475000Y491142D02*
X472638D01*
X475000Y493110D02*
X472638D01*
X475000Y495079D02*
X472638D01*
X475000Y497047D02*
X472638D01*
X475000Y499016D02*
X472638D01*
X475000Y500984D02*
X472638D01*
X475000Y502953D02*
X472638D01*
X475000Y504921D02*
X472638D01*
X467520Y510039D02*
Y512402D01*
X465551Y510039D02*
Y512402D01*
X463583Y510039D02*
Y512402D01*
X461614Y510039D02*
Y512402D01*
X459646Y510039D02*
Y512402D01*
X457677Y510039D02*
Y512402D01*
X455709Y510039D02*
Y512402D01*
X453740Y510039D02*
Y512402D01*
X451772Y510039D02*
Y512402D01*
X449803Y510039D02*
Y512402D01*
X447835Y510039D02*
Y512402D01*
X445866Y510039D02*
Y512402D01*
X440748Y504921D02*
X438386D01*
X440748Y502953D02*
X438386D01*
X440748Y500984D02*
X438386D01*
X440748Y499016D02*
X438386D01*
X440748Y497047D02*
X438386D01*
X440748Y495079D02*
X438386D01*
X440748Y493110D02*
X438386D01*
X440748Y491142D02*
X438386D01*
X440748Y489173D02*
X438386D01*
X440748Y487205D02*
X438386D01*
X440748Y485236D02*
X438386D01*
X440748Y483268D02*
X438386D01*
X419882Y462795D02*
Y462008D01*
X417323Y462795D02*
Y462008D01*
X414764Y462795D02*
Y462008D01*
Y455315D02*
Y454528D01*
X417323Y455315D02*
Y454528D01*
X419882Y455315D02*
Y454528D01*
G54D169*
X421457Y472638D02*
Y472244D01*
X415157Y472638D02*
Y472244D01*
G54D170*
X488583Y414370D02*
X495669D01*
X464961D02*
X472047D01*
G54D171*
X494587Y456693D03*
G74*
X0Y0D02*
M02*
