*
*
G04 PADS Layout (Build Number 2006.45.1) generated Gerber (RS-274-X) file*
G04 PC Version=2.1*
*
%IN "SENSORXEL_REVF(191008)-"*%
*
%MOIN*%
*
%FSLAX35Y35*%
*
*
*
*
G04 PC Standard Apertures*
*
*
G04 Thermal Relief Aperture macro.*
%AMTER*
1,1,$1,0,0*
1,0,$1-$2,0,0*
21,0,$3,$4,0,0,45*
21,0,$3,$4,0,0,135*
%
*
*
G04 Annular Aperture macro.*
%AMANN*
1,1,$1,0,0*
1,0,$2,0,0*
%
*
*
G04 Odd Aperture macro.*
%AMODD*
1,1,$1,0,0*
1,0,$1-0.005,0,0*
%
*
*
G04 PC Custom Aperture Macros*
*
*
*
*
*
*
G04 PC Aperture Table*
*
%ADD010C,0.00394*%
%ADD015C,0.00787*%
%ADD026C,0.01181*%
%ADD066C,0.00591*%
*
*
*
*
G04 PC Custom Flashes*
G04 Layer Name SENSORXEL_REVF(191008)- - flashes*
%LPD*%
*
*
G04 PC Circuitry*
G04 Layer Name SENSORXEL_REVF(191008)- - circuitry*
%LPD*%
*
G54D10*
G01X542913Y514370D02*
X539764D01*
Y517323*
X540354Y517717*
X539764Y518110*
Y521063*
X542913*
Y518110*
X542323Y517717*
X542913Y517323*
Y514370*
X538976D02*
X535827D01*
Y517323*
X536417Y517717*
X535827Y518110*
Y521063*
X538976*
Y518110*
X538386Y517717*
X538976Y517323*
Y514370*
X520276D02*
X517126D01*
Y517323*
X517717Y517717*
X517126Y518110*
Y521063*
X520276*
Y518110*
X519685Y517717*
X520276Y517323*
Y514370*
X504528D02*
X501378D01*
Y517323*
X501969Y517717*
X501378Y518110*
Y521063*
X504528*
Y518110*
X503937Y517717*
X504528Y517323*
Y514370*
X500591D02*
X497441D01*
Y517323*
X498031Y517717*
X497441Y518110*
Y521063*
X500591*
Y518110*
X500000Y517717*
X500591Y517323*
Y514370*
X445472D02*
X442323D01*
Y517323*
X442913Y517717*
X442323Y518110*
Y521063*
X445472*
Y518110*
X444882Y517717*
X445472Y517323*
Y514370*
X441535D02*
X438386D01*
Y517323*
X438976Y517717*
X438386Y518110*
Y521063*
X441535*
Y518110*
X440945Y517717*
X441535Y517323*
Y514370*
X484843D02*
X481693D01*
Y517323*
X482283Y517717*
X481693Y518110*
Y521063*
X484843*
Y518110*
X484252Y517717*
X484843Y517323*
Y514370*
X480906D02*
X477756D01*
Y517323*
X478346Y517717*
X477756Y518110*
Y521063*
X480906*
Y518110*
X480315Y517717*
X480906Y517323*
Y514370*
X465157D02*
X462008D01*
Y517323*
X462598Y517717*
X462008Y518110*
Y521063*
X465157*
Y518110*
X464567Y517717*
X465157Y517323*
Y514370*
X461220D02*
X458071D01*
Y517323*
X458661Y517717*
X458071Y518110*
Y521063*
X461220*
Y518110*
X460630Y517717*
X461220Y517323*
Y514370*
X543898Y427559D02*
Y430709D01*
X546850*
X547244Y430118*
X547638Y430709*
X550591*
Y427559*
X547638*
X547244Y428150*
X546850Y427559*
X543898*
X416732Y468110D02*
Y464961D01*
X413780*
X413386Y465551*
X412992Y464961*
X410039*
Y468110*
X412992*
X413386Y467520*
X413780Y468110*
X416732*
Y472047D02*
Y468898D01*
X413780*
X413386Y469488*
X412992Y468898*
X410039*
Y472047*
X412992*
X413386Y471457*
X413780Y472047*
X416732*
Y487795D02*
Y484646D01*
X413780*
X413386Y485236*
X412992Y484646*
X410039*
Y487795*
X412992*
X413386Y487205*
X413780Y487795*
X416732*
Y491732D02*
Y488583D01*
X413780*
X413386Y489173*
X412992Y488583*
X410039*
Y491732*
X412992*
X413386Y491142*
X413780Y491732*
X416732*
Y511417D02*
Y508268D01*
X413780*
X413386Y508858*
X412992Y508268*
X410039*
Y511417*
X412992*
X413386Y510827*
X413780Y511417*
X416732*
Y475984D02*
Y472835D01*
X413780*
X413386Y473425*
X412992Y472835*
X410039*
Y475984*
X412992*
X413386Y475394*
X413780Y475984*
X416732*
Y464173D02*
Y461024D01*
X413780*
X413386Y461614*
X412992Y461024*
X410039*
Y464173*
X412992*
X413386Y463583*
X413780Y464173*
X416732*
Y495669D02*
Y492520D01*
X413780*
X413386Y493110*
X412992Y492520*
X410039*
Y495669*
X412992*
X413386Y495079*
X413780Y495669*
X416732*
X507283Y458071D02*
X510433D01*
Y455118*
X509843Y454724*
X510433Y454331*
Y451378*
X507283*
Y454331*
X507874Y454724*
X507283Y455118*
Y458071*
X511220D02*
X514370D01*
Y455118*
X513780Y454724*
X514370Y454331*
Y451378*
X511220*
Y454331*
X511811Y454724*
X511220Y455118*
Y458071*
X552559Y488780D02*
Y485630D01*
X549606*
X549213Y486220*
X548819Y485630*
X545866*
Y488780*
X548819*
X549213Y488189*
X549606Y488780*
X552559*
Y492717D02*
Y489567D01*
X549606*
X549213Y490157*
X548819Y489567*
X545866*
Y492717*
X548819*
X549213Y492126*
X549606Y492717*
X552559*
X478740Y467913D02*
X481890D01*
Y464961*
X481299Y464567*
X481890Y464173*
Y461220*
X478740*
Y464173*
X479331Y464567*
X478740Y464961*
Y467913*
X482677D02*
X485827D01*
Y464961*
X485236Y464567*
X485827Y464173*
Y461220*
X482677*
Y464173*
X483268Y464567*
X482677Y464961*
Y467913*
X550591Y445472D02*
Y442323D01*
X547638*
X547244Y442913*
X546850Y442323*
X543898*
Y445472*
X546850*
X547244Y444882*
X547638Y445472*
X550591*
X424803Y429331D02*
X415748D01*
Y425000*
X424803*
Y429331*
X420276D02*
Y428740D01*
Y425000D02*
Y425591D01*
X421063Y426378*
X419488Y427953*
X420276Y428740*
X509646Y487402D02*
Y479134D01*
X513976*
Y487402*
X509646*
X507480Y487008D02*
Y487402D01*
X516142*
Y487008*
X507480Y479528D02*
Y479134D01*
X516142*
Y479528*
X513189Y485827D02*
G75*
G03X513189I-591J0D01*
G01X511811Y484055D02*
Y482480D01*
X511024Y483268D02*
X512598D01*
X509646Y477559D02*
Y469291D01*
X513976*
Y477559*
X509646*
X507480Y477165D02*
Y477559D01*
X516142*
Y477165*
X507480Y469685D02*
Y469291D01*
X516142*
Y469685*
X513189Y475984D02*
G03X513189I-591J0D01*
G01X511811Y474213D02*
Y472638D01*
X511024Y473425D02*
X512598D01*
X509646Y467717D02*
Y459449D01*
X513976*
Y467717*
X509646*
X507480Y467323D02*
Y467717D01*
X516142*
Y467323*
X507480Y459843D02*
Y459449D01*
X516142*
Y459843*
X513189Y466142D02*
G03X513189I-591J0D01*
G01X511811Y464370D02*
Y462795D01*
X511024Y463583D02*
X512598D01*
X431181Y487205D02*
Y489173D01*
X419213*
Y487205*
X431181*
X430709Y480315D02*
X431496Y481102D01*
Y496063*
X418898*
Y480315*
X430709*
X431496D02*
Y487205D01*
X425197*
Y480315*
X431496*
X431181Y467520D02*
Y469488D01*
X419213*
Y467520*
X431181*
X430709Y460630D02*
X431496Y461417D01*
Y476378*
X418898*
Y460630*
X430709*
X431496D02*
Y467520D01*
X425197*
Y460630*
X431496*
X531417Y490157D02*
Y488189D01*
X543386*
Y490157*
X531417*
X531890Y497047D02*
X531102Y496260D01*
Y481299*
X543701*
Y497047*
X531890*
X531102D02*
Y490157D01*
X537402*
Y497047*
X531102*
X483268Y481378D02*
X481299D01*
Y469409*
X483268*
Y481378*
X490157Y480906D02*
X489370Y481693D01*
X474409*
Y469094*
X490157*
Y480906*
Y481693D02*
X483268D01*
Y475394*
X490157*
Y481693*
X538386Y499921D02*
X540354D01*
Y511890*
X538386*
Y499921*
X531496Y500394D02*
X532283Y499606D01*
X547244*
Y512205*
X531496*
Y500394*
Y499606D02*
X538386D01*
Y505906*
X531496*
Y499606*
X440945Y499921D02*
X442913D01*
Y511890*
X440945*
Y499921*
X434055Y500394D02*
X434843Y499606D01*
X449803*
Y512205*
X434055*
Y500394*
Y499606D02*
X440945D01*
Y505906*
X434055*
Y499606*
X460630Y499921D02*
X462598D01*
Y511890*
X460630*
Y499921*
X453740Y500394D02*
X454528Y499606D01*
X469488*
Y512205*
X453740*
Y500394*
Y499606D02*
X460630D01*
Y505906*
X453740*
Y499606*
X480315Y499921D02*
X482283D01*
Y511890*
X480315*
Y499921*
X473425Y500394D02*
X474213Y499606D01*
X489173*
Y512205*
X473425*
Y500394*
Y499606D02*
X480315D01*
Y505906*
X473425*
Y499606*
X500000Y499921D02*
X501969D01*
Y511890*
X500000*
Y499921*
X493110Y500394D02*
X493898Y499606D01*
X508858*
Y512205*
X493110*
Y500394*
Y499606D02*
X500000D01*
Y505906*
X493110*
Y499606*
X519685Y499921D02*
X521654D01*
Y511890*
X519685*
Y499921*
X512795Y500394D02*
X513583Y499606D01*
X528543*
Y512205*
X512795*
Y500394*
Y499606D02*
X519685D01*
Y505906*
X512795*
Y499606*
X431181Y505906D02*
Y507874D01*
X419213*
Y505906*
X431181*
X430709Y499016D02*
X431496Y499803D01*
Y514764*
X418898*
Y499016*
X430709*
X431496D02*
Y505906D01*
X425197*
Y499016*
X431496*
X460630Y448622D02*
Y460827D01*
X454724*
Y448622*
X460630*
X458465Y453937D02*
Y455512D01*
X456890Y453937D02*
Y455512D01*
Y454724D02*
X455709D01*
X458465D02*
X459646D01*
X475000Y436614D02*
X485630D01*
Y441339*
X475000*
Y436614*
X480315D02*
Y438189D01*
Y441339D02*
Y439764D01*
X479528Y438189D02*
X481102D01*
X479528Y439764D02*
X481102D01*
X472244Y415354D02*
X484449D01*
Y421260*
X472244*
Y415354*
X477559Y417520D02*
X479134D01*
X477559Y419094D02*
X479134D01*
X478346D02*
Y420276D01*
Y417520D02*
Y416339D01*
X483071Y434843D02*
X477559D01*
Y423425*
X483071*
Y434843*
Y431102*
X488386*
Y434843*
X483071*
X480315Y429921D02*
Y428346D01*
X479528Y429134D02*
X481102D01*
X482302Y432874D02*
G03X482302I-600J0D01*
G01X473031Y409055D02*
X483661D01*
Y413780*
X473031*
Y409055*
X478346D02*
Y410630D01*
Y413780D02*
Y412205D01*
X477559Y410630D02*
X479134D01*
X477559Y412205D02*
X479134D01*
X453150Y449409D02*
Y460039D01*
X448425*
Y449409*
X453150*
Y454724D02*
X451575D01*
X448425D02*
X450000D01*
X451575Y453937D02*
Y455512D01*
X450000Y453937D02*
Y455512D01*
X466929Y444882D02*
G03X466930Y446457I591J787D01*
G01Y443306D02*
G03X466929Y444882I590J788D01*
G01X473031Y438583D02*
Y451181D01*
X462008D02*
Y438583D01*
X466929Y443307D02*
Y442126D01*
Y446457D02*
Y447638D01*
X443307Y453937D02*
X432677D01*
Y447638*
X443307*
Y453937*
X437205Y452362D02*
Y449213D01*
X438780Y452362D02*
Y449213D01*
X437205Y450787*
X438780Y452362*
Y450787D02*
X440354D01*
X437205D02*
X435630D01*
X432677Y453937D02*
X428740D01*
Y447638*
X432677*
X428740Y453937D02*
X428346D01*
Y447638*
X428740*
X489567Y449016D02*
X478937D01*
Y442717*
X489567*
Y449016*
X483465Y447441D02*
Y444291D01*
X485039Y447441D02*
Y444291D01*
X483465Y445866*
X485039Y447441*
Y445866D02*
X486614D01*
X483465D02*
X481890D01*
X478937Y449016D02*
X475000D01*
Y442717*
X478937*
X475000Y449016D02*
X474606D01*
Y442717*
X475000*
X428543Y548819D02*
Y559449D01*
X423819*
Y548819*
X428543*
Y554134D02*
X426969D01*
X423819D02*
X425394D01*
X426969Y553346D02*
Y554921D01*
X425394Y553346D02*
Y554921D01*
X423819Y538780D02*
Y528150D01*
X428543*
Y538780*
X423819*
Y533465D02*
X425394D01*
X428543D02*
X426969D01*
X425394Y534252D02*
Y532677D01*
X426969Y534252D02*
Y532677D01*
X517323Y418701D02*
Y408071D01*
X522047*
Y418701*
X517323*
Y413386D02*
X518898D01*
X522047D02*
X520472D01*
X518898Y414173D02*
Y412598D01*
X520472Y414173D02*
Y412598D01*
X444291Y424803D02*
Y435433D01*
X439567*
Y424803*
X444291*
Y430118D02*
X442717D01*
X439567D02*
X441142D01*
X442717Y429331D02*
Y430906D01*
X441142Y429331D02*
Y430906D01*
X498622Y418701D02*
Y408071D01*
X503346*
Y418701*
X498622*
Y413386D02*
X500197D01*
X503346D02*
X501772D01*
X500197Y414173D02*
Y412598D01*
X501772Y414173D02*
Y412598D01*
X462008Y416929D02*
Y427559D01*
X457283*
Y416929*
X462008*
Y422244D02*
X460433D01*
X457283D02*
X458858D01*
X460433Y421457D02*
Y423031D01*
X458858Y421457D02*
Y423031D01*
X442913Y479331D02*
X440945D01*
X440354Y482677D02*
Y475984D01*
X443504*
Y482677*
X440354*
X435039Y517717D02*
X437008D01*
X437598Y514370D02*
Y521063D01*
X434449*
Y514370*
X437598*
X447835Y478346D02*
Y476378D01*
X444488Y475787D02*
X451181D01*
Y478937*
X444488*
Y475787*
X459646Y476378D02*
Y478346D01*
X462992Y478937D02*
X456299D01*
Y475787*
X462992*
Y478937*
X547244Y434055D02*
Y432087D01*
X543898Y431496D02*
X550591D01*
Y434646*
X543898*
Y431496*
X547244Y448819D02*
Y446850D01*
X543898Y446260D02*
X550591D01*
Y449409*
X543898*
Y446260*
X562992Y511811D02*
X561024D01*
X560433Y515157D02*
Y508465D01*
X563583*
Y515157*
X560433*
X408465Y435039D02*
X410433D01*
X411024Y431693D02*
Y438386D01*
X407874*
Y431693*
X411024*
X407480Y525591D02*
X409449D01*
X410039Y522244D02*
Y528937D01*
X406890*
Y522244*
X410039*
X413386Y481299D02*
Y479331D01*
X410039Y478740D02*
X416732D01*
Y481890*
X410039*
Y478740*
X501969Y485236D02*
Y487205D01*
X505315Y487795D02*
X498622D01*
Y484646*
X505315*
Y487795*
X504921Y474409D02*
X502953D01*
X502362Y477756D02*
Y471063D01*
X505512*
Y477756*
X502362*
X504921Y462598D02*
X502953D01*
X502362Y465945D02*
Y459252D01*
X505512*
Y465945*
X502362*
X553150Y468504D02*
X551181D01*
X550591Y471850D02*
Y465157D01*
X553740*
Y471850*
X550591*
X524213Y514370D02*
X521063D01*
Y517323*
X521654Y517717*
X521063Y518110*
Y521063*
X524213*
Y518110*
X523622Y517717*
X524213Y517323*
Y514370*
X546518Y515453D02*
X543935D01*
X546518D02*
Y516258D01*
X546395Y516526*
X546272Y516616*
X546026Y516705*
X545780*
X545534Y516616*
X545411Y516526*
X545288Y516258*
Y515453*
Y516079D02*
X543935Y516705D01*
X546026Y517511D02*
X546149Y517690D01*
X546518Y517958*
X543935*
X546518Y519300D02*
X546395Y519032D01*
X546026Y518853*
X545411Y518763*
X545042*
X544427Y518853*
X544058Y519032*
X543935Y519300*
Y519479*
X544058Y519748*
X544427Y519927*
X545042Y520016*
X545411*
X546026Y519927*
X546395Y519748*
X546518Y519479*
Y519300*
X534707Y515855D02*
X532124D01*
X534707D02*
Y516661D01*
X534584Y516929*
X534461Y517019*
X534215Y517108*
X533969*
X533723Y517019*
X533600Y516929*
X533477Y516661*
Y515855*
Y516482D02*
X532124Y517108D01*
X534215Y517913D02*
X534338Y518092D01*
X534707Y518361*
X532124*
X534215Y519166D02*
X534338Y519345D01*
X534707Y519613*
X532124*
X515810Y515059D02*
X513226D01*
X515810D02*
Y515864D01*
X515687Y516133*
X515563Y516222*
X515317Y516312*
X515071*
X514825Y516222*
X514702Y516133*
X514579Y515864*
Y515059*
Y515685D02*
X513226Y516312D01*
X515317Y517117D02*
X515440Y517296D01*
X515810Y517564*
X513226*
X515810Y518549D02*
Y519533D01*
X514825Y518996*
Y519264*
X514702Y519443*
X514579Y519533*
X514210Y519622*
X513964*
X513595Y519533*
X513349Y519354*
X513226Y519086*
Y518817*
X513349Y518549*
X513472Y518459*
X513718Y518370*
X507936Y515211D02*
X505352D01*
X507936D02*
Y516016D01*
X507813Y516285*
X507813D02*
X507689Y516374D01*
X507443Y516464*
X507197*
X506951Y516374*
X506828Y516285*
X506705Y516016*
Y515211*
Y515838D02*
X505352Y516464D01*
X507443Y517269D02*
X507566Y517448D01*
X507936Y517717*
X505352*
X507936Y519417D02*
X506213Y518522D01*
Y519864*
X507936Y519417D02*
X505352D01*
X496321Y515211D02*
X493738D01*
X496321D02*
Y516016D01*
X496198Y516285*
X496075Y516374*
X495829Y516464*
X495583*
X495337Y516374*
X495214Y516285*
X495091Y516016*
Y515211*
Y515838D02*
X493738Y516464D01*
X495829Y517269D02*
X495952Y517448D01*
X496321Y517717*
X493738*
X496321Y519685D02*
Y518790D01*
X495214Y518701*
X495337Y518790*
X495460Y519059*
Y519327*
X495337Y519596*
X495091Y519775*
X494722Y519864*
X494476Y519775*
X494107Y519685*
X493861Y519506*
X493738Y519238*
Y518969*
X493861Y518701*
X493984Y518611*
X494230Y518522*
X452227Y515050D02*
X449643D01*
X452227D02*
Y515855D01*
X452104Y516124*
X451981Y516213*
X451735Y516303*
X451489*
X451243Y516213*
X451120Y516124*
X450997Y515855*
Y515050*
Y515676D02*
X449643Y516303D01*
X451612Y517198D02*
X451735D01*
X451981Y517287*
X452104Y517377*
X452227Y517555*
Y517913*
X452104Y518092*
X451981Y518182*
X451735Y518271*
X451489*
X451243Y518182*
X450874Y518003*
X449643Y517108*
Y518361*
X452227Y519703D02*
X452104Y519434D01*
X452104D02*
X451735Y519256D01*
X451120Y519166*
X450750*
X450135Y519256*
X449766Y519434*
X449766D02*
X449643Y519703D01*
Y519882*
X449766Y520150*
X450135Y520329*
X450750Y520419*
X451120*
X451735Y520329*
X452104Y520150*
X452227Y519882*
Y519703*
X448684Y515256D02*
X446100D01*
X448684D02*
Y516061D01*
X448561Y516330*
X448438Y516419*
X448438D02*
X448191Y516509D01*
X447945*
X447699Y516419*
X447576Y516330*
X447453Y516061*
Y515256*
Y515882D02*
X446100Y516509D01*
X448068Y517403D02*
X448191D01*
X448438Y517493*
X448438D02*
X448561Y517582D01*
X448684Y517761*
Y518119*
X448561Y518298*
X448438Y518388*
X448438D02*
X448191Y518477D01*
X447945*
X447699Y518388*
X447330Y518209*
X446100Y517314*
Y518567*
X448191Y519372D02*
X448314Y519551D01*
X448684Y519819*
X446100*
X488447Y515301D02*
X485864D01*
X488447D02*
Y516106D01*
X488324Y516374*
X488201Y516464*
X487955Y516553*
X487709*
X487463Y516464*
X487340Y516374*
X487217Y516106*
Y515301*
Y515927D02*
X485864Y516553D01*
X487955Y517359D02*
X488078Y517538D01*
X488447Y517806*
X485864*
X488078Y519685D02*
X488324Y519596D01*
X488447Y519327*
Y519148*
X488324Y518880*
X487955Y518701*
X487340Y518611*
X486725*
X486233Y518701*
X485987Y518880*
X485864Y519148*
Y519238*
X485987Y519506*
X486233Y519685*
X486602Y519775*
X486725*
X487094Y519685*
X487340Y519506*
X487463Y519238*
Y519148*
X487340Y518880*
X487094Y518701*
X486725Y518611*
X476833Y515453D02*
X474250D01*
X476833D02*
Y516258D01*
X476710Y516526*
X476587Y516616*
X476341Y516705*
X476095*
X475849Y516616*
X475726Y516526*
X475603Y516258*
Y515453*
Y516079D02*
X474250Y516705D01*
X476341Y517511D02*
X476464Y517690D01*
X476833Y517958*
X474250*
X476833Y520016D02*
X474250Y519121D01*
X476833Y518763D02*
Y520016D01*
X468762Y515256D02*
X466179D01*
X468762D02*
Y516061D01*
X468639Y516330*
X468516Y516419*
X468270Y516509*
X468024*
X467778Y516419*
X467655Y516330*
X467532Y516061*
Y515256*
Y515882D02*
X466179Y516509D01*
X468270Y517314D02*
X468393Y517493D01*
X468762Y517761*
X466179*
X468762Y519014D02*
X468639Y518746D01*
X468393Y518656*
X468147*
X467901Y518746*
X467778Y518924*
X467655Y519282*
X467532Y519551*
X467286Y519730*
X467040Y519819*
X466671*
X466425Y519730*
X466302Y519640*
X466179Y519372*
Y519014*
X466302Y518746*
X466425Y518656*
X466671Y518567*
X467040*
X467286Y518656*
X467532Y518835*
X467655Y519103*
X467778Y519461*
X467901Y519640*
X468147Y519730*
X468393*
X468639Y519640*
X468762Y519372*
Y519014*
X456951Y515301D02*
X454368D01*
X456951D02*
Y516106D01*
X456828Y516374*
X456705Y516464*
X456459Y516553*
X456213*
X455967Y516464*
X455844Y516374*
X455721Y516106*
Y515301*
Y515927D02*
X454368Y516553D01*
X456459Y517359D02*
X456582Y517538D01*
X456951Y517806*
X454368*
X456090Y519775D02*
X455721Y519685D01*
X455475Y519506*
X455352Y519238*
Y519148*
X455475Y518880*
X455721Y518701*
X456090Y518611*
X456213*
X456582Y518701*
X456828Y518880*
X456951Y519148*
Y519238*
X456828Y519506*
X456582Y519685*
X456090Y519775*
X455475*
X454860Y519685*
X454491Y519506*
X454368Y519238*
Y519059*
X454491Y518790*
X454737Y518701*
X555771Y430180D02*
Y427596D01*
Y430180D02*
X554966D01*
X554698Y430057*
X554608Y429934*
X554519Y429688*
X554519D02*
Y429441D01*
X554608Y429195*
X554698Y429072*
X554966Y428949*
X555771*
X555145D02*
X554519Y427596D01*
X553534Y430180D02*
X552550D01*
X553087Y429195*
X552819*
X552640Y429072*
X552550Y428949*
X552461Y428580*
Y428334*
X552550Y427965*
X552729Y427719*
X552997Y427596*
X553266*
X553534Y427719*
X553624Y427842*
X553713Y428088*
X416052Y451636D02*
Y449053D01*
Y451636D02*
X415247D01*
X414979Y451513*
X414889Y451390*
X414800Y451144*
Y450898*
X414889Y450652*
X414979Y450529*
X415247Y450406*
X416052*
X415426D02*
X414800Y449053D01*
X413815Y451636D02*
X412831D01*
X413368Y450652*
X413099*
X413099D02*
X412921Y450529D01*
X412831Y450406*
X412742Y450037*
Y449791*
X412831Y449422*
X413010Y449176*
X413278Y449053*
X413547*
X413815Y449176*
X413905Y449299*
X413994Y449545*
X411847Y451021D02*
Y451144D01*
X411757Y451390*
X411668Y451513*
X411489Y451636*
X411131*
X410952Y451513*
X410863Y451390*
X410773Y451144*
Y450898*
X410863Y450652*
X411042Y450283*
X411936Y449053*
X410684*
X416052Y455573D02*
Y452990D01*
Y455573D02*
X415247D01*
X414979Y455450*
X414889Y455327*
X414800Y455081*
Y454835*
X414889Y454589*
X414979Y454466*
X415247Y454343*
X416052*
X415426D02*
X414800Y452990D01*
X413815Y455573D02*
X412831D01*
X413368Y454589*
X413099*
X413099D02*
X412921Y454466D01*
X412831Y454343*
X412742Y453974*
Y453728*
X412831Y453359*
X413010Y453113*
X413278Y452990*
X413547*
X413815Y453113*
X413905Y453236*
X413994Y453482*
X411757Y455573D02*
X410773D01*
X411310Y454589*
X411042*
X410863Y454466*
X410773Y454343*
X410684Y453974*
Y453728*
X410773Y453359*
X410952Y453113*
X411220Y452990*
X411489*
X411757Y453113*
X411847Y453236*
X411936Y453482*
X416688Y499471D02*
Y496887D01*
Y499471D02*
X415882D01*
X415614Y499348*
X415524Y499225*
X415435Y498979*
Y498733*
X415524Y498487*
X415614Y498364*
X415882Y498241*
X416688*
X416061D02*
X415435Y496887D01*
X414451Y499471D02*
X413466D01*
X414003Y498487*
X413735*
X413556Y498364*
X413466Y498241*
X413377Y497872*
Y497625*
X413466Y497256*
X413645Y497010*
X413914Y496887*
X414182*
X414451Y497010*
X414540Y497133*
X414630Y497379*
X411677Y499471D02*
X412572Y497749D01*
X411229*
X411677Y499471D02*
Y496887D01*
X416688Y503408D02*
Y500824D01*
Y503408D02*
X415882D01*
X415614Y503285*
X415524Y503162*
X415435Y502916*
Y502670*
X415524Y502424*
X415614Y502301*
X415882Y502178*
X416688*
X416061D02*
X415435Y500824D01*
X414451Y503408D02*
X413466D01*
X414003Y502424*
X413735*
X413556Y502301*
X413466Y502178*
X413377Y501809*
Y501563*
X413377D02*
X413466Y501193D01*
X413645Y500947*
X413914Y500824*
X414182*
X414451Y500947*
X414540Y501070*
X414630Y501316*
X411408Y503408D02*
X412303D01*
X412393Y502301*
X412303Y502424*
X412035Y502547*
X411766*
X411498Y502424*
X411319Y502178*
X411229Y501809*
X411319Y501563*
X411319D02*
X411408Y501193D01*
X411587Y500947*
X411856Y500824*
X412124*
X412393Y500947*
X412482Y501070*
X412572Y501316*
X416204Y515219D02*
Y512635D01*
Y515219D02*
X415399D01*
X415131Y515096*
X415041Y514973*
X414952Y514727*
Y514481*
X415041Y514235*
X415131Y514112*
X415399Y513989*
X416204*
X415578D02*
X414952Y512635D01*
X413967Y515219D02*
X412983D01*
X413520Y514235*
X413252*
X413073Y514112*
X412983Y513989*
X412894Y513620*
Y513374*
X412983Y513004*
X413162Y512758*
X413431Y512635*
X413699*
X413967Y512758*
X414057Y512881*
X414146Y513127*
X411015Y514850D02*
X411104Y515096D01*
X411373Y515219*
X411552*
X411820Y515096*
X411999Y514727*
X412088Y514112*
Y513497*
X411999Y513004*
X411820Y512758*
X411552Y512635*
X411462*
X411194Y512758*
X411015Y513004*
X410925Y513374*
Y513497*
X411015Y513866*
X411194Y514112*
X411462Y514235*
X411552*
X411820Y514112*
X411999Y513866*
X412088Y513497*
X416052Y459510D02*
Y456927D01*
Y459510D02*
X415247D01*
X414979Y459387*
X414889Y459264*
X414800Y459018*
Y458772*
X414889Y458526*
X414979Y458403*
X415247Y458280*
X416052*
X415426D02*
X414800Y456927D01*
X413815Y459510D02*
X412831D01*
X413368Y458526*
X413099*
X413099D02*
X412921Y458403D01*
X412831Y458280*
X412742Y457911*
Y457665*
X412831Y457296*
X413010Y457050*
X413278Y456927*
X413547*
X413815Y457050*
X413905Y457173*
X413994Y457419*
X410684Y459510D02*
X411578Y456927D01*
X411936Y459510D02*
X410684D01*
X416052Y447699D02*
Y445116D01*
Y447699D02*
X415247D01*
X414979Y447576*
X414889Y447453*
X414800Y447207*
Y446961*
X414889Y446715*
X414979Y446592*
X415247Y446469*
X416052*
X415426D02*
X414800Y445116D01*
X413815Y447699D02*
X412831D01*
X413368Y446715*
X413099*
X413099D02*
X412921Y446592D01*
X412831Y446469*
X412742Y446100*
Y445854*
X412831Y445485*
X413010Y445239*
X413278Y445116*
X413547*
X413815Y445239*
X413905Y445362*
X413994Y445608*
X411489Y447699D02*
X411757Y447576D01*
X411847Y447330*
Y447084*
X411757Y446838*
X411578Y446715*
X411220Y446592*
X410952Y446469*
X410773Y446223*
X410684Y445977*
Y445608*
X410773Y445362*
X410863Y445239*
X411131Y445116*
X411489*
X411757Y445239*
X411847Y445362*
X411936Y445608*
Y445977*
X411847Y446223*
X411668Y446469*
X411399Y446592*
X411042Y446715*
X410863Y446838*
X410773Y447084*
Y447330*
X410863Y447576*
X411131Y447699*
X411489*
X416598Y507345D02*
Y504761D01*
Y507345D02*
X415793D01*
X415524Y507222*
X415435Y507099*
X415345Y506853*
Y506607*
X415435Y506361*
X415524Y506238*
X415793Y506115*
X416598*
X415972D02*
X415345Y504761D01*
X414361Y507345D02*
X413377D01*
X413914Y506361*
X413645*
X413466Y506238*
X413377Y506115*
X413287Y505746*
Y505500*
X413377Y505130*
X413556Y504884*
X413824Y504761*
X414093*
X414361Y504884*
X414451Y505007*
X414540Y505253*
X411319Y506484D02*
X411408Y506115D01*
X411587Y505869*
X411856Y505746*
X411945*
X412214Y505869*
X412393Y506115*
X412482Y506484*
Y506607*
X412393Y506976*
X412214Y507222*
X411945Y507345*
X411856*
X411587Y507222*
X411408Y506976*
X411319Y506484*
Y505869*
X411408Y505253*
X411587Y504884*
X411856Y504761*
X412035*
X412303Y504884*
X412393Y505130*
X510298Y444336D02*
X507714D01*
X510298D02*
Y445141D01*
X510175Y445410*
X510052Y445499*
X509806Y445589*
X509560*
X509313Y445499*
X509190Y445410*
X509067Y445141*
Y444336*
Y444962D02*
X507714Y445589D01*
X510298Y447289D02*
X508575Y446394D01*
Y447736*
X510298Y447289D02*
X507714D01*
X509683Y448631D02*
X509806D01*
X510052Y448720*
X510175Y448810*
X510298Y448989*
Y449347*
X510175Y449526*
X510052Y449615*
X509806Y449705*
X509560*
X509313Y449615*
X508944Y449436*
X507714Y448542*
Y449794*
X514235Y444336D02*
X511651D01*
X514235D02*
Y445141D01*
X514112Y445410*
X513989Y445499*
X513743Y445589*
X513497*
X513250Y445499*
X513127Y445410*
X513004Y445141*
Y444336*
Y444962D02*
X511651Y445589D01*
X514235Y447289D02*
X512512Y446394D01*
Y447736*
X514235Y447289D02*
X511651D01*
X514235Y448720D02*
Y449705D01*
X513250Y449168*
Y449436*
X513127Y449615*
X513004Y449705*
X512635Y449794*
X512389*
X512020Y449705*
X511774Y449526*
X511651Y449257*
Y448989*
X511774Y448720*
X511897Y448631*
X512143Y448542*
X551969Y484510D02*
Y481927D01*
Y484510D02*
X551163D01*
X550895Y484387*
X550805Y484264*
X550716Y484018*
Y483772*
X550805Y483526*
X550895Y483403*
X551163Y483280*
X551969*
X551342D02*
X550716Y481927D01*
X549016Y484510D02*
X549911Y482788D01*
X548568*
X549016Y484510D02*
Y481927D01*
X546868Y484510D02*
X547763Y482788D01*
X546421*
X546868Y484510D02*
Y481927D01*
X552362Y496518D02*
Y493935D01*
Y496518D02*
X551557D01*
X551288Y496395*
X551199Y496272*
X551110Y496026*
Y495780*
X551199Y495534*
X551288Y495411*
X551557Y495288*
X552362*
X551736D02*
X551110Y493935D01*
X549409Y496518D02*
X550304Y494796D01*
X548962*
X549409Y496518D02*
Y493935D01*
X546994Y496518D02*
X547888D01*
X547978Y495411*
X547888Y495534*
X547620Y495657*
X547351*
X547083Y495534*
X546904Y495288*
X546815Y494919*
X546904Y494673*
X546994Y494304*
X547173Y494058*
X547441Y493935*
X547709*
X547978Y494058*
X548067Y494181*
X548157Y494427*
X477424Y461507D02*
X474840D01*
X477424D02*
Y462312D01*
X477301Y462581*
X477178Y462670*
X476932Y462759*
X476686*
X476439Y462670*
X476316Y462581*
X476193Y462312*
Y461507*
Y462133D02*
X474840Y462759D01*
X477424Y464460D02*
X475701Y463565D01*
Y464907*
X477424Y464460D02*
X474840D01*
X477055Y466786D02*
X477301Y466696D01*
X477424Y466428*
Y466249*
X477301Y465981*
X476932Y465802*
X476316Y465712*
X475701*
X475209Y465802*
X474963Y465981*
X474840Y466249*
Y466339*
X474963Y466607*
X475209Y466786*
X475578Y466875*
X475701*
X476070Y466786*
X476316Y466607*
X476439Y466339*
Y466249*
X476316Y465981*
X476070Y465802*
X475701Y465712*
X489235Y461659D02*
X486651D01*
X489235D02*
Y462464D01*
X489112Y462733*
X488989Y462822*
X488743Y462912*
X488497*
X488250Y462822*
X488127Y462733*
X488004Y462464*
Y461659*
Y462285D02*
X486651Y462912D01*
X489235Y464612D02*
X487512Y463717D01*
Y465059*
X489235Y464612D02*
X486651D01*
X489235Y467117D02*
X486651Y466222D01*
X489235Y465864D02*
Y467117D01*
X555816Y444943D02*
Y442360D01*
Y444943D02*
X555011D01*
X554742Y444820*
X554653Y444697*
X554563Y444451*
Y444205*
X554653Y443959*
X554742Y443836*
X555011Y443713*
X555816*
X555190D02*
X554563Y442360D01*
X552595Y444943D02*
X553490D01*
X553579Y443836*
X553490Y443959*
X553221Y444082*
X552953*
X552684Y443959*
X552505Y443713*
X552416Y443344*
X552505Y443098*
X552595Y442729*
X552774Y442483*
X553042Y442360*
X553311*
X553579Y442483*
X553669Y442606*
X553758Y442852*
X422110Y423880D02*
Y421297D01*
Y423880D02*
X421305D01*
X421036Y423757*
X420947Y423634*
X420857Y423388*
Y423142*
X420947Y422896*
X421036Y422773*
X421305Y422650*
X422110*
X421484D02*
X420857Y421297D01*
X419962Y423265D02*
Y423388D01*
X419873Y423634*
X419783Y423757*
X419605Y423880*
X419247*
X419068Y423757*
X418978Y423634*
X418889Y423388*
Y423142*
X418978Y422896*
X419157Y422527*
X420052Y421297*
X418799*
X521958Y484707D02*
Y482862D01*
X521868Y482493*
X521689Y482247*
X521421Y482124*
X521242*
X520974Y482247*
X520795Y482493*
X520705Y482862*
Y484707*
X518737D02*
X519631D01*
X519721Y483600*
X519631Y483723*
X519363Y483846*
X519094*
X518826Y483723*
X518647Y483477*
X518558Y483108*
X518647Y482862*
X518737Y482493*
X518916Y482247*
X519184Y482124*
X519452*
X519721Y482247*
X519810Y482370*
X519900Y482616*
X521868Y474865D02*
Y473019D01*
X521779Y472650*
X521600Y472404*
X521331Y472281*
X521152*
X520884Y472404*
X520705Y472650*
X520616Y473019*
Y474865*
X518737Y474496D02*
X518826Y474742D01*
X519094Y474865*
X519273*
X519542Y474742*
X519721Y474373*
X519810Y473757*
Y473142*
X519721Y472650*
X519542Y472404*
X519273Y472281*
X519184*
X518916Y472404*
X518737Y472650*
X518647Y473019*
Y473142*
X518737Y473511*
X518916Y473757*
X519184Y473880*
X519273*
X519542Y473757*
X519721Y473511*
X519810Y473142*
X521913Y465022D02*
Y463177D01*
X521824Y462808*
X521645Y462562*
X521376Y462438*
X521197*
X520929Y462562*
X520750Y462808*
X520660Y463177*
Y465022*
X518602D02*
X519497Y462438D01*
X519855Y465022D02*
X518602D01*
X435101Y486122D02*
X432517D01*
X435101D02*
Y486748D01*
X434978Y487017*
X434732Y487196*
X434486Y487285*
X434117Y487375*
X433501*
X433132Y487285*
X432886Y487196*
X432640Y487017*
X432517Y486748*
Y486122*
X434609Y488180D02*
X434732Y488359D01*
X435101Y488627*
X432517*
X435101Y489970D02*
X434978Y489701D01*
X434609Y489522*
X433994Y489433*
X433625*
X433009Y489522*
X432640Y489701*
X432517Y489970*
Y490149*
X432640Y490417*
X433009Y490596*
X433625Y490685*
X433994*
X434609Y490596*
X434978Y490417*
X435101Y490149*
Y489970*
Y466840D02*
X432517D01*
X435101D02*
Y467466D01*
X434978Y467734*
X434732Y467913*
X434486Y468003*
X434117Y468092*
X433501*
X433132Y468003*
X432886Y467913*
X432640Y467734*
X432517Y467466*
Y466840*
X434609Y468898D02*
X434732Y469077D01*
X435101Y469345*
X432517*
X434609Y470150D02*
X434732Y470329D01*
X435101Y470598*
X432517*
X540059Y479786D02*
Y477202D01*
Y479786D02*
X539433D01*
X539164Y479663*
X538985Y479417*
X538896Y479171*
X538806Y478802*
Y478187*
X538896Y477817*
X538985Y477571*
X539164Y477325*
X539433Y477202*
X540059*
X538001Y479294D02*
X537822Y479417D01*
X537554Y479786*
Y477202*
X536659Y479171D02*
Y479294D01*
X536569Y479540*
X536480Y479663*
X536301Y479786*
X535943*
X535764Y479663*
X535675Y479540*
X535585Y479294*
Y479048*
X535675Y478802*
X535854Y478433*
X536748Y477202*
X535496*
X484350Y485101D02*
Y482517D01*
Y485101D02*
X483724D01*
X483456Y484978*
X483277Y484732*
X483187Y484486*
X483098Y484117*
Y483501*
X483187Y483132*
X483277Y482886*
X483456Y482640*
X483724Y482517*
X484350*
X482292Y484609D02*
X482113Y484732D01*
X481845Y485101*
Y482517*
X480861Y485101D02*
X479877D01*
X480413Y484117*
X480145*
X479966Y483994*
X479877Y483871*
X479787Y483501*
Y483255*
X479877Y482886*
X480055Y482640*
X480324Y482517*
X480592*
X480861Y482640*
X480950Y482763*
X481040Y483009*
X552425Y502227D02*
Y499643D01*
Y502227D02*
X551798D01*
X551530Y502104*
X551351Y501858*
X551262Y501612*
X551172Y501243*
Y500627*
X551262Y500258*
X551351Y500012*
X551530Y499766*
X551798Y499643*
X552425*
X550188Y502227D02*
X549204D01*
X549741Y501243*
X549472*
X549293Y501120*
X549204Y500997*
X549114Y500627*
Y500381*
X549204Y500012*
X549383Y499766*
X549651Y499643*
X549919*
X550188Y499766*
X550277Y499889*
X550367Y500135*
X442824Y498290D02*
Y495706D01*
Y498290D02*
X442198D01*
X441929Y498167*
X441750Y497921*
X441661Y497675*
X441571Y497306*
Y496690*
X441661Y496321*
X441750Y496075*
X441929Y495829*
X442198Y495706*
X442824*
X439871Y498290D02*
X440766Y496567D01*
X439424*
X439871Y498290D02*
Y495706D01*
X462509Y498290D02*
Y495706D01*
Y498290D02*
X461883D01*
X461614Y498167*
X461435Y497921*
X461346Y497675*
X461256Y497306*
Y496690*
X461346Y496321*
X461435Y496075*
X461614Y495829*
X461883Y495706*
X462509*
X459288Y498290D02*
X460183D01*
X460272Y497183*
X460183Y497306*
X459914Y497429*
X459646*
X459377Y497306*
X459198Y497060*
X459109Y496690*
X459198Y496444*
X459288Y496075*
X459467Y495829*
X459735Y495706*
X460004*
X460272Y495829*
X460361Y495952*
X460451Y496198*
X482105Y498290D02*
Y495706D01*
Y498290D02*
X481478D01*
X481210Y498167*
X481031Y497921*
X480941Y497675*
X480852Y497306*
Y496690*
X480941Y496321*
X481031Y496075*
X481210Y495829*
X481478Y495706*
X482105*
X478973Y497921D02*
X479062Y498167D01*
X479331Y498290*
X479510*
X479778Y498167*
X479957Y497798*
X480047Y497183*
Y496567*
X479957Y496075*
X479778Y495829*
X479510Y495706*
X479420*
X479152Y495829*
X478973Y496075*
X478883Y496444*
Y496567*
X478973Y496937*
X479152Y497183*
X479420Y497306*
X479510*
X479778Y497183*
X479957Y496937*
X480047Y496567*
X501834Y498290D02*
Y495706D01*
Y498290D02*
X501208D01*
X500940Y498167*
X500761Y497921*
X500671Y497675*
X500582Y497306*
Y496690*
X500671Y496321*
X500761Y496075*
X500940Y495829*
X501208Y495706*
X501834*
X498524Y498290D02*
X499418Y495706D01*
X499776Y498290D02*
X498524D01*
X521519D02*
Y495706D01*
Y498290D02*
X520893D01*
X520625Y498167*
X520446Y497921*
X520356Y497675*
X520267Y497306*
Y496690*
X520356Y496321*
X520446Y496075*
X520625Y495829*
X520893Y495706*
X521519*
X519014Y498290D02*
X519282Y498167D01*
X519372Y497921*
Y497675*
X519282Y497429*
X519103Y497306*
X518746Y497183*
X518477Y497060*
X518298Y496813*
X518209Y496567*
Y496198*
X518298Y495952*
X518388Y495829*
X518656Y495706*
X519014*
X519282Y495829*
X519372Y495952*
X519461Y496198*
Y496567*
X519372Y496813*
X519193Y497060*
X518924Y497183*
X518567Y497306*
X518388Y497429*
X518298Y497675*
Y497921*
X518388Y498167*
X518656Y498290*
X519014*
X426790Y518959D02*
Y516375D01*
Y518959D02*
X426163D01*
X425895Y518836*
X425716Y518590*
X425626Y518344*
X425537Y517975*
Y517360*
X425626Y516991*
X425716Y516745*
X425895Y516499*
X426163Y516375*
X426790*
X423568Y518098D02*
X423658Y517729D01*
X423837Y517483*
X424105Y517360*
X424195*
X424463Y517483*
X424642Y517729*
X424732Y518098*
Y518221*
X424642Y518590*
X424463Y518836*
X424195Y518959*
X424105*
X423837Y518836*
X423658Y518590*
X423568Y518098*
Y517483*
X423658Y516868*
X423837Y516499*
X424105Y516375*
X424284*
X424553Y516499*
X424642Y516745*
X458501Y443665D02*
X458748Y443576D01*
X458994Y443397*
X459117Y443218*
Y442860*
X458994Y442681*
X458748Y442502*
X458501Y442412*
X458132Y442323*
X457517*
X457148Y442412*
X456902Y442502*
X456656Y442681*
X456533Y442860*
Y443218*
X456656Y443397*
X456902Y443576*
X457148Y443665*
X459117Y445633D02*
Y444739D01*
X458009Y444649*
X458132Y444739*
X458255Y445007*
Y445276*
X458132Y445544*
X457886Y445723*
X457517Y445812*
X457271Y445723*
X456902Y445633*
X456902D02*
X456656Y445455D01*
X456533Y445186*
Y444918*
X456656Y444649*
X456779Y444560*
X457025Y444470*
X458501Y446707D02*
X458625D01*
X458871Y446797*
X458994Y446886*
X459117Y447065*
Y447423*
X458994Y447602*
X458871Y447691*
X458625Y447781*
X458378*
X458132Y447691*
X457763Y447513*
X456533Y446618*
Y447870*
X491571Y440194D02*
X491661Y440440D01*
X491840Y440687*
X492019Y440810*
X492377*
X492555Y440687*
X492734Y440440*
X492824Y440194*
X492913Y439825*
Y439210*
X492824Y438841*
X492734Y438595*
X492555Y438349*
X492377Y438226*
X492019*
X491840Y438349*
X491661Y438595*
X491571Y438841*
X489603Y440810D02*
X490497D01*
X490587Y439702*
X490497Y439825*
X490229Y439948*
X489961*
X489692Y439825*
X489513Y439579*
X489424Y439210*
X489513Y438964*
X489603Y438595*
X489782Y438349*
X490050Y438226*
X490319*
X490587Y438349*
X490676Y438472*
X490766Y438718*
X488440Y440810D02*
X487455D01*
X487992Y439825*
X487724*
X487545Y439702*
X487455Y439579*
X487366Y439210*
Y438964*
X487455Y438595*
X487634Y438349*
X487903Y438226*
X488171*
X488440Y438349*
X488529Y438472*
X488618Y438718*
X489996Y419131D02*
X490086Y419377D01*
X490265Y419624*
X490444Y419747*
X490802*
X490981Y419624*
X491160Y419377*
X491249Y419131*
X491339Y418762*
Y418147*
X491249Y417778*
X491160Y417532*
X490981Y417286*
X490802Y417163*
X490444*
X490265Y417286*
X490086Y417532*
X489996Y417778*
X488028Y419747D02*
X488923D01*
X489012Y418639*
X488923Y418762*
X488654Y418885*
X488386*
X488117Y418762*
X487938Y418516*
X487849Y418147*
X487938Y417901*
X488028Y417532*
X488207Y417286*
X488475Y417163*
X488744*
X489012Y417286*
X489102Y417409*
X489191Y417655*
X486507Y419747D02*
X486775Y419624D01*
X486954Y419254*
X487044Y418639*
Y418270*
X486954Y417655*
X486775Y417286*
X486507Y417163*
X486328*
X486059Y417286*
X485880Y417655*
X485791Y418270*
Y418639*
X485880Y419254*
X486059Y419624*
X486328Y419747*
X486507*
X494587Y434313D02*
Y432468D01*
X494497Y432099*
X494318Y431853*
X494050Y431730*
X493871*
X493602Y431853*
X493423Y432099*
X493334Y432468*
Y434313*
X492529Y433821D02*
X492350Y433944D01*
X492081Y434313*
Y431730*
X490739Y434313D02*
X491008Y434190D01*
X491186Y433821*
X491276Y433206*
Y432837*
X491186Y432222*
X491008Y431853*
X490739Y431730*
X490560*
X490292Y431853*
X490113Y432222*
X490023Y432837*
Y433206*
X490113Y433821*
X490292Y434190*
X490560Y434313*
X490739*
X490891Y412857D02*
Y410273D01*
Y412857D02*
X490265D01*
X489996Y412734*
X489817Y412488*
X489728Y412242*
X489639Y411873*
Y411257*
X489728Y410888*
X489817Y410642*
X489996Y410396*
X490265Y410273*
X490891*
X487491Y412242D02*
X487581Y412488D01*
X487759Y412734*
X487938Y412857*
X488296*
X488475Y412734*
X488654Y412488*
X488744Y412242*
X488833Y411873*
Y411257*
X488744Y410888*
X488654Y410642*
X488475Y410396*
X488296Y410273*
X487938*
X487759Y410396*
X487581Y410642*
X487491Y410888*
X486686Y412365D02*
X486507Y412488D01*
X486238Y412857*
Y410273*
X452227Y442368D02*
X449643D01*
X452227D02*
Y442994D01*
X452104Y443262*
X451858Y443441*
X451612Y443531*
X451243Y443620*
X450627*
X450258Y443531*
X450012Y443441*
X449766Y443262*
X449643Y442994*
Y442368*
X451612Y445768D02*
X451858Y445678D01*
X452104Y445499*
X452227Y445320*
Y444962*
X452104Y444783*
X451858Y444605*
X451612Y444515*
X451243Y444426*
X450627*
X450258Y444515*
X450012Y444605*
X449766Y444783*
X449643Y444962*
Y445320*
X449766Y445499*
X450012Y445678*
X450258Y445768*
X452227Y446752D02*
Y447736D01*
X451243Y447199*
Y447468*
X451120Y447647*
X450997Y447736*
X450627Y447826*
X450381*
X450012Y447736*
X449766Y447557*
X449643Y447289*
Y447020*
X449766Y446752*
X449889Y446662*
X450135Y446573*
X468665Y456164D02*
Y453580D01*
X467591*
X466786Y455672D02*
X466607Y455795D01*
X466339Y456164*
Y453580*
X440104Y446912D02*
Y444328D01*
Y446912D02*
X439477D01*
X439209Y446789*
X439030Y446543*
X438941Y446297*
X438851Y445928*
Y445313*
X438851D02*
X438941Y444943D01*
X439030Y444697*
X439209Y444451*
X439477Y444328*
X440104*
X438046Y446420D02*
X437867Y446543D01*
X437598Y446912*
Y444328*
X435898Y446912D02*
X436793Y445189D01*
X435451*
X435898Y446912D02*
Y444328D01*
X486865Y452424D02*
Y449840D01*
Y452424D02*
X486238D01*
X485970Y452301*
X485791Y452055*
X485702Y451809*
X485702D02*
X485612Y451439D01*
Y450824*
X485702Y450455*
X485702D02*
X485791Y450209D01*
X485970Y449963*
X486238Y449840*
X486865*
X484807Y451932D02*
X484628Y452055D01*
X484359Y452424*
Y449840*
X482480Y452055D02*
X482570Y452301D01*
X482838Y452424*
X483017*
X483286Y452301*
X483465Y451932*
X483554Y451316*
Y450701*
X483465Y450209*
X483286Y449963*
X483017Y449840*
X482928*
X482659Y449963*
X482480Y450209*
X482391Y450578*
Y450701*
X482480Y451070*
X482659Y451316*
X482928Y451439*
X483017*
X483286Y451316*
X483465Y451070*
X483554Y450701*
X426218Y543164D02*
X426464Y543074D01*
X426710Y542895*
X426833Y542717*
Y542359*
X426710Y542180*
X426464Y542001*
X426218Y541911*
X425849Y541822*
X425234*
X424865Y541911*
X424619Y542001*
X424373Y542180*
X424250Y542359*
Y542717*
X424373Y542895*
X424619Y543074*
X424865Y543164*
X426218Y544059D02*
X426341D01*
X426587Y544148*
X426710Y544238*
X426833Y544417*
Y544775*
X426710Y544953*
X426587Y545043*
X426341Y545132*
X426095*
X425849Y545043*
X425480Y544864*
X424250Y543969*
Y545222*
X425972Y547190D02*
X425603Y547101D01*
X425357Y546922*
X425234Y546654*
Y546564*
X425357Y546296*
X425603Y546117*
X425972Y546027*
X426095*
X426464Y546117*
X426710Y546296*
X426833Y546564*
Y546654*
X426710Y546922*
X426464Y547101*
X425972Y547190*
X425357*
X424742Y547101*
X424373Y546922*
X424250Y546654*
Y546475*
X424373Y546206*
X424619Y546117*
X426612Y523040D02*
X426858Y522951D01*
X427104Y522772*
X427227Y522593*
Y522235*
X427104Y522056*
X426858Y521877*
X426612Y521788*
X426243Y521698*
X425627*
X425258Y521788*
X425012Y521877*
X424766Y522056*
X424643Y522235*
Y522593*
X424766Y522772*
X425012Y522951*
X425258Y523040*
X427227Y524025D02*
Y525009D01*
X426243Y524472*
Y524741*
X426120Y524919*
X425997Y525009*
X425627Y525098*
X425381*
X425012Y525009*
X424766Y524830*
X424643Y524562*
Y524293*
X424766Y524025*
X424889Y523935*
X425135Y523846*
X427227Y526441D02*
X427104Y526172D01*
X426735Y525993*
X426120Y525904*
X425750*
X425135Y525993*
X424766Y526172*
X424643Y526441*
Y526620*
X424766Y526888*
X425135Y527067*
X425750Y527156*
X426120*
X426735Y527067*
X427104Y526888*
X427227Y526620*
Y526441*
X519919Y404590D02*
X520165Y404501D01*
X520411Y404322*
X520534Y404143*
Y403785*
X520411Y403606*
X520165Y403427*
X519919Y403338*
X519550Y403248*
X518935*
X518565Y403338*
X518319Y403427*
X518073Y403606*
X517950Y403785*
Y404143*
X518073Y404322*
X518319Y404501*
X518565Y404590*
X520042Y405395D02*
X520165Y405574D01*
X520534Y405843*
X517950*
X442557Y421314D02*
X442803Y421224D01*
X443049Y421045*
X443172Y420866*
Y420508*
X443049Y420329*
X442803Y420150*
X442557Y420061*
X442187Y419971*
X442187D02*
X441572D01*
X441203Y420061*
X440957Y420150*
X440711Y420329*
X440588Y420508*
Y420866*
X440711Y421045*
X440957Y421224*
X441203Y421314*
X442557Y422208D02*
X442680D01*
X442926Y422298*
X443049Y422387*
X443172Y422566*
Y422924*
X443049Y423103*
X442926Y423193*
X442680Y423282*
X442434*
X442187Y423193*
X442187D02*
X441818Y423014D01*
X440588Y422119*
Y423372*
X501218Y404188D02*
X501464Y404098D01*
X501710Y403919*
X501833Y403740*
Y403382*
X501710Y403203*
X501464Y403024*
X501218Y402935*
X500849Y402845*
X500234*
X499865Y402935*
X499619Y403024*
X499373Y403203*
X499250Y403382*
Y403740*
X499373Y403919*
X499619Y404098*
X499865Y404188*
X501833Y405172D02*
Y406156D01*
X500849Y405619*
Y405888*
X500726Y406067*
X500603Y406156*
X500234Y406246*
X499988*
X499619Y406156*
X499373Y405977*
X499250Y405709*
Y405440*
X499373Y405172*
X499496Y405082*
X499742Y404993*
X460273Y413395D02*
X460519Y413305D01*
X460765Y413126*
X460888Y412947*
Y412589*
X460765Y412411*
X460519Y412232*
X460273Y412142*
X459904Y412053*
X459289*
X458920Y412142*
X458674Y412232*
X458428Y412411*
X458305Y412589*
Y412947*
X458428Y413126*
X458674Y413305*
X458920Y413395*
X460888Y415095D02*
X459166Y414200D01*
Y415542*
X460888Y415095D02*
X458305D01*
X442360Y471949D02*
X442606Y471859D01*
X442852Y471680*
X442975Y471501*
Y471144*
X442852Y470965*
X442606Y470786*
X442360Y470696*
X441991Y470607*
X441375*
X441006Y470696*
X440760Y470786*
X440514Y470965*
X440391Y471144*
Y471501*
X440514Y471680*
X440760Y471859*
X441006Y471949*
X442114Y473917D02*
X441745Y473828D01*
X441499Y473649*
X441375Y473380*
Y473291*
X441499Y473023*
X441745Y472844*
X442114Y472754*
X442237*
X442606Y472844*
X442852Y473023*
X442975Y473291*
Y473380*
X442852Y473649*
X442606Y473828*
X442114Y473917*
X441499*
X440883Y473828*
X440514Y473649*
X440391Y473380*
Y473202*
X440514Y472933*
X440760Y472844*
X432911Y516553D02*
X433157Y516464D01*
X433403Y516285*
X433526Y516106*
Y515748*
X433403Y515569*
X433157Y515390*
X432911Y515301*
X432542Y515211*
X431927*
X431558Y515301*
X431312Y515390*
X431065Y515569*
X430942Y515748*
Y516106*
X431065Y516285*
X431312Y516464*
X431558Y516553*
X433034Y517359D02*
X433157Y517538D01*
X433526Y517806*
X430942*
X433526Y519148D02*
X433403Y518880D01*
X433034Y518701*
X432419Y518611*
X432050*
X431435Y518701*
X431065Y518880*
X430942Y519148*
Y519327*
X431065Y519596*
X431435Y519775*
X432050Y519864*
X432419*
X433034Y519775*
X433403Y519596*
X433526Y519327*
Y519148*
X448398Y473659D02*
X448488Y473905D01*
X448667Y474151*
X448846Y474274*
X449204*
X449383Y474151*
X449562Y473905*
X449651Y473659*
X449741Y473290*
Y472675*
X449651Y472306*
X449562Y472060*
X449383Y471813*
X449204Y471690*
X448846*
X448667Y471813*
X448488Y472060*
X448398Y472306*
X447593Y473782D02*
X447414Y473905D01*
X447146Y474274*
Y471690*
X446340Y473782D02*
X446161Y473905D01*
X445893Y474274*
Y471690*
X460809Y473856D02*
X460898Y474102D01*
X461077Y474348*
X461256Y474471*
X461614*
X461793Y474348*
X461972Y474102*
X462062Y473856*
X462151Y473487*
Y472872*
X462062Y472502*
X461972Y472256*
X461793Y472010*
X461614Y471887*
X461256*
X461077Y472010*
X460898Y472256*
X460809Y472502*
X460004Y473979D02*
X459825Y474102D01*
X459556Y474471*
Y471887*
X458572Y474471D02*
X457588D01*
X458125Y473487*
X457856*
X457677Y473364*
X457588Y473241*
X457498Y472872*
Y472625*
X457588Y472256*
X457767Y472010*
X458035Y471887*
X458304*
X458572Y472010*
X458661Y472133*
X458751Y472379*
X555145Y433501D02*
X555234Y433748D01*
X555413Y433994*
X555592Y434117*
X555950*
X556129Y433994*
X556308Y433748*
X556398Y433501*
X556487Y433132*
Y432517*
X556398Y432148*
X556308Y431902*
X556129Y431656*
X555950Y431533*
X555592*
X555413Y431656*
X555234Y431902*
X555145Y432148*
X554340Y433625D02*
X554161Y433748D01*
X553892Y434117*
Y431533*
X552192Y434117D02*
X553087Y432394D01*
X551745*
X552192Y434117D02*
Y431533D01*
X555100Y448265D02*
X555190Y448511D01*
X555369Y448757*
X555548Y448880*
X555906*
X556084Y448757*
X556263Y448511*
X556353Y448265*
X556442Y447896*
Y447281*
X556353Y446912*
X556263Y446666*
X556084Y446420*
X555906Y446297*
X555548*
X555369Y446420*
X555190Y446666*
X555100Y446912*
X554295Y448388D02*
X554116Y448511D01*
X553848Y448880*
Y446297*
X551790Y448880D02*
X552684Y446297D01*
X553042Y448880D02*
X551790D01*
X562635Y503758D02*
X562881Y503669D01*
X563127Y503490*
X563250Y503311*
Y502953*
X563127Y502774*
X562881Y502595*
X562635Y502505*
X562266Y502416*
X561651*
X561282Y502505*
X561036Y502595*
X560790Y502774*
X560667Y502953*
Y503311*
X560790Y503490*
X561036Y503669*
X561282Y503758*
X562758Y504563D02*
X562881Y504742D01*
X563250Y505011*
X560667*
X563250Y506263D02*
X563127Y505995D01*
X562881Y505906*
X562635*
X562389Y505995*
X562266Y506174*
X562143Y506532*
X562020Y506800*
X561774Y506979*
X561528Y507069*
X561159*
X560913Y506979*
X560790Y506890*
X560667Y506621*
Y506263*
X560790Y505995*
X560913Y505906*
X561159Y505816*
X561528*
X561774Y505906*
X562020Y506084*
X562143Y506353*
X562266Y506711*
X562389Y506890*
X562635Y506979*
X562881*
X563127Y506890*
X563250Y506621*
Y506263*
X413816Y433912D02*
X414063Y433822D01*
X414063D02*
X414309Y433644D01*
X414432Y433465*
Y433107*
X414309Y432928*
X414063Y432749*
X414063D02*
X413816Y432659D01*
X413447Y432570*
X412832*
X412463Y432659*
X412217Y432749*
X411971Y432928*
X411848Y433107*
Y433465*
X411971Y433644*
X412217Y433822*
X412463Y433912*
X414432Y434896D02*
Y435880D01*
X413447Y435344*
Y435612*
X413324Y435791*
X413201Y435880*
X412832Y435970*
X412586*
X412217Y435880*
X411971Y435701*
X411971D02*
X411848Y435433D01*
Y435165*
X411971Y434896*
X412094Y434807*
X412340Y434717*
X413570Y437938D02*
X413201Y437849D01*
X412955Y437670*
X412832Y437402*
Y437312*
X412955Y437044*
X413201Y436865*
X413570Y436775*
X413693*
X414063Y436865*
X414063D02*
X414309Y437044D01*
X414432Y437312*
Y437402*
X414309Y437670*
X414063Y437849*
X414063D02*
X413570Y437938D01*
X412955*
X412340Y437849*
X411971Y437670*
X411848Y437402*
Y437223*
X411971Y436954*
X412217Y436865*
X409092Y531263D02*
X409338Y531174D01*
X409584Y530995*
X409707Y530816*
Y530458*
X409584Y530279*
X409338Y530100*
X409092Y530011*
X408723Y529921*
X408108*
X407739Y530011*
X407493Y530100*
X407247Y530279*
X407124Y530458*
Y530816*
X407247Y530995*
X407493Y531174*
X407739Y531263*
X409707Y532963D02*
X407985Y532069D01*
Y533411*
X409707Y532963D02*
X407124D01*
X409707Y534753D02*
X409584Y534485D01*
X409215Y534306*
X408600Y534216*
X408231*
X407616Y534306*
X407247Y534485*
X407124Y534753*
Y534932*
X407247Y535200*
X407616Y535379*
X408231Y535469*
X408600*
X409215Y535379*
X409584Y535200*
X409707Y534932*
Y534753*
X421680Y478777D02*
X421770Y479023D01*
X421949Y479269*
X422128Y479392*
X422486*
X422665Y479269*
X422844Y479023*
X422933Y478777*
X423023Y478408*
Y477793*
X422933Y477424*
X422844Y477178*
X422665Y476932*
X422486Y476809*
X422128*
X421949Y476932*
X421770Y477178*
X421680Y477424*
X419980Y479392D02*
X420875Y477670D01*
X419533*
X419980Y479392D02*
Y476809D01*
X418728Y478900D02*
X418549Y479023D01*
X418280Y479392*
Y476809*
X503973Y490391D02*
X504062Y490637D01*
X504241Y490883*
X504420Y491006*
X504778*
X504957Y490883*
X505136Y490637*
X505225Y490391*
X505315Y490022*
Y489407*
X505225Y489038*
X505136Y488792*
X504957Y488546*
X504778Y488423*
X504420*
X504241Y488546*
X504062Y488792*
X503973Y489038*
X502273Y491006D02*
X503168Y489284D01*
X503168D02*
X501825D01*
X502273Y491006D02*
Y488423D01*
X500931Y490391D02*
Y490514D01*
X500841Y490760*
X500752Y490883*
X500573Y491006*
X500215*
X500036Y490883*
X499946Y490760*
X499857Y490514*
Y490268*
X499946Y490022*
X500125Y489653*
X501020Y488423*
X499767*
X500824Y473345D02*
X501070Y473255D01*
X501316Y473076*
X501439Y472897*
Y472539*
X501316Y472360*
X501070Y472181*
X500824Y472092*
X500455Y472003*
X499840*
X499471Y472092*
X499225Y472181*
X498979Y472360*
X498856Y472539*
Y472897*
X498979Y473076*
X499225Y473255*
X499471Y473345*
X501439Y475045D02*
X499717Y474150D01*
Y475492*
X501439Y475045D02*
X498856D01*
X501439Y477192D02*
X499717Y476297D01*
Y477640*
X501439Y477192D02*
X498856D01*
X500627Y460943D02*
X500874Y460854D01*
X501120Y460675*
X501243Y460496*
Y460138*
X501120Y459959*
X500874Y459780*
X500627Y459690*
X500258Y459601*
X499643*
X499274Y459690*
X499028Y459780*
X498782Y459959*
X498659Y460138*
Y460496*
X498782Y460675*
X499028Y460854*
X499274Y460943*
X501243Y462643D02*
X499520Y461748D01*
Y463091*
X501243Y462643D02*
X498659D01*
X501243Y465059D02*
Y464164D01*
X500135Y464075*
X500258Y464164*
X500381Y464433*
Y464701*
X500258Y464970*
X500012Y465149*
X499643Y465238*
X499397Y465149*
X499028Y465059*
X498782Y464880*
X498659Y464612*
Y464343*
X498782Y464075*
X498905Y463985*
X499151Y463896*
X548462Y467135D02*
X548708Y467045D01*
X548954Y466866*
X548954D02*
X549077Y466688D01*
Y466330*
X548954Y466151*
X548708Y465972*
X548462Y465882*
X548093Y465793*
X547478*
X547109Y465882*
X546863Y465972*
X546617Y466151*
X546494Y466330*
Y466688*
X546617Y466866*
X546617D02*
X546863Y467045D01*
X547109Y467135*
X549077Y468835D02*
X547355Y467940D01*
Y469282*
X549077Y468835D02*
X546494D01*
X548708Y471161D02*
X548954Y471072D01*
X549077Y470804*
Y470625*
X548954Y470356*
X548585Y470177*
X547970Y470088*
X547355*
X546863Y470177*
X546617Y470356*
X546494Y470625*
Y470714*
X546617Y470982*
X546863Y471161*
X547232Y471251*
X547355*
X547724Y471161*
X547970Y470982*
X548093Y470714*
Y470625*
X547970Y470356*
X547724Y470177*
X547355Y470088*
X527781Y515157D02*
X525197D01*
X527781D02*
Y515963D01*
X527657Y516231*
X527534Y516321*
X527288Y516410*
X527042*
X526796Y516321*
X526673Y516231*
X526550Y515963*
Y515157*
Y515784D02*
X525197Y516410D01*
X527288Y517215D02*
X527411Y517394D01*
X527781Y517663*
X525197*
X527165Y518558D02*
X527288D01*
X527534Y518647*
X527657Y518737*
X527781Y518916*
Y519273*
X527657Y519452*
X527534Y519542*
X527288Y519631*
X527042*
X526796Y519542*
X526427Y519363*
X525197Y518468*
Y519721*
X393701Y566929D02*
Y393701D01*
X566929*
Y566929*
X393701*
X503740Y383760D02*
G03X502461Y385039I-1279J-0D01*
G01X394980*
G03X393701Y383760I0J-1279*
G01Y365846*
G03X394980Y364567I1279J0*
G01X502461*
G03X503740Y365846I-0J1279*
G01Y383760*
X474311Y385039D02*
Y364567D01*
Y379921D02*
X393701D01*
X474311Y374803D02*
X393701D01*
X461516Y374394D02*
Y364567D01*
X474311Y369685D02*
X393701D01*
X461516Y379921D02*
Y374394D01*
X444882Y379921D02*
Y364567D01*
X410335Y385039D02*
Y364567D01*
X482943Y372741D02*
X483245D01*
X482943Y372604D02*
X483245D01*
X482943Y372467D02*
X483245D01*
X482943Y372330D02*
X483245D01*
X482943Y372192D02*
X483245D01*
X491170Y380158D02*
G03X490629Y379617I-0J-541D01*
G01X491170Y380158D02*
X495477D01*
X496018Y379617D02*
G03X495477Y380158I-541J0D01*
G01X496018Y379617D02*
Y375342D01*
X495477Y374802D02*
G03X496018Y375342I0J540D01*
G01X495477Y374802D02*
X491170D01*
X490629Y375342D02*
G03X491170Y374802I541J0D01*
G01X490629Y375342D02*
Y379617D01*
X482241Y373845D02*
X482917Y372872D01*
Y372034*
X483268*
Y372872*
X483944Y373845*
X483619*
X483106Y373169*
X482566Y373845*
X482241*
X484863Y380223D02*
G03X484538Y379898I-0J-325D01*
G01X484863Y380223D02*
X487403D01*
X487727Y379898D02*
G03X487403Y380223I-324J0D01*
G01X487727Y379898D02*
Y377520D01*
X487403Y377196D02*
G03X487727Y377520I-0J324D01*
G01X487403Y377196D02*
X484863D01*
X484538Y377520D02*
G03X484863Y377196I325J0D01*
G01X484538Y377520D02*
Y379898D01*
X492537Y378439D02*
G03X492321Y378223I0J-216D01*
G01X492537Y378439D02*
X494213D01*
X494429Y378223D02*
G03X494213Y378439I-216J-0D01*
G01X494429Y378223D02*
Y376710D01*
X494213Y376493D02*
G03X494429Y376710I-0J217D01*
G01X494213Y376493D02*
X492537D01*
X492321Y376710D02*
G03X492537Y376493I216J-0D01*
G01X492321Y376710D02*
Y378223D01*
X484646Y373791D02*
G03X484322Y373467I0J-324D01*
G01X484646Y373791D02*
X485511D01*
X485835Y373467D02*
G03X485511Y373791I-324J-0D01*
G01X485835Y373467D02*
Y372440D01*
X485511Y372116D02*
G03X485835Y372440I0J324D01*
G01X485511Y372116D02*
X484646D01*
X484322Y372440D02*
G03X484646Y372116I324J-0D01*
G01X484322Y372440D02*
Y373467D01*
X482943Y382626D02*
X489148D01*
X482256Y382076D02*
X489834D01*
X482256Y381939D02*
X489889D01*
X482119Y381665D02*
X489943D01*
X482119Y381527D02*
X489943D01*
X482119Y381390D02*
X489943D01*
X482119Y381253D02*
X489943D01*
X482119Y381115D02*
X489943D01*
X482119Y380978D02*
X489943D01*
X482119Y380841D02*
X489943D01*
X482119Y380704D02*
X489943D01*
X482119Y380566D02*
X489943D01*
X482119Y380429D02*
X489943D01*
X482119Y380292D02*
X489943D01*
X491042Y380155D02*
X495600D01*
X487673D02*
X489943D01*
X482119D02*
X484646D01*
X490905Y380017D02*
X495780D01*
X487748D02*
X489943D01*
X482119D02*
X484480D01*
X490768Y379880D02*
X495888D01*
X487748D02*
X489943D01*
X482119D02*
X484480D01*
X490768Y379743D02*
X496012D01*
X487748D02*
X489943D01*
X482119D02*
X484480D01*
X490630Y379605D02*
X496012D01*
X487748D02*
X489943D01*
X482119D02*
X484480D01*
X490630Y379468D02*
X496012D01*
X487748D02*
X489943D01*
X482119D02*
X484480D01*
X490630Y379331D02*
X496012D01*
X487748D02*
X489943D01*
X482119D02*
X484480D01*
X490630Y379194D02*
X496012D01*
X487748D02*
X489943D01*
X482119D02*
X484480D01*
X490630Y379056D02*
X496012D01*
X487748D02*
X489943D01*
X482119D02*
X484480D01*
X490630Y378919D02*
X496012D01*
X487748D02*
X489943D01*
X482119D02*
X484480D01*
X490630Y378782D02*
X496012D01*
X487748D02*
X489943D01*
X482119D02*
X484480D01*
X490630Y378644D02*
X496012D01*
X487748D02*
X489943D01*
X482119D02*
X484480D01*
X490630Y378507D02*
X496012D01*
X487748D02*
X489943D01*
X482119D02*
X484480D01*
X494474Y378370D02*
X496012D01*
X490630D02*
X492305D01*
X487748D02*
X489943D01*
X482119D02*
X484480D01*
X494474Y378233D02*
X496012D01*
X490630D02*
X492305D01*
X487748D02*
X489943D01*
X482119D02*
X484480D01*
X494474Y378095D02*
X496012D01*
X490630D02*
X492305D01*
X487748D02*
X489943D01*
X482119D02*
X484480D01*
X494474Y377958D02*
X496012D01*
X490630D02*
X492305D01*
X487748D02*
X489943D01*
X482119D02*
X484480D01*
X494474Y377821D02*
X496012D01*
X490630D02*
X492305D01*
X487748D02*
X489943D01*
X482119D02*
X484480D01*
X494474Y377683D02*
X496012D01*
X490630D02*
X492305D01*
X487748D02*
X489943D01*
X482119D02*
X484480D01*
X494474Y377546D02*
X496012D01*
X490630D02*
X492305D01*
X487748D02*
X489943D01*
X482119D02*
X484480D01*
X494474Y377409D02*
X496012D01*
X490630D02*
X492305D01*
X487748D02*
X489943D01*
X482119D02*
X484480D01*
X494474Y377272D02*
X496012D01*
X490630D02*
X492305D01*
X487673D02*
X489943D01*
X482119D02*
X484592D01*
X494474Y377134D02*
X496012D01*
X490630D02*
X492305D01*
X482119D02*
X489943D01*
X494474Y376997D02*
X496012D01*
X490630D02*
X492305D01*
X482119D02*
X489943D01*
X494474Y376860D02*
X496012D01*
X490630D02*
X492305D01*
X482119D02*
X489943D01*
X494474Y376723D02*
X496012D01*
X490630D02*
X492305D01*
X482119D02*
X489943D01*
X494474Y376585D02*
X496012D01*
X490630D02*
X492305D01*
X482119D02*
X489943D01*
X490630Y376448D02*
X496012D01*
X482119D02*
X489943D01*
X490630Y376311D02*
X496012D01*
X482119D02*
X489943D01*
X490630Y376173D02*
X496012D01*
X482119D02*
X489943D01*
X490630Y376036D02*
X496012D01*
X482119D02*
X489943D01*
X490630Y375899D02*
X496012D01*
X482119D02*
X489943D01*
X490630Y375762D02*
X496012D01*
X482119D02*
X489943D01*
X490630Y375624D02*
X496012D01*
X482119D02*
X489943D01*
X490630Y375487D02*
X496012D01*
X482256D02*
X489943D01*
X490630Y375350D02*
X496012D01*
X482256D02*
X489834D01*
X490768Y375212D02*
X495964D01*
X482263D02*
X489834D01*
X490768Y375075D02*
X495875D01*
X482387D02*
X489697D01*
X490905Y374938D02*
X495769D01*
X482571D02*
X489560D01*
X491180Y374801D02*
X495467D01*
X482943D02*
X489186D01*
X483629Y373840D02*
X483931D01*
X482256D02*
X482558D01*
X483544Y373702D02*
X483819D01*
X482394D02*
X482641D01*
X483425Y373565D02*
X483706D01*
X482468D02*
X482760D01*
X483355Y373428D02*
X483657D01*
X482531D02*
X482833D01*
X483217Y373291D02*
X483506D01*
X482668D02*
X482970D01*
X482760Y373153D02*
X483441D01*
X482863Y373016D02*
X483306D01*
X482917Y372879D02*
X483247D01*
X486538Y373791D02*
Y372386D01*
G03X486754Y372170I216J-0*
G01X487457*
G03X487673Y372386I-0J216*
G01Y373791*
X488430D02*
Y372170D01*
X489132Y373791D02*
Y372170D01*
X490159*
X491943Y373359D02*
Y373575D01*
G03X491727Y373791I-216J-0*
G01X490970*
G03X490754Y373575I-0J-216*
G01Y372386*
G03X490970Y372170I216J-0*
G01X491727*
G03X491943Y372386I-0J216*
G01Y372602*
X482430Y382351D02*
X489673D01*
X482322Y382214D02*
X489781D01*
X482971Y382628D02*
G03X482106Y381763I-0J-865D01*
G01X482971Y382628D02*
X489105D01*
X489970Y381763D02*
G03X489105Y382628I-865J-0D01*
G01X489970Y381763D02*
Y375656D01*
X489105Y374791D02*
G03X489970Y375656I0J865D01*
G01X489105Y374791D02*
X482971D01*
X482106Y375656D02*
G03X482971Y374791I865J-0D01*
G01X482106Y375656D02*
Y381763D01*
X482160Y381802D02*
X489971D01*
X482593Y382488D02*
X489511D01*
X492645Y372170D02*
X493078Y373683D01*
X493510*
X493942Y372170*
X493726Y372818D02*
X492862D01*
X494699Y372926D02*
Y373791D01*
X495456*
X495888Y373359D02*
G03X495456Y373791I-432J-0D01*
G01X495888Y373359D02*
Y372602D01*
X495456Y372170D02*
G03X495888Y372602I-0J432D01*
G01X495456Y372170D02*
X494699D01*
Y372926*
X468140Y373128D02*
Y371360D01*
X468216Y371049*
X468367Y370945*
X468518*
X467913Y372400D02*
X468443D01*
X412673Y383052D02*
X412521Y383260D01*
X412295Y383364*
X411992*
X411765Y383260*
X411614Y383052*
Y382844*
X411690Y382636*
X411765Y382532*
X411917Y382428*
X412370Y382220*
X412521Y382116*
X412597Y382012*
X412673Y381805*
Y381493*
X412521Y381285*
X412295Y381181*
X411992*
X411765Y381285*
X411614Y381493*
X413353Y383364D02*
Y381181D01*
Y383364D02*
X414336D01*
X413353Y382324D02*
X413958D01*
X413353Y381181D02*
X414336D01*
X415017Y383364D02*
Y381181D01*
Y383364D02*
X416075Y381181D01*
Y383364D02*
Y381181D01*
X417814Y383052D02*
X417663Y383260D01*
X417436Y383364*
X417134*
X416907Y383260*
X416756Y383052*
Y382844*
X416831Y382636*
X416907Y382532*
X417058Y382428*
X417512Y382220*
X417663Y382116*
X417738Y382012*
X417814Y381805*
Y381493*
X417663Y381285*
X417436Y381181*
X417134*
X416907Y381285*
X416756Y381493*
X418948Y383364D02*
X418797Y383260D01*
X418646Y383052*
X418570Y382844*
X418495Y382532*
Y382012*
X418570Y381701*
X418646Y381493*
X418797Y381285*
X418948Y381181*
X419251*
X419402Y381285*
X419553Y381493*
X419629Y381701*
X419704Y382012*
Y382532*
X419629Y382844*
X419553Y383052*
X419402Y383260*
X419251Y383364*
X418948*
X420385D02*
Y381181D01*
Y383364D02*
X421065D01*
X421292Y383260*
X421368Y383156*
X421443Y382948*
Y382740*
X421368Y382532*
X421292Y382428*
X421065Y382324*
X420385*
X420914D02*
X421443Y381181D01*
X422124Y383364D02*
X423182Y381181D01*
Y383364D02*
X422124Y381181D01*
X423863Y383364D02*
Y381181D01*
Y383364D02*
X424846D01*
X423863Y382324D02*
X424468D01*
X423863Y381181D02*
X424846D01*
X425526Y383364D02*
Y381181D01*
X426433*
X429382Y383780D02*
X429231Y383572D01*
X429080Y383260*
X428929Y382844*
X428853Y382324*
Y381909*
X428929Y381389*
X429080Y380973*
X429231Y380661*
X429382Y380453*
X430819Y383364D02*
X430063Y381909D01*
X431197*
X430819Y383364D02*
Y381181D01*
X433616Y383364D02*
Y381181D01*
X434524*
X436111Y382636D02*
Y381181D01*
Y382324D02*
X435960Y382532D01*
X435809Y382636*
X435582*
X435431Y382532*
X435280Y382324*
X435204Y382012*
Y381805*
X435280Y381493*
X435431Y381285*
X435582Y381181*
X435809*
X435960Y381285*
X436111Y381493*
X436867Y382636D02*
X437321Y381181D01*
X437775Y382636D02*
X437321Y381181D01*
X437170Y380765*
X437019Y380557*
X436867Y380453*
X436792*
X438455Y382012D02*
X439362D01*
Y382220*
X439287Y382428*
X439211Y382532*
X439060Y382636*
X438833*
X438682Y382532*
X438531Y382324*
X438455Y382012*
Y381805*
X438531Y381493*
X438682Y381285*
X438833Y381181*
X439060*
X439211Y381285*
X439362Y381493*
X440043Y382636D02*
Y381181D01*
Y382012D02*
X440119Y382324D01*
X440270Y382532*
X440421Y382636*
X440648*
X441328Y383780D02*
X441480Y383572D01*
X441631Y383260*
X441782Y382844*
X441858Y382324*
Y381909*
X441782Y381389*
X441631Y380973*
X441480Y380661*
X441328Y380453*
X411690Y367490D02*
Y367594D01*
X411765Y367802*
X411841Y367906*
X411992Y368010*
X412295*
X412446Y367906*
X412521Y367802*
X412597Y367594*
Y367386*
X412521Y367178*
X412370Y366866*
X411614Y365826*
X412673*
X413807Y368010D02*
X413580Y367906D01*
X413429Y367594*
X413353Y367074*
Y366762*
X413429Y366242*
X413580Y365930*
X413807Y365826*
X413958*
X414185Y365930*
X414336Y366242*
X414412Y366762*
Y367074*
X414336Y367594*
X414185Y367906*
X413958Y368010*
X413807*
X415092Y367594D02*
X415243Y367698D01*
X415470Y368010*
Y365826*
X417134Y367282D02*
X417058Y366970D01*
X416907Y366762*
X416680Y366658*
X416604*
X416378Y366762*
X416226Y366970*
X416151Y367282*
Y367386*
X416226Y367698*
X416378Y367906*
X416604Y368010*
X416680*
X416907Y367906*
X417058Y367698*
X417134Y367282*
Y366762*
X417058Y366242*
X416907Y365930*
X416680Y365826*
X416529*
X416302Y365930*
X416226Y366138*
X417890Y366034D02*
X417814Y365930D01*
X417890Y365826*
X417965Y365930*
X417890Y366034*
X418646Y367594D02*
X418797Y367698D01*
X419024Y368010*
Y365826*
X420158Y368010D02*
X419931Y367906D01*
X419780Y367594*
X419704Y367074*
Y366762*
X419780Y366242*
X419931Y365930*
X420158Y365826*
X420309*
X420536Y365930*
X420687Y366242*
X420763Y366762*
Y367074*
X420687Y367594*
X420536Y367906*
X420309Y368010*
X420158*
X421519Y366034D02*
X421443Y365930D01*
X421519Y365826*
X421594Y365930*
X421519Y366034*
X422275Y367594D02*
X422426Y367698D01*
X422653Y368010*
Y365826*
X423333Y367594D02*
X423485Y367698D01*
X423712Y368010*
Y365826*
X411614Y373128D02*
Y370945D01*
Y373128D02*
X412295D01*
X412521Y373024*
X412597Y372920*
X412673Y372712*
Y372504*
X412597Y372296*
X412521Y372192*
X412295Y372088*
X411614*
X412143D02*
X412673Y370945D01*
X413731Y372400D02*
X413580Y372296D01*
X413429Y372088*
X413353Y371776*
Y371568*
X413429Y371256*
X413580Y371049*
X413731Y370945*
X413958*
X414109Y371049*
X414260Y371256*
X414336Y371568*
Y371776*
X414260Y372088*
X414109Y372296*
X413958Y372400*
X413731*
X415017Y373128D02*
Y370945D01*
Y372088D02*
X415168Y372296D01*
X415319Y372400*
X415546*
X415697Y372296*
X415848Y372088*
X415924Y371776*
Y371568*
X415848Y371256*
X415697Y371049*
X415546Y370945*
X415319*
X415168Y371049*
X415017Y371256*
X416982Y372400D02*
X416831Y372296D01*
X416680Y372088*
X416604Y371776*
Y371568*
X416680Y371256*
X416831Y371049*
X416982Y370945*
X417209*
X417360Y371049*
X417512Y371256*
X417587Y371568*
Y371776*
X417512Y372088*
X417360Y372296*
X417209Y372400*
X416982*
X418495Y373128D02*
Y371360D01*
X418570Y371049*
X418721Y370945*
X418873*
X418268Y372400D02*
X418797D01*
X419553Y373128D02*
X419629Y373024D01*
X419704Y373128*
X419629Y373232*
X419553Y373128*
X419629Y372400D02*
Y370945D01*
X421216Y372088D02*
X421141Y372296D01*
X420914Y372400*
X420687*
X420460Y372296*
X420385Y372088*
X420460Y371880*
X420612Y371776*
X420990Y371672*
X421141Y371568*
X421216Y371360*
Y371256*
X421141Y371049*
X420914Y370945*
X420687*
X420460Y371049*
X420385Y371256*
X475966Y366905D02*
Y365354D01*
X475591Y366905D02*
X476342D01*
X476825Y365945D02*
X477470D01*
Y366093*
X477416Y366240*
X477362Y366314*
X477255Y366388*
X477094*
X476986Y366314*
X476879Y366166*
X476825Y365945*
Y365797*
X476879Y365576*
X476986Y365428*
X477094Y365354*
X477255*
X477362Y365428*
X477470Y365576*
X477953Y366905D02*
Y365354D01*
X478490Y365502D02*
X478436Y365428D01*
X478490Y365354*
X478543Y365428*
X478490Y365502*
X479349Y366905D02*
X479188Y366831D01*
X479080Y366609*
X479026Y366240*
Y366019*
X479080Y365650*
X479188Y365428*
X479349Y365354*
X479456*
X479617Y365428*
X479724Y365650*
X479778Y366019*
Y366240*
X479724Y366609*
X479617Y366831*
X479456Y366905*
X479349*
X480369D02*
X480959D01*
X480637Y366314*
X480798*
X480906Y366240*
X480959Y366166*
X481013Y365945*
Y365797*
X480959Y365576*
X480852Y365428*
X480691Y365354*
X480530*
X480369Y365428*
X480315Y365502*
X480261Y365650*
X481496Y366609D02*
X481603Y366683D01*
X481764Y366905*
Y365354*
X482248Y366019D02*
X483214D01*
X483805Y366905D02*
X484395D01*
X484073Y366314*
X484234*
X484341Y366240*
X484395Y366166*
X484449Y365945*
Y365797*
X484395Y365576*
X484288Y365428*
X484127Y365354*
X483966*
X483805Y365428*
X483751Y365502*
X483697Y365650*
X485630Y366388D02*
X485576Y366166D01*
X485469Y366019*
X485308Y365945*
X485254*
X485093Y366019*
X484986Y366166*
X484932Y366388*
Y366462*
X484986Y366683*
X485093Y366831*
X485254Y366905*
X485308*
X485469Y366831*
X485576Y366683*
X485630Y366388*
Y366019*
X485576Y365650*
X485469Y365428*
X485308Y365354*
X485200*
X485039Y365428*
X484986Y365576*
X486811Y366388D02*
X486757Y366166D01*
X486650Y366019*
X486489Y365945*
X486435*
X486274Y366019*
X486167Y366166*
X486113Y366388*
Y366462*
X486167Y366683*
X486274Y366831*
X486435Y366905*
X486489*
X486650Y366831*
X486757Y366683*
X486811Y366388*
Y366019*
X486757Y365650*
X486650Y365428*
X486489Y365354*
X486382*
X486220Y365428*
X486167Y365576*
X487294Y366019D02*
X488261D01*
X488797Y366535D02*
Y366609D01*
X488851Y366757*
X488905Y366831*
X489012Y366905*
X489227*
X489334Y366831*
X489388Y366757*
X489442Y366609*
Y366462*
X489388Y366314*
X489281Y366093*
X488744Y365354*
X489495*
X490247Y366905D02*
X490086Y366831D01*
X490032Y366683*
Y366535*
X490086Y366388*
X490193Y366314*
X490408Y366240*
X490569Y366166*
X490676Y366019*
X490730Y365871*
Y365650*
X490676Y365502*
X490623Y365428*
X490462Y365354*
X490247*
X490086Y365428*
X490032Y365502*
X489979Y365650*
Y365871*
X490032Y366019*
X490140Y366166*
X490301Y366240*
X490515Y366314*
X490623Y366388*
X490676Y366535*
Y366683*
X490623Y366831*
X490462Y366905*
X490247*
X491482D02*
X491321Y366831D01*
X491267Y366683*
Y366535*
X491321Y366388*
X491428Y366314*
X491643Y366240*
X491804Y366166*
X491911Y366019*
X491965Y365871*
Y365650*
X491911Y365502*
X491858Y365428*
X491696Y365354*
X491482*
X491321Y365428*
X491267Y365502*
X491213Y365650*
Y365871*
X491267Y366019*
X491374Y366166*
X491535Y366240*
X491750Y366314*
X491858Y366388*
X491911Y366535*
Y366683*
X491858Y366831*
X491696Y366905*
X491482*
X492502Y366535D02*
Y366609D01*
X492555Y366757*
X492609Y366831*
X492717Y366905*
X492931*
X493039Y366831*
X493092Y366757*
X493146Y366609*
Y366462*
X493092Y366314*
X492985Y366093*
X492448Y365354*
X493200*
X475591Y370577D02*
Y368898D01*
Y369697D02*
X475765Y369937D01*
X475881Y370017*
X476056*
X476172Y369937*
X476230Y369697*
Y368898*
X476928Y370577D02*
Y369218D01*
X476986Y368978*
X477103Y368898*
X477219*
X476754Y370017D02*
X477161D01*
X477917Y370577D02*
Y369218D01*
X477975Y368978*
X478091Y368898*
X478208*
X477742Y370017D02*
X478150D01*
X478731D02*
Y368338D01*
Y369777D02*
X478848Y369937D01*
X478964Y370017*
X479138*
X479255Y369937*
X479371Y369777*
X479429Y369537*
Y369377*
X479371Y369138*
X479255Y368978*
X479138Y368898*
X478964*
X478848Y368978*
X478731Y369138*
X480011Y370017D02*
X479953Y369937D01*
X480011Y369857*
X480069Y369937*
X480011Y370017*
Y369058D02*
X479953Y368978D01*
X480011Y368898*
X480069Y368978*
X480011Y369058*
X481639Y370897D02*
X480592Y368338D01*
X483210Y370897D02*
X482163Y368338D01*
X483733Y370017D02*
X483966Y368898D01*
X484198Y370017D02*
X483966Y368898D01*
X484198Y370017D02*
X484431Y368898D01*
X484664Y370017D02*
X484431Y368898D01*
X485187Y370017D02*
X485420Y368898D01*
X485652Y370017D02*
X485420Y368898D01*
X485652Y370017D02*
X485885Y368898D01*
X486118Y370017D02*
X485885Y368898D01*
X486641Y370017D02*
X486874Y368898D01*
X487106Y370017D02*
X486874Y368898D01*
X487106Y370017D02*
X487339Y368898D01*
X487572Y370017D02*
X487339Y368898D01*
X488153Y369058D02*
X488095Y368978D01*
X488153Y368898*
X488211Y368978*
X488153Y369058*
X488793Y370017D02*
X489142Y368898D01*
X489491Y370017D02*
X489142Y368898D01*
X489026Y368578*
X488909Y368418*
X488793Y368338*
X488735*
X490305Y370017D02*
X490189Y369937D01*
X490072Y369777*
X490014Y369537*
Y369377*
X490072Y369138*
X490189Y368978*
X490305Y368898*
X490480*
X490596Y368978*
X490712Y369138*
X490770Y369377*
Y369537*
X490712Y369777*
X490596Y369937*
X490480Y370017*
X490305*
X491294D02*
Y369218D01*
X491352Y368978*
X491468Y368898*
X491643*
X491759Y368978*
X491934Y369218*
Y370017D02*
Y368898D01*
X492457Y370577D02*
X492515Y370497D01*
X492573Y370577*
X492515Y370657*
X492457Y370577*
X492515Y370017D02*
Y368898D01*
X493097Y370577D02*
Y368898D01*
X494318Y369777D02*
X494202Y369937D01*
X494086Y370017*
X493911*
X493795Y369937*
X493678Y369777*
X493620Y369537*
Y369377*
X493678Y369138*
X493795Y368978*
X493911Y368898*
X494086*
X494202Y368978*
X494318Y369138*
X495540Y370017D02*
Y368898D01*
Y369777D02*
X495423Y369937D01*
X495307Y370017*
X495132*
X495016Y369937*
X494900Y369777*
X494842Y369537*
Y369377*
X494900Y369138*
X495016Y368978*
X495132Y368898*
X495307*
X495423Y368978*
X495540Y369138*
X496761Y370577D02*
Y368898D01*
Y369777D02*
X496645Y369937D01*
X496528Y370017*
X496354*
X496237Y369937*
X496121Y369777*
X496063Y369537*
Y369377*
X496121Y369138*
X496237Y368978*
X496354Y368898*
X496528*
X496645Y368978*
X496761Y369138*
X497343Y369058D02*
X497284Y368978D01*
X497343Y368898*
X497401Y368978*
X497343Y369058*
X498622Y369777D02*
X498506Y369937D01*
X498389Y370017*
X498215*
X498099Y369937*
X497982Y369777*
X497924Y369537*
Y369377*
X497982Y369138*
X498099Y368978*
X498215Y368898*
X498389*
X498506Y368978*
X498622Y369138*
X499436Y370017D02*
X499320Y369937D01*
X499204Y369777*
X499145Y369537*
Y369377*
X499204Y369138*
X499320Y368978*
X499436Y368898*
X499611*
X499727Y368978*
X499843Y369138*
X499902Y369377*
Y369537*
X499843Y369777*
X499727Y369937*
X499611Y370017*
X499436*
X500483Y369058D02*
X500425Y368978D01*
X500483Y368898*
X500541Y368978*
X500483Y369058*
X501065Y370577D02*
Y368898D01*
X501646Y370017D02*
X501065Y369218D01*
X501297Y369537D02*
X501705Y368898D01*
X502228Y370017D02*
Y368898D01*
Y369537D02*
X502286Y369777D01*
X502402Y369937*
X502519Y370017*
X502693*
X446161Y368010D02*
Y365826D01*
Y368010D02*
X446691D01*
X446918Y367906*
X446918D02*
X447069Y367698D01*
X447144Y367490*
X447220Y367178*
Y366658*
X447144Y366346*
X447069Y366138*
X446918Y365930*
X446918D02*
X446691Y365826D01*
X446161*
X447900Y368010D02*
Y365826D01*
Y368010D02*
X448883D01*
X447900Y366970D02*
X448505D01*
X447900Y365826D02*
X448883D01*
X450622Y367698D02*
X450471Y367906D01*
X450244Y368010*
X449942*
X449715Y367906*
X449564Y367698*
Y367490*
X449639Y367282*
X449715Y367178*
X449866Y367074*
X450320Y366866*
X450471Y366762*
X450547Y366658*
X450622Y366450*
Y366138*
X450471Y365930*
X450244Y365826*
X449942*
X449715Y365930*
X449564Y366138*
X451303Y368010D02*
Y365826D01*
X453117Y367490D02*
X453042Y367698D01*
X452891Y367906*
X452739Y368010*
X452437*
X452286Y367906*
X452134Y367698*
X452059Y367490*
X451983Y367178*
Y366658*
X452059Y366346*
X452134Y366138*
X452286Y365930*
X452437Y365826*
X452739*
X452891Y365930*
X453042Y366138*
X453117Y366346*
Y366658*
X452739D02*
X453117D01*
X453798Y368010D02*
Y365826D01*
Y368010D02*
X454856Y365826D01*
Y368010D02*
Y365826D01*
X455537Y368010D02*
Y365826D01*
Y368010D02*
X456520D01*
X455537Y366970D02*
X456142D01*
X455537Y365826D02*
X456520D01*
X457200Y368010D02*
Y365826D01*
Y368010D02*
X457881D01*
X458108Y367906*
X458183Y367802*
X458259Y367594*
Y367386*
X458183Y367178*
X458108Y367074*
X457881Y366970*
X457200*
X457730D02*
X458259Y365826D01*
X447220Y377934D02*
X447069Y378142D01*
X446842Y378246*
X446539*
X446313Y378142*
X446161Y377934*
Y377726*
X446237Y377518*
X446313Y377414*
X446464Y377310*
X446918Y377102*
X446918D02*
X447069Y376998D01*
X447144Y376894*
X447220Y376686*
Y376375*
X447069Y376167*
X446842Y376063*
X446539*
X446313Y376167*
X446161Y376375*
X448430Y378246D02*
Y376063D01*
X447900Y378246D02*
X448959D01*
X450244D02*
X449639Y376063D01*
X450244Y378246D02*
X450849Y376063D01*
X449866Y376790D02*
X450622D01*
X452664Y377726D02*
X452588Y377934D01*
X452437Y378142*
X452286Y378246*
X451983*
X451832Y378142*
X451681Y377934*
X451605Y377726*
X451530Y377414*
Y376894*
X451605Y376582*
X451681Y376375*
X451832Y376167*
X451983Y376063*
X452286*
X452437Y376167*
X452588Y376375*
X452664Y376582*
Y376894*
X452286D02*
X452664D01*
X453344Y378246D02*
Y376063D01*
Y378246D02*
X454327D01*
X453344Y377206D02*
X453949D01*
X453344Y376063D02*
X454327D01*
X396260Y368010D02*
Y365826D01*
Y368010D02*
X396789D01*
X397016Y367906*
X397167Y367698*
X397243Y367490*
X397318Y367178*
Y366658*
X397243Y366346*
X397167Y366138*
X397016Y365930*
X396789Y365826*
X396260*
X398604Y368010D02*
X397999Y365826D01*
X398604Y368010D02*
X399209Y365826D01*
X398226Y366554D02*
X398982D01*
X400418Y368010D02*
Y365826D01*
X399889Y368010D02*
X400948D01*
X401628D02*
Y365826D01*
Y368010D02*
X402611D01*
X401628Y366970D02*
X402233D01*
X401628Y365826D02*
X402611D01*
X396260Y383364D02*
Y381181D01*
Y383364D02*
X396865Y381181D01*
X397470Y383364D02*
X396865Y381181D01*
X397470Y383364D02*
Y381181D01*
X398604Y383364D02*
X398452Y383260D01*
X398301Y383052*
X398226Y382844*
X398150Y382532*
Y382012*
X398226Y381701*
X398301Y381493*
X398452Y381285*
X398604Y381181*
X398906*
X399057Y381285*
X399209Y381493*
X399284Y381701*
X399360Y382012*
Y382532*
X399284Y382844*
X399209Y383052*
X399057Y383260*
X398906Y383364*
X398604*
X400040D02*
Y381181D01*
Y383364D02*
X400570D01*
X400796Y383260*
X400948Y383052*
X401023Y382844*
X401099Y382532*
Y382012*
X401023Y381701*
X400948Y381493*
X400796Y381285*
X400570Y381181*
X400040*
X401779Y383364D02*
Y381181D01*
Y383364D02*
X402762D01*
X401779Y382324D02*
X402384D01*
X401779Y381181D02*
X402762D01*
X403443Y383364D02*
Y381181D01*
X404350*
X396260Y378246D02*
Y376063D01*
X397167*
X398452Y378246D02*
X397848Y376063D01*
X398452Y378246D02*
X399057Y376063D01*
X398074Y376790D02*
X398831D01*
X399738Y378246D02*
X400343Y377206D01*
Y376063*
X400948Y378246D02*
X400343Y377206D01*
X401628Y378246D02*
Y376063D01*
Y378246D02*
X402611D01*
X401628Y377206D02*
X402233D01*
X401628Y376063D02*
X402611D01*
X403291Y378246D02*
Y376063D01*
Y378246D02*
X403972D01*
X404199Y378142*
X404274Y378038*
X404350Y377830*
Y377622*
X404274Y377414*
X404199Y377310*
X403972Y377206*
X403291*
X403821D02*
X404350Y376063D01*
X397394Y372608D02*
X397318Y372816D01*
X397167Y373024*
X397016Y373128*
X396713*
X396562Y373024*
X396411Y372816*
X396335Y372608*
X396260Y372296*
Y371776*
X396335Y371464*
X396411Y371256*
X396562Y371049*
X396713Y370945*
X397016*
X397167Y371049*
X397318Y371256*
X397394Y371464*
X398528Y373128D02*
X398377Y373024D01*
X398226Y372816*
X398150Y372608*
X398074Y372296*
Y371776*
X398150Y371464*
X398226Y371256*
X398377Y371049*
X398528Y370945*
X398831*
X398982Y371049*
X399133Y371256*
X399209Y371464*
X399284Y371776*
Y372296*
X399209Y372608*
X399133Y372816*
X398982Y373024*
X398831Y373128*
X398528*
X399965D02*
Y370945D01*
Y373128D02*
X400570Y370945D01*
X401174Y373128D02*
X400570Y370945D01*
X401174Y373128D02*
Y370945D01*
X401855Y373128D02*
Y370945D01*
Y373128D02*
X402535D01*
X402762Y373024*
X402838Y372920*
X402913Y372712*
Y372400*
X402838Y372192*
X402762Y372088*
X402535Y371984*
X401855*
X404199Y373128D02*
X403594Y370945D01*
X404199Y373128D02*
X404804Y370945D01*
X403821Y371672D02*
X404577D01*
X405484Y373128D02*
Y370945D01*
Y373128D02*
X406543Y370945D01*
Y373128D02*
Y370945D01*
X407223Y373128D02*
X407828Y372088D01*
Y370945*
X408433Y373128D02*
X407828Y372088D01*
X462795Y368010D02*
Y365826D01*
X463703*
X464459Y366034D02*
X464383Y365930D01*
X464459Y365826*
X464534Y365930*
X464459Y366034*
X466273Y367698D02*
X466122Y367906D01*
X465895Y368010*
X465593*
X465366Y367906*
X465215Y367698*
Y367490*
X465290Y367282*
X465366Y367178*
X465517Y367074*
X465971Y366866*
X466122Y366762*
X466198Y366658*
X466273Y366450*
Y366138*
X466122Y365930*
X465895Y365826*
X465593*
X465366Y365930*
X465215Y366138*
X467029Y366034D02*
X466954Y365930D01*
X467029Y365826*
X467105Y365930*
X467029Y366034*
X467785Y368010D02*
Y365826D01*
X468844Y368010D02*
X467785Y366554D01*
X468163Y367074D02*
X468844Y365826D01*
X446691Y373128D02*
Y370945D01*
X446161Y373128D02*
X447220D01*
X447900D02*
Y370945D01*
X448959Y373128D02*
Y370945D01*
X447900Y372088D02*
X448959D01*
X449639Y373128D02*
Y370945D01*
X451454Y372608D02*
X451378Y372816D01*
X451227Y373024*
X451076Y373128*
X450774*
X450622Y373024*
X450471Y372816*
X450395Y372608*
X450320Y372296*
Y371776*
X450395Y371464*
X450471Y371256*
X450622Y371049*
X450774Y370945*
X451076*
X451227Y371049*
X451378Y371256*
X451454Y371464*
X452134Y373128D02*
Y370945D01*
X453193Y373128D02*
X452134Y371672D01*
X452513Y372192D02*
X453193Y370945D01*
X453873Y373128D02*
Y370945D01*
Y373128D02*
X454932Y370945D01*
Y373128D02*
Y370945D01*
X455612Y373128D02*
Y370945D01*
Y373128D02*
X456595D01*
X455612Y372088D02*
X456217D01*
X455612Y370945D02*
X456595D01*
X458334Y372816D02*
X458183Y373024D01*
X457956Y373128*
X457654*
X457427Y373024*
X457276Y372816*
Y372608*
X457351Y372400*
X457427Y372296*
X457578Y372192*
X458032Y371984*
X458183Y371880*
X458259Y371776*
X458334Y371568*
Y371256*
X458183Y371049*
X457956Y370945*
X457654*
X457427Y371049*
X457276Y371256*
X460073Y372816D02*
X459922Y373024D01*
X459695Y373128*
X459393*
X459166Y373024*
X459015Y372816*
Y372608*
X459090Y372400*
X459166Y372296*
X459317Y372192*
X459771Y371984*
X459922Y371880*
X459998Y371776*
X460073Y371568*
Y371256*
X459922Y371049*
X459695Y370945*
X459393*
X459166Y371049*
X459015Y371256*
X462795Y378246D02*
Y376063D01*
Y378246D02*
X463476D01*
X463703Y378142*
X463778Y378038*
X463854Y377830*
Y377622*
X463778Y377414*
X463703Y377310*
X463476Y377206*
X462795*
X463325D02*
X463854Y376063D01*
X464534Y378246D02*
Y376063D01*
Y378246D02*
X465517D01*
X464534Y377206D02*
X465139D01*
X464534Y376063D02*
X465517D01*
X466198Y378246D02*
X466803Y376063D01*
X467407Y378246D02*
X466803Y376063D01*
X468088Y378246D02*
Y376063D01*
Y378246D02*
X469071D01*
X468088Y377206D02*
X468693D01*
X411614Y378246D02*
Y376063D01*
Y378246D02*
X412295D01*
X412521Y378142*
X412597Y378038*
X412673Y377830*
Y377622*
X412597Y377414*
X412521Y377310*
X412295Y377206*
X411614D02*
X412295D01*
X412521Y377102*
X412597Y376998*
X412673Y376790*
Y376479*
X412597Y376271*
X412521Y376167*
X412295Y376063*
X411614*
X413731Y377518D02*
X413580Y377414D01*
X413429Y377206*
X413353Y376894*
Y376686*
X413429Y376375*
X413580Y376167*
X413731Y376063*
X413958*
X414109Y376167*
X414260Y376375*
X414336Y376686*
Y376894*
X414260Y377206*
X414109Y377414*
X413958Y377518*
X413731*
X415243Y378246D02*
Y376479D01*
X415319Y376167*
X415470Y376063*
X415621*
X415017Y377518D02*
X415546D01*
X416529Y378246D02*
Y376479D01*
X416604Y376167*
X416756Y376063*
X416907*
X416302Y377518D02*
X416831D01*
X417965D02*
X417814Y377414D01*
X417663Y377206*
X417587Y376894*
Y376686*
X417663Y376375*
X417814Y376167*
X417965Y376063*
X418192*
X418343Y376167*
X418495Y376375*
X418570Y376686*
Y376894*
X418495Y377206*
X418343Y377414*
X418192Y377518*
X417965*
X419251D02*
Y376063D01*
Y377102D02*
X419477Y377414D01*
X419629Y377518*
X419855*
X420007Y377414*
X420082Y377102*
Y376063*
Y377102D02*
X420309Y377414D01*
X420460Y377518*
X420687*
X420838Y377414*
X420914Y377102*
Y376063*
X424392Y377934D02*
X424241Y378142D01*
X424014Y378246*
X423712*
X423485Y378142*
X423333Y377934*
Y377726*
X423409Y377518*
X423485Y377414*
X423636Y377310*
X424090Y377102*
X424241Y376998*
X424316Y376894*
X424392Y376686*
Y376375*
X424241Y376167*
X424014Y376063*
X423712*
X423485Y376167*
X423333Y376375*
X425072Y378246D02*
X425148Y378142D01*
X425224Y378246*
X425148Y378350*
X425072Y378246*
X425148Y377518D02*
Y376063D01*
X425904Y378246D02*
Y376063D01*
X426585Y378246D02*
Y376063D01*
X427341Y377518D02*
X426585Y376479D01*
X426887Y376894D02*
X427416Y376063D01*
G54D15*
X489665Y459154D02*
G03Y454232I0J-2461D01*
Y459154I0J2461*
G01X494587D02*
X492126D01*
Y454232*
X494587*
Y459154D02*
X497047D01*
Y454232*
X494587*
X484744Y459154D02*
G03Y454232I0J-2461D01*
Y459154I0J2461*
G01X479823D02*
G03Y454232I-0J-2461D01*
Y459154I-0J2461*
G54D26*
G01X401575Y435394D02*
G03Y444449I-0J4527D01*
Y435394I-0J-4528*
G01X400394Y425551D02*
X405906D01*
Y434213*
X397244*
Y425551*
X400394*
X401575Y454449D02*
G03Y445394I-0J-4528D01*
Y454449I-0J4527*
G01Y464449D02*
G03Y455394I-0J-4528D01*
Y464449I-0J4527*
G01X520315Y529134D02*
G03X530315I5000J-0D01*
X520315I-5000J-0*
X510315I-5000J-0*
X520315I5000J-0*
G01X510315D02*
G03X500315I-5000J-0D01*
X510315I5000J-0*
G01X500315D02*
G03X490315I-5000J-0D01*
X500315I5000J-0*
G01X490315D02*
G03X480315I-5000J-0D01*
X490315I5000J-0*
G01X520315Y539134D02*
G03X510315I-5000J-0D01*
X520315I5000J-0*
G01X510315D02*
G03X500315I-5000J-0D01*
X510315I5000J-0*
G01X500315D02*
G03X490315I-5000J-0D01*
X500315I5000J-0*
G01X490315D02*
G03X480315I-5000J-0D01*
X490315I5000J-0*
G01X530315Y544134D02*
X520315D01*
Y534134*
X530315*
Y544134*
X480315Y529134D02*
G03X470315I-5000J-0D01*
X480315I5000J-0*
G01X470315D02*
G03X460315I-5000J-0D01*
X470315I5000J-0*
G01X480315Y539134D02*
G03X470315I-5000J-0D01*
X480315I5000J-0*
G01X470315D02*
G03X460315I-5000J-0D01*
X470315I5000J-0*
G01X460315Y529134D02*
G03X450315I-5000J-0D01*
X460315I5000J-0*
G01X450315D02*
G03X440315I-5000J-0D01*
X450315I5000J-0*
G01X460315Y539134D02*
G03X450315I-5000J-0D01*
X460315I5000J-0*
G01X450315D02*
G03X440315I-5000J-0D01*
X450315I5000J-0*
G01X440315Y529134D02*
G03X430315I-5000J-0D01*
X440315I5000J-0*
G01X430315Y539134D02*
G03X440315I5000J-0D01*
X430315I-5000J-0*
G01X559055Y466890D02*
G03Y475945I0J4527D01*
Y466890I0J-4528*
G01X557874Y457047D02*
X563386D01*
Y465709*
X554724*
Y457047*
X557874*
X559055Y485945D02*
G03Y476890I0J-4528D01*
Y485945I0J4527*
G01Y495945D02*
G03Y486890I0J-4528D01*
Y495945I0J4527*
G01X401575Y473937D02*
X406575D01*
Y483937*
X396575*
Y473937*
X401575*
Y483937D02*
G03Y493937I-0J5000D01*
Y483937I-0J-5000*
G01Y493937D02*
G03Y503937I-0J5000D01*
Y493937I-0J-5000*
G01Y503937D02*
G03Y513937I-0J5000D01*
Y503937I-0J-5000*
G01Y513937D02*
G03Y523937I-0J5000D01*
Y513937I-0J-5000*
G01Y523937D02*
G03Y533937I-0J5000D01*
Y523937I-0J-5000*
G01X417323Y536575D02*
X412323D01*
Y526575*
X422323*
Y536575*
X417323*
Y526575D02*
G03Y516575I-0J-5000D01*
Y526575I-0J5000*
G01X551181Y531496D02*
G03X559055I3937J0D01*
X551181I-3937J0*
G01Y509055D02*
Y503937D01*
X559055*
Y511811*
X551181*
Y509055*
Y515748D02*
G03X559055I3937J0D01*
X551181I-3937J0*
G01Y523622D02*
G03X559055I3937J0D01*
X551181I-3937J0*
G01X520315Y549134D02*
G03X530315I5000J-0D01*
X520315I-5000J-0*
X510315I-5000J-0*
X520315I5000J-0*
G01X510315D02*
G03X500315I-5000J-0D01*
X510315I5000J-0*
G01X500315D02*
G03X490315I-5000J-0D01*
X500315I5000J-0*
G01X490315D02*
G03X480315I-5000J-0D01*
X490315I5000J-0*
G01X520315Y559134D02*
G03X510315I-5000J-0D01*
X520315I5000J-0*
G01X510315D02*
G03X500315I-5000J-0D01*
X510315I5000J-0*
G01X500315D02*
G03X490315I-5000J-0D01*
X500315I5000J-0*
G01X490315D02*
G03X480315I-5000J-0D01*
X490315I5000J-0*
G01X530315Y564134D02*
X520315D01*
Y554134*
X530315*
Y564134*
X480315Y549134D02*
G03X470315I-5000J-0D01*
X480315I5000J-0*
G01X470315D02*
G03X460315I-5000J-0D01*
X470315I5000J-0*
G01X480315Y559134D02*
G03X470315I-5000J-0D01*
X480315I5000J-0*
G01X470315D02*
G03X460315I-5000J-0D01*
X470315I5000J-0*
G01X460315Y549134D02*
G03X450315I-5000J-0D01*
X460315I5000J-0*
G01X450315D02*
G03X440315I-5000J-0D01*
X450315I5000J-0*
G01X460315Y559134D02*
G03X450315I-5000J-0D01*
X460315I5000J-0*
G01X450315D02*
G03X440315I-5000J-0D01*
X450315I5000J-0*
G01X440315Y549134D02*
G03X430315I-5000J-0D01*
X440315I5000J-0*
G01X430315Y559134D02*
G03X440315I5000J-0D01*
X430315I-5000J-0*
G54D66*
G01X530315Y417319D02*
G03X522736Y417325I-3789J6D01*
G01Y417504D02*
G03X530315Y417511I3790J-165D01*
G01X522736Y408858D02*
Y403642D01*
X530413*
Y411417*
X522736*
Y408563*
X530413Y427161D02*
G03X522835Y427168I-3789J7D01*
G01Y427347D02*
G03X530413Y427353I3789J-166D01*
G01Y437004D02*
G03X522835Y437010I-3789J6D01*
G01Y437189D02*
G03X530413Y437196I3789J-165D01*
G01X430315Y427170D02*
G03X437894Y427163I3789J-7D01*
G01Y426984D02*
G03X430315Y426978I-3790J166D01*
G01X437894Y435630D02*
Y440846D01*
X430217*
Y433071*
X437894*
Y435925*
X430217Y417327D02*
G03X437795Y417321I3789J-6D01*
G01Y417142D02*
G03X430217Y417135I-3789J165D01*
G01Y407485D02*
G03X437795Y407478I3789J-7D01*
G01Y407299D02*
G03X430217Y407293I-3789J166D01*
G01X513583Y417319D02*
G03X506004Y417325I-3790J6D01*
G01Y417504D02*
G03X513582Y417511I3789J-165D01*
G01X506004Y408858D02*
Y403642D01*
X513681*
Y411417*
X506004*
Y408563*
X513681Y427161D02*
G03X506102Y427168I-3789J7D01*
G01Y427347D02*
G03X513681Y427353I3790J-166D01*
G01X447047Y417327D02*
G03X454626Y417321I3790J-6D01*
G01Y417142D02*
G03X447047Y417135I-3789J165D01*
G01X454626Y425787D02*
Y431004D01*
X446949*
Y423228*
X454626*
Y426083*
X446949Y407485D02*
G03X454528Y407478I3789J-7D01*
G01Y407299D02*
G03X446949Y407293I-3790J166D01*
G74*
G01X0Y0D02*
M02*
