G04 ================== begin FILE IDENTIFICATION RECORD ==================*
G04 Layout Name:  beagleplayv022_10.brd*
G04 Film Name:    L2_GND*
G04 File Format:  Gerber RS274X*
G04 File Origin:  Cadence Allegro 17.4-S032*
G04 Origin Date:  Wed Feb 15 11:40:44 2023*
G04 *
G04 Layer:  VIA CLASS/LYR2_GND*
G04 Layer:  PIN/LYR2_GND*
G04 Layer:  ETCH/LYR2_GND*
G04 Layer:  BOARD GEOMETRY/OUTLINE*
G04 *
G04 Offset:    (0.00 0.00)*
G04 Mirror:    No*
G04 Mode:      Positive*
G04 Rotation:  0*
G04 FullContactRelief:  No*
G04 UndefLineWidth:     4.00*
G04 ================== end FILE IDENTIFICATION RECORD ====================*
%FSLAX25Y25*MOIN*%
%IR0*IPPOS*OFA0.00000B0.00000*MIA0B0*SFA1.00000B1.00000*%
%ADD16C,.06*%
%ADD10C,.016*%
%ADD23C,.0315*%
%ADD20O,.117X.05906*%
%ADD18C,.075*%
%ADD25C,.05512*%
%ADD14C,.02362*%
%ADD27C,.03543*%
%ADD15C,.04724*%
%ADD17R,.075X.075*%
%ADD19C,.08661*%
%ADD22C,.06693*%
%ADD12C,.06299*%
%ADD21O,.06693X.13386*%
%ADD24C,.12795*%
%ADD26C,.12598*%
%ADD13O,.04724X.08661*%
%ADD11C,.19685*%
%ADD28C,.034*%
%ADD29C,.025*%
%ADD30C,.035*%
%ADD31C,.005*%
%ADD32C,.004*%
%ADD33C,.007*%
%ADD56C,.02004*%
%ADD54C,.07102*%
%ADD46C,.02404*%
%ADD40C,.06006*%
%ADD52C,.04162*%
%ADD47C,.08304*%
%ADD53C,.05146*%
%ADD41C,.0583*%
%ADD55C,.04546*%
%ADD51C,.05528*%
%ADD34C,.03944*%
%ADD49C,.03954*%
%ADD42C,.05844*%
%ADD38C,.0858*%
%ADD39C,.09454*%
%ADD48C,.09464*%
%ADD45C,.05738*%
%ADD43C,.05549*%
%ADD50C,.03768*%
%ADD44C,.06979*%
%ADD36C,.1504*%
%ADD37C,.14572*%
%ADD35C,.14872*%
G75*
%LPD*%
G75*
G36*
G01X-1294500Y1235500D02*
X-992100D01*
X-988400Y1231800D01*
Y1218100D01*
X-987700Y1217400D01*
Y1207668D01*
G02X-988417Y1207424I-400J0D01*
G03X-996530Y1211414I-8113J-6253D01*
G03Y1190926I0J-10244D01*
G03X-988417Y1194916I0J10243D01*
G02X-987700Y1194672I317J-244D01*
G01Y985798D01*
G02X-988417Y985554I-400J0D01*
G03X-996530Y989544I-8113J-6253D01*
G03Y969056I0J-10244D01*
G03X-988417Y973046I0J10243D01*
G02X-987700Y972802I317J-244D01*
G01Y964200D01*
X-986400Y962900D01*
Y934400D01*
X-986841Y933959D01*
Y926559D01*
X-988841Y924559D01*
X-1058280D01*
G02X-1058634Y925144I0J400D01*
G03X-1058498Y925700I-1066J555D01*
G03X-1060902I-1202J0D01*
G03X-1060766Y925144I1202J-1D01*
G02X-1061120Y924559I-354J-185D01*
G01X-1064604D01*
G02X-1064927Y925194I1J400D01*
G03X-1064698Y925900I-974J706D01*
G03X-1067102I-1202J0D01*
G03X-1066873Y925194I1203J0D01*
G02X-1067196Y924559I-324J-235D01*
G01X-1072382D01*
G02X-1072686Y925219I0J400D01*
G03X-1072398Y926000I-915J781D01*
G03X-1074802I-1202J0D01*
G03X-1074514Y925219I1203J0D01*
G02X-1074818Y924559I-304J-260D01*
G01X-1081704D01*
G02X-1082027Y925194I1J400D01*
G03X-1081798Y925900I-974J706D01*
G03X-1084202I-1202J0D01*
G03X-1083973Y925194I1203J0D01*
G02X-1084296Y924559I-324J-235D01*
G01X-1090337D01*
G02X-1090677Y925169I0J400D01*
G03X-1090498Y925800I-1023J631D01*
G03X-1092902I-1202J0D01*
G03X-1092723Y925169I1202J0D01*
G02X-1093063Y924559I-340J-210D01*
G01X-1099004D01*
G02X-1099327Y925194I1J400D01*
G03X-1099098Y925900I-974J706D01*
G03X-1101502I-1202J0D01*
G03X-1101273Y925194I1203J0D01*
G02X-1101596Y924559I-324J-235D01*
G01X-1106437D01*
G02X-1106777Y925169I0J400D01*
G03X-1106598Y925800I-1023J631D01*
G03X-1109002I-1202J0D01*
G03X-1108823Y925169I1202J0D01*
G02X-1109163Y924559I-340J-210D01*
G01X-1115580D01*
G02X-1115934Y925144I0J400D01*
G03X-1115798Y925700I-1066J555D01*
G03X-1118202I-1202J0D01*
G03X-1118066Y925144I1202J-1D01*
G02X-1118420Y924559I-354J-185D01*
G01X-1124632D01*
G02X-1124998Y925119I0J400D01*
G03X-1124898Y925600I-1102J480D01*
G03X-1127302I-1202J0D01*
G03X-1127202Y925119I1202J-1D01*
G02X-1127568Y924559I-366J-160D01*
G01X-1132580D01*
G02X-1132934Y925144I0J400D01*
G03X-1132798Y925700I-1066J555D01*
G03X-1135202I-1202J0D01*
G03X-1135066Y925144I1202J-1D01*
G02X-1135420Y924559I-354J-185D01*
G01X-1152774D01*
G02X-1153057Y925242I0J400D01*
G01X-1151248Y927050D01*
Y965150D01*
X-1153550Y967452D01*
X-1159950D01*
X-1162152Y965250D01*
Y948463D01*
G02X-1162649Y948075I-400J0D01*
G03Y939757I-1046J-4159D01*
G02X-1162152Y939369I97J-388D01*
G01Y937750D01*
X-1163350Y936552D01*
X-1176050D01*
X-1177048Y937550D01*
Y952750D01*
X-1177727Y953428D01*
X-1177742Y953470D01*
G03X-1186930Y953771I-4654J-1680D01*
G01X-1187952Y952750D01*
Y937350D01*
X-1188750Y936552D01*
X-1193750D01*
X-1196152Y934150D01*
Y924559D01*
X-1255477D01*
G02X-1255742Y925259I0J400D01*
G03X-1254808Y927330I-1829J2071D01*
G01Y931268D01*
G03X-1260334I-2763J-1D01*
G01Y927330D01*
G03X-1259400Y925259I2763J0D01*
G02X-1259665Y924559I-265J-300D01*
G01X-1289335D01*
G02X-1289600Y925259I0J400D01*
G03X-1288666Y927330I-1829J2071D01*
G01Y931268D01*
G03X-1294192I-2763J-1D01*
G01Y927330D01*
G03X-1292803Y924933I2763J0D01*
G01X-1292702Y924875D01*
Y924559D01*
X-1293359D01*
X-1297341Y928541D01*
Y954659D01*
X-1297400Y954718D01*
Y972279D01*
G02X-1296699Y972543I400J0D01*
G03X-1289000Y969056I7699J6756D01*
G03Y989544I0J10244D01*
G03X-1296699Y986057I0J-10243D01*
G02X-1297400Y986321I-301J264D01*
G01Y1100108D01*
G02X-1296734Y1100407I400J0D01*
G03X-1295934Y1100102I800J897D01*
G03Y1102506I0J1202D01*
G03X-1296734Y1102201I0J-1202D01*
G02X-1297400Y1102500I-266J299D01*
G01Y1194149D01*
G02X-1296699Y1194413I400J0D01*
G03X-1289000Y1190926I7699J6756D01*
G03Y1211414I0J10244D01*
G03X-1296699Y1207927I0J-10243D01*
G02X-1297400Y1208191I-301J264D01*
G01Y1216000D01*
X-1296800Y1216600D01*
Y1233200D01*
X-1294500Y1235500D01*
G37*
G36*
G01X-1159484Y951173D02*
G03X-1153932Y951306I2678J4161D01*
G02X-1153300Y950980I232J-326D01*
G01Y927900D01*
X-1157400Y923800D01*
X-1192900D01*
X-1194100Y925000D01*
Y933300D01*
X-1192900Y934500D01*
X-1187900D01*
X-1185900Y936500D01*
Y940743D01*
G02X-1185268Y941068I400J-1D01*
G03X-1179717Y940938I2871J4030D01*
G02X-1179100Y940602I217J-336D01*
G01Y936700D01*
X-1176900Y934500D01*
X-1162500D01*
X-1160100Y936900D01*
Y941578D01*
G03Y946254I-3595J2338D01*
G01Y950836D01*
G02X-1159484Y951173I400J0D01*
G37*
%LPC*%
G75*
G36*
G01X-1160579Y992538D02*
Y999624D01*
G02X-1153033I3773J0D01*
G01Y992538D01*
G02X-1160579I-3773J0D01*
G37*
G36*
G01X-1186169Y980334D02*
Y987420D01*
G02X-1178623I3773J0D01*
G01Y980334D01*
G02X-1186169I-3773J0D01*
G37*
G36*
G01X-1064714Y963612D02*
Y966644D01*
G02X-1059962I2376J0D01*
G01Y963612D01*
G02X-1064714I-2376J0D01*
G37*
G36*
G01X-1074130Y963356D02*
Y966900D01*
G02X-1069378I2376J0D01*
G01Y963356D01*
G02X-1074130I-2376J0D01*
G37*
G36*
G01X-1136138D02*
Y966900D01*
G02X-1131386I2376J0D01*
G01Y963356D01*
G02X-1136138I-2376J0D01*
G37*
G36*
G01X-1260334Y943866D02*
Y947804D01*
G02X-1254808I2763J-1D01*
G01Y943866D01*
G02X-1260334I-2763J1D01*
G37*
G36*
G01X-1294192D02*
Y947804D01*
G02X-1288666I2763J-1D01*
G01Y943866D01*
G02X-1294192I-2763J1D01*
G37*
G36*
G01X-1218497Y935034D02*
X-1212703D01*
G02Y928324I0J-3355D01*
G01X-1218497D01*
G02Y935034I0J3355D01*
G37*
G36*
G01X-1246660Y927426D02*
Y934926D01*
G02X-1246258Y935328I402J0D01*
G01X-1238758D01*
G02X-1238356Y934926I0J-402D01*
G01Y927426D01*
G02X-1238758Y927024I-402J0D01*
G01X-1246258D01*
G02X-1246660Y927426I0J402D01*
G37*
G36*
G01X-1272249Y950560D02*
G03X-1272752Y950556I-249J-313D01*
G02X-1273516Y950282I-764J928D01*
G02Y952686I0J1202D01*
G02X-1272767Y952424I0J-1202D01*
G03X-1272264Y952428I249J313D01*
G02X-1271500Y952702I764J-928D01*
G02Y950298I0J-1202D01*
G02X-1272249Y950560I0J1202D01*
G37*
G36*
G01X-1265975Y952420D02*
G03X-1265982Y952683I-154J127D01*
G02X-1266302Y953500I883J817D01*
G02X-1263898I1202J0D01*
G02X-1264176Y952731I-1203J0D01*
G03X-1264169Y952468I154J-127D01*
G02X-1263849Y951651I-883J-817D01*
G02X-1266253I-1202J0D01*
G02X-1265975Y952420I1203J0D01*
G37*
G36*
G01X-1282050Y957350D02*
G02X-1281200Y957702I850J-850D01*
G02Y955298I0J-1202D01*
G02X-1282050Y955650I0J1202D01*
G02X-1282900Y955298I-850J850D01*
G02Y957702I0J1202D01*
G02X-1282050Y957350I0J-1202D01*
G37*
G36*
G01X-1281872Y958678D02*
G03X-1282128I-128J-153D01*
G02X-1282900Y958398I-771J922D01*
G02Y960802I0J1202D01*
G02X-1282128Y960522I1J-1202D01*
G03X-1281872I128J153D01*
G02X-1281100Y960802I771J-922D01*
G02Y958398I0J-1202D01*
G02X-1281872Y958678I-1J1202D01*
G37*
G36*
G01X-1199898Y958194D02*
G03X-1200223Y958619I-399J32D01*
G02X-1201202Y959800I223J1181D01*
G02X-1198798I1202J0D01*
G02X-1198802Y959706I-1202J4D01*
G03X-1198477Y959281I399J-32D01*
G02X-1197498Y958100I-223J-1181D01*
G02X-1199902I-1202J0D01*
G02X-1199898Y958194I1202J-4D01*
G37*
G36*
G01X-1281872Y961878D02*
G03X-1282128I-128J-153D01*
G02X-1282900Y961598I-771J922D01*
G02Y964002I0J1202D01*
G02X-1282128Y963722I1J-1202D01*
G03X-1281872I128J153D01*
G02X-1281100Y964002I771J-922D01*
G02Y961598I0J-1202D01*
G02X-1281872Y961878I-1J1202D01*
G37*
G36*
G01X-1015147Y960964D02*
G02X-1015722Y963612I5802J2646D01*
G01Y966644D01*
G02X-1002970I6376J0D01*
G01Y963612D01*
G02X-1009130Y957240I-6376J1D01*
G03X-1009467Y956646I13J-400D01*
G02X-1008556Y953120I-6375J-3528D01*
G02X-1015842Y960406I-7286J0D01*
G02X-1015528Y960399I-5J-7286D01*
G03X-1015147Y960964I17J399D01*
G37*
G36*
G01X-1267884Y973267D02*
G03X-1267693Y973443I-8J200D01*
G02X-1266500Y974502I1193J-142D01*
G02X-1265326Y973559I0J-1202D01*
G03X-1265126Y973402I195J43D01*
G01X-1265100D01*
G02Y970998I0J-1202D01*
G02X-1266095Y971526I0J1202D01*
G03X-1266778Y971492I-331J-224D01*
G02X-1267834Y970864I-1056J574D01*
G02X-1269036Y972066I0J1202D01*
G02X-1267884Y973267I1202J0D01*
G37*
G36*
G01X-1234723Y972524D02*
G03X-1234979Y972538I-136J-146D01*
G02X-1235700Y972298I-721J963D01*
G02Y974702I0J1202D01*
G02X-1234877Y974376I0J-1202D01*
G03X-1234621Y974362I136J146D01*
G02X-1233900Y974602I721J-963D01*
G02Y972198I0J-1202D01*
G02X-1234723Y972524I0J1202D01*
G37*
G36*
G01X-1212570Y974572D02*
G03X-1213070I-250J-313D01*
G02X-1213820Y974309I-750J938D01*
G02Y976713I0J1202D01*
G02X-1213070Y976450I0J-1201D01*
G03X-1212570I250J313D01*
G02X-1211820Y976713I750J-938D01*
G02Y974309I0J-1202D01*
G02X-1212570Y974572I0J1201D01*
G37*
G36*
G01X-1237921Y976138D02*
G03X-1238177Y976124I-120J-160D01*
G02X-1239000Y975798I-823J876D01*
G02Y978202I0J1202D01*
G02X-1238279Y977962I0J-1203D01*
G03X-1238023Y977976I120J160D01*
G02X-1237200Y978302I823J-876D01*
G02Y975898I0J-1202D01*
G02X-1237921Y976138I0J1203D01*
G37*
G36*
G01X-1207926Y977374D02*
G03X-1207876Y977898I-274J291D01*
G02X-1208102Y978600I977J702D01*
G02X-1205698I1202J0D01*
G02X-1205818Y978075I-1202J-1D01*
G03X-1205444Y977501I360J-174D01*
G02X-1205400Y977502I49J-1201D01*
G02Y975098I0J-1202D01*
G02X-1206349Y975562I0J1202D01*
G02X-1207100Y975298I-752J938D01*
G02X-1208302Y976500I0J1202D01*
G02X-1207926Y977374I1202J1D01*
G37*
G36*
G01X-1268222Y984472D02*
G03Y984728I-153J128D01*
G02X-1268502Y985500I922J771D01*
G02X-1266098I1202J0D01*
G02X-1266378Y984728I-1202J-1D01*
G03Y984472I153J-128D01*
G02X-1266098Y983700I-922J-771D01*
G02X-1268502I-1202J0D01*
G02X-1268222Y984472I1202J1D01*
G37*
G36*
G01X-1223030Y994698D02*
G03X-1222773Y994726I112J166D01*
G02X-1221900Y995102I873J-825D01*
G02X-1221112Y994808I0J-1203D01*
G03X-1220588I262J302D01*
G02X-1219800Y995102I788J-909D01*
G02X-1218598Y993900I0J-1202D01*
G02X-1218965Y993035I-1203J0D01*
G03X-1218990Y992486I278J-288D01*
G02X-1218698Y991700I-910J-785D01*
G02X-1219061Y990839I-1203J0D01*
G03X-1219075Y990568I140J-143D01*
G02X-1218798Y989800I-926J-768D01*
G02X-1219116Y988986I-1201J0D01*
G03Y988714I147J-136D01*
G02X-1218798Y987900I-883J-814D01*
G02X-1220000Y986698I-1202J0D01*
G02X-1220850Y987050I0J1202D01*
G02X-1221700Y986698I-850J850D01*
G02X-1222514Y987016I0J1201D01*
G03X-1222786I-136J-147D01*
G02X-1223600Y986698I-814J883D01*
G02X-1224802Y987900I0J1202D01*
G02X-1224484Y988714I1201J0D01*
G03Y988986I-147J136D01*
G02Y990614I883J814D01*
G03Y990886I-147J136D01*
G02X-1224802Y991700I883J814D01*
G02X-1224575Y992403I1202J0D01*
G03X-1224600Y992903I-324J234D01*
G02X-1224902Y993700I901J797D01*
G02X-1223700Y994902I1202J0D01*
G02X-1223030Y994698I0J-1202D01*
G37*
G36*
G01X-1067736Y996392D02*
G03X-1067389Y996816I-52J397D01*
G02X-1067392Y996900I1199J85D01*
G02X-1064988I1202J0D01*
G02X-1066034Y995708I-1202J0D01*
G03X-1066381Y995284I52J-397D01*
G02X-1066378Y995200I-1199J-85D01*
G02X-1068782I-1202J0D01*
G02X-1067736Y996392I1202J0D01*
G37*
G36*
G01X-1203381Y996571D02*
G02X-1203198Y995934I-1019J-637D01*
G02X-1205602I-1202J0D01*
G02X-1205119Y996897I1202J0D01*
G02X-1205302Y997534I1019J637D01*
G02X-1202898I1202J0D01*
G02X-1203381Y996571I-1202J0D01*
G37*
G36*
G01X-1045466Y1008766D02*
X-1044766Y1009466D01*
G02X-1043633Y1009935I1133J-1133D01*
G02X-1042031Y1008333I0J-1602D01*
G02X-1042500Y1007200I-1602J0D01*
G01X-1042864Y1006836D01*
Y1006305D01*
X-1041702Y1005144D01*
X-1038891D01*
G02X-1037102Y1003354I-1J-1790D01*
G01Y996660D01*
G02X-1038891Y994870I-1789J-1D01*
G01X-1042041D01*
G02X-1043830Y996660I1J1790D01*
G01Y1002739D01*
X-1045466Y1004374D01*
X-1047102Y1002739D01*
Y996660D01*
G02X-1048891Y994870I-1789J-1D01*
G01X-1052041D01*
G02X-1053830Y996660I1J1790D01*
G01Y1003354D01*
G02X-1052041Y1005144I1789J1D01*
G01X-1049230D01*
X-1048068Y1006305D01*
Y1006836D01*
X-1048432Y1007200D01*
G02X-1048901Y1008333I1133J1133D01*
G02X-1047299Y1009936I1602J1D01*
G02X-1046166Y1009466I-1J-1603D01*
G01X-1045466Y1008766D01*
G37*
G36*
G01X-1229828Y1013622D02*
G03X-1229572I128J153D01*
G02X-1228800Y1013902I771J-922D01*
G02X-1227950Y1013550I0J-1202D01*
G02X-1227100Y1013902I850J-850D01*
G02X-1225898Y1012700I0J-1202D01*
G02X-1226178Y1011928I-1202J-1D01*
G03Y1011672I153J-128D01*
G02X-1225898Y1010900I-922J-771D01*
G02X-1226178Y1010128I-1202J-1D01*
G03Y1009872I153J-128D01*
G02X-1225898Y1009100I-922J-771D01*
G02X-1227100Y1007898I-1202J0D01*
G02X-1227950Y1008250I0J1202D01*
G02X-1228800Y1007898I-850J850D01*
G02X-1229572Y1008178I-1J1202D01*
G03X-1229828I-128J-153D01*
G02X-1230600Y1007898I-771J922D01*
G02X-1231802Y1009100I0J1202D01*
G02X-1231522Y1009872I1202J1D01*
G03Y1010128I-153J128D01*
G02X-1231802Y1010900I922J771D01*
G02X-1231522Y1011672I1202J1D01*
G03Y1011928I-153J128D01*
G02X-1231802Y1012700I922J771D01*
G02X-1230600Y1013902I1202J0D01*
G02X-1229828Y1013622I1J-1202D01*
G37*
G36*
G01X-1274150Y1013739D02*
G03X-1273650I250J313D01*
G02X-1272900Y1014002I750J-938D01*
G02X-1272128Y1013722I1J-1202D01*
G03X-1271872I128J153D01*
G02X-1271100Y1014002I771J-922D01*
G02X-1269898Y1012800I0J-1202D01*
G02X-1270102Y1012130I-1202J0D01*
G03X-1270074Y1011873I166J-112D01*
G02X-1269698Y1011000I-825J-873D01*
G02X-1270065Y1010135I-1203J0D01*
G03X-1270090Y1009586I278J-288D01*
G02X-1269798Y1008800I-910J-785D01*
G02X-1271000Y1007598I-1202J0D01*
G02X-1271814Y1007916I0J1201D01*
G03X-1272086I-136J-147D01*
G02X-1272900Y1007598I-814J883D01*
G02X-1273672Y1007878I-1J1202D01*
G03X-1273928I-128J-153D01*
G02X-1274700Y1007598I-771J922D01*
G02X-1275902Y1008800I0J1202D01*
G02X-1275574Y1009625I1202J0D01*
G03Y1010175I-291J275D01*
G02X-1275902Y1011000I874J825D01*
G02X-1275698Y1011670I1202J0D01*
G03X-1275726Y1011927I-166J112D01*
G02X-1276102Y1012800I825J873D01*
G02X-1274900Y1014002I1202J0D01*
G02X-1274150Y1013739I0J-1201D01*
G37*
G36*
G01X-1162762Y1025321D02*
G03X-1162776Y1025577I-160J120D01*
G02X-1163102Y1026400I876J823D01*
G02X-1161900Y1027602I1202J0D01*
G02X-1161179Y1027362I0J-1203D01*
G03X-1160923Y1027376I120J160D01*
G02X-1160100Y1027702I823J-876D01*
G02X-1158898Y1026500I0J-1202D01*
G02X-1159138Y1025779I-1203J0D01*
G03X-1159124Y1025523I160J-120D01*
G02X-1158798Y1024700I-876J-823D01*
G02X-1160000Y1023498I-1202J0D01*
G02X-1160721Y1023738I0J1203D01*
G03X-1160977Y1023724I-120J-160D01*
G02X-1161800Y1023398I-823J876D01*
G02X-1163002Y1024600I0J1202D01*
G02X-1162762Y1025321I1203J0D01*
G37*
G36*
G01X-1152387Y1025761D02*
G03X-1152323Y1026256I-278J288D01*
G02X-1152499Y1026882I1025J626D01*
G02X-1150095I1202J0D01*
G02X-1150460Y1026019I-1203J0D01*
G03X-1150524Y1025524I278J-288D01*
G02X-1150348Y1024898I-1025J-626D01*
G02X-1150500Y1024312I-1202J-1D01*
G03X-1150418Y1023820I349J-195D01*
G02X-1150019Y1022925I-804J-895D01*
G02X-1151221Y1021723I-1202J0D01*
G02X-1151529Y1021763I0J1202D01*
G03X-1152023Y1021457I-102J-387D01*
G02X-1153200Y1020498I-1177J243D01*
G02Y1022902I0J1202D01*
G02X-1152892Y1022862I0J-1202D01*
G03X-1152398Y1023168I102J387D01*
G02X-1152271Y1023511I1178J-241D01*
G03X-1152353Y1024003I-349J195D01*
G02X-1152752Y1024898I804J895D01*
G02X-1152387Y1025761I1203J0D01*
G37*
G36*
G01X-1045350Y1030261D02*
G02X-1046100Y1029998I-750J938D01*
G02X-1047302Y1031200I0J1202D01*
G02X-1047085Y1031889I1202J0D01*
G02X-1047502Y1032800I785J910D01*
G02X-1046300Y1034002I1202J0D01*
G02X-1045450Y1033650I0J-1202D01*
G02X-1044600Y1034002I850J-850D01*
G02X-1043398Y1032800I0J-1202D01*
G02X-1043703Y1032000I-1202J0D01*
G02X-1043398Y1031200I-897J-800D01*
G02X-1044600Y1029998I-1202J0D01*
G02X-1045350Y1030261I0J1201D01*
G37*
G36*
G01X-1144785Y1032080D02*
G02X-1144498Y1031300I-915J-780D01*
G02X-1146902I-1202J0D01*
G02X-1146615Y1032080I1202J0D01*
G02X-1146902Y1032860I915J780D01*
G02X-1144498I1202J0D01*
G02X-1144785Y1032080I-1202J0D01*
G37*
G36*
G01X-1018364Y1026674D02*
Y1033368D01*
G02X-1016575Y1035158I1789J1D01*
G01X-1013425D01*
G02X-1011636Y1033368I-1J-1790D01*
G01Y1026674D01*
G02X-1013425Y1024884I-1789J-1D01*
G01X-1015007D01*
X-1017997Y1015820D01*
X-1019938Y1014843D01*
X-1018959Y1012904D01*
X-1021899Y1003993D01*
X-1021857Y1003917D01*
G02X-1021636Y1003054I-1568J-861D01*
G01Y996360D01*
G02X-1023425Y994570I-1789J-1D01*
G01X-1026575D01*
G02X-1028364Y996360I1J1790D01*
G01Y1003054D01*
G02X-1026575Y1004844I1789J1D01*
G01X-1024992D01*
X-1022419Y1012646D01*
X-1022586Y1012976D01*
X-1033761Y1016663D01*
G03X-1034437Y1016772I-677J-2051D01*
G01X-1043644D01*
X-1048068Y1021196D01*
Y1023723D01*
X-1050530Y1026184D01*
X-1052041D01*
G02X-1052830Y1026974I1J790D01*
G01Y1033668D01*
G02X-1052041Y1034458I789J1D01*
G01X-1048891D01*
G02X-1048102Y1033668I-1J-790D01*
G01Y1028289D01*
X-1045466Y1025654D01*
X-1042830Y1028289D01*
Y1033668D01*
G02X-1042041Y1034458I789J1D01*
G01X-1038891D01*
G02X-1038102Y1033668I-1J-790D01*
G01Y1026974D01*
G02X-1038891Y1026184I-789J-1D01*
G01X-1040402D01*
X-1042864Y1023723D01*
Y1023353D01*
X-1041487Y1021976D01*
X-1034436D01*
G02X-1032129Y1021605I-1J-7364D01*
G01X-1030875Y1021192D01*
X-1026830Y1023117D01*
X-1022402Y1021060D01*
X-1021521Y1018107D01*
X-1020954Y1017920D01*
X-1020625Y1018086D01*
X-1018101Y1025735D01*
X-1018143Y1025812D01*
G02X-1018364Y1026674I1568J861D01*
G37*
G36*
G01X-1225084Y1032786D02*
G02X-1225402Y1033600I883J814D01*
G02X-1224997Y1034500I1203J0D01*
G02X-1225302Y1035300I897J800D01*
G02X-1224100Y1036502I1202J0D01*
G02X-1223250Y1036150I0J-1202D01*
G02X-1222400Y1036502I850J-850D01*
G02X-1221198Y1035300I0J-1202D01*
G02X-1221603Y1034400I-1203J0D01*
G02X-1221298Y1033600I-897J-800D01*
G02X-1221578Y1032828I-1202J-1D01*
G03Y1032572I153J-128D01*
G02X-1221298Y1031800I-922J-771D01*
G02X-1222500Y1030598I-1202J0D01*
G02X-1223300Y1030903I0J1202D01*
G02X-1224200Y1030498I-900J798D01*
G02X-1225402Y1031700I0J1202D01*
G02X-1225084Y1032514I1201J0D01*
G03Y1032786I-147J136D01*
G37*
G36*
G01X-1117223Y1035576D02*
G03X-1117257Y1036167I-286J280D01*
G02X-1117702Y1037100I757J934D01*
G02X-1115298I1202J0D01*
G02X-1115641Y1036260I-1202J1D01*
G03X-1115607Y1035669I286J-280D01*
G02X-1115162Y1034736I-757J-934D01*
G02X-1117566I-1202J0D01*
G02X-1117223Y1035576I1202J-1D01*
G37*
G36*
G01X-1142983Y1036796D02*
G02X-1142705Y1036027I-925J-769D01*
G02X-1145109I-1202J0D01*
G02X-1144776Y1036858I1203J0D01*
G02X-1145054Y1037627I925J769D01*
G02X-1142650I1202J0D01*
G02X-1142983Y1036796I-1203J0D01*
G37*
G36*
G01X-1027397Y1036988D02*
G03X-1027896Y1037337I-398J-38D01*
G02X-1028200Y1037298I-304J1163D01*
G02Y1039702I0J1202D01*
G02X-1027456Y1039444I0J-1202D01*
G02X-1026600Y1039802I856J-844D01*
G02X-1025398Y1038600I0J-1202D01*
G02X-1025513Y1038086I-1202J-1D01*
G02X-1024998Y1037100I-686J-986D01*
G02X-1025356Y1036244I-1202J0D01*
G02X-1025098Y1035500I-944J-744D01*
G02X-1027502I-1202J0D01*
G02X-1027144Y1036356I1202J0D01*
G02X-1027397Y1036988I944J744D01*
G37*
G36*
G01X-1082922Y1042272D02*
G03Y1042528I-153J128D01*
G02X-1083202Y1043300I922J771D01*
G02X-1080798I1202J0D01*
G02X-1081078Y1042528I-1202J-1D01*
G03Y1042272I153J-128D01*
G02X-1080798Y1041500I-922J-771D01*
G02X-1083202I-1202J0D01*
G02X-1082922Y1042272I1202J1D01*
G37*
G36*
G01X-1073310Y1044370D02*
G03X-1073235Y1044944I-236J323D01*
G02X-1073502Y1045700I935J755D01*
G02X-1071098I1202J0D01*
G02X-1071590Y1044730I-1202J0D01*
G03X-1071665Y1044156I236J-323D01*
G02X-1071398Y1043400I-935J-755D01*
G02X-1073802I-1202J0D01*
G02X-1073310Y1044370I1202J0D01*
G37*
G36*
G01X-1202412Y1048308D02*
G03X-1201888I262J302D01*
G02X-1201100Y1048602I788J-909D01*
G02X-1200355Y1048344I1J-1202D01*
G03X-1199831Y1048368I248J314D01*
G02X-1199000Y1048702I831J-867D01*
G02X-1197798Y1047500I0J-1202D01*
G02X-1198092Y1046712I-1203J0D01*
G03Y1046188I302J-262D01*
G02X-1197798Y1045400I-909J-788D01*
G02X-1199000Y1044198I-1202J0D01*
G02X-1199831Y1044532I0J1201D01*
G03X-1200355Y1044556I-276J-290D01*
G02X-1201100Y1044298I-744J944D01*
G02X-1201888Y1044592I0J1203D01*
G03X-1202412I-262J-302D01*
G02X-1203200Y1044298I-788J909D01*
G02X-1204402Y1045500I0J1202D01*
G02X-1204084Y1046314I1201J0D01*
G03Y1046586I-147J136D01*
G02X-1204402Y1047400I883J814D01*
G02X-1203200Y1048602I1202J0D01*
G02X-1202412Y1048308I0J-1203D01*
G37*
G36*
G01X-1081474Y1046519D02*
G02X-1081398Y1046100I-1126J-421D01*
G02X-1083802I-1202J0D01*
G02X-1083126Y1047181I1202J0D01*
G02X-1083202Y1047600I1126J421D01*
G02X-1080798I1202J0D01*
G02X-1081474Y1046519I-1202J0D01*
G37*
G36*
G01X-1227174Y1048754D02*
G03X-1227426I-126J-155D01*
G02X-1228186Y1048484I-759J932D01*
G02Y1050888I0J1202D01*
G02X-1227426Y1050618I1J-1202D01*
G03X-1227174I126J155D01*
G02X-1226414Y1050888I759J-932D01*
G02Y1048484I0J-1202D01*
G02X-1227174Y1048754I-1J1202D01*
G37*
G36*
G01X-1168084Y1050614D02*
G03Y1050886I-147J136D01*
G02X-1168402Y1051700I883J814D01*
G02X-1167200Y1052902I1202J0D01*
G02X-1166308Y1052506I0J-1203D01*
G03X-1166046Y1052475I149J134D01*
G02X-1165362Y1052689I685J-988D01*
G02X-1164548Y1052371I0J-1201D01*
G03X-1164276I136J147D01*
G02X-1163462Y1052689I814J-883D01*
G02X-1162260Y1051487I0J-1202D01*
G02X-1162552Y1050701I-1202J-1D01*
G03X-1162558Y1050446I151J-131D01*
G02X-1162298Y1049700I-942J-747D01*
G02X-1163500Y1048498I-1202J0D01*
G02X-1164314Y1048816I0J1201D01*
G03X-1164586I-136J-147D01*
G02X-1165400Y1048498I-814J883D01*
G02X-1166223Y1048824I0J1202D01*
G03X-1166479Y1048838I-136J-146D01*
G02X-1167200Y1048598I-721J963D01*
G02X-1168402Y1049800I0J1202D01*
G02X-1168084Y1050614I1201J0D01*
G37*
G36*
G01X-1206822Y1057572D02*
G03Y1057828I-153J128D01*
G02X-1207102Y1058600I922J771D01*
G02X-1205900Y1059802I1202J0D01*
G02X-1205086Y1059484I0J-1201D01*
G03X-1204814I136J147D01*
G02X-1204000Y1059802I814J-883D01*
G02X-1202798Y1058600I0J-1202D01*
G02X-1203078Y1057828I-1202J-1D01*
G03Y1057572I153J-128D01*
G02X-1202798Y1056800I-922J-771D01*
G02X-1204000Y1055598I-1202J0D01*
G02X-1204814Y1055916I0J1201D01*
G03X-1205086I-136J-147D01*
G02X-1205900Y1055598I-814J883D01*
G02X-1207102Y1056800I0J1202D01*
G02X-1206822Y1057572I1202J1D01*
G37*
G36*
G01X-1243339Y1061939D02*
G02X-1243702Y1062800I840J861D01*
G02X-1243297Y1063700I1203J0D01*
G02X-1243602Y1064500I897J800D01*
G02X-1242400Y1065702I1202J0D01*
G02X-1241550Y1065350I0J-1202D01*
G02X-1240700Y1065702I850J-850D01*
G02X-1239498Y1064500I0J-1202D01*
G02X-1239903Y1063600I-1203J0D01*
G02X-1239598Y1062800I-897J-800D01*
G02X-1239838Y1062079I-1203J0D01*
G03X-1239824Y1061823I160J-120D01*
G02X-1239498Y1061000I-876J-823D01*
G02X-1240700Y1059798I-1202J0D01*
G02X-1241500Y1060103I0J1202D01*
G02X-1242400Y1059698I-900J798D01*
G02X-1243602Y1060900I0J1202D01*
G02X-1243325Y1061668I1203J0D01*
G03X-1243339Y1061939I-154J128D01*
G37*
G36*
G01X-1070276Y1069023D02*
G03X-1070262Y1069279I-146J136D01*
G02X-1070502Y1070000I963J721D01*
G02X-1068098I1202J0D01*
G02X-1068424Y1069177I-1202J0D01*
G03X-1068438Y1068921I146J-136D01*
G02X-1068198Y1068200I-963J-721D01*
G02X-1070602I-1202J0D01*
G02X-1070276Y1069023I1202J0D01*
G37*
G36*
G01X-1221488Y1071792D02*
G03X-1222012I-262J-302D01*
G02X-1222800Y1071498I-788J909D01*
G02Y1073902I0J1202D01*
G02X-1222012Y1073608I0J-1203D01*
G03X-1221488I262J302D01*
G02X-1220700Y1073902I788J-909D01*
G02Y1071498I0J-1202D01*
G02X-1221488Y1071792I0J1203D01*
G37*
G36*
G01X-1198497Y1072000D02*
G03X-1198997Y1072025I-266J-299D01*
G02X-1199700Y1071798I-703J975D01*
G02Y1074202I0J1202D01*
G02X-1198903Y1073900I0J-1203D01*
G03X-1198403Y1073875I266J299D01*
G02X-1197700Y1074102I703J-975D01*
G02Y1071698I0J-1202D01*
G02X-1198497Y1072000I0J1203D01*
G37*
G36*
G01X-1186675Y1073103D02*
G03X-1186700Y1073603I-324J234D01*
G02X-1187002Y1074400I901J797D01*
G02X-1184598I1202J0D01*
G02X-1184825Y1073697I-1202J0D01*
G03X-1184800Y1073197I324J-234D01*
G02X-1184498Y1072400I-901J-797D01*
G02X-1186902I-1202J0D01*
G02X-1186675Y1073103I1202J0D01*
G37*
G36*
G01X-1079079Y1077730D02*
G03X-1079331Y1078292I-359J177D01*
G02X-1076101Y1079034I927J3364D01*
G03X-1075953Y1078351I264J-300D01*
G02X-1075098Y1077200I-347J-1151D01*
G02X-1076300Y1075998I-1202J0D01*
G02X-1077150Y1076350I0J1202D01*
G02X-1078000Y1075998I-850J850D01*
G02X-1079202Y1077200I0J1202D01*
G02X-1079079Y1077730I1203J0D01*
G37*
G36*
G01X-1086125Y1088326D02*
G03X-1086675I-275J-291D01*
G02X-1087500Y1087998I-825J874D01*
G02Y1090402I0J1202D01*
G02X-1086675Y1090074I0J-1202D01*
G03X-1086125I275J291D01*
G02X-1085300Y1090402I825J-874D01*
G02Y1087998I0J-1202D01*
G02X-1086125Y1088326I0J1202D01*
G37*
G36*
G01X-1061306Y1093798D02*
G03X-1060881Y1094123I32J399D01*
G02X-1059700Y1095102I1181J-223D01*
G02Y1092698I0J-1202D01*
G02X-1059794Y1092702I4J1202D01*
G03X-1060219Y1092377I-32J-399D01*
G02X-1061400Y1091398I-1181J223D01*
G02Y1093802I0J1202D01*
G02X-1061306Y1093798I-4J-1202D01*
G37*
G36*
G01X-1239591Y1097660D02*
G03X-1239720Y1097874I-198J26D01*
G02X-1240502Y1099000I420J1126D01*
G02X-1239300Y1100202I1202J0D01*
G02X-1238528Y1099922I1J-1202D01*
G03X-1238272I128J153D01*
G02X-1237500Y1100202I771J-922D01*
G02X-1236298Y1099000I0J-1202D01*
G02X-1237080Y1097874I-1202J0D01*
G03X-1237209Y1097660I69J-188D01*
G02X-1237198Y1097500I-1191J-162D01*
G02X-1239602I-1202J0D01*
G02X-1239591Y1097660I1202J-2D01*
G37*
G36*
G01X-1265912Y1099679D02*
G03X-1265510Y1100117I4J400D01*
G02X-1265515Y1100230I1197J110D01*
G02X-1264313Y1099028I1202J0D01*
G01X-1264324D01*
G03X-1264726Y1098590I-4J-400D01*
G02X-1264721Y1098477I-1197J-110D01*
G02X-1265923Y1099679I-1202J0D01*
G01X-1265912D01*
G37*
G36*
G01X-1159697Y1104092D02*
G03X-1159498Y1104307I-1J200D01*
G02X-1159502Y1104400I1198J98D01*
G02X-1157098I1202J0D01*
G02X-1158142Y1103208I-1202J0D01*
G03X-1158489Y1102831I52J-396D01*
G02X-1159690Y1101688I-1201J59D01*
G02X-1160884Y1102747I0J1203D01*
G03X-1161261Y1103100I-397J-46D01*
G02X-1162402Y1104300I61J1200D01*
G02X-1159998I1202J0D01*
G01Y1104290D01*
G03X-1159783Y1104088I200J-2D01*
G02X-1159697Y1104092I99J-1198D01*
G37*
G36*
G01X-1094568Y1103631D02*
G03X-1094544Y1104155I-290J276D01*
G02X-1094802Y1104900I944J744D01*
G02X-1092398I1202J0D01*
G02X-1092732Y1104069I-1201J0D01*
G03X-1092756Y1103545I290J-276D01*
G02X-1092498Y1102800I-944J-744D01*
G02X-1094902I-1202J0D01*
G02X-1094568Y1103631I1201J0D01*
G37*
G36*
G01X-1241961Y1104966D02*
G03X-1242085Y1105483I-353J189D01*
G02X-1242602Y1106470I684J987D01*
G02X-1240198I1202J0D01*
G02X-1240339Y1105904I-1202J-1D01*
G03X-1240215Y1105387I353J-189D01*
G02X-1239698Y1104400I-684J-987D01*
G02X-1242102I-1202J0D01*
G02X-1241961Y1104966I1202J1D01*
G37*
G36*
G01X-1061880Y1110627D02*
G03X-1062005Y1111127I-360J176D01*
G02X-1062502Y1112100I704J973D01*
G02X-1060098I1202J0D01*
G02X-1060220Y1111573I-1202J1D01*
G03X-1060095Y1111073I360J-176D01*
G02X-1059598Y1110100I-704J-973D01*
G02X-1059600Y1110035I-1202J4D01*
G03X-1059267Y1109619I400J-21D01*
G02X-1058264Y1108434I-199J-1185D01*
G02X-1060668I-1202J0D01*
G02X-1060666Y1108499I1202J-4D01*
G03X-1060999Y1108915I-400J21D01*
G02X-1062002Y1110100I199J1185D01*
G02X-1061880Y1110627I1202J-1D01*
G37*
G36*
G01X-1170120Y1116927D02*
G03X-1170676Y1116982I-306J-258D01*
G02X-1171300Y1116764I-624J784D01*
G02Y1118768I0J1002D01*
G02X-1170628Y1118509I0J-1001D01*
G03X-1170070Y1118530I268J297D01*
G02X-1169200Y1118902I870J-831D01*
G02Y1116498I0J-1202D01*
G02X-1170120Y1116927I0J1201D01*
G37*
G36*
G01X-1260388Y1118089D02*
G03X-1260942Y1118124I-295J-269D01*
G02X-1261722Y1117837I-780J915D01*
G02Y1120241I0J1202D01*
G02X-1260834Y1119850I1J-1202D01*
G03X-1260280Y1119815I295J269D01*
G02X-1259500Y1120102I780J-915D01*
G02Y1117698I0J-1202D01*
G02X-1260388Y1118089I-1J1202D01*
G37*
G36*
G01X-1062439Y1125150D02*
G03Y1125650I-313J250D01*
G02X-1062702Y1126400I938J750D01*
G02X-1061500Y1127602I1202J0D01*
G02X-1060551Y1127138I0J-1202D01*
G02X-1059800Y1127402I752J-938D01*
G02X-1058598Y1126200I0J-1202D01*
G02X-1058878Y1125428I-1202J-1D01*
G03Y1125172I153J-128D01*
G02X-1058598Y1124400I-922J-771D01*
G02X-1059800Y1123198I-1202J0D01*
G02X-1060650Y1123550I0J1202D01*
G02X-1061500Y1123198I-850J850D01*
G02X-1062702Y1124400I0J1202D01*
G02X-1062439Y1125150I1201J0D01*
G37*
G36*
G01X-1119326Y1126292D02*
G03X-1118979Y1126716I-52J397D01*
G02X-1118982Y1126800I1199J85D01*
G02X-1116578I1202J0D01*
G02X-1117624Y1125608I-1202J0D01*
G03X-1117971Y1125184I52J-397D01*
G02X-1117968Y1125100I-1199J-85D01*
G02X-1120372I-1202J0D01*
G02X-1119326Y1126292I1202J0D01*
G37*
G36*
G01X-1245997Y1126300D02*
G03X-1246497Y1126325I-266J-299D01*
G02X-1247200Y1126098I-703J975D01*
G02Y1128502I0J1202D01*
G02X-1246403Y1128200I0J-1203D01*
G03X-1245903Y1128175I266J299D01*
G02X-1245200Y1128402I703J-975D01*
G02Y1125998I0J-1202D01*
G02X-1245997Y1126300I0J1203D01*
G37*
G36*
G01X-1140519Y1127584D02*
G03X-1140319Y1128091I-172J361D01*
G02X-1140402Y1128530I1119J439D01*
G02X-1137998I1202J0D01*
G02X-1138681Y1127446I-1202J0D01*
G03X-1138881Y1126939I172J-361D01*
G02X-1138798Y1126500I-1119J-439D01*
G02X-1138840Y1126186I-1202J1D01*
G03X-1138640Y1125728I386J-104D01*
G02X-1137998Y1124664I-561J-1064D01*
G02X-1140402I-1202J0D01*
G02X-1140360Y1124978I1202J-1D01*
G03X-1140560Y1125436I-386J104D01*
G02X-1141202Y1126500I561J1064D01*
G02X-1140519Y1127584I1202J0D01*
G37*
G36*
G01X-1090859Y1132666D02*
G03X-1090543Y1133053I-84J391D01*
G02X-1089341Y1134242I1202J-13D01*
G02X-1088139Y1133040I0J-1202D01*
G02X-1089089Y1131865I-1202J0D01*
G03X-1089405Y1131478I84J-391D01*
G02X-1090607Y1130289I-1202J13D01*
G02X-1091809Y1131491I0J1202D01*
G02X-1090859Y1132666I1202J0D01*
G37*
G36*
G01X-1239344Y1136232D02*
G03X-1239825Y1136497I-381J-122D01*
G02X-1240125Y1136459I-300J1165D01*
G02Y1138863I0J1202D01*
G02X-1238981Y1138029I0J-1202D01*
G03X-1238500Y1137764I381J122D01*
G02X-1238200Y1137802I300J-1165D01*
G02Y1135398I0J-1202D01*
G02X-1239344Y1136232I0J1202D01*
G37*
G36*
G01X-1096855Y1136666D02*
G03X-1096705Y1137241I-184J355D01*
G02X-1096902Y1137900I1004J659D01*
G02X-1094498I1202J0D01*
G02X-1094618Y1137376I-1202J0D01*
G03X-1094247Y1136802I360J-174D01*
G01X-1094213D01*
G02Y1134398I0J-1202D01*
G02X-1094996Y1134688I0J1202D01*
G03X-1095517I-261J-303D01*
G02X-1096300Y1134398I-783J912D01*
G02X-1097502Y1135600I0J1202D01*
G02X-1096855Y1136666I1202J0D01*
G37*
G36*
G01X-1266624Y1137663D02*
G03X-1266585Y1138161I-292J273D01*
G02X-1266791Y1138834I996J673D01*
G02X-1264387I1202J0D01*
G02X-1264713Y1138011I-1202J0D01*
G03X-1264752Y1137513I292J-273D01*
G02X-1264546Y1136840I-996J-673D01*
G02X-1266950I-1202J0D01*
G02X-1266624Y1137663I1202J0D01*
G37*
G36*
G01X-1041022Y1137834D02*
G03X-1041008Y1138374I-288J278D01*
G02X-1041302Y1139162I909J788D01*
G02X-1038898I1202J0D01*
G02X-1039234Y1138328I-1203J0D01*
G03X-1039248Y1137788I288J-278D01*
G02X-1038954Y1137000I-909J-788D01*
G02X-1041358I-1202J0D01*
G02X-1041022Y1137834I1203J0D01*
G37*
G36*
G01X-1008867Y1137984D02*
G03Y1138510I-301J263D01*
G02X-1009163Y1139300I906J790D01*
G02X-1006759I1202J0D01*
G02X-1007055Y1138510I-1202J0D01*
G03Y1137984I301J-263D01*
G02X-1006759Y1137194I-906J-790D01*
G02X-1009163I-1202J0D01*
G02X-1008867Y1137984I1202J0D01*
G37*
G36*
G01X-1041293Y1144911D02*
G02X-1040980Y1144102I-889J-809D01*
G02X-1043384I-1202J0D01*
G02X-1043089Y1144891I1203J0D01*
G02X-1043402Y1145700I889J809D01*
G02X-1040998I1202J0D01*
G02X-1041293Y1144911I-1203J0D01*
G37*
G36*
G01X-1088795Y1145133D02*
G03X-1089294Y1145109I-234J-324D01*
G02X-1090088Y1144810I-793J903D01*
G02Y1147214I0J1202D01*
G02X-1089383Y1146985I-1J-1202D01*
G03X-1088884Y1147009I234J324D01*
G02X-1088090Y1147308I793J-903D01*
G02Y1144904I0J-1202D01*
G02X-1088795Y1145133I1J1202D01*
G37*
G36*
G01X-998392Y1148204D02*
G03X-998342Y1148753I-264J301D01*
G02X-998602Y1149500I943J747D01*
G02X-996198I1202J0D01*
G02X-996608Y1148596I-1202J0D01*
G03X-996658Y1148047I264J-301D01*
G02X-996398Y1147300I-943J-747D01*
G02X-998802I-1202J0D01*
G02X-998392Y1148204I1202J0D01*
G37*
G36*
G01X-1138715Y1154801D02*
G03X-1138138Y1154851I265J300D01*
G02X-1137200Y1155302I938J-750D01*
G02X-1136375Y1154974I0J-1202D01*
G03X-1135825I275J291D01*
G02X-1135000Y1155302I825J-874D01*
G02Y1152898I0J-1202D01*
G02X-1135825Y1153226I0J1202D01*
G03X-1136375I-275J-291D01*
G02X-1137200Y1152898I-825J874D01*
G02X-1137995Y1153199I1J1202D01*
G03X-1138572Y1153149I-265J-300D01*
G02X-1139510Y1152698I-938J750D01*
G02Y1155102I0J1202D01*
G02X-1138715Y1154801I-1J-1202D01*
G37*
G36*
G01X-1169150Y1156057D02*
G03X-1168634Y1156299I139J375D01*
G02X-1167500Y1157102I1134J-399D01*
G02Y1154698I0J-1202D01*
G02X-1167918Y1154773I0J1202D01*
G03X-1168434Y1154531I-139J-375D01*
G02X-1169568Y1153728I-1134J399D01*
G02Y1156132I0J1202D01*
G02X-1169150Y1156057I0J-1202D01*
G37*
G36*
G01X-1051039Y1156750D02*
G03Y1157250I-313J250D01*
G02X-1051302Y1158000I938J750D01*
G02X-1048898I1202J0D01*
G02X-1049161Y1157250I-1201J0D01*
G03Y1156750I313J-250D01*
G02X-1048898Y1156000I-938J-750D01*
G02X-1051302I-1202J0D01*
G02X-1051039Y1156750I1201J0D01*
G37*
G36*
G01X-1033656Y1159456D02*
G02X-1033298Y1158600I-844J-856D01*
G02X-1035702I-1202J0D01*
G02X-1035444Y1159344I1202J0D01*
G02X-1035802Y1160200I844J856D01*
G02X-1033398I1202J0D01*
G02X-1033656Y1159456I-1202J0D01*
G37*
G36*
G01X-1186906Y1175031D02*
G03X-1186778Y1175260I-68J188D01*
G02X-1186802Y1175500I1178J239D01*
G02X-1184398I1202J0D01*
G02X-1185194Y1174369I-1201J0D01*
G03X-1185322Y1174140I68J-188D01*
G02X-1185298Y1173900I-1178J-239D01*
G02X-1187702I-1202J0D01*
G02X-1186906Y1175031I1201J0D01*
G37*
G36*
G01X-1196585Y1174598D02*
Y1174570D01*
G02X-1198989I-1202J0D01*
G02X-1197802Y1175772I1202J0D01*
G01Y1175800D01*
G02X-1195398I1202J0D01*
G02X-1196585Y1174598I-1202J0D01*
G37*
G36*
G01X-1030903Y1175800D02*
G02X-1030498Y1174900I-798J-900D01*
G02X-1032902I-1202J0D01*
G02X-1032597Y1175700I1202J0D01*
G02X-1033002Y1176600I798J900D01*
G02X-1030598I1202J0D01*
G02X-1030903Y1175800I-1202J0D01*
G37*
G36*
G01X-1176300Y1174303D02*
G02X-1177100Y1173998I-800J897D01*
G02X-1178302Y1175200I0J1202D01*
G02X-1177950Y1176050I1202J0D01*
G02X-1178302Y1176900I850J850D01*
G02X-1177100Y1178102I1202J0D01*
G02X-1176256Y1177756I0J-1202D01*
G02X-1175483Y1178038I773J-920D01*
G02X-1174281Y1176836I0J-1202D01*
G02X-1174611Y1176009I-1201J0D01*
G02X-1174298Y1175200I-889J-809D01*
G02X-1175500Y1173998I-1202J0D01*
G02X-1176300Y1174303I0J1202D01*
G37*
G36*
G01X-1160783Y1179220D02*
G03Y1179763I-293J272D01*
G02X-1161102Y1180579I884J816D01*
G02X-1158698I1202J0D01*
G02X-1159017Y1179763I-1203J0D01*
G03Y1179220I293J-271D01*
G02X-1158698Y1178404I-884J-816D01*
G02X-1161102I-1202J0D01*
G02X-1160783Y1179220I1203J0D01*
G37*
G36*
G01X-1210365Y1181365D02*
G03X-1210914Y1181390I-288J-278D01*
G02X-1211700Y1181098I-785J910D01*
G02Y1183502I0J1202D01*
G02X-1210835Y1183135I0J-1203D01*
G03X-1210286Y1183110I288J278D01*
G02X-1209500Y1183402I785J-910D01*
G02Y1180998I0J-1202D01*
G02X-1210365Y1181365I0J1203D01*
G37*
G36*
G01X-1064519Y1186826D02*
G03X-1064783Y1186819I-128J-154D01*
G02X-1065600Y1186498I-818J881D01*
G02Y1188902I0J1202D01*
G02X-1064831Y1188624I0J-1203D01*
G03X-1064567Y1188631I128J154D01*
G02X-1063750Y1188952I818J-881D01*
G02Y1186548I0J-1202D01*
G02X-1064519Y1186826I0J1203D01*
G37*
G36*
G01X-1049985Y1187688D02*
G03X-1049661Y1188187I-62J395D01*
G02X-1049702Y1188500I1161J311D01*
G02X-1047298I1202J0D01*
G02X-1048315Y1187312I-1202J0D01*
G03X-1048639Y1186813I62J-395D01*
G02X-1048598Y1186500I-1161J-311D01*
G02X-1051002I-1202J0D01*
G02X-1049985Y1187688I1202J0D01*
G37*
G36*
G01X-1154424Y1188400D02*
G03X-1154000Y1188774I25J399D01*
G02X-1152800Y1189902I1200J-74D01*
G02Y1187498I0J-1202D01*
G02X-1152876Y1187500I-6J1202D01*
G03X-1153300Y1187126I-25J-399D01*
G02X-1154500Y1185998I-1200J74D01*
G02Y1188402I0J1202D01*
G02X-1154424Y1188400I6J-1202D01*
G37*
G36*
G01X-1150727Y1187334D02*
G03X-1150758Y1187858I-317J244D01*
G02X-1151102Y1188700I858J842D01*
G02X-1148698I1202J0D01*
G02X-1148948Y1187966I-1203J0D01*
G03X-1148917Y1187442I317J-244D01*
G02X-1148573Y1186600I-858J-842D01*
G02X-1150977I-1202J0D01*
G02X-1150727Y1187334I1203J0D01*
G37*
G36*
G01X-1213942Y1195226D02*
G02X-1213271Y1195431I671J-996D01*
G02Y1193027I0J-1202D01*
G02X-1214229Y1193503I0J1202D01*
G02X-1214900Y1193298I-671J996D01*
G02Y1195702I0J1202D01*
G02X-1213942Y1195226I0J-1202D01*
G37*
G36*
G01X-1184100Y1195577D02*
G02X-1183400Y1195802I700J-976D01*
G02Y1193398I0J-1202D01*
G02X-1184100Y1193623I0J1201D01*
G02X-1184800Y1193398I-700J976D01*
G02Y1195802I0J1202D01*
G02X-1184100Y1195577I0J-1201D01*
G37*
G36*
G01X-1237085Y1195161D02*
G03X-1237585I-250J-313D01*
G02X-1238335Y1194898I-750J938D01*
G02Y1197302I0J1202D01*
G02X-1237585Y1197039I0J-1201D01*
G03X-1237085I250J313D01*
G02X-1236335Y1197302I750J-938D01*
G02Y1194898I0J-1202D01*
G02X-1237085Y1195161I0J1201D01*
G37*
G36*
G01X-1128959Y1196796D02*
G03X-1129520Y1196909I-336J-217D01*
G02X-1130200Y1196698I-680J990D01*
G02Y1199102I0J1202D01*
G02X-1129191Y1198554I0J-1203D01*
G03X-1128630Y1198441I336J217D01*
G02X-1127950Y1198652I680J-990D01*
G02Y1196248I0J-1202D01*
G02X-1128959Y1196796I0J1203D01*
G37*
G36*
G01X-1180568Y1198831D02*
G03X-1180544Y1199355I-290J276D01*
G02X-1180802Y1200100I944J744D01*
G02X-1178398I1202J0D01*
G02X-1178732Y1199269I-1201J0D01*
G03X-1178756Y1198745I290J-276D01*
G02X-1178498Y1198000I-944J-744D01*
G02X-1180902I-1202J0D01*
G02X-1180568Y1198831I1201J0D01*
G37*
G36*
G01X-1023412Y1204456D02*
G03X-1023637Y1204980I-370J151D01*
G02X-1024402Y1206100I437J1120D01*
G02X-1021998I1202J0D01*
G02X-1022088Y1205644I-1202J0D01*
G03X-1021863Y1205120I370J-151D01*
G02X-1021098Y1204000I-437J-1120D01*
G02X-1023502I-1202J0D01*
G02X-1023412Y1204456I1202J0D01*
G37*
G36*
G01X-1061357Y1205394D02*
G03X-1061857Y1205344I-219J-335D01*
G02X-1062700Y1204998I-844J856D01*
G02Y1207402I0J1202D01*
G02X-1062043Y1207206I-1J-1202D01*
G03X-1061543Y1207256I219J335D01*
G02X-1060700Y1207602I844J-856D01*
G02Y1205198I0J-1202D01*
G02X-1061357Y1205394I1J1202D01*
G37*
G36*
G01X-1262746Y1206853D02*
G03X-1263288I-271J-295D01*
G02X-1264101Y1206536I-813J884D01*
G02Y1208940I0J1202D01*
G02X-1263288Y1208623I0J-1201D01*
G03X-1262746I271J295D01*
G02X-1261933Y1208940I813J-884D01*
G02Y1206536I0J-1202D01*
G02X-1262746Y1206853I0J1201D01*
G37*
G36*
G01X-1162750Y1209361D02*
G03X-1163250I-250J-313D01*
G02X-1164000Y1209098I-750J938D01*
G02Y1211502I0J1202D01*
G02X-1163250Y1211239I0J-1201D01*
G03X-1162750I250J313D01*
G02X-1162000Y1211502I750J-938D01*
G02Y1209098I0J-1202D01*
G02X-1162750Y1209361I0J1201D01*
G37*
G36*
G01X-1269650Y1209661D02*
G03X-1270150I-250J-313D01*
G02X-1270900Y1209398I-750J938D01*
G02Y1211802I0J1202D01*
G02X-1270150Y1211539I0J-1201D01*
G03X-1269650I250J313D01*
G02X-1268900Y1211802I750J-938D01*
G02Y1209398I0J-1202D01*
G02X-1269650Y1209661I0J1201D01*
G37*
G36*
G01X-1078679Y1217228D02*
G03X-1078870Y1217794I-348J198D01*
G02X-1079602Y1218900I470J1106D01*
G02X-1077198I1202J0D01*
G02X-1077355Y1218306I-1202J0D01*
G03X-1077164Y1217740I348J-198D01*
G02X-1076432Y1216634I-470J-1106D01*
G02X-1078836I-1202J0D01*
G02X-1078679Y1217228I1202J0D01*
G37*
G36*
G01X-1282729Y1219895D02*
G03X-1282733Y1220142I-159J121D01*
G02X-1283002Y1220900I933J758D01*
G02X-1280598I1202J0D01*
G02X-1280841Y1220175I-1203J0D01*
G03X-1280837Y1219928I159J-121D01*
G02X-1280568Y1219170I-933J-758D01*
G02X-1282972I-1202J0D01*
G02X-1282729Y1219895I1203J0D01*
G37*
G36*
G01X-1230901Y965641D02*
G02X-1230902Y965700I1201J50D01*
G02X-1229700Y964498I1202J0D01*
G02X-1230075Y964558I0J1202D01*
G03X-1230599Y964159I-125J-380D01*
G02X-1230598Y964100I-1201J-50D01*
G02X-1231800Y965302I-1202J0D01*
G02X-1231425Y965242I0J-1202D01*
G03X-1230901Y965641I125J380D01*
G37*
G36*
G01X-1253629Y964986D02*
G02X-1254022Y964920I-393J1137D01*
G02Y967324I0J1202D01*
G02X-1252938Y966641I0J-1202D01*
G03X-1252446Y966436I361J173D01*
G02X-1252053Y966502I393J-1137D01*
G02X-1250851Y965300I0J-1202D01*
G02X-1250857Y965182I-1202J2D01*
G03X-1250365Y964754I398J-39D01*
G02X-1250085Y964787I280J-1169D01*
G02X-1251287Y963585I0J-1202D01*
G02X-1251281Y963703I1202J-2D01*
G03X-1251773Y964131I-398J39D01*
G02X-1252053Y964098I-280J1169D01*
G02X-1253137Y964781I0J1202D01*
G03X-1253629Y964986I-361J-173D01*
G37*
G36*
G01X-1264155Y980459D02*
G02X-1264168Y980634I1189J176D01*
G02X-1262966Y979432I1202J0D01*
G02X-1263003Y979433I14J1202D01*
G03X-1263411Y978975I-12J-400D01*
G02X-1263398Y978800I-1189J-176D01*
G02X-1263491Y978337I-1202J1D01*
G03X-1263066Y977786I369J-155D01*
G02X-1262900Y977798I169J-1190D01*
G02X-1264102Y976596I0J-1202D01*
G02X-1264009Y977059I1202J-1D01*
G03X-1264434Y977610I-369J155D01*
G02X-1264516Y977601I-172J1189D01*
G03X-1264701Y977416I14J-199D01*
G02X-1265900Y976298I-1199J84D01*
G02X-1267043Y977129I0J1202D01*
G03X-1267278Y977262I-190J-62D01*
G02X-1267547Y977232I-267J1172D01*
G02Y979636I0J1202D01*
G02X-1266404Y978805I0J-1202D01*
G03X-1266169Y978672I190J62D01*
G02X-1265984Y978699I266J-1172D01*
G03X-1265799Y978884I-14J199D01*
G02X-1264600Y980002I1199J-84D01*
G02X-1264563Y980001I-14J-1202D01*
G03X-1264155Y980459I12J400D01*
G37*
G36*
G01X-1247113Y988537D02*
G02X-1248116Y987998I-1003J664D01*
G02Y990402I0J1202D01*
G02X-1247306Y990088I0J-1202D01*
G03X-1246703Y990163I269J296D01*
G02X-1245700Y990702I1003J-664D01*
G02Y988298I0J-1202D01*
G02X-1246510Y988612I0J1202D01*
G03X-1247113Y988537I-269J-296D01*
G37*
G36*
G01X-1207301Y1017055D02*
G02X-1206100Y1018202I1201J-55D01*
G02Y1015798I0J-1202D01*
G02X-1206325Y1015819I-1J1202D01*
G03X-1206799Y1015445I-75J-393D01*
G02X-1208000Y1014298I-1201J55D01*
G02Y1016702I0J1202D01*
G02X-1207775Y1016681I1J-1202D01*
G03X-1207301Y1017055I75J393D01*
G37*
G36*
G01X-1109063Y1019992D02*
G02X-1110100Y1019398I-1037J608D01*
G02Y1021802I0J1202D01*
G02X-1109111Y1021283I0J-1202D01*
G03X-1108437Y1021308I329J227D01*
G02X-1107400Y1021902I1037J-608D01*
G02Y1019498I0J-1202D01*
G02X-1108389Y1020017I0J1202D01*
G03X-1109063Y1019992I-329J-227D01*
G37*
G36*
G01X-1153800Y1030524D02*
G02X-1153832Y1030799I1170J276D01*
G02X-1152630Y1029597I1202J0D01*
G01X-1152638D01*
G03X-1153030Y1029105I-3J-400D01*
G02X-1152998Y1028830I-1170J-276D01*
G02X-1154200Y1030032I-1202J0D01*
G01X-1154192D01*
G03X-1153800Y1030524I3J400D01*
G37*
G36*
G01X-1106969Y1033563D02*
G02X-1107802Y1034707I369J1144D01*
G02X-1106600Y1035909I1202J0D01*
G02X-1105513Y1035219I0J-1201D01*
G03X-1104913Y1035067I362J170D01*
G02X-1104200Y1035302I714J-967D01*
G02X-1102998Y1034100I0J-1202D01*
G02X-1104126Y1032900I-1202J0D01*
G03X-1104501Y1032473I24J-399D01*
G02X-1104498Y1032390I-1199J-85D01*
G02X-1105700Y1031188I-1202J0D01*
G02X-1105776Y1031190I-6J1202D01*
G03X-1106201Y1030818I-26J-399D01*
G02X-1107400Y1029698I-1199J82D01*
G02Y1032102I0J1202D01*
G02X-1107324Y1032100I6J-1202D01*
G03X-1106899Y1032472I26J399D01*
G02X-1106745Y1032985I1199J-80D01*
G03X-1106969Y1033563I-347J198D01*
G37*
G36*
G01X-1157186Y1033539D02*
G02X-1157300Y1033534I-110J1197D01*
G02X-1156098Y1034736I0J1202D01*
G02X-1156131Y1034455I-1202J-1D01*
G03X-1155704Y1033964I389J-93D01*
G02X-1155590Y1033969I110J-1197D01*
G02X-1156792Y1032767I0J-1202D01*
G02X-1156759Y1033048I1202J1D01*
G03X-1157186Y1033539I-389J93D01*
G37*
G36*
G01X-1004807Y1039601D02*
G02X-1005651Y1040749I359J1148D01*
G02X-1003247I1202J0D01*
G02X-1003454Y1040074I-1202J-1D01*
G03X-1003242Y1039468I331J-224D01*
G02X-1002398Y1038320I-359J-1148D01*
G02X-1004802I-1202J0D01*
G02X-1004595Y1038995I1202J1D01*
G03X-1004807Y1039601I-331J224D01*
G37*
G36*
G01X-1178368Y1041369D02*
G02X-1178702Y1042200I867J831D01*
G02X-1176298I1202J0D01*
G02X-1176556Y1041455I-1202J-1D01*
G03X-1176532Y1040931I314J-248D01*
G02X-1176198Y1040100I-867J-831D01*
G02X-1176495Y1039309I-1202J0D01*
G03X-1176445Y1038735I302J-263D01*
G02X-1175998Y1037800I-754J-935D01*
G02X-1177200Y1036598I-1202J0D01*
G02X-1177425Y1036619I-1J1202D01*
G03X-1177899Y1036245I-75J-393D01*
G02X-1179100Y1035098I-1201J55D01*
G02Y1037502I0J1202D01*
G02X-1178875Y1037481I1J-1202D01*
G03X-1178401Y1037855I75J393D01*
G02X-1178105Y1038591I1201J-55D01*
G03X-1178155Y1039165I-302J263D01*
G02X-1178602Y1040100I754J935D01*
G02X-1178344Y1040845I1202J1D01*
G03X-1178368Y1041369I-314J248D01*
G37*
G36*
G01X-1106419Y1041863D02*
G02X-1106467Y1042200I1154J336D01*
G02X-1104063I1202J0D01*
G02X-1105225Y1040999I-1202J0D01*
G03X-1105596Y1040487I13J-400D01*
G02X-1105548Y1040150I-1154J-336D01*
G02X-1107952I-1202J0D01*
G02X-1106790Y1041351I1202J0D01*
G03X-1106419Y1041863I-13J400D01*
G37*
G36*
G01X-1103189Y1045615D02*
G02X-1103702Y1046600I689J985D01*
G02X-1102500Y1047802I1202J0D01*
G02X-1101326Y1046856I0J-1201D01*
G03X-1100826Y1046557I391J86D01*
G02X-1100500Y1046602I326J-1158D01*
G02Y1044198I0J-1202D01*
G02X-1100778Y1044231I2J1202D01*
G03X-1101269Y1043881I-93J-389D01*
G02X-1102465Y1042798I-1196J119D01*
G02X-1103667Y1044000I0J1202D01*
G02X-1103180Y1044966I1202J0D01*
G03X-1103189Y1045615I-238J321D01*
G37*
G36*
G01X-1147192Y1049454D02*
G02X-1147802Y1050500I592J1046D01*
G02X-1145398I1202J0D01*
G02X-1145483Y1050057I-1202J1D01*
G03X-1145308Y1049561I372J-148D01*
G02X-1144698Y1048515I-592J-1046D01*
G02X-1144731Y1048235I-1202J0D01*
G03X-1144382Y1047743I389J-94D01*
G02X-1143508Y1047226I-118J-1196D01*
G03X-1143009Y1047089I330J226D01*
G02X-1142500Y1047202I509J-1090D01*
G02X-1142259Y1047178I2J-1202D01*
G03X-1141785Y1047502I80J392D01*
G02X-1140600Y1048502I1185J-202D01*
G02Y1046098I0J-1202D01*
G02X-1140841Y1046122I-2J1202D01*
G03X-1141315Y1045798I-80J-392D01*
G02X-1142500Y1044798I-1185J202D01*
G02X-1143492Y1045321I0J1202D01*
G03X-1143991Y1045458I-330J-226D01*
G02X-1144077Y1045422I-507J1090D01*
G03X-1144176Y1045130I71J-187D01*
G02X-1143998Y1044500I-1024J-630D01*
G02X-1144061Y1044115I-1202J-1D01*
G03X-1143886Y1043644I379J-127D01*
G02X-1143298Y1042610I-615J-1034D01*
G02X-1145702I-1202J0D01*
G02X-1145639Y1042995I1202J1D01*
G03X-1145814Y1043466I-379J127D01*
G02X-1146402Y1044500I615J1034D01*
G02X-1145776Y1045555I1202J0D01*
G03X-1145602Y1046066I-192J351D01*
G02X-1145702Y1046547I1102J480D01*
G02X-1145669Y1046827I1202J0D01*
G03X-1146018Y1047319I-389J94D01*
G02X-1147102Y1048515I118J1196D01*
G02X-1147017Y1048958I1202J-1D01*
G03X-1147192Y1049454I-372J148D01*
G37*
G36*
G01X-1119530Y1050863D02*
Y1050872D01*
G02X-1117126I1202J0D01*
G02X-1117255Y1050330I-1203J0D01*
G03X-1117148Y1049838I357J-180D01*
G02X-1116698Y1048900I-753J-938D01*
G02X-1116737Y1048596I-1202J0D01*
G03X-1116388Y1048097I387J-101D01*
G02X-1115298Y1046900I-112J-1197D01*
G02X-1117702I-1202J0D01*
G02X-1117663Y1047204I1202J0D01*
G03X-1118012Y1047703I-387J101D01*
G02X-1118928Y1048277I112J1197D01*
G03X-1119526Y1048377I-342J-207D01*
G02X-1120296Y1048098I-770J923D01*
G02X-1121498Y1049300I0J1202D01*
G01Y1049309D01*
G03X-1121990Y1049702I-400J4D01*
G02X-1122265Y1049670I-276J1170D01*
G02X-1122540Y1049702I1J1202D01*
G03X-1123031Y1049309I-91J-390D01*
G01Y1049300D01*
G02X-1125435I-1202J0D01*
G01Y1049309D01*
G03X-1125927Y1049702I-400J4D01*
G02X-1126202Y1049670I-276J1170D01*
G02X-1126477Y1049702I1J1202D01*
G03X-1126968Y1049309I-91J-390D01*
G01Y1049300D01*
G02X-1129372I-1202J0D01*
G01Y1049309D01*
G03X-1129864Y1049702I-400J4D01*
G02X-1130139Y1049670I-276J1170D01*
G02X-1130433Y1049707I2J1202D01*
G03X-1130931Y1049314I-98J-388D01*
G01Y1049300D01*
G02X-1133335I-1202J0D01*
G01Y1049305D01*
G03X-1133820Y1049698I-400J2D01*
G02X-1133832Y1049695I-297J1164D01*
G03X-1134063Y1049053I81J-392D01*
G02X-1133798Y1048300I-937J-753D01*
G02X-1135000Y1047098I-1202J0D01*
G02X-1135863Y1047463I0J1203D01*
G03X-1136437I-287J-278D01*
G02X-1137300Y1047098I-863J838D01*
G02X-1138502Y1048300I0J1202D01*
G02X-1138208Y1049087I1202J-1D01*
G03X-1138386Y1049729I-302J262D01*
G02X-1139215Y1050872I373J1143D01*
G02X-1136811I1202J0D01*
G02X-1137105Y1050085I-1202J1D01*
G03X-1136927Y1049443I302J-262D01*
G02X-1136437Y1049137I-373J-1143D01*
G03X-1135863I287J278D01*
G02X-1135244Y1049477I863J-837D01*
G03X-1135013Y1050119I-81J392D01*
G02X-1135278Y1050872I937J753D01*
G02X-1132874I1202J0D01*
G01Y1050867D01*
G03X-1132389Y1050474I400J-2D01*
G02X-1132133Y1050502I258J-1174D01*
G02X-1131839Y1050465I-2J-1202D01*
G03X-1131341Y1050858I98J388D01*
G01Y1050872D01*
G02X-1128937I1202J0D01*
G01Y1050863D01*
G03X-1128445Y1050470I400J-4D01*
G02X-1128170Y1050502I276J-1170D01*
G02X-1127895Y1050470I-1J-1202D01*
G03X-1127404Y1050863I91J390D01*
G01Y1050872D01*
G02X-1125000I1202J0D01*
G01Y1050863D01*
G03X-1124508Y1050470I400J-4D01*
G02X-1124233Y1050502I276J-1170D01*
G02X-1123958Y1050470I-1J-1202D01*
G03X-1123467Y1050863I91J390D01*
G01Y1050872D01*
G02X-1121063I1202J0D01*
G01Y1050863D01*
G03X-1120571Y1050470I400J-4D01*
G02X-1120296Y1050502I276J-1170D01*
G02X-1120021Y1050470I-1J-1202D01*
G03X-1119530Y1050863I91J390D01*
G37*
G36*
G01X-1096701Y1051859D02*
G02X-1095500Y1053022I1201J-39D01*
G02Y1050618I0J-1202D01*
G02X-1096024Y1050738I0J1202D01*
G03X-1096599Y1050391I-175J-360D01*
G02X-1097800Y1049228I-1201J39D01*
G02Y1051632I0J1202D01*
G02X-1097276Y1051512I0J-1202D01*
G03X-1096701Y1051859I175J360D01*
G37*
G36*
G01X-1057292Y1056943D02*
G02X-1057302Y1057100I1192J155D01*
G02X-1054898I1202J0D01*
G02X-1055959Y1055906I-1202J0D01*
G03X-1056308Y1055457I47J-397D01*
G02X-1056298Y1055300I-1192J-155D01*
G02X-1056459Y1054699I-1202J0D01*
G03X-1056134Y1054100I347J-200D01*
G02X-1054998Y1052900I-66J-1200D01*
G02X-1057402I-1202J0D01*
G02X-1057241Y1053501I1202J0D01*
G03X-1057566Y1054100I-347J200D01*
G02X-1058702Y1055300I66J1200D01*
G02X-1057641Y1056494I1202J0D01*
G03X-1057292Y1056943I-47J397D01*
G37*
G36*
G01X-1072843Y1057026D02*
G02X-1073100Y1056998I-258J1174D01*
G02Y1059402I0J1202D01*
G02X-1072006Y1058699I0J-1203D01*
G03X-1071557Y1058474I364J166D01*
G02X-1071300Y1058502I258J-1174D01*
G02X-1070098Y1057300I0J-1202D01*
G02X-1070774Y1056219I-1202J0D01*
G03X-1070899Y1055595I175J-360D01*
G02X-1070598Y1054800I-901J-796D01*
G02X-1073002I-1202J0D01*
G02X-1072326Y1055881I1202J0D01*
G03X-1072201Y1056505I-175J360D01*
G02X-1072394Y1056801I899J797D01*
G03X-1072843Y1057026I-364J-166D01*
G37*
G36*
G01X-1228399Y1060484D02*
G02X-1227200Y1061602I1199J-84D01*
G02Y1059198I0J-1202D01*
G02X-1227566Y1059255I0J1202D01*
G03X-1228087Y1058902I-122J-381D01*
G02X-1229286Y1057784I-1199J84D01*
G02Y1060188I0J1202D01*
G02X-1228920Y1060131I0J-1202D01*
G03X-1228399Y1060484I122J381D01*
G37*
G36*
G01X-1192049Y1065350D02*
G02X-1192402Y1066201I849J851D01*
G02X-1189998I1202J0D01*
G02X-1190351Y1065350I-1202J0D01*
G02X-1190126Y1065039I-849J-851D01*
G03X-1189883Y1064939I179J90D01*
G02X-1189500Y1065002I384J-1139D01*
G02X-1188298Y1063800I0J-1202D01*
G02X-1188322Y1063560I-1202J-1D01*
G03X-1188194Y1063331I196J-41D01*
G02X-1187398Y1062200I-405J-1131D01*
G02X-1188600Y1060998I-1202J0D01*
G02X-1189414Y1061316I0J1201D01*
G03X-1189686I-136J-147D01*
G02X-1190500Y1060998I-814J883D01*
G02X-1190939Y1061081I0J1202D01*
G03X-1191482Y1060657I-147J-372D01*
G02X-1191472Y1060500I-1192J-155D01*
G02X-1192674Y1061702I-1202J0D01*
G02X-1192235Y1061619I0J-1202D01*
G03X-1191692Y1062043I147J372D01*
G02X-1191702Y1062200I1192J155D01*
G02X-1191523Y1062832I1202J1D01*
G03X-1191697Y1063406I-340J210D01*
G02X-1192402Y1064500I496J1094D01*
G02X-1192049Y1065350I1202J-1D01*
G37*
G36*
G01X-1168745Y1070924D02*
G02X-1169800Y1070298I-1055J576D01*
G02Y1072702I0J1202D01*
G02X-1168904Y1072301I0J-1202D01*
G03X-1168255Y1072376I298J267D01*
G02X-1167200Y1073002I1055J-576D01*
G02Y1070598I0J-1202D01*
G02X-1168096Y1070999I0J1202D01*
G03X-1168745Y1070924I-298J-267D01*
G37*
G36*
G01X-1061120Y1076670D02*
G02X-1061702Y1077700I620J1030D01*
G02X-1059298I1202J0D01*
G02X-1059955Y1076629I-1201J0D01*
G03X-1059980Y1075930I182J-356D01*
G02X-1059398Y1074900I-620J-1030D01*
G02X-1061802I-1202J0D01*
G02X-1061145Y1075971I1201J0D01*
G03X-1061120Y1076670I-182J356D01*
G37*
G36*
G01X-1061036Y1080442D02*
G02X-1061600Y1080302I-563J1062D01*
G02Y1082706I0J1202D01*
G02X-1060438Y1081812I0J-1202D01*
G03X-1059864Y1081562I386J103D01*
G02X-1059300Y1081702I563J-1062D01*
G02Y1079298I0J-1202D01*
G02X-1060462Y1080192I0J1202D01*
G03X-1061036Y1080442I-386J-103D01*
G37*
G36*
G01X-1193290Y1082398D02*
X-1193300D01*
G02X-1192098Y1083600I0J1202D01*
G02X-1192185Y1083151I-1202J0D01*
G03X-1191810Y1082602I371J-149D01*
G01X-1191800D01*
G02X-1190598Y1081400I0J-1202D01*
G02X-1190860Y1080650I-1202J-1D01*
G03X-1190617Y1080007I313J-249D01*
G02X-1189622Y1078823I-207J-1184D01*
G02X-1192026I-1202J0D01*
G02X-1191764Y1079573I1202J1D01*
G03X-1192007Y1080216I-313J249D01*
G02X-1193002Y1081400I207J1184D01*
G02X-1192915Y1081849I1202J0D01*
G03X-1193290Y1082398I-371J149D01*
G37*
G36*
G01X-1290648Y1094230D02*
G02X-1291302Y1095300I548J1070D01*
G02X-1288898I1202J0D01*
G02X-1289402Y1094321I-1203J0D01*
G03X-1289352Y1093640I232J-325D01*
G02X-1288698Y1092570I-548J-1070D01*
G02X-1291102I-1202J0D01*
G02X-1290598Y1093549I1203J0D01*
G03X-1290648Y1094230I-232J325D01*
G37*
G36*
G01X-1208953Y1096534D02*
G02X-1209800Y1096068I-847J537D01*
G02Y1098072I0J1002D01*
G02X-1209020Y1097699I0J-1002D01*
G03X-1208371Y1097736I311J251D01*
G02X-1207524Y1098202I847J-537D01*
G02Y1096198I0J-1002D01*
G02X-1208304Y1096571I0J1002D01*
G03X-1208953Y1096534I-311J-251D01*
G37*
G36*
G01X-1262437Y1097206D02*
G02X-1262462Y1097451I1177J244D01*
G02X-1261260Y1096249I1202J0D01*
G02X-1261505Y1096274I-1J1202D01*
G03X-1261978Y1095801I-82J-391D01*
G02X-1261976Y1095791I-1178J-241D01*
G03X-1261503Y1095478I392J79D01*
G02X-1261260Y1095503I244J-1177D01*
G02Y1093099I0J-1202D01*
G02X-1262439Y1094066I0J1202D01*
G03X-1262912Y1094379I-392J-79D01*
G02X-1263155Y1094354I-244J1177D01*
G02Y1096758I0J1202D01*
G02X-1262910Y1096733I1J-1202D01*
G03X-1262437Y1097206I82J391D01*
G37*
G36*
G01X-1181114Y1106075D02*
G02X-1181880Y1105719I-766J646D01*
G02Y1107723I0J1002D01*
G02X-1181173Y1107432I1J-1002D01*
G03X-1180586Y1107457I282J283D01*
G02X-1179820Y1107813I766J-646D01*
G02Y1105809I0J-1002D01*
G02X-1180527Y1106100I-1J1002D01*
G03X-1181114Y1106075I-282J-283D01*
G37*
G36*
G01X-1110093Y1110608D02*
G02X-1111282Y1111810I13J1202D01*
G02X-1108878I1202J0D01*
G02X-1109024Y1111236I-1201J0D01*
G03X-1108677Y1110645I351J-191D01*
G02X-1107488Y1109443I-13J-1202D01*
G02X-1109892I-1202J0D01*
G02X-1109746Y1110017I1201J0D01*
G03X-1110093Y1110608I-351J191D01*
G37*
G36*
G01X-1184900Y1112502D02*
G02X-1184904Y1112593I998J89D01*
G02X-1183902Y1111591I1002J0D01*
G02X-1184182Y1111631I0J1002D01*
G03X-1184692Y1111211I-112J-384D01*
G02X-1184688Y1111120I-998J-89D01*
G02X-1185690Y1112122I-1002J0D01*
G02X-1185410Y1112082I0J-1002D01*
G03X-1184900Y1112502I112J384D01*
G37*
G36*
G01X-1194631Y1112104D02*
G02X-1194912Y1112800I721J696D01*
G02X-1193910Y1113802I1002J0D01*
G02X-1193169Y1113474I0J-1001D01*
G03X-1192541Y1113520I296J269D01*
G02X-1191710Y1113963I831J-558D01*
G02X-1190708Y1112961I0J-1002D01*
G02X-1191075Y1112186I-1002J0D01*
G03X-1191047Y1111546I253J-310D01*
G02X-1190608Y1110717I-563J-829D01*
G02X-1190627Y1110521I-1002J-2D01*
G03X-1190156Y1110050I392J-79D01*
G02X-1189958Y1110070I199J-982D01*
G02X-1189147Y1109657I0J-1003D01*
G03X-1188500I323J235D01*
G02X-1187689Y1110070I811J-590D01*
G02Y1108066I0J-1002D01*
G02X-1188500Y1108479I0J1003D01*
G03X-1189147I-324J-235D01*
G02X-1189337Y1108282I-809J591D01*
G03Y1107654I248J-314D01*
G02X-1188956Y1106868I-620J-786D01*
G02X-1190960I-1002J0D01*
G02X-1190579Y1107654I1001J0D01*
G03Y1108282I-248J314D01*
G02X-1190960Y1109068I620J786D01*
G02X-1190941Y1109264I1002J2D01*
G03X-1191412Y1109735I-392J79D01*
G02X-1191610Y1109715I-199J982D01*
G02X-1192612Y1110717I0J1002D01*
G02X-1192245Y1111492I1002J0D01*
G03X-1192273Y1112132I-253J310D01*
G02X-1192451Y1112287I564J828D01*
G03X-1193079Y1112241I-296J-269D01*
G02X-1193268Y1112031I-832J558D01*
G03X-1193299Y1111446I257J-307D01*
G02X-1193018Y1110750I-721J-696D01*
G02X-1195022I-1002J0D01*
G02X-1194662Y1111519I1001J0D01*
G03X-1194631Y1112104I-257J307D01*
G37*
G36*
G01X-1205681Y1112335D02*
G02X-1206002Y1113070I681J735D01*
G02X-1203998I1002J0D01*
G02X-1204517Y1112192I-1002J0D01*
G03X-1204595Y1111548I193J-350D01*
G02X-1204274Y1110813I-681J-735D01*
G02X-1206278I-1002J0D01*
G02X-1205759Y1111691I1002J0D01*
G03X-1205681Y1112335I-193J350D01*
G37*
G36*
G01X-1218611Y1114125D02*
G02X-1219397Y1113744I-786J620D01*
G02Y1115748I0J1002D01*
G02X-1218611Y1115367I0J-1001D01*
G03X-1217983I314J248D01*
G02X-1217197Y1115748I786J-620D01*
G02Y1113744I0J-1002D01*
G02X-1217983Y1114125I0J1001D01*
G03X-1218611I-314J-248D01*
G37*
G36*
G01X-1162341Y1114299D02*
G02X-1162400Y1114298I-50J1201D01*
G02X-1161198Y1115500I0J1202D01*
G02X-1161258Y1115125I-1202J0D01*
G03X-1160859Y1114601I380J-125D01*
G02X-1160800Y1114602I50J-1201D01*
G02X-1162002Y1113400I0J-1202D01*
G02X-1161942Y1113775I1202J0D01*
G03X-1162341Y1114299I-380J125D01*
G37*
G36*
G01X-1182720Y1116212D02*
G02X-1182936Y1116834I786J622D01*
G02X-1181934Y1117836I1002J0D01*
G02X-1181161Y1117472I0J-1003D01*
G03X-1180552Y1117462I309J254D01*
G02X-1179800Y1117802I752J-662D01*
G02X-1178798Y1116800I0J-1002D01*
G02X-1179137Y1116049I-1001J0D01*
G03X-1179118Y1115433I264J-300D01*
G02X-1178730Y1114641I-614J-792D01*
G02X-1180734I-1002J0D01*
G02X-1180395Y1115392I1001J0D01*
G03X-1180414Y1116008I-264J300D01*
G02X-1180573Y1116162I613J792D01*
G03X-1181182Y1116172I-309J-254D01*
G02X-1181326Y1116037I-754J660D01*
G03X-1181397Y1115471I242J-318D01*
G02X-1181181Y1114849I-786J-622D01*
G02X-1183185I-1002J0D01*
G02X-1182791Y1115646I1003J0D01*
G03X-1182720Y1116212I-242J318D01*
G37*
G36*
G01X-1233246Y1116969D02*
G02X-1234202Y1117970I46J1001D01*
G02X-1232198I1002J0D01*
G02X-1232225Y1117739I-1002J0D01*
G03X-1231854Y1117247I389J-92D01*
G02X-1230898Y1116246I-46J-1001D01*
G02X-1232902I-1002J0D01*
G02X-1232875Y1116477I1002J0D01*
G03X-1233246Y1116969I-389J92D01*
G37*
G36*
G01X-1192927Y1118362D02*
G02X-1193700Y1117998I-773J639D01*
G02Y1120002I0J1002D01*
G02X-1192972Y1119688I0J-1001D01*
G03X-1192373Y1119708I291J275D01*
G02X-1191600Y1120072I773J-639D01*
G02Y1118068I0J-1002D01*
G02X-1192328Y1118382I0J1001D01*
G03X-1192927Y1118362I-291J-275D01*
G37*
G36*
G01X-1209174Y1119020D02*
G02X-1209492Y1118968I-319J950D01*
G02Y1120972I0J1002D01*
G02X-1208524Y1120227I0J-1001D01*
G03X-1208010Y1119950I387J102D01*
G02X-1207692Y1120002I319J-950D01*
G02X-1206740Y1119312I0J-1002D01*
G03X-1206172Y1119084I380J125D01*
G02X-1205700Y1119202I472J-885D01*
G02Y1117198I0J-1002D01*
G02X-1206652Y1117888I0J1002D01*
G03X-1207220Y1118116I-380J-125D01*
G02X-1207692Y1117998I-472J885D01*
G02X-1208660Y1118743I0J1001D01*
G03X-1209174Y1119020I-387J-102D01*
G37*
G36*
G01X-1227703Y1119763D02*
G02X-1228500Y1119368I-797J607D01*
G02Y1121372I0J1002D01*
G02X-1227653Y1120906I0J-1003D01*
G03X-1226997Y1120877I338J214D01*
G02X-1226200Y1121272I797J-607D01*
G02Y1119268I0J-1002D01*
G02X-1227047Y1119734I0J1003D01*
G03X-1227703Y1119763I-338J-214D01*
G37*
G36*
G01X-1206839Y1122017D02*
G02X-1207588Y1121681I-749J667D01*
G02Y1123685I0J1002D01*
G02X-1206839Y1123349I0J-1003D01*
G03X-1206241I299J265D01*
G02X-1205492Y1123685I749J-667D01*
G02Y1121681I0J-1002D01*
G02X-1206241Y1122017I0J1003D01*
G03X-1206839I-299J-265D01*
G37*
G36*
G01X-1267590Y1121945D02*
G02X-1268175Y1122976I616J1031D01*
G02X-1265771I1202J0D01*
G02X-1266348Y1121949I-1202J0D01*
G03X-1266346Y1121264I208J-342D01*
G02X-1265761Y1120233I-616J-1031D01*
G02X-1268165I-1202J0D01*
G02X-1267588Y1121260I1202J0D01*
G03X-1267590Y1121945I-208J342D01*
G37*
G36*
G01X-1274381Y1123296D02*
G02X-1274575Y1123950I1008J655D01*
G02X-1272171I1202J0D01*
G02X-1272910Y1122841I-1202J0D01*
G03X-1273092Y1122254I154J-369D01*
G02X-1272898Y1121600I-1008J-655D01*
G02X-1275302I-1202J0D01*
G02X-1274563Y1122709I1202J0D01*
G03X-1274381Y1123296I-154J369D01*
G37*
G36*
G01X-1220107Y1123900D02*
G02X-1220486Y1124685I623J785D01*
G02X-1218482I1002J0D01*
G02X-1218799Y1123953I-1002J-1D01*
G03X-1218774Y1123348I273J-292D01*
G02X-1218646Y1123226I-625J-783D01*
G03X-1218019Y1123260I300J265D01*
G02X-1217200Y1123685I819J-577D01*
G02Y1121681I0J-1002D01*
G02X-1217951Y1122020I0J1001D01*
G03X-1218578Y1121986I-300J-265D01*
G02X-1219397Y1121561I-819J577D01*
G02X-1220399Y1122563I0J1002D01*
G02X-1220082Y1123295I1002J1D01*
G03X-1220107Y1123900I-273J292D01*
G37*
G36*
G01X-1197133Y1124070D02*
G02X-1197840Y1123779I-706J711D01*
G02Y1125783I0J1002D01*
G02X-1196970Y1125278I0J-1002D01*
G03X-1196341Y1125193I347J198D01*
G02X-1195634Y1125484I706J-711D01*
G02Y1123480I0J-1002D01*
G02X-1196504Y1123985I0J1002D01*
G03X-1197133Y1124070I-347J-198D01*
G37*
G36*
G01X-1262126Y1124066D02*
G02X-1262680Y1125078I647J1012D01*
G02X-1260276I1202J0D01*
G02X-1260926Y1124010I-1202J0D01*
G03X-1260958Y1123318I184J-355D01*
G02X-1260404Y1122306I-647J-1012D01*
G02X-1262808I-1202J0D01*
G02X-1262158Y1123374I1202J0D01*
G03X-1262126Y1124066I-184J355D01*
G37*
G36*
G01X-1187373Y1125757D02*
G02X-1187679Y1125709I-306J954D01*
G02X-1186677Y1126711I0J1002D01*
G02X-1186693Y1126535I-1002J2D01*
G03X-1186176Y1126084I394J-70D01*
G02X-1185870Y1126132I306J-954D01*
G02X-1185465Y1126047I1J-1002D01*
G03X-1184904Y1126408I161J366D01*
G02X-1183902Y1127400I1002J-10D01*
G02X-1183200Y1127113I0J-1002D01*
G03X-1182622Y1127131I280J285D01*
G02X-1181877Y1127463I745J-670D01*
G02Y1125459I0J-1002D01*
G02X-1182579Y1125746I0J1002D01*
G03X-1183157Y1125728I-280J-285D01*
G02X-1183902Y1125396I-745J670D01*
G02X-1184307Y1125481I-1J1002D01*
G03X-1184868Y1125120I-161J-366D01*
G02X-1185870Y1124128I-1002J10D01*
G02X-1186872Y1125130I0J1002D01*
G02X-1186856Y1125306I1002J-2D01*
G03X-1187373Y1125757I-394J70D01*
G37*
G36*
G01X-1216708Y1126158D02*
G02X-1217423Y1125858I-715J702D01*
G02Y1127862I0J1002D01*
G02X-1216573Y1127390I0J-1001D01*
G03X-1215948Y1127322I339J212D01*
G02X-1215233Y1127622I715J-702D01*
G02X-1214231Y1126620I0J-1002D01*
G02X-1214274Y1126330I-1002J0D01*
G03X-1213825Y1125820I383J-115D01*
G02X-1213659Y1125834I167J-988D01*
G02X-1214661Y1124832I0J-1002D01*
G02X-1214618Y1125122I1002J0D01*
G03X-1215067Y1125632I-383J115D01*
G02X-1215233Y1125618I-167J988D01*
G02X-1216083Y1126090I0J1001D01*
G03X-1216708Y1126158I-339J-212D01*
G37*
G36*
G01X-1197042Y1127883D02*
G02X-1197900Y1127398I-858J516D01*
G02Y1129402I0J1002D01*
G02X-1197139Y1129051I0J-1000D01*
G03X-1196492Y1129105I304J260D01*
G02X-1195634Y1129590I858J-516D01*
G02Y1127586I0J-1002D01*
G02X-1196395Y1127937I0J1000D01*
G03X-1197042Y1127883I-304J-260D01*
G37*
G36*
G01X-1211129Y1129436D02*
G02X-1211291Y1129423I-161J989D01*
G02X-1210289Y1130425I0J1002D01*
G02X-1210309Y1130227I-1002J1D01*
G03X-1209852Y1129754I392J-78D01*
G02X-1209690Y1129767I161J-989D01*
G02X-1210692Y1128765I0J-1002D01*
G02X-1210672Y1128963I1002J-1D01*
G03X-1211129Y1129436I-392J78D01*
G37*
G36*
G01X-1206943Y1130051D02*
G02X-1207692Y1129715I-749J667D01*
G02Y1131719I0J1002D01*
G02X-1206914Y1131349I0J-1003D01*
G03X-1206305Y1131336I310J252D01*
G02X-1205556Y1131672I749J-667D01*
G02Y1129668I0J-1002D01*
G02X-1206334Y1130038I0J1003D01*
G03X-1206943Y1130051I-310J-252D01*
G37*
G36*
G01X-1227491Y1130268D02*
X-1227500D01*
G02X-1226498Y1131270I0J1002D01*
G02X-1226508Y1131128I-1002J-1D01*
G03X-1226109Y1130672I396J-56D01*
G01X-1226100D01*
G02X-1227102Y1129670I0J-1002D01*
G02X-1227092Y1129812I1002J1D01*
G03X-1227491Y1130268I-396J56D01*
G37*
G36*
G01X-1275136Y1130396D02*
G02X-1275502Y1131260I837J864D01*
G02X-1273098I1202J0D01*
G02X-1273621Y1130268I-1202J0D01*
G03X-1273673Y1129651I226J-330D01*
G02X-1273307Y1128787I-837J-864D01*
G02X-1275711I-1202J0D01*
G02X-1275188Y1129779I1202J0D01*
G03X-1275136Y1130396I-226J330D01*
G37*
G36*
G01X-1111063Y1131459D02*
G02X-1112241Y1132661I24J1202D01*
G02X-1109837I1202J0D01*
G02X-1109913Y1132241I-1202J1D01*
G03X-1109546Y1131702I375J-139D01*
G02X-1108368Y1130500I-24J-1202D01*
G02X-1110772I-1202J0D01*
G02X-1110696Y1130920I1202J-1D01*
G03X-1111063Y1131459I-375J139D01*
G37*
G36*
G01X-1156824Y1131765D02*
G02X-1157415Y1131610I-590J1047D01*
G02Y1134014I0J1202D01*
G02X-1156224Y1132972I0J-1202D01*
G03X-1155631Y1132677I396J53D01*
G02X-1155040Y1132832I590J-1047D01*
G02Y1130428I0J-1202D01*
G02X-1156231Y1131470I0J1202D01*
G03X-1156824Y1131765I-396J-53D01*
G37*
G36*
G01X-1213530Y1133593D02*
G02X-1214265Y1134559I267J966D01*
G02X-1212261I1002J0D01*
G02X-1212616Y1133794I-1002J0D01*
G03X-1212569Y1133150I259J-305D01*
G02X-1212098Y1132300I-531J-850D01*
G02X-1213100Y1131298I-1002J0D01*
G02X-1214007Y1131874I0J1002D01*
G03X-1214577Y1132045I-362J-170D01*
G02X-1215100Y1131898I-523J855D01*
G02Y1133902I0J1002D01*
G02X-1214193Y1133326I0J-1002D01*
G03X-1213623Y1133155I362J170D01*
G02X-1213503Y1133217I519J-857D01*
G03X-1213530Y1133593I-80J183D01*
G37*
G36*
G01X-1185301Y1133787D02*
G02X-1185940Y1133557I-639J773D01*
G02Y1135561I0J1002D01*
G02X-1185157Y1135184I0J-1002D01*
G03X-1184589Y1135125I313J249D01*
G02X-1183950Y1135355I639J-773D01*
G02X-1182948Y1134353I0J-1002D01*
G02X-1183189Y1133701I-1002J0D01*
G03X-1183118Y1133115I304J-261D01*
G02X-1182698Y1132300I-581J-815D01*
G02X-1184702I-1002J0D01*
G02X-1184461Y1132952I1002J0D01*
G03X-1184532Y1133538I-304J261D01*
G02X-1184733Y1133728I581J816D01*
G03X-1185301Y1133787I-313J-249D01*
G37*
G36*
G01X-1198808Y1135994D02*
G02X-1198852Y1136287I958J294D01*
G02X-1197850Y1135285I1002J0D01*
G02X-1198017Y1135299I0J1003D01*
G03X-1198466Y1134787I-67J-394D01*
G02X-1198422Y1134494I-958J-294D01*
G02X-1199424Y1135496I-1002J0D01*
G02X-1199257Y1135482I0J-1003D01*
G03X-1198808Y1135994I67J394D01*
G37*
G36*
G01X-1220050Y1137726D02*
G02X-1220449Y1138526I603J800D01*
G02X-1219447Y1139528I1002J0D01*
G02X-1218726Y1139221I-1J-1002D01*
G03X-1218155Y1139216I288J278D01*
G02X-1217447Y1139509I708J-709D01*
G02X-1216445Y1138507I0J-1002D01*
G02X-1216829Y1137719I-1002J1D01*
G03X-1216787Y1137060I247J-315D01*
G02X-1216298Y1136200I-512J-860D01*
G02X-1217300Y1135198I-1002J0D01*
G02X-1218089Y1135583I0J1001D01*
G03X-1218687Y1135619I-315J-247D01*
G02X-1219397Y1135324I-710J707D01*
G02X-1220399Y1136326I0J1002D01*
G02X-1220036Y1137098I1002J0D01*
G03X-1220050Y1137726I-255J308D01*
G37*
G36*
G01X-1183610Y1139398D02*
G02X-1184602Y1140400I10J1002D01*
G02X-1182598I1002J0D01*
G02X-1182617Y1140208I-1002J2D01*
G03X-1182228Y1139731I393J-77D01*
G02X-1181412Y1139296I-10J-1002D01*
G03X-1180743Y1139312I329J227D01*
G02X-1179891Y1139786I852J-529D01*
G02Y1137782I0J-1002D01*
G02X-1180717Y1138217I0J1002D01*
G03X-1181386Y1138201I-329J-227D01*
G02X-1181654Y1137915I-851J529D01*
G03X-1181647Y1137259I233J-326D01*
G02X-1181363Y1136964I-564J-828D01*
G03X-1180753Y1136882I339J212D01*
G02X-1180075Y1137146I678J-739D01*
G02Y1135142I0J-1002D01*
G02X-1180924Y1135612I0J1002D01*
G03X-1181534Y1135694I-339J-212D01*
G02X-1182212Y1135430I-678J739D01*
G02X-1183214Y1136432I0J1002D01*
G02X-1182796Y1137246I1002J0D01*
G03X-1182803Y1137902I-233J326D01*
G02X-1183240Y1138729I564J827D01*
G02X-1183221Y1138921I1002J-2D01*
G03X-1183610Y1139398I-393J77D01*
G37*
G36*
G01X-1051210Y1140716D02*
G02X-1051900Y1140498I-690J983D01*
G02Y1142902I0J1202D01*
G02X-1050789Y1142159I0J-1202D01*
G03X-1050190Y1141984I370J153D01*
G02X-1049500Y1142202I690J-983D01*
G02Y1139798I0J-1202D01*
G02X-1050611Y1140541I0J1202D01*
G03X-1051210Y1140716I-370J-153D01*
G37*
G36*
G01X-1208304Y1141557D02*
G02X-1208602Y1142270I704J713D01*
G02X-1207600Y1143272I1002J0D01*
G02X-1206814Y1142891I0J-1001D01*
G03X-1206185Y1142892I314J248D01*
G02X-1205396Y1143276I789J-619D01*
G02X-1204394Y1142274I0J-1002D01*
G02X-1204770Y1141492I-1001J0D01*
G03X-1204797Y1140892I251J-312D01*
G02X-1204491Y1140171I-696J-721D01*
G02X-1205493Y1139169I-1002J0D01*
G02X-1206285Y1139557I0J1002D01*
G03X-1206912Y1139563I-316J-245D01*
G02X-1207693Y1139189I-781J628D01*
G02X-1208695Y1140191I0J1002D01*
G02X-1208331Y1140964I1003J0D01*
G03X-1208304Y1141557I-254J309D01*
G37*
G36*
G01X-1194457Y1141667D02*
G02X-1194902Y1142500I557J833D01*
G02X-1192898I1002J0D01*
G02X-1193343Y1141667I-1002J0D01*
G03Y1141003I223J-332D01*
G02X-1193119Y1140798I-557J-833D01*
G03X-1192513Y1140778I312J251D01*
G02X-1191776Y1141102I738J-678D01*
G02Y1139098I0J-1002D01*
G02X-1192557Y1139472I0J1002D01*
G03X-1193163Y1139492I-312J-251D01*
G02X-1193900Y1139168I-738J678D01*
G02X-1194902Y1140170I0J1002D01*
G02X-1194457Y1141003I1002J0D01*
G03Y1141667I-223J332D01*
G37*
G36*
G01X-1062724Y1141970D02*
G02X-1062902Y1142600I1024J630D01*
G02X-1060498I1202J0D01*
G02X-1061427Y1141429I-1203J0D01*
G03X-1061676Y1140830I91J-389D01*
G02X-1061498Y1140200I-1024J-630D01*
G02X-1063902I-1202J0D01*
G02X-1062973Y1141371I1203J0D01*
G03X-1062724Y1141970I-91J389D01*
G37*
G36*
G01X-1200307Y1143764D02*
G02X-1200652Y1144520I656J756D01*
G02X-1198648I1002J0D01*
G02X-1199114Y1143673I-1003J0D01*
G03X-1199163Y1143033I214J-338D01*
G02X-1198818Y1142277I-656J-756D01*
G02X-1200822I-1002J0D01*
G02X-1200356Y1143124I1003J0D01*
G03X-1200307Y1143764I-214J338D01*
G37*
G36*
G01X-1123838Y1144209D02*
G02X-1124110Y1144178I-271J1171D01*
G02Y1146582I0J1202D01*
G02X-1122911Y1145463I0J-1202D01*
G03X-1122422Y1145101I399J28D01*
G02X-1122150Y1145132I271J-1171D01*
G02Y1142728I0J-1202D01*
G02X-1123349Y1143847I0J1202D01*
G03X-1123838Y1144209I-399J-28D01*
G37*
G36*
G01X-1219965Y1145523D02*
G02X-1220202Y1146170I765J647D01*
G02X-1219200Y1147172I1002J0D01*
G02X-1218438Y1146820I0J-1001D01*
G03X-1217800Y1146859I304J260D01*
G02X-1216965Y1147307I835J-554D01*
G02Y1145303I0J-1002D01*
G02X-1217727Y1145655I0J1001D01*
G03X-1218365Y1145616I-304J-260D01*
G02X-1218576Y1145386I-835J554D01*
G03X-1218632Y1144815I249J-313D01*
G02X-1218395Y1144168I-765J-647D01*
G02X-1220399I-1002J0D01*
G02X-1220021Y1144952I1002J0D01*
G03X-1219965Y1145523I-249J313D01*
G37*
G36*
G01X-1212096Y1145649D02*
G02X-1212400Y1146368I698J719D01*
G02X-1211398Y1147370I1002J0D01*
G02X-1210656Y1147042I0J-1003D01*
G03X-1210038Y1147074I296J269D01*
G02X-1209230Y1147483I808J-594D01*
G02Y1145479I0J-1002D01*
G02X-1209972Y1145807I0J1003D01*
G03X-1210590Y1145775I-296J-269D01*
G02X-1210738Y1145614I-807J594D01*
G03X-1210753Y1145027I264J-300D01*
G02X-1210449Y1144308I-698J-719D01*
G02X-1212453I-1002J0D01*
G02X-1212111Y1145062I1002J0D01*
G03X-1212096Y1145649I-264J300D01*
G37*
G36*
G01X-1190683Y1145867D02*
G02X-1190952Y1146550I733J683D01*
G02X-1188948I1002J0D01*
G02X-1189324Y1145768I-1001J0D01*
G03X-1189367Y1145183I250J-312D01*
G02X-1189098Y1144500I-733J-683D01*
G02X-1191102I-1002J0D01*
G02X-1190726Y1145282I1001J0D01*
G03X-1190683Y1145867I-250J312D01*
G37*
G36*
G01X-1149552Y1147942D02*
G02X-1149562Y1148100I1192J155D01*
G02X-1147158I1202J0D01*
G02X-1147168Y1147942I-1202J-3D01*
G03X-1146821Y1147493I396J-52D01*
G02X-1145890Y1146828I-149J-1193D01*
G03X-1145196Y1146785I359J176D01*
G02X-1143184I1006J-656D01*
G03X-1142490Y1146828I335J219D01*
G02X-1141410Y1147502I1080J-528D01*
G02Y1145098I0J-1202D01*
G02X-1142416Y1145643I0J1201D01*
G03X-1143110Y1145600I-335J-219D01*
G02X-1145270I-1080J528D01*
G03X-1145964Y1145643I-359J-176D01*
G02X-1146970Y1145098I-1006J656D01*
G02X-1148013Y1145702I0J1203D01*
G03X-1148707I-347J-198D01*
G02X-1149750Y1145098I-1043J599D01*
G02X-1150952Y1146300I0J1202D01*
G02X-1149899Y1147493I1202J0D01*
G03X-1149552Y1147942I-49J397D01*
G37*
G36*
G01X-1234061Y1148415D02*
G02X-1234102Y1148700I961J284D01*
G02X-1232098I1002J0D01*
G02X-1233068Y1147698I-1003J0D01*
G03X-1233439Y1147185I12J-399D01*
G02X-1233398Y1146900I-961J-284D01*
G02X-1235402I-1002J0D01*
G02X-1234432Y1147902I1003J0D01*
G03X-1234061Y1148415I-12J399D01*
G37*
G36*
G01X-1127437Y1148615D02*
G02X-1128470Y1148028I-1033J615D01*
G02Y1150432I0J1202D01*
G02X-1127424Y1149823I0J-1203D01*
G03X-1126733Y1149815I348J197D01*
G02X-1125700Y1150402I1033J-615D01*
G02Y1147998I0J-1202D01*
G02X-1126746Y1148607I0J1203D01*
G03X-1127437Y1148615I-348J-197D01*
G37*
G36*
G01X-1144550Y1149216D02*
G02X-1145600Y1148598I-1050J583D01*
G02Y1151002I0J1202D01*
G02X-1144550Y1150384I0J-1201D01*
G03X-1143850I350J195D01*
G02X-1142800Y1151002I1050J-583D01*
G02Y1148598I0J-1202D01*
G02X-1143850Y1149216I0J1201D01*
G03X-1144550I-350J-195D01*
G37*
G36*
G01X-1033901Y1155112D02*
G02X-1032980Y1155541I921J-774D01*
G02X-1032050Y1155100I0J-1201D01*
G03X-1031430I310J253D01*
G02X-1030500Y1155541I930J-760D01*
G02Y1153137I0J-1202D01*
G02X-1031430Y1153578I0J1201D01*
G03X-1032050I-310J-253D01*
G02X-1032980Y1153137I-930J760D01*
G02X-1033875Y1153537I0J1201D01*
G03X-1034479Y1153527I-298J-267D01*
G02X-1035400Y1153098I-921J774D01*
G02Y1155502I0J1202D01*
G02X-1034505Y1155102I0J-1201D01*
G03X-1033901Y1155112I298J267D01*
G37*
G36*
G01X-1166143Y1161292D02*
G03X-1165694Y1161641I52J396D01*
G02X-1164500Y1162702I1194J-141D01*
G02Y1160298I0J-1202D01*
G02X-1164657Y1160308I-2J1202D01*
G03X-1165106Y1159959I-52J-396D01*
G02X-1166300Y1158898I-1194J141D01*
G02X-1167427Y1159682I0J1202D01*
G03X-1168026Y1159875I-375J-139D01*
G02X-1168700Y1159668I-674J994D01*
G02X-1168775Y1159670I-5J1202D01*
G03X-1169199Y1159253I-25J-399D01*
G02X-1169198Y1159200I-1201J-49D01*
G02X-1170400Y1160402I-1202J0D01*
G02X-1170325Y1160400I5J-1202D01*
G03X-1169901Y1160817I25J399D01*
G02X-1169902Y1160870I1201J49D01*
G02X-1168700Y1162072I1202J0D01*
G02X-1167573Y1161288I0J-1202D01*
G03X-1166974Y1161095I375J139D01*
G02X-1166300Y1161302I674J-994D01*
G02X-1166143Y1161292I2J-1202D01*
G37*
G36*
G01X-1166566Y1163300D02*
G02X-1167700Y1162498I-1134J401D01*
G02Y1164902I0J1202D01*
G02X-1167033Y1164700I0J-1202D01*
G03X-1166434Y1164900I222J333D01*
G02X-1165300Y1165702I1134J-401D01*
G02Y1163298I0J-1202D01*
G02X-1165967Y1163500I0J1202D01*
G03X-1166566Y1163300I-222J-333D01*
G37*
G36*
G01X-1263893Y1166891D02*
G02X-1264732Y1166550I-839J862D01*
G02Y1168954I0J1202D01*
G02X-1263671Y1168318I0J-1203D01*
G03X-1263039Y1168220I353J188D01*
G02X-1262200Y1168561I839J-862D01*
G02Y1166157I0J-1202D01*
G02X-1263261Y1166793I0J1203D01*
G03X-1263893Y1166891I-353J-188D01*
G37*
G36*
G01X-1239107Y1174403D02*
G02X-1240202Y1175600I107J1197D01*
G02X-1237798I1202J0D01*
G02X-1237843Y1175274I-1203J0D01*
G03X-1237493Y1174767I385J-109D01*
G02X-1236398Y1173570I-107J-1197D01*
G02X-1238802I-1202J0D01*
G02X-1238757Y1173896I1203J0D01*
G03X-1239107Y1174403I-385J109D01*
G37*
G36*
G01X-1172664Y1184602D02*
G02X-1173141Y1185561I726J959D01*
G02X-1170737I1202J0D01*
G02X-1171485Y1184448I-1202J0D01*
G03X-1171575Y1183759I151J-370D01*
G02X-1171098Y1182800I-726J-959D01*
G02X-1173502I-1202J0D01*
G02X-1172754Y1183913I1202J0D01*
G03X-1172664Y1184602I-151J370D01*
G37*
G36*
G01X-1272691Y1189962D02*
G02X-1271500Y1191002I1191J-162D01*
G02X-1270804Y1190780I0J-1202D01*
G03X-1270218Y1190918I233J326D01*
G02X-1269156Y1191558I1062J-561D01*
G02Y1189154I0J-1202D01*
G02X-1269852Y1189376I0J1202D01*
G03X-1270438Y1189238I-233J-326D01*
G02X-1271500Y1188598I-1062J561D01*
G02X-1272185Y1188812I0J1203D01*
G03X-1272809Y1188538I-228J-329D01*
G02X-1274000Y1187498I-1191J162D01*
G02Y1189902I0J1202D01*
G02X-1273315Y1189688I0J-1203D01*
G03X-1272691Y1189962I228J329D01*
G37*
G36*
G01X-1261176Y1190214D02*
G02X-1261804Y1191270I574J1056D01*
G02X-1259400I1202J0D01*
G02X-1259816Y1190360I-1203J0D01*
G03X-1259746Y1189706I261J-303D01*
G02X-1259118Y1188650I-574J-1056D01*
G02X-1261522I-1202J0D01*
G02X-1261106Y1189560I1203J0D01*
G03X-1261176Y1190214I-261J303D01*
G37*
G36*
G01X-1218863Y1191512D02*
G02X-1218915Y1191511I-49J1201D01*
G02X-1217713Y1192713I0J1202D01*
G02X-1217843Y1192169I-1203J0D01*
G03X-1217469Y1191588I356J-182D01*
G02X-1217417Y1191589I49J-1201D01*
G02X-1218619Y1190387I0J-1202D01*
G02X-1218489Y1190931I1203J0D01*
G03X-1218863Y1191512I-356J182D01*
G37*
G36*
G01X-1277586Y1209440D02*
G02X-1277900Y1209398I-315J1160D01*
G02X-1276698Y1210600I0J1202D01*
G02X-1276713Y1210410I-1202J-1D01*
G03X-1276214Y1209960I395J-64D01*
G02X-1275900Y1210002I315J-1160D01*
G02X-1277102Y1208800I0J-1202D01*
G02X-1277087Y1208990I1202J1D01*
G03X-1277586Y1209440I-395J64D01*
G37*
G54D56*
X-1234960Y1098300D03*
X-1231200Y1099170D03*
X-1215350Y1097120D03*
X-1215300Y1100370D03*
X-1209784D03*
X-1200106Y1098021D03*
X-1201618Y1101318D03*
X-1197100Y1099900D03*
X-1173200Y1102500D03*
X-1170000Y1099700D03*
X-1235263Y1106043D03*
X-1232360D03*
X-1211349Y1112840D03*
X-1217014Y1106597D03*
X-1215300Y1109100D03*
X-1215398Y1113003D03*
X-1217472Y1110872D03*
X-1219196Y1108904D03*
X-1207692Y1113009D03*
X-1201779Y1112766D03*
X-1209203Y1108706D03*
X-1203599Y1108763D03*
X-1199821Y1111198D03*
X-1205716Y1106935D03*
X-1197591Y1112840D03*
X-1197363Y1106670D03*
X-1195880Y1109070D03*
X-1189980Y1114650D03*
X-1188100Y1112840D03*
X-1193744Y1107095D03*
X-1179965Y1109235D03*
X-1183584Y1108904D03*
X-1181934Y1111025D03*
X-1235465Y1119935D03*
X-1230200Y1122370D03*
X-1211600Y1116770D03*
X-1213430Y1114971D03*
X-1215700Y1117970D03*
X-1213500Y1121370D03*
X-1203300Y1114870D03*
X-1203900Y1120700D03*
X-1203500Y1124500D03*
X-1209492Y1114978D03*
X-1201450Y1120641D03*
X-1187839Y1122683D03*
X-1195460Y1115107D03*
X-1193910Y1122683D03*
X-1197600Y1120350D03*
X-1187973Y1116911D03*
X-1181800Y1122770D03*
X-1185300Y1118490D03*
X-1180000Y1120500D03*
X-1179700Y1124900D03*
X-1183400Y1120714D03*
X-1223272Y1132572D03*
X-1231705Y1128080D03*
X-1219510Y1128760D03*
X-1217196Y1130657D03*
X-1213263Y1128758D03*
X-1219397Y1132496D03*
X-1207700Y1126670D03*
X-1203701Y1132526D03*
X-1209741Y1138370D03*
X-1203700Y1128750D03*
X-1205492Y1134663D03*
X-1203650Y1138431D03*
X-1187700Y1130870D03*
X-1191710Y1126711D03*
X-1193910Y1134494D03*
X-1191400Y1134270D03*
X-1195634Y1132688D03*
X-1189938Y1138523D03*
X-1185840Y1128428D03*
X-1180026Y1132526D03*
X-1181934Y1130366D03*
X-1179894Y1128868D03*
X-1185710Y1138296D03*
X-1173700Y1136462D03*
X-1170400Y1134800D03*
X-1231200Y1147000D03*
X-1217366Y1142535D03*
X-1213430Y1138600D03*
X-1213200Y1142368D03*
X-1211630Y1140400D03*
X-1215433Y1144302D03*
X-1215470Y1140400D03*
X-1201409D03*
X-1205555Y1146368D03*
X-1201618Y1146418D03*
X-1197516Y1140230D03*
X-1187923Y1140231D03*
X-1195800Y1144400D03*
X-1187300Y1145400D03*
X-1197682Y1146270D03*
X-1193914Y1146368D03*
X-1181934Y1146200D03*
X-1183936Y1144600D03*
X-1185797Y1142049D03*
X-1181934Y1142686D03*
X-1179965Y1144210D03*
X-1221000Y1151870D03*
X-1206000Y1155470D03*
X-1202100D03*
X-1171900Y1153370D03*
G54D54*
X-1293334Y996366D03*
X-1125258Y988120D03*
X-1293334Y1006366D03*
G54D46*
X-1069300Y930700D03*
X-1064200Y931100D03*
X-1135300Y946500D03*
X-1068400Y942900D03*
X-1059300Y936000D03*
X-1064200Y936300D03*
X-1064000Y943000D03*
X-992800Y943600D03*
X-988776Y945524D03*
X-1235400Y956800D03*
X-1239100Y956700D03*
X-1246850Y956250D03*
X-1135300Y956500D03*
X-988914Y948786D03*
X-994550Y951950D03*
X-994600Y955114D03*
X-994578Y958278D03*
X-989000Y958200D03*
X-1260500Y967500D03*
X-1263400Y969400D03*
X-1257959Y965100D03*
X-1238366Y968766D03*
X-1243000Y963500D03*
X-1220600Y966500D03*
X-1122400Y964700D03*
X-1110900Y964800D03*
X-1099400Y964500D03*
X-994758Y961442D03*
X-1145800Y978900D03*
Y982700D03*
Y974800D03*
X-1062968Y982768D03*
X-1271121Y988179D03*
X-1262400Y985500D03*
X-1267500Y988300D03*
X-1255990Y988990D03*
X-1236630Y984470D03*
X-1228300Y987400D03*
X-1204300Y988400D03*
X-1145900Y986600D03*
X-1148400Y991200D03*
X-1146000Y992900D03*
X-1055700Y992100D03*
X-1267900Y1005400D03*
X-1217045Y1003800D03*
X-1214155D03*
X-1203900Y1006700D03*
X-1004100Y1004100D03*
X-1004200Y1007300D03*
X-1208900Y1011200D03*
X-1148000Y1017600D03*
X-1143918Y1016018D03*
X-1122100Y1016000D03*
X-1115400Y1015200D03*
X-1107800Y1016600D03*
X-1115200Y1018200D03*
X-1092097Y1014328D03*
X-1098003D03*
X-1100903D03*
X-1094997D03*
X-1086903D03*
X-1084003D03*
X-1080997D03*
X-1074600Y1013900D03*
X-1073100Y1011400D03*
X-1078097Y1014328D03*
X-1002142Y1017300D03*
X-1276300Y1030110D03*
X-1256800Y1019400D03*
X-1253700Y1029300D03*
X-1188900Y1027000D03*
X-1158690Y1031000D03*
X-1156000Y1019900D03*
X-1141880Y1024300D03*
X-1134134Y1024066D03*
X-1128200Y1020800D03*
X-1138013Y1020887D03*
X-1116181Y1030900D03*
X-1123314Y1024677D03*
X-1118328Y1020778D03*
X-1117538Y1026862D03*
X-1123800Y1020778D03*
X-1098694Y1028592D03*
X-1069100Y1021900D03*
X-1076200Y1025800D03*
X-1071525Y1030785D03*
X-1057600Y1023900D03*
X-1057500Y1030785D03*
X-1005700Y1030500D03*
X-1294744Y1034056D03*
X-1294644Y1037756D03*
X-1294786Y1041386D03*
X-1284600Y1042500D03*
X-1287500Y1039800D03*
X-1276300Y1033000D03*
X-1259500Y1033700D03*
X-1262390D03*
X-1249500Y1032400D03*
X-1182600Y1034600D03*
X-1183900Y1042000D03*
X-1160300Y1035200D03*
X-1154190Y1040641D03*
X-1160080Y1038673D03*
X-1153600Y1036681D03*
X-1111025Y1042610D03*
X-1098600Y1036000D03*
X-1103100Y1037886D03*
X-1071525Y1033685D03*
X-1057500D03*
X-1033200Y1039500D03*
X-1013500Y1040600D03*
X-1294686Y1045086D03*
X-1289900Y1051600D03*
X-1288000Y1045100D03*
X-1280400Y1044000D03*
X-1226200Y1044023D03*
X-1218714Y1050000D03*
X-1215800Y1054500D03*
X-1218686Y1044014D03*
X-1196500Y1052800D03*
X-1170800Y1049200D03*
X-1171700Y1046200D03*
X-1161900Y1047100D03*
X-1141950Y1050872D03*
X-1106709Y1049691D03*
X-1111025Y1046518D03*
X-1108245Y1044578D03*
X-1099890Y1053310D03*
X-1103210Y1054890D03*
X-1082900Y1050500D03*
X-1082300Y1054700D03*
X-1068135Y1054765D03*
X-1079130Y1051200D03*
X-1060723Y1051123D03*
X-1058300Y1049040D03*
X-1036300Y1051900D03*
X-1021300Y1049200D03*
X-1031300Y1047400D03*
X-1026316Y1052298D03*
X-1016316Y1050908D03*
X-1003600Y1043800D03*
X-1285000Y1058600D03*
X-1279800Y1059100D03*
X-1276000Y1057100D03*
X-1264914Y1058986D03*
X-1269600Y1059000D03*
X-1223400Y1060300D03*
X-1219300Y1060200D03*
X-1211200Y1058000D03*
X-1192686Y1056314D03*
X-1171551Y1060249D03*
X-1171200Y1066500D03*
X-1164684Y1066900D03*
X-1167700Y1066500D03*
X-1126700Y1064095D03*
X-1118800Y1064100D03*
X-1110564Y1063830D03*
X-1105228Y1063500D03*
X-1060300Y1057400D03*
X-1055300Y1064600D03*
X-1024400Y1059800D03*
X-1021700Y1061200D03*
X-1027100Y1056600D03*
X-1021800Y1056900D03*
X-1278100Y1068500D03*
X-1277100Y1071400D03*
X-1262400Y1069400D03*
X-1267800Y1068400D03*
X-1251600Y1073300D03*
X-1243000Y1075070D03*
X-1230400Y1072800D03*
X-1222200Y1078200D03*
X-1219500Y1075900D03*
X-1220734Y1069434D03*
X-1199548Y1078652D03*
X-1200200Y1075800D03*
X-1196500Y1078700D03*
X-1189300Y1074500D03*
X-1196400Y1075500D03*
X-1177000Y1069590D03*
X-1172757Y1071343D03*
X-1111400Y1071500D03*
X-1082900Y1068130D03*
X-1057000Y1078500D03*
X-1057300Y1074700D03*
X-1046500Y1078600D03*
X-1218900Y1080900D03*
X-1211100Y1087800D03*
X-1201914Y1087290D03*
X-1206314Y1088585D03*
X-1201850Y1084450D03*
X-1199800Y1082500D03*
X-1196500Y1083600D03*
X-1182200Y1084400D03*
X-1179400Y1085700D03*
X-1179386Y1082000D03*
X-1182500Y1088900D03*
X-1168700Y1087600D03*
X-1160000Y1081500D03*
X-1152500Y1090000D03*
X-1147200Y1090200D03*
X-1135100Y1086000D03*
X-1108196Y1084654D03*
X-1088700Y1083600D03*
X-1059550Y1089150D03*
X-1060400Y1084300D03*
X-1048100Y1089800D03*
X-1283310Y1094301D03*
Y1097451D03*
Y1100601D03*
X-1280160Y1094301D03*
Y1097451D03*
X-1277010Y1094301D03*
Y1097451D03*
X-1266600Y1092000D03*
X-1268500Y1094300D03*
X-1261260Y1100601D03*
X-1258110Y1097451D03*
X-1253030Y1097730D03*
X-1203591Y1091179D03*
X-1209600Y1094300D03*
X-1196060Y1094400D03*
X-1193140Y1094693D03*
X-1175500Y1095400D03*
X-1185300Y1094600D03*
X-1172500Y1093700D03*
X-1167000Y1099700D03*
X-1159779Y1093700D03*
X-1152300Y1094400D03*
X-1155350Y1096500D03*
X-1151100Y1097600D03*
X-1107100Y1097000D03*
X-1114500Y1102200D03*
X-1110700D03*
X-1093600Y1099200D03*
X-1088600Y1102300D03*
X-1061879Y1097714D03*
X-1062300Y1101524D03*
X-1021552Y1091182D03*
X-1021600Y1101400D03*
X-1294510Y1114100D03*
X-1291620D03*
X-1283310Y1110051D03*
Y1103751D03*
X-1280160D03*
X-1280100Y1109800D03*
X-1277010Y1103751D03*
X-1280160Y1113201D03*
X-1274000Y1110000D03*
X-1277010Y1113201D03*
Y1110051D03*
X-1261260Y1103751D03*
Y1110051D03*
X-1264410Y1103751D03*
X-1264100Y1113600D03*
X-1264600Y1106964D03*
X-1261260Y1113201D03*
X-1270400Y1109600D03*
X-1268299Y1103351D03*
X-1265000Y1110100D03*
X-1254800Y1111800D03*
X-1258110Y1106901D03*
X-1249400Y1110100D03*
X-1237800Y1104800D03*
X-1166850Y1109120D03*
X-1165800Y1105100D03*
X-1149800Y1111636D03*
X-1139215Y1111615D03*
X-1120450Y1111636D03*
X-1111010Y1107420D03*
X-1088796Y1108604D03*
X-1076400Y1107500D03*
X-1060208Y1105204D03*
X-1026800Y1108100D03*
X-1022800Y1113500D03*
X-1283801Y1123499D03*
X-1284000Y1118400D03*
X-1280321Y1119684D03*
X-1277472Y1122189D03*
X-1277010Y1119039D03*
X-1253385Y1124713D03*
X-1254591Y1117715D03*
X-1258330Y1122431D03*
X-1165200Y1118200D03*
X-1155040Y1124664D03*
X-1149800Y1115486D03*
X-1149826Y1121626D03*
X-1149800Y1124664D03*
X-1144467Y1124133D03*
X-1149826Y1118526D03*
X-1139194D03*
Y1115486D03*
X-1139200Y1121626D03*
X-1120450Y1115486D03*
X-1120350Y1121626D03*
X-1120450Y1118526D03*
X-1109200Y1123300D03*
X-1108530Y1120100D03*
X-1107300Y1115920D03*
X-1097500Y1117400D03*
X-1089700Y1126200D03*
X-1070200Y1117400D03*
X-1042100Y1125000D03*
X-1025106Y1122417D03*
X-1006864Y1124236D03*
X-1283500Y1134700D03*
X-1287500Y1134100D03*
X-1284209Y1129000D03*
X-1277472Y1128489D03*
X-1274322Y1134789D03*
X-1272800Y1137200D03*
X-1280126Y1138368D03*
X-1259600Y1127700D03*
X-1261661Y1138340D03*
X-1255600Y1134900D03*
X-1252700Y1134839D03*
X-1155040Y1128530D03*
Y1134630D03*
X-1149800Y1128530D03*
Y1131630D03*
Y1134630D03*
X-1140496Y1134610D03*
X-1144500Y1128700D03*
X-1144446Y1131530D03*
Y1134610D03*
X-1139200Y1131530D03*
X-1119170D03*
X-1114844Y1128710D03*
X-1109800Y1135950D03*
X-1114190Y1136765D03*
X-1096300Y1132200D03*
X-1093500Y1131300D03*
X-1081348Y1138080D03*
Y1135180D03*
X-1070200Y1130800D03*
X-1076295Y1138080D03*
Y1135180D03*
X-1049500Y1137684D03*
X-1049672Y1132728D03*
X-1040300Y1127356D03*
X-1004556Y1138309D03*
X-1005664Y1133936D03*
X-1283310Y1141089D03*
Y1144239D03*
X-1288300Y1141500D03*
X-1274322Y1141089D03*
X-1278395Y1141042D03*
X-1274322Y1144239D03*
X-1261306Y1141505D03*
X-1260880Y1145300D03*
X-1254945Y1144925D03*
X-1255177Y1141569D03*
X-1248700Y1148600D03*
X-1239566Y1148605D03*
X-1243200Y1147000D03*
X-1242500Y1141400D03*
X-1239135Y1143165D03*
X-1236663Y1148605D03*
X-1129890Y1145683D03*
X-1131280Y1149230D03*
X-1132770Y1145783D03*
X-1134160Y1149310D03*
X-1137040Y1149400D03*
X-1138430Y1146300D03*
X-1135641Y1145701D03*
X-1127090Y1145283D03*
X-1110500Y1142300D03*
X-1095992Y1142293D03*
X-1070100Y1138700D03*
X-1068000Y1147000D03*
X-1040195Y1149005D03*
X-1005900Y1150200D03*
X-1289500Y1152800D03*
X-1273200Y1158801D03*
X-1222900Y1162120D03*
X-1210300Y1158600D03*
X-1206125Y1161800D03*
X-1194000Y1161770D03*
X-1185200Y1161270D03*
X-1171900Y1162370D03*
X-1172500Y1156370D03*
X-1153750Y1152500D03*
X-1144500Y1154100D03*
X-1113000Y1151290D03*
X-1100700Y1160100D03*
X-1094600Y1151400D03*
X-1088765Y1161822D03*
X-1091758Y1156342D03*
X-1087304Y1154304D03*
X-1075700Y1153600D03*
X-1076466Y1157767D03*
X-1068000Y1150800D03*
X-1064300Y1150900D03*
X-1017232Y1154000D03*
X-1006200Y1155500D03*
X-1287500Y1166571D03*
X-1273100Y1167370D03*
X-1271300Y1163700D03*
X-1269500Y1167370D03*
X-1255051Y1165570D03*
X-1258563Y1165702D03*
X-1252100Y1168400D03*
X-1247900Y1168470D03*
X-1239200Y1165670D03*
X-1235200Y1164200D03*
X-1236800Y1167270D03*
X-1234600Y1171800D03*
X-1233100Y1168300D03*
X-1231900Y1164270D03*
X-1201900Y1165370D03*
X-1167800Y1171400D03*
X-1164600Y1172600D03*
X-1156300Y1164000D03*
X-1161000Y1169700D03*
X-1129200Y1163600D03*
X-1135104Y1170705D03*
X-1134600Y1164100D03*
X-1108500Y1170500D03*
X-1115318Y1170900D03*
X-1112453D03*
X-1100569Y1170731D03*
X-1091600Y1170900D03*
X-1085600Y1163400D03*
X-1086585Y1168585D03*
X-1066400Y1172000D03*
X-1061100Y1173800D03*
X-1056800Y1173900D03*
X-1052420Y1172680D03*
X-1018638Y1163000D03*
X-999900Y1169900D03*
X-1287600Y1180800D03*
X-1275700Y1180900D03*
X-1275100Y1185500D03*
X-1260134Y1179904D03*
X-1268800Y1175270D03*
X-1269795Y1182695D03*
X-1269400Y1179000D03*
X-1257366Y1180404D03*
X-1256572Y1176270D03*
X-1256100Y1185270D03*
X-1239000Y1178490D03*
X-1209535Y1177270D03*
X-1206645D03*
X-1206000Y1182100D03*
X-1198480Y1184970D03*
Y1182080D03*
X-1188215Y1183470D03*
X-1191115D03*
X-1181300Y1174400D03*
X-1172000Y1180000D03*
X-1129779Y1178579D03*
X-1114939Y1181861D03*
X-1108800Y1181300D03*
X-1110700Y1179057D03*
Y1176157D03*
X-1102900Y1181600D03*
X-1071900Y1179200D03*
X-1270000Y1186636D03*
X-1250288Y1186682D03*
X-1247300Y1186770D03*
X-1253700Y1190570D03*
X-1257800Y1190870D03*
X-1221815Y1192713D03*
X-1217417Y1187522D03*
X-1204913Y1187283D03*
X-1203775Y1191655D03*
Y1194555D03*
X-1195635Y1190570D03*
X-1192735D03*
X-1167100Y1196400D03*
X-1172039Y1191961D03*
X-1171700Y1188800D03*
X-1171939Y1195161D03*
X-1174142Y1198000D03*
X-1162000Y1193100D03*
X-1143400Y1187600D03*
X-1130300Y1192200D03*
X-1139000Y1189500D03*
X-1130000Y1189100D03*
X-1115900Y1192500D03*
X-1117900Y1190300D03*
X-1117182Y1186700D03*
X-1122542Y1188943D03*
X-1125442D03*
X-1123913Y1197510D03*
X-1119793Y1197507D03*
X-1120047Y1186700D03*
X-1107200Y1187000D03*
X-1110700Y1191600D03*
X-1092959Y1187473D03*
X-1100800Y1196500D03*
X-1087700Y1191500D03*
X-1077548Y1189000D03*
X-1056700Y1188500D03*
X-1052400Y1188300D03*
X-1044100Y1188500D03*
X-1037000Y1188600D03*
X-1030499Y1197701D03*
X-1265700Y1200200D03*
X-1262766Y1198770D03*
X-1258633Y1198670D03*
X-1252655Y1207354D03*
X-1249755D03*
X-1246750Y1209260D03*
X-1243850D03*
X-1223128Y1209395D03*
X-1234015Y1202070D03*
X-1231115D03*
X-1213315Y1207515D03*
X-1220228Y1209395D03*
X-1205700Y1208900D03*
X-1161200Y1207300D03*
X-1152675Y1209695D03*
X-1142800Y1209700D03*
X-1149775Y1209695D03*
X-1134400Y1208200D03*
X-1127950Y1204400D03*
X-1119793Y1207393D03*
X-1123913Y1205790D03*
X-1100800Y1199500D03*
X-1086270Y1208830D03*
X-1077630D03*
X-1077700Y1201700D03*
X-1049786Y1204486D03*
X-1016000Y1199000D03*
X-1019700Y1208800D03*
X-1019600Y1199500D03*
X-1273100Y1220800D03*
X-1276400D03*
X-1231939Y1219900D03*
X-1229034Y1221756D03*
X-1234839Y1219900D03*
X-1226134Y1221756D03*
X-1203800Y1211000D03*
X-1200900Y1211100D03*
X-1188600Y1219100D03*
X-1190700Y1217100D03*
X-1183500Y1221000D03*
X-1181000Y1215900D03*
X-1134900Y1214600D03*
X-1134200Y1217700D03*
X-1130300Y1220300D03*
X-1139400Y1221100D03*
X-1126700Y1220500D03*
X-1112950Y1220550D03*
X-1086066Y1216634D03*
X-1086000Y1220516D03*
X-1077600Y1212600D03*
X-1023268Y1215268D03*
X-1271730Y1228270D03*
X-1208600Y1228800D03*
X-1150755Y1226355D03*
X-1144166Y1225334D03*
X-1106400Y1228100D03*
X-1104000Y1226355D03*
X-1077702Y1224302D03*
X-1078200Y1228200D03*
X-1057900Y1227800D03*
X-1066500Y1226000D03*
X-1052600Y1225600D03*
X-1044152Y1225952D03*
X-1046800Y1228100D03*
X-1041396Y1228000D03*
X-1038600Y1225800D03*
X-1035884Y1228000D03*
G54D40*
X-1041316Y1050456D03*
X-1259900Y1064400D03*
G54D52*
X-1212844Y961600D03*
X-1218356D03*
X-1207332D03*
G54D47*
X-1242508Y941176D03*
Y951176D03*
G54D53*
X-1120258Y978120D03*
X-1110258D03*
X-1090258D03*
X-1100258D03*
X-1080258D03*
X-1043342D03*
X-1033342D03*
X-1115258Y988120D03*
X-1105258D03*
X-1095258D03*
X-1085258D03*
X-1038342D03*
X-1028342D03*
G54D41*
X-1011316Y1046460D03*
X-1289900Y1068396D03*
G54D55*
X-993400Y999069D03*
Y1016391D03*
Y1041669D03*
Y1058991D03*
Y1170539D03*
Y1187861D03*
G54D51*
X-1223868Y961600D03*
G54D34*
X-1285878Y943669D03*
X-1263122D03*
G54D49*
X-1167632Y960491D03*
X-1171570Y953672D03*
Y967314D03*
X-1167632Y974133D03*
Y987774D03*
G54D42*
X-1011316Y1054452D03*
X-1289900Y1060404D03*
G54D38*
X-1177475Y996081D03*
G54D39*
X-1272383Y1020061D03*
X-1243249D03*
G54D48*
X-1227726Y953726D03*
X-1203474D03*
G54D45*
X-1128860Y937136D03*
X-1118860D03*
X-1086656D03*
X-1076656D03*
G54D43*
X-1011201Y1074147D03*
Y1105643D03*
G54D50*
X-1167632Y955944D03*
X-1171570Y958219D03*
X-1167632Y951396D03*
X-1171570Y971861D03*
X-1167632Y969585D03*
Y965038D03*
X-1171570Y962766D03*
X-1167632Y983227D03*
X-1171570Y980955D03*
X-1167632Y978680D03*
X-1171570Y976408D03*
X-1167632Y992322D03*
X-1171570Y990050D03*
Y985503D03*
G54D44*
X-1078404Y1172994D03*
G54D36*
X-1080258Y953120D03*
G54D37*
X-1055842D03*
G54D35*
X-1125258D03*
%LPD*%
G75*
G36*
G01X-1021900Y981000D02*
X-1023900Y983000D01*
Y985800D01*
X-1021900Y987800D01*
X-1009400D01*
X-1008700Y987100D01*
Y982800D01*
X-1010500Y981000D01*
X-1021900D01*
G37*
G54D10*
X-1296000Y933000D03*
Y945000D03*
X-1296400Y939700D03*
X-1296000Y957000D03*
X-1296200Y951500D03*
X-1296000Y969000D03*
X-1297300Y1031500D03*
X-1297400Y1062800D03*
X-1297300Y1075800D03*
X-1295966Y1097536D03*
X-1295286Y1104956D03*
X-1297300Y1109400D03*
X-1295000Y1112000D03*
X-1295800Y1115700D03*
X-1296000Y1121000D03*
Y1133000D03*
Y1127600D03*
Y1145000D03*
X-1296300Y1139000D03*
X-1295900Y1158800D03*
X-1296100Y1150900D03*
X-1296000Y1172000D03*
X-1297100Y1165900D03*
X-1296000Y1184000D03*
X-1297200Y1177500D03*
X-1297300Y1191100D03*
X-1296000Y1213000D03*
Y1225000D03*
Y1232000D03*
X-1285500Y925500D03*
X-1283000Y940900D03*
X-1290200Y959400D03*
X-1290000Y957000D03*
X-1289600Y953500D03*
X-1287700Y951500D03*
X-1289950Y961700D03*
X-1289300Y964600D03*
X-1288500Y1002600D03*
X-1288000Y1048756D03*
X-1284900Y1070200D03*
X-1294254Y1085754D03*
X-1291200Y1081800D03*
X-1287500Y1095500D03*
X-1283310Y1113201D03*
Y1106901D03*
X-1291220Y1112000D03*
X-1284072Y1120889D03*
X-1283500Y1131700D03*
X-1283310Y1137939D03*
X-1288300Y1137700D03*
X-1288200Y1131400D03*
X-1291100Y1150000D03*
X-1285900Y1144700D03*
X-1293600Y1155600D03*
X-1284800Y1175100D03*
X-1286733Y1220000D03*
X-1285400Y1217800D03*
X-1292150Y1229050D03*
X-1286400Y1227000D03*
X-1286500Y1234500D03*
X-1289000D03*
X-1291500D03*
X-1278500Y925500D03*
X-1271500D03*
X-1274500Y940700D03*
Y942800D03*
X-1278800Y940700D03*
X-1277600Y953200D03*
X-1278386Y962714D03*
X-1272297Y960497D03*
X-1278900Y969300D03*
X-1271300Y976600D03*
X-1271400Y980400D03*
X-1271200Y972500D03*
X-1270800Y986000D03*
X-1280600Y990200D03*
X-1278139Y1020061D03*
X-1274200Y1029900D03*
X-1277600Y1028100D03*
X-1274200Y1033200D03*
X-1276500Y1035300D03*
X-1274900Y1070000D03*
X-1271200Y1080900D03*
X-1275600Y1084600D03*
X-1280000Y1100300D03*
X-1274343Y1112759D03*
X-1280587Y1122293D03*
X-1277472Y1131639D03*
X-1280500Y1135000D03*
X-1280700Y1146500D03*
X-1277472Y1144239D03*
X-1281980Y1158900D03*
X-1271553Y1168639D03*
X-1280800Y1175000D03*
X-1280400Y1180900D03*
X-1274200Y1206100D03*
X-1275500Y1199400D03*
X-1279749Y1211551D03*
X-1279314Y1219893D03*
X-1274592Y1224600D03*
X-1282000Y1234500D03*
X-1279500D03*
X-1277000D03*
X-1263500Y925500D03*
X-1265800Y940600D03*
X-1270100Y940700D03*
X-1261902Y951298D03*
X-1269100Y953400D03*
X-1261700Y953600D03*
X-1266386Y962500D03*
X-1263200Y960400D03*
X-1262000Y1013300D03*
X-1263400Y1018400D03*
X-1263700Y1023200D03*
X-1258900Y1023800D03*
X-1262400Y1031600D03*
X-1259400D03*
X-1263900Y1035400D03*
X-1264400Y1033100D03*
X-1269586Y1050110D03*
X-1264766Y1074900D03*
X-1266500Y1077400D03*
X-1266400Y1145000D03*
X-1268300Y1157900D03*
X-1262300D03*
X-1267100Y1167742D03*
X-1260276Y1167907D03*
X-1260134Y1183836D03*
X-1258852Y1176621D03*
X-1268671Y1194199D03*
X-1266200Y1207600D03*
X-1260000Y1208600D03*
X-1265900Y1206100D03*
X-1259700Y1221900D03*
X-1259900Y1219200D03*
X-1260100Y1210700D03*
X-1265700Y1219000D03*
X-1263200D03*
X-1268200D03*
X-1267200Y1223000D03*
X-1264700D03*
X-1261800Y1224000D03*
X-1262200Y1227000D03*
X-1264800Y1228500D03*
X-1267200Y1227000D03*
X-1261500Y1231400D03*
X-1264300Y1232100D03*
X-1267200Y1231400D03*
X-1267000Y1234700D03*
X-1252500Y925500D03*
X-1254466Y980650D03*
X-1254934Y973101D03*
X-1250600Y972900D03*
X-1251316Y981100D03*
X-1251200Y976600D03*
X-1255500Y976900D03*
X-1257700Y1007100D03*
X-1254500Y1007000D03*
X-1258400Y1017300D03*
X-1257600Y1032800D03*
X-1251500Y1077100D03*
X-1258400D03*
X-1258110Y1094301D03*
Y1103751D03*
X-1258300Y1113400D03*
X-1254700Y1114000D03*
X-1254500Y1120800D03*
X-1258400Y1134789D03*
X-1257074Y1127805D03*
X-1249400Y1127800D03*
X-1258130Y1141531D03*
X-1257955Y1144856D03*
X-1255800Y1157900D03*
X-1249600D03*
X-1254639Y1168590D03*
X-1249900Y1168500D03*
X-1253800Y1176970D03*
X-1252091Y1183856D03*
X-1255700Y1198000D03*
X-1248200Y1190456D03*
X-1252828Y1188250D03*
X-1247500Y1207000D03*
X-1251200Y1205900D03*
X-1254300Y1208600D03*
X-1251900Y1198300D03*
X-1249500D03*
X-1254158Y1210606D03*
X-1248200Y1210700D03*
X-1254500Y1219000D03*
X-1248000Y1219500D03*
X-1254500Y1222100D03*
X-1248000Y1223000D03*
Y1227000D03*
X-1248600Y1232000D03*
X-1257700D03*
X-1255000Y1231200D03*
X-1252000Y1232000D03*
X-1251200Y1224800D03*
X-1256900Y1225500D03*
X-1255000Y1234700D03*
X-1240500Y925500D03*
X-1245416Y980900D03*
X-1245800Y972500D03*
X-1246100Y976500D03*
X-1238200Y1078600D03*
X-1238900Y1091900D03*
X-1242900D03*
X-1241000D03*
X-1235100Y1103570D03*
X-1242133Y1117609D03*
X-1238000Y1129100D03*
X-1243200Y1127500D03*
X-1242100Y1149200D03*
X-1244700Y1157700D03*
X-1237000Y1171500D03*
X-1245700Y1169400D03*
X-1238900Y1171700D03*
X-1246800Y1181170D03*
X-1237700Y1180200D03*
X-1239900Y1198100D03*
X-1242300Y1207700D03*
X-1235700Y1203300D03*
X-1237900Y1198200D03*
X-1236000Y1211000D03*
X-1243000Y1219500D03*
X-1245500D03*
X-1236200Y1218300D03*
X-1243000Y1223000D03*
X-1245500D03*
X-1243000Y1227000D03*
X-1239400Y1229700D03*
X-1242700Y1231300D03*
X-1245500Y1232000D03*
X-1236900Y1232100D03*
X-1239500Y1224700D03*
X-1243000Y1234700D03*
X-1228500Y925500D03*
X-1228600Y971534D03*
X-1228200Y975200D03*
X-1224700Y975600D03*
X-1233090Y991500D03*
Y996500D03*
X-1228800Y997800D03*
X-1224600Y999400D03*
X-1223200Y1090100D03*
X-1227349Y1142151D03*
X-1223800Y1151770D03*
X-1233400Y1162600D03*
X-1229718Y1203657D03*
X-1233600Y1211000D03*
X-1224631Y1210731D03*
X-1224600Y1219900D03*
X-1230536Y1218200D03*
X-1230900Y1222800D03*
X-1231300Y1231700D03*
X-1234000Y1230900D03*
X-1225000Y1232000D03*
X-1227700Y1230800D03*
X-1227500Y1227000D03*
X-1230600Y1228600D03*
X-1234700Y1226500D03*
X-1231000Y1234700D03*
X-1216500Y925500D03*
X-1221700Y946300D03*
Y940300D03*
X-1215700Y946300D03*
Y940300D03*
X-1221100Y964100D03*
X-1211700Y965600D03*
X-1212100Y991100D03*
X-1220100Y999500D03*
X-1213300Y1005800D03*
X-1218400D03*
X-1211900Y1003400D03*
X-1219100D03*
X-1211400Y1031000D03*
X-1213700Y1035800D03*
X-1211200Y1043700D03*
X-1212400Y1054400D03*
X-1222486Y1050100D03*
X-1212600Y1063300D03*
X-1215000Y1080100D03*
X-1218700Y1089400D03*
X-1211400Y1108670D03*
Y1122950D03*
X-1211461Y1126862D03*
Y1136531D03*
X-1217600Y1194800D03*
X-1215400Y1191700D03*
X-1222600Y1194900D03*
X-1215500Y1186800D03*
X-1213281Y1202119D03*
X-1215900Y1202000D03*
X-1218600Y1210600D03*
X-1212820Y1210680D03*
X-1213500Y1219500D03*
X-1216000D03*
X-1218500D03*
X-1213500Y1223000D03*
X-1216000D03*
X-1218500D03*
X-1212400Y1226500D03*
X-1216000Y1227000D03*
X-1219200Y1226400D03*
X-1212600Y1232100D03*
X-1215800Y1230900D03*
X-1218500Y1232000D03*
X-1222200Y1231200D03*
X-1222500Y1227000D03*
X-1220500Y1234500D03*
X-1204500Y925500D03*
X-1199400Y930600D03*
X-1209700Y946300D03*
Y940300D03*
X-1199600Y936300D03*
X-1203200Y943200D03*
X-1209300Y993200D03*
X-1209100Y983800D03*
X-1204300Y984700D03*
X-1209800Y1013400D03*
X-1208500Y1031600D03*
X-1210500Y1036200D03*
X-1208100Y1043700D03*
X-1200600Y1054800D03*
X-1208500Y1054100D03*
X-1202600Y1054000D03*
X-1204400Y1071200D03*
X-1200800Y1070100D03*
X-1204600Y1083800D03*
X-1199799Y1109198D03*
X-1199818Y1122683D03*
X-1201100Y1116850D03*
X-1205492Y1126620D03*
X-1201450Y1132526D03*
X-1201400Y1128588D03*
X-1201671Y1136296D03*
X-1207692Y1134494D03*
X-1203500Y1144100D03*
X-1209430Y1144281D03*
X-1209100Y1151670D03*
X-1201618Y1151952D03*
X-1210050Y1165170D03*
X-1200200Y1180600D03*
X-1206200Y1180000D03*
X-1200100Y1186200D03*
X-1210500Y1187283D03*
X-1205600Y1193100D03*
X-1202900Y1189800D03*
X-1201500Y1195200D03*
X-1206300Y1202300D03*
X-1204055Y1221745D03*
X-1206400Y1219600D03*
X-1207000Y1234700D03*
X-1197500Y926500D03*
X-1193000Y925400D03*
Y928700D03*
X-1188400Y925300D03*
Y928800D03*
X-1188200Y933000D03*
X-1193000Y933200D03*
X-1195400Y938200D03*
X-1193000Y944500D03*
X-1193200Y949200D03*
X-1193700Y1016700D03*
X-1198800Y1063904D03*
X-1195000Y1068500D03*
X-1188200Y1072800D03*
X-1195890Y1118570D03*
X-1191710Y1122683D03*
X-1193910Y1130635D03*
X-1191710D03*
X-1193910Y1126791D03*
X-1195634Y1138431D03*
X-1187669Y1136296D03*
X-1191800Y1142370D03*
X-1193844Y1152070D03*
X-1192300Y1185400D03*
X-1196700Y1192700D03*
X-1192300Y1188400D03*
X-1192000Y1192600D03*
X-1196800Y1201700D03*
X-1195000Y1234700D03*
X-1182300Y933000D03*
X-1182500Y928800D03*
Y925300D03*
X-1176100Y932800D03*
X-1176300Y928600D03*
Y925100D03*
X-1185300Y1020400D03*
X-1179600Y1020600D03*
X-1181800Y1040700D03*
X-1185797Y1059594D03*
X-1176200Y1060300D03*
X-1185650Y1070368D03*
X-1176028Y1101742D03*
X-1185870Y1114961D03*
X-1186200Y1120870D03*
X-1185940Y1132359D03*
X-1181314Y1162364D03*
X-1182300Y1184200D03*
X-1176664Y1185600D03*
X-1187200D03*
X-1176400Y1181900D03*
X-1181500Y1197000D03*
X-1176464Y1189000D03*
X-1176364Y1192000D03*
Y1195200D03*
X-1182600Y1198200D03*
X-1184155Y1207500D03*
X-1180500Y1212000D03*
X-1185870Y1222130D03*
X-1185000Y1234700D03*
X-1176200D03*
X-1170000Y932900D03*
X-1170200Y928700D03*
Y925200D03*
X-1163500Y928900D03*
Y925400D03*
X-1171100Y1029100D03*
X-1172400Y1030700D03*
X-1174600Y1029500D03*
X-1174900Y1020700D03*
X-1170300Y1102970D03*
X-1166383Y1116587D03*
X-1174638Y1150242D03*
X-1174800Y1153370D03*
X-1166400Y1174500D03*
X-1170900Y1175000D03*
X-1171894Y1211494D03*
X-1165988Y1211412D03*
X-1165400Y1226600D03*
X-1173800Y1227200D03*
X-1166200Y1234700D03*
X-1163300Y933100D03*
X-1157600Y933000D03*
X-1157800Y928800D03*
Y925300D03*
X-1157100Y946100D03*
X-1157300Y941900D03*
Y938400D03*
X-1163100Y969000D03*
X-1156400Y970200D03*
X-1163200Y975700D03*
X-1155900Y975000D03*
X-1152900Y1018500D03*
X-1156400Y1029000D03*
X-1154600Y1026800D03*
X-1157600Y1023000D03*
X-1155500D03*
X-1161900Y1033300D03*
X-1162000Y1036900D03*
X-1157600Y1032700D03*
X-1152700Y1033700D03*
X-1159800Y1049900D03*
X-1159700Y1046800D03*
X-1161700Y1043700D03*
X-1162500Y1130700D03*
X-1151869Y1153351D03*
X-1151900Y1171900D03*
X-1159900Y1197900D03*
X-1160100Y1209300D03*
X-1156052Y1209096D03*
X-1160083Y1211417D03*
X-1154177Y1211623D03*
X-1155000Y1227100D03*
X-1156200Y1234700D03*
X-1145300Y926000D03*
X-1150000Y928500D03*
X-1150500Y926000D03*
X-1145700Y928700D03*
X-1145900Y932200D03*
X-1150100Y932900D03*
X-1147300Y940400D03*
X-1150000Y937000D03*
X-1145600Y937300D03*
X-1148900Y945100D03*
X-1145500Y946800D03*
X-1147800Y959200D03*
X-1147700Y950300D03*
X-1145600Y954600D03*
X-1147800Y966700D03*
X-1150300Y970200D03*
X-1150100Y975100D03*
X-1145100Y997600D03*
X-1140300Y997800D03*
X-1140023Y1043720D03*
X-1140501Y1049399D03*
X-1142300Y1043500D03*
X-1145810Y1126600D03*
X-1144500Y1126400D03*
X-1150400Y1148300D03*
X-1144190Y1148200D03*
X-1142390Y1154100D03*
X-1148300Y1171300D03*
X-1142600Y1172000D03*
X-1150500Y1176800D03*
X-1150600Y1180500D03*
X-1141269Y1190169D03*
X-1147600Y1207900D03*
X-1140500Y1234700D03*
X-1146200D03*
X-1134100Y982600D03*
X-1139400Y977000D03*
X-1133200Y993200D03*
X-1138600Y990300D03*
X-1139500Y984900D03*
X-1133023Y1028520D03*
X-1127823Y1028120D03*
X-1137723Y1028620D03*
X-1127823Y1032420D03*
X-1133023Y1032020D03*
X-1137723Y1032120D03*
X-1127800Y1036300D03*
X-1133000D03*
X-1137000Y1035800D03*
X-1128000Y1046900D03*
X-1134700Y1046200D03*
X-1137123Y1043820D03*
X-1133723D03*
X-1129423D03*
X-1129890Y1147700D03*
X-1132747Y1147783D03*
X-1135599Y1147701D03*
X-1139300Y1149200D03*
X-1129500Y1170800D03*
X-1130200Y1165900D03*
X-1129900Y1184000D03*
X-1138800Y1210000D03*
X-1128330Y1217770D03*
X-1135100Y1228800D03*
X-1126600Y981300D03*
Y976800D03*
X-1122000Y995000D03*
X-1126900Y997000D03*
X-1122823Y1028320D03*
X-1122723Y1032520D03*
X-1122700Y1036400D03*
X-1120600Y1047000D03*
X-1123200Y1047100D03*
X-1125300D03*
X-1122123Y1043920D03*
X-1125423D03*
X-1127070Y1147300D03*
X-1125700Y1191400D03*
X-1120300Y1189200D03*
X-1120852Y1210096D03*
X-1126552Y1209096D03*
X-1127100Y1216200D03*
X-1116200Y1220400D03*
X-1120752Y1213496D03*
X-1126200Y1234700D03*
X-1104100Y1006000D03*
X-1107100Y1005900D03*
X-1103900Y1013200D03*
X-1106800Y1012800D03*
X-1106700Y1009100D03*
X-1103900Y1009000D03*
X-1105700Y1130400D03*
Y1133300D03*
X-1110200Y1147800D03*
X-1111500Y1146100D03*
X-1105600Y1146200D03*
X-1105700Y1142200D03*
X-1107800Y1167800D03*
X-1113900Y1172400D03*
X-1111100Y1181800D03*
X-1106952Y1221996D03*
X-1107152Y1215096D03*
X-1114152Y1214996D03*
X-1114452Y1210196D03*
X-1106952D03*
X-1106200Y1234700D03*
X-1096500Y1003500D03*
X-1095500Y1016600D03*
X-1097500D03*
X-1101400Y1016300D03*
X-1096500Y1008700D03*
X-1099600Y1020000D03*
X-1098400Y1047500D03*
X-1096200D03*
X-1098452Y1209996D03*
X-1098352Y1215196D03*
Y1222296D03*
X-1098100Y1228600D03*
X-1096700Y1234700D03*
X-1081600Y994500D03*
X-1089700Y1006300D03*
X-1089600Y1003300D03*
X-1082500Y1003800D03*
X-1081800Y1016400D03*
X-1083500Y1016700D03*
X-1087700Y1016600D03*
X-1091600Y1016400D03*
X-1089800Y1019000D03*
X-1089600Y1012400D03*
Y1009500D03*
X-1082500Y1008700D03*
X-1082300Y1052600D03*
X-1082700Y1059000D03*
X-1088600Y1099200D03*
X-1081300D03*
X-1080200Y1107100D03*
X-1082500Y1124200D03*
X-1082200Y1120100D03*
X-1089600Y1135400D03*
Y1137400D03*
X-1081300Y1141100D03*
Y1146000D03*
X-1080200Y1148000D03*
X-1081300Y1143000D03*
X-1089600Y1139100D03*
Y1140800D03*
X-1091500Y1162000D03*
X-1087300Y1156700D03*
X-1088698Y1183500D03*
X-1090800Y1216300D03*
Y1210100D03*
X-1083851Y1224302D03*
X-1090700Y1222800D03*
X-1090600Y1228900D03*
X-1086700Y1234700D03*
X-1070700Y991400D03*
X-1076300D03*
X-1070400Y1002400D03*
X-1075900Y1002700D03*
X-1076200Y997500D03*
X-1070300D03*
X-1077200Y1017000D03*
X-1075900Y1007500D03*
X-1070400D03*
Y1018700D03*
X-1070300Y1015400D03*
X-1079300Y1019900D03*
X-1073800Y1030100D03*
X-1072400Y1036100D03*
X-1071600Y1059700D03*
X-1070200Y1082500D03*
X-1070100Y1080200D03*
X-1069800Y1135800D03*
X-1070700Y1133800D03*
X-1075800Y1133200D03*
X-1070100Y1126700D03*
X-1070200Y1143000D03*
X-1070300Y1141300D03*
X-1068200Y1154600D03*
X-1076900Y1185900D03*
X-1076400Y1183800D03*
X-1069100Y1177800D03*
X-1076014Y1191584D03*
X-1069700Y1218900D03*
X-1070200Y1222600D03*
X-1076000Y1226400D03*
X-1062800Y996500D03*
Y1003100D03*
X-1056700Y1003800D03*
X-1056800Y998300D03*
X-1062900Y1009000D03*
X-1063400Y1018600D03*
X-1057600Y1018500D03*
X-1060500Y1016000D03*
X-1066600Y1041200D03*
X-1057700Y1036500D03*
X-1066600Y1045500D03*
X-1065100Y1059700D03*
X-1064100Y1091500D03*
X-1065800D03*
X-1064200Y1107600D03*
X-1062000Y1169600D03*
X-1058100Y1196900D03*
X-1066800Y1197600D03*
X-1067100Y1192400D03*
X-1066600Y1201900D03*
X-1067000Y1209500D03*
X-1056400Y1218800D03*
X-1061852Y1218896D03*
X-1060852Y1215596D03*
X-1064400Y1223100D03*
X-1060200D03*
X-1056100D03*
X-1063200Y1226100D03*
X-1066900Y1234800D03*
X-1060400D03*
X-1050500Y925500D03*
X-1049200Y1006500D03*
X-1050500Y1013300D03*
X-1050300Y1008300D03*
X-1045600Y1027200D03*
X-1055400Y1029300D03*
X-1054900Y1054800D03*
X-1056000Y1047000D03*
X-1051100Y1043200D03*
X-1051600Y1052900D03*
X-1045700Y1060300D03*
X-1054000Y1062800D03*
X-1051890Y1081537D03*
X-1050490Y1080237D03*
X-1048000Y1085500D03*
X-1048800Y1078900D03*
X-1047200Y1107813D03*
X-1046890Y1105837D03*
X-1044600Y1126000D03*
X-1050600Y1135200D03*
X-1050300Y1144800D03*
X-1049400Y1143300D03*
X-1052000Y1169400D03*
X-1044152Y1180252D03*
X-1047300Y1179900D03*
X-1045430Y1195954D03*
X-1053700Y1196600D03*
X-1051600Y1218600D03*
X-1055760Y1215596D03*
X-1052000Y1215700D03*
X-1051700Y1223100D03*
X-1055100Y1226100D03*
X-1050000Y1234700D03*
X-1045000D03*
X-1040500Y925500D03*
X-1034900Y944500D03*
Y958000D03*
Y951500D03*
X-1033900Y971000D03*
X-1037600Y970900D03*
X-1041500D03*
X-1034900Y964500D03*
X-1034300Y1006500D03*
X-1041600Y1006800D03*
X-1033900Y1000400D03*
X-1038400Y1011200D03*
X-1034000Y1011300D03*
X-1039900Y1013700D03*
X-1040400Y1008500D03*
X-1039300Y1024800D03*
X-1037100Y1024700D03*
X-1042800Y1038300D03*
X-1042100Y1036300D03*
X-1039600Y1064400D03*
X-1035100Y1064600D03*
X-1037400Y1066400D03*
X-1033400Y1066500D03*
X-1041000Y1061800D03*
X-1039100Y1060100D03*
X-1035300Y1060300D03*
X-1037100Y1062200D03*
X-1033100Y1062500D03*
X-1039800Y1076700D03*
Y1073400D03*
X-1036800Y1072100D03*
X-1037100Y1075200D03*
X-1037600Y1078500D03*
X-1033800Y1074900D03*
X-1033600Y1072300D03*
X-1034700Y1078200D03*
X-1039900Y1090500D03*
Y1088000D03*
Y1085500D03*
Y1080500D03*
Y1083000D03*
X-1037700Y1086800D03*
X-1037800Y1084200D03*
Y1081600D03*
X-1033100Y1087100D03*
Y1084800D03*
X-1033000Y1082200D03*
X-1035300Y1082100D03*
X-1035500Y1084500D03*
X-1035300Y1086600D03*
X-1040300Y1095800D03*
X-1039900Y1093000D03*
X-1040000Y1097900D03*
X-1040400Y1100500D03*
X-1037800Y1091000D03*
X-1042300Y1099100D03*
X-1042400Y1101500D03*
X-1032700Y1100500D03*
Y1097400D03*
X-1032900Y1094700D03*
Y1092200D03*
X-1040400Y1103000D03*
X-1040000Y1105400D03*
Y1107900D03*
X-1038400Y1111700D03*
X-1042400Y1104300D03*
X-1042100Y1106900D03*
X-1032700Y1105500D03*
Y1103000D03*
X-1039500Y1123900D03*
X-1037700Y1114800D03*
X-1033400Y1117100D03*
X-1032600Y1119500D03*
X-1037600Y1151300D03*
X-1042200Y1154400D03*
X-1042139Y1161888D03*
X-1041000Y1160600D03*
X-1041600Y1170000D03*
Y1168200D03*
X-1036600Y1180400D03*
X-1042200Y1186800D03*
X-1034200Y1188400D03*
X-1039600Y1197590D03*
X-1040018Y1191843D03*
X-1037900Y1186800D03*
X-1038800Y1206100D03*
X-1039000Y1202800D03*
X-1033000Y1217000D03*
X-1038900Y1223200D03*
X-1034000Y1225900D03*
X-1040000Y1234700D03*
X-1035000D03*
X-1025400Y935500D03*
X-1027500Y925500D03*
X-1029900Y939500D03*
X-1027500Y970400D03*
X-1022400Y961000D03*
X-1025900Y979400D03*
X-1020400Y989500D03*
X-1022600Y983500D03*
X-1028500Y1006500D03*
X-1029400Y1000400D03*
X-1028500Y1011200D03*
X-1024200Y1023400D03*
X-1026200Y1024200D03*
X-1029900Y1024600D03*
X-1026579Y1028800D03*
X-1030000Y1056600D03*
X-1024300Y1056500D03*
X-1027300Y1065400D03*
X-1023700Y1064300D03*
X-1030700Y1064100D03*
X-1027700Y1068200D03*
X-1024600Y1070300D03*
X-1021600Y1073300D03*
X-1022800Y1067300D03*
X-1027800Y1075400D03*
X-1028000Y1077700D03*
X-1025100Y1078000D03*
X-1030200Y1067100D03*
X-1030500Y1074200D03*
X-1031000Y1077300D03*
X-1030400Y1087200D03*
X-1027700D03*
X-1024700D03*
X-1021800Y1087400D03*
X-1030400Y1084900D03*
X-1027700D03*
X-1024700D03*
X-1021900Y1084800D03*
X-1029400Y1082300D03*
X-1026300D03*
X-1022900Y1082200D03*
X-1028000Y1080300D03*
X-1031600Y1080200D03*
X-1024900Y1080300D03*
X-1029800Y1092000D03*
X-1026800Y1092100D03*
X-1027900Y1094700D03*
X-1030400D03*
X-1027700Y1097400D03*
X-1030200D03*
X-1027700Y1100500D03*
X-1030200D03*
X-1025800Y1100600D03*
Y1097500D03*
X-1026000Y1094800D03*
X-1023400Y1102600D03*
X-1021563Y1096561D03*
X-1023700Y1096400D03*
X-1025700Y1114000D03*
X-1027500Y1112400D03*
X-1025100Y1109700D03*
X-1027700Y1103000D03*
X-1030200D03*
X-1025800Y1103100D03*
X-1024000Y1104800D03*
X-1022500Y1107900D03*
X-1021700Y1105500D03*
X-1021500Y1119400D03*
X-1030100Y1119500D03*
X-1022800Y1130200D03*
Y1134200D03*
Y1138200D03*
X-1026800D03*
Y1134200D03*
Y1130200D03*
X-1030800D03*
Y1134200D03*
Y1138200D03*
X-1030922Y1146278D03*
X-1026800Y1146200D03*
X-1022800D03*
Y1142200D03*
X-1026800D03*
X-1030800D03*
X-1022100Y1168500D03*
X-1028300Y1170200D03*
X-1030800Y1186200D03*
X-1030400Y1179600D03*
X-1021400Y1178300D03*
X-1021700Y1181600D03*
X-1021800Y1185100D03*
X-1024200Y1174400D03*
X-1023000Y1190400D03*
X-1022900Y1193100D03*
X-1029200Y1193200D03*
X-1028200Y1198000D03*
X-1031500Y1190600D03*
X-1029000Y1188900D03*
X-1020800Y1190400D03*
X-1021400Y1211600D03*
X-1028619Y1211800D03*
X-1023200Y1220500D03*
X-1020900Y1217600D03*
X-1028500Y1220300D03*
X-1030500Y1226100D03*
X-1031400Y1222300D03*
X-1023000Y1223700D03*
X-1023100Y1229100D03*
X-1028400Y1223400D03*
X-1028100Y1234600D03*
X-1023100D03*
X-1015500Y925500D03*
X-1018900Y964500D03*
X-1011900Y975000D03*
X-1012897Y1009969D03*
X-1014100Y1024300D03*
X-1014300Y1021500D03*
X-1015200Y1019900D03*
X-1019527Y1026856D03*
X-1009600Y1066800D03*
X-1012241Y1066758D03*
X-1012800Y1064700D03*
X-1009600Y1064500D03*
X-1009200Y1061900D03*
X-1019400Y1056500D03*
X-1018700Y1066200D03*
X-1013200Y1068600D03*
X-1012100Y1070300D03*
X-1009600Y1070200D03*
X-1018400Y1073500D03*
X-1018500Y1076800D03*
X-1014100Y1078800D03*
X-1010400Y1078500D03*
X-1019200Y1069500D03*
X-1016000Y1069900D03*
X-1017400Y1080200D03*
X-1016600Y1083500D03*
X-1016400Y1086800D03*
Y1089300D03*
X-1010400Y1081400D03*
X-1014100Y1081700D03*
X-1010300Y1084600D03*
X-1014000Y1084900D03*
X-1010400Y1087700D03*
X-1014100Y1088000D03*
X-1010400Y1090500D03*
X-1013900Y1090700D03*
X-1016400Y1091800D03*
Y1096700D03*
Y1099700D03*
X-1019100Y1096500D03*
X-1014000Y1093500D03*
X-1010500Y1093300D03*
X-1011400Y1096200D03*
X-1008900Y1098900D03*
X-1013300Y1099800D03*
X-1016600Y1112500D03*
X-1016800Y1108400D03*
X-1013800Y1110100D03*
X-1016700Y1103000D03*
X-1015000Y1111500D03*
X-1012200Y1109400D03*
X-1011000Y1115600D03*
X-1010900Y1119200D03*
Y1121200D03*
Y1123200D03*
Y1124900D03*
X-1018800Y1138200D03*
Y1134200D03*
Y1130200D03*
Y1146200D03*
Y1142200D03*
X-1009800Y1157500D03*
X-1017600Y1156800D03*
X-1010800Y1153800D03*
X-1017800Y1169100D03*
X-1013300Y1169000D03*
X-1010900Y1172500D03*
X-1018100Y1172400D03*
X-1020100Y1175539D03*
X-1016000Y1178200D03*
X-1016900Y1182600D03*
X-1009700Y1197000D03*
X-1011200Y1193500D03*
X-1010000Y1204200D03*
X-1014600Y1207700D03*
X-1013500Y1202800D03*
X-1015200Y1212200D03*
X-1015900Y1219500D03*
X-1011500Y1218400D03*
X-1010300Y1213700D03*
X-1018300Y1229300D03*
X-1008800Y1231300D03*
X-1014300Y1229300D03*
X-1016900Y1234300D03*
X-1008600Y1234200D03*
X-1004500Y925500D03*
X-1003900Y991500D03*
X-998900Y992000D03*
X-1001300Y1030500D03*
X-1001100Y1040100D03*
X-1005900Y1049410D03*
X-1003800Y1053300D03*
X-1003900Y1056800D03*
X-1005400Y1075500D03*
X-1006300Y1078300D03*
X-1002900Y1078400D03*
X-996900Y1076400D03*
X-996500Y1073300D03*
X-1005900Y1072600D03*
X-1006300Y1081200D03*
X-1002900Y1081300D03*
X-1006200Y1084400D03*
X-1002800Y1084500D03*
X-1006300Y1087500D03*
X-1002900Y1087600D03*
X-1006300Y1090300D03*
X-1003100Y1090400D03*
X-997200Y1080100D03*
Y1083400D03*
Y1089900D03*
Y1086600D03*
X-1003600Y1093300D03*
X-1006800Y1093200D03*
X-1004500Y1096200D03*
X-1007700Y1096100D03*
X-1005700Y1099000D03*
X-1007100Y1101600D03*
X-997400Y1100300D03*
X-996900Y1095800D03*
X-996500Y1092300D03*
X-1005300Y1101700D03*
X-1003900Y1098300D03*
X-1003100Y1094900D03*
X-999400Y1100800D03*
X-998800Y1098800D03*
X-998300Y1096800D03*
X-1001600Y1114500D03*
X-998300Y1113500D03*
X-1004000Y1112100D03*
X-1001800Y1109400D03*
X-1000100Y1106700D03*
X-998400Y1103600D03*
X-999900Y1111600D03*
X-997500Y1109000D03*
X-996600Y1106000D03*
X-1004100Y1109900D03*
X-1002300Y1107200D03*
X-1001000Y1104700D03*
X-1000200Y1102800D03*
X-1005700Y1111500D03*
X-1006800Y1114800D03*
X-1005600Y1119600D03*
X-1001200Y1125600D03*
X-1001900Y1136800D03*
Y1133600D03*
X-1007400Y1147500D03*
X-1007300Y1153700D03*
X-1007000Y1169100D03*
Y1190700D03*
X-1008100Y1209300D03*
X-998600Y1217900D03*
X-1005300Y1213600D03*
X-1001400Y1233900D03*
X-1001200Y1231500D03*
X-996800Y1223600D03*
X-996700Y1231300D03*
X-995400Y935500D03*
X-989400D03*
X-993500Y925500D03*
X-989400Y939000D03*
X-995400D03*
X-988800Y951900D03*
X-988858Y961442D03*
X-989400Y966000D03*
X-994400Y965000D03*
X-991900Y992000D03*
X-989100Y994900D03*
X-991000Y1002500D03*
X-989100Y1006900D03*
X-990900Y1011100D03*
X-994100Y1030100D03*
X-994200Y1027200D03*
X-990200Y1019400D03*
X-988900Y1023900D03*
X-993900Y1036800D03*
X-991800Y1051300D03*
X-994800Y1051100D03*
X-995400Y1047500D03*
X-991700Y1047300D03*
X-991600Y1063500D03*
X-994300Y1160900D03*
X-993600Y1153300D03*
X-989400Y1155000D03*
Y1167000D03*
X-988900Y1174000D03*
X-988800Y1181900D03*
X-992500Y1174600D03*
X-991200Y1180900D03*
X-995600Y1184200D03*
X-994900Y1177200D03*
X-992800Y1218100D03*
X-991300Y1232600D03*
X-990500Y1223600D03*
G54D11*
X-1289000Y979300D03*
Y1201170D03*
X-996530Y979300D03*
Y1201170D03*
G54D20*
X-1215600Y931679D03*
G54D30*
G01X-1294393Y929299D02*
X-1291429D01*
G01X-1294393Y945835D02*
X-1291429D01*
G01Y929299D02*
Y934232D01*
G01Y929299D02*
X-1288465D01*
G01X-1291429Y940902D02*
Y945835D01*
G01D02*
Y950768D01*
G01X-1289000Y968855D02*
Y979300D01*
G01D02*
Y989745D01*
G01Y979300D02*
X-1278555D01*
G01X-1289000Y1190725D02*
Y1201170D01*
G01D02*
Y1211615D01*
G01Y1201170D02*
X-1278555D01*
G01X-1260535Y929299D02*
X-1257571D01*
G01D02*
Y934232D01*
G01Y929299D02*
X-1254607D01*
G01X-1257571Y940902D02*
Y945835D01*
G01D02*
Y950768D01*
G01Y945835D02*
X-1254607D01*
G01X-1227726Y948793D02*
Y953726D01*
G01D02*
Y958659D01*
G01X-1232659Y953726D02*
X-1227726D01*
G01D02*
X-1222793D01*
G01X-1215600Y928124D02*
Y931679D01*
G01D02*
Y935234D01*
G01X-1222052Y931679D02*
X-1215600D01*
G01D02*
X-1209148D01*
G01X-1203474Y948793D02*
Y953726D01*
G01D02*
Y958659D01*
G01X-1208407Y953726D02*
X-1203474D01*
G01D02*
X-1198541D01*
G01X-996530Y968855D02*
Y979300D01*
G01D02*
Y989745D01*
G01X-1006975Y979300D02*
X-996530D01*
G01Y1190725D02*
Y1201170D01*
G01D02*
Y1211615D01*
G01X-1006975Y1201170D02*
X-996530D01*
G54D21*
X-1182396Y948444D03*
X-1156806Y958680D03*
G54D12*
X-1293334Y996366D03*
Y1006366D03*
X-1125258Y988120D03*
G54D31*
G01X-990330Y922200D02*
X-1295300D01*
G02X-1300300Y927200I0J5000D01*
G01Y1232170D01*
G01D02*
G02X-1295300Y1237170I5000J0D01*
G01D02*
X-990330D01*
G01X-985330Y927200D02*
G02X-990330Y922200I-5000J0D01*
G01X-985330Y1232170D02*
Y927200D01*
G01X-990330Y1237170D02*
G02X-985330Y1232170I0J-5000D01*
G54D13*
X-1291429Y929299D03*
Y945835D03*
X-1257571Y929299D03*
Y945835D03*
G54D22*
X-1177475Y996081D03*
X-1163695Y943916D03*
G54D32*
G01X-990330Y1237170D02*
X-1295300D01*
G03X-1300300Y1232170I0J-5000D01*
G01Y927200D01*
G03X-1295300Y922200I5000J0D01*
G01X-990330D01*
G03X-985330Y927200I0J5000D01*
G01Y1232170D01*
G03X-990330Y1237170I-5000J0D01*
G54D14*
X-1285878Y943669D03*
X-1263122D03*
G54D23*
X-1167632Y960491D03*
X-1171570Y953672D03*
Y967314D03*
X-1167632Y974133D03*
Y987774D03*
G54D33*
G01X-1223868Y958636D02*
Y961600D01*
G01D02*
Y964564D01*
G01X-1226832Y961600D02*
X-1223868D01*
G01D02*
X-1220904D01*
G01X-1171570Y951495D02*
Y953672D01*
G01D02*
Y955849D01*
G01X-1173747Y953672D02*
X-1171570D01*
G01D02*
X-1169393D01*
G01X-1167632Y958314D02*
Y960491D01*
G01X-1171570Y965137D02*
Y967314D01*
G01D02*
Y969491D01*
G01X-1173747Y967314D02*
X-1171570D01*
G01D02*
X-1169393D01*
G01X-1167632Y960491D02*
Y962668D01*
G01X-1169809Y960491D02*
X-1167632D01*
G01D02*
X-1165455D01*
G01X-1167632Y971956D02*
Y974133D01*
G01D02*
Y976310D01*
G01X-1169809Y974133D02*
X-1167632D01*
G01D02*
X-1165455D01*
G01X-1167632Y985597D02*
Y987774D01*
G01D02*
Y989951D01*
G01X-1169809Y987774D02*
X-1167632D01*
G01D02*
X-1165455D01*
G01X-1129010Y988120D02*
X-1125258D01*
G01Y984368D02*
Y988120D01*
G01D02*
Y991872D01*
G01Y988120D02*
X-1121506D01*
G54D24*
X-1125258Y953120D03*
X-1080258D03*
G54D15*
X-1289900Y1068396D03*
Y1060404D03*
X-1259900Y1064400D03*
X-1223868Y961600D03*
X-1041316Y1050456D03*
X-1011316Y1046460D03*
Y1054452D03*
G54D25*
X-1078404Y1081656D03*
Y1172994D03*
G54D16*
X-1272383Y1020061D03*
X-1243249D03*
G54D26*
X-1055842Y953120D03*
X-1015842D03*
G54D17*
X-1242508Y931176D03*
G54D27*
X-1011201Y1074147D03*
Y1105643D03*
X-993400Y999069D03*
Y1016391D03*
Y1041669D03*
Y1058991D03*
Y1170539D03*
Y1187861D03*
G54D18*
X-1242508Y941176D03*
Y951176D03*
G54D28*
G01X-1182396Y948444D02*
Y939096D01*
G01X-1156806Y958680D02*
Y948950D01*
G54D19*
X-1227726Y953726D03*
X-1203474D03*
G54D29*
G01X-1246860Y931176D02*
X-1242508D01*
G01Y926824D02*
Y931176D01*
G01D02*
Y935528D01*
G01Y931176D02*
X-1238156D01*
M02*
