G04 ================== begin FILE IDENTIFICATION RECORD ==================*
G04 Layout Name:  beagleplayv022_10.brd*
G04 Film Name:    L4_PWR*
G04 File Format:  Gerber RS274X*
G04 File Origin:  Cadence Allegro 17.4-S032*
G04 Origin Date:  Wed Feb 15 11:40:44 2023*
G04 *
G04 Layer:  VIA CLASS/LAY4_PWR1*
G04 Layer:  PIN/LAY4_PWR1*
G04 Layer:  ETCH/LAY4_PWR1*
G04 Layer:  BOARD GEOMETRY/OUTLINE*
G04 *
G04 Offset:    (0.00 0.00)*
G04 Mirror:    No*
G04 Mode:      Positive*
G04 Rotation:  0*
G04 FullContactRelief:  No*
G04 UndefLineWidth:     4.00*
G04 ================== end FILE IDENTIFICATION RECORD ====================*
%FSLAX25Y25*MOIN*%
%IR0*IPPOS*OFA0.00000B0.00000*MIA0B0*SFA1.00000B1.00000*%
%ADD16C,.06*%
%ADD10C,.016*%
%ADD23C,.0315*%
%ADD20O,.117X.05906*%
%ADD18C,.075*%
%ADD26C,.05512*%
%ADD14C,.02362*%
%ADD28C,.03543*%
%ADD15C,.04724*%
%ADD17R,.075X.075*%
%ADD25O,.06299X.10236*%
%ADD19C,.08661*%
%ADD22C,.06693*%
%ADD12C,.06299*%
%ADD21O,.06693X.13386*%
%ADD24C,.12795*%
%ADD27C,.12598*%
%ADD13O,.04724X.08661*%
%ADD11C,.19685*%
%ADD29C,.015*%
%ADD30C,.034*%
%ADD31C,.025*%
%ADD32C,.035*%
%ADD33C,.005*%
%ADD34C,.004*%
%ADD44C,.02004*%
%ADD42C,.07102*%
%ADD38C,.02404*%
%ADD45C,.06006*%
%ADD49C,.04162*%
%ADD37C,.08304*%
%ADD47C,.0583*%
%ADD41C,.05146*%
%ADD43C,.04546*%
%ADD35C,.03944*%
%ADD46C,.05844*%
%ADD39C,.03954*%
%ADD36C,.0858*%
%ADD48C,.09454*%
%ADD40C,.03768*%
%ADD51C,.1504*%
%ADD50C,.14872*%
G75*
%LPD*%
G75*
G36*
G01X-1005600Y1235500D02*
X-992100D01*
X-986400Y1229800D01*
Y1205485D01*
G02X-987166Y1205323I-400J0D01*
G03X-996530Y1211414I-9364J-4152D01*
G03Y1190926I0J-10244D01*
G03X-987166Y1197017I0J10243D01*
G02X-986400Y1196855I366J-162D01*
G01Y983615D01*
G02X-987166Y983453I-400J0D01*
G03X-996530Y989544I-9364J-4152D01*
G03Y969056I0J-10244D01*
G03X-987166Y975147I0J10243D01*
G02X-986400Y974985I366J-162D01*
G01Y927000D01*
X-989400Y924000D01*
X-1051000D01*
X-1051400Y924400D01*
Y947345D01*
G03Y958895I-4441J5775D01*
G01Y966300D01*
X-1053898Y968799D01*
Y969423D01*
X-1059177Y974702D01*
X-1074923D01*
X-1078223Y971402D01*
X-1125277D01*
X-1125327Y971452D01*
X-1127327D01*
X-1130577Y974702D01*
X-1137523D01*
X-1143002Y969223D01*
Y924399D01*
X-1143400Y924000D01*
X-1153333D01*
G02X-1153616Y924683I0J400D01*
G01X-1151248Y927050D01*
Y965150D01*
X-1153550Y967452D01*
X-1159950D01*
X-1162152Y965250D01*
Y948463D01*
G02X-1162649Y948075I-400J0D01*
G03Y939757I-1046J-4159D01*
G02X-1162152Y939369I97J-388D01*
G01Y937750D01*
X-1163350Y936552D01*
X-1176050D01*
X-1177048Y937550D01*
Y952750D01*
X-1177727Y953428D01*
X-1177742Y953470D01*
G03X-1186930Y953771I-4654J-1680D01*
G01X-1187952Y952750D01*
Y937350D01*
X-1188750Y936552D01*
X-1193750D01*
X-1196152Y934150D01*
Y924000D01*
X-1292800D01*
X-1297400Y928600D01*
Y972279D01*
G02X-1296699Y972543I400J0D01*
G03X-1289000Y969056I7699J6756D01*
G03Y989544I0J10244D01*
G03X-1296699Y986057I0J-10243D01*
G02X-1297400Y986321I-301J264D01*
G01Y988200D01*
X-1294800Y990800D01*
X-1279900D01*
X-1277102Y988001D01*
Y970381D01*
X-1280081Y967402D01*
X-1284581D01*
X-1287802Y964181D01*
Y950119D01*
X-1287800Y950118D01*
Y949200D01*
X-1285200Y946600D01*
X-1261300D01*
X-1261017Y946883D01*
G02X-1260334Y946600I283J-283D01*
G01Y943866D01*
G03X-1254808I2763J1D01*
G01Y947804D01*
G03X-1254875Y948412I-2763J3D01*
G02X-1254485Y948900I390J88D01*
G01X-1245981D01*
G03X-1242508Y947024I3473J2277D01*
G03X-1238731Y949451I0J4152D01*
G01X-1238716Y949484D01*
X-1233001Y955199D01*
G02X-1232329Y954824I283J-283D01*
G03X-1232458Y953726I4603J-1097D01*
G03X-1222994I4732J0D01*
G03X-1223870Y956468I-4732J-1D01*
G02X-1223544Y957100I326J232D01*
G01X-1207656D01*
G02X-1207330Y956468I0J-400D01*
G03X-1208206Y953726I3856J-2743D01*
G03X-1198742I4732J0D01*
G03X-1202709Y958396I-4732J0D01*
G02X-1202927Y959073I65J395D01*
G01X-1201884Y960116D01*
G02X-1201202Y959825I282J-283D01*
G01Y959800D01*
G03X-1200223Y958619I1202J0D01*
G02X-1199898Y958194I-74J-393D01*
G03X-1199902Y958100I1198J-98D01*
G03X-1197498I1202J0D01*
G03X-1198477Y959281I-1202J0D01*
G02X-1198802Y959706I74J393D01*
G03X-1198798Y959800I-1198J98D01*
G03X-1200000Y961002I-1202J0D01*
G01X-1200025D01*
G02X-1200316Y961684I-8J400D01*
G01X-1186900Y975100D01*
Y1015600D01*
X-1180300Y1022200D01*
X-1154799D01*
G02X-1154400Y1021775I0J-400D01*
G03X-1154402Y1021700I1200J-70D01*
G03X-1153200Y1020498I1202J0D01*
G03X-1152023Y1021457I0J1202D01*
G02X-1151529Y1021763I392J-81D01*
G03X-1151221Y1021723I308J1162D01*
G03X-1150262Y1022200I0J1203D01*
G01X-1139329D01*
G02X-1139001Y1021572I0J-400D01*
G03X-1139215Y1020887I989J-685D01*
G03X-1136811I1202J0D01*
G03X-1137025Y1021572I-1203J0D01*
G02X-1136697Y1022200I328J228D01*
G01X-1129451D01*
G02X-1129139Y1021550I0J-400D01*
G03X-1129402Y1020800I938J-750D01*
G03X-1126998I1202J0D01*
G03X-1127261Y1021550I-1201J0D01*
G02X-1126949Y1022200I312J250D01*
G01X-1125034D01*
G02X-1124726Y1021545I0J-400D01*
G03X-1125002Y1020778I926J-766D01*
G03X-1122598I1202J0D01*
G03X-1122874Y1021545I-1202J1D01*
G02X-1122566Y1022200I308J255D01*
G01X-1119562D01*
G02X-1119254Y1021545I0J-400D01*
G03X-1119530Y1020778I926J-766D01*
G03X-1117126I1202J0D01*
G03X-1117402Y1021545I-1202J1D01*
G02X-1117094Y1022200I308J255D01*
G01X-1115000D01*
X-1111100Y1026100D01*
Y1030800D01*
X-1109700Y1032200D01*
X-1108725D01*
G02X-1108394Y1031575I0J-400D01*
G03X-1108602Y1030900I994J-676D01*
G03X-1107400Y1029698I1202J0D01*
G03X-1106201Y1030818I0J1202D01*
G02X-1105776Y1031190I399J-27D01*
G03X-1105700Y1031188I70J1200D01*
G03X-1104546Y1032054I0J1202D01*
G01X-1104504Y1032198D01*
X-1072766D01*
G02X-1072456Y1031545I0J-400D01*
G03X-1072727Y1030785I930J-760D01*
G03X-1070323I1202J0D01*
G03X-1070594Y1031545I-1201J0D01*
G02X-1070284Y1032198I310J253D01*
G01X-1058741D01*
G02X-1058431Y1031545I0J-400D01*
G03X-1058702Y1030785I930J-760D01*
G03X-1056298I1202J0D01*
G03X-1056569Y1031545I-1201J0D01*
G02X-1056259Y1032198I310J253D01*
G01X-1054999D01*
X-1051100Y1028300D01*
X-1050082D01*
X-1050081Y1028298D01*
X-1040919D01*
X-1040918Y1028300D01*
X-1040700D01*
X-1036801Y1032198D01*
X-1016319D01*
X-1016318Y1032200D01*
X-1016100D01*
X-1005170Y1043130D01*
G02X-1004566Y1043085I283J-283D01*
G03X-1003600Y1042598I966J715D01*
G03X-1002398Y1043800I0J1202D01*
G03X-1002885Y1044766I-1202J0D01*
G02X-1002930Y1045370I238J321D01*
G01X-998500Y1049800D01*
Y1050018D01*
X-998198Y1050319D01*
Y1145710D01*
G02X-997749Y1146107I400J0D01*
G03X-997600Y1146098I147J1193D01*
G03X-996398Y1147300I0J1202D01*
G03X-996658Y1148047I-1203J0D01*
G02X-996608Y1148596I314J248D01*
G03X-996198Y1149500I-792J904D01*
G03X-997400Y1150702I-1202J0D01*
G03X-997699Y1150664I1J-1202D01*
G02X-998198Y1151052I-99J387D01*
G01Y1185281D01*
X-1007698Y1194781D01*
Y1230381D01*
X-1008300Y1230982D01*
Y1232800D01*
X-1005600Y1235500D01*
G37*
G36*
G01X-1265300Y993100D02*
X-1290615D01*
G02X-1290890Y993790I1J400D01*
G03X-1289783Y996366I-2444J2576D01*
G03X-1293334Y999917I-3551J0D01*
G03X-1296359Y998225I0J-3550D01*
G02X-1297100Y998434I-341J209D01*
G01Y1004298D01*
G02X-1296359Y1004507I400J0D01*
G03X-1293334Y1002815I3025J1858D01*
G03Y1009917I0J3551D01*
G03X-1296359Y1008225I0J-3550D01*
G02X-1297100Y1008434I-341J209D01*
G01Y1099897D01*
G02X-1296509Y1100248I400J0D01*
G03X-1295936Y1100102I574J1056D01*
G01X-1295934D01*
G03Y1102506I0J1202D01*
G01X-1295936D01*
G03X-1296509Y1102360I1J-1202D01*
G02X-1297100Y1102711I-191J351D01*
G01Y1161000D01*
X-1294200Y1163900D01*
X-1282800D01*
X-1273200Y1173500D01*
X-1252400D01*
X-1239900Y1186000D01*
X-1199953D01*
G02X-1199585Y1185443I0J-400D01*
G03X-1199682Y1184970I1105J-473D01*
G03X-1197278I1202J0D01*
G03X-1197375Y1185443I-1202J0D01*
G02X-1197007Y1186000I368J157D01*
G01X-1182900D01*
X-1180600Y1183700D01*
Y1175974D01*
G02X-1181075Y1175581I-400J0D01*
G03X-1181297Y1175602I-224J-1181D01*
G01X-1181300D01*
G03Y1173198I0J-1202D01*
G01X-1181297D01*
G03X-1181075Y1173219I-2J1202D01*
G02X-1180600Y1172826I75J-393D01*
G01Y1152700D01*
X-1183900Y1149400D01*
X-1193000D01*
X-1194600Y1151000D01*
Y1160181D01*
G02X-1194150Y1160577I400J-1D01*
G03X-1194000Y1160568I147J1193D01*
G03Y1162972I0J1202D01*
G03X-1194150Y1162963I-3J-1202D01*
G02X-1194600Y1163359I-50J397D01*
G01Y1176400D01*
X-1195700Y1177500D01*
X-1200900D01*
X-1203400Y1175000D01*
Y1167100D01*
X-1205900Y1164600D01*
X-1206184D01*
X-1206285Y1164702D01*
X-1223515D01*
X-1223616Y1164600D01*
X-1225100D01*
X-1226500Y1163200D01*
Y1158500D01*
X-1221385Y1153385D01*
G02X-1221478Y1152751I-283J-282D01*
G03X-1222002Y1151870I479J-881D01*
G03X-1221000Y1150868I1002J0D01*
G03X-1220119Y1151392I0J1003D01*
G02X-1219485Y1151485I352J-190D01*
G01X-1212902Y1144901D01*
Y1143766D01*
G02X-1213273Y1143367I-400J0D01*
G03Y1141369I73J-999D01*
G02X-1212902Y1140970I-29J-399D01*
G01Y1139996D01*
G02X-1213338Y1139598I-400J0D01*
G03X-1213430Y1139602I-89J-998D01*
G03Y1137598I0J-1002D01*
G03X-1213338Y1137602I3J1002D01*
G02X-1212902Y1137204I36J-398D01*
G01Y1135960D01*
G02X-1213290Y1135561I-400J1D01*
G03X-1214265Y1134559I27J-1002D01*
G01Y1134558D01*
G03X-1214160Y1134112I1002J0D01*
G01X-1214150Y1134092D01*
X-1214139Y1134048D01*
G02X-1214333Y1133800I-194J-48D01*
G01X-1214657D01*
X-1214696Y1133817D01*
G03X-1215504I-404J-918D01*
G01X-1215543Y1133800D01*
X-1224900D01*
X-1226746Y1131954D01*
X-1226886Y1132062D01*
G03X-1227500Y1132272I-614J-793D01*
G03Y1130268I0J-1002D01*
G01X-1227491D01*
G02X-1227092Y1129812I3J-400D01*
G03X-1227102Y1129672I992J-141D01*
G01Y1129670D01*
G03X-1226600Y1128802I1001J0D01*
G01X-1226500Y1128744D01*
Y1121235D01*
X-1226617Y1121181D01*
G03X-1226997Y1120877I417J-911D01*
G02X-1227653Y1120906I-318J243D01*
G03X-1228500Y1121372I-847J-537D01*
G03Y1119368I0J-1002D01*
G03X-1227703Y1119763I0J1002D01*
G02X-1227047Y1119734I318J-243D01*
G03X-1226617Y1119359I846J536D01*
G01X-1226500Y1119305D01*
Y1087800D01*
X-1261600Y1052700D01*
Y1035254D01*
G02X-1262097Y1034866I-400J0D01*
G03X-1262388Y1034902I-292J-1166D01*
G01X-1262390D01*
G03Y1032498I0J-1202D01*
G01X-1262388D01*
G03X-1262097Y1032534I-1J1202D01*
G02X-1261600Y1032146I97J-388D01*
G01Y996800D01*
X-1265300Y993100D01*
G37*
G36*
G01X-1019700Y1210002D02*
G03X-1020225Y1209881I1J-1202D01*
G02X-1020800Y1210241I-175J360D01*
G01Y1210558D01*
G03Y1212642I-601J1042D01*
G01Y1216391D01*
X-1020643Y1216426D01*
G03Y1218774I-257J1174D01*
G01X-1020800Y1218809D01*
Y1219200D01*
X-1021999Y1220399D01*
X-1021998Y1220484D01*
Y1220500D01*
G03X-1023200Y1221702I-1202J0D01*
G01X-1023216D01*
X-1023301Y1221701D01*
X-1029000Y1227400D01*
X-1034295D01*
G02X-1034691Y1227850I1J400D01*
G03X-1034682Y1228000I-1193J147D01*
G03X-1037086I-1202J0D01*
G03X-1037077Y1227850I1202J-3D01*
G02X-1037473Y1227400I-397J-50D01*
G01X-1039807D01*
G02X-1040203Y1227850I1J400D01*
G03X-1040194Y1228000I-1193J147D01*
G03X-1042598I-1202J0D01*
G03X-1042589Y1227850I1202J-3D01*
G02X-1042985Y1227400I-397J-50D01*
G01X-1045226D01*
G02X-1045619Y1227875I0J400D01*
G03X-1045598Y1228097I-1181J224D01*
G01Y1228100D01*
G03X-1048002I-1202J0D01*
G01Y1228097D01*
G03X-1047981Y1227875I1202J2D01*
G02X-1048374Y1227400I-393J-75D01*
G01X-1056298D01*
G02X-1056698Y1227800I0J400D01*
G03X-1059102I-1202J0D01*
G02X-1059502Y1227400I-400J0D01*
G01X-1075333D01*
G03X-1076000Y1227602I-667J-1000D01*
G01X-1076001D01*
G03X-1076622Y1227429I0J-1202D01*
G01X-1076670Y1227400D01*
X-1076928D01*
G02X-1077123Y1227644I0J200D01*
G01X-1077113Y1227688D01*
X-1077105Y1227707D01*
G03X-1076998Y1228200I-1095J496D01*
G03X-1079402I-1202J0D01*
G03X-1079364Y1227900I1203J0D01*
G02X-1079751Y1227400I-387J-100D01*
G01X-1089436D01*
G02X-1089726Y1228075I0J400D01*
G03X-1089398Y1228900I-874J825D01*
G03X-1091802I-1202J0D01*
G03X-1091474Y1228075I1202J0D01*
G02X-1091764Y1227400I-290J-275D01*
G01X-1096713D01*
G02X-1097059Y1228000I1J400D01*
G03X-1096898Y1228600I-1041J601D01*
G03X-1099302I-1202J0D01*
G03X-1099141Y1228000I1202J1D01*
G02X-1099487Y1227400I-347J-200D01*
G01X-1103406D01*
X-1103449Y1227422D01*
G03X-1104000Y1227557I-553J-1067D01*
G03X-1104551Y1227422I2J-1202D01*
G01X-1104594Y1227400D01*
X-1104826D01*
G02X-1105219Y1227875I0J400D01*
G03X-1105198Y1228097I-1181J224D01*
G01Y1228100D01*
G03X-1107602I-1202J0D01*
G01Y1228097D01*
G03X-1107581Y1227875I1202J2D01*
G02X-1107974Y1227400I-393J-75D01*
G01X-1133849D01*
G02X-1134161Y1228050I0J400D01*
G03X-1133898Y1228800I-938J750D01*
G03X-1136302I-1202J0D01*
G03X-1136039Y1228050I1201J0D01*
G02X-1136351Y1227400I-312J-250D01*
G01X-1150161D01*
X-1150204Y1227422D01*
G03X-1150755Y1227557I-553J-1067D01*
G03X-1151306Y1227422I2J-1202D01*
G01X-1151349Y1227400D01*
X-1153828D01*
X-1153877Y1227529D01*
G03X-1156123I-1123J-429D01*
G01X-1156172Y1227400D01*
X-1164503D01*
G03X-1166297I-897J-800D01*
G01X-1172605D01*
X-1172648Y1227543D01*
G03X-1174952I-1152J-343D01*
G01X-1174995Y1227400D01*
X-1211603D01*
G03X-1212400Y1227702I-797J-901D01*
G03X-1213145Y1227443I0J-1201D01*
G01X-1213200Y1227400D01*
X-1213300D01*
X-1216973Y1223727D01*
G02X-1217567Y1223757I-283J282D01*
G03X-1218500Y1224202I-934J-757D01*
G03X-1219702Y1223000I0J-1202D01*
G03X-1219257Y1222067I1202J1D01*
G02X-1219227Y1221473I-252J-311D01*
G01X-1224800Y1215900D01*
X-1269800D01*
X-1272892Y1218992D01*
G02X-1272732Y1219656I283J283D01*
G03X-1271898Y1220800I-368J1144D01*
G03X-1273025Y1222000I-1202J0D01*
G02X-1273400Y1222399I25J399D01*
G01Y1224453D01*
X-1273399Y1224465D01*
G03X-1273390Y1224600I-1192J147D01*
G03X-1273399Y1224735I-1201J-12D01*
G01X-1273400Y1224747D01*
Y1233300D01*
X-1272200Y1234500D01*
X-1268195D01*
X-1268152Y1234357D01*
G03X-1265848I1152J343D01*
G01X-1265805Y1234500D01*
X-1256195D01*
X-1256152Y1234357D01*
G03X-1253848I1152J343D01*
G01X-1253805Y1234500D01*
X-1244195D01*
X-1244152Y1234357D01*
G03X-1241848I1152J343D01*
G01X-1241805Y1234500D01*
X-1232195D01*
X-1232152Y1234357D01*
G03X-1229848I1152J343D01*
G01X-1229805Y1234500D01*
X-1221715D01*
X-1221690Y1234329D01*
G03X-1219310I1190J171D01*
G01X-1219285Y1234500D01*
X-1208195D01*
X-1208152Y1234357D01*
G03X-1205848I1152J343D01*
G01X-1205805Y1234500D01*
X-1196195D01*
X-1196152Y1234357D01*
G03X-1193848I1152J343D01*
G01X-1193805Y1234500D01*
X-1186195D01*
X-1186152Y1234357D01*
G03X-1183848I1152J343D01*
G01X-1183805Y1234500D01*
X-1177395D01*
X-1177352Y1234357D01*
G03X-1175048I1152J343D01*
G01X-1175005Y1234500D01*
X-1167395D01*
X-1167352Y1234357D01*
G03X-1165048I1152J343D01*
G01X-1165005Y1234500D01*
X-1157395D01*
X-1157352Y1234357D01*
G03X-1155048I1152J343D01*
G01X-1155005Y1234500D01*
X-1147395D01*
X-1147352Y1234357D01*
G03X-1145048I1152J343D01*
G01X-1145005Y1234500D01*
X-1141695D01*
X-1141652Y1234357D01*
G03X-1139348I1152J343D01*
G01X-1139305Y1234500D01*
X-1127395D01*
X-1127352Y1234357D01*
G03X-1125048I1152J343D01*
G01X-1125005Y1234500D01*
X-1107395D01*
X-1107352Y1234357D01*
G03X-1105048I1152J343D01*
G01X-1105005Y1234500D01*
X-1097895D01*
X-1097852Y1234357D01*
G03X-1095548I1152J343D01*
G01X-1095505Y1234500D01*
X-1087895D01*
X-1087852Y1234357D01*
G03X-1085548I1152J343D01*
G01X-1085505Y1234500D01*
X-1068072D01*
X-1068023Y1234371D01*
G03X-1065777I1123J429D01*
G01X-1065728Y1234500D01*
X-1061572D01*
X-1061523Y1234371D01*
G03X-1059277I1123J429D01*
G01X-1059228Y1234500D01*
X-1051195D01*
X-1051152Y1234357D01*
G03X-1048848I1152J343D01*
G01X-1048805Y1234500D01*
X-1046195D01*
X-1046152Y1234357D01*
G03X-1043848I1152J343D01*
G01X-1043805Y1234500D01*
X-1041195D01*
X-1041152Y1234357D01*
G03X-1038848I1152J343D01*
G01X-1038805Y1234500D01*
X-1036195D01*
X-1036152Y1234357D01*
G03X-1033848I1152J343D01*
G01X-1033805Y1234500D01*
X-1029309D01*
X-1029274Y1234343D01*
G03X-1026926I1174J257D01*
G01X-1026891Y1234500D01*
X-1024309D01*
X-1024274Y1234343D01*
G03X-1021926I1174J257D01*
G01X-1021891Y1234500D01*
X-1018302D01*
G02X-1018102Y1234300I0J-200D01*
G03X-1015698I1202J0D01*
G02X-1015498Y1234500I200J0D01*
G01X-1013800D01*
X-1009100Y1229800D01*
Y1215087D01*
G02X-1009700Y1214741I-400J1D01*
G03X-1010300Y1214902I-601J-1041D01*
G03Y1212498I0J-1202D01*
G03X-1009700Y1212659I-1J1202D01*
G02X-1009100Y1212313I200J-347D01*
G01Y1209967D01*
G03Y1208633I1000J-667D01*
G01Y1205722D01*
G02X-1009625Y1205342I-400J0D01*
G03X-1010000Y1205402I-375J-1142D01*
G03Y1202998I0J-1202D01*
G03X-1009832Y1203010I-1J1202D01*
G02X-1009421Y1202430I56J-396D01*
G03X-1009726Y1201172I2446J-1259D01*
G01Y1201170D01*
G03X-1009143Y1199477I2752J1D01*
G01X-1009142Y1199476D01*
X-1009100Y1199421D01*
Y1198589D01*
G02X-1009550Y1198193I-400J1D01*
G03X-1009700Y1198202I-147J-1193D01*
G03Y1195798I0J-1202D01*
G03X-1009550Y1195807I3J1202D01*
G02X-1009100Y1195411I50J-397D01*
G01Y1194200D01*
X-1007353Y1192453D01*
G02X-1007477Y1191803I-283J-283D01*
G03X-1008202Y1190700I477J-1103D01*
G03X-1007000Y1189498I1202J0D01*
G03X-1005897Y1190223I0J1202D01*
G02X-1005247Y1190347I367J-159D01*
G01X-999600Y1184700D01*
Y1171499D01*
G02X-999975Y1171100I-400J0D01*
G03Y1168700I75J-1200D01*
G02X-999600Y1168301I-25J-399D01*
G01Y1126661D01*
G02X-1000300Y1126396I-400J0D01*
G03X-1001200Y1126802I-901J-796D01*
G03Y1124398I0J-1202D01*
G03X-1000300Y1124804I-1J1202D01*
G02X-999600Y1124539I300J-265D01*
G01Y1113199D01*
G02X-999975Y1112800I-400J0D01*
G03Y1110400I75J-1200D01*
G02X-999600Y1110001I-25J-399D01*
G01Y1108299D01*
G02X-1000025Y1107900I-400J0D01*
G03X-1000100Y1107902I-70J-1200D01*
G03X-1000736Y1107720I0J-1202D01*
G02X-1001285Y1107845I-211J339D01*
G03X-1001390Y1107985I-1012J-649D01*
G02X-1001318Y1108299I152J130D01*
G03X-1000598Y1109400I-482J1101D01*
G03X-1001800Y1110602I-1202J0D01*
G03X-1002490Y1110384I0J-1201D01*
G02X-1003064Y1110509I-229J328D01*
G03X-1003190Y1110686I-1038J-606D01*
G02X-1003165Y1111235I303J261D01*
G03X-1002798Y1112100I-836J865D01*
G03X-1004000Y1113302I-1202J0D01*
G03X-1005035Y1112711I0J-1202D01*
G02X-1005278Y1112625I-173J101D01*
G03X-1005700Y1112702I-423J-1125D01*
G03X-1006902Y1111500I0J-1202D01*
G03X-1005701Y1110298I1202J0D01*
G02X-1005302Y1109899I-1J-400D01*
G03X-1004100Y1108698I1202J1D01*
G03X-1003410Y1108916I0J1201D01*
G02X-1002836Y1108791I229J-328D01*
G03X-1002820Y1108764I1042J599D01*
G02X-1002945Y1108215I-339J-211D01*
G03X-1003502Y1107200I646J-1015D01*
G03X-1002300Y1105998I1202J0D01*
G03X-1001515Y1106290I0J1201D01*
G02X-1001201Y1106218I130J-152D01*
G03X-1001186Y1106186I1095J494D01*
G01X-1001134Y1106075D01*
X-1001295Y1105867D01*
X-1001356Y1105848D01*
G03X-1002202Y1104700I356J-1148D01*
G03X-1001548Y1103630I1202J0D01*
G02X-1001348Y1103156I-182J-356D01*
G03X-1001402Y1102800I1148J-356D01*
G03X-1000726Y1101719I1202J0D01*
G02X-1000526Y1101220I-175J-360D01*
G03X-1000602Y1100800I1126J-421D01*
G03X-1000048Y1099788I1201J0D01*
G02X-999898Y1099288I-216J-337D01*
G03X-1000002Y1098800I1098J-489D01*
G03X-999600Y1097903I1202J0D01*
G01Y1050900D01*
X-1016900Y1033600D01*
X-1037600D01*
X-1041500Y1029700D01*
X-1049500D01*
X-1053400Y1033600D01*
X-1056287D01*
X-1056302Y1033784D01*
G03X-1058698I-1198J-99D01*
G01X-1058713Y1033600D01*
X-1070312D01*
X-1070327Y1033784D01*
G03X-1071178Y1034836I-1198J-99D01*
G02X-1071396Y1035439I116J383D01*
G03X-1071198Y1036100I-1004J661D01*
G03X-1073602I-1202J0D01*
G03X-1072747Y1034949I1202J0D01*
G02X-1072529Y1034346I-116J-383D01*
G03X-1072723Y1033784I1004J-661D01*
G01X-1072738Y1033600D01*
X-1102601D01*
G02X-1103000Y1034025I0J400D01*
G03X-1102998Y1034100I-1200J70D01*
G03X-1104200Y1035302I-1202J0D01*
G03X-1104913Y1035067I1J-1202D01*
G02X-1105513Y1035219I-238J322D01*
G03X-1106600Y1035909I-1087J-511D01*
G03X-1106921Y1035865I1J-1202D01*
G01X-1107034Y1035834D01*
X-1116292Y1045092D01*
G02X-1116132Y1045756I283J283D01*
G03X-1115298Y1046900I-368J1144D01*
G03X-1116388Y1048097I-1202J0D01*
G02X-1116737Y1048596I38J398D01*
G03X-1116698Y1048899I-1163J304D01*
G01Y1048900D01*
G03X-1117148Y1049838I-1203J0D01*
G02X-1117255Y1050330I250J312D01*
G03X-1117126Y1050872I-1074J542D01*
G03X-1119530I-1202J0D01*
G01Y1050863D01*
G02X-1120021Y1050470I-400J-3D01*
G03X-1120296Y1050502I-276J-1170D01*
G03X-1120571Y1050470I1J-1202D01*
G02X-1121063Y1050863I-92J389D01*
G01Y1050872D01*
G03X-1122265Y1052074I-1202J0D01*
G03X-1123013Y1051813I0J-1202D01*
G01X-1124150Y1052950D01*
X-1137250D01*
X-1138130Y1052070D01*
X-1138195Y1052060D01*
G03X-1139201Y1051054I182J-1188D01*
G01X-1139211Y1050989D01*
X-1139808Y1050392D01*
X-1139938Y1050461D01*
G03X-1140390Y1050596I-563J-1062D01*
G02X-1140751Y1050964I38J398D01*
G03X-1141950Y1052074I-1199J-93D01*
G03X-1143152Y1050872I0J-1202D01*
G03X-1142061Y1049675I1202J0D01*
G02X-1141700Y1049307I-38J-398D01*
G03X-1141445Y1048654I1199J92D01*
G02X-1141469Y1048130I-314J-248D01*
G03X-1141785Y1047502I869J-831D01*
G02X-1142259Y1047178I-394J68D01*
G03X-1142500Y1047202I-239J-1178D01*
G03X-1143009Y1047089I0J-1203D01*
G02X-1143508Y1047226I-169J363D01*
G03X-1144382Y1047743I-992J-679D01*
G02X-1144731Y1048235I40J398D01*
G03X-1144698Y1048514I-1169J280D01*
G01Y1048515D01*
G03X-1145308Y1049561I-1202J0D01*
G02X-1145483Y1050057I197J348D01*
G03X-1145398Y1050500I-1117J444D01*
G03X-1147802I-1202J0D01*
G03X-1147192Y1049454I1202J0D01*
G02X-1147017Y1048958I-197J-348D01*
G03X-1147102Y1048515I1117J-444D01*
G03X-1146018Y1047319I1202J0D01*
G02X-1145669Y1046827I-40J-398D01*
G03X-1145702Y1046547I1169J-280D01*
G01Y1046546D01*
G03X-1145602Y1046066I1202J0D01*
G02X-1145776Y1045555I-366J-160D01*
G03X-1146402Y1044500I576J-1055D01*
G03X-1146194Y1043825I1202J1D01*
G02X-1146525Y1043200I-331J-225D01*
G01X-1152600D01*
X-1153973Y1041827D01*
X-1154068Y1041837D01*
G03X-1154190Y1041843I-120J-1196D01*
G03X-1155392Y1040641I0J-1202D01*
G03X-1155386Y1040519I1202J-2D01*
G01X-1155376Y1040424D01*
X-1157400Y1038400D01*
Y1035945D01*
X-1157557Y1035910D01*
G03X-1158502Y1034736I257J-1174D01*
G01Y1034735D01*
G03X-1158324Y1034106I1202J1D01*
G02X-1158399Y1033598I-341J-209D01*
G03X-1158802Y1032700I799J-898D01*
G03X-1158794Y1032566I1202J5D01*
G02X-1159067Y1032141I-398J-45D01*
G03X-1159892Y1031000I377J-1141D01*
G03X-1158690Y1029798I1202J0D01*
G03X-1157838Y1030152I0J1202D01*
G01X-1157748Y1030242D01*
X-1157400Y1030118D01*
Y1029670D01*
X-1157429Y1029622D01*
G03X-1157602Y1029001I1029J-621D01*
G01Y1029000D01*
G03X-1157400Y1028333I1202J0D01*
G01Y1027100D01*
X-1158217Y1026283D01*
G02X-1158899Y1026550I-282J283D01*
G03X-1160100Y1027702I-1201J-50D01*
G03X-1160899Y1027398I0J-1202D01*
G01X-1160926Y1027374D01*
X-1161059Y1027322D01*
X-1161178Y1027362D01*
X-1161202Y1027379D01*
G03X-1161900Y1027602I-698J-981D01*
G03X-1163102Y1026400I0J-1202D01*
G03X-1162798Y1025601I1202J0D01*
G01X-1162774Y1025574D01*
X-1162722Y1025441D01*
X-1162762Y1025322D01*
X-1162779Y1025298D01*
G03X-1162999Y1024686I979J-698D01*
G01X-1163012Y1024500D01*
X-1181800D01*
X-1184800Y1021500D01*
X-1184917Y1021539D01*
G03X-1185300Y1021602I-384J-1139D01*
G03X-1186502Y1020400I0J-1202D01*
G03X-1186439Y1020017I1202J1D01*
G01X-1186400Y1019900D01*
X-1189200Y1017100D01*
Y976400D01*
X-1204587Y961013D01*
G02X-1205267Y961345I-283J283D01*
G03X-1205251Y961600I-2065J258D01*
G03X-1207332Y959519I-2081J0D01*
G03X-1206563Y959666I1J2081D01*
G01X-1206418Y959724D01*
X-1206192Y959408D01*
X-1206700Y958900D01*
X-1215800D01*
X-1216952Y960052D01*
X-1216823Y960193D01*
G03X-1216275Y961600I-1532J1407D01*
G03X-1218356Y963681I-2081J0D01*
G03X-1220337Y962239I0J-2082D01*
G01X-1220382Y962100D01*
X-1221842D01*
X-1221887Y962239D01*
G03X-1225849I-1981J-640D01*
G01X-1225894Y962100D01*
X-1229700D01*
X-1234070Y957730D01*
G02X-1234614Y957710I-283J283D01*
G03X-1235399Y958002I-785J-910D01*
G01X-1235400D01*
G03X-1236602Y956800I0J-1202D01*
G01Y956799D01*
G03X-1236310Y956014I1202J0D01*
G02X-1236330Y955470I-303J-261D01*
G01X-1238415Y953385D01*
G02X-1239033Y953448I-283J282D01*
G03X-1242508Y955328I-3475J-2272D01*
G03X-1246370Y952700I0J-4152D01*
G01X-1257900D01*
X-1262100Y948500D01*
X-1284200D01*
X-1286400Y950700D01*
Y963600D01*
X-1284000Y966000D01*
X-1279500D01*
X-1275700Y969800D01*
Y987800D01*
X-1273200Y990300D01*
X-1247251D01*
G02X-1246864Y989800I0J-400D01*
G03X-1246902Y989500I1165J-300D01*
G03X-1244498I1202J0D01*
G03X-1244536Y989800I-1203J0D01*
G02X-1244149Y990300I387J100D01*
G01X-1241100D01*
X-1237011Y986211D01*
G02X-1237128Y985564I-283J-283D01*
G03X-1237832Y984470I498J-1094D01*
G03X-1235428I1202J0D01*
G03X-1235602Y985093I-1202J0D01*
G02X-1235260Y985700I342J207D01*
G01X-1219200D01*
X-1217600Y987300D01*
Y994900D01*
X-1220317Y997617D01*
G02X-1220050Y998299I283J282D01*
G03X-1218898Y999500I-50J1201D01*
G03X-1220100Y1000702I-1202J0D01*
G03X-1221301Y999550I0J-1202D01*
G02X-1221983Y999283I-400J16D01*
G01X-1225000Y1002300D01*
Y1043969D01*
G03X-1224998Y1044023I-1199J71D01*
G03X-1225000Y1044077I-1201J-17D01*
G01Y1045100D01*
X-1219300Y1050800D01*
X-1185300D01*
X-1176832Y1059268D01*
X-1176705Y1059209D01*
G03X-1176201Y1059098I505J1091D01*
G01X-1176200D01*
G03X-1174998Y1060300I0J1202D01*
G01Y1060301D01*
G03X-1175109Y1060805I-1202J-1D01*
G01X-1175168Y1060932D01*
X-1170688Y1065412D01*
X-1170659Y1065427D01*
G03X-1170126Y1065960I-540J1073D01*
G01X-1170112Y1065988D01*
X-1169565Y1066535D01*
G02X-1168887Y1066314I283J-283D01*
G03X-1167700Y1065298I1187J185D01*
G03X-1166498Y1066500I0J1202D01*
G03X-1167514Y1067687I-1201J0D01*
G02X-1167735Y1068365I62J395D01*
G01X-1161100Y1075000D01*
X-1091200D01*
X-1084076Y1067876D01*
X-1084062Y1067823D01*
G03X-1083207Y1066968I1162J307D01*
G01X-1083154Y1066954D01*
X-1083000Y1066800D01*
X-1065300D01*
X-1058257Y1073843D01*
X-1058068Y1073774D01*
X-1058042Y1073755D01*
G03X-1057300Y1073498I743J946D01*
G03X-1056098Y1074700I0J1202D01*
G03X-1056356Y1075444I-1203J0D01*
G01X-1056375Y1075469D01*
X-1056443Y1075657D01*
X-1052235Y1079865D01*
G02X-1051587Y1079746I283J-283D01*
G03X-1050490Y1079035I1097J491D01*
G03X-1050408Y1079038I-3J1202D01*
G02X-1049986Y1078704I27J-399D01*
G03X-1048800Y1077698I1186J196D01*
G01X-1048799D01*
G03X-1048044Y1077965I0J1202D01*
G02X-1047470Y1077890I251J-311D01*
G03X-1046500Y1077398I970J710D01*
G03Y1079802I0J1202D01*
G01X-1046501D01*
G03X-1047256Y1079535I0J-1202D01*
G02X-1047830Y1079610I-251J311D01*
G03X-1048800Y1080102I-970J-710D01*
G03X-1048882Y1080099I3J-1202D01*
G02X-1049304Y1080433I-27J399D01*
G03X-1050492Y1081439I-1186J-196D01*
G01X-1050689Y1081622D01*
X-1050698Y1081693D01*
G03X-1051470Y1082663I-1192J-156D01*
G01X-1051600Y1082712D01*
Y1092600D01*
X-1062500Y1103500D01*
Y1110713D01*
G02X-1061729Y1110862I400J-1D01*
G03X-1062002Y1110100I929J-763D01*
G03X-1060999Y1108915I1202J0D01*
G02X-1060666Y1108499I-67J-395D01*
G03X-1060668Y1108434I1200J-69D01*
G03X-1058264I1202J0D01*
G03X-1059267Y1109619I-1202J0D01*
G02X-1059600Y1110035I67J395D01*
G03X-1059598Y1110100I-1200J69D01*
G03X-1060095Y1111073I-1201J0D01*
G02X-1060220Y1111573I235J324D01*
G03X-1060098Y1112100I-1080J528D01*
G03X-1061300Y1113302I-1202J0D01*
G03X-1061900Y1113141I1J-1202D01*
G02X-1062500Y1113487I-200J347D01*
G01Y1126700D01*
X-1061800Y1127400D01*
X-1045851D01*
G02X-1045539Y1126750I0J-400D01*
G03X-1045802Y1126000I938J-750D01*
G03X-1044600Y1124798I1202J0D01*
G03X-1043904Y1125020I0J1202D01*
G02X-1043280Y1124770I231J-326D01*
G03X-1042100Y1123798I1180J230D01*
G03Y1126202I0J1202D01*
G03X-1042796Y1125980I0J-1202D01*
G02X-1043420Y1126230I-231J326D01*
G03X-1043661Y1126750I-1180J-231D01*
G02X-1043349Y1127400I312J250D01*
G01X-1041515D01*
X-1041495Y1127222D01*
G03X-1039105I1195J135D01*
G01X-1039085Y1127400D01*
X-1035200D01*
X-1032608Y1129992D01*
G02X-1031944Y1129832I283J-283D01*
G03X-1030800Y1128998I1144J368D01*
G03X-1029598Y1130200I0J1202D01*
G03X-1030432Y1131344I-1202J0D01*
G02X-1030592Y1132008I123J381D01*
G01X-1028608Y1133992D01*
G02X-1027944Y1133832I283J-283D01*
G03X-1026800Y1132998I1144J368D01*
G03X-1025598Y1134200I0J1202D01*
G03X-1026432Y1135344I-1202J0D01*
G02X-1026592Y1136008I123J381D01*
G01X-1024608Y1137992D01*
G02X-1023944Y1137832I283J-283D01*
G03X-1022800Y1136998I1144J368D01*
G03X-1021598Y1138200I0J1202D01*
G03X-1022432Y1139344I-1202J0D01*
G02X-1022592Y1140008I123J381D01*
G01X-1020800Y1141800D01*
Y1173965D01*
G02X-1020325Y1174358I400J0D01*
G03X-1020103Y1174337I224J1181D01*
G01X-1020100D01*
G03Y1176741I0J1202D01*
G01X-1020103D01*
G03X-1020325Y1176720I2J-1202D01*
G02X-1020763Y1177281I-75J393D01*
G03X-1020198Y1178300I-636J1019D01*
G03X-1020800Y1179342I-1203J0D01*
G01Y1180803D01*
G03Y1182397I-901J797D01*
G01Y1184433D01*
G03Y1185767I-1000J667D01*
G01Y1189185D01*
X-1020629Y1189210D01*
G03Y1191590I-171J1190D01*
G01X-1020800Y1191615D01*
Y1198113D01*
G02X-1020200Y1198459I400J-1D01*
G03X-1019600Y1198298I601J1041D01*
G03Y1200702I0J1202D01*
G03X-1020200Y1200541I1J-1202D01*
G02X-1020800Y1200887I-200J347D01*
G01Y1207359D01*
G02X-1020225Y1207719I400J0D01*
G03X-1019700Y1207598I526J1081D01*
G03Y1210002I0J1202D01*
G37*
G36*
G01X-1032398Y1226300D02*
X-1031902D01*
G02X-1031702Y1226100I0J-200D01*
G03X-1030500Y1224898I1202J0D01*
G03X-1029732Y1225175I0J1203D01*
G02X-1029463Y1225163I128J-154D01*
G01X-1029181Y1224881D01*
G02X-1029198Y1224299I-283J-283D01*
G03X-1029602Y1223400I798J-899D01*
G03X-1028400Y1222198I1202J0D01*
G03X-1027501Y1222602I0J1202D01*
G02X-1026919Y1222619I299J-266D01*
G01X-1024288Y1219988D01*
X-1024273Y1219959D01*
G03X-1023741Y1219427I1073J541D01*
G01X-1023712Y1219412D01*
X-1022100Y1217800D01*
Y1217664D01*
G03X-1022102Y1217600I1200J-70D01*
G03X-1022100Y1217536I1202J6D01*
G01Y1216674D01*
G02X-1022692Y1216323I-400J0D01*
G03X-1023268Y1216470I-576J-1055D01*
G03Y1214066I0J-1202D01*
G03X-1022692Y1214213I0J1202D01*
G02X-1022100Y1213862I192J-351D01*
G01Y1212577D01*
G03Y1210623I700J-977D01*
G01Y1205402D01*
G02X-1022300Y1205202I-200J0D01*
G03Y1202798I0J-1202D01*
G02X-1022100Y1202598I0J-200D01*
G01Y1194651D01*
G02X-1022600Y1194264I-400J0D01*
G03X-1022900Y1194302I-300J-1165D01*
G03X-1024102Y1193100I0J-1202D01*
G03X-1023583Y1192111I1202J0D01*
G02X-1023608Y1191437I-227J-329D01*
G03X-1024202Y1190400I608J-1037D01*
G03X-1023000Y1189198I1202J0D01*
G03X-1022625Y1189258I0J1202D01*
G02X-1022100Y1188878I125J-380D01*
G01Y1186272D01*
X-1022229Y1186223D01*
G03Y1183977I429J-1123D01*
G01X-1022100Y1183928D01*
Y1182741D01*
X-1022214Y1182686D01*
G03Y1180514I513J-1086D01*
G01X-1022100Y1180459D01*
Y1179277D01*
G03Y1177323I700J-977D01*
G01Y1169714D01*
X-1022271Y1169690D01*
G03Y1167310I171J-1190D01*
G01X-1022100Y1167286D01*
Y1147774D01*
G02X-1022575Y1147381I-400J0D01*
G03X-1022800Y1147402I-224J-1181D01*
G03Y1144998I0J-1202D01*
G03X-1022575Y1145019I1J1202D01*
G02X-1022100Y1144626I75J-393D01*
G01Y1143774D01*
G02X-1022575Y1143381I-400J0D01*
G03X-1022800Y1143402I-224J-1181D01*
G03X-1024002Y1142200I0J-1202D01*
G03X-1023557Y1141267I1202J1D01*
G02X-1023527Y1140673I-252J-311D01*
G01X-1025273Y1138927D01*
G02X-1025867Y1138957I-283J282D01*
G03X-1026800Y1139402I-934J-757D01*
G03X-1028002Y1138200I0J-1202D01*
G03X-1027557Y1137267I1202J1D01*
G02X-1027527Y1136673I-252J-311D01*
G01X-1029273Y1134927D01*
G02X-1029867Y1134957I-283J282D01*
G03X-1030800Y1135402I-934J-757D01*
G03X-1032002Y1134200I0J-1202D01*
G03X-1031557Y1133267I1202J1D01*
G02X-1031527Y1132673I-252J-311D01*
G01X-1035800Y1128400D01*
X-1039702D01*
X-1039746Y1128423D01*
G03X-1040300Y1128558I-553J-1067D01*
G03X-1040854Y1128423I-1J-1202D01*
G01X-1040898Y1128400D01*
X-1064900D01*
X-1066800Y1126500D01*
Y1102100D01*
X-1091900Y1077000D01*
X-1162400D01*
X-1166568Y1072832D01*
X-1166695Y1072891D01*
G03X-1167200Y1073002I-505J-1091D01*
G03X-1168255Y1072376I0J-1202D01*
G02X-1168904Y1072301I-351J192D01*
G03X-1169800Y1072702I-896J-801D01*
G03X-1171002Y1071500I0J-1202D01*
G03X-1169986Y1070313I1201J0D01*
G02X-1169765Y1069635I-62J-395D01*
G01X-1187800Y1051600D01*
X-1195112D01*
G02X-1195459Y1052200I0J400D01*
G03X-1195298Y1052800I-1041J601D01*
G03X-1197702I-1202J0D01*
G03X-1197541Y1052200I1202J1D01*
G02X-1197888Y1051600I-347J-200D01*
G01X-1220100D01*
X-1220922Y1050778D01*
G02X-1221524Y1050821I-282J283D01*
G03X-1222486Y1051302I-962J-721D01*
G03X-1223688Y1050100I0J-1202D01*
G03X-1223207Y1049138I1202J0D01*
G02X-1223164Y1048536I-240J-320D01*
G01X-1226516Y1045184D01*
X-1226563Y1045169D01*
G03X-1227402Y1044023I363J-1146D01*
G03X-1226286Y1042824I1202J0D01*
G02X-1226100Y1042625I-14J-199D01*
G01Y1008800D01*
X-1226800Y1008100D01*
X-1230884D01*
X-1239708Y1016925D01*
X-1239594Y1017065D01*
G03X-1239998Y1023492I-3655J2996D01*
G01Y1049801D01*
X-1231075Y1058725D01*
G02X-1230416Y1058578I283J-283D01*
G03X-1229286Y1057784I1130J407D01*
G03X-1228087Y1058902I0J1202D01*
G02X-1227566Y1059255I399J-28D01*
G03X-1227200Y1059198I366J1145D01*
G03Y1061602I0J1202D01*
G01X-1227225D01*
G02X-1227516Y1062284I-8J400D01*
G01X-1221386Y1068414D01*
X-1221258Y1068352D01*
G03X-1220734Y1068232I524J1082D01*
G03X-1219532Y1069434I0J1202D01*
G03X-1219652Y1069958I-1202J0D01*
G01X-1219714Y1070086D01*
X-1206353Y1083447D01*
G02X-1205703Y1083323I283J-283D01*
G03X-1204600Y1082598I1103J477D01*
G03Y1085002I0J1202D01*
G03X-1205349Y1084740I0J-1202D01*
G02X-1205998Y1085053I-249J313D01*
G01Y1087417D01*
X-1205872Y1087467D01*
G03Y1089703I-442J1118D01*
G01X-1205998Y1089753D01*
Y1105538D01*
G02X-1205632Y1105937I400J0D01*
G03Y1107933I-83J998D01*
G02X-1205998Y1108332I34J399D01*
G01Y1109449D01*
G02X-1205507Y1109838I400J0D01*
G03X-1205276Y1109811I231J975D01*
G03Y1111815I0J1002D01*
G03X-1205507Y1111788I0J-1002D01*
G02X-1205998Y1112177I-91J389D01*
G01Y1113001D01*
X-1205501Y1113498D01*
X-1198969D01*
G02X-1198576Y1113025I0J-400D01*
G03X-1198593Y1112840I985J-184D01*
G03X-1196589I1002J0D01*
G03X-1196606Y1113025I-1002J1D01*
G02X-1196213Y1113498I393J73D01*
G01X-1195885D01*
X-1195484Y1113900D01*
X-1194900D01*
X-1189600Y1119200D01*
Y1119784D01*
X-1189598Y1119785D01*
Y1127515D01*
X-1191248Y1129164D01*
G02X-1191178Y1129786I283J283D01*
G03X-1190708Y1130635I-532J849D01*
G03X-1191630Y1131634I-1002J0D01*
G02X-1191998Y1132033I32J398D01*
G01Y1135415D01*
X-1192300Y1135716D01*
Y1136300D01*
X-1194656Y1138656D01*
X-1194671Y1138706D01*
G03X-1194687Y1138760I-968J-257D01*
G01X-1194698Y1138792D01*
Y1141156D01*
G02X-1194185Y1141539I400J0D01*
G03X-1193900Y1141498I284J961D01*
G03X-1193190Y1141792I1J1002D01*
G02X-1192591Y1141755I283J-282D01*
G03X-1192380Y1141553I791J615D01*
G02X-1192373Y1140905I-231J-327D01*
G03X-1192778Y1140100I598J-805D01*
G03X-1190774I1002J0D01*
G03X-1191196Y1140917I-1002J0D01*
G02X-1191203Y1141565I231J327D01*
G03X-1190798Y1142370I-598J805D01*
G03X-1191800Y1143372I-1002J0D01*
G03X-1192510Y1143078I-1J-1002D01*
G02X-1193109Y1143115I-283J282D01*
G03X-1193900Y1143502I-791J-615D01*
G03X-1194185Y1143461I-1J-1002D01*
G02X-1194698Y1143844I-113J383D01*
G01Y1144285D01*
X-1194298Y1144685D01*
Y1144966D01*
G02X-1193903Y1145366I400J0D01*
G03Y1147370I-11J1002D01*
G02X-1194261Y1147939I4J400D01*
G01X-1193500Y1148700D01*
X-1182700D01*
X-1179700Y1151700D01*
Y1163700D01*
X-1178500Y1164900D01*
X-1169200D01*
X-1168693Y1164393D01*
X-1168762Y1164263D01*
G03X-1168902Y1163700I1062J-563D01*
G03X-1167700Y1162498I1202J0D01*
G03X-1166723Y1163000I0J1202D01*
G01X-1165665D01*
G02X-1165374Y1162325I1J-400D01*
G03X-1165694Y1161641I874J-826D01*
G02X-1166143Y1161292I-397J47D01*
G03X-1166300Y1161302I-155J-1192D01*
G03X-1166974Y1161095I0J-1201D01*
G02X-1167573Y1161288I-224J332D01*
G03X-1168700Y1162072I-1127J-418D01*
G03X-1169902Y1160870I0J-1202D01*
G03X-1169901Y1160817I1202J-4D01*
G02X-1170325Y1160400I-399J-18D01*
G03X-1170400Y1160402I-70J-1200D01*
G03X-1169198Y1159200I0J-1202D01*
G03X-1169199Y1159253I-1202J4D01*
G02X-1168775Y1159670I399J18D01*
G03X-1168700Y1159668I70J1200D01*
G03X-1168026Y1159875I0J1201D01*
G02X-1167427Y1159682I224J-332D01*
G03X-1166300Y1158898I1127J418D01*
G03X-1165106Y1159959I0J1202D01*
G02X-1164657Y1160308I397J-47D01*
G03X-1164500Y1160298I155J1192D01*
G03X-1163298Y1161500I0J1202D01*
G03X-1163626Y1162325I-1202J0D01*
G02X-1163335Y1163000I290J275D01*
G01X-1159700D01*
X-1156800Y1165900D01*
X-1137100D01*
X-1136200Y1165000D01*
Y1162000D01*
X-1135300Y1161100D01*
X-1127300D01*
X-1122500Y1165900D01*
X-1082477D01*
X-1075552Y1158975D01*
Y1156225D01*
X-1076938Y1154838D01*
G03X-1077452Y1153600I1237J-1239D01*
G03X-1075700Y1151848I1752J0D01*
G03X-1074462Y1152362I-1J1751D01*
G01X-1072562Y1154262D01*
G03X-1072048Y1155500I-1237J1239D01*
G01Y1159700D01*
G03X-1072562Y1160938I-1751J-1D01*
G01X-1077662Y1166038D01*
X-1076300Y1167400D01*
Y1170211D01*
G03Y1175778I-2104J2783D01*
G01Y1177200D01*
X-1079100Y1180000D01*
X-1088100D01*
X-1112300Y1204200D01*
X-1122841D01*
G02X-1123108Y1204897I1J400D01*
G03X-1122711Y1205790I-806J893D01*
G03X-1125115I-1202J0D01*
G03X-1124718Y1204897I1203J0D01*
G02X-1124985Y1204200I-268J-297D01*
G01X-1126548D01*
G02X-1126748Y1204400I0J200D01*
G03X-1129152I-1202J0D01*
G02X-1129352Y1204200I-200J0D01*
G01X-1177500D01*
X-1182325Y1199375D01*
X-1182425Y1199389D01*
G03X-1182600Y1199402I-176J-1189D01*
G03X-1183802Y1198200I0J-1202D01*
G03X-1183600Y1197533I1202J0D01*
G01Y1196352D01*
X-1184800D01*
G03Y1192848I0J-1752D01*
G01X-1183600D01*
Y1191500D01*
X-1188400Y1186700D01*
X-1199001D01*
X-1199059Y1186800D01*
G03X-1201141I-1041J-599D01*
G01X-1201199Y1186700D01*
X-1203322D01*
G02X-1203719Y1187146I0J400D01*
G03X-1203711Y1187283I-1194J138D01*
G03X-1206115I-1202J0D01*
G03X-1206107Y1187146I1202J1D01*
G02X-1206504Y1186700I-397J-46D01*
G01X-1208909D01*
G02X-1209306Y1187146I0J400D01*
G03X-1209298Y1187283I-1194J138D01*
G03X-1211702I-1202J0D01*
G03X-1211694Y1187146I1202J1D01*
G02X-1212091Y1186700I-397J-46D01*
G01X-1214288D01*
X-1214301Y1186886D01*
G03X-1215500Y1188002I-1199J-86D01*
G03X-1215893Y1187936I0J-1203D01*
G02X-1216372Y1188116I-131J378D01*
G03X-1217417Y1188724I-1045J-594D01*
G03X-1218619Y1187522I0J-1202D01*
G03X-1218577Y1187205I1202J-2D01*
G02X-1218962Y1186700I-386J-105D01*
G01X-1241500D01*
X-1246066Y1182134D01*
X-1246199Y1182211D01*
G03X-1246800Y1182372I-601J-1041D01*
G03X-1248002Y1181170I0J-1202D01*
G03X-1247841Y1180569I1202J0D01*
G01X-1247764Y1180436D01*
X-1254100Y1174100D01*
X-1267395D01*
G02X-1267746Y1174692I0J400D01*
G03X-1267598Y1175270I-1055J578D01*
G03X-1270002I-1202J0D01*
G03X-1269854Y1174692I1203J0D01*
G02X-1270205Y1174100I-351J-192D01*
G01X-1274100D01*
X-1283400Y1164800D01*
X-1287600D01*
X-1289100Y1166300D01*
Y1174700D01*
X-1275651Y1188149D01*
G02X-1275026Y1188075I283J-283D01*
G03X-1274000Y1187498I1026J624D01*
G03X-1272809Y1188538I0J1202D01*
G02X-1272185Y1188812I396J-55D01*
G03X-1271500Y1188598I685J989D01*
G03Y1191002I0J1202D01*
G03X-1272691Y1189962I0J-1202D01*
G02X-1273315Y1189688I-396J55D01*
G03X-1273375Y1189726I-673J-996D01*
G02X-1273449Y1190351I209J342D01*
G01X-1272500Y1191300D01*
Y1209539D01*
G02X-1271800Y1209804I400J0D01*
G03X-1270900Y1209398I901J796D01*
G03X-1270150Y1209661I0J1201D01*
G02X-1269650I250J-313D01*
G03X-1268900Y1209398I750J938D01*
G03Y1211802I0J1202D01*
G03X-1269650Y1211539I0J-1201D01*
G02X-1270150I-250J313D01*
G03X-1270900Y1211802I-750J-938D01*
G03X-1271800Y1211396I1J-1202D01*
G02X-1272500Y1211661I-300J265D01*
G01Y1211900D01*
X-1270000Y1214400D01*
X-1222500D01*
X-1218601Y1218299D01*
X-1218516Y1218298D01*
X-1218500D01*
G03X-1217562Y1218748I0J1203D01*
G02X-1216938I312J-250D01*
G03X-1215062I938J753D01*
G02X-1214438I312J-250D01*
G03X-1213500Y1218298I938J753D01*
G03Y1220702I0J1202D01*
G03X-1214438Y1220252I0J-1203D01*
G02X-1215062I-312J250D01*
G03X-1215523Y1220603I-937J-753D01*
G02X-1215647Y1221253I159J367D01*
G01X-1214830Y1222070D01*
G02X-1214286Y1222090I283J-283D01*
G03X-1213500Y1221798I785J910D01*
G03X-1212298Y1223000I0J1202D01*
G03X-1212590Y1223786I-1202J1D01*
G02X-1212570Y1224330I303J261D01*
G01X-1210600Y1226300D01*
X-1174597D01*
G03X-1173003I797J901D01*
G01X-1166572D01*
X-1166523Y1226171D01*
G03X-1164277I1123J429D01*
G01X-1164228Y1226300D01*
X-1155897D01*
G03X-1154103I897J800D01*
G01X-1151967D01*
X-1151937Y1226136D01*
G03X-1149573I1182J219D01*
G01X-1149543Y1226300D01*
X-1105212D01*
X-1105182Y1226136D01*
G03X-1102818I1182J219D01*
G01X-1102788Y1226300D01*
X-1077209D01*
X-1077174Y1226143D01*
G03X-1077140Y1226020I1174J258D01*
G02X-1077565Y1225496I-380J-126D01*
G03X-1077702Y1225504I-138J-1194D01*
G03X-1076500Y1224302I0J-1202D01*
G03X-1076562Y1224682I-1202J-1D01*
G02X-1076137Y1225206I380J126D01*
G03X-1076000Y1225198I138J1194D01*
G03X-1074826Y1226143I0J1202D01*
G01X-1074791Y1226300D01*
X-1068099D01*
G02X-1067700Y1225925I0J-400D01*
G03X-1065300I1200J75D01*
G02X-1064901Y1226300I399J-25D01*
G01X-1064602D01*
G02X-1064402Y1226100I0J-200D01*
G03X-1061998I1202J0D01*
G02X-1061798Y1226300I200J0D01*
G01X-1056502D01*
G02X-1056302Y1226100I0J-200D01*
G03X-1055100Y1224898I1202J0D01*
G03X-1054305Y1225199I-1J1202D01*
G02X-1053681Y1225074I264J-300D01*
G03X-1052894Y1224435I1080J527D01*
G02X-1052670Y1223810I-98J-388D01*
G03X-1052902Y1223100I970J-710D01*
G03X-1050498I1202J0D01*
G03X-1051406Y1224265I-1201J0D01*
G02X-1051630Y1224890I98J388D01*
G03X-1051398Y1225600I-970J710D01*
G03X-1051419Y1225825I-1202J1D01*
G02X-1051026Y1226300I393J75D01*
G01X-1045753D01*
G02X-1045353Y1225913I0J-400D01*
G03X-1042951I1201J39D01*
G02X-1042551Y1226300I400J-13D01*
G01X-1040199D01*
G02X-1039800Y1225875I0J-400D01*
G03X-1039802Y1225800I1200J-70D01*
G03X-1039401Y1224904I1202J0D01*
G02X-1039476Y1224255I-267J-298D01*
G03X-1040102Y1223200I576J-1055D01*
G03X-1037698I1202J0D01*
G03X-1038099Y1224096I-1202J0D01*
G02X-1038024Y1224745I267J298D01*
G03X-1037398Y1225800I-576J1055D01*
G03X-1037400Y1225875I-1202J5D01*
G02X-1037001Y1226300I399J25D01*
G01X-1035602D01*
G02X-1035202Y1225900I0J-400D01*
G03X-1032798I1202J0D01*
G02X-1032398Y1226300I400J0D01*
G37*
G36*
G01X-1200300Y1177000D02*
X-1196300D01*
X-1195300Y1176000D01*
Y1145798D01*
G02X-1195729Y1145399I-400J0D01*
G03X-1195800Y1145402I-78J-999D01*
G03X-1196802Y1144400I0J-1002D01*
G03X-1195883Y1143401I1002J0D01*
G02X-1195700Y1143202I-17J-199D01*
G01Y1139443D01*
X-1195856Y1139408D01*
G03X-1196636Y1138431I222J-977D01*
G03X-1195634Y1137429I1002J0D01*
G03X-1195537Y1137434I-3J1002D01*
G01X-1195443Y1137443D01*
X-1193000Y1135000D01*
Y1131941D01*
G02X-1193545Y1131568I-400J0D01*
G03X-1193910Y1131637I-365J-933D01*
G03Y1129633I0J-1002D01*
G03X-1193445Y1129747I1J1002D01*
G01X-1193315Y1129815D01*
X-1190600Y1127100D01*
Y1123892D01*
G02X-1191203Y1123547I-400J0D01*
G03X-1191710Y1123685I-507J-864D01*
G03Y1121681I0J-1002D01*
G03X-1191203Y1121819I0J1002D01*
G02X-1190600Y1121474I203J-345D01*
G01Y1120200D01*
X-1190951Y1119849D01*
X-1191085Y1119929D01*
G03X-1191600Y1120072I-516J-859D01*
G03X-1192373Y1119708I0J-1003D01*
G02X-1192972Y1119688I-308J255D01*
G03X-1193700Y1120002I-728J-687D01*
G03X-1194599Y1119442I0J-1002D01*
G02X-1195224Y1119319I-359J176D01*
G03X-1195890Y1119572I-666J-750D01*
G03Y1117568I0J-1002D01*
G03X-1194991Y1118128I0J1002D01*
G02X-1194366Y1118251I359J-176D01*
G03X-1193747Y1117999I666J749D01*
G02X-1193483Y1117317I-19J-399D01*
G01X-1194870Y1115930D01*
X-1195000Y1115997D01*
G03X-1195460Y1116109I-460J-889D01*
G03X-1196462Y1115107I0J-1002D01*
G03X-1196451Y1114959I1001J0D01*
G02X-1196847Y1114500I-396J-59D01*
G01X-1201898D01*
G02X-1202298Y1114891I0J400D01*
G03X-1204302I-1002J-21D01*
G02X-1204702Y1114500I-400J9D01*
G01X-1206300D01*
X-1207026Y1113774D01*
X-1207161Y1113859D01*
G03X-1207692Y1114011I-531J-850D01*
G03Y1112007I0J-1002D01*
G03X-1207483Y1112029I0J1002D01*
G02X-1207000Y1111638I83J-391D01*
G01Y1098596D01*
G02X-1207435Y1098198I-400J0D01*
G03X-1207524Y1098202I-89J-998D01*
G03X-1208371Y1097736I0J-1003D01*
G02X-1209020Y1097699I-338J214D01*
G03X-1209800Y1098072I-780J-629D01*
G03Y1096068I0J-1002D01*
G03X-1208953Y1096534I0J1003D01*
G02X-1208304Y1096571I338J-214D01*
G03X-1207524Y1096198I780J629D01*
G03X-1207435Y1096202I0J1002D01*
G02X-1207000Y1095804I35J-398D01*
G01Y1089572D01*
G03Y1087598I686J-987D01*
G01Y1085000D01*
X-1241000Y1051000D01*
Y1024842D01*
G02X-1241544Y1024469I-400J0D01*
G03X-1240586Y1016156I-1705J-4408D01*
G01X-1240449Y1016249D01*
X-1225212Y1001012D01*
G02X-1225271Y1000397I-283J-283D01*
G03X-1225802Y999400I670J-997D01*
G03X-1224600Y998198I1202J0D01*
G03X-1223603Y998729I0J1201D01*
G02X-1222988Y998788I332J-224D01*
G01X-1218700Y994500D01*
Y987300D01*
X-1219400Y986600D01*
X-1226749D01*
G02X-1227136Y987100I0J400D01*
G03X-1227098Y987400I-1165J300D01*
G03X-1229502I-1202J0D01*
G03X-1229464Y987100I1203J0D01*
G02X-1229851Y986600I-387J-100D01*
G01X-1234600D01*
X-1239500Y991500D01*
X-1255900D01*
X-1260900Y996500D01*
Y1012814D01*
X-1260885Y1012850D01*
G03X-1260798Y1013300I-1115J449D01*
G03X-1260885Y1013750I-1202J1D01*
G01X-1260900Y1013786D01*
Y1030435D01*
G02X-1260225Y1030726I400J1D01*
G03X-1259400Y1030398I825J874D01*
G03X-1258233Y1031312I0J1202D01*
G02X-1257783Y1031612I388J-95D01*
G03X-1257600Y1031598I183J1189D01*
G03Y1034002I0J1202D01*
G03X-1257925Y1033957I1J-1202D01*
G02X-1258399Y1034182I-107J385D01*
G03X-1259500Y1034902I-1101J-482D01*
G03X-1260250Y1034639I0J-1201D01*
G02X-1260900Y1034951I-250J312D01*
G01Y1051500D01*
X-1225500Y1086900D01*
Y1119553D01*
G03Y1120987I-700J717D01*
G01Y1128868D01*
G03Y1130472I-599J802D01*
G01Y1131400D01*
X-1224761Y1132139D01*
G02X-1224134Y1132061I283J-282D01*
G03X-1223272Y1131570I862J511D01*
G03X-1222296Y1132345I0J1002D01*
G01X-1222260Y1132500D01*
X-1220413D01*
X-1220386Y1132333D01*
G03X-1218408I989J163D01*
G01X-1218381Y1132500D01*
X-1216026D01*
X-1215968Y1132400D01*
G03X-1215100Y1131898I868J499D01*
G03X-1214577Y1132045I0J1002D01*
G02X-1214007Y1131874I208J-341D01*
G03X-1213100Y1131298I907J426D01*
G03X-1212098Y1132300I0J1002D01*
G02X-1211898Y1132500I200J0D01*
G01X-1205000D01*
X-1204701Y1132798D01*
X-1204685D01*
X-1203598Y1133885D01*
Y1133901D01*
X-1202112Y1135388D01*
X-1201994Y1135348D01*
G03X-1201671Y1135294I324J948D01*
G03Y1137298I0J1002D01*
G01X-1201692D01*
G02X-1202100Y1137698I-8J400D01*
G01Y1139029D01*
G02X-1201617Y1139420I400J0D01*
G03X-1201409Y1139398I209J980D01*
G03Y1141402I0J1002D01*
G03X-1201617Y1141380I1J-1002D01*
G02X-1202100Y1141771I-83J391D01*
G01Y1145018D01*
G02X-1201677Y1145418I400J1D01*
G03X-1201618Y1145416I63J1000D01*
G03Y1147420I0J1002D01*
G03X-1201677Y1147418I4J-1002D01*
G02X-1202100Y1147818I-23J399D01*
G01Y1150552D01*
G02X-1201677Y1150952I400J1D01*
G03X-1201618Y1150950I63J1000D01*
G03Y1152954I0J1002D01*
G03X-1201677Y1152952I4J-1002D01*
G02X-1202100Y1153352I-23J399D01*
G01Y1154454D01*
X-1201933Y1154482D01*
G03Y1156458I-167J988D01*
G01X-1202100Y1156486D01*
Y1163968D01*
G02X-1201900Y1164168I200J0D01*
G03Y1166572I0J1202D01*
G02X-1202100Y1166772I0J200D01*
G01Y1175200D01*
X-1200300Y1177000D01*
G37*
G36*
G01X-1223100Y1163700D02*
X-1206700D01*
X-1206530Y1163530D01*
G02X-1206641Y1162886I-283J-283D01*
G03X-1207327Y1161800I517J-1086D01*
G03X-1206125Y1160598I1202J0D01*
G03X-1205281Y1160944I0J1202D01*
G02X-1204600Y1160660I281J-285D01*
G01Y1156453D01*
G02X-1205285Y1156172I-400J0D01*
G03X-1206000Y1156472I-715J-702D01*
G03Y1154468I0J-1002D01*
G03X-1205285Y1154768I0J1002D01*
G02X-1204600Y1154487I285J-281D01*
G01Y1147655D01*
G02X-1205158Y1147288I-400J0D01*
G03X-1205555Y1147370I-397J-920D01*
G03Y1145366I0J-1002D01*
G03X-1205158Y1145448I0J1002D01*
G02X-1204600Y1145081I158J-367D01*
G01Y1143619D01*
G02X-1205113Y1143235I-400J0D01*
G03X-1205396Y1143276I-284J-961D01*
G03X-1206185Y1142892I0J-1003D01*
G02X-1206814Y1142891I-315J247D01*
G03X-1207600Y1143272I-786J-620D01*
G03X-1208602Y1142270I0J-1002D01*
G03X-1208304Y1141557I1002J0D01*
G02X-1208331Y1140964I-281J-284D01*
G03X-1208695Y1140191I639J-773D01*
G03X-1207693Y1139189I1002J0D01*
G03X-1206912Y1139563I0J1002D01*
G02X-1206285Y1139557I311J-251D01*
G03X-1205493Y1139169I792J614D01*
G03X-1205141Y1139233I0J1002D01*
G02X-1204600Y1138859I141J-374D01*
G01Y1138751D01*
X-1204609Y1138723D01*
G03X-1204652Y1138431I959J-290D01*
G03X-1204609Y1138139I1002J-2D01*
G01X-1204600Y1138111D01*
Y1134300D01*
X-1205100Y1133800D01*
X-1206321D01*
G02X-1206712Y1134284I0J400D01*
G03X-1206690Y1134494I-980J209D01*
G03X-1208694I-1002J0D01*
G03X-1208672Y1134284I1002J-1D01*
G02X-1209063Y1133800I-391J-84D01*
G01X-1210700D01*
X-1211864Y1134964D01*
G02X-1211489Y1135529I364J165D01*
G01X-1211461D01*
G03Y1137533I0J1002D01*
G01X-1211489D01*
G02X-1211900Y1137932I-11J400D01*
G01Y1139004D01*
G02X-1211537Y1139402I400J0D01*
G03Y1141398I-93J998D01*
G02X-1211900Y1141796I37J398D01*
G01Y1142907D01*
G02X-1211486Y1143307I400J0D01*
G03X-1211451Y1143306I46J1001D01*
G03X-1210738Y1143604I0J1002D01*
G02X-1210161Y1143596I285J-281D01*
G03X-1209430Y1143279I731J684D01*
G03X-1208428Y1144281I0J1002D01*
G03X-1208744Y1145011I-1001J0D01*
G02X-1208687Y1145639I274J292D01*
G03X-1208228Y1146481I-543J842D01*
G03X-1209230Y1147483I-1002J0D01*
G03X-1210038Y1147074I0J-1003D01*
G02X-1210656Y1147042I-322J237D01*
G03X-1211398Y1147370I-742J-675D01*
G03X-1212207Y1146959I0J-1002D01*
G02X-1212813Y1146913I-323J236D01*
G01X-1224300Y1158400D01*
Y1162500D01*
X-1223100Y1163700D01*
G37*
G36*
G01X-1159484Y951173D02*
G03X-1153932Y951306I2678J4161D01*
G02X-1153300Y950980I232J-326D01*
G01Y927900D01*
X-1157400Y923800D01*
X-1192900D01*
X-1194100Y925000D01*
Y933300D01*
X-1192900Y934500D01*
X-1187900D01*
X-1185900Y936500D01*
Y940743D01*
G02X-1185268Y941068I400J-1D01*
G03X-1179717Y940938I2871J4030D01*
G02X-1179100Y940602I217J-336D01*
G01Y936700D01*
X-1176900Y934500D01*
X-1162500D01*
X-1160100Y936900D01*
Y941578D01*
G03Y946254I-3595J2338D01*
G01Y950836D01*
G02X-1159484Y951173I400J0D01*
G37*
G36*
G01X-1175100Y1198900D02*
X-1171000D01*
X-1169600Y1197500D01*
Y1182700D01*
X-1166600Y1179700D01*
X-1161498D01*
X-1161138Y1179341D01*
G03X-1159900Y1178828I1238J1237D01*
G03X-1158736Y1179270I1J1751D01*
G01X-1158595Y1179395D01*
X-1158300Y1179100D01*
Y1176100D01*
X-1158900Y1175500D01*
X-1165733D01*
G03X-1167067I-667J-1000D01*
G01X-1169801D01*
X-1169859Y1175600D01*
G03X-1171941I-1041J-599D01*
G01X-1171999Y1175500D01*
X-1173900D01*
X-1174512Y1176112D01*
X-1174437Y1176244D01*
G03X-1174281Y1176836I-1045J592D01*
G03X-1175483Y1178038I-1202J0D01*
G01X-1175496D01*
G02X-1175900Y1178438I-4J400D01*
G01Y1180801D01*
X-1175800Y1180859D01*
G03Y1182941I-599J1041D01*
G01X-1175900Y1182999D01*
Y1184672D01*
G03Y1186528I-764J928D01*
G01Y1187939D01*
G03Y1190061I-563J1061D01*
G01Y1190885D01*
X-1175795Y1190941D01*
G03Y1193059I-569J1059D01*
G01X-1175900Y1193115D01*
Y1194085D01*
X-1175795Y1194141D01*
G03Y1196259I-569J1059D01*
G01X-1175900Y1196315D01*
Y1198100D01*
X-1175100Y1198900D01*
G37*
G36*
G01X-1132926Y1050500D02*
X-1131800D01*
X-1129500Y1048200D01*
X-1129325D01*
G02X-1128994Y1047575I0J-400D01*
G03X-1129202Y1046900I994J-676D01*
G03X-1128000Y1045698I1202J0D01*
G03X-1126940Y1046334I0J1201D01*
G02X-1126265Y1046384I353J-188D01*
G03X-1125300Y1045898I965J715D01*
G03X-1124512Y1046192I0J1203D01*
G02X-1123988I262J-302D01*
G03X-1123367Y1045910I787J908D01*
G01X-1123300Y1045900D01*
X-1122848Y1045448D01*
G02X-1122879Y1044854I-283J-283D01*
G03X-1123325Y1043920I755J-934D01*
G03X-1122123Y1042718I1202J0D01*
G03X-1121189Y1043164I0J1201D01*
G02X-1120595Y1043195I311J-252D01*
G01X-1114600Y1037200D01*
Y1031982D01*
G02X-1115295Y1031712I-400J0D01*
G03X-1116181Y1032102I-886J-811D01*
G03Y1029698I0J-1202D01*
G03X-1115295Y1030088I0J1201D01*
G02X-1114600Y1029818I295J-270D01*
G01Y1026800D01*
X-1117600Y1023800D01*
X-1121785D01*
G02X-1122167Y1024319I0J400D01*
G03X-1122112Y1024677I-1147J359D01*
G03X-1124516I-1202J0D01*
G03X-1124461Y1024319I1202J1D01*
G02X-1124843Y1023800I-382J-119D01*
G01X-1132538D01*
G02X-1132936Y1024167I1J400D01*
G03X-1135332I-1198J-101D01*
G02X-1135730Y1023800I-399J33D01*
G01X-1140281D01*
G02X-1140680Y1024225I0J400D01*
G03X-1140678Y1024300I-1200J70D01*
G03X-1143082I-1202J0D01*
G03X-1143080Y1024225I1202J-5D01*
G02X-1143479Y1023800I-399J-25D01*
G01X-1150397D01*
G03X-1151221Y1024127I-824J-875D01*
G03X-1151993Y1023847I-1J-1202D01*
G01X-1152048Y1023800D01*
X-1152500D01*
X-1153300Y1024600D01*
Y1028033D01*
G03X-1152998Y1028830I-901J797D01*
G03X-1153030Y1029105I-1202J-1D01*
G02X-1152638Y1029597I389J92D01*
G01X-1152630D01*
G03Y1032001I0J1202D01*
G03X-1153033Y1031931I1J-1202D01*
G01X-1153065Y1031920D01*
X-1153300D01*
Y1032556D01*
X-1153071D01*
X-1153043Y1032548D01*
G03X-1152700Y1032498I343J1151D01*
G03Y1034902I0J1202D01*
G03X-1152850Y1034893I-3J-1202D01*
G02X-1153208Y1035545I-50J397D01*
G03X-1152398Y1036681I-392J1136D01*
G03X-1152575Y1037309I-1203J0D01*
G01X-1152657Y1037443D01*
X-1148600Y1041500D01*
X-1144963D01*
X-1144928Y1041487D01*
G03X-1144500Y1041408I429J1123D01*
G03X-1144072Y1041487I-1J1202D01*
G01X-1144037Y1041500D01*
X-1139900D01*
X-1138483Y1042917D01*
G02X-1137931Y1042930I283J-283D01*
G03X-1137123Y1042618I808J890D01*
G03X-1135921Y1043820I0J1202D01*
G03X-1137106Y1045022I-1202J0D01*
G02X-1137500Y1045422I6J400D01*
G01Y1046898D01*
G02X-1137300Y1047098I200J0D01*
G03X-1136437Y1047463I0J1203D01*
G02X-1135863I287J-278D01*
G03X-1135779Y1047385I859J841D01*
G02X-1135704Y1046860I-259J-305D01*
G03X-1135902Y1046200I1004J-661D01*
G03X-1134996Y1045035I1202J0D01*
G02X-1134752Y1044441I-99J-388D01*
G03X-1134925Y1043820I1028J-621D01*
G03X-1132521I1202J0D01*
G03X-1133427Y1044985I-1202J0D01*
G02X-1133671Y1045579I99J388D01*
G03X-1133498Y1046200I-1028J621D01*
G03X-1133921Y1047115I-1201J0D01*
G02X-1133996Y1047640I259J305D01*
G03X-1133798Y1048300I-1004J661D01*
G03X-1134063Y1049053I-1202J0D01*
G02X-1133832Y1049695I312J250D01*
G03X-1132979Y1050382I-245J1177D01*
G01X-1132926Y1050500D01*
G37*
G36*
G01X-1162775Y1193748D02*
X-1161248D01*
X-1160600Y1193100D01*
Y1190200D01*
X-1153300Y1182900D01*
Y1170600D01*
X-1154900Y1169000D01*
X-1162400D01*
X-1162800Y1169400D01*
Y1171600D01*
X-1162200Y1172200D01*
X-1157600D01*
X-1156700Y1173100D01*
Y1182700D01*
X-1163200Y1189200D01*
Y1193323D01*
X-1162775Y1193748D01*
G37*
G36*
G01X-1138400Y1188400D02*
X-1128900Y1178900D01*
Y1172300D01*
X-1129225Y1171975D01*
X-1129325Y1171989D01*
G03X-1129500Y1172002I-176J-1189D01*
G03X-1130702Y1170800I0J-1202D01*
G03X-1130689Y1170625I1202J1D01*
G01X-1130675Y1170525D01*
X-1133000Y1168200D01*
X-1136100D01*
X-1136800Y1168900D01*
Y1177100D01*
X-1145200Y1185500D01*
Y1187500D01*
X-1144300Y1188400D01*
X-1139486D01*
X-1139450Y1188385D01*
G03X-1139000Y1188298I449J1115D01*
G03X-1138515Y1188400I0J1202D01*
G01X-1138400D01*
G37*
G36*
G01X-1068970Y970300D02*
X-1065122D01*
G02X-1064840Y969616I0J-400D01*
G03X-1065889Y967096I2502J-2520D01*
G01Y963160D01*
G03X-1058787I3551J-1D01*
G01Y967096D01*
G03X-1058825Y967615I-3551J1D01*
G01X-1058840Y967715D01*
X-1058627Y967927D01*
X-1058300Y967600D01*
Y959978D01*
G03Y946262I2457J-6858D01*
G01Y925000D01*
X-1059300Y924000D01*
X-1136300D01*
X-1138600Y926300D01*
Y967400D01*
X-1137936Y968064D01*
G02X-1137259Y967712I283J-283D01*
G03X-1137313Y967096I3497J-617D01*
G01Y963160D01*
G03X-1130211I3551J-1D01*
G01Y967096D01*
Y967141D01*
G02X-1129529Y967429I400J5D01*
G01X-1129150Y967050D01*
X-1127150D01*
X-1127100Y967000D01*
X-1076400D01*
X-1075988Y967412D01*
G02X-1075305Y967126I283J-282D01*
G01Y963160D01*
G03X-1068203I3551J-1D01*
G01Y967096D01*
G03X-1069252Y969616I-3551J0D01*
G02X-1068970Y970300I282J284D01*
G37*
G36*
G01X-1130700Y1190100D02*
X-1128000D01*
X-1126626Y1188726D01*
X-1126613Y1188670D01*
G03X-1125715Y1187772I1171J273D01*
G01X-1125659Y1187759D01*
X-1123500Y1185600D01*
Y1167900D01*
X-1127447Y1163953D01*
G02X-1128097Y1164077I-283J283D01*
G03X-1128889Y1164761I-1103J-477D01*
G02X-1129139Y1165335I103J386D01*
G03X-1128998Y1165900I-1062J565D01*
G03X-1131402I-1202J0D01*
G03X-1130511Y1164739I1202J0D01*
G02X-1130261Y1164165I-103J-386D01*
G03X-1130402Y1163600I1062J-565D01*
G03X-1129423Y1162419I1202J0D01*
G01X-1129363Y1162407D01*
X-1129178Y1162222D01*
X-1129400Y1162000D01*
X-1134800D01*
X-1135400Y1162600D01*
Y1164300D01*
X-1130000Y1169700D01*
X-1129883Y1169661D01*
G03X-1129500Y1169598I384J1139D01*
G03X-1128298Y1170800I0J1202D01*
G03X-1128361Y1171183I-1202J-1D01*
G01X-1128400Y1171300D01*
X-1127700Y1172000D01*
Y1179200D01*
X-1131400Y1182900D01*
Y1183675D01*
X-1131065D01*
X-1131015Y1183550D01*
G03X-1129900Y1182798I1115J451D01*
G03Y1185202I0J1202D01*
G03X-1130725Y1184874I0J-1202D01*
G02X-1131400Y1185165I-275J290D01*
G01Y1189400D01*
X-1130700Y1190100D01*
G37*
G36*
G01X-1062100Y1094200D02*
X-1055600D01*
X-1053400Y1092000D01*
Y1083000D01*
X-1056725Y1079675D01*
X-1056825Y1079689D01*
G03X-1057000Y1079702I-176J-1189D01*
G03X-1058202Y1078500I0J-1202D01*
G03X-1058189Y1078325I1202J1D01*
G01X-1058175Y1078225D01*
X-1058650Y1077750D01*
G02X-1059324Y1077950I-283J283D01*
G03X-1060500Y1078902I-1176J-250D01*
G03X-1061702Y1077700I0J-1202D01*
G03X-1061120Y1076670I1202J0D01*
G02X-1061145Y1075971I-207J-343D01*
G03X-1061802Y1074900I544J-1071D01*
G03X-1061789Y1074725I1202J1D01*
G01X-1061775Y1074625D01*
X-1067100Y1069300D01*
X-1067726D01*
G02X-1068119Y1069775I0J400D01*
G03X-1068098Y1070000I-1181J224D01*
G03X-1070502I-1202J0D01*
G03X-1070481Y1069775I1202J-1D01*
G02X-1070874Y1069300I-393J-75D01*
G01X-1078800D01*
X-1081000Y1071500D01*
Y1077300D01*
X-1079829Y1078471D01*
G03X-1076916Y1078500I1425J3185D01*
G01X-1073500D01*
X-1071931Y1080069D01*
G02X-1071261Y1079890I283J-282D01*
G03X-1070100Y1078998I1161J310D01*
G03X-1068898Y1080200I0J1202D01*
G03X-1069302Y1081099I-1202J0D01*
G02X-1069327Y1081673I265J299D01*
G03X-1068998Y1082500I-873J826D01*
G03X-1069041Y1082817I-1202J-2D01*
G01X-1069071Y1082929D01*
X-1063200Y1088800D01*
Y1090703D01*
G03Y1092297I-901J797D01*
G01Y1093100D01*
X-1062100Y1094200D01*
G37*
%LPC*%
G75*
G36*
G01X-1160579Y992538D02*
Y999624D01*
G02X-1153033I3773J0D01*
G01Y992538D01*
G02X-1160579I-3773J0D01*
G37*
G36*
G01X-1186169Y980334D02*
Y987420D01*
G02X-1178623I3773J0D01*
G01Y980334D01*
G02X-1186169I-3773J0D01*
G37*
G36*
G01X-1294192Y943866D02*
Y947804D01*
G02X-1288666I2763J-1D01*
G01Y943866D01*
G02X-1294192I-2763J1D01*
G37*
G36*
G01X-1218497Y935034D02*
X-1212703D01*
G02Y928324I0J-3355D01*
G01X-1218497D01*
G02Y935034I0J3355D01*
G37*
G36*
G01X-1246660Y927426D02*
Y934926D01*
G02X-1246258Y935328I402J0D01*
G01X-1238758D01*
G02X-1238356Y934926I0J-402D01*
G01Y927426D01*
G02X-1238758Y927024I-402J0D01*
G01X-1246258D01*
G02X-1246660Y927426I0J402D01*
G37*
G36*
G01X-1260334Y927330D02*
Y931268D01*
G02X-1254808I2763J-1D01*
G01Y927330D01*
G02X-1260334I-2763J1D01*
G37*
G36*
G01X-1294192D02*
Y931268D01*
G02X-1288666I2763J-1D01*
G01Y927330D01*
G02X-1294192I-2763J1D01*
G37*
G36*
G01X-1015147Y960964D02*
G02X-1015722Y963612I5802J2646D01*
G01Y966644D01*
G02X-1002970I6376J0D01*
G01Y963612D01*
G02X-1009130Y957240I-6376J1D01*
G03X-1009467Y956646I13J-400D01*
G02X-1008556Y953120I-6375J-3528D01*
G02X-1015842Y960406I-7286J0D01*
G02X-1015528Y960399I-5J-7286D01*
G03X-1015147Y960964I17J399D01*
G37*
G36*
G01X-1067736Y996392D02*
G03X-1067389Y996816I-52J397D01*
G02X-1067392Y996900I1199J85D01*
G02X-1064988I1202J0D01*
G02X-1066034Y995708I-1202J0D01*
G03X-1066381Y995284I52J-397D01*
G02X-1066378Y995200I-1199J-85D01*
G02X-1068782I-1202J0D01*
G02X-1067736Y996392I1202J0D01*
G37*
G36*
G01X-1109063Y1019992D02*
G02X-1110100Y1019398I-1037J608D01*
G02Y1021802I0J1202D01*
G02X-1109111Y1021283I0J-1202D01*
G03X-1108437Y1021308I329J227D01*
G02X-1107400Y1021902I1037J-608D01*
G02Y1019498I0J-1202D01*
G02X-1108389Y1020017I0J1202D01*
G03X-1109063Y1019992I-329J-227D01*
G37*
G36*
G01X-1004807Y1039601D02*
G02X-1005651Y1040749I359J1148D01*
G02X-1003247I1202J0D01*
G02X-1003454Y1040074I-1202J-1D01*
G03X-1003242Y1039468I331J-224D01*
G02X-1002398Y1038320I-359J-1148D01*
G02X-1004802I-1202J0D01*
G02X-1004595Y1038995I1202J1D01*
G03X-1004807Y1039601I-331J224D01*
G37*
G36*
G01X-1239107Y1174403D02*
G02X-1240202Y1175600I107J1197D01*
G02X-1237798I1202J0D01*
G02X-1237843Y1175274I-1203J0D01*
G03X-1237493Y1174767I385J-109D01*
G02X-1236398Y1173570I-107J-1197D01*
G02X-1238802I-1202J0D01*
G02X-1238757Y1173896I1203J0D01*
G03X-1239107Y1174403I-385J109D01*
G37*
G36*
G01X-1263893Y1166891D02*
G02X-1264732Y1166550I-839J862D01*
G02Y1168954I0J1202D01*
G02X-1263671Y1168318I0J-1203D01*
G03X-1263039Y1168220I353J188D01*
G02X-1262200Y1168561I839J-862D01*
G02Y1166157I0J-1202D01*
G02X-1263261Y1166793I0J1203D01*
G03X-1263893Y1166891I-353J-188D01*
G37*
G36*
G01X-1234061Y1148415D02*
G02X-1234102Y1148700I961J284D01*
G02X-1232098I1002J0D01*
G02X-1233068Y1147698I-1003J0D01*
G03X-1233439Y1147185I12J-399D01*
G02X-1233398Y1146900I-961J-284D01*
G02X-1235402I-1002J0D01*
G02X-1234432Y1147902I1003J0D01*
G03X-1234061Y1148415I-12J399D01*
G37*
G36*
G01X-1219965Y1145523D02*
G02X-1220202Y1146170I765J647D01*
G02X-1219200Y1147172I1002J0D01*
G02X-1218438Y1146820I0J-1001D01*
G03X-1217800Y1146859I304J260D01*
G02X-1216965Y1147307I835J-554D01*
G02Y1145303I0J-1002D01*
G02X-1217727Y1145655I0J1001D01*
G03X-1218365Y1145616I-304J-260D01*
G02X-1218576Y1145386I-835J554D01*
G03X-1218632Y1144815I249J-313D01*
G02X-1218395Y1144168I-765J-647D01*
G02X-1220399I-1002J0D01*
G02X-1220021Y1144952I1002J0D01*
G03X-1219965Y1145523I-249J313D01*
G37*
G36*
G01X-1220050Y1137726D02*
G02X-1220449Y1138526I603J800D01*
G02X-1219447Y1139528I1002J0D01*
G02X-1218726Y1139221I-1J-1002D01*
G03X-1218155Y1139216I288J278D01*
G02X-1217447Y1139509I708J-709D01*
G02X-1216445Y1138507I0J-1002D01*
G02X-1216829Y1137719I-1002J1D01*
G03X-1216787Y1137060I247J-315D01*
G02X-1216298Y1136200I-512J-860D01*
G02X-1217300Y1135198I-1002J0D01*
G02X-1218089Y1135583I0J1001D01*
G03X-1218687Y1135619I-315J-247D01*
G02X-1219397Y1135324I-710J707D01*
G02X-1220399Y1136326I0J1002D01*
G02X-1220036Y1137098I1002J0D01*
G03X-1220050Y1137726I-255J308D01*
G37*
G36*
G01X-1275136Y1130396D02*
G02X-1275502Y1131260I837J864D01*
G02X-1273098I1202J0D01*
G02X-1273621Y1130268I-1202J0D01*
G03X-1273673Y1129651I226J-330D01*
G02X-1273307Y1128787I-837J-864D01*
G02X-1275711I-1202J0D01*
G02X-1275188Y1129779I1202J0D01*
G03X-1275136Y1130396I-226J330D01*
G37*
G36*
G01X-1262126Y1124066D02*
G02X-1262680Y1125078I647J1012D01*
G02X-1260276I1202J0D01*
G02X-1260926Y1124010I-1202J0D01*
G03X-1260958Y1123318I184J-355D01*
G02X-1260404Y1122306I-647J-1012D01*
G02X-1262808I-1202J0D01*
G02X-1262158Y1123374I1202J0D01*
G03X-1262126Y1124066I-184J355D01*
G37*
G36*
G01X-1274381Y1123296D02*
G02X-1274575Y1123950I1008J655D01*
G02X-1272171I1202J0D01*
G02X-1272910Y1122841I-1202J0D01*
G03X-1273092Y1122254I154J-369D01*
G02X-1272898Y1121600I-1008J-655D01*
G02X-1275302I-1202J0D01*
G02X-1274563Y1122709I1202J0D01*
G03X-1274381Y1123296I-154J369D01*
G37*
G36*
G01X-1267590Y1121945D02*
G02X-1268175Y1122976I616J1031D01*
G02X-1265771I1202J0D01*
G02X-1266348Y1121949I-1202J0D01*
G03X-1266346Y1121264I208J-342D01*
G02X-1265761Y1120233I-616J-1031D01*
G02X-1268165I-1202J0D01*
G02X-1267588Y1121260I1202J0D01*
G03X-1267590Y1121945I-208J342D01*
G37*
G36*
G01X-1233246Y1116969D02*
G02X-1234202Y1117970I46J1001D01*
G02X-1232198I1002J0D01*
G02X-1232225Y1117739I-1002J0D01*
G03X-1231854Y1117247I389J-92D01*
G02X-1230898Y1116246I-46J-1001D01*
G02X-1232902I-1002J0D01*
G02X-1232875Y1116477I1002J0D01*
G03X-1233246Y1116969I-389J92D01*
G37*
G36*
G01X-1262437Y1097206D02*
G02X-1262462Y1097451I1177J244D01*
G02X-1261260Y1096249I1202J0D01*
G02X-1261505Y1096274I-1J1202D01*
G03X-1261978Y1095801I-82J-391D01*
G02X-1261976Y1095791I-1178J-241D01*
G03X-1261503Y1095478I392J79D01*
G02X-1261260Y1095503I244J-1177D01*
G02Y1093099I0J-1202D01*
G02X-1262439Y1094066I0J1202D01*
G03X-1262912Y1094379I-392J-79D01*
G02X-1263155Y1094354I-244J1177D01*
G02Y1096758I0J1202D01*
G02X-1262910Y1096733I1J-1202D01*
G03X-1262437Y1097206I82J391D01*
G37*
G36*
G01X-1290648Y1094230D02*
G02X-1291302Y1095300I548J1070D01*
G02X-1288898I1202J0D01*
G02X-1289402Y1094321I-1203J0D01*
G03X-1289352Y1093640I232J-325D01*
G02X-1288698Y1092570I-548J-1070D01*
G02X-1291102I-1202J0D01*
G02X-1290598Y1093549I1203J0D01*
G03X-1290648Y1094230I-232J325D01*
G37*
G36*
G01X-1210365Y1181365D02*
G03X-1210914Y1181390I-288J-278D01*
G02X-1211700Y1181098I-785J910D01*
G02Y1183502I0J1202D01*
G02X-1210835Y1183135I0J-1203D01*
G03X-1210286Y1183110I288J278D01*
G02X-1209500Y1183402I785J-910D01*
G02Y1180998I0J-1202D01*
G02X-1210365Y1181365I0J1203D01*
G37*
G36*
G01X-1186906Y1175031D02*
G03X-1186778Y1175260I-68J188D01*
G02X-1186802Y1175500I1178J239D01*
G02X-1184398I1202J0D01*
G02X-1185194Y1174369I-1201J0D01*
G03X-1185322Y1174140I68J-188D01*
G02X-1185298Y1173900I-1178J-239D01*
G02X-1187702I-1202J0D01*
G02X-1186906Y1175031I1201J0D01*
G37*
G36*
G01X-1266624Y1137663D02*
G03X-1266585Y1138161I-292J273D01*
G02X-1266791Y1138834I996J673D01*
G02X-1264387I1202J0D01*
G02X-1264713Y1138011I-1202J0D01*
G03X-1264752Y1137513I292J-273D01*
G02X-1264546Y1136840I-996J-673D01*
G02X-1266950I-1202J0D01*
G02X-1266624Y1137663I1202J0D01*
G37*
G36*
G01X-1239344Y1136232D02*
G03X-1239825Y1136497I-381J-122D01*
G02X-1240125Y1136459I-300J1165D01*
G02Y1138863I0J1202D01*
G02X-1238981Y1138029I0J-1202D01*
G03X-1238500Y1137764I381J122D01*
G02X-1238200Y1137802I300J-1165D01*
G02Y1135398I0J-1202D01*
G02X-1239344Y1136232I0J1202D01*
G37*
G36*
G01X-1245997Y1126300D02*
G03X-1246497Y1126325I-266J-299D01*
G02X-1247200Y1126098I-703J975D01*
G02Y1128502I0J1202D01*
G02X-1246403Y1128200I0J-1203D01*
G03X-1245903Y1128175I266J299D01*
G02X-1245200Y1128402I703J-975D01*
G02Y1125998I0J-1202D01*
G02X-1245997Y1126300I0J1203D01*
G37*
G36*
G01X-1260388Y1118089D02*
G03X-1260942Y1118124I-295J-269D01*
G02X-1261722Y1117837I-780J915D01*
G02Y1120241I0J1202D01*
G02X-1260834Y1119850I1J-1202D01*
G03X-1260280Y1119815I295J269D01*
G02X-1259500Y1120102I780J-915D01*
G02Y1117698I0J-1202D01*
G02X-1260388Y1118089I-1J1202D01*
G37*
G36*
G01X-1241961Y1104966D02*
G03X-1242085Y1105483I-353J189D01*
G02X-1242602Y1106470I684J987D01*
G02X-1240198I1202J0D01*
G02X-1240339Y1105904I-1202J-1D01*
G03X-1240215Y1105387I353J-189D01*
G02X-1239698Y1104400I-684J-987D01*
G02X-1242102I-1202J0D01*
G02X-1241961Y1104966I1202J1D01*
G37*
G36*
G01X-1265912Y1099679D02*
G03X-1265510Y1100117I4J400D01*
G02X-1265515Y1100230I1197J110D01*
G02X-1264313Y1099028I1202J0D01*
G01X-1264324D01*
G03X-1264726Y1098590I-4J-400D01*
G02X-1264721Y1098477I-1197J-110D01*
G02X-1265923Y1099679I-1202J0D01*
G01X-1265912D01*
G37*
G36*
G01X-1239591Y1097660D02*
G03X-1239720Y1097874I-198J26D01*
G02X-1240502Y1099000I420J1126D01*
G02X-1239300Y1100202I1202J0D01*
G02X-1238528Y1099922I1J-1202D01*
G03X-1238272I128J153D01*
G02X-1237500Y1100202I771J-922D01*
G02X-1236298Y1099000I0J-1202D01*
G02X-1237080Y1097874I-1202J0D01*
G03X-1237209Y1097660I69J-188D01*
G02X-1237198Y1097500I-1191J-162D01*
G02X-1239602I-1202J0D01*
G02X-1239591Y1097660I1202J-2D01*
G37*
G36*
G01X-1274150Y1013739D02*
G03X-1273650I250J313D01*
G02X-1272900Y1014002I750J-938D01*
G02X-1272128Y1013722I1J-1202D01*
G03X-1271872I128J153D01*
G02X-1271100Y1014002I771J-922D01*
G02X-1269898Y1012800I0J-1202D01*
G02X-1270102Y1012130I-1202J0D01*
G03X-1270074Y1011873I166J-112D01*
G02X-1269698Y1011000I-825J-873D01*
G02X-1270065Y1010135I-1203J0D01*
G03X-1270090Y1009586I278J-288D01*
G02X-1269798Y1008800I-910J-785D01*
G02X-1271000Y1007598I-1202J0D01*
G02X-1271814Y1007916I0J1201D01*
G03X-1272086I-136J-147D01*
G02X-1272900Y1007598I-814J883D01*
G02X-1273672Y1007878I-1J1202D01*
G03X-1273928I-128J-153D01*
G02X-1274700Y1007598I-771J922D01*
G02X-1275902Y1008800I0J1202D01*
G02X-1275574Y1009625I1202J0D01*
G03Y1010175I-291J275D01*
G02X-1275902Y1011000I874J825D01*
G02X-1275698Y1011670I1202J0D01*
G03X-1275726Y1011927I-166J112D01*
G02X-1276102Y1012800I825J873D01*
G02X-1274900Y1014002I1202J0D01*
G02X-1274150Y1013739I0J-1201D01*
G37*
G36*
G01X-1272249Y950560D02*
G03X-1272752Y950556I-249J-313D01*
G02X-1273516Y950282I-764J928D01*
G02Y952686I0J1202D01*
G02X-1272767Y952424I0J-1202D01*
G03X-1272264Y952428I249J313D01*
G02X-1271500Y952702I764J-928D01*
G02Y950298I0J-1202D01*
G02X-1272249Y950560I0J1202D01*
G37*
G36*
G01X-1262656Y952234D02*
G03X-1262605Y952809I-250J312D01*
G02X-1262902Y953600I905J791D01*
G02X-1260498I1202J0D01*
G02X-1260946Y952664I-1202J0D01*
G03X-1260997Y952089I250J-312D01*
G02X-1260700Y951298I-905J-791D01*
G02X-1263104I-1202J0D01*
G02X-1262656Y952234I1202J0D01*
G37*
G36*
G01X-1267884Y973267D02*
G03X-1267693Y973443I-8J200D01*
G02X-1266500Y974502I1193J-142D01*
G02X-1265326Y973559I0J-1202D01*
G03X-1265126Y973402I195J43D01*
G01X-1265100D01*
G02Y970998I0J-1202D01*
G02X-1266095Y971526I0J1202D01*
G03X-1266778Y971492I-331J-224D01*
G02X-1267834Y970864I-1056J574D01*
G02X-1269036Y972066I0J1202D01*
G02X-1267884Y973267I1202J0D01*
G37*
G36*
G01X-1234723Y972524D02*
G03X-1234979Y972538I-136J-146D01*
G02X-1235700Y972298I-721J963D01*
G02Y974702I0J1202D01*
G02X-1234877Y974376I0J-1202D01*
G03X-1234621Y974362I136J146D01*
G02X-1233900Y974602I721J-963D01*
G02Y972198I0J-1202D01*
G02X-1234723Y972524I0J1202D01*
G37*
G36*
G01X-1212570Y974572D02*
G03X-1213070I-250J-313D01*
G02X-1213820Y974309I-750J938D01*
G02Y976713I0J1202D01*
G02X-1213070Y976450I0J-1201D01*
G03X-1212570I250J313D01*
G02X-1211820Y976713I750J-938D01*
G02Y974309I0J-1202D01*
G02X-1212570Y974572I0J1201D01*
G37*
G36*
G01X-1207926Y977374D02*
G03X-1207876Y977898I-274J291D01*
G02X-1208102Y978600I977J702D01*
G02X-1205698I1202J0D01*
G02X-1205818Y978075I-1202J-1D01*
G03X-1205444Y977501I360J-174D01*
G02X-1205400Y977502I49J-1201D01*
G02Y975098I0J-1202D01*
G02X-1206349Y975562I0J1202D01*
G02X-1207100Y975298I-752J938D01*
G02X-1208302Y976500I0J1202D01*
G02X-1207926Y977374I1202J1D01*
G37*
G36*
G01X-1268222Y984472D02*
G03Y984728I-153J128D01*
G02X-1268502Y985500I922J771D01*
G02X-1266098I1202J0D01*
G02X-1266378Y984728I-1202J-1D01*
G03Y984472I153J-128D01*
G02X-1266098Y983700I-922J-771D01*
G02X-1268502I-1202J0D01*
G02X-1268222Y984472I1202J1D01*
G37*
G36*
G01X-1043214Y1036752D02*
G03X-1043388Y1037252I-370J151D01*
G02X-1044002Y1038300I587J1048D01*
G02X-1041598I1202J0D01*
G02X-1041686Y1037848I-1202J-1D01*
G03X-1041512Y1037348I370J-151D01*
G02X-1040898Y1036300I-587J-1048D01*
G02X-1043302I-1202J0D01*
G02X-1043214Y1036752I1202J1D01*
G37*
G36*
G01X-1027397Y1036988D02*
G03X-1027896Y1037337I-398J-38D01*
G02X-1028200Y1037298I-304J1163D01*
G02Y1039702I0J1202D01*
G02X-1027456Y1039444I0J-1202D01*
G02X-1026600Y1039802I856J-844D01*
G02X-1025398Y1038600I0J-1202D01*
G02X-1025513Y1038086I-1202J-1D01*
G02X-1024998Y1037100I-686J-986D01*
G02X-1025356Y1036244I-1202J0D01*
G02X-1025098Y1035500I-944J-744D01*
G02X-1027502I-1202J0D01*
G02X-1027144Y1036356I1202J0D01*
G02X-1027397Y1036988I944J744D01*
G37*
G36*
G01X-1073310Y1044370D02*
G03X-1073235Y1044944I-236J323D01*
G02X-1073502Y1045700I935J755D01*
G02X-1071098I1202J0D01*
G02X-1071590Y1044730I-1202J0D01*
G03X-1071665Y1044156I236J-323D01*
G02X-1071398Y1043400I-935J-755D01*
G02X-1073802I-1202J0D01*
G02X-1073310Y1044370I1202J0D01*
G37*
G36*
G01X-1160642Y1046054D02*
G03X-1161192Y1046129I-314J-248D01*
G02X-1161900Y1045898I-708J971D01*
G02Y1048302I0J1202D01*
G02X-1160958Y1047846I0J-1201D01*
G03X-1160408Y1047771I314J248D01*
G02X-1159700Y1048002I708J-971D01*
G02Y1045598I0J-1202D01*
G02X-1160642Y1046054I0J1201D01*
G37*
G36*
G01X-1202412Y1048308D02*
G03X-1201888I262J302D01*
G02X-1201100Y1048602I788J-909D01*
G02X-1200355Y1048344I1J-1202D01*
G03X-1199831Y1048368I248J314D01*
G02X-1199000Y1048702I831J-867D01*
G02X-1197798Y1047500I0J-1202D01*
G02X-1198092Y1046712I-1203J0D01*
G03Y1046188I302J-262D01*
G02X-1197798Y1045400I-909J-788D01*
G02X-1199000Y1044198I-1202J0D01*
G02X-1199831Y1044532I0J1201D01*
G03X-1200355Y1044556I-276J-290D01*
G02X-1201100Y1044298I-744J944D01*
G02X-1201888Y1044592I0J1203D01*
G03X-1202412I-262J-302D01*
G02X-1203200Y1044298I-788J909D01*
G02X-1204402Y1045500I0J1202D01*
G02X-1204084Y1046314I1201J0D01*
G03Y1046586I-147J136D01*
G02X-1204402Y1047400I883J814D01*
G02X-1203200Y1048602I1202J0D01*
G02X-1202412Y1048308I0J-1203D01*
G37*
G36*
G01X-1097025Y1046626D02*
G03X-1097575I-275J-291D01*
G02X-1098400Y1046298I-825J874D01*
G02Y1048702I0J1202D01*
G02X-1097575Y1048374I0J-1202D01*
G03X-1097025I275J291D01*
G02X-1096200Y1048702I825J-874D01*
G02Y1046298I0J-1202D01*
G02X-1097025Y1046626I0J1202D01*
G37*
G36*
G01X-1081474Y1046519D02*
G02X-1081398Y1046100I-1126J-421D01*
G02X-1083802I-1202J0D01*
G02X-1083126Y1047181I1202J0D01*
G02X-1083202Y1047600I1126J421D01*
G02X-1080798I1202J0D01*
G02X-1081474Y1046519I-1202J0D01*
G37*
G36*
G01X-1168084Y1050614D02*
G03Y1050886I-147J136D01*
G02X-1168402Y1051700I883J814D01*
G02X-1167200Y1052902I1202J0D01*
G02X-1166308Y1052506I0J-1203D01*
G03X-1166046Y1052475I149J134D01*
G02X-1165362Y1052689I685J-988D01*
G02X-1164548Y1052371I0J-1201D01*
G03X-1164276I136J147D01*
G02X-1163462Y1052689I814J-883D01*
G02X-1162260Y1051487I0J-1202D01*
G02X-1162552Y1050701I-1202J-1D01*
G03X-1162558Y1050446I151J-131D01*
G02X-1162298Y1049700I-942J-747D01*
G02X-1163500Y1048498I-1202J0D01*
G02X-1164314Y1048816I0J1201D01*
G03X-1164586I-136J-147D01*
G02X-1165400Y1048498I-814J883D01*
G02X-1166223Y1048824I0J1202D01*
G03X-1166479Y1048838I-136J-146D01*
G02X-1167200Y1048598I-721J963D01*
G02X-1168402Y1049800I0J1202D01*
G02X-1168084Y1050614I1201J0D01*
G37*
G36*
G01X-1083208Y1053388D02*
G03Y1053912I-302J262D01*
G02X-1083502Y1054700I909J788D01*
G02X-1081098I1202J0D01*
G02X-1081392Y1053912I-1203J0D01*
G03Y1053388I302J-262D01*
G02X-1081098Y1052600I-909J-788D01*
G02X-1081679Y1051571I-1202J0D01*
G03X-1081829Y1051046I206J-343D01*
G02X-1081698Y1050500I-1072J-546D01*
G02X-1084102I-1202J0D01*
G02X-1083521Y1051529I1202J0D01*
G03X-1083371Y1052054I-206J343D01*
G02X-1083502Y1052600I1072J546D01*
G02X-1083208Y1053388I1203J0D01*
G37*
G36*
G01X-1055190Y1062968D02*
G03X-1055515Y1063417I-396J55D01*
G02X-1056502Y1064600I215J1183D01*
G02X-1054098I1202J0D01*
G02X-1054110Y1064432I-1202J1D01*
G03X-1053785Y1063983I396J-55D01*
G02X-1052798Y1062800I-215J-1183D01*
G02X-1055202I-1202J0D01*
G02X-1055190Y1062968I1202J-1D01*
G37*
G36*
G01X-1047934Y1106433D02*
G03X-1048011Y1106926I-347J198D01*
G02X-1048402Y1107813I811J887D01*
G02X-1045998I1202J0D01*
G02X-1046156Y1107217I-1203J0D01*
G03X-1046079Y1106724I347J-198D01*
G02X-1045688Y1105837I-811J-887D01*
G02X-1048092I-1202J0D01*
G02X-1047934Y1106433I1203J0D01*
G37*
G36*
G01X-1026302Y1109699D02*
Y1109700D01*
G02X-1025100Y1108498I1202J0D01*
G02X-1025174Y1108500I-5J1202D01*
G03X-1025598Y1108101I-24J-399D01*
G01Y1108100D01*
G02X-1026800Y1109302I-1202J0D01*
G02X-1026726Y1109300I5J-1202D01*
G03X-1026302Y1109699I24J399D01*
G37*
G36*
G01X-1016157Y1111175D02*
G03X-1016385Y1111317I-192J-55D01*
G02X-1016600Y1111298I-213J1183D01*
G02Y1113702I0J1202D01*
G02X-1015443Y1112825I0J-1202D01*
G03X-1015215Y1112683I192J55D01*
G02X-1015000Y1112702I213J-1183D01*
G02X-1013798Y1111500I0J-1202D01*
G01Y1111489D01*
G03X-1013627Y1111289I200J-2D01*
G02X-1012737Y1110661I-173J-1189D01*
G03X-1012509Y1110562I176J94D01*
G02X-1012200Y1110602I308J-1162D01*
G02X-1010998Y1109400I0J-1202D01*
G02X-1011092Y1108935I-1202J1D01*
G03X-1010783Y1108385I369J-154D01*
G02X-1012926Y1107815I-418J-2742D01*
G03X-1012931Y1108446I-249J314D01*
G02X-1013263Y1108839I731J954D01*
G03X-1013491Y1108938I-176J-94D01*
G02X-1013800Y1108898I-308J1162D01*
G02X-1015002Y1110100I0J1202D01*
G01Y1110111D01*
G03X-1015173Y1110311I-200J2D01*
G02X-1016157Y1111175I173J1189D01*
G37*
G36*
G01X-1011839Y1122450D02*
G02X-1012102Y1123200I938J750D01*
G02X-1011750Y1124050I1202J0D01*
G02X-1012102Y1124900I850J850D01*
G02X-1009698I1202J0D01*
G02X-1010050Y1124050I-1202J0D01*
G02X-1009698Y1123200I-850J-850D01*
G02X-1009961Y1122450I-1201J0D01*
G03Y1121950I313J-250D01*
G02Y1120450I-938J-750D01*
G03Y1119950I313J-250D01*
G02X-1009698Y1119200I-938J-750D01*
G02X-1012102I-1202J0D01*
G02X-1011839Y1119950I1201J0D01*
G03Y1120450I-313J250D01*
G02Y1121950I938J750D01*
G03Y1122450I-313J250D01*
G37*
G36*
G01X-1008867Y1137984D02*
G03Y1138510I-301J263D01*
G02X-1009163Y1139300I906J790D01*
G02X-1006759I1202J0D01*
G02X-1007055Y1138510I-1202J0D01*
G03Y1137984I301J-263D01*
G02X-1006759Y1137194I-906J-790D01*
G02X-1009163I-1202J0D01*
G02X-1008867Y1137984I1202J0D01*
G37*
G36*
G01X-1007659Y1154847D02*
G03X-1007385Y1155296I-120J381D01*
G02X-1007402Y1155500I1185J201D01*
G02X-1004998I1202J0D01*
G02X-1005841Y1154353I-1202J0D01*
G03X-1006115Y1153904I120J-381D01*
G02X-1006098Y1153700I-1185J-201D01*
G02X-1008502I-1202J0D01*
G02X-1007659Y1154847I1202J0D01*
G37*
G36*
G01X-1236381Y1219488D02*
G03X-1236041Y1219888I-60J396D01*
G01Y1219900D01*
G02X-1233637I1202J0D01*
G02X-1234658Y1218712I-1202J0D01*
G03X-1234998Y1218312I60J-396D01*
G01Y1218300D01*
G02X-1237402I-1202J0D01*
G02X-1236381Y1219488I1202J0D01*
G37*
G36*
G01X-1231735Y1218283D02*
G03X-1232085Y1218707I-399J27D01*
G02X-1233141Y1219900I146J1193D01*
G02X-1230737I1202J0D01*
G02X-1230740Y1219817I-1202J2D01*
G03X-1230390Y1219393I399J-27D01*
G02X-1229334Y1218200I-146J-1193D01*
G02X-1231738I-1202J0D01*
G02X-1231735Y1218283I1202J-2D01*
G37*
G36*
G01X-1230171Y1221366D02*
G03X-1230637Y1221627I-378J-129D01*
G02X-1230900Y1221598I-262J1173D01*
G02Y1224002I0J1202D01*
G02X-1229763Y1223190I0J-1202D01*
G03X-1229297Y1222929I378J129D01*
G02X-1229034Y1222958I262J-1173D01*
G02Y1220554I0J-1202D01*
G02X-1230171Y1221366I0J1202D01*
G37*
G36*
G01X-1230901Y965641D02*
G02X-1230902Y965700I1201J50D01*
G02X-1229700Y964498I1202J0D01*
G02X-1230075Y964558I0J1202D01*
G03X-1230599Y964159I-125J-380D01*
G02X-1230598Y964100I-1201J-50D01*
G02X-1231800Y965302I-1202J0D01*
G02X-1231425Y965242I0J-1202D01*
G03X-1230901Y965641I125J380D01*
G37*
G36*
G01X-1221545Y965757D02*
G02X-1221802Y966500I946J743D01*
G02X-1219398I1202J0D01*
G02X-1220030Y965442I-1202J0D01*
G03X-1220155Y964843I190J-352D01*
G02X-1219898Y964100I-946J-743D01*
G02X-1222302I-1202J0D01*
G02X-1221670Y965158I1202J0D01*
G03X-1221545Y965757I-190J352D01*
G37*
G36*
G01X-1264155Y980459D02*
G02X-1264168Y980634I1189J176D01*
G02X-1262966Y979432I1202J0D01*
G02X-1263003Y979433I14J1202D01*
G03X-1263411Y978975I-12J-400D01*
G02X-1263398Y978800I-1189J-176D01*
G02X-1263491Y978337I-1202J1D01*
G03X-1263066Y977786I369J-155D01*
G02X-1262900Y977798I169J-1190D01*
G02X-1264102Y976596I0J-1202D01*
G02X-1264009Y977059I1202J-1D01*
G03X-1264434Y977610I-369J155D01*
G02X-1264516Y977601I-172J1189D01*
G03X-1264701Y977416I14J-199D01*
G02X-1265900Y976298I-1199J84D01*
G02X-1267043Y977129I0J1202D01*
G03X-1267278Y977262I-190J-62D01*
G02X-1267547Y977232I-267J1172D01*
G02Y979636I0J1202D01*
G02X-1266404Y978805I0J-1202D01*
G03X-1266169Y978672I190J62D01*
G02X-1265984Y978699I266J-1172D01*
G03X-1265799Y978884I-14J199D01*
G02X-1264600Y980002I1199J-84D01*
G02X-1264563Y980001I-14J-1202D01*
G03X-1264155Y980459I12J400D01*
G37*
G36*
G01X-1219384Y1005110D02*
G02X-1219602Y1005800I983J690D01*
G02X-1217198I1202J0D01*
G02X-1217238Y1005493I-1202J0D01*
G03X-1216900Y1004993I387J-103D01*
G02X-1215843Y1003800I-145J-1193D01*
G02X-1217045Y1002598I-1202J0D01*
G02X-1217642Y1002757I0J1202D01*
G03X-1218155Y1002657I-199J-347D01*
G02X-1219100Y1002198I-945J743D01*
G02X-1220302Y1003400I0J1202D01*
G02X-1219559Y1004511I1202J0D01*
G03X-1219384Y1005110I-153J370D01*
G37*
G36*
G01X-1214432Y1005397D02*
G02X-1214502Y1005800I1132J404D01*
G02X-1212098I1202J0D01*
G02X-1212258Y1005201I-1201J0D01*
G03X-1211908Y1004602I347J-199D01*
G01X-1211900D01*
G02Y1002198I0J-1202D01*
G02X-1212893Y1002722I0J1203D01*
G03X-1213456Y1002822I-330J-225D01*
G02X-1214155Y1002598I-699J979D01*
G02X-1215357Y1003800I0J1202D01*
G02X-1214646Y1004897I1202J0D01*
G03X-1214432Y1005397I-163J366D01*
G37*
G36*
G01X-1207301Y1017055D02*
G02X-1206100Y1018202I1201J-55D01*
G02Y1015798I0J-1202D01*
G02X-1206325Y1015819I-1J1202D01*
G03X-1206799Y1015445I-75J-393D01*
G02X-1208000Y1014298I-1201J55D01*
G02X-1208215Y1014317I-2J1202D01*
G03X-1208664Y1013793I-71J-393D01*
G02X-1208598Y1013400I-1137J-393D01*
G02X-1208716Y1012880I-1202J-1D01*
G03X-1208492Y1012331I360J-173D01*
G02X-1207698Y1011200I-409J-1131D01*
G02X-1210102I-1202J0D01*
G02X-1209984Y1011720I1202J1D01*
G03X-1210208Y1012269I-360J173D01*
G02X-1211002Y1013400I409J1131D01*
G02X-1209800Y1014602I1202J0D01*
G02X-1209585Y1014583I2J-1202D01*
G03X-1209136Y1015107I71J393D01*
G02X-1209202Y1015500I1137J393D01*
G02X-1208000Y1016702I1202J0D01*
G02X-1207775Y1016681I1J-1202D01*
G03X-1207301Y1017055I75J393D01*
G37*
G36*
G01X-1173584Y1030907D02*
G02X-1172400Y1031902I1184J-207D01*
G02X-1171198Y1030700I0J-1202D01*
G01Y1030680D01*
G03X-1170874Y1030280I400J-7D01*
G02X-1169898Y1029100I-225J-1180D01*
G02X-1172302I-1202J0D01*
G01Y1029120D01*
G03X-1172626Y1029520I-400J7D01*
G02X-1172867Y1029592I222J1181D01*
G03X-1173416Y1029293I-155J-368D01*
G02X-1174600Y1028298I-1184J207D01*
G02Y1030702I0J1202D01*
G02X-1174133Y1030608I1J-1202D01*
G03X-1173584Y1030907I155J368D01*
G37*
G36*
G01X-1161272Y1038519D02*
G02X-1161282Y1038673I1192J155D01*
G02X-1160080Y1037471I1202J0D01*
G02X-1160329Y1037497I0J1202D01*
G03X-1160808Y1037054I-82J-391D01*
G02X-1160798Y1036900I-1192J-155D01*
G02X-1160800Y1036824I-1202J-6D01*
G03X-1160376Y1036400I399J-25D01*
G02X-1160300Y1036402I70J-1200D01*
G02Y1033998I0J-1202D01*
G01X-1160320D01*
G03X-1160719Y1033524I-6J-400D01*
G02X-1160698Y1033300I-1181J-224D01*
G02X-1161900Y1034502I-1202J0D01*
G01X-1161880D01*
G03X-1161481Y1034976I6J400D01*
G02X-1161502Y1035200I1181J224D01*
G02X-1161500Y1035276I1202J6D01*
G03X-1161924Y1035700I-399J25D01*
G02X-1162000Y1035698I-70J1200D01*
G02Y1038102I0J1202D01*
G02X-1161751Y1038076I0J-1202D01*
G03X-1161272Y1038519I82J391D01*
G37*
G36*
G01X-1183515Y1040861D02*
G02X-1183900Y1040798I-384J1139D01*
G02Y1043202I0J1202D01*
G02X-1182709Y1042163I0J-1202D01*
G03X-1182185Y1041839I396J55D01*
G02X-1181800Y1041902I384J-1139D01*
G02Y1039498I0J-1202D01*
G02X-1182991Y1040537I0J1202D01*
G03X-1183515Y1040861I-396J-55D01*
G37*
G36*
G01X-1178368Y1041369D02*
G02X-1178702Y1042200I867J831D01*
G02X-1176298I1202J0D01*
G02X-1176556Y1041455I-1202J-1D01*
G03X-1176532Y1040931I314J-248D01*
G02X-1176198Y1040100I-867J-831D01*
G02X-1176495Y1039309I-1202J0D01*
G03X-1176445Y1038735I302J-263D01*
G02X-1175998Y1037800I-754J-935D01*
G02X-1177200Y1036598I-1202J0D01*
G02X-1177425Y1036619I-1J1202D01*
G03X-1177899Y1036245I-75J-393D01*
G02X-1179100Y1035098I-1201J55D01*
G02Y1037502I0J1202D01*
G02X-1178875Y1037481I1J-1202D01*
G03X-1178401Y1037855I75J393D01*
G02X-1178105Y1038591I1201J-55D01*
G03X-1178155Y1039165I-302J263D01*
G02X-1178602Y1040100I754J935D01*
G02X-1178344Y1040845I1202J1D01*
G03X-1178368Y1041369I-314J248D01*
G37*
G36*
G01X-1106419Y1041863D02*
G02X-1106467Y1042200I1154J336D01*
G02X-1104063I1202J0D01*
G02X-1105225Y1040999I-1202J0D01*
G03X-1105596Y1040487I13J-400D01*
G02X-1105548Y1040150I-1154J-336D01*
G02X-1107952I-1202J0D01*
G02X-1106790Y1041351I1202J0D01*
G03X-1106419Y1041863I-13J400D01*
G37*
G36*
G01X-1103189Y1045615D02*
G02X-1103702Y1046600I689J985D01*
G02X-1102500Y1047802I1202J0D01*
G02X-1101326Y1046856I0J-1201D01*
G03X-1100826Y1046557I391J86D01*
G02X-1100500Y1046602I326J-1158D01*
G02Y1044198I0J-1202D01*
G02X-1100778Y1044231I2J1202D01*
G03X-1101269Y1043881I-93J-389D01*
G02X-1102465Y1042798I-1196J119D01*
G02X-1103667Y1044000I0J1202D01*
G02X-1103180Y1044966I1202J0D01*
G03X-1103189Y1045615I-238J321D01*
G37*
G36*
G01X-1096701Y1051859D02*
G02X-1095500Y1053022I1201J-39D01*
G02Y1050618I0J-1202D01*
G02X-1096024Y1050738I0J1202D01*
G03X-1096599Y1050391I-175J-360D01*
G02X-1097800Y1049228I-1201J39D01*
G02Y1051632I0J1202D01*
G02X-1097276Y1051512I0J-1202D01*
G03X-1096701Y1051859I175J360D01*
G37*
G36*
G01X-1025330Y1057120D02*
G02X-1024300Y1057702I1030J-620D01*
G02X-1023478Y1057377I0J-1202D01*
G03X-1022854Y1057477I273J292D01*
G02X-1021800Y1058102I1054J-576D01*
G02X-1020771Y1057521I0J-1202D01*
G03X-1020172Y1057421I342J207D01*
G02X-1019400Y1057702I772J-920D01*
G02Y1055298I0J-1202D01*
G02X-1020429Y1055879I0J1202D01*
G03X-1021028Y1055979I-342J-207D01*
G02X-1021800Y1055698I-772J920D01*
G02X-1022622Y1056023I0J1202D01*
G03X-1023246Y1055923I-273J-292D01*
G02X-1024300Y1055298I-1054J576D01*
G02X-1025371Y1055955I0J1201D01*
G03X-1026070Y1055980I-356J-182D01*
G02X-1027100Y1055398I-1030J620D01*
G02Y1057802I0J1202D01*
G02X-1026029Y1057145I0J-1201D01*
G03X-1025330Y1057120I356J182D01*
G37*
G36*
G01X-1057292Y1056943D02*
G02X-1057302Y1057100I1192J155D01*
G02X-1054898I1202J0D01*
G02X-1055024Y1056563I-1202J-1D01*
G03X-1054725Y1055989I358J-178D01*
G02X-1053698Y1054800I-175J-1189D01*
G02X-1054698Y1053615I-1202J0D01*
G03X-1055022Y1053141I68J-394D01*
G02X-1054998Y1052900I-1178J-239D01*
G02X-1057402I-1202J0D01*
G02X-1057241Y1053501I1202J0D01*
G03X-1057566Y1054100I-347J200D01*
G02X-1058702Y1055300I66J1200D01*
G02X-1057641Y1056494I1202J0D01*
G03X-1057292Y1056943I-47J397D01*
G37*
G36*
G01X-1073174Y1059400D02*
G03X-1072800Y1059774I-25J399D01*
G02X-1071600Y1060902I1200J-74D01*
G02X-1070398Y1059700I0J-1202D01*
G02X-1070705Y1058897I-1202J-1D01*
G03X-1070630Y1058298I298J-267D01*
G02X-1070098Y1057300I-670J-998D01*
G02X-1070774Y1056219I-1202J0D01*
G03X-1070899Y1055595I175J-360D01*
G02X-1070598Y1054800I-901J-796D01*
G02X-1073002I-1202J0D01*
G02X-1072326Y1055881I1202J0D01*
G03X-1072201Y1056505I-175J360D01*
G02X-1072394Y1056801I899J797D01*
G03X-1072843Y1057026I-364J-166D01*
G02X-1073100Y1056998I-258J1174D01*
G02X-1074302Y1058200I0J1202D01*
G02X-1073174Y1059400I1202J0D01*
G37*
G36*
G01X-1040773Y1060620D02*
G02X-1041000Y1060598I-229J1180D01*
G02X-1039798Y1061800I0J1202D01*
G02X-1039802Y1061705I-1202J3D01*
G03X-1039327Y1061280I399J-32D01*
G02X-1039100Y1061302I229J-1180D01*
G02X-1040302Y1060100I0J-1202D01*
G02X-1040298Y1060195I1202J-3D01*
G03X-1040773Y1060620I-399J32D01*
G37*
G36*
G01X-1036928Y1061010D02*
G02X-1037100Y1060998I-169J1190D01*
G02X-1035898Y1062200I0J1202D01*
G02X-1035921Y1061964I-1202J-2D01*
G03X-1035472Y1061490I392J-78D01*
G02X-1035300Y1061502I169J-1190D01*
G02X-1036502Y1060300I0J-1202D01*
G02X-1036479Y1060536I1202J2D01*
G03X-1036928Y1061010I-392J78D01*
G37*
G36*
G01X-1034580Y1066273D02*
G02X-1034602Y1066500I1180J229D01*
G02X-1033400Y1065298I1202J0D01*
G02X-1033495Y1065302I3J1202D01*
G03X-1033920Y1064827I-32J-399D01*
G02X-1033898Y1064600I-1180J-229D01*
G02X-1035100Y1065802I-1202J0D01*
G02X-1035005Y1065798I-3J-1202D01*
G03X-1034580Y1066273I32J399D01*
G37*
G36*
G01X-1028891Y1068362D02*
G02X-1027700Y1069402I1191J-162D01*
G02Y1066998I0J-1202D01*
G02X-1028385Y1067212I0J1203D01*
G03X-1029009Y1066938I-228J-329D01*
G02X-1030200Y1065898I-1191J162D01*
G02Y1068302I0J1202D01*
G02X-1029515Y1068088I0J-1203D01*
G03X-1028891Y1068362I228J329D01*
G37*
G36*
G01X-1034421Y1073871D02*
G02X-1035002Y1074900I621J1029D01*
G02X-1032598I1202J0D01*
G02X-1033029Y1073978I-1202J0D01*
G03X-1032979Y1073329I257J-307D01*
G02X-1032398Y1072300I-621J-1029D01*
G02X-1034802I-1202J0D01*
G02X-1034371Y1073222I1202J0D01*
G03X-1034421Y1073871I-257J307D01*
G37*
G36*
G01X-1012831Y1071902D02*
G02X-1009399Y1072038I1630J2245D01*
G03X-1009254Y1071351I260J-304D01*
G02X-1008398Y1070200I-346J-1151D01*
G02X-1009600Y1068998I-1202J0D01*
G02X-1010568Y1069487I0J1203D01*
G03X-1011192Y1069512I-322J-237D01*
G02X-1011731Y1069156I-908J788D01*
G03X-1012005Y1068732I123J-380D01*
G02X-1011998Y1068600I-1195J-130D01*
G02X-1012028Y1068332I-1202J-1D01*
G03X-1011789Y1067872I390J-90D01*
G02X-1011261Y1067454I-452J-1114D01*
G03X-1010602Y1067464I326J232D01*
G02X-1009600Y1068002I1002J-664D01*
G02X-1008398Y1066800I0J-1202D01*
G02X-1008763Y1065937I-1203J0D01*
G03Y1065363I278J-287D01*
G02X-1008398Y1064500I-838J-863D01*
G02X-1008772Y1063629I-1201J0D01*
G03X-1008672Y1062980I276J-290D01*
G02X-1007998Y1061900I-528J-1080D01*
G02X-1010402I-1202J0D01*
G02X-1010028Y1062771I1201J0D01*
G03X-1010128Y1063420I-276J290D01*
G02X-1010802Y1064500I528J1080D01*
G02X-1010437Y1065363I1203J0D01*
G03Y1065937I-278J287D01*
G02X-1010580Y1066104I838J862D01*
G03X-1011239Y1066094I-326J-232D01*
G02X-1011585Y1065751I-1002J664D01*
G03X-1011725Y1065237I218J-335D01*
G02X-1011598Y1064700I-1075J-538D01*
G02X-1014002I-1202J0D01*
G02X-1013456Y1065707I1202J0D01*
G03X-1013316Y1066221I-218J335D01*
G02X-1013443Y1066758I1075J538D01*
G02X-1013413Y1067026I1202J1D01*
G03X-1013652Y1067486I-390J90D01*
G02X-1014402Y1068600I452J1114D01*
G02X-1013569Y1069744I1202J0D01*
G03X-1013295Y1070168I-123J380D01*
G02X-1013302Y1070300I1195J130D01*
G02X-1012825Y1071259I1203J0D01*
G03X-1012831Y1071902I-241J319D01*
G37*
G36*
G01X-1006884Y1089250D02*
G02X-1007502Y1090300I583J1050D01*
G02X-1005098I1202J0D01*
G02X-1005716Y1089250I-1201J0D01*
G03Y1088550I195J-350D01*
G02X-1005098Y1087500I-583J-1050D01*
G02X-1007502I-1202J0D01*
G02X-1006884Y1088550I1201J0D01*
G03Y1089250I-195J350D01*
G37*
G36*
G01X-1040652Y1092062D02*
G02X-1041102Y1093000I753J938D01*
G02X-1038698I1202J0D01*
G02X-1039522Y1091859I-1202J0D01*
G03X-1038794Y1091676I398J43D01*
G02X-1037800Y1092202I994J-676D01*
G02Y1089798I0J-1202D01*
G02X-1038382Y1089948I-1J1202D01*
G03X-1038906Y1089824I-194J-350D01*
G02X-1039148Y1089562I-994J676D01*
G03Y1088938I250J-312D01*
G02X-1038716Y1088207I-752J-938D01*
G03X-1038167Y1087908I394J69D01*
G02X-1037700Y1088002I466J-1108D01*
G02X-1036734Y1087515I0J-1202D01*
G03X-1036135Y1087465I321J238D01*
G02X-1035300Y1087802I835J-866D01*
G02X-1034664Y1087620I0J-1202D01*
G03X-1034115Y1087745I211J339D01*
G02X-1033100Y1088302I1015J-646D01*
G02X-1032111Y1087783I0J-1202D01*
G03X-1031437Y1087808I329J227D01*
G02X-1030400Y1088402I1037J-608D01*
G02X-1029387Y1087847I0J-1202D01*
G03X-1028713I337J215D01*
G02X-1027700Y1088402I1013J-647D01*
G02X-1026498Y1087200I0J-1202D01*
G02X-1026863Y1086337I-1203J0D01*
G03Y1085763I278J-287D01*
G02X-1026498Y1084900I-838J-863D01*
G02X-1027700Y1083698I-1202J0D01*
G02X-1028713Y1084253I0J1202D01*
G03X-1029387I-337J-215D01*
G02X-1029471Y1084138I-1011J650D01*
G03X-1029221Y1083489I309J-253D01*
G02X-1028198Y1082300I-179J-1189D01*
G02X-1028237Y1081996I-1202J0D01*
G03X-1027888Y1081497I387J-101D01*
G01X-1027887D01*
G03X-1027463Y1081996I37J398D01*
G02X-1027502Y1082300I1163J304D01*
G02X-1025098I1202J0D01*
G02X-1025137Y1081996I-1202J0D01*
G03X-1024788Y1081497I387J-101D01*
G02X-1024571Y1081456I-114J-1197D01*
G03X-1024071Y1081930I110J385D01*
G02X-1024102Y1082200I1171J271D01*
G02X-1023079Y1083389I1202J0D01*
G03X-1022829Y1084038I-59J396D01*
G02X-1022971Y1084255I929J763D01*
G03X-1023670Y1084280I-356J-182D01*
G02X-1024700Y1083698I-1030J620D01*
G02X-1025902Y1084900I0J1202D01*
G02X-1025537Y1085763I1203J0D01*
G03Y1086337I-278J287D01*
G02X-1025902Y1087200I838J863D01*
G02X-1023498I1202J0D01*
G02X-1023863Y1086337I-1203J0D01*
G03Y1085763I278J-287D01*
G02X-1023629Y1085445I-838J-862D01*
G03X-1022930Y1085420I356J182D01*
G02X-1022563Y1085802I1029J-621D01*
G03X-1022538Y1086452I-221J334D01*
G02X-1023002Y1087400I738J949D01*
G02X-1020598I1202J0D01*
G02X-1021137Y1086398I-1201J0D01*
G03X-1021162Y1085748I221J-334D01*
G02X-1020698Y1084800I-738J-949D01*
G02X-1021721Y1083611I-1202J0D01*
G03X-1021971Y1082962I59J-396D01*
G02X-1021698Y1082200I-929J-763D01*
G02X-1022900Y1080998I-1202J0D01*
G02X-1023229Y1081044I0J1202D01*
G03X-1023729Y1080570I-110J-385D01*
G02X-1023698Y1080300I-1171J-271D01*
G02X-1024145Y1079365I-1201J0D01*
G03X-1024195Y1078791I252J-311D01*
G02X-1023898Y1078000I-905J-791D01*
G02X-1026302I-1202J0D01*
G02X-1025855Y1078935I1201J0D01*
G03X-1025805Y1079509I-252J311D01*
G02X-1026102Y1080300I905J791D01*
G02X-1026063Y1080604I1202J0D01*
G03X-1026412Y1081103I-387J101D01*
G01X-1026413D01*
G03X-1026837Y1080604I-37J-398D01*
G02X-1026798Y1080300I-1163J-304D01*
G02X-1027298Y1079325I-1201J0D01*
G03Y1078675I234J-325D01*
G02X-1026798Y1077700I-701J-975D01*
G02X-1027095Y1076909I-1202J0D01*
G03X-1027045Y1076335I302J-263D01*
G02X-1026598Y1075400I-754J-935D01*
G02X-1029002I-1202J0D01*
G02X-1028705Y1076191I1202J0D01*
G03X-1028755Y1076765I-302J263D01*
G02X-1029202Y1077700I754J935D01*
G02X-1028702Y1078675I1201J0D01*
G03Y1079325I-234J325D01*
G02X-1029202Y1080300I701J975D01*
G02X-1029163Y1080604I1202J0D01*
G03X-1029512Y1081103I-387J101D01*
G02X-1030602Y1082300I112J1197D01*
G02X-1030329Y1083062I1202J-1D01*
G03X-1030579Y1083711I-309J253D01*
G02X-1031389Y1084217I179J1189D01*
G03X-1032063Y1084192I-329J-227D01*
G02X-1032362Y1083852I-1036J609D01*
G03X-1032337Y1083202I246J-316D01*
G02X-1031798Y1082200I-662J-1002D01*
G02X-1031837Y1081896I-1202J0D01*
G03X-1031488Y1081397I387J-101D01*
G02X-1030398Y1080200I-112J-1197D01*
G02X-1032802I-1202J0D01*
G02X-1032763Y1080504I1202J0D01*
G03X-1033112Y1081003I-387J101D01*
G02X-1033827Y1081327I112J1197D01*
G03X-1034401Y1081302I-275J-290D01*
G02X-1035300Y1080898I-899J798D01*
G02X-1036095Y1081199I1J1202D01*
G03X-1036719Y1081074I-264J-300D01*
G02X-1037800Y1080398I-1081J526D01*
G02X-1038213Y1080471I0J1202D01*
G03X-1038737Y1080196I-137J-376D01*
G02X-1039900Y1079298I-1163J304D01*
G02X-1041102Y1080500I0J1202D01*
G02X-1040652Y1081438I1203J0D01*
G03Y1082062I-250J312D01*
G02Y1083938I753J938D01*
G03Y1084562I-250J312D01*
G02Y1086438I753J938D01*
G03Y1087062I-250J312D01*
G02Y1088938I753J938D01*
G03Y1089562I-250J312D01*
G02Y1091438I753J938D01*
G03Y1092062I-250J312D01*
G37*
G36*
G01X-1011045Y1092229D02*
G02X-1011702Y1093300I544J1071D01*
G02X-1009298I1202J0D01*
G02X-1009880Y1092270I-1202J0D01*
G03X-1009855Y1091571I207J-343D01*
G02X-1009198Y1090500I-544J-1071D01*
G02X-1009816Y1089450I-1201J0D01*
G03Y1088750I195J-350D01*
G02X-1009198Y1087700I-583J-1050D01*
G02X-1011602I-1202J0D01*
G02X-1010984Y1088750I1201J0D01*
G03Y1089450I-195J350D01*
G02X-1011602Y1090500I583J1050D01*
G02X-1011020Y1091530I1202J0D01*
G03X-1011045Y1092229I-207J343D01*
G37*
G36*
G01X-1014545Y1092429D02*
G02X-1015202Y1093500I544J1071D01*
G02X-1012798I1202J0D01*
G02X-1013380Y1092470I-1202J0D01*
G03X-1013355Y1091771I207J-343D01*
G02X-1012698Y1090700I-544J-1071D01*
G02X-1013334Y1089640I-1201J0D01*
G03X-1013384Y1088965I188J-353D01*
G02X-1012898Y1088000I-715J-965D01*
G02X-1014100Y1086798I-1202J0D01*
G02X-1014637Y1086924I-1J1202D01*
G03X-1015211Y1086625I-178J-358D01*
G02X-1016400Y1085598I-1189J175D01*
G02X-1017602Y1086800I0J1202D01*
G02X-1017152Y1087738I1203J0D01*
G03Y1088362I-250J312D01*
G02Y1090238I753J938D01*
G03Y1090862I-250J312D01*
G02X-1017602Y1091800I753J938D01*
G02X-1016400Y1093002I1202J0D01*
G02X-1015209Y1091962I0J-1202D01*
G03X-1014585Y1091688I396J55D01*
G02X-1014520Y1091730I685J-988D01*
G03X-1014545Y1092429I-207J343D01*
G37*
G36*
G01X-1022599Y1099059D02*
G02X-1022075Y1099458I399J19D01*
G03X-1021803Y1099402I377J1142D01*
G02X-1021717Y1099032I-17J-199D01*
G03X-1022286Y1098193I618J-1032D01*
G03X-1021810Y1097737I395J-64D01*
G02X-1021563Y1097763I249J-1176D01*
G02X-1020620Y1097306I0J-1201D01*
G03X-1020005Y1097291I314J248D01*
G02X-1019100Y1097702I905J-791D01*
G02X-1018135Y1097216I0J-1201D01*
G03X-1017460Y1097266I322J238D01*
G02X-1016400Y1097902I1060J-565D01*
G02Y1095498I0J-1202D01*
G02X-1017365Y1095984I0J1201D01*
G03X-1018040Y1095934I-322J-238D01*
G02X-1019100Y1095298I-1060J565D01*
G02X-1020043Y1095755I0J1201D01*
G03X-1020658Y1095770I-314J-248D01*
G02X-1021563Y1095359I-905J791D01*
G02X-1021813Y1095385I-1J1202D01*
G03X-1022202Y1094500I812J-885D01*
G03X-1022185Y1094296I1202J-3D01*
G02X-1022459Y1093847I-394J-68D01*
G03X-1023302Y1092700I359J-1147D01*
G01Y1092699D01*
G03X-1023197Y1092208I1202J0D01*
G02X-1023282Y1091951I-182J-82D01*
G03X-1023902Y1090900I581J-1051D01*
G01Y1090898D01*
G03X-1023819Y1090460I1202J1D01*
G02X-1023976Y1090189I-186J-73D01*
G03X-1024107Y1090162I177J-1189D01*
G02X-1024610Y1090561I-103J387D01*
G03X-1024609Y1090597I-1201J51D01*
G03X-1024867Y1091341I-1202J0D01*
G02X-1024863Y1091840I315J247D01*
G03X-1024595Y1092597I-935J757D01*
G03X-1024828Y1093308I-1201J0D01*
G02X-1024895Y1093455I323J236D01*
G03X-1025464Y1093724I-390J-89D01*
G02X-1026000Y1093598I-536J1077D01*
G02X-1026768Y1093875I0J1203D01*
G03X-1027039Y1093861I-128J-154D01*
G02X-1027900Y1093498I-861J840D01*
G02X-1028838Y1093948I0J1203D01*
G03X-1029462I-312J-250D01*
G02X-1029583Y1093819I-935J756D01*
G03X-1029433Y1093145I272J-293D01*
G02X-1028598Y1092000I-368J-1145D01*
G02X-1031002I-1202J0D01*
G02X-1030617Y1092881I1202J-1D01*
G03X-1030767Y1093555I-272J293D01*
G02X-1031338Y1093948I367J1145D01*
G03X-1031962I-312J-250D01*
G02X-1032148Y1093762I-938J752D01*
G03Y1093138I250J-312D01*
G02X-1031698Y1092200I-753J-938D01*
G02X-1034102I-1202J0D01*
G02X-1033652Y1093138I1203J0D01*
G03Y1093762I-250J312D01*
G02X-1034102Y1094700I753J938D01*
G02X-1033466Y1095760I1201J0D01*
G03X-1033416Y1096435I-188J353D01*
G02X-1033902Y1097400I715J965D01*
G02X-1032700Y1098602I1202J0D01*
G02X-1031762Y1098152I0J-1203D01*
G03X-1031138I312J250D01*
G02X-1029262I938J-753D01*
G03X-1028638I312J250D01*
G02X-1027700Y1098602I938J-753D01*
G02X-1026932Y1098325I0J-1203D01*
G03X-1026661Y1098339I128J154D01*
G02X-1025800Y1098702I861J-840D01*
G02X-1024602Y1097597I0J-1202D01*
G03X-1024302Y1097440I199J16D01*
G02X-1024185Y1097500I606J-1038D01*
G02X-1023799Y1097798I387J-102D01*
G03X-1022598Y1099000I-1J1202D01*
G03X-1022599Y1099059I-1202J9D01*
G37*
G36*
G01X-1006277Y1100724D02*
G02X-1007100Y1100398I-823J876D01*
G02Y1102802I0J1202D01*
G02X-1006379Y1102562I0J-1203D01*
G03X-1006123Y1102576I120J160D01*
G02X-1005300Y1102902I823J-876D01*
G02X-1004098Y1101700I0J-1202D01*
G02X-1004827Y1100595I-1202J0D01*
G03X-1004927Y1099921I157J-368D01*
G02X-1004613Y1099512I-774J-919D01*
G03X-1004356Y1099412I181J85D01*
G02X-1003900Y1099502I456J-1112D01*
G02X-1002698Y1098300I0J-1202D01*
G02X-1003279Y1097271I-1202J0D01*
G03X-1003429Y1096746I206J-343D01*
G02X-1003301Y1096287I-1071J-546D01*
G03X-1003101Y1096102I199J15D01*
G02X-1001898Y1094900I1J-1202D01*
G02X-1002528Y1093843I-1202J0D01*
G02X-1002398Y1093300I-1072J-544D01*
G02X-1004802I-1202J0D01*
G02X-1004172Y1094357I1202J0D01*
G02X-1004299Y1094813I1072J544D01*
G03X-1004499Y1094998I-199J-15D01*
G02X-1005702Y1096200I-1J1202D01*
G02X-1005121Y1097229I1202J0D01*
G03X-1004971Y1097754I-206J343D01*
G02X-1004987Y1097788I1079J529D01*
G03X-1005244Y1097888I-181J-85D01*
G02X-1005700Y1097798I-456J1112D01*
G02X-1006902Y1099000I0J1202D01*
G02X-1005801Y1100198I1202J0D01*
G03X-1005744Y1100583I-17J199D01*
G02X-1006021Y1100738I443J1117D01*
G03X-1006277Y1100724I-120J-160D01*
G37*
G36*
G01X-1041668Y1108022D02*
G03X-1041143Y1108271I145J373D01*
G02X-1040000Y1109102I1143J-371D01*
G02X-1038798Y1107900I0J-1202D01*
G02X-1039248Y1106962I-1203J0D01*
G03Y1106338I250J-312D01*
G02X-1038798Y1105400I-753J-938D01*
G02X-1039379Y1104371I-1202J0D01*
G03X-1039479Y1103772I207J-342D01*
G02X-1039198Y1103000I-920J-772D01*
G02X-1039648Y1102062I-1203J0D01*
G03Y1101438I250J-312D01*
G02X-1039198Y1100500I-753J-938D01*
G02X-1039572Y1099629I-1201J0D01*
G03X-1039472Y1098980I276J-290D01*
G02X-1038798Y1097900I-528J-1080D01*
G02X-1039221Y1096985I-1201J0D01*
G03X-1039296Y1096460I259J-305D01*
G02X-1039098Y1095800I-1004J-661D01*
G02X-1041502I-1202J0D01*
G02X-1041079Y1096715I1201J0D01*
G03X-1041004Y1097240I-259J305D01*
G02X-1041189Y1097725I1004J661D01*
G03X-1041763Y1098024I-396J-59D01*
G02X-1042300Y1097898I-536J1076D01*
G02X-1043502Y1099100I0J1202D01*
G02X-1043132Y1099967I1201J0D01*
G03X-1043157Y1100566I-277J288D01*
G02X-1043602Y1101500I758J934D01*
G02X-1042984Y1102550I1201J0D01*
G03Y1103250I-195J350D01*
G02X-1043602Y1104300I583J1050D01*
G02X-1042976Y1105355I1202J0D01*
G03X-1042901Y1106004I-192J351D01*
G02X-1043302Y1106900I801J896D01*
G02X-1042100Y1108102I1202J0D01*
G02X-1041668Y1108022I1J-1202D01*
G37*
G36*
G01X-1022900Y1106766D02*
G02X-1023702Y1107900I401J1134D01*
G02X-1021298I1202J0D01*
G02X-1021500Y1107233I-1202J0D01*
G03X-1021300Y1106634I333J-222D01*
G02X-1020498Y1105500I-401J-1134D01*
G02X-1021700Y1104298I-1202J0D01*
G02X-1022332Y1104477I-1J1202D01*
G03X-1022906Y1104303I-210J-340D01*
G02X-1022960Y1104197I-1097J492D01*
G03X-1022811Y1103648I346J-201D01*
G02X-1022233Y1102888I-589J-1048D01*
G03X-1021783Y1102588I388J95D01*
G02X-1021600Y1102602I183J-1189D01*
G02Y1100198I0J-1202D01*
G02X-1022767Y1101112I0J1202D01*
G03X-1023217Y1101412I-388J-95D01*
G02X-1023400Y1101398I-183J1189D01*
G02X-1024458Y1102030I0J1202D01*
G03X-1025057Y1102155I-352J-190D01*
G02X-1025256Y1102028I-743J945D01*
G03Y1101672I91J-178D01*
G02X-1024598Y1100600I-544J-1072D01*
G02X-1025800Y1099398I-1202J0D01*
G02X-1026568Y1099675I0J1203D01*
G03X-1026839Y1099661I-128J-154D01*
G02X-1027700Y1099298I-861J840D01*
G02X-1028638Y1099748I0J1203D01*
G03X-1029262I-312J-250D01*
G02X-1031138I-938J753D01*
G03X-1031762I-312J-250D01*
G02X-1032700Y1099298I-938J753D01*
G02X-1033902Y1100500I0J1202D01*
G02X-1033452Y1101438I1203J0D01*
G03Y1102062I-250J312D01*
G02Y1103938I753J938D01*
G03Y1104562I-250J312D01*
G02X-1033902Y1105500I753J938D01*
G02X-1031498I1202J0D01*
G02X-1031948Y1104562I-1203J0D01*
G03Y1103938I250J-312D01*
G02X-1031762Y1103752I-752J-938D01*
G03X-1031138I312J250D01*
G02X-1029262I938J-753D01*
G03X-1028638I312J250D01*
G02X-1027700Y1104202I938J-753D01*
G02X-1026932Y1103925I0J-1203D01*
G03X-1026661Y1103939I128J154D01*
G02X-1025800Y1104302I861J-840D01*
G02X-1025649Y1104292I-4J-1202D01*
G03X-1025199Y1104717I51J397D01*
G02X-1025202Y1104800I1199J85D01*
G02X-1024000Y1106002I1202J0D01*
G02X-1023368Y1105823I1J-1202D01*
G03X-1022794Y1105997I210J340D01*
G02X-1022700Y1106167I1095J-495D01*
G03X-1022900Y1106766I-333J222D01*
G37*
G36*
G01X-1026902Y1113992D02*
Y1114000D01*
G02X-1025700Y1112798I1202J0D01*
G02X-1025849Y1112807I-2J1202D01*
G03X-1026298Y1112408I-49J-397D01*
G01Y1112400D01*
G02X-1027500Y1113602I-1202J0D01*
G02X-1027351Y1113593I2J-1202D01*
G03X-1026902Y1113992I49J397D01*
G37*
G36*
G01X-1033600Y1118833D02*
G02X-1033802Y1119500I1000J667D01*
G02X-1032600Y1120702I1202J0D01*
G02X-1031662Y1120252I0J-1203D01*
G03X-1031038I312J250D01*
G02X-1030100Y1120702I938J-753D01*
G02Y1118298I0J-1202D01*
G02X-1031038Y1118748I0J1203D01*
G03X-1031662I-312J-250D01*
G02X-1032200Y1118366I-938J752D01*
G03X-1032400Y1117767I133J-377D01*
G02X-1032198Y1117100I-1000J-667D01*
G02X-1034602I-1202J0D01*
G02X-1033800Y1118234I1203J0D01*
G03X-1033600Y1118833I-133J377D01*
G37*
G36*
G01X-1266638Y1219752D02*
G02X-1264762I938J-753D01*
G03X-1264138I312J250D01*
G02X-1263200Y1220202I938J-753D01*
G02Y1217798I0J-1202D01*
G02X-1264138Y1218248I0J1203D01*
G03X-1264762I-312J-250D01*
G02X-1266638I-938J753D01*
G03X-1267262I-312J-250D01*
G02X-1268200Y1217798I-938J753D01*
G02Y1220202I0J1202D01*
G02X-1267262Y1219752I0J-1203D01*
G03X-1266638I312J250D01*
G37*
G36*
G01X-1246438Y1220252D02*
G02X-1244562I938J-753D01*
G03X-1243938I312J250D01*
G02X-1243000Y1220702I938J-753D01*
G02Y1218298I0J-1202D01*
G02X-1243938Y1218748I0J1203D01*
G03X-1244562I-312J-250D01*
G02X-1246438I-938J753D01*
G03X-1247062I-312J-250D01*
G02X-1248000Y1218298I-938J753D01*
G02Y1220702I0J1202D01*
G02X-1247062Y1220252I0J-1203D01*
G03X-1246438I312J250D01*
G37*
G36*
G01X-1226170Y1220555D02*
G02X-1227336Y1221756I36J1201D01*
G02X-1224932I1202J0D01*
G02X-1224947Y1221565I-1202J-2D01*
G03X-1224564Y1221101I395J-64D01*
G02X-1223398Y1219900I-36J-1201D01*
G02X-1225802I-1202J0D01*
G02X-1225787Y1220091I1202J2D01*
G03X-1226170Y1220555I-395J64D01*
G37*
G36*
G01X-1260416Y1220935D02*
G02X-1260902Y1221900I715J965D01*
G02X-1258498I1202J0D01*
G02X-1259134Y1220840I-1201J0D01*
G03X-1259184Y1220165I188J-353D01*
G02X-1258698Y1219200I-715J-965D01*
G02X-1261102I-1202J0D01*
G02X-1260466Y1220260I1201J0D01*
G03X-1260416Y1220935I-188J353D01*
G37*
G36*
G01X-1266262Y1222248D02*
G02X-1267200Y1221798I-938J753D01*
G02Y1224202I0J1202D01*
G02X-1266262Y1223752I0J-1203D01*
G03X-1265638I312J250D01*
G02X-1264700Y1224202I938J-753D01*
G02Y1221798I0J-1202D01*
G02X-1265638Y1222248I0J1203D01*
G03X-1266262I-312J-250D01*
G37*
G36*
G01X-1246438Y1223752D02*
G02X-1244562I938J-753D01*
G03X-1243938I312J250D01*
G02X-1243000Y1224202I938J-753D01*
G02Y1221798I0J-1202D01*
G02X-1243938Y1222248I0J1203D01*
G03X-1244562I-312J-250D01*
G02X-1246438I-938J753D01*
G03X-1247062I-312J-250D01*
G02X-1248000Y1221798I-938J753D01*
G02Y1224202I0J1202D01*
G02X-1247062Y1223752I0J-1203D01*
G03X-1246438I312J250D01*
G37*
G36*
G01X-1201020Y1053674D02*
G03X-1201519Y1053474I-139J-375D01*
G02X-1202600Y1052798I-1081J526D01*
G02Y1055202I0J1202D01*
G02X-1202180Y1055126I-1J-1202D01*
G03X-1201681Y1055326I139J375D01*
G02X-1200600Y1056002I1081J-526D01*
G02Y1053598I0J-1202D01*
G02X-1201020Y1053674I1J1202D01*
G37*
G36*
G01X-1206822Y1057572D02*
G03Y1057828I-153J128D01*
G02X-1207102Y1058600I922J771D01*
G02X-1205900Y1059802I1202J0D01*
G02X-1205086Y1059484I0J-1201D01*
G03X-1204814I136J147D01*
G02X-1204000Y1059802I814J-883D01*
G02X-1202798Y1058600I0J-1202D01*
G02X-1203078Y1057828I-1202J-1D01*
G03Y1057572I153J-128D01*
G02X-1202798Y1056800I-922J-771D01*
G02X-1204000Y1055598I-1202J0D01*
G02X-1204814Y1055916I0J1201D01*
G03X-1205086I-136J-147D01*
G02X-1205900Y1055598I-814J883D01*
G02X-1207102Y1056800I0J1202D01*
G02X-1206822Y1057572I1202J1D01*
G37*
G36*
G01X-1086125Y1088326D02*
G03X-1086675I-275J-291D01*
G02X-1087500Y1087998I-825J874D01*
G02Y1090402I0J1202D01*
G02X-1086675Y1090074I0J-1202D01*
G03X-1086125I275J291D01*
G02X-1085300Y1090402I825J-874D01*
G02Y1087998I0J-1202D01*
G02X-1086125Y1088326I0J1202D01*
G37*
G36*
G01X-1159697Y1104092D02*
G03X-1159498Y1104307I-1J200D01*
G02X-1159502Y1104400I1198J98D01*
G02X-1157098I1202J0D01*
G02X-1158142Y1103208I-1202J0D01*
G03X-1158489Y1102831I52J-396D01*
G02X-1159690Y1101688I-1201J59D01*
G02X-1160884Y1102747I0J1203D01*
G03X-1161261Y1103100I-397J-46D01*
G02X-1162402Y1104300I61J1200D01*
G02X-1159998I1202J0D01*
G01Y1104290D01*
G03X-1159783Y1104088I200J-2D01*
G02X-1159697Y1104092I99J-1198D01*
G37*
G36*
G01X-1094568Y1103631D02*
G03X-1094544Y1104155I-290J276D01*
G02X-1094802Y1104900I944J744D01*
G02X-1092398I1202J0D01*
G02X-1092732Y1104069I-1201J0D01*
G03X-1092756Y1103545I290J-276D01*
G02X-1092498Y1102800I-944J-744D01*
G02X-1094902I-1202J0D01*
G02X-1094568Y1103631I1201J0D01*
G37*
G36*
G01X-1200509Y1109905D02*
G03X-1200515Y1110476I-283J283D01*
G02X-1200823Y1111198I694J723D01*
G02X-1198819I1002J0D01*
G02X-1199111Y1110491I-1002J0D01*
G03X-1199105Y1109920I283J-283D01*
G02X-1198797Y1109198I-694J-723D01*
G02X-1200801I-1002J0D01*
G02X-1200509Y1109905I1002J0D01*
G37*
G36*
G01X-1170120Y1116927D02*
G03X-1170676Y1116982I-306J-258D01*
G02X-1171300Y1116764I-624J784D01*
G02Y1118768I0J1002D01*
G02X-1170628Y1118509I0J-1001D01*
G03X-1170070Y1118530I268J297D01*
G02X-1169200Y1118902I870J-831D01*
G02Y1116498I0J-1202D01*
G02X-1170120Y1116927I0J1201D01*
G37*
G36*
G01X-1166696Y1117747D02*
G03X-1166401Y1118150I-105J386D01*
G02X-1166402Y1118200I1201J49D01*
G02X-1163998I1202J0D01*
G02X-1164887Y1117040I-1201J0D01*
G03X-1165182Y1116637I105J-386D01*
G02X-1165181Y1116587I-1201J-49D01*
G02X-1167585I-1202J0D01*
G02X-1166696Y1117747I1201J0D01*
G37*
G36*
G01X-1119326Y1126292D02*
G03X-1118979Y1126716I-52J397D01*
G02X-1118982Y1126800I1199J85D01*
G02X-1116578I1202J0D01*
G02X-1117624Y1125608I-1202J0D01*
G03X-1117971Y1125184I52J-397D01*
G02X-1117968Y1125100I-1199J-85D01*
G02X-1120372I-1202J0D01*
G02X-1119326Y1126292I1202J0D01*
G37*
G36*
G01X-1145966Y1127792D02*
G03X-1145639Y1128316I-52J397D01*
G02X-1145702Y1128700I1139J384D01*
G02X-1143298I1202J0D01*
G02X-1143663Y1127837I-1203J0D01*
G03Y1127263I278J-287D01*
G02X-1143298Y1126400I-838J-863D01*
G02X-1143638Y1125562I-1203J0D01*
G03X-1143630Y1124996I286J-279D01*
G02X-1143265Y1124133I-838J-863D01*
G02X-1145669I-1202J0D01*
G02X-1145188Y1125095I1202J0D01*
G03X-1145193Y1125418I-120J160D01*
G02X-1145306Y1125509I696J980D01*
G02X-1145810Y1125398I-504J1091D01*
G02X-1147012Y1126600I0J1202D01*
G02X-1145966Y1127792I1202J0D01*
G37*
G36*
G01X-1076885Y1133718D02*
G03X-1077008Y1134212I-361J173D01*
G02X-1077497Y1135180I714J968D01*
G02X-1075093I1202J0D01*
G02X-1075210Y1134662I-1202J-1D01*
G03X-1075087Y1134168I361J-173D01*
G02X-1074598Y1133200I-714J-968D01*
G02X-1077002I-1202J0D01*
G02X-1076885Y1133718I1202J1D01*
G37*
G36*
G01X-1071161Y1134910D02*
G03X-1070937Y1135409I-154J369D01*
G02X-1071002Y1135800I1137J390D01*
G02X-1068598I1202J0D01*
G02X-1069339Y1134690I-1202J0D01*
G03X-1069563Y1134191I154J-369D01*
G02X-1069498Y1133800I-1137J-390D01*
G02X-1071902I-1202J0D01*
G02X-1071161Y1134910I1202J0D01*
G37*
G36*
G01X-1096855Y1136666D02*
G03X-1096705Y1137241I-184J355D01*
G02X-1096902Y1137900I1004J659D01*
G02X-1094498I1202J0D01*
G02X-1094618Y1137376I-1202J0D01*
G03X-1094247Y1136802I360J-174D01*
G01X-1094213D01*
G02Y1134398I0J-1202D01*
G02X-1094996Y1134688I0J1202D01*
G03X-1095517I-261J-303D01*
G02X-1096300Y1134398I-783J912D01*
G02X-1097502Y1135600I0J1202D01*
G02X-1096855Y1136666I1202J0D01*
G37*
G36*
G01X-1041022Y1137834D02*
G03X-1041008Y1138374I-288J278D01*
G02X-1041302Y1139162I909J788D01*
G02X-1038898I1202J0D01*
G02X-1039234Y1138328I-1203J0D01*
G03X-1039248Y1137788I288J-278D01*
G02X-1038954Y1137000I-909J-788D01*
G02X-1041358I-1202J0D01*
G02X-1041022Y1137834I1203J0D01*
G37*
G36*
G01X-1090450Y1138250D02*
G02Y1139950I850J850D01*
G02X-1090802Y1140800I850J850D01*
G02X-1088398I1202J0D01*
G02X-1088750Y1139950I-1202J0D01*
G02Y1138250I-850J-850D01*
G02X-1088398Y1137400I-850J-850D01*
G02X-1088661Y1136650I-1201J0D01*
G03Y1136150I313J-250D01*
G02X-1088398Y1135400I-938J-750D01*
G02X-1088701Y1134603I-1202J1D01*
G03X-1088636Y1134013I300J-266D01*
G02X-1088139Y1133040I-704J-973D01*
G02X-1089089Y1131865I-1202J0D01*
G03X-1089405Y1131478I84J-391D01*
G02X-1090607Y1130289I-1202J13D01*
G02X-1091809Y1131491I0J1202D01*
G02X-1090859Y1132666I1202J0D01*
G03X-1090543Y1133053I-84J391D01*
G02X-1090240Y1133837I1202J-14D01*
G03X-1090305Y1134427I-300J266D01*
G02X-1090802Y1135400I704J973D01*
G02X-1090539Y1136150I1201J0D01*
G03Y1136650I-313J250D01*
G02X-1090802Y1137400I938J750D01*
G02X-1090450Y1138250I1202J0D01*
G37*
G36*
G01X-1082184Y1141914D02*
G03Y1142186I-147J136D01*
G02X-1082502Y1143000I883J814D01*
G02X-1080098I1202J0D01*
G02X-1080416Y1142186I-1201J0D01*
G03Y1141914I147J-136D01*
G02X-1080098Y1141100I-883J-814D01*
G02X-1082502I-1202J0D01*
G02X-1082184Y1141914I1201J0D01*
G37*
G36*
G01X-1041293Y1144911D02*
G02X-1040980Y1144102I-889J-809D01*
G02X-1043384I-1202J0D01*
G02X-1043089Y1144891I1203J0D01*
G02X-1043402Y1145700I889J809D01*
G02X-1040998I1202J0D01*
G02X-1041293Y1144911I-1203J0D01*
G37*
G36*
G01X-1088795Y1145133D02*
G03X-1089294Y1145109I-234J-324D01*
G02X-1090088Y1144810I-793J903D01*
G02Y1147214I0J1202D01*
G02X-1089383Y1146985I-1J-1202D01*
G03X-1088884Y1147009I234J324D01*
G02X-1088090Y1147308I793J-903D01*
G02Y1144904I0J-1202D01*
G02X-1088795Y1145133I1J1202D01*
G37*
G36*
G01X-1111723Y1147281D02*
G03X-1111398Y1147706I-74J393D01*
G02X-1111402Y1147800I1198J98D01*
G02X-1108998I1202J0D01*
G02X-1109977Y1146619I-1202J0D01*
G03X-1110302Y1146194I74J-393D01*
G02X-1110298Y1146100I-1198J-98D01*
G02X-1112702I-1202J0D01*
G02X-1111723Y1147281I1202J0D01*
G37*
G36*
G01X-1081626Y1147157D02*
G03X-1081352Y1147656I-109J385D01*
G02X-1081402Y1148000I1152J343D01*
G02X-1078998I1202J0D01*
G02X-1079874Y1146843I-1202J0D01*
G03X-1080148Y1146344I109J-385D01*
G02X-1080098Y1146000I-1152J-343D01*
G02X-1082502I-1202J0D01*
G02X-1081626Y1147157I1202J0D01*
G37*
G36*
G01X-1138527Y1150120D02*
G03X-1137963Y1150170I257J307D01*
G02X-1137040Y1150602I923J-770D01*
G02X-1135838Y1149400I0J-1202D01*
G02X-1135866Y1149144I-1202J2D01*
G03X-1135660Y1148901I196J-43D01*
G02X-1135599Y1148903I70J-1200D01*
G02X-1135554Y1148902I-4J-1202D01*
G03X-1135349Y1149132I7J200D01*
G02X-1135362Y1149310I1189J176D01*
G02X-1132958I1202J0D01*
G02X-1132963Y1149203I-1202J3D01*
G03X-1132761Y1148985I199J-18D01*
G01X-1132747D01*
G02X-1132691Y1148984I7J-1202D01*
G03X-1132481Y1149190I10J200D01*
G02X-1132482Y1149230I1201J50D01*
G02X-1130078I1202J0D01*
G02X-1130083Y1149120I-1202J0D01*
G03X-1129885Y1148902I199J-18D01*
G01X-1129870D01*
G03X-1129667Y1149120I4J200D01*
G02X-1129672Y1149230I1197J110D01*
G02X-1128470Y1150432I1202J0D01*
G02X-1127424Y1149823I0J-1203D01*
G03X-1126733Y1149815I348J197D01*
G02X-1125700Y1150402I1033J-615D01*
G02X-1124498Y1149200I0J-1202D01*
G02X-1125549Y1148008I-1201J0D01*
G03X-1125891Y1147533I51J-397D01*
G02X-1125868Y1147300I-1179J-234D01*
G02X-1126144Y1146534I-1201J0D01*
G03X-1126149Y1146030I308J-255D01*
G02X-1125888Y1145283I-941J-748D01*
G02X-1128292I-1202J0D01*
G02X-1128016Y1146049I1201J0D01*
G03X-1128011Y1146553I-308J255D01*
G02X-1128272Y1147300I941J748D01*
G02X-1128182Y1147756I1202J0D01*
G03X-1128382Y1148031I-185J76D01*
G02X-1128470Y1148028I-85J1199D01*
G01X-1128490D01*
G03X-1128693Y1147810I-4J-200D01*
G02X-1128688Y1147700I-1197J-110D01*
G02X-1128956Y1146943I-1203J0D01*
G03Y1146440I311J-251D01*
G02X-1128688Y1145683I-935J-757D01*
G02X-1131092I-1202J0D01*
G02X-1130824Y1146440I1203J0D01*
G03Y1146943I-311J252D01*
G02X-1131092Y1147700I935J757D01*
G02X-1131087Y1147810I1202J0D01*
G03X-1131285Y1148028I-199J18D01*
G02X-1131336Y1148029I-2J1202D01*
G03X-1131546Y1147823I-10J-200D01*
G02X-1131545Y1147783I-1201J-50D01*
G02X-1131817Y1147022I-1202J0D01*
G03X-1131822Y1146523I310J-253D01*
G02X-1131568Y1145783I-948J-739D01*
G02X-1133972I-1202J0D01*
G02X-1133700Y1146544I1202J0D01*
G03X-1133695Y1147043I-310J253D01*
G02X-1133949Y1147783I948J739D01*
G02X-1133944Y1147890I1202J-3D01*
G03X-1134146Y1148108I-199J18D01*
G01X-1134160D01*
G02X-1134205Y1148109I4J1202D01*
G03X-1134410Y1147879I-7J-200D01*
G02X-1134397Y1147701I-1189J-176D01*
G02X-1134676Y1146931I-1202J0D01*
G03X-1134687Y1146432I307J-256D01*
G02X-1134439Y1145701I-953J-731D01*
G02X-1136843I-1202J0D01*
G02X-1136564Y1146471I1202J0D01*
G03X-1136553Y1146970I-307J256D01*
G02X-1136801Y1147701I953J731D01*
G02X-1136798Y1147780I1202J-6D01*
G03X-1137158Y1148204I-399J26D01*
G02X-1137813Y1148480I118J1196D01*
G03X-1138377Y1148430I-257J-307D01*
G02X-1139300Y1147998I-923J770D01*
G02Y1150402I0J1202D01*
G02X-1138527Y1150120I0J-1202D01*
G37*
G36*
G01X-1152196Y1152194D02*
G03X-1152665Y1151982I-108J-385D01*
G02X-1153750Y1151298I-1085J519D01*
G02Y1153702I0J1202D01*
G02X-1153423Y1153657I1J-1202D01*
G03X-1152954Y1153869I108J385D01*
G02X-1151869Y1154553I1085J-519D01*
G02Y1152149I0J-1202D01*
G02X-1152196Y1152194I-1J1202D01*
G37*
G36*
G01X-1138715Y1154801D02*
G03X-1138138Y1154851I265J300D01*
G02X-1137200Y1155302I938J-750D01*
G02X-1136375Y1154974I0J-1202D01*
G03X-1135825I275J291D01*
G02X-1135000Y1155302I825J-874D01*
G02Y1152898I0J-1202D01*
G02X-1135825Y1153226I0J1202D01*
G03X-1136375I-275J-291D01*
G02X-1137200Y1152898I-825J874D01*
G02X-1137995Y1153199I1J1202D01*
G03X-1138572Y1153149I-265J-300D01*
G02X-1139510Y1152698I-938J750D01*
G02Y1155102I0J1202D01*
G02X-1138715Y1154801I-1J-1202D01*
G37*
G36*
G01X-1169150Y1156057D02*
G03X-1168634Y1156299I139J375D01*
G02X-1167500Y1157102I1134J-399D01*
G02Y1154698I0J-1202D01*
G02X-1167918Y1154773I0J1202D01*
G03X-1168434Y1154531I-139J-375D01*
G02X-1169568Y1153728I-1134J399D01*
G02Y1156132I0J1202D01*
G02X-1169150Y1156057I0J-1202D01*
G37*
G36*
G01X-1088100Y1155204D02*
G03X-1088099Y1155802I-265J299D01*
G02X-1088502Y1156700I799J898D01*
G02X-1086098I1202J0D01*
G02X-1086504Y1155800I-1202J1D01*
G03X-1086505Y1155202I265J-299D01*
G02X-1086102Y1154304I-799J-898D01*
G02X-1088506I-1202J0D01*
G02X-1088100Y1155204I1202J-1D01*
G37*
G36*
G01X-1051039Y1156750D02*
G03Y1157250I-313J250D01*
G02X-1051302Y1158000I938J750D01*
G02X-1048898I1202J0D01*
G02X-1049161Y1157250I-1201J0D01*
G03Y1156750I313J-250D01*
G02X-1048898Y1156000I-938J-750D01*
G02X-1051302I-1202J0D01*
G02X-1051039Y1156750I1201J0D01*
G37*
G36*
G01X-1033656Y1159456D02*
G02X-1033298Y1158600I-844J-856D01*
G02X-1035702I-1202J0D01*
G02X-1035444Y1159344I1202J0D01*
G02X-1035802Y1160200I844J856D01*
G02X-1033398I1202J0D01*
G02X-1033656Y1159456I-1202J0D01*
G37*
G36*
G01X-1042200Y1160523D02*
G03X-1042362Y1160707I-199J-12D01*
G02X-1043341Y1161888I223J1181D01*
G02X-1042139Y1163090I1202J0D01*
G02X-1040939Y1161965I0J-1202D01*
G03X-1040777Y1161781I199J12D01*
G02X-1039798Y1160600I-223J-1181D01*
G02X-1041000Y1159398I-1202J0D01*
G02X-1042200Y1160523I0J1202D01*
G37*
G36*
G01X-1042522Y1168972D02*
G03Y1169228I-153J128D01*
G02X-1042802Y1170000I922J771D01*
G02X-1040398I1202J0D01*
G02X-1040678Y1169228I-1202J-1D01*
G03Y1168972I153J-128D01*
G02X-1040398Y1168200I-922J-771D01*
G02X-1042802I-1202J0D01*
G02X-1042522Y1168972I1202J1D01*
G37*
G36*
G01X-1077452Y1184382D02*
G03X-1077576Y1184906I-350J194D01*
G02X-1078102Y1185900I676J994D01*
G02X-1075698I1202J0D01*
G02X-1075848Y1185318I-1202J-1D01*
G03X-1075724Y1184794I350J-194D01*
G02X-1075198Y1183800I-676J-994D01*
G02X-1077602I-1202J0D01*
G02X-1077452Y1184382I1202J1D01*
G37*
G36*
G01X-1064519Y1186826D02*
G03X-1064783Y1186819I-128J-154D01*
G02X-1065600Y1186498I-818J881D01*
G02Y1188902I0J1202D01*
G02X-1064831Y1188624I0J-1203D01*
G03X-1064567Y1188631I128J154D01*
G02X-1063750Y1188952I818J-881D01*
G02Y1186548I0J-1202D01*
G02X-1064519Y1186826I0J1203D01*
G37*
G36*
G01X-1038399Y1187894D02*
G03X-1038174Y1188343I-166J364D01*
G02X-1038202Y1188600I1174J258D01*
G02X-1035798I1202J0D01*
G02X-1036501Y1187506I-1203J0D01*
G03X-1036726Y1187057I166J-364D01*
G02X-1036698Y1186800I-1174J-258D01*
G02X-1039102I-1202J0D01*
G02X-1038399Y1187894I1203J0D01*
G37*
G36*
G01X-1193294Y1191634D02*
G03X-1193111Y1192141I-186J354D01*
G02X-1193202Y1192600I1112J459D01*
G02X-1190798I1202J0D01*
G02X-1191441Y1191536I-1202J0D01*
G03X-1191624Y1191029I186J-354D01*
G02X-1191533Y1190570I-1112J-459D01*
G02X-1191720Y1189927I-1202J1D01*
G03X-1191611Y1189385I338J-214D01*
G02X-1191098Y1188400I-689J-985D01*
G02X-1193502I-1202J0D01*
G02X-1193315Y1189043I1202J-1D01*
G03X-1193424Y1189585I-338J214D01*
G02X-1193937Y1190570I689J985D01*
G02X-1193294Y1191634I1202J0D01*
G37*
G36*
G01X-1196754Y1191009D02*
G03X-1197020Y1191541I-372J146D01*
G02X-1197902Y1192700I320J1159D01*
G02X-1195498I1202J0D01*
G02X-1195581Y1192261I-1202J0D01*
G03X-1195315Y1191729I372J-146D01*
G02X-1194433Y1190570I-320J-1159D01*
G02X-1196837I-1202J0D01*
G02X-1196754Y1191009I1202J0D01*
G37*
G36*
G01X-1222888Y1193254D02*
G03X-1223084Y1193800I-357J180D01*
G02X-1223802Y1194900I484J1100D01*
G02X-1221398I1202J0D01*
G02X-1221527Y1194359I-1202J1D01*
G03X-1221331Y1193813I357J-180D01*
G02X-1220613Y1192713I-484J-1100D01*
G02X-1223017I-1202J0D01*
G02X-1222888Y1193254I1202J-1D01*
G37*
G36*
G01X-1203143Y1195577D02*
G03X-1202575Y1195738I210J340D01*
G02X-1201500Y1196402I1075J-538D01*
G02Y1193998I0J-1202D01*
G02X-1202132Y1194178I1J1202D01*
G03X-1202700Y1194017I-210J-340D01*
G02X-1203775Y1193353I-1075J538D01*
G02X-1204142Y1193410I-1J1202D01*
G03X-1204402Y1193203I-61J-190D01*
G02X-1204398Y1193100I-1198J-98D01*
G02X-1204402Y1193006I-1202J4D01*
G03X-1204141Y1192800I199J-16D01*
G02X-1203775Y1192857I366J-1145D01*
G02X-1202573Y1191655I0J-1202D01*
G02X-1202612Y1191353I-1202J2D01*
G03X-1202393Y1190890I387J-100D01*
G02X-1201698Y1189800I-507J-1090D01*
G02X-1204102I-1202J0D01*
G02X-1204063Y1190102I1202J-2D01*
G03X-1204282Y1190565I-387J100D01*
G02X-1204972Y1191550I507J1090D01*
G03X-1205428Y1191910I-398J-36D01*
G02X-1205600Y1191898I-169J1190D01*
G02Y1194302I0J1202D01*
G02X-1205429Y1194290I2J-1202D01*
G03X-1204973Y1194653I57J396D01*
G02X-1203775Y1195757I1198J-98D01*
G02X-1203143Y1195577I-1J-1202D01*
G37*
G36*
G01X-1028956Y1197065D02*
G03X-1029529Y1196990I-251J-311D01*
G02X-1030499Y1196499I-969J711D01*
G02Y1198903I0J1202D01*
G02X-1029743Y1198636I1J-1202D01*
G03X-1029170Y1198711I251J311D01*
G02X-1028200Y1199202I969J-711D01*
G02Y1196798I0J-1202D01*
G02X-1028956Y1197065I-1J1202D01*
G37*
G36*
G01X-1239499Y1196399D02*
G03X-1239890Y1196898I-388J99D01*
G01X-1239900D01*
G02Y1199302I0J1202D01*
G02X-1239197Y1199075I0J-1202D01*
G03X-1238697Y1199100I234J324D01*
G02X-1237900Y1199402I797J-901D01*
G02X-1236698Y1198200I0J-1202D01*
G02X-1236758Y1197826I-1202J1D01*
G03X-1236367Y1197302I380J-124D01*
G01X-1236335D01*
G02Y1194898I0J-1202D01*
G02X-1237085Y1195161I0J1201D01*
G03X-1237585I-250J-313D01*
G02X-1238335Y1194898I-750J938D01*
G02X-1239537Y1196100I0J1202D01*
G02X-1239499Y1196399I1202J-1D01*
G37*
G36*
G01X-1250400Y1197504D02*
G03X-1251000I-300J-265D01*
G02X-1251900Y1197098I-901J796D01*
G02Y1199502I0J1202D01*
G02X-1251000Y1199096I-1J-1202D01*
G03X-1250400I300J265D01*
G02X-1249500Y1199502I901J-796D01*
G02Y1197098I0J-1202D01*
G02X-1250400Y1197504I1J1202D01*
G37*
G36*
G01X-1235185Y1201795D02*
G03X-1235606Y1202102I-389J-92D01*
G02X-1235700Y1202098I-98J1198D01*
G02Y1204502I0J1202D01*
G02X-1234530Y1203575I0J-1202D01*
G03X-1234109Y1203268I389J92D01*
G02X-1234015Y1203272I98J-1198D01*
G02Y1200868I0J-1202D01*
G02X-1235185Y1201795I0J1202D01*
G37*
G36*
G01X-1231269Y1203262D02*
G03X-1230920Y1203658I-51J397D01*
G02X-1229718Y1204859I1202J-1D01*
G02X-1228516Y1203657I0J-1202D01*
G02X-1229564Y1202465I-1202J0D01*
G03X-1229913Y1202069I51J-397D01*
G02X-1231115Y1200868I-1202J1D01*
G02X-1232317Y1202070I0J1202D01*
G02X-1231269Y1203262I1202J0D01*
G37*
G36*
G01X-1061357Y1205394D02*
G03X-1061857Y1205344I-219J-335D01*
G02X-1062700Y1204998I-844J856D01*
G02Y1207402I0J1202D01*
G02X-1062043Y1207206I-1J-1202D01*
G03X-1061543Y1207256I219J335D01*
G02X-1060700Y1207602I844J-856D01*
G02Y1205198I0J-1202D01*
G02X-1061357Y1205394I1J1202D01*
G37*
G36*
G01X-1243502Y1207669D02*
G03X-1243889Y1208059I-400J-10D01*
G02X-1245052Y1209260I39J1201D01*
G02X-1243850Y1210462I1202J0D01*
G02X-1242648Y1209291I0J-1202D01*
G03X-1242261Y1208901I400J10D01*
G02X-1241098Y1207700I-39J-1201D01*
G02X-1242300Y1206498I-1202J0D01*
G02X-1243502Y1207669I0J1202D01*
G37*
G36*
G01X-1220171Y1210596D02*
G03X-1219765Y1210897I19J399D01*
G02X-1218600Y1211802I1165J-297D01*
G02Y1209398I0J-1202D01*
G02X-1218657Y1209399I-7J1202D01*
G03X-1219063Y1209098I-19J-399D01*
G02X-1220228Y1208193I-1165J297D01*
G02Y1210597I0J1202D01*
G02X-1220171Y1210596I7J-1202D01*
G37*
G36*
G01X-1260944Y1209345D02*
G03X-1260968Y1209869I-314J248D01*
G02X-1261302Y1210700I867J831D01*
G02X-1258898I1202J0D01*
G02X-1259156Y1209955I-1202J-1D01*
G03X-1259132Y1209431I314J-248D01*
G02X-1258798Y1208600I-867J-831D01*
G02X-1260000Y1207398I-1202J0D01*
G02X-1260358Y1207452I-2J1202D01*
G03X-1260840Y1207237I-119J-382D01*
G02X-1261933Y1206536I-1093J502D01*
G02X-1262746Y1206853I0J1201D01*
G03X-1263288I-271J-295D01*
G02X-1264101Y1206536I-813J884D01*
G02X-1264249Y1206545I-1J1202D01*
G03X-1264699Y1206136I-50J-397D01*
G02X-1264698Y1206100I-1201J-51D01*
G02X-1267102I-1202J0D01*
G02X-1266959Y1206668I1202J-1D01*
G02X-1267402Y1207600I759J932D01*
G02X-1266200Y1208802I1202J0D01*
G02X-1265472Y1208556I-1J-1202D01*
G03X-1264948Y1208591I242J319D01*
G02X-1264101Y1208940I847J-853D01*
G02X-1263288Y1208623I0J-1201D01*
G03X-1262746I271J295D01*
G02X-1261933Y1208940I813J-884D01*
G02X-1261575Y1208886I2J-1202D01*
G03X-1261093Y1209101I119J382D01*
G02X-1260944Y1209345I1093J-500D01*
G37*
G36*
G01X-1247946Y1209143D02*
G03X-1248308Y1209503I-398J-38D01*
G02X-1249402Y1210700I108J1197D01*
G02X-1248200Y1211902I1202J0D01*
G02X-1247004Y1210817I0J-1202D01*
G03X-1246642Y1210457I398J38D01*
G02X-1245548Y1209260I-108J-1197D01*
G02X-1246268Y1208159I-1202J0D01*
G03X-1246455Y1207595I160J-366D01*
G02X-1246298Y1207000I-1045J-594D01*
G02X-1247500Y1205798I-1202J0D01*
G02X-1248477Y1206300I0J1202D01*
G03X-1249040Y1206388I-325J-233D01*
G02X-1249642Y1206157I-716J966D01*
G03X-1250003Y1205794I37J-398D01*
G02X-1252397I-1197J106D01*
G03X-1252761Y1206157I-399J-36D01*
G02X-1253827Y1207089I106J1197D01*
G03X-1254238Y1207400I-390J-89D01*
G02X-1254300Y1207398I-70J1200D01*
G02X-1255502Y1208600I0J1202D01*
G02X-1255180Y1209419I1203J0D01*
G03X-1255145Y1209919I-293J272D01*
G02X-1255360Y1210606I987J686D01*
G02X-1252956I1202J0D01*
G02X-1253278Y1209787I-1203J0D01*
G03X-1253313Y1209287I293J-272D01*
G02X-1253128Y1208865I-988J-685D01*
G03X-1252717Y1208554I390J89D01*
G02X-1252655Y1208556I70J-1200D01*
G02X-1251453Y1207354I0J-1202D01*
G02X-1251454Y1207309I-1202J4D01*
G03X-1251246Y1207101I200J-8D01*
G02X-1251200Y1207102I49J-1201D01*
G02X-1251162Y1207101I-13J-1202D01*
G03X-1250956Y1207309I6J200D01*
G02X-1250957Y1207354I1201J49D01*
G02X-1249755Y1208556I1202J0D01*
G02X-1248778Y1208054I0J-1202D01*
G03X-1248215Y1207966I325J233D01*
G02X-1247982Y1208101I715J-966D01*
G03X-1247795Y1208665I-160J366D01*
G02X-1247946Y1209143I1046J593D01*
G37*
G36*
G01X-1224314Y1209197D02*
G03X-1224689Y1209530I-394J-66D01*
G02X-1225833Y1210731I58J1201D01*
G02X-1224631Y1211933I1202J0D01*
G02X-1223445Y1210929I0J-1202D01*
G03X-1223070Y1210596I394J66D01*
G02X-1221926Y1209395I-58J-1201D01*
G02X-1223128Y1208193I-1202J0D01*
G02X-1224314Y1209197I0J1202D01*
G37*
G36*
G01X-1234500Y1210204D02*
G03X-1235100I-300J-265D01*
G02X-1236000Y1209798I-901J796D01*
G02Y1212202I0J1202D01*
G02X-1235100Y1211796I-1J-1202D01*
G03X-1234500I300J265D01*
G02X-1233600Y1212202I901J-796D01*
G02Y1209798I0J-1202D01*
G02X-1234500Y1210204I1J1202D01*
G37*
G36*
G01X-1161717Y1211468D02*
G03X-1161239Y1211747I93J389D01*
G02X-1160083Y1212619I1156J-330D01*
G02X-1158881Y1211417I0J-1202D01*
G02X-1159187Y1210616I-1201J0D01*
G03X-1159191Y1210087I298J-267D01*
G02X-1158898Y1209300I-909J-787D01*
G02X-1160100Y1208098I-1202J0D01*
G02X-1161228Y1208886I0J1201D01*
G03X-1161703Y1209135I-375J-138D01*
G02X-1162000Y1209098I-296J1165D01*
G02X-1162750Y1209361I0J1201D01*
G03X-1163250I-250J-313D01*
G02X-1164000Y1209098I-750J938D01*
G02X-1165158Y1209979I0J1202D01*
G03X-1165655Y1210257I-386J-106D01*
G02X-1165988Y1210210I-333J1156D01*
G02Y1212614I0J1202D01*
G02X-1164830Y1211733I0J-1202D01*
G03X-1164333Y1211455I386J106D01*
G02X-1164000Y1211502I333J-1156D01*
G02X-1163250Y1211239I0J-1201D01*
G03X-1162750I250J313D01*
G02X-1162000Y1211502I750J-938D01*
G02X-1161717Y1211468I-1J-1202D01*
G37*
G36*
G01X-1128292Y1216352D02*
G03X-1128468Y1216576I-199J25D01*
G02X-1129532Y1217770I138J1194D01*
G02X-1127128I1202J0D01*
G02X-1127138Y1217618I-1202J3D01*
G03X-1126962Y1217394I199J-25D01*
G02X-1125898Y1216200I-138J-1194D01*
G02X-1128302I-1202J0D01*
G02X-1128292Y1216352I1202J-3D01*
G37*
G36*
G01X-1078679Y1217228D02*
G03X-1078870Y1217794I-348J198D01*
G02X-1079602Y1218900I470J1106D01*
G02X-1077198I1202J0D01*
G02X-1077355Y1218306I-1202J0D01*
G03X-1077164Y1217740I348J-198D01*
G02X-1076432Y1216634I-470J-1106D01*
G02X-1078836I-1202J0D01*
G02X-1078679Y1217228I1202J0D01*
G37*
G36*
G01X-1192049Y1065350D02*
G02X-1192402Y1066201I849J851D01*
G02X-1189998I1202J0D01*
G02X-1190351Y1065350I-1202J0D01*
G02X-1190126Y1065039I-849J-851D01*
G03X-1189883Y1064939I179J90D01*
G02X-1189500Y1065002I384J-1139D01*
G02X-1188298Y1063800I0J-1202D01*
G02X-1188322Y1063560I-1202J-1D01*
G03X-1188194Y1063331I196J-41D01*
G02X-1187398Y1062200I-405J-1131D01*
G02X-1188600Y1060998I-1202J0D01*
G02X-1189414Y1061316I0J1201D01*
G03X-1189686I-136J-147D01*
G02X-1190500Y1060998I-814J883D01*
G02X-1190939Y1061081I0J1202D01*
G03X-1191482Y1060657I-147J-372D01*
G02X-1191472Y1060500I-1192J-155D01*
G02X-1192674Y1061702I-1202J0D01*
G02X-1192235Y1061619I0J-1202D01*
G03X-1191692Y1062043I147J372D01*
G02X-1191702Y1062200I1192J155D01*
G02X-1191523Y1062832I1202J1D01*
G03X-1191697Y1063406I-340J210D01*
G02X-1192402Y1064500I496J1094D01*
G02X-1192049Y1065350I1202J-1D01*
G37*
G36*
G01X-1189669Y1073356D02*
G02X-1190502Y1074500I369J1144D01*
G02X-1188098I1202J0D01*
G02X-1188105Y1074368I-1202J-2D01*
G03X-1187831Y1073944I397J-44D01*
G02X-1187006Y1072938I-369J-1144D01*
G03X-1186700Y1073603I7J400D01*
G02X-1187002Y1074400I901J797D01*
G02X-1184598I1202J0D01*
G02X-1184825Y1073697I-1202J0D01*
G03X-1184800Y1073197I324J-234D01*
G02X-1184498Y1072400I-901J-797D01*
G02X-1184752Y1071661I-1202J0D01*
G03X-1184740Y1071153I315J-247D01*
G02X-1184448Y1070368I-909J-785D01*
G02X-1186852I-1202J0D01*
G02X-1186598Y1071107I1202J0D01*
G03X-1186610Y1071615I-315J247D01*
G02X-1186754Y1071823I911J784D01*
G03X-1187378Y1071923I-351J-192D01*
G02X-1188200Y1071598I-822J877D01*
G02X-1189402Y1072800I0J1202D01*
G02X-1189395Y1072932I1202J2D01*
G03X-1189669Y1073356I-397J44D01*
G37*
G36*
G01X-1193290Y1082398D02*
X-1193300D01*
G02X-1192098Y1083600I0J1202D01*
G02X-1192185Y1083151I-1202J0D01*
G03X-1191810Y1082602I371J-149D01*
G01X-1191800D01*
G02X-1190598Y1081400I0J-1202D01*
G02X-1190860Y1080650I-1202J-1D01*
G03X-1190617Y1080007I313J-249D01*
G02X-1189622Y1078823I-207J-1184D01*
G02X-1192026I-1202J0D01*
G02X-1191764Y1079573I1202J1D01*
G03X-1192007Y1080216I-313J249D01*
G02X-1193002Y1081400I207J1184D01*
G02X-1192915Y1081849I1202J0D01*
G03X-1193290Y1082398I-371J149D01*
G37*
G36*
G01X-1181114Y1106075D02*
G02X-1181880Y1105719I-766J646D01*
G02Y1107723I0J1002D01*
G02X-1181173Y1107432I1J-1002D01*
G03X-1180586Y1107457I282J283D01*
G02X-1179820Y1107813I766J-646D01*
G02Y1105809I0J-1002D01*
G02X-1180527Y1106100I-1J1002D01*
G03X-1181114Y1106075I-282J-283D01*
G37*
G36*
G01X-1110093Y1110608D02*
G02X-1111282Y1111810I13J1202D01*
G02X-1108878I1202J0D01*
G02X-1109024Y1111236I-1201J0D01*
G03X-1108677Y1110645I351J-191D01*
G02X-1107488Y1109443I-13J-1202D01*
G02X-1109892I-1202J0D01*
G02X-1109746Y1110017I1201J0D01*
G03X-1110093Y1110608I-351J191D01*
G37*
G36*
G01X-1184900Y1112502D02*
G02X-1184904Y1112593I998J89D01*
G02X-1183902Y1111591I1002J0D01*
G02X-1184182Y1111631I0J1002D01*
G03X-1184692Y1111211I-112J-384D01*
G02X-1184688Y1111120I-998J-89D01*
G02X-1185690Y1112122I-1002J0D01*
G02X-1185410Y1112082I0J-1002D01*
G03X-1184900Y1112502I112J384D01*
G37*
G36*
G01X-1194631Y1112104D02*
G02X-1194912Y1112800I721J696D01*
G02X-1193910Y1113802I1002J0D01*
G02X-1193169Y1113474I0J-1001D01*
G03X-1192541Y1113520I296J269D01*
G02X-1191710Y1113963I831J-558D01*
G02X-1190708Y1112961I0J-1002D01*
G02X-1191075Y1112186I-1002J0D01*
G03X-1191047Y1111546I253J-310D01*
G02X-1190608Y1110717I-563J-829D01*
G02X-1190627Y1110521I-1002J-2D01*
G03X-1190156Y1110050I392J-79D01*
G02X-1189958Y1110070I199J-982D01*
G02X-1189147Y1109657I0J-1003D01*
G03X-1188500I323J235D01*
G02X-1187689Y1110070I811J-590D01*
G02Y1108066I0J-1002D01*
G02X-1188500Y1108479I0J1003D01*
G03X-1189147I-324J-235D01*
G02X-1189337Y1108282I-809J591D01*
G03Y1107654I248J-314D01*
G02X-1188956Y1106868I-620J-786D01*
G02X-1190960I-1002J0D01*
G02X-1190579Y1107654I1001J0D01*
G03Y1108282I-248J314D01*
G02X-1190960Y1109068I620J786D01*
G02X-1190941Y1109264I1002J2D01*
G03X-1191412Y1109735I-392J79D01*
G02X-1191610Y1109715I-199J982D01*
G02X-1192612Y1110717I0J1002D01*
G02X-1192245Y1111492I1002J0D01*
G03X-1192273Y1112132I-253J310D01*
G02X-1192451Y1112287I564J828D01*
G03X-1193079Y1112241I-296J-269D01*
G02X-1193268Y1112031I-832J558D01*
G03X-1193299Y1111446I257J-307D01*
G02X-1193018Y1110750I-721J-696D01*
G02X-1195022I-1002J0D01*
G02X-1194662Y1111519I1001J0D01*
G03X-1194631Y1112104I-257J307D01*
G37*
G36*
G01X-1162341Y1114299D02*
G02X-1162400Y1114298I-50J1201D01*
G02X-1161198Y1115500I0J1202D01*
G02X-1161258Y1115125I-1202J0D01*
G03X-1160859Y1114601I380J-125D01*
G02X-1160800Y1114602I50J-1201D01*
G02X-1162002Y1113400I0J-1202D01*
G02X-1161942Y1113775I1202J0D01*
G03X-1162341Y1114299I-380J125D01*
G37*
G36*
G01X-1182720Y1116212D02*
G02X-1182936Y1116834I786J622D01*
G02X-1181934Y1117836I1002J0D01*
G02X-1181161Y1117472I0J-1003D01*
G03X-1180552Y1117462I309J254D01*
G02X-1179800Y1117802I752J-662D01*
G02X-1178798Y1116800I0J-1002D01*
G02X-1179137Y1116049I-1001J0D01*
G03X-1179118Y1115433I264J-300D01*
G02X-1178730Y1114641I-614J-792D01*
G02X-1180734I-1002J0D01*
G02X-1180395Y1115392I1001J0D01*
G03X-1180414Y1116008I-264J300D01*
G02X-1180573Y1116162I613J792D01*
G03X-1181182Y1116172I-309J-254D01*
G02X-1181326Y1116037I-754J660D01*
G03X-1181397Y1115471I242J-318D01*
G02X-1181181Y1114849I-786J-622D01*
G02X-1183185I-1002J0D01*
G02X-1182791Y1115646I1003J0D01*
G03X-1182720Y1116212I-242J318D01*
G37*
G36*
G01X-1184904Y1126408D02*
G02X-1183902Y1127400I1002J-10D01*
G02X-1183200Y1127113I0J-1002D01*
G03X-1182622Y1127131I280J285D01*
G02X-1181877Y1127463I745J-670D01*
G02Y1125459I0J-1002D01*
G02X-1182579Y1125746I0J1002D01*
G03X-1183157Y1125728I-280J-285D01*
G02X-1183902Y1125396I-745J670D01*
G02X-1184307Y1125481I-1J1002D01*
G03X-1184868Y1125120I-161J-366D01*
G02X-1185870Y1124128I-1002J10D01*
G02Y1126132I0J1002D01*
G02X-1185465Y1126047I1J-1002D01*
G03X-1184904Y1126408I161J366D01*
G37*
G36*
G01X-1111063Y1131459D02*
G02X-1112241Y1132661I24J1202D01*
G02X-1109837I1202J0D01*
G02X-1109913Y1132241I-1202J1D01*
G03X-1109546Y1131702I375J-139D01*
G02X-1108368Y1130500I-24J-1202D01*
G02X-1110772I-1202J0D01*
G02X-1110696Y1130920I1202J-1D01*
G03X-1111063Y1131459I-375J139D01*
G37*
G36*
G01X-1156824Y1131765D02*
G02X-1157415Y1131610I-590J1047D01*
G02Y1134014I0J1202D01*
G02X-1156224Y1132972I0J-1202D01*
G03X-1155631Y1132677I396J53D01*
G02X-1155040Y1132832I590J-1047D01*
G02Y1130428I0J-1202D01*
G02X-1156231Y1131470I0J1202D01*
G03X-1156824Y1131765I-396J-53D01*
G37*
G36*
G01X-1184532Y1133538D02*
G02X-1184952Y1134353I581J815D01*
G02X-1182948I1002J0D01*
G02X-1183189Y1133701I-1002J0D01*
G03X-1183118Y1133115I304J-261D01*
G02X-1182698Y1132300I-581J-815D01*
G02X-1183700Y1131298I-1002J0D01*
G02X-1184516Y1131719I0J1001D01*
G03X-1185155Y1131736I-326J-232D01*
G02X-1185940Y1131357I-785J623D01*
G02X-1186201Y1131391I-2J1002D01*
G03X-1186703Y1130967I-104J-386D01*
G02X-1186698Y1130870I-997J-100D01*
G02X-1187700Y1131872I-1002J0D01*
G02X-1187439Y1131838I2J-1002D01*
G03X-1186937Y1132262I104J386D01*
G02X-1186942Y1132359I997J100D01*
G02X-1185940Y1133361I1002J0D01*
G02X-1185124Y1132940I0J-1001D01*
G03X-1184485Y1132923I326J232D01*
G02X-1184461Y1132952I784J-624D01*
G03X-1184532Y1133538I-304J261D01*
G37*
G36*
G01X-1050495Y1137010D02*
G02X-1050702Y1137684I994J674D01*
G02X-1048298I1202J0D01*
G02X-1049330Y1136494I-1202J0D01*
G03X-1049605Y1135874I56J-396D01*
G02X-1049398Y1135200I-994J-674D01*
G02X-1049614Y1134512I-1202J0D01*
G03X-1049383Y1133895I328J-229D01*
G02X-1048470Y1132728I-289J-1167D01*
G02X-1050874I-1202J0D01*
G02X-1050658Y1133416I1202J0D01*
G03X-1050889Y1134033I-328J229D01*
G02X-1051802Y1135200I289J1167D01*
G02X-1050770Y1136390I1202J0D01*
G03X-1050495Y1137010I-56J396D01*
G37*
G36*
G01X-1183610Y1139398D02*
G02X-1184602Y1140400I10J1002D01*
G02X-1182598I1002J0D01*
G02X-1182617Y1140208I-1002J2D01*
G03X-1182228Y1139731I393J-77D01*
G02X-1181412Y1139296I-10J-1002D01*
G03X-1180743Y1139312I329J227D01*
G02X-1179891Y1139786I852J-529D01*
G02Y1137782I0J-1002D01*
G02X-1180717Y1138217I0J1002D01*
G03X-1181386Y1138201I-329J-227D01*
G02X-1181654Y1137915I-851J529D01*
G03X-1181647Y1137259I233J-326D01*
G02X-1181363Y1136964I-564J-828D01*
G03X-1180753Y1136882I339J212D01*
G02X-1180075Y1137146I678J-739D01*
G02Y1135142I0J-1002D01*
G02X-1180924Y1135612I0J1002D01*
G03X-1181534Y1135694I-339J-212D01*
G02X-1182212Y1135430I-678J739D01*
G02X-1183214Y1136432I0J1002D01*
G02X-1182796Y1137246I1002J0D01*
G03X-1182803Y1137902I-233J326D01*
G02X-1183240Y1138729I564J827D01*
G02X-1183221Y1138921I1002J-2D01*
G03X-1183610Y1139398I-393J77D01*
G37*
G36*
G01X-1062724Y1141970D02*
G02X-1062902Y1142600I1024J630D01*
G02X-1060498I1202J0D01*
G02X-1061427Y1141429I-1203J0D01*
G03X-1061676Y1140830I91J-389D01*
G02X-1061498Y1140200I-1024J-630D01*
G02X-1063902I-1202J0D01*
G02X-1062973Y1141371I1203J0D01*
G03X-1062724Y1141970I-91J389D01*
G37*
G36*
G01X-1071097Y1142200D02*
G02X-1071402Y1143000I897J800D01*
G02X-1068998I1202J0D01*
G02X-1069403Y1142100I-1203J0D01*
G02X-1069098Y1141300I-897J-800D01*
G02X-1069529Y1140378I-1202J0D01*
G03X-1069479Y1139729I257J-307D01*
G02X-1068898Y1138700I-621J-1029D01*
G02X-1071302I-1202J0D01*
G02X-1070871Y1139622I1202J0D01*
G03X-1070921Y1140271I-257J307D01*
G02X-1071502Y1141300I621J1029D01*
G02X-1071097Y1142200I1203J0D01*
G37*
G36*
G01X-1050720Y1143674D02*
G02X-1051502Y1144800I420J1126D01*
G02X-1049098I1202J0D01*
G02X-1049109Y1144640I-1202J2D01*
G03X-1048980Y1144426I198J-26D01*
G02X-1048198Y1143300I-420J-1126D01*
G02X-1048602Y1142401I-1202J0D01*
G03X-1048627Y1141827I265J-299D01*
G02X-1048298Y1141000I-873J-826D01*
G02X-1049500Y1139798I-1202J0D01*
G02X-1050611Y1140541I0J1202D01*
G03X-1051210Y1140716I-370J-153D01*
G02X-1051900Y1140498I-690J983D01*
G02Y1142902I0J1202D01*
G02X-1050704Y1141824I0J-1202D01*
G03X-1050273Y1142473I140J374D01*
G02X-1050602Y1143300I873J826D01*
G02X-1050591Y1143460I1202J-2D01*
G03X-1050720Y1143674I-198J26D01*
G37*
G36*
G01X-1123838Y1144209D02*
G02X-1124110Y1144178I-271J1171D01*
G02Y1146582I0J1202D01*
G02X-1122911Y1145463I0J-1202D01*
G03X-1122422Y1145101I399J28D01*
G02X-1122150Y1145132I271J-1171D01*
G02Y1142728I0J-1202D01*
G02X-1123349Y1143847I0J1202D01*
G03X-1123838Y1144209I-399J-28D01*
G37*
G36*
G01X-1190683Y1145867D02*
G02X-1190952Y1146550I733J683D01*
G02X-1188948I1002J0D01*
G02X-1189324Y1145768I-1001J0D01*
G03X-1189367Y1145183I250J-312D01*
G02X-1189098Y1144500I-733J-683D01*
G02X-1191102I-1002J0D01*
G02X-1190726Y1145282I1001J0D01*
G03X-1190683Y1145867I-250J312D01*
G37*
G36*
G01X-1144550Y1150384D02*
G03X-1143850I350J195D01*
G02X-1142800Y1151002I1050J-583D01*
G02X-1141598Y1149800I0J-1202D01*
G02X-1142641Y1148609I-1202J0D01*
G03X-1142988Y1148209I53J-397D01*
G01Y1148200D01*
G02X-1143273Y1147423I-1202J0D01*
G03Y1146905I305J-259D01*
G02X-1143184Y1146785I-919J-775D01*
G03X-1142490Y1146828I335J219D01*
G02X-1141410Y1147502I1080J-528D01*
G02Y1145098I0J-1202D01*
G02X-1142416Y1145643I0J1201D01*
G03X-1143110Y1145600I-335J-219D01*
G02X-1145270I-1080J528D01*
G03X-1145964Y1145643I-359J-176D01*
G02X-1146970Y1145098I-1006J656D01*
G02X-1148013Y1145702I0J1203D01*
G03X-1148707I-347J-198D01*
G02X-1149750Y1145098I-1043J599D01*
G02X-1150952Y1146300I0J1202D01*
G02X-1150856Y1146770I1202J-1D01*
G03X-1151019Y1147269I-368J156D01*
G02X-1151602Y1148300I620J1031D01*
G02X-1150400Y1149502I1202J0D01*
G02X-1149545Y1149144I-1J-1202D01*
G03X-1149035Y1149094I285J281D01*
G02X-1148360Y1149302I676J-994D01*
G02X-1147158Y1148100I0J-1202D01*
G02X-1147168Y1147942I-1202J-3D01*
G03X-1146821Y1147493I396J-52D01*
G02X-1145890Y1146828I-149J-1193D01*
G03X-1145196Y1146785I359J176D01*
G02X-1145107Y1146905I1008J-655D01*
G03Y1147423I-305J259D01*
G02X-1145392Y1148200I917J777D01*
G01Y1148207D01*
G03X-1145744Y1148607I-400J3D01*
G02X-1146802Y1149800I144J1193D01*
G02X-1145600Y1151002I1202J0D01*
G02X-1144550Y1150384I0J-1201D01*
G37*
G36*
G01X-1033901Y1155112D02*
G02X-1032980Y1155541I921J-774D01*
G02X-1032050Y1155100I0J-1201D01*
G03X-1031430I310J253D01*
G02X-1030500Y1155541I930J-760D01*
G02Y1153137I0J-1202D01*
G02X-1031430Y1153578I0J1201D01*
G03X-1032050I-310J-253D01*
G02X-1032980Y1153137I-930J760D01*
G02X-1033875Y1153537I0J1201D01*
G03X-1034479Y1153527I-298J-267D01*
G02X-1035400Y1153098I-921J774D01*
G02Y1155502I0J1202D01*
G02X-1034505Y1155102I0J-1201D01*
G03X-1033901Y1155112I298J267D01*
G37*
G36*
G01X-1090514Y1161312D02*
G02X-1091500Y1160798I-986J689D01*
G02Y1163202I0J1202D01*
G02X-1090433Y1162554I0J-1202D01*
G03X-1089751Y1162510I354J185D01*
G02X-1088765Y1163024I986J-689D01*
G02Y1160620I0J-1202D01*
G02X-1089832Y1161268I0J1202D01*
G03X-1090514Y1161312I-354J-185D01*
G37*
G36*
G01X-1043873Y1187320D02*
G02X-1044100Y1187298I-229J1180D01*
G02X-1042898Y1188500I0J1202D01*
G02X-1042902Y1188405I-1202J3D01*
G03X-1042427Y1187980I399J-32D01*
G02X-1042200Y1188002I229J-1180D01*
G02X-1043402Y1186800I0J-1202D01*
G02X-1043398Y1186895I1202J-3D01*
G03X-1043873Y1187320I-399J32D01*
G37*
G36*
G01X-1254086Y1189432D02*
G02X-1254902Y1190570I386J1138D01*
G02X-1252498I1202J0D01*
G02X-1252660Y1189968I-1202J1D01*
G03X-1252442Y1189388I346J-201D01*
G02X-1251626Y1188250I-386J-1138D01*
G02X-1254030I-1202J0D01*
G02X-1253868Y1188852I1202J-1D01*
G03X-1254086Y1189432I-346J201D01*
G37*
G36*
G01X-1218742Y1194426D02*
G02X-1218802Y1194800I1142J375D01*
G02X-1216398I1202J0D01*
G02X-1217444Y1193608I-1202J0D01*
G03X-1217773Y1193087I51J-397D01*
G02X-1217713Y1192713I-1142J-375D01*
G02X-1217843Y1192169I-1203J0D01*
G03X-1217469Y1191588I356J-182D01*
G02X-1217417Y1191589I49J-1201D01*
G02X-1217093Y1191545I2J-1202D01*
G03X-1216590Y1191872I108J385D01*
G02X-1215400Y1192902I1190J-172D01*
G02Y1190498I0J-1202D01*
G02X-1215724Y1190542I-2J1202D01*
G03X-1216227Y1190215I-108J-385D01*
G02X-1217417Y1189185I-1190J172D01*
G02X-1218619Y1190387I0J1202D01*
G02X-1218489Y1190931I1203J0D01*
G03X-1218863Y1191512I-356J182D01*
G02X-1218915Y1191511I-49J1201D01*
G02X-1220117Y1192713I0J1202D01*
G02X-1219071Y1193905I1202J0D01*
G03X-1218742Y1194426I-51J397D01*
G37*
G36*
G01X-1214886Y1201354D02*
G02X-1215900Y1200798I-1014J647D01*
G02Y1203202I0J1202D01*
G02X-1214949Y1202735I0J-1202D01*
G03X-1214295Y1202765I316J244D01*
G02X-1213281Y1203321I1014J-647D01*
G02Y1200917I0J-1202D01*
G02X-1214232Y1201384I0J1202D01*
G03X-1214886Y1201354I-316J-244D01*
G37*
G36*
G01X-1154227Y1210422D02*
G02X-1155379Y1211623I50J1201D01*
G02X-1152975I1202J0D01*
G02X-1153000Y1211377I-1202J-2D01*
G03X-1152625Y1210896I391J-82D01*
G02X-1151473Y1209695I-50J-1201D01*
G02X-1153877I-1202J0D01*
G02X-1153852Y1209941I1202J2D01*
G03X-1154227Y1210422I-391J82D01*
G37*
G36*
G01X-1185277Y1221084D02*
G02X-1185870Y1220928I-592J1046D01*
G02Y1223332I0J1202D01*
G02X-1184684Y1222328I0J-1202D01*
G03X-1184093Y1222046I394J66D01*
G02X-1183500Y1222202I592J-1046D01*
G02Y1219798I0J-1202D01*
G02X-1184686Y1220802I0J1202D01*
G03X-1185277Y1221084I-394J-66D01*
G37*
G36*
G01X-1243339Y1061939D02*
G02X-1243702Y1062800I840J861D01*
G02X-1243297Y1063700I1203J0D01*
G02X-1243602Y1064500I897J800D01*
G02X-1242400Y1065702I1202J0D01*
G02X-1241550Y1065350I0J-1202D01*
G02X-1240700Y1065702I850J-850D01*
G02X-1239498Y1064500I0J-1202D01*
G02X-1239903Y1063600I-1203J0D01*
G02X-1239598Y1062800I-897J-800D01*
G02X-1239838Y1062079I-1203J0D01*
G03X-1239824Y1061823I160J-120D01*
G02X-1239498Y1061000I-876J-823D01*
G02X-1240700Y1059798I-1202J0D01*
G02X-1241500Y1060103I0J1202D01*
G02X-1242400Y1059698I-900J798D01*
G02X-1243602Y1060900I0J1202D01*
G02X-1243325Y1061668I1203J0D01*
G03X-1243339Y1061939I-154J128D01*
G37*
G36*
G01X-1257942Y1019025D02*
G02X-1258002Y1019400I1142J375D01*
G02X-1256800Y1018198I1202J0D01*
G02X-1256859Y1018199I-9J1202D01*
G03X-1257258Y1017675I-19J-399D01*
G02X-1257198Y1017300I-1142J-375D01*
G02X-1258400Y1018502I-1202J0D01*
G02X-1258341Y1018501I9J-1202D01*
G03X-1257942Y1019025I19J399D01*
G37*
G36*
G01X-1210605Y1108060D02*
G02X-1211400Y1107668I-795J610D01*
G02Y1109672I0J1002D01*
G02X-1210625Y1109305I0J-1002D01*
G03X-1209998Y1109316I309J254D01*
G02X-1209203Y1109708I795J-610D01*
G02Y1107704I0J-1002D01*
G02X-1209978Y1108071I0J1002D01*
G03X-1210605Y1108060I-309J-254D01*
G37*
G36*
G01X-1218611Y1114125D02*
G02X-1219397Y1113744I-786J620D01*
G02Y1115748I0J1002D01*
G02X-1218611Y1115367I0J-1001D01*
G03X-1217983I314J248D01*
G02X-1217197Y1115748I786J-620D01*
G02Y1113744I0J-1002D01*
G02X-1217983Y1114125I0J1001D01*
G03X-1218611I-314J-248D01*
G37*
G36*
G01X-1209174Y1119020D02*
G02X-1209492Y1118968I-319J950D01*
G02Y1120972I0J1002D01*
G02X-1208524Y1120227I0J-1001D01*
G03X-1208010Y1119950I387J102D01*
G02X-1207692Y1120002I319J-950D01*
G02X-1206740Y1119312I0J-1002D01*
G03X-1206172Y1119084I380J125D01*
G02X-1205700Y1119202I472J-885D01*
G02Y1117198I0J-1002D01*
G02X-1206652Y1117888I0J1002D01*
G03X-1207220Y1118116I-380J-125D01*
G02X-1207692Y1117998I-472J885D01*
G02X-1208660Y1118743I0J1001D01*
G03X-1209174Y1119020I-387J-102D01*
G37*
G36*
G01X-1206839Y1122017D02*
G02X-1207588Y1121681I-749J667D01*
G02Y1123685I0J1002D01*
G02X-1206839Y1123349I0J-1003D01*
G03X-1206241I299J265D01*
G02X-1205492Y1123685I749J-667D01*
G02Y1121681I0J-1002D01*
G02X-1206241Y1122017I0J1003D01*
G03X-1206839I-299J-265D01*
G37*
G36*
G01X-1220107Y1123900D02*
G02X-1220486Y1124685I623J785D01*
G02X-1218482I1002J0D01*
G02X-1218799Y1123953I-1002J-1D01*
G03X-1218774Y1123348I273J-292D01*
G02X-1218646Y1123226I-625J-783D01*
G03X-1218019Y1123260I300J265D01*
G02X-1217200Y1123685I819J-577D01*
G02Y1121681I0J-1002D01*
G02X-1217951Y1122020I0J1001D01*
G03X-1218578Y1121986I-300J-265D01*
G02X-1219397Y1121561I-819J577D01*
G02X-1220399Y1122563I0J1002D01*
G02X-1220082Y1123295I1002J1D01*
G03X-1220107Y1123900I-273J292D01*
G37*
G36*
G01X-1197133Y1124070D02*
G02X-1197840Y1123779I-706J711D01*
G02Y1125783I0J1002D01*
G02X-1196970Y1125278I0J-1002D01*
G03X-1196341Y1125193I347J198D01*
G02X-1195634Y1125484I706J-711D01*
G02Y1123480I0J-1002D01*
G02X-1196504Y1123985I0J1002D01*
G03X-1197133Y1124070I-347J-198D01*
G37*
G36*
G01X-1216708Y1126158D02*
G02X-1217423Y1125858I-715J702D01*
G02Y1127862I0J1002D01*
G02X-1216573Y1127390I0J-1001D01*
G03X-1215948Y1127322I339J212D01*
G02X-1215233Y1127622I715J-702D01*
G02X-1214231Y1126620I0J-1002D01*
G02X-1214274Y1126330I-1002J0D01*
G03X-1213825Y1125820I383J-115D01*
G02X-1213659Y1125834I167J-988D01*
G02X-1214661Y1124832I0J-1002D01*
G02X-1214618Y1125122I1002J0D01*
G03X-1215067Y1125632I-383J115D01*
G02X-1215233Y1125618I-167J988D01*
G02X-1216083Y1126090I0J1001D01*
G03X-1216708Y1126158I-339J-212D01*
G37*
G36*
G01X-1202918Y1128123D02*
G02X-1203700Y1127748I-782J628D01*
G02Y1129752I0J1002D01*
G02X-1202838Y1129261I0J-1002D01*
G03X-1202182Y1129215I344J204D01*
G02X-1201400Y1129590I782J-628D01*
G02Y1127586I0J-1002D01*
G02X-1202262Y1128077I0J1002D01*
G03X-1202918Y1128123I-344J-204D01*
G37*
G36*
G01X-1211129Y1129436D02*
G02X-1211291Y1129423I-161J989D01*
G02X-1210289Y1130425I0J1002D01*
G02X-1210309Y1130227I-1002J1D01*
G03X-1209852Y1129754I392J-78D01*
G02X-1209690Y1129767I161J-989D01*
G02X-1210692Y1128765I0J-1002D01*
G02X-1210672Y1128963I1002J-1D01*
G03X-1211129Y1129436I-392J78D01*
G37*
G36*
G01X-1206943Y1130051D02*
G02X-1207692Y1129715I-749J667D01*
G02Y1131719I0J1002D01*
G02X-1206914Y1131349I0J-1003D01*
G03X-1206305Y1131336I310J252D01*
G02X-1205556Y1131672I749J-667D01*
G02Y1129668I0J-1002D01*
G02X-1206334Y1130038I0J1003D01*
G03X-1206943Y1130051I-310J-252D01*
G37*
G36*
G01X-1198808Y1135994D02*
G02X-1198852Y1136287I958J294D01*
G02X-1197850Y1135285I1002J0D01*
G02X-1198017Y1135299I0J1003D01*
G03X-1198466Y1134787I-67J-394D01*
G02X-1198422Y1134494I-958J-294D01*
G02X-1199424Y1135496I-1002J0D01*
G02X-1199257Y1135482I0J-1003D01*
G03X-1198808Y1135994I67J394D01*
G37*
G36*
G01X-1200307Y1143764D02*
G02X-1200652Y1144520I656J756D01*
G02X-1198648I1002J0D01*
G02X-1199114Y1143673I-1003J0D01*
G03X-1199163Y1143033I214J-338D01*
G02X-1198818Y1142277I-656J-756D01*
G02X-1200822I-1002J0D01*
G02X-1200356Y1143124I1003J0D01*
G03X-1200307Y1143764I-214J338D01*
G37*
G36*
G01X-1172664Y1184602D02*
G02X-1173141Y1185561I726J959D01*
G02X-1170737I1202J0D01*
G02X-1171485Y1184448I-1202J0D01*
G03X-1171575Y1183759I151J-370D01*
G02X-1171098Y1182800I-726J-959D01*
G02X-1173502I-1202J0D01*
G02X-1172754Y1183913I1202J0D01*
G03X-1172664Y1184602I-151J370D01*
G37*
G36*
G01X-1142983Y1036796D02*
G02X-1142705Y1036027I-925J-769D01*
G02X-1145109I-1202J0D01*
G02X-1144776Y1036858I1203J0D01*
G02X-1145054Y1037627I925J769D01*
G02X-1142650I1202J0D01*
G02X-1142983Y1036796I-1203J0D01*
G37*
G36*
G01X-1123719Y932280D02*
G03X-1124001I-141J-141D01*
G02X-1128860Y930267I-4858J4856D01*
G02Y944005I0J6869D01*
G02X-1124001Y941992I1J-6869D01*
G03X-1123719I141J141D01*
G02X-1118860Y944005I4858J-4856D01*
G02Y930267I0J-6869D01*
G02X-1123719Y932280I-1J6869D01*
G37*
G36*
G01X-1081515D02*
G03X-1081797I-141J-141D01*
G02X-1086656Y930267I-4858J4856D01*
G02Y944005I0J6869D01*
G02X-1081797Y941992I1J-6869D01*
G03X-1081515I141J141D01*
G02X-1076656Y944005I4858J-4856D01*
G02Y930267I0J-6869D01*
G02X-1081515Y932280I-1J6869D01*
G37*
G36*
G01X-1061036Y1080442D02*
G02X-1061600Y1080302I-563J1062D01*
G02Y1082706I0J1202D01*
G02X-1060438Y1081812I0J-1202D01*
G03X-1059864Y1081562I386J103D01*
G02X-1059300Y1081702I563J-1062D01*
G02Y1079298I0J-1202D01*
G02X-1060462Y1080192I0J1202D01*
G03X-1061036Y1080442I-386J-103D01*
G37*
G54D44*
X-1215433Y1144302D03*
X-1217366Y1142535D03*
X-1231200Y1147000D03*
X-1215470Y1140400D03*
X-1230200Y1122370D03*
X-1231705Y1128080D03*
X-1235465Y1119935D03*
X-1232360Y1106043D03*
X-1235263D03*
X-1231200Y1099170D03*
X-1234960Y1098300D03*
X-1200106Y1098021D03*
X-1201618Y1101318D03*
X-1197100Y1099900D03*
X-1176028Y1101742D03*
X-1173200Y1102500D03*
X-1170000Y1099700D03*
X-1170300Y1102970D03*
X-1203599Y1108763D03*
X-1197363Y1106670D03*
X-1195880Y1109070D03*
X-1189980Y1114650D03*
X-1188100Y1112840D03*
X-1193744Y1107095D03*
X-1179965Y1109235D03*
X-1183584Y1108904D03*
X-1185870Y1114961D03*
X-1181934Y1111025D03*
X-1187839Y1122683D03*
X-1181800Y1122770D03*
X-1185300Y1118490D03*
X-1180000Y1120500D03*
X-1185840Y1128428D03*
X-1186200Y1120870D03*
X-1179700Y1124900D03*
X-1179894Y1128868D03*
X-1183400Y1120714D03*
X-1187669Y1136296D03*
X-1189938Y1138523D03*
X-1180026Y1132526D03*
X-1181934Y1130366D03*
X-1185710Y1138296D03*
X-1173700Y1136462D03*
X-1170400Y1134800D03*
X-1187300Y1145400D03*
X-1181934Y1146200D03*
X-1174638Y1150242D03*
X-1183936Y1144600D03*
X-1185797Y1142049D03*
X-1181934Y1142686D03*
X-1179965Y1144210D03*
X-1174800Y1153370D03*
X-1171900D03*
X-1215350Y1097120D03*
X-1215300Y1100370D03*
X-1209784D03*
X-1211600Y1116770D03*
X-1211349Y1112840D03*
X-1217014Y1106597D03*
X-1215300Y1109100D03*
X-1213430Y1114971D03*
X-1215398Y1113003D03*
X-1217472Y1110872D03*
X-1219196Y1108904D03*
X-1201100Y1116850D03*
X-1219510Y1128760D03*
X-1213263Y1128758D03*
X-1215700Y1117970D03*
X-1213500Y1121370D03*
X-1211400Y1122950D03*
X-1211461Y1126862D03*
X-1201450Y1120641D03*
X-1205492Y1126620D03*
X-1199818Y1122683D03*
X-1195634Y1128588D03*
X-1193910Y1126791D03*
X-1217196Y1130657D03*
X-1201450Y1132526D03*
X-1197516Y1140230D03*
X-1195634Y1132688D03*
X-1197682Y1146270D03*
X-1209741Y1138370D03*
X-1209100Y1151670D03*
G54D42*
X-1125258Y988120D03*
G54D38*
X-992800Y943600D03*
X-988776Y945524D03*
X-988914Y948786D03*
X-994550Y951950D03*
X-994600Y955114D03*
X-994578Y958278D03*
X-989000Y958200D03*
X-994758Y961442D03*
X-1145800Y978900D03*
Y982700D03*
Y974800D03*
X-1062968Y982768D03*
X-1145900Y986600D03*
X-1148400Y991200D03*
X-1146000Y992900D03*
X-1055700Y992100D03*
X-1004100Y1004100D03*
X-1004200Y1007300D03*
X-1148000Y1017600D03*
X-1143918Y1016018D03*
X-1122100Y1016000D03*
X-1115400Y1015200D03*
X-1107800Y1016600D03*
X-1115200Y1018200D03*
X-1092097Y1014328D03*
X-1098003D03*
X-1100903D03*
X-1094997D03*
X-1086903D03*
X-1084003D03*
X-1080997D03*
X-1074600Y1013900D03*
X-1073100Y1011400D03*
X-1078097Y1014328D03*
X-1047299Y1008333D03*
X-1043633D03*
X-1002142Y1017300D03*
X-1156000Y1019900D03*
X-1098694Y1028592D03*
X-1069100Y1021900D03*
X-1076200Y1025800D03*
X-1057600Y1023900D03*
X-1005700Y1030500D03*
X-1191115Y1183470D03*
X-1188215D03*
X-1206000Y1182100D03*
X-1206645Y1177270D03*
X-1209535D03*
X-1198480Y1182080D03*
X-1239000Y1178490D03*
X-1233100Y1168300D03*
X-1234600Y1171800D03*
X-1236800Y1167270D03*
X-1239200Y1165670D03*
X-1247900Y1168470D03*
X-1252100Y1168400D03*
X-1255051Y1165570D03*
X-1258563Y1165702D03*
X-1269500Y1167370D03*
X-1273100D03*
X-1185200Y1161270D03*
X-1231900Y1164270D03*
X-1235200Y1164200D03*
X-1271300Y1163700D03*
X-1273200Y1158801D03*
X-1236663Y1148605D03*
X-1239135Y1143165D03*
X-1242500Y1141400D03*
X-1243200Y1147000D03*
X-1239566Y1148605D03*
X-1248700Y1148600D03*
X-1255177Y1141569D03*
X-1254945Y1144925D03*
X-1260880Y1145300D03*
X-1261306Y1141505D03*
X-1274322Y1144239D03*
X-1289500Y1152800D03*
X-1283310Y1144239D03*
X-1252700Y1134839D03*
X-1255600Y1134900D03*
X-1261661Y1138340D03*
X-1280126Y1138368D03*
X-1272800Y1137200D03*
X-1278395Y1141042D03*
X-1274322Y1134789D03*
Y1141089D03*
X-1283310D03*
X-1283500Y1134700D03*
X-1254591Y1117715D03*
X-1253385Y1124713D03*
X-1258330Y1122431D03*
X-1259600Y1127700D03*
X-1277010Y1119039D03*
X-1277472Y1122189D03*
X-1280321Y1119684D03*
X-1277472Y1128489D03*
X-1284209Y1129000D03*
X-1284000Y1118400D03*
X-1283801Y1123499D03*
X-1249400Y1110100D03*
X-1254800Y1111800D03*
X-1265000Y1110100D03*
X-1261260Y1113201D03*
X-1264600Y1106964D03*
X-1264100Y1113600D03*
X-1258110Y1106901D03*
X-1261260Y1110051D03*
X-1277010D03*
X-1270400Y1109600D03*
X-1277010Y1113201D03*
X-1274000Y1110000D03*
X-1280160Y1113201D03*
X-1280100Y1109800D03*
X-1283310Y1110051D03*
X-1291620Y1114100D03*
X-1294510D03*
X-1237800Y1104800D03*
X-1253030Y1097730D03*
X-1261260Y1100601D03*
X-1268299Y1103351D03*
X-1268500Y1094300D03*
X-1264410Y1103751D03*
X-1261260D03*
X-1258110Y1097451D03*
X-1277010D03*
Y1094301D03*
X-1280160Y1097451D03*
Y1094301D03*
X-1277010Y1103751D03*
X-1280160D03*
X-1283310Y1100601D03*
Y1097451D03*
Y1103751D03*
Y1094301D03*
X-1266600Y1092000D03*
X-1243000Y1075070D03*
X-1251600Y1073300D03*
X-1277100Y1071400D03*
X-1267800Y1068400D03*
X-1269600Y1059000D03*
X-1264914Y1058986D03*
X-1262400Y1069400D03*
X-1278100Y1068500D03*
X-1279800Y1059100D03*
X-1285000Y1058600D03*
X-1276000Y1057100D03*
X-1289900Y1051600D03*
X-1280400Y1044000D03*
X-1288000Y1045100D03*
X-1287500Y1039800D03*
X-1284600Y1042500D03*
X-1294786Y1041386D03*
X-1294644Y1037756D03*
X-1294686Y1045086D03*
X-1294744Y1034056D03*
X-1276300Y1033000D03*
Y1030110D03*
X-1267900Y1005400D03*
X-1287500Y1134100D03*
X-1288300Y1141500D03*
X-1193700Y1016700D03*
X-1277600Y953200D03*
X-1272297Y960497D03*
X-1269100Y953400D03*
X-1263200Y960400D03*
X-1246850Y956250D03*
X-1239100Y956700D03*
X-1278386Y962714D03*
X-1271200Y972500D03*
X-1257959Y965100D03*
X-1266386Y962500D03*
X-1260500Y967500D03*
X-1263400Y969400D03*
X-1254022Y966122D03*
X-1250085Y963585D03*
X-1254934Y973101D03*
X-1250600Y972900D03*
X-1245800Y972500D03*
X-1238366Y968766D03*
X-1243000Y963500D03*
X-1228600Y971534D03*
X-1211700Y965600D03*
X-1271300Y976600D03*
X-1271400Y980400D03*
X-1270800Y986000D03*
X-1262400Y985500D03*
X-1254466Y980650D03*
X-1251316Y981100D03*
X-1251200Y976600D03*
X-1255500Y976900D03*
X-1246100Y976500D03*
X-1245416Y980900D03*
X-1228200Y975200D03*
X-1224700Y975600D03*
X-1209100Y983800D03*
X-1204300Y984700D03*
X-1267500Y988300D03*
X-1212100Y991100D03*
X-1204300Y988400D03*
X-1209300Y993200D03*
X-1203900Y1006700D03*
X-1211400Y1031000D03*
X-1208500Y1031600D03*
X-1188900Y1027000D03*
X-1213700Y1035800D03*
X-1210500Y1036200D03*
X-1211200Y1043700D03*
X-1218686Y1044014D03*
X-1208100Y1043700D03*
X-1182600Y1034600D03*
X-1161700Y1043700D03*
X-1111025Y1042610D03*
X-1103100Y1037886D03*
X-1108245Y1044578D03*
X-1098600Y1036000D03*
X-1066600Y1045500D03*
Y1041200D03*
X-1057700Y1036500D03*
X-1051100Y1043200D03*
X-1033200Y1039500D03*
X-1013500Y1040600D03*
X-1170800Y1049200D03*
X-1171700Y1046200D03*
X-1159800Y1049900D03*
X-1106709Y1049691D03*
X-1111025Y1046518D03*
X-1103210Y1054890D03*
X-1099890Y1053310D03*
X-1079130Y1051200D03*
X-1068135Y1054765D03*
X-1060723Y1051123D03*
X-1056000Y1047000D03*
X-1058300Y1049040D03*
X-1060300Y1057400D03*
X-1051600Y1052900D03*
X-1036300Y1051900D03*
X-1031300Y1047400D03*
X-1021300Y1049200D03*
X-1030000Y1056600D03*
X-1026316Y1052298D03*
X-1016316Y1050908D03*
X-1005900Y1049410D03*
X-1003800Y1053300D03*
X-1003900Y1056800D03*
X-1171551Y1060249D03*
X-1164684Y1066900D03*
X-1126700Y1064095D03*
X-1118800Y1064100D03*
X-1110564Y1063830D03*
X-1105228Y1063500D03*
X-1082700Y1059000D03*
X-1065100Y1059700D03*
X-1045700Y1060300D03*
X-1039600Y1064400D03*
X-1037400Y1066400D03*
X-1033100Y1062500D03*
X-1024400Y1059800D03*
X-1021700Y1061200D03*
X-1019200Y1069500D03*
X-1022800Y1067300D03*
X-1027300Y1065400D03*
X-1023700Y1064300D03*
X-1030700Y1064100D03*
X-1018700Y1066200D03*
X-1111400Y1071500D03*
X-1039800Y1076700D03*
Y1073400D03*
X-1036800Y1072100D03*
X-1037100Y1075200D03*
X-1037600Y1078500D03*
X-1034700Y1078200D03*
X-1024600Y1070300D03*
X-1021600Y1073300D03*
X-1030500Y1074200D03*
X-1031000Y1077300D03*
X-1018400Y1073500D03*
X-1018500Y1076800D03*
X-1017400Y1080200D03*
X-1014100Y1078800D03*
X-1010400Y1078500D03*
Y1081400D03*
X-1016000Y1069900D03*
X-1005400Y1075500D03*
X-1006300Y1078300D03*
X-1002900Y1078400D03*
X-1006300Y1081200D03*
X-1002900Y1081300D03*
X-1005900Y1072600D03*
X-1048100Y1089800D03*
X-1048000Y1085500D03*
X-1021552Y1091182D03*
X-1026800Y1092100D03*
X-1016600Y1083500D03*
X-1014100Y1081700D03*
X-1010300Y1084600D03*
X-1014000Y1084900D03*
X-1006200Y1084400D03*
X-1002800Y1084500D03*
X-1002900Y1087600D03*
X-1003100Y1090400D03*
X-1006800Y1093200D03*
X-1060208Y1105204D03*
X-1016400Y1099700D03*
X-1016700Y1103000D03*
X-1007700Y1096100D03*
X-1011400Y1096200D03*
X-1008900Y1098900D03*
X-1013300Y1099800D03*
X-1038400Y1111700D03*
X-1037700Y1114800D03*
X-1022800Y1113500D03*
X-1016800Y1108400D03*
X-1011000Y1115600D03*
X-1006800Y1114800D03*
X-1001600Y1114500D03*
X-1039500Y1123900D03*
X-1025106Y1122417D03*
X-1021500Y1119400D03*
X-1005600Y1119600D03*
X-1006864Y1124236D03*
X-1022800Y1130200D03*
Y1134200D03*
X-1026800Y1130200D03*
X-1018800Y1138200D03*
Y1134200D03*
Y1130200D03*
X-1004556Y1138309D03*
X-1001900Y1136800D03*
Y1133600D03*
X-1005664Y1133936D03*
X-1007400Y1147500D03*
X-1018800Y1146200D03*
Y1142200D03*
X-1005900Y1150200D03*
X-1018638Y1163000D03*
X-1017232Y1154000D03*
X-1009800Y1157500D03*
X-1017600Y1156800D03*
X-1010800Y1153800D03*
X-1017800Y1169100D03*
X-1013300Y1169000D03*
X-1010900Y1172500D03*
X-1018100Y1172400D03*
X-1007000Y1169100D03*
X-1016000Y1178200D03*
X-1016900Y1182600D03*
X-1016000Y1199000D03*
X-1011200Y1193500D03*
X-1015200Y1212200D03*
X-1014600Y1207700D03*
X-1013500Y1202800D03*
X-1261800Y1224000D03*
X-1254500Y1222100D03*
Y1219000D03*
X-1251200Y1224800D03*
X-1239500Y1224700D03*
X-1023000Y1223700D03*
X-1015900Y1219500D03*
X-1011500Y1218400D03*
X-1262200Y1227000D03*
X-1264800Y1228500D03*
X-1267200Y1227000D03*
X-1261500Y1231400D03*
X-1264300Y1232100D03*
X-1267200Y1231400D03*
X-1248000Y1227000D03*
X-1248600Y1232000D03*
X-1257700D03*
X-1255000Y1231200D03*
X-1252000Y1232000D03*
X-1256900Y1225500D03*
X-1243000Y1227000D03*
X-1239400Y1229700D03*
X-1242700Y1231300D03*
X-1245500Y1232000D03*
X-1234000Y1230900D03*
X-1236900Y1232100D03*
X-1234700Y1226500D03*
X-1231300Y1231700D03*
X-1222200Y1231200D03*
X-1225000Y1232000D03*
X-1227700Y1230800D03*
X-1227500Y1227000D03*
X-1230600Y1228600D03*
X-1222500Y1227000D03*
X-1216000D03*
X-1219200Y1226400D03*
X-1212600Y1232100D03*
X-1215800Y1230900D03*
X-1218500Y1232000D03*
X-1023100Y1229100D03*
X-1018300Y1229300D03*
X-1014300D03*
X-1212400Y1054400D03*
X-1215800Y1054500D03*
X-1208500Y1054100D03*
X-1192686Y1056314D03*
X-1223400Y1060300D03*
X-1212600Y1063300D03*
X-1219300Y1060200D03*
X-1211200Y1058000D03*
X-1198800Y1063904D03*
X-1195000Y1068500D03*
X-1177000Y1069590D03*
X-1185797Y1059594D03*
X-1204400Y1071200D03*
X-1200800Y1070100D03*
X-1196500Y1078700D03*
X-1196400Y1075500D03*
X-1172757Y1071343D03*
X-1160000Y1081500D03*
X-1203591Y1091179D03*
X-1201850Y1084450D03*
X-1199800Y1082500D03*
X-1196500Y1083600D03*
X-1182200Y1084400D03*
X-1179400Y1085700D03*
X-1179386Y1082000D03*
X-1182500Y1088900D03*
X-1168700Y1087600D03*
X-1152500Y1090000D03*
X-1147200Y1090200D03*
X-1135100Y1086000D03*
X-1108196Y1084654D03*
X-1088700Y1083600D03*
X-1196060Y1094400D03*
X-1193140Y1094693D03*
X-1175500Y1095400D03*
X-1185300Y1094600D03*
X-1172500Y1093700D03*
X-1167000Y1099700D03*
X-1165800Y1105100D03*
X-1159779Y1093700D03*
X-1151100Y1097600D03*
X-1152300Y1094400D03*
X-1155350Y1096500D03*
X-1107100Y1097000D03*
X-1114500Y1102200D03*
X-1110700D03*
X-1093600Y1099200D03*
X-1088600D03*
X-1081300D03*
X-1088600Y1102300D03*
X-1166850Y1109120D03*
X-1139215Y1111615D03*
X-1149800Y1115486D03*
X-1139194D03*
X-1149800Y1111636D03*
X-1120450Y1115486D03*
Y1111636D03*
X-1111010Y1107420D03*
X-1107300Y1115920D03*
X-1088796Y1108604D03*
X-1080200Y1107100D03*
X-1070200Y1117400D03*
X-1076400Y1107500D03*
X-1155040Y1124664D03*
Y1128530D03*
X-1149800D03*
X-1139200D03*
X-1139194Y1118526D03*
X-1139200Y1121626D03*
X-1149826D03*
X-1149800Y1124664D03*
X-1139200D03*
X-1149826Y1118526D03*
X-1114844Y1128710D03*
X-1120350Y1121626D03*
X-1120450Y1118526D03*
X-1108530Y1120100D03*
X-1082500Y1124200D03*
X-1082200Y1120100D03*
X-1089700Y1126200D03*
X-1070100Y1126700D03*
X-1162500Y1130700D03*
X-1155040Y1134630D03*
X-1149800Y1131630D03*
X-1139200Y1131530D03*
X-1149800Y1134630D03*
X-1140496Y1134610D03*
X-1144446Y1131530D03*
Y1134610D03*
X-1119170Y1131530D03*
X-1105700Y1130400D03*
Y1133300D03*
X-1109800Y1135950D03*
X-1114190Y1136765D03*
X-1096300Y1132200D03*
X-1093500Y1131300D03*
X-1081348Y1138080D03*
Y1135180D03*
X-1076295Y1138080D03*
X-1030800Y1138200D03*
X-1138430Y1146300D03*
X-1105600Y1146200D03*
X-1105700Y1142200D03*
X-1113000Y1151290D03*
X-1095992Y1142293D03*
X-1094600Y1151400D03*
X-1068000Y1147000D03*
Y1150800D03*
X-1064300Y1150900D03*
X-1040195Y1149005D03*
X-1037600Y1151300D03*
X-1030922Y1146278D03*
X-1026800Y1146200D03*
Y1142200D03*
X-1030800D03*
X-1171900Y1162370D03*
X-1172500Y1156370D03*
X-1156300Y1164000D03*
X-1142390Y1154100D03*
X-1085600Y1163400D03*
X-1068200Y1154600D03*
X-1042200Y1154400D03*
X-1284800Y1175100D03*
X-1280800Y1175000D03*
X-1258852Y1176621D03*
X-1253800Y1176970D03*
X-1066400Y1172000D03*
X-1062000Y1169600D03*
X-1056800Y1173900D03*
X-1052000Y1169400D03*
X-1052420Y1172680D03*
X-1028300Y1170200D03*
X-1024200Y1174400D03*
X-1270000Y1186636D03*
X-1280400Y1180900D03*
X-1275700D03*
X-1269795Y1182695D03*
X-1275100Y1185500D03*
X-1260134Y1179904D03*
Y1183836D03*
X-1260320Y1188650D03*
X-1269400Y1179000D03*
X-1257366Y1180404D03*
X-1250288Y1186682D03*
X-1247300Y1186770D03*
X-1252091Y1183856D03*
X-1256100Y1185270D03*
X-1092959Y1187473D03*
X-1088698Y1183500D03*
X-1071900Y1179200D03*
X-1069100Y1177800D03*
X-1077548Y1189000D03*
X-1049800Y1186500D03*
X-1052400Y1188300D03*
X-1044152Y1180252D03*
X-1047300Y1179900D03*
X-1034200Y1188400D03*
X-1036600Y1180400D03*
X-1030800Y1186200D03*
X-1030400Y1179600D03*
X-1029000Y1188900D03*
X-1268671Y1194199D03*
X-1257800Y1190870D03*
X-1255700Y1198000D03*
X-1248200Y1190456D03*
X-1100800Y1199500D03*
Y1196500D03*
X-1087700Y1191500D03*
X-1076014Y1191584D03*
X-1067100Y1192400D03*
X-1058100Y1196900D03*
X-1066800Y1197600D03*
X-1045430Y1195954D03*
X-1053700Y1196600D03*
X-1039600Y1197590D03*
X-1040018Y1191843D03*
X-1031500Y1190600D03*
X-1029200Y1193200D03*
X-1212820Y1210680D03*
X-1203800Y1211000D03*
X-1205700Y1208900D03*
X-1206300Y1202300D03*
X-1200900Y1211100D03*
X-1196800Y1201700D03*
X-1180500Y1212000D03*
X-1184155Y1207500D03*
X-1171894Y1211494D03*
X-1156052Y1209096D03*
X-1147600Y1207900D03*
X-1138800Y1210000D03*
X-1142800Y1209700D03*
X-1149775Y1209695D03*
X-1134400Y1208200D03*
X-1120852Y1210096D03*
X-1126552Y1209096D03*
X-1119793Y1207393D03*
X-1114452Y1210196D03*
X-1106952D03*
X-1098452Y1209996D03*
X-1090800Y1210100D03*
X-1077600Y1212600D03*
X-1077630Y1208830D03*
X-1077700Y1201700D03*
X-1067000Y1209500D03*
X-1066600Y1201900D03*
X-1049786Y1204486D03*
X-1038800Y1206100D03*
X-1039000Y1202800D03*
X-1028619Y1211800D03*
X-1204055Y1221745D03*
X-1206400Y1219600D03*
X-1188600Y1219100D03*
X-1190700Y1217100D03*
X-1181000Y1215900D03*
X-1139400Y1221100D03*
X-1134900Y1214600D03*
X-1134200Y1217700D03*
X-1130300Y1220300D03*
X-1126700Y1220500D03*
X-1116200Y1220400D03*
X-1120752Y1213496D03*
X-1106952Y1221996D03*
X-1107152Y1215096D03*
X-1114152Y1214996D03*
X-1098352Y1222296D03*
Y1215196D03*
X-1090800Y1216300D03*
X-1083851Y1224302D03*
X-1090700Y1222800D03*
X-1069700Y1218900D03*
X-1070200Y1222600D03*
X-1064400Y1223100D03*
X-1060200D03*
X-1056100D03*
X-1056400Y1218800D03*
X-1055760Y1215596D03*
X-1061852Y1218896D03*
X-1060852Y1215596D03*
X-1051600Y1218600D03*
X-1052000Y1215700D03*
X-1031400Y1222300D03*
X-1033000Y1217000D03*
X-1028500Y1220300D03*
X-1233090Y991500D03*
Y996500D03*
X-1228800Y997800D03*
X-1257700Y1007100D03*
X-1254500Y1007000D03*
X-1258900Y1023800D03*
X-1253700Y1029300D03*
X-1249500Y1032400D03*
X-1230400Y1072800D03*
X-1215000Y1080100D03*
X-1223200Y1090100D03*
X-1218700Y1089400D03*
X-1211100Y1087800D03*
X-1209600Y1094300D03*
X-1210300Y1158600D03*
X-1172000Y1180000D03*
X-1171700Y1188800D03*
X-1172039Y1191961D03*
X-1171939Y1195161D03*
X-1151297Y1026882D03*
X-1133023Y1028520D03*
X-1127823Y1028120D03*
Y1032420D03*
X-1133023Y1032020D03*
X-1137723Y1028620D03*
Y1032120D03*
X-1122723Y1032520D03*
X-1122823Y1028320D03*
X-1117538Y1026862D03*
X-1129423Y1043820D03*
X-1127800Y1036300D03*
X-1133000D03*
X-1137000Y1035800D03*
X-1125423Y1043920D03*
X-1122700Y1036400D03*
X-1116364Y1034736D03*
X-1059550Y1089150D03*
X-1060400Y1084300D03*
G54D45*
X-1259900Y1064400D03*
X-1041316Y1050456D03*
G54D49*
X-1212844Y961600D03*
G54D37*
X-1242508Y941176D03*
G54D47*
X-1289900Y1068396D03*
X-1011316Y1046460D03*
G54D41*
X-1120258Y978120D03*
X-1110258D03*
X-1090258D03*
X-1100258D03*
X-1080258D03*
X-1043342D03*
X-1033342D03*
X-1115258Y988120D03*
X-1105258D03*
X-1095258D03*
X-1085258D03*
X-1038342D03*
X-1028342D03*
G54D43*
X-993400Y999069D03*
Y1016391D03*
Y1041669D03*
Y1058991D03*
Y1170539D03*
Y1187861D03*
G54D35*
X-1285878Y943669D03*
X-1263122D03*
G54D46*
X-1289900Y1060404D03*
X-1011316Y1054452D03*
G54D39*
X-1167632Y960491D03*
X-1171570Y953672D03*
Y967314D03*
X-1167632Y974133D03*
Y987774D03*
G54D36*
X-1177475Y996081D03*
G54D48*
X-1272383Y1020061D03*
G54D40*
X-1167632Y955944D03*
X-1171570Y958219D03*
X-1167632Y951396D03*
X-1171570Y971861D03*
X-1167632Y969585D03*
Y965038D03*
X-1171570Y962766D03*
X-1167632Y983227D03*
X-1171570Y980955D03*
X-1167632Y978680D03*
X-1171570Y976408D03*
X-1167632Y992322D03*
X-1171570Y990050D03*
Y985503D03*
G54D51*
X-1080258Y953120D03*
G54D50*
X-1125258D03*
%LPD*%
G75*
G54D10*
X-1296000Y933000D03*
Y945000D03*
X-1296400Y939700D03*
X-1296000Y957000D03*
X-1296200Y951500D03*
X-1296000Y969000D03*
X-1295966Y1097536D03*
X-1295286Y1104956D03*
X-1295000Y1112000D03*
X-1295800Y1115700D03*
X-1296000Y1121000D03*
Y1133000D03*
Y1127600D03*
Y1145000D03*
X-1296300Y1139000D03*
X-1295900Y1158800D03*
X-1296100Y1150900D03*
X-1285500Y925500D03*
X-1283000Y940900D03*
X-1282900Y956500D03*
Y959600D03*
X-1290200Y959400D03*
X-1290000Y957000D03*
X-1289600Y953500D03*
X-1282900Y962800D03*
X-1289950Y961700D03*
X-1289300Y964600D03*
X-1288500Y1002600D03*
X-1288000Y1048756D03*
X-1284900Y1070200D03*
X-1294254Y1085754D03*
X-1291200Y1081800D03*
X-1287500Y1095500D03*
X-1283310Y1113201D03*
Y1106901D03*
X-1291220Y1112000D03*
X-1284072Y1120889D03*
X-1283500Y1131700D03*
X-1283310Y1137939D03*
X-1288300Y1137700D03*
X-1288200Y1131400D03*
X-1291100Y1150000D03*
X-1285900Y1144700D03*
X-1293600Y1155600D03*
X-1287500Y1166571D03*
X-1278500Y925500D03*
X-1271500D03*
X-1274500Y940700D03*
Y942800D03*
X-1278800Y940700D03*
X-1281100Y959600D03*
X-1281200Y956500D03*
X-1281100Y962800D03*
X-1278900Y969300D03*
X-1271121Y988179D03*
X-1280600Y990200D03*
X-1278139Y1020061D03*
X-1274200Y1029900D03*
X-1277600Y1028100D03*
X-1274200Y1033200D03*
X-1276500Y1035300D03*
X-1274900Y1070000D03*
X-1271200Y1080900D03*
X-1275600Y1084600D03*
X-1280000Y1100300D03*
X-1274343Y1112759D03*
X-1280587Y1122293D03*
X-1277472Y1131639D03*
X-1280500Y1135000D03*
X-1280700Y1146500D03*
X-1277472Y1144239D03*
X-1281980Y1158900D03*
X-1271553Y1168639D03*
X-1271730Y1228270D03*
X-1263500Y925500D03*
X-1265800Y940600D03*
X-1270100Y940700D03*
X-1265051Y951651D03*
X-1265100Y953500D03*
X-1262000Y1013300D03*
X-1263400Y1018400D03*
X-1263700Y1023200D03*
X-1262400Y1031600D03*
X-1263900Y1035400D03*
X-1264400Y1033100D03*
X-1269586Y1050110D03*
X-1264766Y1074900D03*
X-1266500Y1077400D03*
X-1266400Y1145000D03*
X-1268300Y1157900D03*
X-1262300D03*
X-1267100Y1167742D03*
X-1260276Y1167907D03*
X-1269156Y1190356D03*
X-1260602Y1191270D03*
X-1265700Y1200200D03*
X-1262766Y1198770D03*
X-1252500Y925500D03*
X-1252053Y965300D03*
X-1248116Y989200D03*
X-1255990Y988990D03*
X-1251500Y1077100D03*
X-1258400D03*
X-1258110Y1094301D03*
Y1103751D03*
X-1258300Y1113400D03*
X-1254700Y1114000D03*
X-1254500Y1120800D03*
X-1258400Y1134789D03*
X-1257074Y1127805D03*
X-1249400Y1127800D03*
X-1258130Y1141531D03*
X-1257955Y1144856D03*
X-1255800Y1157900D03*
X-1249600D03*
X-1254639Y1168590D03*
X-1249900Y1168500D03*
X-1256572Y1176270D03*
X-1258633Y1198670D03*
X-1240500Y925500D03*
X-1237200Y977100D03*
X-1239000Y977000D03*
X-1238200Y1078600D03*
X-1238900Y1091900D03*
X-1242900D03*
X-1241000D03*
X-1235100Y1103570D03*
X-1242133Y1117609D03*
X-1238000Y1129100D03*
X-1243200Y1127500D03*
X-1242100Y1149200D03*
X-1244700Y1157700D03*
X-1237000Y1171500D03*
X-1245700Y1169400D03*
X-1238900Y1171700D03*
X-1237700Y1180200D03*
X-1228500Y925500D03*
X-1223600Y989800D03*
Y987900D03*
X-1223700Y993700D03*
X-1223600Y991700D03*
X-1230600Y1010900D03*
Y1012700D03*
X-1228800Y1010900D03*
Y1012700D03*
X-1227100Y1010900D03*
Y1012700D03*
X-1230600Y1009100D03*
X-1228800D03*
X-1227100D03*
X-1224200Y1031700D03*
Y1033600D03*
X-1224100Y1035300D03*
X-1228186Y1049686D03*
X-1226414D03*
X-1227349Y1142151D03*
X-1223800Y1151770D03*
X-1233400Y1162600D03*
X-1216500Y925500D03*
X-1221700Y946300D03*
Y940300D03*
X-1215700Y946300D03*
Y940300D03*
X-1221800Y989800D03*
X-1220000D03*
Y987900D03*
X-1221700D03*
X-1219900Y991700D03*
X-1219800Y993900D03*
X-1221900D03*
X-1221800Y991800D03*
X-1222500Y1031800D03*
Y1033600D03*
X-1222400Y1035300D03*
X-1218714Y1050000D03*
X-1222200Y1078200D03*
X-1219500Y1075900D03*
X-1220700Y1072700D03*
X-1222800D03*
X-1218900Y1080900D03*
X-1222900Y1162120D03*
X-1213271Y1194229D03*
X-1214900Y1194500D03*
X-1213315Y1207515D03*
X-1204500Y925500D03*
X-1199400Y930600D03*
X-1209700Y946300D03*
Y940300D03*
X-1199600Y936300D03*
X-1203200Y943200D03*
X-1204400Y995934D03*
X-1204100Y997534D03*
X-1199548Y1078652D03*
X-1200200Y1075800D03*
X-1199700Y1073000D03*
X-1201914Y1087290D03*
X-1201779Y1112766D03*
X-1205000Y1113070D03*
X-1203900Y1120700D03*
X-1203500Y1124500D03*
X-1209492Y1114978D03*
X-1207700Y1126670D03*
X-1203701Y1132526D03*
X-1205492Y1134663D03*
X-1210050Y1165170D03*
X-1200200Y1180600D03*
X-1206200Y1180000D03*
X-1208600Y1228800D03*
X-1197500Y926500D03*
X-1193000Y925400D03*
Y928700D03*
X-1188400Y925300D03*
Y928800D03*
X-1188200Y933000D03*
X-1193000Y933200D03*
X-1195400Y938200D03*
X-1193000Y944500D03*
X-1193200Y949200D03*
X-1197700Y1072900D03*
X-1193910Y1122683D03*
X-1197600Y1120350D03*
X-1187973Y1116911D03*
X-1197900Y1128400D03*
X-1191710Y1126711D03*
X-1193910Y1134494D03*
X-1187679Y1126711D03*
X-1191400Y1134270D03*
X-1193900Y1140170D03*
X-1187923Y1140231D03*
X-1193844Y1152070D03*
X-1197787Y1174570D03*
X-1196600Y1175800D03*
X-1192300Y1185400D03*
X-1182300Y933000D03*
X-1182500Y928800D03*
Y925300D03*
X-1176100Y932800D03*
X-1176300Y928600D03*
Y925100D03*
X-1179600Y1020600D03*
X-1185940Y1134559D03*
X-1181314Y1162364D03*
X-1182300Y1184200D03*
X-1187200Y1185600D03*
X-1184800Y1194600D03*
X-1183400D03*
X-1170000Y932900D03*
X-1170200Y928700D03*
Y925200D03*
X-1163500Y928900D03*
Y925400D03*
X-1174900Y1020700D03*
X-1174142Y1198000D03*
X-1163300Y933100D03*
X-1157600Y933000D03*
X-1157800Y928800D03*
Y925300D03*
X-1157100Y946100D03*
X-1157300Y941900D03*
Y938400D03*
X-1163100Y969000D03*
X-1156400Y970200D03*
X-1163200Y975700D03*
X-1155900Y975000D03*
X-1152900Y1018500D03*
X-1151550Y1024898D03*
X-1161000Y1169700D03*
X-1159900Y1178404D03*
Y1180579D03*
X-1162000Y1193100D03*
X-1161200Y1207300D03*
X-1145300Y926000D03*
X-1150000Y928500D03*
X-1150500Y926000D03*
X-1145700Y928700D03*
X-1145900Y932200D03*
X-1150100Y932900D03*
X-1147300Y940400D03*
X-1150000Y937000D03*
X-1145600Y937300D03*
X-1148900Y945100D03*
X-1145500Y946800D03*
X-1147800Y959200D03*
X-1147700Y950300D03*
X-1145600Y954600D03*
X-1147800Y966700D03*
X-1150300Y970200D03*
X-1150100Y975100D03*
X-1145100Y997600D03*
X-1140300Y997800D03*
X-1145700Y1032860D03*
Y1031300D03*
X-1140000Y1126500D03*
X-1144500Y1154100D03*
X-1143400Y1187600D03*
X-1144166Y1225334D03*
X-1134000Y925700D03*
X-1135300Y946500D03*
Y956500D03*
X-1134100Y982600D03*
X-1139400Y977000D03*
X-1133200Y993200D03*
X-1138600Y990300D03*
X-1139500Y984900D03*
X-1132133Y1049300D03*
X-1135104Y1170705D03*
X-1134600Y1164100D03*
X-1129779Y1178579D03*
X-1130000Y1189100D03*
X-1117000Y925700D03*
X-1126100Y925600D03*
X-1122400Y964700D03*
X-1126600Y981300D03*
Y976800D03*
X-1122000Y995000D03*
X-1126900Y997000D03*
X-1116500Y1037100D03*
X-1117900Y1190300D03*
X-1107800Y925800D03*
X-1110900Y964800D03*
X-1104100Y1006000D03*
X-1107100Y1005900D03*
X-1103900Y1013200D03*
X-1106800Y1012800D03*
X-1106700Y1009100D03*
X-1103900Y1009000D03*
X-1109200Y1123300D03*
X-1110500Y1142300D03*
X-1108500Y1170500D03*
X-1112950Y1220550D03*
X-1100300Y925900D03*
X-1099400Y964500D03*
X-1096500Y1003500D03*
X-1095500Y1016600D03*
X-1097500D03*
X-1101400Y1016300D03*
X-1096500Y1008700D03*
X-1099600Y1020000D03*
X-1097500Y1117400D03*
X-1100700Y1160100D03*
X-1083000Y925900D03*
X-1091700Y925800D03*
X-1081600Y994500D03*
X-1089700Y1006300D03*
X-1089600Y1003300D03*
X-1082500Y1003800D03*
X-1081800Y1016400D03*
X-1083500Y1016700D03*
X-1087700Y1016600D03*
X-1091600Y1016400D03*
X-1089800Y1019000D03*
X-1089600Y1012400D03*
Y1009500D03*
X-1082500Y1008700D03*
X-1082000Y1041500D03*
Y1043300D03*
X-1091758Y1156342D03*
X-1086270Y1208830D03*
X-1086066Y1216634D03*
X-1086000Y1220516D03*
X-1073600Y926000D03*
X-1069300Y930700D03*
X-1068400Y942900D03*
X-1070700Y991400D03*
X-1076300D03*
X-1070400Y1002400D03*
X-1075900Y1002700D03*
X-1076200Y997500D03*
X-1070300D03*
X-1077200Y1017000D03*
X-1075900Y1007500D03*
X-1070400D03*
Y1018700D03*
X-1070300Y1015400D03*
X-1079300Y1019900D03*
X-1073800Y1030100D03*
X-1076300Y1077200D03*
X-1078000D03*
X-1070200Y1130800D03*
X-1075700Y1153600D03*
X-1076466Y1157767D03*
X-1059700Y925700D03*
X-1065900Y925900D03*
X-1064200Y931100D03*
X-1059300Y936000D03*
X-1064200Y936300D03*
X-1064000Y943000D03*
X-1062800Y996500D03*
Y1003100D03*
X-1056700Y1003800D03*
X-1056800Y998300D03*
X-1062900Y1009000D03*
X-1063400Y1018600D03*
X-1057600Y1018500D03*
X-1060500Y1016000D03*
X-1061400Y1092600D03*
X-1059700Y1093900D03*
X-1061500Y1126400D03*
Y1124400D03*
X-1059800D03*
Y1126200D03*
X-1061100Y1173800D03*
X-1056700Y1188500D03*
X-1050500Y925500D03*
X-1049200Y1006500D03*
X-1050500Y1013300D03*
X-1050300Y1008300D03*
X-1045600Y1027200D03*
X-1055400Y1029300D03*
X-1046300Y1032800D03*
X-1046100Y1031200D03*
X-1044600Y1032800D03*
Y1031200D03*
X-1048500Y1188500D03*
X-1040500Y925500D03*
X-1034900Y944500D03*
Y958000D03*
Y951500D03*
X-1033900Y971000D03*
X-1037600Y970900D03*
X-1041500D03*
X-1034900Y964500D03*
X-1034300Y1006500D03*
X-1041600Y1006800D03*
X-1033900Y1000400D03*
X-1038400Y1011200D03*
X-1034000Y1011300D03*
X-1039900Y1013700D03*
X-1040400Y1008500D03*
X-1039300Y1024800D03*
X-1037100Y1024700D03*
X-1025400Y935500D03*
X-1027500Y925500D03*
X-1029900Y939500D03*
X-1027500Y970400D03*
X-1022400Y961000D03*
X-1025900Y979400D03*
X-1020400Y989500D03*
X-1022600Y983500D03*
X-1028500Y1006500D03*
X-1029400Y1000400D03*
X-1028500Y1011200D03*
X-1024200Y1023400D03*
X-1026200Y1024200D03*
X-1029900Y1024600D03*
X-1026579Y1028800D03*
X-1031800Y1176600D03*
X-1031700Y1174900D03*
X-1023200Y1206100D03*
X-1015500Y925500D03*
X-1018900Y964500D03*
X-1011900Y975000D03*
X-1012897Y1009969D03*
X-1014100Y1024300D03*
X-1014300Y1021500D03*
X-1015200Y1019900D03*
X-1019527Y1026856D03*
X-1004500Y925500D03*
X-1003900Y991500D03*
X-998900Y992000D03*
X-1001300Y1030500D03*
X-1001100Y1040100D03*
X-996900Y1076400D03*
X-996500Y1073300D03*
X-997200Y1080100D03*
Y1083400D03*
Y1089900D03*
Y1086600D03*
X-997400Y1100300D03*
X-996900Y1095800D03*
X-996500Y1092300D03*
X-997500Y1109000D03*
X-996600Y1106000D03*
X-998600Y1217900D03*
X-1005300Y1213600D03*
X-1001400Y1233900D03*
X-1001200Y1231500D03*
X-996800Y1223600D03*
X-996700Y1231300D03*
X-995400Y935500D03*
X-989400D03*
X-993500Y925500D03*
X-989400Y939000D03*
X-995400D03*
X-988800Y951900D03*
X-988858Y961442D03*
X-989400Y966000D03*
X-994400Y965000D03*
X-991900Y992000D03*
X-989100Y994900D03*
X-991000Y1002500D03*
X-989100Y1006900D03*
X-990900Y1011100D03*
X-994100Y1030100D03*
X-994200Y1027200D03*
X-990200Y1019400D03*
X-988900Y1023900D03*
X-993900Y1036800D03*
X-991800Y1051300D03*
X-994800Y1051100D03*
X-995400Y1047500D03*
X-991700Y1047300D03*
X-991600Y1063500D03*
X-994300Y1160900D03*
X-993600Y1153300D03*
X-989400Y1155000D03*
Y1167000D03*
X-988900Y1174000D03*
X-988800Y1181900D03*
X-992500Y1174600D03*
X-991200Y1180900D03*
X-995600Y1184200D03*
X-994900Y1177200D03*
X-992800Y1218100D03*
X-991300Y1232600D03*
X-990500Y1223600D03*
G54D11*
X-1289000Y979300D03*
X-996530D03*
Y1201170D03*
G54D20*
X-1215600Y931679D03*
G54D30*
G01X-1182396Y948444D02*
Y939304D01*
G01X-1156806Y958680D02*
Y949306D01*
G54D21*
X-1182396Y948444D03*
X-1156806Y958680D03*
G54D12*
X-1293334Y996366D03*
Y1006366D03*
X-1125258Y988120D03*
G54D31*
G01X-1246860Y931176D02*
X-1242508D01*
G01Y926824D02*
Y931176D01*
G01D02*
Y935528D01*
G01Y931176D02*
X-1238156D01*
G54D13*
X-1291429Y929299D03*
Y945835D03*
X-1257571Y929299D03*
Y945835D03*
G54D22*
X-1177475Y996081D03*
X-1163695Y943916D03*
G54D32*
G01X-1294393Y929299D02*
X-1291429D01*
G01X-1294393Y945835D02*
X-1291429D01*
G01Y929299D02*
Y934232D01*
G01Y929299D02*
X-1288465D01*
G01X-1291429Y940902D02*
Y945835D01*
G01D02*
Y950768D01*
G01X-1289000Y968855D02*
Y979300D01*
G01D02*
Y989745D01*
G01Y979300D02*
X-1278555D01*
G01X-1260535Y929299D02*
X-1257571D01*
G01D02*
Y934232D01*
G01Y929299D02*
X-1254607D01*
G01X-1257571Y940902D02*
Y945835D01*
G01D02*
X-1254607D01*
G01X-1227726Y948793D02*
Y953726D01*
G01X-1232659D02*
X-1227726D01*
G01D02*
X-1222793D01*
G01X-1215600Y928124D02*
Y931679D01*
G01D02*
Y935234D01*
G01X-1222052Y931679D02*
X-1215600D01*
G01D02*
X-1209148D01*
G01X-1203474Y948793D02*
Y953726D01*
G01X-1208407D02*
X-1203474D01*
G01D02*
X-1198541D01*
G01X-996530Y968855D02*
Y979300D01*
G01D02*
Y989745D01*
G01X-1006975Y979300D02*
X-996530D01*
G01Y1190725D02*
Y1201170D01*
G01D02*
Y1211615D01*
G01X-1006975Y1201170D02*
X-996530D01*
G54D14*
X-1285878Y943669D03*
X-1263122D03*
G54D23*
X-1167632Y960491D03*
X-1171570Y953672D03*
Y967314D03*
X-1167632Y974133D03*
Y987774D03*
G54D33*
G01X-990330Y922200D02*
X-1295300D01*
G02X-1300300Y927200I0J5000D01*
G01Y1232170D01*
G01D02*
G02X-1295300Y1237170I5000J0D01*
G01D02*
X-990330D01*
G01X-1171570Y951495D02*
Y953672D01*
G01D02*
Y955849D01*
G01X-1173747Y953672D02*
X-1171570D01*
G01D02*
X-1169393D01*
G01X-1167632Y958314D02*
Y960491D01*
G01X-1171570Y965137D02*
Y967314D01*
G01D02*
Y969491D01*
G01X-1173747Y967314D02*
X-1171570D01*
G01D02*
X-1169393D01*
G01X-1167632Y960491D02*
Y962668D01*
G01X-1169809Y960491D02*
X-1167632D01*
G01D02*
X-1165455D01*
G01X-1167632Y971956D02*
Y974133D01*
G01D02*
Y976310D01*
G01X-1169809Y974133D02*
X-1167632D01*
G01D02*
X-1165455D01*
G01X-1167632Y985597D02*
Y987774D01*
G01D02*
Y989951D01*
G01X-1169809Y987774D02*
X-1167632D01*
G01D02*
X-1165455D01*
G01X-1129010Y988120D02*
X-1125258D01*
G01Y984368D02*
Y988120D01*
G01D02*
Y991872D01*
G01Y988120D02*
X-1121506D01*
G01X-985330Y927200D02*
G02X-990330Y922200I-5000J0D01*
G01X-985330Y1232170D02*
Y927200D01*
G01X-990330Y1237170D02*
G02X-985330Y1232170I0J-5000D01*
G54D24*
X-1125258Y953120D03*
X-1080258D03*
G54D15*
X-1289900Y1068396D03*
Y1060404D03*
X-1259900Y1064400D03*
X-1041316Y1050456D03*
X-1011316Y1046460D03*
Y1054452D03*
G54D34*
G01X-990330Y1237170D02*
X-1295300D01*
G03X-1300300Y1232170I0J-5000D01*
G01Y927200D01*
G03X-1295300Y922200I5000J0D01*
G01X-990330D01*
G03X-985330Y927200I0J5000D01*
G01Y1232170D01*
G03X-990330Y1237170I-5000J0D01*
G54D25*
X-1133762Y965128D03*
X-1071754D03*
X-1062338D03*
G54D16*
X-1272383Y1020061D03*
X-1243249D03*
G54D17*
X-1242508Y931176D03*
G54D26*
X-1078404Y1081656D03*
Y1172994D03*
G54D27*
X-1055842Y953120D03*
X-1015842D03*
G54D18*
X-1242508Y941176D03*
Y951176D03*
G54D19*
X-1227726Y953726D03*
X-1203474D03*
G54D28*
X-1011201Y1074147D03*
Y1105643D03*
X-993400Y999069D03*
Y1016391D03*
Y1041669D03*
Y1058991D03*
Y1170539D03*
Y1187861D03*
G54D29*
G01X-1075700Y1153600D02*
X-1073800Y1155500D01*
Y1159700D01*
X-1114200Y1200100D01*
X-1163300D01*
X-1164900Y1201700D01*
X-1175200D01*
X-1177750Y1199150D01*
Y1197192D01*
X-1180342Y1194600D01*
X-1183400D01*
G01D02*
X-1184800D01*
G01X-1159900Y1180579D02*
X-1165000Y1185679D01*
Y1194000D01*
X-1163500Y1195500D01*
X-1134600D01*
X-1133800Y1194700D01*
X-1122300D01*
X-1117900Y1190300D01*
G01X-1133762Y959408D02*
Y965128D01*
G01X-1137514D02*
X-1133762D01*
G01D02*
X-1130010D01*
G01X-1117900Y1190300D02*
X-1113300D01*
X-1106600Y1183600D01*
Y1172500D01*
X-1108500Y1170600D01*
Y1170500D01*
G01X-1071754Y959408D02*
Y965128D01*
G01X-1075506D02*
X-1071754D01*
G01D02*
X-1068002D01*
G01X-1062338Y959408D02*
Y965128D01*
G01X-1066090D02*
X-1062338D01*
G01D02*
X-1058586D01*
M02*
