G04 ================== begin FILE IDENTIFICATION RECORD ==================*
G04 Layout Name:  beagleplayv022_10.brd*
G04 Film Name:    L5_PWR*
G04 File Format:  Gerber RS274X*
G04 File Origin:  Cadence Allegro 17.4-S032*
G04 Origin Date:  Wed Feb 15 11:40:44 2023*
G04 *
G04 Layer:  VIA CLASS/LAY5_PWR2*
G04 Layer:  PIN/LAY5_PWR2*
G04 Layer:  ETCH/LAY5_PWR2*
G04 Layer:  BOARD GEOMETRY/OUTLINE*
G04 *
G04 Offset:    (0.00 0.00)*
G04 Mirror:    No*
G04 Mode:      Positive*
G04 Rotation:  0*
G04 FullContactRelief:  No*
G04 UndefLineWidth:     4.00*
G04 ================== end FILE IDENTIFICATION RECORD ====================*
%FSLAX25Y25*MOIN*%
%IR0*IPPOS*OFA0.00000B0.00000*MIA0B0*SFA1.00000B1.00000*%
%ADD14C,.06*%
%ADD11C,.016*%
%ADD16C,.075*%
%ADD21C,.05512*%
%ADD12C,.02362*%
%ADD23C,.03543*%
%ADD13C,.04724*%
%ADD15R,.075X.075*%
%ADD20O,.06299X.10236*%
%ADD18C,.06693*%
%ADD10C,.06299*%
%ADD17O,.06693X.13386*%
%ADD19C,.12795*%
%ADD22C,.12598*%
%ADD24C,.015*%
%ADD25C,.034*%
%ADD26C,.005*%
%ADD27C,.004*%
%ADD30C,.02004*%
%ADD28C,.02404*%
%ADD29C,.06006*%
%ADD34C,.05146*%
%ADD31C,.0583*%
%ADD35C,.04546*%
%ADD32C,.05844*%
%ADD36C,.09454*%
%ADD33C,.06979*%
%ADD38C,.1504*%
%ADD37C,.14872*%
G75*
%LPD*%
G75*
G36*
G01X-1298500Y1101600D02*
X-1297382Y1102718D01*
X-1289128Y1102712D01*
X-1288002Y1101585D01*
Y1096598D01*
X-1288101Y1096541D01*
G03X-1288529Y1096121I601J-1041D01*
G02X-1289178Y1096071I-342J207D01*
G03X-1290100Y1096502I-922J-771D01*
G03X-1291302Y1095300I0J-1202D01*
G03X-1290648Y1094230I1202J0D01*
G02X-1290598Y1093549I-182J-356D01*
G03X-1291102Y1092570I699J-979D01*
G03X-1288698I1202J0D01*
G03X-1289352Y1093640I-1202J0D01*
G02X-1289402Y1094321I182J356D01*
G03X-1289071Y1094679I-699J978D01*
G02X-1288422Y1094729I342J-207D01*
G03X-1288101Y1094459I922J771D01*
G01X-1288002Y1094402D01*
Y1077399D01*
X-1291500Y1073900D01*
Y1073816D01*
X-1291902Y1073415D01*
Y1070515D01*
G03Y1066278I2002J-2118D01*
G01Y1062532D01*
G03Y1058276I2002J-2128D01*
G01Y1019085D01*
X-1291500Y1018684D01*
Y1018100D01*
X-1279900Y1006500D01*
X-1269341D01*
G02X-1268981Y1005925I0J-400D01*
G03X-1269102Y1005400I1081J-526D01*
G03X-1266698I1202J0D01*
G03X-1266819Y1005925I-1202J-1D01*
G02X-1266459Y1006500I360J175D01*
G01X-1261200D01*
X-1258600Y1003900D01*
Y985300D01*
X-1261500Y982400D01*
X-1272300D01*
X-1279532Y989632D01*
X-1279484Y989755D01*
G03X-1279398Y990200I-1116J446D01*
G03X-1280600Y991402I-1202J0D01*
G03X-1281045Y991316I1J-1202D01*
G01X-1281168Y991268D01*
X-1292269Y1002369D01*
G02X-1292123Y1003028I283J283D01*
G03X-1289783Y1006366I-1211J3338D01*
G03X-1293334Y1009917I-3551J0D01*
G03X-1296672Y1007577I0J-3551D01*
G02X-1297331Y1007431I-376J137D01*
G01X-1298500Y1008600D01*
Y1011798D01*
G02X-1298100Y1012198I400J0D01*
G03Y1014602I0J1202D01*
G02X-1298500Y1015002I0J400D01*
G01Y1024315D01*
G02X-1297950Y1024686I400J0D01*
G03X-1297500Y1024598I451J1114D01*
G03Y1027002I0J1202D01*
G03X-1297950Y1026914I1J-1202D01*
G02X-1298500Y1027285I-150J371D01*
G01Y1030112D01*
G02X-1297900Y1030459I400J0D01*
G03X-1297300Y1030298I601J1041D01*
G03Y1032702I0J1202D01*
G03X-1297900Y1032541I1J-1202D01*
G02X-1298500Y1032888I-200J347D01*
G01Y1049278D01*
G02X-1297975Y1049658I400J0D01*
G03X-1297600Y1049598I375J1142D01*
G03Y1052002I0J1202D01*
G03X-1297975Y1051942I0J-1202D01*
G02X-1298500Y1052322I-125J380D01*
G01Y1053749D01*
G02X-1298000Y1054136I400J0D01*
G03X-1297700Y1054098I300J1165D01*
G03Y1056502I0J1202D01*
G03X-1298000Y1056464I0J-1203D01*
G02X-1298500Y1056851I-100J387D01*
G01Y1061359D01*
G02X-1297925Y1061719I400J0D01*
G03X-1297400Y1061598I526J1081D01*
G03Y1064002I0J1202D01*
G03X-1297925Y1063881I1J-1202D01*
G02X-1298500Y1064241I-175J360D01*
G01Y1066798D01*
G02X-1298300Y1066998I200J0D01*
G03Y1069402I0J1202D01*
G02X-1298500Y1069602I0J200D01*
G01Y1074412D01*
G02X-1297900Y1074759I400J0D01*
G03X-1297300Y1074598I601J1041D01*
G03Y1077002I0J1202D01*
G03X-1297900Y1076841I1J-1202D01*
G02X-1298500Y1077188I-200J347D01*
G01Y1081049D01*
G02X-1298000Y1081436I400J0D01*
G03X-1297700Y1081398I300J1165D01*
G03Y1083802I0J1202D01*
G03X-1298000Y1083764I0J-1203D01*
G02X-1298500Y1084151I-100J387D01*
G01Y1087134D01*
G02X-1298100Y1087534I400J0D01*
G03Y1089938I0J1202D01*
G02X-1298500Y1090338I0J400D01*
G01Y1101600D01*
G37*
G36*
G01X-1253700Y1028098D02*
G03X-1253625Y1028100I5J1202D01*
G02X-1253200Y1027701I25J-399D01*
G01Y1011900D01*
X-1257007Y1008093D01*
X-1257137Y1008162D01*
G03X-1257700Y1008302I-563J-1062D01*
G03X-1258740Y1007700I0J-1199D01*
G01X-1258797Y1007600D01*
X-1279000D01*
X-1290900Y1019500D01*
Y1050115D01*
G02X-1290350Y1050486I400J0D01*
G03X-1289900Y1050398I451J1114D01*
G03Y1052802I0J1202D01*
G03X-1290350Y1052714I1J-1202D01*
G02X-1290900Y1053085I-150J371D01*
G01Y1057138D01*
G02X-1290428Y1057531I400J-1D01*
G03Y1063277I529J2873D01*
G02X-1290900Y1063670I-72J394D01*
G01Y1065137D01*
G02X-1290428Y1065530I400J-1D01*
G03Y1071262I528J2866D01*
G02X-1290900Y1071655I-72J394D01*
G01Y1073000D01*
X-1287000Y1076900D01*
Y1094402D01*
X-1286900Y1094460D01*
G03Y1096540I-599J1040D01*
G01X-1287000Y1096598D01*
Y1102000D01*
X-1289400Y1104400D01*
Y1130012D01*
G02X-1288800Y1130359I400J0D01*
G03X-1288200Y1130198I601J1041D01*
G03Y1132602I0J1202D01*
G03X-1288800Y1132441I1J-1202D01*
G02X-1289400Y1132788I-200J347D01*
G01Y1136259D01*
G02X-1288825Y1136619I400J0D01*
G03X-1288300Y1136498I526J1081D01*
G03Y1138902I0J1202D01*
G03X-1288825Y1138781I1J-1202D01*
G02X-1289400Y1139141I-175J360D01*
G01Y1143600D01*
X-1279300Y1153700D01*
X-1235900D01*
X-1220393Y1138193D01*
X-1220378Y1138155D01*
G03X-1220050Y1137726I931J372D01*
G02X-1220036Y1137098I-241J-320D01*
G03X-1220399Y1136326I639J-772D01*
G03X-1219397Y1135324I1002J0D01*
G03X-1218687Y1135619I0J1002D01*
G02X-1218089Y1135583I283J-283D01*
G03X-1217300Y1135198I789J616D01*
G03X-1216298Y1136200I0J1002D01*
G02X-1215898Y1136600I400J0D01*
G01X-1214800D01*
X-1214002Y1135802D01*
G02X-1213993Y1135245I-283J-283D01*
G03X-1214265Y1134559I729J-686D01*
G03X-1213794Y1133709I1002J0D01*
G02X-1214102Y1132982I-212J-339D01*
G03X-1215100Y1133902I-998J-81D01*
G03Y1131898I0J-1002D01*
G01X-1215099D01*
G03X-1214577Y1132045I-1J1002D01*
G02X-1214007Y1131874I208J-341D01*
G03X-1213100Y1131298I907J426D01*
G03X-1212098Y1132300I0J1002D01*
G03X-1212569Y1133150I-1002J0D01*
G02X-1212616Y1133794I212J339D01*
G03X-1212577Y1133829I-649J763D01*
G02X-1212020Y1133820I274J-292D01*
G01X-1208663Y1130463D01*
X-1208648Y1130416D01*
G03X-1207993Y1129761I956J301D01*
G01X-1207946Y1129746D01*
X-1206700Y1128500D01*
Y1127937D01*
G02X-1207271Y1127576I-400J0D01*
G03X-1207698Y1127672I-428J-906D01*
G01X-1207700D01*
G03Y1125668I0J-1002D01*
G01X-1207698D01*
G03X-1207271Y1125764I-1J1002D01*
G02X-1206700Y1125403I171J-361D01*
G01Y1122100D01*
X-1207300Y1121500D01*
X-1212495D01*
X-1212536Y1121645D01*
G03X-1213500Y1122372I-964J-276D01*
G03X-1214502Y1121370I0J-1002D01*
G03X-1214207Y1120660I1002J0D01*
G02X-1214206Y1120094I-282J-283D01*
G01X-1215376Y1118924D01*
X-1215483Y1118948D01*
G03X-1215700Y1118972I-218J-978D01*
G03X-1216702Y1117970I0J-1002D01*
G03X-1216678Y1117753I1002J1D01*
G01X-1216654Y1117646D01*
X-1218763Y1115537D01*
X-1218896Y1115614D01*
G03X-1219396Y1115748I-501J-868D01*
G01X-1219397D01*
G03X-1220399Y1114746I0J-1002D01*
G03X-1220233Y1114194I1001J0D01*
G01X-1220200Y1114144D01*
Y1082900D01*
X-1229443Y1073657D01*
X-1229632Y1073726D01*
X-1229658Y1073745D01*
G03X-1230400Y1074002I-743J-946D01*
G03X-1231602Y1072800I0J-1202D01*
G03X-1231345Y1072058I1203J1D01*
G01X-1231326Y1072032D01*
X-1231257Y1071843D01*
X-1238817Y1064283D01*
G02X-1239499Y1064550I-282J283D01*
G03X-1240700Y1065702I-1201J-50D01*
G03X-1241550Y1065350I0J-1202D01*
G03X-1242400Y1065702I-850J-850D01*
G03X-1243602Y1064500I0J-1202D01*
G03X-1243297Y1063700I1202J0D01*
G03X-1243702Y1062800I797J-900D01*
G03X-1243364Y1061964I1203J0D01*
G01X-1243337Y1061936D01*
X-1243279Y1061796D01*
X-1243326Y1061668D01*
X-1243345Y1061642D01*
X-1243347Y1061640D01*
G03X-1243602Y1060900I948J-741D01*
G01Y1060899D01*
G03X-1243307Y1060111I1202J1D01*
G01X-1243284Y1060084D01*
X-1243209Y1059891D01*
X-1253200Y1049900D01*
Y1030899D01*
G02X-1253625Y1030500I-400J0D01*
G03X-1253700Y1030502I-70J-1200D01*
G03Y1028098I0J-1202D01*
G37*
G36*
G01X-1007785Y1232200D02*
X-1007200D01*
X-1004100Y1229100D01*
Y1220400D01*
X-1009732Y1214768D01*
X-1009855Y1214816D01*
G03X-1010300Y1214902I-446J-1116D01*
G03X-1011502Y1213700I0J-1202D01*
G03X-1011416Y1213255I1202J1D01*
G01X-1011368Y1213132D01*
X-1011700Y1212800D01*
Y1194599D01*
X-1011800Y1194541D01*
G03X-1012402Y1193500I599J-1041D01*
G03X-1011200Y1192298I1202J0D01*
G03X-1010883Y1192341I-2J1202D01*
G01X-1010771Y1192371D01*
X-996029Y1177629D01*
X-996059Y1177517D01*
G03X-996102Y1177200I1159J-319D01*
G03X-994900Y1175998I1202J0D01*
G03X-994583Y1176041I-2J1202D01*
G01X-994471Y1176071D01*
X-993568Y1175168D01*
X-993616Y1175045D01*
G03X-993702Y1174600I1116J-446D01*
G03X-992500Y1173398I1202J0D01*
G03X-992055Y1173484I-1J1202D01*
G01X-991932Y1173532D01*
X-990300Y1171900D01*
Y1167797D01*
G03Y1166203I901J-797D01*
G01Y1155797D01*
G03Y1154203I901J-797D01*
G01Y1064825D01*
G02X-990925Y1064494I-400J0D01*
G03X-991600Y1064702I-676J-994D01*
G03Y1062298I0J-1202D01*
G03X-990925Y1062506I-1J1202D01*
G02X-990300Y1062175I225J-331D01*
G01Y1052465D01*
G02X-990975Y1052174I-400J-1D01*
G03X-991800Y1052502I-825J-874D01*
G03Y1050098I0J-1202D01*
G03X-990975Y1050426I0J1202D01*
G02X-990300Y1050135I275J-290D01*
G01Y1048551D01*
G02X-990950Y1048239I-400J0D01*
G03X-991700Y1048502I-750J-938D01*
G03Y1046098I0J-1202D01*
G03X-990950Y1046361I0J1201D01*
G02X-990300Y1046049I250J-312D01*
G01Y1020609D01*
X-990457Y1020574D01*
G03Y1018226I257J-1174D01*
G01X-990300Y1018191D01*
Y1012689D01*
G02X-990750Y1012293I-400J1D01*
G03X-990900Y1012302I-147J-1193D01*
G03X-992102Y1011100I0J-1202D01*
G03X-992039Y1010717I1202J1D01*
G01X-992000Y1010600D01*
X-1021100Y981500D01*
X-1061622D01*
G02X-1061958Y982117I0J400D01*
G03X-1061766Y982768I-1010J652D01*
G03X-1064170I-1202J0D01*
G03X-1063978Y982117I1202J1D01*
G02X-1064314Y981500I-336J-217D01*
G01X-1125405D01*
X-1125448Y981643D01*
G03X-1126600Y982502I-1152J-343D01*
G03X-1127597Y981971I0J-1201D01*
G02X-1128212Y981912I-332J224D01*
G01X-1131800Y985500D01*
Y999500D01*
X-1136700Y1004400D01*
X-1182300D01*
X-1189000Y997700D01*
Y967800D01*
X-1191800Y965000D01*
X-1210111D01*
G02X-1210507Y965450I1J400D01*
G03X-1210498Y965600I-1193J147D01*
G03X-1212902I-1202J0D01*
G03X-1212893Y965450I1202J-3D01*
G02X-1213289Y965000I-397J-50D01*
G01X-1219435D01*
G02X-1219726Y965675I-1J400D01*
G03X-1219398Y966500I-874J825D01*
G03X-1221802I-1202J0D01*
G03X-1221545Y965757I1203J0D01*
G02X-1221670Y965158I-315J-247D01*
G03X-1221897Y965000I569J-1059D01*
G01X-1224000D01*
X-1235300Y953700D01*
X-1239211D01*
G03X-1245805I-3297J-2525D01*
G01X-1260491D01*
X-1260526Y953857D01*
G03X-1262874I-1174J-257D01*
G01X-1262909Y953700D01*
X-1263905D01*
X-1263948Y953843D01*
G03X-1266252I-1152J-343D01*
G01X-1266295Y953700D01*
X-1267928D01*
X-1267977Y953829D01*
G03X-1270223I-1123J-429D01*
G01X-1270272Y953700D01*
X-1276501D01*
X-1276559Y953800D01*
G03X-1277433Y954390I-1041J-600D01*
G01X-1277500Y954400D01*
X-1279700Y956600D01*
Y961398D01*
G02X-1279072Y961727I400J0D01*
G03X-1278386Y961512I686J987D01*
G03Y963916I0J1202D01*
G03X-1279072Y963701I0J-1202D01*
G02X-1279700Y964030I-228J329D01*
G01Y967749D01*
G02X-1279200Y968136I400J0D01*
G03X-1278900Y968098I300J1165D01*
G03Y970502I0J1202D01*
G03X-1279200Y970464I0J-1203D01*
G02X-1279700Y970851I-100J387D01*
G01Y978200D01*
X-1276600Y981300D01*
X-1272922D01*
G02X-1272542Y980775I0J-400D01*
G03X-1272602Y980400I1142J-375D01*
G03X-1270198I1202J0D01*
G03X-1270258Y980775I-1202J0D01*
G02X-1269878Y981300I380J125D01*
G01X-1259000D01*
X-1258200Y980500D01*
Y975800D01*
X-1259200Y974800D01*
X-1264100D01*
X-1264600Y975300D01*
X-1268600D01*
X-1270449Y973451D01*
X-1270583Y973531D01*
G03X-1271200Y973702I-618J-1031D01*
G03Y971298I0J-1202D01*
G03X-1270900Y971336I0J1203D01*
G02X-1270400Y970949I100J-387D01*
G01Y964000D01*
X-1268500Y962100D01*
X-1267527D01*
X-1267472Y961986D01*
G03X-1265300I1086J513D01*
G01X-1265245Y962100D01*
X-1255300D01*
X-1252935Y964465D01*
X-1252796Y964355D01*
G03X-1252053Y964098I743J946D01*
G03X-1251773Y964131I0J1202D01*
G02X-1251281Y963703I94J-389D01*
G03X-1251287Y963585I1196J-120D01*
G03X-1250085Y964787I1202J0D01*
G03X-1250365Y964754I0J-1202D01*
G02X-1250857Y965182I-94J389D01*
G03X-1250851Y965300I-1196J120D01*
G03X-1251108Y966043I-1203J0D01*
G01X-1251218Y966182D01*
X-1246075Y971325D01*
X-1245975Y971311D01*
G03X-1245800Y971298I176J1189D01*
G03X-1244598Y972500I0J1202D01*
G03X-1244611Y972675I-1202J-1D01*
G01X-1244625Y972775D01*
X-1240753Y976647D01*
G02X-1240103Y976523I283J-283D01*
G03X-1239000Y975798I1103J477D01*
G03X-1238177Y976124I0J1202D01*
G02X-1237921Y976138I136J-146D01*
G03X-1237200Y975898I721J963D01*
G03Y978302I0J1202D01*
G03X-1238023Y977976I0J-1202D01*
G02X-1238279Y977962I-136J146D01*
G03X-1238523Y978103I-719J-963D01*
G02X-1238647Y978753I159J367D01*
G01X-1225483Y991917D01*
G02X-1224801Y991650I282J-283D01*
G03X-1224484Y990886I1201J50D01*
G02Y990614I-147J-136D01*
G03Y988986I883J-814D01*
G02Y988714I-147J-136D01*
G03X-1224802Y987900I883J-814D01*
G03X-1223600Y986698I1202J0D01*
G03X-1222786Y987016I0J1201D01*
G02X-1222514I136J-147D01*
G03X-1221700Y986698I814J883D01*
G03X-1220850Y987050I0J1202D01*
G03X-1220000Y986698I850J850D01*
G03X-1218798Y987900I0J1202D01*
G03X-1219116Y988714I-1201J0D01*
G02Y988986I147J136D01*
G03X-1218798Y989800I-883J814D01*
G03X-1219075Y990568I-1203J0D01*
G02X-1219061Y990839I154J128D01*
G03X-1218698Y991700I-840J861D01*
G03X-1218990Y992486I-1202J1D01*
G02X-1218965Y993035I303J261D01*
G03X-1218598Y993900I-836J865D01*
G03X-1219800Y995102I-1202J0D01*
G03X-1220588Y994808I0J-1203D01*
G02X-1221112I-262J302D01*
G03X-1221532Y995044I-787J-909D01*
G02X-1221700Y995700I123J381D01*
G01Y995984D01*
X-1221498Y996185D01*
Y998247D01*
G02X-1220849Y998560I400J0D01*
G03X-1220100Y998298I749J940D01*
G03Y1000702I0J1202D01*
G03X-1220849Y1000440I0J-1202D01*
G02X-1221498Y1000753I-249J313D01*
G01Y1019201D01*
X-1209933Y1030767D01*
G02X-1209363Y1030763I283J-283D01*
G03X-1208500Y1030398I863J838D01*
G03X-1207298Y1031600I0J1202D01*
G03X-1207663Y1032463I-1203J0D01*
G02X-1207667Y1033033I279J287D01*
G01X-1204000Y1036700D01*
Y1047684D01*
X-1199898Y1051785D01*
Y1051801D01*
X-1198400Y1053300D01*
Y1062763D01*
X-1198286Y1062818D01*
G03Y1064990I-513J1086D01*
G01X-1198400Y1065045D01*
Y1071326D01*
G02X-1197925Y1071719I400J0D01*
G03X-1197700Y1071698I224J1181D01*
G03Y1074102I0J1202D01*
G03X-1197925Y1074081I-1J-1202D01*
G02X-1198400Y1074474I-75J393D01*
G01Y1078295D01*
X-1198392Y1078322D01*
G03X-1198346Y1078652I-1156J329D01*
G03X-1198392Y1078982I-1202J1D01*
G01X-1198400Y1079009D01*
Y1079384D01*
X-1197998Y1079785D01*
Y1082434D01*
G02X-1197324Y1082725I400J0D01*
G03X-1196500Y1082398I824J875D01*
G03Y1084802I0J1202D01*
G03X-1197324Y1084475I0J-1202D01*
G02X-1197998Y1084766I-274J291D01*
G01Y1098590D01*
G02X-1197456Y1098963I400J0D01*
G03X-1197100Y1098898I355J937D01*
G03Y1100902I0J1002D01*
G03X-1197456Y1100837I-1J-1002D01*
G02X-1197998Y1101210I-142J373D01*
G01Y1105288D01*
G02X-1197531Y1105682I400J0D01*
G03X-1197363Y1105668I167J988D01*
G03Y1107672I0J1002D01*
G03X-1197531Y1107658I-1J-1002D01*
G02X-1197998Y1108052I-67J394D01*
G01Y1113085D01*
X-1197685Y1113398D01*
X-1195385D01*
X-1190998Y1117785D01*
Y1118269D01*
G03Y1119871I-602J801D01*
G01Y1121215D01*
X-1191100Y1121316D01*
Y1121888D01*
G03Y1123478I-610J795D01*
G01Y1125916D01*
G03Y1127506I-610J795D01*
G01Y1129098D01*
X-1187216D01*
G02X-1186823Y1128621I1J-400D01*
G03X-1186842Y1128428I983J-194D01*
G03X-1184838I1002J0D01*
G03X-1185674Y1129416I-1002J0D01*
G02X-1185890Y1130093I67J394D01*
G01X-1184410Y1131574D01*
X-1184273Y1131478D01*
G03X-1183700Y1131298I573J822D01*
G03X-1182698Y1132300I0J1002D01*
G03X-1182878Y1132873I-1002J0D01*
G01X-1182974Y1133010D01*
X-1181985Y1133998D01*
X-1177515D01*
X-1176315Y1132798D01*
X-1169485D01*
X-1168298Y1133985D01*
Y1137115D01*
X-1169585Y1138402D01*
X-1173285D01*
X-1178967Y1144084D01*
X-1178964Y1144171D01*
G03X-1178963Y1144210I-1001J45D01*
G03X-1179965Y1145212I-1002J0D01*
G03X-1180004Y1145211I6J-1002D01*
G01X-1180091Y1145208D01*
X-1180285Y1145402D01*
X-1180590D01*
G02X-1180973Y1145915I0J400D01*
G03X-1180932Y1146200I-961J284D01*
G03X-1182936I-1002J0D01*
G03X-1182803Y1145701I1003J0D01*
G01X-1182776Y1145655D01*
Y1145402D01*
X-1183332D01*
X-1183382Y1145435D01*
G03X-1183936Y1145602I-554J-835D01*
G03X-1184537Y1145402I0J-1003D01*
G01X-1186284D01*
X-1186312Y1145568D01*
G03X-1187300Y1146402I-988J-168D01*
G03X-1188298Y1145485I0J-1002D01*
G01X-1188305Y1145412D01*
X-1188680Y1145037D01*
G02X-1189287Y1145086I-283J283D01*
G03X-1189367Y1145183I-812J-588D01*
G02X-1189324Y1145768I293J273D01*
G03X-1188948Y1146550I-625J782D01*
G03X-1190952I-1002J0D01*
G03X-1190683Y1145867I1002J0D01*
G02X-1190726Y1145282I-293J-273D01*
G03X-1191102Y1144500I625J-782D01*
G03X-1190686Y1143687I1002J0D01*
G02X-1190637Y1143080I-234J-324D01*
G01X-1190869Y1142847D01*
X-1191017Y1142996D01*
X-1191024Y1143004D01*
G03X-1191800Y1143372I-776J-634D01*
G03X-1192645Y1142908I0J-1001D01*
G02X-1192995Y1142930I-169J107D01*
G03X-1193100Y1143103I-905J-431D01*
G01Y1145781D01*
X-1193069Y1145830D01*
G03X-1192912Y1146368I-845J538D01*
G03X-1193069Y1146906I-1002J0D01*
G01X-1193100Y1146955D01*
Y1151399D01*
G03Y1152741I-744J671D01*
G01Y1157000D01*
X-1190900Y1159200D01*
Y1163400D01*
X-1192800Y1165300D01*
X-1200100D01*
X-1200512Y1164888D01*
X-1200724Y1165100D01*
X-1200710Y1165199D01*
G03X-1200698Y1165370I-1190J169D01*
G03X-1201900Y1164168I-1202J0D01*
G03X-1201750Y1164177I3J1202D01*
G02X-1201300Y1163781I50J-397D01*
G01Y1156814D01*
G02X-1201814Y1156430I-400J0D01*
G03X-1202100Y1156472I-287J-960D01*
G03Y1154468I0J-1002D01*
G03X-1201814Y1154510I-1J1002D01*
G02X-1201300Y1154126I114J-384D01*
G01Y1153352D01*
G02X-1201677Y1152952I-400J-1D01*
G03Y1150952I59J-1000D01*
G02X-1201300Y1150552I-23J-399D01*
G01Y1147818D01*
G02X-1201677Y1147418I-400J-1D01*
G03X-1202620Y1146418I59J-1000D01*
G03X-1201618Y1145416I1002J0D01*
G03X-1201045Y1145596I0J1002D01*
G01X-1200908Y1145692D01*
X-1200500Y1145284D01*
Y1145053D01*
X-1200525Y1145008D01*
G03Y1144032I874J-488D01*
G01X-1200500Y1143987D01*
Y1143013D01*
G03Y1141541I680J-736D01*
G01Y1139500D01*
X-1202300Y1137700D01*
X-1202772D01*
Y1137947D01*
X-1202751Y1137988D01*
G03X-1202648Y1138431I-899J443D01*
G03X-1204652I-1002J0D01*
G03X-1204624Y1138194I1002J-2D01*
G02X-1205012Y1137700I-389J-94D01*
G01X-1208365D01*
G02X-1208758Y1138177I0J400D01*
G03X-1208739Y1138370I-983J194D01*
G03X-1210743I-1002J0D01*
G03X-1210724Y1138177I1002J1D01*
G02X-1211117Y1137700I-393J-77D01*
G01X-1212120D01*
G02X-1212494Y1138243I0J400D01*
G03X-1212428Y1138600I-936J358D01*
G03X-1214432I-1002J0D01*
G03X-1214366Y1138243I1002J1D01*
G02X-1214740Y1137700I-374J-143D01*
G01X-1216105D01*
G02X-1216488Y1138216I0J400D01*
G03X-1216445Y1138507I-959J290D01*
G03X-1217447Y1139509I-1002J0D01*
G03X-1218155Y1139216I0J-1002D01*
G02X-1218726Y1139221I-283J283D01*
G03X-1219447Y1139528I-722J-695D01*
G03X-1219958Y1139388I0J-1003D01*
G01X-1220092Y1139308D01*
X-1235485Y1154702D01*
X-1235901D01*
X-1236700Y1155500D01*
X-1272700D01*
X-1275900Y1158700D01*
Y1179498D01*
G02X-1275700Y1179698I200J0D01*
G03Y1182102I0J1202D01*
G02X-1275900Y1182302I0J200D01*
G01Y1183949D01*
G02X-1275400Y1184336I400J0D01*
G03X-1275100Y1184298I300J1165D01*
G03Y1186702I0J1202D01*
G03X-1275400Y1186664I0J-1203D01*
G02X-1275900Y1187051I-100J387D01*
G01Y1197798D01*
G02X-1275500Y1198198I400J0D01*
G03Y1200602I0J1202D01*
G02X-1275900Y1201002I0J400D01*
G01Y1207586D01*
X-1275729Y1207610D01*
G03Y1209990I-171J1190D01*
G01X-1275900Y1210014D01*
Y1215000D01*
X-1268681Y1222219D01*
G02X-1268099Y1222202I283J-283D01*
G03X-1267200Y1221798I899J798D01*
G03X-1266262Y1222248I0J1203D01*
G02X-1265638I312J-250D01*
G03X-1264700Y1221798I938J753D01*
G03Y1224202I0J1202D01*
G03X-1265638Y1223752I0J-1203D01*
G02X-1266262I-312J250D01*
G03X-1266402Y1223899I-937J-753D01*
G02X-1266419Y1224481I266J299D01*
G01X-1264031Y1226869D01*
G02X-1263361Y1226690I283J-282D01*
G03X-1262200Y1225798I1161J310D01*
G03X-1260998Y1227000I0J1202D01*
G03X-1261019Y1227225I-1202J1D01*
G02X-1260626Y1227700I393J75D01*
G01X-1249574D01*
G02X-1249181Y1227225I0J-400D01*
G03X-1249202Y1227000I1181J-224D01*
G03X-1246798I1202J0D01*
G03X-1246819Y1227225I-1202J1D01*
G02X-1246426Y1227700I393J75D01*
G01X-1244574D01*
G02X-1244181Y1227225I0J-400D01*
G03X-1244202Y1227000I1181J-224D01*
G03X-1241798I1202J0D01*
G03X-1241819Y1227225I-1202J1D01*
G02X-1241426Y1227700I393J75D01*
G01X-1236088D01*
G02X-1235741Y1227100I0J-400D01*
G03X-1235902Y1226500I1041J-601D01*
G03X-1233498I1202J0D01*
G03X-1233659Y1227100I-1202J-1D01*
G02X-1233312Y1227700I347J200D01*
G01X-1231397D01*
G03X-1229803I797J901D01*
G01X-1229074D01*
G02X-1228681Y1227225I0J-400D01*
G03X-1228702Y1227000I1181J-224D01*
G03X-1226298I1202J0D01*
G03X-1226319Y1227225I-1202J1D01*
G02X-1225926Y1227700I393J75D01*
G01X-1224074D01*
G02X-1223681Y1227225I0J-400D01*
G03X-1223702Y1227000I1181J-224D01*
G03X-1221298I1202J0D01*
G03X-1221319Y1227225I-1202J1D01*
G02X-1220926Y1227700I393J75D01*
G01X-1220525D01*
G02X-1220194Y1227075I0J-400D01*
G03X-1220402Y1226400I994J-676D01*
G03X-1217998I1202J0D01*
G03X-1218206Y1227075I-1202J-1D01*
G02X-1217875Y1227700I331J225D01*
G01X-1217574D01*
G02X-1217181Y1227225I0J-400D01*
G03X-1217202Y1227000I1181J-224D01*
G03X-1214798I1202J0D01*
G03X-1214819Y1227225I-1202J1D01*
G02X-1214426Y1227700I393J75D01*
G01X-1213788D01*
G02X-1213441Y1227100I0J-400D01*
G03X-1213602Y1226500I1041J-601D01*
G03X-1211198I1202J0D01*
G03X-1211359Y1227100I-1202J-1D01*
G02X-1211012Y1227700I347J200D01*
G01X-1209086D01*
X-1209050Y1227685D01*
G03X-1208600Y1227598I449J1115D01*
G03X-1208150Y1227685I1J1202D01*
G01X-1208114Y1227700D01*
X-1175399D01*
G02X-1175000Y1227275I0J-400D01*
G03X-1175002Y1227200I1200J-70D01*
G03X-1172598I1202J0D01*
G03X-1172600Y1227275I-1202J5D01*
G02X-1172201Y1227700I399J25D01*
G01X-1166841D01*
G02X-1166481Y1227125I0J-400D01*
G03X-1166602Y1226600I1081J-526D01*
G03X-1164198I1202J0D01*
G03X-1164319Y1227125I-1202J-1D01*
G02X-1163959Y1227700I360J175D01*
G01X-1156589D01*
G02X-1156193Y1227250I-1J-400D01*
G03X-1156202Y1227100I1193J-147D01*
G03X-1153798I1202J0D01*
G03X-1153807Y1227250I-1202J3D01*
G02X-1153411Y1227700I397J50D01*
G01X-1135586D01*
X-1135550Y1227685D01*
G03X-1135100Y1227598I449J1115D01*
G03X-1134650Y1227685I1J1202D01*
G01X-1134614Y1227700D01*
X-1107541D01*
X-1107486Y1227586D01*
G03X-1105314I1086J513D01*
G01X-1105259Y1227700D01*
X-1104609D01*
Y1227396D01*
X-1104694Y1227337D01*
G03X-1105202Y1226355I695J-982D01*
G03X-1102798I1202J0D01*
G03X-1103029Y1227064I-1202J0D01*
G02X-1102706Y1227700I323J236D01*
G01X-1098897D01*
G03X-1097303I797J901D01*
G01X-1090664D01*
G03X-1090600Y1227698I70J1200D01*
G03X-1090536Y1227700I-6J1202D01*
G01X-1079299D01*
X-1079241Y1227600D01*
G03X-1077159I1041J599D01*
G01X-1077101Y1227700D01*
X-1076669D01*
Y1227403D01*
X-1076745Y1227343D01*
G03X-1077202Y1226400I744J-943D01*
G03X-1077140Y1226020I1202J1D01*
G02X-1077565Y1225496I-380J-126D01*
G03X-1077702Y1225504I-138J-1194D01*
G03X-1076500Y1224302I0J-1202D01*
G03X-1076562Y1224682I-1202J-1D01*
G02X-1076137Y1225206I380J126D01*
G03X-1076000Y1225198I138J1194D01*
G03X-1074798Y1226400I0J1202D01*
G03X-1075006Y1227075I-1202J-1D01*
G02X-1074675Y1227700I331J225D01*
G01X-1064261D01*
G02X-1063996Y1227000I0J-400D01*
G03X-1064402Y1226100I796J-901D01*
G03X-1061998I1202J0D01*
G03X-1062404Y1227000I-1202J-1D01*
G02X-1062139Y1227700I265J300D01*
G01X-1059109D01*
X-1059074Y1227543D01*
G03X-1056726I1174J257D01*
G01X-1056691Y1227700D01*
X-1056161D01*
G02X-1055896Y1227000I0J-400D01*
G03X-1056302Y1226100I796J-901D01*
G03X-1055100Y1224898I1202J0D01*
G03X-1054305Y1225199I-1J1202D01*
G02X-1053681Y1225074I264J-300D01*
G03X-1052894Y1224435I1080J527D01*
G02X-1052670Y1223810I-98J-388D01*
G03X-1052902Y1223100I970J-710D01*
G03X-1050498I1202J0D01*
G03X-1051406Y1224265I-1201J0D01*
G02X-1051630Y1224890I98J388D01*
G03X-1051398Y1225600I-970J710D01*
G03X-1052600Y1226802I-1202J0D01*
G03X-1053395Y1226501I1J-1202D01*
G02X-1054019Y1226626I-264J300D01*
G03X-1054304Y1227000I-1080J-527D01*
G02X-1054039Y1227700I265J300D01*
G01X-1053500D01*
X-1049000Y1232200D01*
X-1010322D01*
G02X-1009942Y1231675I0J-400D01*
G03X-1010002Y1231300I1142J-375D01*
G03X-1007598I1202J0D01*
G03X-1007759Y1231900I-1202J-1D01*
G01X-1007785Y1231947D01*
Y1232200D01*
G37*
G36*
G01X-1201220Y1135400D02*
X-1199000D01*
X-1197502Y1133901D01*
Y1129885D01*
X-1197103Y1129486D01*
X-1197344Y1129245D01*
X-1197471Y1129306D01*
G03X-1197900Y1129402I-428J-906D01*
G03X-1196898Y1128400I0J-1002D01*
G03X-1196921Y1128613I-1002J0D01*
G02X-1196530Y1129098I391J85D01*
G01X-1194500D01*
Y1127601D01*
G03Y1125981I590J-810D01*
G01Y1123493D01*
G03X-1194912Y1122683I590J-810D01*
G03X-1193910Y1121681I1002J0D01*
G03X-1193316Y1121876I0J1002D01*
G01X-1193178Y1121978D01*
X-1192000Y1120800D01*
Y1119996D01*
X-1192100Y1119938D01*
G03X-1192602Y1119070I499J-868D01*
G03X-1192342Y1118396I1002J-1D01*
G02X-1192355Y1117845I-296J-269D01*
G01X-1194290Y1115910D01*
G02X-1194826Y1115883I-283J283D01*
G03X-1195460Y1116109I-634J-776D01*
G03X-1196462Y1115107I0J-1002D01*
G03X-1196438Y1114888I1002J-1D01*
G02X-1196828Y1114400I-390J-88D01*
G01X-1198100D01*
X-1199000Y1113500D01*
Y1112535D01*
G02X-1199520Y1112154I-400J0D01*
G03X-1199821Y1112200I-300J-956D01*
G03X-1200823Y1111198I0J-1002D01*
G03X-1200515Y1110476I1002J1D01*
G02X-1200509Y1109905I-277J-288D01*
G03X-1200801Y1109198I710J-707D01*
G03X-1199799Y1108196I1002J0D01*
G03X-1199514Y1108237I1J1002D01*
G02X-1199000Y1107854I114J-383D01*
G01Y1099232D01*
G02X-1199601Y1098887I-400J0D01*
G03X-1200106Y1099023I-504J-866D01*
G03Y1097019I0J-1002D01*
G03X-1199601Y1097155I1J1002D01*
G02X-1199000Y1096810I201J-345D01*
G01Y1084051D01*
G02X-1199500Y1083664I-400J0D01*
G03X-1199800Y1083702I-300J-1165D01*
G03Y1081298I0J-1202D01*
G03X-1199500Y1081336I0J1203D01*
G02X-1199000Y1080949I100J-387D01*
G01Y1080200D01*
X-1199358Y1079842D01*
X-1199450Y1079850D01*
G03X-1199548Y1079854I-98J-1198D01*
G03X-1200750Y1078652I0J-1202D01*
G03X-1200746Y1078554I1202J0D01*
G01X-1200738Y1078462D01*
X-1200900Y1078300D01*
Y1076777D01*
G03Y1074823I700J-977D01*
G01Y1073064D01*
G03X-1200902Y1073000I1200J-70D01*
G03X-1200900Y1072936I1202J6D01*
G01Y1071309D01*
X-1201057Y1071274D01*
G03Y1068926I257J-1174D01*
G01X-1200900Y1068891D01*
Y1055972D01*
X-1201029Y1055923D01*
G03X-1201681Y1055326I429J-1123D01*
G02X-1202180Y1055126I-360J175D01*
G03X-1202600Y1055202I-421J-1126D01*
G03Y1052798I0J-1202D01*
G03X-1201457Y1053628I0J1202D01*
G02X-1201172Y1053743I190J-61D01*
G03X-1201029Y1053677I574J1056D01*
G01X-1200900Y1053628D01*
Y1052200D01*
X-1205500Y1047600D01*
Y1040200D01*
X-1208888Y1036812D01*
G02X-1209503Y1036871I-283J283D01*
G03X-1210500Y1037402I-997J-670D01*
G03X-1211702Y1036200I0J-1202D01*
G03X-1211171Y1035203I1201J0D01*
G02X-1211112Y1034588I-224J-332D01*
G01X-1222500Y1023200D01*
Y996600D01*
X-1234753Y984347D01*
G02X-1235434Y984590I-283J283D01*
G03X-1236630Y985672I-1196J-120D01*
G03X-1237832Y984470I0J-1202D01*
G03X-1236750Y983274I1202J0D01*
G02X-1236507Y982593I-40J-398D01*
G01X-1245446Y973654D01*
X-1245552Y973676D01*
G03X-1245800Y973702I-249J-1176D01*
G03X-1247002Y972500I0J-1202D01*
G03X-1246976Y972252I1202J1D01*
G01X-1246954Y972146D01*
X-1252393Y966707D01*
G02X-1253012Y966773I-283J283D01*
G03X-1254022Y967324I-1010J-650D01*
G03X-1255224Y966122I0J-1202D01*
G03X-1254673Y965112I1201J0D01*
G02X-1254607Y964493I-217J-336D01*
G01X-1255300Y963800D01*
X-1256634D01*
G02X-1256965Y964425I0J400D01*
G03X-1256757Y965100I-994J676D01*
G03X-1259161I-1202J0D01*
G03X-1258953Y964425I1202J1D01*
G02X-1259284Y963800I-331J-225D01*
G01X-1267900D01*
X-1268800Y964700D01*
Y973300D01*
X-1267900Y974200D01*
X-1265400D01*
X-1264100Y972900D01*
X-1258700D01*
X-1256800Y974800D01*
Y975575D01*
G02X-1256175Y975906I400J0D01*
G03X-1255500Y975698I676J994D01*
G03Y978102I0J1202D01*
G03X-1256175Y977894I1J-1202D01*
G02X-1256800Y978225I-225J331D01*
G01Y987441D01*
G02X-1256298Y987828I400J0D01*
G03X-1255990Y987788I308J1162D01*
G03Y990192I0J1202D01*
G03X-1256298Y990152I0J-1202D01*
G02X-1256800Y990539I-102J387D01*
G01Y1005300D01*
X-1255933Y1006167D01*
G02X-1255363Y1006163I283J-283D01*
G03X-1254500Y1005798I863J838D01*
G03X-1253298Y1007000I0J1202D01*
G03X-1253663Y1007863I-1203J0D01*
G02X-1253667Y1008433I279J287D01*
G01X-1251200Y1010900D01*
Y1025600D01*
X-1244750Y1032050D01*
Y1040850D01*
X-1225265Y1060335D01*
G02X-1224587Y1060114I283J-283D01*
G03X-1223400Y1059098I1187J185D01*
G03X-1222198Y1060300I0J1202D01*
G03X-1223214Y1061487I-1201J0D01*
G02X-1223435Y1062165I62J395D01*
G01X-1208700Y1076900D01*
Y1093503D01*
G03Y1095097I-901J797D01*
G01Y1096032D01*
G02X-1208079Y1096366I400J1D01*
G03X-1207524Y1096198I555J833D01*
G03Y1098202I0J1002D01*
G03X-1208079Y1098034I0J-1001D01*
G02X-1208700Y1098368I-221J333D01*
G01Y1107839D01*
G03Y1109573I-504J867D01*
G01Y1111746D01*
G02X-1208127Y1112106I400J0D01*
G03X-1207692Y1112007I434J903D01*
G03Y1114011I0J1002D01*
G03X-1208127Y1113912I-1J-1002D01*
G02X-1208700Y1114272I-173J360D01*
G01Y1114361D01*
X-1208665Y1114412D01*
G03X-1208557Y1114619I-828J564D01*
G01X-1208541Y1114659D01*
X-1205970Y1117230D01*
X-1205868Y1117212D01*
G03X-1205700Y1117198I167J988D01*
G03X-1204698Y1118200I0J1002D01*
G03X-1204950Y1118864I-1001J0D01*
G01Y1119458D01*
G02X-1204365Y1119812I400J0D01*
G03X-1203900Y1119698I464J888D01*
G03Y1121702I0J1002D01*
G03X-1204609Y1121408I0J-1002D01*
G01X-1204950Y1121550D01*
Y1121840D01*
G03Y1123526I-542J843D01*
G01Y1125777D01*
G03Y1127463I-542J843D01*
G01Y1128550D01*
X-1206500Y1130100D01*
Y1131400D01*
X-1205360Y1132540D01*
G02X-1204684Y1132334I283J-283D01*
G03X-1203701Y1131524I983J191D01*
G03X-1202897Y1131929I-1J1002D01*
G02X-1202254I321J-239D01*
G03X-1201450Y1131524I805J597D01*
G03Y1133528I0J1002D01*
G03X-1202254Y1133123I1J-1002D01*
G02X-1202897I-321J239D01*
G03X-1203509Y1133509I-804J-597D01*
G02X-1203715Y1134185I77J393D01*
G01X-1202500Y1135400D01*
X-1202122D01*
X-1202082Y1135382D01*
G03X-1201671Y1135294I411J914D01*
G03X-1201260Y1135382I0J1002D01*
G01X-1201220Y1135400D01*
G37*
G36*
G01X-1220734Y1068232D02*
G02X-1220451Y1067549I0J-400D01*
G01X-1226568Y1061432D01*
X-1226695Y1061491D01*
G03X-1227200Y1061602I-505J-1091D01*
G03X-1228399Y1060484I0J-1202D01*
G02X-1228920Y1060131I-399J28D01*
G03X-1229286Y1060188I-366J-1145D01*
G03X-1230488Y1058986I0J-1202D01*
G03X-1230141Y1058141I1202J0D01*
G01X-1230001Y1057999D01*
X-1246400Y1041600D01*
Y1032700D01*
X-1247800Y1031300D01*
X-1250100D01*
X-1250700Y1031900D01*
Y1050300D01*
X-1241129Y1059871D01*
X-1241017Y1059841D01*
G03X-1240700Y1059798I319J1159D01*
G03X-1239498Y1061000I0J1202D01*
G03X-1239541Y1061317I-1202J-2D01*
G01X-1239571Y1061429D01*
X-1223633Y1077367D01*
G02X-1223063Y1077363I283J-283D01*
G03X-1222200Y1076998I863J838D01*
G03X-1220998Y1078200I0J1202D01*
G03X-1221363Y1079063I-1203J0D01*
G02X-1221367Y1079633I279J287D01*
G01X-1220587Y1080413D01*
G02X-1219954Y1080322I282J-283D01*
G03X-1218900Y1079698I1054J578D01*
G03X-1217698Y1080900I0J1202D01*
G03X-1218300Y1081941I-1201J0D01*
G01X-1218400Y1081999D01*
Y1088228D01*
X-1218271Y1088277D01*
G03Y1090523I-429J1123D01*
G01X-1218400Y1090572D01*
Y1105600D01*
G02X-1217719Y1105885I400J0D01*
G03X-1217014Y1105595I705J712D01*
G03Y1107599I0J1002D01*
G03X-1217719Y1107309I0J-1002D01*
G02X-1218400Y1107594I-281J285D01*
G01Y1108295D01*
G03Y1109513I-797J609D01*
G01Y1109916D01*
G02X-1218079Y1110075I200J0D01*
G03X-1217472Y1109870I607J796D01*
G03Y1111874I0J1002D01*
G03X-1217849Y1111800I1J-1002D01*
G02X-1218400Y1112171I-151J371D01*
G01Y1113900D01*
X-1218083Y1114217D01*
X-1217939Y1114072D01*
X-1217936Y1114069D01*
G03X-1217197Y1113744I739J678D01*
G03X-1216195Y1114746I0J1002D01*
G03X-1216418Y1115376I-1001J0D01*
G02X-1216390Y1115910I311J251D01*
G01X-1215197Y1117103D01*
X-1215177Y1117116D01*
G03X-1214846Y1117447I-523J854D01*
G01X-1214833Y1117467D01*
X-1211801Y1120498D01*
X-1208699D01*
X-1208437Y1120237D01*
G02X-1208426Y1119682I-282J-283D01*
G03X-1208694Y1119000I734J-682D01*
G03X-1208200Y1118136I1003J0D01*
G01Y1116416D01*
X-1208852Y1115764D01*
X-1208985Y1115842D01*
G03X-1209492Y1115980I-507J-864D01*
G03X-1210494Y1114978I0J-1002D01*
G03X-1210332Y1114432I1001J0D01*
G01X-1210300Y1114382D01*
Y1114083D01*
G02X-1210885Y1113728I-400J0D01*
G03X-1211349Y1113842I-464J-887D01*
G03Y1111838I0J-1002D01*
G03X-1210885Y1111952I0J1001D01*
G02X-1210300Y1111597I185J-355D01*
G01Y1109885D01*
G02X-1210900Y1109538I-400J0D01*
G03X-1211400Y1109672I-501J-868D01*
G03Y1107668I0J-1002D01*
G03X-1210900Y1107802I-1J1002D01*
G02X-1210300Y1107455I200J-347D01*
G01Y1101229D01*
G03Y1099511I516J-859D01*
G01Y1097938D01*
G03Y1096202I499J-868D01*
G01Y1095277D01*
G03Y1093323I700J-977D01*
G01Y1089351D01*
G02X-1210800Y1088964I-400J0D01*
G03X-1211100Y1089002I-300J-1165D01*
G03Y1086598I0J-1202D01*
G03X-1210800Y1086636I0J1203D01*
G02X-1210300Y1086249I100J-387D01*
G01Y1077700D01*
X-1218849Y1069151D01*
G02X-1219532Y1069434I-283J283D01*
G03X-1220734Y1068232I-1202J0D01*
G37*
G36*
G01X-1159484Y951173D02*
G03X-1153932Y951306I2678J4161D01*
G02X-1153300Y950980I232J-326D01*
G01Y927900D01*
X-1157400Y923800D01*
X-1192900D01*
X-1194100Y925000D01*
Y933300D01*
X-1192900Y934500D01*
X-1187900D01*
X-1185900Y936500D01*
Y940743D01*
G02X-1185268Y941068I400J-1D01*
G03X-1179717Y940938I2871J4030D01*
G02X-1179100Y940602I217J-336D01*
G01Y936700D01*
X-1176900Y934500D01*
X-1162500D01*
X-1160100Y936900D01*
Y941578D01*
G03Y946254I-3595J2338D01*
G01Y950836D01*
G02X-1159484Y951173I400J0D01*
G37*
G36*
G01X-1182944Y1144400D02*
X-1180969D01*
X-1180967Y1144202D01*
G03X-1179965Y1143208I1002J8D01*
G03X-1179691Y1143246I1J1002D01*
G01X-1179578Y1143278D01*
X-1174205Y1137905D01*
G02X-1174263Y1137291I-283J-283D01*
G03X-1174702Y1136462I563J-829D01*
G03X-1172698I1002J0D01*
G03X-1172775Y1136847I-1001J0D01*
G02X-1172405Y1137400I370J153D01*
G01X-1170000D01*
X-1169300Y1136700D01*
Y1134400D01*
X-1169900Y1133800D01*
X-1175900D01*
X-1177100Y1135000D01*
X-1178887D01*
G02X-1179226Y1135612I0J400D01*
G03X-1179073Y1136144I-848J532D01*
G03X-1180075Y1137146I-1002J0D01*
G03X-1180753Y1136882I0J-1003D01*
G02X-1181363Y1136964I-271J294D01*
G03X-1181647Y1137259I-848J-533D01*
G02X-1181654Y1137915I226J330D01*
G03X-1181386Y1138201I-583J815D01*
G02X-1180717Y1138217I340J-211D01*
G03X-1179891Y1137782I826J567D01*
G03Y1139786I0J1002D01*
G03X-1180743Y1139312I0J-1003D01*
G02X-1181412Y1139296I-340J211D01*
G03X-1182228Y1139731I-826J-567D01*
G02X-1182617Y1140208I4J400D01*
G03X-1182598Y1140400I-983J194D01*
G03X-1184602I-1002J0D01*
G03X-1183610Y1139398I1002J0D01*
G02X-1183221Y1138921I-4J-400D01*
G03X-1183240Y1138729I983J-194D01*
G03X-1182803Y1137902I1001J0D01*
G02X-1182796Y1137246I-226J-330D01*
G03X-1183214Y1136432I584J-814D01*
G03X-1182212Y1135430I1002J0D01*
G03X-1181534Y1135694I0J1003D01*
G02X-1180924Y1135612I271J-294D01*
G03X-1180695Y1135357I849J532D01*
G01X-1180819Y1135000D01*
X-1182400D01*
X-1182522Y1134878D01*
G02X-1183131Y1134931I-282J283D01*
G03X-1183950Y1135355I-819J-579D01*
G03X-1184589Y1135125I0J-1003D01*
G02X-1185157Y1135184I-255J308D01*
G03X-1185940Y1135561I-783J-625D01*
G03X-1186942Y1134559I0J-1002D01*
G03X-1186561Y1133773I1001J0D01*
G02Y1133145I-248J-314D01*
G03X-1186942Y1132359I620J-786D01*
G03X-1186937Y1132262I1002J3D01*
G02X-1187439Y1131838I-398J-38D01*
G03X-1187700Y1131872I-259J-968D01*
G03X-1188702Y1130870I0J-1002D01*
G03X-1188666Y1130606I1002J2D01*
G02X-1189052Y1130100I-386J-106D01*
G01X-1190315D01*
G02X-1190713Y1130538I0J400D01*
G03X-1190708Y1130635I-997J100D01*
G03X-1191710Y1131637I-1002J0D01*
G03X-1192496Y1131256I0J-1001D01*
G02X-1193124I-314J248D01*
G03X-1193910Y1131637I-786J-620D01*
G03X-1194912Y1130635I0J-1002D01*
G03X-1194907Y1130538I1002J3D01*
G02X-1195305Y1130100I-398J-38D01*
G01X-1196300D01*
X-1196500Y1130300D01*
Y1135800D01*
X-1192977Y1139323D01*
G02X-1192432Y1139343I283J-283D01*
G03X-1191776Y1139098I656J756D01*
G03X-1190774Y1140100I0J1002D01*
G03X-1191019Y1140756I-1001J0D01*
G02X-1190999Y1141301I303J262D01*
G01X-1187900Y1144400D01*
X-1187358D01*
G03X-1187300Y1144398I64J1000D01*
G03X-1187242Y1144400I-6J1002D01*
G01X-1184928D01*
X-1184881Y1144267D01*
G03X-1182991I945J333D01*
G01X-1182944Y1144400D01*
G37*
G36*
G01X-1197800Y1163100D02*
X-1193900D01*
X-1193000Y1162200D01*
Y1160200D01*
X-1194600Y1158600D01*
Y1152728D01*
G03Y1151412I757J-658D01*
G01Y1147098D01*
G03X-1194916Y1146368I685J-730D01*
G03X-1194653Y1145691I1003J0D01*
G01X-1194600Y1145634D01*
Y1145551D01*
G02X-1195228Y1145223I-400J0D01*
G03X-1195800Y1145402I-572J-823D01*
G03Y1143398I0J-1002D01*
G03X-1194966Y1143844I0J1003D01*
G01X-1194600Y1143733D01*
Y1143217D01*
G03X-1194902Y1142500I700J-717D01*
G03X-1194650Y1141836I1001J0D01*
G01X-1194600Y1141779D01*
Y1141600D01*
X-1196800Y1139400D01*
X-1198600D01*
X-1199400Y1140200D01*
Y1141360D01*
X-1199303Y1141419D01*
G03Y1143135I-516J858D01*
G01X-1199400Y1143194D01*
Y1143540D01*
X-1199275Y1143591D01*
G03X-1198648Y1144520I-375J929D01*
G03X-1199202Y1145416I-1002J0D01*
G01X-1199231Y1145431D01*
X-1199900Y1146100D01*
Y1161000D01*
X-1197800Y1163100D01*
G37*
G36*
G01X-1068970Y970300D02*
X-1065122D01*
G02X-1064840Y969616I0J-400D01*
G03X-1065889Y967096I2502J-2520D01*
G01Y963160D01*
G03X-1058787I3551J-1D01*
G01Y967096D01*
G03X-1058825Y967615I-3551J1D01*
G01X-1058840Y967715D01*
X-1058627Y967927D01*
X-1058300Y967600D01*
Y959978D01*
G03Y946262I2457J-6858D01*
G01Y925000D01*
X-1059300Y924000D01*
X-1136300D01*
X-1138600Y926300D01*
Y967400D01*
X-1137936Y968064D01*
G02X-1137259Y967712I283J-283D01*
G03X-1137313Y967096I3497J-617D01*
G01Y963160D01*
G03X-1130211I3551J-1D01*
G01Y967096D01*
Y967141D01*
G02X-1129529Y967429I400J5D01*
G01X-1129150Y967050D01*
X-1127150D01*
X-1127100Y967000D01*
X-1076400D01*
X-1075988Y967412D01*
G02X-1075305Y967126I283J-282D01*
G01Y963160D01*
G03X-1068203I3551J-1D01*
G01Y967096D01*
G03X-1069252Y969616I-3551J0D01*
G02X-1068970Y970300I282J284D01*
G37*
%LPC*%
G75*
G36*
G01X-1271784Y986690D02*
G03X-1271864Y987234I-327J230D01*
G02X-1272323Y988179I743J945D01*
G02X-1269919I1202J0D01*
G02X-1270137Y987489I-1201J0D01*
G03X-1270057Y986945I327J-230D01*
G02X-1269598Y986000I-743J-945D01*
G02X-1272002I-1202J0D01*
G02X-1271784Y986690I1201J0D01*
G37*
G36*
G01X-1276936Y1018791D02*
G03X-1277525Y1019028I-385J-107D01*
G02X-1278139Y1018859I-615J1033D01*
G02Y1021263I0J1202D01*
G02X-1277525Y1021094I-1J-1202D01*
G03X-1276936Y1021331I204J344D01*
G02Y1018791I4553J-1270D01*
G37*
G36*
G01X-1277783Y1029288D02*
G03X-1277459Y1029790I-61J395D01*
G02X-1277502Y1030110I1159J319D01*
G02X-1276300Y1031312I1202J0D01*
G02X-1275422Y1030931I0J-1202D01*
G03X-1274898Y1030879I292J273D01*
G02X-1274200Y1031102I697J-979D01*
G02Y1028698I0J-1202D01*
G02X-1275078Y1029079I0J1202D01*
G03X-1275602Y1029131I-292J-273D01*
G02X-1276117Y1028922I-697J979D01*
G03X-1276441Y1028420I61J-395D01*
G02X-1276398Y1028100I-1159J-319D01*
G02X-1278802I-1202J0D01*
G02X-1277783Y1029288I1202J0D01*
G37*
G36*
G01X-1260344Y1032345D02*
G03X-1260368Y1032869I-314J248D01*
G02X-1260702Y1033700I867J831D01*
G02X-1259500Y1034902I1202J0D01*
G02X-1258399Y1034182I0J-1202D01*
G03X-1257925Y1033957I367J160D01*
G02X-1257600Y1034002I326J-1157D01*
G02Y1031598I0J-1202D01*
G02X-1257783Y1031612I0J1203D01*
G03X-1258233Y1031312I-62J-395D01*
G02X-1259400Y1030398I-1167J288D01*
G02X-1260602Y1031600I0J1202D01*
G02X-1260344Y1032345I1202J1D01*
G37*
G36*
G01X-1277205Y1033791D02*
G03X-1277255Y1034365I-302J263D01*
G02X-1277702Y1035300I754J935D01*
G02X-1275298I1202J0D01*
G02X-1275595Y1034509I-1202J0D01*
G03X-1275545Y1033935I302J-263D01*
G02X-1275475Y1033874I-754J-936D01*
G03X-1275175Y1033903I137J145D01*
G02X-1274200Y1034402I975J-703D01*
G02Y1031998I0J-1202D01*
G02X-1274902Y1032224I0J1203D01*
G03X-1275426Y1032174I-233J-324D01*
G02X-1276300Y1031798I-873J826D01*
G02X-1277502Y1033000I0J1202D01*
G02X-1277205Y1033791I1202J0D01*
G37*
G36*
G01X-1265009Y1034136D02*
G03X-1264884Y1034710I-203J345D01*
G02X-1265102Y1035400I983J690D01*
G02X-1262698I1202J0D01*
G02X-1262700Y1035325I-1202J-5D01*
G03X-1262323Y1034900I399J-26D01*
G02X-1261188Y1033700I-67J-1200D01*
G02X-1261486Y1032908I-1201J0D01*
G03X-1261488Y1032384I301J-263D01*
G02X-1261198Y1031600I-912J-783D01*
G02X-1262400Y1030398I-1202J0D01*
G02X-1263601Y1031561I0J1202D01*
G03X-1264101Y1031936I-400J-12D01*
G02X-1264400Y1031898I-300J1164D01*
G02X-1265602Y1033100I0J1202D01*
G02X-1265009Y1034136I1201J0D01*
G37*
G36*
G01X-1242086Y1092784D02*
G03X-1241814I136J147D01*
G02X-1241000Y1093102I814J-883D01*
G02X-1240212Y1092808I0J-1203D01*
G03X-1239688I262J302D01*
G02X-1238900Y1093102I788J-909D01*
G02Y1090698I0J-1202D01*
G02X-1239688Y1090992I0J1203D01*
G03X-1240212I-262J-302D01*
G02X-1241000Y1090698I-788J909D01*
G02X-1241814Y1091016I0J1201D01*
G03X-1242086I-136J-147D01*
G02X-1242900Y1090698I-814J883D01*
G02Y1093102I0J1202D01*
G02X-1242086Y1092784I0J-1201D01*
G37*
G36*
G01X-1265912Y1099679D02*
G03X-1265510Y1100117I4J400D01*
G02X-1265515Y1100230I1197J110D01*
G02X-1264313Y1099028I1202J0D01*
G01X-1264324D01*
G03X-1264726Y1098590I-4J-400D01*
G02X-1264721Y1098477I-1197J-110D01*
G02X-1265923Y1099679I-1202J0D01*
G01X-1265912D01*
G37*
G36*
G01X-1241961Y1104966D02*
G03X-1242085Y1105483I-353J189D01*
G02X-1242602Y1106470I684J987D01*
G02X-1240198I1202J0D01*
G02X-1240339Y1105904I-1202J-1D01*
G03X-1240215Y1105387I353J-189D01*
G02X-1239698Y1104400I-684J-987D01*
G02X-1242102I-1202J0D01*
G02X-1241961Y1104966I1202J1D01*
G37*
G36*
G01X-1248215Y1126655D02*
G03X-1248764Y1126780I-338J-214D01*
G02X-1249400Y1126598I-636J1020D01*
G02Y1129002I0J1202D01*
G02X-1248385Y1128445I0J-1203D01*
G03X-1247836Y1128320I338J214D01*
G02X-1247200Y1128502I636J-1020D01*
G02X-1246403Y1128200I0J-1203D01*
G03X-1245903Y1128175I266J299D01*
G02X-1245200Y1128402I703J-975D01*
G02X-1244588Y1128235I1J-1202D01*
G03X-1244089Y1128309I204J344D01*
G02X-1243200Y1128702I889J-809D01*
G02Y1126298I0J-1202D01*
G02X-1243812Y1126465I-1J1202D01*
G03X-1244311Y1126391I-204J-344D01*
G02X-1245200Y1125998I-889J809D01*
G02X-1245997Y1126300I0J1203D01*
G03X-1246497Y1126325I-266J-299D01*
G02X-1247200Y1126098I-703J975D01*
G02X-1248215Y1126655I0J1203D01*
G37*
G36*
G01X-1239344Y1136232D02*
G03X-1239825Y1136497I-381J-122D01*
G02X-1240125Y1136459I-300J1165D01*
G02Y1138863I0J1202D01*
G02X-1238981Y1138029I0J-1202D01*
G03X-1238500Y1137764I381J122D01*
G02X-1238200Y1137802I300J-1165D01*
G02Y1135398I0J-1202D01*
G02X-1239344Y1136232I0J1202D01*
G37*
G36*
G01X-1266624Y1137663D02*
G03X-1266585Y1138161I-292J273D01*
G02X-1266791Y1138834I996J673D01*
G02X-1264387I1202J0D01*
G02X-1264713Y1138011I-1202J0D01*
G03X-1264752Y1137513I292J-273D01*
G02X-1264546Y1136840I-996J-673D01*
G02X-1266950I-1202J0D01*
G02X-1266624Y1137663I1202J0D01*
G37*
G36*
G01X-1257942Y1019025D02*
G02X-1258002Y1019400I1142J375D01*
G02X-1256800Y1018198I1202J0D01*
G02X-1256859Y1018199I-9J1202D01*
G03X-1257258Y1017675I-19J-399D01*
G02X-1257198Y1017300I-1142J-375D01*
G02X-1258400Y1018502I-1202J0D01*
G02X-1258341Y1018501I9J-1202D01*
G03X-1257942Y1019025I19J399D01*
G37*
G36*
G01X-1276650Y1070286D02*
G02X-1277100Y1070198I-451J1114D01*
G02Y1072602I0J1202D01*
G02X-1275900Y1071464I0J-1202D01*
G03X-1275350Y1071114I400J21D01*
G02X-1274900Y1071202I451J-1114D01*
G02Y1068798I0J-1202D01*
G02X-1276100Y1069936I0J1202D01*
G03X-1276650Y1070286I-400J-21D01*
G37*
G36*
G01X-1262437Y1097206D02*
G02X-1262462Y1097451I1177J244D01*
G02X-1261260Y1096249I1202J0D01*
G02X-1261505Y1096274I-1J1202D01*
G03X-1261978Y1095801I-82J-391D01*
G02X-1261976Y1095791I-1178J-241D01*
G03X-1261503Y1095478I392J79D01*
G02X-1261260Y1095503I244J-1177D01*
G02Y1093099I0J-1202D01*
G02X-1262439Y1094066I0J1202D01*
G03X-1262912Y1094379I-392J-79D01*
G02X-1263155Y1094354I-244J1177D01*
G02Y1096758I0J1202D01*
G02X-1262910Y1096733I1J-1202D01*
G03X-1262437Y1097206I82J391D01*
G37*
G36*
G01X-1276115Y1112399D02*
G02X-1277010Y1111999I-895J801D01*
G02Y1114403I0J1202D01*
G02X-1275904Y1113672I0J-1202D01*
G03X-1275238Y1113561I368J156D01*
G02X-1274343Y1113961I895J-801D01*
G02X-1273141Y1112759I0J-1202D01*
G02X-1273622Y1111798I-1201J0D01*
G03X-1273536Y1111109I240J-320D01*
G02X-1272798Y1110000I-464J-1109D01*
G02X-1275202I-1202J0D01*
G02X-1274721Y1110961I1201J0D01*
G03X-1274807Y1111650I-240J320D01*
G02X-1275449Y1112288I464J1109D01*
G03X-1276115Y1112399I-368J-156D01*
G37*
G36*
G01X-1233246Y1116969D02*
G02X-1234202Y1117970I46J1001D01*
G02X-1232198I1002J0D01*
G02X-1232225Y1117739I-1002J0D01*
G03X-1231854Y1117247I389J-92D01*
G02X-1230898Y1116246I-46J-1001D01*
G02X-1232902I-1002J0D01*
G02X-1232875Y1116477I1002J0D01*
G03X-1233246Y1116969I-389J92D01*
G37*
G36*
G01X-1227703Y1119763D02*
G02X-1228500Y1119368I-797J607D01*
G02Y1121372I0J1002D01*
G02X-1227653Y1120906I0J-1003D01*
G03X-1226997Y1120877I338J214D01*
G02X-1226200Y1121272I797J-607D01*
G02Y1119268I0J-1002D01*
G02X-1227047Y1119734I0J1003D01*
G03X-1227703Y1119763I-338J-214D01*
G37*
G36*
G01X-1267590Y1121945D02*
G02X-1268175Y1122976I616J1031D01*
G02X-1265771I1202J0D01*
G02X-1266348Y1121949I-1202J0D01*
G03X-1266346Y1121264I208J-342D01*
G02X-1265761Y1120233I-616J-1031D01*
G02X-1268165I-1202J0D01*
G02X-1267588Y1121260I1202J0D01*
G03X-1267590Y1121945I-208J342D01*
G37*
G36*
G01X-1220107Y1123900D02*
G02X-1220486Y1124685I623J785D01*
G02X-1218482I1002J0D01*
G02X-1218799Y1123953I-1002J-1D01*
G03X-1218774Y1123348I273J-292D01*
G02X-1218646Y1123226I-625J-783D01*
G03X-1218019Y1123260I300J265D01*
G02X-1217200Y1123685I819J-577D01*
G02Y1121681I0J-1002D01*
G02X-1217951Y1122020I0J1001D01*
G03X-1218578Y1121986I-300J-265D01*
G02X-1219397Y1121561I-819J577D01*
G02X-1220399Y1122563I0J1002D01*
G02X-1220082Y1123295I1002J1D01*
G03X-1220107Y1123900I-273J292D01*
G37*
G36*
G01X-1262126Y1124066D02*
G02X-1262680Y1125078I647J1012D01*
G02X-1260276I1202J0D01*
G02X-1260926Y1124010I-1202J0D01*
G03X-1260958Y1123318I184J-355D01*
G02X-1260404Y1122306I-647J-1012D01*
G02X-1262808I-1202J0D01*
G02X-1262158Y1123374I1202J0D01*
G03X-1262126Y1124066I-184J355D01*
G37*
G36*
G01X-1216708Y1126158D02*
G02X-1217423Y1125858I-715J702D01*
G02Y1127862I0J1002D01*
G02X-1216573Y1127390I0J-1001D01*
G03X-1215948Y1127322I339J212D01*
G02X-1215233Y1127622I715J-702D01*
G02X-1214231Y1126620I0J-1002D01*
G02X-1214274Y1126330I-1002J0D01*
G03X-1213825Y1125820I383J-115D01*
G02X-1213659Y1125834I167J-988D01*
G02X-1214661Y1124832I0J-1002D01*
G02X-1214618Y1125122I1002J0D01*
G03X-1215067Y1125632I-383J115D01*
G02X-1215233Y1125618I-167J988D01*
G02X-1216083Y1126090I0J1001D01*
G03X-1216708Y1126158I-339J-212D01*
G37*
G36*
G01X-1227491Y1130268D02*
X-1227500D01*
G02X-1226498Y1131270I0J1002D01*
G02X-1226508Y1131128I-1002J-1D01*
G03X-1226109Y1130672I396J-56D01*
G01X-1226100D01*
G02X-1227102Y1129670I0J-1002D01*
G02X-1227092Y1129812I1002J1D01*
G03X-1227491Y1130268I-396J56D01*
G37*
G36*
G01X-1275136Y1130396D02*
G02X-1275502Y1131260I837J864D01*
G02X-1273098I1202J0D01*
G02X-1273621Y1130268I-1202J0D01*
G03X-1273673Y1129651I226J-330D01*
G02X-1273307Y1128787I-837J-864D01*
G02X-1275711I-1202J0D01*
G02X-1275188Y1129779I1202J0D01*
G03X-1275136Y1130396I-226J330D01*
G37*
G36*
G01X-1284337Y1130837D02*
G02X-1284702Y1131700I838J863D01*
G02X-1282298I1202J0D01*
G02X-1283195Y1130537I-1202J0D01*
G03X-1283372Y1129863I101J-387D01*
G02X-1283007Y1129000I-838J-863D01*
G02X-1285411I-1202J0D01*
G02X-1284514Y1130163I1202J0D01*
G03X-1284337Y1130837I-101J387D01*
G37*
G36*
G01X-1234061Y1148415D02*
G02X-1234102Y1148700I961J284D01*
G02X-1232098I1002J0D01*
G02X-1233068Y1147698I-1003J0D01*
G03X-1233439Y1147185I12J-399D01*
G02X-1233398Y1146900I-961J-284D01*
G02X-1235402I-1002J0D01*
G02X-1234432Y1147902I1003J0D01*
G03X-1234061Y1148415I-12J399D01*
G37*
G36*
G01X-1243202Y1148719D02*
G02X-1243302Y1149200I1102J480D01*
G02X-1242100Y1150402I1202J0D01*
G02X-1240989Y1149659I0J-1202D01*
G03X-1240356Y1149511I370J153D01*
G02X-1239566Y1149807I790J-906D01*
G02Y1147403I0J-1202D01*
G02X-1240677Y1148146I0J1202D01*
G03X-1241310Y1148294I-370J-153D01*
G02X-1241824Y1148030I-790J906D01*
G03X-1242098Y1147481I92J-389D01*
G02X-1241998Y1147000I-1102J-480D01*
G02X-1244402I-1202J0D01*
G02X-1243476Y1148170I1202J0D01*
G03X-1243202Y1148719I-92J389D01*
G37*
G36*
G01X-1212570Y974572D02*
G03X-1213070I-250J-313D01*
G02X-1213820Y974309I-750J938D01*
G02Y976713I0J1202D01*
G02X-1213070Y976450I0J-1201D01*
G03X-1212570I250J313D01*
G02X-1211820Y976713I750J-938D01*
G02Y974309I0J-1202D01*
G02X-1212570Y974572I0J1201D01*
G37*
G36*
G01X-1207926Y977374D02*
G03X-1207876Y977898I-274J291D01*
G02X-1208102Y978600I977J702D01*
G02X-1205698I1202J0D01*
G02X-1205818Y978075I-1202J-1D01*
G03X-1205444Y977501I360J-174D01*
G02X-1205400Y977502I49J-1201D01*
G02Y975098I0J-1202D01*
G02X-1206349Y975562I0J1202D01*
G02X-1207100Y975298I-752J938D01*
G02X-1208302Y976500I0J1202D01*
G02X-1207926Y977374I1202J1D01*
G37*
G36*
G01X-1067736Y996392D02*
G03X-1067389Y996816I-52J397D01*
G02X-1067392Y996900I1199J85D01*
G02X-1064988I1202J0D01*
G02X-1066034Y995708I-1202J0D01*
G03X-1066381Y995284I52J-397D01*
G02X-1066378Y995200I-1199J-85D01*
G02X-1068782I-1202J0D01*
G02X-1067736Y996392I1202J0D01*
G37*
G36*
G01X-1203381Y996571D02*
G02X-1203198Y995934I-1019J-637D01*
G02X-1205602I-1202J0D01*
G02X-1205119Y996897I1202J0D01*
G02X-1205302Y997534I1019J637D01*
G02X-1202898I1202J0D01*
G02X-1203381Y996571I-1202J0D01*
G37*
G36*
G01X-1101990Y1014841D02*
G03X-1102114Y1015333I-362J170D01*
G02X-1102602Y1016300I714J967D01*
G02X-1100198I1202J0D01*
G02X-1100313Y1015787I-1202J0D01*
G03X-1100189Y1015295I362J-170D01*
G02X-1099701Y1014328I-714J-967D01*
G02X-1102105I-1202J0D01*
G02X-1101990Y1014841I1202J0D01*
G37*
G36*
G01X-1092783Y1015315D02*
G03X-1092659Y1015832I-229J328D01*
G02X-1092802Y1016400I1059J569D01*
G02X-1090398I1202J0D01*
G02X-1090914Y1015413I-1202J0D01*
G03X-1091038Y1014896I229J-328D01*
G02X-1090895Y1014328I-1059J-569D01*
G02X-1093299I-1202J0D01*
G02X-1092783Y1015315I1202J0D01*
G37*
G36*
G01X-1098621Y1015359D02*
G03X-1098495Y1015926I-206J343D01*
G02X-1098702Y1016600I994J674D01*
G02X-1097500Y1017802I1202J0D01*
G02X-1096750Y1017539I0J-1201D01*
G03X-1096250I250J313D01*
G02X-1095500Y1017802I750J-938D01*
G02X-1094298Y1016600I0J-1202D01*
G02X-1094505Y1015926I-1201J0D01*
G03X-1094379Y1015359I332J-224D01*
G02X-1093795Y1014328I-618J-1031D01*
G02X-1096199I-1202J0D01*
G02X-1095992Y1015002I1201J0D01*
G03X-1096118Y1015569I-332J224D01*
G02X-1096250Y1015661I620J1030D01*
G03X-1096750I-250J-313D01*
G02X-1096882Y1015569I-752J938D01*
G03X-1097008Y1015002I206J-343D01*
G02X-1096801Y1014328I-994J-674D01*
G02X-1099205I-1202J0D01*
G02X-1098621Y1015359I1202J0D01*
G37*
G36*
G01X-1015606Y1021031D02*
G03X-1015478Y1021260I-68J188D01*
G02X-1015502Y1021500I1178J239D01*
G02X-1013098I1202J0D01*
G02X-1013894Y1020369I-1201J0D01*
G03X-1014022Y1020140I68J-188D01*
G02X-1013998Y1019900I-1178J-239D01*
G02X-1016402I-1202J0D01*
G02X-1015606Y1021031I1201J0D01*
G37*
G36*
G01X-1025281Y1022874D02*
G03X-1025780Y1023074I-360J-175D01*
G02X-1026200Y1022998I-421J1126D01*
G02Y1025402I0J1202D01*
G02X-1025119Y1024726I0J-1202D01*
G03X-1024620Y1024526I360J175D01*
G02X-1024200Y1024602I421J-1126D01*
G02Y1022198I0J-1202D01*
G02X-1025281Y1022874I0J1202D01*
G37*
G36*
G01X-1037965Y1023865D02*
G03X-1038514Y1023890I-288J-278D01*
G02X-1039300Y1023598I-785J910D01*
G02Y1026002I0J1202D01*
G02X-1038435Y1025635I0J-1203D01*
G03X-1037886Y1025610I288J278D01*
G02X-1037100Y1025902I785J-910D01*
G02Y1023498I0J-1202D01*
G02X-1037965Y1023865I0J1203D01*
G37*
G36*
G01X-1162762Y1025321D02*
G03X-1162776Y1025577I-160J120D01*
G02X-1163102Y1026400I876J823D01*
G02X-1161900Y1027602I1202J0D01*
G02X-1161179Y1027362I0J-1203D01*
G03X-1160923Y1027376I120J160D01*
G02X-1160100Y1027702I823J-876D01*
G02X-1158898Y1026500I0J-1202D01*
G02X-1159138Y1025779I-1203J0D01*
G03X-1159124Y1025523I160J-120D01*
G02X-1158798Y1024700I-876J-823D01*
G02X-1160000Y1023498I-1202J0D01*
G02X-1160721Y1023738I0J1203D01*
G03X-1160977Y1023724I-120J-160D01*
G02X-1161800Y1023398I-823J876D01*
G02X-1163002Y1024600I0J1202D01*
G02X-1162762Y1025321I1203J0D01*
G37*
G36*
G01X-1073179Y1031129D02*
G03X-1072611Y1031300I207J343D01*
G02X-1071525Y1031987I1086J-515D01*
G02Y1029583I0J-1202D01*
G02X-1072146Y1029756I0J1201D01*
G03X-1072714Y1029585I-207J-343D01*
G02X-1073800Y1028898I-1086J515D01*
G02Y1031302I0J1202D01*
G02X-1073179Y1031129I0J-1201D01*
G37*
G36*
G01X-1045350Y1030261D02*
G02X-1046100Y1029998I-750J938D01*
G02X-1047302Y1031200I0J1202D01*
G02X-1047085Y1031889I1202J0D01*
G02X-1047502Y1032800I785J910D01*
G02X-1046300Y1034002I1202J0D01*
G02X-1045450Y1033650I0J-1202D01*
G02X-1044600Y1034002I850J-850D01*
G02X-1043398Y1032800I0J-1202D01*
G02X-1043703Y1032000I-1202J0D01*
G02X-1043398Y1031200I-897J-800D01*
G02X-1044600Y1029998I-1202J0D01*
G02X-1045350Y1030261I0J1201D01*
G37*
G36*
G01X-1144785Y1032080D02*
G02X-1144498Y1031300I-915J-780D01*
G02X-1146902I-1202J0D01*
G02X-1146615Y1032080I1202J0D01*
G02X-1146902Y1032860I915J780D01*
G02X-1144498I1202J0D01*
G02X-1144785Y1032080I-1202J0D01*
G37*
G36*
G01X-1105774Y1033590D02*
G03X-1105399Y1034017I-24J399D01*
G02X-1105402Y1034100I1199J85D01*
G02X-1102998I1202J0D01*
G02X-1104126Y1032900I-1202J0D01*
G03X-1104501Y1032473I24J-399D01*
G02X-1104498Y1032390I-1199J-85D01*
G02X-1105700Y1031188I-1202J0D01*
G02X-1105776Y1031190I-6J1202D01*
G03X-1106201Y1030818I-26J-399D01*
G02X-1107400Y1029698I-1199J82D01*
G02Y1032102I0J1202D01*
G02X-1107324Y1032100I6J-1202D01*
G03X-1106899Y1032472I26J399D01*
G02X-1105774Y1033590I1199J-82D01*
G37*
G36*
G01X-1158399Y1033598D02*
G03X-1158324Y1034106I-266J299D01*
G02X-1158502Y1034736I1024J630D01*
G02X-1156098I1202J0D01*
G02X-1156131Y1034455I-1202J-1D01*
G03X-1155704Y1033964I389J-93D01*
G02X-1155590Y1033969I110J-1197D01*
G02Y1031565I0J-1202D01*
G02X-1156313Y1031807I0J1201D01*
G03X-1156815Y1031790I-240J-320D01*
G02X-1157223Y1031559I-785J910D01*
G03X-1157496Y1031134I125J-380D01*
G02X-1157488Y1031000I-1194J-139D01*
G02X-1159892I-1202J0D01*
G02X-1159067Y1032141I1202J0D01*
G03X-1158794Y1032566I-125J380D01*
G02X-1158802Y1032700I1194J139D01*
G02X-1158399Y1033598I1202J0D01*
G37*
G36*
G01X-1117223Y1035576D02*
G03X-1117257Y1036167I-286J280D01*
G02X-1117702Y1037100I757J934D01*
G02X-1115298I1202J0D01*
G02X-1115641Y1036260I-1202J1D01*
G03X-1115607Y1035669I286J-280D01*
G02X-1115162Y1034736I-757J-934D01*
G02X-1117566I-1202J0D01*
G02X-1117223Y1035576I1202J-1D01*
G37*
G36*
G01X-1142983Y1036796D02*
G02X-1142705Y1036027I-925J-769D01*
G02X-1145109I-1202J0D01*
G02X-1144776Y1036858I1203J0D01*
G02X-1145054Y1037627I925J769D01*
G02X-1142650I1202J0D01*
G02X-1142983Y1036796I-1203J0D01*
G37*
G36*
G01X-1043214Y1036752D02*
G03X-1043388Y1037252I-370J151D01*
G02X-1044002Y1038300I587J1048D01*
G02X-1041598I1202J0D01*
G02X-1041686Y1037848I-1202J-1D01*
G03X-1041512Y1037348I370J-151D01*
G02X-1040898Y1036300I-587J-1048D01*
G02X-1043302I-1202J0D01*
G02X-1043214Y1036752I1202J1D01*
G37*
G36*
G01X-1027397Y1036988D02*
G03X-1027896Y1037337I-398J-38D01*
G02X-1028200Y1037298I-304J1163D01*
G02Y1039702I0J1202D01*
G02X-1027456Y1039444I0J-1202D01*
G02X-1026600Y1039802I856J-844D01*
G02X-1025398Y1038600I0J-1202D01*
G02X-1025513Y1038086I-1202J-1D01*
G02X-1024998Y1037100I-686J-986D01*
G02X-1025356Y1036244I-1202J0D01*
G02X-1025098Y1035500I-944J-744D01*
G02X-1027502I-1202J0D01*
G02X-1027144Y1036356I1202J0D01*
G02X-1027397Y1036988I944J744D01*
G37*
G36*
G01X-1082922Y1042272D02*
G03Y1042528I-153J128D01*
G02X-1083202Y1043300I922J771D01*
G02X-1080798I1202J0D01*
G02X-1081078Y1042528I-1202J-1D01*
G03Y1042272I153J-128D01*
G02X-1080798Y1041500I-922J-771D01*
G02X-1083202I-1202J0D01*
G02X-1082922Y1042272I1202J1D01*
G37*
G36*
G01X-1073310Y1044370D02*
G03X-1073235Y1044944I-236J323D01*
G02X-1073502Y1045700I935J755D01*
G02X-1071098I1202J0D01*
G02X-1071590Y1044730I-1202J0D01*
G03X-1071665Y1044156I236J-323D01*
G02X-1071398Y1043400I-935J-755D01*
G02X-1073802I-1202J0D01*
G02X-1073310Y1044370I1202J0D01*
G37*
G36*
G01X-1097025Y1046626D02*
G03X-1097575I-275J-291D01*
G02X-1098400Y1046298I-825J874D01*
G02Y1048702I0J1202D01*
G02X-1097575Y1048374I0J-1202D01*
G03X-1097025I275J291D01*
G02X-1096200Y1048702I825J-874D01*
G02Y1046298I0J-1202D01*
G02X-1097025Y1046626I0J1202D01*
G37*
G36*
G01X-1083208Y1053388D02*
G03Y1053912I-302J262D01*
G02X-1083502Y1054700I909J788D01*
G02X-1081098I1202J0D01*
G02X-1081392Y1053912I-1203J0D01*
G03Y1053388I302J-262D01*
G02X-1081098Y1052600I-909J-788D01*
G02X-1083502I-1202J0D01*
G02X-1083208Y1053388I1203J0D01*
G37*
G36*
G01X-1055190Y1062968D02*
G03X-1055515Y1063417I-396J55D01*
G02X-1056502Y1064600I215J1183D01*
G02X-1054098I1202J0D01*
G02X-1054110Y1064432I-1202J1D01*
G03X-1053785Y1063983I396J-55D01*
G02X-1052798Y1062800I-215J-1183D01*
G02X-1055202I-1202J0D01*
G02X-1055190Y1062968I1202J-1D01*
G37*
G36*
G01X-1051689Y1080150D02*
G03X-1051889Y1080335I-199J-15D01*
G02X-1051890Y1082739I-1J1202D01*
G02X-1050691Y1081624I0J-1202D01*
G03X-1050491Y1081439I199J15D01*
G02X-1049304Y1080433I1J-1202D01*
G03X-1048882Y1080099I395J65D01*
G02X-1048800Y1080102I85J-1199D01*
G02X-1047830Y1079610I0J-1202D01*
G03X-1047256Y1079535I323J236D01*
G02X-1046500Y1079802I755J-935D01*
G02Y1077398I0J-1202D01*
G02X-1047470Y1077890I0J1202D01*
G03X-1048044Y1077965I-323J-236D01*
G02X-1048800Y1077698I-755J935D01*
G02X-1049986Y1078704I0J1202D01*
G03X-1050408Y1079038I-395J-65D01*
G02X-1050490Y1079035I-85J1199D01*
G02X-1051689Y1080150I0J1202D01*
G37*
G36*
G01X-1070973Y1081027D02*
G03X-1070998Y1081601I-290J275D01*
G02X-1071402Y1082500I798J899D01*
G02X-1068998I1202J0D01*
G02X-1069327Y1081673I-1202J-1D01*
G03X-1069302Y1081099I290J-275D01*
G02X-1068898Y1080200I-798J-899D01*
G02X-1071302I-1202J0D01*
G02X-1070973Y1081027I1202J1D01*
G37*
G36*
G01X-1079079Y1077730D02*
G03X-1079331Y1078292I-359J177D01*
G02X-1076101Y1079034I927J3364D01*
G03X-1075953Y1078351I264J-300D01*
G02X-1075098Y1077200I-347J-1151D01*
G02X-1076300Y1075998I-1202J0D01*
G02X-1077150Y1076350I0J1202D01*
G02X-1078000Y1075998I-850J850D01*
G02X-1079202Y1077200I0J1202D01*
G02X-1079079Y1077730I1203J0D01*
G37*
G36*
G01X-1086125Y1088326D02*
G03X-1086675I-275J-291D01*
G02X-1087500Y1087998I-825J874D01*
G02Y1090402I0J1202D01*
G02X-1086675Y1090074I0J-1202D01*
G03X-1086125I275J291D01*
G02X-1085300Y1090402I825J-874D01*
G02Y1087998I0J-1202D01*
G02X-1086125Y1088326I0J1202D01*
G37*
G36*
G01X-1064950Y1092350D02*
G02X-1064100Y1092702I850J-850D01*
G02Y1090298I0J-1202D01*
G02X-1064950Y1090650I0J1202D01*
G02X-1065800Y1090298I-850J850D01*
G02Y1092702I0J1202D01*
G02X-1064950Y1092350I0J-1202D01*
G37*
G36*
G01X-1061306Y1093798D02*
G03X-1060881Y1094123I32J399D01*
G02X-1059700Y1095102I1181J-223D01*
G02Y1092698I0J-1202D01*
G02X-1059794Y1092702I4J1202D01*
G03X-1060219Y1092377I-32J-399D01*
G02X-1061400Y1091398I-1181J223D01*
G02Y1093802I0J1202D01*
G02X-1061306Y1093798I-4J-1202D01*
G37*
G36*
G01X-1094568Y1103631D02*
G03X-1094544Y1104155I-290J276D01*
G02X-1094802Y1104900I944J744D01*
G02X-1092398I1202J0D01*
G02X-1092732Y1104069I-1201J0D01*
G03X-1092756Y1103545I290J-276D01*
G02X-1092498Y1102800I-944J-744D01*
G02X-1094902I-1202J0D01*
G02X-1094568Y1103631I1201J0D01*
G37*
G36*
G01X-1047934Y1106433D02*
G03X-1048011Y1106926I-347J198D01*
G02X-1048402Y1107813I811J887D01*
G02X-1045998I1202J0D01*
G02X-1046156Y1107217I-1203J0D01*
G03X-1046079Y1106724I347J-198D01*
G02X-1045688Y1105837I-811J-887D01*
G02X-1048092I-1202J0D01*
G02X-1047934Y1106433I1203J0D01*
G37*
G36*
G01X-1026302Y1109699D02*
Y1109700D01*
G02X-1025100Y1108498I1202J0D01*
G02X-1025174Y1108500I-5J1202D01*
G03X-1025598Y1108101I-24J-399D01*
G01Y1108100D01*
G02X-1026800Y1109302I-1202J0D01*
G02X-1026726Y1109300I5J-1202D01*
G03X-1026302Y1109699I24J399D01*
G37*
G36*
G01X-1061880Y1110627D02*
G03X-1062005Y1111127I-360J176D01*
G02X-1062502Y1112100I704J973D01*
G02X-1060098I1202J0D01*
G02X-1060220Y1111573I-1202J1D01*
G03X-1060095Y1111073I360J-176D01*
G02X-1059598Y1110100I-704J-973D01*
G02X-1059600Y1110035I-1202J4D01*
G03X-1059267Y1109619I400J-21D01*
G02X-1058264Y1108434I-199J-1185D01*
G02X-1060668I-1202J0D01*
G02X-1060666Y1108499I1202J-4D01*
G03X-1060999Y1108915I-400J21D01*
G02X-1062002Y1110100I199J1185D01*
G02X-1061880Y1110627I1202J-1D01*
G37*
G36*
G01X-1005302Y1109899D02*
G03X-1005701Y1110298I-400J-1D01*
G02X-1006902Y1111500I1J1202D01*
G02X-1005700Y1112702I1202J0D01*
G02X-1005278Y1112625I-1J-1202D01*
G03X-1005035Y1112711I70J187D01*
G02X-1004000Y1113302I1035J-611D01*
G02X-1002798Y1112100I0J-1202D01*
G02X-1003165Y1111235I-1203J0D01*
G03X-1003190Y1110686I278J-288D01*
G02X-1003064Y1110509I-912J-783D01*
G03X-1002490Y1110384I345J203D01*
G02X-1001800Y1110602I690J-983D01*
G02X-1000598Y1109400I0J-1202D01*
G02X-1001155Y1108385I-1203J0D01*
G03X-1001280Y1107836I214J-338D01*
G02X-1001199Y1107682I-1021J-635D01*
G03X-1000885Y1107610I184J80D01*
G02X-1000100Y1107902I785J-909D01*
G02X-998898Y1106700I0J-1202D01*
G02X-999639Y1105590I-1202J0D01*
G03X-999863Y1105091I154J-369D01*
G02X-999798Y1104700I-1137J-390D01*
G02X-999906Y1104202I-1202J0D01*
G03X-999792Y1103931I182J-83D01*
G02X-999776Y1103925I-414J-1129D01*
G03X-999519Y1104039I71J187D01*
G02X-998400Y1104802I1119J-439D01*
G02Y1102398I0J-1202D01*
G02X-998824Y1102475I-1J1202D01*
G03X-999081Y1102361I-71J-187D01*
G02X-999143Y1102228I-1118J440D01*
G03X-999028Y1101943I176J-95D01*
G02X-998427Y1101505I-373J-1143D01*
G03X-997927Y1101380I324J235D01*
G02X-997400Y1101502I528J-1080D01*
G02X-996198Y1100300I0J-1202D01*
G02X-997250Y1099107I-1202J0D01*
G03X-997600Y1098733I49J-397D01*
G02X-997720Y1098273I-1200J67D01*
G03X-997595Y1097773I360J-176D01*
G02X-997148Y1097144I-704J-974D01*
G03X-996948Y1097001I192J57D01*
G02X-996900Y1097002I49J-1201D01*
G02Y1094598I0J-1202D01*
G02X-998052Y1095456I0J1202D01*
G03X-998252Y1095599I-192J-57D01*
G02X-998300Y1095598I-49J1201D01*
G02X-999502Y1096800I0J1202D01*
G02X-999380Y1097327I1202J-1D01*
G03X-999505Y1097827I-360J176D01*
G02X-1000002Y1098800I704J973D01*
G02X-999898Y1099288I1202J-1D01*
G03X-1000048Y1099788I-366J163D01*
G02X-1000602Y1100800I647J1012D01*
G02X-1000526Y1101220I1202J-1D01*
G03X-1000726Y1101719I-375J139D01*
G02X-1001402Y1102800I526J1081D01*
G02X-1001348Y1103156I1202J0D01*
G03X-1001548Y1103630I-382J118D01*
G02X-1002202Y1104700I548J1070D01*
G02X-1001297Y1105865I1202J0D01*
G03X-1001169Y1106150I-50J194D01*
G02X-1001201Y1106218I1071J546D01*
G03X-1001515Y1106290I-184J-80D01*
G02X-1002300Y1105998I-785J909D01*
G02X-1003502Y1107200I0J1202D01*
G02X-1002945Y1108215I1203J0D01*
G03X-1002820Y1108764I-214J338D01*
G02X-1002836Y1108791I1026J626D01*
G03X-1003410Y1108916I-345J-203D01*
G02X-1004100Y1108698I-690J983D01*
G02X-1005302Y1109899I0J1202D01*
G37*
G36*
G01X-1016157Y1111175D02*
G03X-1016385Y1111317I-192J-55D01*
G02X-1016600Y1111298I-213J1183D01*
G02Y1113702I0J1202D01*
G02X-1015443Y1112825I0J-1202D01*
G03X-1015215Y1112683I192J55D01*
G02X-1015000Y1112702I213J-1183D01*
G02X-1013798Y1111500I0J-1202D01*
G01Y1111489D01*
G03X-1013627Y1111289I200J-2D01*
G02X-1012737Y1110661I-173J-1189D01*
G03X-1012509Y1110562I176J94D01*
G02X-1012200Y1110602I308J-1162D01*
G02X-1010998Y1109400I0J-1202D01*
G02X-1011092Y1108935I-1202J1D01*
G03X-1010783Y1108385I369J-154D01*
G02X-1012926Y1107815I-418J-2742D01*
G03X-1012931Y1108446I-249J314D01*
G02X-1013263Y1108839I731J954D01*
G03X-1013491Y1108938I-176J-94D01*
G02X-1013800Y1108898I-308J1162D01*
G02X-1015002Y1110100I0J1202D01*
G01Y1110111D01*
G03X-1015173Y1110311I-200J2D01*
G02X-1016157Y1111175I173J1189D01*
G37*
G36*
G01X-1011839Y1122450D02*
G02X-1012102Y1123200I938J750D01*
G02X-1011750Y1124050I1202J0D01*
G02X-1012102Y1124900I850J850D01*
G02X-1009698I1202J0D01*
G02X-1010050Y1124050I-1202J0D01*
G02X-1009698Y1123200I-850J-850D01*
G02X-1009961Y1122450I-1201J0D01*
G03Y1121950I313J-250D01*
G02Y1120450I-938J-750D01*
G03Y1119950I313J-250D01*
G02X-1009698Y1119200I-938J-750D01*
G02X-1012102I-1202J0D01*
G02X-1011839Y1119950I1201J0D01*
G03Y1120450I-313J250D01*
G02Y1121950I938J750D01*
G03Y1122450I-313J250D01*
G37*
G36*
G01X-1062439Y1125150D02*
G03Y1125650I-313J250D01*
G02X-1062702Y1126400I938J750D01*
G02X-1061500Y1127602I1202J0D01*
G02X-1060551Y1127138I0J-1202D01*
G02X-1059800Y1127402I752J-938D01*
G02X-1058598Y1126200I0J-1202D01*
G02X-1058878Y1125428I-1202J-1D01*
G03Y1125172I153J-128D01*
G02X-1058598Y1124400I-922J-771D01*
G02X-1059800Y1123198I-1202J0D01*
G02X-1060650Y1123550I0J1202D01*
G02X-1061500Y1123198I-850J850D01*
G02X-1062702Y1124400I0J1202D01*
G02X-1062439Y1125150I1201J0D01*
G37*
G36*
G01X-1119326Y1126292D02*
G03X-1118979Y1126716I-52J397D01*
G02X-1118982Y1126800I1199J85D01*
G02X-1116578I1202J0D01*
G02X-1117624Y1125608I-1202J0D01*
G03X-1117971Y1125184I52J-397D01*
G02X-1117968Y1125100I-1199J-85D01*
G02X-1120372I-1202J0D01*
G02X-1119326Y1126292I1202J0D01*
G37*
G36*
G01X-1140519Y1127584D02*
G03X-1140319Y1128091I-172J361D01*
G02X-1140402Y1128530I1119J439D01*
G02X-1137998I1202J0D01*
G02X-1138681Y1127446I-1202J0D01*
G03X-1138881Y1126939I172J-361D01*
G02X-1138798Y1126500I-1119J-439D01*
G02X-1138840Y1126186I-1202J1D01*
G03X-1138640Y1125728I386J-104D01*
G02X-1137998Y1124664I-561J-1064D01*
G02X-1140402I-1202J0D01*
G02X-1140360Y1124978I1202J-1D01*
G03X-1140560Y1125436I-386J104D01*
G02X-1141202Y1126500I561J1064D01*
G02X-1140519Y1127584I1202J0D01*
G37*
G36*
G01X-1145966Y1127792D02*
G03X-1145639Y1128316I-52J397D01*
G02X-1145702Y1128700I1139J384D01*
G02X-1143298I1202J0D01*
G02X-1143663Y1127837I-1203J0D01*
G03Y1127263I278J-287D01*
G02X-1143298Y1126400I-838J-863D01*
G02X-1143638Y1125562I-1203J0D01*
G03X-1143630Y1124996I286J-279D01*
G02X-1143265Y1124133I-838J-863D01*
G02X-1145669I-1202J0D01*
G02X-1145188Y1125095I1202J0D01*
G03X-1145193Y1125418I-120J160D01*
G02X-1145306Y1125509I696J980D01*
G02X-1145810Y1125398I-504J1091D01*
G02X-1147012Y1126600I0J1202D01*
G02X-1145966Y1127792I1202J0D01*
G37*
G36*
G01X-1076885Y1133718D02*
G03X-1077008Y1134212I-361J173D01*
G02X-1077497Y1135180I714J968D01*
G02X-1075093I1202J0D01*
G02X-1075210Y1134662I-1202J-1D01*
G03X-1075087Y1134168I361J-173D01*
G02X-1074598Y1133200I-714J-968D01*
G02X-1077002I-1202J0D01*
G02X-1076885Y1133718I1202J1D01*
G37*
G36*
G01X-1071161Y1134910D02*
G03X-1070937Y1135409I-154J369D01*
G02X-1071002Y1135800I1137J390D01*
G02X-1068598I1202J0D01*
G02X-1069339Y1134690I-1202J0D01*
G03X-1069563Y1134191I154J-369D01*
G02X-1069498Y1133800I-1137J-390D01*
G02X-1071902I-1202J0D01*
G02X-1071161Y1134910I1202J0D01*
G37*
G36*
G01X-1096855Y1136666D02*
G03X-1096705Y1137241I-184J355D01*
G02X-1096902Y1137900I1004J659D01*
G02X-1094498I1202J0D01*
G02X-1094618Y1137376I-1202J0D01*
G03X-1094247Y1136802I360J-174D01*
G01X-1094213D01*
G02Y1134398I0J-1202D01*
G02X-1094996Y1134688I0J1202D01*
G03X-1095517I-261J-303D01*
G02X-1096300Y1134398I-783J912D01*
G02X-1097502Y1135600I0J1202D01*
G02X-1096855Y1136666I1202J0D01*
G37*
G36*
G01X-1041022Y1137834D02*
G03X-1041008Y1138374I-288J278D01*
G02X-1041302Y1139162I909J788D01*
G02X-1038898I1202J0D01*
G02X-1039234Y1138328I-1203J0D01*
G03X-1039248Y1137788I288J-278D01*
G02X-1038954Y1137000I-909J-788D01*
G02X-1041358I-1202J0D01*
G02X-1041022Y1137834I1203J0D01*
G37*
G36*
G01X-1008867Y1137984D02*
G03Y1138510I-301J263D01*
G02X-1009163Y1139300I906J790D01*
G02X-1006759I1202J0D01*
G02X-1007055Y1138510I-1202J0D01*
G03Y1137984I301J-263D01*
G02X-1006759Y1137194I-906J-790D01*
G02X-1009163I-1202J0D01*
G02X-1008867Y1137984I1202J0D01*
G37*
G36*
G01X-1090450Y1138250D02*
G02Y1139950I850J850D01*
G02X-1090802Y1140800I850J850D01*
G02X-1088398I1202J0D01*
G02X-1088750Y1139950I-1202J0D01*
G02Y1138250I-850J-850D01*
G02X-1088398Y1137400I-850J-850D01*
G02X-1088661Y1136650I-1201J0D01*
G03Y1136150I313J-250D01*
G02X-1088398Y1135400I-938J-750D01*
G02X-1088701Y1134603I-1202J1D01*
G03X-1088636Y1134013I300J-266D01*
G02X-1088139Y1133040I-704J-973D01*
G02X-1089089Y1131865I-1202J0D01*
G03X-1089405Y1131478I84J-391D01*
G02X-1090607Y1130289I-1202J13D01*
G02X-1091809Y1131491I0J1202D01*
G02X-1090859Y1132666I1202J0D01*
G03X-1090543Y1133053I-84J391D01*
G02X-1090240Y1133837I1202J-14D01*
G03X-1090305Y1134427I-300J266D01*
G02X-1090802Y1135400I704J973D01*
G02X-1090539Y1136150I1201J0D01*
G03Y1136650I-313J250D01*
G02X-1090802Y1137400I938J750D01*
G02X-1090450Y1138250I1202J0D01*
G37*
G36*
G01X-1082184Y1141914D02*
G03Y1142186I-147J136D01*
G02X-1082502Y1143000I883J814D01*
G02X-1080098I1202J0D01*
G02X-1080416Y1142186I-1201J0D01*
G03Y1141914I147J-136D01*
G02X-1080098Y1141100I-883J-814D01*
G02X-1082502I-1202J0D01*
G02X-1082184Y1141914I1201J0D01*
G37*
G36*
G01X-1069403Y1142100D02*
G02X-1069098Y1141300I-897J-800D01*
G02X-1071502I-1202J0D01*
G02X-1071097Y1142200I1203J0D01*
G02X-1071402Y1143000I897J800D01*
G02X-1068998I1202J0D01*
G02X-1069403Y1142100I-1203J0D01*
G37*
G36*
G01X-1041293Y1144911D02*
G02X-1040980Y1144102I-889J-809D01*
G02X-1043384I-1202J0D01*
G02X-1043089Y1144891I1203J0D01*
G02X-1043402Y1145700I889J809D01*
G02X-1040998I1202J0D01*
G02X-1041293Y1144911I-1203J0D01*
G37*
G36*
G01X-1088795Y1145133D02*
G03X-1089294Y1145109I-234J-324D01*
G02X-1090088Y1144810I-793J903D01*
G02Y1147214I0J1202D01*
G02X-1089383Y1146985I-1J-1202D01*
G03X-1088884Y1147009I234J324D01*
G02X-1088090Y1147308I793J-903D01*
G02Y1144904I0J-1202D01*
G02X-1088795Y1145133I1J1202D01*
G37*
G36*
G01X-1111723Y1147281D02*
G03X-1111398Y1147706I-74J393D01*
G02X-1111402Y1147800I1198J98D01*
G02X-1108998I1202J0D01*
G02X-1109977Y1146619I-1202J0D01*
G03X-1110302Y1146194I74J-393D01*
G02X-1110298Y1146100I-1198J-98D01*
G02X-1112702I-1202J0D01*
G02X-1111723Y1147281I1202J0D01*
G37*
G36*
G01X-1081626Y1147157D02*
G03X-1081352Y1147656I-109J385D01*
G02X-1081402Y1148000I1152J343D01*
G02X-1078998I1202J0D01*
G02X-1079874Y1146843I-1202J0D01*
G03X-1080148Y1146344I109J-385D01*
G02X-1080098Y1146000I-1152J-343D01*
G02X-1082502I-1202J0D01*
G02X-1081626Y1147157I1202J0D01*
G37*
G36*
G01X-1138527Y1150120D02*
G03X-1137963Y1150170I257J307D01*
G02X-1137040Y1150602I923J-770D01*
G02X-1135838Y1149400I0J-1202D01*
G02X-1135866Y1149144I-1202J2D01*
G03X-1135660Y1148901I196J-43D01*
G02X-1135599Y1148903I70J-1200D01*
G02X-1135554Y1148902I-4J-1202D01*
G03X-1135349Y1149132I7J200D01*
G02X-1135362Y1149310I1189J176D01*
G02X-1132958I1202J0D01*
G02X-1132963Y1149203I-1202J3D01*
G03X-1132761Y1148985I199J-18D01*
G01X-1132747D01*
G02X-1132691Y1148984I7J-1202D01*
G03X-1132481Y1149190I10J200D01*
G02X-1132482Y1149230I1201J50D01*
G02X-1130078I1202J0D01*
G02X-1130083Y1149120I-1202J0D01*
G03X-1129885Y1148902I199J-18D01*
G01X-1129870D01*
G03X-1129667Y1149120I4J200D01*
G02X-1129672Y1149230I1197J110D01*
G02X-1128470Y1150432I1202J0D01*
G02X-1127424Y1149823I0J-1203D01*
G03X-1126733Y1149815I348J197D01*
G02X-1125700Y1150402I1033J-615D01*
G02X-1124498Y1149200I0J-1202D01*
G02X-1125549Y1148008I-1201J0D01*
G03X-1125891Y1147533I51J-397D01*
G02X-1125868Y1147300I-1179J-234D01*
G02X-1126144Y1146534I-1201J0D01*
G03X-1126149Y1146030I308J-255D01*
G02X-1125888Y1145283I-941J-748D01*
G02X-1128292I-1202J0D01*
G02X-1128016Y1146049I1201J0D01*
G03X-1128011Y1146553I-308J255D01*
G02X-1128272Y1147300I941J748D01*
G02X-1128182Y1147756I1202J0D01*
G03X-1128382Y1148031I-185J76D01*
G02X-1128470Y1148028I-85J1199D01*
G01X-1128490D01*
G03X-1128693Y1147810I-4J-200D01*
G02X-1128688Y1147700I-1197J-110D01*
G02X-1128956Y1146943I-1203J0D01*
G03Y1146440I311J-251D01*
G02X-1128688Y1145683I-935J-757D01*
G02X-1131092I-1202J0D01*
G02X-1130824Y1146440I1203J0D01*
G03Y1146943I-311J252D01*
G02X-1131092Y1147700I935J757D01*
G02X-1131087Y1147810I1202J0D01*
G03X-1131285Y1148028I-199J18D01*
G02X-1131336Y1148029I-2J1202D01*
G03X-1131546Y1147823I-10J-200D01*
G02X-1131545Y1147783I-1201J-50D01*
G02X-1131817Y1147022I-1202J0D01*
G03X-1131822Y1146523I310J-253D01*
G02X-1131568Y1145783I-948J-739D01*
G02X-1133972I-1202J0D01*
G02X-1133700Y1146544I1202J0D01*
G03X-1133695Y1147043I-310J253D01*
G02X-1133949Y1147783I948J739D01*
G02X-1133944Y1147890I1202J-3D01*
G03X-1134146Y1148108I-199J18D01*
G01X-1134160D01*
G02X-1134205Y1148109I4J1202D01*
G03X-1134410Y1147879I-7J-200D01*
G02X-1134397Y1147701I-1189J-176D01*
G02X-1134676Y1146931I-1202J0D01*
G03X-1134687Y1146432I307J-256D01*
G02X-1134439Y1145701I-953J-731D01*
G02X-1136843I-1202J0D01*
G02X-1136564Y1146471I1202J0D01*
G03X-1136553Y1146970I-307J256D01*
G02X-1136801Y1147701I953J731D01*
G02X-1136798Y1147780I1202J-6D01*
G03X-1137158Y1148204I-399J26D01*
G02X-1137813Y1148480I118J1196D01*
G03X-1138377Y1148430I-257J-307D01*
G02X-1139300Y1147998I-923J770D01*
G02Y1150402I0J1202D01*
G02X-1138527Y1150120I0J-1202D01*
G37*
G36*
G01X-998392Y1148204D02*
G03X-998342Y1148753I-264J301D01*
G02X-998602Y1149500I943J747D01*
G02X-996198I1202J0D01*
G02X-996608Y1148596I-1202J0D01*
G03X-996658Y1148047I264J-301D01*
G02X-996398Y1147300I-943J-747D01*
G02X-998802I-1202J0D01*
G02X-998392Y1148204I1202J0D01*
G37*
G36*
G01X-1143182Y1153195D02*
G03X-1143708I-263J-301D01*
G02X-1144500Y1152898I-791J905D01*
G02Y1155302I0J1202D01*
G02X-1143708Y1155005I1J-1202D01*
G03X-1143182I263J301D01*
G02X-1142390Y1155302I791J-905D01*
G02Y1152898I0J-1202D01*
G02X-1143182Y1153195I-1J1202D01*
G37*
G36*
G01X-1138715Y1154801D02*
G03X-1138138Y1154851I265J300D01*
G02X-1137200Y1155302I938J-750D01*
G02X-1136375Y1154974I0J-1202D01*
G03X-1135825I275J291D01*
G02X-1135000Y1155302I825J-874D01*
G02Y1152898I0J-1202D01*
G02X-1135825Y1153226I0J1202D01*
G03X-1136375I-275J-291D01*
G02X-1137200Y1152898I-825J874D01*
G02X-1137995Y1153199I1J1202D01*
G03X-1138572Y1153149I-265J-300D01*
G02X-1139510Y1152698I-938J750D01*
G02Y1155102I0J1202D01*
G02X-1138715Y1154801I-1J-1202D01*
G37*
G36*
G01X-1007659Y1154847D02*
G03X-1007385Y1155296I-120J381D01*
G02X-1007402Y1155500I1185J201D01*
G02X-1004998I1202J0D01*
G02X-1005841Y1154353I-1202J0D01*
G03X-1006115Y1153904I120J-381D01*
G02X-1006098Y1153700I-1185J-201D01*
G02X-1008502I-1202J0D01*
G02X-1007659Y1154847I1202J0D01*
G37*
G36*
G01X-1088100Y1155204D02*
G03X-1088099Y1155802I-265J299D01*
G02X-1088502Y1156700I799J898D01*
G02X-1086098I1202J0D01*
G02X-1086504Y1155800I-1202J1D01*
G03X-1086505Y1155202I265J-299D01*
G02X-1086102Y1154304I-799J-898D01*
G02X-1088506I-1202J0D01*
G02X-1088100Y1155204I1202J-1D01*
G37*
G36*
G01X-1033656Y1159456D02*
G02X-1033298Y1158600I-844J-856D01*
G02X-1035702I-1202J0D01*
G02X-1035444Y1159344I1202J0D01*
G02X-1035802Y1160200I844J856D01*
G02X-1033398I1202J0D01*
G02X-1033656Y1159456I-1202J0D01*
G37*
G36*
G01X-1042200Y1160523D02*
G03X-1042362Y1160707I-199J-12D01*
G02X-1043341Y1161888I223J1181D01*
G02X-1042139Y1163090I1202J0D01*
G02X-1040939Y1161965I0J-1202D01*
G03X-1040777Y1161781I199J12D01*
G02X-1039798Y1160600I-223J-1181D01*
G02X-1041000Y1159398I-1202J0D01*
G02X-1042200Y1160523I0J1202D01*
G37*
G36*
G01X-1042522Y1168972D02*
G03Y1169228I-153J128D01*
G02X-1042802Y1170000I922J771D01*
G02X-1040398I1202J0D01*
G02X-1040678Y1169228I-1202J-1D01*
G03Y1168972I153J-128D01*
G02X-1040398Y1168200I-922J-771D01*
G02X-1042802I-1202J0D01*
G02X-1042522Y1168972I1202J1D01*
G37*
G36*
G01X-1115454Y1172094D02*
G03X-1115100Y1172469I-45J397D01*
G02X-1113900Y1173602I1200J-69D01*
G02X-1112700Y1172471I0J-1202D01*
G03X-1112339Y1172097I399J24D01*
G02X-1111251Y1170900I-114J-1197D01*
G02X-1113655I-1202J0D01*
G02X-1113652Y1170985I1202J0D01*
G03X-1113858Y1171199I-200J14D01*
G02X-1113900Y1171198I-50J1201D01*
G01X-1113917D01*
G03X-1114119Y1170984I-3J-200D01*
G02X-1114116Y1170900I-1199J-85D01*
G02X-1116520I-1202J0D01*
G02X-1115454Y1172094I1202J0D01*
G37*
G36*
G01X-1186906Y1175031D02*
G03X-1186778Y1175260I-68J188D01*
G02X-1186802Y1175500I1178J239D01*
G02X-1184398I1202J0D01*
G02X-1185194Y1174369I-1201J0D01*
G03X-1185322Y1174140I68J-188D01*
G02X-1185298Y1173900I-1178J-239D01*
G02X-1187702I-1202J0D01*
G02X-1186906Y1175031I1201J0D01*
G37*
G36*
G01X-1196585Y1174598D02*
Y1174570D01*
G02X-1198989I-1202J0D01*
G02X-1197802Y1175772I1202J0D01*
G01Y1175800D01*
G02X-1195398I1202J0D01*
G02X-1196585Y1174598I-1202J0D01*
G37*
G36*
G01X-1030903Y1175800D02*
G02X-1030498Y1174900I-798J-900D01*
G02X-1032902I-1202J0D01*
G02X-1032597Y1175700I1202J0D01*
G02X-1033002Y1176600I798J900D01*
G02X-1030598I1202J0D01*
G02X-1030903Y1175800I-1202J0D01*
G37*
G36*
G01X-1257554Y1175577D02*
G03X-1258124Y1175665I-327J-230D01*
G02X-1258852Y1175419I-729J956D01*
G02Y1177823I0J1202D01*
G02X-1257870Y1177314I0J-1202D01*
G03X-1257300Y1177226I327J230D01*
G02X-1256572Y1177472I729J-956D01*
G02Y1175068I0J-1202D01*
G02X-1257554Y1175577I0J1202D01*
G37*
G36*
G01X-1239222Y1179671D02*
G03X-1238898Y1180098I-75J393D01*
G02X-1238902Y1180200I1198J98D01*
G02X-1236498I1202J0D01*
G02X-1237478Y1179019I-1202J0D01*
G03X-1237802Y1178592I75J-393D01*
G02X-1237798Y1178490I-1198J-98D01*
G02X-1240202I-1202J0D01*
G02X-1239222Y1179671I1202J0D01*
G37*
G36*
G01X-1200108Y1181798D02*
G03X-1199679Y1182168I30J399D01*
G02X-1198480Y1183282I1199J-88D01*
G02Y1180878I0J-1202D01*
G02X-1198572Y1180882I6J1202D01*
G03X-1199001Y1180512I-30J-399D01*
G02X-1200200Y1179398I-1199J88D01*
G02Y1181802I0J1202D01*
G02X-1200108Y1181798I-6J-1202D01*
G37*
G36*
G01X-1210365Y1181365D02*
G03X-1210914Y1181390I-288J-278D01*
G02X-1211700Y1181098I-785J910D01*
G02Y1183502I0J1202D01*
G02X-1210835Y1183135I0J-1203D01*
G03X-1210286Y1183110I288J278D01*
G02X-1209500Y1183402I785J-910D01*
G02Y1180998I0J-1202D01*
G02X-1210365Y1181365I0J1203D01*
G37*
G36*
G01X-1192284Y1183749D02*
G03X-1192580Y1184231I-389J93D01*
G02X-1193502Y1185400I280J1169D01*
G02X-1191098I1202J0D01*
G02X-1191131Y1185121I-1202J1D01*
G03X-1190835Y1184639I389J-93D01*
G02X-1189913Y1183470I-280J-1169D01*
G02X-1192317I-1202J0D01*
G02X-1192284Y1183749I1202J-1D01*
G37*
G36*
G01X-1188568Y1184619D02*
G03X-1188315Y1185151I-118J382D01*
G02X-1188402Y1185600I1115J449D01*
G02X-1185998I1202J0D01*
G02X-1186847Y1184451I-1202J0D01*
G03X-1187100Y1183919I118J-382D01*
G02X-1187013Y1183470I-1115J-449D01*
G02X-1189417I-1202J0D01*
G02X-1188568Y1184619I1202J0D01*
G37*
G36*
G01X-1077452Y1184382D02*
G03X-1077576Y1184906I-350J194D01*
G02X-1078102Y1185900I676J994D01*
G02X-1075698I1202J0D01*
G02X-1075848Y1185318I-1202J-1D01*
G03X-1075724Y1184794I350J-194D01*
G02X-1075198Y1183800I-676J-994D01*
G02X-1077602I-1202J0D01*
G02X-1077452Y1184382I1202J1D01*
G37*
G36*
G01X-1199649Y1184692D02*
G03X-1200054Y1184999I-389J-93D01*
G02X-1200100Y1184998I-49J1201D01*
G02Y1187402I0J1202D01*
G02X-1198931Y1186478I0J-1201D01*
G03X-1198526Y1186171I389J93D01*
G02X-1198480Y1186172I49J-1201D01*
G02Y1183768I0J-1202D01*
G02X-1199649Y1184692I0J1201D01*
G37*
G36*
G01X-1216545Y1186206D02*
G03X-1217024Y1186386I-348J-198D01*
G02X-1217417Y1186320I-393J1137D01*
G02Y1188724I0J1202D01*
G02X-1216372Y1188116I0J-1202D01*
G03X-1215893Y1187936I348J198D01*
G02X-1215500Y1188002I393J-1137D01*
G02Y1185598I0J-1202D01*
G02X-1216545Y1186206I0J1202D01*
G37*
G36*
G01X-1064519Y1186826D02*
G03X-1064783Y1186819I-128J-154D01*
G02X-1065600Y1186498I-818J881D01*
G02Y1188902I0J1202D01*
G02X-1064831Y1188624I0J-1203D01*
G03X-1064567Y1188631I128J154D01*
G02X-1063750Y1188952I818J-881D01*
G02Y1186548I0J-1202D01*
G02X-1064519Y1186826I0J1203D01*
G37*
G36*
G01X-1049985Y1187688D02*
G03X-1049661Y1188187I-62J395D01*
G02X-1049702Y1188500I1161J311D01*
G02X-1047298I1202J0D01*
G02X-1048315Y1187312I-1202J0D01*
G03X-1048639Y1186813I62J-395D01*
G02X-1048598Y1186500I-1161J-311D01*
G02X-1051002I-1202J0D01*
G02X-1049985Y1187688I1202J0D01*
G37*
G36*
G01X-1038399Y1187894D02*
G03X-1038174Y1188343I-166J364D01*
G02X-1038202Y1188600I1174J258D01*
G02X-1035798I1202J0D01*
G02X-1036501Y1187506I-1203J0D01*
G03X-1036726Y1187057I166J-364D01*
G02X-1036698Y1186800I-1174J-258D01*
G02X-1039102I-1202J0D01*
G02X-1038399Y1187894I1203J0D01*
G37*
G36*
G01X-1154424Y1188400D02*
G03X-1154000Y1188774I25J399D01*
G02X-1152800Y1189902I1200J-74D01*
G02Y1187498I0J-1202D01*
G02X-1152876Y1187500I-6J1202D01*
G03X-1153300Y1187126I-25J-399D01*
G02X-1154500Y1185998I-1200J74D01*
G02Y1188402I0J1202D01*
G02X-1154424Y1188400I6J-1202D01*
G37*
G36*
G01X-1150727Y1187334D02*
G03X-1150758Y1187858I-317J244D01*
G02X-1151102Y1188700I858J842D01*
G02X-1148698I1202J0D01*
G02X-1148948Y1187966I-1203J0D01*
G03X-1148917Y1187442I317J-244D01*
G02X-1148573Y1186600I-858J-842D01*
G02X-1150977I-1202J0D01*
G02X-1150727Y1187334I1203J0D01*
G37*
G36*
G01X-1140081Y1188973D02*
G03X-1140647Y1189140I-359J-175D01*
G02X-1141269Y1188967I-621J1029D01*
G02Y1191371I0J1202D01*
G02X-1140188Y1190696I0J-1203D01*
G03X-1139622Y1190529I359J175D01*
G02X-1139000Y1190702I621J-1029D01*
G02Y1188298I0J-1202D01*
G02X-1140081Y1188973I0J1203D01*
G37*
G36*
G01X-1193294Y1191634D02*
G03X-1193111Y1192141I-186J354D01*
G02X-1193202Y1192600I1112J459D01*
G02X-1190798I1202J0D01*
G02X-1191441Y1191536I-1202J0D01*
G03X-1191624Y1191029I186J-354D01*
G02X-1191533Y1190570I-1112J-459D01*
G02X-1191720Y1189927I-1202J1D01*
G03X-1191611Y1189385I338J-214D01*
G02X-1191098Y1188400I-689J-985D01*
G02X-1193502I-1202J0D01*
G02X-1193315Y1189043I1202J-1D01*
G03X-1193424Y1189585I-338J214D01*
G02X-1193937Y1190570I689J985D01*
G02X-1193294Y1191634I1202J0D01*
G37*
G36*
G01X-1196754Y1191009D02*
G03X-1197020Y1191541I-372J146D01*
G02X-1197902Y1192700I320J1159D01*
G02X-1195498I1202J0D01*
G02X-1195581Y1192261I-1202J0D01*
G03X-1195315Y1191729I372J-146D01*
G02X-1194433Y1190570I-320J-1159D01*
G02X-1196837I-1202J0D01*
G02X-1196754Y1191009I1202J0D01*
G37*
G36*
G01X-1184100Y1195577D02*
G02X-1183400Y1195802I700J-976D01*
G02Y1193398I0J-1202D01*
G02X-1184100Y1193623I0J1201D01*
G02X-1184800Y1193398I-700J976D01*
G02Y1195802I0J1202D01*
G02X-1184100Y1195577I0J-1201D01*
G37*
G36*
G01X-1222888Y1193254D02*
G03X-1223084Y1193800I-357J180D01*
G02X-1223802Y1194900I484J1100D01*
G02X-1221398I1202J0D01*
G02X-1221527Y1194359I-1202J1D01*
G03X-1221331Y1193813I357J-180D01*
G02X-1220613Y1192713I-484J-1100D01*
G02X-1223017I-1202J0D01*
G02X-1222888Y1193254I1202J-1D01*
G37*
G36*
G01X-1203143Y1195577D02*
G03X-1202575Y1195738I210J340D01*
G02X-1201500Y1196402I1075J-538D01*
G02Y1193998I0J-1202D01*
G02X-1202132Y1194178I1J1202D01*
G03X-1202700Y1194017I-210J-340D01*
G02X-1203775Y1193353I-1075J538D01*
G02X-1204142Y1193410I-1J1202D01*
G03X-1204402Y1193203I-61J-190D01*
G02X-1204398Y1193100I-1198J-98D01*
G02X-1204402Y1193006I-1202J4D01*
G03X-1204141Y1192800I199J-16D01*
G02X-1203775Y1192857I366J-1145D01*
G02X-1202573Y1191655I0J-1202D01*
G02X-1202612Y1191353I-1202J2D01*
G03X-1202393Y1190890I387J-100D01*
G02X-1201698Y1189800I-507J-1090D01*
G02X-1204102I-1202J0D01*
G02X-1204063Y1190102I1202J-2D01*
G03X-1204282Y1190565I-387J100D01*
G02X-1204972Y1191550I507J1090D01*
G03X-1205428Y1191910I-398J-36D01*
G02X-1205600Y1191898I-169J1190D01*
G02Y1194302I0J1202D01*
G02X-1205429Y1194290I2J-1202D01*
G03X-1204973Y1194653I57J396D01*
G02X-1203775Y1195757I1198J-98D01*
G02X-1203143Y1195577I-1J-1202D01*
G37*
G36*
G01X-1128959Y1196796D02*
G03X-1129520Y1196909I-336J-217D01*
G02X-1130200Y1196698I-680J990D01*
G02Y1199102I0J1202D01*
G02X-1129191Y1198554I0J-1203D01*
G03X-1128630Y1198441I336J217D01*
G02X-1127950Y1198652I680J-990D01*
G02Y1196248I0J-1202D01*
G02X-1128959Y1196796I0J1203D01*
G37*
G36*
G01X-1028956Y1197065D02*
G03X-1029529Y1196990I-251J-311D01*
G02X-1030499Y1196499I-969J711D01*
G02Y1198903I0J1202D01*
G02X-1029743Y1198636I1J-1202D01*
G03X-1029170Y1198711I251J311D01*
G02X-1028200Y1199202I969J-711D01*
G02Y1196798I0J-1202D01*
G02X-1028956Y1197065I-1J1202D01*
G37*
G36*
G01X-1239499Y1196399D02*
G03X-1239890Y1196898I-388J99D01*
G01X-1239900D01*
G02Y1199302I0J1202D01*
G02X-1239197Y1199075I0J-1202D01*
G03X-1238697Y1199100I234J324D01*
G02X-1237900Y1199402I797J-901D01*
G02X-1236698Y1198200I0J-1202D01*
G02X-1236758Y1197826I-1202J1D01*
G03X-1236367Y1197302I380J-124D01*
G01X-1236335D01*
G02Y1194898I0J-1202D01*
G02X-1237085Y1195161I0J1201D01*
G03X-1237585I-250J-313D01*
G02X-1238335Y1194898I-750J938D01*
G02X-1239537Y1196100I0J1202D01*
G02X-1239499Y1196399I1202J-1D01*
G37*
G36*
G01X-1250400Y1197504D02*
G03X-1251000I-300J-265D01*
G02X-1251900Y1197098I-901J796D01*
G02Y1199502I0J1202D01*
G02X-1251000Y1199096I-1J-1202D01*
G03X-1250400I300J265D01*
G02X-1249500Y1199502I901J-796D01*
G02Y1197098I0J-1202D01*
G02X-1250400Y1197504I1J1202D01*
G37*
G36*
G01X-1180568Y1198831D02*
G03X-1180544Y1199355I-290J276D01*
G02X-1180802Y1200100I944J744D01*
G02X-1178398I1202J0D01*
G02X-1178732Y1199269I-1201J0D01*
G03X-1178756Y1198745I290J-276D01*
G02X-1178498Y1198000I-944J-744D01*
G02X-1179700Y1196798I-1202J0D01*
G02X-1179928Y1196820I1J1202D01*
G03X-1180377Y1196570I-75J-393D01*
G02X-1181500Y1195798I-1123J431D01*
G02X-1182702Y1197002I0J1202D01*
G02X-1183802Y1198200I102J1198D01*
G02X-1182600Y1199402I1202J0D01*
G02X-1181398Y1198198I0J-1202D01*
G02X-1181125Y1198142I-103J-1198D01*
G03X-1180868Y1198285I63J190D01*
G02X-1180568Y1198831I1167J-286D01*
G37*
G36*
G01X-1235185Y1201795D02*
G03X-1235606Y1202102I-389J-92D01*
G02X-1235700Y1202098I-98J1198D01*
G02Y1204502I0J1202D01*
G02X-1234530Y1203575I0J-1202D01*
G03X-1234109Y1203268I389J92D01*
G02X-1234015Y1203272I98J-1198D01*
G02Y1200868I0J-1202D01*
G02X-1235185Y1201795I0J1202D01*
G37*
G36*
G01X-1231269Y1203262D02*
G03X-1230920Y1203658I-51J397D01*
G02X-1229718Y1204859I1202J-1D01*
G02X-1228516Y1203657I0J-1202D01*
G02X-1229564Y1202465I-1202J0D01*
G03X-1229913Y1202069I51J-397D01*
G02X-1231115Y1200868I-1202J1D01*
G02X-1232317Y1202070I0J1202D01*
G02X-1231269Y1203262I1202J0D01*
G37*
G36*
G01X-1023412Y1204456D02*
G03X-1023637Y1204980I-370J151D01*
G02X-1024402Y1206100I437J1120D01*
G02X-1021998I1202J0D01*
G02X-1022088Y1205644I-1202J0D01*
G03X-1021863Y1205120I370J-151D01*
G02X-1021098Y1204000I-437J-1120D01*
G02X-1023502I-1202J0D01*
G02X-1023412Y1204456I1202J0D01*
G37*
G36*
G01X-1243502Y1207669D02*
G03X-1243889Y1208059I-400J-10D01*
G02X-1245052Y1209260I39J1201D01*
G02X-1243850Y1210462I1202J0D01*
G02X-1242648Y1209291I0J-1202D01*
G03X-1242261Y1208901I400J10D01*
G02X-1241098Y1207700I-39J-1201D01*
G02X-1242300Y1206498I-1202J0D01*
G02X-1243502Y1207669I0J1202D01*
G37*
G36*
G01X-1269650Y1209661D02*
G03X-1270150I-250J-313D01*
G02X-1270900Y1209398I-750J938D01*
G02Y1211802I0J1202D01*
G02X-1270150Y1211539I0J-1201D01*
G03X-1269650I250J313D01*
G02X-1268900Y1211802I750J-938D01*
G02Y1209398I0J-1202D01*
G02X-1269650Y1209661I0J1201D01*
G37*
G36*
G01X-1220171Y1210596D02*
G03X-1219765Y1210897I19J399D01*
G02X-1218600Y1211802I1165J-297D01*
G02Y1209398I0J-1202D01*
G02X-1218657Y1209399I-7J1202D01*
G03X-1219063Y1209098I-19J-399D01*
G02X-1220228Y1208193I-1165J297D01*
G02Y1210597I0J1202D01*
G02X-1220171Y1210596I7J-1202D01*
G37*
G36*
G01X-1260944Y1209345D02*
G03X-1260968Y1209869I-314J248D01*
G02X-1261302Y1210700I867J831D01*
G02X-1258898I1202J0D01*
G02X-1259156Y1209955I-1202J-1D01*
G03X-1259132Y1209431I314J-248D01*
G02X-1258798Y1208600I-867J-831D01*
G02X-1260000Y1207398I-1202J0D01*
G02X-1260358Y1207452I-2J1202D01*
G03X-1260840Y1207237I-119J-382D01*
G02X-1261933Y1206536I-1093J502D01*
G02X-1262746Y1206853I0J1201D01*
G03X-1263288I-271J-295D01*
G02X-1264101Y1206536I-813J884D01*
G02X-1264249Y1206545I-1J1202D01*
G03X-1264699Y1206136I-50J-397D01*
G02X-1264698Y1206100I-1201J-51D01*
G02X-1267102I-1202J0D01*
G02X-1266959Y1206668I1202J-1D01*
G02X-1267402Y1207600I759J932D01*
G02X-1266200Y1208802I1202J0D01*
G02X-1265472Y1208556I-1J-1202D01*
G03X-1264948Y1208591I242J319D01*
G02X-1264101Y1208940I847J-853D01*
G02X-1263288Y1208623I0J-1201D01*
G03X-1262746I271J295D01*
G02X-1261933Y1208940I813J-884D01*
G02X-1261575Y1208886I2J-1202D01*
G03X-1261093Y1209101I119J382D01*
G02X-1260944Y1209345I1093J-500D01*
G37*
G36*
G01X-1247946Y1209143D02*
G03X-1248308Y1209503I-398J-38D01*
G02X-1249402Y1210700I108J1197D01*
G02X-1248200Y1211902I1202J0D01*
G02X-1247004Y1210817I0J-1202D01*
G03X-1246642Y1210457I398J38D01*
G02X-1245548Y1209260I-108J-1197D01*
G02X-1246268Y1208159I-1202J0D01*
G03X-1246455Y1207595I160J-366D01*
G02X-1246298Y1207000I-1045J-594D01*
G02X-1247500Y1205798I-1202J0D01*
G02X-1248477Y1206300I0J1202D01*
G03X-1249040Y1206388I-325J-233D01*
G02X-1249642Y1206157I-716J966D01*
G03X-1250003Y1205794I37J-398D01*
G02X-1252397I-1197J106D01*
G03X-1252761Y1206157I-399J-36D01*
G02X-1253827Y1207089I106J1197D01*
G03X-1254238Y1207400I-390J-89D01*
G02X-1254300Y1207398I-70J1200D01*
G02X-1255502Y1208600I0J1202D01*
G02X-1255180Y1209419I1203J0D01*
G03X-1255145Y1209919I-293J272D01*
G02X-1255360Y1210606I987J686D01*
G02X-1252956I1202J0D01*
G02X-1253278Y1209787I-1203J0D01*
G03X-1253313Y1209287I293J-272D01*
G02X-1253128Y1208865I-988J-685D01*
G03X-1252717Y1208554I390J89D01*
G02X-1252655Y1208556I70J-1200D01*
G02X-1251453Y1207354I0J-1202D01*
G02X-1251454Y1207309I-1202J4D01*
G03X-1251246Y1207101I200J-8D01*
G02X-1251200Y1207102I49J-1201D01*
G02X-1251162Y1207101I-13J-1202D01*
G03X-1250956Y1207309I6J200D01*
G02X-1250957Y1207354I1201J49D01*
G02X-1249755Y1208556I1202J0D01*
G02X-1248778Y1208054I0J-1202D01*
G03X-1248215Y1207966I325J233D01*
G02X-1247982Y1208101I715J-966D01*
G03X-1247795Y1208665I-160J366D01*
G02X-1247946Y1209143I1046J593D01*
G37*
G36*
G01X-1224314Y1209197D02*
G03X-1224689Y1209530I-394J-66D01*
G02X-1225833Y1210731I58J1201D01*
G02X-1224631Y1211933I1202J0D01*
G02X-1223445Y1210929I0J-1202D01*
G03X-1223070Y1210596I394J66D01*
G02X-1221926Y1209395I-58J-1201D01*
G02X-1223128Y1208193I-1202J0D01*
G02X-1224314Y1209197I0J1202D01*
G37*
G36*
G01X-1234500Y1210204D02*
G03X-1235100I-300J-265D01*
G02X-1236000Y1209798I-901J796D01*
G02Y1212202I0J1202D01*
G02X-1235100Y1211796I-1J-1202D01*
G03X-1234500I300J265D01*
G02X-1233600Y1212202I901J-796D01*
G02Y1209798I0J-1202D01*
G02X-1234500Y1210204I1J1202D01*
G37*
G36*
G01X-1161717Y1211468D02*
G03X-1161239Y1211747I93J389D01*
G02X-1160083Y1212619I1156J-330D01*
G02X-1158881Y1211417I0J-1202D01*
G02X-1159187Y1210616I-1201J0D01*
G03X-1159191Y1210087I298J-267D01*
G02X-1158898Y1209300I-909J-787D01*
G02X-1159774Y1208143I-1202J0D01*
G03X-1160048Y1207644I109J-385D01*
G02X-1159998Y1207300I-1152J-343D01*
G02X-1162402I-1202J0D01*
G02X-1161526Y1208457I1202J0D01*
G03X-1161252Y1208956I-109J385D01*
G02X-1161275Y1209045I1152J345D01*
G03X-1161546Y1209187I-195J-43D01*
G02X-1162000Y1209098I-454J1113D01*
G02X-1162750Y1209361I0J1201D01*
G03X-1163250I-250J-313D01*
G02X-1164000Y1209098I-750J938D01*
G02X-1165158Y1209979I0J1202D01*
G03X-1165655Y1210257I-386J-106D01*
G02X-1165988Y1210210I-333J1156D01*
G02Y1212614I0J1202D01*
G02X-1164830Y1211733I0J-1202D01*
G03X-1164333Y1211455I386J106D01*
G02X-1164000Y1211502I333J-1156D01*
G02X-1163250Y1211239I0J-1201D01*
G03X-1162750I250J313D01*
G02X-1162000Y1211502I750J-938D01*
G02X-1161717Y1211468I-1J-1202D01*
G37*
G36*
G01X-1128292Y1216352D02*
G03X-1128468Y1216576I-199J25D01*
G02X-1129532Y1217770I138J1194D01*
G02X-1127128I1202J0D01*
G02X-1127138Y1217618I-1202J3D01*
G03X-1126962Y1217394I199J-25D01*
G02X-1125898Y1216200I-138J-1194D01*
G02X-1128302I-1202J0D01*
G02X-1128292Y1216352I1202J-3D01*
G37*
G36*
G01X-1078679Y1217228D02*
G03X-1078870Y1217794I-348J198D01*
G02X-1079602Y1218900I470J1106D01*
G02X-1077198I1202J0D01*
G02X-1077355Y1218306I-1202J0D01*
G03X-1077164Y1217740I348J-198D01*
G02X-1076432Y1216634I-470J-1106D01*
G02X-1078836I-1202J0D01*
G02X-1078679Y1217228I1202J0D01*
G37*
G36*
G01X-1236381Y1219488D02*
G03X-1236041Y1219888I-60J396D01*
G01Y1219900D01*
G02X-1233637I1202J0D01*
G02X-1234658Y1218712I-1202J0D01*
G03X-1234998Y1218312I60J-396D01*
G01Y1218300D01*
G02X-1237402I-1202J0D01*
G02X-1236381Y1219488I1202J0D01*
G37*
G36*
G01X-1231735Y1218283D02*
G03X-1232085Y1218707I-399J27D01*
G02X-1233141Y1219900I146J1193D01*
G02X-1230737I1202J0D01*
G02X-1230740Y1219817I-1202J2D01*
G03X-1230390Y1219393I399J-27D01*
G02X-1229334Y1218200I-146J-1193D01*
G02X-1231738I-1202J0D01*
G02X-1231735Y1218283I1202J-2D01*
G37*
G36*
G01X-1230171Y1221366D02*
G03X-1230637Y1221627I-378J-129D01*
G02X-1230900Y1221598I-262J1173D01*
G02Y1224002I0J1202D01*
G02X-1229763Y1223190I0J-1202D01*
G03X-1229297Y1222929I378J129D01*
G02X-1229034Y1222958I262J-1173D01*
G02Y1220554I0J-1202D01*
G02X-1230171Y1221366I0J1202D01*
G37*
G36*
G01X-1230901Y965641D02*
G02X-1230902Y965700I1201J50D01*
G02X-1229700Y964498I1202J0D01*
G02X-1230075Y964558I0J1202D01*
G03X-1230599Y964159I-125J-380D01*
G02X-1230598Y964100I-1201J-50D01*
G02X-1231800Y965302I-1202J0D01*
G02X-1231425Y965242I0J-1202D01*
G03X-1230901Y965641I125J380D01*
G37*
G36*
G01X-1266169Y978672D02*
G02X-1265984Y978699I266J-1172D01*
G03X-1265799Y978884I-14J199D01*
G02X-1264600Y980002I1199J-84D01*
G02X-1263398Y978800I0J-1202D01*
G02X-1263491Y978337I-1202J1D01*
G03X-1263066Y977786I369J-155D01*
G02X-1262900Y977798I169J-1190D01*
G02X-1264102Y976596I0J-1202D01*
G02X-1264009Y977059I1202J-1D01*
G03X-1264434Y977610I-369J155D01*
G02X-1264516Y977601I-172J1189D01*
G03X-1264701Y977416I14J-199D01*
G02X-1265900Y976298I-1199J84D01*
G02X-1267043Y977129I0J1202D01*
G03X-1267278Y977262I-190J-62D01*
G02X-1267547Y977232I-267J1172D01*
G02Y979636I0J1202D01*
G02X-1266404Y978805I0J-1202D01*
G03X-1266169Y978672I190J62D01*
G37*
G36*
G01X-1219384Y1005110D02*
G02X-1219602Y1005800I983J690D01*
G02X-1217198I1202J0D01*
G02X-1217238Y1005493I-1202J0D01*
G03X-1216900Y1004993I387J-103D01*
G02X-1215843Y1003800I-145J-1193D01*
G02X-1217045Y1002598I-1202J0D01*
G02X-1217642Y1002757I0J1202D01*
G03X-1218155Y1002657I-199J-347D01*
G02X-1219100Y1002198I-945J743D01*
G02X-1220302Y1003400I0J1202D01*
G02X-1219559Y1004511I1202J0D01*
G03X-1219384Y1005110I-153J370D01*
G37*
G36*
G01X-1214432Y1005397D02*
G02X-1214502Y1005800I1132J404D01*
G02X-1212098I1202J0D01*
G02X-1212258Y1005201I-1201J0D01*
G03X-1211908Y1004602I347J-199D01*
G01X-1211900D01*
G02Y1002198I0J-1202D01*
G02X-1212893Y1002722I0J1203D01*
G03X-1213456Y1002822I-330J-225D01*
G02X-1214155Y1002598I-699J979D01*
G02X-1215357Y1003800I0J1202D01*
G02X-1214646Y1004897I1202J0D01*
G03X-1214432Y1005397I-163J366D01*
G37*
G36*
G01X-1048394Y1007838D02*
G02X-1048501Y1008333I1095J496D01*
G02X-1047299Y1007131I1202J0D01*
G02X-1047540Y1007155I-2J1202D01*
G03X-1048014Y1006698I-80J-392D01*
G02X-1047998Y1006500I-1186J-196D01*
G02X-1050402I-1202J0D01*
G02X-1050385Y1006704I1202J3D01*
G03X-1050659Y1007153I-394J68D01*
G02X-1051502Y1008300I359J1147D01*
G02X-1049098I1202J0D01*
G02X-1049115Y1008096I-1202J-3D01*
G03X-1048841Y1007647I394J-68D01*
G02X-1048666Y1007577I-358J-1148D01*
G03X-1048394Y1007838I90J179D01*
G37*
G36*
G01X-1041597Y1008389D02*
G02X-1041602Y1008500I1197J110D01*
G02X-1039198I1202J0D01*
G02X-1040104Y1007335I-1202J0D01*
G03X-1040403Y1006911I99J-387D01*
G02X-1040398Y1006800I-1197J-110D01*
G02X-1041600Y1005598I-1202J0D01*
G02X-1042802Y1006793I0J1202D01*
G03X-1043310Y1007175I-400J-3D01*
G02X-1043633Y1007131I-322J1158D01*
G02Y1009535I0J1202D01*
G02X-1042431Y1008340I0J-1202D01*
G03X-1041923Y1007958I400J3D01*
G02X-1041896Y1007965I315J-1160D01*
G03X-1041597Y1008389I-99J387D01*
G37*
G36*
G01X-1105670Y1008480D02*
G02X-1106700Y1007898I-1030J620D01*
G02Y1010302I0J1202D01*
G02X-1105629Y1009645I0J-1201D01*
G03X-1104930Y1009620I356J182D01*
G02X-1103900Y1010202I1030J-620D01*
G02Y1007798I0J-1202D01*
G02X-1104971Y1008455I0J1201D01*
G03X-1105670Y1008480I-356J-182D01*
G37*
G36*
G01X-1088149Y1015485D02*
G02X-1088902Y1016600I449J1115D01*
G02X-1086498I1202J0D01*
G02X-1086653Y1016010I-1202J0D01*
G03X-1086454Y1015443I349J-196D01*
G02X-1085701Y1014328I-449J-1115D01*
G02X-1088105I-1202J0D01*
G02X-1087950Y1014918I1202J0D01*
G03X-1088149Y1015485I-349J196D01*
G37*
G36*
G01X-1084457Y1015973D02*
G02X-1084702Y1016700I956J727D01*
G02X-1083500Y1017902I1202J0D01*
G02X-1082607Y1017504I0J-1201D01*
G03X-1082364Y1017461I149J134D01*
G02X-1081800Y1017602I565J-1061D01*
G02X-1080598Y1016400I0J-1202D01*
G02X-1080691Y1015936I-1202J0D01*
G03X-1080491Y1015418I369J-155D01*
G02X-1079795Y1014328I-506J-1090D01*
G02X-1082199I-1202J0D01*
G02X-1082106Y1014792I1202J0D01*
G03X-1082306Y1015310I-369J155D01*
G02X-1082693Y1015596I506J1090D01*
G03X-1082936Y1015639I-149J-134D01*
G02X-1083125Y1015558I-566J1060D01*
G03X-1083197Y1015220I62J-190D01*
G02X-1082801Y1014328I-807J-892D01*
G02X-1085205I-1202J0D01*
G02X-1084583Y1015381I1202J0D01*
G03X-1084457Y1015973I-193J350D01*
G37*
G36*
G01X-1207301Y1017055D02*
G02X-1206100Y1018202I1201J-55D01*
G02Y1015798I0J-1202D01*
G02X-1206325Y1015819I-1J1202D01*
G03X-1206799Y1015445I-75J-393D01*
G02X-1208000Y1014298I-1201J55D01*
G02X-1208215Y1014317I-2J1202D01*
G03X-1208664Y1013793I-71J-393D01*
G02X-1208598Y1013400I-1137J-393D01*
G02X-1209800Y1014602I-1202J0D01*
G02X-1209585Y1014583I2J-1202D01*
G03X-1209136Y1015107I71J393D01*
G02X-1209202Y1015500I1137J393D01*
G02X-1208000Y1016702I1202J0D01*
G02X-1207775Y1016681I1J-1202D01*
G03X-1207301Y1017055I75J393D01*
G37*
G36*
G01X-1109063Y1019992D02*
G02X-1110100Y1019398I-1037J608D01*
G02Y1021802I0J1202D01*
G02X-1109111Y1021283I0J-1202D01*
G03X-1108437Y1021308I329J227D01*
G02X-1107400Y1021902I1037J-608D01*
G02Y1019498I0J-1202D01*
G02X-1108389Y1020017I0J1202D01*
G03X-1109063Y1019992I-329J-227D01*
G37*
G36*
G01X-1152323Y1026256D02*
G02X-1152499Y1026882I1025J626D01*
G02X-1150095I1202J0D01*
G02X-1150460Y1026019I-1203J0D01*
G03X-1150524Y1025524I278J-288D01*
G02X-1150348Y1024898I-1025J-626D01*
G02X-1150500Y1024312I-1202J-1D01*
G03X-1150418Y1023820I349J-195D01*
G02X-1150019Y1022925I-804J-895D01*
G02X-1151221Y1021723I-1202J0D01*
G02X-1151529Y1021763I0J1202D01*
G03X-1152023Y1021457I-102J-387D01*
G02X-1153200Y1020498I-1177J243D01*
G02X-1154397Y1021596I0J1201D01*
G03X-1154972Y1021920I-399J-35D01*
G02X-1155500Y1021798I-528J1080D01*
G02X-1156288Y1022092I0J1203D01*
G03X-1156812I-262J-302D01*
G02X-1157600Y1021798I-788J909D01*
G02Y1024202I0J1202D01*
G02X-1156812Y1023908I0J-1203D01*
G03X-1156288I262J302D01*
G02X-1155500Y1024202I788J-909D01*
G02X-1154303Y1023104I0J-1201D01*
G03X-1153728Y1022780I399J35D01*
G02X-1153200Y1022902I528J-1080D01*
G02X-1152892Y1022862I0J-1202D01*
G03X-1152398Y1023168I102J387D01*
G02X-1152271Y1023511I1178J-241D01*
G03X-1152353Y1024003I-349J195D01*
G02X-1152752Y1024898I804J895D01*
G02X-1152387Y1025761I1203J0D01*
G03X-1152323Y1026256I-278J288D01*
G37*
G36*
G01X-1173584Y1030907D02*
G02X-1172400Y1031902I1184J-207D01*
G02X-1171198Y1030700I0J-1202D01*
G01Y1030680D01*
G03X-1170874Y1030280I400J-7D01*
G02X-1169898Y1029100I-225J-1180D01*
G02X-1172302I-1202J0D01*
G01Y1029120D01*
G03X-1172626Y1029520I-400J7D01*
G02X-1172867Y1029592I222J1181D01*
G03X-1173416Y1029293I-155J-368D01*
G02X-1174600Y1028298I-1184J207D01*
G02Y1030702I0J1202D01*
G02X-1174133Y1030608I1J-1202D01*
G03X-1173584Y1030907I155J368D01*
G37*
G36*
G01X-1057126Y1029643D02*
G02X-1057500Y1029583I-375J1142D01*
G02Y1031987I0J1202D01*
G02X-1056298Y1030813I0J-1202D01*
G03X-1055774Y1030442I400J9D01*
G02X-1055400Y1030502I375J-1142D01*
G02Y1028098I0J-1202D01*
G02X-1056602Y1029272I0J1202D01*
G03X-1057126Y1029643I-400J-9D01*
G37*
G36*
G01X-1153800Y1030524D02*
G02X-1153832Y1030799I1170J276D01*
G02X-1152630Y1029597I1202J0D01*
G01X-1152638D01*
G03X-1153030Y1029105I-3J-400D01*
G02X-1152998Y1028830I-1170J-276D01*
G02X-1153450Y1027891I-1201J0D01*
G03X-1153549Y1027384I250J-312D01*
G02X-1153398Y1026800I-1051J-583D01*
G02X-1155802I-1202J0D01*
G02X-1155224Y1027827I1201J0D01*
G03X-1155167Y1028117I-104J171D01*
G02X-1155200Y1028163I960J723D01*
G03X-1155514Y1028188I-167J-110D01*
G02X-1156400Y1027798I-886J811D01*
G02Y1030202I0J1202D01*
G02X-1155507Y1029805I0J-1203D01*
G03X-1154958Y1029763I297J268D01*
G02X-1154200Y1030032I758J-933D01*
G01X-1154192D01*
G03X-1153800Y1030524I3J400D01*
G37*
G36*
G01X-1072747Y1034949D02*
G02X-1073602Y1036100I347J1151D01*
G02X-1071198I1202J0D01*
G02X-1071396Y1035439I-1202J0D01*
G03X-1071178Y1034836I334J-220D01*
G02X-1070323Y1033685I-347J-1151D01*
G02X-1072727I-1202J0D01*
G02X-1072529Y1034346I1202J0D01*
G03X-1072747Y1034949I-334J220D01*
G37*
G36*
G01X-1161272Y1038519D02*
G02X-1161282Y1038673I1192J155D01*
G02X-1160080Y1037471I1202J0D01*
G02X-1160329Y1037497I0J1202D01*
G03X-1160808Y1037054I-82J-391D01*
G02X-1160798Y1036900I-1192J-155D01*
G02X-1160800Y1036824I-1202J-6D01*
G03X-1160376Y1036400I399J-25D01*
G02X-1160300Y1036402I70J-1200D01*
G02Y1033998I0J-1202D01*
G01X-1160320D01*
G03X-1160719Y1033524I-6J-400D01*
G02X-1160698Y1033300I-1181J-224D01*
G02X-1161900Y1034502I-1202J0D01*
G01X-1161880D01*
G03X-1161481Y1034976I6J400D01*
G02X-1161502Y1035200I1181J224D01*
G02X-1161500Y1035276I1202J6D01*
G03X-1161924Y1035700I-399J25D01*
G02X-1162000Y1035698I-70J1200D01*
G02Y1038102I0J1202D01*
G02X-1161751Y1038076I0J-1202D01*
G03X-1161272Y1038519I82J391D01*
G37*
G36*
G01X-1178155Y1039165D02*
G02X-1178602Y1040100I754J935D01*
G02X-1176198I1202J0D01*
G02X-1176495Y1039309I-1202J0D01*
G03X-1176445Y1038735I302J-263D01*
G02X-1175998Y1037800I-754J-935D01*
G02X-1177200Y1036598I-1202J0D01*
G02X-1177425Y1036619I-1J1202D01*
G03X-1177899Y1036245I-75J-393D01*
G02X-1179100Y1035098I-1201J55D01*
G02Y1037502I0J1202D01*
G02X-1178875Y1037481I1J-1202D01*
G03X-1178401Y1037855I75J393D01*
G02X-1178105Y1038591I1201J-55D01*
G03X-1178155Y1039165I-302J263D01*
G37*
G36*
G01X-1004807Y1039601D02*
G02X-1005651Y1040749I359J1148D01*
G02X-1003247I1202J0D01*
G02X-1003454Y1040074I-1202J-1D01*
G03X-1003242Y1039468I331J-224D01*
G02X-1002398Y1038320I-359J-1148D01*
G02X-1004802I-1202J0D01*
G02X-1004595Y1038995I1202J1D01*
G03X-1004807Y1039601I-331J224D01*
G37*
G36*
G01X-1183515Y1040861D02*
G02X-1183900Y1040798I-384J1139D01*
G02Y1043202I0J1202D01*
G02X-1182709Y1042163I0J-1202D01*
G03X-1182185Y1041839I396J55D01*
G02X-1181800Y1041902I384J-1139D01*
G02Y1039498I0J-1202D01*
G02X-1182991Y1040537I0J1202D01*
G03X-1183515Y1040861I-396J-55D01*
G37*
G36*
G01X-1106419Y1041863D02*
G02X-1106467Y1042200I1154J336D01*
G02X-1104063I1202J0D01*
G02X-1105225Y1040999I-1202J0D01*
G03X-1105596Y1040487I13J-400D01*
G02X-1105548Y1040150I-1154J-336D01*
G02X-1107952I-1202J0D01*
G02X-1106790Y1041351I1202J0D01*
G03X-1106419Y1041863I-13J400D01*
G37*
G36*
G01X-1103189Y1045615D02*
G02X-1103702Y1046600I689J985D01*
G02X-1102500Y1047802I1202J0D01*
G02X-1101326Y1046856I0J-1201D01*
G03X-1100826Y1046557I391J86D01*
G02X-1100500Y1046602I326J-1158D01*
G02Y1044198I0J-1202D01*
G02X-1100778Y1044231I2J1202D01*
G03X-1101269Y1043881I-93J-389D01*
G02X-1102465Y1042798I-1196J119D01*
G02X-1103667Y1044000I0J1202D01*
G02X-1103180Y1044966I1202J0D01*
G03X-1103189Y1045615I-238J321D01*
G37*
G36*
G01X-1142061Y1049675D02*
G02X-1143152Y1050872I111J1197D01*
G02X-1141950Y1052074I1202J0D01*
G02X-1140751Y1050964I0J-1203D01*
G03X-1140390Y1050596I399J30D01*
G02X-1139299Y1049399I-111J-1197D01*
G02X-1139632Y1048569I-1201J0D01*
G03X-1139656Y1048045I290J-276D01*
G02X-1139398Y1047300I-944J-744D01*
G02X-1140600Y1046098I-1202J0D01*
G02X-1140841Y1046122I-2J1202D01*
G03X-1141315Y1045798I-80J-392D01*
G02X-1141679Y1045122I-1185J202D01*
G03X-1141629Y1044498I273J-292D01*
G02X-1141527Y1044420I-678J-993D01*
G03X-1140958Y1044475I258J306D01*
G02X-1140023Y1044922I935J-754D01*
G02Y1042518I0J-1202D01*
G02X-1140796Y1042800I0J1202D01*
G03X-1141365Y1042745I-258J-306D01*
G02X-1142300Y1042298I-935J754D01*
G02X-1142823Y1042418I1J1202D01*
G03X-1143372Y1042195I-173J-361D01*
G02X-1144500Y1041408I-1128J415D01*
G02X-1145702Y1042610I0J1202D01*
G02X-1145639Y1042995I1202J1D01*
G03X-1145814Y1043466I-379J127D01*
G02X-1146402Y1044500I615J1034D01*
G02X-1145776Y1045555I1202J0D01*
G03X-1145602Y1046066I-192J351D01*
G02X-1145702Y1046547I1102J480D01*
G02X-1145669Y1046827I1202J0D01*
G03X-1146018Y1047319I-389J94D01*
G02X-1147102Y1048515I118J1196D01*
G02X-1147017Y1048958I1202J-1D01*
G03X-1147192Y1049454I-372J148D01*
G02X-1147802Y1050500I592J1046D01*
G02X-1145398I1202J0D01*
G02X-1145483Y1050057I-1202J1D01*
G03X-1145308Y1049561I372J-148D01*
G02X-1144698Y1048515I-592J-1046D01*
G02X-1144731Y1048235I-1202J0D01*
G03X-1144382Y1047743I389J-94D01*
G02X-1143508Y1047226I-118J-1196D01*
G03X-1143009Y1047089I330J226D01*
G02X-1142500Y1047202I509J-1090D01*
G02X-1142259Y1047178I2J-1202D01*
G03X-1141785Y1047502I80J392D01*
G02X-1141469Y1048130I1185J-203D01*
G03X-1141445Y1048654I-290J276D01*
G02X-1141700Y1049307I944J745D01*
G03X-1142061Y1049675I-399J-30D01*
G37*
G36*
G01X-1119530Y1050863D02*
Y1050872D01*
G02X-1117126I1202J0D01*
G02X-1117255Y1050330I-1203J0D01*
G03X-1117148Y1049838I357J-180D01*
G02X-1116698Y1048900I-753J-938D01*
G02X-1116737Y1048596I-1202J0D01*
G03X-1116388Y1048097I387J-101D01*
G02X-1115298Y1046900I-112J-1197D01*
G02X-1117702I-1202J0D01*
G02X-1117663Y1047204I1202J0D01*
G03X-1118012Y1047703I-387J101D01*
G02X-1118928Y1048277I112J1197D01*
G03X-1119526Y1048377I-342J-207D01*
G02X-1119588Y1048328I-776J918D01*
G03X-1119664Y1047754I235J-323D01*
G02X-1119398Y1047000I-936J-754D01*
G02X-1120600Y1045798I-1202J0D01*
G02X-1121602Y1046337I0J1201D01*
G03X-1122252Y1046362I-334J-221D01*
G02X-1123200Y1045898I-949J738D01*
G02X-1123988Y1046192I0J1203D01*
G03X-1124512I-262J-302D01*
G02X-1125300Y1045898I-788J909D01*
G02X-1126265Y1046384I0J1201D01*
G03X-1126940Y1046334I-322J-238D01*
G02X-1128000Y1045698I-1060J565D01*
G02X-1129202Y1046900I0J1202D01*
G02X-1128856Y1047744I1202J0D01*
G03X-1128898Y1048344I-284J282D01*
G02X-1129372Y1049300I727J956D01*
G01Y1049309D01*
G03X-1129864Y1049702I-400J4D01*
G02X-1130139Y1049670I-276J1170D01*
G02X-1130433Y1049707I2J1202D01*
G03X-1130931Y1049314I-98J-388D01*
G01Y1049300D01*
G02X-1133335I-1202J0D01*
G01Y1049305D01*
G03X-1133820Y1049698I-400J2D01*
G02X-1133832Y1049695I-297J1164D01*
G03X-1134063Y1049053I81J-392D01*
G02X-1133798Y1048300I-937J-753D01*
G02X-1133996Y1047640I-1202J1D01*
G03X-1133921Y1047115I334J-220D01*
G02X-1133498Y1046200I-778J-915D01*
G02X-1133671Y1045579I-1201J0D01*
G03X-1133427Y1044985I343J-206D01*
G02X-1132521Y1043820I-296J-1165D01*
G02X-1134925I-1202J0D01*
G02X-1134752Y1044441I1201J0D01*
G03X-1134996Y1045035I-343J206D01*
G02X-1135902Y1046200I296J1165D01*
G02X-1135704Y1046860I1202J-1D01*
G03X-1135779Y1047385I-334J220D01*
G02X-1135863Y1047463I775J919D01*
G03X-1136437I-287J-278D01*
G02X-1137300Y1047098I-863J838D01*
G02X-1138502Y1048300I0J1202D01*
G02X-1138208Y1049087I1202J-1D01*
G03X-1138386Y1049729I-302J262D01*
G02X-1139215Y1050872I373J1143D01*
G02X-1136811I1202J0D01*
G02X-1137105Y1050085I-1202J1D01*
G03X-1136927Y1049443I302J-262D01*
G02X-1136437Y1049137I-373J-1143D01*
G03X-1135863I287J278D01*
G02X-1135244Y1049477I863J-837D01*
G03X-1135013Y1050119I-81J392D01*
G02X-1135278Y1050872I937J753D01*
G02X-1132874I1202J0D01*
G01Y1050867D01*
G03X-1132389Y1050474I400J-2D01*
G02X-1132133Y1050502I258J-1174D01*
G02X-1131839Y1050465I-2J-1202D01*
G03X-1131341Y1050858I98J388D01*
G01Y1050872D01*
G02X-1128937I1202J0D01*
G01Y1050863D01*
G03X-1128445Y1050470I400J-4D01*
G02X-1128170Y1050502I276J-1170D01*
G02X-1127895Y1050470I-1J-1202D01*
G03X-1127404Y1050863I91J390D01*
G01Y1050872D01*
G02X-1125000I1202J0D01*
G01Y1050863D01*
G03X-1124508Y1050470I400J-4D01*
G02X-1124233Y1050502I276J-1170D01*
G02X-1123958Y1050470I-1J-1202D01*
G03X-1123467Y1050863I91J390D01*
G01Y1050872D01*
G02X-1121063I1202J0D01*
G01Y1050863D01*
G03X-1120571Y1050470I400J-4D01*
G02X-1120296Y1050502I276J-1170D01*
G02X-1120021Y1050470I-1J-1202D01*
G03X-1119530Y1050863I91J390D01*
G37*
G36*
G01X-1096701Y1051859D02*
G02X-1095500Y1053022I1201J-39D01*
G02Y1050618I0J-1202D01*
G02X-1096024Y1050738I0J1202D01*
G03X-1096599Y1050391I-175J-360D01*
G02X-1097800Y1049228I-1201J39D01*
G02Y1051632I0J1202D01*
G02X-1097276Y1051512I0J-1202D01*
G03X-1096701Y1051859I175J360D01*
G37*
G36*
G01X-1025330Y1057120D02*
G02X-1024300Y1057702I1030J-620D01*
G02X-1023478Y1057377I0J-1202D01*
G03X-1022854Y1057477I273J292D01*
G02X-1021800Y1058102I1054J-576D01*
G02X-1020771Y1057521I0J-1202D01*
G03X-1020172Y1057421I342J207D01*
G02X-1019400Y1057702I772J-920D01*
G02Y1055298I0J-1202D01*
G02X-1020429Y1055879I0J1202D01*
G03X-1021028Y1055979I-342J-207D01*
G02X-1021800Y1055698I-772J920D01*
G02X-1022622Y1056023I0J1202D01*
G03X-1023246Y1055923I-273J-292D01*
G02X-1024300Y1055298I-1054J576D01*
G02X-1025371Y1055955I0J1201D01*
G03X-1026070Y1055980I-356J-182D01*
G02X-1027100Y1055398I-1030J620D01*
G02Y1057802I0J1202D01*
G02X-1026029Y1057145I0J-1201D01*
G03X-1025330Y1057120I356J182D01*
G37*
G36*
G01X-1057292Y1056943D02*
G02X-1057302Y1057100I1192J155D01*
G02X-1054898I1202J0D01*
G02X-1055024Y1056563I-1202J-1D01*
G03X-1054725Y1055989I358J-178D01*
G02X-1053698Y1054800I-175J-1189D01*
G02X-1054900Y1053598I-1202J0D01*
G02X-1056003Y1054323I0J1202D01*
G03X-1056652Y1054448I-367J-159D01*
G02X-1057500Y1054098I-848J852D01*
G02X-1058702Y1055300I0J1202D01*
G02X-1057641Y1056494I1202J0D01*
G03X-1057292Y1056943I-47J397D01*
G37*
G36*
G01X-1073174Y1059400D02*
G03X-1072800Y1059774I-25J399D01*
G02X-1071600Y1060902I1200J-74D01*
G02X-1070398Y1059700I0J-1202D01*
G02X-1070705Y1058897I-1202J-1D01*
G03X-1070630Y1058298I298J-267D01*
G02X-1070098Y1057300I-670J-998D01*
G02X-1070774Y1056219I-1202J0D01*
G03X-1070899Y1055595I175J-360D01*
G02X-1070598Y1054800I-901J-796D01*
G02X-1073002I-1202J0D01*
G02X-1072326Y1055881I1202J0D01*
G03X-1072201Y1056505I-175J360D01*
G02X-1072394Y1056801I899J797D01*
G03X-1072843Y1057026I-364J-166D01*
G02X-1073100Y1056998I-258J1174D01*
G02X-1074302Y1058200I0J1202D01*
G02X-1073174Y1059400I1202J0D01*
G37*
G36*
G01X-1040773Y1060620D02*
G02X-1041000Y1060598I-229J1180D01*
G02X-1039798Y1061800I0J1202D01*
G02X-1039802Y1061705I-1202J3D01*
G03X-1039327Y1061280I399J-32D01*
G02X-1039100Y1061302I229J-1180D01*
G02X-1040302Y1060100I0J-1202D01*
G02X-1040298Y1060195I1202J-3D01*
G03X-1040773Y1060620I-399J32D01*
G37*
G36*
G01X-1036928Y1061010D02*
G02X-1037100Y1060998I-169J1190D01*
G02X-1035898Y1062200I0J1202D01*
G02X-1035921Y1061964I-1202J-2D01*
G03X-1035472Y1061490I392J-78D01*
G02X-1035300Y1061502I169J-1190D01*
G02X-1036502Y1060300I0J-1202D01*
G02X-1036479Y1060536I1202J2D01*
G03X-1036928Y1061010I-392J78D01*
G37*
G36*
G01X-1034580Y1066273D02*
G02X-1034602Y1066500I1180J229D01*
G02X-1033400Y1065298I1202J0D01*
G02X-1033495Y1065302I3J1202D01*
G03X-1033920Y1064827I-32J-399D01*
G02X-1033898Y1064600I-1180J-229D01*
G02X-1035100Y1065802I-1202J0D01*
G02X-1035005Y1065798I-3J-1202D01*
G03X-1034580Y1066273I32J399D01*
G37*
G36*
G01X-1028891Y1068362D02*
G02X-1027700Y1069402I1191J-162D01*
G02Y1066998I0J-1202D01*
G02X-1028385Y1067212I0J1203D01*
G03X-1029009Y1066938I-228J-329D01*
G02X-1030200Y1065898I-1191J162D01*
G02Y1068302I0J1202D01*
G02X-1029515Y1068088I0J-1203D01*
G03X-1028891Y1068362I228J329D01*
G37*
G36*
G01X-1189669Y1073356D02*
G02X-1190502Y1074500I369J1144D01*
G02X-1188098I1202J0D01*
G02X-1188105Y1074368I-1202J-2D01*
G03X-1187831Y1073944I397J-44D01*
G02X-1187006Y1072938I-369J-1144D01*
G03X-1186700Y1073603I7J400D01*
G02X-1187002Y1074400I901J797D01*
G02X-1184598I1202J0D01*
G02X-1184825Y1073697I-1202J0D01*
G03X-1184800Y1073197I324J-234D01*
G02X-1184498Y1072400I-901J-797D01*
G02X-1184752Y1071661I-1202J0D01*
G03X-1184740Y1071153I315J-247D01*
G02X-1184448Y1070368I-909J-785D01*
G02X-1186852I-1202J0D01*
G02X-1186598Y1071107I1202J0D01*
G03X-1186610Y1071615I-315J247D01*
G02X-1186754Y1071823I911J784D01*
G03X-1187378Y1071923I-351J-192D01*
G02X-1188200Y1071598I-822J877D01*
G02X-1189402Y1072800I0J1202D01*
G02X-1189395Y1072932I1202J2D01*
G03X-1189669Y1073356I-397J44D01*
G37*
G36*
G01X-1034421Y1073871D02*
G02X-1035002Y1074900I621J1029D01*
G02X-1032598I1202J0D01*
G02X-1033029Y1073978I-1202J0D01*
G03X-1032979Y1073329I257J-307D01*
G02X-1032398Y1072300I-621J-1029D01*
G02X-1034802I-1202J0D01*
G02X-1034371Y1073222I1202J0D01*
G03X-1034421Y1073871I-257J307D01*
G37*
G36*
G01X-1012831Y1071902D02*
G02X-1009399Y1072038I1630J2245D01*
G03X-1009254Y1071351I260J-304D01*
G02X-1008398Y1070200I-346J-1151D01*
G02X-1009600Y1068998I-1202J0D01*
G02X-1010568Y1069487I0J1203D01*
G03X-1011192Y1069512I-322J-237D01*
G02X-1011731Y1069156I-908J788D01*
G03X-1012005Y1068732I123J-380D01*
G02X-1011998Y1068600I-1195J-130D01*
G02X-1012028Y1068332I-1202J-1D01*
G03X-1011789Y1067872I390J-90D01*
G02X-1011261Y1067454I-452J-1114D01*
G03X-1010602Y1067464I326J232D01*
G02X-1009600Y1068002I1002J-664D01*
G02X-1008398Y1066800I0J-1202D01*
G02X-1008763Y1065937I-1203J0D01*
G03Y1065363I278J-287D01*
G02X-1008398Y1064500I-838J-863D01*
G02X-1008772Y1063629I-1201J0D01*
G03X-1008672Y1062980I276J-290D01*
G02X-1007998Y1061900I-528J-1080D01*
G02X-1010402I-1202J0D01*
G02X-1010028Y1062771I1201J0D01*
G03X-1010128Y1063420I-276J290D01*
G02X-1010802Y1064500I528J1080D01*
G02X-1010437Y1065363I1203J0D01*
G03Y1065937I-278J287D01*
G02X-1010580Y1066104I838J862D01*
G03X-1011239Y1066094I-326J-232D01*
G02X-1011585Y1065751I-1002J664D01*
G03X-1011725Y1065237I218J-335D01*
G02X-1011598Y1064700I-1075J-538D01*
G02X-1014002I-1202J0D01*
G02X-1013456Y1065707I1202J0D01*
G03X-1013316Y1066221I-218J335D01*
G02X-1013443Y1066758I1075J538D01*
G02X-1013413Y1067026I1202J1D01*
G03X-1013652Y1067486I-390J90D01*
G02X-1014402Y1068600I452J1114D01*
G02X-1013569Y1069744I1202J0D01*
G03X-1013295Y1070168I-123J380D01*
G02X-1013302Y1070300I1195J130D01*
G02X-1012825Y1071259I1203J0D01*
G03X-1012831Y1071902I-241J319D01*
G37*
G36*
G01X-1061120Y1076670D02*
G02X-1061702Y1077700I620J1030D01*
G02X-1059298I1202J0D01*
G02X-1059955Y1076629I-1201J0D01*
G03X-1059980Y1075930I182J-356D01*
G02X-1059398Y1074900I-620J-1030D01*
G02X-1061802I-1202J0D01*
G02X-1061145Y1075971I1201J0D01*
G03X-1061120Y1076670I-182J356D01*
G37*
G36*
G01X-1061036Y1080442D02*
G02X-1061600Y1080302I-563J1062D01*
G02Y1082706I0J1202D01*
G02X-1060438Y1081812I0J-1202D01*
G03X-1059864Y1081562I386J103D01*
G02X-1059300Y1081702I563J-1062D01*
G02Y1079298I0J-1202D01*
G02X-1060462Y1080192I0J1202D01*
G03X-1061036Y1080442I-386J-103D01*
G37*
G36*
G01X-1193290Y1082398D02*
X-1193300D01*
G02X-1192098Y1083600I0J1202D01*
G02X-1192185Y1083151I-1202J0D01*
G03X-1191810Y1082602I371J-149D01*
G01X-1191800D01*
G02X-1190598Y1081400I0J-1202D01*
G02X-1190860Y1080650I-1202J-1D01*
G03X-1190617Y1080007I313J-249D01*
G02X-1189622Y1078823I-207J-1184D01*
G02X-1192026I-1202J0D01*
G02X-1191764Y1079573I1202J1D01*
G03X-1192007Y1080216I-313J249D01*
G02X-1193002Y1081400I207J1184D01*
G02X-1192915Y1081849I1202J0D01*
G03X-1193290Y1082398I-371J149D01*
G37*
G36*
G01X-1006884Y1089250D02*
G02X-1007502Y1090300I583J1050D01*
G02X-1005098I1202J0D01*
G02X-1005716Y1089250I-1201J0D01*
G03Y1088550I195J-350D01*
G02X-1005098Y1087500I-583J-1050D01*
G02X-1007502I-1202J0D01*
G02X-1006884Y1088550I1201J0D01*
G03Y1089250I-195J350D01*
G37*
G36*
G01X-997484Y1091610D02*
G02X-997702Y1092300I983J690D01*
G02X-995298I1202J0D01*
G02X-996041Y1091189I-1202J0D01*
G03X-996216Y1090590I153J-370D01*
G02X-995998Y1089900I-983J-690D01*
G02X-998402I-1202J0D01*
G02X-997659Y1091011I1202J0D01*
G03X-997484Y1091610I-153J370D01*
G37*
G36*
G01X-1040652Y1092062D02*
G02X-1041102Y1093000I753J938D01*
G02X-1038698I1202J0D01*
G02X-1039522Y1091859I-1202J0D01*
G03X-1038794Y1091676I398J43D01*
G02X-1037800Y1092202I994J-676D01*
G02Y1089798I0J-1202D01*
G02X-1038382Y1089948I-1J1202D01*
G03X-1038906Y1089824I-194J-350D01*
G02X-1039148Y1089562I-994J676D01*
G03Y1088938I250J-312D01*
G02X-1038716Y1088207I-752J-938D01*
G03X-1038167Y1087908I394J69D01*
G02X-1037700Y1088002I466J-1108D01*
G02X-1036734Y1087515I0J-1202D01*
G03X-1036135Y1087465I321J238D01*
G02X-1035300Y1087802I835J-866D01*
G02X-1034664Y1087620I0J-1202D01*
G03X-1034115Y1087745I211J339D01*
G02X-1033100Y1088302I1015J-646D01*
G02X-1032111Y1087783I0J-1202D01*
G03X-1031437Y1087808I329J227D01*
G02X-1030400Y1088402I1037J-608D01*
G02X-1029387Y1087847I0J-1202D01*
G03X-1028713I337J215D01*
G02X-1027700Y1088402I1013J-647D01*
G02X-1026498Y1087200I0J-1202D01*
G02X-1026863Y1086337I-1203J0D01*
G03Y1085763I278J-287D01*
G02X-1026498Y1084900I-838J-863D01*
G02X-1027700Y1083698I-1202J0D01*
G02X-1028713Y1084253I0J1202D01*
G03X-1029387I-337J-215D01*
G02X-1029471Y1084138I-1011J650D01*
G03X-1029221Y1083489I309J-253D01*
G02X-1028198Y1082300I-179J-1189D01*
G02X-1028237Y1081996I-1202J0D01*
G03X-1027888Y1081497I387J-101D01*
G01X-1027887D01*
G03X-1027463Y1081996I37J398D01*
G02X-1027502Y1082300I1163J304D01*
G02X-1025098I1202J0D01*
G02X-1025137Y1081996I-1202J0D01*
G03X-1024788Y1081497I387J-101D01*
G02X-1024571Y1081456I-114J-1197D01*
G03X-1024071Y1081930I110J385D01*
G02X-1024102Y1082200I1171J271D01*
G02X-1023079Y1083389I1202J0D01*
G03X-1022829Y1084038I-59J396D01*
G02X-1022971Y1084255I929J763D01*
G03X-1023670Y1084280I-356J-182D01*
G02X-1024700Y1083698I-1030J620D01*
G02X-1025902Y1084900I0J1202D01*
G02X-1025537Y1085763I1203J0D01*
G03Y1086337I-278J287D01*
G02X-1025902Y1087200I838J863D01*
G02X-1023498I1202J0D01*
G02X-1023863Y1086337I-1203J0D01*
G03Y1085763I278J-287D01*
G02X-1023629Y1085445I-838J-862D01*
G03X-1022930Y1085420I356J182D01*
G02X-1022563Y1085802I1029J-621D01*
G03X-1022538Y1086452I-221J334D01*
G02X-1023002Y1087400I738J949D01*
G02X-1020598I1202J0D01*
G02X-1021137Y1086398I-1201J0D01*
G03X-1021162Y1085748I221J-334D01*
G02X-1020698Y1084800I-738J-949D01*
G02X-1021721Y1083611I-1202J0D01*
G03X-1021971Y1082962I59J-396D01*
G02X-1021698Y1082200I-929J-763D01*
G02X-1022900Y1080998I-1202J0D01*
G02X-1023229Y1081044I0J1202D01*
G03X-1023729Y1080570I-110J-385D01*
G02X-1023698Y1080300I-1171J-271D01*
G02X-1024145Y1079365I-1201J0D01*
G03X-1024195Y1078791I252J-311D01*
G02X-1023898Y1078000I-905J-791D01*
G02X-1026302I-1202J0D01*
G02X-1025855Y1078935I1201J0D01*
G03X-1025805Y1079509I-252J311D01*
G02X-1026102Y1080300I905J791D01*
G02X-1026063Y1080604I1202J0D01*
G03X-1026412Y1081103I-387J101D01*
G01X-1026413D01*
G03X-1026837Y1080604I-37J-398D01*
G02X-1026798Y1080300I-1163J-304D01*
G02X-1027298Y1079325I-1201J0D01*
G03Y1078675I234J-325D01*
G02X-1026798Y1077700I-701J-975D01*
G02X-1027095Y1076909I-1202J0D01*
G03X-1027045Y1076335I302J-263D01*
G02X-1026598Y1075400I-754J-935D01*
G02X-1029002I-1202J0D01*
G02X-1028705Y1076191I1202J0D01*
G03X-1028755Y1076765I-302J263D01*
G02X-1029202Y1077700I754J935D01*
G02X-1028702Y1078675I1201J0D01*
G03Y1079325I-234J325D01*
G02X-1029202Y1080300I701J975D01*
G02X-1029163Y1080604I1202J0D01*
G03X-1029512Y1081103I-387J101D01*
G02X-1030602Y1082300I112J1197D01*
G02X-1030329Y1083062I1202J-1D01*
G03X-1030579Y1083711I-309J253D01*
G02X-1031389Y1084217I179J1189D01*
G03X-1032063Y1084192I-329J-227D01*
G02X-1032362Y1083852I-1036J609D01*
G03X-1032337Y1083202I246J-316D01*
G02X-1031798Y1082200I-662J-1002D01*
G02X-1031837Y1081896I-1202J0D01*
G03X-1031488Y1081397I387J-101D01*
G02X-1030398Y1080200I-112J-1197D01*
G02X-1032802I-1202J0D01*
G02X-1032763Y1080504I1202J0D01*
G03X-1033112Y1081003I-387J101D01*
G02X-1033827Y1081327I112J1197D01*
G03X-1034401Y1081302I-275J-290D01*
G02X-1035300Y1080898I-899J798D01*
G02X-1036095Y1081199I1J1202D01*
G03X-1036719Y1081074I-264J-300D01*
G02X-1037800Y1080398I-1081J526D01*
G02X-1038213Y1080471I0J1202D01*
G03X-1038737Y1080196I-137J-376D01*
G02X-1039900Y1079298I-1163J304D01*
G02X-1041102Y1080500I0J1202D01*
G02X-1040652Y1081438I1203J0D01*
G03Y1082062I-250J312D01*
G02Y1083938I753J938D01*
G03Y1084562I-250J312D01*
G02Y1086438I753J938D01*
G03Y1087062I-250J312D01*
G02Y1088938I753J938D01*
G03Y1089562I-250J312D01*
G02Y1091438I753J938D01*
G03Y1092062I-250J312D01*
G37*
G36*
G01X-1011045Y1092229D02*
G02X-1011702Y1093300I544J1071D01*
G02X-1009298I1202J0D01*
G02X-1009880Y1092270I-1202J0D01*
G03X-1009855Y1091571I207J-343D01*
G02X-1009198Y1090500I-544J-1071D01*
G02X-1009816Y1089450I-1201J0D01*
G03Y1088750I195J-350D01*
G02X-1009198Y1087700I-583J-1050D01*
G02X-1011602I-1202J0D01*
G02X-1010984Y1088750I1201J0D01*
G03Y1089450I-195J350D01*
G02X-1011602Y1090500I583J1050D01*
G02X-1011020Y1091530I1202J0D01*
G03X-1011045Y1092229I-207J343D01*
G37*
G36*
G01X-1014545Y1092429D02*
G02X-1015202Y1093500I544J1071D01*
G02X-1012798I1202J0D01*
G02X-1013380Y1092470I-1202J0D01*
G03X-1013355Y1091771I207J-343D01*
G02X-1012698Y1090700I-544J-1071D01*
G02X-1013334Y1089640I-1201J0D01*
G03X-1013384Y1088965I188J-353D01*
G02X-1012898Y1088000I-715J-965D01*
G02X-1014100Y1086798I-1202J0D01*
G02X-1014637Y1086924I-1J1202D01*
G03X-1015211Y1086625I-178J-358D01*
G02X-1016400Y1085598I-1189J175D01*
G02X-1017602Y1086800I0J1202D01*
G02X-1017152Y1087738I1203J0D01*
G03Y1088362I-250J312D01*
G02Y1090238I753J938D01*
G03Y1090862I-250J312D01*
G02X-1017602Y1091800I753J938D01*
G02X-1016400Y1093002I1202J0D01*
G02X-1015209Y1091962I0J-1202D01*
G03X-1014585Y1091688I396J55D01*
G02X-1014520Y1091730I685J-988D01*
G03X-1014545Y1092429I-207J343D01*
G37*
G36*
G01X-1022599Y1099059D02*
G02X-1022075Y1099458I399J19D01*
G03X-1021803Y1099402I377J1142D01*
G02X-1021717Y1099032I-17J-199D01*
G03X-1022286Y1098193I618J-1032D01*
G03X-1021810Y1097737I395J-64D01*
G02X-1021563Y1097763I249J-1176D01*
G02X-1020620Y1097306I0J-1201D01*
G03X-1020005Y1097291I314J248D01*
G02X-1019100Y1097702I905J-791D01*
G02X-1018135Y1097216I0J-1201D01*
G03X-1017460Y1097266I322J238D01*
G02X-1016400Y1097902I1060J-565D01*
G02Y1095498I0J-1202D01*
G02X-1017365Y1095984I0J1201D01*
G03X-1018040Y1095934I-322J-238D01*
G02X-1019100Y1095298I-1060J565D01*
G02X-1020043Y1095755I0J1201D01*
G03X-1020658Y1095770I-314J-248D01*
G02X-1021563Y1095359I-905J791D01*
G02X-1021813Y1095385I-1J1202D01*
G03X-1022202Y1094500I812J-885D01*
G03X-1022185Y1094296I1202J-3D01*
G02X-1022459Y1093847I-394J-68D01*
G03X-1023302Y1092700I359J-1147D01*
G01Y1092699D01*
G03X-1023197Y1092208I1202J0D01*
G02X-1023282Y1091951I-182J-82D01*
G03X-1023902Y1090900I581J-1051D01*
G01Y1090898D01*
G03X-1023819Y1090460I1202J1D01*
G02X-1023976Y1090189I-186J-73D01*
G03X-1024107Y1090162I177J-1189D01*
G02X-1024610Y1090561I-103J387D01*
G03X-1024609Y1090597I-1201J51D01*
G03X-1024867Y1091341I-1202J0D01*
G02X-1024863Y1091840I315J247D01*
G03X-1024595Y1092597I-935J757D01*
G03X-1024828Y1093308I-1201J0D01*
G02X-1024895Y1093455I323J236D01*
G03X-1025464Y1093724I-390J-89D01*
G02X-1026000Y1093598I-536J1077D01*
G02X-1026768Y1093875I0J1203D01*
G03X-1027039Y1093861I-128J-154D01*
G02X-1027900Y1093498I-861J840D01*
G02X-1028838Y1093948I0J1203D01*
G03X-1029462I-312J-250D01*
G02X-1029583Y1093819I-935J756D01*
G03X-1029433Y1093145I272J-293D01*
G02X-1028598Y1092000I-368J-1145D01*
G02X-1031002I-1202J0D01*
G02X-1030617Y1092881I1202J-1D01*
G03X-1030767Y1093555I-272J293D01*
G02X-1031338Y1093948I367J1145D01*
G03X-1031962I-312J-250D01*
G02X-1032148Y1093762I-938J752D01*
G03Y1093138I250J-312D01*
G02X-1031698Y1092200I-753J-938D01*
G02X-1034102I-1202J0D01*
G02X-1033652Y1093138I1203J0D01*
G03Y1093762I-250J312D01*
G02X-1034102Y1094700I753J938D01*
G02X-1033466Y1095760I1201J0D01*
G03X-1033416Y1096435I-188J353D01*
G02X-1033902Y1097400I715J965D01*
G02X-1032700Y1098602I1202J0D01*
G02X-1031762Y1098152I0J-1203D01*
G03X-1031138I312J250D01*
G02X-1029262I938J-753D01*
G03X-1028638I312J250D01*
G02X-1027700Y1098602I938J-753D01*
G02X-1026932Y1098325I0J-1203D01*
G03X-1026661Y1098339I128J154D01*
G02X-1025800Y1098702I861J-840D01*
G02X-1024602Y1097597I0J-1202D01*
G03X-1024302Y1097440I199J16D01*
G02X-1024185Y1097500I606J-1038D01*
G02X-1023799Y1097798I387J-102D01*
G03X-1022598Y1099000I-1J1202D01*
G03X-1022599Y1099059I-1202J9D01*
G37*
G36*
G01X-1006277Y1100724D02*
G02X-1007100Y1100398I-823J876D01*
G02Y1102802I0J1202D01*
G02X-1006379Y1102562I0J-1203D01*
G03X-1006123Y1102576I120J160D01*
G02X-1005300Y1102902I823J-876D01*
G02X-1004098Y1101700I0J-1202D01*
G02X-1004827Y1100595I-1202J0D01*
G03X-1004927Y1099921I157J-368D01*
G02X-1004613Y1099512I-774J-919D01*
G03X-1004356Y1099412I181J85D01*
G02X-1003900Y1099502I456J-1112D01*
G02X-1002698Y1098300I0J-1202D01*
G02X-1003279Y1097271I-1202J0D01*
G03X-1003429Y1096746I206J-343D01*
G02X-1003301Y1096287I-1071J-546D01*
G03X-1003101Y1096102I199J15D01*
G02X-1001898Y1094900I1J-1202D01*
G02X-1002528Y1093843I-1202J0D01*
G02X-1002398Y1093300I-1072J-544D01*
G02X-1004802I-1202J0D01*
G02X-1004172Y1094357I1202J0D01*
G02X-1004299Y1094813I1072J544D01*
G03X-1004499Y1094998I-199J-15D01*
G02X-1005702Y1096200I-1J1202D01*
G02X-1005121Y1097229I1202J0D01*
G03X-1004971Y1097754I-206J343D01*
G02X-1004987Y1097788I1079J529D01*
G03X-1005244Y1097888I-181J-85D01*
G02X-1005700Y1097798I-456J1112D01*
G02X-1006902Y1099000I0J1202D01*
G02X-1005801Y1100198I1202J0D01*
G03X-1005744Y1100583I-17J199D01*
G02X-1006021Y1100738I443J1117D01*
G03X-1006277Y1100724I-120J-160D01*
G37*
G36*
G01X-1181114Y1106075D02*
G02X-1181880Y1105719I-766J646D01*
G02Y1107723I0J1002D01*
G02X-1181173Y1107432I1J-1002D01*
G03X-1180586Y1107457I282J283D01*
G02X-1179820Y1107813I766J-646D01*
G02Y1105809I0J-1002D01*
G02X-1180527Y1106100I-1J1002D01*
G03X-1181114Y1106075I-282J-283D01*
G37*
G36*
G01X-1041668Y1108022D02*
G03X-1041143Y1108271I145J373D01*
G02X-1040000Y1109102I1143J-371D01*
G02X-1038798Y1107900I0J-1202D01*
G02X-1039248Y1106962I-1203J0D01*
G03Y1106338I250J-312D01*
G02X-1038798Y1105400I-753J-938D01*
G02X-1039379Y1104371I-1202J0D01*
G03X-1039479Y1103772I207J-342D01*
G02X-1039198Y1103000I-920J-772D01*
G02X-1039648Y1102062I-1203J0D01*
G03Y1101438I250J-312D01*
G02X-1039198Y1100500I-753J-938D01*
G02X-1039572Y1099629I-1201J0D01*
G03X-1039472Y1098980I276J-290D01*
G02X-1038798Y1097900I-528J-1080D01*
G02X-1039221Y1096985I-1201J0D01*
G03X-1039296Y1096460I259J-305D01*
G02X-1039098Y1095800I-1004J-661D01*
G02X-1041502I-1202J0D01*
G02X-1041079Y1096715I1201J0D01*
G03X-1041004Y1097240I-259J305D01*
G02X-1041189Y1097725I1004J661D01*
G03X-1041763Y1098024I-396J-59D01*
G02X-1042300Y1097898I-536J1076D01*
G02X-1043502Y1099100I0J1202D01*
G02X-1043132Y1099967I1201J0D01*
G03X-1043157Y1100566I-277J288D01*
G02X-1043602Y1101500I758J934D01*
G02X-1042984Y1102550I1201J0D01*
G03Y1103250I-195J350D01*
G02X-1043602Y1104300I583J1050D01*
G02X-1042976Y1105355I1202J0D01*
G03X-1042901Y1106004I-192J351D01*
G02X-1043302Y1106900I801J896D01*
G02X-1042100Y1108102I1202J0D01*
G02X-1041668Y1108022I1J-1202D01*
G37*
G36*
G01X-1022900Y1106766D02*
G02X-1023702Y1107900I401J1134D01*
G02X-1021298I1202J0D01*
G02X-1021500Y1107233I-1202J0D01*
G03X-1021300Y1106634I333J-222D01*
G02X-1020498Y1105500I-401J-1134D01*
G02X-1021700Y1104298I-1202J0D01*
G02X-1022332Y1104477I-1J1202D01*
G03X-1022906Y1104303I-210J-340D01*
G02X-1022960Y1104197I-1097J492D01*
G03X-1022811Y1103648I346J-201D01*
G02X-1022233Y1102888I-589J-1048D01*
G03X-1021783Y1102588I388J95D01*
G02X-1021600Y1102602I183J-1189D01*
G02Y1100198I0J-1202D01*
G02X-1022767Y1101112I0J1202D01*
G03X-1023217Y1101412I-388J-95D01*
G02X-1023400Y1101398I-183J1189D01*
G02X-1024458Y1102030I0J1202D01*
G03X-1025057Y1102155I-352J-190D01*
G02X-1025256Y1102028I-743J945D01*
G03Y1101672I91J-178D01*
G02X-1024598Y1100600I-544J-1072D01*
G02X-1025800Y1099398I-1202J0D01*
G02X-1026568Y1099675I0J1203D01*
G03X-1026839Y1099661I-128J-154D01*
G02X-1027700Y1099298I-861J840D01*
G02X-1028638Y1099748I0J1203D01*
G03X-1029262I-312J-250D01*
G02X-1031138I-938J753D01*
G03X-1031762I-312J-250D01*
G02X-1032700Y1099298I-938J753D01*
G02X-1033902Y1100500I0J1202D01*
G02X-1033452Y1101438I1203J0D01*
G03Y1102062I-250J312D01*
G02Y1103938I753J938D01*
G03Y1104562I-250J312D01*
G02X-1033902Y1105500I753J938D01*
G02X-1031498I1202J0D01*
G02X-1031948Y1104562I-1203J0D01*
G03Y1103938I250J-312D01*
G02X-1031762Y1103752I-752J-938D01*
G03X-1031138I312J250D01*
G02X-1029262I938J-753D01*
G03X-1028638I312J250D01*
G02X-1027700Y1104202I938J-753D01*
G02X-1026932Y1103925I0J-1203D01*
G03X-1026661Y1103939I128J154D01*
G02X-1025800Y1104302I861J-840D01*
G02X-1025649Y1104292I-4J-1202D01*
G03X-1025199Y1104717I51J397D01*
G02X-1025202Y1104800I1199J85D01*
G02X-1024000Y1106002I1202J0D01*
G02X-1023368Y1105823I1J-1202D01*
G03X-1022794Y1105997I210J340D01*
G02X-1022700Y1106167I1095J-495D01*
G03X-1022900Y1106766I-333J222D01*
G37*
G36*
G01X-1110093Y1110608D02*
G02X-1111282Y1111810I13J1202D01*
G02X-1108878I1202J0D01*
G02X-1109024Y1111236I-1201J0D01*
G03X-1108677Y1110645I351J-191D01*
G02X-1107488Y1109443I-13J-1202D01*
G02X-1109892I-1202J0D01*
G02X-1109746Y1110017I1201J0D01*
G03X-1110093Y1110608I-351J191D01*
G37*
G36*
G01X-1184900Y1112502D02*
G02X-1184904Y1112593I998J89D01*
G02X-1183902Y1111591I1002J0D01*
G02X-1184182Y1111631I0J1002D01*
G03X-1184692Y1111211I-112J-384D01*
G02X-1184688Y1111120I-998J-89D01*
G02X-1185690Y1112122I-1002J0D01*
G02X-1185410Y1112082I0J-1002D01*
G03X-1184900Y1112502I112J384D01*
G37*
G36*
G01X-1194631Y1112104D02*
G02X-1194912Y1112800I721J696D01*
G02X-1193910Y1113802I1002J0D01*
G02X-1193169Y1113474I0J-1001D01*
G03X-1192541Y1113520I296J269D01*
G02X-1191710Y1113963I831J-558D01*
G02X-1190708Y1112961I0J-1002D01*
G02X-1191075Y1112186I-1002J0D01*
G03X-1191047Y1111546I253J-310D01*
G02X-1190608Y1110717I-563J-829D01*
G02X-1190627Y1110521I-1002J-2D01*
G03X-1190156Y1110050I392J-79D01*
G02X-1189958Y1110070I199J-982D01*
G02X-1189147Y1109657I0J-1003D01*
G03X-1188500I323J235D01*
G02X-1187689Y1110070I811J-590D01*
G02Y1108066I0J-1002D01*
G02X-1188500Y1108479I0J1003D01*
G03X-1189147I-324J-235D01*
G02X-1189337Y1108282I-809J591D01*
G03Y1107654I248J-314D01*
G02X-1188956Y1106868I-620J-786D01*
G02X-1190960I-1002J0D01*
G02X-1190579Y1107654I1001J0D01*
G03Y1108282I-248J314D01*
G02X-1190960Y1109068I620J786D01*
G02X-1190941Y1109264I1002J2D01*
G03X-1191412Y1109735I-392J79D01*
G02X-1191610Y1109715I-199J982D01*
G02X-1192612Y1110717I0J1002D01*
G02X-1192245Y1111492I1002J0D01*
G03X-1192273Y1112132I-253J310D01*
G02X-1192451Y1112287I564J828D01*
G03X-1193079Y1112241I-296J-269D01*
G02X-1193268Y1112031I-832J558D01*
G03X-1193299Y1111446I257J-307D01*
G02X-1193018Y1110750I-721J-696D01*
G02X-1195022I-1002J0D01*
G02X-1194662Y1111519I1001J0D01*
G03X-1194631Y1112104I-257J307D01*
G37*
G36*
G01X-999481Y1113276D02*
G02X-999502Y1113500I1181J224D01*
G02X-998300Y1112298I1202J0D01*
G01X-998320D01*
G03X-998719Y1111824I-6J-400D01*
G02X-998698Y1111600I-1181J-224D01*
G02X-999900Y1112802I-1202J0D01*
G01X-999880D01*
G03X-999481Y1113276I6J400D01*
G37*
G36*
G01X-1026902Y1113992D02*
Y1114000D01*
G02X-1025700Y1112798I1202J0D01*
G02X-1025849Y1112807I-2J1202D01*
G03X-1026298Y1112408I-49J-397D01*
G01Y1112400D01*
G02X-1027500Y1113602I-1202J0D01*
G02X-1027351Y1113593I2J-1202D01*
G03X-1026902Y1113992I49J397D01*
G37*
G36*
G01X-1182720Y1116212D02*
G02X-1182936Y1116834I786J622D01*
G02X-1181934Y1117836I1002J0D01*
G02X-1181161Y1117472I0J-1003D01*
G03X-1180552Y1117462I309J254D01*
G02X-1179800Y1117802I752J-662D01*
G02X-1178798Y1116800I0J-1002D01*
G02X-1179137Y1116049I-1001J0D01*
G03X-1179118Y1115433I264J-300D01*
G02X-1178730Y1114641I-614J-792D01*
G02X-1180734I-1002J0D01*
G02X-1180395Y1115392I1001J0D01*
G03X-1180414Y1116008I-264J300D01*
G02X-1180573Y1116162I613J792D01*
G03X-1181182Y1116172I-309J-254D01*
G02X-1181326Y1116037I-754J660D01*
G03X-1181397Y1115471I242J-318D01*
G02X-1181181Y1114849I-786J-622D01*
G02X-1183185I-1002J0D01*
G02X-1182791Y1115646I1003J0D01*
G03X-1182720Y1116212I-242J318D01*
G37*
G36*
G01X-1033600Y1118833D02*
G02X-1033802Y1119500I1000J667D01*
G02X-1032600Y1120702I1202J0D01*
G02X-1031662Y1120252I0J-1203D01*
G03X-1031038I312J250D01*
G02X-1030100Y1120702I938J-753D01*
G02Y1118298I0J-1202D01*
G02X-1031038Y1118748I0J1203D01*
G03X-1031662I-312J-250D01*
G02X-1032200Y1118366I-938J752D01*
G03X-1032400Y1117767I133J-377D01*
G02X-1032198Y1117100I-1000J-667D01*
G02X-1034602I-1202J0D01*
G02X-1033800Y1118234I1203J0D01*
G03X-1033600Y1118833I-133J377D01*
G37*
G36*
G01X-1043904Y1125020D02*
G02X-1044600Y1124798I-696J980D01*
G02Y1127202I0J1202D01*
G02X-1043420Y1126230I0J-1202D01*
G03X-1042796Y1125980I393J76D01*
G02X-1042100Y1126202I696J-980D01*
G02Y1123798I0J-1202D01*
G02X-1043280Y1124770I0J1202D01*
G03X-1043904Y1125020I-393J-76D01*
G37*
G36*
G01X-1187373Y1125757D02*
G02X-1187679Y1125709I-306J954D01*
G02X-1186677Y1126711I0J1002D01*
G02X-1186693Y1126535I-1002J2D01*
G03X-1186176Y1126084I394J-70D01*
G02X-1185870Y1126132I306J-954D01*
G02X-1185465Y1126047I1J-1002D01*
G03X-1184904Y1126408I161J366D01*
G02X-1183902Y1127400I1002J-10D01*
G02X-1183200Y1127113I0J-1002D01*
G03X-1182622Y1127131I280J285D01*
G02X-1181877Y1127463I745J-670D01*
G02Y1125459I0J-1002D01*
G02X-1182579Y1125746I0J1002D01*
G03X-1183157Y1125728I-280J-285D01*
G02X-1183902Y1125396I-745J670D01*
G02X-1184307Y1125481I-1J1002D01*
G03X-1184868Y1125120I-161J-366D01*
G02X-1185870Y1124128I-1002J10D01*
G02X-1186872Y1125130I0J1002D01*
G02X-1186856Y1125306I1002J-2D01*
G03X-1187373Y1125757I-394J70D01*
G37*
G36*
G01X-1111063Y1131459D02*
G02X-1112241Y1132661I24J1202D01*
G02X-1109837I1202J0D01*
G02X-1109913Y1132241I-1202J1D01*
G03X-1109546Y1131702I375J-139D01*
G02X-1108368Y1130500I-24J-1202D01*
G02X-1110772I-1202J0D01*
G02X-1110696Y1130920I1202J-1D01*
G03X-1111063Y1131459I-375J139D01*
G37*
G36*
G01X-1050495Y1137010D02*
G02X-1050702Y1137684I994J674D01*
G02X-1048298I1202J0D01*
G02X-1049330Y1136494I-1202J0D01*
G03X-1049605Y1135874I56J-396D01*
G02X-1049398Y1135200I-994J-674D01*
G02X-1049614Y1134512I-1202J0D01*
G03X-1049383Y1133895I328J-229D01*
G02X-1048470Y1132728I-289J-1167D01*
G02X-1050874I-1202J0D01*
G02X-1050658Y1133416I1202J0D01*
G03X-1050889Y1134033I-328J229D01*
G02X-1051802Y1135200I289J1167D01*
G02X-1050770Y1136390I1202J0D01*
G03X-1050495Y1137010I-56J396D01*
G37*
G36*
G01X-1208304Y1141557D02*
G02X-1208602Y1142270I704J713D01*
G02X-1207600Y1143272I1002J0D01*
G02X-1206814Y1142891I0J-1001D01*
G03X-1206185Y1142892I314J248D01*
G02X-1205396Y1143276I789J-619D01*
G02X-1204394Y1142274I0J-1002D01*
G02X-1204770Y1141492I-1001J0D01*
G03X-1204797Y1140892I251J-312D01*
G02X-1204491Y1140171I-696J-721D01*
G02X-1205493Y1139169I-1002J0D01*
G02X-1206285Y1139557I0J1002D01*
G03X-1206912Y1139563I-316J-245D01*
G02X-1207693Y1139189I-781J628D01*
G02X-1208695Y1140191I0J1002D01*
G02X-1208331Y1140964I1003J0D01*
G03X-1208304Y1141557I-254J309D01*
G37*
G36*
G01X-1062724Y1141970D02*
G02X-1062902Y1142600I1024J630D01*
G02X-1060498I1202J0D01*
G02X-1061427Y1141429I-1203J0D01*
G03X-1061676Y1140830I91J-389D01*
G02X-1061498Y1140200I-1024J-630D01*
G02X-1063902I-1202J0D01*
G02X-1062973Y1141371I1203J0D01*
G03X-1062724Y1141970I-91J389D01*
G37*
G36*
G01X-1050720Y1143674D02*
G02X-1051502Y1144800I420J1126D01*
G02X-1049098I1202J0D01*
G02X-1049109Y1144640I-1202J2D01*
G03X-1048980Y1144426I198J-26D01*
G02X-1048198Y1143300I-420J-1126D01*
G02X-1048602Y1142401I-1202J0D01*
G03X-1048627Y1141827I265J-299D01*
G02X-1048298Y1141000I-873J-826D01*
G02X-1049500Y1139798I-1202J0D01*
G02X-1050611Y1140541I0J1202D01*
G03X-1051210Y1140716I-370J-153D01*
G02X-1051900Y1140498I-690J983D01*
G02Y1142902I0J1202D01*
G02X-1050704Y1141824I0J-1202D01*
G03X-1050273Y1142473I140J374D01*
G02X-1050602Y1143300I873J826D01*
G02X-1050591Y1143460I1202J-2D01*
G03X-1050720Y1143674I-198J26D01*
G37*
G36*
G01X-1123838Y1144209D02*
G02X-1124110Y1144178I-271J1171D01*
G02Y1146582I0J1202D01*
G02X-1122911Y1145463I0J-1202D01*
G03X-1122422Y1145101I399J28D01*
G02X-1122150Y1145132I271J-1171D01*
G02Y1142728I0J-1202D01*
G02X-1123349Y1143847I0J1202D01*
G03X-1123838Y1144209I-399J-28D01*
G37*
G36*
G01X-1219965Y1145523D02*
G02X-1220202Y1146170I765J647D01*
G02X-1219200Y1147172I1002J0D01*
G02X-1218438Y1146820I0J-1001D01*
G03X-1217800Y1146859I304J260D01*
G02X-1216965Y1147307I835J-554D01*
G02Y1145303I0J-1002D01*
G02X-1217727Y1145655I0J1001D01*
G03X-1218365Y1145616I-304J-260D01*
G02X-1218576Y1145386I-835J554D01*
G03X-1218632Y1144815I249J-313D01*
G02X-1218395Y1144168I-765J-647D01*
G02X-1220399I-1002J0D01*
G02X-1220021Y1144952I1002J0D01*
G03X-1219965Y1145523I-249J313D01*
G37*
G36*
G01X-1212096Y1145649D02*
G02X-1212400Y1146368I698J719D01*
G02X-1211398Y1147370I1002J0D01*
G02X-1210656Y1147042I0J-1003D01*
G03X-1210038Y1147074I296J269D01*
G02X-1209230Y1147483I808J-594D01*
G02X-1208228Y1146481I0J-1002D01*
G02X-1208687Y1145639I-1002J0D01*
G03X-1208744Y1145011I217J-336D01*
G02X-1208428Y1144281I-685J-730D01*
G02X-1209430Y1143279I-1002J0D01*
G02X-1210161Y1143596I0J1001D01*
G03X-1210738Y1143604I-292J-273D01*
G02X-1211451Y1143306I-713J704D01*
G02X-1212453Y1144308I0J1002D01*
G02X-1212111Y1145062I1002J0D01*
G03X-1212096Y1145649I-264J300D01*
G37*
G36*
G01X-1033901Y1155112D02*
G02X-1032980Y1155541I921J-774D01*
G02X-1032050Y1155100I0J-1201D01*
G03X-1031430I310J253D01*
G02X-1030500Y1155541I930J-760D01*
G02Y1153137I0J-1202D01*
G02X-1031430Y1153578I0J1201D01*
G03X-1032050I-310J-253D01*
G02X-1032980Y1153137I-930J760D01*
G02X-1033875Y1153537I0J1201D01*
G03X-1034479Y1153527I-298J-267D01*
G02X-1035400Y1153098I-921J774D01*
G02Y1155502I0J1202D01*
G02X-1034505Y1155102I0J-1201D01*
G03X-1033901Y1155112I298J267D01*
G37*
G36*
G01X-1090514Y1161312D02*
G02X-1091500Y1160798I-986J689D01*
G02Y1163202I0J1202D01*
G02X-1090433Y1162554I0J-1202D01*
G03X-1089751Y1162510I354J185D01*
G02X-1088765Y1163024I986J-689D01*
G02Y1160620I0J-1202D01*
G02X-1089832Y1161268I0J1202D01*
G03X-1090514Y1161312I-354J-185D01*
G37*
G36*
G01X-1233101Y1164217D02*
G02X-1233102Y1164270I1201J49D01*
G02X-1230698I1202J0D01*
G02X-1231825Y1163070I-1202J0D01*
G03X-1232199Y1162653I25J-399D01*
G02X-1232198Y1162600I-1201J-49D01*
G02X-1234602I-1202J0D01*
G01Y1162608D01*
G03X-1235051Y1163007I-400J2D01*
G02X-1235200Y1162998I-147J1193D01*
G02X-1233998Y1164200I0J1202D01*
G01Y1164192D01*
G03X-1233549Y1163793I400J-2D01*
G02X-1233475Y1163800I150J-1193D01*
G03X-1233101Y1164217I-25J399D01*
G37*
G36*
G01X-1130511Y1164739D02*
G02X-1131402Y1165900I311J1161D01*
G02X-1128998I1202J0D01*
G02X-1129139Y1165335I-1203J0D01*
G03X-1128889Y1164761I353J-188D01*
G02X-1127998Y1163600I-311J-1161D01*
G02X-1130402I-1202J0D01*
G02X-1130261Y1164165I1203J0D01*
G03X-1130511Y1164739I-353J188D01*
G37*
G36*
G01X-1273115Y1168572D02*
G03X-1272729Y1168889I-5J400D01*
G02X-1271553Y1169841I1176J-250D01*
G02X-1270367Y1168835I0J-1202D01*
G03X-1269855Y1168519I394J66D01*
G02X-1269500Y1168572I353J-1149D01*
G02X-1268720Y1168284I-1J-1202D01*
G03X-1268120Y1168377I260J304D01*
G02X-1267100Y1168944I1020J-634D01*
G02X-1266215Y1168555I0J-1201D01*
G03X-1265624Y1168558I294J271D01*
G02X-1264732Y1168954I892J-807D01*
G02X-1263671Y1168318I0J-1203D01*
G03X-1263039Y1168220I353J188D01*
G02X-1262200Y1168561I839J-862D01*
G02X-1261735Y1168468I1J-1202D01*
G03X-1261255Y1168604I155J369D01*
G02X-1260276Y1169109I979J-696D01*
G02X-1259074Y1167907I0J-1202D01*
G02X-1259168Y1167441I-1202J0D01*
G03X-1258740Y1166891I369J-154D01*
G02X-1258563Y1166904I176J-1189D01*
G02X-1259765Y1165702I0J-1202D01*
G02X-1259671Y1166168I1202J0D01*
G03X-1260099Y1166718I-369J154D01*
G02X-1260276Y1166705I-176J1189D01*
G02X-1260741Y1166798I-1J1202D01*
G03X-1261221Y1166662I-155J-369D01*
G02X-1262200Y1166157I-979J696D01*
G02X-1263261Y1166793I0J1203D01*
G03X-1263893Y1166891I-353J-188D01*
G02X-1264732Y1166550I-839J862D01*
G02X-1265617Y1166939I0J1201D01*
G03X-1266208Y1166936I-294J-271D01*
G02X-1267100Y1166540I-892J807D01*
G02X-1267880Y1166828I1J1202D01*
G03X-1268480Y1166735I-260J-304D01*
G02X-1269500Y1166168I-1020J634D01*
G02X-1270686Y1167174I0J1202D01*
G03X-1271198Y1167490I-394J-66D01*
G02X-1271538Y1167437I-353J1149D01*
G03X-1271924Y1167120I5J-400D01*
G02X-1273100Y1166168I-1176J250D01*
G02X-1274302Y1167370I0J1202D01*
G02X-1273115Y1168572I1202J0D01*
G37*
G36*
G01X-1247387Y1169557D02*
G03X-1246837Y1169789I171J361D01*
G02X-1245700Y1170602I1137J-389D01*
G02Y1168198I0J-1202D01*
G02X-1246213Y1168313I0J1202D01*
G03X-1246763Y1168081I-171J-361D01*
G02X-1247900Y1167268I-1137J389D01*
G02X-1248664Y1167542I0J1202D01*
G03X-1249164Y1167550I-255J-308D01*
G02X-1249900Y1167298I-736J949D01*
G02X-1250686Y1167590I-1J1202D01*
G03X-1251235Y1167565I-261J-303D01*
G02X-1252100Y1167198I-865J836D01*
G02X-1253107Y1167744I0J1202D01*
G03X-1253741Y1167791I-335J-219D01*
G02X-1254639Y1167388I-898J799D01*
G02Y1169792I0J1202D01*
G02X-1253632Y1169246I0J-1202D01*
G03X-1252998Y1169199I335J219D01*
G02X-1252100Y1169602I898J-799D01*
G02X-1251314Y1169310I1J-1202D01*
G03X-1250765Y1169335I261J303D01*
G02X-1249900Y1169702I865J-836D01*
G02X-1249136Y1169428I0J-1202D01*
G03X-1248636Y1169420I255J308D01*
G02X-1247900Y1169672I736J-949D01*
G02X-1247387Y1169557I0J-1202D01*
G37*
G36*
G01X-1108810Y1169339D02*
G02X-1109702Y1170500I310J1161D01*
G02X-1107298I1202J0D01*
G02X-1107665Y1169635I-1203J0D01*
G03X-1107490Y1168961I278J-288D01*
G02X-1106598Y1167800I-310J-1161D01*
G02X-1109002I-1202J0D01*
G02X-1108635Y1168665I1203J0D01*
G03X-1108810Y1169339I-278J288D01*
G37*
G36*
G01X-1239107Y1174403D02*
G02X-1240202Y1175600I107J1197D01*
G02X-1237798I1202J0D01*
G02X-1237843Y1175274I-1203J0D01*
G03X-1237493Y1174767I385J-109D01*
G02X-1236398Y1173570I-107J-1197D01*
G02X-1236521Y1173041I-1202J1D01*
G03X-1236371Y1172524I359J-176D01*
G02X-1236197Y1172395I-626J-1026D01*
G03X-1235598Y1172470I267J298D01*
G02X-1234600Y1173002I998J-670D01*
G02Y1170598I0J-1202D01*
G02X-1235403Y1170905I-1J1202D01*
G03X-1236002Y1170830I-267J-298D01*
G02X-1237000Y1170298I-998J670D01*
G02X-1237907Y1170711I0J1202D01*
G03X-1238178Y1170739I-151J-132D01*
G02X-1238900Y1170498I-722J961D01*
G02X-1240102Y1171700I0J1202D01*
G02X-1239106Y1172884I1202J0D01*
G03X-1238782Y1173351I-69J394D01*
G02X-1238802Y1173570I1182J218D01*
G02X-1238757Y1173896I1203J0D01*
G03X-1239107Y1174403I-385J109D01*
G37*
G36*
G01X-1160659Y1179647D02*
G02X-1161102Y1180579I759J932D01*
G02X-1158698I1202J0D01*
G02X-1159017Y1179763I-1203J0D01*
G03Y1179220I293J-271D01*
G02X-1158698Y1178404I-884J-816D01*
G02X-1158722Y1178165I-1202J0D01*
G01X-1158743Y1178060D01*
X-1153373Y1172689D01*
G03X-1152793Y1172705I282J283D01*
G02X-1151900Y1173102I893J-806D01*
G02X-1150698Y1171900I0J-1202D01*
G02X-1151642Y1170726I-1202J0D01*
G01X-1151798Y1170692D01*
Y1154562D01*
X-1151637Y1154530D01*
G02Y1152172I-232J-1179D01*
G01X-1151798Y1152140D01*
Y1149553D01*
G03X-1151149Y1149240I400J0D01*
G02X-1150400Y1149502I749J-940D01*
G02X-1149545Y1149144I-1J-1202D01*
G03X-1149035Y1149094I285J281D01*
G02X-1148360Y1149302I676J-994D01*
G02X-1147158Y1148100I0J-1202D01*
G02X-1147168Y1147942I-1202J-3D01*
G03X-1146821Y1147493I396J-52D01*
G02X-1145890Y1146828I-149J-1193D01*
G03X-1145196Y1146785I359J176D01*
G02X-1145107Y1146905I1008J-655D01*
G03Y1147423I-305J259D01*
G02X-1145392Y1148200I917J777D01*
G01Y1148207D01*
G03X-1145744Y1148607I-400J3D01*
G02X-1146802Y1149800I144J1193D01*
G02X-1145600Y1151002I1202J0D01*
G02X-1144550Y1150384I0J-1201D01*
G03X-1143850I350J195D01*
G02X-1142800Y1151002I1050J-583D01*
G02X-1141598Y1149800I0J-1202D01*
G02X-1142641Y1148609I-1202J0D01*
G03X-1142988Y1148209I53J-397D01*
G01Y1148200D01*
G02X-1143273Y1147423I-1202J0D01*
G03Y1146905I305J-259D01*
G02X-1143184Y1146785I-919J-775D01*
G03X-1142490Y1146828I335J219D01*
G02X-1141410Y1147502I1080J-528D01*
G02Y1145098I0J-1202D01*
G02X-1142416Y1145643I0J1201D01*
G03X-1143110Y1145600I-335J-219D01*
G02X-1145270I-1080J528D01*
G03X-1145964Y1145643I-359J-176D01*
G02X-1146970Y1145098I-1006J656D01*
G02X-1148013Y1145702I0J1203D01*
G03X-1148707I-347J-198D01*
G02X-1149750Y1145098I-1043J599D01*
G02X-1150952Y1146300I0J1202D01*
G02X-1150856Y1146770I1202J-1D01*
G03X-1151019Y1147269I-368J156D01*
G02X-1151149Y1147360I623J1028D01*
G03X-1151798Y1147047I-249J-313D01*
G01Y1103585D01*
X-1160798Y1094585D01*
Y1092015D01*
X-1154598Y1085815D01*
Y1053385D01*
X-1159406Y1048577D01*
G03X-1159267Y1047921I283J-283D01*
G02X-1158498Y1046800I-433J-1121D01*
G02X-1159700Y1045598I-1202J0D01*
G02X-1160642Y1046054I0J1201D01*
G03X-1161192Y1046129I-314J-248D01*
G02X-1161900Y1045898I-708J971D01*
G02X-1163099Y1047013I0J1202D01*
G01X-1163112Y1047198D01*
X-1169415D01*
X-1170311Y1048095D01*
X-1170428Y1048057D01*
G02X-1170800Y1047998I-372J1143D01*
G02X-1172002Y1049200I0J1202D01*
G02X-1170801Y1050402I1202J0D01*
G03X-1170602Y1050602I-1J200D01*
G01Y1064910D01*
G03X-1171051Y1065307I-400J0D01*
G02X-1171200Y1065298I-147J1193D01*
G02Y1067702I0J1202D01*
G02X-1171051Y1067693I2J-1202D01*
G03X-1170602Y1068090I49J397D01*
G01Y1070604D01*
G02X-1171002Y1071500I802J895D01*
G02X-1170602Y1072396I1202J1D01*
G01Y1098899D01*
G02Y1100501I602J801D01*
G01Y1102006D01*
X-1170718Y1102059D01*
G02Y1103881I419J911D01*
G01X-1170602Y1103934D01*
Y1116396D01*
G03X-1171087Y1116787I-400J0D01*
G02X-1171300Y1116764I-213J979D01*
G02Y1118768I0J1002D01*
G02X-1171087Y1118745I0J-1002D01*
G03X-1170602Y1119136I85J391D01*
G01Y1128015D01*
X-1166602Y1132015D01*
Y1154378D01*
G03X-1167126Y1154758I-400J0D01*
G02X-1167500Y1154698I-375J1142D01*
G02X-1167918Y1154773I0J1202D01*
G03X-1168434Y1154531I-139J-375D01*
G02X-1169568Y1153728I-1134J399D01*
G02Y1156132I0J1202D01*
G02X-1169150Y1156057I0J-1202D01*
G03X-1168634Y1156299I139J375D01*
G02X-1167500Y1157102I1134J-399D01*
G02X-1167126Y1157042I-1J-1202D01*
G03X-1166602Y1157422I124J380D01*
G01Y1158928D01*
X-1166730Y1158978D01*
G02X-1167427Y1159682I430J1122D01*
G03X-1168026Y1159875I-375J-139D01*
G02X-1168700Y1159668I-674J994D01*
G02X-1168775Y1159670I-5J1202D01*
G03X-1169199Y1159253I-25J-399D01*
G02X-1169198Y1159200I-1201J-49D01*
G02X-1170400Y1160402I-1202J0D01*
G02X-1170325Y1160400I5J-1202D01*
G03X-1169901Y1160817I25J399D01*
G02X-1169902Y1160870I1201J49D01*
G02X-1169271Y1161928I1202J0D01*
G03X-1169179Y1162562I-191J351D01*
G01X-1180167Y1173550D01*
G03X-1180450I-141J-141D01*
G02X-1181300Y1173198I-850J850D01*
G02Y1175602I0J1202D01*
G02X-1181226Y1175600I5J-1202D01*
G03X-1180802Y1175999I24J399D01*
G01Y1176815D01*
X-1178415Y1179202D01*
X-1173552D01*
G03X-1173164Y1179701I1J400D01*
G02X-1173202Y1180000I1164J300D01*
G02X-1170798I1202J0D01*
G02X-1170836Y1179701I-1202J1D01*
G03X-1170448Y1179202I387J-99D01*
G01X-1160799D01*
G02X-1160659Y1179336I898J-799D01*
G03Y1179647I-126J155D01*
G37*
G36*
G01X-1111546Y1180684D02*
G02X-1112302Y1181800I446J1116D01*
G02X-1111100Y1183002I1202J0D01*
G02X-1110064Y1182409I0J-1201D01*
G03X-1109490Y1182284I345J203D01*
G02X-1108800Y1182502I690J-983D01*
G02Y1180098I0J-1202D01*
G02X-1109836Y1180691I0J1201D01*
G03X-1110410Y1180816I-345J-203D01*
G02X-1110749Y1180650I-692J983D01*
G03X-1110692Y1180259I58J-191D01*
G02X-1109498Y1179057I-8J-1202D01*
G02X-1111902I-1202J0D01*
G02X-1111446Y1179999I1201J0D01*
G03X-1111546Y1180684I-249J313D01*
G37*
G36*
G01X-1206976Y1181398D02*
G02X-1207202Y1182100I977J702D01*
G02X-1204798I1202J0D01*
G02X-1205174Y1181226I-1202J-1D01*
G03X-1205224Y1180702I274J-291D01*
G02X-1204998Y1180000I-977J-702D01*
G02X-1205768Y1178878I-1202J0D01*
G03X-1205879Y1178197I144J-373D01*
G02X-1205443Y1177270I-766J-926D01*
G02X-1207847I-1202J0D01*
G02X-1207077Y1178392I1202J0D01*
G03X-1206966Y1179073I-144J373D01*
G02X-1207402Y1180000I766J926D01*
G02X-1207026Y1180874I1202J1D01*
G03X-1206976Y1181398I-274J291D01*
G37*
G36*
G01X-1172664Y1184602D02*
G02X-1173141Y1185561I726J959D01*
G02X-1170737I1202J0D01*
G02X-1171485Y1184448I-1202J0D01*
G03X-1171575Y1183759I151J-370D01*
G02X-1171098Y1182800I-726J-959D01*
G02X-1173502I-1202J0D01*
G02X-1172754Y1183913I1202J0D01*
G03X-1172664Y1184602I-151J370D01*
G37*
G36*
G01X-1043873Y1187320D02*
G02X-1044100Y1187298I-229J1180D01*
G02X-1042898Y1188500I0J1202D01*
G02X-1042902Y1188405I-1202J3D01*
G03X-1042427Y1187980I399J-32D01*
G02X-1042200Y1188002I229J-1180D01*
G02X-1043402Y1186800I0J-1202D01*
G02X-1043398Y1186895I1202J-3D01*
G03X-1043873Y1187320I-399J32D01*
G37*
G36*
G01X-1119084Y1190506D02*
G02X-1117900Y1191502I1184J-206D01*
G02Y1189098I0J-1202D01*
G02X-1118517Y1189268I-1J1202D01*
G03X-1119116Y1188994I-205J-343D01*
G02X-1119463Y1188337I-1184J205D01*
G03X-1119400Y1187713I278J-287D01*
G02X-1118845Y1186700I-647J-1013D01*
G02X-1121249I-1202J0D01*
G02X-1120884Y1187563I1203J0D01*
G03X-1120947Y1188187I-278J287D01*
G02X-1121044Y1188256I647J1013D01*
G03X-1121604Y1188192I-248J-314D01*
G02X-1122542Y1187741I-938J750D01*
G02Y1190145I0J1202D01*
G02X-1121798Y1189887I0J-1202D01*
G03X-1121238Y1189951I248J314D01*
G02X-1120300Y1190402I938J-750D01*
G02X-1119683Y1190232I1J-1202D01*
G03X-1119084Y1190506I205J343D01*
G37*
G36*
G01X-1272691Y1189962D02*
G02X-1271500Y1191002I1191J-162D01*
G02X-1270804Y1190780I0J-1202D01*
G03X-1270218Y1190918I233J326D01*
G02X-1269156Y1191558I1062J-561D01*
G02Y1189154I0J-1202D01*
G02X-1269852Y1189376I0J1202D01*
G03X-1270438Y1189238I-233J-326D01*
G02X-1271500Y1188598I-1062J561D01*
G02X-1272185Y1188812I0J1203D01*
G03X-1272809Y1188538I-228J-329D01*
G02X-1274000Y1187498I-1191J162D01*
G02Y1189902I0J1202D01*
G02X-1273315Y1189688I0J-1203D01*
G03X-1272691Y1189962I228J329D01*
G37*
G36*
G01X-1254086Y1189432D02*
G02X-1254902Y1190570I386J1138D01*
G02X-1252498I1202J0D01*
G02X-1252660Y1189968I-1202J1D01*
G03X-1252442Y1189388I346J-201D01*
G02X-1251626Y1188250I-386J-1138D01*
G02X-1254030I-1202J0D01*
G02X-1253868Y1188852I1202J-1D01*
G03X-1254086Y1189432I-346J201D01*
G37*
G36*
G01X-1261176Y1190214D02*
G02X-1261804Y1191270I574J1056D01*
G02X-1259400I1202J0D01*
G02X-1259816Y1190360I-1203J0D01*
G03X-1259746Y1189706I261J-303D01*
G02X-1259118Y1188650I-574J-1056D01*
G02X-1261522I-1202J0D01*
G02X-1261106Y1189560I1203J0D01*
G03X-1261176Y1190214I-261J303D01*
G37*
G36*
G01X-1126364Y1190398D02*
G02X-1126902Y1191400I664J1002D01*
G02X-1124498I1202J0D01*
G02X-1124842Y1190558I-1202J0D01*
G03X-1124778Y1189945I285J-280D01*
G02X-1124240Y1188943I-664J-1002D01*
G02X-1126644I-1202J0D01*
G02X-1126300Y1189785I1202J0D01*
G03X-1126364Y1190398I-285J280D01*
G37*
G36*
G01X-1023583Y1192111D02*
G02X-1024102Y1193100I683J989D01*
G02X-1021698I1202J0D01*
G02X-1022292Y1192063I-1202J0D01*
G03X-1022317Y1191389I202J-345D01*
G02X-1022175Y1191274I-683J-989D01*
G03X-1021625I275J291D01*
G02X-1020800Y1191602I825J-874D01*
G02Y1189198I0J-1202D01*
G02X-1021625Y1189526I0J1202D01*
G03X-1022175I-275J-291D01*
G02X-1023000Y1189198I-825J874D01*
G02X-1024202Y1190400I0J1202D01*
G02X-1023608Y1191437I1202J0D01*
G03X-1023583Y1192111I-202J345D01*
G37*
G36*
G01X-1218742Y1194426D02*
G02X-1218802Y1194800I1142J375D01*
G02X-1217600Y1196002I1202J0D01*
G02X-1216517Y1195321I0J-1202D01*
G03X-1215843Y1195246I360J173D01*
G02X-1214900Y1195702I943J-747D01*
G02X-1213942Y1195226I0J-1202D01*
G02X-1213271Y1195431I671J-996D01*
G02Y1193027I0J-1202D01*
G02X-1214229Y1193503I0J1202D01*
G02X-1214900Y1193298I-671J996D01*
G02X-1215983Y1193979I0J1202D01*
G03X-1216657Y1194054I-360J-173D01*
G02X-1217444Y1193608I-943J746D01*
G03X-1217773Y1193087I51J-397D01*
G02X-1217713Y1192713I-1142J-375D01*
G02X-1217843Y1192169I-1203J0D01*
G03X-1217469Y1191588I356J-182D01*
G02X-1217417Y1191589I49J-1201D01*
G02X-1217093Y1191545I2J-1202D01*
G03X-1216590Y1191872I108J385D01*
G02X-1215400Y1192902I1190J-172D01*
G02Y1190498I0J-1202D01*
G02X-1215724Y1190542I-2J1202D01*
G03X-1216227Y1190215I-108J-385D01*
G02X-1217417Y1189185I-1190J172D01*
G02X-1218619Y1190387I0J1202D01*
G02X-1218489Y1190931I1203J0D01*
G03X-1218863Y1191512I-356J182D01*
G02X-1218915Y1191511I-49J1201D01*
G02X-1220117Y1192713I0J1202D01*
G02X-1219071Y1193905I1202J0D01*
G03X-1218742Y1194426I-51J397D01*
G37*
G36*
G01X-1214886Y1201354D02*
G02X-1215900Y1200798I-1014J647D01*
G02Y1203202I0J1202D01*
G02X-1214949Y1202735I0J-1202D01*
G03X-1214295Y1202765I316J244D01*
G02X-1213281Y1203321I1014J-647D01*
G02Y1200917I0J-1202D01*
G02X-1214232Y1201384I0J1202D01*
G03X-1214886Y1201354I-316J-244D01*
G37*
G36*
G01X-1154227Y1210422D02*
G02X-1155379Y1211623I50J1201D01*
G02X-1152975I1202J0D01*
G02X-1153000Y1211377I-1202J-2D01*
G03X-1152625Y1210896I391J-82D01*
G02X-1151473Y1209695I-50J-1201D01*
G02X-1153877I-1202J0D01*
G02X-1153852Y1209941I1202J2D01*
G03X-1154227Y1210422I-391J82D01*
G37*
G36*
G01X-1266638Y1219752D02*
G02X-1264762I938J-753D01*
G03X-1264138I312J250D01*
G02X-1263200Y1220202I938J-753D01*
G02Y1217798I0J-1202D01*
G02X-1264138Y1218248I0J1203D01*
G03X-1264762I-312J-250D01*
G02X-1266638I-938J753D01*
G03X-1267262I-312J-250D01*
G02X-1268200Y1217798I-938J753D01*
G02Y1220202I0J1202D01*
G02X-1267262Y1219752I0J-1203D01*
G03X-1266638I312J250D01*
G37*
G36*
G01X-1246438Y1220252D02*
G02X-1244562I938J-753D01*
G03X-1243938I312J250D01*
G02X-1243000Y1220702I938J-753D01*
G02Y1218298I0J-1202D01*
G02X-1243938Y1218748I0J1203D01*
G03X-1244562I-312J-250D01*
G02X-1246438I-938J753D01*
G03X-1247062I-312J-250D01*
G02X-1248000Y1218298I-938J753D01*
G02Y1220702I0J1202D01*
G02X-1247062Y1220252I0J-1203D01*
G03X-1246438I312J250D01*
G37*
G36*
G01X-1216938D02*
G02X-1215062I938J-753D01*
G03X-1214438I312J250D01*
G02X-1213500Y1220702I938J-753D01*
G02Y1218298I0J-1202D01*
G02X-1214438Y1218748I0J1203D01*
G03X-1215062I-312J-250D01*
G02X-1216938I-938J753D01*
G03X-1217562I-312J-250D01*
G02X-1218500Y1218298I-938J753D01*
G02Y1220702I0J1202D01*
G02X-1217562Y1220252I0J-1203D01*
G03X-1216938I312J250D01*
G37*
G36*
G01X-1226170Y1220555D02*
G02X-1227336Y1221756I36J1201D01*
G02X-1224932I1202J0D01*
G02X-1224947Y1221565I-1202J-2D01*
G03X-1224564Y1221101I395J-64D01*
G02X-1223398Y1219900I-36J-1201D01*
G02X-1225802I-1202J0D01*
G02X-1225787Y1220091I1202J2D01*
G03X-1226170Y1220555I-395J64D01*
G37*
G36*
G01X-1260416Y1220935D02*
G02X-1260902Y1221900I715J965D01*
G02X-1258498I1202J0D01*
G02X-1259134Y1220840I-1201J0D01*
G03X-1259184Y1220165I188J-353D01*
G02X-1258698Y1219200I-715J-965D01*
G02X-1261102I-1202J0D01*
G02X-1260466Y1220260I1201J0D01*
G03X-1260416Y1220935I-188J353D01*
G37*
G36*
G01X-1185277Y1221084D02*
G02X-1185870Y1220928I-592J1046D01*
G02Y1223332I0J1202D01*
G02X-1184684Y1222328I0J-1202D01*
G03X-1184093Y1222046I394J66D01*
G02X-1183500Y1222202I592J-1046D01*
G02Y1219798I0J-1202D01*
G02X-1184686Y1220802I0J1202D01*
G03X-1185277Y1221084I-394J-66D01*
G37*
G36*
G01X-1246438Y1223752D02*
G02X-1244562I938J-753D01*
G03X-1243938I312J250D01*
G02X-1243000Y1224202I938J-753D01*
G02Y1221798I0J-1202D01*
G02X-1243938Y1222248I0J1203D01*
G03X-1244562I-312J-250D01*
G02X-1246438I-938J753D01*
G03X-1247062I-312J-250D01*
G02X-1248000Y1221798I-938J753D01*
G02Y1224202I0J1202D01*
G02X-1247062Y1223752I0J-1203D01*
G03X-1246438I312J250D01*
G37*
G36*
G01X-1216938D02*
G02X-1215062I938J-753D01*
G03X-1214438I312J250D01*
G02X-1213500Y1224202I938J-753D01*
G02Y1221798I0J-1202D01*
G02X-1214438Y1222248I0J1203D01*
G03X-1215062I-312J-250D01*
G02X-1216938I-938J753D01*
G03X-1217562I-312J-250D01*
G02X-1218500Y1221798I-938J753D01*
G02Y1224202I0J1202D01*
G02X-1217562Y1223752I0J-1203D01*
G03X-1216938I312J250D01*
G37*
G36*
G01X-1039401Y1224904D02*
G02X-1039802Y1225800I801J896D01*
G02X-1037398I1202J0D01*
G02X-1038024Y1224745I-1202J0D01*
G03X-1038099Y1224096I192J-351D01*
G02X-1037698Y1223200I-801J-896D01*
G02X-1040102I-1202J0D01*
G02X-1039476Y1224255I1202J0D01*
G03X-1039401Y1224904I-192J351D01*
G37*
G36*
G01X-1229828Y1013622D02*
G03X-1229572I128J153D01*
G02X-1228800Y1013902I771J-922D01*
G02X-1227950Y1013550I0J-1202D01*
G02X-1227100Y1013902I850J-850D01*
G02X-1225898Y1012700I0J-1202D01*
G02X-1226178Y1011928I-1202J-1D01*
G03Y1011672I153J-128D01*
G02X-1225898Y1010900I-922J-771D01*
G02X-1226178Y1010128I-1202J-1D01*
G03Y1009872I153J-128D01*
G02X-1225898Y1009100I-922J-771D01*
G02X-1227100Y1007898I-1202J0D01*
G02X-1227950Y1008250I0J1202D01*
G02X-1228800Y1007898I-850J850D01*
G02X-1229572Y1008178I-1J1202D01*
G03X-1229828I-128J-153D01*
G02X-1230600Y1007898I-771J922D01*
G02X-1231802Y1009100I0J1202D01*
G02X-1231522Y1009872I1202J1D01*
G03Y1010128I-153J128D01*
G02X-1231802Y1010900I922J771D01*
G02X-1231522Y1011672I1202J1D01*
G03Y1011928I-153J128D01*
G02X-1231802Y1012700I922J771D01*
G02X-1230600Y1013902I1202J0D01*
G02X-1229828Y1013622I1J-1202D01*
G37*
G36*
G01X-1225084Y1032786D02*
G02X-1225402Y1033600I883J814D01*
G02X-1224997Y1034500I1203J0D01*
G02X-1225302Y1035300I897J800D01*
G02X-1224100Y1036502I1202J0D01*
G02X-1223250Y1036150I0J-1202D01*
G02X-1222400Y1036502I850J-850D01*
G02X-1221198Y1035300I0J-1202D01*
G02X-1221603Y1034400I-1203J0D01*
G02X-1221298Y1033600I-897J-800D01*
G02X-1221578Y1032828I-1202J-1D01*
G03Y1032572I153J-128D01*
G02X-1221298Y1031800I-922J-771D01*
G02X-1222500Y1030598I-1202J0D01*
G02X-1223300Y1030903I0J1202D01*
G02X-1224200Y1030498I-900J798D01*
G02X-1225402Y1031700I0J1202D01*
G02X-1225084Y1032514I1201J0D01*
G03Y1032786I-147J136D01*
G37*
G36*
G01X-1227174Y1048754D02*
G03X-1227426I-126J-155D01*
G02X-1228186Y1048484I-759J932D01*
G02Y1050888I0J1202D01*
G02X-1227426Y1050618I1J-1202D01*
G03X-1227174I126J155D01*
G02X-1226414Y1050888I759J-932D01*
G02Y1048484I0J-1202D01*
G02X-1227174Y1048754I-1J1202D01*
G37*
G36*
G01X-1247113Y988537D02*
G02X-1248116Y987998I-1003J664D01*
G02Y990402I0J1202D01*
G02X-1247306Y990088I0J-1202D01*
G03X-1246703Y990163I269J296D01*
G02X-1245700Y990702I1003J-664D01*
G02Y988298I0J-1202D01*
G02X-1246510Y988612I0J1202D01*
G03X-1247113Y988537I-269J-296D01*
G37*
G36*
G01X-1205681Y1112335D02*
G02X-1206002Y1113070I681J735D01*
G02X-1203998I1002J0D01*
G02X-1204517Y1112192I-1002J0D01*
G03X-1204595Y1111548I193J-350D01*
G02X-1204274Y1110813I-681J-735D01*
G02X-1206278I-1002J0D01*
G02X-1205759Y1111691I1002J0D01*
G03X-1205681Y1112335I-193J350D01*
G37*
G36*
G01X-1221488Y1071792D02*
G03X-1222012I-262J-302D01*
G02X-1222800Y1071498I-788J909D01*
G02Y1073902I0J1202D01*
G02X-1222012Y1073608I0J-1203D01*
G03X-1221488I262J302D01*
G02X-1220700Y1073902I788J-909D01*
G02Y1071498I0J-1202D01*
G02X-1221488Y1071792I0J1203D01*
G37*
G36*
G01X-1123719Y932280D02*
G03X-1124001I-141J-141D01*
G02X-1128860Y930267I-4858J4856D01*
G02Y944005I0J6869D01*
G02X-1124001Y941992I1J-6869D01*
G03X-1123719I141J141D01*
G02X-1118860Y944005I4858J-4856D01*
G02Y930267I0J-6869D01*
G02X-1123719Y932280I-1J6869D01*
G37*
G36*
G01X-1081515D02*
G03X-1081797I-141J-141D01*
G02X-1086656Y930267I-4858J4856D01*
G02Y944005I0J6869D01*
G02X-1081797Y941992I1J-6869D01*
G03X-1081515I141J141D01*
G02X-1076656Y944005I4858J-4856D01*
G02Y930267I0J-6869D01*
G02X-1081515Y932280I-1J6869D01*
G37*
G54D30*
X-1234960Y1098300D03*
X-1231200Y1099170D03*
X-1235100Y1103570D03*
X-1235263Y1106043D03*
X-1232360D03*
X-1235465Y1119935D03*
X-1230200Y1122370D03*
X-1211400Y1122950D03*
X-1223272Y1132572D03*
X-1231705Y1128080D03*
X-1211291Y1130425D03*
X-1219510Y1128760D03*
X-1217196Y1130657D03*
X-1213263Y1128758D03*
X-1219397Y1132496D03*
X-1211461Y1126862D03*
X-1231200Y1147000D03*
X-1227349Y1142151D03*
X-1176028Y1101742D03*
X-1173200Y1102500D03*
X-1195880Y1109070D03*
X-1189980Y1114650D03*
X-1188100Y1112840D03*
X-1193744Y1107095D03*
X-1179965Y1109235D03*
X-1183584Y1108904D03*
X-1181934Y1111025D03*
X-1187973Y1116911D03*
X-1181800Y1122770D03*
X-1185300Y1118490D03*
X-1180000Y1120500D03*
X-1185870Y1114961D03*
X-1186200Y1120870D03*
X-1179700Y1124900D03*
X-1183400Y1120714D03*
X-1180026Y1132526D03*
X-1181934Y1130366D03*
X-1179894Y1128868D03*
X-1217366Y1142535D03*
X-1213200Y1142368D03*
X-1211630Y1140400D03*
X-1215433Y1144302D03*
X-1215470Y1140400D03*
X-1205555Y1146368D03*
X-1203500Y1144100D03*
X-1174638Y1150242D03*
X-1223800Y1151770D03*
X-1221000Y1151870D03*
X-1206000Y1155470D03*
X-1209100Y1151670D03*
X-1171900Y1153370D03*
X-1174800D03*
X-1201618Y1101318D03*
X-1203300Y1114870D03*
X-1201779Y1112766D03*
X-1203599Y1108763D03*
X-1205716Y1106935D03*
X-1203500Y1124500D03*
X-1199818Y1122683D03*
X-1201100Y1116850D03*
X-1197600Y1120350D03*
X-1197840Y1124781D03*
X-1195890Y1118570D03*
X-1201400Y1128588D03*
X-1215350Y1097120D03*
X-1215300Y1100370D03*
Y1109100D03*
X-1213430Y1114971D03*
X-1215398Y1113003D03*
X-1211600Y1116770D03*
X-1193910Y1134494D03*
X-1187923Y1140231D03*
X-1191400Y1134270D03*
X-1187669Y1136296D03*
X-1189938Y1138523D03*
X-1185710Y1138296D03*
X-1185797Y1142049D03*
X-1181934Y1142686D03*
X-1197682Y1146270D03*
G54D28*
X-1262400Y985500D03*
X-1267500Y988300D03*
X-1288500Y1002600D03*
X-1294744Y1034056D03*
X-1294644Y1037756D03*
X-1294786Y1041386D03*
X-1294686Y1045086D03*
X-1294254Y1085754D03*
X-1291200Y1081800D03*
X-1295966Y1097536D03*
X-1266400Y1145000D03*
X-1262000Y1013300D03*
X-1263400Y1018400D03*
X-1263700Y1023200D03*
X-1258900Y1023800D03*
X-1284600Y1042500D03*
X-1287500Y1039800D03*
X-1288000Y1045100D03*
Y1048756D03*
X-1280400Y1044000D03*
X-1269586Y1050110D03*
X-1285000Y1058600D03*
X-1279800Y1059100D03*
X-1276000Y1057100D03*
X-1264914Y1058986D03*
X-1269600Y1059000D03*
X-1284900Y1070200D03*
X-1278100Y1068500D03*
X-1262400Y1069400D03*
X-1264766Y1074900D03*
X-1266500Y1077400D03*
X-1267800Y1068400D03*
X-1251600Y1073300D03*
X-1251500Y1077100D03*
X-1258400D03*
X-1238200Y1078600D03*
X-1271200Y1080900D03*
X-1275600Y1084600D03*
X-1223200Y1090100D03*
X-1283310Y1097451D03*
Y1100601D03*
X-1280160Y1094301D03*
Y1097451D03*
X-1277010Y1094301D03*
Y1097451D03*
X-1280000Y1100300D03*
X-1266600Y1092000D03*
X-1268500Y1094300D03*
X-1261260Y1100601D03*
X-1253030Y1097730D03*
X-1258110Y1094301D03*
X-1283310Y1103751D03*
Y1113201D03*
Y1106901D03*
X-1280160Y1103751D03*
X-1280100Y1109800D03*
X-1277010Y1103751D03*
X-1280160Y1113201D03*
X-1277010Y1110051D03*
X-1261260Y1103751D03*
Y1110051D03*
X-1264410Y1103751D03*
X-1264100Y1113600D03*
X-1264600Y1106964D03*
X-1261260Y1113201D03*
X-1270400Y1109600D03*
X-1268299Y1103351D03*
X-1265000Y1110100D03*
X-1258110Y1106901D03*
X-1249400Y1110100D03*
X-1258110Y1103751D03*
X-1258300Y1113400D03*
X-1254700Y1114000D03*
X-1237800Y1104800D03*
X-1284072Y1120889D03*
X-1277472Y1122189D03*
X-1277010Y1119039D03*
X-1274100Y1121600D03*
X-1280587Y1122293D03*
X-1261722Y1119039D03*
X-1258330Y1122431D03*
X-1254500Y1120800D03*
X-1242133Y1117609D03*
X-1283310Y1137939D03*
X-1274322Y1134789D03*
X-1272800Y1137200D03*
X-1280126Y1138368D03*
X-1277472Y1131639D03*
X-1280500Y1135000D03*
X-1261661Y1138340D03*
X-1258400Y1134789D03*
X-1257074Y1127805D03*
X-1252700Y1134839D03*
X-1238000Y1129100D03*
X-1285900Y1144700D03*
X-1274322Y1141089D03*
X-1278395Y1141042D03*
X-1280700Y1146500D03*
X-1277472Y1144239D03*
X-1274322D03*
X-1260880Y1145300D03*
X-1255177Y1141569D03*
X-1248700Y1148600D03*
X-1258130Y1141531D03*
X-1257955Y1144856D03*
X-1242500Y1141400D03*
X-1239135Y1143165D03*
X-1236663Y1148605D03*
X-1235400Y956800D03*
X-1239100Y956700D03*
X-1272297Y960497D03*
X-1263200Y960400D03*
X-1238366Y968766D03*
X-1243000Y963500D03*
X-1228600Y971534D03*
X-1271300Y976600D03*
X-1228200Y975200D03*
X-1224700Y975600D03*
X-1212100Y991100D03*
X-1209300Y993200D03*
X-1209100Y983800D03*
X-1204300Y984700D03*
X-1122000Y995000D03*
X-1081600Y994500D03*
X-1070700Y991400D03*
X-1076300D03*
X-1055700Y992100D03*
X-1020400Y989500D03*
X-1022600Y983500D03*
X-1203900Y1006700D03*
X-1126900Y997000D03*
X-1104100Y1006000D03*
X-1107100Y1005900D03*
X-1096500Y1003500D03*
X-1089700Y1006300D03*
X-1089600Y1003300D03*
X-1082500Y1003800D03*
X-1070400Y1002400D03*
X-1075900Y1002700D03*
X-1076200Y997500D03*
X-1070300D03*
X-1062800Y996500D03*
Y1003100D03*
X-1056700Y1003800D03*
X-1056800Y998300D03*
X-1034300Y1006500D03*
X-1033900Y1000400D03*
X-1028500Y1006500D03*
X-1029400Y1000400D03*
X-1004100Y1004100D03*
X-1004200Y1007300D03*
X-1193700Y1016700D03*
X-1152900Y1018500D03*
X-1148000Y1017600D03*
X-1143918Y1016018D03*
X-1122100Y1016000D03*
X-1107800Y1016600D03*
X-1103900Y1013200D03*
X-1106800Y1012800D03*
X-1115200Y1018200D03*
X-1096500Y1008700D03*
X-1089800Y1019000D03*
X-1089600Y1012400D03*
Y1009500D03*
X-1082500Y1008700D03*
X-1074600Y1013900D03*
X-1077200Y1017000D03*
X-1075900Y1007500D03*
X-1070400D03*
Y1018700D03*
X-1070300Y1015400D03*
X-1073100Y1011400D03*
X-1078097Y1014328D03*
X-1062900Y1009000D03*
X-1063400Y1018600D03*
X-1057600Y1018500D03*
X-1060500Y1016000D03*
X-1050500Y1013300D03*
X-1038400Y1011200D03*
X-1034000Y1011300D03*
X-1039900Y1013700D03*
X-1028500Y1011200D03*
X-1012897Y1009969D03*
X-1188900Y1027000D03*
X-1185300Y1020400D03*
X-1179600Y1020600D03*
X-1174900Y1020700D03*
X-1156000Y1019900D03*
X-1141880Y1024300D03*
X-1134134Y1024066D03*
X-1133023Y1028520D03*
X-1127823Y1028120D03*
X-1137723Y1028620D03*
X-1128200Y1020800D03*
X-1138013Y1020887D03*
X-1116181Y1030900D03*
X-1123314Y1024677D03*
X-1122823Y1028320D03*
X-1118328Y1020778D03*
X-1117538Y1026862D03*
X-1123800Y1020778D03*
X-1098694Y1028592D03*
X-1099600Y1020000D03*
X-1069100Y1021900D03*
X-1076200Y1025800D03*
X-1079300Y1019900D03*
X-1057600Y1023900D03*
X-1045600Y1027200D03*
X-1029900Y1024600D03*
X-1026579Y1028800D03*
X-1014100Y1024300D03*
X-1019527Y1026856D03*
X-1001300Y1030500D03*
X-1005700D03*
X-994100Y1030100D03*
X-994200Y1027200D03*
X-1182600Y1034600D03*
X-1152700Y1033700D03*
X-1154190Y1040641D03*
X-1153600Y1036681D03*
X-1127823Y1032420D03*
X-1133023Y1032020D03*
X-1137723Y1032120D03*
X-1127800Y1036300D03*
X-1133000D03*
X-1137000Y1035800D03*
X-1122723Y1032520D03*
X-1122700Y1036400D03*
X-1111025Y1042610D03*
X-1098600Y1036000D03*
X-1103100Y1037886D03*
X-1057500Y1033685D03*
X-1066600Y1041200D03*
X-1057700Y1036500D03*
X-1033200Y1039500D03*
X-1013500Y1040600D03*
X-1001100Y1040100D03*
X-993900Y1036800D03*
X-1196500Y1052800D03*
X-1171700Y1046200D03*
X-1161700Y1043700D03*
X-1137123Y1043820D03*
X-1129423D03*
X-1122123Y1043920D03*
X-1125423D03*
X-1106709Y1049691D03*
X-1111025Y1046518D03*
X-1108245Y1044578D03*
X-1099890Y1053310D03*
X-1103210Y1054890D03*
X-1068135Y1054765D03*
X-1079130Y1051200D03*
X-1060723Y1051123D03*
X-1066600Y1045500D03*
X-1058300Y1049040D03*
X-1056000Y1047000D03*
X-1051100Y1043200D03*
X-1051600Y1052900D03*
X-1036300Y1051900D03*
X-1021300Y1049200D03*
X-1031300Y1047400D03*
X-1026316Y1052298D03*
X-1016316Y1050908D03*
X-1005900Y1049410D03*
X-1003800Y1053300D03*
X-1003600Y1043800D03*
X-994800Y1051100D03*
X-995400Y1047500D03*
X-1192674Y1060500D03*
X-1192686Y1056314D03*
X-1185797Y1059594D03*
X-1176200Y1060300D03*
X-1126700Y1064095D03*
X-1118800Y1064100D03*
X-1110564Y1063830D03*
X-1105228Y1063500D03*
X-1082700Y1059000D03*
X-1065100Y1059700D03*
X-1060300Y1057400D03*
X-1045700Y1060300D03*
X-1039600Y1064400D03*
X-1037400Y1066400D03*
X-1033100Y1062500D03*
X-1024400Y1059800D03*
X-1021700Y1061200D03*
X-1030000Y1056600D03*
X-1027300Y1065400D03*
X-1023700Y1064300D03*
X-1030700Y1064100D03*
X-1018700Y1066200D03*
X-1003900Y1056800D03*
X-1195000Y1068500D03*
X-1196500Y1078700D03*
X-1196400Y1075500D03*
X-1177000Y1069590D03*
X-1172757Y1071343D03*
X-1111400Y1071500D03*
X-1082900Y1068130D03*
X-1057000Y1078500D03*
X-1057300Y1074700D03*
X-1039800Y1076700D03*
Y1073400D03*
X-1036800Y1072100D03*
X-1037100Y1075200D03*
X-1037600Y1078500D03*
X-1034700Y1078200D03*
X-1024600Y1070300D03*
X-1021600Y1073300D03*
X-1022800Y1067300D03*
X-1030500Y1074200D03*
X-1031000Y1077300D03*
X-1018400Y1073500D03*
X-1018500Y1076800D03*
X-1014100Y1078800D03*
X-1010400Y1078500D03*
X-1019200Y1069500D03*
X-1016000Y1069900D03*
X-1005400Y1075500D03*
X-1006300Y1078300D03*
X-1002900Y1078400D03*
X-996900Y1076400D03*
X-996500Y1073300D03*
X-1005900Y1072600D03*
X-1182200Y1084400D03*
X-1179400Y1085700D03*
X-1179386Y1082000D03*
X-1182500Y1088900D03*
X-1152500Y1090000D03*
X-1147200Y1090200D03*
X-1135100Y1086000D03*
X-1088700Y1083600D03*
X-1059550Y1089150D03*
X-1060400Y1084300D03*
X-1048100Y1089800D03*
X-1048000Y1085500D03*
X-1017400Y1080200D03*
X-1016600Y1083500D03*
X-1010400Y1081400D03*
X-1014100Y1081700D03*
X-1010300Y1084600D03*
X-1014000Y1084900D03*
X-1006300Y1081200D03*
X-1002900Y1081300D03*
X-1006200Y1084400D03*
X-1002800Y1084500D03*
X-1002900Y1087600D03*
X-1003100Y1090400D03*
X-997200Y1080100D03*
Y1083400D03*
Y1086600D03*
X-1196060Y1094400D03*
X-1193140Y1094693D03*
X-1175500Y1095400D03*
X-1185300Y1094600D03*
X-1172500Y1093700D03*
X-1152300Y1094400D03*
X-1155350Y1096500D03*
X-1151100Y1097600D03*
X-1107100Y1097000D03*
X-1114500Y1102200D03*
X-1110700D03*
X-1093600Y1099200D03*
X-1088600D03*
X-1081300D03*
X-1088600Y1102300D03*
X-1061879Y1097714D03*
X-1062300Y1101524D03*
X-1021552Y1091182D03*
X-1026800Y1092100D03*
X-1016400Y1099700D03*
X-1011400Y1096200D03*
X-1008900Y1098900D03*
X-1013300Y1099800D03*
X-1006800Y1093200D03*
X-1007700Y1096100D03*
X-1149800Y1111636D03*
X-1139215Y1111615D03*
X-1120450Y1111636D03*
X-1111010Y1107420D03*
X-1088796Y1108604D03*
X-1080200Y1107100D03*
X-1076400Y1107500D03*
X-1060208Y1105204D03*
X-1064200Y1107600D03*
X-1038400Y1111700D03*
X-1022800Y1113500D03*
X-1016800Y1108400D03*
X-1016700Y1103000D03*
X-1001600Y1114500D03*
X-997500Y1109000D03*
X-996600Y1106000D03*
X-1149800Y1115486D03*
X-1149826Y1121626D03*
X-1149800Y1124664D03*
X-1149826Y1118526D03*
X-1139194D03*
Y1115486D03*
X-1139200Y1121626D03*
X-1120450Y1115486D03*
X-1120350Y1121626D03*
X-1120450Y1118526D03*
X-1109200Y1123300D03*
X-1108530Y1120100D03*
X-1107300Y1115920D03*
X-1097500Y1117400D03*
X-1082500Y1124200D03*
X-1082200Y1120100D03*
X-1089700Y1126200D03*
X-1039500Y1123900D03*
X-1037700Y1114800D03*
X-1025106Y1122417D03*
X-1021500Y1119400D03*
X-1011000Y1115600D03*
X-1006800Y1114800D03*
X-1005600Y1119600D03*
X-1001200Y1125600D03*
X-1006864Y1124236D03*
X-1149800Y1128530D03*
Y1131630D03*
Y1134630D03*
X-1140496Y1134610D03*
X-1144446Y1131530D03*
Y1134610D03*
X-1139200Y1131530D03*
X-1119170D03*
X-1114844Y1128710D03*
X-1105700Y1130400D03*
Y1133300D03*
X-1109800Y1135950D03*
X-1114190Y1136765D03*
X-1096300Y1132200D03*
X-1093500Y1131300D03*
X-1081348Y1138080D03*
Y1135180D03*
X-1070200Y1130800D03*
X-1070100Y1126700D03*
X-1076295Y1138080D03*
X-1040300Y1127356D03*
X-1022800Y1130200D03*
Y1134200D03*
Y1138200D03*
X-1026800D03*
Y1134200D03*
Y1130200D03*
X-1030800D03*
Y1134200D03*
Y1138200D03*
X-1018800D03*
Y1134200D03*
Y1130200D03*
X-1004556Y1138309D03*
X-1001900Y1136800D03*
Y1133600D03*
X-1005664Y1133936D03*
X-1138430Y1146300D03*
X-1110500Y1142300D03*
X-1105600Y1146200D03*
X-1105700Y1142200D03*
X-1095992Y1142293D03*
X-1068000Y1147000D03*
X-1040195Y1149005D03*
X-1030922Y1146278D03*
X-1026800Y1146200D03*
X-1022800D03*
Y1142200D03*
X-1026800D03*
X-1030800D03*
X-1018800Y1146200D03*
Y1142200D03*
X-1005900Y1150200D03*
X-1007400Y1147500D03*
X-1273200Y1158801D03*
X-1268300Y1157900D03*
X-1262300D03*
X-1255800D03*
X-1249600D03*
X-1244700Y1157700D03*
X-1222900Y1162120D03*
X-1210300Y1158600D03*
X-1206125Y1161800D03*
X-1185200Y1161270D03*
X-1181314Y1162364D03*
X-1171900Y1162370D03*
X-1172500Y1156370D03*
X-1113000Y1151290D03*
X-1100700Y1160100D03*
X-1094600Y1151400D03*
X-1091758Y1156342D03*
X-1075700Y1153600D03*
X-1076466Y1157767D03*
X-1068200Y1154600D03*
X-1068000Y1150800D03*
X-1064300Y1150900D03*
X-1037600Y1151300D03*
X-1042200Y1154400D03*
X-1017232Y1154000D03*
X-1009800Y1157500D03*
X-1017600Y1156800D03*
X-1010800Y1153800D03*
X-994300Y1160900D03*
X-993600Y1153300D03*
X-1271300Y1163700D03*
X-1255051Y1165570D03*
X-1239200Y1165670D03*
X-1236800Y1167270D03*
X-1233100Y1168300D03*
X-1210050Y1165170D03*
X-1148300Y1171300D03*
X-1142600Y1172000D03*
X-1129500Y1170800D03*
X-1135104Y1170705D03*
X-1134600Y1164100D03*
X-1100569Y1170731D03*
X-1091600Y1170900D03*
X-1085600Y1163400D03*
X-1086585Y1168585D03*
X-1066400Y1172000D03*
X-1061100Y1173800D03*
X-1062000Y1169600D03*
X-1056800Y1173900D03*
X-1052000Y1169400D03*
X-1052420Y1172680D03*
X-1022100Y1168500D03*
X-1028300Y1170200D03*
X-1018638Y1163000D03*
X-1017800Y1169100D03*
X-1013300Y1169000D03*
X-1010900Y1172500D03*
X-1018100Y1172400D03*
X-1007000Y1169100D03*
X-999900Y1169900D03*
X-1260134Y1183836D03*
X-1268800Y1175270D03*
X-1269795Y1182695D03*
X-1269400Y1179000D03*
X-1253800Y1176970D03*
X-1252091Y1183856D03*
X-1256100Y1185270D03*
X-1246800Y1181170D03*
X-1209535Y1177270D03*
X-1182300Y1184200D03*
X-1176664Y1185600D03*
X-1176400Y1181900D03*
X-1150500Y1176800D03*
X-1150600Y1180500D03*
X-1129900Y1184000D03*
X-1129779Y1178579D03*
X-1114939Y1181861D03*
X-1110700Y1176157D03*
X-1102900Y1181600D03*
X-1088698Y1183500D03*
X-1071900Y1179200D03*
X-1069100Y1177800D03*
X-1044152Y1180252D03*
X-1047300Y1179900D03*
X-1036600Y1180400D03*
X-1030800Y1186200D03*
X-1030400Y1179600D03*
X-1021400Y1178300D03*
X-1021700Y1181600D03*
X-1021800Y1185100D03*
X-1024200Y1174400D03*
X-1020100Y1175539D03*
X-1016000Y1178200D03*
X-1016900Y1182600D03*
X-1270000Y1186636D03*
X-1268671Y1194199D03*
X-1257800Y1190870D03*
X-1255700Y1198000D03*
X-1248200Y1190456D03*
X-1204913Y1187283D03*
X-1210500D03*
X-1176464Y1189000D03*
X-1176364Y1192000D03*
Y1195200D03*
X-1172039Y1191961D03*
X-1171700Y1188800D03*
X-1171939Y1195161D03*
X-1174142Y1198000D03*
X-1159900Y1197900D03*
X-1162000Y1193100D03*
X-1143400Y1187600D03*
X-1130000Y1189100D03*
X-1117182Y1186700D03*
X-1123913Y1197510D03*
X-1119793Y1197507D03*
X-1110700Y1191600D03*
X-1092959Y1187473D03*
X-1100800Y1196500D03*
X-1076014Y1191584D03*
X-1077548Y1189000D03*
X-1056700Y1188500D03*
X-1058100Y1196900D03*
X-1066800Y1197600D03*
X-1067100Y1192400D03*
X-1052400Y1188300D03*
X-1045430Y1195954D03*
X-1053700Y1196600D03*
X-1034200Y1188400D03*
X-1039600Y1197590D03*
X-1040018Y1191843D03*
X-1029200Y1193200D03*
X-1031500Y1190600D03*
X-1029000Y1188900D03*
X-1274200Y1206100D03*
X-1265700Y1200200D03*
X-1262766Y1198770D03*
X-1258633Y1198670D03*
X-1213315Y1207515D03*
X-1205700Y1208900D03*
X-1206300Y1202300D03*
X-1196800Y1201700D03*
X-1184155Y1207500D03*
X-1156052Y1209096D03*
X-1147600Y1207900D03*
X-1142800Y1209700D03*
X-1149775Y1209695D03*
X-1134400Y1208200D03*
X-1138800Y1210000D03*
X-1127950Y1204400D03*
X-1120852Y1210096D03*
X-1126552Y1209096D03*
X-1119793Y1207393D03*
X-1123913Y1205790D03*
X-1098452Y1209996D03*
X-1100800Y1199500D03*
X-1086270Y1208830D03*
X-1077630D03*
X-1077700Y1201700D03*
X-1066600Y1201900D03*
X-1067000Y1209500D03*
X-1038800Y1206100D03*
X-1039000Y1202800D03*
X-1016000Y1199000D03*
X-1014600Y1207700D03*
X-1013500Y1202800D03*
X-1019700Y1208800D03*
X-1019600Y1199500D03*
X-1254500Y1219000D03*
X-1212820Y1210680D03*
X-1203800Y1211000D03*
X-1204055Y1221745D03*
X-1206400Y1219600D03*
X-1200900Y1211100D03*
X-1188600Y1219100D03*
X-1190700Y1217100D03*
X-1180500Y1212000D03*
X-1181000Y1215900D03*
X-1171894Y1211494D03*
X-1139400Y1221100D03*
X-1116200Y1220400D03*
X-1120752Y1213496D03*
X-1126700Y1220500D03*
X-1112950Y1220550D03*
X-1106952Y1221996D03*
X-1107152Y1215096D03*
X-1114152Y1214996D03*
X-1114452Y1210196D03*
X-1106952D03*
X-1098352Y1215196D03*
X-1086066Y1216634D03*
X-1086000Y1220516D03*
X-1090800Y1216300D03*
Y1210100D03*
X-1077600Y1212600D03*
X-1069700Y1218900D03*
X-1056400Y1218800D03*
X-1061852Y1218896D03*
X-1060852Y1215596D03*
X-1051600Y1218600D03*
X-1055760Y1215596D03*
X-1052000Y1215700D03*
X-1033000Y1217000D03*
X-1021400Y1211600D03*
X-1028619Y1211800D03*
X-1023200Y1220500D03*
X-1020900Y1217600D03*
X-1028500Y1220300D03*
X-1023268Y1215268D03*
X-1015200Y1212200D03*
X-1015900Y1219500D03*
X-1011500Y1218400D03*
X-1261800Y1224000D03*
X-1254500Y1222100D03*
X-1251200Y1224800D03*
X-1256900Y1225500D03*
X-1239500Y1224700D03*
X-1144166Y1225334D03*
X-1098352Y1222296D03*
X-1083851Y1224302D03*
X-1090700Y1222800D03*
X-1070200Y1222600D03*
X-1064400Y1223100D03*
X-1060200D03*
X-1056100D03*
X-1066500Y1226000D03*
X-1044152Y1225952D03*
X-1046800Y1228100D03*
X-1041396Y1228000D03*
X-1035884D03*
X-1034000Y1225900D03*
X-1030500Y1226100D03*
X-1031400Y1222300D03*
X-1023000Y1223700D03*
X-1023100Y1229100D03*
X-1028400Y1223400D03*
X-1018300Y1229300D03*
X-1014300D03*
X-1260500Y967500D03*
X-1263400Y969400D03*
X-1254466Y980650D03*
X-1254934Y973101D03*
X-1250600Y972900D03*
X-1251316Y981100D03*
X-1251200Y976600D03*
X-1245416Y980900D03*
X-1246100Y976500D03*
X-1233090Y991500D03*
Y996500D03*
X-1228800Y997800D03*
X-1224600Y999400D03*
X-1213700Y1035800D03*
X-1211200Y1043700D03*
X-1208100D03*
X-1226200Y1044023D03*
X-1218714Y1050000D03*
X-1212400Y1054400D03*
X-1222486Y1050100D03*
X-1215800Y1054500D03*
X-1218686Y1044014D03*
X-1208500Y1054100D03*
X-1212600Y1063300D03*
X-1219300Y1060200D03*
X-1211200Y1058000D03*
X-1204400Y1071200D03*
X-1203591Y1091179D03*
X-1201914Y1087290D03*
X-1206314Y1088585D03*
X-1201850Y1084450D03*
X-1204600Y1083800D03*
X-1219500Y1075900D03*
X-1215000Y1080100D03*
G54D29*
X-1259900Y1064400D03*
X-1041316Y1050456D03*
G54D34*
X-1125258Y988120D03*
X-1115258D03*
X-1105258D03*
X-1095258D03*
X-1085258D03*
X-1038342D03*
X-1028342D03*
G54D31*
X-1011316Y1046460D03*
G54D35*
X-993400Y1016391D03*
Y1041669D03*
Y1058991D03*
Y1170539D03*
G54D32*
X-1011316Y1054452D03*
G54D36*
X-1243249Y1020061D03*
G54D33*
X-1078404Y1172994D03*
G54D38*
X-1080258Y953120D03*
G54D37*
X-1125258D03*
%LPD*%
G75*
G36*
G01X-1178000Y1178200D02*
X-1161094D01*
X-1161051Y1178058D01*
G03X-1159900Y1177202I1151J346D01*
G03X-1159520Y1177264I-1J1202D01*
G01X-1159403Y1177303D01*
X-1152800Y1170700D01*
Y1154111D01*
G03X-1152954Y1153869I930J-762D01*
G02X-1153423Y1153657I-361J173D01*
G03X-1153750Y1153702I-326J-1157D01*
G03Y1151298I0J-1202D01*
G03X-1153337Y1151371I0J1202D01*
G02X-1152800Y1150995I137J-376D01*
G01Y1104000D01*
X-1161800Y1095000D01*
Y1091600D01*
X-1155600Y1085400D01*
Y1053800D01*
X-1158800Y1050600D01*
X-1158942Y1050742D01*
X-1158943Y1050743D01*
G03X-1159800Y1051102I-857J-843D01*
G03X-1161002Y1049900I0J-1202D01*
G03X-1160643Y1049043I1202J0D01*
G01X-1160642Y1049042D01*
X-1160500Y1048900D01*
X-1161200Y1048200D01*
X-1161414D01*
X-1161450Y1048215D01*
G03X-1161900Y1048302I-449J-1115D01*
G03X-1162350Y1048215I-1J-1202D01*
G01X-1162386Y1048200D01*
X-1169000D01*
X-1169600Y1048800D01*
Y1049136D01*
G03X-1169598Y1049200I-1200J70D01*
G03X-1169600Y1049264I-1202J-6D01*
G01Y1070305D01*
X-1169457Y1070348D01*
G03X-1168745Y1070924I-343J1152D01*
G02X-1168096Y1070999I351J-192D01*
G03X-1167200Y1070598I896J801D01*
G03Y1073002I0J1202D01*
G03X-1168255Y1072376I0J-1202D01*
G02X-1168904Y1072301I-351J192D01*
G03X-1169457Y1072652I-896J-801D01*
G01X-1169600Y1072695D01*
Y1086078D01*
G02X-1169075Y1086458I400J0D01*
G03X-1168700Y1086398I375J1142D01*
G03Y1088802I0J1202D01*
G03X-1169075Y1088742I0J-1202D01*
G02X-1169600Y1089122I-125J380D01*
G01Y1098774D01*
X-1169500Y1098832D01*
G03Y1100568I-499J868D01*
G01X-1169600Y1100626D01*
Y1102253D01*
G03Y1103687I-700J717D01*
G01Y1116098D01*
G02X-1169200Y1116498I400J0D01*
G03Y1118902I0J1202D01*
G02X-1169600Y1119302I0J400D01*
G01Y1127600D01*
X-1165600Y1131600D01*
Y1159123D01*
G03X-1165106Y1159959I-700J977D01*
G02X-1164657Y1160308I397J-47D01*
G03X-1164500Y1160298I155J1192D01*
G03Y1162702I0J1202D01*
G03X-1165694Y1161641I0J-1202D01*
G02X-1166143Y1161292I-397J47D01*
G03X-1166300Y1161302I-155J-1192D01*
G03X-1166398Y1161298I0J-1202D01*
G01X-1166490Y1161290D01*
X-1167213Y1162013D01*
G02X-1167122Y1162646I283J282D01*
G03X-1166566Y1163300I-578J1054D01*
G02X-1165967Y1163500I377J-133D01*
G03X-1165300Y1163298I667J1000D01*
G03Y1165702I0J1202D01*
G03X-1166434Y1164900I0J-1203D01*
G02X-1167033Y1164700I-377J133D01*
G03X-1167700Y1164902I-667J-1000D01*
G03X-1168754Y1164278I0J-1202D01*
G02X-1169387Y1164187I-351J192D01*
G01X-1179800Y1174600D01*
Y1176400D01*
X-1178000Y1178200D01*
G37*
%LPC*%
G75*
G36*
G01X-1159697Y1104092D02*
G03X-1159498Y1104307I-1J200D01*
G02X-1159502Y1104400I1198J98D01*
G02X-1157098I1202J0D01*
G02X-1158142Y1103208I-1202J0D01*
G03X-1158489Y1102831I52J-396D01*
G02X-1159690Y1101688I-1201J59D01*
G02X-1160884Y1102747I0J1203D01*
G03X-1161261Y1103100I-397J-46D01*
G02X-1162402Y1104300I61J1200D01*
G02X-1159998I1202J0D01*
G01Y1104290D01*
G03X-1159783Y1104088I200J-2D01*
G02X-1159697Y1104092I99J-1198D01*
G37*
G36*
G01X-1166696Y1117747D02*
G03X-1166401Y1118150I-105J386D01*
G02X-1166402Y1118200I1201J49D01*
G02X-1163998I1202J0D01*
G02X-1164887Y1117040I-1201J0D01*
G03X-1165182Y1116637I105J-386D01*
G02X-1165181Y1116587I-1201J-49D01*
G02X-1167585I-1202J0D01*
G02X-1166696Y1117747I1201J0D01*
G37*
G36*
G01X-1162341Y1114299D02*
G02X-1162400Y1114298I-50J1201D01*
G02X-1161198Y1115500I0J1202D01*
G02X-1161258Y1115125I-1202J0D01*
G03X-1160859Y1114601I380J-125D01*
G02X-1160800Y1114602I50J-1201D01*
G02X-1162002Y1113400I0J-1202D01*
G02X-1161942Y1113775I1202J0D01*
G03X-1162341Y1114299I-380J125D01*
G37*
G36*
G01X-1166228Y1173310D02*
G02X-1166400Y1173298I-169J1190D01*
G02X-1165198Y1174500I0J1202D01*
G02X-1165221Y1174264I-1202J-2D01*
G03X-1164772Y1173790I392J-78D01*
G02X-1164600Y1173802I169J-1190D01*
G02X-1165802Y1172600I0J-1202D01*
G02X-1165779Y1172836I1202J2D01*
G03X-1166228Y1173310I-392J78D01*
G37*
G54D28*
X-1164684Y1066900D03*
X-1167700Y1066500D03*
X-1160000Y1081500D03*
X-1167000Y1099700D03*
X-1165800Y1105100D03*
X-1166850Y1109120D03*
X-1155040Y1124664D03*
Y1128530D03*
X-1162500Y1130700D03*
X-1155040Y1131630D03*
Y1134630D03*
X-1156300Y1164000D03*
X-1170900Y1175000D03*
X-1167800Y1171400D03*
X-1161000Y1169700D03*
%LPD*%
G75*
G54D10*
X-1293334Y996366D03*
Y1006366D03*
G54D20*
X-1133762Y965128D03*
X-1071754D03*
X-1062338D03*
G54D11*
X-1295934Y1101304D03*
X-1283310Y1094301D03*
Y1110051D03*
X-1283801Y1123499D03*
X-1284000Y1118400D03*
X-1283500Y1134700D03*
X-1287500Y1134100D03*
X-1283310Y1141089D03*
Y1144239D03*
X-1288300Y1141500D03*
X-1270900Y1011000D03*
X-1272700D03*
X-1271000Y1008800D03*
X-1274700Y1011000D03*
Y1008800D03*
X-1272900D03*
X-1271100Y1012800D03*
X-1272900D03*
X-1274900D03*
X-1273373Y1123950D03*
X-1280321Y1119684D03*
X-1277472Y1128489D03*
X-1262966Y980634D03*
X-1266500Y973300D03*
X-1265100Y972200D03*
X-1267834Y972066D03*
X-1267300Y983700D03*
Y985500D03*
X-1259500Y1118900D03*
X-1259600Y1127700D03*
X-1261306Y1141505D03*
X-1260134Y1179904D03*
X-1249500Y1032400D03*
X-1258110Y1097451D03*
X-1254800Y1111800D03*
X-1253385Y1124713D03*
X-1254591Y1117715D03*
X-1255600Y1134900D03*
X-1254945Y1144925D03*
X-1257366Y1180404D03*
X-1250288Y1186682D03*
X-1247300Y1186770D03*
X-1246850Y956250D03*
X-1235700Y973500D03*
X-1243000Y1075070D03*
X-1239300Y1099000D03*
X-1237500D03*
X-1238400Y1097500D03*
X-1233900Y973400D03*
X-1228300Y987400D03*
X-1204300Y988400D03*
X-1208900Y1011200D03*
X-1203200Y1045500D03*
X-1201100D03*
X-1203200Y1047400D03*
X-1201100D03*
X-1205900Y1058600D03*
X-1204000D03*
X-1205900Y1056800D03*
X-1204000D03*
X-1201450Y1120641D03*
X-1207588Y1122683D03*
X-1209492Y1119970D03*
X-1203700Y1128750D03*
X-1205556Y1130670D03*
X-1199424Y1134494D03*
X-1209690Y1128765D03*
X-1201409Y1140400D03*
X-1193000Y925400D03*
Y928700D03*
X-1188400Y925300D03*
Y928800D03*
X-1188200Y933000D03*
X-1193000Y933200D03*
X-1199000Y1045400D03*
Y1047500D03*
X-1191200Y1066201D03*
Y1064500D03*
X-1190500Y1062200D03*
X-1188600D03*
X-1189500Y1063800D03*
X-1197591Y1112840D03*
X-1187839Y1122683D03*
X-1195634Y1124482D03*
X-1193700Y1119000D03*
X-1195634Y1128588D03*
Y1132688D03*
X-1197516Y1140230D03*
X-1194000Y1161770D03*
X-1182300Y933000D03*
X-1182500Y928800D03*
Y925300D03*
X-1176100Y932800D03*
X-1176300Y928600D03*
Y925100D03*
X-1177500Y1042200D03*
X-1175483Y1176836D03*
X-1175500Y1175200D03*
X-1177100Y1176900D03*
Y1175200D03*
X-1170000Y932900D03*
X-1170200Y928700D03*
Y925200D03*
X-1163500Y928900D03*
Y925400D03*
X-1165400Y1049700D03*
X-1165362Y1051487D03*
X-1163500Y1049700D03*
X-1163462Y1051487D03*
X-1167200Y1049800D03*
Y1051700D03*
X-1171551Y1060249D03*
X-1170400Y1134800D03*
X-1167100Y1196400D03*
X-1163300Y933100D03*
X-1157600Y933000D03*
X-1157800Y928800D03*
Y925300D03*
X-1157100Y946100D03*
X-1157300Y941900D03*
Y938400D03*
X-1159779Y1093700D03*
X-1157415Y1132812D03*
X-1150755Y1226355D03*
X-1134000Y925700D03*
X-1135300Y946500D03*
Y956500D03*
X-1130300Y1192200D03*
X-1134900Y1214600D03*
X-1134200Y1217700D03*
X-1130300Y1220300D03*
X-1117000Y925700D03*
X-1126100Y925600D03*
X-1122400Y964700D03*
X-1115900Y1192500D03*
X-1107800Y925800D03*
X-1110900Y964800D03*
X-1115400Y1015200D03*
X-1106600Y1034707D03*
X-1108196Y1084654D03*
X-1107200Y1187000D03*
X-1100300Y925900D03*
X-1099400Y964500D03*
X-1083000Y925900D03*
X-1091700Y925800D03*
X-1082900Y1050500D03*
X-1082600Y1046100D03*
X-1082000Y1047600D03*
X-1087700Y1191500D03*
X-1073600Y926000D03*
X-1069300Y930700D03*
X-1068400Y942900D03*
X-1069300Y1070000D03*
X-1069400Y1068200D03*
X-1070200Y1117400D03*
X-1070100Y1138700D03*
X-1059700Y925700D03*
X-1065900Y925900D03*
X-1064200Y931100D03*
X-1059300Y936000D03*
X-1064200Y936300D03*
X-1064000Y943000D03*
X-1056200Y1052900D03*
X-1062700Y1206200D03*
X-1060700Y1206400D03*
X-1050100Y1156000D03*
Y1158000D03*
X-1049786Y1204486D03*
X-1002142Y1017300D03*
G54D12*
X-1285878Y943669D03*
X-1263122D03*
G54D21*
X-1078404Y1081656D03*
Y1172994D03*
G54D22*
X-1055842Y953120D03*
X-1015842D03*
G54D13*
X-1289900Y1068396D03*
Y1060404D03*
X-1259900Y1064400D03*
X-1041316Y1050456D03*
X-1011316Y1046460D03*
Y1054452D03*
G54D23*
X-1011201Y1074147D03*
Y1105643D03*
X-993400Y999069D03*
Y1016391D03*
Y1041669D03*
Y1058991D03*
Y1170539D03*
Y1187861D03*
G54D14*
X-1272383Y1020061D03*
X-1243249D03*
G54D24*
G01X-1133762Y959408D02*
Y965128D01*
G01X-1137514D02*
X-1133762D01*
G01D02*
X-1130010D01*
G01X-1071754Y959408D02*
Y965128D01*
G01X-1075506D02*
X-1071754D01*
G01D02*
X-1068002D01*
G01X-1062338Y959408D02*
Y965128D01*
G01X-1066090D02*
X-1062338D01*
G01D02*
X-1058586D01*
G54D15*
X-1242508Y931176D03*
G54D25*
G01X-1182396Y948444D02*
Y939096D01*
G01X-1156806Y958680D02*
Y949506D01*
G54D16*
X-1242508Y941176D03*
Y951176D03*
G54D26*
G01X-990330Y922200D02*
X-1295300D01*
G02X-1300300Y927200I0J5000D01*
G01Y1232170D01*
G01D02*
G02X-1295300Y1237170I5000J0D01*
G01D02*
X-990330D01*
G01X-985330Y927200D02*
G02X-990330Y922200I-5000J0D01*
G01X-985330Y1232170D02*
Y927200D01*
G01X-990330Y1237170D02*
G02X-985330Y1232170I0J-5000D01*
G54D17*
X-1182396Y948444D03*
X-1156806Y958680D03*
G54D27*
G01X-990330Y1237170D02*
X-1295300D01*
G03X-1300300Y1232170I0J-5000D01*
G01Y927200D01*
G03X-1295300Y922200I5000J0D01*
G01X-990330D01*
G03X-985330Y927200I0J5000D01*
G01Y1232170D01*
G03X-990330Y1237170I-5000J0D01*
G54D18*
X-1177475Y996081D03*
X-1163695Y943916D03*
G54D19*
X-1125258Y953120D03*
X-1080258D03*
M02*
