G04 ================== begin FILE IDENTIFICATION RECORD ==================*
G04 Layout Name:  beagleplayv022_10.brd*
G04 Film Name:    paste_bottom*
G04 File Format:  Gerber RS274X*
G04 File Origin:  Cadence Allegro 17.4-S032*
G04 Origin Date:  Wed Feb 15 11:40:44 2023*
G04 *
G04 Layer:  PACKAGE GEOMETRY/PASTEMASK_BOTTOM*
G04 Layer:  PIN/PASTEMASK_BOTTOM*
G04 Layer:  BOARD GEOMETRY/OUTLINE*
G04 *
G04 Offset:    (0.00 0.00)*
G04 Mirror:    No*
G04 Mode:      Positive*
G04 Rotation:  0*
G04 FullContactRelief:  No*
G04 UndefLineWidth:     4.00*
G04 ================== end FILE IDENTIFICATION RECORD ====================*
%FSLAX25Y25*MOIN*%
%IR0*IPPOS*OFA0.00000B0.00000*MIA0B0*SFA1.00000B1.00000*%
%AMMACRO49*
4,1,40,.01378,.00295,
.01378,-.00295,
.01375,-.003292,
.013661,-.003624,
.013516,-.003935,
.013319,-.004216,
.013076,-.004459,
.012795,-.004656,
.012484,-.004801,
.012152,-.00489,
.01181,-.00492,
-.01181,-.00492,
-.012152,-.00489,
-.012484,-.004801,
-.012795,-.004656,
-.013076,-.004459,
-.013319,-.004216,
-.013516,-.003935,
-.013661,-.003624,
-.01375,-.003292,
-.01378,-.00295,
-.01378,.00295,
-.01375,.003292,
-.013661,.003624,
-.013516,.003935,
-.013319,.004216,
-.013076,.004459,
-.012795,.004656,
-.012484,.004801,
-.012152,.00489,
-.01181,.00492,
.01181,.00492,
.012152,.00489,
.012484,.004801,
.012795,.004656,
.013076,.004459,
.013319,.004216,
.013516,.003935,
.013661,.003624,
.01375,.003292,
.01378,.00295,
0.0*
%
%ADD49MACRO49*%
%AMMACRO45*
4,1,44,.01378,.00196,
.01378,-.00196,
.013751,-.002302,
.013663,-.002634,
.013519,-.002946,
.013322,-.003227,
.01308,-.003471,
.012799,-.003669,
.012488,-.003814,
.012157,-.003904,
.011815,-.003935,
.01181,-.00393,
-.01181,-.00393,
-.012152,-.003905,
-.012484,-.003816,
-.012795,-.003671,
-.013076,-.003474,
-.013319,-.003231,
-.013516,-.00295,
-.013661,-.002639,
-.01375,-.002307,
-.01378,-.001965,
-.01378,-.00196,
-.01378,.00196,
-.013751,.002302,
-.013663,.002634,
-.013519,.002946,
-.013322,.003227,
-.01308,.003471,
-.012799,.003669,
-.012488,.003814,
-.012157,.003904,
-.011815,.003935,
-.01181,.00393,
.01181,.00393,
.012152,.003905,
.012484,.003816,
.012795,.003671,
.013076,.003474,
.013319,.003231,
.013516,.00295,
.013661,.002639,
.01375,.002307,
.01378,.001965,
.01378,.00196,
0.0*
%
%ADD45MACRO45*%
%AMMACRO89*
4,1,44,-.00194,-.00689,
-.00689,-.00194,
-.007118,-.001677,
-.007293,-.001375,
-.007412,-.001048,
-.007472,-.000704,
-.007472,-.000356,
-.007412,-.000013,
-.007293,.000315,
-.007118,.000617,
-.006894,.000884,
-.00689,.00088,
-.00088,.00689,
-.000617,.007118,
-.000315,.007293,
.000012,.007412,
.000356,.007472,
.000704,.007472,
.001048,.007412,
.001375,.007293,
.001677,.007119,
.001944,.006894,
.00194,.00689,
.00689,.00194,
.007118,.001677,
.007293,.001375,
.007412,.001048,
.007472,.000704,
.007472,.000356,
.007412,.000013,
.007293,-.000315,
.007118,-.000617,
.006894,-.000884,
.00689,-.00088,
.00088,-.00689,
.000617,-.007118,
.000315,-.007293,
-.000012,-.007412,
-.000356,-.007472,
-.000704,-.007472,
-.001048,-.007412,
-.001375,-.007293,
-.001677,-.007119,
-.001944,-.006894,
-.00194,-.00689,
0.0*
%
%ADD89MACRO89*%
%AMMACRO80*
4,1,44,.00194,.00689,
.00689,.00194,
.007118,.001677,
.007293,.001375,
.007412,.001048,
.007472,.000704,
.007472,.000356,
.007412,.000013,
.007293,-.000315,
.007118,-.000617,
.006894,-.000884,
.00689,-.00088,
.00088,-.00689,
.000617,-.007118,
.000315,-.007293,
-.000012,-.007412,
-.000356,-.007472,
-.000704,-.007472,
-.001048,-.007412,
-.001375,-.007293,
-.001677,-.007119,
-.001944,-.006894,
-.00194,-.00689,
-.00689,-.00194,
-.007118,-.001677,
-.007293,-.001375,
-.007412,-.001048,
-.007472,-.000704,
-.007472,-.000356,
-.007412,-.000013,
-.007293,.000315,
-.007118,.000617,
-.006894,.000884,
-.00689,.00088,
-.00088,.00689,
-.000617,.007118,
-.000315,.007293,
.000012,.007412,
.000356,.007472,
.000704,.007472,
.001048,.007412,
.001375,.007293,
.001677,.007119,
.001944,.006894,
.00194,.00689,
0.0*
%
%ADD80MACRO80*%
%AMMACRO29*
4,1,40,.0035,-.00625,
-.0035,-.00625,
-.003847,-.00622,
-.004184,-.006129,
-.0045,-.005982,
-.004786,-.005782,
-.005032,-.005536,
-.005232,-.00525,
-.005379,-.004934,
-.00547,-.004597,
-.0055,-.00425,
-.0055,.00425,
-.00547,.004597,
-.005379,.004934,
-.005232,.00525,
-.005032,.005536,
-.004786,.005782,
-.0045,.005982,
-.004184,.006129,
-.003847,.00622,
-.0035,.00625,
.0035,.00625,
.003847,.00622,
.004184,.006129,
.0045,.005982,
.004786,.005782,
.005032,.005536,
.005232,.00525,
.005379,.004934,
.00547,.004597,
.0055,.00425,
.0055,-.00425,
.00547,-.004597,
.005379,-.004934,
.005232,-.00525,
.005032,-.005536,
.004786,-.005782,
.0045,-.005982,
.004184,-.006129,
.003847,-.00622,
.0035,-.00625,
0.0*
%
%ADD29MACRO29*%
%AMMACRO23*
4,1,40,.00625,.0035,
.00625,-.0035,
.00622,-.003847,
.006129,-.004184,
.005982,-.0045,
.005782,-.004786,
.005536,-.005032,
.00525,-.005232,
.004934,-.005379,
.004597,-.00547,
.00425,-.0055,
-.00425,-.0055,
-.004597,-.00547,
-.004934,-.005379,
-.00525,-.005232,
-.005536,-.005032,
-.005782,-.004786,
-.005982,-.0045,
-.006129,-.004184,
-.00622,-.003847,
-.00625,-.0035,
-.00625,.0035,
-.00622,.003847,
-.006129,.004184,
-.005982,.0045,
-.005782,.004786,
-.005536,.005032,
-.00525,.005232,
-.004934,.005379,
-.004597,.00547,
-.00425,.0055,
.00425,.0055,
.004597,.00547,
.004934,.005379,
.00525,.005232,
.005536,.005032,
.005782,.004786,
.005982,.0045,
.006129,.004184,
.00622,.003847,
.00625,.0035,
0.0*
%
%ADD23MACRO23*%
%AMMACRO57*
4,1,44,-.03425,.04212,
.03425,.04212,
.035617,.042006,
.036942,.041652,
.038186,.041073,
.03931,.040287,
.040281,.039318,
.041068,.038194,
.041649,.036951,
.042005,.035627,
.042125,.03426,
.04212,.03425,
.04212,-.03425,
.042006,-.035617,
.041652,-.036942,
.041073,-.038186,
.040287,-.03931,
.039318,-.040281,
.038194,-.041068,
.036951,-.041649,
.035627,-.042005,
.03426,-.042125,
.03425,-.04212,
-.03425,-.04212,
-.035617,-.042006,
-.036942,-.041652,
-.038186,-.041073,
-.03931,-.040287,
-.040281,-.039318,
-.041068,-.038194,
-.041649,-.036951,
-.042005,-.035627,
-.042125,-.03426,
-.04212,-.03425,
-.04212,.03425,
-.042006,.035617,
-.041652,.036942,
-.041073,.038186,
-.040287,.03931,
-.039318,.040281,
-.038194,.041068,
-.036951,.041649,
-.035627,.042005,
-.03426,.042125,
-.03425,.04212,
0.0*
%
%ADD57MACRO57*%
%AMMACRO93*
4,1,44,-.00034,-.00715,
-.00628,-.00344,
-.006561,-.003234,
-.006798,-.002979,
-.006988,-.002686,
-.007123,-.002365,
-.007201,-.002025,
-.007219,-.001677,
-.007176,-.001331,
-.007074,-.000998,
-.006915,-.000687,
-.00691,-.00068,
-.00241,.00651,
-.002207,.006792,
-.001952,.007031,
-.001661,.007222,
-.00134,.007359,
-.001001,.007439,
-.000653,.007458,
-.000306,.007417,
.000027,.007316,
.000338,.007158,
.00034,.00715,
.00628,.00344,
.006561,.003234,
.006798,.002979,
.006988,.002686,
.007123,.002365,
.007201,.002025,
.007219,.001677,
.007176,.001331,
.007074,.000998,
.006915,.000687,
.00691,.00068,
.00241,-.00651,
.002207,-.006792,
.001952,-.007031,
.001661,-.007222,
.00134,-.007359,
.001001,-.007439,
.000653,-.007458,
.000306,-.007417,
-.000027,-.007316,
-.000338,-.007158,
-.00034,-.00715,
0.0*
%
%ADD93MACRO93*%
%AMMACRO74*
4,1,44,-.01574,.03149,
.01574,.03149,
.016424,.031436,
.017088,.031259,
.017711,.03097,
.018274,.030576,
.01876,.030091,
.019155,.029529,
.019446,.028907,
.019624,.028244,
.019685,.02756,
.01968,.02755,
.01968,-.02755,
.019626,-.028234,
.019449,-.028898,
.01916,-.029521,
.018766,-.030084,
.018281,-.03057,
.017719,-.030965,
.017097,-.031256,
.016434,-.031434,
.01575,-.031495,
.01574,-.03149,
-.01574,-.03149,
-.016424,-.031436,
-.017088,-.031259,
-.017711,-.03097,
-.018274,-.030576,
-.01876,-.030091,
-.019155,-.029529,
-.019446,-.028907,
-.019624,-.028244,
-.019685,-.02756,
-.01968,-.02755,
-.01968,.02755,
-.019626,.028234,
-.019449,.028898,
-.01916,.029521,
-.018766,.030084,
-.018281,.03057,
-.017719,.030965,
-.017097,.031256,
-.016434,.031434,
-.01575,.031495,
-.01574,.03149,
0.0*
%
%ADD74MACRO74*%
%AMMACRO55*
4,1,44,-.01181,.01968,
.01181,.01968,
.013177,.019566,
.014502,.019212,
.015746,.018633,
.01687,.017847,
.017841,.016878,
.018628,.015754,
.019209,.014511,
.019565,.013187,
.019685,.01182,
.01968,.01181,
.01968,-.01181,
.019566,-.013177,
.019212,-.014502,
.018633,-.015746,
.017847,-.01687,
.016878,-.017841,
.015754,-.018628,
.014511,-.019209,
.013187,-.019565,
.01182,-.019685,
.01181,-.01968,
-.01181,-.01968,
-.013177,-.019566,
-.014502,-.019212,
-.015746,-.018633,
-.01687,-.017847,
-.017841,-.016878,
-.018628,-.015754,
-.019209,-.014511,
-.019565,-.013187,
-.019685,-.01182,
-.01968,-.01181,
-.01968,.01181,
-.019566,.013177,
-.019212,.014502,
-.018633,.015746,
-.017847,.01687,
-.016878,.017841,
-.015754,.018628,
-.014511,.019209,
-.013187,.019565,
-.01182,.019685,
-.01181,.01968,
0.0*
%
%ADD55MACRO55*%
%AMMACRO15*
4,1,44,-.00984,-.00787,
-.00984,.00787,
-.009816,.008212,
-.009728,.008544,
-.009584,.008856,
-.009387,.009137,
-.009145,.009381,
-.008864,.009579,
-.008553,.009724,
-.008222,.009814,
-.00788,.009845,
-.00787,.00984,
.00787,.00984,
.008212,.009816,
.008544,.009728,
.008856,.009584,
.009137,.009387,
.009381,.009145,
.009579,.008864,
.009724,.008553,
.009814,.008222,
.009845,.00788,
.00984,.00787,
.00984,-.00787,
.009816,-.008212,
.009728,-.008544,
.009584,-.008856,
.009387,-.009137,
.009145,-.009381,
.008864,-.009579,
.008553,-.009724,
.008222,-.009814,
.00788,-.009845,
.00787,-.00984,
-.00787,-.00984,
-.008212,-.009816,
-.008544,-.009728,
-.008856,-.009584,
-.009137,-.009387,
-.009381,-.009145,
-.009579,-.008864,
-.009724,-.008553,
-.009814,-.008222,
-.009845,-.00788,
-.00984,-.00787,
0.0*
%
%ADD15MACRO15*%
%AMMACRO10*
4,1,44,-.00787,.00984,
.00787,.00984,
.008212,.009816,
.008544,.009728,
.008856,.009584,
.009137,.009387,
.009381,.009145,
.009579,.008864,
.009724,.008553,
.009814,.008222,
.009845,.00788,
.00984,.00787,
.00984,-.00787,
.009816,-.008212,
.009728,-.008544,
.009584,-.008856,
.009387,-.009137,
.009145,-.009381,
.008864,-.009579,
.008553,-.009724,
.008222,-.009814,
.00788,-.009845,
.00787,-.00984,
-.00787,-.00984,
-.008212,-.009816,
-.008544,-.009728,
-.008856,-.009584,
-.009137,-.009387,
-.009381,-.009145,
-.009579,-.008864,
-.009724,-.008553,
-.009814,-.008222,
-.009845,-.00788,
-.00984,-.00787,
-.00984,.00787,
-.009816,.008212,
-.009728,.008544,
-.009584,.008856,
-.009387,.009137,
-.009145,.009381,
-.008864,.009579,
-.008553,.009724,
-.008222,.009814,
-.00788,.009845,
-.00787,.00984,
0.0*
%
%ADD10MACRO10*%
%ADD24C,.01*%
%AMMACRO73*
4,1,40,.03,.01106,
.03,-.01106,
.02994,-.011744,
.029762,-.012408,
.029472,-.01303,
.029078,-.013593,
.028593,-.014078,
.02803,-.014472,
.027408,-.014762,
.026744,-.01494,
.02606,-.015,
-.02606,-.015,
-.026744,-.01494,
-.027408,-.014762,
-.02803,-.014472,
-.028593,-.014078,
-.029078,-.013593,
-.029472,-.01303,
-.029762,-.012408,
-.02994,-.011744,
-.03,-.01106,
-.03,.01106,
-.02994,.011744,
-.029762,.012408,
-.029472,.01303,
-.029078,.013593,
-.028593,.014078,
-.02803,.014472,
-.027408,.014762,
-.026744,.01494,
-.02606,.015,
.02606,.015,
.026744,.01494,
.027408,.014762,
.02803,.014472,
.028593,.014078,
.029078,.013593,
.029472,.01303,
.029762,.012408,
.02994,.011744,
.03,.01106,
0.0*
%
%ADD73MACRO73*%
%AMMACRO50*
4,1,40,.00856,-.015,
-.00856,-.015,
-.009244,-.01494,
-.009908,-.014762,
-.01053,-.014472,
-.011093,-.014078,
-.011578,-.013593,
-.011972,-.01303,
-.012262,-.012408,
-.01244,-.011744,
-.0125,-.01106,
-.0125,.01106,
-.01244,.011744,
-.012262,.012408,
-.011972,.01303,
-.011578,.013593,
-.011093,.014078,
-.01053,.014472,
-.009908,.014762,
-.009244,.01494,
-.00856,.015,
.00856,.015,
.009244,.01494,
.009908,.014762,
.01053,.014472,
.011093,.014078,
.011578,.013593,
.011972,.01303,
.012262,.012408,
.01244,.011744,
.0125,.01106,
.0125,-.01106,
.01244,-.011744,
.012262,-.012408,
.011972,-.01303,
.011578,-.013593,
.011093,-.014078,
.01053,-.014472,
.009908,-.014762,
.009244,-.01494,
.00856,-.015,
0.0*
%
%ADD50MACRO50*%
%ADD19C,.014*%
%AMMACRO21*
4,1,40,.01606,-.0275,
-.01606,-.0275,
-.016744,-.02744,
-.017408,-.027262,
-.01803,-.026972,
-.018593,-.026578,
-.019078,-.026093,
-.019472,-.02553,
-.019762,-.024908,
-.01994,-.024244,
-.02,-.02356,
-.02,.02356,
-.01994,.024244,
-.019762,.024908,
-.019472,.02553,
-.019078,.026093,
-.018593,.026578,
-.01803,.026972,
-.017408,.027262,
-.016744,.02744,
-.01606,.0275,
.01606,.0275,
.016744,.02744,
.017408,.027262,
.01803,.026972,
.018593,.026578,
.019078,.026093,
.019472,.02553,
.019762,.024908,
.01994,.024244,
.02,.02356,
.02,-.02356,
.01994,-.024244,
.019762,-.024908,
.019472,-.02553,
.019078,-.026093,
.018593,-.026578,
.01803,-.026972,
.017408,-.027262,
.016744,-.02744,
.01606,-.0275,
0.0*
%
%ADD21MACRO21*%
%ADD78R,.04X.04*%
%AMMACRO51*
4,1,40,.01356,-.0175,
-.01356,-.0175,
-.014244,-.01744,
-.014908,-.017262,
-.01553,-.016972,
-.016093,-.016578,
-.016578,-.016093,
-.016972,-.01553,
-.017262,-.014908,
-.01744,-.014244,
-.0175,-.01356,
-.0175,.01356,
-.01744,.014244,
-.017262,.014908,
-.016972,.01553,
-.016578,.016093,
-.016093,.016578,
-.01553,.016972,
-.014908,.017262,
-.014244,.01744,
-.01356,.0175,
.01356,.0175,
.014244,.01744,
.014908,.017262,
.01553,.016972,
.016093,.016578,
.016578,.016093,
.016972,.01553,
.017262,.014908,
.01744,.014244,
.0175,.01356,
.0175,-.01356,
.01744,-.014244,
.017262,-.014908,
.016972,-.01553,
.016578,-.016093,
.016093,-.016578,
.01553,-.016972,
.014908,-.017262,
.014244,-.01744,
.01356,-.0175,
0.0*
%
%ADD51MACRO51*%
%AMMACRO33*
4,1,44,.00885,-.02,
-.00885,-.02,
-.009192,-.019971,
-.009524,-.019883,
-.009836,-.019739,
-.010117,-.019542,
-.010361,-.0193,
-.010559,-.019019,
-.010704,-.018708,
-.010794,-.018377,
-.010825,-.018035,
-.01082,-.01803,
-.01082,.01803,
-.010795,.018372,
-.010706,.018704,
-.010561,.019015,
-.010364,.019296,
-.010121,.019539,
-.00984,.019736,
-.009529,.019881,
-.009197,.01997,
-.008855,.02,
-.00885,.02,
.00885,.02,
.009192,.019971,
.009524,.019883,
.009836,.019739,
.010117,.019542,
.010361,.0193,
.010559,.019019,
.010704,.018708,
.010794,.018377,
.010825,.018035,
.01082,.01803,
.01082,-.01803,
.010795,-.018372,
.010706,-.018704,
.010561,-.019015,
.010364,-.019296,
.010121,-.019539,
.00984,-.019736,
.009529,-.019881,
.009197,-.01997,
.008855,-.02,
.00885,-.02,
0.0*
%
%ADD33MACRO33*%
%AMMACRO41*
4,1,44,.00393,-.0059,
-.00393,-.0059,
-.004272,-.005876,
-.004604,-.005788,
-.004916,-.005644,
-.005197,-.005447,
-.005441,-.005205,
-.005639,-.004924,
-.005784,-.004613,
-.005874,-.004282,
-.005905,-.00394,
-.0059,-.00393,
-.0059,.00393,
-.005876,.004272,
-.005788,.004604,
-.005644,.004916,
-.005447,.005197,
-.005205,.005441,
-.004924,.005639,
-.004613,.005784,
-.004282,.005874,
-.00394,.005905,
-.00393,.0059,
.00393,.0059,
.004272,.005876,
.004604,.005788,
.004916,.005644,
.005197,.005447,
.005441,.005205,
.005639,.004924,
.005784,.004613,
.005874,.004282,
.005905,.00394,
.0059,.00393,
.0059,-.00393,
.005876,-.004272,
.005788,-.004604,
.005644,-.004916,
.005447,-.005197,
.005205,-.005441,
.004924,-.005639,
.004613,-.005784,
.004282,-.005874,
.00394,-.005905,
.00393,-.0059,
0.0*
%
%ADD41MACRO41*%
%AMMACRO11*
4,1,40,.01303,-.01378,
-.01303,-.01378,
-.013372,-.01375,
-.013704,-.013661,
-.014015,-.013516,
-.014296,-.013319,
-.014539,-.013076,
-.014736,-.012795,
-.014881,-.012484,
-.01497,-.012152,
-.015,-.01181,
-.015,.01181,
-.01497,.012152,
-.014881,.012484,
-.014736,.012795,
-.014539,.013076,
-.014296,.013319,
-.014015,.013516,
-.013704,.013661,
-.013372,.01375,
-.01303,.01378,
.01303,.01378,
.013372,.01375,
.013704,.013661,
.014015,.013516,
.014296,.013319,
.014539,.013076,
.014736,.012795,
.014881,.012484,
.01497,.012152,
.015,.01181,
.015,-.01181,
.01497,-.012152,
.014881,-.012484,
.014736,-.012795,
.014539,-.013076,
.014296,-.013319,
.014015,-.013516,
.013704,-.013661,
.013372,-.01375,
.01303,-.01378,
0.0*
%
%ADD11MACRO11*%
%AMMACRO85*
4,1,44,.00393,-.01181,
-.00393,-.01181,
-.004272,-.011781,
-.004604,-.011693,
-.004916,-.011549,
-.005197,-.011352,
-.005441,-.01111,
-.005639,-.010829,
-.005784,-.010518,
-.005874,-.010187,
-.005905,-.009845,
-.0059,-.00984,
-.0059,.00984,
-.005875,.010182,
-.005786,.010514,
-.005641,.010825,
-.005444,.011106,
-.005201,.011349,
-.00492,.011546,
-.004609,.011691,
-.004277,.01178,
-.003935,.01181,
-.00393,.01181,
.00393,.01181,
.004272,.011781,
.004604,.011693,
.004916,.011549,
.005197,.011352,
.005441,.01111,
.005639,.010829,
.005784,.010518,
.005874,.010187,
.005905,.009845,
.0059,.00984,
.0059,-.00984,
.005875,-.010182,
.005786,-.010514,
.005641,-.010825,
.005444,-.011106,
.005201,-.011349,
.00492,-.011546,
.004609,-.011691,
.004277,-.01178,
.003935,-.01181,
.00393,-.01181,
0.0*
%
%ADD85MACRO85*%
%AMMACRO75*
4,1,44,.01181,.00393,
.01181,-.00393,
.011781,-.004272,
.011693,-.004604,
.011549,-.004916,
.011352,-.005197,
.01111,-.005441,
.010829,-.005639,
.010518,-.005784,
.010187,-.005874,
.009845,-.005905,
.00984,-.0059,
-.00984,-.0059,
-.010182,-.005875,
-.010514,-.005786,
-.010825,-.005641,
-.011106,-.005444,
-.011349,-.005201,
-.011546,-.00492,
-.011691,-.004609,
-.01178,-.004277,
-.01181,-.003935,
-.01181,-.00393,
-.01181,.00393,
-.011781,.004272,
-.011693,.004604,
-.011549,.004916,
-.011352,.005197,
-.01111,.005441,
-.010829,.005639,
-.010518,.005784,
-.010187,.005874,
-.009845,.005905,
-.00984,.0059,
.00984,.0059,
.010182,.005875,
.010514,.005786,
.010825,.005641,
.011106,.005444,
.011349,.005201,
.011546,.00492,
.011691,.004609,
.01178,.004277,
.01181,.003935,
.01181,.00393,
0.0*
%
%ADD75MACRO75*%
%AMMACRO77*
4,1,44,.01082,.00393,
.01082,-.00393,
.010796,-.004272,
.010708,-.004604,
.010564,-.004916,
.010367,-.005197,
.010125,-.005441,
.009844,-.005639,
.009533,-.005784,
.009202,-.005874,
.00886,-.005905,
.00885,-.0059,
-.00885,-.0059,
-.009192,-.005876,
-.009524,-.005788,
-.009836,-.005644,
-.010117,-.005447,
-.010361,-.005205,
-.010559,-.004924,
-.010704,-.004613,
-.010794,-.004282,
-.010825,-.00394,
-.01082,-.00393,
-.01082,.00393,
-.010796,.004272,
-.010708,.004604,
-.010564,.004916,
-.010367,.005197,
-.010125,.005441,
-.009844,.005639,
-.009533,.005784,
-.009202,.005874,
-.00886,.005905,
-.00885,.0059,
.00885,.0059,
.009192,.005876,
.009524,.005788,
.009836,.005644,
.010117,.005447,
.010361,.005205,
.010559,.004924,
.010704,.004613,
.010794,.004282,
.010825,.00394,
.01082,.00393,
0.0*
%
%ADD77MACRO77*%
%AMMACRO98*
4,1,44,.01575,.00984,
.01575,-.00984,
.015631,-.011207,
.015277,-.012532,
.014698,-.013776,
.013912,-.0149,
.012943,-.015871,
.011819,-.016658,
.010576,-.017239,
.009252,-.017595,
.007885,-.017715,
.00788,-.01771,
-.00788,-.01771,
-.009247,-.017595,
-.010572,-.01724,
-.011815,-.016661,
-.012939,-.015874,
-.013909,-.014904,
-.014696,-.01378,
-.015275,-.012537,
-.01563,-.011212,
-.01575,-.009845,
-.01575,-.00984,
-.01575,.00984,
-.015631,.011207,
-.015277,.012532,
-.014698,.013776,
-.013912,.0149,
-.012943,.015871,
-.011819,.016658,
-.010576,.017239,
-.009252,.017595,
-.007885,.017715,
-.00788,.01771,
.00788,.01771,
.009247,.017595,
.010572,.01724,
.011815,.016661,
.012939,.015874,
.013909,.014904,
.014696,.01378,
.015275,.012537,
.01563,.011212,
.01575,.009845,
.01575,.00984,
0.0*
%
%ADD98MACRO98*%
%ADD20R,.02362X.00984*%
%ADD68R,.02953X.02953*%
%ADD26R,.00984X.02362*%
%AMMACRO83*
4,1,44,.01378,.00393,
.01378,-.00393,
.013751,-.004272,
.013663,-.004604,
.013519,-.004916,
.013322,-.005197,
.01308,-.005441,
.012799,-.005639,
.012488,-.005784,
.012157,-.005874,
.011815,-.005905,
.01181,-.0059,
-.01181,-.0059,
-.012152,-.005875,
-.012484,-.005786,
-.012795,-.005641,
-.013076,-.005444,
-.013319,-.005201,
-.013516,-.00492,
-.013661,-.004609,
-.01375,-.004277,
-.01378,-.003935,
-.01378,-.00393,
-.01378,.00393,
-.013751,.004272,
-.013663,.004604,
-.013519,.004916,
-.013322,.005197,
-.01308,.005441,
-.012799,.005639,
-.012488,.005784,
-.012157,.005874,
-.011815,.005905,
-.01181,.0059,
.01181,.0059,
.012152,.005875,
.012484,.005786,
.012795,.005641,
.013076,.005444,
.013319,.005201,
.013516,.00492,
.013661,.004609,
.01375,.004277,
.01378,.003935,
.01378,.00393,
0.0*
%
%ADD83MACRO83*%
%AMMACRO81*
4,1,44,.00393,-.01378,
-.00393,-.01378,
-.004272,-.013751,
-.004604,-.013663,
-.004916,-.013519,
-.005197,-.013322,
-.005441,-.01308,
-.005639,-.012799,
-.005784,-.012488,
-.005874,-.012157,
-.005905,-.011815,
-.0059,-.01181,
-.0059,.01181,
-.005875,.012152,
-.005786,.012484,
-.005641,.012795,
-.005444,.013076,
-.005201,.013319,
-.00492,.013516,
-.004609,.013661,
-.004277,.01375,
-.003935,.01378,
-.00393,.01378,
.00393,.01378,
.004272,.013751,
.004604,.013663,
.004916,.013519,
.005197,.013322,
.005441,.01308,
.005639,.012799,
.005784,.012488,
.005874,.012157,
.005905,.011815,
.0059,.01181,
.0059,-.01181,
.005875,-.012152,
.005786,-.012484,
.005641,-.012795,
.005444,-.013076,
.005201,-.013319,
.00492,-.013516,
.004609,-.013661,
.004277,-.01375,
.003935,-.01378,
.00393,-.01378,
0.0*
%
%ADD81MACRO81*%
%AMMACRO60*
4,1,44,.01181,.0059,
.01181,-.0059,
.011781,-.006242,
.011693,-.006574,
.011549,-.006886,
.011352,-.007167,
.01111,-.007411,
.010829,-.007609,
.010518,-.007754,
.010187,-.007844,
.009845,-.007875,
.00984,-.00787,
-.00984,-.00787,
-.010182,-.007845,
-.010514,-.007756,
-.010825,-.007611,
-.011106,-.007414,
-.011349,-.007171,
-.011546,-.00689,
-.011691,-.006579,
-.01178,-.006247,
-.01181,-.005905,
-.01181,-.0059,
-.01181,.0059,
-.011781,.006242,
-.011693,.006574,
-.011549,.006886,
-.011352,.007167,
-.01111,.007411,
-.010829,.007609,
-.010518,.007754,
-.010187,.007844,
-.009845,.007875,
-.00984,.00787,
.00984,.00787,
.010182,.007845,
.010514,.007756,
.010825,.007611,
.011106,.007414,
.011349,.007171,
.011546,.00689,
.011691,.006579,
.01178,.006247,
.01181,.005905,
.01181,.0059,
0.0*
%
%ADD60MACRO60*%
%AMMACRO56*
4,1,40,.00492,-.02559,
-.00492,-.02559,
-.005604,-.02553,
-.006268,-.025352,
-.00689,-.025062,
-.007453,-.024668,
-.007938,-.024183,
-.008332,-.02362,
-.008622,-.022998,
-.0088,-.022334,
-.00886,-.02165,
-.00886,.02165,
-.0088,.022334,
-.008622,.022998,
-.008332,.02362,
-.007938,.024183,
-.007453,.024668,
-.00689,.025062,
-.006268,.025352,
-.005604,.02553,
-.00492,.02559,
.00492,.02559,
.005604,.02553,
.006268,.025352,
.00689,.025062,
.007453,.024668,
.007938,.024183,
.008332,.02362,
.008622,.022998,
.0088,.022334,
.00886,.02165,
.00886,-.02165,
.0088,-.022334,
.008622,-.022998,
.008332,-.02362,
.007938,-.024183,
.007453,-.024668,
.00689,-.025062,
.006268,-.025352,
.005604,-.02553,
.00492,-.02559,
0.0*
%
%ADD56MACRO56*%
%AMMACRO44*
4,1,44,-.06299,.0748,
.06299,.0748,
.065041,.074626,
.06703,.074094,
.068896,.073225,
.070582,.072045,
.072039,.07059,
.07322,.068904,
.074091,.067039,
.074625,.065051,
.074805,.063,
.0748,.06299,
.0748,-.06299,
.074626,-.065041,
.074094,-.06703,
.073225,-.068896,
.072045,-.070582,
.07059,-.072039,
.068904,-.07322,
.067039,-.074091,
.065051,-.074625,
.063,-.074805,
.06299,-.0748,
-.06299,-.0748,
-.065041,-.074626,
-.06703,-.074094,
-.068896,-.073225,
-.070582,-.072045,
-.072039,-.07059,
-.07322,-.068904,
-.074091,-.067039,
-.074625,-.065051,
-.074805,-.063,
-.0748,-.06299,
-.0748,.06299,
-.074626,.065041,
-.074094,.06703,
-.073225,.068896,
-.072045,.070582,
-.07059,.072039,
-.068904,.07322,
-.067039,.074091,
-.065051,.074625,
-.063,.074805,
-.06299,.0748,
0.0*
%
%ADD44MACRO44*%
%ADD71R,.03937X.03937*%
%ADD53O,.00787X.02756*%
%AMMACRO52*
4,1,44,.01181,.00787,
.01181,-.00787,
.011781,-.008212,
.011693,-.008544,
.011549,-.008856,
.011352,-.009137,
.01111,-.009381,
.010829,-.009579,
.010518,-.009724,
.010187,-.009814,
.009845,-.009845,
.00984,-.00984,
-.00984,-.00984,
-.010182,-.009815,
-.010514,-.009726,
-.010825,-.009581,
-.011106,-.009384,
-.011349,-.009141,
-.011546,-.00886,
-.011691,-.008549,
-.01178,-.008217,
-.01181,-.007875,
-.01181,-.00787,
-.01181,.00787,
-.011781,.008212,
-.011693,.008544,
-.011549,.008856,
-.011352,.009137,
-.01111,.009381,
-.010829,.009579,
-.010518,.009724,
-.010187,.009814,
-.009845,.009845,
-.00984,.00984,
.00984,.00984,
.010182,.009815,
.010514,.009726,
.010825,.009581,
.011106,.009384,
.011349,.009141,
.011546,.00886,
.011691,.008549,
.01178,.008217,
.01181,.007875,
.01181,.00787,
0.0*
%
%ADD52MACRO52*%
%AMMACRO58*
4,1,40,-.01181,-.00295,
-.01181,.00295,
-.01178,.003292,
-.011691,.003624,
-.011546,.003935,
-.011349,.004216,
-.011106,.004459,
-.010825,.004656,
-.010514,.004801,
-.010182,.00489,
-.00984,.00492,
.00984,.00492,
.010182,.00489,
.010514,.004801,
.010825,.004656,
.011106,.004459,
.011349,.004216,
.011546,.003935,
.011691,.003624,
.01178,.003292,
.01181,.00295,
.01181,-.00295,
.01178,-.003292,
.011691,-.003624,
.011546,-.003935,
.011349,-.004216,
.011106,-.004459,
.010825,-.004656,
.010514,-.004801,
.010182,-.00489,
.00984,-.00492,
-.00984,-.00492,
-.010182,-.00489,
-.010514,-.004801,
-.010825,-.004656,
-.011106,-.004459,
-.011349,-.004216,
-.011546,-.003935,
-.011691,-.003624,
-.01178,-.003292,
-.01181,-.00295,
0.0*
%
%ADD58MACRO58*%
%AMMACRO35*
4,1,40,-.00295,.01181,
.00295,.01181,
.003292,.01178,
.003624,.011691,
.003935,.011546,
.004216,.011349,
.004459,.011106,
.004656,.010825,
.004801,.010514,
.00489,.010182,
.00492,.00984,
.00492,-.00984,
.00489,-.010182,
.004801,-.010514,
.004656,-.010825,
.004459,-.011106,
.004216,-.011349,
.003935,-.011546,
.003624,-.011691,
.003292,-.01178,
.00295,-.01181,
-.00295,-.01181,
-.003292,-.01178,
-.003624,-.011691,
-.003935,-.011546,
-.004216,-.011349,
-.004459,-.011106,
-.004656,-.010825,
-.004801,-.010514,
-.00489,-.010182,
-.00492,-.00984,
-.00492,.00984,
-.00489,.010182,
-.004801,.010514,
-.004656,.010825,
-.004459,.011106,
-.004216,.011349,
-.003935,.011546,
-.003624,.011691,
-.003292,.01178,
-.00295,.01181,
0.0*
%
%ADD35MACRO35*%
%ADD34R,.00787X.03937*%
%AMMACRO43*
4,1,44,.03543,.00984,
.03543,-.00984,
.035375,-.010524,
.035197,-.011188,
.034907,-.01181,
.034513,-.012373,
.034028,-.012858,
.033465,-.013252,
.032843,-.013542,
.032179,-.01372,
.031495,-.01378,
.03149,-.01378,
-.03149,-.01378,
-.032174,-.013721,
-.032838,-.013544,
-.033461,-.013255,
-.034024,-.012861,
-.03451,-.012376,
-.034905,-.011814,
-.035196,-.011192,
-.035374,-.010529,
-.035435,-.009845,
-.03543,-.00984,
-.03543,.00984,
-.035375,.010524,
-.035197,.011188,
-.034907,.01181,
-.034513,.012373,
-.034028,.012858,
-.033465,.013252,
-.032843,.013542,
-.032179,.01372,
-.031495,.01378,
-.03149,.01378,
.03149,.01378,
.032174,.013721,
.032838,.013544,
.033461,.013255,
.034024,.012861,
.03451,.012376,
.034905,.011814,
.035196,.011192,
.035374,.010529,
.035435,.009845,
.03543,.00984,
0.0*
%
%ADD43MACRO43*%
%AMMACRO88*
4,1,40,.02362,.00591,
.02362,-.00591,
.0235,-.007277,
.023145,-.008602,
.022566,-.009845,
.021779,-.010969,
.020809,-.011939,
.019685,-.012726,
.018442,-.013305,
.017117,-.01366,
.01575,-.01378,
-.01575,-.01378,
-.017117,-.01366,
-.018442,-.013305,
-.019685,-.012726,
-.020809,-.011939,
-.021779,-.010969,
-.022566,-.009845,
-.023145,-.008602,
-.0235,-.007277,
-.02362,-.00591,
-.02362,.00591,
-.0235,.007277,
-.023145,.008602,
-.022566,.009845,
-.021779,.010969,
-.020809,.011939,
-.019685,.012726,
-.018442,.013305,
-.017117,.01366,
-.01575,.01378,
.01575,.01378,
.017117,.01366,
.018442,.013305,
.019685,.012726,
.020809,.011939,
.021779,.010969,
.022566,.009845,
.023145,.008602,
.0235,.007277,
.02362,.00591,
0.0*
%
%ADD88MACRO88*%
%AMMACRO87*
4,1,44,-.00196,.00689,
.00196,.00689,
.002302,.006861,
.002634,.006773,
.002946,.006629,
.003227,.006432,
.003471,.00619,
.003669,.005909,
.003814,.005598,
.003904,.005267,
.003935,.004925,
.00393,.00492,
.00393,-.00492,
.003905,-.005262,
.003816,-.005594,
.003671,-.005905,
.003474,-.006186,
.003231,-.006429,
.00295,-.006626,
.002639,-.006771,
.002307,-.00686,
.001965,-.00689,
.00196,-.00689,
-.00196,-.00689,
-.002302,-.006861,
-.002634,-.006773,
-.002946,-.006629,
-.003227,-.006432,
-.003471,-.00619,
-.003669,-.005909,
-.003814,-.005598,
-.003904,-.005267,
-.003935,-.004925,
-.00393,-.00492,
-.00393,.00492,
-.003905,.005262,
-.003816,.005594,
-.003671,.005905,
-.003474,.006186,
-.003231,.006429,
-.00295,.006626,
-.002639,.006771,
-.002307,.00686,
-.001965,.00689,
-.00196,.00689,
0.0*
%
%ADD87MACRO87*%
%AMMACRO84*
4,1,44,.03149,.01574,
.03149,-.01574,
.031436,-.016424,
.031259,-.017088,
.03097,-.017711,
.030576,-.018274,
.030091,-.01876,
.029529,-.019155,
.028907,-.019446,
.028244,-.019624,
.02756,-.019685,
.02755,-.01968,
-.02755,-.01968,
-.028234,-.019626,
-.028898,-.019449,
-.029521,-.01916,
-.030084,-.018766,
-.03057,-.018281,
-.030965,-.017719,
-.031256,-.017097,
-.031434,-.016434,
-.031495,-.01575,
-.03149,-.01574,
-.03149,.01574,
-.031436,.016424,
-.031259,.017088,
-.03097,.017711,
-.030576,.018274,
-.030091,.01876,
-.029529,.019155,
-.028907,.019446,
-.028244,.019624,
-.02756,.019685,
-.02755,.01968,
.02755,.01968,
.028234,.019626,
.028898,.019449,
.029521,.01916,
.030084,.018766,
.03057,.018281,
.030965,.017719,
.031256,.017097,
.031434,.016434,
.031495,.01575,
.03149,.01574,
0.0*
%
%ADD84MACRO84*%
%AMMACRO47*
4,1,40,-.00295,.01378,
.00295,.01378,
.003292,.01375,
.003624,.013661,
.003935,.013516,
.004216,.013319,
.004459,.013076,
.004656,.012795,
.004801,.012484,
.00489,.012152,
.00492,.01181,
.00492,-.01181,
.00489,-.012152,
.004801,-.012484,
.004656,-.012795,
.004459,-.013076,
.004216,-.013319,
.003935,-.013516,
.003624,-.013661,
.003292,-.01375,
.00295,-.01378,
-.00295,-.01378,
-.003292,-.01375,
-.003624,-.013661,
-.003935,-.013516,
-.004216,-.013319,
-.004459,-.013076,
-.004656,-.012795,
-.004801,-.012484,
-.00489,-.012152,
-.00492,-.01181,
-.00492,.01181,
-.00489,.012152,
-.004801,.012484,
-.004656,.012795,
-.004459,.013076,
-.004216,.013319,
-.003935,.013516,
-.003624,.013661,
-.003292,.01375,
-.00295,.01378,
0.0*
%
%ADD47MACRO47*%
%AMMACRO79*
4,1,44,-.00689,.00194,
-.00194,.00689,
-.001677,.007118,
-.001375,.007293,
-.001048,.007412,
-.000704,.007472,
-.000356,.007472,
-.000013,.007412,
.000315,.007293,
.000617,.007118,
.000884,.006894,
.00088,.00689,
.00689,.00088,
.007118,.000617,
.007293,.000315,
.007412,-.000012,
.007472,-.000356,
.007472,-.000704,
.007412,-.001048,
.007293,-.001375,
.007119,-.001677,
.006894,-.001944,
.00689,-.00194,
.00194,-.00689,
.001677,-.007118,
.001375,-.007293,
.001048,-.007412,
.000704,-.007472,
.000356,-.007472,
.000013,-.007412,
-.000315,-.007293,
-.000617,-.007118,
-.000884,-.006894,
-.00088,-.00689,
-.00689,-.00088,
-.007118,-.000617,
-.007293,-.000315,
-.007412,.000012,
-.007472,.000356,
-.007472,.000704,
-.007412,.001048,
-.007293,.001375,
-.007119,.001677,
-.006894,.001944,
-.00689,.00194,
0.0*
%
%ADD79MACRO79*%
%AMMACRO48*
4,1,44,-.08661,.09842,
.08661,.09842,
.088661,.098246,
.09065,.097714,
.092516,.096845,
.094202,.095665,
.095659,.09421,
.09684,.092524,
.097711,.090659,
.098245,.088671,
.098425,.08662,
.09842,.08661,
.09842,-.08661,
.098246,-.088661,
.097714,-.09065,
.096845,-.092516,
.095665,-.094202,
.09421,-.095659,
.092524,-.09684,
.090659,-.097711,
.088671,-.098245,
.08662,-.098425,
.08661,-.09842,
-.08661,-.09842,
-.088661,-.098246,
-.09065,-.097714,
-.092516,-.096845,
-.094202,-.095665,
-.095659,-.09421,
-.09684,-.092524,
-.097711,-.090659,
-.098245,-.088671,
-.098425,-.08662,
-.09842,-.08661,
-.09842,.08661,
-.098246,.088661,
-.097714,.09065,
-.096845,.092516,
-.095665,.094202,
-.09421,.095659,
-.092524,.09684,
-.090659,.097711,
-.088671,.098245,
-.08662,.098425,
-.08661,.09842,
0.0*
%
%ADD48MACRO48*%
%AMMACRO46*
4,1,44,-.00196,.01378,
.00196,.01378,
.002302,.013751,
.002634,.013663,
.002946,.013519,
.003227,.013322,
.003471,.01308,
.003669,.012799,
.003814,.012488,
.003904,.012157,
.003935,.011815,
.00393,.01181,
.00393,-.01181,
.003905,-.012152,
.003816,-.012484,
.003671,-.012795,
.003474,-.013076,
.003231,-.013319,
.00295,-.013516,
.002639,-.013661,
.002307,-.01375,
.001965,-.01378,
.00196,-.01378,
-.00196,-.01378,
-.002302,-.013751,
-.002634,-.013663,
-.002946,-.013519,
-.003227,-.013322,
-.003471,-.01308,
-.003669,-.012799,
-.003814,-.012488,
-.003904,-.012157,
-.003935,-.011815,
-.00393,-.01181,
-.00393,.01181,
-.003905,.012152,
-.003816,.012484,
-.003671,.012795,
-.003474,.013076,
-.003231,.013319,
-.00295,.013516,
-.002639,.013661,
-.002307,.01375,
-.001965,.01378,
-.00196,.01378,
0.0*
%
%ADD46MACRO46*%
%AMMACRO30*
4,1,40,-.00625,-.0035,
-.00625,.0035,
-.00622,.003847,
-.006129,.004184,
-.005982,.0045,
-.005782,.004786,
-.005536,.005032,
-.00525,.005232,
-.004934,.005379,
-.004597,.00547,
-.00425,.0055,
.00425,.0055,
.004597,.00547,
.004934,.005379,
.00525,.005232,
.005536,.005032,
.005782,.004786,
.005982,.0045,
.006129,.004184,
.00622,.003847,
.00625,.0035,
.00625,-.0035,
.00622,-.003847,
.006129,-.004184,
.005982,-.0045,
.005782,-.004786,
.005536,-.005032,
.00525,-.005232,
.004934,-.005379,
.004597,-.00547,
.00425,-.0055,
-.00425,-.0055,
-.004597,-.00547,
-.004934,-.005379,
-.00525,-.005232,
-.005536,-.005032,
-.005782,-.004786,
-.005982,-.0045,
-.006129,-.004184,
-.00622,-.003847,
-.00625,-.0035,
0.0*
%
%ADD30MACRO30*%
%AMMACRO13*
4,1,40,-.0035,.00625,
.0035,.00625,
.003847,.00622,
.004184,.006129,
.0045,.005982,
.004786,.005782,
.005032,.005536,
.005232,.00525,
.005379,.004934,
.00547,.004597,
.0055,.00425,
.0055,-.00425,
.00547,-.004597,
.005379,-.004934,
.005232,-.00525,
.005032,-.005536,
.004786,-.005782,
.0045,-.005982,
.004184,-.006129,
.003847,-.00622,
.0035,-.00625,
-.0035,-.00625,
-.003847,-.00622,
-.004184,-.006129,
-.0045,-.005982,
-.004786,-.005782,
-.005032,-.005536,
-.005232,-.00525,
-.005379,-.004934,
-.00547,-.004597,
-.0055,-.00425,
-.0055,.00425,
-.00547,.004597,
-.005379,.004934,
-.005232,.00525,
-.005032,.005536,
-.004786,.005782,
-.0045,.005982,
-.004184,.006129,
-.003847,.00622,
-.0035,.00625,
0.0*
%
%ADD13MACRO13*%
%AMMACRO17*
4,1,44,.00787,-.00984,
-.00787,-.00984,
-.008212,-.009816,
-.008544,-.009728,
-.008856,-.009584,
-.009137,-.009387,
-.009381,-.009145,
-.009579,-.008864,
-.009724,-.008553,
-.009814,-.008222,
-.009845,-.00788,
-.00984,-.00787,
-.00984,.00787,
-.009816,.008212,
-.009728,.008544,
-.009584,.008856,
-.009387,.009137,
-.009145,.009381,
-.008864,.009579,
-.008553,.009724,
-.008222,.009814,
-.00788,.009845,
-.00787,.00984,
.00787,.00984,
.008212,.009816,
.008544,.009728,
.008856,.009584,
.009137,.009387,
.009381,.009145,
.009579,.008864,
.009724,.008553,
.009814,.008222,
.009845,.00788,
.00984,.00787,
.00984,-.00787,
.009816,-.008212,
.009728,-.008544,
.009584,-.008856,
.009387,-.009137,
.009145,-.009381,
.008864,-.009579,
.008553,-.009724,
.008222,-.009814,
.00788,-.009845,
.00787,-.00984,
0.0*
%
%ADD17MACRO17*%
%AMMACRO14*
4,1,44,.00984,.00787,
.00984,-.00787,
.009816,-.008212,
.009728,-.008544,
.009584,-.008856,
.009387,-.009137,
.009145,-.009381,
.008864,-.009579,
.008553,-.009724,
.008222,-.009814,
.00788,-.009845,
.00787,-.00984,
-.00787,-.00984,
-.008212,-.009816,
-.008544,-.009728,
-.008856,-.009584,
-.009137,-.009387,
-.009381,-.009145,
-.009579,-.008864,
-.009724,-.008553,
-.009814,-.008222,
-.009845,-.00788,
-.00984,-.00787,
-.00984,.00787,
-.009816,.008212,
-.009728,.008544,
-.009584,.008856,
-.009387,.009137,
-.009145,.009381,
-.008864,.009579,
-.008553,.009724,
-.008222,.009814,
-.00788,.009845,
-.00787,.00984,
.00787,.00984,
.008212,.009816,
.008544,.009728,
.008856,.009584,
.009137,.009387,
.009381,.009145,
.009579,.008864,
.009724,.008553,
.009814,.008222,
.009845,.00788,
.00984,.00787,
0.0*
%
%ADD14MACRO14*%
%ADD38R,.04X.025*%
%ADD40R,.025X.04*%
%ADD36R,.052X.042*%
%ADD86R,.0374X.012*%
%AMMACRO42*
4,1,40,-.03,-.01106,
-.03,.01106,
-.02994,.011744,
-.029762,.012408,
-.029472,.01303,
-.029078,.013593,
-.028593,.014078,
-.02803,.014472,
-.027408,.014762,
-.026744,.01494,
-.02606,.015,
.02606,.015,
.026744,.01494,
.027408,.014762,
.02803,.014472,
.028593,.014078,
.029078,.013593,
.029472,.01303,
.029762,.012408,
.02994,.011744,
.03,.01106,
.03,-.01106,
.02994,-.011744,
.029762,-.012408,
.029472,-.01303,
.029078,-.013593,
.028593,-.014078,
.02803,-.014472,
.027408,-.014762,
.026744,-.01494,
.02606,-.015,
-.02606,-.015,
-.026744,-.01494,
-.027408,-.014762,
-.02803,-.014472,
-.028593,-.014078,
-.029078,-.013593,
-.029472,-.01303,
-.029762,-.012408,
-.02994,-.011744,
-.03,-.01106,
0.0*
%
%ADD42MACRO42*%
%AMMACRO28*
4,1,40,-.01106,.03,
.01106,.03,
.011744,.02994,
.012408,.029762,
.01303,.029472,
.013593,.029078,
.014078,.028593,
.014472,.02803,
.014762,.027408,
.01494,.026744,
.015,.02606,
.015,-.02606,
.01494,-.026744,
.014762,-.027408,
.014472,-.02803,
.014078,-.028593,
.013593,-.029078,
.01303,-.029472,
.012408,-.029762,
.011744,-.02994,
.01106,-.03,
-.01106,-.03,
-.011744,-.02994,
-.012408,-.029762,
-.01303,-.029472,
-.013593,-.029078,
-.014078,-.028593,
-.014472,-.02803,
-.014762,-.027408,
-.01494,-.026744,
-.015,-.02606,
-.015,.02606,
-.01494,.026744,
-.014762,.027408,
-.014472,.02803,
-.014078,.028593,
-.013593,.029078,
-.01303,.029472,
-.012408,.029762,
-.011744,.02994,
-.01106,.03,
0.0*
%
%ADD28MACRO28*%
%ADD95R,.04X.088*%
%ADD70R,.055X.064*%
%ADD72R,.088X.04*%
%ADD27R,.075X.045*%
%AMMACRO76*
4,1,40,-.0225,-.01606,
-.0225,.01606,
-.02244,.016744,
-.022262,.017408,
-.021972,.01803,
-.021578,.018593,
-.021093,.019078,
-.02053,.019472,
-.019908,.019762,
-.019244,.01994,
-.01856,.02,
.01856,.02,
.019244,.01994,
.019908,.019762,
.02053,.019472,
.021093,.019078,
.021578,.018593,
.021972,.01803,
.022262,.017408,
.02244,.016744,
.0225,.01606,
.0225,-.01606,
.02244,-.016744,
.022262,-.017408,
.021972,-.01803,
.021578,-.018593,
.021093,-.019078,
.02053,-.019472,
.019908,-.019762,
.019244,-.01994,
.01856,-.02,
-.01856,-.02,
-.019244,-.01994,
-.019908,-.019762,
-.02053,-.019472,
-.021093,-.019078,
-.021578,-.018593,
-.021972,-.01803,
-.022262,-.017408,
-.02244,-.016744,
-.0225,-.01606,
0.0*
%
%ADD76MACRO76*%
%ADD25R,.001X.001*%
%ADD22R,.045X.075*%
%AMMACRO32*
4,1,40,-.0275,-.01606,
-.0275,.01606,
-.02744,.016744,
-.027262,.017408,
-.026972,.01803,
-.026578,.018593,
-.026093,.019078,
-.02553,.019472,
-.024908,.019762,
-.024244,.01994,
-.02356,.02,
.02356,.02,
.024244,.01994,
.024908,.019762,
.02553,.019472,
.026093,.019078,
.026578,.018593,
.026972,.01803,
.027262,.017408,
.02744,.016744,
.0275,.01606,
.0275,-.01606,
.02744,-.016744,
.027262,-.017408,
.026972,-.01803,
.026578,-.018593,
.026093,-.019078,
.02553,-.019472,
.024908,-.019762,
.024244,-.01994,
.02356,-.02,
-.02356,-.02,
-.024244,-.01994,
-.024908,-.019762,
-.02553,-.019472,
-.026093,-.019078,
-.026578,-.018593,
-.026972,-.01803,
-.027262,-.017408,
-.02744,-.016744,
-.0275,-.01606,
0.0*
%
%ADD32MACRO32*%
%AMMACRO31*
4,1,40,-.01606,.0275,
.01606,.0275,
.016744,.02744,
.017408,.027262,
.01803,.026972,
.018593,.026578,
.019078,.026093,
.019472,.02553,
.019762,.024908,
.01994,.024244,
.02,.02356,
.02,-.02356,
.01994,-.024244,
.019762,-.024908,
.019472,-.02553,
.019078,-.026093,
.018593,-.026578,
.01803,-.026972,
.017408,-.027262,
.016744,-.02744,
.01606,-.0275,
-.01606,-.0275,
-.016744,-.02744,
-.017408,-.027262,
-.01803,-.026972,
-.018593,-.026578,
-.019078,-.026093,
-.019472,-.02553,
-.019762,-.024908,
-.01994,-.024244,
-.02,-.02356,
-.02,.02356,
-.01994,.024244,
-.019762,.024908,
-.019472,.02553,
-.019078,.026093,
-.018593,.026578,
-.01803,.026972,
-.017408,.027262,
-.016744,.02744,
-.01606,.0275,
0.0*
%
%ADD31MACRO31*%
%AMMACRO12*
4,1,40,-.01356,.0175,
.01356,.0175,
.014244,.01744,
.014908,.017262,
.01553,.016972,
.016093,.016578,
.016578,.016093,
.016972,.01553,
.017262,.014908,
.01744,.014244,
.0175,.01356,
.0175,-.01356,
.01744,-.014244,
.017262,-.014908,
.016972,-.01553,
.016578,-.016093,
.016093,-.016578,
.01553,-.016972,
.014908,-.017262,
.014244,-.01744,
.01356,-.0175,
-.01356,-.0175,
-.014244,-.01744,
-.014908,-.017262,
-.01553,-.016972,
-.016093,-.016578,
-.016578,-.016093,
-.016972,-.01553,
-.017262,-.014908,
-.01744,-.014244,
-.0175,-.01356,
-.0175,.01356,
-.01744,.014244,
-.017262,.014908,
-.016972,.01553,
-.016578,.016093,
-.016093,.016578,
-.01553,.016972,
-.014908,.017262,
-.014244,.01744,
-.01356,.0175,
0.0*
%
%ADD12MACRO12*%
%AMMACRO66*
4,1,44,-.02,-.00885,
-.02,.00885,
-.019971,.009192,
-.019883,.009524,
-.019739,.009836,
-.019542,.010117,
-.0193,.010361,
-.019019,.010559,
-.018708,.010704,
-.018377,.010794,
-.018035,.010825,
-.01803,.01082,
.01803,.01082,
.018372,.010795,
.018704,.010706,
.019015,.010561,
.019296,.010364,
.019539,.010121,
.019736,.00984,
.019881,.009529,
.01997,.009197,
.02,.008855,
.02,.00885,
.02,-.00885,
.019971,-.009192,
.019883,-.009524,
.019739,-.009836,
.019542,-.010117,
.0193,-.010361,
.019019,-.010559,
.018708,-.010704,
.018377,-.010794,
.018035,-.010825,
.01803,-.01082,
-.01803,-.01082,
-.018372,-.010795,
-.018704,-.010706,
-.019015,-.010561,
-.019296,-.010364,
-.019539,-.010121,
-.019736,-.00984,
-.019881,-.009529,
-.01997,-.009197,
-.02,-.008855,
-.02,-.00885,
0.0*
%
%ADD66MACRO66*%
%AMMACRO82*
4,1,44,.10039,.08858,
.10039,-.08858,
.100216,-.090631,
.099684,-.09262,
.098815,-.094486,
.097635,-.096172,
.09618,-.097629,
.094494,-.09881,
.092629,-.099681,
.090641,-.100215,
.08859,-.100395,
.08858,-.10039,
-.08858,-.10039,
-.090631,-.100216,
-.09262,-.099684,
-.094486,-.098815,
-.096172,-.097635,
-.097629,-.09618,
-.09881,-.094494,
-.099681,-.092629,
-.100215,-.090641,
-.100395,-.08859,
-.10039,-.08858,
-.10039,.08858,
-.100216,.090631,
-.099684,.09262,
-.098815,.094486,
-.097635,.096172,
-.09618,.097629,
-.094494,.09881,
-.092629,.099681,
-.090641,.100215,
-.08859,.100395,
-.08858,.10039,
.08858,.10039,
.090631,.100216,
.09262,.099684,
.094486,.098815,
.096172,.097635,
.097629,.09618,
.09881,.094494,
.099681,.092629,
.100215,.090641,
.100395,.08859,
.10039,.08858,
0.0*
%
%ADD82MACRO82*%
%AMMACRO37*
4,1,44,-.0059,-.00393,
-.0059,.00393,
-.005876,.004272,
-.005788,.004604,
-.005644,.004916,
-.005447,.005197,
-.005205,.005441,
-.004924,.005639,
-.004613,.005784,
-.004282,.005874,
-.00394,.005905,
-.00393,.0059,
.00393,.0059,
.004272,.005876,
.004604,.005788,
.004916,.005644,
.005197,.005447,
.005441,.005205,
.005639,.004924,
.005784,.004613,
.005874,.004282,
.005905,.00394,
.0059,.00393,
.0059,-.00393,
.005876,-.004272,
.005788,-.004604,
.005644,-.004916,
.005447,-.005197,
.005205,-.005441,
.004924,-.005639,
.004613,-.005784,
.004282,-.005874,
.00394,-.005905,
.00393,-.0059,
-.00393,-.0059,
-.004272,-.005876,
-.004604,-.005788,
-.004916,-.005644,
-.005197,-.005447,
-.005441,-.005205,
-.005639,-.004924,
-.005784,-.004613,
-.005874,-.004282,
-.005905,-.00394,
-.0059,-.00393,
0.0*
%
%ADD37MACRO37*%
%AMMACRO16*
4,1,40,-.01378,-.01303,
-.01378,.01303,
-.01375,.013372,
-.013661,.013704,
-.013516,.014015,
-.013319,.014296,
-.013076,.014539,
-.012795,.014736,
-.012484,.014881,
-.012152,.01497,
-.01181,.015,
.01181,.015,
.012152,.01497,
.012484,.014881,
.012795,.014736,
.013076,.014539,
.013319,.014296,
.013516,.014015,
.013661,.013704,
.01375,.013372,
.01378,.01303,
.01378,-.01303,
.01375,-.013372,
.013661,-.013704,
.013516,-.014015,
.013319,-.014296,
.013076,-.014539,
.012795,-.014736,
.012484,-.014881,
.012152,-.01497,
.01181,-.015,
-.01181,-.015,
-.012152,-.01497,
-.012484,-.014881,
-.012795,-.014736,
-.013076,-.014539,
-.013319,-.014296,
-.013516,-.014015,
-.013661,-.013704,
-.01375,-.013372,
-.01378,-.01303,
0.0*
%
%ADD16MACRO16*%
%AMMACRO90*
4,1,44,-.01181,-.00393,
-.01181,.00393,
-.011781,.004272,
-.011693,.004604,
-.011549,.004916,
-.011352,.005197,
-.01111,.005441,
-.010829,.005639,
-.010518,.005784,
-.010187,.005874,
-.009845,.005905,
-.00984,.0059,
.00984,.0059,
.010182,.005875,
.010514,.005786,
.010825,.005641,
.011106,.005444,
.011349,.005201,
.011546,.00492,
.011691,.004609,
.01178,.004277,
.01181,.003935,
.01181,.00393,
.01181,-.00393,
.011781,-.004272,
.011693,-.004604,
.011549,-.004916,
.011352,-.005197,
.01111,-.005441,
.010829,-.005639,
.010518,-.005784,
.010187,-.005874,
.009845,-.005905,
.00984,-.0059,
-.00984,-.0059,
-.010182,-.005875,
-.010514,-.005786,
-.010825,-.005641,
-.011106,-.005444,
-.011349,-.005201,
-.011546,-.00492,
-.011691,-.004609,
-.01178,-.004277,
-.01181,-.003935,
-.01181,-.00393,
0.0*
%
%ADD90MACRO90*%
%AMMACRO61*
4,1,40,-.01303,.01378,
.01303,.01378,
.013372,.01375,
.013704,.013661,
.014015,.013516,
.014296,.013319,
.014539,.013076,
.014736,.012795,
.014881,.012484,
.01497,.012152,
.015,.01181,
.015,-.01181,
.01497,-.012152,
.014881,-.012484,
.014736,-.012795,
.014539,-.013076,
.014296,-.013319,
.014015,-.013516,
.013704,-.013661,
.013372,-.01375,
.01303,-.01378,
-.01303,-.01378,
-.013372,-.01375,
-.013704,-.013661,
-.014015,-.013516,
-.014296,-.013319,
-.014539,-.013076,
-.014736,-.012795,
-.014881,-.012484,
-.01497,-.012152,
-.015,-.01181,
-.015,.01181,
-.01497,.012152,
-.014881,.012484,
-.014736,.012795,
-.014539,.013076,
-.014296,.013319,
-.014015,.013516,
-.013704,.013661,
-.013372,.01375,
-.01303,.01378,
0.0*
%
%ADD61MACRO61*%
%AMMACRO96*
4,1,44,-.01082,-.00393,
-.01082,.00393,
-.010796,.004272,
-.010708,.004604,
-.010564,.004916,
-.010367,.005197,
-.010125,.005441,
-.009844,.005639,
-.009533,.005784,
-.009202,.005874,
-.00886,.005905,
-.00885,.0059,
.00885,.0059,
.009192,.005876,
.009524,.005788,
.009836,.005644,
.010117,.005447,
.010361,.005205,
.010559,.004924,
.010704,.004613,
.010794,.004282,
.010825,.00394,
.01082,.00393,
.01082,-.00393,
.010796,-.004272,
.010708,-.004604,
.010564,-.004916,
.010367,-.005197,
.010125,-.005441,
.009844,-.005639,
.009533,-.005784,
.009202,-.005874,
.00886,-.005905,
.00885,-.0059,
-.00885,-.0059,
-.009192,-.005876,
-.009524,-.005788,
-.009836,-.005644,
-.010117,-.005447,
-.010361,-.005205,
-.010559,-.004924,
-.010704,-.004613,
-.010794,-.004282,
-.010825,-.00394,
-.01082,-.00393,
0.0*
%
%ADD96MACRO96*%
%AMMACRO94*
4,1,44,-.00393,.01181,
.00393,.01181,
.004272,.011781,
.004604,.011693,
.004916,.011549,
.005197,.011352,
.005441,.01111,
.005639,.010829,
.005784,.010518,
.005874,.010187,
.005905,.009845,
.0059,.00984,
.0059,-.00984,
.005875,-.010182,
.005786,-.010514,
.005641,-.010825,
.005444,-.011106,
.005201,-.011349,
.00492,-.011546,
.004609,-.011691,
.004277,-.01178,
.003935,-.01181,
.00393,-.01181,
-.00393,-.01181,
-.004272,-.011781,
-.004604,-.011693,
-.004916,-.011549,
-.005197,-.011352,
-.005441,-.01111,
-.005639,-.010829,
-.005784,-.010518,
-.005874,-.010187,
-.005905,-.009845,
-.0059,-.00984,
-.0059,.00984,
-.005875,.010182,
-.005786,.010514,
-.005641,.010825,
-.005444,.011106,
-.005201,.011349,
-.00492,.011546,
-.004609,.011691,
-.004277,.01178,
-.003935,.01181,
-.00393,.01181,
0.0*
%
%ADD94MACRO94*%
%AMMACRO97*
4,1,44,-.00393,.01082,
.00393,.01082,
.004272,.010796,
.004604,.010708,
.004916,.010564,
.005197,.010367,
.005441,.010125,
.005639,.009844,
.005784,.009533,
.005874,.009202,
.005905,.00886,
.0059,.00885,
.0059,-.00885,
.005876,-.009192,
.005788,-.009524,
.005644,-.009836,
.005447,-.010117,
.005205,-.010361,
.004924,-.010559,
.004613,-.010704,
.004282,-.010794,
.00394,-.010825,
.00393,-.01082,
-.00393,-.01082,
-.004272,-.010796,
-.004604,-.010708,
-.004916,-.010564,
-.005197,-.010367,
-.005441,-.010125,
-.005639,-.009844,
-.005784,-.009533,
-.005874,-.009202,
-.005905,-.00886,
-.0059,-.00885,
-.0059,.00885,
-.005876,.009192,
-.005788,.009524,
-.005644,.009836,
-.005447,.010117,
-.005205,.010361,
-.004924,.010559,
-.004613,.010704,
-.004282,.010794,
-.00394,.010825,
-.00393,.01082,
0.0*
%
%ADD97MACRO97*%
%ADD69R,.02953X.01575*%
%ADD67R,.01575X.02953*%
%ADD62R,.03937X.03543*%
%AMMACRO39*
4,1,40,-.00394,.03051,
.00394,.03051,
.005307,.03039,
.006632,.030035,
.007875,.029456,
.008999,.028669,
.009969,.027699,
.010756,.026575,
.011335,.025332,
.01169,.024007,
.01181,.02264,
.01181,-.02264,
.01169,-.024007,
.011335,-.025332,
.010756,-.026575,
.009969,-.027699,
.008999,-.028669,
.007875,-.029456,
.006632,-.030035,
.005307,-.03039,
.00394,-.03051,
-.00394,-.03051,
-.005307,-.03039,
-.006632,-.030035,
-.007875,-.029456,
-.008999,-.028669,
-.009969,-.027699,
-.010756,-.026575,
-.011335,-.025332,
-.01169,-.024007,
-.01181,-.02264,
-.01181,.02264,
-.01169,.024007,
-.011335,.025332,
-.010756,.026575,
-.009969,.027699,
-.008999,.028669,
-.007875,.029456,
-.006632,.030035,
-.005307,.03039,
-.00394,.03051,
0.0*
%
%ADD39MACRO39*%
%AMMACRO65*
4,1,44,-.01181,-.0059,
-.01181,.0059,
-.011781,.006242,
-.011693,.006574,
-.011549,.006886,
-.011352,.007167,
-.01111,.007411,
-.010829,.007609,
-.010518,.007754,
-.010187,.007844,
-.009845,.007875,
-.00984,.00787,
.00984,.00787,
.010182,.007845,
.010514,.007756,
.010825,.007611,
.011106,.007414,
.011349,.007171,
.011546,.00689,
.011691,.006579,
.01178,.006247,
.01181,.005905,
.01181,.0059,
.01181,-.0059,
.011781,-.006242,
.011693,-.006574,
.011549,-.006886,
.011352,-.007167,
.01111,-.007411,
.010829,-.007609,
.010518,-.007754,
.010187,-.007844,
.009845,-.007875,
.00984,-.00787,
-.00984,-.00787,
-.010182,-.007845,
-.010514,-.007756,
-.010825,-.007611,
-.011106,-.007414,
-.011349,-.007171,
-.011546,-.00689,
-.011691,-.006579,
-.01178,-.006247,
-.01181,-.005905,
-.01181,-.0059,
0.0*
%
%ADD65MACRO65*%
%AMMACRO92*
4,1,44,-.0059,.01181,
.0059,.01181,
.006242,.011781,
.006574,.011693,
.006886,.011549,
.007167,.011352,
.007411,.01111,
.007609,.010829,
.007754,.010518,
.007844,.010187,
.007875,.009845,
.00787,.00984,
.00787,-.00984,
.007845,-.010182,
.007756,-.010514,
.007611,-.010825,
.007414,-.011106,
.007171,-.011349,
.00689,-.011546,
.006579,-.011691,
.006247,-.01178,
.005905,-.01181,
.0059,-.01181,
-.0059,-.01181,
-.006242,-.011781,
-.006574,-.011693,
-.006886,-.011549,
-.007167,-.011352,
-.007411,-.01111,
-.007609,-.010829,
-.007754,-.010518,
-.007844,-.010187,
-.007875,-.009845,
-.00787,-.00984,
-.00787,.00984,
-.007845,.010182,
-.007756,.010514,
-.007611,.010825,
-.007414,.011106,
-.007171,.011349,
-.00689,.011546,
-.006579,.011691,
-.006247,.01178,
-.005905,.01181,
-.0059,.01181,
0.0*
%
%ADD92MACRO92*%
%AMMACRO59*
4,1,40,.00295,-.01181,
-.00295,-.01181,
-.003292,-.01178,
-.003624,-.011691,
-.003935,-.011546,
-.004216,-.011349,
-.004459,-.011106,
-.004656,-.010825,
-.004801,-.010514,
-.00489,-.010182,
-.00492,-.00984,
-.00492,.00984,
-.00489,.010182,
-.004801,.010514,
-.004656,.010825,
-.004459,.011106,
-.004216,.011349,
-.003935,.011546,
-.003624,.011691,
-.003292,.01178,
-.00295,.01181,
.00295,.01181,
.003292,.01178,
.003624,.011691,
.003935,.011546,
.004216,.011349,
.004459,.011106,
.004656,.010825,
.004801,.010514,
.00489,.010182,
.00492,.00984,
.00492,-.00984,
.00489,-.010182,
.004801,-.010514,
.004656,-.010825,
.004459,-.011106,
.004216,-.011349,
.003935,-.011546,
.003624,-.011691,
.003292,-.01178,
.00295,-.01181,
0.0*
%
%ADD59MACRO59*%
%AMMACRO63*
4,1,44,-.01574,.01771,
.01574,.01771,
.016424,.017656,
.017088,.017479,
.017711,.01719,
.018274,.016796,
.01876,.016311,
.019155,.015749,
.019446,.015127,
.019624,.014464,
.019685,.01378,
.01968,.01377,
.01968,-.01377,
.019626,-.014454,
.019449,-.015118,
.01916,-.015741,
.018766,-.016304,
.018281,-.01679,
.017719,-.017185,
.017097,-.017476,
.016434,-.017654,
.01575,-.017715,
.01574,-.01771,
-.01574,-.01771,
-.016424,-.017656,
-.017088,-.017479,
-.017711,-.01719,
-.018274,-.016796,
-.01876,-.016311,
-.019155,-.015749,
-.019446,-.015127,
-.019624,-.014464,
-.019685,-.01378,
-.01968,-.01377,
-.01968,.01377,
-.019626,.014454,
-.019449,.015118,
-.01916,.015741,
-.018766,.016304,
-.018281,.01679,
-.017719,.017185,
-.017097,.017476,
-.016434,.017654,
-.01575,.017715,
-.01574,.01771,
0.0*
%
%ADD63MACRO63*%
%AMMACRO64*
4,1,44,-.01181,-.00787,
-.01181,.00787,
-.011781,.008212,
-.011693,.008544,
-.011549,.008856,
-.011352,.009137,
-.01111,.009381,
-.010829,.009579,
-.010518,.009724,
-.010187,.009814,
-.009845,.009845,
-.00984,.00984,
.00984,.00984,
.010182,.009815,
.010514,.009726,
.010825,.009581,
.011106,.009384,
.011349,.009141,
.011546,.00886,
.011691,.008549,
.01178,.008217,
.01181,.007875,
.01181,.00787,
.01181,-.00787,
.011781,-.008212,
.011693,-.008544,
.011549,-.008856,
.011352,-.009137,
.01111,-.009381,
.010829,-.009579,
.010518,-.009724,
.010187,-.009814,
.009845,-.009845,
.00984,-.00984,
-.00984,-.00984,
-.010182,-.009815,
-.010514,-.009726,
-.010825,-.009581,
-.011106,-.009384,
-.011349,-.009141,
-.011546,-.00886,
-.011691,-.008549,
-.01178,-.008217,
-.01181,-.007875,
-.01181,-.00787,
0.0*
%
%ADD64MACRO64*%
%AMMACRO18*
4,1,44,-.0059,.01476,
.0059,.01476,
.006242,.014736,
.006574,.014648,
.006886,.014504,
.007167,.014307,
.007411,.014065,
.007609,.013784,
.007754,.013473,
.007844,.013142,
.007875,.0128,
.00787,.01279,
.00787,-.01279,
.007846,-.013132,
.007758,-.013464,
.007614,-.013776,
.007417,-.014057,
.007175,-.014301,
.006894,-.014499,
.006583,-.014644,
.006252,-.014734,
.00591,-.014765,
.0059,-.01476,
-.0059,-.01476,
-.006242,-.014736,
-.006574,-.014648,
-.006886,-.014504,
-.007167,-.014307,
-.007411,-.014065,
-.007609,-.013784,
-.007754,-.013473,
-.007844,-.013142,
-.007875,-.0128,
-.00787,-.01279,
-.00787,.01279,
-.007846,.013132,
-.007758,.013464,
-.007614,.013776,
-.007417,.014057,
-.007175,.014301,
-.006894,.014499,
-.006583,.014644,
-.006252,.014734,
-.00591,.014765,
-.0059,.01476,
0.0*
%
%ADD18MACRO18*%
%AMMACRO91*
4,1,44,-.00787,.01181,
.00787,.01181,
.008212,.011781,
.008544,.011693,
.008856,.011549,
.009137,.011352,
.009381,.01111,
.009579,.010829,
.009724,.010518,
.009814,.010187,
.009845,.009845,
.00984,.00984,
.00984,-.00984,
.009815,-.010182,
.009726,-.010514,
.009581,-.010825,
.009384,-.011106,
.009141,-.011349,
.00886,-.011546,
.008549,-.011691,
.008217,-.01178,
.007875,-.01181,
.00787,-.01181,
-.00787,-.01181,
-.008212,-.011781,
-.008544,-.011693,
-.008856,-.011549,
-.009137,-.011352,
-.009381,-.01111,
-.009579,-.010829,
-.009724,-.010518,
-.009814,-.010187,
-.009845,-.009845,
-.00984,-.00984,
-.00984,.00984,
-.009815,.010182,
-.009726,.010514,
-.009581,.010825,
-.009384,.011106,
-.009141,.011349,
-.00886,.011546,
-.008549,.011691,
-.008217,.01178,
-.007875,.01181,
-.00787,.01181,
0.0*
%
%ADD91MACRO91*%
%AMMACRO54*
4,1,44,-.0059,.01378,
.0059,.01378,
.006242,.013751,
.006574,.013663,
.006886,.013519,
.007167,.013322,
.007411,.01308,
.007609,.012799,
.007754,.012488,
.007844,.012157,
.007875,.011815,
.00787,.01181,
.00787,-.01181,
.007845,-.012152,
.007756,-.012484,
.007611,-.012795,
.007414,-.013076,
.007171,-.013319,
.00689,-.013516,
.006579,-.013661,
.006247,-.01375,
.005905,-.01378,
.0059,-.01378,
-.0059,-.01378,
-.006242,-.013751,
-.006574,-.013663,
-.006886,-.013519,
-.007167,-.013322,
-.007411,-.01308,
-.007609,-.012799,
-.007754,-.012488,
-.007844,-.012157,
-.007875,-.011815,
-.00787,-.01181,
-.00787,.01181,
-.007845,.012152,
-.007756,.012484,
-.007611,.012795,
-.007414,.013076,
-.007171,.013319,
-.00689,.013516,
-.006579,.013661,
-.006247,.01375,
-.005905,.01378,
-.0059,.01378,
0.0*
%
%ADD54MACRO54*%
%ADD99C,.04*%
%ADD100C,.005*%
%ADD101C,.004*%
G75*
%LPD*%
G75*
G36*
G01X-1244809Y971526D02*
Y976981D01*
X-1244813Y977021D01*
X-1244825Y977060D01*
X-1244844Y977095D01*
X-1244869Y977126D01*
X-1244900Y977152D01*
X-1244936Y977171D01*
X-1244974Y977182D01*
X-1245015Y977186D01*
X-1250470D01*
X-1250510Y977182D01*
X-1250549Y977171D01*
X-1250584Y977152D01*
X-1250615Y977126D01*
X-1250641Y977095D01*
X-1250660Y977060D01*
X-1250671Y977021D01*
X-1250675Y976981D01*
Y971526D01*
X-1250671Y971485D01*
X-1250660Y971447D01*
X-1250641Y971411D01*
X-1250615Y971380D01*
X-1250584Y971355D01*
X-1250549Y971336D01*
X-1250510Y971324D01*
X-1250470Y971320D01*
X-1245015D01*
X-1244974Y971324D01*
X-1244936Y971336D01*
X-1244900Y971355D01*
X-1244869Y971380D01*
X-1244844Y971411D01*
X-1244825Y971447D01*
X-1244813Y971485D01*
X-1244809Y971526D01*
G37*
G36*
G01X-1257329Y976981D02*
Y971526D01*
X-1257325Y971485D01*
X-1257313Y971447D01*
X-1257294Y971411D01*
X-1257269Y971380D01*
X-1257238Y971355D01*
X-1257202Y971336D01*
X-1257164Y971324D01*
X-1257123Y971320D01*
X-1251668D01*
X-1251628Y971324D01*
X-1251589Y971336D01*
X-1251554Y971355D01*
X-1251523Y971380D01*
X-1251497Y971411D01*
X-1251478Y971447D01*
X-1251467Y971485D01*
X-1251463Y971526D01*
Y976981D01*
X-1251467Y977021D01*
X-1251478Y977060D01*
X-1251497Y977095D01*
X-1251523Y977126D01*
X-1251554Y977152D01*
X-1251589Y977171D01*
X-1251628Y977182D01*
X-1251668Y977186D01*
X-1257123D01*
X-1257164Y977182D01*
X-1257202Y977171D01*
X-1257238Y977152D01*
X-1257269Y977126D01*
X-1257294Y977095D01*
X-1257313Y977060D01*
X-1257325Y977021D01*
X-1257329Y976981D01*
G37*
G36*
G01Y983634D02*
Y978179D01*
X-1257325Y978139D01*
X-1257313Y978100D01*
X-1257294Y978065D01*
X-1257269Y978034D01*
X-1257238Y978008D01*
X-1257202Y977989D01*
X-1257164Y977978D01*
X-1257123Y977974D01*
X-1251668D01*
X-1251628Y977978D01*
X-1251589Y977989D01*
X-1251554Y978008D01*
X-1251523Y978034D01*
X-1251497Y978065D01*
X-1251478Y978100D01*
X-1251467Y978139D01*
X-1251463Y978179D01*
Y983634D01*
X-1251467Y983675D01*
X-1251478Y983713D01*
X-1251497Y983749D01*
X-1251523Y983780D01*
X-1251554Y983805D01*
X-1251589Y983824D01*
X-1251628Y983836D01*
X-1251668Y983840D01*
X-1257123D01*
X-1257164Y983836D01*
X-1257202Y983824D01*
X-1257238Y983805D01*
X-1257269Y983780D01*
X-1257294Y983749D01*
X-1257313Y983713D01*
X-1257325Y983675D01*
X-1257329Y983634D01*
G37*
G36*
G01X-1244809Y978179D02*
Y983634D01*
X-1244813Y983675D01*
X-1244825Y983713D01*
X-1244844Y983749D01*
X-1244869Y983780D01*
X-1244900Y983805D01*
X-1244936Y983824D01*
X-1244974Y983836D01*
X-1245015Y983840D01*
X-1250470D01*
X-1250510Y983836D01*
X-1250549Y983824D01*
X-1250584Y983805D01*
X-1250615Y983780D01*
X-1250641Y983749D01*
X-1250660Y983713D01*
X-1250671Y983675D01*
X-1250675Y983634D01*
Y978179D01*
X-1250671Y978139D01*
X-1250660Y978100D01*
X-1250641Y978065D01*
X-1250615Y978034D01*
X-1250584Y978008D01*
X-1250549Y977989D01*
X-1250510Y977978D01*
X-1250470Y977974D01*
X-1245015D01*
X-1244974Y977978D01*
X-1244936Y977989D01*
X-1244900Y978008D01*
X-1244869Y978034D01*
X-1244844Y978065D01*
X-1244825Y978100D01*
X-1244813Y978139D01*
X-1244809Y978179D01*
G37*
G54D100*
G01X-990330Y922200D02*
X-1295300D01*
G02X-1300300Y927200I0J5000D01*
G01Y1232170D01*
G01D02*
G02X-1295300Y1237170I5000J0D01*
G01D02*
X-990330D01*
G01X-985330Y927200D02*
G02X-990330Y922200I-5000J0D01*
G01X-985330Y1232170D02*
Y927200D01*
G01X-990330Y1237170D02*
G02X-985330Y1232170I0J-5000D01*
G54D101*
G01X-990330Y1237170D02*
X-1295300D01*
G03X-1300300Y1232170I0J-5000D01*
G01Y927200D01*
G03X-1295300Y922200I5000J0D01*
G01X-990330D01*
G03X-985330Y927200I0J5000D01*
G01Y1232170D01*
G03X-990330Y1237170I-5000J0D01*
G54D10*
X-1294629Y1041386D03*
X-1294533Y1037756D03*
X-1294537Y1034056D03*
X-1294625Y1045086D03*
X-1290987Y1041386D03*
X-1290891Y1037756D03*
X-1290895Y1034056D03*
X-1290983Y1045086D03*
X-1271085Y982134D03*
X-1271189Y978434D03*
X-1271193Y974734D03*
X-1276421Y1228270D03*
X-1272779D03*
X-1267443Y982134D03*
X-1267547Y978434D03*
X-1267551Y974734D03*
X-1234629Y1091204D03*
X-1245869Y1079956D03*
X-1242227D03*
X-1239693Y1117756D03*
X-1236051D03*
X-1230987Y1091204D03*
X-1213301Y1000786D03*
X-1215341Y1078804D03*
X-1211699D03*
X-1213281Y1200104D03*
X-1209659Y1000786D03*
X-1209639Y1200104D03*
X-1154221Y930700D03*
X-1155821Y979800D03*
X-1152179D03*
X-1150579Y930700D03*
X-1109485Y1107150D03*
X-1105843D03*
X-1109485Y1112136D03*
X-1105843D03*
X-1105621Y1125700D03*
X-1112942Y1184000D03*
X-1109300D03*
X-1112942Y1187800D03*
X-1109300D03*
X-1102321Y1030100D03*
X-1098679D03*
X-1102181Y1037886D03*
X-1098539D03*
X-1102185Y1034086D03*
X-1098543D03*
X-1094483Y1090056D03*
X-1094265Y1114550D03*
X-1094321Y1110800D03*
X-1101979Y1125700D03*
X-1090841Y1090056D03*
X-1090623Y1114550D03*
X-1090679Y1110800D03*
X-1090329Y1121914D03*
X-1086687D03*
X-1081589Y1156286D03*
X-1084221Y1179200D03*
X-1080579D03*
X-1084221Y1183200D03*
X-1080579D03*
X-1083800Y1197530D03*
X-1080158D03*
X-1083800Y1201194D03*
X-1080158D03*
X-1083851Y1204900D03*
X-1080209D03*
X-1083851Y1224302D03*
X-1080209D03*
X-1077947Y1156286D03*
X-1062968Y988858D03*
X-1059326D03*
X-1062968Y992620D03*
X-1059326D03*
X-1062968Y984958D03*
X-1059326D03*
X-1060521Y1175900D03*
X-1056879D03*
X-1044247Y1152272D03*
X-1040605D03*
X-1041821Y1172064D03*
X-1038179D03*
X-1016687Y1013761D03*
X-1013045D03*
X-1009565D03*
X-1005923D03*
G54D20*
X-1260518Y970690D03*
Y982501D03*
Y980533D03*
Y978564D03*
Y976596D03*
Y974627D03*
Y972659D03*
Y984470D03*
X-1241620Y970690D03*
Y972659D03*
Y974627D03*
Y976596D03*
Y978564D03*
Y980533D03*
Y982501D03*
Y984470D03*
G54D11*
X-1293958Y1162204D03*
X-1287658D03*
X-1087727Y1041975D03*
X-1081427D03*
X-1082848Y1162400D03*
Y1166585D03*
X-1075947Y1048195D03*
X-1069647D03*
X-1076000Y1051995D03*
X-1069700D03*
X-1076548Y1162400D03*
Y1166585D03*
G54D12*
X-1291300Y958000D03*
X-1285300D03*
X-1287300Y1223570D03*
X-1281300D03*
X-1212550Y995934D03*
X-1206550D03*
X-1051030Y1147270D03*
X-1045030D03*
X-1042930Y1158970D03*
X-1036930D03*
G54D30*
X-1237700Y1093967D03*
Y1095973D03*
X-1201016Y971500D03*
Y973506D03*
X-1207386Y1089679D03*
Y1091685D03*
X-1191198Y970300D03*
X-1193166D03*
X-1199048Y971500D03*
X-1191198Y972306D03*
X-1193166D03*
X-1195148Y978838D03*
Y980844D03*
X-1197116Y978838D03*
Y980844D03*
X-1199048Y973506D03*
X-1192620Y1089632D03*
Y1091638D03*
X-1164900Y1202097D03*
Y1204103D03*
X-1162127Y1202059D03*
Y1204065D03*
X-1114844Y1131897D03*
Y1133903D03*
X-1110315Y1163397D03*
Y1165403D03*
X-1098985Y1171697D03*
Y1173703D03*
Y1163397D03*
Y1165403D03*
X-1045400Y1027512D03*
Y1029518D03*
X-1038052Y1099800D03*
Y1102000D03*
X-1035309Y1092300D03*
Y1094500D03*
Y1099897D03*
Y1101903D03*
X-1022864Y1109802D03*
Y1111808D03*
X-1026757Y1104643D03*
Y1106649D03*
X-1029452Y1104624D03*
Y1106630D03*
X-1019201Y1086197D03*
Y1088203D03*
Y1109770D03*
Y1111776D03*
X-1006864Y1120937D03*
Y1122943D03*
G54D21*
X-1260800Y1009200D03*
X-1267800D03*
X-1079856Y1072180D03*
X-1072856D03*
X-1022280Y1158578D03*
X-1029280D03*
G54D31*
X-1229562Y993534D03*
X-1222562D03*
X-1209270Y1041834D03*
X-1202270D03*
X-1209270Y1034234D03*
X-1202270D03*
G54D22*
X-1259820Y999734D03*
X-1268820D03*
X-1231480Y981966D03*
X-1222480D03*
X-1214580Y1024666D03*
X-1205580D03*
G54D40*
X-1189547Y1056394D03*
Y1066594D03*
X-1182047Y1056394D03*
X-1185797D03*
X-1182047Y1066594D03*
G54D13*
X-1288103Y962200D03*
X-1286097D03*
X-1284903Y1219170D03*
X-1282897D03*
X-1245103Y1076670D03*
X-1243097D03*
X-1195839Y1066434D03*
X-1193833D03*
X-1153193Y1124664D03*
X-1157603Y1138400D03*
X-1155597D03*
X-1153193Y1134630D03*
Y1131630D03*
Y1128530D03*
X-1157603Y1149600D03*
X-1155597D03*
X-1163295Y1139800D03*
X-1161289D03*
X-1157603Y1141200D03*
X-1155597D03*
X-1163295Y1142600D03*
X-1161289D03*
X-1157603Y1144000D03*
X-1155597D03*
X-1163295Y1145400D03*
X-1161289D03*
X-1163295Y1148200D03*
X-1161289D03*
X-1157603Y1146800D03*
X-1155597D03*
X-1163295Y1151000D03*
X-1161289D03*
X-1157603Y1152400D03*
X-1155597D03*
X-1142599Y1124664D03*
X-1140593D03*
X-1151187D03*
Y1134630D03*
X-1142599Y1131530D03*
X-1140593D03*
X-1151187Y1131630D03*
Y1128530D03*
X-1142599Y1134610D03*
X-1140593D03*
X-1142599Y1128530D03*
X-1140593D03*
X-1139104Y1160161D03*
X-1137098D03*
X-1128603Y1156100D03*
X-1133103Y1154456D03*
X-1131097D03*
X-1128603Y1153056D03*
X-1126597Y1156100D03*
Y1153056D03*
X-1104203Y1129000D03*
Y1131700D03*
X-1102197Y1129000D03*
Y1131700D03*
X-1086701Y1156786D03*
X-1084695D03*
X-1044715Y1127356D03*
X-1046429Y1143056D03*
X-1044423D03*
X-1037412Y1089600D03*
X-1035406D03*
X-1037412Y1097099D03*
X-1035406D03*
X-1037412Y1104604D03*
X-1035406D03*
X-1042709Y1127356D03*
X-1042503Y1175596D03*
X-1040497D03*
X-1026060Y1089600D03*
X-1024054D03*
X-1017515Y1156000D03*
X-1015509D03*
G54D32*
X-1228900Y1000900D03*
Y1007900D03*
G54D14*
X-1293044Y1091127D03*
Y1094769D03*
Y1131701D03*
Y1128059D03*
X-1287984Y1170213D03*
Y1166571D03*
X-1279914Y1053403D03*
X-1274114D03*
X-1279914Y1057045D03*
X-1274114D03*
X-1272700Y1217242D03*
Y1213600D03*
X-1272750Y1220813D03*
X-1276450D03*
X-1272750Y1224455D03*
X-1276450D03*
X-1264914Y1053355D03*
Y1056997D03*
X-1268900Y1217242D03*
Y1213600D03*
X-1218714Y1053509D03*
X-1211200Y1051904D03*
Y1048262D03*
X-1214900Y1051900D03*
Y1048258D03*
X-1218714Y1057151D03*
X-1212414Y1183641D03*
Y1187283D03*
X-1201914Y1091179D03*
Y1087537D03*
X-1204914Y1183641D03*
X-1208614D03*
X-1204914Y1187283D03*
X-1208614D03*
X-1179400Y1085721D03*
Y1082079D03*
X-1173286Y1040029D03*
Y1043671D03*
X-1164684Y1067075D03*
Y1063433D03*
X-1168384Y1067043D03*
Y1063401D03*
X-1173014Y1067041D03*
Y1063399D03*
X-1144500Y1159696D03*
Y1156054D03*
X-1131261Y1192742D03*
Y1189100D03*
X-1134933Y1192817D03*
Y1189175D03*
X-1138673Y1197859D03*
Y1194217D03*
X-1127950Y1203483D03*
Y1199841D03*
X-1134950Y1226355D03*
Y1222713D03*
X-1119793Y1203483D03*
Y1199841D03*
X-1123913Y1203483D03*
Y1199841D03*
X-1108196Y1089967D03*
Y1086325D03*
X-1112950Y1226355D03*
Y1222713D03*
X-1102914Y1135443D03*
Y1139085D03*
X-1090136Y1065285D03*
Y1061643D03*
X-1086144Y1065285D03*
Y1061643D03*
X-1089800Y1156342D03*
Y1152700D03*
X-1070714Y1112019D03*
X-1075714Y1124511D03*
Y1120869D03*
X-1071914Y1124453D03*
Y1120811D03*
X-1075714Y1124511D03*
Y1120869D03*
X-1070714Y1115661D03*
X-1074266Y1155821D03*
Y1152179D03*
X-1047967Y1013935D03*
Y1010293D03*
X-1051900Y1029921D03*
Y1026279D03*
X-1042801Y1013935D03*
Y1010293D03*
X-1040996Y1122007D03*
Y1118365D03*
X-1003344Y1130775D03*
Y1127133D03*
X-1004384Y1155289D03*
Y1151647D03*
G54D41*
X-1184403Y970208D03*
X-1182041D03*
Y968240D03*
X-1184403D03*
G54D50*
X-1141666Y1221034D03*
X-1139048Y1228034D03*
X-1144166D03*
X-1119766Y1221034D03*
X-1117148Y1228034D03*
X-1122266D03*
G54D23*
X-1264766Y1072483D03*
Y1070477D03*
X-1236500Y1102173D03*
Y1100167D03*
X-1239200Y1102173D03*
Y1100167D03*
X-1217214Y995303D03*
Y997309D03*
X-1189380Y1076756D03*
Y1074750D03*
X-1195280Y1089661D03*
Y1091667D03*
X-1185780Y1076774D03*
Y1074768D03*
X-1180914Y1166949D03*
Y1164943D03*
X-1178314Y1166949D03*
Y1164943D03*
X-1175714Y1166949D03*
Y1164943D03*
X-1186114Y1166949D03*
Y1164943D03*
X-1183514Y1166949D03*
Y1164943D03*
X-1173114Y1166949D03*
Y1164943D03*
X-1143469Y1190887D03*
Y1188881D03*
X-1142353Y1203471D03*
Y1201465D03*
X-1128000Y1195784D03*
Y1193778D03*
X-1119800Y1195684D03*
Y1193678D03*
X-1123960Y1195784D03*
Y1193778D03*
X-1110315Y1173703D03*
Y1171697D03*
X-1085814Y1154207D03*
Y1152201D03*
X-1071914Y1123605D03*
Y1121599D03*
X-1038052Y1094500D03*
Y1092300D03*
X-1004900Y1160683D03*
Y1158677D03*
G54D42*
X-1166783Y1031745D03*
Y1043745D03*
G54D60*
X-1102174Y1162431D03*
Y1166369D03*
Y1170731D03*
Y1174669D03*
G54D33*
X-1214690Y979187D03*
X-1210950D03*
Y988187D03*
X-1214690D03*
X-1207210Y979187D03*
Y988187D03*
G54D51*
X-1126650Y1212196D03*
X-1132650D03*
X-1009500Y1160300D03*
X-1015500D03*
G54D24*
X-1266507Y1170934D03*
X-1264539D03*
X-1262570D03*
X-1260602D03*
X-1266507Y1172902D03*
X-1264539D03*
X-1262570D03*
X-1260602D03*
X-1266507Y1174871D03*
X-1264539D03*
X-1262570D03*
X-1260602D03*
X-1266507Y1176839D03*
X-1264539D03*
X-1262570D03*
X-1260602D03*
X-1266507Y1178808D03*
X-1264539D03*
X-1262570D03*
X-1266507Y1180776D03*
X-1264539D03*
X-1262570D03*
X-1266507Y1182745D03*
X-1264539D03*
X-1262570D03*
X-1266507Y1184713D03*
X-1264539D03*
X-1262570D03*
X-1266507Y1186682D03*
X-1264539D03*
X-1262570D03*
X-1266507Y1188650D03*
X-1264539D03*
X-1262570D03*
X-1266507Y1190619D03*
X-1264539D03*
X-1262570D03*
X-1266507Y1192587D03*
X-1264539D03*
X-1262570D03*
X-1260602D03*
X-1266507Y1194556D03*
X-1264539D03*
X-1262570D03*
X-1260602D03*
X-1266507Y1196524D03*
X-1264539D03*
X-1262570D03*
X-1260602D03*
X-1258633Y1170934D03*
X-1256665D03*
X-1254696D03*
X-1252728D03*
X-1250759D03*
X-1248791D03*
X-1258633Y1172902D03*
X-1256665D03*
X-1254696D03*
X-1252728D03*
X-1250759D03*
X-1248791D03*
X-1258633Y1174871D03*
X-1256665D03*
X-1254696D03*
X-1252728D03*
X-1250759D03*
X-1248791D03*
X-1258633Y1178808D03*
X-1256665D03*
X-1254696D03*
X-1252728D03*
X-1250759D03*
X-1248791D03*
X-1258633Y1180776D03*
X-1248791D03*
X-1258633Y1182745D03*
X-1248791D03*
X-1258633Y1184713D03*
X-1248791D03*
X-1258633Y1186682D03*
X-1248791D03*
X-1258633Y1188650D03*
X-1256665D03*
X-1254696D03*
X-1252728D03*
X-1250759D03*
X-1248791D03*
X-1258633Y1192587D03*
X-1256665D03*
X-1254696D03*
X-1252728D03*
X-1250759D03*
X-1248791D03*
X-1258633Y1194556D03*
X-1256665D03*
X-1254696D03*
X-1252728D03*
X-1250759D03*
X-1248791D03*
X-1258633Y1196524D03*
X-1256665D03*
X-1254696D03*
X-1252728D03*
X-1250759D03*
X-1248791D03*
X-1246822Y1170934D03*
X-1244854D03*
X-1242885D03*
X-1240917D03*
X-1246822Y1172902D03*
X-1244854D03*
X-1242885D03*
X-1240917D03*
X-1246822Y1174871D03*
X-1244854D03*
X-1242885D03*
X-1240917D03*
X-1244854Y1176839D03*
X-1242885D03*
X-1240917D03*
X-1244854Y1178808D03*
X-1242885D03*
X-1240917D03*
X-1244854Y1180776D03*
X-1242885D03*
X-1240917D03*
X-1244854Y1182745D03*
X-1242885D03*
X-1240917D03*
X-1244854Y1184713D03*
X-1242885D03*
X-1240917D03*
X-1244854Y1186682D03*
X-1242885D03*
X-1240917D03*
X-1244854Y1188650D03*
X-1242885D03*
X-1240917D03*
X-1244854Y1190619D03*
X-1242885D03*
X-1240917D03*
X-1246822Y1192587D03*
X-1244854D03*
X-1242885D03*
X-1240917D03*
X-1246822Y1194556D03*
X-1244854D03*
X-1242885D03*
X-1240917D03*
X-1246822Y1196524D03*
X-1244854D03*
X-1242885D03*
X-1240917D03*
X-1223272Y1102998D03*
Y1104966D03*
Y1106935D03*
Y1108904D03*
Y1110872D03*
Y1112840D03*
Y1114809D03*
Y1116778D03*
Y1118746D03*
Y1120714D03*
Y1122683D03*
Y1124652D03*
Y1126620D03*
Y1128588D03*
Y1130557D03*
Y1132526D03*
Y1134494D03*
Y1136462D03*
Y1138431D03*
Y1140400D03*
Y1142368D03*
Y1144336D03*
Y1146305D03*
Y1148274D03*
Y1150242D03*
X-1221304Y1102998D03*
X-1219335D03*
X-1217366D03*
X-1215398D03*
X-1213430D03*
X-1211461D03*
X-1221304Y1104966D03*
X-1219335D03*
X-1217366D03*
X-1215398D03*
X-1213430D03*
X-1211461D03*
X-1221304Y1106935D03*
X-1215398D03*
X-1213430D03*
X-1221304Y1108904D03*
X-1217366D03*
X-1213430D03*
X-1221304Y1110872D03*
X-1219335D03*
X-1215398D03*
X-1211461D03*
X-1221304Y1112840D03*
X-1219335D03*
X-1217366D03*
X-1213430D03*
X-1221304Y1114809D03*
X-1215398D03*
X-1211461D03*
X-1221304Y1116778D03*
X-1215398D03*
X-1213430D03*
X-1221304Y1118746D03*
X-1219335D03*
X-1217366D03*
X-1211461D03*
X-1221304Y1120714D03*
X-1219335D03*
X-1217366D03*
X-1211461D03*
X-1221304Y1122683D03*
X-1215398D03*
X-1213430D03*
X-1221304Y1124652D03*
X-1217366D03*
X-1215398D03*
X-1211461D03*
X-1221304Y1126620D03*
X-1219335D03*
X-1213430D03*
X-1221304Y1128588D03*
X-1217366D03*
X-1215398D03*
X-1211461D03*
X-1221304Y1130557D03*
X-1219335D03*
X-1215398D03*
X-1213430D03*
X-1221304Y1132526D03*
X-1217366D03*
X-1211461D03*
X-1221304Y1134494D03*
X-1219335D03*
X-1217366D03*
X-1211461D03*
X-1221304Y1136462D03*
X-1215398D03*
X-1213430D03*
X-1221304Y1138431D03*
X-1215398D03*
X-1211461D03*
X-1221304Y1140400D03*
X-1219335D03*
X-1217366D03*
X-1213430D03*
X-1221304Y1142368D03*
X-1219335D03*
X-1215398D03*
X-1211461D03*
X-1221304Y1144336D03*
X-1217366D03*
X-1213430D03*
X-1221304Y1146305D03*
X-1215398D03*
X-1213430D03*
X-1221304Y1148274D03*
X-1219335D03*
X-1217366D03*
X-1215398D03*
X-1213430D03*
X-1211461D03*
X-1221304Y1150242D03*
X-1219335D03*
X-1217366D03*
X-1215398D03*
X-1213430D03*
X-1211461D03*
X-1209492Y1102998D03*
X-1207524D03*
X-1205556D03*
X-1203587D03*
X-1201618D03*
X-1199650D03*
X-1209492Y1104966D03*
X-1207524D03*
X-1205556D03*
X-1203587D03*
X-1201618D03*
X-1199650D03*
X-1207524Y1106935D03*
X-1203587D03*
X-1199650D03*
X-1207524Y1108904D03*
X-1205556D03*
X-1201618D03*
X-1209492Y1110872D03*
X-1203587D03*
X-1201618D03*
X-1209492Y1112840D03*
X-1203587D03*
X-1199650D03*
X-1207524Y1114809D03*
X-1205556D03*
X-1201618D03*
X-1199650D03*
X-1209492Y1116778D03*
X-1207524D03*
X-1205556D03*
X-1203587D03*
X-1199650D03*
X-1209492Y1118746D03*
X-1203587D03*
X-1201618D03*
X-1199650D03*
X-1207524Y1120714D03*
X-1205556D03*
X-1199650D03*
X-1209492Y1122683D03*
X-1203587D03*
X-1201618D03*
X-1209492Y1124652D03*
X-1207524D03*
X-1205556D03*
X-1201618D03*
X-1199650D03*
X-1209492Y1126620D03*
X-1203587D03*
X-1201618D03*
X-1199650D03*
X-1207524Y1128588D03*
X-1205556D03*
X-1199650D03*
X-1209492Y1130557D03*
X-1203587D03*
X-1201618D03*
X-1199650D03*
X-1209492Y1132526D03*
X-1207524D03*
X-1205556D03*
X-1199650D03*
X-1209492Y1134494D03*
X-1203587D03*
X-1201618D03*
X-1209492Y1136462D03*
X-1207524D03*
X-1205556D03*
X-1203587D03*
X-1199650D03*
X-1207524Y1138431D03*
X-1205556D03*
X-1201618D03*
X-1199650D03*
X-1209492Y1140400D03*
X-1203587D03*
X-1199650D03*
X-1209492Y1142368D03*
X-1203587D03*
X-1201618D03*
X-1207524Y1144336D03*
X-1205556D03*
X-1201618D03*
X-1207524Y1146305D03*
X-1203587D03*
X-1199650D03*
X-1209492Y1148274D03*
X-1207524D03*
X-1205556D03*
X-1203587D03*
X-1201618D03*
X-1199650D03*
X-1209492Y1150242D03*
X-1207524D03*
X-1205556D03*
X-1203587D03*
X-1201618D03*
X-1199650D03*
X-1197682Y1102998D03*
X-1195713D03*
X-1193744D03*
X-1191776D03*
X-1189808D03*
X-1187839D03*
X-1197682Y1104966D03*
X-1195713D03*
X-1193744D03*
X-1191776D03*
X-1189808D03*
X-1187839D03*
X-1195713Y1106935D03*
X-1191776D03*
X-1197682Y1108904D03*
X-1193744D03*
X-1191776D03*
X-1197682Y1110872D03*
X-1195713D03*
X-1189808D03*
X-1187839D03*
X-1195713Y1112840D03*
X-1189808D03*
X-1197682Y1114809D03*
X-1193744D03*
X-1191776D03*
X-1187839D03*
X-1195713Y1116778D03*
X-1193744D03*
X-1191776D03*
X-1189808D03*
X-1197682Y1118746D03*
X-1189808D03*
X-1187839D03*
X-1195713Y1120714D03*
X-1193744D03*
X-1191776D03*
X-1189808D03*
X-1187839D03*
X-1197682Y1122683D03*
X-1195713D03*
X-1189808D03*
X-1193744Y1124652D03*
X-1191776D03*
X-1189808D03*
X-1187839D03*
X-1197682Y1126620D03*
X-1195713D03*
X-1189808D03*
X-1193744Y1128588D03*
X-1191776D03*
X-1189808D03*
X-1187839D03*
X-1197682Y1130557D03*
X-1195713D03*
X-1189808D03*
X-1197682Y1132526D03*
X-1193744D03*
X-1191776D03*
X-1189808D03*
X-1187839D03*
X-1197682Y1134494D03*
X-1195713D03*
X-1189808D03*
X-1187839D03*
X-1195713Y1136462D03*
X-1193744D03*
X-1191776D03*
X-1189808D03*
X-1197682Y1138431D03*
X-1193744D03*
X-1191776D03*
X-1187839D03*
X-1195713Y1140400D03*
X-1189808D03*
X-1197682Y1142368D03*
X-1195713D03*
X-1189808D03*
X-1187839D03*
X-1197682Y1144336D03*
X-1193744D03*
X-1191776D03*
X-1195713Y1146305D03*
X-1191776D03*
X-1197682Y1148274D03*
X-1195713D03*
X-1193744D03*
X-1191776D03*
X-1189808D03*
X-1187839D03*
X-1197682Y1150242D03*
X-1195713D03*
X-1193744D03*
X-1191776D03*
X-1189808D03*
X-1187839D03*
X-1185870Y1102998D03*
X-1183902D03*
X-1181934D03*
X-1179965D03*
X-1177996D03*
X-1176028D03*
X-1185870Y1104966D03*
X-1183902D03*
X-1181934D03*
X-1179965D03*
X-1177996D03*
X-1176028D03*
X-1185870Y1106935D03*
X-1183902D03*
X-1177996D03*
X-1176028D03*
X-1185870Y1108904D03*
X-1181934D03*
X-1177996D03*
X-1176028D03*
X-1183902Y1110872D03*
X-1179965D03*
X-1177996D03*
X-1176028D03*
X-1185870Y1112840D03*
X-1181934D03*
X-1179965D03*
X-1177996D03*
X-1176028D03*
X-1183902Y1114809D03*
X-1177996D03*
X-1176028D03*
X-1185870Y1116778D03*
X-1183902D03*
X-1177996D03*
X-1176028D03*
X-1181934Y1118746D03*
X-1179965D03*
X-1177996D03*
X-1176028D03*
X-1181934Y1120714D03*
X-1177996D03*
X-1176028D03*
X-1185870Y1122683D03*
X-1183902D03*
X-1179965D03*
X-1177996D03*
X-1176028D03*
X-1183902Y1124652D03*
X-1181934D03*
X-1177996D03*
X-1176028D03*
X-1185870Y1126620D03*
X-1179965D03*
X-1177996D03*
X-1176028D03*
X-1183902Y1128588D03*
X-1181934D03*
X-1177996D03*
X-1176028D03*
X-1185870Y1130557D03*
X-1183902D03*
X-1179965D03*
X-1177996D03*
X-1176028D03*
X-1181934Y1132526D03*
X-1177996D03*
X-1176028D03*
X-1181934Y1134494D03*
X-1179965D03*
X-1177996D03*
X-1176028D03*
X-1185870Y1136462D03*
X-1183902D03*
X-1177996D03*
X-1176028D03*
X-1183902Y1138431D03*
X-1177996D03*
X-1176028D03*
X-1185870Y1140400D03*
X-1181934D03*
X-1179965D03*
X-1177996D03*
X-1176028D03*
X-1183902Y1142368D03*
X-1179965D03*
X-1177996D03*
X-1176028D03*
X-1185870Y1144336D03*
X-1181934D03*
X-1177996D03*
X-1176028D03*
X-1185870Y1146305D03*
X-1183902D03*
X-1177996D03*
X-1176028D03*
X-1185870Y1148274D03*
X-1183902D03*
X-1181934D03*
X-1179965D03*
X-1177996D03*
X-1176028D03*
X-1185870Y1150242D03*
X-1183902D03*
X-1181934D03*
X-1179965D03*
X-1177996D03*
X-1176028D03*
G54D15*
X-1293044Y1098435D03*
Y1102077D03*
Y1105639D03*
Y1109281D03*
X-1291756Y1166571D03*
Y1170213D03*
X-1279886Y1068401D03*
Y1072043D03*
X-1269586Y1053403D03*
Y1057045D03*
Y1068437D03*
Y1072079D03*
X-1244600Y1093249D03*
Y1096891D03*
X-1240900Y1093249D03*
Y1096891D03*
X-1245716Y1113751D03*
Y1106499D03*
Y1110141D03*
Y1117393D03*
X-1222486Y1044023D03*
Y1047665D03*
X-1218686Y1044019D03*
Y1047661D03*
X-1222486Y1053481D03*
Y1057123D03*
X-1211650Y1087585D03*
Y1091227D03*
X-1176686Y1063379D03*
Y1067021D03*
X-1173286Y1032637D03*
Y1036279D03*
X-1142353Y1194241D03*
Y1197883D03*
X-1148650Y1222713D03*
Y1226355D03*
X-1126756Y1222713D03*
Y1226355D03*
X-1104464Y1086285D03*
Y1089927D03*
X-1093950Y1118135D03*
Y1121777D03*
X-1101314Y1118199D03*
Y1121841D03*
X-1097614Y1118195D03*
Y1121837D03*
X-1087008Y1110979D03*
Y1114621D03*
X-1079586Y1120819D03*
Y1124461D03*
X-1073334Y1133507D03*
Y1137149D03*
X-1065420Y1048333D03*
Y1051975D03*
X-1049800Y1171779D03*
Y1175421D03*
X-1040964Y1111137D03*
Y1114779D03*
X-1034420Y1171997D03*
Y1175639D03*
X-1019700Y1222679D03*
Y1226321D03*
X-1003344Y1119857D03*
Y1123499D03*
G54D61*
X-1095065Y1168585D03*
Y1172700D03*
Y1164400D03*
Y1176500D03*
X-1088765Y1168585D03*
Y1172700D03*
Y1164400D03*
Y1176500D03*
G54D16*
X-1283066Y1162040D03*
Y1168340D03*
Y1172023D03*
Y1178323D03*
X-1093000Y1029650D03*
Y1035950D03*
X-1085100Y1029650D03*
X-1089000D03*
X-1085100Y1035950D03*
X-1089000D03*
G54D25*
X-1251069Y977580D03*
G54D70*
X-1059700Y931800D03*
Y940458D03*
X-1048600Y931800D03*
Y940458D03*
G54D43*
X-1164153Y1186700D03*
Y1193000D03*
G54D34*
X-1218835Y1034600D03*
X-1216866D03*
X-1214897D03*
G54D52*
X-1107056Y1164400D03*
Y1172700D03*
G54D62*
X-1082115Y1111385D03*
Y1116207D03*
X-1075717Y1111385D03*
Y1116207D03*
G54D17*
X-1288187Y1173884D03*
X-1291829D03*
X-1288187Y1177720D03*
X-1291829D03*
X-1271121Y990000D03*
X-1267479D03*
X-1242227Y1083684D03*
X-1245869D03*
X-1234695Y1128784D03*
X-1238337D03*
X-1223775Y1091236D03*
X-1227417D03*
X-1210713Y1082584D03*
X-1213271Y1196336D03*
X-1212521Y1191100D03*
X-1213315Y1205284D03*
X-1203879Y1048100D03*
X-1207521D03*
X-1203879Y1051800D03*
X-1207521D03*
X-1204155Y1078736D03*
X-1207797D03*
X-1207071Y1082584D03*
X-1209629Y1196336D03*
X-1208879Y1191100D03*
X-1209673Y1205284D03*
X-1193179Y930800D03*
X-1196821D03*
X-1194703Y1056314D03*
X-1198345D03*
X-1194699Y1060114D03*
X-1198341D03*
X-1187853Y1197536D03*
X-1187857Y1201384D03*
X-1187797Y1205084D03*
X-1184211Y1197536D03*
X-1184215Y1201384D03*
X-1184155Y1205084D03*
X-1157149Y1091000D03*
X-1160791D03*
X-1153579Y1098995D03*
X-1157221D03*
X-1110443Y1101804D03*
X-1114085D03*
X-1105442Y1184000D03*
Y1187800D03*
X-1098727Y1022514D03*
X-1102369D03*
X-1094491Y1086336D03*
X-1101800Y1184000D03*
Y1187800D03*
X-1090849Y1086336D03*
X-1086687Y1118214D03*
X-1090329D03*
X-1081621Y1152500D03*
X-1080209Y1208830D03*
X-1083851D03*
X-1080209Y1220516D03*
X-1083851D03*
X-1080209Y1216634D03*
X-1083851D03*
X-1080209Y1212752D03*
X-1083851D03*
X-1080209Y1228180D03*
X-1083851D03*
X-1070807Y1129914D03*
X-1074449D03*
X-1077979Y1152500D03*
X-1061821Y1074096D03*
X-1065463D03*
X-1061879Y1077774D03*
X-1065521D03*
X-1061879Y1081504D03*
X-1065521D03*
X-1061879Y1085276D03*
X-1065521D03*
X-1061879Y1101428D03*
X-1065521D03*
X-1061879Y1097714D03*
X-1065521D03*
X-1061879Y1105204D03*
X-1065521D03*
X-1047243Y1132728D03*
X-1047247Y1137684D03*
X-1047801Y1152336D03*
X-1051443D03*
X-1036579Y1020384D03*
X-1040221D03*
X-1043601Y1132728D03*
X-1043605Y1137684D03*
X-1026579Y1028800D03*
X-1030221D03*
X-1008253Y1038150D03*
X-1011895D03*
X-1008253Y1034220D03*
X-1011895D03*
X-1016179Y1187700D03*
X-1019821D03*
X-998400Y1004350D03*
X-1002042D03*
X-998500Y1007514D03*
X-1002142D03*
X-998500Y1010678D03*
X-1002142D03*
X-998500Y1013842D03*
X-1002142D03*
X-998983Y1118236D03*
Y1133436D03*
X-995341Y1118236D03*
Y1133436D03*
G54D35*
X-1214897Y1038931D03*
X-1216866D03*
X-1218835D03*
X-1095695Y1128700D03*
X-1093725D03*
X-1091755D03*
X-1089785D03*
X-1087815D03*
X-1085845D03*
X-1083875D03*
X-1081905D03*
G54D53*
X-1100437Y1006865D03*
X-1098469D03*
X-1094531D03*
X-1092563D03*
Y1010409D03*
X-1094531D03*
X-1098469D03*
X-1100437D03*
X-1086437Y1006865D03*
X-1084469D03*
X-1080531D03*
Y1010409D03*
X-1084469D03*
X-1086437D03*
X-1078563Y1006865D03*
Y1010409D03*
G54D71*
X-1059310Y1191843D03*
Y1197354D03*
X-1064821Y1191843D03*
Y1197354D03*
X-1059310Y1202866D03*
X-1064821D03*
X-1059310Y1211134D03*
X-1064821D03*
Y1222157D03*
X-1059310Y1216646D03*
X-1064821D03*
X-1059310Y1222157D03*
X-1045530Y1191843D03*
Y1197354D03*
X-1053798Y1191843D03*
Y1197354D03*
X-1045530Y1202866D03*
X-1053798D03*
X-1045530Y1211134D03*
X-1053798D03*
X-1045530Y1216646D03*
X-1053798D03*
X-1045530Y1222157D03*
X-1053798D03*
X-1034507Y1191843D03*
X-1040018D03*
X-1034507Y1197354D03*
X-1040018D03*
X-1034507Y1202866D03*
X-1040018D03*
Y1211134D03*
X-1034507D03*
X-1040018Y1216646D03*
X-1034507D03*
Y1222157D03*
X-1040018D03*
G54D44*
X-1147413Y1174642D03*
G54D26*
X-1257959Y968131D03*
X-1255990D03*
X-1254022D03*
X-1252053D03*
X-1250085D03*
X-1248116D03*
Y987029D03*
X-1250085D03*
X-1252053D03*
X-1254022D03*
X-1255990D03*
X-1257959D03*
X-1246148Y968131D03*
X-1244179D03*
Y987029D03*
X-1246148D03*
G54D80*
X-1035031Y1114756D03*
X-1033613Y1113338D03*
G54D54*
X-1096500Y1006865D03*
Y1010409D03*
X-1082500Y1006865D03*
Y1010409D03*
G54D18*
X-1270734Y957169D03*
X-1274080D03*
X-1270734Y964453D03*
X-1274080D03*
G54D63*
X-1082640Y1110947D03*
Y1116853D03*
X-1075160Y1110947D03*
Y1116853D03*
G54D90*
X-1020185Y1117434D03*
G54D27*
X-1245966Y998220D03*
Y1007220D03*
G54D72*
X-1047399Y1063350D03*
Y1074964D03*
X-1005300Y1216893D03*
Y1228507D03*
G54D36*
X-1213822Y1066886D03*
Y1074170D03*
X-1204766Y1066886D03*
Y1074170D03*
X-1156466Y1196291D03*
Y1203575D03*
X-1147410Y1196291D03*
Y1203575D03*
G54D81*
X-1034949Y1124595D03*
X-1032980D03*
Y1151761D03*
X-1034949D03*
X-1031012Y1124595D03*
X-1029043D03*
X-1027075D03*
X-1025106D03*
X-1023138D03*
X-1021169D03*
Y1151761D03*
X-1023138D03*
X-1025106D03*
X-1027075D03*
X-1029043D03*
X-1031012D03*
X-1019201Y1124595D03*
X-1017232D03*
X-1015264D03*
X-1013295D03*
Y1151761D03*
X-1015264D03*
X-1017232D03*
X-1019201D03*
G54D45*
X-1157059Y1173855D03*
Y1172280D03*
Y1170705D03*
Y1169130D03*
Y1167555D03*
Y1181729D03*
Y1180154D03*
Y1178579D03*
Y1177004D03*
Y1175429D03*
X-1137767Y1167555D03*
Y1169130D03*
Y1170705D03*
Y1172280D03*
Y1173855D03*
Y1175429D03*
Y1177004D03*
Y1178579D03*
Y1180154D03*
Y1181729D03*
G54D91*
X-1014866Y1005087D03*
X-1007744D03*
G54D64*
X-1079929Y1189000D03*
G54D37*
X-1201022Y971241D03*
Y973603D03*
X-1199054Y971241D03*
X-1191198Y970041D03*
X-1193166D03*
X-1199054Y973603D03*
X-1195148Y980941D03*
Y978579D03*
X-1197116D03*
Y980941D03*
X-1191198Y972403D03*
X-1193166D03*
G54D82*
X-1024122Y1138178D03*
G54D28*
X-1235000Y1085070D03*
X-1223000D03*
G54D46*
X-1154500Y1164996D03*
X-1152925D03*
Y1184288D03*
X-1154500D03*
X-1151350Y1164996D03*
X-1149775D03*
X-1148200D03*
X-1146626D03*
X-1145051D03*
X-1143476D03*
X-1141901D03*
X-1140326D03*
Y1184288D03*
X-1141901D03*
X-1143476D03*
X-1145051D03*
X-1146626D03*
X-1148200D03*
X-1149775D03*
X-1151350D03*
G54D19*
X-1275666Y1101945D03*
X-1278816D03*
X-1281966D03*
X-1275666Y1098795D03*
X-1278816D03*
X-1275666Y1095645D03*
X-1278816D03*
X-1281966Y1098795D03*
Y1095645D03*
X-1275666Y1114545D03*
X-1278816D03*
X-1281966D03*
X-1275666Y1111395D03*
X-1278816D03*
X-1275666Y1108245D03*
X-1278816D03*
X-1281966D03*
X-1275666Y1105095D03*
X-1278816D03*
X-1281966Y1111395D03*
Y1105095D03*
X-1275666Y1123995D03*
X-1278816D03*
X-1281966D03*
X-1275666Y1120845D03*
X-1278816D03*
X-1281966D03*
X-1275666Y1117695D03*
X-1278816D03*
X-1281966D03*
X-1275666Y1136595D03*
X-1278816D03*
X-1281966D03*
X-1275666Y1133445D03*
X-1278816D03*
X-1281966D03*
X-1275666Y1130295D03*
X-1278816D03*
X-1281966D03*
X-1275666Y1127145D03*
X-1278816D03*
X-1281966D03*
X-1275666Y1142895D03*
X-1278816D03*
X-1281966D03*
X-1275666Y1139745D03*
X-1278816D03*
X-1281966D03*
X-1259916Y1101945D03*
X-1263066D03*
X-1259916Y1098795D03*
X-1263066D03*
X-1259916Y1095645D03*
X-1263066D03*
X-1259916Y1114545D03*
X-1263066D03*
X-1259916Y1111395D03*
X-1263066D03*
X-1259916Y1108245D03*
X-1263066D03*
X-1259916Y1105095D03*
X-1263066D03*
X-1259916Y1123995D03*
X-1263066D03*
X-1259916Y1120845D03*
X-1263066D03*
X-1259916Y1117695D03*
X-1263066D03*
X-1259916Y1136595D03*
X-1263066D03*
X-1259916Y1133445D03*
X-1263066D03*
X-1259916Y1130295D03*
X-1263066D03*
X-1259916Y1127145D03*
X-1263066D03*
X-1259916Y1142895D03*
X-1263066D03*
X-1259916Y1139745D03*
X-1263066D03*
X-1256766Y1098795D03*
Y1095645D03*
Y1101945D03*
Y1111395D03*
Y1105095D03*
Y1114545D03*
Y1108245D03*
Y1123995D03*
Y1120845D03*
Y1117695D03*
Y1136595D03*
Y1133445D03*
Y1130295D03*
Y1127145D03*
Y1142895D03*
Y1139745D03*
G54D73*
X-1046347Y1110613D03*
Y1122613D03*
G54D55*
X-1098443Y1042000D03*
X-1092143D03*
G54D92*
X-1009713Y1009969D03*
X-1012897D03*
X-1016835D03*
X-1005775D03*
G54D65*
X-1084811Y1190969D03*
Y1187031D03*
G54D38*
X-1203384Y1198086D03*
Y1201836D03*
Y1205586D03*
X-1193184Y1198086D03*
Y1205586D03*
G54D47*
X-1145887Y1018200D03*
X-1143918D03*
X-1141950D03*
X-1139981D03*
Y1053240D03*
X-1141950D03*
X-1143918D03*
X-1145887D03*
X-1138013Y1018200D03*
X-1136044D03*
X-1134076D03*
X-1132107D03*
X-1130139D03*
X-1128170D03*
Y1053240D03*
X-1130139D03*
X-1132107D03*
X-1134076D03*
X-1136044D03*
X-1138013D03*
X-1126202Y1018200D03*
X-1124233D03*
X-1122265D03*
X-1120296D03*
X-1118328D03*
X-1116359D03*
Y1053240D03*
X-1118328D03*
X-1120296D03*
X-1122265D03*
X-1124233D03*
X-1126202D03*
G54D56*
X-1095464Y1063076D03*
X-1098023D03*
X-1100583D03*
X-1103142D03*
X-1095464Y1080398D03*
X-1098023D03*
X-1100583D03*
X-1103142D03*
G54D83*
X-1037705Y1137194D03*
Y1135225D03*
Y1133257D03*
Y1131288D03*
Y1129320D03*
Y1127351D03*
Y1149005D03*
Y1147036D03*
Y1145068D03*
Y1143099D03*
Y1141131D03*
Y1139162D03*
X-1010539Y1127351D03*
Y1129320D03*
Y1131288D03*
Y1133257D03*
Y1135225D03*
Y1137194D03*
Y1139162D03*
Y1141131D03*
Y1143099D03*
Y1145068D03*
Y1147036D03*
Y1149005D03*
G54D74*
X-1038200Y1027056D03*
G54D29*
X-1242997Y1086970D03*
X-1245003D03*
X-1242997Y1089570D03*
X-1245003D03*
X-1182300Y970208D03*
X-1184306D03*
X-1182300Y968240D03*
X-1184306D03*
X-1167267Y1092600D03*
X-1169273D03*
X-1172511Y1182761D03*
X-1174517D03*
X-1172511Y1185561D03*
X-1174517D03*
X-1172511Y1180061D03*
X-1174517D03*
X-1172511Y1191961D03*
X-1174517D03*
X-1172511Y1188761D03*
X-1174517D03*
X-1172511Y1195161D03*
X-1174517D03*
X-1158097Y1095695D03*
X-1160103D03*
X-1128497Y1111636D03*
X-1130503D03*
X-1128497Y1118526D03*
X-1130503D03*
X-1128697Y1124664D03*
X-1130703D03*
X-1128497Y1121626D03*
X-1130503D03*
X-1128497Y1115486D03*
X-1130503D03*
X-1130997Y1170705D03*
X-1133003D03*
X-1130997Y1164982D03*
X-1133003D03*
X-1128903Y1178579D03*
X-1130113Y1185509D03*
X-1132119D03*
X-1130397Y1217770D03*
X-1132403D03*
X-1126897Y1178579D03*
X-1100697Y1026300D03*
X-1102703D03*
X-1098457Y1088836D03*
X-1100463D03*
X-1098445Y1086136D03*
X-1100451D03*
X-1072777Y1140266D03*
X-1074783D03*
X-1072777Y1148066D03*
X-1074783D03*
X-1072777Y1145495D03*
X-1074783D03*
X-1072777Y1142914D03*
X-1074783D03*
X-1002453Y1136484D03*
X-1004459D03*
X-1002429Y1133936D03*
X-1004435D03*
G54D39*
X-1194066Y1027756D03*
X-1189066D03*
Y1049016D03*
X-1194066D03*
X-1184066Y1027756D03*
X-1179066D03*
Y1049016D03*
X-1184066D03*
G54D66*
X-1077017Y1065090D03*
Y1061350D03*
Y1057610D03*
X-1068017D03*
Y1061350D03*
Y1065090D03*
G54D48*
X-1131123Y1035720D03*
G54D84*
X-1019527Y1026856D03*
G54D75*
X-1042137Y1029615D03*
Y1027056D03*
Y1024497D03*
X-1034263D03*
Y1027056D03*
Y1029615D03*
X-1012311Y1117434D03*
G54D93*
X-1008326Y1110311D03*
X-1010028Y1111375D03*
G54D57*
X-1088800Y1138600D03*
G54D67*
X-1068955Y1183476D03*
Y1230524D03*
X-1066199Y1183476D03*
X-1063444D03*
X-1060688D03*
X-1057932D03*
Y1230524D03*
X-1060688D03*
X-1063444D03*
X-1066199D03*
X-1055176Y1183476D03*
X-1052420D03*
X-1049664D03*
X-1046908D03*
X-1044152D03*
Y1230524D03*
X-1046908D03*
X-1049664D03*
X-1052420D03*
X-1055176D03*
X-1041396Y1183476D03*
X-1038640D03*
X-1035884D03*
X-1033129D03*
Y1230524D03*
X-1035884D03*
X-1038640D03*
X-1041396D03*
X-1030373Y1183476D03*
Y1230524D03*
G54D94*
X-1013295Y1119895D03*
X-1015264D03*
X-1017232D03*
X-1019201D03*
G54D76*
X-1036900Y1038909D03*
X-1028900Y1035409D03*
Y1042409D03*
G54D58*
X-1098700Y1137615D03*
Y1135645D03*
Y1133675D03*
Y1131705D03*
Y1145495D03*
Y1143525D03*
Y1141555D03*
Y1139585D03*
X-1078900Y1131705D03*
Y1133675D03*
Y1135645D03*
Y1137615D03*
Y1139585D03*
Y1141555D03*
Y1143525D03*
Y1145495D03*
G54D85*
X-1022086Y1030793D03*
Y1022919D03*
X-1016968Y1030793D03*
X-1019527D03*
Y1022919D03*
X-1016968D03*
X-1019201Y1114973D03*
X-1017232D03*
X-1015264D03*
X-1013295D03*
G54D49*
X-1148643Y1030799D03*
Y1028830D03*
Y1026862D03*
Y1024893D03*
Y1022925D03*
Y1020956D03*
Y1042610D03*
Y1040641D03*
Y1038673D03*
Y1036704D03*
Y1034736D03*
Y1032767D03*
Y1050484D03*
Y1048515D03*
Y1046547D03*
Y1044578D03*
X-1113603Y1020956D03*
Y1022925D03*
Y1024893D03*
Y1026862D03*
Y1028830D03*
Y1030799D03*
Y1032767D03*
Y1034736D03*
Y1036704D03*
Y1038673D03*
Y1040641D03*
Y1042610D03*
Y1044578D03*
Y1046547D03*
Y1048515D03*
Y1050484D03*
G54D59*
X-1093725Y1148500D03*
X-1095695D03*
X-1081905D03*
X-1083875D03*
X-1085845D03*
X-1087815D03*
X-1089785D03*
X-1091755D03*
G54D95*
X-1012407Y1179900D03*
X-1006029Y1067201D03*
X-1000793Y1179900D03*
X-994415Y1067201D03*
G54D86*
X-1022607Y1034891D03*
Y1040009D03*
Y1037450D03*
X-1016701D03*
Y1040009D03*
Y1034891D03*
G54D68*
X-1073384Y1183476D03*
Y1230524D03*
X-1025944Y1183476D03*
Y1230524D03*
G54D77*
X-1035400Y1066387D03*
Y1069143D03*
X-1016000Y1219922D03*
Y1222678D03*
G54D69*
X-1073384Y1195976D03*
Y1193220D03*
Y1190465D03*
Y1187709D03*
Y1209756D03*
Y1207000D03*
Y1204244D03*
Y1201488D03*
Y1198732D03*
Y1220780D03*
Y1218024D03*
Y1215268D03*
Y1212512D03*
Y1226291D03*
Y1223535D03*
X-1025944Y1187709D03*
Y1190465D03*
Y1193220D03*
Y1195976D03*
Y1198732D03*
Y1201488D03*
Y1204244D03*
Y1207000D03*
Y1209756D03*
Y1212512D03*
Y1215268D03*
Y1218024D03*
Y1220780D03*
Y1223535D03*
Y1226291D03*
G54D96*
X-1012600Y1187722D03*
Y1190478D03*
G54D87*
X-1020776Y1093608D03*
X-1022351D03*
X-1023925D03*
X-1020776Y1099514D03*
X-1022351D03*
X-1023925D03*
X-1019201Y1093608D03*
Y1099514D03*
G54D78*
X-1041198Y1069157D03*
X-1011501Y1222700D03*
X-1000222Y1073402D03*
X-1006600Y1186101D03*
G54D97*
X-1000222Y1078100D03*
X-997466D03*
G54D79*
X-1037177Y1109635D03*
X-1035621Y1111191D03*
X-1035240Y1107836D03*
X-1033822Y1109254D03*
X-1027701Y1115375D03*
X-1026145Y1116931D03*
X-1029570Y1117243D03*
X-1028014Y1118799D03*
G54D88*
X-1021563Y1096561D03*
G54D98*
X-999524Y1122721D03*
Y1128627D03*
X-994800Y1122721D03*
Y1128627D03*
G54D89*
X-1029765Y1113591D03*
X-1030109Y1109856D03*
X-1031665Y1111412D03*
X-1031321Y1115147D03*
G54D99*
G01X-1056400Y1082300D02*
X-1024530D01*
G01X-1056400Y1166100D02*
Y1082300D01*
G01X-990365Y1166100D02*
X-1056400D01*
G01X-1012776Y1082300D02*
X-1006663D01*
G01X-996541D02*
X-990365D01*
G01D02*
Y1166100D01*
M02*
