G04 ================== begin FILE IDENTIFICATION RECORD ==================*
G04 Layout Name:  beagleplayv022_10.brd*
G04 Film Name:    sold_top*
G04 File Format:  Gerber RS274X*
G04 File Origin:  Cadence Allegro 17.4-S032*
G04 Origin Date:  Wed Feb 15 11:40:44 2023*
G04 *
G04 Layer:  VIA CLASS/SOLDERMASK_TOP*
G04 Layer:  PIN/SOLDERMASK_TOP*
G04 Layer:  PACKAGE GEOMETRY/SOLDERMASK_TOP*
G04 Layer:  BOARD GEOMETRY/SOLDERMASK_TOP*
G04 Layer:  BOARD GEOMETRY/OUTLINE*
G04 *
G04 Offset:    (0.00 0.00)*
G04 Mirror:    No*
G04 Mode:      Positive*
G04 Rotation:  0*
G04 FullContactRelief:  No*
G04 UndefLineWidth:     4.00*
G04 ================== end FILE IDENTIFICATION RECORD ====================*
%FSLAX25Y25*MOIN*%
%IR0*IPPOS*OFA0.00000B0.00000*MIA0B0*SFA1.00000B1.00000*%
%AMMACRO74*
4,1,40,-.02953,.02953,
-.02953,-.02953,
-.02941,-.030897,
-.029055,-.032222,
-.028476,-.033465,
-.027689,-.034589,
-.026719,-.035559,
-.025595,-.036346,
-.024352,-.036925,
-.023027,-.03728,
-.02166,-.0374,
.02166,-.0374,
.023027,-.03728,
.024352,-.036925,
.025595,-.036346,
.026719,-.035559,
.027689,-.034589,
.028476,-.033465,
.029055,-.032222,
.02941,-.030897,
.02953,-.02953,
.02953,.02953,
.02941,.030897,
.029055,.032222,
.028476,.033465,
.027689,.034589,
.026719,.035559,
.025595,.036346,
.024352,.036925,
.023027,.03728,
.02166,.0374,
-.02166,.0374,
-.023027,.03728,
-.024352,.036925,
-.025595,.036346,
-.026719,.035559,
-.027689,.034589,
-.028476,.033465,
-.029055,.032222,
-.02941,.030897,
-.02953,.02953,
0.0*
%
%ADD74MACRO74*%
%AMMACRO77*
4,1,44,.0374,.02953,
-.0374,.02953,
-.038767,.029411,
-.040092,.029057,
-.041336,.028478,
-.04246,.027692,
-.043431,.026723,
-.044218,.025599,
-.044799,.024356,
-.045155,.023032,
-.045275,.021665,
-.04527,.02166,
-.04527,-.02166,
-.045155,-.023027,
-.0448,-.024352,
-.044221,-.025595,
-.043434,-.026719,
-.042464,-.027689,
-.04134,-.028476,
-.040097,-.029055,
-.038772,-.02941,
-.037405,-.02953,
-.0374,-.02953,
.0374,-.02953,
.038767,-.029411,
.040092,-.029057,
.041336,-.028478,
.04246,-.027692,
.043431,-.026723,
.044218,-.025599,
.044799,-.024356,
.045155,-.023032,
.045275,-.021665,
.04527,-.02166,
.04527,.02166,
.045155,.023027,
.0448,.024352,
.044221,.025595,
.043434,.026719,
.042464,.027689,
.04134,.028476,
.040097,.029055,
.038772,.02941,
.037405,.02953,
.0374,.02953,
0.0*
%
%ADD77MACRO77*%
%ADD63R,.04X.11*%
%AMMACRO43*
4,1,40,-.01947,.01553,
-.01947,-.01553,
-.01941,-.016214,
-.019232,-.016878,
-.018942,-.0175,
-.018548,-.018063,
-.018063,-.018548,
-.0175,-.018942,
-.016878,-.019232,
-.016214,-.01941,
-.01553,-.01947,
.01553,-.01947,
.016214,-.01941,
.016878,-.019232,
.0175,-.018942,
.018063,-.018548,
.018548,-.018063,
.018942,-.0175,
.019232,-.016878,
.01941,-.016214,
.01947,-.01553,
.01947,.01553,
.01941,.016214,
.019232,.016878,
.018942,.0175,
.018548,.018063,
.018063,.018548,
.0175,.018942,
.016878,.019232,
.016214,.01941,
.01553,.01947,
-.01553,.01947,
-.016214,.01941,
-.016878,.019232,
-.0175,.018942,
-.018063,.018548,
-.018548,.018063,
-.018942,.0175,
-.019232,.016878,
-.01941,.016214,
-.01947,.01553,
0.0*
%
%ADD43MACRO43*%
%AMMACRO48*
4,1,40,.01553,.01947,
-.01553,.01947,
-.016214,.01941,
-.016878,.019232,
-.0175,.018942,
-.018063,.018548,
-.018548,.018063,
-.018942,.0175,
-.019232,.016878,
-.01941,.016214,
-.01947,.01553,
-.01947,-.01553,
-.01941,-.016214,
-.019232,-.016878,
-.018942,-.0175,
-.018548,-.018063,
-.018063,-.018548,
-.0175,-.018942,
-.016878,-.019232,
-.016214,-.01941,
-.01553,-.01947,
.01553,-.01947,
.016214,-.01941,
.016878,-.019232,
.0175,-.018942,
.018063,-.018548,
.018548,-.018063,
.018942,-.0175,
.019232,-.016878,
.01941,-.016214,
.01947,-.01553,
.01947,.01553,
.01941,.016214,
.019232,.016878,
.018942,.0175,
.018548,.018063,
.018063,.018548,
.0175,.018942,
.016878,.019232,
.016214,.01941,
.01553,.01947,
0.0*
%
%ADD48MACRO48*%
%AMMACRO72*
4,1,44,.02559,.02953,
-.02559,.02953,
-.026957,.029411,
-.028282,.029057,
-.029526,.028478,
-.03065,.027692,
-.031621,.026723,
-.032408,.025599,
-.032989,.024356,
-.033345,.023032,
-.033465,.021665,
-.03346,.02166,
-.03346,-.02166,
-.033345,-.023027,
-.03299,-.024352,
-.032411,-.025595,
-.031624,-.026719,
-.030654,-.027689,
-.02953,-.028476,
-.028287,-.029055,
-.026962,-.02941,
-.025595,-.02953,
-.02559,-.02953,
.02559,-.02953,
.026957,-.029411,
.028282,-.029057,
.029526,-.028478,
.03065,-.027692,
.031621,-.026723,
.032408,-.025599,
.032989,-.024356,
.033345,-.023032,
.033465,-.021665,
.03346,-.02166,
.03346,.02166,
.033345,.023027,
.03299,.024352,
.032411,.025595,
.031624,.026719,
.030654,.027689,
.02953,.028476,
.028287,.029055,
.026962,.02941,
.025595,.02953,
.02559,.02953,
0.0*
%
%ADD72MACRO72*%
%ADD62R,.06X.12*%
%AMMACRO50*
4,1,40,.00194,-.00972,
.00972,-.00194,
.009948,-.001676,
.010122,-.001374,
.010241,-.001047,
.010301,-.000703,
.010301,-.000355,
.01024,-.000011,
.010121,.000316,
.009946,.000618,
.00972,.00088,
.00088,.00972,
.000616,.009947,
.000314,.010121,
-.000013,.010241,
-.000357,.010301,
-.000705,.010301,
-.001049,.01024,
-.001376,.010121,
-.001678,.009946,
-.00194,.00972,
-.00972,.00194,
-.009948,.001676,
-.010122,.001374,
-.010241,.001047,
-.010301,.000703,
-.010301,.000355,
-.01024,.000011,
-.010121,-.000316,
-.009946,-.000618,
-.00972,-.00088,
-.00088,-.00972,
-.000616,-.009947,
-.000314,-.010121,
.000013,-.010241,
.000357,-.010301,
.000705,-.010301,
.001049,-.01024,
.001376,-.010121,
.001678,-.009946,
.00194,-.00972,
0.0*
%
%ADD50MACRO50*%
%AMMACRO49*
4,1,40,-.00972,-.00194,
-.00194,-.00972,
-.001676,-.009948,
-.001374,-.010122,
-.001047,-.010241,
-.000703,-.010301,
-.000355,-.010301,
-.000011,-.01024,
.000316,-.010121,
.000618,-.009946,
.00088,-.00972,
.00972,-.00088,
.009947,-.000616,
.010121,-.000314,
.010241,.000013,
.010301,.000357,
.010301,.000705,
.01024,.001049,
.010121,.001376,
.009946,.001678,
.00972,.00194,
.00194,.00972,
.001676,.009948,
.001374,.010122,
.001047,.010241,
.000703,.010301,
.000355,.010301,
.000011,.01024,
-.000316,.010121,
-.000618,.009946,
-.00088,.00972,
-.00972,.00088,
-.009947,.000616,
-.010121,.000314,
-.010241,-.000013,
-.010301,-.000357,
-.010301,-.000705,
-.01024,-.001049,
-.010121,-.001376,
-.009946,-.001678,
-.00972,-.00194,
0.0*
%
%ADD49MACRO49*%
%ADD46O,.121X.063*%
%AMMACRO29*
4,1,40,.00825,-.0055,
.00825,.0055,
.00822,.005847,
.008129,.006184,
.007982,.0065,
.007782,.006786,
.007536,.007032,
.00725,.007232,
.006934,.007379,
.006597,.00747,
.00625,.0075,
-.00625,.0075,
-.006597,.00747,
-.006934,.007379,
-.00725,.007232,
-.007536,.007032,
-.007782,.006786,
-.007982,.0065,
-.008129,.006184,
-.00822,.005847,
-.00825,.0055,
-.00825,-.0055,
-.00822,-.005847,
-.008129,-.006184,
-.007982,-.0065,
-.007782,-.006786,
-.007536,-.007032,
-.00725,-.007232,
-.006934,-.007379,
-.006597,-.00747,
-.00625,-.0075,
.00625,-.0075,
.006597,-.00747,
.006934,-.007379,
.00725,-.007232,
.007536,-.007032,
.007782,-.006786,
.007982,-.0065,
.008129,-.006184,
.00822,-.005847,
.00825,-.0055,
0.0*
%
%ADD29MACRO29*%
%AMMACRO28*
4,1,40,-.0055,-.00825,
.0055,-.00825,
.005847,-.00822,
.006184,-.008129,
.0065,-.007982,
.006786,-.007782,
.007032,-.007536,
.007232,-.00725,
.007379,-.006934,
.00747,-.006597,
.0075,-.00625,
.0075,.00625,
.00747,.006597,
.007379,.006934,
.007232,.00725,
.007032,.007536,
.006786,.007782,
.0065,.007982,
.006184,.008129,
.005847,.00822,
.0055,.00825,
-.0055,.00825,
-.005847,.00822,
-.006184,.008129,
-.0065,.007982,
-.006786,.007782,
-.007032,.007536,
-.007232,.00725,
-.007379,.006934,
-.00747,.006597,
-.0075,.00625,
-.0075,-.00625,
-.00747,-.006597,
-.007379,-.006934,
-.007232,-.00725,
-.007032,-.007536,
-.006786,-.007782,
-.0065,-.007982,
-.006184,-.008129,
-.005847,-.00822,
-.0055,-.00825,
0.0*
%
%ADD28MACRO28*%
%ADD30C,.016*%
%ADD13R,.176X.08*%
%ADD65C,.05512*%
%ADD19C,.02362*%
%ADD57C,.03543*%
%ADD45C,.05118*%
%ADD42C,.079*%
%ADD61O,.06693X.1063*%
%ADD24C,.04724*%
%AMMACRO75*
4,1,40,-.00984,-.02756,
.00984,-.02756,
.010182,-.02753,
.010514,-.027441,
.010825,-.027296,
.011106,-.027099,
.011349,-.026856,
.011546,-.026575,
.011691,-.026264,
.01178,-.025932,
.01181,-.02559,
.01181,.02559,
.01178,.025932,
.011691,.026264,
.011546,.026575,
.011349,.026856,
.011106,.027099,
.010825,.027296,
.010514,.027441,
.010182,.02753,
.00984,.02756,
-.00984,.02756,
-.010182,.02753,
-.010514,.027441,
-.010825,.027296,
-.011106,.027099,
-.011349,.026856,
-.011546,.026575,
-.011691,.026264,
-.01178,.025932,
-.01181,.02559,
-.01181,-.02559,
-.01178,-.025932,
-.011691,-.026264,
-.011546,-.026575,
-.011349,-.026856,
-.011106,-.027099,
-.010825,-.027296,
-.010514,-.027441,
-.010182,-.02753,
-.00984,-.02756,
0.0*
%
%ADD75MACRO75*%
%ADD59C,.0748*%
%ADD44C,.09055*%
%AMMACRO34*
4,1,40,.01181,-.00984,
.01181,.00984,
.01178,.010182,
.011691,.010514,
.011546,.010825,
.011349,.011106,
.011106,.011349,
.010825,.011546,
.010514,.011691,
.010182,.01178,
.00984,.01181,
-.00984,.01181,
-.010182,.01178,
-.010514,.011691,
-.010825,.011546,
-.011106,.011349,
-.011349,.011106,
-.011546,.010825,
-.011691,.010514,
-.01178,.010182,
-.01181,.00984,
-.01181,-.00984,
-.01178,-.010182,
-.011691,-.010514,
-.011546,-.010825,
-.011349,-.011106,
-.011106,-.011349,
-.010825,-.011546,
-.010514,-.011691,
-.010182,-.01178,
-.00984,-.01181,
.00984,-.01181,
.010182,-.01178,
.010514,-.011691,
.010825,-.011546,
.011106,-.011349,
.011349,-.011106,
.011546,-.010825,
.011691,-.010514,
.01178,-.010182,
.01181,-.00984,
0.0*
%
%ADD34MACRO34*%
%AMMACRO27*
4,1,40,-.00984,-.01181,
.00984,-.01181,
.010182,-.01178,
.010514,-.011691,
.010825,-.011546,
.011106,-.011349,
.011349,-.011106,
.011546,-.010825,
.011691,-.010514,
.01178,-.010182,
.01181,-.00984,
.01181,.00984,
.01178,.010182,
.011691,.010514,
.011546,.010825,
.011349,.011106,
.011106,.011349,
.010825,.011546,
.010514,.011691,
.010182,.01178,
.00984,.01181,
-.00984,.01181,
-.010182,.01178,
-.010514,.011691,
-.010825,.011546,
-.011106,.011349,
-.011349,.011106,
-.011546,.010825,
-.011691,.010514,
-.01178,.010182,
-.01181,.00984,
-.01181,-.00984,
-.01178,-.010182,
-.011691,-.010514,
-.011546,-.010825,
-.011349,-.011106,
-.011106,-.011349,
-.010825,-.011546,
-.010514,-.011691,
-.010182,-.01178,
-.00984,-.01181,
0.0*
%
%ADD27MACRO27*%
%AMMACRO79*
4,1,40,.02559,-.00788,
.02559,.00788,
.02547,.009247,
.025115,.010572,
.024536,.011815,
.023749,.012939,
.022779,.013909,
.021655,.014696,
.020412,.015275,
.019087,.01563,
.01772,.01575,
-.01772,.01575,
-.019087,.01563,
-.020412,.015275,
-.021655,.014696,
-.022779,.013909,
-.023749,.012939,
-.024536,.011815,
-.025115,.010572,
-.02547,.009247,
-.02559,.00788,
-.02559,-.00788,
-.02547,-.009247,
-.025115,-.010572,
-.024536,-.011815,
-.023749,-.012939,
-.022779,-.013909,
-.021655,-.014696,
-.020412,-.015275,
-.019087,-.01563,
-.01772,-.01575,
.01772,-.01575,
.019087,-.01563,
.020412,-.015275,
.021655,-.014696,
.022779,-.013909,
.023749,-.012939,
.024536,-.011815,
.025115,-.010572,
.02547,-.009247,
.02559,-.00788,
0.0*
%
%ADD79MACRO79*%
%ADD41R,.079X.079*%
%ADD55O,.07087X.1378*%
%AMMACRO32*
4,1,44,-.0059,-.02756,
.0059,-.02756,
.006242,-.027531,
.006574,-.027443,
.006886,-.027299,
.007167,-.027102,
.007411,-.02686,
.007609,-.026579,
.007754,-.026268,
.007844,-.025937,
.007875,-.025595,
.00787,-.02559,
.00787,.02559,
.007845,.025932,
.007756,.026264,
.007611,.026575,
.007414,.026856,
.007171,.027099,
.00689,.027296,
.006579,.027441,
.006247,.02753,
.005905,.02756,
.0059,.02756,
-.0059,.02756,
-.006242,.027531,
-.006574,.027443,
-.006886,.027299,
-.007167,.027102,
-.007411,.02686,
-.007609,.026579,
-.007754,.026268,
-.007844,.025937,
-.007875,.025595,
-.00787,.02559,
-.00787,-.02559,
-.007845,-.025932,
-.007756,-.026264,
-.007611,-.026575,
-.007414,-.026856,
-.007171,-.027099,
-.00689,-.027296,
-.006579,-.027441,
-.006247,-.02753,
-.005905,-.02756,
-.0059,-.02756,
0.0*
%
%ADD32MACRO32*%
%ADD12C,.06693*%
%AMMACRO33*
4,1,44,-.0059,-.02559,
.0059,-.02559,
.006242,-.025561,
.006574,-.025473,
.006886,-.025329,
.007167,-.025132,
.007411,-.02489,
.007609,-.024609,
.007754,-.024298,
.007844,-.023967,
.007875,-.023625,
.00787,-.02362,
.00787,.02362,
.007845,.023962,
.007756,.024294,
.007611,.024605,
.007414,.024886,
.007171,.025129,
.00689,.025326,
.006579,.025471,
.006247,.02556,
.005905,.02559,
.0059,.02559,
-.0059,.02559,
-.006242,.025561,
-.006574,.025473,
-.006886,.025329,
-.007167,.025132,
-.007411,.02489,
-.007609,.024609,
-.007754,.024298,
-.007844,.023967,
-.007875,.023625,
-.00787,.02362,
-.00787,-.02362,
-.007845,-.023962,
-.007756,-.024294,
-.007611,-.024605,
-.007414,-.024886,
-.007171,-.025129,
-.00689,-.025326,
-.006579,-.025471,
-.006247,-.02556,
-.005905,-.02559,
-.0059,-.02559,
0.0*
%
%ADD33MACRO33*%
%ADD25C,.03898*%
%ADD11R,.06693X.06693*%
%AMMACRO20*
4,1,40,-.00591,-.02559,
.00591,-.02559,
.007277,-.02547,
.008602,-.025115,
.009845,-.024536,
.010969,-.023749,
.011939,-.022779,
.012726,-.021655,
.013305,-.020412,
.01366,-.019087,
.01378,-.01772,
.01378,.01772,
.01366,.019087,
.013305,.020412,
.012726,.021655,
.011939,.022779,
.010969,.023749,
.009845,.024536,
.008602,.025115,
.007277,.02547,
.00591,.02559,
-.00591,.02559,
-.007277,.02547,
-.008602,.025115,
-.009845,.024536,
-.010969,.023749,
-.011939,.022779,
-.012726,.021655,
-.013305,.020412,
-.01366,.019087,
-.01378,.01772,
-.01378,-.01772,
-.01366,-.019087,
-.013305,-.020412,
-.012726,-.021655,
-.011939,-.022779,
-.010969,-.023749,
-.009845,-.024536,
-.008602,-.025115,
-.007277,-.02547,
-.00591,-.02559,
0.0*
%
%ADD20MACRO20*%
%ADD16R,.09449X.12992*%
%AMMACRO66*
4,1,40,.02947,-.01803,
.02947,.01803,
.02941,.018714,
.029232,.019378,
.028942,.02,
.028548,.020563,
.028063,.021048,
.0275,.021442,
.026878,.021732,
.026214,.02191,
.02553,.02197,
-.02553,.02197,
-.026214,.02191,
-.026878,.021732,
-.0275,.021442,
-.028063,.021048,
-.028548,.020563,
-.028942,.02,
-.029232,.019378,
-.02941,.018714,
-.02947,.01803,
-.02947,-.01803,
-.02941,-.018714,
-.029232,-.019378,
-.028942,-.02,
-.028548,-.020563,
-.028063,-.021048,
-.0275,-.021442,
-.026878,-.021732,
-.026214,-.02191,
-.02553,-.02197,
.02553,-.02197,
.026214,-.02191,
.026878,-.021732,
.0275,-.021442,
.028063,-.021048,
.028548,-.020563,
.028942,-.02,
.029232,-.019378,
.02941,-.018714,
.02947,-.01803,
0.0*
%
%ADD66MACRO66*%
%AMMACRO70*
4,1,40,-.01772,-.03937,
.01772,-.03937,
.019087,-.03925,
.020412,-.038895,
.021655,-.038316,
.022779,-.037529,
.023749,-.036559,
.024536,-.035435,
.025115,-.034192,
.02547,-.032867,
.02559,-.0315,
.02559,.0315,
.02547,.032867,
.025115,.034192,
.024536,.035435,
.023749,.036559,
.022779,.037529,
.021655,.038316,
.020412,.038895,
.019087,.03925,
.01772,.03937,
-.01772,.03937,
-.019087,.03925,
-.020412,.038895,
-.021655,.038316,
-.022779,.037529,
-.023749,.036559,
-.024536,.035435,
-.025115,.034192,
-.02547,.032867,
-.02559,.0315,
-.02559,-.0315,
-.02547,-.032867,
-.025115,-.034192,
-.024536,-.035435,
-.023749,-.036559,
-.022779,-.037529,
-.021655,-.038316,
-.020412,-.038895,
-.019087,-.03925,
-.01772,-.03937,
0.0*
%
%ADD70MACRO70*%
%AMMACRO26*
4,1,44,-.01968,.0059,
-.01968,-.0059,
-.019477,-.008293,
-.018856,-.010613,
-.017841,-.012791,
-.016464,-.014759,
-.014766,-.016458,
-.012799,-.017836,
-.010623,-.018852,
-.008303,-.019475,
-.00591,-.019685,
-.0059,-.01968,
.0059,-.01968,
.008293,-.019477,
.010613,-.018856,
.012791,-.017841,
.014759,-.016464,
.016458,-.014766,
.017836,-.012799,
.018852,-.010623,
.019475,-.008303,
.019685,-.00591,
.01968,-.0059,
.01968,.0059,
.019477,.008293,
.018856,.010613,
.017841,.012791,
.016464,.014759,
.014766,.016458,
.012799,.017836,
.010623,.018852,
.008303,.019475,
.00591,.019685,
.0059,.01968,
-.0059,.01968,
-.008293,.019477,
-.010613,.018856,
-.012791,.017841,
-.014759,.016464,
-.016458,.014766,
-.017836,.012799,
-.018852,.010623,
-.019475,.008303,
-.019685,.00591,
-.01968,.0059,
0.0*
%
%ADD26MACRO26*%
%AMMACRO56*
4,1,44,.0059,.01968,
-.0059,.01968,
-.008293,.019477,
-.010613,.018856,
-.012791,.017841,
-.014759,.016464,
-.016458,.014766,
-.017836,.012799,
-.018852,.010623,
-.019475,.008303,
-.019685,.00591,
-.01968,.0059,
-.01968,-.0059,
-.019477,-.008293,
-.018856,-.010613,
-.017841,-.012791,
-.016464,-.014759,
-.014766,-.016458,
-.012799,-.017836,
-.010623,-.018852,
-.008303,-.019475,
-.00591,-.019685,
-.0059,-.01968,
.0059,-.01968,
.008293,-.019477,
.010613,-.018856,
.012791,-.017841,
.014759,-.016464,
.016458,-.014766,
.017836,-.012799,
.018852,-.010623,
.019475,-.008303,
.019685,-.00591,
.01968,-.0059,
.01968,.0059,
.019477,.008293,
.018856,.010613,
.017841,.012791,
.016464,.014759,
.014766,.016458,
.012799,.017836,
.010623,.018852,
.008303,.019475,
.00591,.019685,
.0059,.01968,
0.0*
%
%ADD56MACRO56*%
%AMMACRO39*
4,1,40,.01947,-.01553,
.01947,.01553,
.01941,.016214,
.019232,.016878,
.018942,.0175,
.018548,.018063,
.018063,.018548,
.0175,.018942,
.016878,.019232,
.016214,.01941,
.01553,.01947,
-.01553,.01947,
-.016214,.01941,
-.016878,.019232,
-.0175,.018942,
-.018063,.018548,
-.018548,.018063,
-.018942,.0175,
-.019232,.016878,
-.01941,.016214,
-.01947,.01553,
-.01947,-.01553,
-.01941,-.016214,
-.019232,-.016878,
-.018942,-.0175,
-.018548,-.018063,
-.018063,-.018548,
-.0175,-.018942,
-.016878,-.019232,
-.016214,-.01941,
-.01553,-.01947,
.01553,-.01947,
.016214,-.01941,
.016878,-.019232,
.0175,-.018942,
.018063,-.018548,
.018548,-.018063,
.018942,-.0175,
.019232,-.016878,
.01941,-.016214,
.01947,-.01553,
0.0*
%
%ADD39MACRO39*%
%AMMACRO15*
4,1,40,-.01553,-.01947,
.01553,-.01947,
.016214,-.01941,
.016878,-.019232,
.0175,-.018942,
.018063,-.018548,
.018548,-.018063,
.018942,-.0175,
.019232,-.016878,
.01941,-.016214,
.01947,-.01553,
.01947,.01553,
.01941,.016214,
.019232,.016878,
.018942,.0175,
.018548,.018063,
.018063,.018548,
.0175,.018942,
.016878,.019232,
.016214,.01941,
.01553,.01947,
-.01553,.01947,
-.016214,.01941,
-.016878,.019232,
-.0175,.018942,
-.018063,.018548,
-.018548,.018063,
-.018942,.0175,
-.019232,.016878,
-.01941,.016214,
-.01947,.01553,
-.01947,-.01553,
-.01941,-.016214,
-.019232,-.016878,
-.018942,-.0175,
-.018548,-.018063,
-.018063,-.018548,
-.0175,-.018942,
-.016878,-.019232,
-.016214,-.01941,
-.01553,-.01947,
0.0*
%
%ADD15MACRO15*%
%ADD53R,.01X.05*%
%AMMACRO18*
4,1,40,-.03347,-.04134,
.03347,-.04134,
.034837,-.04122,
.036162,-.040865,
.037405,-.040286,
.038529,-.039499,
.039499,-.038529,
.040286,-.037405,
.040865,-.036162,
.04122,-.034837,
.04134,-.03347,
.04134,.03347,
.04122,.034837,
.040865,.036162,
.040286,.037405,
.039499,.038529,
.038529,.039499,
.037405,.040286,
.036162,.040865,
.034837,.04122,
.03347,.04134,
-.03347,.04134,
-.034837,.04122,
-.036162,.040865,
-.037405,.040286,
-.038529,.039499,
-.039499,.038529,
-.040286,.037405,
-.040865,.036162,
-.04122,.034837,
-.04134,.03347,
-.04134,-.03347,
-.04122,-.034837,
-.040865,-.036162,
-.040286,-.037405,
-.039499,-.038529,
-.038529,-.039499,
-.037405,-.040286,
-.036162,-.040865,
-.034837,-.04122,
-.03347,-.04134,
0.0*
%
%ADD18MACRO18*%
%AMMACRO31*
4,1,40,-.00825,.0055,
-.00825,-.0055,
-.00822,-.005847,
-.008129,-.006184,
-.007982,-.0065,
-.007782,-.006786,
-.007536,-.007032,
-.00725,-.007232,
-.006934,-.007379,
-.006597,-.00747,
-.00625,-.0075,
.00625,-.0075,
.006597,-.00747,
.006934,-.007379,
.00725,-.007232,
.007536,-.007032,
.007782,-.006786,
.007982,-.0065,
.008129,-.006184,
.00822,-.005847,
.00825,-.0055,
.00825,.0055,
.00822,.005847,
.008129,.006184,
.007982,.0065,
.007782,.006786,
.007536,.007032,
.00725,.007232,
.006934,.007379,
.006597,.00747,
.00625,.0075,
-.00625,.0075,
-.006597,.00747,
-.006934,.007379,
-.00725,.007232,
-.007536,.007032,
-.007782,.006786,
-.007982,.0065,
-.008129,.006184,
-.00822,.005847,
-.00825,.0055,
0.0*
%
%ADD31MACRO31*%
%AMMACRO36*
4,1,40,.0055,.00825,
-.0055,.00825,
-.005847,.00822,
-.006184,.008129,
-.0065,.007982,
-.006786,.007782,
-.007032,.007536,
-.007232,.00725,
-.007379,.006934,
-.00747,.006597,
-.0075,.00625,
-.0075,-.00625,
-.00747,-.006597,
-.007379,-.006934,
-.007232,-.00725,
-.007032,-.007536,
-.006786,-.007782,
-.0065,-.007982,
-.006184,-.008129,
-.005847,-.00822,
-.0055,-.00825,
.0055,-.00825,
.005847,-.00822,
.006184,-.008129,
.0065,-.007982,
.006786,-.007782,
.007032,-.007536,
.007232,-.00725,
.007379,-.006934,
.00747,-.006597,
.0075,-.00625,
.0075,.00625,
.00747,.006597,
.007379,.006934,
.007232,.00725,
.007032,.007536,
.006786,.007782,
.0065,.007982,
.006184,.008129,
.005847,.00822,
.0055,.00825,
0.0*
%
%ADD36MACRO36*%
%ADD14R,.029X.024*%
%ADD51R,.055X.064*%
%ADD10C,.20079*%
%AMMACRO58*
4,1,44,-.01969,-.06102,
.01969,-.06102,
.021057,-.060905,
.022382,-.06055,
.023625,-.059971,
.024749,-.059184,
.025719,-.058214,
.026506,-.05709,
.027085,-.055847,
.02744,-.054522,
.02756,-.053155,
.02756,-.05315,
.02756,.05315,
.027441,.054517,
.027087,.055842,
.026508,.057086,
.025722,.05821,
.024753,.059181,
.023629,.059968,
.022386,.060549,
.021062,.060905,
.019695,.061025,
.01969,.06102,
-.01969,.06102,
-.021057,.060905,
-.022382,.06055,
-.023625,.059971,
-.024749,.059184,
-.025719,.058214,
-.026506,.05709,
-.027085,.055847,
-.02744,.054522,
-.02756,.053155,
-.02756,.05315,
-.02756,-.05315,
-.027441,-.054517,
-.027087,-.055842,
-.026508,-.057086,
-.025722,-.05821,
-.024753,-.059181,
-.023629,-.059968,
-.022386,-.060549,
-.021062,-.060905,
-.019695,-.061025,
-.01969,-.06102,
0.0*
%
%ADD58MACRO58*%
%ADD17O,.05118X.09055*%
%ADD60C,.12795*%
%AMMACRO35*
4,1,40,-.01181,.00984,
-.01181,-.00984,
-.01178,-.010182,
-.011691,-.010514,
-.011546,-.010825,
-.011349,-.011106,
-.011106,-.011349,
-.010825,-.011546,
-.010514,-.011691,
-.010182,-.01178,
-.00984,-.01181,
.00984,-.01181,
.010182,-.01178,
.010514,-.011691,
.010825,-.011546,
.011106,-.011349,
.011349,-.011106,
.011546,-.010825,
.011691,-.010514,
.01178,-.010182,
.01181,-.00984,
.01181,.00984,
.01178,.010182,
.011691,.010514,
.011546,.010825,
.011349,.011106,
.011106,.011349,
.010825,.011546,
.010514,.011691,
.010182,.01178,
.00984,.01181,
-.00984,.01181,
-.010182,.01178,
-.010514,.011691,
-.010825,.011546,
-.011106,.011349,
-.011349,.011106,
-.011546,.010825,
-.011691,.010514,
-.01178,.010182,
-.01181,.00984,
0.0*
%
%ADD35MACRO35*%
%ADD76R,.04331X.03937*%
%ADD67C,.12598*%
%AMMACRO23*
4,1,40,.00984,.01181,
-.00984,.01181,
-.010182,.01178,
-.010514,.011691,
-.010825,.011546,
-.011106,.011349,
-.011349,.011106,
-.011546,.010825,
-.011691,.010514,
-.01178,.010182,
-.01181,.00984,
-.01181,-.00984,
-.01178,-.010182,
-.011691,-.010514,
-.011546,-.010825,
-.011349,-.011106,
-.011106,-.011349,
-.010825,-.011546,
-.010514,-.011691,
-.010182,-.01178,
-.00984,-.01181,
.00984,-.01181,
.010182,-.01178,
.010514,-.011691,
.010825,-.011546,
.011106,-.011349,
.011349,-.011106,
.011546,-.010825,
.011691,-.010514,
.01178,-.010182,
.01181,-.00984,
.01181,.00984,
.01178,.010182,
.011691,.010514,
.011546,.010825,
.011349,.011106,
.011106,.011349,
.010825,.011546,
.010514,.011691,
.010182,.01178,
.00984,.01181,
0.0*
%
%ADD23MACRO23*%
%AMMACRO52*
4,1,40,-.01575,.015,
-.01575,-.015,
-.01572,-.015342,
-.015631,-.015674,
-.015486,-.015985,
-.015289,-.016266,
-.015046,-.016509,
-.014765,-.016706,
-.014454,-.016851,
-.014122,-.01694,
-.01378,-.01697,
.01378,-.01697,
.014122,-.01694,
.014454,-.016851,
.014765,-.016706,
.015046,-.016509,
.015289,-.016266,
.015486,-.015985,
.015631,-.015674,
.01572,-.015342,
.01575,-.015,
.01575,.015,
.01572,.015342,
.015631,.015674,
.015486,.015985,
.015289,.016266,
.015046,.016509,
.014765,.016706,
.014454,.016851,
.014122,.01694,
.01378,.01697,
-.01378,.01697,
-.014122,.01694,
-.014454,.016851,
-.014765,.016706,
-.015046,.016509,
-.015289,.016266,
-.015486,.015985,
-.015631,.015674,
-.01572,.015342,
-.01575,.015,
0.0*
%
%ADD52MACRO52*%
%AMMACRO37*
4,1,40,.015,.01575,
-.015,.01575,
-.015342,.01572,
-.015674,.015631,
-.015985,.015486,
-.016266,.015289,
-.016509,.015046,
-.016706,.014765,
-.016851,.014454,
-.01694,.014122,
-.01697,.01378,
-.01697,-.01378,
-.01694,-.014122,
-.016851,-.014454,
-.016706,-.014765,
-.016509,-.015046,
-.016266,-.015289,
-.015985,-.015486,
-.015674,-.015631,
-.015342,-.01572,
-.015,-.01575,
.015,-.01575,
.015342,-.01572,
.015674,-.015631,
.015985,-.015486,
.016266,-.015289,
.016509,-.015046,
.016706,-.014765,
.016851,-.014454,
.01694,-.014122,
.01697,-.01378,
.01697,.01378,
.01694,.014122,
.016851,.014454,
.016706,.014765,
.016509,.015046,
.016266,.015289,
.015985,.015486,
.015674,.015631,
.015342,.01572,
.015,.01575,
0.0*
%
%ADD37MACRO37*%
%AMMACRO80*
4,1,40,.00788,.02559,
-.00788,.02559,
-.009247,.02547,
-.010572,.025115,
-.011815,.024536,
-.012939,.023749,
-.013909,.022779,
-.014696,.021655,
-.015275,.020412,
-.01563,.019087,
-.01575,.01772,
-.01575,-.01772,
-.01563,-.019087,
-.015275,-.020412,
-.014696,-.021655,
-.013909,-.022779,
-.012939,-.023749,
-.011815,-.024536,
-.010572,-.025115,
-.009247,-.02547,
-.00788,-.02559,
.00788,-.02559,
.009247,-.02547,
.010572,-.025115,
.011815,-.024536,
.012939,-.023749,
.013909,-.022779,
.014696,-.021655,
.015275,-.020412,
.01563,-.019087,
.01575,-.01772,
.01575,.01772,
.01563,.019087,
.015275,.020412,
.014696,.021655,
.013909,.022779,
.012939,.023749,
.011815,.024536,
.010572,.025115,
.009247,.02547,
.00788,.02559,
0.0*
%
%ADD80MACRO80*%
%ADD54R,.0748X.09055*%
%AMMACRO73*
4,1,44,.02952,.01575,
-.02952,.01575,
-.030204,.015691,
-.030868,.015514,
-.031491,.015225,
-.032054,.014831,
-.03254,.014346,
-.032935,.013784,
-.033226,.013162,
-.033404,.012499,
-.033465,.011815,
-.03346,.01181,
-.03346,-.01181,
-.033405,-.012494,
-.033227,-.013158,
-.032937,-.01378,
-.032543,-.014343,
-.032058,-.014828,
-.031495,-.015222,
-.030873,-.015512,
-.030209,-.01569,
-.029525,-.01575,
-.02952,-.01575,
.02952,-.01575,
.030204,-.015691,
.030868,-.015514,
.031491,-.015225,
.032054,-.014831,
.03254,-.014346,
.032935,-.013784,
.033226,-.013162,
.033404,-.012499,
.033465,-.011815,
.03346,-.01181,
.03346,.01181,
.033405,.012494,
.033227,.013158,
.032937,.01378,
.032543,.014343,
.032058,.014828,
.031495,.015222,
.030873,.015512,
.030209,.01569,
.029525,.01575,
.02952,.01575,
0.0*
%
%ADD73MACRO73*%
%AMMACRO21*
4,1,44,.01771,.03346,
-.01771,.03346,
-.018394,.033406,
-.019058,.033229,
-.019681,.03294,
-.020244,.032546,
-.02073,.032061,
-.021125,.031499,
-.021416,.030877,
-.021594,.030214,
-.021655,.02953,
-.02165,.02952,
-.02165,-.02952,
-.021596,-.030204,
-.021419,-.030868,
-.02113,-.031491,
-.020736,-.032054,
-.020251,-.03254,
-.019689,-.032935,
-.019067,-.033226,
-.018404,-.033404,
-.01772,-.033465,
-.01771,-.03346,
.01771,-.03346,
.018394,-.033406,
.019058,-.033229,
.019681,-.03294,
.020244,-.032546,
.02073,-.032061,
.021125,-.031499,
.021416,-.030877,
.021594,-.030214,
.021655,-.02953,
.02165,-.02952,
.02165,.02952,
.021596,.030204,
.021419,.030868,
.02113,.031491,
.020736,.032054,
.020251,.03254,
.019689,.032935,
.019067,.033226,
.018404,.033404,
.01772,.033465,
.01771,.03346,
0.0*
%
%ADD21MACRO21*%
%AMMACRO38*
4,1,44,-.00787,.0059,
-.00787,-.0059,
-.007846,-.006242,
-.007758,-.006574,
-.007614,-.006886,
-.007417,-.007167,
-.007175,-.007411,
-.006894,-.007609,
-.006583,-.007754,
-.006252,-.007844,
-.00591,-.007875,
-.0059,-.00787,
.0059,-.00787,
.006242,-.007846,
.006574,-.007758,
.006886,-.007614,
.007167,-.007417,
.007411,-.007175,
.007609,-.006894,
.007754,-.006583,
.007844,-.006252,
.007875,-.00591,
.00787,-.0059,
.00787,.0059,
.007846,.006242,
.007758,.006574,
.007614,.006886,
.007417,.007167,
.007175,.007411,
.006894,.007609,
.006583,.007754,
.006252,.007844,
.00591,.007875,
.0059,.00787,
-.0059,.00787,
-.006242,.007846,
-.006574,.007758,
-.006886,.007614,
-.007167,.007417,
-.007411,.007175,
-.007609,.006894,
-.007754,.006583,
-.007844,.006252,
-.007875,.00591,
-.00787,.0059,
0.0*
%
%ADD38MACRO38*%
%AMMACRO22*
4,1,44,-.01378,.0059,
-.01378,-.0059,
-.013751,-.006242,
-.013663,-.006574,
-.013519,-.006886,
-.013322,-.007167,
-.01308,-.007411,
-.012799,-.007609,
-.012488,-.007754,
-.012157,-.007844,
-.011815,-.007875,
-.01181,-.00787,
.01181,-.00787,
.012152,-.007845,
.012484,-.007756,
.012795,-.007611,
.013076,-.007414,
.013319,-.007171,
.013516,-.00689,
.013661,-.006579,
.01375,-.006247,
.01378,-.005905,
.01378,-.0059,
.01378,.0059,
.013751,.006242,
.013663,.006574,
.013519,.006886,
.013322,.007167,
.01308,.007411,
.012799,.007609,
.012488,.007754,
.012157,.007844,
.011815,.007875,
.01181,.00787,
-.01181,.00787,
-.012152,.007845,
-.012484,.007756,
-.012795,.007611,
-.013076,.007414,
-.013319,.007171,
-.013516,.00689,
-.013661,.006579,
-.01375,.006247,
-.01378,.005905,
-.01378,.0059,
0.0*
%
%ADD22MACRO22*%
%AMMACRO68*
4,1,44,-.0059,-.01968,
.0059,-.01968,
.008293,-.019477,
.010613,-.018856,
.012791,-.017841,
.014759,-.016464,
.016458,-.014766,
.017836,-.012799,
.018852,-.010623,
.019475,-.008303,
.019685,-.00591,
.01968,-.0059,
.01968,.0059,
.019477,.008293,
.018856,.010613,
.017841,.012791,
.016464,.014759,
.014766,.016458,
.012799,.017836,
.010623,.018852,
.008303,.019475,
.00591,.019685,
.0059,.01968,
-.0059,.01968,
-.008293,.019477,
-.010613,.018856,
-.012791,.017841,
-.014759,.016464,
-.016458,.014766,
-.017836,.012799,
-.018852,.010623,
-.019475,.008303,
-.019685,.00591,
-.01968,.0059,
-.01968,-.0059,
-.019477,-.008293,
-.018856,-.010613,
-.017841,-.012791,
-.016464,-.014759,
-.014766,-.016458,
-.012799,-.017836,
-.010623,-.018852,
-.008303,-.019475,
-.00591,-.019685,
-.0059,-.01968,
0.0*
%
%ADD68MACRO68*%
%AMMACRO40*
4,1,44,.01968,-.0059,
.01968,.0059,
.019477,.008293,
.018856,.010613,
.017841,.012791,
.016464,.014759,
.014766,.016458,
.012799,.017836,
.010623,.018852,
.008303,.019475,
.00591,.019685,
.0059,.01968,
-.0059,.01968,
-.008293,.019477,
-.010613,.018856,
-.012791,.017841,
-.014759,.016464,
-.016458,.014766,
-.017836,.012799,
-.018852,.010623,
-.019475,.008303,
-.019685,.00591,
-.01968,.0059,
-.01968,-.0059,
-.019477,-.008293,
-.018856,-.010613,
-.017841,-.012791,
-.016464,-.014759,
-.014766,-.016458,
-.012799,-.017836,
-.010623,-.018852,
-.008303,-.019475,
-.00591,-.019685,
-.0059,-.01968,
.0059,-.01968,
.008293,-.019477,
.010613,-.018856,
.012791,-.017841,
.014759,-.016464,
.016458,-.014766,
.017836,-.012799,
.018852,-.010623,
.019475,-.008303,
.019685,-.00591,
.01968,-.0059,
0.0*
%
%ADD40MACRO40*%
%AMMACRO78*
4,1,40,.02303,.02697,
-.02303,.02697,
-.023714,.02691,
-.024378,.026732,
-.025,.026442,
-.025563,.026048,
-.026048,.025563,
-.026442,.025,
-.026732,.024378,
-.02691,.023714,
-.02697,.02303,
-.02697,-.02303,
-.02691,-.023714,
-.026732,-.024378,
-.026442,-.025,
-.026048,-.025563,
-.025563,-.026048,
-.025,-.026442,
-.024378,-.026732,
-.023714,-.02691,
-.02303,-.02697,
.02303,-.02697,
.023714,-.02691,
.024378,-.026732,
.025,-.026442,
.025563,-.026048,
.026048,-.025563,
.026442,-.025,
.026732,-.024378,
.02691,-.023714,
.02697,-.02303,
.02697,.02303,
.02691,.023714,
.026732,.024378,
.026442,.025,
.026048,.025563,
.025563,.026048,
.025,.026442,
.024378,.026732,
.023714,.02691,
.02303,.02697,
0.0*
%
%ADD78MACRO78*%
%AMMACRO71*
4,1,44,.01772,.0433,
-.01772,.0433,
-.019087,.043185,
-.020412,.04283,
-.021655,.042251,
-.022779,.041464,
-.023749,.040494,
-.024536,.03937,
-.025115,.038127,
-.02547,.036802,
-.02559,.035435,
-.02559,.03543,
-.02559,-.03543,
-.025471,-.036797,
-.025117,-.038122,
-.024538,-.039366,
-.023752,-.04049,
-.022783,-.041461,
-.021659,-.042248,
-.020416,-.042829,
-.019092,-.043185,
-.017725,-.043305,
-.01772,-.0433,
.01772,-.0433,
.019087,-.043185,
.020412,-.04283,
.021655,-.042251,
.022779,-.041464,
.023749,-.040494,
.024536,-.03937,
.025115,-.038127,
.02547,-.036802,
.02559,-.035435,
.02559,-.03543,
.02559,.03543,
.025471,.036797,
.025117,.038122,
.024538,.039366,
.023752,.04049,
.022783,.041461,
.021659,.042248,
.020416,.042829,
.019092,.043185,
.017725,.043305,
.01772,.0433,
0.0*
%
%ADD71MACRO71*%
%AMMACRO69*
4,1,40,.01053,.01697,
-.01053,.01697,
-.011214,.01691,
-.011878,.016732,
-.0125,.016442,
-.013063,.016048,
-.013548,.015563,
-.013942,.015,
-.014232,.014378,
-.01441,.013714,
-.01447,.01303,
-.01447,-.01303,
-.01441,-.013714,
-.014232,-.014378,
-.013942,-.015,
-.013548,-.015563,
-.013063,-.016048,
-.0125,-.016442,
-.011878,-.016732,
-.011214,-.01691,
-.01053,-.01697,
.01053,-.01697,
.011214,-.01691,
.011878,-.016732,
.0125,-.016442,
.013063,-.016048,
.013548,-.015563,
.013942,-.015,
.014232,-.014378,
.01441,-.013714,
.01447,-.01303,
.01447,.01303,
.01441,.013714,
.014232,.014378,
.013942,.015,
.013548,.015563,
.013063,.016048,
.0125,.016442,
.011878,.016732,
.011214,.01691,
.01053,.01697,
0.0*
%
%ADD69MACRO69*%
%AMMACRO64*
4,1,40,-.0374,.02894,
-.0374,-.02894,
-.03728,-.030307,
-.036925,-.031632,
-.036346,-.032875,
-.035559,-.033999,
-.034589,-.034969,
-.033465,-.035756,
-.032222,-.036335,
-.030897,-.03669,
-.02953,-.03681,
.02953,-.03681,
.030897,-.03669,
.032222,-.036335,
.033465,-.035756,
.034589,-.034969,
.035559,-.033999,
.036346,-.032875,
.036925,-.031632,
.03728,-.030307,
.0374,-.02894,
.0374,.02894,
.03728,.030307,
.036925,.031632,
.036346,.032875,
.035559,.033999,
.034589,.034969,
.033465,.035756,
.032222,.036335,
.030897,.03669,
.02953,.03681,
-.02953,.03681,
-.030897,.03669,
-.032222,.036335,
-.033465,.035756,
-.034589,.034969,
-.035559,.033999,
-.036346,.032875,
-.036925,.031632,
-.03728,.030307,
-.0374,.02894,
0.0*
%
%ADD64MACRO64*%
%AMMACRO47*
4,1,44,.00787,.01673,
-.00787,.01673,
-.008212,.016701,
-.008544,.016613,
-.008856,.016469,
-.009137,.016272,
-.009381,.01603,
-.009579,.015749,
-.009724,.015438,
-.009814,.015107,
-.009845,.014765,
-.00984,.01476,
-.00984,-.01476,
-.009815,-.015102,
-.009726,-.015434,
-.009581,-.015745,
-.009384,-.016026,
-.009141,-.016269,
-.00886,-.016466,
-.008549,-.016611,
-.008217,-.0167,
-.007875,-.01673,
-.00787,-.01673,
.00787,-.01673,
.008212,-.016701,
.008544,-.016613,
.008856,-.016469,
.009137,-.016272,
.009381,-.01603,
.009579,-.015749,
.009724,-.015438,
.009814,-.015107,
.009845,-.014765,
.00984,-.01476,
.00984,.01476,
.009815,.015102,
.009726,.015434,
.009581,.015745,
.009384,.016026,
.009141,.016269,
.00886,.016466,
.008549,.016611,
.008217,.0167,
.007875,.01673,
.00787,.01673,
0.0*
%
%ADD47MACRO47*%
%ADD81C,.005*%
%ADD82C,.004*%
G75*
%LPD*%
G75*
G54D10*
X-1289000Y979300D03*
Y1201170D03*
X-996530Y979300D03*
Y1201170D03*
G54D20*
X-1283949Y948197D03*
X-1287295D03*
X-1261902D03*
X-1265051D03*
G54D11*
X-1293334Y996366D03*
G54D21*
X-1289114Y959316D03*
G54D12*
X-1293334Y1006366D03*
X-1177475Y996081D03*
X-1163695Y943916D03*
X-1125258Y988120D03*
X-1120258Y978120D03*
X-1115258Y988120D03*
X-1110258Y978120D03*
X-1105258Y988120D03*
X-1090258Y978120D03*
X-1100258D03*
X-1095258Y988120D03*
X-1080258Y978120D03*
X-1085258Y988120D03*
G54D30*
X-1283310Y1113201D03*
X-1280160Y1094301D03*
Y1097451D03*
X-1277010D03*
X-1280000Y1100300D03*
X-1280160Y1103751D03*
X-1280100Y1109800D03*
X-1277010Y1103751D03*
X-1274000Y1110000D03*
X-1277010Y1110051D03*
X-1274343Y1112759D03*
X-1277010Y1119039D03*
X-1274100Y1121600D03*
X-1274322Y1134789D03*
X-1272800Y1137200D03*
X-1274509Y1128787D03*
X-1280126Y1138368D03*
X-1274300Y1131260D03*
X-1277472Y1131639D03*
X-1274322Y1141089D03*
X-1278395Y1141042D03*
X-1277472Y1144239D03*
X-1274322D03*
X-1268500Y1094300D03*
X-1261260Y1097451D03*
Y1094301D03*
Y1100601D03*
X-1264410Y1103751D03*
X-1264100Y1113600D03*
X-1261260Y1113201D03*
X-1270400Y1109600D03*
X-1268299Y1103351D03*
X-1265000Y1110100D03*
X-1261606Y1122306D03*
X-1266973Y1122976D03*
X-1261722Y1119039D03*
X-1261478Y1125078D03*
X-1266963Y1120233D03*
X-1261661Y1138340D03*
X-1265748Y1136840D03*
X-1260880Y1145300D03*
X-1258300Y1113400D03*
X-1258330Y1122431D03*
X-1258400Y1134789D03*
X-1257074Y1127805D03*
X-1249400Y1127800D03*
X-1252700Y1134839D03*
X-1258130Y1141531D03*
X-1257955Y1144856D03*
X-1243200Y1127500D03*
G54D40*
X-1256951Y1187714D03*
X-1219300Y1046700D03*
X-1203577Y1091039D03*
X-1043519Y1140807D03*
G54D22*
X-1285177Y959316D03*
Y956757D03*
X-1293051D03*
Y959316D03*
X-1285177Y961875D03*
X-1293051D03*
G54D31*
X-1286034Y1120619D03*
Y1118613D03*
Y1136423D03*
Y1134417D03*
X-1288720Y1136462D03*
Y1134456D03*
X-1283420Y1136468D03*
Y1134462D03*
X-1277230Y1113197D03*
X-1279830D03*
X-1279870Y1119703D03*
Y1117697D03*
X-1277230Y1115203D03*
X-1279830D03*
X-1267020Y1143356D03*
Y1141350D03*
X-1264486Y1143335D03*
Y1141329D03*
X-1269620Y1143404D03*
Y1141398D03*
X-1260134Y1182721D03*
Y1180715D03*
X-1262033Y1209841D03*
Y1207835D03*
X-1264001Y1209841D03*
Y1207835D03*
X-1252766Y1112343D03*
Y1110337D03*
X-1256127Y1209809D03*
Y1207803D03*
X-1258095Y1209809D03*
Y1207803D03*
X-1230000Y1166373D03*
Y1164367D03*
X-1205334Y1112782D03*
X-1205434Y1125155D03*
Y1123149D03*
X-1205334Y1114788D03*
X-1209934Y1117788D03*
Y1115782D03*
X-1209434Y1131488D03*
Y1129482D03*
X-1199834Y1137888D03*
Y1135882D03*
X-1207334Y1146255D03*
Y1144249D03*
X-1202534Y1142988D03*
Y1140982D03*
X-1209834Y1142888D03*
Y1140882D03*
X-1197834Y1113017D03*
Y1115023D03*
X-1188234Y1124588D03*
Y1122582D03*
X-1195434Y1124582D03*
X-1188351Y1129092D03*
Y1127086D03*
X-1192234Y1138188D03*
Y1136182D03*
X-1195434Y1126588D03*
X-1190934Y1129588D03*
Y1127582D03*
X-1198034Y1130188D03*
Y1128182D03*
X-1197534Y1142755D03*
Y1140749D03*
X-1190334Y1142343D03*
Y1140337D03*
X-1187734Y1142288D03*
Y1140282D03*
X-1163734Y1130588D03*
Y1128582D03*
X-1161134Y1130543D03*
Y1128537D03*
X-1156613Y1194711D03*
Y1192705D03*
X-1124352Y1022971D03*
Y1020965D03*
X-1127034Y1022969D03*
Y1020963D03*
X-1118073Y1023069D03*
Y1021063D03*
G54D13*
X-1290099Y1020061D03*
X-1225533D03*
G54D23*
X-1284300Y992866D03*
X-1289983Y1101304D03*
X-1293625D03*
X-1280658Y992866D03*
X-1259127Y976934D03*
X-1262769D03*
X-1259119Y980634D03*
X-1262761D03*
X-1263515Y1190356D03*
X-1267157D03*
X-1252091Y1183656D03*
X-1255733D03*
X-1248275Y1190456D03*
X-1251917D03*
X-1230523Y971534D03*
X-1234165D03*
X-1230527Y975250D03*
X-1234169D03*
X-1225169Y1170904D03*
X-1215255Y1072834D03*
X-1218897D03*
X-1215255Y1076634D03*
X-1218897D03*
X-1215179Y1084504D03*
X-1218821D03*
X-1221527Y1170904D03*
X-1212827Y1170956D03*
X-1216469D03*
X-1200299Y1063904D03*
X-1203941D03*
X-1200351Y1067804D03*
X-1203993D03*
X-1201351Y1167204D03*
X-1205107Y1171004D03*
X-1208749D03*
X-1190509Y1167204D03*
X-1194151D03*
X-1197709D03*
X-1186949D03*
X-1183307D03*
X-1163421Y1099995D03*
X-1163352Y1188325D03*
X-1166994D03*
X-1170500Y1198689D03*
X-1174142D03*
X-1156015Y1026534D03*
X-1159657D03*
X-1159779Y1099995D03*
X-1158194Y1165361D03*
X-1161836D03*
X-1146511Y1019612D03*
X-1150153D03*
X-1140721Y1014900D03*
X-1143052Y1029040D03*
X-1146694D03*
X-1142952Y1032860D03*
X-1146594D03*
X-1141221Y1164800D03*
X-1137079Y1014900D03*
X-1134079Y1093100D03*
X-1137721D03*
X-1137579Y1164800D03*
X-1123279D03*
X-1126921D03*
X-1115979D03*
X-1119621D03*
X-1109383Y1034707D03*
X-1113025D03*
X-1103461Y1067200D03*
X-1107103D03*
X-1110977Y1189216D03*
X-1114619D03*
X-1096577Y1189153D03*
X-1100219D03*
X-1092942Y1192800D03*
X-1096577D03*
X-1100219D03*
X-1089300D03*
X-1082000D03*
X-1078358D03*
X-1061879Y1074004D03*
X-1065521D03*
X-1061879Y1077774D03*
X-1065521D03*
X-1061879Y1081504D03*
X-1065521D03*
X-1061879Y1085276D03*
X-1065521D03*
X-1061879Y1097714D03*
X-1065521D03*
X-1061879Y1101428D03*
X-1065521D03*
X-1061879Y1105204D03*
X-1065521D03*
X-1056355Y1189756D03*
X-1044189D03*
X-1047831D03*
X-1052713D03*
X-1044129Y1208000D03*
X-1047771D03*
X-1044129Y1204486D03*
X-1047771D03*
X-1044129Y1211700D03*
X-1047771D03*
X-1032658D03*
X-1036300D03*
G54D14*
X-1294788Y1034056D03*
Y1037756D03*
Y1041386D03*
Y1045086D03*
X-1294818Y1048756D03*
X-1290788Y1034056D03*
Y1037756D03*
Y1041386D03*
Y1045086D03*
X-1290818Y1048756D03*
X-988776Y945822D03*
X-992776D03*
X-988776Y948986D03*
X-992776D03*
X-988776Y955314D03*
X-992776D03*
X-988776Y952150D03*
X-992776D03*
X-988776Y958478D03*
X-992776D03*
X-988776Y961642D03*
X-992776D03*
G54D32*
X-1283686Y1214855D03*
X-1281717D03*
X-1279749D03*
X-1277780D03*
X-1275812D03*
X-1273843D03*
X-1271875D03*
X-1269906D03*
X-1267938D03*
X-1265969D03*
X-1264001D03*
X-1262032D03*
X-1260064D03*
X-1258095D03*
X-1256127D03*
X-1254158D03*
X-1252190D03*
X-1250221D03*
X-1248253D03*
X-1246284D03*
X-1244316D03*
X-1242347D03*
X-1240379D03*
X-1238410D03*
X-1236442D03*
X-1234473D03*
X-1232505D03*
X-1230536D03*
X-1228568D03*
X-1226599D03*
X-1224631D03*
X-1222662D03*
X-1220694D03*
X-1218725D03*
X-1216757D03*
X-1214788D03*
X-1212820D03*
X-1210851D03*
X-1208883D03*
X-1206914D03*
X-1175831Y1215073D03*
X-1177799D03*
X-1164020D03*
X-1165988D03*
X-1167957D03*
X-1169925D03*
X-1171894D03*
X-1173862D03*
X-1152209D03*
X-1154177D03*
X-1156146D03*
X-1158114D03*
X-1160083D03*
X-1162051D03*
X-1140398D03*
X-1142366D03*
X-1144335D03*
X-1146303D03*
X-1148272D03*
X-1150240D03*
X-1136461D03*
X-1138429D03*
G54D41*
X-1242508Y931176D03*
G54D50*
X-1212040Y1136785D03*
X-1210622Y1138203D03*
X-1195191Y1138966D03*
X-1193773Y1140384D03*
G54D60*
X-1125258Y953120D03*
X-1080258D03*
G54D51*
X-1203650Y974766D03*
X-1192550D03*
G54D15*
X-1294254Y1088736D03*
X-1288254D03*
X-1068420Y1194750D03*
X-1062420D03*
G54D33*
X-1271547Y948197D03*
X-1273516D03*
X-1275484D03*
X-1277453D03*
X-1279421D03*
X-1281390D03*
X-1267610D03*
X-1269579D03*
G54D24*
X-1289900Y1068396D03*
Y1060404D03*
X-1259900Y1064400D03*
X-1041316Y1050456D03*
X-1011316Y1046460D03*
Y1054452D03*
G54D42*
X-1242508Y941176D03*
Y951176D03*
G54D52*
X-1201600Y982350D03*
Y988650D03*
G54D70*
X-1054737Y1232617D03*
X-1031509D03*
G54D16*
X-1292150Y1221745D03*
X-1198450D03*
G54D25*
X-1284900Y1061900D03*
Y1066900D03*
X-1279900Y1061900D03*
X-1274900D03*
X-1269900D03*
X-1279900Y1066900D03*
X-1274900D03*
X-1269900D03*
X-1264900Y1061900D03*
Y1066900D03*
X-1031316Y1052956D03*
X-1036316D03*
X-1031316Y1047956D03*
X-1036316D03*
X-1021316Y1052956D03*
X-1026316D03*
X-1021316Y1047956D03*
X-1026316D03*
X-1016316Y1052956D03*
Y1047956D03*
G54D34*
X-1270366Y956855D03*
X-1274366Y956851D03*
X-1270366Y960497D03*
X-1274366Y960493D03*
X-1272414Y1194149D03*
Y1197791D03*
X-1268666Y1194199D03*
Y1197841D03*
X-1254314Y958871D03*
X-1258114Y958867D03*
X-1250550Y958871D03*
X-1254314Y962513D03*
X-1258114Y962509D03*
X-1250550Y962513D03*
X-1235400Y958871D03*
X-1239100D03*
X-1235400Y962513D03*
X-1239100D03*
X-1245266Y1183499D03*
Y1187141D03*
X-1233900Y979879D03*
Y983521D03*
X-1206800Y983279D03*
Y986921D03*
X-1209766Y1019147D03*
Y1022789D03*
X-1189880Y998773D03*
Y1002415D03*
X-1159614Y1016083D03*
Y1019725D03*
X-1158000Y1127400D03*
Y1131042D03*
X-1075514Y1036791D03*
Y1040433D03*
X-1079214Y1036791D03*
Y1040433D03*
X-1075514Y1043955D03*
Y1047597D03*
X-1079214Y1043955D03*
Y1047597D03*
X-1075514Y1051123D03*
Y1054765D03*
X-1079214Y1051111D03*
Y1054753D03*
X-1068114Y1051123D03*
Y1054765D03*
X-1064414Y1036791D03*
Y1040433D03*
X-1060714Y1036791D03*
Y1040433D03*
Y1043955D03*
Y1047597D03*
X-1064414Y1043955D03*
Y1047597D03*
X-1060714Y1051123D03*
Y1054765D03*
X-1064414Y1051123D03*
Y1054765D03*
X-1062300Y1200179D03*
Y1203821D03*
X-1040400Y1208129D03*
Y1211771D03*
X-999980Y960923D03*
Y964565D03*
G54D61*
X-1133762Y965128D03*
X-1071754D03*
X-1062338D03*
X-1009346D03*
G54D43*
X-1241534Y984150D03*
Y978150D03*
G54D71*
X-1050466Y1000007D03*
Y1030321D03*
X-1040466Y1000007D03*
Y1030321D03*
X-1025000Y999707D03*
Y1030021D03*
X-1015000Y999707D03*
Y1030021D03*
G54D80*
X-989660Y999462D03*
Y1015998D03*
Y1042062D03*
Y1058598D03*
Y1170932D03*
Y1187468D03*
G54D35*
X-1278386Y956831D03*
Y960473D03*
X-1273186Y1161937D03*
Y1165579D03*
X-1266386Y956871D03*
Y960513D03*
X-1262286Y1161937D03*
X-1265886D03*
X-1258686D03*
X-1269486D03*
X-1262286Y1165579D03*
X-1265886D03*
X-1258686D03*
X-1269486D03*
X-1246850Y958871D03*
X-1254934Y969459D03*
X-1251234Y969463D03*
X-1246850Y962513D03*
X-1254934Y973101D03*
X-1251234Y973105D03*
X-1255086Y1161937D03*
X-1247886D03*
X-1251486D03*
X-1255086Y1165579D03*
X-1247886D03*
X-1251486D03*
X-1243000Y958879D03*
Y962521D03*
X-1230000Y983521D03*
Y979879D03*
X-1206800Y994221D03*
Y990579D03*
X-1210600Y1148649D03*
Y1152291D03*
X-1196186Y983399D03*
Y987041D03*
X-1163200Y1085321D03*
Y1081679D03*
X-1155986Y1016071D03*
Y1019713D03*
X-1159987Y1196596D03*
Y1192954D03*
X-1141880Y1025187D03*
Y1021545D03*
X-1130286Y1025187D03*
Y1021545D03*
X-1138020Y1025187D03*
Y1021545D03*
X-1134134Y1025187D03*
Y1021545D03*
X-1121227Y1025187D03*
Y1021545D03*
X-1114873Y1025387D03*
Y1021745D03*
X-1071786Y1054765D03*
Y1051123D03*
X-999920Y957173D03*
Y953531D03*
G54D17*
X-1291429Y929299D03*
Y945835D03*
X-1257571Y929299D03*
Y945835D03*
G54D53*
X-1201338Y995216D03*
Y1006816D03*
X-1199368Y995216D03*
X-1197408D03*
X-1195438D03*
Y1006816D03*
X-1197408D03*
X-1199368D03*
G54D26*
X-1287400Y1083500D03*
X-1273600Y983900D03*
X-1279455Y1087784D03*
X-1267834Y970331D03*
X-1267997Y978531D03*
X-1260800Y1106800D03*
X-1234400Y1098300D03*
X-1224500Y972100D03*
X-1222100Y993100D03*
X-1193655Y1091095D03*
X-1184421Y1099158D03*
X-1043519Y1133751D03*
G54D44*
X-1227726Y953726D03*
X-1203474D03*
G54D62*
X-1114095Y1229638D03*
X-1071575D03*
G54D81*
G01X-990330Y922200D02*
X-1295300D01*
G02X-1300300Y927200I0J5000D01*
G01Y1232170D01*
G01D02*
G02X-1295300Y1237170I5000J0D01*
G01D02*
X-990330D01*
G01X-985330Y927200D02*
G02X-990330Y922200I-5000J0D01*
G01X-985330Y1232170D02*
Y927200D01*
G01X-990330Y1237170D02*
G02X-985330Y1232170I0J-5000D01*
G54D54*
X-1185870Y1227463D03*
X-1128390Y1227464D03*
G54D36*
X-1260814Y1141420D03*
X-1263381Y1175404D03*
X-1265387D03*
X-1258808Y1141420D03*
X-1254453Y1180404D03*
X-1256459D03*
X-1254469Y1177704D03*
X-1256475D03*
X-1217097Y1066734D03*
X-1219103D03*
X-1217097Y1069434D03*
X-1219103D03*
X-1216073Y1080034D03*
X-1218079D03*
X-1212433Y1134104D03*
X-1201153Y1012434D03*
X-1200327Y1114804D03*
X-1202333D03*
X-1200882Y1125004D03*
X-1202888D03*
X-1200682Y1122404D03*
X-1202688D03*
X-1210427Y1134104D03*
X-1201182Y1127604D03*
X-1203188D03*
X-1201082Y1130204D03*
X-1203088D03*
X-1201282Y1133404D03*
X-1203288D03*
X-1200633Y1163904D03*
X-1199147Y1012434D03*
X-1193248Y1114587D03*
X-1195254D03*
X-1187682Y1110904D03*
X-1189688D03*
X-1188027Y1120004D03*
X-1190033D03*
X-1188833Y1114804D03*
X-1191782Y1122404D03*
X-1193788D03*
X-1190782Y1125004D03*
X-1192788D03*
X-1195227Y1136241D03*
X-1197233D03*
X-1193482Y1129204D03*
X-1195488D03*
X-1198627Y1163904D03*
X-1191235D03*
X-1193241D03*
X-1186827Y1114804D03*
X-1183647Y1122804D03*
X-1185653D03*
X-1183927Y1130401D03*
X-1185933D03*
X-1184982Y1163904D03*
X-1186988D03*
X-1158147Y1023134D03*
X-1160153D03*
X-1153125Y1103054D03*
Y1105654D03*
X-1153193Y1111636D03*
Y1124664D03*
Y1118526D03*
Y1115486D03*
Y1121626D03*
Y1134630D03*
Y1131630D03*
Y1128530D03*
X-1152810Y1162261D03*
X-1154816D03*
X-1146257Y1025487D03*
X-1148263D03*
X-1146229Y1022892D03*
X-1148235D03*
X-1151119Y1103054D03*
Y1105654D03*
X-1151187Y1111636D03*
X-1140593D03*
X-1142599D03*
X-1146437D03*
X-1148443D03*
X-1151187Y1124664D03*
X-1140593D03*
X-1142599D03*
X-1151187Y1118526D03*
Y1115486D03*
Y1121626D03*
X-1140593D03*
X-1142599D03*
X-1140593Y1115486D03*
X-1142599D03*
X-1140593Y1118526D03*
X-1142599D03*
X-1146437Y1124664D03*
X-1148443D03*
X-1146437Y1118526D03*
X-1148443D03*
X-1146437Y1115486D03*
X-1148443D03*
X-1146437Y1121626D03*
X-1148443D03*
X-1140593Y1134610D03*
X-1142599D03*
X-1146437Y1134630D03*
X-1148443D03*
X-1151187D03*
X-1140593Y1131530D03*
X-1142599D03*
X-1151187Y1131630D03*
Y1128530D03*
X-1140593D03*
X-1142599D03*
X-1146437Y1131630D03*
X-1148443D03*
X-1146437Y1128530D03*
X-1148443D03*
X-1141366Y1189256D03*
X-1143372D03*
X-1129957Y1046967D03*
X-1131963D03*
X-1135767Y1111636D03*
X-1137773D03*
X-1135767Y1124664D03*
X-1137773D03*
X-1135767Y1121626D03*
X-1137773D03*
X-1135767Y1115486D03*
X-1137773D03*
X-1135767Y1118526D03*
X-1137773D03*
X-1135767Y1134610D03*
X-1137773D03*
X-1135767Y1131530D03*
X-1137773D03*
X-1135767Y1128530D03*
X-1137773D03*
X-1039447Y1201500D03*
X-1041453D03*
G54D18*
X-1280406Y930283D03*
X-1268594D03*
G54D27*
X-1293609Y1097536D03*
X-1289967D03*
X-1262721Y973300D03*
X-1259079D03*
X-1243997Y968766D03*
X-1240355D03*
X-1233921Y987400D03*
X-1230279D03*
X-1219767Y1063414D03*
X-1216125D03*
X-1218891Y1088236D03*
X-1215249D03*
X-1216497Y1167236D03*
X-1212855D03*
X-1203913Y1072496D03*
X-1200271D03*
X-1201429Y1170936D03*
X-1195209Y1064036D03*
X-1191567D03*
X-1194125Y1170936D03*
X-1190483D03*
X-1186989D03*
X-1197787D03*
X-1182721Y1045500D03*
X-1179079D03*
X-1182721Y1049300D03*
X-1179079D03*
X-1183347Y1170936D03*
X-1163421Y1096021D03*
X-1167000Y1184558D03*
X-1163358D03*
X-1170800Y1176739D03*
X-1167158D03*
X-1152943Y1099686D03*
X-1159779Y1096021D03*
X-1145792Y974866D03*
X-1142150D03*
X-1145792Y982680D03*
X-1142150D03*
X-1145792Y978880D03*
X-1142150D03*
X-1145792Y990588D03*
X-1142150D03*
X-1145792Y986688D03*
X-1142150D03*
X-1150273Y1015868D03*
X-1146631D03*
X-1146594Y1036627D03*
X-1142952D03*
X-1145021Y1093100D03*
X-1141379D03*
X-1149301Y1099686D03*
X-1148500Y1164800D03*
X-1144858D03*
X-1150052Y1192544D03*
X-1146410D03*
X-1117921Y1012034D03*
X-1125221Y1017700D03*
X-1121579D03*
X-1116600Y1067200D03*
X-1124542D03*
X-1120900D03*
X-1114279Y1012034D03*
X-1112941Y1030900D03*
X-1109299D03*
X-1113021Y1038566D03*
X-1109379D03*
X-1112958Y1067200D03*
X-1107427Y1189247D03*
X-1103785D03*
X-1107427Y1192800D03*
X-1103785D03*
X-1092959Y1189144D03*
X-1089317D03*
X-1065521Y1089021D03*
X-1061879D03*
X-1056355Y1208000D03*
Y1204486D03*
Y1211700D03*
X-1052713Y1208000D03*
Y1204486D03*
Y1211700D03*
X-1034141Y1195700D03*
X-1030499D03*
G54D45*
X-1223868Y961600D03*
X-1212844D03*
X-1218356D03*
X-1207332D03*
G54D72*
X-1050178Y1062729D03*
G54D63*
X-1104646Y1200504D03*
X-1096772D03*
X-1088898D03*
X-1081024D03*
G54D82*
G01X-990330Y1237170D02*
X-1295300D01*
G03X-1300300Y1232170I0J-5000D01*
G01Y927200D01*
G03X-1295300Y922200I5000J0D01*
G01X-990330D01*
G03X-985330Y927200I0J5000D01*
G01Y1232170D01*
G03X-990330Y1237170I-5000J0D01*
G54D64*
X-1090400Y1049261D03*
Y1065339D03*
X-1057900Y1147861D03*
Y1163939D03*
G54D73*
X-1052540Y1067848D03*
Y1072178D03*
Y1076509D03*
Y1080840D03*
Y1085170D03*
Y1089501D03*
Y1093832D03*
Y1098163D03*
Y1102493D03*
G54D37*
X-1269648Y1182842D03*
X-1263348D03*
X-1269648Y1186636D03*
X-1263348D03*
X-1269648Y1179000D03*
X-1263348D03*
X-1127927Y1012034D03*
X-1121627D03*
X-1039480Y1164165D03*
X-1033180D03*
X-1029172D03*
X-1022872D03*
X-1018572D03*
X-1012272D03*
G54D55*
X-1182396Y948444D03*
Y983877D03*
X-1156806Y958680D03*
Y996081D03*
G54D19*
X-1285878Y943669D03*
X-1263122D03*
G54D28*
X-1292549Y1093284D03*
X-1290543D03*
X-1279503Y1124036D03*
X-1277497D03*
X-1265023Y1193636D03*
X-1263017D03*
X-1253389Y1186836D03*
X-1251383D03*
X-1224773Y1163936D03*
X-1224818Y1166636D03*
X-1218165Y1091536D03*
X-1216159D03*
X-1214403Y1130517D03*
X-1212397D03*
X-1222767Y1163936D03*
X-1222812Y1166636D03*
X-1215418Y1163936D03*
X-1213412D03*
X-1202975Y1078652D03*
X-1200969D03*
X-1202873Y1075796D03*
X-1200867D03*
X-1210274Y1121705D03*
X-1208268D03*
X-1210218Y1124236D03*
X-1208212D03*
X-1207881Y1134136D03*
X-1205875D03*
X-1210218Y1126736D03*
X-1208212D03*
X-1207765Y1164036D03*
X-1205759D03*
X-1194373Y1067236D03*
X-1192367D03*
X-1194418Y1069836D03*
X-1192412D03*
X-1190118Y1117436D03*
X-1188112D03*
X-1198229Y1132736D03*
X-1196223D03*
X-1181703Y1042100D03*
X-1179697D03*
X-1165203Y1181111D03*
X-1174517Y1182761D03*
X-1172511D03*
X-1174517Y1185561D03*
X-1172511D03*
X-1174503Y1180000D03*
X-1172497D03*
X-1174517Y1191961D03*
X-1172511D03*
X-1174517Y1188761D03*
X-1172511D03*
X-1174517Y1195161D03*
X-1172511D03*
X-1157603Y1136900D03*
X-1155597D03*
X-1163295Y1138400D03*
X-1161289D03*
X-1163295Y1141200D03*
X-1161289D03*
X-1157603Y1139800D03*
X-1155597D03*
X-1157603Y1142600D03*
X-1155597D03*
X-1163295Y1144000D03*
X-1161289D03*
X-1157603Y1145400D03*
X-1155597D03*
X-1163295Y1146800D03*
X-1161289D03*
X-1157603Y1148200D03*
X-1155597D03*
X-1159590Y1162239D03*
X-1157584D03*
X-1163197Y1181111D03*
X-1140869Y1018220D03*
X-1138863D03*
X-1130269Y1018206D03*
X-1128263D03*
X-1118673Y1018200D03*
X-1116667D03*
X-1119355Y1027952D03*
X-1117349D03*
X-1119391Y1034448D03*
X-1117385D03*
X-1119343Y1037093D03*
X-1117337D03*
X-1063897Y1094636D03*
X-1061891D03*
X-1063921Y1092136D03*
X-1061915D03*
X-1067917Y1190164D03*
X-1065911D03*
G54D46*
X-1215600Y931679D03*
G54D47*
X-1214493Y972291D03*
X-1211147D03*
X-1214493Y979575D03*
X-1211147D03*
G54D38*
X-1262033Y1207738D03*
X-1264001D03*
X-1262033Y1210100D03*
X-1264001D03*
X-1256127Y1207544D03*
Y1209906D03*
X-1258095D03*
Y1207544D03*
G54D56*
X-1179682Y1193869D03*
X-1146200Y1011700D03*
X-1082370Y1187779D03*
X-1061500Y1210500D03*
X-1018383Y1195189D03*
X-1011483Y1200189D03*
Y1210189D03*
X-1018383Y1205189D03*
Y1215189D03*
G54D65*
X-1078404Y1081656D03*
Y1172994D03*
G54D29*
X-1286300Y1095597D03*
Y1097603D03*
X-1283534Y1107367D03*
Y1109373D03*
X-1286100Y1123297D03*
Y1125303D03*
X-1286034Y1139021D03*
Y1141027D03*
X-1288680Y1139026D03*
Y1141032D03*
X-1283480Y1139014D03*
Y1141020D03*
X-1262766Y1196231D03*
X-1265466Y1196235D03*
X-1260100Y1196231D03*
X-1262766Y1198237D03*
X-1265466Y1198241D03*
X-1260100Y1198237D03*
X-1257166Y1094647D03*
Y1096653D03*
X-1257466Y1104341D03*
Y1106347D03*
X-1252766Y1122547D03*
Y1124553D03*
Y1114937D03*
Y1116943D03*
X-1255380Y1122320D03*
Y1124326D03*
Y1115002D03*
Y1117008D03*
X-1252766Y1139017D03*
Y1141023D03*
X-1248466Y1183085D03*
Y1185091D03*
X-1210666Y1110889D03*
Y1112895D03*
X-1207898Y1110876D03*
Y1112882D03*
X-1201966Y1110052D03*
Y1112058D03*
X-1207366Y1117152D03*
Y1119158D03*
X-1201366Y1117552D03*
Y1119558D03*
X-1203966Y1117352D03*
Y1119358D03*
X-1207966Y1136785D03*
X-1202866Y1136189D03*
Y1138195D03*
X-1205748Y1128466D03*
Y1130472D03*
X-1205466Y1136752D03*
X-1207966Y1138791D03*
X-1205466Y1138758D03*
X-1198800Y1086997D03*
Y1089003D03*
X-1197747Y1108467D03*
Y1110473D03*
X-1198166Y1122985D03*
Y1124991D03*
X-1193617Y1117120D03*
Y1119126D03*
X-1196166Y1118752D03*
Y1120758D03*
X-1198766Y1117552D03*
Y1119558D03*
X-1189966Y1132113D03*
Y1134119D03*
X-1193466Y1131752D03*
Y1133758D03*
X-1185005Y1091455D03*
Y1093461D03*
X-1184266Y1114997D03*
Y1117003D03*
X-1163700Y1116597D03*
Y1118603D03*
X-1163839Y1175497D03*
Y1177503D03*
X-1128000Y1193778D03*
Y1195784D03*
X-1123960Y1193778D03*
Y1195784D03*
X-1119800Y1193678D03*
Y1195684D03*
X-1113568Y1045025D03*
Y1047031D03*
X-1086114Y1188003D03*
Y1190009D03*
X-1037450Y1195377D03*
Y1197383D03*
X-1024996Y1202743D03*
Y1204749D03*
G54D74*
X-1050571Y1120997D03*
G54D39*
X-1254466Y980650D03*
X-1248366Y980750D03*
X-1254466Y986650D03*
X-1248366Y986750D03*
G54D66*
X-1071600Y1061800D03*
Y1068800D03*
G54D75*
X-1049029Y1217066D03*
X-1045092D03*
X-1041154D03*
X-1037217D03*
G54D57*
X-1167632Y960491D03*
Y955944D03*
X-1171570Y958219D03*
Y953672D03*
X-1167632Y951396D03*
X-1171570Y971861D03*
X-1167632Y969585D03*
X-1171570Y967314D03*
X-1167632Y965038D03*
X-1171570Y962766D03*
X-1167632Y983227D03*
X-1171570Y980955D03*
X-1167632Y978680D03*
X-1171570Y976408D03*
X-1167632Y974133D03*
Y992322D03*
Y987774D03*
X-1171570Y990050D03*
Y985503D03*
X-1011201Y1074147D03*
Y1105643D03*
X-993400Y999069D03*
Y1016391D03*
Y1041669D03*
Y1058991D03*
Y1170539D03*
Y1187861D03*
G54D48*
X-1213650Y1032834D03*
X-1219650D03*
G54D67*
X-1055842Y953120D03*
X-1015842D03*
G54D76*
X-1035329Y1206181D03*
Y1201359D03*
X-1028931Y1206181D03*
Y1201359D03*
G54D58*
X-1154939Y1078191D03*
Y1179609D03*
X-1144939Y1078191D03*
Y1179609D03*
X-1134939Y1078191D03*
Y1179609D03*
X-1114939Y1078191D03*
X-1124939D03*
Y1179609D03*
X-1114939D03*
X-1104939Y1078191D03*
Y1179609D03*
X-1094939Y1078191D03*
Y1179609D03*
X-1084939Y1078191D03*
Y1179609D03*
G54D49*
X-1214021Y1119061D03*
X-1212603Y1117643D03*
X-1187434Y1136638D03*
X-1186016Y1135220D03*
G54D68*
X-1055500Y1171300D03*
X-1048100D03*
X-1014856Y1172411D03*
X-1006719D03*
G54D59*
X-1128860Y937136D03*
X-1118860D03*
X-1086656D03*
X-1076656D03*
X-1043342Y978120D03*
X-1033342D03*
X-1038342Y988120D03*
X-1028342D03*
G54D77*
X-1012776Y1062729D03*
Y1124541D03*
G54D69*
X-1057115Y1193520D03*
X-1051997D03*
X-1048450D03*
X-1054615Y1200520D03*
X-1045950D03*
X-1043332Y1193520D03*
G54D78*
X-999306Y1007730D03*
Y1050330D03*
Y1179200D03*
G54D79*
X-998518Y1001037D03*
Y1014423D03*
Y1043637D03*
Y1057023D03*
Y1172507D03*
Y1185893D03*
M02*
