G04 ================== begin FILE IDENTIFICATION RECORD ==================*
G04 Layout Name:  beagleplayv022_10.brd*
G04 Film Name:    sold_bottom*
G04 File Format:  Gerber RS274X*
G04 File Origin:  Cadence Allegro 17.4-S032*
G04 Origin Date:  Wed Feb 15 11:40:44 2023*
G04 *
G04 Layer:  PIN/SOLDERMASK_BOTTOM*
G04 Layer:  PACKAGE GEOMETRY/SOLDERMASK_BOTTOM*
G04 Layer:  BOARD GEOMETRY/SOLDERMASK_BOTTOM*
G04 Layer:  BOARD GEOMETRY/OUTLINE*
G04 *
G04 Offset:    (0.00 0.00)*
G04 Mirror:    No*
G04 Mode:      Positive*
G04 Rotation:  0*
G04 FullContactRelief:  No*
G04 UndefLineWidth:     4.00*
G04 ================== end FILE IDENTIFICATION RECORD ====================*
%FSLAX25Y25*MOIN*%
%IR0*IPPOS*OFA0.00000B0.00000*MIA0B0*SFA1.00000B1.00000*%
%AMMACRO85*
4,1,44,-.02197,-.01082,
-.02197,.01082,
-.021941,.011162,
-.021853,.011494,
-.021709,.011806,
-.021512,.012087,
-.02127,.012331,
-.020989,.012529,
-.020678,.012674,
-.020347,.012764,
-.020005,.012795,
-.02,.01279,
.02,.01279,
.020342,.012765,
.020674,.012676,
.020985,.012531,
.021266,.012334,
.021509,.012091,
.021706,.01181,
.021851,.011499,
.02194,.011167,
.02197,.010825,
.02197,.01082,
.02197,-.01082,
.021941,-.011162,
.021853,-.011494,
.021709,-.011806,
.021512,-.012087,
.02127,-.012331,
.020989,-.012529,
.020678,-.012674,
.020347,-.012764,
.020005,-.012795,
.02,-.01279,
-.02,-.01279,
-.020342,-.012765,
-.020674,-.012676,
-.020985,-.012531,
-.021266,-.012334,
-.021509,-.012091,
-.021706,-.01181,
-.021851,-.011499,
-.02194,-.011167,
-.02197,-.010825,
-.02197,-.01082,
0.0*
%
%ADD85MACRO85*%
%AMMACRO36*
4,1,40,-.01303,.03197,
.01303,.03197,
.013714,.03191,
.014378,.031732,
.015,.031442,
.015563,.031048,
.016048,.030563,
.016442,.03,
.016732,.029378,
.01691,.028714,
.01697,.02803,
.01697,-.02803,
.01691,-.028714,
.016732,-.029378,
.016442,-.03,
.016048,-.030563,
.015563,-.031048,
.015,-.031442,
.014378,-.031732,
.013714,-.03191,
.01303,-.03197,
-.01303,-.03197,
-.013714,-.03191,
-.014378,-.031732,
-.015,-.031442,
-.015563,-.031048,
-.016048,-.030563,
-.016442,-.03,
-.016732,-.029378,
-.01691,-.028714,
-.01697,-.02803,
-.01697,.02803,
-.01691,.028714,
-.016732,.029378,
-.016442,.03,
-.016048,.030563,
-.015563,.031048,
-.015,.031442,
-.014378,.031732,
-.013714,.03191,
-.01303,.03197,
0.0*
%
%ADD36MACRO36*%
%AMMACRO24*
4,1,44,-.00787,.01673,
.00787,.01673,
.008212,.016701,
.008544,.016613,
.008856,.016469,
.009137,.016272,
.009381,.01603,
.009579,.015749,
.009724,.015438,
.009814,.015107,
.009845,.014765,
.00984,.01476,
.00984,-.01476,
.009815,-.015102,
.009726,-.015434,
.009581,-.015745,
.009384,-.016026,
.009141,-.016269,
.00886,-.016466,
.008549,-.016611,
.008217,-.0167,
.007875,-.01673,
.00787,-.01673,
-.00787,-.01673,
-.008212,-.016701,
-.008544,-.016613,
-.008856,-.016469,
-.009137,-.016272,
-.009381,-.01603,
-.009579,-.015749,
-.009724,-.015438,
-.009814,-.015107,
-.009845,-.014765,
-.00984,-.01476,
-.00984,.01476,
-.009815,.015102,
-.009726,.015434,
-.009581,.015745,
-.009384,.016026,
-.009141,.016269,
-.00886,.016466,
-.008549,.016611,
-.008217,.0167,
-.007875,.01673,
-.00787,.01673,
0.0*
%
%ADD24MACRO24*%
%AMMACRO96*
4,1,40,-.02447,-.01803,
-.02447,.01803,
-.02441,.018714,
-.024232,.019378,
-.023942,.02,
-.023548,.020563,
-.023063,.021048,
-.0225,.021442,
-.021878,.021732,
-.021214,.02191,
-.02053,.02197,
.02053,.02197,
.021214,.02191,
.021878,.021732,
.0225,.021442,
.023063,.021048,
.023548,.020563,
.023942,.02,
.024232,.019378,
.02441,.018714,
.02447,.01803,
.02447,-.01803,
.02441,-.018714,
.024232,-.019378,
.023942,-.02,
.023548,-.020563,
.023063,-.021048,
.0225,-.021442,
.021878,-.021732,
.021214,-.02191,
.02053,-.02197,
-.02053,-.02197,
-.021214,-.02191,
-.021878,-.021732,
-.0225,-.021442,
-.023063,-.021048,
-.023548,-.020563,
-.023942,-.02,
-.024232,-.019378,
-.02441,-.018714,
-.02447,-.01803,
0.0*
%
%ADD96MACRO96*%
%AMMACRO84*
4,1,44,-.01378,-.00787,
-.01378,.00787,
-.013751,.008212,
-.013663,.008544,
-.013519,.008856,
-.013322,.009137,
-.01308,.009381,
-.012799,.009579,
-.012488,.009724,
-.012157,.009814,
-.011815,.009845,
-.01181,.00984,
.01181,.00984,
.012152,.009815,
.012484,.009726,
.012795,.009581,
.013076,.009384,
.013319,.009141,
.013516,.00886,
.013661,.008549,
.01375,.008217,
.01378,.007875,
.01378,.00787,
.01378,-.00787,
.013751,-.008212,
.013663,-.008544,
.013519,-.008856,
.013322,-.009137,
.01308,-.009381,
.012799,-.009579,
.012488,-.009724,
.012157,-.009814,
.011815,-.009845,
.01181,-.00984,
-.01181,-.00984,
-.012152,-.009815,
-.012484,-.009726,
-.012795,-.009581,
-.013076,-.009384,
-.013319,-.009141,
-.013516,-.00886,
-.013661,-.008549,
-.01375,-.008217,
-.01378,-.007875,
-.01378,-.00787,
0.0*
%
%ADD84MACRO84*%
%AMMACRO42*
4,1,40,-.02947,-.01803,
-.02947,.01803,
-.02941,.018714,
-.029232,.019378,
-.028942,.02,
-.028548,.020563,
-.028063,.021048,
-.0275,.021442,
-.026878,.021732,
-.026214,.02191,
-.02553,.02197,
.02553,.02197,
.026214,.02191,
.026878,.021732,
.0275,.021442,
.028063,.021048,
.028548,.020563,
.028942,.02,
.029232,.019378,
.02941,.018714,
.02947,.01803,
.02947,-.01803,
.02941,-.018714,
.029232,-.019378,
.028942,-.02,
.028548,-.020563,
.028063,-.021048,
.0275,-.021442,
.026878,-.021732,
.026214,-.02191,
.02553,-.02197,
-.02553,-.02197,
-.026214,-.02191,
-.026878,-.021732,
-.0275,-.021442,
-.028063,-.021048,
-.028548,-.020563,
-.028942,-.02,
-.029232,-.019378,
-.02941,-.018714,
-.02947,-.01803,
0.0*
%
%ADD42MACRO42*%
%AMMACRO112*
4,1,44,-.00787,.01378,
.00787,.01378,
.008212,.013751,
.008544,.013663,
.008856,.013519,
.009137,.013322,
.009381,.01308,
.009579,.012799,
.009724,.012488,
.009814,.012157,
.009845,.011815,
.00984,.01181,
.00984,-.01181,
.009815,-.012152,
.009726,-.012484,
.009581,-.012795,
.009384,-.013076,
.009141,-.013319,
.00886,-.013516,
.008549,-.013661,
.008217,-.01375,
.007875,-.01378,
.00787,-.01378,
-.00787,-.01378,
-.008212,-.013751,
-.008544,-.013663,
-.008856,-.013519,
-.009137,-.013322,
-.009381,-.01308,
-.009579,-.012799,
-.009724,-.012488,
-.009814,-.012157,
-.009845,-.011815,
-.00984,-.01181,
-.00984,.01181,
-.009815,.012152,
-.009726,.012484,
-.009581,.012795,
-.009384,.013076,
-.009141,.013319,
-.00886,.013516,
-.008549,.013661,
-.008217,.01375,
-.007875,.01378,
-.00787,.01378,
0.0*
%
%ADD112MACRO112*%
%AMMACRO41*
4,1,40,-.01803,.02947,
.01803,.02947,
.018714,.02941,
.019378,.029232,
.02,.028942,
.020563,.028548,
.021048,.028063,
.021442,.0275,
.021732,.026878,
.02191,.026214,
.02197,.02553,
.02197,-.02553,
.02191,-.026214,
.021732,-.026878,
.021442,-.0275,
.021048,-.028063,
.020563,-.028548,
.02,-.028942,
.019378,-.029232,
.018714,-.02941,
.01803,-.02947,
-.01803,-.02947,
-.018714,-.02941,
-.019378,-.029232,
-.02,-.028942,
-.020563,-.028548,
-.021048,-.028063,
-.021442,-.0275,
-.021732,-.026878,
-.02191,-.026214,
-.02197,-.02553,
-.02197,.02553,
-.02191,.026214,
-.021732,.026878,
-.021442,.0275,
-.021048,.028063,
-.020563,.028548,
-.02,.028942,
-.019378,.029232,
-.018714,.02941,
-.01803,.02947,
0.0*
%
%ADD41MACRO41*%
%ADD44O,.121X.063*%
%AMMACRO17*
4,1,40,-.01553,.01947,
.01553,.01947,
.016214,.01941,
.016878,.019232,
.0175,.018942,
.018063,.018548,
.018548,.018063,
.018942,.0175,
.019232,.016878,
.01941,.016214,
.01947,.01553,
.01947,-.01553,
.01941,-.016214,
.019232,-.016878,
.018942,-.0175,
.018548,-.018063,
.018063,-.018548,
.0175,-.018942,
.016878,-.019232,
.016214,-.01941,
.01553,-.01947,
-.01553,-.01947,
-.016214,-.01941,
-.016878,-.019232,
-.0175,-.018942,
-.018063,-.018548,
-.018548,-.018063,
-.018942,-.0175,
-.019232,-.016878,
-.01941,-.016214,
-.01947,-.01553,
-.01947,.01553,
-.01941,.016214,
-.019232,.016878,
-.018942,.0175,
-.018548,.018063,
-.018063,.018548,
-.0175,.018942,
-.016878,.019232,
-.016214,.01941,
-.01553,.01947,
0.0*
%
%ADD17MACRO17*%
%AMMACRO109*
4,1,40,-.00194,-.00972,
-.00972,-.00194,
-.009948,-.001676,
-.010122,-.001374,
-.010241,-.001047,
-.010301,-.000703,
-.010301,-.000355,
-.01024,-.000011,
-.010121,.000316,
-.009946,.000618,
-.00972,.00088,
-.00088,.00972,
-.000616,.009947,
-.000314,.010121,
.000013,.010241,
.000357,.010301,
.000705,.010301,
.001049,.01024,
.001376,.010121,
.001678,.009946,
.00194,.00972,
.00972,.00194,
.009948,.001676,
.010122,.001374,
.010241,.001047,
.010301,.000703,
.010301,.000355,
.01024,.000011,
.010121,-.000316,
.009946,-.000618,
.00972,-.00088,
.00088,-.00972,
.000616,-.009947,
.000314,-.010121,
-.000013,-.010241,
-.000357,-.010301,
-.000705,-.010301,
-.001049,-.01024,
-.001376,-.010121,
-.001678,-.009946,
-.00194,-.00972,
0.0*
%
%ADD109MACRO109*%
%AMMACRO100*
4,1,40,.00194,.00972,
.00972,.00194,
.009948,.001676,
.010122,.001374,
.010241,.001047,
.010301,.000703,
.010301,.000355,
.01024,.000011,
.010121,-.000316,
.009946,-.000618,
.00972,-.00088,
.00088,-.00972,
.000616,-.009947,
.000314,-.010121,
-.000013,-.010241,
-.000357,-.010301,
-.000705,-.010301,
-.001049,-.01024,
-.001376,-.010121,
-.001678,-.009946,
-.00194,-.00972,
-.00972,-.00194,
-.009948,-.001676,
-.010122,-.001374,
-.010241,-.001047,
-.010301,-.000703,
-.010301,-.000355,
-.01024,-.000011,
-.010121,.000316,
-.009946,.000618,
-.00972,.00088,
-.00088,.00972,
-.000616,.009947,
-.000314,.010121,
.000013,.010241,
.000357,.010301,
.000705,.010301,
.001049,.01024,
.001376,.010121,
.001678,.009946,
.00194,.00972,
0.0*
%
%ADD100MACRO100*%
%AMMACRO51*
4,1,40,-.00591,.03248,
.00591,.03248,
.007277,.03236,
.008602,.032005,
.009845,.031426,
.010969,.030639,
.011939,.029669,
.012726,.028545,
.013305,.027302,
.01366,.025977,
.01378,.02461,
.01378,-.02461,
.01366,-.025977,
.013305,-.027302,
.012726,-.028545,
.011939,-.029669,
.010969,-.030639,
.009845,-.031426,
.008602,-.032005,
.007277,-.03236,
.00591,-.03248,
-.00591,-.03248,
-.007277,-.03236,
-.008602,-.032005,
-.009845,-.031426,
-.010969,-.030639,
-.011939,-.029669,
-.012726,-.028545,
-.013305,-.027302,
-.01366,-.025977,
-.01378,-.02461,
-.01378,.02461,
-.01366,.025977,
-.013305,.027302,
-.012726,.028545,
-.011939,.029669,
-.010969,.030639,
-.009845,.031426,
-.008602,.032005,
-.007277,.03236,
-.00591,.03248,
0.0*
%
%ADD51MACRO51*%
%AMMACRO37*
4,1,40,.0055,-.00825,
-.0055,-.00825,
-.005847,-.00822,
-.006184,-.008129,
-.0065,-.007982,
-.006786,-.007782,
-.007032,-.007536,
-.007232,-.00725,
-.007379,-.006934,
-.00747,-.006597,
-.0075,-.00625,
-.0075,.00625,
-.00747,.006597,
-.007379,.006934,
-.007232,.00725,
-.007032,.007536,
-.006786,.007782,
-.0065,.007982,
-.006184,.008129,
-.005847,.00822,
-.0055,.00825,
.0055,.00825,
.005847,.00822,
.006184,.008129,
.0065,.007982,
.006786,.007782,
.007032,.007536,
.007232,.00725,
.007379,.006934,
.00747,.006597,
.0075,.00625,
.0075,-.00625,
.00747,-.006597,
.007379,-.006934,
.007232,-.00725,
.007032,-.007536,
.006786,-.007782,
.0065,-.007982,
.006184,-.008129,
.005847,-.00822,
.0055,-.00825,
0.0*
%
%ADD37MACRO37*%
%AMMACRO29*
4,1,40,.00825,.0055,
.00825,-.0055,
.00822,-.005847,
.008129,-.006184,
.007982,-.0065,
.007782,-.006786,
.007536,-.007032,
.00725,-.007232,
.006934,-.007379,
.006597,-.00747,
.00625,-.0075,
-.00625,-.0075,
-.006597,-.00747,
-.006934,-.007379,
-.00725,-.007232,
-.007536,-.007032,
-.007782,-.006786,
-.007982,-.0065,
-.008129,-.006184,
-.00822,-.005847,
-.00825,-.0055,
-.00825,.0055,
-.00822,.005847,
-.008129,.006184,
-.007982,.0065,
-.007782,.006786,
-.007536,.007032,
-.00725,.007232,
-.006934,.007379,
-.006597,.00747,
-.00625,.0075,
.00625,.0075,
.006597,.00747,
.006934,.007379,
.00725,.007232,
.007536,.007032,
.007782,.006786,
.007982,.0065,
.008129,.006184,
.00822,.005847,
.00825,.0055,
0.0*
%
%ADD29MACRO29*%
%ADD25C,.02*%
%AMMACRO113*
4,1,44,.00029,-.00991,
-.00903,-.00408,
-.009311,-.003875,
-.00955,-.00362,
-.00974,-.003328,
-.009877,-.003008,
-.009956,-.002668,
-.009975,-.00232,
-.009933,-.001974,
-.009832,-.00164,
-.009675,-.001329,
-.00967,-.00132,
-.00304,.00927,
-.002838,.009553,
-.002583,.009791,
-.002291,.009981,
-.00197,.010117,
-.00163,.010195,
-.001282,.010214,
-.000936,.010171,
-.000603,.010069,
-.000292,.009911,
-.00029,.00991,
.00903,.00408,
.009311,.003875,
.00955,.00362,
.00974,.003328,
.009877,.003008,
.009956,.002668,
.009975,.00232,
.009933,.001974,
.009832,.00164,
.009675,.001329,
.00967,.00132,
.00304,-.00927,
.002838,-.009553,
.002583,-.009791,
.002291,-.009981,
.00197,-.010117,
.00163,-.010195,
.001282,-.010214,
.000936,-.010171,
.000603,-.010069,
.000292,-.009911,
.00029,-.00991,
0.0*
%
%ADD113MACRO113*%
%ADD43C,.014*%
%AMMACRO75*
4,1,44,-.03622,.04409,
.03622,.04409,
.037587,.043976,
.038912,.043622,
.040156,.043043,
.04128,.042257,
.042251,.041288,
.043038,.040164,
.043619,.038921,
.043975,.037597,
.044095,.03623,
.04409,.03622,
.04409,-.03622,
.043976,-.037587,
.043622,-.038912,
.043043,-.040156,
.042257,-.04128,
.041288,-.042251,
.040164,-.043038,
.038921,-.043619,
.037597,-.043975,
.03623,-.044095,
.03622,-.04409,
-.03622,-.04409,
-.037587,-.043976,
-.038912,-.043622,
-.040156,-.043043,
-.04128,-.042257,
-.042251,-.041288,
-.043038,-.040164,
-.043619,-.038921,
-.043975,-.037597,
-.044095,-.03623,
-.04409,-.03622,
-.04409,.03622,
-.043976,.037587,
-.043622,.038912,
-.043043,.040156,
-.042257,.04128,
-.041288,.042251,
-.040164,.043038,
-.038921,.043619,
-.037597,.043975,
-.03623,.044095,
-.03622,.04409,
0.0*
%
%ADD75MACRO75*%
%ADD30C,.015*%
%ADD58C,.035*%
%ADD98R,.04X.04*%
%ADD80C,.05512*%
%ADD16C,.02362*%
%ADD55C,.03543*%
%ADD40C,.05118*%
%AMMACRO60*
4,1,44,.01575,.00393,
.01575,-.00393,
.015721,-.004272,
.015633,-.004604,
.015489,-.004916,
.015292,-.005197,
.01505,-.005441,
.014769,-.005639,
.014458,-.005784,
.014127,-.005874,
.013785,-.005905,
.01378,-.0059,
-.01378,-.0059,
-.014122,-.005875,
-.014454,-.005786,
-.014765,-.005641,
-.015046,-.005444,
-.015289,-.005201,
-.015486,-.00492,
-.015631,-.004609,
-.01572,-.004277,
-.01575,-.003935,
-.01575,-.00393,
-.01575,.00393,
-.015721,.004272,
-.015633,.004604,
-.015489,.004916,
-.015292,.005197,
-.01505,.005441,
-.014769,.005639,
-.014458,.005784,
-.014127,.005874,
-.013785,.005905,
-.01378,.0059,
.01378,.0059,
.014122,.005875,
.014454,.005786,
.014765,.005641,
.015046,.005444,
.015289,.005201,
.015486,.00492,
.015631,.004609,
.01572,.004277,
.01575,.003935,
.01575,.00393,
0.0*
%
%ADD60MACRO60*%
%ADD35C,.079*%
%ADD68O,.06693X.1063*%
%ADD19C,.04724*%
%ADD66C,.0748*%
%ADD39C,.09055*%
%ADD87R,.03353X.03353*%
%AMMACRO74*
4,1,44,.00688,-.02756,
-.00688,-.02756,
-.007564,-.027501,
-.008228,-.027324,
-.008851,-.027035,
-.009414,-.026641,
-.0099,-.026156,
-.010295,-.025594,
-.010586,-.024972,
-.010764,-.024309,
-.010825,-.023625,
-.01082,-.02362,
-.01082,.02362,
-.010765,.024304,
-.010587,.024968,
-.010297,.02559,
-.009903,.026153,
-.009418,.026638,
-.008855,.027032,
-.008233,.027322,
-.007569,.0275,
-.006885,.02756,
-.00688,.02756,
.00688,.02756,
.007564,.027501,
.008228,.027324,
.008851,.027035,
.009414,.026641,
.0099,.026156,
.010295,.025594,
.010586,.024972,
.010764,.024309,
.010825,.023625,
.01082,.02362,
.01082,-.02362,
.010765,-.024304,
.010587,-.024968,
.010297,-.02559,
.009903,-.026153,
.009418,-.026638,
.008855,-.027032,
.008233,-.027322,
.007569,-.0275,
.006885,-.02756,
.00688,-.02756,
0.0*
%
%ADD74MACRO74*%
%AMMACRO63*
4,1,44,-.08858,.10039,
.08858,.10039,
.090631,.100216,
.09262,.099684,
.094486,.098815,
.096172,.097635,
.097629,.09618,
.09881,.094494,
.099681,.092629,
.100215,.090641,
.100395,.08859,
.10039,.08858,
.10039,-.08858,
.100216,-.090631,
.099684,-.09262,
.098815,-.094486,
.097635,-.096172,
.09618,-.097629,
.094494,-.09881,
.092629,-.099681,
.090641,-.100215,
.08859,-.100395,
.08858,-.10039,
-.08858,-.10039,
-.090631,-.100216,
-.09262,-.099684,
-.094486,-.098815,
-.096172,-.097635,
-.097629,-.09618,
-.09881,-.094494,
-.099681,-.092629,
-.100215,-.090641,
-.100395,-.08859,
-.10039,-.08858,
-.10039,.08858,
-.100216,.090631,
-.099684,.09262,
-.098815,.094486,
-.097635,.096172,
-.09618,.097629,
-.094494,.09881,
-.092629,.099681,
-.090641,.100215,
-.08859,.100395,
-.08858,.10039,
0.0*
%
%ADD63MACRO63*%
%AMMACRO59*
4,1,40,-.06496,.07677,
.06496,.07677,
.067011,.076591,
.068999,.076058,
.070865,.075188,
.072551,.074007,
.074007,.072551,
.075188,.070865,
.076058,.068999,
.076591,.067011,
.07677,.06496,
.07677,-.06496,
.076591,-.067011,
.076058,-.068999,
.075188,-.070865,
.074007,-.072551,
.072551,-.074007,
.070865,-.075188,
.068999,-.076058,
.067011,-.076591,
.06496,-.07677,
-.06496,-.07677,
-.067011,-.076591,
-.068999,-.076058,
-.070865,-.075188,
-.072551,-.074007,
-.074007,-.072551,
-.075188,-.070865,
-.076058,-.068999,
-.076591,-.067011,
-.07677,-.06496,
-.07677,.06496,
-.076591,.067011,
-.076058,.068999,
-.075188,.070865,
-.074007,.072551,
-.072551,.074007,
-.070865,.075188,
-.068999,.076058,
-.067011,.076591,
-.06496,.07677,
0.0*
%
%ADD59MACRO59*%
%AMMACRO23*
4,1,40,.00984,-.01181,
-.00984,-.01181,
-.010182,-.01178,
-.010514,-.011691,
-.010825,-.011546,
-.011106,-.011349,
-.011349,-.011106,
-.011546,-.010825,
-.011691,-.010514,
-.01178,-.010182,
-.01181,-.00984,
-.01181,.00984,
-.01178,.010182,
-.011691,.010514,
-.011546,.010825,
-.011349,.011106,
-.011106,.011349,
-.010825,.011546,
-.010514,.011691,
-.010182,.01178,
-.00984,.01181,
.00984,.01181,
.010182,.01178,
.010514,.011691,
.010825,.011546,
.011106,.011349,
.011349,.011106,
.011546,.010825,
.011691,.010514,
.01178,.010182,
.01181,.00984,
.01181,-.00984,
.01178,-.010182,
.011691,-.010514,
.011546,-.010825,
.011349,-.011106,
.011106,-.011349,
.010825,-.011546,
.010514,-.011691,
.010182,-.01178,
.00984,-.01181,
0.0*
%
%ADD23MACRO23*%
%AMMACRO20*
4,1,40,.01181,.00984,
.01181,-.00984,
.01178,-.010182,
.011691,-.010514,
.011546,-.010825,
.011349,-.011106,
.011106,-.011349,
.010825,-.011546,
.010514,-.011691,
.010182,-.01178,
.00984,-.01181,
-.00984,-.01181,
-.010182,-.01178,
-.010514,-.011691,
-.010825,-.011546,
-.011106,-.011349,
-.011349,-.011106,
-.011546,-.010825,
-.011691,-.010514,
-.01178,-.010182,
-.01181,-.00984,
-.01181,.00984,
-.01178,.010182,
-.011691,.010514,
-.011546,.010825,
-.011349,.011106,
-.011106,.011349,
-.010825,.011546,
-.010514,.011691,
-.010182,.01178,
-.00984,.01181,
.00984,.01181,
.010182,.01178,
.010514,.011691,
.010825,.011546,
.011106,.011349,
.011349,.011106,
.011546,.010825,
.011691,.010514,
.01178,.010182,
.01181,.00984,
0.0*
%
%ADD20MACRO20*%
%AMMACRO103*
4,1,44,.01575,.0059,
.01575,-.0059,
.015721,-.006242,
.015633,-.006574,
.015489,-.006886,
.015292,-.007167,
.01505,-.007411,
.014769,-.007609,
.014458,-.007754,
.014127,-.007844,
.013785,-.007875,
.01378,-.00787,
-.01378,-.00787,
-.014122,-.007845,
-.014454,-.007756,
-.014765,-.007611,
-.015046,-.007414,
-.015289,-.007171,
-.015486,-.00689,
-.015631,-.006579,
-.01572,-.006247,
-.01575,-.005905,
-.01575,-.0059,
-.01575,.0059,
-.015721,.006242,
-.015633,.006574,
-.015489,.006886,
-.015292,.007167,
-.01505,.007411,
-.014769,.007609,
-.014458,.007754,
-.014127,.007844,
-.013785,.007875,
-.01378,.00787,
.01378,.00787,
.014122,.007845,
.014454,.007756,
.014765,.007611,
.015046,.007414,
.015289,.007171,
.015486,.00689,
.015631,.006579,
.01572,.006247,
.01575,.005905,
.01575,.0059,
0.0*
%
%ADD103MACRO103*%
%AMMACRO101*
4,1,44,.0059,-.01575,
-.0059,-.01575,
-.006242,-.015721,
-.006574,-.015633,
-.006886,-.015489,
-.007167,-.015292,
-.007411,-.01505,
-.007609,-.014769,
-.007754,-.014458,
-.007844,-.014127,
-.007875,-.013785,
-.00787,-.01378,
-.00787,.01378,
-.007845,.014122,
-.007756,.014454,
-.007611,.014765,
-.007414,.015046,
-.007171,.015289,
-.00689,.015486,
-.006579,.015631,
-.006247,.01572,
-.005905,.01575,
-.0059,.01575,
.0059,.01575,
.006242,.015721,
.006574,.015633,
.006886,.015489,
.007167,.015292,
.007411,.01505,
.007609,.014769,
.007754,.014458,
.007844,.014127,
.007875,.013785,
.00787,.01378,
.00787,-.01378,
.007845,-.014122,
.007756,-.014454,
.007611,-.014765,
.007414,-.015046,
.007171,-.015289,
.00689,-.015486,
.006579,-.015631,
.006247,-.01572,
.005905,-.01575,
.0059,-.01575,
0.0*
%
%ADD101MACRO101*%
%AMMACRO57*
4,1,40,.0374,.01181,
.0374,-.01181,
.03734,-.012494,
.037162,-.013158,
.036872,-.01378,
.036478,-.014343,
.035993,-.014828,
.03543,-.015222,
.034808,-.015512,
.034144,-.01569,
.03346,-.01575,
-.03346,-.01575,
-.034144,-.01569,
-.034808,-.015512,
-.03543,-.015222,
-.035993,-.014828,
-.036478,-.014343,
-.036872,-.01378,
-.037162,-.013158,
-.03734,-.012494,
-.0374,-.01181,
-.0374,.01181,
-.03734,.012494,
-.037162,.013158,
-.036872,.01378,
-.036478,.014343,
-.035993,.014828,
-.03543,.015222,
-.034808,.015512,
-.034144,.01569,
-.03346,.01575,
.03346,.01575,
.034144,.01569,
.034808,.015512,
.03543,.015222,
.035993,.014828,
.036478,.014343,
.036872,.01378,
.037162,.013158,
.03734,.012494,
.0374,.01181,
0.0*
%
%ADD57MACRO57*%
%ADD34R,.079X.079*%
%ADD91R,.04337X.04337*%
%AMMACRO64*
4,1,40,.01575,.00492,
.01575,-.00492,
.01572,-.005262,
.015631,-.005594,
.015486,-.005905,
.015289,-.006186,
.015046,-.006429,
.014765,-.006626,
.014454,-.006771,
.014122,-.00686,
.01378,-.00689,
-.01378,-.00689,
-.014122,-.00686,
-.014454,-.006771,
-.014765,-.006626,
-.015046,-.006429,
-.015289,-.006186,
-.015486,-.005905,
-.015631,-.005594,
-.01572,-.005262,
-.01575,-.00492,
-.01575,.00492,
-.01572,.005262,
-.015631,.005594,
-.015486,.005905,
-.015289,.006186,
-.015046,.006429,
-.014765,.006626,
-.014454,.006771,
-.014122,.00686,
-.01378,.00689,
.01378,.00689,
.014122,.00686,
.014454,.006771,
.014765,.006626,
.015046,.006429,
.015289,.006186,
.015486,.005905,
.015631,.005594,
.01572,.005262,
.01575,.00492,
0.0*
%
%ADD64MACRO64*%
%ADD53O,.07087X.1378*%
%AMMACRO14*
4,1,40,.015,-.01575,
-.015,-.01575,
-.015342,-.01572,
-.015674,-.015631,
-.015985,-.015486,
-.016266,-.015289,
-.016509,-.015046,
-.016706,-.014765,
-.016851,-.014454,
-.01694,-.014122,
-.01697,-.01378,
-.01697,.01378,
-.01694,.014122,
-.016851,.014454,
-.016706,.014765,
-.016509,.015046,
-.016266,.015289,
-.015985,.015486,
-.015674,.015631,
-.015342,.01572,
-.015,.01575,
.015,.01575,
.015342,.01572,
.015674,.015631,
.015985,.015486,
.016266,.015289,
.016509,.015046,
.016706,.014765,
.016851,.014454,
.01694,.014122,
.01697,.01378,
.01697,-.01378,
.01694,-.014122,
.016851,-.014454,
.016706,-.014765,
.016509,-.015046,
.016266,-.015289,
.015985,-.015486,
.015674,-.015631,
.015342,-.01572,
.015,-.01575,
0.0*
%
%ADD14MACRO14*%
%ADD12C,.06693*%
%AMMACRO108*
4,1,40,.02559,.00788,
.02559,-.00788,
.02547,-.009247,
.025115,-.010572,
.024536,-.011815,
.023749,-.012939,
.022779,-.013909,
.021655,-.014696,
.020412,-.015275,
.019087,-.01563,
.01772,-.01575,
-.01772,-.01575,
-.019087,-.01563,
-.020412,-.015275,
-.021655,-.014696,
-.022779,-.013909,
-.023749,-.012939,
-.024536,-.011815,
-.025115,-.010572,
-.02547,-.009247,
-.02559,-.00788,
-.02559,.00788,
-.02547,.009247,
-.025115,.010572,
-.024536,.011815,
-.023749,.012939,
-.022779,.013909,
-.021655,.014696,
-.020412,.015275,
-.019087,.01563,
-.01772,.01575,
.01772,.01575,
.019087,.01563,
.020412,.015275,
.021655,.014696,
.022779,.013909,
.023749,.012939,
.024536,.011815,
.025115,.010572,
.02547,.009247,
.02559,.00788,
0.0*
%
%ADD108MACRO108*%
%AMMACRO70*
4,1,40,.01378,.00984,
.01378,-.00984,
.01375,-.010182,
.013661,-.010514,
.013516,-.010825,
.013319,-.011106,
.013076,-.011349,
.012795,-.011546,
.012484,-.011691,
.012152,-.01178,
.01181,-.01181,
-.01181,-.01181,
-.012152,-.01178,
-.012484,-.011691,
-.012795,-.011546,
-.013076,-.011349,
-.013319,-.011106,
-.013516,-.010825,
-.013661,-.010514,
-.01375,-.010182,
-.01378,-.00984,
-.01378,.00984,
-.01375,.010182,
-.013661,.010514,
-.013516,.010825,
-.013319,.011106,
-.013076,.011349,
-.012795,.011546,
-.012484,.011691,
-.012152,.01178,
-.01181,.01181,
.01181,.01181,
.012152,.01178,
.012484,.011691,
.012795,.011546,
.013076,.011349,
.013319,.011106,
.013516,.010825,
.013661,.010514,
.01375,.010182,
.01378,.00984,
0.0*
%
%ADD70MACRO70*%
%AMMACRO104*
4,1,44,.03346,.01771,
.03346,-.01771,
.033406,-.018394,
.033229,-.019058,
.03294,-.019681,
.032546,-.020244,
.032061,-.02073,
.031499,-.021125,
.030877,-.021416,
.030214,-.021594,
.02953,-.021655,
.02952,-.02165,
-.02952,-.02165,
-.030204,-.021596,
-.030868,-.021419,
-.031491,-.02113,
-.032054,-.020736,
-.03254,-.020251,
-.032935,-.019689,
-.033226,-.019067,
-.033404,-.018404,
-.033465,-.01772,
-.03346,-.01771,
-.03346,.01771,
-.033406,.018394,
-.033229,.019058,
-.03294,.019681,
-.032546,.020244,
-.032061,.02073,
-.031499,.021125,
-.030877,.021416,
-.030214,.021594,
-.02953,.021655,
-.02952,.02165,
.02952,.02165,
.030204,.021596,
.030868,.021419,
.031491,.02113,
.032054,.020736,
.03254,.020251,
.032935,.019689,
.033226,.019067,
.033404,.018404,
.033465,.01772,
.03346,.01771,
0.0*
%
%ADD104MACRO104*%
%ADD11R,.06693X.06693*%
%AMMACRO54*
4,1,44,.0059,-.00787,
-.0059,-.00787,
-.006242,-.007846,
-.006574,-.007758,
-.006886,-.007614,
-.007167,-.007417,
-.007411,-.007175,
-.007609,-.006894,
-.007754,-.006583,
-.007844,-.006252,
-.007875,-.00591,
-.00787,-.0059,
-.00787,.0059,
-.007846,.006242,
-.007758,.006574,
-.007614,.006886,
-.007417,.007167,
-.007175,.007411,
-.006894,.007609,
-.006583,.007754,
-.006252,.007844,
-.00591,.007875,
-.0059,.00787,
.0059,.00787,
.006242,.007846,
.006574,.007758,
.006886,.007614,
.007167,.007417,
.007411,.007175,
.007609,.006894,
.007754,.006583,
.007844,.006252,
.007875,.00591,
.00787,.0059,
.00787,-.0059,
.007846,-.006242,
.007758,-.006574,
.007614,-.006886,
.007417,-.007167,
.007175,-.007411,
.006894,-.007609,
.006583,-.007754,
.006252,-.007844,
.00591,-.007875,
.0059,-.00787,
0.0*
%
%ADD54MACRO54*%
%AMMACRO105*
4,1,44,.0059,-.01378,
-.0059,-.01378,
-.006242,-.013751,
-.006574,-.013663,
-.006886,-.013519,
-.007167,-.013322,
-.007411,-.01308,
-.007609,-.012799,
-.007754,-.012488,
-.007844,-.012157,
-.007875,-.011815,
-.00787,-.01181,
-.00787,.01181,
-.007845,.012152,
-.007756,.012484,
-.007611,.012795,
-.007414,.013076,
-.007171,.013319,
-.00689,.013516,
-.006579,.013661,
-.006247,.01375,
-.005905,.01378,
-.0059,.01378,
.0059,.01378,
.006242,.013751,
.006574,.013663,
.006886,.013519,
.007167,.013322,
.007411,.01308,
.007609,.012799,
.007754,.012488,
.007844,.012157,
.007875,.011815,
.00787,.01181,
.00787,-.01181,
.007845,-.012152,
.007756,-.012484,
.007611,-.012795,
.007414,-.013076,
.007171,-.013319,
.00689,-.013516,
.006579,-.013661,
.006247,-.01375,
.005905,-.01378,
.0059,-.01378,
0.0*
%
%ADD105MACRO105*%
%AMMACRO95*
4,1,44,.01378,.0059,
.01378,-.0059,
.013751,-.006242,
.013663,-.006574,
.013519,-.006886,
.013322,-.007167,
.01308,-.007411,
.012799,-.007609,
.012488,-.007754,
.012157,-.007844,
.011815,-.007875,
.01181,-.00787,
-.01181,-.00787,
-.012152,-.007845,
-.012484,-.007756,
-.012795,-.007611,
-.013076,-.007414,
-.013319,-.007171,
-.013516,-.00689,
-.013661,-.006579,
-.01375,-.006247,
-.01378,-.005905,
-.01378,-.0059,
-.01378,.0059,
-.013751,.006242,
-.013663,.006574,
-.013519,.006886,
-.013322,.007167,
-.01308,.007411,
-.012799,.007609,
-.012488,.007754,
-.012157,.007844,
-.011815,.007875,
-.01181,.00787,
.01181,.00787,
.012152,.007845,
.012484,.007756,
.012795,.007611,
.013076,.007414,
.013319,.007171,
.013516,.00689,
.013661,.006579,
.01375,.006247,
.01378,.005905,
.01378,.0059,
0.0*
%
%ADD95MACRO95*%
%AMMACRO97*
4,1,44,.01279,.0059,
.01279,-.0059,
.012766,-.006242,
.012678,-.006574,
.012534,-.006886,
.012337,-.007167,
.012095,-.007411,
.011814,-.007609,
.011503,-.007754,
.011172,-.007844,
.01083,-.007875,
.01082,-.00787,
-.01082,-.00787,
-.011162,-.007846,
-.011494,-.007758,
-.011806,-.007614,
-.012087,-.007417,
-.012331,-.007175,
-.012529,-.006894,
-.012674,-.006583,
-.012764,-.006252,
-.012795,-.00591,
-.01279,-.0059,
-.01279,.0059,
-.012766,.006242,
-.012678,.006574,
-.012534,.006886,
-.012337,.007167,
-.012095,.007411,
-.011814,.007609,
-.011503,.007754,
-.011172,.007844,
-.01083,.007875,
-.01082,.00787,
.01082,.00787,
.011162,.007846,
.011494,.007758,
.011806,.007614,
.012087,.007417,
.012331,.007175,
.012529,.006894,
.012674,.006583,
.012764,.006252,
.012795,.00591,
.01279,.0059,
0.0*
%
%ADD97MACRO97*%
%AMMACRO77*
4,1,40,.00492,-.01378,
-.00492,-.01378,
-.005262,-.01375,
-.005594,-.013661,
-.005905,-.013516,
-.006186,-.013319,
-.006429,-.013076,
-.006626,-.012795,
-.006771,-.012484,
-.00686,-.012152,
-.00689,-.01181,
-.00689,.01181,
-.00686,.012152,
-.006771,.012484,
-.006626,.012795,
-.006429,.013076,
-.006186,.013319,
-.005905,.013516,
-.005594,.013661,
-.005262,.01375,
-.00492,.01378,
.00492,.01378,
.005262,.01375,
.005594,.013661,
.005905,.013516,
.006186,.013319,
.006429,.013076,
.006626,.012795,
.006771,.012484,
.00686,.012152,
.00689,.01181,
.00689,-.01181,
.00686,-.012152,
.006771,-.012484,
.006626,-.012795,
.006429,-.013076,
.006186,-.013319,
.005905,-.013516,
.005594,-.013661,
.005262,-.01375,
.00492,-.01378,
0.0*
%
%ADD77MACRO77*%
%AMMACRO93*
4,1,40,.03197,.01303,
.03197,-.01303,
.03191,-.013714,
.031732,-.014378,
.031442,-.015,
.031048,-.015563,
.030563,-.016048,
.03,-.016442,
.029378,-.016732,
.028714,-.01691,
.02803,-.01697,
-.02803,-.01697,
-.028714,-.01691,
-.029378,-.016732,
-.03,-.016442,
-.030563,-.016048,
-.031048,-.015563,
-.031442,-.015,
-.031732,-.014378,
-.03191,-.013714,
-.03197,-.01303,
-.03197,.01303,
-.03191,.013714,
-.031732,.014378,
-.031442,.015,
-.031048,.015563,
-.030563,.016048,
-.03,.016442,
-.029378,.016732,
-.028714,.01691,
-.02803,.01697,
.02803,.01697,
.028714,.01691,
.029378,.016732,
.03,.016442,
.030563,.016048,
.031048,.015563,
.031442,.015,
.031732,.014378,
.03191,.013714,
.03197,.01303,
0.0*
%
%ADD93MACRO93*%
%AMMACRO65*
4,1,40,.01053,-.01697,
-.01053,-.01697,
-.011214,-.01691,
-.011878,-.016732,
-.0125,-.016442,
-.013063,-.016048,
-.013548,-.015563,
-.013942,-.015,
-.014232,-.014378,
-.01441,-.013714,
-.01447,-.01303,
-.01447,.01303,
-.01441,.013714,
-.014232,.014378,
-.013942,.015,
-.013548,.015563,
-.013063,.016048,
-.0125,.016442,
-.011878,.016732,
-.011214,.01691,
-.01053,.01697,
.01053,.01697,
.011214,.01691,
.011878,.016732,
.0125,.016442,
.013063,.016048,
.013548,.015563,
.013942,.015,
.014232,.014378,
.01441,.013714,
.01447,.01303,
.01447,-.01303,
.01441,-.013714,
.014232,-.014378,
.013942,-.015,
.013548,-.015563,
.013063,-.016048,
.0125,-.016442,
.011878,-.016732,
.011214,-.01691,
.01053,-.01697,
0.0*
%
%ADD65MACRO65*%
%AMMACRO45*
4,1,44,.01082,-.02197,
-.01082,-.02197,
-.011162,-.021941,
-.011494,-.021853,
-.011806,-.021709,
-.012087,-.021512,
-.012331,-.02127,
-.012529,-.020989,
-.012674,-.020678,
-.012764,-.020347,
-.012795,-.020005,
-.01279,-.02,
-.01279,.02,
-.012765,.020342,
-.012676,.020674,
-.012531,.020985,
-.012334,.021266,
-.012091,.021509,
-.01181,.021706,
-.011499,.021851,
-.011167,.02194,
-.010825,.02197,
-.01082,.02197,
.01082,.02197,
.011162,.021941,
.011494,.021853,
.011806,.021709,
.012087,.021512,
.012331,.02127,
.012529,.020989,
.012674,.020678,
.012764,.020347,
.012795,.020005,
.01279,.02,
.01279,-.02,
.012765,-.020342,
.012676,-.020674,
.012531,-.020985,
.012334,-.021266,
.012091,-.021509,
.01181,-.021706,
.011499,-.021851,
.011167,-.02194,
.010825,-.02197,
.01082,-.02197,
0.0*
%
%ADD45MACRO45*%
%AMMACRO118*
4,1,44,.01771,.01181,
.01771,-.01181,
.017596,-.013177,
.017242,-.014502,
.016663,-.015746,
.015877,-.01687,
.014908,-.017841,
.013784,-.018628,
.012541,-.019209,
.011217,-.019565,
.00985,-.019685,
.00984,-.01968,
-.00984,-.01968,
-.011207,-.019566,
-.012532,-.019212,
-.013776,-.018633,
-.0149,-.017847,
-.015871,-.016878,
-.016658,-.015754,
-.017239,-.014511,
-.017595,-.013187,
-.017715,-.01182,
-.01771,-.01181,
-.01771,.01181,
-.017596,.013177,
-.017242,.014502,
-.016663,.015746,
-.015877,.01687,
-.014908,.017841,
-.013784,.018628,
-.012541,.019209,
-.011217,.019565,
-.00985,.019685,
-.00984,.01968,
.00984,.01968,
.011207,.019566,
.012532,.019212,
.013776,.018633,
.0149,.017847,
.015871,.016878,
.016658,.015754,
.017239,.014511,
.017595,.013187,
.017715,.01182,
.01771,.01181,
0.0*
%
%ADD118MACRO118*%
%AMMACRO78*
4,1,44,.01378,.00787,
.01378,-.00787,
.013751,-.008212,
.013663,-.008544,
.013519,-.008856,
.013322,-.009137,
.01308,-.009381,
.012799,-.009579,
.012488,-.009724,
.012157,-.009814,
.011815,-.009845,
.01181,-.00984,
-.01181,-.00984,
-.012152,-.009815,
-.012484,-.009726,
-.012795,-.009581,
-.013076,-.009384,
-.013319,-.009141,
-.013516,-.00886,
-.013661,-.008549,
-.01375,-.008217,
-.01378,-.007875,
-.01378,-.00787,
-.01378,.00787,
-.013751,.008212,
-.013663,.008544,
-.013519,.008856,
-.013322,.009137,
-.01308,.009381,
-.012799,.009579,
-.012488,.009724,
-.012157,.009814,
-.011815,.009845,
-.01181,.00984,
.01181,.00984,
.012152,.009815,
.012484,.009726,
.012795,.009581,
.013076,.009384,
.013319,.009141,
.013516,.00886,
.013661,.008549,
.01375,.008217,
.01378,.007875,
.01378,.00787,
0.0*
%
%ADD78MACRO78*%
%AMMACRO27*
4,1,40,.01803,-.02947,
-.01803,-.02947,
-.018714,-.02941,
-.019378,-.029232,
-.02,-.028942,
-.020563,-.028548,
-.021048,-.028063,
-.021442,-.0275,
-.021732,-.026878,
-.02191,-.026214,
-.02197,-.02553,
-.02197,.02553,
-.02191,.026214,
-.021732,.026878,
-.021442,.0275,
-.021048,.028063,
-.020563,.028548,
-.02,.028942,
-.019378,.029232,
-.018714,.02941,
-.01803,.02947,
.01803,.02947,
.018714,.02941,
.019378,.029232,
.02,.028942,
.020563,.028548,
.021048,.028063,
.021442,.0275,
.021732,.026878,
.02191,.026214,
.02197,.02553,
.02197,-.02553,
.02191,-.026214,
.021732,-.026878,
.021442,-.0275,
.021048,-.028063,
.020563,-.028548,
.02,-.028942,
.019378,-.029232,
.018714,-.02941,
.01803,-.02947,
0.0*
%
%ADD27MACRO27*%
%AMMACRO69*
4,1,40,.01553,-.01947,
-.01553,-.01947,
-.016214,-.01941,
-.016878,-.019232,
-.0175,-.018942,
-.018063,-.018548,
-.018548,-.018063,
-.018942,-.0175,
-.019232,-.016878,
-.01941,-.016214,
-.01947,-.01553,
-.01947,.01553,
-.01941,.016214,
-.019232,.016878,
-.018942,.0175,
-.018548,.018063,
-.018063,.018548,
-.0175,.018942,
-.016878,.019232,
-.016214,.01941,
-.01553,.01947,
.01553,.01947,
.016214,.01941,
.016878,.019232,
.0175,.018942,
.018063,.018548,
.018548,.018063,
.018942,.0175,
.019232,.016878,
.01941,.016214,
.01947,.01553,
.01947,-.01553,
.01941,-.016214,
.019232,-.016878,
.018942,-.0175,
.018548,-.018063,
.018063,-.018548,
.0175,-.018942,
.016878,-.019232,
.016214,-.01941,
.01553,-.01947,
0.0*
%
%ADD69MACRO69*%
%ADD106R,.041X.016*%
%AMMACRO99*
4,1,40,-.00972,.00194,
-.00194,.00972,
-.001676,.009948,
-.001374,.010122,
-.001047,.010241,
-.000703,.010301,
-.000355,.010301,
-.000011,.01024,
.000316,.010121,
.000618,.009946,
.00088,.00972,
.00972,.00088,
.009947,.000616,
.010121,.000314,
.010241,-.000013,
.010301,-.000357,
.010301,-.000705,
.01024,-.001049,
.010121,-.001376,
.009946,-.001678,
.00972,-.00194,
.00194,-.00972,
.001676,-.009948,
.001374,-.010122,
.001047,-.010241,
.000703,-.010301,
.000355,-.010301,
.000011,-.01024,
-.000316,-.010121,
-.000618,-.009946,
-.00088,-.00972,
-.00972,-.00088,
-.009947,-.000616,
-.010121,-.000314,
-.010241,.000013,
-.010301,.000357,
-.010301,.000705,
-.01024,.001049,
-.010121,.001376,
-.009946,.001678,
-.00972,.00194,
0.0*
%
%ADD99MACRO99*%
%ADD48R,.052X.042*%
%AMMACRO38*
4,1,40,-.00825,-.0055,
-.00825,.0055,
-.00822,.005847,
-.008129,.006184,
-.007982,.0065,
-.007782,.006786,
-.007536,.007032,
-.00725,.007232,
-.006934,.007379,
-.006597,.00747,
-.00625,.0075,
.00625,.0075,
.006597,.00747,
.006934,.007379,
.00725,.007232,
.007536,.007032,
.007782,.006786,
.007982,.0065,
.008129,.006184,
.00822,.005847,
.00825,.0055,
.00825,-.0055,
.00822,-.005847,
.008129,-.006184,
.007982,-.0065,
.007782,-.006786,
.007536,-.007032,
.00725,-.007232,
.006934,-.007379,
.006597,-.00747,
.00625,-.0075,
-.00625,-.0075,
-.006597,-.00747,
-.006934,-.007379,
-.00725,-.007232,
-.007536,-.007032,
-.007782,-.006786,
-.007982,-.0065,
-.008129,-.006184,
-.00822,-.005847,
-.00825,-.0055,
0.0*
%
%ADD38MACRO38*%
%ADD50R,.046X.031*%
%AMMACRO18*
4,1,40,-.0055,.00825,
.0055,.00825,
.005847,.00822,
.006184,.008129,
.0065,.007982,
.006786,.007782,
.007032,.007536,
.007232,.00725,
.007379,.006934,
.00747,.006597,
.0075,.00625,
.0075,-.00625,
.00747,-.006597,
.007379,-.006934,
.007232,-.00725,
.007032,-.007536,
.006786,-.007782,
.0065,-.007982,
.006184,-.008129,
.005847,-.00822,
.0055,-.00825,
-.0055,-.00825,
-.005847,-.00822,
-.006184,-.008129,
-.0065,-.007982,
-.006786,-.007782,
-.007032,-.007536,
-.007232,-.00725,
-.007379,-.006934,
-.00747,-.006597,
-.0075,-.00625,
-.0075,.00625,
-.00747,.006597,
-.007379,.006934,
-.007232,.00725,
-.007032,.007536,
-.006786,.007782,
-.0065,.007982,
-.006184,.008129,
-.005847,.00822,
-.0055,.00825,
0.0*
%
%ADD18MACRO18*%
%ADD52R,.031X.046*%
%ADD33R,.081X.051*%
%ADD28R,.051X.081*%
%ADD71O,.01181X.0315*%
%ADD115R,.04X.088*%
%ADD89R,.055X.064*%
%ADD92R,.088X.04*%
%ADD46R,.01181X.04331*%
%AMMACRO102*
4,1,40,.10236,.09055,
.10236,-.09055,
.102181,-.092601,
.101648,-.094589,
.100778,-.096455,
.099597,-.098141,
.098141,-.099597,
.096455,-.100778,
.094589,-.101648,
.092601,-.102181,
.09055,-.10236,
-.09055,-.10236,
-.092601,-.102181,
-.094589,-.101648,
-.096455,-.100778,
-.098141,-.099597,
-.099597,-.098141,
-.100778,-.096455,
-.101648,-.094589,
-.102181,-.092601,
-.10236,-.09055,
-.10236,.09055,
-.102181,.092601,
-.101648,.094589,
-.100778,.096455,
-.099597,.098141,
-.098141,.099597,
-.096455,.100778,
-.094589,.101648,
-.092601,.102181,
-.09055,.10236,
.09055,.10236,
.092601,.102181,
.094589,.101648,
.096455,.100778,
.098141,.099597,
.099597,.098141,
.100778,.096455,
.101648,.094589,
.102181,.092601,
.10236,.09055,
0.0*
%
%ADD102MACRO102*%
%ADD10C,.20079*%
%AMMACRO61*
4,1,44,-.00393,.01575,
.00393,.01575,
.004272,.015721,
.004604,.015633,
.004916,.015489,
.005197,.015292,
.005441,.01505,
.005639,.014769,
.005784,.014458,
.005874,.014127,
.005905,.013785,
.0059,.01378,
.0059,-.01378,
.005875,-.014122,
.005786,-.014454,
.005641,-.014765,
.005444,-.015046,
.005201,-.015289,
.00492,-.015486,
.004609,-.015631,
.004277,-.01572,
.003935,-.01575,
.00393,-.01575,
-.00393,-.01575,
-.004272,-.015721,
-.004604,-.015633,
-.004916,-.015489,
-.005197,-.015292,
-.005441,-.01505,
-.005639,-.014769,
-.005784,-.014458,
-.005874,-.014127,
-.005905,-.013785,
-.0059,-.01378,
-.0059,.01378,
-.005875,.014122,
-.005786,.014454,
-.005641,.014765,
-.005444,.015046,
-.005201,.015289,
-.00492,.015486,
-.004609,.015631,
-.004277,.01572,
-.003935,.01575,
-.00393,.01575,
0.0*
%
%ADD61MACRO61*%
%ADD15O,.05118X.09055*%
%ADD67C,.12795*%
%ADD26R,.02762X.01384*%
%ADD90C,.12598*%
%ADD81R,.04331X.03937*%
%ADD32R,.01384X.02762*%
%AMMACRO21*
4,1,40,-.01181,-.00984,
-.01181,.00984,
-.01178,.010182,
-.011691,.010514,
-.011546,.010825,
-.011349,.011106,
-.011106,.011349,
-.010825,.011546,
-.010514,.011691,
-.010182,.01178,
-.00984,.01181,
.00984,.01181,
.010182,.01178,
.010514,.011691,
.010825,.011546,
.011106,.011349,
.011349,.011106,
.011546,.010825,
.011691,.010514,
.01178,.010182,
.01181,.00984,
.01181,-.00984,
.01178,-.010182,
.011691,-.010514,
.011546,-.010825,
.011349,-.011106,
.011106,-.011349,
.010825,-.011546,
.010514,-.011691,
.010182,-.01178,
.00984,-.01181,
-.00984,-.01181,
-.010182,-.01178,
-.010514,-.011691,
-.010825,-.011546,
-.011106,-.011349,
-.011349,-.011106,
-.011546,-.010825,
-.011691,-.010514,
-.01178,-.010182,
-.01181,-.00984,
0.0*
%
%ADD21MACRO21*%
%ADD88R,.03353X.01975*%
%ADD86R,.01975X.03353*%
%AMMACRO13*
4,1,40,-.00984,.01181,
.00984,.01181,
.010182,.01178,
.010514,.011691,
.010825,.011546,
.011106,.011349,
.011349,.011106,
.011546,.010825,
.011691,.010514,
.01178,.010182,
.01181,.00984,
.01181,-.00984,
.01178,-.010182,
.011691,-.010514,
.011546,-.010825,
.011349,-.011106,
.011106,-.011349,
.010825,-.011546,
.010514,-.011691,
.010182,-.01178,
.00984,-.01181,
-.00984,-.01181,
-.010182,-.01178,
-.010514,-.011691,
-.010825,-.011546,
-.011106,-.011349,
-.011349,-.011106,
-.011546,-.010825,
-.011691,-.010514,
-.01178,-.010182,
-.01181,-.00984,
-.01181,.00984,
-.01178,.010182,
-.011691,.010514,
-.011546,.010825,
-.011349,.011106,
-.011106,.011349,
-.010825,.011546,
-.010514,.011691,
-.010182,.01178,
-.00984,.01181,
0.0*
%
%ADD13MACRO13*%
%AMMACRO73*
4,1,44,-.01378,.02165,
.01378,.02165,
.015147,.021536,
.016472,.021182,
.017716,.020603,
.01884,.019817,
.019811,.018848,
.020598,.017724,
.021179,.016481,
.021535,.015157,
.021655,.01379,
.02165,.01378,
.02165,-.01378,
.021536,-.015147,
.021182,-.016472,
.020603,-.017716,
.019817,-.01884,
.018848,-.019811,
.017724,-.020598,
.016481,-.021179,
.015157,-.021535,
.01379,-.021655,
.01378,-.02165,
-.01378,-.02165,
-.015147,-.021536,
-.016472,-.021182,
-.017716,-.020603,
-.01884,-.019817,
-.019811,-.018848,
-.020598,-.017724,
-.021179,-.016481,
-.021535,-.015157,
-.021655,-.01379,
-.02165,-.01378,
-.02165,.01378,
-.021536,.015147,
-.021182,.016472,
-.020603,.017716,
-.019817,.01884,
-.018848,.019811,
-.017724,.020598,
-.016481,.021179,
-.015157,.021535,
-.01379,.021655,
-.01378,.02165,
0.0*
%
%ADD73MACRO73*%
%AMMACRO22*
4,1,40,-.01575,-.015,
-.01575,.015,
-.01572,.015342,
-.015631,.015674,
-.015486,.015985,
-.015289,.016266,
-.015046,.016509,
-.014765,.016706,
-.014454,.016851,
-.014122,.01694,
-.01378,.01697,
.01378,.01697,
.014122,.01694,
.014454,.016851,
.014765,.016706,
.015046,.016509,
.015289,.016266,
.015486,.015985,
.015631,.015674,
.01572,.015342,
.01575,.015,
.01575,-.015,
.01572,-.015342,
.015631,-.015674,
.015486,-.015985,
.015289,-.016266,
.015046,-.016509,
.014765,-.016706,
.014454,-.016851,
.014122,-.01694,
.01378,-.01697,
-.01378,-.01697,
-.014122,-.01694,
-.014454,-.016851,
-.014765,-.016706,
-.015046,-.016509,
-.015289,-.016266,
-.015486,-.015985,
-.015631,-.015674,
-.01572,-.015342,
-.01575,-.015,
0.0*
%
%ADD22MACRO22*%
%AMMACRO107*
4,1,44,-.00393,.00886,
.00393,.00886,
.004272,.008831,
.004604,.008743,
.004916,.008599,
.005197,.008402,
.005441,.00816,
.005639,.007879,
.005784,.007568,
.005874,.007237,
.005905,.006895,
.0059,.00689,
.0059,-.00689,
.005875,-.007232,
.005786,-.007564,
.005641,-.007875,
.005444,-.008156,
.005201,-.008399,
.00492,-.008596,
.004609,-.008741,
.004277,-.00883,
.003935,-.00886,
.00393,-.00886,
-.00393,-.00886,
-.004272,-.008831,
-.004604,-.008743,
-.004916,-.008599,
-.005197,-.008402,
-.005441,-.00816,
-.005639,-.007879,
-.005784,-.007568,
-.005874,-.007237,
-.005905,-.006895,
-.0059,-.00689,
-.0059,.00689,
-.005875,.007232,
-.005786,.007564,
-.005641,.007875,
-.005444,.008156,
-.005201,.008399,
-.00492,.008596,
-.004609,.008741,
-.004277,.00883,
-.003935,.00886,
-.00393,.00886,
0.0*
%
%ADD107MACRO107*%
%AMMACRO79*
4,1,40,-.015,.01575,
.015,.01575,
.015342,.01572,
.015674,.015631,
.015985,.015486,
.016266,.015289,
.016509,.015046,
.016706,.014765,
.016851,.014454,
.01694,.014122,
.01697,.01378,
.01697,-.01378,
.01694,-.014122,
.016851,-.014454,
.016706,-.014765,
.016509,-.015046,
.016266,-.015289,
.015985,-.015486,
.015674,-.015631,
.015342,-.01572,
.015,-.01575,
-.015,-.01575,
-.015342,-.01572,
-.015674,-.015631,
-.015985,-.015486,
-.016266,-.015289,
-.016509,-.015046,
-.016706,-.014765,
-.016851,-.014454,
-.01694,-.014122,
-.01697,-.01378,
-.01697,.01378,
-.01694,.014122,
-.016851,.014454,
-.016706,.014765,
-.016509,.015046,
-.016266,.015289,
-.015985,.015486,
-.015674,.015631,
-.015342,.01572,
-.015,.01575,
0.0*
%
%ADD79MACRO79*%
%AMMACRO62*
4,1,40,-.00492,.01575,
.00492,.01575,
.005262,.01572,
.005594,.015631,
.005905,.015486,
.006186,.015289,
.006429,.015046,
.006626,.014765,
.006771,.014454,
.00686,.014122,
.00689,.01378,
.00689,-.01378,
.00686,-.014122,
.006771,-.014454,
.006626,-.014765,
.006429,-.015046,
.006186,-.015289,
.005905,-.015486,
.005594,-.015631,
.005262,-.01572,
.00492,-.01575,
-.00492,-.01575,
-.005262,-.01572,
-.005594,-.015631,
-.005905,-.015486,
-.006186,-.015289,
-.006429,-.015046,
-.006626,-.014765,
-.006771,-.014454,
-.00686,-.014122,
-.00689,-.01378,
-.00689,.01378,
-.00686,.014122,
-.006771,.014454,
-.006626,.014765,
-.006429,.015046,
-.006186,.015289,
-.005905,.015486,
-.005594,.015631,
-.005262,.01572,
-.00492,.01575,
0.0*
%
%ADD62MACRO62*%
%ADD31R,.13983X.13983*%
%AMMACRO83*
4,1,40,-.01378,-.00984,
-.01378,.00984,
-.01375,.010182,
-.013661,.010514,
-.013516,.010825,
-.013319,.011106,
-.013076,.011349,
-.012795,.011546,
-.012484,.011691,
-.012152,.01178,
-.01181,.01181,
.01181,.01181,
.012152,.01178,
.012484,.011691,
.012795,.011546,
.013076,.011349,
.013319,.011106,
.013516,.010825,
.013661,.010514,
.01375,.010182,
.01378,.00984,
.01378,-.00984,
.01375,-.010182,
.013661,-.010514,
.013516,-.010825,
.013319,-.011106,
.013076,-.011349,
.012795,-.011546,
.012484,-.011691,
.012152,-.01178,
.01181,-.01181,
-.01181,-.01181,
-.012152,-.01178,
-.012484,-.011691,
-.012795,-.011546,
-.013076,-.011349,
-.013319,-.011106,
-.013516,-.010825,
-.013661,-.010514,
-.01375,-.010182,
-.01378,-.00984,
0.0*
%
%ADD83MACRO83*%
%AMMACRO82*
4,1,44,-.01771,.01968,
.01771,.01968,
.018394,.019626,
.019058,.019449,
.019681,.01916,
.020244,.018766,
.02073,.018281,
.021125,.017719,
.021416,.017097,
.021594,.016434,
.021655,.01575,
.02165,.01574,
.02165,-.01574,
.021596,-.016424,
.021419,-.017088,
.02113,-.017711,
.020736,-.018274,
.020251,-.01876,
.019689,-.019155,
.019067,-.019446,
.018404,-.019624,
.01772,-.019685,
.01771,-.01968,
-.01771,-.01968,
-.018394,-.019626,
-.019058,-.019449,
-.019681,-.01916,
-.020244,-.018766,
-.02073,-.018281,
-.021125,-.017719,
-.021416,-.017097,
-.021594,-.016434,
-.021655,-.01575,
-.02165,-.01574,
-.02165,.01574,
-.021596,.016424,
-.021419,.017088,
-.02113,.017711,
-.020736,.018274,
-.020251,.01876,
-.019689,.019155,
-.019067,.019446,
-.018404,.019624,
-.01772,.019685,
-.01771,.01968,
0.0*
%
%ADD82MACRO82*%
%AMMACRO111*
4,1,40,-.00984,.01378,
.00984,.01378,
.010182,.01375,
.010514,.013661,
.010825,.013516,
.011106,.013319,
.011349,.013076,
.011546,.012795,
.011691,.012484,
.01178,.012152,
.01181,.01181,
.01181,-.01181,
.01178,-.012152,
.011691,-.012484,
.011546,-.012795,
.011349,-.013076,
.011106,-.013319,
.010825,-.013516,
.010514,-.013661,
.010182,-.01375,
.00984,-.01378,
-.00984,-.01378,
-.010182,-.01375,
-.010514,-.013661,
-.010825,-.013516,
-.011106,-.013319,
-.011349,-.013076,
-.011546,-.012795,
-.011691,-.012484,
-.01178,-.012152,
-.01181,-.01181,
-.01181,.01181,
-.01178,.012152,
-.011691,.012484,
-.011546,.012795,
-.011349,.013076,
-.011106,.013319,
-.010825,.013516,
-.010514,.013661,
-.010182,.01375,
-.00984,.01378,
0.0*
%
%ADD111MACRO111*%
%AMMACRO94*
4,1,44,-.01771,.03346,
.01771,.03346,
.018394,.033406,
.019058,.033229,
.019681,.03294,
.020244,.032546,
.02073,.032061,
.021125,.031499,
.021416,.030877,
.021594,.030214,
.021655,.02953,
.02165,.02952,
.02165,-.02952,
.021596,-.030204,
.021419,-.030868,
.02113,-.031491,
.020736,-.032054,
.020251,-.03254,
.019689,-.032935,
.019067,-.033226,
.018404,-.033404,
.01772,-.033465,
.01771,-.03346,
-.01771,-.03346,
-.018394,-.033406,
-.019058,-.033229,
-.019681,-.03294,
-.020244,-.032546,
-.02073,-.032061,
-.021125,-.031499,
-.021416,-.030877,
-.021594,-.030214,
-.021655,-.02953,
-.02165,-.02952,
-.02165,.02952,
-.021596,.030204,
-.021419,.030868,
-.02113,.031491,
-.020736,.032054,
-.020251,.03254,
-.019689,.032935,
-.019067,.033226,
-.018404,.033404,
-.01772,.033465,
-.01771,.03346,
0.0*
%
%ADD94MACRO94*%
%AMMACRO72*
4,1,44,-.00787,.01575,
.00787,.01575,
.008212,.015721,
.008544,.015633,
.008856,.015489,
.009137,.015292,
.009381,.01505,
.009579,.014769,
.009724,.014458,
.009814,.014127,
.009845,.013785,
.00984,.01378,
.00984,-.01378,
.009815,-.014122,
.009726,-.014454,
.009581,-.014765,
.009384,-.015046,
.009141,-.015289,
.00886,-.015486,
.008549,-.015631,
.008217,-.01572,
.007875,-.01575,
.00787,-.01575,
-.00787,-.01575,
-.008212,-.015721,
-.008544,-.015633,
-.008856,-.015489,
-.009137,-.015292,
-.009381,-.01505,
-.009579,-.014769,
-.009724,-.014458,
-.009814,-.014127,
-.009845,-.013785,
-.00984,-.01378,
-.00984,.01378,
-.009815,.014122,
-.009726,.014454,
-.009581,.014765,
-.009384,.015046,
-.009141,.015289,
-.00886,.015486,
-.008549,.015631,
-.008217,.01572,
-.007875,.01575,
-.00787,.01575,
0.0*
%
%ADD72MACRO72*%
%AMMACRO49*
4,1,44,-.00787,-.0059,
-.00787,.0059,
-.007846,.006242,
-.007758,.006574,
-.007614,.006886,
-.007417,.007167,
-.007175,.007411,
-.006894,.007609,
-.006583,.007754,
-.006252,.007844,
-.00591,.007875,
-.0059,.00787,
.0059,.00787,
.006242,.007846,
.006574,.007758,
.006886,.007614,
.007167,.007417,
.007411,.007175,
.007609,.006894,
.007754,.006583,
.007844,.006252,
.007875,.00591,
.00787,.0059,
.00787,-.0059,
.007846,-.006242,
.007758,-.006574,
.007614,-.006886,
.007417,-.007167,
.007175,-.007411,
.006894,-.007609,
.006583,-.007754,
.006252,-.007844,
.00591,-.007875,
.0059,-.00787,
-.0059,-.00787,
-.006242,-.007846,
-.006574,-.007758,
-.006886,-.007614,
-.007167,-.007417,
-.007411,-.007175,
-.007609,-.006894,
-.007754,-.006583,
-.007844,-.006252,
-.007875,-.00591,
-.00787,-.0059,
0.0*
%
%ADD49MACRO49*%
%AMMACRO110*
4,1,44,-.01378,-.0059,
-.01378,.0059,
-.013751,.006242,
-.013663,.006574,
-.013519,.006886,
-.013322,.007167,
-.01308,.007411,
-.012799,.007609,
-.012488,.007754,
-.012157,.007844,
-.011815,.007875,
-.01181,.00787,
.01181,.00787,
.012152,.007845,
.012484,.007756,
.012795,.007611,
.013076,.007414,
.013319,.007171,
.013516,.00689,
.013661,.006579,
.01375,.006247,
.01378,.005905,
.01378,.0059,
.01378,-.0059,
.013751,-.006242,
.013663,-.006574,
.013519,-.006886,
.013322,-.007167,
.01308,-.007411,
.012799,-.007609,
.012488,-.007754,
.012157,-.007844,
.011815,-.007875,
.01181,-.00787,
-.01181,-.00787,
-.012152,-.007845,
-.012484,-.007756,
-.012795,-.007611,
-.013076,-.007414,
-.013319,-.007171,
-.013516,-.00689,
-.013661,-.006579,
-.01375,-.006247,
-.01378,-.005905,
-.01378,-.0059,
0.0*
%
%ADD110MACRO110*%
%AMMACRO116*
4,1,44,-.01279,-.0059,
-.01279,.0059,
-.012766,.006242,
-.012678,.006574,
-.012534,.006886,
-.012337,.007167,
-.012095,.007411,
-.011814,.007609,
-.011503,.007754,
-.011172,.007844,
-.01083,.007875,
-.01082,.00787,
.01082,.00787,
.011162,.007846,
.011494,.007758,
.011806,.007614,
.012087,.007417,
.012331,.007175,
.012529,.006894,
.012674,.006583,
.012764,.006252,
.012795,.00591,
.01279,.0059,
.01279,-.0059,
.012766,-.006242,
.012678,-.006574,
.012534,-.006886,
.012337,-.007167,
.012095,-.007411,
.011814,-.007609,
.011503,-.007754,
.011172,-.007844,
.01083,-.007875,
.01082,-.00787,
-.01082,-.00787,
-.011162,-.007846,
-.011494,-.007758,
-.011806,-.007614,
-.012087,-.007417,
-.012331,-.007175,
-.012529,-.006894,
-.012674,-.006583,
-.012764,-.006252,
-.012795,-.00591,
-.01279,-.0059,
0.0*
%
%ADD116MACRO116*%
%AMMACRO114*
4,1,44,-.0059,.01378,
.0059,.01378,
.006242,.013751,
.006574,.013663,
.006886,.013519,
.007167,.013322,
.007411,.01308,
.007609,.012799,
.007754,.012488,
.007844,.012157,
.007875,.011815,
.00787,.01181,
.00787,-.01181,
.007845,-.012152,
.007756,-.012484,
.007611,-.012795,
.007414,-.013076,
.007171,-.013319,
.00689,-.013516,
.006579,-.013661,
.006247,-.01375,
.005905,-.01378,
.0059,-.01378,
-.0059,-.01378,
-.006242,-.013751,
-.006574,-.013663,
-.006886,-.013519,
-.007167,-.013322,
-.007411,-.01308,
-.007609,-.012799,
-.007754,-.012488,
-.007844,-.012157,
-.007875,-.011815,
-.00787,-.01181,
-.00787,.01181,
-.007845,.012152,
-.007756,.012484,
-.007611,.012795,
-.007414,.013076,
-.007171,.013319,
-.00689,.013516,
-.006579,.013661,
-.006247,.01375,
-.005905,.01378,
-.0059,.01378,
0.0*
%
%ADD114MACRO114*%
%AMMACRO76*
4,1,40,-.01378,-.00492,
-.01378,.00492,
-.01375,.005262,
-.013661,.005594,
-.013516,.005905,
-.013319,.006186,
-.013076,.006429,
-.012795,.006626,
-.012484,.006771,
-.012152,.00686,
-.01181,.00689,
.01181,.00689,
.012152,.00686,
.012484,.006771,
.012795,.006626,
.013076,.006429,
.013319,.006186,
.013516,.005905,
.013661,.005594,
.01375,.005262,
.01378,.00492,
.01378,-.00492,
.01375,-.005262,
.013661,-.005594,
.013516,-.005905,
.013319,-.006186,
.013076,-.006429,
.012795,-.006626,
.012484,-.006771,
.012152,-.00686,
.01181,-.00689,
-.01181,-.00689,
-.012152,-.00686,
-.012484,-.006771,
-.012795,-.006626,
-.013076,-.006429,
-.013319,-.006186,
-.013516,-.005905,
-.013661,-.005594,
-.01375,-.005262,
-.01378,-.00492,
0.0*
%
%ADD76MACRO76*%
%AMMACRO117*
4,1,44,-.0059,.01279,
.0059,.01279,
.006242,.012766,
.006574,.012678,
.006886,.012534,
.007167,.012337,
.007411,.012095,
.007609,.011814,
.007754,.011503,
.007844,.011172,
.007875,.01083,
.00787,.01082,
.00787,-.01082,
.007846,-.011162,
.007758,-.011494,
.007614,-.011806,
.007417,-.012087,
.007175,-.012331,
.006894,-.012529,
.006583,-.012674,
.006252,-.012764,
.00591,-.012795,
.0059,-.01279,
-.0059,-.01279,
-.006242,-.012766,
-.006574,-.012678,
-.006886,-.012534,
-.007167,-.012337,
-.007411,-.012095,
-.007609,-.011814,
-.007754,-.011503,
-.007844,-.011172,
-.007875,-.01083,
-.00787,-.01082,
-.00787,.01082,
-.007846,.011162,
-.007758,.011494,
-.007614,.011806,
-.007417,.012087,
-.007175,.012331,
-.006894,.012529,
-.006583,.012674,
-.006252,.012764,
-.00591,.012795,
-.0059,.01279,
0.0*
%
%ADD117MACRO117*%
%AMMACRO56*
4,1,40,-.03197,-.01303,
-.03197,.01303,
-.03191,.013714,
-.031732,.014378,
-.031442,.015,
-.031048,.015563,
-.030563,.016048,
-.03,.016442,
-.029378,.016732,
-.028714,.01691,
-.02803,.01697,
.02803,.01697,
.028714,.01691,
.029378,.016732,
.03,.016442,
.030563,.016048,
.031048,.015563,
.031442,.015,
.031732,.014378,
.03191,.013714,
.03197,.01303,
.03197,-.01303,
.03191,-.013714,
.031732,-.014378,
.031442,-.015,
.031048,-.015563,
.030563,-.016048,
.03,-.016442,
.029378,-.016732,
.028714,-.01691,
.02803,-.01697,
-.02803,-.01697,
-.028714,-.01691,
-.029378,-.016732,
-.03,-.016442,
-.030563,-.016048,
-.031048,-.015563,
-.031442,-.015,
-.031732,-.014378,
-.03191,-.013714,
-.03197,-.01303,
0.0*
%
%ADD56MACRO56*%
%AMMACRO47*
4,1,40,-.00492,.01378,
.00492,.01378,
.005262,.01375,
.005594,.013661,
.005905,.013516,
.006186,.013319,
.006429,.013076,
.006626,.012795,
.006771,.012484,
.00686,.012152,
.00689,.01181,
.00689,-.01181,
.00686,-.012152,
.006771,-.012484,
.006626,-.012795,
.006429,-.013076,
.006186,-.013319,
.005905,-.013516,
.005594,-.013661,
.005262,-.01375,
.00492,-.01378,
-.00492,-.01378,
-.005262,-.01375,
-.005594,-.013661,
-.005905,-.013516,
-.006186,-.013319,
-.006429,-.013076,
-.006626,-.012795,
-.006771,-.012484,
-.00686,-.012152,
-.00689,-.01181,
-.00689,.01181,
-.00686,.012152,
-.006771,.012484,
-.006626,.012795,
-.006429,.013076,
-.006186,.013319,
-.005905,.013516,
-.005594,.013661,
-.005262,.01375,
-.00492,.01378,
0.0*
%
%ADD47MACRO47*%
%ADD119C,.04*%
%ADD120C,.005*%
%ADD121C,.004*%
G75*
%LPD*%
G75*
G54D100*
X-1035031Y1114756D03*
X-1033613Y1113338D03*
G54D110*
X-1020185Y1117434D03*
G54D101*
X-1034949Y1124595D03*
X-1032980D03*
Y1151761D03*
X-1034949D03*
X-1031012Y1124595D03*
X-1029043D03*
X-1027075D03*
X-1025106D03*
X-1023138D03*
X-1021169D03*
Y1151761D03*
X-1023138D03*
X-1025106D03*
X-1027075D03*
X-1029043D03*
X-1031012D03*
X-1019201Y1124595D03*
X-1017232D03*
X-1015264D03*
X-1013295D03*
Y1151761D03*
X-1015264D03*
X-1017232D03*
X-1019201D03*
G54D120*
G01X-990330Y922200D02*
X-1295300D01*
G02X-1300300Y927200I0J5000D01*
G01Y1232170D01*
G01D02*
G02X-1295300Y1237170I5000J0D01*
G01D02*
X-990330D01*
G01X-985330Y927200D02*
G02X-990330Y922200I-5000J0D01*
G01X-985330Y1232170D02*
Y927200D01*
G01X-990330Y1237170D02*
G02X-985330Y1232170I0J-5000D01*
G54D111*
X-1014866Y1005087D03*
X-1007744D03*
G54D102*
X-1024122Y1138178D03*
G54D121*
G01X-990330Y1237170D02*
X-1295300D01*
G03X-1300300Y1232170I0J-5000D01*
G01Y927200D01*
G03X-1295300Y922200I5000J0D01*
G01X-990330D01*
G03X-985330Y927200I0J5000D01*
G01Y1232170D01*
G03X-990330Y1237170I-5000J0D01*
G54D10*
X-1289000Y979300D03*
Y1201170D03*
X-996530Y979300D03*
Y1201170D03*
G54D103*
X-1037705Y1137194D03*
Y1135225D03*
Y1133257D03*
Y1131288D03*
Y1129320D03*
Y1127351D03*
Y1149005D03*
Y1147036D03*
Y1145068D03*
Y1143099D03*
Y1141131D03*
Y1139162D03*
X-1010539Y1127351D03*
Y1129320D03*
Y1131288D03*
Y1133257D03*
Y1135225D03*
Y1137194D03*
Y1139162D03*
Y1141131D03*
Y1143099D03*
Y1145068D03*
Y1147036D03*
Y1149005D03*
G54D112*
X-1009713Y1009969D03*
X-1012897D03*
X-1016835D03*
X-1005775D03*
G54D11*
X-1293334Y996366D03*
G54D104*
X-1019527Y1026856D03*
G54D20*
X-1293044Y1091127D03*
Y1094769D03*
Y1131701D03*
Y1128059D03*
X-1287984Y1170213D03*
Y1166571D03*
X-1279914Y1053403D03*
X-1274114D03*
X-1279914Y1057045D03*
X-1274114D03*
X-1272700Y1217242D03*
Y1213600D03*
X-1272750Y1220813D03*
X-1276450D03*
X-1272750Y1224455D03*
X-1276450D03*
X-1264914Y1053355D03*
Y1056997D03*
X-1268900Y1217242D03*
Y1213600D03*
X-1218714Y1053509D03*
X-1211200Y1051904D03*
Y1048262D03*
X-1214900Y1051900D03*
Y1048258D03*
X-1218714Y1057151D03*
X-1212414Y1183641D03*
Y1187283D03*
X-1201914Y1091179D03*
Y1087537D03*
X-1204914Y1183641D03*
X-1208614D03*
X-1204914Y1187283D03*
X-1208614D03*
X-1179400Y1085721D03*
Y1082079D03*
X-1173286Y1040029D03*
Y1043671D03*
X-1164684Y1067075D03*
Y1063433D03*
X-1168384Y1067043D03*
Y1063401D03*
X-1173014Y1067041D03*
Y1063399D03*
X-1144500Y1159696D03*
Y1156054D03*
X-1131261Y1192742D03*
Y1189100D03*
X-1134933Y1192817D03*
Y1189175D03*
X-1138673Y1197859D03*
Y1194217D03*
X-1127950Y1203483D03*
Y1199841D03*
X-1134950Y1226355D03*
Y1222713D03*
X-1119793Y1203483D03*
Y1199841D03*
X-1123913Y1203483D03*
Y1199841D03*
X-1108196Y1089967D03*
Y1086325D03*
X-1112950Y1226355D03*
Y1222713D03*
X-1102914Y1135443D03*
Y1139085D03*
X-1090136Y1065285D03*
Y1061643D03*
X-1086144Y1065285D03*
Y1061643D03*
X-1089800Y1156342D03*
Y1152700D03*
X-1070714Y1112019D03*
X-1075714Y1124511D03*
Y1120869D03*
X-1071914Y1124453D03*
Y1120811D03*
X-1075714Y1124511D03*
Y1120869D03*
X-1070714Y1115661D03*
X-1074266Y1155821D03*
Y1152179D03*
X-1047967Y1013935D03*
Y1010293D03*
X-1051900Y1029921D03*
Y1026279D03*
X-1042801Y1013935D03*
Y1010293D03*
X-1040996Y1122007D03*
Y1118365D03*
X-1003344Y1130775D03*
Y1127133D03*
X-1004384Y1155289D03*
Y1151647D03*
G54D113*
X-1008326Y1110311D03*
X-1010028Y1111375D03*
G54D114*
X-1013295Y1119895D03*
X-1015264D03*
X-1017232D03*
X-1019201D03*
G54D21*
X-1293044Y1098435D03*
Y1102077D03*
Y1105639D03*
Y1109281D03*
X-1291756Y1166571D03*
Y1170213D03*
X-1279886Y1068401D03*
Y1072043D03*
X-1269586Y1053403D03*
Y1057045D03*
Y1068437D03*
Y1072079D03*
X-1244600Y1093249D03*
Y1096891D03*
X-1240900Y1093249D03*
Y1096891D03*
X-1245716Y1113751D03*
Y1106499D03*
Y1110141D03*
Y1117393D03*
X-1222486Y1044023D03*
Y1047665D03*
X-1218686Y1044019D03*
Y1047661D03*
X-1222486Y1053481D03*
Y1057123D03*
X-1211650Y1087585D03*
Y1091227D03*
X-1176686Y1063379D03*
Y1067021D03*
X-1173286Y1032637D03*
Y1036279D03*
X-1142353Y1194241D03*
Y1197883D03*
X-1148650Y1222713D03*
Y1226355D03*
X-1126756Y1222713D03*
Y1226355D03*
X-1104464Y1086285D03*
Y1089927D03*
X-1093950Y1118135D03*
Y1121777D03*
X-1101314Y1118199D03*
Y1121841D03*
X-1097614Y1118195D03*
Y1121837D03*
X-1087008Y1110979D03*
Y1114621D03*
X-1079586Y1120819D03*
Y1124461D03*
X-1073334Y1133507D03*
Y1137149D03*
X-1065420Y1048333D03*
Y1051975D03*
X-1049800Y1171779D03*
Y1175421D03*
X-1040964Y1111137D03*
Y1114779D03*
X-1034420Y1171997D03*
Y1175639D03*
X-1019700Y1222679D03*
Y1226321D03*
X-1003344Y1119857D03*
Y1123499D03*
G54D105*
X-1022086Y1030793D03*
Y1022919D03*
X-1016968Y1030793D03*
X-1019527D03*
Y1022919D03*
X-1016968D03*
X-1019201Y1114973D03*
X-1017232D03*
X-1015264D03*
X-1013295D03*
G54D12*
X-1293334Y1006366D03*
X-1177475Y996081D03*
X-1163695Y943916D03*
X-1125258Y988120D03*
X-1120258Y978120D03*
X-1115258Y988120D03*
X-1110258Y978120D03*
X-1105258Y988120D03*
X-1090258Y978120D03*
X-1100258D03*
X-1095258Y988120D03*
X-1080258Y978120D03*
X-1085258Y988120D03*
G54D30*
X-1266507Y1170934D03*
X-1264539D03*
X-1262570D03*
X-1260602D03*
X-1266507Y1172902D03*
X-1264539D03*
X-1262570D03*
X-1260602D03*
X-1266507Y1174871D03*
X-1264539D03*
X-1262570D03*
X-1260602D03*
X-1266507Y1176839D03*
X-1264539D03*
X-1262570D03*
X-1260602D03*
X-1266507Y1178808D03*
X-1264539D03*
X-1262570D03*
X-1266507Y1180776D03*
X-1264539D03*
X-1262570D03*
X-1266507Y1182745D03*
X-1264539D03*
X-1262570D03*
X-1266507Y1184713D03*
X-1264539D03*
X-1262570D03*
X-1266507Y1186682D03*
X-1264539D03*
X-1262570D03*
X-1266507Y1188650D03*
X-1264539D03*
X-1262570D03*
X-1266507Y1190619D03*
X-1264539D03*
X-1262570D03*
X-1266507Y1192587D03*
X-1264539D03*
X-1262570D03*
X-1260602D03*
X-1266507Y1194556D03*
X-1264539D03*
X-1262570D03*
X-1260602D03*
X-1266507Y1196524D03*
X-1264539D03*
X-1262570D03*
X-1260602D03*
X-1258633Y1170934D03*
X-1256665D03*
X-1254696D03*
X-1252728D03*
X-1250759D03*
X-1248791D03*
X-1258633Y1172902D03*
X-1256665D03*
X-1254696D03*
X-1252728D03*
X-1250759D03*
X-1248791D03*
X-1258633Y1174871D03*
X-1256665D03*
X-1254696D03*
X-1252728D03*
X-1250759D03*
X-1248791D03*
X-1258633Y1178808D03*
X-1256665D03*
X-1254696D03*
X-1252728D03*
X-1250759D03*
X-1248791D03*
X-1258633Y1180776D03*
X-1248791D03*
X-1258633Y1182745D03*
X-1248791D03*
X-1258633Y1184713D03*
X-1248791D03*
X-1258633Y1186682D03*
X-1248791D03*
X-1258633Y1188650D03*
X-1256665D03*
X-1254696D03*
X-1252728D03*
X-1250759D03*
X-1248791D03*
X-1258633Y1192587D03*
X-1256665D03*
X-1254696D03*
X-1252728D03*
X-1250759D03*
X-1248791D03*
X-1258633Y1194556D03*
X-1256665D03*
X-1254696D03*
X-1252728D03*
X-1250759D03*
X-1248791D03*
X-1258633Y1196524D03*
X-1256665D03*
X-1254696D03*
X-1252728D03*
X-1250759D03*
X-1248791D03*
X-1246822Y1170934D03*
X-1244854D03*
X-1242885D03*
X-1240917D03*
X-1246822Y1172902D03*
X-1244854D03*
X-1242885D03*
X-1240917D03*
X-1246822Y1174871D03*
X-1244854D03*
X-1242885D03*
X-1240917D03*
X-1244854Y1176839D03*
X-1242885D03*
X-1240917D03*
X-1244854Y1178808D03*
X-1242885D03*
X-1240917D03*
X-1244854Y1180776D03*
X-1242885D03*
X-1240917D03*
X-1244854Y1182745D03*
X-1242885D03*
X-1240917D03*
X-1244854Y1184713D03*
X-1242885D03*
X-1240917D03*
X-1244854Y1186682D03*
X-1242885D03*
X-1240917D03*
X-1244854Y1188650D03*
X-1242885D03*
X-1240917D03*
X-1244854Y1190619D03*
X-1242885D03*
X-1240917D03*
X-1246822Y1192587D03*
X-1244854D03*
X-1242885D03*
X-1240917D03*
X-1246822Y1194556D03*
X-1244854D03*
X-1242885D03*
X-1240917D03*
X-1246822Y1196524D03*
X-1244854D03*
X-1242885D03*
X-1240917D03*
G54D31*
X-1251069Y977580D03*
G54D22*
X-1283066Y1162040D03*
Y1168340D03*
Y1172023D03*
Y1178323D03*
X-1093000Y1029650D03*
Y1035950D03*
X-1085100Y1029650D03*
X-1089000D03*
X-1085100Y1035950D03*
X-1089000D03*
G54D13*
X-1294629Y1041386D03*
X-1294533Y1037756D03*
X-1294537Y1034056D03*
X-1294625Y1045086D03*
X-1290987Y1041386D03*
X-1290891Y1037756D03*
X-1290895Y1034056D03*
X-1290983Y1045086D03*
X-1271085Y982134D03*
X-1271189Y978434D03*
X-1271193Y974734D03*
X-1276421Y1228270D03*
X-1272779D03*
X-1267443Y982134D03*
X-1267547Y978434D03*
X-1267551Y974734D03*
X-1234629Y1091204D03*
X-1245869Y1079956D03*
X-1242227D03*
X-1239693Y1117756D03*
X-1236051D03*
X-1230987Y1091204D03*
X-1213301Y1000786D03*
X-1215341Y1078804D03*
X-1211699D03*
X-1213281Y1200104D03*
X-1209659Y1000786D03*
X-1209639Y1200104D03*
X-1154221Y930700D03*
X-1155821Y979800D03*
X-1152179D03*
X-1150579Y930700D03*
X-1109485Y1107150D03*
X-1105843D03*
X-1109485Y1112136D03*
X-1105843D03*
X-1105621Y1125700D03*
X-1112942Y1184000D03*
X-1109300D03*
X-1112942Y1187800D03*
X-1109300D03*
X-1102321Y1030100D03*
X-1098679D03*
X-1102181Y1037886D03*
X-1098539D03*
X-1102185Y1034086D03*
X-1098543D03*
X-1094483Y1090056D03*
X-1094265Y1114550D03*
X-1094321Y1110800D03*
X-1101979Y1125700D03*
X-1090841Y1090056D03*
X-1090623Y1114550D03*
X-1090679Y1110800D03*
X-1090329Y1121914D03*
X-1086687D03*
X-1081589Y1156286D03*
X-1084221Y1179200D03*
X-1080579D03*
X-1084221Y1183200D03*
X-1080579D03*
X-1083800Y1197530D03*
X-1080158D03*
X-1083800Y1201194D03*
X-1080158D03*
X-1083851Y1204900D03*
X-1080209D03*
X-1083851Y1224302D03*
X-1080209D03*
X-1077947Y1156286D03*
X-1062968Y988858D03*
X-1059326D03*
X-1062968Y992620D03*
X-1059326D03*
X-1062968Y984958D03*
X-1059326D03*
X-1060521Y1175900D03*
X-1056879D03*
X-1044247Y1152272D03*
X-1040605D03*
X-1041821Y1172064D03*
X-1038179D03*
X-1016687Y1013761D03*
X-1013045D03*
X-1009565D03*
X-1005923D03*
G54D115*
X-1012407Y1179900D03*
X-1006029Y1067201D03*
X-1000793Y1179900D03*
X-994415Y1067201D03*
G54D106*
X-1022607Y1034891D03*
Y1040009D03*
Y1037450D03*
X-1016701D03*
Y1040009D03*
Y1034891D03*
G54D40*
X-1223868Y961600D03*
X-1212844D03*
X-1218356D03*
X-1207332D03*
G54D116*
X-1012600Y1187722D03*
Y1190478D03*
G54D107*
X-1020776Y1093608D03*
X-1022351D03*
X-1023925D03*
X-1020776Y1099514D03*
X-1022351D03*
X-1023925D03*
X-1019201Y1093608D03*
Y1099514D03*
G54D32*
X-1257959Y968131D03*
X-1255990D03*
X-1254022D03*
X-1252053D03*
X-1250085D03*
X-1248116D03*
Y987029D03*
X-1250085D03*
X-1252053D03*
X-1254022D03*
X-1255990D03*
X-1257959D03*
X-1246148Y968131D03*
X-1244179D03*
Y987029D03*
X-1246148D03*
G54D50*
X-1203384Y1198086D03*
Y1201836D03*
Y1205586D03*
X-1193184Y1198086D03*
Y1205586D03*
G54D14*
X-1293958Y1162204D03*
X-1287658D03*
X-1087727Y1041975D03*
X-1081427D03*
X-1082848Y1162400D03*
Y1166585D03*
X-1075947Y1048195D03*
X-1069647D03*
X-1076000Y1051995D03*
X-1069700D03*
X-1076548Y1162400D03*
Y1166585D03*
G54D23*
X-1288187Y1173884D03*
X-1291829D03*
X-1288187Y1177720D03*
X-1291829D03*
X-1271121Y990000D03*
X-1267479D03*
X-1242227Y1083684D03*
X-1245869D03*
X-1234695Y1128784D03*
X-1238337D03*
X-1223775Y1091236D03*
X-1227417D03*
X-1210713Y1082584D03*
X-1213271Y1196336D03*
X-1212521Y1191100D03*
X-1213315Y1205284D03*
X-1203879Y1048100D03*
X-1207521D03*
X-1203879Y1051800D03*
X-1207521D03*
X-1204155Y1078736D03*
X-1207797D03*
X-1207071Y1082584D03*
X-1209629Y1196336D03*
X-1208879Y1191100D03*
X-1209673Y1205284D03*
X-1193179Y930800D03*
X-1196821D03*
X-1194703Y1056314D03*
X-1198345D03*
X-1194699Y1060114D03*
X-1198341D03*
X-1187853Y1197536D03*
X-1187857Y1201384D03*
X-1187797Y1205084D03*
X-1184211Y1197536D03*
X-1184215Y1201384D03*
X-1184155Y1205084D03*
X-1157149Y1091000D03*
X-1160791D03*
X-1153579Y1098995D03*
X-1157221D03*
X-1110443Y1101804D03*
X-1114085D03*
X-1105442Y1184000D03*
Y1187800D03*
X-1098727Y1022514D03*
X-1102369D03*
X-1094491Y1086336D03*
X-1101800Y1184000D03*
Y1187800D03*
X-1090849Y1086336D03*
X-1086687Y1118214D03*
X-1090329D03*
X-1081621Y1152500D03*
X-1080209Y1208830D03*
X-1083851D03*
X-1080209Y1220516D03*
X-1083851D03*
X-1080209Y1216634D03*
X-1083851D03*
X-1080209Y1212752D03*
X-1083851D03*
X-1080209Y1228180D03*
X-1083851D03*
X-1070807Y1129914D03*
X-1074449D03*
X-1077979Y1152500D03*
X-1061821Y1074096D03*
X-1065463D03*
X-1061879Y1077774D03*
X-1065521D03*
X-1061879Y1081504D03*
X-1065521D03*
X-1061879Y1085276D03*
X-1065521D03*
X-1061879Y1101428D03*
X-1065521D03*
X-1061879Y1097714D03*
X-1065521D03*
X-1061879Y1105204D03*
X-1065521D03*
X-1047243Y1132728D03*
X-1047247Y1137684D03*
X-1047801Y1152336D03*
X-1051443D03*
X-1036579Y1020384D03*
X-1040221D03*
X-1043601Y1132728D03*
X-1043605Y1137684D03*
X-1026579Y1028800D03*
X-1030221D03*
X-1008253Y1038150D03*
X-1011895D03*
X-1008253Y1034220D03*
X-1011895D03*
X-1016179Y1187700D03*
X-1019821D03*
X-998400Y1004350D03*
X-1002042D03*
X-998500Y1007514D03*
X-1002142D03*
X-998500Y1010678D03*
X-1002142D03*
X-998500Y1013842D03*
X-1002142D03*
X-998983Y1118236D03*
Y1133436D03*
X-995341Y1118236D03*
Y1133436D03*
G54D41*
X-1229562Y993534D03*
X-1222562D03*
X-1209270Y1041834D03*
X-1202270D03*
X-1209270Y1034234D03*
X-1202270D03*
G54D117*
X-1000222Y1078100D03*
X-997466D03*
G54D15*
X-1291429Y929299D03*
Y945835D03*
X-1257571Y929299D03*
Y945835D03*
G54D33*
X-1245966Y998220D03*
Y1007220D03*
G54D108*
X-1021563Y1096561D03*
G54D60*
X-1157059Y1173855D03*
Y1172280D03*
Y1170705D03*
Y1169130D03*
Y1167555D03*
Y1181729D03*
Y1180154D03*
Y1178579D03*
Y1177004D03*
Y1175429D03*
X-1137767Y1167555D03*
Y1169130D03*
Y1170705D03*
Y1172280D03*
Y1173855D03*
Y1175429D03*
Y1177004D03*
Y1178579D03*
Y1180154D03*
Y1181729D03*
G54D51*
X-1194066Y1027756D03*
X-1189066D03*
Y1049016D03*
X-1194066D03*
X-1184066Y1027756D03*
X-1179066D03*
Y1049016D03*
X-1184066D03*
G54D42*
X-1228900Y1000900D03*
Y1007900D03*
G54D24*
X-1270734Y957169D03*
X-1274080D03*
X-1270734Y964453D03*
X-1274080D03*
G54D61*
X-1154500Y1164996D03*
X-1152925D03*
Y1184288D03*
X-1154500D03*
X-1151350Y1164996D03*
X-1149775D03*
X-1148200D03*
X-1146626D03*
X-1145051D03*
X-1143476D03*
X-1141901D03*
X-1140326D03*
Y1184288D03*
X-1141901D03*
X-1143476D03*
X-1145051D03*
X-1146626D03*
X-1148200D03*
X-1149775D03*
X-1151350D03*
G54D52*
X-1189547Y1056394D03*
Y1066594D03*
X-1182047Y1056394D03*
X-1185797D03*
X-1182047Y1066594D03*
G54D118*
X-999524Y1122721D03*
Y1128627D03*
X-994800Y1122721D03*
Y1128627D03*
G54D70*
X-1107056Y1164400D03*
Y1172700D03*
G54D34*
X-1242508Y931176D03*
G54D16*
X-1285878Y943669D03*
X-1263122D03*
G54D43*
X-1223272Y1102998D03*
Y1104966D03*
Y1106935D03*
Y1108904D03*
Y1110872D03*
Y1112840D03*
Y1114809D03*
Y1116778D03*
Y1118746D03*
Y1120714D03*
Y1122683D03*
Y1124652D03*
Y1126620D03*
Y1128588D03*
Y1130557D03*
Y1132526D03*
Y1134494D03*
Y1136462D03*
Y1138431D03*
Y1140400D03*
Y1142368D03*
Y1144336D03*
Y1146305D03*
Y1148274D03*
Y1150242D03*
X-1221304Y1102998D03*
X-1219335D03*
X-1217366D03*
X-1215398D03*
X-1213430D03*
X-1211461D03*
X-1221304Y1104966D03*
X-1219335D03*
X-1217366D03*
X-1215398D03*
X-1213430D03*
X-1211461D03*
X-1221304Y1106935D03*
X-1215398D03*
X-1213430D03*
X-1221304Y1108904D03*
X-1217366D03*
X-1213430D03*
X-1221304Y1110872D03*
X-1219335D03*
X-1215398D03*
X-1211461D03*
X-1221304Y1112840D03*
X-1219335D03*
X-1217366D03*
X-1213430D03*
X-1221304Y1114809D03*
X-1215398D03*
X-1211461D03*
X-1221304Y1116778D03*
X-1215398D03*
X-1213430D03*
X-1221304Y1118746D03*
X-1219335D03*
X-1217366D03*
X-1211461D03*
X-1221304Y1120714D03*
X-1219335D03*
X-1217366D03*
X-1211461D03*
X-1221304Y1122683D03*
X-1215398D03*
X-1213430D03*
X-1221304Y1124652D03*
X-1217366D03*
X-1215398D03*
X-1211461D03*
X-1221304Y1126620D03*
X-1219335D03*
X-1213430D03*
X-1221304Y1128588D03*
X-1217366D03*
X-1215398D03*
X-1211461D03*
X-1221304Y1130557D03*
X-1219335D03*
X-1215398D03*
X-1213430D03*
X-1221304Y1132526D03*
X-1217366D03*
X-1211461D03*
X-1221304Y1134494D03*
X-1219335D03*
X-1217366D03*
X-1211461D03*
X-1221304Y1136462D03*
X-1215398D03*
X-1213430D03*
X-1221304Y1138431D03*
X-1215398D03*
X-1211461D03*
X-1221304Y1140400D03*
X-1219335D03*
X-1217366D03*
X-1213430D03*
X-1221304Y1142368D03*
X-1219335D03*
X-1215398D03*
X-1211461D03*
X-1221304Y1144336D03*
X-1217366D03*
X-1213430D03*
X-1221304Y1146305D03*
X-1215398D03*
X-1213430D03*
X-1221304Y1148274D03*
X-1219335D03*
X-1217366D03*
X-1215398D03*
X-1213430D03*
X-1211461D03*
X-1221304Y1150242D03*
X-1219335D03*
X-1217366D03*
X-1215398D03*
X-1213430D03*
X-1211461D03*
X-1209492Y1102998D03*
X-1207524D03*
X-1205556D03*
X-1203587D03*
X-1201618D03*
X-1199650D03*
X-1209492Y1104966D03*
X-1207524D03*
X-1205556D03*
X-1203587D03*
X-1201618D03*
X-1199650D03*
X-1207524Y1106935D03*
X-1203587D03*
X-1199650D03*
X-1207524Y1108904D03*
X-1205556D03*
X-1201618D03*
X-1209492Y1110872D03*
X-1203587D03*
X-1201618D03*
X-1209492Y1112840D03*
X-1203587D03*
X-1199650D03*
X-1207524Y1114809D03*
X-1205556D03*
X-1201618D03*
X-1199650D03*
X-1209492Y1116778D03*
X-1207524D03*
X-1205556D03*
X-1203587D03*
X-1199650D03*
X-1209492Y1118746D03*
X-1203587D03*
X-1201618D03*
X-1199650D03*
X-1207524Y1120714D03*
X-1205556D03*
X-1199650D03*
X-1209492Y1122683D03*
X-1203587D03*
X-1201618D03*
X-1209492Y1124652D03*
X-1207524D03*
X-1205556D03*
X-1201618D03*
X-1199650D03*
X-1209492Y1126620D03*
X-1203587D03*
X-1201618D03*
X-1199650D03*
X-1207524Y1128588D03*
X-1205556D03*
X-1199650D03*
X-1209492Y1130557D03*
X-1203587D03*
X-1201618D03*
X-1199650D03*
X-1209492Y1132526D03*
X-1207524D03*
X-1205556D03*
X-1199650D03*
X-1209492Y1134494D03*
X-1203587D03*
X-1201618D03*
X-1209492Y1136462D03*
X-1207524D03*
X-1205556D03*
X-1203587D03*
X-1199650D03*
X-1207524Y1138431D03*
X-1205556D03*
X-1201618D03*
X-1199650D03*
X-1209492Y1140400D03*
X-1203587D03*
X-1199650D03*
X-1209492Y1142368D03*
X-1203587D03*
X-1201618D03*
X-1207524Y1144336D03*
X-1205556D03*
X-1201618D03*
X-1207524Y1146305D03*
X-1203587D03*
X-1199650D03*
X-1209492Y1148274D03*
X-1207524D03*
X-1205556D03*
X-1203587D03*
X-1201618D03*
X-1199650D03*
X-1209492Y1150242D03*
X-1207524D03*
X-1205556D03*
X-1203587D03*
X-1201618D03*
X-1199650D03*
X-1197682Y1102998D03*
X-1195713D03*
X-1193744D03*
X-1191776D03*
X-1189808D03*
X-1187839D03*
X-1197682Y1104966D03*
X-1195713D03*
X-1193744D03*
X-1191776D03*
X-1189808D03*
X-1187839D03*
X-1195713Y1106935D03*
X-1191776D03*
X-1197682Y1108904D03*
X-1193744D03*
X-1191776D03*
X-1197682Y1110872D03*
X-1195713D03*
X-1189808D03*
X-1187839D03*
X-1195713Y1112840D03*
X-1189808D03*
X-1197682Y1114809D03*
X-1193744D03*
X-1191776D03*
X-1187839D03*
X-1195713Y1116778D03*
X-1193744D03*
X-1191776D03*
X-1189808D03*
X-1197682Y1118746D03*
X-1189808D03*
X-1187839D03*
X-1195713Y1120714D03*
X-1193744D03*
X-1191776D03*
X-1189808D03*
X-1187839D03*
X-1197682Y1122683D03*
X-1195713D03*
X-1189808D03*
X-1193744Y1124652D03*
X-1191776D03*
X-1189808D03*
X-1187839D03*
X-1197682Y1126620D03*
X-1195713D03*
X-1189808D03*
X-1193744Y1128588D03*
X-1191776D03*
X-1189808D03*
X-1187839D03*
X-1197682Y1130557D03*
X-1195713D03*
X-1189808D03*
X-1197682Y1132526D03*
X-1193744D03*
X-1191776D03*
X-1189808D03*
X-1187839D03*
X-1197682Y1134494D03*
X-1195713D03*
X-1189808D03*
X-1187839D03*
X-1195713Y1136462D03*
X-1193744D03*
X-1191776D03*
X-1189808D03*
X-1197682Y1138431D03*
X-1193744D03*
X-1191776D03*
X-1187839D03*
X-1195713Y1140400D03*
X-1189808D03*
X-1197682Y1142368D03*
X-1195713D03*
X-1189808D03*
X-1187839D03*
X-1197682Y1144336D03*
X-1193744D03*
X-1191776D03*
X-1195713Y1146305D03*
X-1191776D03*
X-1197682Y1148274D03*
X-1195713D03*
X-1193744D03*
X-1191776D03*
X-1189808D03*
X-1187839D03*
X-1197682Y1150242D03*
X-1195713D03*
X-1193744D03*
X-1191776D03*
X-1189808D03*
X-1187839D03*
X-1185870Y1102998D03*
X-1183902D03*
X-1181934D03*
X-1179965D03*
X-1177996D03*
X-1176028D03*
X-1185870Y1104966D03*
X-1183902D03*
X-1181934D03*
X-1179965D03*
X-1177996D03*
X-1176028D03*
X-1185870Y1106935D03*
X-1183902D03*
X-1177996D03*
X-1176028D03*
X-1185870Y1108904D03*
X-1181934D03*
X-1177996D03*
X-1176028D03*
X-1183902Y1110872D03*
X-1179965D03*
X-1177996D03*
X-1176028D03*
X-1185870Y1112840D03*
X-1181934D03*
X-1179965D03*
X-1177996D03*
X-1176028D03*
X-1183902Y1114809D03*
X-1177996D03*
X-1176028D03*
X-1185870Y1116778D03*
X-1183902D03*
X-1177996D03*
X-1176028D03*
X-1181934Y1118746D03*
X-1179965D03*
X-1177996D03*
X-1176028D03*
X-1181934Y1120714D03*
X-1177996D03*
X-1176028D03*
X-1185870Y1122683D03*
X-1183902D03*
X-1179965D03*
X-1177996D03*
X-1176028D03*
X-1183902Y1124652D03*
X-1181934D03*
X-1177996D03*
X-1176028D03*
X-1185870Y1126620D03*
X-1179965D03*
X-1177996D03*
X-1176028D03*
X-1183902Y1128588D03*
X-1181934D03*
X-1177996D03*
X-1176028D03*
X-1185870Y1130557D03*
X-1183902D03*
X-1179965D03*
X-1177996D03*
X-1176028D03*
X-1181934Y1132526D03*
X-1177996D03*
X-1176028D03*
X-1181934Y1134494D03*
X-1179965D03*
X-1177996D03*
X-1176028D03*
X-1185870Y1136462D03*
X-1183902D03*
X-1177996D03*
X-1176028D03*
X-1183902Y1138431D03*
X-1177996D03*
X-1176028D03*
X-1185870Y1140400D03*
X-1181934D03*
X-1179965D03*
X-1177996D03*
X-1176028D03*
X-1183902Y1142368D03*
X-1179965D03*
X-1177996D03*
X-1176028D03*
X-1185870Y1144336D03*
X-1181934D03*
X-1177996D03*
X-1176028D03*
X-1185870Y1146305D03*
X-1183902D03*
X-1177996D03*
X-1176028D03*
X-1185870Y1148274D03*
X-1183902D03*
X-1181934D03*
X-1179965D03*
X-1177996D03*
X-1176028D03*
X-1185870Y1150242D03*
X-1183902D03*
X-1181934D03*
X-1179965D03*
X-1177996D03*
X-1176028D03*
G54D25*
X-1275666Y1101945D03*
X-1278816D03*
X-1281966D03*
X-1275666Y1098795D03*
X-1278816D03*
X-1275666Y1095645D03*
X-1278816D03*
X-1281966Y1098795D03*
Y1095645D03*
X-1275666Y1114545D03*
X-1278816D03*
X-1281966D03*
X-1275666Y1111395D03*
X-1278816D03*
X-1275666Y1108245D03*
X-1278816D03*
X-1281966D03*
X-1275666Y1105095D03*
X-1278816D03*
X-1281966Y1111395D03*
Y1105095D03*
X-1275666Y1123995D03*
X-1278816D03*
X-1281966D03*
X-1275666Y1120845D03*
X-1278816D03*
X-1281966D03*
X-1275666Y1117695D03*
X-1278816D03*
X-1281966D03*
X-1275666Y1136595D03*
X-1278816D03*
X-1281966D03*
X-1275666Y1133445D03*
X-1278816D03*
X-1281966D03*
X-1275666Y1130295D03*
X-1278816D03*
X-1281966D03*
X-1275666Y1127145D03*
X-1278816D03*
X-1281966D03*
X-1275666Y1142895D03*
X-1278816D03*
X-1281966D03*
X-1275666Y1139745D03*
X-1278816D03*
X-1281966D03*
X-1259916Y1101945D03*
X-1263066D03*
X-1259916Y1098795D03*
X-1263066D03*
X-1259916Y1095645D03*
X-1263066D03*
X-1259916Y1114545D03*
X-1263066D03*
X-1259916Y1111395D03*
X-1263066D03*
X-1259916Y1108245D03*
X-1263066D03*
X-1259916Y1105095D03*
X-1263066D03*
X-1259916Y1123995D03*
X-1263066D03*
X-1259916Y1120845D03*
X-1263066D03*
X-1259916Y1117695D03*
X-1263066D03*
X-1259916Y1136595D03*
X-1263066D03*
X-1259916Y1133445D03*
X-1263066D03*
X-1259916Y1130295D03*
X-1263066D03*
X-1259916Y1127145D03*
X-1263066D03*
X-1259916Y1142895D03*
X-1263066D03*
X-1259916Y1139745D03*
X-1263066D03*
X-1256766Y1098795D03*
Y1095645D03*
Y1101945D03*
Y1111395D03*
Y1105095D03*
Y1114545D03*
Y1108245D03*
Y1123995D03*
Y1120845D03*
Y1117695D03*
Y1136595D03*
Y1133445D03*
Y1130295D03*
Y1127145D03*
Y1142895D03*
Y1139745D03*
G54D109*
X-1029765Y1113591D03*
X-1030109Y1109856D03*
X-1031665Y1111412D03*
X-1031321Y1115147D03*
G54D119*
G01X-1024530Y1082300D02*
X-1056400D01*
G01D02*
Y1166100D01*
G01D02*
X-990365D01*
G01X-1005100Y1082300D02*
X-1014600D01*
G01X-990365Y1166100D02*
Y1082300D01*
X-995900D01*
G54D62*
X-1145887Y1018200D03*
X-1143918D03*
X-1141950D03*
X-1139981D03*
Y1053240D03*
X-1141950D03*
X-1143918D03*
X-1145887D03*
X-1138013Y1018200D03*
X-1136044D03*
X-1134076D03*
X-1132107D03*
X-1130139D03*
X-1128170D03*
Y1053240D03*
X-1130139D03*
X-1132107D03*
X-1134076D03*
X-1136044D03*
X-1138013D03*
X-1126202Y1018200D03*
X-1124233D03*
X-1122265D03*
X-1120296D03*
X-1118328D03*
X-1116359D03*
Y1053240D03*
X-1118328D03*
X-1120296D03*
X-1122265D03*
X-1124233D03*
X-1126202D03*
G54D26*
X-1260518Y970690D03*
Y982501D03*
Y980533D03*
Y978564D03*
Y976596D03*
Y974627D03*
Y972659D03*
Y984470D03*
X-1241620Y970690D03*
Y972659D03*
Y974627D03*
Y976596D03*
Y978564D03*
Y980533D03*
Y982501D03*
Y984470D03*
G54D71*
X-1100437Y1006865D03*
X-1098469D03*
X-1094531D03*
X-1092563D03*
Y1010409D03*
X-1094531D03*
X-1098469D03*
X-1100437D03*
X-1086437Y1006865D03*
X-1084469D03*
X-1080531D03*
Y1010409D03*
X-1084469D03*
X-1086437D03*
X-1078563Y1006865D03*
Y1010409D03*
G54D53*
X-1182396Y948444D03*
Y983877D03*
X-1156806Y958680D03*
Y996081D03*
G54D35*
X-1242508Y941176D03*
Y951176D03*
G54D80*
X-1078404Y1081656D03*
Y1172994D03*
G54D17*
X-1291300Y958000D03*
X-1285300D03*
X-1287300Y1223570D03*
X-1281300D03*
X-1212550Y995934D03*
X-1206550D03*
X-1051030Y1147270D03*
X-1045030D03*
X-1042930Y1158970D03*
X-1036930D03*
G54D44*
X-1215600Y931679D03*
G54D72*
X-1096500Y1006865D03*
Y1010409D03*
X-1082500Y1006865D03*
Y1010409D03*
G54D81*
X-1082115Y1111385D03*
Y1116207D03*
X-1075717Y1111385D03*
Y1116207D03*
G54D90*
X-1055842Y953120D03*
X-1015842D03*
G54D18*
X-1288103Y962200D03*
X-1286097D03*
X-1284903Y1219170D03*
X-1282897D03*
X-1245103Y1076670D03*
X-1243097D03*
X-1195839Y1066434D03*
X-1193833D03*
X-1153193Y1124664D03*
X-1157603Y1138400D03*
X-1155597D03*
X-1153193Y1134630D03*
Y1131630D03*
Y1128530D03*
X-1157603Y1149600D03*
X-1155597D03*
X-1163295Y1139800D03*
X-1161289D03*
X-1157603Y1141200D03*
X-1155597D03*
X-1163295Y1142600D03*
X-1161289D03*
X-1157603Y1144000D03*
X-1155597D03*
X-1163295Y1145400D03*
X-1161289D03*
X-1163295Y1148200D03*
X-1161289D03*
X-1157603Y1146800D03*
X-1155597D03*
X-1163295Y1151000D03*
X-1161289D03*
X-1157603Y1152400D03*
X-1155597D03*
X-1142599Y1124664D03*
X-1140593D03*
X-1151187D03*
Y1134630D03*
X-1142599Y1131530D03*
X-1140593D03*
X-1151187Y1131630D03*
Y1128530D03*
X-1142599Y1134610D03*
X-1140593D03*
X-1142599Y1128530D03*
X-1140593D03*
X-1139104Y1160161D03*
X-1137098D03*
X-1128603Y1156100D03*
X-1133103Y1154456D03*
X-1131097D03*
X-1128603Y1153056D03*
X-1126597Y1156100D03*
Y1153056D03*
X-1104203Y1129000D03*
Y1131700D03*
X-1102197Y1129000D03*
Y1131700D03*
X-1086701Y1156786D03*
X-1084695D03*
X-1044715Y1127356D03*
X-1046429Y1143056D03*
X-1044423D03*
X-1037412Y1089600D03*
X-1035406D03*
X-1037412Y1097099D03*
X-1035406D03*
X-1037412Y1104604D03*
X-1035406D03*
X-1042709Y1127356D03*
X-1042503Y1175596D03*
X-1040497D03*
X-1026060Y1089600D03*
X-1024054D03*
X-1017515Y1156000D03*
X-1015509D03*
G54D27*
X-1260800Y1009200D03*
X-1267800D03*
X-1079856Y1072180D03*
X-1072856D03*
X-1022280Y1158578D03*
X-1029280D03*
G54D45*
X-1214690Y979187D03*
X-1210950D03*
Y988187D03*
X-1214690D03*
X-1207210Y979187D03*
Y988187D03*
G54D54*
X-1184403Y970208D03*
X-1182041D03*
Y968240D03*
X-1184403D03*
G54D63*
X-1131123Y1035720D03*
G54D36*
X-1235000Y1085070D03*
X-1223000D03*
G54D82*
X-1082640Y1110947D03*
Y1116853D03*
X-1075160Y1110947D03*
Y1116853D03*
G54D73*
X-1098443Y1042000D03*
X-1092143D03*
G54D46*
X-1218835Y1034600D03*
X-1216866D03*
X-1214897D03*
G54D28*
X-1259820Y999734D03*
X-1268820D03*
X-1231480Y981966D03*
X-1222480D03*
X-1214580Y1024666D03*
X-1205580D03*
G54D64*
X-1148643Y1030799D03*
Y1028830D03*
Y1026862D03*
Y1024893D03*
Y1022925D03*
Y1020956D03*
Y1042610D03*
Y1040641D03*
Y1038673D03*
Y1036704D03*
Y1034736D03*
Y1032767D03*
Y1050484D03*
Y1048515D03*
Y1046547D03*
Y1044578D03*
X-1113603Y1020956D03*
Y1022925D03*
Y1024893D03*
Y1026862D03*
Y1028830D03*
Y1030799D03*
Y1032767D03*
Y1034736D03*
Y1036704D03*
Y1038673D03*
Y1040641D03*
Y1042610D03*
Y1044578D03*
Y1046547D03*
Y1048515D03*
Y1050484D03*
G54D91*
X-1059310Y1191843D03*
Y1197354D03*
X-1064821Y1191843D03*
Y1197354D03*
X-1059310Y1202866D03*
X-1064821D03*
X-1059310Y1211134D03*
X-1064821D03*
Y1222157D03*
X-1059310Y1216646D03*
X-1064821D03*
X-1059310Y1222157D03*
X-1045530Y1191843D03*
Y1197354D03*
X-1053798Y1191843D03*
Y1197354D03*
X-1045530Y1202866D03*
X-1053798D03*
X-1045530Y1211134D03*
X-1053798D03*
X-1045530Y1216646D03*
X-1053798D03*
X-1045530Y1222157D03*
X-1053798D03*
X-1034507Y1191843D03*
X-1040018D03*
X-1034507Y1197354D03*
X-1040018D03*
X-1034507Y1202866D03*
X-1040018D03*
Y1211134D03*
X-1034507D03*
X-1040018Y1216646D03*
X-1034507D03*
Y1222157D03*
X-1040018D03*
G54D19*
X-1289900Y1068396D03*
Y1060404D03*
X-1259900Y1064400D03*
X-1041316Y1050456D03*
X-1011316Y1046460D03*
Y1054452D03*
G54D55*
X-1167632Y960491D03*
Y955944D03*
X-1171570Y958219D03*
Y953672D03*
X-1167632Y951396D03*
X-1171570Y971861D03*
X-1167632Y969585D03*
X-1171570Y967314D03*
X-1167632Y965038D03*
X-1171570Y962766D03*
X-1167632Y983227D03*
X-1171570Y980955D03*
X-1167632Y978680D03*
X-1171570Y976408D03*
X-1167632Y974133D03*
Y992322D03*
Y987774D03*
X-1171570Y990050D03*
Y985503D03*
X-1011201Y1074147D03*
Y1105643D03*
X-993400Y999069D03*
Y1016391D03*
Y1041669D03*
Y1058991D03*
Y1170539D03*
Y1187861D03*
G54D37*
X-1242997Y1086970D03*
X-1245003D03*
X-1242997Y1089570D03*
X-1245003D03*
X-1182300Y970208D03*
X-1184306D03*
X-1182300Y968240D03*
X-1184306D03*
X-1167267Y1092600D03*
X-1169273D03*
X-1172511Y1182761D03*
X-1174517D03*
X-1172511Y1185561D03*
X-1174517D03*
X-1172511Y1180061D03*
X-1174517D03*
X-1172511Y1191961D03*
X-1174517D03*
X-1172511Y1188761D03*
X-1174517D03*
X-1172511Y1195161D03*
X-1174517D03*
X-1158097Y1095695D03*
X-1160103D03*
X-1128497Y1111636D03*
X-1130503D03*
X-1128497Y1118526D03*
X-1130503D03*
X-1128697Y1124664D03*
X-1130703D03*
X-1128497Y1121626D03*
X-1130503D03*
X-1128497Y1115486D03*
X-1130503D03*
X-1130997Y1170705D03*
X-1133003D03*
X-1130997Y1164982D03*
X-1133003D03*
X-1128903Y1178579D03*
X-1130113Y1185509D03*
X-1132119D03*
X-1130397Y1217770D03*
X-1132403D03*
X-1126897Y1178579D03*
X-1100697Y1026300D03*
X-1102703D03*
X-1098457Y1088836D03*
X-1100463D03*
X-1098445Y1086136D03*
X-1100451D03*
X-1072777Y1140266D03*
X-1074783D03*
X-1072777Y1148066D03*
X-1074783D03*
X-1072777Y1145495D03*
X-1074783D03*
X-1072777Y1142914D03*
X-1074783D03*
X-1002453Y1136484D03*
X-1004459D03*
X-1002429Y1133936D03*
X-1004435D03*
G54D47*
X-1214897Y1038931D03*
X-1216866D03*
X-1218835D03*
X-1095695Y1128700D03*
X-1093725D03*
X-1091755D03*
X-1089785D03*
X-1087815D03*
X-1085845D03*
X-1083875D03*
X-1081905D03*
G54D56*
X-1166783Y1031745D03*
Y1043745D03*
G54D83*
X-1079929Y1189000D03*
G54D92*
X-1047399Y1063350D03*
Y1074964D03*
X-1005300Y1216893D03*
Y1228507D03*
G54D38*
X-1237700Y1093967D03*
Y1095973D03*
X-1201016Y971500D03*
Y973506D03*
X-1207386Y1089679D03*
Y1091685D03*
X-1191198Y970300D03*
X-1193166D03*
X-1199048Y971500D03*
X-1191198Y972306D03*
X-1193166D03*
X-1195148Y978838D03*
Y980844D03*
X-1197116Y978838D03*
Y980844D03*
X-1199048Y973506D03*
X-1192620Y1089632D03*
Y1091638D03*
X-1164900Y1202097D03*
Y1204103D03*
X-1162127Y1202059D03*
Y1204065D03*
X-1114844Y1131897D03*
Y1133903D03*
X-1110315Y1163397D03*
Y1165403D03*
X-1098985Y1171697D03*
Y1173703D03*
Y1163397D03*
Y1165403D03*
X-1045400Y1027512D03*
Y1029518D03*
X-1038052Y1099800D03*
Y1102000D03*
X-1035309Y1092300D03*
Y1094500D03*
Y1099897D03*
Y1101903D03*
X-1022864Y1109802D03*
Y1111808D03*
X-1026757Y1104643D03*
Y1106649D03*
X-1029452Y1104624D03*
Y1106630D03*
X-1019201Y1086197D03*
Y1088203D03*
Y1109770D03*
Y1111776D03*
X-1006864Y1120937D03*
Y1122943D03*
G54D65*
X-1141666Y1221034D03*
X-1139048Y1228034D03*
X-1144166D03*
X-1119766Y1221034D03*
X-1117148Y1228034D03*
X-1122266D03*
G54D74*
X-1095464Y1063076D03*
X-1098023D03*
X-1100583D03*
X-1103142D03*
X-1095464Y1080398D03*
X-1098023D03*
X-1100583D03*
X-1103142D03*
G54D29*
X-1264766Y1072483D03*
Y1070477D03*
X-1236500Y1102173D03*
Y1100167D03*
X-1239200Y1102173D03*
Y1100167D03*
X-1217214Y995303D03*
Y997309D03*
X-1189380Y1076756D03*
Y1074750D03*
X-1195280Y1089661D03*
Y1091667D03*
X-1185780Y1076774D03*
Y1074768D03*
X-1180914Y1166949D03*
Y1164943D03*
X-1178314Y1166949D03*
Y1164943D03*
X-1175714Y1166949D03*
Y1164943D03*
X-1186114Y1166949D03*
Y1164943D03*
X-1183514Y1166949D03*
Y1164943D03*
X-1173114Y1166949D03*
Y1164943D03*
X-1143469Y1190887D03*
Y1188881D03*
X-1142353Y1203471D03*
Y1201465D03*
X-1128000Y1195784D03*
Y1193778D03*
X-1119800Y1195684D03*
Y1193678D03*
X-1123960Y1195784D03*
Y1193778D03*
X-1110315Y1173703D03*
Y1171697D03*
X-1085814Y1154207D03*
Y1152201D03*
X-1071914Y1123605D03*
Y1121599D03*
X-1038052Y1094500D03*
Y1092300D03*
X-1004900Y1160683D03*
Y1158677D03*
G54D48*
X-1213822Y1066886D03*
Y1074170D03*
X-1204766Y1066886D03*
Y1074170D03*
X-1156466Y1196291D03*
Y1203575D03*
X-1147410Y1196291D03*
Y1203575D03*
G54D93*
X-1046347Y1110613D03*
Y1122613D03*
G54D57*
X-1164153Y1186700D03*
Y1193000D03*
G54D39*
X-1227726Y953726D03*
X-1203474D03*
G54D66*
X-1128860Y937136D03*
X-1118860D03*
X-1086656D03*
X-1076656D03*
X-1043342Y978120D03*
X-1033342D03*
X-1038342Y988120D03*
X-1028342D03*
G54D75*
X-1088800Y1138600D03*
G54D84*
X-1084811Y1190969D03*
Y1187031D03*
G54D76*
X-1098700Y1137615D03*
Y1135645D03*
Y1133675D03*
Y1131705D03*
Y1145495D03*
Y1143525D03*
Y1141555D03*
Y1139585D03*
X-1078900Y1131705D03*
Y1133675D03*
Y1135645D03*
Y1137615D03*
Y1139585D03*
Y1141555D03*
Y1143525D03*
Y1145495D03*
G54D49*
X-1201022Y971241D03*
Y973603D03*
X-1199054Y971241D03*
X-1191198Y970041D03*
X-1193166D03*
X-1199054Y973603D03*
X-1195148Y980941D03*
Y978579D03*
X-1197116D03*
Y980941D03*
X-1191198Y972403D03*
X-1193166D03*
G54D94*
X-1038200Y1027056D03*
G54D67*
X-1125258Y953120D03*
X-1080258D03*
G54D58*
X-1165032Y1198365D03*
G54D85*
X-1077017Y1065090D03*
Y1061350D03*
Y1057610D03*
X-1068017D03*
Y1061350D03*
Y1065090D03*
G54D86*
X-1068955Y1183476D03*
Y1230524D03*
X-1066199Y1183476D03*
X-1063444D03*
X-1060688D03*
X-1057932D03*
Y1230524D03*
X-1060688D03*
X-1063444D03*
X-1066199D03*
X-1055176Y1183476D03*
X-1052420D03*
X-1049664D03*
X-1046908D03*
X-1044152D03*
Y1230524D03*
X-1046908D03*
X-1049664D03*
X-1052420D03*
X-1055176D03*
X-1041396Y1183476D03*
X-1038640D03*
X-1035884D03*
X-1033129D03*
Y1230524D03*
X-1035884D03*
X-1038640D03*
X-1041396D03*
X-1030373Y1183476D03*
Y1230524D03*
G54D77*
X-1093725Y1148500D03*
X-1095695D03*
X-1081905D03*
X-1083875D03*
X-1085845D03*
X-1087815D03*
X-1089785D03*
X-1091755D03*
G54D95*
X-1042137Y1029615D03*
Y1027056D03*
Y1024497D03*
X-1034263D03*
Y1027056D03*
Y1029615D03*
X-1012311Y1117434D03*
G54D59*
X-1147413Y1174642D03*
G54D68*
X-1133762Y965128D03*
X-1071754D03*
X-1062338D03*
X-1009346D03*
G54D69*
X-1126650Y1212196D03*
X-1132650D03*
X-1009500Y1160300D03*
X-1015500D03*
G54D78*
X-1102174Y1162431D03*
Y1166369D03*
Y1170731D03*
Y1174669D03*
G54D87*
X-1073384Y1183476D03*
Y1230524D03*
X-1025944Y1183476D03*
Y1230524D03*
G54D96*
X-1036900Y1038909D03*
X-1028900Y1035409D03*
Y1042409D03*
G54D79*
X-1095065Y1168585D03*
Y1172700D03*
Y1164400D03*
Y1176500D03*
X-1088765Y1168585D03*
Y1172700D03*
Y1164400D03*
Y1176500D03*
G54D88*
X-1073384Y1195976D03*
Y1193220D03*
Y1190465D03*
Y1187709D03*
Y1209756D03*
Y1207000D03*
Y1204244D03*
Y1201488D03*
Y1198732D03*
Y1220780D03*
Y1218024D03*
Y1215268D03*
Y1212512D03*
Y1226291D03*
Y1223535D03*
X-1025944Y1187709D03*
Y1190465D03*
Y1193220D03*
Y1195976D03*
Y1198732D03*
Y1201488D03*
Y1204244D03*
Y1207000D03*
Y1209756D03*
Y1212512D03*
Y1215268D03*
Y1218024D03*
Y1220780D03*
Y1223535D03*
Y1226291D03*
G54D97*
X-1035400Y1066387D03*
Y1069143D03*
X-1016000Y1219922D03*
Y1222678D03*
G54D89*
X-1059700Y931800D03*
Y940458D03*
X-1048600Y931800D03*
Y940458D03*
G54D98*
X-1041198Y1069157D03*
X-1011501Y1222700D03*
X-1000222Y1073402D03*
X-1006600Y1186101D03*
G54D99*
X-1037177Y1109635D03*
X-1035621Y1111191D03*
X-1035240Y1107836D03*
X-1033822Y1109254D03*
X-1027701Y1115375D03*
X-1026145Y1116931D03*
X-1029570Y1117243D03*
X-1028014Y1118799D03*
M02*
