%
T1C.00984F0S0
X04124Y044587
X041437Y044882
X041732Y045472
X040512Y04561
X042126Y045846
X041535Y045866
X041831Y045866
X041417Y046161
X040512Y04628
X041417Y046614
X040512Y047067
X043839Y055709
X042441Y055512
X043858Y055217
X044587Y05498
X042441Y054429
X04439Y054055
X044587Y052736
X042677Y04872
X043937Y04872
X044587Y048602
X043937Y047953
X042677Y047933
X044193Y04748
X043996Y047283
X043898Y046654
X044291Y046654
X043504Y046654
X042756Y046555
X044291Y04626
X043898Y04626
X043504Y04626
X043898Y045866
X043504Y045866
X044291Y045866
X042815Y045768
X042815Y045472
X043602Y045177
X043209Y045079
X042717Y045079
X042382Y043957
X048484Y042244
X048248Y042244
X048248Y04248
X048484Y04248
X048386Y044587
X04878Y044803
X048425Y044921
X047835Y044961
X047835Y045177
X047835Y045394
X048425Y045433
X046181Y045512
X045945Y045512
X045472Y046752
X046752Y047047
X046654Y047736
X047539Y052067
X047343Y052264
X045256Y05374
X05128Y051476
X051083Y05128
X050886Y051083
X050689Y050886
X050492Y050689
X051476Y050197
X051988Y050098
X050295Y04998
X051614Y048346
X051024Y047874
X050492Y045965
X051476Y045886
X050984Y045886
X052028Y045866
X050492Y044882
X049902Y044587
X05376Y044606
X054606Y044606
X054035Y045138
X053839Y045866
X054311Y046949
X053248Y047244
X053248Y048228
X053248Y04874
X053839Y049016
X05374Y049409
X053681Y05374
X054941Y044882
X054862Y044606
T2C.01181F095S3
X049508Y045079
X049213Y045079
X049035Y046201
X04878Y046201
X042756Y047343
X043031Y047343
T3C.01575F095S3
X041831Y039764
X039764Y039764
X039764Y041929
X041043Y042421
X041437Y043012
X041339Y044094
X042126Y047835
X041043Y048228
X039764Y048425
X041929Y053937
X039764Y054035
X041929Y056299
X039862Y056299
X043504Y056299
X043996Y053642
X043307Y05315
X042717Y052657
X044094Y052559
X044685Y044094
X042717Y043602
X044685Y043504
X04252Y043012
X042323Y041929
X042421Y040551
X04311Y039764
X046063Y039764
X044783Y039764
X04685Y039764
X046457Y039764
X046063Y040256
X046457Y040256
X04685Y040256
X04685Y04065
X046457Y04065
X046063Y04065
X045768Y043091
X045276Y043504
X045276Y044094
X046122Y044114
X044882Y044685
X045472Y044685
X046063Y044685
X045472Y045472
X045571Y04626
X047165Y04748
X046949Y048228
X047244Y049213
X04685Y05
X047244Y051181
X04685Y051575
X047244Y05315
X046772Y053248
X045374Y053248
X046752Y05374
X045571Y054626
X045276Y055118
X045571Y056299
X049508Y05374
X048622Y05374
X047736Y05374
X049213Y05315
X047736Y051575
X049016Y051575
X048228Y051575
X048228Y050787
X049016Y050787
X047736Y050394
X048228Y05
X049016Y05
X049213Y049213
X047835Y048425
X048917Y047736
X049705Y042402
X048228Y041142
X048228Y040748
X048228Y040354
X048425Y039764
X05128Y039764
X050197Y039764
X051772Y039764
X050335Y042382
X051358Y044114
X050315Y044114
X052244Y044862
X05Y046063
X049803Y05
X049803Y050787
X050374Y05124
X049803Y051575
X050394Y051673
X051772Y051772
X051181Y05315
X050394Y05374
X051181Y05374
X051969Y05374
X054134Y056299
X053248Y056299
X05315Y055118
X053937Y048425
X053051Y046299
X053484Y046299
X052953Y04498
X054665Y044075
X053819Y044055
X053819Y043642
X054646Y043622
X054232Y043622
X054134Y042717
X053661Y041752
X053366Y040827
X052362Y039764
X05315Y039764
X054035Y039764
X05628Y039803
X05628Y041909
X055315Y04248
X05628Y043031
X056299Y044685
X056319Y045591
X054921Y046358
X056319Y046535
X055709Y047146
X056299Y048524
X055217Y048524
X056299Y054035
X056299Y056299
T4C.0315F197S55
X039803Y044936
X040079Y044936
X039803Y047771
X040079Y047771
X055512Y045965
X055512Y045177
X055512Y04439
X055512Y043602
T5C.03346F197S55
X041083Y045399
X041083Y047308
T6C.03937F197S55
X043406Y040748
X043406Y041732
X043406Y042717
X043406Y043701
X045079Y042717
X050984Y042717
X045079Y041732
X050984Y041732
X050984Y040748
X045079Y040748
X052657Y040748
X052657Y041732
X052657Y042717
X052657Y043701
T7C.04331F139S55
X041248Y04928
X040248Y04928
X041248Y05028
X040248Y05028
X041248Y05128
X040248Y05128
X041248Y05228
X040248Y05228
X041248Y05328
X040248Y05328
X054815Y05328
X055815Y05328
X054815Y05228
X055815Y05228
X054815Y05128
X055815Y05128
X055815Y05028
X054815Y05028
X055815Y04928
X054815Y04928
X05502Y047736
X05402Y047736
X05602Y047736
T8C.15748F035S9
X040945Y040945
X040945Y055118
X055118Y055118
X055118Y040945
M30
