*
*
G04 PADS Layout (Build Number 2006.45.1) generated Gerber (RS-274-X) file*
G04 PC Version=2.1*
*
%IN "COMMXEL_W-REVC(191008)-"*%
*
%MOIN*%
*
%FSLAX35Y35*%
*
*
*
*
G04 PC Standard Apertures*
*
*
G04 Thermal Relief Aperture macro.*
%AMTER*
1,1,$1,0,0*
1,0,$1-$2,0,0*
21,0,$3,$4,0,0,45*
21,0,$3,$4,0,0,135*
%
*
*
G04 Annular Aperture macro.*
%AMANN*
1,1,$1,0,0*
1,0,$2,0,0*
%
*
*
G04 Odd Aperture macro.*
%AMODD*
1,1,$1,0,0*
1,0,$1-0.005,0,0*
%
*
*
G04 PC Custom Aperture Macros*
*
*
*
*
*
*
G04 PC Aperture Table*
*
%ADD010C,0.00394*%
%ADD026C,0.01181*%
%ADD027C,0.0315*%
%ADD054C,0.06299*%
%ADD067C,0.01969*%
*
*
*
*
G04 PC Custom Flashes*
G04 Layer Name COMMXEL_W-REVC(191008)- - flashes*
%LPD*%
*
*
G04 PC Circuitry*
G04 Layer Name COMMXEL_W-REVC(191008)- - circuitry*
%LPD*%
*
G54D10*
G01X563189Y409449D02*
G75*
G03X563189I-12008J0D01*
G01X558169Y436024D02*
G03X558169I-3051J0D01*
G01X531102Y407480D02*
G03X531102I-4527J0D01*
G01X514370D02*
G03X514370I-4527J0D01*
G01X513189Y417323D02*
G03X513189I-3346J0D01*
G01X438583Y437008D02*
G03X438583I-4528J0D01*
G01X421457Y409449D02*
G03X421457I-12008J0D01*
G01X558169Y451772D02*
G03X558169I-3051J0D01*
G01Y459646D02*
G03X558169I-3051J0D01*
G01X563740Y477362D02*
G03X563740I-3543J0D01*
G01X561496Y492795D02*
G03X561496I-3346J0D01*
G01Y502795D02*
G03X561496I-3346J0D01*
G01Y512795D02*
G03X561496I-3346J0D01*
G01Y522795D02*
G03X561496I-3346J0D01*
G01Y532795D02*
G03X561496I-3346J0D01*
G01X551083Y448819D02*
G03X551083I-1674J0D01*
G01X553740Y477362D02*
G03X553740I-3543J0D01*
G01X551496Y492795D02*
G03X551496I-3346J0D01*
G01Y502795D02*
G03X551496I-3346J0D01*
G01Y512795D02*
G03X551496I-3346J0D01*
G01Y522795D02*
G03X551496I-3346J0D01*
G01Y532795D02*
G03X551496I-3346J0D01*
G01X542028Y451378D02*
G03X542028I-1674J0D01*
G01X540059Y458661D02*
G03X540059I-1673J0D01*
G01X543740Y477362D02*
G03X543740I-3543J0D01*
G01X563189Y551181D02*
G03X563189I-12008J0D01*
G01X539075Y494094D02*
G03X539075I-1673J0D01*
G01X534154Y472441D02*
G03X534154I-1674J0D01*
G01Y482283D02*
G03X534154I-1674J0D01*
G01Y487402D02*
G03X534154I-1674J0D01*
G01X516437Y458858D02*
G03X516437I-1673J0D01*
G01Y501969D02*
G03X516437I-1673J0D01*
G01X511516Y458858D02*
G03X511516I-1673J0D01*
G01X511909Y478740D02*
G03X511909I-1673J0D01*
G01X506595Y459646D02*
G03X506595I-1674J0D01*
G01X504626Y499803D02*
G03X504626I-1673J0D01*
G01X485925Y449213D02*
G03X485925I-1673J0D01*
G01Y454331D02*
G03X485925I-1673J0D01*
G01X468209Y477362D02*
G03X468209I-1674J0D01*
G01X469685Y532480D02*
G03X469685I-1968J0D01*
G01X456398Y467520D02*
G03X456398I-1674J0D01*
G01X455709Y532480D02*
G03X455709I-1969J0D01*
G01X447539Y486024D02*
G03X447539I-1673J0D01*
G01Y527362D02*
G03X447539I-1673J0D01*
G01X445571Y540551D02*
G03X445571I-1673J0D01*
G01X447539Y549803D02*
G03X447539I-1673J0D01*
G01X437697Y451772D02*
G03X437697I-1673J0D01*
G01X441043Y479528D02*
G03X441043I-1673J0D01*
G01Y487205D02*
G03X441043I-1673J0D01*
G01X440059Y557087D02*
G03X440059I-1673J0D01*
G01X429232Y465551D02*
G03X429232I-1673J0D01*
G01X428445Y479331D02*
G03X428445I-1673J0D01*
G01Y487205D02*
G03X428445I-1673J0D01*
G01X416043Y448819D02*
G03X416043I-1673J0D01*
G01X418996Y454724D02*
G03X418996I-1673J0D01*
G01X414665Y453986D02*
G03X414665I-3838J0D01*
G01X415846Y461614D02*
G03X415846I-1673J0D01*
G01Y466142D02*
G03X415846I-1673J0D01*
G01X414665Y473081D02*
G03X414665I-3838J0D01*
G01X415827Y492795D02*
G03X415827I-3347J0D01*
G01Y502795D02*
G03X415827I-3347J0D01*
G01Y512795D02*
G03X415827I-3347J0D01*
G01Y522795D02*
G03X415827I-3347J0D01*
G01Y532795D02*
G03X415827I-3347J0D01*
G01X405827Y492795D02*
G03X405827I-3347J0D01*
G01Y502795D02*
G03X405827I-3347J0D01*
G01Y512795D02*
G03X405827I-3347J0D01*
G01Y522795D02*
G03X405827I-3347J0D01*
G01Y532795D02*
G03X405827I-3347J0D01*
G01X421457Y551181D02*
G03X421457I-12008J0D01*
G01X564764Y397638D02*
Y440945D01*
G03X562992Y442717I-1772J-0*
G01X557931*
X552305D02*
G03X557931I2813J1181D01*
G01X552305D02*
X532902D01*
X533637Y441982*
X534646Y439546D02*
G03X533637Y441982I-3445J-0D01*
G01X534646Y439546D02*
Y425808D01*
X533637Y423372D02*
G03X534646Y425808I-2436J2436D01*
G01X533637Y423372D02*
X533637D01*
X531549Y421285*
X531549*
X529113Y420276D02*
G03X531549Y421285I-0J3444D01*
G01X529113Y420276D02*
X528150D01*
X525000D02*
G03X528150I1575J-2953D01*
G01X525000D02*
X515375D01*
X512939Y421285D02*
G03X515375Y420276I2436J2435D01*
G01X512939Y421285D02*
X512939D01*
X511905Y422319*
X510216Y422653*
X505315Y427165D02*
G03X510216Y422653I4528J0D01*
G01X505315Y427165D02*
X475225D01*
X455309Y407250*
X447535Y410630D02*
G03X455309Y407250I3252J-3150D01*
G01X447535Y410630D02*
X439391D01*
X438386Y410780D02*
G03X439391Y410630I1005J3295D01*
G01X438386Y410780D02*
Y408801D01*
X429543Y407854D02*
G03X438386Y408801I4512J-374D01*
G01X429543Y407854D02*
X429209Y409542D01*
X427190Y411561*
X426181Y413997D02*
G03X427190Y411561I3445J0D01*
G01X426181Y413997D02*
Y419664D01*
X427190Y422100D02*
G03X426181Y419664I2436J-2436D01*
G01X427190Y422100D02*
X427190D01*
X428294Y423204*
X428294*
X430730Y424213D02*
G03X428294Y423204I-0J-3445D01*
G01X430730Y424213D02*
X432480D01*
X435630D02*
G03X432480I-1575J2952D01*
G01X435630D02*
X447355D01*
X454220D02*
G03X447355I-3433J2952D01*
G01X454220D02*
X454893D01*
X468648Y437967*
X468648*
X471084Y438976D02*
G03X468648Y437967I-0J-3445D01*
G01X471084Y438976D02*
X521690D01*
X522441Y439479*
Y442717*
X397638*
G03X395866Y440945I-0J-1772*
G01Y398352*
G03X397660Y395866I2338J-203*
G01X562992*
G03X564764Y397638I0J1772*
G01Y446850D02*
Y562992D01*
G03X562992Y564764I-1772J0*
G01X529724*
Y539764*
X529528Y539567D02*
G03X529724Y539764I-0J197D01*
G01X529528Y539567D02*
X458661D01*
X458465Y539764D02*
G03X458661Y539567I196J-0D01*
G01X458465Y539764D02*
Y564764D01*
X398622*
G03X395866Y562008I0J-2756*
G01Y480782*
X398081Y481496D02*
G03X395866Y480782I-0J-3789D01*
G01X398081Y481496D02*
X400738D01*
Y473917D02*
G03Y481496I0J3790D01*
G01Y473917D02*
X398081D01*
X395866Y474632D02*
G03X398081Y473917I2215J3075D01*
G01X395866Y474632D02*
Y452435D01*
X398081Y453150D02*
G03X395866Y452435I-0J-3790D01*
G01X398081Y453150D02*
X400738D01*
Y445571D02*
G03Y453150I0J3789D01*
G01Y445571D02*
X398081D01*
X395990Y446200D02*
G03X398081Y445571I2091J3160D01*
G01X395990Y446200D02*
G03X397638Y445079I1648J650D01*
G01X524995*
X524213Y447265D02*
G03X524995Y445079I3444J0D01*
G01X524213Y447265D02*
Y493870D01*
X519413Y498669*
X522197Y501453D02*
G03X519413Y498669I-2315J-469D01*
G01X522197Y501453D02*
X527141Y496509D01*
X528150Y494074D02*
G03X527141Y496509I-3445J-0D01*
G01X528150Y494074D02*
Y447469D01*
X530540Y445079*
X552305*
X557931D02*
G03X552305I-2813J-1181D01*
G01X557931D02*
X562992D01*
G03X564764Y446850I0J1771*
G01X563189Y409449D02*
G03X563189I-12008J0D01*
G01X558169Y436024D02*
G03X558169I-3051J0D01*
G01X531102Y407480D02*
G03X531102I-4527J0D01*
G01X514370D02*
G03X514370I-4527J0D01*
G01X513189Y417323D02*
G03X513189I-3346J0D01*
G01X482293Y409449D02*
G03X482274I-10J1968D01*
G01X482293Y405512D02*
G03Y409449I-10J1968D01*
G01X482274Y405512D02*
G03X482293I9J-1969D01*
G01X482274Y409449D02*
G03Y405512I9J-1969D01*
G01X438583Y437008D02*
G03X438583I-4528J0D01*
G01X421457Y409449D02*
G03X421457I-12008J0D01*
G01X558169Y451772D02*
G03X558169I-3051J0D01*
G01Y459646D02*
G03X558169I-3051J0D01*
G01X563740Y477362D02*
G03X563740I-3543J0D01*
G01X561496Y492795D02*
G03X561496I-3346J0D01*
G01Y502795D02*
G03X561496I-3346J0D01*
G01Y512795D02*
G03X561496I-3346J0D01*
G01Y522795D02*
G03X561496I-3346J0D01*
G01Y532795D02*
G03X561496I-3346J0D01*
G01X551083Y448819D02*
G03X551083I-1674J0D01*
G01X553740Y477362D02*
G03X553740I-3543J0D01*
G01X551496Y492795D02*
G03X551496I-3346J0D01*
G01Y502795D02*
G03X551496I-3346J0D01*
G01Y512795D02*
G03X551496I-3346J0D01*
G01Y522795D02*
G03X551496I-3346J0D01*
G01Y532795D02*
G03X551496I-3346J0D01*
G01X542028Y451378D02*
G03X542028I-1674J0D01*
G01X540059Y458661D02*
G03X540059I-1673J0D01*
G01X543740Y477362D02*
G03X543740I-3543J0D01*
G01X563189Y551181D02*
G03X563189I-12008J0D01*
G01X539075Y494094D02*
G03X539075I-1673J0D01*
G01X534154Y472441D02*
G03X534154I-1674J0D01*
G01Y482283D02*
G03X534154I-1674J0D01*
G01Y487402D02*
G03X534154I-1674J0D01*
G01X516437Y458858D02*
G03X516437I-1673J0D01*
G01Y501969D02*
G03X516437I-1673J0D01*
G01X511516Y458858D02*
G03X511516I-1673J0D01*
G01X511909Y478740D02*
G03X511909I-1673J0D01*
G01X506595Y459646D02*
G03X506595I-1674J0D01*
G01X504626Y499803D02*
G03X504626I-1673J0D01*
G01X512468Y513123D02*
G03X511154Y514436I327J1641D01*
G01X510499Y511154D02*
G03X512468Y513123I328J1641D01*
G01X508531Y509186D02*
G03X510499Y511154I327J1641D01*
G01X506562Y507217D02*
G03X508531Y509186I328J1641D01*
G01X505249Y508531D02*
G03X506562Y507217I-328J-1641D01*
G01X507217Y510499D02*
G03X505249Y508531I-327J-1641D01*
G01X509186Y512468D02*
G03X507217Y510499I-328J-1641D01*
G01X511154Y514436D02*
G03X509186Y512468I-327J-1641D01*
G01X493602Y450000D02*
G03Y451575I1477J787D01*
Y450000I-1476J-788*
G01X489075Y460930D02*
G03Y463086I1279J1078D01*
Y460930I-1280J-1078*
G01X485925Y449213D02*
G03X485925I-1673J0D01*
G01Y454331D02*
G03X485925I-1673J0D01*
G01X473753Y520997D02*
G03X475066Y522310I1641J-328D01*
X473753Y520997I-1641J328*
G01X468209Y477362D02*
G03X468209I-1674J0D01*
G01X469685Y532480D02*
G03X469685I-1968J0D01*
G01X460630Y453933D02*
G03Y456303I1181J1185D01*
Y453933I-1181J-1185*
G01X456398Y467520D02*
G03X456398I-1674J0D01*
G01X455709Y532480D02*
G03X455709I-1969J0D01*
G01X447539Y486024D02*
G03X447539I-1673J0D01*
G01Y527362D02*
G03X447539I-1673J0D01*
G01X441601Y473162D02*
G03X440288Y474476I328J1641D01*
G01Y474475D02*
G03X441601Y473162I-327J-1640D01*
G01X445571Y540551D02*
G03X445571I-1673J0D01*
G01X447539Y549803D02*
G03X447539I-1673J0D01*
G01X437697Y451772D02*
G03X437697I-1673J0D01*
G01X441043Y479528D02*
G03X441043I-1673J0D01*
G01Y487205D02*
G03X441043I-1673J0D01*
G01X440059Y557087D02*
G03X440059I-1673J0D01*
G01X428937Y456201D02*
G03X427362I-787J1476D01*
X428937I788J-1477*
G01X429232Y465551D02*
G03X429232I-1673J0D01*
G01X428937Y472476D02*
G03Y474374I1378J949D01*
Y472476I-1378J-949*
G01X428445Y479331D02*
G03X428445I-1673J0D01*
G01Y487205D02*
G03X428445I-1673J0D01*
G01X416043Y448819D02*
G03X416043I-1673J0D01*
G01X418996Y454724D02*
G03X418996I-1673J0D01*
G01X414665Y453986D02*
G03X414665I-3838J0D01*
G01X415846Y461614D02*
G03X415846I-1673J0D01*
G01Y466142D02*
G03X415846I-1673J0D01*
G01X414665Y473081D02*
G03X414665I-3838J0D01*
G01X415827Y492795D02*
G03X415827I-3347J0D01*
G01Y502795D02*
G03X415827I-3347J0D01*
G01Y512795D02*
G03X415827I-3347J0D01*
G01Y522795D02*
G03X415827I-3347J0D01*
G01Y532795D02*
G03X415827I-3347J0D01*
G01X405827Y492795D02*
G03X405827I-3347J0D01*
G01Y502795D02*
G03X405827I-3347J0D01*
G01Y512795D02*
G03X405827I-3347J0D01*
G01Y522795D02*
G03X405827I-3347J0D01*
G01Y532795D02*
G03X405827I-3347J0D01*
G01X421457Y551181D02*
G03X421457I-12008J0D01*
G01X555453Y440865D02*
X564764D01*
X534508Y440510D02*
X564764D01*
X534591Y440156D02*
X564764D01*
X534636Y439802D02*
X564764D01*
X534646Y439448D02*
X564764D01*
X534646Y439093D02*
X564764D01*
X556510Y438739D02*
X564764D01*
X557051Y438385D02*
X564764D01*
X557417Y438030D02*
X564764D01*
X557683Y437676D02*
X564764D01*
X557880Y437322D02*
X564764D01*
X558020Y436967D02*
X564764D01*
X558112Y436613D02*
X564764D01*
X558160Y436259D02*
X564764D01*
X558167Y435904D02*
X564764D01*
X558132Y435550D02*
X564764D01*
X558055Y435196D02*
X564764D01*
X557931Y434841D02*
X564764D01*
X557754Y434487D02*
X564764D01*
X557513Y434133D02*
X564764D01*
X557184Y433778D02*
X564764D01*
X556715Y433424D02*
X564764D01*
X555882Y433070D02*
X564764D01*
X534646Y432715D02*
X564764D01*
X534646Y432361D02*
X564764D01*
X534646Y432007D02*
X564764D01*
X534646Y431652D02*
X564764D01*
X534646Y431298D02*
X564764D01*
X534646Y430944D02*
X564764D01*
X534646Y430589D02*
X564764D01*
X534646Y430235D02*
X564764D01*
X534646Y429881D02*
X564764D01*
X534646Y429526D02*
X564764D01*
X534646Y429172D02*
X564764D01*
X534646Y428818D02*
X564764D01*
X534646Y428463D02*
X564764D01*
X534646Y428109D02*
X564764D01*
X534646Y427755D02*
X564764D01*
X534646Y427400D02*
X564764D01*
X534646Y427046D02*
X564764D01*
X534646Y426692D02*
X564764D01*
X534646Y426337D02*
X564764D01*
X534646Y425983D02*
X564764D01*
X534641Y425629D02*
X564764D01*
X534604Y425274D02*
X564764D01*
X534529Y424920D02*
X564764D01*
X534414Y424566D02*
X564764D01*
X534253Y424211D02*
X564764D01*
X534040Y423857D02*
X564764D01*
X533760Y423503D02*
X564764D01*
X533413Y423148D02*
X564764D01*
X533058Y422794D02*
X564764D01*
X532704Y422440D02*
X564764D01*
X532350Y422085D02*
X564764D01*
X531995Y421731D02*
X564764D01*
X552566Y421377D02*
X564764D01*
X554382Y421022D02*
X564764D01*
X555461Y420668D02*
X564764D01*
X556294Y420314D02*
X564764D01*
X556988Y419959D02*
X564764D01*
X557587Y419605D02*
X564764D01*
X558117Y419251D02*
X564764D01*
X558593Y418896D02*
X564764D01*
X559024Y418542D02*
X564764D01*
X559417Y418188D02*
X564764D01*
X559777Y417833D02*
X564764D01*
X560109Y417479D02*
X564764D01*
X560415Y417125D02*
X564764D01*
X560699Y416770D02*
X564764D01*
X560961Y416416D02*
X564764D01*
X561204Y416062D02*
X564764D01*
X561429Y415707D02*
X564764D01*
X561637Y415353D02*
X564764D01*
X561830Y414999D02*
X564764D01*
X562007Y414644D02*
X564764D01*
X562170Y414290D02*
X564764D01*
X562319Y413936D02*
X564764D01*
X562455Y413581D02*
X564764D01*
X562579Y413227D02*
X564764D01*
X562691Y412873D02*
X564764D01*
X562790Y412518D02*
X564764D01*
X562878Y412164D02*
X564764D01*
X562955Y411810D02*
X564764D01*
X563020Y411455D02*
X564764D01*
X563075Y411101D02*
X564764D01*
X563119Y410747D02*
X564764D01*
X563152Y410392D02*
X564764D01*
X563175Y410038D02*
X564764D01*
X563187Y409684D02*
X564764D01*
X563188Y409329D02*
X564764D01*
X563180Y408975D02*
X564764D01*
X563160Y408621D02*
X564764D01*
X563131Y408266D02*
X564764D01*
X563090Y407912D02*
X564764D01*
X563039Y407558D02*
X564764D01*
X562977Y407203D02*
X564764D01*
X562904Y406849D02*
X564764D01*
X562820Y406495D02*
X564764D01*
X562724Y406140D02*
X564764D01*
X562617Y405786D02*
X564764D01*
X562497Y405432D02*
X564764D01*
X562365Y405077D02*
X564764D01*
X562220Y404723D02*
X564764D01*
X562061Y404369D02*
X564764D01*
X561889Y404014D02*
X564764D01*
X561702Y403660D02*
X564764D01*
X561499Y403306D02*
X564764D01*
X561279Y402951D02*
X564764D01*
X561042Y402597D02*
X564764D01*
X560786Y402243D02*
X564764D01*
X560510Y401888D02*
X564764D01*
X560211Y401534D02*
X564764D01*
X559888Y401180D02*
X564764D01*
X559537Y400825D02*
X564764D01*
X559155Y400471D02*
X564764D01*
X558738Y400117D02*
X564764D01*
X558278Y399762D02*
X564764D01*
X557767Y399408D02*
X564764D01*
X557192Y399054D02*
X564764D01*
X556533Y398699D02*
X564764D01*
X555753Y398345D02*
X564764D01*
X554773Y397991D02*
X564764D01*
X553339Y397636D02*
X564764D01*
X556579Y441219D02*
X564742D01*
X396023Y397282D02*
X564728D01*
X557095Y441573D02*
X564649D01*
X396200Y396928D02*
X564615D01*
X557448Y441928D02*
X564466D01*
X396465Y396573D02*
X564408D01*
X557707Y442282D02*
X564154D01*
X396869Y396219D02*
X564053D01*
X557896Y442636D02*
X563519D01*
X534383Y440865D02*
X554784D01*
X534646Y433070D02*
X554354D01*
X534646Y438739D02*
X553726D01*
X534212Y441219D02*
X553657D01*
X534646Y433424D02*
X553521D01*
X534646Y438385D02*
X553185D01*
X533986Y441573D02*
X553141D01*
X534646Y433778D02*
X553052D01*
X534646Y438030D02*
X552820D01*
X533690Y441928D02*
X552788D01*
X534646Y434133D02*
X552724D01*
X534646Y437676D02*
X552553D01*
X533336Y442282D02*
X552530D01*
X534646Y434487D02*
X552482D01*
X534646Y437322D02*
X552357D01*
X532982Y442636D02*
X552340D01*
X534646Y434841D02*
X552305D01*
X534646Y436967D02*
X552216D01*
X534646Y435196D02*
X552181D01*
X534646Y436613D02*
X552124D01*
X534646Y435550D02*
X552104D01*
X534646Y436259D02*
X552076D01*
X534646Y435904D02*
X552069D01*
X531641Y421377D02*
X549797D01*
X411607Y397636D02*
X549023D01*
X531255Y421022D02*
X547981D01*
X413041Y397991D02*
X547589D01*
X530710Y420668D02*
X546901D01*
X414020Y398345D02*
X546610D01*
X529624Y420314D02*
X546068D01*
X414801Y398699D02*
X545829D01*
X528636Y419959D02*
X545374D01*
X415460Y399054D02*
X545170D01*
X529022Y419605D02*
X544775D01*
X416035Y399408D02*
X544595D01*
X529310Y419251D02*
X544245D01*
X416546Y399762D02*
X544084D01*
X529528Y418896D02*
X543769D01*
X417005Y400117D02*
X543624D01*
X529691Y418542D02*
X543339D01*
X417423Y400471D02*
X543207D01*
X529808Y418188D02*
X542946D01*
X417805Y400825D02*
X542825D01*
X529882Y417833D02*
X542585D01*
X418156Y401180D02*
X542474D01*
X529918Y417479D02*
X542253D01*
X418479Y401534D02*
X542151D01*
X529915Y417125D02*
X541947D01*
X483350Y401888D02*
X541852D01*
X529875Y416770D02*
X541663D01*
X483761Y402243D02*
X541576D01*
X529796Y416416D02*
X541401D01*
X484010Y402597D02*
X541320D01*
X529675Y416062D02*
X541158D01*
X484161Y402951D02*
X541083D01*
X529506Y415707D02*
X540933D01*
X528328Y403306D02*
X540864D01*
X529280Y415353D02*
X540725D01*
X529005Y403660D02*
X540661D01*
X528983Y414999D02*
X540533D01*
X529488Y404014D02*
X540473D01*
X528581Y414644D02*
X540355D01*
X529864Y404369D02*
X540301D01*
X527989Y414290D02*
X540192D01*
X530166Y404723D02*
X540142D01*
X461995Y413936D02*
X540043D01*
X530412Y405077D02*
X539997D01*
X461641Y413581D02*
X539907D01*
X530612Y405432D02*
X539865D01*
X483058Y413227D02*
X539783D01*
X530773Y405786D02*
X539745D01*
X483609Y412873D02*
X539672D01*
X530900Y406140D02*
X539638D01*
X483915Y412518D02*
X539572D01*
X530994Y406495D02*
X539542D01*
X484105Y412164D02*
X539484D01*
X531058Y406849D02*
X539458D01*
X527900Y411810D02*
X539408D01*
X531094Y407203D02*
X539385D01*
X528742Y411455D02*
X539342D01*
X531102Y407558D02*
X539323D01*
X529293Y411101D02*
X539287D01*
X531082Y407912D02*
X539272D01*
X529710Y410747D02*
X539244D01*
X531034Y408266D02*
X539232D01*
X530042Y410392D02*
X539210D01*
X530956Y408621D02*
X539202D01*
X530311Y410038D02*
X539188D01*
X530849Y408975D02*
X539183D01*
X530530Y409684D02*
X539176D01*
X530708Y409329D02*
X539174D01*
X511167Y411810D02*
X525250D01*
X511257Y414290D02*
X525160D01*
X511595Y403306D02*
X524822D01*
X511849Y414644D02*
X524569D01*
X511904Y419959D02*
X524514D01*
X512010Y411455D02*
X524407D01*
X512250Y414999D02*
X524167D01*
X512273Y403660D02*
X524145D01*
X512290Y419605D02*
X524127D01*
X512548Y415353D02*
X523869D01*
X512561Y411101D02*
X523856D01*
X512578Y419251D02*
X523839D01*
X512756Y404014D02*
X523662D01*
X512773Y415707D02*
X523644D01*
X512796Y418896D02*
X523621D01*
X512942Y416062D02*
X523475D01*
X512959Y418542D02*
X523458D01*
X512978Y410747D02*
X523440D01*
X513064Y416416D02*
X523354D01*
X513075Y418188D02*
X523342D01*
X513131Y404369D02*
X523286D01*
X513143Y416770D02*
X523274D01*
X513150Y417833D02*
X523267D01*
X513183Y417125D02*
X523234D01*
X513185Y417479D02*
X523232D01*
X513309Y410392D02*
X523108D01*
X513434Y404723D02*
X522984D01*
X513578Y410038D02*
X522839D01*
X513680Y405077D02*
X522737D01*
X513798Y409684D02*
X522620D01*
X513880Y405432D02*
X522537D01*
X513975Y409329D02*
X522442D01*
X397111Y442636D02*
X522441D01*
X396476Y442282D02*
X522441D01*
X396164Y441928D02*
X522441D01*
X395981Y441573D02*
X522441D01*
X435718Y441219D02*
X522441D01*
X436426Y440865D02*
X522441D01*
X436924Y440510D02*
X522441D01*
X437309Y440156D02*
X522441D01*
X437618Y439802D02*
X522441D01*
X437869Y439448D02*
X522393D01*
X514041Y405786D02*
X522376D01*
X514116Y408975D02*
X522301D01*
X514167Y406140D02*
X522250D01*
X514224Y408621D02*
X522193D01*
X514262Y406495D02*
X522156D01*
X514301Y408266D02*
X522116D01*
X514326Y406849D02*
X522091D01*
X514349Y407912D02*
X522068D01*
X514362Y407203D02*
X522056D01*
X514369Y407558D02*
X522048D01*
X438074Y439093D02*
X521864D01*
X511344Y420314D02*
X514865D01*
X509937Y420668D02*
X513779D01*
X469082Y421022D02*
X513234D01*
X469436Y421377D02*
X512847D01*
X469790Y421731D02*
X512493D01*
X470145Y422085D02*
X512139D01*
X470499Y422440D02*
X511296D01*
X468727Y420668D02*
X509748D01*
X470853Y422794D02*
X508664D01*
X484212Y411810D02*
X508518D01*
X462350Y414290D02*
X508428D01*
X468373Y420314D02*
X508341D01*
X484238Y403306D02*
X508090D01*
X462704Y414644D02*
X507836D01*
X468019Y419959D02*
X507781D01*
X471208Y423148D02*
X507754D01*
X484252Y411455D02*
X507675D01*
X463058Y414999D02*
X507435D01*
X484249Y403660D02*
X507413D01*
X467664Y419605D02*
X507395D01*
X471562Y423503D02*
X507181D01*
X463413Y415353D02*
X507137D01*
X484226Y411101D02*
X507124D01*
X467310Y419251D02*
X507107D01*
X484195Y404014D02*
X506929D01*
X463767Y415707D02*
X506912D01*
X466956Y418896D02*
X506889D01*
X471916Y423857D02*
X506752D01*
X464121Y416062D02*
X506743D01*
X466602Y418542D02*
X506726D01*
X484134Y410747D02*
X506707D01*
X464476Y416416D02*
X506621D01*
X466247Y418188D02*
X506610D01*
X484071Y404369D02*
X506554D01*
X464830Y416770D02*
X506542D01*
X465893Y417833D02*
X506535D01*
X465184Y417125D02*
X506502D01*
X465539Y417479D02*
X506500D01*
X472271Y424211D02*
X506411D01*
X483964Y410392D02*
X506376D01*
X483859Y404723D02*
X506251D01*
X472625Y424566D02*
X506136D01*
X483688Y410038D02*
X506107D01*
X483517Y405077D02*
X506005D01*
X472979Y424920D02*
X505911D01*
X483216Y409684D02*
X505887D01*
X482839Y405432D02*
X505805D01*
X473334Y425274D02*
X505729D01*
X482959Y409329D02*
X505710D01*
X483286Y405786D02*
X505644D01*
X473688Y425629D02*
X505584D01*
X483564Y408975D02*
X505569D01*
X483726Y406140D02*
X505518D01*
X474042Y425983D02*
X505472D01*
X483888Y408621D02*
X505461D01*
X483988Y406495D02*
X505424D01*
X474397Y426337D02*
X505391D01*
X484088Y408266D02*
X505384D01*
X484148Y406849D02*
X505359D01*
X474751Y426692D02*
X505340D01*
X484204Y407912D02*
X505336D01*
X484232Y407203D02*
X505323D01*
X475105Y427046D02*
X505317D01*
X484250Y407558D02*
X505316D01*
X454825Y405432D02*
X481728D01*
X457389Y409329D02*
X481608D01*
X461287Y413227D02*
X481509D01*
X457743Y409684D02*
X481351D01*
X454986Y405786D02*
X481281D01*
X418778Y401888D02*
X481217D01*
X454625Y405077D02*
X481050D01*
X457035Y408975D02*
X481003D01*
X460932Y412873D02*
X480958D01*
X458098Y410038D02*
X480879D01*
X455112Y406140D02*
X480841D01*
X419054Y402243D02*
X480806D01*
X454379Y404723D02*
X480708D01*
X456680Y408621D02*
X480679D01*
X460578Y412518D02*
X480652D01*
X458452Y410392D02*
X480603D01*
X455206Y406495D02*
X480579D01*
X419310Y402597D02*
X480557D01*
X454076Y404369D02*
X480496D01*
X456326Y408266D02*
X480479D01*
X460224Y412164D02*
X480462D01*
X458806Y410747D02*
X480433D01*
X455271Y406849D02*
X480419D01*
X419547Y402951D02*
X480406D01*
X453701Y404014D02*
X480372D01*
X455972Y407912D02*
X480363D01*
X459869Y411810D02*
X480354D01*
X459161Y411101D02*
X480341D01*
X455307Y407203D02*
X480335D01*
X452540Y403306D02*
X480329D01*
X453217Y403660D02*
X480318D01*
X455617Y407558D02*
X480316D01*
X459515Y411455D02*
X480315D01*
X438239Y438739D02*
X469827D01*
X438368Y438385D02*
X469153D01*
X438466Y438030D02*
X468712D01*
X438533Y437676D02*
X468357D01*
X438572Y437322D02*
X468002D01*
X438583Y436967D02*
X467648D01*
X438565Y436613D02*
X467294D01*
X438520Y436259D02*
X466939D01*
X438446Y435904D02*
X466585D01*
X438342Y435550D02*
X466231D01*
X438204Y435196D02*
X465876D01*
X438031Y434841D02*
X465522D01*
X437816Y434487D02*
X465168D01*
X437552Y434133D02*
X464813D01*
X437228Y433778D02*
X464459D01*
X436822Y433424D02*
X464105D01*
X436289Y433070D02*
X463750D01*
X435495Y432715D02*
X463396D01*
X395866Y432361D02*
X463042D01*
X395866Y432007D02*
X462687D01*
X451393Y431652D02*
X462333D01*
X452637Y431298D02*
X461979D01*
X453282Y430944D02*
X461624D01*
X453750Y430589D02*
X461270D01*
X454116Y430235D02*
X460916D01*
X454410Y429881D02*
X460561D01*
X454651Y429526D02*
X460207D01*
X454846Y429172D02*
X459853D01*
X455003Y428818D02*
X459498D01*
X455125Y428463D02*
X459144D01*
X455216Y428109D02*
X458790D01*
X455276Y427755D02*
X458435D01*
X455309Y427400D02*
X458081D01*
X455313Y427046D02*
X457727D01*
X455290Y426692D02*
X457372D01*
X455239Y426337D02*
X457018D01*
X455158Y425983D02*
X456664D01*
X455046Y425629D02*
X456309D01*
X454901Y425274D02*
X455955D01*
X454719Y424920D02*
X455601D01*
X454494Y424566D02*
X455246D01*
X395866Y431652D02*
X450182D01*
X435808Y403306D02*
X449035D01*
X395866Y431298D02*
X448938D01*
X436485Y403660D02*
X448357D01*
X395866Y430944D02*
X448293D01*
X436968Y404014D02*
X447874D01*
X395866Y430589D02*
X447825D01*
X437344Y404369D02*
X447498D01*
X435388Y430235D02*
X447459D01*
X438386Y410392D02*
X447321D01*
X437646Y404723D02*
X447196D01*
X436011Y429881D02*
X447164D01*
X436162Y424566D02*
X447081D01*
X438386Y410038D02*
X447052D01*
X437892Y405077D02*
X446950D01*
X436427Y429526D02*
X446924D01*
X436536Y424920D02*
X446856D01*
X438386Y409684D02*
X446832D01*
X438093Y405432D02*
X446750D01*
X436733Y429172D02*
X446729D01*
X436816Y425274D02*
X446674D01*
X438386Y409329D02*
X446655D01*
X438254Y405786D02*
X446589D01*
X436965Y428818D02*
X446572D01*
X437028Y425629D02*
X446529D01*
X438386Y408975D02*
X446514D01*
X438380Y406140D02*
X446463D01*
X437140Y428463D02*
X446450D01*
X437186Y425983D02*
X446417D01*
X438437Y408621D02*
X446406D01*
X438474Y406495D02*
X446368D01*
X437266Y428109D02*
X446359D01*
X437298Y426337D02*
X446336D01*
X438514Y408266D02*
X446329D01*
X438538Y406849D02*
X446304D01*
X437349Y427755D02*
X446298D01*
X437368Y426692D02*
X446285D01*
X438562Y407912D02*
X446280D01*
X438574Y407203D02*
X446268D01*
X437393Y427400D02*
X446266D01*
X437399Y427046D02*
X446261D01*
X438582Y407558D02*
X446260D01*
X438386Y410747D02*
X438502D01*
X395866Y430235D02*
X432722D01*
X395866Y432715D02*
X432616D01*
X395888Y441219D02*
X432393D01*
X419766Y403306D02*
X432302D01*
X395866Y429881D02*
X432099D01*
X395866Y424566D02*
X431948D01*
X395866Y433070D02*
X431822D01*
X395866Y440865D02*
X431684D01*
X395866Y429526D02*
X431683D01*
X419969Y403660D02*
X431625D01*
X395866Y424920D02*
X431574D01*
X395866Y429172D02*
X431377D01*
X395866Y425274D02*
X431294D01*
X395866Y433424D02*
X431289D01*
X395866Y440510D02*
X431186D01*
X395866Y428818D02*
X431145D01*
X420157Y404014D02*
X431142D01*
X395866Y425629D02*
X431082D01*
X395866Y428463D02*
X430971D01*
X395866Y425983D02*
X430924D01*
X395866Y433778D02*
X430882D01*
X395866Y428109D02*
X430844D01*
X395866Y426337D02*
X430813D01*
X395866Y440156D02*
X430801D01*
X420329Y404369D02*
X430766D01*
X395866Y427755D02*
X430761D01*
X395866Y426692D02*
X430742D01*
X395866Y427400D02*
X430717D01*
X395866Y427046D02*
X430711D01*
X395866Y424211D02*
X430634D01*
X395866Y434133D02*
X430558D01*
X395866Y439802D02*
X430492D01*
X420488Y404723D02*
X430464D01*
X395866Y434487D02*
X430294D01*
X395866Y439448D02*
X430241D01*
X420633Y405077D02*
X430218D01*
X395866Y434841D02*
X430080D01*
X395866Y439093D02*
X430036D01*
X420765Y405432D02*
X430017D01*
X395866Y435196D02*
X429906D01*
X395866Y438739D02*
X429871D01*
X420884Y405786D02*
X429856D01*
X395866Y435550D02*
X429769D01*
X395866Y438385D02*
X429742D01*
X420992Y406140D02*
X429730D01*
X395866Y435904D02*
X429664D01*
X395866Y438030D02*
X429644D01*
X421088Y406495D02*
X429636D01*
X395866Y436259D02*
X429590D01*
X395866Y437676D02*
X429577D01*
X421172Y406849D02*
X429572D01*
X395866Y436613D02*
X429545D01*
X395866Y437322D02*
X429538D01*
X421245Y407203D02*
X429536D01*
X421358Y407912D02*
X429532D01*
X421307Y407558D02*
X429528D01*
X395866Y436967D02*
X429528D01*
X421398Y408266D02*
X429461D01*
X421428Y408621D02*
X429391D01*
X421447Y408975D02*
X429321D01*
X421456Y409329D02*
X429251D01*
X395866Y423857D02*
X429205D01*
X421454Y409684D02*
X429068D01*
X421442Y410038D02*
X428713D01*
X395866Y423503D02*
X428635D01*
X421420Y410392D02*
X428359D01*
X395866Y423148D02*
X428238D01*
X421386Y410747D02*
X428005D01*
X395866Y422794D02*
X427884D01*
X421343Y411101D02*
X427650D01*
X395866Y422440D02*
X427530D01*
X421288Y411455D02*
X427296D01*
X395866Y422085D02*
X427175D01*
X421222Y411810D02*
X426965D01*
X395866Y421731D02*
X426870D01*
X421146Y412164D02*
X426709D01*
X410833Y421377D02*
X426637D01*
X421058Y412518D02*
X426515D01*
X412649Y421022D02*
X426460D01*
X420958Y412873D02*
X426370D01*
X413729Y420668D02*
X426331D01*
X420847Y413227D02*
X426268D01*
X414562Y420314D02*
X426243D01*
X420723Y413581D02*
X426206D01*
X415256Y419959D02*
X426194D01*
X420587Y413936D02*
X426182D01*
X415855Y419605D02*
X426181D01*
X416385Y419251D02*
X426181D01*
X416861Y418896D02*
X426181D01*
X417291Y418542D02*
X426181D01*
X417684Y418188D02*
X426181D01*
X418045Y417833D02*
X426181D01*
X418377Y417479D02*
X426181D01*
X418683Y417125D02*
X426181D01*
X418966Y416770D02*
X426181D01*
X419229Y416416D02*
X426181D01*
X419472Y416062D02*
X426181D01*
X419697Y415707D02*
X426181D01*
X419905Y415353D02*
X426181D01*
X420097Y414999D02*
X426181D01*
X420275Y414644D02*
X426181D01*
X420438Y414290D02*
X426181D01*
X395866Y421377D02*
X408064D01*
X395914Y397636D02*
X407291D01*
X395866Y421022D02*
X406248D01*
X395863Y397991D02*
X405857D01*
X395866Y420668D02*
X405169D01*
X395866Y398345D02*
X404877D01*
X395866Y420314D02*
X404336D01*
X395866Y398699D02*
X404097D01*
X395866Y419959D02*
X403642D01*
X395866Y399054D02*
X403438D01*
X395866Y419605D02*
X403042D01*
X395866Y399408D02*
X402863D01*
X395866Y419251D02*
X402512D01*
X395866Y399762D02*
X402352D01*
X395866Y418896D02*
X402037D01*
X395866Y400117D02*
X401892D01*
X395866Y418542D02*
X401606D01*
X395866Y400471D02*
X401474D01*
X395866Y418188D02*
X401213D01*
X395866Y400825D02*
X401093D01*
X395866Y417833D02*
X400853D01*
X395866Y401180D02*
X400742D01*
X395866Y417479D02*
X400521D01*
X395866Y401534D02*
X400418D01*
X395866Y417125D02*
X400215D01*
X395866Y401888D02*
X400120D01*
X395866Y416770D02*
X399931D01*
X395866Y402243D02*
X399843D01*
X395866Y416416D02*
X399669D01*
X395866Y402597D02*
X399588D01*
X395866Y416062D02*
X399426D01*
X395866Y402951D02*
X399351D01*
X395866Y415707D02*
X399201D01*
X395866Y403306D02*
X399131D01*
X395866Y415353D02*
X398993D01*
X395866Y403660D02*
X398928D01*
X395866Y414999D02*
X398800D01*
X395866Y404014D02*
X398741D01*
X395866Y414644D02*
X398623D01*
X395866Y404369D02*
X398568D01*
X395866Y414290D02*
X398460D01*
X395866Y404723D02*
X398410D01*
X395866Y413936D02*
X398311D01*
X395866Y405077D02*
X398265D01*
X395866Y413581D02*
X398174D01*
X395866Y405432D02*
X398133D01*
X395866Y413227D02*
X398051D01*
X395866Y405786D02*
X398013D01*
X395866Y412873D02*
X397939D01*
X395866Y406140D02*
X397906D01*
X395866Y412518D02*
X397840D01*
X395866Y406495D02*
X397810D01*
X395866Y412164D02*
X397752D01*
X395866Y406849D02*
X397726D01*
X395866Y411810D02*
X397675D01*
X395866Y407203D02*
X397653D01*
X395866Y411455D02*
X397610D01*
X395866Y407558D02*
X397591D01*
X395866Y411101D02*
X397555D01*
X395866Y407912D02*
X397540D01*
X395866Y410747D02*
X397511D01*
X395866Y408266D02*
X397499D01*
X395866Y410392D02*
X397478D01*
X395866Y408621D02*
X397470D01*
X395866Y410038D02*
X397455D01*
X395866Y408975D02*
X397450D01*
X395866Y409684D02*
X397443D01*
X395866Y409329D02*
X397442D01*
X554521Y562715D02*
X564764D01*
X555563Y562361D02*
X564764D01*
X556377Y562007D02*
X564764D01*
X557059Y561652D02*
X564764D01*
X557649Y561298D02*
X564764D01*
X558173Y560944D02*
X564764D01*
X558643Y560589D02*
X564764D01*
X559069Y560235D02*
X564764D01*
X559458Y559881D02*
X564764D01*
X559815Y559526D02*
X564764D01*
X560144Y559172D02*
X564764D01*
X560448Y558818D02*
X564764D01*
X560729Y558463D02*
X564764D01*
X560989Y558109D02*
X564764D01*
X561230Y557755D02*
X564764D01*
X561453Y557400D02*
X564764D01*
X561659Y557046D02*
X564764D01*
X561850Y556692D02*
X564764D01*
X562026Y556337D02*
X564764D01*
X562187Y555983D02*
X564764D01*
X562335Y555629D02*
X564764D01*
X562470Y555274D02*
X564764D01*
X562592Y554920D02*
X564764D01*
X562702Y554566D02*
X564764D01*
X562800Y554211D02*
X564764D01*
X562887Y553857D02*
X564764D01*
X562962Y553503D02*
X564764D01*
X563027Y553148D02*
X564764D01*
X563080Y552794D02*
X564764D01*
X563123Y552440D02*
X564764D01*
X563155Y552085D02*
X564764D01*
X563176Y551731D02*
X564764D01*
X563187Y551377D02*
X564764D01*
X563188Y551022D02*
X564764D01*
X563178Y550668D02*
X564764D01*
X563158Y550314D02*
X564764D01*
X563127Y549959D02*
X564764D01*
X563085Y549605D02*
X564764D01*
X563033Y549251D02*
X564764D01*
X562970Y548896D02*
X564764D01*
X562895Y548542D02*
X564764D01*
X562810Y548188D02*
X564764D01*
X562713Y547833D02*
X564764D01*
X562604Y547479D02*
X564764D01*
X562483Y547125D02*
X564764D01*
X562350Y546770D02*
X564764D01*
X562203Y546416D02*
X564764D01*
X562043Y546062D02*
X564764D01*
X561869Y545707D02*
X564764D01*
X561680Y545353D02*
X564764D01*
X561475Y544999D02*
X564764D01*
X561254Y544644D02*
X564764D01*
X561015Y544290D02*
X564764D01*
X560757Y543936D02*
X564764D01*
X560478Y543581D02*
X564764D01*
X560177Y543227D02*
X564764D01*
X559851Y542873D02*
X564764D01*
X559497Y542518D02*
X564764D01*
X559111Y542164D02*
X564764D01*
X558689Y541810D02*
X564764D01*
X558224Y541455D02*
X564764D01*
X557707Y541101D02*
X564764D01*
X557124Y540747D02*
X564764D01*
X556453Y540392D02*
X564764D01*
X555656Y540038D02*
X564764D01*
X554645Y539684D02*
X564764D01*
X553112Y539329D02*
X564764D01*
X444459Y538975D02*
X564764D01*
X395866Y538621D02*
X564764D01*
X395866Y538266D02*
X564764D01*
X395866Y537912D02*
X564764D01*
X395866Y537558D02*
X564764D01*
X395866Y537203D02*
X564764D01*
X395866Y536849D02*
X564764D01*
X395866Y536495D02*
X564764D01*
X558244Y536140D02*
X564764D01*
X559651Y535786D02*
X564764D01*
X560211Y535432D02*
X564764D01*
X560597Y535077D02*
X564764D01*
X560885Y534723D02*
X564764D01*
X561103Y534369D02*
X564764D01*
X561266Y534014D02*
X564764D01*
X561382Y533660D02*
X564764D01*
X561457Y533306D02*
X564764D01*
X561492Y532951D02*
X564764D01*
X561490Y532597D02*
X564764D01*
X561450Y532243D02*
X564764D01*
X561371Y531888D02*
X564764D01*
X561249Y531534D02*
X564764D01*
X561080Y531180D02*
X564764D01*
X560855Y530825D02*
X564764D01*
X560557Y530471D02*
X564764D01*
X560156Y530117D02*
X564764D01*
X559564Y529762D02*
X564764D01*
X395866Y529408D02*
X564764D01*
X395866Y529054D02*
X564764D01*
X446872Y528699D02*
X564764D01*
X447220Y528345D02*
X564764D01*
X447417Y527991D02*
X564764D01*
X447517Y527636D02*
X564764D01*
X447537Y527282D02*
X564764D01*
X447482Y526928D02*
X564764D01*
X447342Y526573D02*
X564764D01*
X447088Y526219D02*
X564764D01*
X559483Y525865D02*
X564764D01*
X560106Y525510D02*
X564764D01*
X560521Y525156D02*
X564764D01*
X560828Y524802D02*
X564764D01*
X561060Y524448D02*
X564764D01*
X561234Y524093D02*
X564764D01*
X561360Y523739D02*
X564764D01*
X561444Y523385D02*
X564764D01*
X561488Y523030D02*
X564764D01*
X561494Y522676D02*
X564764D01*
X561462Y522322D02*
X564764D01*
X561392Y521967D02*
X564764D01*
X561280Y521613D02*
X564764D01*
X561122Y521259D02*
X564764D01*
X560911Y520904D02*
X564764D01*
X560631Y520550D02*
X564764D01*
X560257Y520196D02*
X564764D01*
X559722Y519841D02*
X564764D01*
X558653Y519487D02*
X564764D01*
X476056Y519133D02*
X564764D01*
X395866Y518778D02*
X564764D01*
X395866Y518424D02*
X564764D01*
X395866Y518070D02*
X564764D01*
X395866Y517715D02*
X564764D01*
X395866Y517361D02*
X564764D01*
X395866Y517007D02*
X564764D01*
X395866Y516652D02*
X564764D01*
X513463Y516298D02*
X564764D01*
X559284Y515944D02*
X564764D01*
X559992Y515589D02*
X564764D01*
X560440Y515235D02*
X564764D01*
X560767Y514881D02*
X564764D01*
X561014Y514526D02*
X564764D01*
X561200Y514172D02*
X564764D01*
X561336Y513818D02*
X564764D01*
X561429Y513463D02*
X564764D01*
X561481Y513109D02*
X564764D01*
X561496Y512755D02*
X564764D01*
X561473Y512400D02*
X564764D01*
X561411Y512046D02*
X564764D01*
X561309Y511692D02*
X564764D01*
X561162Y511337D02*
X564764D01*
X560963Y510983D02*
X564764D01*
X560700Y510629D02*
X564764D01*
X560350Y510274D02*
X564764D01*
X559862Y509920D02*
X564764D01*
X559026Y509566D02*
X564764D01*
X509294Y509211D02*
X564764D01*
X508563Y508857D02*
X564764D01*
X508525Y508503D02*
X564764D01*
X508405Y508148D02*
X564764D01*
X508181Y507794D02*
X564764D01*
X507777Y507440D02*
X564764D01*
X506583Y507085D02*
X564764D01*
X506587Y506731D02*
X564764D01*
X506514Y506377D02*
X564764D01*
X559036Y506022D02*
X564764D01*
X559866Y505668D02*
X564764D01*
X560353Y505314D02*
X564764D01*
X560702Y504959D02*
X564764D01*
X560965Y504605D02*
X564764D01*
X561163Y504251D02*
X564764D01*
X561310Y503896D02*
X564764D01*
X561412Y503542D02*
X564764D01*
X561473Y503188D02*
X564764D01*
X561496Y502833D02*
X564764D01*
X561481Y502479D02*
X564764D01*
X561428Y502125D02*
X564764D01*
X561335Y501770D02*
X564764D01*
X561199Y501416D02*
X564764D01*
X561012Y501062D02*
X564764D01*
X560765Y500707D02*
X564764D01*
X560437Y500353D02*
X564764D01*
X559988Y499999D02*
X564764D01*
X559277Y499644D02*
X564764D01*
X524360Y499290D02*
X564764D01*
X524714Y498936D02*
X564764D01*
X525069Y498581D02*
X564764D01*
X525423Y498227D02*
X564764D01*
X525777Y497873D02*
X564764D01*
X526132Y497518D02*
X564764D01*
X526486Y497164D02*
X564764D01*
X526840Y496810D02*
X564764D01*
X527194Y496455D02*
X564764D01*
X558670Y496101D02*
X564764D01*
X559727Y495747D02*
X564764D01*
X560260Y495392D02*
X564764D01*
X560633Y495038D02*
X564764D01*
X560912Y494684D02*
X564764D01*
X561124Y494329D02*
X564764D01*
X561281Y493975D02*
X564764D01*
X561393Y493621D02*
X564764D01*
X561463Y493266D02*
X564764D01*
X561494Y492912D02*
X564764D01*
X561488Y492558D02*
X564764D01*
X561443Y492203D02*
X564764D01*
X561360Y491849D02*
X564764D01*
X561233Y491495D02*
X564764D01*
X561058Y491140D02*
X564764D01*
X560826Y490786D02*
X564764D01*
X560519Y490432D02*
X564764D01*
X560102Y490077D02*
X564764D01*
X559476Y489723D02*
X564764D01*
X528150Y489369D02*
X564764D01*
X532926Y489014D02*
X564764D01*
X533583Y488660D02*
X564764D01*
X533888Y488306D02*
X564764D01*
X534061Y487951D02*
X564764D01*
X534142Y487597D02*
X564764D01*
X534146Y487243D02*
X564764D01*
X534073Y486888D02*
X564764D01*
X533911Y486534D02*
X564764D01*
X533624Y486180D02*
X564764D01*
X533042Y485825D02*
X564764D01*
X528150Y485471D02*
X564764D01*
X528150Y485117D02*
X564764D01*
X528150Y484762D02*
X564764D01*
X528150Y484408D02*
X564764D01*
X528150Y484054D02*
X564764D01*
X533372Y483699D02*
X564764D01*
X533774Y483345D02*
X564764D01*
X533997Y482991D02*
X564764D01*
X534116Y482636D02*
X564764D01*
X534154Y482282D02*
X564764D01*
X534115Y481928D02*
X564764D01*
X533995Y481573D02*
X564764D01*
X533771Y481219D02*
X564764D01*
X560732Y480865D02*
X564764D01*
X561823Y480510D02*
X564764D01*
X562376Y480156D02*
X564764D01*
X562767Y479802D02*
X564764D01*
X563062Y479448D02*
X564764D01*
X563289Y479093D02*
X564764D01*
X563462Y478739D02*
X564764D01*
X563589Y478385D02*
X564764D01*
X563677Y478030D02*
X564764D01*
X563726Y477676D02*
X564764D01*
X563740Y477322D02*
X564764D01*
X563718Y476967D02*
X564764D01*
X563660Y476613D02*
X564764D01*
X563564Y476259D02*
X564764D01*
X563426Y475904D02*
X564764D01*
X563242Y475550D02*
X564764D01*
X563001Y475196D02*
X564764D01*
X562687Y474841D02*
X564764D01*
X562268Y474487D02*
X564764D01*
X561654Y474133D02*
X564764D01*
X533486Y473778D02*
X564764D01*
X533834Y473424D02*
X564764D01*
X534031Y473070D02*
X564764D01*
X534131Y472715D02*
X564764D01*
X534152Y472361D02*
X564764D01*
X534096Y472007D02*
X564764D01*
X533956Y471652D02*
X564764D01*
X533702Y471298D02*
X564764D01*
X533227Y470944D02*
X564764D01*
X528150Y470589D02*
X564764D01*
X528150Y470235D02*
X564764D01*
X528150Y469881D02*
X564764D01*
X528150Y469526D02*
X564764D01*
X528150Y469172D02*
X564764D01*
X528150Y468818D02*
X564764D01*
X528150Y468463D02*
X564764D01*
X528150Y468109D02*
X564764D01*
X528150Y467755D02*
X564764D01*
X528150Y467400D02*
X564764D01*
X528150Y467046D02*
X564764D01*
X528150Y466692D02*
X564764D01*
X528150Y466337D02*
X564764D01*
X528150Y465983D02*
X564764D01*
X528150Y465629D02*
X564764D01*
X528150Y465274D02*
X564764D01*
X528150Y464920D02*
X564764D01*
X528150Y464566D02*
X564764D01*
X528150Y464211D02*
X564764D01*
X528150Y463857D02*
X564764D01*
X528150Y463503D02*
X564764D01*
X528150Y463148D02*
X564764D01*
X528150Y462794D02*
X564764D01*
X556344Y462440D02*
X564764D01*
X556951Y462085D02*
X564764D01*
X557346Y461731D02*
X564764D01*
X557631Y461377D02*
X564764D01*
X557841Y461022D02*
X564764D01*
X557993Y460668D02*
X564764D01*
X558095Y460314D02*
X564764D01*
X558153Y459959D02*
X564764D01*
X558169Y459605D02*
X564764D01*
X558144Y459251D02*
X564764D01*
X558076Y458896D02*
X564764D01*
X557963Y458542D02*
X564764D01*
X557798Y458188D02*
X564764D01*
X557573Y457833D02*
X564764D01*
X557266Y457479D02*
X564764D01*
X556837Y457125D02*
X564764D01*
X556139Y456770D02*
X564764D01*
X528150Y456416D02*
X564764D01*
X528150Y456062D02*
X564764D01*
X528150Y455707D02*
X564764D01*
X528150Y455353D02*
X564764D01*
X528150Y454999D02*
X564764D01*
X556146Y454644D02*
X564764D01*
X556841Y454290D02*
X564764D01*
X557269Y453936D02*
X564764D01*
X557575Y453581D02*
X564764D01*
X557800Y453227D02*
X564764D01*
X557964Y452873D02*
X564764D01*
X558077Y452518D02*
X564764D01*
X558144Y452164D02*
X564764D01*
X558169Y451810D02*
X564764D01*
X558153Y451455D02*
X564764D01*
X558095Y451101D02*
X564764D01*
X557992Y450747D02*
X564764D01*
X557840Y450392D02*
X564764D01*
X557629Y450038D02*
X564764D01*
X557343Y449684D02*
X564764D01*
X556947Y449329D02*
X564764D01*
X556338Y448975D02*
X564764D01*
X551071Y448621D02*
X564764D01*
X550989Y448266D02*
X564764D01*
X550816Y447912D02*
X564764D01*
X550509Y447558D02*
X564764D01*
X549845Y447203D02*
X564764D01*
X555892Y446849D02*
X564764D01*
X552871Y563070D02*
X564762D01*
X556720Y446495D02*
X564728D01*
X529724Y563424D02*
X564710D01*
X557187Y446140D02*
X564615D01*
X529724Y563778D02*
X564580D01*
X557515Y445786D02*
X564408D01*
X529724Y564133D02*
X564348D01*
X557756Y445432D02*
X564053D01*
X529724Y564487D02*
X563943D01*
X550732Y480865D02*
X559661D01*
X551654Y474133D02*
X558739D01*
X551823Y480510D02*
X558571D01*
X552268Y474487D02*
X558126D01*
X548244Y536140D02*
X558055D01*
X552376Y480156D02*
X558018D01*
X552687Y474841D02*
X557707D01*
X548653Y519487D02*
X557646D01*
X548670Y496101D02*
X557629D01*
X552767Y479802D02*
X557627D01*
X553001Y475196D02*
X557393D01*
X553062Y479448D02*
X557332D01*
X549026Y509566D02*
X557273D01*
X549036Y506022D02*
X557264D01*
X553242Y475550D02*
X557152D01*
X553289Y479093D02*
X557105D01*
X549277Y499644D02*
X557022D01*
X549284Y515944D02*
X557015D01*
X553426Y475904D02*
X556967D01*
X553462Y478739D02*
X556932D01*
X553564Y476259D02*
X556830D01*
X549476Y489723D02*
X556823D01*
X549483Y525865D02*
X556817D01*
X553589Y478385D02*
X556804D01*
X549564Y529762D02*
X556735D01*
X553660Y476613D02*
X556734D01*
X553677Y478030D02*
X556717D01*
X553718Y476967D02*
X556676D01*
X553726Y477676D02*
X556667D01*
X553740Y477322D02*
X556654D01*
X549651Y535786D02*
X556648D01*
X549722Y519841D02*
X556577D01*
X549727Y495747D02*
X556572D01*
X549862Y509920D02*
X556437D01*
X549866Y505668D02*
X556433D01*
X549988Y499999D02*
X556312D01*
X549992Y515589D02*
X556308D01*
X550102Y490077D02*
X556197D01*
X550106Y525510D02*
X556193D01*
X550156Y530117D02*
X556143D01*
X550211Y535432D02*
X556089D01*
X550257Y520196D02*
X556042D01*
X550260Y495392D02*
X556039D01*
X550350Y510274D02*
X555949D01*
X550353Y505314D02*
X555946D01*
X550437Y500353D02*
X555862D01*
X550440Y515235D02*
X555859D01*
X550519Y490432D02*
X555780D01*
X550521Y525156D02*
X555778D01*
X550557Y530471D02*
X555742D01*
X550597Y535077D02*
X555702D01*
X550631Y520550D02*
X555668D01*
X550633Y495038D02*
X555666D01*
X550700Y510629D02*
X555599D01*
X550702Y504959D02*
X555597D01*
X550765Y500707D02*
X555534D01*
X550767Y514881D02*
X555532D01*
X550826Y490786D02*
X555473D01*
X550828Y524802D02*
X555471D01*
X550855Y530825D02*
X555444D01*
X550885Y534723D02*
X555414D01*
X550911Y520904D02*
X555389D01*
X550912Y494684D02*
X555387D01*
X550963Y510983D02*
X555336D01*
X550965Y504605D02*
X555335D01*
X551012Y501062D02*
X555287D01*
X551014Y514526D02*
X555286D01*
X551058Y491140D02*
X555241D01*
X551060Y524448D02*
X555239D01*
X551080Y531180D02*
X555219D01*
X551103Y534369D02*
X555196D01*
X551122Y521259D02*
X555177D01*
X551124Y494329D02*
X555175D01*
X551162Y511337D02*
X555137D01*
X551163Y504251D02*
X555136D01*
X551199Y501416D02*
X555101D01*
X551200Y514172D02*
X555099D01*
X551233Y491495D02*
X555066D01*
X551234Y524093D02*
X555065D01*
X551249Y531534D02*
X555050D01*
X551266Y534014D02*
X555033D01*
X551280Y521613D02*
X555019D01*
X551281Y493975D02*
X555018D01*
X551309Y511692D02*
X554990D01*
X551310Y503896D02*
X554989D01*
X551335Y501770D02*
X554964D01*
X551336Y513818D02*
X554963D01*
X551360Y491849D02*
X554940D01*
X551360Y523739D02*
X554939D01*
X551371Y531888D02*
X554928D01*
X551382Y533660D02*
X554917D01*
X551392Y521967D02*
X554907D01*
X551393Y493621D02*
X554907D01*
X551411Y512046D02*
X554888D01*
X551412Y503542D02*
X554888D01*
X551428Y502125D02*
X554871D01*
X551429Y513463D02*
X554870D01*
X551443Y492203D02*
X554856D01*
X551444Y523385D02*
X554855D01*
X551450Y532243D02*
X554849D01*
X551457Y533306D02*
X554842D01*
X551462Y522322D02*
X554837D01*
X551463Y493266D02*
X554836D01*
X551473Y512400D02*
X554827D01*
X551473Y503188D02*
X554826D01*
X551481Y502479D02*
X554818D01*
X551481Y513109D02*
X554818D01*
X551488Y492558D02*
X554812D01*
X551488Y523030D02*
X554811D01*
X551490Y532597D02*
X554809D01*
X551492Y532951D02*
X554807D01*
X551494Y522676D02*
X554805D01*
X551494Y492912D02*
X554805D01*
X551496Y512755D02*
X554803D01*
X551496Y502833D02*
X554803D01*
X528769Y446849D02*
X554344D01*
X528150Y456770D02*
X554097D01*
X528150Y454644D02*
X554090D01*
X551075Y448975D02*
X553898D01*
X528150Y462440D02*
X553892D01*
X529124Y446495D02*
X553517D01*
X539048Y457125D02*
X553399D01*
X528150Y454290D02*
X553395D01*
X551003Y449329D02*
X553289D01*
X528150Y462085D02*
X553286D01*
X529478Y446140D02*
X553049D01*
X539570Y457479D02*
X552970D01*
X528150Y453936D02*
X552967D01*
X550842Y449684D02*
X552893D01*
X528150Y461731D02*
X552891D01*
X529832Y445786D02*
X552722D01*
X539840Y457833D02*
X552663D01*
X528150Y453581D02*
X552662D01*
X550555Y450038D02*
X552607D01*
X528150Y461377D02*
X552605D01*
X530187Y445432D02*
X552481D01*
X539991Y458188D02*
X552438D01*
X528150Y453227D02*
X552436D01*
X549979Y450392D02*
X552396D01*
X528150Y461022D02*
X552395D01*
X540055Y458542D02*
X552274D01*
X541106Y452873D02*
X552272D01*
X541904Y450747D02*
X552244D01*
X528150Y460668D02*
X552243D01*
X540043Y458896D02*
X552160D01*
X541579Y452518D02*
X552160D01*
X542005Y451101D02*
X552142D01*
X538650Y460314D02*
X552141D01*
X539952Y459251D02*
X552093D01*
X541831Y452164D02*
X552092D01*
X542026Y451455D02*
X552083D01*
X539442Y459959D02*
X552083D01*
X539768Y459605D02*
X552067D01*
X541971Y451810D02*
X552067D01*
X540732Y480865D02*
X549661D01*
X529724Y563070D02*
X549492D01*
X445041Y539329D02*
X549251D01*
X528415Y447203D02*
X548974D01*
X541707Y450392D02*
X548840D01*
X541654Y474133D02*
X548739D01*
X541823Y480510D02*
X548571D01*
X528150Y447558D02*
X548310D01*
X541357Y450038D02*
X548263D01*
X542268Y474487D02*
X548126D01*
X412575Y536140D02*
X548055D01*
X542376Y480156D02*
X548018D01*
X528150Y447912D02*
X548003D01*
X528150Y449684D02*
X547977D01*
X529724Y562715D02*
X547841D01*
X528150Y448266D02*
X547830D01*
X528150Y449329D02*
X547816D01*
X528150Y448621D02*
X547748D01*
X528150Y448975D02*
X547744D01*
X529707Y539684D02*
X547717D01*
X542687Y474841D02*
X547707D01*
X476578Y519487D02*
X547646D01*
X527490Y496101D02*
X547629D01*
X542767Y479802D02*
X547627D01*
X543001Y475196D02*
X547393D01*
X543062Y479448D02*
X547332D01*
X509958Y509566D02*
X547273D01*
X506352Y506022D02*
X547264D01*
X543242Y475550D02*
X547152D01*
X543289Y479093D02*
X547105D01*
X524006Y499644D02*
X547022D01*
X513982Y515944D02*
X547015D01*
X543426Y475904D02*
X546967D01*
X543462Y478739D02*
X546932D01*
X543564Y476259D02*
X546830D01*
X528150Y489723D02*
X546823D01*
X446613Y525865D02*
X546817D01*
X543589Y478385D02*
X546804D01*
X529724Y562361D02*
X546799D01*
X413895Y529762D02*
X546735D01*
X543660Y476613D02*
X546734D01*
X543677Y478030D02*
X546717D01*
X529724Y540038D02*
X546706D01*
X543718Y476967D02*
X546676D01*
X543726Y477676D02*
X546667D01*
X543740Y477322D02*
X546654D01*
X413982Y535786D02*
X546648D01*
X476848Y519841D02*
X546577D01*
X537666Y495747D02*
X546572D01*
X510264Y509920D02*
X546437D01*
X506065Y505668D02*
X546433D01*
X523651Y499999D02*
X546312D01*
X514251Y515589D02*
X546308D01*
X528150Y490077D02*
X546197D01*
X414436Y525510D02*
X546193D01*
X414486Y530117D02*
X546143D01*
X414541Y535432D02*
X546089D01*
X476998Y520196D02*
X546042D01*
X538458Y495392D02*
X546039D01*
X529724Y562007D02*
X545985D01*
X510438Y510274D02*
X545949D01*
X505483Y505314D02*
X545946D01*
X529724Y540392D02*
X545909D01*
X523297Y500353D02*
X545862D01*
X514401Y515235D02*
X545859D01*
X528150Y490432D02*
X545780D01*
X414852Y525156D02*
X545778D01*
X414888Y530471D02*
X545742D01*
X414928Y535077D02*
X545702D01*
X477063Y520550D02*
X545668D01*
X538783Y495038D02*
X545666D01*
X510520Y510629D02*
X545599D01*
X415033Y504959D02*
X545597D01*
X522943Y500707D02*
X545534D01*
X514464Y514881D02*
X545532D01*
X528150Y490786D02*
X545473D01*
X415158Y524802D02*
X545471D01*
X468783Y530825D02*
X545444D01*
X415216Y534723D02*
X545414D01*
X477050Y520904D02*
X545389D01*
X538968Y494684D02*
X545387D01*
X510524Y510983D02*
X545336D01*
X415295Y504605D02*
X545335D01*
X529724Y561652D02*
X545304D01*
X522588Y501062D02*
X545287D01*
X514452Y514526D02*
X545286D01*
X528150Y491140D02*
X545241D01*
X415390Y524448D02*
X545239D01*
X529724Y540747D02*
X545239D01*
X469194Y531180D02*
X545219D01*
X468272Y534369D02*
X545196D01*
X476960Y521259D02*
X545177D01*
X539058Y494329D02*
X545175D01*
X511648Y511337D02*
X545137D01*
X415494Y504251D02*
X545136D01*
X522234Y501416D02*
X545101D01*
X514360Y514172D02*
X545099D01*
X528150Y491495D02*
X545066D01*
X474251Y524093D02*
X545065D01*
X469443Y531534D02*
X545050D01*
X468950Y534014D02*
X545033D01*
X476776Y521613D02*
X545019D01*
X539071Y493975D02*
X545018D01*
X512084Y511692D02*
X544990D01*
X415640Y503896D02*
X544989D01*
X522109Y501770D02*
X544964D01*
X514175Y513818D02*
X544963D01*
X528150Y491849D02*
X544940D01*
X474685Y523739D02*
X544939D01*
X469594Y531888D02*
X544928D01*
X469292Y533660D02*
X544917D01*
X476450Y521967D02*
X544907D01*
X539006Y493621D02*
X544907D01*
X512323Y512046D02*
X544888D01*
X515333Y503542D02*
X544888D01*
X521951Y502125D02*
X544871D01*
X513848Y513463D02*
X544870D01*
X528150Y492203D02*
X544856D01*
X474923Y523385D02*
X544855D01*
X469671Y532243D02*
X544849D01*
X469504Y533306D02*
X544842D01*
X475658Y522322D02*
X544837D01*
X538856Y493266D02*
X544836D01*
X512453Y512400D02*
X544827D01*
X520733Y503188D02*
X544826D01*
X521711Y502479D02*
X544818D01*
X513043Y513109D02*
X544818D01*
X538064Y492558D02*
X544812D01*
X475052Y523030D02*
X544811D01*
X469682Y532597D02*
X544809D01*
X469628Y532951D02*
X544807D01*
X475098Y522676D02*
X544805D01*
X538585Y492912D02*
X544805D01*
X512500Y512755D02*
X544803D01*
X521352Y502833D02*
X544803D01*
X529724Y561298D02*
X544713D01*
X529724Y541101D02*
X544656D01*
X529724Y560944D02*
X544189D01*
X529724Y541455D02*
X544138D01*
X529724Y560589D02*
X543719D01*
X529724Y541810D02*
X543673D01*
X529724Y560235D02*
X543293D01*
X529724Y542164D02*
X543251D01*
X529724Y559881D02*
X542904D01*
X529724Y542518D02*
X542866D01*
X529724Y559526D02*
X542547D01*
X529724Y542873D02*
X542512D01*
X529724Y559172D02*
X542218D01*
X529724Y543227D02*
X542185D01*
X529724Y558818D02*
X541914D01*
X529724Y543581D02*
X541884D01*
X529724Y558463D02*
X541633D01*
X529724Y543936D02*
X541605D01*
X529724Y558109D02*
X541373D01*
X529724Y544290D02*
X541347D01*
X529724Y557755D02*
X541132D01*
X529724Y544644D02*
X541108D01*
X529724Y557400D02*
X540909D01*
X529724Y544999D02*
X540887D01*
X529724Y557046D02*
X540703D01*
X529724Y545353D02*
X540682D01*
X529724Y556692D02*
X540512D01*
X529724Y545707D02*
X540493D01*
X529724Y556337D02*
X540337D01*
X529724Y546062D02*
X540319D01*
X529724Y555983D02*
X540175D01*
X529724Y546416D02*
X540159D01*
X529724Y555629D02*
X540027D01*
X529724Y546770D02*
X540013D01*
X529724Y555274D02*
X539892D01*
X529724Y547125D02*
X539879D01*
X529724Y554920D02*
X539770D01*
X529724Y547479D02*
X539758D01*
X533368Y480865D02*
X539661D01*
X529724Y554566D02*
X539660D01*
X529724Y547833D02*
X539649D01*
X528150Y452873D02*
X539602D01*
X529724Y554211D02*
X539562D01*
X529724Y548188D02*
X539552D01*
X529724Y553857D02*
X539475D01*
X529724Y548542D02*
X539467D01*
X529724Y553503D02*
X539400D01*
X529724Y548896D02*
X539393D01*
X528150Y450038D02*
X539352D01*
X529724Y553148D02*
X539335D01*
X529724Y549251D02*
X539329D01*
X529724Y552794D02*
X539282D01*
X529724Y549605D02*
X539277D01*
X529724Y552440D02*
X539239D01*
X529724Y549959D02*
X539236D01*
X529724Y552085D02*
X539207D01*
X529724Y550314D02*
X539205D01*
X529724Y551731D02*
X539186D01*
X529724Y550668D02*
X539184D01*
X529724Y551377D02*
X539175D01*
X529724Y551022D02*
X539174D01*
X528150Y452518D02*
X539130D01*
X528150Y450392D02*
X539002D01*
X528150Y452164D02*
X538877D01*
X528150Y450747D02*
X538805D01*
X528150Y474133D02*
X538739D01*
X528150Y451810D02*
X538738D01*
X528150Y451101D02*
X538704D01*
X528150Y451455D02*
X538683D01*
X528150Y480510D02*
X538571D01*
X528150Y474487D02*
X538126D01*
X528150Y460314D02*
X538121D01*
X528150Y480156D02*
X538018D01*
X528150Y457125D02*
X537724D01*
X528150Y474841D02*
X537707D01*
X528150Y479802D02*
X537627D01*
X528150Y475196D02*
X537393D01*
X528150Y479448D02*
X537332D01*
X528150Y459959D02*
X537330D01*
X528150Y457479D02*
X537202D01*
X528150Y475550D02*
X537152D01*
X527716Y495747D02*
X537137D01*
X528150Y479093D02*
X537105D01*
X528150Y459605D02*
X537004D01*
X528150Y475904D02*
X536967D01*
X528150Y478739D02*
X536932D01*
X528150Y457833D02*
X536932D01*
X528150Y476259D02*
X536830D01*
X528150Y459251D02*
X536820D01*
X528150Y478385D02*
X536804D01*
X528150Y458188D02*
X536781D01*
X528150Y492558D02*
X536740D01*
X528150Y476613D02*
X536734D01*
X528150Y458896D02*
X536729D01*
X528150Y478030D02*
X536717D01*
X528150Y458542D02*
X536717D01*
X528150Y476967D02*
X536676D01*
X528150Y477676D02*
X536667D01*
X528150Y477322D02*
X536654D01*
X527887Y495392D02*
X536346D01*
X528150Y492912D02*
X536218D01*
X528012Y495038D02*
X536020D01*
X528150Y493266D02*
X535948D01*
X528095Y494684D02*
X535836D01*
X528150Y493621D02*
X535797D01*
X528140Y494329D02*
X535745D01*
X528150Y493975D02*
X535733D01*
X528150Y489014D02*
X532035D01*
X528150Y485825D02*
X531919D01*
X528150Y470944D02*
X531734D01*
X528150Y480865D02*
X531593D01*
X528150Y483699D02*
X531589D01*
X528150Y473778D02*
X531475D01*
X528150Y488660D02*
X531378D01*
X528150Y486180D02*
X531337D01*
X528150Y471298D02*
X531258D01*
X528150Y481219D02*
X531189D01*
X528150Y483345D02*
X531187D01*
X528150Y473424D02*
X531126D01*
X528150Y488306D02*
X531072D01*
X528150Y486534D02*
X531049D01*
X528150Y471652D02*
X531005D01*
X528150Y481573D02*
X530965D01*
X528150Y482991D02*
X530964D01*
X528150Y473070D02*
X530930D01*
X528150Y487951D02*
X530900D01*
X528150Y486888D02*
X530888D01*
X528150Y472007D02*
X530864D01*
X528150Y481928D02*
X530845D01*
X528150Y482636D02*
X530845D01*
X528150Y472715D02*
X530830D01*
X528150Y487597D02*
X530819D01*
X528150Y487243D02*
X530815D01*
X528150Y472361D02*
X530809D01*
X528150Y482282D02*
X530807D01*
X396577Y445432D02*
X524741D01*
X401997Y445786D02*
X524546D01*
X402736Y446140D02*
X524401D01*
X403218Y446495D02*
X524300D01*
X403576Y446849D02*
X524238D01*
X414806Y447203D02*
X524213D01*
X415723Y493621D02*
X524213D01*
X415793Y493266D02*
X524213D01*
X415825Y492912D02*
X524213D01*
X415818Y492558D02*
X524213D01*
X415774Y492203D02*
X524213D01*
X415690Y491849D02*
X524213D01*
X415564Y491495D02*
X524213D01*
X415389Y491140D02*
X524213D01*
X415157Y490786D02*
X524213D01*
X414849Y490432D02*
X524213D01*
X414433Y490077D02*
X524213D01*
X413807Y489723D02*
X524213D01*
X395866Y489369D02*
X524213D01*
X395866Y489014D02*
X524213D01*
X440196Y488660D02*
X524213D01*
X440630Y488306D02*
X524213D01*
X440867Y487951D02*
X524213D01*
X446435Y487597D02*
X524213D01*
X447012Y487243D02*
X524213D01*
X447299Y486888D02*
X524213D01*
X447460Y486534D02*
X524213D01*
X447532Y486180D02*
X524213D01*
X447528Y485825D02*
X524213D01*
X447446Y485471D02*
X524213D01*
X447272Y485117D02*
X524213D01*
X446966Y484762D02*
X524213D01*
X446302Y484408D02*
X524213D01*
X395866Y484054D02*
X524213D01*
X395866Y483699D02*
X524213D01*
X395866Y483345D02*
X524213D01*
X395866Y482991D02*
X524213D01*
X395866Y482636D02*
X524213D01*
X395866Y482282D02*
X524213D01*
X395866Y481928D02*
X524213D01*
X395866Y481573D02*
X524213D01*
X402160Y481219D02*
X524213D01*
X440376Y480865D02*
X524213D01*
X440724Y480510D02*
X524213D01*
X511128Y480156D02*
X524213D01*
X511530Y479802D02*
X524213D01*
X511753Y479448D02*
X524213D01*
X511872Y479093D02*
X524213D01*
X511909Y478739D02*
X524213D01*
X511871Y478385D02*
X524213D01*
X511751Y478030D02*
X524213D01*
X511527Y477676D02*
X524213D01*
X511123Y477322D02*
X524213D01*
X468161Y476967D02*
X524213D01*
X468032Y476613D02*
X524213D01*
X467793Y476259D02*
X524213D01*
X467356Y475904D02*
X524213D01*
X443427Y475550D02*
X524213D01*
X443556Y475196D02*
X524213D01*
X443602Y474841D02*
X524213D01*
X443572Y474487D02*
X524213D01*
X443462Y474133D02*
X524213D01*
X443252Y473778D02*
X524213D01*
X442876Y473424D02*
X524213D01*
X441617Y473070D02*
X524213D01*
X441630Y472715D02*
X524213D01*
X441565Y472361D02*
X524213D01*
X441415Y472007D02*
X524213D01*
X441145Y471652D02*
X524213D01*
X440623Y471298D02*
X524213D01*
X414015Y470944D02*
X524213D01*
X413747Y470589D02*
X524213D01*
X413403Y470235D02*
X524213D01*
X412947Y469881D02*
X524213D01*
X412276Y469526D02*
X524213D01*
X454989Y469172D02*
X524213D01*
X455780Y468818D02*
X524213D01*
X456106Y468463D02*
X524213D01*
X456290Y468109D02*
X524213D01*
X456381Y467755D02*
X524213D01*
X456393Y467400D02*
X524213D01*
X456329Y467046D02*
X524213D01*
X456178Y466692D02*
X524213D01*
X455908Y466337D02*
X524213D01*
X455386Y465983D02*
X524213D01*
X429231Y465629D02*
X524213D01*
X429209Y465274D02*
X524213D01*
X429109Y464920D02*
X524213D01*
X428911Y464566D02*
X524213D01*
X428561Y464211D02*
X524213D01*
X395866Y463857D02*
X524213D01*
X491106Y463503D02*
X524213D01*
X491579Y463148D02*
X524213D01*
X491831Y462794D02*
X524213D01*
X491971Y462440D02*
X524213D01*
X492026Y462085D02*
X524213D01*
X492005Y461731D02*
X524213D01*
X491904Y461377D02*
X524213D01*
X505872Y461022D02*
X524213D01*
X506246Y460668D02*
X524213D01*
X515589Y460314D02*
X524213D01*
X516024Y459959D02*
X524213D01*
X516261Y459605D02*
X524213D01*
X516390Y459251D02*
X524213D01*
X516437Y458896D02*
X524213D01*
X516407Y458542D02*
X524213D01*
X516297Y458188D02*
X524213D01*
X516086Y457833D02*
X524213D01*
X515711Y457479D02*
X524213D01*
X429729Y457125D02*
X524213D01*
X462075Y456770D02*
X524213D01*
X462867Y456416D02*
X524213D01*
X463193Y456062D02*
X524213D01*
X485203Y455707D02*
X524213D01*
X485577Y455353D02*
X524213D01*
X485786Y454999D02*
X524213D01*
X485896Y454644D02*
X524213D01*
X485925Y454290D02*
X524213D01*
X485878Y453936D02*
X524213D01*
X485748Y453581D02*
X524213D01*
X485510Y453227D02*
X524213D01*
X485073Y452873D02*
X524213D01*
X437521Y452518D02*
X524213D01*
X496030Y452164D02*
X524213D01*
X496403Y451810D02*
X524213D01*
X496613Y451455D02*
X524213D01*
X496722Y451101D02*
X524213D01*
X496751Y450747D02*
X524213D01*
X496705Y450392D02*
X524213D01*
X496575Y450038D02*
X524213D01*
X496336Y449684D02*
X524213D01*
X495900Y449329D02*
X524213D01*
X485908Y448975D02*
X524213D01*
X485817Y448621D02*
X524213D01*
X485632Y448266D02*
X524213D01*
X485305Y447912D02*
X524213D01*
X484499Y447558D02*
X524213D01*
X415612Y493975D02*
X524107D01*
X415454Y494329D02*
X523753D01*
X415243Y494684D02*
X523398D01*
X414964Y495038D02*
X523044D01*
X414591Y495392D02*
X522690D01*
X414058Y495747D02*
X522336D01*
X413001Y496101D02*
X521981D01*
X395866Y496455D02*
X521627D01*
X395866Y496810D02*
X521273D01*
X395866Y497164D02*
X520918D01*
X395866Y497518D02*
X520564D01*
X395866Y497873D02*
X520210D01*
X503515Y498227D02*
X519855D01*
X504096Y498581D02*
X519501D01*
X515910Y503188D02*
X519030D01*
X504384Y498936D02*
X518706D01*
X516196Y502833D02*
X518412D01*
X504545Y499290D02*
X518236D01*
X516357Y502479D02*
X518053D01*
X504618Y499644D02*
X517936D01*
X516430Y502125D02*
X517813D01*
X504615Y499999D02*
X517735D01*
X516425Y501770D02*
X517654D01*
X515200Y500353D02*
X517606D01*
X516343Y501416D02*
X517559D01*
X515863Y500707D02*
X517536D01*
X516170Y501062D02*
X517521D01*
X504533Y500353D02*
X514328D01*
X415742Y503542D02*
X514195D01*
X510668Y460314D02*
X513938D01*
X510790Y457479D02*
X513816D01*
X504361Y500707D02*
X513664D01*
X415804Y503188D02*
X513618D01*
X511102Y459959D02*
X513504D01*
X511165Y457833D02*
X513441D01*
X504055Y501062D02*
X513358D01*
X415827Y502833D02*
X513331D01*
X511340Y459605D02*
X513266D01*
X511376Y458188D02*
X513231D01*
X503398Y501416D02*
X513184D01*
X415812Y502479D02*
X513170D01*
X511469Y459251D02*
X513137D01*
X511486Y458542D02*
X513121D01*
X415666Y501770D02*
X513102D01*
X415759Y502125D02*
X513098D01*
X511515Y458896D02*
X513091D01*
X512470Y513109D02*
X512548D01*
X395866Y516298D02*
X512127D01*
X413615Y515944D02*
X511609D01*
X414322Y515589D02*
X511340D01*
X414771Y515235D02*
X511190D01*
X415344Y514526D02*
X511139D01*
X415098Y514881D02*
X511126D01*
X415531Y514172D02*
X509876D01*
X415667Y513818D02*
X509502D01*
X468208Y477322D02*
X509349D01*
X440921Y480156D02*
X509345D01*
X415759Y513463D02*
X509293D01*
X415812Y513109D02*
X509183D01*
X415827Y512755D02*
X509154D01*
X506455Y460314D02*
X509017D01*
X468179Y477676D02*
X508945D01*
X441021Y479802D02*
X508943D01*
X429811Y457479D02*
X508895D01*
X468070Y478030D02*
X508721D01*
X441041Y479448D02*
X508720D01*
X467860Y478385D02*
X508601D01*
X440986Y479093D02*
X508601D01*
X506565Y459959D02*
X508583D01*
X467487Y478739D02*
X508563D01*
X429816Y457833D02*
X508520D01*
X506594Y459605D02*
X508345D01*
X505742Y458188D02*
X508310D01*
X415803Y512400D02*
X508289D01*
X506547Y459251D02*
X508216D01*
X506179Y458542D02*
X508199D01*
X506417Y458896D02*
X508170D01*
X415742Y512046D02*
X507712D01*
X415640Y511692D02*
X507426D01*
X415492Y511337D02*
X507265D01*
X415031Y510629D02*
X507197D01*
X415294Y510983D02*
X507192D01*
X414681Y510274D02*
X505998D01*
X414192Y509920D02*
X505596D01*
X413357Y509566D02*
X505373D01*
X395866Y509211D02*
X505254D01*
X395866Y508857D02*
X505217D01*
X395866Y508503D02*
X504476D01*
X414684Y505314D02*
X504359D01*
X429743Y458188D02*
X504100D01*
X491707Y461022D02*
X503970D01*
X395866Y508148D02*
X503819D01*
X414197Y505668D02*
X503778D01*
X429582Y458542D02*
X503664D01*
X491357Y460668D02*
X503597D01*
X395866Y507794D02*
X503513D01*
X413366Y506022D02*
X503490D01*
X429296Y458896D02*
X503425D01*
X415226Y460314D02*
X503387D01*
X395866Y507440D02*
X503341D01*
X395866Y506377D02*
X503329D01*
X428719Y459251D02*
X503295D01*
X414421Y459959D02*
X503278D01*
X395866Y507085D02*
X503259D01*
X395866Y506731D02*
X503256D01*
X395866Y459605D02*
X503249D01*
X415529Y501416D02*
X502507D01*
X395866Y498227D02*
X502391D01*
X415343Y501062D02*
X501850D01*
X395866Y498581D02*
X501810D01*
X415096Y500707D02*
X501545D01*
X395866Y498936D02*
X501522D01*
X414768Y500353D02*
X501372D01*
X395866Y499290D02*
X501360D01*
X414318Y499999D02*
X501291D01*
X413608Y499644D02*
X501287D01*
X492947Y449329D02*
X494258D01*
X493077Y452164D02*
X494128D01*
X493384Y449684D02*
X493821D01*
X493451Y451810D02*
X493754D01*
X485921Y449329D02*
X491305D01*
X437650Y452164D02*
X491175D01*
X485858Y449684D02*
X490868D01*
X437696Y451810D02*
X490801D01*
X485707Y450038D02*
X490630D01*
X437667Y451455D02*
X490592D01*
X485439Y450392D02*
X490500D01*
X437557Y451101D02*
X490482D01*
X484920Y450747D02*
X490453D01*
X488547Y463503D02*
X489602D01*
X488797Y460668D02*
X489352D01*
X489020Y463148D02*
X489130D01*
X395866Y463503D02*
X487043D01*
X415553Y460668D02*
X486793D01*
X414841Y463148D02*
X486571D01*
X415738Y461022D02*
X486443D01*
X415360Y462794D02*
X486318D01*
X415830Y461377D02*
X486246D01*
X415629Y462440D02*
X486179D01*
X415842Y461731D02*
X486145D01*
X415779Y462085D02*
X486124D01*
X415470Y447558D02*
X484005D01*
X437346Y450747D02*
X483584D01*
X437284Y452873D02*
X483431D01*
X463377Y455707D02*
X483301D01*
X415776Y447912D02*
X483199D01*
X436971Y450392D02*
X483065D01*
X436849Y453227D02*
X482994D01*
X463468Y455353D02*
X482927D01*
X415949Y448266D02*
X482872D01*
X415516Y450038D02*
X482797D01*
X462473Y453581D02*
X482756D01*
X463480Y454999D02*
X482718D01*
X416032Y448621D02*
X482687D01*
X415803Y449684D02*
X482646D01*
X462995Y453936D02*
X482626D01*
X463416Y454644D02*
X482608D01*
X416036Y448975D02*
X482596D01*
X415964Y449329D02*
X482583D01*
X463265Y454290D02*
X482579D01*
X475068Y522322D02*
X475129D01*
X395866Y519133D02*
X474732D01*
X412984Y519487D02*
X474210D01*
X414053Y519841D02*
X473940D01*
X414588Y520196D02*
X473789D01*
X415241Y520904D02*
X473737D01*
X414962Y520550D02*
X473725D01*
X415565Y524093D02*
X472600D01*
X415453Y521259D02*
X472478D01*
X415691Y523739D02*
X472165D01*
X415611Y521613D02*
X472103D01*
X415775Y523385D02*
X471928D01*
X415723Y521967D02*
X471892D01*
X415819Y523030D02*
X471799D01*
X415793Y522322D02*
X471782D01*
X415825Y522676D02*
X471752D01*
X454296Y534369D02*
X467161D01*
X454806Y530825D02*
X466650D01*
X454974Y534014D02*
X466483D01*
X455218Y531180D02*
X466239D01*
X455316Y533660D02*
X466141D01*
X455466Y531534D02*
X465990D01*
X455527Y533306D02*
X465929D01*
X455618Y531888D02*
X465839D01*
X455651Y532951D02*
X465805D01*
X455694Y532243D02*
X465762D01*
X455705Y532597D02*
X465751D01*
X443189Y475904D02*
X465714D01*
X440846Y478739D02*
X465584D01*
X442755Y476259D02*
X465278D01*
X440592Y478385D02*
X465211D01*
X412330Y476613D02*
X465039D01*
X440117Y478030D02*
X465001D01*
X404455Y476967D02*
X464909D01*
X427019Y477676D02*
X464892D01*
X404508Y477322D02*
X464863D01*
X459713Y456770D02*
X461547D01*
X460111Y453581D02*
X461149D01*
X460505Y456416D02*
X460755D01*
X429556Y456770D02*
X459184D01*
X429372Y453581D02*
X458787D01*
X445328Y539684D02*
X458482D01*
X397418Y564487D02*
X458465D01*
X396867Y564133D02*
X458465D01*
X396510Y563778D02*
X458465D01*
X396258Y563424D02*
X458465D01*
X411138Y563070D02*
X458465D01*
X412789Y562715D02*
X458465D01*
X413831Y562361D02*
X458465D01*
X414645Y562007D02*
X458465D01*
X415326Y561652D02*
X458465D01*
X415917Y561298D02*
X458465D01*
X416441Y560944D02*
X458465D01*
X416910Y560589D02*
X458465D01*
X417337Y560235D02*
X458465D01*
X417726Y559881D02*
X458465D01*
X418083Y559526D02*
X458465D01*
X418412Y559172D02*
X458465D01*
X418716Y558818D02*
X458465D01*
X439337Y558463D02*
X458465D01*
X439710Y558109D02*
X458465D01*
X439920Y557755D02*
X458465D01*
X440029Y557400D02*
X458465D01*
X440059Y557046D02*
X458465D01*
X440012Y556692D02*
X458465D01*
X439882Y556337D02*
X458465D01*
X439643Y555983D02*
X458465D01*
X439207Y555629D02*
X458465D01*
X420738Y555274D02*
X458465D01*
X420860Y554920D02*
X458465D01*
X420970Y554566D02*
X458465D01*
X421068Y554211D02*
X458465D01*
X421155Y553857D02*
X458465D01*
X421230Y553503D02*
X458465D01*
X421294Y553148D02*
X458465D01*
X421348Y552794D02*
X458465D01*
X421391Y552440D02*
X458465D01*
X421423Y552085D02*
X458465D01*
X421444Y551731D02*
X458465D01*
X446435Y551377D02*
X458465D01*
X447012Y551022D02*
X458465D01*
X447299Y550668D02*
X458465D01*
X447460Y550314D02*
X458465D01*
X447532Y549959D02*
X458465D01*
X447528Y549605D02*
X458465D01*
X447446Y549251D02*
X458465D01*
X447272Y548896D02*
X458465D01*
X446966Y548542D02*
X458465D01*
X446302Y548188D02*
X458465D01*
X420981Y547833D02*
X458465D01*
X420872Y547479D02*
X458465D01*
X420751Y547125D02*
X458465D01*
X420617Y546770D02*
X458465D01*
X420471Y546416D02*
X458465D01*
X420311Y546062D02*
X458465D01*
X420137Y545707D02*
X458465D01*
X419948Y545353D02*
X458465D01*
X419743Y544999D02*
X458465D01*
X419522Y544644D02*
X458465D01*
X419283Y544290D02*
X458465D01*
X419024Y543936D02*
X458465D01*
X418746Y543581D02*
X458465D01*
X418445Y543227D02*
X458465D01*
X418118Y542873D02*
X458465D01*
X417764Y542518D02*
X458465D01*
X444343Y542164D02*
X458465D01*
X445000Y541810D02*
X458465D01*
X445306Y541455D02*
X458465D01*
X445478Y541101D02*
X458465D01*
X445559Y540747D02*
X458465D01*
X445563Y540392D02*
X458465D01*
X445490Y540038D02*
X458465D01*
X429249Y456416D02*
X458393D01*
X429625Y453936D02*
X458265D01*
X429155Y456062D02*
X458067D01*
X429765Y454290D02*
X457995D01*
X429504Y455707D02*
X457883D01*
X429821Y454644D02*
X457844D01*
X429700Y455353D02*
X457792D01*
X429800Y454999D02*
X457780D01*
X395866Y469172D02*
X454460D01*
X429176Y465983D02*
X454062D01*
X395866Y468818D02*
X453668D01*
X429036Y466337D02*
X453540D01*
X395866Y468463D02*
X453343D01*
X428783Y466692D02*
X453270D01*
X415434Y534369D02*
X453184D01*
X395866Y468109D02*
X453158D01*
X428311Y467046D02*
X453120D01*
X414619Y467755D02*
X453068D01*
X415276Y467400D02*
X453055D01*
X415186Y530825D02*
X452674D01*
X415597Y534014D02*
X452507D01*
X415411Y531180D02*
X452262D01*
X415713Y533660D02*
X452164D01*
X415580Y531534D02*
X452014D01*
X415788Y533306D02*
X451953D01*
X415702Y531888D02*
X451863D01*
X415823Y532951D02*
X451829D01*
X415781Y532243D02*
X451786D01*
X415821Y532597D02*
X451775D01*
X421078Y548188D02*
X445430D01*
X395866Y484408D02*
X445430D01*
X421455Y551377D02*
X445297D01*
X440997Y487597D02*
X445297D01*
X413813Y525865D02*
X445119D01*
X395866Y528699D02*
X444860D01*
X421163Y548542D02*
X444766D01*
X395866Y484762D02*
X444766D01*
X421456Y551022D02*
X444720D01*
X441043Y487243D02*
X444720D01*
X395866Y526219D02*
X444644D01*
X395866Y528345D02*
X444512D01*
X421237Y548896D02*
X444460D01*
X395866Y485117D02*
X444460D01*
X421446Y550668D02*
X444434D01*
X441013Y486888D02*
X444434D01*
X395866Y526573D02*
X444390D01*
X395866Y527991D02*
X444315D01*
X421301Y549251D02*
X444287D01*
X395866Y485471D02*
X444287D01*
X421425Y550314D02*
X444273D01*
X440903Y486534D02*
X444273D01*
X395866Y526928D02*
X444250D01*
X395866Y527636D02*
X444216D01*
X421353Y549605D02*
X444205D01*
X440317Y485825D02*
X444205D01*
X421394Y549959D02*
X444200D01*
X440693Y486180D02*
X444200D01*
X395866Y527282D02*
X444195D01*
X417379Y542164D02*
X443452D01*
X395866Y538975D02*
X443336D01*
X416957Y541810D02*
X442795D01*
X411379Y539329D02*
X442754D01*
X416492Y541455D02*
X442490D01*
X412913Y539684D02*
X442467D01*
X415974Y541101D02*
X442317D01*
X413923Y540038D02*
X442305D01*
X415391Y540747D02*
X442236D01*
X414721Y540392D02*
X442232D01*
X412980Y476259D02*
X441104D01*
X413427Y475904D02*
X440669D01*
X413766Y475550D02*
X440432D01*
X414030Y475196D02*
X440303D01*
X440225Y474487D02*
X440286D01*
X431206Y474841D02*
X440256D01*
X431608Y474487D02*
X439696D01*
X414226Y471298D02*
X439299D01*
X431831Y474133D02*
X438905D01*
X414390Y471652D02*
X438777D01*
X427824Y478030D02*
X438623D01*
X431951Y473778D02*
X438579D01*
X427597Y488660D02*
X438544D01*
X431202Y472007D02*
X438507D01*
X427719Y485825D02*
X438423D01*
X431988Y473424D02*
X438395D01*
X427440Y480865D02*
X438364D01*
X431606Y472361D02*
X438356D01*
X431950Y473070D02*
X438304D01*
X431830Y472715D02*
X438292D01*
X428152Y478385D02*
X438148D01*
X428032Y488306D02*
X438110D01*
X428094Y486180D02*
X438047D01*
X427958Y480510D02*
X438016D01*
X428337Y478739D02*
X437894D01*
X428269Y487951D02*
X437873D01*
X428305Y486534D02*
X437837D01*
X428227Y480156D02*
X437819D01*
X428428Y479093D02*
X437754D01*
X428398Y487597D02*
X437743D01*
X428415Y486888D02*
X437727D01*
X428377Y479802D02*
X437719D01*
X428441Y479448D02*
X437699D01*
X428444Y487243D02*
X437697D01*
X420603Y555629D02*
X437565D01*
X418997Y558463D02*
X437435D01*
X420455Y555983D02*
X437128D01*
X419257Y558109D02*
X437061D01*
X420293Y556337D02*
X436890D01*
X419498Y557755D02*
X436852D01*
X420118Y556692D02*
X436760D01*
X419721Y557400D02*
X436742D01*
X419927Y557046D02*
X436713D01*
X428896Y453227D02*
X435198D01*
X414939Y450392D02*
X435076D01*
X414500Y452873D02*
X434764D01*
X412886Y450747D02*
X434701D01*
X414374Y452518D02*
X434526D01*
X413359Y451101D02*
X434491D01*
X414205Y452164D02*
X434397D01*
X413713Y451455D02*
X434381D01*
X413989Y451810D02*
X434351D01*
X428446Y472007D02*
X429428D01*
X428451Y474841D02*
X429424D01*
X428850Y472361D02*
X429024D01*
X428852Y474487D02*
X429022D01*
X395866Y459251D02*
X427580D01*
X418070Y453227D02*
X427403D01*
X418329Y456062D02*
X427144D01*
X413798Y456416D02*
X427050D01*
X395866Y458896D02*
X427004D01*
X418545Y453581D02*
X426928D01*
X415581Y467046D02*
X426807D01*
X418677Y455707D02*
X426796D01*
X413469Y456770D02*
X426743D01*
X395866Y458542D02*
X426717D01*
X418799Y453936D02*
X426674D01*
X414512Y472007D02*
X426672D01*
X414238Y474841D02*
X426668D01*
X418874Y455353D02*
X426599D01*
X413037Y457125D02*
X426570D01*
X395866Y464211D02*
X426557D01*
X395866Y458188D02*
X426556D01*
X418939Y454290D02*
X426534D01*
X404527Y477676D02*
X426524D01*
X418973Y454999D02*
X426499D01*
X412419Y457479D02*
X426488D01*
X395866Y457833D02*
X426484D01*
X418994Y454644D02*
X426478D01*
X415754Y466692D02*
X426335D01*
X414597Y472361D02*
X426268D01*
X414399Y474487D02*
X426266D01*
X414735Y464566D02*
X426207D01*
X402832Y480865D02*
X426104D01*
X415835Y466337D02*
X426082D01*
X414648Y472715D02*
X426044D01*
X414518Y474133D02*
X426043D01*
X415316Y464920D02*
X426009D01*
X395866Y488660D02*
X425946D01*
X415839Y465983D02*
X425942D01*
X414665Y473070D02*
X425924D01*
X414601Y473778D02*
X425923D01*
X415604Y465274D02*
X425909D01*
X415766Y465629D02*
X425888D01*
X414650Y473424D02*
X425886D01*
X395866Y485825D02*
X425824D01*
X404514Y478030D02*
X425719D01*
X403287Y480510D02*
X425585D01*
X395866Y488306D02*
X425512D01*
X395866Y486180D02*
X425449D01*
X404466Y478385D02*
X425392D01*
X403629Y480156D02*
X425316D01*
X395866Y487951D02*
X425274D01*
X395866Y486534D02*
X425239D01*
X404384Y478739D02*
X425207D01*
X403896Y479802D02*
X425166D01*
X395866Y487597D02*
X425145D01*
X395866Y486888D02*
X425129D01*
X404265Y479093D02*
X425115D01*
X404104Y479448D02*
X425102D01*
X395866Y487243D02*
X425099D01*
X414590Y453227D02*
X416576D01*
X414056Y456062D02*
X416317D01*
X414644Y453581D02*
X416101D01*
X414258Y455707D02*
X415969D01*
X414665Y453936D02*
X415847D01*
X414414Y455353D02*
X415772D01*
X414653Y454290D02*
X415707D01*
X414529Y454999D02*
X415672D01*
X414609Y454644D02*
X415652D01*
X403854Y447203D02*
X413934D01*
X395866Y459959D02*
X413926D01*
X412176Y450392D02*
X413801D01*
X395866Y467755D02*
X413728D01*
X395866Y464566D02*
X413611D01*
X395866Y463148D02*
X413505D01*
X404071Y447558D02*
X413270D01*
X404466Y450038D02*
X413224D01*
X395866Y460314D02*
X413120D01*
X395866Y467400D02*
X413071D01*
X395866Y464920D02*
X413030D01*
X395866Y462794D02*
X412987D01*
X404240Y447912D02*
X412964D01*
X404514Y449684D02*
X412938D01*
X395866Y460668D02*
X412793D01*
X404366Y448266D02*
X412791D01*
X404527Y449329D02*
X412777D01*
X395866Y467046D02*
X412765D01*
X395866Y465274D02*
X412742D01*
X395866Y462440D02*
X412718D01*
X404455Y448621D02*
X412709D01*
X404508Y448975D02*
X412704D01*
X395866Y461022D02*
X412608D01*
X395866Y466692D02*
X412593D01*
X395866Y465629D02*
X412581D01*
X395866Y462085D02*
X412568D01*
X395866Y461377D02*
X412517D01*
X395866Y466337D02*
X412511D01*
X395866Y465983D02*
X412508D01*
X395866Y461731D02*
X412504D01*
X402575Y536140D02*
X412386D01*
X402984Y519487D02*
X411977D01*
X403001Y496101D02*
X411960D01*
X403357Y509566D02*
X411604D01*
X403366Y506022D02*
X411594D01*
X403608Y499644D02*
X411353D01*
X403615Y515944D02*
X411346D01*
X403807Y489723D02*
X411153D01*
X403813Y525865D02*
X411147D01*
X403895Y529762D02*
X411066D01*
X403982Y535786D02*
X410979D01*
X404053Y519841D02*
X410908D01*
X404058Y495747D02*
X410903D01*
X404192Y509920D02*
X410768D01*
X404197Y505668D02*
X410764D01*
X404318Y499999D02*
X410642D01*
X404322Y515589D02*
X410638D01*
X404433Y490077D02*
X410528D01*
X404436Y525510D02*
X410524D01*
X404486Y530117D02*
X410474D01*
X404541Y535432D02*
X410419D01*
X404588Y520196D02*
X410373D01*
X404591Y495392D02*
X410370D01*
X404681Y510274D02*
X410280D01*
X404684Y505314D02*
X410277D01*
X404768Y500353D02*
X410192D01*
X404771Y515235D02*
X410190D01*
X404849Y490432D02*
X410111D01*
X404852Y525156D02*
X410109D01*
X404888Y530471D02*
X410073D01*
X404928Y535077D02*
X410033D01*
X404962Y520550D02*
X409999D01*
X404964Y495038D02*
X409997D01*
X405031Y510629D02*
X409930D01*
X405033Y504959D02*
X409928D01*
X405096Y500707D02*
X409865D01*
X405098Y514881D02*
X409863D01*
X405157Y490786D02*
X409804D01*
X405158Y524802D02*
X409802D01*
X405186Y530825D02*
X409775D01*
X405216Y534723D02*
X409745D01*
X405241Y520904D02*
X409719D01*
X405243Y494684D02*
X409718D01*
X405294Y510983D02*
X409667D01*
X405295Y504605D02*
X409665D01*
X405343Y501062D02*
X409618D01*
X405344Y514526D02*
X409616D01*
X405389Y491140D02*
X409572D01*
X405390Y524448D02*
X409570D01*
X405411Y531180D02*
X409550D01*
X405434Y534369D02*
X409527D01*
X405453Y521259D02*
X409508D01*
X405454Y494329D02*
X409506D01*
X404384Y450392D02*
X409478D01*
X405492Y511337D02*
X409468D01*
X405494Y504251D02*
X409467D01*
X405529Y501416D02*
X409431D01*
X405531Y514172D02*
X409430D01*
X405564Y491495D02*
X409397D01*
X405565Y524093D02*
X409396D01*
X405580Y531534D02*
X409381D01*
X395866Y469526D02*
X409377D01*
X405597Y534014D02*
X409364D01*
X405611Y521613D02*
X409350D01*
X405612Y493975D02*
X409349D01*
X404366Y476613D02*
X409324D01*
X405640Y511692D02*
X409321D01*
X405640Y503896D02*
X409320D01*
X405666Y501770D02*
X409295D01*
X405667Y513818D02*
X409294D01*
X405690Y491849D02*
X409270D01*
X405691Y523739D02*
X409270D01*
X405702Y531888D02*
X409259D01*
X405713Y533660D02*
X409248D01*
X405723Y521967D02*
X409238D01*
X405723Y493621D02*
X409237D01*
X395866Y457479D02*
X409234D01*
X405742Y512046D02*
X409219D01*
X405742Y503542D02*
X409218D01*
X405759Y502125D02*
X409202D01*
X405759Y513463D02*
X409201D01*
X405774Y492203D02*
X409187D01*
X405775Y523385D02*
X409186D01*
X405781Y532243D02*
X409180D01*
X405788Y533306D02*
X409173D01*
X405793Y522322D02*
X409168D01*
X405793Y493266D02*
X409167D01*
X405803Y512400D02*
X409157D01*
X405804Y503188D02*
X409157D01*
X405812Y502479D02*
X409149D01*
X405812Y513109D02*
X409149D01*
X405818Y492558D02*
X409142D01*
X405819Y523030D02*
X409142D01*
X405821Y532597D02*
X409140D01*
X405823Y532951D02*
X409137D01*
X405825Y522676D02*
X409136D01*
X405825Y492912D02*
X409136D01*
X405827Y512755D02*
X409134D01*
X405827Y502833D02*
X409134D01*
X404265Y450747D02*
X408768D01*
X395866Y469881D02*
X408707D01*
X404240Y476259D02*
X408674D01*
X395866Y457125D02*
X408617D01*
X404104Y451101D02*
X408295D01*
X395866Y470235D02*
X408251D01*
X404071Y475904D02*
X408226D01*
X395866Y456770D02*
X408184D01*
X403896Y451455D02*
X407941D01*
X395866Y470589D02*
X407907D01*
X403854Y475550D02*
X407888D01*
X395866Y456416D02*
X407855D01*
X396079Y563070D02*
X407759D01*
X403629Y451810D02*
X407665D01*
X395866Y470944D02*
X407638D01*
X403576Y475196D02*
X407623D01*
X395866Y456062D02*
X407598D01*
X395866Y539329D02*
X407518D01*
X403287Y452164D02*
X407448D01*
X395866Y471298D02*
X407427D01*
X403218Y474841D02*
X407416D01*
X395866Y455707D02*
X407396D01*
X402832Y452518D02*
X407280D01*
X395866Y471652D02*
X407264D01*
X402736Y474487D02*
X407255D01*
X395866Y455353D02*
X407240D01*
X402160Y452873D02*
X407153D01*
X395866Y472007D02*
X407142D01*
X401997Y474133D02*
X407135D01*
X395866Y454999D02*
X407124D01*
X395866Y453227D02*
X407064D01*
X395866Y472361D02*
X407056D01*
X395866Y473778D02*
X407052D01*
X395866Y454644D02*
X407045D01*
X395866Y453581D02*
X407010D01*
X395866Y472715D02*
X407006D01*
X395866Y473424D02*
X407004D01*
X395866Y454290D02*
X407000D01*
X395866Y453936D02*
X406988D01*
X395866Y473070D02*
X406988D01*
X395958Y562715D02*
X406109D01*
X395866Y539684D02*
X405985D01*
X395889Y562361D02*
X405067D01*
X395866Y540038D02*
X404974D01*
X395866Y562007D02*
X404253D01*
X395866Y540392D02*
X404177D01*
X395866Y561652D02*
X403571D01*
X395866Y540747D02*
X403506D01*
X395866Y561298D02*
X402980D01*
X395866Y541101D02*
X402923D01*
X395866Y560944D02*
X402457D01*
X395866Y541455D02*
X402406D01*
X395866Y536140D02*
X402386D01*
X395866Y560589D02*
X401987D01*
X395866Y519487D02*
X401977D01*
X395866Y496101D02*
X401960D01*
X395866Y541810D02*
X401941D01*
X395866Y509566D02*
X401604D01*
X395866Y506022D02*
X401594D01*
X395866Y560235D02*
X401561D01*
X395866Y542164D02*
X401519D01*
X395866Y499644D02*
X401353D01*
X395866Y515944D02*
X401346D01*
X395866Y559881D02*
X401172D01*
X395866Y489723D02*
X401153D01*
X395866Y525865D02*
X401147D01*
X395866Y542518D02*
X401133D01*
X395866Y529762D02*
X401066D01*
X395866Y535786D02*
X400979D01*
X395866Y519841D02*
X400908D01*
X395866Y495747D02*
X400903D01*
X395866Y559526D02*
X400815D01*
X395866Y542873D02*
X400779D01*
X395866Y509920D02*
X400768D01*
X395866Y505668D02*
X400764D01*
X395866Y499999D02*
X400642D01*
X395866Y515589D02*
X400638D01*
X395866Y490077D02*
X400528D01*
X395866Y525510D02*
X400524D01*
X395866Y559172D02*
X400486D01*
X395866Y530117D02*
X400474D01*
X395866Y543227D02*
X400453D01*
X395866Y535432D02*
X400419D01*
X395866Y520196D02*
X400373D01*
X395866Y495392D02*
X400370D01*
X395866Y510274D02*
X400280D01*
X395866Y505314D02*
X400277D01*
X395866Y500353D02*
X400192D01*
X395866Y515235D02*
X400190D01*
X395866Y558818D02*
X400182D01*
X395866Y543581D02*
X400152D01*
X395866Y490432D02*
X400111D01*
X395866Y525156D02*
X400109D01*
X395866Y530471D02*
X400073D01*
X395866Y535077D02*
X400033D01*
X395866Y520550D02*
X399999D01*
X395866Y495038D02*
X399997D01*
X395866Y510629D02*
X399930D01*
X395866Y504959D02*
X399928D01*
X395866Y558463D02*
X399901D01*
X395866Y543936D02*
X399873D01*
X395866Y500707D02*
X399865D01*
X395866Y514881D02*
X399863D01*
X395866Y490786D02*
X399804D01*
X395866Y524802D02*
X399802D01*
X395866Y530825D02*
X399775D01*
X395866Y534723D02*
X399745D01*
X395866Y520904D02*
X399719D01*
X395866Y494684D02*
X399718D01*
X395866Y510983D02*
X399667D01*
X395866Y504605D02*
X399665D01*
X395866Y558109D02*
X399641D01*
X395866Y501062D02*
X399618D01*
X395866Y514526D02*
X399616D01*
X395866Y544290D02*
X399615D01*
X395866Y491140D02*
X399572D01*
X395866Y524448D02*
X399570D01*
X395866Y531180D02*
X399550D01*
X395866Y534369D02*
X399527D01*
X395866Y521259D02*
X399508D01*
X395866Y494329D02*
X399506D01*
X395866Y511337D02*
X399468D01*
X395866Y504251D02*
X399467D01*
X395866Y501416D02*
X399431D01*
X395866Y514172D02*
X399430D01*
X395866Y557755D02*
X399400D01*
X395866Y491495D02*
X399397D01*
X395866Y524093D02*
X399396D01*
X395866Y531534D02*
X399381D01*
X395866Y544644D02*
X399376D01*
X395866Y534014D02*
X399364D01*
X395866Y521613D02*
X399350D01*
X395866Y493975D02*
X399349D01*
X395866Y511692D02*
X399321D01*
X395866Y503896D02*
X399320D01*
X395866Y501770D02*
X399295D01*
X395866Y513818D02*
X399294D01*
X395866Y491849D02*
X399270D01*
X395866Y523739D02*
X399270D01*
X395866Y531888D02*
X399259D01*
X395866Y533660D02*
X399248D01*
X395866Y521967D02*
X399238D01*
X395866Y493621D02*
X399237D01*
X395866Y512046D02*
X399219D01*
X395866Y503542D02*
X399218D01*
X395866Y502125D02*
X399202D01*
X395866Y513463D02*
X399201D01*
X395866Y492203D02*
X399187D01*
X395866Y523385D02*
X399186D01*
X395866Y532243D02*
X399180D01*
X395866Y557400D02*
X399177D01*
X395866Y533306D02*
X399173D01*
X395866Y522322D02*
X399168D01*
X395866Y493266D02*
X399167D01*
X395866Y512400D02*
X399157D01*
X395866Y503188D02*
X399157D01*
X395866Y544999D02*
X399155D01*
X395866Y502479D02*
X399149D01*
X395866Y513109D02*
X399149D01*
X395866Y492558D02*
X399142D01*
X395866Y523030D02*
X399142D01*
X395866Y532597D02*
X399140D01*
X395866Y532951D02*
X399137D01*
X395866Y522676D02*
X399136D01*
X395866Y492912D02*
X399136D01*
X395866Y512755D02*
X399134D01*
X395866Y502833D02*
X399134D01*
X395866Y557046D02*
X398971D01*
X395866Y545353D02*
X398950D01*
X395866Y556692D02*
X398780D01*
X395866Y545707D02*
X398761D01*
X395866Y556337D02*
X398604D01*
X395866Y546062D02*
X398587D01*
X395866Y555983D02*
X398443D01*
X395866Y546416D02*
X398427D01*
X395866Y555629D02*
X398295D01*
X395866Y546770D02*
X398280D01*
X395866Y555274D02*
X398160D01*
X395866Y547125D02*
X398147D01*
X395866Y554920D02*
X398038D01*
X395866Y547479D02*
X398026D01*
X395866Y554566D02*
X397928D01*
X395866Y547833D02*
X397917D01*
X395866Y554211D02*
X397830D01*
X395866Y548188D02*
X397820D01*
X395866Y553857D02*
X397743D01*
X395866Y548542D02*
X397735D01*
X395866Y553503D02*
X397667D01*
X395866Y548896D02*
X397660D01*
X395866Y553148D02*
X397603D01*
X395866Y549251D02*
X397597D01*
X395866Y552794D02*
X397550D01*
X395866Y549605D02*
X397545D01*
X395866Y552440D02*
X397507D01*
X395866Y549959D02*
X397503D01*
X395866Y552085D02*
X397475D01*
X395866Y550314D02*
X397472D01*
X395866Y551731D02*
X397454D01*
X395866Y550668D02*
X397452D01*
X395866Y551377D02*
X397443D01*
X395866Y551022D02*
X397442D01*
X395866Y474133D02*
X396822D01*
X396221Y445786D02*
X396822D01*
X395866Y481219D02*
X396659D01*
X395866Y452873D02*
X396659D01*
X395866Y474487D02*
X396083D01*
X396015Y446140D02*
X396083D01*
X395866Y480865D02*
X395987D01*
X395866Y452518D02*
X395987D01*
X393701Y393701D02*
X566929D01*
Y566929*
X393701*
Y393701*
X503937Y386122D02*
G03X502657Y387402I-1280J0D01*
G01X395177*
G03X393898Y386122I0J-1280*
G01Y368209*
G03X395177Y366929I1279J-0*
G01X502657*
G03X503937Y368209I0J1280*
G01Y386122*
X474508Y387402D02*
Y366929D01*
Y382283D02*
X393898D01*
X474508Y377165D02*
X393898D01*
X461713Y376756D02*
Y366929D01*
X474508Y372047D02*
X393898D01*
X461713Y382283D02*
Y376756D01*
X445079Y382283D02*
Y366929D01*
X410531Y387402D02*
Y366929D01*
X483140Y375104D02*
X483442D01*
X483140Y374966D02*
X483442D01*
X483140Y374829D02*
X483442D01*
X483140Y374692D02*
X483442D01*
X483140Y374554D02*
X483442D01*
X491367Y382520D02*
G03X490826Y381979I-0J-541D01*
G01X491367Y382520D02*
X495674D01*
X496215Y381979D02*
G03X495674Y382520I-541J0D01*
G01X496215Y381979D02*
Y377704D01*
X495674Y377164D02*
G03X496215Y377704I0J540D01*
G01X495674Y377164D02*
X491367D01*
X490826Y377704D02*
G03X491367Y377164I541J0D01*
G01X490826Y377704D02*
Y381979D01*
X482438Y376207D02*
X483114Y375234D01*
Y374397*
X483465*
Y375234*
X484141Y376207*
X483816*
X483303Y375532*
X482762Y376207*
X482438*
X485059Y382585D02*
G03X484735Y382261I0J-324D01*
G01X485059Y382585D02*
X487600D01*
X487924Y382261D02*
G03X487600Y382585I-324J-0D01*
G01X487924Y382261D02*
Y379882D01*
X487600Y379558D02*
G03X487924Y379882I-0J324D01*
G01X487600Y379558D02*
X485059D01*
X484735Y379882D02*
G03X485059Y379558I324J0D01*
G01X484735Y379882D02*
Y382261D01*
X492734Y380801D02*
G03X492518Y380585I0J-216D01*
G01X492734Y380801D02*
X494410D01*
X494626Y380585D02*
G03X494410Y380801I-216J0D01*
G01X494626Y380585D02*
Y379072D01*
X494410Y378856D02*
G03X494626Y379072I-0J216D01*
G01X494410Y378856D02*
X492734D01*
X492518Y379072D02*
G03X492734Y378856I216J-0D01*
G01X492518Y379072D02*
Y380585D01*
X484843Y376153D02*
G03X484519Y375829I0J-324D01*
G01X484843Y376153D02*
X485708D01*
X486032Y375829D02*
G03X485708Y376153I-324J-0D01*
G01X486032Y375829D02*
Y374802D01*
X485708Y374478D02*
G03X486032Y374802I-0J324D01*
G01X485708Y374478D02*
X484843D01*
X484519Y374802D02*
G03X484843Y374478I324J0D01*
G01X484519Y374802D02*
Y375829D01*
X483140Y384988D02*
X489345D01*
X482453Y384439D02*
X490031D01*
X482453Y384301D02*
X490086D01*
X482316Y384027D02*
X490140D01*
X482316Y383890D02*
X490140D01*
X482316Y383752D02*
X490140D01*
X482316Y383615D02*
X490140D01*
X482316Y383478D02*
X490140D01*
X482316Y383340D02*
X490140D01*
X482316Y383203D02*
X490140D01*
X482316Y383066D02*
X490140D01*
X482316Y382929D02*
X490140D01*
X482316Y382791D02*
X490140D01*
X482316Y382654D02*
X490140D01*
X491239Y382517D02*
X495797D01*
X487870D02*
X490140D01*
X482316D02*
X484843D01*
X491102Y382379D02*
X495977D01*
X487944D02*
X490140D01*
X482316D02*
X484677D01*
X490965Y382242D02*
X496085D01*
X487944D02*
X490140D01*
X482316D02*
X484677D01*
X490965Y382105D02*
X496209D01*
X487944D02*
X490140D01*
X482316D02*
X484677D01*
X490827Y381968D02*
X496209D01*
X487944D02*
X490140D01*
X482316D02*
X484677D01*
X490827Y381830D02*
X496209D01*
X487944D02*
X490140D01*
X482316D02*
X484677D01*
X490827Y381693D02*
X496209D01*
X487944D02*
X490140D01*
X482316D02*
X484677D01*
X490827Y381556D02*
X496209D01*
X487944D02*
X490140D01*
X482316D02*
X484677D01*
X490827Y381418D02*
X496209D01*
X487944D02*
X490140D01*
X482316D02*
X484677D01*
X490827Y381281D02*
X496209D01*
X487944D02*
X490140D01*
X482316D02*
X484677D01*
X490827Y381144D02*
X496209D01*
X487944D02*
X490140D01*
X482316D02*
X484677D01*
X490827Y381007D02*
X496209D01*
X487944D02*
X490140D01*
X482316D02*
X484677D01*
X490827Y380869D02*
X496209D01*
X487944D02*
X490140D01*
X482316D02*
X484677D01*
X494671Y380732D02*
X496209D01*
X490827D02*
X492502D01*
X487944D02*
X490140D01*
X482316D02*
X484677D01*
X494671Y380595D02*
X496209D01*
X490827D02*
X492502D01*
X487944D02*
X490140D01*
X482316D02*
X484677D01*
X494671Y380458D02*
X496209D01*
X490827D02*
X492502D01*
X487944D02*
X490140D01*
X482316D02*
X484677D01*
X494671Y380320D02*
X496209D01*
X490827D02*
X492502D01*
X487944D02*
X490140D01*
X482316D02*
X484677D01*
X494671Y380183D02*
X496209D01*
X490827D02*
X492502D01*
X487944D02*
X490140D01*
X482316D02*
X484677D01*
X494671Y380046D02*
X496209D01*
X490827D02*
X492502D01*
X487944D02*
X490140D01*
X482316D02*
X484677D01*
X494671Y379908D02*
X496209D01*
X490827D02*
X492502D01*
X487944D02*
X490140D01*
X482316D02*
X484677D01*
X494671Y379771D02*
X496209D01*
X490827D02*
X492502D01*
X487944D02*
X490140D01*
X482316D02*
X484677D01*
X494671Y379634D02*
X496209D01*
X490827D02*
X492502D01*
X487870D02*
X490140D01*
X482316D02*
X484789D01*
X494671Y379497D02*
X496209D01*
X490827D02*
X492502D01*
X482316D02*
X490140D01*
X494671Y379359D02*
X496209D01*
X490827D02*
X492502D01*
X482316D02*
X490140D01*
X494671Y379222D02*
X496209D01*
X490827D02*
X492502D01*
X482316D02*
X490140D01*
X494671Y379085D02*
X496209D01*
X490827D02*
X492502D01*
X482316D02*
X490140D01*
X494671Y378947D02*
X496209D01*
X490827D02*
X492502D01*
X482316D02*
X490140D01*
X490827Y378810D02*
X496209D01*
X482316D02*
X490140D01*
X490827Y378673D02*
X496209D01*
X482316D02*
X490140D01*
X490827Y378536D02*
X496209D01*
X482316D02*
X490140D01*
X490827Y378398D02*
X496209D01*
X482316D02*
X490140D01*
X490827Y378261D02*
X496209D01*
X482316D02*
X490140D01*
X490827Y378124D02*
X496209D01*
X482316D02*
X490140D01*
X490827Y377986D02*
X496209D01*
X482316D02*
X490140D01*
X490827Y377849D02*
X496209D01*
X482453D02*
X490140D01*
X490827Y377712D02*
X496209D01*
X482453D02*
X490031D01*
X490965Y377575D02*
X496161D01*
X482460D02*
X490031D01*
X490965Y377437D02*
X496071D01*
X482584D02*
X489894D01*
X491102Y377300D02*
X495966D01*
X482768D02*
X489757D01*
X491376Y377163D02*
X495663D01*
X483140D02*
X489383D01*
X483826Y376202D02*
X484128D01*
X482453D02*
X482755D01*
X483741Y376065D02*
X484016D01*
X482590D02*
X482838D01*
X483622Y375927D02*
X483903D01*
X482665D02*
X482957D01*
X483551Y375790D02*
X483853D01*
X482728D02*
X483030D01*
X483414Y375653D02*
X483703D01*
X482865D02*
X483167D01*
X482957Y375515D02*
X483638D01*
X483060Y375378D02*
X483503D01*
X483114Y375241D02*
X483443D01*
X486735Y376153D02*
Y374748D01*
G03X486951Y374532I216J-0*
G01X487654*
G03X487870Y374748I-0J216*
G01Y376153*
X488626D02*
Y374532D01*
X489329Y376153D02*
Y374532D01*
X490356*
X492140Y375721D02*
Y375937D01*
G03X491923Y376153I-217J0*
G01X491167*
G03X490951Y375937I-0J-216*
G01Y374748*
G03X491167Y374532I216J-0*
G01X491923*
G03X492140Y374748I0J216*
G01Y374964*
X482627Y384713D02*
X489870D01*
X482519Y384576D02*
X489978D01*
X483168Y384990D02*
G03X482303Y384125I-0J-865D01*
G01X483168Y384990D02*
X489302D01*
X490167Y384125D02*
G03X489302Y384990I-865J0D01*
G01X490167Y384125D02*
Y378018D01*
X489302Y377153D02*
G03X490167Y378018I0J865D01*
G01X489302Y377153D02*
X483168D01*
X482303Y378018D02*
G03X483168Y377153I865J-0D01*
G01X482303Y378018D02*
Y384125D01*
X482357Y384164D02*
X490168D01*
X482789Y384850D02*
X489707D01*
X492842Y374532D02*
X493275Y376045D01*
X493707*
X494139Y374532*
X493923Y375180D02*
X493058D01*
X494896Y375288D02*
Y376153D01*
X495653*
X496085Y375721D02*
G03X495653Y376153I-432J-0D01*
G01X496085Y375721D02*
Y374964D01*
X495653Y374532D02*
G03X496085Y374964I-0J432D01*
G01X495653Y374532D02*
X494896D01*
Y375288*
X468337Y375490D02*
Y373723D01*
X468413Y373411*
X468564Y373307*
X468715*
X468110Y374762D02*
X468639D01*
X412718Y384687D02*
X412567Y384894D01*
X412567D02*
X412416Y384998D01*
X412189*
X412038Y384894*
X412038D02*
X411887Y384687D01*
X411811Y384375*
Y384167*
X411887Y383855*
X412038Y383647*
X412189Y383543*
X412416*
X412567Y383647*
X412718Y383855*
X413777Y384998D02*
X413626Y384894D01*
X413626D02*
X413474Y384687D01*
X413399Y384375*
Y384167*
X413474Y383855*
X413626Y383647*
X413777Y383543*
X414004*
X414155Y383647*
X414306Y383855*
X414382Y384167*
Y384375*
X414306Y384687*
X414155Y384894*
X414155D02*
X414004Y384998D01*
X413777*
X415062D02*
Y383543D01*
Y384583D02*
X415289Y384894D01*
X415289D02*
X415440Y384998D01*
X415667*
X415818Y384894*
X415818D02*
X415894Y384583D01*
Y383543*
Y384583D02*
X416121Y384894D01*
X416121D02*
X416272Y384998D01*
X416499*
X416650Y384894*
X416650D02*
X416726Y384583D01*
Y383543*
X417406Y384998D02*
Y383543D01*
Y384583D02*
X417633Y384894D01*
X417633D02*
X417784Y384998D01*
X418011*
X418162Y384894*
X418162D02*
X418238Y384583D01*
Y383543*
Y384583D02*
X418465Y384894D01*
X418465D02*
X418616Y384998D01*
X418843*
X418994Y384894*
X418994D02*
X419069Y384583D01*
Y383543*
X419750Y385726D02*
X420808Y383543D01*
Y385726D02*
X419750Y383543D01*
X421489Y385726D02*
Y383543D01*
Y385726D02*
X422472D01*
X421489Y384687D02*
X422094D01*
X421489Y383543D02*
X422472D01*
X423152Y385726D02*
Y383543D01*
X424060*
X424740Y383127D02*
X426328D01*
X426781Y385726D02*
X427160Y383543D01*
X427538Y385726D02*
X427160Y383543D01*
X427538Y385726D02*
X427916Y383543D01*
X428294Y385726D02*
X427916Y383543D01*
X431242Y386142D02*
X431091Y385934D01*
X430940Y385622*
X430789Y385206*
X430713Y384687*
Y384271*
X430789Y383751*
X430940Y383335*
X431091Y383023*
X431242Y382815*
X432679Y385726D02*
X431923Y384271D01*
X433057*
X432679Y385726D02*
Y383543D01*
X435476Y385726D02*
Y383543D01*
X436384*
X437972Y384998D02*
Y383543D01*
Y384687D02*
X437820Y384894D01*
X437820D02*
X437669Y384998D01*
X437442*
X437291Y384894*
X437291D02*
X437140Y384687D01*
X437064Y384375*
Y384167*
X437140Y383855*
X437291Y383647*
X437442Y383543*
X437669*
X437820Y383647*
X437972Y383855*
X438728Y384998D02*
X439181Y383543D01*
X439635Y384998D02*
X439181Y383543D01*
X439030Y383127*
X438879Y382919*
X438728Y382815*
X438652*
X440315Y384375D02*
X441223D01*
Y384583*
X441147Y384791*
X441071Y384894*
X441071D02*
X440920Y384998D01*
X440693*
X440542Y384894*
X440542D02*
X440391Y384687D01*
X440315Y384375*
Y384167*
X440391Y383855*
X440542Y383647*
X440693Y383543*
X440920*
X441071Y383647*
X441223Y383855*
X441903Y384998D02*
Y383543D01*
Y384375D02*
X441979Y384687D01*
X442130Y384894*
X442130D02*
X442281Y384998D01*
X442508*
X443189Y386142D02*
X443340Y385934D01*
X443491Y385622*
X443642Y385206*
X443718Y384687*
Y384271*
X443642Y383751*
X443491Y383335*
X443340Y383023*
X443189Y382815*
X411887Y369852D02*
Y369956D01*
X411962Y370164*
X412038Y370268*
X412189Y370372*
X412491*
X412491D02*
X412643Y370268D01*
X412718Y370164*
X412794Y369956*
Y369748*
X412718Y369540*
X412567Y369228*
X411811Y368189*
X412870*
X414004Y370372D02*
X413777Y370268D01*
X413626Y369956*
X413550Y369436*
Y369124*
X413626Y368605*
X413777Y368293*
X414004Y368189*
X414155*
X414382Y368293*
X414533Y368605*
X414609Y369124*
Y369436*
X414533Y369956*
X414382Y370268*
X414155Y370372*
X414004*
X415289Y369956D02*
X415440Y370060D01*
X415667Y370372*
Y368189*
X417330Y369644D02*
X417255Y369332D01*
X417104Y369124*
X416877Y369020*
X416801*
X416574Y369124*
X416423Y369332*
X416348Y369644*
Y369748*
X416423Y370060*
X416574Y370268*
X416801Y370372*
X416877*
X417104Y370268*
X417255Y370060*
X417330Y369644*
Y369124*
X417255Y368605*
X417104Y368293*
X416877Y368189*
X416726*
X416499Y368293*
X416423Y368501*
X418087Y368397D02*
X418011Y368293D01*
X418087Y368189*
X418162Y368293*
X418087Y368397*
X418843Y369956D02*
X418994Y370060D01*
X419221Y370372*
Y368189*
X420355Y370372D02*
X420128Y370268D01*
X419977Y369956*
X419901Y369436*
Y369124*
X419977Y368605*
X420128Y368293*
X420355Y368189*
X420506*
X420733Y368293*
X420884Y368605*
X420960Y369124*
Y369436*
X420884Y369956*
X420733Y370268*
X420506Y370372*
X420355*
X421716Y368397D02*
X421640Y368293D01*
X421716Y368189*
X421791Y368293*
X421716Y368397*
X422472Y369956D02*
X422623Y370060D01*
X422850Y370372*
Y368189*
X423530Y369956D02*
X423682Y370060D01*
X423908Y370372*
Y368189*
X411811Y375490D02*
Y373307D01*
Y375490D02*
X412491D01*
X412491D02*
X412718Y375386D01*
X412794Y375282*
X412870Y375074*
Y374866*
X412794Y374658*
X412718Y374554*
X412491Y374450*
X412491D02*
X411811D01*
X412340D02*
X412870Y373307D01*
X413928Y374762D02*
X413777Y374658D01*
X413626Y374450*
X413550Y374138*
Y373931*
X413626Y373619*
X413777Y373411*
X413928Y373307*
X414155*
X414306Y373411*
X414457Y373619*
X414533Y373931*
Y374138*
X414457Y374450*
X414306Y374658*
X414155Y374762*
X413928*
X415213Y375490D02*
Y373307D01*
Y374450D02*
X415365Y374658D01*
X415516Y374762*
X415743*
X415894Y374658*
X416045Y374450*
X416121Y374138*
Y373931*
X416045Y373619*
X415894Y373411*
X415743Y373307*
X415516*
X415365Y373411*
X415213Y373619*
X417179Y374762D02*
X417028Y374658D01*
X416877Y374450*
X416801Y374138*
Y373931*
X416877Y373619*
X417028Y373411*
X417179Y373307*
X417406*
X417557Y373411*
X417708Y373619*
X417784Y373931*
Y374138*
X417708Y374450*
X417557Y374658*
X417406Y374762*
X417179*
X418691Y375490D02*
Y373723D01*
X418767Y373411*
X418918Y373307*
X419069*
X418465Y374762D02*
X418994D01*
X419750Y375490D02*
X419826Y375386D01*
X419901Y375490*
X419826Y375594*
X419750Y375490*
X419826Y374762D02*
Y373307D01*
X421413Y374450D02*
X421338Y374658D01*
X421111Y374762*
X420884*
X420657Y374658*
X420582Y374450*
X420657Y374242*
X420808Y374138*
X421186Y374035*
X421338Y373931*
X421413Y373723*
Y373619*
X421338Y373411*
X421111Y373307*
X420884*
X420657Y373411*
X420582Y373619*
X476195Y369427D02*
Y367748D01*
X475787Y369427D02*
X476602D01*
X477125Y368388D02*
X477823D01*
Y368548*
X477765Y368708*
X477707Y368788*
X477590Y368868*
X477416*
X477300Y368788*
X477183Y368628*
X477125Y368388*
Y368228*
X477183Y367988*
X477300Y367828*
X477416Y367748*
X477590*
X477707Y367828*
X477823Y367988*
X478346Y369427D02*
Y367748D01*
X478928Y367908D02*
X478870Y367828D01*
X478928Y367748*
X478986Y367828*
X478928Y367908*
X479859Y369427D02*
X479684Y369347D01*
X479568Y369108*
X479510Y368708*
Y368468*
X479568Y368068*
X479684Y367828*
X479859Y367748*
X479975*
X480149Y367828*
X480266Y368068*
X480324Y368468*
Y368708*
X480266Y369108*
X480149Y369347*
X479975Y369427*
X479859*
X480964D02*
X481603D01*
X481254Y368788*
X481429*
X481545Y368708*
X481603Y368628*
X481662Y368388*
Y368228*
X481603Y367988*
X481487Y367828*
X481313Y367748*
X481138*
X480964Y367828*
X480906Y367908*
X480847Y368068*
X482185Y369108D02*
X482301Y369187D01*
X482301D02*
X482476Y369427D01*
Y367748*
X482999Y368468D02*
X484046D01*
X484686Y369427D02*
X485326D01*
X484977Y368788*
X485151*
X485268Y368708*
X485326Y368628*
X485384Y368388*
Y368228*
X485326Y367988*
X485209Y367828*
X485035Y367748*
X484860*
X484686Y367828*
X484628Y367908*
X484570Y368068*
X486663Y368868D02*
X486605Y368628D01*
X486489Y368468*
X486314Y368388*
X486256*
X486082Y368468*
X485965Y368628*
X485907Y368868*
Y368948*
X485965Y369187*
X485965D02*
X486082Y369347D01*
X486256Y369427*
X486314*
X486489Y369347*
X486605Y369187*
X486605D02*
X486663Y368868D01*
Y368468*
X486605Y368068*
X486489Y367828*
X486314Y367748*
X486198*
X486024Y367828*
X485965Y367988*
X487943Y368868D02*
X487885Y368628D01*
X487768Y368468*
X487594Y368388*
X487536*
X487361Y368468*
X487245Y368628*
X487187Y368868*
Y368948*
X487245Y369187*
X487245D02*
X487361Y369347D01*
X487536Y369427*
X487594*
X487768Y369347*
X487885Y369187*
X487885D02*
X487943Y368868D01*
Y368468*
X487885Y368068*
X487768Y367828*
X487594Y367748*
X487478*
X487303Y367828*
X487245Y367988*
X488466Y368468D02*
X489513D01*
X490095Y369028D02*
Y369108D01*
X490153Y369267*
X490211Y369347*
X490327Y369427*
X490560*
X490676Y369347*
X490735Y369267*
X490793Y369108*
Y368948*
X490735Y368788*
X490618Y368548*
X490037Y367748*
X490851*
X491665Y369427D02*
X491491Y369347D01*
X491433Y369187*
X491433D02*
Y369028D01*
X491491Y368868*
X491607Y368788*
X491840Y368708*
X492014Y368628*
X492130Y368468*
X492189Y368308*
Y368068*
X492130Y367908*
X492072Y367828*
X491898Y367748*
X491665*
X491491Y367828*
X491433Y367908*
X491374Y368068*
Y368308*
X491433Y368468*
X491549Y368628*
X491723Y368708*
X491956Y368788*
X492072Y368868*
X492130Y369028*
Y369187*
X492130D02*
X492072Y369347D01*
X491898Y369427*
X491665*
X493003D02*
X492828Y369347D01*
X492770Y369187*
X492770D02*
Y369028D01*
X492828Y368868*
X492945Y368788*
X493177Y368708*
X493352Y368628*
X493468Y368468*
X493526Y368308*
Y368068*
X493468Y367908*
X493410Y367828*
X493236Y367748*
X493003*
X492828Y367828*
X492770Y367908*
X492712Y368068*
Y368308*
X492770Y368468*
X492887Y368628*
X493061Y368708*
X493294Y368788*
X493410Y368868*
X493468Y369028*
Y369187*
X493468D02*
X493410Y369347D01*
X493236Y369427*
X493003*
X494108Y369028D02*
Y369108D01*
X494166Y369267*
X494224Y369347*
X494341Y369427*
X494573*
X494690Y369347*
X494748Y369267*
X494806Y369108*
Y368948*
X494748Y368788*
X494631Y368548*
X494050Y367748*
X494864*
X475585Y373530D02*
Y371850D01*
Y372650D02*
X475759Y372890D01*
X475876Y372970*
X476050*
X476167Y372890*
X476225Y372650*
Y371850*
X476923Y373530D02*
Y372170D01*
X476981Y371930*
X477097Y371850*
X477213*
X476748Y372970D02*
X477155D01*
X477911Y373530D02*
Y372170D01*
X477969Y371930*
X478086Y371850*
X478202*
X477737Y372970D02*
X478144D01*
X478726D02*
Y371291D01*
Y372730D02*
X478842Y372890D01*
X478958Y372970*
X479133*
X479249Y372890*
X479365Y372730*
X479423Y372490*
Y372330*
X479365Y372090*
X479249Y371930*
X479133Y371850*
X478958*
X478842Y371930*
X478726Y372090*
X480005Y372970D02*
X479947Y372890D01*
X480005Y372810*
X480063Y372890*
X480005Y372970*
Y372010D02*
X479947Y371930D01*
X480005Y371850*
X480063Y371930*
X480005Y372010*
X481634Y373850D02*
X480587Y371291D01*
X483204Y373850D02*
X482157Y371291D01*
X483727Y372970D02*
X483960Y371850D01*
X484193Y372970D02*
X483960Y371850D01*
X484193Y372970D02*
X484425Y371850D01*
X484658Y372970D02*
X484425Y371850D01*
X485181Y372970D02*
X485414Y371850D01*
X485647Y372970D02*
X485414Y371850D01*
X485647Y372970D02*
X485879Y371850D01*
X486112Y372970D02*
X485879Y371850D01*
X486635Y372970D02*
X486868Y371850D01*
X487101Y372970D02*
X486868Y371850D01*
X487101Y372970D02*
X487333Y371850D01*
X487566Y372970D02*
X487333Y371850D01*
X488148Y372010D02*
X488089Y371930D01*
X488148Y371850*
X488206Y371930*
X488148Y372010*
X488787Y372970D02*
X489136Y371850D01*
X489485Y372970D02*
X489136Y371850D01*
X489020Y371531*
X488904Y371371*
X488787Y371291*
X488729*
X490299Y372970D02*
X490183Y372890D01*
X490067Y372730*
X490009Y372490*
Y372330*
X490067Y372090*
X490183Y371930*
X490299Y371850*
X490474*
X490590Y371930*
X490707Y372090*
X490765Y372330*
Y372490*
X490707Y372730*
X490590Y372890*
X490474Y372970*
X490299*
X491288D02*
Y372170D01*
X491346Y371930*
X491463Y371850*
X491637*
X491753Y371930*
X491928Y372170*
Y372970D02*
Y371850D01*
X492451Y373530D02*
X492510Y373450D01*
X492568Y373530*
X492510Y373610*
X492451Y373530*
X492510Y372970D02*
Y371850D01*
X493091Y373530D02*
Y371850D01*
X494313Y372730D02*
X494196Y372890D01*
X494080Y372970*
X493905*
X493789Y372890*
X493673Y372730*
X493615Y372490*
Y372330*
X493673Y372090*
X493789Y371930*
X493905Y371850*
X494080*
X494196Y371930*
X494313Y372090*
X495534Y372970D02*
Y371850D01*
Y372730D02*
X495418Y372890D01*
X495301Y372970*
X495127*
X495010Y372890*
X494894Y372730*
X494836Y372490*
Y372330*
X494894Y372090*
X495010Y371930*
X495127Y371850*
X495301*
X495418Y371930*
X495534Y372090*
X496755Y373530D02*
Y371850D01*
Y372730D02*
X496639Y372890D01*
X496523Y372970*
X496348*
X496232Y372890*
X496116Y372730*
X496057Y372490*
Y372330*
X496116Y372090*
X496232Y371930*
X496348Y371850*
X496523*
X496639Y371930*
X496755Y372090*
X497337Y372010D02*
X497279Y371930D01*
X497337Y371850*
X497395Y371930*
X497337Y372010*
X498616Y372730D02*
X498500Y372890D01*
X498384Y372970*
X498209*
X498093Y372890*
X497977Y372730*
X497918Y372490*
Y372330*
X497977Y372090*
X498093Y371930*
X498209Y371850*
X498384*
X498500Y371930*
X498616Y372090*
X499431Y372970D02*
X499314Y372890D01*
X499198Y372730*
X499140Y372490*
Y372330*
X499198Y372090*
X499314Y371930*
X499431Y371850*
X499605*
X499721Y371930*
X499838Y372090*
X499896Y372330*
Y372490*
X499838Y372730*
X499721Y372890*
X499605Y372970*
X499431*
X500478Y372010D02*
X500419Y371930D01*
X500478Y371850*
X500536Y371930*
X500478Y372010*
X501059Y373530D02*
Y371850D01*
X501641Y372970D02*
X501059Y372170D01*
X501292Y372490D02*
X501699Y371850D01*
X502222Y372970D02*
Y371850D01*
Y372490D02*
X502280Y372730D01*
X502280D02*
X502397Y372890D01*
X502513Y372970*
X502688*
X446358Y370372D02*
Y368189D01*
Y370372D02*
X446888D01*
X447114Y370268*
X447266Y370060*
X447341Y369852*
X447417Y369540*
Y369020*
X447341Y368708*
X447266Y368501*
X447114Y368293*
X446888Y368189*
X446358*
X448097Y370372D02*
Y368189D01*
Y370372D02*
X449080D01*
X448097Y369332D02*
X448702D01*
X448097Y368189D02*
X449080D01*
X450819Y370060D02*
X450668Y370268D01*
X450441Y370372*
X450139*
X449912Y370268*
X449761Y370060*
Y369852*
X449836Y369644*
X449912Y369540*
X450063Y369436*
X450517Y369228*
X450668Y369124*
X450744Y369020*
X450819Y368812*
Y368501*
X450668Y368293*
X450441Y368189*
X450139*
X449912Y368293*
X449761Y368501*
X451500Y370372D02*
Y368189D01*
X453314Y369852D02*
X453239Y370060D01*
X453087Y370268*
X452936Y370372*
X452634*
X452483Y370268*
X452331Y370060*
X452256Y369852*
X452180Y369540*
Y369020*
X452256Y368708*
X452331Y368501*
X452483Y368293*
X452634Y368189*
X452936*
X453087Y368293*
X453239Y368501*
X453314Y368708*
Y369020*
X452936D02*
X453314D01*
X453995Y370372D02*
Y368189D01*
Y370372D02*
X455053Y368189D01*
Y370372D02*
Y368189D01*
X455734Y370372D02*
Y368189D01*
Y370372D02*
X456717D01*
X455734Y369332D02*
X456339D01*
X455734Y368189D02*
X456717D01*
X457397Y370372D02*
Y368189D01*
Y370372D02*
X458078D01*
X458304Y370268*
X458380Y370164*
X458456Y369956*
Y369748*
X458380Y369540*
X458304Y369436*
X458078Y369332*
X457397*
X457926D02*
X458456Y368189D01*
X447417Y380296D02*
X447266Y380504D01*
X447039Y380608*
X446736*
X446509Y380504*
X446358Y380296*
Y380088*
X446434Y379880*
X446509Y379776*
X446661Y379672*
X447114Y379465*
X447266Y379361*
X447341Y379257*
X447417Y379049*
Y378737*
X447266Y378529*
X447039Y378425*
X446736*
X446509Y378529*
X446358Y378737*
X448627Y380608D02*
Y378425D01*
X448097Y380608D02*
X449156D01*
X450441D02*
X449836Y378425D01*
X450441Y380608D02*
X451046Y378425D01*
X450063Y379153D02*
X450819D01*
X452861Y380088D02*
X452785Y380296D01*
X452634Y380504*
X452483Y380608*
X452180*
X452029Y380504*
X451878Y380296*
X451802Y380088*
X451726Y379776*
Y379257*
X451802Y378945*
X451878Y378737*
X452029Y378529*
X452180Y378425*
X452483*
X452634Y378529*
X452785Y378737*
X452861Y378945*
Y379257*
X452483D02*
X452861D01*
X453541Y380608D02*
Y378425D01*
Y380608D02*
X454524D01*
X453541Y379568D02*
X454146D01*
X453541Y378425D02*
X454524D01*
X396457Y370372D02*
Y368189D01*
Y370372D02*
X396986D01*
X397213Y370268*
X397364Y370060*
X397440Y369852*
X397515Y369540*
Y369020*
X397440Y368708*
X397364Y368501*
X397213Y368293*
X396986Y368189*
X396457*
X398801Y370372D02*
X398196Y368189D01*
X398801Y370372D02*
X399405Y368189D01*
X398423Y368916D02*
X399179D01*
X400615Y370372D02*
Y368189D01*
X400086Y370372D02*
X401144D01*
X401825D02*
Y368189D01*
Y370372D02*
X402808D01*
X401825Y369332D02*
X402430D01*
X401825Y368189D02*
X402808D01*
X396457Y385726D02*
Y383543D01*
Y385726D02*
X397062Y383543D01*
X397666Y385726D02*
X397062Y383543D01*
X397666Y385726D02*
Y383543D01*
X398801Y385726D02*
X398649Y385622D01*
X398498Y385414*
X398423Y385206*
X398347Y384894*
X398347D02*
Y384375D01*
X398423Y384063*
X398498Y383855*
X398649Y383647*
X398801Y383543*
X399103*
X399254Y383647*
X399405Y383855*
X399481Y384063*
X399557Y384375*
Y384894*
X399557D02*
X399481Y385206D01*
X399405Y385414*
X399254Y385622*
X399103Y385726*
X398801*
X400237D02*
Y383543D01*
Y385726D02*
X400766D01*
X400993Y385622*
X401144Y385414*
X401220Y385206*
X401296Y384894*
X401296D02*
Y384375D01*
X401220Y384063*
X401144Y383855*
X400993Y383647*
X400766Y383543*
X400237*
X401976Y385726D02*
Y383543D01*
Y385726D02*
X402959D01*
X401976Y384687D02*
X402581D01*
X401976Y383543D02*
X402959D01*
X403639Y385726D02*
Y383543D01*
X404547*
X396457Y380608D02*
Y378425D01*
X397364*
X398649Y380608D02*
X398044Y378425D01*
X398649Y380608D02*
X399254Y378425D01*
X398271Y379153D02*
X399027D01*
X399935Y380608D02*
X400540Y379568D01*
Y378425*
X401144Y380608D02*
X400540Y379568D01*
X401825Y380608D02*
Y378425D01*
Y380608D02*
X402808D01*
X401825Y379568D02*
X402430D01*
X401825Y378425D02*
X402808D01*
X403488Y380608D02*
Y378425D01*
Y380608D02*
X404169D01*
X404396Y380504*
X404471Y380400*
X404547Y380192*
Y379984*
X404471Y379776*
X404396Y379672*
X404169Y379568*
X403488*
X404018D02*
X404547Y378425D01*
X397591Y374970D02*
X397515Y375178D01*
X397364Y375386*
X397213Y375490*
X396910*
X396759Y375386*
X396608Y375178*
X396532Y374970*
X396457Y374658*
Y374138*
X396532Y373827*
X396608Y373619*
X396759Y373411*
X396910Y373307*
X397213*
X397364Y373411*
X397515Y373619*
X397591Y373827*
X398725Y375490D02*
X398574Y375386D01*
X398423Y375178*
X398347Y374970*
X398271Y374658*
Y374138*
X398347Y373827*
X398423Y373619*
X398574Y373411*
X398725Y373307*
X399027*
X399179Y373411*
X399330Y373619*
X399405Y373827*
X399481Y374138*
Y374658*
X399405Y374970*
X399330Y375178*
X399179Y375386*
X399027Y375490*
X398725*
X400162D02*
Y373307D01*
Y375490D02*
X400766Y373307D01*
X401371Y375490D02*
X400766Y373307D01*
X401371Y375490D02*
Y373307D01*
X402052Y375490D02*
Y373307D01*
Y375490D02*
X402732D01*
X402959Y375386*
X403035Y375282*
X403110Y375074*
Y374762*
X403035Y374554*
X402959Y374450*
X402732Y374346*
X402052*
X404396Y375490D02*
X403791Y373307D01*
X404396Y375490D02*
X405000Y373307D01*
X404018Y374035D02*
X404774D01*
X405681Y375490D02*
Y373307D01*
Y375490D02*
X406739Y373307D01*
Y375490D02*
Y373307D01*
X407420Y375490D02*
X408025Y374450D01*
Y373307*
X408630Y375490D02*
X408025Y374450D01*
X462992Y370372D02*
Y368189D01*
X463899*
X464656Y368397D02*
X464580Y368293D01*
X464656Y368189*
X464731Y368293*
X464656Y368397*
X466470Y370060D02*
X466319Y370268D01*
X466092Y370372*
X465790*
X465563Y370268*
X465412Y370060*
Y369852*
X465487Y369644*
X465563Y369540*
X465714Y369436*
X466168Y369228*
X466319Y369124*
X466395Y369020*
X466470Y368812*
Y368501*
X466319Y368293*
X466092Y368189*
X465790*
X465563Y368293*
X465412Y368501*
X467226Y368397D02*
X467151Y368293D01*
X467226Y368189*
X467302Y368293*
X467226Y368397*
X467982Y370372D02*
Y368189D01*
X469041Y370372D02*
X467982Y368916D01*
X468360Y369436D02*
X469041Y368189D01*
X446888Y375490D02*
Y373307D01*
X446358Y375490D02*
X447417D01*
X448097D02*
Y373307D01*
X449156Y375490D02*
Y373307D01*
X448097Y374450D02*
X449156D01*
X449836Y375490D02*
Y373307D01*
X451651Y374970D02*
X451575Y375178D01*
X451424Y375386*
X451273Y375490*
X450970*
X450819Y375386*
X450668Y375178*
X450592Y374970*
X450517Y374658*
Y374138*
X450592Y373827*
X450668Y373619*
X450819Y373411*
X450970Y373307*
X451273*
X451424Y373411*
X451575Y373619*
X451651Y373827*
X452331Y375490D02*
Y373307D01*
X453390Y375490D02*
X452331Y374035D01*
X452709Y374554D02*
X453390Y373307D01*
X454070Y375490D02*
Y373307D01*
Y375490D02*
X455129Y373307D01*
Y375490D02*
Y373307D01*
X455809Y375490D02*
Y373307D01*
Y375490D02*
X456792D01*
X455809Y374450D02*
X456414D01*
X455809Y373307D02*
X456792D01*
X458531Y375178D02*
X458380Y375386D01*
X458153Y375490*
X457851*
X457624Y375386*
X457473Y375178*
Y374970*
X457548Y374762*
X457624Y374658*
X457775Y374554*
X458229Y374346*
X458380Y374242*
X458456Y374138*
X458531Y373931*
Y373619*
X458380Y373411*
X458153Y373307*
X457851*
X457624Y373411*
X457473Y373619*
X460270Y375178D02*
X460119Y375386D01*
X459892Y375490*
X459590*
X459363Y375386*
X459212Y375178*
Y374970*
X459287Y374762*
X459363Y374658*
X459514Y374554*
X459968Y374346*
X460119Y374242*
X460195Y374138*
X460270Y373931*
Y373619*
X460119Y373411*
X459892Y373307*
X459590*
X459363Y373411*
X459212Y373619*
X462992Y380608D02*
Y378425D01*
Y380608D02*
X463673D01*
X463899Y380504*
X463975Y380400*
X464051Y380192*
Y379984*
X463975Y379776*
X463899Y379672*
X463673Y379568*
X462992*
X463521D02*
X464051Y378425D01*
X464731Y380608D02*
Y378425D01*
Y380608D02*
X465714D01*
X464731Y379568D02*
X465336D01*
X464731Y378425D02*
X465714D01*
X466395Y380608D02*
X466999Y378425D01*
X467604Y380608D02*
X466999Y378425D01*
X469419Y380088D02*
X469343Y380296D01*
X469192Y380504*
X469041Y380608*
X468738*
X468587Y380504*
X468436Y380296*
X468360Y380088*
X468285Y379776*
Y379257*
X468360Y378945*
X468436Y378737*
X468587Y378529*
X468738Y378425*
X469041*
X469192Y378529*
X469343Y378737*
X469419Y378945*
X506496Y381740D02*
Y379724D01*
X507334*
X508031Y381260D02*
Y381356D01*
X508101Y381548*
X508171Y381644*
X508311Y381740*
X508590*
X508729Y381644*
X508799Y381548*
X508869Y381356*
Y381164*
X508799Y380972*
X508660Y380684*
X507962Y379724*
X508939*
X509567Y380588D02*
X510823D01*
X512498Y381260D02*
X512428Y381452D01*
X512289Y381644*
X512149Y381740*
X511870*
X511730Y381644*
X511591Y381452*
X511521Y381260*
X511451Y380972*
Y380492*
X511521Y380204*
X511591Y380012*
X511730Y379820*
X511870Y379724*
X512149*
X512289Y379820*
X512428Y380012*
X512498Y380204*
Y380492*
X512149D02*
X512498D01*
X513126Y381740D02*
Y379724D01*
Y381740D02*
X514103Y379724D01*
Y381740D02*
Y379724D01*
X514732Y381740D02*
Y379724D01*
Y381740D02*
X515220D01*
X515429Y381644*
X515569Y381452*
X515639Y381260*
X515709Y380972*
Y380492*
X515639Y380204*
X515569Y380012*
X515429Y379820*
X515220Y379724*
X514732*
X411811Y380608D02*
Y378425D01*
X412718*
X413474Y380088D02*
Y380192D01*
X413550Y380400*
X413626Y380504*
X413777Y380608*
X414079*
X414230Y380504*
X414306Y380400*
X414382Y380192*
Y379984*
X414306Y379776*
X414155Y379465*
X413399Y378425*
X414457*
X415138Y379361D02*
X416499D01*
X417179Y380608D02*
Y378425D01*
X417860Y380608D02*
Y378425D01*
Y380608D02*
X418918Y378425D01*
Y380608D02*
Y378425D01*
X420128Y380608D02*
Y378425D01*
X419599Y380608D02*
X420657D01*
X421338Y380192D02*
X421489Y380296D01*
X421716Y380608*
Y378425*
G54D26*
X433609Y410000D02*
X431024Y410511D01*
X431535Y407927*
X432723Y409665D02*
X431024Y410511D01*
X432246Y409290*
X431024Y410511D02*
X431870Y408813D01*
X434055Y407480D02*
X428582Y412953D01*
X452144Y407480D02*
G03X453188Y407913I0J1477D01*
G01X473977Y428701*
X450787Y407480D02*
X452144D01*
X428150Y413997D02*
G03X428582Y412953I1476J0D01*
G01X428150Y413997D02*
Y419664D01*
X428582Y420708D02*
G03X428150Y419664I1044J-1044D01*
G01X428582Y420708D02*
X429686Y421812D01*
X430730Y422244D02*
G03X429686Y421812I-0J-1476D01*
G01X430730Y422244D02*
X455097D01*
X452401Y413031D02*
X472009Y432638D01*
X473052Y433071D02*
G03X472009Y432638I0J-1477D01*
G01X473052Y433071D02*
X520058D01*
X438347Y413031D02*
G03X439391Y412598I1044J1044D01*
G01X436575Y416876D02*
X437086Y414292D01*
X434502Y414803*
X436240Y415990D02*
X437086Y414292D01*
X435865Y415513*
X437086Y414292D02*
X435388Y415138D01*
X438347Y413031D02*
X434055Y417323D01*
X475021Y429134D02*
G03X473977Y428701I-0J-1477D01*
G01X475021Y429134D02*
X508366D01*
X455097Y422244D02*
G03X456141Y422677I0J1476D01*
G01X470040Y436575*
X471084Y437008D02*
G03X470040Y436575I-0J-1477D01*
G01X524477Y438474D02*
X522288Y437008D01*
X524477Y435542*
X524088Y437610D02*
X522288Y437008D01*
X524016*
X522288D02*
X524088Y436405D01*
X471084Y437008D02*
X526575D01*
X451357Y412598D02*
X439391D01*
X451357D02*
G03X452401Y413031I-0J1477D01*
G01X509843Y427657D02*
G03X508366Y429134I-1477J0D01*
G01X512362Y426719D02*
X512873Y424134D01*
X510289Y424646*
X512027Y425833D02*
X512873Y424134D01*
X511652Y425356*
X512873Y424134D02*
X511175Y424981D01*
X514331Y422677D02*
X509843Y427165D01*
X515375Y422244D02*
X529113D01*
X514331Y422677D02*
G03X515375Y422244I1044J1043D01*
G01X509843Y427165D02*
Y427657D01*
X521102Y432638D02*
G03X520058Y433071I-1044J-1044D01*
G01X529113Y422244D02*
G03X530157Y422677I-0J1476D01*
G01X532245Y424764*
G03X532677Y425808I-1044J1044*
G01Y439546*
G03X532245Y440590I-1476J-0*
G01X526614Y446221*
X526181Y447265D02*
G03X526614Y446221I1476J0D01*
G01X526181Y447265D02*
Y494074D01*
X526128Y429685D02*
X523544Y430196D01*
X524055Y427612*
X525242Y429350D02*
X523544Y430196D01*
X524765Y428975*
X523544Y430196D02*
X524390Y428498D01*
X526575Y427165D02*
X521102Y432638D01*
X526181Y494074D02*
G03X525749Y495117I-1476J-0D01*
G01X519882Y500984*
X434055Y432480D02*
Y433858D01*
X438583Y437008D02*
X437205D01*
X434055Y441535D02*
Y440157D01*
X429528Y437008D02*
X430906D01*
X455315Y427165D02*
X453937D01*
X450787Y431693D02*
Y430315D01*
X446260Y427165D02*
X447638D01*
X509843Y412008D02*
Y410630D01*
X505315Y407480D02*
X506693D01*
X509843Y402953D02*
Y404331D01*
X514370Y407480D02*
X512992D01*
X526575Y412008D02*
Y410630D01*
X522047Y407480D02*
X523425D01*
X526575Y402953D02*
Y404331D01*
X531102Y407480D02*
X529724D01*
G54D27*
X424213Y405512D03*
X431102Y397638D03*
X418307D03*
X397638D03*
X447835D03*
X468504D03*
X460630Y402559D03*
X464567D03*
X468504D03*
Y406496D03*
X464567D03*
X460630D03*
X464567Y397638D03*
X460630D03*
X512795D03*
X501969D03*
X484252D03*
X533661Y408268D03*
X540354Y397638D03*
X531496D03*
X523622D03*
X517717D03*
X562795Y398031D03*
X427165Y436024D03*
X425197Y430118D03*
X423228Y419291D03*
X397638D03*
X410433Y424213D03*
X414370Y430118D03*
X413386Y440945D03*
X457677Y430906D03*
X461220Y441142D03*
X446850Y435039D03*
X452756D03*
X448819Y446850D03*
X452756Y440945D03*
X454724Y446850D03*
X460630D03*
X446850Y440945D03*
X513583Y441142D03*
X503150D03*
X503346Y423819D03*
X497047Y424016D03*
X522441Y448622D03*
X553150Y424803D03*
X541339Y427165D03*
X536614Y417520D03*
X529528Y449803D03*
X546654Y440748D03*
X538189Y436417D03*
X542323Y436220D03*
X546457D03*
X538189Y440551D03*
X562795Y430315D03*
Y419094D03*
X562992Y446850D03*
X410433Y482283D03*
X421260Y478346D03*
X397638Y484252D03*
X469488Y482283D03*
X471654Y474803D03*
X454724Y454724D03*
X455709Y462598D03*
X478346Y484252D03*
X489173Y477362D03*
X500000Y460630D03*
X530512Y462992D03*
X534843D03*
X549213Y463583D03*
X552165Y485236D03*
X539370Y484252D03*
X557087Y471457D03*
X562992Y485236D03*
X563189Y455906D03*
Y465354D03*
X427165Y526575D03*
X468504Y500000D03*
Y515748D03*
X440945Y525591D03*
X472441Y511811D03*
Y492126D03*
X477362Y515748D03*
Y503937D03*
X503740Y512402D03*
X503937Y516732D03*
X498031Y500000D03*
X490157D03*
X482283D03*
Y507874D03*
X498031D03*
X490157D03*
Y515748D03*
X498031D03*
X482283D03*
X492126Y492126D03*
X517717Y517717D03*
X419291Y539370D03*
X435039Y562992D03*
X398622D03*
X419291D03*
X397638Y540354D03*
X433071Y531496D03*
X467520Y537402D03*
X455709Y546260D03*
X439961Y536417D03*
X455709Y562992D03*
X452756Y551181D03*
X472441Y531496D03*
X511811Y537402D03*
X503937D03*
X495079D03*
X486220D03*
X477362D03*
X511811Y531496D03*
X492126D03*
X541339Y562992D03*
X532480D03*
X519685Y537402D03*
X531496Y551181D03*
X562992Y540354D03*
Y562992D03*
G54D54*
X509843Y407480D03*
Y427165D03*
X450787D03*
Y407480D03*
X526575D03*
Y427165D03*
Y437008D03*
X434055D03*
Y417323D03*
Y407480D03*
G54D67*
X423819Y439567D03*
X412402Y445866D03*
X478346Y449606D03*
X504921Y448819D03*
X483858Y445866D03*
X487795Y448031D03*
X482480Y424803D03*
X499016Y445866D03*
X484843Y424803D03*
Y422441D03*
X482480D03*
X548622Y446063D03*
X537598D03*
X546063D03*
X435039Y462598D03*
Y458661D03*
Y466535D03*
X432087Y450787D03*
X405118Y462795D03*
X427165Y450787D03*
X405118Y456102D03*
X415354Y458661D03*
X405118Y470669D03*
X418307Y458661D03*
X421260Y458465D03*
X467520Y470472D03*
X438976Y458661D03*
Y462598D03*
Y466535D03*
X442913Y462598D03*
Y458661D03*
Y466535D03*
X478346Y451772D03*
Y453937D03*
X543110Y469488D03*
X520276Y458661D03*
X538386Y490157D03*
X516142Y483465D03*
X519882Y500984D03*
X424409Y544291D03*
Y555118D03*
X452559Y537402D03*
X438583Y552165D03*
X536811Y537402D03*
G74*
X0Y0D02*
M02*
