*
*
G04 PADS Layout (Build Number 2006.45.1) generated Gerber (RS-274-X) file*
G04 PC Version=2.1*
*
%IN "COMMXEL_W-REVC(191008)-"*%
*
%MOIN*%
*
%FSLAX35Y35*%
*
*
*
*
G04 PC Standard Apertures*
*
*
G04 Thermal Relief Aperture macro.*
%AMTER*
1,1,$1,0,0*
1,0,$1-$2,0,0*
21,0,$3,$4,0,0,45*
21,0,$3,$4,0,0,135*
%
*
*
G04 Annular Aperture macro.*
%AMANN*
1,1,$1,0,0*
1,0,$2,0,0*
%
*
*
G04 Odd Aperture macro.*
%AMODD*
1,1,$1,0,0*
1,0,$1-0.005,0,0*
%
*
*
G04 PC Custom Aperture Macros*
*
*
*
*
*
*
G04 PC Aperture Table*
*
%ADD010C,0.00394*%
%ADD026C,0.01181*%
%ADD027C,0.0315*%
%ADD031C,0.06693*%
%ADD054C,0.06299*%
%ADD067C,0.01969*%
*
*
*
*
G04 PC Custom Flashes*
G04 Layer Name COMMXEL_W-REVC(191008)- - flashes*
%LPD*%
*
*
G04 PC Circuitry*
G04 Layer Name COMMXEL_W-REVC(191008)- - circuitry*
%LPD*%
*
G54D10*
G01X555118Y424803D02*
G75*
G03X555118I-1968J0D01*
G01X558169Y436024D02*
G03X558169I-3051J0D01*
G01X548425Y436220D02*
G03X548425I-1968J0D01*
G01X543307Y427165D02*
G03X543307I-1968J0D01*
G01X544291Y436220D02*
G03X544291I-1968J0D01*
G01X535630Y408268D02*
G03X535630I-1969J0D01*
G01X538583Y417520D02*
G03X538583I-1969J0D01*
G01X540158Y436417D02*
G03X540158I-1969J0D01*
G01X529921Y407480D02*
G03X529921I-3346J0D01*
G01X531102Y417323D02*
G03X531102I-4527J0D01*
G01X529921Y427165D02*
G03X529921I-3346J0D01*
G01Y437008D02*
G03X529921I-3346J0D01*
G01X513189Y407480D02*
G03X513189I-3346J0D01*
G01X514370Y417323D02*
G03X514370I-4527J0D01*
G01X513189Y427165D02*
G03X513189I-3346J0D01*
G01X505315Y423819D02*
G03X505315I-1969J0D01*
G01X499016Y424016D02*
G03X499016I-1969J0D01*
G01X459646Y430906D02*
G03X459646I-1969J0D01*
G01X454134Y407480D02*
G03X454134I-3347J0D01*
G01X455315Y417323D02*
G03X455315I-4528J0D01*
G01X454134Y427165D02*
G03X454134I-3347J0D01*
G01X454724Y435039D02*
G03X454724I-1968J0D01*
G01X448819D02*
G03X448819I-1969J0D01*
G01X437402Y407480D02*
G03X437402I-3347J0D01*
G01Y417323D02*
G03X437402I-3347J0D01*
G01X438583Y427165D02*
G03X438583I-4528J0D01*
G01X437402Y437008D02*
G03X437402I-3347J0D01*
G01X426181Y405512D02*
G03X426181I-1968J0D01*
G01X425197Y419291D02*
G03X425197I-1969J0D01*
G01X427165Y430118D02*
G03X427165I-1968J0D01*
G01X429134Y436024D02*
G03X429134I-1969J0D01*
G01X412402Y424213D02*
G03X412402I-1969J0D01*
G01X416339Y430118D02*
G03X416339I-1969J0D01*
G01X542028Y451378D02*
G03X542028I-1674J0D01*
G01X540059Y458661D02*
G03X540059I-1673J0D01*
G01X536811Y462992D02*
G03X536811I-1968J0D01*
G01X541339Y484252D02*
G03X541339I-1969J0D01*
G01X540059Y490157D02*
G03X540059I-1673J0D01*
G01X531496Y449803D02*
G03X531496I-1968J0D01*
G01X532480Y462992D02*
G03X532480I-1968J0D01*
G01X534154Y472441D02*
G03X534154I-1674J0D01*
G01Y482283D02*
G03X534154I-1674J0D01*
G01Y487402D02*
G03X534154I-1674J0D01*
G01X521949Y458661D02*
G03X521949I-1673J0D01*
G01X506595Y448819D02*
G03X506595I-1674J0D01*
G01X469193Y470472D02*
G03X469193I-1673J0D01*
G01X558169Y451772D02*
G03X558169I-3051J0D01*
G01Y459646D02*
G03X558169I-3051J0D01*
G01X561496Y492795D02*
G03X561496I-3346J0D01*
G01Y502795D02*
G03X561496I-3346J0D01*
G01Y512795D02*
G03X561496I-3346J0D01*
G01Y522795D02*
G03X561496I-3346J0D01*
G01Y532795D02*
G03X561496I-3346J0D01*
G01X551181Y463583D02*
G03X551181I-1968J0D01*
G01X553740Y477362D02*
G03X553740I-3543J0D01*
G01X554134Y485236D02*
G03X554134I-1969J0D01*
G01X551496Y502795D02*
G03X551496I-3346J0D01*
G01Y512795D02*
G03X551496I-3346J0D01*
G01Y522795D02*
G03X551496I-3346J0D01*
G01Y532795D02*
G03X551496I-3346J0D01*
G01X538484Y537402D02*
G03X538484I-1673J0D01*
G01X519685Y517717D02*
G03X519685I-1968J0D01*
G01X521654Y537402D02*
G03X521654I-1969J0D01*
G01X511909Y478740D02*
G03X511909I-1673J0D01*
G01X513780Y531496D02*
G03X513780I-1969J0D01*
G01Y537402D02*
G03X513780I-1969J0D01*
G01X505709Y512402D02*
G03X505709I-1969J0D01*
G01X505906Y516732D02*
G03X505906I-1969J0D01*
G01Y537402D02*
G03X505906I-1969J0D01*
G01X500000Y500000D02*
G03X500000I-1969J0D01*
G01Y507874D02*
G03X500000I-1969J0D01*
G01Y515748D02*
G03X500000I-1969J0D01*
G01X494095Y492126D02*
G03X494095I-1969J0D01*
G01X492126Y500000D02*
G03X492126I-1969J0D01*
G01Y507874D02*
G03X492126I-1969J0D01*
G01Y515748D02*
G03X492126I-1969J0D01*
G01X494095Y531496D02*
G03X494095I-1969J0D01*
G01X497047Y537402D02*
G03X497047I-1968J0D01*
G01X456693Y454724D02*
G03X456693I-1969J0D01*
G01X480315Y484252D02*
G03X480315I-1969J0D01*
G01X484252Y500000D02*
G03X484252I-1969J0D01*
G01Y507874D02*
G03X484252I-1969J0D01*
G01Y515748D02*
G03X484252I-1969J0D01*
G01X488189Y537402D02*
G03X488189I-1969J0D01*
G01X479331Y503937D02*
G03X479331I-1969J0D01*
G01Y515748D02*
G03X479331I-1969J0D01*
G01X471457Y482283D02*
G03X471457I-1969J0D01*
G01X474409Y492126D02*
G03X474409I-1968J0D01*
G01X470472Y500000D02*
G03X470472I-1968J0D01*
G01X474409Y511811D02*
G03X474409I-1968J0D01*
G01X479331Y537402D02*
G03X479331I-1969J0D01*
G01X470472Y515748D02*
G03X470472I-1968J0D01*
G01X474409Y531496D02*
G03X474409I-1968J0D01*
G01X469488Y537402D02*
G03X469488I-1968J0D01*
G01X454232D02*
G03X454232I-1673J0D01*
G01X457677Y546260D02*
G03X457677I-1968J0D01*
G01X454724Y551181D02*
G03X454724I-1968J0D01*
G01X447539Y486024D02*
G03X447539I-1673J0D01*
G01Y527362D02*
G03X447539I-1673J0D01*
G01Y549803D02*
G03X447539I-1673J0D01*
G01X441043Y479528D02*
G03X441043I-1673J0D01*
G01Y487205D02*
G03X441043I-1673J0D01*
G01X442913Y525591D02*
G03X442913I-1968J0D01*
G01X441929Y536417D02*
G03X441929I-1968J0D01*
G01X440256Y552165D02*
G03X440256I-1673J0D01*
G01X435039Y531496D02*
G03X435039I-1968J0D01*
G01X428445Y479331D02*
G03X428445I-1673J0D01*
G01Y487205D02*
G03X428445I-1673J0D01*
G01X429134Y526575D02*
G03X429134I-1969J0D01*
G01X426083Y544291D02*
G03X426083I-1674J0D01*
G01Y555118D02*
G03X426083I-1674J0D01*
G01X421260Y539370D02*
G03X421260I-1969J0D01*
G01X415846Y466142D02*
G03X415846I-1673J0D01*
G01X414665Y473081D02*
G03X414665I-3838J0D01*
G01X412402Y482283D02*
G03X412402I-1969J0D01*
G01X415827Y492795D02*
G03X415827I-3347J0D01*
G01Y502795D02*
G03X415827I-3347J0D01*
G01Y512795D02*
G03X415827I-3347J0D01*
G01Y522795D02*
G03X415827I-3347J0D01*
G01Y532795D02*
G03X415827I-3347J0D01*
G01X406791Y456102D02*
G03X406791I-1673J0D01*
G01Y462795D02*
G03X406791I-1673J0D01*
G01Y470669D02*
G03X406791I-1673J0D01*
G01X405827Y492795D02*
G03X405827I-3347J0D01*
G01Y502795D02*
G03X405827I-3347J0D01*
G01Y512795D02*
G03X405827I-3347J0D01*
G01Y522795D02*
G03X405827I-3347J0D01*
G01Y532795D02*
G03X405827I-3347J0D01*
G01X444587Y458661D02*
G03X444587I-1674J0D01*
G01Y462598D02*
G03X444587I-1674J0D01*
G01X437697Y451772D02*
G03X437697I-1673J0D01*
G01X440650Y458661D02*
G03X440650I-1674J0D01*
G01Y462598D02*
G03X440650I-1674J0D01*
G01X433760Y450787D02*
G03X433760I-1673J0D01*
G01X436713Y458661D02*
G03X436713I-1674J0D01*
G01Y462598D02*
G03X436713I-1674J0D01*
G01X428839Y450787D02*
G03X428839I-1674J0D01*
G01X416043Y448819D02*
G03X416043I-1673J0D01*
G01X414665Y453986D02*
G03X414665I-3838J0D01*
G01X562795Y432283D02*
Y438976D01*
G03X561024Y440748I-1771J0*
G01X548622*
X544685D02*
G03X548622I1969J0D01*
G01X544685D02*
X540148D01*
X536230D02*
G03X540148I1959J-197D01*
G01X536230D02*
X515511D01*
X511654D02*
G03X515511I1929J394D01*
G01X511654D02*
X505078D01*
X501221D02*
G03X505078I1929J394D01*
G01X501221D02*
X463149D01*
X459292D02*
G03X463149I1928J394D01*
G01X459292D02*
X454715D01*
X450797D02*
G03X454715I1959J197D01*
G01X450797D02*
X448809D01*
X444892D02*
G03X448809I1958J197D01*
G01X444892D02*
X425004D01*
X422634D02*
G03X425004I1185J-1181D01*
G01X422634D02*
X415344D01*
X411427D02*
G03X415344I1959J197D01*
G01X411427D02*
X400591D01*
G03X398819Y438976I-0J-1772*
G01Y420866*
Y417717D02*
G03Y420866I-1181J1574D01*
G01Y417717D02*
Y415034D01*
X412498Y397835D02*
G03X398819Y415034I-3049J11614D01*
G01X412498Y397835D02*
X416348D01*
X420266D02*
G03X416348I-1959J-197D01*
G01X420266D02*
X429144D01*
X433061D02*
G03X429144I-1959J-197D01*
G01X433061D02*
X445876D01*
X449793D02*
G03X445876I-1958J-197D01*
G01X449793D02*
X458671D01*
X462589D02*
G03X458671I-1959J-197D01*
G01X462589D02*
X462608D01*
X466526D02*
G03X462608I-1959J-197D01*
G01X466526D02*
X466545D01*
X470463D02*
G03X466545I-1959J-197D01*
G01X470463D02*
X482293D01*
X486211D02*
G03X482293I-1959J-197D01*
G01X486211D02*
X500010D01*
X503927D02*
G03X500010I-1958J-197D01*
G01X503927D02*
X510837D01*
X514754D02*
G03X510837I-1959J-197D01*
G01X514754D02*
X515758D01*
X519675D02*
G03X515758I-1958J-197D01*
G01X519675D02*
X521663D01*
X525581D02*
G03X521663I-1959J-197D01*
G01X525581D02*
X529537D01*
X533455D02*
G03X529537I-1959J-197D01*
G01X533455D02*
X538396D01*
X542313D02*
G03X538396I-1959J-197D01*
G01X542313D02*
X548131D01*
X562795Y412498D02*
G03X548131Y397835I-11614J-3049D01*
G01X562795Y412498D02*
Y417126D01*
Y421063D02*
G03Y417126I0J-1969D01*
G01Y421063D02*
Y428346D01*
Y432283D02*
G03Y428346I0J-1968D01*
G01X543110Y481081D02*
Y496063D01*
G03X541339Y497835I-1771J-0*
G01X518701*
G03X516929Y496063I-0J-1772*
G01Y484941*
Y481988D02*
G03Y484941I-787J1477D01*
G01Y481988D02*
Y458661D01*
X514764Y456496D02*
G03X516929Y458661I-0J2165D01*
G01X514764Y456496D02*
X481299D01*
G03X479564Y455084I0J-1772*
G01X479622Y452854D02*
G03X479564Y455084I-1276J1083D01*
G01X479622Y450689D02*
G03Y452854I-1276J1083D01*
G01X479564Y448459D02*
G03X479622Y450689I-1218J1147D01*
G01X479564Y448459D02*
G03X481299Y447047I1735J360D01*
G01X482673*
X485043D02*
G03X482673I-1185J-1181D01*
G01X485043D02*
X486442D01*
X489148D02*
G03X486442I-1353J984D01*
G01X489148D02*
X497831D01*
X500201D02*
G03X497831I-1185J-1181D01*
G01X500201D02*
X521260D01*
X523622D02*
G03X521260I-1181J1575D01*
G01X523622D02*
X536245D01*
X538952D02*
G03X536245I-1354J-984D01*
G01X538952D02*
X541339D01*
G03X543110Y448819I-0J1772*
G01Y467815*
Y471161D02*
G03Y467815I0J-1673D01*
G01Y471161D02*
Y473643D01*
Y481081D02*
G03Y473643I-2913J-3719D01*
G01X491929Y460630D02*
Y473425D01*
G03X490157Y475197I-1772J0*
G01X473582*
X469725D02*
G03X473582I1929J-394D01*
G01X469725D02*
X443555D01*
X441601Y473162D02*
G03X443555Y475197I328J1641D01*
G01X440288Y474475D02*
G03X441601Y473162I-327J-1640D01*
G01X440303Y475197D02*
G03X440288Y474476I1626J-394D01*
G01X440303Y475197D02*
X425197D01*
G03X423425Y473425I-0J-1772*
G01Y468504*
G03X425197Y466732I1772J-0*
G01X426374*
X428744D02*
G03X426374I-1185J-1181D01*
G01X428744D02*
X433378D01*
X436701D02*
G03X433378I-1662J-197D01*
G01X436701D02*
X437315D01*
X440638D02*
G03X437315I-1662J-197D01*
G01X440638D02*
X441252D01*
X444575D02*
G03X441252I-1662J-197D01*
G01X444575D02*
X453248D01*
X456201D02*
G03X453248I-1477J788D01*
G01X456201D02*
X477362D01*
X479528Y464567D02*
G03X477362Y466732I-2166J-0D01*
G01X479528Y464567D02*
Y460630D01*
G03X481299Y458858I1771J-0*
G01X490157*
G03X491929Y460630I0J1772*
G01X562795Y542313D02*
Y548131D01*
X548131Y562795D02*
G03X562795Y548131I3050J-11614D01*
G01X548131Y562795D02*
X543297D01*
X539380D02*
G03X543297I1959J197D01*
G01X539380D02*
X534439D01*
X530522D02*
G03X534439I1958J197D01*
G01X530522D02*
X529724D01*
Y552039*
Y550323D02*
G03Y552039I1772J858D01*
G01Y550323D02*
Y539764D01*
X529528Y539567D02*
G03X529724Y539764I-0J197D01*
G01X529528Y539567D02*
X458661D01*
X458465Y539764D02*
G03X458661Y539567I196J-0D01*
G01X458465Y539764D02*
Y562795D01*
X457667*
X453750D02*
G03X457667I1959J197D01*
G01X453750D02*
X436998D01*
X433081D02*
G03X436998I1958J197D01*
G01X433081D02*
X421250D01*
X417333D02*
G03X421250I1958J197D01*
G01X417333D02*
X412498D01*
X397835Y548131D02*
G03X412498Y562795I11614J3050D01*
G01X397835Y548131D02*
Y542313D01*
Y538396D02*
G03Y542313I-197J1958D01*
G01Y538396D02*
Y486211D01*
Y482293D02*
G03Y486211I-197J1959D01*
G01Y482293D02*
Y481488D01*
X398081Y481496D02*
G03X397835Y481488I-0J-3789D01*
G01X398081Y481496D02*
X400738D01*
Y473917D02*
G03Y481496I0J3790D01*
G01Y473917D02*
X398081D01*
X397835Y473925D02*
G03X398081Y473917I246J3782D01*
G01X397835Y473925D02*
Y453142D01*
X398081Y453150D02*
G03X397835Y453142I-0J-3790D01*
G01X398081Y453150D02*
X400738D01*
X403740Y447047D02*
G03X400738Y453150I-3002J2313D01*
G01X403740Y447047D02*
X411216D01*
X413587D02*
G03X411216I-1185J-1181D01*
G01X413587D02*
X446860D01*
X450778D02*
G03X446860I-1959J-197D01*
G01X450778D02*
X452766D01*
X456683D02*
G03X452766I-1959J-197D01*
G01X456683D02*
X458671D01*
X462589D02*
G03X458671I-1959J-197D01*
G01X462589D02*
X475394D01*
G03X477128Y448459I-0J1772*
G01X477071Y450689D02*
G03X477128Y448459I1275J-1083D01*
G01X477071Y452854D02*
G03Y450689I1275J-1082D01*
G01X477165Y455122D02*
G03X477071Y452854I1181J-1185D01*
G01X477165Y455122D02*
Y462598D01*
G03X475394Y464370I-1771J0*
G01X456567*
X454851D02*
G03X456567I858J-1772D01*
G01X454851D02*
X428744D01*
X426374D02*
G03X428744I1185J1181D01*
G01X426374D02*
X423228D01*
X421063Y466535D02*
G03X423228Y464370I2165J0D01*
G01X421063Y466535D02*
Y475394D01*
X421300Y476378D02*
G03X421063Y475394I1928J-984D01*
G01X423061Y477553D02*
G03X421300Y476378I-1801J793D01*
G01X423228Y477559D02*
G03X423061Y477553I0J-2165D01*
G01X423228Y477559D02*
X464874D01*
X468197D02*
G03X464874I-1662J-197D01*
G01X468197D02*
X487215D01*
X491132D02*
G03X487215I-1959J-197D01*
G01X491132D02*
X492126D01*
X494291Y475394D02*
G03X492126Y477559I-2165J-0D01*
G01X494291Y475394D02*
Y460630D01*
G03X496063Y458858I1772J-0*
G01X499142*
X500858D02*
G03X499142I-858J1772D01*
G01X500858D02*
X508169D01*
X511516D02*
G03X508169I-1673J0D01*
G01X511516D02*
X512795D01*
G03X513091Y458883I0J1772*
G01X514563Y460519D02*
G03X513091Y458883I201J-1661D01*
G01X514563Y460519D02*
G03X514567Y460630I-1768J111D01*
G01Y482899*
Y484030D02*
G03Y482899I1575J-565D01*
G01Y484030D02*
Y498031D01*
X516732Y500197D02*
G03X514567Y498031I0J-2166D01*
G01X516732Y500197D02*
X518405D01*
X521358D02*
G03X518405I-1476J787D01*
G01X521358D02*
X544291D01*
X546457Y498031D02*
G03X544291Y500197I-2166J0D01*
G01X546457Y498031D02*
Y495682D01*
Y489909D02*
G03Y495682I1693J2886D01*
G01Y489909D02*
Y448819D01*
G03X547430Y447237I1771J-0*
G01X549975Y447047D02*
G03X547430Y447237I-1353J-984D01*
G01X549975Y447047D02*
X561024D01*
G03X561033I-0J1772*
G01X562795Y448809D02*
G03X561033Y447047I197J-1959D01*
G01X562795Y448809D02*
G03Y448819I-1771J10D01*
G01Y453977*
Y457834D02*
G03Y453977I394J-1928D01*
G01Y457834D02*
Y463426D01*
Y467283D02*
G03Y463426I394J-1929D01*
G01Y467283D02*
Y473417D01*
X558198Y473081D02*
G03X562795Y473417I1999J4281D01*
G01X557798Y473292D02*
G03X558198Y473081I-711J-1835D01*
G01X562795Y481308D02*
G03X557798Y473292I-2598J-3946D01*
G01X562795Y481308D02*
Y483278D01*
Y487195D02*
G03Y483278I197J-1959D01*
G01Y487195D02*
Y538396D01*
Y542313D02*
G03Y538396I197J-1959D01*
G01X555118Y424803D02*
G03X555118I-1968J0D01*
G01X558169Y436024D02*
G03X558169I-3051J0D01*
G01X548425Y436220D02*
G03X548425I-1968J0D01*
G01X543307Y427165D02*
G03X543307I-1968J0D01*
G01X544291Y436220D02*
G03X544291I-1968J0D01*
G01X535630Y408268D02*
G03X535630I-1969J0D01*
G01X538583Y417520D02*
G03X538583I-1969J0D01*
G01X540158Y436417D02*
G03X540158I-1969J0D01*
G01X529921Y407480D02*
G03X529921I-3346J0D01*
G01X531102Y417323D02*
G03X531102I-4527J0D01*
G01X529921Y427165D02*
G03X529921I-3346J0D01*
G01Y437008D02*
G03X529921I-3346J0D01*
G01X513189Y407480D02*
G03X513189I-3346J0D01*
G01X514370Y417323D02*
G03X514370I-4527J0D01*
G01X513189Y427165D02*
G03X513189I-3346J0D01*
G01X505315Y423819D02*
G03X505315I-1969J0D01*
G01X499016Y424016D02*
G03X499016I-1969J0D01*
G01X486028Y423622D02*
G03X483661Y425988I-1185J1181D01*
G01Y421256D02*
G03X486028Y423622I1182J1185D01*
G01X481295D02*
G03X483661Y421256I1185J-1181D01*
G01Y425988D02*
G03X481295Y423622I-1181J-1185D01*
G01X468513Y404528D02*
G03X466535Y406505I-9J1968D01*
G01Y402550D02*
G03X468513Y404528I1969J9D01*
G01X462598Y402550D02*
G03X466535I1969J9D01*
G01X460621Y404528D02*
G03X462598Y402550I9J-1969D01*
G01Y406505D02*
G03X460621Y404528I-1968J-9D01*
G01X466535Y406505D02*
G03X462598I-1968J-9D01*
G01X459646Y430906D02*
G03X459646I-1969J0D01*
G01X454134Y407480D02*
G03X454134I-3347J0D01*
G01X455315Y417323D02*
G03X455315I-4528J0D01*
G01X454134Y427165D02*
G03X454134I-3347J0D01*
G01X454724Y435039D02*
G03X454724I-1968J0D01*
G01X448819D02*
G03X448819I-1969J0D01*
G01X437402Y407480D02*
G03X437402I-3347J0D01*
G01Y417323D02*
G03X437402I-3347J0D01*
G01X438583Y427165D02*
G03X438583I-4528J0D01*
G01X437402Y437008D02*
G03X437402I-3347J0D01*
G01X426181Y405512D02*
G03X426181I-1968J0D01*
G01X425197Y419291D02*
G03X425197I-1969J0D01*
G01X427165Y430118D02*
G03X427165I-1968J0D01*
G01X429134Y436024D02*
G03X429134I-1969J0D01*
G01X412402Y424213D02*
G03X412402I-1969J0D01*
G01X416339Y430118D02*
G03X416339I-1969J0D01*
G01X542028Y451378D02*
G03X542028I-1674J0D01*
G01X540059Y458661D02*
G03X540059I-1673J0D01*
G01X536811Y462992D02*
G03X536811I-1968J0D01*
G01X541339Y484252D02*
G03X541339I-1969J0D01*
G01X540059Y490157D02*
G03X540059I-1673J0D01*
G01X531496Y449803D02*
G03X531496I-1968J0D01*
G01X532480Y462992D02*
G03X532480I-1968J0D01*
G01X534154Y472441D02*
G03X534154I-1674J0D01*
G01Y482283D02*
G03X534154I-1674J0D01*
G01Y487402D02*
G03X534154I-1674J0D01*
G01X521949Y458661D02*
G03X521949I-1673J0D01*
G01X506595Y448819D02*
G03X506595I-1674J0D01*
G01X469193Y470472D02*
G03X469193I-1673J0D01*
G01X558169Y451772D02*
G03X558169I-3051J0D01*
G01Y459646D02*
G03X558169I-3051J0D01*
G01X561496Y492795D02*
G03X561496I-3346J0D01*
G01Y502795D02*
G03X561496I-3346J0D01*
G01Y512795D02*
G03X561496I-3346J0D01*
G01Y522795D02*
G03X561496I-3346J0D01*
G01Y532795D02*
G03X561496I-3346J0D01*
G01X551181Y463583D02*
G03X551181I-1968J0D01*
G01X553740Y477362D02*
G03X553740I-3543J0D01*
G01X554134Y485236D02*
G03X554134I-1969J0D01*
G01X551496Y502795D02*
G03X551496I-3346J0D01*
G01Y512795D02*
G03X551496I-3346J0D01*
G01Y522795D02*
G03X551496I-3346J0D01*
G01Y532795D02*
G03X551496I-3346J0D01*
G01X538484Y537402D02*
G03X538484I-1673J0D01*
G01X519685Y517717D02*
G03X519685I-1968J0D01*
G01X521654Y537402D02*
G03X521654I-1969J0D01*
G01X511909Y478740D02*
G03X511909I-1673J0D01*
G01X512468Y513123D02*
G03X511154Y514436I327J1641D01*
G01X510499Y511154D02*
G03X512468Y513123I328J1641D01*
G01X508531Y509186D02*
G03X510499Y511154I327J1641D01*
G01X506562Y507217D02*
G03X508531Y509186I328J1641D01*
G01X505249Y508531D02*
G03X506562Y507217I-328J-1641D01*
G01X507217Y510499D02*
G03X505249Y508531I-327J-1641D01*
G01X509186Y512468D02*
G03X507217Y510499I-328J-1641D01*
G01X511154Y514436D02*
G03X509186Y512468I-327J-1641D01*
G01X513780Y531496D02*
G03X513780I-1969J0D01*
G01Y537402D02*
G03X513780I-1969J0D01*
G01X505709Y512402D02*
G03X505709I-1969J0D01*
G01X505906Y516732D02*
G03X505906I-1969J0D01*
G01Y537402D02*
G03X505906I-1969J0D01*
G01X500000Y500000D02*
G03X500000I-1969J0D01*
G01Y507874D02*
G03X500000I-1969J0D01*
G01Y515748D02*
G03X500000I-1969J0D01*
G01X494095Y492126D02*
G03X494095I-1969J0D01*
G01X492126Y500000D02*
G03X492126I-1969J0D01*
G01Y507874D02*
G03X492126I-1969J0D01*
G01Y515748D02*
G03X492126I-1969J0D01*
G01X494095Y531496D02*
G03X494095I-1969J0D01*
G01X497047Y537402D02*
G03X497047I-1968J0D01*
G01X456693Y454724D02*
G03X456693I-1969J0D01*
G01X480315Y484252D02*
G03X480315I-1969J0D01*
G01X484252Y500000D02*
G03X484252I-1969J0D01*
G01Y507874D02*
G03X484252I-1969J0D01*
G01Y515748D02*
G03X484252I-1969J0D01*
G01X488189Y537402D02*
G03X488189I-1969J0D01*
G01X479331Y503937D02*
G03X479331I-1969J0D01*
G01Y515748D02*
G03X479331I-1969J0D01*
G01X471457Y482283D02*
G03X471457I-1969J0D01*
G01X474409Y492126D02*
G03X474409I-1968J0D01*
G01X470472Y500000D02*
G03X470472I-1968J0D01*
G01X474409Y511811D02*
G03X474409I-1968J0D01*
G01X473753Y520997D02*
G03X475066Y522310I1641J-328D01*
X473753Y520997I-1641J328*
G01X479331Y537402D02*
G03X479331I-1969J0D01*
G01X470472Y515748D02*
G03X470472I-1968J0D01*
G01X474409Y531496D02*
G03X474409I-1968J0D01*
G01X469488Y537402D02*
G03X469488I-1968J0D01*
G01X454232D02*
G03X454232I-1673J0D01*
G01X457677Y546260D02*
G03X457677I-1968J0D01*
G01X454724Y551181D02*
G03X454724I-1968J0D01*
G01X447539Y486024D02*
G03X447539I-1673J0D01*
G01Y527362D02*
G03X447539I-1673J0D01*
G01Y549803D02*
G03X447539I-1673J0D01*
G01X441043Y479528D02*
G03X441043I-1673J0D01*
G01Y487205D02*
G03X441043I-1673J0D01*
G01X442913Y525591D02*
G03X442913I-1968J0D01*
G01X441929Y536417D02*
G03X441929I-1968J0D01*
G01X440256Y552165D02*
G03X440256I-1673J0D01*
G01X435039Y531496D02*
G03X435039I-1968J0D01*
G01X428445Y479331D02*
G03X428445I-1673J0D01*
G01Y487205D02*
G03X428445I-1673J0D01*
G01X429134Y526575D02*
G03X429134I-1969J0D01*
G01X426083Y544291D02*
G03X426083I-1674J0D01*
G01Y555118D02*
G03X426083I-1674J0D01*
G01X421260Y539370D02*
G03X421260I-1969J0D01*
G01X415846Y466142D02*
G03X415846I-1673J0D01*
G01X414665Y473081D02*
G03X414665I-3838J0D01*
G01X412402Y482283D02*
G03X412402I-1969J0D01*
G01X415827Y492795D02*
G03X415827I-3347J0D01*
G01Y502795D02*
G03X415827I-3347J0D01*
G01Y512795D02*
G03X415827I-3347J0D01*
G01Y522795D02*
G03X415827I-3347J0D01*
G01Y532795D02*
G03X415827I-3347J0D01*
G01X406791Y456102D02*
G03X406791I-1673J0D01*
G01Y462795D02*
G03X406791I-1673J0D01*
G01Y470669D02*
G03X406791I-1673J0D01*
G01X405827Y492795D02*
G03X405827I-3347J0D01*
G01Y502795D02*
G03X405827I-3347J0D01*
G01Y512795D02*
G03X405827I-3347J0D01*
G01Y522795D02*
G03X405827I-3347J0D01*
G01Y532795D02*
G03X405827I-3347J0D01*
G01X444587Y458661D02*
G03X444587I-1674J0D01*
G01Y462598D02*
G03X444587I-1674J0D01*
G01X437697Y451772D02*
G03X437697I-1673J0D01*
G01X440650Y458661D02*
G03X440650I-1674J0D01*
G01Y462598D02*
G03X440650I-1674J0D01*
G01X433760Y450787D02*
G03X433760I-1673J0D01*
G01X436713Y458661D02*
G03X436713I-1674J0D01*
G01Y462598D02*
G03X436713I-1674J0D01*
G01X428839Y450787D02*
G03X428839I-1674J0D01*
G01X416043Y448819D02*
G03X416043I-1673J0D01*
G01X414665Y453986D02*
G03X414665I-3838J0D01*
G01X419731Y457783D02*
G03X419835Y459343I1529J682D01*
G01X416831Y457874D02*
G03X419731Y457783I1476J787D01*
G01X414280Y459944D02*
G03X416831Y457874I1074J-1283D01*
G01X415247Y460331D02*
G03X414280Y459944I-1074J1283D01*
G01X416831Y459449D02*
G03X415247Y460331I-1477J-788D01*
G01X419835Y459343D02*
G03X416831Y459449I-1528J-682D01*
G01X556029Y438936D02*
X562795D01*
X556782Y438581D02*
X562795D01*
X557229Y438227D02*
X562795D01*
X557545Y437873D02*
X562795D01*
X557778Y437518D02*
X562795D01*
X557948Y437164D02*
X562795D01*
X558066Y436810D02*
X562795D01*
X558139Y436455D02*
X562795D01*
X558168Y436101D02*
X562795D01*
X558157Y435747D02*
X562795D01*
X558103Y435392D02*
X562795D01*
X558006Y435038D02*
X562795D01*
X557859Y434684D02*
X562795D01*
X557656Y434329D02*
X562795D01*
X557379Y433975D02*
X562795D01*
X556999Y433621D02*
X562795D01*
X556425Y433266D02*
X562795D01*
X398819Y432912D02*
X562795D01*
X458747Y432558D02*
X562795D01*
X542943Y428306D02*
X562795D01*
X543143Y427951D02*
X562795D01*
X543259Y427597D02*
X562795D01*
X543306Y427243D02*
X562795D01*
X543288Y426888D02*
X562795D01*
X554087Y426534D02*
X562795D01*
X554557Y426180D02*
X562795D01*
X554832Y425825D02*
X562795D01*
X555001Y425471D02*
X562795D01*
X555093Y425117D02*
X562795D01*
X555118Y424762D02*
X562795D01*
X555078Y424408D02*
X562795D01*
X554970Y424054D02*
X562795D01*
X554780Y423699D02*
X562795D01*
X554472Y423345D02*
X562795D01*
X553918Y422991D02*
X562795D01*
X504920Y422636D02*
X562795D01*
X504577Y422282D02*
X562795D01*
X503893Y421928D02*
X562795D01*
X528134Y421573D02*
X562795D01*
X553558Y421219D02*
X562795D01*
X560544Y416967D02*
X562795D01*
X560818Y416613D02*
X562795D01*
X561071Y416259D02*
X562795D01*
X561306Y415904D02*
X562795D01*
X561524Y415550D02*
X562795D01*
X561725Y415196D02*
X562795D01*
X561910Y414841D02*
X562795D01*
X562081Y414487D02*
X562795D01*
X562238Y414133D02*
X562795D01*
X562381Y413778D02*
X562795D01*
X562512Y413424D02*
X562795D01*
X562630Y413070D02*
X562795D01*
X562736Y412715D02*
X562795D01*
X547976Y439290D02*
X562767D01*
X548284Y439644D02*
X562665D01*
X548474Y439999D02*
X562471D01*
X459157Y432203D02*
X562240D01*
X548582Y440353D02*
X562139D01*
X560248Y417322D02*
X561940D01*
X554905Y420865D02*
X561934D01*
X542620Y428660D02*
X561729D01*
X459405Y431849D02*
X561562D01*
X559928Y417676D02*
X561431D01*
X555853Y420510D02*
X561428D01*
X548622Y440707D02*
X561401D01*
X542014Y429014D02*
X561318D01*
X459555Y431495D02*
X561219D01*
X559580Y418030D02*
X561139D01*
X556616Y420156D02*
X561138D01*
X529094Y429369D02*
X561069D01*
X459632Y431140D02*
X561008D01*
X559203Y418385D02*
X560959D01*
X557264Y419802D02*
X560958D01*
X528733Y429723D02*
X560918D01*
X459642Y430786D02*
X560884D01*
X558789Y418739D02*
X560859D01*
X557831Y419448D02*
X560859D01*
X528224Y430077D02*
X560841D01*
X527302Y430432D02*
X560830D01*
X558335Y419093D02*
X560827D01*
X547422Y438936D02*
X554207D01*
X453611Y433266D02*
X553811D01*
X529528Y438581D02*
X553454D01*
X454121Y433621D02*
X553238D01*
X538964Y438227D02*
X553007D01*
X527989Y433975D02*
X552857D01*
X547527Y437873D02*
X552691D01*
X547003Y434329D02*
X552581D01*
X547937Y437518D02*
X552458D01*
X505132Y422991D02*
X552381D01*
X547687Y434684D02*
X552377D01*
X548184Y437164D02*
X552288D01*
X548031Y435038D02*
X552230D01*
X543203Y426534D02*
X552212D01*
X548335Y436810D02*
X552170D01*
X548243Y435392D02*
X552133D01*
X548411Y436455D02*
X552098D01*
X548367Y435747D02*
X552079D01*
X548422Y436101D02*
X552068D01*
X505257Y423345D02*
X551827D01*
X543043Y426180D02*
X551742D01*
X505311Y423699D02*
X551520D01*
X542781Y425825D02*
X551467D01*
X527807Y424054D02*
X551329D01*
X542341Y425471D02*
X551298D01*
X528471Y424408D02*
X551221D01*
X529221Y425117D02*
X551206D01*
X528904Y424762D02*
X551182D01*
X528881Y421219D02*
X548804D01*
X529395Y420865D02*
X547458D01*
X542244Y398188D02*
X547013D01*
X529790Y420510D02*
X546509D01*
X542103Y398542D02*
X546158D01*
X542870Y434329D02*
X545910D01*
X539314Y438936D02*
X545885D01*
X530106Y420156D02*
X545746D01*
X541868Y398896D02*
X545451D01*
X543393Y437873D02*
X545387D01*
X539700Y439290D02*
X545331D01*
X543553Y434684D02*
X545226D01*
X530363Y419802D02*
X545098D01*
X539936Y439644D02*
X545024D01*
X543803Y437518D02*
X544977D01*
X543897Y435038D02*
X544883D01*
X541483Y399251D02*
X544842D01*
X540078Y439999D02*
X544833D01*
X544050Y437164D02*
X544729D01*
X540148Y440353D02*
X544725D01*
X540151Y440707D02*
X544685D01*
X544109Y435392D02*
X544671D01*
X544201Y436810D02*
X544578D01*
X544234Y435747D02*
X544546D01*
X537012Y419448D02*
X544532D01*
X544277Y436455D02*
X544502D01*
X544288Y436101D02*
X544492D01*
X540427Y399605D02*
X544304D01*
X537797Y419093D02*
X544027D01*
X416807Y399959D02*
X543823D01*
X538160Y418739D02*
X543573D01*
X417242Y400314D02*
X543388D01*
X538383Y418385D02*
X543160D01*
X469051Y400668D02*
X542990D01*
X538515Y418030D02*
X542782D01*
X469734Y401022D02*
X542626D01*
X538576Y417676D02*
X542434D01*
X470078Y401377D02*
X542291D01*
X538573Y417322D02*
X542114D01*
X470290Y401731D02*
X541982D01*
X538504Y416967D02*
X541818D01*
X528581Y434329D02*
X541776D01*
X470415Y402085D02*
X541696D01*
X538361Y416613D02*
X541544D01*
X470469Y402440D02*
X541431D01*
X538126Y416259D02*
X541291D01*
X539514Y437873D02*
X541253D01*
X470458Y402794D02*
X541186D01*
X539122Y434684D02*
X541093D01*
X537739Y415904D02*
X541056D01*
X470382Y403148D02*
X540959D01*
X539821Y437518D02*
X540843D01*
X530741Y415550D02*
X540839D01*
X539594Y435038D02*
X540749D01*
X470232Y403503D02*
X540749D01*
X529364Y429014D02*
X540663D01*
X530572Y415196D02*
X540638D01*
X540010Y437164D02*
X540595D01*
X469984Y403857D02*
X540555D01*
X539870Y435392D02*
X540537D01*
X530362Y414841D02*
X540452D01*
X540118Y436810D02*
X540445D01*
X540040Y435747D02*
X540412D01*
X527291Y404211D02*
X540376D01*
X540157Y436455D02*
X540368D01*
X540132Y436101D02*
X540358D01*
X529461Y425471D02*
X540336D01*
X531569Y399605D02*
X540282D01*
X530104Y414487D02*
X540281D01*
X528219Y404566D02*
X540211D01*
X529787Y414133D02*
X540124D01*
X528730Y404920D02*
X540060D01*
X529569Y428660D02*
X540058D01*
X529392Y413778D02*
X539981D01*
X529091Y405274D02*
X539922D01*
X529641Y425825D02*
X539896D01*
X528876Y413424D02*
X539850D01*
X529362Y405629D02*
X539797D01*
X529721Y428306D02*
X539734D01*
X528127Y413070D02*
X539732D01*
X529568Y405983D02*
X539684D01*
X529773Y426180D02*
X539635D01*
X421004Y412715D02*
X539626D01*
X534047Y406337D02*
X539583D01*
X529828Y427951D02*
X539534D01*
X421098Y412361D02*
X539532D01*
X534841Y406692D02*
X539494D01*
X529861Y426534D02*
X539474D01*
X421181Y412007D02*
X539449D01*
X529893Y427597D02*
X539418D01*
X535205Y407046D02*
X539416D01*
X529910Y426888D02*
X539390D01*
X421253Y411652D02*
X539377D01*
X529920Y427243D02*
X539372D01*
X535429Y407400D02*
X539349D01*
X421313Y411298D02*
X539316D01*
X535562Y407755D02*
X539293D01*
X421363Y410944D02*
X539267D01*
X535624Y408109D02*
X539248D01*
X527813Y410589D02*
X539227D01*
X532625Y399251D02*
X539226D01*
X535620Y408463D02*
X539214D01*
X533734Y410235D02*
X539199D01*
X535552Y408818D02*
X539190D01*
X534790Y409881D02*
X539181D01*
X535410Y409172D02*
X539176D01*
X535175Y409526D02*
X539173D01*
X533010Y398896D02*
X538841D01*
X533245Y398542D02*
X538606D01*
X533386Y398188D02*
X538464D01*
X529691Y438227D02*
X537414D01*
X528983Y434684D02*
X537256D01*
X529310Y438936D02*
X537064D01*
X529808Y437873D02*
X536863D01*
X529280Y435038D02*
X536784D01*
X529022Y439290D02*
X536677D01*
X529882Y437518D02*
X536557D01*
X529506Y435392D02*
X536508D01*
X528636Y439644D02*
X536442D01*
X529918Y437164D02*
X536368D01*
X529675Y435747D02*
X536338D01*
X528076Y439999D02*
X536300D01*
X529915Y436810D02*
X536260D01*
X529796Y436101D02*
X536246D01*
X526669Y440353D02*
X536230D01*
X515503Y440707D02*
X536227D01*
X529875Y436455D02*
X536221D01*
X530573Y419448D02*
X536216D01*
X530874Y415904D02*
X535489D01*
X530742Y419093D02*
X535431D01*
X530976Y416259D02*
X535103D01*
X530875Y418739D02*
X535069D01*
X531046Y416613D02*
X534867D01*
X530976Y418385D02*
X534846D01*
X531088Y416967D02*
X534725D01*
X531047Y418030D02*
X534713D01*
X531102Y417322D02*
X534656D01*
X531089Y417676D02*
X534652D01*
X528475Y410235D02*
X533589D01*
X529720Y406337D02*
X533276D01*
X528907Y409881D02*
X532533D01*
X529827Y406692D02*
X532482D01*
X529223Y409526D02*
X532148D01*
X529893Y407046D02*
X532118D01*
X529462Y409172D02*
X531913D01*
X529920Y407400D02*
X531894D01*
X529642Y408818D02*
X531771D01*
X529910Y407755D02*
X531761D01*
X529774Y408463D02*
X531703D01*
X529862Y408109D02*
X531699D01*
X523694Y399605D02*
X531424D01*
X524751Y399251D02*
X530367D01*
X525136Y398896D02*
X529982D01*
X525371Y398542D02*
X529747D01*
X525512Y398188D02*
X529606D01*
X515386Y440353D02*
X526480D01*
X510558Y404211D02*
X525859D01*
X510570Y430432D02*
X525847D01*
X511074Y424054D02*
X525343D01*
X511081Y410589D02*
X525336D01*
X454412Y433975D02*
X525160D01*
X515185Y439999D02*
X525073D01*
X511394Y413070D02*
X525023D01*
X511402Y421573D02*
X525016D01*
X511487Y404566D02*
X524931D01*
X511491Y430077D02*
X524926D01*
X511739Y424408D02*
X524678D01*
X511743Y410235D02*
X524675D01*
X454592Y434329D02*
X524569D01*
X514861Y439644D02*
X524514D01*
X511997Y404920D02*
X524420D01*
X512000Y429723D02*
X524417D01*
X512144Y413424D02*
X524273D01*
X512149Y421219D02*
X524269D01*
X512172Y424762D02*
X524246D01*
X512174Y409881D02*
X524243D01*
X454692Y434684D02*
X524167D01*
X514251Y439290D02*
X524127D01*
X512359Y405274D02*
X524058D01*
X512361Y429369D02*
X524056D01*
X512489Y425117D02*
X523929D01*
X512491Y409526D02*
X523927D01*
X454724Y435038D02*
X523869D01*
X436791Y438936D02*
X523839D01*
X512630Y405629D02*
X523787D01*
X512632Y429014D02*
X523786D01*
X512659Y413778D02*
X523758D01*
X512663Y420865D02*
X523755D01*
X512728Y425471D02*
X523689D01*
X512730Y409172D02*
X523687D01*
X454693Y435392D02*
X523644D01*
X437009Y438581D02*
X523621D01*
X512835Y405983D02*
X523582D01*
X512837Y428660D02*
X523581D01*
X517789Y399605D02*
X523550D01*
X512909Y425825D02*
X523508D01*
X512910Y408818D02*
X523507D01*
X454593Y435747D02*
X523475D01*
X437172Y438227D02*
X523458D01*
X512988Y406337D02*
X523430D01*
X512989Y428306D02*
X523429D01*
X513041Y426180D02*
X523377D01*
X513041Y408463D02*
X523376D01*
X513055Y414133D02*
X523362D01*
X513058Y420510D02*
X523360D01*
X454414Y436101D02*
X523354D01*
X437288Y437873D02*
X523342D01*
X513095Y406692D02*
X523323D01*
X513095Y427951D02*
X523322D01*
X513129Y426534D02*
X523288D01*
X513129Y408109D02*
X523288D01*
X454123Y436455D02*
X523274D01*
X437362Y437518D02*
X523267D01*
X513161Y407046D02*
X523257D01*
X513161Y427597D02*
X523256D01*
X513178Y426888D02*
X523240D01*
X513178Y407755D02*
X523240D01*
X453617Y436810D02*
X523234D01*
X437398Y437164D02*
X523232D01*
X513188Y407400D02*
X523229D01*
X513188Y427243D02*
X523229D01*
X513372Y414487D02*
X523045D01*
X513374Y420156D02*
X523043D01*
X513629Y414841D02*
X522788D01*
X513631Y419802D02*
X522786D01*
X513839Y415196D02*
X522578D01*
X513841Y419448D02*
X522577D01*
X518845Y399251D02*
X522493D01*
X514009Y415550D02*
X522409D01*
X514010Y419093D02*
X522408D01*
X514142Y415904D02*
X522275D01*
X514143Y418739D02*
X522274D01*
X514243Y416259D02*
X522174D01*
X514244Y418385D02*
X522173D01*
X519230Y398896D02*
X522108D01*
X514314Y416613D02*
X522103D01*
X514315Y418030D02*
X522103D01*
X514356Y416967D02*
X522061D01*
X514356Y417676D02*
X522061D01*
X514370Y417322D02*
X522047D01*
X519465Y398542D02*
X521873D01*
X519607Y398188D02*
X521732D01*
X512868Y399605D02*
X517644D01*
X513924Y399251D02*
X516588D01*
X514309Y398896D02*
X516203D01*
X514544Y398542D02*
X515968D01*
X514685Y398188D02*
X515826D01*
X503818Y439290D02*
X512915D01*
X502041Y399605D02*
X512723D01*
X504427Y439644D02*
X512305D01*
X504752Y439999D02*
X511980D01*
X504953Y440353D02*
X511779D01*
X503097Y399251D02*
X511667D01*
X505070Y440707D02*
X511663D01*
X503482Y398896D02*
X511282D01*
X503717Y398542D02*
X511047D01*
X503859Y398188D02*
X510905D01*
X469574Y404211D02*
X509127D01*
X459588Y430432D02*
X509115D01*
X505301Y424054D02*
X508611D01*
X452026Y410589D02*
X508604D01*
X452339Y413070D02*
X508291D01*
X486273Y421573D02*
X508283D01*
X468889Y404566D02*
X508198D01*
X459463Y430077D02*
X508194D01*
X505225Y424408D02*
X507946D01*
X452688Y410235D02*
X507942D01*
X469683Y404920D02*
X507688D01*
X459251Y429723D02*
X507685D01*
X453089Y413424D02*
X507541D01*
X485986Y421219D02*
X507537D01*
X505074Y424762D02*
X507513D01*
X453119Y409881D02*
X507511D01*
X470047Y405274D02*
X507326D01*
X458907Y429369D02*
X507324D01*
X504827Y425117D02*
X507196D01*
X453436Y409526D02*
X507194D01*
X470271Y405629D02*
X507055D01*
X458224Y429014D02*
X507053D01*
X453604Y413778D02*
X507026D01*
X485404Y420865D02*
X507022D01*
X504417Y425471D02*
X506957D01*
X453675Y409172D02*
X506955D01*
X470404Y405983D02*
X506850D01*
X453782Y428660D02*
X506848D01*
X497822Y425825D02*
X506776D01*
X453855Y408818D02*
X506775D01*
X470466Y406337D02*
X506697D01*
X453934Y428306D02*
X506696D01*
X485794Y426180D02*
X506644D01*
X468576Y408463D02*
X506644D01*
X454000Y414133D02*
X506630D01*
X454003Y420510D02*
X506627D01*
X470463Y406692D02*
X506590D01*
X454040Y427951D02*
X506590D01*
X454074Y426534D02*
X506556D01*
X469633Y408109D02*
X506556D01*
X470394Y407046D02*
X506524D01*
X454106Y427597D02*
X506524D01*
X454122Y426888D02*
X506508D01*
X470018Y407755D02*
X506507D01*
X470253Y407400D02*
X506497D01*
X454133Y427243D02*
X506497D01*
X454317Y414487D02*
X506313D01*
X454319Y420156D02*
X506311D01*
X454574Y414841D02*
X506056D01*
X454576Y419802D02*
X506054D01*
X454784Y415196D02*
X505846D01*
X454785Y419448D02*
X505844D01*
X454953Y415550D02*
X505677D01*
X454955Y419093D02*
X505675D01*
X455087Y415904D02*
X505543D01*
X455088Y418739D02*
X505542D01*
X455188Y416259D02*
X505442D01*
X455189Y418385D02*
X505441D01*
X455259Y416613D02*
X505371D01*
X455259Y418030D02*
X505371D01*
X455301Y416967D02*
X505329D01*
X455301Y417676D02*
X505329D01*
X455315Y417322D02*
X505315D01*
X486435Y421928D02*
X502800D01*
X461889Y439290D02*
X502482D01*
X498373Y425471D02*
X502276D01*
X497980Y422282D02*
X502116D01*
X484324Y399605D02*
X501896D01*
X462498Y439644D02*
X501872D01*
X498679Y425117D02*
X501866D01*
X498452Y422636D02*
X501773D01*
X498869Y424762D02*
X501619D01*
X498728Y422991D02*
X501561D01*
X462823Y439999D02*
X501547D01*
X498976Y424408D02*
X501468D01*
X498898Y423345D02*
X501436D01*
X499015Y424054D02*
X501392D01*
X498990Y423699D02*
X501382D01*
X463024Y440353D02*
X501346D01*
X463140Y440707D02*
X501230D01*
X485381Y399251D02*
X500840D01*
X485766Y398896D02*
X500455D01*
X486001Y398542D02*
X500220D01*
X486142Y398188D02*
X500078D01*
X486167Y425825D02*
X496273D01*
X486508Y422282D02*
X496115D01*
X486377Y425471D02*
X495722D01*
X486504Y422636D02*
X495643D01*
X486486Y425117D02*
X495415D01*
X486423Y422991D02*
X495367D01*
X486515Y424762D02*
X495226D01*
X486250Y423345D02*
X495196D01*
X486468Y424408D02*
X495118D01*
X486100Y423699D02*
X495104D01*
X486339Y424054D02*
X495079D01*
X483042Y420865D02*
X484281D01*
X468576Y399605D02*
X484180D01*
X483431Y426180D02*
X483891D01*
X483624Y421219D02*
X483699D01*
X469633Y399251D02*
X483123D01*
X470018Y398896D02*
X482738D01*
X470253Y398542D02*
X482503D01*
X470394Y398188D02*
X482362D01*
X453608Y420865D02*
X481919D01*
X453985Y426180D02*
X481529D01*
X453093Y421219D02*
X481337D01*
X436968Y423699D02*
X481223D01*
X453854Y425825D02*
X481156D01*
X436485Y423345D02*
X481072D01*
X452347Y421573D02*
X481049D01*
X452019Y424054D02*
X480984D01*
X453673Y425471D02*
X480946D01*
X435808Y422991D02*
X480900D01*
X398819Y421928D02*
X480888D01*
X452684Y424408D02*
X480854D01*
X453434Y425117D02*
X480837D01*
X411612Y422636D02*
X480819D01*
X410818Y422282D02*
X480815D01*
X453117Y424762D02*
X480808D01*
X464639Y408463D02*
X468431D01*
X464639Y399605D02*
X468431D01*
X465114Y400668D02*
X467957D01*
X465696Y408109D02*
X467375D01*
X465696Y399251D02*
X467375D01*
X465797Y401022D02*
X467274D01*
X466081Y407755D02*
X466990D01*
X466081Y398896D02*
X466990D01*
X466141Y401377D02*
X466930D01*
X466316Y407400D02*
X466755D01*
X466316Y398542D02*
X466755D01*
X466353Y401731D02*
X466718D01*
X466457Y407046D02*
X466614D01*
X466457Y398188D02*
X466614D01*
X466478Y402085D02*
X466593D01*
X466526Y406692D02*
X466545D01*
X466532Y402440D02*
X466539D01*
X460702Y408463D02*
X464494D01*
X460702Y399605D02*
X464494D01*
X461177Y400668D02*
X464020D01*
X461759Y408109D02*
X463438D01*
X461759Y399251D02*
X463438D01*
X461860Y401022D02*
X463337D01*
X462144Y407755D02*
X463053D01*
X462144Y398896D02*
X463053D01*
X462204Y401377D02*
X462993D01*
X462378Y407400D02*
X462818D01*
X462378Y398542D02*
X462818D01*
X462416Y401731D02*
X462781D01*
X462520Y407046D02*
X462677D01*
X462520Y398188D02*
X462677D01*
X462541Y402085D02*
X462656D01*
X462589Y406692D02*
X462608D01*
X462595Y402440D02*
X462602D01*
X453986Y408463D02*
X460557D01*
X447907Y399605D02*
X460557D01*
X453822Y439290D02*
X460552D01*
X452432Y404566D02*
X460245D01*
X417639Y400668D02*
X460083D01*
X454234Y439644D02*
X459943D01*
X454482Y439999D02*
X459618D01*
X451503Y404211D02*
X459560D01*
X454074Y408109D02*
X459501D01*
X448963Y399251D02*
X459501D01*
X452942Y404920D02*
X459451D01*
X454633Y440353D02*
X459417D01*
X418004Y401022D02*
X459400D01*
X454710Y440707D02*
X459300D01*
X425279Y403857D02*
X459150D01*
X454123Y407755D02*
X459116D01*
X449348Y398896D02*
X459116D01*
X453304Y405274D02*
X459086D01*
X418339Y401377D02*
X459056D01*
X419881Y403503D02*
X458902D01*
X454133Y407400D02*
X458881D01*
X449583Y398542D02*
X458881D01*
X453575Y405629D02*
X458863D01*
X418648Y401731D02*
X458844D01*
X419671Y403148D02*
X458752D01*
X454106Y407046D02*
X458740D01*
X449725Y398188D02*
X458740D01*
X453780Y405983D02*
X458729D01*
X418934Y402085D02*
X458719D01*
X419444Y402794D02*
X458675D01*
X454040Y406692D02*
X458671D01*
X453933Y406337D02*
X458668D01*
X419199Y402440D02*
X458665D01*
X453577Y429014D02*
X457130D01*
X398819Y432558D02*
X456607D01*
X453306Y429369D02*
X456447D01*
X398819Y432203D02*
X456197D01*
X452945Y429723D02*
X456103D01*
X426134Y431849D02*
X455950D01*
X452436Y430077D02*
X455891D01*
X435380Y431495D02*
X455799D01*
X451515Y430432D02*
X455766D01*
X436223Y431140D02*
X455723D01*
X436773Y430786D02*
X455712D01*
X447706Y433266D02*
X451901D01*
X447711Y436810D02*
X451895D01*
X447916Y439290D02*
X451690D01*
X448215Y433621D02*
X451391D01*
X448218Y436455D02*
X451388D01*
X448328Y439644D02*
X451278D01*
X448506Y433975D02*
X451100D01*
X448508Y436101D02*
X451098D01*
X448577Y439999D02*
X451030D01*
X448686Y434329D02*
X450920D01*
X448687Y435747D02*
X450919D01*
X448728Y440353D02*
X450878D01*
X448787Y434684D02*
X450820D01*
X448787Y435392D02*
X450819D01*
X448805Y440707D02*
X450802D01*
X448819Y435038D02*
X450787D01*
X434771Y404211D02*
X450072D01*
X437190Y430432D02*
X450060D01*
X437344Y424054D02*
X449556D01*
X435293Y410589D02*
X449549D01*
X420898Y413070D02*
X449235D01*
X398819Y421573D02*
X449228D01*
X435699Y404566D02*
X449143D01*
X437522Y430077D02*
X449139D01*
X437646Y424408D02*
X448891D01*
X435955Y410235D02*
X448887D01*
X436210Y404920D02*
X448633D01*
X437791Y429723D02*
X448629D01*
X420780Y413424D02*
X448486D01*
X423627Y421219D02*
X448481D01*
X437892Y424762D02*
X448458D01*
X436387Y409881D02*
X448456D01*
X436572Y405274D02*
X448271D01*
X438010Y429369D02*
X448269D01*
X438093Y425117D02*
X448141D01*
X436703Y409526D02*
X448139D01*
X436843Y405629D02*
X448000D01*
X438188Y429014D02*
X447998D01*
X420649Y413778D02*
X447971D01*
X424411Y420865D02*
X447967D01*
X438254Y425471D02*
X447901D01*
X436943Y409172D02*
X447900D01*
X437048Y405983D02*
X447795D01*
X438329Y428660D02*
X447793D01*
X431175Y399605D02*
X447762D01*
X438380Y425825D02*
X447721D01*
X437123Y408818D02*
X447720D01*
X437200Y406337D02*
X447642D01*
X438437Y428306D02*
X447641D01*
X438474Y426180D02*
X447589D01*
X437254Y408463D02*
X447589D01*
X435066Y414133D02*
X447575D01*
X435074Y420510D02*
X447572D01*
X437307Y406692D02*
X447535D01*
X438514Y427951D02*
X447535D01*
X438538Y426534D02*
X447501D01*
X437342Y408109D02*
X447500D01*
X437373Y407046D02*
X447469D01*
X438562Y427597D02*
X447469D01*
X438574Y426888D02*
X447452D01*
X437390Y407755D02*
X447452D01*
X437401Y407400D02*
X447442D01*
X438582Y427243D02*
X447442D01*
X435832Y414487D02*
X447258D01*
X435836Y420156D02*
X447256D01*
X436300Y414841D02*
X447001D01*
X436303Y419802D02*
X446999D01*
X436638Y415196D02*
X446791D01*
X436641Y419448D02*
X446789D01*
X432231Y399251D02*
X446706D01*
X436893Y415550D02*
X446621D01*
X436895Y419093D02*
X446620D01*
X437086Y415904D02*
X446488D01*
X437087Y418739D02*
X446487D01*
X437228Y416259D02*
X446387D01*
X437229Y418385D02*
X446386D01*
X432616Y398896D02*
X446321D01*
X437325Y416613D02*
X446316D01*
X437326Y418030D02*
X446315D01*
X437383Y416967D02*
X446274D01*
X437383Y417676D02*
X446274D01*
X437402Y417322D02*
X446260D01*
X432851Y398542D02*
X446086D01*
X398819Y433266D02*
X445995D01*
X437396Y436810D02*
X445990D01*
X432993Y398188D02*
X445944D01*
X436503Y439290D02*
X445784D01*
X398819Y433621D02*
X445486D01*
X437356Y436455D02*
X445483D01*
X436116Y439644D02*
X445373D01*
X435470Y433975D02*
X445194D01*
X437276Y436101D02*
X445193D01*
X435556Y439999D02*
X445124D01*
X436061Y434329D02*
X445014D01*
X437155Y435747D02*
X445013D01*
X434150Y440353D02*
X444973D01*
X436463Y434684D02*
X444914D01*
X436986Y435392D02*
X444914D01*
X425043Y440707D02*
X444896D01*
X436760Y435038D02*
X444882D01*
X425296Y440353D02*
X433961D01*
X425690Y404211D02*
X433339D01*
X420506Y414133D02*
X433045D01*
X424774Y420510D02*
X433036D01*
X421402Y410589D02*
X432817D01*
X426604Y431495D02*
X432730D01*
X398819Y433975D02*
X432641D01*
X425435Y439999D02*
X432554D01*
X425939Y404566D02*
X432411D01*
X411977Y422991D02*
X432302D01*
X420349Y414487D02*
X432279D01*
X424997Y420156D02*
X432274D01*
X421431Y410235D02*
X432155D01*
X428168Y434329D02*
X432049D01*
X425490Y439644D02*
X431994D01*
X426090Y404920D02*
X431900D01*
X426879Y431140D02*
X431888D01*
X420178Y414841D02*
X431810D01*
X425130Y419802D02*
X431807D01*
X421449Y409881D02*
X431723D01*
X428607Y434684D02*
X431647D01*
X412200Y423345D02*
X431625D01*
X425469Y439290D02*
X431608D01*
X426167Y405274D02*
X431539D01*
X419992Y415196D02*
X431472D01*
X425191Y419448D02*
X431470D01*
X421456Y409526D02*
X431407D01*
X428869Y435038D02*
X431350D01*
X427049Y430786D02*
X431337D01*
X425369Y438936D02*
X431320D01*
X426178Y405629D02*
X431268D01*
X419791Y415550D02*
X431217D01*
X425187Y419093D02*
X431215D01*
X421454Y409172D02*
X431168D01*
X412334Y423699D02*
X431142D01*
X429030Y435392D02*
X431124D01*
X425171Y438581D02*
X431102D01*
X426124Y405983D02*
X431062D01*
X418380Y399605D02*
X431030D01*
X419574Y415904D02*
X431024D01*
X425118Y418739D02*
X431023D01*
X421440Y408818D02*
X430987D01*
X429114Y435747D02*
X430955D01*
X424821Y438227D02*
X430939D01*
X427140Y430432D02*
X430920D01*
X426000Y406337D02*
X430910D01*
X419339Y416259D02*
X430882D01*
X424976Y418385D02*
X430882D01*
X421416Y408463D02*
X430856D01*
X429132Y436101D02*
X430834D01*
X427841Y437873D02*
X430822D01*
X425788Y406692D02*
X430803D01*
X419086Y416613D02*
X430785D01*
X424740Y418030D02*
X430784D01*
X421382Y408109D02*
X430768D01*
X412395Y424054D02*
X430766D01*
X429086Y436455D02*
X430755D01*
X428446Y437518D02*
X430748D01*
X425446Y407046D02*
X430737D01*
X418812Y416967D02*
X430728D01*
X424353Y417676D02*
X430727D01*
X421337Y407755D02*
X430720D01*
X428970Y436810D02*
X430715D01*
X428770Y437164D02*
X430712D01*
X424768Y407400D02*
X430710D01*
X418516Y417322D02*
X430709D01*
X427165Y430077D02*
X430588D01*
X412392Y424408D02*
X430464D01*
X427125Y429723D02*
X430319D01*
X412323Y424762D02*
X430218D01*
X427017Y429369D02*
X430100D01*
X412182Y425117D02*
X430017D01*
X419436Y399251D02*
X429974D01*
X426827Y429014D02*
X429922D01*
X411947Y425471D02*
X429856D01*
X426519Y428660D02*
X429781D01*
X411562Y425825D02*
X429730D01*
X425965Y428306D02*
X429674D01*
X410506Y426180D02*
X429636D01*
X398819Y427951D02*
X429596D01*
X419821Y398896D02*
X429589D01*
X398819Y426534D02*
X429572D01*
X398819Y427597D02*
X429548D01*
X398819Y426888D02*
X429536D01*
X398819Y427243D02*
X429528D01*
X420056Y398542D02*
X429354D01*
X420197Y398188D02*
X429212D01*
X398819Y437873D02*
X426490D01*
X398819Y434329D02*
X426163D01*
X398819Y437518D02*
X425884D01*
X398819Y434684D02*
X425723D01*
X398819Y437164D02*
X425561D01*
X398819Y435038D02*
X425461D01*
X398819Y436810D02*
X425361D01*
X398819Y435392D02*
X425301D01*
X398819Y436455D02*
X425245D01*
X398819Y435747D02*
X425216D01*
X398819Y436101D02*
X425198D01*
X415139Y428306D02*
X424428D01*
X415308Y431849D02*
X424259D01*
X415693Y428660D02*
X423874D01*
X415777Y431495D02*
X423790D01*
X421281Y407400D02*
X423657D01*
X416000Y429014D02*
X423567D01*
X416052Y431140D02*
X423515D01*
X416190Y429369D02*
X423377D01*
X416222Y430786D02*
X423345D01*
X416299Y429723D02*
X423268D01*
X416313Y430432D02*
X423253D01*
X416338Y430077D02*
X423229D01*
X420075Y403857D02*
X423147D01*
X421214Y407046D02*
X422979D01*
X411825Y421219D02*
X422830D01*
X398819Y438227D02*
X422817D01*
X420254Y404211D02*
X422735D01*
X421136Y406692D02*
X422637D01*
X415340Y440707D02*
X422594D01*
X420419Y404566D02*
X422486D01*
X398819Y438581D02*
X422467D01*
X421047Y406337D02*
X422426D01*
X415263Y440353D02*
X422342D01*
X420570Y404920D02*
X422335D01*
X420946Y405983D02*
X422301D01*
X398819Y438936D02*
X422269D01*
X420708Y405274D02*
X422258D01*
X420833Y405629D02*
X422248D01*
X415112Y439999D02*
X422202D01*
X414452Y439290D02*
X422169D01*
X414864Y439644D02*
X422147D01*
X418196Y417676D02*
X422103D01*
X413172Y420865D02*
X422045D01*
X417848Y418030D02*
X421717D01*
X414121Y420510D02*
X421683D01*
X417470Y418385D02*
X421481D01*
X414884Y420156D02*
X421460D01*
X417057Y418739D02*
X421339D01*
X415532Y419802D02*
X421327D01*
X416603Y419093D02*
X421270D01*
X416098Y419448D02*
X421266D01*
X416325Y399605D02*
X418235D01*
X415788Y399251D02*
X417178D01*
X415179Y398896D02*
X416793D01*
X414472Y398542D02*
X416559D01*
X413617Y398188D02*
X416417D01*
X398819Y428306D02*
X413602D01*
X398819Y431849D02*
X413433D01*
X398819Y428660D02*
X413047D01*
X398819Y431495D02*
X412963D01*
X398819Y429014D02*
X412740D01*
X398819Y431140D02*
X412688D01*
X398819Y429369D02*
X412550D01*
X398819Y430786D02*
X412518D01*
X398819Y429723D02*
X412442D01*
X398819Y430432D02*
X412427D01*
X398819Y430077D02*
X412402D01*
X398847Y439290D02*
X412320D01*
X398950Y439644D02*
X411908D01*
X399144Y439999D02*
X411660D01*
X399475Y440353D02*
X411508D01*
X400213Y440707D02*
X411432D01*
X398819Y426180D02*
X410361D01*
X398819Y422282D02*
X410048D01*
X398819Y425825D02*
X409304D01*
X398819Y422636D02*
X409254D01*
X398819Y425471D02*
X408919D01*
X398819Y422991D02*
X408890D01*
X398819Y425117D02*
X408684D01*
X398819Y423345D02*
X408666D01*
X398819Y424762D02*
X408543D01*
X398819Y423699D02*
X408533D01*
X398819Y424408D02*
X408474D01*
X398819Y424054D02*
X408471D01*
X398819Y421219D02*
X407072D01*
X398821Y420865D02*
X405725D01*
X399183Y420510D02*
X404777D01*
X399406Y420156D02*
X404014D01*
X399539Y419802D02*
X403366D01*
X399600Y419448D02*
X402799D01*
X399596Y419093D02*
X402295D01*
X399527Y418739D02*
X401841D01*
X399385Y418385D02*
X401427D01*
X399149Y418030D02*
X401049D01*
X398819Y417676D02*
X400702D01*
X398819Y417322D02*
X400382D01*
X398819Y416967D02*
X400086D01*
X398819Y416613D02*
X399812D01*
X398819Y416259D02*
X399559D01*
X398819Y415904D02*
X399324D01*
X398819Y415550D02*
X399106D01*
X398819Y415196D02*
X398905D01*
X516929Y495944D02*
X543110D01*
X516929Y495589D02*
X543110D01*
X516929Y495235D02*
X543110D01*
X516929Y494881D02*
X543110D01*
X516929Y494526D02*
X543110D01*
X516929Y494172D02*
X543110D01*
X516929Y493818D02*
X543110D01*
X516929Y493463D02*
X543110D01*
X516929Y493109D02*
X543110D01*
X516929Y492755D02*
X543110D01*
X516929Y492400D02*
X543110D01*
X516929Y492046D02*
X543110D01*
X539054Y491692D02*
X543110D01*
X539572Y491337D02*
X543110D01*
X539841Y490983D02*
X543110D01*
X539991Y490629D02*
X543110D01*
X540055Y490274D02*
X543110D01*
X540042Y489920D02*
X543110D01*
X539951Y489566D02*
X543110D01*
X539766Y489211D02*
X543110D01*
X539439Y488857D02*
X543110D01*
X538633Y488503D02*
X543110D01*
X533978Y488148D02*
X543110D01*
X534107Y487794D02*
X543110D01*
X534153Y487440D02*
X543110D01*
X534123Y487085D02*
X543110D01*
X534013Y486731D02*
X543110D01*
X533803Y486377D02*
X543110D01*
X540231Y486022D02*
X543110D01*
X540738Y485668D02*
X543110D01*
X541028Y485314D02*
X543110D01*
X541207Y484959D02*
X543110D01*
X541307Y484605D02*
X543110D01*
X541339Y484251D02*
X543110D01*
X541306Y483896D02*
X543110D01*
X541206Y483542D02*
X543110D01*
X541026Y483188D02*
X543110D01*
X540735Y482833D02*
X543110D01*
X540225Y482479D02*
X543110D01*
X534146Y482125D02*
X543110D01*
X541896Y481770D02*
X543110D01*
X542623Y481416D02*
X543110D01*
X543082Y473621D02*
X543110D01*
X542552Y473266D02*
X543110D01*
X541783Y472912D02*
X543110D01*
X534149Y472558D02*
X543110D01*
X534137Y472203D02*
X543110D01*
X534045Y471849D02*
X543110D01*
X533860Y471495D02*
X543110D01*
X516929Y467597D02*
X543110D01*
X516929Y467243D02*
X543110D01*
X516929Y466888D02*
X543110D01*
X516929Y466534D02*
X543110D01*
X516929Y466180D02*
X543110D01*
X516929Y465825D02*
X543110D01*
X516929Y465471D02*
X543110D01*
X516929Y465117D02*
X543110D01*
X535703Y464762D02*
X543110D01*
X536210Y464408D02*
X543110D01*
X536500Y464054D02*
X543110D01*
X536680Y463699D02*
X543110D01*
X536779Y463345D02*
X543110D01*
X536811Y462991D02*
X543110D01*
X536779Y462636D02*
X543110D01*
X536679Y462282D02*
X543110D01*
X536499Y461928D02*
X543110D01*
X536207Y461573D02*
X543110D01*
X535698Y461219D02*
X543110D01*
X516929Y460865D02*
X543110D01*
X516929Y460510D02*
X543110D01*
X539138Y460156D02*
X543110D01*
X539610Y459802D02*
X543110D01*
X539863Y459448D02*
X543110D01*
X540002Y459093D02*
X543110D01*
X540057Y458739D02*
X543110D01*
X540036Y458385D02*
X543110D01*
X539935Y458030D02*
X543110D01*
X539738Y457676D02*
X543110D01*
X539388Y457322D02*
X543110D01*
X516112Y456967D02*
X543110D01*
X515465Y456613D02*
X543110D01*
X480413Y456259D02*
X543110D01*
X479978Y455904D02*
X543110D01*
X479732Y455550D02*
X543110D01*
X479591Y455196D02*
X543110D01*
X479754Y454841D02*
X543110D01*
X479927Y454487D02*
X543110D01*
X480008Y454133D02*
X543110D01*
X480012Y453778D02*
X543110D01*
X479939Y453424D02*
X543110D01*
X479777Y453070D02*
X543110D01*
X541360Y452715D02*
X543110D01*
X541708Y452361D02*
X543110D01*
X541905Y452007D02*
X543110D01*
X542005Y451652D02*
X543110D01*
X542026Y451298D02*
X543110D01*
X541970Y450944D02*
X543110D01*
X541830Y450589D02*
X543110D01*
X541576Y450235D02*
X543110D01*
X541101Y449881D02*
X543110D01*
X531477Y449526D02*
X543110D01*
X531392Y449172D02*
X543110D01*
X531232Y448818D02*
X543110D01*
X516945Y496298D02*
X543095D01*
X530970Y448463D02*
X543074D01*
X517030Y496652D02*
X543009D01*
X530530Y448109D02*
X542962D01*
X533533Y471140D02*
X542846D01*
X517201Y497007D02*
X542838D01*
X524208Y447755D02*
X542755D01*
X517495Y497361D02*
X542544D01*
X516929Y467951D02*
X542448D01*
X538604Y447400D02*
X542400D01*
X532728Y470786D02*
X542054D01*
X518061Y497715D02*
X541978D01*
X516929Y468306D02*
X541926D01*
X516929Y470432D02*
X541728D01*
X516929Y468660D02*
X541656D01*
X516929Y470077D02*
X541544D01*
X516929Y469014D02*
X541505D01*
X516929Y469723D02*
X541454D01*
X516929Y469369D02*
X541441D01*
X531495Y449881D02*
X539608D01*
X479728Y452715D02*
X539349D01*
X531448Y450235D02*
X539132D01*
X479913Y452361D02*
X539000D01*
X531332Y450589D02*
X538879D01*
X480003Y452007D02*
X538804D01*
X531132Y450944D02*
X538738D01*
X530203Y451652D02*
X538704D01*
X530809Y451298D02*
X538683D01*
X534086Y472912D02*
X538610D01*
X534142Y482479D02*
X538515D01*
X533428Y486022D02*
X538509D01*
X534073Y481770D02*
X538497D01*
X533740Y488503D02*
X538138D01*
X534061Y482833D02*
X538005D01*
X516929Y485668D02*
X538003D01*
X533936Y473266D02*
X537842D01*
X533911Y481416D02*
X537771D01*
X516929Y491692D02*
X537718D01*
X533888Y483188D02*
X537714D01*
X516929Y485314D02*
X537712D01*
X521028Y460156D02*
X537634D01*
X533583Y483542D02*
X537534D01*
X516929Y484959D02*
X537533D01*
X532926Y483896D02*
X537434D01*
X517366Y484605D02*
X537433D01*
X517619Y484251D02*
X537402D01*
X521278Y457322D02*
X537384D01*
X533306Y488857D02*
X537333D01*
X533667Y473621D02*
X537312D01*
X533624Y481062D02*
X537258D01*
X516929Y491337D02*
X537199D01*
X521500Y459802D02*
X537161D01*
X521628Y457676D02*
X537034D01*
X516929Y489211D02*
X537006D01*
X516929Y490983D02*
X536930D01*
X521753Y459448D02*
X536909D01*
X533148Y473975D02*
X536903D01*
X533042Y480707D02*
X536861D01*
X521825Y458030D02*
X536836D01*
X516929Y489566D02*
X536821D01*
X516929Y490629D02*
X536780D01*
X521892Y459093D02*
X536769D01*
X521926Y458385D02*
X536736D01*
X516929Y489920D02*
X536730D01*
X516929Y490274D02*
X536717D01*
X521947Y458739D02*
X536714D01*
X523984Y447400D02*
X536593D01*
X516929Y474329D02*
X536574D01*
X516929Y480353D02*
X536540D01*
X516929Y474684D02*
X536305D01*
X516929Y479999D02*
X536276D01*
X516929Y475038D02*
X536084D01*
X516929Y479644D02*
X536060D01*
X516929Y475392D02*
X535903D01*
X516929Y479290D02*
X535884D01*
X516929Y475747D02*
X535757D01*
X516929Y478936D02*
X535742D01*
X516929Y476101D02*
X535644D01*
X516929Y478581D02*
X535632D01*
X516929Y476455D02*
X535560D01*
X516929Y478227D02*
X535552D01*
X516929Y476810D02*
X535505D01*
X516929Y477873D02*
X535500D01*
X516929Y477164D02*
X535477D01*
X516929Y477518D02*
X535475D01*
X531367Y461219D02*
X533987D01*
X531373Y464762D02*
X533982D01*
X531877Y461573D02*
X533478D01*
X531879Y464408D02*
X533475D01*
X532168Y461928D02*
X533187D01*
X532169Y464054D02*
X533185D01*
X532348Y462282D02*
X533006D01*
X532349Y463699D02*
X533005D01*
X532448Y462636D02*
X532906D01*
X532448Y463345D02*
X532906D01*
X532480Y462991D02*
X532874D01*
X516929Y470786D02*
X532233D01*
X517758Y483896D02*
X532035D01*
X516929Y480707D02*
X531919D01*
X516929Y473975D02*
X531812D01*
X516929Y488857D02*
X531655D01*
X516929Y486022D02*
X531533D01*
X516929Y471140D02*
X531428D01*
X517813Y483542D02*
X531378D01*
X516929Y481062D02*
X531337D01*
X516929Y473621D02*
X531294D01*
X516929Y488503D02*
X531220D01*
X516929Y486377D02*
X531158D01*
X516929Y471495D02*
X531100D01*
X517792Y483188D02*
X531072D01*
X516929Y481416D02*
X531049D01*
X516929Y473266D02*
X531025D01*
X516929Y488148D02*
X530983D01*
X516929Y486731D02*
X530947D01*
X516929Y471849D02*
X530915D01*
X517691Y482833D02*
X530900D01*
X516929Y481770D02*
X530888D01*
X516929Y472912D02*
X530875D01*
X516929Y487794D02*
X530854D01*
X516929Y487085D02*
X530837D01*
X516929Y472203D02*
X530824D01*
X517494Y482479D02*
X530819D01*
X517144Y482125D02*
X530815D01*
X516929Y472558D02*
X530811D01*
X516929Y487440D02*
X530807D01*
X516929Y461219D02*
X529656D01*
X516929Y464762D02*
X529651D01*
X516929Y461573D02*
X529147D01*
X516929Y464408D02*
X529144D01*
X516929Y461928D02*
X528856D01*
X516929Y464054D02*
X528854D01*
X480015Y451652D02*
X528852D01*
X516929Y462282D02*
X528676D01*
X516929Y463699D02*
X528675D01*
X516929Y462636D02*
X528576D01*
X516929Y463345D02*
X528575D01*
X516929Y462991D02*
X528543D01*
X524341Y448109D02*
X528525D01*
X479951Y451298D02*
X528247D01*
X524403Y448463D02*
X528085D01*
X479800Y450944D02*
X527923D01*
X524400Y448818D02*
X527824D01*
X522513Y450589D02*
X527723D01*
X524331Y449172D02*
X527663D01*
X523570Y450235D02*
X527607D01*
X524190Y449526D02*
X527579D01*
X523955Y449881D02*
X527561D01*
X479701Y450589D02*
X522369D01*
X505813Y450235D02*
X521312D01*
X506215Y449881D02*
X520927D01*
X505809Y447400D02*
X520897D01*
X506438Y449526D02*
X520692D01*
X506212Y447755D02*
X520674D01*
X506557Y449172D02*
X520551D01*
X506436Y448109D02*
X520540D01*
X506595Y448818D02*
X520482D01*
X506556Y448463D02*
X520479D01*
X516929Y460156D02*
X519524D01*
X516465Y457322D02*
X519273D01*
X516929Y459802D02*
X519051D01*
X516692Y457676D02*
X518923D01*
X516929Y459448D02*
X518798D01*
X516835Y458030D02*
X518726D01*
X516929Y459093D02*
X518659D01*
X516911Y458385D02*
X518625D01*
X516929Y458739D02*
X518604D01*
X499684Y447400D02*
X504034D01*
X479897Y450235D02*
X504030D01*
X489445Y447755D02*
X503630D01*
X479997Y449881D02*
X503628D01*
X489467Y448109D02*
X503406D01*
X488547Y449526D02*
X503405D01*
X489412Y448463D02*
X503286D01*
X489020Y449172D02*
X503286D01*
X489272Y448818D02*
X503248D01*
X489345Y447400D02*
X498348D01*
X480018Y449526D02*
X487043D01*
X479962Y449172D02*
X486571D01*
X479822Y448818D02*
X486318D01*
X484526Y447400D02*
X486246D01*
X479568Y448463D02*
X486179D01*
X479883Y447755D02*
X486145D01*
X479676Y448109D02*
X486124D01*
X480238Y447400D02*
X483190D01*
X473018Y473385D02*
X491929D01*
X472509Y473030D02*
X491929D01*
X441626Y472676D02*
X491929D01*
X441553Y472322D02*
X491929D01*
X468272Y471967D02*
X491929D01*
X468744Y471613D02*
X491929D01*
X468997Y471259D02*
X491929D01*
X469136Y470904D02*
X491929D01*
X469191Y470550D02*
X491929D01*
X469170Y470196D02*
X491929D01*
X469069Y469841D02*
X491929D01*
X468872Y469487D02*
X491929D01*
X468522Y469133D02*
X491929D01*
X455827Y468778D02*
X491929D01*
X456132Y468424D02*
X491929D01*
X456305Y468070D02*
X491929D01*
X456386Y467715D02*
X491929D01*
X456390Y467361D02*
X491929D01*
X456317Y467007D02*
X491929D01*
X477946Y466652D02*
X491929D01*
X478663Y466298D02*
X491929D01*
X479034Y465944D02*
X491929D01*
X479271Y465589D02*
X491929D01*
X479422Y465235D02*
X491929D01*
X479505Y464881D02*
X491929D01*
X479528Y464526D02*
X491929D01*
X479528Y464172D02*
X491929D01*
X479528Y463818D02*
X491929D01*
X479528Y463463D02*
X491929D01*
X479528Y463109D02*
X491929D01*
X479528Y462755D02*
X491929D01*
X479528Y462400D02*
X491929D01*
X479528Y462046D02*
X491929D01*
X479528Y461692D02*
X491929D01*
X479528Y461337D02*
X491929D01*
X479528Y460983D02*
X491929D01*
X479528Y460629D02*
X491929D01*
X473310Y473739D02*
X491901D01*
X479564Y460274D02*
X491893D01*
X473490Y474093D02*
X491798D01*
X479676Y459920D02*
X491781D01*
X473590Y474448D02*
X491604D01*
X479883Y459566D02*
X491574D01*
X473622Y474802D02*
X491273D01*
X480238Y459211D02*
X491219D01*
X473590Y475156D02*
X490535D01*
X441622Y473030D02*
X470798D01*
X442816Y473385D02*
X470289D01*
X443220Y473739D02*
X469998D01*
X443444Y474093D02*
X469818D01*
X443564Y474448D02*
X469717D01*
X443565Y475156D02*
X469717D01*
X443602Y474802D02*
X469685D01*
X441391Y471967D02*
X466768D01*
X455170Y469133D02*
X466517D01*
X441104Y471613D02*
X466295D01*
X423425Y469487D02*
X466167D01*
X440522Y471259D02*
X466043D01*
X423425Y469841D02*
X465970D01*
X423425Y470904D02*
X465903D01*
X423425Y470196D02*
X465870D01*
X423425Y470550D02*
X465848D01*
X423425Y469133D02*
X454279D01*
X423425Y468778D02*
X453622D01*
X423427Y468424D02*
X453317D01*
X443581Y468070D02*
X453144D01*
X444519Y467007D02*
X453132D01*
X444100Y467715D02*
X453063D01*
X444369Y467361D02*
X453059D01*
X439644Y468070D02*
X442245D01*
X440163Y467715D02*
X441727D01*
X440432Y467361D02*
X441458D01*
X440582Y467007D02*
X441308D01*
X424819Y475156D02*
X440294D01*
X424082Y474802D02*
X440256D01*
X423750Y474448D02*
X439515D01*
X423425Y471259D02*
X439399D01*
X423556Y474093D02*
X438858D01*
X423425Y471613D02*
X438817D01*
X423453Y473739D02*
X438553D01*
X423425Y471967D02*
X438530D01*
X423425Y473385D02*
X438380D01*
X423425Y472322D02*
X438368D01*
X435707Y468070D02*
X438308D01*
X423425Y473030D02*
X438299D01*
X423425Y472676D02*
X438295D01*
X436226Y467715D02*
X437790D01*
X436495Y467361D02*
X437521D01*
X436645Y467007D02*
X437371D01*
X423479Y468070D02*
X434371D01*
X423610Y467715D02*
X433853D01*
X423843Y467361D02*
X433584D01*
X428385Y467007D02*
X433434D01*
X424250D02*
X426733D01*
X562768Y548030D02*
X562795D01*
X562666Y547676D02*
X562795D01*
X562552Y547322D02*
X562795D01*
X562425Y546967D02*
X562795D01*
X562286Y546613D02*
X562795D01*
X562134Y546259D02*
X562795D01*
X561967Y545904D02*
X562795D01*
X561787Y545550D02*
X562795D01*
X561591Y545196D02*
X562795D01*
X561379Y544841D02*
X562795D01*
X561150Y544487D02*
X562795D01*
X560903Y544133D02*
X562795D01*
X560636Y543778D02*
X562795D01*
X560347Y543424D02*
X562795D01*
X560035Y543070D02*
X562795D01*
X559697Y542715D02*
X562795D01*
X559329Y542361D02*
X562795D01*
X538327Y538109D02*
X562795D01*
X538447Y537755D02*
X562795D01*
X538484Y537400D02*
X562795D01*
X538446Y537046D02*
X562795D01*
X538326Y536692D02*
X562795D01*
X538102Y536337D02*
X562795D01*
X559168Y535983D02*
X562795D01*
X559930Y535629D02*
X562795D01*
X560398Y535274D02*
X562795D01*
X560735Y534920D02*
X562795D01*
X560989Y534566D02*
X562795D01*
X561182Y534211D02*
X562795D01*
X561323Y533857D02*
X562795D01*
X561420Y533503D02*
X562795D01*
X561477Y533148D02*
X562795D01*
X561496Y532794D02*
X562795D01*
X561477Y532440D02*
X562795D01*
X561420Y532085D02*
X562795D01*
X561322Y531731D02*
X562795D01*
X561181Y531377D02*
X562795D01*
X560988Y531022D02*
X562795D01*
X560733Y530668D02*
X562795D01*
X560395Y530314D02*
X562795D01*
X559926Y529959D02*
X562795D01*
X559160Y529605D02*
X562795D01*
X397835Y529251D02*
X562795D01*
X446534Y528896D02*
X562795D01*
X447053Y528542D02*
X562795D01*
X447322Y528188D02*
X562795D01*
X447472Y527833D02*
X562795D01*
X447535Y527479D02*
X562795D01*
X447522Y527125D02*
X562795D01*
X447431Y526770D02*
X562795D01*
X447246Y526416D02*
X562795D01*
X558877Y526062D02*
X562795D01*
X559798Y525707D02*
X562795D01*
X560308Y525353D02*
X562795D01*
X560668Y524999D02*
X562795D01*
X560939Y524644D02*
X562795D01*
X561144Y524290D02*
X562795D01*
X561296Y523936D02*
X562795D01*
X561402Y523581D02*
X562795D01*
X561468Y523227D02*
X562795D01*
X561495Y522873D02*
X562795D01*
X561485Y522518D02*
X562795D01*
X561436Y522164D02*
X562795D01*
X561348Y521810D02*
X562795D01*
X561216Y521455D02*
X562795D01*
X561036Y521101D02*
X562795D01*
X560796Y520747D02*
X562795D01*
X560479Y520392D02*
X562795D01*
X560046Y520038D02*
X562795D01*
X559381Y519684D02*
X562795D01*
X518845Y519329D02*
X562795D01*
X519230Y518975D02*
X562795D01*
X519465Y518621D02*
X562795D01*
X519607Y518266D02*
X562795D01*
X519675Y517912D02*
X562795D01*
X519679Y517558D02*
X562795D01*
X519617Y517203D02*
X562795D01*
X519484Y516849D02*
X562795D01*
X519260Y516495D02*
X562795D01*
X558244Y516140D02*
X562795D01*
X559651Y515786D02*
X562795D01*
X560211Y515432D02*
X562795D01*
X560597Y515077D02*
X562795D01*
X560885Y514723D02*
X562795D01*
X561103Y514369D02*
X562795D01*
X561266Y514014D02*
X562795D01*
X561382Y513660D02*
X562795D01*
X561457Y513306D02*
X562795D01*
X561492Y512951D02*
X562795D01*
X561490Y512597D02*
X562795D01*
X561450Y512243D02*
X562795D01*
X561371Y511888D02*
X562795D01*
X561249Y511534D02*
X562795D01*
X561080Y511180D02*
X562795D01*
X560855Y510825D02*
X562795D01*
X560557Y510471D02*
X562795D01*
X560156Y510117D02*
X562795D01*
X559564Y509762D02*
X562795D01*
X509746Y509408D02*
X562795D01*
X508552Y509054D02*
X562795D01*
X508555Y508699D02*
X562795D01*
X508482Y508345D02*
X562795D01*
X508321Y507991D02*
X562795D01*
X508033Y507636D02*
X562795D01*
X507452Y507282D02*
X562795D01*
X506594Y506928D02*
X562795D01*
X506564Y506573D02*
X562795D01*
X506454Y506219D02*
X562795D01*
X559483Y505865D02*
X562795D01*
X560106Y505510D02*
X562795D01*
X560521Y505156D02*
X562795D01*
X560828Y504802D02*
X562795D01*
X561060Y504448D02*
X562795D01*
X561234Y504093D02*
X562795D01*
X561360Y503739D02*
X562795D01*
X561444Y503385D02*
X562795D01*
X561488Y503030D02*
X562795D01*
X561494Y502676D02*
X562795D01*
X561462Y502322D02*
X562795D01*
X561392Y501967D02*
X562795D01*
X561280Y501613D02*
X562795D01*
X561122Y501259D02*
X562795D01*
X560911Y500904D02*
X562795D01*
X560631Y500550D02*
X562795D01*
X560257Y500196D02*
X562795D01*
X559722Y499841D02*
X562795D01*
X558653Y499487D02*
X562795D01*
X546156Y499133D02*
X562795D01*
X546324Y498778D02*
X562795D01*
X546421Y498424D02*
X562795D01*
X546456Y498070D02*
X562795D01*
X546457Y497715D02*
X562795D01*
X546457Y497361D02*
X562795D01*
X546457Y497007D02*
X562795D01*
X546457Y496652D02*
X562795D01*
X546457Y496298D02*
X562795D01*
X559284Y495944D02*
X562795D01*
X559992Y495589D02*
X562795D01*
X560440Y495235D02*
X562795D01*
X560767Y494881D02*
X562795D01*
X561014Y494526D02*
X562795D01*
X561200Y494172D02*
X562795D01*
X561336Y493818D02*
X562795D01*
X561429Y493463D02*
X562795D01*
X561481Y493109D02*
X562795D01*
X561496Y492755D02*
X562795D01*
X561473Y492400D02*
X562795D01*
X561411Y492046D02*
X562795D01*
X561309Y491692D02*
X562795D01*
X561162Y491337D02*
X562795D01*
X560963Y490983D02*
X562795D01*
X560700Y490629D02*
X562795D01*
X560350Y490274D02*
X562795D01*
X559862Y489920D02*
X562795D01*
X559026Y489566D02*
X562795D01*
X546457Y489211D02*
X562795D01*
X546457Y488857D02*
X562795D01*
X546457Y488503D02*
X562795D01*
X546457Y488148D02*
X562795D01*
X546457Y487794D02*
X562795D01*
X546457Y487440D02*
X562795D01*
X546457Y483188D02*
X562795D01*
X546457Y482833D02*
X562795D01*
X546457Y482479D02*
X562795D01*
X546457Y482125D02*
X562795D01*
X561896Y481770D02*
X562795D01*
X562623Y481416D02*
X562795D01*
X562552Y473266D02*
X562795D01*
X561783Y472912D02*
X562795D01*
X558718Y472558D02*
X562795D01*
X558908Y472203D02*
X562795D01*
X559016Y471849D02*
X562795D01*
X559055Y471495D02*
X562795D01*
X559030Y471140D02*
X562795D01*
X558937Y470786D02*
X562795D01*
X558767Y470432D02*
X562795D01*
X558491Y470077D02*
X562795D01*
X558019Y469723D02*
X562795D01*
X546457Y469369D02*
X562795D01*
X546457Y469014D02*
X562795D01*
X546457Y468660D02*
X562795D01*
X546457Y468306D02*
X562795D01*
X546457Y467951D02*
X562795D01*
X546457Y467597D02*
X562795D01*
X551167Y463345D02*
X562795D01*
X551090Y462991D02*
X562795D01*
X555722Y462636D02*
X562795D01*
X556654Y462282D02*
X562795D01*
X557143Y461928D02*
X562795D01*
X557483Y461573D02*
X562795D01*
X557732Y461219D02*
X562795D01*
X557915Y460865D02*
X562795D01*
X558044Y460510D02*
X562795D01*
X558126Y460156D02*
X562795D01*
X558165Y459802D02*
X562795D01*
X558163Y459448D02*
X562795D01*
X558119Y459093D02*
X562795D01*
X558031Y458739D02*
X562795D01*
X557896Y458385D02*
X562795D01*
X557707Y458030D02*
X562795D01*
X557417Y453778D02*
X562795D01*
X557683Y453424D02*
X562795D01*
X557880Y453070D02*
X562795D01*
X558020Y452715D02*
X562795D01*
X558112Y452361D02*
X562795D01*
X558160Y452007D02*
X562795D01*
X558167Y451652D02*
X562795D01*
X558132Y451298D02*
X562795D01*
X558055Y450944D02*
X562795D01*
X557931Y450589D02*
X562795D01*
X557754Y450235D02*
X562795D01*
X557513Y449881D02*
X562795D01*
X557184Y449526D02*
X562795D01*
X556715Y449172D02*
X562795D01*
X555882Y448818D02*
X562795D01*
X546457Y467243D02*
X562633D01*
X538104Y538463D02*
X562445D01*
X557051Y454133D02*
X562334D01*
X557448Y457676D02*
X562328D01*
X552841Y487085D02*
X562317D01*
X551178Y463699D02*
X562123D01*
X553168Y483542D02*
X561990D01*
X546457Y466888D02*
X561955D01*
X558928Y542007D02*
X561922D01*
X546493Y448463D02*
X561864D01*
X556510Y454487D02*
X561824D01*
X557095Y457322D02*
X561821D01*
X537702Y538818D02*
X561762D01*
X551124Y464054D02*
X561711D01*
X553446Y486731D02*
X561711D01*
X546457Y466534D02*
X561613D01*
X553607Y483896D02*
X561550D01*
X546457Y454841D02*
X561533D01*
X556579Y456967D02*
X561531D01*
X558488Y541652D02*
X561512D01*
X546605Y448109D02*
X561478D01*
X551000Y464408D02*
X561463D01*
X520546Y539172D02*
X561418D01*
X546457Y466180D02*
X561402D01*
X553770Y486377D02*
X561388D01*
X546457Y455196D02*
X561353D01*
X555453Y456613D02*
X561352D01*
X550788Y464762D02*
X561312D01*
X553869Y484251D02*
X561288D01*
X546457Y465825D02*
X561278D01*
X558001Y541298D02*
X561264D01*
X546457Y455550D02*
X561253D01*
X546457Y456259D02*
X561252D01*
X546812Y447755D02*
X561244D01*
X550446Y465117D02*
X561235D01*
X549768Y465471D02*
X561224D01*
X546457Y455904D02*
X561220D01*
X554071Y539526D02*
X561206D01*
X553970Y486022D02*
X561187D01*
X554030Y484605D02*
X561128D01*
X557457Y540944D02*
X561114D01*
X549628Y447400D02*
X561102D01*
X555242Y539881D02*
X561081D01*
X554086Y485668D02*
X561072D01*
X554114Y484959D02*
X561043D01*
X556838Y540589D02*
X561038D01*
X556118Y540235D02*
X561027D01*
X554132Y485314D02*
X561025D01*
X558412Y472912D02*
X558610D01*
X546457Y481770D02*
X558497D01*
X548244Y516140D02*
X558055D01*
X546457Y481416D02*
X557771D01*
X548653Y499487D02*
X557646D01*
X548877Y526062D02*
X557422D01*
X546457Y473621D02*
X557312D01*
X549026Y489566D02*
X557273D01*
X546457Y481062D02*
X557258D01*
X549160Y529605D02*
X557139D01*
X549168Y535983D02*
X557131D01*
X549284Y495944D02*
X557015D01*
X549381Y519684D02*
X556918D01*
X551237Y473975D02*
X556903D01*
X551365Y480707D02*
X556861D01*
X549483Y505865D02*
X556817D01*
X549564Y509762D02*
X556735D01*
X549651Y515786D02*
X556648D01*
X549722Y499841D02*
X556577D01*
X552029Y474329D02*
X556574D01*
X552097Y480353D02*
X556540D01*
X549798Y525707D02*
X556501D01*
X549862Y489920D02*
X556437D01*
X549926Y529959D02*
X556373D01*
X549930Y535629D02*
X556369D01*
X546457Y473266D02*
X556312D01*
X549992Y495589D02*
X556308D01*
X552517Y474684D02*
X556305D01*
X552564Y479999D02*
X556276D01*
X550046Y520038D02*
X556253D01*
X550106Y505510D02*
X556193D01*
X546457Y469723D02*
X556154D01*
X550156Y510117D02*
X556143D01*
X550211Y515432D02*
X556089D01*
X552871Y475038D02*
X556084D01*
X552907Y479644D02*
X556060D01*
X550257Y500196D02*
X556042D01*
X550308Y525353D02*
X555992D01*
X550350Y490274D02*
X555949D01*
X550395Y530314D02*
X555905D01*
X553142Y475392D02*
X555903D01*
X550398Y535274D02*
X555902D01*
X553170Y479290D02*
X555884D01*
X550440Y495235D02*
X555859D01*
X550479Y520392D02*
X555820D01*
X550521Y505156D02*
X555778D01*
X546457Y472912D02*
X555761D01*
X553350Y475747D02*
X555757D01*
X553372Y478936D02*
X555742D01*
X550557Y510471D02*
X555742D01*
X550597Y515077D02*
X555702D01*
X546457Y470077D02*
X555682D01*
X550631Y500550D02*
X555668D01*
X553508Y476101D02*
X555644D01*
X553524Y478581D02*
X555632D01*
X550668Y524999D02*
X555631D01*
X550700Y490629D02*
X555599D01*
X550733Y530668D02*
X555566D01*
X550735Y534920D02*
X555564D01*
X553622Y476455D02*
X555560D01*
X553633Y478227D02*
X555552D01*
X550767Y494881D02*
X555532D01*
X553697Y476810D02*
X555505D01*
X550796Y520747D02*
X555503D01*
X553703Y477873D02*
X555500D01*
X553735Y477164D02*
X555477D01*
X553737Y477518D02*
X555475D01*
X550828Y504802D02*
X555471D01*
X546457Y472558D02*
X555455D01*
X550855Y510825D02*
X555444D01*
X550885Y514723D02*
X555414D01*
X546457Y470432D02*
X555406D01*
X550911Y500904D02*
X555389D01*
X550939Y524644D02*
X555360D01*
X550963Y490983D02*
X555336D01*
X550988Y531022D02*
X555311D01*
X550989Y534566D02*
X555310D01*
X551014Y494526D02*
X555286D01*
X546457Y472203D02*
X555265D01*
X551036Y521101D02*
X555264D01*
X551060Y504448D02*
X555239D01*
X546457Y470786D02*
X555236D01*
X551080Y511180D02*
X555219D01*
X551103Y514369D02*
X555196D01*
X551122Y501259D02*
X555177D01*
X546457Y471849D02*
X555158D01*
X551144Y524290D02*
X555156D01*
X546457Y471140D02*
X555144D01*
X551162Y491337D02*
X555137D01*
X551181Y531377D02*
X555119D01*
X546457Y471495D02*
X555118D01*
X551182Y534211D02*
X555117D01*
X551200Y494172D02*
X555099D01*
X551216Y521455D02*
X555083D01*
X551234Y504093D02*
X555065D01*
X551249Y511534D02*
X555050D01*
X551266Y514014D02*
X555033D01*
X551280Y501613D02*
X555019D01*
X551296Y523936D02*
X555003D01*
X551309Y491692D02*
X554990D01*
X551322Y531731D02*
X554977D01*
X551323Y533857D02*
X554976D01*
X551336Y493818D02*
X554963D01*
X551348Y521810D02*
X554952D01*
X551360Y503739D02*
X554939D01*
X551371Y511888D02*
X554928D01*
X551382Y513660D02*
X554917D01*
X551392Y501967D02*
X554907D01*
X551402Y523581D02*
X554897D01*
X551411Y492046D02*
X554888D01*
X551420Y532085D02*
X554879D01*
X551420Y533503D02*
X554879D01*
X551429Y493463D02*
X554870D01*
X551436Y522164D02*
X554863D01*
X551444Y503385D02*
X554855D01*
X551450Y512243D02*
X554849D01*
X551457Y513306D02*
X554842D01*
X551462Y502322D02*
X554837D01*
X551468Y523227D02*
X554831D01*
X551473Y492400D02*
X554827D01*
X551477Y532440D02*
X554822D01*
X551477Y533148D02*
X554822D01*
X551481Y493109D02*
X554818D01*
X551485Y522518D02*
X554815D01*
X551488Y503030D02*
X554811D01*
X551490Y512597D02*
X554809D01*
X551492Y512951D02*
X554807D01*
X551494Y502676D02*
X554805D01*
X551495Y522873D02*
X554804D01*
X551496Y492755D02*
X554803D01*
X551496Y532794D02*
X554803D01*
X546457Y456613D02*
X554784D01*
X550939Y462636D02*
X554514D01*
X546457Y448818D02*
X554354D01*
X546457Y454487D02*
X553726D01*
X546457Y456967D02*
X553657D01*
X550690Y462282D02*
X553582D01*
X546457Y449172D02*
X553521D01*
X546457Y454133D02*
X553185D01*
X546457Y457322D02*
X553141D01*
X550279Y461928D02*
X553093D01*
X546457Y449526D02*
X553052D01*
X546457Y453778D02*
X552820D01*
X546457Y457676D02*
X552788D01*
X546457Y461573D02*
X552753D01*
X546457Y449881D02*
X552724D01*
X546457Y453424D02*
X552553D01*
X546457Y458030D02*
X552530D01*
X546457Y461219D02*
X552504D01*
X546457Y450235D02*
X552482D01*
X546457Y453070D02*
X552357D01*
X546457Y458385D02*
X552340D01*
X546457Y460865D02*
X552321D01*
X546457Y450589D02*
X552305D01*
X546457Y452715D02*
X552216D01*
X546457Y458739D02*
X552205D01*
X546457Y460510D02*
X552192D01*
X546457Y450944D02*
X552181D01*
X546457Y452361D02*
X552124D01*
X546457Y459093D02*
X552117D01*
X546457Y460156D02*
X552110D01*
X546457Y451298D02*
X552104D01*
X546457Y452007D02*
X552076D01*
X546457Y459448D02*
X552073D01*
X546457Y459802D02*
X552071D01*
X546457Y451652D02*
X552069D01*
X546457Y487085D02*
X551490D01*
X546457Y483542D02*
X551163D01*
X546457Y486731D02*
X550884D01*
X546457Y483896D02*
X550723D01*
X546457Y486377D02*
X550561D01*
X546457Y484251D02*
X550461D01*
X546457Y486022D02*
X550361D01*
X546457Y484605D02*
X550301D01*
X546457Y485668D02*
X550245D01*
X546457Y484959D02*
X550216D01*
X546457Y485314D02*
X550198D01*
X546457Y473975D02*
X549156D01*
X546457Y480707D02*
X549028D01*
X546457Y465471D02*
X548657D01*
X546457Y474329D02*
X548365D01*
X546457Y480353D02*
X548297D01*
X421254Y539526D02*
X548291D01*
X546457Y461928D02*
X548147D01*
X518896Y516140D02*
X548055D01*
X546457Y465117D02*
X547979D01*
X546457Y474684D02*
X547877D01*
X546457Y479999D02*
X547830D01*
X546457Y462282D02*
X547735D01*
X545895Y499487D02*
X547646D01*
X546457Y464762D02*
X547637D01*
X547167Y447400D02*
X547616D01*
X546457Y475038D02*
X547522D01*
X546457Y462636D02*
X547486D01*
X546457Y479644D02*
X547486D01*
X546457Y464408D02*
X547426D01*
X446919Y526062D02*
X547422D01*
X543259Y562558D02*
X547339D01*
X546457Y462991D02*
X547335D01*
X546457Y464054D02*
X547301D01*
X546457Y489566D02*
X547273D01*
X546457Y463345D02*
X547258D01*
X546457Y475392D02*
X547252D01*
X546457Y463699D02*
X547248D01*
X546457Y479290D02*
X547224D01*
X512358Y529605D02*
X547139D01*
X537698Y535983D02*
X547131D01*
X529724Y539881D02*
X547121D01*
X546457Y475747D02*
X547043D01*
X546457Y478936D02*
X547022D01*
X546457Y495944D02*
X547015D01*
X517789Y519684D02*
X546918D01*
X546457Y476101D02*
X546886D01*
X546457Y478581D02*
X546870D01*
X506244Y505865D02*
X546817D01*
X546457Y476455D02*
X546772D01*
X546457Y478227D02*
X546761D01*
X510149Y509762D02*
X546735D01*
X546457Y476810D02*
X546697D01*
X546457Y477873D02*
X546690D01*
X546457Y477164D02*
X546659D01*
X546457Y477518D02*
X546657D01*
X518102Y515786D02*
X546648D01*
X545480Y499841D02*
X546577D01*
X446114Y525707D02*
X546501D01*
X543142Y562203D02*
X546417D01*
X513041Y529959D02*
X546373D01*
X520540Y535629D02*
X546369D01*
X476943Y520038D02*
X546253D01*
X529724Y540235D02*
X546244D01*
X505869Y505510D02*
X546193D01*
X510373Y510117D02*
X546143D01*
X514329Y515432D02*
X546089D01*
X544367Y500196D02*
X546042D01*
X442899Y525353D02*
X545992D01*
X513385Y530314D02*
X545905D01*
X441563Y535274D02*
X545902D01*
X477044Y520392D02*
X545820D01*
X478908Y505156D02*
X545778D01*
X510493Y510471D02*
X545742D01*
X514439Y515077D02*
X545702D01*
X542941Y561849D02*
X545669D01*
X521498Y500550D02*
X545668D01*
X442822Y524999D02*
X545631D01*
X513597Y530668D02*
X545566D01*
X441239Y534920D02*
X545564D01*
X529724Y540589D02*
X545524D01*
X477065Y520747D02*
X545503D01*
X479131Y504802D02*
X545471D01*
X510532Y510825D02*
X545444D01*
X514468Y514723D02*
X545414D01*
X521553Y500904D02*
X545389D01*
X442671Y524644D02*
X545360D01*
X513722Y531022D02*
X545311D01*
X440629Y534566D02*
X545310D01*
X477010Y521101D02*
X545264D01*
X479263Y504448D02*
X545239D01*
X511263Y511180D02*
X545219D01*
X514421Y514369D02*
X545196D01*
X521533Y501259D02*
X545177D01*
X473690Y524290D02*
X545156D01*
X513776Y531377D02*
X545119D01*
X415512Y534211D02*
X545117D01*
X476871Y521455D02*
X545083D01*
X479325Y504093D02*
X545065D01*
X511926Y511534D02*
X545050D01*
X514291Y514014D02*
X545033D01*
X542616Y561495D02*
X545031D01*
X521433Y501613D02*
X545019D01*
X474481Y523936D02*
X545003D01*
X513765Y531731D02*
X544977D01*
X415654Y533857D02*
X544976D01*
X476618Y521810D02*
X544952D01*
X479321Y503739D02*
X544939D01*
X512233Y511888D02*
X544928D01*
X514053Y513660D02*
X544917D01*
X521236Y501967D02*
X544907D01*
X529724Y540944D02*
X544906D01*
X474807Y523581D02*
X544897D01*
X513689Y532085D02*
X544879D01*
X415751Y533503D02*
X544879D01*
X476146Y522164D02*
X544863D01*
X479252Y503385D02*
X544855D01*
X512406Y512243D02*
X544849D01*
X513616Y513306D02*
X544842D01*
X520888Y502322D02*
X544837D01*
X474991Y523227D02*
X544831D01*
X513539Y532440D02*
X544822D01*
X512881Y533148D02*
X544822D01*
X475094Y522518D02*
X544815D01*
X479109Y503030D02*
X544811D01*
X512488Y512597D02*
X544809D01*
X512493Y512951D02*
X544807D01*
X478874Y502676D02*
X544805D01*
X475082Y522873D02*
X544804D01*
X513291Y532794D02*
X544803D01*
X542007Y561140D02*
X544473D01*
X529724Y541298D02*
X544361D01*
X529724Y560786D02*
X543975D01*
X529724Y541652D02*
X543874D01*
X529724Y560432D02*
X543525D01*
X529724Y542007D02*
X543434D01*
X529724Y560077D02*
X543116D01*
X529724Y542361D02*
X543033D01*
X529724Y559723D02*
X542742D01*
X529724Y542715D02*
X542665D01*
X529724Y559369D02*
X542397D01*
X529724Y543070D02*
X542327D01*
X529724Y559014D02*
X542080D01*
X529724Y543424D02*
X542015D01*
X529724Y558660D02*
X541787D01*
X529724Y543778D02*
X541727D01*
X529724Y558306D02*
X541515D01*
X529724Y544133D02*
X541460D01*
X529724Y557951D02*
X541264D01*
X529724Y544487D02*
X541212D01*
X529724Y557597D02*
X541031D01*
X529724Y544841D02*
X540983D01*
X529724Y557243D02*
X540816D01*
X529724Y545196D02*
X540771D01*
X533148Y561140D02*
X540671D01*
X529724Y556888D02*
X540616D01*
X529724Y545550D02*
X540576D01*
X529724Y556534D02*
X540432D01*
X529724Y545904D02*
X540395D01*
X529724Y556180D02*
X540263D01*
X529724Y546259D02*
X540229D01*
X529724Y555825D02*
X540108D01*
X529724Y546613D02*
X540076D01*
X533758Y561495D02*
X540061D01*
X529724Y555471D02*
X539966D01*
X529724Y546967D02*
X539937D01*
X529724Y555117D02*
X539837D01*
X529724Y547322D02*
X539810D01*
X534083Y561849D02*
X539736D01*
X529724Y554762D02*
X539720D01*
X529724Y547676D02*
X539696D01*
X529724Y554408D02*
X539615D01*
X529724Y548030D02*
X539594D01*
X534284Y562203D02*
X539535D01*
X529724Y554054D02*
X539522D01*
X529724Y548385D02*
X539503D01*
X529724Y553699D02*
X539440D01*
X529724Y548739D02*
X539424D01*
X534400Y562558D02*
X539419D01*
X529724Y553345D02*
X539370D01*
X529724Y549093D02*
X539356D01*
X532271Y552991D02*
X539310D01*
X532429Y549448D02*
X539299D01*
X532822Y552636D02*
X539262D01*
X532901Y549802D02*
X539253D01*
X533128Y552282D02*
X539224D01*
X533177Y550156D02*
X539217D01*
X533317Y551928D02*
X539196D01*
X533347Y550510D02*
X539192D01*
X533425Y551573D02*
X539180D01*
X533439Y550865D02*
X539177D01*
X533464Y551219D02*
X539173D01*
X521050Y535983D02*
X535924D01*
X521053Y538818D02*
X535920D01*
X521341Y536337D02*
X535520D01*
X521343Y538463D02*
X535518D01*
X521521Y536692D02*
X535296D01*
X521522Y538109D02*
X535295D01*
X521621Y537046D02*
X535176D01*
X521622Y537755D02*
X535175D01*
X521654Y537400D02*
X535138D01*
X529724Y561140D02*
X531812D01*
X529724Y561495D02*
X531202D01*
X529724Y561849D02*
X530878D01*
X529724Y552991D02*
X530721D01*
X529724Y562203D02*
X530677D01*
X529724Y549448D02*
X530563D01*
X529724Y562558D02*
X530560D01*
X529724Y552636D02*
X530171D01*
X529724Y549802D02*
X530092D01*
X529724Y552282D02*
X529864D01*
X529724Y550156D02*
X529815D01*
X478487Y502322D02*
X518876D01*
X512666Y535629D02*
X518830D01*
X512672Y539172D02*
X518824D01*
X498104Y501967D02*
X518528D01*
X499160Y501613D02*
X518331D01*
X513176Y535983D02*
X518320D01*
X513179Y538818D02*
X518318D01*
X499922Y500550D02*
X518266D01*
X499545Y501259D02*
X518231D01*
X499780Y500904D02*
X518211D01*
X513467Y536337D02*
X518029D01*
X513469Y538463D02*
X518027D01*
X513647Y536692D02*
X517849D01*
X513648Y538109D02*
X517848D01*
X513747Y537046D02*
X517749D01*
X513748Y537755D02*
X517748D01*
X513780Y537400D02*
X517717D01*
X476746Y519684D02*
X517644D01*
X514120Y515786D02*
X517331D01*
X499990Y500196D02*
X516657D01*
X476396Y519329D02*
X516588D01*
X513746Y516140D02*
X516537D01*
X397835Y518975D02*
X516203D01*
X505891Y516495D02*
X516173D01*
X504493Y518621D02*
X515968D01*
X505902Y516849D02*
X515949D01*
X505171Y518266D02*
X515826D01*
X505848Y517203D02*
X515816D01*
X505513Y517912D02*
X515758D01*
X505724Y517558D02*
X515754D01*
X499994Y499841D02*
X515543D01*
X499932Y499487D02*
X515129D01*
X499799Y499133D02*
X514868D01*
X499575Y498778D02*
X514700D01*
X499211Y498424D02*
X514603D01*
X498417Y498070D02*
X514567D01*
X397835Y497715D02*
X514567D01*
X397835Y497361D02*
X514567D01*
X397835Y497007D02*
X514567D01*
X397835Y496652D02*
X514567D01*
X397835Y496298D02*
X514567D01*
X413615Y495944D02*
X514567D01*
X414322Y495589D02*
X514567D01*
X414771Y495235D02*
X514567D01*
X415098Y494881D02*
X514567D01*
X415344Y494526D02*
X514567D01*
X415531Y494172D02*
X514567D01*
X493133Y493818D02*
X514567D01*
X493571Y493463D02*
X514567D01*
X493832Y493109D02*
X514567D01*
X493991Y492755D02*
X514567D01*
X494075Y492400D02*
X514567D01*
X494093Y492046D02*
X514567D01*
X494046Y491692D02*
X514567D01*
X493930Y491337D02*
X514567D01*
X493729Y490983D02*
X514567D01*
X493404Y490629D02*
X514567D01*
X492794Y490274D02*
X514567D01*
X414192Y489920D02*
X514567D01*
X413357Y489566D02*
X514567D01*
X397835Y489211D02*
X514567D01*
X439634Y488857D02*
X514567D01*
X440426Y488503D02*
X514567D01*
X440752Y488148D02*
X514567D01*
X440936Y487794D02*
X514567D01*
X446758Y487440D02*
X514567D01*
X447159Y487085D02*
X514567D01*
X447383Y486731D02*
X514567D01*
X447502Y486377D02*
X514567D01*
X479207Y486022D02*
X514567D01*
X479714Y485668D02*
X514567D01*
X480004Y485314D02*
X514567D01*
X480184Y484959D02*
X514567D01*
X480283Y484605D02*
X514567D01*
X480315Y484251D02*
X514567D01*
X479711Y482833D02*
X514567D01*
X479202Y482479D02*
X514567D01*
X471450Y482125D02*
X514567D01*
X471389Y481770D02*
X514567D01*
X471255Y481416D02*
X514567D01*
X471032Y481062D02*
X514567D01*
X470668Y480707D02*
X514567D01*
X510682Y480353D02*
X514567D01*
X511339Y479999D02*
X514567D01*
X511644Y479644D02*
X514567D01*
X511817Y479290D02*
X514567D01*
X511898Y478936D02*
X514567D01*
X511902Y478581D02*
X514567D01*
X511829Y478227D02*
X514567D01*
X511667Y477873D02*
X514567D01*
X511379Y477518D02*
X514567D01*
X510798Y477164D02*
X514567D01*
X493764Y476810D02*
X514567D01*
X494013Y476455D02*
X514567D01*
X494173Y476101D02*
X514567D01*
X494262Y475747D02*
X514567D01*
X494291Y475392D02*
X514567D01*
X494291Y475038D02*
X514567D01*
X494291Y474684D02*
X514567D01*
X494291Y474329D02*
X514567D01*
X494291Y473975D02*
X514567D01*
X494291Y473621D02*
X514567D01*
X494291Y473266D02*
X514567D01*
X494291Y472912D02*
X514567D01*
X494291Y472558D02*
X514567D01*
X494291Y472203D02*
X514567D01*
X494291Y471849D02*
X514567D01*
X494291Y471495D02*
X514567D01*
X494291Y471140D02*
X514567D01*
X494291Y470786D02*
X514567D01*
X494291Y470432D02*
X514567D01*
X494291Y470077D02*
X514567D01*
X494291Y469723D02*
X514567D01*
X494291Y469369D02*
X514567D01*
X494291Y469014D02*
X514567D01*
X494291Y468660D02*
X514567D01*
X494291Y468306D02*
X514567D01*
X494291Y467951D02*
X514567D01*
X494291Y467597D02*
X514567D01*
X494291Y467243D02*
X514567D01*
X494291Y466888D02*
X514567D01*
X494291Y466534D02*
X514567D01*
X494291Y466180D02*
X514567D01*
X494291Y465825D02*
X514567D01*
X494291Y465471D02*
X514567D01*
X494291Y465117D02*
X514567D01*
X494291Y464762D02*
X514567D01*
X494291Y464408D02*
X514567D01*
X494291Y464054D02*
X514567D01*
X494291Y463699D02*
X514567D01*
X494291Y463345D02*
X514567D01*
X494291Y462991D02*
X514567D01*
X494291Y462636D02*
X514567D01*
X501070Y462282D02*
X514567D01*
X501480Y461928D02*
X514567D01*
X501728Y461573D02*
X514567D01*
X501878Y461219D02*
X514567D01*
X501954Y460865D02*
X514567D01*
X480283Y483896D02*
X514525D01*
X510107Y460510D02*
X514499D01*
X480002Y483188D02*
X514492D01*
X480182Y483542D02*
X514470D01*
X510899Y460156D02*
X513708D01*
X511224Y459802D02*
X513382D01*
X511409Y459448D02*
X513198D01*
X511499Y459093D02*
X513107D01*
X505814Y516140D02*
X511844D01*
X505663Y515786D02*
X511471D01*
X492673Y529605D02*
X511264D01*
X505415Y515432D02*
X511261D01*
X505003Y515077D02*
X511152D01*
X499712Y514723D02*
X511123D01*
X504792Y535629D02*
X510956D01*
X504798Y539172D02*
X510950D01*
X493196Y533148D02*
X510741D01*
X493356Y529959D02*
X510581D01*
X505302Y535983D02*
X510446D01*
X505304Y538818D02*
X510444D01*
X493606Y532794D02*
X510331D01*
X503813Y514369D02*
X510258D01*
X493700Y530314D02*
X510237D01*
X505593Y536337D02*
X510155D01*
X505595Y538463D02*
X510153D01*
X493854Y532440D02*
X510083D01*
X493912Y530668D02*
X510025D01*
X505773Y536692D02*
X509975D01*
X505774Y538109D02*
X509974D01*
X494004Y532085D02*
X509933D01*
X494037Y531022D02*
X509900D01*
X505873Y537046D02*
X509875D01*
X505874Y537755D02*
X509874D01*
X494080Y531731D02*
X509857D01*
X494091Y531377D02*
X509846D01*
X505906Y537400D02*
X509842D01*
X469874Y480353D02*
X509791D01*
X504869Y514014D02*
X509681D01*
X493373Y477164D02*
X509674D01*
X501965Y460510D02*
X509578D01*
X505254Y513660D02*
X509394D01*
X505489Y513306D02*
X509233D01*
X505699Y512597D02*
X509165D01*
X505630Y512951D02*
X509161D01*
X440976Y479999D02*
X509134D01*
X492544Y477518D02*
X509093D01*
X441039Y479644D02*
X508828D01*
X491074Y477873D02*
X508805D01*
X501911Y460156D02*
X508786D01*
X489571Y479290D02*
X508656D01*
X490942Y478227D02*
X508644D01*
X490356Y478936D02*
X508574D01*
X490719Y478581D02*
X508571D01*
X501786Y459802D02*
X508461D01*
X501574Y459448D02*
X508276D01*
X501230Y459093D02*
X508186D01*
X505702Y512243D02*
X507967D01*
X505641Y511888D02*
X507565D01*
X505507Y511534D02*
X507342D01*
X505284Y511180D02*
X507223D01*
X504920Y510825D02*
X507185D01*
X504125Y510471D02*
X506444D01*
X473443Y510117D02*
X505787D01*
X498587Y509762D02*
X505482D01*
X499265Y509408D02*
X505309D01*
X499607Y509054D02*
X505228D01*
X499819Y508699D02*
X505224D01*
X499943Y508345D02*
X504096D01*
X478545Y505510D02*
X503974D01*
X499436Y514369D02*
X503668D01*
X499997Y507991D02*
X503661D01*
X477760Y505865D02*
X503599D01*
X499986Y507636D02*
X503424D01*
X499098Y506219D02*
X503388D01*
X397835Y518621D02*
X503381D01*
X473883Y510471D02*
X503355D01*
X499909Y507282D02*
X503295D01*
X499509Y506573D02*
X503278D01*
X499758Y506928D02*
X503248D01*
X495934Y535629D02*
X503082D01*
X495940Y539172D02*
X503076D01*
X499882Y515077D02*
X502871D01*
X397835Y518266D02*
X502703D01*
X498964Y514014D02*
X502612D01*
X496443Y535983D02*
X502572D01*
X496446Y538818D02*
X502570D01*
X474145Y510825D02*
X502561D01*
X499974Y515432D02*
X502459D01*
X397835Y517912D02*
X502361D01*
X496735Y536337D02*
X502281D01*
X496736Y538463D02*
X502279D01*
X473116Y513660D02*
X502226D01*
X500000Y515786D02*
X502211D01*
X474306Y511180D02*
X502197D01*
X498806Y517558D02*
X502150D01*
X496915Y536692D02*
X502101D01*
X496916Y538109D02*
X502100D01*
X499961Y516140D02*
X502060D01*
X499357Y517203D02*
X502026D01*
X497015Y537046D02*
X502001D01*
X497015Y537755D02*
X502000D01*
X473722Y513306D02*
X501992D01*
X499853Y516495D02*
X501983D01*
X474390Y511534D02*
X501973D01*
X499663Y516849D02*
X501972D01*
X497047Y537400D02*
X501968D01*
X474045Y512951D02*
X501850D01*
X474408Y511888D02*
X501840D01*
X474246Y512597D02*
X501781D01*
X474362Y512243D02*
X501778D01*
X494291Y462282D02*
X498930D01*
X495181Y459093D02*
X498770D01*
X494291Y461928D02*
X498520D01*
X494744Y459448D02*
X498426D01*
X494291Y461573D02*
X498272D01*
X494497Y459802D02*
X498214D01*
X494291Y461219D02*
X498122D01*
X494356Y460156D02*
X498089D01*
X494291Y460865D02*
X498046D01*
X494295Y460510D02*
X498035D01*
X490230Y501967D02*
X497959D01*
X490543Y498070D02*
X497646D01*
X490713Y509762D02*
X497476D01*
X490932Y517558D02*
X497257D01*
X491090Y514014D02*
X497099D01*
X491224Y506219D02*
X496965D01*
X491286Y501613D02*
X496903D01*
X491337Y498424D02*
X496852D01*
X491391Y509408D02*
X496798D01*
X491483Y517203D02*
X496706D01*
X491562Y514369D02*
X496627D01*
X491635Y506573D02*
X496554D01*
X491671Y501259D02*
X496518D01*
X491701Y498778D02*
X496488D01*
X491733Y509054D02*
X496456D01*
X491789Y516849D02*
X496400D01*
X491838Y514723D02*
X496351D01*
X491884Y506928D02*
X496305D01*
X491906Y500904D02*
X496283D01*
X491925Y499133D02*
X496264D01*
X491945Y508699D02*
X496244D01*
X491979Y516495D02*
X496210D01*
X492008Y515077D02*
X496181D01*
X492035Y507282D02*
X496154D01*
X492048Y500550D02*
X496141D01*
X492058Y499487D02*
X496131D01*
X492069Y508345D02*
X496120D01*
X492087Y516140D02*
X496102D01*
X492100Y515432D02*
X496089D01*
X492112Y507636D02*
X496077D01*
X492116Y500196D02*
X496073D01*
X492120Y499841D02*
X496069D01*
X492123Y507991D02*
X496066D01*
X492126Y515786D02*
X496063D01*
X487076Y535629D02*
X494223D01*
X487081Y539172D02*
X494218D01*
X487585Y535983D02*
X493714D01*
X487588Y538818D02*
X493711D01*
X487876Y536337D02*
X493423D01*
X487878Y538463D02*
X493421D01*
X488057Y536692D02*
X493243D01*
X488058Y538109D02*
X493242D01*
X488157Y537046D02*
X493143D01*
X488157Y537755D02*
X493142D01*
X488189Y537400D02*
X493110D01*
X472988Y529605D02*
X491579D01*
X473109Y490274D02*
X491458D01*
X473448Y493818D02*
X491119D01*
X473511Y533148D02*
X491056D01*
X473671Y529959D02*
X490896D01*
X473719Y490629D02*
X490848D01*
X473886Y493463D02*
X490681D01*
X473921Y532794D02*
X490646D01*
X474015Y530314D02*
X490552D01*
X474044Y490983D02*
X490523D01*
X474147Y493109D02*
X490420D01*
X474169Y532440D02*
X490398D01*
X474227Y530668D02*
X490340D01*
X474245Y491337D02*
X490322D01*
X474306Y492755D02*
X490261D01*
X474319Y532085D02*
X490248D01*
X474352Y531022D02*
X490215D01*
X474361Y491692D02*
X490206D01*
X474390Y492400D02*
X490177D01*
X474395Y531731D02*
X490172D01*
X474406Y531377D02*
X490161D01*
X474408Y492046D02*
X490159D01*
X482356Y501967D02*
X490085D01*
X482669Y498070D02*
X489772D01*
X482839Y509762D02*
X489602D01*
X483058Y517558D02*
X489383D01*
X483216Y514014D02*
X489225D01*
X483350Y506219D02*
X489091D01*
X483412Y501613D02*
X489029D01*
X483463Y498424D02*
X488978D01*
X483517Y509408D02*
X488924D01*
X483609Y517203D02*
X488832D01*
X441026Y479290D02*
X488775D01*
X483688Y514369D02*
X488753D01*
X483761Y506573D02*
X488680D01*
X483797Y501259D02*
X488644D01*
X483827Y498778D02*
X488614D01*
X483859Y509054D02*
X488582D01*
X483915Y516849D02*
X488526D01*
X483964Y514723D02*
X488477D01*
X484010Y506928D02*
X488431D01*
X484032Y500904D02*
X488409D01*
X484051Y499133D02*
X488390D01*
X484071Y508699D02*
X488370D01*
X484105Y516495D02*
X488336D01*
X484134Y515077D02*
X488307D01*
X484161Y507282D02*
X488280D01*
X484174Y500550D02*
X488267D01*
X484184Y499487D02*
X488257D01*
X484195Y508345D02*
X488246D01*
X484212Y516140D02*
X488228D01*
X484226Y515432D02*
X488215D01*
X484238Y507636D02*
X488203D01*
X484242Y500196D02*
X488199D01*
X484246Y499841D02*
X488195D01*
X484249Y507991D02*
X488192D01*
X484252Y515786D02*
X488189D01*
X467105Y478936D02*
X487990D01*
X467681Y478581D02*
X487628D01*
X467968Y478227D02*
X487405D01*
X468129Y477873D02*
X487272D01*
X478218Y535629D02*
X485365D01*
X478223Y539172D02*
X485360D01*
X478727Y535983D02*
X484856D01*
X478730Y538818D02*
X484853D01*
X479018Y536337D02*
X484564D01*
X479020Y538463D02*
X484563D01*
X479198Y536692D02*
X484384D01*
X479199Y538109D02*
X484383D01*
X479298Y537046D02*
X484284D01*
X479299Y537755D02*
X484284D01*
X479331Y537400D02*
X484252D01*
X468576Y501967D02*
X482211D01*
X468889Y498070D02*
X481898D01*
X413895Y509762D02*
X481728D01*
X478137Y517558D02*
X481509D01*
X478295Y514014D02*
X481351D01*
X397835Y506219D02*
X481217D01*
X469633Y501613D02*
X481155D01*
X469683Y498424D02*
X481104D01*
X397835Y509408D02*
X481050D01*
X478688Y517203D02*
X480958D01*
X478767Y514369D02*
X480879D01*
X397835Y506573D02*
X480806D01*
X470018Y501259D02*
X480770D01*
X470047Y498778D02*
X480740D01*
X397835Y509054D02*
X480708D01*
X478994Y516849D02*
X480652D01*
X479043Y514723D02*
X480603D01*
X397835Y506928D02*
X480557D01*
X470253Y500904D02*
X480535D01*
X470271Y499133D02*
X480516D01*
X397835Y508699D02*
X480496D01*
X479184Y516495D02*
X480462D01*
X479213Y515077D02*
X480433D01*
X397835Y507282D02*
X480406D01*
X470394Y500550D02*
X480393D01*
X470404Y499487D02*
X480383D01*
X397835Y508345D02*
X480372D01*
X479291Y516140D02*
X480354D01*
X479305Y515432D02*
X480341D01*
X397835Y507636D02*
X480329D01*
X470463Y500196D02*
X480325D01*
X470466Y499841D02*
X480321D01*
X397835Y507991D02*
X480318D01*
X479330Y515786D02*
X480315D01*
X471447Y482479D02*
X477491D01*
X447539Y486022D02*
X477486D01*
X457652Y462282D02*
X477165D01*
X457559Y461928D02*
X477165D01*
X457389Y461573D02*
X477165D01*
X457113Y461219D02*
X477165D01*
X456641Y460865D02*
X477165D01*
X415431Y460510D02*
X477165D01*
X443665Y460156D02*
X477165D01*
X444138Y459802D02*
X477165D01*
X444390Y459448D02*
X477165D01*
X444530Y459093D02*
X477165D01*
X444585Y458739D02*
X477165D01*
X444564Y458385D02*
X477165D01*
X444463Y458030D02*
X477165D01*
X444266Y457676D02*
X477165D01*
X443916Y457322D02*
X477165D01*
X422007Y456967D02*
X477165D01*
X455280Y456613D02*
X477165D01*
X455958Y456259D02*
X477165D01*
X456300Y455904D02*
X477165D01*
X456512Y455550D02*
X477165D01*
X456636Y455196D02*
X477165D01*
X457677Y462636D02*
X477165D01*
X461759Y448463D02*
X477124D01*
X457638Y462991D02*
X477121D01*
X462144Y448109D02*
X477017D01*
X457530Y463345D02*
X477000D01*
X437208Y450589D02*
X476992D01*
X471378Y482833D02*
X476982D01*
X447501Y485668D02*
X476979D01*
X437405Y452715D02*
X476965D01*
X413813Y505865D02*
X476964D01*
X456689Y454841D02*
X476939D01*
X455790Y453070D02*
X476916D01*
X437478Y450944D02*
X476892D01*
X460702Y448818D02*
X476871D01*
X462378Y447755D02*
X476810D01*
X436686Y450235D02*
X476796D01*
X457340Y463699D02*
X476782D01*
X437590Y452361D02*
X476780D01*
X456679Y454487D02*
X476766D01*
X456202Y453424D02*
X476754D01*
X437628Y451298D02*
X476742D01*
X432522Y449172D02*
X476731D01*
X433493Y449881D02*
X476696D01*
X471237Y483188D02*
X476690D01*
X437680Y452007D02*
X476690D01*
X447381Y485314D02*
X476689D01*
X456602Y454133D02*
X476685D01*
X456451Y453778D02*
X476681D01*
X437693Y451652D02*
X476677D01*
X433186Y449526D02*
X476675D01*
X469279Y517558D02*
X476588D01*
X471002Y483542D02*
X476510D01*
X447157Y484959D02*
X476509D01*
X468375Y535629D02*
X476507D01*
X468380Y539172D02*
X476501D01*
X462520Y447400D02*
X476455D01*
X469437Y514014D02*
X476430D01*
X470617Y483896D02*
X476410D01*
X446753Y484605D02*
X476410D01*
X457034Y464054D02*
X476404D01*
X469561Y484251D02*
X476378D01*
X415793Y502322D02*
X476237D01*
X414436Y505510D02*
X476179D01*
X469829Y517203D02*
X476037D01*
X468884Y535983D02*
X475997D01*
X468887Y538818D02*
X475995D01*
X469908Y514369D02*
X475958D01*
X415825Y502676D02*
X475851D01*
X414852Y505156D02*
X475817D01*
X470136Y516849D02*
X475730D01*
X469176Y536337D02*
X475706D01*
X469177Y538463D02*
X475705D01*
X470185Y514723D02*
X475682D01*
X415819Y503030D02*
X475615D01*
X415158Y504802D02*
X475594D01*
X470325Y516495D02*
X475541D01*
X469356Y536692D02*
X475526D01*
X469357Y538109D02*
X475525D01*
X470355Y515077D02*
X475511D01*
X415775Y503385D02*
X475473D01*
X415390Y504448D02*
X475461D01*
X470433Y516140D02*
X475433D01*
X469456Y537046D02*
X475426D01*
X469456Y537755D02*
X475426D01*
X470447Y515432D02*
X475419D01*
X415691Y503739D02*
X475404D01*
X415565Y504093D02*
X475400D01*
X470472Y515786D02*
X475394D01*
X469488Y537400D02*
X475394D01*
X397835Y519329D02*
X474391D01*
X413712Y519684D02*
X474042D01*
X414377Y520038D02*
X473844D01*
X414809Y520392D02*
X473744D01*
X415127Y520747D02*
X473722D01*
X442423Y524290D02*
X473161D01*
X415366Y521101D02*
X472763D01*
X442011Y523936D02*
X472369D01*
X415547Y521455D02*
X472241D01*
X415733Y523581D02*
X472043D01*
X415678Y521810D02*
X471971D01*
X433618Y529605D02*
X471894D01*
X415799Y523227D02*
X471859D01*
X415767Y522164D02*
X471820D01*
X414681Y490274D02*
X471773D01*
X415826Y522873D02*
X471769D01*
X415713Y513660D02*
X471766D01*
X415815Y522518D02*
X471756D01*
X414486Y510117D02*
X471439D01*
X415667Y493818D02*
X471434D01*
X434141Y533148D02*
X471371D01*
X434301Y529959D02*
X471211D01*
X415031Y490629D02*
X471163D01*
X415788Y513306D02*
X471160D01*
X414888Y510471D02*
X470999D01*
X415759Y493463D02*
X470996D01*
X434551Y532794D02*
X470961D01*
X434645Y530314D02*
X470867D01*
X415294Y490983D02*
X470838D01*
X415823Y512951D02*
X470836D01*
X415186Y510825D02*
X470737D01*
X415812Y493109D02*
X470735D01*
X434799Y532440D02*
X470713D01*
X434857Y530668D02*
X470655D01*
X415492Y491337D02*
X470637D01*
X415821Y512597D02*
X470636D01*
X415411Y511180D02*
X470576D01*
X415827Y492755D02*
X470575D01*
X434949Y532085D02*
X470563D01*
X434982Y531022D02*
X470530D01*
X415640Y491692D02*
X470521D01*
X415781Y512243D02*
X470520D01*
X415580Y511534D02*
X470492D01*
X415803Y492400D02*
X470492D01*
X435025Y531731D02*
X470486D01*
X435036Y531377D02*
X470476D01*
X415742Y492046D02*
X470474D01*
X415702Y511888D02*
X470474D01*
X410506Y484251D02*
X469416D01*
X440826Y480353D02*
X469103D01*
X415723Y501967D02*
X468431D01*
X411562Y483896D02*
X468360D01*
X440557Y480707D02*
X468309D01*
X397835Y498070D02*
X468119D01*
X411947Y483542D02*
X467975D01*
X440038Y481062D02*
X467945D01*
X412182Y483188D02*
X467740D01*
X397835Y517558D02*
X467729D01*
X412200Y481416D02*
X467721D01*
X412323Y482833D02*
X467598D01*
X412334Y481770D02*
X467588D01*
X415597Y514014D02*
X467571D01*
X412392Y482479D02*
X467529D01*
X412395Y482125D02*
X467526D01*
X415611Y501613D02*
X467375D01*
X397835Y498424D02*
X467325D01*
X397835Y517203D02*
X467178D01*
X415434Y514369D02*
X467099D01*
X415453Y501259D02*
X466990D01*
X397835Y498778D02*
X466960D01*
X397835Y516849D02*
X466872D01*
X415216Y514723D02*
X466823D01*
X415241Y500904D02*
X466755D01*
X397835Y499133D02*
X466737D01*
X397835Y516495D02*
X466683D01*
X441764Y535629D02*
X466664D01*
X421250Y539172D02*
X466659D01*
X414928Y515077D02*
X466653D01*
X414962Y500550D02*
X466614D01*
X412984Y499487D02*
X466603D01*
X412575Y516140D02*
X466575D01*
X414541Y515432D02*
X466561D01*
X414588Y500196D02*
X466545D01*
X414053Y499841D02*
X466542D01*
X413982Y515786D02*
X466536D01*
X453446Y535983D02*
X466155D01*
X453451Y538818D02*
X466152D01*
X440935Y478936D02*
X465966D01*
X453850Y536337D02*
X465864D01*
X453852Y538463D02*
X465862D01*
X454074Y536692D02*
X465684D01*
X454075Y538109D02*
X465683D01*
X454194Y537046D02*
X465584D01*
X454195Y537755D02*
X465583D01*
X454232Y537400D02*
X465551D01*
X440750Y478581D02*
X465389D01*
X440423Y478227D02*
X465103D01*
X439617Y477873D02*
X464942D01*
X454797Y448818D02*
X460557D01*
X455853Y448463D02*
X459501D01*
X456238Y448109D02*
X459116D01*
X456473Y447755D02*
X458881D01*
X456615Y447400D02*
X458740D01*
X457629Y562558D02*
X458465D01*
X457512Y562203D02*
X458465D01*
X457311Y561849D02*
X458465D01*
X456987Y561495D02*
X458465D01*
X456377Y561140D02*
X458465D01*
X416655Y560786D02*
X458465D01*
X417105Y560432D02*
X458465D01*
X417514Y560077D02*
X458465D01*
X417888Y559723D02*
X458465D01*
X418232Y559369D02*
X458465D01*
X418550Y559014D02*
X458465D01*
X418843Y558660D02*
X458465D01*
X419115Y558306D02*
X458465D01*
X419366Y557951D02*
X458465D01*
X419599Y557597D02*
X458465D01*
X419814Y557243D02*
X458465D01*
X420014Y556888D02*
X458465D01*
X425301Y556534D02*
X458465D01*
X425703Y556180D02*
X458465D01*
X425926Y555825D02*
X458465D01*
X426045Y555471D02*
X458465D01*
X426083Y555117D02*
X458465D01*
X426044Y554762D02*
X458465D01*
X425925Y554408D02*
X458465D01*
X425701Y554054D02*
X458465D01*
X439251Y553699D02*
X458465D01*
X439769Y553345D02*
X458465D01*
X453531Y552991D02*
X458465D01*
X454081Y552636D02*
X458465D01*
X454388Y552282D02*
X458465D01*
X454577Y551928D02*
X458465D01*
X454685Y551573D02*
X458465D01*
X454724Y551219D02*
X458465D01*
X454699Y550865D02*
X458465D01*
X454607Y550510D02*
X458465D01*
X454437Y550156D02*
X458465D01*
X454160Y549802D02*
X458465D01*
X453689Y549448D02*
X458465D01*
X447381Y549093D02*
X458465D01*
X447157Y548739D02*
X458465D01*
X446753Y548385D02*
X458465D01*
X456569Y548030D02*
X458465D01*
X457076Y547676D02*
X458465D01*
X457366Y547322D02*
X458465D01*
X457546Y546967D02*
X458465D01*
X457645Y546613D02*
X458465D01*
X457677Y546259D02*
X458465D01*
X457645Y545904D02*
X458465D01*
X457545Y545550D02*
X458465D01*
X457365Y545196D02*
X458465D01*
X457073Y544841D02*
X458465D01*
X456564Y544487D02*
X458465D01*
X426075Y544133D02*
X458465D01*
X426002Y543778D02*
X458465D01*
X425840Y543424D02*
X458465D01*
X425553Y543070D02*
X458465D01*
X424971Y542715D02*
X458465D01*
X417597Y542361D02*
X458465D01*
X417196Y542007D02*
X458465D01*
X416756Y541652D02*
X458465D01*
X419690Y541298D02*
X458465D01*
X420474Y540944D02*
X458465D01*
X420837Y540589D02*
X458465D01*
X421060Y540235D02*
X458465D01*
X421193Y539881D02*
X458465D01*
X435707Y561140D02*
X455041D01*
X426071Y544487D02*
X454853D01*
X421036Y548030D02*
X454848D01*
X415669Y460865D02*
X454776D01*
X448891Y448818D02*
X454652D01*
X436317Y561495D02*
X454431D01*
X443739Y464054D02*
X454383D01*
X425990Y544841D02*
X454344D01*
X420934Y547676D02*
X454341D01*
X443861Y461219D02*
X454304D01*
X413626Y456613D02*
X454169D01*
X436642Y561849D02*
X454106D01*
X444173Y463699D02*
X454077D01*
X425817Y545196D02*
X454053D01*
X420820Y547322D02*
X454051D01*
X444236Y461573D02*
X454028D01*
X436843Y562203D02*
X453905D01*
X444411Y463345D02*
X453887D01*
X425512Y545550D02*
X453873D01*
X420693Y546967D02*
X453872D01*
X444446Y461928D02*
X453858D01*
X436959Y562558D02*
X453789D01*
X444540Y462991D02*
X453780D01*
X424855Y545904D02*
X453773D01*
X420554Y546613D02*
X453772D01*
X444556Y462282D02*
X453766D01*
X444586Y462636D02*
X453741D01*
X420401Y546259D02*
X453740D01*
X437080Y453070D02*
X453658D01*
X449948Y448463D02*
X453596D01*
X413921Y456259D02*
X453491D01*
X436288Y453424D02*
X453247D01*
X450333Y448109D02*
X453211D01*
X414152Y455904D02*
X453149D01*
X414660Y453778D02*
X452998D01*
X450567Y447755D02*
X452976D01*
X414332Y455550D02*
X452937D01*
X414663Y454133D02*
X452847D01*
X450709Y447400D02*
X452834D01*
X414470Y455196D02*
X452813D01*
X414633Y454487D02*
X452770D01*
X414569Y454841D02*
X452759D01*
X440038Y552991D02*
X451981D01*
X447501Y549448D02*
X451823D01*
X441881Y535983D02*
X451672D01*
X421181Y538818D02*
X451668D01*
X440188Y552636D02*
X451430D01*
X447539Y549802D02*
X451351D01*
X441928Y536337D02*
X451268D01*
X421039Y538463D02*
X451266D01*
X440252Y552282D02*
X451124D01*
X447502Y550156D02*
X451075D01*
X441910Y536692D02*
X451044D01*
X440967Y538109D02*
X451043D01*
X440239Y551928D02*
X450935D01*
X441826Y537046D02*
X450924D01*
X441405Y537755D02*
X450923D01*
X447383Y550510D02*
X450905D01*
X441666Y537400D02*
X450886D01*
X440148Y551573D02*
X450827D01*
X447159Y550865D02*
X450813D01*
X446758Y551219D02*
X450788D01*
X416043Y448818D02*
X448746D01*
X416005Y448463D02*
X447690D01*
X415885Y448109D02*
X447305D01*
X415661Y447755D02*
X447070D01*
X415257Y447400D02*
X446929D01*
X442910Y525707D02*
X445619D01*
X397835Y528896D02*
X445198D01*
X421127Y548385D02*
X444979D01*
X399574Y484605D02*
X444979D01*
X439963Y551219D02*
X444975D01*
X441027Y487440D02*
X444975D01*
X442856Y526062D02*
X444813D01*
X427238Y528542D02*
X444680D01*
X421206Y548739D02*
X444575D01*
X399475Y484959D02*
X444575D01*
X439635Y550865D02*
X444573D01*
X441039Y487085D02*
X444573D01*
X442732Y526416D02*
X444486D01*
X428294Y528188D02*
X444411D01*
X421274Y549093D02*
X444351D01*
X399295Y485314D02*
X444351D01*
X438830Y550510D02*
X444350D01*
X440975Y486731D02*
X444350D01*
X442521Y526770D02*
X444301D01*
X428679Y527833D02*
X444261D01*
X421331Y549448D02*
X444231D01*
X440032Y485668D02*
X444231D01*
X421413Y550156D02*
X444231D01*
X440824Y486377D02*
X444231D01*
X442178Y527125D02*
X444210D01*
X441501Y527479D02*
X444197D01*
X421377Y549802D02*
X444193D01*
X440554Y486022D02*
X444193D01*
X439728Y460156D02*
X442161D01*
X439802Y464054D02*
X442088D01*
X439924Y461219D02*
X441966D01*
X439979Y457322D02*
X441911D01*
X440201Y459802D02*
X441689D01*
X440236Y463699D02*
X441653D01*
X440299Y461573D02*
X441591D01*
X440329Y457676D02*
X441561D01*
X440453Y459448D02*
X441436D01*
X440474Y463345D02*
X441416D01*
X440509Y461928D02*
X441380D01*
X440526Y458030D02*
X441364D01*
X440593Y459093D02*
X441297D01*
X440603Y462991D02*
X441287D01*
X440619Y462282D02*
X441270D01*
X440627Y458385D02*
X441263D01*
X440648Y458739D02*
X441242D01*
X440649Y462636D02*
X441241D01*
X428914Y527479D02*
X440389D01*
X415626Y523936D02*
X439879D01*
X429056Y527125D02*
X439711D01*
X415474Y524290D02*
X439467D01*
X429124Y526770D02*
X439369D01*
X415320Y534566D02*
X439293D01*
X427551Y524644D02*
X439219D01*
X429127Y526416D02*
X439158D01*
X427593Y477873D02*
X439123D01*
X427036Y488857D02*
X439106D01*
X428345Y524999D02*
X439067D01*
X429066Y526062D02*
X439034D01*
X428709Y525353D02*
X438991D01*
X428932Y525707D02*
X438980D01*
X420803Y538109D02*
X438954D01*
X427434Y485668D02*
X438708D01*
X411977Y481062D02*
X438702D01*
X415066Y534920D02*
X438683D01*
X420416Y537755D02*
X438516D01*
X414728Y535274D02*
X438358D01*
X421438Y550510D02*
X438335D01*
X428029Y478227D02*
X438317D01*
X427828Y488503D02*
X438314D01*
X397835Y537400D02*
X438255D01*
X435791Y460156D02*
X438224D01*
X427956Y486022D02*
X438186D01*
X427723Y480707D02*
X438184D01*
X414261Y535629D02*
X438157D01*
X435865Y464054D02*
X438151D01*
X397835Y537046D02*
X438095D01*
X413499Y535983D02*
X438041D01*
X435987Y461219D02*
X438029D01*
X397835Y536692D02*
X438011D01*
X397835Y536337D02*
X437994D01*
X428268Y478581D02*
X437990D01*
X428153Y488148D02*
X437988D01*
X436042Y457322D02*
X437974D01*
X428226Y486377D02*
X437916D01*
X425297Y553699D02*
X437915D01*
X428096Y480353D02*
X437915D01*
X428398Y478936D02*
X437805D01*
X428338Y487794D02*
X437804D01*
X428376Y486731D02*
X437765D01*
X428306Y479999D02*
X437765D01*
X436264Y459802D02*
X437752D01*
X436299Y463699D02*
X437716D01*
X428444Y479290D02*
X437714D01*
X428428Y487440D02*
X437713D01*
X428441Y487085D02*
X437701D01*
X428415Y479644D02*
X437701D01*
X436362Y461573D02*
X437654D01*
X436392Y457676D02*
X437624D01*
X421453Y550865D02*
X437530D01*
X436516Y459448D02*
X437499D01*
X436537Y463345D02*
X437479D01*
X436572Y461928D02*
X437443D01*
X436589Y458030D02*
X437427D01*
X421260Y553345D02*
X437396D01*
X436656Y459093D02*
X437360D01*
X436666Y462991D02*
X437350D01*
X436682Y462282D02*
X437333D01*
X436690Y458385D02*
X437326D01*
X436711Y458739D02*
X437305D01*
X436712Y462636D02*
X437304D01*
X421457Y551219D02*
X437203D01*
X421320Y552991D02*
X437127D01*
X421450Y551573D02*
X437018D01*
X421368Y552636D02*
X436977D01*
X421433Y551928D02*
X436926D01*
X421406Y552282D02*
X436914D01*
X414624Y453424D02*
X435759D01*
X433666Y450235D02*
X435362D01*
X414554Y453070D02*
X434968D01*
X433748Y450589D02*
X434840D01*
X414449Y452715D02*
X434642D01*
X433753Y450944D02*
X434570D01*
X432656Y452361D02*
X434458D01*
X433680Y451298D02*
X434419D01*
X419959Y561140D02*
X434371D01*
X433233Y452007D02*
X434367D01*
X433519Y451652D02*
X434355D01*
X419059Y460156D02*
X434287D01*
X428306Y464054D02*
X434214D01*
X415799Y461219D02*
X434092D01*
X422482Y457322D02*
X434037D01*
X422266Y459802D02*
X433815D01*
X406526Y463699D02*
X433779D01*
X420569Y561495D02*
X433761D01*
X415846Y461573D02*
X433717D01*
X422736Y457676D02*
X433687D01*
X422614Y459448D02*
X433562D01*
X406698Y463345D02*
X433542D01*
X415817Y461928D02*
X433506D01*
X422876Y458030D02*
X433490D01*
X420894Y561849D02*
X433437D01*
X422811Y459093D02*
X433423D01*
X415124Y462991D02*
X433413D01*
X415707Y462282D02*
X433396D01*
X422931Y458385D02*
X433389D01*
X422910Y458739D02*
X433368D01*
X415498Y462636D02*
X433367D01*
X421095Y562203D02*
X433236D01*
X421211Y562558D02*
X433119D01*
X413491Y529605D02*
X432524D01*
X415808Y533148D02*
X432001D01*
X414257Y529959D02*
X431841D01*
X427601Y449172D02*
X431651D01*
X415827Y532794D02*
X431591D01*
X427734Y452361D02*
X431518D01*
X414725Y530314D02*
X431497D01*
X415808Y532440D02*
X431343D01*
X415064Y530668D02*
X431285D01*
X415751Y532085D02*
X431193D01*
X415319Y531022D02*
X431160D01*
X415653Y531731D02*
X431116D01*
X415511Y531377D02*
X431106D01*
X428265Y449526D02*
X430987D01*
X428311Y452007D02*
X430941D01*
X428572Y449881D02*
X430680D01*
X428598Y451652D02*
X430654D01*
X428745Y450235D02*
X430507D01*
X428759Y451298D02*
X430493D01*
X428827Y450589D02*
X430425D01*
X428831Y450944D02*
X430421D01*
X397835Y528542D02*
X427093D01*
X406221Y464054D02*
X426812D01*
X415270Y524644D02*
X426780D01*
X416006Y449172D02*
X426729D01*
X414304Y452361D02*
X426596D01*
X397835Y488857D02*
X426507D01*
X399005Y485668D02*
X426110D01*
X415886Y449526D02*
X426066D01*
X397835Y528188D02*
X426037D01*
X414116Y452007D02*
X426019D01*
X414999Y524999D02*
X425986D01*
X423171Y477873D02*
X425951D01*
X411612Y480707D02*
X425821D01*
X415663Y449881D02*
X425759D01*
X413874Y451652D02*
X425733D01*
X397835Y488503D02*
X425716D01*
X397835Y527833D02*
X425652D01*
X414638Y525353D02*
X425622D01*
X398499Y486022D02*
X425588D01*
X415262Y450235D02*
X425586D01*
X413567Y451298D02*
X425572D01*
X423225Y478227D02*
X425514D01*
X412614Y450589D02*
X425504D01*
X413167Y450944D02*
X425499D01*
X410818Y480353D02*
X425447D01*
X397835Y527479D02*
X425417D01*
X414129Y525707D02*
X425398D01*
X397835Y488148D02*
X425390D01*
X397835Y486377D02*
X425318D01*
X423214Y478581D02*
X425276D01*
X397835Y527125D02*
X425275D01*
X413208Y526062D02*
X425265D01*
X422330Y479999D02*
X425238D01*
X397835Y526770D02*
X425207D01*
X397835Y487794D02*
X425206D01*
X397835Y526416D02*
X425203D01*
X397835Y486731D02*
X425167D01*
X423138Y478936D02*
X425146D01*
X422740Y479644D02*
X425128D01*
X397835Y487440D02*
X425115D01*
X397835Y487085D02*
X425103D01*
X422987Y479290D02*
X425099D01*
X420235Y545904D02*
X423964D01*
X417965Y542715D02*
X423848D01*
X421190Y553699D02*
X423522D01*
X420198Y556534D02*
X423518D01*
X420054Y545550D02*
X423307D01*
X418303Y543070D02*
X423266D01*
X421108Y554054D02*
X423118D01*
X420367Y556180D02*
X423116D01*
X419859Y545196D02*
X423002D01*
X418615Y543424D02*
X422979D01*
X421015Y554408D02*
X422894D01*
X420522Y555825D02*
X422893D01*
X419647Y544841D02*
X422829D01*
X405564Y464408D02*
X422824D01*
X418903Y543778D02*
X422817D01*
X420910Y554762D02*
X422774D01*
X420664Y555471D02*
X422774D01*
X419418Y544487D02*
X422748D01*
X419170Y544133D02*
X422744D01*
X420793Y555117D02*
X422736D01*
X415121Y464762D02*
X421985D01*
X415496Y465117D02*
X421592D01*
X415706Y465471D02*
X421343D01*
X415816Y465825D02*
X421183D01*
X413196Y476101D02*
X421182D01*
X415846Y466180D02*
X421092D01*
X413589Y475747D02*
X421092D01*
X413891Y475392D02*
X421063D01*
X414129Y475038D02*
X421063D01*
X414315Y474684D02*
X421063D01*
X414457Y474329D02*
X421063D01*
X414560Y473975D02*
X421063D01*
X414627Y473621D02*
X421063D01*
X414661Y473266D02*
X421063D01*
X414662Y472912D02*
X421063D01*
X414630Y472558D02*
X421063D01*
X414564Y472203D02*
X421063D01*
X414462Y471849D02*
X421063D01*
X414322Y471495D02*
X421063D01*
X414139Y471140D02*
X421063D01*
X413904Y470786D02*
X421063D01*
X413605Y470432D02*
X421063D01*
X413217Y470077D02*
X421063D01*
X412687Y469723D02*
X421063D01*
X411805Y469369D02*
X421063D01*
X405366Y469014D02*
X421063D01*
X397835Y468660D02*
X421063D01*
X397835Y468306D02*
X421063D01*
X397835Y467951D02*
X421063D01*
X414999Y467597D02*
X421063D01*
X415433Y467243D02*
X421063D01*
X415671Y466888D02*
X421063D01*
X415800Y466534D02*
X421063D01*
X412656Y476455D02*
X420713D01*
X413245Y456967D02*
X420513D01*
X419532Y459802D02*
X420254D01*
X403756Y479999D02*
X420190D01*
X419309Y457322D02*
X420038D01*
X411737Y476810D02*
X420030D01*
X419784Y459448D02*
X419906D01*
X419659Y457676D02*
X419784D01*
X403995Y479644D02*
X419780D01*
X404489Y477164D02*
X419686D01*
X404181Y479290D02*
X419532D01*
X404523Y477518D02*
X419474D01*
X404323Y478936D02*
X419382D01*
X404524Y477873D02*
X419349D01*
X404425Y478581D02*
X419305D01*
X404492Y478227D02*
X419295D01*
X416269Y541298D02*
X418893D01*
X416157Y561140D02*
X418623D01*
X397835Y537755D02*
X418166D01*
X415724Y540944D02*
X418108D01*
X415598Y561495D02*
X418013D01*
X397835Y538109D02*
X417780D01*
X415106Y540589D02*
X417746D01*
X414961Y561849D02*
X417689D01*
X416106Y460156D02*
X417555D01*
X398185Y538463D02*
X417544D01*
X414385Y540235D02*
X417523D01*
X414213Y562203D02*
X417488D01*
X398868Y538818D02*
X417402D01*
X413509Y539881D02*
X417390D01*
X413291Y562558D02*
X417371D01*
X399212Y539172D02*
X417333D01*
X412339Y539526D02*
X417329D01*
X416357Y457322D02*
X417305D01*
X416579Y459802D02*
X417083D01*
X416707Y457676D02*
X416955D01*
X412727Y457322D02*
X414352D01*
X397835Y459802D02*
X414130D01*
X411886Y457676D02*
X414002D01*
X397835Y459448D02*
X413877D01*
X397835Y458030D02*
X413805D01*
X397835Y459093D02*
X413738D01*
X397835Y458385D02*
X413704D01*
X397835Y458739D02*
X413683D01*
X413070Y447400D02*
X413483D01*
X411641Y450235D02*
X413479D01*
X397835Y460156D02*
X413352D01*
X397835Y467597D02*
X413348D01*
X397835Y464762D02*
X413226D01*
X406780Y462991D02*
X413222D01*
X404171Y447755D02*
X413079D01*
X404492Y449881D02*
X413077D01*
X397835Y460510D02*
X412916D01*
X397835Y467243D02*
X412913D01*
X404315Y448109D02*
X412855D01*
X404524Y449526D02*
X412854D01*
X397835Y465117D02*
X412851D01*
X406784Y462636D02*
X412849D01*
X404420Y448463D02*
X412735D01*
X404523Y449172D02*
X412734D01*
X404489Y448818D02*
X412697D01*
X397835Y460865D02*
X412677D01*
X397835Y466888D02*
X412676D01*
X397835Y465471D02*
X412640D01*
X406711Y462282D02*
X412639D01*
X405680Y461219D02*
X412547D01*
X397835Y466534D02*
X412547D01*
X397835Y465825D02*
X412530D01*
X406549Y461928D02*
X412530D01*
X406261Y461573D02*
X412500D01*
X397835Y466180D02*
X412500D01*
X402575Y516140D02*
X412386D01*
X402984Y499487D02*
X411977D01*
X403208Y526062D02*
X411753D01*
X403981Y447400D02*
X411734D01*
X403357Y489566D02*
X411604D01*
X403491Y529605D02*
X411470D01*
X403499Y535983D02*
X411462D01*
X403615Y495944D02*
X411346D01*
X403712Y519684D02*
X411249D01*
X403813Y505865D02*
X411147D01*
X403895Y509762D02*
X411066D01*
X403982Y515786D02*
X410979D01*
X404053Y499841D02*
X410908D01*
X404129Y525707D02*
X410831D01*
X404192Y489920D02*
X410768D01*
X404257Y529959D02*
X410704D01*
X404261Y535629D02*
X410700D01*
X404322Y495589D02*
X410638D01*
X404377Y520038D02*
X410584D01*
X404436Y505510D02*
X410524D01*
X404486Y510117D02*
X410474D01*
X404541Y515432D02*
X410419D01*
X404588Y500196D02*
X410373D01*
X399606Y484251D02*
X410361D01*
X404638Y525353D02*
X410322D01*
X404681Y490274D02*
X410280D01*
X404725Y530314D02*
X410235D01*
X404728Y535274D02*
X410232D01*
X404771Y495235D02*
X410190D01*
X404809Y520392D02*
X410151D01*
X404852Y505156D02*
X410109D01*
X404888Y510471D02*
X410073D01*
X403450Y480353D02*
X410048D01*
X404928Y515077D02*
X410033D01*
X404425Y450235D02*
X410013D01*
X404962Y500550D02*
X409999D01*
X404999Y524999D02*
X409962D01*
X405031Y490629D02*
X409930D01*
X404420Y476810D02*
X409916D01*
X405064Y530668D02*
X409897D01*
X405066Y534920D02*
X409895D01*
X405098Y494881D02*
X409863D01*
X406171Y469369D02*
X409849D01*
X405127Y520747D02*
X409834D01*
X405158Y504802D02*
X409802D01*
X405186Y510825D02*
X409775D01*
X405687Y457676D02*
X409768D01*
X405216Y514723D02*
X409745D01*
X405241Y500904D02*
X409719D01*
X405270Y524644D02*
X409691D01*
X405294Y490983D02*
X409667D01*
X405319Y531022D02*
X409642D01*
X405320Y534566D02*
X409640D01*
X405344Y494526D02*
X409616D01*
X405366Y521101D02*
X409594D01*
X405390Y504448D02*
X409570D01*
X405411Y511180D02*
X409550D01*
X405434Y514369D02*
X409527D01*
X405453Y501259D02*
X409508D01*
X405474Y524290D02*
X409486D01*
X405492Y491337D02*
X409468D01*
X405511Y531377D02*
X409449D01*
X405512Y534211D02*
X409448D01*
X405531Y494172D02*
X409430D01*
X405547Y521455D02*
X409414D01*
X405565Y504093D02*
X409396D01*
X405580Y511534D02*
X409381D01*
X405597Y514014D02*
X409364D01*
X405611Y501613D02*
X409350D01*
X405626Y523936D02*
X409334D01*
X405640Y491692D02*
X409321D01*
X405653Y531731D02*
X409308D01*
X405654Y533857D02*
X409307D01*
X399574Y483896D02*
X409304D01*
X405667Y493818D02*
X409294D01*
X405678Y521810D02*
X409282D01*
X405691Y503739D02*
X409270D01*
X405702Y511888D02*
X409259D01*
X403052Y480707D02*
X409254D01*
X405713Y513660D02*
X409248D01*
X405723Y501967D02*
X409238D01*
X405733Y523581D02*
X409227D01*
X405742Y492046D02*
X409219D01*
X405751Y532085D02*
X409210D01*
X405751Y533503D02*
X409209D01*
X405759Y493463D02*
X409201D01*
X405767Y522164D02*
X409194D01*
X405775Y503385D02*
X409186D01*
X405781Y512243D02*
X409180D01*
X405788Y513306D02*
X409173D01*
X405793Y502322D02*
X409168D01*
X405799Y523227D02*
X409162D01*
X405803Y492400D02*
X409157D01*
X405808Y532440D02*
X409153D01*
X405808Y533148D02*
X409153D01*
X405812Y493109D02*
X409149D01*
X405815Y522518D02*
X409145D01*
X405819Y503030D02*
X409142D01*
X405821Y512597D02*
X409140D01*
X405823Y512951D02*
X409137D01*
X405825Y502676D02*
X409136D01*
X405826Y522873D02*
X409135D01*
X405827Y492755D02*
X409134D01*
X405827Y532794D02*
X409134D01*
X404323Y450589D02*
X409039D01*
X404315Y476455D02*
X408997D01*
X406498Y469723D02*
X408966D01*
X406264Y457322D02*
X408927D01*
X399474Y483542D02*
X408919D01*
X402500Y481062D02*
X408890D01*
X399294Y483188D02*
X408684D01*
X401513Y481416D02*
X408666D01*
X399003Y482833D02*
X408543D01*
X397835Y481770D02*
X408533D01*
X404181Y450944D02*
X408486D01*
X398493Y482479D02*
X408474D01*
X397835Y482125D02*
X408471D01*
X404171Y476101D02*
X408458D01*
X406683Y470077D02*
X408436D01*
X406551Y456967D02*
X408408D01*
X403995Y451298D02*
X408087D01*
X403981Y475747D02*
X408065D01*
X406774Y470432D02*
X408049D01*
X406712Y456613D02*
X408028D01*
X403756Y451652D02*
X407779D01*
X403739Y475392D02*
X407762D01*
X406787Y470786D02*
X407749D01*
X406784Y456259D02*
X407733D01*
X403450Y452007D02*
X407538D01*
X403429Y475038D02*
X407525D01*
X406724Y471140D02*
X407515D01*
X406780Y455904D02*
X407502D01*
X403052Y452361D02*
X407349D01*
X403023Y474684D02*
X407339D01*
X406574Y471495D02*
X407331D01*
X406698Y455550D02*
X407321D01*
X402500Y452715D02*
X407205D01*
X402457Y474329D02*
X407197D01*
X406305Y471849D02*
X407191D01*
X406524Y455196D02*
X407184D01*
X401513Y453070D02*
X407099D01*
X401397Y473975D02*
X407094D01*
X405786Y472203D02*
X407090D01*
X406218Y454841D02*
X407085D01*
X397835Y453424D02*
X407030D01*
X397835Y473621D02*
X407026D01*
X397835Y472558D02*
X407024D01*
X405554Y454487D02*
X407021D01*
X397835Y453778D02*
X406994D01*
X397835Y473266D02*
X406993D01*
X397835Y472912D02*
X406992D01*
X397835Y454133D02*
X406991D01*
X399424Y539526D02*
X406559D01*
X399548Y539881D02*
X405388D01*
X397835Y469014D02*
X404871D01*
X397835Y454487D02*
X404682D01*
X397835Y464408D02*
X404673D01*
X397835Y461219D02*
X404556D01*
X397835Y457676D02*
X404549D01*
X399603Y540235D02*
X404512D01*
X397835Y472203D02*
X404450D01*
X397835Y469369D02*
X404065D01*
X397835Y454841D02*
X404018D01*
X397835Y464054D02*
X404015D01*
X397835Y461573D02*
X403975D01*
X397835Y457322D02*
X403972D01*
X397835Y471849D02*
X403932D01*
X399592Y540589D02*
X403792D01*
X397835Y469723D02*
X403738D01*
X397835Y455196D02*
X403712D01*
X397835Y463699D02*
X403710D01*
X397835Y461928D02*
X403687D01*
X397835Y456967D02*
X403686D01*
X397835Y471495D02*
X403663D01*
X397835Y470077D02*
X403553D01*
X397835Y455550D02*
X403539D01*
X397835Y463345D02*
X403538D01*
X397835Y462282D02*
X403525D01*
X397835Y456613D02*
X403525D01*
X397835Y471140D02*
X403513D01*
X397835Y470432D02*
X403462D01*
X397835Y455904D02*
X403457D01*
X397835Y462991D02*
X403456D01*
X397835Y462636D02*
X403452D01*
X397835Y456259D02*
X403452D01*
X397835Y470786D02*
X403449D01*
X399516Y540944D02*
X403173D01*
X399365Y541298D02*
X402629D01*
X397835Y516140D02*
X402386D01*
X399118Y541652D02*
X402142D01*
X397835Y499487D02*
X401977D01*
X397835Y526062D02*
X401753D01*
X398708Y542007D02*
X401702D01*
X397835Y489566D02*
X401604D01*
X397835Y529605D02*
X401470D01*
X397835Y535983D02*
X401462D01*
X397835Y495944D02*
X401346D01*
X397835Y542361D02*
X401301D01*
X397835Y519684D02*
X401249D01*
X397835Y505865D02*
X401147D01*
X397835Y509762D02*
X401066D01*
X397835Y515786D02*
X400979D01*
X397835Y542715D02*
X400933D01*
X397835Y499841D02*
X400908D01*
X397835Y525707D02*
X400831D01*
X397835Y489920D02*
X400768D01*
X397835Y529959D02*
X400704D01*
X397835Y535629D02*
X400700D01*
X397835Y495589D02*
X400638D01*
X397835Y543070D02*
X400595D01*
X397835Y520038D02*
X400584D01*
X397835Y505510D02*
X400524D01*
X397835Y510117D02*
X400474D01*
X397835Y515432D02*
X400419D01*
X397835Y500196D02*
X400373D01*
X397835Y525353D02*
X400322D01*
X397835Y543424D02*
X400283D01*
X397835Y490274D02*
X400280D01*
X397835Y530314D02*
X400235D01*
X397835Y535274D02*
X400232D01*
X397835Y495235D02*
X400190D01*
X397835Y520392D02*
X400151D01*
X397835Y505156D02*
X400109D01*
X397835Y510471D02*
X400073D01*
X397835Y515077D02*
X400033D01*
X397835Y500550D02*
X399999D01*
X397835Y543778D02*
X399994D01*
X397835Y524999D02*
X399962D01*
X397835Y490629D02*
X399930D01*
X397835Y530668D02*
X399897D01*
X397835Y534920D02*
X399895D01*
X397835Y494881D02*
X399863D01*
X397835Y520747D02*
X399834D01*
X397835Y504802D02*
X399802D01*
X397835Y510825D02*
X399775D01*
X397835Y514723D02*
X399745D01*
X397835Y544133D02*
X399727D01*
X397835Y500904D02*
X399719D01*
X397835Y524644D02*
X399691D01*
X397835Y490983D02*
X399667D01*
X397835Y531022D02*
X399642D01*
X397835Y534566D02*
X399640D01*
X397835Y494526D02*
X399616D01*
X397835Y521101D02*
X399594D01*
X397835Y504448D02*
X399570D01*
X397835Y511180D02*
X399550D01*
X397835Y514369D02*
X399527D01*
X397835Y501259D02*
X399508D01*
X397835Y524290D02*
X399486D01*
X397835Y544487D02*
X399480D01*
X397835Y491337D02*
X399468D01*
X397835Y531377D02*
X399449D01*
X397835Y534211D02*
X399448D01*
X397835Y494172D02*
X399430D01*
X397835Y521455D02*
X399414D01*
X397835Y504093D02*
X399396D01*
X397835Y511534D02*
X399381D01*
X397835Y514014D02*
X399364D01*
X397835Y501613D02*
X399350D01*
X397835Y523936D02*
X399334D01*
X397835Y491692D02*
X399321D01*
X397835Y531731D02*
X399308D01*
X397835Y533857D02*
X399307D01*
X397835Y493818D02*
X399294D01*
X397835Y521810D02*
X399282D01*
X397835Y503739D02*
X399270D01*
X397835Y511888D02*
X399259D01*
X397835Y544841D02*
X399251D01*
X397835Y513660D02*
X399248D01*
X397835Y501967D02*
X399238D01*
X397835Y523581D02*
X399227D01*
X397835Y492046D02*
X399219D01*
X397835Y532085D02*
X399210D01*
X397835Y533503D02*
X399209D01*
X397835Y493463D02*
X399201D01*
X397835Y522164D02*
X399194D01*
X397835Y503385D02*
X399186D01*
X397835Y512243D02*
X399180D01*
X397835Y513306D02*
X399173D01*
X397835Y502322D02*
X399168D01*
X397835Y523227D02*
X399162D01*
X397835Y492400D02*
X399157D01*
X397835Y532440D02*
X399153D01*
X397835Y533148D02*
X399153D01*
X397835Y493109D02*
X399149D01*
X397835Y522518D02*
X399145D01*
X397835Y503030D02*
X399142D01*
X397835Y512597D02*
X399140D01*
X397835Y512951D02*
X399137D01*
X397835Y502676D02*
X399136D01*
X397835Y522873D02*
X399135D01*
X397835Y492755D02*
X399134D01*
X397835Y532794D02*
X399134D01*
X397835Y545196D02*
X399039D01*
X397835Y545550D02*
X398843D01*
X397835Y545904D02*
X398663D01*
X397835Y546259D02*
X398496D01*
X397835Y546613D02*
X398344D01*
X397835Y546967D02*
X398205D01*
X397835Y547322D02*
X398078D01*
X397835Y547676D02*
X397964D01*
X397835Y548030D02*
X397862D01*
X393701Y393701D02*
X566929D01*
Y566929*
X393701*
Y393701*
X503937Y386122D02*
G03X502657Y387402I-1280J0D01*
G01X395177*
G03X393898Y386122I0J-1280*
G01Y368209*
G03X395177Y366929I1279J-0*
G01X502657*
G03X503937Y368209I0J1280*
G01Y386122*
X474508Y387402D02*
Y366929D01*
Y382283D02*
X393898D01*
X474508Y377165D02*
X393898D01*
X461713Y376756D02*
Y366929D01*
X474508Y372047D02*
X393898D01*
X461713Y382283D02*
Y376756D01*
X445079Y382283D02*
Y366929D01*
X410531Y387402D02*
Y366929D01*
X483140Y375104D02*
X483442D01*
X483140Y374966D02*
X483442D01*
X483140Y374829D02*
X483442D01*
X483140Y374692D02*
X483442D01*
X483140Y374554D02*
X483442D01*
X491367Y382520D02*
G03X490826Y381979I-0J-541D01*
G01X491367Y382520D02*
X495674D01*
X496215Y381979D02*
G03X495674Y382520I-541J0D01*
G01X496215Y381979D02*
Y377704D01*
X495674Y377164D02*
G03X496215Y377704I0J540D01*
G01X495674Y377164D02*
X491367D01*
X490826Y377704D02*
G03X491367Y377164I541J0D01*
G01X490826Y377704D02*
Y381979D01*
X482438Y376207D02*
X483114Y375234D01*
Y374397*
X483465*
Y375234*
X484141Y376207*
X483816*
X483303Y375532*
X482762Y376207*
X482438*
X485059Y382585D02*
G03X484735Y382261I0J-324D01*
G01X485059Y382585D02*
X487600D01*
X487924Y382261D02*
G03X487600Y382585I-324J-0D01*
G01X487924Y382261D02*
Y379882D01*
X487600Y379558D02*
G03X487924Y379882I-0J324D01*
G01X487600Y379558D02*
X485059D01*
X484735Y379882D02*
G03X485059Y379558I324J0D01*
G01X484735Y379882D02*
Y382261D01*
X492734Y380801D02*
G03X492518Y380585I0J-216D01*
G01X492734Y380801D02*
X494410D01*
X494626Y380585D02*
G03X494410Y380801I-216J0D01*
G01X494626Y380585D02*
Y379072D01*
X494410Y378856D02*
G03X494626Y379072I-0J216D01*
G01X494410Y378856D02*
X492734D01*
X492518Y379072D02*
G03X492734Y378856I216J-0D01*
G01X492518Y379072D02*
Y380585D01*
X484843Y376153D02*
G03X484519Y375829I0J-324D01*
G01X484843Y376153D02*
X485708D01*
X486032Y375829D02*
G03X485708Y376153I-324J-0D01*
G01X486032Y375829D02*
Y374802D01*
X485708Y374478D02*
G03X486032Y374802I-0J324D01*
G01X485708Y374478D02*
X484843D01*
X484519Y374802D02*
G03X484843Y374478I324J0D01*
G01X484519Y374802D02*
Y375829D01*
X483140Y384988D02*
X489345D01*
X482453Y384439D02*
X490031D01*
X482453Y384301D02*
X490086D01*
X482316Y384027D02*
X490140D01*
X482316Y383890D02*
X490140D01*
X482316Y383752D02*
X490140D01*
X482316Y383615D02*
X490140D01*
X482316Y383478D02*
X490140D01*
X482316Y383340D02*
X490140D01*
X482316Y383203D02*
X490140D01*
X482316Y383066D02*
X490140D01*
X482316Y382929D02*
X490140D01*
X482316Y382791D02*
X490140D01*
X482316Y382654D02*
X490140D01*
X491239Y382517D02*
X495797D01*
X487870D02*
X490140D01*
X482316D02*
X484843D01*
X491102Y382379D02*
X495977D01*
X487944D02*
X490140D01*
X482316D02*
X484677D01*
X490965Y382242D02*
X496085D01*
X487944D02*
X490140D01*
X482316D02*
X484677D01*
X490965Y382105D02*
X496209D01*
X487944D02*
X490140D01*
X482316D02*
X484677D01*
X490827Y381968D02*
X496209D01*
X487944D02*
X490140D01*
X482316D02*
X484677D01*
X490827Y381830D02*
X496209D01*
X487944D02*
X490140D01*
X482316D02*
X484677D01*
X490827Y381693D02*
X496209D01*
X487944D02*
X490140D01*
X482316D02*
X484677D01*
X490827Y381556D02*
X496209D01*
X487944D02*
X490140D01*
X482316D02*
X484677D01*
X490827Y381418D02*
X496209D01*
X487944D02*
X490140D01*
X482316D02*
X484677D01*
X490827Y381281D02*
X496209D01*
X487944D02*
X490140D01*
X482316D02*
X484677D01*
X490827Y381144D02*
X496209D01*
X487944D02*
X490140D01*
X482316D02*
X484677D01*
X490827Y381007D02*
X496209D01*
X487944D02*
X490140D01*
X482316D02*
X484677D01*
X490827Y380869D02*
X496209D01*
X487944D02*
X490140D01*
X482316D02*
X484677D01*
X494671Y380732D02*
X496209D01*
X490827D02*
X492502D01*
X487944D02*
X490140D01*
X482316D02*
X484677D01*
X494671Y380595D02*
X496209D01*
X490827D02*
X492502D01*
X487944D02*
X490140D01*
X482316D02*
X484677D01*
X494671Y380458D02*
X496209D01*
X490827D02*
X492502D01*
X487944D02*
X490140D01*
X482316D02*
X484677D01*
X494671Y380320D02*
X496209D01*
X490827D02*
X492502D01*
X487944D02*
X490140D01*
X482316D02*
X484677D01*
X494671Y380183D02*
X496209D01*
X490827D02*
X492502D01*
X487944D02*
X490140D01*
X482316D02*
X484677D01*
X494671Y380046D02*
X496209D01*
X490827D02*
X492502D01*
X487944D02*
X490140D01*
X482316D02*
X484677D01*
X494671Y379908D02*
X496209D01*
X490827D02*
X492502D01*
X487944D02*
X490140D01*
X482316D02*
X484677D01*
X494671Y379771D02*
X496209D01*
X490827D02*
X492502D01*
X487944D02*
X490140D01*
X482316D02*
X484677D01*
X494671Y379634D02*
X496209D01*
X490827D02*
X492502D01*
X487870D02*
X490140D01*
X482316D02*
X484789D01*
X494671Y379497D02*
X496209D01*
X490827D02*
X492502D01*
X482316D02*
X490140D01*
X494671Y379359D02*
X496209D01*
X490827D02*
X492502D01*
X482316D02*
X490140D01*
X494671Y379222D02*
X496209D01*
X490827D02*
X492502D01*
X482316D02*
X490140D01*
X494671Y379085D02*
X496209D01*
X490827D02*
X492502D01*
X482316D02*
X490140D01*
X494671Y378947D02*
X496209D01*
X490827D02*
X492502D01*
X482316D02*
X490140D01*
X490827Y378810D02*
X496209D01*
X482316D02*
X490140D01*
X490827Y378673D02*
X496209D01*
X482316D02*
X490140D01*
X490827Y378536D02*
X496209D01*
X482316D02*
X490140D01*
X490827Y378398D02*
X496209D01*
X482316D02*
X490140D01*
X490827Y378261D02*
X496209D01*
X482316D02*
X490140D01*
X490827Y378124D02*
X496209D01*
X482316D02*
X490140D01*
X490827Y377986D02*
X496209D01*
X482316D02*
X490140D01*
X490827Y377849D02*
X496209D01*
X482453D02*
X490140D01*
X490827Y377712D02*
X496209D01*
X482453D02*
X490031D01*
X490965Y377575D02*
X496161D01*
X482460D02*
X490031D01*
X490965Y377437D02*
X496071D01*
X482584D02*
X489894D01*
X491102Y377300D02*
X495966D01*
X482768D02*
X489757D01*
X491376Y377163D02*
X495663D01*
X483140D02*
X489383D01*
X483826Y376202D02*
X484128D01*
X482453D02*
X482755D01*
X483741Y376065D02*
X484016D01*
X482590D02*
X482838D01*
X483622Y375927D02*
X483903D01*
X482665D02*
X482957D01*
X483551Y375790D02*
X483853D01*
X482728D02*
X483030D01*
X483414Y375653D02*
X483703D01*
X482865D02*
X483167D01*
X482957Y375515D02*
X483638D01*
X483060Y375378D02*
X483503D01*
X483114Y375241D02*
X483443D01*
X486735Y376153D02*
Y374748D01*
G03X486951Y374532I216J-0*
G01X487654*
G03X487870Y374748I-0J216*
G01Y376153*
X488626D02*
Y374532D01*
X489329Y376153D02*
Y374532D01*
X490356*
X492140Y375721D02*
Y375937D01*
G03X491923Y376153I-217J0*
G01X491167*
G03X490951Y375937I-0J-216*
G01Y374748*
G03X491167Y374532I216J-0*
G01X491923*
G03X492140Y374748I0J216*
G01Y374964*
X482627Y384713D02*
X489870D01*
X482519Y384576D02*
X489978D01*
X483168Y384990D02*
G03X482303Y384125I-0J-865D01*
G01X483168Y384990D02*
X489302D01*
X490167Y384125D02*
G03X489302Y384990I-865J0D01*
G01X490167Y384125D02*
Y378018D01*
X489302Y377153D02*
G03X490167Y378018I0J865D01*
G01X489302Y377153D02*
X483168D01*
X482303Y378018D02*
G03X483168Y377153I865J-0D01*
G01X482303Y378018D02*
Y384125D01*
X482357Y384164D02*
X490168D01*
X482789Y384850D02*
X489707D01*
X492842Y374532D02*
X493275Y376045D01*
X493707*
X494139Y374532*
X493923Y375180D02*
X493058D01*
X494896Y375288D02*
Y376153D01*
X495653*
X496085Y375721D02*
G03X495653Y376153I-432J-0D01*
G01X496085Y375721D02*
Y374964D01*
X495653Y374532D02*
G03X496085Y374964I-0J432D01*
G01X495653Y374532D02*
X494896D01*
Y375288*
X468337Y375490D02*
Y373723D01*
X468413Y373411*
X468564Y373307*
X468715*
X468110Y374762D02*
X468639D01*
X412718Y384687D02*
X412567Y384894D01*
X412567D02*
X412416Y384998D01*
X412189*
X412038Y384894*
X412038D02*
X411887Y384687D01*
X411811Y384375*
Y384167*
X411887Y383855*
X412038Y383647*
X412189Y383543*
X412416*
X412567Y383647*
X412718Y383855*
X413777Y384998D02*
X413626Y384894D01*
X413626D02*
X413474Y384687D01*
X413399Y384375*
Y384167*
X413474Y383855*
X413626Y383647*
X413777Y383543*
X414004*
X414155Y383647*
X414306Y383855*
X414382Y384167*
Y384375*
X414306Y384687*
X414155Y384894*
X414155D02*
X414004Y384998D01*
X413777*
X415062D02*
Y383543D01*
Y384583D02*
X415289Y384894D01*
X415289D02*
X415440Y384998D01*
X415667*
X415818Y384894*
X415818D02*
X415894Y384583D01*
Y383543*
Y384583D02*
X416121Y384894D01*
X416121D02*
X416272Y384998D01*
X416499*
X416650Y384894*
X416650D02*
X416726Y384583D01*
Y383543*
X417406Y384998D02*
Y383543D01*
Y384583D02*
X417633Y384894D01*
X417633D02*
X417784Y384998D01*
X418011*
X418162Y384894*
X418162D02*
X418238Y384583D01*
Y383543*
Y384583D02*
X418465Y384894D01*
X418465D02*
X418616Y384998D01*
X418843*
X418994Y384894*
X418994D02*
X419069Y384583D01*
Y383543*
X419750Y385726D02*
X420808Y383543D01*
Y385726D02*
X419750Y383543D01*
X421489Y385726D02*
Y383543D01*
Y385726D02*
X422472D01*
X421489Y384687D02*
X422094D01*
X421489Y383543D02*
X422472D01*
X423152Y385726D02*
Y383543D01*
X424060*
X424740Y383127D02*
X426328D01*
X426781Y385726D02*
X427160Y383543D01*
X427538Y385726D02*
X427160Y383543D01*
X427538Y385726D02*
X427916Y383543D01*
X428294Y385726D02*
X427916Y383543D01*
X431242Y386142D02*
X431091Y385934D01*
X430940Y385622*
X430789Y385206*
X430713Y384687*
Y384271*
X430789Y383751*
X430940Y383335*
X431091Y383023*
X431242Y382815*
X432679Y385726D02*
X431923Y384271D01*
X433057*
X432679Y385726D02*
Y383543D01*
X435476Y385726D02*
Y383543D01*
X436384*
X437972Y384998D02*
Y383543D01*
Y384687D02*
X437820Y384894D01*
X437820D02*
X437669Y384998D01*
X437442*
X437291Y384894*
X437291D02*
X437140Y384687D01*
X437064Y384375*
Y384167*
X437140Y383855*
X437291Y383647*
X437442Y383543*
X437669*
X437820Y383647*
X437972Y383855*
X438728Y384998D02*
X439181Y383543D01*
X439635Y384998D02*
X439181Y383543D01*
X439030Y383127*
X438879Y382919*
X438728Y382815*
X438652*
X440315Y384375D02*
X441223D01*
Y384583*
X441147Y384791*
X441071Y384894*
X441071D02*
X440920Y384998D01*
X440693*
X440542Y384894*
X440542D02*
X440391Y384687D01*
X440315Y384375*
Y384167*
X440391Y383855*
X440542Y383647*
X440693Y383543*
X440920*
X441071Y383647*
X441223Y383855*
X441903Y384998D02*
Y383543D01*
Y384375D02*
X441979Y384687D01*
X442130Y384894*
X442130D02*
X442281Y384998D01*
X442508*
X443189Y386142D02*
X443340Y385934D01*
X443491Y385622*
X443642Y385206*
X443718Y384687*
Y384271*
X443642Y383751*
X443491Y383335*
X443340Y383023*
X443189Y382815*
X411887Y369852D02*
Y369956D01*
X411962Y370164*
X412038Y370268*
X412189Y370372*
X412491*
X412491D02*
X412643Y370268D01*
X412718Y370164*
X412794Y369956*
Y369748*
X412718Y369540*
X412567Y369228*
X411811Y368189*
X412870*
X414004Y370372D02*
X413777Y370268D01*
X413626Y369956*
X413550Y369436*
Y369124*
X413626Y368605*
X413777Y368293*
X414004Y368189*
X414155*
X414382Y368293*
X414533Y368605*
X414609Y369124*
Y369436*
X414533Y369956*
X414382Y370268*
X414155Y370372*
X414004*
X415289Y369956D02*
X415440Y370060D01*
X415667Y370372*
Y368189*
X417330Y369644D02*
X417255Y369332D01*
X417104Y369124*
X416877Y369020*
X416801*
X416574Y369124*
X416423Y369332*
X416348Y369644*
Y369748*
X416423Y370060*
X416574Y370268*
X416801Y370372*
X416877*
X417104Y370268*
X417255Y370060*
X417330Y369644*
Y369124*
X417255Y368605*
X417104Y368293*
X416877Y368189*
X416726*
X416499Y368293*
X416423Y368501*
X418087Y368397D02*
X418011Y368293D01*
X418087Y368189*
X418162Y368293*
X418087Y368397*
X418843Y369956D02*
X418994Y370060D01*
X419221Y370372*
Y368189*
X420355Y370372D02*
X420128Y370268D01*
X419977Y369956*
X419901Y369436*
Y369124*
X419977Y368605*
X420128Y368293*
X420355Y368189*
X420506*
X420733Y368293*
X420884Y368605*
X420960Y369124*
Y369436*
X420884Y369956*
X420733Y370268*
X420506Y370372*
X420355*
X421716Y368397D02*
X421640Y368293D01*
X421716Y368189*
X421791Y368293*
X421716Y368397*
X422472Y369956D02*
X422623Y370060D01*
X422850Y370372*
Y368189*
X423530Y369956D02*
X423682Y370060D01*
X423908Y370372*
Y368189*
X411811Y375490D02*
Y373307D01*
Y375490D02*
X412491D01*
X412491D02*
X412718Y375386D01*
X412794Y375282*
X412870Y375074*
Y374866*
X412794Y374658*
X412718Y374554*
X412491Y374450*
X412491D02*
X411811D01*
X412340D02*
X412870Y373307D01*
X413928Y374762D02*
X413777Y374658D01*
X413626Y374450*
X413550Y374138*
Y373931*
X413626Y373619*
X413777Y373411*
X413928Y373307*
X414155*
X414306Y373411*
X414457Y373619*
X414533Y373931*
Y374138*
X414457Y374450*
X414306Y374658*
X414155Y374762*
X413928*
X415213Y375490D02*
Y373307D01*
Y374450D02*
X415365Y374658D01*
X415516Y374762*
X415743*
X415894Y374658*
X416045Y374450*
X416121Y374138*
Y373931*
X416045Y373619*
X415894Y373411*
X415743Y373307*
X415516*
X415365Y373411*
X415213Y373619*
X417179Y374762D02*
X417028Y374658D01*
X416877Y374450*
X416801Y374138*
Y373931*
X416877Y373619*
X417028Y373411*
X417179Y373307*
X417406*
X417557Y373411*
X417708Y373619*
X417784Y373931*
Y374138*
X417708Y374450*
X417557Y374658*
X417406Y374762*
X417179*
X418691Y375490D02*
Y373723D01*
X418767Y373411*
X418918Y373307*
X419069*
X418465Y374762D02*
X418994D01*
X419750Y375490D02*
X419826Y375386D01*
X419901Y375490*
X419826Y375594*
X419750Y375490*
X419826Y374762D02*
Y373307D01*
X421413Y374450D02*
X421338Y374658D01*
X421111Y374762*
X420884*
X420657Y374658*
X420582Y374450*
X420657Y374242*
X420808Y374138*
X421186Y374035*
X421338Y373931*
X421413Y373723*
Y373619*
X421338Y373411*
X421111Y373307*
X420884*
X420657Y373411*
X420582Y373619*
X476195Y369427D02*
Y367748D01*
X475787Y369427D02*
X476602D01*
X477125Y368388D02*
X477823D01*
Y368548*
X477765Y368708*
X477707Y368788*
X477590Y368868*
X477416*
X477300Y368788*
X477183Y368628*
X477125Y368388*
Y368228*
X477183Y367988*
X477300Y367828*
X477416Y367748*
X477590*
X477707Y367828*
X477823Y367988*
X478346Y369427D02*
Y367748D01*
X478928Y367908D02*
X478870Y367828D01*
X478928Y367748*
X478986Y367828*
X478928Y367908*
X479859Y369427D02*
X479684Y369347D01*
X479568Y369108*
X479510Y368708*
Y368468*
X479568Y368068*
X479684Y367828*
X479859Y367748*
X479975*
X480149Y367828*
X480266Y368068*
X480324Y368468*
Y368708*
X480266Y369108*
X480149Y369347*
X479975Y369427*
X479859*
X480964D02*
X481603D01*
X481254Y368788*
X481429*
X481545Y368708*
X481603Y368628*
X481662Y368388*
Y368228*
X481603Y367988*
X481487Y367828*
X481313Y367748*
X481138*
X480964Y367828*
X480906Y367908*
X480847Y368068*
X482185Y369108D02*
X482301Y369187D01*
X482301D02*
X482476Y369427D01*
Y367748*
X482999Y368468D02*
X484046D01*
X484686Y369427D02*
X485326D01*
X484977Y368788*
X485151*
X485268Y368708*
X485326Y368628*
X485384Y368388*
Y368228*
X485326Y367988*
X485209Y367828*
X485035Y367748*
X484860*
X484686Y367828*
X484628Y367908*
X484570Y368068*
X486663Y368868D02*
X486605Y368628D01*
X486489Y368468*
X486314Y368388*
X486256*
X486082Y368468*
X485965Y368628*
X485907Y368868*
Y368948*
X485965Y369187*
X485965D02*
X486082Y369347D01*
X486256Y369427*
X486314*
X486489Y369347*
X486605Y369187*
X486605D02*
X486663Y368868D01*
Y368468*
X486605Y368068*
X486489Y367828*
X486314Y367748*
X486198*
X486024Y367828*
X485965Y367988*
X487943Y368868D02*
X487885Y368628D01*
X487768Y368468*
X487594Y368388*
X487536*
X487361Y368468*
X487245Y368628*
X487187Y368868*
Y368948*
X487245Y369187*
X487245D02*
X487361Y369347D01*
X487536Y369427*
X487594*
X487768Y369347*
X487885Y369187*
X487885D02*
X487943Y368868D01*
Y368468*
X487885Y368068*
X487768Y367828*
X487594Y367748*
X487478*
X487303Y367828*
X487245Y367988*
X488466Y368468D02*
X489513D01*
X490095Y369028D02*
Y369108D01*
X490153Y369267*
X490211Y369347*
X490327Y369427*
X490560*
X490676Y369347*
X490735Y369267*
X490793Y369108*
Y368948*
X490735Y368788*
X490618Y368548*
X490037Y367748*
X490851*
X491665Y369427D02*
X491491Y369347D01*
X491433Y369187*
X491433D02*
Y369028D01*
X491491Y368868*
X491607Y368788*
X491840Y368708*
X492014Y368628*
X492130Y368468*
X492189Y368308*
Y368068*
X492130Y367908*
X492072Y367828*
X491898Y367748*
X491665*
X491491Y367828*
X491433Y367908*
X491374Y368068*
Y368308*
X491433Y368468*
X491549Y368628*
X491723Y368708*
X491956Y368788*
X492072Y368868*
X492130Y369028*
Y369187*
X492130D02*
X492072Y369347D01*
X491898Y369427*
X491665*
X493003D02*
X492828Y369347D01*
X492770Y369187*
X492770D02*
Y369028D01*
X492828Y368868*
X492945Y368788*
X493177Y368708*
X493352Y368628*
X493468Y368468*
X493526Y368308*
Y368068*
X493468Y367908*
X493410Y367828*
X493236Y367748*
X493003*
X492828Y367828*
X492770Y367908*
X492712Y368068*
Y368308*
X492770Y368468*
X492887Y368628*
X493061Y368708*
X493294Y368788*
X493410Y368868*
X493468Y369028*
Y369187*
X493468D02*
X493410Y369347D01*
X493236Y369427*
X493003*
X494108Y369028D02*
Y369108D01*
X494166Y369267*
X494224Y369347*
X494341Y369427*
X494573*
X494690Y369347*
X494748Y369267*
X494806Y369108*
Y368948*
X494748Y368788*
X494631Y368548*
X494050Y367748*
X494864*
X475585Y373530D02*
Y371850D01*
Y372650D02*
X475759Y372890D01*
X475876Y372970*
X476050*
X476167Y372890*
X476225Y372650*
Y371850*
X476923Y373530D02*
Y372170D01*
X476981Y371930*
X477097Y371850*
X477213*
X476748Y372970D02*
X477155D01*
X477911Y373530D02*
Y372170D01*
X477969Y371930*
X478086Y371850*
X478202*
X477737Y372970D02*
X478144D01*
X478726D02*
Y371291D01*
Y372730D02*
X478842Y372890D01*
X478958Y372970*
X479133*
X479249Y372890*
X479365Y372730*
X479423Y372490*
Y372330*
X479365Y372090*
X479249Y371930*
X479133Y371850*
X478958*
X478842Y371930*
X478726Y372090*
X480005Y372970D02*
X479947Y372890D01*
X480005Y372810*
X480063Y372890*
X480005Y372970*
Y372010D02*
X479947Y371930D01*
X480005Y371850*
X480063Y371930*
X480005Y372010*
X481634Y373850D02*
X480587Y371291D01*
X483204Y373850D02*
X482157Y371291D01*
X483727Y372970D02*
X483960Y371850D01*
X484193Y372970D02*
X483960Y371850D01*
X484193Y372970D02*
X484425Y371850D01*
X484658Y372970D02*
X484425Y371850D01*
X485181Y372970D02*
X485414Y371850D01*
X485647Y372970D02*
X485414Y371850D01*
X485647Y372970D02*
X485879Y371850D01*
X486112Y372970D02*
X485879Y371850D01*
X486635Y372970D02*
X486868Y371850D01*
X487101Y372970D02*
X486868Y371850D01*
X487101Y372970D02*
X487333Y371850D01*
X487566Y372970D02*
X487333Y371850D01*
X488148Y372010D02*
X488089Y371930D01*
X488148Y371850*
X488206Y371930*
X488148Y372010*
X488787Y372970D02*
X489136Y371850D01*
X489485Y372970D02*
X489136Y371850D01*
X489020Y371531*
X488904Y371371*
X488787Y371291*
X488729*
X490299Y372970D02*
X490183Y372890D01*
X490067Y372730*
X490009Y372490*
Y372330*
X490067Y372090*
X490183Y371930*
X490299Y371850*
X490474*
X490590Y371930*
X490707Y372090*
X490765Y372330*
Y372490*
X490707Y372730*
X490590Y372890*
X490474Y372970*
X490299*
X491288D02*
Y372170D01*
X491346Y371930*
X491463Y371850*
X491637*
X491753Y371930*
X491928Y372170*
Y372970D02*
Y371850D01*
X492451Y373530D02*
X492510Y373450D01*
X492568Y373530*
X492510Y373610*
X492451Y373530*
X492510Y372970D02*
Y371850D01*
X493091Y373530D02*
Y371850D01*
X494313Y372730D02*
X494196Y372890D01*
X494080Y372970*
X493905*
X493789Y372890*
X493673Y372730*
X493615Y372490*
Y372330*
X493673Y372090*
X493789Y371930*
X493905Y371850*
X494080*
X494196Y371930*
X494313Y372090*
X495534Y372970D02*
Y371850D01*
Y372730D02*
X495418Y372890D01*
X495301Y372970*
X495127*
X495010Y372890*
X494894Y372730*
X494836Y372490*
Y372330*
X494894Y372090*
X495010Y371930*
X495127Y371850*
X495301*
X495418Y371930*
X495534Y372090*
X496755Y373530D02*
Y371850D01*
Y372730D02*
X496639Y372890D01*
X496523Y372970*
X496348*
X496232Y372890*
X496116Y372730*
X496057Y372490*
Y372330*
X496116Y372090*
X496232Y371930*
X496348Y371850*
X496523*
X496639Y371930*
X496755Y372090*
X497337Y372010D02*
X497279Y371930D01*
X497337Y371850*
X497395Y371930*
X497337Y372010*
X498616Y372730D02*
X498500Y372890D01*
X498384Y372970*
X498209*
X498093Y372890*
X497977Y372730*
X497918Y372490*
Y372330*
X497977Y372090*
X498093Y371930*
X498209Y371850*
X498384*
X498500Y371930*
X498616Y372090*
X499431Y372970D02*
X499314Y372890D01*
X499198Y372730*
X499140Y372490*
Y372330*
X499198Y372090*
X499314Y371930*
X499431Y371850*
X499605*
X499721Y371930*
X499838Y372090*
X499896Y372330*
Y372490*
X499838Y372730*
X499721Y372890*
X499605Y372970*
X499431*
X500478Y372010D02*
X500419Y371930D01*
X500478Y371850*
X500536Y371930*
X500478Y372010*
X501059Y373530D02*
Y371850D01*
X501641Y372970D02*
X501059Y372170D01*
X501292Y372490D02*
X501699Y371850D01*
X502222Y372970D02*
Y371850D01*
Y372490D02*
X502280Y372730D01*
X502280D02*
X502397Y372890D01*
X502513Y372970*
X502688*
X446358Y370372D02*
Y368189D01*
Y370372D02*
X446888D01*
X447114Y370268*
X447266Y370060*
X447341Y369852*
X447417Y369540*
Y369020*
X447341Y368708*
X447266Y368501*
X447114Y368293*
X446888Y368189*
X446358*
X448097Y370372D02*
Y368189D01*
Y370372D02*
X449080D01*
X448097Y369332D02*
X448702D01*
X448097Y368189D02*
X449080D01*
X450819Y370060D02*
X450668Y370268D01*
X450441Y370372*
X450139*
X449912Y370268*
X449761Y370060*
Y369852*
X449836Y369644*
X449912Y369540*
X450063Y369436*
X450517Y369228*
X450668Y369124*
X450744Y369020*
X450819Y368812*
Y368501*
X450668Y368293*
X450441Y368189*
X450139*
X449912Y368293*
X449761Y368501*
X451500Y370372D02*
Y368189D01*
X453314Y369852D02*
X453239Y370060D01*
X453087Y370268*
X452936Y370372*
X452634*
X452483Y370268*
X452331Y370060*
X452256Y369852*
X452180Y369540*
Y369020*
X452256Y368708*
X452331Y368501*
X452483Y368293*
X452634Y368189*
X452936*
X453087Y368293*
X453239Y368501*
X453314Y368708*
Y369020*
X452936D02*
X453314D01*
X453995Y370372D02*
Y368189D01*
Y370372D02*
X455053Y368189D01*
Y370372D02*
Y368189D01*
X455734Y370372D02*
Y368189D01*
Y370372D02*
X456717D01*
X455734Y369332D02*
X456339D01*
X455734Y368189D02*
X456717D01*
X457397Y370372D02*
Y368189D01*
Y370372D02*
X458078D01*
X458304Y370268*
X458380Y370164*
X458456Y369956*
Y369748*
X458380Y369540*
X458304Y369436*
X458078Y369332*
X457397*
X457926D02*
X458456Y368189D01*
X447417Y380296D02*
X447266Y380504D01*
X447039Y380608*
X446736*
X446509Y380504*
X446358Y380296*
Y380088*
X446434Y379880*
X446509Y379776*
X446661Y379672*
X447114Y379465*
X447266Y379361*
X447341Y379257*
X447417Y379049*
Y378737*
X447266Y378529*
X447039Y378425*
X446736*
X446509Y378529*
X446358Y378737*
X448627Y380608D02*
Y378425D01*
X448097Y380608D02*
X449156D01*
X450441D02*
X449836Y378425D01*
X450441Y380608D02*
X451046Y378425D01*
X450063Y379153D02*
X450819D01*
X452861Y380088D02*
X452785Y380296D01*
X452634Y380504*
X452483Y380608*
X452180*
X452029Y380504*
X451878Y380296*
X451802Y380088*
X451726Y379776*
Y379257*
X451802Y378945*
X451878Y378737*
X452029Y378529*
X452180Y378425*
X452483*
X452634Y378529*
X452785Y378737*
X452861Y378945*
Y379257*
X452483D02*
X452861D01*
X453541Y380608D02*
Y378425D01*
Y380608D02*
X454524D01*
X453541Y379568D02*
X454146D01*
X453541Y378425D02*
X454524D01*
X396457Y370372D02*
Y368189D01*
Y370372D02*
X396986D01*
X397213Y370268*
X397364Y370060*
X397440Y369852*
X397515Y369540*
Y369020*
X397440Y368708*
X397364Y368501*
X397213Y368293*
X396986Y368189*
X396457*
X398801Y370372D02*
X398196Y368189D01*
X398801Y370372D02*
X399405Y368189D01*
X398423Y368916D02*
X399179D01*
X400615Y370372D02*
Y368189D01*
X400086Y370372D02*
X401144D01*
X401825D02*
Y368189D01*
Y370372D02*
X402808D01*
X401825Y369332D02*
X402430D01*
X401825Y368189D02*
X402808D01*
X396457Y385726D02*
Y383543D01*
Y385726D02*
X397062Y383543D01*
X397666Y385726D02*
X397062Y383543D01*
X397666Y385726D02*
Y383543D01*
X398801Y385726D02*
X398649Y385622D01*
X398498Y385414*
X398423Y385206*
X398347Y384894*
X398347D02*
Y384375D01*
X398423Y384063*
X398498Y383855*
X398649Y383647*
X398801Y383543*
X399103*
X399254Y383647*
X399405Y383855*
X399481Y384063*
X399557Y384375*
Y384894*
X399557D02*
X399481Y385206D01*
X399405Y385414*
X399254Y385622*
X399103Y385726*
X398801*
X400237D02*
Y383543D01*
Y385726D02*
X400766D01*
X400993Y385622*
X401144Y385414*
X401220Y385206*
X401296Y384894*
X401296D02*
Y384375D01*
X401220Y384063*
X401144Y383855*
X400993Y383647*
X400766Y383543*
X400237*
X401976Y385726D02*
Y383543D01*
Y385726D02*
X402959D01*
X401976Y384687D02*
X402581D01*
X401976Y383543D02*
X402959D01*
X403639Y385726D02*
Y383543D01*
X404547*
X396457Y380608D02*
Y378425D01*
X397364*
X398649Y380608D02*
X398044Y378425D01*
X398649Y380608D02*
X399254Y378425D01*
X398271Y379153D02*
X399027D01*
X399935Y380608D02*
X400540Y379568D01*
Y378425*
X401144Y380608D02*
X400540Y379568D01*
X401825Y380608D02*
Y378425D01*
Y380608D02*
X402808D01*
X401825Y379568D02*
X402430D01*
X401825Y378425D02*
X402808D01*
X403488Y380608D02*
Y378425D01*
Y380608D02*
X404169D01*
X404396Y380504*
X404471Y380400*
X404547Y380192*
Y379984*
X404471Y379776*
X404396Y379672*
X404169Y379568*
X403488*
X404018D02*
X404547Y378425D01*
X397591Y374970D02*
X397515Y375178D01*
X397364Y375386*
X397213Y375490*
X396910*
X396759Y375386*
X396608Y375178*
X396532Y374970*
X396457Y374658*
Y374138*
X396532Y373827*
X396608Y373619*
X396759Y373411*
X396910Y373307*
X397213*
X397364Y373411*
X397515Y373619*
X397591Y373827*
X398725Y375490D02*
X398574Y375386D01*
X398423Y375178*
X398347Y374970*
X398271Y374658*
Y374138*
X398347Y373827*
X398423Y373619*
X398574Y373411*
X398725Y373307*
X399027*
X399179Y373411*
X399330Y373619*
X399405Y373827*
X399481Y374138*
Y374658*
X399405Y374970*
X399330Y375178*
X399179Y375386*
X399027Y375490*
X398725*
X400162D02*
Y373307D01*
Y375490D02*
X400766Y373307D01*
X401371Y375490D02*
X400766Y373307D01*
X401371Y375490D02*
Y373307D01*
X402052Y375490D02*
Y373307D01*
Y375490D02*
X402732D01*
X402959Y375386*
X403035Y375282*
X403110Y375074*
Y374762*
X403035Y374554*
X402959Y374450*
X402732Y374346*
X402052*
X404396Y375490D02*
X403791Y373307D01*
X404396Y375490D02*
X405000Y373307D01*
X404018Y374035D02*
X404774D01*
X405681Y375490D02*
Y373307D01*
Y375490D02*
X406739Y373307D01*
Y375490D02*
Y373307D01*
X407420Y375490D02*
X408025Y374450D01*
Y373307*
X408630Y375490D02*
X408025Y374450D01*
X462992Y370372D02*
Y368189D01*
X463899*
X464656Y368397D02*
X464580Y368293D01*
X464656Y368189*
X464731Y368293*
X464656Y368397*
X466470Y370060D02*
X466319Y370268D01*
X466092Y370372*
X465790*
X465563Y370268*
X465412Y370060*
Y369852*
X465487Y369644*
X465563Y369540*
X465714Y369436*
X466168Y369228*
X466319Y369124*
X466395Y369020*
X466470Y368812*
Y368501*
X466319Y368293*
X466092Y368189*
X465790*
X465563Y368293*
X465412Y368501*
X467226Y368397D02*
X467151Y368293D01*
X467226Y368189*
X467302Y368293*
X467226Y368397*
X467982Y370372D02*
Y368189D01*
X469041Y370372D02*
X467982Y368916D01*
X468360Y369436D02*
X469041Y368189D01*
X446888Y375490D02*
Y373307D01*
X446358Y375490D02*
X447417D01*
X448097D02*
Y373307D01*
X449156Y375490D02*
Y373307D01*
X448097Y374450D02*
X449156D01*
X449836Y375490D02*
Y373307D01*
X451651Y374970D02*
X451575Y375178D01*
X451424Y375386*
X451273Y375490*
X450970*
X450819Y375386*
X450668Y375178*
X450592Y374970*
X450517Y374658*
Y374138*
X450592Y373827*
X450668Y373619*
X450819Y373411*
X450970Y373307*
X451273*
X451424Y373411*
X451575Y373619*
X451651Y373827*
X452331Y375490D02*
Y373307D01*
X453390Y375490D02*
X452331Y374035D01*
X452709Y374554D02*
X453390Y373307D01*
X454070Y375490D02*
Y373307D01*
Y375490D02*
X455129Y373307D01*
Y375490D02*
Y373307D01*
X455809Y375490D02*
Y373307D01*
Y375490D02*
X456792D01*
X455809Y374450D02*
X456414D01*
X455809Y373307D02*
X456792D01*
X458531Y375178D02*
X458380Y375386D01*
X458153Y375490*
X457851*
X457624Y375386*
X457473Y375178*
Y374970*
X457548Y374762*
X457624Y374658*
X457775Y374554*
X458229Y374346*
X458380Y374242*
X458456Y374138*
X458531Y373931*
Y373619*
X458380Y373411*
X458153Y373307*
X457851*
X457624Y373411*
X457473Y373619*
X460270Y375178D02*
X460119Y375386D01*
X459892Y375490*
X459590*
X459363Y375386*
X459212Y375178*
Y374970*
X459287Y374762*
X459363Y374658*
X459514Y374554*
X459968Y374346*
X460119Y374242*
X460195Y374138*
X460270Y373931*
Y373619*
X460119Y373411*
X459892Y373307*
X459590*
X459363Y373411*
X459212Y373619*
X462992Y380608D02*
Y378425D01*
Y380608D02*
X463673D01*
X463899Y380504*
X463975Y380400*
X464051Y380192*
Y379984*
X463975Y379776*
X463899Y379672*
X463673Y379568*
X462992*
X463521D02*
X464051Y378425D01*
X464731Y380608D02*
Y378425D01*
Y380608D02*
X465714D01*
X464731Y379568D02*
X465336D01*
X464731Y378425D02*
X465714D01*
X466395Y380608D02*
X466999Y378425D01*
X467604Y380608D02*
X466999Y378425D01*
X469419Y380088D02*
X469343Y380296D01*
X469192Y380504*
X469041Y380608*
X468738*
X468587Y380504*
X468436Y380296*
X468360Y380088*
X468285Y379776*
Y379257*
X468360Y378945*
X468436Y378737*
X468587Y378529*
X468738Y378425*
X469041*
X469192Y378529*
X469343Y378737*
X469419Y378945*
X506496Y377901D02*
Y375886D01*
X507334*
X508101Y377901D02*
X508869D01*
X508450Y377133*
X508660*
X508799Y377037*
X508869Y376941*
X508939Y376654*
Y376462*
X508869Y376174*
X508729Y375982*
X508520Y375886*
X508311*
X508101Y375982*
X508031Y376078*
X507962Y376270*
X509567Y376750D02*
X510823D01*
X511451Y377901D02*
Y375886D01*
Y377901D02*
X512079D01*
X512289Y377805*
X512359Y377709*
X512428Y377517*
Y377229*
X512359Y377037*
X512289Y376941*
X512079Y376845*
X511451*
X513475Y377901D02*
X513336Y377805D01*
X513196Y377613*
X513126Y377421*
X513057Y377133*
Y376654*
X513126Y376366*
X513196Y376174*
X513336Y375982*
X513475Y375886*
X513754*
X513894Y375982*
X514034Y376174*
X514103Y376366*
X514173Y376654*
Y377133*
X514103Y377421*
X514034Y377613*
X513894Y377805*
X513754Y377901*
X513475*
X514801D02*
X515150Y375886D01*
X515499Y377901D02*
X515150Y375886D01*
X515499Y377901D02*
X515848Y375886D01*
X516197Y377901D02*
X515848Y375886D01*
X516825Y377901D02*
Y375886D01*
Y377901D02*
X517733D01*
X516825Y376941D02*
X517384D01*
X516825Y375886D02*
X517733D01*
X518361Y377901D02*
Y375886D01*
Y377901D02*
X518989D01*
X519198Y377805*
X519268Y377709*
X519338Y377517*
Y377325*
X519268Y377133*
X519198Y377037*
X518989Y376941*
X518361*
X518849D02*
X519338Y375886D01*
X411811Y380608D02*
Y378425D01*
X412718*
X413550Y380608D02*
X414382D01*
X413928Y379776*
X414155*
X414306Y379672*
X414382Y379568*
X414457Y379257*
Y379049*
X414382Y378737*
X414230Y378529*
X414004Y378425*
X413777*
X413550Y378529*
X413474Y378633*
X413399Y378841*
X415138Y379361D02*
X416499D01*
X417179Y380608D02*
Y378425D01*
X417860Y380608D02*
Y378425D01*
Y380608D02*
X418918Y378425D01*
Y380608D02*
Y378425D01*
X420128Y380608D02*
Y378425D01*
X419599Y380608D02*
X420657D01*
X421413Y380088D02*
Y380192D01*
X421489Y380400*
X421565Y380504*
X421716Y380608*
X422018*
X422169Y380504*
X422245Y380400*
X422321Y380192*
Y379984*
X422245Y379776*
X422094Y379465*
X421338Y378425*
X422396*
G54D26*
X434055Y422638D02*
Y424016D01*
X438583Y427165D02*
X437205D01*
X434055Y431693D02*
Y430315D01*
X429528Y427165D02*
X430906D01*
X526575Y421850D02*
Y420472D01*
X522047Y417323D02*
X523425D01*
X526575Y412795D02*
Y414173D01*
X531102Y417323D02*
X529724D01*
X509843Y421850D02*
Y420472D01*
X505315Y417323D02*
X506693D01*
X509843Y412795D02*
Y414173D01*
X514370Y417323D02*
X512992D01*
X450787Y412795D02*
Y414173D01*
X455315Y417323D02*
X453937D01*
X450787Y421850D02*
Y420472D01*
X446260Y417323D02*
X447638D01*
X560197Y482087D02*
Y480709D01*
X555472Y477362D02*
X556850D01*
X560197Y472638D02*
Y474016D01*
X535472Y477362D02*
X536850D01*
X540197Y472638D02*
Y474016D01*
G54D27*
X482283Y407480D03*
Y403543D03*
Y411417D03*
X467717Y532480D03*
X453740D03*
G54D31*
X540197Y477362D03*
X560197D03*
G54D54*
X509843Y417323D03*
X450787D03*
X526575D03*
X434055Y427165D03*
G54D67*
X484252Y449213D03*
X549409Y448819D03*
X428150Y454724D03*
Y457677D03*
X417323Y454724D03*
X427559Y473425D03*
X430315D03*
X461811Y455118D03*
X459449D03*
X504921Y459646D03*
X490354Y462008D03*
X484252Y454331D03*
X495079Y450787D03*
X487795Y462008D03*
X492126Y450787D03*
X502953Y499803D03*
X514764Y501969D03*
X537402Y494094D03*
X443898Y540551D03*
X438386Y557087D03*
G74*
X0Y0D02*
M02*
