*
*
G04 PADS Layout (Build Number 2006.45.1) generated Gerber (RS-274-X) file*
G04 PC Version=2.1*
*
%IN "COMMXEL_W-REVC(191008)-"*%
*
%MOIN*%
*
%FSLAX35Y35*%
*
*
*
*
G04 PC Standard Apertures*
*
*
G04 Thermal Relief Aperture macro.*
%AMTER*
1,1,$1,0,0*
1,0,$1-$2,0,0*
21,0,$3,$4,0,0,45*
21,0,$3,$4,0,0,135*
%
*
*
G04 Annular Aperture macro.*
%AMANN*
1,1,$1,0,0*
1,0,$2,0,0*
%
*
*
G04 Odd Aperture macro.*
%AMODD*
1,1,$1,0,0*
1,0,$1-0.005,0,0*
%
*
*
G04 PC Custom Aperture Macros*
*
*
*
*
*
*
G04 PC Aperture Table*
*
%ADD010C,0.00394*%
%ADD123C,0.00472*%
%ADD126C,0.00197*%
*
*
*
*
G04 PC Custom Flashes*
G04 Layer Name COMMXEL_W-REVC(191008)- - flashes*
%LPD*%
*
*
G04 PC Circuitry*
G04 Layer Name COMMXEL_W-REVC(191008)- - circuitry*
%LPD*%
*
G54D10*
G01X488780Y452362D02*
X486811D01*
X485827Y449213D02*
X486417Y448622D01*
X489173*
X489764Y449213*
Y455512*
X489173Y456102*
X486417*
X485827Y455512*
Y449213*
X471063Y452756D02*
X469094D01*
X468110Y449606D02*
X468701Y449016D01*
X471457*
X472047Y449606*
Y455906*
X471457Y456496*
X468701*
X468110Y455906*
Y449606*
X467323Y457283D02*
Y446654D01*
X462598*
Y457283*
X467323*
Y451969D02*
X465748D01*
X462598D02*
X464173D01*
X465748Y452756D02*
Y451181D01*
X464173Y452756D02*
Y451181D01*
X445669Y542323D02*
Y546260D01*
X442323*
X441929Y545866*
X441535Y546260*
X438189*
Y542323*
X441535*
X441929Y542717*
X442323Y542323*
X445669*
X424213Y468504D02*
X421260D01*
X418307*
Y460630*
X424213*
Y468504*
X425394Y459449D02*
X417126D01*
Y469685*
X425394*
Y459449*
X418307Y468504D02*
X417224Y469587D01*
X419291Y468504D02*
X418110Y469685D01*
X418307Y467520D02*
X417126Y468701D01*
X482283Y455709D02*
X474409D01*
Y447835D02*
X482283D01*
X479528Y455709D02*
Y456299D01*
X477165*
Y455709*
X479528*
X475394Y453150D02*
X473031D01*
Y455709*
X474409*
X460433Y462992D02*
Y458268D01*
X460039Y463189D02*
X468701D01*
Y458071*
X460039*
Y463189*
X459646D02*
X463780D01*
Y458071*
X459646*
Y463189*
X465354D02*
X463780Y460630D01*
X465354Y458071*
Y463189*
X427953Y546654D02*
Y541929D01*
X427559Y546850D02*
X436220D01*
Y541732*
X427559*
Y546850*
X427165D02*
X431299D01*
Y541732*
X427165*
Y546850*
X432874D02*
X431299Y544291D01*
X432874Y541732*
Y546850*
X519273Y465194D02*
Y465317D01*
X519363Y465563*
X519452Y465687*
X519631Y465810*
X519989*
X520168Y465687*
X520258Y465563*
X520347Y465317*
Y465071*
X520258Y464825*
X520079Y464456*
X519184Y463226*
X520437*
X522137Y465810D02*
X521242Y464087D01*
X522584*
X522137Y465810D02*
Y463226D01*
X454823Y469058D02*
X455002Y469181D01*
X455270Y469550*
Y466966*
X456970Y469550D02*
X456076Y467827D01*
X457418*
X456970Y469550D02*
Y466966D01*
X452944Y538152D02*
X453123Y538275D01*
X453391Y538644*
Y536061*
X533984Y523684D02*
Y521100D01*
X533357Y523684D02*
X534610D01*
X535415D02*
X536668Y521100D01*
Y523684D02*
X535415Y521100D01*
X537473Y523684D02*
Y521100D01*
Y523684D02*
X538099D01*
X538099D02*
X538368Y523561D01*
X538547Y523314*
X538636Y523068*
X538726Y522699*
Y522084*
X538636Y521715*
X538547Y521469*
X538368Y521223*
X538099Y521100*
X538099D02*
X537473D01*
X533357Y518762D02*
Y516179D01*
Y518762D02*
X534162D01*
X534431Y518639*
X534520Y518516*
X534610Y518270*
Y518024*
X534520Y517778*
X534431Y517655*
X534162Y517532*
X533357*
X533984D02*
X534610Y516179D01*
X535415Y518762D02*
X536668Y516179D01*
Y518762D02*
X535415Y516179D01*
X537473Y518762D02*
Y516179D01*
Y518762D02*
X538099D01*
X538099D02*
X538368Y518639D01*
X538547Y518393*
X538636Y518147*
X538726Y517778*
Y517163*
X538636Y516794*
X538547Y516548*
X538368Y516302*
X538099Y516179*
X538099D02*
X537473D01*
X466043Y464924D02*
X466222Y465047D01*
X466491Y465416*
Y462832*
X468459Y465416D02*
X467564D01*
X467475Y464309*
X467564Y464432*
X467833Y464555*
X468101*
X468370Y464432*
X468549Y464186*
X468638Y463816*
X468549Y463570*
X468459Y463201*
X468280Y462955*
X468012Y462832*
X467743*
X467475Y462955*
X467385Y463078*
X467296Y463324*
X530297Y468935D02*
Y469058D01*
X530387Y469304*
X530476Y469427*
X530655Y469550*
X531013*
X531192Y469427*
X531281Y469304*
X531371Y469058*
Y468812*
X531281Y468565*
X531102Y468196*
X530208Y466966*
X531460*
X533429Y469550D02*
X532534D01*
X532445Y468442*
X532534Y468565*
X532802Y468688*
X533071*
X533339Y468565*
X533518Y468319*
X533608Y467950*
X533518Y467704*
X533429Y467335*
X533250Y467089*
X532981Y466966*
X532713*
X532445Y467089*
X532355Y467212*
X532266Y467458*
X531416Y543369D02*
X532400D01*
X531863Y542384*
X532131*
X532310Y542261*
X532400Y542138*
X532489Y541769*
Y541523*
X532400Y541154*
X532221Y540908*
X531952Y540785*
X531684*
X531416Y540908*
X531326Y541031*
X531237Y541277*
X533742Y543369D02*
X533474Y543246D01*
X533384Y543000*
Y542753*
X533474Y542507*
X533652Y542384*
X534010Y542261*
X534279Y542138*
X534458Y541892*
X534547Y541646*
Y541277*
X534458Y541031*
X534368Y540908*
X534100Y540785*
X533742*
X533474Y540908*
X533384Y541031*
X533295Y541277*
Y541646*
X533384Y541892*
X533563Y542138*
X533831Y542261*
X534189Y542384*
X534368Y542507*
X534458Y542753*
Y543000*
X534368Y543246*
X534100Y543369*
X533742*
X529528Y539764D02*
Y563976D01*
X458661*
Y539764*
X529528D02*
Y566929D01*
X458661*
Y539764*
X519291Y466535D02*
X529528D01*
Y470079*
X458661Y539764D02*
X529528D01*
X456102D02*
Y535039D01*
X465157*
Y539764*
X456102*
Y537303D02*
X454921Y538878D01*
Y535728*
X456102Y537303*
X468898Y466535D02*
X458661D01*
Y470079*
X446850Y468504D02*
Y470472D01*
X444882*
X446850Y456693D02*
Y454724D01*
X444882*
X433071Y470472D02*
X431102D01*
Y468504*
Y456693D02*
Y454724D01*
X433071*
X431890Y470472D02*
X431102Y469685D01*
X432283Y470472D02*
X431102Y469291D01*
X431496Y470472D02*
X431102Y470079D01*
X441929Y472244D02*
Y472835D01*
X431102Y468504D02*
X429331D01*
Y466535*
X431102*
X429331Y459646D02*
X428740D01*
X439961Y452362D02*
Y452953D01*
X449213Y461614D02*
X448622D01*
X433071Y471260D02*
X430315D01*
Y468504*
X433071Y470472D02*
Y471260D01*
X444685Y468307D02*
X433268D01*
Y456890*
X444685*
Y468307*
X518504Y397638D02*
X503543D01*
Y437008*
X518504*
Y397638*
X509744D02*
X511614Y395768D01*
X507677*
X509547Y397638*
X442126Y437008D02*
X457087D01*
Y397638*
X442126*
Y437008*
X450886D02*
X449016Y438878D01*
X452953*
X451083Y437008*
X427165Y477756D02*
Y488780D01*
X423228*
Y477756*
X427165*
X425197Y482677D02*
Y483859D01*
X424606Y483268D02*
X425788D01*
X424212Y477756D02*
X426968Y480512D01*
X425197Y477756D02*
X427067Y479626D01*
X426181Y477756D02*
X427067Y478642D01*
X535236Y397638D02*
X520276D01*
Y446850*
X535236*
Y397638*
X526476Y397441D02*
X528346Y395571D01*
X524409*
X526280Y397441*
X425394Y446850D02*
X440354D01*
Y397638*
X425394*
Y446850*
X434154Y447047D02*
X432283Y448917D01*
X436220*
X434350Y447047*
X421877Y474606D02*
G75*
G03Y473425I-458J-591D01*
Y472243I-458J-591*
G01X421850Y474606D02*
Y475787D01*
Y472244D02*
Y471063D01*
X416732Y475787D02*
X425787D01*
X416732Y471063D02*
X425787D01*
X438976Y488780D02*
Y477756D01*
X442913*
Y488780*
X438976*
X440945Y483859D02*
Y482677D01*
X441536Y483268D02*
X440354D01*
X441929Y488779D02*
X439173Y486023D01*
X440945Y488780D02*
X439075Y486909D01*
X439961Y488780D02*
X439075Y487894D01*
X413386Y474360D02*
Y478297D01*
X411713*
X403642*
X413386Y452707D02*
Y448770D01*
X411713*
X404035*
X395374Y478297D02*
X393701D01*
X388583*
Y448770*
X393701*
X394980*
X393701D02*
Y463533D01*
Y478297*
X413390Y468701D02*
X414571Y470276D01*
Y467126*
X413390Y468701*
X478150Y458661D02*
Y462598D01*
X474803*
X474409Y462205*
X474016Y462598*
X470669*
Y458661*
X474016*
X474409Y459055*
X474803Y458661*
X478150*
X424213Y456693D02*
Y454724D01*
X427362Y453740D02*
X427953Y454331D01*
Y457087*
X427362Y457677*
X421063*
X420472Y457087*
Y454331*
X421063Y453740*
X427362*
X440551Y555118D02*
G03X440551I-3543J0D01*
G01X444882Y550492D02*
Y549409D01*
X429134*
Y550492*
X444882Y559843D02*
Y560827D01*
X429134*
Y559843*
X437402Y555118D02*
X436614D01*
X437008Y554724D02*
Y555512D01*
X406102Y433071D02*
G03X406102I-3543J0D01*
G01X407185Y440945D02*
X408268D01*
Y425197*
X407185*
X397835Y440945D02*
X396850D01*
Y425197*
X397835*
X402559Y433465D02*
Y432677D01*
X402953Y433071D02*
X402165D01*
X496850Y419488D02*
Y428150D01*
X494094Y430906*
X464961*
G03X463780Y429724I-0J-1182*
G01Y419488*
Y409252D02*
Y399016D01*
G03X464961Y397835I1181J-0*
G01X494094*
X496850Y400591*
Y409252*
X480315Y430118D02*
Y398622D01*
X480115Y419870D02*
X465551D01*
X480115Y420470D02*
X465748D01*
X480115Y421070D02*
X466142D01*
X479815Y421870D02*
X466535D01*
X480315Y422370D02*
X466732D01*
X480315Y422870D02*
X467126D01*
X480315Y423370D02*
X467520D01*
X479815Y423870D02*
X467913D01*
X479815Y424370D02*
X468307D01*
X480315Y424870D02*
X468701D01*
X480315Y408870D02*
X465551D01*
X480315Y408370D02*
X465748D01*
X480315Y407870D02*
X471315D01*
X480315Y407370D02*
X471815D01*
X480315Y406870D02*
X472315D01*
X479815Y406370D02*
X472815D01*
X480315Y405870D02*
X473315D01*
X480315Y405370D02*
X473815D01*
X480315Y404870D02*
X474315D01*
X480315Y404370D02*
X475315D01*
X480315Y403870D02*
X476315D01*
X480315Y403370D02*
X478815D01*
X480315Y403740D02*
X476772D01*
X465945Y408071D02*
X480315D01*
Y407677D02*
X466142D01*
X480315Y407283D02*
X466339D01*
X466535Y406890D02*
X480315D01*
Y406496D02*
X466732D01*
X466929Y406102D02*
X480315D01*
Y405709D02*
X467323D01*
X467520Y405315D02*
X480315D01*
Y404921D02*
X467717D01*
X468110Y404528D02*
X480315D01*
Y404134D02*
X468504D01*
X468898Y403740D02*
X480315D01*
Y403346D02*
X469291D01*
X480315Y402953D02*
X469488D01*
X469094Y403543D02*
X479921D01*
X480118Y408661D02*
X465748D01*
Y420276D02*
X480118D01*
Y420866D02*
X465945D01*
X466535Y421654D02*
X480118D01*
Y421260D02*
X466142D01*
X465945Y420669D02*
X480118D01*
Y422047D02*
X466732D01*
X466929Y422638D02*
X480118D01*
Y423228D02*
X467323D01*
Y423031D02*
X480118D01*
X480315Y423819D02*
X467913D01*
X467717Y423622D02*
X480118D01*
X480315Y424213D02*
X468110D01*
X468504Y424606D02*
X480118D01*
X480315Y425000D02*
X468898D01*
X469094Y425394D02*
X480118D01*
X480315Y425787D02*
X469685D01*
X480315Y426181D02*
X470079D01*
X480315Y426378D02*
X470276D01*
X479921Y419882D02*
Y409252D01*
X479528Y419882D02*
Y409252D01*
X479134Y419685D02*
Y409252D01*
X478740Y419685D02*
Y409252D01*
X478346Y419488D02*
Y409252D01*
X480315Y402559D02*
X470079D01*
X480315Y402165D02*
X470472D01*
X480315Y401772D02*
X471063D01*
X480315Y401378D02*
X471654D01*
X480315Y400984D02*
X472244D01*
X480315Y400591D02*
X472835D01*
X480315Y400197D02*
X473622D01*
X480315Y399803D02*
X474606D01*
X480315Y399409D02*
X475787D01*
X480315Y399016D02*
X477165D01*
X480315Y426772D02*
X470669D01*
X480315Y427165D02*
X471260D01*
X480315Y427559D02*
X471850D01*
X480315Y427953D02*
X472441D01*
X480315Y428346D02*
X473228D01*
X480315Y428740D02*
X474016D01*
X480315Y429134D02*
X475197D01*
X480315Y429528D02*
X476378D01*
X480315Y429921D02*
X478543D01*
X477953Y424213D02*
Y407087D01*
X477362Y419882D02*
Y408071D01*
X477756Y419094D02*
Y409252D01*
X495276Y419487D02*
G03X465354I-14961J-5210D01*
G01Y409253D02*
G03X495276I14961J5210D01*
G01X465354Y419488D02*
X480315D01*
X465354Y409252D02*
X480315D01*
X477165Y419488D02*
Y409252D01*
X548228Y428150D02*
Y467520D01*
X549016Y455709D02*
Y465256D01*
Y430413D02*
Y439961D01*
X549803Y455709D02*
Y465256D01*
Y430413D02*
Y439961D01*
X553740Y465256D02*
Y467520D01*
Y428150D02*
Y430413D01*
X557283Y465256D02*
Y467520D01*
Y428150D02*
Y430413D01*
X563976Y440846D02*
Y439075D01*
Y448720D02*
Y446949D01*
Y456594D02*
Y454823D01*
X564961Y465256D02*
Y430413D01*
X565748Y465256D02*
Y430413D01*
X566732Y428150D02*
Y467520D01*
X565748Y430413D02*
X549016D01*
X564961Y439075D02*
X563976D01*
X548228Y439961D02*
X549803D01*
X564961Y440846D02*
X563976D01*
X564961Y446949D02*
X563976D01*
X564961Y448720D02*
X563976D01*
X564961Y454823D02*
X563976D01*
X548228Y455709D02*
X549803D01*
X564961Y456594D02*
X563976D01*
X565748Y465256D02*
X549016D01*
X566732Y428150D02*
X548228D01*
X566732Y467520D02*
X548228D01*
X555118Y428130D02*
X553150Y426850D01*
X557087*
X555118Y428130*
X553819Y427165D02*
X556535D01*
X554370Y427480D02*
X555984D01*
X554764Y427835D02*
X555433D01*
X535197Y472362D02*
Y482362D01*
X565197*
Y472362*
X535197*
X540118Y482362D02*
X542618Y484862D01*
X537618*
X540118Y482362*
X421654Y441142D02*
X416929D01*
X421850Y441535D02*
Y432874D01*
X416732*
Y441535*
X421850*
Y441929D02*
Y437795D01*
X416732*
Y441929*
X421850*
Y436220D02*
X419291Y437795D01*
X416732Y436220*
X421850*
X417323Y423425D02*
X421260D01*
Y426772*
X420866Y427165*
X421260Y427559*
Y430906*
X417323*
Y427559*
X417717Y427165*
X417323Y426772*
Y423425*
X516732Y458465D02*
X512795D01*
Y455118*
X513189Y454724*
X512795Y454331*
Y450984*
X516732*
Y454331*
X516339Y454724*
X516732Y455118*
Y458465*
X511811D02*
X507874D01*
Y455118*
X508268Y454724*
X507874Y454331*
Y450984*
X511811*
Y454331*
X511417Y454724*
X511811Y455118*
Y458465*
X539961Y438583D02*
Y449213D01*
X544685*
Y438583*
X539961*
Y443898D02*
X540748D01*
X541535Y443110*
X543110Y444685*
X543898Y443898*
X544685*
X397480Y537795D02*
X417480D01*
Y487795*
X397480*
Y537795*
X417323Y532480D02*
X420276Y537402D01*
Y527559*
X417323Y532480*
X563150Y487795D02*
X543150D01*
Y537795*
X563150*
Y487795*
X543307Y493110D02*
X540354Y488189D01*
Y498031*
X543307Y493110*
X503937Y454724D02*
X505906D01*
X506890Y457874D02*
X506299Y458465D01*
X503543*
X502953Y457874*
Y451575*
X503543Y450984*
X506299*
X506890Y451575*
Y457874*
X525394Y458465D02*
X521457D01*
Y455118*
X521850Y454724*
X521457Y454331*
Y450984*
X525394*
Y454331*
X525000Y454724*
X525394Y455118*
Y458465*
X487365Y445285D02*
X487119Y445195D01*
X486873Y445016*
X486750Y444837*
Y444479*
X486873Y444300*
X487119Y444121*
X487365Y444032*
X487734Y443942*
X488349*
X488718Y444032*
X488964Y444121*
X489210Y444300*
X489333Y444479*
Y444837*
X489210Y445016*
X488964Y445195*
X488718Y445285*
X486750Y446985D02*
X488472Y446090D01*
Y447432*
X486750Y446985D02*
X489333D01*
X469451Y445481D02*
X469205Y445392D01*
X468959Y445213*
X468836Y445034*
Y444676*
X468959Y444497*
X469205Y444318*
X469451Y444229*
X469820Y444139*
X470436*
X470805Y444229*
X471051Y444318*
X471297Y444497*
X471420Y444676*
Y445034*
X471297Y445213*
X471051Y445392*
X470805Y445481*
X468836Y447450D02*
Y446555D01*
X469943Y446466*
X469820Y446555*
X469697Y446824*
Y447092*
X469820Y447360*
X470066Y447539*
X470436Y447629*
X470682Y447539*
X471051Y447450*
X471297Y447271*
X471420Y447003*
Y446734*
X471297Y446466*
X471174Y446376*
X470928Y446287*
X463521Y439809D02*
X466105D01*
X463521D02*
Y440435D01*
X463644Y440703*
X463890Y440882*
X464136Y440972*
X464505Y441061*
X465121*
X465490Y440972*
X465736Y440882*
X465982Y440703*
X466105Y440435*
Y439809*
X464136Y443209D02*
X463890Y443119D01*
X463644Y442940*
X463521Y442761*
Y442403*
X463644Y442224*
X463890Y442045*
X464136Y441956*
X464505Y441866*
X464505D02*
X465121D01*
X465121D02*
X465490Y441956D01*
X465736Y442045*
X465982Y442224*
X466105Y442403*
Y442761*
X465982Y442940*
X465736Y443119*
X465490Y443209*
X464136Y444103D02*
X464013D01*
X463767Y444193*
X463644Y444282*
X463521Y444461*
Y444819*
X463644Y444998*
X463767Y445088*
X464013Y445177*
X464259*
X464505Y445088*
X464875Y444909*
X466105Y444014*
Y445267*
X439504Y540613D02*
Y538029D01*
Y540613D02*
X440310D01*
X440578Y540490*
X440668Y540367*
X440757Y540121*
Y539875*
X440668Y539628*
X440578Y539505*
X440310Y539382*
X439504*
X440131D02*
X440757Y538029D01*
X441652Y539998D02*
Y540121D01*
X441741Y540367*
X441831Y540490*
X442010Y540613*
X442368*
X442547Y540490*
X442636Y540367*
X442725Y540121*
Y539875*
X442636Y539628*
X442457Y539259*
X441562Y538029*
X442815*
X426316Y462384D02*
X428162D01*
X428531Y462473*
X428777Y462652*
X428900Y462921*
Y463100*
X428900D02*
X428777Y463368D01*
X428531Y463547*
X428162Y463636*
X426316*
X427178Y465605D02*
X427547Y465515D01*
X427793Y465336*
X427916Y465068*
Y464979*
X427793Y464710*
X427547Y464531*
X427178Y464442*
X427055*
X426686Y464531*
X426439Y464710*
X426316Y464979*
Y465068*
X426439Y465336*
X426686Y465515*
X427178Y465605*
X427793*
X428408Y465515*
X428777Y465336*
X428900Y465068*
Y464889*
X428777Y464621*
X428531Y464531*
X476118Y446912D02*
Y445066D01*
X476208Y444697*
X476387Y444451*
X476655Y444328*
X476834*
X477103Y444451*
X477282Y444697*
X477371Y445066*
Y446912*
X478355D02*
X479340D01*
X478803Y445928*
X479071*
X479250Y445805*
X479340Y445682*
X479429Y445313*
X479429D02*
Y445066D01*
X479340Y444697*
X479161Y444451*
X478892Y444328*
X478624*
X478355Y444451*
X478266Y444574*
X478176Y444820*
X455261Y461873D02*
Y459289D01*
Y461873D02*
X455888D01*
X456156Y461750*
X456335Y461503*
X456424Y461257*
X456514Y460888*
Y460273*
X456424Y459904*
X456335Y459658*
X456156Y459412*
X455888Y459289*
X455261*
X457319Y461380D02*
X457498Y461503D01*
X457767Y461873*
Y459289*
X429662Y540613D02*
Y538029D01*
Y540613D02*
X430288D01*
X430557Y540490*
X430736Y540244*
X430825Y539998*
X430914Y539628*
Y539013*
X430825Y538644*
X430736Y538398*
X430557Y538152*
X430288Y538029*
X429662*
X431809Y539998D02*
Y540121D01*
X431899Y540367*
X431988Y540490*
X432167Y540613*
X432525*
X432704Y540490*
X432793Y540367*
X432883Y540121*
Y539875*
X432793Y539628*
X432615Y539259*
X431720Y538029*
X432972*
X453686Y543762D02*
Y541917D01*
X453776Y541548*
X453955Y541302*
X454223Y541179*
X454402*
X454671Y541302*
X454850Y541548*
X454939Y541917*
Y543762*
X455744Y543270D02*
X455923Y543393D01*
X456192Y543762*
Y541179*
X436748Y475062D02*
Y473216D01*
X436838Y472847*
X437017Y472601*
X437285Y472478*
X437464*
X437733Y472601*
X437912Y472847*
X438001Y473216*
Y475062*
X439254D02*
X438985Y474938D01*
X438896Y474692*
Y474446*
X438985Y474200*
X439164Y474077*
X439522Y473954*
X439791Y473831*
X439970Y473585*
X440059Y473339*
Y472970*
X439970Y472724*
X439880Y472601*
X439612Y472478*
X439254*
X438985Y472601*
X438896Y472724*
X438806Y472970*
Y473339*
X438896Y473585*
X439075Y473831*
X439343Y473954*
X439701Y474077*
X439880Y474200*
X439970Y474446*
Y474692*
X439880Y474938*
X439612Y475062*
X439254*
X500626Y400062D02*
Y398093D01*
X500537Y397724*
X500447Y397601*
X500268Y397478*
X500089*
X499911Y397601*
X499821Y397724*
X499732Y398093*
Y398339*
X501432Y399569D02*
X501611Y399692D01*
X501879Y400062*
Y397478*
X459279Y400455D02*
Y398487D01*
X459189Y398118*
X459100Y397995*
X458921Y397872*
X458742*
X458563Y397995*
X458474Y398118*
X458384Y398487*
Y398733*
X460174Y399840D02*
Y399963D01*
X460263Y400209*
X460353Y400332*
X460531Y400455*
X460889*
X461068Y400332*
X461158Y400209*
X461247Y399963*
Y399717*
X461158Y399471*
X460979Y399102*
X460084Y397872*
X461337*
X424606Y492581D02*
X424427Y492458D01*
X424248Y492212*
X424159Y491966*
X424069Y491597*
Y490982*
X424159Y490613*
X424248Y490367*
X424427Y490121*
X424606Y489998*
X424964*
X425143Y490121*
X425322Y490367*
X425412Y490613*
X425501Y490982*
Y491597*
X425412Y491966*
X425322Y492212*
X425143Y492458*
X424964Y492581*
X424606*
X424875Y490490D02*
X425412Y489751D01*
X426306Y492089D02*
X426485Y492212D01*
X426754Y492581*
Y489998*
X537581Y400455D02*
Y398487D01*
X537491Y398118*
X537402Y397995*
X537223Y397872*
X537044*
X536865Y397995*
X536775Y398118*
X536686Y398487*
Y398733*
X539281Y400455D02*
X538386Y398733D01*
X539728*
X539281Y400455D02*
Y397872D01*
X421242Y400849D02*
Y398880D01*
X421152Y398511*
X421063Y398388*
X420884Y398265*
X420705*
X420526Y398388*
X420437Y398511*
X420347Y398880*
Y399126*
X423210Y400849D02*
X422316D01*
X422226Y399742*
X422316Y399865*
X422584Y399988*
X422853*
X423121Y399865*
X423300Y399619*
X423389Y399250*
X423300Y399003*
X423210Y398634*
X423031Y398388*
X423031D02*
X422763Y398265D01*
X422495*
X422226Y398388*
X422137Y398511*
X422047Y398757*
X426915Y475062D02*
Y472478D01*
Y475062D02*
X428078D01*
X426915Y473831D02*
X427631D01*
X428883Y475062D02*
Y472478D01*
Y475062D02*
X429689D01*
X429957Y474938*
X430047Y474815*
X430136Y474569*
Y474323*
X430047Y474077*
X429957Y473954*
X429689Y473831*
X428883D02*
X429689D01*
X429957Y473708*
X430047Y473585*
X430136Y473339*
Y472970*
X430047Y472724*
X429957Y472601*
X429689Y472478*
X428883*
X430941Y474569D02*
X431120Y474692D01*
X431389Y475062*
Y472478*
X439558Y492188D02*
X439379Y492064D01*
X439200Y491818*
X439111Y491572*
X439021Y491203*
Y490588*
X439111Y490219*
X439200Y489973*
X439379Y489727*
X439558Y489604*
X439916*
X440095Y489727*
X440274Y489973*
X440363Y490219*
X440453Y490588*
Y491203*
X440363Y491572*
X440274Y491818*
X440095Y492064*
X439916Y492188*
X439916D02*
X439558D01*
X439826Y490096D02*
X440363Y489358D01*
X441348Y491572D02*
Y491695D01*
X441437Y491941*
X441526Y492064*
X441705Y492188*
X441705D02*
X442063D01*
X442063D02*
X442242Y492064D01*
X442332Y491941*
X442421Y491695*
Y491449*
X442332Y491203*
X442153Y490834*
X441258Y489604*
X442511*
X396725Y483723D02*
Y481754D01*
X396636Y481385*
X396546Y481262*
X396367Y481139*
X396188*
X396009Y481262*
X395920Y481385*
X395830Y481754*
Y482000*
X398604Y483354D02*
X398515Y483600D01*
X398246Y483723*
X398067*
X397799Y483600*
X397620Y483231*
X397530Y482616*
Y482000*
X397620Y481508*
X397799Y481262*
X398067Y481139*
X398157*
X398425Y481262*
X398604Y481508*
X398694Y481877*
Y482000*
X398604Y482370*
X398425Y482616*
X398157Y482739*
X398067*
X397799Y482616*
X397620Y482370*
X397530Y482000*
X479277Y461676D02*
Y459092D01*
Y461676D02*
X480082D01*
X480351Y461553*
X480440Y461430*
X480530Y461184*
Y460938*
X480530D02*
X480440Y460691D01*
X480351Y460568*
X480082Y460445*
X479277*
X479903D02*
X480530Y459092D01*
X481335Y461184D02*
X481514Y461307D01*
X481782Y461676*
Y459092*
X423049Y452005D02*
X422960Y452251D01*
X422781Y452498*
X422602Y452621*
X422244*
X422065Y452498*
X421886Y452251*
X421797Y452005*
X421707Y451636*
Y451021*
X421797Y450652*
X421886Y450406*
X422065Y450160*
X422244Y450037*
X422602*
X422781Y450160*
X422960Y450406*
X423049Y450652*
X423855Y452128D02*
X424034Y452251D01*
X424302Y452621*
Y450037*
X426360Y452621D02*
X425465Y450037D01*
X425107Y452621D02*
X426360D01*
X429232Y564653D02*
X429053Y564899D01*
X428785Y565022*
X428427*
X428159Y564899*
X427980Y564653*
Y564407*
X428069Y564161*
X428159Y564038*
X428338Y563915*
X428874Y563669*
X429053Y563546*
X429143Y563423*
X429232Y563177*
Y562808*
X429053Y562562*
X428785Y562438*
X428427*
X428159Y562562*
X427980Y562808*
X430038Y565022D02*
X430485Y562438D01*
X430932Y565022D02*
X430485Y562438D01*
X430932Y565022D02*
X431380Y562438D01*
X431827Y565022D02*
X431380Y562438D01*
X432632Y564530D02*
X432811Y564653D01*
X433080Y565022*
Y562438*
X409756Y436113D02*
X409510Y435934D01*
X409387Y435666*
Y435308*
X409510Y435039*
X409756Y434860*
X410002*
X410249Y434950*
X410372Y435039*
X410495Y435218*
X410741Y435755*
X410864Y435934*
X410987Y436024*
X411233Y436113*
X411602*
X411848Y435934*
X411971Y435666*
Y435308*
X411848Y435039*
X411602Y434860*
X409387Y436918D02*
X411971Y437366D01*
X409387Y437813D02*
X411971Y437366D01*
X409387Y437813D02*
X411971Y438261D01*
X409387Y438708D02*
X411971Y438261D01*
X410002Y439603D02*
X409879D01*
X409633Y439692*
X409510Y439782*
X409387Y439961*
Y440319*
X409510Y440497*
X409633Y440587*
X409879Y440676*
X410125*
X410372Y440587*
X410741Y440408*
X411971Y439513*
Y440766*
X480565Y434289D02*
X480476Y434535D01*
X480297Y434781*
X480118Y434904*
X479760*
X479581Y434781*
X479402Y434535*
X479313Y434289*
X479223Y433920*
Y433305*
X479313Y432936*
X479402Y432689*
X479581Y432443*
X479760Y432320*
X480118*
X480297Y432443*
X480476Y432689*
X480565Y432936*
X481818Y434904D02*
X481550Y434781D01*
X481460Y434535*
Y434289*
X481550Y434043*
X481729Y433920*
X482087Y433797*
X482355Y433674*
X482534Y433428*
X482623Y433182*
Y432813*
X482623D02*
X482534Y432566D01*
X482445Y432443*
X482176Y432320*
X481818*
X481550Y432443*
X481460Y432566*
X481371Y432813*
X481371D02*
Y433182D01*
X481460Y433428*
X481639Y433674*
X481908Y433797*
X482266Y433920*
X482445Y434043*
X482534Y434289*
Y434535*
X482445Y434781*
X482176Y434904*
X481818*
X563216Y425652D02*
Y423684D01*
X563126Y423314*
X563037Y423191*
X562858Y423068*
X562679*
X562500Y423191*
X562411Y423314*
X562321Y423684*
Y423930*
X564200Y425652D02*
X565184D01*
X564647Y424668*
X564916*
X565095Y424545*
X565184Y424422*
X565274Y424053*
Y423807*
X565184Y423438*
X565184D02*
X565005Y423191D01*
X564737Y423068*
X564469*
X564200Y423191*
X564111Y423314*
X564021Y423561*
X536641Y488250D02*
Y486282D01*
X536552Y485913*
X536462Y485790*
X536283Y485667*
X536104*
X535925Y485790*
X535836Y485913*
X535746Y486282*
Y486528*
X538699Y488250D02*
X537804Y485667D01*
X537446Y488250D02*
X538699D01*
X413127Y436355D02*
X415711D01*
X413127D02*
Y436981D01*
X413250Y437249*
X413497Y437428*
X413743Y437518*
X414112Y437607*
X414727*
X415096Y437518*
X415342Y437428*
X415588Y437249*
X415711Y436981*
Y436355*
X413127Y439665D02*
X415711Y438771D01*
X413127Y438413D02*
Y439665D01*
X413521Y424499D02*
X416105D01*
X413521D02*
Y425304D01*
X413644Y425573*
X413767Y425662*
X414013Y425752*
X414259*
X414505Y425662*
X414628Y425573*
X414751Y425304*
Y424499*
Y425125D02*
X416105Y425752D01*
X414136Y426646D02*
X414013D01*
X413767Y426736*
X413644Y426825*
X413521Y427004*
Y427362*
X413644Y427541*
X413767Y427631*
X414013Y427720*
X414259*
X414505Y427631*
X414875Y427452*
X416105Y426557*
Y427810*
X413521Y428794D02*
Y429778D01*
X414505Y429241*
Y429510*
X414628Y429689*
X414751Y429778*
X415121Y429868*
X415367*
X415736Y429778*
X415982Y429599*
X416105Y429331*
Y429062*
X415982Y428794*
X415859Y428704*
X415613Y428615*
X513521Y443942D02*
X516105D01*
X513521D02*
Y444748D01*
X513644Y445016*
X513767Y445106*
X514013Y445195*
X514259*
X514505Y445106*
X514628Y445016*
X514751Y444748*
Y443942*
Y444569D02*
X516105Y445195D01*
X513521Y446895D02*
X515244Y446000D01*
Y447343*
X513521Y446895D02*
X516105D01*
X513521Y448685D02*
X513644Y448416D01*
X514013Y448237*
X514628Y448148*
X514998*
X515613Y448237*
X515982Y448416*
X516105Y448685*
Y448864*
X515982Y449132*
X515613Y449311*
X514998Y449401*
X514998D02*
X514628D01*
X514628D02*
X514013Y449311D01*
X513644Y449132*
X513521Y448864*
Y448685*
X508600Y444345D02*
X511184D01*
X508600D02*
Y445150D01*
X508723Y445419*
X508846Y445508*
X509092Y445598*
X509338*
X509584Y445508*
X509707Y445419*
X509830Y445150*
Y444345*
Y444971D02*
X511184Y445598D01*
X508600Y447298D02*
X510322Y446403D01*
Y447745*
X508600Y447298D02*
X511184D01*
X509092Y448550D02*
X508969Y448729D01*
X508600Y448998*
X511184*
X540883Y431541D02*
X543467D01*
X540883D02*
Y432346D01*
X541006Y432615*
X541129Y432704*
X541375Y432793*
X541622*
X541868Y432704*
X541991Y432615*
X542114Y432346*
Y431541*
Y432167D02*
X543467Y432793D01*
X541499Y433688D02*
X541375D01*
X541129Y433778*
X541006Y433867*
X540883Y434046*
Y434404*
X541006Y434583*
X541129Y434673*
X541375Y434762*
X541622*
X541868Y434673*
X542237Y434494*
X543467Y433599*
Y434851*
X540883Y436820D02*
Y435925D01*
X541991Y435836*
X541868Y435925*
X541745Y436194*
Y436462*
X541868Y436730*
X542114Y436909*
X542483Y436999*
X542729Y436909*
X543098Y436820*
X543344Y436641*
X543467Y436373*
Y436104*
X543344Y435836*
X543221Y435746*
X542975Y435657*
X422074Y532542D02*
Y530573D01*
X421985Y530204*
X421895Y530081*
X421716Y529958*
X421537*
X421358Y530081*
X421269Y530204*
X421179Y530573*
Y530819*
X423327Y532542D02*
X423058Y532419D01*
X422969Y532173*
Y531927*
X423058Y531681*
X423237Y531558*
X423595Y531435*
X423864Y531312*
X424043Y531065*
X424132Y530819*
Y530450*
X424043Y530204*
X423953Y530081*
X423685Y529958*
X423327*
X423058Y530081*
X422969Y530204*
X422879Y530450*
Y530819*
X422969Y531065*
X423148Y531312*
X423416Y531435*
X423774Y531558*
X423953Y531681*
X424043Y531927*
Y532173*
X423953Y532419*
X423685Y532542*
X423327*
X536686Y494747D02*
Y492778D01*
X536596Y492409*
X536507Y492286*
X536328Y492163*
X536149*
X535970Y492286*
X535880Y492409*
X535791Y492778*
Y493024*
X538654Y493885D02*
X538565Y493516D01*
X538386Y493270*
X538117Y493147*
X538028*
X537759Y493270*
X537581Y493516*
X537491Y493885*
Y494008*
X537581Y494377*
X537759Y494624*
X538028Y494747*
X538117*
X538386Y494624*
X538565Y494377*
X538654Y493885*
Y493270*
X538565Y492655*
X538386Y492286*
X538117Y492163*
X537938*
X537670Y492286*
X537581Y492532*
X504294Y445240D02*
X504048Y445150D01*
X503802Y444971*
X503679Y444792*
Y444435*
X503679D02*
X503802Y444256D01*
X504048Y444077*
X504294Y443987*
X504663Y443898*
X505278*
X505647Y443987*
X505893Y444077*
X506139Y444256*
X506262Y444435*
X506262D02*
Y444792D01*
X506139Y444971*
X505893Y445150*
X505647Y445240*
X503679Y446940D02*
X505401Y446045D01*
Y447387*
X503679Y446940D02*
X506262D01*
X503679Y448372D02*
Y449356D01*
X504663Y448819*
Y449087*
X504786Y449266*
X504909Y449356*
X505278Y449445*
X505524*
X505893Y449356*
X506139Y449177*
X506262Y448908*
Y448640*
X506139Y448372*
X506016Y448282*
X505770Y448193*
X526550Y451772D02*
X529134D01*
X526550D02*
Y452577D01*
X526673Y452845*
X526796Y452935*
X527042Y453024*
X527288*
X527534Y452935*
X527657Y452845*
X527781Y452577*
Y451772*
Y452398D02*
X529134Y453024D01*
X526550Y454724D02*
X528273Y453830D01*
Y455172*
X526550Y454724D02*
X529134D01*
X526550Y456872D02*
X528273Y455977D01*
Y457319*
X526550Y456872D02*
X529134D01*
X423461Y511282D02*
Y508698D01*
Y511282D02*
X424266D01*
X424535Y511159*
X424624Y511036*
X424714Y510790*
Y510421*
X424624Y510175*
X424535Y510052*
X424266Y509929*
X423461*
X425519Y511282D02*
Y508698D01*
Y511282D02*
X426324D01*
X426593Y511159*
X426682Y511036*
X426772Y510790*
Y510544*
X426682Y510298*
X426593Y510175*
X426324Y510052*
X425519*
X426145D02*
X426772Y508698D01*
X427756Y511282D02*
X428740D01*
X428203Y510298*
X428472*
X428651Y510175*
X428740Y510052*
X428830Y509683*
Y509437*
X428740Y509067*
X428561Y508821*
X428293Y508698*
X428024*
X427756Y508821*
X427666Y508944*
X427577Y509190*
X429724Y510667D02*
Y510790D01*
X429814Y511036*
X429903Y511159*
X430082Y511282*
X430440*
X430619Y511159*
X430709Y511036*
X430798Y510790*
Y510544*
X430709Y510298*
X430530Y509929*
X429635Y508698*
X430888*
X431693Y509806D02*
X433304D01*
X434109Y511282D02*
Y508698D01*
Y511282D02*
X435272D01*
X434109Y510052D02*
X434825D01*
X434109Y508698D02*
X435272D01*
X436614Y511282D02*
X436346Y511159D01*
X436167Y510790*
X436077Y510175*
Y509806*
X436167Y509190*
X436346Y508821*
X436614Y508698*
X436793*
X437062Y508821*
X437241Y509190*
X437330Y509806*
Y510175*
X437241Y510790*
X437062Y511159*
X436793Y511282*
X436614*
X438135Y510790D02*
X438314Y510913D01*
X438583Y511282*
Y508698*
X439388Y509806D02*
X440999D01*
X441804Y511282D02*
Y508698D01*
Y511282D02*
X442609D01*
X442878Y511159*
X442967Y511036*
X443057Y510790*
Y510544*
X442967Y510298*
X442878Y510175*
X442609Y510052*
X441804*
X442430D02*
X443057Y508698D01*
X443862Y511282D02*
Y508698D01*
Y511282D02*
X445025D01*
X443862Y510052D02*
X444578D01*
X443862Y508698D02*
X445025D01*
X445830Y511282D02*
X446546Y508698D01*
X447262Y511282D02*
X446546Y508698D01*
X449409Y510667D02*
X449320Y510913D01*
X449141Y511159*
X448962Y511282*
X448604*
X448425Y511159*
X448246Y510913*
X448157Y510667*
X448067Y510298*
Y509683*
X448157Y509313*
X448246Y509067*
X448425Y508821*
X448604Y508698*
X448962*
X449141Y508821*
X449320Y509067*
X449409Y509313*
X424588Y506336D02*
Y506459D01*
X424678Y506705*
X424767Y506828*
X424946Y506951*
X425304*
X425483Y506828*
X425573Y506705*
X425662Y506459*
Y506213*
X425573Y505967*
X425394Y505598*
X424499Y504368*
X425752*
X427094Y506951D02*
X426825Y506828D01*
X426646Y506459*
X426557Y505844*
Y505475*
X426646Y504860*
X426825Y504491*
X427094Y504368*
X427273*
X427541Y504491*
X427720Y504860*
X427810Y505475*
Y505844*
X427720Y506459*
X427541Y506828*
X427273Y506951*
X427094*
X428615Y506459D02*
X428794Y506582D01*
X429062Y506951*
Y504368*
X431031Y506090D02*
X430941Y505721D01*
X430762Y505475*
X430494Y505352*
X430404*
X430136Y505475*
X429957Y505721*
X429868Y506090*
Y506213*
X429957Y506582*
X430136Y506828*
X430404Y506951*
X430494*
X430762Y506828*
X430941Y506582*
X431031Y506090*
Y505475*
X430941Y504860*
X430762Y504491*
X430494Y504368*
X430315*
X430047Y504491*
X429957Y504737*
X431836Y505475D02*
X433447D01*
X434252Y506459D02*
X434431Y506582D01*
X434699Y506951*
Y504368*
X436042Y506951D02*
X435773Y506828D01*
X435594Y506459*
X435505Y505844*
Y505475*
X435594Y504860*
X435773Y504491*
X436042Y504368*
X436220*
X436489Y504491*
X436668Y504860*
X436757Y505475*
Y505844*
X436668Y506459*
X436489Y506828*
X436220Y506951*
X436042*
X437563Y505475D02*
X439173D01*
X439979Y506459D02*
X440157Y506582D01*
X440426Y506951*
Y504368*
X441231Y506459D02*
X441410Y506582D01*
X441679Y506951*
Y504368*
X413521Y458384D02*
Y457489D01*
X414628Y457400*
X414505Y457489*
X414382Y457758*
Y458026*
X414505Y458295*
X414751Y458474*
X415121Y458563*
X415367Y458474*
X415736Y458384*
X415982Y458205*
X416105Y457937*
Y457668*
X415982Y457400*
X415859Y457310*
X415613Y457221*
X545017Y460281D02*
X546740Y459386D01*
Y460728*
X545017Y460281D02*
X547601D01*
X539038Y418021D02*
X536454Y417305D01*
X539038Y416589D02*
X536454Y417305D01*
X538423Y407185D02*
X538669Y407275D01*
X538915Y407453*
X539038Y407632*
Y407990*
X538915Y408169*
X538669Y408348*
X538423Y408438*
X538054Y408527*
X537438*
X537069Y408438*
X536823Y408348*
X536577Y408169*
X536454Y407990*
Y407632*
X536577Y407453*
X536823Y407275*
X537069Y407185*
X537438*
Y407632D02*
Y407185D01*
X539038Y428588D02*
X536454D01*
X539038D02*
Y427962D01*
X538915Y427693*
X538669Y427514*
X538423Y427425*
X538054Y427335*
X537438*
X537069Y427425*
X536823Y427514*
X536577Y427693*
X536454Y427962*
Y428588*
X538669Y425725D02*
X536454D01*
X537562Y426530D02*
Y424919D01*
X539038Y438824D02*
X536454D01*
X539038D02*
Y438198D01*
X538915Y437929*
X538669Y437751*
X538423Y437661*
X538054Y437572*
X537438*
X537069Y437661*
X536823Y437751*
X536577Y437929*
X536454Y438198*
Y438824*
X537562Y436766D02*
Y435156D01*
X421986Y426861D02*
X424569Y427577D01*
X421986Y428293D02*
X424569Y427577D01*
X422601Y437697D02*
X422355Y437607D01*
X422109Y437428*
X421986Y437249*
Y436892*
X422109Y436713*
X422355Y436534*
X422601Y436444*
X422970Y436355*
X423585*
X423954Y436444*
X424200Y436534*
X424446Y436713*
X424569Y436892*
Y437249*
X424446Y437428*
X424200Y437607*
X423954Y437697*
X423585*
Y437249D02*
Y437697D01*
X421986Y416294D02*
X424569D01*
X421986D02*
Y416920D01*
X422109Y417189*
X422355Y417368*
X422601Y417457*
X422970Y417547*
X423585*
X423954Y417457*
X424200Y417368*
X424446Y417189*
X424569Y416920*
Y416294*
X422355Y419157D02*
X424569D01*
X423462Y418352D02*
Y419962D01*
X421986Y406058D02*
X424569D01*
X421986D02*
Y406684D01*
X422109Y406952*
X422355Y407131*
X422601Y407221*
X422970Y407310*
X423585*
X423954Y407221*
X424200Y407131*
X424446Y406952*
X424569Y406684*
Y406058*
X423462Y408116D02*
Y409726D01*
X409190Y424499D02*
X411036D01*
X411405Y424588*
X411651Y424767*
X411774Y425036*
Y425215*
X411651Y425483*
X411405Y425662*
X411036Y425752*
X409190*
X409560Y427810D02*
X409313Y427631D01*
X409190Y427362*
Y427004*
X409313Y426736*
X409560Y426557*
X409806*
X410052Y426646*
X410175Y426736*
X410298Y426915*
X410544Y427452*
X410667Y427631*
X410790Y427720*
X411036Y427810*
X411405*
X411651Y427631*
X411774Y427362*
Y427004*
X411651Y426736*
X411405Y426557*
X409190Y428615D02*
X411774D01*
X409190D02*
Y429778D01*
X410421Y428615D02*
Y429331D01*
X411774Y428615D02*
Y429778D01*
X409190Y430583D02*
X411774D01*
X409190D02*
Y431389D01*
X409313Y431657*
X409437Y431747*
X409683Y431836*
X409929*
X410175Y431747*
X410298Y431657*
X410421Y431389*
Y430583*
Y431210D02*
X411774Y431836D01*
X439263Y565022D02*
Y562438D01*
Y565022D02*
X440068D01*
X440336Y564899*
X440426Y564776*
X440515Y564530*
Y564284*
X440426Y564038*
X440336Y563915*
X440068Y563792*
X439263*
X439889D02*
X440515Y562438D01*
X442573Y564653D02*
X442394Y564899D01*
X442126Y565022*
X441768*
X441500Y564899*
X441321Y564653*
Y564407*
X441410Y564161*
X441500Y564038*
X441679Y563915*
X442215Y563669*
X442394Y563546*
X442484Y563423*
X442573Y563177*
Y562808*
X442394Y562562*
X442126Y562438*
X441768*
X441500Y562562*
X441321Y562808*
X444005Y565022D02*
Y562438D01*
X443379Y565022D02*
X444631D01*
X539155Y471321D02*
X538261D01*
X538171Y470214*
X538261Y470337*
X538529Y470460*
X538797*
X539066Y470337*
X539245Y470091*
X539334Y469722*
X539245Y469476*
X539155Y469107*
X538976Y468861*
X538708Y468738*
X538440*
X538171Y468861*
X538082Y468984*
X537992Y469230*
X540140Y471321D02*
X540855Y468738D01*
X541571Y471321D02*
X540855Y468738D01*
X549785Y471321D02*
Y468738D01*
Y471321D02*
X550591D01*
X550859Y471198*
X550948Y471075*
X551038Y470829*
Y470460*
X550948Y470214*
X550859Y470091*
X550591Y469968*
X549785*
X557856Y471518D02*
X558840D01*
X558304Y470534*
X558572*
X558751Y470411*
X558840Y470288*
X558930Y469919*
Y469673*
X558840Y469304*
X558661Y469058*
X558393Y468935*
X558125*
X557856Y469058*
X557767Y469181*
X557677Y469427*
X559735Y471518D02*
X560451Y468935D01*
X561167Y471518D02*
X560451Y468935D01*
X562151Y471518D02*
X563135D01*
X562598Y470534*
X562867*
X563046Y470411*
X563135Y470288*
X563225Y469919*
Y469673*
X563135Y469304*
X562956Y469058*
X562688Y468935*
X562419*
X562151Y469058*
X562062Y469181*
X561972Y469427*
X393701Y393701D02*
X566929D01*
Y566929*
X393701*
Y393701*
X503937Y386122D02*
G03X502657Y387402I-1280J0D01*
G01X395177*
G03X393898Y386122I0J-1280*
G01Y368209*
G03X395177Y366929I1279J-0*
G01X502657*
G03X503937Y368209I0J1280*
G01Y386122*
X474508Y387402D02*
Y366929D01*
Y382283D02*
X393898D01*
X474508Y377165D02*
X393898D01*
X461713Y376756D02*
Y366929D01*
X474508Y372047D02*
X393898D01*
X461713Y382283D02*
Y376756D01*
X445079Y382283D02*
Y366929D01*
X410531Y387402D02*
Y366929D01*
X483140Y375104D02*
X483442D01*
X483140Y374966D02*
X483442D01*
X483140Y374829D02*
X483442D01*
X483140Y374692D02*
X483442D01*
X483140Y374554D02*
X483442D01*
X491367Y382520D02*
G03X490826Y381979I-0J-541D01*
G01X491367Y382520D02*
X495674D01*
X496215Y381979D02*
G03X495674Y382520I-541J0D01*
G01X496215Y381979D02*
Y377704D01*
X495674Y377164D02*
G03X496215Y377704I0J540D01*
G01X495674Y377164D02*
X491367D01*
X490826Y377704D02*
G03X491367Y377164I541J0D01*
G01X490826Y377704D02*
Y381979D01*
X482438Y376207D02*
X483114Y375234D01*
Y374397*
X483465*
Y375234*
X484141Y376207*
X483816*
X483303Y375532*
X482762Y376207*
X482438*
X485059Y382585D02*
G03X484735Y382261I0J-324D01*
G01X485059Y382585D02*
X487600D01*
X487924Y382261D02*
G03X487600Y382585I-324J-0D01*
G01X487924Y382261D02*
Y379882D01*
X487600Y379558D02*
G03X487924Y379882I-0J324D01*
G01X487600Y379558D02*
X485059D01*
X484735Y379882D02*
G03X485059Y379558I324J0D01*
G01X484735Y379882D02*
Y382261D01*
X492734Y380801D02*
G03X492518Y380585I0J-216D01*
G01X492734Y380801D02*
X494410D01*
X494626Y380585D02*
G03X494410Y380801I-216J0D01*
G01X494626Y380585D02*
Y379072D01*
X494410Y378856D02*
G03X494626Y379072I-0J216D01*
G01X494410Y378856D02*
X492734D01*
X492518Y379072D02*
G03X492734Y378856I216J-0D01*
G01X492518Y379072D02*
Y380585D01*
X484843Y376153D02*
G03X484519Y375829I0J-324D01*
G01X484843Y376153D02*
X485708D01*
X486032Y375829D02*
G03X485708Y376153I-324J-0D01*
G01X486032Y375829D02*
Y374802D01*
X485708Y374478D02*
G03X486032Y374802I-0J324D01*
G01X485708Y374478D02*
X484843D01*
X484519Y374802D02*
G03X484843Y374478I324J0D01*
G01X484519Y374802D02*
Y375829D01*
X483140Y384988D02*
X489345D01*
X482453Y384439D02*
X490031D01*
X482453Y384301D02*
X490086D01*
X482316Y384027D02*
X490140D01*
X482316Y383890D02*
X490140D01*
X482316Y383752D02*
X490140D01*
X482316Y383615D02*
X490140D01*
X482316Y383478D02*
X490140D01*
X482316Y383340D02*
X490140D01*
X482316Y383203D02*
X490140D01*
X482316Y383066D02*
X490140D01*
X482316Y382929D02*
X490140D01*
X482316Y382791D02*
X490140D01*
X482316Y382654D02*
X490140D01*
X491239Y382517D02*
X495797D01*
X487870D02*
X490140D01*
X482316D02*
X484843D01*
X491102Y382379D02*
X495977D01*
X487944D02*
X490140D01*
X482316D02*
X484677D01*
X490965Y382242D02*
X496085D01*
X487944D02*
X490140D01*
X482316D02*
X484677D01*
X490965Y382105D02*
X496209D01*
X487944D02*
X490140D01*
X482316D02*
X484677D01*
X490827Y381968D02*
X496209D01*
X487944D02*
X490140D01*
X482316D02*
X484677D01*
X490827Y381830D02*
X496209D01*
X487944D02*
X490140D01*
X482316D02*
X484677D01*
X490827Y381693D02*
X496209D01*
X487944D02*
X490140D01*
X482316D02*
X484677D01*
X490827Y381556D02*
X496209D01*
X487944D02*
X490140D01*
X482316D02*
X484677D01*
X490827Y381418D02*
X496209D01*
X487944D02*
X490140D01*
X482316D02*
X484677D01*
X490827Y381281D02*
X496209D01*
X487944D02*
X490140D01*
X482316D02*
X484677D01*
X490827Y381144D02*
X496209D01*
X487944D02*
X490140D01*
X482316D02*
X484677D01*
X490827Y381007D02*
X496209D01*
X487944D02*
X490140D01*
X482316D02*
X484677D01*
X490827Y380869D02*
X496209D01*
X487944D02*
X490140D01*
X482316D02*
X484677D01*
X494671Y380732D02*
X496209D01*
X490827D02*
X492502D01*
X487944D02*
X490140D01*
X482316D02*
X484677D01*
X494671Y380595D02*
X496209D01*
X490827D02*
X492502D01*
X487944D02*
X490140D01*
X482316D02*
X484677D01*
X494671Y380458D02*
X496209D01*
X490827D02*
X492502D01*
X487944D02*
X490140D01*
X482316D02*
X484677D01*
X494671Y380320D02*
X496209D01*
X490827D02*
X492502D01*
X487944D02*
X490140D01*
X482316D02*
X484677D01*
X494671Y380183D02*
X496209D01*
X490827D02*
X492502D01*
X487944D02*
X490140D01*
X482316D02*
X484677D01*
X494671Y380046D02*
X496209D01*
X490827D02*
X492502D01*
X487944D02*
X490140D01*
X482316D02*
X484677D01*
X494671Y379908D02*
X496209D01*
X490827D02*
X492502D01*
X487944D02*
X490140D01*
X482316D02*
X484677D01*
X494671Y379771D02*
X496209D01*
X490827D02*
X492502D01*
X487944D02*
X490140D01*
X482316D02*
X484677D01*
X494671Y379634D02*
X496209D01*
X490827D02*
X492502D01*
X487870D02*
X490140D01*
X482316D02*
X484789D01*
X494671Y379497D02*
X496209D01*
X490827D02*
X492502D01*
X482316D02*
X490140D01*
X494671Y379359D02*
X496209D01*
X490827D02*
X492502D01*
X482316D02*
X490140D01*
X494671Y379222D02*
X496209D01*
X490827D02*
X492502D01*
X482316D02*
X490140D01*
X494671Y379085D02*
X496209D01*
X490827D02*
X492502D01*
X482316D02*
X490140D01*
X494671Y378947D02*
X496209D01*
X490827D02*
X492502D01*
X482316D02*
X490140D01*
X490827Y378810D02*
X496209D01*
X482316D02*
X490140D01*
X490827Y378673D02*
X496209D01*
X482316D02*
X490140D01*
X490827Y378536D02*
X496209D01*
X482316D02*
X490140D01*
X490827Y378398D02*
X496209D01*
X482316D02*
X490140D01*
X490827Y378261D02*
X496209D01*
X482316D02*
X490140D01*
X490827Y378124D02*
X496209D01*
X482316D02*
X490140D01*
X490827Y377986D02*
X496209D01*
X482316D02*
X490140D01*
X490827Y377849D02*
X496209D01*
X482453D02*
X490140D01*
X490827Y377712D02*
X496209D01*
X482453D02*
X490031D01*
X490965Y377575D02*
X496161D01*
X482460D02*
X490031D01*
X490965Y377437D02*
X496071D01*
X482584D02*
X489894D01*
X491102Y377300D02*
X495966D01*
X482768D02*
X489757D01*
X491376Y377163D02*
X495663D01*
X483140D02*
X489383D01*
X483826Y376202D02*
X484128D01*
X482453D02*
X482755D01*
X483741Y376065D02*
X484016D01*
X482590D02*
X482838D01*
X483622Y375927D02*
X483903D01*
X482665D02*
X482957D01*
X483551Y375790D02*
X483853D01*
X482728D02*
X483030D01*
X483414Y375653D02*
X483703D01*
X482865D02*
X483167D01*
X482957Y375515D02*
X483638D01*
X483060Y375378D02*
X483503D01*
X483114Y375241D02*
X483443D01*
X486735Y376153D02*
Y374748D01*
G03X486951Y374532I216J-0*
G01X487654*
G03X487870Y374748I-0J216*
G01Y376153*
X488626D02*
Y374532D01*
X489329Y376153D02*
Y374532D01*
X490356*
X492140Y375721D02*
Y375937D01*
G03X491923Y376153I-217J0*
G01X491167*
G03X490951Y375937I-0J-216*
G01Y374748*
G03X491167Y374532I216J-0*
G01X491923*
G03X492140Y374748I0J216*
G01Y374964*
X482627Y384713D02*
X489870D01*
X482519Y384576D02*
X489978D01*
X483168Y384990D02*
G03X482303Y384125I-0J-865D01*
G01X483168Y384990D02*
X489302D01*
X490167Y384125D02*
G03X489302Y384990I-865J0D01*
G01X490167Y384125D02*
Y378018D01*
X489302Y377153D02*
G03X490167Y378018I0J865D01*
G01X489302Y377153D02*
X483168D01*
X482303Y378018D02*
G03X483168Y377153I865J-0D01*
G01X482303Y378018D02*
Y384125D01*
X482357Y384164D02*
X490168D01*
X482789Y384850D02*
X489707D01*
X492842Y374532D02*
X493275Y376045D01*
X493707*
X494139Y374532*
X493923Y375180D02*
X493058D01*
X494896Y375288D02*
Y376153D01*
X495653*
X496085Y375721D02*
G03X495653Y376153I-432J-0D01*
G01X496085Y375721D02*
Y374964D01*
X495653Y374532D02*
G03X496085Y374964I-0J432D01*
G01X495653Y374532D02*
X494896D01*
Y375288*
X468337Y375490D02*
Y373723D01*
X468413Y373411*
X468564Y373307*
X468715*
X468110Y374762D02*
X468639D01*
X412718Y384687D02*
X412567Y384894D01*
X412567D02*
X412416Y384998D01*
X412189*
X412038Y384894*
X412038D02*
X411887Y384687D01*
X411811Y384375*
Y384167*
X411887Y383855*
X412038Y383647*
X412189Y383543*
X412416*
X412567Y383647*
X412718Y383855*
X413777Y384998D02*
X413626Y384894D01*
X413626D02*
X413474Y384687D01*
X413399Y384375*
Y384167*
X413474Y383855*
X413626Y383647*
X413777Y383543*
X414004*
X414155Y383647*
X414306Y383855*
X414382Y384167*
Y384375*
X414306Y384687*
X414155Y384894*
X414155D02*
X414004Y384998D01*
X413777*
X415062D02*
Y383543D01*
Y384583D02*
X415289Y384894D01*
X415289D02*
X415440Y384998D01*
X415667*
X415818Y384894*
X415818D02*
X415894Y384583D01*
Y383543*
Y384583D02*
X416121Y384894D01*
X416121D02*
X416272Y384998D01*
X416499*
X416650Y384894*
X416650D02*
X416726Y384583D01*
Y383543*
X417406Y384998D02*
Y383543D01*
Y384583D02*
X417633Y384894D01*
X417633D02*
X417784Y384998D01*
X418011*
X418162Y384894*
X418162D02*
X418238Y384583D01*
Y383543*
Y384583D02*
X418465Y384894D01*
X418465D02*
X418616Y384998D01*
X418843*
X418994Y384894*
X418994D02*
X419069Y384583D01*
Y383543*
X419750Y385726D02*
X420808Y383543D01*
Y385726D02*
X419750Y383543D01*
X421489Y385726D02*
Y383543D01*
Y385726D02*
X422472D01*
X421489Y384687D02*
X422094D01*
X421489Y383543D02*
X422472D01*
X423152Y385726D02*
Y383543D01*
X424060*
X424740Y383127D02*
X426328D01*
X426781Y385726D02*
X427160Y383543D01*
X427538Y385726D02*
X427160Y383543D01*
X427538Y385726D02*
X427916Y383543D01*
X428294Y385726D02*
X427916Y383543D01*
X431242Y386142D02*
X431091Y385934D01*
X430940Y385622*
X430789Y385206*
X430713Y384687*
Y384271*
X430789Y383751*
X430940Y383335*
X431091Y383023*
X431242Y382815*
X432679Y385726D02*
X431923Y384271D01*
X433057*
X432679Y385726D02*
Y383543D01*
X435476Y385726D02*
Y383543D01*
X436384*
X437972Y384998D02*
Y383543D01*
Y384687D02*
X437820Y384894D01*
X437820D02*
X437669Y384998D01*
X437442*
X437291Y384894*
X437291D02*
X437140Y384687D01*
X437064Y384375*
Y384167*
X437140Y383855*
X437291Y383647*
X437442Y383543*
X437669*
X437820Y383647*
X437972Y383855*
X438728Y384998D02*
X439181Y383543D01*
X439635Y384998D02*
X439181Y383543D01*
X439030Y383127*
X438879Y382919*
X438728Y382815*
X438652*
X440315Y384375D02*
X441223D01*
Y384583*
X441147Y384791*
X441071Y384894*
X441071D02*
X440920Y384998D01*
X440693*
X440542Y384894*
X440542D02*
X440391Y384687D01*
X440315Y384375*
Y384167*
X440391Y383855*
X440542Y383647*
X440693Y383543*
X440920*
X441071Y383647*
X441223Y383855*
X441903Y384998D02*
Y383543D01*
Y384375D02*
X441979Y384687D01*
X442130Y384894*
X442130D02*
X442281Y384998D01*
X442508*
X443189Y386142D02*
X443340Y385934D01*
X443491Y385622*
X443642Y385206*
X443718Y384687*
Y384271*
X443642Y383751*
X443491Y383335*
X443340Y383023*
X443189Y382815*
X411887Y369852D02*
Y369956D01*
X411962Y370164*
X412038Y370268*
X412189Y370372*
X412491*
X412491D02*
X412643Y370268D01*
X412718Y370164*
X412794Y369956*
Y369748*
X412718Y369540*
X412567Y369228*
X411811Y368189*
X412870*
X414004Y370372D02*
X413777Y370268D01*
X413626Y369956*
X413550Y369436*
Y369124*
X413626Y368605*
X413777Y368293*
X414004Y368189*
X414155*
X414382Y368293*
X414533Y368605*
X414609Y369124*
Y369436*
X414533Y369956*
X414382Y370268*
X414155Y370372*
X414004*
X415289Y369956D02*
X415440Y370060D01*
X415667Y370372*
Y368189*
X417330Y369644D02*
X417255Y369332D01*
X417104Y369124*
X416877Y369020*
X416801*
X416574Y369124*
X416423Y369332*
X416348Y369644*
Y369748*
X416423Y370060*
X416574Y370268*
X416801Y370372*
X416877*
X417104Y370268*
X417255Y370060*
X417330Y369644*
Y369124*
X417255Y368605*
X417104Y368293*
X416877Y368189*
X416726*
X416499Y368293*
X416423Y368501*
X418087Y368397D02*
X418011Y368293D01*
X418087Y368189*
X418162Y368293*
X418087Y368397*
X418843Y369956D02*
X418994Y370060D01*
X419221Y370372*
Y368189*
X420355Y370372D02*
X420128Y370268D01*
X419977Y369956*
X419901Y369436*
Y369124*
X419977Y368605*
X420128Y368293*
X420355Y368189*
X420506*
X420733Y368293*
X420884Y368605*
X420960Y369124*
Y369436*
X420884Y369956*
X420733Y370268*
X420506Y370372*
X420355*
X421716Y368397D02*
X421640Y368293D01*
X421716Y368189*
X421791Y368293*
X421716Y368397*
X422472Y369956D02*
X422623Y370060D01*
X422850Y370372*
Y368189*
X423530Y369956D02*
X423682Y370060D01*
X423908Y370372*
Y368189*
X411811Y375490D02*
Y373307D01*
Y375490D02*
X412491D01*
X412491D02*
X412718Y375386D01*
X412794Y375282*
X412870Y375074*
Y374866*
X412794Y374658*
X412718Y374554*
X412491Y374450*
X412491D02*
X411811D01*
X412340D02*
X412870Y373307D01*
X413928Y374762D02*
X413777Y374658D01*
X413626Y374450*
X413550Y374138*
Y373931*
X413626Y373619*
X413777Y373411*
X413928Y373307*
X414155*
X414306Y373411*
X414457Y373619*
X414533Y373931*
Y374138*
X414457Y374450*
X414306Y374658*
X414155Y374762*
X413928*
X415213Y375490D02*
Y373307D01*
Y374450D02*
X415365Y374658D01*
X415516Y374762*
X415743*
X415894Y374658*
X416045Y374450*
X416121Y374138*
Y373931*
X416045Y373619*
X415894Y373411*
X415743Y373307*
X415516*
X415365Y373411*
X415213Y373619*
X417179Y374762D02*
X417028Y374658D01*
X416877Y374450*
X416801Y374138*
Y373931*
X416877Y373619*
X417028Y373411*
X417179Y373307*
X417406*
X417557Y373411*
X417708Y373619*
X417784Y373931*
Y374138*
X417708Y374450*
X417557Y374658*
X417406Y374762*
X417179*
X418691Y375490D02*
Y373723D01*
X418767Y373411*
X418918Y373307*
X419069*
X418465Y374762D02*
X418994D01*
X419750Y375490D02*
X419826Y375386D01*
X419901Y375490*
X419826Y375594*
X419750Y375490*
X419826Y374762D02*
Y373307D01*
X421413Y374450D02*
X421338Y374658D01*
X421111Y374762*
X420884*
X420657Y374658*
X420582Y374450*
X420657Y374242*
X420808Y374138*
X421186Y374035*
X421338Y373931*
X421413Y373723*
Y373619*
X421338Y373411*
X421111Y373307*
X420884*
X420657Y373411*
X420582Y373619*
X476195Y369427D02*
Y367748D01*
X475787Y369427D02*
X476602D01*
X477125Y368388D02*
X477823D01*
Y368548*
X477765Y368708*
X477707Y368788*
X477590Y368868*
X477416*
X477300Y368788*
X477183Y368628*
X477125Y368388*
Y368228*
X477183Y367988*
X477300Y367828*
X477416Y367748*
X477590*
X477707Y367828*
X477823Y367988*
X478346Y369427D02*
Y367748D01*
X478928Y367908D02*
X478870Y367828D01*
X478928Y367748*
X478986Y367828*
X478928Y367908*
X479859Y369427D02*
X479684Y369347D01*
X479568Y369108*
X479510Y368708*
Y368468*
X479568Y368068*
X479684Y367828*
X479859Y367748*
X479975*
X480149Y367828*
X480266Y368068*
X480324Y368468*
Y368708*
X480266Y369108*
X480149Y369347*
X479975Y369427*
X479859*
X480964D02*
X481603D01*
X481254Y368788*
X481429*
X481545Y368708*
X481603Y368628*
X481662Y368388*
Y368228*
X481603Y367988*
X481487Y367828*
X481313Y367748*
X481138*
X480964Y367828*
X480906Y367908*
X480847Y368068*
X482185Y369108D02*
X482301Y369187D01*
X482301D02*
X482476Y369427D01*
Y367748*
X482999Y368468D02*
X484046D01*
X484686Y369427D02*
X485326D01*
X484977Y368788*
X485151*
X485268Y368708*
X485326Y368628*
X485384Y368388*
Y368228*
X485326Y367988*
X485209Y367828*
X485035Y367748*
X484860*
X484686Y367828*
X484628Y367908*
X484570Y368068*
X486663Y368868D02*
X486605Y368628D01*
X486489Y368468*
X486314Y368388*
X486256*
X486082Y368468*
X485965Y368628*
X485907Y368868*
Y368948*
X485965Y369187*
X485965D02*
X486082Y369347D01*
X486256Y369427*
X486314*
X486489Y369347*
X486605Y369187*
X486605D02*
X486663Y368868D01*
Y368468*
X486605Y368068*
X486489Y367828*
X486314Y367748*
X486198*
X486024Y367828*
X485965Y367988*
X487943Y368868D02*
X487885Y368628D01*
X487768Y368468*
X487594Y368388*
X487536*
X487361Y368468*
X487245Y368628*
X487187Y368868*
Y368948*
X487245Y369187*
X487245D02*
X487361Y369347D01*
X487536Y369427*
X487594*
X487768Y369347*
X487885Y369187*
X487885D02*
X487943Y368868D01*
Y368468*
X487885Y368068*
X487768Y367828*
X487594Y367748*
X487478*
X487303Y367828*
X487245Y367988*
X488466Y368468D02*
X489513D01*
X490095Y369028D02*
Y369108D01*
X490153Y369267*
X490211Y369347*
X490327Y369427*
X490560*
X490676Y369347*
X490735Y369267*
X490793Y369108*
Y368948*
X490735Y368788*
X490618Y368548*
X490037Y367748*
X490851*
X491665Y369427D02*
X491491Y369347D01*
X491433Y369187*
X491433D02*
Y369028D01*
X491491Y368868*
X491607Y368788*
X491840Y368708*
X492014Y368628*
X492130Y368468*
X492189Y368308*
Y368068*
X492130Y367908*
X492072Y367828*
X491898Y367748*
X491665*
X491491Y367828*
X491433Y367908*
X491374Y368068*
Y368308*
X491433Y368468*
X491549Y368628*
X491723Y368708*
X491956Y368788*
X492072Y368868*
X492130Y369028*
Y369187*
X492130D02*
X492072Y369347D01*
X491898Y369427*
X491665*
X493003D02*
X492828Y369347D01*
X492770Y369187*
X492770D02*
Y369028D01*
X492828Y368868*
X492945Y368788*
X493177Y368708*
X493352Y368628*
X493468Y368468*
X493526Y368308*
Y368068*
X493468Y367908*
X493410Y367828*
X493236Y367748*
X493003*
X492828Y367828*
X492770Y367908*
X492712Y368068*
Y368308*
X492770Y368468*
X492887Y368628*
X493061Y368708*
X493294Y368788*
X493410Y368868*
X493468Y369028*
Y369187*
X493468D02*
X493410Y369347D01*
X493236Y369427*
X493003*
X494108Y369028D02*
Y369108D01*
X494166Y369267*
X494224Y369347*
X494341Y369427*
X494573*
X494690Y369347*
X494748Y369267*
X494806Y369108*
Y368948*
X494748Y368788*
X494631Y368548*
X494050Y367748*
X494864*
X475585Y373530D02*
Y371850D01*
Y372650D02*
X475759Y372890D01*
X475876Y372970*
X476050*
X476167Y372890*
X476225Y372650*
Y371850*
X476923Y373530D02*
Y372170D01*
X476981Y371930*
X477097Y371850*
X477213*
X476748Y372970D02*
X477155D01*
X477911Y373530D02*
Y372170D01*
X477969Y371930*
X478086Y371850*
X478202*
X477737Y372970D02*
X478144D01*
X478726D02*
Y371291D01*
Y372730D02*
X478842Y372890D01*
X478958Y372970*
X479133*
X479249Y372890*
X479365Y372730*
X479423Y372490*
Y372330*
X479365Y372090*
X479249Y371930*
X479133Y371850*
X478958*
X478842Y371930*
X478726Y372090*
X480005Y372970D02*
X479947Y372890D01*
X480005Y372810*
X480063Y372890*
X480005Y372970*
Y372010D02*
X479947Y371930D01*
X480005Y371850*
X480063Y371930*
X480005Y372010*
X481634Y373850D02*
X480587Y371291D01*
X483204Y373850D02*
X482157Y371291D01*
X483727Y372970D02*
X483960Y371850D01*
X484193Y372970D02*
X483960Y371850D01*
X484193Y372970D02*
X484425Y371850D01*
X484658Y372970D02*
X484425Y371850D01*
X485181Y372970D02*
X485414Y371850D01*
X485647Y372970D02*
X485414Y371850D01*
X485647Y372970D02*
X485879Y371850D01*
X486112Y372970D02*
X485879Y371850D01*
X486635Y372970D02*
X486868Y371850D01*
X487101Y372970D02*
X486868Y371850D01*
X487101Y372970D02*
X487333Y371850D01*
X487566Y372970D02*
X487333Y371850D01*
X488148Y372010D02*
X488089Y371930D01*
X488148Y371850*
X488206Y371930*
X488148Y372010*
X488787Y372970D02*
X489136Y371850D01*
X489485Y372970D02*
X489136Y371850D01*
X489020Y371531*
X488904Y371371*
X488787Y371291*
X488729*
X490299Y372970D02*
X490183Y372890D01*
X490067Y372730*
X490009Y372490*
Y372330*
X490067Y372090*
X490183Y371930*
X490299Y371850*
X490474*
X490590Y371930*
X490707Y372090*
X490765Y372330*
Y372490*
X490707Y372730*
X490590Y372890*
X490474Y372970*
X490299*
X491288D02*
Y372170D01*
X491346Y371930*
X491463Y371850*
X491637*
X491753Y371930*
X491928Y372170*
Y372970D02*
Y371850D01*
X492451Y373530D02*
X492510Y373450D01*
X492568Y373530*
X492510Y373610*
X492451Y373530*
X492510Y372970D02*
Y371850D01*
X493091Y373530D02*
Y371850D01*
X494313Y372730D02*
X494196Y372890D01*
X494080Y372970*
X493905*
X493789Y372890*
X493673Y372730*
X493615Y372490*
Y372330*
X493673Y372090*
X493789Y371930*
X493905Y371850*
X494080*
X494196Y371930*
X494313Y372090*
X495534Y372970D02*
Y371850D01*
Y372730D02*
X495418Y372890D01*
X495301Y372970*
X495127*
X495010Y372890*
X494894Y372730*
X494836Y372490*
Y372330*
X494894Y372090*
X495010Y371930*
X495127Y371850*
X495301*
X495418Y371930*
X495534Y372090*
X496755Y373530D02*
Y371850D01*
Y372730D02*
X496639Y372890D01*
X496523Y372970*
X496348*
X496232Y372890*
X496116Y372730*
X496057Y372490*
Y372330*
X496116Y372090*
X496232Y371930*
X496348Y371850*
X496523*
X496639Y371930*
X496755Y372090*
X497337Y372010D02*
X497279Y371930D01*
X497337Y371850*
X497395Y371930*
X497337Y372010*
X498616Y372730D02*
X498500Y372890D01*
X498384Y372970*
X498209*
X498093Y372890*
X497977Y372730*
X497918Y372490*
Y372330*
X497977Y372090*
X498093Y371930*
X498209Y371850*
X498384*
X498500Y371930*
X498616Y372090*
X499431Y372970D02*
X499314Y372890D01*
X499198Y372730*
X499140Y372490*
Y372330*
X499198Y372090*
X499314Y371930*
X499431Y371850*
X499605*
X499721Y371930*
X499838Y372090*
X499896Y372330*
Y372490*
X499838Y372730*
X499721Y372890*
X499605Y372970*
X499431*
X500478Y372010D02*
X500419Y371930D01*
X500478Y371850*
X500536Y371930*
X500478Y372010*
X501059Y373530D02*
Y371850D01*
X501641Y372970D02*
X501059Y372170D01*
X501292Y372490D02*
X501699Y371850D01*
X502222Y372970D02*
Y371850D01*
Y372490D02*
X502280Y372730D01*
X502280D02*
X502397Y372890D01*
X502513Y372970*
X502688*
X446358Y370372D02*
Y368189D01*
Y370372D02*
X446888D01*
X447114Y370268*
X447266Y370060*
X447341Y369852*
X447417Y369540*
Y369020*
X447341Y368708*
X447266Y368501*
X447114Y368293*
X446888Y368189*
X446358*
X448097Y370372D02*
Y368189D01*
Y370372D02*
X449080D01*
X448097Y369332D02*
X448702D01*
X448097Y368189D02*
X449080D01*
X450819Y370060D02*
X450668Y370268D01*
X450441Y370372*
X450139*
X449912Y370268*
X449761Y370060*
Y369852*
X449836Y369644*
X449912Y369540*
X450063Y369436*
X450517Y369228*
X450668Y369124*
X450744Y369020*
X450819Y368812*
Y368501*
X450668Y368293*
X450441Y368189*
X450139*
X449912Y368293*
X449761Y368501*
X451500Y370372D02*
Y368189D01*
X453314Y369852D02*
X453239Y370060D01*
X453087Y370268*
X452936Y370372*
X452634*
X452483Y370268*
X452331Y370060*
X452256Y369852*
X452180Y369540*
Y369020*
X452256Y368708*
X452331Y368501*
X452483Y368293*
X452634Y368189*
X452936*
X453087Y368293*
X453239Y368501*
X453314Y368708*
Y369020*
X452936D02*
X453314D01*
X453995Y370372D02*
Y368189D01*
Y370372D02*
X455053Y368189D01*
Y370372D02*
Y368189D01*
X455734Y370372D02*
Y368189D01*
Y370372D02*
X456717D01*
X455734Y369332D02*
X456339D01*
X455734Y368189D02*
X456717D01*
X457397Y370372D02*
Y368189D01*
Y370372D02*
X458078D01*
X458304Y370268*
X458380Y370164*
X458456Y369956*
Y369748*
X458380Y369540*
X458304Y369436*
X458078Y369332*
X457397*
X457926D02*
X458456Y368189D01*
X447417Y380296D02*
X447266Y380504D01*
X447039Y380608*
X446736*
X446509Y380504*
X446358Y380296*
Y380088*
X446434Y379880*
X446509Y379776*
X446661Y379672*
X447114Y379465*
X447266Y379361*
X447341Y379257*
X447417Y379049*
Y378737*
X447266Y378529*
X447039Y378425*
X446736*
X446509Y378529*
X446358Y378737*
X448627Y380608D02*
Y378425D01*
X448097Y380608D02*
X449156D01*
X450441D02*
X449836Y378425D01*
X450441Y380608D02*
X451046Y378425D01*
X450063Y379153D02*
X450819D01*
X452861Y380088D02*
X452785Y380296D01*
X452634Y380504*
X452483Y380608*
X452180*
X452029Y380504*
X451878Y380296*
X451802Y380088*
X451726Y379776*
Y379257*
X451802Y378945*
X451878Y378737*
X452029Y378529*
X452180Y378425*
X452483*
X452634Y378529*
X452785Y378737*
X452861Y378945*
Y379257*
X452483D02*
X452861D01*
X453541Y380608D02*
Y378425D01*
Y380608D02*
X454524D01*
X453541Y379568D02*
X454146D01*
X453541Y378425D02*
X454524D01*
X396457Y370372D02*
Y368189D01*
Y370372D02*
X396986D01*
X397213Y370268*
X397364Y370060*
X397440Y369852*
X397515Y369540*
Y369020*
X397440Y368708*
X397364Y368501*
X397213Y368293*
X396986Y368189*
X396457*
X398801Y370372D02*
X398196Y368189D01*
X398801Y370372D02*
X399405Y368189D01*
X398423Y368916D02*
X399179D01*
X400615Y370372D02*
Y368189D01*
X400086Y370372D02*
X401144D01*
X401825D02*
Y368189D01*
Y370372D02*
X402808D01*
X401825Y369332D02*
X402430D01*
X401825Y368189D02*
X402808D01*
X396457Y385726D02*
Y383543D01*
Y385726D02*
X397062Y383543D01*
X397666Y385726D02*
X397062Y383543D01*
X397666Y385726D02*
Y383543D01*
X398801Y385726D02*
X398649Y385622D01*
X398498Y385414*
X398423Y385206*
X398347Y384894*
X398347D02*
Y384375D01*
X398423Y384063*
X398498Y383855*
X398649Y383647*
X398801Y383543*
X399103*
X399254Y383647*
X399405Y383855*
X399481Y384063*
X399557Y384375*
Y384894*
X399557D02*
X399481Y385206D01*
X399405Y385414*
X399254Y385622*
X399103Y385726*
X398801*
X400237D02*
Y383543D01*
Y385726D02*
X400766D01*
X400993Y385622*
X401144Y385414*
X401220Y385206*
X401296Y384894*
X401296D02*
Y384375D01*
X401220Y384063*
X401144Y383855*
X400993Y383647*
X400766Y383543*
X400237*
X401976Y385726D02*
Y383543D01*
Y385726D02*
X402959D01*
X401976Y384687D02*
X402581D01*
X401976Y383543D02*
X402959D01*
X403639Y385726D02*
Y383543D01*
X404547*
X396457Y380608D02*
Y378425D01*
X397364*
X398649Y380608D02*
X398044Y378425D01*
X398649Y380608D02*
X399254Y378425D01*
X398271Y379153D02*
X399027D01*
X399935Y380608D02*
X400540Y379568D01*
Y378425*
X401144Y380608D02*
X400540Y379568D01*
X401825Y380608D02*
Y378425D01*
Y380608D02*
X402808D01*
X401825Y379568D02*
X402430D01*
X401825Y378425D02*
X402808D01*
X403488Y380608D02*
Y378425D01*
Y380608D02*
X404169D01*
X404396Y380504*
X404471Y380400*
X404547Y380192*
Y379984*
X404471Y379776*
X404396Y379672*
X404169Y379568*
X403488*
X404018D02*
X404547Y378425D01*
X397591Y374970D02*
X397515Y375178D01*
X397364Y375386*
X397213Y375490*
X396910*
X396759Y375386*
X396608Y375178*
X396532Y374970*
X396457Y374658*
Y374138*
X396532Y373827*
X396608Y373619*
X396759Y373411*
X396910Y373307*
X397213*
X397364Y373411*
X397515Y373619*
X397591Y373827*
X398725Y375490D02*
X398574Y375386D01*
X398423Y375178*
X398347Y374970*
X398271Y374658*
Y374138*
X398347Y373827*
X398423Y373619*
X398574Y373411*
X398725Y373307*
X399027*
X399179Y373411*
X399330Y373619*
X399405Y373827*
X399481Y374138*
Y374658*
X399405Y374970*
X399330Y375178*
X399179Y375386*
X399027Y375490*
X398725*
X400162D02*
Y373307D01*
Y375490D02*
X400766Y373307D01*
X401371Y375490D02*
X400766Y373307D01*
X401371Y375490D02*
Y373307D01*
X402052Y375490D02*
Y373307D01*
Y375490D02*
X402732D01*
X402959Y375386*
X403035Y375282*
X403110Y375074*
Y374762*
X403035Y374554*
X402959Y374450*
X402732Y374346*
X402052*
X404396Y375490D02*
X403791Y373307D01*
X404396Y375490D02*
X405000Y373307D01*
X404018Y374035D02*
X404774D01*
X405681Y375490D02*
Y373307D01*
Y375490D02*
X406739Y373307D01*
Y375490D02*
Y373307D01*
X407420Y375490D02*
X408025Y374450D01*
Y373307*
X408630Y375490D02*
X408025Y374450D01*
X462992Y370372D02*
Y368189D01*
X463899*
X464656Y368397D02*
X464580Y368293D01*
X464656Y368189*
X464731Y368293*
X464656Y368397*
X466470Y370060D02*
X466319Y370268D01*
X466092Y370372*
X465790*
X465563Y370268*
X465412Y370060*
Y369852*
X465487Y369644*
X465563Y369540*
X465714Y369436*
X466168Y369228*
X466319Y369124*
X466395Y369020*
X466470Y368812*
Y368501*
X466319Y368293*
X466092Y368189*
X465790*
X465563Y368293*
X465412Y368501*
X467226Y368397D02*
X467151Y368293D01*
X467226Y368189*
X467302Y368293*
X467226Y368397*
X467982Y370372D02*
Y368189D01*
X469041Y370372D02*
X467982Y368916D01*
X468360Y369436D02*
X469041Y368189D01*
X446888Y375490D02*
Y373307D01*
X446358Y375490D02*
X447417D01*
X448097D02*
Y373307D01*
X449156Y375490D02*
Y373307D01*
X448097Y374450D02*
X449156D01*
X449836Y375490D02*
Y373307D01*
X451651Y374970D02*
X451575Y375178D01*
X451424Y375386*
X451273Y375490*
X450970*
X450819Y375386*
X450668Y375178*
X450592Y374970*
X450517Y374658*
Y374138*
X450592Y373827*
X450668Y373619*
X450819Y373411*
X450970Y373307*
X451273*
X451424Y373411*
X451575Y373619*
X451651Y373827*
X452331Y375490D02*
Y373307D01*
X453390Y375490D02*
X452331Y374035D01*
X452709Y374554D02*
X453390Y373307D01*
X454070Y375490D02*
Y373307D01*
Y375490D02*
X455129Y373307D01*
Y375490D02*
Y373307D01*
X455809Y375490D02*
Y373307D01*
Y375490D02*
X456792D01*
X455809Y374450D02*
X456414D01*
X455809Y373307D02*
X456792D01*
X458531Y375178D02*
X458380Y375386D01*
X458153Y375490*
X457851*
X457624Y375386*
X457473Y375178*
Y374970*
X457548Y374762*
X457624Y374658*
X457775Y374554*
X458229Y374346*
X458380Y374242*
X458456Y374138*
X458531Y373931*
Y373619*
X458380Y373411*
X458153Y373307*
X457851*
X457624Y373411*
X457473Y373619*
X460270Y375178D02*
X460119Y375386D01*
X459892Y375490*
X459590*
X459363Y375386*
X459212Y375178*
Y374970*
X459287Y374762*
X459363Y374658*
X459514Y374554*
X459968Y374346*
X460119Y374242*
X460195Y374138*
X460270Y373931*
Y373619*
X460119Y373411*
X459892Y373307*
X459590*
X459363Y373411*
X459212Y373619*
X462992Y380608D02*
Y378425D01*
Y380608D02*
X463673D01*
X463899Y380504*
X463975Y380400*
X464051Y380192*
Y379984*
X463975Y379776*
X463899Y379672*
X463673Y379568*
X462992*
X463521D02*
X464051Y378425D01*
X464731Y380608D02*
Y378425D01*
Y380608D02*
X465714D01*
X464731Y379568D02*
X465336D01*
X464731Y378425D02*
X465714D01*
X466395Y380608D02*
X466999Y378425D01*
X467604Y380608D02*
X466999Y378425D01*
X469419Y380088D02*
X469343Y380296D01*
X469192Y380504*
X469041Y380608*
X468738*
X468587Y380504*
X468436Y380296*
X468360Y380088*
X468285Y379776*
Y379257*
X468360Y378945*
X468436Y378737*
X468587Y378529*
X468738Y378425*
X469041*
X469192Y378529*
X469343Y378737*
X469419Y378945*
X412340Y380608D02*
Y378425D01*
X411811Y380608D02*
X412870D01*
X413928Y379880D02*
X413777Y379776D01*
X413626Y379568*
X413550Y379257*
Y379049*
X413626Y378737*
X413777Y378529*
X413928Y378425*
X414155*
X414306Y378529*
X414457Y378737*
X414533Y379049*
Y379257*
X414457Y379568*
X414306Y379776*
X414155Y379880*
X413928*
X415213D02*
Y377697D01*
Y379568D02*
X415365Y379776D01*
X415516Y379880*
X415743*
X415894Y379776*
X416045Y379568*
X416121Y379257*
Y379049*
X416045Y378737*
X415894Y378529*
X415743Y378425*
X415516*
X415365Y378529*
X415213Y378737*
X419599Y380296D02*
X419447Y380504D01*
X419221Y380608*
X418918*
X418691Y380504*
X418540Y380296*
Y380088*
X418616Y379880*
X418691Y379776*
X418843Y379672*
X419296Y379465*
X419447Y379361*
X419523Y379257*
X419599Y379049*
Y378737*
X419447Y378529*
X419221Y378425*
X418918*
X418691Y378529*
X418540Y378737*
X420279Y380608D02*
X420355Y380504D01*
X420430Y380608*
X420355Y380712*
X420279Y380608*
X420355Y379880D02*
Y378425D01*
X421111Y380608D02*
Y378425D01*
X421791Y380608D02*
Y378425D01*
X422547Y379880D02*
X421791Y378841D01*
X422094Y379257D02*
X422623Y378425D01*
G54D123*
X401267Y541068D02*
Y541216D01*
X401374Y541511*
X401482Y541658*
X401696Y541806*
X402126*
X402341Y541658*
X402448Y541511*
X402555Y541216*
Y540920*
X402448Y540625*
X402233Y540182*
X401160Y538706*
X402663*
X412727Y485517D02*
X412620Y485074D01*
X412405Y484779*
X412083Y484631*
X411976*
X411654Y484779*
X411439Y485074*
X411331Y485517*
Y485664*
X411439Y486107*
X411654Y486403*
X411976Y486550*
X412083*
X412405Y486403*
X412620Y486107*
X412727Y485517*
Y484779*
X412620Y484040*
X412405Y483597*
X412083Y483450*
X411868*
X411546Y483597*
X411439Y483893*
X400526Y485960D02*
X400741Y486107D01*
X401063Y486550*
Y483450*
X402674Y486550D02*
X402351Y486403D01*
X402137Y485960*
X402029Y485221*
Y484779*
X402137Y484040*
X402351Y483597*
X402674Y483450*
X402888*
X403210Y483597*
X403425Y484040*
X403533Y484779*
Y485221*
X403425Y485960*
X403210Y486403*
X402888Y486550*
X402674*
X411879Y541216D02*
X412094Y541363D01*
X412416Y541806*
Y538706*
X559363Y484523D02*
Y484375D01*
X559256Y484080*
X559148Y483932*
X558933Y483784*
X558504*
X558289Y483932*
X558182Y484080*
X558074Y484375*
Y484670*
X558182Y484966*
X558397Y485408*
X559470Y486885*
X557967*
X547903Y540074D02*
X548010Y540517D01*
X548225Y540812*
X548547Y540960*
X548654*
X548976Y540812*
X549191Y540517*
X549298Y540074*
Y539926*
X549191Y539483*
X548976Y539188*
X548654Y539040*
X548547*
X548225Y539188*
X548010Y539483*
X547903Y540074*
Y540812*
X548010Y541550*
X548225Y541993*
X548547Y542141*
X548762*
X549084Y541993*
X549191Y541698*
X560104Y539631D02*
X559889Y539483D01*
X559567Y539040*
Y542141*
X557956Y539040D02*
X558278Y539188D01*
X558493Y539631*
X558601Y540369*
Y540812*
X558493Y541550*
X558278Y541993*
X557956Y542141*
X557742*
X557419Y541993*
X557205Y541550*
X557097Y540812*
Y540369*
X557205Y539631*
X557419Y539188*
X557742Y539040*
X557956*
X548751Y484375D02*
X548536Y484227D01*
X548214Y483784*
Y486885*
G54D126*
X433505Y516279D02*
Y515250D01*
Y518015D02*
Y516989D01*
X433553Y516279D02*
Y515250D01*
Y518015D02*
Y516989D01*
X433601Y516279D02*
Y515250D01*
Y518015D02*
Y516989D01*
X433648Y516279D02*
Y515250D01*
Y518015D02*
Y516989D01*
X433696Y516279D02*
Y515250D01*
Y518015D02*
Y516989D01*
X433743Y516279D02*
Y515250D01*
Y518015D02*
Y516989D01*
X433791Y516279D02*
Y515250D01*
Y518015D02*
Y516989D01*
X433839Y516279D02*
Y515250D01*
Y518015D02*
Y516989D01*
X433886Y516279D02*
Y515250D01*
Y518015D02*
Y516989D01*
X433934Y516279D02*
Y515250D01*
Y518015D02*
Y516989D01*
X433982Y516279D02*
Y515250D01*
Y518015D02*
Y516989D01*
X434029Y516279D02*
Y515250D01*
Y518015D02*
Y516989D01*
X434077Y516279D02*
Y515250D01*
Y518015D02*
Y516989D01*
X434124Y516279D02*
Y515250D01*
Y518013D02*
Y516989D01*
X434172Y516282D02*
Y515247D01*
Y518013D02*
Y516983D01*
X434220Y516293D02*
Y515237D01*
Y518010D02*
Y516975D01*
X434267Y516308D02*
Y515221D01*
Y518007D02*
Y516957D01*
X434315Y516335D02*
Y515194D01*
Y517999D02*
Y516930D01*
X434363Y516372D02*
Y515155D01*
Y517991D02*
Y516893D01*
X434410Y516428D02*
Y515102D01*
Y517984D02*
Y516840D01*
X434458Y516523D02*
Y515004D01*
X434410Y514697D02*
Y513548D01*
X445093Y515250D02*
X446512D01*
X444225Y514546D02*
X446512D01*
X444225D02*
X443966Y514027D01*
Y515835D02*
Y514027D01*
X432934Y516279D02*
X434122D01*
X432934D02*
X432484Y515250D01*
X434122*
Y515253D02*
Y515250D01*
X434474Y514898D02*
X434476D01*
X432354Y514546D02*
X434122D01*
X432354Y516989D02*
Y514546D01*
Y516989D02*
X434122D01*
X442939Y517523D02*
Y513519D01*
X446512*
X445093Y516279D02*
X446512D01*
X445093Y516989D02*
X447216D01*
X447729Y518015D02*
X447216Y516989D01*
X445093Y518015D02*
X447729D01*
X443966D02*
Y517433D01*
X439520Y518015D02*
X443966D01*
X439520D02*
X439115Y517206D01*
X437385Y518015D02*
Y518013D01*
X431327Y518015D02*
X434122D01*
X431327D02*
Y516811D01*
X423262Y518015D02*
X426056D01*
X423262D02*
Y513519D01*
X424288*
Y516989D02*
Y513519D01*
Y516989D02*
X426056D01*
X424868Y516279D02*
X426056D01*
X424868D02*
X424415Y515250D01*
X426011Y513519*
X427437*
X425805Y515274D02*
X427437Y513519D01*
X431327Y514721D02*
Y513519D01*
X434122*
Y513517*
X439277Y516989D02*
X440587D01*
Y513519*
X441616*
Y516989D02*
Y513519D01*
Y516989D02*
X442672D01*
X442939Y517523D02*
X442672Y516989D01*
X433410Y514546D02*
Y513519D01*
X429663Y514591D02*
X431253D01*
X425024D02*
X426442D01*
X423312Y518015D02*
Y513519D01*
X423359Y518015D02*
Y513519D01*
X423407Y518015D02*
Y513519D01*
X423455Y518015D02*
Y513519D01*
X423502Y518015D02*
Y513519D01*
X423550Y518015D02*
Y513519D01*
X423598Y518015D02*
Y513519D01*
X423645Y518015D02*
Y513519D01*
X423693Y518015D02*
Y513519D01*
X423741Y518015D02*
Y513519D01*
X423788Y518015D02*
Y513519D01*
X423836Y518015D02*
Y513519D01*
X423883Y518015D02*
Y513519D01*
X423931Y518015D02*
Y513519D01*
X423979Y518015D02*
Y513519D01*
X424026Y518015D02*
Y513519D01*
X424074Y518015D02*
Y513519D01*
X424122Y518015D02*
Y513519D01*
X424169Y518015D02*
Y513519D01*
X424217Y518015D02*
Y513519D01*
X424265Y518015D02*
Y513519D01*
X424312Y518015D02*
Y516989D01*
X424360Y518015D02*
Y516989D01*
X424407Y518015D02*
Y516989D01*
X424455Y515340D02*
Y515208D01*
X424503Y515448D02*
Y515155D01*
X424550Y515557D02*
Y515104D01*
X424598Y515665D02*
Y515051D01*
X424646Y515777D02*
Y515001D01*
X424693Y515885D02*
Y514948D01*
X424741Y515994D02*
Y514895D01*
X424788Y516102D02*
Y514845D01*
X424836Y516211D02*
Y514792D01*
X424884Y516279D02*
Y514742D01*
X424931Y516279D02*
Y514689D01*
X424979Y516279D02*
Y514639D01*
X425027Y516279D02*
Y514586D01*
X425074Y516279D02*
Y514535D01*
X425122Y516279D02*
Y514483D01*
X425170Y516279D02*
Y514430D01*
X425217Y516279D02*
Y514379D01*
X425265Y516279D02*
Y514326D01*
X425312Y516279D02*
Y514276D01*
X425360Y516279D02*
Y514223D01*
X425408Y516279D02*
Y514173D01*
X425455Y516279D02*
Y514120D01*
X425503Y516279D02*
Y514067D01*
X425551Y516279D02*
Y514017D01*
X425598Y516279D02*
Y513964D01*
X425646Y516279D02*
Y513914D01*
X425693Y516279D02*
Y513861D01*
X425741Y516279D02*
Y513810D01*
X425789Y516279D02*
Y513757D01*
X425836Y515239D02*
Y513707D01*
X425884Y515189D02*
Y513654D01*
X425932Y515136D02*
Y513601D01*
X425979Y515086D02*
Y513551D01*
X426027Y515036D02*
Y513519D01*
X426075Y514983D02*
Y513519D01*
X426122Y514932D02*
Y513519D01*
X426170Y514882D02*
Y513519D01*
X426217Y514829D02*
Y513519D01*
X426265Y514779D02*
Y513519D01*
X426313Y514726D02*
Y513519D01*
X426360Y514676D02*
Y513519D01*
X426408Y514625D02*
Y513519D01*
X426456Y514573D02*
Y513519D01*
X426503Y514522D02*
Y513519D01*
X426551Y514472D02*
Y513519D01*
X426599Y514419D02*
Y513519D01*
X426646Y514369D02*
Y513519D01*
X426694Y514316D02*
Y513519D01*
X426741Y514266D02*
Y513519D01*
X426789Y514215D02*
Y513519D01*
X426837Y514162D02*
Y513519D01*
X426884Y514112D02*
Y513519D01*
X426932Y514059D02*
Y513519D01*
X426980Y514009D02*
Y513519D01*
X427027Y513959D02*
Y513519D01*
X427075Y513906D02*
Y513519D01*
X427122Y513855D02*
Y513519D01*
X427170Y513805D02*
Y513519D01*
X427218Y513752D02*
Y513519D01*
X427265Y513702D02*
Y513519D01*
X427313Y513649D02*
Y513519D01*
X427361Y513599D02*
Y513519D01*
X427408Y513548D02*
Y513519D01*
X427456Y516996D02*
Y514533D01*
X427504Y517068D02*
Y514464D01*
X427551Y517131D02*
Y514400D01*
X427599Y517192D02*
Y514340D01*
X427646Y517248D02*
Y514284D01*
X427694Y517301D02*
Y514231D01*
X427742Y517351D02*
Y514181D01*
X427789Y517396D02*
Y514136D01*
X427837Y517441D02*
Y514091D01*
X427885Y517483D02*
Y514049D01*
X427932Y517520D02*
Y514011D01*
X427980Y517557D02*
Y513974D01*
X428027Y517595D02*
Y513937D01*
X427421Y514591D02*
X429012D01*
X428075Y517626D02*
Y513906D01*
X428123Y515636D02*
Y513874D01*
X428170Y515406D02*
Y513845D01*
X428218Y515276D02*
Y513816D01*
X428266Y515181D02*
Y513789D01*
X428313Y515102D02*
Y513765D01*
X428361Y515033D02*
Y513742D01*
X428409Y514972D02*
Y513718D01*
X428456Y514922D02*
Y513697D01*
X428504Y514874D02*
Y513678D01*
X428551Y514832D02*
Y513660D01*
X428599Y514795D02*
Y513641D01*
X428647Y514760D02*
Y513625D01*
X428694Y514729D02*
Y513612D01*
X428742Y514700D02*
Y513599D01*
X428790Y514676D02*
Y513585D01*
X428837Y514652D02*
Y513575D01*
X428885Y514633D02*
Y513564D01*
X428933Y514615D02*
Y513554D01*
X428980Y514599D02*
Y513546D01*
X429028Y514586D02*
Y513540D01*
X429075Y514575D02*
Y513533D01*
X429123Y514565D02*
Y513527D01*
X429171Y514557D02*
Y513525D01*
X429218Y514551D02*
Y513522D01*
X429266Y514549D02*
Y513519D01*
X429314Y514546D02*
Y513519D01*
X429361Y514546D02*
Y513519D01*
X429409Y514549D02*
Y513519D01*
X429456Y514551D02*
Y513522D01*
X429504Y514557D02*
Y513525D01*
X429552Y514565D02*
Y513527D01*
X429599Y514575D02*
Y513533D01*
X429647Y514586D02*
Y513540D01*
X429695Y514599D02*
Y513546D01*
X429742Y514615D02*
Y513556D01*
X429790Y514633D02*
Y513564D01*
X429838Y514652D02*
Y513575D01*
X429885Y514676D02*
Y513585D01*
X429933Y514702D02*
Y513599D01*
X429980Y514729D02*
Y513612D01*
X430028Y514760D02*
Y513628D01*
X430076Y514795D02*
Y513644D01*
X430123Y514832D02*
Y513660D01*
X430171Y514874D02*
Y513678D01*
X430219Y514922D02*
Y513699D01*
X430266Y514975D02*
Y513720D01*
X430314Y515036D02*
Y513742D01*
X430362Y515104D02*
Y513765D01*
X430409Y515184D02*
Y513792D01*
X430457Y515282D02*
Y513818D01*
X430552Y515652D02*
Y513874D01*
X430600Y517626D02*
Y513906D01*
X430647Y517592D02*
Y513940D01*
X430695Y517557D02*
Y513974D01*
X430743Y517520D02*
Y514011D01*
X430790Y517481D02*
Y514051D01*
X430838Y517438D02*
Y514094D01*
X430885Y517396D02*
Y514136D01*
X430933Y517348D02*
Y514184D01*
X430981Y517298D02*
Y514234D01*
X431028Y517245D02*
Y514287D01*
X431076Y517190D02*
Y514342D01*
X431124Y517129D02*
Y514403D01*
X431171Y517065D02*
Y514467D01*
X431219Y516994D02*
Y514538D01*
X431267Y516917D02*
Y514612D01*
X431314Y516835D02*
Y514697D01*
X431362Y518015D02*
Y513519D01*
X431409Y518015D02*
Y513519D01*
X431457Y518015D02*
Y513519D01*
X431505Y518015D02*
Y513519D01*
X431552Y518015D02*
Y513519D01*
X431600Y518015D02*
Y513519D01*
X431648Y518015D02*
Y513519D01*
X431695Y518015D02*
Y513519D01*
X431743Y518015D02*
Y513519D01*
X431790Y518015D02*
Y513519D01*
X431838Y518015D02*
Y513519D01*
X431886Y518015D02*
Y513519D01*
X431933Y518015D02*
Y513519D01*
X431981Y518015D02*
Y513519D01*
X432029Y518015D02*
Y513519D01*
X432076Y518015D02*
Y513519D01*
X432124Y518015D02*
Y513519D01*
X432172Y518015D02*
Y513519D01*
X432219Y518015D02*
Y513519D01*
X432267Y518015D02*
Y513519D01*
X432314Y518015D02*
Y513519D01*
X442939Y514591D02*
X443966D01*
X431327D02*
X432354D01*
X432410Y514546D02*
Y513519D01*
X432457Y514546D02*
Y513519D01*
X432505Y514546D02*
Y513519D01*
X432553Y514546D02*
Y513519D01*
X432600Y514546D02*
Y513519D01*
X432648Y514546D02*
Y513519D01*
X432696Y514546D02*
Y513519D01*
X432743Y514546D02*
Y513519D01*
X432791Y514546D02*
Y513519D01*
X432838Y514546D02*
Y513519D01*
X432886Y514546D02*
Y513519D01*
X432934Y514546D02*
Y513519D01*
X432981Y514546D02*
Y513519D01*
X433029Y514546D02*
Y513519D01*
X433077Y514546D02*
Y513519D01*
X433124Y514546D02*
Y513519D01*
X433172Y514546D02*
Y513519D01*
X433219Y514546D02*
Y513519D01*
X433267Y514546D02*
Y513519D01*
X433315Y514546D02*
Y513519D01*
X433362Y514546D02*
Y513519D01*
X432362Y518015D02*
Y513519D01*
X433458Y514546D02*
Y513519D01*
X433505Y514546D02*
Y513519D01*
X433553Y514546D02*
Y513519D01*
X433601Y514546D02*
Y513519D01*
X433648Y514546D02*
Y513519D01*
X433696Y514546D02*
Y513519D01*
X433743Y514546D02*
Y513519D01*
X433791Y514546D02*
Y513519D01*
X433839Y514546D02*
Y513519D01*
X433886Y514546D02*
Y513519D01*
X433934Y514546D02*
Y513519D01*
X433982Y514546D02*
Y513519D01*
X434029Y514546D02*
Y513519D01*
X434077Y514546D02*
Y513519D01*
X434124Y514546D02*
Y513517D01*
X434172Y514549D02*
Y513519D01*
X434220Y514559D02*
Y513522D01*
X434267Y514578D02*
Y513525D01*
X434315Y514602D02*
Y513530D01*
X434363Y514641D02*
Y513538D01*
X434458Y514792D02*
Y513559D01*
X434506Y517960D02*
Y513572D01*
X434553Y517944D02*
Y513585D01*
X434601Y517928D02*
Y513604D01*
X434648Y517909D02*
Y513623D01*
X434696Y517888D02*
Y513644D01*
X434744Y517864D02*
Y513665D01*
X434791Y517841D02*
Y513691D01*
X434839Y517812D02*
Y513718D01*
X434887Y517782D02*
Y513750D01*
X434934Y517748D02*
Y513781D01*
X434982Y517714D02*
Y513818D01*
X435030Y517674D02*
Y513858D01*
X435077Y517629D02*
Y513903D01*
X435125Y517581D02*
Y513951D01*
X435172Y517528D02*
Y514004D01*
X435220Y517470D02*
Y514062D01*
X435268Y517404D02*
Y514131D01*
X435315Y517327D02*
Y514205D01*
X435363Y517237D02*
Y514295D01*
X435411Y517129D02*
Y514406D01*
X435458Y516978D02*
Y514573D01*
X435506Y517012D02*
Y514498D01*
X446223Y514546D02*
Y513519D01*
X435601Y517145D02*
Y514366D01*
X435649Y517203D02*
Y514305D01*
X435696Y517258D02*
Y514252D01*
X435744Y517309D02*
Y514199D01*
X435792Y517359D02*
Y514152D01*
X435839Y517404D02*
Y514104D01*
X435887Y517449D02*
Y514062D01*
X435935Y517489D02*
Y514019D01*
X435982Y517528D02*
Y513982D01*
X436030Y517563D02*
Y513945D01*
X436077Y517600D02*
Y513911D01*
X442939Y515877D02*
X447486D01*
X435553Y517081D02*
Y514430D01*
X436173Y515541D02*
Y513847D01*
X436220Y515356D02*
Y513818D01*
X436268Y515237D02*
Y513789D01*
X436316Y515144D02*
Y513763D01*
X436363Y515067D02*
Y513739D01*
X436411Y515001D02*
Y513715D01*
X436459Y514946D02*
Y513694D01*
X436506Y514893D02*
Y513673D01*
X436554Y514848D02*
Y513652D01*
X436601Y514805D02*
Y513636D01*
X436649Y514768D02*
Y513617D01*
X436697Y514734D02*
Y513601D01*
X436744Y514705D02*
Y513588D01*
X436792Y514676D02*
Y513575D01*
X436840Y514652D02*
Y513562D01*
X436887Y514631D02*
Y513551D01*
X436935Y514610D02*
Y513540D01*
X436982Y514594D02*
Y513530D01*
X437030Y514578D02*
Y513522D01*
X437078Y514565D02*
Y513517D01*
X437125Y514551D02*
Y513509D01*
X437173Y514543D02*
Y513506D01*
X437221Y514535D02*
Y513501D01*
X437268Y514530D02*
Y513498D01*
X437316Y514528D02*
Y513495D01*
X436125Y517632D02*
Y513877D01*
X437411Y514525D02*
Y513495D01*
X437459Y514528D02*
Y513495D01*
X437506Y514533D02*
Y513498D01*
X437554Y514538D02*
Y513501D01*
X437602Y514546D02*
Y513506D01*
X437649Y514554D02*
Y513509D01*
X437697Y514567D02*
Y513517D01*
X437745Y514580D02*
Y513525D01*
X437792Y514596D02*
Y513533D01*
X437840Y514612D02*
Y513540D01*
X437887Y514633D02*
Y513551D01*
X437935Y514657D02*
Y513562D01*
X437983Y514681D02*
Y513575D01*
X438030Y514710D02*
Y513588D01*
X438078Y514742D02*
Y513604D01*
X438126Y514776D02*
Y513620D01*
X438173Y514813D02*
Y513636D01*
X438221Y514856D02*
Y513654D01*
X438269Y514903D02*
Y513675D01*
X438316Y514954D02*
Y513697D01*
X438364Y515014D02*
Y513718D01*
X438411Y515081D02*
Y513742D01*
X438459Y515160D02*
Y513768D01*
X438507Y515258D02*
Y513795D01*
X442939Y515163D02*
X443966D01*
X438650Y517626D02*
Y513882D01*
X438697Y517592D02*
Y513916D01*
X438745Y517557D02*
Y513951D01*
X438793Y517520D02*
Y513988D01*
X438840Y517481D02*
Y514027D01*
X438888Y517441D02*
Y514067D01*
X438935Y517396D02*
Y514112D01*
X438983Y517351D02*
Y514157D01*
X439031Y517301D02*
Y514207D01*
X439078Y517248D02*
Y514260D01*
X439126Y517227D02*
Y514316D01*
X439174Y517322D02*
Y514377D01*
X439221Y517417D02*
Y514440D01*
X439269Y517513D02*
Y514509D01*
X439316Y516925D02*
Y514583D01*
X439364Y516840D02*
Y514668D01*
X439412Y516750D02*
Y514758D01*
X439459Y516647D02*
Y514861D01*
X439507Y516525D02*
Y514983D01*
X439555Y516380D02*
Y515128D01*
X439602Y516181D02*
Y515327D01*
X439650Y518015D02*
Y516989D01*
X439698Y518015D02*
Y516989D01*
X439745Y518015D02*
Y516989D01*
X439793Y518015D02*
Y516989D01*
X439840Y518015D02*
Y516989D01*
X439888Y518015D02*
Y516989D01*
X439936Y518015D02*
Y516989D01*
X439983Y518015D02*
Y516989D01*
X440031Y518015D02*
Y516989D01*
X440079Y518015D02*
Y516989D01*
X440126Y518015D02*
Y516989D01*
X440174Y518015D02*
Y516989D01*
X440221Y518015D02*
Y516989D01*
X440269Y518015D02*
Y516989D01*
X440317Y518015D02*
Y516989D01*
X440364Y518015D02*
Y516989D01*
X440412Y518015D02*
Y516989D01*
X440460Y518015D02*
Y516989D01*
X440507Y518015D02*
Y516989D01*
X440555Y518015D02*
Y516989D01*
X440603Y518015D02*
Y513519D01*
X440650Y518015D02*
Y513519D01*
X440698Y518015D02*
Y513519D01*
X440745Y518015D02*
Y513519D01*
X440793Y518015D02*
Y513519D01*
X440841Y518015D02*
Y513519D01*
X440888Y518015D02*
Y513519D01*
X440936Y518015D02*
Y513519D01*
X440984Y518015D02*
Y513519D01*
X441031Y518015D02*
Y513519D01*
X441079Y518015D02*
Y513519D01*
X441127Y518015D02*
Y513519D01*
X441174Y518015D02*
Y513519D01*
X441222Y518015D02*
Y513519D01*
X441269Y518015D02*
Y513519D01*
X441317Y518015D02*
Y513519D01*
X441365Y518015D02*
Y513519D01*
X441412Y518015D02*
Y513519D01*
X441460Y518015D02*
Y513519D01*
X441508Y518015D02*
Y513519D01*
X441555Y518015D02*
Y513519D01*
X441603Y518015D02*
Y513519D01*
X441650Y518015D02*
Y516989D01*
X441698Y518015D02*
Y516989D01*
X441746Y518015D02*
Y516989D01*
X441793Y518015D02*
Y516989D01*
X441841Y518015D02*
Y516989D01*
X441889Y518015D02*
Y516989D01*
X441936Y518015D02*
Y516989D01*
X441984Y518015D02*
Y516989D01*
X442032Y518015D02*
Y516989D01*
X442079Y518015D02*
Y516989D01*
X442127Y518015D02*
Y516989D01*
X442174Y518015D02*
Y516989D01*
X442222Y518015D02*
Y516989D01*
X442270Y518015D02*
Y516989D01*
X442317Y518015D02*
Y516989D01*
X442365Y518015D02*
Y516989D01*
X442413Y518015D02*
Y516989D01*
X442460Y518015D02*
Y516989D01*
X442508Y518015D02*
Y516989D01*
X442555Y518015D02*
Y516989D01*
X442603Y518015D02*
Y516989D01*
X442651Y518015D02*
Y516989D01*
X442698Y518015D02*
Y517041D01*
X442746Y518015D02*
Y517137D01*
X442794Y518015D02*
Y517232D01*
X442841Y518015D02*
Y517327D01*
X442889Y518015D02*
Y517423D01*
X442937Y518015D02*
Y517518D01*
X442984Y518015D02*
Y513519D01*
X443032Y518015D02*
Y513519D01*
X443079Y518015D02*
Y513519D01*
X443127Y518015D02*
Y513519D01*
X443175Y518015D02*
Y513519D01*
X443222Y518015D02*
Y513519D01*
X443270Y518015D02*
Y513519D01*
X443318Y518015D02*
Y513519D01*
X443365Y518015D02*
Y513519D01*
X443413Y518015D02*
Y513519D01*
X443461Y518015D02*
Y513519D01*
X443508Y518015D02*
Y513519D01*
X443556Y518015D02*
Y513519D01*
X443603Y518015D02*
Y513519D01*
X443651Y518015D02*
Y513519D01*
X443699Y518015D02*
Y513519D01*
X443746Y518015D02*
Y513519D01*
X443794Y518015D02*
Y513519D01*
X443842Y518015D02*
Y513519D01*
X443889Y518015D02*
Y513519D01*
X437411Y518013D02*
Y516983D01*
X437364Y514525D02*
Y513495D01*
X444032Y517518D02*
Y515747D01*
X444080Y517571D02*
Y515692D01*
X444127Y517621D02*
Y515644D01*
X444175Y517666D02*
Y515599D01*
X444223Y517706D02*
Y515560D01*
X444270Y517743D02*
Y515523D01*
X444318Y517777D02*
Y515488D01*
X444366Y517806D02*
Y515456D01*
X444413Y517835D02*
Y515430D01*
X444461Y517862D02*
Y515403D01*
X444508Y517886D02*
Y515380D01*
X444556Y517907D02*
Y515358D01*
X444604Y517925D02*
Y515340D01*
X444651Y517941D02*
Y515324D01*
X444699Y517957D02*
Y515308D01*
X444747Y516557D02*
Y515295D01*
X444794Y516441D02*
Y515284D01*
X444842Y516383D02*
Y515274D01*
X444890Y516343D02*
Y515266D01*
X444937Y516314D02*
Y515261D01*
X444985Y516295D02*
Y515255D01*
X445032Y516282D02*
Y515253D01*
X445080Y516279D02*
Y515250D01*
X445128Y516279D02*
Y515250D01*
X445175Y516279D02*
Y515250D01*
X445223Y516279D02*
Y515250D01*
X445271Y516279D02*
Y515250D01*
X445318Y516279D02*
Y515250D01*
X445366Y516279D02*
Y515250D01*
X445413Y516279D02*
Y515250D01*
X445461Y516279D02*
Y515250D01*
X445509Y516279D02*
Y515250D01*
X445556Y516279D02*
Y515250D01*
X445604Y516279D02*
Y515250D01*
X445652Y516279D02*
Y515250D01*
X445699Y516279D02*
Y515250D01*
X445747Y516279D02*
Y515250D01*
X445795Y516279D02*
Y515250D01*
X445842Y516279D02*
Y515250D01*
X445890Y516279D02*
Y515250D01*
X445937Y516279D02*
Y515250D01*
X445985Y516279D02*
Y515250D01*
X446033Y516279D02*
Y515250D01*
X446080Y516279D02*
Y515250D01*
X446128Y516279D02*
Y515250D01*
X446176Y516279D02*
Y515250D01*
X446223Y516279D02*
Y515250D01*
X446271Y516279D02*
Y515250D01*
X446318Y516279D02*
Y515250D01*
X446366Y516279D02*
Y515250D01*
X446414Y516279D02*
Y515250D01*
X446461Y516279D02*
Y515250D01*
X446509Y516279D02*
Y515250D01*
X446557Y516277D02*
Y515247D01*
X446604Y516274D02*
Y515237D01*
X446652Y516271D02*
Y515221D01*
X446700Y516266D02*
Y515194D01*
X446747Y516258D02*
Y515160D01*
X446795Y516248D02*
Y515104D01*
X442939Y514734D02*
X443966D01*
X446890Y516224D02*
Y513572D01*
X446938Y516211D02*
Y513585D01*
X446985Y516195D02*
Y513601D01*
X447033Y516176D02*
Y513620D01*
X447081Y516155D02*
Y513641D01*
X447128Y516131D02*
Y513665D01*
X447176Y516107D02*
Y513689D01*
X447224Y516078D02*
Y513718D01*
X447271Y516049D02*
Y513747D01*
X447319Y516017D02*
Y513781D01*
X447366Y515980D02*
Y513816D01*
X447414Y515941D02*
Y513855D01*
X447462Y515898D02*
Y513898D01*
X447509Y515851D02*
Y513945D01*
X447557Y515798D02*
Y513998D01*
X447605Y515740D02*
Y514059D01*
X447652Y515673D02*
Y514125D01*
X447700Y515597D02*
Y514199D01*
X444006Y515782D02*
X447573D01*
X440587Y515829D02*
X441616D01*
X444752Y517973D02*
X447708D01*
X444604Y517925D02*
X447684D01*
X444493Y517878D02*
X447660D01*
X444403Y517830D02*
X447636D01*
X444326Y517782D02*
X447613D01*
X444260Y517735D02*
X447589D01*
X444199Y517687D02*
X447565D01*
X444146Y517640D02*
X447541D01*
X444098Y517592D02*
X447517D01*
X444056Y517544D02*
X447493D01*
X444016Y517497D02*
X447470D01*
X442939Y517449D02*
X447446D01*
X442939Y517401D02*
X447422D01*
X442939Y517354D02*
X447398D01*
X442939Y517306D02*
X447374D01*
X442939Y517258D02*
X447351D01*
X442939Y517211D02*
X447327D01*
X442939Y517163D02*
X447303D01*
X442939Y517116D02*
X447279D01*
X442939Y517068D02*
X447255D01*
X442939Y514115D02*
X443966D01*
X434458Y517973D02*
Y516745D01*
X442939Y515782D02*
X443966D01*
X442939Y516973D02*
X444990D01*
X442939Y516925D02*
X444892D01*
X442939Y516877D02*
X444837D01*
X442939Y516830D02*
X444800D01*
X442939Y516782D02*
X444773D01*
X442939Y516735D02*
X444755D01*
X442939Y516687D02*
X444744D01*
X442939Y516639D02*
X444741D01*
X442939Y516592D02*
X444741D01*
X442939Y516544D02*
X444752D01*
X442939Y516496D02*
X444768D01*
X442939Y516449D02*
X444792D01*
X442939Y516401D02*
X444826D01*
X442939Y516353D02*
X444879D01*
X442939Y516306D02*
X444961D01*
X442939Y516258D02*
X446752D01*
X442939Y516211D02*
X446940D01*
X442939Y516163D02*
X447067D01*
X442939Y516115D02*
X447163D01*
X442939Y516068D02*
X447245D01*
X442939Y516020D02*
X447316D01*
X442939Y515972D02*
X447380D01*
X442939Y515925D02*
X447435D01*
X446684Y514591D02*
X447856D01*
X446842Y516237D02*
Y515014D01*
Y514779D02*
Y513559D01*
X442939Y515115D02*
X443966D01*
X444088Y515687D02*
X447644D01*
X442939Y515067D02*
X443966D01*
X444188Y515591D02*
X447705D01*
X442939Y515020D02*
X443966D01*
X444310Y515496D02*
X447755D01*
X442939Y514972D02*
X443966D01*
X444471Y515401D02*
X447798D01*
X442939Y514924D02*
X443966D01*
X444712Y515306D02*
X447830D01*
X442939Y514877D02*
X443966D01*
X446678Y515210D02*
X447856D01*
X442939Y514829D02*
X443966D01*
X446790Y515115D02*
X447875D01*
X442939Y514782D02*
X443966D01*
X446842Y515020D02*
X447885D01*
X447700Y518015D02*
Y517960D01*
X446864Y514924D02*
X447890D01*
X442939Y514686D02*
X443966D01*
X446858Y514829D02*
X447890D01*
X442939Y514639D02*
X443966D01*
X446824Y514734D02*
X447880D01*
X431327Y514543D02*
X437181D01*
X442939D02*
X443966D01*
X442939Y514496D02*
X443966D01*
X442939Y514448D02*
X443966D01*
X442939Y514400D02*
X443966D01*
X442939Y514353D02*
X443966D01*
X442939Y514305D02*
X443966D01*
X442939Y514258D02*
X443966D01*
X442939Y514210D02*
X443966D01*
X442939Y514162D02*
X443966D01*
X444011Y514115D02*
X447647D01*
X442939Y514067D02*
X447613D01*
X442939Y514019D02*
X447575D01*
X442939Y513972D02*
X447533D01*
X442939Y513924D02*
X447488D01*
X442939Y513877D02*
X447438D01*
X442939Y513829D02*
X447382D01*
X442939Y513781D02*
X447319D01*
X442939Y513734D02*
X447250D01*
X442939Y513686D02*
X447168D01*
X442939Y513638D02*
X447073D01*
X442939Y513591D02*
X446948D01*
X442939Y513543D02*
X446766D01*
X424630Y515020D02*
X426043D01*
X423262Y514972D02*
X424288D01*
X424675D02*
X426088D01*
X423262Y514924D02*
X424288D01*
X424717D02*
X426133D01*
X423262Y514877D02*
X424288D01*
X424762D02*
X426175D01*
X423262Y514829D02*
X424288D01*
X424804D02*
X426220D01*
X423262Y514782D02*
X424288D01*
X424849D02*
X426265D01*
X423262Y514734D02*
X424288D01*
X424894D02*
X426310D01*
X423262Y514686D02*
X424288D01*
X424937D02*
X426352D01*
X423262Y514639D02*
X424288D01*
X424982D02*
X426397D01*
X429803D02*
X431282D01*
X423262Y514591D02*
X424288D01*
X424455Y518015D02*
Y516989D01*
X424503Y518015D02*
Y516989D01*
X424550Y518015D02*
Y516989D01*
X424598Y518015D02*
Y516989D01*
X424646Y518015D02*
Y516989D01*
X424693Y518015D02*
Y516989D01*
X424741Y518015D02*
Y516989D01*
X424788Y518015D02*
Y516989D01*
X424836Y518015D02*
Y516989D01*
X424884Y518015D02*
Y516989D01*
X424931Y518015D02*
Y516989D01*
X424979Y518015D02*
Y516989D01*
X425027Y518015D02*
Y516989D01*
X425074Y518015D02*
Y516989D01*
X425122Y518015D02*
Y516989D01*
X425170Y518015D02*
Y516989D01*
X425217Y518015D02*
Y516989D01*
X425265Y518015D02*
Y516989D01*
X425312Y518015D02*
Y516989D01*
X425360Y518015D02*
Y516989D01*
X425408Y518015D02*
Y516989D01*
X425455Y518015D02*
Y516989D01*
X425503Y518015D02*
Y516989D01*
X425551Y518015D02*
Y516989D01*
X425598Y518015D02*
Y516989D01*
X425646Y518015D02*
Y516989D01*
X425693Y518015D02*
Y516989D01*
X425741Y518015D02*
Y516989D01*
X425789Y518015D02*
Y516989D01*
X425836Y518015D02*
Y516989D01*
Y516279D02*
Y515268D01*
X425884Y518015D02*
Y516989D01*
Y516279D02*
Y515261D01*
X425932Y518015D02*
Y516989D01*
Y516279D02*
Y515255D01*
X425979Y518015D02*
Y516989D01*
Y516279D02*
Y515253D01*
X426027Y518015D02*
Y516989D01*
Y516279D02*
Y515250D01*
X426075Y518013D02*
Y516986D01*
Y516279D02*
Y515253D01*
X426122Y518013D02*
Y516981D01*
Y516285D02*
Y515253D01*
X426170Y518010D02*
Y516967D01*
Y516298D02*
Y515255D01*
X426217Y518005D02*
Y516949D01*
Y516316D02*
Y515261D01*
X426265Y517997D02*
Y516920D01*
Y516346D02*
Y515266D01*
X426313Y517989D02*
Y516877D01*
Y516388D02*
Y515276D01*
X426360Y517981D02*
Y516814D01*
Y516451D02*
Y515284D01*
X426408Y517968D02*
Y516676D01*
Y516589D02*
Y515298D01*
X426456Y517954D02*
Y515311D01*
X426503Y517939D02*
Y515327D01*
X426551Y517923D02*
Y515343D01*
X426599Y517904D02*
Y515361D01*
X426646Y517880D02*
Y515382D01*
X426694Y517859D02*
Y515406D01*
X426741Y517833D02*
Y515433D01*
X426789Y517804D02*
Y515462D01*
X426837Y517772D02*
Y515493D01*
X426884Y517737D02*
Y515528D01*
X426932Y517700D02*
Y515565D01*
X426980Y517661D02*
Y515605D01*
X427027Y517616D02*
Y515650D01*
X427075Y517565D02*
Y515700D01*
X427122Y517510D02*
Y515374D01*
X427170Y517449D02*
Y515165D01*
X427218Y517380D02*
Y515014D01*
X427265Y517301D02*
Y514890D01*
X427313Y517206D02*
Y514787D01*
X427361Y517086D02*
Y514694D01*
X427408Y516922D02*
Y514610D01*
X444747Y517970D02*
Y516708D01*
X444794Y517981D02*
Y516824D01*
X444842Y517991D02*
Y516883D01*
X444890Y517999D02*
Y516922D01*
X444937Y518005D02*
Y516951D01*
X444985Y518010D02*
Y516970D01*
X445032Y518013D02*
Y516983D01*
X445080Y518015D02*
Y516986D01*
X445128Y518015D02*
Y516989D01*
X445175Y518015D02*
Y516989D01*
X445223Y518015D02*
Y516989D01*
X445271Y518015D02*
Y516989D01*
X445318Y518015D02*
Y516989D01*
X445366Y518015D02*
Y516989D01*
X445413Y518015D02*
Y516989D01*
X445461Y518015D02*
Y516989D01*
X445509Y518015D02*
Y516989D01*
X445556Y518015D02*
Y516989D01*
X445604Y518015D02*
Y516989D01*
X445652Y518015D02*
Y516989D01*
X445699Y518015D02*
Y516989D01*
X445747Y518015D02*
Y516989D01*
X445795Y518015D02*
Y516989D01*
X445842Y518015D02*
Y516989D01*
X445890Y518015D02*
Y516989D01*
X445937Y518015D02*
Y516989D01*
X445985Y518015D02*
Y516989D01*
X446033Y518015D02*
Y516989D01*
X446080Y518015D02*
Y516989D01*
X446128Y518015D02*
Y516989D01*
X446176Y518015D02*
Y516989D01*
X446223Y518015D02*
Y516989D01*
X438613Y515734D02*
X439645D01*
X440587D02*
X441616D01*
X438610Y515687D02*
X439642D01*
X440587D02*
X441616D01*
X438607Y515639D02*
X439642D01*
X440587D02*
X441616D01*
X438602Y515591D02*
X439639D01*
X440587D02*
X441616D01*
X438594Y515544D02*
X439634D01*
X440587D02*
X441616D01*
X438586Y515496D02*
X439629D01*
X440587D02*
X441616D01*
X438573Y515448D02*
X439623D01*
X440587D02*
X441616D01*
X438560Y515401D02*
X439615D01*
X440587D02*
X441616D01*
X438546Y515353D02*
X439608D01*
X440587D02*
X441616D01*
X438528Y515306D02*
X439600D01*
X440587D02*
X441616D01*
X438507Y515258D02*
X439589D01*
X440587D02*
X441616D01*
X438486Y515210D02*
X439578D01*
X440587D02*
X441616D01*
X438462Y515163D02*
X439565D01*
X440587D02*
X441616D01*
X439316Y517608D02*
Y516989D01*
X439364Y517703D02*
Y516989D01*
X439412Y517798D02*
Y516989D01*
X439459Y517894D02*
Y516989D01*
X439507Y517989D02*
Y516989D01*
X439555Y518015D02*
Y516989D01*
X439602Y518015D02*
Y516989D01*
X446271Y518015D02*
Y516989D01*
X446318Y518015D02*
Y516989D01*
X446366Y518015D02*
Y516989D01*
X446414Y518015D02*
Y516989D01*
X446461Y518015D02*
Y516989D01*
X446509Y518015D02*
Y516989D01*
X446557Y518015D02*
Y516989D01*
X446604Y518015D02*
Y516989D01*
X446652Y518015D02*
Y516989D01*
X446700Y518015D02*
Y516989D01*
X446747Y518015D02*
Y516989D01*
X446795Y518015D02*
Y516989D01*
X446842Y518015D02*
Y516989D01*
X438433Y515115D02*
X439552D01*
X440587D02*
X441616D01*
X438404Y515067D02*
X439536D01*
X440587D02*
X441616D01*
X438369Y515020D02*
X439520D01*
X440587D02*
X441616D01*
X438332Y514972D02*
X439504D01*
X440587D02*
X441616D01*
X438290Y514924D02*
X439486D01*
X440587D02*
X441616D01*
X438242Y514877D02*
X439467D01*
X440587D02*
X441616D01*
X438192Y514829D02*
X439446D01*
X440587D02*
X441616D01*
X438134Y514782D02*
X439422D01*
X440587D02*
X441616D01*
X438067Y514734D02*
X439401D01*
X440587D02*
X441616D01*
X446890Y518015D02*
Y516989D01*
X446938Y518015D02*
Y516989D01*
X446985Y518015D02*
Y516989D01*
X447033Y518015D02*
Y516989D01*
X447081Y518015D02*
Y516989D01*
X447128Y518015D02*
Y516989D01*
X447176Y518015D02*
Y516989D01*
X447224Y518015D02*
Y517007D01*
X447271Y518015D02*
Y517102D01*
X447319Y518015D02*
Y517198D01*
X447366Y518015D02*
Y517293D01*
X447414Y518015D02*
Y517388D01*
X447462Y518015D02*
Y517483D01*
X447509Y518015D02*
Y517579D01*
X447557Y518015D02*
Y517674D01*
X447605Y518015D02*
Y517769D01*
X447652Y518015D02*
Y517864D01*
X437991Y514686D02*
X439375D01*
X440587D02*
X441616D01*
X437898Y514639D02*
X439348D01*
X440587D02*
X441616D01*
X437776Y514591D02*
X439322D01*
X440587D02*
X441616D01*
X423262Y514543D02*
X424288D01*
X425069D02*
X426485D01*
X427453D02*
X431224D01*
X437586D02*
X439293D01*
X440587D02*
X441616D01*
X423262Y514496D02*
X424288D01*
X425111D02*
X426530D01*
X427485D02*
X431192D01*
X431327D02*
X435442D01*
X435508D02*
X439261D01*
X440587D02*
X441616D01*
X423262Y514448D02*
X424288D01*
X425156D02*
X426575D01*
X427517D02*
X431158D01*
X431327D02*
X435426D01*
X435543D02*
X439226D01*
X440587D02*
X441616D01*
X423262Y514400D02*
X424288D01*
X425199D02*
X426620D01*
X427554D02*
X431124D01*
X431327D02*
X435411D01*
X435577D02*
X439192D01*
X440587D02*
X441616D01*
X423262Y514353D02*
X424288D01*
X425244D02*
X426662D01*
X427591D02*
X431084D01*
X431327D02*
X435389D01*
X435614D02*
X439155D01*
X440587D02*
X441616D01*
X423262Y514305D02*
X424288D01*
X425289D02*
X426707D01*
X427631D02*
X431044D01*
X431327D02*
X435368D01*
X435651D02*
X439118D01*
X440587D02*
X441616D01*
X423262Y514258D02*
X424288D01*
X425331D02*
X426752D01*
X427673D02*
X431005D01*
X431327D02*
X435344D01*
X435694D02*
X439076D01*
X440587D02*
X441616D01*
X423262Y514210D02*
X424288D01*
X425376D02*
X426794D01*
X427715D02*
X430960D01*
X431327D02*
X435318D01*
X435736D02*
X439033D01*
X440587D02*
X441616D01*
X423262Y514162D02*
X424288D01*
X425418D02*
X426839D01*
X427763D02*
X430912D01*
X431327D02*
X435289D01*
X435784D02*
X438988D01*
X440587D02*
X441616D01*
X423262Y514115D02*
X424288D01*
X425463D02*
X426884D01*
X427813D02*
X430862D01*
X431327D02*
X435257D01*
X435831D02*
X438938D01*
X440587D02*
X441616D01*
X423262Y514067D02*
X424288D01*
X425506D02*
X426929D01*
X427866D02*
X430809D01*
X431327D02*
X435223D01*
X435884D02*
X438888D01*
X440587D02*
X441616D01*
X423262Y514019D02*
X424288D01*
X425551D02*
X426972D01*
X427924D02*
X430750D01*
X431327D02*
X435186D01*
X435940D02*
X438832D01*
X440587D02*
X441616D01*
X423262Y513972D02*
X424288D01*
X425596D02*
X427017D01*
X427985D02*
X430690D01*
X431327D02*
X435146D01*
X435998D02*
X438771D01*
X440587D02*
X441616D01*
X423262Y513924D02*
X424288D01*
X425638D02*
X427062D01*
X428051D02*
X430623D01*
X431327D02*
X435098D01*
X436062D02*
X438708D01*
X440587D02*
X441616D01*
X423262Y513877D02*
X424288D01*
X425683D02*
X427104D01*
X428123D02*
X430555D01*
X431327D02*
X435051D01*
X436130D02*
X438639D01*
X440587D02*
X441616D01*
X423262Y513829D02*
X424288D01*
X425725D02*
X427149D01*
X428199D02*
X430475D01*
X431327D02*
X434995D01*
X436204D02*
X438565D01*
X440587D02*
X441616D01*
X423262Y513781D02*
X424288D01*
X425770D02*
X427194D01*
X428284D02*
X430391D01*
X431327D02*
X434932D01*
X436286D02*
X438486D01*
X440587D02*
X441616D01*
X423262Y513734D02*
X424288D01*
X425813D02*
X427239D01*
X428379D02*
X430295D01*
X431327D02*
X434863D01*
X436376D02*
X438393D01*
X440587D02*
X441616D01*
X423262Y513686D02*
X424288D01*
X425858D02*
X427281D01*
X428488D02*
X430187D01*
X431327D02*
X434781D01*
X436477D02*
X438292D01*
X440587D02*
X441616D01*
X423262Y513638D02*
X424288D01*
X425900D02*
X427326D01*
X428615D02*
X430060D01*
X431327D02*
X434686D01*
X436596D02*
X438176D01*
X440587D02*
X441616D01*
X423262Y513591D02*
X424288D01*
X425945D02*
X427371D01*
X428776D02*
X429898D01*
X431327D02*
X434564D01*
X436739D02*
X438033D01*
X440587D02*
X441616D01*
X423262Y513543D02*
X424288D01*
X425990D02*
X427414D01*
X429012D02*
X429663D01*
X431327D02*
X434381D01*
X436927D02*
X437845D01*
X431327Y516973D02*
X432354D01*
X431327Y516925D02*
X432354D01*
X431327Y516877D02*
X432354D01*
X426352Y516830D02*
X428737D01*
X426379Y516782D02*
X428657D01*
X426397Y516735D02*
X428591D01*
X426408Y516687D02*
X428536D01*
X426411Y516639D02*
X428483D01*
X426411Y516592D02*
X428438D01*
X426400Y516544D02*
X428395D01*
X426384Y516496D02*
X428358D01*
X426360Y516449D02*
X428324D01*
X426326Y516401D02*
X428295D01*
X426273Y516353D02*
X428266D01*
X426191Y516306D02*
X428242D01*
X424857Y516258D02*
X428221D01*
X424836Y516211D02*
X428199D01*
X424818Y516163D02*
X428184D01*
X424796Y516115D02*
X428168D01*
X424775Y516068D02*
X428155D01*
X424754Y516020D02*
X428144D01*
X424733Y515972D02*
X428133D01*
X424712Y515925D02*
X428128D01*
X424691Y515877D02*
X428123D01*
X424669Y515829D02*
X428117D01*
X443984Y517457D02*
Y515808D01*
X424627Y515734D02*
X428117D01*
X427091Y515687D02*
X428120D01*
X427093Y515639D02*
X428123D01*
X427096Y515591D02*
X428131D01*
X427101Y515544D02*
X428139D01*
X427107Y515496D02*
X428147D01*
X427112Y515448D02*
X428160D01*
X427120Y515401D02*
X428173D01*
X427128Y515353D02*
X428189D01*
X427138Y515306D02*
X428207D01*
X427149Y515258D02*
X428229D01*
X427160Y515210D02*
X428252D01*
X427173Y515163D02*
X428276D01*
X427186Y515115D02*
X428305D01*
X427202Y515067D02*
X428337D01*
X427218Y515020D02*
X428374D01*
X427234Y514972D02*
X428411D01*
X427255Y514924D02*
X428456D01*
X427273Y514877D02*
X428504D01*
X427294Y514829D02*
X428557D01*
X427318Y514782D02*
X428618D01*
X427342Y514734D02*
X428689D01*
X427366Y514686D02*
X428771D01*
X431327Y514639D02*
X432354D01*
X424648Y515782D02*
X428117D01*
X428123Y517658D02*
Y515898D01*
X428170Y517687D02*
Y516129D01*
X428218Y517716D02*
Y516256D01*
X428266Y517743D02*
Y516353D01*
X428313Y517767D02*
Y516433D01*
X428361Y517790D02*
Y516499D01*
X428409Y517814D02*
Y516560D01*
X428456Y517835D02*
Y516613D01*
X428504Y517854D02*
Y516660D01*
X428551Y517872D02*
Y516700D01*
X428599Y517891D02*
Y516740D01*
X428647Y517907D02*
Y516774D01*
X428694Y517920D02*
Y516806D01*
X428742Y517933D02*
Y516832D01*
X428790Y517946D02*
Y516859D01*
X428837Y517957D02*
Y516880D01*
X428885Y517968D02*
Y516901D01*
X428933Y517978D02*
Y516920D01*
X428980Y517986D02*
Y516933D01*
X429028Y517994D02*
Y516949D01*
X429075Y517999D02*
Y516959D01*
X429123Y518005D02*
Y516967D01*
X429171Y518007D02*
Y516975D01*
X429218Y518010D02*
Y516981D01*
X429266Y518013D02*
Y516986D01*
X429314Y518015D02*
Y516986D01*
X429361Y518013D02*
Y516986D01*
X429409Y518013D02*
Y516986D01*
X429456Y518010D02*
Y516981D01*
X429504Y518007D02*
Y516975D01*
X429552Y518005D02*
Y516967D01*
X429599Y517999D02*
Y516959D01*
X429647Y517991D02*
Y516946D01*
X429695Y517986D02*
Y516933D01*
X429742Y517978D02*
Y516917D01*
X429790Y517968D02*
Y516901D01*
X429838Y517957D02*
Y516880D01*
X429885Y517946D02*
Y516856D01*
X429933Y517933D02*
Y516832D01*
X429980Y517920D02*
Y516803D01*
X430028Y517904D02*
Y516772D01*
X430076Y517888D02*
Y516737D01*
X430123Y517872D02*
Y516700D01*
X430171Y517854D02*
Y516658D01*
X430219Y517833D02*
Y516610D01*
X430266Y517812D02*
Y516557D01*
X430314Y517790D02*
Y516499D01*
X430362Y517767D02*
Y516430D01*
X430409Y517743D02*
Y516348D01*
X430457Y517714D02*
Y516253D01*
X430504Y517687D02*
Y516123D01*
X432717Y515782D02*
X436157D01*
X434230Y516973D02*
X437218D01*
X434326Y516925D02*
X437009D01*
X434381Y516877D02*
X436885D01*
X434418Y516830D02*
X436789D01*
X434445Y516782D02*
X436710D01*
X434463Y516735D02*
X436641D01*
X434474Y516687D02*
X436583D01*
X434476Y516639D02*
X436530D01*
X434474Y516592D02*
X436485D01*
X434466Y516544D02*
X436443D01*
X434450Y516496D02*
X436403D01*
X434424Y516449D02*
X436369D01*
X434389Y516401D02*
X436339D01*
X434339Y516353D02*
X436310D01*
X434257Y516306D02*
X436286D01*
X432926Y516258D02*
X436263D01*
X432905Y516211D02*
X436244D01*
X432883Y516163D02*
X436226D01*
X432862Y516115D02*
X436210D01*
X432841Y516068D02*
X436197D01*
X432820Y516020D02*
X436183D01*
X432799Y515972D02*
X436175D01*
X432780Y515925D02*
X436167D01*
X432759Y515877D02*
X436162D01*
X432738Y515829D02*
X436157D01*
X442939D02*
X447530D01*
X436173Y517663D02*
Y515967D01*
X436220Y517692D02*
Y516152D01*
X436268Y517719D02*
Y516271D01*
X436316Y517745D02*
Y516364D01*
X436363Y517772D02*
Y516441D01*
X436411Y517793D02*
Y516507D01*
X436459Y517817D02*
Y516562D01*
X436506Y517838D02*
Y516615D01*
X436554Y517857D02*
Y516660D01*
X436601Y517875D02*
Y516703D01*
X436649Y517891D02*
Y516740D01*
X436697Y517907D02*
Y516774D01*
X436744Y517923D02*
Y516803D01*
X436792Y517936D02*
Y516832D01*
X436840Y517946D02*
Y516856D01*
X436887Y517960D02*
Y516877D01*
X436935Y517970D02*
Y516899D01*
X436982Y517978D02*
Y516914D01*
X437030Y517986D02*
Y516930D01*
X437078Y517994D02*
Y516944D01*
X437125Y517999D02*
Y516957D01*
X437173Y518005D02*
Y516965D01*
X437221Y518007D02*
Y516973D01*
X437268Y518010D02*
Y516978D01*
X437316Y518013D02*
Y516981D01*
X437364Y518013D02*
Y516983D01*
X442939Y517020D02*
X447231D01*
X437459Y518013D02*
Y516981D01*
X437506Y518010D02*
Y516975D01*
X437554Y518007D02*
Y516970D01*
X437602Y518002D02*
Y516962D01*
X437649Y517999D02*
Y516954D01*
X437697Y517991D02*
Y516941D01*
X437745Y517984D02*
Y516928D01*
X437792Y517976D02*
Y516912D01*
X437840Y517968D02*
Y516896D01*
X437887Y517957D02*
Y516875D01*
X437935Y517946D02*
Y516851D01*
X437983Y517933D02*
Y516827D01*
X438030Y517920D02*
Y516798D01*
X438078Y517904D02*
Y516766D01*
X438126Y517888D02*
Y516732D01*
X438173Y517872D02*
Y516695D01*
X438221Y517854D02*
Y516652D01*
X438269Y517833D02*
Y516605D01*
X438316Y517812D02*
Y516555D01*
X438364Y517790D02*
Y516494D01*
X438411Y517767D02*
Y516428D01*
X438459Y517740D02*
Y516348D01*
X438507Y517714D02*
Y516250D01*
X438554Y517687D02*
Y516126D01*
X432696Y515734D02*
X436157D01*
X432674Y515687D02*
X436157D01*
X432653Y515639D02*
X436162D01*
X432632Y515591D02*
X436167D01*
X432611Y515544D02*
X436173D01*
X432592Y515496D02*
X436183D01*
X432571Y515448D02*
X436194D01*
X432550Y515401D02*
X436207D01*
X432529Y515353D02*
X436223D01*
X432508Y515306D02*
X436242D01*
X432486Y515258D02*
X436260D01*
X434291Y515210D02*
X436284D01*
X434357Y515163D02*
X436308D01*
X434402Y515115D02*
X436337D01*
X434434Y515067D02*
X436366D01*
X434455Y515020D02*
X436400D01*
X434469Y514972D02*
X436437D01*
X434474Y514924D02*
X436480D01*
X434474Y514877D02*
X436525D01*
X434469Y514829D02*
X436578D01*
X434455Y514782D02*
X436636D01*
X434434Y514734D02*
X436702D01*
X434405Y514686D02*
X436779D01*
X434360Y514639D02*
X436871D01*
X434294Y514591D02*
X436990D01*
X446750Y514639D02*
X447867D01*
X430504Y515411D02*
Y513845D01*
X438602Y517658D02*
Y515909D01*
X443984Y514064D02*
Y513519D01*
X444032Y514160D02*
Y513519D01*
X444080Y514255D02*
Y513519D01*
X444127Y514350D02*
Y513519D01*
X444175Y514448D02*
Y513519D01*
X444223Y514546D02*
Y513519D01*
X444270Y514546D02*
Y513519D01*
X444318Y514546D02*
Y513519D01*
X444366Y514546D02*
Y513519D01*
X444413Y514546D02*
Y513519D01*
X444461Y514546D02*
Y513519D01*
X444508Y514546D02*
Y513519D01*
X444556Y514546D02*
Y513519D01*
X444604Y514546D02*
Y513519D01*
X444651Y514546D02*
Y513519D01*
X444699Y514546D02*
Y513519D01*
X444747Y514546D02*
Y513519D01*
X444794Y514546D02*
Y513519D01*
X444842Y514546D02*
Y513519D01*
X444890Y514546D02*
Y513519D01*
X444937Y514546D02*
Y513519D01*
X444985Y514546D02*
Y513519D01*
X445032Y514546D02*
Y513519D01*
X445080Y514546D02*
Y513519D01*
X445128Y514546D02*
Y513519D01*
X445175Y514546D02*
Y513519D01*
X445223Y514546D02*
Y513519D01*
X445271Y514546D02*
Y513519D01*
X445318Y514546D02*
Y513519D01*
X445366Y514546D02*
Y513519D01*
X445413Y514546D02*
Y513519D01*
X445461Y514546D02*
Y513519D01*
X445509Y514546D02*
Y513519D01*
X445556Y514546D02*
Y513519D01*
X445604Y514546D02*
Y513519D01*
X445652Y514546D02*
Y513519D01*
X445699Y514546D02*
Y513519D01*
X445747Y514546D02*
Y513519D01*
X445795Y514546D02*
Y513519D01*
X445842Y514546D02*
Y513519D01*
X445890Y514546D02*
Y513519D01*
X445937Y514546D02*
Y513519D01*
X445985Y514546D02*
Y513519D01*
X446033Y514546D02*
Y513519D01*
X446080Y514546D02*
Y513519D01*
X446128Y514546D02*
Y513519D01*
X446176Y514546D02*
Y513519D01*
X443937Y518015D02*
Y513519D01*
X446271Y514546D02*
Y513519D01*
X446318Y514546D02*
Y513519D01*
X446366Y514546D02*
Y513519D01*
X446414Y514546D02*
Y513519D01*
X446461Y514546D02*
Y513519D01*
X446509Y514546D02*
Y513519D01*
X446557Y514549D02*
Y513519D01*
X446604Y514557D02*
Y513522D01*
X446652Y514575D02*
Y513525D01*
X446700Y514599D02*
Y513530D01*
X446747Y514636D02*
Y513538D01*
X446795Y514689D02*
Y513548D01*
X438554Y515382D02*
Y513821D01*
X438602Y515599D02*
Y513850D01*
X442939Y515734D02*
X443966D01*
X442939Y515687D02*
X443966D01*
X442939Y515639D02*
X443966D01*
X442939Y515591D02*
X443966D01*
X442939Y515544D02*
X443966D01*
X442939Y515496D02*
X443966D01*
X442939Y515448D02*
X443966D01*
X442939Y515401D02*
X443966D01*
X442939Y515353D02*
X443966D01*
X442939Y515306D02*
X443966D01*
X442939Y515258D02*
X443966D01*
X442939Y515210D02*
X443966D01*
X444045Y515734D02*
X447610D01*
X444135Y515639D02*
X447676D01*
X444244Y515544D02*
X447732D01*
X444384Y515448D02*
X447777D01*
X444575Y515353D02*
X447814D01*
X444964Y515258D02*
X447845D01*
X446745Y515163D02*
X447867D01*
X446821Y515067D02*
X447882D01*
X446856Y514972D02*
X447890D01*
X446864Y514877D02*
X447890D01*
X446845Y514782D02*
X447885D01*
X446792Y514686D02*
X447875D01*
X444223Y514543D02*
X447845D01*
X444199Y514496D02*
X447830D01*
X444175Y514448D02*
X447816D01*
X444154Y514400D02*
X447798D01*
X444130Y514353D02*
X447779D01*
X444106Y514305D02*
X447755D01*
X444082Y514258D02*
X447732D01*
X444059Y514210D02*
X447708D01*
X444035Y514162D02*
X447679D01*
X440587Y513543D02*
X441616D01*
X427440Y516973D02*
X429142D01*
X426260Y516925D02*
X428948D01*
X426315Y516877D02*
X428829D01*
X429941Y516830D02*
X432354D01*
X430017Y516782D02*
X432354D01*
X430084Y516735D02*
X432354D01*
X430142Y516687D02*
X432354D01*
X430192Y516639D02*
X432354D01*
X430240Y516592D02*
X432354D01*
X430279Y516544D02*
X432354D01*
X430317Y516496D02*
X432354D01*
X430351Y516449D02*
X432354D01*
X430383Y516401D02*
X432354D01*
X430409Y516353D02*
X432354D01*
X430433Y516306D02*
X432354D01*
X430457Y516258D02*
X432354D01*
X430475Y516211D02*
X432354D01*
X430494Y516163D02*
X432354D01*
X430507Y516115D02*
X432354D01*
X430520Y516068D02*
X432354D01*
X430534Y516020D02*
X432354D01*
X430541Y515972D02*
X432354D01*
X430549Y515925D02*
X432354D01*
X430555Y515877D02*
X432354D01*
X430557Y515829D02*
X432354D01*
X430557Y515782D02*
X432354D01*
X430557Y515734D02*
X432354D01*
X430555Y515687D02*
X432354D01*
X430552Y515639D02*
X432354D01*
X430547Y515591D02*
X432354D01*
X430539Y515544D02*
X432354D01*
X430528Y515496D02*
X432354D01*
X430515Y515448D02*
X432354D01*
X430502Y515401D02*
X432354D01*
X430486Y515353D02*
X432354D01*
X430467Y515306D02*
X432354D01*
X430446Y515258D02*
X432354D01*
X430425Y515210D02*
X432354D01*
X430399Y515163D02*
X432354D01*
X430369Y515115D02*
X432354D01*
X430338Y515067D02*
X432354D01*
X430303Y515020D02*
X432354D01*
X430264Y514972D02*
X432354D01*
X430221Y514924D02*
X432354D01*
X430174Y514877D02*
X432354D01*
X430118Y514829D02*
X432354D01*
X430057Y514782D02*
X432354D01*
X429988Y514734D02*
X432354D01*
X429904Y514686D02*
X432354D01*
X427392Y514639D02*
X428874D01*
X430552Y517658D02*
Y515880D01*
X432410Y518015D02*
Y516989D01*
X432457Y518015D02*
Y516989D01*
X432505Y515300D02*
Y515250D01*
Y518015D02*
Y516989D01*
X432553Y515409D02*
Y515250D01*
Y518015D02*
Y516989D01*
X432600Y515517D02*
Y515250D01*
Y518015D02*
Y516989D01*
X432648Y515628D02*
Y515250D01*
Y518015D02*
Y516989D01*
X432696Y515737D02*
Y515250D01*
Y518015D02*
Y516989D01*
X432743Y515845D02*
Y515250D01*
Y518015D02*
Y516989D01*
X432791Y515954D02*
Y515250D01*
Y518015D02*
Y516989D01*
X432838Y516062D02*
Y515250D01*
Y518015D02*
Y516989D01*
X432886Y516171D02*
Y515250D01*
Y518015D02*
Y516989D01*
X432934Y516279D02*
Y515250D01*
Y518015D02*
Y516989D01*
X432981Y516279D02*
Y515250D01*
Y518015D02*
Y516989D01*
X433029Y516279D02*
Y515250D01*
Y518015D02*
Y516989D01*
X433077Y516279D02*
Y515250D01*
Y518015D02*
Y516989D01*
X433124Y516279D02*
Y515250D01*
Y518015D02*
Y516989D01*
X433172Y516279D02*
Y515250D01*
Y518015D02*
Y516989D01*
X433219Y516279D02*
Y515250D01*
Y518015D02*
Y516989D01*
X433267Y516279D02*
Y515250D01*
Y518015D02*
Y516989D01*
X433315Y516279D02*
Y515250D01*
Y518015D02*
Y516989D01*
X433362Y516279D02*
Y515250D01*
Y518015D02*
Y516989D01*
X433410Y516279D02*
Y515250D01*
Y518015D02*
Y516989D01*
X433458Y516279D02*
Y515250D01*
Y518015D02*
Y516989D01*
X423262Y516973D02*
X424288D01*
X426162D02*
X427398D01*
X429533D02*
X431235D01*
X423262Y516925D02*
X424288D01*
X429726D02*
X431264D01*
X423262Y516877D02*
X424288D01*
X429845D02*
X431293D01*
X423262Y516830D02*
X424288D01*
X423262Y516782D02*
X424288D01*
X423262Y516735D02*
X424288D01*
X423262Y516687D02*
X424288D01*
X423262Y516639D02*
X424288D01*
X423262Y516592D02*
X424288D01*
X423262Y516544D02*
X424288D01*
X423262Y516496D02*
X424288D01*
X423262Y516449D02*
X424288D01*
X423262Y516401D02*
X424288D01*
X423262Y516353D02*
X424288D01*
X423262Y516306D02*
X424288D01*
X423262Y516258D02*
X424288D01*
X423262Y516211D02*
X424288D01*
X423262Y516163D02*
X424288D01*
X423262Y516115D02*
X424288D01*
X423262Y516068D02*
X424288D01*
X423262Y516020D02*
X424288D01*
X423262Y515972D02*
X424288D01*
X423262Y515925D02*
X424288D01*
X423262Y515877D02*
X424288D01*
X423262Y515829D02*
X424288D01*
X423262Y515782D02*
X424288D01*
X438613D02*
X439645D01*
X440587D02*
X441616D01*
X437551Y516973D02*
X439287D01*
X440587D02*
X441616D01*
X437760Y516925D02*
X439319D01*
X440587D02*
X441616D01*
X437885Y516877D02*
X439346D01*
X440587D02*
X441616D01*
X437980Y516830D02*
X439372D01*
X440587D02*
X441616D01*
X438059Y516782D02*
X439399D01*
X440587D02*
X441616D01*
X438126Y516735D02*
X439422D01*
X440587D02*
X441616D01*
X438187Y516687D02*
X439443D01*
X440587D02*
X441616D01*
X438237Y516639D02*
X439465D01*
X440587D02*
X441616D01*
X438284Y516592D02*
X439483D01*
X440587D02*
X441616D01*
X438327Y516544D02*
X439502D01*
X440587D02*
X441616D01*
X438364Y516496D02*
X439520D01*
X440587D02*
X441616D01*
X438398Y516449D02*
X439536D01*
X440587D02*
X441616D01*
X438430Y516401D02*
X439549D01*
X440587D02*
X441616D01*
X438456Y516353D02*
X439563D01*
X440587D02*
X441616D01*
X438483Y516306D02*
X439576D01*
X440587D02*
X441616D01*
X438507Y516258D02*
X439586D01*
X440587D02*
X441616D01*
X438525Y516211D02*
X439597D01*
X440587D02*
X441616D01*
X438544Y516163D02*
X439608D01*
X440587D02*
X441616D01*
X438560Y516115D02*
X439615D01*
X440587D02*
X441616D01*
X438573Y516068D02*
X439623D01*
X440587D02*
X441616D01*
X438583Y516020D02*
X439629D01*
X440587D02*
X441616D01*
X438594Y515972D02*
X439634D01*
X440587D02*
X441616D01*
X438602Y515925D02*
X439637D01*
X440587D02*
X441616D01*
X438607Y515877D02*
X439642D01*
X440587D02*
X441616D01*
X438610Y515829D02*
X439642D01*
X423262Y517973D02*
X426397D01*
X428903D02*
X429771D01*
X431327D02*
X434461D01*
X436951D02*
X437819D01*
X439499D02*
X443966D01*
X423262Y517925D02*
X426548D01*
X428708D02*
X429967D01*
X431327D02*
X434611D01*
X436752D02*
X438015D01*
X439475D02*
X443966D01*
X423262Y517878D02*
X426659D01*
X428562D02*
X430113D01*
X431327D02*
X434723D01*
X436609D02*
X438160D01*
X439451D02*
X443966D01*
X423262Y517830D02*
X426749D01*
X428443D02*
X430232D01*
X431327D02*
X434813D01*
X436488D02*
X438279D01*
X439428D02*
X443966D01*
X423262Y517782D02*
X426826D01*
X428340D02*
X430335D01*
X431327D02*
X434889D01*
X436384D02*
X438382D01*
X439404D02*
X443966D01*
X423262Y517735D02*
X426892D01*
X428250D02*
X430425D01*
X431327D02*
X434955D01*
X436294D02*
X438475D01*
X439380D02*
X443966D01*
X423262Y517687D02*
X426950D01*
X428168D02*
X430507D01*
X431327D02*
X435016D01*
X436212D02*
X438557D01*
X439356D02*
X443966D01*
X423262Y517640D02*
X427003D01*
X428094D02*
X430581D01*
X431327D02*
X435069D01*
X436136D02*
X438631D01*
X439332D02*
X443966D01*
X423262Y517592D02*
X427054D01*
X428025D02*
X430650D01*
X431327D02*
X435117D01*
X436067D02*
X438703D01*
X439309D02*
X443966D01*
X423262Y517544D02*
X427096D01*
X427961D02*
X430713D01*
X431327D02*
X435162D01*
X436003D02*
X438766D01*
X439285D02*
X443966D01*
X423262Y517497D02*
X427136D01*
X427900D02*
X430774D01*
X431327D02*
X435202D01*
X435945D02*
X438824D01*
X439261D02*
X443966D01*
X423262Y517449D02*
X427173D01*
X427845D02*
X430830D01*
X431327D02*
X435239D01*
X435887D02*
X438880D01*
X439237D02*
X442902D01*
X423262Y517401D02*
X427207D01*
X427795D02*
X430880D01*
X431327D02*
X435270D01*
X435837D02*
X438933D01*
X439213D02*
X442878D01*
X423262Y517354D02*
X427236D01*
X427744D02*
X430930D01*
X431327D02*
X435302D01*
X435786D02*
X438983D01*
X439189D02*
X442855D01*
X423262Y517306D02*
X427265D01*
X427699D02*
X430975D01*
X431327D02*
X435329D01*
X435741D02*
X439028D01*
X439166D02*
X442831D01*
X423262Y517258D02*
X427289D01*
X427654D02*
X431020D01*
X431327D02*
X435355D01*
X435696D02*
X439073D01*
X439142D02*
X442807D01*
X423262Y517211D02*
X427313D01*
X427615D02*
X431060D01*
X431327D02*
X435376D01*
X435657D02*
X442783D01*
X423262Y517163D02*
X427334D01*
X427575D02*
X431100D01*
X431327D02*
X435397D01*
X435617D02*
X442759D01*
X423262Y517116D02*
X427353D01*
X427538D02*
X431137D01*
X431327D02*
X435416D01*
X435580D02*
X442735D01*
X423262Y517068D02*
X427369D01*
X427504D02*
X431171D01*
X431327D02*
X435434D01*
X435546D02*
X442712D01*
X423262Y517020D02*
X427384D01*
X427472D02*
X431203D01*
X431327D02*
X435448D01*
X435511D02*
X442688D01*
X423262Y515734D02*
X424288D01*
X423262Y515687D02*
X424288D01*
X424609D02*
X427062D01*
X423262Y515639D02*
X424288D01*
X424587D02*
X427017D01*
X423262Y515591D02*
X424288D01*
X424566D02*
X426964D01*
X423262Y515544D02*
X424288D01*
X424545D02*
X426905D01*
X423262Y515496D02*
X424288D01*
X424524D02*
X426842D01*
X423262Y515448D02*
X424288D01*
X424503D02*
X426765D01*
X423262Y515401D02*
X424288D01*
X424481D02*
X426681D01*
X423262Y515353D02*
X424288D01*
X424460D02*
X426575D01*
X423262Y515306D02*
X424288D01*
X424439D02*
X426437D01*
X423262Y515258D02*
X424288D01*
X424421D02*
X425823D01*
X425926D02*
X426180D01*
X423262Y515210D02*
X424288D01*
X424455D02*
X425865D01*
X423262Y515163D02*
X424288D01*
X424497D02*
X425910D01*
X423262Y515115D02*
X424288D01*
X424542D02*
X425955D01*
X423262Y515067D02*
X424288D01*
X424587D02*
X426000D01*
X423262Y515020D02*
X424288D01*
X429337Y514546D02*
X429337D01*
X428117Y515766D02*
G03X429337Y514546I1220J-0D01*
G01X430557Y515766D02*
X430557D01*
X429337Y514546D02*
G03X430557Y515766I-4J1224D01*
G01X429337Y516989D02*
X429337D01*
X430560Y515766D02*
G03X429337Y516989I-1223J-0D01*
G01X428117Y515766D02*
X428117D01*
X429337Y516986D02*
G03X428117Y515766I-2J-1218D01*
G01X437385Y514525D02*
X437385D01*
X436154Y515755D02*
G03X437385Y514525I1231J0D01*
G01X438613Y515755D02*
X438613D01*
X437385Y514528D02*
G03X438613Y515755I-2J1230D01*
G01X437385Y516983D02*
X437385D01*
X438613Y515755D02*
G03X437385Y516983I-1228J0D01*
G01X436154Y515755D02*
X436154D01*
X437385Y516986D02*
G03X436154Y515755I-0J-1231D01*
G01X446512Y515250D02*
X446512D01*
X446864Y514898D02*
G03X446512Y515250I-352J-0D01*
G01X446864Y514898D02*
X446864D01*
X446512Y514546D02*
G03X446864Y514898I-3J355D01*
G01X445093Y515250D02*
X445093D01*
X443964Y515834D02*
G03X445093Y515250I1129J800D01*
G01X434122Y515253D02*
X434122D01*
X434476Y514898D02*
G03X434122Y515253I-354J0D01*
G01X434474Y514898D02*
X434474D01*
X434122Y514546D02*
G03X434474Y514898I-1J353D01*
G01X434122Y516989D02*
X434122D01*
X434476Y516634D02*
G03X434122Y516989I-354J-0D01*
G01X434476Y516634D02*
X434476D01*
X434122Y516279D02*
G03X434476Y516634I-3J357D01*
G01X447890Y514898D02*
X447890D01*
X446512Y513519D02*
G03X447890Y514898I-3J1381D01*
G01X446512Y516279D02*
X446512D01*
X447893Y514898D02*
G03X446512Y516279I-1381J-0D01*
G01X445093D02*
X445093D01*
X444739Y516634D02*
G03X445093Y516279I354J-0D01*
G01X444739Y516634D02*
X444739D01*
X445093Y516989D02*
G03X444739Y516634I0J-355D01*
G01X443966Y517433D02*
X443966D01*
X445093Y518016D02*
G03X443965Y517432I0J-1382D01*
G01X437385Y518015D02*
X437385D01*
X439116Y517208D02*
G03X437385Y518015I-1731J-1453D01*
G01X435466Y516951D02*
X435466D01*
X437385Y518016D02*
G03X435465Y516950I-0J-2261D01*
G01X434122Y518015D02*
X434122D01*
X435466Y516951D02*
G03X434122Y518015I-1344J-317D01*
G01X429337D02*
X429337D01*
X431327Y516812D02*
G03X429336Y518015I-1991J-1045D01*
G01X427408Y516920D02*
X427408D01*
X429337Y518014D02*
G03X427409Y516920I0J-2248D01*
G01X426056Y518015D02*
X426056D01*
X427408Y516920D02*
G03X426055Y518015I-1353J-288D01*
G01X426056Y516989D02*
X426056D01*
X426411Y516634D02*
G03X426056Y516989I-355J-0D01*
G01X426411Y516634D02*
X426411D01*
X426056Y516279D02*
G03X426411Y516634I-1J356D01*
G01X426056Y515250D02*
X426056D01*
X425806Y515273D02*
G03X426056Y515250I250J1366D01*
G01X427091Y515716D02*
X427091D01*
X426054Y515251D02*
G03X427090Y515715I0J1387D01*
G01X429337Y513519D02*
X429337D01*
X427091Y515716D02*
G03X429337Y513519I2246J51D01*
G01X431327Y514721D02*
X431327D01*
X429339Y513519D02*
G03X431328Y514722I-4J2253D01*
G01X435461Y514567D02*
X435461D01*
X434122Y513519D02*
G03X435461Y514567I-3J1383D01*
G01X437385Y513495D02*
X437385D01*
X435462Y514568D02*
G03X437385Y513495I1923J1187D01*
G01X439645Y515755D02*
X439645D01*
X437384Y513495D02*
G03X439645Y515756I-0J2261D01*
G01X439277Y516989D02*
X439277D01*
X439643Y515755D02*
G03X439277Y516989I-2258J0D01*
G74*
G01X0Y0D02*
M02*
