M48
; DRILL file {KiCad 8.0.6} date 2025-02-07T12:31:58-0700
; FORMAT={-:-/ absolute / metric / decimal}
; #@! TF.CreationDate,2025-02-07T12:31:58-07:00
; #@! TF.GenerationSoftware,Kicad,Pcbnew,8.0.6
; #@! TF.FileFunction,MixedPlating,1,4
FMAT,2
METRIC
; #@! TA.AperFunction,Plated,PTH,ViaDrill
T1C0.200
; #@! TA.AperFunction,Plated,PTH,ComponentDrill
T2C0.600
; #@! TA.AperFunction,Plated,PTH,ComponentDrill
T3C1.016
; #@! TA.AperFunction,NonPlated,NPTH,ComponentDrill
T4C0.650
; #@! TA.AperFunction,NonPlated,NPTH,ComponentDrill
T5C1.000
; #@! TA.AperFunction,NonPlated,NPTH,ComponentDrill
T6C2.032
; #@! TA.AperFunction,NonPlated,NPTH,ComponentDrill
T7C3.100
%
G90
G05
T1
X1.7Y109.22
X1.7Y50.1
X1.9Y66.12
X1.9Y63.12
X1.9Y7.0
X1.9Y4.0
X3.6Y64.52
X3.6Y5.4
X3.9Y108.12
X3.9Y49.0
X5.1Y101.57
X5.1Y42.45
X5.9Y115.22
X5.9Y114.22
X5.9Y113.72
X5.9Y113.22
X5.9Y112.22
X5.9Y109.22
X5.9Y56.1
X5.9Y55.1
X5.9Y54.6
X5.9Y54.1
X5.9Y53.1
X5.9Y50.1
X6.5Y62.27
X6.5Y3.15
X6.75Y112.22
X6.75Y53.1
X6.9Y104.22
X6.9Y103.52
X6.9Y98.52
X6.9Y97.82
X6.9Y45.1
X6.9Y44.4
X6.9Y39.4
X6.9Y38.7
X7.25Y60.32
X7.25Y1.2
X7.31Y100.28
X7.31Y41.16
X7.75Y100.92
X7.75Y41.8
X7.8Y60.32
X7.8Y1.2
X8.6Y104.82
X8.6Y97.22
X8.6Y45.7
X8.6Y38.1
X9.5Y113.22
X9.5Y112.72
X9.5Y54.1
X9.5Y53.6
X9.85Y62.97
X9.85Y3.85
X10.0Y100.82
X10.0Y98.02
X10.0Y97.42
X10.0Y96.82
X10.0Y41.7
X10.0Y38.9
X10.0Y38.3
X10.0Y37.7
X10.5Y62.97
X10.5Y3.85
X10.85Y60.97
X10.85Y1.85
X11.0Y87.62
X11.0Y28.5
X11.75Y116.02
X11.75Y56.9
X11.95Y67.42
X11.95Y8.3
X12.4Y68.92
X12.4Y68.32
X12.4Y67.82
X12.4Y9.8
X12.4Y9.2
X12.4Y8.7
X12.5Y114.42
X12.5Y55.3
X13.01Y69.82
X13.01Y10.7
X14.0Y69.62
X14.0Y67.62
X14.0Y10.5
X14.0Y8.5
X14.6Y98.02
X14.6Y97.42
X14.6Y96.82
X14.6Y70.42
X14.6Y38.9
X14.6Y38.3
X14.6Y37.7
X14.6Y11.3
X15.25Y103.22
X15.25Y44.1
X15.6Y69.42
X15.6Y67.82
X15.6Y10.3
X15.6Y8.7
X15.8Y89.82
X15.8Y89.12
X15.8Y85.42
X15.8Y83.17
X15.8Y30.7
X15.8Y30.0
X15.8Y26.3
X15.8Y24.05
X15.95Y91.57
X15.95Y81.82
X15.95Y81.27
X15.95Y80.67
X15.95Y32.45
X15.95Y22.7
X15.95Y22.15
X15.95Y21.55
X16.4Y77.67
X16.4Y18.55
X16.55Y81.27
X16.55Y22.15
X16.8Y80.82
X16.8Y21.7
X17.0Y79.33
X17.0Y20.21
X17.4Y80.82
X17.4Y21.7
X17.55Y117.07
X17.55Y115.12
X17.55Y57.95
X17.55Y56.0
X18.45Y98.52
X18.45Y39.4
X18.7Y80.77
X18.7Y21.65
X18.8Y77.62
X18.8Y18.5
X18.9Y71.732
X18.9Y12.612
X19.25Y87.62
X19.25Y28.5
X19.4Y94.02
X19.4Y34.9
X19.75Y89.92
X19.75Y30.8
X19.8Y86.57
X19.8Y75.32
X19.8Y27.45
X19.8Y16.2
X20.0Y107.02
X20.0Y104.82
X20.0Y92.52
X20.0Y47.9
X20.0Y45.7
X20.0Y33.4
X20.1Y117.07
X20.1Y57.95
X20.4Y89.92
X20.4Y30.8
X21.2Y82.77
X21.2Y82.02
X21.2Y81.22
X21.2Y80.02
X21.2Y23.65
X21.2Y22.9
X21.2Y22.1
X21.2Y20.9
X22.15Y96.57
X22.15Y93.32
X22.15Y83.52
X22.15Y78.87
X22.15Y37.45
X22.15Y34.2
X22.15Y24.4
X22.15Y19.75
X22.25Y104.22
X22.25Y45.1
X22.6Y117.07
X22.6Y115.12
X22.6Y89.82
X22.6Y86.62
X22.6Y57.95
X22.6Y56.0
X22.6Y30.7
X22.6Y27.5
X22.8Y75.52
X22.8Y16.4
X22.85Y83.52
X22.85Y82.77
X22.85Y82.02
X22.85Y81.22
X22.85Y24.4
X22.85Y23.65
X22.85Y22.9
X22.85Y22.1
X23.2Y86.62
X23.2Y27.5
X23.7Y90.47
X23.7Y31.35
X23.75Y83.52
X23.75Y24.4
X24.24Y74.36
X24.24Y15.24
X24.25Y78.87
X24.25Y78.17
X24.25Y77.52
X24.25Y19.75
X24.25Y19.05
X24.25Y18.4
X24.75Y83.52
X24.75Y82.02
X24.75Y81.02
X24.75Y78.87
X24.75Y78.17
X24.75Y77.52
X24.75Y24.4
X24.75Y22.9
X24.75Y21.9
X24.75Y19.75
X24.75Y19.05
X24.75Y18.4
X24.8Y97.92
X24.8Y92.77
X24.8Y38.8
X24.8Y33.65
X25.15Y117.07
X25.15Y115.12
X25.15Y57.95
X25.15Y56.0
X25.4Y103.22
X25.4Y44.1
X25.65Y81.02
X25.65Y21.9
X25.8Y73.52
X25.8Y14.4
X26.15Y71.17
X26.15Y69.17
X26.15Y12.05
X26.15Y10.05
X26.5Y70.82
X26.5Y11.7
X26.75Y61.47
X26.75Y59.52
X26.75Y2.35
X26.75Y0.4
X26.95Y86.52
X26.95Y72.82
X26.95Y27.4
X26.95Y13.7
X27.75Y117.12
X27.75Y115.17
X27.75Y101.57
X27.75Y72.92
X27.75Y71.97
X27.75Y58.0
X27.75Y56.05
X27.75Y42.45
X27.75Y13.8
X27.75Y12.85
X27.95Y86.57
X27.95Y27.45
X29.25Y61.47
X29.25Y59.52
X29.25Y2.35
X29.25Y0.4
X29.65Y95.07
X29.65Y94.47
X29.65Y35.95
X29.65Y35.35
X29.75Y87.07
X29.75Y27.95
X29.8Y97.52
X29.8Y38.4
X29.95Y71.97
X29.95Y12.85
X30.2Y117.12
X30.2Y115.17
X30.2Y58.0
X30.2Y56.05
X30.6Y92.77
X30.6Y33.65
X30.8Y99.22
X30.8Y40.1
X31.0Y103.87
X31.0Y44.75
X31.2Y99.22
X31.2Y94.12
X31.2Y40.1
X31.2Y35.0
X31.65Y94.52
X31.65Y35.4
X31.75Y97.52
X31.75Y38.4
X31.8Y61.47
X31.8Y59.52
X31.8Y2.35
X31.8Y0.4
X31.85Y92.82
X31.85Y33.7
X32.0Y94.92
X32.0Y93.32
X32.0Y35.8
X32.0Y34.2
X32.4Y94.52
X32.4Y93.72
X32.4Y35.4
X32.4Y34.6
X32.5Y99.72
X32.5Y40.6
X32.75Y117.12
X32.75Y115.17
X32.75Y70.87
X32.75Y69.87
X32.75Y58.0
X32.75Y56.05
X32.75Y11.75
X32.75Y10.75
X33.5Y105.72
X33.5Y46.6
X33.65Y90.27
X33.65Y31.15
X34.0Y103.12
X34.0Y44.0
X34.2Y90.67
X34.2Y90.12
X34.2Y31.55
X34.2Y31.0
X34.3Y61.47
X34.3Y59.52
X34.3Y2.35
X34.3Y0.4
X34.4Y75.57
X34.4Y16.45
X34.5Y105.72
X34.5Y100.02
X34.5Y82.27
X34.5Y46.6
X34.5Y40.9
X34.5Y23.15
X34.6Y89.77
X34.6Y30.65
X34.8Y80.47
X34.8Y79.62
X34.8Y21.35
X34.8Y20.5
X35.0Y91.12
X35.0Y32.0
X35.3Y117.12
X35.3Y115.17
X35.3Y58.0
X35.3Y56.05
X35.35Y80.47
X35.35Y21.35
X35.4Y91.42
X35.4Y32.3
X35.5Y105.72
X35.5Y73.22
X35.5Y46.6
X35.5Y14.1
X35.8Y102.72
X35.8Y91.12
X35.8Y43.6
X35.8Y32.0
X35.85Y82.07
X35.85Y22.95
X35.95Y75.97
X35.95Y16.85
X36.0Y97.12
X36.0Y38.0
X36.2Y103.12
X36.2Y44.0
X36.35Y80.52
X36.35Y21.4
X36.4Y83.52
X36.4Y24.4
X36.45Y71.27
X36.45Y70.82
X36.45Y68.82
X36.45Y68.37
X36.45Y12.15
X36.45Y11.7
X36.45Y9.7
X36.45Y9.25
X36.6Y102.72
X36.6Y98.57
X36.6Y95.67
X36.6Y43.6
X36.6Y39.45
X36.6Y36.55
X36.85Y61.47
X36.85Y59.52
X36.85Y2.35
X36.85Y0.4
X36.95Y83.52
X36.95Y24.4
X37.0Y103.12
X37.0Y44.0
X37.2Y83.12
X37.2Y24.0
X37.35Y80.12
X37.35Y21.0
X37.4Y105.72
X37.4Y102.72
X37.4Y46.6
X37.4Y43.6
X37.65Y79.62
X37.65Y20.5
X37.75Y83.52
X37.75Y24.4
X37.8Y103.74
X37.8Y91.42
X37.8Y71.12
X37.8Y44.62
X37.8Y32.3
X37.8Y12.0
X37.85Y117.12
X37.85Y115.17
X37.85Y58.0
X37.85Y56.05
X38.0Y99.32
X38.0Y97.12
X38.0Y94.82
X38.0Y40.2
X38.0Y38.0
X38.0Y35.7
X38.19Y77.37
X38.19Y18.25
X38.2Y91.12
X38.2Y88.82
X38.2Y87.97
X38.2Y32.0
X38.2Y29.7
X38.2Y28.85
X38.202Y103.321
X38.202Y44.201
X38.25Y83.52
X38.25Y24.4
X38.4Y105.72
X38.4Y46.6
X38.5Y78.82
X38.5Y19.7
X38.55Y107.12
X38.55Y48.0
X38.6Y102.72
X38.6Y92.92
X38.6Y91.42
X38.6Y43.6
X38.6Y33.8
X38.6Y32.3
X39.0Y91.12
X39.0Y32.0
X39.1Y71.12
X39.1Y12.0
X39.15Y83.52
X39.15Y78.47
X39.15Y24.4
X39.15Y19.35
X39.25Y80.57
X39.25Y21.45
X39.4Y102.72
X39.4Y92.92
X39.4Y91.42
X39.4Y61.47
X39.4Y59.52
X39.4Y43.6
X39.4Y33.8
X39.4Y32.3
X39.4Y2.35
X39.4Y0.4
X39.45Y98.57
X39.45Y96.42
X39.45Y39.45
X39.45Y37.3
X39.75Y87.97
X39.75Y28.85
X39.8Y103.07
X39.8Y91.12
X39.8Y43.95
X39.8Y32.0
X40.0Y94.82
X40.0Y35.7
X40.2Y92.92
X40.2Y91.42
X40.2Y33.8
X40.2Y32.3
X40.4Y117.12
X40.4Y115.17
X40.4Y75.12
X40.4Y73.12
X40.4Y71.12
X40.4Y69.12
X40.4Y58.0
X40.4Y56.05
X40.4Y16.0
X40.4Y14.0
X40.4Y12.0
X40.4Y10.0
X40.6Y106.32
X40.6Y105.77
X40.6Y100.02
X40.6Y91.12
X40.6Y47.2
X40.6Y46.65
X40.6Y40.9
X40.6Y32.0
X40.7Y107.22
X40.7Y48.1
X41.0Y106.82
X41.0Y92.92
X41.0Y91.42
X41.0Y47.7
X41.0Y33.8
X41.0Y32.3
X41.4Y101.02
X41.4Y91.12
X41.4Y41.9
X41.4Y32.0
X41.8Y105.72
X41.8Y103.52
X41.8Y94.82
X41.8Y46.6
X41.8Y44.4
X41.8Y35.7
X41.85Y97.32
X41.85Y38.2
X41.95Y61.47
X41.95Y59.52
X41.95Y2.35
X41.95Y0.4
X42.05Y96.87
X42.05Y37.75
X42.1Y82.32
X42.1Y23.2
X42.2Y91.02
X42.2Y31.9
X42.4Y81.62
X42.4Y22.5
X42.5Y105.47
X42.5Y46.35
X42.9Y117.12
X42.9Y115.17
X42.9Y58.0
X42.9Y56.05
X43.5Y94.52
X43.5Y35.4
X43.55Y97.72
X43.55Y96.522
X43.55Y38.6
X43.55Y37.402
X43.598Y93.716
X43.598Y34.596
X43.65Y95.82
X43.65Y36.7
X43.801Y94.117
X43.801Y34.997
X43.803Y93.315
X43.803Y34.195
X43.9Y95.37
X43.9Y36.25
X44.2Y94.97
X44.2Y35.85
X44.45Y117.12
X44.45Y115.17
X44.45Y61.47
X44.45Y59.52
X44.45Y58.0
X44.45Y56.05
X44.45Y2.35
X44.45Y0.4
X44.5Y99.32
X44.5Y92.22
X44.5Y40.2
X44.5Y33.1
X44.75Y94.57
X44.75Y35.45
X44.9Y108.12
X44.9Y49.0
X45.0Y106.82
X45.0Y106.32
X45.0Y85.42
X45.0Y47.7
X45.0Y47.2
X45.0Y26.3
X45.4Y92.62
X45.4Y33.5
X46.0Y98.57
X46.0Y82.32
X46.0Y81.62
X46.0Y39.45
X46.0Y23.2
X46.0Y22.5
X46.1Y97.92
X46.1Y38.8
X46.6Y73.12
X46.6Y70.12
X46.6Y69.12
X46.6Y14.0
X46.6Y11.0
X46.6Y10.0
X46.95Y117.12
X46.95Y115.17
X46.95Y58.0
X46.95Y56.05
X47.0Y61.47
X47.0Y59.52
X47.0Y2.35
X47.0Y0.4
X47.2Y81.97
X47.2Y22.85
X47.3Y83.62
X47.3Y24.5
X48.1Y95.32
X48.1Y36.2
X48.3Y82.32
X48.3Y23.2
X48.5Y106.82
X48.5Y106.32
X48.5Y105.47
X48.5Y47.7
X48.5Y47.2
X48.5Y46.35
X48.55Y96.67
X48.55Y96.22
X48.55Y95.67
X48.55Y37.55
X48.55Y37.1
X48.55Y36.55
X48.6Y94.32
X48.6Y85.02
X48.6Y35.2
X48.6Y25.9
X48.9Y84.52
X48.9Y25.4
X49.1Y82.97
X49.1Y79.77
X49.1Y23.85
X49.1Y20.65
X49.5Y117.12
X49.5Y115.17
X49.5Y58.0
X49.5Y56.05
X49.55Y61.47
X49.55Y59.52
X49.55Y2.35
X49.55Y0.4
X49.8Y96.27
X49.8Y37.15
X49.95Y76.57
X49.95Y17.45
X50.4Y77.97
X50.4Y18.85
X50.45Y84.32
X50.45Y25.2
X51.0Y77.57
X51.0Y18.45
X51.6Y84.32
X51.6Y83.52
X51.6Y82.82
X51.6Y79.82
X51.6Y25.2
X51.6Y24.4
X51.6Y23.7
X51.6Y20.7
X52.05Y117.12
X52.05Y115.17
X52.05Y58.0
X52.05Y56.05
X52.1Y61.47
X52.1Y59.52
X52.1Y2.35
X52.1Y0.4
X53.7Y87.42
X53.7Y28.3
X53.8Y72.22
X53.8Y13.1
X54.6Y117.12
X54.6Y115.17
X54.6Y61.47
X54.6Y59.52
X54.6Y58.0
X54.6Y56.05
X54.6Y2.35
X54.6Y0.4
X56.5Y88.62
X56.5Y29.5
X56.9Y99.02
X56.9Y89.02
X56.9Y39.9
X56.9Y29.9
X56.95Y69.42
X56.95Y10.3
X57.0Y102.02
X57.0Y42.9
X57.15Y117.12
X57.15Y115.17
X57.15Y61.47
X57.15Y59.52
X57.15Y58.0
X57.15Y56.05
X57.15Y2.35
X57.15Y0.4
X57.2Y103.52
X57.2Y102.52
X57.2Y101.52
X57.2Y100.52
X57.2Y99.52
X57.2Y98.52
X57.2Y97.52
X57.2Y95.52
X57.2Y94.52
X57.2Y93.52
X57.2Y44.4
X57.2Y43.4
X57.2Y42.4
X57.2Y41.4
X57.2Y40.4
X57.2Y39.4
X57.2Y38.4
X57.2Y36.4
X57.2Y35.4
X57.2Y34.4
X57.6Y69.32
X57.6Y10.2
X58.2Y87.42
X58.2Y28.3
X58.6Y69.62
X58.6Y10.5
X59.15Y87.87
X59.15Y28.75
X59.45Y107.82
X59.45Y48.7
X59.7Y117.12
X59.7Y115.17
X59.7Y61.47
X59.7Y59.52
X59.7Y58.0
X59.7Y56.05
X59.7Y2.35
X59.7Y0.4
X59.75Y88.12
X59.75Y29.0
X59.8Y107.47
X59.8Y48.35
X60.45Y107.47
X60.45Y48.35
X61.0Y107.97
X61.0Y48.85
X62.2Y103.02
X62.2Y102.02
X62.2Y101.02
X62.2Y100.52
X62.2Y100.02
X62.2Y99.02
X62.2Y98.02
X62.2Y95.72
X62.2Y95.02
X62.2Y94.02
X62.2Y93.02
X62.2Y43.9
X62.2Y42.9
X62.2Y41.9
X62.2Y41.4
X62.2Y40.9
X62.2Y39.9
X62.2Y38.9
X62.2Y36.6
X62.2Y35.9
X62.2Y34.9
X62.2Y33.9
X62.25Y117.12
X62.25Y115.17
X62.25Y61.47
X62.25Y59.52
X62.25Y58.0
X62.25Y56.05
X62.25Y2.35
X62.25Y0.4
X62.7Y87.42
X62.7Y28.3
X62.8Y72.22
X62.8Y13.1
X64.75Y61.47
X64.75Y59.52
X64.75Y2.35
X64.75Y0.4
X76.06Y109.22
X76.06Y50.1
X76.26Y66.12
X76.26Y63.12
X76.26Y7.0
X76.26Y4.0
X77.96Y64.52
X77.96Y5.4
X78.26Y108.12
X78.26Y49.0
X79.46Y101.57
X79.46Y42.45
X80.26Y115.22
X80.26Y114.22
X80.26Y113.72
X80.26Y113.22
X80.26Y112.22
X80.26Y109.22
X80.26Y56.1
X80.26Y55.1
X80.26Y54.6
X80.26Y54.1
X80.26Y53.1
X80.26Y50.1
X80.86Y62.27
X80.86Y3.15
X81.11Y112.22
X81.11Y53.1
X81.26Y104.22
X81.26Y103.52
X81.26Y98.52
X81.26Y97.82
X81.26Y45.1
X81.26Y44.4
X81.26Y39.4
X81.26Y38.7
X81.61Y60.32
X81.61Y1.2
X81.67Y100.28
X81.67Y41.16
X82.11Y100.92
X82.11Y41.8
X82.16Y60.32
X82.16Y1.2
X82.96Y104.82
X82.96Y97.22
X82.96Y45.7
X82.96Y38.1
X83.86Y113.22
X83.86Y112.72
X83.86Y54.1
X83.86Y53.6
X84.21Y62.97
X84.21Y3.85
X84.36Y100.82
X84.36Y98.02
X84.36Y97.42
X84.36Y96.82
X84.36Y41.7
X84.36Y38.9
X84.36Y38.3
X84.36Y37.7
X84.86Y62.97
X84.86Y3.85
X85.21Y60.97
X85.21Y1.85
X85.36Y87.62
X85.36Y28.5
X86.11Y116.02
X86.11Y56.9
X86.31Y67.42
X86.31Y8.3
X86.76Y68.92
X86.76Y68.32
X86.76Y67.82
X86.76Y9.8
X86.76Y9.2
X86.76Y8.7
X86.86Y114.42
X86.86Y55.3
X87.37Y69.82
X87.37Y10.7
X88.36Y69.62
X88.36Y67.62
X88.36Y10.5
X88.36Y8.5
X88.96Y98.02
X88.96Y97.42
X88.96Y96.82
X88.96Y70.42
X88.96Y38.9
X88.96Y38.3
X88.96Y37.7
X88.96Y11.3
X89.61Y103.22
X89.61Y44.1
X89.96Y69.42
X89.96Y67.82
X89.96Y10.3
X89.96Y8.7
X90.16Y89.82
X90.16Y89.12
X90.16Y85.42
X90.16Y83.17
X90.16Y30.7
X90.16Y30.0
X90.16Y26.3
X90.16Y24.05
X90.31Y91.57
X90.31Y81.82
X90.31Y81.27
X90.31Y80.67
X90.31Y32.45
X90.31Y22.7
X90.31Y22.15
X90.31Y21.55
X90.76Y77.67
X90.76Y18.55
X90.91Y81.27
X90.91Y22.15
X91.16Y80.82
X91.16Y21.7
X91.36Y79.33
X91.36Y20.21
X91.76Y80.82
X91.76Y21.7
X91.91Y117.07
X91.91Y115.12
X91.91Y57.95
X91.91Y56.0
X92.81Y98.52
X92.81Y39.4
X93.06Y80.77
X93.06Y21.65
X93.16Y77.62
X93.16Y18.5
X93.26Y71.732
X93.26Y12.612
X93.61Y87.62
X93.61Y28.5
X93.76Y94.02
X93.76Y34.9
X94.11Y89.92
X94.11Y30.8
X94.16Y86.57
X94.16Y75.32
X94.16Y27.45
X94.16Y16.2
X94.36Y107.02
X94.36Y104.82
X94.36Y92.52
X94.36Y47.9
X94.36Y45.7
X94.36Y33.4
X94.46Y117.07
X94.46Y57.95
X94.76Y89.92
X94.76Y30.8
X95.56Y82.77
X95.56Y82.02
X95.56Y81.22
X95.56Y80.02
X95.56Y23.65
X95.56Y22.9
X95.56Y22.1
X95.56Y20.9
X96.51Y96.57
X96.51Y93.32
X96.51Y83.52
X96.51Y78.87
X96.51Y37.45
X96.51Y34.2
X96.51Y24.4
X96.51Y19.75
X96.61Y104.22
X96.61Y45.1
X96.96Y117.07
X96.96Y115.12
X96.96Y89.82
X96.96Y86.62
X96.96Y57.95
X96.96Y56.0
X96.96Y30.7
X96.96Y27.5
X97.16Y75.52
X97.16Y16.4
X97.21Y83.52
X97.21Y82.77
X97.21Y82.02
X97.21Y81.22
X97.21Y24.4
X97.21Y23.65
X97.21Y22.9
X97.21Y22.1
X97.56Y86.62
X97.56Y27.5
X98.06Y90.47
X98.06Y31.35
X98.11Y83.52
X98.11Y24.4
X98.6Y74.36
X98.6Y15.24
X98.61Y78.87
X98.61Y78.17
X98.61Y77.52
X98.61Y19.75
X98.61Y19.05
X98.61Y18.4
X99.11Y83.52
X99.11Y82.02
X99.11Y81.02
X99.11Y78.87
X99.11Y78.17
X99.11Y77.52
X99.11Y24.4
X99.11Y22.9
X99.11Y21.9
X99.11Y19.75
X99.11Y19.05
X99.11Y18.4
X99.16Y97.92
X99.16Y92.77
X99.16Y38.8
X99.16Y33.65
X99.51Y117.07
X99.51Y115.12
X99.51Y57.95
X99.51Y56.0
X99.76Y103.22
X99.76Y44.1
X100.01Y81.02
X100.01Y21.9
X100.16Y73.52
X100.16Y14.4
X100.51Y71.17
X100.51Y69.17
X100.51Y12.05
X100.51Y10.05
X100.86Y70.82
X100.86Y11.7
X101.11Y61.47
X101.11Y59.52
X101.11Y2.35
X101.11Y0.4
X101.31Y86.52
X101.31Y72.82
X101.31Y27.4
X101.31Y13.7
X102.11Y117.12
X102.11Y115.17
X102.11Y101.57
X102.11Y72.92
X102.11Y71.97
X102.11Y58.0
X102.11Y56.05
X102.11Y42.45
X102.11Y13.8
X102.11Y12.85
X102.31Y86.57
X102.31Y27.45
X103.61Y61.47
X103.61Y59.52
X103.61Y2.35
X103.61Y0.4
X104.01Y95.07
X104.01Y94.47
X104.01Y35.95
X104.01Y35.35
X104.11Y87.07
X104.11Y27.95
X104.16Y97.52
X104.16Y38.4
X104.31Y71.97
X104.31Y12.85
X104.56Y117.12
X104.56Y115.17
X104.56Y58.0
X104.56Y56.05
X104.96Y92.77
X104.96Y33.65
X105.16Y99.22
X105.16Y40.1
X105.36Y103.87
X105.36Y44.75
X105.56Y99.22
X105.56Y94.12
X105.56Y40.1
X105.56Y35.0
X106.01Y94.52
X106.01Y35.4
X106.11Y97.52
X106.11Y38.4
X106.16Y61.47
X106.16Y59.52
X106.16Y2.35
X106.16Y0.4
X106.21Y92.82
X106.21Y33.7
X106.36Y94.92
X106.36Y93.32
X106.36Y35.8
X106.36Y34.2
X106.76Y94.52
X106.76Y93.72
X106.76Y35.4
X106.76Y34.6
X106.86Y99.72
X106.86Y40.6
X107.11Y117.12
X107.11Y115.17
X107.11Y70.87
X107.11Y69.87
X107.11Y58.0
X107.11Y56.05
X107.11Y11.75
X107.11Y10.75
X107.86Y105.72
X107.86Y46.6
X108.01Y90.27
X108.01Y31.15
X108.36Y103.12
X108.36Y44.0
X108.56Y90.67
X108.56Y90.12
X108.56Y31.55
X108.56Y31.0
X108.66Y61.47
X108.66Y59.52
X108.66Y2.35
X108.66Y0.4
X108.76Y75.57
X108.76Y16.45
X108.86Y105.72
X108.86Y100.02
X108.86Y82.27
X108.86Y46.6
X108.86Y40.9
X108.86Y23.15
X108.96Y89.77
X108.96Y30.65
X109.16Y80.47
X109.16Y79.62
X109.16Y21.35
X109.16Y20.5
X109.36Y91.12
X109.36Y32.0
X109.66Y117.12
X109.66Y115.17
X109.66Y58.0
X109.66Y56.05
X109.71Y80.47
X109.71Y21.35
X109.76Y91.42
X109.76Y32.3
X109.86Y105.72
X109.86Y73.22
X109.86Y46.6
X109.86Y14.1
X110.16Y102.72
X110.16Y91.12
X110.16Y43.6
X110.16Y32.0
X110.21Y82.07
X110.21Y22.95
X110.31Y75.97
X110.31Y16.85
X110.36Y97.12
X110.36Y38.0
X110.56Y103.12
X110.56Y44.0
X110.71Y80.52
X110.71Y21.4
X110.76Y83.52
X110.76Y24.4
X110.81Y71.27
X110.81Y70.82
X110.81Y68.82
X110.81Y68.37
X110.81Y12.15
X110.81Y11.7
X110.81Y9.7
X110.81Y9.25
X110.96Y102.72
X110.96Y98.57
X110.96Y95.67
X110.96Y43.6
X110.96Y39.45
X110.96Y36.55
X111.21Y61.47
X111.21Y59.52
X111.21Y2.35
X111.21Y0.4
X111.31Y83.52
X111.31Y24.4
X111.36Y103.12
X111.36Y44.0
X111.56Y83.12
X111.56Y24.0
X111.71Y80.12
X111.71Y21.0
X111.76Y105.72
X111.76Y102.72
X111.76Y46.6
X111.76Y43.6
X112.01Y79.62
X112.01Y20.5
X112.11Y83.52
X112.11Y24.4
X112.16Y103.74
X112.16Y91.42
X112.16Y71.12
X112.16Y44.62
X112.16Y32.3
X112.16Y12.0
X112.21Y117.12
X112.21Y115.17
X112.21Y58.0
X112.21Y56.05
X112.36Y99.32
X112.36Y97.12
X112.36Y94.82
X112.36Y40.2
X112.36Y38.0
X112.36Y35.7
X112.55Y77.37
X112.55Y18.25
X112.56Y91.12
X112.56Y88.82
X112.56Y87.97
X112.56Y32.0
X112.56Y29.7
X112.56Y28.85
X112.562Y103.321
X112.562Y44.201
X112.61Y83.52
X112.61Y24.4
X112.76Y105.72
X112.76Y46.6
X112.86Y78.82
X112.86Y19.7
X112.91Y107.12
X112.91Y48.0
X112.96Y102.72
X112.96Y92.92
X112.96Y91.42
X112.96Y43.6
X112.96Y33.8
X112.96Y32.3
X113.36Y91.12
X113.36Y32.0
X113.46Y71.12
X113.46Y12.0
X113.51Y83.52
X113.51Y78.47
X113.51Y24.4
X113.51Y19.35
X113.61Y80.57
X113.61Y21.45
X113.76Y102.72
X113.76Y92.92
X113.76Y91.42
X113.76Y61.47
X113.76Y59.52
X113.76Y43.6
X113.76Y33.8
X113.76Y32.3
X113.76Y2.35
X113.76Y0.4
X113.81Y98.57
X113.81Y96.42
X113.81Y39.45
X113.81Y37.3
X114.11Y87.97
X114.11Y28.85
X114.16Y103.07
X114.16Y91.12
X114.16Y43.95
X114.16Y32.0
X114.36Y94.82
X114.36Y35.7
X114.56Y92.92
X114.56Y91.42
X114.56Y33.8
X114.56Y32.3
X114.76Y117.12
X114.76Y115.17
X114.76Y75.12
X114.76Y73.12
X114.76Y71.12
X114.76Y69.12
X114.76Y58.0
X114.76Y56.05
X114.76Y16.0
X114.76Y14.0
X114.76Y12.0
X114.76Y10.0
X114.96Y106.32
X114.96Y105.77
X114.96Y100.02
X114.96Y91.12
X114.96Y47.2
X114.96Y46.65
X114.96Y40.9
X114.96Y32.0
X115.06Y107.22
X115.06Y48.1
X115.36Y106.82
X115.36Y92.92
X115.36Y91.42
X115.36Y47.7
X115.36Y33.8
X115.36Y32.3
X115.76Y101.02
X115.76Y91.12
X115.76Y41.9
X115.76Y32.0
X116.16Y105.72
X116.16Y103.52
X116.16Y94.82
X116.16Y46.6
X116.16Y44.4
X116.16Y35.7
X116.21Y97.32
X116.21Y38.2
X116.31Y61.47
X116.31Y59.52
X116.31Y2.35
X116.31Y0.4
X116.41Y96.87
X116.41Y37.75
X116.46Y82.32
X116.46Y23.2
X116.56Y91.02
X116.56Y31.9
X116.76Y81.62
X116.76Y22.5
X116.86Y105.47
X116.86Y46.35
X117.26Y117.12
X117.26Y115.17
X117.26Y58.0
X117.26Y56.05
X117.86Y94.52
X117.86Y35.4
X117.91Y97.72
X117.91Y96.522
X117.91Y38.6
X117.91Y37.402
X117.958Y93.716
X117.958Y34.596
X118.01Y95.82
X118.01Y36.7
X118.161Y94.117
X118.161Y34.997
X118.163Y93.315
X118.163Y34.195
X118.26Y95.37
X118.26Y36.25
X118.56Y94.97
X118.56Y35.85
X118.81Y117.12
X118.81Y115.17
X118.81Y61.47
X118.81Y59.52
X118.81Y58.0
X118.81Y56.05
X118.81Y2.35
X118.81Y0.4
X118.86Y99.32
X118.86Y92.22
X118.86Y40.2
X118.86Y33.1
X119.11Y94.57
X119.11Y35.45
X119.26Y108.12
X119.26Y49.0
X119.36Y106.82
X119.36Y106.32
X119.36Y85.42
X119.36Y47.7
X119.36Y47.2
X119.36Y26.3
X119.76Y92.62
X119.76Y33.5
X120.36Y98.57
X120.36Y82.32
X120.36Y81.62
X120.36Y39.45
X120.36Y23.2
X120.36Y22.5
X120.46Y97.92
X120.46Y38.8
X120.96Y73.12
X120.96Y70.12
X120.96Y69.12
X120.96Y14.0
X120.96Y11.0
X120.96Y10.0
X121.31Y117.12
X121.31Y115.17
X121.31Y58.0
X121.31Y56.05
X121.36Y61.47
X121.36Y59.52
X121.36Y2.35
X121.36Y0.4
X121.56Y81.97
X121.56Y22.85
X121.66Y83.62
X121.66Y24.5
X122.46Y95.32
X122.46Y36.2
X122.66Y82.32
X122.66Y23.2
X122.86Y106.82
X122.86Y106.32
X122.86Y105.47
X122.86Y47.7
X122.86Y47.2
X122.86Y46.35
X122.91Y96.67
X122.91Y96.22
X122.91Y95.67
X122.91Y37.55
X122.91Y37.1
X122.91Y36.55
X122.96Y94.32
X122.96Y85.02
X122.96Y35.2
X122.96Y25.9
X123.26Y84.52
X123.26Y25.4
X123.46Y82.97
X123.46Y79.77
X123.46Y23.85
X123.46Y20.65
X123.86Y117.12
X123.86Y115.17
X123.86Y58.0
X123.86Y56.05
X123.91Y61.47
X123.91Y59.52
X123.91Y2.35
X123.91Y0.4
X124.16Y96.27
X124.16Y37.15
X124.31Y76.57
X124.31Y17.45
X124.76Y77.97
X124.76Y18.85
X124.81Y84.32
X124.81Y25.2
X125.36Y77.57
X125.36Y18.45
X125.96Y84.32
X125.96Y83.52
X125.96Y82.82
X125.96Y79.82
X125.96Y25.2
X125.96Y24.4
X125.96Y23.7
X125.96Y20.7
X126.41Y117.12
X126.41Y115.17
X126.41Y58.0
X126.41Y56.05
X126.46Y61.47
X126.46Y59.52
X126.46Y2.35
X126.46Y0.4
X128.06Y87.42
X128.06Y28.3
X128.16Y72.22
X128.16Y13.1
X128.96Y117.12
X128.96Y115.17
X128.96Y61.47
X128.96Y59.52
X128.96Y58.0
X128.96Y56.05
X128.96Y2.35
X128.96Y0.4
X130.86Y88.62
X130.86Y29.5
X131.26Y99.02
X131.26Y89.02
X131.26Y39.9
X131.26Y29.9
X131.31Y69.42
X131.31Y10.3
X131.36Y102.02
X131.36Y42.9
X131.51Y117.12
X131.51Y115.17
X131.51Y61.47
X131.51Y59.52
X131.51Y58.0
X131.51Y56.05
X131.51Y2.35
X131.51Y0.4
X131.56Y103.52
X131.56Y102.52
X131.56Y101.52
X131.56Y100.52
X131.56Y99.52
X131.56Y98.52
X131.56Y97.52
X131.56Y95.52
X131.56Y94.52
X131.56Y93.52
X131.56Y44.4
X131.56Y43.4
X131.56Y42.4
X131.56Y41.4
X131.56Y40.4
X131.56Y39.4
X131.56Y38.4
X131.56Y36.4
X131.56Y35.4
X131.56Y34.4
X131.96Y69.32
X131.96Y10.2
X132.56Y87.42
X132.56Y28.3
X132.96Y69.62
X132.96Y10.5
X133.51Y87.87
X133.51Y28.75
X133.81Y107.82
X133.81Y48.7
X134.06Y117.12
X134.06Y115.17
X134.06Y61.47
X134.06Y59.52
X134.06Y58.0
X134.06Y56.05
X134.06Y2.35
X134.06Y0.4
X134.11Y88.12
X134.11Y29.0
X134.16Y107.47
X134.16Y48.35
X134.81Y107.47
X134.81Y48.35
X135.36Y107.97
X135.36Y48.85
X136.56Y103.02
X136.56Y102.02
X136.56Y101.02
X136.56Y100.52
X136.56Y100.02
X136.56Y99.02
X136.56Y98.02
X136.56Y95.72
X136.56Y95.02
X136.56Y94.02
X136.56Y93.02
X136.56Y43.9
X136.56Y42.9
X136.56Y41.9
X136.56Y41.4
X136.56Y40.9
X136.56Y39.9
X136.56Y38.9
X136.56Y36.6
X136.56Y35.9
X136.56Y34.9
X136.56Y33.9
X136.61Y117.12
X136.61Y115.17
X136.61Y61.47
X136.61Y59.52
X136.61Y58.0
X136.61Y56.05
X136.61Y2.35
X136.61Y0.4
X137.06Y87.42
X137.06Y28.3
X137.16Y72.22
X137.16Y13.1
X139.11Y61.47
X139.11Y59.52
X139.11Y2.35
X139.11Y0.4
X150.42Y109.22
X150.42Y50.1
X150.62Y66.12
X150.62Y63.12
X150.62Y7.0
X150.62Y4.0
X152.32Y64.52
X152.32Y5.4
X152.62Y108.12
X152.62Y49.0
X153.82Y101.57
X153.82Y42.45
X154.62Y115.22
X154.62Y114.22
X154.62Y113.72
X154.62Y113.22
X154.62Y112.22
X154.62Y109.22
X154.62Y56.1
X154.62Y55.1
X154.62Y54.6
X154.62Y54.1
X154.62Y53.1
X154.62Y50.1
X155.22Y62.27
X155.22Y3.15
X155.47Y112.22
X155.47Y53.1
X155.62Y104.22
X155.62Y103.52
X155.62Y98.52
X155.62Y97.82
X155.62Y45.1
X155.62Y44.4
X155.62Y39.4
X155.62Y38.7
X155.97Y60.32
X155.97Y1.2
X156.03Y100.28
X156.03Y41.16
X156.47Y100.92
X156.47Y41.8
X156.52Y60.32
X156.52Y1.2
X157.32Y104.82
X157.32Y97.22
X157.32Y45.7
X157.32Y38.1
X158.22Y113.22
X158.22Y112.72
X158.22Y54.1
X158.22Y53.6
X158.57Y62.97
X158.57Y3.85
X158.72Y100.82
X158.72Y98.02
X158.72Y97.42
X158.72Y96.82
X158.72Y41.7
X158.72Y38.9
X158.72Y38.3
X158.72Y37.7
X159.22Y62.97
X159.22Y3.85
X159.57Y60.97
X159.57Y1.85
X159.72Y87.62
X159.72Y28.5
X160.47Y116.02
X160.47Y56.9
X160.67Y67.42
X160.67Y8.3
X161.12Y68.92
X161.12Y68.32
X161.12Y67.82
X161.12Y9.8
X161.12Y9.2
X161.12Y8.7
X161.22Y114.42
X161.22Y55.3
X161.73Y69.82
X161.73Y10.7
X162.72Y69.62
X162.72Y67.62
X162.72Y10.5
X162.72Y8.5
X163.32Y98.02
X163.32Y97.42
X163.32Y96.82
X163.32Y70.42
X163.32Y38.9
X163.32Y38.3
X163.32Y37.7
X163.32Y11.3
X163.97Y103.22
X163.97Y44.1
X164.32Y69.42
X164.32Y67.82
X164.32Y10.3
X164.32Y8.7
X164.52Y89.82
X164.52Y89.12
X164.52Y85.42
X164.52Y83.17
X164.52Y30.7
X164.52Y30.0
X164.52Y26.3
X164.52Y24.05
X164.67Y91.57
X164.67Y81.82
X164.67Y81.27
X164.67Y80.67
X164.67Y32.45
X164.67Y22.7
X164.67Y22.15
X164.67Y21.55
X165.12Y77.67
X165.12Y18.55
X165.27Y81.27
X165.27Y22.15
X165.52Y80.82
X165.52Y21.7
X165.72Y79.33
X165.72Y20.21
X166.12Y80.82
X166.12Y21.7
X166.27Y117.07
X166.27Y115.12
X166.27Y57.95
X166.27Y56.0
X167.17Y98.52
X167.17Y39.4
X167.42Y80.77
X167.42Y21.65
X167.52Y77.62
X167.52Y18.5
X167.62Y71.732
X167.62Y12.612
X167.97Y87.62
X167.97Y28.5
X168.12Y94.02
X168.12Y34.9
X168.47Y89.92
X168.47Y30.8
X168.52Y86.57
X168.52Y75.32
X168.52Y27.45
X168.52Y16.2
X168.72Y107.02
X168.72Y104.82
X168.72Y92.52
X168.72Y47.9
X168.72Y45.7
X168.72Y33.4
X168.82Y117.07
X168.82Y57.95
X169.12Y89.92
X169.12Y30.8
X169.92Y82.77
X169.92Y82.02
X169.92Y81.22
X169.92Y80.02
X169.92Y23.65
X169.92Y22.9
X169.92Y22.1
X169.92Y20.9
X170.87Y96.57
X170.87Y93.32
X170.87Y83.52
X170.87Y78.87
X170.87Y37.45
X170.87Y34.2
X170.87Y24.4
X170.87Y19.75
X170.97Y104.22
X170.97Y45.1
X171.32Y117.07
X171.32Y115.12
X171.32Y89.82
X171.32Y86.62
X171.32Y57.95
X171.32Y56.0
X171.32Y30.7
X171.32Y27.5
X171.52Y75.52
X171.52Y16.4
X171.57Y83.52
X171.57Y82.77
X171.57Y82.02
X171.57Y81.22
X171.57Y24.4
X171.57Y23.65
X171.57Y22.9
X171.57Y22.1
X171.92Y86.62
X171.92Y27.5
X172.42Y90.47
X172.42Y31.35
X172.47Y83.52
X172.47Y24.4
X172.96Y74.36
X172.96Y15.24
X172.97Y78.87
X172.97Y78.17
X172.97Y77.52
X172.97Y19.75
X172.97Y19.05
X172.97Y18.4
X173.47Y83.52
X173.47Y82.02
X173.47Y81.02
X173.47Y78.87
X173.47Y78.17
X173.47Y77.52
X173.47Y24.4
X173.47Y22.9
X173.47Y21.9
X173.47Y19.75
X173.47Y19.05
X173.47Y18.4
X173.52Y97.92
X173.52Y92.77
X173.52Y38.8
X173.52Y33.65
X173.87Y117.07
X173.87Y115.12
X173.87Y57.95
X173.87Y56.0
X174.12Y103.22
X174.12Y44.1
X174.37Y81.02
X174.37Y21.9
X174.52Y73.52
X174.52Y14.4
X174.87Y71.17
X174.87Y69.17
X174.87Y12.05
X174.87Y10.05
X175.22Y70.82
X175.22Y11.7
X175.47Y61.47
X175.47Y59.52
X175.47Y2.35
X175.47Y0.4
X175.67Y86.52
X175.67Y72.82
X175.67Y27.4
X175.67Y13.7
X176.47Y117.12
X176.47Y115.17
X176.47Y101.57
X176.47Y72.92
X176.47Y71.97
X176.47Y58.0
X176.47Y56.05
X176.47Y42.45
X176.47Y13.8
X176.47Y12.85
X176.67Y86.57
X176.67Y27.45
X177.97Y61.47
X177.97Y59.52
X177.97Y2.35
X177.97Y0.4
X178.37Y95.07
X178.37Y94.47
X178.37Y35.95
X178.37Y35.35
X178.47Y87.07
X178.47Y27.95
X178.52Y97.52
X178.52Y38.4
X178.67Y71.97
X178.67Y12.85
X178.92Y117.12
X178.92Y115.17
X178.92Y58.0
X178.92Y56.05
X179.32Y92.77
X179.32Y33.65
X179.52Y99.22
X179.52Y40.1
X179.72Y103.87
X179.72Y44.75
X179.92Y99.22
X179.92Y94.12
X179.92Y40.1
X179.92Y35.0
X180.37Y94.52
X180.37Y35.4
X180.47Y97.52
X180.47Y38.4
X180.52Y61.47
X180.52Y59.52
X180.52Y2.35
X180.52Y0.4
X180.57Y92.82
X180.57Y33.7
X180.72Y94.92
X180.72Y93.32
X180.72Y35.8
X180.72Y34.2
X181.12Y94.52
X181.12Y93.72
X181.12Y35.4
X181.12Y34.6
X181.22Y99.72
X181.22Y40.6
X181.47Y117.12
X181.47Y115.17
X181.47Y70.87
X181.47Y69.87
X181.47Y58.0
X181.47Y56.05
X181.47Y11.75
X181.47Y10.75
X182.22Y105.72
X182.22Y46.6
X182.37Y90.27
X182.37Y31.15
X182.72Y103.12
X182.72Y44.0
X182.92Y90.67
X182.92Y90.12
X182.92Y31.55
X182.92Y31.0
X183.02Y61.47
X183.02Y59.52
X183.02Y2.35
X183.02Y0.4
X183.12Y75.57
X183.12Y16.45
X183.22Y105.72
X183.22Y100.02
X183.22Y82.27
X183.22Y46.6
X183.22Y40.9
X183.22Y23.15
X183.32Y89.77
X183.32Y30.65
X183.52Y80.47
X183.52Y79.62
X183.52Y21.35
X183.52Y20.5
X183.72Y91.12
X183.72Y32.0
X184.02Y117.12
X184.02Y115.17
X184.02Y58.0
X184.02Y56.05
X184.07Y80.47
X184.07Y21.35
X184.12Y91.42
X184.12Y32.3
X184.22Y105.72
X184.22Y73.22
X184.22Y46.6
X184.22Y14.1
X184.52Y102.72
X184.52Y91.12
X184.52Y43.6
X184.52Y32.0
X184.57Y82.07
X184.57Y22.95
X184.67Y75.97
X184.67Y16.85
X184.72Y97.12
X184.72Y38.0
X184.92Y103.12
X184.92Y44.0
X185.07Y80.52
X185.07Y21.4
X185.12Y83.52
X185.12Y24.4
X185.17Y71.27
X185.17Y70.82
X185.17Y68.82
X185.17Y68.37
X185.17Y12.15
X185.17Y11.7
X185.17Y9.7
X185.17Y9.25
X185.32Y102.72
X185.32Y98.57
X185.32Y95.67
X185.32Y43.6
X185.32Y39.45
X185.32Y36.55
X185.57Y61.47
X185.57Y59.52
X185.57Y2.35
X185.57Y0.4
X185.67Y83.52
X185.67Y24.4
X185.72Y103.12
X185.72Y44.0
X185.92Y83.12
X185.92Y24.0
X186.07Y80.12
X186.07Y21.0
X186.12Y105.72
X186.12Y102.72
X186.12Y46.6
X186.12Y43.6
X186.37Y79.62
X186.37Y20.5
X186.47Y83.52
X186.47Y24.4
X186.52Y103.74
X186.52Y91.42
X186.52Y71.12
X186.52Y44.62
X186.52Y32.3
X186.52Y12.0
X186.57Y117.12
X186.57Y115.17
X186.57Y58.0
X186.57Y56.05
X186.72Y99.32
X186.72Y97.12
X186.72Y94.82
X186.72Y40.2
X186.72Y38.0
X186.72Y35.7
X186.91Y77.37
X186.91Y18.25
X186.92Y91.12
X186.92Y88.82
X186.92Y87.97
X186.92Y32.0
X186.92Y29.7
X186.92Y28.85
X186.922Y103.321
X186.922Y44.201
X186.97Y83.52
X186.97Y24.4
X187.12Y105.72
X187.12Y46.6
X187.22Y78.82
X187.22Y19.7
X187.27Y107.12
X187.27Y48.0
X187.32Y102.72
X187.32Y92.92
X187.32Y91.42
X187.32Y43.6
X187.32Y33.8
X187.32Y32.3
X187.72Y91.12
X187.72Y32.0
X187.82Y71.12
X187.82Y12.0
X187.87Y83.52
X187.87Y78.47
X187.87Y24.4
X187.87Y19.35
X187.97Y80.57
X187.97Y21.45
X188.12Y102.72
X188.12Y92.92
X188.12Y91.42
X188.12Y61.47
X188.12Y59.52
X188.12Y43.6
X188.12Y33.8
X188.12Y32.3
X188.12Y2.35
X188.12Y0.4
X188.17Y98.57
X188.17Y96.42
X188.17Y39.45
X188.17Y37.3
X188.47Y87.97
X188.47Y28.85
X188.52Y103.07
X188.52Y91.12
X188.52Y43.95
X188.52Y32.0
X188.72Y94.82
X188.72Y35.7
X188.92Y92.92
X188.92Y91.42
X188.92Y33.8
X188.92Y32.3
X189.12Y117.12
X189.12Y115.17
X189.12Y75.12
X189.12Y73.12
X189.12Y71.12
X189.12Y69.12
X189.12Y58.0
X189.12Y56.05
X189.12Y16.0
X189.12Y14.0
X189.12Y12.0
X189.12Y10.0
X189.32Y106.32
X189.32Y105.77
X189.32Y100.02
X189.32Y91.12
X189.32Y47.2
X189.32Y46.65
X189.32Y40.9
X189.32Y32.0
X189.42Y107.22
X189.42Y48.1
X189.72Y106.82
X189.72Y92.92
X189.72Y91.42
X189.72Y47.7
X189.72Y33.8
X189.72Y32.3
X190.12Y101.02
X190.12Y91.12
X190.12Y41.9
X190.12Y32.0
X190.52Y105.72
X190.52Y103.52
X190.52Y94.82
X190.52Y46.6
X190.52Y44.4
X190.52Y35.7
X190.57Y97.32
X190.57Y38.2
X190.67Y61.47
X190.67Y59.52
X190.67Y2.35
X190.67Y0.4
X190.77Y96.87
X190.77Y37.75
X190.82Y82.32
X190.82Y23.2
X190.92Y91.02
X190.92Y31.9
X191.12Y81.62
X191.12Y22.5
X191.22Y105.47
X191.22Y46.35
X191.62Y117.12
X191.62Y115.17
X191.62Y58.0
X191.62Y56.05
X192.22Y94.52
X192.22Y35.4
X192.27Y97.72
X192.27Y96.522
X192.27Y38.6
X192.27Y37.402
X192.318Y93.716
X192.318Y34.596
X192.37Y95.82
X192.37Y36.7
X192.521Y94.117
X192.521Y34.997
X192.523Y93.315
X192.523Y34.195
X192.62Y95.37
X192.62Y36.25
X192.92Y94.97
X192.92Y35.85
X193.17Y117.12
X193.17Y115.17
X193.17Y61.47
X193.17Y59.52
X193.17Y58.0
X193.17Y56.05
X193.17Y2.35
X193.17Y0.4
X193.22Y99.32
X193.22Y92.22
X193.22Y40.2
X193.22Y33.1
X193.47Y94.57
X193.47Y35.45
X193.62Y108.12
X193.62Y49.0
X193.72Y106.82
X193.72Y106.32
X193.72Y85.42
X193.72Y47.7
X193.72Y47.2
X193.72Y26.3
X194.12Y92.62
X194.12Y33.5
X194.72Y98.57
X194.72Y82.32
X194.72Y81.62
X194.72Y39.45
X194.72Y23.2
X194.72Y22.5
X194.82Y97.92
X194.82Y38.8
X195.32Y73.12
X195.32Y70.12
X195.32Y69.12
X195.32Y14.0
X195.32Y11.0
X195.32Y10.0
X195.67Y117.12
X195.67Y115.17
X195.67Y58.0
X195.67Y56.05
X195.72Y61.47
X195.72Y59.52
X195.72Y2.35
X195.72Y0.4
X195.92Y81.97
X195.92Y22.85
X196.02Y83.62
X196.02Y24.5
X196.82Y95.32
X196.82Y36.2
X197.02Y82.32
X197.02Y23.2
X197.22Y106.82
X197.22Y106.32
X197.22Y105.47
X197.22Y47.7
X197.22Y47.2
X197.22Y46.35
X197.27Y96.67
X197.27Y96.22
X197.27Y95.67
X197.27Y37.55
X197.27Y37.1
X197.27Y36.55
X197.32Y94.32
X197.32Y85.02
X197.32Y35.2
X197.32Y25.9
X197.62Y84.52
X197.62Y25.4
X197.82Y82.97
X197.82Y79.77
X197.82Y23.85
X197.82Y20.65
X198.22Y117.12
X198.22Y115.17
X198.22Y58.0
X198.22Y56.05
X198.27Y61.47
X198.27Y59.52
X198.27Y2.35
X198.27Y0.4
X198.52Y96.27
X198.52Y37.15
X198.67Y76.57
X198.67Y17.45
X199.12Y77.97
X199.12Y18.85
X199.17Y84.32
X199.17Y25.2
X199.72Y77.57
X199.72Y18.45
X200.32Y84.32
X200.32Y83.52
X200.32Y82.82
X200.32Y79.82
X200.32Y25.2
X200.32Y24.4
X200.32Y23.7
X200.32Y20.7
X200.77Y117.12
X200.77Y115.17
X200.77Y58.0
X200.77Y56.05
X200.82Y61.47
X200.82Y59.52
X200.82Y2.35
X200.82Y0.4
X202.42Y87.42
X202.42Y28.3
X202.52Y72.22
X202.52Y13.1
X203.32Y117.12
X203.32Y115.17
X203.32Y61.47
X203.32Y59.52
X203.32Y58.0
X203.32Y56.05
X203.32Y2.35
X203.32Y0.4
X205.22Y88.62
X205.22Y29.5
X205.62Y99.02
X205.62Y89.02
X205.62Y39.9
X205.62Y29.9
X205.67Y69.42
X205.67Y10.3
X205.72Y102.02
X205.72Y42.9
X205.87Y117.12
X205.87Y115.17
X205.87Y61.47
X205.87Y59.52
X205.87Y58.0
X205.87Y56.05
X205.87Y2.35
X205.87Y0.4
X205.92Y103.52
X205.92Y102.52
X205.92Y101.52
X205.92Y100.52
X205.92Y99.52
X205.92Y98.52
X205.92Y97.52
X205.92Y95.52
X205.92Y94.52
X205.92Y93.52
X205.92Y44.4
X205.92Y43.4
X205.92Y42.4
X205.92Y41.4
X205.92Y40.4
X205.92Y39.4
X205.92Y38.4
X205.92Y36.4
X205.92Y35.4
X205.92Y34.4
X206.32Y69.32
X206.32Y10.2
X206.92Y87.42
X206.92Y28.3
X207.32Y69.62
X207.32Y10.5
X207.87Y87.87
X207.87Y28.75
X208.17Y107.82
X208.17Y48.7
X208.42Y117.12
X208.42Y115.17
X208.42Y61.47
X208.42Y59.52
X208.42Y58.0
X208.42Y56.05
X208.42Y2.35
X208.42Y0.4
X208.47Y88.12
X208.47Y29.0
X208.52Y107.47
X208.52Y48.35
X209.17Y107.47
X209.17Y48.35
X209.72Y107.97
X209.72Y48.85
X210.92Y103.02
X210.92Y102.02
X210.92Y101.02
X210.92Y100.52
X210.92Y100.02
X210.92Y99.02
X210.92Y98.02
X210.92Y95.72
X210.92Y95.02
X210.92Y94.02
X210.92Y93.02
X210.92Y43.9
X210.92Y42.9
X210.92Y41.9
X210.92Y41.4
X210.92Y40.9
X210.92Y39.9
X210.92Y38.9
X210.92Y36.6
X210.92Y35.9
X210.92Y34.9
X210.92Y33.9
X210.97Y117.12
X210.97Y115.17
X210.97Y61.47
X210.97Y59.52
X210.97Y58.0
X210.97Y56.05
X210.97Y2.35
X210.97Y0.4
X211.42Y87.42
X211.42Y28.3
X211.52Y72.22
X211.52Y13.1
X213.47Y61.47
X213.47Y59.52
X213.47Y2.35
X213.47Y0.4
X224.78Y109.22
X224.78Y50.1
X224.98Y66.12
X224.98Y63.12
X224.98Y7.0
X224.98Y4.0
X226.68Y64.52
X226.68Y5.4
X226.98Y108.12
X226.98Y49.0
X228.18Y101.57
X228.18Y42.45
X228.98Y115.22
X228.98Y114.22
X228.98Y113.72
X228.98Y113.22
X228.98Y112.22
X228.98Y109.22
X228.98Y56.1
X228.98Y55.1
X228.98Y54.6
X228.98Y54.1
X228.98Y53.1
X228.98Y50.1
X229.58Y62.27
X229.58Y3.15
X229.83Y112.22
X229.83Y53.1
X229.98Y104.22
X229.98Y103.52
X229.98Y98.52
X229.98Y97.82
X229.98Y45.1
X229.98Y44.4
X229.98Y39.4
X229.98Y38.7
X230.33Y60.32
X230.33Y1.2
X230.39Y100.28
X230.39Y41.16
X230.83Y100.92
X230.83Y41.8
X230.88Y60.32
X230.88Y1.2
X231.68Y104.82
X231.68Y97.22
X231.68Y45.7
X231.68Y38.1
X232.58Y113.22
X232.58Y112.72
X232.58Y54.1
X232.58Y53.6
X232.93Y62.97
X232.93Y3.85
X233.08Y100.82
X233.08Y98.02
X233.08Y97.42
X233.08Y96.82
X233.08Y41.7
X233.08Y38.9
X233.08Y38.3
X233.08Y37.7
X233.58Y62.97
X233.58Y3.85
X233.93Y60.97
X233.93Y1.85
X234.08Y87.62
X234.08Y28.5
X234.83Y116.02
X234.83Y56.9
X235.03Y67.42
X235.03Y8.3
X235.48Y68.92
X235.48Y68.32
X235.48Y67.82
X235.48Y9.8
X235.48Y9.2
X235.48Y8.7
X235.58Y114.42
X235.58Y55.3
X236.09Y69.82
X236.09Y10.7
X237.08Y69.62
X237.08Y67.62
X237.08Y10.5
X237.08Y8.5
X237.68Y98.02
X237.68Y97.42
X237.68Y96.82
X237.68Y70.42
X237.68Y38.9
X237.68Y38.3
X237.68Y37.7
X237.68Y11.3
X238.33Y103.22
X238.33Y44.1
X238.68Y69.42
X238.68Y67.82
X238.68Y10.3
X238.68Y8.7
X238.88Y89.82
X238.88Y89.12
X238.88Y85.42
X238.88Y83.17
X238.88Y30.7
X238.88Y30.0
X238.88Y26.3
X238.88Y24.05
X239.03Y91.57
X239.03Y81.82
X239.03Y81.27
X239.03Y80.67
X239.03Y32.45
X239.03Y22.7
X239.03Y22.15
X239.03Y21.55
X239.48Y77.67
X239.48Y18.55
X239.63Y81.27
X239.63Y22.15
X239.88Y80.82
X239.88Y21.7
X240.08Y79.33
X240.08Y20.21
X240.48Y80.82
X240.48Y21.7
X240.63Y117.07
X240.63Y115.12
X240.63Y57.95
X240.63Y56.0
X241.53Y98.52
X241.53Y39.4
X241.78Y80.77
X241.78Y21.65
X241.88Y77.62
X241.88Y18.5
X241.98Y71.732
X241.98Y12.612
X242.33Y87.62
X242.33Y28.5
X242.48Y94.02
X242.48Y34.9
X242.83Y89.92
X242.83Y30.8
X242.88Y86.57
X242.88Y75.32
X242.88Y27.45
X242.88Y16.2
X243.08Y107.02
X243.08Y104.82
X243.08Y92.52
X243.08Y47.9
X243.08Y45.7
X243.08Y33.4
X243.18Y117.07
X243.18Y57.95
X243.48Y89.92
X243.48Y30.8
X244.28Y82.77
X244.28Y82.02
X244.28Y81.22
X244.28Y80.02
X244.28Y23.65
X244.28Y22.9
X244.28Y22.1
X244.28Y20.9
X245.23Y96.57
X245.23Y93.32
X245.23Y83.52
X245.23Y78.87
X245.23Y37.45
X245.23Y34.2
X245.23Y24.4
X245.23Y19.75
X245.33Y104.22
X245.33Y45.1
X245.68Y117.07
X245.68Y115.12
X245.68Y89.82
X245.68Y86.62
X245.68Y57.95
X245.68Y56.0
X245.68Y30.7
X245.68Y27.5
X245.88Y75.52
X245.88Y16.4
X245.93Y83.52
X245.93Y82.77
X245.93Y82.02
X245.93Y81.22
X245.93Y24.4
X245.93Y23.65
X245.93Y22.9
X245.93Y22.1
X246.28Y86.62
X246.28Y27.5
X246.78Y90.47
X246.78Y31.35
X246.83Y83.52
X246.83Y24.4
X247.32Y74.36
X247.32Y15.24
X247.33Y78.87
X247.33Y78.17
X247.33Y77.52
X247.33Y19.75
X247.33Y19.05
X247.33Y18.4
X247.83Y83.52
X247.83Y82.02
X247.83Y81.02
X247.83Y78.87
X247.83Y78.17
X247.83Y77.52
X247.83Y24.4
X247.83Y22.9
X247.83Y21.9
X247.83Y19.75
X247.83Y19.05
X247.83Y18.4
X247.88Y97.92
X247.88Y92.77
X247.88Y38.8
X247.88Y33.65
X248.23Y117.07
X248.23Y115.12
X248.23Y57.95
X248.23Y56.0
X248.48Y103.22
X248.48Y44.1
X248.73Y81.02
X248.73Y21.9
X248.88Y73.52
X248.88Y14.4
X249.23Y71.17
X249.23Y69.17
X249.23Y12.05
X249.23Y10.05
X249.58Y70.82
X249.58Y11.7
X249.83Y61.47
X249.83Y59.52
X249.83Y2.35
X249.83Y0.4
X250.03Y86.52
X250.03Y72.82
X250.03Y27.4
X250.03Y13.7
X250.83Y117.12
X250.83Y115.17
X250.83Y101.57
X250.83Y72.92
X250.83Y71.97
X250.83Y58.0
X250.83Y56.05
X250.83Y42.45
X250.83Y13.8
X250.83Y12.85
X251.03Y86.57
X251.03Y27.45
X252.33Y61.47
X252.33Y59.52
X252.33Y2.35
X252.33Y0.4
X252.73Y95.07
X252.73Y94.47
X252.73Y35.95
X252.73Y35.35
X252.83Y87.07
X252.83Y27.95
X252.88Y97.52
X252.88Y38.4
X253.03Y71.97
X253.03Y12.85
X253.28Y117.12
X253.28Y115.17
X253.28Y58.0
X253.28Y56.05
X253.68Y92.77
X253.68Y33.65
X253.88Y99.22
X253.88Y40.1
X254.08Y103.87
X254.08Y44.75
X254.28Y99.22
X254.28Y94.12
X254.28Y40.1
X254.28Y35.0
X254.73Y94.52
X254.73Y35.4
X254.83Y97.52
X254.83Y38.4
X254.88Y61.47
X254.88Y59.52
X254.88Y2.35
X254.88Y0.4
X254.93Y92.82
X254.93Y33.7
X255.08Y94.92
X255.08Y93.32
X255.08Y35.8
X255.08Y34.2
X255.48Y94.52
X255.48Y93.72
X255.48Y35.4
X255.48Y34.6
X255.58Y99.72
X255.58Y40.6
X255.83Y117.12
X255.83Y115.17
X255.83Y70.87
X255.83Y69.87
X255.83Y58.0
X255.83Y56.05
X255.83Y11.75
X255.83Y10.75
X256.58Y105.72
X256.58Y46.6
X256.73Y90.27
X256.73Y31.15
X257.08Y103.12
X257.08Y44.0
X257.28Y90.67
X257.28Y90.12
X257.28Y31.55
X257.28Y31.0
X257.38Y61.47
X257.38Y59.52
X257.38Y2.35
X257.38Y0.4
X257.48Y75.57
X257.48Y16.45
X257.58Y105.72
X257.58Y100.02
X257.58Y82.27
X257.58Y46.6
X257.58Y40.9
X257.58Y23.15
X257.68Y89.77
X257.68Y30.65
X257.88Y80.47
X257.88Y79.62
X257.88Y21.35
X257.88Y20.5
X258.08Y91.12
X258.08Y32.0
X258.38Y117.12
X258.38Y115.17
X258.38Y58.0
X258.38Y56.05
X258.43Y80.47
X258.43Y21.35
X258.48Y91.42
X258.48Y32.3
X258.58Y105.72
X258.58Y73.22
X258.58Y46.6
X258.58Y14.1
X258.88Y102.72
X258.88Y91.12
X258.88Y43.6
X258.88Y32.0
X258.93Y82.07
X258.93Y22.95
X259.03Y75.97
X259.03Y16.85
X259.08Y97.12
X259.08Y38.0
X259.28Y103.12
X259.28Y44.0
X259.43Y80.52
X259.43Y21.4
X259.48Y83.52
X259.48Y24.4
X259.53Y71.27
X259.53Y70.82
X259.53Y68.82
X259.53Y68.37
X259.53Y12.15
X259.53Y11.7
X259.53Y9.7
X259.53Y9.25
X259.68Y102.72
X259.68Y98.57
X259.68Y95.67
X259.68Y43.6
X259.68Y39.45
X259.68Y36.55
X259.93Y61.47
X259.93Y59.52
X259.93Y2.35
X259.93Y0.4
X260.03Y83.52
X260.03Y24.4
X260.08Y103.12
X260.08Y44.0
X260.28Y83.12
X260.28Y24.0
X260.43Y80.12
X260.43Y21.0
X260.48Y105.72
X260.48Y102.72
X260.48Y46.6
X260.48Y43.6
X260.73Y79.62
X260.73Y20.5
X260.83Y83.52
X260.83Y24.4
X260.88Y103.74
X260.88Y91.42
X260.88Y71.12
X260.88Y44.62
X260.88Y32.3
X260.88Y12.0
X260.93Y117.12
X260.93Y115.17
X260.93Y58.0
X260.93Y56.05
X261.08Y99.32
X261.08Y97.12
X261.08Y94.82
X261.08Y40.2
X261.08Y38.0
X261.08Y35.7
X261.27Y77.37
X261.27Y18.25
X261.28Y91.12
X261.28Y88.82
X261.28Y87.97
X261.28Y32.0
X261.28Y29.7
X261.28Y28.85
X261.282Y103.321
X261.282Y44.201
X261.33Y83.52
X261.33Y24.4
X261.48Y105.72
X261.48Y46.6
X261.58Y78.82
X261.58Y19.7
X261.63Y107.12
X261.63Y48.0
X261.68Y102.72
X261.68Y92.92
X261.68Y91.42
X261.68Y43.6
X261.68Y33.8
X261.68Y32.3
X262.08Y91.12
X262.08Y32.0
X262.18Y71.12
X262.18Y12.0
X262.23Y83.52
X262.23Y78.47
X262.23Y24.4
X262.23Y19.35
X262.33Y80.57
X262.33Y21.45
X262.48Y102.72
X262.48Y92.92
X262.48Y91.42
X262.48Y61.47
X262.48Y59.52
X262.48Y43.6
X262.48Y33.8
X262.48Y32.3
X262.48Y2.35
X262.48Y0.4
X262.53Y98.57
X262.53Y96.42
X262.53Y39.45
X262.53Y37.3
X262.83Y87.97
X262.83Y28.85
X262.88Y103.07
X262.88Y91.12
X262.88Y43.95
X262.88Y32.0
X263.08Y94.82
X263.08Y35.7
X263.28Y92.92
X263.28Y91.42
X263.28Y33.8
X263.28Y32.3
X263.48Y117.12
X263.48Y115.17
X263.48Y75.12
X263.48Y73.12
X263.48Y71.12
X263.48Y69.12
X263.48Y58.0
X263.48Y56.05
X263.48Y16.0
X263.48Y14.0
X263.48Y12.0
X263.48Y10.0
X263.68Y106.32
X263.68Y105.77
X263.68Y100.02
X263.68Y91.12
X263.68Y47.2
X263.68Y46.65
X263.68Y40.9
X263.68Y32.0
X263.78Y107.22
X263.78Y48.1
X264.08Y106.82
X264.08Y92.92
X264.08Y91.42
X264.08Y47.7
X264.08Y33.8
X264.08Y32.3
X264.48Y101.02
X264.48Y91.12
X264.48Y41.9
X264.48Y32.0
X264.88Y105.72
X264.88Y103.52
X264.88Y94.82
X264.88Y46.6
X264.88Y44.4
X264.88Y35.7
X264.93Y97.32
X264.93Y38.2
X265.03Y61.47
X265.03Y59.52
X265.03Y2.35
X265.03Y0.4
X265.13Y96.87
X265.13Y37.75
X265.18Y82.32
X265.18Y23.2
X265.28Y91.02
X265.28Y31.9
X265.48Y81.62
X265.48Y22.5
X265.58Y105.47
X265.58Y46.35
X265.98Y117.12
X265.98Y115.17
X265.98Y58.0
X265.98Y56.05
X266.58Y94.52
X266.58Y35.4
X266.63Y97.72
X266.63Y96.522
X266.63Y38.6
X266.63Y37.402
X266.678Y93.716
X266.678Y34.596
X266.73Y95.82
X266.73Y36.7
X266.881Y94.117
X266.881Y34.997
X266.883Y93.315
X266.883Y34.195
X266.98Y95.37
X266.98Y36.25
X267.28Y94.97
X267.28Y35.85
X267.53Y117.12
X267.53Y115.17
X267.53Y61.47
X267.53Y59.52
X267.53Y58.0
X267.53Y56.05
X267.53Y2.35
X267.53Y0.4
X267.58Y99.32
X267.58Y92.22
X267.58Y40.2
X267.58Y33.1
X267.83Y94.57
X267.83Y35.45
X267.98Y108.12
X267.98Y49.0
X268.08Y106.82
X268.08Y106.32
X268.08Y85.42
X268.08Y47.7
X268.08Y47.2
X268.08Y26.3
X268.48Y92.62
X268.48Y33.5
X269.08Y98.57
X269.08Y82.32
X269.08Y81.62
X269.08Y39.45
X269.08Y23.2
X269.08Y22.5
X269.18Y97.92
X269.18Y38.8
X269.68Y73.12
X269.68Y70.12
X269.68Y69.12
X269.68Y14.0
X269.68Y11.0
X269.68Y10.0
X270.03Y117.12
X270.03Y115.17
X270.03Y58.0
X270.03Y56.05
X270.08Y61.47
X270.08Y59.52
X270.08Y2.35
X270.08Y0.4
X270.28Y81.97
X270.28Y22.85
X270.38Y83.62
X270.38Y24.5
X271.18Y95.32
X271.18Y36.2
X271.38Y82.32
X271.38Y23.2
X271.58Y106.82
X271.58Y106.32
X271.58Y105.47
X271.58Y47.7
X271.58Y47.2
X271.58Y46.35
X271.63Y96.67
X271.63Y96.22
X271.63Y95.67
X271.63Y37.55
X271.63Y37.1
X271.63Y36.55
X271.68Y94.32
X271.68Y85.02
X271.68Y35.2
X271.68Y25.9
X271.98Y84.52
X271.98Y25.4
X272.18Y82.97
X272.18Y79.77
X272.18Y23.85
X272.18Y20.65
X272.58Y117.12
X272.58Y115.17
X272.58Y58.0
X272.58Y56.05
X272.63Y61.47
X272.63Y59.52
X272.63Y2.35
X272.63Y0.4
X272.88Y96.27
X272.88Y37.15
X273.03Y76.57
X273.03Y17.45
X273.48Y77.97
X273.48Y18.85
X273.53Y84.32
X273.53Y25.2
X274.08Y77.57
X274.08Y18.45
X274.68Y84.32
X274.68Y83.52
X274.68Y82.82
X274.68Y79.82
X274.68Y25.2
X274.68Y24.4
X274.68Y23.7
X274.68Y20.7
X275.13Y117.12
X275.13Y115.17
X275.13Y58.0
X275.13Y56.05
X275.18Y61.47
X275.18Y59.52
X275.18Y2.35
X275.18Y0.4
X276.78Y87.42
X276.78Y28.3
X276.88Y72.22
X276.88Y13.1
X277.68Y117.12
X277.68Y115.17
X277.68Y61.47
X277.68Y59.52
X277.68Y58.0
X277.68Y56.05
X277.68Y2.35
X277.68Y0.4
X279.58Y88.62
X279.58Y29.5
X279.98Y99.02
X279.98Y89.02
X279.98Y39.9
X279.98Y29.9
X280.03Y69.42
X280.03Y10.3
X280.08Y102.02
X280.08Y42.9
X280.23Y117.12
X280.23Y115.17
X280.23Y61.47
X280.23Y59.52
X280.23Y58.0
X280.23Y56.05
X280.23Y2.35
X280.23Y0.4
X280.28Y103.52
X280.28Y102.52
X280.28Y101.52
X280.28Y100.52
X280.28Y99.52
X280.28Y98.52
X280.28Y97.52
X280.28Y95.52
X280.28Y94.52
X280.28Y93.52
X280.28Y44.4
X280.28Y43.4
X280.28Y42.4
X280.28Y41.4
X280.28Y40.4
X280.28Y39.4
X280.28Y38.4
X280.28Y36.4
X280.28Y35.4
X280.28Y34.4
X280.68Y69.32
X280.68Y10.2
X281.28Y87.42
X281.28Y28.3
X281.68Y69.62
X281.68Y10.5
X282.23Y87.87
X282.23Y28.75
X282.53Y107.82
X282.53Y48.7
X282.78Y117.12
X282.78Y115.17
X282.78Y61.47
X282.78Y59.52
X282.78Y58.0
X282.78Y56.05
X282.78Y2.35
X282.78Y0.4
X282.83Y88.12
X282.83Y29.0
X282.88Y107.47
X282.88Y48.35
X283.53Y107.47
X283.53Y48.35
X284.08Y107.97
X284.08Y48.85
X285.28Y103.02
X285.28Y102.02
X285.28Y101.02
X285.28Y100.52
X285.28Y100.02
X285.28Y99.02
X285.28Y98.02
X285.28Y95.72
X285.28Y95.02
X285.28Y94.02
X285.28Y93.02
X285.28Y43.9
X285.28Y42.9
X285.28Y41.9
X285.28Y41.4
X285.28Y40.9
X285.28Y39.9
X285.28Y38.9
X285.28Y36.6
X285.28Y35.9
X285.28Y34.9
X285.28Y33.9
X285.33Y117.12
X285.33Y115.17
X285.33Y61.47
X285.33Y59.52
X285.33Y58.0
X285.33Y56.05
X285.33Y2.35
X285.33Y0.4
X285.78Y87.42
X285.78Y28.3
X285.88Y72.22
X285.88Y13.1
X287.83Y61.47
X287.83Y59.52
X287.83Y2.35
X287.83Y0.4
X299.14Y109.22
X299.14Y50.1
X299.34Y66.12
X299.34Y63.12
X299.34Y7.0
X299.34Y4.0
X301.04Y64.52
X301.04Y5.4
X301.34Y108.12
X301.34Y49.0
X302.54Y101.57
X302.54Y42.45
X303.34Y115.22
X303.34Y114.22
X303.34Y113.72
X303.34Y113.22
X303.34Y112.22
X303.34Y109.22
X303.34Y56.1
X303.34Y55.1
X303.34Y54.6
X303.34Y54.1
X303.34Y53.1
X303.34Y50.1
X303.94Y62.27
X303.94Y3.15
X304.19Y112.22
X304.19Y53.1
X304.34Y104.22
X304.34Y103.52
X304.34Y98.52
X304.34Y97.82
X304.34Y45.1
X304.34Y44.4
X304.34Y39.4
X304.34Y38.7
X304.69Y60.32
X304.69Y1.2
X304.75Y100.28
X304.75Y41.16
X305.19Y100.92
X305.19Y41.8
X305.24Y60.32
X305.24Y1.2
X306.04Y104.82
X306.04Y97.22
X306.04Y45.7
X306.04Y38.1
X306.94Y113.22
X306.94Y112.72
X306.94Y54.1
X306.94Y53.6
X307.29Y62.97
X307.29Y3.85
X307.44Y100.82
X307.44Y98.02
X307.44Y97.42
X307.44Y96.82
X307.44Y41.7
X307.44Y38.9
X307.44Y38.3
X307.44Y37.7
X307.94Y62.97
X307.94Y3.85
X308.29Y60.97
X308.29Y1.85
X308.44Y87.62
X308.44Y28.5
X309.19Y116.02
X309.19Y56.9
X309.39Y67.42
X309.39Y8.3
X309.84Y68.92
X309.84Y68.32
X309.84Y67.82
X309.84Y9.8
X309.84Y9.2
X309.84Y8.7
X309.94Y114.42
X309.94Y55.3
X310.45Y69.82
X310.45Y10.7
X311.44Y69.62
X311.44Y67.62
X311.44Y10.5
X311.44Y8.5
X312.04Y98.02
X312.04Y97.42
X312.04Y96.82
X312.04Y70.42
X312.04Y38.9
X312.04Y38.3
X312.04Y37.7
X312.04Y11.3
X312.69Y103.22
X312.69Y44.1
X313.04Y69.42
X313.04Y67.82
X313.04Y10.3
X313.04Y8.7
X313.24Y89.82
X313.24Y89.12
X313.24Y85.42
X313.24Y83.17
X313.24Y30.7
X313.24Y30.0
X313.24Y26.3
X313.24Y24.05
X313.39Y91.57
X313.39Y81.82
X313.39Y81.27
X313.39Y80.67
X313.39Y32.45
X313.39Y22.7
X313.39Y22.15
X313.39Y21.55
X313.84Y77.67
X313.84Y18.55
X313.99Y81.27
X313.99Y22.15
X314.24Y80.82
X314.24Y21.7
X314.44Y79.33
X314.44Y20.21
X314.84Y80.82
X314.84Y21.7
X314.99Y117.07
X314.99Y115.12
X314.99Y57.95
X314.99Y56.0
X315.89Y98.52
X315.89Y39.4
X316.14Y80.77
X316.14Y21.65
X316.24Y77.62
X316.24Y18.5
X316.34Y71.732
X316.34Y12.612
X316.69Y87.62
X316.69Y28.5
X316.84Y94.02
X316.84Y34.9
X317.19Y89.92
X317.19Y30.8
X317.24Y86.57
X317.24Y75.32
X317.24Y27.45
X317.24Y16.2
X317.44Y107.02
X317.44Y104.82
X317.44Y92.52
X317.44Y47.9
X317.44Y45.7
X317.44Y33.4
X317.54Y117.07
X317.54Y57.95
X317.84Y89.92
X317.84Y30.8
X318.64Y82.77
X318.64Y82.02
X318.64Y81.22
X318.64Y80.02
X318.64Y23.65
X318.64Y22.9
X318.64Y22.1
X318.64Y20.9
X319.59Y96.57
X319.59Y93.32
X319.59Y83.52
X319.59Y78.87
X319.59Y37.45
X319.59Y34.2
X319.59Y24.4
X319.59Y19.75
X319.69Y104.22
X319.69Y45.1
X320.04Y117.07
X320.04Y115.12
X320.04Y89.82
X320.04Y86.62
X320.04Y57.95
X320.04Y56.0
X320.04Y30.7
X320.04Y27.5
X320.24Y75.52
X320.24Y16.4
X320.29Y83.52
X320.29Y82.77
X320.29Y82.02
X320.29Y81.22
X320.29Y24.4
X320.29Y23.65
X320.29Y22.9
X320.29Y22.1
X320.64Y86.62
X320.64Y27.5
X321.14Y90.47
X321.14Y31.35
X321.19Y83.52
X321.19Y24.4
X321.68Y74.36
X321.68Y15.24
X321.69Y78.87
X321.69Y78.17
X321.69Y77.52
X321.69Y19.75
X321.69Y19.05
X321.69Y18.4
X322.19Y83.52
X322.19Y82.02
X322.19Y81.02
X322.19Y78.87
X322.19Y78.17
X322.19Y77.52
X322.19Y24.4
X322.19Y22.9
X322.19Y21.9
X322.19Y19.75
X322.19Y19.05
X322.19Y18.4
X322.24Y97.92
X322.24Y92.77
X322.24Y38.8
X322.24Y33.65
X322.59Y117.07
X322.59Y115.12
X322.59Y57.95
X322.59Y56.0
X322.84Y103.22
X322.84Y44.1
X323.09Y81.02
X323.09Y21.9
X323.24Y73.52
X323.24Y14.4
X323.59Y71.17
X323.59Y69.17
X323.59Y12.05
X323.59Y10.05
X323.94Y70.82
X323.94Y11.7
X324.19Y61.47
X324.19Y59.52
X324.19Y2.35
X324.19Y0.4
X324.39Y86.52
X324.39Y72.82
X324.39Y27.4
X324.39Y13.7
X325.19Y117.12
X325.19Y115.17
X325.19Y101.57
X325.19Y72.92
X325.19Y71.97
X325.19Y58.0
X325.19Y56.05
X325.19Y42.45
X325.19Y13.8
X325.19Y12.85
X325.39Y86.57
X325.39Y27.45
X326.69Y61.47
X326.69Y59.52
X326.69Y2.35
X326.69Y0.4
X327.09Y95.07
X327.09Y94.47
X327.09Y35.95
X327.09Y35.35
X327.19Y87.07
X327.19Y27.95
X327.24Y97.52
X327.24Y38.4
X327.39Y71.97
X327.39Y12.85
X327.64Y117.12
X327.64Y115.17
X327.64Y58.0
X327.64Y56.05
X328.04Y92.77
X328.04Y33.65
X328.24Y99.22
X328.24Y40.1
X328.44Y103.87
X328.44Y44.75
X328.64Y99.22
X328.64Y94.12
X328.64Y40.1
X328.64Y35.0
X329.09Y94.52
X329.09Y35.4
X329.19Y97.52
X329.19Y38.4
X329.24Y61.47
X329.24Y59.52
X329.24Y2.35
X329.24Y0.4
X329.29Y92.82
X329.29Y33.7
X329.44Y94.92
X329.44Y93.32
X329.44Y35.8
X329.44Y34.2
X329.84Y94.52
X329.84Y93.72
X329.84Y35.4
X329.84Y34.6
X329.94Y99.72
X329.94Y40.6
X330.19Y117.12
X330.19Y115.17
X330.19Y70.87
X330.19Y69.87
X330.19Y58.0
X330.19Y56.05
X330.19Y11.75
X330.19Y10.75
X330.94Y105.72
X330.94Y46.6
X331.09Y90.27
X331.09Y31.15
X331.44Y103.12
X331.44Y44.0
X331.64Y90.67
X331.64Y90.12
X331.64Y31.55
X331.64Y31.0
X331.74Y61.47
X331.74Y59.52
X331.74Y2.35
X331.74Y0.4
X331.84Y75.57
X331.84Y16.45
X331.94Y105.72
X331.94Y100.02
X331.94Y82.27
X331.94Y46.6
X331.94Y40.9
X331.94Y23.15
X332.04Y89.77
X332.04Y30.65
X332.24Y80.47
X332.24Y79.62
X332.24Y21.35
X332.24Y20.5
X332.44Y91.12
X332.44Y32.0
X332.74Y117.12
X332.74Y115.17
X332.74Y58.0
X332.74Y56.05
X332.79Y80.47
X332.79Y21.35
X332.84Y91.42
X332.84Y32.3
X332.94Y105.72
X332.94Y73.22
X332.94Y46.6
X332.94Y14.1
X333.24Y102.72
X333.24Y91.12
X333.24Y43.6
X333.24Y32.0
X333.29Y82.07
X333.29Y22.95
X333.39Y75.97
X333.39Y16.85
X333.44Y97.12
X333.44Y38.0
X333.64Y103.12
X333.64Y44.0
X333.79Y80.52
X333.79Y21.4
X333.84Y83.52
X333.84Y24.4
X333.89Y71.27
X333.89Y70.82
X333.89Y68.82
X333.89Y68.37
X333.89Y12.15
X333.89Y11.7
X333.89Y9.7
X333.89Y9.25
X334.04Y102.72
X334.04Y98.57
X334.04Y95.67
X334.04Y43.6
X334.04Y39.45
X334.04Y36.55
X334.29Y61.47
X334.29Y59.52
X334.29Y2.35
X334.29Y0.4
X334.39Y83.52
X334.39Y24.4
X334.44Y103.12
X334.44Y44.0
X334.64Y83.12
X334.64Y24.0
X334.79Y80.12
X334.79Y21.0
X334.84Y105.72
X334.84Y102.72
X334.84Y46.6
X334.84Y43.6
X335.09Y79.62
X335.09Y20.5
X335.19Y83.52
X335.19Y24.4
X335.24Y103.74
X335.24Y91.42
X335.24Y71.12
X335.24Y44.62
X335.24Y32.3
X335.24Y12.0
X335.29Y117.12
X335.29Y115.17
X335.29Y58.0
X335.29Y56.05
X335.44Y99.32
X335.44Y97.12
X335.44Y94.82
X335.44Y40.2
X335.44Y38.0
X335.44Y35.7
X335.63Y77.37
X335.63Y18.25
X335.64Y91.12
X335.64Y88.82
X335.64Y87.97
X335.64Y32.0
X335.64Y29.7
X335.64Y28.85
X335.642Y103.321
X335.642Y44.201
X335.69Y83.52
X335.69Y24.4
X335.84Y105.72
X335.84Y46.6
X335.94Y78.82
X335.94Y19.7
X335.99Y107.12
X335.99Y48.0
X336.04Y102.72
X336.04Y92.92
X336.04Y91.42
X336.04Y43.6
X336.04Y33.8
X336.04Y32.3
X336.44Y91.12
X336.44Y32.0
X336.54Y71.12
X336.54Y12.0
X336.59Y83.52
X336.59Y78.47
X336.59Y24.4
X336.59Y19.35
X336.69Y80.57
X336.69Y21.45
X336.84Y102.72
X336.84Y92.92
X336.84Y91.42
X336.84Y61.47
X336.84Y59.52
X336.84Y43.6
X336.84Y33.8
X336.84Y32.3
X336.84Y2.35
X336.84Y0.4
X336.89Y98.57
X336.89Y96.42
X336.89Y39.45
X336.89Y37.3
X337.19Y87.97
X337.19Y28.85
X337.24Y103.07
X337.24Y91.12
X337.24Y43.95
X337.24Y32.0
X337.44Y94.82
X337.44Y35.7
X337.64Y92.92
X337.64Y91.42
X337.64Y33.8
X337.64Y32.3
X337.84Y117.12
X337.84Y115.17
X337.84Y75.12
X337.84Y73.12
X337.84Y71.12
X337.84Y69.12
X337.84Y58.0
X337.84Y56.05
X337.84Y16.0
X337.84Y14.0
X337.84Y12.0
X337.84Y10.0
X338.04Y106.32
X338.04Y105.77
X338.04Y100.02
X338.04Y91.12
X338.04Y47.2
X338.04Y46.65
X338.04Y40.9
X338.04Y32.0
X338.14Y107.22
X338.14Y48.1
X338.44Y106.82
X338.44Y92.92
X338.44Y91.42
X338.44Y47.7
X338.44Y33.8
X338.44Y32.3
X338.84Y101.02
X338.84Y91.12
X338.84Y41.9
X338.84Y32.0
X339.24Y105.72
X339.24Y103.52
X339.24Y94.82
X339.24Y46.6
X339.24Y44.4
X339.24Y35.7
X339.29Y97.32
X339.29Y38.2
X339.39Y61.47
X339.39Y59.52
X339.39Y2.35
X339.39Y0.4
X339.49Y96.87
X339.49Y37.75
X339.54Y82.32
X339.54Y23.2
X339.64Y91.02
X339.64Y31.9
X339.84Y81.62
X339.84Y22.5
X339.94Y105.47
X339.94Y46.35
X340.34Y117.12
X340.34Y115.17
X340.34Y58.0
X340.34Y56.05
X340.94Y94.52
X340.94Y35.4
X340.99Y97.72
X340.99Y96.522
X340.99Y38.6
X340.99Y37.402
X341.038Y93.716
X341.038Y34.596
X341.09Y95.82
X341.09Y36.7
X341.241Y94.117
X341.241Y34.997
X341.243Y93.315
X341.243Y34.195
X341.34Y95.37
X341.34Y36.25
X341.64Y94.97
X341.64Y35.85
X341.89Y117.12
X341.89Y115.17
X341.89Y61.47
X341.89Y59.52
X341.89Y58.0
X341.89Y56.05
X341.89Y2.35
X341.89Y0.4
X341.94Y99.32
X341.94Y92.22
X341.94Y40.2
X341.94Y33.1
X342.19Y94.57
X342.19Y35.45
X342.34Y108.12
X342.34Y49.0
X342.44Y106.82
X342.44Y106.32
X342.44Y85.42
X342.44Y47.7
X342.44Y47.2
X342.44Y26.3
X342.84Y92.62
X342.84Y33.5
X343.44Y98.57
X343.44Y82.32
X343.44Y81.62
X343.44Y39.45
X343.44Y23.2
X343.44Y22.5
X343.54Y97.92
X343.54Y38.8
X344.04Y73.12
X344.04Y70.12
X344.04Y69.12
X344.04Y14.0
X344.04Y11.0
X344.04Y10.0
X344.39Y117.12
X344.39Y115.17
X344.39Y58.0
X344.39Y56.05
X344.44Y61.47
X344.44Y59.52
X344.44Y2.35
X344.44Y0.4
X344.64Y81.97
X344.64Y22.85
X344.74Y83.62
X344.74Y24.5
X345.54Y95.32
X345.54Y36.2
X345.74Y82.32
X345.74Y23.2
X345.94Y106.82
X345.94Y106.32
X345.94Y105.47
X345.94Y47.7
X345.94Y47.2
X345.94Y46.35
X345.99Y96.67
X345.99Y96.22
X345.99Y95.67
X345.99Y37.55
X345.99Y37.1
X345.99Y36.55
X346.04Y94.32
X346.04Y85.02
X346.04Y35.2
X346.04Y25.9
X346.34Y84.52
X346.34Y25.4
X346.54Y82.97
X346.54Y79.77
X346.54Y23.85
X346.54Y20.65
X346.94Y117.12
X346.94Y115.17
X346.94Y58.0
X346.94Y56.05
X346.99Y61.47
X346.99Y59.52
X346.99Y2.35
X346.99Y0.4
X347.24Y96.27
X347.24Y37.15
X347.39Y76.57
X347.39Y17.45
X347.84Y77.97
X347.84Y18.85
X347.89Y84.32
X347.89Y25.2
X348.44Y77.57
X348.44Y18.45
X349.04Y84.32
X349.04Y83.52
X349.04Y82.82
X349.04Y79.82
X349.04Y25.2
X349.04Y24.4
X349.04Y23.7
X349.04Y20.7
X349.49Y117.12
X349.49Y115.17
X349.49Y58.0
X349.49Y56.05
X349.54Y61.47
X349.54Y59.52
X349.54Y2.35
X349.54Y0.4
X351.14Y87.42
X351.14Y28.3
X351.24Y72.22
X351.24Y13.1
X352.04Y117.12
X352.04Y115.17
X352.04Y61.47
X352.04Y59.52
X352.04Y58.0
X352.04Y56.05
X352.04Y2.35
X352.04Y0.4
X353.94Y88.62
X353.94Y29.5
X354.34Y99.02
X354.34Y89.02
X354.34Y39.9
X354.34Y29.9
X354.39Y69.42
X354.39Y10.3
X354.44Y102.02
X354.44Y42.9
X354.59Y117.12
X354.59Y115.17
X354.59Y61.47
X354.59Y59.52
X354.59Y58.0
X354.59Y56.05
X354.59Y2.35
X354.59Y0.4
X354.64Y103.52
X354.64Y102.52
X354.64Y101.52
X354.64Y100.52
X354.64Y99.52
X354.64Y98.52
X354.64Y97.52
X354.64Y95.52
X354.64Y94.52
X354.64Y93.52
X354.64Y44.4
X354.64Y43.4
X354.64Y42.4
X354.64Y41.4
X354.64Y40.4
X354.64Y39.4
X354.64Y38.4
X354.64Y36.4
X354.64Y35.4
X354.64Y34.4
X355.04Y69.32
X355.04Y10.2
X355.64Y87.42
X355.64Y28.3
X356.04Y69.62
X356.04Y10.5
X356.59Y87.87
X356.59Y28.75
X356.89Y107.82
X356.89Y48.7
X357.14Y117.12
X357.14Y115.17
X357.14Y61.47
X357.14Y59.52
X357.14Y58.0
X357.14Y56.05
X357.14Y2.35
X357.14Y0.4
X357.19Y88.12
X357.19Y29.0
X357.24Y107.47
X357.24Y48.35
X357.89Y107.47
X357.89Y48.35
X358.44Y107.97
X358.44Y48.85
X359.64Y103.02
X359.64Y102.02
X359.64Y101.02
X359.64Y100.52
X359.64Y100.02
X359.64Y99.02
X359.64Y98.02
X359.64Y95.72
X359.64Y95.02
X359.64Y94.02
X359.64Y93.02
X359.64Y43.9
X359.64Y42.9
X359.64Y41.9
X359.64Y41.4
X359.64Y40.9
X359.64Y39.9
X359.64Y38.9
X359.64Y36.6
X359.64Y35.9
X359.64Y34.9
X359.64Y33.9
X359.69Y117.12
X359.69Y115.17
X359.69Y61.47
X359.69Y59.52
X359.69Y58.0
X359.69Y56.05
X359.69Y2.35
X359.69Y0.4
X360.14Y87.42
X360.14Y28.3
X360.24Y72.22
X360.24Y13.1
X362.19Y61.47
X362.19Y59.52
X362.19Y2.35
X362.19Y0.4
T3
X18.806Y116.26
X18.806Y57.14
X20.33Y70.12
X20.33Y11.0
X21.346Y116.26
X21.346Y57.14
X22.87Y70.12
X22.87Y11.0
X23.886Y116.26
X23.886Y57.14
X26.426Y116.26
X26.426Y57.14
X27.95Y60.38
X27.95Y1.26
X28.966Y116.26
X28.966Y57.14
X30.49Y60.38
X30.49Y1.26
X31.506Y116.26
X31.506Y57.14
X33.03Y60.38
X33.03Y1.26
X34.046Y116.26
X34.046Y57.14
X35.57Y60.38
X35.57Y1.26
X36.586Y116.26
X36.586Y57.14
X38.11Y60.38
X38.11Y1.26
X39.126Y116.26
X39.126Y57.14
X40.65Y60.38
X40.65Y1.26
X41.5Y80.39
X41.5Y77.85
X41.5Y21.27
X41.5Y18.73
X41.666Y116.26
X41.666Y57.14
X43.19Y60.38
X43.19Y1.26
X45.73Y116.26
X45.73Y60.38
X45.73Y57.14
X45.73Y1.26
X48.27Y116.26
X48.27Y57.14
X50.0Y103.2
X50.0Y100.66
X50.0Y98.12
X50.0Y44.08
X50.0Y41.54
X50.0Y39.0
X50.81Y116.26
X50.81Y60.38
X50.81Y57.14
X50.81Y1.26
X53.35Y116.26
X53.35Y60.38
X53.35Y57.14
X53.35Y1.26
X55.89Y116.26
X55.89Y60.38
X55.89Y57.14
X55.89Y1.26
X58.43Y116.26
X58.43Y60.38
X58.43Y57.14
X58.43Y1.26
X60.97Y116.26
X60.97Y60.38
X60.97Y57.14
X60.97Y1.26
X63.51Y116.26
X63.51Y60.38
X63.51Y57.14
X63.51Y1.26
X93.166Y116.26
X93.166Y57.14
X94.69Y70.12
X94.69Y11.0
X95.706Y116.26
X95.706Y57.14
X97.23Y70.12
X97.23Y11.0
X98.246Y116.26
X98.246Y57.14
X100.786Y116.26
X100.786Y57.14
X102.31Y60.38
X102.31Y1.26
X103.326Y116.26
X103.326Y57.14
X104.85Y60.38
X104.85Y1.26
X105.866Y116.26
X105.866Y57.14
X107.39Y60.38
X107.39Y1.26
X108.406Y116.26
X108.406Y57.14
X109.93Y60.38
X109.93Y1.26
X110.946Y116.26
X110.946Y57.14
X112.47Y60.38
X112.47Y1.26
X113.486Y116.26
X113.486Y57.14
X115.01Y60.38
X115.01Y1.26
X115.86Y80.39
X115.86Y77.85
X115.86Y21.27
X115.86Y18.73
X116.026Y116.26
X116.026Y57.14
X117.55Y60.38
X117.55Y1.26
X120.09Y116.26
X120.09Y60.38
X120.09Y57.14
X120.09Y1.26
X122.63Y116.26
X122.63Y57.14
X124.36Y103.2
X124.36Y100.66
X124.36Y98.12
X124.36Y44.08
X124.36Y41.54
X124.36Y39.0
X125.17Y116.26
X125.17Y60.38
X125.17Y57.14
X125.17Y1.26
X127.71Y116.26
X127.71Y60.38
X127.71Y57.14
X127.71Y1.26
X130.25Y116.26
X130.25Y60.38
X130.25Y57.14
X130.25Y1.26
X132.79Y116.26
X132.79Y60.38
X132.79Y57.14
X132.79Y1.26
X135.33Y116.26
X135.33Y60.38
X135.33Y57.14
X135.33Y1.26
X137.87Y116.26
X137.87Y60.38
X137.87Y57.14
X137.87Y1.26
X167.526Y116.26
X167.526Y57.14
X169.05Y70.12
X169.05Y11.0
X170.066Y116.26
X170.066Y57.14
X171.59Y70.12
X171.59Y11.0
X172.606Y116.26
X172.606Y57.14
X175.146Y116.26
X175.146Y57.14
X176.67Y60.38
X176.67Y1.26
X177.686Y116.26
X177.686Y57.14
X179.21Y60.38
X179.21Y1.26
X180.226Y116.26
X180.226Y57.14
X181.75Y60.38
X181.75Y1.26
X182.766Y116.26
X182.766Y57.14
X184.29Y60.38
X184.29Y1.26
X185.306Y116.26
X185.306Y57.14
X186.83Y60.38
X186.83Y1.26
X187.846Y116.26
X187.846Y57.14
X189.37Y60.38
X189.37Y1.26
X190.22Y80.39
X190.22Y77.85
X190.22Y21.27
X190.22Y18.73
X190.386Y116.26
X190.386Y57.14
X191.91Y60.38
X191.91Y1.26
X194.45Y116.26
X194.45Y60.38
X194.45Y57.14
X194.45Y1.26
X196.99Y116.26
X196.99Y57.14
X198.72Y103.2
X198.72Y100.66
X198.72Y98.12
X198.72Y44.08
X198.72Y41.54
X198.72Y39.0
X199.53Y116.26
X199.53Y60.38
X199.53Y57.14
X199.53Y1.26
X202.07Y116.26
X202.07Y60.38
X202.07Y57.14
X202.07Y1.26
X204.61Y116.26
X204.61Y60.38
X204.61Y57.14
X204.61Y1.26
X207.15Y116.26
X207.15Y60.38
X207.15Y57.14
X207.15Y1.26
X209.69Y116.26
X209.69Y60.38
X209.69Y57.14
X209.69Y1.26
X212.23Y116.26
X212.23Y60.38
X212.23Y57.14
X212.23Y1.26
X241.886Y116.26
X241.886Y57.14
X243.41Y70.12
X243.41Y11.0
X244.426Y116.26
X244.426Y57.14
X245.95Y70.12
X245.95Y11.0
X246.966Y116.26
X246.966Y57.14
X249.506Y116.26
X249.506Y57.14
X251.03Y60.38
X251.03Y1.26
X252.046Y116.26
X252.046Y57.14
X253.57Y60.38
X253.57Y1.26
X254.586Y116.26
X254.586Y57.14
X256.11Y60.38
X256.11Y1.26
X257.126Y116.26
X257.126Y57.14
X258.65Y60.38
X258.65Y1.26
X259.666Y116.26
X259.666Y57.14
X261.19Y60.38
X261.19Y1.26
X262.206Y116.26
X262.206Y57.14
X263.73Y60.38
X263.73Y1.26
X264.58Y80.39
X264.58Y77.85
X264.58Y21.27
X264.58Y18.73
X264.746Y116.26
X264.746Y57.14
X266.27Y60.38
X266.27Y1.26
X268.81Y116.26
X268.81Y60.38
X268.81Y57.14
X268.81Y1.26
X271.35Y116.26
X271.35Y57.14
X273.08Y103.2
X273.08Y100.66
X273.08Y98.12
X273.08Y44.08
X273.08Y41.54
X273.08Y39.0
X273.89Y116.26
X273.89Y60.38
X273.89Y57.14
X273.89Y1.26
X276.43Y116.26
X276.43Y60.38
X276.43Y57.14
X276.43Y1.26
X278.97Y116.26
X278.97Y60.38
X278.97Y57.14
X278.97Y1.26
X281.51Y116.26
X281.51Y60.38
X281.51Y57.14
X281.51Y1.26
X284.05Y116.26
X284.05Y60.38
X284.05Y57.14
X284.05Y1.26
X286.59Y116.26
X286.59Y60.38
X286.59Y57.14
X286.59Y1.26
X316.246Y116.26
X316.246Y57.14
X317.77Y70.12
X317.77Y11.0
X318.786Y116.26
X318.786Y57.14
X320.31Y70.12
X320.31Y11.0
X321.326Y116.26
X321.326Y57.14
X323.866Y116.26
X323.866Y57.14
X325.39Y60.38
X325.39Y1.26
X326.406Y116.26
X326.406Y57.14
X327.93Y60.38
X327.93Y1.26
X328.946Y116.26
X328.946Y57.14
X330.47Y60.38
X330.47Y1.26
X331.486Y116.26
X331.486Y57.14
X333.01Y60.38
X333.01Y1.26
X334.026Y116.26
X334.026Y57.14
X335.55Y60.38
X335.55Y1.26
X336.566Y116.26
X336.566Y57.14
X338.09Y60.38
X338.09Y1.26
X338.94Y80.39
X338.94Y77.85
X338.94Y21.27
X338.94Y18.73
X339.106Y116.26
X339.106Y57.14
X340.63Y60.38
X340.63Y1.26
X343.17Y116.26
X343.17Y60.38
X343.17Y57.14
X343.17Y1.26
X345.71Y116.26
X345.71Y57.14
X347.44Y103.2
X347.44Y100.66
X347.44Y98.12
X347.44Y44.08
X347.44Y41.54
X347.44Y39.0
X348.25Y116.26
X348.25Y60.38
X348.25Y57.14
X348.25Y1.26
X350.79Y116.26
X350.79Y60.38
X350.79Y57.14
X350.79Y1.26
X353.33Y116.26
X353.33Y60.38
X353.33Y57.14
X353.33Y1.26
X355.87Y116.26
X355.87Y60.38
X355.87Y57.14
X355.87Y1.26
X358.41Y116.26
X358.41Y60.38
X358.41Y57.14
X358.41Y1.26
X360.95Y116.26
X360.95Y60.38
X360.95Y57.14
X360.95Y1.26
T4
X4.961Y103.92
X4.961Y98.14
X4.961Y44.8
X4.961Y39.02
X79.321Y103.92
X79.321Y98.14
X79.321Y44.8
X79.321Y39.02
X153.681Y103.92
X153.681Y98.14
X153.681Y44.8
X153.681Y39.02
X228.041Y103.92
X228.041Y98.14
X228.041Y44.8
X228.041Y39.02
X302.401Y103.92
X302.401Y98.14
X302.401Y44.8
X302.401Y39.02
T5
X4.1Y91.502
X4.1Y83.502
X4.1Y32.382
X4.1Y24.382
X78.46Y91.502
X78.46Y83.502
X78.46Y32.382
X78.46Y24.382
X152.82Y91.502
X152.82Y83.502
X152.82Y32.382
X152.82Y24.382
X227.18Y91.502
X227.18Y83.502
X227.18Y32.382
X227.18Y24.382
X301.54Y91.502
X301.54Y83.502
X301.54Y32.382
X301.54Y24.382
T6
X1.905Y70.296
X1.905Y11.176
X6.477Y70.296
X6.477Y11.176
X76.265Y70.296
X76.265Y11.176
X80.837Y70.296
X80.837Y11.176
X150.625Y70.296
X150.625Y11.176
X155.197Y70.296
X155.197Y11.176
X224.985Y70.296
X224.985Y11.176
X229.557Y70.296
X229.557Y11.176
X299.345Y70.296
X299.345Y11.176
X303.917Y70.296
X303.917Y11.176
T7
X13.98Y64.19
X13.98Y5.07
X15.25Y112.46
X15.25Y53.34
X66.05Y97.21
X66.05Y69.27
X66.05Y38.09
X66.05Y10.15
X88.34Y64.19
X88.34Y5.07
X89.61Y112.46
X89.61Y53.34
X140.41Y97.21
X140.41Y69.27
X140.41Y38.09
X140.41Y10.15
X162.7Y64.19
X162.7Y5.07
X163.97Y112.46
X163.97Y53.34
X214.77Y97.21
X214.77Y69.27
X214.77Y38.09
X214.77Y10.15
X237.06Y64.19
X237.06Y5.07
X238.33Y112.46
X238.33Y53.34
X289.13Y97.21
X289.13Y69.27
X289.13Y38.09
X289.13Y10.15
X311.42Y64.19
X311.42Y5.07
X312.69Y112.46
X312.69Y53.34
X363.49Y97.21
X363.49Y69.27
X363.49Y38.09
X363.49Y10.15
T2
G00X1.611Y105.348
M15
G01X1.011Y105.348
M16
G05
G00X1.611Y96.712
M15
G01X1.011Y96.712
M16
G05
G00X1.611Y46.228
M15
G01X1.011Y46.228
M16
G05
G00X1.611Y37.592
M15
G01X1.011Y37.592
M16
G05
G00X6.041Y105.348
M15
G01X4.941Y105.348
M16
G05
G00X6.041Y96.712
M15
G01X4.941Y96.712
M16
G05
G00X6.041Y46.228
M15
G01X4.941Y46.228
M16
G05
G00X6.041Y37.592
M15
G01X4.941Y37.592
M16
G05
G00X75.971Y105.348
M15
G01X75.371Y105.348
M16
G05
G00X75.971Y96.712
M15
G01X75.371Y96.712
M16
G05
G00X75.971Y46.228
M15
G01X75.371Y46.228
M16
G05
G00X75.971Y37.592
M15
G01X75.371Y37.592
M16
G05
G00X80.401Y105.348
M15
G01X79.301Y105.348
M16
G05
G00X80.401Y96.712
M15
G01X79.301Y96.712
M16
G05
G00X80.401Y46.228
M15
G01X79.301Y46.228
M16
G05
G00X80.401Y37.592
M15
G01X79.301Y37.592
M16
G05
G00X150.331Y105.348
M15
G01X149.731Y105.348
M16
G05
G00X150.331Y96.712
M15
G01X149.731Y96.712
M16
G05
G00X150.331Y46.228
M15
G01X149.731Y46.228
M16
G05
G00X150.331Y37.592
M15
G01X149.731Y37.592
M16
G05
G00X154.761Y105.348
M15
G01X153.661Y105.348
M16
G05
G00X154.761Y96.712
M15
G01X153.661Y96.712
M16
G05
G00X154.761Y46.228
M15
G01X153.661Y46.228
M16
G05
G00X154.761Y37.592
M15
G01X153.661Y37.592
M16
G05
G00X224.691Y105.348
M15
G01X224.091Y105.348
M16
G05
G00X224.691Y96.712
M15
G01X224.091Y96.712
M16
G05
G00X224.691Y46.228
M15
G01X224.091Y46.228
M16
G05
G00X224.691Y37.592
M15
G01X224.091Y37.592
M16
G05
G00X229.121Y105.348
M15
G01X228.021Y105.348
M16
G05
G00X229.121Y96.712
M15
G01X228.021Y96.712
M16
G05
G00X229.121Y46.228
M15
G01X228.021Y46.228
M16
G05
G00X229.121Y37.592
M15
G01X228.021Y37.592
M16
G05
G00X299.051Y105.348
M15
G01X298.451Y105.348
M16
G05
G00X299.051Y96.712
M15
G01X298.451Y96.712
M16
G05
G00X299.051Y46.228
M15
G01X298.451Y46.228
M16
G05
G00X299.051Y37.592
M15
G01X298.451Y37.592
M16
G05
G00X303.481Y105.348
M15
G01X302.381Y105.348
M16
G05
G00X303.481Y96.712
M15
G01X302.381Y96.712
M16
G05
G00X303.481Y46.228
M15
G01X302.381Y46.228
M16
G05
G00X303.481Y37.592
M15
G01X302.381Y37.592
M16
G05
M30
