*
*
G04 PADS 9.5 Build Number: 522968 generated Gerber (RS-274-X) file*
G04 PC Version=2.1*
*
%IN "RADXA_VER2-140610-ok-la"*%
*
%MOMM*%
*
%FSLAX35Y35*%
*
*
*
*
G04 PC Standard Apertures*
*
*
G04 Thermal Relief Aperture macro.*
%AMTER*
1,1,$1,0,0*
1,0,$1-$2,0,0*
21,0,$3,$4,0,0,45*
21,0,$3,$4,0,0,135*
%
*
*
G04 Annular Aperture macro.*
%AMANN*
1,1,$1,0,0*
1,0,$2,0,0*
%
*
*
G04 Odd Aperture macro.*
%AMODD*
1,1,$1,0,0*
1,0,$1-0.005,0,0*
%
*
*
G04 PC Custom Aperture Macros*
*
*
*
*
*
*
G04 PC Aperture Table*
*
%ADD010C,0.0254*%
%ADD011R,1.5X4*%
%ADD014R,3.0988X4.064*%
%ADD020R,0.51X0.51*%
%ADD021R,1.1X3*%
%ADD022R,0.762X0.762*%
%ADD023R,1.016X1.016*%
%ADD026R,0.91X1.22*%
%ADD027R,1.22X0.91*%
%ADD029R,1.8X1.6*%
%ADD030R,1.016X1.27*%
%ADD031R,1.27X1.016*%
%ADD032R,0.7X0.8999*%
%ADD033R,0.8999X0.7*%
%ADD042R,1.4X1*%
%ADD043R,1.1999X1.1999*%
%ADD047R,0.4X0.9*%
%ADD053R,1.8001X1.5001*%
%ADD054R,2X1.8001*%
%ADD055R,0.48X0.6*%
%ADD056R,0.34X0.6*%
%ADD057R,2.1X1.6*%
%ADD058R,0.4X1.35*%
%ADD059R,1.25X1.9*%
%ADD060O,1.2X1.8*%
%ADD062R,0.7X3*%
%ADD063R,2.24X4.3*%
%ADD064R,0.76X1.92405*%
%ADD065R,0.7X1.5*%
%ADD066R,1.5001X1.1999*%
%ADD067R,1.5X2.5*%
%ADD068R,2X1.5999*%
%ADD069R,0.69X0.28*%
%ADD070R,1.1X1.1*%
%ADD071R,2.261X0.432*%
%ADD072C,0.3*%
%ADD075R,0.25X1.83*%
%ADD076R,1.1X0.26*%
%ADD077R,0.26X1.1*%
%ADD078R,4.4X4.4*%
%ADD079R,0.25X1.4*%
%ADD080R,1.4X0.25*%
%ADD081C,0.4*%
%ADD082R,0.3X2.6*%
%ADD083O,1.5X3.6*%
%ADD084O,1.5X2.5*%
%ADD085R,1.15X1.45*%
%ADD086C,0.38*%
%ADD087C,0.9906*%
%ADD088R,4.1X0.9*%
%ADD089R,0.9X4.1*%
%ADD092C,0.762*%
%ADD103C,0.508*%
%ADD104C,0.1524*%
%ADD149R,4X1.5*%
%ADD150R,1.6X2*%
%ADD151R,1.4X1.2*%
%ADD152R,0.5001X0.8999*%
%ADD155R,2.4X1.7*%
%ADD156R,0.7X0.6*%
*
*
*
*
G04 PC Copper Outlines (0)*
G04 Layer Name RADXA_VER2-140610-ok-la - dark (0)*
%LPD*%
*
*
G04 PC Area=_PSI_PAC_HOLE-3.5MM_000_0005036_*
G75*
G36*
G01*
X69705219Y61020995D02*
G03*
X69705219I-0J320000D01*
G37*
G74*
*
*
G04 PC Copper Outlines (1)*
G04 Layer Name RADXA_VER2-140610-ok-la - dark (1)*
%LPD*%
*
*
G04 PC Area=_PSI_PAC_HOLE-3.5MM_000_0005036_*
G75*
G36*
G01*
X69705220Y68387005D02*
G03*
X69705220I0J320000D01*
G37*
G74*
*
*
G04 PC Copper Outlines (2)*
G04 Layer Name RADXA_VER2-140610-ok-la - dark (2)*
%LPD*%
*
*
G04 PC Area=_PSI_PAC_HOLE-3.5MM_000_0005036_*
G75*
G36*
G01*
X60342780Y68381925D02*
G03*
X60342780I0J320000D01*
G37*
G74*
*
*
G04 PC Copper Outlines (3)*
G04 Layer Name RADXA_VER2-140610-ok-la - dark (3)*
%LPD*%
*
*
G04 PC Area=_PSI_PAC_HOLE-3.5MM_000_0005036_*
G75*
G36*
G01*
X60342780Y61021005D02*
G03*
X60342780I0J320000D01*
G37*
G74*
*
*
G04 PC Copper Outlines (4)*
G04 Layer Name RADXA_VER2-140610-ok-la - dark (4)*
%LPD*%
*
*
G04 PC Area=_PSI_PAC_LED0603_000_0005145_*
G75*
G36*
G01*
X68845200Y61076505D02*
X68941720D01*
Y61167945D01*
X68845200D01*
Y61076505D01*
G37*
G74*
*
*
G04 PC Copper Outlines (5)*
G04 Layer Name RADXA_VER2-140610-ok-la - dark (5)*
%LPD*%
*
*
G04 PC Area=_PSI_PAC_LED0603_001_0005146_*
G75*
G36*
G01*
X68992520Y61076505D02*
X69089040D01*
Y61167945D01*
X68992520D01*
Y61076505D01*
G37*
G74*
*
*
G04 PC Copper Outlines (6)*
G04 Layer Name RADXA_VER2-140610-ok-la - dark (6)*
%LPD*%
*
*
G04 PC Area=_PSI_PAC_LED0603_000_0005145_*
G75*
G36*
G01*
X68362600Y61076505D02*
X68459120D01*
Y61167945D01*
X68362600D01*
Y61076505D01*
G37*
G74*
*
*
G04 PC Copper Outlines (7)*
G04 Layer Name RADXA_VER2-140610-ok-la - dark (7)*
%LPD*%
*
*
G04 PC Area=_PSI_PAC_LED0603_001_0005146_*
G75*
G36*
G01*
X68509920Y61076505D02*
X68606440D01*
Y61167945D01*
X68509920D01*
Y61076505D01*
G37*
G74*
*
*
G04 PC Copper Outlines (8)*
G04 Layer Name RADXA_VER2-140610-ok-la - dark (8)*
%LPD*%
*
*
G04 PC Area=_PSI_PAC_LED0603_000_0005145_*
G75*
G36*
G01*
X67867300Y61076505D02*
X67963820D01*
Y61167945D01*
X67867300D01*
Y61076505D01*
G37*
G74*
*
*
G04 PC Copper Outlines (9)*
G04 Layer Name RADXA_VER2-140610-ok-la - dark (9)*
%LPD*%
*
*
G04 PC Area=_PSI_PAC_LED0603_001_0005146_*
G75*
G36*
G01*
X68014620Y61076505D02*
X68111140D01*
Y61167945D01*
X68014620D01*
Y61076505D01*
G37*
G74*
*
*
G04 PC Copper Outlines (10)*
G04 Layer Name RADXA_VER2-140610-ok-la - dark (10)*
%LPD*%
*
*
G04 PC Area=_PSI_PAC_LED0603_000_0005145_N162000000*
G75*
G36*
G01*
X61530000Y68927645D02*
Y68831125D01*
X61621440D01*
Y68927645D01*
X61530000D01*
G37*
G74*
*
*
G04 PC Copper Outlines (11)*
G04 Layer Name RADXA_VER2-140610-ok-la - dark (11)*
%LPD*%
*
*
G04 PC Area=_PSI_PAC_LED0603_001_0005146_N162000000*
G75*
G36*
G01*
X61530000Y68780325D02*
Y68683805D01*
X61621440D01*
Y68780325D01*
X61530000D01*
G37*
G74*
*
*
G04 PC Copper Outlines (12)*
G04 Layer Name RADXA_VER2-140610-ok-la - dark (12)*
%LPD*%
*
*
G04 PC Area=_PSI_PAC_LED0603_000_0005145_N162000000*
G75*
G36*
G01*
X63714400Y68965745D02*
Y68869225D01*
X63805840D01*
Y68965745D01*
X63714400D01*
G37*
G74*
*
*
G04 PC Copper Outlines (13)*
G04 Layer Name RADXA_VER2-140610-ok-la - dark (13)*
%LPD*%
*
*
G04 PC Area=_PSI_PAC_LED0603_001_0005146_N162000000*
G75*
G36*
G01*
X63714400Y68818425D02*
Y68721905D01*
X63805840D01*
Y68818425D01*
X63714400D01*
G37*
G74*
*
*
G04 PC Copper Outlines (14)*
G04 Layer Name RADXA_VER2-140610-ok-la - dark (14)*
%LPD*%
*
*
G04 PC Area=_PSI_PAC_SOT-25_000_0005440_*
G75*
G36*
G01*
X62117223Y64801796D02*
Y64691814D01*
X62177217D01*
Y64801796D01*
X62117223D01*
G37*
G74*
*
*
G04 PC Copper Outlines (15)*
G04 Layer Name RADXA_VER2-140610-ok-la - dark (15)*
%LPD*%
*
*
G04 PC Area=_PSI_PAC_SOT-25_001_0005441_*
G75*
G36*
G01*
X62212219Y64801796D02*
Y64691814D01*
X62272213D01*
Y64801796D01*
X62212219D01*
G37*
G74*
*
*
G04 PC Copper Outlines (16)*
G04 Layer Name RADXA_VER2-140610-ok-la - dark (16)*
%LPD*%
*
*
G04 PC Area=_PSI_PAC_SOT-25_002_0005442_*
G75*
G36*
G01*
X62307215Y64801796D02*
Y64691814D01*
X62367209D01*
Y64801796D01*
X62307215D01*
G37*
G74*
*
*
G04 PC Copper Outlines (17)*
G04 Layer Name RADXA_VER2-140610-ok-la - dark (17)*
%LPD*%
*
*
G04 PC Area=_PSI_PAC_SOT-25_003_0005443_*
G75*
G36*
G01*
X62307215Y65071798D02*
Y64961816D01*
X62367209D01*
Y65071798D01*
X62307215D01*
G37*
G74*
*
*
G04 PC Copper Outlines (18)*
G04 Layer Name RADXA_VER2-140610-ok-la - dark (18)*
%LPD*%
*
*
G04 PC Area=_PSI_PAC_SOT-25_004_0005444_*
G75*
G36*
G01*
X62117223Y65071798D02*
Y64961816D01*
X62177217D01*
Y65071798D01*
X62117223D01*
G37*
G74*
*
*
G04 PC Circuitry*
G04 Layer Name RADXA_VER2-140610-ok-la - circuitry*
%LPD*%
*
*
G04 PC Custom Flashes*
G04 Layer Name RADXA_VER2-140610-ok-la - flashes*
%LPD*%
*
*
G04 PC Circuitry*
G04 Layer Name RADXA_VER2-140610-ok-la - circuitry*
%LPD*%
*
G54D10*
G01X61413636Y62537330D02*
X61471097Y62537320D01*
X61471104Y62574780*
X61413643Y62574790*
X61413636Y62537330*
X61471097Y62537320D02*
X61471097D01*
X61413637Y62539860D02*
X61471098D01*
X61413637Y62542400D02*
X61471098D01*
X61413638Y62544940D02*
X61471099D01*
X61413638Y62547480D02*
X61471099D01*
X61413638Y62550020D02*
X61471099D01*
X61413639Y62552560D02*
X61471100D01*
X61413639Y62555100D02*
X61471100D01*
X61413640Y62557640D02*
X61471101D01*
X61413640Y62560180D02*
X61471101D01*
X61413641Y62562720D02*
X61471102D01*
X61413641Y62565260D02*
X61471102D01*
X61413642Y62567800D02*
X61471103D01*
X61413642Y62570340D02*
X61471103D01*
X61413642Y62572880D02*
X61471103D01*
X61413636Y62537330D02*
X61413636D01*
X61416176Y62537329D02*
Y62574790D01*
X61418716Y62537329D02*
Y62574789D01*
X61421256Y62537328D02*
Y62574789D01*
X61423796Y62537328D02*
Y62574788D01*
X61426336Y62537327D02*
Y62574788D01*
X61428876Y62537327D02*
Y62574788D01*
X61431416Y62537327D02*
Y62574787D01*
X61433956Y62537326D02*
Y62574787D01*
X61436496Y62537326D02*
Y62574786D01*
X61439036Y62537325D02*
Y62574786D01*
X61441576Y62537325D02*
Y62574785D01*
X61444116Y62537324D02*
Y62574785D01*
X61446656Y62537324D02*
Y62574784D01*
X61449196Y62537323D02*
Y62574784D01*
X61451736Y62537323D02*
Y62574784D01*
X61454276Y62537323D02*
Y62574783D01*
X61456816Y62537322D02*
Y62574783D01*
X61459356Y62537322D02*
Y62574782D01*
X61461896Y62537321D02*
Y62574782D01*
X61464436Y62537321D02*
Y62574781D01*
X61466976Y62537320D02*
Y62574781D01*
X61469516Y62537320D02*
Y62574780D01*
X61513537Y62537483D02*
X61570997Y62537167D01*
X61571203Y62574627*
X61513743Y62574943*
X61513537Y62537483*
X61570997Y62537167D02*
X61570997D01*
X61513549Y62539707D02*
X61571011D01*
X61513563Y62542247D02*
X61571025D01*
X61513577Y62544787D02*
X61571039D01*
X61513591Y62547327D02*
X61571053D01*
X61513605Y62549867D02*
X61571067D01*
X61513619Y62552407D02*
X61571081D01*
X61513633Y62554947D02*
X61571095D01*
X61513647Y62557487D02*
X61571109D01*
X61513661Y62560027D02*
X61571123D01*
X61513675Y62562567D02*
X61571137D01*
X61513689Y62565107D02*
X61571150D01*
X61513703Y62567647D02*
X61571164D01*
X61513717Y62570187D02*
X61571178D01*
X61513731Y62572727D02*
X61571192D01*
X61513537Y62537483D02*
X61513537D01*
X61516077Y62537469D02*
Y62574930D01*
X61518617Y62537455D02*
Y62574916D01*
X61521157Y62537441D02*
Y62574902D01*
X61523697Y62537427D02*
Y62574888D01*
X61526237Y62537413D02*
Y62574874D01*
X61528777Y62537399D02*
Y62574860D01*
X61531317Y62537385D02*
Y62574846D01*
X61533857Y62537371D02*
Y62574832D01*
X61536397Y62537357D02*
Y62574818D01*
X61538937Y62537343D02*
Y62574804D01*
X61541477Y62537329D02*
Y62574790D01*
X61544017Y62537315D02*
Y62574776D01*
X61546557Y62537301D02*
Y62574762D01*
X61549097Y62537287D02*
Y62574749D01*
X61551637Y62537273D02*
Y62574735D01*
X61554177Y62537259D02*
Y62574721D01*
X61556717Y62537245D02*
Y62574707D01*
X61559257Y62537231D02*
Y62574693D01*
X61561797Y62537217D02*
Y62574679D01*
X61564337Y62537204D02*
Y62574665D01*
X61566877Y62537190D02*
Y62574651D01*
X61569417Y62537176D02*
Y62574637D01*
X67322375Y61674221D02*
X67322385Y61731682D01*
X67284925Y61731689*
X67284915Y61674228*
X67322375Y61674221*
X67322375*
X67284915Y61676761D02*
X67322376D01*
X67284916Y61679301D02*
X67322376D01*
X67284916Y61681841D02*
X67322377D01*
X67284916Y61684381D02*
X67322377D01*
X67284917Y61686921D02*
X67322378D01*
X67284917Y61689461D02*
X67322378D01*
X67284918Y61692001D02*
X67322378D01*
X67284918Y61694541D02*
X67322379D01*
X67284919Y61697081D02*
X67322379D01*
X67284919Y61699621D02*
X67322380D01*
X67284920Y61702161D02*
X67322380D01*
X67284920Y61704701D02*
X67322381D01*
X67284920Y61707241D02*
X67322381D01*
X67284921Y61709781D02*
X67322382D01*
X67284921Y61712321D02*
X67322382D01*
X67284922Y61714861D02*
X67322382D01*
X67284922Y61717401D02*
X67322383D01*
X67284923Y61719941D02*
X67322383D01*
X67284923Y61722481D02*
X67322384D01*
X67284924Y61725021D02*
X67322384D01*
X67284924Y61727561D02*
X67322385D01*
X67284924Y61730101D02*
X67322385D01*
X67285640Y61674228D02*
Y61731689D01*
X67288180Y61674227D02*
Y61731688D01*
X67290720Y61674227D02*
Y61731688D01*
X67293260Y61674226D02*
Y61731687D01*
X67295800Y61674226D02*
Y61731687D01*
X67298340Y61674225D02*
Y61731686D01*
X67300880Y61674225D02*
Y61731686D01*
X67303420Y61674224D02*
Y61731685D01*
X67305960Y61674224D02*
Y61731685D01*
X67308500Y61674224D02*
Y61731685D01*
X67311040Y61674223D02*
Y61731684D01*
X67313580Y61674223D02*
Y61731684D01*
X67316120Y61674222D02*
Y61731683D01*
X67318660Y61674222D02*
Y61731683D01*
X67321200Y61674221D02*
Y61731682D01*
X67322222Y61774122D02*
X67322538Y61831582D01*
X67285078Y61831788*
X67284762Y61774328*
X67322222Y61774122*
X67322222*
X67284775Y61776662D02*
X67322236D01*
X67284789Y61779202D02*
X67322250D01*
X67284803Y61781742D02*
X67322264D01*
X67284817Y61784282D02*
X67322278D01*
X67284831Y61786822D02*
X67322292D01*
X67284845Y61789362D02*
X67322306D01*
X67284859Y61791902D02*
X67322320D01*
X67284873Y61794442D02*
X67322334D01*
X67284887Y61796982D02*
X67322348D01*
X67284901Y61799522D02*
X67322362D01*
X67284915Y61802062D02*
X67322376D01*
X67284928Y61804602D02*
X67322390D01*
X67284942Y61807142D02*
X67322404D01*
X67284956Y61809682D02*
X67322418D01*
X67284970Y61812222D02*
X67322432D01*
X67284984Y61814762D02*
X67322446D01*
X67284998Y61817302D02*
X67322460D01*
X67285012Y61819842D02*
X67322473D01*
X67285026Y61822382D02*
X67322487D01*
X67285040Y61824922D02*
X67322501D01*
X67285054Y61827462D02*
X67322515D01*
X67285068Y61830002D02*
X67322529D01*
X67285640Y61774323D02*
Y61831785D01*
X67288180Y61774309D02*
Y61831771D01*
X67290720Y61774295D02*
Y61831757D01*
X67293260Y61774281D02*
Y61831743D01*
X67295800Y61774267D02*
Y61831729D01*
X67298340Y61774253D02*
Y61831715D01*
X67300880Y61774239D02*
Y61831701D01*
X67303420Y61774225D02*
Y61831687D01*
X67305960Y61774211D02*
Y61831673D01*
X67308500Y61774197D02*
Y61831659D01*
X67311040Y61774183D02*
Y61831645D01*
X67313580Y61774169D02*
Y61831631D01*
X67316120Y61774155D02*
Y61831617D01*
X67318660Y61774141D02*
Y61831603D01*
X67321200Y61774127D02*
Y61831589D01*
X61306004Y62577320D02*
X61248543Y62577330D01*
X61248536Y62539870*
X61305997Y62539860*
X61306004Y62577320*
X61305997Y62539860D02*
X61305997D01*
X61248537Y62542400D02*
X61305998D01*
X61248537Y62544940D02*
X61305998D01*
X61248538Y62547480D02*
X61305999D01*
X61248538Y62550020D02*
X61305999D01*
X61248538Y62552560D02*
X61305999D01*
X61248539Y62555100D02*
X61306000D01*
X61248539Y62557640D02*
X61306000D01*
X61248540Y62560180D02*
X61306001D01*
X61248540Y62562720D02*
X61306001D01*
X61248541Y62565260D02*
X61306002D01*
X61248541Y62567800D02*
X61306002D01*
X61248542Y62570340D02*
X61306003D01*
X61248542Y62572880D02*
X61306003D01*
X61248542Y62575420D02*
X61306003D01*
X61248536Y62539870D02*
X61248536D01*
X61251076Y62539869D02*
Y62577330D01*
X61253616Y62539869D02*
Y62577329D01*
X61256156Y62539868D02*
Y62577329D01*
X61258696Y62539868D02*
Y62577328D01*
X61261236Y62539867D02*
Y62577328D01*
X61263776Y62539867D02*
Y62577328D01*
X61266316Y62539867D02*
Y62577327D01*
X61268856Y62539866D02*
Y62577327D01*
X61271396Y62539866D02*
Y62577326D01*
X61273936Y62539865D02*
Y62577326D01*
X61276476Y62539865D02*
Y62577325D01*
X61279016Y62539864D02*
Y62577325D01*
X61281556Y62539864D02*
Y62577324D01*
X61284096Y62539863D02*
Y62577324D01*
X61286636Y62539863D02*
Y62577324D01*
X61289176Y62539863D02*
Y62577323D01*
X61291716Y62539862D02*
Y62577323D01*
X61294256Y62539862D02*
Y62577322D01*
X61296796Y62539861D02*
Y62577322D01*
X61299336Y62539861D02*
Y62577321D01*
X61301876Y62539860D02*
Y62577321D01*
X61304416Y62539860D02*
Y62577320D01*
X61206103Y62577167D02*
X61148643Y62577483D01*
X61148437Y62540023*
X61205897Y62539707*
X61206103Y62577167*
X61205897Y62539707D02*
X61205897D01*
X61148449Y62542247D02*
X61205911D01*
X61148463Y62544787D02*
X61205925D01*
X61148477Y62547327D02*
X61205939D01*
X61148491Y62549867D02*
X61205953D01*
X61148505Y62552407D02*
X61205967D01*
X61148519Y62554947D02*
X61205981D01*
X61148533Y62557487D02*
X61205995D01*
X61148547Y62560027D02*
X61206009D01*
X61148561Y62562567D02*
X61206023D01*
X61148575Y62565107D02*
X61206037D01*
X61148589Y62567647D02*
X61206051D01*
X61148603Y62570187D02*
X61206065D01*
X61148617Y62572727D02*
X61206079D01*
X61148631Y62575267D02*
X61206093D01*
X61148437Y62540023D02*
X61148437D01*
X61150977Y62540009D02*
Y62577470D01*
X61153517Y62539995D02*
Y62577456D01*
X61156057Y62539981D02*
Y62577442D01*
X61158597Y62539967D02*
Y62577428D01*
X61161137Y62539953D02*
Y62577414D01*
X61163677Y62539939D02*
Y62577400D01*
X61166217Y62539925D02*
Y62577386D01*
X61168757Y62539911D02*
Y62577372D01*
X61171297Y62539897D02*
Y62577358D01*
X61173837Y62539883D02*
Y62577344D01*
X61176377Y62539869D02*
Y62577330D01*
X61178917Y62539855D02*
Y62577316D01*
X61181457Y62539841D02*
Y62577302D01*
X61183997Y62539827D02*
Y62577289D01*
X61186537Y62539813D02*
Y62577275D01*
X61189077Y62539799D02*
Y62577261D01*
X61191617Y62539785D02*
Y62577247D01*
X61194157Y62539771D02*
Y62577233D01*
X61196697Y62539757D02*
Y62577219D01*
X61199237Y62539744D02*
Y62577205D01*
X61201777Y62539730D02*
Y62577191D01*
X61204317Y62539716D02*
Y62577177D01*
X67465655Y61671341D02*
X67465665Y61728802D01*
X67428205Y61728809*
X67428195Y61671348*
X67465655Y61671341*
X67465655*
X67428195Y61673881D02*
X67465656D01*
X67428196Y61676421D02*
X67465656D01*
X67428196Y61678961D02*
X67465657D01*
X67428196Y61681501D02*
X67465657D01*
X67428197Y61684041D02*
X67465658D01*
X67428197Y61686581D02*
X67465658D01*
X67428198Y61689121D02*
X67465658D01*
X67428198Y61691661D02*
X67465659D01*
X67428199Y61694201D02*
X67465659D01*
X67428199Y61696741D02*
X67465660D01*
X67428200Y61699281D02*
X67465660D01*
X67428200Y61701821D02*
X67465661D01*
X67428200Y61704361D02*
X67465661D01*
X67428201Y61706901D02*
X67465662D01*
X67428201Y61709441D02*
X67465662D01*
X67428202Y61711981D02*
X67465662D01*
X67428202Y61714521D02*
X67465663D01*
X67428203Y61717061D02*
X67465663D01*
X67428203Y61719601D02*
X67465664D01*
X67428204Y61722141D02*
X67465664D01*
X67428204Y61724681D02*
X67465665D01*
X67428204Y61727221D02*
X67465665D01*
X67430420Y61671347D02*
Y61728808D01*
X67432960Y61671347D02*
Y61728808D01*
X67435500Y61671346D02*
Y61728807D01*
X67438040Y61671346D02*
Y61728807D01*
X67440580Y61671346D02*
Y61728807D01*
X67443120Y61671345D02*
Y61728806D01*
X67445660Y61671345D02*
Y61728806D01*
X67448200Y61671344D02*
Y61728805D01*
X67450740Y61671344D02*
Y61728805D01*
X67453280Y61671343D02*
Y61728804D01*
X67455820Y61671343D02*
Y61728804D01*
X67458360Y61671342D02*
Y61728803D01*
X67460900Y61671342D02*
Y61728803D01*
X67463440Y61671341D02*
Y61728802D01*
X67465502Y61771242D02*
X67465818Y61828702D01*
X67428358Y61828908*
X67428042Y61771448*
X67465502Y61771242*
X67465502*
X67428055Y61773782D02*
X67465516D01*
X67428069Y61776322D02*
X67465530D01*
X67428083Y61778862D02*
X67465544D01*
X67428097Y61781402D02*
X67465558D01*
X67428111Y61783942D02*
X67465572D01*
X67428125Y61786482D02*
X67465586D01*
X67428139Y61789022D02*
X67465600D01*
X67428153Y61791562D02*
X67465614D01*
X67428167Y61794102D02*
X67465628D01*
X67428181Y61796642D02*
X67465642D01*
X67428195Y61799182D02*
X67465656D01*
X67428208Y61801722D02*
X67465670D01*
X67428222Y61804262D02*
X67465684D01*
X67428236Y61806802D02*
X67465698D01*
X67428250Y61809342D02*
X67465712D01*
X67428264Y61811882D02*
X67465726D01*
X67428278Y61814422D02*
X67465740D01*
X67428292Y61816962D02*
X67465753D01*
X67428306Y61819502D02*
X67465767D01*
X67428320Y61822042D02*
X67465781D01*
X67428334Y61824582D02*
X67465795D01*
X67428348Y61827122D02*
X67465809D01*
X67430420Y61771434D02*
Y61828896D01*
X67432960Y61771421D02*
Y61828882D01*
X67435500Y61771407D02*
Y61828868D01*
X67438040Y61771393D02*
Y61828854D01*
X67440580Y61771379D02*
Y61828840D01*
X67443120Y61771365D02*
Y61828827D01*
X67445660Y61771351D02*
Y61828813D01*
X67448200Y61771337D02*
Y61828799D01*
X67450740Y61771323D02*
Y61828785D01*
X67453280Y61771309D02*
Y61828771D01*
X67455820Y61771295D02*
Y61828757D01*
X67458360Y61771281D02*
Y61828743D01*
X67460900Y61771267D02*
Y61828729D01*
X67463440Y61771253D02*
Y61828715D01*
X63445636Y62542410D02*
X63503097Y62542400D01*
X63503104Y62579860*
X63445643Y62579870*
X63445636Y62542410*
X63503097Y62542400D02*
X63503097D01*
X63445637Y62544940D02*
X63503098D01*
X63445637Y62547480D02*
X63503098D01*
X63445638Y62550020D02*
X63503099D01*
X63445638Y62552560D02*
X63503099D01*
X63445638Y62555100D02*
X63503099D01*
X63445639Y62557640D02*
X63503100D01*
X63445639Y62560180D02*
X63503100D01*
X63445640Y62562720D02*
X63503101D01*
X63445640Y62565260D02*
X63503101D01*
X63445641Y62567800D02*
X63503102D01*
X63445641Y62570340D02*
X63503102D01*
X63445642Y62572880D02*
X63503103D01*
X63445642Y62575420D02*
X63503103D01*
X63445642Y62577960D02*
X63503103D01*
X63445636Y62542410D02*
X63445636D01*
X63448176Y62542409D02*
Y62579870D01*
X63450716Y62542409D02*
Y62579869D01*
X63453256Y62542408D02*
Y62579869D01*
X63455796Y62542408D02*
Y62579868D01*
X63458336Y62542407D02*
Y62579868D01*
X63460876Y62542407D02*
Y62579868D01*
X63463416Y62542407D02*
Y62579867D01*
X63465956Y62542406D02*
Y62579867D01*
X63468496Y62542406D02*
Y62579866D01*
X63471036Y62542405D02*
Y62579866D01*
X63473576Y62542405D02*
Y62579865D01*
X63476116Y62542404D02*
Y62579865D01*
X63478656Y62542404D02*
Y62579864D01*
X63481196Y62542403D02*
Y62579864D01*
X63483736Y62542403D02*
Y62579864D01*
X63486276Y62542403D02*
Y62579863D01*
X63488816Y62542402D02*
Y62579863D01*
X63491356Y62542402D02*
Y62579862D01*
X63493896Y62542401D02*
Y62579862D01*
X63496436Y62542401D02*
Y62579861D01*
X63498976Y62542400D02*
Y62579861D01*
X63501516Y62542400D02*
Y62579860D01*
X63545537Y62542563D02*
X63602997Y62542247D01*
X63603203Y62579707*
X63545743Y62580023*
X63545537Y62542563*
X63602997Y62542247D02*
X63602997D01*
X63545549Y62544787D02*
X63603011D01*
X63545563Y62547327D02*
X63603025D01*
X63545577Y62549867D02*
X63603039D01*
X63545591Y62552407D02*
X63603053D01*
X63545605Y62554947D02*
X63603067D01*
X63545619Y62557487D02*
X63603081D01*
X63545633Y62560027D02*
X63603095D01*
X63545647Y62562567D02*
X63603109D01*
X63545661Y62565107D02*
X63603123D01*
X63545675Y62567647D02*
X63603137D01*
X63545689Y62570187D02*
X63603150D01*
X63545703Y62572727D02*
X63603164D01*
X63545717Y62575267D02*
X63603178D01*
X63545731Y62577807D02*
X63603192D01*
X63545537Y62542563D02*
X63545537D01*
X63548077Y62542549D02*
Y62580010D01*
X63550617Y62542535D02*
Y62579996D01*
X63553157Y62542521D02*
Y62579982D01*
X63555697Y62542507D02*
Y62579968D01*
X63558237Y62542493D02*
Y62579954D01*
X63560777Y62542479D02*
Y62579940D01*
X63563317Y62542465D02*
Y62579926D01*
X63565857Y62542451D02*
Y62579912D01*
X63568397Y62542437D02*
Y62579898D01*
X63570937Y62542423D02*
Y62579884D01*
X63573477Y62542409D02*
Y62579870D01*
X63576017Y62542395D02*
Y62579856D01*
X63578557Y62542381D02*
Y62579842D01*
X63581097Y62542367D02*
Y62579829D01*
X63583637Y62542353D02*
Y62579815D01*
X63586177Y62542339D02*
Y62579801D01*
X63588717Y62542325D02*
Y62579787D01*
X63591257Y62542311D02*
Y62579773D01*
X63593797Y62542297D02*
Y62579759D01*
X63596337Y62542284D02*
Y62579745D01*
X63598877Y62542270D02*
Y62579731D01*
X63601417Y62542256D02*
Y62579717D01*
X63343084Y62577320D02*
X63285623Y62577330D01*
X63285616Y62539870*
X63343077Y62539860*
X63343084Y62577320*
X63343077Y62539860D02*
X63343077D01*
X63285617Y62542400D02*
X63343078D01*
X63285617Y62544940D02*
X63343078D01*
X63285618Y62547480D02*
X63343079D01*
X63285618Y62550020D02*
X63343079D01*
X63285618Y62552560D02*
X63343079D01*
X63285619Y62555100D02*
X63343080D01*
X63285619Y62557640D02*
X63343080D01*
X63285620Y62560180D02*
X63343081D01*
X63285620Y62562720D02*
X63343081D01*
X63285621Y62565260D02*
X63343082D01*
X63285621Y62567800D02*
X63343082D01*
X63285622Y62570340D02*
X63343083D01*
X63285622Y62572880D02*
X63343083D01*
X63285622Y62575420D02*
X63343083D01*
X63285616Y62539870D02*
X63285616D01*
X63288156Y62539869D02*
Y62577330D01*
X63290696Y62539869D02*
Y62577329D01*
X63293236Y62539868D02*
Y62577329D01*
X63295776Y62539868D02*
Y62577328D01*
X63298316Y62539867D02*
Y62577328D01*
X63300856Y62539867D02*
Y62577328D01*
X63303396Y62539867D02*
Y62577327D01*
X63305936Y62539866D02*
Y62577327D01*
X63308476Y62539866D02*
Y62577326D01*
X63311016Y62539865D02*
Y62577326D01*
X63313556Y62539865D02*
Y62577325D01*
X63316096Y62539864D02*
Y62577325D01*
X63318636Y62539864D02*
Y62577324D01*
X63321176Y62539863D02*
Y62577324D01*
X63323716Y62539863D02*
Y62577324D01*
X63326256Y62539863D02*
Y62577323D01*
X63328796Y62539862D02*
Y62577323D01*
X63331336Y62539862D02*
Y62577322D01*
X63333876Y62539861D02*
Y62577322D01*
X63336416Y62539861D02*
Y62577321D01*
X63338956Y62539860D02*
Y62577321D01*
X63341496Y62539860D02*
Y62577320D01*
X63243183Y62577167D02*
X63185723Y62577483D01*
X63185517Y62540023*
X63242977Y62539707*
X63243183Y62577167*
X63242977Y62539707D02*
X63242977D01*
X63185529Y62542247D02*
X63242991D01*
X63185543Y62544787D02*
X63243005D01*
X63185557Y62547327D02*
X63243019D01*
X63185571Y62549867D02*
X63243033D01*
X63185585Y62552407D02*
X63243047D01*
X63185599Y62554947D02*
X63243061D01*
X63185613Y62557487D02*
X63243075D01*
X63185627Y62560027D02*
X63243089D01*
X63185641Y62562567D02*
X63243103D01*
X63185655Y62565107D02*
X63243117D01*
X63185669Y62567647D02*
X63243131D01*
X63185683Y62570187D02*
X63243145D01*
X63185697Y62572727D02*
X63243159D01*
X63185711Y62575267D02*
X63243173D01*
X63185517Y62540023D02*
X63185517D01*
X63188057Y62540009D02*
Y62577470D01*
X63190597Y62539995D02*
Y62577456D01*
X63193137Y62539981D02*
Y62577442D01*
X63195677Y62539967D02*
Y62577428D01*
X63198217Y62539953D02*
Y62577414D01*
X63200757Y62539939D02*
Y62577400D01*
X63203297Y62539925D02*
Y62577386D01*
X63205837Y62539911D02*
Y62577372D01*
X63208377Y62539897D02*
Y62577358D01*
X63210917Y62539883D02*
Y62577344D01*
X63213457Y62539869D02*
Y62577330D01*
X63215997Y62539855D02*
Y62577316D01*
X63218537Y62539841D02*
Y62577302D01*
X63221077Y62539827D02*
Y62577289D01*
X63223617Y62539813D02*
Y62577275D01*
X63226157Y62539799D02*
Y62577261D01*
X63228697Y62539785D02*
Y62577247D01*
X63231237Y62539771D02*
Y62577233D01*
X63233777Y62539757D02*
Y62577219D01*
X63236317Y62539744D02*
Y62577205D01*
X63238857Y62539730D02*
Y62577191D01*
X63241397Y62539716D02*
Y62577177D01*
X61020484Y62575120D02*
X60963023Y62575130D01*
X60963016Y62537670*
X61020477Y62537660*
X61020484Y62575120*
X61020477Y62537660D02*
X61020477D01*
X60963017Y62540200D02*
X61020478D01*
X60963017Y62542740D02*
X61020478D01*
X60963018Y62545280D02*
X61020479D01*
X60963018Y62547820D02*
X61020479D01*
X60963018Y62550360D02*
X61020479D01*
X60963019Y62552900D02*
X61020480D01*
X60963019Y62555440D02*
X61020480D01*
X60963020Y62557980D02*
X61020481D01*
X60963020Y62560520D02*
X61020481D01*
X60963021Y62563060D02*
X61020482D01*
X60963021Y62565600D02*
X61020482D01*
X60963022Y62568140D02*
X61020483D01*
X60963022Y62570680D02*
X61020483D01*
X60963022Y62573220D02*
X61020483D01*
X60963016Y62537670D02*
X60963016D01*
X60965556Y62537669D02*
Y62575130D01*
X60968096Y62537669D02*
Y62575129D01*
X60970636Y62537668D02*
Y62575129D01*
X60973176Y62537668D02*
Y62575128D01*
X60975716Y62537667D02*
Y62575128D01*
X60978256Y62537667D02*
Y62575128D01*
X60980796Y62537667D02*
Y62575127D01*
X60983336Y62537666D02*
Y62575127D01*
X60985876Y62537666D02*
Y62575126D01*
X60988416Y62537665D02*
Y62575126D01*
X60990956Y62537665D02*
Y62575125D01*
X60993496Y62537664D02*
Y62575125D01*
X60996036Y62537664D02*
Y62575124D01*
X60998576Y62537663D02*
Y62575124D01*
X61001116Y62537663D02*
Y62575124D01*
X61003656Y62537663D02*
Y62575123D01*
X61006196Y62537662D02*
Y62575123D01*
X61008736Y62537662D02*
Y62575122D01*
X61011276Y62537661D02*
Y62575122D01*
X61013816Y62537661D02*
Y62575121D01*
X61016356Y62537660D02*
Y62575121D01*
X61018896Y62537660D02*
Y62575120D01*
X60920583Y62574967D02*
X60863123Y62575283D01*
X60862917Y62537823*
X60920377Y62537507*
X60920583Y62574967*
X60920377Y62537507D02*
X60920377D01*
X60862929Y62540047D02*
X60920391D01*
X60862943Y62542587D02*
X60920405D01*
X60862957Y62545127D02*
X60920419D01*
X60862971Y62547667D02*
X60920433D01*
X60862985Y62550207D02*
X60920447D01*
X60862999Y62552747D02*
X60920461D01*
X60863013Y62555287D02*
X60920475D01*
X60863027Y62557827D02*
X60920489D01*
X60863041Y62560367D02*
X60920503D01*
X60863055Y62562907D02*
X60920517D01*
X60863069Y62565447D02*
X60920531D01*
X60863083Y62567987D02*
X60920545D01*
X60863097Y62570527D02*
X60920559D01*
X60863111Y62573067D02*
X60920573D01*
X60862917Y62537823D02*
X60862917D01*
X60865457Y62537809D02*
Y62575270D01*
X60867997Y62537795D02*
Y62575256D01*
X60870537Y62537781D02*
Y62575242D01*
X60873077Y62537767D02*
Y62575228D01*
X60875617Y62537753D02*
Y62575214D01*
X60878157Y62537739D02*
Y62575200D01*
X60880697Y62537725D02*
Y62575186D01*
X60883237Y62537711D02*
Y62575172D01*
X60885777Y62537697D02*
Y62575158D01*
X60888317Y62537683D02*
Y62575144D01*
X60890857Y62537669D02*
Y62575130D01*
X60893397Y62537655D02*
Y62575116D01*
X60895937Y62537641D02*
Y62575102D01*
X60898477Y62537627D02*
Y62575089D01*
X60901017Y62537613D02*
Y62575075D01*
X60903557Y62537599D02*
Y62575061D01*
X60906097Y62537585D02*
Y62575047D01*
X60908637Y62537571D02*
Y62575033D01*
X60911177Y62537557D02*
Y62575019D01*
X60913717Y62537544D02*
Y62575005D01*
X60916257Y62537530D02*
Y62574991D01*
X60918797Y62537516D02*
Y62574977D01*
X67190295Y61674221D02*
X67190305Y61731682D01*
X67152845Y61731689*
X67152835Y61674228*
X67190295Y61674221*
X67190295*
X67152835Y61676761D02*
X67190296D01*
X67152836Y61679301D02*
X67190296D01*
X67152836Y61681841D02*
X67190297D01*
X67152836Y61684381D02*
X67190297D01*
X67152837Y61686921D02*
X67190298D01*
X67152837Y61689461D02*
X67190298D01*
X67152838Y61692001D02*
X67190298D01*
X67152838Y61694541D02*
X67190299D01*
X67152839Y61697081D02*
X67190299D01*
X67152839Y61699621D02*
X67190300D01*
X67152840Y61702161D02*
X67190300D01*
X67152840Y61704701D02*
X67190301D01*
X67152840Y61707241D02*
X67190301D01*
X67152841Y61709781D02*
X67190302D01*
X67152841Y61712321D02*
X67190302D01*
X67152842Y61714861D02*
X67190302D01*
X67152842Y61717401D02*
X67190303D01*
X67152843Y61719941D02*
X67190303D01*
X67152843Y61722481D02*
X67190304D01*
X67152844Y61725021D02*
X67190304D01*
X67152844Y61727561D02*
X67190305D01*
X67152844Y61730101D02*
X67190305D01*
X67153560Y61674228D02*
Y61731689D01*
X67156100Y61674227D02*
Y61731688D01*
X67158640Y61674227D02*
Y61731688D01*
X67161180Y61674226D02*
Y61731687D01*
X67163720Y61674226D02*
Y61731687D01*
X67166260Y61674225D02*
Y61731686D01*
X67168800Y61674225D02*
Y61731686D01*
X67171340Y61674224D02*
Y61731685D01*
X67173880Y61674224D02*
Y61731685D01*
X67176420Y61674224D02*
Y61731685D01*
X67178960Y61674223D02*
Y61731684D01*
X67181500Y61674223D02*
Y61731684D01*
X67184040Y61674222D02*
Y61731683D01*
X67186580Y61674222D02*
Y61731683D01*
X67189120Y61674221D02*
Y61731682D01*
X67190142Y61774122D02*
X67190458Y61831582D01*
X67152998Y61831788*
X67152682Y61774328*
X67190142Y61774122*
X67190142*
X67152695Y61776662D02*
X67190156D01*
X67152709Y61779202D02*
X67190170D01*
X67152723Y61781742D02*
X67190184D01*
X67152737Y61784282D02*
X67190198D01*
X67152751Y61786822D02*
X67190212D01*
X67152765Y61789362D02*
X67190226D01*
X67152779Y61791902D02*
X67190240D01*
X67152793Y61794442D02*
X67190254D01*
X67152807Y61796982D02*
X67190268D01*
X67152821Y61799522D02*
X67190282D01*
X67152835Y61802062D02*
X67190296D01*
X67152848Y61804602D02*
X67190310D01*
X67152862Y61807142D02*
X67190324D01*
X67152876Y61809682D02*
X67190338D01*
X67152890Y61812222D02*
X67190352D01*
X67152904Y61814762D02*
X67190366D01*
X67152918Y61817302D02*
X67190380D01*
X67152932Y61819842D02*
X67190393D01*
X67152946Y61822382D02*
X67190407D01*
X67152960Y61824922D02*
X67190421D01*
X67152974Y61827462D02*
X67190435D01*
X67152988Y61830002D02*
X67190449D01*
X67153560Y61774323D02*
Y61831785D01*
X67156100Y61774309D02*
Y61831771D01*
X67158640Y61774295D02*
Y61831757D01*
X67161180Y61774281D02*
Y61831743D01*
X67163720Y61774267D02*
Y61831729D01*
X67166260Y61774253D02*
Y61831715D01*
X67168800Y61774239D02*
Y61831701D01*
X67171340Y61774225D02*
Y61831687D01*
X67173880Y61774211D02*
Y61831673D01*
X67176420Y61774197D02*
Y61831659D01*
X67178960Y61774183D02*
Y61831645D01*
X67181500Y61774169D02*
Y61831631D01*
X67184040Y61774155D02*
Y61831617D01*
X67186580Y61774141D02*
Y61831603D01*
X67189120Y61774127D02*
Y61831589D01*
X67596695Y61674221D02*
X67596705Y61731682D01*
X67559245Y61731689*
X67559235Y61674228*
X67596695Y61674221*
X67596695*
X67559235Y61676761D02*
X67596696D01*
X67559236Y61679301D02*
X67596696D01*
X67559236Y61681841D02*
X67596697D01*
X67559236Y61684381D02*
X67596697D01*
X67559237Y61686921D02*
X67596698D01*
X67559237Y61689461D02*
X67596698D01*
X67559238Y61692001D02*
X67596698D01*
X67559238Y61694541D02*
X67596699D01*
X67559239Y61697081D02*
X67596699D01*
X67559239Y61699621D02*
X67596700D01*
X67559240Y61702161D02*
X67596700D01*
X67559240Y61704701D02*
X67596701D01*
X67559240Y61707241D02*
X67596701D01*
X67559241Y61709781D02*
X67596702D01*
X67559241Y61712321D02*
X67596702D01*
X67559242Y61714861D02*
X67596702D01*
X67559242Y61717401D02*
X67596703D01*
X67559243Y61719941D02*
X67596703D01*
X67559243Y61722481D02*
X67596704D01*
X67559244Y61725021D02*
X67596704D01*
X67559244Y61727561D02*
X67596705D01*
X67559244Y61730101D02*
X67596705D01*
X67559960Y61674228D02*
Y61731689D01*
X67562500Y61674227D02*
Y61731688D01*
X67565040Y61674227D02*
Y61731688D01*
X67567580Y61674226D02*
Y61731687D01*
X67570120Y61674226D02*
Y61731687D01*
X67572660Y61674225D02*
Y61731686D01*
X67575200Y61674225D02*
Y61731686D01*
X67577740Y61674224D02*
Y61731685D01*
X67580280Y61674224D02*
Y61731685D01*
X67582820Y61674224D02*
Y61731685D01*
X67585360Y61674223D02*
Y61731684D01*
X67587900Y61674223D02*
Y61731684D01*
X67590440Y61674222D02*
Y61731683D01*
X67592980Y61674222D02*
Y61731683D01*
X67595520Y61674221D02*
Y61731682D01*
X67596542Y61774122D02*
X67596858Y61831582D01*
X67559398Y61831788*
X67559082Y61774328*
X67596542Y61774122*
X67596542*
X67559095Y61776662D02*
X67596556D01*
X67559109Y61779202D02*
X67596570D01*
X67559123Y61781742D02*
X67596584D01*
X67559137Y61784282D02*
X67596598D01*
X67559151Y61786822D02*
X67596612D01*
X67559165Y61789362D02*
X67596626D01*
X67559179Y61791902D02*
X67596640D01*
X67559193Y61794442D02*
X67596654D01*
X67559207Y61796982D02*
X67596668D01*
X67559221Y61799522D02*
X67596682D01*
X67559235Y61802062D02*
X67596696D01*
X67559248Y61804602D02*
X67596710D01*
X67559262Y61807142D02*
X67596724D01*
X67559276Y61809682D02*
X67596738D01*
X67559290Y61812222D02*
X67596752D01*
X67559304Y61814762D02*
X67596766D01*
X67559318Y61817302D02*
X67596780D01*
X67559332Y61819842D02*
X67596793D01*
X67559346Y61822382D02*
X67596807D01*
X67559360Y61824922D02*
X67596821D01*
X67559374Y61827462D02*
X67596835D01*
X67559388Y61830002D02*
X67596849D01*
X67559960Y61774323D02*
Y61831785D01*
X67562500Y61774309D02*
Y61831771D01*
X67565040Y61774295D02*
Y61831757D01*
X67567580Y61774281D02*
Y61831743D01*
X67570120Y61774267D02*
Y61831729D01*
X67572660Y61774253D02*
Y61831715D01*
X67575200Y61774239D02*
Y61831701D01*
X67577740Y61774225D02*
Y61831687D01*
X67580280Y61774211D02*
Y61831673D01*
X67582820Y61774197D02*
Y61831659D01*
X67585360Y61774183D02*
Y61831645D01*
X67587900Y61774169D02*
Y61831631D01*
X67590440Y61774155D02*
Y61831617D01*
X67592980Y61774141D02*
Y61831603D01*
X67595520Y61774127D02*
Y61831589D01*
X63070034Y62570970D02*
X63012573Y62570980D01*
X63012566Y62533520*
X63070027Y62533510*
X63070034Y62570970*
X63070027Y62533510D02*
X63070027D01*
X63012567Y62536050D02*
X63070028D01*
X63012567Y62538590D02*
X63070028D01*
X63012568Y62541130D02*
X63070029D01*
X63012568Y62543670D02*
X63070029D01*
X63012568Y62546210D02*
X63070029D01*
X63012569Y62548750D02*
X63070030D01*
X63012569Y62551290D02*
X63070030D01*
X63012570Y62553830D02*
X63070031D01*
X63012570Y62556370D02*
X63070031D01*
X63012571Y62558910D02*
X63070032D01*
X63012571Y62561450D02*
X63070032D01*
X63012572Y62563990D02*
X63070033D01*
X63012572Y62566530D02*
X63070033D01*
X63012572Y62569070D02*
X63070033D01*
X63012566Y62533520D02*
X63012566D01*
X63015106Y62533519D02*
Y62570980D01*
X63017646Y62533519D02*
Y62570979D01*
X63020186Y62533518D02*
Y62570979D01*
X63022726Y62533518D02*
Y62570978D01*
X63025266Y62533517D02*
Y62570978D01*
X63027806Y62533517D02*
Y62570978D01*
X63030346Y62533517D02*
Y62570977D01*
X63032886Y62533516D02*
Y62570977D01*
X63035426Y62533516D02*
Y62570976D01*
X63037966Y62533515D02*
Y62570976D01*
X63040506Y62533515D02*
Y62570975D01*
X63043046Y62533514D02*
Y62570975D01*
X63045586Y62533514D02*
Y62570974D01*
X63048126Y62533513D02*
Y62570974D01*
X63050666Y62533513D02*
Y62570974D01*
X63053206Y62533513D02*
Y62570973D01*
X63055746Y62533512D02*
Y62570973D01*
X63058286Y62533512D02*
Y62570972D01*
X63060826Y62533511D02*
Y62570972D01*
X63063366Y62533511D02*
Y62570971D01*
X63065906Y62533510D02*
Y62570971D01*
X63068446Y62533510D02*
Y62570970D01*
X62970133Y62570817D02*
X62912673Y62571133D01*
X62912467Y62533673*
X62969927Y62533357*
X62970133Y62570817*
X62969927Y62533357D02*
X62969927D01*
X62912479Y62535897D02*
X62969941D01*
X62912493Y62538437D02*
X62969955D01*
X62912507Y62540977D02*
X62969969D01*
X62912521Y62543517D02*
X62969983D01*
X62912535Y62546057D02*
X62969997D01*
X62912549Y62548597D02*
X62970011D01*
X62912563Y62551137D02*
X62970025D01*
X62912577Y62553677D02*
X62970039D01*
X62912591Y62556217D02*
X62970053D01*
X62912605Y62558757D02*
X62970067D01*
X62912619Y62561297D02*
X62970081D01*
X62912633Y62563837D02*
X62970095D01*
X62912647Y62566377D02*
X62970109D01*
X62912661Y62568917D02*
X62970123D01*
X62912467Y62533673D02*
X62912467D01*
X62915007Y62533659D02*
Y62571120D01*
X62917547Y62533645D02*
Y62571106D01*
X62920087Y62533631D02*
Y62571092D01*
X62922627Y62533617D02*
Y62571078D01*
X62925167Y62533603D02*
Y62571064D01*
X62927707Y62533589D02*
Y62571050D01*
X62930247Y62533575D02*
Y62571036D01*
X62932787Y62533561D02*
Y62571022D01*
X62935327Y62533547D02*
Y62571008D01*
X62937867Y62533533D02*
Y62570994D01*
X62940407Y62533519D02*
Y62570980D01*
X62942947Y62533505D02*
Y62570966D01*
X62945487Y62533491D02*
Y62570952D01*
X62948027Y62533477D02*
Y62570939D01*
X62950567Y62533463D02*
Y62570925D01*
X62953107Y62533449D02*
Y62570911D01*
X62955647Y62533435D02*
Y62570897D01*
X62958187Y62533421D02*
Y62570883D01*
X62960727Y62533407D02*
Y62570869D01*
X62963267Y62533394D02*
Y62570855D01*
X62965807Y62533380D02*
Y62570841D01*
X62968347Y62533366D02*
Y62570827D01*
X62580369Y65999755D02*
X62580226Y65933295D01*
X62605686Y65933240*
X62605829Y65999700*
X62580369Y65999755*
X62580231Y65935525D02*
X62605691D01*
X62580237Y65938065D02*
X62605697D01*
X62580242Y65940605D02*
X62605702D01*
X62580248Y65943145D02*
X62605707D01*
X62580253Y65945685D02*
X62605713D01*
X62580258Y65948225D02*
X62605718D01*
X62580264Y65950765D02*
X62605724D01*
X62580269Y65953305D02*
X62605729D01*
X62580275Y65955845D02*
X62605735D01*
X62580280Y65958385D02*
X62605740D01*
X62580286Y65960925D02*
X62605746D01*
X62580291Y65963465D02*
X62605751D01*
X62580297Y65966005D02*
X62605757D01*
X62580302Y65968545D02*
X62605762D01*
X62580308Y65971085D02*
X62605767D01*
X62580313Y65973625D02*
X62605773D01*
X62580318Y65976165D02*
X62605778D01*
X62580324Y65978705D02*
X62605784D01*
X62580329Y65981245D02*
X62605789D01*
X62580335Y65983785D02*
X62605795D01*
X62580340Y65986325D02*
X62605800D01*
X62580346Y65988865D02*
X62605806D01*
X62580351Y65991405D02*
X62605811D01*
X62580357Y65993945D02*
X62605816D01*
X62580362Y65996485D02*
X62605822D01*
X62580368Y65999025D02*
X62605827D01*
X62580226Y65933295D02*
X62580226D01*
X62582766Y65933289D02*
Y65999749D01*
X62585306Y65933284D02*
Y65999744D01*
X62587846Y65933279D02*
Y65999739D01*
X62590386Y65933273D02*
Y65999733D01*
X62592926Y65933268D02*
Y65999728D01*
X62595466Y65933262D02*
Y65999722D01*
X62598006Y65933257D02*
Y65999717D01*
X62600546Y65933251D02*
Y65999711D01*
X62603086Y65933246D02*
Y65999706D01*
X62605626Y65933240D02*
Y65999700D01*
X62630369Y65999755D02*
X62630226Y65933295D01*
X62655686Y65933240*
X62655829Y65999700*
X62630369Y65999755*
X62630231Y65935525D02*
X62655691D01*
X62630237Y65938065D02*
X62655696D01*
X62630242Y65940605D02*
X62655702D01*
X62630248Y65943145D02*
X62655707D01*
X62630253Y65945685D02*
X62655713D01*
X62630258Y65948225D02*
X62655718D01*
X62630264Y65950765D02*
X62655724D01*
X62630269Y65953305D02*
X62655729D01*
X62630275Y65955845D02*
X62655735D01*
X62630280Y65958385D02*
X62655740D01*
X62630286Y65960925D02*
X62655746D01*
X62630291Y65963465D02*
X62655751D01*
X62630297Y65966005D02*
X62655756D01*
X62630302Y65968545D02*
X62655762D01*
X62630307Y65971085D02*
X62655767D01*
X62630313Y65973625D02*
X62655773D01*
X62630318Y65976165D02*
X62655778D01*
X62630324Y65978705D02*
X62655784D01*
X62630329Y65981245D02*
X62655789D01*
X62630335Y65983785D02*
X62655795D01*
X62630340Y65986325D02*
X62655800D01*
X62630346Y65988865D02*
X62655806D01*
X62630351Y65991405D02*
X62655811D01*
X62630357Y65993945D02*
X62655816D01*
X62630362Y65996485D02*
X62655822D01*
X62630367Y65999025D02*
X62655827D01*
X62630226Y65933295D02*
X62630226D01*
X62632766Y65933289D02*
Y65999749D01*
X62635306Y65933284D02*
Y65999744D01*
X62637846Y65933279D02*
Y65999739D01*
X62640386Y65933273D02*
Y65999733D01*
X62642926Y65933268D02*
Y65999728D01*
X62645466Y65933262D02*
Y65999722D01*
X62648006Y65933257D02*
Y65999717D01*
X62650546Y65933251D02*
Y65999711D01*
X62653086Y65933246D02*
Y65999706D01*
X62655626Y65933240D02*
Y65999700D01*
X62680369Y65999755D02*
X62680226Y65933295D01*
X62680226D02*
X62705686Y65933240D01*
X62705829Y65999700*
X62680369Y65999755*
X62680231Y65935525D02*
X62705691D01*
X62680237Y65938065D02*
X62705697D01*
X62680242Y65940605D02*
X62705702D01*
X62680248Y65943145D02*
X62705707D01*
X62680253Y65945685D02*
X62705713D01*
X62680259Y65948225D02*
X62705718D01*
X62680264Y65950765D02*
X62705724D01*
X62680269Y65953305D02*
X62705729D01*
X62680275Y65955845D02*
X62705735D01*
X62680280Y65958385D02*
X62705740D01*
X62680286Y65960925D02*
X62705746D01*
X62680291Y65963465D02*
X62705751D01*
X62680297Y65966005D02*
X62705757D01*
X62680302Y65968545D02*
X62705762D01*
X62680308Y65971085D02*
X62705767D01*
X62680313Y65973625D02*
X62705773D01*
X62680319Y65976165D02*
X62705778D01*
X62680324Y65978705D02*
X62705784D01*
X62680329Y65981245D02*
X62705789D01*
X62680335Y65983785D02*
X62705795D01*
X62680340Y65986325D02*
X62705800D01*
X62680346Y65988865D02*
X62705806D01*
X62680351Y65991405D02*
X62705811D01*
X62680357Y65993945D02*
X62705817D01*
X62680362Y65996485D02*
X62705822D01*
X62680368Y65999025D02*
X62705827D01*
X62680226Y65933295D02*
X62680226D01*
X62682766Y65933289D02*
Y65999749D01*
X62685306Y65933284D02*
Y65999744D01*
X62687846Y65933279D02*
Y65999739D01*
X62690386Y65933273D02*
Y65999733D01*
X62692926Y65933268D02*
Y65999728D01*
X62695466Y65933262D02*
Y65999722D01*
X62698006Y65933257D02*
Y65999717D01*
X62700546Y65933251D02*
Y65999711D01*
X62703086Y65933246D02*
Y65999706D01*
X62705626Y65933240D02*
Y65999700D01*
X62730369Y65999755D02*
X62730226Y65933295D01*
X62755686Y65933240*
X62755829Y65999700*
X62730369Y65999755*
X62730231Y65935525D02*
X62755691D01*
X62730237Y65938065D02*
X62755696D01*
X62730242Y65940605D02*
X62755702D01*
X62730248Y65943145D02*
X62755707D01*
X62730253Y65945685D02*
X62755713D01*
X62730258Y65948225D02*
X62755718D01*
X62730264Y65950765D02*
X62755724D01*
X62730269Y65953305D02*
X62755729D01*
X62730275Y65955845D02*
X62755735D01*
X62730280Y65958385D02*
X62755740D01*
X62730286Y65960925D02*
X62755746D01*
X62730291Y65963465D02*
X62755751D01*
X62730297Y65966005D02*
X62755756D01*
X62730302Y65968545D02*
X62755762D01*
X62730307Y65971085D02*
X62755767D01*
X62730313Y65973625D02*
X62755773D01*
X62730318Y65976165D02*
X62755778D01*
X62730324Y65978705D02*
X62755784D01*
X62730329Y65981245D02*
X62755789D01*
X62730335Y65983785D02*
X62755795D01*
X62730340Y65986325D02*
X62755800D01*
X62730346Y65988865D02*
X62755806D01*
X62730351Y65991405D02*
X62755811D01*
X62730357Y65993945D02*
X62755816D01*
X62730362Y65996485D02*
X62755822D01*
X62730367Y65999025D02*
X62755827D01*
X62730226Y65933295D02*
X62730226D01*
X62732766Y65933289D02*
Y65999749D01*
X62735306Y65933284D02*
Y65999744D01*
X62737846Y65933279D02*
Y65999739D01*
X62740386Y65933273D02*
Y65999733D01*
X62742926Y65933268D02*
Y65999728D01*
X62745466Y65933262D02*
Y65999722D01*
X62748006Y65933257D02*
Y65999717D01*
X62750546Y65933251D02*
Y65999711D01*
X62753086Y65933246D02*
Y65999706D01*
X62755626Y65933240D02*
Y65999700D01*
X62780369Y65999755D02*
X62780226Y65933295D01*
X62805686Y65933240*
X62805829Y65999700*
X62780369Y65999755*
X62780231Y65935525D02*
X62805691D01*
X62780236Y65938065D02*
X62805696D01*
X62780242Y65940605D02*
X62805702D01*
X62780247Y65943145D02*
X62805707D01*
X62780253Y65945685D02*
X62805713D01*
X62780258Y65948225D02*
X62805718D01*
X62780264Y65950765D02*
X62805724D01*
X62780269Y65953305D02*
X62805729D01*
X62780275Y65955845D02*
X62805734D01*
X62780280Y65958385D02*
X62805740D01*
X62780286Y65960925D02*
X62805745D01*
X62780291Y65963465D02*
X62805751D01*
X62780296Y65966005D02*
X62805756D01*
X62780302Y65968545D02*
X62805762D01*
X62780307Y65971085D02*
X62805767D01*
X62780313Y65973625D02*
X62805773D01*
X62780318Y65976165D02*
X62805778D01*
X62780324Y65978705D02*
X62805784D01*
X62780329Y65981245D02*
X62805789D01*
X62780335Y65983785D02*
X62805794D01*
X62780340Y65986325D02*
X62805800D01*
X62780346Y65988865D02*
X62805805D01*
X62780351Y65991405D02*
X62805811D01*
X62780356Y65993945D02*
X62805816D01*
X62780362Y65996485D02*
X62805822D01*
X62780367Y65999025D02*
X62805827D01*
X62780226Y65933295D02*
X62780226D01*
X62782766Y65933289D02*
Y65999749D01*
X62785306Y65933284D02*
Y65999744D01*
X62787846Y65933279D02*
Y65999739D01*
X62790386Y65933273D02*
Y65999733D01*
X62792926Y65933268D02*
Y65999728D01*
X62795466Y65933262D02*
Y65999722D01*
X62798006Y65933257D02*
Y65999717D01*
X62800546Y65933251D02*
Y65999711D01*
X62803086Y65933246D02*
Y65999706D01*
X62805626Y65933240D02*
Y65999700D01*
X62830369Y65999755D02*
X62830226Y65933295D01*
X62855686Y65933240*
X62855829Y65999700*
X62830369Y65999755*
X62830231Y65935525D02*
X62855691D01*
X62830237Y65938065D02*
X62855697D01*
X62830242Y65940605D02*
X62855702D01*
X62830248Y65943145D02*
X62855707D01*
X62830253Y65945685D02*
X62855713D01*
X62830258Y65948225D02*
X62855718D01*
X62830264Y65950765D02*
X62855724D01*
X62830269Y65953305D02*
X62855729D01*
X62830275Y65955845D02*
X62855735D01*
X62830280Y65958385D02*
X62855740D01*
X62830286Y65960925D02*
X62855746D01*
X62830291Y65963465D02*
X62855751D01*
X62830297Y65966005D02*
X62855757D01*
X62830302Y65968545D02*
X62855762D01*
X62830308Y65971085D02*
X62855767D01*
X62830313Y65973625D02*
X62855773D01*
X62830318Y65976165D02*
X62855778D01*
X62830324Y65978705D02*
X62855784D01*
X62830329Y65981245D02*
X62855789D01*
X62830335Y65983785D02*
X62855795D01*
X62830340Y65986325D02*
X62855800D01*
X62830346Y65988865D02*
X62855806D01*
X62830351Y65991405D02*
X62855811D01*
X62830357Y65993945D02*
X62855816D01*
X62830362Y65996485D02*
X62855822D01*
X62830368Y65999025D02*
X62855827D01*
X62830226Y65933295D02*
X62830226D01*
X62832766Y65933289D02*
Y65999749D01*
X62835306Y65933284D02*
Y65999744D01*
X62837846Y65933279D02*
Y65999739D01*
X62840386Y65933273D02*
Y65999733D01*
X62842926Y65933268D02*
Y65999728D01*
X62845466Y65933262D02*
Y65999722D01*
X62848006Y65933257D02*
Y65999717D01*
X62850546Y65933251D02*
Y65999711D01*
X62853086Y65933246D02*
Y65999706D01*
X62855626Y65933240D02*
Y65999700D01*
X62855781Y66311276D02*
X62855734Y66377736D01*
X62830274Y66377718*
X62830321Y66311258*
X62830321D02*
X62855781Y66311276D01*
X62830321Y66311445D02*
X62855781D01*
X62830319Y66313985D02*
X62855779D01*
X62830318Y66316525D02*
X62855777D01*
X62830316Y66319065D02*
X62855776D01*
X62830314Y66321605D02*
X62855774D01*
X62830312Y66324145D02*
X62855772D01*
X62830310Y66326685D02*
X62855770D01*
X62830309Y66329225D02*
X62855768D01*
X62830307Y66331765D02*
X62855767D01*
X62830305Y66334305D02*
X62855765D01*
X62830303Y66336845D02*
X62855763D01*
X62830301Y66339385D02*
X62855761D01*
X62830299Y66341925D02*
X62855759D01*
X62830298Y66344465D02*
X62855757D01*
X62830296Y66347005D02*
X62855756D01*
X62830294Y66349545D02*
X62855754D01*
X62830292Y66352085D02*
X62855752D01*
X62830290Y66354625D02*
X62855750D01*
X62830289Y66357165D02*
X62855748D01*
X62830287Y66359705D02*
X62855747D01*
X62830285Y66362245D02*
X62855745D01*
X62830283Y66364785D02*
X62855743D01*
X62830281Y66367325D02*
X62855741D01*
X62830280Y66369865D02*
X62855739D01*
X62830278Y66372405D02*
X62855738D01*
X62830276Y66374945D02*
X62855736D01*
X62830274Y66377485D02*
X62855734D01*
X62830274Y66377718D02*
X62830274D01*
X62832814Y66311260D02*
Y66377720D01*
X62835354Y66311262D02*
Y66377722D01*
X62837894Y66311264D02*
Y66377723D01*
X62840434Y66311265D02*
Y66377725D01*
X62842974Y66311267D02*
Y66377727D01*
X62845514Y66311269D02*
Y66377729D01*
X62848054Y66311271D02*
Y66377731D01*
X62850594Y66311273D02*
Y66377733D01*
X62853134Y66311274D02*
Y66377734D01*
X62855674Y66311276D02*
Y66377736D01*
X62805781Y66311276D02*
X62805734Y66377736D01*
X62805734D02*
X62780274Y66377718D01*
X62780321Y66311258*
X62805781Y66311276*
X62780321Y66311445D02*
X62805781D01*
X62780319Y66313985D02*
X62805779D01*
X62780317Y66316525D02*
X62805777D01*
X62780316Y66319065D02*
X62805775D01*
X62780314Y66321605D02*
X62805774D01*
X62780312Y66324145D02*
X62805772D01*
X62780310Y66326685D02*
X62805770D01*
X62780308Y66329225D02*
X62805768D01*
X62780307Y66331765D02*
X62805766D01*
X62780305Y66334305D02*
X62805765D01*
X62780303Y66336845D02*
X62805763D01*
X62780301Y66339385D02*
X62805761D01*
X62780299Y66341925D02*
X62805759D01*
X62780297Y66344465D02*
X62805757D01*
X62780296Y66347005D02*
X62805755D01*
X62780294Y66349545D02*
X62805754D01*
X62780292Y66352085D02*
X62805752D01*
X62780290Y66354625D02*
X62805750D01*
X62780288Y66357165D02*
X62805748D01*
X62780287Y66359705D02*
X62805746D01*
X62780285Y66362245D02*
X62805745D01*
X62780283Y66364785D02*
X62805743D01*
X62780281Y66367325D02*
X62805741D01*
X62780279Y66369865D02*
X62805739D01*
X62780277Y66372405D02*
X62805737D01*
X62780276Y66374945D02*
X62805735D01*
X62780274Y66377485D02*
X62805734D01*
X62780274Y66377718D02*
X62780274D01*
X62782814Y66311260D02*
Y66377720D01*
X62785354Y66311262D02*
Y66377722D01*
X62787894Y66311264D02*
Y66377723D01*
X62790434Y66311265D02*
Y66377725D01*
X62792974Y66311267D02*
Y66377727D01*
X62795514Y66311269D02*
Y66377729D01*
X62798054Y66311271D02*
Y66377731D01*
X62800594Y66311273D02*
Y66377733D01*
X62803134Y66311274D02*
Y66377734D01*
X62805674Y66311276D02*
Y66377736D01*
X62755781Y66311276D02*
X62755734Y66377736D01*
X62730274Y66377718*
X62730321Y66311258*
X62755781Y66311276*
X62730321Y66311445D02*
X62755781D01*
X62730319Y66313985D02*
X62755779D01*
X62730318Y66316525D02*
X62755777D01*
X62730316Y66319065D02*
X62755776D01*
X62730314Y66321605D02*
X62755774D01*
X62730312Y66324145D02*
X62755772D01*
X62730310Y66326685D02*
X62755770D01*
X62730309Y66329225D02*
X62755768D01*
X62730307Y66331765D02*
X62755767D01*
X62730305Y66334305D02*
X62755765D01*
X62730303Y66336845D02*
X62755763D01*
X62730301Y66339385D02*
X62755761D01*
X62730299Y66341925D02*
X62755759D01*
X62730298Y66344465D02*
X62755757D01*
X62730296Y66347005D02*
X62755756D01*
X62730294Y66349545D02*
X62755754D01*
X62730292Y66352085D02*
X62755752D01*
X62730290Y66354625D02*
X62755750D01*
X62730289Y66357165D02*
X62755748D01*
X62730287Y66359705D02*
X62755747D01*
X62730285Y66362245D02*
X62755745D01*
X62730283Y66364785D02*
X62755743D01*
X62730281Y66367325D02*
X62755741D01*
X62730279Y66369865D02*
X62755739D01*
X62730278Y66372405D02*
X62755737D01*
X62730276Y66374945D02*
X62755736D01*
X62730274Y66377485D02*
X62755734D01*
X62730274Y66377718D02*
X62730274D01*
X62732814Y66311260D02*
Y66377720D01*
X62735354Y66311262D02*
Y66377722D01*
X62737894Y66311264D02*
Y66377723D01*
X62740434Y66311265D02*
Y66377725D01*
X62742974Y66311267D02*
Y66377727D01*
X62745514Y66311269D02*
Y66377729D01*
X62748054Y66311271D02*
Y66377731D01*
X62750594Y66311273D02*
Y66377733D01*
X62753134Y66311274D02*
Y66377734D01*
X62755674Y66311276D02*
Y66377736D01*
X62705781Y66311276D02*
X62705734Y66377736D01*
X62680274Y66377718*
X62680322Y66311258*
X62680322D02*
X62705781Y66311276D01*
X62680321Y66311445D02*
X62705781D01*
X62680320Y66313985D02*
X62705779D01*
X62680318Y66316525D02*
X62705778D01*
X62680316Y66319065D02*
X62705776D01*
X62680314Y66321605D02*
X62705774D01*
X62680312Y66324145D02*
X62705772D01*
X62680310Y66326685D02*
X62705770D01*
X62680309Y66329225D02*
X62705768D01*
X62680307Y66331765D02*
X62705767D01*
X62680305Y66334305D02*
X62705765D01*
X62680303Y66336845D02*
X62705763D01*
X62680301Y66339385D02*
X62705761D01*
X62680300Y66341925D02*
X62705759D01*
X62680298Y66344465D02*
X62705758D01*
X62680296Y66347005D02*
X62705756D01*
X62680294Y66349545D02*
X62705754D01*
X62680292Y66352085D02*
X62705752D01*
X62680290Y66354625D02*
X62705750D01*
X62680289Y66357165D02*
X62705748D01*
X62680287Y66359705D02*
X62705747D01*
X62680285Y66362245D02*
X62705745D01*
X62680283Y66364785D02*
X62705743D01*
X62680281Y66367325D02*
X62705741D01*
X62680280Y66369865D02*
X62705739D01*
X62680278Y66372405D02*
X62705738D01*
X62680276Y66374945D02*
X62705736D01*
X62680274Y66377485D02*
X62705734D01*
X62680274Y66377718D02*
X62680274D01*
X62682814Y66311260D02*
Y66377720D01*
X62685354Y66311262D02*
Y66377722D01*
X62687894Y66311264D02*
Y66377723D01*
X62690434Y66311265D02*
Y66377725D01*
X62692974Y66311267D02*
Y66377727D01*
X62695514Y66311269D02*
Y66377729D01*
X62698054Y66311271D02*
Y66377731D01*
X62700594Y66311273D02*
Y66377733D01*
X62703134Y66311274D02*
Y66377734D01*
X62705674Y66311276D02*
Y66377736D01*
X62655781Y66311276D02*
X62655734Y66377736D01*
X62630274Y66377718*
X62630321Y66311258*
X62655781Y66311276*
X62630321Y66311445D02*
X62655781D01*
X62630319Y66313985D02*
X62655779D01*
X62630318Y66316525D02*
X62655777D01*
X62630316Y66319065D02*
X62655776D01*
X62630314Y66321605D02*
X62655774D01*
X62630312Y66324145D02*
X62655772D01*
X62630310Y66326685D02*
X62655770D01*
X62630309Y66329225D02*
X62655768D01*
X62630307Y66331765D02*
X62655767D01*
X62630305Y66334305D02*
X62655765D01*
X62630303Y66336845D02*
X62655763D01*
X62630301Y66339385D02*
X62655761D01*
X62630299Y66341925D02*
X62655759D01*
X62630298Y66344465D02*
X62655757D01*
X62630296Y66347005D02*
X62655756D01*
X62630294Y66349545D02*
X62655754D01*
X62630292Y66352085D02*
X62655752D01*
X62630290Y66354625D02*
X62655750D01*
X62630289Y66357165D02*
X62655748D01*
X62630287Y66359705D02*
X62655747D01*
X62630285Y66362245D02*
X62655745D01*
X62630283Y66364785D02*
X62655743D01*
X62630281Y66367325D02*
X62655741D01*
X62630279Y66369865D02*
X62655739D01*
X62630278Y66372405D02*
X62655737D01*
X62630276Y66374945D02*
X62655736D01*
X62630274Y66377485D02*
X62655734D01*
X62630274Y66377718D02*
X62630274D01*
X62632814Y66311260D02*
Y66377720D01*
X62635354Y66311262D02*
Y66377722D01*
X62637894Y66311264D02*
Y66377723D01*
X62640434Y66311265D02*
Y66377725D01*
X62642974Y66311267D02*
Y66377727D01*
X62645514Y66311269D02*
Y66377729D01*
X62648054Y66311271D02*
Y66377731D01*
X62650594Y66311273D02*
Y66377733D01*
X62653134Y66311274D02*
Y66377734D01*
X62655674Y66311276D02*
Y66377736D01*
X62605781Y66311276D02*
X62605734Y66377736D01*
X62580274Y66377718*
X62580321Y66311258*
X62580321D02*
X62605781Y66311276D01*
X62580321Y66311445D02*
X62605781D01*
X62580319Y66313985D02*
X62605779D01*
X62580318Y66316525D02*
X62605777D01*
X62580316Y66319065D02*
X62605776D01*
X62580314Y66321605D02*
X62605774D01*
X62580312Y66324145D02*
X62605772D01*
X62580310Y66326685D02*
X62605770D01*
X62580309Y66329225D02*
X62605768D01*
X62580307Y66331765D02*
X62605767D01*
X62580305Y66334305D02*
X62605765D01*
X62580303Y66336845D02*
X62605763D01*
X62580301Y66339385D02*
X62605761D01*
X62580299Y66341925D02*
X62605759D01*
X62580298Y66344465D02*
X62605757D01*
X62580296Y66347005D02*
X62605756D01*
X62580294Y66349545D02*
X62605754D01*
X62580292Y66352085D02*
X62605752D01*
X62580290Y66354625D02*
X62605750D01*
X62580289Y66357165D02*
X62605748D01*
X62580287Y66359705D02*
X62605747D01*
X62580285Y66362245D02*
X62605745D01*
X62580283Y66364785D02*
X62605743D01*
X62580281Y66367325D02*
X62605741D01*
X62580280Y66369865D02*
X62605739D01*
X62580278Y66372405D02*
X62605738D01*
X62580276Y66374945D02*
X62605736D01*
X62580274Y66377485D02*
X62605734D01*
X62580274Y66377718D02*
X62580274D01*
X62582814Y66311260D02*
Y66377720D01*
X62585354Y66311262D02*
Y66377722D01*
X62587894Y66311264D02*
Y66377723D01*
X62590434Y66311265D02*
Y66377725D01*
X62592974Y66311267D02*
Y66377727D01*
X62595514Y66311269D02*
Y66377729D01*
X62598054Y66311271D02*
Y66377731D01*
X62600594Y66311273D02*
Y66377733D01*
X62603134Y66311274D02*
Y66377734D01*
X62605674Y66311276D02*
Y66377736D01*
X66722790Y66731230D02*
X66585330Y66731120D01*
X66585348Y66708660*
X66722808Y66708770*
X66722790Y66731230*
X66585347Y66710225D02*
X66722807D01*
X66585345Y66712765D02*
X66722805D01*
X66585343Y66715305D02*
X66722803D01*
X66585341Y66717845D02*
X66722801D01*
X66585339Y66720385D02*
X66722799D01*
X66585337Y66722925D02*
X66722797D01*
X66585335Y66725465D02*
X66722795D01*
X66585333Y66728005D02*
X66722792D01*
X66585330Y66730545D02*
X66722790D01*
X66587140Y66708661D02*
Y66731121D01*
X66589680Y66708664D02*
Y66731123D01*
X66592220Y66708666D02*
Y66731125D01*
X66594760Y66708668D02*
Y66731127D01*
X66597300Y66708670D02*
Y66731129D01*
X66599840Y66708672D02*
Y66731131D01*
X66602380Y66708674D02*
Y66731134D01*
X66604920Y66708676D02*
Y66731136D01*
X66607460Y66708678D02*
Y66731138D01*
X66610000Y66708680D02*
Y66731140D01*
X66612540Y66708682D02*
Y66731142D01*
X66615080Y66708684D02*
Y66731144D01*
X66617620Y66708686D02*
Y66731146D01*
X66620160Y66708688D02*
Y66731148D01*
X66622700Y66708690D02*
Y66731150D01*
X66625240Y66708692D02*
Y66731152D01*
X66627780Y66708694D02*
Y66731154D01*
X66630320Y66708696D02*
Y66731156D01*
X66632860Y66708698D02*
Y66731158D01*
X66635400Y66708700D02*
Y66731160D01*
X66637940Y66708702D02*
Y66731162D01*
X66640480Y66708704D02*
Y66731164D01*
X66643020Y66708706D02*
Y66731166D01*
X66645560Y66708708D02*
Y66731168D01*
X66648100Y66708710D02*
Y66731170D01*
X66650640Y66708712D02*
Y66731172D01*
X66653180Y66708714D02*
Y66731174D01*
X66655720Y66708717D02*
Y66731176D01*
X66658260Y66708719D02*
Y66731178D01*
X66660800Y66708721D02*
Y66731180D01*
X66663340Y66708723D02*
Y66731182D01*
X66665880Y66708725D02*
Y66731184D01*
X66668420Y66708727D02*
Y66731187D01*
X66670960Y66708729D02*
Y66731189D01*
X66673500Y66708731D02*
Y66731191D01*
X66676040Y66708733D02*
Y66731193D01*
X66678580Y66708735D02*
Y66731195D01*
X66681120Y66708737D02*
Y66731197D01*
X66683660Y66708739D02*
Y66731199D01*
X66686200Y66708741D02*
Y66731201D01*
X66688740Y66708743D02*
Y66731203D01*
X66691280Y66708745D02*
Y66731205D01*
X66693820Y66708747D02*
Y66731207D01*
X66696360Y66708749D02*
Y66731209D01*
X66698900Y66708751D02*
Y66731211D01*
X66701440Y66708753D02*
Y66731213D01*
X66703980Y66708755D02*
Y66731215D01*
X66706520Y66708757D02*
Y66731217D01*
X66709060Y66708759D02*
Y66731219D01*
X66711600Y66708761D02*
Y66731221D01*
X66714140Y66708763D02*
Y66731223D01*
X66716680Y66708765D02*
Y66731225D01*
X66719220Y66708767D02*
Y66731227D01*
X66721760Y66708770D02*
Y66731229D01*
X65694552Y67308769D02*
X65832012Y67308661D01*
X65832030Y67331121*
X65694570Y67331229*
X65694552Y67308769*
X65694553Y67309665D02*
X65832013D01*
X65694555Y67312205D02*
X65832015D01*
X65694557Y67314745D02*
X65832017D01*
X65694559Y67317285D02*
X65832019D01*
X65694561Y67319825D02*
X65832021D01*
X65694563Y67322365D02*
X65832023D01*
X65694565Y67324905D02*
X65832025D01*
X65694567Y67327445D02*
X65832027D01*
X65694569Y67329985D02*
X65832029D01*
X65695600Y67308768D02*
Y67331228D01*
X65698140Y67308766D02*
Y67331226D01*
X65700680Y67308764D02*
Y67331224D01*
X65703220Y67308762D02*
Y67331222D01*
X65705760Y67308760D02*
Y67331220D01*
X65708300Y67308758D02*
Y67331218D01*
X65710840Y67308756D02*
Y67331216D01*
X65713380Y67308754D02*
Y67331214D01*
X65715920Y67308752D02*
Y67331212D01*
X65718460Y67308750D02*
Y67331210D01*
X65721000Y67308748D02*
Y67331208D01*
X65723540Y67308746D02*
Y67331206D01*
X65726080Y67308744D02*
Y67331204D01*
X65728620Y67308742D02*
Y67331202D01*
X65731160Y67308740D02*
Y67331200D01*
X65733700Y67308738D02*
Y67331198D01*
X65736240Y67308736D02*
Y67331196D01*
X65738780Y67308734D02*
Y67331194D01*
X65741320Y67308732D02*
Y67331192D01*
X65743860Y67308730D02*
Y67331190D01*
X65746400Y67308728D02*
Y67331188D01*
X65748940Y67308726D02*
Y67331186D01*
X65751480Y67308724D02*
Y67331184D01*
X65754020Y67308722D02*
Y67331182D01*
X65756560Y67308720D02*
Y67331180D01*
X65759100Y67308718D02*
Y67331178D01*
X65761640Y67308716D02*
Y67331176D01*
X65764180Y67308714D02*
Y67331174D01*
X65766720Y67308712D02*
Y67331172D01*
X65769260Y67308710D02*
Y67331170D01*
X65771800Y67308708D02*
Y67331168D01*
X65774340Y67308706D02*
Y67331166D01*
X65776880Y67308704D02*
Y67331164D01*
X65779420Y67308702D02*
Y67331162D01*
X65781960Y67308700D02*
Y67331160D01*
X65784500Y67308698D02*
Y67331158D01*
X65787040Y67308696D02*
Y67331156D01*
X65789580Y67308694D02*
Y67331154D01*
X65792120Y67308692D02*
Y67331152D01*
X65794660Y67308690D02*
Y67331150D01*
X65797200Y67308689D02*
Y67331148D01*
X65799740Y67308687D02*
Y67331146D01*
X65802280Y67308685D02*
Y67331144D01*
X65804820Y67308683D02*
Y67331142D01*
X65807360Y67308681D02*
Y67331140D01*
X65809900Y67308679D02*
Y67331138D01*
X65812440Y67308677D02*
Y67331136D01*
X65814980Y67308675D02*
Y67331134D01*
X65817520Y67308673D02*
Y67331132D01*
X65820060Y67308671D02*
Y67331130D01*
X65822600Y67308669D02*
Y67331128D01*
X65825140Y67308667D02*
Y67331126D01*
X65827680Y67308665D02*
Y67331124D01*
X65830220Y67308663D02*
Y67331122D01*
X65694552Y67268769D02*
X65832012Y67268661D01*
X65832030Y67291121*
X65694570Y67291229*
X65694552Y67268769*
X65694553Y67269025D02*
X65832012D01*
X65694554Y67271565D02*
X65832014D01*
X65694556Y67274105D02*
X65832016D01*
X65694558Y67276645D02*
X65832018D01*
X65694560Y67279185D02*
X65832020D01*
X65694562Y67281725D02*
X65832022D01*
X65694564Y67284265D02*
X65832024D01*
X65694566Y67286805D02*
X65832026D01*
X65694568Y67289345D02*
X65832028D01*
X65695600Y67268768D02*
Y67291228D01*
X65698140Y67268766D02*
Y67291226D01*
X65700680Y67268764D02*
Y67291224D01*
X65703220Y67268762D02*
Y67291222D01*
X65705760Y67268760D02*
Y67291220D01*
X65708300Y67268758D02*
Y67291218D01*
X65710840Y67268756D02*
Y67291216D01*
X65713380Y67268754D02*
Y67291214D01*
X65715920Y67268752D02*
Y67291212D01*
X65718460Y67268750D02*
Y67291210D01*
X65721000Y67268748D02*
Y67291208D01*
X65723540Y67268746D02*
Y67291206D01*
X65726080Y67268744D02*
Y67291204D01*
X65728620Y67268742D02*
Y67291202D01*
X65731160Y67268740D02*
Y67291200D01*
X65733700Y67268738D02*
Y67291198D01*
X65736240Y67268736D02*
Y67291196D01*
X65738780Y67268734D02*
Y67291194D01*
X65741320Y67268732D02*
Y67291192D01*
X65743860Y67268730D02*
Y67291190D01*
X65746400Y67268728D02*
Y67291188D01*
X65748940Y67268726D02*
Y67291186D01*
X65751480Y67268724D02*
Y67291184D01*
X65754020Y67268722D02*
Y67291182D01*
X65756560Y67268720D02*
Y67291180D01*
X65759100Y67268718D02*
Y67291178D01*
X65761640Y67268716D02*
Y67291176D01*
X65764180Y67268714D02*
Y67291174D01*
X65766720Y67268713D02*
Y67291172D01*
X65769260Y67268711D02*
Y67291170D01*
X65771800Y67268709D02*
Y67291168D01*
X65774340Y67268707D02*
Y67291166D01*
X65776880Y67268705D02*
Y67291164D01*
X65779420Y67268703D02*
Y67291162D01*
X65781960Y67268701D02*
Y67291160D01*
X65784500Y67268699D02*
Y67291158D01*
X65787040Y67268697D02*
Y67291156D01*
X65789580Y67268695D02*
Y67291154D01*
X65792120Y67268693D02*
Y67291152D01*
X65794660Y67268691D02*
Y67291150D01*
X65797200Y67268689D02*
Y67291148D01*
X65799740Y67268687D02*
Y67291146D01*
X65802280Y67268685D02*
Y67291144D01*
X65804820Y67268683D02*
Y67291142D01*
X65807360Y67268681D02*
Y67291140D01*
X65809900Y67268679D02*
Y67291138D01*
X65812440Y67268677D02*
Y67291136D01*
X65814980Y67268675D02*
Y67291134D01*
X65817520Y67268673D02*
Y67291132D01*
X65820060Y67268671D02*
Y67291130D01*
X65822600Y67268669D02*
Y67291128D01*
X65825140Y67268667D02*
Y67291126D01*
X65827680Y67268665D02*
Y67291124D01*
X65830220Y67268663D02*
Y67291122D01*
X65694552Y67228769D02*
X65832012Y67228661D01*
X65832030Y67251121*
X65694570Y67251229*
X65694552Y67228769*
X65694554Y67230925D02*
X65832014D01*
X65694556Y67233465D02*
X65832016D01*
X65694558Y67236005D02*
X65832018D01*
X65694560Y67238545D02*
X65832020D01*
X65694562Y67241085D02*
X65832022D01*
X65694564Y67243625D02*
X65832024D01*
X65694566Y67246165D02*
X65832026D01*
X65694568Y67248705D02*
X65832028D01*
X65695600Y67228768D02*
Y67251228D01*
X65698140Y67228766D02*
Y67251226D01*
X65700680Y67228764D02*
Y67251224D01*
X65703220Y67228762D02*
Y67251222D01*
X65705760Y67228760D02*
Y67251220D01*
X65708300Y67228758D02*
Y67251218D01*
X65710840Y67228756D02*
Y67251216D01*
X65713380Y67228754D02*
Y67251214D01*
X65715920Y67228752D02*
Y67251212D01*
X65718460Y67228750D02*
Y67251210D01*
X65721000Y67228748D02*
Y67251208D01*
X65723540Y67228746D02*
Y67251206D01*
X65726080Y67228744D02*
Y67251204D01*
X65728620Y67228742D02*
Y67251202D01*
X65731160Y67228740D02*
Y67251200D01*
X65733700Y67228738D02*
Y67251198D01*
X65736240Y67228736D02*
Y67251196D01*
X65738780Y67228734D02*
Y67251194D01*
X65741320Y67228732D02*
Y67251192D01*
X65743860Y67228730D02*
Y67251190D01*
X65746400Y67228728D02*
Y67251188D01*
X65748940Y67228726D02*
Y67251186D01*
X65751480Y67228724D02*
Y67251184D01*
X65754020Y67228722D02*
Y67251182D01*
X65756560Y67228720D02*
Y67251180D01*
X65759100Y67228718D02*
Y67251178D01*
X65761640Y67228716D02*
Y67251176D01*
X65764180Y67228714D02*
Y67251174D01*
X65766720Y67228712D02*
Y67251172D01*
X65769260Y67228710D02*
Y67251170D01*
X65771800Y67228708D02*
Y67251168D01*
X65774340Y67228706D02*
Y67251166D01*
X65776880Y67228704D02*
Y67251164D01*
X65779420Y67228702D02*
Y67251162D01*
X65781960Y67228700D02*
Y67251160D01*
X65784500Y67228698D02*
Y67251158D01*
X65787040Y67228696D02*
Y67251156D01*
X65789580Y67228694D02*
Y67251154D01*
X65792120Y67228692D02*
Y67251152D01*
X65794660Y67228690D02*
Y67251150D01*
X65797200Y67228688D02*
Y67251148D01*
X65799740Y67228686D02*
Y67251146D01*
X65802280Y67228684D02*
Y67251144D01*
X65804820Y67228682D02*
Y67251142D01*
X65807360Y67228680D02*
Y67251140D01*
X65809900Y67228678D02*
Y67251138D01*
X65812440Y67228676D02*
Y67251136D01*
X65814980Y67228674D02*
Y67251134D01*
X65817520Y67228672D02*
Y67251132D01*
X65820060Y67228670D02*
Y67251130D01*
X65822600Y67228668D02*
Y67251128D01*
X65825140Y67228666D02*
Y67251126D01*
X65827680Y67228664D02*
Y67251124D01*
X65830220Y67228662D02*
Y67251122D01*
X65694552Y67188769D02*
X65832012Y67188661D01*
X65832030Y67211121*
X65694570Y67211229*
X65694552Y67188769*
X65694553Y67190285D02*
X65832013D01*
X65694555Y67192825D02*
X65832015D01*
X65694557Y67195365D02*
X65832017D01*
X65694559Y67197905D02*
X65832019D01*
X65694561Y67200445D02*
X65832021D01*
X65694563Y67202985D02*
X65832023D01*
X65694565Y67205525D02*
X65832025D01*
X65694567Y67208065D02*
X65832027D01*
X65694569Y67210605D02*
X65832029D01*
X65695600Y67188768D02*
Y67211228D01*
X65698140Y67188766D02*
Y67211226D01*
X65700680Y67188764D02*
Y67211224D01*
X65703220Y67188762D02*
Y67211222D01*
X65705760Y67188760D02*
Y67211220D01*
X65708300Y67188758D02*
Y67211218D01*
X65710840Y67188756D02*
Y67211216D01*
X65713380Y67188754D02*
Y67211214D01*
X65715920Y67188752D02*
Y67211212D01*
X65718460Y67188750D02*
Y67211210D01*
X65721000Y67188748D02*
Y67211208D01*
X65723540Y67188746D02*
Y67211206D01*
X65726080Y67188744D02*
Y67211204D01*
X65728620Y67188742D02*
Y67211202D01*
X65731160Y67188740D02*
Y67211200D01*
X65733700Y67188738D02*
Y67211198D01*
X65736240Y67188736D02*
Y67211196D01*
X65738780Y67188734D02*
Y67211194D01*
X65741320Y67188732D02*
Y67211192D01*
X65743860Y67188730D02*
Y67211190D01*
X65746400Y67188728D02*
Y67211188D01*
X65748940Y67188726D02*
Y67211186D01*
X65751480Y67188724D02*
Y67211184D01*
X65754020Y67188722D02*
Y67211182D01*
X65756560Y67188720D02*
Y67211180D01*
X65759100Y67188718D02*
Y67211178D01*
X65761640Y67188716D02*
Y67211176D01*
X65764180Y67188714D02*
Y67211174D01*
X65766720Y67188712D02*
Y67211172D01*
X65769260Y67188710D02*
Y67211170D01*
X65771800Y67188708D02*
Y67211168D01*
X65774340Y67188706D02*
Y67211166D01*
X65776880Y67188704D02*
Y67211164D01*
X65779420Y67188702D02*
Y67211162D01*
X65781960Y67188700D02*
Y67211160D01*
X65784500Y67188698D02*
Y67211158D01*
X65787040Y67188696D02*
Y67211156D01*
X65789580Y67188694D02*
Y67211154D01*
X65792120Y67188692D02*
Y67211152D01*
X65794660Y67188690D02*
Y67211150D01*
X65797200Y67188688D02*
Y67211148D01*
X65799740Y67188686D02*
Y67211146D01*
X65802280Y67188684D02*
Y67211144D01*
X65804820Y67188682D02*
Y67211142D01*
X65807360Y67188680D02*
Y67211140D01*
X65809900Y67188678D02*
Y67211138D01*
X65812440Y67188676D02*
Y67211136D01*
X65814980Y67188674D02*
Y67211134D01*
X65817520Y67188672D02*
Y67211132D01*
X65820060Y67188670D02*
Y67211130D01*
X65822600Y67188668D02*
Y67211128D01*
X65825140Y67188666D02*
Y67211126D01*
X65827680Y67188665D02*
Y67211124D01*
X65830220Y67188663D02*
Y67211122D01*
X65694552Y67148769D02*
X65832012Y67148661D01*
X65832030Y67171121*
X65694570Y67171229*
X65694552Y67148769*
X65694553Y67149645D02*
X65832013D01*
X65694555Y67152185D02*
X65832015D01*
X65694557Y67154725D02*
X65832017D01*
X65694559Y67157265D02*
X65832019D01*
X65694561Y67159805D02*
X65832021D01*
X65694563Y67162345D02*
X65832023D01*
X65694565Y67164885D02*
X65832025D01*
X65694567Y67167425D02*
X65832027D01*
X65694569Y67169965D02*
X65832029D01*
X65695600Y67148768D02*
Y67171228D01*
X65698140Y67148766D02*
Y67171226D01*
X65700680Y67148764D02*
Y67171224D01*
X65703220Y67148762D02*
Y67171222D01*
X65705760Y67148760D02*
Y67171220D01*
X65708300Y67148758D02*
Y67171218D01*
X65710840Y67148756D02*
Y67171216D01*
X65713380Y67148754D02*
Y67171214D01*
X65715920Y67148752D02*
Y67171212D01*
X65718460Y67148750D02*
Y67171210D01*
X65721000Y67148748D02*
Y67171208D01*
X65723540Y67148746D02*
Y67171206D01*
X65726080Y67148744D02*
Y67171204D01*
X65728620Y67148742D02*
Y67171202D01*
X65731160Y67148740D02*
Y67171200D01*
X65733700Y67148738D02*
Y67171198D01*
X65736240Y67148736D02*
Y67171196D01*
X65738780Y67148734D02*
Y67171194D01*
X65741320Y67148732D02*
Y67171192D01*
X65743860Y67148730D02*
Y67171190D01*
X65746400Y67148728D02*
Y67171188D01*
X65748940Y67148726D02*
Y67171186D01*
X65751480Y67148724D02*
Y67171184D01*
X65754020Y67148722D02*
Y67171182D01*
X65756560Y67148720D02*
Y67171180D01*
X65759100Y67148718D02*
Y67171178D01*
X65761640Y67148716D02*
Y67171176D01*
X65764180Y67148714D02*
Y67171174D01*
X65766720Y67148713D02*
Y67171172D01*
X65769260Y67148711D02*
Y67171170D01*
X65771800Y67148709D02*
Y67171168D01*
X65774340Y67148707D02*
Y67171166D01*
X65776880Y67148705D02*
Y67171164D01*
X65779420Y67148703D02*
Y67171162D01*
X65781960Y67148701D02*
Y67171160D01*
X65784500Y67148699D02*
Y67171158D01*
X65787040Y67148697D02*
Y67171156D01*
X65789580Y67148695D02*
Y67171154D01*
X65792120Y67148693D02*
Y67171152D01*
X65794660Y67148691D02*
Y67171150D01*
X65797200Y67148689D02*
Y67171148D01*
X65799740Y67148687D02*
Y67171146D01*
X65802280Y67148685D02*
Y67171144D01*
X65804820Y67148683D02*
Y67171142D01*
X65807360Y67148681D02*
Y67171140D01*
X65809900Y67148679D02*
Y67171138D01*
X65812440Y67148677D02*
Y67171136D01*
X65814980Y67148675D02*
Y67171134D01*
X65817520Y67148673D02*
Y67171132D01*
X65820060Y67148671D02*
Y67171130D01*
X65822600Y67148669D02*
Y67171128D01*
X65825140Y67148667D02*
Y67171126D01*
X65827680Y67148665D02*
Y67171124D01*
X65830220Y67148663D02*
Y67171122D01*
X65694552Y67108769D02*
X65832012Y67108661D01*
X65832030Y67131121*
X65694570Y67131229*
X65694552Y67108769*
Y67109005D02*
X65832012D01*
X65694554Y67111545D02*
X65832014D01*
X65694556Y67114085D02*
X65832016D01*
X65694558Y67116625D02*
X65832018D01*
X65694560Y67119165D02*
X65832020D01*
X65694562Y67121705D02*
X65832022D01*
X65694564Y67124245D02*
X65832024D01*
X65694566Y67126785D02*
X65832026D01*
X65694568Y67129325D02*
X65832028D01*
X65695600Y67108768D02*
Y67131228D01*
X65698140Y67108766D02*
Y67131226D01*
X65700680Y67108764D02*
Y67131224D01*
X65703220Y67108762D02*
Y67131222D01*
X65705760Y67108760D02*
Y67131220D01*
X65708300Y67108758D02*
Y67131218D01*
X65710840Y67108756D02*
Y67131216D01*
X65713380Y67108754D02*
Y67131214D01*
X65715920Y67108752D02*
Y67131212D01*
X65718460Y67108750D02*
Y67131210D01*
X65721000Y67108748D02*
Y67131208D01*
X65723540Y67108746D02*
Y67131206D01*
X65726080Y67108744D02*
Y67131204D01*
X65728620Y67108742D02*
Y67131202D01*
X65731160Y67108740D02*
Y67131200D01*
X65733700Y67108738D02*
Y67131198D01*
X65736240Y67108736D02*
Y67131196D01*
X65738780Y67108734D02*
Y67131194D01*
X65741320Y67108732D02*
Y67131192D01*
X65743860Y67108730D02*
Y67131190D01*
X65746400Y67108728D02*
Y67131188D01*
X65748940Y67108726D02*
Y67131186D01*
X65751480Y67108724D02*
Y67131184D01*
X65754020Y67108722D02*
Y67131182D01*
X65756560Y67108720D02*
Y67131180D01*
X65759100Y67108718D02*
Y67131178D01*
X65761640Y67108716D02*
Y67131176D01*
X65764180Y67108714D02*
Y67131174D01*
X65766720Y67108712D02*
Y67131172D01*
X65769260Y67108710D02*
Y67131170D01*
X65771800Y67108708D02*
Y67131168D01*
X65774340Y67108706D02*
Y67131166D01*
X65776880Y67108704D02*
Y67131164D01*
X65779420Y67108702D02*
Y67131162D01*
X65781960Y67108700D02*
Y67131160D01*
X65784500Y67108698D02*
Y67131158D01*
X65787040Y67108696D02*
Y67131156D01*
X65789580Y67108694D02*
Y67131154D01*
X65792120Y67108692D02*
Y67131152D01*
X65794660Y67108690D02*
Y67131150D01*
X65797200Y67108688D02*
Y67131148D01*
X65799740Y67108686D02*
Y67131146D01*
X65802280Y67108684D02*
Y67131144D01*
X65804820Y67108682D02*
Y67131142D01*
X65807360Y67108680D02*
Y67131140D01*
X65809900Y67108678D02*
Y67131138D01*
X65812440Y67108676D02*
Y67131136D01*
X65814980Y67108674D02*
Y67131134D01*
X65817520Y67108672D02*
Y67131132D01*
X65820060Y67108670D02*
Y67131130D01*
X65822600Y67108668D02*
Y67131128D01*
X65825140Y67108666D02*
Y67131126D01*
X65827680Y67108664D02*
Y67131124D01*
X65830220Y67108662D02*
Y67131122D01*
X65694552Y67068769D02*
X65832012Y67068661D01*
X65832030Y67091121*
X65694570Y67091229*
X65694552Y67068769*
X65694554Y67070905D02*
X65832014D01*
X65694556Y67073445D02*
X65832016D01*
X65694558Y67075985D02*
X65832018D01*
X65694560Y67078525D02*
X65832020D01*
X65694562Y67081065D02*
X65832022D01*
X65694564Y67083605D02*
X65832024D01*
X65694566Y67086145D02*
X65832026D01*
X65694568Y67088685D02*
X65832028D01*
X65694570Y67091225D02*
X65699582D01*
X65695600Y67068768D02*
Y67091228D01*
X65698140Y67068766D02*
Y67091226D01*
X65700680Y67068764D02*
Y67091224D01*
X65703220Y67068762D02*
Y67091222D01*
X65705760Y67068760D02*
Y67091220D01*
X65708300Y67068758D02*
Y67091218D01*
X65710840Y67068756D02*
Y67091216D01*
X65713380Y67068754D02*
Y67091214D01*
X65715920Y67068752D02*
Y67091212D01*
X65718460Y67068750D02*
Y67091210D01*
X65721000Y67068748D02*
Y67091208D01*
X65723540Y67068746D02*
Y67091206D01*
X65726080Y67068744D02*
Y67091204D01*
X65728620Y67068742D02*
Y67091202D01*
X65731160Y67068740D02*
Y67091200D01*
X65733700Y67068738D02*
Y67091198D01*
X65736240Y67068736D02*
Y67091196D01*
X65738780Y67068734D02*
Y67091194D01*
X65741320Y67068732D02*
Y67091192D01*
X65743860Y67068730D02*
Y67091190D01*
X65746400Y67068728D02*
Y67091188D01*
X65748940Y67068726D02*
Y67091186D01*
X65751480Y67068724D02*
Y67091184D01*
X65754020Y67068722D02*
Y67091182D01*
X65756560Y67068720D02*
Y67091180D01*
X65759100Y67068718D02*
Y67091178D01*
X65761640Y67068716D02*
Y67091176D01*
X65764180Y67068714D02*
Y67091174D01*
X65766720Y67068712D02*
Y67091172D01*
X65769260Y67068710D02*
Y67091170D01*
X65771800Y67068708D02*
Y67091168D01*
X65774340Y67068706D02*
Y67091166D01*
X65776880Y67068704D02*
Y67091164D01*
X65779420Y67068702D02*
Y67091162D01*
X65781960Y67068700D02*
Y67091160D01*
X65784500Y67068698D02*
Y67091158D01*
X65787040Y67068696D02*
Y67091156D01*
X65789580Y67068694D02*
Y67091154D01*
X65792120Y67068692D02*
Y67091152D01*
X65794660Y67068690D02*
Y67091150D01*
X65797200Y67068688D02*
Y67091148D01*
X65799740Y67068686D02*
Y67091146D01*
X65802280Y67068684D02*
Y67091144D01*
X65804820Y67068682D02*
Y67091142D01*
X65807360Y67068680D02*
Y67091140D01*
X65809900Y67068678D02*
Y67091138D01*
X65812440Y67068676D02*
Y67091136D01*
X65814980Y67068674D02*
Y67091134D01*
X65817520Y67068672D02*
Y67091132D01*
X65820060Y67068670D02*
Y67091130D01*
X65822600Y67068668D02*
Y67091128D01*
X65825140Y67068666D02*
Y67091126D01*
X65827680Y67068665D02*
Y67091124D01*
X65830220Y67068663D02*
Y67091122D01*
X65694552Y67028769D02*
X65832012Y67028661D01*
X65832030Y67051121*
X65694570Y67051229*
X65694552Y67028769*
X65694553Y67030265D02*
X65832013D01*
X65694555Y67032805D02*
X65832015D01*
X65694557Y67035345D02*
X65832017D01*
X65694559Y67037885D02*
X65832019D01*
X65694561Y67040425D02*
X65832021D01*
X65694563Y67042965D02*
X65832023D01*
X65694565Y67045505D02*
X65832025D01*
X65694567Y67048045D02*
X65832027D01*
X65694569Y67050585D02*
X65832029D01*
X65695600Y67028768D02*
Y67051228D01*
X65698140Y67028766D02*
Y67051226D01*
X65700680Y67028764D02*
Y67051224D01*
X65703220Y67028762D02*
Y67051222D01*
X65705760Y67028760D02*
Y67051220D01*
X65708300Y67028758D02*
Y67051218D01*
X65710840Y67028756D02*
Y67051216D01*
X65713380Y67028754D02*
Y67051214D01*
X65715920Y67028752D02*
Y67051212D01*
X65718460Y67028750D02*
Y67051210D01*
X65721000Y67028748D02*
Y67051208D01*
X65723540Y67028746D02*
Y67051206D01*
X65726080Y67028744D02*
Y67051204D01*
X65728620Y67028742D02*
Y67051202D01*
X65731160Y67028740D02*
Y67051200D01*
X65733700Y67028738D02*
Y67051198D01*
X65736240Y67028736D02*
Y67051196D01*
X65738780Y67028734D02*
Y67051194D01*
X65741320Y67028732D02*
Y67051192D01*
X65743860Y67028730D02*
Y67051190D01*
X65746400Y67028728D02*
Y67051188D01*
X65748940Y67028726D02*
Y67051186D01*
X65751480Y67028724D02*
Y67051184D01*
X65754020Y67028722D02*
Y67051182D01*
X65756560Y67028720D02*
Y67051180D01*
X65759100Y67028718D02*
Y67051178D01*
X65761640Y67028716D02*
Y67051176D01*
X65764180Y67028714D02*
Y67051174D01*
X65766720Y67028712D02*
Y67051172D01*
X65769260Y67028710D02*
Y67051170D01*
X65771800Y67028708D02*
Y67051168D01*
X65774340Y67028706D02*
Y67051166D01*
X65776880Y67028704D02*
Y67051164D01*
X65779420Y67028702D02*
Y67051162D01*
X65781960Y67028700D02*
Y67051160D01*
X65784500Y67028698D02*
Y67051158D01*
X65787040Y67028696D02*
Y67051156D01*
X65789580Y67028694D02*
Y67051154D01*
X65792120Y67028692D02*
Y67051152D01*
X65794660Y67028690D02*
Y67051150D01*
X65797200Y67028689D02*
Y67051148D01*
X65799740Y67028687D02*
Y67051146D01*
X65802280Y67028685D02*
Y67051144D01*
X65804820Y67028683D02*
Y67051142D01*
X65807360Y67028681D02*
Y67051140D01*
X65809900Y67028679D02*
Y67051138D01*
X65812440Y67028677D02*
Y67051136D01*
X65814980Y67028675D02*
Y67051134D01*
X65817520Y67028673D02*
Y67051132D01*
X65820060Y67028671D02*
Y67051130D01*
X65822600Y67028669D02*
Y67051128D01*
X65825140Y67028667D02*
Y67051126D01*
X65827680Y67028665D02*
Y67051124D01*
X65830220Y67028663D02*
Y67051122D01*
X65694552Y66988769D02*
X65832012Y66988661D01*
X65832030Y67011121*
X65694570Y67011229*
X65694552Y66988769*
X65694553Y66989625D02*
X65832013D01*
X65694555Y66992165D02*
X65832015D01*
X65694557Y66994705D02*
X65832017D01*
X65694559Y66997245D02*
X65832019D01*
X65694561Y66999785D02*
X65832021D01*
X65694563Y67002325D02*
X65832023D01*
X65694565Y67004865D02*
X65832025D01*
X65694567Y67007405D02*
X65832027D01*
X65694569Y67009945D02*
X65832029D01*
X65695600Y66988768D02*
Y67011228D01*
X65698140Y66988766D02*
Y67011226D01*
X65700680Y66988764D02*
Y67011224D01*
X65703220Y66988762D02*
Y67011222D01*
X65705760Y66988760D02*
Y67011220D01*
X65708300Y66988758D02*
Y67011218D01*
X65710840Y66988756D02*
Y67011216D01*
X65713380Y66988754D02*
Y67011214D01*
X65715920Y66988752D02*
Y67011212D01*
X65718460Y66988750D02*
Y67011210D01*
X65721000Y66988748D02*
Y67011208D01*
X65723540Y66988746D02*
Y67011206D01*
X65726080Y66988744D02*
Y67011204D01*
X65728620Y66988742D02*
Y67011202D01*
X65731160Y66988740D02*
Y67011200D01*
X65733700Y66988738D02*
Y67011198D01*
X65736240Y66988736D02*
Y67011196D01*
X65738780Y66988734D02*
Y67011194D01*
X65741320Y66988732D02*
Y67011192D01*
X65743860Y66988730D02*
Y67011190D01*
X65746400Y66988728D02*
Y67011188D01*
X65748940Y66988726D02*
Y67011186D01*
X65751480Y66988724D02*
Y67011184D01*
X65754020Y66988722D02*
Y67011182D01*
X65756560Y66988720D02*
Y67011180D01*
X65759100Y66988718D02*
Y67011178D01*
X65761640Y66988716D02*
Y67011176D01*
X65764180Y66988714D02*
Y67011174D01*
X65766720Y66988712D02*
Y67011172D01*
X65769260Y66988710D02*
Y67011170D01*
X65771800Y66988708D02*
Y67011168D01*
X65774340Y66988706D02*
Y67011166D01*
X65776880Y66988704D02*
Y67011164D01*
X65779420Y66988702D02*
Y67011162D01*
X65781960Y66988700D02*
Y67011160D01*
X65784500Y66988698D02*
Y67011158D01*
X65787040Y66988696D02*
Y67011156D01*
X65789580Y66988694D02*
Y67011154D01*
X65792120Y66988692D02*
Y67011152D01*
X65794660Y66988690D02*
Y67011150D01*
X65797200Y66988688D02*
Y67011148D01*
X65799740Y66988686D02*
Y67011146D01*
X65802280Y66988684D02*
Y67011144D01*
X65804820Y66988682D02*
Y67011142D01*
X65807360Y66988680D02*
Y67011140D01*
X65809900Y66988678D02*
Y67011138D01*
X65812440Y66988676D02*
Y67011136D01*
X65814980Y66988674D02*
Y67011134D01*
X65817520Y66988672D02*
Y67011132D01*
X65820060Y66988670D02*
Y67011130D01*
X65822600Y66988668D02*
Y67011128D01*
X65825140Y66988666D02*
Y67011126D01*
X65827680Y66988665D02*
Y67011124D01*
X65830220Y66988663D02*
Y67011122D01*
X65694552Y66948769D02*
X65832012Y66948661D01*
X65832030Y66971121*
X65694570Y66971229*
X65694552Y66948769*
Y66948985D02*
X65832012D01*
X65694554Y66951525D02*
X65832014D01*
X65694556Y66954065D02*
X65832016D01*
X65694558Y66956605D02*
X65832018D01*
X65694560Y66959145D02*
X65832020D01*
X65694562Y66961685D02*
X65832022D01*
X65694564Y66964225D02*
X65832024D01*
X65694566Y66966765D02*
X65832026D01*
X65694568Y66969305D02*
X65832028D01*
X65695600Y66948768D02*
Y66971228D01*
X65698140Y66948766D02*
Y66971226D01*
X65700680Y66948764D02*
Y66971224D01*
X65703220Y66948762D02*
Y66971222D01*
X65705760Y66948760D02*
Y66971220D01*
X65708300Y66948758D02*
Y66971218D01*
X65710840Y66948756D02*
Y66971216D01*
X65713380Y66948754D02*
Y66971214D01*
X65715920Y66948752D02*
Y66971212D01*
X65718460Y66948750D02*
Y66971210D01*
X65721000Y66948748D02*
Y66971208D01*
X65723540Y66948746D02*
Y66971206D01*
X65726080Y66948744D02*
Y66971204D01*
X65728620Y66948742D02*
Y66971202D01*
X65731160Y66948740D02*
Y66971200D01*
X65733700Y66948738D02*
Y66971198D01*
X65736240Y66948736D02*
Y66971196D01*
X65738780Y66948734D02*
Y66971194D01*
X65741320Y66948732D02*
Y66971192D01*
X65743860Y66948730D02*
Y66971190D01*
X65746400Y66948728D02*
Y66971188D01*
X65748940Y66948726D02*
Y66971186D01*
X65751480Y66948724D02*
Y66971184D01*
X65754020Y66948722D02*
Y66971182D01*
X65756560Y66948720D02*
Y66971180D01*
X65759100Y66948718D02*
Y66971178D01*
X65761640Y66948716D02*
Y66971176D01*
X65764180Y66948714D02*
Y66971174D01*
X65766720Y66948712D02*
Y66971172D01*
X65769260Y66948710D02*
Y66971170D01*
X65771800Y66948708D02*
Y66971168D01*
X65774340Y66948706D02*
Y66971166D01*
X65776880Y66948704D02*
Y66971164D01*
X65779420Y66948702D02*
Y66971162D01*
X65781960Y66948700D02*
Y66971160D01*
X65784500Y66948698D02*
Y66971158D01*
X65787040Y66948696D02*
Y66971156D01*
X65789580Y66948694D02*
Y66971154D01*
X65792120Y66948692D02*
Y66971152D01*
X65794660Y66948690D02*
Y66971150D01*
X65797200Y66948689D02*
Y66971148D01*
X65799740Y66948687D02*
Y66971146D01*
X65802280Y66948685D02*
Y66971144D01*
X65804820Y66948683D02*
Y66971142D01*
X65807360Y66948681D02*
Y66971140D01*
X65809900Y66948679D02*
Y66971138D01*
X65812440Y66948677D02*
Y66971136D01*
X65814980Y66948675D02*
Y66971134D01*
X65817520Y66948673D02*
Y66971132D01*
X65820060Y66948671D02*
Y66971130D01*
X65822600Y66948669D02*
Y66971128D01*
X65825140Y66948667D02*
Y66971126D01*
X65827680Y66948665D02*
Y66971124D01*
X65830220Y66948663D02*
Y66971122D01*
X65694552Y66908769D02*
X65832012Y66908661D01*
X65832030Y66931121*
X65694570Y66931229*
X65694552Y66908769*
X65694554Y66910885D02*
X65832014D01*
X65694556Y66913425D02*
X65832016D01*
X65694558Y66915965D02*
X65832018D01*
X65694560Y66918505D02*
X65832020D01*
X65694562Y66921045D02*
X65832022D01*
X65694564Y66923585D02*
X65832024D01*
X65694566Y66926125D02*
X65832026D01*
X65694568Y66928665D02*
X65832028D01*
X65694570Y66931205D02*
X65725239D01*
X65695600Y66908768D02*
Y66931228D01*
X65698140Y66908766D02*
Y66931226D01*
X65700680Y66908764D02*
Y66931224D01*
X65703220Y66908762D02*
Y66931222D01*
X65705760Y66908760D02*
Y66931220D01*
X65708300Y66908758D02*
Y66931218D01*
X65710840Y66908756D02*
Y66931216D01*
X65713380Y66908754D02*
Y66931214D01*
X65715920Y66908752D02*
Y66931212D01*
X65718460Y66908750D02*
Y66931210D01*
X65721000Y66908748D02*
Y66931208D01*
X65723540Y66908746D02*
Y66931206D01*
X65726080Y66908744D02*
Y66931204D01*
X65728620Y66908742D02*
Y66931202D01*
X65731160Y66908740D02*
Y66931200D01*
X65733700Y66908738D02*
Y66931198D01*
X65736240Y66908736D02*
Y66931196D01*
X65738780Y66908734D02*
Y66931194D01*
X65741320Y66908732D02*
Y66931192D01*
X65743860Y66908730D02*
Y66931190D01*
X65746400Y66908728D02*
Y66931188D01*
X65748940Y66908726D02*
Y66931186D01*
X65751480Y66908724D02*
Y66931184D01*
X65754020Y66908722D02*
Y66931182D01*
X65756560Y66908720D02*
Y66931180D01*
X65759100Y66908718D02*
Y66931178D01*
X65761640Y66908716D02*
Y66931176D01*
X65764180Y66908714D02*
Y66931174D01*
X65766720Y66908713D02*
Y66931172D01*
X65769260Y66908711D02*
Y66931170D01*
X65771800Y66908709D02*
Y66931168D01*
X65774340Y66908707D02*
Y66931166D01*
X65776880Y66908705D02*
Y66931164D01*
X65779420Y66908703D02*
Y66931162D01*
X65781960Y66908701D02*
Y66931160D01*
X65784500Y66908699D02*
Y66931158D01*
X65787040Y66908697D02*
Y66931156D01*
X65789580Y66908695D02*
Y66931154D01*
X65792120Y66908693D02*
Y66931152D01*
X65794660Y66908691D02*
Y66931150D01*
X65797200Y66908689D02*
Y66931148D01*
X65799740Y66908687D02*
Y66931146D01*
X65802280Y66908685D02*
Y66931144D01*
X65804820Y66908683D02*
Y66931142D01*
X65807360Y66908681D02*
Y66931140D01*
X65809900Y66908679D02*
Y66931138D01*
X65812440Y66908677D02*
Y66931136D01*
X65814980Y66908675D02*
Y66931134D01*
X65817520Y66908673D02*
Y66931132D01*
X65820060Y66908671D02*
Y66931130D01*
X65822600Y66908669D02*
Y66931128D01*
X65825140Y66908667D02*
Y66931126D01*
X65827680Y66908665D02*
Y66931124D01*
X65830220Y66908663D02*
Y66931122D01*
X65694552Y66868769D02*
X65832012Y66868661D01*
X65832030Y66891121*
X65694570Y66891229*
X65694552Y66868769*
X65694553Y66870245D02*
X65832013D01*
X65694555Y66872785D02*
X65832015D01*
X65694557Y66875325D02*
X65832017D01*
X65694559Y66877865D02*
X65832019D01*
X65694561Y66880405D02*
X65832021D01*
X65694563Y66882945D02*
X65832023D01*
X65694565Y66885485D02*
X65832025D01*
X65694567Y66888025D02*
X65832027D01*
X65694569Y66890565D02*
X65832029D01*
X65695600Y66868768D02*
Y66891228D01*
X65698140Y66868766D02*
Y66891226D01*
X65700680Y66868764D02*
Y66891224D01*
X65703220Y66868762D02*
Y66891222D01*
X65705760Y66868760D02*
Y66891220D01*
X65708300Y66868758D02*
Y66891218D01*
X65710840Y66868756D02*
Y66891216D01*
X65713380Y66868754D02*
Y66891214D01*
X65715920Y66868752D02*
Y66891212D01*
X65718460Y66868750D02*
Y66891210D01*
X65721000Y66868748D02*
Y66891208D01*
X65723540Y66868746D02*
Y66891206D01*
X65726080Y66868744D02*
Y66891204D01*
X65728620Y66868742D02*
Y66891202D01*
X65731160Y66868740D02*
Y66891200D01*
X65733700Y66868738D02*
Y66891198D01*
X65736240Y66868736D02*
Y66891196D01*
X65738780Y66868734D02*
Y66891194D01*
X65741320Y66868732D02*
Y66891192D01*
X65743860Y66868730D02*
Y66891190D01*
X65746400Y66868728D02*
Y66891188D01*
X65748940Y66868726D02*
Y66891186D01*
X65751480Y66868724D02*
Y66891184D01*
X65754020Y66868722D02*
Y66891182D01*
X65756560Y66868720D02*
Y66891180D01*
X65759100Y66868718D02*
Y66891178D01*
X65761640Y66868716D02*
Y66891176D01*
X65764180Y66868714D02*
Y66891174D01*
X65766720Y66868712D02*
Y66891172D01*
X65769260Y66868710D02*
Y66891170D01*
X65771800Y66868708D02*
Y66891168D01*
X65774340Y66868706D02*
Y66891166D01*
X65776880Y66868704D02*
Y66891164D01*
X65779420Y66868702D02*
Y66891162D01*
X65781960Y66868700D02*
Y66891160D01*
X65784500Y66868698D02*
Y66891158D01*
X65787040Y66868696D02*
Y66891156D01*
X65789580Y66868694D02*
Y66891154D01*
X65792120Y66868692D02*
Y66891152D01*
X65794660Y66868690D02*
Y66891150D01*
X65797200Y66868688D02*
Y66891148D01*
X65799740Y66868686D02*
Y66891146D01*
X65802280Y66868684D02*
Y66891144D01*
X65804820Y66868682D02*
Y66891142D01*
X65807360Y66868680D02*
Y66891140D01*
X65809900Y66868678D02*
Y66891138D01*
X65812440Y66868676D02*
Y66891136D01*
X65814980Y66868674D02*
Y66891134D01*
X65817520Y66868672D02*
Y66891132D01*
X65820060Y66868670D02*
Y66891130D01*
X65822600Y66868668D02*
Y66891128D01*
X65825140Y66868666D02*
Y66891126D01*
X65827680Y66868664D02*
Y66891124D01*
X65830220Y66868662D02*
Y66891122D01*
X65694552Y66828769D02*
X65832012Y66828661D01*
X65832030Y66851121*
X65694570Y66851229*
X65694552Y66828769*
X65694553Y66829605D02*
X65832013D01*
X65694555Y66832145D02*
X65832015D01*
X65694557Y66834685D02*
X65832017D01*
X65694559Y66837225D02*
X65832019D01*
X65694561Y66839765D02*
X65832021D01*
X65694563Y66842305D02*
X65832023D01*
X65694565Y66844845D02*
X65832025D01*
X65694567Y66847385D02*
X65832027D01*
X65694569Y66849925D02*
X65832029D01*
X65695600Y66828768D02*
Y66851228D01*
X65698140Y66828766D02*
Y66851226D01*
X65700680Y66828764D02*
Y66851224D01*
X65703220Y66828762D02*
Y66851222D01*
X65705760Y66828760D02*
Y66851220D01*
X65708300Y66828758D02*
Y66851218D01*
X65710840Y66828756D02*
Y66851216D01*
X65713380Y66828754D02*
Y66851214D01*
X65715920Y66828752D02*
Y66851212D01*
X65718460Y66828750D02*
Y66851210D01*
X65721000Y66828748D02*
Y66851208D01*
X65723540Y66828746D02*
Y66851206D01*
X65726080Y66828744D02*
Y66851204D01*
X65728620Y66828742D02*
Y66851202D01*
X65731160Y66828740D02*
Y66851200D01*
X65733700Y66828738D02*
Y66851198D01*
X65736240Y66828736D02*
Y66851196D01*
X65738780Y66828734D02*
Y66851194D01*
X65741320Y66828732D02*
Y66851192D01*
X65743860Y66828730D02*
Y66851190D01*
X65746400Y66828728D02*
Y66851188D01*
X65748940Y66828726D02*
Y66851186D01*
X65751480Y66828724D02*
Y66851184D01*
X65754020Y66828722D02*
Y66851182D01*
X65756560Y66828720D02*
Y66851180D01*
X65759100Y66828718D02*
Y66851178D01*
X65761640Y66828716D02*
Y66851176D01*
X65764180Y66828714D02*
Y66851174D01*
X65766720Y66828712D02*
Y66851172D01*
X65769260Y66828710D02*
Y66851170D01*
X65771800Y66828708D02*
Y66851168D01*
X65774340Y66828706D02*
Y66851166D01*
X65776880Y66828704D02*
Y66851164D01*
X65779420Y66828702D02*
Y66851162D01*
X65781960Y66828700D02*
Y66851160D01*
X65784500Y66828698D02*
Y66851158D01*
X65787040Y66828696D02*
Y66851156D01*
X65789580Y66828694D02*
Y66851154D01*
X65792120Y66828692D02*
Y66851152D01*
X65794660Y66828690D02*
Y66851150D01*
X65797200Y66828689D02*
Y66851148D01*
X65799740Y66828687D02*
Y66851146D01*
X65802280Y66828685D02*
Y66851144D01*
X65804820Y66828683D02*
Y66851142D01*
X65807360Y66828681D02*
Y66851140D01*
X65809900Y66828679D02*
Y66851138D01*
X65812440Y66828677D02*
Y66851136D01*
X65814980Y66828675D02*
Y66851134D01*
X65817520Y66828673D02*
Y66851132D01*
X65820060Y66828671D02*
Y66851130D01*
X65822600Y66828669D02*
Y66851128D01*
X65825140Y66828667D02*
Y66851126D01*
X65827680Y66828665D02*
Y66851124D01*
X65830220Y66828663D02*
Y66851122D01*
X65694552Y66788769D02*
X65832012Y66788661D01*
X65832030Y66811121*
X65694570Y66811229*
X65694552Y66788769*
Y66788965D02*
X65832012D01*
X65694554Y66791505D02*
X65832014D01*
X65694556Y66794045D02*
X65832016D01*
X65694558Y66796585D02*
X65832018D01*
X65694560Y66799125D02*
X65832020D01*
X65694562Y66801665D02*
X65832022D01*
X65694564Y66804205D02*
X65832024D01*
X65694566Y66806745D02*
X65832026D01*
X65694568Y66809285D02*
X65832028D01*
X65695600Y66788768D02*
Y66811228D01*
X65698140Y66788766D02*
Y66811226D01*
X65700680Y66788764D02*
Y66811224D01*
X65703220Y66788762D02*
Y66811222D01*
X65705760Y66788760D02*
Y66811220D01*
X65708300Y66788758D02*
Y66811218D01*
X65710840Y66788756D02*
Y66811216D01*
X65713380Y66788754D02*
Y66811214D01*
X65715920Y66788752D02*
Y66811212D01*
X65718460Y66788750D02*
Y66811210D01*
X65721000Y66788748D02*
Y66811208D01*
X65723540Y66788746D02*
Y66811206D01*
X65726080Y66788744D02*
Y66811204D01*
X65728620Y66788742D02*
Y66811202D01*
X65731160Y66788740D02*
Y66811200D01*
X65733700Y66788738D02*
Y66811198D01*
X65736240Y66788736D02*
Y66811196D01*
X65738780Y66788734D02*
Y66811194D01*
X65741320Y66788732D02*
Y66811192D01*
X65743860Y66788730D02*
Y66811190D01*
X65746400Y66788728D02*
Y66811188D01*
X65748940Y66788726D02*
Y66811186D01*
X65751480Y66788724D02*
Y66811184D01*
X65754020Y66788722D02*
Y66811182D01*
X65756560Y66788720D02*
Y66811180D01*
X65759100Y66788718D02*
Y66811178D01*
X65761640Y66788716D02*
Y66811176D01*
X65764180Y66788714D02*
Y66811174D01*
X65766720Y66788713D02*
Y66811172D01*
X65769260Y66788711D02*
Y66811170D01*
X65771800Y66788709D02*
Y66811168D01*
X65774340Y66788707D02*
Y66811166D01*
X65776880Y66788705D02*
Y66811164D01*
X65779420Y66788703D02*
Y66811162D01*
X65781960Y66788701D02*
Y66811160D01*
X65784500Y66788699D02*
Y66811158D01*
X65787040Y66788697D02*
Y66811156D01*
X65789580Y66788695D02*
Y66811154D01*
X65792120Y66788693D02*
Y66811152D01*
X65794660Y66788691D02*
Y66811150D01*
X65797200Y66788689D02*
Y66811148D01*
X65799740Y66788687D02*
Y66811146D01*
X65802280Y66788685D02*
Y66811144D01*
X65804820Y66788683D02*
Y66811142D01*
X65807360Y66788681D02*
Y66811140D01*
X65809900Y66788679D02*
Y66811138D01*
X65812440Y66788677D02*
Y66811136D01*
X65814980Y66788675D02*
Y66811134D01*
X65817520Y66788673D02*
Y66811132D01*
X65820060Y66788671D02*
Y66811130D01*
X65822600Y66788669D02*
Y66811128D01*
X65825140Y66788667D02*
Y66811126D01*
X65827680Y66788665D02*
Y66811124D01*
X65830220Y66788663D02*
Y66811122D01*
X65694552Y66748769D02*
X65832012Y66748661D01*
X65832030Y66771121*
X65694570Y66771229*
X65694552Y66748769*
X65694554Y66750865D02*
X65832014D01*
X65694556Y66753405D02*
X65832016D01*
X65694558Y66755945D02*
X65832018D01*
X65694560Y66758485D02*
X65832020D01*
X65694562Y66761025D02*
X65832022D01*
X65694564Y66763565D02*
X65832024D01*
X65694566Y66766105D02*
X65832026D01*
X65694568Y66768645D02*
X65832028D01*
X65694570Y66771185D02*
X65750811D01*
X65695600Y66748768D02*
Y66771228D01*
X65698140Y66748766D02*
Y66771226D01*
X65700680Y66748764D02*
Y66771224D01*
X65703220Y66748762D02*
Y66771222D01*
X65705760Y66748760D02*
Y66771220D01*
X65708300Y66748758D02*
Y66771218D01*
X65710840Y66748756D02*
Y66771216D01*
X65713380Y66748754D02*
Y66771214D01*
X65715920Y66748752D02*
Y66771212D01*
X65718460Y66748750D02*
Y66771210D01*
X65721000Y66748748D02*
Y66771208D01*
X65723540Y66748746D02*
Y66771206D01*
X65726080Y66748744D02*
Y66771204D01*
X65728620Y66748742D02*
Y66771202D01*
X65731160Y66748740D02*
Y66771200D01*
X65733700Y66748738D02*
Y66771198D01*
X65736240Y66748737D02*
Y66771196D01*
X65738780Y66748735D02*
Y66771194D01*
X65741320Y66748733D02*
Y66771192D01*
X65743860Y66748731D02*
Y66771190D01*
X65746400Y66748729D02*
Y66771188D01*
X65748940Y66748727D02*
Y66771186D01*
X65751480Y66748725D02*
Y66771184D01*
X65754020Y66748723D02*
Y66771182D01*
X65756560Y66748721D02*
Y66771180D01*
X65759100Y66748719D02*
Y66771178D01*
X65761640Y66748717D02*
Y66771176D01*
X65764180Y66748715D02*
Y66771174D01*
X65766720Y66748713D02*
Y66771172D01*
X65769260Y66748711D02*
Y66771170D01*
X65771800Y66748709D02*
Y66771168D01*
X65774340Y66748707D02*
Y66771166D01*
X65776880Y66748705D02*
Y66771164D01*
X65779420Y66748703D02*
Y66771162D01*
X65781960Y66748701D02*
Y66771160D01*
X65784500Y66748699D02*
Y66771158D01*
X65787040Y66748697D02*
Y66771156D01*
X65789580Y66748695D02*
Y66771154D01*
X65792120Y66748693D02*
Y66771152D01*
X65794660Y66748691D02*
Y66771150D01*
X65797200Y66748689D02*
Y66771148D01*
X65799740Y66748687D02*
Y66771146D01*
X65802280Y66748685D02*
Y66771144D01*
X65804820Y66748683D02*
Y66771142D01*
X65807360Y66748681D02*
Y66771140D01*
X65809900Y66748679D02*
Y66771138D01*
X65812440Y66748677D02*
Y66771136D01*
X65814980Y66748675D02*
Y66771134D01*
X65817520Y66748673D02*
Y66771132D01*
X65820060Y66748671D02*
Y66771130D01*
X65822600Y66748669D02*
Y66771129D01*
X65825140Y66748667D02*
Y66771127D01*
X65827680Y66748665D02*
Y66771125D01*
X65830220Y66748663D02*
Y66771123D01*
X65694552Y66708769D02*
X65832012Y66708661D01*
X65832030Y66731121*
X65694570Y66731229*
X65694552Y66708769*
X65694553Y66710225D02*
X65832013D01*
X65694555Y66712765D02*
X65832015D01*
X65694557Y66715305D02*
X65832017D01*
X65694559Y66717845D02*
X65832019D01*
X65694561Y66720385D02*
X65832021D01*
X65694563Y66722925D02*
X65832023D01*
X65694565Y66725465D02*
X65832025D01*
X65694567Y66728005D02*
X65832027D01*
X65694569Y66730545D02*
X65832029D01*
X65695600Y66708768D02*
Y66731228D01*
X65698140Y66708766D02*
Y66731226D01*
X65700680Y66708764D02*
Y66731224D01*
X65703220Y66708762D02*
Y66731222D01*
X65705760Y66708760D02*
Y66731220D01*
X65708300Y66708758D02*
Y66731218D01*
X65710840Y66708756D02*
Y66731216D01*
X65713380Y66708754D02*
Y66731214D01*
X65715920Y66708752D02*
Y66731212D01*
X65718460Y66708750D02*
Y66731210D01*
X65721000Y66708748D02*
Y66731208D01*
X65723540Y66708746D02*
Y66731206D01*
X65726080Y66708744D02*
Y66731204D01*
X65728620Y66708742D02*
Y66731202D01*
X65731160Y66708740D02*
Y66731200D01*
X65733700Y66708738D02*
Y66731198D01*
X65736240Y66708736D02*
Y66731196D01*
X65738780Y66708734D02*
Y66731194D01*
X65741320Y66708732D02*
Y66731192D01*
X65743860Y66708730D02*
Y66731190D01*
X65746400Y66708728D02*
Y66731188D01*
X65748940Y66708726D02*
Y66731186D01*
X65751480Y66708724D02*
Y66731184D01*
X65754020Y66708722D02*
Y66731182D01*
X65756560Y66708720D02*
Y66731180D01*
X65759100Y66708718D02*
Y66731178D01*
X65761640Y66708716D02*
Y66731176D01*
X65764180Y66708714D02*
Y66731174D01*
X65766720Y66708712D02*
Y66731172D01*
X65769260Y66708710D02*
Y66731170D01*
X65771800Y66708708D02*
Y66731168D01*
X65774340Y66708706D02*
Y66731166D01*
X65776880Y66708704D02*
Y66731164D01*
X65779420Y66708702D02*
Y66731162D01*
X65781960Y66708700D02*
Y66731160D01*
X65784500Y66708698D02*
Y66731158D01*
X65787040Y66708696D02*
Y66731156D01*
X65789580Y66708694D02*
Y66731154D01*
X65792120Y66708692D02*
Y66731152D01*
X65794660Y66708690D02*
Y66731150D01*
X65797200Y66708689D02*
Y66731148D01*
X65799740Y66708687D02*
Y66731146D01*
X65802280Y66708685D02*
Y66731144D01*
X65804820Y66708683D02*
Y66731142D01*
X65807360Y66708681D02*
Y66731140D01*
X65809900Y66708679D02*
Y66731138D01*
X65812440Y66708677D02*
Y66731136D01*
X65814980Y66708675D02*
Y66731134D01*
X65817520Y66708673D02*
Y66731132D01*
X65820060Y66708671D02*
Y66731130D01*
X65822600Y66708669D02*
Y66731128D01*
X65825140Y66708667D02*
Y66731126D01*
X65827680Y66708665D02*
Y66731124D01*
X65830220Y66708663D02*
Y66731122D01*
G54D11*
X67630580Y66375285D03*
X67380580D03*
X67650900Y67198245D03*
X67400900D03*
G54D14*
X61397920Y65996079D03*
Y67644285D03*
G54D20*
X68253380Y68336075D03*
Y68432095D03*
X67048380Y68430395D03*
Y68526415D03*
X64103020Y64550975D03*
Y64454955D03*
X63259740Y65252515D03*
Y65348535D03*
X61928780Y63204775D03*
Y63108755D03*
X67901820Y61694315D03*
Y61790335D03*
X61250850Y64061005D03*
X61346870D03*
X69281830Y61134925D03*
X69185810D03*
X61745900Y63108755D03*
Y63204775D03*
X64242720Y65545385D03*
Y65449365D03*
X63715900Y65346335D03*
Y65250315D03*
X67190620Y62054495D03*
Y61958475D03*
X60892710Y64887775D03*
X60988730D03*
X61620150Y65399925D03*
X61524130D03*
X61531270Y65081835D03*
Y64985815D03*
X63978810Y63446325D03*
X64074830D03*
X67120544Y63958965D03*
X67024524D03*
X67633620Y62356915D03*
Y62452935D03*
X67624095Y65590470D03*
Y65494450D03*
X67639950Y63662565D03*
X67543930D03*
X67078860Y61958475D03*
Y62054495D03*
X63978810Y63547925D03*
X64074830D03*
X63985160Y63763825D03*
X64081180D03*
X67357010Y66672125D03*
X67453030D03*
X68069865Y66184830D03*
Y66088810D03*
X62872620Y65727835D03*
Y65823855D03*
X62984380Y65727835D03*
Y65823855D03*
X62362870Y66326685D03*
X62266850D03*
X62537340Y65727835D03*
Y65823855D03*
X62649100Y65727835D03*
Y65823855D03*
X62760860Y65727835D03*
Y65823855D03*
X63187580Y65727835D03*
Y65823855D03*
X63760120Y68637835D03*
Y68541815D03*
X61611030Y68539025D03*
X61515010D03*
X62362870Y66209845D03*
X62266850D03*
X62162460Y66238035D03*
Y66334055D03*
X68690260Y67456735D03*
Y67360715D03*
X63085980Y65727835D03*
Y65823855D03*
X65715220Y62953135D03*
Y62857115D03*
X65595220Y62953135D03*
Y62857115D03*
X65475220Y62953135D03*
Y62857115D03*
X62318670Y65963715D03*
Y66059735D03*
X65131720Y62954585D03*
Y62858565D03*
X65353970Y62954585D03*
Y62858565D03*
X65246020Y62954585D03*
Y62858565D03*
X63184790Y66131445D03*
X63088770D03*
X68807100Y67456735D03*
Y67360715D03*
X68365140Y68432095D03*
Y68336075D03*
X66926460Y68526415D03*
Y68430395D03*
X68100980Y67350555D03*
Y67446575D03*
X67955565Y66184830D03*
Y66088810D03*
X68926730Y67241085D03*
X69022750D03*
X66817490Y67310005D03*
X66913510D03*
X66249570Y65717085D03*
X66345590D03*
X66533550Y65828845D03*
X66437530D03*
X66457850Y66352085D03*
X66553870D03*
X66203850Y67815125D03*
X66299870D03*
X64114930Y65887605D03*
X64210950D03*
X66087010Y66336845D03*
X66183030D03*
X63916310Y66273685D03*
X63820290D03*
X63184790Y66029845D03*
X63088770D03*
X63604140Y65250315D03*
Y65346335D03*
X63998630Y64462325D03*
X63902610D03*
X68348860Y61694315D03*
Y61790335D03*
X62588140Y62928255D03*
Y62832235D03*
X63584860Y62976175D03*
Y62880155D03*
X64765170Y67878965D03*
X64861190D03*
X64572130D03*
X64668150D03*
X64389250D03*
X64485270D03*
X64206370D03*
X64302390D03*
X64975740Y67465195D03*
Y67561215D03*
X65518050Y66839765D03*
X65614070D03*
X65087270Y67468665D03*
Y67564685D03*
X64975740Y67688715D03*
Y67784735D03*
X63978810Y63655875D03*
X64074830D03*
X63978810Y64137205D03*
X64074830D03*
X68125340Y61790335D03*
Y61694315D03*
X65080920Y67690915D03*
Y67786935D03*
X65483740Y67688715D03*
Y67784735D03*
X65351660D03*
Y67688715D03*
X61250850Y64269285D03*
X61346870D03*
X61250850Y64167685D03*
X61346870D03*
X61250850Y64375965D03*
X61346870D03*
X65229740Y67784735D03*
Y67688715D03*
Y67465195D03*
Y67561215D03*
X60943260Y65856535D03*
Y65760515D03*
X67128410Y65725975D03*
X67224430D03*
X61346870Y63822245D03*
X61250850D03*
X61346870Y63964485D03*
X61250850D03*
X67302380Y61958475D03*
Y62054495D03*
X68177180Y66181655D03*
Y66085635D03*
X63184790Y65928245D03*
X63088770D03*
X62416460Y65826055D03*
Y65730035D03*
X67683910Y66669925D03*
X67587890D03*
X67986430Y61566725D03*
X67890410D03*
X65617880Y67002325D03*
X65521860D03*
X66437530Y65717085D03*
X66533550D03*
X68575170Y64861445D03*
X68671190D03*
X68576210Y63255825D03*
X68672230D03*
X68575170Y65206885D03*
X68671190D03*
X65947060Y67781855D03*
Y67685835D03*
X67589650Y66791845D03*
X67685670D03*
X68470780Y67449455D03*
Y67353435D03*
X68013580Y61694315D03*
Y61790335D03*
X66299870Y67707175D03*
X66203850D03*
X68237100Y61790335D03*
Y61694315D03*
X67901820Y61907675D03*
Y62003695D03*
X66817490Y67198245D03*
X66913510D03*
Y67411605D03*
X66817490D03*
X62308510Y65826055D03*
Y65730035D03*
X63998630Y64614725D03*
X63902610D03*
Y64345485D03*
X63998630D03*
X68207025Y67351825D03*
Y67447845D03*
X67589650Y66903605D03*
X67685670D03*
X68441340Y66090715D03*
Y66186735D03*
X68583580Y67451655D03*
Y67355635D03*
X66553870Y66062525D03*
X66457850D03*
Y66230165D03*
X66553870D03*
X63723270Y66273685D03*
X63627250D03*
X68576210Y64500425D03*
X68672230D03*
X67532020Y62356915D03*
Y62452935D03*
X68672230Y63497125D03*
X68576210D03*
X68575170Y64282325D03*
X68671190D03*
X68576210Y63382825D03*
X68672230D03*
Y63611425D03*
X68576210D03*
X67417720Y62452935D03*
Y62356915D03*
X68672230Y64398825D03*
X68576210D03*
X67941275Y63675762D03*
X68037295D03*
X68575170Y64180725D03*
X68671190D03*
X67253142Y63656732D03*
X67157122D03*
X67290720Y65493815D03*
Y65589835D03*
X67506620Y65493815D03*
Y65589835D03*
X67183075Y62452935D03*
Y62356915D03*
X66832230Y63652405D03*
X66736210D03*
X66925957Y63656732D03*
X67021976D03*
X68576210Y63725725D03*
X68672230D03*
X67062120Y62452935D03*
Y62356915D03*
X68576210Y64983025D03*
X68672230D03*
X67405020Y65493815D03*
Y65589835D03*
X68576210Y64741725D03*
X68672230D03*
X67303420Y62452935D03*
Y62356915D03*
X68576210Y63141525D03*
X68672230D03*
X68575170Y64617605D03*
X68671190D03*
X67176420Y65493815D03*
Y65589835D03*
X68576210Y63014525D03*
X68672230D03*
X68576210Y65084625D03*
X68672230D03*
X61696370Y65894635D03*
Y65798615D03*
X62220630Y65694225D03*
X62124610D03*
X62178970Y66066085D03*
Y65970065D03*
Y65881935D03*
Y65785915D03*
X66345590Y65828845D03*
X66249570D03*
X62396140Y65277415D03*
Y65181395D03*
X62205390Y65325925D03*
X62109370D03*
X62330100Y64611935D03*
Y64515915D03*
G54D21*
X69083940Y66415925D03*
X68893940D03*
X69094100Y66781685D03*
X68904100D03*
G54D22*
X62083720Y67688125D03*
X61926240D03*
X62083720Y67449365D03*
X61926240D03*
X62083720Y67571285D03*
X61926240D03*
X63473100Y67700825D03*
Y67543345D03*
X61229240Y64637925D03*
X61386720D03*
G54D23*
X61524920Y68119925D03*
X61677320D03*
G54D26*
X67060520Y61636575D03*
X66733520D03*
G54D27*
X66688740Y65731385D03*
Y66058385D03*
X65379370Y67245225D03*
Y67572225D03*
G54D29*
X61728120Y67637025D03*
Y67917025D03*
X68319420Y67893565D03*
Y68173565D03*
X66993540Y67974845D03*
Y68254845D03*
G54D30*
X67383660Y66019685D03*
X67586860D03*
X65642260Y66260645D03*
X65845460D03*
X66723260Y67553845D03*
X66926460D03*
X69090540Y66141605D03*
X68887340D03*
X67582820Y65833925D03*
X67379620D03*
X68897500Y67076325D03*
X69100700D03*
X67760620Y65541825D03*
X67963820D03*
X66731920Y62404925D03*
X66935120D03*
X67786020D03*
X67989220D03*
G54D31*
X67208170Y67249975D03*
Y67453175D03*
X66865500Y66842645D03*
Y67045845D03*
X67208170Y66837225D03*
Y67040425D03*
X67862220Y67573825D03*
Y67370625D03*
X68713120Y65986325D03*
Y66189525D03*
X67820540Y65999365D03*
Y66202565D03*
G54D32*
X69049820Y65981245D03*
X68909820D03*
X63015980Y62920885D03*
X63155980D03*
X61367820Y64495685D03*
X61227820D03*
X61658420Y68259625D03*
X61518420D03*
X61658420Y68386625D03*
X61518420D03*
X66961940Y66529885D03*
X66821940D03*
X62242620Y65458005D03*
X62102620D03*
X62247700Y65173525D03*
X62107700D03*
G54D33*
X63136780Y65419125D03*
Y65279125D03*
X67769740Y61712965D03*
Y61852965D03*
X63685420Y65512805D03*
Y65652805D03*
X68319420Y66178245D03*
Y66038245D03*
X68348860Y67372085D03*
Y67512085D03*
X68560720Y66183325D03*
Y66043325D03*
X66693820Y66190645D03*
Y66330645D03*
X62142140Y64468525D03*
Y64608525D03*
G54D42*
X63870060Y65383165D03*
Y65193165D03*
X64090060Y65288165D03*
X63870060Y65738765D03*
Y65548765D03*
X64090060Y65643765D03*
X61357020Y64786765D03*
Y64976765D03*
X61137020Y64881765D03*
X61357020Y65172845D03*
Y65362845D03*
X61137020Y65267845D03*
X63717660Y66622685D03*
Y66432685D03*
X63937660Y66527685D03*
G54D43*
X63910210Y64981565D03*
Y64761545D03*
X64070230D03*
Y64981565D03*
X61838610Y65975635D03*
Y65755615D03*
X61998630D03*
Y65975635D03*
G54D47*
X64215420Y67577725D03*
X64295425Y67577737D03*
Y67747713D03*
X64215420Y67747725D03*
X64398300Y67577725D03*
X64478305Y67577737D03*
Y67747713D03*
X64398300Y67747725D03*
X64576100Y67577725D03*
X64656105Y67577737D03*
Y67747713D03*
X64576100Y67747725D03*
X64763020Y67580605D03*
X64843025Y67580617D03*
Y67750593D03*
X64763020Y67750605D03*
X61247660Y62967965D03*
X61327665Y62967977D03*
Y63137953D03*
X61247660Y63137965D03*
X61450860Y62967965D03*
X61530865Y62967977D03*
Y63137953D03*
X61450860Y63137965D03*
G54D53*
X67263135Y68749007D03*
Y68473997D03*
G54D54*
X68063135Y68749007D03*
Y68093987D03*
X67263135Y67968997D03*
X68063135Y67873997D03*
G54D55*
X62887719Y62865125D03*
X62722721D03*
Y62965125D03*
X62887719D03*
X63477719Y62865125D03*
X63312721D03*
Y62965125D03*
X63477719D03*
G54D56*
X62830214Y62865125D03*
X62780226D03*
Y62965125D03*
X62830214D03*
X63420214Y62865125D03*
X63370226D03*
Y62965125D03*
X63420214D03*
G54D57*
X67027752Y61453851D03*
X67649252D03*
G54D58*
X67208053Y61513001D03*
X67273052D03*
X67338052Y61512501D03*
X67403052Y61513001D03*
X67468052D03*
G54D59*
X67513052Y61250001D03*
X67158052D03*
G54D60*
X67015552Y61245001D03*
X67655552Y61255001D03*
G54D62*
X62310920Y67945625D03*
X62412920D03*
X62514920D03*
X62616920D03*
X62718920D03*
X62820920D03*
X62922920D03*
X63024920D03*
G54D63*
X61805920Y68685625D03*
X63529920D03*
G54D64*
X62368090Y66603799D03*
X62495090D03*
X62622090D03*
X63004090D03*
X63131090D03*
X63258090D03*
Y67481217D03*
X63131090D03*
X63004090D03*
X62622090D03*
X62485090D03*
X62368090D03*
G54D65*
X65292180Y62521095D03*
X65175390D03*
X65073790D03*
X64972190D03*
X64845190D03*
X64743590D03*
X64641990D03*
X64514990D03*
X64413390D03*
G54D66*
X64262180Y62421095D03*
G54D67*
X64292180Y61461105D03*
X65842190D03*
G54D68*
X65772190Y62421095D03*
G54D69*
X62529027Y66280497D03*
Y66230497D03*
Y66180497D03*
Y66130497D03*
Y66080497D03*
Y66030497D03*
X62907027D03*
Y66080497D03*
Y66130497D03*
Y66180497D03*
Y66230497D03*
Y66280497D03*
G54D70*
X62788027Y66085497D03*
X62648028D03*
Y66225497D03*
X62788027D03*
G54D71*
X61561600Y64257355D03*
Y64192355D03*
Y64127355D03*
Y64062355D03*
Y63997355D03*
Y63932355D03*
Y63867355D03*
Y63802355D03*
Y63737355D03*
Y63672355D03*
Y63607355D03*
Y63542355D03*
Y63477355D03*
Y63412355D03*
X62237200D03*
Y63477355D03*
Y63542355D03*
Y63607355D03*
Y63672355D03*
Y63737355D03*
Y63802355D03*
Y63867355D03*
Y63932355D03*
Y63997355D03*
Y64062355D03*
Y64127355D03*
Y64192355D03*
Y64257355D03*
G54D72*
X63369005Y64041174D03*
Y64441174D03*
X63319005Y64141174D03*
Y64091174D03*
X63119005Y63791174D03*
X63169005D03*
X63219005Y63891174D03*
X63119005Y64241174D03*
X63169005D03*
X63219005Y64191174D03*
Y64141174D03*
Y63991174D03*
X63069005D03*
X63019005D03*
X62969005D03*
Y64041174D03*
Y64091174D03*
X62769005Y63591174D03*
X62819005Y63491174D03*
X62919005Y63441174D03*
X63019005D03*
X63169005D03*
X63269005D03*
X63369005Y63491174D03*
X63419005Y63591174D03*
X62769005Y64641174D03*
X62819005Y64741174D03*
X62919005Y64791174D03*
X63019005D03*
X63169005D03*
X63419005Y63791174D03*
X63369005D03*
X63069005D03*
X63019005D03*
X62969005D03*
X62919005D03*
X62869005D03*
X62819005D03*
X62769005D03*
X63419005Y63841174D03*
X63119005D03*
X63069005D03*
X63019005D03*
X62969005D03*
X62919005D03*
X62869005D03*
X62819005D03*
X62769005D03*
X63419005Y63891174D03*
X63319005D03*
X63119005D03*
X63069005D03*
X63019005D03*
X62969005D03*
X62919005D03*
X62869005D03*
X62819005D03*
X62769005D03*
X63419005Y63941174D03*
X63369005D03*
X63319005D03*
X63269005D03*
X62769005D03*
X62819005D03*
X62869005D03*
X63419005Y63991174D03*
X63369005D03*
X63319005D03*
X62869005D03*
X62819005D03*
X62769005D03*
Y64041174D03*
X62819005D03*
X62869005D03*
Y64091174D03*
X62819005D03*
X62769005D03*
Y64141174D03*
X62819005D03*
X62869005D03*
Y64191174D03*
X62819005D03*
X62769005D03*
X63419005Y64041174D03*
X62969005Y64241174D03*
X63319005Y64041174D03*
X63419005Y64091174D03*
X63369005D03*
X63419005Y64141174D03*
X63369005D03*
X63419005Y64191174D03*
X63369005D03*
X63319005D03*
X63419005Y64241174D03*
X63369005D03*
X63319005D03*
X63419005Y64291174D03*
X63369005D03*
X63319005D03*
X63419005Y64341174D03*
X63369005D03*
X63319005D03*
X63419005Y64391174D03*
Y64441174D03*
X63319005Y64391174D03*
X63169005D03*
X63119005Y64341174D03*
Y64391174D03*
Y64441174D03*
X63069005D03*
Y64391174D03*
Y64341174D03*
X62769005Y64241174D03*
Y64291174D03*
Y64341174D03*
Y64391174D03*
Y64441174D03*
X62819005D03*
X62869005D03*
X62919005D03*
X62969005D03*
X63019005D03*
Y64391174D03*
X62969005D03*
X62919005D03*
X62869005D03*
X62819005D03*
Y64341174D03*
X62869005D03*
X62919005D03*
X62969005D03*
X63019005D03*
X62819005Y64291174D03*
X62869005D03*
X62819005Y64241174D03*
X62869005D03*
X63419005Y64641174D03*
X63369005Y64741174D03*
X63269005Y64791174D03*
X63319005Y64441174D03*
X63269005D03*
X63219005D03*
X63169005D03*
X63319005Y63791174D03*
X63269005D03*
X63219005D03*
X63369005Y63841174D03*
X63319005D03*
X63269005D03*
X63219005D03*
X63169005D03*
X63369005Y63891174D03*
X63269005D03*
X63169005D03*
Y63991174D03*
X63119005D03*
X63219005Y64041174D03*
Y64091174D03*
X62969005Y64141174D03*
Y64191174D03*
X63219005Y64241174D03*
X63069005D03*
X63019005D03*
X63269005Y64341174D03*
X63219005D03*
X63169005D03*
X63369005Y64391174D03*
X63269005D03*
X63219005D03*
G54D75*
X63676864Y65062676D03*
X63626843D03*
X63576864D03*
X63526844D03*
X63476863D03*
X63426844D03*
X63376863D03*
X63326843D03*
X63276863D03*
X63226843D03*
X63176864D03*
X63126844D03*
X63076864D03*
X63026844D03*
X62976864D03*
X62926844D03*
X62876863D03*
X62826844D03*
X62776863D03*
X62726843D03*
X62676864D03*
X62626844D03*
X62576864D03*
X62526844D03*
Y63142696D03*
X62576864D03*
X62626844D03*
X62676864D03*
X62726843D03*
X62776863D03*
X62826844D03*
X62876863D03*
X62926844D03*
X62976864D03*
X63026844D03*
X63076864D03*
X63126844D03*
X63176864D03*
X63226843D03*
X63276863D03*
X63326843D03*
X63376863D03*
X63426844D03*
X63476863D03*
X63526844D03*
X63576864D03*
X63626843D03*
X63676864D03*
G54D76*
X67964788Y66979385D03*
Y66939385D03*
Y66899385D03*
Y66859385D03*
Y66819385D03*
Y66779385D03*
Y66739385D03*
Y66699385D03*
Y66659385D03*
Y66619385D03*
Y66579385D03*
Y66539385D03*
X68575252D03*
Y66579385D03*
Y66619385D03*
Y66659385D03*
Y66699385D03*
Y66739385D03*
Y66779385D03*
Y66819385D03*
Y66859385D03*
Y66899385D03*
Y66939385D03*
Y66979385D03*
G54D77*
X68050020Y66454153D03*
X68090020D03*
X68130020D03*
X68170020D03*
X68210020D03*
X68250020D03*
X68290020D03*
X68330020D03*
X68370020D03*
X68410020D03*
X68450020D03*
X68490020D03*
Y67064617D03*
X68450020D03*
X68410020D03*
X68370020D03*
X68330020D03*
X68290020D03*
X68250020D03*
X68210020D03*
X68170020D03*
X68130020D03*
X68090020D03*
X68050020D03*
G54D78*
X68270020Y66759385D03*
G54D79*
X65898680Y66564556D03*
X65938680D03*
X65978680D03*
X66018680D03*
X66058680D03*
X66098680D03*
X66138680D03*
X66178680D03*
X66218680D03*
X66258680D03*
X66298680D03*
X66338680D03*
X66378680D03*
X66418680D03*
X66458680D03*
X66498680D03*
Y67455334D03*
X66458680D03*
X66418680D03*
X66378680D03*
X66338680D03*
X66298680D03*
X66258680D03*
X66218680D03*
X66178680D03*
X66138680D03*
X66098680D03*
X66058680D03*
X66018680D03*
X65978680D03*
X65938680D03*
X65898680D03*
G54D80*
X66654069Y66759945D03*
Y66799945D03*
Y66839945D03*
Y66879945D03*
Y66919945D03*
Y66959945D03*
Y66999945D03*
Y67039945D03*
Y67079945D03*
Y67119945D03*
Y67159945D03*
Y67199945D03*
Y67239945D03*
Y67279945D03*
Y67319945D03*
G54D81*
X64515220Y65785125D03*
Y65865125D03*
Y65945125D03*
Y66025125D03*
Y66105125D03*
Y66185125D03*
Y66265125D03*
Y66345125D03*
Y66425125D03*
Y66505125D03*
Y66585125D03*
Y66665125D03*
X64595220Y65785125D03*
Y65865125D03*
Y65945125D03*
Y66025125D03*
Y66105125D03*
Y66185125D03*
Y66265125D03*
Y66345125D03*
Y66425125D03*
Y66505125D03*
Y66585125D03*
Y66665125D03*
X64675220Y65785125D03*
Y65865125D03*
Y65945125D03*
Y66025125D03*
Y66105125D03*
Y66185125D03*
Y66265125D03*
Y66345125D03*
Y66425125D03*
Y66505125D03*
Y66585125D03*
Y66665125D03*
X64755220Y65785125D03*
Y65865125D03*
Y65945125D03*
Y66025125D03*
Y66105125D03*
Y66185125D03*
Y66265125D03*
Y66345125D03*
Y66425125D03*
Y66505125D03*
Y66585125D03*
Y66665125D03*
X64835220Y65785125D03*
Y65865125D03*
Y65945125D03*
Y66025125D03*
Y66105125D03*
Y66185125D03*
Y66265125D03*
Y66345125D03*
Y66425125D03*
Y66505125D03*
Y66585125D03*
Y66665125D03*
X64915220Y65785125D03*
Y65865125D03*
Y65945125D03*
Y66025125D03*
Y66105125D03*
Y66185125D03*
Y66265125D03*
Y66345125D03*
Y66425125D03*
Y66505125D03*
Y66585125D03*
Y66665125D03*
X64995220Y65785125D03*
Y65865125D03*
Y65945125D03*
Y66025125D03*
Y66105125D03*
Y66185125D03*
Y66265125D03*
Y66345125D03*
Y66425125D03*
Y66505125D03*
Y66585125D03*
Y66665125D03*
X65075220Y65785125D03*
Y65865125D03*
Y65945125D03*
Y66025125D03*
Y66105125D03*
Y66185125D03*
Y66265125D03*
Y66345125D03*
Y66425125D03*
Y66505125D03*
Y66585125D03*
Y66665125D03*
X65155220Y65785125D03*
Y65865125D03*
Y65945125D03*
Y66025125D03*
Y66105125D03*
Y66185125D03*
Y66265125D03*
Y66345125D03*
Y66425125D03*
Y66505125D03*
Y66585125D03*
Y66665125D03*
X65235220Y65785125D03*
Y65865125D03*
Y65945125D03*
Y66025125D03*
Y66105125D03*
Y66185125D03*
Y66265125D03*
Y66345125D03*
Y66425125D03*
Y66505125D03*
Y66585125D03*
Y66665125D03*
X65315220Y65785125D03*
Y65865125D03*
Y65945125D03*
Y66025125D03*
Y66105125D03*
Y66185125D03*
Y66265125D03*
Y66345125D03*
Y66425125D03*
Y66505125D03*
Y66585125D03*
Y66665125D03*
X65395220Y65785125D03*
Y65865125D03*
Y65945125D03*
Y66025125D03*
Y66105125D03*
Y66185125D03*
Y66265125D03*
Y66345125D03*
Y66425125D03*
Y66505125D03*
Y66585125D03*
Y66665125D03*
X66075220Y64885125D03*
Y64805125D03*
Y64645125D03*
Y64565125D03*
Y64405125D03*
Y64325125D03*
Y64165125D03*
Y64085125D03*
Y63925125D03*
Y63845125D03*
Y63685125D03*
Y63605125D03*
Y63445125D03*
Y63365125D03*
Y63205125D03*
Y63125125D03*
X65995220Y64885125D03*
Y64805125D03*
Y64725125D03*
Y64645125D03*
Y64565125D03*
Y64485125D03*
Y64405125D03*
Y64325125D03*
Y64245125D03*
Y64165125D03*
Y64085125D03*
Y64005125D03*
Y63925125D03*
Y63845125D03*
Y63765125D03*
Y63685125D03*
Y63605125D03*
Y63525125D03*
Y63445125D03*
Y63365125D03*
Y63285125D03*
Y63205125D03*
Y63125125D03*
X65915220Y64805125D03*
Y64725125D03*
Y64645125D03*
Y64565125D03*
Y64485125D03*
Y64405125D03*
Y64325125D03*
Y64245125D03*
Y64165125D03*
Y64085125D03*
Y64005125D03*
Y63925125D03*
Y63845125D03*
Y63765125D03*
Y63685125D03*
Y63605125D03*
Y63525125D03*
Y63445125D03*
Y63365125D03*
Y63285125D03*
Y63205125D03*
X65835220Y64885125D03*
Y64805125D03*
Y64725125D03*
Y64645125D03*
Y64565125D03*
Y64485125D03*
Y64405125D03*
Y64325125D03*
Y64165125D03*
Y64085125D03*
Y63925125D03*
Y63845125D03*
Y63685125D03*
Y63605125D03*
Y63525125D03*
Y63445125D03*
Y63365125D03*
Y63285125D03*
Y63205125D03*
Y63125125D03*
X65755220Y64885125D03*
Y64805125D03*
Y64725125D03*
Y64645125D03*
Y64485125D03*
Y64405125D03*
Y64325125D03*
Y64165125D03*
Y64085125D03*
Y63925125D03*
Y63845125D03*
Y63685125D03*
Y63605125D03*
Y63525125D03*
Y63365125D03*
Y63285125D03*
Y63205125D03*
Y63125125D03*
X65675220Y64805125D03*
Y64725125D03*
Y64645125D03*
Y64565125D03*
Y64405125D03*
Y64325125D03*
Y64165125D03*
Y64085125D03*
Y63925125D03*
Y63845125D03*
Y63685125D03*
Y63605125D03*
Y63445125D03*
Y63365125D03*
Y63285125D03*
Y63205125D03*
X65595220Y64885125D03*
Y64805125D03*
Y64725125D03*
Y64645125D03*
Y64565125D03*
Y64485125D03*
Y64325125D03*
Y64245125D03*
Y64165125D03*
Y64085125D03*
Y64005125D03*
Y63925125D03*
Y63845125D03*
Y63765125D03*
Y63685125D03*
Y63525125D03*
Y63445125D03*
Y63365125D03*
Y63285125D03*
Y63205125D03*
Y63125125D03*
X65515220Y64885125D03*
Y64805125D03*
Y64725125D03*
Y64645125D03*
Y64565125D03*
Y64485125D03*
Y64405125D03*
Y64325125D03*
Y64245125D03*
Y64165125D03*
Y64085125D03*
Y64005125D03*
Y63925125D03*
Y63845125D03*
Y63765125D03*
Y63685125D03*
Y63605125D03*
Y63525125D03*
Y63445125D03*
Y63365125D03*
Y63285125D03*
Y63205125D03*
Y63125125D03*
X65435220Y64805125D03*
Y64725125D03*
Y64405125D03*
Y64325125D03*
Y64245125D03*
Y64165125D03*
Y64085125D03*
Y64005125D03*
Y63925125D03*
Y63845125D03*
Y63765125D03*
Y63685125D03*
Y63605125D03*
Y63285125D03*
Y63205125D03*
X65355220Y64885125D03*
Y64805125D03*
Y64725125D03*
Y64645125D03*
Y64565125D03*
Y64485125D03*
Y64405125D03*
Y64325125D03*
Y64245125D03*
Y64165125D03*
Y64085125D03*
Y64005125D03*
Y63925125D03*
Y63845125D03*
Y63765125D03*
Y63685125D03*
Y63605125D03*
Y63525125D03*
Y63445125D03*
Y63365125D03*
Y63285125D03*
Y63205125D03*
Y63125125D03*
X65275220Y64885125D03*
Y64805125D03*
Y64725125D03*
Y64645125D03*
Y64565125D03*
Y64485125D03*
Y64405125D03*
Y64325125D03*
Y64245125D03*
Y64165125D03*
Y64085125D03*
Y64005125D03*
Y63925125D03*
Y63845125D03*
Y63765125D03*
Y63685125D03*
Y63605125D03*
Y63525125D03*
Y63445125D03*
Y63365125D03*
Y63285125D03*
Y63205125D03*
Y63125125D03*
X65195220Y64805125D03*
Y64725125D03*
Y64405125D03*
Y64325125D03*
Y64245125D03*
Y64165125D03*
Y64085125D03*
Y64005125D03*
Y63925125D03*
Y63845125D03*
Y63765125D03*
Y63685125D03*
Y63605125D03*
Y63285125D03*
Y63205125D03*
X65115220Y64885125D03*
Y64805125D03*
Y64725125D03*
Y64645125D03*
Y64565125D03*
Y64485125D03*
Y64405125D03*
Y64325125D03*
Y64245125D03*
Y64165125D03*
Y64085125D03*
Y64005125D03*
Y63925125D03*
Y63845125D03*
Y63765125D03*
Y63685125D03*
Y63605125D03*
Y63525125D03*
Y63445125D03*
Y63365125D03*
Y63285125D03*
Y63205125D03*
Y63125125D03*
X65035220Y64885125D03*
Y64805125D03*
Y64725125D03*
Y64645125D03*
Y64565125D03*
Y64485125D03*
Y64405125D03*
Y64325125D03*
Y64245125D03*
Y64165125D03*
Y64085125D03*
Y64005125D03*
Y63925125D03*
Y63845125D03*
Y63765125D03*
Y63685125D03*
Y63605125D03*
Y63525125D03*
Y63445125D03*
Y63365125D03*
Y63285125D03*
Y63205125D03*
Y63125125D03*
X64955220Y64805125D03*
Y64725125D03*
Y64405125D03*
Y64325125D03*
Y64245125D03*
Y64165125D03*
Y64085125D03*
Y64005125D03*
Y63925125D03*
Y63845125D03*
Y63765125D03*
Y63685125D03*
Y63605125D03*
Y63285125D03*
Y63205125D03*
X64875220Y64885125D03*
Y64805125D03*
Y64725125D03*
Y64645125D03*
Y64565125D03*
Y64485125D03*
Y64405125D03*
Y64325125D03*
Y64245125D03*
Y64165125D03*
Y64085125D03*
Y64005125D03*
Y63925125D03*
Y63845125D03*
Y63765125D03*
Y63685125D03*
Y63605125D03*
Y63525125D03*
Y63445125D03*
Y63365125D03*
Y63285125D03*
Y63205125D03*
Y63125125D03*
X64795220Y64885125D03*
Y64805125D03*
Y64725125D03*
Y64645125D03*
Y64565125D03*
Y64485125D03*
Y64325125D03*
Y64245125D03*
Y64165125D03*
Y64085125D03*
Y64005125D03*
Y63925125D03*
Y63845125D03*
Y63765125D03*
Y63685125D03*
Y63525125D03*
Y63445125D03*
Y63365125D03*
Y63285125D03*
Y63205125D03*
Y63125125D03*
X64715220Y64805125D03*
Y64725125D03*
Y64645125D03*
Y64565125D03*
Y64405125D03*
Y64325125D03*
Y64165125D03*
Y64085125D03*
Y63925125D03*
Y63845125D03*
Y63685125D03*
Y63605125D03*
Y63445125D03*
Y63365125D03*
Y63285125D03*
Y63205125D03*
X64635220Y64885125D03*
Y64805125D03*
Y64725125D03*
Y64645125D03*
Y64485125D03*
Y64405125D03*
Y64325125D03*
Y64165125D03*
Y64085125D03*
Y63925125D03*
Y63845125D03*
Y63685125D03*
Y63605125D03*
Y63525125D03*
Y63365125D03*
Y63285125D03*
Y63205125D03*
Y63125125D03*
X64555220Y64885125D03*
Y64805125D03*
Y64725125D03*
Y64645125D03*
Y64565125D03*
Y64485125D03*
Y64405125D03*
Y64325125D03*
Y64165125D03*
Y64085125D03*
Y63925125D03*
Y63845125D03*
Y63685125D03*
Y63605125D03*
Y63525125D03*
Y63445125D03*
Y63365125D03*
Y63285125D03*
Y63205125D03*
Y63125125D03*
X64475220Y64805125D03*
Y64725125D03*
Y64645125D03*
Y64565125D03*
Y64485125D03*
Y64405125D03*
Y64325125D03*
Y64245125D03*
Y64165125D03*
Y64085125D03*
Y64005125D03*
Y63925125D03*
Y63845125D03*
Y63765125D03*
Y63685125D03*
Y63605125D03*
Y63525125D03*
Y63445125D03*
Y63365125D03*
Y63285125D03*
Y63205125D03*
X64395220Y64885125D03*
Y64805125D03*
Y64725125D03*
Y64645125D03*
Y64565125D03*
Y64485125D03*
Y64405125D03*
Y64325125D03*
Y64245125D03*
Y64165125D03*
Y64085125D03*
Y64005125D03*
Y63925125D03*
Y63845125D03*
Y63765125D03*
Y63685125D03*
Y63605125D03*
Y63525125D03*
Y63445125D03*
Y63365125D03*
Y63285125D03*
Y63205125D03*
Y63125125D03*
X64315220Y64885125D03*
Y64805125D03*
Y64645125D03*
Y64565125D03*
Y64405125D03*
Y64325125D03*
Y64165125D03*
Y64085125D03*
Y63925125D03*
Y63845125D03*
Y63685125D03*
Y63605125D03*
Y63445125D03*
Y63365125D03*
Y63205125D03*
Y63125125D03*
G54D82*
X64240220Y68082325D03*
X64290220D03*
X64340220D03*
X64390220D03*
X64440220D03*
X64490220D03*
X64540220D03*
X64590220D03*
X64640220D03*
X64690220D03*
X64740220D03*
X64790220D03*
X64840220D03*
X64890220D03*
X64940220D03*
X64990220D03*
X65040220D03*
X65090220D03*
X65140220D03*
G54D83*
X63965220Y68187825D03*
X65415220D03*
G54D84*
X63965220Y68807825D03*
X65415220D03*
G54D85*
X66746140Y65513885D03*
X66936140D03*
G54D86*
X66732491Y64542109D03*
Y64622109D03*
Y64702109D03*
Y65022109D03*
Y65102109D03*
Y65182109D03*
X66812491Y64542109D03*
Y64622109D03*
Y64702109D03*
Y65022109D03*
Y65102109D03*
Y65182109D03*
X66892491Y64542109D03*
Y64622109D03*
Y64702109D03*
Y65022109D03*
Y65102109D03*
Y65182109D03*
X66972491Y64542109D03*
Y64622109D03*
Y64702109D03*
Y65022109D03*
Y65102109D03*
Y65182109D03*
X67052491Y64542109D03*
Y64622109D03*
Y64702109D03*
Y65022109D03*
Y65102109D03*
Y65182109D03*
X67132491Y64542109D03*
Y64622109D03*
Y64702109D03*
Y65022109D03*
Y65102109D03*
Y65182109D03*
X67212491Y64542109D03*
Y64622109D03*
Y64702109D03*
Y65022109D03*
Y65102109D03*
Y65182109D03*
X67292491Y64542109D03*
Y64622109D03*
Y64702109D03*
Y65022109D03*
Y65102109D03*
Y65182109D03*
X67372491Y64542109D03*
Y64622109D03*
Y64702109D03*
Y65022109D03*
Y65102109D03*
Y65182109D03*
X67452491Y64542109D03*
Y64622109D03*
Y64702109D03*
Y65022109D03*
Y65102109D03*
Y65182109D03*
X67532491Y64542109D03*
Y64622109D03*
Y64702109D03*
Y65022109D03*
Y65102109D03*
Y65182109D03*
X67612491Y64542109D03*
Y64622109D03*
Y64702109D03*
Y65022109D03*
Y65102109D03*
Y65182109D03*
X67692491Y64542109D03*
Y64622109D03*
Y64702109D03*
Y65022109D03*
Y65102109D03*
Y65182109D03*
X67772491Y64542109D03*
Y64622109D03*
Y64702109D03*
Y65022109D03*
Y65102109D03*
Y65182109D03*
X67852491Y64542109D03*
Y64622109D03*
Y64702109D03*
Y65022109D03*
Y65102109D03*
Y65182109D03*
X67932491Y64542109D03*
Y64622109D03*
Y64702109D03*
Y65022109D03*
Y65102109D03*
Y65182109D03*
X66732496Y62759146D03*
Y62839146D03*
Y62919146D03*
Y63239146D03*
Y63319146D03*
Y63399146D03*
X66812496Y62759146D03*
Y62839146D03*
Y62919146D03*
Y63239146D03*
Y63319146D03*
Y63399146D03*
X66892496Y62759146D03*
Y62839146D03*
Y62919146D03*
Y63239146D03*
Y63319146D03*
Y63399146D03*
X66972496Y62759146D03*
Y62839146D03*
Y62919146D03*
Y63239146D03*
Y63319146D03*
Y63399146D03*
X67052496Y62759146D03*
Y62839146D03*
Y62919146D03*
Y63239146D03*
Y63319146D03*
Y63399146D03*
X67132496Y62759146D03*
Y62839146D03*
Y62919146D03*
Y63239146D03*
Y63319146D03*
Y63399146D03*
X67212496Y62759146D03*
Y62839146D03*
Y62919146D03*
Y63239146D03*
Y63319146D03*
Y63399146D03*
X67292496Y62759146D03*
Y62839146D03*
Y62919146D03*
Y63239146D03*
Y63319146D03*
Y63399146D03*
X67372496Y62759146D03*
Y62839146D03*
Y62919146D03*
Y63239146D03*
Y63319146D03*
Y63399146D03*
X67452496Y62759146D03*
Y62839146D03*
Y62919146D03*
Y63239146D03*
Y63319146D03*
Y63399146D03*
X67532496Y62759146D03*
Y62839146D03*
Y62919146D03*
Y63239146D03*
Y63319146D03*
Y63399146D03*
X67612496Y62759146D03*
Y62839146D03*
Y62919146D03*
Y63239146D03*
Y63319146D03*
Y63399146D03*
X67692496Y62759146D03*
Y62839146D03*
Y62919146D03*
Y63239146D03*
Y63319146D03*
Y63399146D03*
X67772496Y62759146D03*
Y62839146D03*
Y62919146D03*
Y63239146D03*
Y63319146D03*
Y63399146D03*
X67852496Y62759146D03*
Y62839146D03*
Y62919146D03*
Y63239146D03*
Y63319146D03*
Y63399146D03*
X67932496Y62759146D03*
Y62839146D03*
Y62919146D03*
Y63239146D03*
Y63319146D03*
Y63399146D03*
G54D87*
X60679100Y62359205D03*
X69863740Y68282485D03*
G54D88*
X61457260Y65597965D03*
X60995260Y62736965D03*
X63982260D03*
X66649260Y62222965D03*
X69001260Y62227965D03*
X63947260Y67705965D03*
X68518260Y67704965D03*
G54D89*
X60640260Y65068965D03*
X60644260Y63099965D03*
X69407260Y63061965D03*
X69402260Y66739965D03*
X63545058Y66575961D03*
G54D92*
X68893460Y61122225D03*
X69040780D03*
X68410860D03*
X68558180D03*
X67915560D03*
X68062880D03*
X61575720Y68879385D03*
Y68732065D03*
X63760120Y68917485D03*
Y68770165D03*
G54D103*
X62147220Y64746805D03*
X62242216D03*
X62337212D03*
Y65016807D03*
X62147220D03*
G54D104*
X69898260Y61020965D02*
G75*
G03X70025260Y61147965I0J127000D01*
G01X69898260Y61020965D02*
X60152260D01*
X60025260Y61147965D02*
G03X60152260Y61020965I127000J-0D01*
G01X60025260Y61147965D02*
Y68893965D01*
X60152260Y69020965D02*
G03X60025260Y68893965I0J-127000D01*
G01X60152260Y69020965D02*
X61933860D01*
Y68140245*
X63396900*
Y69020965*
X67485260*
Y68894965*
X67840860*
Y69020965*
X69898260*
X70025260Y68893965D02*
G03X69898260Y69020965I-127000J-0D01*
G01X70025260Y68893965D02*
Y61147965D01*
G54D149*
X65804820Y65729245D03*
Y65979245D03*
G54D150*
X60133960Y62476965D03*
X60134160Y61696965D03*
X69914560Y61697965D03*
X69914360Y62477965D03*
G54D151*
X60334260Y62296965D03*
Y61876965D03*
X69714260Y61877965D03*
Y62297965D03*
G54D152*
X66151780Y65952925D03*
X66246780D03*
X66341780D03*
Y66222925D03*
X66246780D03*
X66151780D03*
G54D155*
X60958500Y64032645D03*
Y63662645D03*
G54D156*
X63472060Y65278125D03*
Y65420125D03*
X61065180Y65904925D03*
Y65762925D03*
X61931320Y65204125D03*
Y65346125D03*
X61753520Y65204125D03*
Y65346125D03*
G74*
X0Y0D02*
M02*
