G04 ================== begin FILE IDENTIFICATION RECORD ==================*
G04 Layout Name:  BeagleY-AI_PCB_Rev A_240426.brd*
G04 Film Name:    07_L07_PWR2*
G04 File Format:  Gerber RS274X*
G04 File Origin:  Cadence Allegro 17.4-S035*
G04 Origin Date:  Fri Jun 14 10:05:08 2024*
G04 *
G04 Layer:  VIA CLASS/L7-PWR2*
G04 Layer:  PIN/L7-PWR2*
G04 Layer:  ETCH/L7-PWR2*
G04 Layer:  DRAWING FORMAT/TITLE_BLOCK*
G04 Layer:  DRAWING FORMAT/TB_L07*
G04 Layer:  BOARD GEOMETRY/OUTLINE*
G04 *
G04 Offset:    (0.00 0.00)*
G04 Mirror:    No*
G04 Mode:      Positive*
G04 Rotation:  0*
G04 FullContactRelief:  No*
G04 UndefLineWidth:     6.00*
G04 ================== end FILE IDENTIFICATION RECORD ====================*
%FSLAX25Y25*MOIN*%
%IR0*IPPOS*OFA0.00000B0.00000*MIA0B0*SFA1.00000B1.00000*%
%ADD10C,.014*%
%ADD15C,.02362*%
%ADD16C,.04724*%
%ADD18C,.06299*%
%ADD13C,.12795*%
%ADD17O,.03543X.09843*%
%ADD12O,.08661X.04724*%
%ADD11O,.06299X.04134*%
%ADD14O,.03937X.07874*%
%ADD19C,.01*%
%ADD20C,.02*%
%ADD21C,.012*%
%ADD22C,.0182*%
%ADD23C,.004*%
%ADD24C,.005*%
%ADD25C,.006*%
%ADD29C,.02004*%
%ADD28C,.02204*%
%ADD31C,.01804*%
%ADD30C,.05734*%
%ADD26C,.05844*%
%ADD32C,.03766*%
%ADD27C,.13819*%
G75*
%LPD*%
G75*
G36*
G01X138983Y181100D02*
X143617D01*
G02X143759Y181041I0J-200D01*
G01X147041Y177759D01*
G02X147100Y177617I-141J-142D01*
G01Y175425D01*
G02X147019Y175264I-200J0D01*
G01X146721Y175045D01*
X146628Y175029D01*
X146582Y175043D01*
G03X143382Y172684I-730J-2360D01*
G01Y168746D01*
G03X144953Y166446I2470J1D01*
G01X145001Y166427D01*
X145066Y166351D01*
X145145Y165973D01*
G02X145090Y165790I-196J-41D01*
G01X144859Y165559D01*
G03X144800Y165417I141J-142D01*
G01Y139783D01*
G03X144859Y139641I200J0D01*
G01X148241Y136259D01*
G03X148383Y136200I142J141D01*
G01X204617D01*
G03X204759Y136259I0J200D01*
G01X208241Y139741D01*
G03X208300Y139883I-141J142D01*
G01Y145017D01*
G03X208241Y145159I-200J0D01*
G01X205959Y147441D01*
G02X205900Y147583I141J142D01*
G01Y155127D01*
G02X205923Y155220I200J0D01*
G03X206792Y158707I-6567J3488D01*
G03X205923Y162194I-7436J-1D01*
G02X205900Y162287I177J93D01*
G01Y166338D01*
G02X206004Y166513I200J0D01*
G01X206362Y166708D01*
X206470Y166704D01*
X206517Y166673D01*
G03X210330Y168746I1343J2073D01*
G01Y172684D01*
G03X210328Y172790I-2470J6D01*
G01X210325Y172853D01*
X210390Y172956D01*
X210788Y173132D01*
G02X211010Y173090I80J-183D01*
G01X211041Y173059D01*
G02X211100Y172917I-141J-142D01*
G01Y157783D01*
G02X211041Y157641I-200J0D01*
G01X208759Y155359D01*
G03X208700Y155217I141J-142D01*
G01Y147883D01*
G03X208759Y147741I200J0D01*
G01X213141Y143359D01*
G03X213283Y143300I142J141D01*
G01X216617D01*
G02X216759Y143241I0J-200D01*
G01X217241Y142759D01*
G02X217300Y142617I-141J-142D01*
G01Y132927D01*
X217299Y132916D01*
G03Y132284I2897J-316D01*
G01X217300Y132273D01*
Y130383D01*
G02X217241Y130241I-200J0D01*
G01X216159Y129159D01*
G02X216017Y129100I-142J141D01*
G01X147715D01*
G02X147685Y129102I-2J200D01*
G01X146419Y129297D01*
G02X146382Y129307I33J197D01*
G01X143926Y130191D01*
G02X143878Y130216I67J188D01*
G01X140831Y132378D01*
G02X140779Y132432I116J163D01*
G01X138617Y135774D01*
G02X138592Y135830I168J109D01*
G01X137807Y138674D01*
G02X137800Y138727I193J52D01*
G01Y179917D01*
G02X137859Y180059I200J0D01*
G01X138841Y181041D01*
G02X138983Y181100I142J-141D01*
G37*
G36*
G01X144130Y375200D02*
X156142D01*
G02X156316Y375099I0J-200D01*
G01X156515Y374751D01*
X156514Y374644D01*
X156487Y374597D01*
G03X156431Y372088I2213J-1305D01*
G01X156456Y372041D01*
X156454Y371936D01*
X156250Y371597D01*
G02X156078Y371500I-172J103D01*
G01X146883D01*
G03X146741Y371441I0J-200D01*
G01X140959Y365659D01*
G03X140900Y365517I141J-142D01*
G01Y356583D01*
G03X140959Y356441I200J0D01*
G01X146541Y350859D01*
G03X146683Y350800I142J141D01*
G01X154217D01*
G02X154359Y350741I0J-200D01*
G01X154641Y350459D01*
G02X154700Y350317I-141J-142D01*
G01Y349083D01*
G02X154641Y348941I-200J0D01*
G01X154259Y348559D01*
G02X154117Y348500I-142J141D01*
G01X144541D01*
G02X144400Y348558I0J200D01*
G01X144171Y348786D01*
X144141Y348857D01*
Y348898D01*
G03X141572Y351452I-2569J-15D01*
G01X139408D01*
G03X138363Y351229I2J-2569D01*
G01X138316Y351208D01*
X138216Y351216D01*
X137891Y351427D01*
G02X137800Y351595I109J168D01*
G01Y370581D01*
G02X137891Y370749I200J0D01*
G01X138216Y370960D01*
X138316Y370968D01*
X138363Y370947D01*
G03X139408Y370724I1047J2346D01*
G01X141572D01*
G03X143785Y374597I0J2569D01*
G01X143758Y374644D01*
X143757Y374751D01*
X143956Y375099D01*
G02X144130Y375200I174J-99D01*
G37*
G36*
G01X146849Y437000D02*
X153319D01*
G02X153483Y436915I0J-200D01*
G01X153699Y436606D01*
X153711Y436509D01*
X153694Y436463D01*
G03X153878Y434093I2689J-983D01*
G01X153903Y434047D01*
X153902Y433941D01*
X153700Y433598D01*
G02X153527Y433500I-172J102D01*
G01X150083D01*
G03X149941Y433441I0J-200D01*
G01X147059Y430559D01*
G03X147000Y430417I141J-142D01*
G01Y406583D01*
G03X147059Y406441I200J0D01*
G01X149941Y403559D01*
G03X150083Y403500I142J141D01*
G01X153474D01*
G02X153645Y403405I1J-200D01*
G01X153851Y403069D01*
X153855Y402966D01*
X153831Y402919D01*
G03X153951Y400111I2553J-1297D01*
G01X153979Y400065D01*
X153982Y399956D01*
X153785Y399603D01*
G02X153611Y399500I-175J97D01*
G01X146557D01*
G02X146383Y399603I1J200D01*
G01X146186Y399956D01*
X146189Y400065D01*
X146217Y400111D01*
G03X143784Y404484I-2433J1510D01*
G01X139848D01*
G03X138577Y404187I-1J-2863D01*
G01X138531Y404164D01*
X138428Y404169D01*
X138095Y404376D01*
G02X138000Y404546I105J170D01*
G01Y432554D01*
G02X138095Y432724I200J0D01*
G01X138428Y432931D01*
X138531Y432936D01*
X138577Y432913D01*
G03X139848Y432616I1270J2566D01*
G01X143784D01*
G03X146474Y436463I1J2863D01*
G01X146457Y436509D01*
X146469Y436606D01*
X146685Y436915D01*
G02X146849Y437000I164J-115D01*
G37*
G36*
G01X220077Y448400D02*
X272217D01*
G02X272359Y448341I0J-200D01*
G01X273192Y447508D01*
G02X273243Y447311I-141J-142D01*
G01Y447310D01*
G03X273198Y447000I1057J-312D01*
G03X274300Y445898I1102J0D01*
G03X274610Y445943I-2J1102D01*
G01X274611D01*
G02X274808Y445892I55J-192D01*
G01X275041Y445659D01*
G02X275100Y445517I-141J-142D01*
G01Y434283D01*
G03X275159Y434141I200J0D01*
G01X279041Y430259D01*
G03X279183Y430200I142J141D01*
G01X294159D01*
X294304Y430138D01*
G03X295100Y429798I796J762D01*
G03X295407Y429841I2J1102D01*
G01X295448Y429853D01*
X295533Y429842D01*
X295858Y429636D01*
X295905Y429565D01*
X295912Y429522D01*
G03X297000Y428598I1088J179D01*
G03X298102Y429700I0J1102D01*
G03X298100Y429773I-1102J6D01*
G02X298153Y429924I200J15D01*
G01X298353Y430137D01*
G02X298498Y430200I146J-137D01*
G01X304886D01*
X305049Y430115D01*
G03X305950Y429648I901J636D01*
G03X306644Y429894I0J1102D01*
G01X306672Y429917D01*
X306738Y429939D01*
X307035Y429932D01*
G02X307163Y429881I-6J-200D01*
G03X307900Y429598I737J818D01*
G03X308829Y430108I0J1101D01*
G02X308997Y430200I168J-108D01*
G01X311284D01*
G02X311447Y430115I-1J-200D01*
G01X311664Y429808D01*
X311677Y429713D01*
X311661Y429667D01*
G03X311598Y429300I1039J-367D01*
G01Y429298D01*
G03X311799Y428665I1101J1D01*
G01X311835Y428550D01*
X311799Y428435D01*
G03X311598Y427802I900J-634D01*
G01Y427800D01*
G03X312700Y426698I1102J0D01*
G01X312702D01*
G03X313335Y426899I-1J1101D01*
G01X313450Y426935D01*
X313565Y426899D01*
G03X314835I635J900D01*
G01X314950Y426935D01*
X315065Y426899D01*
G03X316335I635J900D01*
G01X316450Y426935D01*
X316565Y426899D01*
G03X317835I635J900D01*
G01X317950Y426935D01*
X318065Y426899D01*
G03X318698Y426698I634J900D01*
G01X318700D01*
G03X319328Y426895I-1J1102D01*
G02X319442Y426931I114J-164D01*
G01X319558D01*
G02X319672Y426895I0J-200D01*
G03X320300Y426698I629J905D01*
G03Y428902I0J1102D01*
G03X319672Y428705I1J-1102D01*
G02X319558Y428669I-114J164D01*
G01X319442D01*
G02X319328Y428705I0J200D01*
G03X318701Y428902I-629J-905D01*
G01X318662D01*
X318589Y428932D01*
X318332Y429189D01*
X318302Y429262D01*
Y429301D01*
G03X318239Y429667I-1102J-1D01*
G01X318223Y429713D01*
X318236Y429808D01*
X318453Y430115D01*
G02X318616Y430200I164J-115D01*
G01X328217D01*
G03X328359Y430259I0J200D01*
G01X330441Y432341D01*
G03X330500Y432483I-141J142D01*
G01Y436317D01*
G02X330559Y436459I200J0D01*
G01X331541Y437441D01*
G02X331683Y437500I142J-141D01*
G01X342262D01*
X342282Y437499D01*
G03X344501I1109J11366D01*
G01X344521Y437500D01*
X348417D01*
G02X348559Y437441I0J-200D01*
G01X351841Y434159D01*
G02X351900Y434017I-141J-142D01*
G01Y432288D01*
G02X351768Y432100I-200J0D01*
G01X351415Y431972D01*
G02X351347Y431960I-68J188D01*
G01X351193Y432032D01*
G03X348391Y433342I-2802J-2342D01*
G03Y426040I0J-3651D01*
G03X351193Y427350I0J3652D01*
G01X351347Y427422D01*
G02X351415Y427410I0J-200D01*
G01X351768Y427282D01*
G02X351900Y427094I-68J-188D01*
G01Y422288D01*
G02X351768Y422100I-200J0D01*
G01X351415Y421972D01*
G02X351347Y421960I-68J188D01*
G01X351193Y422032D01*
G03X348391Y423342I-2802J-2342D01*
G03Y416040I0J-3651D01*
G03X351193Y417350I0J3652D01*
G01X351347Y417422D01*
G02X351415Y417410I0J-200D01*
G01X351768Y417282D01*
G02X351900Y417094I-68J-188D01*
G01Y229116D01*
G02X351779Y228933I-200J1D01*
G01X351386Y228763D01*
X351269Y228784D01*
X351226Y228825D01*
G03Y212205I-7834J-8310D01*
G01X351269Y212246D01*
X351386Y212267D01*
X351779Y212097D01*
G02X351900Y211914I-79J-184D01*
G01Y206697D01*
G02X351808Y206529I-200J0D01*
G03Y204671I592J-929D01*
G02X351900Y204503I-108J-168D01*
G01Y204128D01*
G02X351812Y203963I-200J1D01*
G03Y202137I617J-913D01*
G02X351900Y201972I-112J-166D01*
G01Y201426D01*
G02X351823Y201269I-200J1D01*
G03Y199531I676J-869D01*
G02X351900Y199374I-123J-158D01*
G01Y191733D01*
G02X351854Y191606I-200J1D01*
G03X351672Y191296I846J-705D01*
G01X351656Y191256D01*
X349644Y189244D01*
G02X349473Y189188I-141J142D01*
G01X349472D01*
G03X349300Y189202I-175J-1088D01*
G03X348198Y188100I0J-1102D01*
G03X348212Y187929I1102J4D01*
G01Y187927D01*
G02X348156Y187756I-198J-30D01*
G01X342259Y181859D01*
G02X342117Y181800I-142J141D01*
G01X296197D01*
X296090Y181831D01*
G03X294910I-590J-932D01*
G02X294803Y181800I-107J169D01*
G01X294797D01*
G02X294690Y181831I0J200D01*
G03X293510I-590J-932D01*
G02X293403Y181800I-107J169D01*
G01X293397D01*
G02X293290Y181831I0J200D01*
G03X292110I-590J-932D01*
G01X292003Y181800D01*
X281865D01*
X281828Y181816D01*
G03X281400Y181902I-427J-1016D01*
G03X280972Y181816I-1J-1102D01*
G01X280935Y181800D01*
X222583D01*
G03X222441Y181741I0J-200D01*
G01X220159Y179459D01*
G02X220017Y179400I-142J141D01*
G01X219720D01*
G02X219538Y179518I0J200D01*
G01X219365Y179906D01*
X219383Y180022D01*
X219422Y180066D01*
G03X219702Y180800I-822J734D01*
G03X217498I-1102J0D01*
G03X217778Y180066I1102J0D01*
G01X217817Y180022D01*
X217835Y179906D01*
X217662Y179518D01*
G02X217480Y179400I-182J82D01*
G01X217271D01*
G02X217096Y179503I0J200D01*
G01X216927Y179810D01*
G02X216902Y179906I175J97D01*
G01X216933Y180013D01*
G03X217102Y180599I-933J586D01*
G01Y180600D01*
G03X214898I-1102J0D01*
G01Y180599D01*
G03X215067Y180013I1102J0D01*
G01X215098Y179906D01*
G02X215073Y179810I-200J1D01*
G01X214904Y179503D01*
G02X214729Y179400I-175J97D01*
G01X211983D01*
G02X211841Y179459I0J200D01*
G01X196664Y194636D01*
G02X196622Y194697I141J142D01*
G03X195346Y195973I-2266J-990D01*
G02X195285Y196015I81J183D01*
G01X186159Y205141D01*
G02X186100Y205283I141J142D01*
G01Y231017D01*
G03X186041Y231159I-200J0D01*
G01X179459Y237741D01*
G03X179317Y237800I-142J-141D01*
G01X154783D01*
G02X154641Y237859I0J200D01*
G01X142259Y250241D01*
G02X142200Y250383I141J142D01*
G01Y306959D01*
X142262Y307104D01*
G03Y308696I-762J796D01*
G01X142200Y308841D01*
Y309674D01*
G02X142277Y309831I200J-1D01*
G03Y311569I-676J869D01*
G02X142200Y311726I123J158D01*
G01Y323417D01*
G02X142259Y323559I200J0D01*
G01X146455Y327755D01*
G02X146566Y327811I141J-142D01*
G03X147489Y328734I-166J1089D01*
G02X147545Y328845I198J-30D01*
G01X147757Y329057D01*
G02X148039I141J-142D01*
G01X148069Y329027D01*
X148098Y328954D01*
Y328900D01*
G03X150302I1102J0D01*
G01Y328901D01*
G03X150054Y329597I-1102J-1D01*
G01X150032Y329624D01*
X150008Y329689D01*
Y330011D01*
X150032Y330076D01*
X150054Y330103D01*
G03X150302Y330800I-854J697D01*
G03X150186Y331293I-1102J1D01*
G01X150157Y331350D01*
X150178Y331478D01*
X161752Y343052D01*
G02X161949Y343103I142J-141D01*
G01X162285Y343006D01*
G02X162425Y342858I-55J-192D01*
G01Y342857D01*
G03X164563Y342809I1075J243D01*
G01X164574Y342850D01*
X164628Y342916D01*
X164971Y343087D01*
X165055Y343091D01*
X165095Y343075D01*
G03X165499Y342998I405J1025D01*
G01X165500D01*
G03Y345202I0J1102D01*
G03X164437Y344391I0J-1102D01*
G01X164426Y344350D01*
X164372Y344284D01*
X164029Y344113D01*
X163945Y344109D01*
X163905Y344125D01*
G03X163743Y344175I-405J-1025D01*
G01X163742D01*
G02X163594Y344315I44J195D01*
G01X163497Y344651D01*
G02X163548Y344848I192J55D01*
G01X165098Y346398D01*
G02X165266Y346455I142J-141D01*
G01X165582Y346412D01*
X165729Y346313D01*
G03X166688Y345754I959J543D01*
G03Y347958I0J1102D01*
G03X165963Y347686I0J-1102D01*
G01X165919Y347647D01*
X165802Y347630D01*
X165417Y347805D01*
G02X165300Y347987I83J182D01*
G01Y401835D01*
X165316Y401872D01*
G03X165402Y402300I-1016J427D01*
G03X165316Y402728I-1102J1D01*
G01X165300Y402765D01*
Y404544D01*
G03X165302Y404599I-1100J68D01*
G01Y404601D01*
G03X165300Y404656I-1102J-13D01*
G01Y405517D01*
G03X165241Y405659I-200J0D01*
G01X163059Y407841D01*
G02X163000Y407983I141J142D01*
G01Y427317D01*
G02X163059Y427459I200J0D01*
G01X167241Y431641D01*
G02X167383Y431700I142J-141D01*
G01X169817D01*
G03X169959Y431759I0J200D01*
G01X170642Y432442D01*
G02X170770Y432500I141J-142D01*
G01X170771D01*
G03X171714Y433168I-71J1100D01*
G01X171732Y433211D01*
X171801Y433271D01*
X172199Y433375D01*
X172290Y433356D01*
X172326Y433328D01*
G03X173000Y433098I674J873D01*
G03X174102Y434200I0J1102D01*
G01Y434201D01*
G03X173767Y434992I-1102J0D01*
G01X173738Y435020D01*
X173706Y435094D01*
X173704Y435419D01*
G02X173762Y435562I200J2D01*
G01X175852Y437652D01*
G02X176049Y437703I142J-141D01*
G01X176385Y437606D01*
G02X176525Y437458I-55J-192D01*
G01Y437457D01*
G03X177600Y436598I1075J243D01*
G03X178702Y437700I0J1102D01*
G03X177843Y438775I-1102J0D01*
G01X177842D01*
G02X177694Y438915I44J195D01*
G01X177597Y439251D01*
G02X177648Y439448I192J55D01*
G01X183445Y445245D01*
G02X183597Y445303I141J-142D01*
G01X183896Y445286D01*
G02X184040Y445212I-12J-200D01*
G03X184900Y444798I861J688D01*
G03X186002Y445900I0J1102D01*
G03X185429Y446867I-1102J0D01*
G01X185404Y446880D01*
X185383Y446901D01*
G02Y447183I142J141D01*
G01X185510Y447310D01*
X185660Y447320D01*
X185720Y447273D01*
G03X186395Y447042I675J871D01*
G03X187492Y448038I0J1102D01*
G01X187495Y448075D01*
X187529Y448142D01*
X187756Y448348D01*
G02X187890Y448400I134J-148D01*
G01X189911D01*
G02X190045Y448348I0J-200D01*
G01X190272Y448142D01*
X190306Y448075D01*
X190309Y448038D01*
G03X192503I1097J106D01*
G01X192506Y448075D01*
X192540Y448142D01*
X192767Y448348D01*
G02X192901Y448400I134J-148D01*
G01X198726D01*
X198831Y448323D01*
X198851Y448261D01*
G03X200949I1049J340D01*
G01X200969Y448323D01*
X201074Y448400D01*
X207948D01*
X208053Y448323D01*
X208073Y448261D01*
G03X210171I1049J340D01*
G01X210191Y448323D01*
X210296Y448400D01*
X217323D01*
G02X217490Y448310I0J-200D01*
G01X217674Y448029D01*
G02X217707Y447920I-167J-110D01*
G01X217690Y447840D01*
G03X217598Y447400I1010J-441D01*
G01Y447398D01*
G03X217799Y446765I1101J1D01*
G01X217835Y446650D01*
X217799Y446535D01*
G03X217598Y445902I900J-634D01*
G01Y445900D01*
G03X219802I1102J0D01*
G01Y445902D01*
G03X219601Y446535I-1101J-1D01*
G01X219565Y446650D01*
X219601Y446765D01*
G03X219802Y447398I-900J634D01*
G01Y447400D01*
G03X219710Y447840I-1102J-1D01*
G01X219690Y447887D01*
X219698Y447987D01*
X219910Y448310D01*
G02X220077Y448400I167J-110D01*
G37*
G36*
G01X228145Y149218D02*
Y152472D01*
G02X228268Y152657I200J0D01*
G01X228325Y152681D01*
X228443Y152657D01*
X243141Y137959D01*
G03X243283Y137900I142J141D01*
G01X261717D01*
G03X261859Y137959I0J200D01*
G01X273312Y149412D01*
G02X273527Y149456I141J-142D01*
G01X273924Y149299D01*
X273992Y149202D01*
X273994Y149142D01*
G03X276266Y146945I2272J76D01*
G03X277315Y147202I-1J2273D01*
G01X277362Y147226D01*
X277467Y147223D01*
X277804Y147018D01*
G02X277900Y146847I-104J-171D01*
G01Y142083D01*
G02X277841Y141941I-200J0D01*
G01X265059Y129159D01*
G02X264917Y129100I-142J141D01*
G01X237283D01*
G02X237141Y129159I0J200D01*
G01X224159Y142141D01*
G02X224100Y142283I141J142D01*
G01Y146924D01*
G02X224201Y147098I200J0D01*
G01X224551Y147296D01*
X224659Y147295D01*
X224705Y147267D01*
G03X225872Y146945I1166J1951D01*
G03X228145Y149218I0J2273D01*
G37*
G36*
G01X224100Y157812D02*
Y169286D01*
G02X224201Y169460I200J0D01*
G01X224551Y169658D01*
X224659Y169657D01*
X224705Y169629D01*
G03X225872Y169307I1166J1951D01*
G03X227001Y169607I0J2274D01*
G01X227048Y169634D01*
X227154D01*
X227500Y169433D01*
G02X227600Y169260I-100J-173D01*
G01Y157838D01*
G02X227500Y157665I-200J0D01*
G01X227154Y157464D01*
X227048D01*
X227001Y157491D01*
G03X225872Y157791I-1129J-1974D01*
G03X224705Y157469I-1J-2273D01*
G01X224659Y157441D01*
X224551Y157440D01*
X224201Y157638D01*
G02X224100Y157812I99J174D01*
G37*
G36*
G01X274500Y157816D02*
Y169282D01*
G02X274601Y169456I200J0D01*
G01X274951Y169655D01*
X275058Y169654D01*
X275104Y169626D01*
G03X276266Y169307I1161J1954D01*
G03X277315Y169564I-1J2273D01*
G01X277362Y169588D01*
X277467Y169585D01*
X277804Y169380D01*
G02X277900Y169209I-104J-171D01*
G01Y157889D01*
G02X277804Y157718I-200J0D01*
G01X277467Y157513D01*
X277362Y157510D01*
X277315Y157534D01*
G03X276266Y157791I-1050J-2016D01*
G03X275104Y157472I-1J-2273D01*
G01X275058Y157444D01*
X274951Y157443D01*
X274601Y157642D01*
G02X274500Y157816I99J174D01*
G37*
G36*
G01X349479Y179100D02*
X355217D01*
G02X355359Y179041I0J-200D01*
G01X356041Y178359D01*
G02X356100Y178217I-141J-142D01*
G01Y140010D01*
G02X356099Y139991I-200J1D01*
G01X355902Y137921D01*
G02X355893Y137879I-199J21D01*
G01X355108Y135424D01*
G02X355087Y135379I-190J61D01*
G01X353613Y133021D01*
G02X353582Y132983I-169J106D01*
G01X351522Y131021D01*
G02X351473Y130987I-137J145D01*
G01X348922Y129711D01*
G02X348876Y129695I-88J179D01*
G01X346221Y129105D01*
G02X346178Y129100I-44J195D01*
G01X295083D01*
G02X294941Y129159I0J200D01*
G01X294459Y129641D01*
G02X294400Y129783I141J142D01*
G01Y134717D01*
G03X294341Y134859I-200J0D01*
G01X292159Y137041D01*
G03X292017Y137100I-142J-141D01*
G01X286783D01*
G02X286641Y137159I0J200D01*
G01X285959Y137841D01*
G02X285900Y137983I141J142D01*
G01Y141617D01*
G02X285959Y141759I200J0D01*
G01X287141Y142941D01*
G02X287283Y143000I142J-141D01*
G01X291886D01*
G03X292028Y143059I0J200D01*
G01X294710Y145741D01*
G03X294769Y145883I-141J142D01*
G01Y146924D01*
G02X294870Y147098I200J0D01*
G01X295220Y147296D01*
X295328Y147295D01*
X295374Y147267D01*
G03X296541Y146945I1166J1951D01*
G03X298539Y148134I0J2273D01*
G01X298562Y148177D01*
X298638Y148230D01*
X299003Y148283D01*
G02X299173Y148227I29J-198D01*
G01X309441Y137959D01*
G03X309583Y137900I142J141D01*
G01X334317D01*
G03X334459Y137959I0J200D01*
G01X344465Y147965D01*
G02X344623Y148023I142J-141D01*
G01X344973Y147992D01*
X345049Y147949D01*
X345075Y147912D01*
G03X346935Y146945I1860J1305D01*
G03X349208Y149218I0J2273D01*
G01Y155518D01*
G03X346935Y157791I-2273J0D01*
G03X345773Y157472I-1J-2273D01*
G01X345727Y157444D01*
X345620Y157443D01*
X345270Y157642D01*
G02X345169Y157816I99J174D01*
G01Y169282D01*
G02X345270Y169456I200J0D01*
G01X345620Y169655D01*
X345727Y169654D01*
X345773Y169626D01*
G03X346935Y169307I1161J1954D01*
G03X349208Y171580I0J2273D01*
G01Y177880D01*
G03X349098Y178577I-2273J-2D01*
G01X349083Y178624D01*
X349098Y178717D01*
X349317Y179018D01*
G02X349479Y179100I162J-118D01*
G37*
G36*
G01X294769Y157812D02*
Y169286D01*
G02X294870Y169460I200J0D01*
G01X295220Y169658D01*
X295328Y169657D01*
X295374Y169629D01*
G03X296541Y169307I1166J1951D01*
G03X297670Y169607I0J2274D01*
G01X297717Y169634D01*
X297823D01*
X298169Y169433D01*
G02X298269Y169260I-100J-173D01*
G01Y157838D01*
G02X298169Y157665I-200J0D01*
G01X297823Y157464D01*
X297717D01*
X297670Y157491D01*
G03X296541Y157791I-1129J-1974D01*
G03X295374Y157469I-1J-2273D01*
G01X295328Y157441D01*
X295220Y157440D01*
X294870Y157638D01*
G02X294769Y157812I99J174D01*
G37*
%LPC*%
G75*
G36*
G01X219989Y415931D02*
G02X219918Y416320I1030J389D01*
G02X222122I1102J0D01*
G02X221156Y415226I-1102J0D01*
G01X221111Y415220D01*
X221034Y415170D01*
X220823Y414823D01*
X220815Y414731D01*
X220831Y414689D01*
G02X220902Y414300I-1030J-389D01*
G01Y414298D01*
G02X220861Y414001I-1102J1D01*
G03X220912Y413805I192J-55D01*
G01X223556Y411161D01*
G03X223698Y411102I142J141D01*
G02X224802Y409998I2J-1102D01*
G01Y409958D01*
X224832Y409885D01*
X226456Y408261D01*
G03X226598Y408202I142J141D01*
G01X230832D01*
G02X230974Y408143I0J-200D01*
G01X241543Y397574D01*
G02X241602Y397432I-141J-142D01*
G01Y307052D01*
G03X241654Y306918I200J0D01*
G01X241859Y306691D01*
X241924Y306658D01*
X241961Y306654D01*
G02Y304660I-101J-997D01*
G01X241924Y304656D01*
X241859Y304623D01*
X241654Y304396D01*
G03X241602Y304262I148J-134D01*
G01Y301198D01*
G03X241661Y301056I200J0D01*
G01X246386Y296330D01*
X246507Y296308D01*
X246565Y296334D01*
G02X246978Y296423I413J-914D01*
G02X247980Y295421I0J-1002D01*
G02X247891Y295008I-1003J0D01*
G01X247865Y294950D01*
X247887Y294829D01*
X248945Y293771D01*
X249066Y293749D01*
X249124Y293775D01*
G02X249537Y293864I413J-914D01*
G02X250539Y292862I0J-1002D01*
G02X250450Y292449I-1003J0D01*
G01X250424Y292391D01*
X250446Y292270D01*
X255356Y287361D01*
G03X255498Y287302I142J141D01*
G01X260998D01*
G03X261140Y287360I1J200D01*
G01X261368Y287588D01*
X261398Y287661D01*
Y287701D01*
G02X262400Y288702I1002J-1D01*
G02X263402Y287700I0J-1002D01*
G02X263388Y287535I-1002J2D01*
G01X263385Y287518D01*
Y287502D01*
G03X263585Y287302I200J0D01*
G01X263715D01*
G03X263915Y287502I0J200D01*
G01Y287522D01*
X263910Y287542D01*
G02X263890Y287743I982J199D01*
G02X265894I1002J0D01*
G01Y287713D01*
X265893Y287673D01*
X265922Y287597D01*
X266150Y287363D01*
G03X266293Y287302I144J139D01*
G01X268885D01*
G03X269034Y287369I0J200D01*
G01X269232Y287594D01*
G03X269281Y287750I-149J133D01*
G01Y287751D01*
G02X269273Y287875I994J126D01*
G02X271277I1002J0D01*
G02X271227Y287564I-1002J2D01*
G01X271217Y287533D01*
Y287502D01*
G03X271417Y287302I200J0D01*
G01X271490D01*
G03X271690Y287502I0J200D01*
G01Y287516D01*
X271688Y287531D01*
G02X271677Y287679I990J148D01*
G02X273681I1002J0D01*
G02X273670Y287531I-1001J0D01*
G01X273668Y287516D01*
Y287502D01*
G03X273868Y287302I200J0D01*
G01X273971D01*
G03X274171Y287502I0J200D01*
G01Y287521D01*
X274168Y287541D01*
G02X274148Y287738I982J199D01*
G02X276152I1002J0D01*
G02X276132Y287541I-1002J2D01*
G01X276129Y287521D01*
Y287502D01*
G03X276329Y287302I200J0D01*
G01X276529D01*
G03X276729Y287502I0J200D01*
G01Y287522D01*
X276724Y287542D01*
G02X276704Y287743I982J199D01*
G02X278708I1002J0D01*
G02X278688Y287542I-1002J-2D01*
G01X278683Y287522D01*
Y287502D01*
G03X278883Y287302I200J0D01*
G01X279069D01*
G03X279269Y287502I0J200D01*
G01Y287522D01*
X279265Y287542D01*
G02X279244Y287744I981J204D01*
G02X281248I1002J0D01*
G02X281227Y287542I-1002J2D01*
G01X281223Y287522D01*
Y287502D01*
G03X281423Y287302I200J0D01*
G01X281628D01*
G03X281828Y287502I0J200D01*
G01Y287522D01*
X281824Y287542D01*
G02X281803Y287744I981J204D01*
G02X283807I1002J0D01*
G02X283786Y287542I-1002J2D01*
G01X283782Y287522D01*
Y287502D01*
G03X283982Y287302I200J0D01*
G01X284187D01*
G03X284387Y287502I0J200D01*
G01Y287522D01*
X284383Y287542D01*
G02X284362Y287744I981J204D01*
G02X286366I1002J0D01*
G02X286345Y287542I-1002J2D01*
G01X286341Y287522D01*
Y287502D01*
G03X286541Y287302I200J0D01*
G01X286745D01*
G03X286945Y287502I0J200D01*
G01Y287522D01*
X286940Y287542D01*
G02X286920Y287743I982J199D01*
G02X288924I1002J0D01*
G02X288391Y286857I-1003J0D01*
G01X288349Y286835D01*
X288294Y286758D01*
X288239Y286393D01*
G03X288295Y286222I198J-30D01*
G01X288523Y285993D01*
G02X288730Y285786I-601J-808D01*
G01X288960Y285556D01*
G03X289131Y285500I141J142D01*
G01X289497Y285555D01*
X289574Y285610D01*
X289596Y285652D01*
G02X290482Y286186I886J-468D01*
G01X290483D01*
G02X291046Y286013I0J-1002D01*
G03X291171Y285978I114J165D01*
G01X291287Y285985D01*
G03X291417Y286044I-12J200D01*
G01X292181Y286808D01*
G03X292240Y286938I-141J142D01*
G01X292247Y287054D01*
G03X292212Y287179I-200J11D01*
G02X292039Y287742I829J563D01*
G01Y287743D01*
G02X293041Y288745I1002J0D01*
G01X293042D01*
G02X293605Y288572I0J-1002D01*
G03X293730Y288537I114J165D01*
G01X293846Y288544D01*
G03X293976Y288603I-12J200D01*
G01X294741Y289367D01*
G03X294800Y289497I-141J142D01*
G01X294807Y289614D01*
G03X294772Y289739I-200J11D01*
G02X294598Y290303I828J564D01*
G02X295600Y291305I1002J0D01*
G02X296271Y291047I0J-1002D01*
G03X296498Y291019I134J149D01*
G02X297295Y291218I798J-1502D01*
G01X317342D01*
G03X317534Y291364I-1J200D01*
G01Y291365D01*
G02X318500Y292102I966J-265D01*
G02X319102Y291901I0J-1002D01*
G01X319138Y291874D01*
X319225Y291855D01*
X319612Y291948D01*
X319681Y292003D01*
X319701Y292043D01*
G02X320600Y292602I899J-443D01*
G02X321602Y291600I0J-1002D01*
G02X321330Y290914I-1001J0D01*
G01X321302Y290884D01*
X321274Y290808D01*
X321292Y290476D01*
G03X321360Y290336I200J11D01*
G01X321361D01*
G02X321549Y290129I-715J-838D01*
G01X321571Y290097D01*
X321636Y290054D01*
X321950Y289993D01*
G03X322097Y290022I38J197D01*
G02X322700Y290202I604J-922D01*
G02Y287998I0J-1102D01*
G02X321795Y288471I0J1102D01*
G01X321773Y288503D01*
X321708Y288546D01*
X321394Y288607D01*
G03X321247Y288578I-38J-197D01*
G02X320644Y288398I-604J922D01*
G01X320643D01*
G02X320376Y288431I1J1102D01*
G03X320244Y288418I-48J-194D01*
G01X320135Y288368D01*
G03X320038Y288272I84J-182D01*
G02X318500Y287298I-1538J727D01*
G02X317955Y287388I1J1702D01*
G01X317924Y287398D01*
X317700D01*
G02X316637Y287772I1J1702D01*
G03X316512Y287816I-125J-156D01*
G01X315095D01*
G03X314896Y287631I0J-200D01*
G02X312698I-1099J86D01*
G03X312499Y287816I-199J-15D01*
G01X312149D01*
G03X311950Y287637I0J-200D01*
G02X309958I-996J106D01*
G03X309759Y287816I-199J-21D01*
G01X309591D01*
G03X309392Y287637I0J-200D01*
G02X307400I-996J107D01*
G03X307201Y287816I-199J-21D01*
G01X307031D01*
G03X306832Y287637I0J-200D01*
G02X304840I-996J107D01*
G03X304641Y287816I-199J-21D01*
G01X304473D01*
G03X304274Y287637I0J-200D01*
G02X302282I-996J107D01*
G03X302083Y287816I-199J-21D01*
G01X301913D01*
G03X301714Y287637I0J-200D01*
G02X299722I-996J107D01*
G03X299523Y287816I-199J-21D01*
G01X298085D01*
G03X297943Y287757I0J-200D01*
G01X296392Y286206D01*
G03X296334Y286068I142J-141D01*
G01X296332Y285948D01*
G03X296377Y285818I200J-4D01*
G02X296602Y285186I-777J-633D01*
G01Y285185D01*
G02X295600Y284183I-1002J0D01*
G01X295599D01*
G02X294967Y284408I1J1002D01*
G03X294837Y284453I-126J-155D01*
G01X294717Y284451D01*
G03X294579Y284393I3J-200D01*
G01X293833Y283647D01*
G03X293775Y283509I142J-141D01*
G01X293773Y283389D01*
G03X293818Y283259I200J-4D01*
G02X294043Y282627I-777J-633D01*
G01Y282626D01*
G02X293041Y281624I-1002J0D01*
G01X293040D01*
G02X292355Y281895I0J1002D01*
G01X292296Y281950D01*
X292134Y281948D01*
X291947Y281760D01*
X291934Y281740D01*
G02X291403Y281195I-1453J885D01*
G01X291402D01*
G03X291315Y281067I109J-168D01*
G01X291258Y280786D01*
G03X291288Y280634I196J-40D01*
G02X291455Y280180I-829J-563D01*
G03X291654Y280002I199J22D01*
G01X291923D01*
X292036Y280103D01*
X292045Y280179D01*
G02X294037I996J-112D01*
G01X294046Y280103D01*
X294159Y280002D01*
X297041D01*
X297154Y280103D01*
X297163Y280179D01*
G02X299155I996J-112D01*
G01X299164Y280103D01*
X299277Y280002D01*
X299600D01*
X299713Y280103D01*
X299722Y280179D01*
G02X301714I996J-112D01*
G01X301723Y280103D01*
X301836Y280002D01*
X302159D01*
X302272Y280103D01*
X302281Y280179D01*
G02X304273I996J-112D01*
G01X304282Y280103D01*
X304395Y280002D01*
X304718D01*
X304831Y280103D01*
X304840Y280179D01*
G02X306832I996J-112D01*
G01X306841Y280103D01*
X306954Y280002D01*
X315034D01*
G03X315228Y280155I0J200D01*
G02X317372I1072J-255D01*
G01X317388Y280088D01*
X317497Y280002D01*
X320296D01*
G02X320807Y279923I-1J-1702D01*
G01X320808D01*
G03X321001Y279965I60J191D01*
G01X321257Y280195D01*
G03X321320Y280383I-133J149D01*
G02X321298Y280600I1080J219D01*
G02X323502I1102J0D01*
G02X322450Y279499I-1102J0D01*
G01X322390Y279496D01*
X322295Y279428D01*
X322140Y279031D01*
G03X322185Y278817I187J-73D01*
G01X323632Y277371D01*
X323636Y277367D01*
G02X323703Y277303I-1141J-1262D01*
G01X323803Y277203D01*
G02X324302Y276000I-1203J-1204D01*
G02X323809Y274802I-1702J0D01*
G01X323781Y274774D01*
X323750Y274701D01*
X323751Y274379D01*
G03X323809Y274238I200J0D01*
G01X326487Y271561D01*
G03X326629Y271502I142J141D01*
G01X330680D01*
G03X330851Y271597I1J200D01*
G01X331029Y271887D01*
G03X331037Y272081I-171J104D01*
G01Y272082D01*
G02X330918Y272580I983J498D01*
G02X333122I1102J0D01*
G02X332554Y271616I-1102J0D01*
G01X332553D01*
G03X332452Y271468I97J-175D01*
G01X332409Y271150D01*
G03X332465Y270982I198J-27D01*
G01X332466Y270981D01*
G02X333002Y269700I-1266J-1282D01*
G02X331200Y267898I-1802J0D01*
G01X325800D01*
G02X324526Y268426I0J1801D01*
G01X318133Y274819D01*
G03X317991Y274878I-142J-141D01*
G01X315420D01*
X315303Y274763D01*
X315302Y274682D01*
G02X313098I-1102J18D01*
G01X313097Y274763D01*
X312980Y274878D01*
X312720D01*
X312603Y274763D01*
X312602Y274682D01*
G02X310398I-1102J18D01*
G01X310397Y274763D01*
X310280Y274878D01*
X309566D01*
G03X309371Y274723I0J-200D01*
G02X308395Y273946I-976J224D01*
G02X307398Y274848I0J1002D01*
G01X307390Y274926D01*
X307277Y275028D01*
X306955D01*
X306842Y274926D01*
X306834Y274848D01*
G02X306587Y274284I-997J100D01*
G01X306552Y274245D01*
X306531Y274145D01*
X306643Y273769D01*
G03X306780Y273633I192J56D01*
G01X306781D01*
G02X307489Y273252I-478J-1737D01*
G03X307609Y273203I132J151D01*
G01X307727Y273196D01*
G03X307848Y273228I12J200D01*
G02X308395Y273391I547J-838D01*
G02X309396Y272432I0J-1002D01*
G03X309596Y272240I200J8D01*
G01X314863D01*
G02X316135Y271713I-1J-1801D01*
G01X320574Y267274D01*
G02X321102Y266000I-1273J-1274D01*
G02X319497Y264209I-1802J0D01*
G02X319502Y264100I-1097J-105D01*
G02X317298I-1102J0D01*
G02X317560Y264813I1101J0D01*
G03X317607Y264944I-153J129D01*
G01Y265065D01*
G03X317548Y265205I-200J-2D01*
G01X314174Y268579D01*
G03X314032Y268638I-142J-141D01*
G01X307761D01*
G02X306660Y269014I0J1800D01*
G03X306421Y269018I-122J-158D01*
G02X305835Y268829I-586J814D01*
G02X305067Y269187I0J1003D01*
G03X304930Y269258I-153J-128D01*
G01X304806Y269268D01*
G03X304649Y269211I-17J-199D01*
G01X304591Y269153D01*
G03X304532Y269011I141J-142D01*
G01Y268170D01*
G02X304004Y266896I-1801J0D01*
G01X303034Y265926D01*
G02X301760Y265398I-1274J1273D01*
G01X299540D01*
G03X299387Y265326I1J-200D01*
G01X299190Y265089D01*
G03X299148Y264923I154J-127D01*
G02X299166Y264735I-984J-189D01*
G02X298777Y263942I-1003J0D01*
G01X298742Y263916D01*
X298702Y263840D01*
X298681Y263497D01*
G03X298739Y263343I199J-13D01*
G01X299339Y262743D01*
G03X299491Y262685I141J142D01*
G01X299789Y262702D01*
G03X299934Y262777I-11J200D01*
G02X300718Y263155I784J-624D01*
G02X301720Y262153I0J-1002D01*
G02X300886Y261165I-1002J0D01*
G01X300814Y261153D01*
X300720Y261042D01*
Y258146D01*
X300814Y258035D01*
X300886Y258023D01*
G02Y256047I-168J-988D01*
G01X300814Y256035D01*
X300720Y255924D01*
Y255587D01*
X300814Y255476D01*
X300886Y255464D01*
G02Y253488I-168J-988D01*
G01X300814Y253476D01*
X300720Y253365D01*
Y250469D01*
X300814Y250358D01*
X300886Y250346D01*
G02X301720Y249358I-168J-988D01*
G02X300718Y248356I-1002J0D01*
G02X299874Y248818I0J1002D01*
G01X299850Y248856D01*
X299773Y248903D01*
X299417Y248942D01*
G03X299254Y248884I-21J-199D01*
G01X298633Y248263D01*
G03X298575Y248100I141J-142D01*
G01X298614Y247744D01*
X298661Y247667D01*
X298699Y247643D01*
G02X299161Y246799I-540J-844D01*
G02X298319Y245810I-1002J0D01*
G01X298247Y245798D01*
X298152Y245687D01*
Y245352D01*
X298247Y245241D01*
X298319Y245229D01*
G02Y243251I-160J-989D01*
G01X298247Y243239D01*
X298152Y243128D01*
Y242793D01*
X298247Y242682D01*
X298319Y242670D01*
G02Y240692I-160J-989D01*
G01X298247Y240680D01*
X298152Y240569D01*
Y240190D01*
X298252Y240077D01*
X298328Y240068D01*
G02Y238078I-120J-995D01*
G01X298252Y238069D01*
X298152Y237956D01*
Y233981D01*
G03X298208Y233843I200J1D01*
G01X298291Y233756D01*
G03X298414Y233696I144J139D01*
G02Y231504I-114J-1096D01*
G03X298291Y231444I21J-199D01*
G01X298208Y231357D01*
G03X298152Y231219I144J-139D01*
G01Y230200D01*
G02X297785Y229315I-1252J1D01*
G01X295671Y227202D01*
G03X295612Y227060I141J-142D01*
G01Y226685D01*
G03X295670Y226543I200J-1D01*
G01X295756Y226457D01*
G03X295883Y226399I141J142D01*
G02X296902Y225300I-83J-1099D01*
G02X296584Y224525I-1103J0D01*
G01X296557Y224498D01*
X296526Y224426D01*
X296522Y224110D01*
G03X296576Y223971I200J-2D01*
G02X296602Y223942I-808J-750D01*
G03X296944Y224016I151J131D01*
G02X298000Y224802I1056J-316D01*
G02Y222598I0J-1102D01*
G02X297334Y222822I0J1102D01*
G01X297299Y222849D01*
X297214Y222868D01*
X296874Y222794D01*
G03X296740Y222694I42J-195D01*
G02X295771Y222116I-969J523D01*
G01X295770D01*
G02X295638Y222124I1J1102D01*
G03X295441Y222027I-25J-199D01*
G02X295247Y221775I-1082J632D01*
G01X295198Y221726D01*
G03X295139Y221600I140J-142D01*
G01X295118Y221331D01*
G03X295162Y221190I199J-15D01*
G02X295405Y220500I-858J-690D01*
G02X294303Y219398I-1102J0D01*
G02X294087Y219419I-2J1102D01*
G01X294042Y219428D01*
X293956Y219407D01*
X293681Y219182D01*
G03X293608Y219028I127J-155D01*
G01Y208508D01*
G03X293732Y208323I200J0D01*
G01X293788Y208299D01*
X293906Y208323D01*
X294526Y208943D01*
G02X294668Y209002I142J-141D01*
G01X303232D01*
G02X303374Y208943I0J-200D01*
G01X306043Y206274D01*
G02X306102Y206132I-141J-142D01*
G01Y200242D01*
G03X306246Y200050I200J0D01*
G01X306247D01*
G02X306248Y197930I-299J-1060D01*
G01X306246D01*
G03X306102Y197738I56J-192D01*
G01Y192868D01*
G02X306043Y192726I-200J0D01*
G01X302674Y189357D01*
G02X302532Y189298I-142J141D01*
G01X241768D01*
G02X241626Y189357I0J200D01*
G01X230457Y200526D01*
G02X230398Y200668I141J142D01*
G01Y205102D01*
X230340Y205197D01*
X230291Y205223D01*
G02Y207177I508J977D01*
G01X230340Y207203D01*
X230398Y207298D01*
Y208802D01*
G03X230339Y208944I-200J0D01*
G01X218999Y220284D01*
G03X218742Y220305I-141J-142D01*
G02X218100Y220098I-643J895D01*
G02X216998Y221200I0J1102D01*
G02X217205Y221842I1102J-1D01*
G01X217248Y221903D01*
X217236Y222047D01*
X215900Y223384D01*
G03X215767Y223442I-141J-142D01*
G01X215459Y223455D01*
X215388Y223431D01*
X215360Y223407D01*
G02X214650Y223148I-710J844D01*
G02X213548Y224250I0J1102D01*
G02X213729Y224855I1102J0D01*
G01X213752Y224890D01*
X213766Y224973D01*
X213671Y225341D01*
X213619Y225407D01*
X213582Y225427D01*
G02X213013Y226218I518J973D01*
G01X213008Y226248D01*
X212980Y226304D01*
X209057Y230226D01*
G02X208998Y230368I141J142D01*
G01Y235738D01*
X208983Y235775D01*
G02X208898Y236200I1017J424D01*
G02X208983Y236625I1102J1D01*
G01X208998Y236662D01*
Y251402D01*
G03X208939Y251544I-200J0D01*
G01X197257Y263226D01*
G02X197198Y263368I141J142D01*
G01Y266924D01*
G03X197145Y267059I-200J-1D01*
G01X197065Y267146D01*
G03X196946Y267209I-148J-135D01*
G02X195998Y268300I154J1091D01*
G02X196132Y268826I1102J-1D01*
G03X196117Y269041I-176J96D01*
G02X195898Y269700I882J659D01*
G02X196926Y270800I1103J0D01*
G03X197055Y270858I-12J200D01*
G01X197140Y270943D01*
G03X197198Y271085I-142J141D01*
G01Y318729D01*
G03X197125Y318883I-200J-1D01*
G01X196850Y319108D01*
X196764Y319129D01*
X196719Y319120D01*
G02X196500Y319098I-219J1079D01*
G02Y321302I0J1102D01*
G02X196719Y321280I0J-1101D01*
G01X196764Y321271D01*
X196850Y321292D01*
X197125Y321517D01*
G03X197198Y321671I-127J155D01*
G01Y329403D01*
G03X197106Y329572I-200J1D01*
G02Y331428I594J928D01*
G03X197198Y331597I-108J168D01*
G01Y332003D01*
G03X197106Y332172I-200J1D01*
G02Y334028I594J928D01*
G03X197198Y334197I-108J168D01*
G01Y358202D01*
G03X197144Y358338I-200J-1D01*
G01X196957Y358538D01*
G03X196826Y358601I-146J-136D01*
G02X196825Y360799I73J1099D01*
G01X196827D01*
X196864Y360802D01*
X196931Y360834D01*
X197144Y361062D01*
G03X197198Y361198I-146J137D01*
G01Y383547D01*
G03X197038Y383743I-200J0D01*
G02X196501Y384021I219J1080D01*
G03X196499Y384023I-142J-140D01*
G03X196344Y384075I-136J-147D01*
G01X195999Y384042D01*
X195924Y383998D01*
X195899Y383962D01*
G02X195000Y383498I-899J639D01*
G02X193898Y384600I0J1102D01*
G02X194151Y385303I1103J0D01*
G03X194195Y385462I-154J128D01*
G01X194147Y385760D01*
G03X194058Y385896I-197J-32D01*
G01X194057Y385897D01*
G02X193542Y386829I586J932D01*
G02X195746I1102J0D01*
G02X195493Y386126I-1103J0D01*
G03X195449Y385967I154J-128D01*
G01X195497Y385669D01*
G03X195586Y385533I197J32D01*
G01X195587Y385532D01*
G02X195755Y385402I-587J-932D01*
G03X195757Y385400I142J140D01*
G03X195912Y385348I136J147D01*
G01X196257Y385381D01*
X196332Y385425D01*
X196357Y385461D01*
G02X197038Y385903I898J-638D01*
G01X197109Y385918D01*
X197198Y386027D01*
Y388676D01*
G03X197108Y388843I-200J0D01*
G01X196788Y389055D01*
X196688Y389063D01*
X196641Y389043D01*
G02X196208Y388954I-434J1013D01*
G01X196206D01*
G02Y391158I0J1102D01*
G01X196208D01*
G02X196641Y391069I-1J-1102D01*
G01X196688Y391049D01*
X196788Y391057D01*
X197108Y391269D01*
G03X197198Y391436I-110J167D01*
G01Y396022D01*
G03X197108Y396189I-200J0D01*
G01X196786Y396401D01*
X196686Y396409D01*
X196639Y396389D01*
G02X196201Y396298I-439J1011D01*
G01X196200D01*
G02Y398502I0J1102D01*
G01X196201D01*
G02X196639Y398411I-1J-1102D01*
G01X196686Y398391D01*
X196786Y398399D01*
X197108Y398611D01*
G03X197198Y398778I-110J167D01*
G01Y407832D01*
G02X197257Y407974I200J0D01*
G01X202926Y413643D01*
G02X203068Y413702I142J-141D01*
G01X218311D01*
G03X218462Y413770I1J200D01*
G01X218689Y414029D01*
X218714Y414111D01*
X218708Y414154D01*
G02X218698Y414300I1092J148D01*
G02X219664Y415394I1102J0D01*
G01X219709Y415400D01*
X219786Y415450D01*
X219997Y415797D01*
X220005Y415889D01*
X219989Y415931D01*
G37*
G36*
G01X234300Y188802D02*
G02X234935Y188601I1J-1101D01*
G03X235165I115J163D01*
G02X236435I635J-900D01*
G03X236665I115J163D01*
G02X237300Y188802I634J-900D01*
G02Y186598I0J-1102D01*
G02X236665Y186799I-1J1101D01*
G03X236435I-115J-163D01*
G02X235165I-635J900D01*
G03X234935I-115J-163D01*
G02X234300Y186598I-634J900D01*
G02Y188802I0J1102D01*
G37*
G36*
G01X329119Y188234D02*
G03X329358Y188740I-139J375D01*
G02X329298Y189097I1042J359D01*
G01Y189100D01*
G02X331502I1102J0D01*
G02X330781Y188066I-1102J0D01*
G03X330542Y187560I139J-375D01*
G02X330602Y187203I-1042J-359D01*
G01Y187200D01*
G02X328398I-1102J0D01*
G02X329119Y188234I1102J0D01*
G37*
G36*
G01X342643Y193093D02*
G03X342616Y193625I-311J251D01*
G02X342298Y194400I785J775D01*
G02X344502I1102J0D01*
G02X344257Y193707I-1103J0D01*
G03X344284Y193175I311J-251D01*
G02X344602Y192400I-785J-775D01*
G02X342398I-1102J0D01*
G02X342643Y193093I1103J0D01*
G37*
G36*
G01X189998Y209200D02*
G02X191100Y210302I1102J0D01*
G02X192202Y209201I0J-1102D01*
G01Y209199D01*
G02X192199Y209127I-1102J10D01*
G01Y209125D01*
X192197Y209085D01*
X192222Y209011D01*
X192462Y208737D01*
X192533Y208702D01*
X192572Y208700D01*
G02X193602Y207601I-72J-1100D01*
G01Y207599D01*
G02X193599Y207527I-1102J10D01*
G01Y207525D01*
X193597Y207485D01*
X193622Y207411D01*
X193862Y207137D01*
X193933Y207102D01*
X193972Y207100D01*
G02X195002Y206000I-72J-1100D01*
G02X193900Y204898I-1102J0D01*
G02X192798Y205999I0J1102D01*
G01Y206001D01*
G02X192801Y206073I1102J-10D01*
G01Y206075D01*
X192803Y206115D01*
X192778Y206189D01*
X192538Y206463D01*
X192467Y206498D01*
X192428Y206500D01*
G02X191398Y207599I72J1100D01*
G01Y207601D01*
G02X191401Y207673I1102J-10D01*
G01Y207675D01*
X191403Y207715D01*
X191378Y207789D01*
X191138Y208063D01*
X191067Y208098D01*
X191028Y208100D01*
G02X189998Y209200I72J1100D01*
G37*
G36*
G01X195068Y210286D02*
G03X194855Y210792I-375J140D01*
G02X194198Y211800I445J1008D01*
G02X196402I1102J0D01*
G02X196332Y211414I-1102J0D01*
G03X196545Y210908I375J-140D01*
G02X197202Y209900I-445J-1008D01*
G02X194998I-1102J0D01*
G02X195068Y210286I1102J0D01*
G37*
G36*
G01X196488Y215110D02*
G03X196108Y215449I-395J-61D01*
G02X195048Y216550I42J1101D01*
G02X196150Y217652I1102J0D01*
G02X197239Y216717I0J-1102D01*
G03X197619Y216378I395J61D01*
G02X198679Y215277I-42J-1101D01*
G02X197577Y214175I-1102J0D01*
G02X196488Y215110I0J1102D01*
G37*
G36*
G01X306798Y215100D02*
G02X306960Y215675I1101J0D01*
G03X306945Y215905I-171J104D01*
G02X306698Y216600I856J695D01*
G02X307800Y217702I1102J0D01*
G02X308428Y217505I-1J-1102D01*
G03X308543Y217469I114J164D01*
G01X308657D01*
G03X308772Y217505I1J200D01*
G02X309400Y217702I629J-905D01*
G02X310502Y216600I0J-1102D01*
G02X310340Y216025I-1101J0D01*
G03X310355Y215795I171J-104D01*
G02X310602Y215100I-856J-695D01*
G02X310440Y214525I-1101J0D01*
G03X310455Y214295I171J-104D01*
G02X310702Y213600I-856J-695D01*
G02X309600Y212498I-1102J0D01*
G02X308972Y212695I1J1102D01*
G03X308857Y212731I-114J-164D01*
G01X308743D01*
G03X308628Y212695I-1J-200D01*
G02X308000Y212498I-629J905D01*
G02X306898Y213600I0J1102D01*
G02X307060Y214175I1101J0D01*
G03X307045Y214405I-171J104D01*
G02X306798Y215100I856J695D01*
G37*
G36*
G01X196512Y221352D02*
G03X196485Y221858I-323J237D01*
G02X196198Y222600I816J742D01*
G02X198402I1102J0D01*
G02X198188Y221948I-1102J1D01*
G03X198215Y221442I323J-237D01*
G02X198502Y220700I-816J-742D01*
G02X196298I-1102J0D01*
G02X196512Y221352I1102J-1D01*
G37*
G36*
G01X196198Y229200D02*
G02X198402I1102J0D01*
G02X198188Y228549I-1102J1D01*
G01Y228547D01*
X198187D01*
G03X198150Y228419I163J-116D01*
G01X198163Y228166D01*
G03X198215Y228042I200J11D01*
G02Y226558I-816J-742D01*
G03X198163Y226434I148J-135D01*
G01X198150Y226181D01*
G03X198187Y226053I200J-12D01*
G01X198188Y226052D01*
G02X198402Y225400I-888J-653D01*
G02X196198I-1102J0D01*
G02X196485Y226142I1103J0D01*
G03X196537Y226266I-148J135D01*
G01X196550Y226519D01*
G03X196513Y226647I-200J12D01*
G01X196512Y226648D01*
G02X196298Y227300I888J653D01*
G02X196512Y227951I1102J-1D01*
G01Y227953D01*
X196513D01*
G03X196550Y228081I-163J116D01*
G01X196537Y228334D01*
G03X196485Y228458I-200J-11D01*
G02X196198Y229200I816J742D01*
G37*
G36*
G01X196412Y233352D02*
G03X196385Y233858I-323J237D01*
G02X196098Y234600I816J742D01*
G02X198302I1102J0D01*
G02X198088Y233948I-1102J1D01*
G03X198115Y233442I323J-237D01*
G02X198402Y232700I-816J-742D01*
G02X196198I-1102J0D01*
G02X196412Y233352I1102J-1D01*
G37*
G36*
G01X206200Y238998D02*
G02X205565Y239199I-1J1101D01*
G03X205335I-115J-163D01*
G02X204700Y238998I-634J900D01*
G02Y241202I0J1102D01*
G02X205335Y241001I1J-1101D01*
G03X205565I115J163D01*
G02X206200Y241202I634J-900D01*
G02Y238998I0J-1102D01*
G37*
G36*
G01X174494Y242298D02*
G03X174920Y242618I34J399D01*
G02X176000Y243502I1080J-218D01*
G02Y241298I0J-1102D01*
G02X175906Y241302I0J1102D01*
G03X175480Y240982I-34J-399D01*
G02X174400Y240098I-1080J218D01*
G02Y242302I0J1102D01*
G02X174494Y242298I0J-1102D01*
G37*
G36*
G01X180352Y245009D02*
G03X180404Y245538I-272J294D01*
G02X180193Y246186I891J648D01*
G02X182397I1102J0D01*
G02X182043Y245377I-1101J0D01*
G03X181991Y244848I272J-294D01*
G02X182202Y244200I-891J-648D01*
G02X179998I-1102J0D01*
G02X180352Y245009I1101J0D01*
G37*
G36*
G01X207400Y245598D02*
G02X206765Y245799I-1J1101D01*
G03X206535I-115J-163D01*
G02X205900Y245598I-634J900D01*
G02Y247802I0J1102D01*
G02X206535Y247601I1J-1101D01*
G03X206765I115J163D01*
G02X207400Y247802I634J-900D01*
G02Y245598I0J-1102D01*
G37*
G36*
G01X330198Y248300D02*
G02X330399Y248935I1101J1D01*
G03Y249165I-163J115D01*
G02X330198Y249800I900J634D01*
G02X332402I1102J0D01*
G02X332201Y249165I-1101J-1D01*
G03Y248935I163J-115D01*
G02X332402Y248300I-900J-634D01*
G02X332008Y247455I-1103J0D01*
G01X331978Y247430D01*
X331941Y247360D01*
X331911Y247040D01*
G03X331953Y246897I199J-19D01*
G01X331954Y246896D01*
G02X332202Y246200I-853J-696D01*
G02X329998I-1102J0D01*
G02X330392Y247045I1103J0D01*
G01X330422Y247070D01*
X330459Y247140D01*
X330489Y247460D01*
G03X330447Y247603I-199J19D01*
G01X330446Y247604D01*
G02X330198Y248300I853J696D01*
G37*
G36*
G01X182200Y259835D02*
G03X181747Y260208I-399J-23D01*
G02X181600Y260198I-148J1092D01*
G02Y262402I0J1102D01*
G02X182700Y261365I0J-1102D01*
G03X183153Y260992I399J23D01*
G02X183300Y261002I148J-1092D01*
G02Y258798I0J-1102D01*
G02X182200Y259835I0J1102D01*
G37*
G36*
G01X160446Y272597D02*
G03Y273103I-309J253D01*
G02X160198Y273799I854J697D01*
G01Y273800D01*
G02X162402I1102J0D01*
G01Y273799D01*
G02X162154Y273103I-1102J1D01*
G03Y272597I309J-253D01*
G02X162402Y271901I-854J-697D01*
G01Y271900D01*
G02X160198I-1102J0D01*
G01Y271901D01*
G02X160446Y272597I1102J-1D01*
G37*
G36*
G01X147526Y277246D02*
G03Y277816I-281J285D01*
G02X147198Y278600I773J784D01*
G02X149402I1102J0D01*
G02X149074Y277816I-1101J0D01*
G03Y277246I281J-285D01*
G02X149402Y276462I-773J-784D01*
G02X147198I-1102J0D01*
G02X147526Y277246I1101J0D01*
G37*
G36*
G01X181262Y278504D02*
X181138D01*
G03X181010Y278457I1J-200D01*
G02X180300Y278198I-710J844D01*
G02Y280402I0J1102D01*
G02X181010Y280143I0J-1103D01*
G03X181138Y280096I129J153D01*
G01X181262D01*
G03X181390Y280143I-1J200D01*
G02X182100Y280402I710J-844D01*
G02Y278198I0J-1102D01*
G02X181390Y278457I0J1103D01*
G03X181262Y278504I-129J-153D01*
G37*
G36*
G01X160978Y284334D02*
G03Y284866I-299J266D01*
G02X160698Y285600I822J734D01*
G02X162902I1102J0D01*
G02X162622Y284866I-1102J0D01*
G03Y284334I299J-266D01*
G02X162902Y283600I-822J-734D01*
G02X160698I-1102J0D01*
G02X160978Y284334I1102J0D01*
G37*
G36*
G01X153446Y285597D02*
G03Y286103I-309J253D01*
G02X153198Y286799I854J697D01*
G01Y286800D01*
G02X155402I1102J0D01*
G01Y286799D01*
G02X155154Y286103I-1102J1D01*
G03Y285597I309J-253D01*
G02X155402Y284901I-854J-697D01*
G01Y284900D01*
G02X153198I-1102J0D01*
G01Y284901D01*
G02X153446Y285597I1102J-1D01*
G37*
G36*
G01X164441Y287010D02*
G02X163498Y288100I158J1090D01*
G02X164600Y289202I1102J0D01*
G02X165690Y288259I0J-1101D01*
G03X165859Y288090I198J29D01*
G02X166802Y287000I-158J-1090D01*
G02X165700Y285898I-1102J0D01*
G02X164610Y286841I0J1101D01*
G03X164441Y287010I-198J-29D01*
G37*
G36*
G01X153181Y288437D02*
X153073Y288401D01*
G03X152977Y288333I62J-190D01*
G02X152100Y287898I-877J667D01*
G02Y290102I0J1102D01*
G02X152401Y290060I0J-1102D01*
G03X152519Y290063I54J192D01*
G01X152627Y290099D01*
G03X152723Y290167I-62J190D01*
G02X153600Y290602I877J-667D01*
G02Y288398I0J-1102D01*
G02X153299Y288440I0J1102D01*
G03X153181Y288437I-54J-192D01*
G37*
G36*
G01X160967Y290122D02*
G03Y290646I-302J262D01*
G02X160698Y291367I833J722D01*
G01Y291368D01*
G02X162902I1102J0D01*
G01Y291367D01*
G02X162633Y290646I-1102J1D01*
G03Y290122I302J-262D01*
G02X162902Y289401I-833J-722D01*
G01Y289400D01*
G02X160698I-1102J0D01*
G01Y289401D01*
G02X160967Y290122I1102J-1D01*
G37*
G36*
G01X191062Y293804D02*
X190938D01*
G03X190810Y293757I1J-200D01*
G02X190100Y293498I-710J844D01*
G02Y295702I0J1102D01*
G02X190810Y295443I0J-1103D01*
G03X190938Y295396I129J153D01*
G01X191062D01*
G03X191190Y295443I-1J200D01*
G02X191900Y295702I710J-844D01*
G02Y293498I0J-1102D01*
G02X191190Y293757I0J1103D01*
G03X191062Y293804I-129J-153D01*
G37*
G36*
G01X152131Y294943D02*
Y295057D01*
G03X152095Y295172I-200J1D01*
G02X151898Y295800I905J629D01*
G02X154102I1102J0D01*
G02X153905Y295172I-1102J1D01*
G03X153869Y295057I164J-114D01*
G01Y294943D01*
G03X153905Y294828I200J-1D01*
G02X154102Y294200I-905J-629D01*
G02X151898I-1102J0D01*
G02X152095Y294828I1102J-1D01*
G03X152131Y294943I-164J114D01*
G37*
G36*
G01X143298Y304600D02*
G02X145502I1102J0D01*
G02X145142Y303785I-1103J0D01*
G03X145077Y303657I134J-149D01*
G01X145051Y303390D01*
G03X145088Y303252I199J-21D01*
G02X145302Y302600I-888J-653D01*
G02X144945Y301788I-1102J0D01*
G03X144881Y301659I135J-147D01*
G01X144855Y301392D01*
G03X144892Y301256I199J-19D01*
G01X144893Y301255D01*
G02X145109Y300600I-885J-655D01*
G02X142905I-1102J0D01*
G02X143262Y301412I1102J0D01*
G03X143326Y301541I-135J147D01*
G01X143352Y301808D01*
G03X143315Y301944I-199J19D01*
G01X143314Y301945D01*
G02X143098Y302600I885J655D01*
G02X143458Y303415I1103J0D01*
G03X143523Y303543I-134J149D01*
G01X143549Y303810D01*
G03X143512Y303948I-199J21D01*
G02X143298Y304600I888J653D01*
G37*
G36*
G01X194167Y308380D02*
G03X193633I-267J-298D01*
G02X192897Y308098I-736J819D01*
G02Y310302I0J1102D01*
G02X193633Y310020I0J-1101D01*
G03X194167I267J298D01*
G02X194903Y310302I736J-819D01*
G02Y308098I0J-1102D01*
G02X194167Y308380I0J1101D01*
G37*
G36*
G01X193810Y314365D02*
G03X193491Y314818I-395J61D01*
G02X192598Y315900I209J1082D01*
G02X194802I1102J0D01*
G02X194790Y315735I-1102J-3D01*
G03X195109Y315282I395J-61D01*
G02X196002Y314200I-209J-1082D01*
G02X193798I-1102J0D01*
G02X193810Y314365I1102J3D01*
G37*
G36*
G01X147931Y325443D02*
Y325557D01*
G03X147895Y325672I-200J1D01*
G02X147698Y326300I905J629D01*
G02X149902I1102J0D01*
G02X149705Y325672I-1102J1D01*
G03X149669Y325557I164J-114D01*
G01Y325443D01*
G03X149705Y325328I200J-1D01*
G02X149902Y324700I-905J-629D01*
G02X147698I-1102J0D01*
G02X147895Y325328I1102J-1D01*
G03X147931Y325443I-164J114D01*
G37*
G36*
G01X161578Y325882D02*
G02X160898Y326900I422J1018D01*
G02X162000Y328002I1102J0D01*
G02X162628Y327805I-1J-1102D01*
G03X162743Y327769I114J164D01*
G01X162857D01*
G03X162972Y327805I1J200D01*
G02X163600Y328002I629J-905D01*
G02X164702Y326900I0J-1102D01*
G02X164022Y325882I-1102J0D01*
G03X163899Y325682I77J-185D01*
G02X163902Y325600I-1099J-81D01*
G02X161698I-1102J0D01*
G02X161701Y325682I1102J1D01*
G03X161578Y325882I-200J15D01*
G37*
G36*
G01X321146Y327797D02*
G03Y328303I-309J253D01*
G02X320898Y328999I854J697D01*
G01Y329000D01*
G02X323102I1102J0D01*
G01Y328999D01*
G02X322854Y328303I-1102J1D01*
G03Y327797I309J-253D01*
G02X323102Y327101I-854J-697D01*
G01Y327100D01*
G02X320898I-1102J0D01*
G01Y327101D01*
G02X321146Y327797I1102J-1D01*
G37*
G36*
G01X190893Y331650D02*
G03X190307I-293J-273D01*
G02X189500Y331298I-807J749D01*
G02Y333502I0J1102D01*
G02X190307Y333150I0J-1101D01*
G03X190893I293J273D01*
G02X191700Y333502I807J-749D01*
G02Y331298I0J-1102D01*
G02X190893Y331650I0J1101D01*
G37*
G36*
G01X326898Y335200D02*
G02X327099Y335835I1101J1D01*
G03Y336065I-163J115D01*
G02X326898Y336700I900J634D01*
G02X329102I1102J0D01*
G02X328901Y336065I-1101J-1D01*
G03Y335835I163J-115D01*
G02X329102Y335200I-900J-634D01*
G02X326898I-1102J0D01*
G37*
G36*
G01X259578Y338873D02*
Y339187D01*
G03X259501Y339344I-200J-1D01*
G02X258888Y340605I989J1260D01*
G02X260490Y342207I1602J0D01*
G02X261837Y341473I0J-1603D01*
G01X261860Y341437D01*
X261931Y341390D01*
X262313Y341331D01*
X262393Y341353D01*
X262427Y341381D01*
G02X263063Y341609I636J-774D01*
G01X263064D01*
G02Y339605I0J-1002D01*
G01X263062D01*
G02X262428Y339832I1J1002D01*
G01X262395Y339859D01*
X262313Y339882D01*
X261976Y339829D01*
G03X261838Y339740I30J-198D01*
G01Y339739D01*
G02X261479Y339344I-1349J865D01*
G03X261402Y339187I123J-158D01*
G01Y338873D01*
G03X261479Y338716I200J1D01*
G02X261833Y338329I-989J-1260D01*
G01X261856Y338294D01*
X261927Y338247D01*
X262305Y338187D01*
X262386Y338209D01*
X262419Y338236D01*
G02X263047Y338458I629J-780D01*
G01X263049D01*
G02Y336454I0J-1002D01*
G02X262420Y336676I0J1002D01*
G01X262387Y336703D01*
X262306Y336725D01*
X261927Y336664D01*
X261857Y336618D01*
X261834Y336582D01*
G02X260490Y335853I-1344J874D01*
G02X258888Y337455I0J1602D01*
G02X259501Y338716I1602J1D01*
G03X259578Y338873I-123J158D01*
G37*
G36*
G01X293760Y339605D02*
G02Y341609I0J1002D01*
G02X294395Y341382I0J-1002D01*
G01X294428Y341355D01*
X294510Y341332D01*
X294890Y341392D01*
X294961Y341439D01*
X294984Y341474D01*
G02X296330Y342207I1346J-869D01*
G02X297932Y340605I0J-1602D01*
G02X297319Y339344I-1602J-1D01*
G03X297242Y339187I123J-158D01*
G01Y338873D01*
G03X297319Y338716I200J1D01*
G02X297932Y337455I-989J-1260D01*
G02X296330Y335853I-1602J0D01*
G02X294986Y336582I0J1603D01*
G01X294963Y336618D01*
X294893Y336664D01*
X294514Y336725D01*
X294433Y336703D01*
X294400Y336676D01*
G02X293771Y336454I-629J780D01*
G02Y338458I0J1002D01*
G01X293773D01*
G02X294401Y338236I-1J-1002D01*
G01X294434Y338209D01*
X294515Y338187D01*
X294893Y338247D01*
X294964Y338294D01*
X294987Y338329D01*
G02X295341Y338716I1343J-873D01*
G03X295418Y338873I-123J158D01*
G01Y339187D01*
G03X295341Y339344I-200J-1D01*
G02X294983Y339738I990J1259D01*
G01X294960Y339774D01*
X294890Y339820D01*
X294509Y339881D01*
X294427Y339858D01*
X294394Y339831D01*
G02X293760Y339605I-634J776D01*
G37*
G36*
G01X166567Y357922D02*
G03Y358446I-302J262D01*
G02X166298Y359167I833J722D01*
G01Y359168D01*
G02X168502I1102J0D01*
G01Y359167D01*
G02X168233Y358446I-1102J1D01*
G03Y357922I302J-262D01*
G02X168502Y357201I-833J-722D01*
G01Y357200D01*
G02X166298I-1102J0D01*
G01Y357201D01*
G02X166567Y357922I1102J-1D01*
G37*
G36*
G01X167267Y369522D02*
G03Y370046I-302J262D01*
G02X166998Y370767I833J722D01*
G01Y370768D01*
G02X169202I1102J0D01*
G01Y370767D01*
G02X168933Y370046I-1102J1D01*
G03Y369522I302J-262D01*
G02X169202Y368801I-833J-722D01*
G01Y368800D01*
G02X166998I-1102J0D01*
G01Y368801D01*
G02X167267Y369522I1102J-1D01*
G37*
G36*
G01X190966Y371778D02*
G03X190434I-266J-299D01*
G02X189700Y371498I-734J822D01*
G02Y373702I0J1102D01*
G02X190434Y373422I0J-1102D01*
G03X190966I266J299D01*
G02X191700Y373702I734J-822D01*
G02Y371498I0J-1102D01*
G02X190966Y371778I0J1102D01*
G37*
G36*
G01X250600Y384798D02*
G02X249965Y384999I-1J1101D01*
G03X249735I-115J-163D01*
G02X249100Y384798I-634J900D01*
G02Y387002I0J1102D01*
G02X249735Y386801I1J-1101D01*
G03X249965I115J163D01*
G02X250600Y387002I634J-900D01*
G02Y384798I0J-1102D01*
G37*
G36*
G01X245200Y384998D02*
G02X244541Y385217I0J1101D01*
G03X244326Y385232I-119J-161D01*
G02X243800Y385098I-527J968D01*
G02Y387302I0J1102D01*
G02X244459Y387083I0J-1101D01*
G03X244674Y387068I119J161D01*
G02X245200Y387202I527J-968D01*
G02Y384998I0J-1102D01*
G37*
G36*
G01X259565Y385790D02*
Y385910D01*
G03X259524Y386032I-200J1D01*
G02X259298Y386700I874J668D01*
G02X260400Y387802I1102J0D01*
G02X261035Y387601I1J-1101D01*
G03X261265I115J163D01*
G02X261900Y387802I634J-900D01*
G02X263002Y386700I0J-1102D01*
G02X262776Y386032I-1100J0D01*
G03X262735Y385910I159J-121D01*
G01Y385790D01*
G03X262776Y385668I200J-1D01*
G02X263002Y385000I-874J-668D01*
G02X261900Y383898I-1102J0D01*
G02X261265Y384099I-1J1101D01*
G03X261035I-115J-163D01*
G02X260400Y383898I-634J900D01*
G02X259298Y385000I0J1102D01*
G02X259524Y385668I1100J0D01*
G03X259565Y385790I-159J121D01*
G37*
G36*
G01X296000Y387098D02*
G02X295365Y387299I-1J1101D01*
G03X295135I-115J-163D01*
G02X294500Y387098I-634J900D01*
G02Y389302I0J1102D01*
G02X295135Y389101I1J-1101D01*
G03X295365I115J163D01*
G02X296000Y389302I634J-900D01*
G02Y387098I0J-1102D01*
G37*
G36*
G01X258557Y391731D02*
X258443D01*
G03X258328Y391695I-1J-200D01*
G02X257700Y391498I-629J905D01*
G02Y393702I0J1102D01*
G02X258328Y393505I-1J-1102D01*
G03X258443Y393469I114J164D01*
G01X258557D01*
G03X258672Y393505I1J200D01*
G02X259300Y393702I629J-905D01*
G02Y391498I0J-1102D01*
G02X258672Y391695I1J1102D01*
G03X258557Y391731I-114J-164D01*
G37*
G36*
G01X244498Y391700D02*
G02X244699Y392335I1101J1D01*
G03Y392565I-163J115D01*
G02X244498Y393200I900J634D01*
G02X245600Y394302I1102J0D01*
G01X245601D01*
G02X246297Y394054I-1J-1102D01*
G01X246324Y394032D01*
X246389Y394008D01*
X246711D01*
X246776Y394032D01*
X246803Y394054D01*
G02X247499Y394302I697J-854D01*
G01X247500D01*
G02X248602Y393200I0J-1102D01*
G02X248401Y392565I-1101J-1D01*
G03Y392335I163J-115D01*
G02X248602Y391700I-900J-634D01*
G02X248405Y391072I-1102J1D01*
G03X248369Y390957I164J-114D01*
G01Y390843D01*
G03X248405Y390728I200J-1D01*
G02X248602Y390100I-905J-629D01*
G02X247500Y388998I-1102J0D01*
G01X247499D01*
G02X246803Y389246I1J1102D01*
G01X246776Y389268D01*
X246711Y389292D01*
X246389D01*
X246324Y389268D01*
X246297Y389246D01*
G02X245601Y388998I-697J854D01*
G01X245600D01*
G02X244498Y390100I0J1102D01*
G02X244695Y390728I1102J-1D01*
G03X244731Y390843I-164J114D01*
G01Y390957D01*
G03X244695Y391072I-200J1D01*
G02X244498Y391700I905J629D01*
G37*
G36*
G01X260998D02*
G02X261199Y392335I1101J1D01*
G03Y392565I-163J115D01*
G02X260998Y393200I900J634D01*
G02X262100Y394302I1102J0D01*
G02X262728Y394105I-1J-1102D01*
G03X262843Y394069I114J164D01*
G01X262957D01*
G03X263072Y394105I1J200D01*
G02X263700Y394302I629J-905D01*
G02X264802Y393200I0J-1102D01*
G02X264601Y392565I-1101J-1D01*
G03Y392335I163J-115D01*
G02X264802Y391700I-900J-634D01*
G02X263700Y390598I-1102J0D01*
G02X263072Y390795I1J1102D01*
G03X262957Y390831I-114J-164D01*
G01X262843D01*
G03X262728Y390795I-1J-200D01*
G02X262100Y390598I-629J905D01*
G02X260998Y391700I0J1102D01*
G37*
G36*
G01X190059Y392288D02*
G03X189565Y392383I-306J-258D01*
G02X189048Y392254I-517J973D01*
G02Y394458I0J1102D01*
G02X189889Y394068I0J-1102D01*
G03X190383Y393973I306J258D01*
G02X190900Y394102I517J-973D01*
G02Y391898I0J-1102D01*
G02X190059Y392288I0J1102D01*
G37*
G36*
G01X186554Y397044D02*
G02X185625Y395956I-1102J0D01*
G03X185464Y395811I32J-197D01*
G02X184400Y394998I-1064J290D01*
G02X183298Y396100I0J1102D01*
G02X184227Y397188I1102J0D01*
G03X184388Y397333I-32J197D01*
G02X185452Y398146I1064J-290D01*
G02X186554Y397044I0J-1102D01*
G37*
G36*
G01X169231Y398643D02*
Y398757D01*
G03X169195Y398872I-200J1D01*
G02X168998Y399500I905J629D01*
G02X171202I1102J0D01*
G02X171005Y398872I-1102J1D01*
G03X170969Y398757I164J-114D01*
G01Y398643D01*
G03X171005Y398528I200J-1D01*
G02X171202Y397900I-905J-629D01*
G02X168998I-1102J0D01*
G02X169195Y398528I1102J-1D01*
G03X169231Y398643I-164J114D01*
G37*
G36*
G01X258057Y399231D02*
X257943D01*
G03X257828Y399195I-1J-200D01*
G02X257200Y398998I-629J905D01*
G02Y401202I0J1102D01*
G02X257828Y401005I-1J-1102D01*
G03X257943Y400969I114J164D01*
G01X258057D01*
G03X258172Y401005I1J200D01*
G02X258800Y401202I629J-905D01*
G02Y398998I0J-1102D01*
G02X258172Y399195I1J1102D01*
G03X258057Y399231I-114J-164D01*
G37*
G36*
G01X269800Y401298D02*
G02X269208Y401471I1J1101D01*
G03X268992I-108J-169D01*
G02X268400Y401298I-593J928D01*
G02Y403502I0J1102D01*
G02X268992Y403329I-1J-1101D01*
G03X269208I108J169D01*
G02X269800Y403502I593J-928D01*
G02Y401298I0J-1102D01*
G37*
G36*
G01X274698Y401300D02*
G02X274899Y401935I1101J1D01*
G03Y402165I-163J115D01*
G02X274698Y402800I900J634D01*
G02X276902I1102J0D01*
G02X276701Y402165I-1101J-1D01*
G03Y401935I163J-115D01*
G02X276902Y401300I-900J-634D01*
G02X274698I-1102J0D01*
G37*
G36*
G01X247665Y402890D02*
Y403010D01*
G03X247624Y403132I-200J1D01*
G02X247398Y403800I874J668D01*
G02X248500Y404902I1102J0D01*
G02X249135Y404701I1J-1101D01*
G03X249365I115J163D01*
G02X250000Y404902I634J-900D01*
G02X251102Y403800I0J-1102D01*
G02X250876Y403132I-1100J0D01*
G03X250835Y403010I159J-121D01*
G01Y402890D01*
G03X250876Y402768I200J-1D01*
G02X251102Y402100I-874J-668D01*
G02X250000Y400998I-1102J0D01*
G02X249365Y401199I-1J1101D01*
G03X249135I-115J-163D01*
G02X248500Y400998I-634J900D01*
G02X247398Y402100I0J1102D01*
G02X247624Y402768I1100J0D01*
G03X247665Y402890I-159J121D01*
G37*
G36*
G01X261205Y406809D02*
X261269Y406908D01*
G03X261300Y407029I-169J108D01*
G02X261298Y407100I1100J67D01*
G02X262400Y408202I1102J0D01*
G02X263028Y408005I-1J-1102D01*
G03X263143Y407969I114J164D01*
G01X263257D01*
G03X263372Y408005I1J200D01*
G02X264000Y408202I629J-905D01*
G02X264695Y407955I0J-1103D01*
G03X264925Y407940I126J156D01*
G02X265500Y408102I575J-939D01*
G02X266602Y407000I0J-1102D01*
G02X265892Y405970I-1102J0D01*
G03X265795Y405891I71J-187D01*
G01X265731Y405792D01*
G03X265700Y405671I169J-108D01*
G02X265702Y405600I-1100J-67D01*
G02X265501Y404965I-1101J-1D01*
G03Y404735I163J-115D01*
G02X265702Y404100I-900J-634D01*
G02X264600Y402998I-1102J0D01*
G02X263905Y403245I0J1103D01*
G03X263675Y403260I-126J-156D01*
G02X263100Y403098I-575J939D01*
G02X262472Y403295I1J1102D01*
G03X262357Y403331I-114J-164D01*
G01X262243D01*
G03X262128Y403295I-1J-200D01*
G02X261500Y403098I-629J905D01*
G02X260398Y404200I0J1102D01*
G02X260599Y404835I1101J1D01*
G03Y405065I-163J115D01*
G02X260398Y405700I900J634D01*
G02X261108Y406730I1102J0D01*
G03X261205Y406809I-71J187D01*
G37*
G36*
G01X190846Y411896D02*
G03X190792Y412455I-310J252D01*
G02X190398Y413300I709J845D01*
G02X192602I1102J0D01*
G02X192354Y412604I-1101J0D01*
G03X192408Y412045I310J-252D01*
G02X192802Y411200I-709J-845D01*
G02X190598I-1102J0D01*
G02X190846Y411896I1101J0D01*
G37*
G36*
G01X324138Y411794D02*
G03X323898Y412274I-385J107D01*
G02X323198Y413300I402J1026D01*
G02X325402I1102J0D01*
G02X325362Y413006I-1102J0D01*
G03X325602Y412526I385J-107D01*
G02X326302Y411500I-402J-1026D01*
G02X324098I-1102J0D01*
G02X324138Y411794I1102J0D01*
G37*
G36*
G01X256100Y412698D02*
G02X255465Y412899I-1J1101D01*
G03X255235I-115J-163D01*
G02X254600Y412698I-634J900D01*
G02Y414902I0J1102D01*
G02X255235Y414701I1J-1101D01*
G03X255465I115J163D01*
G02X256100Y414902I634J-900D01*
G02Y412698I0J-1102D01*
G37*
G36*
G01X277702Y414700D02*
G02X275507Y414557I-1102J-1D01*
G03X275354Y414726I-198J-26D01*
G02X274498Y415800I246J1074D01*
G02X276693Y415943I1102J1D01*
G03X276846Y415774I198J26D01*
G02X277702Y414700I-246J-1074D01*
G37*
G36*
G01X226662Y418704D02*
X226538D01*
G03X226410Y418657I1J-200D01*
G02X225700Y418398I-710J844D01*
G02Y420602I0J1102D01*
G02X226410Y420343I0J-1103D01*
G03X226538Y420296I129J153D01*
G01X226662D01*
G03X226790Y420343I-1J200D01*
G02X227500Y420602I710J-844D01*
G02Y418398I0J-1102D01*
G02X226790Y418657I0J1103D01*
G03X226662Y418704I-129J-153D01*
G37*
G36*
G01X285598Y419600D02*
G02X287802I1102J0D01*
G02X287783Y419399I-1102J3D01*
G01Y419397D01*
G03X287807Y419261I197J-35D01*
G01X287941Y419033D01*
G03X288050Y418945I172J102D01*
G02X288802Y417900I-350J-1045D01*
G02X287700Y416798I-1102J0D01*
G02X286990Y417057I0J1103D01*
G03X286862Y417104I-129J-153D01*
G01X286738D01*
G03X286610Y417057I1J-200D01*
G02X285900Y416798I-710J844D01*
G02X284798Y417900I0J1102D01*
G02X285415Y418890I1103J0D01*
G03X285509Y418985I-87J180D01*
G01X285615Y419211D01*
G03X285629Y419342I-181J86D01*
G02X285598Y419600I1071J260D01*
G37*
G36*
G01X205935Y422499D02*
G02X205300Y422298I-634J900D01*
G02Y424502I0J1102D01*
G02X205935Y424301I1J-1101D01*
G03X206165I115J163D01*
G02X206800Y424502I634J-900D01*
G02X207899Y423476I0J-1102D01*
G01Y423474D01*
G03X207962Y423343I199J15D01*
G01X208162Y423156D01*
G03X208299Y423102I137J146D01*
G01X208300D01*
G02Y420898I0J-1102D01*
G02X207201Y421924I0J1102D01*
G01Y421926D01*
G03X207138Y422057I-199J-15D01*
G01X206938Y422244D01*
G03X206801Y422298I-137J-146D01*
G01X206800D01*
G02X206165Y422499I-1J1101D01*
G03X205935I-115J-163D01*
G37*
G36*
G01X197365Y422850D02*
G03X197632Y423329I-121J381D01*
G02X197598Y423600I1068J272D01*
G02X199802I1102J0D01*
G02X199035Y422550I-1102J0D01*
G03X198768Y422071I121J-381D01*
G02X198802Y421800I-1068J-272D01*
G02X196598I-1102J0D01*
G02X197365Y422850I1102J0D01*
G37*
G36*
G01X227400Y422098D02*
G02X226327Y422946I0J1103D01*
G03X226143Y423099I-194J-46D01*
G02X225098Y424200I58J1101D01*
G02X226200Y425302I1102J0D01*
G02X227273Y424454I0J-1103D01*
G03X227457Y424301I194J46D01*
G02X228502Y423200I-58J-1101D01*
G02X227400Y422098I-1102J0D01*
G37*
G36*
G01X323280Y423319D02*
G03X323493Y423852I-152J370D01*
G02X323398Y424299I1007J448D01*
G01Y424300D01*
G02X325602I1102J0D01*
G02X324920Y423281I-1102J0D01*
G03X324707Y422748I152J-370D01*
G02X324802Y422301I-1007J-448D01*
G01Y422300D01*
G02X322598I-1102J0D01*
G02X323280Y423319I1102J0D01*
G37*
G36*
G01X301100Y426698D02*
G02X300465Y426899I-1J1101D01*
G03X300235I-115J-163D01*
G02X299600Y426698I-634J900D01*
G02Y428902I0J1102D01*
G02X300235Y428701I1J-1101D01*
G03X300465I115J163D01*
G02X301100Y428902I634J-900D01*
G02Y426698I0J-1102D01*
G37*
G36*
G01X214510Y427065D02*
X214390D01*
G03X214268Y427024I-1J-200D01*
G02X213600Y426798I-668J874D01*
G02Y429002I0J1102D01*
G02X214268Y428776I0J-1100D01*
G03X214390Y428735I121J159D01*
G01X214510D01*
G03X214632Y428776I1J200D01*
G02X215300Y429002I668J-874D01*
G02Y426798I0J-1102D01*
G02X214632Y427024I0J1100D01*
G03X214510Y427065I-121J-159D01*
G37*
G36*
G01X226500Y431698D02*
G02X225805Y431945I0J1103D01*
G03X225575Y431960I-126J-156D01*
G02X225000Y431798I-575J939D01*
G02Y434002I0J1102D01*
G02X225695Y433755I0J-1103D01*
G03X225925Y433740I126J156D01*
G02X226500Y433902I575J-939D01*
G02Y431698I0J-1102D01*
G37*
G36*
G01X193899Y431965D02*
G02Y433235I900J635D01*
G03Y433465I-163J115D01*
G02X193698Y434100I900J634D01*
G02X195902I1102J0D01*
G02X195701Y433465I-1101J-1D01*
G03Y433235I163J-115D01*
G02X195902Y432600I-900J-634D01*
G01Y432599D01*
G03X195965Y432453I200J0D01*
G01X196209Y432225D01*
X196287Y432197D01*
X196328Y432200D01*
G02X196400Y432202I67J-1100D01*
G02X197502Y431100I0J-1102D01*
G02X197255Y430405I-1103J0D01*
G03X197240Y430175I156J-126D01*
G02X197402Y429600I-939J-575D01*
G02X196300Y428498I-1102J0D01*
G02X195665Y428699I-1J1101D01*
G03X195435I-115J-163D01*
G02X194800Y428498I-634J900D01*
G02X193698Y429600I0J1102D01*
G02X193899Y430235I1101J1D01*
G03Y430465I-163J115D01*
G02Y431735I900J635D01*
G03Y431965I-163J115D01*
G37*
G36*
G01X209555Y439292D02*
G03X209901Y439718I-53J397D01*
G02X209898Y439799I1099J81D01*
G01Y439800D01*
G02X212102I1102J0D01*
G02X211145Y438708I-1102J0D01*
G03X210799Y438282I53J-397D01*
G02X210802Y438201I-1099J-81D01*
G01Y438200D01*
G02X208598I-1102J0D01*
G02X209555Y439292I1102J0D01*
G37*
G36*
G01X239646Y439096D02*
G03X239592Y439655I-310J252D01*
G02X239198Y440500I709J845D01*
G02X241402I1102J0D01*
G02X241154Y439804I-1101J0D01*
G03X241208Y439245I310J-252D01*
G02X241602Y438400I-709J-845D01*
G02X239398I-1102J0D01*
G02X239646Y439096I1101J0D01*
G37*
G36*
G01X229714Y440026D02*
G03X229660Y440560I-322J237D01*
G02X229298Y441377I741J817D01*
G02X231502I1102J0D01*
G02X231286Y440722I-1101J0D01*
G03X231340Y440188I322J-237D01*
G02X231702Y439371I-741J-817D01*
G02X229498I-1102J0D01*
G02X229714Y440026I1101J0D01*
G37*
G36*
G01X223874Y188825D02*
G02X224828Y188275I0J-1102D01*
G03X225001Y188175I173J100D01*
G01X225347D01*
G03X225520Y188275I0J200D01*
G02X226474Y188825I954J-552D01*
G02Y186621I0J-1102D01*
G02X225520Y187171I0J1102D01*
G03X225347Y187271I-173J-100D01*
G01X225001D01*
G03X224828Y187171I0J-200D01*
G02X223874Y186621I-954J552D01*
G02X223010Y187039I0J1102D01*
G03X222851Y187115I-157J-124D01*
G01X222534Y187112D01*
G03X222378Y187034I2J-200D01*
G01X222377Y187033D01*
G02X221500Y186598I-877J667D01*
G02Y188802I0J1102D01*
G02X222364Y188384I0J-1102D01*
G03X222523Y188308I157J124D01*
G01X222840Y188311D01*
G03X222996Y188389I-2J200D01*
G01X222997Y188390D01*
G02X223874Y188825I877J-667D01*
G37*
G36*
G01X222800Y194498D02*
G02Y196702I0J1102D01*
G02X223862Y195893I0J-1102D01*
G01X223874Y195848D01*
X223935Y195780D01*
X224272Y195642D01*
G03X224448Y195654I76J185D01*
G02X225000Y195802I552J-955D01*
G02X225935Y195283I0J-1102D01*
G01X225960Y195243D01*
X226041Y195194D01*
X226455Y195159D01*
X226543Y195195D01*
X226574Y195230D01*
G02X227400Y195602I826J-731D01*
G02Y193398I0J-1102D01*
G02X226465Y193917I0J1102D01*
G01X226440Y193957D01*
X226359Y194006D01*
X225945Y194041D01*
X225857Y194005D01*
X225826Y193970D01*
G02X225000Y193598I-826J731D01*
G02X223938Y194407I0J1102D01*
G01X223926Y194452D01*
X223865Y194520D01*
X223528Y194658D01*
G03X223352Y194646I-76J-185D01*
G02X222800Y194498I-552J955D01*
G37*
G36*
G01X216235Y195500D02*
G02X215198Y196600I65J1100D01*
G02X216300Y197702I1102J0D01*
G02X217392Y196746I0J-1102D01*
G03X217765Y196400I397J53D01*
G02X218802Y195300I-65J-1100D01*
G02X218774Y195053I-1102J0D01*
G01X218762Y195002D01*
X218791Y194903D01*
X219103Y194591D01*
X219202Y194562D01*
X219253Y194574D01*
G02X219500Y194602I247J-1074D01*
G02X218398Y193500I0J-1102D01*
G02X218426Y193747I1102J0D01*
G01X218438Y193798D01*
X218409Y193897D01*
X218097Y194209D01*
X217998Y194238D01*
X217947Y194226D01*
G02X217700Y194198I-247J1074D01*
G02X216608Y195154I0J1102D01*
G03X216235Y195500I-397J-53D01*
G37*
G36*
G01X208300Y203598D02*
G02Y205802I0J1102D01*
G02X209145Y205408I0J-1103D01*
G01X209169Y205379D01*
X209233Y205343D01*
X209570Y205295D01*
X209643Y205312D01*
X209673Y205332D01*
G02X210285Y205517I611J-917D01*
G02X211056Y205203I1J-1102D01*
G01X211081Y205178D01*
X211148Y205148D01*
X211483Y205128D01*
X211551Y205149D01*
X211580Y205172D01*
G02X212254Y205402I674J-873D01*
G02X213152Y204940I0J-1104D01*
G03X213315Y204856I163J116D01*
G01X213639D01*
G03X213802Y204940I0J200D01*
G02X214700Y205402I898J-642D01*
G02Y203198I0J-1102D01*
G02X213802Y203660I0J1104D01*
G03X213639Y203744I-163J-116D01*
G01X213315D01*
G03X213152Y203660I0J-200D01*
G02X212254Y203198I-898J642D01*
G01X212253D01*
G02X211483Y203512I0J1102D01*
G01X211458Y203537D01*
X211391Y203567D01*
X211056Y203587D01*
X210988Y203566D01*
X210959Y203543D01*
G02X210285Y203313I-674J873D01*
G02X209440Y203707I0J1103D01*
G01X209416Y203736D01*
X209352Y203772D01*
X209015Y203820D01*
X208942Y203803D01*
X208912Y203783D01*
G02X208302Y203598I-611J917D01*
G01X208300D01*
G37*
G36*
G01X185048Y245246D02*
G02X184498Y246200I552J954D01*
G02X186702I1102J0D01*
G02X186152Y245246I-1102J0D01*
G03Y244554I200J-346D01*
G02X186702Y243600I-552J-954D01*
G02X184498I-1102J0D01*
G02X185048Y244554I1102J0D01*
G03Y245246I-200J346D01*
G37*
G36*
G01X169348Y246246D02*
G02X168798Y247200I552J954D01*
G02X171002I1102J0D01*
G02X170452Y246246I-1102J0D01*
G03Y245554I200J-346D01*
G02X171002Y244600I-552J-954D01*
G02X168798I-1102J0D01*
G02X169348Y245554I1102J0D01*
G03Y246246I-200J346D01*
G37*
G36*
G01X173711Y248071D02*
G02X175915I1102J0D01*
G02X175692Y247406I-1103J0D01*
G03X175654Y247250I159J-121D01*
G01X175713Y246919D01*
X175759Y246851D01*
X175795Y246828D01*
G02X176302Y245900I-596J-928D01*
G02X175200Y244798I-1102J0D01*
G02X174565Y244999I-1J1101D01*
G03X174335I-115J-163D01*
G02X173700Y244798I-634J900D01*
G02X172598Y245900I0J1102D01*
G02X173536Y246990I1102J0D01*
G01X173585Y246997D01*
X173663Y247053D01*
X173833Y247387D01*
G03Y247568I-178J91D01*
G02X173711Y248071I980J504D01*
G37*
G36*
G01X148631Y254100D02*
G02X149733Y255202I1102J0D01*
G02X150687Y254652I0J-1102D01*
G03X150860Y254552I173J100D01*
G01X151206D01*
G03X151379Y254652I0J200D01*
G02X152333Y255202I954J-552D01*
G02Y252998I0J-1102D01*
G02X151379Y253548I0J1102D01*
G03X151206Y253648I-173J-100D01*
G01X150860D01*
G03X150687Y253548I0J-200D01*
G02X150060Y253048I-953J552D01*
G01X150059D01*
G03X149948Y252961I60J-191D01*
G01X149791Y252702D01*
X149778Y252631D01*
X149785Y252595D01*
G02X149802Y252400I-1085J-193D01*
G02X149601Y251765I-1101J-1D01*
G03Y251535I163J-115D01*
G02X149802Y250900I-900J-634D01*
G02X147598I-1102J0D01*
G02X147799Y251535I1101J1D01*
G03Y251765I-163J115D01*
G02X147598Y252400I900J634D01*
G02X148373Y253452I1102J0D01*
G01X148374D01*
G03X148485Y253539I-60J191D01*
G01X148642Y253798D01*
X148655Y253869D01*
X148648Y253905D01*
G02X148631Y254100I1085J193D01*
G37*
G36*
G01X196198D02*
G02X197300Y255202I1102J0D01*
G02X198401Y254156I0J-1102D01*
G01X198403Y254107D01*
X198453Y254023D01*
X198817Y253797D01*
X198914Y253790D01*
X198960Y253810D01*
G02X199448Y253901I441J-1010D01*
G01X199460D01*
G03X199838Y254194I-7J400D01*
G02X200900Y255002I1062J-294D01*
G02Y252798I0J-1102D01*
G02X200853Y252799I0J1102D01*
G01X200841D01*
G03X200462Y252506I6J-400D01*
G02X200365Y252268I-1062J294D01*
G03X200361Y252082I175J-97D01*
G01X200507Y251788D01*
G03X200658Y251679I179J89D01*
G02X201602Y250588I-158J-1091D01*
G02X201052Y249634I-1102J0D01*
G03X200952Y249461I100J-173D01*
G01Y249115D01*
G03X201052Y248942I200J0D01*
G02X201602Y247988I-552J-954D01*
G02X199398I-1102J0D01*
G02X199948Y248942I1102J0D01*
G03X200048Y249115I-100J173D01*
G01Y249461D01*
G03X199948Y249634I-200J0D01*
G02X199398Y250588I552J954D01*
G02X199535Y251120I1101J0D01*
G03X199539Y251306I-175J97D01*
G01X199393Y251600D01*
G03X199242Y251709I-179J-89D01*
G02X198960Y251790I161J1090D01*
G01X198914Y251810D01*
X198817Y251803D01*
X198453Y251577D01*
X198403Y251493D01*
X198401Y251444D01*
G02X197300Y250398I-1101J56D01*
G02X196198Y251500I0J1102D01*
G02X196748Y252454I1102J0D01*
G03X196848Y252627I-100J173D01*
G01Y252973D01*
G03X196748Y253146I-200J0D01*
G02X196198Y254100I552J954D01*
G37*
G36*
G01X335974Y254763D02*
G02X335602Y254698I-373J1037D01*
G01X335600D01*
G02X336702Y255800I0J1102D01*
G02X336693Y255663I-1102J4D01*
G03X337226Y255237I397J-50D01*
G02X337598Y255302I373J-1037D01*
G01X337600D01*
G02X336498Y254200I0J-1102D01*
G02X336507Y254337I1102J-4D01*
G03X335974Y254763I-397J50D01*
G37*
G36*
G01X166664Y255286D02*
G02X166114Y256240I552J954D01*
G02X168318I1102J0D01*
G02X167768Y255286I-1102J0D01*
G03Y254594I200J-346D01*
G02X168318Y253640I-552J-954D01*
G02X166114I-1102J0D01*
G02X166664Y254594I1102J0D01*
G03Y255286I-200J346D01*
G37*
G36*
G01X149180Y261667D02*
G02X151384I1102J0D01*
G02X150834Y260713I-1102J0D01*
G03X150734Y260540I100J-173D01*
G01Y260194D01*
G03X150834Y260021I200J0D01*
G02X151384Y259067I-552J-954D01*
G02X150282Y257965I-1102J0D01*
G02X150088Y257983I4J1102D01*
G03X149948Y257956I-35J-197D01*
G01X149841Y257891D01*
G03X149754Y257778I105J-171D01*
G02X149640Y257525I-1054J323D01*
G03X149655Y257295I171J-104D01*
G02X149902Y256600I-856J-695D01*
G02X147698I-1102J0D01*
G02X147860Y257175I1101J0D01*
G03X147845Y257405I-171J104D01*
G02X147598Y258100I856J695D01*
G02X148700Y259202I1102J0D01*
G02X148894Y259184I-4J-1102D01*
G03X149034Y259211I35J197D01*
G01X149141Y259276D01*
G03X149228Y259389I-105J171D01*
G02X149730Y260021I1054J-322D01*
G03X149830Y260194I-100J173D01*
G01Y260540D01*
G03X149730Y260713I-200J0D01*
G02X149180Y261667I552J954D01*
G37*
G36*
G01X154648Y261046D02*
G02X154098Y262000I552J954D01*
G02X156302I1102J0D01*
G02X155752Y261046I-1102J0D01*
G03Y260354I200J-346D01*
G02X156302Y259400I-552J-954D01*
G02X154098I-1102J0D01*
G02X154648Y260354I1102J0D01*
G03Y261046I-200J346D01*
G37*
G36*
G01X335156Y265397D02*
G02X334700Y265298I-456J1003D01*
G02Y267502I0J1102D01*
G02X335784Y266596I0J-1101D01*
G03X336344Y266303I394J71D01*
G02X336800Y266402I456J-1003D01*
G02Y264198I0J-1102D01*
G02X335716Y265104I0J1101D01*
G03X335156Y265397I-394J-71D01*
G37*
G36*
G01X163537Y270120D02*
G02X163098Y271000I663J880D01*
G02X165302I1102J0D01*
G02X164863Y270120I-1102J0D01*
G03Y269480I240J-320D01*
G02X165302Y268600I-663J-880D01*
G02X163098I-1102J0D01*
G02X163537Y269480I1102J0D01*
G03Y270120I-240J320D01*
G37*
G36*
G01X168748Y270146D02*
G02X168198Y271100I552J954D01*
G02X170402I1102J0D01*
G02X169852Y270146I-1102J0D01*
G03Y269454I200J-346D01*
G02X170402Y268500I-552J-954D01*
G02X168198I-1102J0D01*
G02X168748Y269454I1102J0D01*
G03Y270146I-200J346D01*
G37*
G36*
G01X175448D02*
G02X174898Y271100I552J954D01*
G02X177102I1102J0D01*
G02X176552Y270146I-1102J0D01*
G03Y269454I200J-346D01*
G02X177102Y268500I-552J-954D01*
G02X174898I-1102J0D01*
G02X175448Y269454I1102J0D01*
G03Y270146I-200J346D01*
G37*
G36*
G01X189714Y274263D02*
G02X188760Y273713I-954J552D01*
G02Y275917I0J1102D01*
G02X189714Y275367I0J-1102D01*
G03X190406I346J200D01*
G02X191360Y275917I954J-552D01*
G02Y273713I0J-1102D01*
G02X190406Y274263I0J1102D01*
G03X189714I-346J-200D01*
G37*
G36*
G01X331376Y277092D02*
G02X330898Y278000I623J908D01*
G02X333102I1102J0D01*
G02X332698Y277147I-1103J0D01*
G03X332724Y276508I253J-310D01*
G02X333202Y275600I-623J-908D01*
G02X330998I-1102J0D01*
G02X331402Y276453I1103J0D01*
G03X331376Y277092I-253J310D01*
G37*
G36*
G01X167317Y279341D02*
G02X167098Y280000I882J659D01*
G02X168200Y281102I1102J0D01*
G02X169053Y280698I0J-1103D01*
G01X169083Y280661D01*
X169168Y280623D01*
X169536Y280638D01*
G03X169692Y280724I-8J200D01*
G02X170600Y281202I908J-623D01*
G02X171702Y280100I0J-1102D01*
G02X171501Y279465I-1101J-1D01*
G03Y279235I163J-115D01*
G02X171702Y278600I-900J-634D01*
G02X171137Y277637I-1103J0D01*
G01X171097Y277615D01*
X171044Y277542D01*
X170983Y277191D01*
G03X171030Y277025I197J-34D01*
G02X171302Y276300I-830J-725D01*
G02X169098I-1102J0D01*
G02X169663Y277263I1103J0D01*
G01X169703Y277285D01*
X169756Y277358D01*
X169817Y277709D01*
G03X169770Y277875I-197J34D01*
G02X169756Y277891I822J734D01*
G03X169603Y277962I-153J-129D01*
G01X169297D01*
G03X169144Y277891I0J-200D01*
G02X168300Y277498I-844J710D01*
G02X167198Y278600I0J1102D01*
G02X167332Y279126I1102J-1D01*
G03X167317Y279341I-176J96D01*
G37*
G36*
G01X162748Y280446D02*
G02X162198Y281400I552J954D01*
G02X164402I1102J0D01*
G02X163852Y280446I-1102J0D01*
G03Y279754I200J-346D01*
G02X164402Y278800I-552J-954D01*
G02X162198I-1102J0D01*
G02X162748Y279754I1102J0D01*
G03Y280446I-200J346D01*
G37*
G36*
G01X152200Y281098D02*
G02X153302Y282200I0J1102D01*
G01Y282199D01*
G02X153291Y282044I-1102J0D01*
G01Y282043D01*
G03X153347Y281874I198J-28D01*
G01X153574Y281647D01*
G03X153743Y281591I141J142D01*
G01X153744D01*
G02X153899Y281602I155J-1091D01*
G01X153900D01*
G02X155002Y280500I0J-1102D01*
G02X154563Y279620I-1102J0D01*
G03X154483Y279460I120J-160D01*
G01Y279140D01*
G03X154563Y278980I200J0D01*
G02X155002Y278100I-663J-880D01*
G02X152798I-1102J0D01*
G02X153237Y278980I1102J0D01*
G03X153317Y279140I-120J160D01*
G01Y279460D01*
G03X153237Y279620I-200J0D01*
G02X152798Y280500I663J880D01*
G01Y280501D01*
G02X152809Y280656I1102J0D01*
G01Y280657D01*
G03X152753Y280826I-198J28D01*
G01X152526Y281053D01*
G03X152357Y281109I-141J-142D01*
G01X152356D01*
G02X152201Y281098I-155J1091D01*
G01X152200D01*
G37*
G36*
G01X315013Y281856D02*
G02X314200Y281498I-813J744D01*
G02Y283702I0J1102D01*
G01X314201D01*
G02X315075Y283271I0J-1102D01*
G03X315687Y283244I317J243D01*
G02X316500Y283602I813J-744D01*
G02Y281398I0J-1102D01*
G01X316499D01*
G02X315625Y281829I0J1102D01*
G03X315013Y281856I-317J-243D01*
G37*
G36*
G01X274545Y292047D02*
G02X274125Y292863I583J816D01*
G02X276129I1002J0D01*
G02X275618Y291990I-1001J0D01*
G03X275582Y291316I196J-348D01*
G02X276002Y290500I-583J-816D01*
G02X273998I-1002J0D01*
G02X274509Y291373I1001J0D01*
G03X274545Y292047I-196J348D01*
G37*
G36*
G01X178134Y294222D02*
G03X178666I266J299D01*
G02X179400Y294502I734J-822D01*
G02X180502Y293400I0J-1102D01*
G02X180096Y292545I-1103J0D01*
G01X180056Y292513D01*
X180018Y292420D01*
X180063Y291986D01*
X180120Y291903D01*
X180165Y291880D01*
G02X180614Y291452I-505J-980D01*
G03X180787Y291352I173J100D01*
G01X181133D01*
G03X181306Y291452I0J200D01*
G02X182260Y292002I954J-552D01*
G02Y289798I0J-1102D01*
G02X181306Y290348I0J1102D01*
G03X181133Y290448I-173J-100D01*
G01X180787D01*
G03X180614Y290348I0J-200D01*
G02X179660Y289798I-954J552D01*
G02X178558Y290900I0J1102D01*
G02X178964Y291755I1103J0D01*
G01X179004Y291787D01*
X179042Y291880D01*
X178997Y292314D01*
X178940Y292397D01*
X178895Y292420D01*
G02X178666Y292578I506J979D01*
G03X178134I-266J-299D01*
G02X177400Y292298I-734J822D01*
G02Y294502I0J1102D01*
G02X178134Y294222I0J-1102D01*
G37*
G36*
G01X193398Y301140D02*
G02X195602I1102J0D01*
G02X195052Y300186I-1102J0D01*
G03X194952Y300013I100J-173D01*
G01Y299667D01*
G03X195052Y299494I200J0D01*
G02X195602Y298540I-552J-954D01*
G02X195367Y297859I-1102J-1D01*
G03X195324Y297725I157J-124D01*
G01X195331Y297600D01*
G03X195388Y297471I199J11D01*
G02X195702Y296700I-788J-770D01*
G02X193498I-1102J0D01*
G02X193733Y297381I1102J1D01*
G03X193776Y297515I-157J124D01*
G01X193769Y297640D01*
G03X193712Y297769I-199J-11D01*
G02X193398Y298540I788J770D01*
G02X193948Y299494I1102J0D01*
G03X194048Y299667I-100J173D01*
G01Y300013D01*
G03X193948Y300186I-200J0D01*
G02X193398Y301140I552J954D01*
G37*
G36*
G01X190399Y322643D02*
G02X189445Y322093I-954J552D01*
G02Y324297I0J1102D01*
G02X190399Y323747I0J-1102D01*
G03X191091I346J200D01*
G02X192045Y324297I954J-552D01*
G02Y322093I0J-1102D01*
G02X191091Y322643I0J1102D01*
G03X190399I-346J-200D01*
G37*
G36*
G01X184454Y322748D02*
G02X183500Y322198I-954J552D01*
G02Y324402I0J1102D01*
G02X184454Y323852I0J-1102D01*
G03X185146I346J200D01*
G02X186100Y324402I954J-552D01*
G02Y322198I0J-1102D01*
G02X185146Y322748I0J1102D01*
G03X184454I-346J-200D01*
G37*
G36*
G01X168654Y323048D02*
G02X167700Y322498I-954J552D01*
G02Y324702I0J1102D01*
G02X168654Y324152I0J-1102D01*
G03X169346I346J200D01*
G02X170300Y324702I954J-552D01*
G02Y322498I0J-1102D01*
G02X169346Y323048I0J1102D01*
G03X168654I-346J-200D01*
G37*
G36*
G01X174830Y332066D02*
G02X173876Y331516I-954J552D01*
G02Y333720I0J1102D01*
G02X174830Y333170I0J-1102D01*
G03X175522I346J200D01*
G02X176476Y333720I954J-552D01*
G02Y331516I0J-1102D01*
G02X175522Y332066I0J1102D01*
G03X174830I-346J-200D01*
G37*
G36*
G01X182201Y337402D02*
G03X182601Y337775I1J400D01*
G02X183700Y338802I1099J-75D01*
G02X183699Y336598I0J-1102D01*
G03X183299Y336225I-1J-400D01*
G02X182200Y335198I-1099J75D01*
G02X181235Y335769I0J1101D01*
G01X181211Y335813D01*
X181126Y335868D01*
X180692Y335902D01*
X180600Y335862D01*
X180569Y335822D01*
G02X179700Y335398I-869J679D01*
G02Y337602I0J1102D01*
G02X180665Y337031I0J-1101D01*
G01X180689Y336987D01*
X180774Y336932D01*
X181208Y336898D01*
X181300Y336938D01*
X181331Y336978D01*
G02X182201Y337402I869J-678D01*
G37*
G36*
G01X319498Y353700D02*
G02X321702I1102J0D01*
G02X321298Y352847I-1103J0D01*
G01X321261Y352817D01*
X321223Y352732D01*
X321238Y352364D01*
G03X321324Y352208I200J8D01*
G02X321802Y351300I-623J-908D01*
G02X321522Y350566I-1102J0D01*
G03X321471Y350433I149J-133D01*
G01Y350167D01*
G03X321522Y350034I200J0D01*
G02X321802Y349300I-822J-734D01*
G02X321035Y348250I-1102J0D01*
G03X320920Y348156I60J-191D01*
G01X320787Y347917D01*
G03X320768Y347772I175J-97D01*
G01Y347771D01*
G02X320802Y347500I-1068J-272D01*
G02X319700Y346398I-1102J0D01*
G02X318600Y347428I0J1102D01*
G01X318598Y347465D01*
X318568Y347530D01*
X318356Y347742D01*
G03X318228Y347800I-141J-142D01*
G02X317198Y348900I72J1100D01*
G02X318300Y350002I1102J0D01*
G02X319073Y349685I0J-1101D01*
G03X319075Y349683I142J140D01*
G03X319247Y349629I140J144D01*
G01X319615Y349690D01*
X319692Y349748D01*
X319713Y349791D01*
G02X319878Y350034I986J-492D01*
G03X319929Y350167I-149J133D01*
G01Y350433D01*
G03X319878Y350566I-200J0D01*
G02X319713Y350809I821J735D01*
G01X319692Y350852D01*
X319615Y350910D01*
X319247Y350971D01*
G03X319075Y350917I-32J-198D01*
G01X319074Y350916D01*
G02X318300Y350598I-774J783D01*
G02Y352802I0J1102D01*
G02X319287Y352191I0J-1103D01*
G01X319308Y352148D01*
X319385Y352090D01*
X319753Y352029D01*
G03X319925Y352083I32J198D01*
G01X319926Y352084D01*
G02X320002Y352153I778J-780D01*
G01X320039Y352183D01*
X320077Y352268D01*
X320062Y352636D01*
G03X319976Y352792I-200J-8D01*
G02X319498Y353700I623J908D01*
G37*
G36*
G01X319291Y367156D02*
G02X318898Y368000I710J844D01*
G02X321102I1102J0D01*
G02X320709Y367156I-1103J0D01*
G03Y366544I257J-306D01*
G02X321102Y365700I-710J-844D01*
G02X318898I-1102J0D01*
G02X319291Y366544I1103J0D01*
G03Y367156I-257J306D01*
G37*
G36*
G01X307490Y376044D02*
G02X307116Y376871I727J827D01*
G02X309320I1102J0D01*
G02X308933Y376032I-1103J0D01*
G03X308928Y375427I259J-305D01*
G02X309302Y374600I-727J-827D01*
G02X307098I-1102J0D01*
G02X307485Y375439I1103J0D01*
G03X307490Y376044I-259J305D01*
G37*
G36*
G01X325180Y388837D02*
G02X324300Y388398I-880J663D01*
G02Y390602I0J1102D01*
G02X325180Y390163I0J-1102D01*
G03X325820I320J240D01*
G02X326700Y390602I880J-663D01*
G02Y388398I0J-1102D01*
G02X325820Y388837I0J1102D01*
G03X325180I-320J-240D01*
G37*
G36*
G01X316508Y395398D02*
X316500D01*
G02X317602Y396500I0J1102D01*
G02X317592Y396355I-1102J3D01*
G03X317992Y395902I397J-53D01*
G01X318000D01*
G02X316898Y394800I0J-1102D01*
G02X316908Y394945I1102J-3D01*
G03X316508Y395398I-397J53D01*
G37*
G36*
G01X323698Y401000D02*
G02X325902I1102J0D01*
G02X325394Y400072I-1102J0D01*
G03X325308Y399952I108J-168D01*
G01X325241Y399686D01*
G03X325261Y399540I194J-48D01*
G01Y399539D01*
G02X325402Y399000I-960J-539D01*
G02X325201Y398366I-1100J0D01*
G03Y398135I163J-115D01*
G02X325240Y398076I-899J-637D01*
G03X325605Y398134I171J104D01*
G02X326676Y398978I1071J-258D01*
G02Y396774I0J-1102D01*
G02X325908Y397086I0J1101D01*
G03X325737Y397140I-139J-143D01*
G01X325421Y397091D01*
G03X325275Y396986I31J-198D01*
G02X324300Y396398I-975J514D01*
G02X323198Y397500I0J1102D01*
G02X323399Y398135I1101J1D01*
G03Y398365I-163J115D01*
G02X323198Y399000I900J634D01*
G02X323706Y399928I1102J0D01*
G03X323792Y400048I-108J168D01*
G01X323859Y400314D01*
G03X323839Y400460I-194J48D01*
G01Y400461D01*
G02X323698Y401000I960J539D01*
G37*
G36*
G01X331869Y409061D02*
G02X331500Y408998I-367J1039D01*
G02Y411202I0J1102D01*
G02X332599Y410185I0J-1102D01*
G03X333131Y409839I398J31D01*
G02X333500Y409902I367J-1039D01*
G02Y407698I0J-1102D01*
G02X332401Y408715I0J1102D01*
G03X331869Y409061I-398J-31D01*
G37*
G36*
G01X301858Y415629D02*
G02X301698Y416200I942J572D01*
G02X303902I1102J0D01*
G02X303156Y415157I-1102J0D01*
G03X302942Y414571I128J-379D01*
G02X303102Y414000I-942J-572D01*
G02X300898I-1102J0D01*
G02X301644Y415043I1102J0D01*
G03X301858Y415629I-128J379D01*
G37*
G36*
G01X176548Y418726D02*
G02X175998Y419680I552J954D01*
G02X178202I1102J0D01*
G02X177652Y418726I-1102J0D01*
G03Y418034I200J-346D01*
G02X178202Y417080I-552J-954D01*
G02X175998I-1102J0D01*
G02X176548Y418034I1102J0D01*
G03Y418726I-200J346D01*
G37*
G36*
G01X309912Y422578D02*
G02X311000Y423502I1088J-179D01*
G02Y421298I0J-1102D01*
G02X310693Y421341I-2J1102D01*
G03X310188Y421022I-111J-384D01*
G02X309100Y420098I-1088J179D01*
G02Y422302I0J1102D01*
G02X309407Y422259I2J-1102D01*
G03X309912Y422578I111J384D01*
G37*
G36*
G01X327251Y421517D02*
G02X326701Y422471I552J954D01*
G02X328905I1102J0D01*
G02X328355Y421517I-1102J0D01*
G03Y420825I200J-346D01*
G02X328905Y419871I-552J-954D01*
G02X326701I-1102J0D01*
G02X327251Y420825I1102J0D01*
G03Y421517I-200J346D01*
G37*
G36*
G01X210698Y423300D02*
G02X211800Y424402I1102J0D01*
G02X212435Y424201I1J-1101D01*
G03X212665I115J163D01*
G02X213300Y424402I634J-900D01*
G02X214402Y423300I0J-1102D01*
G02X214130Y422575I-1102J0D01*
G03X214083Y422409I150J-132D01*
G01X214144Y422058D01*
X214197Y421985D01*
X214237Y421963D01*
G02X214274Y421941I-545J-958D01*
G03X214505Y421956I105J170D01*
G02X215200Y422202I694J-857D01*
G02X216302Y421100I0J-1102D01*
G02X216076Y420432I-1100J0D01*
G03X216035Y420310I159J-121D01*
G01Y420190D01*
G03X216076Y420068I200J-1D01*
G02X216302Y419400I-874J-668D01*
G02X216101Y418765I-1101J-1D01*
G03Y418535I163J-115D01*
G02X216302Y417900I-900J-634D01*
G02X215200Y416798I-1102J0D01*
G02X214565Y416999I-1J1101D01*
G03X214335I-115J-163D01*
G02X213065I-635J900D01*
G03X212835I-115J-163D01*
G02X212200Y416798I-634J900D01*
G02X211098Y417900I0J1102D01*
G02X211299Y418535I1101J1D01*
G03Y418765I-163J115D01*
G02X211098Y419400I900J634D01*
G02X211295Y420028I1102J-1D01*
G03X211331Y420143I-164J114D01*
G01Y420257D01*
G03X211295Y420372I-200J1D01*
G02X211098Y421000I905J629D01*
G02X211370Y421725I1102J0D01*
G03X211417Y421891I-150J132D01*
G01X211356Y422242D01*
X211303Y422315D01*
X211263Y422337D01*
G02X210698Y423300I538J963D01*
G37*
G36*
G01X261306Y430476D02*
G02X260900Y430398I-407J1023D01*
G02Y432602I0J1102D01*
G02X261763Y432186I0J-1103D01*
G03X261994Y432124I157J124D01*
G02X262400Y432202I407J-1023D01*
G02X263478Y431329I0J-1102D01*
G03X263591Y431188I196J41D01*
G01X263928Y431036D01*
X264022Y431040D01*
X264064Y431063D01*
G02X264600Y431202I536J-964D01*
G02Y428998I0J-1102D01*
G02X263522Y429871I0J1102D01*
G03X263409Y430012I-196J-41D01*
G01X263072Y430164D01*
X262978Y430160D01*
X262936Y430137D01*
G02X261537Y430414I-536J964D01*
G03X261306Y430476I-157J-124D01*
G37*
G36*
G01X263773Y438483D02*
G02X262800Y437898I-973J517D01*
G02Y440102I0J1102D01*
G02X263644Y439709I0J-1103D01*
G03X263797Y439638I153J129D01*
G01X264103D01*
G03X264256Y439709I0J200D01*
G02X265100Y440102I844J-710D01*
G02X266202Y439000I0J-1102D01*
G02X265424Y437947I-1102J0D01*
G03X265292Y437817I58J-191D01*
G01X265192Y437503D01*
G03X265224Y437321I191J-60D01*
G02X265452Y436650I-873J-671D01*
G02X264350Y435548I-1102J0D01*
G02X264142Y435568I1J1102D01*
G03X263676Y435262I-76J-393D01*
G02X262600Y434398I-1076J238D01*
G02Y436602I0J1102D01*
G02X262808Y436582I-1J-1102D01*
G03X263274Y436888I76J393D01*
G02X264026Y437703I1076J-238D01*
G03X264158Y437833I-58J191D01*
G01X264258Y438147D01*
G03X264226Y438329I-191J60D01*
G02X264127Y438483I874J671D01*
G03X263773I-177J-93D01*
G37*
G36*
G01X234077Y440739D02*
G02X233329Y440446I-748J808D01*
G02Y442650I0J1102D01*
G02X234321Y442029I0J-1103D01*
G03X234952Y441909I360J174D01*
G02X235700Y442202I748J-808D01*
G02Y439998I0J-1102D01*
G02X234708Y440619I0J1103D01*
G03X234077Y440739I-360J-174D01*
G37*
G54D29*
X306900Y231400D03*
X306700Y225400D03*
X309700Y228700D03*
X300718Y241681D03*
X303278Y241680D03*
X305928Y241772D03*
X311900Y238000D03*
X303400Y236600D03*
X303277Y239122D03*
X309600Y236600D03*
X314300Y238700D03*
X315000Y241700D03*
X310955Y251917D03*
X305836Y246799D03*
X308268Y244367D03*
X308298Y246897D03*
X310856D03*
X308395Y251917D03*
X303277Y249358D03*
X305837D03*
X310827Y244367D03*
X303277Y246799D03*
X305836Y244240D03*
X314300Y244400D03*
X304807Y258810D03*
X303278Y262153D03*
X305836Y254476D03*
X308395D03*
X303277D03*
X305835Y267272D03*
X295600Y282626D03*
X298159Y285185D03*
Y282626D03*
X308400Y285100D03*
X303278Y282626D03*
X305837Y285185D03*
X257214Y295421D03*
X249536D03*
X252096Y292862D03*
X254656Y290303D03*
X257214Y290400D03*
X254655Y292861D03*
X262332Y295420D03*
X264891Y292861D03*
X267451Y292862D03*
X262332Y292861D03*
X267450Y290303D03*
X259773D03*
X279066Y295044D03*
X277687Y292862D03*
X270000Y290600D03*
X272500Y290400D03*
X278966Y290713D03*
X270547Y295817D03*
X287922Y295420D03*
X290482Y290302D03*
X282804Y295420D03*
X283001Y290499D03*
X280245Y292861D03*
X290481Y287744D03*
X287923Y290303D03*
X290482Y292862D03*
X290481Y295421D03*
X293041D03*
Y292862D03*
X300097Y294917D03*
X305700Y292900D03*
X305836Y295420D03*
X313800Y294700D03*
X246977Y297981D03*
X257214Y300539D03*
Y303098D03*
X257215Y305657D03*
X259773Y303098D03*
X264892D03*
X262332Y300539D03*
X259774Y297981D03*
X264892Y305657D03*
X275127Y303098D03*
Y300540D03*
Y297981D03*
X279797Y297517D03*
X270010Y300540D03*
X272569Y305657D03*
X287923Y303098D03*
X287922Y300538D03*
X282804Y297979D03*
X280246Y303098D03*
X282804Y300538D03*
X280245Y305657D03*
X293041Y300539D03*
Y303098D03*
X295600Y300540D03*
Y305657D03*
X303277D03*
X305836Y300538D03*
X311400Y296600D03*
X310954Y305657D03*
X311600Y300600D03*
X305837Y297980D03*
X316100Y305100D03*
Y302400D03*
X319200Y305100D03*
X316100Y296700D03*
Y299200D03*
X249300Y308100D03*
X263847Y309167D03*
X260847D03*
X276659Y309055D03*
X279139Y309030D03*
X285462Y309317D03*
X288800D03*
X291900D03*
X316600Y317900D03*
X316500Y315000D03*
X319200Y317800D03*
Y315200D03*
X252813Y334306D03*
X255372Y337456D03*
X249423Y339041D03*
X268169Y334306D03*
X263049D03*
Y331156D03*
X268169D03*
X260490Y334308D03*
X268169Y337455D03*
X278011Y339055D03*
Y335856D03*
X277989Y330455D03*
X270729Y331156D03*
X277989Y333226D03*
X273289Y331156D03*
Y337455D03*
X283613Y331055D03*
X286091Y331156D03*
X283531Y337455D03*
X288651D03*
X293771Y334306D03*
X301448D03*
X293771Y331156D03*
X296331Y334306D03*
X301448Y331156D03*
X304008Y334306D03*
X307484Y338004D03*
X257933Y343757D03*
X252812Y343755D03*
X255372Y340605D03*
X249653Y343182D03*
Y346905D03*
X257931Y346907D03*
X263049Y343755D03*
X268169Y346905D03*
Y340605D03*
Y343755D03*
X260490Y343757D03*
X278011Y349915D03*
Y347355D03*
Y342155D03*
X273289Y340605D03*
X278011Y344755D03*
X273289Y343755D03*
X283531Y340605D03*
X288651Y346905D03*
Y340605D03*
X283531Y343755D03*
X288651D03*
X293771D03*
X301448D03*
Y340605D03*
X293771Y346905D03*
X296323Y343732D03*
X296331Y346905D03*
X304007D03*
X304008Y340605D03*
X306563Y343756D03*
X249411Y357929D03*
Y354779D03*
X254856Y352819D03*
X249497Y360717D03*
X268169Y353205D03*
Y356353D03*
X265610Y353205D03*
X260493Y353195D03*
X278011Y357905D03*
Y354803D03*
Y361105D03*
X270729Y356355D03*
X273289Y359505D03*
Y356355D03*
X286091D03*
X288651Y353205D03*
X283531Y359505D03*
X288651Y356355D03*
X283531D03*
X288651Y359505D03*
X291201Y356353D03*
X296095Y350599D03*
X291211Y353205D03*
X300911Y352555D03*
X306554Y356353D03*
X306569Y359505D03*
X252811Y362655D03*
X257929Y365804D03*
X268169Y362655D03*
X268174Y365804D03*
X263062Y362653D03*
X265609Y368954D03*
X268167D03*
X278011Y365704D03*
X270726Y368954D03*
X275849D03*
X273285D03*
X273289Y362655D03*
X288648Y365804D03*
X288650Y362655D03*
X280971Y368954D03*
X286111Y369555D03*
X283531Y368954D03*
X288651D03*
X283531Y362655D03*
X298890Y368954D03*
X291211Y362655D03*
Y368954D03*
X293771D03*
X301450D03*
X304009Y362655D03*
X306569D03*
G54D28*
X284200Y187600D03*
X327300Y184600D03*
X341400Y185100D03*
X230300Y194300D03*
X309293Y198990D03*
X312279Y199022D03*
X320478Y199021D03*
X315625Y199022D03*
X331900Y197900D03*
X323824Y199021D03*
X324300Y195500D03*
X327600Y198100D03*
X340200Y198400D03*
X336900Y189000D03*
X347400Y192879D03*
X201200Y205600D03*
X198984Y208516D03*
X224065Y204400D03*
X216700Y202200D03*
X322447Y209561D03*
X325793D03*
X329100Y208400D03*
X340100Y207600D03*
X334656Y203510D03*
X334300Y199500D03*
X346900Y205400D03*
X345800Y202200D03*
X214400Y213900D03*
X212100Y216200D03*
X302100Y220900D03*
X316547Y210361D03*
X319893D03*
X209700Y227100D03*
X297900Y227000D03*
X300600Y230500D03*
X201100Y233600D03*
X329500Y238700D03*
X333400Y236900D03*
X332900Y234000D03*
X327800Y235900D03*
X336900Y232000D03*
X166500Y245100D03*
X344600Y244600D03*
X163400Y260400D03*
X311747Y260879D03*
X320000Y260300D03*
X330800Y256700D03*
X340650Y263650D03*
X184200Y283200D03*
X331800Y284400D03*
X323300Y284500D03*
X157950Y289750D03*
X166400Y295459D03*
X172700Y287900D03*
X316000Y286300D03*
X338400Y294200D03*
X335900Y295600D03*
X148300Y304600D03*
X153800Y301100D03*
X151900Y304700D03*
X170200Y298400D03*
X167400Y299000D03*
X189500Y300200D03*
X193600Y303700D03*
X186700Y298500D03*
X336200Y304600D03*
X149000Y314900D03*
X149800Y308500D03*
X167600Y315100D03*
X173700Y310100D03*
X178595Y314500D03*
X187900Y308100D03*
X332000Y309100D03*
X336200Y315400D03*
X174100Y322100D03*
X255697Y328417D03*
X317300Y323300D03*
X328000Y327400D03*
X159000Y335400D03*
X170343Y335729D03*
X170362Y339476D03*
X166220Y332418D03*
X163520Y330412D03*
X169900Y330400D03*
X164900Y335800D03*
X166600Y339400D03*
X181420Y330412D03*
X174956Y338423D03*
X179100Y332700D03*
X186700Y330300D03*
X191800Y335400D03*
X318297Y329647D03*
X318200Y336600D03*
X170330Y346856D03*
X177300Y342300D03*
X182644Y340429D03*
X177556Y346621D03*
X183400Y344500D03*
X185300Y340500D03*
X195402Y348500D03*
X311700Y348900D03*
X318200Y343700D03*
X323500Y340100D03*
X328000Y340200D03*
X331800Y344600D03*
X171700Y355200D03*
X173800Y361000D03*
X175100Y355300D03*
X179300Y356246D03*
X185149Y353956D03*
X184961Y360556D03*
X193800Y355700D03*
X318500Y359500D03*
X318400Y355200D03*
X328100Y355100D03*
X327900Y359600D03*
X172000Y366800D03*
X176700Y366700D03*
X179300Y372000D03*
Y366089D03*
X184300Y363600D03*
X187200Y362834D03*
X246627Y365560D03*
Y369182D03*
X251395Y371339D03*
X255677Y370889D03*
X259311D03*
X262297Y370417D03*
X309792Y368245D03*
X309830Y371690D03*
X312700Y367900D03*
X319400Y371900D03*
X320700Y362300D03*
X331776Y367224D03*
X331900Y370300D03*
X171700Y377500D03*
X170400Y382000D03*
X171230Y374256D03*
X175256Y379252D03*
X176529Y373456D03*
X178894Y379256D03*
X255450Y379924D03*
X253760Y375380D03*
X268700Y375300D03*
X259553Y375517D03*
X261170Y379924D03*
X258500Y379800D03*
X264800Y375900D03*
X272297Y372363D03*
X272300Y375200D03*
X276000Y375300D03*
X280900D03*
X286100Y375200D03*
X290400D03*
X286400Y377800D03*
X289111Y377992D03*
X297297Y372363D03*
X300858Y372201D03*
X297297Y375551D03*
X293797Y375397D03*
X300858Y375703D03*
X294611Y377992D03*
X291911D03*
X304842Y372217D03*
X304797Y375708D03*
X304400Y380800D03*
X308218Y379529D03*
X313200Y372500D03*
X320200Y379606D03*
X316100Y378000D03*
X327300Y376300D03*
X329000Y380600D03*
X167588Y385456D03*
X175200Y383500D03*
X267900Y387100D03*
X275271Y389993D03*
X279600Y389600D03*
X287400Y389800D03*
X302744Y388256D03*
X308256Y388356D03*
X303000Y385300D03*
X306900Y392300D03*
X313676Y387079D03*
X317800Y389200D03*
X330500Y384100D03*
X336900Y385200D03*
X179500Y401800D03*
X178700Y394200D03*
X195300Y402500D03*
X254902Y404302D03*
X279300Y402800D03*
X308900Y404000D03*
X319600Y396900D03*
X315300Y400100D03*
X327800Y404000D03*
X326346Y394239D03*
X327803Y400600D03*
X345700Y394900D03*
X180100Y414700D03*
X172324Y405115D03*
X178118Y409876D03*
X183500Y414700D03*
X196400Y413800D03*
X270800Y413100D03*
X279461Y405546D03*
X276900Y406500D03*
X276600Y410700D03*
X289900Y414000D03*
X280600Y412900D03*
X295700Y414000D03*
X299000D03*
X300900Y408300D03*
X298000Y407300D03*
X305500Y405900D03*
X306900Y408700D03*
Y413100D03*
X312400Y410300D03*
X318800Y409800D03*
X327803Y414389D03*
Y411589D03*
X325100Y408400D03*
X329800Y407400D03*
X344700Y413900D03*
X165800Y418544D03*
X180700Y420900D03*
X179600Y425000D03*
X182200Y424600D03*
X183400Y421000D03*
X185300Y425100D03*
X207400Y416600D03*
X221700Y419400D03*
X219800Y422800D03*
X230900Y419400D03*
X235900Y425500D03*
X235400Y420900D03*
X239914Y425399D03*
X244500Y425400D03*
Y421100D03*
X239900Y421200D03*
X242400Y422800D03*
X246400Y417500D03*
X249200Y419500D03*
X269700Y423500D03*
X307000Y416000D03*
Y419200D03*
X311800Y416700D03*
X307500Y424100D03*
X320100Y419900D03*
X332500Y416900D03*
X331900Y422600D03*
X327803Y417089D03*
X323600Y416900D03*
X189300Y435300D03*
X191600Y426300D03*
X191700Y429100D03*
X188400Y426700D03*
X224900Y428300D03*
X220400Y430400D03*
X216000Y434600D03*
X221600Y435300D03*
X235700Y429700D03*
X231682Y434418D03*
X244500Y429800D03*
X239914Y429799D03*
X242400Y427200D03*
X248700Y431300D03*
X255500Y435100D03*
X269600Y436900D03*
X285800Y427300D03*
X291950Y427750D03*
X183400Y437400D03*
X193500Y439100D03*
X203500Y445700D03*
X201800Y442400D03*
X208000Y446000D03*
X216400Y440400D03*
X218900Y439500D03*
X221500Y440400D03*
X225829Y446029D03*
X224800Y440200D03*
X235900Y445700D03*
X244907Y438280D03*
X255914Y438771D03*
X259900Y438800D03*
G54D31*
X317500Y339000D03*
G54D30*
X338391Y239691D03*
X348391D03*
X338391Y249691D03*
X348391D03*
X338391Y259691D03*
X348391D03*
X338391Y269691D03*
X348391D03*
X338391Y279691D03*
X348391D03*
X338391Y289691D03*
X348391D03*
X338391Y299691D03*
Y309691D03*
X348391Y299691D03*
Y309691D03*
X338391Y319691D03*
X348391D03*
X338391Y329691D03*
X348391D03*
X338391Y339691D03*
X348391D03*
X338391Y349691D03*
X348391D03*
X338391Y359691D03*
X348391D03*
X338391Y369691D03*
X348391D03*
X338391Y379691D03*
X348391D03*
X338391Y389691D03*
X348391D03*
X338391Y399691D03*
X348391D03*
X338391Y409691D03*
X348391D03*
X338391Y419691D03*
Y429691D03*
G54D26*
X212204Y132600D03*
G54D32*
X269071Y383163D03*
X274071D03*
G54D27*
X319770Y220518D03*
%LPD*%
G75*
G36*
G01X203483Y412700D02*
X220517D01*
G02X220659Y412641I0J-200D01*
G01X222687Y410613D01*
X222710Y410494D01*
X222687Y410438D01*
G03X222644Y410315I1017J-425D01*
G01X222636Y410285D01*
X222619Y410259D01*
X222602Y410231D01*
X222491Y410141D01*
G02X222450Y410115I-127J155D01*
G01X222416Y410099D01*
X222383Y410096D01*
G03X221398Y409000I117J-1096D01*
G03X222500Y407898I1102J0D01*
G03X223557Y408690I0J1101D01*
G01X223566Y408720D01*
X223599Y408769D01*
X223708Y408858D01*
G03X223710Y408860I-140J142D01*
G01X223732Y408878D01*
X223786Y408901D01*
X223816Y408904D01*
G03X224102Y408973I-113J1096D01*
G01X224137Y408987D01*
X224230D01*
G02X224370Y408930I0J-200D01*
G01X226041Y407259D01*
G03X226183Y407200I142J141D01*
G01X230417D01*
G02X230559Y407141I0J-200D01*
G01X238259Y399441D01*
X238284Y399324D01*
X238262Y399269D01*
X238131Y398931D01*
G02X238114Y398898I-186J75D01*
G01X238087Y398853D01*
X238001Y398803D01*
X237951Y398801D01*
G03X236898Y397700I49J-1101D01*
G03X238000Y396598I1102J0D01*
G03X239101Y397655I0J1102D01*
G01X239103Y397693D01*
X239131Y397759D01*
X239161Y397790D01*
G02X239205Y397824I143J-140D01*
G01X239234Y397840D01*
X239264Y397846D01*
G03X239293Y397855I-45J195D01*
G01X239569Y397962D01*
G02X239783Y397917I73J-186D01*
G01X240541Y397159D01*
G02X240543Y397157I-140J-142D01*
G02X240600Y397017I-143J-140D01*
G01Y383770D01*
G02X240505Y383600I-200J0D01*
G01X240171Y383393D01*
X240068Y383388D01*
X240021Y383412D01*
G03X239529Y383528I-492J-985D01*
G03Y381324I0J-1102D01*
G03X240021Y381440I0J1101D01*
G01X240068Y381464D01*
X240171Y381459D01*
X240505Y381252D01*
G02X240510Y381249I-100J-173D01*
G01X240511Y381248D01*
G02X240600Y381082I-111J-166D01*
G01Y300783D01*
G03X240659Y300641I200J0D01*
G01X245956Y295344D01*
X245984Y295290D01*
X245989Y295258D01*
G03X246815Y294432I989J163D01*
G01X246847Y294427D01*
X246901Y294399D01*
X248515Y292785D01*
X248543Y292731D01*
X248548Y292699D01*
G03X249374Y291873I989J163D01*
G01X249406Y291868D01*
X249460Y291840D01*
X254941Y286359D01*
G03X255083Y286300I142J141D01*
G01X256008D01*
G02X256182Y286199I0J-200D01*
G01X256354Y285897D01*
G02X256380Y285799I-174J-99D01*
G01Y285742D01*
X256352Y285695D01*
G03X256212Y285184I862J-511D01*
G03X258216I1002J0D01*
G03X258099Y285652I-1002J-2D01*
G01X258084Y285681D01*
X258075Y285696D01*
G02X258048Y285797I173J100D01*
G01Y285852D01*
X258246Y286199D01*
G02X258256Y286215I174J-98D01*
G02X258419Y286300I164J-115D01*
G01X258567D01*
G02X258709Y286241I0J-200D01*
G01X258728Y286222D01*
X258908Y285906D01*
G02X258926Y285751I-174J-99D01*
G01X258911Y285699D01*
X258900Y285679D01*
G03X258771Y285187I874J-492D01*
G01Y285185D01*
G03X260775I1002J0D01*
G01Y285187D01*
G03X260646Y285679I-1003J0D01*
G01X260635Y285699D01*
X260620Y285751D01*
G02X260638Y285906I192J56D01*
G01X260805Y286199D01*
G02X260979Y286300I174J-99D01*
G01X261126D01*
G02X261268Y286241I0J-200D01*
G01X261287Y286222D01*
X261467Y285906D01*
G02X261485Y285751I-174J-99D01*
G01X261470Y285699D01*
X261459Y285679D01*
G03X261330Y285187I874J-492D01*
G01Y285185D01*
G03X263334I1002J0D01*
G01Y285187D01*
G03X263206Y285676I-1003J-1D01*
G01X263194Y285697D01*
X263178Y285752D01*
G02X263197Y285906I193J54D01*
G01X263364Y286199D01*
G02X263538Y286300I174J-99D01*
G01X268804D01*
G02X268946Y286241I0J-200D01*
G01X268965Y286222D01*
X269145Y285906D01*
G02X269163Y285751I-174J-99D01*
G01X269148Y285699D01*
X269137Y285679D01*
G03X269008Y285187I874J-492D01*
G01Y285185D01*
G03X271012I1002J0D01*
G01Y285187D01*
G03X270884Y285676I-1003J-1D01*
G01X270872Y285697D01*
X270856Y285752D01*
G02X270875Y285906I193J54D01*
G01X271042Y286199D01*
G02X271216Y286300I174J-99D01*
G01X273934D01*
G02X274108Y286198I0J-200D01*
G01X274274Y285902D01*
G02X274292Y285749I-174J-98D01*
G01X274275Y285691D01*
X274263Y285669D01*
X274262Y285667D01*
G03X274126Y285164I867J-504D01*
G03X276130I1002J0D01*
G03X275994Y285667I-1003J-1D01*
G01X275993Y285669D01*
X275981Y285691D01*
X275964Y285749D01*
G02X275982Y285902I192J55D01*
G01X276148Y286198D01*
G02X276322Y286300I174J-98D01*
G01X276481D01*
G02X276623Y286241I0J-200D01*
G01X276642Y286222D01*
X276822Y285906D01*
G02X276840Y285751I-174J-99D01*
G01X276825Y285699D01*
X276814Y285679D01*
G03X276685Y285187I874J-492D01*
G01Y285185D01*
G03X278689I1002J0D01*
G01Y285187D01*
G03X278561Y285676I-1003J-1D01*
G01X278549Y285697D01*
X278533Y285752D01*
G02X278552Y285906I193J54D01*
G01X278719Y286199D01*
G02X278893Y286300I174J-99D01*
G01X284157D01*
G02X284331Y286199I0J-200D01*
G01X284503Y285897D01*
G02X284529Y285799I-174J-99D01*
G01Y285742D01*
X284501Y285695D01*
G03X284361Y285184I862J-511D01*
G03X286365I1002J0D01*
G03X286248Y285652I-1002J-2D01*
G01X286233Y285681D01*
X286224Y285696D01*
G02X286197Y285797I173J100D01*
G01Y285852D01*
X286395Y286199D01*
G02X286405Y286215I174J-98D01*
G02X286568Y286300I164J-115D01*
G01X286717D01*
G02X286859Y286241I0J-200D01*
G01X287081Y286019D01*
G02X287103Y285762I-141J-142D01*
G03X286920Y285185I818J-577D01*
G03X287922Y284183I1002J0D01*
G03X288192Y284220I0J1002D01*
G01X288237Y284233D01*
X288329Y284215D01*
X288621Y283994D01*
G02X288700Y283835I-121J-159D01*
G01Y281415D01*
G02X288691Y281356I-200J0D01*
G01Y281355D01*
G02X288619Y281254I-191J60D01*
G01X288324Y281035D01*
X288277Y281027D01*
X288231Y281019D01*
X288179Y281034D01*
X288157Y281040D01*
G03X287900Y281074I-259J-968D01*
G03Y279070I0J-1002D01*
G03X288136Y279099I-3J1002D01*
G01X288159Y279105D01*
X288160D01*
X288180Y279110D01*
X288187Y279112D01*
G02X288275Y279117I55J-192D01*
G01X288324Y279109D01*
X288619Y278890D01*
G02X288700Y278730I-119J-161D01*
G01Y278006D01*
G02X288685Y277930I-200J0D01*
G01X288643Y277828D01*
X288618Y277801D01*
X288599Y277780D01*
X288569Y277746D01*
G03X288274Y277209I1141J-976D01*
G01X288268Y277187D01*
X288253Y277163D01*
G02X288222Y277122I-173J99D01*
G01X288011Y276911D01*
G03X287630Y275991I920J-920D01*
G01Y273940D01*
G03X288011Y273020I1301J0D01*
G01X288641Y272389D01*
G02X288700Y272248I-141J-142D01*
G01Y266063D01*
G02X288621Y265904I-200J0D01*
G01X288369Y265713D01*
G02X288220Y265674I-121J159D01*
G01X288193Y265678D01*
X288181Y265681D01*
G03X287923Y265715I-259J-968D01*
G03Y263711I0J-1002D01*
G03X288181Y263745I-1J1002D01*
G01X288193Y263748D01*
X288220Y263752D01*
G02X288369Y263713I28J-198D01*
G01X288621Y263522D01*
G02X288700Y263363I-121J-159D01*
G01Y261783D01*
G02X288641Y261641I-200J0D01*
G01X287508Y260508D01*
X287478Y260493D01*
G03X287025Y260040I445J-898D01*
G01X287010Y260010D01*
X286914Y259914D01*
G02X286894Y259896I-144J139D01*
G01X286893D01*
G02X286737Y259858I-121J159D01*
G01X286415Y259915D01*
G02X286350Y259939I36J197D01*
G01X286324Y259954D01*
G03X285364Y260620I-960J-359D01*
G03X284339Y259595I0J-1025D01*
G03X284384Y259296I1025J1D01*
G01X284373Y259251D01*
X284148Y258974D01*
X284119Y258939D01*
X284038Y258900D01*
X283900D01*
G02X283700Y259100I0J200D01*
G01Y259143D01*
X283718Y259182D01*
G03X283806Y259593I-914J411D01*
G01Y259594D01*
G03X281802I-1002J0D01*
G01Y259592D01*
G03X281824Y259384I1002J1D01*
G01X281834Y259339D01*
X281813Y259251D01*
X281588Y258974D01*
X281559Y258939D01*
X281478Y258900D01*
X281340D01*
G02X281140Y259100I0J200D01*
G01Y259143D01*
X281158Y259182D01*
G03X281247Y259595I-914J413D01*
G03X279243I-1002J0D01*
G03X279265Y259384I1002J-2D01*
G01X279275Y259339D01*
X279254Y259251D01*
X279029Y258974D01*
G02X278874Y258900I-155J126D01*
G01X276499D01*
G02X276344Y258974I0J200D01*
G01X276119Y259251D01*
X276098Y259339D01*
X276108Y259384D01*
G03X276130Y259595I-980J209D01*
G03X274126I-1002J0D01*
G03X274148Y259384I1002J-2D01*
G01X274158Y259339D01*
X274137Y259251D01*
X273912Y258974D01*
G02X273757Y258900I-155J126D01*
G01X268821D01*
G02X268666Y258974I0J200D01*
G01X268441Y259251D01*
X268420Y259339D01*
X268430Y259384D01*
G03X268452Y259595I-980J209D01*
G03X266448I-1002J0D01*
G03X267241Y258615I1002J0D01*
G01X267275Y258608D01*
X267333Y258572D01*
X267355Y258545D01*
G02X267400Y258419I-155J-126D01*
G01Y255652D01*
G02X267355Y255526I-200J0D01*
G01X267333Y255499D01*
X267275Y255463D01*
X267241Y255456D01*
G03Y253496I209J-980D01*
G01X267275Y253489D01*
X267333Y253453D01*
X267355Y253426D01*
G02X267400Y253300I-155J-126D01*
G01Y253093D01*
G02X267355Y252967I-200J0D01*
G01X267333Y252940D01*
X267275Y252904D01*
X267241Y252897D01*
G03Y250937I210J-980D01*
G01X267275Y250930D01*
X267333Y250894D01*
X267355Y250867D01*
G02X267400Y250741I-155J-126D01*
G01Y250534D01*
G02X267355Y250408I-200J0D01*
G01X267333Y250381D01*
X267275Y250345D01*
X267241Y250338D01*
G03Y248378I210J-980D01*
G01X267275Y248371D01*
X267333Y248335D01*
X267355Y248308D01*
G02X267400Y248182I-155J-126D01*
G01Y247975D01*
G02X267355Y247849I-200J0D01*
G01X267333Y247822D01*
X267275Y247786D01*
X267241Y247779D01*
G03Y245819I210J-980D01*
G01X267275Y245812D01*
X267333Y245776D01*
X267355Y245749D01*
G02X267400Y245623I-155J-126D01*
G01Y245416D01*
G02X267355Y245290I-200J0D01*
G01X267333Y245263D01*
X267275Y245227D01*
X267241Y245220D01*
G03Y243260I210J-980D01*
G01X267275Y243253D01*
X267333Y243217D01*
X267355Y243190D01*
G02X267400Y243064I-155J-126D01*
G01Y242857D01*
G02X267355Y242731I-200J0D01*
G01X267333Y242704D01*
X267275Y242668D01*
X267241Y242661D01*
G03Y240701I210J-980D01*
G01X267275Y240694D01*
X267333Y240658D01*
X267355Y240631D01*
G02X267400Y240505I-155J-126D01*
G01Y240298D01*
G02X267355Y240172I-200J0D01*
G01X267333Y240145D01*
X267275Y240109D01*
X267241Y240102D01*
G03Y238142I210J-980D01*
G01X267275Y238135D01*
X267333Y238099D01*
X267355Y238072D01*
G02X267400Y237946I-155J-126D01*
G01Y237818D01*
X267305Y237707D01*
X267232Y237695D01*
G03Y235519I175J-1088D01*
G02X267400Y235322I-32J-197D01*
G01Y234764D01*
G02X267247Y234570I-200J0D01*
G03Y232426I256J-1072D01*
G02X267400Y232232I-47J-194D01*
G01Y231893D01*
G02X267346Y231757I-200J1D01*
G01X267289Y231696D01*
G02X267235Y231655I-146J136D01*
G01X267148Y231610D01*
X267117Y231604D01*
G03Y229430I180J-1087D01*
G01X267148Y229424D01*
X267235Y229379D01*
G02X267289Y229338I-92J-177D01*
G01X267344Y229279D01*
G02X267382Y229220I-146J-136D01*
G01X267400Y229178D01*
Y226886D01*
X267301Y226773D01*
X267226Y226763D01*
G03X267161Y224590I145J-1092D01*
G01X267195Y224583D01*
X267252Y224550D01*
X267351Y224436D01*
G02X267362Y224422I-152J-130D01*
G02X267400Y224305I-162J-117D01*
G01Y220083D01*
G03X267459Y219941I200J0D01*
G01X282941Y204459D01*
G03X283083Y204400I142J141D01*
G01X285527D01*
G02X285669Y204341I0J-200D01*
G01X285880Y204130D01*
G03X286764Y203764I884J885D01*
G01X290131D01*
G03X291015Y204130I0J1251D01*
G01X291226Y204341D01*
G02X291228Y204343I142J-140D01*
G02X291368Y204400I140J-143D01*
G01X291400D01*
X294941Y207941D01*
G02X294943Y207943I142J-140D01*
G02X295083Y208000I140J-143D01*
G01X302817D01*
G02X302959Y207941I0J-200D01*
G01X305041Y205859D01*
G02X305043Y205857I-140J-142D01*
G02X305100Y205717I-143J-140D01*
G01Y199763D01*
G02X305061Y199645I-200J1D01*
G03Y198335I885J-655D01*
G02X305100Y198217I-161J-119D01*
G01Y193283D01*
G02X305041Y193141I-200J0D01*
G01X302259Y190359D01*
G02X302117Y190300I-142J141D01*
G01X242183D01*
G02X242041Y190359I0J200D01*
G01X231459Y200941D01*
G02X231400Y201083I141J142D01*
G01Y205174D01*
G02X231477Y205331I200J-1D01*
G03Y207069I-676J869D01*
G02X231400Y207226I123J158D01*
G01Y209217D01*
G03X231341Y209359I-200J0D01*
G01X231278Y209422D01*
G02X231221Y209589I141J141D01*
G01X231267Y209949D01*
X231317Y210025D01*
X231358Y210049D01*
G03X231902Y211000I-559J951D01*
G03X230800Y212102I-1102J0D01*
G03X229849Y211558I0J-1103D01*
G01X229825Y211517D01*
X229749Y211467D01*
X229389Y211421D01*
G02X229222Y211478I-26J198D01*
G01X228708Y211992D01*
G02X228649Y212131I141J142D01*
G01X228645Y212449D01*
X228673Y212522D01*
X228700Y212550D01*
G03X229002Y213308I-800J758D01*
G03X227900Y214410I-1102J0D01*
G03X227142Y214108I0J-1102D01*
G01X227114Y214081D01*
X227041Y214053D01*
X226723Y214057D01*
G02X226584Y214116I3J200D01*
G01X222219Y218481D01*
G02Y218763I142J141D01*
G01X222223Y218767D01*
X222250Y218801D01*
G02X222252Y218804I167J-109D01*
G03X222502Y219500I-851J699D01*
G03X221400Y220602I-1102J0D01*
G03X220710Y220359I0J-1101D01*
G01X220682Y220336D01*
X220616Y220314D01*
X220460Y220318D01*
G02X220323Y220377I5J200D01*
G01X219144Y221556D01*
X219128Y221596D01*
G03X218888Y221970I-1028J-396D01*
G02X218831Y222110I143J140D01*
G01Y222385D01*
X218839Y222430D01*
G02X218894Y222536I197J-35D01*
G01X218906Y222548D01*
X218940Y222587D01*
G03X219202Y223300I-839J713D01*
G03X218100Y224402I-1102J0D01*
G03X217273Y224028I0J-1101D01*
G01X217246Y223997D01*
X217171Y223962D01*
X216839Y223951D01*
X216817D01*
G02X216690Y224010I16J200D01*
G01X215088Y225612D01*
G02X215031Y225731I142J141D01*
G01X215027Y225768D01*
X215043Y225831D01*
X215056Y225854D01*
G03X215202Y226400I-955J548D01*
G03X214100Y227502I-1102J0D01*
G03X213569Y227365I1J-1101D01*
G01X213566Y227363D01*
X213542Y227351D01*
G02X213311Y227389I-89J179D01*
G01X210059Y230641D01*
G02X210000Y230783I141J142D01*
G01Y234988D01*
X210096Y235100D01*
X210169Y235111D01*
G03Y237289I-169J1089D01*
G01X210096Y237300D01*
X210000Y237412D01*
Y251817D01*
G03X209941Y251959I-200J0D01*
G01X205258Y256642D01*
G02X205201Y256811I141J142D01*
G01X205245Y257127D01*
G02X205254Y257165I198J-27D01*
G02X205573Y257251I189J-66D01*
G01X205567Y257338D01*
G02X205566Y257353I199J21D01*
G01X205620Y257489D01*
G03X205915Y258240I-808J751D01*
G03X205365Y259194I-1102J0D01*
G01X205318Y259221D01*
X205265Y259313D01*
Y259767D01*
X205318Y259859D01*
X205365Y259886D01*
G03X205915Y260840I-552J954D01*
G03X203711I-1102J0D01*
G03X204261Y259886I1102J0D01*
G01X204308Y259859D01*
X204361Y259767D01*
Y259313D01*
X204308Y259221D01*
X204261Y259194D01*
G03X203849Y258775I551J-954D01*
G01X203826Y258733D01*
X203794Y258711D01*
G02X203699Y258672I-121J159D01*
G01X203385Y258628D01*
X203329D01*
G02X203215Y258685I28J198D01*
G01X198259Y263641D01*
G02X198200Y263783I141J142D01*
G01Y268261D01*
G03X198202Y268299I-1098J77D01*
G01Y268301D01*
G03X198200Y268339I-1100J-39D01*
G01Y283897D01*
G02X198257Y284037I200J0D01*
G01X198430Y284210D01*
G02X198493Y284253I142J-141D01*
G01X198599Y284298D01*
X198637Y284299D01*
G03Y286501I-37J1101D01*
G01X198599Y286502D01*
X198493Y286547D01*
G02X198430Y286590I79J184D01*
G01X198259Y286761D01*
G02X198200Y286902I141J142D01*
G01Y329350D01*
G02X198225Y329446I200J-1D01*
G01X198281Y329548D01*
X198311Y329581D01*
X198330Y329595D01*
G03Y331405I-629J905D01*
G01X198311Y331419D01*
X198281Y331452D01*
X198225Y331554D01*
G02X198200Y331650I175J97D01*
G01Y331950D01*
G02X198225Y332046I200J-1D01*
G01X198281Y332148D01*
X198311Y332181D01*
X198330Y332195D01*
G03Y334005I-629J905D01*
G01X198311Y334019D01*
X198281Y334052D01*
X198225Y334154D01*
G02X198200Y334250I175J97D01*
G01Y384192D01*
G02X198202Y384218I200J-2D01*
G01X198208Y384266D01*
X198226Y384299D01*
G03X198358Y384821I-970J523D01*
G01Y384823D01*
G03X198224Y385349I-1102J-1D01*
G01X198212Y385372D01*
X198200Y385419D01*
Y395527D01*
G02X198232Y395635I200J-1D01*
G01X198233D01*
G02X198332Y395714I168J-109D01*
G01X198408Y395742D01*
G02X198534Y395745I68J-188D01*
G01X198542Y395743D01*
X198634Y395707D01*
X198662Y395682D01*
G03X198804Y395574I736J820D01*
G01X198807Y395571D01*
G02X198875Y395497I-108J-168D01*
G01X198886Y395476D01*
X198959Y395187D01*
G02X198951Y395067I-194J-47D01*
G01X198945Y395049D01*
X198938Y395037D01*
G03X198798Y394500I960J-537D01*
G03X199900Y393398I1102J0D01*
G03X200529Y393595I0J1103D01*
G01X200555Y393613D01*
X200613Y393631D01*
X200787D01*
X200845Y393613D01*
X200871Y393595D01*
G03X201500Y393398I629J906D01*
G03Y395602I0J1102D01*
G03X200871Y395405I0J-1103D01*
G01X200845Y395387D01*
X200787Y395369D01*
X200643D01*
G02X200531Y395404I1J200D01*
G01X200461Y395451D01*
X200421Y395506D01*
X200411Y395539D01*
X200409Y395544D01*
X200341Y395813D01*
G02X200342Y395915I194J49D01*
G01X200349Y395939D01*
X200361Y395961D01*
X200362Y395962D01*
G03X200502Y396499I-961J537D01*
G01Y396500D01*
G03X199400Y397602I-1102J0D01*
G01X199399D01*
G03X198811Y397432I0J-1102D01*
G01X198764Y397403D01*
X198656Y397400D01*
X198303Y397596D01*
G02X198200Y397771I97J175D01*
G01Y407417D01*
G02X198257Y407557I200J0D01*
G01X203341Y412641D01*
G02X203343Y412643I142J-140D01*
G02X203483Y412700I140J-143D01*
G37*
G36*
G01X290883Y262100D02*
X291937D01*
X292046Y262012D01*
X292061Y261942D01*
G03X293041Y261151I980J212D01*
G03X293984Y261813I0J1003D01*
G01X293999Y261855D01*
X294030Y261887D01*
G02X294313I142J-142D01*
G01X294441Y261759D01*
G02X294500Y261617I-141J-142D01*
G01Y231883D01*
G02X294441Y231741I-200J0D01*
G01X292842Y230142D01*
X292730Y230117D01*
X292674Y230137D01*
G03X292300Y230202I-373J-1037D01*
G03X291198Y229100I0J-1102D01*
G03X291263Y228726I1102J-1D01*
G01X291283Y228670D01*
X291258Y228558D01*
X290214Y227514D01*
G02X290042Y227457I-142J141D01*
G01X289676Y227513D01*
X289599Y227568D01*
X289576Y227611D01*
G03X288600Y228202I-976J-510D01*
G03X287498Y227100I0J-1102D01*
G03X287785Y226358I1103J0D01*
G01X287809Y226332D01*
X287835Y226269D01*
X287852Y225946D01*
X287833Y225881D01*
X287812Y225852D01*
G03X287598Y225200I888J-653D01*
G03X287988Y224359I1102J0D01*
G01X288020Y224332D01*
X288057Y224258D01*
X288074Y223880D01*
X288044Y223803D01*
X288015Y223773D01*
G03X287698Y223000I784J-773D01*
G03X288520Y221934I1102J0D01*
G01X288556Y221925D01*
X288617Y221881D01*
X288804Y221591D01*
X288819Y221518D01*
X288813Y221481D01*
G03X288798Y221300I1087J-181D01*
G03X289731Y220211I1102J0D01*
G01X289804Y220200D01*
X289900Y220088D01*
Y215983D01*
G02X289841Y215841I-200J0D01*
G01X287859Y213859D01*
G02X287717Y213800I-142J141D01*
G01X275383D01*
G02X275241Y213859I0J200D01*
G01X272385Y216715D01*
G02X272331Y216902I141J142D01*
G01X272420Y217283D01*
X272489Y217360D01*
X272538Y217376D01*
G03X273101Y217812I-357J1043D01*
G01X273129Y217855D01*
X273217Y217902D01*
X273656Y217899D01*
X273744Y217850D01*
X273771Y217807D01*
G03X274700Y217298I929J593D01*
G03Y219502I0J1102D01*
G03X273780Y219007I0J-1102D01*
G01X273752Y218964D01*
X273664Y218917D01*
X273225Y218920D01*
X273137Y218969D01*
X273110Y219012D01*
G03X272181Y219521I-929J-593D01*
G03X271138Y218776I0J-1103D01*
G01X271122Y218727D01*
X271045Y218658D01*
X270664Y218569D01*
G02X270477Y218623I-45J195D01*
G01X268459Y220641D01*
G02X268400Y220783I141J142D01*
G01Y225275D01*
X268411Y225307D01*
G03X268473Y225671I-1040J364D01*
G03X268411Y226035I-1102J0D01*
G01X268400Y226067D01*
Y232797D01*
G02X268431Y232904I200J0D01*
G03Y234092I-927J594D01*
G02X268400Y234199I169J107D01*
G01Y236127D01*
X268417Y236166D01*
G03Y237048I-1011J441D01*
G01X268400Y237087D01*
Y238799D01*
X268409Y238828D01*
G03X268453Y239122I-958J294D01*
G03X268409Y239416I-1002J0D01*
G01X268400Y239445D01*
Y241358D01*
X268409Y241387D01*
G03X268453Y241681I-958J294D01*
G03X268409Y241975I-1002J0D01*
G01X268400Y242004D01*
Y243917D01*
X268409Y243946D01*
G03X268453Y244240I-958J294D01*
G03X268409Y244534I-1002J0D01*
G01X268400Y244563D01*
Y246476D01*
X268409Y246505D01*
G03X268453Y246799I-958J294D01*
G03X268409Y247093I-1002J0D01*
G01X268400Y247122D01*
Y249035D01*
X268409Y249064D01*
G03X268453Y249358I-958J294D01*
G03X268409Y249652I-1002J0D01*
G01X268400Y249681D01*
Y251594D01*
X268409Y251623D01*
G03X268453Y251917I-958J294D01*
G03X268409Y252211I-1002J0D01*
G01X268400Y252240D01*
Y254156D01*
X268409Y254184D01*
G03X268452Y254476I-959J290D01*
G03X268409Y254768I-1002J2D01*
G01X268400Y254796D01*
Y256717D01*
G02X268459Y256859I200J0D01*
G01X269441Y257841D01*
G02X269583Y257900I142J-141D01*
G01X286517D01*
G03X286659Y257959I0J200D01*
G01X287368Y258668D01*
X287485Y258691D01*
X287542Y258668D01*
G03X287923Y258593I380J927D01*
G03X288925Y259595I0J1002D01*
G03X288850Y259976I-1002J1D01*
G01X288827Y260033D01*
X288850Y260150D01*
X290741Y262041D01*
G02X290883Y262100I142J-141D01*
G37*
%LPC*%
G75*
G36*
G01X231455Y215434D02*
G03X230949Y215593I-343J-206D01*
G02X230500Y215498I-448J1007D01*
G02Y217702I0J1102D01*
G02X231445Y217166I0J-1101D01*
G03X231951Y217007I343J206D01*
G02X232400Y217102I448J-1007D01*
G02Y214898I0J-1102D01*
G02X231455Y215434I0J1101D01*
G37*
G36*
G01X240265Y219501D02*
G02X240900Y219702I635J-901D01*
G02Y217498I0J-1102D01*
G02X240265Y217699I0J1102D01*
G03X240035I-115J-163D01*
G02X239400Y217498I-635J901D01*
G02Y219702I0J1102D01*
G02X240035Y219501I0J-1102D01*
G03X240265I115J163D01*
G37*
G36*
G01X227812Y219652D02*
G03X227758Y220185I-323J237D01*
G02X227398Y221000I743J815D01*
G02X229602I1102J0D01*
G02X229388Y220348I-1102J1D01*
G03X229442Y219815I323J-237D01*
G02X229802Y219000I-743J-815D01*
G02X227598I-1102J0D01*
G02X227812Y219652I1102J-1D01*
G37*
G36*
G01X215474Y234854D02*
G03X214950Y234851I-260J-304D01*
G02X214222Y234576I-728J826D01*
G02Y236780I0J1102D01*
G02X214939Y236515I0J-1102D01*
G03X215463Y236518I260J304D01*
G02X216191Y236793I728J-826D01*
G02Y234589I0J-1102D01*
G02X215474Y234854I0J1102D01*
G37*
G36*
G01X220792Y246481D02*
G03X220286Y246428I-221J-334D01*
G02X219500Y246098I-786J771D01*
G02Y248302I0J1102D01*
G02X220108Y248119I0J-1102D01*
G03X220614Y248172I221J334D01*
G02X221400Y248502I786J-771D01*
G02Y246298I0J-1102D01*
G02X220792Y246481I0J1102D01*
G37*
G36*
G01X211338Y262301D02*
G02X211800Y262402I461J-1001D01*
G02Y260198I0J-1102D01*
G02X211077Y260469I1J1102D01*
G03X210862Y260499I-131J-151D01*
G02X210400Y260398I-461J1001D01*
G02Y262602I0J1102D01*
G02X211123Y262331I-1J-1102D01*
G03X211338Y262301I131J151D01*
G37*
G36*
G01X236317Y318292D02*
Y318408D01*
G03X236281Y318523I-200J1D01*
G02X236098Y319100I818J577D01*
G02X238102I1002J0D01*
G02X237919Y318523I-1001J0D01*
G03X237883Y318408I164J-114D01*
G01Y318292D01*
G03X237919Y318177I200J-1D01*
G02X238102Y317600I-818J-577D01*
G02X236098I-1002J0D01*
G02X236281Y318177I1001J0D01*
G03X236317Y318292I-164J114D01*
G37*
G36*
G01X225253Y318192D02*
X224873Y318364D01*
X224778Y318361D01*
X224736Y318337D01*
G02X224200Y318198I-536J964D01*
G02Y320402I0J1102D01*
G02X224660Y320301I-1J-1102D01*
G03X224890Y320348I83J182D01*
G02X225700Y320702I809J-748D01*
G02X226802Y319600I0J-1102D01*
G02X226795Y319480I-1102J4D01*
G03X226903Y319281I199J-21D01*
G02X227502Y318300I-504J-981D01*
G02X226400Y317198I-1102J0D01*
G02X225322Y318071I0J1102D01*
G01X225312Y318118D01*
X225253Y318192D01*
G37*
G36*
G01X226412Y324852D02*
G03X226385Y325358I-323J237D01*
G02X226098Y326100I816J742D01*
G02X228302I1102J0D01*
G02X228088Y325448I-1102J1D01*
G03X228115Y324942I323J-237D01*
G02X228402Y324200I-816J-742D01*
G02X226198I-1102J0D01*
G02X226412Y324852I1102J-1D01*
G37*
G36*
G01X225601Y331935D02*
G02X225802Y331300I-901J-635D01*
G02X223598I-1102J0D01*
G02X223799Y331935I1102J0D01*
G03Y332165I-163J115D01*
G02X223598Y332800I901J635D01*
G02X225802I1102J0D01*
G02X225601Y332165I-1102J0D01*
G03Y331935I163J-115D01*
G37*
G36*
G01X229193Y346701D02*
X229159Y347061D01*
X229123Y347130D01*
X229092Y347155D01*
G02X228698Y348000I709J845D01*
G02X230902I1102J0D01*
G02X230654Y347304I-1101J0D01*
G01X230629Y347273D01*
X230607Y347199D01*
X230641Y346839D01*
X230677Y346770D01*
X230708Y346745D01*
G02X231102Y345900I-709J-845D01*
G02X230854Y345203I-1102J0D01*
G01X230831Y345176D01*
X230808Y345112D01*
Y344788D01*
X230831Y344724D01*
X230854Y344697D01*
G02X231102Y344000I-854J-697D01*
G02X228898I-1102J0D01*
G02X229146Y344697I1102J0D01*
G01X229169Y344724D01*
X229192Y344788D01*
Y345112D01*
X229169Y345176D01*
X229146Y345203D01*
G02X228898Y345900I854J697D01*
G02X229146Y346596I1101J0D01*
G01X229171Y346627D01*
X229193Y346701D01*
G37*
G36*
G01X203303Y348546D02*
G03X202797I-253J-309D01*
G02X202100Y348298I-697J854D01*
G02Y350502I0J1102D01*
G02X202797Y350254I0J-1102D01*
G03X203303I253J309D01*
G02X204000Y350502I697J-854D01*
G02Y348298I0J-1102D01*
G02X203303Y348546I0J1102D01*
G37*
G36*
G01X226992Y360962D02*
G03X227471Y361202I106J386D01*
G02X228497Y361902I1026J-402D01*
G02Y359698I0J-1102D01*
G02X228205Y359738I2J1102D01*
G03X227726Y359498I-106J-386D01*
G02X226700Y358798I-1026J402D01*
G02Y361002I0J1102D01*
G02X226992Y360962I-2J-1102D01*
G37*
G36*
G01X236501Y360435D02*
G02X236702Y359800I-901J-635D01*
G02X234498I-1102J0D01*
G02X234699Y360435I1102J0D01*
G03Y360665I-163J115D01*
G02X234498Y361300I901J635D01*
G02X236702I1102J0D01*
G02X236501Y360665I-1102J0D01*
G03Y360435I163J-115D01*
G37*
G36*
G01X221641Y361324D02*
G03X221107I-267J-298D01*
G02X220371Y361042I-736J819D01*
G02Y363246I0J1102D01*
G02X221107Y362964I0J-1101D01*
G03X221641I267J298D01*
G02X222377Y363246I736J-819D01*
G02Y361042I0J-1102D01*
G02X221641Y361324I0J1101D01*
G37*
G36*
G01X199993Y367926D02*
G03X199886Y368485I-330J227D01*
G02X199398Y369400I614J915D01*
G02X201602I1102J0D01*
G02X201407Y368774I-1102J0D01*
G03X201514Y368215I330J-227D01*
G02X202002Y367300I-614J-915D01*
G02X199798I-1102J0D01*
G02X199993Y367926I1102J0D01*
G37*
G36*
G01X227704Y370038D02*
Y370162D01*
G03X227657Y370291I-200J0D01*
G02X227398Y371000I843J710D01*
G02X229602I1102J0D01*
G02X229343Y370291I-1102J1D01*
G03X229296Y370162I153J-129D01*
G01Y370038D01*
G03X229343Y369909I200J0D01*
G02X229602Y369200I-843J-710D01*
G02X227398I-1102J0D01*
G02X227657Y369909I1102J-1D01*
G03X227704Y370038I-153J129D01*
G37*
G36*
G01X235425Y379284D02*
G03X235433Y379845I-281J285D01*
G02X235127Y380607I796J762D01*
G02X237331I1102J0D01*
G02X237004Y379823I-1103J0D01*
G03X236996Y379262I281J-285D01*
G02X237302Y378500I-796J-762D01*
G02X235098I-1102J0D01*
G02X235425Y379284I1103J0D01*
G37*
G36*
G01X221901Y387535D02*
G02X222102Y386900I-901J-635D01*
G02X219898I-1102J0D01*
G02X220099Y387535I1102J0D01*
G03Y387765I-163J115D01*
G02X219898Y388400I901J635D01*
G02X222102I1102J0D01*
G02X221901Y387765I-1102J0D01*
G03Y387535I163J-115D01*
G37*
G36*
G01X227931Y392943D02*
Y393057D01*
G03X227895Y393171I-200J-1D01*
G02X227698Y393800I906J629D01*
G02X229902I1102J0D01*
G02X229705Y393171I-1103J0D01*
G03X229669Y393057I164J-115D01*
G01Y392943D01*
G03X229705Y392829I200J1D01*
G02X229902Y392200I-906J-629D01*
G02X229634Y391480I-1101J0D01*
G03X229586Y391361I152J-130D01*
G01X229579Y391241D01*
G03X229613Y391118I199J-11D01*
G02X229802Y390500I-913J-617D01*
G02X227598I-1102J0D01*
G02X227866Y391220I1101J0D01*
G03X227914Y391339I-152J130D01*
G01X227921Y391459D01*
G03X227887Y391582I-199J11D01*
G02X227698Y392200I913J617D01*
G02X227895Y392829I1103J0D01*
G03X227931Y392943I-164J115D01*
G37*
G36*
G01X232231Y393043D02*
Y393157D01*
G03X232195Y393271I-200J-1D01*
G02X231998Y393900I906J629D01*
G02X234202I1102J0D01*
G02X234005Y393271I-1103J0D01*
G03X233969Y393157I164J-115D01*
G01Y393043D01*
G03X234005Y392929I200J1D01*
G02X234202Y392300I-906J-629D01*
G02X233963Y391615I-1101J0D01*
G03X233920Y391503I157J-124D01*
G01X233913Y391389D01*
G03X233942Y391272I200J-13D01*
G02X234102Y390700I-942J-572D01*
G02X231898I-1102J0D01*
G02X232137Y391385I1101J0D01*
G03X232180Y391497I-157J124D01*
G01X232187Y391611D01*
G03X232158Y391728I-200J13D01*
G02X231998Y392300I942J572D01*
G02X232195Y392929I1103J0D01*
G03X232231Y393043I-164J115D01*
G37*
G36*
G01X222595Y392371D02*
G02X222398Y393000I906J629D01*
G02X222599Y393635I1102J0D01*
G03Y393865I-163J115D01*
G02X222398Y394500I901J635D01*
G02X223500Y395602I1102J0D01*
G02X224129Y395405I0J-1103D01*
G03X224243Y395369I115J164D01*
G01X224357D01*
G03X224471Y395405I-1J200D01*
G02X225100Y395602I629J-906D01*
G02X226202Y394500I0J-1102D01*
G02X226001Y393865I-1102J0D01*
G03Y393635I163J-115D01*
G02X226202Y393000I-901J-635D01*
G02X226005Y392371I-1103J0D01*
G03X225969Y392257I164J-115D01*
G01Y392143D01*
G03X226005Y392029I200J1D01*
G02X226202Y391400I-906J-629D01*
G02X225100Y390298I-1102J0D01*
G02X224471Y390495I0J1103D01*
G03X224357Y390531I-115J-164D01*
G01X224243D01*
G03X224129Y390495I1J-200D01*
G02X223500Y390298I-629J906D01*
G02X222398Y391400I0J1102D01*
G02X222595Y392029I1103J0D01*
G03X222631Y392143I-164J115D01*
G01Y392257D01*
G03X222595Y392371I-200J-1D01*
G37*
G36*
G01X201846Y399603D02*
G02X201837Y399614I849J704D01*
G03X201607Y399676I-157J-124D01*
G02X201200Y399598I-407J1023D01*
G02Y401802I0J1102D01*
G02X202063Y401386I0J-1103D01*
G03X202293Y401324I157J124D01*
G02X202700Y401402I407J-1023D01*
G02X203802Y400300I0J-1102D01*
G02X203554Y399603I-1102J0D01*
G01X203531Y399576D01*
X203508Y399512D01*
Y399188D01*
X203531Y399124D01*
X203554Y399097D01*
G02X203800Y398472I-854J-697D01*
G01X203802Y398435D01*
X203831Y398370D01*
X204070Y398131D01*
X204135Y398102D01*
X204172Y398100D01*
G02X205202Y397000I-72J-1100D01*
G02X204100Y395898I-1102J0D01*
G02X203000Y396928I0J1102D01*
G01X202998Y396965D01*
X202969Y397030D01*
X202730Y397269D01*
X202665Y397298D01*
X202628Y397300D01*
G02X201598Y398400I72J1100D01*
G02X201846Y399097I1102J0D01*
G01X201869Y399124D01*
X201892Y399188D01*
Y399512D01*
X201869Y399576D01*
X201846Y399603D01*
G37*
G36*
G01X213635Y402699D02*
G02X213000Y402498I-635J901D01*
G02X211898Y403600I0J1102D01*
G02X212099Y404235I1102J0D01*
G03Y404465I-163J115D01*
G02X211898Y405100I901J635D01*
G02X213000Y406202I1102J0D01*
G02X213635Y406001I0J-1102D01*
G03X213865I115J163D01*
G02X214500Y406202I635J-901D01*
G02X215602Y405100I0J-1102D01*
G02X215401Y404465I-1102J0D01*
G03Y404235I163J-115D01*
G02X215602Y403600I-901J-635D01*
G02X214500Y402498I-1102J0D01*
G02X213865Y402699I0J1102D01*
G03X213635I-115J-163D01*
G37*
G36*
G01X255230Y201610D02*
G02X254293Y201088I-937J580D01*
G02Y203292I0J1102D01*
G02X255230Y202770I0J-1102D01*
G03X255910I340J211D01*
G02X256847Y203292I937J-580D01*
G02Y201088I0J-1102D01*
G02X255910Y201610I0J1102D01*
G03X255230I-340J-211D01*
G37*
G36*
G01X261130D02*
G02X260193Y201088I-937J580D01*
G02Y203292I0J1102D01*
G02X261130Y202770I0J-1102D01*
G03X261810I340J211D01*
G02X262747Y203292I937J-580D01*
G02Y201088I0J-1102D01*
G02X261810Y201610I0J1102D01*
G03X261130I-340J-211D01*
G37*
G36*
G01X266957Y201505D02*
G02X266093Y201088I-863J685D01*
G02Y203292I0J1102D01*
G02X266957Y202875I1J-1102D01*
G03X267583I313J248D01*
G02X268447Y203292I863J-685D01*
G02Y201088I0J-1102D01*
G02X267583Y201505I-1J1102D01*
G03X266957I-313J-248D01*
G37*
G36*
G01X272620Y201462D02*
G02X271793Y201088I-827J727D01*
G02Y203292I0J1102D01*
G02X272620Y202918I0J-1101D01*
G03X273220I300J265D01*
G02X274047Y203292I827J-727D01*
G02Y201088I0J-1102D01*
G02X273220Y201462I0J1101D01*
G03X272620I-300J-265D01*
G37*
G36*
G01X237350Y224536D02*
G02X236600Y224198I-750J663D01*
G02Y226202I0J1002D01*
G02X237350Y225864I0J-1001D01*
G03X237950I300J265D01*
G02X238700Y226202I750J-663D01*
G02Y224198I0J-1002D01*
G02X237950Y224536I0J1001D01*
G03X237350I-300J-265D01*
G37*
G36*
G01X242613Y224267D02*
G02X242098Y225200I588J933D01*
G02X244302I1102J0D01*
G02X243714Y224225I-1102J0D01*
G03X243687Y223533I186J-354D01*
G02X244202Y222600I-588J-933D01*
G02X241998I-1102J0D01*
G02X242586Y223575I1102J0D01*
G03X242613Y224267I-186J354D01*
G37*
G36*
G01X256038Y225741D02*
X256067Y225787D01*
G02X257933I933J-588D01*
G01X257962Y225741D01*
X258055Y225692D01*
X258510Y225709D01*
X258600Y225765D01*
X258625Y225814D01*
G02X259600Y226402I975J-514D01*
G02Y224198I0J-1102D01*
G02X258667Y224713I0J1103D01*
G01X258638Y224759D01*
X258545Y224808D01*
X258090Y224791D01*
X258000Y224735D01*
X257975Y224686D01*
G02X256025I-975J514D01*
G01X256000Y224735D01*
X255910Y224791D01*
X255455Y224808D01*
X255362Y224759D01*
X255333Y224713D01*
G02X254400Y224198I-933J588D01*
G02Y226402I0J1102D01*
G02X255375Y225814I0J-1102D01*
G01X255400Y225765D01*
X255490Y225709D01*
X255945Y225692D01*
X256038Y225741D01*
G37*
G36*
G01X263269Y224583D02*
G02X262334Y224064I-935J583D01*
G02Y226268I0J1102D01*
G02X263061Y225994I0J-1101D01*
G03X263665Y226083I264J300D01*
G02X264600Y226602I935J-583D01*
G02Y224398I0J-1102D01*
G02X263873Y224672I0J1101D01*
G03X263269Y224583I-264J-300D01*
G37*
G36*
G01X259013Y232667D02*
G02X258498Y233600I588J933D01*
G02X260702I1102J0D01*
G02X260114Y232625I-1102J0D01*
G03X260087Y231933I186J-354D01*
G02X260602Y231000I-588J-933D01*
G02X258398I-1102J0D01*
G02X258986Y231975I1102J0D01*
G03X259013Y232667I-186J354D01*
G37*
G36*
G01X227148Y246131D02*
G02X226598Y247085I552J954D01*
G02X228802I1102J0D01*
G02X228252Y246131I-1102J0D01*
G03Y245439I200J-346D01*
G02X228802Y244485I-552J-954D01*
G02X226598I-1102J0D01*
G02X227148Y245439I1102J0D01*
G03Y246131I-200J346D01*
G37*
G36*
G01X224469Y254248D02*
G02X223515Y253698I-954J552D01*
G02Y255902I0J1102D01*
G02X224469Y255352I0J-1102D01*
G03X225161I346J200D01*
G02X226115Y255902I954J-552D01*
G02Y253698I0J-1102D01*
G02X225161Y254248I0J1102D01*
G03X224469I-346J-200D01*
G37*
G36*
G01X209195Y256059D02*
X209148Y256086D01*
G02X208598Y257040I552J954D01*
G02X209700Y258142I1102J0D01*
G02X210415Y257879I0J-1103D01*
G03X210921Y257868I260J304D01*
G02X211600Y258102I679J-868D01*
G02Y255898I0J-1102D01*
G02X210885Y256161I0J1103D01*
G03X210379Y256172I-260J-304D01*
G02X210252Y256086I-680J867D01*
G01X210205Y256059D01*
X210152Y255967D01*
Y255513D01*
X210205Y255421D01*
X210252Y255394D01*
G02X210802Y254440I-552J-954D01*
G02X208598I-1102J0D01*
G02X209148Y255394I1102J0D01*
G01X209195Y255421D01*
X209248Y255513D01*
Y255967D01*
X209195Y256059D01*
G37*
G36*
G01X233259Y300317D02*
G02X232863Y301115I606J798D01*
G02X234867I1002J0D01*
G02X234547Y300381I-1002J0D01*
G03X234577Y299769I272J-293D01*
G02X234973Y298971I-606J-798D01*
G02X232969I-1002J0D01*
G02X233289Y299705I1002J0D01*
G03X233259Y300317I-272J293D01*
G37*
G36*
G01X216621Y302777D02*
G02X216598Y303000I1079J224D01*
G02X217700Y301898I1102J0D01*
G02X217605Y301902I-1J1102D01*
G03X217179Y301423I-34J-399D01*
G02X217202Y301200I-1079J-224D01*
G02X216100Y302302I-1102J0D01*
G02X216195Y302298I1J-1102D01*
G03X216621Y302777I34J399D01*
G37*
G36*
G01X235643Y309608D02*
G02X235500Y309598I-141J992D01*
G02Y311602I0J1002D01*
G02X236500Y310663I0J-1002D01*
G03X236957Y310292I399J25D01*
G02X237100Y310302I141J-992D01*
G02Y308298I0J-1002D01*
G02X236100Y309237I0J1002D01*
G03X235643Y309608I-399J-25D01*
G37*
G36*
G01X234733Y329613D02*
G02X233800Y329098I-933J588D01*
G02Y331302I0J1102D01*
G02X234775Y330714I0J-1102D01*
G03X235467Y330687I354J186D01*
G02X236400Y331202I933J-588D01*
G02Y328998I0J-1102D01*
G02X235425Y329586I0J1102D01*
G03X234733Y329613I-354J-186D01*
G37*
G36*
G01X205309Y333077D02*
G02X206407Y334082I1098J-97D01*
G02Y331878I0J-1102D01*
G02X206033Y331943I-1J1102D01*
G03X205499Y331603I-136J-376D01*
G02X204401Y330598I-1098J97D01*
G02Y332802I0J1102D01*
G02X204775Y332737I1J-1102D01*
G03X205309Y333077I136J376D01*
G37*
G36*
G01X235253Y356208D02*
G02X234798Y357100I647J892D01*
G02X237002I1102J0D01*
G02X236840Y356525I-1101J0D01*
G03X236947Y355992I341J-209D01*
G02X237402Y355100I-647J-892D01*
G02X236963Y354220I-1102J0D01*
G03X236883Y354060I120J-160D01*
G01Y353740D01*
G03X236963Y353580I200J0D01*
G02X237402Y352700I-663J-880D01*
G02X235198I-1102J0D01*
G02X235637Y353580I1102J0D01*
G03X235717Y353740I-120J160D01*
G01Y354060D01*
G03X235637Y354220I-200J0D01*
G02X235198Y355100I663J880D01*
G02X235360Y355675I1101J0D01*
G03X235253Y356208I-341J209D01*
G37*
G36*
G01X224157Y385646D02*
G02X224098Y386000I1043J356D01*
G02X226302I1102J0D01*
G02X225730Y385034I-1102J0D01*
G03X225543Y384554I192J-351D01*
G02X225597Y384307I-1042J-357D01*
G01X225601Y384262D01*
X225645Y384187D01*
X225973Y383963D01*
X226059Y383949D01*
X226103Y383961D01*
G02X226400Y384002I298J-1061D01*
G02Y381798I0J-1102D01*
G02X225303Y382793I0J1102D01*
G01X225299Y382838D01*
X225255Y382913D01*
X224927Y383137D01*
X224841Y383151D01*
X224797Y383139D01*
G02X224500Y383098I-298J1061D01*
G02X224193Y383141I-2J1102D01*
G01X224152Y383153D01*
X224067Y383141D01*
X223742Y382936D01*
X223694Y382864D01*
X223688Y382822D01*
G02X222600Y381898I-1088J179D01*
G02Y384102I0J1102D01*
G02X222907Y384059I2J-1102D01*
G01X222948Y384047D01*
X223033Y384059D01*
X223358Y384264D01*
X223406Y384336D01*
X223412Y384378D01*
G02X223970Y385166I1088J-179D01*
G03X224157Y385646I-192J351D01*
G37*
G36*
G01X212674Y399687D02*
G02X213656Y400288I982J-502D01*
G02X214609Y399740I0J-1103D01*
G01X214636Y399693D01*
X214728Y399641D01*
X215182Y399642D01*
X215274Y399695D01*
X215301Y399742D01*
G02X216256Y400294I955J-550D01*
G02Y398090I0J-1102D01*
G02X215303Y398638I0J1103D01*
G01X215276Y398685D01*
X215184Y398737D01*
X214730Y398736D01*
X214638Y398683D01*
X214611Y398636D01*
G02X213656Y398084I-955J550D01*
G02X213202Y398182I0J1101D01*
G03X212682Y397999I-164J-365D01*
G02X211700Y397398I-982J502D01*
G02Y399602I0J1102D01*
G02X212154Y399504I0J-1101D01*
G03X212674Y399687I164J365D01*
G37*
G36*
G01X283153Y225053D02*
X283119Y225394D01*
X283086Y225459D01*
X283058Y225485D01*
G02X282698Y226300I743J815D01*
G02X283800Y227402I1102J0D01*
G02X284392Y227229I-1J-1102D01*
G03X284608I108J169D01*
G02X285200Y227402I593J-929D01*
G02X286302Y226300I0J-1102D01*
G02X285355Y225209I-1102J0D01*
G01X285310Y225203D01*
X285235Y225153D01*
X285029Y224809D01*
X285020Y224719D01*
X285036Y224676D01*
G02X285102Y224300I-1036J-376D01*
G02X285036Y223924I-1102J0D01*
G01X285020Y223881D01*
X285029Y223791D01*
X285235Y223447D01*
X285310Y223397D01*
X285355Y223391D01*
G02X286302Y222300I-155J-1091D01*
G02X285200Y221198I-1102J0D01*
G02X284491Y221457I1J1102D01*
G03X284362Y221504I-129J-153D01*
G01X284238D01*
G03X284109Y221457I0J-200D01*
G02X283400Y221198I-710J843D01*
G02X282298Y222300I0J1102D01*
G02X282861Y223261I1102J0D01*
G01X282896Y223281D01*
X282944Y223340D01*
X283046Y223683D01*
X283039Y223759D01*
X283021Y223794D01*
G02X282898Y224300I979J506D01*
G02X283112Y224952I1102J-1D01*
G01X283134Y224983D01*
X283153Y225053D01*
G37*
G36*
G01X284400Y237066D02*
X284425Y237114D01*
G02X285400Y237702I975J-514D01*
G02X286354Y237152I0J-1102D01*
G01X286381Y237105D01*
X286473Y237052D01*
X286927D01*
X287019Y237105D01*
X287046Y237152D01*
G02X288000Y237702I954J-552D01*
G02Y235498I0J-1102D01*
G02X287046Y236048I0J1102D01*
G01X287019Y236095D01*
X286927Y236148D01*
X286473D01*
X286381Y236095D01*
X286354Y236048D01*
G02X285400Y235498I-954J552D01*
G02X284468Y236012I0J1102D01*
G01X284439Y236058D01*
X284345Y236108D01*
X283890Y236090D01*
X283801Y236034D01*
X283776Y235986D01*
G02X282801Y235398I-975J514D01*
G02Y237602I0J1102D01*
G02X283733Y237088I0J-1102D01*
G01X283762Y237042D01*
X283856Y236992D01*
X284311Y237010D01*
X284400Y237066D01*
G37*
G54D29*
X238103Y232997D03*
X235800Y235800D03*
X244419Y236563D03*
X241200Y231800D03*
X235500Y230700D03*
X241500Y236700D03*
X246978Y236563D03*
X233700Y244185D03*
Y246785D03*
X244419Y244240D03*
Y241681D03*
X241800Y242700D03*
X239500Y241700D03*
X254655Y239121D03*
Y241681D03*
Y244240D03*
Y246799D03*
X246977D03*
X249537D03*
X246978Y239122D03*
X252096Y241681D03*
X246978Y244240D03*
X249537Y239122D03*
X252096Y244240D03*
X249537Y241681D03*
X262400Y241800D03*
Y244359D03*
X259774Y244239D03*
X262400Y246918D03*
X262333Y239122D03*
X259774Y241680D03*
Y239122D03*
X232515Y256700D03*
X235115D03*
X252096Y257035D03*
X254655Y254476D03*
Y257035D03*
X252096Y251917D03*
X254655D03*
X252096Y254477D03*
X249537Y254476D03*
X246978Y254477D03*
Y257035D03*
X249537Y257036D03*
X262332Y251917D03*
X262100Y249400D03*
X259774Y251917D03*
X264914Y257031D03*
X257214Y257036D03*
X232120Y265365D03*
X246977Y262153D03*
X252096Y259594D03*
X246978Y264712D03*
X249537Y262153D03*
X249536Y259594D03*
X257214Y264712D03*
X264892Y267272D03*
X262333Y264713D03*
X264891Y262154D03*
X262327Y259572D03*
X262332Y267271D03*
X259773Y267272D03*
X257214Y259594D03*
X259773Y262154D03*
X275127Y264713D03*
X267450Y262153D03*
X270010Y262154D03*
X277687Y264713D03*
X275128Y267272D03*
X285364Y267271D03*
X285363Y264712D03*
X234200Y272300D03*
X231600D03*
X233000Y277200D03*
X235600D03*
X254655Y269831D03*
X257214Y280066D03*
X259773Y274949D03*
X262332Y280067D03*
X259773Y277507D03*
X262333Y274948D03*
X257215Y269830D03*
X262333D03*
X270009Y280067D03*
X272568D03*
X267451Y269831D03*
X277692Y274971D03*
X277700Y269600D03*
X275128Y272390D03*
X267451Y280067D03*
Y274949D03*
X272563Y277485D03*
X282782Y274954D03*
X280245Y274949D03*
X280268Y280061D03*
X282804Y269830D03*
X282810Y272412D03*
X282804Y280067D03*
X285386Y274943D03*
X231900Y288800D03*
Y286200D03*
X246978Y287743D03*
X246977Y285184D03*
X249537Y287744D03*
X249536Y285185D03*
X252096D03*
X254656Y282626D03*
X259773D03*
X267451D03*
X275128Y282625D03*
X277631Y282569D03*
X231500Y295605D03*
Y293005D03*
X236571Y298971D03*
X233865Y303715D03*
X237747Y323517D03*
X270010Y239121D03*
X272569Y239122D03*
X270009Y241681D03*
Y244240D03*
X275127Y246799D03*
X270009D03*
X280246Y239122D03*
X287873Y239172D03*
X282805Y239121D03*
X280246Y246799D03*
Y244240D03*
X285334Y239152D03*
X280246Y241681D03*
X287893Y241651D03*
Y246829D03*
X285334D03*
X290482Y239122D03*
X293041Y246799D03*
X290482D03*
X293041Y241680D03*
Y244239D03*
Y239122D03*
X272568Y251918D03*
X275128Y249359D03*
X277687Y254477D03*
X275127Y251918D03*
X270009Y251917D03*
Y249358D03*
X280246Y254476D03*
X285363D03*
X282804Y251917D03*
X280246Y249358D03*
X285334Y249388D03*
X280246Y251917D03*
X290482Y254476D03*
X293041Y249358D03*
Y254476D03*
X290482Y257036D03*
Y251917D03*
X290452Y249388D03*
G54D28*
X245100Y203600D03*
X242000Y203100D03*
X248446Y203600D03*
X250947Y202190D03*
X277393D03*
X292200Y199800D03*
X299354Y196600D03*
X302700D03*
X241400Y211100D03*
X247100Y215000D03*
X256200D03*
X233300Y222520D03*
X242500Y215200D03*
X251800Y225003D03*
X249100Y225100D03*
X246444Y222756D03*
X265297Y215317D03*
X216000Y230600D03*
X254700Y236500D03*
X253000Y233700D03*
X249700Y236500D03*
X263500Y233200D03*
X259774Y236563D03*
X216300Y240300D03*
X213700Y244900D03*
X225000Y260900D03*
X229520Y265365D03*
X218117Y272183D03*
X225400Y272100D03*
X207100Y285500D03*
X215500Y289800D03*
X208100Y295600D03*
X202700Y298100D03*
X202650Y294650D03*
X227200Y304000D03*
X223600Y321900D03*
X227500Y314100D03*
X234597Y322017D03*
X231447Y323517D03*
X232700Y334200D03*
X234597Y325017D03*
X217700Y344300D03*
X215500Y339500D03*
X227200Y340000D03*
X224800Y335900D03*
X236292Y336723D03*
X236308Y344161D03*
X236290Y340090D03*
X221200Y349900D03*
X224700Y353000D03*
X236200Y347600D03*
X201487Y358443D03*
X205800Y356000D03*
X204700Y365100D03*
X206500Y362300D03*
X222377Y356756D03*
X226700Y364700D03*
X228100Y357600D03*
X204800Y369300D03*
X222377Y372656D03*
Y367456D03*
X217200Y370000D03*
X235750Y369550D03*
X238400Y375400D03*
X237000Y372300D03*
X201100Y382000D03*
X205383Y387800D03*
X206658Y384761D03*
X216500Y386000D03*
X213292Y377792D03*
X228800Y384600D03*
X229429Y379607D03*
X233600Y381100D03*
X235756Y386516D03*
X211700Y395500D03*
X207100Y395300D03*
X216456Y389294D03*
X235600Y391200D03*
X216100Y334600D03*
X204500Y310500D03*
X270029Y222729D03*
X272829Y224871D03*
X279529Y215317D03*
Y219017D03*
X283465D03*
X281400Y217200D03*
X272253Y236017D03*
X277067Y229517D03*
X276796Y235522D03*
X276900Y232900D03*
X272000Y232600D03*
X282676Y233576D03*
X285600Y232300D03*
X280071Y231917D03*
X292296Y232560D03*
X292298Y235560D03*
%LPD*%
G75*
G54D10*
G01X145852Y170715D02*
Y175354D01*
G01X143181Y170715D02*
X145852D01*
G01X207860Y166076D02*
Y170715D01*
G01D02*
X210531D01*
G01X225872Y146744D02*
Y152368D01*
G01D02*
Y157992D01*
G01Y152368D02*
X228346D01*
G01X225872Y169106D02*
Y174730D01*
G01X224635Y169106D02*
X225872Y174730D01*
G01X276266Y146744D02*
Y152368D01*
G01D02*
Y157992D01*
G01Y169106D02*
Y174730D01*
G01X275029Y169106D02*
X276266Y174730D01*
G01X296541Y146744D02*
Y152368D01*
G01D02*
Y157992D01*
G01Y169106D02*
Y174730D01*
G01X295304Y169106D02*
X296541Y174730D01*
G01X346935Y146744D02*
Y152368D01*
G01D02*
Y157992D01*
G01Y152368D02*
X349409D01*
G01X346935Y169106D02*
Y174730D01*
G01D02*
X349409D01*
X138900Y143400D03*
Y138400D03*
Y153400D03*
Y148400D03*
Y163400D03*
Y158400D03*
Y173400D03*
Y168400D03*
X138700Y352400D03*
Y357400D03*
Y362500D03*
Y367500D03*
X139500Y415000D03*
Y410500D03*
Y405500D03*
Y425000D03*
Y420000D03*
Y430500D03*
X141900Y132800D03*
X147500Y130000D03*
Y135000D03*
X143900Y143400D03*
X144600Y138600D03*
X143900Y148400D03*
Y153400D03*
Y158400D03*
Y163400D03*
X143100Y313500D03*
Y315000D03*
X144700Y313500D03*
Y315000D03*
X145000Y415000D03*
Y410500D03*
Y405500D03*
Y425000D03*
Y420000D03*
Y430500D03*
X152500Y130000D03*
X157500D03*
Y135000D03*
X152500D03*
X162500Y130000D03*
X167500D03*
Y135000D03*
X162500D03*
X163800Y409500D03*
X165300D03*
Y408000D03*
Y406500D03*
X163800Y408000D03*
X167500Y426600D03*
X169300D03*
X170900D03*
Y428100D03*
X177200Y130000D03*
X172200D03*
X182200D03*
X172200Y135000D03*
X177200D03*
X182200D03*
X174100Y270100D03*
X172700Y426600D03*
X174300D03*
Y428100D03*
Y429600D03*
X172800Y428200D03*
X174200Y431100D03*
X187200Y130000D03*
X192200D03*
X187200Y135000D03*
X192200D03*
X190800Y443500D03*
X197300Y129900D03*
X202300D03*
X197300Y134900D03*
X202300D03*
X204400Y284200D03*
X203310Y289900D03*
X204400Y409400D03*
X204300Y410900D03*
X198700Y446700D03*
X207300Y129900D03*
Y134900D03*
X207600Y153000D03*
X207500Y147800D03*
X207900Y164100D03*
X208000Y159200D03*
X213200Y180500D03*
X207400Y275500D03*
X208700Y280300D03*
X204810Y289900D03*
X207400Y293700D03*
X213100Y290000D03*
X208479Y298400D03*
X211600Y308100D03*
X214501Y309920D03*
X211600Y310000D03*
X207808Y403578D03*
X206208D03*
X204608Y403478D03*
X207808Y404978D03*
X207800Y406400D03*
X209000Y411000D03*
X207300D03*
X210500D03*
X212000Y411100D03*
X206208Y404978D03*
X206200Y406400D03*
X204608Y404878D03*
X204600Y406300D03*
X207800Y407900D03*
X206200D03*
X204600Y407800D03*
X210500Y409500D03*
X212000D03*
X209000D03*
X207500D03*
X205900Y409400D03*
X205800Y410900D03*
X208178Y430892D03*
X209600Y430900D03*
X213500Y431400D03*
X211900D03*
X209600Y432400D03*
X208178Y432392D03*
X208670Y440022D03*
X225600Y142000D03*
X226000Y163000D03*
Y159900D03*
X222700Y261000D03*
X222600Y256600D03*
X218000Y265400D03*
X222700D03*
X223400Y272200D03*
X223800Y276000D03*
X223300Y279700D03*
X224100Y284200D03*
X223800Y289400D03*
X222300Y298400D03*
X222144Y446029D03*
X221000Y447400D03*
X232800Y134900D03*
X229400Y138200D03*
X232300Y141000D03*
X228500Y144800D03*
X234700Y144600D03*
X235700Y137700D03*
X230900Y148400D03*
X226100Y167000D03*
X226500Y207400D03*
X228000D03*
X229400D03*
X228000Y205900D03*
X229500Y272100D03*
X230400Y276000D03*
X227400Y409000D03*
X227300Y410700D03*
X238000Y129900D03*
X243000D03*
X238000Y134900D03*
X243000D03*
X238100Y141300D03*
X245000Y215000D03*
X245147Y211000D03*
X245200Y218500D03*
X242400Y309000D03*
X237029Y437898D03*
X238300Y437000D03*
X248000Y129900D03*
X253000D03*
X258000D03*
X248000Y134900D03*
X253000D03*
X258000D03*
X249600Y215100D03*
X251447Y211000D03*
X254400D03*
X253900Y218500D03*
X249100Y218600D03*
X258065Y219017D03*
X252900Y211000D03*
X252800Y393000D03*
X254000Y399900D03*
X252500Y399800D03*
X252794Y394600D03*
X248400Y408000D03*
X250000D03*
X248400Y409600D03*
X250000D03*
X254400Y430700D03*
Y429100D03*
X256100D03*
X263000Y129900D03*
Y134900D03*
X267100Y139200D03*
X268900Y134900D03*
X259300Y215200D03*
X263350Y211000D03*
X260550D03*
X263329Y219017D03*
X267265D03*
X262333Y254477D03*
X264891Y259595D03*
X267450Y267272D03*
X264891Y272389D03*
X264892Y282626D03*
X267451Y285184D03*
Y277508D03*
X276500Y142200D03*
X272700Y138400D03*
X270900Y142700D03*
X274700Y146500D03*
X276200Y164200D03*
X276300Y160600D03*
X276100Y167200D03*
X269650Y211000D03*
X271200D03*
X272700D03*
X274859Y215371D03*
X275400Y220497D03*
X277687Y262154D03*
X272568Y254476D03*
X270009D03*
Y257035D03*
X277687Y257036D03*
X270010Y272389D03*
X277687Y272390D03*
X272569Y269831D03*
Y264713D03*
X272568Y274948D03*
X275127Y277507D03*
X272568Y285185D03*
X277686Y280066D03*
X288061Y206365D03*
X285439Y206341D03*
X288400Y217900D03*
X282805Y262153D03*
X287923Y262154D03*
X282805Y254476D03*
X290482Y272389D03*
X280245Y267272D03*
X287923D03*
Y272390D03*
X290481Y274948D03*
X280245Y282625D03*
X282827Y277502D03*
X287922Y277507D03*
X285363Y282625D03*
X290481D03*
X284900Y410900D03*
X286400D03*
Y409400D03*
X284900D03*
X287900D03*
Y407900D03*
X284900D03*
X286400D03*
X295100Y130100D03*
X300100D03*
X295100Y135100D03*
Y140100D03*
Y145100D03*
X300100Y135100D03*
Y140100D03*
Y145100D03*
X296300Y164000D03*
X296500Y160300D03*
X296400Y167400D03*
X301600Y204500D03*
Y206000D03*
X300000Y204500D03*
Y206000D03*
X298500Y204500D03*
Y206000D03*
X293041Y259594D03*
X295600Y272389D03*
Y264712D03*
X310100Y130100D03*
X305100D03*
Y135100D03*
X310100D03*
X305300Y139900D03*
X303200Y206100D03*
Y204600D03*
X314800Y130100D03*
X319800D03*
X314800Y135100D03*
X319800D03*
X319300Y266000D03*
X322600Y276000D03*
X318500Y289000D03*
X324800Y130100D03*
X329800D03*
X324800Y135100D03*
X329800D03*
X332326Y194229D03*
X331200Y269700D03*
X323600Y344000D03*
X332188Y435088D03*
X333700Y435100D03*
Y436600D03*
X332200D03*
X334800Y130100D03*
X339900Y130000D03*
X334800Y135100D03*
X339900Y135000D03*
X339400Y140100D03*
X335499Y193956D03*
X335400Y192100D03*
X337256Y203510D03*
X344900Y130000D03*
X350100Y131200D03*
X344900Y135000D03*
X349900D03*
X354000Y135500D03*
X350200Y140800D03*
X344900Y140000D03*
Y145000D03*
X355200Y140800D03*
X350200Y145800D03*
Y150800D03*
Y155800D03*
X355200Y145800D03*
Y150800D03*
Y155800D03*
X350200Y160800D03*
Y165800D03*
X355200Y160800D03*
Y165800D03*
X350200Y175800D03*
Y170800D03*
X355200D03*
Y175800D03*
G54D20*
G01X153800Y349700D02*
X158965D01*
X159782Y348883D01*
G01X155300Y373400D02*
X159675D01*
X159782Y373293D01*
G01X152700Y435500D02*
X158331D01*
X158352Y435479D01*
G01X344600Y425700D02*
Y425900D01*
G01X344800Y423500D02*
Y423282D01*
G01X344500Y416000D02*
X344700D01*
G01D02*
X348391Y419691D01*
G01X344800Y423282D02*
X348391Y419691D01*
G01X344600Y425900D02*
X348391Y429691D01*
G01X344800Y433900D02*
Y433282D01*
G01D02*
X348391Y429691D01*
G54D11*
X140490Y348883D03*
Y373293D03*
X159782Y348883D03*
Y373293D03*
G54D21*
G01X331200Y269700D02*
X325800D01*
X318820Y276680D01*
X309761D01*
X309711Y276730D01*
G01X319300Y266000D02*
X314861Y270439D01*
X307761D01*
G01X306304Y271896D02*
X304786D01*
X302730Y269840D01*
Y268170D01*
X301760Y267200D01*
X299270D01*
G01X344539Y419691D02*
X348391D01*
G01X344539Y429691D02*
X348391D01*
G01Y425839D02*
Y429691D01*
G01Y415839D02*
Y419691D01*
G01D02*
Y423543D01*
G01Y429691D02*
Y433543D01*
G54D12*
X141816Y401621D03*
Y435479D03*
X158352Y401621D03*
Y435479D03*
G54D22*
G01X140490Y348883D02*
Y351652D01*
G01Y348883D02*
X144342D01*
G01X140490Y370524D02*
Y373293D01*
G01D02*
X144342D01*
G01X141816Y401621D02*
Y404685D01*
G01Y401621D02*
X146849D01*
G01X141816Y432415D02*
Y435479D01*
G01D02*
X146849D01*
G01X153319Y401621D02*
X158352D01*
G01X153319Y400089D02*
X158352Y401621D01*
G54D13*
X154356Y158707D03*
X199356D03*
G54D23*
G01X145163Y220518D02*
G03X155793I5315J0D01*
G01D02*
G03X145163I-5315J0D01*
G01Y448865D02*
G03X155793I5315J0D01*
G01D02*
G03X145163I-5315J0D01*
G01X338076Y220518D02*
G03X348706I5315J0D01*
G01D02*
G03X338076I-5315J0D01*
G01Y448865D02*
G03X348706I5315J0D01*
G01D02*
G03X338076I-5315J0D01*
G54D14*
X145852Y170715D03*
X207860D03*
G54D24*
G01X148509Y127999D02*
G02X136698Y139810I0J11811D01*
G01Y450833D02*
Y139810D01*
G01Y450833D02*
G02X148509Y462644I11811J0D01*
G01Y127999D02*
X345360D01*
G01X225678Y462644D02*
X148509D01*
G01X168194Y448865D02*
G03X180005I5905J0D01*
G01D02*
G02X168194I-5906J0D01*
G01X180005D02*
G03X168194I-5906J0D01*
G01D02*
G02X180005I5905J0D01*
G01X345360Y462644D02*
X225678D01*
G01X287923Y262154D02*
X289172Y263403D01*
X295097D01*
X296900Y261600D01*
Y250400D01*
X295800Y249300D01*
Y230515D01*
X291300Y226015D01*
Y208200D01*
X289465Y206365D01*
X288061D01*
G01X295600Y264712D02*
X299468Y260844D01*
Y250868D01*
X296900Y248300D01*
Y230200D01*
X294361Y227661D01*
Y222661D01*
X292357Y220657D01*
Y207242D01*
X290130Y205015D01*
X286765D01*
X285439Y206341D01*
G01X313864Y220518D02*
G03X325675I5906J0D01*
G01D02*
G02X313864I-5905J0D01*
G01X325675D02*
G03X313864I-5905J0D01*
G01D02*
G02X325675I5906J0D01*
G01X357171Y139810D02*
G02X345360Y127999I-11811J0D01*
G01Y462644D02*
G02X357171Y450833I0J-11811D01*
G01Y139810D02*
Y450833D01*
G54D15*
X156186Y407172D03*
Y429928D03*
G54D25*
G01X136698Y139810D02*
G03X148509Y127999I11811J0D01*
G01X345360D01*
G03X357171Y139810I0J11811D01*
G01Y450833D01*
G03X345360Y462644I-11811J0D01*
G01X225678D01*
X148509D01*
G03X136698Y450833I0J-11811D01*
G01Y139810D01*
G01X168194Y448865D02*
G03X180005I5905J0D01*
G03X168194I-5906J0D01*
G01X313864Y220518D02*
G03X325675I5906J0D01*
G03X313864I-5905J0D01*
G01X289710Y276770D02*
X288931Y275991D01*
Y273940D01*
X290482Y272389D01*
G54D16*
X212204Y132600D03*
X216200Y162600D03*
X220196Y132600D03*
X290396D03*
X282404D03*
X286400Y162600D03*
G54D17*
X225872Y152368D03*
Y174730D03*
X276266Y152368D03*
Y174730D03*
X296541Y152368D03*
Y174730D03*
X346935Y152368D03*
Y174730D03*
G54D18*
X348391Y419691D03*
Y429691D03*
G54D19*
G01X322600Y276000D02*
X322500Y276100D01*
X322496D01*
X320296Y278300D01*
X291240D01*
X289710Y276770D01*
G01X309711Y276730D02*
X292263D01*
X290481Y274948D01*
G01X318500Y289000D02*
X318400Y289100D01*
X317700D01*
X317283Y289517D01*
X297297D01*
X290481Y282701D01*
Y282625D01*
G01X307761Y270439D02*
X306304Y271896D01*
G01X299270Y267200D02*
X298250D01*
X295570Y269880D01*
Y272359D01*
X295600Y272389D01*
M02*
