M48
INCH
T01C.004
T02C.00796
T03C.008
T04C.01575
T05C.02362
T06C.02756
T07C.03543
T08C.0408
T09C.04331
T10C.02362
T11C.04724
T12C.12795
;LEADER: 12 
;HEADER: 
;CODE  : ASCII 
;FILE  : BeagleY-AI_PCB_Rev A_240426-12-14.drl for  ... layers L12-SIGNAL4 and BOTTOM
;DESIGN: BeagleY-AI_PCB_Rev A_240426.brd
;T01 Holesize 1. = 4.000000 Tolerance = +0.000000/-0.000000 PLATED MILS Quantity = 66
%
G90
T01
X0164200Y0266000
X0164400Y0276800
X0164400Y0275700
X0181198Y0266200
X0207400Y0323500
X0202100Y0323000
X0207456Y0321856
X0199700Y0321715
X0217600Y0336200
X0185400Y0264100
X0186502Y0266802
X0199100Y0367300
X0325000Y0422400
X0185100Y0253800
X0187300Y0253800
X0184200Y0252200
X0182000Y0252200
X0185400Y0260200
X0175100Y0258100
X0178815Y0253585
X0187014Y0260200
X0176656Y0256544
X0181015Y0253585
X0202400Y0266100
X0202400Y0268300
X0200100Y0260200
X0200200Y0261700
X0197600Y0259100
X0197600Y0257600
X0206347Y0319244
X0179300Y0277700
X0192000Y0242600
X0193100Y0242600
X0222200Y0196700
X0207429Y0417871
X0207600Y0361100
X0283450Y0423622
X0285503Y0435471
X0280477Y0416671
X0324900Y0419800
X0325000Y0417000
X0325001Y0414300
X0160100Y0271700
X0160068Y0273568
X0247300Y0451300
X0246932Y0453800
X0246932Y0452466
X0293600Y0430800
X0290500Y0439700
X0290529Y0444571
X0280477Y0414577
X0290600Y0427900
X0283500Y0435500
X0171500Y0274400
X0299250Y0423622
X0288650Y0423622
X0280477Y0410700
X0304300Y0217000
X0306425Y0211475
X0327803Y0406197
X0190126Y0261774
X0188568Y0261768
X0188568Y0257068
X0190126Y0257074
X0188568Y0258568
X0190126Y0258574
M30
