M48
INCH
T01C.004
T02C.00796
T03C.008
T04C.01575
T05C.02362
T06C.02756
T07C.03543
T08C.0408
T09C.04331
T10C.02362
T11C.04724
T12C.12795
;LEADER: 12 
;HEADER: 
;CODE  : ASCII 
;FILE  : BeagleY-AI_PCB_Rev A_240426-1-2.drl for  ... layers TOP and L2-GND1
;DESIGN: BeagleY-AI_PCB_Rev A_240426.brd
;T01 Holesize 1. = 4.000000 Tolerance = +0.000000/-0.000000 PLATED MILS Quantity = 421
%
G90
T01
X0212500Y0197800
X0212881Y0193373
X0213600Y0189100
X0210700Y0200200
X0210500Y0196700
X0210500Y0192200
X0210300Y0187800
X0210300Y0183700
X0327547Y0189824
R02X-0004600
X0313847Y0189824
X0307647Y0189824
X0300947Y0189824
X0246747Y0191824
X0252747Y0191824
X0258547Y0191824
X0264547Y0191824
X0270247Y0191824
X0275847Y0191824
X0225144Y0376604
X0195976Y0284193
X0163569Y0257394
X0163500Y0255400
X0161800Y0256000
X0161869Y0257994
X0162000Y0260100
X0142000Y0272800
X0142069Y0274794
X0142200Y0276900
X0141700Y0264400
X0141769Y0266394
X0141900Y0268500
X0142000Y0256000
X0142069Y0257994
X0142200Y0260100
X0190700Y0272600
X0190769Y0274594
X0190900Y0276700
X0190600Y0247800
X0190669Y0249794
X0190800Y0251900
X0152529Y0260207
X0150771Y0313293
X0149700Y0312800
X0148700Y0313500
X0177644Y0338423
X0185244Y0338423
X0321700Y0341500
X0325003Y0327400
X0322300Y0238400
X0318000Y0234500
X0312200Y0226300
X0309700Y0222300
X0326600Y0243500
X0326521Y0241800
X0326535Y0245524
X0329203Y0248800
X0324318Y0248800
X0327400Y0264100
X0330000Y0262600
X0331500Y0265900
X0280700Y0419900
X0278600Y0419900
X0276700Y0418300
X0274900Y0418300
X0273100Y0401800
X0273100Y0403600
X0255800Y0397400
X0257600Y0397400
X0255800Y0394800
X0257600Y0394800
X0210100Y0446500
X0211900Y0446500
X0179500Y0426800
X0181300Y0426800
X0186500Y0423100
X0188300Y0423100
X0177100Y0423700
X0175300Y0423700
X0173300Y0423700
X0171500Y0423700
X0209200Y0417700
X0208000Y0417700
X0205400Y0417700
X0203600Y0417700
X0203600Y0419800
X0205400Y0419800
X0207400Y0419800
X0209200Y0419800
X0206300Y0425400
X0208100Y0425400
X0211700Y0425300
X0213500Y0425300
X0222600Y0430300
X0237029Y0441540
X0244021Y0446896
X0262674Y0438223
X0259800Y0435100
X0259800Y0436900
X0260900Y0429200
X0262700Y0429200
X0217800Y0428200
X0217800Y0426400
X0218300Y0433900
X0218300Y0432100
X0221700Y0427000
X0219900Y0427000
X0221000Y0424600
X0219200Y0424600
X0219200Y0406400
X0217400Y0406400
X0222100Y0411000
X0220300Y0411000
X0258200Y0406100
X0256400Y0406100
X0256300Y0408000
X0254500Y0408000
X0256200Y0409900
X0254400Y0409900
X0254400Y0411600
X0256200Y0411600
X0149771Y0313993
X0186720Y0332418
X0181420Y0332418
X0325397Y0288100
X0163520Y0332418
X0171320Y0332418
X0208000Y0215000
X0207931Y0213006
X0219600Y0214900
X0219531Y0212906
X0214800Y0226600
X0215400Y0225000
X0219200Y0226600
X0219131Y0224606
X0208200Y0218900
X0208269Y0220894
X0214500Y0219000
X0214569Y0220994
X0219000Y0218600
X0219069Y0220594
X0200300Y0397900
X0329844Y0271596
X0329856Y0278210
X0266895Y0361079
X0213644Y0242878
X0193522Y0446276
X0196122Y0446276
X0206322Y0437302
X0225400Y0416356
X0281976Y0425435
X0281976Y0419924
X0189900Y0398000
X0190600Y0397200
X0171230Y0385456
X0188400Y0387700
X0186756Y0388794
X0190056Y0386829
X0197256Y0386829
X0199856Y0386829
X0213256Y0386977
X0217898Y0392644
X0230100Y0385800
X0289927Y0332732
X0298548Y0230349
X0287600Y0224300
X0280071Y0229911
X0274829Y0228411
X0228600Y0303200
X0231500Y0302003
X0258500Y0304400
X0286600Y0304400
X0233300Y0308200
X0235200Y0308200
X0141900Y0296200
X0142000Y0298600
X0147900Y0296200
X0148000Y0298600
X0329300Y0310397
X0329300Y0303197
X0328962Y0297953
X0324238Y0292047
X0318300Y0281000
X0319100Y0280300
X0321509Y0284443
X0318744Y0283923
X0318497Y0299200
X0323400Y0360600
X0324900Y0360600
X0323400Y0358900
X0324900Y0358900
X0330800Y0330800
X0329300Y0330800
X0330800Y0332500
X0329300Y0332500
X0318886Y0312600
X0319000Y0320400
X0319300Y0326500
X0317800Y0326500
X0319100Y0346200
X0317600Y0346200
X0318394Y0341020
X0319000Y0334200
X0317500Y0334200
X0161400Y0358700
X0163600Y0358700
X0161400Y0363500
X0163600Y0363500
X0286100Y0224300
X0281500Y0219800
X0281500Y0215100
X0281600Y0210300
X0281600Y0211800
X0289198Y0180700
X0270000Y0225003
X0270175Y0218429
X0276772Y0218450
X0265300Y0218400
X0265300Y0219900
X0267100Y0210300
X0267100Y0211800
X0264800Y0222997
X0259600Y0222997
X0262171Y0222997
X0267654Y0222977
X0257000Y0222997
R02X-0002600
X0249100Y0222977
X0256100Y0218300
X0256100Y0219800
X0248400Y0210400
X0248400Y0211900
X0257500Y0210400
X0257500Y0211900
X0247100Y0218500
X0247100Y0220000
X0233700Y0346300
X0231900Y0346300
X0238903Y0360800
X0216500Y0286600
X0218300Y0286600
X0220900Y0286600
X0222700Y0286600
X0217100Y0267900
X0218900Y0267900
X0220900Y0267900
X0222700Y0267900
X0220900Y0277500
X0222700Y0277500
X0216600Y0277600
X0218400Y0277600
X0217100Y0258500
X0218900Y0258500
X0220900Y0258500
X0222700Y0258500
X0222176Y0240217
X0219576Y0240217
X0204500Y0315500
X0205007Y0294580
X0212500Y0286600
X0214300Y0286600
X0208600Y0286600
X0210400Y0286600
X0208700Y0267900
X0210500Y0267900
X0213400Y0267900
X0215200Y0267900
X0211200Y0277600
X0208200Y0277600
X0229600Y0187800
X0229600Y0186500
X0231100Y0187900
X0231582Y0186476
X0216000Y0186698
X0213400Y0186698
X0217635Y0189924
X0218400Y0200100
X0201124Y0284182
X0193123Y0202422
X0193123Y0205966
X0181924Y0284193
X0184724Y0284193
X0189400Y0284100
X0194700Y0247800
X0194769Y0249794
X0194900Y0251900
X0184500Y0268100
X0184369Y0265994
X0184300Y0264000
X0194700Y0263800
X0194769Y0265794
X0194900Y0267900
X0195000Y0276500
X0194869Y0274394
X0194800Y0272400
X0206500Y0257300
X0206500Y0259100
X0194800Y0239400
X0194869Y0241394
X0195000Y0243500
X0184500Y0239100
X0184569Y0241094
X0184700Y0243200
X0178300Y0247700
X0178369Y0249694
X0178500Y0251800
X0284500Y0182898
X0287182Y0183276
X0227400Y0202200
X0209500Y0444100
X0222144Y0444023
X0221800Y0432900
X0229234Y0328044
X0220800Y0295800
X0222600Y0295800
X0214200Y0295700
X0216000Y0295700
X0205007Y0299680
X0205007Y0297080
X0209500Y0295700
X0211300Y0295700
X0151471Y0302593
X0148871Y0302593
X0146171Y0302593
X0306300Y0222421
X0300000Y0227600
X0300000Y0226100
X0300000Y0223700
X0300000Y0222200
X0300000Y0219800
X0300000Y0218300
X0292357Y0220657
X0220500Y0305500
X0220500Y0307300
X0220500Y0308900
X0220500Y0310700
X0222600Y0305700
X0222600Y0307500
X0222600Y0309100
X0222600Y0310900
X0224500Y0310900
X0224500Y0309100
X0224500Y0307500
X0224500Y0305700
X0222880Y0314500
X0206407Y0330380
X0227800Y0294597
X0215407Y0330176
X0201024Y0334707
X0219476Y0314893
X0295000Y0210700
X0287200Y0210700
X0289900Y0210700
X0292300Y0210700
X0294900Y0212500
X0287100Y0212500
X0289800Y0212500
X0292200Y0212500
X0292200Y0214400
X0294900Y0214400
X0289800Y0214400
X0287100Y0214400
X0292297Y0218000
X0288500Y0220003
X0328200Y0374197
X0300400Y0214400
X0300400Y0212500
X0300500Y0210700
X0302600Y0214400
X0302600Y0212500
X0302700Y0210700
X0309844Y0225548
X0316718Y0231524
X0237100Y0216200
X0232900Y0217700
X0240200Y0215900
X0235700Y0218900
X0179124Y0284193
X0178800Y0276300
X0178669Y0274194
X0178600Y0272200
X0173200Y0239200
X0173269Y0241194
X0173400Y0243300
X0155400Y0276700
X0155269Y0274594
X0155200Y0272600
X0161000Y0239500
X0161069Y0241494
X0161200Y0243600
X0166900Y0248100
X0166969Y0250094
X0167100Y0252200
X0144900Y0239300
X0144969Y0241294
X0145100Y0243400
X0167100Y0276700
X0166969Y0274594
X0166900Y0272600
X0145000Y0276600
X0144869Y0274494
X0144800Y0272500
X0155500Y0248000
X0155569Y0249994
X0155700Y0252100
X0173100Y0267800
X0172969Y0265694
X0172900Y0263700
X0161200Y0267900
X0161069Y0265794
X0161000Y0263800
X0144900Y0268000
X0144769Y0265894
X0144700Y0263900
X0145000Y0248000
X0145069Y0249994
X0145200Y0252100
X0165480Y0284193
X0168080Y0284193
M30
