M48
INCH
T01C.004
T02C.00796
T03C.008
T04C.01575
T05C.02362
T06C.02756
T07C.03543
T08C.0408
T09C.04331
T10C.02362
T11C.04724
T12C.12795
;LEADER: 12 
;HEADER: 
;CODE  : ASCII 
;FILE  : BeagleY-AI_PCB_Rev A_240426-1-3.drl for  ... layers TOP and L3-SIGNAL1
;DESIGN: BeagleY-AI_PCB_Rev A_240426.brd
;T01 Holesize 1. = 4.000000 Tolerance = +0.000000/-0.000000 PLATED MILS Quantity = 229
%
G90
T01
X0158500Y0286000
X0159600Y0286000
X0159600Y0287100
X0324400Y0276320
X0250074Y0440504
X0324406Y0273620
X0247444Y0440498
X0233410Y0337344
X0156244Y0279318
X0158000Y0279300
X0193961Y0380656
X0312000Y0245600
X0191992Y0380656
X0312500Y0247602
X0265226Y0440177
X0265900Y0431300
X0262674Y0440229
X0253800Y0441800
X0247500Y0435400
X0316100Y0307000
X0156900Y0283000
X0316000Y0309200
X0315900Y0311000
X0159139Y0274456
X0172200Y0255800
X0164900Y0258900
X0218428Y0250628
X0271002Y0422455
X0174887Y0250046
X0176856Y0241384
X0188667Y0241384
X0186698Y0250046
X0168982Y0241384
X0165045Y0241384
X0180793Y0241384
X0170950Y0250046
X0163076Y0250046
X0182761Y0250046
X0203800Y0380600
X0167100Y0391100
X0164100Y0379200
X0179200Y0383800
X0186756Y0385152
X0169744Y0389023
X0167588Y0377956
X0181018Y0382218
X0174700Y0386000
X0167588Y0374256
X0216402Y0352309
X0211661Y0258287
X0231500Y0300000
X0270800Y0415400
X0240100Y0448000
X0242100Y0454300
X0242053Y0455558
X0240084Y0446896
X0315900Y0240200
X0145050Y0293600
X0147250Y0293600
X0157282Y0302876
X0157282Y0305476
X0151750Y0317200
X0153950Y0317200
X0157282Y0316876
X0157282Y0319476
X0163206Y0321049
X0193849Y0293751
X0198900Y0284200
X0153800Y0309354
X0163206Y0323018
X0153800Y0307154
X0160714Y0415597
X0160714Y0419534
X0151300Y0286200
X0152400Y0287400
X0152400Y0286300
X0281356Y0149449
X0282500Y0149400
X0283756Y0149449
X0284900Y0149400
X0281256Y0151349
X0282400Y0151300
X0283656Y0151349
X0284800Y0151300
X0281256Y0153449
X0282400Y0153400
X0283656Y0153449
X0284800Y0153400
X0290800Y0153300
X0289656Y0153349
X0288400Y0153300
X0287256Y0153349
X0214851Y0170256
X0214900Y0172300
X0214800Y0168500
X0214851Y0166356
X0220700Y0172200
X0220600Y0170200
X0220500Y0167800
X0220500Y0165800
X0220600Y0161300
X0220600Y0163000
X0220700Y0158700
X0220600Y0156200
X0217600Y0151400
X0216456Y0151449
X0215200Y0151400
X0214056Y0151449
X0218428Y0253744
X0272970Y0420486
X0253864Y0455558
X0324318Y0264580
X0329400Y0268200
X0259769Y0446896
X0251895Y0446896
X0324318Y0261980
X0329400Y0266000
X0257801Y0455558
X0328070Y0254800
X0205007Y0305076
X0187856Y0338423
R04X0002600
X0203456Y0338423
X0206056Y0338423
X0330270Y0254800
X0205007Y0307576
X0198638Y0311207
X0332470Y0264100
X0222400Y0377900
X0222377Y0380456
X0198638Y0313175
X0334670Y0264100
X0198638Y0303333
X0198638Y0301364
X0213856Y0338423
X0257743Y0249859
X0265065Y0435565
X0222400Y0370100
X0219056Y0335200
X0211256Y0338423
X0226700Y0375200
X0208656Y0338423
X0200856Y0338423
X0258500Y0248100
X0216400Y0336400
X0201724Y0444270
X0249600Y0437800
X0204424Y0444270
X0252774Y0440329
X0322300Y0248800
X0322893Y0245524
X0327200Y0248800
X0180793Y0265794
X0176856Y0265794
X0182761Y0274456
X0168982Y0265794
X0174887Y0274456
X0186698Y0274456
X0165045Y0265794
X0163076Y0274456
X0170950Y0274456
X0188667Y0265794
X0273289Y0334306
X0283531Y0334306
X0286091Y0334306
X0270729Y0334306
X0286091Y0337455
X0270729Y0337455
X0286091Y0340605
X0270729Y0340605
X0286091Y0362654
X0270729Y0362654
X0270729Y0365804
X0286091Y0365804
X0268447Y0309267
X0260484Y0362655
X0271447Y0309267
X0260507Y0359505
X0267450Y0295421
X0255371Y0362655
X0264891Y0300538
X0252811Y0359505
X0270010Y0292861
X0255371Y0356355
X0270010Y0303098
X0260491Y0356355
X0272568Y0297980
X0265608Y0359505
X0272569Y0303098
X0263300Y0365400
X0272568Y0292861
X0260768Y0365474
X0272568Y0300538
X0257931Y0362654
X0264891Y0297979
X0252811Y0365804
X0303996Y0356353
X0298159Y0300539
X0304008Y0365804
X0303277Y0292862
X0296577Y0309317
X0296318Y0359505
X0296331Y0365804
X0298159Y0292862
X0293771Y0365804
X0303277Y0297979
X0299577Y0309317
X0298877Y0359505
X0296320Y0356353
X0298158Y0303098
X0301449Y0365804
X0303277Y0300538
X0291211Y0359505
X0295600Y0295420
X0301437Y0356353
X0293040Y0290302
X0298888Y0362655
X0295600Y0303098
X0270729Y0343755
X0286091Y0343755
X0286091Y0346905
X0270729Y0346905
X0270729Y0353205
X0286091Y0353203
X0270729Y0359505
X0286091Y0359505
M30
