*
*
G04 PADS 9.5 Build Number: 522968 generated Gerber (RS-274-X) file*
G04 PC Version=2.1*
*
%IN "RADXA_ROCK2_BASEBD-1503"*%
*
%MOIN*%
*
%FSLAX35Y35*%
*
*
*
*
G04 PC Standard Apertures*
*
*
G04 Thermal Relief Aperture macro.*
%AMTER*
1,1,$1,0,0*
1,0,$1-$2,0,0*
21,0,$3,$4,0,0,45*
21,0,$3,$4,0,0,135*
%
*
*
G04 Annular Aperture macro.*
%AMANN*
1,1,$1,0,0*
1,0,$2,0,0*
%
*
*
G04 Odd Aperture macro.*
%AMODD*
1,1,$1,0,0*
1,0,$1-0.005,0,0*
%
*
*
G04 PC Custom Aperture Macros*
*
*
*
*
*
*
G04 PC Aperture Table*
*
%ADD010C,0.001*%
%ADD015O,0.0748X0.0748*%
%ADD019C,0.04724*%
%ADD020C,0.0315*%
%ADD022R,0.06299X0.06299*%
%ADD023C,0.05*%
%ADD024R,0.15748X0.05906*%
%ADD027R,0.02008X0.02008*%
%ADD032R,0.03583X0.04803*%
%ADD039R,0.04X0.05*%
%ADD040R,0.05X0.04*%
%ADD041R,0.06299X0.07087*%
%ADD043R,0.02756X0.03543*%
%ADD044R,0.03543X0.02756*%
%ADD045O,0.07874X0.07874*%
%ADD055R,0.04173X0.02559*%
%ADD056R,0.02559X0.04173*%
%ADD057C,0.09449*%
%ADD063O,0.05906X0.01575*%
%ADD076C,0.03937*%
%ADD083C,0.06*%
%ADD084C,0.13*%
%ADD085C,0.1*%
%ADD092R,0.08902X0.01701*%
%ADD093R,0.07323X0.10236*%
%ADD094R,0.01181X0.05906*%
%ADD095R,0.04429X0.01968*%
%ADD096R,0.01968X0.04429*%
%ADD097C,0.01181*%
%ADD110C,0.05906*%
%ADD111C,0.039*%
%ADD121C,0.006*%
%ADD123C,0.03*%
%ADD125C,0.012*%
%ADD135C,0.024*%
%ADD152C,0.0748*%
%ADD153C,0.05118*%
%ADD155C,0.22047*%
%ADD156C,0.07874*%
%ADD160R,0.06693X0.09*%
%ADD161O,0.06693X0.09*%
%ADD162O,0.06299X0.06299*%
%ADD163O,0.06299X0.06299*%
%ADD164R,0.05906X0.09*%
%ADD165O,0.05906X0.09*%
%ADD167O,0.04724X0.07087*%
%ADD168R,0.03937X0.03937*%
%ADD169O,0.0315X0.03937*%
%ADD170O,0.05906X0.08268*%
%ADD172C,0.065*%
%ADD173O,0.05X0.05*%
%ADD175O,0.12992X0.12992*%
%ADD178R,0.07874X0.07874*%
%ADD181C,0.05118*%
%ADD182R,0.09055X0.05512*%
%ADD183R,0.08268X0.05118*%
%ADD184C,0.24409*%
%ADD187C,0.04331*%
%ADD188R,0.055X0.055*%
%ADD190O,0.06299X0.06299*%
%ADD191O,0.05512X0.06299*%
%ADD193R,0.02165X0.02165*%
%ADD194R,0.02362X0.02756*%
%ADD195R,0.02756X0.02362*%
%ADD196R,0.07087X0.07874*%
%ADD197R,0.04X0.04*%
%ADD198R,0.01181X0.04724*%
%ADD199R,0.01378X0.05118*%
%ADD200O,0.01181X0.05906*%
%ADD201R,0.07874X0.09055*%
%ADD202R,0.01575X0.03543*%
%ADD203R,0.05905X0.15748*%
%ADD204R,0.04331X0.11811*%
%ADD205C,0.028*%
%ADD206R,0.07087X0.07087*%
%ADD207R,0.00787X0.02657*%
%ADD208R,0.01575X0.03051*%
%ADD209O,0.071X0.018*%
%ADD210O,0.071X0.01*%
%ADD211O,0.018X0.071*%
%ADD212O,0.01X0.071*%
%ADD213R,0.01102X0.03646*%
%ADD214R,0.03646X0.01102*%
%ADD215R,0.09843X0.09843*%
%ADD216R,0.01181X0.02165*%
%ADD217R,0.10236X0.0689*%
%ADD218R,0.09449X0.06693*%
%ADD219R,0.04724X0.02362*%
%ADD220R,0.05512X0.04528*%
%ADD221R,0.03543X0.01575*%
%ADD226O,0.03937X0.03937*%
%ADD227C,0.09843*%
%ADD228O,0.055X0.055*%
%ADD230C,0.03543*%
%ADD231C,0.06299*%
*
*
*
*
G04 PC Copper Outlines (0)*
G04 Layer Name RADXA_ROCK2_BASEBD-1503 - dark (0)*
%LPD*%
*
*
G04 PC Area=_PSI_PAC_C7343_000_0000123_P324000000M*
G75*
G36*
G01*
X2177850Y1465118D02*
X2187250D01*
Y1454882D01*
X2177850D01*
Y1465118D01*
G37*
G74*
*
*
G04 PC Copper Outlines (1)*
G04 Layer Name RADXA_ROCK2_BASEBD-1503 - dark (1)*
%LPD*%
*
*
G04 PC Area=_PSI_PAC_C7343_001_0000124_P324000000M*
G75*
G36*
G01*
X2202250Y1465118D02*
X2211650D01*
Y1454882D01*
X2202250D01*
Y1465118D01*
G37*
G74*
*
*
G04 PC Copper Outlines (2)*
G04 Layer Name RADXA_ROCK2_BASEBD-1503 - dark (2)*
%LPD*%
*
*
G04 PC Area=_PSI_PAC_SOT-23_000_0000142_N162000000M*
G75*
G36*
G01*
X1880433Y1715236D02*
X1884764D01*
Y1712087D01*
X1880433D01*
Y1715236D01*
G37*
G74*
*
*
G04 PC Copper Outlines (3)*
G04 Layer Name RADXA_ROCK2_BASEBD-1503 - dark (3)*
%LPD*%
*
*
G04 PC Area=_PSI_PAC_SOT-23_001_0000143_N162000000M*
G75*
G36*
G01*
X1880433Y1707756D02*
X1884764D01*
Y1704606D01*
X1880433D01*
Y1707756D01*
G37*
G74*
*
*
G04 PC Copper Outlines (4)*
G04 Layer Name RADXA_ROCK2_BASEBD-1503 - dark (4)*
%LPD*%
*
*
G04 PC Area=_PSI_PAC_SOT-23_002_0000144_N162000000M*
G75*
G36*
G01*
X1869803Y1711496D02*
X1874134D01*
Y1708346D01*
X1869803D01*
Y1711496D01*
G37*
G74*
*
*
G04 PC Copper Outlines (5)*
G04 Layer Name RADXA_ROCK2_BASEBD-1503 - dark (5)*
%LPD*%
*
*
G04 PC Area=_PSI_PAC_SOT-23_000_0000142_P324000000M*
G75*
G36*
G01*
X1934195Y1465854D02*
Y1470185D01*
X1937344D01*
Y1465854D01*
X1934195D01*
G37*
G74*
*
*
G04 PC Copper Outlines (6)*
G04 Layer Name RADXA_ROCK2_BASEBD-1503 - dark (6)*
%LPD*%
*
*
G04 PC Area=_PSI_PAC_SOT-23_001_0000143_P324000000M*
G75*
G36*
G01*
X1941675Y1465854D02*
Y1470185D01*
X1944825D01*
Y1465854D01*
X1941675D01*
G37*
G74*
*
*
G04 PC Copper Outlines (7)*
G04 Layer Name RADXA_ROCK2_BASEBD-1503 - dark (7)*
%LPD*%
*
*
G04 PC Area=_PSI_PAC_SOT-23_002_0000144_P324000000M*
G75*
G36*
G01*
X1937935Y1455224D02*
Y1459555D01*
X1941085D01*
Y1455224D01*
X1937935D01*
G37*
G74*
*
*
G04 PC Copper Outlines (8)*
G04 Layer Name RADXA_ROCK2_BASEBD-1503 - dark (8)*
%LPD*%
*
*
G04 PC Area=_PSI_PAC_SOT-23_000_0000142_P324000000M*
G75*
G36*
G01*
X2149195Y1466354D02*
Y1470685D01*
X2152344D01*
Y1466354D01*
X2149195D01*
G37*
G74*
*
*
G04 PC Copper Outlines (9)*
G04 Layer Name RADXA_ROCK2_BASEBD-1503 - dark (9)*
%LPD*%
*
*
G04 PC Area=_PSI_PAC_SOT-23_001_0000143_P324000000M*
G75*
G36*
G01*
X2156675Y1466354D02*
Y1470685D01*
X2159825D01*
Y1466354D01*
X2156675D01*
G37*
G74*
*
*
G04 PC Copper Outlines (10)*
G04 Layer Name RADXA_ROCK2_BASEBD-1503 - dark (10)*
%LPD*%
*
*
G04 PC Area=_PSI_PAC_SOT-23_002_0000144_P324000000M*
G75*
G36*
G01*
X2152935Y1455724D02*
Y1460055D01*
X2156085D01*
Y1455724D01*
X2152935D01*
G37*
G74*
*
*
G04 PC Copper Outlines (11)*
G04 Layer Name RADXA_ROCK2_BASEBD-1503 - dark (11)*
%LPD*%
*
*
G04 PC Area=_PSI_PAC_SOT-23_000_0000142_M*
G75*
G36*
G01*
X2158555Y1522646D02*
Y1518315D01*
X2155406D01*
Y1522646D01*
X2158555D01*
G37*
G74*
*
*
G04 PC Copper Outlines (12)*
G04 Layer Name RADXA_ROCK2_BASEBD-1503 - dark (12)*
%LPD*%
*
*
G04 PC Area=_PSI_PAC_SOT-23_001_0000143_M*
G75*
G36*
G01*
X2151075Y1522646D02*
Y1518315D01*
X2147925D01*
Y1522646D01*
X2151075D01*
G37*
G74*
*
*
G04 PC Copper Outlines (13)*
G04 Layer Name RADXA_ROCK2_BASEBD-1503 - dark (13)*
%LPD*%
*
*
G04 PC Area=_PSI_PAC_SOT-23_002_0000144_M*
G75*
G36*
G01*
X2154815Y1533276D02*
Y1528945D01*
X2151665D01*
Y1533276D01*
X2154815D01*
G37*
G74*
*
*
G04 PC Copper Outlines (14)*
G04 Layer Name RADXA_ROCK2_BASEBD-1503 - dark (14)*
%LPD*%
*
*
G04 PC Area=_PSI_PAC_SOT-23_000_0000142_N162000000M*
G75*
G36*
G01*
X2087104Y1473305D02*
X2091435D01*
Y1470156D01*
X2087104D01*
Y1473305D01*
G37*
G74*
*
*
G04 PC Copper Outlines (15)*
G04 Layer Name RADXA_ROCK2_BASEBD-1503 - dark (15)*
%LPD*%
*
*
G04 PC Area=_PSI_PAC_SOT-23_001_0000143_N162000000M*
G75*
G36*
G01*
X2087104Y1465825D02*
X2091435D01*
Y1462675D01*
X2087104D01*
Y1465825D01*
G37*
G74*
*
*
G04 PC Copper Outlines (16)*
G04 Layer Name RADXA_ROCK2_BASEBD-1503 - dark (16)*
%LPD*%
*
*
G04 PC Area=_PSI_PAC_SOT-23_002_0000144_N162000000M*
G75*
G36*
G01*
X2076474Y1469565D02*
X2080805D01*
Y1466415D01*
X2076474D01*
Y1469565D01*
G37*
G74*
*
*
G04 PC Copper Outlines (17)*
G04 Layer Name RADXA_ROCK2_BASEBD-1503 - dark (17)*
%LPD*%
*
*
G04 PC Area=_PSI_PAC_SOT-23_000_0000142_M*
G75*
G36*
G01*
X2122055Y1522646D02*
Y1518315D01*
X2118906D01*
Y1522646D01*
X2122055D01*
G37*
G74*
*
*
G04 PC Copper Outlines (18)*
G04 Layer Name RADXA_ROCK2_BASEBD-1503 - dark (18)*
%LPD*%
*
*
G04 PC Area=_PSI_PAC_SOT-23_001_0000143_M*
G75*
G36*
G01*
X2114575Y1522646D02*
Y1518315D01*
X2111425D01*
Y1522646D01*
X2114575D01*
G37*
G74*
*
*
G04 PC Copper Outlines (19)*
G04 Layer Name RADXA_ROCK2_BASEBD-1503 - dark (19)*
%LPD*%
*
*
G04 PC Area=_PSI_PAC_SOT-23_002_0000144_M*
G75*
G36*
G01*
X2118315Y1533276D02*
Y1528945D01*
X2115165D01*
Y1533276D01*
X2118315D01*
G37*
G74*
*
*
G04 PC Copper Outlines (20)*
G04 Layer Name RADXA_ROCK2_BASEBD-1503 - dark (20)*
%LPD*%
*
*
G04 PC Area=_PSI_PAC_SOT-23_000_0000142_M*
G75*
G36*
G01*
X1934055Y1589396D02*
Y1585065D01*
X1930906D01*
Y1589396D01*
X1934055D01*
G37*
G74*
*
*
G04 PC Copper Outlines (21)*
G04 Layer Name RADXA_ROCK2_BASEBD-1503 - dark (21)*
%LPD*%
*
*
G04 PC Area=_PSI_PAC_SOT-23_001_0000143_M*
G75*
G36*
G01*
X1926575Y1589396D02*
Y1585065D01*
X1923425D01*
Y1589396D01*
X1926575D01*
G37*
G74*
*
*
G04 PC Copper Outlines (22)*
G04 Layer Name RADXA_ROCK2_BASEBD-1503 - dark (22)*
%LPD*%
*
*
G04 PC Area=_PSI_PAC_SOT-23_002_0000144_M*
G75*
G36*
G01*
X1930315Y1600026D02*
Y1595695D01*
X1927165D01*
Y1600026D01*
X1930315D01*
G37*
G74*
*
*
G04 PC Copper Outlines (23)*
G04 Layer Name RADXA_ROCK2_BASEBD-1503 - dark (23)*
%LPD*%
*
*
G04 PC Area=_PSI_PAC_SOT-23_000_0000142_M*
G75*
G36*
G01*
X1946305Y1589396D02*
Y1585065D01*
X1943156D01*
Y1589396D01*
X1946305D01*
G37*
G74*
*
*
G04 PC Copper Outlines (24)*
G04 Layer Name RADXA_ROCK2_BASEBD-1503 - dark (24)*
%LPD*%
*
*
G04 PC Area=_PSI_PAC_SOT-23_001_0000143_M*
G75*
G36*
G01*
X1938825Y1589396D02*
Y1585065D01*
X1935675D01*
Y1589396D01*
X1938825D01*
G37*
G74*
*
*
G04 PC Copper Outlines (25)*
G04 Layer Name RADXA_ROCK2_BASEBD-1503 - dark (25)*
%LPD*%
*
*
G04 PC Area=_PSI_PAC_SOT-23_002_0000144_M*
G75*
G36*
G01*
X1942565Y1600026D02*
Y1595695D01*
X1939415D01*
Y1600026D01*
X1942565D01*
G37*
G74*
*
*
G04 PC Copper Outlines (26)*
G04 Layer Name RADXA_ROCK2_BASEBD-1503 - dark (26)*
%LPD*%
*
*
G04 PC Area=_PSI_PAC_SOT-23_000_0000142_M*
G75*
G36*
G01*
X1820555Y1449896D02*
Y1445565D01*
X1817406D01*
Y1449896D01*
X1820555D01*
G37*
G74*
*
*
G04 PC Copper Outlines (27)*
G04 Layer Name RADXA_ROCK2_BASEBD-1503 - dark (27)*
%LPD*%
*
*
G04 PC Area=_PSI_PAC_SOT-23_001_0000143_M*
G75*
G36*
G01*
X1813075Y1449896D02*
Y1445565D01*
X1809925D01*
Y1449896D01*
X1813075D01*
G37*
G74*
*
*
G04 PC Copper Outlines (28)*
G04 Layer Name RADXA_ROCK2_BASEBD-1503 - dark (28)*
%LPD*%
*
*
G04 PC Area=_PSI_PAC_SOT-23_002_0000144_M*
G75*
G36*
G01*
X1816815Y1460526D02*
Y1456195D01*
X1813665D01*
Y1460526D01*
X1816815D01*
G37*
G74*
*
*
G04 PC Copper Outlines (29)*
G04 Layer Name RADXA_ROCK2_BASEBD-1503 - dark (29)*
%LPD*%
*
*
G04 PC Area=_PSI_PAC_SOT-23_000_0000142_M*
G75*
G36*
G01*
X1851654Y1449685D02*
Y1445354D01*
X1848504D01*
Y1449685D01*
X1851654D01*
G37*
G74*
*
*
G04 PC Copper Outlines (30)*
G04 Layer Name RADXA_ROCK2_BASEBD-1503 - dark (30)*
%LPD*%
*
*
G04 PC Area=_PSI_PAC_SOT-23_001_0000143_M*
G75*
G36*
G01*
X1844173Y1449685D02*
Y1445354D01*
X1841024D01*
Y1449685D01*
X1844173D01*
G37*
G74*
*
*
G04 PC Copper Outlines (31)*
G04 Layer Name RADXA_ROCK2_BASEBD-1503 - dark (31)*
%LPD*%
*
*
G04 PC Area=_PSI_PAC_SOT-23_002_0000144_M*
G75*
G36*
G01*
X1847913Y1460315D02*
Y1455984D01*
X1844764D01*
Y1460315D01*
X1847913D01*
G37*
G74*
*
*
G04 PC Copper Outlines (32)*
G04 Layer Name RADXA_ROCK2_BASEBD-1503 - dark (32)*
%LPD*%
*
*
G04 PC Area=_PSI_PAC_SOT-23_000_0000142_M*
G75*
G36*
G01*
X1983028Y1705268D02*
Y1700937D01*
X1979878D01*
Y1705268D01*
X1983028D01*
G37*
G74*
*
*
G04 PC Copper Outlines (33)*
G04 Layer Name RADXA_ROCK2_BASEBD-1503 - dark (33)*
%LPD*%
*
*
G04 PC Area=_PSI_PAC_SOT-23_001_0000143_M*
G75*
G36*
G01*
X1975547Y1705268D02*
Y1700937D01*
X1972398D01*
Y1705268D01*
X1975547D01*
G37*
G74*
*
*
G04 PC Copper Outlines (34)*
G04 Layer Name RADXA_ROCK2_BASEBD-1503 - dark (34)*
%LPD*%
*
*
G04 PC Area=_PSI_PAC_SOT-23_002_0000144_M*
G75*
G36*
G01*
X1979287Y1715898D02*
Y1711567D01*
X1976138D01*
Y1715898D01*
X1979287D01*
G37*
G74*
*
*
G04 PC Copper Outlines (35)*
G04 Layer Name RADXA_ROCK2_BASEBD-1503 - dark (35)*
%LPD*%
*
*
G04 PC Area=_PSI_PAC_SOT-23_000_0000142_M*
G75*
G36*
G01*
X2002055Y1706146D02*
Y1701815D01*
X1998906D01*
Y1706146D01*
X2002055D01*
G37*
G74*
*
*
G04 PC Copper Outlines (36)*
G04 Layer Name RADXA_ROCK2_BASEBD-1503 - dark (36)*
%LPD*%
*
*
G04 PC Area=_PSI_PAC_SOT-23_001_0000143_M*
G75*
G36*
G01*
X1994575Y1706146D02*
Y1701815D01*
X1991425D01*
Y1706146D01*
X1994575D01*
G37*
G74*
*
*
G04 PC Copper Outlines (37)*
G04 Layer Name RADXA_ROCK2_BASEBD-1503 - dark (37)*
%LPD*%
*
*
G04 PC Area=_PSI_PAC_SOT-23_002_0000144_M*
G75*
G36*
G01*
X1998315Y1716776D02*
Y1712445D01*
X1995165D01*
Y1716776D01*
X1998315D01*
G37*
G74*
*
*
G04 PC Copper Outlines (38)*
G04 Layer Name RADXA_ROCK2_BASEBD-1503 - dark (38)*
%LPD*%
*
*
G04 PC Area=_PSI_PAC_SOT-23_000_0000142_P324000000M*
G75*
G36*
G01*
X2161945Y1466354D02*
Y1470685D01*
X2165094D01*
Y1466354D01*
X2161945D01*
G37*
G74*
*
*
G04 PC Copper Outlines (39)*
G04 Layer Name RADXA_ROCK2_BASEBD-1503 - dark (39)*
%LPD*%
*
*
G04 PC Area=_PSI_PAC_SOT-23_001_0000143_P324000000M*
G75*
G36*
G01*
X2169425Y1466354D02*
Y1470685D01*
X2172575D01*
Y1466354D01*
X2169425D01*
G37*
G74*
*
*
G04 PC Copper Outlines (40)*
G04 Layer Name RADXA_ROCK2_BASEBD-1503 - dark (40)*
%LPD*%
*
*
G04 PC Area=_PSI_PAC_SOT-23_002_0000144_P324000000M*
G75*
G36*
G01*
X2165685Y1455724D02*
Y1460055D01*
X2168835D01*
Y1455724D01*
X2165685D01*
G37*
G74*
*
*
G04 PC Copper Outlines (41)*
G04 Layer Name RADXA_ROCK2_BASEBD-1503 - dark (41)*
%LPD*%
*
*
G04 PC Area=_PSI_PAC_R1206_000_0000233_N162000000M*
G75*
G36*
G01*
X1961504Y1610891D02*
Y1605691D01*
X1955205D01*
Y1610891D01*
X1961504D01*
G37*
G74*
*
*
G04 PC Copper Outlines (42)*
G04 Layer Name RADXA_ROCK2_BASEBD-1503 - dark (42)*
%LPD*%
*
*
G04 PC Area=_PSI_PAC_R1206_001_0000234_N162000000M*
G75*
G36*
G01*
X1961504Y1599891D02*
Y1594691D01*
X1955205D01*
Y1599891D01*
X1961504D01*
G37*
G74*
*
*
G04 PC Copper Outlines (43)*
G04 Layer Name RADXA_ROCK2_BASEBD-1503 - dark (43)*
%LPD*%
*
*
G04 PC Area=_PSI_PAC_R1206_000_0000233_N162000000M*
G75*
G36*
G01*
X1969772Y1610891D02*
Y1605691D01*
X1963472D01*
Y1610891D01*
X1969772D01*
G37*
G74*
*
*
G04 PC Copper Outlines (44)*
G04 Layer Name RADXA_ROCK2_BASEBD-1503 - dark (44)*
%LPD*%
*
*
G04 PC Area=_PSI_PAC_R1206_001_0000234_N162000000M*
G75*
G36*
G01*
X1969772Y1599891D02*
Y1594691D01*
X1963472D01*
Y1599891D01*
X1969772D01*
G37*
G74*
*
*
G04 PC Copper Outlines (45)*
G04 Layer Name RADXA_ROCK2_BASEBD-1503 - dark (45)*
%LPD*%
*
*
G04 PC Area=_PSI_PAC_TSOP-6_000_0000332_M*
G75*
G36*
G01*
X1876280Y1660709D02*
Y1656378D01*
X1873917D01*
Y1660709D01*
X1876280D01*
G37*
G74*
*
*
G04 PC Copper Outlines (46)*
G04 Layer Name RADXA_ROCK2_BASEBD-1503 - dark (46)*
%LPD*%
*
*
G04 PC Area=_PSI_PAC_TSOP-6_001_0000333_M*
G75*
G36*
G01*
X1872539Y1660709D02*
Y1656378D01*
X1870177D01*
Y1660709D01*
X1872539D01*
G37*
G74*
*
*
G04 PC Copper Outlines (47)*
G04 Layer Name RADXA_ROCK2_BASEBD-1503 - dark (47)*
%LPD*%
*
*
G04 PC Area=_PSI_PAC_TSOP-6_002_0000334_M*
G75*
G36*
G01*
X1868799Y1660709D02*
Y1656378D01*
X1866437D01*
Y1660709D01*
X1868799D01*
G37*
G74*
*
*
G04 PC Copper Outlines (48)*
G04 Layer Name RADXA_ROCK2_BASEBD-1503 - dark (48)*
%LPD*%
*
*
G04 PC Area=_PSI_PAC_TSOP-6_003_0000335_M*
G75*
G36*
G01*
X1868799Y1671339D02*
Y1667008D01*
X1866437D01*
Y1671339D01*
X1868799D01*
G37*
G74*
*
*
G04 PC Copper Outlines (49)*
G04 Layer Name RADXA_ROCK2_BASEBD-1503 - dark (49)*
%LPD*%
*
*
G04 PC Area=_PSI_PAC_TSOP-6_004_0000336_M*
G75*
G36*
G01*
X1872539Y1671339D02*
Y1667008D01*
X1870177D01*
Y1671339D01*
X1872539D01*
G37*
G74*
*
*
G04 PC Copper Outlines (50)*
G04 Layer Name RADXA_ROCK2_BASEBD-1503 - dark (50)*
%LPD*%
*
*
G04 PC Area=_PSI_PAC_TSOP-6_005_0000337_M*
G75*
G36*
G01*
X1876280Y1671339D02*
Y1667008D01*
X1873917D01*
Y1671339D01*
X1876280D01*
G37*
G74*
*
*
G04 PC Copper Outlines (51)*
G04 Layer Name RADXA_ROCK2_BASEBD-1503 - dark (51)*
%LPD*%
*
*
G04 PC Area=_PSI_PAC_SOT-23_000_0000142_P324000000M*
G75*
G36*
G01*
X2021575Y1450906D02*
Y1455236D01*
X2024724D01*
Y1450906D01*
X2021575D01*
G37*
G74*
*
*
G04 PC Copper Outlines (52)*
G04 Layer Name RADXA_ROCK2_BASEBD-1503 - dark (52)*
%LPD*%
*
*
G04 PC Area=_PSI_PAC_SOT-23_001_0000143_P324000000M*
G75*
G36*
G01*
X2029055Y1450906D02*
Y1455236D01*
X2032205D01*
Y1450906D01*
X2029055D01*
G37*
G74*
*
*
G04 PC Copper Outlines (53)*
G04 Layer Name RADXA_ROCK2_BASEBD-1503 - dark (53)*
%LPD*%
*
*
G04 PC Area=_PSI_PAC_SOT-23_002_0000144_P324000000M*
G75*
G36*
G01*
X2025315Y1440276D02*
Y1444606D01*
X2028465D01*
Y1440276D01*
X2025315D01*
G37*
G74*
*
*
G04 PC Circuitry*
G04 Layer Name RADXA_ROCK2_BASEBD-1503 - circuitry*
%LPD*%
*
*
G04 PC Custom Flashes*
G04 Layer Name RADXA_ROCK2_BASEBD-1503 - flashes*
%LPD*%
*
*
G04 PC Circuitry*
G04 Layer Name RADXA_ROCK2_BASEBD-1503 - circuitry*
%LPD*%
*
G54D10*
G01X2134688Y1518419D02*
X2134687Y1520681D01*
X2133212*
X2133213Y1518419*
X2134688*
X2133213D02*
X2133213D01*
Y1518519D02*
X2134688D01*
X2133213Y1518619D02*
X2134688D01*
X2133213Y1518719D02*
X2134688D01*
X2133213Y1518819D02*
X2134688D01*
X2133213Y1518919D02*
X2134688D01*
X2133213Y1519019D02*
X2134688D01*
X2133213Y1519119D02*
X2134687D01*
X2133213Y1519219D02*
X2134687D01*
X2133213Y1519319D02*
X2134687D01*
X2133213Y1519419D02*
X2134687D01*
X2133213Y1519519D02*
X2134687D01*
X2133213Y1519619D02*
X2134687D01*
X2133213Y1519719D02*
X2134687D01*
X2133213Y1519819D02*
X2134687D01*
X2133213Y1519919D02*
X2134687D01*
X2133213Y1520019D02*
X2134687D01*
X2133212Y1520119D02*
X2134687D01*
X2133212Y1520219D02*
X2134687D01*
X2133212Y1520319D02*
X2134687D01*
X2133212Y1520419D02*
X2134687D01*
X2133212Y1520519D02*
X2134687D01*
X2133212Y1520619D02*
X2134687D01*
X2133300Y1518419D02*
Y1520681D01*
X2133400Y1518419D02*
Y1520681D01*
X2133500Y1518419D02*
Y1520681D01*
X2133600Y1518419D02*
Y1520681D01*
X2133700Y1518419D02*
Y1520681D01*
X2133800Y1518419D02*
Y1520681D01*
X2133900Y1518419D02*
Y1520681D01*
X2134000Y1518419D02*
Y1520681D01*
X2134100Y1518419D02*
Y1520681D01*
X2134200Y1518419D02*
Y1520681D01*
X2134300Y1518419D02*
Y1520681D01*
X2134400Y1518419D02*
Y1520681D01*
X2134500Y1518419D02*
Y1520681D01*
X2134600Y1518419D02*
Y1520681D01*
X2134694Y1522360D02*
X2134681Y1524622D01*
X2133206Y1524614*
X2133219Y1522352*
X2134694Y1522360*
X2133219Y1522352D02*
X2133219D01*
X2133218Y1522452D02*
X2134693D01*
X2133218Y1522552D02*
X2134693D01*
X2133217Y1522652D02*
X2134692D01*
X2133217Y1522752D02*
X2134691D01*
X2133216Y1522852D02*
X2134691D01*
X2133216Y1522952D02*
X2134690D01*
X2133215Y1523052D02*
X2134690D01*
X2133214Y1523152D02*
X2134689D01*
X2133214Y1523252D02*
X2134689D01*
X2133213Y1523352D02*
X2134688D01*
X2133213Y1523452D02*
X2134688D01*
X2133212Y1523552D02*
X2134687D01*
X2133212Y1523652D02*
X2134687D01*
X2133211Y1523752D02*
X2134686D01*
X2133211Y1523852D02*
X2134685D01*
X2133210Y1523952D02*
X2134685D01*
X2133209Y1524052D02*
X2134684D01*
X2133209Y1524152D02*
X2134684D01*
X2133208Y1524252D02*
X2134683D01*
X2133208Y1524352D02*
X2134683D01*
X2133207Y1524452D02*
X2134682D01*
X2133207Y1524552D02*
X2134682D01*
X2133300Y1522352D02*
Y1524615D01*
X2133400Y1522353D02*
Y1524615D01*
X2133500Y1522353D02*
Y1524616D01*
X2133600Y1522354D02*
Y1524616D01*
X2133700Y1522354D02*
Y1524617D01*
X2133800Y1522355D02*
Y1524617D01*
X2133900Y1522356D02*
Y1524618D01*
X2134000Y1522356D02*
Y1524618D01*
X2134100Y1522357D02*
Y1524619D01*
X2134200Y1522357D02*
Y1524620D01*
X2134300Y1522358D02*
Y1524620D01*
X2134400Y1522358D02*
Y1524621D01*
X2134500Y1522359D02*
Y1524621D01*
X2134600Y1522359D02*
Y1524622D01*
X2085312Y1740081D02*
X2085313Y1737819D01*
X2086788*
X2086787Y1740081*
X2085312*
X2085313Y1737900D02*
X2086788D01*
X2085313Y1738000D02*
X2086788D01*
X2085313Y1738100D02*
X2086788D01*
X2085313Y1738200D02*
X2086788D01*
X2085313Y1738300D02*
X2086788D01*
X2085313Y1738400D02*
X2086788D01*
X2085313Y1738500D02*
X2086787D01*
X2085313Y1738600D02*
X2086787D01*
X2085313Y1738700D02*
X2086787D01*
X2085313Y1738800D02*
X2086787D01*
X2085313Y1738900D02*
X2086787D01*
X2085313Y1739000D02*
X2086787D01*
X2085313Y1739100D02*
X2086787D01*
X2085313Y1739200D02*
X2086787D01*
X2085313Y1739300D02*
X2086787D01*
X2085313Y1739400D02*
X2086787D01*
X2085312Y1739500D02*
X2086787D01*
X2085312Y1739600D02*
X2086787D01*
X2085312Y1739700D02*
X2086787D01*
X2085312Y1739800D02*
X2086787D01*
X2085312Y1739900D02*
X2086787D01*
X2085312Y1740000D02*
X2086787D01*
X2085400Y1737819D02*
Y1740081D01*
X2085500Y1737819D02*
Y1740081D01*
X2085600Y1737819D02*
Y1740081D01*
X2085700Y1737819D02*
Y1740081D01*
X2085800Y1737819D02*
Y1740081D01*
X2085900Y1737819D02*
Y1740081D01*
X2086000Y1737819D02*
Y1740081D01*
X2086100Y1737819D02*
Y1740081D01*
X2086200Y1737819D02*
Y1740081D01*
X2086300Y1737819D02*
Y1740081D01*
X2086400Y1737819D02*
Y1740081D01*
X2086500Y1737819D02*
Y1740081D01*
X2086600Y1737819D02*
Y1740081D01*
X2086700Y1737819D02*
Y1740081D01*
X2085306Y1736140D02*
X2085319Y1733878D01*
X2086794Y1733886*
X2086781Y1736148*
X2085306Y1736140*
X2085319Y1733900D02*
X2086794D01*
X2085318Y1734000D02*
X2086793D01*
X2085318Y1734100D02*
X2086792D01*
X2085317Y1734200D02*
X2086792D01*
X2085316Y1734300D02*
X2086791D01*
X2085316Y1734400D02*
X2086791D01*
X2085315Y1734500D02*
X2086790D01*
X2085315Y1734600D02*
X2086790D01*
X2085314Y1734700D02*
X2086789D01*
X2085314Y1734800D02*
X2086789D01*
X2085313Y1734900D02*
X2086788D01*
X2085313Y1735000D02*
X2086787D01*
X2085312Y1735100D02*
X2086787D01*
X2085312Y1735200D02*
X2086786D01*
X2085311Y1735300D02*
X2086786D01*
X2085310Y1735400D02*
X2086785D01*
X2085310Y1735500D02*
X2086785D01*
X2085309Y1735600D02*
X2086784D01*
X2085309Y1735700D02*
X2086784D01*
X2085308Y1735800D02*
X2086783D01*
X2085308Y1735900D02*
X2086783D01*
X2085307Y1736000D02*
X2086782D01*
X2085307Y1736100D02*
X2086781D01*
X2085400Y1733878D02*
Y1736141D01*
X2085500Y1733879D02*
Y1736141D01*
X2085600Y1733879D02*
Y1736142D01*
X2085700Y1733880D02*
Y1736142D01*
X2085800Y1733880D02*
Y1736143D01*
X2085900Y1733881D02*
Y1736143D01*
X2086000Y1733882D02*
Y1736144D01*
X2086100Y1733882D02*
Y1736144D01*
X2086200Y1733883D02*
Y1736145D01*
X2086300Y1733883D02*
Y1736146D01*
X2086400Y1733884D02*
Y1736146D01*
X2086500Y1733884D02*
Y1736147D01*
X2086600Y1733885D02*
Y1736147D01*
X2086700Y1733885D02*
Y1736148D01*
X1954419Y1448312D02*
X1956681Y1448313D01*
Y1449788*
X1954419Y1449787*
Y1448312*
X1954419*
Y1448412D02*
X1956681D01*
X1954419Y1448512D02*
X1956681D01*
X1954419Y1448612D02*
X1956681D01*
X1954419Y1448712D02*
X1956681D01*
X1954419Y1448812D02*
X1956681D01*
X1954419Y1448912D02*
X1956681D01*
X1954419Y1449012D02*
X1956681D01*
X1954419Y1449112D02*
X1956681D01*
X1954419Y1449212D02*
X1956681D01*
X1954419Y1449312D02*
X1956681D01*
X1954419Y1449412D02*
X1956681D01*
X1954419Y1449512D02*
X1956681D01*
X1954419Y1449612D02*
X1956681D01*
X1954419Y1449712D02*
X1956681D01*
X1954419Y1449787D02*
X1954419D01*
X1954519Y1448312D02*
Y1449787D01*
X1954619Y1448312D02*
Y1449787D01*
X1954719Y1448312D02*
Y1449787D01*
X1954819Y1448312D02*
Y1449787D01*
X1954919Y1448312D02*
Y1449787D01*
X1955019Y1448312D02*
Y1449787D01*
X1955119Y1448313D02*
Y1449787D01*
X1955219Y1448313D02*
Y1449787D01*
X1955319Y1448313D02*
Y1449787D01*
X1955419Y1448313D02*
Y1449787D01*
X1955519Y1448313D02*
Y1449787D01*
X1955619Y1448313D02*
Y1449787D01*
X1955719Y1448313D02*
Y1449787D01*
X1955819Y1448313D02*
Y1449787D01*
X1955919Y1448313D02*
Y1449787D01*
X1956019Y1448313D02*
Y1449787D01*
X1956119Y1448313D02*
Y1449788D01*
X1956219Y1448313D02*
Y1449788D01*
X1956319Y1448313D02*
Y1449788D01*
X1956419Y1448313D02*
Y1449788D01*
X1956519Y1448313D02*
Y1449788D01*
X1956619Y1448313D02*
Y1449788D01*
X1958360Y1448306D02*
X1960622Y1448319D01*
X1960614Y1449794*
X1958352Y1449781*
X1958360Y1448306*
X1958360*
X1958359Y1448406D02*
X1960622D01*
X1958359Y1448506D02*
X1960621D01*
X1958358Y1448606D02*
X1960621D01*
X1958358Y1448706D02*
X1960620D01*
X1958357Y1448806D02*
X1960619D01*
X1958357Y1448906D02*
X1960619D01*
X1958356Y1449006D02*
X1960618D01*
X1958356Y1449106D02*
X1960618D01*
X1958355Y1449206D02*
X1960617D01*
X1958354Y1449306D02*
X1960617D01*
X1958354Y1449406D02*
X1960616D01*
X1958353Y1449506D02*
X1960616D01*
X1958353Y1449606D02*
X1960615D01*
X1958352Y1449706D02*
X1960615D01*
X1958352Y1449781D02*
X1958352D01*
X1958452Y1448307D02*
Y1449782D01*
X1958552Y1448307D02*
Y1449782D01*
X1958652Y1448308D02*
Y1449783D01*
X1958752Y1448309D02*
Y1449783D01*
X1958852Y1448309D02*
Y1449784D01*
X1958952Y1448310D02*
Y1449784D01*
X1959052Y1448310D02*
Y1449785D01*
X1959152Y1448311D02*
Y1449786D01*
X1959252Y1448311D02*
Y1449786D01*
X1959352Y1448312D02*
Y1449787D01*
X1959452Y1448312D02*
Y1449787D01*
X1959552Y1448313D02*
Y1449788D01*
X1959652Y1448313D02*
Y1449788D01*
X1959752Y1448314D02*
Y1449789D01*
X1959852Y1448315D02*
Y1449789D01*
X1959952Y1448315D02*
Y1449790D01*
X1960052Y1448316D02*
Y1449791D01*
X1960152Y1448316D02*
Y1449791D01*
X1960252Y1448317D02*
Y1449792D01*
X1960352Y1448317D02*
Y1449792D01*
X1960452Y1448318D02*
Y1449793D01*
X1960552Y1448318D02*
Y1449793D01*
X1969331Y1449688D02*
X1967069Y1449687D01*
Y1448212*
X1969331Y1448213*
Y1449688*
X1967069Y1448212D02*
X1967069D01*
Y1448312D02*
X1969331D01*
X1967069Y1448412D02*
X1969331D01*
X1967069Y1448512D02*
X1969331D01*
X1967069Y1448612D02*
X1969331D01*
X1967069Y1448712D02*
X1969331D01*
X1967069Y1448812D02*
X1969331D01*
X1967069Y1448912D02*
X1969331D01*
X1967069Y1449012D02*
X1969331D01*
X1967069Y1449112D02*
X1969331D01*
X1967069Y1449212D02*
X1969331D01*
X1967069Y1449312D02*
X1969331D01*
X1967069Y1449412D02*
X1969331D01*
X1967069Y1449512D02*
X1969331D01*
X1967069Y1449612D02*
X1969331D01*
X1967069Y1449687D02*
X1967069D01*
X1967169Y1448212D02*
Y1449687D01*
X1967269Y1448212D02*
Y1449687D01*
X1967369Y1448212D02*
Y1449687D01*
X1967469Y1448212D02*
Y1449687D01*
X1967569Y1448212D02*
Y1449687D01*
X1967669Y1448212D02*
Y1449687D01*
X1967769Y1448213D02*
Y1449687D01*
X1967869Y1448213D02*
Y1449687D01*
X1967969Y1448213D02*
Y1449687D01*
X1968069Y1448213D02*
Y1449687D01*
X1968169Y1448213D02*
Y1449687D01*
X1968269Y1448213D02*
Y1449687D01*
X1968369Y1448213D02*
Y1449687D01*
X1968469Y1448213D02*
Y1449687D01*
X1968569Y1448213D02*
Y1449687D01*
X1968669Y1448213D02*
Y1449687D01*
X1968769Y1448213D02*
Y1449688D01*
X1968869Y1448213D02*
Y1449688D01*
X1968969Y1448213D02*
Y1449688D01*
X1969069Y1448213D02*
Y1449688D01*
X1969169Y1448213D02*
Y1449688D01*
X1969269Y1448213D02*
Y1449688D01*
X1965390Y1449694D02*
X1963128Y1449681D01*
X1963136Y1448206*
X1965398Y1448219*
X1965390Y1449694*
X1963136Y1448206D02*
X1963136D01*
X1963135Y1448306D02*
X1965398D01*
X1963135Y1448406D02*
X1965397D01*
X1963134Y1448506D02*
X1965397D01*
X1963134Y1448606D02*
X1965396D01*
X1963133Y1448706D02*
X1965395D01*
X1963133Y1448806D02*
X1965395D01*
X1963132Y1448906D02*
X1965394D01*
X1963132Y1449006D02*
X1965394D01*
X1963131Y1449106D02*
X1965393D01*
X1963130Y1449206D02*
X1965393D01*
X1963130Y1449306D02*
X1965392D01*
X1963129Y1449406D02*
X1965392D01*
X1963129Y1449506D02*
X1965391D01*
X1963128Y1449606D02*
X1965391D01*
X1963128Y1449681D02*
X1963128D01*
X1963228Y1448207D02*
Y1449682D01*
X1963328Y1448207D02*
Y1449682D01*
X1963428Y1448208D02*
Y1449683D01*
X1963528Y1448209D02*
Y1449683D01*
X1963628Y1448209D02*
Y1449684D01*
X1963728Y1448210D02*
Y1449684D01*
X1963828Y1448210D02*
Y1449685D01*
X1963928Y1448211D02*
Y1449686D01*
X1964028Y1448211D02*
Y1449686D01*
X1964128Y1448212D02*
Y1449687D01*
X1964228Y1448212D02*
Y1449687D01*
X1964328Y1448213D02*
Y1449688D01*
X1964428Y1448213D02*
Y1449688D01*
X1964528Y1448214D02*
Y1449689D01*
X1964628Y1448215D02*
Y1449689D01*
X1964728Y1448215D02*
Y1449690D01*
X1964828Y1448216D02*
Y1449691D01*
X1964928Y1448216D02*
Y1449691D01*
X1965028Y1448217D02*
Y1449692D01*
X1965128Y1448217D02*
Y1449692D01*
X1965228Y1448218D02*
Y1449693D01*
X1965328Y1448218D02*
Y1449693D01*
X1971419Y1448312D02*
X1973681Y1448313D01*
Y1449788*
X1971419Y1449787*
Y1448312*
X1971419*
Y1448412D02*
X1973681D01*
X1971419Y1448512D02*
X1973681D01*
X1971419Y1448612D02*
X1973681D01*
X1971419Y1448712D02*
X1973681D01*
X1971419Y1448812D02*
X1973681D01*
X1971419Y1448912D02*
X1973681D01*
X1971419Y1449012D02*
X1973681D01*
X1971419Y1449112D02*
X1973681D01*
X1971419Y1449212D02*
X1973681D01*
X1971419Y1449312D02*
X1973681D01*
X1971419Y1449412D02*
X1973681D01*
X1971419Y1449512D02*
X1973681D01*
X1971419Y1449612D02*
X1973681D01*
X1971419Y1449712D02*
X1973681D01*
X1971419Y1449787D02*
X1971419D01*
X1971519Y1448312D02*
Y1449787D01*
X1971619Y1448312D02*
Y1449787D01*
X1971719Y1448312D02*
Y1449787D01*
X1971819Y1448312D02*
Y1449787D01*
X1971919Y1448312D02*
Y1449787D01*
X1972019Y1448312D02*
Y1449787D01*
X1972119Y1448313D02*
Y1449787D01*
X1972219Y1448313D02*
Y1449787D01*
X1972319Y1448313D02*
Y1449787D01*
X1972419Y1448313D02*
Y1449787D01*
X1972519Y1448313D02*
Y1449787D01*
X1972619Y1448313D02*
Y1449787D01*
X1972719Y1448313D02*
Y1449787D01*
X1972819Y1448313D02*
Y1449787D01*
X1972919Y1448313D02*
Y1449787D01*
X1973019Y1448313D02*
Y1449787D01*
X1973119Y1448313D02*
Y1449788D01*
X1973219Y1448313D02*
Y1449788D01*
X1973319Y1448313D02*
Y1449788D01*
X1973419Y1448313D02*
Y1449788D01*
X1973519Y1448313D02*
Y1449788D01*
X1973619Y1448313D02*
Y1449788D01*
X1975360Y1448306D02*
X1977622Y1448319D01*
X1977614Y1449794*
X1975352Y1449781*
X1975360Y1448306*
X1975360*
X1975359Y1448406D02*
X1977622D01*
X1975359Y1448506D02*
X1977621D01*
X1975358Y1448606D02*
X1977621D01*
X1975358Y1448706D02*
X1977620D01*
X1975357Y1448806D02*
X1977619D01*
X1975357Y1448906D02*
X1977619D01*
X1975356Y1449006D02*
X1977618D01*
X1975356Y1449106D02*
X1977618D01*
X1975355Y1449206D02*
X1977617D01*
X1975354Y1449306D02*
X1977617D01*
X1975354Y1449406D02*
X1977616D01*
X1975353Y1449506D02*
X1977616D01*
X1975353Y1449606D02*
X1977615D01*
X1975352Y1449706D02*
X1977615D01*
X1975352Y1449781D02*
X1975352D01*
X1975452Y1448307D02*
Y1449782D01*
X1975552Y1448307D02*
Y1449782D01*
X1975652Y1448308D02*
Y1449783D01*
X1975752Y1448309D02*
Y1449783D01*
X1975852Y1448309D02*
Y1449784D01*
X1975952Y1448310D02*
Y1449784D01*
X1976052Y1448310D02*
Y1449785D01*
X1976152Y1448311D02*
Y1449786D01*
X1976252Y1448311D02*
Y1449786D01*
X1976352Y1448312D02*
Y1449787D01*
X1976452Y1448312D02*
Y1449787D01*
X1976552Y1448313D02*
Y1449788D01*
X1976652Y1448313D02*
Y1449788D01*
X1976752Y1448314D02*
Y1449789D01*
X1976852Y1448315D02*
Y1449789D01*
X1976952Y1448315D02*
Y1449790D01*
X1977052Y1448316D02*
Y1449791D01*
X1977152Y1448316D02*
Y1449791D01*
X1977252Y1448317D02*
Y1449792D01*
X1977352Y1448317D02*
Y1449792D01*
X1977452Y1448318D02*
Y1449793D01*
X1977552Y1448318D02*
Y1449793D01*
X1879688Y1462919D02*
X1879687Y1465181D01*
X1878212*
X1878213Y1462919*
X1879688*
X1878213D02*
X1878213D01*
Y1463019D02*
X1879688D01*
X1878213Y1463119D02*
X1879688D01*
X1878213Y1463219D02*
X1879688D01*
X1878213Y1463319D02*
X1879688D01*
X1878213Y1463419D02*
X1879688D01*
X1878213Y1463519D02*
X1879688D01*
X1878213Y1463619D02*
X1879687D01*
X1878213Y1463719D02*
X1879687D01*
X1878213Y1463819D02*
X1879687D01*
X1878213Y1463919D02*
X1879687D01*
X1878213Y1464019D02*
X1879687D01*
X1878213Y1464119D02*
X1879687D01*
X1878213Y1464219D02*
X1879687D01*
X1878213Y1464319D02*
X1879687D01*
X1878213Y1464419D02*
X1879687D01*
X1878213Y1464519D02*
X1879687D01*
X1878212Y1464619D02*
X1879687D01*
X1878212Y1464719D02*
X1879687D01*
X1878212Y1464819D02*
X1879687D01*
X1878212Y1464919D02*
X1879687D01*
X1878212Y1465019D02*
X1879687D01*
X1878212Y1465119D02*
X1879687D01*
X1878212Y1465181D02*
X1878212D01*
X1878312Y1462919D02*
Y1465181D01*
X1878412Y1462919D02*
Y1465181D01*
X1878512Y1462919D02*
Y1465181D01*
X1878612Y1462919D02*
Y1465181D01*
X1878712Y1462919D02*
Y1465181D01*
X1878812Y1462919D02*
Y1465181D01*
X1878912Y1462919D02*
Y1465181D01*
X1879012Y1462919D02*
Y1465181D01*
X1879112Y1462919D02*
Y1465181D01*
X1879212Y1462919D02*
Y1465181D01*
X1879312Y1462919D02*
Y1465181D01*
X1879412Y1462919D02*
Y1465181D01*
X1879512Y1462919D02*
Y1465181D01*
X1879612Y1462919D02*
Y1465181D01*
X1879694Y1466860D02*
X1879681Y1469122D01*
X1878206Y1469114*
X1878219Y1466852*
X1879694Y1466860*
X1878219Y1466852D02*
X1878219D01*
X1878218Y1466952D02*
X1879693D01*
X1878218Y1467052D02*
X1879693D01*
X1878217Y1467152D02*
X1879692D01*
X1878217Y1467252D02*
X1879691D01*
X1878216Y1467352D02*
X1879691D01*
X1878216Y1467452D02*
X1879690D01*
X1878215Y1467552D02*
X1879690D01*
X1878214Y1467652D02*
X1879689D01*
X1878214Y1467752D02*
X1879689D01*
X1878213Y1467852D02*
X1879688D01*
X1878213Y1467952D02*
X1879688D01*
X1878212Y1468052D02*
X1879687D01*
X1878212Y1468152D02*
X1879687D01*
X1878211Y1468252D02*
X1879686D01*
X1878211Y1468352D02*
X1879685D01*
X1878210Y1468452D02*
X1879685D01*
X1878209Y1468552D02*
X1879684D01*
X1878209Y1468652D02*
X1879684D01*
X1878208Y1468752D02*
X1879683D01*
X1878208Y1468852D02*
X1879683D01*
X1878207Y1468952D02*
X1879682D01*
X1878207Y1469052D02*
X1879682D01*
X1878206Y1469114D02*
X1878206D01*
X1878306Y1466852D02*
Y1469115D01*
X1878406Y1466853D02*
Y1469115D01*
X1878506Y1466853D02*
Y1469116D01*
X1878606Y1466854D02*
Y1469116D01*
X1878706Y1466855D02*
Y1469117D01*
X1878806Y1466855D02*
Y1469117D01*
X1878906Y1466856D02*
Y1469118D01*
X1879006Y1466856D02*
Y1469118D01*
X1879106Y1466857D02*
Y1469119D01*
X1879206Y1466857D02*
Y1469120D01*
X1879306Y1466858D02*
Y1469120D01*
X1879406Y1466858D02*
Y1469121D01*
X1879506Y1466859D02*
Y1469121D01*
X1879606Y1466859D02*
Y1469122D01*
X1883688Y1462919D02*
X1883687Y1465181D01*
X1882212*
X1882213Y1462919*
X1883688*
X1882213D02*
X1882213D01*
Y1463019D02*
X1883688D01*
X1882213Y1463119D02*
X1883688D01*
X1882213Y1463219D02*
X1883688D01*
X1882213Y1463319D02*
X1883688D01*
X1882213Y1463419D02*
X1883688D01*
X1882213Y1463519D02*
X1883688D01*
X1882213Y1463619D02*
X1883687D01*
X1882213Y1463719D02*
X1883687D01*
X1882213Y1463819D02*
X1883687D01*
X1882213Y1463919D02*
X1883687D01*
X1882213Y1464019D02*
X1883687D01*
X1882213Y1464119D02*
X1883687D01*
X1882213Y1464219D02*
X1883687D01*
X1882213Y1464319D02*
X1883687D01*
X1882213Y1464419D02*
X1883687D01*
X1882213Y1464519D02*
X1883687D01*
X1882212Y1464619D02*
X1883687D01*
X1882212Y1464719D02*
X1883687D01*
X1882212Y1464819D02*
X1883687D01*
X1882212Y1464919D02*
X1883687D01*
X1882212Y1465019D02*
X1883687D01*
X1882212Y1465119D02*
X1883687D01*
X1882212Y1465181D02*
X1882212D01*
X1882312Y1462919D02*
Y1465181D01*
X1882412Y1462919D02*
Y1465181D01*
X1882512Y1462919D02*
Y1465181D01*
X1882612Y1462919D02*
Y1465181D01*
X1882712Y1462919D02*
Y1465181D01*
X1882812Y1462919D02*
Y1465181D01*
X1882912Y1462919D02*
Y1465181D01*
X1883012Y1462919D02*
Y1465181D01*
X1883112Y1462919D02*
Y1465181D01*
X1883212Y1462919D02*
Y1465181D01*
X1883312Y1462919D02*
Y1465181D01*
X1883412Y1462919D02*
Y1465181D01*
X1883512Y1462919D02*
Y1465181D01*
X1883612Y1462919D02*
Y1465181D01*
X1883694Y1466860D02*
X1883681Y1469122D01*
X1882206Y1469114*
X1882219Y1466852*
X1883694Y1466860*
X1882219Y1466852D02*
X1882219D01*
X1882218Y1466952D02*
X1883693D01*
X1882218Y1467052D02*
X1883693D01*
X1882217Y1467152D02*
X1883692D01*
X1882217Y1467252D02*
X1883691D01*
X1882216Y1467352D02*
X1883691D01*
X1882216Y1467452D02*
X1883690D01*
X1882215Y1467552D02*
X1883690D01*
X1882214Y1467652D02*
X1883689D01*
X1882214Y1467752D02*
X1883689D01*
X1882213Y1467852D02*
X1883688D01*
X1882213Y1467952D02*
X1883688D01*
X1882212Y1468052D02*
X1883687D01*
X1882212Y1468152D02*
X1883687D01*
X1882211Y1468252D02*
X1883686D01*
X1882211Y1468352D02*
X1883685D01*
X1882210Y1468452D02*
X1883685D01*
X1882209Y1468552D02*
X1883684D01*
X1882209Y1468652D02*
X1883684D01*
X1882208Y1468752D02*
X1883683D01*
X1882208Y1468852D02*
X1883683D01*
X1882207Y1468952D02*
X1883682D01*
X1882207Y1469052D02*
X1883682D01*
X1882206Y1469114D02*
X1882206D01*
X1882306Y1466852D02*
Y1469115D01*
X1882406Y1466853D02*
Y1469115D01*
X1882506Y1466853D02*
Y1469116D01*
X1882606Y1466854D02*
Y1469116D01*
X1882706Y1466855D02*
Y1469117D01*
X1882806Y1466855D02*
Y1469117D01*
X1882906Y1466856D02*
Y1469118D01*
X1883006Y1466856D02*
Y1469118D01*
X1883106Y1466857D02*
Y1469119D01*
X1883206Y1466857D02*
Y1469120D01*
X1883306Y1466858D02*
Y1469120D01*
X1883406Y1466858D02*
Y1469121D01*
X1883506Y1466859D02*
Y1469121D01*
X1883606Y1466859D02*
Y1469122D01*
X1891938Y1462919D02*
X1891937Y1465181D01*
X1890462*
X1890463Y1462919*
X1891938*
X1890463D02*
X1890463D01*
Y1463019D02*
X1891938D01*
X1890463Y1463119D02*
X1891938D01*
X1890463Y1463219D02*
X1891938D01*
X1890463Y1463319D02*
X1891938D01*
X1890463Y1463419D02*
X1891938D01*
X1890463Y1463519D02*
X1891938D01*
X1890463Y1463619D02*
X1891937D01*
X1890463Y1463719D02*
X1891937D01*
X1890463Y1463819D02*
X1891937D01*
X1890463Y1463919D02*
X1891937D01*
X1890463Y1464019D02*
X1891937D01*
X1890463Y1464119D02*
X1891937D01*
X1890463Y1464219D02*
X1891937D01*
X1890463Y1464319D02*
X1891937D01*
X1890463Y1464419D02*
X1891937D01*
X1890463Y1464519D02*
X1891937D01*
X1890462Y1464619D02*
X1891937D01*
X1890462Y1464719D02*
X1891937D01*
X1890462Y1464819D02*
X1891937D01*
X1890462Y1464919D02*
X1891937D01*
X1890462Y1465019D02*
X1891937D01*
X1890462Y1465119D02*
X1891937D01*
X1890462Y1465181D02*
X1890462D01*
X1890562Y1462919D02*
Y1465181D01*
X1890662Y1462919D02*
Y1465181D01*
X1890762Y1462919D02*
Y1465181D01*
X1890862Y1462919D02*
Y1465181D01*
X1890962Y1462919D02*
Y1465181D01*
X1891062Y1462919D02*
Y1465181D01*
X1891162Y1462919D02*
Y1465181D01*
X1891262Y1462919D02*
Y1465181D01*
X1891362Y1462919D02*
Y1465181D01*
X1891462Y1462919D02*
Y1465181D01*
X1891562Y1462919D02*
Y1465181D01*
X1891662Y1462919D02*
Y1465181D01*
X1891762Y1462919D02*
Y1465181D01*
X1891862Y1462919D02*
Y1465181D01*
X1891944Y1466860D02*
X1891931Y1469122D01*
X1890456Y1469114*
X1890469Y1466852*
X1891944Y1466860*
X1890469Y1466852D02*
X1890469D01*
X1890468Y1466952D02*
X1891943D01*
X1890468Y1467052D02*
X1891943D01*
X1890467Y1467152D02*
X1891942D01*
X1890467Y1467252D02*
X1891941D01*
X1890466Y1467352D02*
X1891941D01*
X1890466Y1467452D02*
X1891940D01*
X1890465Y1467552D02*
X1891940D01*
X1890464Y1467652D02*
X1891939D01*
X1890464Y1467752D02*
X1891939D01*
X1890463Y1467852D02*
X1891938D01*
X1890463Y1467952D02*
X1891938D01*
X1890462Y1468052D02*
X1891937D01*
X1890462Y1468152D02*
X1891937D01*
X1890461Y1468252D02*
X1891936D01*
X1890461Y1468352D02*
X1891935D01*
X1890460Y1468452D02*
X1891935D01*
X1890459Y1468552D02*
X1891934D01*
X1890459Y1468652D02*
X1891934D01*
X1890458Y1468752D02*
X1891933D01*
X1890458Y1468852D02*
X1891933D01*
X1890457Y1468952D02*
X1891932D01*
X1890457Y1469052D02*
X1891932D01*
X1890456Y1469114D02*
X1890456D01*
X1890556Y1466852D02*
Y1469115D01*
X1890656Y1466853D02*
Y1469115D01*
X1890756Y1466853D02*
Y1469116D01*
X1890856Y1466854D02*
Y1469116D01*
X1890956Y1466855D02*
Y1469117D01*
X1891056Y1466855D02*
Y1469117D01*
X1891156Y1466856D02*
Y1469118D01*
X1891256Y1466856D02*
Y1469118D01*
X1891356Y1466857D02*
Y1469119D01*
X1891456Y1466857D02*
Y1469120D01*
X1891556Y1466858D02*
Y1469120D01*
X1891656Y1466858D02*
Y1469121D01*
X1891756Y1466859D02*
Y1469121D01*
X1891856Y1466859D02*
Y1469122D01*
X1900438Y1462919D02*
X1900437Y1465181D01*
X1898962*
X1898963Y1462919*
X1900438*
X1898963D02*
X1898963D01*
Y1463019D02*
X1900438D01*
X1898963Y1463119D02*
X1900438D01*
X1898963Y1463219D02*
X1900438D01*
X1898963Y1463319D02*
X1900438D01*
X1898963Y1463419D02*
X1900438D01*
X1898963Y1463519D02*
X1900438D01*
X1898963Y1463619D02*
X1900437D01*
X1898963Y1463719D02*
X1900437D01*
X1898963Y1463819D02*
X1900437D01*
X1898963Y1463919D02*
X1900437D01*
X1898963Y1464019D02*
X1900437D01*
X1898963Y1464119D02*
X1900437D01*
X1898963Y1464219D02*
X1900437D01*
X1898963Y1464319D02*
X1900437D01*
X1898963Y1464419D02*
X1900437D01*
X1898963Y1464519D02*
X1900437D01*
X1898962Y1464619D02*
X1900437D01*
X1898962Y1464719D02*
X1900437D01*
X1898962Y1464819D02*
X1900437D01*
X1898962Y1464919D02*
X1900437D01*
X1898962Y1465019D02*
X1900437D01*
X1898962Y1465119D02*
X1900437D01*
X1898962Y1465181D02*
X1898962D01*
X1899062Y1462919D02*
Y1465181D01*
X1899162Y1462919D02*
Y1465181D01*
X1899262Y1462919D02*
Y1465181D01*
X1899362Y1462919D02*
Y1465181D01*
X1899462Y1462919D02*
Y1465181D01*
X1899562Y1462919D02*
Y1465181D01*
X1899662Y1462919D02*
Y1465181D01*
X1899762Y1462919D02*
Y1465181D01*
X1899862Y1462919D02*
Y1465181D01*
X1899962Y1462919D02*
Y1465181D01*
X1900062Y1462919D02*
Y1465181D01*
X1900162Y1462919D02*
Y1465181D01*
X1900262Y1462919D02*
Y1465181D01*
X1900362Y1462919D02*
Y1465181D01*
X1900444Y1466860D02*
X1900431Y1469122D01*
X1898956Y1469114*
X1898969Y1466852*
X1900444Y1466860*
X1898969Y1466852D02*
X1898969D01*
X1898968Y1466952D02*
X1900443D01*
X1898968Y1467052D02*
X1900443D01*
X1898967Y1467152D02*
X1900442D01*
X1898967Y1467252D02*
X1900441D01*
X1898966Y1467352D02*
X1900441D01*
X1898966Y1467452D02*
X1900440D01*
X1898965Y1467552D02*
X1900440D01*
X1898964Y1467652D02*
X1900439D01*
X1898964Y1467752D02*
X1900439D01*
X1898963Y1467852D02*
X1900438D01*
X1898963Y1467952D02*
X1900438D01*
X1898962Y1468052D02*
X1900437D01*
X1898962Y1468152D02*
X1900437D01*
X1898961Y1468252D02*
X1900436D01*
X1898961Y1468352D02*
X1900435D01*
X1898960Y1468452D02*
X1900435D01*
X1898959Y1468552D02*
X1900434D01*
X1898959Y1468652D02*
X1900434D01*
X1898958Y1468752D02*
X1900433D01*
X1898958Y1468852D02*
X1900433D01*
X1898957Y1468952D02*
X1900432D01*
X1898957Y1469052D02*
X1900432D01*
X1898956Y1469114D02*
X1898956D01*
X1899056Y1466852D02*
Y1469115D01*
X1899156Y1466853D02*
Y1469115D01*
X1899256Y1466853D02*
Y1469116D01*
X1899356Y1466854D02*
Y1469116D01*
X1899456Y1466855D02*
Y1469117D01*
X1899556Y1466855D02*
Y1469117D01*
X1899656Y1466856D02*
Y1469118D01*
X1899756Y1466856D02*
Y1469118D01*
X1899856Y1466857D02*
Y1469119D01*
X1899956Y1466857D02*
Y1469120D01*
X1900056Y1466858D02*
Y1469120D01*
X1900156Y1466858D02*
Y1469121D01*
X1900256Y1466859D02*
Y1469121D01*
X1900356Y1466859D02*
Y1469122D01*
X1904688Y1462919D02*
X1904687Y1465181D01*
X1903212*
X1903213Y1462919*
X1904688*
X1903213D02*
X1903213D01*
Y1463019D02*
X1904688D01*
X1903213Y1463119D02*
X1904688D01*
X1903213Y1463219D02*
X1904688D01*
X1903213Y1463319D02*
X1904688D01*
X1903213Y1463419D02*
X1904688D01*
X1903213Y1463519D02*
X1904688D01*
X1903213Y1463619D02*
X1904687D01*
X1903213Y1463719D02*
X1904687D01*
X1903213Y1463819D02*
X1904687D01*
X1903213Y1463919D02*
X1904687D01*
X1903213Y1464019D02*
X1904687D01*
X1903213Y1464119D02*
X1904687D01*
X1903213Y1464219D02*
X1904687D01*
X1903213Y1464319D02*
X1904687D01*
X1903213Y1464419D02*
X1904687D01*
X1903213Y1464519D02*
X1904687D01*
X1903212Y1464619D02*
X1904687D01*
X1903212Y1464719D02*
X1904687D01*
X1903212Y1464819D02*
X1904687D01*
X1903212Y1464919D02*
X1904687D01*
X1903212Y1465019D02*
X1904687D01*
X1903212Y1465119D02*
X1904687D01*
X1903212Y1465181D02*
X1903212D01*
X1903312Y1462919D02*
Y1465181D01*
X1903412Y1462919D02*
Y1465181D01*
X1903512Y1462919D02*
Y1465181D01*
X1903612Y1462919D02*
Y1465181D01*
X1903712Y1462919D02*
Y1465181D01*
X1903812Y1462919D02*
Y1465181D01*
X1903912Y1462919D02*
Y1465181D01*
X1904012Y1462919D02*
Y1465181D01*
X1904112Y1462919D02*
Y1465181D01*
X1904212Y1462919D02*
Y1465181D01*
X1904312Y1462919D02*
Y1465181D01*
X1904412Y1462919D02*
Y1465181D01*
X1904512Y1462919D02*
Y1465181D01*
X1904612Y1462919D02*
Y1465181D01*
X1904694Y1466860D02*
X1904681Y1469122D01*
X1903206Y1469114*
X1903219Y1466852*
X1904694Y1466860*
X1903219Y1466852D02*
X1903219D01*
X1903218Y1466952D02*
X1904693D01*
X1903218Y1467052D02*
X1904693D01*
X1903217Y1467152D02*
X1904692D01*
X1903217Y1467252D02*
X1904691D01*
X1903216Y1467352D02*
X1904691D01*
X1903216Y1467452D02*
X1904690D01*
X1903215Y1467552D02*
X1904690D01*
X1903214Y1467652D02*
X1904689D01*
X1903214Y1467752D02*
X1904689D01*
X1903213Y1467852D02*
X1904688D01*
X1903213Y1467952D02*
X1904688D01*
X1903212Y1468052D02*
X1904687D01*
X1903212Y1468152D02*
X1904687D01*
X1903211Y1468252D02*
X1904686D01*
X1903211Y1468352D02*
X1904685D01*
X1903210Y1468452D02*
X1904685D01*
X1903209Y1468552D02*
X1904684D01*
X1903209Y1468652D02*
X1904684D01*
X1903208Y1468752D02*
X1904683D01*
X1903208Y1468852D02*
X1904683D01*
X1903207Y1468952D02*
X1904682D01*
X1903207Y1469052D02*
X1904682D01*
X1903206Y1469114D02*
X1903206D01*
X1903306Y1466852D02*
Y1469115D01*
X1903406Y1466853D02*
Y1469115D01*
X1903506Y1466853D02*
Y1469116D01*
X1903606Y1466854D02*
Y1469116D01*
X1903706Y1466855D02*
Y1469117D01*
X1903806Y1466855D02*
Y1469117D01*
X1903906Y1466856D02*
Y1469118D01*
X1904006Y1466856D02*
Y1469118D01*
X1904106Y1466857D02*
Y1469119D01*
X1904206Y1466857D02*
Y1469120D01*
X1904306Y1466858D02*
Y1469120D01*
X1904406Y1466858D02*
Y1469121D01*
X1904506Y1466859D02*
Y1469121D01*
X1904606Y1466859D02*
Y1469122D01*
X1912938Y1462919D02*
X1912937Y1465181D01*
X1911462*
X1911463Y1462919*
X1912938*
X1911463D02*
X1911463D01*
Y1463019D02*
X1912938D01*
X1911463Y1463119D02*
X1912938D01*
X1911463Y1463219D02*
X1912938D01*
X1911463Y1463319D02*
X1912938D01*
X1911463Y1463419D02*
X1912938D01*
X1911463Y1463519D02*
X1912938D01*
X1911463Y1463619D02*
X1912937D01*
X1911463Y1463719D02*
X1912937D01*
X1911463Y1463819D02*
X1912937D01*
X1911463Y1463919D02*
X1912937D01*
X1911463Y1464019D02*
X1912937D01*
X1911463Y1464119D02*
X1912937D01*
X1911463Y1464219D02*
X1912937D01*
X1911463Y1464319D02*
X1912937D01*
X1911463Y1464419D02*
X1912937D01*
X1911463Y1464519D02*
X1912937D01*
X1911462Y1464619D02*
X1912937D01*
X1911462Y1464719D02*
X1912937D01*
X1911462Y1464819D02*
X1912937D01*
X1911462Y1464919D02*
X1912937D01*
X1911462Y1465019D02*
X1912937D01*
X1911462Y1465119D02*
X1912937D01*
X1911462Y1465181D02*
X1911462D01*
X1911562Y1462919D02*
Y1465181D01*
X1911662Y1462919D02*
Y1465181D01*
X1911762Y1462919D02*
Y1465181D01*
X1911862Y1462919D02*
Y1465181D01*
X1911962Y1462919D02*
Y1465181D01*
X1912062Y1462919D02*
Y1465181D01*
X1912162Y1462919D02*
Y1465181D01*
X1912262Y1462919D02*
Y1465181D01*
X1912362Y1462919D02*
Y1465181D01*
X1912462Y1462919D02*
Y1465181D01*
X1912562Y1462919D02*
Y1465181D01*
X1912662Y1462919D02*
Y1465181D01*
X1912762Y1462919D02*
Y1465181D01*
X1912862Y1462919D02*
Y1465181D01*
X1912944Y1466860D02*
X1912931Y1469122D01*
X1911456Y1469114*
X1911469Y1466852*
X1912944Y1466860*
X1911469Y1466852D02*
X1911469D01*
X1911468Y1466952D02*
X1912943D01*
X1911468Y1467052D02*
X1912943D01*
X1911467Y1467152D02*
X1912942D01*
X1911467Y1467252D02*
X1912941D01*
X1911466Y1467352D02*
X1912941D01*
X1911466Y1467452D02*
X1912940D01*
X1911465Y1467552D02*
X1912940D01*
X1911464Y1467652D02*
X1912939D01*
X1911464Y1467752D02*
X1912939D01*
X1911463Y1467852D02*
X1912938D01*
X1911463Y1467952D02*
X1912938D01*
X1911462Y1468052D02*
X1912937D01*
X1911462Y1468152D02*
X1912937D01*
X1911461Y1468252D02*
X1912936D01*
X1911461Y1468352D02*
X1912935D01*
X1911460Y1468452D02*
X1912935D01*
X1911459Y1468552D02*
X1912934D01*
X1911459Y1468652D02*
X1912934D01*
X1911458Y1468752D02*
X1912933D01*
X1911458Y1468852D02*
X1912933D01*
X1911457Y1468952D02*
X1912932D01*
X1911457Y1469052D02*
X1912932D01*
X1911456Y1469114D02*
X1911456D01*
X1911556Y1466852D02*
Y1469115D01*
X1911656Y1466853D02*
Y1469115D01*
X1911756Y1466853D02*
Y1469116D01*
X1911856Y1466854D02*
Y1469116D01*
X1911956Y1466855D02*
Y1469117D01*
X1912056Y1466855D02*
Y1469117D01*
X1912156Y1466856D02*
Y1469118D01*
X1912256Y1466856D02*
Y1469118D01*
X1912356Y1466857D02*
Y1469119D01*
X1912456Y1466857D02*
Y1469120D01*
X1912556Y1466858D02*
Y1469120D01*
X1912656Y1466858D02*
Y1469121D01*
X1912756Y1466859D02*
Y1469121D01*
X1912856Y1466859D02*
Y1469122D01*
X2134469Y1446384D02*
Y1448646D01*
X2132994*
Y1446383*
X2134469Y1446384*
X2132994Y1446383D02*
X2132994D01*
Y1446483D02*
X2134469D01*
X2132994Y1446583D02*
X2134469D01*
X2132994Y1446683D02*
X2134469D01*
X2132994Y1446783D02*
X2134469D01*
X2132994Y1446883D02*
X2134469D01*
X2132994Y1446983D02*
X2134469D01*
X2132994Y1447083D02*
X2134469D01*
X2132994Y1447183D02*
X2134469D01*
X2132994Y1447283D02*
X2134469D01*
X2132994Y1447383D02*
X2134469D01*
X2132994Y1447483D02*
X2134469D01*
X2132994Y1447583D02*
X2134469D01*
X2132994Y1447683D02*
X2134469D01*
X2132994Y1447783D02*
X2134469D01*
X2132994Y1447883D02*
X2134469D01*
X2132994Y1447983D02*
X2134469D01*
X2132994Y1448083D02*
X2134469D01*
X2132994Y1448183D02*
X2134469D01*
X2132994Y1448283D02*
X2134469D01*
X2132994Y1448383D02*
X2134469D01*
X2132994Y1448483D02*
X2134469D01*
X2132994Y1448583D02*
X2134469D01*
X2133000Y1446383D02*
Y1448646D01*
X2133100Y1446383D02*
Y1448646D01*
X2133200Y1446383D02*
Y1448646D01*
X2133300Y1446383D02*
Y1448646D01*
X2133400Y1446383D02*
Y1448646D01*
X2133500Y1446383D02*
Y1448646D01*
X2133600Y1446383D02*
Y1448646D01*
X2133700Y1446383D02*
Y1448646D01*
X2133800Y1446383D02*
Y1448646D01*
X2133900Y1446383D02*
Y1448646D01*
X2134000Y1446383D02*
Y1448646D01*
X2134100Y1446384D02*
Y1448646D01*
X2134200Y1446384D02*
Y1448646D01*
X2134300Y1446384D02*
Y1448646D01*
X2134400Y1446384D02*
Y1448646D01*
X2134475Y1450325D02*
X2134463Y1452587D01*
X2132988Y1452579*
X2133000Y1450316*
X2134475Y1450325*
X2133000Y1450316D02*
X2133000D01*
Y1450416D02*
X2134475D01*
X2132999Y1450516D02*
X2134474D01*
X2132999Y1450616D02*
X2134474D01*
X2132998Y1450716D02*
X2134473D01*
X2132998Y1450816D02*
X2134472D01*
X2132997Y1450916D02*
X2134472D01*
X2132996Y1451016D02*
X2134471D01*
X2132996Y1451116D02*
X2134471D01*
X2132995Y1451216D02*
X2134470D01*
X2132995Y1451316D02*
X2134470D01*
X2132994Y1451416D02*
X2134469D01*
X2132994Y1451516D02*
X2134469D01*
X2132993Y1451616D02*
X2134468D01*
X2132993Y1451716D02*
X2134467D01*
X2132992Y1451816D02*
X2134467D01*
X2132992Y1451916D02*
X2134466D01*
X2132991Y1452016D02*
X2134466D01*
X2132990Y1452116D02*
X2134465D01*
X2132990Y1452216D02*
X2134465D01*
X2132989Y1452316D02*
X2134464D01*
X2132989Y1452416D02*
X2134464D01*
X2132988Y1452516D02*
X2134463D01*
X2133000Y1450373D02*
Y1452579D01*
X2133100Y1450317D02*
Y1452579D01*
X2133200Y1450318D02*
Y1452580D01*
X2133300Y1450318D02*
Y1452580D01*
X2133400Y1450319D02*
Y1452581D01*
X2133500Y1450319D02*
Y1452581D01*
X2133600Y1450320D02*
Y1452582D01*
X2133700Y1450320D02*
Y1452583D01*
X2133800Y1450321D02*
Y1452583D01*
X2133900Y1450321D02*
Y1452584D01*
X2134000Y1450322D02*
Y1452584D01*
X2134100Y1450322D02*
Y1452585D01*
X2134200Y1450323D02*
Y1452585D01*
X2134300Y1450324D02*
Y1452586D01*
X2134400Y1450324D02*
Y1452586D01*
X1919688Y1462919D02*
X1919687Y1465181D01*
X1918212*
X1918213Y1462919*
X1919688*
X1918213D02*
X1918213D01*
Y1463019D02*
X1919688D01*
X1918213Y1463119D02*
X1919688D01*
X1918213Y1463219D02*
X1919688D01*
X1918213Y1463319D02*
X1919688D01*
X1918213Y1463419D02*
X1919688D01*
X1918213Y1463519D02*
X1919688D01*
X1918213Y1463619D02*
X1919687D01*
X1918213Y1463719D02*
X1919687D01*
X1918213Y1463819D02*
X1919687D01*
X1918213Y1463919D02*
X1919687D01*
X1918213Y1464019D02*
X1919687D01*
X1918213Y1464119D02*
X1919687D01*
X1918213Y1464219D02*
X1919687D01*
X1918213Y1464319D02*
X1919687D01*
X1918213Y1464419D02*
X1919687D01*
X1918213Y1464519D02*
X1919687D01*
X1918212Y1464619D02*
X1919687D01*
X1918212Y1464719D02*
X1919687D01*
X1918212Y1464819D02*
X1919687D01*
X1918212Y1464919D02*
X1919687D01*
X1918212Y1465019D02*
X1919687D01*
X1918212Y1465119D02*
X1919687D01*
X1918212Y1465181D02*
X1918212D01*
X1918312Y1462919D02*
Y1465181D01*
X1918412Y1462919D02*
Y1465181D01*
X1918512Y1462919D02*
Y1465181D01*
X1918612Y1462919D02*
Y1465181D01*
X1918712Y1462919D02*
Y1465181D01*
X1918812Y1462919D02*
Y1465181D01*
X1918912Y1462919D02*
Y1465181D01*
X1919012Y1462919D02*
Y1465181D01*
X1919112Y1462919D02*
Y1465181D01*
X1919212Y1462919D02*
Y1465181D01*
X1919312Y1462919D02*
Y1465181D01*
X1919412Y1462919D02*
Y1465181D01*
X1919512Y1462919D02*
Y1465181D01*
X1919612Y1462919D02*
Y1465181D01*
X1919694Y1466860D02*
X1919681Y1469122D01*
X1918206Y1469114*
X1918219Y1466852*
X1919694Y1466860*
X1918219Y1466852D02*
X1918219D01*
X1918218Y1466952D02*
X1919693D01*
X1918218Y1467052D02*
X1919693D01*
X1918217Y1467152D02*
X1919692D01*
X1918217Y1467252D02*
X1919691D01*
X1918216Y1467352D02*
X1919691D01*
X1918216Y1467452D02*
X1919690D01*
X1918215Y1467552D02*
X1919690D01*
X1918214Y1467652D02*
X1919689D01*
X1918214Y1467752D02*
X1919689D01*
X1918213Y1467852D02*
X1919688D01*
X1918213Y1467952D02*
X1919688D01*
X1918212Y1468052D02*
X1919687D01*
X1918212Y1468152D02*
X1919687D01*
X1918211Y1468252D02*
X1919686D01*
X1918211Y1468352D02*
X1919685D01*
X1918210Y1468452D02*
X1919685D01*
X1918209Y1468552D02*
X1919684D01*
X1918209Y1468652D02*
X1919684D01*
X1918208Y1468752D02*
X1919683D01*
X1918208Y1468852D02*
X1919683D01*
X1918207Y1468952D02*
X1919682D01*
X1918207Y1469052D02*
X1919682D01*
X1918206Y1469114D02*
X1918206D01*
X1918306Y1466852D02*
Y1469115D01*
X1918406Y1466853D02*
Y1469115D01*
X1918506Y1466853D02*
Y1469116D01*
X1918606Y1466854D02*
Y1469116D01*
X1918706Y1466855D02*
Y1469117D01*
X1918806Y1466855D02*
Y1469117D01*
X1918906Y1466856D02*
Y1469118D01*
X1919006Y1466856D02*
Y1469118D01*
X1919106Y1466857D02*
Y1469119D01*
X1919206Y1466857D02*
Y1469120D01*
X1919306Y1466858D02*
Y1469120D01*
X1919406Y1466858D02*
Y1469121D01*
X1919506Y1466859D02*
Y1469121D01*
X1919606Y1466859D02*
Y1469122D01*
X2179656Y1718798D02*
X2177394Y1718797D01*
Y1717323*
X2179656*
Y1718798*
X2177394Y1717400D02*
X2179656D01*
X2177394Y1717500D02*
X2179656D01*
X2177394Y1717600D02*
X2179656D01*
X2177394Y1717700D02*
X2179656D01*
X2177394Y1717800D02*
X2179656D01*
X2177394Y1717900D02*
X2179656D01*
X2177394Y1718000D02*
X2179656D01*
X2177394Y1718100D02*
X2179656D01*
X2177394Y1718200D02*
X2179656D01*
X2177394Y1718300D02*
X2179656D01*
X2177394Y1718400D02*
X2179656D01*
X2177394Y1718500D02*
X2179656D01*
X2177394Y1718600D02*
X2179656D01*
X2177394Y1718700D02*
X2179656D01*
X2177400Y1717323D02*
Y1718797D01*
X2177500Y1717323D02*
Y1718797D01*
X2177600Y1717323D02*
Y1718797D01*
X2177700Y1717323D02*
Y1718798D01*
X2177800Y1717323D02*
Y1718798D01*
X2177900Y1717323D02*
Y1718798D01*
X2178000Y1717323D02*
Y1718798D01*
X2178100Y1717323D02*
Y1718798D01*
X2178200Y1717323D02*
Y1718798D01*
X2178300Y1717323D02*
Y1718798D01*
X2178400Y1717323D02*
Y1718798D01*
X2178500Y1717323D02*
Y1718798D01*
X2178600Y1717323D02*
Y1718798D01*
X2178700Y1717323D02*
Y1718798D01*
X2178800Y1717323D02*
Y1718798D01*
X2178900Y1717323D02*
Y1718798D01*
X2179000Y1717323D02*
Y1718798D01*
X2179100Y1717323D02*
Y1718798D01*
X2179200Y1717323D02*
Y1718798D01*
X2179300Y1717323D02*
Y1718798D01*
X2179400Y1717323D02*
Y1718798D01*
X2179500Y1717323D02*
Y1718798D01*
X2179600Y1717323D02*
Y1718798D01*
X2175715Y1718804D02*
X2173453Y1718791D01*
X2173461Y1717317*
X2175723Y1717329*
X2175715Y1718804*
X2173460Y1717400D02*
X2175723D01*
X2173460Y1717500D02*
X2175722D01*
X2173459Y1717600D02*
X2175721D01*
X2173459Y1717700D02*
X2175721D01*
X2173458Y1717800D02*
X2175720D01*
X2173458Y1717900D02*
X2175720D01*
X2173457Y1718000D02*
X2175719D01*
X2173456Y1718100D02*
X2175719D01*
X2173456Y1718200D02*
X2175718D01*
X2173455Y1718300D02*
X2175718D01*
X2173455Y1718400D02*
X2175717D01*
X2173454Y1718500D02*
X2175717D01*
X2173454Y1718600D02*
X2175716D01*
X2173453Y1718700D02*
X2175715D01*
X2175013Y1718800D02*
X2175715D01*
X2173500Y1717317D02*
Y1718792D01*
X2173600Y1717317D02*
Y1718792D01*
X2173700Y1717318D02*
Y1718793D01*
X2173800Y1717318D02*
Y1718793D01*
X2173900Y1717319D02*
Y1718794D01*
X2174000Y1717320D02*
Y1718794D01*
X2174100Y1717320D02*
Y1718795D01*
X2174200Y1717321D02*
Y1718796D01*
X2174300Y1717321D02*
Y1718796D01*
X2174400Y1717322D02*
Y1718797D01*
X2174500Y1717322D02*
Y1718797D01*
X2174600Y1717323D02*
Y1718798D01*
X2174700Y1717323D02*
Y1718798D01*
X2174800Y1717324D02*
Y1718799D01*
X2174900Y1717325D02*
Y1718799D01*
X2175000Y1717325D02*
Y1718800D01*
X2175100Y1717326D02*
Y1718800D01*
X2175200Y1717326D02*
Y1718801D01*
X2175300Y1717327D02*
Y1718802D01*
X2175400Y1717327D02*
Y1718802D01*
X2175500Y1717328D02*
Y1718803D01*
X2175600Y1717328D02*
Y1718803D01*
X2175700Y1717329D02*
Y1718804D01*
X2130469Y1446384D02*
Y1448646D01*
X2128994*
Y1446383*
X2130469Y1446384*
X2128994Y1446383D02*
X2128994D01*
Y1446483D02*
X2130469D01*
X2128994Y1446583D02*
X2130469D01*
X2128994Y1446683D02*
X2130469D01*
X2128994Y1446783D02*
X2130469D01*
X2128994Y1446883D02*
X2130469D01*
X2128994Y1446983D02*
X2130469D01*
X2128994Y1447083D02*
X2130469D01*
X2128994Y1447183D02*
X2130469D01*
X2128994Y1447283D02*
X2130469D01*
X2128994Y1447383D02*
X2130469D01*
X2128994Y1447483D02*
X2130469D01*
X2128994Y1447583D02*
X2130469D01*
X2128994Y1447683D02*
X2130469D01*
X2128994Y1447783D02*
X2130469D01*
X2128994Y1447883D02*
X2130469D01*
X2128994Y1447983D02*
X2130469D01*
X2128994Y1448083D02*
X2130469D01*
X2128994Y1448183D02*
X2130469D01*
X2128994Y1448283D02*
X2130469D01*
X2128994Y1448383D02*
X2130469D01*
X2128994Y1448483D02*
X2130469D01*
X2128994Y1448583D02*
X2130469D01*
X2129000Y1446383D02*
Y1448646D01*
X2129100Y1446383D02*
Y1448646D01*
X2129200Y1446383D02*
Y1448646D01*
X2129300Y1446383D02*
Y1448646D01*
X2129400Y1446383D02*
Y1448646D01*
X2129500Y1446383D02*
Y1448646D01*
X2129600Y1446383D02*
Y1448646D01*
X2129700Y1446383D02*
Y1448646D01*
X2129800Y1446383D02*
Y1448646D01*
X2129900Y1446383D02*
Y1448646D01*
X2130000Y1446383D02*
Y1448646D01*
X2130100Y1446384D02*
Y1448646D01*
X2130200Y1446384D02*
Y1448646D01*
X2130300Y1446384D02*
Y1448646D01*
X2130400Y1446384D02*
Y1448646D01*
X2130475Y1450325D02*
X2130463Y1452587D01*
X2128988Y1452579*
X2129000Y1450316*
X2130475Y1450325*
X2129000Y1450316D02*
X2129000D01*
Y1450416D02*
X2130475D01*
X2128999Y1450516D02*
X2130474D01*
X2128999Y1450616D02*
X2130474D01*
X2128998Y1450716D02*
X2130473D01*
X2128998Y1450816D02*
X2130472D01*
X2128997Y1450916D02*
X2130472D01*
X2128996Y1451016D02*
X2130471D01*
X2128996Y1451116D02*
X2130471D01*
X2128995Y1451216D02*
X2130470D01*
X2128995Y1451316D02*
X2130470D01*
X2128994Y1451416D02*
X2130469D01*
X2128994Y1451516D02*
X2130469D01*
X2128993Y1451616D02*
X2130468D01*
X2128993Y1451716D02*
X2130467D01*
X2128992Y1451816D02*
X2130467D01*
X2128992Y1451916D02*
X2130466D01*
X2128991Y1452016D02*
X2130466D01*
X2128990Y1452116D02*
X2130465D01*
X2128990Y1452216D02*
X2130465D01*
X2128989Y1452316D02*
X2130464D01*
X2128989Y1452416D02*
X2130464D01*
X2128988Y1452516D02*
X2130463D01*
X2129000Y1450373D02*
Y1452579D01*
X2129100Y1450317D02*
Y1452579D01*
X2129200Y1450318D02*
Y1452580D01*
X2129300Y1450318D02*
Y1452580D01*
X2129400Y1450319D02*
Y1452581D01*
X2129500Y1450319D02*
Y1452581D01*
X2129600Y1450320D02*
Y1452582D01*
X2129700Y1450320D02*
Y1452583D01*
X2129800Y1450321D02*
Y1452583D01*
X2129900Y1450321D02*
Y1452584D01*
X2130000Y1450322D02*
Y1452584D01*
X2130100Y1450322D02*
Y1452585D01*
X2130200Y1450323D02*
Y1452585D01*
X2130300Y1450324D02*
Y1452586D01*
X2130400Y1450324D02*
Y1452586D01*
X2124719Y1446634D02*
Y1448896D01*
X2123244*
Y1446633*
X2124719Y1446634*
X2123244Y1446633D02*
X2123244D01*
Y1446733D02*
X2124719D01*
X2123244Y1446833D02*
X2124719D01*
X2123244Y1446933D02*
X2124719D01*
X2123244Y1447033D02*
X2124719D01*
X2123244Y1447133D02*
X2124719D01*
X2123244Y1447233D02*
X2124719D01*
X2123244Y1447333D02*
X2124719D01*
X2123244Y1447433D02*
X2124719D01*
X2123244Y1447533D02*
X2124719D01*
X2123244Y1447633D02*
X2124719D01*
X2123244Y1447733D02*
X2124719D01*
X2123244Y1447833D02*
X2124719D01*
X2123244Y1447933D02*
X2124719D01*
X2123244Y1448033D02*
X2124719D01*
X2123244Y1448133D02*
X2124719D01*
X2123244Y1448233D02*
X2124719D01*
X2123244Y1448333D02*
X2124719D01*
X2123244Y1448433D02*
X2124719D01*
X2123244Y1448533D02*
X2124719D01*
X2123244Y1448633D02*
X2124719D01*
X2123244Y1448733D02*
X2124719D01*
X2123244Y1448833D02*
X2124719D01*
X2123300Y1446633D02*
Y1448896D01*
X2123400Y1446633D02*
Y1448896D01*
X2123500Y1446633D02*
Y1448896D01*
X2123600Y1446633D02*
Y1448896D01*
X2123700Y1446633D02*
Y1448896D01*
X2123800Y1446633D02*
Y1448896D01*
X2123900Y1446633D02*
Y1448896D01*
X2124000Y1446633D02*
Y1448896D01*
X2124100Y1446633D02*
Y1448896D01*
X2124200Y1446633D02*
Y1448896D01*
X2124300Y1446634D02*
Y1448896D01*
X2124400Y1446634D02*
Y1448896D01*
X2124500Y1446634D02*
Y1448896D01*
X2124600Y1446634D02*
Y1448896D01*
X2124700Y1446634D02*
Y1448896D01*
X2124725Y1450575D02*
X2124713Y1452837D01*
X2123238Y1452829*
X2123250Y1450566*
X2124725Y1450575*
X2123250Y1450566D02*
X2123250D01*
Y1450666D02*
X2124725D01*
X2123249Y1450766D02*
X2124724D01*
X2123249Y1450866D02*
X2124724D01*
X2123248Y1450966D02*
X2124723D01*
X2123248Y1451066D02*
X2124722D01*
X2123247Y1451166D02*
X2124722D01*
X2123246Y1451266D02*
X2124721D01*
X2123246Y1451366D02*
X2124721D01*
X2123245Y1451466D02*
X2124720D01*
X2123245Y1451566D02*
X2124720D01*
X2123244Y1451666D02*
X2124719D01*
X2123244Y1451766D02*
X2124719D01*
X2123243Y1451866D02*
X2124718D01*
X2123243Y1451966D02*
X2124717D01*
X2123242Y1452066D02*
X2124717D01*
X2123242Y1452166D02*
X2124716D01*
X2123241Y1452266D02*
X2124716D01*
X2123240Y1452366D02*
X2124715D01*
X2123240Y1452466D02*
X2124715D01*
X2123239Y1452566D02*
X2124714D01*
X2123239Y1452666D02*
X2124714D01*
X2123238Y1452766D02*
X2124713D01*
X2123300Y1450567D02*
Y1452829D01*
X2123400Y1450567D02*
Y1452830D01*
X2123500Y1450568D02*
Y1452830D01*
X2123600Y1450568D02*
Y1452831D01*
X2123700Y1450569D02*
Y1452831D01*
X2123800Y1450569D02*
Y1452832D01*
X2123900Y1450570D02*
Y1452832D01*
X2124000Y1450571D02*
Y1452833D01*
X2124100Y1450571D02*
Y1452833D01*
X2124200Y1450572D02*
Y1452834D01*
X2124300Y1450572D02*
Y1452834D01*
X2124400Y1450573D02*
Y1452835D01*
X2124500Y1450573D02*
Y1452836D01*
X2124600Y1450574D02*
Y1452836D01*
X2124700Y1450574D02*
Y1452837D01*
X2105312Y1740081D02*
X2105313Y1737819D01*
X2106788*
X2106787Y1740081*
X2105312*
X2105313Y1737900D02*
X2106788D01*
X2105313Y1738000D02*
X2106788D01*
X2105313Y1738100D02*
X2106788D01*
X2105313Y1738200D02*
X2106788D01*
X2105313Y1738300D02*
X2106788D01*
X2105313Y1738400D02*
X2106788D01*
X2105313Y1738500D02*
X2106787D01*
X2105313Y1738600D02*
X2106787D01*
X2105313Y1738700D02*
X2106787D01*
X2105313Y1738800D02*
X2106787D01*
X2105313Y1738900D02*
X2106787D01*
X2105313Y1739000D02*
X2106787D01*
X2105313Y1739100D02*
X2106787D01*
X2105313Y1739200D02*
X2106787D01*
X2105313Y1739300D02*
X2106787D01*
X2105313Y1739400D02*
X2106787D01*
X2105312Y1739500D02*
X2106787D01*
X2105312Y1739600D02*
X2106787D01*
X2105312Y1739700D02*
X2106787D01*
X2105312Y1739800D02*
X2106787D01*
X2105312Y1739900D02*
X2106787D01*
X2105312Y1740000D02*
X2106787D01*
X2105400Y1737819D02*
Y1740081D01*
X2105500Y1737819D02*
Y1740081D01*
X2105600Y1737819D02*
Y1740081D01*
X2105700Y1737819D02*
Y1740081D01*
X2105800Y1737819D02*
Y1740081D01*
X2105900Y1737819D02*
Y1740081D01*
X2106000Y1737819D02*
Y1740081D01*
X2106100Y1737819D02*
Y1740081D01*
X2106200Y1737819D02*
Y1740081D01*
X2106300Y1737819D02*
Y1740081D01*
X2106400Y1737819D02*
Y1740081D01*
X2106500Y1737819D02*
Y1740081D01*
X2106600Y1737819D02*
Y1740081D01*
X2106700Y1737819D02*
Y1740081D01*
X2105306Y1736140D02*
X2105319Y1733878D01*
X2106794Y1733886*
X2106781Y1736148*
X2105306Y1736140*
X2105319Y1733900D02*
X2106794D01*
X2105318Y1734000D02*
X2106793D01*
X2105318Y1734100D02*
X2106792D01*
X2105317Y1734200D02*
X2106792D01*
X2105316Y1734300D02*
X2106791D01*
X2105316Y1734400D02*
X2106791D01*
X2105315Y1734500D02*
X2106790D01*
X2105315Y1734600D02*
X2106790D01*
X2105314Y1734700D02*
X2106789D01*
X2105314Y1734800D02*
X2106789D01*
X2105313Y1734900D02*
X2106788D01*
X2105313Y1735000D02*
X2106787D01*
X2105312Y1735100D02*
X2106787D01*
X2105312Y1735200D02*
X2106786D01*
X2105311Y1735300D02*
X2106786D01*
X2105310Y1735400D02*
X2106785D01*
X2105310Y1735500D02*
X2106785D01*
X2105309Y1735600D02*
X2106784D01*
X2105309Y1735700D02*
X2106784D01*
X2105308Y1735800D02*
X2106783D01*
X2105308Y1735900D02*
X2106783D01*
X2105307Y1736000D02*
X2106782D01*
X2105307Y1736100D02*
X2106781D01*
X2105400Y1733878D02*
Y1736141D01*
X2105500Y1733879D02*
Y1736141D01*
X2105600Y1733879D02*
Y1736142D01*
X2105700Y1733880D02*
Y1736142D01*
X2105800Y1733880D02*
Y1736143D01*
X2105900Y1733881D02*
Y1736143D01*
X2106000Y1733882D02*
Y1736144D01*
X2106100Y1733882D02*
Y1736144D01*
X2106200Y1733883D02*
Y1736145D01*
X2106300Y1733883D02*
Y1736146D01*
X2106400Y1733884D02*
Y1736146D01*
X2106500Y1733884D02*
Y1736147D01*
X2106600Y1733885D02*
Y1736147D01*
X2106700Y1733885D02*
Y1736148D01*
X2094785Y1740089D02*
Y1737827D01*
X2096260*
Y1740089*
X2094785*
Y1737900D02*
X2096260D01*
X2094785Y1738000D02*
X2096260D01*
X2094785Y1738100D02*
X2096260D01*
X2094785Y1738200D02*
X2096260D01*
X2094785Y1738300D02*
X2096260D01*
X2094785Y1738400D02*
X2096260D01*
X2094785Y1738500D02*
X2096260D01*
X2094785Y1738600D02*
X2096260D01*
X2094785Y1738700D02*
X2096260D01*
X2094785Y1738800D02*
X2096260D01*
X2094785Y1738900D02*
X2096260D01*
X2094785Y1739000D02*
X2096260D01*
X2094785Y1739100D02*
X2096260D01*
X2094785Y1739200D02*
X2096260D01*
X2094785Y1739300D02*
X2096260D01*
X2094785Y1739400D02*
X2096260D01*
X2094785Y1739500D02*
X2096260D01*
X2094785Y1739600D02*
X2096260D01*
X2094785Y1739700D02*
X2096260D01*
X2094785Y1739800D02*
X2096260D01*
X2094785Y1739900D02*
X2096260D01*
X2094785Y1740000D02*
X2096260D01*
X2094800Y1737827D02*
Y1740089D01*
X2094900Y1737827D02*
Y1740089D01*
X2095000Y1737827D02*
Y1740089D01*
X2095100Y1737827D02*
Y1740089D01*
X2095200Y1737827D02*
Y1740089D01*
X2095300Y1737827D02*
Y1740089D01*
X2095400Y1737827D02*
Y1740089D01*
X2095500Y1737827D02*
Y1740089D01*
X2095600Y1737827D02*
Y1740089D01*
X2095700Y1737827D02*
Y1740089D01*
X2095800Y1737827D02*
Y1740089D01*
X2095900Y1737827D02*
Y1740089D01*
X2096000Y1737827D02*
Y1740089D01*
X2096100Y1737827D02*
Y1740089D01*
X2096200Y1737827D02*
Y1740089D01*
X2094779Y1736148D02*
X2094791Y1733886D01*
X2096266Y1733894*
X2096254Y1736156*
X2094779Y1736148*
X2094791Y1733900D02*
X2096266D01*
X2094791Y1734000D02*
X2096265D01*
X2094790Y1734100D02*
X2096265D01*
X2094790Y1734200D02*
X2096264D01*
X2094789Y1734300D02*
X2096264D01*
X2094788Y1734400D02*
X2096263D01*
X2094788Y1734500D02*
X2096263D01*
X2094787Y1734600D02*
X2096262D01*
X2094787Y1734700D02*
X2096262D01*
X2094786Y1734800D02*
X2096261D01*
X2094786Y1734900D02*
X2096261D01*
X2094785Y1735000D02*
X2096260D01*
X2094785Y1735100D02*
X2096259D01*
X2094784Y1735200D02*
X2096259D01*
X2094783Y1735300D02*
X2096258D01*
X2094783Y1735400D02*
X2096258D01*
X2094782Y1735500D02*
X2096257D01*
X2094782Y1735600D02*
X2096257D01*
X2094781Y1735700D02*
X2096256D01*
X2094781Y1735800D02*
X2096256D01*
X2094780Y1735900D02*
X2096255D01*
X2094780Y1736000D02*
X2096254D01*
X2094779Y1736100D02*
X2096254D01*
X2094800Y1733886D02*
Y1736148D01*
X2094900Y1733886D02*
Y1736149D01*
X2095000Y1733887D02*
Y1736149D01*
X2095100Y1733887D02*
Y1736150D01*
X2095200Y1733888D02*
Y1736150D01*
X2095300Y1733889D02*
Y1736151D01*
X2095400Y1733889D02*
Y1736151D01*
X2095500Y1733890D02*
Y1736152D01*
X2095600Y1733890D02*
Y1736152D01*
X2095700Y1733891D02*
Y1736153D01*
X2095800Y1733891D02*
Y1736154D01*
X2095900Y1733892D02*
Y1736154D01*
X2096000Y1733892D02*
Y1736155D01*
X2096100Y1733893D02*
Y1736155D01*
X2096200Y1733893D02*
Y1736156D01*
X2089812Y1740081D02*
X2089813Y1737819D01*
X2091288*
X2091287Y1740081*
X2089812*
X2089813Y1737900D02*
X2091288D01*
X2089813Y1738000D02*
X2091288D01*
X2089813Y1738100D02*
X2091288D01*
X2089813Y1738200D02*
X2091288D01*
X2089813Y1738300D02*
X2091288D01*
X2089813Y1738400D02*
X2091288D01*
X2089813Y1738500D02*
X2091287D01*
X2089813Y1738600D02*
X2091287D01*
X2089813Y1738700D02*
X2091287D01*
X2089813Y1738800D02*
X2091287D01*
X2089813Y1738900D02*
X2091287D01*
X2089813Y1739000D02*
X2091287D01*
X2089813Y1739100D02*
X2091287D01*
X2089813Y1739200D02*
X2091287D01*
X2089813Y1739300D02*
X2091287D01*
X2089813Y1739400D02*
X2091287D01*
X2089812Y1739500D02*
X2091287D01*
X2089812Y1739600D02*
X2091287D01*
X2089812Y1739700D02*
X2091287D01*
X2089812Y1739800D02*
X2091287D01*
X2089812Y1739900D02*
X2091287D01*
X2089812Y1740000D02*
X2091287D01*
X2089900Y1737819D02*
Y1740081D01*
X2090000Y1737819D02*
Y1740081D01*
X2090100Y1737819D02*
Y1740081D01*
X2090200Y1737819D02*
Y1740081D01*
X2090300Y1737819D02*
Y1740081D01*
X2090400Y1737819D02*
Y1740081D01*
X2090500Y1737819D02*
Y1740081D01*
X2090600Y1737819D02*
Y1740081D01*
X2090700Y1737819D02*
Y1740081D01*
X2090800Y1737819D02*
Y1740081D01*
X2090900Y1737819D02*
Y1740081D01*
X2091000Y1737819D02*
Y1740081D01*
X2091100Y1737819D02*
Y1740081D01*
X2091200Y1737819D02*
Y1740081D01*
X2089806Y1736140D02*
X2089819Y1733878D01*
X2091294Y1733886*
X2091281Y1736148*
X2089806Y1736140*
X2089819Y1733900D02*
X2091294D01*
X2089818Y1734000D02*
X2091293D01*
X2089818Y1734100D02*
X2091292D01*
X2089817Y1734200D02*
X2091292D01*
X2089816Y1734300D02*
X2091291D01*
X2089816Y1734400D02*
X2091291D01*
X2089815Y1734500D02*
X2091290D01*
X2089815Y1734600D02*
X2091290D01*
X2089814Y1734700D02*
X2091289D01*
X2089814Y1734800D02*
X2091289D01*
X2089813Y1734900D02*
X2091288D01*
X2089813Y1735000D02*
X2091287D01*
X2089812Y1735100D02*
X2091287D01*
X2089812Y1735200D02*
X2091286D01*
X2089811Y1735300D02*
X2091286D01*
X2089810Y1735400D02*
X2091285D01*
X2089810Y1735500D02*
X2091285D01*
X2089809Y1735600D02*
X2091284D01*
X2089809Y1735700D02*
X2091284D01*
X2089808Y1735800D02*
X2091283D01*
X2089808Y1735900D02*
X2091283D01*
X2089807Y1736000D02*
X2091282D01*
X2089807Y1736100D02*
X2091281D01*
X2089900Y1733878D02*
Y1736141D01*
X2090000Y1733879D02*
Y1736141D01*
X2090100Y1733879D02*
Y1736142D01*
X2090200Y1733880D02*
Y1736142D01*
X2090300Y1733880D02*
Y1736143D01*
X2090400Y1733881D02*
Y1736143D01*
X2090500Y1733882D02*
Y1736144D01*
X2090600Y1733882D02*
Y1736144D01*
X2090700Y1733883D02*
Y1736145D01*
X2090800Y1733883D02*
Y1736146D01*
X2090900Y1733884D02*
Y1736146D01*
X2091000Y1733884D02*
Y1736147D01*
X2091100Y1733885D02*
Y1736147D01*
X2091200Y1733885D02*
Y1736148D01*
X2100812Y1740081D02*
X2100813Y1737819D01*
X2102288*
X2102287Y1740081*
X2100812*
X2100813Y1737900D02*
X2102288D01*
X2100813Y1738000D02*
X2102288D01*
X2100813Y1738100D02*
X2102288D01*
X2100813Y1738200D02*
X2102288D01*
X2100813Y1738300D02*
X2102288D01*
X2100813Y1738400D02*
X2102288D01*
X2100813Y1738500D02*
X2102287D01*
X2100813Y1738600D02*
X2102287D01*
X2100813Y1738700D02*
X2102287D01*
X2100813Y1738800D02*
X2102287D01*
X2100813Y1738900D02*
X2102287D01*
X2100813Y1739000D02*
X2102287D01*
X2100813Y1739100D02*
X2102287D01*
X2100813Y1739200D02*
X2102287D01*
X2100813Y1739300D02*
X2102287D01*
X2100813Y1739400D02*
X2102287D01*
X2100812Y1739500D02*
X2102287D01*
X2100812Y1739600D02*
X2102287D01*
X2100812Y1739700D02*
X2102287D01*
X2100812Y1739800D02*
X2102287D01*
X2100812Y1739900D02*
X2102287D01*
X2100812Y1740000D02*
X2102287D01*
X2100900Y1737819D02*
Y1740081D01*
X2101000Y1737819D02*
Y1740081D01*
X2101100Y1737819D02*
Y1740081D01*
X2101200Y1737819D02*
Y1740081D01*
X2101300Y1737819D02*
Y1740081D01*
X2101400Y1737819D02*
Y1740081D01*
X2101500Y1737819D02*
Y1740081D01*
X2101600Y1737819D02*
Y1740081D01*
X2101700Y1737819D02*
Y1740081D01*
X2101800Y1737819D02*
Y1740081D01*
X2101900Y1737819D02*
Y1740081D01*
X2102000Y1737819D02*
Y1740081D01*
X2102100Y1737819D02*
Y1740081D01*
X2102200Y1737819D02*
Y1740081D01*
X2100806Y1736140D02*
X2100819Y1733878D01*
X2102294Y1733886*
X2102281Y1736148*
X2100806Y1736140*
X2100819Y1733900D02*
X2102294D01*
X2100818Y1734000D02*
X2102293D01*
X2100818Y1734100D02*
X2102292D01*
X2100817Y1734200D02*
X2102292D01*
X2100816Y1734300D02*
X2102291D01*
X2100816Y1734400D02*
X2102291D01*
X2100815Y1734500D02*
X2102290D01*
X2100815Y1734600D02*
X2102290D01*
X2100814Y1734700D02*
X2102289D01*
X2100814Y1734800D02*
X2102289D01*
X2100813Y1734900D02*
X2102288D01*
X2100813Y1735000D02*
X2102287D01*
X2100812Y1735100D02*
X2102287D01*
X2100812Y1735200D02*
X2102286D01*
X2100811Y1735300D02*
X2102286D01*
X2100810Y1735400D02*
X2102285D01*
X2100810Y1735500D02*
X2102285D01*
X2100809Y1735600D02*
X2102284D01*
X2100809Y1735700D02*
X2102284D01*
X2100808Y1735800D02*
X2102283D01*
X2100808Y1735900D02*
X2102283D01*
X2100807Y1736000D02*
X2102282D01*
X2100807Y1736100D02*
X2102281D01*
X2100900Y1733878D02*
Y1736141D01*
X2101000Y1733879D02*
Y1736141D01*
X2101100Y1733879D02*
Y1736142D01*
X2101200Y1733880D02*
Y1736142D01*
X2101300Y1733880D02*
Y1736143D01*
X2101400Y1733881D02*
Y1736143D01*
X2101500Y1733882D02*
Y1736144D01*
X2101600Y1733882D02*
Y1736144D01*
X2101700Y1733883D02*
Y1736145D01*
X2101800Y1733883D02*
Y1736146D01*
X2101900Y1733884D02*
Y1736146D01*
X2102000Y1733884D02*
Y1736147D01*
X2102100Y1733885D02*
Y1736147D01*
X2102200Y1733885D02*
Y1736148D01*
X2080218Y1740089D02*
Y1737827D01*
X2081693*
Y1740089*
X2080218*
Y1737900D02*
X2081693D01*
X2080218Y1738000D02*
X2081693D01*
X2080218Y1738100D02*
X2081693D01*
X2080218Y1738200D02*
X2081693D01*
X2080218Y1738300D02*
X2081693D01*
X2080218Y1738400D02*
X2081693D01*
X2080218Y1738500D02*
X2081693D01*
X2080218Y1738600D02*
X2081693D01*
X2080218Y1738700D02*
X2081693D01*
X2080218Y1738800D02*
X2081693D01*
X2080218Y1738900D02*
X2081693D01*
X2080218Y1739000D02*
X2081693D01*
X2080218Y1739100D02*
X2081693D01*
X2080218Y1739200D02*
X2081693D01*
X2080218Y1739300D02*
X2081693D01*
X2080218Y1739400D02*
X2081693D01*
X2080218Y1739500D02*
X2081693D01*
X2080218Y1739600D02*
X2081693D01*
X2080218Y1739700D02*
X2081693D01*
X2080218Y1739800D02*
X2081693D01*
X2080218Y1739900D02*
X2081693D01*
X2080218Y1740000D02*
X2081693D01*
X2080300Y1737827D02*
Y1740089D01*
X2080400Y1737827D02*
Y1740089D01*
X2080500Y1737827D02*
Y1740089D01*
X2080600Y1737827D02*
Y1740089D01*
X2080700Y1737827D02*
Y1740089D01*
X2080800Y1737827D02*
Y1740089D01*
X2080900Y1737827D02*
Y1740089D01*
X2081000Y1737827D02*
Y1740089D01*
X2081100Y1737827D02*
Y1740089D01*
X2081200Y1737827D02*
Y1740089D01*
X2081300Y1737827D02*
Y1740089D01*
X2081400Y1737827D02*
Y1740089D01*
X2081500Y1737827D02*
Y1740089D01*
X2081600Y1737827D02*
Y1740089D01*
X2080212Y1736148D02*
X2080224Y1733886D01*
X2081699Y1733894*
X2081687Y1736156*
X2080212Y1736148*
X2080224Y1733900D02*
X2081699D01*
X2080224Y1734000D02*
X2081699D01*
X2080223Y1734100D02*
X2081698D01*
X2080223Y1734200D02*
X2081697D01*
X2080222Y1734300D02*
X2081697D01*
X2080221Y1734400D02*
X2081696D01*
X2080221Y1734500D02*
X2081696D01*
X2080220Y1734600D02*
X2081695D01*
X2080220Y1734700D02*
X2081695D01*
X2080219Y1734800D02*
X2081694D01*
X2080219Y1734900D02*
X2081694D01*
X2080218Y1735000D02*
X2081693D01*
X2080218Y1735100D02*
X2081693D01*
X2080217Y1735200D02*
X2081692D01*
X2080217Y1735300D02*
X2081691D01*
X2080216Y1735400D02*
X2081691D01*
X2080215Y1735500D02*
X2081690D01*
X2080215Y1735600D02*
X2081690D01*
X2080214Y1735700D02*
X2081689D01*
X2080214Y1735800D02*
X2081689D01*
X2080213Y1735900D02*
X2081688D01*
X2080213Y1736000D02*
X2081688D01*
X2080212Y1736100D02*
X2081687D01*
X2080300Y1733886D02*
Y1736148D01*
X2080400Y1733887D02*
Y1736149D01*
X2080500Y1733887D02*
Y1736150D01*
X2080600Y1733888D02*
Y1736150D01*
X2080700Y1733888D02*
Y1736151D01*
X2080800Y1733889D02*
Y1736151D01*
X2080900Y1733889D02*
Y1736152D01*
X2081000Y1733890D02*
Y1736152D01*
X2081100Y1733891D02*
Y1736153D01*
X2081200Y1733891D02*
Y1736153D01*
X2081300Y1733892D02*
Y1736154D01*
X2081400Y1733892D02*
Y1736154D01*
X2081500Y1733893D02*
Y1736155D01*
X2081600Y1733893D02*
Y1736156D01*
X2143029Y1802238D02*
X2143015Y1794070D01*
X2148427Y1794061*
X2148441Y1802229*
X2143029Y1802238*
X2143016Y1794100D02*
X2148427D01*
X2143016Y1794200D02*
X2148428D01*
X2143016Y1794300D02*
X2148428D01*
X2143016Y1794400D02*
X2148428D01*
X2143016Y1794500D02*
X2148428D01*
X2143016Y1794600D02*
X2148428D01*
X2143017Y1794700D02*
X2148428D01*
X2143017Y1794800D02*
X2148429D01*
X2143017Y1794900D02*
X2148429D01*
X2143017Y1795000D02*
X2148429D01*
X2143017Y1795100D02*
X2148429D01*
X2143017Y1795200D02*
X2148429D01*
X2143018Y1795300D02*
X2148429D01*
X2143018Y1795400D02*
X2148430D01*
X2143018Y1795500D02*
X2148430D01*
X2143018Y1795600D02*
X2148430D01*
X2143018Y1795700D02*
X2148430D01*
X2143018Y1795800D02*
X2148430D01*
X2143019Y1795900D02*
X2148430D01*
X2143019Y1796000D02*
X2148431D01*
X2143019Y1796100D02*
X2148431D01*
X2143019Y1796200D02*
X2148431D01*
X2143019Y1796300D02*
X2148431D01*
X2143019Y1796400D02*
X2148431D01*
X2143020Y1796500D02*
X2148431D01*
X2143020Y1796600D02*
X2148432D01*
X2143020Y1796700D02*
X2148432D01*
X2143020Y1796800D02*
X2148432D01*
X2143020Y1796900D02*
X2148432D01*
X2143020Y1797000D02*
X2148432D01*
X2143021Y1797100D02*
X2148432D01*
X2143021Y1797200D02*
X2148433D01*
X2143021Y1797300D02*
X2148433D01*
X2143021Y1797400D02*
X2148433D01*
X2143021Y1797500D02*
X2148433D01*
X2143021Y1797600D02*
X2148433D01*
X2143022Y1797700D02*
X2148433D01*
X2143022Y1797800D02*
X2148434D01*
X2143022Y1797900D02*
X2148434D01*
X2143022Y1798000D02*
X2148434D01*
X2143022Y1798100D02*
X2148434D01*
X2143023Y1798200D02*
X2148434D01*
X2143023Y1798300D02*
X2148435D01*
X2143023Y1798400D02*
X2148435D01*
X2143023Y1798500D02*
X2148435D01*
X2143023Y1798600D02*
X2148435D01*
X2143023Y1798700D02*
X2148435D01*
X2143024Y1798800D02*
X2148435D01*
X2143024Y1798900D02*
X2148436D01*
X2143024Y1799000D02*
X2148436D01*
X2143024Y1799100D02*
X2148436D01*
X2143024Y1799200D02*
X2148436D01*
X2143024Y1799300D02*
X2148436D01*
X2143025Y1799400D02*
X2148436D01*
X2143025Y1799500D02*
X2148437D01*
X2143025Y1799600D02*
X2148437D01*
X2143025Y1799700D02*
X2148437D01*
X2143025Y1799800D02*
X2148437D01*
X2143025Y1799900D02*
X2148437D01*
X2143026Y1800000D02*
X2148437D01*
X2143026Y1800100D02*
X2148438D01*
X2143026Y1800200D02*
X2148438D01*
X2143026Y1800300D02*
X2148438D01*
X2143026Y1800400D02*
X2148438D01*
X2143026Y1800500D02*
X2148438D01*
X2143027Y1800600D02*
X2148438D01*
X2143027Y1800700D02*
X2148439D01*
X2143027Y1800800D02*
X2148439D01*
X2143027Y1800900D02*
X2148439D01*
X2143027Y1801000D02*
X2148439D01*
X2143027Y1801100D02*
X2148439D01*
X2143028Y1801200D02*
X2148439D01*
X2143028Y1801300D02*
X2148440D01*
X2143028Y1801400D02*
X2148440D01*
X2143028Y1801500D02*
X2148440D01*
X2143028Y1801600D02*
X2148440D01*
X2143029Y1801700D02*
X2148440D01*
X2143029Y1801800D02*
X2148440D01*
X2143029Y1801900D02*
X2148441D01*
X2143029Y1802000D02*
X2148441D01*
X2143029Y1802100D02*
X2148441D01*
X2143029Y1802200D02*
X2148441D01*
X2143100Y1794070D02*
Y1802238D01*
X2143200Y1794070D02*
Y1802238D01*
X2143300Y1794070D02*
Y1802238D01*
X2143400Y1794070D02*
Y1802237D01*
X2143500Y1794070D02*
Y1802237D01*
X2143600Y1794069D02*
Y1802237D01*
X2143700Y1794069D02*
Y1802237D01*
X2143800Y1794069D02*
Y1802237D01*
X2143900Y1794069D02*
Y1802237D01*
X2144000Y1794069D02*
Y1802236D01*
X2144100Y1794069D02*
Y1802236D01*
X2144200Y1794068D02*
Y1802236D01*
X2144300Y1794068D02*
Y1802236D01*
X2144400Y1794068D02*
Y1802236D01*
X2144500Y1794068D02*
Y1802236D01*
X2144600Y1794068D02*
Y1802235D01*
X2144700Y1794067D02*
Y1802235D01*
X2144800Y1794067D02*
Y1802235D01*
X2144900Y1794067D02*
Y1802235D01*
X2145000Y1794067D02*
Y1802235D01*
X2145100Y1794067D02*
Y1802235D01*
X2145200Y1794067D02*
Y1802234D01*
X2145300Y1794066D02*
Y1802234D01*
X2145400Y1794066D02*
Y1802234D01*
X2145500Y1794066D02*
Y1802234D01*
X2145600Y1794066D02*
Y1802234D01*
X2145700Y1794066D02*
Y1802234D01*
X2145800Y1794066D02*
Y1802233D01*
X2145900Y1794065D02*
Y1802233D01*
X2146000Y1794065D02*
Y1802233D01*
X2146100Y1794065D02*
Y1802233D01*
X2146200Y1794065D02*
Y1802233D01*
X2146300Y1794065D02*
Y1802232D01*
X2146400Y1794065D02*
Y1802232D01*
X2146500Y1794064D02*
Y1802232D01*
X2146600Y1794064D02*
Y1802232D01*
X2146700Y1794064D02*
Y1802232D01*
X2146800Y1794064D02*
Y1802232D01*
X2146900Y1794064D02*
Y1802231D01*
X2147000Y1794064D02*
Y1802231D01*
X2147100Y1794063D02*
Y1802231D01*
X2147200Y1794063D02*
Y1802231D01*
X2147300Y1794063D02*
Y1802231D01*
X2147400Y1794063D02*
Y1802231D01*
X2147500Y1794063D02*
Y1802230D01*
X2147600Y1794063D02*
Y1802230D01*
X2147700Y1794062D02*
Y1802230D01*
X2147800Y1794062D02*
Y1802230D01*
X2147900Y1794062D02*
Y1802230D01*
X2148000Y1794062D02*
Y1802230D01*
X2148100Y1794062D02*
Y1802229D01*
X2148200Y1794062D02*
Y1802229D01*
X2148300Y1794061D02*
Y1802229D01*
X2148400Y1794061D02*
Y1802229D01*
X2174525Y1802238D02*
X2174512Y1794070D01*
X2179923Y1794061*
X2179937Y1802229*
X2174525Y1802238*
X2174512Y1794100D02*
X2179923D01*
X2174512Y1794200D02*
X2179924D01*
X2174512Y1794300D02*
X2179924D01*
X2174512Y1794400D02*
X2179924D01*
X2174512Y1794500D02*
X2179924D01*
X2174512Y1794600D02*
X2179924D01*
X2174513Y1794700D02*
X2179924D01*
X2174513Y1794800D02*
X2179925D01*
X2174513Y1794900D02*
X2179925D01*
X2174513Y1795000D02*
X2179925D01*
X2174513Y1795100D02*
X2179925D01*
X2174513Y1795200D02*
X2179925D01*
X2174514Y1795300D02*
X2179925D01*
X2174514Y1795400D02*
X2179926D01*
X2174514Y1795500D02*
X2179926D01*
X2174514Y1795600D02*
X2179926D01*
X2174514Y1795700D02*
X2179926D01*
X2174514Y1795800D02*
X2179926D01*
X2174515Y1795900D02*
X2179926D01*
X2174515Y1796000D02*
X2179927D01*
X2174515Y1796100D02*
X2179927D01*
X2174515Y1796200D02*
X2179927D01*
X2174515Y1796300D02*
X2179927D01*
X2174515Y1796400D02*
X2179927D01*
X2174516Y1796500D02*
X2179927D01*
X2174516Y1796600D02*
X2179928D01*
X2174516Y1796700D02*
X2179928D01*
X2174516Y1796800D02*
X2179928D01*
X2174516Y1796900D02*
X2179928D01*
X2174517Y1797000D02*
X2179928D01*
X2174517Y1797100D02*
X2179929D01*
X2174517Y1797200D02*
X2179929D01*
X2174517Y1797300D02*
X2179929D01*
X2174517Y1797400D02*
X2179929D01*
X2174517Y1797500D02*
X2179929D01*
X2174518Y1797600D02*
X2179929D01*
X2174518Y1797700D02*
X2179930D01*
X2174518Y1797800D02*
X2179930D01*
X2174518Y1797900D02*
X2179930D01*
X2174518Y1798000D02*
X2179930D01*
X2174518Y1798100D02*
X2179930D01*
X2174519Y1798200D02*
X2179930D01*
X2174519Y1798300D02*
X2179931D01*
X2174519Y1798400D02*
X2179931D01*
X2174519Y1798500D02*
X2179931D01*
X2174519Y1798600D02*
X2179931D01*
X2174519Y1798700D02*
X2179931D01*
X2174520Y1798800D02*
X2179931D01*
X2174520Y1798900D02*
X2179932D01*
X2174520Y1799000D02*
X2179932D01*
X2174520Y1799100D02*
X2179932D01*
X2174520Y1799200D02*
X2179932D01*
X2174520Y1799300D02*
X2179932D01*
X2174521Y1799400D02*
X2179932D01*
X2174521Y1799500D02*
X2179933D01*
X2174521Y1799600D02*
X2179933D01*
X2174521Y1799700D02*
X2179933D01*
X2174521Y1799800D02*
X2179933D01*
X2174521Y1799900D02*
X2179933D01*
X2174522Y1800000D02*
X2179933D01*
X2174522Y1800100D02*
X2179934D01*
X2174522Y1800200D02*
X2179934D01*
X2174522Y1800300D02*
X2179934D01*
X2174522Y1800400D02*
X2179934D01*
X2174523Y1800500D02*
X2179934D01*
X2174523Y1800600D02*
X2179935D01*
X2174523Y1800700D02*
X2179935D01*
X2174523Y1800800D02*
X2179935D01*
X2174523Y1800900D02*
X2179935D01*
X2174523Y1801000D02*
X2179935D01*
X2174524Y1801100D02*
X2179935D01*
X2174524Y1801200D02*
X2179936D01*
X2174524Y1801300D02*
X2179936D01*
X2174524Y1801400D02*
X2179936D01*
X2174524Y1801500D02*
X2179936D01*
X2174524Y1801600D02*
X2179936D01*
X2174525Y1801700D02*
X2179936D01*
X2174525Y1801800D02*
X2179937D01*
X2174525Y1801900D02*
X2179937D01*
X2174525Y1802000D02*
X2179937D01*
X2174525Y1802100D02*
X2179937D01*
X2174525Y1802200D02*
X2179937D01*
X2174600Y1794070D02*
Y1802238D01*
X2174700Y1794070D02*
Y1802238D01*
X2174800Y1794070D02*
Y1802238D01*
X2174900Y1794070D02*
Y1802237D01*
X2175000Y1794070D02*
Y1802237D01*
X2175100Y1794069D02*
Y1802237D01*
X2175200Y1794069D02*
Y1802237D01*
X2175300Y1794069D02*
Y1802237D01*
X2175400Y1794069D02*
Y1802237D01*
X2175500Y1794069D02*
Y1802236D01*
X2175600Y1794069D02*
Y1802236D01*
X2175700Y1794068D02*
Y1802236D01*
X2175800Y1794068D02*
Y1802236D01*
X2175900Y1794068D02*
Y1802236D01*
X2176000Y1794068D02*
Y1802236D01*
X2176100Y1794068D02*
Y1802235D01*
X2176200Y1794067D02*
Y1802235D01*
X2176300Y1794067D02*
Y1802235D01*
X2176400Y1794067D02*
Y1802235D01*
X2176500Y1794067D02*
Y1802235D01*
X2176600Y1794067D02*
Y1802235D01*
X2176700Y1794067D02*
Y1802234D01*
X2176800Y1794066D02*
Y1802234D01*
X2176900Y1794066D02*
Y1802234D01*
X2177000Y1794066D02*
Y1802234D01*
X2177100Y1794066D02*
Y1802234D01*
X2177200Y1794066D02*
Y1802234D01*
X2177300Y1794066D02*
Y1802233D01*
X2177400Y1794065D02*
Y1802233D01*
X2177500Y1794065D02*
Y1802233D01*
X2177600Y1794065D02*
Y1802233D01*
X2177700Y1794065D02*
Y1802233D01*
X2177800Y1794065D02*
Y1802232D01*
X2177900Y1794065D02*
Y1802232D01*
X2178000Y1794064D02*
Y1802232D01*
X2178100Y1794064D02*
Y1802232D01*
X2178200Y1794064D02*
Y1802232D01*
X2178300Y1794064D02*
Y1802232D01*
X2178400Y1794064D02*
Y1802231D01*
X2178500Y1794064D02*
Y1802231D01*
X2178600Y1794063D02*
Y1802231D01*
X2178700Y1794063D02*
Y1802231D01*
X2178800Y1794063D02*
Y1802231D01*
X2178900Y1794063D02*
Y1802231D01*
X2179000Y1794063D02*
Y1802230D01*
X2179100Y1794063D02*
Y1802230D01*
X2179200Y1794062D02*
Y1802230D01*
X2179300Y1794062D02*
Y1802230D01*
X2179400Y1794062D02*
Y1802230D01*
X2179500Y1794062D02*
Y1802230D01*
X2179600Y1794062D02*
Y1802229D01*
X2179700Y1794062D02*
Y1802229D01*
X2179800Y1794061D02*
Y1802229D01*
X2179900Y1794061D02*
Y1802229D01*
X2169194Y1782543D02*
X2169213Y1774375D01*
X2174231Y1774386*
X2174212Y1782554*
X2169194Y1782543*
X2169213Y1774400D02*
X2174231D01*
X2169213Y1774500D02*
X2174231D01*
X2169212Y1774600D02*
X2174230D01*
X2169212Y1774700D02*
X2174230D01*
X2169212Y1774800D02*
X2174230D01*
X2169212Y1774900D02*
X2174230D01*
X2169211Y1775000D02*
X2174230D01*
X2169211Y1775100D02*
X2174229D01*
X2169211Y1775200D02*
X2174229D01*
X2169211Y1775300D02*
X2174229D01*
X2169211Y1775400D02*
X2174229D01*
X2169210Y1775500D02*
X2174228D01*
X2169210Y1775600D02*
X2174228D01*
X2169210Y1775700D02*
X2174228D01*
X2169210Y1775800D02*
X2174228D01*
X2169209Y1775900D02*
X2174228D01*
X2169209Y1776000D02*
X2174227D01*
X2169209Y1776100D02*
X2174227D01*
X2169209Y1776200D02*
X2174227D01*
X2169208Y1776300D02*
X2174227D01*
X2169208Y1776400D02*
X2174226D01*
X2169208Y1776500D02*
X2174226D01*
X2169208Y1776600D02*
X2174226D01*
X2169208Y1776700D02*
X2174226D01*
X2169207Y1776800D02*
X2174225D01*
X2169207Y1776900D02*
X2174225D01*
X2169207Y1777000D02*
X2174225D01*
X2169207Y1777100D02*
X2174225D01*
X2169206Y1777200D02*
X2174225D01*
X2169206Y1777300D02*
X2174224D01*
X2169206Y1777400D02*
X2174224D01*
X2169206Y1777500D02*
X2174224D01*
X2169206Y1777600D02*
X2174224D01*
X2169205Y1777700D02*
X2174223D01*
X2169205Y1777800D02*
X2174223D01*
X2169205Y1777900D02*
X2174223D01*
X2169205Y1778000D02*
X2174223D01*
X2169204Y1778100D02*
X2174222D01*
X2169204Y1778200D02*
X2174222D01*
X2169204Y1778300D02*
X2174222D01*
X2169204Y1778400D02*
X2174222D01*
X2169203Y1778500D02*
X2174222D01*
X2169203Y1778600D02*
X2174221D01*
X2169203Y1778700D02*
X2174221D01*
X2169203Y1778800D02*
X2174221D01*
X2169203Y1778900D02*
X2174221D01*
X2169202Y1779000D02*
X2174220D01*
X2169202Y1779100D02*
X2174220D01*
X2169202Y1779200D02*
X2174220D01*
X2169202Y1779300D02*
X2174220D01*
X2169201Y1779400D02*
X2174220D01*
X2169201Y1779500D02*
X2174219D01*
X2169201Y1779600D02*
X2174219D01*
X2169201Y1779700D02*
X2174219D01*
X2169200Y1779800D02*
X2174219D01*
X2169200Y1779900D02*
X2174218D01*
X2169200Y1780000D02*
X2174218D01*
X2169200Y1780100D02*
X2174218D01*
X2169200Y1780200D02*
X2174218D01*
X2169199Y1780300D02*
X2174217D01*
X2169199Y1780400D02*
X2174217D01*
X2169199Y1780500D02*
X2174217D01*
X2169199Y1780600D02*
X2174217D01*
X2169198Y1780700D02*
X2174217D01*
X2169198Y1780800D02*
X2174216D01*
X2169198Y1780900D02*
X2174216D01*
X2169198Y1781000D02*
X2174216D01*
X2169198Y1781100D02*
X2174216D01*
X2169197Y1781200D02*
X2174215D01*
X2169197Y1781300D02*
X2174215D01*
X2169197Y1781400D02*
X2174215D01*
X2169197Y1781500D02*
X2174215D01*
X2169196Y1781600D02*
X2174214D01*
X2169196Y1781700D02*
X2174214D01*
X2169196Y1781800D02*
X2174214D01*
X2169196Y1781900D02*
X2174214D01*
X2169195Y1782000D02*
X2174214D01*
X2169195Y1782100D02*
X2174213D01*
X2169195Y1782200D02*
X2174213D01*
X2169195Y1782300D02*
X2174213D01*
X2169195Y1782400D02*
X2174213D01*
X2169194Y1782500D02*
X2174212D01*
X2169200Y1780009D02*
Y1782543D01*
X2169300Y1774375D02*
Y1782543D01*
X2169400Y1774375D02*
Y1782543D01*
X2169500Y1774376D02*
Y1782543D01*
X2169600Y1774376D02*
Y1782544D01*
X2169700Y1774376D02*
Y1782544D01*
X2169800Y1774376D02*
Y1782544D01*
X2169900Y1774377D02*
Y1782544D01*
X2170000Y1774377D02*
Y1782545D01*
X2170100Y1774377D02*
Y1782545D01*
X2170200Y1774377D02*
Y1782545D01*
X2170300Y1774377D02*
Y1782545D01*
X2170400Y1774378D02*
Y1782545D01*
X2170500Y1774378D02*
Y1782546D01*
X2170600Y1774378D02*
Y1782546D01*
X2170700Y1774378D02*
Y1782546D01*
X2170800Y1774379D02*
Y1782546D01*
X2170900Y1774379D02*
Y1782547D01*
X2171000Y1774379D02*
Y1782547D01*
X2171100Y1774379D02*
Y1782547D01*
X2171200Y1774380D02*
Y1782547D01*
X2171300Y1774380D02*
Y1782547D01*
X2171400Y1774380D02*
Y1782548D01*
X2171500Y1774380D02*
Y1782548D01*
X2171600Y1774380D02*
Y1782548D01*
X2171700Y1774381D02*
Y1782548D01*
X2171800Y1774381D02*
Y1782549D01*
X2171900Y1774381D02*
Y1782549D01*
X2172000Y1774381D02*
Y1782549D01*
X2172100Y1774382D02*
Y1782549D01*
X2172200Y1774382D02*
Y1782550D01*
X2172300Y1774382D02*
Y1782550D01*
X2172400Y1774382D02*
Y1782550D01*
X2172500Y1774382D02*
Y1782550D01*
X2172600Y1774383D02*
Y1782550D01*
X2172700Y1774383D02*
Y1782551D01*
X2172800Y1774383D02*
Y1782551D01*
X2172900Y1774383D02*
Y1782551D01*
X2173000Y1774384D02*
Y1782551D01*
X2173100Y1774384D02*
Y1782552D01*
X2173200Y1774384D02*
Y1782552D01*
X2173300Y1774384D02*
Y1782552D01*
X2173400Y1774385D02*
Y1782552D01*
X2173500Y1774385D02*
Y1782553D01*
X2173600Y1774385D02*
Y1782553D01*
X2173700Y1774385D02*
Y1782553D01*
X2173800Y1774385D02*
Y1782553D01*
X2173900Y1774386D02*
Y1782553D01*
X2174000Y1774386D02*
Y1782554D01*
X2174100Y1774386D02*
Y1782554D01*
X2174200Y1774386D02*
Y1782554D01*
G54D15*
X1839764Y1761614D03*
X1820079D03*
Y1781299D03*
X1839764Y1781300D03*
G54D19*
X2028130Y1415000D03*
X2189180Y1506687D03*
X2211719Y1492513D03*
G54D20*
X1788110Y1767874D03*
Y1758819D03*
X2212244Y1759212D03*
Y1768267D03*
G54D22*
X1956323Y1435087D03*
G54D23*
X1795750Y1466100D03*
Y1472400D03*
G54D24*
X2103543Y1714764D03*
Y1725000D03*
G54D27*
X1931500Y1468140D03*
Y1464360D03*
X2068110Y1735512D03*
Y1739292D03*
X2072713Y1638178D03*
Y1634397D03*
X1933890Y1456250D03*
X1930110D03*
X2121750Y1538610D03*
Y1542390D03*
X2125884Y1538610D03*
Y1542390D03*
X1926268Y1610390D03*
Y1606610D03*
X2141002Y1538610D03*
Y1542390D03*
X2144742Y1538610D03*
Y1542390D03*
X2176860Y1474750D03*
X2180640D03*
X2180110Y1588000D03*
X2183890D03*
X2171890Y1559500D03*
X2168110D03*
X2172250Y1550360D03*
Y1554140D03*
X2170512Y1451535D03*
X2166732D03*
X2174610Y1708500D03*
X2178390D03*
X1908500Y1610390D03*
Y1606610D03*
X2025140Y1459750D03*
X2021360D03*
X2061201Y1462750D03*
X2064981D03*
X2061201Y1454750D03*
X2064981D03*
X2038250Y1451105D03*
Y1447325D03*
X2050500D03*
Y1451105D03*
X2127500Y1476390D03*
Y1472610D03*
X2118740Y1451103D03*
Y1447322D03*
X2127610Y1644000D03*
X2131390D03*
X2127610Y1662500D03*
X2131390D03*
X2127610Y1666000D03*
X2131390D03*
Y1652500D03*
X2127610D03*
X2123110Y1707750D03*
X2126890D03*
X2131390Y1658250D03*
X2127610D03*
X2184140Y1645500D03*
X2180360D03*
X1882460Y1535531D03*
X1886241D03*
X1882460Y1539272D03*
X1886241D03*
X1882460Y1546949D03*
X1886241D03*
X1882460Y1543012D03*
X1886241D03*
X2083819Y1588657D03*
X2080039D03*
X1858000Y1564390D03*
Y1560610D03*
X1854063Y1564390D03*
Y1560610D03*
X1866750Y1457610D03*
Y1461390D03*
X1857500D03*
Y1457610D03*
X1845177Y1442933D03*
Y1439153D03*
X1817750Y1442890D03*
Y1439110D03*
X1825860Y1443250D03*
X1829640D03*
X1866640Y1453500D03*
X1862860D03*
X1853193Y1468737D03*
Y1464956D03*
X1866640Y1447250D03*
X1862860D03*
X2006500Y1638890D03*
Y1635110D03*
X2020571Y1635216D03*
Y1638996D03*
X2012000Y1627610D03*
Y1631390D03*
X2035000Y1635110D03*
Y1638890D03*
X2072441Y1609409D03*
X2076221D03*
X2004319Y1588657D03*
X2000539D03*
X2054319Y1588157D03*
X2050539D03*
X2060390Y1594500D03*
X2056610D03*
X1994094Y1610197D03*
X1997874D03*
X2044094Y1609409D03*
X2047874D03*
X2030819Y1588657D03*
X2027039D03*
X2019685Y1609213D03*
X2023465D03*
X1917750Y1598860D03*
Y1602640D03*
X1913000Y1598860D03*
Y1602640D03*
X1910000Y1662110D03*
Y1665890D03*
X1912500Y1591140D03*
Y1587360D03*
X1962610Y1668500D03*
X1966390D03*
X2004250Y1729390D03*
Y1725610D03*
X1857110Y1675000D03*
X1860890D03*
X2104890Y1699750D03*
X2101110D03*
X1825110Y1720000D03*
X1828890D03*
X1825108Y1710830D03*
Y1714611D03*
X1850860Y1658750D03*
X1854640D03*
X1824968Y1705720D03*
X1828748D03*
X1833360Y1674000D03*
X1837140D03*
X1886831Y1605217D03*
X1883051D03*
X1886831Y1601476D03*
X1883051D03*
X1886831Y1640846D03*
X1883051D03*
X1886831Y1632972D03*
X1883051D03*
X1886831Y1621161D03*
X1883051D03*
X1886831Y1617028D03*
X1883051D03*
X1886634Y1593209D03*
X1882854D03*
X1891250Y1651860D03*
Y1655640D03*
X1839937Y1587110D03*
Y1590890D03*
X2076181Y1735511D03*
Y1739292D03*
X2100750Y1450890D03*
Y1447110D03*
X2183890Y1598000D03*
X2180110D03*
X2180515Y1570819D03*
X2184296D03*
X2156396Y1542390D03*
Y1538610D03*
X2152656Y1542390D03*
Y1538610D03*
X2147750Y1604110D03*
Y1607890D03*
X2180515Y1574756D03*
X2184296D03*
X2129978Y1542390D03*
Y1538610D03*
X2116615Y1591614D03*
X2112834D03*
X2151500Y1604110D03*
Y1607890D03*
X2123110Y1703419D03*
X2126890D03*
X1935913Y1610390D03*
Y1606610D03*
X1896477Y1597146D03*
X1892697D03*
X1896390Y1636500D03*
X1892610D03*
X1896390Y1629000D03*
X1892610D03*
X1896390Y1624250D03*
X1892610D03*
X1901140Y1652500D03*
X1897360D03*
X1899860Y1636500D03*
X1903640D03*
X1899860Y1629000D03*
X1903640D03*
X1896390Y1640750D03*
X1892610D03*
X2072244Y1735511D03*
Y1739292D03*
X2104750Y1447110D03*
Y1450890D03*
X1927500Y1464360D03*
Y1468140D03*
X2063976Y1735511D03*
Y1739292D03*
X2078281Y1451105D03*
Y1447324D03*
X2080980Y1638374D03*
Y1634594D03*
X2076846Y1638374D03*
Y1634594D03*
X2017000Y1451140D03*
Y1447360D03*
X2070500Y1447325D03*
Y1451105D03*
X2071000Y1461860D03*
Y1465640D03*
X1925000Y1449610D03*
Y1453390D03*
X1912402Y1449610D03*
Y1453390D03*
X1895472Y1449610D03*
Y1453390D03*
X1943000Y1606610D03*
Y1610390D03*
X1903937Y1449610D03*
Y1453390D03*
X1887205Y1449610D03*
Y1453390D03*
X1899803Y1449610D03*
Y1453390D03*
X1920866Y1449610D03*
Y1453390D03*
X1891339Y1449610D03*
Y1453390D03*
X1883071Y1449610D03*
Y1453390D03*
X1916732Y1449610D03*
Y1453390D03*
X1875000Y1449610D03*
Y1453390D03*
X1908071Y1449610D03*
Y1453390D03*
X1878937Y1449610D03*
Y1453390D03*
X1923000Y1468140D03*
Y1464360D03*
X1943602Y1718484D03*
Y1722264D03*
X1939469Y1718484D03*
Y1722264D03*
X1889075Y1718484D03*
Y1722264D03*
X1893012Y1718484D03*
Y1722264D03*
X1897146D03*
Y1718484D03*
X2148915Y1542351D03*
Y1538570D03*
X2116811Y1587480D03*
X2113031D03*
X2130000Y1604360D03*
Y1608140D03*
X2183890Y1592500D03*
X2180110D03*
X1949750Y1587360D03*
Y1591140D03*
X2168250Y1554140D03*
Y1550360D03*
X2134331Y1604360D03*
Y1608140D03*
X2113031Y1562283D03*
X2116811D03*
Y1566417D03*
X2113031D03*
X2157250Y1604110D03*
Y1607890D03*
X2161250Y1604110D03*
Y1607890D03*
X2113031Y1570354D03*
X2116811D03*
Y1574488D03*
X2113031D03*
Y1578819D03*
X2116811D03*
X2061201Y1466750D03*
X2064981D03*
X2116811Y1583150D03*
X2113031D03*
X2163860Y1474250D03*
X2167640D03*
X2137750Y1523640D03*
Y1519860D03*
X2148360Y1474250D03*
X2152140D03*
X2160140D03*
X2156360D03*
X2162750Y1523640D03*
Y1519860D03*
X2091531Y1451105D03*
Y1447324D03*
X2174610Y1703500D03*
X2178390D03*
X2061200Y1470965D03*
X2064981D03*
X2178390Y1713500D03*
X2174610D03*
X2082531Y1447324D03*
Y1451105D03*
X2086781Y1447324D03*
Y1451105D03*
X2061201Y1458750D03*
X2064981D03*
X2121000Y1468640D03*
Y1464860D03*
X2132000Y1476390D03*
Y1472610D03*
X2126989Y1714075D03*
X2123208D03*
X2123000Y1476390D03*
Y1472610D03*
X2030000Y1725360D03*
Y1729140D03*
X1951910Y1453000D03*
X1955690D03*
X2027559Y1703819D03*
Y1707599D03*
X1949110Y1468000D03*
X1952890D03*
X2017500Y1739292D03*
Y1735512D03*
X2013583Y1703819D03*
Y1707599D03*
X1975640Y1461000D03*
X1971860D03*
X1975640Y1468000D03*
X1971860D03*
X2052953Y1725275D03*
Y1729056D03*
X2072039Y1588657D03*
X2075819D03*
X2050394Y1703819D03*
Y1707599D03*
X2040000Y1739292D03*
Y1735512D03*
X2036220Y1703819D03*
Y1707599D03*
X2127610Y1648000D03*
X2131390D03*
X2180360Y1650750D03*
X2184140D03*
X2180360Y1655250D03*
X2184140D03*
X2127610Y1670500D03*
X2131390D03*
X1886140Y1530250D03*
X1882360D03*
X1886240Y1526000D03*
X1882460D03*
X1865000Y1518110D03*
Y1521890D03*
X1896830Y1706201D03*
X1900611D03*
X1860472Y1518110D03*
Y1521890D03*
X1856339Y1518110D03*
Y1521890D03*
X1852205Y1518110D03*
Y1521890D03*
X1848268Y1518110D03*
Y1521890D03*
X1835110Y1532000D03*
X1838890D03*
X1862500Y1457610D03*
Y1461390D03*
X1863360Y1468500D03*
X1867140D03*
X1803250Y1439110D03*
Y1442890D03*
X1829640Y1439500D03*
X1825860D03*
X1821750Y1442890D03*
Y1439110D03*
X2116000Y1538360D03*
Y1542140D03*
X1811516Y1439153D03*
Y1442933D03*
X1841240Y1439153D03*
Y1442933D03*
X1853000Y1442890D03*
Y1439110D03*
X1807250D03*
Y1442890D03*
X1849000Y1439110D03*
Y1442890D03*
X1857000D03*
Y1439110D03*
X1857327Y1468737D03*
Y1464956D03*
X1861750Y1442890D03*
Y1439110D03*
X1866250D03*
Y1442890D03*
X2010500Y1638890D03*
Y1635110D03*
X2125250Y1523640D03*
Y1519860D03*
X2016000Y1638890D03*
Y1635110D03*
X2039000Y1638890D03*
Y1635110D03*
X2020500Y1631390D03*
Y1627610D03*
X2016000Y1631390D03*
Y1627610D03*
X2031000Y1635110D03*
Y1638890D03*
X2033360Y1627250D03*
X2037140D03*
X1993039Y1588657D03*
X1996819D03*
X2043039Y1588157D03*
X2046819D03*
X2019039Y1588657D03*
X2022819D03*
X1917750Y1606610D03*
Y1610390D03*
X1884941Y1718484D03*
Y1722264D03*
X1912500Y1606610D03*
Y1610390D03*
X1958500Y1664860D03*
Y1668640D03*
X1962610Y1658250D03*
X1966390D03*
X1970860Y1668128D03*
Y1664348D03*
X1966290Y1663800D03*
X1962510D03*
X1993500Y1735610D03*
Y1739390D03*
X1989250D03*
Y1735610D03*
X1999500D03*
Y1739390D03*
X2129500Y1519860D03*
Y1523640D03*
X2004000Y1739390D03*
Y1735610D03*
X1986000Y1706390D03*
Y1702610D03*
X1977478Y1726004D03*
Y1729784D03*
X2005618Y1707268D03*
Y1703488D03*
X1981612Y1726004D03*
Y1729784D03*
X1879500Y1668390D03*
Y1664610D03*
X1862890Y1663250D03*
X1859110D03*
X1850860D03*
X1854640D03*
X1858500Y1655610D03*
Y1659390D03*
X1862500D03*
Y1655610D03*
X1889547Y1706201D03*
X1893327D03*
X1886831Y1609350D03*
X1883051D03*
X1886831Y1597343D03*
X1883051D03*
X1886831Y1636909D03*
X1883051D03*
X1886831Y1629035D03*
X1883051D03*
X1886831Y1625098D03*
X1883051D03*
X1886831Y1613091D03*
X1883051D03*
X1851250Y1587110D03*
Y1590890D03*
X1894640Y1609250D03*
X1890860D03*
X1844500Y1590890D03*
Y1587110D03*
X1836000D03*
Y1590890D03*
X1837250Y1450140D03*
Y1446360D03*
Y1439110D03*
Y1442890D03*
X1833250Y1439110D03*
Y1442890D03*
G54D32*
X1999663Y1727894D03*
X1986789D03*
G54D39*
X2169819Y1728937D03*
X2177819D03*
X2134091Y1737500D03*
X2142091D03*
X2105500Y1706000D03*
X2097500D03*
X2126441Y1737598D03*
X2118441D03*
X2113750Y1556500D03*
X2121750D03*
X1931000Y1450500D03*
X1939000D03*
X2178656Y1564819D03*
X2186656D03*
X2178656Y1580569D03*
X2186656D03*
X1824250Y1448750D03*
X1832250D03*
G54D40*
X2112638Y1448559D03*
Y1456559D03*
X1872750Y1460000D03*
Y1468000D03*
X1884750Y1654500D03*
Y1646500D03*
X2161750Y1547807D03*
Y1539807D03*
X2135488Y1547813D03*
Y1539813D03*
X1903000Y1612000D03*
Y1604000D03*
X1918250Y1593750D03*
Y1585750D03*
G54D41*
X1921949Y1719193D03*
X1932972D03*
X1963681Y1650689D03*
X1974705D03*
X1826083Y1465453D03*
X1815059D03*
X1846161D03*
X1835138D03*
X2165354Y1737598D03*
X2176378D03*
G54D43*
X2017913Y1704724D03*
X2023425D03*
X1949244Y1462750D03*
X1954756D03*
X2040551Y1704724D03*
X2046063D03*
X2132382Y1639862D03*
X2126870D03*
X2180494Y1666500D03*
X2186006D03*
X2180744Y1660750D03*
X2186256D03*
X1880217Y1551476D03*
X1885728D03*
X1880217Y1556791D03*
X1885728D03*
X1841134Y1536724D03*
X1835622D03*
X1886319Y1588484D03*
X1880807D03*
G54D44*
X2059055Y1733268D03*
Y1738780D03*
X2092750Y1638006D03*
Y1632494D03*
X1903250Y1716244D03*
Y1721756D03*
X1862528Y1563878D03*
Y1558366D03*
X1849142Y1563878D03*
Y1558366D03*
X2086339Y1604291D03*
Y1598780D03*
X2043500Y1638756D03*
Y1633244D03*
X2026500Y1638756D03*
Y1633244D03*
X2006614Y1605079D03*
Y1599567D03*
X2056811Y1604882D03*
Y1599370D03*
X2033189Y1605079D03*
Y1599567D03*
X1915000Y1661744D03*
Y1667256D03*
X1859250Y1588244D03*
Y1593756D03*
X2096250Y1453256D03*
Y1447744D03*
G54D45*
X2093209Y1397815D03*
G54D55*
X2118110Y1719488D03*
Y1723228D03*
Y1726968D03*
X2126772D03*
Y1719488D03*
G54D56*
X2080827Y1594646D03*
X2077087D03*
X2073346D03*
Y1603307D03*
X2080827D03*
X2001496Y1595630D03*
X1997756D03*
X1994016D03*
Y1604291D03*
X2001496D03*
X2051496Y1595236D03*
X2047756D03*
X2044016D03*
Y1603898D03*
X2051496D03*
X2028071Y1595236D03*
X2024331D03*
X2020591D03*
Y1603898D03*
X2028071D03*
X2024803Y1719685D03*
X2021063D03*
X2017323D03*
Y1728346D03*
X2024803D03*
X1959510Y1467831D03*
X1963250D03*
X1966990D03*
Y1459169D03*
X1959510D03*
X2047835Y1719291D03*
X2044094D03*
X2040354D03*
Y1727953D03*
X2047835D03*
G54D57*
X2147944Y1429600D03*
X2198456D03*
G54D63*
X2037107Y1462204D03*
Y1464763D03*
Y1467323D03*
Y1469882D03*
X2054822D03*
Y1467323D03*
Y1464763D03*
Y1462204D03*
G54D76*
X2202382Y1790197D03*
X2209890Y1793209D03*
X2212890Y1800803D03*
X2194866Y1793244D03*
X2191921Y1800728D03*
X2194902Y1808354D03*
X2202378Y1811161D03*
X2209831Y1808248D03*
X1797657Y1388622D03*
X1805165Y1391634D03*
X1808165Y1399228D03*
X1790142Y1391669D03*
X1787197Y1399154D03*
X1790177Y1406780D03*
X1797654Y1409587D03*
X1805106Y1406673D03*
X2202382Y1388622D03*
X2209890Y1391634D03*
X2212890Y1399228D03*
X2194866Y1391669D03*
X2191921Y1399154D03*
X2194902Y1406780D03*
X2202378Y1409587D03*
X2209831Y1406673D03*
X1797657Y1790197D03*
X1805165Y1793209D03*
X1808165Y1800803D03*
X1790142Y1793244D03*
X1787197Y1800728D03*
X1790177Y1808354D03*
X1797654Y1811161D03*
X1805106Y1808248D03*
X2158200Y1431569D03*
X2163200Y1427631D03*
X2168200D03*
X2173200Y1431569D03*
X2178200Y1427631D03*
X2183200D03*
X2188200Y1431569D03*
G54D83*
X1911476Y1738701D03*
X1906476Y1748701D03*
X1901476Y1738701D03*
X1896476Y1748701D03*
X1891476Y1738701D03*
X1886476Y1748701D03*
X1881476Y1738701D03*
X1876476Y1748701D03*
X1871476Y1738701D03*
X1866476Y1748701D03*
X1915118Y1792992D03*
X1905118D03*
X1872835D03*
X1862835D03*
G54D84*
X1866476Y1773701D03*
X1911476D03*
G54D85*
X2055118Y1794488D03*
X2033071D03*
X1858465Y1761693D03*
X1919488D03*
G54D92*
X2144476Y1633858D03*
Y1636417D03*
Y1638976D03*
Y1641535D03*
Y1644094D03*
Y1646654D03*
Y1649213D03*
Y1651772D03*
Y1654331D03*
Y1656890D03*
Y1659449D03*
Y1662008D03*
Y1664567D03*
Y1667126D03*
X2171075D03*
Y1664567D03*
Y1662008D03*
Y1659449D03*
Y1656890D03*
Y1654331D03*
Y1651772D03*
Y1649213D03*
Y1646654D03*
Y1644094D03*
Y1641535D03*
Y1638976D03*
Y1636417D03*
Y1633858D03*
G54D93*
X1989469Y1660630D03*
X2050098D03*
G54D94*
X2042421Y1654724D03*
X2040453D03*
X2038484D03*
X2036516D03*
X2034547D03*
X2032579D03*
X2030610D03*
X2028642D03*
X2026673D03*
X2024705D03*
X2022736D03*
X2020768D03*
X2018799D03*
X2016831D03*
X2014862D03*
X2012894D03*
X2010925D03*
X2008957D03*
X2006988D03*
X2005020D03*
X2003051D03*
X2001083D03*
X1999114D03*
X1997146D03*
G54D95*
X1868127Y1642422D03*
Y1638878D03*
Y1635335D03*
Y1631792D03*
Y1628248D03*
Y1624705D03*
Y1621162D03*
Y1617618D03*
Y1614075D03*
Y1610532D03*
Y1606988D03*
X1823047D03*
Y1610532D03*
Y1614075D03*
Y1617618D03*
Y1621162D03*
Y1624705D03*
Y1628248D03*
Y1631792D03*
Y1635335D03*
Y1638878D03*
Y1642422D03*
G54D96*
X1827722Y1647097D03*
X1831265D03*
X1834809D03*
X1838352D03*
X1841895D03*
X1845439D03*
X1848982D03*
X1852525D03*
X1856068D03*
X1859612D03*
X1863155D03*
Y1602313D03*
X1859612D03*
X1856068D03*
X1852525D03*
X1848982D03*
X1845439D03*
X1841895D03*
X1838352D03*
X1834809D03*
X1831265D03*
X1827722D03*
G54D97*
X1831414Y1635335D03*
Y1628248D03*
Y1621162D03*
G54D110*
X1832677Y1424902D03*
G54D111*
X1793600Y1417600D03*
X2192047Y1772756D03*
G54D121*
X2196752Y1383366D02*
G75*
G03X2216437Y1403051I-0J19685D01*
G01Y1796949*
G03X2196752Y1816634I-19685J-0*
G01X1981791*
Y1816535*
X1969193*
Y1816634*
X1803248*
G03X1783563Y1796949I0J-19685*
G01Y1403138*
G03X1803248Y1383453I19685J-0*
G01X1825421*
Y1388398*
X1839839*
Y1383366*
X2196752*
G54D123*
X2182550Y1460000D03*
X2206950D03*
X1958354Y1608291D03*
Y1597291D03*
X1966622Y1608291D03*
Y1597291D03*
X1798100Y1417600D02*
G03X1798100I-4500J0D01*
G01X2196547Y1772756D02*
G03X2196547I-4500J0D01*
G01X1798100Y1417600D02*
G03X1798100I-4500J0D01*
G01X2196547Y1772756D02*
G03X2196547I-4500J0D01*
G01X1789191Y1418499D02*
X1798009D01*
X1789476Y1415799D02*
X1797724D01*
X1790898Y1421199D02*
X1796302D01*
X2187638Y1773655D02*
X2196457D01*
X2187923Y1770955D02*
X2196171D01*
X2189345Y1776355D02*
X2194749D01*
G54D125*
X1875098Y1658563D03*
X1871358D03*
X1867618D03*
Y1669193D03*
X1871358D03*
X1875098D03*
G54D135*
X1882579Y1713681D03*
Y1706201D03*
X1871949Y1709941D03*
X1935750Y1468000D03*
X1943230D03*
X1939490Y1457370D03*
X2150750Y1468500D03*
X2158230D03*
X2154490Y1457870D03*
X2157000Y1520500D03*
X2149520D03*
X2153260Y1531130D03*
X2089250Y1471750D03*
Y1464270D03*
X2078620Y1468010D03*
X2120500Y1520500D03*
X2113020D03*
X2116760Y1531130D03*
X1932500Y1587250D03*
X1925020D03*
X1928760Y1597880D03*
X1944750Y1587250D03*
X1937270D03*
X1941010Y1597880D03*
X1819000Y1447750D03*
X1811520D03*
X1815260Y1458380D03*
X1850098Y1447539D03*
X1842618D03*
X1846358Y1458169D03*
X1981472Y1703122D03*
X1973992D03*
X1977732Y1713752D03*
X2000500Y1704000D03*
X1993020D03*
X1996760Y1714630D03*
X2163500Y1468500D03*
X2170980D03*
X2167240Y1457870D03*
X2023130Y1453051D03*
X2030610D03*
X2026870Y1442421D03*
G54D152*
X1829921Y1771457D03*
G54D153*
X2057657Y1415000D03*
G54D155*
X2202362Y1800787D03*
X1797638Y1399213D03*
X2202362D03*
X1797638Y1800787D03*
G54D156*
X2083209Y1397815D03*
X2103209D03*
G54D160*
X2205321Y1499600D03*
G54D161*
X2195479D03*
G54D162*
X2209896Y1523281D03*
G54D163*
X2115630Y1763530D03*
X2105787D03*
X2097913Y1753215D03*
Y1763530D03*
X2088071Y1753215D03*
Y1763530D03*
X2199450Y1713281D03*
X2209896D03*
X2199450Y1703281D03*
X2209896D03*
X2199450Y1693281D03*
X2209896D03*
X2199450Y1683281D03*
X2209896D03*
X2199450Y1673281D03*
X2209896D03*
X2199450Y1663281D03*
X2209896D03*
X2199450Y1653281D03*
X2209896D03*
X2199450Y1643281D03*
X2209896D03*
X2199450Y1633281D03*
X2209896D03*
X2199450Y1623281D03*
X2209896D03*
X2199450Y1613281D03*
X2209896D03*
X2199450Y1603281D03*
X2209896D03*
X2199450Y1593281D03*
X2209896D03*
X2199450Y1583281D03*
X2209896D03*
X2199450Y1573281D03*
X2209896D03*
X2199450Y1563281D03*
X2209896D03*
X2199450Y1553281D03*
X2209896D03*
X2199450Y1543281D03*
X2209896D03*
X2199450Y1533281D03*
X2209896D03*
X2199450Y1523281D03*
G54D164*
X2123600Y1436400D03*
G54D165*
X2113600D03*
X2103600D03*
X2093600D03*
G54D167*
X2113583Y1391526D03*
X2139370D03*
G54D168*
X1957677Y1770079D03*
G54D169*
X1963583D03*
X1969488D03*
G54D170*
X1945472Y1802756D03*
X2007283D03*
G54D172*
X2034094Y1784291D03*
X2054094D03*
G54D173*
Y1774409D03*
X2044094D03*
X2034094D03*
G54D175*
X1996087Y1424457D03*
X1943724D03*
X2075984Y1751837D03*
Y1774199D03*
X2127717Y1751837D03*
Y1774199D03*
G54D178*
X2182980Y1404921D03*
X2155420D03*
G54D181*
X2166201Y1798150D03*
G54D182*
X2168366Y1766654D03*
G54D183*
X2154587Y1768622D03*
G54D184*
X1852829Y1712660D03*
X2147629D03*
G54D187*
X2163385Y1488681D03*
G54D188*
X1791496Y1712598D03*
G54D190*
X1966165Y1435087D03*
X1974039D03*
X1983882D03*
G54D191*
X2115630Y1753215D03*
X2105787D03*
G54D193*
X2061500Y1604772D03*
Y1601228D03*
G54D194*
X1895807Y1710925D03*
X1890217D03*
X1873091Y1721358D03*
X1878681D03*
G54D195*
X2094750Y1463955D03*
Y1469545D03*
X2100236Y1470709D03*
Y1465118D03*
X2116500Y1470795D03*
Y1465205D03*
X2105354Y1470709D03*
Y1465118D03*
X2110472Y1470709D03*
Y1465118D03*
X2045250Y1446955D03*
Y1452545D03*
X2055217Y1447028D03*
Y1452618D03*
G54D196*
X1940577Y1649250D03*
X1955537D03*
G54D197*
X2125500Y1633500D03*
X2131500D03*
X2186000Y1673000D03*
X2180000D03*
X1868039Y1563138D03*
Y1557138D03*
X1843236Y1563138D03*
Y1557138D03*
X2099000Y1631250D03*
Y1637250D03*
X1893750Y1588250D03*
X1899750D03*
X1884744Y1661075D03*
Y1667075D03*
X1891437Y1661075D03*
Y1667075D03*
X2119890Y1548307D03*
X2113890D03*
G54D198*
X1913682Y1624844D03*
X1914862Y1638484D03*
X1916044Y1624844D03*
X1917224Y1638484D03*
X1918407Y1624844D03*
X1919586Y1638484D03*
X1920769Y1624844D03*
X1921949Y1638484D03*
X1923131Y1624844D03*
X1924311Y1638484D03*
X1925493Y1624844D03*
X1926673Y1638484D03*
X1927856Y1624844D03*
X1929035Y1638484D03*
X1930218Y1624844D03*
X1931398Y1638484D03*
X1932580Y1624844D03*
X1933760Y1638484D03*
X1934942Y1624844D03*
X1936122Y1638484D03*
X1937304Y1624844D03*
X1938484Y1638484D03*
X1939667Y1624844D03*
X1940846Y1638484D03*
X1942029Y1624844D03*
X1943209Y1638484D03*
X1944391Y1624844D03*
X1945571Y1638484D03*
X1946753Y1624844D03*
X1947933Y1638484D03*
X1949115Y1624844D03*
X1950295Y1638484D03*
X1951478Y1624844D03*
X1952657Y1638484D03*
X1953840Y1624844D03*
X1955020Y1638484D03*
X1956202Y1624844D03*
X1957382Y1638484D03*
X1958564Y1624844D03*
X1959744Y1638484D03*
X1960926Y1624844D03*
X1962106Y1638484D03*
X1963289Y1624844D03*
X1964468Y1638484D03*
X1965651Y1624844D03*
X1966831Y1638484D03*
X1968013Y1624844D03*
X1969193Y1638484D03*
X1970375Y1624844D03*
X1971555Y1638484D03*
X1972737Y1624844D03*
G54D199*
X1976569Y1626669D03*
X1909837Y1626677D03*
G54D200*
X2084421Y1650000D03*
X2082452D03*
X2080484D03*
X2078515D03*
X2076547D03*
X2074578D03*
G54D201*
X2068083Y1657800D03*
X2090917D03*
G54D202*
X2085425Y1724596D03*
X2088575D03*
Y1717904D03*
X2085425D03*
X2077425Y1724596D03*
X2080575D03*
Y1717904D03*
X2077425D03*
X2128606Y1457118D03*
X2125456Y1457119D03*
Y1463811D03*
X2128606D03*
G54D203*
X1921555Y1662303D03*
X1933366D03*
G54D204*
X1865510Y1592500D03*
X1872990D03*
G54D205*
X2183250Y1738000D03*
X1955000Y1444500D03*
X2047756Y1712008D03*
X2061500Y1610000D03*
X2006429Y1610157D03*
X2033000Y1610000D03*
X1913000Y1648250D03*
X1918750Y1648500D03*
X1968000Y1643750D03*
X1871250Y1675000D03*
X2123000Y1696750D03*
X1897000Y1660500D03*
X2089250Y1641750D03*
X2115984Y1696732D03*
X2086250Y1610000D03*
X1900000Y1434250D03*
X1913000Y1616500D03*
X2062750Y1447750D03*
X2024750Y1712000D03*
X2138750Y1604000D03*
X2143000Y1601500D03*
G54D206*
X2178058Y1395079D03*
X2160342D03*
G54D207*
X1953445Y1739026D03*
X1955413D03*
X1959350D03*
X1961319D03*
Y1735581D03*
X1959350D03*
X1955413D03*
X1953445D03*
X1964272Y1739026D03*
X1966240D03*
X1970177D03*
X1972146D03*
Y1735581D03*
X1970177D03*
X1966240D03*
X1964272D03*
X1975098Y1739026D03*
X1977067D03*
X1981004D03*
X1982972D03*
Y1735581D03*
X1981004D03*
X1977067D03*
X1975098D03*
G54D208*
X1957382Y1738829D03*
Y1735778D03*
X1968209Y1738829D03*
Y1735778D03*
X1979035Y1738829D03*
Y1735778D03*
G54D209*
X2164331Y1588071D03*
Y1565630D03*
X2129685D03*
Y1588071D03*
G54D210*
X2164331Y1585708D03*
Y1583740D03*
Y1581771D03*
Y1579803D03*
Y1577834D03*
Y1575866D03*
Y1573897D03*
Y1571929D03*
Y1569960D03*
Y1567992D03*
X2129685D03*
Y1569960D03*
Y1571929D03*
Y1573897D03*
Y1575866D03*
Y1577834D03*
Y1579803D03*
Y1581771D03*
Y1583740D03*
Y1585708D03*
G54D211*
X2158229Y1559527D03*
X2135788D03*
Y1594173D03*
X2158229D03*
G54D212*
X2155866Y1559527D03*
X2153898D03*
X2151929D03*
X2149961D03*
X2147992D03*
X2146024D03*
X2144055D03*
X2142087D03*
X2140118D03*
X2138150D03*
Y1594173D03*
X2140118D03*
X2142087D03*
X2144055D03*
X2146024D03*
X2147992D03*
X2149961D03*
X2151929D03*
X2153898D03*
X2155866D03*
G54D213*
X1865059Y1529831D03*
X1863287D03*
X1861516D03*
X1859744D03*
X1857972D03*
X1856201D03*
X1854429D03*
Y1546169D03*
X1856201D03*
X1857972D03*
X1859744D03*
X1861516D03*
X1863287D03*
X1865059D03*
G54D214*
X1851575Y1532685D03*
Y1534457D03*
Y1536228D03*
Y1538000D03*
Y1539772D03*
Y1541543D03*
Y1543315D03*
X1867913D03*
Y1541543D03*
Y1539772D03*
Y1538000D03*
Y1536228D03*
Y1534457D03*
Y1532685D03*
G54D215*
X1859744Y1538000D03*
G54D216*
X1949705Y1659154D03*
X1947736D03*
X1945768D03*
X1943799D03*
X1941831D03*
Y1669783D03*
X1943799D03*
X1945768D03*
X1947736D03*
X1949705D03*
G54D217*
X1945768Y1664469D03*
G54D218*
X2117250Y1648217D03*
Y1662783D03*
X2181161Y1555886D03*
Y1541319D03*
G54D219*
X2028402Y1463728D03*
Y1467272D03*
X2003598D03*
Y1463728D03*
G54D220*
X1844691Y1662222D03*
X1834455D03*
Y1668522D03*
X1844691D03*
G54D221*
X1972404Y1452925D03*
Y1456075D03*
X1979096D03*
Y1452925D03*
G54D226*
X1960630Y1775984D03*
X1963583Y1781890D03*
X1966535Y1775984D03*
X1969488Y1781890D03*
X1972441Y1775984D03*
X1975394Y1770079D03*
Y1781890D03*
X1978346Y1775984D03*
X1981299Y1781890D03*
Y1770079D03*
X1984252Y1775984D03*
X1987205Y1770079D03*
Y1781890D03*
X1990157Y1775984D03*
X1993110Y1781890D03*
Y1770079D03*
G54D227*
X1976378Y1795669D03*
G54D228*
X1799370Y1712598D03*
X1791496Y1704724D03*
X1799370D03*
X1791496Y1696850D03*
X1799370D03*
X1791496Y1688976D03*
X1799370D03*
X1791496Y1681102D03*
X1799370D03*
X1791496Y1673228D03*
X1799370D03*
X1791496Y1665354D03*
X1799370D03*
X1791496Y1657480D03*
X1799370D03*
X1791496Y1649606D03*
X1799370D03*
X1791496Y1641732D03*
X1799370D03*
X1791496Y1633858D03*
X1799370D03*
X1791496Y1625984D03*
X1799370D03*
X1791496Y1618110D03*
X1799370D03*
X1791496Y1610236D03*
X1799370D03*
X1791496Y1602362D03*
X1799370D03*
X1791496Y1594488D03*
X1799370D03*
X1791496Y1586614D03*
X1799370D03*
X1791496Y1578740D03*
X1799370D03*
X1791496Y1570866D03*
X1799370D03*
X1791496Y1562992D03*
X1799370D03*
X1791496Y1555118D03*
X1799370D03*
X1791496Y1547244D03*
X1799370D03*
X1791496Y1539370D03*
X1799370D03*
X1791496Y1531496D03*
X1799370D03*
X1791496Y1523622D03*
X1799370D03*
G54D230*
X1908556Y1396444D03*
X1877062Y1396453D03*
G54D231*
X1840551Y1488681D03*
G74*
X0Y0D02*
M02*
