*
*
G04 PADS 9.5 Build Number: 522968 generated Gerber (RS-274-X) file*
G04 PC Version=2.1*
*
%IN "RADXA_ROCK2_BASEBD-1503"*%
*
%MOIN*%
*
%FSLAX35Y35*%
*
*
*
*
G04 PC Standard Apertures*
*
*
G04 Thermal Relief Aperture macro.*
%AMTER*
1,1,$1,0,0*
1,0,$1-$2,0,0*
21,0,$3,$4,0,0,45*
21,0,$3,$4,0,0,135*
%
*
*
G04 Annular Aperture macro.*
%AMANN*
1,1,$1,0,0*
1,0,$2,0,0*
%
*
*
G04 Odd Aperture macro.*
%AMODD*
1,1,$1,0,0*
1,0,$1-0.005,0,0*
%
*
*
G04 PC Custom Aperture Macros*
*
*
*
*
*
*
G04 PC Aperture Table*
*
%ADD010C,0.001*%
%ADD015O,0.0748X0.0748*%
%ADD019C,0.04724*%
%ADD020C,0.0315*%
%ADD022R,0.06299X0.06299*%
%ADD023C,0.05*%
%ADD045O,0.07874X0.07874*%
%ADD057C,0.09449*%
%ADD059R,0.07087X0.05906*%
%ADD060R,0.07874X0.07087*%
%ADD069R,0.04921X0.0748*%
%ADD071R,0.0748X0.04921*%
%ADD076C,0.03937*%
%ADD077R,0.02756X0.05906*%
%ADD082R,0.06X0.06*%
%ADD083C,0.06*%
%ADD084C,0.13*%
%ADD085C,0.1*%
%ADD110C,0.05906*%
%ADD111C,0.039*%
%ADD121C,0.006*%
%ADD123C,0.03*%
%ADD136C,0.002*%
%ADD152C,0.0748*%
%ADD153C,0.05118*%
%ADD154R,0.16X0.122*%
%ADD155C,0.22047*%
%ADD156C,0.07874*%
%ADD157R,0.06906X0.06724*%
%ADD158R,0.06906X0.11843*%
%ADD159R,0.08874X0.08299*%
%ADD160R,0.06693X0.09*%
%ADD161O,0.06693X0.09*%
%ADD162O,0.06299X0.06299*%
%ADD163O,0.06299X0.06299*%
%ADD164R,0.05906X0.09*%
%ADD165O,0.05906X0.09*%
%ADD166R,0.01575X0.05315*%
%ADD167O,0.04724X0.07087*%
%ADD168R,0.03937X0.03937*%
%ADD169O,0.0315X0.03937*%
%ADD170O,0.05906X0.08268*%
%ADD172C,0.065*%
%ADD173O,0.05X0.05*%
%ADD174C,0.06299*%
%ADD175O,0.12992X0.12992*%
%ADD176O,0.05512X0.06299*%
%ADD177R,0.06299X0.06299*%
%ADD178R,0.07874X0.07874*%
%ADD179R,0.06299X0.07874*%
%ADD180R,0.05512X0.04724*%
%ADD181C,0.05118*%
%ADD182R,0.09055X0.05512*%
%ADD183R,0.08268X0.05118*%
%ADD184C,0.24409*%
%ADD185R,0.01378X0.05906*%
%ADD186R,0.12992X0.19685*%
%ADD187C,0.04331*%
%ADD188R,0.055X0.055*%
%ADD205C,0.028*%
%ADD226O,0.03937X0.03937*%
%ADD227C,0.09843*%
%ADD228O,0.055X0.055*%
%ADD230C,0.03543*%
%ADD231C,0.06299*%
*
*
*
*
G04 PC Copper Outlines (0)*
G04 Layer Name RADXA_ROCK2_BASEBD-1503 - dark (0)*
%LPD*%
*
*
G04 PC Area=_PSI_PAC_D0603_000_0000133_P162000000*
G75*
G36*
G01*
X2214600Y1470000D02*
Y1473800D01*
X2211000D01*
Y1470000D01*
X2214600D01*
G37*
G74*
*
*
G04 PC Copper Outlines (1)*
G04 Layer Name RADXA_ROCK2_BASEBD-1503 - dark (1)*
%LPD*%
*
*
G04 PC Area=_PSI_PAC_D0603_001_0000134_P162000000*
G75*
G36*
G01*
X2214600Y1475800D02*
Y1479600D01*
X2211000D01*
Y1475800D01*
X2214600D01*
G37*
G74*
*
*
G04 PC Copper Outlines (2)*
G04 Layer Name RADXA_ROCK2_BASEBD-1503 - dark (2)*
%LPD*%
*
*
G04 PC Area=_PSI_PAC_D0603_000_0000133_P162000000*
G75*
G36*
G01*
X2214600Y1418800D02*
Y1422600D01*
X2211000D01*
Y1418800D01*
X2214600D01*
G37*
G74*
*
*
G04 PC Copper Outlines (3)*
G04 Layer Name RADXA_ROCK2_BASEBD-1503 - dark (3)*
%LPD*%
*
*
G04 PC Area=_PSI_PAC_D0603_001_0000134_P162000000*
G75*
G36*
G01*
X2214600Y1424600D02*
Y1428400D01*
X2211000D01*
Y1424600D01*
X2214600D01*
G37*
G74*
*
*
G04 PC Copper Outlines (4)*
G04 Layer Name RADXA_ROCK2_BASEBD-1503 - dark (4)*
%LPD*%
*
*
G04 PC Area=_PSI_PAC_D0603_000_0000133_P324000000*
G75*
G36*
G01*
X2114400Y1421000D02*
X2110600D01*
Y1417400D01*
X2114400D01*
Y1421000D01*
G37*
G74*
*
*
G04 PC Copper Outlines (5)*
G04 Layer Name RADXA_ROCK2_BASEBD-1503 - dark (5)*
%LPD*%
*
*
G04 PC Area=_PSI_PAC_D0603_001_0000134_P324000000*
G75*
G36*
G01*
X2108600Y1421000D02*
X2104800D01*
Y1417400D01*
X2108600D01*
Y1421000D01*
G37*
G74*
*
*
G04 PC Copper Outlines (6)*
G04 Layer Name RADXA_ROCK2_BASEBD-1503 - dark (6)*
%LPD*%
*
*
G04 PC Area=_PSI_PAC_D0603_000_0000133_P162000000*
G75*
G36*
G01*
X2214600Y1444400D02*
Y1448200D01*
X2211000D01*
Y1444400D01*
X2214600D01*
G37*
G74*
*
*
G04 PC Copper Outlines (7)*
G04 Layer Name RADXA_ROCK2_BASEBD-1503 - dark (7)*
%LPD*%
*
*
G04 PC Area=_PSI_PAC_D0603_001_0000134_P162000000*
G75*
G36*
G01*
X2214600Y1450200D02*
Y1454000D01*
X2211000D01*
Y1450200D01*
X2214600D01*
G37*
G74*
*
*
G04 PC Copper Outlines (8)*
G04 Layer Name RADXA_ROCK2_BASEBD-1503 - dark (8)*
%LPD*%
*
*
G04 PC Area=DRW4851189*
G75*
G36*
G01*
X2170150Y1592650D02*
X2137600D01*
Y1563350D01*
X2170150D01*
Y1592650D01*
G37*
G74*
*
*
G04 PC Circuitry*
G04 Layer Name RADXA_ROCK2_BASEBD-1503 - circuitry*
%LPD*%
*
*
G04 PC Custom Flashes*
G04 Layer Name RADXA_ROCK2_BASEBD-1503 - flashes*
%LPD*%
*
*
G04 PC Circuitry*
G04 Layer Name RADXA_ROCK2_BASEBD-1503 - circuitry*
%LPD*%
*
G54D10*
G01X2143029Y1802238D02*
X2143015Y1794070D01*
X2148427Y1794061*
X2148441Y1802229*
X2143029Y1802238*
X2143016Y1794100D02*
X2148427D01*
X2143016Y1794200D02*
X2148428D01*
X2143016Y1794300D02*
X2148428D01*
X2143016Y1794400D02*
X2148428D01*
X2143016Y1794500D02*
X2148428D01*
X2143016Y1794600D02*
X2148428D01*
X2143017Y1794700D02*
X2148428D01*
X2143017Y1794800D02*
X2148429D01*
X2143017Y1794900D02*
X2148429D01*
X2143017Y1795000D02*
X2148429D01*
X2143017Y1795100D02*
X2148429D01*
X2143017Y1795200D02*
X2148429D01*
X2143018Y1795300D02*
X2148429D01*
X2143018Y1795400D02*
X2148430D01*
X2143018Y1795500D02*
X2148430D01*
X2143018Y1795600D02*
X2148430D01*
X2143018Y1795700D02*
X2148430D01*
X2143018Y1795800D02*
X2148430D01*
X2143019Y1795900D02*
X2148430D01*
X2143019Y1796000D02*
X2148431D01*
X2143019Y1796100D02*
X2148431D01*
X2143019Y1796200D02*
X2148431D01*
X2143019Y1796300D02*
X2148431D01*
X2143019Y1796400D02*
X2148431D01*
X2143020Y1796500D02*
X2148431D01*
X2143020Y1796600D02*
X2148432D01*
X2143020Y1796700D02*
X2148432D01*
X2143020Y1796800D02*
X2148432D01*
X2143020Y1796900D02*
X2148432D01*
X2143020Y1797000D02*
X2148432D01*
X2143021Y1797100D02*
X2148432D01*
X2143021Y1797200D02*
X2148433D01*
X2143021Y1797300D02*
X2148433D01*
X2143021Y1797400D02*
X2148433D01*
X2143021Y1797500D02*
X2148433D01*
X2143021Y1797600D02*
X2148433D01*
X2143022Y1797700D02*
X2148433D01*
X2143022Y1797800D02*
X2148434D01*
X2143022Y1797900D02*
X2148434D01*
X2143022Y1798000D02*
X2148434D01*
X2143022Y1798100D02*
X2148434D01*
X2143023Y1798200D02*
X2148434D01*
X2143023Y1798300D02*
X2148435D01*
X2143023Y1798400D02*
X2148435D01*
X2143023Y1798500D02*
X2148435D01*
X2143023Y1798600D02*
X2148435D01*
X2143023Y1798700D02*
X2148435D01*
X2143024Y1798800D02*
X2148435D01*
X2143024Y1798900D02*
X2148436D01*
X2143024Y1799000D02*
X2148436D01*
X2143024Y1799100D02*
X2148436D01*
X2143024Y1799200D02*
X2148436D01*
X2143024Y1799300D02*
X2148436D01*
X2143025Y1799400D02*
X2148436D01*
X2143025Y1799500D02*
X2148437D01*
X2143025Y1799600D02*
X2148437D01*
X2143025Y1799700D02*
X2148437D01*
X2143025Y1799800D02*
X2148437D01*
X2143025Y1799900D02*
X2148437D01*
X2143026Y1800000D02*
X2148437D01*
X2143026Y1800100D02*
X2148438D01*
X2143026Y1800200D02*
X2148438D01*
X2143026Y1800300D02*
X2148438D01*
X2143026Y1800400D02*
X2148438D01*
X2143026Y1800500D02*
X2148438D01*
X2143027Y1800600D02*
X2148438D01*
X2143027Y1800700D02*
X2148439D01*
X2143027Y1800800D02*
X2148439D01*
X2143027Y1800900D02*
X2148439D01*
X2143027Y1801000D02*
X2148439D01*
X2143027Y1801100D02*
X2148439D01*
X2143028Y1801200D02*
X2148439D01*
X2143028Y1801300D02*
X2148440D01*
X2143028Y1801400D02*
X2148440D01*
X2143028Y1801500D02*
X2148440D01*
X2143028Y1801600D02*
X2148440D01*
X2143029Y1801700D02*
X2148440D01*
X2143029Y1801800D02*
X2148440D01*
X2143029Y1801900D02*
X2148441D01*
X2143029Y1802000D02*
X2148441D01*
X2143029Y1802100D02*
X2148441D01*
X2143029Y1802200D02*
X2148441D01*
X2143100Y1794070D02*
Y1802238D01*
X2143200Y1794070D02*
Y1802238D01*
X2143300Y1794070D02*
Y1802238D01*
X2143400Y1794070D02*
Y1802237D01*
X2143500Y1794070D02*
Y1802237D01*
X2143600Y1794069D02*
Y1802237D01*
X2143700Y1794069D02*
Y1802237D01*
X2143800Y1794069D02*
Y1802237D01*
X2143900Y1794069D02*
Y1802237D01*
X2144000Y1794069D02*
Y1802236D01*
X2144100Y1794069D02*
Y1802236D01*
X2144200Y1794068D02*
Y1802236D01*
X2144300Y1794068D02*
Y1802236D01*
X2144400Y1794068D02*
Y1802236D01*
X2144500Y1794068D02*
Y1802236D01*
X2144600Y1794068D02*
Y1802235D01*
X2144700Y1794067D02*
Y1802235D01*
X2144800Y1794067D02*
Y1802235D01*
X2144900Y1794067D02*
Y1802235D01*
X2145000Y1794067D02*
Y1802235D01*
X2145100Y1794067D02*
Y1802235D01*
X2145200Y1794067D02*
Y1802234D01*
X2145300Y1794066D02*
Y1802234D01*
X2145400Y1794066D02*
Y1802234D01*
X2145500Y1794066D02*
Y1802234D01*
X2145600Y1794066D02*
Y1802234D01*
X2145700Y1794066D02*
Y1802234D01*
X2145800Y1794066D02*
Y1802233D01*
X2145900Y1794065D02*
Y1802233D01*
X2146000Y1794065D02*
Y1802233D01*
X2146100Y1794065D02*
Y1802233D01*
X2146200Y1794065D02*
Y1802233D01*
X2146300Y1794065D02*
Y1802232D01*
X2146400Y1794065D02*
Y1802232D01*
X2146500Y1794064D02*
Y1802232D01*
X2146600Y1794064D02*
Y1802232D01*
X2146700Y1794064D02*
Y1802232D01*
X2146800Y1794064D02*
Y1802232D01*
X2146900Y1794064D02*
Y1802231D01*
X2147000Y1794064D02*
Y1802231D01*
X2147100Y1794063D02*
Y1802231D01*
X2147200Y1794063D02*
Y1802231D01*
X2147300Y1794063D02*
Y1802231D01*
X2147400Y1794063D02*
Y1802231D01*
X2147500Y1794063D02*
Y1802230D01*
X2147600Y1794063D02*
Y1802230D01*
X2147700Y1794062D02*
Y1802230D01*
X2147800Y1794062D02*
Y1802230D01*
X2147900Y1794062D02*
Y1802230D01*
X2148000Y1794062D02*
Y1802230D01*
X2148100Y1794062D02*
Y1802229D01*
X2148200Y1794062D02*
Y1802229D01*
X2148300Y1794061D02*
Y1802229D01*
X2148400Y1794061D02*
Y1802229D01*
X2174525Y1802238D02*
X2174512Y1794070D01*
X2179923Y1794061*
X2179937Y1802229*
X2174525Y1802238*
X2174512Y1794100D02*
X2179923D01*
X2174512Y1794200D02*
X2179924D01*
X2174512Y1794300D02*
X2179924D01*
X2174512Y1794400D02*
X2179924D01*
X2174512Y1794500D02*
X2179924D01*
X2174512Y1794600D02*
X2179924D01*
X2174513Y1794700D02*
X2179924D01*
X2174513Y1794800D02*
X2179925D01*
X2174513Y1794900D02*
X2179925D01*
X2174513Y1795000D02*
X2179925D01*
X2174513Y1795100D02*
X2179925D01*
X2174513Y1795200D02*
X2179925D01*
X2174514Y1795300D02*
X2179925D01*
X2174514Y1795400D02*
X2179926D01*
X2174514Y1795500D02*
X2179926D01*
X2174514Y1795600D02*
X2179926D01*
X2174514Y1795700D02*
X2179926D01*
X2174514Y1795800D02*
X2179926D01*
X2174515Y1795900D02*
X2179926D01*
X2174515Y1796000D02*
X2179927D01*
X2174515Y1796100D02*
X2179927D01*
X2174515Y1796200D02*
X2179927D01*
X2174515Y1796300D02*
X2179927D01*
X2174515Y1796400D02*
X2179927D01*
X2174516Y1796500D02*
X2179927D01*
X2174516Y1796600D02*
X2179928D01*
X2174516Y1796700D02*
X2179928D01*
X2174516Y1796800D02*
X2179928D01*
X2174516Y1796900D02*
X2179928D01*
X2174517Y1797000D02*
X2179928D01*
X2174517Y1797100D02*
X2179929D01*
X2174517Y1797200D02*
X2179929D01*
X2174517Y1797300D02*
X2179929D01*
X2174517Y1797400D02*
X2179929D01*
X2174517Y1797500D02*
X2179929D01*
X2174518Y1797600D02*
X2179929D01*
X2174518Y1797700D02*
X2179930D01*
X2174518Y1797800D02*
X2179930D01*
X2174518Y1797900D02*
X2179930D01*
X2174518Y1798000D02*
X2179930D01*
X2174518Y1798100D02*
X2179930D01*
X2174519Y1798200D02*
X2179930D01*
X2174519Y1798300D02*
X2179931D01*
X2174519Y1798400D02*
X2179931D01*
X2174519Y1798500D02*
X2179931D01*
X2174519Y1798600D02*
X2179931D01*
X2174519Y1798700D02*
X2179931D01*
X2174520Y1798800D02*
X2179931D01*
X2174520Y1798900D02*
X2179932D01*
X2174520Y1799000D02*
X2179932D01*
X2174520Y1799100D02*
X2179932D01*
X2174520Y1799200D02*
X2179932D01*
X2174520Y1799300D02*
X2179932D01*
X2174521Y1799400D02*
X2179932D01*
X2174521Y1799500D02*
X2179933D01*
X2174521Y1799600D02*
X2179933D01*
X2174521Y1799700D02*
X2179933D01*
X2174521Y1799800D02*
X2179933D01*
X2174521Y1799900D02*
X2179933D01*
X2174522Y1800000D02*
X2179933D01*
X2174522Y1800100D02*
X2179934D01*
X2174522Y1800200D02*
X2179934D01*
X2174522Y1800300D02*
X2179934D01*
X2174522Y1800400D02*
X2179934D01*
X2174523Y1800500D02*
X2179934D01*
X2174523Y1800600D02*
X2179935D01*
X2174523Y1800700D02*
X2179935D01*
X2174523Y1800800D02*
X2179935D01*
X2174523Y1800900D02*
X2179935D01*
X2174523Y1801000D02*
X2179935D01*
X2174524Y1801100D02*
X2179935D01*
X2174524Y1801200D02*
X2179936D01*
X2174524Y1801300D02*
X2179936D01*
X2174524Y1801400D02*
X2179936D01*
X2174524Y1801500D02*
X2179936D01*
X2174524Y1801600D02*
X2179936D01*
X2174525Y1801700D02*
X2179936D01*
X2174525Y1801800D02*
X2179937D01*
X2174525Y1801900D02*
X2179937D01*
X2174525Y1802000D02*
X2179937D01*
X2174525Y1802100D02*
X2179937D01*
X2174525Y1802200D02*
X2179937D01*
X2174600Y1794070D02*
Y1802238D01*
X2174700Y1794070D02*
Y1802238D01*
X2174800Y1794070D02*
Y1802238D01*
X2174900Y1794070D02*
Y1802237D01*
X2175000Y1794070D02*
Y1802237D01*
X2175100Y1794069D02*
Y1802237D01*
X2175200Y1794069D02*
Y1802237D01*
X2175300Y1794069D02*
Y1802237D01*
X2175400Y1794069D02*
Y1802237D01*
X2175500Y1794069D02*
Y1802236D01*
X2175600Y1794069D02*
Y1802236D01*
X2175700Y1794068D02*
Y1802236D01*
X2175800Y1794068D02*
Y1802236D01*
X2175900Y1794068D02*
Y1802236D01*
X2176000Y1794068D02*
Y1802236D01*
X2176100Y1794068D02*
Y1802235D01*
X2176200Y1794067D02*
Y1802235D01*
X2176300Y1794067D02*
Y1802235D01*
X2176400Y1794067D02*
Y1802235D01*
X2176500Y1794067D02*
Y1802235D01*
X2176600Y1794067D02*
Y1802235D01*
X2176700Y1794067D02*
Y1802234D01*
X2176800Y1794066D02*
Y1802234D01*
X2176900Y1794066D02*
Y1802234D01*
X2177000Y1794066D02*
Y1802234D01*
X2177100Y1794066D02*
Y1802234D01*
X2177200Y1794066D02*
Y1802234D01*
X2177300Y1794066D02*
Y1802233D01*
X2177400Y1794065D02*
Y1802233D01*
X2177500Y1794065D02*
Y1802233D01*
X2177600Y1794065D02*
Y1802233D01*
X2177700Y1794065D02*
Y1802233D01*
X2177800Y1794065D02*
Y1802232D01*
X2177900Y1794065D02*
Y1802232D01*
X2178000Y1794064D02*
Y1802232D01*
X2178100Y1794064D02*
Y1802232D01*
X2178200Y1794064D02*
Y1802232D01*
X2178300Y1794064D02*
Y1802232D01*
X2178400Y1794064D02*
Y1802231D01*
X2178500Y1794064D02*
Y1802231D01*
X2178600Y1794063D02*
Y1802231D01*
X2178700Y1794063D02*
Y1802231D01*
X2178800Y1794063D02*
Y1802231D01*
X2178900Y1794063D02*
Y1802231D01*
X2179000Y1794063D02*
Y1802230D01*
X2179100Y1794063D02*
Y1802230D01*
X2179200Y1794062D02*
Y1802230D01*
X2179300Y1794062D02*
Y1802230D01*
X2179400Y1794062D02*
Y1802230D01*
X2179500Y1794062D02*
Y1802230D01*
X2179600Y1794062D02*
Y1802229D01*
X2179700Y1794062D02*
Y1802229D01*
X2179800Y1794061D02*
Y1802229D01*
X2179900Y1794061D02*
Y1802229D01*
X2169194Y1782543D02*
X2169213Y1774375D01*
X2174231Y1774386*
X2174212Y1782554*
X2169194Y1782543*
X2169213Y1774400D02*
X2174231D01*
X2169213Y1774500D02*
X2174231D01*
X2169212Y1774600D02*
X2174230D01*
X2169212Y1774700D02*
X2174230D01*
X2169212Y1774800D02*
X2174230D01*
X2169212Y1774900D02*
X2174230D01*
X2169211Y1775000D02*
X2174230D01*
X2169211Y1775100D02*
X2174229D01*
X2169211Y1775200D02*
X2174229D01*
X2169211Y1775300D02*
X2174229D01*
X2169211Y1775400D02*
X2174229D01*
X2169210Y1775500D02*
X2174228D01*
X2169210Y1775600D02*
X2174228D01*
X2169210Y1775700D02*
X2174228D01*
X2169210Y1775800D02*
X2174228D01*
X2169209Y1775900D02*
X2174228D01*
X2169209Y1776000D02*
X2174227D01*
X2169209Y1776100D02*
X2174227D01*
X2169209Y1776200D02*
X2174227D01*
X2169208Y1776300D02*
X2174227D01*
X2169208Y1776400D02*
X2174226D01*
X2169208Y1776500D02*
X2174226D01*
X2169208Y1776600D02*
X2174226D01*
X2169208Y1776700D02*
X2174226D01*
X2169207Y1776800D02*
X2174225D01*
X2169207Y1776900D02*
X2174225D01*
X2169207Y1777000D02*
X2174225D01*
X2169207Y1777100D02*
X2174225D01*
X2169206Y1777200D02*
X2174225D01*
X2169206Y1777300D02*
X2174224D01*
X2169206Y1777400D02*
X2174224D01*
X2169206Y1777500D02*
X2174224D01*
X2169206Y1777600D02*
X2174224D01*
X2169205Y1777700D02*
X2174223D01*
X2169205Y1777800D02*
X2174223D01*
X2169205Y1777900D02*
X2174223D01*
X2169205Y1778000D02*
X2174223D01*
X2169204Y1778100D02*
X2174222D01*
X2169204Y1778200D02*
X2174222D01*
X2169204Y1778300D02*
X2174222D01*
X2169204Y1778400D02*
X2174222D01*
X2169203Y1778500D02*
X2174222D01*
X2169203Y1778600D02*
X2174221D01*
X2169203Y1778700D02*
X2174221D01*
X2169203Y1778800D02*
X2174221D01*
X2169203Y1778900D02*
X2174221D01*
X2169202Y1779000D02*
X2174220D01*
X2169202Y1779100D02*
X2174220D01*
X2169202Y1779200D02*
X2174220D01*
X2169202Y1779300D02*
X2174220D01*
X2169201Y1779400D02*
X2174220D01*
X2169201Y1779500D02*
X2174219D01*
X2169201Y1779600D02*
X2174219D01*
X2169201Y1779700D02*
X2174219D01*
X2169200Y1779800D02*
X2174219D01*
X2169200Y1779900D02*
X2174218D01*
X2169200Y1780000D02*
X2174218D01*
X2169200Y1780100D02*
X2174218D01*
X2169200Y1780200D02*
X2174218D01*
X2169199Y1780300D02*
X2174217D01*
X2169199Y1780400D02*
X2174217D01*
X2169199Y1780500D02*
X2174217D01*
X2169199Y1780600D02*
X2174217D01*
X2169198Y1780700D02*
X2174217D01*
X2169198Y1780800D02*
X2174216D01*
X2169198Y1780900D02*
X2174216D01*
X2169198Y1781000D02*
X2174216D01*
X2169198Y1781100D02*
X2174216D01*
X2169197Y1781200D02*
X2174215D01*
X2169197Y1781300D02*
X2174215D01*
X2169197Y1781400D02*
X2174215D01*
X2169197Y1781500D02*
X2174215D01*
X2169196Y1781600D02*
X2174214D01*
X2169196Y1781700D02*
X2174214D01*
X2169196Y1781800D02*
X2174214D01*
X2169196Y1781900D02*
X2174214D01*
X2169195Y1782000D02*
X2174214D01*
X2169195Y1782100D02*
X2174213D01*
X2169195Y1782200D02*
X2174213D01*
X2169195Y1782300D02*
X2174213D01*
X2169195Y1782400D02*
X2174213D01*
X2169194Y1782500D02*
X2174212D01*
X2169200Y1780009D02*
Y1782543D01*
X2169300Y1774375D02*
Y1782543D01*
X2169400Y1774375D02*
Y1782543D01*
X2169500Y1774376D02*
Y1782543D01*
X2169600Y1774376D02*
Y1782544D01*
X2169700Y1774376D02*
Y1782544D01*
X2169800Y1774376D02*
Y1782544D01*
X2169900Y1774377D02*
Y1782544D01*
X2170000Y1774377D02*
Y1782545D01*
X2170100Y1774377D02*
Y1782545D01*
X2170200Y1774377D02*
Y1782545D01*
X2170300Y1774377D02*
Y1782545D01*
X2170400Y1774378D02*
Y1782545D01*
X2170500Y1774378D02*
Y1782546D01*
X2170600Y1774378D02*
Y1782546D01*
X2170700Y1774378D02*
Y1782546D01*
X2170800Y1774379D02*
Y1782546D01*
X2170900Y1774379D02*
Y1782547D01*
X2171000Y1774379D02*
Y1782547D01*
X2171100Y1774379D02*
Y1782547D01*
X2171200Y1774380D02*
Y1782547D01*
X2171300Y1774380D02*
Y1782547D01*
X2171400Y1774380D02*
Y1782548D01*
X2171500Y1774380D02*
Y1782548D01*
X2171600Y1774380D02*
Y1782548D01*
X2171700Y1774381D02*
Y1782548D01*
X2171800Y1774381D02*
Y1782549D01*
X2171900Y1774381D02*
Y1782549D01*
X2172000Y1774381D02*
Y1782549D01*
X2172100Y1774382D02*
Y1782549D01*
X2172200Y1774382D02*
Y1782550D01*
X2172300Y1774382D02*
Y1782550D01*
X2172400Y1774382D02*
Y1782550D01*
X2172500Y1774382D02*
Y1782550D01*
X2172600Y1774383D02*
Y1782550D01*
X2172700Y1774383D02*
Y1782551D01*
X2172800Y1774383D02*
Y1782551D01*
X2172900Y1774383D02*
Y1782551D01*
X2173000Y1774384D02*
Y1782551D01*
X2173100Y1774384D02*
Y1782552D01*
X2173200Y1774384D02*
Y1782552D01*
X2173300Y1774384D02*
Y1782552D01*
X2173400Y1774385D02*
Y1782552D01*
X2173500Y1774385D02*
Y1782553D01*
X2173600Y1774385D02*
Y1782553D01*
X2173700Y1774385D02*
Y1782553D01*
X2173800Y1774385D02*
Y1782553D01*
X2173900Y1774386D02*
Y1782553D01*
X2174000Y1774386D02*
Y1782554D01*
X2174100Y1774386D02*
Y1782554D01*
X2174200Y1774386D02*
Y1782554D01*
G54D15*
X1839764Y1761614D03*
X1820079D03*
Y1781299D03*
X1839764Y1781300D03*
G54D19*
X2028130Y1415000D03*
X2189180Y1506687D03*
X2211719Y1492513D03*
G54D20*
X1788110Y1767874D03*
Y1758819D03*
X2212244Y1759212D03*
Y1768267D03*
G54D22*
X1956323Y1435087D03*
G54D23*
X1795750Y1466100D03*
Y1472400D03*
G54D45*
X2093209Y1397815D03*
G54D57*
X2147944Y1429600D03*
X2198456D03*
G54D59*
X1848425Y1394193D03*
Y1405020D03*
G54D60*
X1816929Y1394193D03*
Y1419981D03*
X1848425Y1424902D03*
X1816929Y1428642D03*
G54D69*
X2133465Y1391722D03*
X2119488D03*
G54D71*
X2115748Y1401250D03*
X2137598Y1401093D03*
G54D76*
X2202382Y1790197D03*
X2209890Y1793209D03*
X2212890Y1800803D03*
X2194866Y1793244D03*
X2191921Y1800728D03*
X2194902Y1808354D03*
X2202378Y1811161D03*
X2209831Y1808248D03*
X1797657Y1388622D03*
X1805165Y1391634D03*
X1808165Y1399228D03*
X1790142Y1391669D03*
X1787197Y1399154D03*
X1790177Y1406780D03*
X1797654Y1409587D03*
X1805106Y1406673D03*
X2202382Y1388622D03*
X2209890Y1391634D03*
X2212890Y1399228D03*
X2194866Y1391669D03*
X2191921Y1399154D03*
X2194902Y1406780D03*
X2202378Y1409587D03*
X2209831Y1406673D03*
X1797657Y1790197D03*
X1805165Y1793209D03*
X1808165Y1800803D03*
X1790142Y1793244D03*
X1787197Y1800728D03*
X1790177Y1808354D03*
X1797654Y1811161D03*
X1805106Y1808248D03*
X2158200Y1431569D03*
X2163200Y1427631D03*
X2168200D03*
X2173200Y1431569D03*
X2178200Y1427631D03*
X2183200D03*
X2188200Y1431569D03*
G54D77*
X1905413Y1439763D03*
X1900815D03*
X1896815D03*
X1892815D03*
X1887815D03*
X1883815D03*
X1879815D03*
X1874815D03*
X1870815D03*
G54D82*
X1911476Y1738701D03*
G54D83*
X1906476Y1748701D03*
X1901476Y1738701D03*
X1896476Y1748701D03*
X1891476Y1738701D03*
X1886476Y1748701D03*
X1881476Y1738701D03*
X1876476Y1748701D03*
X1871476Y1738701D03*
X1866476Y1748701D03*
X1915118Y1792992D03*
X1905118D03*
X1872835D03*
X1862835D03*
G54D84*
X1866476Y1773701D03*
X1911476D03*
G54D85*
X2055118Y1794488D03*
X2033071D03*
X1858465Y1761693D03*
X1919488D03*
G54D110*
X1832677Y1424902D03*
G54D111*
X1793600Y1417600D03*
X2191969Y1772795D03*
G54D121*
X2196752Y1383366D02*
G75*
G03X2216437Y1403051I-0J19685D01*
G01Y1796949*
G03X2196752Y1816634I-19685J-0*
G01X1981791*
Y1816535*
X1969193*
Y1816634*
X1803248*
G03X1783563Y1796949I0J-19685*
G01Y1403138*
G03X1803248Y1383453I19685J-0*
G01X1825421*
Y1388398*
X1839839*
Y1383366*
X2196752*
G54D123*
X2212800Y1471900D03*
Y1477700D03*
Y1420700D03*
Y1426500D03*
X2112500Y1419200D03*
X2106700D03*
X2212800Y1446300D03*
Y1452100D03*
X1798100Y1417600D02*
G03X1798100I-4500J0D01*
G01X2196469Y1772795D02*
G03X2196469I-4500J0D01*
G01X1798100Y1417600D02*
G03X1798100I-4500J0D01*
G01X2196469Y1772795D02*
G03X2196469I-4500J0D01*
G01X1789191Y1418499D02*
X1798009D01*
X1789476Y1415799D02*
X1797724D01*
X1790898Y1421199D02*
X1796302D01*
X2187559Y1773694D02*
X2196378D01*
X2187845Y1770994D02*
X2196092D01*
X2189267Y1776394D02*
X2194670D01*
G54D136*
X2137600Y1592650D02*
X2170150D01*
Y1563350*
X2137600*
Y1592650*
Y1592509D02*
X2170150D01*
X2137600Y1592329D02*
X2170150D01*
X2137600Y1592149D02*
X2170150D01*
X2137600Y1591969D02*
X2170150D01*
X2137600Y1591789D02*
X2170150D01*
X2137600Y1591609D02*
X2170150D01*
X2137600Y1591429D02*
X2170150D01*
X2137600Y1591249D02*
X2170150D01*
X2137600Y1591069D02*
X2170150D01*
X2137600Y1590889D02*
X2170150D01*
X2137600Y1590709D02*
X2170150D01*
X2137600Y1590529D02*
X2170150D01*
X2137600Y1590349D02*
X2170150D01*
X2137600Y1590169D02*
X2170150D01*
X2137600Y1589989D02*
X2170150D01*
X2137600Y1589809D02*
X2170150D01*
X2137600Y1589629D02*
X2170150D01*
X2137600Y1589449D02*
X2170150D01*
X2137600Y1589269D02*
X2170150D01*
X2137600Y1589089D02*
X2170150D01*
X2137600Y1588909D02*
X2170150D01*
X2137600Y1588729D02*
X2170150D01*
X2137600Y1588549D02*
X2170150D01*
X2137600Y1588369D02*
X2170150D01*
X2137600Y1588189D02*
X2170150D01*
X2137600Y1588009D02*
X2170150D01*
X2137600Y1587829D02*
X2170150D01*
X2137600Y1587649D02*
X2170150D01*
X2137600Y1587469D02*
X2170150D01*
X2137600Y1587289D02*
X2170150D01*
X2137600Y1587109D02*
X2170150D01*
X2137600Y1586929D02*
X2170150D01*
X2137600Y1586749D02*
X2170150D01*
X2137600Y1586569D02*
X2170150D01*
X2137600Y1586389D02*
X2170150D01*
X2137600Y1586209D02*
X2170150D01*
X2137600Y1586029D02*
X2170150D01*
X2137600Y1585849D02*
X2170150D01*
X2137600Y1585669D02*
X2170150D01*
X2137600Y1585489D02*
X2170150D01*
X2137600Y1585309D02*
X2170150D01*
X2137600Y1585129D02*
X2170150D01*
X2137600Y1584949D02*
X2170150D01*
X2137600Y1584769D02*
X2170150D01*
X2137600Y1584589D02*
X2170150D01*
X2137600Y1584409D02*
X2170150D01*
X2137600Y1584229D02*
X2170150D01*
X2137600Y1584049D02*
X2170150D01*
X2137600Y1583869D02*
X2170150D01*
X2137600Y1583689D02*
X2170150D01*
X2137600Y1583509D02*
X2170150D01*
X2137600Y1583329D02*
X2170150D01*
X2137600Y1583149D02*
X2170150D01*
X2137600Y1582969D02*
X2170150D01*
X2137600Y1582789D02*
X2170150D01*
X2137600Y1582609D02*
X2170150D01*
X2137600Y1582429D02*
X2170150D01*
X2137600Y1582249D02*
X2170150D01*
X2137600Y1582069D02*
X2170150D01*
X2137600Y1581889D02*
X2170150D01*
X2137600Y1581709D02*
X2170150D01*
X2137600Y1581529D02*
X2170150D01*
X2137600Y1581349D02*
X2170150D01*
X2137600Y1581169D02*
X2170150D01*
X2137600Y1580989D02*
X2170150D01*
X2137600Y1580809D02*
X2170150D01*
X2137600Y1580629D02*
X2170150D01*
X2137600Y1580449D02*
X2170150D01*
X2137600Y1580269D02*
X2170150D01*
X2137600Y1580089D02*
X2170150D01*
X2137600Y1579909D02*
X2170150D01*
X2137600Y1579729D02*
X2170150D01*
X2137600Y1579549D02*
X2170150D01*
X2137600Y1579369D02*
X2170150D01*
X2137600Y1579189D02*
X2170150D01*
X2137600Y1579009D02*
X2170150D01*
X2137600Y1578829D02*
X2170150D01*
X2137600Y1578649D02*
X2170150D01*
X2137600Y1578469D02*
X2170150D01*
X2137600Y1578289D02*
X2170150D01*
X2137600Y1578109D02*
X2170150D01*
X2137600Y1577929D02*
X2170150D01*
X2137600Y1577749D02*
X2170150D01*
X2137600Y1577569D02*
X2170150D01*
X2137600Y1577389D02*
X2170150D01*
X2137600Y1577209D02*
X2170150D01*
X2137600Y1577029D02*
X2170150D01*
X2137600Y1576849D02*
X2170150D01*
X2137600Y1576669D02*
X2170150D01*
X2137600Y1576489D02*
X2170150D01*
X2137600Y1576309D02*
X2170150D01*
X2137600Y1576129D02*
X2170150D01*
X2137600Y1575949D02*
X2170150D01*
X2137600Y1575769D02*
X2170150D01*
X2137600Y1575589D02*
X2170150D01*
X2137600Y1575409D02*
X2170150D01*
X2137600Y1575229D02*
X2170150D01*
X2137600Y1575049D02*
X2170150D01*
X2137600Y1574869D02*
X2170150D01*
X2137600Y1574689D02*
X2170150D01*
X2137600Y1574509D02*
X2170150D01*
X2137600Y1574329D02*
X2170150D01*
X2137600Y1574149D02*
X2170150D01*
X2137600Y1573969D02*
X2170150D01*
X2137600Y1573789D02*
X2170150D01*
X2137600Y1573609D02*
X2170150D01*
X2137600Y1573429D02*
X2170150D01*
X2137600Y1573249D02*
X2170150D01*
X2137600Y1573069D02*
X2170150D01*
X2137600Y1572889D02*
X2170150D01*
X2137600Y1572709D02*
X2170150D01*
X2137600Y1572529D02*
X2170150D01*
X2137600Y1572349D02*
X2170150D01*
X2137600Y1572169D02*
X2170150D01*
X2137600Y1571989D02*
X2170150D01*
X2137600Y1571809D02*
X2170150D01*
X2137600Y1571629D02*
X2170150D01*
X2137600Y1571449D02*
X2170150D01*
X2137600Y1571269D02*
X2170150D01*
X2137600Y1571089D02*
X2170150D01*
X2137600Y1570909D02*
X2170150D01*
X2137600Y1570729D02*
X2170150D01*
X2137600Y1570549D02*
X2170150D01*
X2137600Y1570369D02*
X2170150D01*
X2137600Y1570189D02*
X2170150D01*
X2137600Y1570009D02*
X2170150D01*
X2137600Y1569829D02*
X2170150D01*
X2137600Y1569649D02*
X2170150D01*
X2137600Y1569469D02*
X2170150D01*
X2137600Y1569289D02*
X2170150D01*
X2137600Y1569109D02*
X2170150D01*
X2137600Y1568929D02*
X2170150D01*
X2137600Y1568749D02*
X2170150D01*
X2137600Y1568569D02*
X2170150D01*
X2137600Y1568389D02*
X2170150D01*
X2137600Y1568209D02*
X2170150D01*
X2137600Y1568029D02*
X2170150D01*
X2137600Y1567849D02*
X2170150D01*
X2137600Y1567669D02*
X2170150D01*
X2137600Y1567489D02*
X2170150D01*
X2137600Y1567309D02*
X2170150D01*
X2137600Y1567129D02*
X2170150D01*
X2137600Y1566949D02*
X2170150D01*
X2137600Y1566769D02*
X2170150D01*
X2137600Y1566589D02*
X2170150D01*
X2137600Y1566409D02*
X2170150D01*
X2137600Y1566229D02*
X2170150D01*
X2137600Y1566049D02*
X2170150D01*
X2137600Y1565869D02*
X2170150D01*
X2137600Y1565689D02*
X2170150D01*
X2137600Y1565509D02*
X2170150D01*
X2137600Y1565329D02*
X2170150D01*
X2137600Y1565149D02*
X2170150D01*
X2137600Y1564969D02*
X2170150D01*
X2137600Y1564789D02*
X2170150D01*
X2137600Y1564609D02*
X2170150D01*
X2137600Y1564429D02*
X2170150D01*
X2137600Y1564249D02*
X2170150D01*
X2137600Y1564069D02*
X2170150D01*
X2137600Y1563889D02*
X2170150D01*
X2137600Y1563709D02*
X2170150D01*
X2137600Y1563529D02*
X2170150D01*
G54D152*
X1829921Y1771457D03*
G54D153*
X2057657Y1415000D03*
G54D154*
X2075504D03*
X2010614D03*
G54D155*
X2202362Y1800787D03*
X1797638Y1399213D03*
X2202362D03*
X1797638Y1800787D03*
G54D156*
X2083209Y1397815D03*
X2103209D03*
G54D157*
X1864362Y1435826D03*
G54D158*
X1865543Y1398031D03*
X1927567D03*
G54D159*
X1924811Y1435826D03*
G54D160*
X2205321Y1499600D03*
G54D161*
X2195479D03*
G54D162*
X2209896Y1523281D03*
G54D163*
X2115630Y1763530D03*
X2105787D03*
X2097913Y1753215D03*
Y1763530D03*
X2088071Y1753215D03*
Y1763530D03*
X2199450Y1713281D03*
X2209896D03*
X2199450Y1703281D03*
X2209896D03*
X2199450Y1693281D03*
X2209896D03*
X2199450Y1683281D03*
X2209896D03*
X2199450Y1673281D03*
X2209896D03*
X2199450Y1663281D03*
X2209896D03*
X2199450Y1653281D03*
X2209896D03*
X2199450Y1643281D03*
X2209896D03*
X2199450Y1633281D03*
X2209896D03*
X2199450Y1623281D03*
X2209896D03*
X2199450Y1613281D03*
X2209896D03*
X2199450Y1603281D03*
X2209896D03*
X2199450Y1593281D03*
X2209896D03*
X2199450Y1583281D03*
X2209896D03*
X2199450Y1573281D03*
X2209896D03*
X2199450Y1563281D03*
X2209896D03*
X2199450Y1553281D03*
X2209896D03*
X2199450Y1543281D03*
X2209896D03*
X2199450Y1533281D03*
X2209896D03*
X2199450Y1523281D03*
G54D164*
X2123600Y1436400D03*
G54D165*
X2113600D03*
X2103600D03*
X2093600D03*
G54D166*
X2121457Y1402077D03*
X2124016D03*
X2126575Y1402057D03*
X2129134Y1402077D03*
X2131693D03*
G54D167*
X2113583Y1391526D03*
X2139370D03*
G54D168*
X1957677Y1770079D03*
G54D169*
X1963583D03*
X1969488D03*
G54D170*
X1945472Y1802756D03*
X2007283D03*
G54D172*
X2034094Y1784291D03*
X2054094D03*
G54D173*
Y1774409D03*
X2044094D03*
X2034094D03*
G54D174*
X1966165Y1435087D03*
X1974039D03*
X1983882D03*
G54D175*
X1996087Y1424457D03*
X1943724D03*
X2075984Y1751837D03*
Y1774199D03*
X2127717Y1751837D03*
Y1774199D03*
G54D176*
X2115630Y1753215D03*
X2105787D03*
G54D177*
X2178058Y1395079D03*
X2160342D03*
G54D178*
X2182980Y1404921D03*
X2155420D03*
G54D179*
X1786917Y1778701D03*
X1786925Y1747992D03*
X2213437Y1748386D03*
X2213430Y1779094D03*
G54D180*
X1794803Y1771614D03*
Y1755079D03*
X2205552Y1755472D03*
Y1772008D03*
G54D181*
X2166201Y1798150D03*
G54D182*
X2168366Y1766654D03*
G54D183*
X2154587Y1768622D03*
G54D184*
X1852829Y1712660D03*
X2147629D03*
G54D185*
X2159448Y1509153D03*
X2158464Y1476870D03*
X2157480Y1509153D03*
X2156496Y1476870D03*
X2155511Y1509153D03*
X2154527Y1476870D03*
X2153543Y1509153D03*
X2152559Y1476870D03*
X2151574Y1509153D03*
X2150590Y1476870D03*
X2149606Y1509153D03*
X2148622Y1476870D03*
X2147637Y1509153D03*
X2146653Y1476870D03*
X2145669Y1509153D03*
X2144685Y1476870D03*
X2143700Y1509153D03*
X2142716Y1476870D03*
X2137795Y1509153D03*
X2136811Y1476870D03*
X2135826Y1509153D03*
X2134842Y1476870D03*
X2133858Y1509153D03*
X2132874Y1476870D03*
X2131889Y1509153D03*
X2130905Y1476870D03*
X2129921Y1509153D03*
X2128937Y1476870D03*
X2127952Y1509153D03*
X2126968Y1476870D03*
X2125984Y1509153D03*
X2125000Y1476870D03*
X2124015Y1509153D03*
X2123031Y1476870D03*
X2122047Y1509153D03*
X2121063Y1476870D03*
X2120078Y1509153D03*
X2119094Y1476870D03*
X2118110Y1509153D03*
X2117125Y1476870D03*
X2116141Y1509153D03*
X2115157Y1476870D03*
X2114173Y1509153D03*
X2113188Y1476870D03*
X2112204Y1509153D03*
X2111220Y1476870D03*
X2110236Y1509153D03*
X2109251Y1476870D03*
X2108267Y1509153D03*
X2107283Y1476870D03*
X2106299Y1509153D03*
X2105314Y1476870D03*
X2104330Y1509153D03*
X2103346Y1476870D03*
X2102362Y1509153D03*
X2101377Y1476870D03*
X2100393Y1509153D03*
X2099409Y1476870D03*
X2098425Y1509153D03*
X2097440Y1476870D03*
X2096456Y1509153D03*
X2095472Y1476870D03*
X2094488Y1509153D03*
X2093503Y1476870D03*
X2092519Y1509153D03*
X2091535Y1476870D03*
X2090551Y1509153D03*
X2089566Y1476870D03*
X2088582Y1509153D03*
X2087598Y1476870D03*
X2086614Y1509153D03*
X2085629Y1476870D03*
X2084645Y1509153D03*
X2083661Y1476870D03*
X2082677Y1509153D03*
X2081692Y1476870D03*
X2080708Y1509153D03*
X2079724Y1476870D03*
X2078740Y1509153D03*
X2077755Y1476870D03*
X2076771Y1509153D03*
X2075787Y1476870D03*
X2074803Y1509153D03*
X2073818Y1476870D03*
X2072834Y1509153D03*
X2071850Y1476870D03*
X2070866Y1509153D03*
X2069881Y1476870D03*
X2068897Y1509153D03*
X2067913Y1476870D03*
X2066929Y1509153D03*
X2065944Y1476870D03*
X2064960Y1509153D03*
X2063976Y1476870D03*
X2062992Y1509153D03*
X2062007Y1476870D03*
X2061023Y1509153D03*
X2060039Y1476870D03*
X2059055Y1509153D03*
X2058070Y1476870D03*
X2057086Y1509153D03*
X2056102Y1476870D03*
X2055118Y1509153D03*
X2054133Y1476870D03*
X2053149Y1509153D03*
X2052165Y1476870D03*
X2051181Y1509153D03*
X2050196Y1476870D03*
X2049212Y1509153D03*
X2048228Y1476870D03*
X2047244Y1509153D03*
X2046259Y1476870D03*
X2045275Y1509153D03*
X2044291Y1476870D03*
X2043307Y1509153D03*
X2042322Y1476870D03*
X2041338Y1509153D03*
X2040354Y1476870D03*
X2039370Y1509153D03*
X2038385Y1476870D03*
X2037401Y1509153D03*
X2036417Y1476870D03*
X2035433Y1509153D03*
X2034448Y1476870D03*
X2033464Y1509153D03*
X2032480Y1476870D03*
X2031496Y1509153D03*
X2030511Y1476870D03*
X2029527Y1509153D03*
X2028543Y1476870D03*
X2027559Y1509153D03*
X2026574Y1476870D03*
X2025590Y1509153D03*
X2024606Y1476870D03*
X2023622Y1509153D03*
X2022637Y1476870D03*
X2021653Y1509153D03*
X2020669Y1476870D03*
X2019685Y1509153D03*
X2018700Y1476870D03*
X2017716Y1509153D03*
X2016732Y1476870D03*
X2015748Y1509153D03*
X2014763Y1476870D03*
X2013779Y1509153D03*
X2012795Y1476870D03*
X2011811Y1509153D03*
X2010826Y1476870D03*
X2009842Y1509153D03*
X2008858Y1476870D03*
X2007874Y1509153D03*
X2006889Y1476870D03*
X2005905Y1509153D03*
X2004921Y1476870D03*
X2003937Y1509153D03*
X2002952Y1476870D03*
X2001968Y1509153D03*
X2000984Y1476870D03*
X2000000Y1509153D03*
X1999015Y1476870D03*
X1998031Y1509153D03*
X1990157D03*
X1989173Y1476870D03*
X1988188Y1509153D03*
X1987204Y1476870D03*
X1986220Y1509153D03*
X1985236Y1476870D03*
X1984251Y1509153D03*
X1983267Y1476870D03*
X1982283Y1509153D03*
X1981299Y1476870D03*
X1980314Y1509153D03*
X1979330Y1476870D03*
X1978346Y1509153D03*
X1977362Y1476870D03*
X1976377Y1509153D03*
X1975393Y1476870D03*
X1974409Y1509153D03*
X1973425Y1476870D03*
X1972440Y1509153D03*
X1971456Y1476870D03*
X1970472Y1509153D03*
X1969488Y1476870D03*
X1968503Y1509153D03*
X1967519Y1476870D03*
X1966535Y1509153D03*
X1965551Y1476870D03*
X1964566Y1509153D03*
X1963582Y1476870D03*
X1962598Y1509153D03*
X1961614Y1476870D03*
X1960629Y1509153D03*
X1959645Y1476870D03*
X1958661Y1509153D03*
X1957677Y1476870D03*
X1956692Y1509153D03*
X1955708Y1476870D03*
X1954724Y1509153D03*
X1953740Y1476870D03*
X1952755Y1509153D03*
X1951771Y1476870D03*
X1950787Y1509153D03*
X1949803Y1476870D03*
X1948818Y1509153D03*
X1947834Y1476870D03*
X1946850Y1509153D03*
X1945866Y1476870D03*
X1944881Y1509153D03*
X1943897Y1476870D03*
X1942913Y1509153D03*
X1941929Y1476870D03*
X1940944Y1509153D03*
X1939960Y1476870D03*
X1938976Y1509153D03*
X1937992Y1476870D03*
X1937007Y1509153D03*
X1936023Y1476870D03*
X1935039Y1509153D03*
X1934055Y1476870D03*
X1933070Y1509153D03*
X1932086Y1476870D03*
X1931102Y1509153D03*
X1930118Y1476870D03*
X1929133Y1509153D03*
X1928149Y1476870D03*
X1927165Y1509153D03*
X1926181Y1476870D03*
X1925196Y1509153D03*
X1924212Y1476870D03*
X1923228Y1509153D03*
X1922244Y1476870D03*
X1921259Y1509153D03*
X1920275Y1476870D03*
X1919291Y1509153D03*
X1918307Y1476870D03*
X1917322Y1509153D03*
X1916338Y1476870D03*
X1915354Y1509153D03*
X1914370Y1476870D03*
X1913385Y1509153D03*
X1912401Y1476870D03*
X1911417Y1509153D03*
X1910433Y1476870D03*
X1909448Y1509153D03*
X1908464Y1476870D03*
X1907480Y1509153D03*
X1906496Y1476870D03*
X1905511Y1509153D03*
X1904527Y1476870D03*
X1903543Y1509153D03*
X1902559Y1476870D03*
X1901574Y1509153D03*
X1900590Y1476870D03*
X1899606Y1509153D03*
X1898622Y1476870D03*
X1897637Y1509153D03*
X1896653Y1476870D03*
X1895669Y1509153D03*
X1894685Y1476870D03*
X1893700Y1509153D03*
X1892716Y1476870D03*
X1891732Y1509153D03*
X1890748Y1476870D03*
X1889763Y1509153D03*
X1888779Y1476870D03*
X1887795Y1509153D03*
X1886811Y1476870D03*
X1885826Y1509153D03*
X1884842Y1476870D03*
X1883858Y1509153D03*
X1882874Y1476870D03*
X1881889Y1509153D03*
X1880905Y1476870D03*
X1879921Y1509153D03*
X1878937Y1476870D03*
X1877952Y1509153D03*
X1876968Y1476870D03*
X1875984Y1509153D03*
X1875000Y1476870D03*
X1874015Y1509153D03*
X1873031Y1476870D03*
X1872047Y1509153D03*
X1871063Y1476870D03*
X1870078Y1509153D03*
X1869094Y1476870D03*
X1868110Y1509153D03*
X1867125Y1476870D03*
X1866141Y1509153D03*
X1865157Y1476870D03*
X1864173Y1509153D03*
X1863188Y1476870D03*
X1862204Y1509153D03*
X1861220Y1476870D03*
X1860236Y1509153D03*
X1859251Y1476870D03*
X1858267Y1509153D03*
X1857283Y1476870D03*
X1856299Y1509153D03*
X1855314Y1476870D03*
X1854330Y1509153D03*
X1853346Y1476870D03*
X1852362Y1509153D03*
X1851377Y1476870D03*
X1850393Y1509153D03*
X1849409Y1476870D03*
X1848425Y1509153D03*
X1847440Y1476870D03*
X1846456Y1509153D03*
X1845472Y1476870D03*
X1844488Y1509153D03*
G54D186*
X2175000Y1493012D03*
X1828937D03*
G54D187*
X2163385Y1488681D03*
G54D188*
X1791496Y1712598D03*
G54D205*
X1801500Y1779500D03*
X2201000D03*
G54D226*
X1960630Y1775984D03*
X1963583Y1781890D03*
X1966535Y1775984D03*
X1969488Y1781890D03*
X1972441Y1775984D03*
X1975394Y1770079D03*
Y1781890D03*
X1978346Y1775984D03*
X1981299Y1781890D03*
Y1770079D03*
X1984252Y1775984D03*
X1987205Y1770079D03*
Y1781890D03*
X1990157Y1775984D03*
X1993110Y1781890D03*
Y1770079D03*
G54D227*
X1976378Y1795669D03*
G54D228*
X1799370Y1712598D03*
X1791496Y1704724D03*
X1799370D03*
X1791496Y1696850D03*
X1799370D03*
X1791496Y1688976D03*
X1799370D03*
X1791496Y1681102D03*
X1799370D03*
X1791496Y1673228D03*
X1799370D03*
X1791496Y1665354D03*
X1799370D03*
X1791496Y1657480D03*
X1799370D03*
X1791496Y1649606D03*
X1799370D03*
X1791496Y1641732D03*
X1799370D03*
X1791496Y1633858D03*
X1799370D03*
X1791496Y1625984D03*
X1799370D03*
X1791496Y1618110D03*
X1799370D03*
X1791496Y1610236D03*
X1799370D03*
X1791496Y1602362D03*
X1799370D03*
X1791496Y1594488D03*
X1799370D03*
X1791496Y1586614D03*
X1799370D03*
X1791496Y1578740D03*
X1799370D03*
X1791496Y1570866D03*
X1799370D03*
X1791496Y1562992D03*
X1799370D03*
X1791496Y1555118D03*
X1799370D03*
X1791496Y1547244D03*
X1799370D03*
X1791496Y1539370D03*
X1799370D03*
X1791496Y1531496D03*
X1799370D03*
X1791496Y1523622D03*
X1799370D03*
G54D230*
X1908556Y1396444D03*
X1877062Y1396453D03*
G54D231*
X1840551Y1488681D03*
G74*
X0Y0D02*
M02*
