*
*
G04 PADS 9.5 Build Number: 522968 generated Gerber (RS-274-X) file*
G04 PC Version=2.1*
*
%IN "RADXA_ROCK2_BASEBD-1503"*%
*
%MOIN*%
*
%FSLAX35Y35*%
*
*
*
*
G04 PC Standard Apertures*
*
*
G04 Thermal Relief Aperture macro.*
%AMTER*
1,1,$1,0,0*
1,0,$1-$2,0,0*
21,0,$3,$4,0,0,45*
21,0,$3,$4,0,0,135*
%
*
*
G04 Annular Aperture macro.*
%AMANN*
1,1,$1,0,0*
1,0,$2,0,0*
%
*
*
G04 Odd Aperture macro.*
%AMODD*
1,1,$1,0,0*
1,0,$1-0.005,0,0*
%
*
*
G04 PC Custom Aperture Macros*
*
*
*
*
*
*
G04 PC Aperture Table*
*
%ADD010C,0.001*%
%ADD121C,0.006*%
%ADD125C,0.012*%
%ADD127C,0.008*%
%ADD136C,0.002*%
%ADD138C,0.005*%
%ADD151C,0.01181*%
*
*
*
*
G04 PC Copper Outlines (0)*
G04 Layer Name RADXA_ROCK2_BASEBD-1503 - dark (0)*
%LPD*%
*
*
G04 PC Area=DRW78527653*
G75*
G36*
G01*
X2056538Y1519565D02*
Y1519599D01*
Y1533109D01*
X2056528Y1533301D01*
X2056506Y1533492D01*
X2056473Y1533681D01*
X2056429Y1533868D01*
X2056373Y1534052D01*
X2056307Y1534232D01*
X2056229Y1534408D01*
X2056142Y1534579D01*
X2056044Y1534745D01*
X2055937Y1534904D01*
X2055820Y1535057D01*
X2055694Y1535202D01*
X2055559Y1535339D01*
X2055417Y1535468D01*
X2055267Y1535589D01*
X2055110Y1535700D01*
X2054947Y1535801D01*
X2054778Y1535893D01*
X2054604Y1535974D01*
X2054425Y1536044D01*
X2054242Y1536104D01*
X2054056Y1536152D01*
X2053867Y1536190D01*
X2053677Y1536216D01*
X2053485Y1536230D01*
X2043899D01*
X2043709Y1536219D01*
X2043520Y1536197D01*
X2043333Y1536162D01*
X2043148Y1536117D01*
X2042967Y1536060D01*
X2042789Y1535992D01*
X2042616Y1535913D01*
X2042448Y1535824D01*
X2042286Y1535724D01*
X2042130Y1535614D01*
X2041982Y1535496D01*
X2041841Y1535368D01*
X2041708Y1535232D01*
X2041584Y1535087D01*
X2041469Y1534936D01*
X2041364Y1534777D01*
X2041268Y1534613D01*
X2041183Y1534443D01*
X2041109Y1534268D01*
X2041046Y1534088D01*
X2040993Y1533905D01*
X2040953Y1533720D01*
X2040923Y1533532D01*
X2040906Y1533342D01*
X2040900Y1533152D01*
X2040904Y1532990D01*
X2040917Y1532829D01*
X2040938Y1532669D01*
X2040968Y1532510D01*
X2051208D01*
Y1516620D01*
X2053558D01*
X2053745Y1516624D01*
X2053930Y1516639D01*
X2054115Y1516666D01*
X2054297Y1516705D01*
X2054477Y1516755D01*
X2054653Y1516817D01*
X2054824Y1516890D01*
X2054991Y1516973D01*
X2055152Y1517066D01*
X2055307Y1517170D01*
X2055455Y1517283D01*
X2055596Y1517406D01*
X2055728Y1517537D01*
X2055852Y1517676D01*
X2055967Y1517823D01*
X2056073Y1517976D01*
X2056168Y1518136D01*
X2056253Y1518302D01*
X2056328Y1518473D01*
X2056392Y1518648D01*
X2056444Y1518827D01*
X2056485Y1519009D01*
X2056514Y1519193D01*
X2056532Y1519379D01*
X2056538Y1519565D01*
G37*
G74*
*
*
G04 PC Copper Outlines (1)*
G04 Layer Name RADXA_ROCK2_BASEBD-1503 - dark (1)*
%LPD*%
*
*
G04 PC Area=DRW64232042*
G75*
G36*
G01*
X2039813Y1525210D02*
X2039807Y1525426D01*
X2039789Y1525641D01*
X2039758Y1525854D01*
X2039716Y1526066D01*
X2039662Y1526275D01*
X2039597Y1526480D01*
X2039520Y1526682D01*
X2039432Y1526879D01*
X2039333Y1527070D01*
X2039223Y1527256D01*
X2039104Y1527435D01*
X2038974Y1527608D01*
X2038835Y1527772D01*
X2038687Y1527929D01*
X2038530Y1528077D01*
X2038365Y1528216D01*
X2038193Y1528346D01*
X2038013Y1528466D01*
X2037828Y1528576D01*
X2037636Y1528675D01*
X2037439Y1528763D01*
X2037238Y1528840D01*
X2037032Y1528905D01*
X2036823Y1528959D01*
X2036612Y1529001D01*
X2036398Y1529031D01*
X2036183Y1529049D01*
X2035968Y1529055D01*
X2027343D01*
Y1524702D01*
X2027348Y1524623D01*
X2027365Y1524545D01*
X2027393Y1524471D01*
X2027431Y1524401D01*
X2027479Y1524337D01*
X2027535Y1524281D01*
X2027598Y1524234D01*
X2027668Y1524196D01*
X2027743Y1524168D01*
X2027820Y1524151D01*
X2027899Y1524145D01*
X2033912D01*
X2034003Y1524134D01*
X2034092Y1524112D01*
X2034177Y1524080D01*
X2034258Y1524037D01*
X2034334Y1523985D01*
X2034402Y1523925D01*
X2034463Y1523856D01*
X2034515Y1523781D01*
X2034557Y1523700D01*
X2034590Y1523614D01*
X2034612Y1523525D01*
X2034623Y1523435D01*
Y1521856D01*
X2034612Y1521765D01*
X2034590Y1521676D01*
X2034557Y1521591D01*
X2034515Y1521510D01*
X2034463Y1521434D01*
X2034402Y1521366D01*
X2034334Y1521305D01*
X2034258Y1521253D01*
X2034177Y1521211D01*
X2034092Y1521178D01*
X2034003Y1521156D01*
X2033912Y1521145D01*
X2026314D01*
X2026223Y1521156D01*
X2026134Y1521178D01*
X2026048Y1521211D01*
X2025967Y1521253D01*
X2025892Y1521305D01*
X2025823Y1521366D01*
X2025763Y1521434D01*
X2025711Y1521510D01*
X2025668Y1521591D01*
X2025636Y1521676D01*
X2025614Y1521765D01*
X2025603Y1521856D01*
Y1532265D01*
X2037853D01*
Y1532794D01*
X2037841Y1532997D01*
X2037818Y1533199D01*
X2037782Y1533400D01*
X2037734Y1533597D01*
X2037674Y1533792D01*
X2037602Y1533982D01*
X2037519Y1534168D01*
X2037425Y1534348D01*
X2037320Y1534523D01*
X2037204Y1534690D01*
X2037079Y1534851D01*
X2036944Y1535003D01*
X2036800Y1535147D01*
X2036648Y1535282D01*
X2036488Y1535407D01*
X2036320Y1535522D01*
X2036146Y1535627D01*
X2035965Y1535722D01*
X2035780Y1535805D01*
X2035589Y1535876D01*
X2035395Y1535936D01*
X2035197Y1535984D01*
X2034997Y1536020D01*
X2034795Y1536044D01*
X2034591Y1536055D01*
X2023295D01*
X2023100Y1536049D01*
X2022905Y1536032D01*
X2022712Y1536002D01*
X2022521Y1535961D01*
X2022333Y1535909D01*
X2022149Y1535845D01*
X2021968Y1535771D01*
X2021793Y1535685D01*
X2021623Y1535589D01*
X2021459Y1535483D01*
X2021302Y1535368D01*
X2021152Y1535243D01*
X2021009Y1535109D01*
X2020876Y1534967D01*
X2020751Y1534817D01*
X2020635Y1534659D01*
X2020529Y1534495D01*
X2020433Y1534325D01*
X2020347Y1534150D01*
X2020273Y1533969D01*
X2020209Y1533785D01*
X2020157Y1533597D01*
X2020116Y1533406D01*
X2020086Y1533213D01*
X2020069Y1533018D01*
X2020063Y1532823D01*
Y1519754D01*
X2020069Y1519554D01*
X2020086Y1519354D01*
X2020115Y1519155D01*
X2020156Y1518959D01*
X2020208Y1518765D01*
X2020271Y1518575D01*
X2020345Y1518388D01*
X2020430Y1518206D01*
X2020525Y1518030D01*
X2020630Y1517859D01*
X2020745Y1517695D01*
X2020870Y1517537D01*
X2021003Y1517388D01*
X2021145Y1517246D01*
X2021295Y1517112D01*
X2021452Y1516988D01*
X2021616Y1516873D01*
X2021787Y1516767D01*
X2021964Y1516672D01*
X2022146Y1516587D01*
X2022332Y1516513D01*
X2022523Y1516450D01*
X2022716Y1516398D01*
X2022913Y1516358D01*
X2023111Y1516329D01*
X2023311Y1516311D01*
X2023512Y1516305D01*
X2037383D01*
X2037556Y1516312D01*
X2037729Y1516330D01*
X2037899Y1516361D01*
X2038068Y1516404D01*
X2038232Y1516459D01*
X2038392Y1516525D01*
X2038547Y1516603D01*
X2038697Y1516691D01*
X2038839Y1516790D01*
X2038974Y1516899D01*
X2039101Y1517017D01*
X2039219Y1517144D01*
X2039328Y1517279D01*
X2039427Y1517422D01*
X2039516Y1517571D01*
X2039593Y1517726D01*
X2039660Y1517886D01*
X2039714Y1518051D01*
X2039757Y1518219D01*
X2039788Y1518389D01*
X2039807Y1518562D01*
X2039813Y1518735D01*
Y1525210D01*
G37*
G74*
*
*
G04 PC Copper Outlines (2)*
G04 Layer Name RADXA_ROCK2_BASEBD-1503 - dark (2)*
%LPD*%
*
*
G04 PC Area=DRW30544443*
G75*
G36*
G01*
X2017577Y1532042D02*
X2017571Y1532259D01*
X2017553Y1532475D01*
X2017523Y1532689D01*
X2017480Y1532902D01*
X2017426Y1533112D01*
X2017360Y1533318D01*
X2017283Y1533521D01*
X2017194Y1533719D01*
X2017095Y1533911D01*
X2016985Y1534098D01*
X2016864Y1534278D01*
X2016734Y1534451D01*
X2016594Y1534617D01*
X2016445Y1534775D01*
X2016288Y1534924D01*
X2016122Y1535063D01*
X2015949Y1535194D01*
X2015769Y1535314D01*
X2015582Y1535424D01*
X2015389Y1535524D01*
X2015191Y1535612D01*
X2014989Y1535690D01*
X2014782Y1535756D01*
X2014572Y1535810D01*
X2014360Y1535852D01*
X2014145Y1535882D01*
X2013929Y1535901D01*
X2013712Y1535907D01*
X2003987D01*
Y1530298D01*
X2005386Y1531697D01*
X2009140D01*
X2009333Y1531685D01*
X2009526Y1531662D01*
X2009716Y1531627D01*
X2009904Y1531580D01*
X2010089Y1531523D01*
X2010270Y1531454D01*
X2010447Y1531375D01*
X2010618Y1531285D01*
X2010784Y1531184D01*
X2010943Y1531074D01*
X2011095Y1530955D01*
X2011240Y1530827D01*
X2011377Y1530690D01*
X2011506Y1530545D01*
X2011625Y1530392D01*
X2011735Y1530233D01*
X2011835Y1530067D01*
X2011925Y1529896D01*
X2012005Y1529719D01*
X2012073Y1529538D01*
X2012131Y1529354D01*
X2012177Y1529166D01*
X2012212Y1528975D01*
X2012235Y1528783D01*
X2012247Y1528590D01*
Y1523312D01*
X2012235Y1523111D01*
X2012211Y1522912D01*
X2012175Y1522714D01*
X2012126Y1522519D01*
X2012067Y1522327D01*
X2011995Y1522139D01*
X2011913Y1521956D01*
X2011820Y1521778D01*
X2011716Y1521606D01*
X2011601Y1521440D01*
X2011477Y1521282D01*
X2011344Y1521132D01*
X2011202Y1520990D01*
X2011052Y1520856D01*
X2010893Y1520732D01*
X2010728Y1520618D01*
X2010556Y1520514D01*
X2010378Y1520421D01*
X2010195Y1520338D01*
X2010007Y1520267D01*
X2009815Y1520207D01*
X2009620Y1520159D01*
X2009422Y1520123D01*
X2009223Y1520099D01*
X2009022Y1520087D01*
X2005294D01*
X2005100Y1520098D01*
X2004907Y1520122D01*
X2004716Y1520157D01*
X2004527Y1520203D01*
X2004342Y1520261D01*
X2004160Y1520330D01*
X2003983Y1520410D01*
X2003811Y1520500D01*
X2003645Y1520600D01*
X2003485Y1520711D01*
X2003332Y1520830D01*
X2003187Y1520959D01*
X2003050Y1521097D01*
X2002921Y1521242D01*
X2002801Y1521395D01*
X2002691Y1521555D01*
X2002590Y1521721D01*
X2002500Y1521893D01*
X2002420Y1522070D01*
X2002352Y1522251D01*
X2002294Y1522437D01*
X2002247Y1522625D01*
X2002212Y1522816D01*
X2002189Y1523009D01*
X2002177Y1523203D01*
Y1545637D01*
X1999990D01*
X1999791Y1545631D01*
X1999594Y1545613D01*
X1999398Y1545583D01*
X1999204Y1545541D01*
X1999013Y1545488D01*
X1998826Y1545423D01*
X1998642Y1545347D01*
X1998464Y1545261D01*
X1998291Y1545163D01*
X1998125Y1545056D01*
X1997965Y1544938D01*
X1997813Y1544811D01*
X1997669Y1544675D01*
X1997533Y1544531D01*
X1997406Y1544379D01*
X1997288Y1544219D01*
X1997181Y1544052D01*
X1997083Y1543880D01*
X1996996Y1543701D01*
X1996920Y1543518D01*
X1996856Y1543331D01*
X1996803Y1543140D01*
X1996761Y1542946D01*
X1996731Y1542750D01*
X1996713Y1542552D01*
X1996707Y1542354D01*
Y1519466D01*
X1996713Y1519274D01*
X1996730Y1519084D01*
X1996759Y1518894D01*
X1996799Y1518707D01*
X1996851Y1518523D01*
X1996913Y1518342D01*
X1996986Y1518165D01*
X1997070Y1517993D01*
X1997164Y1517826D01*
X1997268Y1517665D01*
X1997382Y1517511D01*
X1997504Y1517364D01*
X1997635Y1517225D01*
X1997775Y1517094D01*
X1997922Y1516971D01*
X1998076Y1516858D01*
X1998237Y1516754D01*
X1998403Y1516660D01*
X1998576Y1516576D01*
X1998752Y1516503D01*
X1998933Y1516440D01*
X1999118Y1516389D01*
X1999305Y1516349D01*
X1999494Y1516320D01*
X1999685Y1516302D01*
X1999876Y1516297D01*
X2015363D01*
X2015528Y1516303D01*
X2015693Y1516321D01*
X2015856Y1516352D01*
X2016016Y1516395D01*
X2016172Y1516450D01*
X2016324Y1516516D01*
X2016470Y1516593D01*
X2016610Y1516681D01*
X2016743Y1516780D01*
X2016869Y1516888D01*
X2016986Y1517005D01*
X2017094Y1517130D01*
X2017192Y1517264D01*
X2017281Y1517404D01*
X2017358Y1517550D01*
X2017424Y1517702D01*
X2017479Y1517858D01*
X2017522Y1518018D01*
X2017552Y1518181D01*
X2017571Y1518345D01*
X2017577Y1518511D01*
Y1532042D01*
G37*
G74*
*
*
G04 PC Copper Outlines (3)*
G04 Layer Name RADXA_ROCK2_BASEBD-1503 - dark (3)*
%LPD*%
*
*
G04 PC Area=DRW29183620*
G75*
G36*
G01*
X1992387Y1531167D02*
X1991908D01*
X1991638Y1530627D01*
X1991071Y1530059D01*
X1986422Y1526397D01*
X1985457Y1526948D01*
X1984663Y1525493D01*
X1991209Y1521176D01*
X1991783Y1520601D01*
X1991918Y1519927D01*
X1992387D01*
Y1531167D01*
G37*
G74*
*
*
G04 PC Copper Outlines (4)*
G04 Layer Name RADXA_ROCK2_BASEBD-1503 - dark (4)*
%LPD*%
*
*
G04 PC Area=DRW79184256*
G75*
G36*
G01*
X1980441Y1527416D02*
X1973660Y1531888D01*
X1973066Y1532483D01*
X1972926Y1533182D01*
X1972437D01*
Y1521537D01*
X1972936D01*
X1973216Y1522097D01*
X1973804Y1522685D01*
X1978618Y1526477D01*
X1979618Y1525906D01*
X1980441Y1527416D01*
G37*
G74*
*
*
G04 PC Copper Outlines (5)*
G04 Layer Name RADXA_ROCK2_BASEBD-1503 - dark (5)*
%LPD*%
*
*
G04 PC Area=DRW44719567*
G75*
G36*
G01*
X1985653Y1526841D02*
X1981955Y1529444D01*
X1980658Y1527282D01*
X1979959D01*
X1979295Y1526087D01*
X1981637Y1524433D01*
X1983135Y1523480D01*
X1984532Y1525576D01*
X1984810Y1525437D01*
X1985653Y1526841D01*
G37*
G74*
*
*
G04 PC Copper Outlines (6)*
G04 Layer Name RADXA_ROCK2_BASEBD-1503 - dark (6)*
%LPD*%
*
*
G04 PC Area=DRW90910212*
G75*
G36*
G01*
X1975847Y1536162D02*
X1972978D01*
X1972447Y1535631D01*
Y1533042D01*
X1972795D01*
X1974745Y1535131D01*
X1975847Y1535820D01*
Y1536162D01*
G37*
G74*
*
*
G04 PC Copper Outlines (7)*
G04 Layer Name RADXA_ROCK2_BASEBD-1503 - dark (7)*
%LPD*%
*
*
G04 PC Area=DRW79471748*
G75*
G36*
G01*
X1992343Y1535762D02*
X1991813Y1536293D01*
X1988454D01*
X1988921Y1535826D01*
X1989621Y1535546D01*
X1991312Y1533855D01*
X1991999Y1532893D01*
X1992343D01*
Y1535762D01*
G37*
G74*
*
*
G04 PC Copper Outlines (8)*
G04 Layer Name RADXA_ROCK2_BASEBD-1503 - dark (8)*
%LPD*%
*
*
G04 PC Area=DRW96506636*
G75*
G36*
G01*
X1992356Y1519714D02*
X1992147D01*
X1990057Y1517624D01*
X1988956Y1516936D01*
Y1516594D01*
X1991825D01*
X1992356Y1517124D01*
Y1519714D01*
G37*
G74*
*
*
G04 PC Copper Outlines (9)*
G04 Layer Name RADXA_ROCK2_BASEBD-1503 - dark (9)*
%LPD*%
*
*
G04 PC Area=DRW2304689*
G75*
G36*
G01*
X1976411Y1516979D02*
X1976400Y1516988D01*
X1975798D01*
X1975663Y1517101D01*
X1975398Y1517330D01*
X1975136Y1517563D01*
X1974878Y1517801D01*
X1974623Y1518042D01*
X1974373Y1518288D01*
X1974127Y1518538D01*
X1973885Y1518791D01*
X1973766Y1518920D01*
X1973078Y1520020D01*
X1972736D01*
Y1517151D01*
X1973266Y1516620D01*
X1976411D01*
Y1516979D01*
G37*
G74*
*
*
G04 PC Copper Outlines (10)*
G04 Layer Name RADXA_ROCK2_BASEBD-1503 - dark (10)*
%LPD*%
*
*
G04 PC Area=DRW54596013*
G75*
G36*
G01*
X1988853Y1536442D02*
X1977613D01*
Y1535963D01*
X1978152Y1535694D01*
X1978720Y1535126D01*
X1982383Y1530477D01*
X1981465Y1528871D01*
X1982879Y1528100D01*
X1987604Y1535264D01*
X1988178Y1535839D01*
X1988853Y1535973D01*
Y1536442D01*
G37*
G74*
*
*
G04 PC Copper Outlines (11)*
G04 Layer Name RADXA_ROCK2_BASEBD-1503 - dark (11)*
%LPD*%
*
*
G04 PC Area=DRW38226090*
G75*
G36*
G01*
X1987348Y1516989D02*
X1986808Y1517259D01*
X1986240Y1517827D01*
X1982578Y1522476D01*
X1983324Y1523781D01*
X1981891Y1524563D01*
X1977357Y1517689D01*
X1976782Y1517114D01*
X1976108Y1516979D01*
Y1516510D01*
X1987348D01*
Y1516989D01*
G37*
G74*
*
*
G04 PC Copper Outlines (12)*
G04 Layer Name RADXA_ROCK2_BASEBD-1503 - dark (12)*
%LPD*%
*
*
G04 PC Area=DRW36747077*
G75*
G36*
G01*
X1969655Y1525486D02*
X1969649Y1525701D01*
X1969631Y1525916D01*
X1969601Y1526130D01*
X1969559Y1526341D01*
X1969505Y1526550D01*
X1969439Y1526756D01*
X1969363Y1526957D01*
X1969274Y1527154D01*
X1969175Y1527346D01*
X1969066Y1527532D01*
X1968946Y1527711D01*
X1968816Y1527883D01*
X1968677Y1528048D01*
X1968529Y1528205D01*
X1968372Y1528353D01*
X1968208Y1528492D01*
X1968035Y1528622D01*
X1967856Y1528742D01*
X1967670Y1528851D01*
X1967478Y1528950D01*
X1967282Y1529038D01*
X1967080Y1529115D01*
X1966875Y1529181D01*
X1966666Y1529235D01*
X1966454Y1529277D01*
X1966241Y1529307D01*
X1966026Y1529325D01*
X1965810Y1529331D01*
X1957185D01*
Y1524978D01*
X1957191Y1524898D01*
X1957208Y1524821D01*
X1957236Y1524746D01*
X1957274Y1524677D01*
X1957321Y1524613D01*
X1957377Y1524557D01*
X1957441Y1524509D01*
X1957511Y1524471D01*
X1957585Y1524443D01*
X1957663Y1524427D01*
X1957742Y1524421D01*
X1963754D01*
X1963845Y1524410D01*
X1963934Y1524388D01*
X1964020Y1524356D01*
X1964101Y1524313D01*
X1964176Y1524261D01*
X1964245Y1524200D01*
X1964305Y1524132D01*
X1964357Y1524056D01*
X1964400Y1523975D01*
X1964432Y1523890D01*
X1964454Y1523801D01*
X1964465Y1523710D01*
Y1522132D01*
X1964454Y1522041D01*
X1964432Y1521952D01*
X1964400Y1521866D01*
X1964357Y1521785D01*
X1964305Y1521710D01*
X1964245Y1521642D01*
X1964176Y1521581D01*
X1964101Y1521529D01*
X1964020Y1521486D01*
X1963934Y1521454D01*
X1963845Y1521432D01*
X1963754Y1521421D01*
X1956156D01*
X1956065Y1521432D01*
X1955976Y1521454D01*
X1955891Y1521486D01*
X1955810Y1521529D01*
X1955734Y1521581D01*
X1955666Y1521642D01*
X1955605Y1521710D01*
X1955553Y1521785D01*
X1955511Y1521866D01*
X1955478Y1521952D01*
X1955456Y1522041D01*
X1955445Y1522132D01*
Y1532541D01*
X1967695D01*
Y1533070D01*
X1967684Y1533273D01*
X1967660Y1533475D01*
X1967624Y1533675D01*
X1967576Y1533873D01*
X1967516Y1534067D01*
X1967445Y1534258D01*
X1967362Y1534444D01*
X1967267Y1534624D01*
X1967162Y1534798D01*
X1967047Y1534966D01*
X1966922Y1535126D01*
X1966787Y1535278D01*
X1966643Y1535422D01*
X1966490Y1535557D01*
X1966330Y1535683D01*
X1966163Y1535798D01*
X1965988Y1535903D01*
X1965808Y1535997D01*
X1965622Y1536080D01*
X1965432Y1536152D01*
X1965237Y1536212D01*
X1965040Y1536260D01*
X1964839Y1536296D01*
X1964637Y1536320D01*
X1964434Y1536331D01*
X1953137D01*
X1952942Y1536325D01*
X1952748Y1536307D01*
X1952555Y1536278D01*
X1952364Y1536237D01*
X1952176Y1536185D01*
X1951991Y1536121D01*
X1951811Y1536046D01*
X1951635Y1535961D01*
X1951465Y1535865D01*
X1951301Y1535759D01*
X1951144Y1535643D01*
X1950994Y1535518D01*
X1950852Y1535384D01*
X1950718Y1535242D01*
X1950593Y1535092D01*
X1950477Y1534935D01*
X1950371Y1534771D01*
X1950275Y1534601D01*
X1950190Y1534425D01*
X1950115Y1534245D01*
X1950052Y1534060D01*
X1949999Y1533872D01*
X1949958Y1533682D01*
X1949929Y1533489D01*
X1949911Y1533294D01*
X1949905Y1533099D01*
Y1520030D01*
X1949911Y1519829D01*
X1949929Y1519630D01*
X1949958Y1519431D01*
X1949998Y1519235D01*
X1950050Y1519041D01*
X1950113Y1518850D01*
X1950187Y1518664D01*
X1950272Y1518482D01*
X1950367Y1518305D01*
X1950473Y1518135D01*
X1950588Y1517970D01*
X1950712Y1517813D01*
X1950846Y1517663D01*
X1950987Y1517521D01*
X1951137Y1517388D01*
X1951295Y1517263D01*
X1951459Y1517148D01*
X1951630Y1517043D01*
X1951806Y1516948D01*
X1951988Y1516863D01*
X1952175Y1516789D01*
X1952365Y1516726D01*
X1952559Y1516674D01*
X1952755Y1516633D01*
X1952954Y1516604D01*
X1953154Y1516587D01*
X1953354Y1516581D01*
X1967225D01*
X1967399Y1516587D01*
X1967571Y1516606D01*
X1967742Y1516636D01*
X1967910Y1516679D01*
X1968075Y1516734D01*
X1968235Y1516801D01*
X1968390Y1516878D01*
X1968539Y1516967D01*
X1968682Y1517066D01*
X1968817Y1517174D01*
X1968944Y1517293D01*
X1969062Y1517420D01*
X1969171Y1517555D01*
X1969270Y1517697D01*
X1969358Y1517846D01*
X1969436Y1518001D01*
X1969502Y1518162D01*
X1969557Y1518326D01*
X1969600Y1518494D01*
X1969631Y1518665D01*
X1969649Y1518837D01*
X1969655Y1519011D01*
Y1525486D01*
G37*
G74*
*
*
G04 PC Circuitry*
G04 Layer Name RADXA_ROCK2_BASEBD-1503 - circuitry*
%LPD*%
*
*
G04 PC Custom Flashes*
G04 Layer Name RADXA_ROCK2_BASEBD-1503 - flashes*
%LPD*%
*
*
G04 PC Circuitry*
G04 Layer Name RADXA_ROCK2_BASEBD-1503 - circuitry*
%LPD*%
*
G54D10*
G01X1986422Y1526397D02*
X1991071Y1530059D01*
X1991638Y1530627*
X1991908Y1531167*
X1992387*
Y1519927*
X1991918*
X1991783Y1520601*
X1991209Y1521176*
X1984663Y1525493*
X1985457Y1526948*
X1986422Y1526397*
X1978618Y1526477D02*
X1973804Y1522685D01*
X1973216Y1522097*
X1972936Y1521537*
X1972437*
Y1533182*
X1972926*
X1973066Y1532483*
X1973660Y1531888*
X1980441Y1527416*
X1979618Y1525906*
X1978618Y1526477*
X1985653Y1526841D02*
X1981955Y1529444D01*
X1980658Y1527282*
X1979959*
X1979295Y1526087*
X1981637Y1524433*
X1983135Y1523480*
X1984532Y1525576*
X1984810Y1525437*
X1985653Y1526841*
X1972447Y1533042D02*
X1972795D01*
X1974745Y1535131*
X1975847Y1535820*
Y1536162*
X1972978*
X1972447Y1535631*
Y1533042*
X1988454Y1536293D02*
X1988921Y1535826D01*
X1989621Y1535546*
X1991312Y1533855*
X1991999Y1532893*
X1992343*
Y1535762*
X1991813Y1536293*
X1988454*
X1992147Y1519714D02*
X1990057Y1517624D01*
X1988956Y1516936*
Y1516594*
X1991825*
X1992356Y1517124*
Y1519714*
X1992147*
X1976411Y1516979D02*
X1976400Y1516988D01*
X1975798*
X1973766Y1518920D02*
G75*
G03X1975798Y1516988I15949J14746D01*
G01X1973766Y1518920D02*
X1973078Y1520020D01*
X1972736*
Y1517151*
X1973266Y1516620*
X1976411*
Y1516979*
X1982383Y1530477D02*
X1978720Y1535126D01*
X1978152Y1535694*
X1977613Y1535963*
Y1536442*
X1988853*
Y1535973*
X1988178Y1535839*
X1988178D02*
X1987604Y1535264D01*
X1982879Y1528100*
X1981465Y1528871*
X1982383Y1530477*
X1982578Y1522476D02*
X1986240Y1517827D01*
X1986808Y1517259*
X1987348Y1516989*
Y1516510*
X1976108*
Y1516979*
X1976782Y1517114*
X1977357Y1517689*
X1981891Y1524563*
X1983324Y1523781*
X1982578Y1522476*
X1991868Y1531085D02*
X1992387D01*
X1991823Y1530995D02*
X1992387D01*
X1991778Y1530905D02*
X1992387D01*
X1991733Y1530815D02*
X1992387D01*
X1991688Y1530725D02*
X1992387D01*
X1991643Y1530635D02*
X1992387D01*
X1991557Y1530545D02*
X1992387D01*
X1991467Y1530455D02*
X1992387D01*
X1991377Y1530365D02*
X1992387D01*
X1991287Y1530275D02*
X1992387D01*
X1991197Y1530185D02*
X1992387D01*
X1991107Y1530095D02*
X1992387D01*
X1991002Y1530005D02*
X1992387D01*
X1990888Y1529915D02*
X1992387D01*
X1990774Y1529825D02*
X1992387D01*
X1990660Y1529735D02*
X1992387D01*
X1990545Y1529645D02*
X1992387D01*
X1990431Y1529555D02*
X1992387D01*
X1990317Y1529465D02*
X1992387D01*
X1990203Y1529375D02*
X1992387D01*
X1990088Y1529285D02*
X1992387D01*
X1989974Y1529195D02*
X1992387D01*
X1989860Y1529105D02*
X1992387D01*
X1989746Y1529015D02*
X1992387D01*
X1989631Y1528925D02*
X1992387D01*
X1989517Y1528835D02*
X1992387D01*
X1989403Y1528745D02*
X1992387D01*
X1989289Y1528655D02*
X1992387D01*
X1989175Y1528565D02*
X1992387D01*
X1989060Y1528475D02*
X1992387D01*
X1988946Y1528385D02*
X1992387D01*
X1988832Y1528295D02*
X1992387D01*
X1988718Y1528205D02*
X1992387D01*
X1988603Y1528115D02*
X1992387D01*
X1988489Y1528025D02*
X1992387D01*
X1988375Y1527935D02*
X1992387D01*
X1988261Y1527845D02*
X1992387D01*
X1988146Y1527755D02*
X1992387D01*
X1988032Y1527665D02*
X1992387D01*
X1987918Y1527575D02*
X1992387D01*
X1987804Y1527485D02*
X1992387D01*
X1987690Y1527395D02*
X1992387D01*
X1987575Y1527305D02*
X1992387D01*
X1987461Y1527215D02*
X1992387D01*
X1987347Y1527125D02*
X1992387D01*
X1987233Y1527035D02*
X1992387D01*
X1987118Y1526945D02*
X1992387D01*
X1987004Y1526855D02*
X1992387D01*
X1986890Y1526765D02*
X1992387D01*
X1986776Y1526675D02*
X1992387D01*
X1986661Y1526585D02*
X1992387D01*
X1986547Y1526495D02*
X1992387D01*
X1986433Y1526405D02*
X1992387D01*
X1985112Y1526315D02*
X1992387D01*
X1985063Y1526225D02*
X1992387D01*
X1985014Y1526135D02*
X1992387D01*
X1984964Y1526045D02*
X1992387D01*
X1984915Y1525955D02*
X1992387D01*
X1984866Y1525865D02*
X1992387D01*
X1984817Y1525775D02*
X1992387D01*
X1984768Y1525685D02*
X1992387D01*
X1984719Y1525595D02*
X1992387D01*
X1984670Y1525505D02*
X1992387D01*
X1984781Y1525415D02*
X1992387D01*
X1984918Y1525325D02*
X1992387D01*
X1985054Y1525235D02*
X1992387D01*
X1985190Y1525145D02*
X1992387D01*
X1985327Y1525055D02*
X1992387D01*
X1985463Y1524965D02*
X1992387D01*
X1985600Y1524875D02*
X1992387D01*
X1985736Y1524785D02*
X1992387D01*
X1985873Y1524695D02*
X1992387D01*
X1986009Y1524605D02*
X1992387D01*
X1986146Y1524515D02*
X1992387D01*
X1986282Y1524425D02*
X1992387D01*
X1986419Y1524335D02*
X1992387D01*
X1986555Y1524245D02*
X1992387D01*
X1986691Y1524155D02*
X1992387D01*
X1986828Y1524065D02*
X1992387D01*
X1986964Y1523975D02*
X1992387D01*
X1987101Y1523885D02*
X1992387D01*
X1987237Y1523795D02*
X1992387D01*
X1987374Y1523705D02*
X1992387D01*
X1987510Y1523615D02*
X1992387D01*
X1987647Y1523525D02*
X1992387D01*
X1987783Y1523435D02*
X1992387D01*
X1987919Y1523345D02*
X1992387D01*
X1988056Y1523255D02*
X1992387D01*
X1988192Y1523165D02*
X1992387D01*
X1988329Y1523075D02*
X1992387D01*
X1988465Y1522985D02*
X1992387D01*
X1988602Y1522895D02*
X1992387D01*
X1988738Y1522805D02*
X1992387D01*
X1988875Y1522715D02*
X1992387D01*
X1989011Y1522625D02*
X1992387D01*
X1989148Y1522535D02*
X1992387D01*
X1989284Y1522445D02*
X1992387D01*
X1989420Y1522355D02*
X1992387D01*
X1989557Y1522265D02*
X1992387D01*
X1989693Y1522175D02*
X1992387D01*
X1989830Y1522085D02*
X1992387D01*
X1989966Y1521995D02*
X1992387D01*
X1990103Y1521905D02*
X1992387D01*
X1990239Y1521815D02*
X1992387D01*
X1990376Y1521725D02*
X1992387D01*
X1990512Y1521635D02*
X1992387D01*
X1990649Y1521545D02*
X1992387D01*
X1990785Y1521455D02*
X1992387D01*
X1990921Y1521365D02*
X1992387D01*
X1991058Y1521275D02*
X1992387D01*
X1991194Y1521185D02*
X1992387D01*
X1991289Y1521095D02*
X1992387D01*
X1991379Y1521005D02*
X1992387D01*
X1991469Y1520915D02*
X1992387D01*
X1991559Y1520825D02*
X1992387D01*
X1991649Y1520735D02*
X1992387D01*
X1991739Y1520645D02*
X1992387D01*
X1991793Y1520555D02*
X1992387D01*
X1991811Y1520465D02*
X1992387D01*
X1991829Y1520375D02*
X1992387D01*
X1991847Y1520285D02*
X1992387D01*
X1991865Y1520195D02*
X1992387D01*
X1991883Y1520105D02*
X1992387D01*
X1991901Y1520015D02*
X1992387D01*
X1985161Y1526405D02*
X1986406D01*
X1985210Y1526495D02*
X1986249D01*
X1985259Y1526585D02*
X1986091D01*
X1985308Y1526675D02*
X1985934D01*
X1985357Y1526765D02*
X1985776D01*
X1985406Y1526855D02*
X1985619D01*
X1985455Y1526945D02*
X1985461D01*
X1972437Y1527386D02*
X1980425D01*
X1972437Y1527296D02*
X1980376D01*
X1972437Y1527476D02*
X1980350D01*
X1972437Y1527206D02*
X1980327D01*
X1972437Y1527116D02*
X1980278D01*
X1972437Y1527026D02*
X1980228D01*
X1972437Y1527566D02*
X1980214D01*
X1972437Y1526936D02*
X1980179D01*
X1972437Y1526846D02*
X1980130D01*
X1972437Y1526756D02*
X1980081D01*
X1972437Y1527656D02*
X1980077D01*
X1972437Y1526666D02*
X1980032D01*
X1972437Y1526576D02*
X1979983D01*
X1972437Y1527746D02*
X1979941D01*
X1972437Y1526486D02*
X1979934D01*
X1978760Y1526396D02*
X1979885D01*
X1978918Y1526306D02*
X1979836D01*
X1972437Y1527836D02*
X1979804D01*
X1979075Y1526216D02*
X1979787D01*
X1979233Y1526126D02*
X1979738D01*
X1979390Y1526036D02*
X1979688D01*
X1972437Y1527926D02*
X1979668D01*
X1979548Y1525946D02*
X1979639D01*
X1972437Y1528016D02*
X1979531D01*
X1972437Y1528106D02*
X1979395D01*
X1972437Y1528196D02*
X1979258D01*
X1972437Y1528286D02*
X1979122D01*
X1972437Y1528376D02*
X1978985D01*
X1972437Y1528466D02*
X1978849D01*
X1972437Y1528556D02*
X1978713D01*
X1972437Y1528646D02*
X1978576D01*
X1972437Y1526396D02*
X1978514D01*
X1972437Y1528736D02*
X1978440D01*
X1972437Y1526306D02*
X1978400D01*
X1972437Y1528826D02*
X1978303D01*
X1972437Y1526216D02*
X1978286D01*
X1972437Y1526126D02*
X1978172D01*
X1972437Y1528916D02*
X1978167D01*
X1972437Y1526036D02*
X1978057D01*
X1972437Y1529006D02*
X1978030D01*
X1972437Y1525946D02*
X1977943D01*
X1972437Y1529096D02*
X1977894D01*
X1972437Y1525856D02*
X1977829D01*
X1972437Y1529186D02*
X1977757D01*
X1972437Y1525766D02*
X1977715D01*
X1972437Y1529276D02*
X1977621D01*
X1972437Y1525676D02*
X1977600D01*
X1972437Y1525586D02*
X1977486D01*
X1972437Y1529366D02*
X1977485D01*
X1972437Y1525496D02*
X1977372D01*
X1972437Y1529456D02*
X1977348D01*
X1972437Y1525406D02*
X1977258D01*
X1972437Y1529546D02*
X1977212D01*
X1972437Y1525316D02*
X1977143D01*
X1972437Y1529636D02*
X1977075D01*
X1972437Y1525226D02*
X1977029D01*
X1972437Y1529726D02*
X1976939D01*
X1972437Y1525136D02*
X1976915D01*
X1972437Y1529816D02*
X1976802D01*
X1972437Y1525046D02*
X1976801D01*
X1972437Y1524956D02*
X1976687D01*
X1972437Y1529906D02*
X1976666D01*
X1972437Y1524866D02*
X1976572D01*
X1972437Y1529996D02*
X1976529D01*
X1972437Y1524776D02*
X1976458D01*
X1972437Y1530086D02*
X1976393D01*
X1972437Y1524686D02*
X1976344D01*
X1972437Y1530176D02*
X1976256D01*
X1972437Y1524596D02*
X1976230D01*
X1972437Y1530266D02*
X1976120D01*
X1972437Y1524506D02*
X1976115D01*
X1972437Y1524416D02*
X1976001D01*
X1972437Y1530356D02*
X1975984D01*
X1972437Y1524326D02*
X1975887D01*
X1972437Y1530446D02*
X1975847D01*
X1972437Y1524236D02*
X1975773D01*
X1972437Y1530536D02*
X1975711D01*
X1972437Y1524146D02*
X1975658D01*
X1972437Y1530626D02*
X1975574D01*
X1972437Y1524056D02*
X1975544D01*
X1972437Y1530716D02*
X1975438D01*
X1972437Y1523966D02*
X1975430D01*
X1972437Y1523876D02*
X1975316D01*
X1972437Y1530806D02*
X1975301D01*
X1972437Y1523786D02*
X1975202D01*
X1972437Y1530896D02*
X1975165D01*
X1972437Y1523696D02*
X1975087D01*
X1972437Y1530986D02*
X1975028D01*
X1972437Y1523606D02*
X1974973D01*
X1972437Y1531076D02*
X1974892D01*
X1972437Y1523516D02*
X1974859D01*
X1972437Y1531166D02*
X1974755D01*
X1972437Y1523426D02*
X1974745D01*
X1972437Y1523336D02*
X1974630D01*
X1972437Y1531256D02*
X1974619D01*
X1972437Y1523246D02*
X1974516D01*
X1972437Y1531346D02*
X1974483D01*
X1972437Y1523156D02*
X1974402D01*
X1972437Y1531436D02*
X1974346D01*
X1972437Y1523066D02*
X1974288D01*
X1972437Y1531526D02*
X1974210D01*
X1972437Y1522976D02*
X1974173D01*
X1972437Y1531616D02*
X1974073D01*
X1972437Y1522886D02*
X1974059D01*
X1972437Y1522796D02*
X1973945D01*
X1972437Y1531706D02*
X1973937D01*
X1972437Y1522706D02*
X1973831D01*
X1972437Y1531796D02*
X1973800D01*
X1972437Y1522616D02*
X1973735D01*
X1972437Y1531886D02*
X1973664D01*
X1972437Y1522526D02*
X1973645D01*
X1972437Y1531976D02*
X1973573D01*
X1972437Y1522436D02*
X1973555D01*
X1972437Y1532066D02*
X1973483D01*
X1972437Y1522346D02*
X1973465D01*
X1972437Y1532156D02*
X1973393D01*
X1972437Y1522256D02*
X1973375D01*
X1972437Y1532246D02*
X1973303D01*
X1972437Y1522166D02*
X1973285D01*
X1972437Y1532336D02*
X1973213D01*
X1972437Y1522076D02*
X1973205D01*
X1972437Y1521986D02*
X1973160D01*
X1972437Y1532426D02*
X1973123D01*
X1972437Y1521896D02*
X1973115D01*
X1972437Y1521806D02*
X1973070D01*
X1972437Y1532516D02*
X1973059D01*
X1972437Y1532606D02*
X1973041D01*
X1972437Y1521716D02*
X1973025D01*
X1972437Y1532696D02*
X1973023D01*
X1972437Y1532786D02*
X1973005D01*
X1972437Y1532876D02*
X1972987D01*
X1972437Y1521626D02*
X1972980D01*
X1972437Y1532966D02*
X1972969D01*
X1972437Y1533056D02*
X1972951D01*
X1972437Y1533146D02*
X1972933D01*
X1979696Y1526809D02*
X1985633D01*
X1979646Y1526719D02*
X1985579D01*
X1979746Y1526899D02*
X1985571D01*
X1979596Y1526629D02*
X1985525D01*
X1979546Y1526539D02*
X1985471D01*
X1979796Y1526989D02*
X1985443D01*
X1979496Y1526449D02*
X1985417D01*
X1979446Y1526359D02*
X1985363D01*
X1979846Y1527079D02*
X1985315D01*
X1979396Y1526269D02*
X1985309D01*
X1979346Y1526179D02*
X1985255D01*
X1979296Y1526089D02*
X1985201D01*
X1979896Y1527169D02*
X1985188D01*
X1979419Y1525999D02*
X1985147D01*
X1979547Y1525909D02*
X1985093D01*
X1979946Y1527259D02*
X1985060D01*
X1979674Y1525819D02*
X1985039D01*
X1979802Y1525729D02*
X1984985D01*
X1980698Y1527349D02*
X1984932D01*
X1979929Y1525639D02*
X1984931D01*
X1984587Y1525549D02*
X1984877D01*
X1984767Y1525459D02*
X1984823D01*
X1980752Y1527439D02*
X1984804D01*
X1980806Y1527529D02*
X1984676D01*
X1980860Y1527619D02*
X1984548D01*
X1980057Y1525549D02*
X1984514D01*
X1980184Y1525459D02*
X1984454D01*
X1980914Y1527709D02*
X1984420D01*
X1980312Y1525369D02*
X1984394D01*
X1980439Y1525279D02*
X1984334D01*
X1980968Y1527799D02*
X1984292D01*
X1980567Y1525189D02*
X1984274D01*
X1980694Y1525099D02*
X1984214D01*
X1981022Y1527889D02*
X1984164D01*
X1980822Y1525009D02*
X1984154D01*
X1980949Y1524919D02*
X1984094D01*
X1981076Y1527979D02*
X1984036D01*
X1981077Y1524829D02*
X1984034D01*
X1981204Y1524739D02*
X1983974D01*
X1981332Y1524649D02*
X1983914D01*
X1981130Y1528069D02*
X1983909D01*
X1981459Y1524559D02*
X1983854D01*
X1981587Y1524469D02*
X1983794D01*
X1981184Y1528159D02*
X1983781D01*
X1981723Y1524379D02*
X1983734D01*
X1981864Y1524289D02*
X1983674D01*
X1981238Y1528249D02*
X1983653D01*
X1982005Y1524199D02*
X1983614D01*
X1982147Y1524109D02*
X1983554D01*
X1981292Y1528339D02*
X1983525D01*
X1982288Y1524019D02*
X1983494D01*
X1982430Y1523929D02*
X1983434D01*
X1981346Y1528429D02*
X1983397D01*
X1982571Y1523839D02*
X1983374D01*
X1982713Y1523749D02*
X1983314D01*
X1981400Y1528519D02*
X1983269D01*
X1982854Y1523659D02*
X1983254D01*
X1982995Y1523569D02*
X1983194D01*
X1981454Y1528609D02*
X1983141D01*
X1981508Y1528699D02*
X1983013D01*
X1981562Y1528789D02*
X1982885D01*
X1981616Y1528879D02*
X1982758D01*
X1981670Y1528969D02*
X1982630D01*
X1981724Y1529059D02*
X1982502D01*
X1981778Y1529149D02*
X1982374D01*
X1981832Y1529239D02*
X1982246D01*
X1981886Y1529329D02*
X1982118D01*
X1981940Y1529419D02*
X1981990D01*
X1972917Y1536101D02*
X1975847D01*
X1972827Y1536011D02*
X1975847D01*
X1972737Y1535921D02*
X1975847D01*
X1972647Y1535831D02*
X1975847D01*
X1972557Y1535741D02*
X1975721D01*
X1972467Y1535651D02*
X1975577D01*
X1972447Y1535561D02*
X1975433D01*
X1972447Y1535471D02*
X1975289D01*
X1972447Y1535381D02*
X1975145D01*
X1972447Y1535291D02*
X1975001D01*
X1972447Y1535201D02*
X1974857D01*
X1972447Y1535111D02*
X1974726D01*
X1972447Y1535021D02*
X1974642D01*
X1972447Y1534931D02*
X1974558D01*
X1972447Y1534841D02*
X1974474D01*
X1972447Y1534751D02*
X1974390D01*
X1972447Y1534661D02*
X1974306D01*
X1972447Y1534571D02*
X1974222D01*
X1972447Y1534481D02*
X1974138D01*
X1972447Y1534391D02*
X1974054D01*
X1972447Y1534301D02*
X1973970D01*
X1972447Y1534211D02*
X1973886D01*
X1972447Y1534121D02*
X1973802D01*
X1972447Y1534031D02*
X1973718D01*
X1972447Y1533941D02*
X1973634D01*
X1972447Y1533851D02*
X1973550D01*
X1972447Y1533761D02*
X1973466D01*
X1972447Y1533671D02*
X1973382D01*
X1972447Y1533581D02*
X1973298D01*
X1972447Y1533491D02*
X1973214D01*
X1972447Y1533401D02*
X1973130D01*
X1972447Y1533311D02*
X1973046D01*
X1972447Y1533221D02*
X1972962D01*
X1972447Y1533131D02*
X1972878D01*
X1989281Y1535682D02*
X1992343D01*
X1989506Y1535592D02*
X1992343D01*
X1989665Y1535502D02*
X1992343D01*
X1989755Y1535412D02*
X1992343D01*
X1989845Y1535322D02*
X1992343D01*
X1989935Y1535232D02*
X1992343D01*
X1990025Y1535142D02*
X1992343D01*
X1990115Y1535052D02*
X1992343D01*
X1990205Y1534962D02*
X1992343D01*
X1990295Y1534872D02*
X1992343D01*
X1990385Y1534782D02*
X1992343D01*
X1990475Y1534692D02*
X1992343D01*
X1990565Y1534602D02*
X1992343D01*
X1990655Y1534512D02*
X1992343D01*
X1990745Y1534422D02*
X1992343D01*
X1990835Y1534332D02*
X1992343D01*
X1990925Y1534242D02*
X1992343D01*
X1991015Y1534152D02*
X1992343D01*
X1991105Y1534062D02*
X1992343D01*
X1991195Y1533972D02*
X1992343D01*
X1991285Y1533882D02*
X1992343D01*
X1991357Y1533792D02*
X1992343D01*
X1991421Y1533702D02*
X1992343D01*
X1991486Y1533612D02*
X1992343D01*
X1991550Y1533522D02*
X1992343D01*
X1991614Y1533432D02*
X1992343D01*
X1991678Y1533342D02*
X1992343D01*
X1991743Y1533252D02*
X1992343D01*
X1991807Y1533162D02*
X1992343D01*
X1991871Y1533072D02*
X1992343D01*
X1991936Y1532982D02*
X1992343D01*
X1989056Y1535772D02*
X1992334D01*
X1988885Y1535862D02*
X1992244D01*
X1988795Y1535952D02*
X1992154D01*
X1988705Y1536042D02*
X1992064D01*
X1988615Y1536132D02*
X1991974D01*
X1988525Y1536222D02*
X1991884D01*
X1992085Y1519652D02*
X1992356D01*
X1991995Y1519562D02*
X1992356D01*
X1991905Y1519472D02*
X1992356D01*
X1991815Y1519382D02*
X1992356D01*
X1991725Y1519292D02*
X1992356D01*
X1991635Y1519202D02*
X1992356D01*
X1991545Y1519112D02*
X1992356D01*
X1991455Y1519022D02*
X1992356D01*
X1991365Y1518932D02*
X1992356D01*
X1991275Y1518842D02*
X1992356D01*
X1991185Y1518752D02*
X1992356D01*
X1991095Y1518662D02*
X1992356D01*
X1991005Y1518572D02*
X1992356D01*
X1990915Y1518482D02*
X1992356D01*
X1990825Y1518392D02*
X1992356D01*
X1990735Y1518302D02*
X1992356D01*
X1990645Y1518212D02*
X1992356D01*
X1990555Y1518122D02*
X1992356D01*
X1990465Y1518032D02*
X1992356D01*
X1990375Y1517942D02*
X1992356D01*
X1990285Y1517852D02*
X1992356D01*
X1990195Y1517762D02*
X1992356D01*
X1990105Y1517672D02*
X1992356D01*
X1989990Y1517582D02*
X1992356D01*
X1989846Y1517492D02*
X1992356D01*
X1989702Y1517402D02*
X1992356D01*
X1989558Y1517312D02*
X1992356D01*
X1989414Y1517222D02*
X1992356D01*
X1989270Y1517132D02*
X1992356D01*
X1989126Y1517042D02*
X1992274D01*
X1988982Y1516952D02*
X1992184D01*
X1988956Y1516862D02*
X1992094D01*
X1988956Y1516772D02*
X1992004D01*
X1988956Y1516682D02*
X1991914D01*
X1972908Y1516979D02*
X1976411D01*
X1972998Y1516889D02*
X1976411D01*
X1973088Y1516799D02*
X1976411D01*
X1973178Y1516709D02*
X1976411D01*
X1972818Y1517069D02*
X1975702D01*
X1972736Y1517159D02*
X1975596D01*
X1972736Y1517249D02*
X1975491D01*
X1972736Y1517339D02*
X1975388D01*
X1972736Y1517429D02*
X1975286D01*
X1972736Y1517519D02*
X1975186D01*
X1972736Y1517609D02*
X1975086D01*
X1972736Y1517699D02*
X1974988D01*
X1972736Y1517789D02*
X1974891D01*
X1972736Y1517879D02*
X1974795D01*
X1972736Y1517969D02*
X1974700D01*
X1972736Y1518059D02*
X1974607D01*
X1972736Y1518149D02*
X1974515D01*
X1972736Y1518239D02*
X1974423D01*
X1972736Y1518329D02*
X1974333D01*
X1972736Y1518419D02*
X1974244D01*
X1972736Y1518509D02*
X1974156D01*
X1972736Y1518599D02*
X1974068D01*
X1972736Y1518689D02*
X1973982D01*
X1972736Y1518779D02*
X1973897D01*
X1972736Y1518869D02*
X1973813D01*
X1972736Y1518959D02*
X1973741D01*
X1972736Y1519049D02*
X1973685D01*
X1972736Y1519139D02*
X1973629D01*
X1972736Y1519229D02*
X1973572D01*
X1972736Y1519319D02*
X1973516D01*
X1972736Y1519409D02*
X1973460D01*
X1972736Y1519499D02*
X1973404D01*
X1972736Y1519589D02*
X1973347D01*
X1972736Y1519679D02*
X1973291D01*
X1972736Y1519769D02*
X1973235D01*
X1972736Y1519859D02*
X1973179D01*
X1972736Y1519949D02*
X1973122D01*
X1977613Y1536379D02*
X1988853D01*
X1977613Y1536289D02*
X1988853D01*
X1977613Y1536199D02*
X1988853D01*
X1977613Y1536109D02*
X1988853D01*
X1977613Y1536019D02*
X1988853D01*
X1977682Y1535929D02*
X1988630D01*
X1977862Y1535839D02*
X1988180D01*
X1978042Y1535749D02*
X1988089D01*
X1978187Y1535659D02*
X1987999D01*
X1978277Y1535569D02*
X1987909D01*
X1978367Y1535479D02*
X1987819D01*
X1978457Y1535389D02*
X1987729D01*
X1978547Y1535299D02*
X1987639D01*
X1978637Y1535209D02*
X1987567D01*
X1978726Y1535119D02*
X1987508D01*
X1978797Y1535029D02*
X1987449D01*
X1978867Y1534939D02*
X1987389D01*
X1978938Y1534849D02*
X1987330D01*
X1979009Y1534759D02*
X1987271D01*
X1979080Y1534669D02*
X1987211D01*
X1979151Y1534579D02*
X1987152D01*
X1979222Y1534489D02*
X1987093D01*
X1979293Y1534399D02*
X1987033D01*
X1979364Y1534309D02*
X1986974D01*
X1979435Y1534219D02*
X1986914D01*
X1979506Y1534129D02*
X1986855D01*
X1979577Y1534039D02*
X1986796D01*
X1979647Y1533949D02*
X1986736D01*
X1979718Y1533859D02*
X1986677D01*
X1979789Y1533769D02*
X1986618D01*
X1979860Y1533679D02*
X1986558D01*
X1979931Y1533589D02*
X1986499D01*
X1980002Y1533499D02*
X1986440D01*
X1980073Y1533409D02*
X1986380D01*
X1980144Y1533319D02*
X1986321D01*
X1980215Y1533229D02*
X1986261D01*
X1980286Y1533139D02*
X1986202D01*
X1980357Y1533049D02*
X1986143D01*
X1980427Y1532959D02*
X1986083D01*
X1980498Y1532869D02*
X1986024D01*
X1980569Y1532779D02*
X1985965D01*
X1980640Y1532689D02*
X1985905D01*
X1980711Y1532599D02*
X1985846D01*
X1980782Y1532509D02*
X1985787D01*
X1980853Y1532419D02*
X1985727D01*
X1980924Y1532329D02*
X1985668D01*
X1980995Y1532239D02*
X1985608D01*
X1981066Y1532149D02*
X1985549D01*
X1981137Y1532059D02*
X1985490D01*
X1981207Y1531969D02*
X1985430D01*
X1981278Y1531879D02*
X1985371D01*
X1981349Y1531789D02*
X1985312D01*
X1981420Y1531699D02*
X1985252D01*
X1981491Y1531609D02*
X1985193D01*
X1981562Y1531519D02*
X1985134D01*
X1981633Y1531429D02*
X1985074D01*
X1981704Y1531339D02*
X1985015D01*
X1981775Y1531249D02*
X1984955D01*
X1981846Y1531159D02*
X1984896D01*
X1981917Y1531069D02*
X1984837D01*
X1981987Y1530979D02*
X1984777D01*
X1982058Y1530889D02*
X1984718D01*
X1982129Y1530799D02*
X1984659D01*
X1982200Y1530709D02*
X1984599D01*
X1982271Y1530619D02*
X1984540D01*
X1982342Y1530529D02*
X1984481D01*
X1982361Y1530439D02*
X1984421D01*
X1982310Y1530349D02*
X1984362D01*
X1982258Y1530259D02*
X1984303D01*
X1982207Y1530169D02*
X1984243D01*
X1982156Y1530079D02*
X1984184D01*
X1982104Y1529989D02*
X1984124D01*
X1982053Y1529899D02*
X1984065D01*
X1982001Y1529809D02*
X1984006D01*
X1981950Y1529719D02*
X1983946D01*
X1981898Y1529629D02*
X1983887D01*
X1981847Y1529539D02*
X1983828D01*
X1981796Y1529449D02*
X1983768D01*
X1981744Y1529359D02*
X1983709D01*
X1981693Y1529269D02*
X1983650D01*
X1981641Y1529179D02*
X1983590D01*
X1981590Y1529089D02*
X1983531D01*
X1981538Y1528999D02*
X1983471D01*
X1981487Y1528909D02*
X1983412D01*
X1981561Y1528819D02*
X1983353D01*
X1981726Y1528729D02*
X1983293D01*
X1981891Y1528639D02*
X1983234D01*
X1982056Y1528549D02*
X1983175D01*
X1982221Y1528459D02*
X1983115D01*
X1982386Y1528369D02*
X1983056D01*
X1982551Y1528279D02*
X1982997D01*
X1982716Y1528189D02*
X1982937D01*
X1976108Y1516959D02*
X1987348D01*
X1976108Y1516869D02*
X1987348D01*
X1976108Y1516779D02*
X1987348D01*
X1976108Y1516689D02*
X1987348D01*
X1976108Y1516599D02*
X1987348D01*
X1976456Y1517049D02*
X1987229D01*
X1976807Y1517139D02*
X1987049D01*
X1976897Y1517229D02*
X1986869D01*
X1976987Y1517319D02*
X1986748D01*
X1977077Y1517409D02*
X1986658D01*
X1977167Y1517499D02*
X1986568D01*
X1977257Y1517589D02*
X1986478D01*
X1977347Y1517679D02*
X1986388D01*
X1977410Y1517769D02*
X1986298D01*
X1977469Y1517859D02*
X1986215D01*
X1977529Y1517949D02*
X1986144D01*
X1977588Y1518039D02*
X1986073D01*
X1977647Y1518129D02*
X1986002D01*
X1977707Y1518219D02*
X1985932D01*
X1977766Y1518309D02*
X1985861D01*
X1977825Y1518399D02*
X1985790D01*
X1977885Y1518489D02*
X1985719D01*
X1977944Y1518579D02*
X1985648D01*
X1978003Y1518669D02*
X1985577D01*
X1978063Y1518759D02*
X1985506D01*
X1978122Y1518849D02*
X1985435D01*
X1978182Y1518939D02*
X1985364D01*
X1978241Y1519029D02*
X1985293D01*
X1978300Y1519119D02*
X1985222D01*
X1978360Y1519209D02*
X1985152D01*
X1978419Y1519299D02*
X1985081D01*
X1978478Y1519389D02*
X1985010D01*
X1978538Y1519479D02*
X1984939D01*
X1978597Y1519569D02*
X1984868D01*
X1978656Y1519659D02*
X1984797D01*
X1978716Y1519749D02*
X1984726D01*
X1978775Y1519839D02*
X1984655D01*
X1978834Y1519929D02*
X1984584D01*
X1978894Y1520019D02*
X1984513D01*
X1978953Y1520109D02*
X1984442D01*
X1979013Y1520199D02*
X1984372D01*
X1979072Y1520289D02*
X1984301D01*
X1979131Y1520379D02*
X1984230D01*
X1979191Y1520469D02*
X1984159D01*
X1979250Y1520559D02*
X1984088D01*
X1979309Y1520649D02*
X1984017D01*
X1979369Y1520739D02*
X1983946D01*
X1979428Y1520829D02*
X1983875D01*
X1979487Y1520919D02*
X1983804D01*
X1979547Y1521009D02*
X1983733D01*
X1979606Y1521099D02*
X1983662D01*
X1979666Y1521189D02*
X1983592D01*
X1979725Y1521279D02*
X1983521D01*
X1979784Y1521369D02*
X1983450D01*
X1979844Y1521459D02*
X1983379D01*
X1979903Y1521549D02*
X1983308D01*
X1981387Y1523799D02*
X1983292D01*
X1981328Y1523709D02*
X1983282D01*
X1979962Y1521639D02*
X1983237D01*
X1981268Y1523619D02*
X1983231D01*
X1981209Y1523529D02*
X1983179D01*
X1980022Y1521729D02*
X1983166D01*
X1981150Y1523439D02*
X1983128D01*
X1981446Y1523889D02*
X1983127D01*
X1980081Y1521819D02*
X1983095D01*
X1981090Y1523349D02*
X1983077D01*
X1981031Y1523259D02*
X1983025D01*
X1980140Y1521909D02*
X1983024D01*
X1980972Y1523169D02*
X1982974D01*
X1981506Y1523979D02*
X1982962D01*
X1980200Y1521999D02*
X1982953D01*
X1980912Y1523079D02*
X1982922D01*
X1980259Y1522089D02*
X1982882D01*
X1980853Y1522989D02*
X1982871D01*
X1980793Y1522899D02*
X1982819D01*
X1980319Y1522179D02*
X1982812D01*
X1981565Y1524069D02*
X1982797D01*
X1980734Y1522809D02*
X1982768D01*
X1980378Y1522269D02*
X1982741D01*
X1980675Y1522719D02*
X1982717D01*
X1980437Y1522359D02*
X1982670D01*
X1980615Y1522629D02*
X1982665D01*
X1981624Y1524159D02*
X1982632D01*
X1980556Y1522539D02*
X1982614D01*
X1980497Y1522449D02*
X1982599D01*
X1981684Y1524249D02*
X1982467D01*
X1981743Y1524339D02*
X1982302D01*
X1981803Y1524429D02*
X1982137D01*
X1981862Y1524519D02*
X1981972D01*
G54D121*
X2176850Y1449961D02*
Y1470039D01*
X2175650Y1449961D02*
Y1470039D01*
X2212650*
Y1449961*
X2175650*
X1887961Y1713280D02*
Y1708555D01*
X1886799Y1708579D02*
Y1713287D01*
X1898067*
X1898047Y1713280D02*
Y1708563D01*
X1886858*
X2097104Y1471801D02*
X2092380D01*
X2092404Y1472963D02*
X2097112D01*
Y1461695*
X2097104Y1461715D02*
X2092388D01*
Y1472904*
X2097882Y1462862D02*
X2102606D01*
X2102583Y1461701D02*
X2097874D01*
Y1472969*
X2097882Y1472949D02*
X2102598D01*
Y1461760*
X2114146Y1462949D02*
X2118870D01*
X2118846Y1461787D02*
X2114138D01*
Y1473055*
X2114146Y1473035D02*
X2118862D01*
Y1461846*
X2103000Y1462862D02*
X2107724D01*
X2107701Y1461701D02*
X2102992D01*
Y1472969*
X2103000Y1472949D02*
X2107717D01*
Y1461760*
X2108118Y1462862D02*
X2112843D01*
X2112819Y1461701D02*
X2108110D01*
Y1472969*
X2108118Y1472949D02*
X2112835D01*
Y1461760*
X1880937Y1719004D02*
Y1723728D01*
X1882098Y1723705D02*
Y1718996D01*
X1870831*
X1870850Y1719004D02*
Y1723720D01*
X1882039*
X2047604Y1454801D02*
X2042880D01*
X2042904Y1455963D02*
X2047612D01*
Y1444695*
X2047604Y1444715D02*
X2042888D01*
Y1455904*
X2057571Y1454874D02*
X2052846D01*
X2052870Y1456035D02*
X2057579D01*
Y1444768*
X2057571Y1444787D02*
X2052854D01*
Y1455976*
X2084232Y1727132D02*
X2083835Y1726734D01*
Y1715293*
X2090154*
Y1727132*
X2084232*
X2085704Y1728404D02*
G03X2085704I-220J0D01*
G01X1954220Y1611891D02*
Y1593691D01*
X1962488*
Y1611891*
X1954220*
X1962488D02*
Y1593691D01*
X1970756*
Y1611891*
X1962488*
X1853220Y1529976D02*
X1851720D01*
Y1531449*
Y1544854D02*
Y1546024D01*
X1852909*
X1866358D02*
X1867768D01*
Y1544862*
Y1531732D02*
Y1530634D01*
X1867110Y1529976*
X1866338*
X2076232Y1727132D02*
X2075835Y1726734D01*
Y1715293*
X2082154*
Y1727132*
X2076232*
X2077704Y1728404D02*
G03X2077704I-220J0D01*
G01X1969868Y1451732D02*
X1970266Y1451335D01*
X1981707*
Y1457654*
X1969868*
Y1451732*
X1968817Y1452984D02*
G03X1968817I-221J0D01*
G01X2129799Y1454583D02*
X2130197Y1454980D01*
X2130196Y1466422*
X2123877*
Y1454583*
X2129799*
X2128767Y1453311D02*
G03X2128767I-220J0D01*
G01X2196752Y1383366D02*
G03X2216437Y1403051I-0J19685D01*
G01Y1796949*
G03X2196752Y1816634I-19685J-0*
G01X1981791*
Y1816535*
X1969193*
Y1816634*
X1803248*
G03X1783563Y1796949I0J-19685*
G01Y1403138*
G03X1803248Y1383453I19685J-0*
G01X1825421*
Y1388398*
X1839839*
Y1383366*
X2196752*
G54D125*
X2029100Y1459800D02*
G03X2029100I-600J0D01*
G01X1975000Y1609750D02*
Y1600000D01*
X1972750Y1607750D02*
X1975000Y1610000D01*
X1977125Y1607875*
X1980250Y1607750D02*
X1982500Y1610000D01*
X1984625Y1607875*
X1982500Y1609750D02*
Y1600000D01*
G54D127*
X1991100Y1533600D02*
X1989477Y1535223D01*
X1989478Y1535222D02*
G03X1987627Y1535026I-845J-853D01*
G01X1983197Y1528283*
X1986095Y1526368*
X1990838Y1530092*
X1990837Y1530091D02*
G03X1991101Y1533599I-1442J1873D01*
G01X1974967Y1535031D02*
X1973394Y1533464D01*
X1973395D02*
G03X1973586Y1531629I842J-839D01*
G01X1980340Y1527184*
X1982255Y1530082*
X1978359Y1535006*
X1978360Y1535005D02*
G03X1974967Y1535031I-1709J-1651D01*
G01X1989664Y1517568D02*
X1991236Y1519140D01*
G03X1991050Y1520975I-852J840*
G01X1984296Y1525420*
X1982381Y1522522*
X1986110Y1517779*
G03X1989664Y1517568I1870J1461*
G01X1973581Y1518954D02*
X1975143Y1517386D01*
G03X1976983Y1517568I845J851*
G01X1981433Y1524326*
X1978540Y1526247*
X1978535Y1526242*
X1973767Y1522502*
G03X1973581Y1518953I1511J-1858*
G01X1991412Y1516398D02*
X1973168D01*
X1972361Y1517205D02*
G03X1973168Y1516398I756J-50D01*
G01X1972361Y1517205D02*
Y1535450D01*
X1973168Y1536256D02*
G03X1972361Y1535450I51J-857D01*
G01X1973168Y1536256D02*
X1991412D01*
X1992219Y1535450D02*
G03X1991412Y1536256I-857J-51D01*
G01X1992219Y1535450D02*
Y1517205D01*
X1991412Y1516398D02*
G03X1992219Y1517205I17J790D01*
G54D136*
G01X2043899Y1536230D02*
X2053485D01*
X2056538Y1533109D02*
G03X2053485Y1536230I-3195J-72D01*
G01X2056538Y1533109D02*
Y1519599D01*
X2053558Y1516620D02*
G03X2056538Y1519599I35J2945D01*
G01X2053558Y1516620D02*
X2051208D01*
Y1532510*
X2040968*
X2043899Y1536230D02*
G03X2040968Y1532510I80J-3078D01*
G01X2037853Y1532265D02*
X2025603D01*
Y1521902*
G03X2026359Y1521145I756J-0*
G01X2033866*
G03X2034623Y1521902I0J757*
G01Y1523389*
G03X2033866Y1524145I-757J-0*
G01X2027899*
X2027343Y1524702D02*
G03X2027899Y1524145I556J-0D01*
G01X2027343Y1524702D02*
Y1529055D01*
X2035968*
X2039813Y1525210D02*
G03X2035968Y1529055I-3845J0D01*
G01X2039813Y1525210D02*
Y1518735D01*
X2037383Y1516305D02*
G03X2039813Y1518735I-0J2430D01*
G01X2037383Y1516305D02*
X2023512D01*
X2020063Y1519754D02*
G03X2023512Y1516305I3449J0D01*
G01X2020063Y1519754D02*
Y1532823D01*
X2023295Y1536055D02*
G03X2020063Y1532823I-0J-3232D01*
G01X2023295Y1536055D02*
X2034591D01*
X2037853Y1532794D02*
G03X2034591Y1536055I-3347J-85D01*
G01X2037853Y1532794D02*
Y1532265D01*
X2017577Y1532042D02*
G03X2013712Y1535907I-3865J-0D01*
G01X2017577Y1532042D02*
Y1518511D01*
X2015363Y1516297D02*
G03X2017577Y1518511I-0J2214D01*
G01X2015363Y1516297D02*
X1999876D01*
X1996707Y1519466D02*
G03X1999876Y1516297I3169J-0D01*
G01X1996707Y1519466D02*
Y1542354D01*
X1999990Y1545637D02*
G03X1996707Y1542354I-0J-3283D01*
G01X1999990Y1545637D02*
X2002177D01*
Y1523300*
G03X2005391Y1520087I3214J0*
G01X2008922*
G03X2012247Y1523412I-0J3325*
G01Y1528493*
G03X2009043Y1531697I-3204J-0*
G01X2005386*
X2003987Y1530298*
Y1535907*
X2013712*
X1967695Y1532541D02*
X1955445D01*
Y1522178*
G03X1956202Y1521421I757J-0*
G01X1963709*
G03X1964465Y1522178I-0J757*
G01Y1523664*
G03X1963709Y1524421I-756J0*
G01X1957742*
X1957185Y1524978D02*
G03X1957742Y1524421I557J-0D01*
G01X1957185Y1524978D02*
Y1529331D01*
X1965810*
X1969655Y1525486D02*
G03X1965810Y1529331I-3845J-0D01*
G01X1969655Y1525486D02*
Y1519011D01*
X1967225Y1516581D02*
G03X1969655Y1519011I0J2430D01*
G01X1967225Y1516581D02*
X1953354D01*
X1949905Y1520030D02*
G03X1953354Y1516581I3449J-0D01*
G01X1949905Y1520030D02*
Y1533099D01*
X1953137Y1536331D02*
G03X1949905Y1533099I0J-3232D01*
G01X1953137Y1536331D02*
X1964434D01*
X1967695Y1533070D02*
G03X1964434Y1536331I-3346J-86D01*
G01X1967695Y1533070D02*
Y1532541D01*
X2040904Y1532998D02*
X2056538D01*
X2040918Y1532818D02*
X2056538D01*
X2040943Y1532638D02*
X2056538D01*
X2051208Y1532458D02*
X2056538D01*
X2051208Y1532278D02*
X2056538D01*
X2051208Y1532098D02*
X2056538D01*
X2051208Y1531918D02*
X2056538D01*
X2051208Y1531738D02*
X2056538D01*
X2051208Y1531558D02*
X2056538D01*
X2051208Y1531378D02*
X2056538D01*
X2051208Y1531198D02*
X2056538D01*
X2051208Y1531018D02*
X2056538D01*
X2051208Y1530838D02*
X2056538D01*
X2051208Y1530658D02*
X2056538D01*
X2051208Y1530478D02*
X2056538D01*
X2051208Y1530298D02*
X2056538D01*
X2051208Y1530118D02*
X2056538D01*
X2051208Y1529938D02*
X2056538D01*
X2051208Y1529758D02*
X2056538D01*
X2051208Y1529578D02*
X2056538D01*
X2051208Y1529398D02*
X2056538D01*
X2051208Y1529218D02*
X2056538D01*
X2051208Y1529038D02*
X2056538D01*
X2051208Y1528858D02*
X2056538D01*
X2051208Y1528678D02*
X2056538D01*
X2051208Y1528498D02*
X2056538D01*
X2051208Y1528318D02*
X2056538D01*
X2051208Y1528138D02*
X2056538D01*
X2051208Y1527958D02*
X2056538D01*
X2051208Y1527778D02*
X2056538D01*
X2051208Y1527598D02*
X2056538D01*
X2051208Y1527418D02*
X2056538D01*
X2051208Y1527238D02*
X2056538D01*
X2051208Y1527058D02*
X2056538D01*
X2051208Y1526878D02*
X2056538D01*
X2051208Y1526698D02*
X2056538D01*
X2051208Y1526518D02*
X2056538D01*
X2051208Y1526338D02*
X2056538D01*
X2051208Y1526158D02*
X2056538D01*
X2051208Y1525978D02*
X2056538D01*
X2051208Y1525798D02*
X2056538D01*
X2051208Y1525618D02*
X2056538D01*
X2051208Y1525438D02*
X2056538D01*
X2051208Y1525258D02*
X2056538D01*
X2051208Y1525078D02*
X2056538D01*
X2051208Y1524898D02*
X2056538D01*
X2051208Y1524718D02*
X2056538D01*
X2051208Y1524538D02*
X2056538D01*
X2051208Y1524358D02*
X2056538D01*
X2051208Y1524178D02*
X2056538D01*
X2051208Y1523998D02*
X2056538D01*
X2051208Y1523818D02*
X2056538D01*
X2051208Y1523638D02*
X2056538D01*
X2051208Y1523458D02*
X2056538D01*
X2051208Y1523278D02*
X2056538D01*
X2051208Y1523098D02*
X2056538D01*
X2051208Y1522918D02*
X2056538D01*
X2051208Y1522738D02*
X2056538D01*
X2051208Y1522558D02*
X2056538D01*
X2051208Y1522378D02*
X2056538D01*
X2051208Y1522198D02*
X2056538D01*
X2051208Y1522018D02*
X2056538D01*
X2051208Y1521838D02*
X2056538D01*
X2051208Y1521658D02*
X2056538D01*
X2051208Y1521478D02*
X2056538D01*
X2051208Y1521298D02*
X2056538D01*
X2051208Y1521118D02*
X2056538D01*
X2051208Y1520938D02*
X2056538D01*
X2051208Y1520758D02*
X2056538D01*
X2051208Y1520578D02*
X2056538D01*
X2051208Y1520398D02*
X2056538D01*
X2051208Y1520218D02*
X2056538D01*
X2051208Y1520038D02*
X2056538D01*
X2051208Y1519858D02*
X2056538D01*
X2051208Y1519678D02*
X2056538D01*
X2051208Y1519498D02*
X2056537D01*
X2040900Y1533178D02*
X2056535D01*
X2051208Y1519318D02*
X2056527D01*
X2040907Y1533358D02*
X2056522D01*
X2051208Y1519138D02*
X2056507D01*
X2040924Y1533538D02*
X2056499D01*
X2051208Y1518958D02*
X2056475D01*
X2040952Y1533718D02*
X2056465D01*
X2051208Y1518778D02*
X2056431D01*
X2040992Y1533898D02*
X2056420D01*
X2051208Y1518598D02*
X2056375D01*
X2041042Y1534078D02*
X2056364D01*
X2051208Y1518418D02*
X2056305D01*
X2041105Y1534258D02*
X2056296D01*
X2051208Y1518238D02*
X2056222D01*
X2041181Y1534438D02*
X2056215D01*
X2051208Y1518058D02*
X2056123D01*
X2041271Y1534618D02*
X2056120D01*
X2041377Y1534798D02*
X2056010D01*
X2051208Y1517878D02*
X2056007D01*
X2041500Y1534978D02*
X2055881D01*
X2051208Y1517698D02*
X2055871D01*
X2041643Y1535158D02*
X2055733D01*
X2051208Y1517518D02*
X2055711D01*
X2041811Y1535338D02*
X2055560D01*
X2051208Y1517338D02*
X2055521D01*
X2042009Y1535518D02*
X2055357D01*
X2051208Y1517158D02*
X2055291D01*
X2042248Y1535698D02*
X2055112D01*
X2051208Y1516978D02*
X2055001D01*
X2042548Y1535878D02*
X2054806D01*
X2051208Y1516798D02*
X2054603D01*
X2042962Y1536058D02*
X2054385D01*
X2027343Y1525124D02*
X2039813D01*
X2027343Y1524944D02*
X2039813D01*
X2027343Y1524764D02*
X2039813D01*
X2027355Y1524584D02*
X2039813D01*
X2027429Y1524404D02*
X2039813D01*
X2027614Y1524224D02*
X2039813D01*
X2034244Y1524044D02*
X2039813D01*
X2034455Y1523864D02*
X2039813D01*
X2034563Y1523684D02*
X2039813D01*
X2034614Y1523504D02*
X2039813D01*
X2034623Y1523324D02*
X2039813D01*
X2034623Y1523144D02*
X2039813D01*
X2034623Y1522964D02*
X2039813D01*
X2034623Y1522784D02*
X2039813D01*
X2034623Y1522604D02*
X2039813D01*
X2034623Y1522424D02*
X2039813D01*
X2034623Y1522244D02*
X2039813D01*
X2034623Y1522064D02*
X2039813D01*
X2034623Y1521884D02*
X2039813D01*
X2034596Y1521704D02*
X2039813D01*
X2034522Y1521524D02*
X2039813D01*
X2034377Y1521344D02*
X2039813D01*
X2034033Y1521164D02*
X2039813D01*
X2020063Y1520984D02*
X2039813D01*
X2020063Y1520804D02*
X2039813D01*
X2020063Y1520624D02*
X2039813D01*
X2020063Y1520444D02*
X2039813D01*
X2020063Y1520264D02*
X2039813D01*
X2020063Y1520084D02*
X2039813D01*
X2020063Y1519904D02*
X2039813D01*
X2020063Y1519724D02*
X2039813D01*
X2020069Y1519544D02*
X2039813D01*
X2020085Y1519364D02*
X2039813D01*
X2020110Y1519184D02*
X2039813D01*
X2020145Y1519004D02*
X2039813D01*
X2020191Y1518824D02*
X2039813D01*
X2027343Y1525304D02*
X2039812D01*
X2020246Y1518644D02*
X2039811D01*
X2027343Y1525484D02*
X2039803D01*
X2020313Y1518464D02*
X2039798D01*
X2027343Y1525664D02*
X2039786D01*
X2020392Y1518284D02*
X2039771D01*
X2027343Y1525844D02*
X2039760D01*
X2020483Y1518104D02*
X2039729D01*
X2027343Y1526024D02*
X2039726D01*
X2027343Y1526204D02*
X2039682D01*
X2020588Y1517924D02*
X2039673D01*
X2027343Y1526384D02*
X2039629D01*
X2020709Y1517744D02*
X2039601D01*
X2027343Y1526564D02*
X2039567D01*
X2020848Y1517564D02*
X2039512D01*
X2027343Y1526744D02*
X2039494D01*
X2027343Y1526924D02*
X2039410D01*
X2021006Y1517384D02*
X2039402D01*
X2027343Y1527104D02*
X2039314D01*
X2021190Y1517204D02*
X2039270D01*
X2027343Y1527284D02*
X2039206D01*
X2021404Y1517024D02*
X2039108D01*
X2027343Y1527464D02*
X2039083D01*
X2027343Y1527644D02*
X2038944D01*
X2021661Y1516844D02*
X2038909D01*
X2027343Y1527824D02*
X2038788D01*
X2021980Y1516664D02*
X2038654D01*
X2027343Y1528004D02*
X2038609D01*
X2027343Y1528184D02*
X2038405D01*
X2022416Y1516484D02*
X2038298D01*
X2027343Y1528364D02*
X2038167D01*
X2027343Y1528544D02*
X2037883D01*
X2020063Y1532684D02*
X2037853D01*
X2020063Y1532504D02*
X2037853D01*
X2020063Y1532324D02*
X2037853D01*
X2020063Y1532864D02*
X2037850D01*
X2020070Y1533044D02*
X2037837D01*
X2020088Y1533224D02*
X2037814D01*
X2020115Y1533404D02*
X2037781D01*
X2020154Y1533584D02*
X2037737D01*
X2020203Y1533764D02*
X2037683D01*
X2020263Y1533944D02*
X2037618D01*
X2020336Y1534124D02*
X2037540D01*
X2027343Y1528724D02*
X2037529D01*
X2020422Y1534304D02*
X2037449D01*
X2020522Y1534484D02*
X2037344D01*
X2020638Y1534664D02*
X2037223D01*
X2020772Y1534844D02*
X2037084D01*
X2027343Y1528904D02*
X2037036D01*
X2020928Y1535024D02*
X2036924D01*
X2021109Y1535204D02*
X2036738D01*
X2021323Y1535384D02*
X2036519D01*
X2021582Y1535564D02*
X2036254D01*
X2021911Y1535744D02*
X2035918D01*
X2022383Y1535924D02*
X2035438D01*
X2020063Y1521164D02*
X2026192D01*
X2020063Y1521344D02*
X2025848D01*
X2020063Y1521524D02*
X2025704D01*
X2020063Y1521704D02*
X2025629D01*
X2020063Y1521884D02*
X2025603D01*
X2020063Y1532144D02*
X2025603D01*
X2020063Y1531964D02*
X2025603D01*
X2020063Y1531784D02*
X2025603D01*
X2020063Y1531604D02*
X2025603D01*
X2020063Y1531424D02*
X2025603D01*
X2020063Y1531244D02*
X2025603D01*
X2020063Y1531064D02*
X2025603D01*
X2020063Y1530884D02*
X2025603D01*
X2020063Y1530704D02*
X2025603D01*
X2020063Y1530524D02*
X2025603D01*
X2020063Y1530344D02*
X2025603D01*
X2020063Y1530164D02*
X2025603D01*
X2020063Y1529984D02*
X2025603D01*
X2020063Y1529804D02*
X2025603D01*
X2020063Y1529624D02*
X2025603D01*
X2020063Y1529444D02*
X2025603D01*
X2020063Y1529264D02*
X2025603D01*
X2020063Y1529084D02*
X2025603D01*
X2020063Y1528904D02*
X2025603D01*
X2020063Y1528724D02*
X2025603D01*
X2020063Y1528544D02*
X2025603D01*
X2020063Y1528364D02*
X2025603D01*
X2020063Y1528184D02*
X2025603D01*
X2020063Y1528004D02*
X2025603D01*
X2020063Y1527824D02*
X2025603D01*
X2020063Y1527644D02*
X2025603D01*
X2020063Y1527464D02*
X2025603D01*
X2020063Y1527284D02*
X2025603D01*
X2020063Y1527104D02*
X2025603D01*
X2020063Y1526924D02*
X2025603D01*
X2020063Y1526744D02*
X2025603D01*
X2020063Y1526564D02*
X2025603D01*
X2020063Y1526384D02*
X2025603D01*
X2020063Y1526204D02*
X2025603D01*
X2020063Y1526024D02*
X2025603D01*
X2020063Y1525844D02*
X2025603D01*
X2020063Y1525664D02*
X2025603D01*
X2020063Y1525484D02*
X2025603D01*
X2020063Y1525304D02*
X2025603D01*
X2020063Y1525124D02*
X2025603D01*
X2020063Y1524944D02*
X2025603D01*
X2020063Y1524764D02*
X2025603D01*
X2020063Y1524584D02*
X2025603D01*
X2020063Y1524404D02*
X2025603D01*
X2020063Y1524224D02*
X2025603D01*
X2020063Y1524044D02*
X2025603D01*
X2020063Y1523864D02*
X2025603D01*
X2020063Y1523684D02*
X2025603D01*
X2020063Y1523504D02*
X2025603D01*
X2020063Y1523324D02*
X2025603D01*
X2020063Y1523144D02*
X2025603D01*
X2020063Y1522964D02*
X2025603D01*
X2020063Y1522784D02*
X2025603D01*
X2020063Y1522604D02*
X2025603D01*
X2020063Y1522424D02*
X2025603D01*
X2020063Y1522244D02*
X2025603D01*
X2020063Y1522064D02*
X2025603D01*
X2003987Y1531955D02*
X2017577D01*
X2003987Y1531775D02*
X2017577D01*
X2009843Y1531595D02*
X2017577D01*
X2010356Y1531415D02*
X2017577D01*
X2010700Y1531235D02*
X2017577D01*
X2010966Y1531055D02*
X2017577D01*
X2011185Y1530875D02*
X2017577D01*
X2011370Y1530695D02*
X2017577D01*
X2011528Y1530515D02*
X2017577D01*
X2011664Y1530335D02*
X2017577D01*
X2011782Y1530155D02*
X2017577D01*
X2011884Y1529975D02*
X2017577D01*
X2011970Y1529795D02*
X2017577D01*
X2012044Y1529615D02*
X2017577D01*
X2012105Y1529435D02*
X2017577D01*
X2012155Y1529255D02*
X2017577D01*
X2012194Y1529075D02*
X2017577D01*
X2012222Y1528895D02*
X2017577D01*
X2012239Y1528715D02*
X2017577D01*
X2012247Y1528535D02*
X2017577D01*
X2012247Y1528355D02*
X2017577D01*
X2012247Y1528175D02*
X2017577D01*
X2012247Y1527995D02*
X2017577D01*
X2012247Y1527815D02*
X2017577D01*
X2012247Y1527635D02*
X2017577D01*
X2012247Y1527455D02*
X2017577D01*
X2012247Y1527275D02*
X2017577D01*
X2012247Y1527095D02*
X2017577D01*
X2012247Y1526915D02*
X2017577D01*
X2012247Y1526735D02*
X2017577D01*
X2012247Y1526555D02*
X2017577D01*
X2012247Y1526375D02*
X2017577D01*
X2012247Y1526195D02*
X2017577D01*
X2012247Y1526015D02*
X2017577D01*
X2012247Y1525835D02*
X2017577D01*
X2012247Y1525655D02*
X2017577D01*
X2012247Y1525475D02*
X2017577D01*
X2012247Y1525295D02*
X2017577D01*
X2012247Y1525115D02*
X2017577D01*
X2012247Y1524935D02*
X2017577D01*
X2012247Y1524755D02*
X2017577D01*
X2012247Y1524575D02*
X2017577D01*
X2012247Y1524395D02*
X2017577D01*
X2012247Y1524215D02*
X2017577D01*
X2012247Y1524035D02*
X2017577D01*
X2012247Y1523855D02*
X2017577D01*
X2012247Y1523675D02*
X2017577D01*
X2012247Y1523495D02*
X2017577D01*
X2012246Y1523315D02*
X2017577D01*
X2012236Y1523135D02*
X2017577D01*
X2012216Y1522955D02*
X2017577D01*
X2012186Y1522775D02*
X2017577D01*
X2012145Y1522595D02*
X2017577D01*
X2012094Y1522415D02*
X2017577D01*
X2012032Y1522235D02*
X2017577D01*
X2011958Y1522055D02*
X2017577D01*
X2011871Y1521875D02*
X2017577D01*
X2011770Y1521695D02*
X2017577D01*
X2011653Y1521515D02*
X2017577D01*
X2011519Y1521335D02*
X2017577D01*
X2011364Y1521155D02*
X2017577D01*
X2011185Y1520975D02*
X2017577D01*
X2010974Y1520795D02*
X2017577D01*
X2010721Y1520615D02*
X2017577D01*
X2010404Y1520435D02*
X2017577D01*
X2009967Y1520255D02*
X2017577D01*
X1996707Y1520075D02*
X2017577D01*
X1996707Y1519895D02*
X2017577D01*
X1996707Y1519715D02*
X2017577D01*
X1996707Y1519535D02*
X2017577D01*
X1996709Y1519355D02*
X2017577D01*
X1996720Y1519175D02*
X2017577D01*
X1996742Y1518995D02*
X2017577D01*
X1996775Y1518815D02*
X2017577D01*
X1996818Y1518635D02*
X2017577D01*
X1996873Y1518455D02*
X2017576D01*
X2003987Y1532135D02*
X2017576D01*
X2003987Y1532315D02*
X2017567D01*
X1996939Y1518275D02*
X2017565D01*
X2003987Y1532495D02*
X2017550D01*
X1997019Y1518095D02*
X2017538D01*
X2003987Y1532675D02*
X2017525D01*
X1997112Y1517915D02*
X2017496D01*
X2003987Y1532855D02*
X2017491D01*
X2003987Y1533035D02*
X2017447D01*
X1997221Y1517735D02*
X2017437D01*
X2003987Y1533215D02*
X2017395D01*
X1997348Y1517555D02*
X2017360D01*
X2003987Y1533395D02*
X2017332D01*
X1997494Y1517375D02*
X2017264D01*
X2003987Y1533575D02*
X2017260D01*
X2003987Y1533755D02*
X2017177D01*
X1997665Y1517195D02*
X2017144D01*
X2003987Y1533935D02*
X2017082D01*
X1997867Y1517015D02*
X2016996D01*
X2003987Y1534115D02*
X2016974D01*
X2003987Y1534295D02*
X2016852D01*
X1998109Y1516835D02*
X2016810D01*
X2003987Y1534475D02*
X2016715D01*
X1998412Y1516655D02*
X2016571D01*
X2003987Y1534655D02*
X2016560D01*
X2003987Y1534835D02*
X2016383D01*
X1998827Y1516475D02*
X2016234D01*
X2003987Y1535015D02*
X2016181D01*
X2003987Y1535195D02*
X2015947D01*
X2003987Y1535375D02*
X2015668D01*
X2003987Y1535555D02*
X2015322D01*
X2003987Y1535735D02*
X2014850D01*
X2003987Y1531595D02*
X2005284D01*
X2003987Y1531415D02*
X2005104D01*
X2003987Y1531235D02*
X2004924D01*
X2003987Y1531055D02*
X2004744D01*
X2003987Y1530875D02*
X2004564D01*
X2003987Y1530695D02*
X2004384D01*
X1996707Y1520255D02*
X2004363D01*
X2003987Y1530515D02*
X2004204D01*
X2003987Y1530335D02*
X2004024D01*
X1996707Y1520435D02*
X2003935D01*
X1996707Y1520615D02*
X2003625D01*
X1996707Y1520795D02*
X2003378D01*
X1996707Y1520975D02*
X2003172D01*
X1996707Y1521155D02*
X2002998D01*
X1996707Y1521335D02*
X2002848D01*
X1996707Y1521515D02*
X2002718D01*
X1996707Y1521695D02*
X2002607D01*
X1996707Y1521875D02*
X2002510D01*
X1996707Y1522055D02*
X2002428D01*
X1996707Y1522235D02*
X2002359D01*
X1996707Y1522415D02*
X2002301D01*
X1996707Y1522595D02*
X2002255D01*
X1996707Y1522775D02*
X2002220D01*
X1996707Y1522955D02*
X2002196D01*
X1996707Y1523135D02*
X2002181D01*
X1999897Y1545635D02*
X2002177D01*
X1998914Y1545455D02*
X2002177D01*
X1998492Y1545275D02*
X2002177D01*
X1998184Y1545095D02*
X2002177D01*
X1997937Y1544915D02*
X2002177D01*
X1997730Y1544735D02*
X2002177D01*
X1997555Y1544555D02*
X2002177D01*
X1997403Y1544375D02*
X2002177D01*
X1997272Y1544195D02*
X2002177D01*
X1997158Y1544015D02*
X2002177D01*
X1997060Y1543835D02*
X2002177D01*
X1996976Y1543655D02*
X2002177D01*
X1996905Y1543475D02*
X2002177D01*
X1996845Y1543295D02*
X2002177D01*
X1996797Y1543115D02*
X2002177D01*
X1996759Y1542935D02*
X2002177D01*
X1996732Y1542755D02*
X2002177D01*
X1996715Y1542575D02*
X2002177D01*
X1996707Y1542395D02*
X2002177D01*
X1996707Y1542215D02*
X2002177D01*
X1996707Y1542035D02*
X2002177D01*
X1996707Y1541855D02*
X2002177D01*
X1996707Y1541675D02*
X2002177D01*
X1996707Y1541495D02*
X2002177D01*
X1996707Y1541315D02*
X2002177D01*
X1996707Y1541135D02*
X2002177D01*
X1996707Y1540955D02*
X2002177D01*
X1996707Y1540775D02*
X2002177D01*
X1996707Y1540595D02*
X2002177D01*
X1996707Y1540415D02*
X2002177D01*
X1996707Y1540235D02*
X2002177D01*
X1996707Y1540055D02*
X2002177D01*
X1996707Y1539875D02*
X2002177D01*
X1996707Y1539695D02*
X2002177D01*
X1996707Y1539515D02*
X2002177D01*
X1996707Y1539335D02*
X2002177D01*
X1996707Y1539155D02*
X2002177D01*
X1996707Y1538975D02*
X2002177D01*
X1996707Y1538795D02*
X2002177D01*
X1996707Y1538615D02*
X2002177D01*
X1996707Y1538435D02*
X2002177D01*
X1996707Y1538255D02*
X2002177D01*
X1996707Y1538075D02*
X2002177D01*
X1996707Y1537895D02*
X2002177D01*
X1996707Y1537715D02*
X2002177D01*
X1996707Y1537535D02*
X2002177D01*
X1996707Y1537355D02*
X2002177D01*
X1996707Y1537175D02*
X2002177D01*
X1996707Y1536995D02*
X2002177D01*
X1996707Y1536815D02*
X2002177D01*
X1996707Y1536635D02*
X2002177D01*
X1996707Y1536455D02*
X2002177D01*
X1996707Y1536275D02*
X2002177D01*
X1996707Y1536095D02*
X2002177D01*
X1996707Y1535915D02*
X2002177D01*
X1996707Y1535735D02*
X2002177D01*
X1996707Y1535555D02*
X2002177D01*
X1996707Y1535375D02*
X2002177D01*
X1996707Y1535195D02*
X2002177D01*
X1996707Y1535015D02*
X2002177D01*
X1996707Y1534835D02*
X2002177D01*
X1996707Y1534655D02*
X2002177D01*
X1996707Y1534475D02*
X2002177D01*
X1996707Y1534295D02*
X2002177D01*
X1996707Y1534115D02*
X2002177D01*
X1996707Y1533935D02*
X2002177D01*
X1996707Y1533755D02*
X2002177D01*
X1996707Y1533575D02*
X2002177D01*
X1996707Y1533395D02*
X2002177D01*
X1996707Y1533215D02*
X2002177D01*
X1996707Y1533035D02*
X2002177D01*
X1996707Y1532855D02*
X2002177D01*
X1996707Y1532675D02*
X2002177D01*
X1996707Y1532495D02*
X2002177D01*
X1996707Y1532315D02*
X2002177D01*
X1996707Y1532135D02*
X2002177D01*
X1996707Y1531955D02*
X2002177D01*
X1996707Y1531775D02*
X2002177D01*
X1996707Y1531595D02*
X2002177D01*
X1996707Y1531415D02*
X2002177D01*
X1996707Y1531235D02*
X2002177D01*
X1996707Y1531055D02*
X2002177D01*
X1996707Y1530875D02*
X2002177D01*
X1996707Y1530695D02*
X2002177D01*
X1996707Y1530515D02*
X2002177D01*
X1996707Y1530335D02*
X2002177D01*
X1996707Y1530155D02*
X2002177D01*
X1996707Y1529975D02*
X2002177D01*
X1996707Y1529795D02*
X2002177D01*
X1996707Y1529615D02*
X2002177D01*
X1996707Y1529435D02*
X2002177D01*
X1996707Y1529255D02*
X2002177D01*
X1996707Y1529075D02*
X2002177D01*
X1996707Y1528895D02*
X2002177D01*
X1996707Y1528715D02*
X2002177D01*
X1996707Y1528535D02*
X2002177D01*
X1996707Y1528355D02*
X2002177D01*
X1996707Y1528175D02*
X2002177D01*
X1996707Y1527995D02*
X2002177D01*
X1996707Y1527815D02*
X2002177D01*
X1996707Y1527635D02*
X2002177D01*
X1996707Y1527455D02*
X2002177D01*
X1996707Y1527275D02*
X2002177D01*
X1996707Y1527095D02*
X2002177D01*
X1996707Y1526915D02*
X2002177D01*
X1996707Y1526735D02*
X2002177D01*
X1996707Y1526555D02*
X2002177D01*
X1996707Y1526375D02*
X2002177D01*
X1996707Y1526195D02*
X2002177D01*
X1996707Y1526015D02*
X2002177D01*
X1996707Y1525835D02*
X2002177D01*
X1996707Y1525655D02*
X2002177D01*
X1996707Y1525475D02*
X2002177D01*
X1996707Y1525295D02*
X2002177D01*
X1996707Y1525115D02*
X2002177D01*
X1996707Y1524935D02*
X2002177D01*
X1996707Y1524755D02*
X2002177D01*
X1996707Y1524575D02*
X2002177D01*
X1996707Y1524395D02*
X2002177D01*
X1996707Y1524215D02*
X2002177D01*
X1996707Y1524035D02*
X2002177D01*
X1996707Y1523855D02*
X2002177D01*
X1996707Y1523675D02*
X2002177D01*
X1996707Y1523495D02*
X2002177D01*
X1996707Y1523315D02*
X2002177D01*
X1957185Y1525400D02*
X1969655D01*
X1957185Y1525220D02*
X1969655D01*
X1957185Y1525040D02*
X1969655D01*
X1957198Y1524860D02*
X1969655D01*
X1957272Y1524680D02*
X1969655D01*
X1957457Y1524500D02*
X1969655D01*
X1964087Y1524320D02*
X1969655D01*
X1964297Y1524140D02*
X1969655D01*
X1964405Y1523960D02*
X1969655D01*
X1964456Y1523780D02*
X1969655D01*
X1964465Y1523600D02*
X1969655D01*
X1964465Y1523420D02*
X1969655D01*
X1964465Y1523240D02*
X1969655D01*
X1964465Y1523060D02*
X1969655D01*
X1964465Y1522880D02*
X1969655D01*
X1964465Y1522700D02*
X1969655D01*
X1964465Y1522520D02*
X1969655D01*
X1964465Y1522340D02*
X1969655D01*
X1964465Y1522160D02*
X1969655D01*
X1964439Y1521980D02*
X1969655D01*
X1964364Y1521800D02*
X1969655D01*
X1964220Y1521620D02*
X1969655D01*
X1963876Y1521440D02*
X1969655D01*
X1949905Y1521260D02*
X1969655D01*
X1949905Y1521080D02*
X1969655D01*
X1949905Y1520900D02*
X1969655D01*
X1949905Y1520720D02*
X1969655D01*
X1949905Y1520540D02*
X1969655D01*
X1949905Y1520360D02*
X1969655D01*
X1949905Y1520180D02*
X1969655D01*
X1949905Y1520000D02*
X1969655D01*
X1949912Y1519820D02*
X1969655D01*
X1949927Y1519640D02*
X1969655D01*
X1949953Y1519460D02*
X1969655D01*
X1949988Y1519280D02*
X1969655D01*
X1950033Y1519100D02*
X1969655D01*
X1957185Y1525580D02*
X1969654D01*
X1950089Y1518920D02*
X1969654D01*
X1957185Y1525760D02*
X1969646D01*
X1950156Y1518740D02*
X1969640D01*
X1957185Y1525940D02*
X1969628D01*
X1950234Y1518560D02*
X1969613D01*
X1957185Y1526120D02*
X1969603D01*
X1950326Y1518380D02*
X1969572D01*
X1957185Y1526300D02*
X1969568D01*
X1957185Y1526480D02*
X1969525D01*
X1950431Y1518200D02*
X1969516D01*
X1957185Y1526660D02*
X1969472D01*
X1950552Y1518020D02*
X1969444D01*
X1957185Y1526840D02*
X1969409D01*
X1950690Y1517840D02*
X1969354D01*
X1957185Y1527020D02*
X1969336D01*
X1957185Y1527200D02*
X1969252D01*
X1950849Y1517660D02*
X1969245D01*
X1957185Y1527380D02*
X1969157D01*
X1951032Y1517480D02*
X1969112D01*
X1957185Y1527560D02*
X1969048D01*
X1951247Y1517300D02*
X1968951D01*
X1957185Y1527740D02*
X1968925D01*
X1957185Y1527920D02*
X1968787D01*
X1951503Y1517120D02*
X1968751D01*
X1957185Y1528100D02*
X1968630D01*
X1951823Y1516940D02*
X1968496D01*
X1957185Y1528280D02*
X1968452D01*
X1957185Y1528460D02*
X1968248D01*
X1952259Y1516760D02*
X1968140D01*
X1957185Y1528640D02*
X1968010D01*
X1957185Y1528820D02*
X1967726D01*
X1949905Y1532960D02*
X1967695D01*
X1949905Y1532780D02*
X1967695D01*
X1949905Y1532600D02*
X1967695D01*
X1949906Y1533140D02*
X1967693D01*
X1949913Y1533320D02*
X1967680D01*
X1949930Y1533500D02*
X1967656D01*
X1949958Y1533680D02*
X1967623D01*
X1949996Y1533860D02*
X1967580D01*
X1950045Y1534040D02*
X1967526D01*
X1950106Y1534220D02*
X1967460D01*
X1950179Y1534400D02*
X1967382D01*
X1957185Y1529000D02*
X1967372D01*
X1950264Y1534580D02*
X1967292D01*
X1950365Y1534760D02*
X1967187D01*
X1950481Y1534940D02*
X1967066D01*
X1950615Y1535120D02*
X1966927D01*
X1957185Y1529180D02*
X1966878D01*
X1950770Y1535300D02*
X1966767D01*
X1950951Y1535480D02*
X1966580D01*
X1951165Y1535660D02*
X1966361D01*
X1951424Y1535840D02*
X1966096D01*
X1951753Y1536020D02*
X1965761D01*
X1952225Y1536200D02*
X1965281D01*
X1949905Y1521440D02*
X1956035D01*
X1949905Y1521620D02*
X1955691D01*
X1949905Y1521800D02*
X1955546D01*
X1949905Y1521980D02*
X1955472D01*
X1949905Y1522160D02*
X1955445D01*
X1949905Y1532420D02*
X1955445D01*
X1949905Y1532240D02*
X1955445D01*
X1949905Y1532060D02*
X1955445D01*
X1949905Y1531880D02*
X1955445D01*
X1949905Y1531700D02*
X1955445D01*
X1949905Y1531520D02*
X1955445D01*
X1949905Y1531340D02*
X1955445D01*
X1949905Y1531160D02*
X1955445D01*
X1949905Y1530980D02*
X1955445D01*
X1949905Y1530800D02*
X1955445D01*
X1949905Y1530620D02*
X1955445D01*
X1949905Y1530440D02*
X1955445D01*
X1949905Y1530260D02*
X1955445D01*
X1949905Y1530080D02*
X1955445D01*
X1949905Y1529900D02*
X1955445D01*
X1949905Y1529720D02*
X1955445D01*
X1949905Y1529540D02*
X1955445D01*
X1949905Y1529360D02*
X1955445D01*
X1949905Y1529180D02*
X1955445D01*
X1949905Y1529000D02*
X1955445D01*
X1949905Y1528820D02*
X1955445D01*
X1949905Y1528640D02*
X1955445D01*
X1949905Y1528460D02*
X1955445D01*
X1949905Y1528280D02*
X1955445D01*
X1949905Y1528100D02*
X1955445D01*
X1949905Y1527920D02*
X1955445D01*
X1949905Y1527740D02*
X1955445D01*
X1949905Y1527560D02*
X1955445D01*
X1949905Y1527380D02*
X1955445D01*
X1949905Y1527200D02*
X1955445D01*
X1949905Y1527020D02*
X1955445D01*
X1949905Y1526840D02*
X1955445D01*
X1949905Y1526660D02*
X1955445D01*
X1949905Y1526480D02*
X1955445D01*
X1949905Y1526300D02*
X1955445D01*
X1949905Y1526120D02*
X1955445D01*
X1949905Y1525940D02*
X1955445D01*
X1949905Y1525760D02*
X1955445D01*
X1949905Y1525580D02*
X1955445D01*
X1949905Y1525400D02*
X1955445D01*
X1949905Y1525220D02*
X1955445D01*
X1949905Y1525040D02*
X1955445D01*
X1949905Y1524860D02*
X1955445D01*
X1949905Y1524680D02*
X1955445D01*
X1949905Y1524500D02*
X1955445D01*
X1949905Y1524320D02*
X1955445D01*
X1949905Y1524140D02*
X1955445D01*
X1949905Y1523960D02*
X1955445D01*
X1949905Y1523780D02*
X1955445D01*
X1949905Y1523600D02*
X1955445D01*
X1949905Y1523420D02*
X1955445D01*
X1949905Y1523240D02*
X1955445D01*
X1949905Y1523060D02*
X1955445D01*
X1949905Y1522880D02*
X1955445D01*
X1949905Y1522700D02*
X1955445D01*
X1949905Y1522520D02*
X1955445D01*
X1949905Y1522340D02*
X1955445D01*
G54D138*
X2059827Y1606445D02*
Y1599555D01*
X2063173*
Y1606445*
X2059827*
X2179864Y1725437D02*
G03X2180664Y1726237I0J800D01*
G01Y1731637*
G03X2179864Y1732437I-800J-0*
G01X2167774*
G03X2166974Y1731637I-0J-800*
G01Y1726237*
G03X2167774Y1725437I800J0*
G01X2179864*
X1929661Y1467659D02*
Y1469000D01*
X1930461Y1469800D02*
G03X1929661Y1469000I0J-800D01*
G01X1930461Y1469800D02*
X1932539D01*
X1933339Y1469000D02*
G03X1932539Y1469800I-800J0D01*
G01X1933339Y1469000D02*
Y1467659D01*
Y1467825D02*
Y1463310D01*
X1932539Y1462746D02*
G03X1933339Y1463310I118J682D01*
G01X1932539Y1462746D02*
X1930461D01*
X1929661Y1463546D02*
G03X1930461Y1462746I800J0D01*
G01X1929661Y1463546D02*
Y1468124D01*
X2056555Y1737774D02*
Y1740117D01*
X2057355Y1740917D02*
G03X2056555Y1740117I0J-800D01*
G01X2057355Y1740917D02*
X2060755D01*
X2061555Y1740117D02*
G03X2060755Y1740917I-800J0D01*
G01X2061555Y1740117D02*
Y1737774D01*
Y1737925D02*
Y1731918D01*
X2060755Y1731118D02*
G03X2061555Y1731918I-0J800D01*
G01X2060755Y1731118D02*
X2057355D01*
X2056555Y1731918D02*
G03X2057355Y1731118I800J0D01*
G01X2056555Y1731918D02*
Y1737815D01*
X2069949Y1735993D02*
Y1734652D01*
X2069149Y1733852D02*
G03X2069949Y1734652I0J800D01*
G01X2069149Y1733852D02*
X2067071D01*
X2066271Y1734652D02*
G03X2067071Y1733852I800J0D01*
G01X2066271Y1734652D02*
Y1735993D01*
X2066272Y1735827D02*
X2066271Y1740342D01*
X2067071Y1740906D02*
G03X2066271Y1740342I-118J-682D01*
G01X2067071Y1740906D02*
X2069149D01*
X2069949Y1740106D02*
G03X2069149Y1740906I-800J0D01*
G01X2069949Y1740106D02*
Y1735528D01*
X2095250Y1633500D02*
Y1631157D01*
X2094450Y1630357D02*
G03X2095250Y1631157I0J800D01*
G01X2094450Y1630357D02*
X2091050D01*
X2090250Y1631157D02*
G03X2091050Y1630357I800J-0D01*
G01X2090250Y1631157D02*
Y1633500D01*
Y1633348D02*
Y1639356D01*
X2091050Y1640156D02*
G03X2090250Y1639356I0J-800D01*
G01X2091050Y1640156D02*
X2094450D01*
X2095250Y1639356D02*
G03X2094450Y1640156I-800J-0D01*
G01X2095250Y1639356D02*
Y1633459D01*
X2070874Y1637696D02*
Y1639037D01*
X2071674Y1639837D02*
G03X2070874Y1639037I-0J-800D01*
G01X2071674Y1639837D02*
X2073752D01*
X2074552Y1639037D02*
G03X2073752Y1639837I-800J0D01*
G01X2074552Y1639037D02*
Y1637696D01*
X2074551Y1637862D02*
X2074552Y1633347D01*
X2073752Y1632783D02*
G03X2074552Y1633348I117J683D01*
G01X2073752Y1632783D02*
X2071674D01*
X2070874Y1633583D02*
G03X2071674Y1632783I800J0D01*
G01X2070874Y1633583D02*
Y1638161D01*
X1933409Y1458089D02*
X1934750D01*
X1935550Y1457289D02*
G03X1934750Y1458089I-800J-0D01*
G01X1935550Y1457289D02*
Y1455211D01*
X1934750Y1454411D02*
G03X1935550Y1455211I0J800D01*
G01X1934750Y1454411D02*
X1933409D01*
X1933575D02*
X1929060D01*
X1928496Y1455211D02*
G03X1929060Y1454411I682J-118D01*
G01X1928496Y1455211D02*
Y1457289D01*
X1929296Y1458089D02*
G03X1928496Y1457289I0J-800D01*
G01X1929296Y1458089D02*
X1933874D01*
X1925035Y1714593D02*
X1937261D01*
Y1723793*
X1924846*
X1925061D02*
X1917661D01*
Y1714593*
X1925061*
X1900750Y1720750D02*
Y1723093D01*
X1901550Y1723893D02*
G03X1900750Y1723093I-0J-800D01*
G01X1901550Y1723893D02*
X1904950D01*
X1905750Y1723093D02*
G03X1904950Y1723893I-800J0D01*
G01X1905750Y1723093D02*
Y1720750D01*
Y1720902D02*
Y1714894D01*
X1904950Y1714094D02*
G03X1905750Y1714894I-0J800D01*
G01X1904950Y1714094D02*
X1901550D01*
X1900750Y1714894D02*
G03X1901550Y1714094I800J0D01*
G01X1900750Y1714894D02*
Y1720791D01*
X2123589Y1539091D02*
Y1537750D01*
X2122789Y1536950D02*
G03X2123589Y1537750I-0J800D01*
G01X2122789Y1536950D02*
X2120711D01*
X2119911Y1537750D02*
G03X2120711Y1536950I800J0D01*
G01X2119911Y1537750D02*
Y1539091D01*
Y1538925D02*
Y1543440D01*
X2120711Y1544004D02*
G03X2119911Y1543440I-118J-682D01*
G01X2120711Y1544004D02*
X2122789D01*
X2123589Y1543204D02*
G03X2122789Y1544004I-800J0D01*
G01X2123589Y1543204D02*
Y1538626D01*
X2127723Y1539091D02*
Y1537750D01*
X2126923Y1536950D02*
G03X2127723Y1537750I-0J800D01*
G01X2126923Y1536950D02*
X2124845D01*
X2124045Y1537750D02*
G03X2124845Y1536950I800J0D01*
G01X2124045Y1537750D02*
Y1539091D01*
Y1538925D02*
Y1543440D01*
X2124845Y1544004D02*
G03X2124045Y1543440I-118J-682D01*
G01X2124845Y1544004D02*
X2126923D01*
X2127723Y1543204D02*
G03X2126923Y1544004I-800J0D01*
G01X2127723Y1543204D02*
Y1538626D01*
X1924429Y1609909D02*
Y1611250D01*
X1925229Y1612050D02*
G03X1924429Y1611250I-0J-800D01*
G01X1925229Y1612050D02*
X1927307D01*
X1928107Y1611250D02*
G03X1927307Y1612050I-800J0D01*
G01X1928107Y1611250D02*
Y1609909D01*
X1928106Y1610075D02*
X1928107Y1605560D01*
X1927307Y1604996D02*
G03X1928107Y1605560I117J682D01*
G01X1927307Y1604996D02*
X1925229D01*
X1924429Y1605796D02*
G03X1925229Y1604996I800J0D01*
G01X1924429Y1605796D02*
Y1610374D01*
X2142841Y1539091D02*
Y1537750D01*
X2142041Y1536950D02*
G03X2142841Y1537750I-0J800D01*
G01X2142041Y1536950D02*
X2139963D01*
X2139163Y1537750D02*
G03X2139963Y1536950I800J0D01*
G01X2139163Y1537750D02*
Y1539091D01*
Y1538925D02*
Y1543440D01*
X2139963Y1544004D02*
G03X2139163Y1543440I-118J-682D01*
G01X2139963Y1544004D02*
X2142041D01*
X2142841Y1543204D02*
G03X2142041Y1544004I-800J0D01*
G01X2142841Y1543204D02*
Y1538626D01*
X2146581Y1539091D02*
Y1537750D01*
X2145781Y1536950D02*
G03X2146581Y1537750I0J800D01*
G01X2145781Y1536950D02*
X2143703D01*
X2142903Y1537750D02*
G03X2143703Y1536950I800J0D01*
G01X2142903Y1537750D02*
Y1539091D01*
X2142904Y1538925D02*
X2142903Y1543440D01*
X2143703Y1544004D02*
G03X2142903Y1543440I-118J-682D01*
G01X2143703Y1544004D02*
X2145781D01*
X2146581Y1543204D02*
G03X2145781Y1544004I-800J0D01*
G01X2146581Y1543204D02*
Y1538626D01*
X2177341Y1472911D02*
X2176000D01*
X2175200Y1473711D02*
G03X2176000Y1472911I800J0D01*
G01X2175200Y1473711D02*
Y1475789D01*
X2176000Y1476589D02*
G03X2175200Y1475789I0J-800D01*
G01X2176000Y1476589D02*
X2177341D01*
X2177175D02*
X2181690D01*
X2182254Y1475789D02*
G03X2181690Y1476589I-682J118D01*
G01X2182254Y1475789D02*
Y1473711D01*
X2181454Y1472911D02*
G03X2182254Y1473711I0J800D01*
G01X2181454Y1472911D02*
X2176876D01*
X2180591Y1586161D02*
X2179250D01*
X2178450Y1586961D02*
G03X2179250Y1586161I800J0D01*
G01X2178450Y1586961D02*
Y1589039D01*
X2179250Y1589839D02*
G03X2178450Y1589039I0J-800D01*
G01X2179250Y1589839D02*
X2180591D01*
X2180425D02*
X2184940D01*
X2185504Y1589039D02*
G03X2184940Y1589839I-682J118D01*
G01X2185504Y1589039D02*
Y1586961D01*
X2184704Y1586161D02*
G03X2185504Y1586961I0J800D01*
G01X2184704Y1586161D02*
X2180126D01*
X2171409Y1561339D02*
X2172750D01*
X2173550Y1560539D02*
G03X2172750Y1561339I-800J-0D01*
G01X2173550Y1560539D02*
Y1558461D01*
X2172750Y1557661D02*
G03X2173550Y1558461I0J800D01*
G01X2172750Y1557661D02*
X2171409D01*
X2171575D02*
X2167060D01*
X2166496Y1558461D02*
G03X2167060Y1557661I682J-118D01*
G01X2166496Y1558461D02*
Y1560539D01*
X2167296Y1561339D02*
G03X2166496Y1560539I0J-800D01*
G01X2167296Y1561339D02*
X2171874D01*
X2174089Y1550841D02*
Y1549500D01*
X2173289Y1548700D02*
G03X2174089Y1549500I-0J800D01*
G01X2173289Y1548700D02*
X2171211D01*
X2170411Y1549500D02*
G03X2171211Y1548700I800J0D01*
G01X2170411Y1549500D02*
Y1550841D01*
Y1550675D02*
Y1555190D01*
X2171211Y1555754D02*
G03X2170411Y1555190I-118J-682D01*
G01X2171211Y1555754D02*
X2173289D01*
X2174089Y1554954D02*
G03X2173289Y1555754I-800J0D01*
G01X2174089Y1554954D02*
Y1550376D01*
X2170031Y1453374D02*
X2171372D01*
X2172172Y1452574D02*
G03X2171372Y1453374I-800J0D01*
G01X2172172Y1452574D02*
Y1450496D01*
X2171372Y1449696D02*
G03X2172172Y1450496I0J800D01*
G01X2171372Y1449696D02*
X2170031D01*
X2170197Y1449697D02*
X2165682Y1449696D01*
X2165118Y1450496D02*
G03X2165682Y1449696I682J-117D01*
G01X2165118Y1450496D02*
Y1452574D01*
X2165918Y1453374D02*
G03X2165118Y1452574I0J-800D01*
G01X2165918Y1453374D02*
X2170496D01*
X2175091Y1706661D02*
X2173750D01*
X2172950Y1707461D02*
G03X2173750Y1706661I800J0D01*
G01X2172950Y1707461D02*
Y1709539D01*
X2173750Y1710339D02*
G03X2172950Y1709539I0J-800D01*
G01X2173750Y1710339D02*
X2175091D01*
X2174925D02*
X2179440D01*
X2180004Y1709539D02*
G03X2179440Y1710339I-682J118D01*
G01X2180004Y1709539D02*
Y1707461D01*
X2179204Y1706661D02*
G03X2180004Y1707461I0J800D01*
G01X2179204Y1706661D02*
X2174626D01*
X1906661Y1609909D02*
Y1611250D01*
X1907461Y1612050D02*
G03X1906661Y1611250I0J-800D01*
G01X1907461Y1612050D02*
X1909539D01*
X1910339Y1611250D02*
G03X1909539Y1612050I-800J0D01*
G01X1910339Y1611250D02*
Y1609909D01*
Y1610075D02*
Y1605560D01*
X1909539Y1604996D02*
G03X1910339Y1605560I118J682D01*
G01X1909539Y1604996D02*
X1907461D01*
X1906661Y1605796D02*
G03X1907461Y1604996I800J0D01*
G01X1906661Y1605796D02*
Y1610374D01*
X2024659Y1461589D02*
X2026000D01*
X2026800Y1460789D02*
G03X2026000Y1461589I-800J-0D01*
G01X2026800Y1460789D02*
Y1458711D01*
X2026000Y1457911D02*
G03X2026800Y1458711I0J800D01*
G01X2026000Y1457911D02*
X2024659D01*
X2024825D02*
X2020310D01*
X2019746Y1458711D02*
G03X2020310Y1457911I682J-118D01*
G01X2019746Y1458711D02*
Y1460789D01*
X2020546Y1461589D02*
G03X2019746Y1460789I0J-800D01*
G01X2020546Y1461589D02*
X2025124D01*
X2061682Y1460911D02*
X2060341D01*
X2059541Y1461711D02*
G03X2060341Y1460911I800J0D01*
G01X2059541Y1461711D02*
Y1463789D01*
X2060341Y1464589D02*
G03X2059541Y1463789I0J-800D01*
G01X2060341Y1464589D02*
X2061682D01*
X2061516D02*
X2066031D01*
X2066595Y1463789D02*
G03X2066031Y1464589I-682J118D01*
G01X2066595Y1463789D02*
Y1461711D01*
X2065795Y1460911D02*
G03X2066595Y1461711I0J800D01*
G01X2065795Y1460911D02*
X2061217D01*
X2061682Y1452911D02*
X2060341D01*
X2059541Y1453711D02*
G03X2060341Y1452911I800J0D01*
G01X2059541Y1453711D02*
Y1455789D01*
X2060341Y1456589D02*
G03X2059541Y1455789I0J-800D01*
G01X2060341Y1456589D02*
X2061682D01*
X2061516D02*
X2066031D01*
X2066595Y1455789D02*
G03X2066031Y1456589I-682J118D01*
G01X2066595Y1455789D02*
Y1453711D01*
X2065795Y1452911D02*
G03X2066595Y1453711I0J800D01*
G01X2065795Y1452911D02*
X2061217D01*
X2036411Y1450624D02*
Y1451965D01*
X2037211Y1452765D02*
G03X2036411Y1451965I0J-800D01*
G01X2037211Y1452765D02*
X2039289D01*
X2040089Y1451965D02*
G03X2039289Y1452765I-800J0D01*
G01X2040089Y1451965D02*
Y1450624D01*
Y1450790D02*
Y1446275D01*
X2039289Y1445711D02*
G03X2040089Y1446275I118J682D01*
G01X2039289Y1445711D02*
X2037211D01*
X2036411Y1446511D02*
G03X2037211Y1445711I800J0D01*
G01X2036411Y1446511D02*
Y1451089D01*
X2052339Y1447806D02*
Y1446465D01*
X2051539Y1445665D02*
G03X2052339Y1446465I-0J800D01*
G01X2051539Y1445665D02*
X2049461D01*
X2048661Y1446465D02*
G03X2049461Y1445665I800J0D01*
G01X2048661Y1446465D02*
Y1447806D01*
Y1447640D02*
Y1452155D01*
X2049461Y1452719D02*
G03X2048661Y1452155I-118J-682D01*
G01X2049461Y1452719D02*
X2051539D01*
X2052339Y1451919D02*
G03X2051539Y1452719I-800J0D01*
G01X2052339Y1451919D02*
Y1447341D01*
X2125661Y1475909D02*
Y1477250D01*
X2126461Y1478050D02*
G03X2125661Y1477250I0J-800D01*
G01X2126461Y1478050D02*
X2128539D01*
X2129339Y1477250D02*
G03X2128539Y1478050I-800J0D01*
G01X2129339Y1477250D02*
Y1475909D01*
Y1476075D02*
Y1471560D01*
X2128539Y1470996D02*
G03X2129339Y1471560I118J682D01*
G01X2128539Y1470996D02*
X2126461D01*
X2125661Y1471796D02*
G03X2126461Y1470996I800J0D01*
G01X2125661Y1471796D02*
Y1476374D01*
X2144136Y1734000D02*
G03X2144936Y1734800I-0J800D01*
G01Y1740200*
G03X2144136Y1741000I-800J-0*
G01X2132046*
G03X2131246Y1740200I-0J-800*
G01Y1734800*
G03X2132046Y1734000I800J0*
G01X2144136*
X2116901Y1450622D02*
Y1451963D01*
X2117701Y1452763D02*
G03X2116901Y1451963I0J-800D01*
G01X2117701Y1452763D02*
X2119779D01*
X2120579Y1451963D02*
G03X2119779Y1452763I-800J-0D01*
G01X2120579Y1451963D02*
Y1450622D01*
Y1450787D02*
Y1446273D01*
X2119779Y1445709D02*
G03X2120579Y1446273I118J682D01*
G01X2119779Y1445709D02*
X2117701D01*
X2116901Y1446509D02*
G03X2117701Y1445709I800J-0D01*
G01X2116901Y1446509D02*
Y1451087D01*
X2116138Y1458604D02*
G03X2115338Y1459404I-800J0D01*
G01X2109938*
G03X2109138Y1458604I-0J-800*
G01Y1446514*
G03X2109938Y1445714I800J0*
G01X2115338*
G03X2116138Y1446514I-0J800*
G01Y1458604*
X2022419Y1707224D02*
X2024763D01*
X2025563Y1706424D02*
G03X2024763Y1707224I-800J0D01*
G01X2025563Y1706424D02*
Y1703024D01*
X2024763Y1702224D02*
G03X2025563Y1703024I-0J800D01*
G01X2024763Y1702224D02*
X2022419D01*
X2022571Y1702225D02*
X2016564D01*
X2015764Y1703025D02*
G03X2016564Y1702225I800J-0D01*
G01X2015764Y1703025D02*
Y1706424D01*
X2016564Y1707224D02*
G03X2015764Y1706424I-0J-800D01*
G01X2016564Y1707224D02*
X2022461D01*
X1953750Y1465250D02*
X1956093D01*
X1956893Y1464450D02*
G03X1956093Y1465250I-800J0D01*
G01X1956893Y1464450D02*
Y1461050D01*
X1956093Y1460250D02*
G03X1956893Y1461050I0J800D01*
G01X1956093Y1460250D02*
X1953750D01*
X1953902D02*
X1947894D01*
X1947094Y1461050D02*
G03X1947894Y1460250I800J0D01*
G01X1947094Y1461050D02*
Y1464450D01*
X1947894Y1465250D02*
G03X1947094Y1464450I0J-800D01*
G01X1947894Y1465250D02*
X1953791D01*
X2045057Y1707224D02*
X2047401D01*
X2048201Y1706424D02*
G03X2047401Y1707224I-800J0D01*
G01X2048201Y1706424D02*
Y1703024D01*
X2047401Y1702224D02*
G03X2048201Y1703024I-0J800D01*
G01X2047401Y1702224D02*
X2045057D01*
X2045209Y1702225D02*
X2039202D01*
X2038402Y1703025D02*
G03X2039202Y1702225I800J-0D01*
G01X2038402Y1703025D02*
Y1706424D01*
X2039202Y1707224D02*
G03X2038402Y1706424I-0J-800D01*
G01X2039202Y1707224D02*
X2045098D01*
X2127876Y1637362D02*
X2125533D01*
X2124733Y1638162D02*
G03X2125533Y1637362I800J0D01*
G01X2124733Y1638162D02*
Y1641562D01*
X2125533Y1642362D02*
G03X2124733Y1641562I-0J-800D01*
G01X2125533Y1642362D02*
X2127876D01*
X2127724D02*
X2133731D01*
X2134531Y1641562D02*
G03X2133731Y1642362I-800J0D01*
G01X2134531Y1641562D02*
Y1638162D01*
X2133731Y1637362D02*
G03X2134531Y1638162I0J800D01*
G01X2133731Y1637362D02*
X2127835D01*
X2128091Y1642161D02*
X2126750D01*
X2125950Y1642961D02*
G03X2126750Y1642161I800J0D01*
G01X2125950Y1642961D02*
Y1645039D01*
X2126750Y1645839D02*
G03X2125950Y1645039I0J-800D01*
G01X2126750Y1645839D02*
X2128091D01*
X2127925D02*
X2132440D01*
X2133004Y1645039D02*
G03X2132440Y1645839I-682J118D01*
G01X2133004Y1645039D02*
Y1642961D01*
X2132204Y1642161D02*
G03X2133004Y1642961I0J800D01*
G01X2132204Y1642161D02*
X2127626D01*
X2128091Y1660661D02*
X2126750D01*
X2125950Y1661461D02*
G03X2126750Y1660661I800J0D01*
G01X2125950Y1661461D02*
Y1663539D01*
X2126750Y1664339D02*
G03X2125950Y1663539I0J-800D01*
G01X2126750Y1664339D02*
X2128091D01*
X2127925D02*
X2132440D01*
X2133004Y1663539D02*
G03X2132440Y1664339I-682J118D01*
G01X2133004Y1663539D02*
Y1661461D01*
X2132204Y1660661D02*
G03X2133004Y1661461I0J800D01*
G01X2132204Y1660661D02*
X2127626D01*
X2128091Y1664161D02*
X2126750D01*
X2125950Y1664961D02*
G03X2126750Y1664161I800J0D01*
G01X2125950Y1664961D02*
Y1667039D01*
X2126750Y1667839D02*
G03X2125950Y1667039I0J-800D01*
G01X2126750Y1667839D02*
X2128091D01*
X2127925D02*
X2132440D01*
X2133004Y1667039D02*
G03X2132440Y1667839I-682J118D01*
G01X2133004Y1667039D02*
Y1664961D01*
X2132204Y1664161D02*
G03X2133004Y1664961I0J800D01*
G01X2132204Y1664161D02*
X2127626D01*
X2130909Y1654339D02*
X2132250D01*
X2133050Y1653539D02*
G03X2132250Y1654339I-800J-0D01*
G01X2133050Y1653539D02*
Y1651461D01*
X2132250Y1650661D02*
G03X2133050Y1651461I0J800D01*
G01X2132250Y1650661D02*
X2130909D01*
X2131075D02*
X2126560D01*
X2125996Y1651461D02*
G03X2126560Y1650661I682J-118D01*
G01X2125996Y1651461D02*
Y1653539D01*
X2126796Y1654339D02*
G03X2125996Y1653539I0J-800D01*
G01X2126796Y1654339D02*
X2131374D01*
X2123591Y1705911D02*
X2122250D01*
X2121450Y1706711D02*
G03X2122250Y1705911I800J0D01*
G01X2121450Y1706711D02*
Y1708789D01*
X2122250Y1709589D02*
G03X2121450Y1708789I0J-800D01*
G01X2122250Y1709589D02*
X2123591D01*
X2123425D02*
X2127940D01*
X2128504Y1708789D02*
G03X2127940Y1709589I-682J118D01*
G01X2128504Y1708789D02*
Y1706711D01*
X2127704Y1705911D02*
G03X2128504Y1706711I0J800D01*
G01X2127704Y1705911D02*
X2123126D01*
X2130909Y1660089D02*
X2132250D01*
X2133050Y1659289D02*
G03X2132250Y1660089I-800J-0D01*
G01X2133050Y1659289D02*
Y1657211D01*
X2132250Y1656411D02*
G03X2133050Y1657211I0J800D01*
G01X2132250Y1656411D02*
X2130909D01*
X2131075D02*
X2126560D01*
X2125996Y1657211D02*
G03X2126560Y1656411I682J-118D01*
G01X2125996Y1657211D02*
Y1659289D01*
X2126796Y1660089D02*
G03X2125996Y1659289I0J-800D01*
G01X2126796Y1660089D02*
X2131374D01*
X2183659Y1647339D02*
X2185000D01*
X2185800Y1646539D02*
G03X2185000Y1647339I-800J-0D01*
G01X2185800Y1646539D02*
Y1644461D01*
X2185000Y1643661D02*
G03X2185800Y1644461I0J800D01*
G01X2185000Y1643661D02*
X2183659D01*
X2183825D02*
X2179310D01*
X2178746Y1644461D02*
G03X2179310Y1643661I682J-118D01*
G01X2178746Y1644461D02*
Y1646539D01*
X2179546Y1647339D02*
G03X2178746Y1646539I0J-800D01*
G01X2179546Y1647339D02*
X2184124D01*
X2185000Y1669000D02*
X2187343D01*
X2188143Y1668200D02*
G03X2187343Y1669000I-800J0D01*
G01X2188143Y1668200D02*
Y1664800D01*
X2187343Y1664000D02*
G03X2188143Y1664800I0J800D01*
G01X2187343Y1664000D02*
X2185000D01*
X2185152D02*
X2179144D01*
X2178344Y1664800D02*
G03X2179144Y1664000I800J0D01*
G01X2178344Y1664800D02*
Y1668200D01*
X2179144Y1669000D02*
G03X2178344Y1668200I0J-800D01*
G01X2179144Y1669000D02*
X2185041D01*
X2185250Y1663250D02*
X2187593D01*
X2188393Y1662450D02*
G03X2187593Y1663250I-800J0D01*
G01X2188393Y1662450D02*
Y1659050D01*
X2187593Y1658250D02*
G03X2188393Y1659050I0J800D01*
G01X2187593Y1658250D02*
X2185250D01*
X2185402D02*
X2179394D01*
X2178594Y1659050D02*
G03X2179394Y1658250I800J0D01*
G01X2178594Y1659050D02*
Y1662450D01*
X2179394Y1663250D02*
G03X2178594Y1662450I0J-800D01*
G01X2179394Y1663250D02*
X2185291D01*
X1882941Y1533692D02*
X1881600D01*
X1880800Y1534492D02*
G03X1881600Y1533692I800J0D01*
G01X1880800Y1534492D02*
Y1536570D01*
X1881600Y1537370D02*
G03X1880800Y1536570I0J-800D01*
G01X1881600Y1537370D02*
X1882941D01*
X1882776D02*
X1887290D01*
X1887854Y1536570D02*
G03X1887290Y1537370I-682J118D01*
G01X1887854Y1536570D02*
Y1534492D01*
X1887054Y1533692D02*
G03X1887854Y1534492I0J800D01*
G01X1887054Y1533692D02*
X1882476D01*
X1882941Y1537433D02*
X1881600D01*
X1880800Y1538233D02*
G03X1881600Y1537433I800J-0D01*
G01X1880800Y1538233D02*
Y1540311D01*
X1881600Y1541111D02*
G03X1880800Y1540311I0J-800D01*
G01X1881600Y1541111D02*
X1882941D01*
X1882776Y1541110D02*
X1887290Y1541111D01*
X1887854Y1540311D02*
G03X1887290Y1541111I-682J117D01*
G01X1887854Y1540311D02*
Y1538233D01*
X1887054Y1537433D02*
G03X1887854Y1538233I0J800D01*
G01X1887054Y1537433D02*
X1882476D01*
X1882941Y1545110D02*
X1881600D01*
X1880800Y1545910D02*
G03X1881600Y1545110I800J-0D01*
G01X1880800Y1545910D02*
Y1547988D01*
X1881600Y1548788D02*
G03X1880800Y1547988I0J-800D01*
G01X1881600Y1548788D02*
X1882941D01*
X1882776Y1548787D02*
X1887290Y1548788D01*
X1887854Y1547988D02*
G03X1887290Y1548788I-682J118D01*
G01X1887854Y1547988D02*
Y1545910D01*
X1887054Y1545110D02*
G03X1887854Y1545910I0J800D01*
G01X1887054Y1545110D02*
X1882476D01*
X1882941Y1541173D02*
X1881600D01*
X1880800Y1541973D02*
G03X1881600Y1541173I800J-0D01*
G01X1880800Y1541973D02*
Y1544051D01*
X1881600Y1544851D02*
G03X1880800Y1544051I0J-800D01*
G01X1881600Y1544851D02*
X1882941D01*
X1882776Y1544850D02*
X1887290Y1544851D01*
X1887854Y1544051D02*
G03X1887290Y1544851I-682J118D01*
G01X1887854Y1544051D02*
Y1541973D01*
X1887054Y1541173D02*
G03X1887854Y1541973I0J800D01*
G01X1887054Y1541173D02*
X1882476D01*
X1884722Y1553976D02*
X1887066D01*
X1887866Y1553176D02*
G03X1887066Y1553976I-800J0D01*
G01X1887866Y1553176D02*
Y1549776D01*
X1887066Y1548976D02*
G03X1887866Y1549776I-0J800D01*
G01X1887066Y1548976D02*
X1884722D01*
X1884874Y1548977D02*
X1878867D01*
X1878067Y1549777D02*
G03X1878867Y1548977I800J-0D01*
G01X1878067Y1549777D02*
Y1553176D01*
X1878867Y1553976D02*
G03X1878067Y1553176I-0J-800D01*
G01X1878867Y1553976D02*
X1884764D01*
X1884722Y1559291D02*
X1887066D01*
X1887866Y1558491D02*
G03X1887066Y1559291I-800J0D01*
G01X1887866Y1558491D02*
Y1555091D01*
X1887066Y1554291D02*
G03X1887866Y1555091I-0J800D01*
G01X1887066Y1554291D02*
X1884722D01*
X1884874D02*
X1878867D01*
X1878067Y1555091D02*
G03X1878867Y1554291I800J0D01*
G01X1878067Y1555091D02*
Y1558491D01*
X1878867Y1559291D02*
G03X1878067Y1558491I-0J-800D01*
G01X1878867Y1559291D02*
X1884764D01*
X2083338Y1590496D02*
X2084679D01*
X2085479Y1589696D02*
G03X2084679Y1590496I-800J0D01*
G01X2085479Y1589696D02*
Y1587618D01*
X2084679Y1586818D02*
G03X2085479Y1587618I0J800D01*
G01X2084679Y1586818D02*
X2083338D01*
X2083504Y1586819D02*
X2078989D01*
X2078425Y1587619D02*
G03X2078990Y1586818I682J-118D01*
G01X2078425Y1587619D02*
Y1589696D01*
X2079225Y1590496D02*
G03X2078425Y1589696I0J-800D01*
G01X2079225Y1590496D02*
X2083803D01*
X1856161Y1563909D02*
Y1565250D01*
X1856961Y1566050D02*
G03X1856161Y1565250I0J-800D01*
G01X1856961Y1566050D02*
X1859039D01*
X1859839Y1565250D02*
G03X1859039Y1566050I-800J0D01*
G01X1859839Y1565250D02*
Y1563909D01*
Y1564075D02*
Y1559560D01*
X1859039Y1558996D02*
G03X1859839Y1559560I118J682D01*
G01X1859039Y1558996D02*
X1856961D01*
X1856161Y1559796D02*
G03X1856961Y1558996I800J0D01*
G01X1856161Y1559796D02*
Y1564374D01*
X1865028Y1559372D02*
Y1557029D01*
X1864228Y1556229D02*
G03X1865028Y1557029I-0J800D01*
G01X1864228Y1556229D02*
X1860828D01*
X1860028Y1557029D02*
G03X1860828Y1556229I800J-0D01*
G01X1860028Y1557029D02*
Y1559372D01*
Y1559220D02*
Y1565228D01*
X1860828Y1566028D02*
G03X1860028Y1565228I-0J-800D01*
G01X1860828Y1566028D02*
X1864227D01*
X1865027Y1565228D02*
G03X1864227Y1566028I-800J-0D01*
G01X1865027Y1565228D02*
Y1559331D01*
X1852224Y1563909D02*
Y1565250D01*
X1853024Y1566050D02*
G03X1852224Y1565250I-0J-800D01*
G01X1853024Y1566050D02*
X1855102D01*
X1855902Y1565250D02*
G03X1855102Y1566050I-800J0D01*
G01X1855902Y1565250D02*
Y1563909D01*
Y1564075D02*
Y1559560D01*
X1855102Y1558996D02*
G03X1855902Y1559560I118J682D01*
G01X1855102Y1558996D02*
X1853024D01*
X1852224Y1559796D02*
G03X1853024Y1558996I800J0D01*
G01X1852224Y1559796D02*
Y1564374D01*
X1851642Y1559372D02*
Y1557029D01*
X1850842Y1556229D02*
G03X1851642Y1557029I-0J800D01*
G01X1850842Y1556229D02*
X1847442D01*
X1846642Y1557029D02*
G03X1847442Y1556229I800J-0D01*
G01X1846642Y1557029D02*
Y1559372D01*
Y1559220D02*
Y1565228D01*
X1847442Y1566028D02*
G03X1846642Y1565228I-0J-800D01*
G01X1847442Y1566028D02*
X1850842D01*
X1851642Y1565228D02*
G03X1850842Y1566028I-800J-0D01*
G01X1851642Y1565228D02*
Y1559331D01*
X1836628Y1534224D02*
X1834285D01*
X1833485Y1535024D02*
G03X1834285Y1534224I800J0D01*
G01X1833485Y1535024D02*
Y1538424D01*
X1834285Y1539224D02*
G03X1833485Y1538424I-0J-800D01*
G01X1834285Y1539224D02*
X1836628D01*
X1836476D02*
X1842483D01*
X1843283Y1538424D02*
G03X1842483Y1539224I-800J0D01*
G01X1843283Y1538424D02*
Y1535025D01*
X1842483Y1534225D02*
G03X1843283Y1535025I0J800D01*
G01X1842483Y1534225D02*
X1836587D01*
X1876250Y1470045D02*
G03X1875450Y1470845I-800J0D01*
G01X1870050*
G03X1869250Y1470045I0J-800*
G01Y1457955*
G03X1870050Y1457155I800J0*
G01X1875450*
G03X1876250Y1457955I-0J800*
G01Y1470045*
X1868589Y1458091D02*
Y1456750D01*
X1867789Y1455950D02*
G03X1868589Y1456750I-0J800D01*
G01X1867789Y1455950D02*
X1865711D01*
X1864911Y1456750D02*
G03X1865711Y1455950I800J0D01*
G01X1864911Y1456750D02*
Y1458091D01*
Y1457925D02*
Y1462440D01*
X1865711Y1463004D02*
G03X1864911Y1462440I-118J-682D01*
G01X1865711Y1463004D02*
X1867789D01*
X1868589Y1462204D02*
G03X1867789Y1463004I-800J0D01*
G01X1868589Y1462204D02*
Y1457626D01*
X1855661Y1460909D02*
Y1462250D01*
X1856461Y1463050D02*
G03X1855661Y1462250I0J-800D01*
G01X1856461Y1463050D02*
X1858539D01*
X1859339Y1462250D02*
G03X1858539Y1463050I-800J0D01*
G01X1859339Y1462250D02*
Y1460909D01*
Y1461075D02*
Y1456560D01*
X1858539Y1455996D02*
G03X1859339Y1456560I118J682D01*
G01X1858539Y1455996D02*
X1856461D01*
X1855661Y1456796D02*
G03X1856461Y1455996I800J0D01*
G01X1855661Y1456796D02*
Y1461374D01*
X1843338Y1442452D02*
Y1443793D01*
X1844138Y1444593D02*
G03X1843338Y1443793I0J-800D01*
G01X1844138Y1444593D02*
X1846216D01*
X1847016Y1443793D02*
G03X1846216Y1444593I-800J0D01*
G01X1847016Y1443793D02*
Y1442452D01*
Y1442618D02*
Y1438103D01*
X1846216Y1437539D02*
G03X1847016Y1438104I118J683D01*
G01X1846216Y1437539D02*
X1844138D01*
X1843338Y1438339D02*
G03X1844138Y1437539I800J0D01*
G01X1843338Y1438339D02*
Y1442917D01*
X1815911Y1442409D02*
Y1443750D01*
X1816711Y1444550D02*
G03X1815911Y1443750I0J-800D01*
G01X1816711Y1444550D02*
X1818789D01*
X1819589Y1443750D02*
G03X1818789Y1444550I-800J0D01*
G01X1819589Y1443750D02*
Y1442409D01*
Y1442575D02*
Y1438060D01*
X1818789Y1437496D02*
G03X1819589Y1438060I118J682D01*
G01X1818789Y1437496D02*
X1816711D01*
X1815911Y1438296D02*
G03X1816711Y1437496I800J0D01*
G01X1815911Y1438296D02*
Y1442874D01*
X2088839Y1599785D02*
Y1597442D01*
X2088039Y1596642D02*
G03X2088839Y1597442I-0J800D01*
G01X2088039Y1596642D02*
X2084639D01*
X2083839Y1597442D02*
G03X2084639Y1596642I800J-0D01*
G01X2083839Y1597442D02*
Y1599785D01*
Y1599634D02*
Y1605641D01*
X2084639Y1606441D02*
G03X2083839Y1605641I-0J-800D01*
G01X2084639Y1606441D02*
X2088038D01*
X2088838Y1605641D02*
G03X2088038Y1606441I-800J-0D01*
G01X2088838Y1605641D02*
Y1599744D01*
X1826341Y1441411D02*
X1825000D01*
X1824200Y1442211D02*
G03X1825000Y1441411I800J0D01*
G01X1824200Y1442211D02*
Y1444289D01*
X1825000Y1445089D02*
G03X1824200Y1444289I0J-800D01*
G01X1825000Y1445089D02*
X1826341D01*
X1826175D02*
X1830690D01*
X1831254Y1444289D02*
G03X1830690Y1445089I-682J118D01*
G01X1831254Y1444289D02*
Y1442211D01*
X1830454Y1441411D02*
G03X1831254Y1442211I0J800D01*
G01X1830454Y1441411D02*
X1825876D01*
X1866159Y1455339D02*
X1867500D01*
X1868300Y1454539D02*
G03X1867500Y1455339I-800J-0D01*
G01X1868300Y1454539D02*
Y1452461D01*
X1867500Y1451661D02*
G03X1868300Y1452461I0J800D01*
G01X1867500Y1451661D02*
X1866159D01*
X1866325D02*
X1861810D01*
X1861246Y1452461D02*
G03X1861810Y1451661I682J-118D01*
G01X1861246Y1452461D02*
Y1454539D01*
X1862046Y1455339D02*
G03X1861246Y1454539I0J-800D01*
G01X1862046Y1455339D02*
X1866624D01*
X1851354Y1468255D02*
Y1469596D01*
X1852154Y1470396D02*
G03X1851354Y1469596I-0J-800D01*
G01X1852154Y1470396D02*
X1854232D01*
X1855032Y1469596D02*
G03X1854232Y1470396I-800J0D01*
G01X1855032Y1469596D02*
Y1468255D01*
X1855031Y1468421D02*
X1855032Y1463907D01*
X1854232Y1463342D02*
G03X1855032Y1463907I118J683D01*
G01X1854232Y1463342D02*
X1852154D01*
X1851354Y1464142D02*
G03X1852154Y1463342I800J0D01*
G01X1851354Y1464142D02*
Y1468720D01*
X1866159Y1449089D02*
X1867500D01*
X1868300Y1448289D02*
G03X1867500Y1449089I-800J-0D01*
G01X1868300Y1448289D02*
Y1446211D01*
X1867500Y1445411D02*
G03X1868300Y1446211I0J800D01*
G01X1867500Y1445411D02*
X1866159D01*
X1866325D02*
X1861810D01*
X1861246Y1446211D02*
G03X1861810Y1445411I682J-118D01*
G01X1861246Y1446211D02*
Y1448289D01*
X1862046Y1449089D02*
G03X1861246Y1448289I0J-800D01*
G01X1862046Y1449089D02*
X1866624D01*
X2004661Y1638409D02*
Y1639750D01*
X2005461Y1640550D02*
G03X2004661Y1639750I0J-800D01*
G01X2005461Y1640550D02*
X2007539D01*
X2008339Y1639750D02*
G03X2007539Y1640550I-800J0D01*
G01X2008339Y1639750D02*
Y1638409D01*
Y1638575D02*
Y1634060D01*
X2007539Y1633496D02*
G03X2008339Y1634060I118J682D01*
G01X2007539Y1633496D02*
X2005461D01*
X2004661Y1634296D02*
G03X2005461Y1633496I800J0D01*
G01X2004661Y1634296D02*
Y1638874D01*
X2022410Y1635697D02*
Y1634356D01*
X2021610Y1633556D02*
G03X2022410Y1634356I-0J800D01*
G01X2021610Y1633556D02*
X2019532D01*
X2018732Y1634356D02*
G03X2019532Y1633556I800J0D01*
G01X2018732Y1634356D02*
Y1635697D01*
Y1635531D02*
Y1640046D01*
X2019532Y1640610D02*
G03X2018732Y1640046I-118J-682D01*
G01X2019532Y1640610D02*
X2021610D01*
X2022410Y1639810D02*
G03X2021610Y1640610I-800J0D01*
G01X2022410Y1639810D02*
Y1635232D01*
X2046000Y1634250D02*
Y1631907D01*
X2045200Y1631107D02*
G03X2046000Y1631907I0J800D01*
G01X2045200Y1631107D02*
X2041800D01*
X2041000Y1631907D02*
G03X2041800Y1631107I800J-0D01*
G01X2041000Y1631907D02*
Y1634250D01*
Y1634098D02*
Y1640106D01*
X2041800Y1640906D02*
G03X2041000Y1640106I0J-800D01*
G01X2041800Y1640906D02*
X2045200D01*
X2046000Y1640106D02*
G03X2045200Y1640906I-800J-0D01*
G01X2046000Y1640106D02*
Y1634209D01*
X2029000Y1634250D02*
Y1631907D01*
X2028200Y1631107D02*
G03X2029000Y1631907I0J800D01*
G01X2028200Y1631107D02*
X2024800D01*
X2024000Y1631907D02*
G03X2024800Y1631107I800J-0D01*
G01X2024000Y1631907D02*
Y1634250D01*
Y1634098D02*
Y1640106D01*
X2024800Y1640906D02*
G03X2024000Y1640106I0J-800D01*
G01X2024800Y1640906D02*
X2028200D01*
X2029000Y1640106D02*
G03X2028200Y1640906I-800J-0D01*
G01X2029000Y1640106D02*
Y1634209D01*
X2013839Y1628091D02*
Y1626750D01*
X2013039Y1625950D02*
G03X2013839Y1626750I-0J800D01*
G01X2013039Y1625950D02*
X2010961D01*
X2010161Y1626750D02*
G03X2010961Y1625950I800J0D01*
G01X2010161Y1626750D02*
Y1628091D01*
Y1627925D02*
Y1632440D01*
X2010961Y1633004D02*
G03X2010161Y1632440I-118J-682D01*
G01X2010961Y1633004D02*
X2013039D01*
X2013839Y1632204D02*
G03X2013039Y1633004I-800J0D01*
G01X2013839Y1632204D02*
Y1627626D01*
X2036839Y1635591D02*
Y1634250D01*
X2036039Y1633450D02*
G03X2036839Y1634250I-0J800D01*
G01X2036039Y1633450D02*
X2033961D01*
X2033161Y1634250D02*
G03X2033961Y1633450I800J0D01*
G01X2033161Y1634250D02*
Y1635591D01*
Y1635425D02*
Y1639940D01*
X2033961Y1640504D02*
G03X2033161Y1639940I-118J-682D01*
G01X2033961Y1640504D02*
X2036039D01*
X2036839Y1639704D02*
G03X2036039Y1640504I-800J0D01*
G01X2036839Y1639704D02*
Y1635126D01*
X2072922Y1607570D02*
X2071581D01*
X2070781Y1608370D02*
G03X2071581Y1607570I800J0D01*
G01X2070781Y1608370D02*
Y1610448D01*
X2071581Y1611248D02*
G03X2070781Y1610448I-0J-800D01*
G01X2071581Y1611248D02*
X2072922D01*
X2072756D02*
X2077271D01*
X2077835Y1610448D02*
G03X2077270Y1611248I-683J118D01*
G01X2077835Y1610448D02*
Y1608370D01*
X2077035Y1607570D02*
G03X2077835Y1608370I-0J800D01*
G01X2077035Y1607570D02*
X2072457D01*
X2003838Y1590496D02*
X2005179D01*
X2005979Y1589696D02*
G03X2005179Y1590496I-800J0D01*
G01X2005979Y1589696D02*
Y1587618D01*
X2005179Y1586818D02*
G03X2005979Y1587618I0J800D01*
G01X2005179Y1586818D02*
X2003838D01*
X2004004Y1586819D02*
X1999489D01*
X1998925Y1587619D02*
G03X1999490Y1586818I682J-118D01*
G01X1998925Y1587619D02*
Y1589696D01*
X1999725Y1590496D02*
G03X1998925Y1589696I0J-800D01*
G01X1999725Y1590496D02*
X2004303D01*
X2053838Y1589996D02*
X2055179D01*
X2055979Y1589196D02*
G03X2055179Y1589996I-800J0D01*
G01X2055979Y1589196D02*
Y1587118D01*
X2055179Y1586318D02*
G03X2055979Y1587118I0J800D01*
G01X2055179Y1586318D02*
X2053838D01*
X2054004Y1586319D02*
X2049489D01*
X2048925Y1587119D02*
G03X2049490Y1586318I682J-118D01*
G01X2048925Y1587119D02*
Y1589196D01*
X2049725Y1589996D02*
G03X2048925Y1589196I0J-800D01*
G01X2049725Y1589996D02*
X2054303D01*
X2059909Y1596339D02*
X2061250D01*
X2062050Y1595539D02*
G03X2061250Y1596339I-800J-0D01*
G01X2062050Y1595539D02*
Y1593461D01*
X2061250Y1592661D02*
G03X2062050Y1593461I0J800D01*
G01X2061250Y1592661D02*
X2059909D01*
X2060075D02*
X2055560D01*
X2054996Y1593461D02*
G03X2055560Y1592661I682J-118D01*
G01X2054996Y1593461D02*
Y1595539D01*
X2055796Y1596339D02*
G03X2054996Y1595539I0J-800D01*
G01X2055796Y1596339D02*
X2060374D01*
X2009114Y1600573D02*
Y1598229D01*
X2008314Y1597429D02*
G03X2009114Y1598229I0J800D01*
G01X2008314Y1597429D02*
X2004914D01*
X2004114Y1598229D02*
G03X2004914Y1597429I800J0D01*
G01X2004114Y1598229D02*
Y1600573D01*
Y1600421D02*
Y1606428D01*
X2004914Y1607228D02*
G03X2004114Y1606428I0J-800D01*
G01X2004914Y1607228D02*
X2008314D01*
X2009114Y1606428D02*
G03X2008314Y1607228I-800J0D01*
G01X2009114Y1606428D02*
Y1600531D01*
X1994575Y1608358D02*
X1993234D01*
X1992434Y1609158D02*
G03X1993234Y1608358I800J-0D01*
G01X1992434Y1609158D02*
Y1611236D01*
X1993234Y1612036D02*
G03X1992434Y1611236I0J-800D01*
G01X1993234Y1612036D02*
X1994575D01*
X1994409Y1612035D02*
X1998924Y1612036D01*
X1999488Y1611236D02*
G03X1998924Y1612036I-682J118D01*
G01X1999488Y1611236D02*
Y1609158D01*
X1998688Y1608358D02*
G03X1999488Y1609158I0J800D01*
G01X1998688Y1608358D02*
X1994110D01*
X2059311Y1600376D02*
Y1598033D01*
X2058511Y1597233D02*
G03X2059311Y1598033I0J800D01*
G01X2058511Y1597233D02*
X2055111D01*
X2054311Y1598033D02*
G03X2055111Y1597233I800J-0D01*
G01X2054311Y1598033D02*
Y1600376D01*
Y1600224D02*
Y1606231D01*
X2055111Y1607031D02*
G03X2054311Y1606231I0J-800D01*
G01X2055111Y1607031D02*
X2058511D01*
X2059311Y1606231D02*
G03X2058511Y1607031I-800J0D01*
G01X2059311Y1606231D02*
Y1600335D01*
X2044575Y1607570D02*
X2043234D01*
X2042434Y1608370D02*
G03X2043234Y1607570I800J0D01*
G01X2042434Y1608370D02*
Y1610448D01*
X2043234Y1611248D02*
G03X2042434Y1610448I0J-800D01*
G01X2043234Y1611248D02*
X2044575D01*
X2044409D02*
X2048924D01*
X2049488Y1610448D02*
G03X2048924Y1611248I-682J118D01*
G01X2049488Y1610448D02*
Y1608370D01*
X2048688Y1607570D02*
G03X2049488Y1608370I0J800D01*
G01X2048688Y1607570D02*
X2044110D01*
X2030338Y1590496D02*
X2031679D01*
X2032479Y1589696D02*
G03X2031679Y1590496I-800J0D01*
G01X2032479Y1589696D02*
Y1587618D01*
X2031679Y1586818D02*
G03X2032479Y1587618I0J800D01*
G01X2031679Y1586818D02*
X2030338D01*
X2030504Y1586819D02*
X2025989D01*
X2025425Y1587619D02*
G03X2025990Y1586818I682J-118D01*
G01X2025425Y1587619D02*
Y1589696D01*
X2026225Y1590496D02*
G03X2025425Y1589696I0J-800D01*
G01X2026225Y1590496D02*
X2030803D01*
X2035689Y1600573D02*
Y1598229D01*
X2034889Y1597429D02*
G03X2035689Y1598229I-0J800D01*
G01X2034889Y1597429D02*
X2031489D01*
X2030689Y1598229D02*
G03X2031489Y1597429I800J0D01*
G01X2030689Y1598229D02*
Y1600573D01*
Y1600421D02*
Y1606428D01*
X2031489Y1607228D02*
G03X2030689Y1606428I0J-800D01*
G01X2031489Y1607228D02*
X2034889D01*
X2035689Y1606428D02*
G03X2034889Y1607228I-800J0D01*
G01X2035689Y1606428D02*
Y1600531D01*
X2020166Y1607374D02*
X2018825D01*
X2018025Y1608174D02*
G03X2018825Y1607374I800J-0D01*
G01X2018025Y1608174D02*
Y1610252D01*
X2018825Y1611052D02*
G03X2018025Y1610252I-0J-800D01*
G01X2018825Y1611052D02*
X2020166D01*
X2020000Y1611051D02*
X2024515Y1611052D01*
X2025079Y1610252D02*
G03X2024514Y1611052I-682J117D01*
G01X2025079Y1610252D02*
Y1608174D01*
X2024279Y1607374D02*
G03X2025079Y1608174I-0J800D01*
G01X2024279Y1607374D02*
X2019701D01*
X2095455Y1709500D02*
G03X2094655Y1708700I-0J-800D01*
G01Y1703300*
G03X2095455Y1702500I800J0*
G01X2107545*
G03X2108345Y1703300I-0J800*
G01Y1708700*
G03X2107545Y1709500I-800J-0*
G01X2095455*
X1919589Y1599341D02*
Y1598000D01*
X1918789Y1597200D02*
G03X1919589Y1598000I-0J800D01*
G01X1918789Y1597200D02*
X1916711D01*
X1915911Y1598000D02*
G03X1916711Y1597200I800J0D01*
G01X1915911Y1598000D02*
Y1599341D01*
Y1599175D02*
Y1603690D01*
X1916711Y1604254D02*
G03X1915911Y1603690I-118J-682D01*
G01X1916711Y1604254D02*
X1918789D01*
X1919589Y1603454D02*
G03X1918789Y1604254I-800J0D01*
G01X1919589Y1603454D02*
Y1598876D01*
X1914839Y1599341D02*
Y1598000D01*
X1914039Y1597200D02*
G03X1914839Y1598000I-0J800D01*
G01X1914039Y1597200D02*
X1911961D01*
X1911161Y1598000D02*
G03X1911961Y1597200I800J0D01*
G01X1911161Y1598000D02*
Y1599341D01*
Y1599175D02*
Y1603690D01*
X1911961Y1604254D02*
G03X1911161Y1603690I-118J-682D01*
G01X1911961Y1604254D02*
X1914039D01*
X1914839Y1603454D02*
G03X1914039Y1604254I-800J0D01*
G01X1914839Y1603454D02*
Y1598876D01*
X1911839Y1662591D02*
Y1661250D01*
X1911039Y1660450D02*
G03X1911839Y1661250I-0J800D01*
G01X1911039Y1660450D02*
X1908961D01*
X1908161Y1661250D02*
G03X1908961Y1660450I800J0D01*
G01X1908161Y1661250D02*
Y1662591D01*
Y1662425D02*
Y1666940D01*
X1908961Y1667504D02*
G03X1908161Y1666940I-118J-682D01*
G01X1908961Y1667504D02*
X1911039D01*
X1911839Y1666704D02*
G03X1911039Y1667504I-800J0D01*
G01X1911839Y1666704D02*
Y1662126D01*
X1912500Y1666250D02*
Y1668593D01*
X1913300Y1669393D02*
G03X1912500Y1668593I-0J-800D01*
G01X1913300Y1669393D02*
X1916700D01*
X1917500Y1668593D02*
G03X1916700Y1669393I-800J0D01*
G01X1917500Y1668593D02*
Y1666250D01*
Y1666402D02*
Y1660394D01*
X1916700Y1659594D02*
G03X1917500Y1660394I-0J800D01*
G01X1916700Y1659594D02*
X1913300D01*
X1912500Y1660394D02*
G03X1913300Y1659594I800J0D01*
G01X1912500Y1660394D02*
Y1666291D01*
X1966768Y1646089D02*
X1978993D01*
Y1655289*
X1966579*
X1966793D02*
X1959393D01*
Y1646089*
X1966793*
X1910661Y1590659D02*
Y1592000D01*
X1911461Y1592800D02*
G03X1910661Y1592000I0J-800D01*
G01X1911461Y1592800D02*
X1913539D01*
X1914339Y1592000D02*
G03X1913539Y1592800I-800J0D01*
G01X1914339Y1592000D02*
Y1590659D01*
Y1590825D02*
Y1586310D01*
X1913539Y1585746D02*
G03X1914339Y1586310I118J682D01*
G01X1913539Y1585746D02*
X1911461D01*
X1910661Y1586546D02*
G03X1911461Y1585746I800J0D01*
G01X1910661Y1586546D02*
Y1591124D01*
X1963091Y1666661D02*
X1961750D01*
X1960950Y1667461D02*
G03X1961750Y1666661I800J0D01*
G01X1960950Y1667461D02*
Y1669539D01*
X1961750Y1670339D02*
G03X1960950Y1669539I0J-800D01*
G01X1961750Y1670339D02*
X1963091D01*
X1962925D02*
X1967440D01*
X1968004Y1669539D02*
G03X1967440Y1670339I-682J118D01*
G01X1968004Y1669539D02*
Y1667461D01*
X1967204Y1666661D02*
G03X1968004Y1667461I0J800D01*
G01X1967204Y1666661D02*
X1962626D01*
X2002411Y1728909D02*
Y1730250D01*
X2003211Y1731050D02*
G03X2002411Y1730250I0J-800D01*
G01X2003211Y1731050D02*
X2005289D01*
X2006089Y1730250D02*
G03X2005289Y1731050I-800J0D01*
G01X2006089Y1730250D02*
Y1728909D01*
Y1729075D02*
Y1724560D01*
X2005289Y1723996D02*
G03X2006089Y1724560I118J682D01*
G01X2005289Y1723996D02*
X2003211D01*
X2002411Y1724796D02*
G03X2003211Y1723996I800J0D01*
G01X2002411Y1724796D02*
Y1729374D01*
X1857591Y1673161D02*
X1856250D01*
X1855450Y1673961D02*
G03X1856250Y1673161I800J0D01*
G01X1855450Y1673961D02*
Y1676039D01*
X1856250Y1676839D02*
G03X1855450Y1676039I0J-800D01*
G01X1856250Y1676839D02*
X1857591D01*
X1857425D02*
X1861940D01*
X1862504Y1676039D02*
G03X1861940Y1676839I-682J118D01*
G01X1862504Y1676039D02*
Y1673961D01*
X1861704Y1673161D02*
G03X1862504Y1673961I0J800D01*
G01X1861704Y1673161D02*
X1857126D01*
X2104409Y1701589D02*
X2105750D01*
X2106550Y1700789D02*
G03X2105750Y1701589I-800J-0D01*
G01X2106550Y1700789D02*
Y1698711D01*
X2105750Y1697911D02*
G03X2106550Y1698711I0J800D01*
G01X2105750Y1697911D02*
X2104409D01*
X2104575D02*
X2100060D01*
X2099496Y1698711D02*
G03X2100060Y1697911I682J-118D01*
G01X2099496Y1698711D02*
Y1700789D01*
X2100296Y1701589D02*
G03X2099496Y1700789I0J-800D01*
G01X2100296Y1701589D02*
X2104874D01*
X1825591Y1718161D02*
X1824250D01*
X1823450Y1718961D02*
G03X1824250Y1718161I800J0D01*
G01X1823450Y1718961D02*
Y1721039D01*
X1824250Y1721839D02*
G03X1823450Y1721039I0J-800D01*
G01X1824250Y1721839D02*
X1825591D01*
X1825425D02*
X1829940D01*
X1830504Y1721039D02*
G03X1829940Y1721839I-682J118D01*
G01X1830504Y1721039D02*
Y1718961D01*
X1829704Y1718161D02*
G03X1830504Y1718961I0J800D01*
G01X1829704Y1718161D02*
X1825126D01*
X1826947Y1711311D02*
Y1709970D01*
X1826147Y1709170D02*
G03X1826947Y1709970I0J800D01*
G01X1826147Y1709170D02*
X1824069D01*
X1823269Y1709970D02*
G03X1824069Y1709170I800J0D01*
G01X1823269Y1709970D02*
Y1711311D01*
X1823270Y1711146D02*
X1823269Y1715660D01*
X1824069Y1716224D02*
G03X1823269Y1715660I-118J-682D01*
G01X1824069Y1716224D02*
X1826147D01*
X1826947Y1715424D02*
G03X1826147Y1716224I-800J0D01*
G01X1826947Y1715424D02*
Y1710846D01*
X1851341Y1656911D02*
X1850000D01*
X1849200Y1657711D02*
G03X1850000Y1656911I800J0D01*
G01X1849200Y1657711D02*
Y1659789D01*
X1850000Y1660589D02*
G03X1849200Y1659789I0J-800D01*
G01X1850000Y1660589D02*
X1851341D01*
X1851175D02*
X1855690D01*
X1856254Y1659789D02*
G03X1855690Y1660589I-682J118D01*
G01X1856254Y1659789D02*
Y1657711D01*
X1855454Y1656911D02*
G03X1856254Y1657711I0J800D01*
G01X1855454Y1656911D02*
X1850876D01*
X1825449Y1703881D02*
X1824108D01*
X1823308Y1704681D02*
G03X1824108Y1703881I800J0D01*
G01X1823308Y1704681D02*
Y1706759D01*
X1824108Y1707559D02*
G03X1823308Y1706759I0J-800D01*
G01X1824108Y1707559D02*
X1825449D01*
X1825283D02*
X1829798D01*
X1830362Y1706759D02*
G03X1829798Y1707559I-682J118D01*
G01X1830362Y1706759D02*
Y1704681D01*
X1829562Y1703881D02*
G03X1830362Y1704681I0J800D01*
G01X1829562Y1703881D02*
X1824984D01*
X1833841Y1672161D02*
X1832500D01*
X1831700Y1672961D02*
G03X1832500Y1672161I800J0D01*
G01X1831700Y1672961D02*
Y1675039D01*
X1832500Y1675839D02*
G03X1831700Y1675039I0J-800D01*
G01X1832500Y1675839D02*
X1833841D01*
X1833675D02*
X1838190D01*
X1838754Y1675039D02*
G03X1838190Y1675839I-682J118D01*
G01X1838754Y1675039D02*
Y1672961D01*
X1837954Y1672161D02*
G03X1838754Y1672961I0J800D01*
G01X1837954Y1672161D02*
X1833376D01*
X1886350Y1607056D02*
X1887691D01*
X1888491Y1606256D02*
G03X1887691Y1607056I-800J-0D01*
G01X1888491Y1606256D02*
Y1604178D01*
X1887691Y1603378D02*
G03X1888491Y1604178I-0J800D01*
G01X1887691Y1603378D02*
X1886350D01*
X1886516D02*
X1882001D01*
X1881437Y1604178D02*
G03X1882001Y1603378I682J-118D01*
G01X1881437Y1604178D02*
Y1606256D01*
X1882237Y1607056D02*
G03X1881437Y1606256I-0J-800D01*
G01X1882237Y1607056D02*
X1886815D01*
X1886350Y1603315D02*
X1887691D01*
X1888491Y1602515D02*
G03X1887691Y1603315I-800J0D01*
G01X1888491Y1602515D02*
Y1600437D01*
X1887691Y1599637D02*
G03X1888491Y1600437I-0J800D01*
G01X1887691Y1599637D02*
X1886350D01*
X1886516Y1599638D02*
X1882001Y1599637D01*
X1881437Y1600437D02*
G03X1882001Y1599637I682J-117D01*
G01X1881437Y1600437D02*
Y1602515D01*
X1882237Y1603315D02*
G03X1881437Y1602515I-0J-800D01*
G01X1882237Y1603315D02*
X1886815D01*
X1886350Y1642685D02*
X1887691D01*
X1888491Y1641885D02*
G03X1887691Y1642685I-800J0D01*
G01X1888491Y1641885D02*
Y1639807D01*
X1887691Y1639007D02*
G03X1888491Y1639807I-0J800D01*
G01X1887691Y1639007D02*
X1886350D01*
X1886516Y1639008D02*
X1882001D01*
X1881437Y1639808D02*
G03X1882001Y1639007I682J-118D01*
G01X1881437Y1639808D02*
Y1641885D01*
X1882237Y1642685D02*
G03X1881437Y1641885I-0J-800D01*
G01X1882237Y1642685D02*
X1886815D01*
X1886350Y1634811D02*
X1887691D01*
X1888491Y1634011D02*
G03X1887691Y1634811I-800J0D01*
G01X1888491Y1634011D02*
Y1631933D01*
X1887691Y1631133D02*
G03X1888491Y1631933I-0J800D01*
G01X1887691Y1631133D02*
X1886350D01*
X1886516Y1631134D02*
X1882001D01*
X1881437Y1631934D02*
G03X1882001Y1631133I682J-118D01*
G01X1881437Y1631934D02*
Y1634011D01*
X1882237Y1634811D02*
G03X1881437Y1634011I-0J-800D01*
G01X1882237Y1634811D02*
X1886815D01*
X1886350Y1623000D02*
X1887691D01*
X1888491Y1622200D02*
G03X1887691Y1623000I-800J0D01*
G01X1888491Y1622200D02*
Y1620122D01*
X1887691Y1619322D02*
G03X1888491Y1620122I-0J800D01*
G01X1887691Y1619322D02*
X1886350D01*
X1886516Y1619323D02*
X1882001Y1619322D01*
X1881437Y1620122D02*
G03X1882001Y1619322I682J-117D01*
G01X1881437Y1620122D02*
Y1622200D01*
X1882237Y1623000D02*
G03X1881437Y1622200I-0J-800D01*
G01X1882237Y1623000D02*
X1886815D01*
X2116396Y1741098D02*
G03X2115596Y1740298I-0J-800D01*
G01Y1734898*
G03X2116396Y1734098I800J0*
G01X2128486*
G03X2129286Y1734898I-0J800*
G01Y1740298*
G03X2128486Y1741098I-800J0*
G01X2116396*
X1886350Y1618867D02*
X1887691D01*
X1888491Y1618067D02*
G03X1887691Y1618867I-800J-0D01*
G01X1888491Y1618067D02*
Y1615989D01*
X1887691Y1615189D02*
G03X1888491Y1615989I-0J800D01*
G01X1887691Y1615189D02*
X1886350D01*
X1886516D02*
X1882001D01*
X1881437Y1615989D02*
G03X1882001Y1615189I682J-118D01*
G01X1881437Y1615989D02*
Y1618067D01*
X1882237Y1618867D02*
G03X1881437Y1618067I-0J-800D01*
G01X1882237Y1618867D02*
X1886815D01*
X1881813Y1585984D02*
X1879470D01*
X1878670Y1586784D02*
G03X1879470Y1585984I800J0D01*
G01X1878670Y1586784D02*
Y1590184D01*
X1879470Y1590984D02*
G03X1878670Y1590184I-0J-800D01*
G01X1879470Y1590984D02*
X1881813D01*
X1881661D02*
X1887669D01*
X1888469Y1590184D02*
G03X1887669Y1590984I-800J0D01*
G01X1888469Y1590184D02*
Y1586784D01*
X1887669Y1585984D02*
G03X1888469Y1586784I-0J800D01*
G01X1887669Y1585984D02*
X1881772D01*
X1886153Y1595048D02*
X1887494D01*
X1888294Y1594248D02*
G03X1887494Y1595048I-800J-0D01*
G01X1888294Y1594248D02*
Y1592170D01*
X1887494Y1591370D02*
G03X1888294Y1592170I0J800D01*
G01X1887494Y1591370D02*
X1886153D01*
X1886319D02*
X1881804D01*
X1881240Y1592170D02*
G03X1881804Y1591370I682J-118D01*
G01X1881240Y1592170D02*
Y1594248D01*
X1882040Y1595048D02*
G03X1881240Y1594248I0J-800D01*
G01X1882040Y1595048D02*
X1886618D01*
X1856750Y1592750D02*
Y1595093D01*
X1857550Y1595893D02*
G03X1856750Y1595093I-0J-800D01*
G01X1857550Y1595893D02*
X1860950D01*
X1861750Y1595093D02*
G03X1860950Y1595893I-800J0D01*
G01X1861750Y1595093D02*
Y1592750D01*
Y1592902D02*
Y1586894D01*
X1860950Y1586094D02*
G03X1861750Y1586894I-0J800D01*
G01X1860950Y1586094D02*
X1857550D01*
X1856750Y1586894D02*
G03X1857550Y1586094I800J0D01*
G01X1856750Y1586894D02*
Y1592791D01*
X1881250Y1644455D02*
G03X1882050Y1643655I800J-0D01*
G01X1887450*
G03X1888250Y1644455I-0J800*
G01Y1656545*
G03X1887450Y1657345I-800J-0*
G01X1882050*
G03X1881250Y1656545I0J-800*
G01Y1644455*
X1893089Y1652341D02*
Y1651000D01*
X1892289Y1650200D02*
G03X1893089Y1651000I-0J800D01*
G01X1892289Y1650200D02*
X1890211D01*
X1889411Y1651000D02*
G03X1890211Y1650200I800J0D01*
G01X1889411Y1651000D02*
Y1652341D01*
Y1652175D02*
Y1656690D01*
X1890211Y1657254D02*
G03X1889411Y1656690I-118J-682D01*
G01X1890211Y1657254D02*
X1892289D01*
X1893089Y1656454D02*
G03X1892289Y1657254I-800J0D01*
G01X1893089Y1656454D02*
Y1651876D01*
X1841776Y1587591D02*
Y1586250D01*
X1840976Y1585450D02*
G03X1841776Y1586250I0J800D01*
G01X1840976Y1585450D02*
X1838898D01*
X1838098Y1586250D02*
G03X1838898Y1585450I800J0D01*
G01X1838098Y1586250D02*
Y1587591D01*
Y1587425D02*
Y1591940D01*
X1838898Y1592504D02*
G03X1838098Y1591940I-118J-682D01*
G01X1838898Y1592504D02*
X1840976D01*
X1841776Y1591704D02*
G03X1840976Y1592504I-800J0D01*
G01X1841776Y1591704D02*
Y1587126D01*
X2078020Y1735993D02*
Y1734652D01*
X2077220Y1733852D02*
G03X2078020Y1734652I0J800D01*
G01X2077220Y1733852D02*
X2075142D01*
X2074342Y1734652D02*
G03X2075142Y1733852I800J-0D01*
G01X2074342Y1734652D02*
Y1735993D01*
X2074343Y1735827D02*
X2074342Y1740342D01*
X2075142Y1740906D02*
G03X2074342Y1740341I-118J-683D01*
G01X2075142Y1740906D02*
X2077220D01*
X2078020Y1740106D02*
G03X2077220Y1740906I-800J-0D01*
G01X2078020Y1740106D02*
Y1735528D01*
X2098750Y1448750D02*
Y1446407D01*
X2097950Y1445607D02*
G03X2098750Y1446407I0J800D01*
G01X2097950Y1445607D02*
X2094550D01*
X2093750Y1446407D02*
G03X2094550Y1445607I800J-0D01*
G01X2093750Y1446407D02*
Y1448750D01*
Y1448598D02*
Y1454606D01*
X2094550Y1455406D02*
G03X2093750Y1454606I0J-800D01*
G01X2094550Y1455406D02*
X2097950D01*
X2098750Y1454606D02*
G03X2097950Y1455406I-800J-0D01*
G01X2098750Y1454606D02*
Y1448709D01*
X2098911Y1450409D02*
Y1451750D01*
X2099711Y1452550D02*
G03X2098911Y1451750I0J-800D01*
G01X2099711Y1452550D02*
X2101789D01*
X2102589Y1451750D02*
G03X2101789Y1452550I-800J0D01*
G01X2102589Y1451750D02*
Y1450409D01*
Y1450575D02*
Y1446060D01*
X2101789Y1445496D02*
G03X2102589Y1446060I118J682D01*
G01X2101789Y1445496D02*
X2099711D01*
X2098911Y1446296D02*
G03X2099711Y1445496I800J0D01*
G01X2098911Y1446296D02*
Y1450874D01*
X2183409Y1599839D02*
X2184750D01*
X2185550Y1599039D02*
G03X2184750Y1599839I-800J-0D01*
G01X2185550Y1599039D02*
Y1596961D01*
X2184750Y1596161D02*
G03X2185550Y1596961I0J800D01*
G01X2184750Y1596161D02*
X2183409D01*
X2183575D02*
X2179060D01*
X2178496Y1596961D02*
G03X2179060Y1596161I682J-118D01*
G01X2178496Y1596961D02*
Y1599039D01*
X2179296Y1599839D02*
G03X2178496Y1599039I0J-800D01*
G01X2179296Y1599839D02*
X2183874D01*
X2180997Y1568980D02*
X2179656D01*
X2178856Y1569780D02*
G03X2179656Y1568980I800J-0D01*
G01X2178856Y1569780D02*
Y1571858D01*
X2179656Y1572658D02*
G03X2178856Y1571858I-0J-800D01*
G01X2179656Y1572658D02*
X2180997D01*
X2180831Y1572657D02*
X2185345Y1572658D01*
X2185910Y1571858D02*
G03X2185345Y1572658I-683J118D01*
G01X2185910Y1571858D02*
Y1569780D01*
X2185110Y1568980D02*
G03X2185910Y1569780I-0J800D01*
G01X2185110Y1568980D02*
X2180532D01*
X2154557Y1541909D02*
Y1543250D01*
X2155357Y1544050D02*
G03X2154557Y1543250I-0J-800D01*
G01X2155357Y1544050D02*
X2157435D01*
X2158235Y1543250D02*
G03X2157435Y1544050I-800J0D01*
G01X2158235Y1543250D02*
Y1541909D01*
X2158234Y1542075D02*
X2158235Y1537560D01*
X2157435Y1536996D02*
G03X2158235Y1537560I117J682D01*
G01X2157435Y1536996D02*
X2155357D01*
X2154557Y1537796D02*
G03X2155357Y1536996I800J0D01*
G01X2154557Y1537796D02*
Y1542374D01*
X2150817Y1541909D02*
Y1543250D01*
X2151617Y1544050D02*
G03X2150817Y1543250I-0J-800D01*
G01X2151617Y1544050D02*
X2153695D01*
X2154495Y1543250D02*
G03X2153695Y1544050I-800J0D01*
G01X2154495Y1543250D02*
Y1541909D01*
X2154494Y1542075D02*
Y1537560D01*
X2153694Y1536996D02*
G03X2154494Y1537560I118J682D01*
G01X2153694Y1536996D02*
X2151617D01*
X2150817Y1537796D02*
G03X2151617Y1536996I800J0D01*
G01X2150817Y1537796D02*
Y1542374D01*
X2149589Y1604591D02*
Y1603250D01*
X2148789Y1602450D02*
G03X2149589Y1603250I-0J800D01*
G01X2148789Y1602450D02*
X2146711D01*
X2145911Y1603250D02*
G03X2146711Y1602450I800J0D01*
G01X2145911Y1603250D02*
Y1604591D01*
Y1604425D02*
Y1608940D01*
X2146711Y1609504D02*
G03X2145911Y1608940I-118J-682D01*
G01X2146711Y1609504D02*
X2148789D01*
X2149589Y1608704D02*
G03X2148789Y1609504I-800J0D01*
G01X2149589Y1608704D02*
Y1604126D01*
X2180997Y1572917D02*
X2179656D01*
X2178856Y1573717D02*
G03X2179656Y1572917I800J-0D01*
G01X2178856Y1573717D02*
Y1575795D01*
X2179656Y1576595D02*
G03X2178856Y1575795I-0J-800D01*
G01X2179656Y1576595D02*
X2180997D01*
X2180831Y1576594D02*
X2185345Y1576595D01*
X2185910Y1575795D02*
G03X2185345Y1576595I-683J118D01*
G01X2185910Y1575795D02*
Y1573717D01*
X2185110Y1572917D02*
G03X2185910Y1573717I-0J800D01*
G01X2185110Y1572917D02*
X2180532D01*
X2128139Y1541909D02*
Y1543250D01*
X2128939Y1544050D02*
G03X2128139Y1543250I0J-800D01*
G01X2128939Y1544050D02*
X2131017D01*
X2131817Y1543250D02*
G03X2131017Y1544050I-800J0D01*
G01X2131817Y1543250D02*
Y1541909D01*
Y1542075D02*
Y1537560D01*
X2131017Y1536996D02*
G03X2131817Y1537560I118J682D01*
G01X2131017Y1536996D02*
X2128939D01*
X2128139Y1537796D02*
G03X2128939Y1536996I800J0D01*
G01X2128139Y1537796D02*
Y1542374D01*
X2116133Y1593453D02*
X2117474D01*
X2118274Y1592653D02*
G03X2117474Y1593453I-800J0D01*
G01X2118274Y1592653D02*
Y1590575D01*
X2117474Y1589775D02*
G03X2118274Y1590575I0J800D01*
G01X2117474Y1589775D02*
X2116133D01*
X2116299Y1589776D02*
X2111784Y1589775D01*
X2111220Y1590575D02*
G03X2111785Y1589775I683J-118D01*
G01X2111220Y1590575D02*
Y1592653D01*
X2112020Y1593453D02*
G03X2111220Y1592653I0J-800D01*
G01X2112020Y1593453D02*
X2116598D01*
X2153339Y1604591D02*
Y1603250D01*
X2152539Y1602450D02*
G03X2153339Y1603250I-0J800D01*
G01X2152539Y1602450D02*
X2150461D01*
X2149661Y1603250D02*
G03X2150461Y1602450I800J0D01*
G01X2149661Y1603250D02*
Y1604591D01*
Y1604425D02*
Y1608940D01*
X2150461Y1609504D02*
G03X2149661Y1608940I-118J-682D01*
G01X2150461Y1609504D02*
X2152539D01*
X2153339Y1608704D02*
G03X2152539Y1609504I-800J0D01*
G01X2153339Y1608704D02*
Y1604126D01*
X2123795Y1553000D02*
G03X2124595Y1553800I0J800D01*
G01Y1559200*
G03X2123795Y1560000I-800J-0*
G01X2111705*
G03X2110905Y1559200I0J-800*
G01Y1553800*
G03X2111705Y1553000I800J0*
G01X2123795*
X1880768Y1711280D02*
Y1708524D01*
X1873839Y1707539D02*
Y1704232D01*
X1879232*
X1873839Y1712343D02*
Y1715650D01*
X1879232*
X1956073Y1644384D02*
X1940325D01*
Y1654226*
X1956073*
Y1644384*
X1945892Y1652341D02*
Y1645537D01*
X1949520Y1649165*
X1945886Y1652799*
Y1652337*
X1949801Y1653329D02*
Y1645423D01*
X1989226Y1727894D02*
X1997226D01*
X1991426Y1730294D02*
Y1725494D01*
Y1727894D02*
X1994826Y1725494D01*
Y1730294*
X1991426Y1727894*
X1984226Y1730694D02*
Y1724894D01*
X1984426Y1724694*
X2001626*
X2002226Y1725294*
Y1730894*
X2002026Y1731094*
X1984626*
X1984226Y1730694*
X1822996Y1470053D02*
X1810771D01*
Y1460853*
X1823185*
X1822971D02*
X1830371D01*
Y1470053*
X1822971*
X1843075D02*
X1830850D01*
Y1460853*
X1843264*
X1843050D02*
X1850450D01*
Y1470053*
X1843050*
X2135600Y1517600D02*
Y1525400D01*
X2132400*
Y1517600*
X2135600*
X2084400Y1740900D02*
Y1733100D01*
X2087600*
Y1740900*
X2084400*
X1953600Y1447400D02*
X1961400D01*
Y1450600*
X1953600*
Y1447400*
X1970150Y1450600D02*
X1962350D01*
Y1447400*
X1970150*
Y1450600*
X1970600Y1447400D02*
X1978400D01*
Y1450600*
X1970600*
Y1447400*
X1880600Y1462100D02*
Y1469900D01*
X1877400*
Y1462100*
X1880600*
X1884600D02*
Y1469900D01*
X1881400*
Y1462100*
X1884600*
X1892850D02*
Y1469900D01*
X1889650*
Y1462100*
X1892850*
X1901350D02*
Y1469900D01*
X1898150*
Y1462100*
X1901350*
X1905600D02*
Y1469900D01*
X1902400*
Y1462100*
X1905600*
X1913850D02*
Y1469900D01*
X1910650*
Y1462100*
X1913850*
X2135381Y1445565D02*
Y1453365D01*
X2132181*
Y1445565*
X2135381*
X1920600Y1462100D02*
Y1469900D01*
X1917400*
Y1462100*
X1920600*
X2180475Y1719710D02*
X2172675D01*
Y1716510*
X2180475*
Y1719710*
X2131381Y1445565D02*
Y1453365D01*
X2128181*
Y1445565*
X2131381*
X2125631Y1445815D02*
Y1453615D01*
X2122431*
Y1445815*
X2125631*
X2104400Y1740900D02*
Y1733100D01*
X2107600*
Y1740900*
X2104400*
X2093872Y1740908D02*
Y1733108D01*
X2097072*
Y1740908*
X2093872*
X2088900Y1740900D02*
Y1733100D01*
X2092100*
Y1740900*
X2088900*
X2099900D02*
Y1733100D01*
X2103100*
Y1740900*
X2099900*
X2079306Y1740908D02*
Y1733108D01*
X2082506*
Y1740908*
X2079306*
X2168441Y1732998D02*
X2180666D01*
Y1742198*
X2168252*
X2168466D02*
X2161066D01*
Y1732998*
X2168466*
X2134476Y1636500D02*
Y1630500D01*
X2122524*
Y1636500*
X2134476*
X2177024Y1670000D02*
Y1676000D01*
X2188976*
Y1670000*
X2177024*
X1871039Y1554161D02*
X1865039D01*
Y1566114*
X1871039*
Y1554161*
X1846236D02*
X1840236D01*
Y1566114*
X1846236*
Y1554161*
X2096000Y1640226D02*
X2102000D01*
Y1628274*
X2096000*
Y1640226*
X2083287Y1606376D02*
X2070887D01*
Y1591576*
X2083287*
Y1606376*
X2082487Y1600576D02*
X2071687D01*
Y1597376*
X2082487*
Y1600576*
X2003956Y1607361D02*
X1991556D01*
Y1592561*
X2003956*
Y1607361*
X2003156Y1601561D02*
X1992356D01*
Y1598361*
X2003156*
Y1601561*
X2053956Y1606967D02*
X2041556D01*
Y1592167*
X2053956*
Y1606967*
X2053156Y1601167D02*
X2042356D01*
Y1597967*
X2053156*
Y1601167*
X2030531Y1606967D02*
X2018131D01*
Y1592167*
X2030531*
Y1606967*
X2029731Y1601167D02*
X2018931D01*
Y1597967*
X2029731*
Y1601167*
X2058366Y1663583D02*
Y1669094D01*
X2057972Y1669488*
X1982579*
X1981201Y1668110*
Y1662598*
X2048362Y1646452D02*
Y1644952D01*
X2045862Y1647452*
X2048362Y1649952*
Y1648452*
X2052362*
Y1646452*
X2048362*
X1908760Y1637795D02*
Y1628150D01*
X1915098Y1638386D02*
X1914626D01*
X1915098Y1638189D02*
X1914626D01*
X1915098Y1637992D02*
X1914626D01*
X1913996Y1637795D02*
X1908760D01*
Y1628150D02*
X1910098D01*
Y1628110D02*
X1909508D01*
X1910098Y1627717D02*
X1909508D01*
X1977657Y1628150D02*
Y1637795D01*
X1972983*
X2112598Y1711220D02*
Y1728937D01*
X2112205Y1729331*
X2095276*
X2094488Y1728543*
Y1711220*
X2094882Y1710827*
X2112205*
X2112598Y1711220*
X1924114Y1669783D02*
X1930807D01*
X1924114Y1654823D02*
X1930807D01*
X1863069Y1585689D02*
X1875667D01*
X1876022Y1586043*
Y1598406*
X1875156Y1599272*
X1863069*
X1862518Y1598720*
Y1586240*
X1863069Y1585689*
X1875234D02*
X1875195Y1585728D01*
X1902726Y1591250D02*
Y1585250D01*
X1890774*
Y1591250*
X1902726*
X1881744Y1670051D02*
X1887744D01*
Y1658099*
X1881744*
Y1670051*
X1888437D02*
X1894437D01*
Y1658099*
X1888437*
Y1670051*
X2110913Y1545307D02*
Y1551307D01*
X2122866*
Y1545307*
X2110913*
X2185526Y1738000D02*
G03X2185526I-2276J0D01*
G01X1957276Y1444500D02*
G03X1957276I-2276J0D01*
G01X2050032Y1712008D02*
G03X2050032I-2276J0D01*
G01X2063776Y1610000D02*
G03X2063776I-2276J0D01*
G01X2008705Y1610157D02*
G03X2008705I-2276J0D01*
G01X2035276Y1610000D02*
G03X2035276I-2276J0D01*
G01X1915276Y1648250D02*
G03X1915276I-2276J0D01*
G01X1921026Y1648500D02*
G03X1921026I-2276J0D01*
G01X1970276Y1643750D02*
G03X1970276I-2276J0D01*
G01X1873526Y1675000D02*
G03X1873526I-2276J0D01*
G01X2125276Y1696750D02*
G03X2125276I-2276J0D01*
G01X1899276Y1660500D02*
G03X1899276I-2276J0D01*
G01X2091526Y1641750D02*
G03X2091526I-2276J0D01*
G01X2118260Y1696732D02*
G03X2118260I-2276J0D01*
G01X2088526Y1610000D02*
G03X2088526I-2276J0D01*
G01X1902276Y1434250D02*
G03X1902276I-2276J0D01*
G01X1915276Y1616500D02*
G03X1915276I-2276J0D01*
G01X2065026Y1447750D02*
G03X2065026I-2276J0D01*
G01X2027026Y1712000D02*
G03X2027026I-2276J0D01*
G01X1938152Y1466189D02*
X1940907D01*
X1941892Y1459260D02*
X1945199D01*
Y1464654*
X1937089Y1459260D02*
X1933781D01*
Y1464654*
X2153152Y1466689D02*
X2155907D01*
X2156892Y1459760D02*
X2160199D01*
Y1465154*
X2152089Y1459760D02*
X2148781D01*
Y1465154*
X2154598Y1522311D02*
X2151843D01*
X2150858Y1529240D02*
X2147551D01*
Y1523846*
X2155661Y1529240D02*
X2158969D01*
Y1523846*
X2087439Y1469348D02*
Y1466593D01*
X2080510Y1465608D02*
Y1462301D01*
X2085904*
X2080510Y1470411D02*
Y1473719D01*
X2085904*
X2118098Y1522311D02*
X2115343D01*
X2114358Y1529240D02*
X2111051D01*
Y1523846*
X2119161Y1529240D02*
X2122469D01*
Y1523846*
X1930098Y1589061D02*
X1927343D01*
X1926358Y1595990D02*
X1923051D01*
Y1590596*
X1931161Y1595990D02*
X1934469D01*
Y1590596*
X1942348Y1589061D02*
X1939593D01*
X1938608Y1595990D02*
X1935301D01*
Y1590596*
X1943411Y1595990D02*
X1946719D01*
Y1590596*
X1816598Y1449561D02*
X1813843D01*
X1812858Y1456490D02*
X1809551D01*
Y1451096*
X1817661Y1456490D02*
X1820969D01*
Y1451096*
X1847697Y1449350D02*
X1844941D01*
X1843957Y1456280D02*
X1840650D01*
Y1450886*
X1848760Y1456280D02*
X1852067D01*
Y1450886*
X1979071Y1704933D02*
X1976315D01*
X1975331Y1711862D02*
X1972024D01*
Y1706469*
X1980134Y1711862D02*
X1983441D01*
Y1706469*
X1998098Y1705811D02*
X1995343D01*
X1994358Y1712740D02*
X1991051D01*
Y1707346*
X1999161Y1712740D02*
X2002469D01*
Y1707346*
X2165902Y1466689D02*
X2168657D01*
X2169642Y1459760D02*
X2172949D01*
Y1465154*
X2164839Y1459760D02*
X2161531D01*
Y1465154*
X2123591Y1701450D02*
X2121496D01*
Y1705388*
X2126819*
X2126409D02*
X2128504D01*
Y1701450*
X2123256*
X1933944Y1609909D02*
Y1612004D01*
X1937882*
Y1606681*
Y1607091D02*
Y1604996D01*
X1933944*
Y1610244*
X1895996Y1599115D02*
X1898091D01*
Y1595177*
X1892768*
X1893178D02*
X1891083D01*
Y1599115*
X1896331*
X1895909Y1638469D02*
X1898004D01*
Y1634531*
X1892681*
X1893091D02*
X1890996D01*
Y1638469*
X1896244*
X1895909Y1630969D02*
X1898004D01*
Y1627031*
X1892681*
X1893091D02*
X1890996D01*
Y1630969*
X1896244*
X1895909Y1626219D02*
X1898004D01*
Y1622281*
X1892681*
X1893091D02*
X1890996D01*
Y1626219*
X1896244*
X1900659Y1654469D02*
X1902754D01*
Y1650531*
X1897431*
X1897841D02*
X1895746D01*
Y1654469*
X1900994*
X1900341Y1634531D02*
X1898246D01*
Y1638469*
X1903569*
X1903159D02*
X1905254D01*
Y1634531*
X1900006*
X1900341Y1627031D02*
X1898246D01*
Y1630969*
X1903569*
X1903159D02*
X1905254D01*
Y1627031*
X1900006*
X1895909Y1642719D02*
X1898004D01*
Y1638781*
X1892681*
X1893091D02*
X1890996D01*
Y1642719*
X1896244*
X2074213Y1735993D02*
Y1733898D01*
X2070275*
Y1739220*
Y1738811D02*
Y1740906D01*
X2074213*
Y1735657*
X2106719Y1447591D02*
Y1445496D01*
X2102781*
Y1450819*
Y1450409D02*
Y1452504D01*
X2106719*
Y1447256*
X1929469Y1464841D02*
Y1462746D01*
X1925531*
Y1468069*
Y1467659D02*
Y1469754D01*
X1929469*
Y1464506*
X2065945Y1735993D02*
Y1733898D01*
X2062007*
Y1739220*
Y1738811D02*
Y1740906D01*
X2065945*
Y1735657*
X2076313Y1450624D02*
Y1452719D01*
X2080250*
Y1447396*
Y1447806D02*
Y1445711D01*
X2076313*
Y1450959*
X2079011Y1637893D02*
Y1639988D01*
X2082949*
Y1634665*
Y1635075D02*
Y1632980D01*
X2079011*
Y1638228*
X2074878Y1637893D02*
Y1639988D01*
X2078815*
Y1634665*
Y1635075D02*
Y1632980D01*
X2074878*
Y1638228*
X2015031Y1450659D02*
Y1452754D01*
X2018969*
Y1447431*
Y1447841D02*
Y1445746D01*
X2015031*
Y1450994*
X2072469Y1447806D02*
Y1445711D01*
X2068531*
Y1451034*
Y1450624D02*
Y1452719D01*
X2072469*
Y1447471*
X2072969Y1462341D02*
Y1460246D01*
X2069031*
Y1465569*
Y1465159D02*
Y1467254D01*
X2072969*
Y1462006*
X1926969Y1450091D02*
Y1447996D01*
X1923031*
Y1453319*
Y1452909D02*
Y1455004D01*
X1926969*
Y1449756*
X1914370Y1450091D02*
Y1447996D01*
X1910433*
Y1453319*
Y1452909D02*
Y1455004D01*
X1914370*
Y1449756*
X1897441Y1450091D02*
Y1447996D01*
X1893504*
Y1453319*
Y1452909D02*
Y1455004D01*
X1897441*
Y1449756*
X1944969Y1607091D02*
Y1604996D01*
X1941031*
Y1610319*
Y1609909D02*
Y1612004D01*
X1944969*
Y1606756*
X1905906Y1450091D02*
Y1447996D01*
X1901968*
Y1453319*
Y1452909D02*
Y1455004D01*
X1905906*
Y1449756*
X1889174Y1450091D02*
Y1447996D01*
X1885236*
Y1453319*
Y1452909D02*
Y1455004D01*
X1889174*
Y1449756*
X1901772Y1450091D02*
Y1447996D01*
X1897834*
Y1453319*
Y1452909D02*
Y1455004D01*
X1901772*
Y1449756*
X1922835Y1450091D02*
Y1447996D01*
X1918897*
Y1453319*
Y1452909D02*
Y1455004D01*
X1922835*
Y1449756*
X1893307Y1450091D02*
Y1447996D01*
X1889370*
Y1453319*
Y1452909D02*
Y1455004D01*
X1893307*
Y1449756*
X1885040Y1450091D02*
Y1447996D01*
X1881102*
Y1453319*
Y1452909D02*
Y1455004D01*
X1885040*
Y1449756*
X1918701Y1450091D02*
Y1447996D01*
X1914763*
Y1453319*
Y1452909D02*
Y1455004D01*
X1918701*
Y1449756*
X1876969Y1450091D02*
Y1447996D01*
X1873031*
Y1453319*
Y1452909D02*
Y1455004D01*
X1876969*
Y1449756*
X1910040Y1450091D02*
Y1447996D01*
X1906102*
Y1453319*
Y1452909D02*
Y1455004D01*
X1910040*
Y1449756*
X1880906Y1450091D02*
Y1447996D01*
X1876968*
Y1453319*
Y1452909D02*
Y1455004D01*
X1880906*
Y1449756*
X1921031Y1467659D02*
Y1469754D01*
X1924969*
Y1464431*
Y1464841D02*
Y1462746D01*
X1921031*
Y1467994*
X1945571Y1718965D02*
Y1716870D01*
X1941633*
Y1722193*
Y1721783D02*
Y1723878D01*
X1945571*
Y1718630*
X1941437Y1718965D02*
Y1716870D01*
X1937500*
Y1722193*
Y1721783D02*
Y1723878D01*
X1941437*
Y1718630*
X1891044Y1718965D02*
Y1716870D01*
X1887106*
Y1722193*
Y1721783D02*
Y1723878D01*
X1891044*
Y1718630*
X1894981Y1718965D02*
Y1716870D01*
X1891043*
Y1722193*
Y1721783D02*
Y1723878D01*
X1894981*
Y1718630*
X1895177Y1721783D02*
Y1723878D01*
X1899115*
Y1718555*
Y1718965D02*
Y1716870D01*
X1895177*
Y1722118*
X2146946Y1541870D02*
Y1543965D01*
X2150884*
Y1538642*
Y1539052D02*
Y1536957D01*
X2146946*
Y1542205*
X2116330Y1589449D02*
X2118425D01*
Y1585511*
X2113102*
X2113512D02*
X2111417D01*
Y1589449*
X2116665*
X2131969Y1604841D02*
Y1602746D01*
X2128031*
Y1608069*
Y1607659D02*
Y1609754D01*
X2131969*
Y1604506*
X2183409Y1594469D02*
X2185504D01*
Y1590531*
X2180181*
X2180591D02*
X2178496D01*
Y1594469*
X2183744*
X1951719Y1587841D02*
Y1585746D01*
X1947781*
Y1591069*
Y1590659D02*
Y1592754D01*
X1951719*
Y1587506*
X2166281Y1553659D02*
Y1555754D01*
X2170219*
Y1550431*
Y1550841D02*
Y1548746D01*
X2166281*
Y1553994*
X2136300Y1604841D02*
Y1602746D01*
X2132362*
Y1608069*
Y1607659D02*
Y1609754D01*
X2136300*
Y1604506*
X2113512Y1560315D02*
X2111417D01*
Y1564252*
X2116740*
X2116330D02*
X2118425D01*
Y1560315*
X2113177*
X2116330Y1568386D02*
X2118425D01*
Y1564448*
X2113102*
X2113512D02*
X2111417D01*
Y1568386*
X2116665*
X2159219Y1604591D02*
Y1602496D01*
X2155281*
Y1607819*
Y1607409D02*
Y1609504D01*
X2159219*
Y1604256*
X2163219Y1604591D02*
Y1602496D01*
X2159281*
Y1607819*
Y1607409D02*
Y1609504D01*
X2163219*
Y1604256*
X2113512Y1568385D02*
X2111417D01*
Y1572323*
X2116740*
X2116330D02*
X2118425D01*
Y1568385*
X2113177*
X2116330Y1576457D02*
X2118425D01*
Y1572519*
X2113102*
X2113512D02*
X2111417D01*
Y1576457*
X2116665*
X2113512Y1576850D02*
X2111417D01*
Y1580788*
X2116740*
X2116330D02*
X2118425D01*
Y1576850*
X2113177*
X2061682Y1464781D02*
X2059587D01*
Y1468719*
X2064910*
X2064500D02*
X2066595D01*
Y1464781*
X2061347*
X2116330Y1585119D02*
X2118425D01*
Y1581181*
X2113102*
X2113512D02*
X2111417D01*
Y1585119*
X2116665*
X2164341Y1472281D02*
X2162246D01*
Y1476219*
X2167569*
X2167159D02*
X2169254D01*
Y1472281*
X2164006*
X2135781Y1523159D02*
Y1525254D01*
X2139719*
Y1519931*
Y1520341D02*
Y1518246D01*
X2135781*
Y1523494*
X2148841Y1472281D02*
X2146746D01*
Y1476219*
X2152069*
X2151659D02*
X2153754D01*
Y1472281*
X2148506*
X2159659Y1476219D02*
X2161754D01*
Y1472281*
X2156431*
X2156841D02*
X2154746D01*
Y1476219*
X2159994*
X2160781Y1523159D02*
Y1525254D01*
X2164719*
Y1519931*
Y1520341D02*
Y1518246D01*
X2160781*
Y1523494*
X2089563Y1450624D02*
Y1452719D01*
X2093500*
Y1447396*
Y1447806D02*
Y1445711D01*
X2089563*
Y1450959*
X2175091Y1701531D02*
X2172996D01*
Y1705469*
X2178319*
X2177909D02*
X2180004D01*
Y1701531*
X2174756*
X2061681Y1468996D02*
X2059587D01*
Y1472933*
X2064909*
X2064500D02*
X2066594D01*
Y1468996*
X2061346*
X2177909Y1715469D02*
X2180004D01*
Y1711531*
X2174681*
X2175091D02*
X2172996D01*
Y1715469*
X2178244*
X2084500Y1447806D02*
Y1445711D01*
X2080563*
Y1451033*
Y1450624D02*
Y1452718D01*
X2084500*
Y1447470*
X2088750Y1447806D02*
Y1445711D01*
X2084813*
Y1451033*
Y1450624D02*
Y1452718D01*
X2088750*
Y1447470*
X2061682Y1456781D02*
X2059587D01*
Y1460719*
X2064910*
X2064500D02*
X2066595D01*
Y1456781*
X2061347*
X2119031Y1468159D02*
Y1470254D01*
X2122969*
Y1464931*
Y1465341D02*
Y1463246D01*
X2119031*
Y1468494*
X2130031Y1475909D02*
Y1478004D01*
X2133969*
Y1472681*
Y1473091D02*
Y1470996D01*
X2130031*
Y1476244*
X2126507Y1716044D02*
X2128602D01*
Y1712106*
X2123280*
X2123689D02*
X2121594D01*
Y1716044*
X2126843*
X2121031Y1475909D02*
Y1478004D01*
X2124969*
Y1472681*
Y1473091D02*
Y1470996D01*
X2121031*
Y1476244*
X2031969Y1725841D02*
Y1723746D01*
X2028031*
Y1729069*
Y1728659D02*
Y1730754D01*
X2031969*
Y1725506*
X1952391Y1451031D02*
X1950296D01*
Y1454969*
X1955619*
X1955209D02*
X1957304D01*
Y1451031*
X1952056*
X2029528Y1704300D02*
Y1702205D01*
X2025590*
Y1707528*
Y1707118D02*
Y1709213D01*
X2029528*
Y1703965*
X1949591Y1466031D02*
X1947496D01*
Y1469969*
X1952819*
X1952409D02*
X1954504D01*
Y1466031*
X1949256*
X2015531Y1738811D02*
Y1740906D01*
X2019469*
Y1735583*
Y1735993D02*
Y1733898D01*
X2015531*
Y1739146*
X2015552Y1704300D02*
Y1702205D01*
X2011614*
Y1707528*
Y1707118D02*
Y1709213D01*
X2015552*
Y1703965*
X1975159Y1462969D02*
X1977254D01*
Y1459031*
X1971931*
X1972341D02*
X1970246D01*
Y1462969*
X1975494*
X1975159Y1469969D02*
X1977254D01*
Y1466031*
X1971931*
X1972341D02*
X1970246D01*
Y1469969*
X1975494*
X2054922Y1725756D02*
Y1723661D01*
X2050984*
Y1728984*
Y1728574D02*
Y1730669D01*
X2054922*
Y1725421*
X2072520Y1586689D02*
X2070425D01*
Y1590626*
X2075748*
X2075338D02*
X2077433D01*
Y1586689*
X2072185*
X2052363Y1704300D02*
Y1702205D01*
X2048425*
Y1707528*
Y1707118D02*
Y1709213D01*
X2052363*
Y1703965*
X2038031Y1738811D02*
Y1740906D01*
X2041969*
Y1735583*
Y1735993D02*
Y1733898D01*
X2038031*
Y1739146*
X2038189Y1704300D02*
Y1702205D01*
X2034252*
Y1707528*
Y1707118D02*
Y1709213D01*
X2038189*
Y1703965*
X2128091Y1646031D02*
X2125996D01*
Y1649969*
X2131319*
X2130909D02*
X2133004D01*
Y1646031*
X2127756*
X2180841Y1648781D02*
X2178746D01*
Y1652719*
X2184069*
X2183659D02*
X2185754D01*
Y1648781*
X2180506*
X2180841Y1653281D02*
X2178746D01*
Y1657219*
X2184069*
X2183659D02*
X2185754D01*
Y1653281*
X2180506*
X2128091Y1668531D02*
X2125996D01*
Y1672469*
X2131319*
X2130909D02*
X2133004D01*
Y1668531*
X2127756*
X1885659Y1532219D02*
X1887754D01*
Y1528281*
X1882431*
X1882841D02*
X1880746D01*
Y1532219*
X1885994*
X1885759Y1527969D02*
X1887854D01*
Y1524031*
X1882531*
X1882941D02*
X1880846D01*
Y1527969*
X1886094*
X1866969Y1518591D02*
Y1516496D01*
X1863031*
Y1521819*
Y1521409D02*
Y1523504D01*
X1866969*
Y1518256*
X1897311Y1704232D02*
X1895217D01*
Y1708170*
X1900539*
X1900130D02*
X1902224D01*
Y1704232*
X1896976*
X1862441Y1518591D02*
Y1516496D01*
X1858504*
Y1521819*
Y1521409D02*
Y1523504D01*
X1862441*
Y1518256*
X1858307Y1518591D02*
Y1516496D01*
X1854370*
Y1521819*
Y1521409D02*
Y1523504D01*
X1858307*
Y1518256*
X1854174Y1518591D02*
Y1516496D01*
X1850236*
Y1521819*
Y1521409D02*
Y1523504D01*
X1854174*
Y1518256*
X1850237Y1518591D02*
Y1516496D01*
X1846299*
Y1521819*
Y1521409D02*
Y1523504D01*
X1850237*
Y1518256*
X1835591Y1530031D02*
X1833496D01*
Y1533969*
X1838819*
X1838409D02*
X1840504D01*
Y1530031*
X1835256*
X1864469Y1458091D02*
Y1455996D01*
X1860531*
Y1461319*
Y1460909D02*
Y1463004D01*
X1864469*
Y1457756*
X1863841Y1466531D02*
X1861746D01*
Y1470469*
X1867069*
X1866659D02*
X1868754D01*
Y1466531*
X1863506*
X1805219Y1439591D02*
Y1437496D01*
X1801281*
Y1442819*
Y1442409D02*
Y1444504D01*
X1805219*
Y1439256*
X1829159Y1441469D02*
X1831254D01*
Y1437531*
X1825931*
X1826341D02*
X1824246D01*
Y1441469*
X1829494*
X1819781Y1442409D02*
Y1444504D01*
X1823719*
Y1439181*
Y1439591D02*
Y1437496D01*
X1819781*
Y1442744*
X2117969Y1538841D02*
Y1536746D01*
X2114031*
Y1542069*
Y1541659D02*
Y1543754D01*
X2117969*
Y1538506*
X1813485Y1439634D02*
Y1437539D01*
X1809547*
Y1442862*
Y1442452D02*
Y1444547D01*
X1813485*
Y1439299*
X1843209Y1439634D02*
Y1437539D01*
X1839271*
Y1442862*
Y1442452D02*
Y1444547D01*
X1843209*
Y1439299*
X1851031Y1442409D02*
Y1444504D01*
X1854969*
Y1439181*
Y1439591D02*
Y1437496D01*
X1851031*
Y1442744*
X1809219Y1439591D02*
Y1437496D01*
X1805281*
Y1442819*
Y1442409D02*
Y1444504D01*
X1809219*
Y1439256*
X1850969Y1439591D02*
Y1437496D01*
X1847031*
Y1442819*
Y1442409D02*
Y1444504D01*
X1850969*
Y1439256*
X1855031Y1442409D02*
Y1444504D01*
X1858969*
Y1439181*
Y1439591D02*
Y1437496D01*
X1855031*
Y1442744*
X1855358Y1468256D02*
Y1470350D01*
X1859296*
Y1465028*
Y1465437D02*
Y1463343D01*
X1855358*
Y1468591*
X1859781Y1442409D02*
Y1444504D01*
X1863719*
Y1439181*
Y1439591D02*
Y1437496D01*
X1859781*
Y1442744*
X1868219Y1439591D02*
Y1437496D01*
X1864281*
Y1442819*
Y1442409D02*
Y1444504D01*
X1868219*
Y1439256*
X2008531Y1638409D02*
Y1640504D01*
X2012469*
Y1635181*
Y1635591D02*
Y1633496D01*
X2008531*
Y1638744*
X2123281Y1523159D02*
Y1525254D01*
X2127219*
Y1519931*
Y1520341D02*
Y1518246D01*
X2123281*
Y1523494*
X2014031Y1638409D02*
Y1640504D01*
X2017969*
Y1635181*
Y1635591D02*
Y1633496D01*
X2014031*
Y1638744*
X2037031Y1638409D02*
Y1640504D01*
X2040969*
Y1635181*
Y1635591D02*
Y1633496D01*
X2037031*
Y1638744*
X2018531Y1630909D02*
Y1633004D01*
X2022469*
Y1627681*
Y1628091D02*
Y1625996D01*
X2018531*
Y1631244*
X2014031Y1630909D02*
Y1633004D01*
X2017969*
Y1627681*
Y1628091D02*
Y1625996D01*
X2014031*
Y1631244*
X2032969Y1635591D02*
Y1633496D01*
X2029031*
Y1638819*
Y1638409D02*
Y1640504D01*
X2032969*
Y1635256*
X2033841Y1625281D02*
X2031746D01*
Y1629219*
X2037069*
X2036659D02*
X2038754D01*
Y1625281*
X2033506*
X1993520Y1586689D02*
X1991425D01*
Y1590626*
X1996748*
X1996338D02*
X1998433D01*
Y1586689*
X1993185*
X2043520Y1586189D02*
X2041425D01*
Y1590126*
X2046748*
X2046338D02*
X2048433D01*
Y1586189*
X2043185*
X2019520Y1586689D02*
X2017425D01*
Y1590626*
X2022748*
X2022338D02*
X2024433D01*
Y1586689*
X2019185*
X1919719Y1607091D02*
Y1604996D01*
X1915781*
Y1610319*
Y1609909D02*
Y1612004D01*
X1919719*
Y1606756*
X1886910Y1718965D02*
Y1716870D01*
X1882972*
Y1722193*
Y1721783D02*
Y1723878D01*
X1886910*
Y1718630*
X1914469Y1607091D02*
Y1604996D01*
X1910531*
Y1610319*
Y1609909D02*
Y1612004D01*
X1914469*
Y1606756*
X1960469Y1665341D02*
Y1663246D01*
X1956531*
Y1668569*
Y1668159D02*
Y1670254D01*
X1960469*
Y1665006*
X1963091Y1656281D02*
X1960996D01*
Y1660219*
X1966319*
X1965909D02*
X1968004D01*
Y1656281*
X1962756*
X1968891Y1667647D02*
Y1669742D01*
X1972829*
Y1664419*
Y1664829D02*
Y1662734D01*
X1968891*
Y1667982*
X1965809Y1665769D02*
X1967904D01*
Y1661831*
X1962581*
X1962991D02*
X1960896D01*
Y1665769*
X1966144*
X1995469Y1736091D02*
Y1733996D01*
X1991531*
Y1739319*
Y1738909D02*
Y1741004D01*
X1995469*
Y1735756*
X1987281Y1738909D02*
Y1741004D01*
X1991219*
Y1735681*
Y1736091D02*
Y1733996D01*
X1987281*
Y1739244*
X2001469Y1736091D02*
Y1733996D01*
X1997531*
Y1739319*
Y1738909D02*
Y1741004D01*
X2001469*
Y1735756*
X2131469Y1520341D02*
Y1518246D01*
X2127531*
Y1523569*
Y1523159D02*
Y1525254D01*
X2131469*
Y1520006*
X2002031Y1738909D02*
Y1741004D01*
X2005969*
Y1735681*
Y1736091D02*
Y1733996D01*
X2002031*
Y1739244*
X1984031Y1705909D02*
Y1708004D01*
X1987969*
Y1702681*
Y1703091D02*
Y1700996D01*
X1984031*
Y1706244*
X1979447Y1726485D02*
Y1724390D01*
X1975509*
Y1729713*
Y1729303D02*
Y1731398D01*
X1979447*
Y1726150*
X2003649Y1706787D02*
Y1708882D01*
X2007587*
Y1703559*
Y1703969D02*
Y1701874D01*
X2003649*
Y1707122*
X1983581Y1726485D02*
Y1724390D01*
X1979643*
Y1729713*
Y1729303D02*
Y1731398D01*
X1983581*
Y1726150*
X1877531Y1667909D02*
Y1670004D01*
X1881469*
Y1664681*
Y1665091D02*
Y1662996D01*
X1877531*
Y1668244*
X1862409Y1665219D02*
X1864504D01*
Y1661281*
X1859181*
X1859591D02*
X1857496D01*
Y1665219*
X1862744*
X1851341Y1661281D02*
X1849246D01*
Y1665219*
X1854569*
X1854159D02*
X1856254D01*
Y1661281*
X1851006*
X1860469Y1656091D02*
Y1653996D01*
X1856531*
Y1659319*
Y1658909D02*
Y1661004D01*
X1860469*
Y1655756*
X1860531Y1658909D02*
Y1661004D01*
X1864469*
Y1655681*
Y1656091D02*
Y1653996D01*
X1860531*
Y1659244*
X1890028Y1704232D02*
X1887933D01*
Y1708170*
X1893256*
X1892846D02*
X1894941D01*
Y1704232*
X1889693*
X1886350Y1611319D02*
X1888445D01*
Y1607382*
X1883122*
X1883532D02*
X1881437D01*
Y1611319*
X1886685*
X1886350Y1599311D02*
X1888445D01*
Y1595374*
X1883122*
X1883532D02*
X1881437D01*
Y1599311*
X1886685*
X1886350Y1638878D02*
X1888445D01*
Y1634941*
X1883122*
X1883532D02*
X1881437D01*
Y1638878*
X1886685*
X1886350Y1631004D02*
X1888445D01*
Y1627067*
X1883122*
X1883532D02*
X1881437D01*
Y1631004*
X1886685*
X1886350Y1627067D02*
X1888445D01*
Y1623130*
X1883122*
X1883532D02*
X1881437D01*
Y1627067*
X1886685*
X1886350Y1615059D02*
X1888445D01*
Y1611122*
X1883122*
X1883532D02*
X1881437D01*
Y1615059*
X1886685*
X1853219Y1587591D02*
Y1585496D01*
X1849281*
Y1590819*
Y1590409D02*
Y1592504D01*
X1853219*
Y1587256*
X1894159Y1611219D02*
X1896254D01*
Y1607281*
X1890931*
X1891341D02*
X1889246D01*
Y1611219*
X1894494*
X1842531Y1590409D02*
Y1592504D01*
X1846469*
Y1587181*
Y1587591D02*
Y1585496D01*
X1842531*
Y1590744*
X1837969Y1587591D02*
Y1585496D01*
X1834031*
Y1590819*
Y1590409D02*
Y1592504D01*
X1837969*
Y1587256*
X2141026Y1604000D02*
G03X2141026I-2276J0D01*
G01X2145276Y1601500D02*
G03X2145276I-2276J0D01*
G01X2129841Y1717028D02*
Y1729428D01*
X2115041*
Y1717028*
X2129841*
X2124041Y1717828D02*
Y1728628D01*
X2120841*
Y1717828*
X2124041*
X1952461Y1735334D02*
Y1739271D01*
X1962303Y1735334D02*
Y1739271D01*
X1963287Y1735334D02*
Y1739271D01*
X1973130Y1735334D02*
Y1739271D01*
X1974114Y1735334D02*
Y1739271D01*
X1983957Y1735334D02*
Y1739271D01*
X1865256Y1666004D02*
Y1661909D01*
X1877461Y1666004D02*
Y1661909D01*
X1878917Y1658760D02*
G03X1878917I-590J0D01*
G01X1864949Y1648327D02*
X1869209D01*
Y1644177*
Y1605299D02*
Y1601083D01*
X1865181*
X1821965Y1644953D02*
Y1647146D01*
X1823146Y1648327*
X1825563*
X1821965Y1604922D02*
Y1601083D01*
X1825788*
X1826823Y1651181D02*
X1827894Y1650111D01*
X1828977Y1651193*
X1826792*
X2135231Y1588677D02*
Y1565177D01*
X2158731*
Y1588677*
X2135231*
X2165325Y1591023D02*
G03X2165325I-600J0D01*
G01X2156270Y1585708D02*
G03X2156270I-600J0D01*
G01X2171221Y1588071D02*
X2169646D01*
X2171221Y1579803D02*
X2169646D01*
X2171118Y1569977D02*
X2169544D01*
X2153831Y1552790D02*
Y1554364D01*
X2144055Y1552834D02*
Y1554409D01*
X2122992Y1565827D02*
X2124567D01*
X2122944Y1576077D02*
X2124518D01*
X2122944Y1585777D02*
X2124518D01*
X2142131Y1600964D02*
Y1599390D01*
X2151731Y1600964D02*
Y1599390D01*
X2045257Y1463090D02*
G03X2045257I-1261J0D01*
G01X2050885Y1459941D02*
Y1471850D01*
X2040846*
Y1459941*
X2045178*
Y1461122*
X2046752*
Y1459941*
X2050885*
X2025531Y1451240D02*
X2028287D01*
X2029272Y1444311D02*
X2032579D01*
Y1449705*
X2024469Y1444311D02*
X2021161D01*
Y1449705*
X2027263Y1731416D02*
X2014863D01*
Y1716616*
X2027263*
Y1731416*
X2026463Y1725616D02*
X2015663D01*
Y1722416*
X2026463*
Y1725616*
X1957050Y1456100D02*
X1969450D01*
Y1470900*
X1957050*
Y1456100*
X1957850Y1461900D02*
X1968650D01*
Y1465100*
X1957850*
Y1461900*
X2050294Y1731022D02*
X2037894D01*
Y1716222*
X2050294*
Y1731022*
X2049494Y1725222D02*
X2038694D01*
Y1722022*
X2049494*
Y1725222*
X2155556Y1632791D02*
G03X2155556I-1891J0D01*
G01X2171512Y1628799D02*
Y1671697D01*
X2170965Y1672244*
X2144161*
X2144098Y1672181*
Y1628740*
X2171453*
X2171512Y1628799*
Y1633858D02*
X2171575D01*
X1940705Y1659189D02*
X1939862D01*
Y1669929*
X1940366*
X1950862Y1659260D02*
X1951280D01*
X1951673Y1659654*
Y1669902*
X1951118*
X2123549Y1643689D02*
Y1667311D01*
X2110951*
Y1643689*
X2123549*
X2174862Y1560413D02*
Y1536791D01*
X2187461*
Y1560413*
X2174862*
X2024900Y1468453D02*
X2007100D01*
Y1462547D02*
X2024900D01*
X1846556Y1658364D02*
G03X1846556I-1037J0D01*
G01X1842431Y1670293D02*
X1836699D01*
X1842407Y1660451D02*
X1836758D01*
X1845872Y1664726D02*
Y1666014D01*
X1833274Y1664695D02*
Y1666014D01*
X1941045Y1447000D02*
G03X1941845Y1447800I0J800D01*
G01Y1453200*
G03X1941045Y1454000I-800J-0*
G01X1928955*
G03X1928155Y1453200I0J-800*
G01Y1447800*
G03X1928955Y1447000I800J0*
G01X1941045*
X2188701Y1561319D02*
G03X2189501Y1562119I0J800D01*
G01Y1567519*
G03X2188701Y1568319I-800J-0*
G01X2176611*
G03X2175811Y1567519I0J-800*
G01Y1562119*
G03X2176611Y1561319I800J0*
G01X2188701*
X2158250Y1537762D02*
G03X2159050Y1536962I800J-0D01*
G01X2164450*
G03X2165250Y1537762I-0J800*
G01Y1549852*
G03X2164450Y1550652I-800J0*
G01X2159050*
G03X2158250Y1549852I0J-800*
G01Y1537762*
X2188701Y1577069D02*
G03X2189501Y1577869I0J800D01*
G01Y1583269*
G03X2188701Y1584069I-800J-0*
G01X2176611*
G03X2175811Y1583269I0J-800*
G01Y1577869*
G03X2176611Y1577069I800J0*
G01X2188701*
X2131988Y1537768D02*
G03X2132788Y1536968I800J-0D01*
G01X2138188*
G03X2138988Y1537768I0J800*
G01Y1549858*
G03X2138188Y1550658I-800J-0*
G01X2132788*
G03X2131988Y1549858I0J-800*
G01Y1537768*
X1899500Y1601955D02*
G03X1900300Y1601155I800J-0D01*
G01X1905700*
G03X1906500Y1601955I-0J800*
G01Y1614045*
G03X1905700Y1614845I-800J-0*
G01X1900300*
G03X1899500Y1614045I0J-800*
G01Y1601955*
X1914750Y1583705D02*
G03X1915550Y1582905I800J-0D01*
G01X1920950*
G03X1921750Y1583705I-0J800*
G01Y1595795*
G03X1920950Y1596595I-800J-0*
G01X1915550*
G03X1914750Y1595795I0J-800*
G01Y1583705*
X2089175Y1648760D02*
G03X2089175I-1581J0D01*
G01X2072606Y1651501D02*
X2063752D01*
Y1665280*
X2059815*
Y1669217*
X2099185*
Y1665280*
X2095248*
Y1651501*
X2085415*
X1835411Y1449659D02*
Y1451000D01*
X1836211Y1451800D02*
G03X1835411Y1451000I0J-800D01*
G01X1836211Y1451800D02*
X1838289D01*
X1839089Y1451000D02*
G03X1838289Y1451800I-800J0D01*
G01X1839089Y1451000D02*
Y1449659D01*
Y1449825D02*
Y1445310D01*
X1838289Y1444746D02*
G03X1839089Y1445310I118J682D01*
G01X1838289Y1444746D02*
X1836211D01*
X1835411Y1445546D02*
G03X1836211Y1444746I800J0D01*
G01X1835411Y1445546D02*
Y1450124D01*
X1834295Y1445250D02*
G03X1835095Y1446050I0J800D01*
G01Y1451450*
G03X1834295Y1452250I-800J-0*
G01X1822205*
G03X1821405Y1451450I0J-800*
G01Y1446050*
G03X1822205Y1445250I800J0*
G01X1834295*
X1839219Y1439591D02*
Y1437496D01*
X1835281*
Y1442819*
Y1442409D02*
Y1444504D01*
X1839219*
Y1439256*
X1835219Y1439591D02*
Y1437496D01*
X1831281*
Y1442819*
Y1442409D02*
Y1444504D01*
X1835219*
Y1439256*
G54D151*
X1865543Y1525488D02*
G03X1865543I-445J0D01*
G01X1950009Y1656654D02*
G03X1950009I-253J0D01*
G74*
G01X0Y0D02*
M02*
