%TF.GenerationSoftware,KiCad,Pcbnew,9.0.1*%
%TF.CreationDate,2025-09-03T15:01:39-06:00*%
%TF.ProjectId,SparkFun_Qwiic_GNSS_SAM-M8Q,53706172-6b46-4756-9e5f-51776969635f,v10*%
%TF.SameCoordinates,Original*%
%TF.FileFunction,Legend,Top*%
%TF.FilePolarity,Positive*%
%FSLAX46Y46*%
G04 Gerber Fmt 4.6, Leading zero omitted, Abs format (unit mm)*
G04 Created by KiCad (PCBNEW 9.0.1) date 2025-09-03 15:01:39*
%MOMM*%
%LPD*%
G01*
G04 APERTURE LIST*
%ADD10C,0.203200*%
%ADD11C,0.120000*%
%ADD12C,0.177800*%
%ADD13C,0.000000*%
%ADD14C,0.152400*%
%ADD15C,0.200000*%
%ADD16C,0.127000*%
G04 APERTURE END LIST*
D10*
%TO.C,J2*%
X4412500Y15700000D02*
X4412500Y14950000D01*
X2762500Y15700000D02*
X4412500Y15700000D01*
X162500Y14200000D02*
X162500Y11200000D01*
X4412500Y10450000D02*
X4412500Y9700000D01*
X4412500Y9700000D02*
X2762500Y9700000D01*
%TO.C,J1*%
X20987500Y9700000D02*
X20987500Y10450000D01*
X22637500Y9700000D02*
X20987500Y9700000D01*
X25237500Y11200000D02*
X25237500Y14200000D01*
X20987500Y14950000D02*
X20987500Y15700000D01*
X20987500Y15700000D02*
X22637500Y15700000D01*
D11*
%TO.C,C9*%
X5840000Y14146920D02*
X5840000Y14428080D01*
X6860000Y14146920D02*
X6860000Y14428080D01*
%TO.C,D1*%
X1140000Y8755000D02*
X1140000Y7755000D01*
%TO.C,R7*%
X6872500Y11349758D02*
X6872500Y10875242D01*
X5827500Y11349758D02*
X5827500Y10875242D01*
D12*
%TO.C,D2*%
X25311100Y8318500D02*
X25311100Y6286500D01*
D13*
%TO.C,G\u002A\u002A\u002A*%
G36*
X20956829Y5287396D02*
G01*
X20995199Y5274776D01*
X21029998Y5252432D01*
X21039090Y5244656D01*
X21070191Y5210338D01*
X21092175Y5170949D01*
X21105459Y5125282D01*
X21110458Y5072130D01*
X21109833Y5039381D01*
X21107852Y5010474D01*
X21104684Y4988959D01*
X21099129Y4970147D01*
X21089984Y4949354D01*
X21083383Y4936146D01*
X21057487Y4895017D01*
X21026564Y4864430D01*
X20989379Y4843568D01*
X20944699Y4831613D01*
X20921553Y4828900D01*
X20896604Y4829080D01*
X20870897Y4832441D01*
X20863234Y4834268D01*
X20817069Y4852906D01*
X20779145Y4880286D01*
X20749649Y4916147D01*
X20728770Y4960228D01*
X20716695Y5012270D01*
X20714029Y5040975D01*
X20714952Y5099069D01*
X20724485Y5149370D01*
X20742993Y5192911D01*
X20770841Y5230727D01*
X20786472Y5246110D01*
X20820659Y5270726D01*
X20858472Y5285458D01*
X20902422Y5291211D01*
X20911972Y5291364D01*
X20956829Y5287396D01*
G37*
G36*
X22714280Y5874125D02*
G01*
X22877416Y5874118D01*
X23029303Y5874103D01*
X23170355Y5874078D01*
X23300988Y5874039D01*
X23421616Y5873985D01*
X23532654Y5873913D01*
X23634515Y5873821D01*
X23727616Y5873705D01*
X23812369Y5873564D01*
X23889190Y5873394D01*
X23958494Y5873194D01*
X24020695Y5872961D01*
X24076207Y5872691D01*
X24125445Y5872384D01*
X24168824Y5872035D01*
X24206759Y5871644D01*
X24239663Y5871206D01*
X24267952Y5870720D01*
X24292040Y5870182D01*
X24312341Y5869591D01*
X24329271Y5868944D01*
X24343243Y5868239D01*
X24354673Y5867472D01*
X24363974Y5866642D01*
X24371563Y5865745D01*
X24377852Y5864779D01*
X24383257Y5863743D01*
X24387412Y5862816D01*
X24485542Y5834044D01*
X24577291Y5795338D01*
X24662189Y5747056D01*
X24739769Y5689559D01*
X24809560Y5623205D01*
X24871093Y5548353D01*
X24923901Y5465362D01*
X24935918Y5442933D01*
X24973658Y5359727D01*
X25000564Y5276342D01*
X25017221Y5190337D01*
X25024217Y5099270D01*
X25024526Y5074234D01*
X25019107Y4973866D01*
X25002777Y4878632D01*
X24975430Y4788265D01*
X24936957Y4702496D01*
X24887252Y4621059D01*
X24826207Y4543684D01*
X24800126Y4515408D01*
X24731870Y4451184D01*
X24659809Y4397146D01*
X24582484Y4352484D01*
X24498438Y4316389D01*
X24406213Y4288048D01*
X24379555Y4281583D01*
X24320983Y4268113D01*
X22870115Y4266304D01*
X21419248Y4264496D01*
X21419248Y4895690D01*
X21419248Y5523866D01*
X21468730Y5523866D01*
X21635727Y5063496D01*
X21802724Y4603127D01*
X21954101Y4603023D01*
X22105479Y4602919D01*
X22192046Y4882223D01*
X22209374Y4937964D01*
X22225708Y4990187D01*
X22240686Y5037756D01*
X22253946Y5079536D01*
X22265125Y5114392D01*
X22273861Y5141187D01*
X22279793Y5158787D01*
X22282557Y5166056D01*
X22282621Y5166147D01*
X22285123Y5161481D01*
X22290773Y5146337D01*
X22299218Y5121793D01*
X22310105Y5088930D01*
X22323081Y5048828D01*
X22337795Y5002568D01*
X22353893Y4951230D01*
X22371022Y4895894D01*
X22373802Y4886850D01*
X22460974Y4602934D01*
X22611985Y4602926D01*
X22762997Y4602919D01*
X22930542Y5061000D01*
X22931968Y5064902D01*
X23140360Y5064902D01*
X23140360Y4602919D01*
X23291335Y4602919D01*
X23442310Y4602919D01*
X23442310Y5064902D01*
X23442310Y5526885D01*
X23502700Y5526885D01*
X23502700Y5064902D01*
X23502700Y4602919D01*
X23653675Y4602919D01*
X23804649Y4602919D01*
X23804649Y5061883D01*
X23868076Y5061883D01*
X23868661Y5013513D01*
X23870819Y4974154D01*
X23875181Y4940778D01*
X23882378Y4910354D01*
X23893039Y4879854D01*
X23907796Y4846248D01*
X23916899Y4827350D01*
X23952371Y4768515D01*
X23997008Y4717402D01*
X24050232Y4674599D01*
X24091747Y4650172D01*
X24147294Y4624674D01*
X24200206Y4607254D01*
X24254464Y4597002D01*
X24314051Y4593009D01*
X24342120Y4592986D01*
X24399490Y4593861D01*
X24401123Y4715406D01*
X24402755Y4836951D01*
X24349370Y4839503D01*
X24306207Y4844637D01*
X24271472Y4856131D01*
X24242745Y4875033D01*
X24224661Y4893533D01*
X24199022Y4932272D01*
X24181223Y4976722D01*
X24171199Y5024698D01*
X24168882Y5074018D01*
X24174206Y5122499D01*
X24187105Y5167956D01*
X24207512Y5208208D01*
X24235240Y5240961D01*
X24264580Y5263502D01*
X24294665Y5277389D01*
X24329401Y5284055D01*
X24355830Y5285193D01*
X24402755Y5285325D01*
X24401122Y5410634D01*
X24399490Y5535943D01*
X24324003Y5534973D01*
X24263895Y5531912D01*
X24211101Y5523779D01*
X24161590Y5509642D01*
X24111329Y5488570D01*
X24100560Y5483305D01*
X24052026Y5453656D01*
X24005483Y5415138D01*
X23963919Y5370699D01*
X23930327Y5323286D01*
X23920794Y5306120D01*
X23901794Y5266568D01*
X23887779Y5230511D01*
X23878074Y5194824D01*
X23872006Y5156379D01*
X23868899Y5112052D01*
X23868076Y5061883D01*
X23804649Y5061883D01*
X23804649Y5064902D01*
X23804649Y5526885D01*
X23653675Y5526885D01*
X23502700Y5526885D01*
X23442310Y5526885D01*
X23291335Y5526885D01*
X23140360Y5526885D01*
X23140360Y5064902D01*
X22931968Y5064902D01*
X22956526Y5132087D01*
X22981276Y5199892D01*
X23004482Y5263560D01*
X23025836Y5322238D01*
X23045028Y5375071D01*
X23061747Y5421204D01*
X23075683Y5459784D01*
X23086528Y5489957D01*
X23093970Y5510867D01*
X23097701Y5521662D01*
X23098087Y5522982D01*
X23092322Y5524063D01*
X23076118Y5525030D01*
X23051116Y5525837D01*
X23018956Y5526443D01*
X22981276Y5526803D01*
X22951276Y5526885D01*
X22804464Y5526885D01*
X22717953Y5232484D01*
X22700902Y5174577D01*
X22684692Y5119753D01*
X22669676Y5069191D01*
X22656208Y5024068D01*
X22644639Y4985561D01*
X22635324Y4954849D01*
X22628613Y4933109D01*
X22624861Y4921517D01*
X22624460Y4920427D01*
X22623121Y4917408D01*
X22621679Y4915673D01*
X22619917Y4915901D01*
X22617621Y4918771D01*
X22614577Y4924963D01*
X22610569Y4935155D01*
X22605382Y4950028D01*
X22598802Y4970259D01*
X22590614Y4996529D01*
X22580603Y5029516D01*
X22568554Y5069900D01*
X22554252Y5118359D01*
X22537482Y5175574D01*
X22518030Y5242222D01*
X22495681Y5318984D01*
X22470219Y5406538D01*
X22465078Y5424222D01*
X22436109Y5523866D01*
X22290416Y5525482D01*
X22144723Y5527098D01*
X22129670Y5477170D01*
X22124789Y5460713D01*
X22117009Y5434138D01*
X22106760Y5398938D01*
X22094477Y5356604D01*
X22080592Y5308627D01*
X22065536Y5256500D01*
X22049743Y5201714D01*
X22040783Y5170584D01*
X22025324Y5117045D01*
X22010789Y5067087D01*
X21997534Y5021910D01*
X21985917Y4982709D01*
X21976292Y4950682D01*
X21969018Y4927026D01*
X21964449Y4912938D01*
X21963044Y4909401D01*
X21960649Y4914139D01*
X21955212Y4929425D01*
X21947060Y4954209D01*
X21936520Y4987441D01*
X21923920Y5028069D01*
X21909587Y5075044D01*
X21893850Y5127316D01*
X21877035Y5183833D01*
X21869498Y5209373D01*
X21852252Y5267823D01*
X21835943Y5322836D01*
X21820903Y5373310D01*
X21807465Y5418144D01*
X21795960Y5456236D01*
X21786720Y5486483D01*
X21780078Y5507786D01*
X21776364Y5519041D01*
X21775771Y5520485D01*
X21769327Y5522745D01*
X21752866Y5524377D01*
X21725914Y5525396D01*
X21687998Y5525817D01*
X21638644Y5525655D01*
X21620208Y5525481D01*
X21468730Y5523866D01*
X21419248Y5523866D01*
X21419248Y5526885D01*
X21265253Y5526885D01*
X21111259Y5526885D01*
X21111259Y5468211D01*
X21111259Y5409537D01*
X21079554Y5440444D01*
X21032425Y5479442D01*
X20980190Y5508752D01*
X20948206Y5521434D01*
X20917093Y5529071D01*
X20877898Y5533953D01*
X20834310Y5536031D01*
X20790021Y5535252D01*
X20748719Y5531566D01*
X20714093Y5524922D01*
X20713208Y5524679D01*
X20647445Y5500458D01*
X20588183Y5466189D01*
X20535997Y5422349D01*
X20491459Y5369413D01*
X20457438Y5312501D01*
X20434730Y5256537D01*
X20418245Y5193179D01*
X20408492Y5125673D01*
X20405982Y5057265D01*
X20409312Y5005967D01*
X20415862Y4957418D01*
X20424000Y4916799D01*
X20434887Y4879968D01*
X20449682Y4842785D01*
X20463008Y4814284D01*
X20497141Y4756980D01*
X20539624Y4706604D01*
X20588950Y4664683D01*
X20640218Y4634352D01*
X20706061Y4608992D01*
X20775307Y4594636D01*
X20837981Y4590841D01*
X20904160Y4596125D01*
X20964794Y4611877D01*
X21019497Y4637952D01*
X21067881Y4674200D01*
X21075494Y4681407D01*
X21111259Y4716403D01*
X21111259Y4490569D01*
X21111259Y4264736D01*
X20964814Y4265751D01*
X20922482Y4266127D01*
X20882892Y4266635D01*
X20848065Y4267236D01*
X20820025Y4267892D01*
X20800794Y4268565D01*
X20794212Y4268971D01*
X20699213Y4283455D01*
X20607387Y4308880D01*
X20519650Y4344565D01*
X20436918Y4389830D01*
X20360105Y4443992D01*
X20290127Y4506371D01*
X20227900Y4576287D01*
X20174339Y4653057D01*
X20130359Y4736002D01*
X20113987Y4775031D01*
X20084372Y4866262D01*
X20065275Y4958725D01*
X20056965Y5050609D01*
X20059684Y5139801D01*
X20074742Y5240063D01*
X20100382Y5334532D01*
X20136703Y5423416D01*
X20183804Y5506920D01*
X20241785Y5585250D01*
X20306662Y5654705D01*
X20380157Y5717932D01*
X20458850Y5770675D01*
X20543653Y5813438D01*
X20635478Y5846723D01*
X20674797Y5857601D01*
X20739861Y5874127D01*
X22539481Y5874127D01*
X22714280Y5874125D01*
G37*
D14*
%TO.C,BT1*%
X14325602Y10947401D02*
G75*
G02*
X10312400Y12877800I-1637196J1733174D01*
G01*
X12369800Y15087600D02*
G75*
G02*
X13512799Y14960597I390790J-1689850D01*
G01*
D11*
%TO.C,R6*%
X1065000Y18177742D02*
X1065000Y18652258D01*
X2110000Y18177742D02*
X2110000Y18652258D01*
%TO.C,C14*%
X9082500Y17285580D02*
X9082500Y17004420D01*
X8062500Y17285580D02*
X8062500Y17004420D01*
D10*
%TO.C,U4*%
X11300000Y15718500D02*
X14100000Y15718500D01*
X14100000Y18568500D02*
X11300000Y18568500D01*
D15*
X11000000Y18643500D02*
G75*
G02*
X10800000Y18643500I-100000J0D01*
G01*
X10800000Y18643500D02*
G75*
G02*
X11000000Y18643500I100000J0D01*
G01*
D11*
%TO.C,R12*%
X17350000Y11349758D02*
X17350000Y10875242D01*
X16305000Y11349758D02*
X16305000Y10875242D01*
%TO.C,R2*%
X7507500Y23732258D02*
X7507500Y23257742D01*
X6462500Y23732258D02*
X6462500Y23257742D01*
D10*
%TO.C,J4*%
X17020000Y21260000D02*
X17020000Y23060000D01*
X8380000Y21260000D02*
X8380000Y23060000D01*
D16*
%TO.C,D7*%
X6632500Y20150000D02*
X5432500Y20150000D01*
X6632500Y17950000D02*
X5432500Y17950000D01*
D15*
X5282500Y20300000D02*
G75*
G02*
X5082500Y20300000I-100000J0D01*
G01*
X5082500Y20300000D02*
G75*
G02*
X5282500Y20300000I100000J0D01*
G01*
D11*
%TO.C,R8*%
X2970000Y18177742D02*
X2970000Y18652258D01*
X4015000Y18177742D02*
X4015000Y18652258D01*
D13*
%TO.C,G\u002A\u002A\u002A*%
G36*
X12899857Y7454806D02*
G01*
X13304407Y7875353D01*
X13684071Y7875353D01*
X13243239Y7445708D01*
X13733529Y6706979D01*
X13344872Y6706979D01*
X13024182Y7229057D01*
X12899857Y7109124D01*
X12899857Y6706979D01*
X12578957Y6706979D01*
X12578957Y8144495D01*
X12899857Y8320473D01*
X12899857Y7454806D01*
G37*
G36*
X12389396Y7906838D02*
G01*
X12394004Y7906677D01*
X12398566Y7906415D01*
X12403082Y7906054D01*
X12411996Y7905056D01*
X12420771Y7903716D01*
X12429434Y7902068D01*
X12438009Y7900143D01*
X12446523Y7897976D01*
X12455002Y7895600D01*
X12455002Y7597389D01*
X12443159Y7599731D01*
X12429953Y7601872D01*
X12415698Y7603778D01*
X12400708Y7605414D01*
X12385297Y7606747D01*
X12369778Y7607741D01*
X12354464Y7608362D01*
X12339670Y7608577D01*
X12317889Y7608091D01*
X12297019Y7606649D01*
X12277047Y7604273D01*
X12257958Y7600987D01*
X12239737Y7596814D01*
X12222371Y7591777D01*
X12205844Y7585899D01*
X12190142Y7579204D01*
X12175251Y7571714D01*
X12161156Y7563452D01*
X12147843Y7554443D01*
X12135298Y7544709D01*
X12123505Y7534272D01*
X12112451Y7523157D01*
X12102120Y7511387D01*
X12092499Y7498983D01*
X12083574Y7485971D01*
X12075329Y7472373D01*
X12067750Y7458211D01*
X12060822Y7443510D01*
X12054532Y7428292D01*
X12048865Y7412580D01*
X12043806Y7396398D01*
X12039341Y7379768D01*
X12035456Y7362715D01*
X12032135Y7345261D01*
X12027131Y7309241D01*
X12024213Y7271896D01*
X12023267Y7233410D01*
X12023267Y6706941D01*
X11702366Y6706941D01*
X11702366Y7820838D01*
X12007478Y7875314D01*
X12007478Y7658244D01*
X12011869Y7658244D01*
X12017857Y7671892D01*
X12024359Y7685264D01*
X12031361Y7698349D01*
X12038849Y7711137D01*
X12046806Y7723619D01*
X12055219Y7735783D01*
X12064072Y7747619D01*
X12073350Y7759117D01*
X12083039Y7770267D01*
X12093123Y7781058D01*
X12103587Y7791480D01*
X12114417Y7801524D01*
X12125597Y7811177D01*
X12137113Y7820431D01*
X12148950Y7829275D01*
X12161092Y7837698D01*
X12173525Y7845691D01*
X12186234Y7853243D01*
X12199203Y7860343D01*
X12212419Y7866982D01*
X12225865Y7873149D01*
X12239527Y7878833D01*
X12253390Y7884026D01*
X12267440Y7888715D01*
X12281660Y7892891D01*
X12296036Y7896544D01*
X12310554Y7899663D01*
X12325198Y7902238D01*
X12339953Y7904259D01*
X12354805Y7905715D01*
X12369737Y7906596D01*
X12384737Y7906892D01*
X12389396Y7906838D01*
G37*
G36*
X14341104Y8320146D02*
G01*
X14362503Y8319346D01*
X14383971Y8318176D01*
X14405420Y8316770D01*
X14447904Y8313781D01*
X14468764Y8312467D01*
X14489252Y8311450D01*
X14489252Y8071794D01*
X14474758Y8073442D01*
X14460099Y8074858D01*
X14445331Y8076045D01*
X14430514Y8077009D01*
X14415707Y8077752D01*
X14400969Y8078279D01*
X14386358Y8078592D01*
X14371933Y8078695D01*
X14356018Y8078265D01*
X14348527Y8077721D01*
X14341344Y8076951D01*
X14334464Y8075951D01*
X14327883Y8074716D01*
X14321598Y8073241D01*
X14315604Y8071523D01*
X14309899Y8069556D01*
X14304479Y8067337D01*
X14299339Y8064860D01*
X14294477Y8062120D01*
X14289888Y8059114D01*
X14285568Y8055837D01*
X14281515Y8052284D01*
X14277724Y8048451D01*
X14274191Y8044333D01*
X14270913Y8039925D01*
X14267886Y8035223D01*
X14265107Y8030223D01*
X14262571Y8024920D01*
X14260276Y8019309D01*
X14258216Y8013386D01*
X14256390Y8007146D01*
X14254792Y8000584D01*
X14253419Y7993697D01*
X14252267Y7986479D01*
X14251333Y7978927D01*
X14250104Y7962798D01*
X14249701Y7945274D01*
X14249701Y7875322D01*
X14471058Y7875322D01*
X14471058Y7660657D01*
X14249701Y7660657D01*
X14249701Y6706844D01*
X13928801Y6706844D01*
X13928801Y7660657D01*
X13612292Y7660657D01*
X13831035Y7875322D01*
X13928801Y7875322D01*
X13928801Y7965455D01*
X13929178Y7984780D01*
X13930312Y8003732D01*
X13932204Y8022293D01*
X13934852Y8040449D01*
X13938260Y8058184D01*
X13942426Y8075482D01*
X13947353Y8092328D01*
X13953041Y8108705D01*
X13959490Y8124598D01*
X13966702Y8139991D01*
X13974677Y8154869D01*
X13983417Y8169216D01*
X13992921Y8183016D01*
X14003191Y8196253D01*
X14014227Y8208912D01*
X14026030Y8220978D01*
X14038601Y8232434D01*
X14051941Y8243264D01*
X14066051Y8253454D01*
X14080931Y8262986D01*
X14096582Y8271847D01*
X14113005Y8280019D01*
X14130200Y8287488D01*
X14148170Y8294237D01*
X14166913Y8300250D01*
X14186431Y8305513D01*
X14206726Y8310010D01*
X14227796Y8313724D01*
X14249645Y8316640D01*
X14272271Y8318742D01*
X14295677Y8320015D01*
X14319862Y8320442D01*
X14341104Y8320146D01*
G37*
G36*
X14882228Y7215501D02*
G01*
X14882875Y7180606D01*
X14884856Y7147990D01*
X14888233Y7117648D01*
X14893070Y7089576D01*
X14899429Y7063771D01*
X14907372Y7040229D01*
X14911958Y7029306D01*
X14916962Y7018947D01*
X14922395Y7009152D01*
X14928262Y6999921D01*
X14934572Y6991252D01*
X14941333Y6983146D01*
X14948553Y6975603D01*
X14956239Y6968621D01*
X14964399Y6962200D01*
X14973041Y6956340D01*
X14982173Y6951040D01*
X14991803Y6946300D01*
X15001938Y6942119D01*
X15012586Y6938498D01*
X15023756Y6935435D01*
X15035454Y6932929D01*
X15047689Y6930982D01*
X15060469Y6929591D01*
X15073801Y6928757D01*
X15087693Y6928479D01*
X15103732Y6928765D01*
X15119192Y6929629D01*
X15134077Y6931078D01*
X15148391Y6933120D01*
X15162139Y6935764D01*
X15175326Y6939016D01*
X15187956Y6942885D01*
X15200035Y6947378D01*
X15211565Y6952504D01*
X15222553Y6958270D01*
X15233003Y6964683D01*
X15242919Y6971753D01*
X15252307Y6979485D01*
X15261170Y6987890D01*
X15269513Y6996973D01*
X15277342Y7006743D01*
X15284660Y7017208D01*
X15291472Y7028376D01*
X15297784Y7040254D01*
X15303599Y7052850D01*
X15308922Y7066172D01*
X15313758Y7080228D01*
X15318111Y7095026D01*
X15321986Y7110573D01*
X15325389Y7126877D01*
X15328322Y7143947D01*
X15330792Y7161789D01*
X15332802Y7180412D01*
X15334357Y7199823D01*
X15335462Y7220031D01*
X15336341Y7262867D01*
X15336341Y7875285D01*
X15657346Y7875285D01*
X15657346Y6706912D01*
X15352130Y6706912D01*
X15352130Y6869715D01*
X15345333Y6869715D01*
X15337555Y6857428D01*
X15329443Y6845562D01*
X15321007Y6834116D01*
X15312260Y6823086D01*
X15303214Y6812472D01*
X15293880Y6802271D01*
X15284270Y6792481D01*
X15274394Y6783100D01*
X15264266Y6774126D01*
X15253897Y6765557D01*
X15243297Y6757391D01*
X15232480Y6749626D01*
X15210237Y6735289D01*
X15187262Y6722531D01*
X15163647Y6711336D01*
X15139485Y6701686D01*
X15114870Y6693566D01*
X15089895Y6686959D01*
X15064653Y6681849D01*
X15039237Y6678219D01*
X15013740Y6676053D01*
X14988255Y6675335D01*
X14957012Y6675894D01*
X14927233Y6677561D01*
X14898889Y6680318D01*
X14871948Y6684148D01*
X14846379Y6689034D01*
X14822151Y6694958D01*
X14799233Y6701902D01*
X14777593Y6709850D01*
X14757202Y6718784D01*
X14738027Y6728686D01*
X14720039Y6739540D01*
X14703205Y6751328D01*
X14687494Y6764033D01*
X14672876Y6777637D01*
X14659320Y6792124D01*
X14646795Y6807474D01*
X14635269Y6823673D01*
X14624712Y6840701D01*
X14615092Y6858541D01*
X14606378Y6877177D01*
X14598540Y6896591D01*
X14591547Y6916766D01*
X14585367Y6937684D01*
X14579969Y6959327D01*
X14571396Y7004723D01*
X14565579Y7052814D01*
X14562272Y7103462D01*
X14561224Y7156528D01*
X14561224Y7875285D01*
X14882228Y7875285D01*
X14882228Y7215501D01*
G37*
G36*
X16534782Y7906260D02*
G01*
X16564560Y7904592D01*
X16592904Y7901833D01*
X16619845Y7898001D01*
X16645414Y7893114D01*
X16669642Y7887188D01*
X16692560Y7880241D01*
X16714200Y7872290D01*
X16734591Y7863353D01*
X16753766Y7853447D01*
X16771754Y7842589D01*
X16788589Y7830798D01*
X16804299Y7818090D01*
X16818917Y7804483D01*
X16832473Y7789994D01*
X16844998Y7774640D01*
X16856524Y7758440D01*
X16867082Y7741410D01*
X16876701Y7723568D01*
X16885415Y7704931D01*
X16893253Y7685516D01*
X16900246Y7665342D01*
X16906427Y7644425D01*
X16911825Y7622783D01*
X16920398Y7577392D01*
X16926214Y7529310D01*
X16929522Y7478675D01*
X16930569Y7425627D01*
X16930569Y6706869D01*
X16609669Y6706869D01*
X16609669Y7366653D01*
X16609021Y7401549D01*
X16607033Y7434169D01*
X16603645Y7464516D01*
X16598795Y7492595D01*
X16592420Y7518408D01*
X16584459Y7541958D01*
X16579865Y7552886D01*
X16574850Y7563250D01*
X16569408Y7573050D01*
X16563531Y7582286D01*
X16557211Y7590959D01*
X16550440Y7599070D01*
X16543211Y7606619D01*
X16535516Y7613605D01*
X16527347Y7620031D01*
X16518696Y7625895D01*
X16509556Y7631199D01*
X16499918Y7635943D01*
X16489776Y7640127D01*
X16479121Y7643752D01*
X16467946Y7646818D01*
X16456243Y7649326D01*
X16444004Y7651275D01*
X16431222Y7652667D01*
X16417888Y7653502D01*
X16403996Y7653780D01*
X16387975Y7653494D01*
X16372534Y7652630D01*
X16357667Y7651181D01*
X16343371Y7649138D01*
X16329639Y7646495D01*
X16316469Y7643242D01*
X16303854Y7639372D01*
X16291791Y7634878D01*
X16280275Y7629751D01*
X16269301Y7623983D01*
X16258864Y7617567D01*
X16248960Y7610495D01*
X16239585Y7602760D01*
X16230733Y7594352D01*
X16222400Y7585265D01*
X16214582Y7575490D01*
X16207273Y7565019D01*
X16200470Y7553846D01*
X16194167Y7541961D01*
X16188359Y7529358D01*
X16183043Y7516028D01*
X16178214Y7501963D01*
X16173866Y7487155D01*
X16169996Y7471598D01*
X16166599Y7455282D01*
X16163669Y7438200D01*
X16161203Y7420344D01*
X16159196Y7401706D01*
X16157642Y7382279D01*
X16156539Y7362055D01*
X16155661Y7319182D01*
X16155661Y6706869D01*
X15834552Y6706869D01*
X15834552Y7875242D01*
X16139559Y7875242D01*
X16139559Y7712544D01*
X16146460Y7712544D01*
X16154247Y7724822D01*
X16162367Y7736679D01*
X16170808Y7748117D01*
X16179559Y7759138D01*
X16188608Y7769745D01*
X16197943Y7779939D01*
X16207554Y7789723D01*
X16217428Y7799098D01*
X16227555Y7808067D01*
X16237922Y7816631D01*
X16248518Y7824793D01*
X16259332Y7832554D01*
X16281566Y7846884D01*
X16304532Y7859636D01*
X16328137Y7870827D01*
X16352290Y7880474D01*
X16376898Y7888592D01*
X16401869Y7895197D01*
X16427111Y7900306D01*
X16452531Y7903936D01*
X16478038Y7906101D01*
X16503539Y7906820D01*
X16534782Y7906260D01*
G37*
G36*
X9832573Y7905945D02*
G01*
X9865132Y7903398D01*
X9896527Y7899213D01*
X9926763Y7893436D01*
X9955848Y7886115D01*
X9983787Y7877297D01*
X10010588Y7867031D01*
X10036257Y7855363D01*
X10060801Y7842341D01*
X10084226Y7828014D01*
X10106539Y7812428D01*
X10127746Y7795631D01*
X10147855Y7777670D01*
X10166871Y7758594D01*
X10184801Y7738450D01*
X10201653Y7717286D01*
X10217432Y7695148D01*
X10232145Y7672085D01*
X10245799Y7648145D01*
X10258400Y7623374D01*
X10269955Y7597821D01*
X10280471Y7571533D01*
X10289953Y7544557D01*
X10298410Y7516942D01*
X10305847Y7488735D01*
X10312271Y7459983D01*
X10322106Y7401036D01*
X10327969Y7340481D01*
X10329911Y7278701D01*
X10327924Y7220506D01*
X10321957Y7163191D01*
X10312005Y7107152D01*
X10298060Y7052785D01*
X10280117Y7000489D01*
X10258168Y6950658D01*
X10245690Y6926792D01*
X10232207Y6903691D01*
X10217720Y6881405D01*
X10202228Y6859983D01*
X10185729Y6839476D01*
X10168223Y6819932D01*
X10149709Y6801401D01*
X10130187Y6783934D01*
X10109654Y6767579D01*
X10088112Y6752385D01*
X10065558Y6738404D01*
X10041992Y6725683D01*
X10017413Y6714274D01*
X9991820Y6704225D01*
X9965213Y6695586D01*
X9937591Y6688406D01*
X9908952Y6682735D01*
X9879296Y6678624D01*
X9848623Y6676120D01*
X9816931Y6675275D01*
X9790379Y6675989D01*
X9764204Y6678123D01*
X9738457Y6681668D01*
X9713192Y6686613D01*
X9688462Y6692948D01*
X9664318Y6700661D01*
X9640814Y6709744D01*
X9618002Y6720184D01*
X9595935Y6731973D01*
X9574666Y6745098D01*
X9554247Y6759551D01*
X9534731Y6775321D01*
X9516172Y6792397D01*
X9498620Y6810768D01*
X9482130Y6830425D01*
X9466753Y6851357D01*
X9462048Y6851357D01*
X9462048Y6010156D01*
X9141148Y6295611D01*
X9141148Y7287693D01*
X9450860Y7287693D01*
X9451720Y7252258D01*
X9454362Y7217287D01*
X9458881Y7183033D01*
X9465369Y7149745D01*
X9473922Y7117676D01*
X9484633Y7087077D01*
X9497596Y7058200D01*
X9504951Y7044485D01*
X9512904Y7031295D01*
X9521467Y7018660D01*
X9530652Y7006614D01*
X9540470Y6995186D01*
X9550934Y6984408D01*
X9562054Y6974312D01*
X9573843Y6964929D01*
X9586312Y6956290D01*
X9599473Y6948428D01*
X9613338Y6941373D01*
X9627919Y6935156D01*
X9643227Y6929810D01*
X9659273Y6925365D01*
X9676071Y6921854D01*
X9693631Y6919306D01*
X9711965Y6917755D01*
X9731085Y6917231D01*
X9750374Y6917755D01*
X9768840Y6919306D01*
X9786499Y6921854D01*
X9803365Y6925365D01*
X9819450Y6929810D01*
X9834768Y6935156D01*
X9849334Y6941373D01*
X9863160Y6948428D01*
X9876261Y6956290D01*
X9888651Y6964929D01*
X9900342Y6974312D01*
X9911349Y6984408D01*
X9921686Y6995186D01*
X9931366Y7006614D01*
X9940402Y7018660D01*
X9948809Y7031295D01*
X9956601Y7044485D01*
X9963790Y7058200D01*
X9970391Y7072408D01*
X9976418Y7087077D01*
X9981883Y7102177D01*
X9986802Y7117676D01*
X9991187Y7133543D01*
X9995052Y7149745D01*
X10001278Y7183033D01*
X10005589Y7217287D01*
X10008095Y7252258D01*
X10008906Y7287693D01*
X10008020Y7322827D01*
X10005306Y7357735D01*
X10000681Y7392137D01*
X9994062Y7425749D01*
X9985366Y7458292D01*
X9974510Y7489482D01*
X9961411Y7519039D01*
X9953994Y7533116D01*
X9945986Y7546680D01*
X9937375Y7559695D01*
X9928152Y7572124D01*
X9918306Y7583935D01*
X9907826Y7595090D01*
X9896703Y7605555D01*
X9884925Y7615295D01*
X9872483Y7624275D01*
X9859366Y7632458D01*
X9845564Y7639811D01*
X9831066Y7646298D01*
X9815863Y7651883D01*
X9799942Y7656532D01*
X9783295Y7660209D01*
X9765911Y7662879D01*
X9747779Y7664507D01*
X9728890Y7665057D01*
X9709592Y7664513D01*
X9691115Y7662903D01*
X9673446Y7660261D01*
X9656572Y7656622D01*
X9640477Y7652019D01*
X9625149Y7646486D01*
X9610574Y7640057D01*
X9596738Y7632767D01*
X9583628Y7624649D01*
X9571230Y7615737D01*
X9559530Y7606066D01*
X9548514Y7595669D01*
X9538169Y7584580D01*
X9528481Y7572833D01*
X9519437Y7560463D01*
X9511022Y7547503D01*
X9503223Y7533988D01*
X9496027Y7519950D01*
X9489420Y7505425D01*
X9483387Y7490447D01*
X9477916Y7475048D01*
X9472992Y7459264D01*
X9468602Y7443129D01*
X9464732Y7426675D01*
X9458499Y7392952D01*
X9454182Y7358366D01*
X9451672Y7323189D01*
X9450860Y7287693D01*
X9141148Y7287693D01*
X9141148Y7820854D01*
X9446364Y7875226D01*
X9446364Y7726121D01*
X9450860Y7726121D01*
X9458412Y7737780D01*
X9466223Y7749017D01*
X9474290Y7759836D01*
X9482607Y7770240D01*
X9491170Y7780232D01*
X9499974Y7789816D01*
X9509015Y7798995D01*
X9518289Y7807773D01*
X9527791Y7816152D01*
X9537516Y7824137D01*
X9547460Y7831730D01*
X9557618Y7838936D01*
X9567986Y7845757D01*
X9578560Y7852197D01*
X9589334Y7858259D01*
X9600305Y7863947D01*
X9611467Y7869263D01*
X9622817Y7874213D01*
X9646060Y7883022D01*
X9669997Y7890402D01*
X9694593Y7896379D01*
X9719812Y7900980D01*
X9745617Y7904234D01*
X9771972Y7906166D01*
X9798842Y7906804D01*
X9832573Y7905945D01*
G37*
G36*
X11051587Y7906137D02*
G01*
X11096357Y7904012D01*
X11141279Y7900155D01*
X11185873Y7894307D01*
X11229659Y7886210D01*
X11272157Y7875606D01*
X11312886Y7862236D01*
X11351367Y7845841D01*
X11369614Y7836429D01*
X11387119Y7826164D01*
X11403821Y7815014D01*
X11419661Y7802946D01*
X11434579Y7789928D01*
X11448515Y7775928D01*
X11461408Y7760914D01*
X11473199Y7744852D01*
X11483828Y7727712D01*
X11493234Y7709461D01*
X11501358Y7690065D01*
X11508139Y7669494D01*
X11513518Y7647715D01*
X11517434Y7624695D01*
X11519828Y7600402D01*
X11520639Y7574804D01*
X11520639Y6966672D01*
X11521182Y6926983D01*
X11522861Y6887975D01*
X11525756Y6850336D01*
X11529945Y6814757D01*
X11532550Y6797955D01*
X11535507Y6781928D01*
X11538827Y6766760D01*
X11542519Y6752538D01*
X11546594Y6739348D01*
X11551060Y6727277D01*
X11555929Y6716411D01*
X11561209Y6706836D01*
X11236022Y6706836D01*
X11231864Y6720510D01*
X11227972Y6734377D01*
X11224397Y6748402D01*
X11221187Y6762554D01*
X11218395Y6776800D01*
X11216069Y6791105D01*
X11214260Y6805437D01*
X11213018Y6819763D01*
X11193480Y6800633D01*
X11172945Y6783053D01*
X11151483Y6766978D01*
X11129165Y6752366D01*
X11106059Y6739173D01*
X11082236Y6727355D01*
X11057764Y6716870D01*
X11032715Y6707673D01*
X11007157Y6699720D01*
X10981160Y6692969D01*
X10954794Y6687376D01*
X10928128Y6682898D01*
X10901233Y6679490D01*
X10874178Y6677110D01*
X10847032Y6675714D01*
X10819866Y6675258D01*
X10778544Y6676559D01*
X10738570Y6680480D01*
X10700126Y6687048D01*
X10663394Y6696290D01*
X10645727Y6701922D01*
X10628556Y6708233D01*
X10611904Y6715226D01*
X10595794Y6722905D01*
X10580248Y6731272D01*
X10565288Y6740332D01*
X10550939Y6750087D01*
X10537222Y6760541D01*
X10524161Y6771698D01*
X10511777Y6783561D01*
X10500095Y6796133D01*
X10489135Y6809417D01*
X10478922Y6823417D01*
X10469478Y6838137D01*
X10460825Y6853579D01*
X10452986Y6869748D01*
X10445985Y6886646D01*
X10439843Y6904277D01*
X10434584Y6922645D01*
X10430231Y6941752D01*
X10426805Y6961602D01*
X10424329Y6982198D01*
X10422828Y7003545D01*
X10422322Y7025645D01*
X10423069Y7039029D01*
X10743013Y7039029D01*
X10743283Y7028261D01*
X10744080Y7017986D01*
X10745392Y7008196D01*
X10747202Y6998879D01*
X10749496Y6990025D01*
X10752259Y6981626D01*
X10755476Y6973671D01*
X10759132Y6966149D01*
X10763213Y6959052D01*
X10767702Y6952368D01*
X10772587Y6946089D01*
X10777851Y6940203D01*
X10783479Y6934702D01*
X10789458Y6929575D01*
X10795771Y6924812D01*
X10802404Y6920403D01*
X10809343Y6916339D01*
X10816571Y6912609D01*
X10824075Y6909204D01*
X10831840Y6906113D01*
X10839850Y6903326D01*
X10848090Y6900834D01*
X10856546Y6898627D01*
X10865204Y6896694D01*
X10883061Y6893613D01*
X10901542Y6891510D01*
X10920530Y6890307D01*
X10939903Y6889924D01*
X10962709Y6890490D01*
X10984141Y6892150D01*
X11004241Y6894845D01*
X11023053Y6898516D01*
X11040619Y6903104D01*
X11056981Y6908550D01*
X11072183Y6914796D01*
X11086267Y6921782D01*
X11099275Y6929451D01*
X11111250Y6937742D01*
X11122235Y6946598D01*
X11132272Y6955959D01*
X11141404Y6965767D01*
X11149674Y6975963D01*
X11157123Y6986488D01*
X11163796Y6997283D01*
X11169734Y7008289D01*
X11174980Y7019448D01*
X11179577Y7030700D01*
X11183567Y7041988D01*
X11189897Y7064432D01*
X11194312Y7086310D01*
X11197152Y7107152D01*
X11198759Y7126487D01*
X11199635Y7158752D01*
X11199635Y7278685D01*
X11194377Y7274355D01*
X11188790Y7270281D01*
X11182885Y7266450D01*
X11176676Y7262851D01*
X11163398Y7256305D01*
X11149063Y7250553D01*
X11133775Y7245504D01*
X11117641Y7241070D01*
X11100767Y7237160D01*
X11083257Y7233684D01*
X10933002Y7210720D01*
X10914481Y7207135D01*
X10896289Y7203025D01*
X10878544Y7198298D01*
X10861366Y7192862D01*
X10844875Y7186627D01*
X10829190Y7179499D01*
X10814431Y7171389D01*
X10807437Y7166936D01*
X10800718Y7162203D01*
X10794291Y7157178D01*
X10788171Y7151851D01*
X10782371Y7146208D01*
X10776908Y7140240D01*
X10771796Y7133935D01*
X10767050Y7127280D01*
X10762685Y7120266D01*
X10758716Y7112879D01*
X10755157Y7105109D01*
X10752025Y7096945D01*
X10749334Y7088374D01*
X10747098Y7079386D01*
X10745334Y7069969D01*
X10744055Y7060111D01*
X10743276Y7049802D01*
X10743013Y7039029D01*
X10423069Y7039029D01*
X10424967Y7073065D01*
X10431905Y7115957D01*
X10442847Y7154570D01*
X10457502Y7189152D01*
X10475581Y7219954D01*
X10496795Y7247225D01*
X10520854Y7271214D01*
X10547468Y7292171D01*
X10576347Y7310345D01*
X10607202Y7325986D01*
X10639744Y7339342D01*
X10673681Y7350664D01*
X10708726Y7360201D01*
X10744588Y7368201D01*
X10817605Y7380593D01*
X10960700Y7397921D01*
X11026144Y7406848D01*
X11084429Y7418610D01*
X11110162Y7426178D01*
X11133237Y7435203D01*
X11153364Y7445934D01*
X11170253Y7458622D01*
X11183614Y7473515D01*
X11193158Y7490863D01*
X11198594Y7510915D01*
X11199635Y7533920D01*
X11199359Y7546307D01*
X11198540Y7558048D01*
X11197192Y7569162D01*
X11195330Y7579664D01*
X11192968Y7589571D01*
X11190120Y7598899D01*
X11186799Y7607665D01*
X11183021Y7615885D01*
X11178799Y7623576D01*
X11174147Y7630755D01*
X11169080Y7637437D01*
X11163612Y7643639D01*
X11157756Y7649379D01*
X11151528Y7654671D01*
X11144940Y7659533D01*
X11138008Y7663982D01*
X11130746Y7668033D01*
X11123167Y7671703D01*
X11115286Y7675009D01*
X11107117Y7677967D01*
X11098674Y7680594D01*
X11089971Y7682905D01*
X11081022Y7684919D01*
X11071842Y7686650D01*
X11052844Y7689333D01*
X11033090Y7691086D01*
X11012693Y7692042D01*
X10991766Y7692331D01*
X10969016Y7691739D01*
X10947405Y7689936D01*
X10926959Y7686884D01*
X10907706Y7682544D01*
X10898535Y7679879D01*
X10889672Y7676878D01*
X10881120Y7673534D01*
X10872882Y7669845D01*
X10864962Y7665804D01*
X10857364Y7661407D01*
X10850090Y7656649D01*
X10843144Y7651526D01*
X10836529Y7646031D01*
X10830249Y7640162D01*
X10824306Y7633911D01*
X10818705Y7627276D01*
X10813448Y7620250D01*
X10808538Y7612830D01*
X10803980Y7605009D01*
X10799776Y7596784D01*
X10795929Y7588150D01*
X10792444Y7579101D01*
X10789323Y7569632D01*
X10786569Y7559740D01*
X10784186Y7549418D01*
X10782178Y7538663D01*
X10780547Y7527468D01*
X10779296Y7515831D01*
X10458291Y7515831D01*
X10460714Y7543199D01*
X10464560Y7569382D01*
X10469781Y7594402D01*
X10476330Y7618279D01*
X10484160Y7641033D01*
X10493224Y7662686D01*
X10503475Y7683258D01*
X10514866Y7702769D01*
X10527349Y7721241D01*
X10540877Y7738695D01*
X10555403Y7755150D01*
X10570880Y7770627D01*
X10587261Y7785148D01*
X10604498Y7798733D01*
X10622544Y7811402D01*
X10641353Y7823177D01*
X10660877Y7834078D01*
X10681068Y7844125D01*
X10701880Y7853340D01*
X10723266Y7861744D01*
X10745178Y7869355D01*
X10767569Y7876197D01*
X10790391Y7882288D01*
X10813599Y7887651D01*
X10860980Y7896271D01*
X10909334Y7902224D01*
X10958283Y7905674D01*
X11007450Y7906787D01*
X11051587Y7906137D01*
G37*
G36*
X8513194Y7905750D02*
G01*
X8559793Y7902538D01*
X8605438Y7896977D01*
X8649843Y7888899D01*
X8692719Y7878134D01*
X8733780Y7864512D01*
X8772739Y7847864D01*
X8791341Y7838353D01*
X8809309Y7828021D01*
X8826609Y7816849D01*
X8843203Y7804813D01*
X8859057Y7791895D01*
X8874134Y7778071D01*
X8888398Y7763322D01*
X8901814Y7747626D01*
X8914346Y7730961D01*
X8925958Y7713307D01*
X8936613Y7694642D01*
X8946277Y7674946D01*
X8954912Y7654197D01*
X8962484Y7632373D01*
X8968957Y7609455D01*
X8974294Y7585419D01*
X8978459Y7560246D01*
X8981418Y7533915D01*
X8676411Y7533915D01*
X8675290Y7545308D01*
X8673680Y7556182D01*
X8671592Y7566548D01*
X8669039Y7576416D01*
X8666033Y7585797D01*
X8662585Y7594700D01*
X8658707Y7603136D01*
X8654412Y7611116D01*
X8649711Y7618649D01*
X8644617Y7625746D01*
X8639140Y7632416D01*
X8633293Y7638672D01*
X8627089Y7644522D01*
X8620538Y7649976D01*
X8613653Y7655046D01*
X8606446Y7659742D01*
X8598929Y7664073D01*
X8591113Y7668050D01*
X8583011Y7671684D01*
X8574634Y7674984D01*
X8565994Y7677962D01*
X8557104Y7680626D01*
X8547975Y7682988D01*
X8538620Y7685057D01*
X8519276Y7688361D01*
X8499168Y7690618D01*
X8478391Y7691913D01*
X8457040Y7692326D01*
X8443109Y7692173D01*
X8428588Y7691642D01*
X8413681Y7690624D01*
X8398594Y7689009D01*
X8383532Y7686691D01*
X8368702Y7683559D01*
X8354309Y7679505D01*
X8340558Y7674420D01*
X8333988Y7671457D01*
X8327656Y7668196D01*
X8321586Y7664622D01*
X8315806Y7660723D01*
X8310341Y7656484D01*
X8305216Y7651893D01*
X8300457Y7646935D01*
X8296090Y7641597D01*
X8292141Y7635866D01*
X8288635Y7629727D01*
X8285597Y7623168D01*
X8283055Y7616174D01*
X8281032Y7608732D01*
X8279556Y7600828D01*
X8278651Y7592449D01*
X8278344Y7583582D01*
X8278876Y7573085D01*
X8280447Y7563146D01*
X8283024Y7553740D01*
X8286573Y7544846D01*
X8291061Y7536440D01*
X8296452Y7528499D01*
X8302712Y7520999D01*
X8309809Y7513919D01*
X8317708Y7507235D01*
X8326374Y7500924D01*
X8335774Y7494962D01*
X8345874Y7489327D01*
X8356640Y7483997D01*
X8368037Y7478946D01*
X8380032Y7474154D01*
X8392591Y7469596D01*
X8419264Y7461093D01*
X8447782Y7453252D01*
X8477875Y7445890D01*
X8509271Y7438821D01*
X8574878Y7424828D01*
X8608547Y7417536D01*
X8642428Y7409800D01*
X8677468Y7401402D01*
X8712148Y7392241D01*
X8746206Y7382136D01*
X8779378Y7370903D01*
X8811404Y7358362D01*
X8842021Y7344331D01*
X8870966Y7328626D01*
X8897978Y7311068D01*
X8910676Y7301536D01*
X8922793Y7291473D01*
X8934296Y7280854D01*
X8945151Y7269659D01*
X8955326Y7257863D01*
X8964789Y7245445D01*
X8973506Y7232381D01*
X8981444Y7218648D01*
X8988571Y7204225D01*
X8994854Y7189087D01*
X9000261Y7173213D01*
X9004758Y7156580D01*
X9008313Y7139165D01*
X9010892Y7120945D01*
X9012464Y7101897D01*
X9012996Y7081999D01*
X9012216Y7053785D01*
X9009910Y7026771D01*
X9006127Y7000936D01*
X9000919Y6976261D01*
X8994334Y6952725D01*
X8986424Y6930309D01*
X8977238Y6908992D01*
X8966827Y6888756D01*
X8955239Y6869579D01*
X8942527Y6851442D01*
X8928739Y6834326D01*
X8913925Y6818209D01*
X8898137Y6803073D01*
X8881424Y6788897D01*
X8863835Y6775662D01*
X8845422Y6763347D01*
X8826234Y6751933D01*
X8806322Y6741399D01*
X8785735Y6731726D01*
X8764523Y6722895D01*
X8742738Y6714884D01*
X8720428Y6707674D01*
X8697644Y6701245D01*
X8674436Y6695578D01*
X8626948Y6686447D01*
X8578366Y6680122D01*
X8529090Y6676444D01*
X8479521Y6675254D01*
X8428817Y6676469D01*
X8378583Y6680221D01*
X8329187Y6686666D01*
X8280997Y6695958D01*
X8234381Y6708257D01*
X8189705Y6723716D01*
X8147338Y6742494D01*
X8127135Y6753175D01*
X8107647Y6764745D01*
X8088920Y6777223D01*
X8071000Y6790628D01*
X8053932Y6804979D01*
X8037764Y6820297D01*
X8022540Y6836601D01*
X8008307Y6853910D01*
X7995110Y6872244D01*
X7982996Y6891623D01*
X7972011Y6912066D01*
X7962200Y6933592D01*
X7953609Y6956221D01*
X7946285Y6979973D01*
X7940273Y7004868D01*
X7935620Y7030924D01*
X7932371Y7058161D01*
X7930572Y7086600D01*
X8235474Y7086600D01*
X8235828Y7073910D01*
X8236877Y7061680D01*
X8238598Y7049905D01*
X8240969Y7038581D01*
X8243968Y7027705D01*
X8247573Y7017274D01*
X8251762Y7007283D01*
X8256514Y6997729D01*
X8261805Y6988607D01*
X8267615Y6979916D01*
X8273920Y6971650D01*
X8280700Y6963806D01*
X8287931Y6956381D01*
X8295593Y6949371D01*
X8303662Y6942771D01*
X8312118Y6936580D01*
X8320937Y6930791D01*
X8330098Y6925403D01*
X8339579Y6920412D01*
X8349358Y6915813D01*
X8359413Y6911603D01*
X8369722Y6907778D01*
X8380263Y6904335D01*
X8391013Y6901270D01*
X8401951Y6898580D01*
X8413055Y6896260D01*
X8435672Y6892718D01*
X8458688Y6890614D01*
X8481926Y6889919D01*
X8499174Y6890352D01*
X8516895Y6891689D01*
X8534869Y6893992D01*
X8552878Y6897320D01*
X8570703Y6901732D01*
X8588126Y6907288D01*
X8604927Y6914048D01*
X8620889Y6922072D01*
X8628486Y6926576D01*
X8635792Y6931419D01*
X8642778Y6936607D01*
X8649417Y6942149D01*
X8655682Y6948051D01*
X8661546Y6954322D01*
X8666981Y6960968D01*
X8671961Y6967997D01*
X8676456Y6975417D01*
X8680442Y6983235D01*
X8683888Y6991458D01*
X8686770Y7000095D01*
X8689059Y7009152D01*
X8690728Y7018636D01*
X8691749Y7028557D01*
X8692095Y7038920D01*
X8691699Y7047860D01*
X8690517Y7056456D01*
X8688555Y7064721D01*
X8685822Y7072668D01*
X8682326Y7080311D01*
X8678075Y7087663D01*
X8673077Y7094737D01*
X8667339Y7101545D01*
X8660869Y7108102D01*
X8653675Y7114420D01*
X8645766Y7120513D01*
X8637148Y7126393D01*
X8627831Y7132075D01*
X8617820Y7137570D01*
X8607126Y7142893D01*
X8595755Y7148056D01*
X8583715Y7153072D01*
X8571014Y7157955D01*
X8557660Y7162719D01*
X8543661Y7167375D01*
X8513760Y7176420D01*
X8481372Y7185195D01*
X8446561Y7193805D01*
X8409391Y7202357D01*
X8369923Y7210956D01*
X8328220Y7219706D01*
X8258440Y7236956D01*
X8224365Y7246684D01*
X8191182Y7257399D01*
X8159152Y7269291D01*
X8128536Y7282546D01*
X8099596Y7297354D01*
X8072593Y7313904D01*
X8059899Y7322890D01*
X8047788Y7332383D01*
X8036291Y7342405D01*
X8025442Y7352981D01*
X8015274Y7364133D01*
X8005818Y7375886D01*
X7997107Y7388262D01*
X7989175Y7401286D01*
X7982054Y7414981D01*
X7975776Y7429371D01*
X7970375Y7444479D01*
X7965882Y7460328D01*
X7962331Y7476943D01*
X7959754Y7494346D01*
X7958184Y7512562D01*
X7957653Y7531615D01*
X7958399Y7558946D01*
X7960605Y7585006D01*
X7964223Y7609820D01*
X7969205Y7633414D01*
X7975501Y7655816D01*
X7983064Y7677051D01*
X7991845Y7697147D01*
X8001796Y7716130D01*
X8012869Y7734027D01*
X8025015Y7750863D01*
X8038186Y7766666D01*
X8052334Y7781461D01*
X8067410Y7795277D01*
X8083366Y7808138D01*
X8100153Y7820073D01*
X8117724Y7831106D01*
X8136030Y7841265D01*
X8155022Y7850576D01*
X8174652Y7859066D01*
X8194873Y7866762D01*
X8215634Y7873689D01*
X8236889Y7879875D01*
X8258589Y7885346D01*
X8280685Y7890128D01*
X8325874Y7897733D01*
X8372069Y7902902D01*
X8418882Y7905848D01*
X8465928Y7906783D01*
X8513194Y7905750D01*
G37*
G36*
X14026502Y10216792D02*
G01*
X14047245Y10215374D01*
X14067459Y10212893D01*
X14087103Y10209461D01*
X14106133Y10205188D01*
X14124507Y10200182D01*
X14142182Y10194555D01*
X14159116Y10188416D01*
X14175266Y10181876D01*
X14190589Y10175045D01*
X14205043Y10168032D01*
X14231174Y10153901D01*
X14253318Y10140366D01*
X14271134Y10128306D01*
X14284282Y10118602D01*
X14295208Y10109782D01*
X14289365Y10111039D01*
X14273298Y10113623D01*
X14262117Y10114856D01*
X14249205Y10115753D01*
X14234835Y10116092D01*
X14219283Y10115650D01*
X14202823Y10114204D01*
X14185730Y10111533D01*
X14168278Y10107412D01*
X14159503Y10104739D01*
X14150741Y10101621D01*
X14142027Y10098029D01*
X14133396Y10093936D01*
X14124880Y10089313D01*
X14116515Y10084134D01*
X14108335Y10078370D01*
X14100374Y10071994D01*
X14092667Y10064977D01*
X14085248Y10057292D01*
X14076096Y10046637D01*
X14068003Y10035799D01*
X14061014Y10024763D01*
X14055175Y10013513D01*
X14052701Y10007803D01*
X14050533Y10002035D01*
X14048675Y9996206D01*
X14047133Y9990315D01*
X14045914Y9984359D01*
X14045022Y9978337D01*
X14044465Y9972247D01*
X14044247Y9966087D01*
X14044374Y9959856D01*
X14044852Y9953551D01*
X14045686Y9947171D01*
X14046884Y9940713D01*
X14048449Y9934177D01*
X14050389Y9927559D01*
X14052708Y9920859D01*
X14055413Y9914074D01*
X14058510Y9907203D01*
X14062003Y9900244D01*
X14065900Y9893195D01*
X14070205Y9886054D01*
X14074924Y9878819D01*
X14080064Y9871488D01*
X14091626Y9856533D01*
X14102303Y9844277D01*
X14114087Y9832129D01*
X14126842Y9820204D01*
X14140429Y9808616D01*
X14154712Y9797478D01*
X14169552Y9786904D01*
X14184813Y9777008D01*
X14200358Y9767904D01*
X14216048Y9759705D01*
X14231746Y9752525D01*
X14247316Y9746479D01*
X14262619Y9741680D01*
X14277519Y9738241D01*
X14284774Y9737068D01*
X14291877Y9736277D01*
X14298811Y9735883D01*
X14305557Y9735901D01*
X14312100Y9736345D01*
X14318421Y9737228D01*
X14326971Y9739176D01*
X14334818Y9741716D01*
X14341991Y9744807D01*
X14348518Y9748405D01*
X14354427Y9752468D01*
X14359746Y9756951D01*
X14364504Y9761813D01*
X14368730Y9767010D01*
X14372450Y9772499D01*
X14375695Y9778238D01*
X14378491Y9784184D01*
X14380867Y9790293D01*
X14382851Y9796522D01*
X14384473Y9802830D01*
X14385759Y9809172D01*
X14386739Y9815505D01*
X14387891Y9827977D01*
X14388156Y9839899D01*
X14387759Y9850931D01*
X14386927Y9860727D01*
X14385886Y9868944D01*
X14384862Y9875238D01*
X14383772Y9880686D01*
X14401187Y9873968D01*
X14418685Y9865062D01*
X14436173Y9854046D01*
X14453553Y9841000D01*
X14487611Y9809137D01*
X14520094Y9770109D01*
X14550240Y9724551D01*
X14577284Y9673099D01*
X14600462Y9616389D01*
X14619010Y9555055D01*
X14632164Y9489734D01*
X14636480Y9455777D01*
X14639160Y9421062D01*
X14640110Y9385668D01*
X14639235Y9349674D01*
X14636437Y9313160D01*
X14631623Y9276205D01*
X14624696Y9238889D01*
X14615561Y9201292D01*
X14604123Y9163492D01*
X14590286Y9125569D01*
X14573954Y9087604D01*
X14555033Y9049674D01*
X14533425Y9011859D01*
X14509037Y8974240D01*
X14481364Y8936217D01*
X14452087Y8900126D01*
X14421190Y8866070D01*
X14388651Y8834150D01*
X14354451Y8804469D01*
X14318573Y8777129D01*
X14280995Y8752232D01*
X14241699Y8729879D01*
X14200665Y8710173D01*
X14157875Y8693216D01*
X14113308Y8679109D01*
X14066947Y8667956D01*
X14018770Y8659857D01*
X13968759Y8654914D01*
X13916895Y8653231D01*
X13863159Y8654908D01*
X13848955Y8655759D01*
X13835222Y8655907D01*
X13821929Y8655366D01*
X13809045Y8654148D01*
X13796540Y8652267D01*
X13784383Y8649735D01*
X13772543Y8646565D01*
X13760991Y8642769D01*
X13749694Y8638362D01*
X13738623Y8633355D01*
X13727747Y8627761D01*
X13717036Y8621593D01*
X13695984Y8607587D01*
X13675222Y8591439D01*
X13654506Y8573253D01*
X13633590Y8553130D01*
X13612229Y8531174D01*
X13590179Y8507486D01*
X13490187Y8397477D01*
X13441108Y8344215D01*
X13394986Y8292791D01*
X13352928Y8244828D01*
X13316039Y8201947D01*
X13285423Y8165771D01*
X13262186Y8137922D01*
X13242270Y8113696D01*
X13242270Y9172699D01*
X13241870Y9193699D01*
X13242032Y9213913D01*
X13242741Y9233356D01*
X13243983Y9252045D01*
X13245744Y9269995D01*
X13248008Y9287222D01*
X13250762Y9303742D01*
X13253991Y9319572D01*
X13257681Y9334727D01*
X13261816Y9349222D01*
X13266383Y9363075D01*
X13271366Y9376301D01*
X13276752Y9388916D01*
X13282526Y9400936D01*
X13288673Y9412377D01*
X13295179Y9423255D01*
X13302029Y9433585D01*
X13309209Y9443385D01*
X13316705Y9452669D01*
X13324501Y9461455D01*
X13332583Y9469756D01*
X13340937Y9477591D01*
X13349549Y9484975D01*
X13358403Y9491923D01*
X13367485Y9498451D01*
X13376781Y9504576D01*
X13386277Y9510314D01*
X13395956Y9515681D01*
X13415812Y9525363D01*
X13436233Y9533751D01*
X13447694Y9537837D01*
X13459031Y9541427D01*
X13470228Y9544546D01*
X13481270Y9547216D01*
X13492140Y9549462D01*
X13502824Y9551308D01*
X13513304Y9552778D01*
X13523566Y9553896D01*
X13533594Y9554687D01*
X13543372Y9555173D01*
X13552885Y9555380D01*
X13562116Y9555330D01*
X13571050Y9555049D01*
X13579671Y9554560D01*
X13595912Y9553055D01*
X13610713Y9551007D01*
X13623949Y9548609D01*
X13635493Y9546052D01*
X13645221Y9543529D01*
X13653006Y9541232D01*
X13658722Y9539353D01*
X13663446Y9537619D01*
X13648853Y9531672D01*
X13633339Y9524452D01*
X13624324Y9519842D01*
X13614772Y9514590D01*
X13604912Y9508712D01*
X13594970Y9502228D01*
X13585174Y9495154D01*
X13575751Y9487508D01*
X13566928Y9479309D01*
X13562813Y9475007D01*
X13558933Y9470573D01*
X13555318Y9466010D01*
X13551994Y9461319D01*
X13548991Y9456503D01*
X13546336Y9451565D01*
X13543743Y9445602D01*
X13541628Y9439432D01*
X13539990Y9433080D01*
X13538828Y9426566D01*
X13538141Y9419915D01*
X13537927Y9413149D01*
X13538185Y9406290D01*
X13538914Y9399362D01*
X13540112Y9392388D01*
X13541779Y9385390D01*
X13543912Y9378391D01*
X13546511Y9371413D01*
X13549574Y9364481D01*
X13553100Y9357616D01*
X13557088Y9350841D01*
X13561537Y9344180D01*
X13566445Y9337655D01*
X13571810Y9331288D01*
X13577632Y9325103D01*
X13583910Y9319123D01*
X13590642Y9313370D01*
X13597826Y9307867D01*
X13605462Y9302637D01*
X13613548Y9297702D01*
X13622083Y9293087D01*
X13631066Y9288812D01*
X13640495Y9284902D01*
X13650369Y9281379D01*
X13660687Y9278266D01*
X13671448Y9275586D01*
X13682650Y9273361D01*
X13694291Y9271614D01*
X13711491Y9269978D01*
X13728412Y9269511D01*
X13745001Y9270173D01*
X13761204Y9271924D01*
X13776969Y9274723D01*
X13792241Y9278529D01*
X13806968Y9283300D01*
X13821097Y9288997D01*
X13834573Y9295579D01*
X13847344Y9303005D01*
X13859357Y9311234D01*
X13870557Y9320225D01*
X13880892Y9329939D01*
X13890309Y9340333D01*
X13898753Y9351367D01*
X13906173Y9363001D01*
X13912513Y9375194D01*
X13917722Y9387904D01*
X13921745Y9401092D01*
X13924530Y9414717D01*
X13926023Y9428737D01*
X13926171Y9443112D01*
X13924921Y9457802D01*
X13922218Y9472765D01*
X13918010Y9487961D01*
X13912244Y9503349D01*
X13904866Y9518888D01*
X13895823Y9534538D01*
X13885061Y9550258D01*
X13872528Y9566007D01*
X13858169Y9581744D01*
X13841932Y9597429D01*
X13805499Y9632307D01*
X13772532Y9667694D01*
X13757418Y9685540D01*
X13743253Y9703467D01*
X13730067Y9721461D01*
X13717886Y9739505D01*
X13706739Y9757586D01*
X13696652Y9775687D01*
X13687654Y9793793D01*
X13679773Y9811890D01*
X13673036Y9829962D01*
X13667471Y9847994D01*
X13663106Y9865970D01*
X13659969Y9883876D01*
X13658087Y9901695D01*
X13657488Y9919414D01*
X13658200Y9937017D01*
X13660250Y9954489D01*
X13663667Y9971813D01*
X13668478Y9988977D01*
X13674711Y10005963D01*
X13682394Y10022757D01*
X13691554Y10039343D01*
X13702220Y10055707D01*
X13714418Y10071833D01*
X13728177Y10087706D01*
X13743525Y10103311D01*
X13760489Y10118633D01*
X13779097Y10133656D01*
X13799376Y10148365D01*
X13823061Y10163618D01*
X13846644Y10176708D01*
X13870082Y10187746D01*
X13893331Y10196842D01*
X13916351Y10204105D01*
X13939097Y10209647D01*
X13961528Y10213576D01*
X13983601Y10216003D01*
X14005273Y10217039D01*
X14026502Y10216792D01*
G37*
D11*
%TO.C,R4*%
X18937500Y23732258D02*
X18937500Y23257742D01*
X17892500Y23732258D02*
X17892500Y23257742D01*
%TO.C,R11*%
X17350000Y14524758D02*
X17350000Y14050242D01*
X16305000Y14524758D02*
X16305000Y14050242D01*
%TO.C,R3*%
X2777258Y6145000D02*
X2302742Y6145000D01*
X2777258Y7190000D02*
X2302742Y7190000D01*
%TO.C,R10*%
X18210000Y14050242D02*
X18210000Y14524758D01*
X19255000Y14050242D02*
X19255000Y14524758D01*
%TO.C,C10*%
X24957500Y18238080D02*
X24957500Y17956920D01*
X23937500Y18238080D02*
X23937500Y17956920D01*
%TO.C,R5*%
X18210000Y10875242D02*
X18210000Y11349758D01*
X19255000Y10875242D02*
X19255000Y11349758D01*
D10*
%TO.C,U6*%
X21160600Y19367500D02*
X22019400Y19367500D01*
X22019400Y16827500D02*
X21160600Y16827500D01*
X22298800Y18365900D02*
X22298800Y17829100D01*
D15*
X20674000Y19697700D02*
G75*
G02*
X20474000Y19697700I-100000J0D01*
G01*
X20474000Y19697700D02*
G75*
G02*
X20674000Y19697700I100000J0D01*
G01*
D10*
%TO.C,D5*%
X7947500Y10930000D02*
X9197500Y10930000D01*
X7947500Y11800000D02*
X7947500Y13600000D01*
X9197500Y11800000D02*
X9197500Y13600000D01*
D11*
%TO.C,C1*%
X19242500Y18238080D02*
X19242500Y17956920D01*
X18222500Y18238080D02*
X18222500Y17956920D01*
%TO.C,C11*%
X6173080Y16317500D02*
X5891920Y16317500D01*
X6173080Y17337500D02*
X5891920Y17337500D01*
D13*
%TO.C,kibuzzard-68B657FC*%
G36*
X13433906Y5785483D02*
G01*
X13473104Y5739131D01*
X13760372Y5145139D01*
X13775823Y5063881D01*
X13712303Y5007800D01*
X13627611Y4991205D01*
X13571531Y5057014D01*
X13518884Y5165740D01*
X13323176Y5165740D01*
X13237339Y5165740D01*
X13184692Y5055869D01*
X13127468Y4992350D01*
X13043920Y5008945D01*
X12979828Y5064453D01*
X12994707Y5145139D01*
X13090831Y5344281D01*
X13323176Y5344281D01*
X13430758Y5344281D01*
X13376967Y5455297D01*
X13323176Y5344281D01*
X13090831Y5344281D01*
X13281974Y5740275D01*
X13322031Y5784338D01*
X13378112Y5800933D01*
X13433906Y5785483D01*
G37*
G36*
X12634192Y5793637D02*
G01*
X12707439Y5771749D01*
X12774964Y5735268D01*
X12836767Y5684195D01*
X12888340Y5622965D01*
X12925179Y5556012D01*
X12947282Y5483337D01*
X12954649Y5404939D01*
X12947282Y5324431D01*
X12925179Y5250004D01*
X12888340Y5181656D01*
X12836767Y5119388D01*
X12774750Y5067564D01*
X12706581Y5030547D01*
X12632260Y5008337D01*
X12551788Y5000933D01*
X12462518Y5000933D01*
X12357225Y5000933D01*
X12299428Y5008945D01*
X12267954Y5033552D01*
X12255937Y5065597D01*
X12253076Y5106227D01*
X12253076Y5210376D01*
X12462518Y5210376D01*
X12555222Y5210376D01*
X12627611Y5224253D01*
X12689127Y5265883D01*
X12731187Y5327257D01*
X12745207Y5400361D01*
X12731187Y5473609D01*
X12689127Y5535411D01*
X12627325Y5577471D01*
X12554077Y5591491D01*
X12462518Y5591491D01*
X12462518Y5210376D01*
X12253076Y5210376D01*
X12253076Y5697929D01*
X12254793Y5736270D01*
X12265665Y5767743D01*
X12297711Y5793494D01*
X12358369Y5800933D01*
X12555222Y5800933D01*
X12634192Y5793637D01*
G37*
G36*
X11986918Y5805893D02*
G01*
X12059784Y5783003D01*
X12119170Y5744853D01*
X12160372Y5685912D01*
X12132904Y5615526D01*
X12065379Y5560018D01*
X11988698Y5581191D01*
X11975536Y5592064D01*
X11959514Y5605225D01*
X11937196Y5613809D01*
X11899428Y5617815D01*
X11857082Y5603509D01*
X11838770Y5568602D01*
X11858798Y5531406D01*
X11904006Y5511377D01*
X11973820Y5497071D01*
X12047067Y5479331D01*
X12111874Y5449574D01*
X12162089Y5406084D01*
X12194278Y5343995D01*
X12205007Y5258444D01*
X12200143Y5203795D01*
X12185551Y5154295D01*
X12135765Y5077042D01*
X12065379Y5026112D01*
X11986981Y4996928D01*
X11910873Y4988344D01*
X11846781Y4993494D01*
X11792990Y5006084D01*
X11748927Y5024968D01*
X11713448Y5046713D01*
X11685980Y5069031D01*
X11665951Y5089059D01*
X11653362Y5105082D01*
X11646495Y5113094D01*
X11617883Y5187486D01*
X11665951Y5260733D01*
X11713511Y5287184D01*
X11763106Y5279554D01*
X11814735Y5237843D01*
X11861087Y5196069D01*
X11906295Y5185197D01*
X11973820Y5201792D01*
X11994421Y5255011D01*
X11964664Y5290490D01*
X11874821Y5317386D01*
X11820315Y5332121D01*
X11776967Y5347715D01*
X11712876Y5384338D01*
X11667096Y5433552D01*
X11639628Y5495354D01*
X11630472Y5569746D01*
X11638992Y5635936D01*
X11664553Y5694114D01*
X11707153Y5744281D01*
X11762725Y5782749D01*
X11827198Y5805829D01*
X11900572Y5813523D01*
X11986918Y5805893D01*
G37*
%TO.C,kibuzzard-68B27630*%
G36*
X6698800Y2745557D02*
G01*
X6746951Y2707925D01*
X6886147Y2568730D01*
X6936828Y2507730D01*
X6973144Y2440458D01*
X6995096Y2366916D01*
X7002683Y2287101D01*
X6995854Y2207336D01*
X6974560Y2133945D01*
X6938800Y2066926D01*
X6888574Y2006281D01*
X6826437Y1954564D01*
X6758180Y1917564D01*
X6683802Y1895283D01*
X6603304Y1887722D01*
X6522806Y1894930D01*
X6448428Y1916957D01*
X6380171Y1953804D01*
X6318034Y2005472D01*
X6254910Y2068596D01*
X6180456Y2143049D01*
X6145252Y2189583D01*
X6141933Y2216694D01*
X6403008Y2216694D01*
X6468559Y2151142D01*
X6529558Y2109768D01*
X6602495Y2095706D01*
X6675633Y2109363D01*
X6737240Y2151142D01*
X6779120Y2212849D01*
X6793080Y2286292D01*
X6779120Y2359734D01*
X6737240Y2421441D01*
X6672497Y2486184D01*
X6403008Y2216694D01*
X6141933Y2216694D01*
X6140397Y2229237D01*
X6154560Y2260394D01*
X6181265Y2291147D01*
X6599662Y2709544D01*
X6627987Y2735441D01*
X6657930Y2750007D01*
X6698800Y2745557D01*
G37*
G36*
X6189106Y3190963D02*
G01*
X6264419Y3168000D01*
X6333561Y3130267D01*
X6396534Y3077765D01*
X6435581Y3032851D01*
X6471797Y2979033D01*
X6500323Y2922384D01*
X6516307Y2868972D01*
X6522781Y2830127D01*
X6520757Y2798160D01*
X6504977Y2767002D01*
X6441044Y2740296D01*
X6378932Y2738071D01*
X6338266Y2757292D01*
X6313178Y2819606D01*
X6288697Y2878076D01*
X6244389Y2933714D01*
X6181165Y2976909D01*
X6106407Y2991577D01*
X6031448Y2977314D01*
X5967616Y2933714D01*
X5922701Y2867758D01*
X5906111Y2788043D01*
X5918250Y2709139D01*
X5959523Y2645611D01*
X6008687Y2601708D01*
X6050972Y2575204D01*
X6120569Y2644802D01*
X6060683Y2704688D01*
X6040047Y2727752D01*
X6029526Y2751222D01*
X6034786Y2783997D01*
X6067157Y2824461D01*
X6107216Y2855619D01*
X6141206Y2859665D01*
X6165485Y2848335D01*
X6188548Y2827698D01*
X6330173Y2686074D01*
X6355665Y2649252D01*
X6364163Y2619714D01*
X6357688Y2593817D01*
X6343526Y2572371D01*
X6323698Y2551735D01*
X6157796Y2385833D01*
X6091840Y2358721D01*
X6046824Y2359430D01*
X5998369Y2370456D01*
X5936054Y2397702D01*
X5872122Y2440594D01*
X5806569Y2499131D01*
X5755838Y2560889D01*
X5720179Y2629628D01*
X5699593Y2705346D01*
X5694080Y2788044D01*
X5703539Y2871147D01*
X5727868Y2948078D01*
X5767067Y3018840D01*
X5821136Y3083430D01*
X5883046Y3134668D01*
X5951431Y3171035D01*
X6026289Y3192532D01*
X6107621Y3199157D01*
X6189106Y3190963D01*
G37*
%TO.C,kibuzzard-68B65C4A*%
G36*
X9514889Y10230483D02*
G01*
X9554088Y10184131D01*
X9841356Y9590139D01*
X9856806Y9508881D01*
X9793287Y9452800D01*
X9708594Y9436205D01*
X9652514Y9502014D01*
X9599868Y9610740D01*
X9404160Y9610740D01*
X9318323Y9610740D01*
X9265676Y9500869D01*
X9208451Y9437350D01*
X9124903Y9453945D01*
X9060812Y9509453D01*
X9075690Y9590139D01*
X9171814Y9789281D01*
X9404160Y9789281D01*
X9511742Y9789281D01*
X9457951Y9900297D01*
X9404160Y9789281D01*
X9171814Y9789281D01*
X9362958Y10185275D01*
X9403015Y10229338D01*
X9459095Y10245933D01*
X9514889Y10230483D01*
G37*
G36*
X10473687Y10244217D02*
G01*
X10504589Y10233344D01*
X10530340Y10201298D01*
X10538351Y10140640D01*
X10530340Y10080554D01*
X10504016Y10049081D01*
X10472543Y10038208D01*
X10433058Y10036491D01*
X10118323Y10036491D01*
X10118323Y9934632D01*
X10328909Y9934632D01*
X10366105Y9932915D01*
X10393573Y9923187D01*
X10415318Y9895719D01*
X10421613Y9843072D01*
X10415318Y9793287D01*
X10393001Y9766964D01*
X10364961Y9757808D01*
X10327765Y9756091D01*
X10118323Y9756091D01*
X10118323Y9548938D01*
X10116606Y9509453D01*
X10105733Y9478552D01*
X10073687Y9452800D01*
X10013029Y9444789D01*
X9953516Y9452800D01*
X9921470Y9479124D01*
X9910597Y9510597D01*
X9908881Y9550082D01*
X9908881Y10141785D01*
X9932343Y10223616D01*
X10016463Y10245933D01*
X10435347Y10245933D01*
X10473687Y10244217D01*
G37*
G36*
X11176406Y10244217D02*
G01*
X11207307Y10233344D01*
X11233058Y10201298D01*
X11241069Y10140640D01*
X11233058Y10081127D01*
X11206735Y10049081D01*
X11175261Y10038208D01*
X11135776Y10036491D01*
X10819896Y10036491D01*
X10819896Y9934632D01*
X11031627Y9934632D01*
X11068823Y9932915D01*
X11096291Y9923759D01*
X11118036Y9896291D01*
X11124331Y9844217D01*
X11118036Y9793287D01*
X11095719Y9766964D01*
X11067107Y9757808D01*
X11029338Y9756091D01*
X10819896Y9756091D01*
X10819896Y9654231D01*
X11136921Y9654231D01*
X11176406Y9652514D01*
X11207307Y9641642D01*
X11233058Y9609596D01*
X11241069Y9548938D01*
X11233058Y9489424D01*
X11206735Y9457378D01*
X11175261Y9446506D01*
X11135776Y9444789D01*
X10714603Y9444789D01*
X10655089Y9452800D01*
X10623044Y9479124D01*
X10612171Y9510597D01*
X10610454Y9550082D01*
X10610454Y10141785D01*
X10633916Y10223616D01*
X10718036Y10245933D01*
X11136921Y10245933D01*
X11176406Y10244217D01*
G37*
G36*
X8817544Y10250893D02*
G01*
X8890410Y10228003D01*
X8949796Y10189853D01*
X8990998Y10130912D01*
X8963530Y10060526D01*
X8896005Y10005018D01*
X8819324Y10026191D01*
X8806162Y10037064D01*
X8790139Y10050225D01*
X8767822Y10058809D01*
X8730054Y10062815D01*
X8687707Y10048509D01*
X8669396Y10013602D01*
X8689424Y9976406D01*
X8734632Y9956377D01*
X8804446Y9942071D01*
X8877693Y9924331D01*
X8942500Y9894574D01*
X8992715Y9851084D01*
X9024903Y9788995D01*
X9035633Y9703444D01*
X9030769Y9648795D01*
X9016177Y9599295D01*
X8966391Y9522042D01*
X8896005Y9471112D01*
X8817607Y9441928D01*
X8741499Y9433344D01*
X8677407Y9438494D01*
X8623616Y9451084D01*
X8579553Y9469968D01*
X8544074Y9491713D01*
X8516606Y9514031D01*
X8496577Y9534059D01*
X8483988Y9550082D01*
X8477121Y9558094D01*
X8448509Y9632486D01*
X8496577Y9705733D01*
X8544137Y9732184D01*
X8593732Y9724554D01*
X8645361Y9682843D01*
X8691713Y9641069D01*
X8736921Y9630197D01*
X8804446Y9646792D01*
X8825046Y9700011D01*
X8795290Y9735490D01*
X8705447Y9762386D01*
X8650941Y9777121D01*
X8607593Y9792715D01*
X8543501Y9829338D01*
X8497722Y9878552D01*
X8470254Y9940354D01*
X8461098Y10014746D01*
X8469618Y10080936D01*
X8495178Y10139114D01*
X8537779Y10189281D01*
X8593350Y10227749D01*
X8657823Y10250829D01*
X8731198Y10258523D01*
X8817544Y10250893D01*
G37*
%TO.C,kibuzzard-68A543C6*%
G36*
X6248619Y8746416D02*
G01*
X6338033Y8683469D01*
X6330165Y8579034D01*
X6074084Y7840837D01*
X6029378Y7774313D01*
X5949621Y7752139D01*
X5888820Y7765014D01*
X5848763Y7797203D01*
X5830165Y7827246D01*
X5822296Y7847990D01*
X5687818Y8288619D01*
X5553340Y7849421D01*
X5507203Y7776459D01*
X5426016Y7752139D01*
X5354485Y7772883D01*
X5315858Y7810079D01*
X5302983Y7840837D01*
X5045472Y8579034D01*
X5039034Y8684900D01*
X5128448Y8744986D01*
X5235029Y8751423D01*
X5292969Y8663441D01*
X5441753Y8228534D01*
X5559063Y8656288D01*
X5602697Y8728176D01*
X5684957Y8752139D01*
X5726445Y8748562D01*
X5757918Y8736402D01*
X5780093Y8720665D01*
X5795830Y8702067D01*
X5805129Y8684185D01*
X5812282Y8666302D01*
X5816574Y8654857D01*
X5933884Y8225672D01*
X6082668Y8663441D01*
X6140608Y8752139D01*
X6248619Y8746416D01*
G37*
G36*
X4684599Y8746416D02*
G01*
X4745043Y8729249D01*
X4805129Y8701352D01*
X4862353Y8663441D01*
X4913319Y8612833D01*
X4954628Y8546845D01*
X4981989Y8469413D01*
X4991109Y8384471D01*
X4982167Y8299886D01*
X4955343Y8223526D01*
X4914392Y8158612D01*
X4863069Y8108362D01*
X4805129Y8070451D01*
X4744328Y8042554D01*
X4683348Y8025386D01*
X4624871Y8019664D01*
X4471795Y8019664D01*
X4471795Y7882325D01*
X4469649Y7832969D01*
X4456059Y7794342D01*
X4416001Y7762153D01*
X4340179Y7752139D01*
X4265787Y7762153D01*
X4225730Y7795057D01*
X4212139Y7834399D01*
X4209993Y7883755D01*
X4209993Y8281466D01*
X4471795Y8281466D01*
X4626302Y8281466D01*
X4697117Y8307217D01*
X4730737Y8385901D01*
X4699979Y8460293D01*
X4624871Y8490336D01*
X4471795Y8490336D01*
X4471795Y8281466D01*
X4209993Y8281466D01*
X4209993Y8621953D01*
X4212139Y8669878D01*
X4225730Y8709220D01*
X4265787Y8742124D01*
X4341609Y8752139D01*
X4626302Y8752139D01*
X4684599Y8746416D01*
G37*
G36*
X6893290Y8746416D02*
G01*
X6953197Y8729249D01*
X7012926Y8701352D01*
X7070508Y8663441D01*
X7121831Y8612833D01*
X7162783Y8546845D01*
X7189607Y8469413D01*
X7198548Y8384471D01*
X7184560Y8277333D01*
X7142595Y8184820D01*
X7072654Y8106931D01*
X7175658Y7969592D01*
X7214285Y7870880D01*
X7145615Y7786474D01*
X7044041Y7747132D01*
X6963927Y7813655D01*
X6810851Y8021094D01*
X6677804Y8021094D01*
X6677804Y7882325D01*
X6675658Y7832969D01*
X6662067Y7794342D01*
X6622010Y7762153D01*
X6546187Y7752139D01*
X6471795Y7762153D01*
X6431738Y7795057D01*
X6418147Y7834399D01*
X6416001Y7883755D01*
X6416001Y8281466D01*
X6677804Y8281466D01*
X6835172Y8281466D01*
X6903841Y8307217D01*
X6936745Y8385901D01*
X6905987Y8460293D01*
X6832310Y8490336D01*
X6677804Y8490336D01*
X6677804Y8281466D01*
X6416001Y8281466D01*
X6416001Y8621953D01*
X6418147Y8669878D01*
X6431738Y8709220D01*
X6471795Y8742124D01*
X6547618Y8752139D01*
X6835172Y8752139D01*
X6893290Y8746416D01*
G37*
%TO.C,kibuzzard-68B27532*%
G36*
X11298492Y3225864D02*
G01*
X11347049Y3188636D01*
X11508095Y3027590D01*
X11537837Y2991375D01*
X11562317Y2947472D01*
X11580526Y2897701D01*
X11591451Y2843883D01*
X11591653Y2786425D01*
X11577693Y2725729D01*
X11549369Y2666450D01*
X11506477Y2613240D01*
X11453570Y2570449D01*
X11395201Y2542427D01*
X11335315Y2528872D01*
X11277856Y2529480D01*
X11223634Y2540809D01*
X11173459Y2559423D01*
X11129252Y2584207D01*
X11092936Y2614049D01*
X11006343Y2700642D01*
X10928652Y2622951D01*
X10899519Y2596245D01*
X10869980Y2582083D01*
X10829111Y2586533D01*
X10780554Y2623760D01*
X10744136Y2671508D01*
X10740091Y2712781D01*
X10754657Y2742724D01*
X10781363Y2771858D01*
X10858245Y2848740D01*
X11154440Y2848740D01*
X11241842Y2761338D01*
X11296469Y2735845D01*
X11359997Y2761338D01*
X11384681Y2820820D01*
X11359188Y2880302D01*
X11272595Y2966895D01*
X11154440Y2848740D01*
X10858245Y2848740D01*
X11198951Y3189446D01*
X11227276Y3215343D01*
X11257219Y3229909D01*
X11298492Y3225864D01*
G37*
G36*
X11827490Y2682478D02*
G01*
X11889400Y2653209D01*
X11946724Y2606765D01*
X12002384Y2540315D01*
X12037723Y2472606D01*
X12052740Y2403637D01*
X12040196Y2332825D01*
X11971002Y2302476D01*
X11884005Y2310974D01*
X11844756Y2380168D01*
X11843136Y2397162D01*
X11841113Y2417799D01*
X11831403Y2439650D01*
X11807528Y2469188D01*
X11767469Y2489015D01*
X11729837Y2477281D01*
X11717698Y2436817D01*
X11735502Y2390688D01*
X11774752Y2331206D01*
X11814003Y2266869D01*
X11838787Y2200002D01*
X11843541Y2133742D01*
X11822399Y2067078D01*
X11769493Y1998998D01*
X11727410Y1963794D01*
X11682090Y1939111D01*
X11592261Y1919688D01*
X11506477Y1933446D01*
X11430404Y1968245D01*
X11370518Y2015993D01*
X11328841Y2064954D01*
X11299706Y2111891D01*
X11281902Y2156402D01*
X11272191Y2196867D01*
X11268549Y2232069D01*
X11268549Y2260394D01*
X11270977Y2280626D01*
X11271786Y2291146D01*
X11304157Y2363982D01*
X11389941Y2381786D01*
X11442274Y2366859D01*
X11471948Y2326395D01*
X11478961Y2260394D01*
X11482199Y2198080D01*
X11506476Y2158425D01*
X11565958Y2122412D01*
X11618157Y2145477D01*
X11622204Y2191606D01*
X11577693Y2274152D01*
X11549570Y2323113D01*
X11529946Y2364791D01*
X11510523Y2436008D01*
X11512951Y2503178D01*
X11537230Y2566302D01*
X11583359Y2625379D01*
X11636186Y2666157D01*
X11695398Y2689222D01*
X11760995Y2694572D01*
X11827490Y2682478D01*
G37*
%TO.C,kibuzzard-68B27525*%
G36*
X14309897Y2784402D02*
G01*
X14325678Y2701451D01*
X14312729Y2414967D01*
X14598404Y2428724D01*
X14681356Y2412944D01*
X14707657Y2329183D01*
X14686616Y2245018D01*
X14607307Y2220740D01*
X14302209Y2206982D01*
X14287642Y1902694D01*
X14263363Y1822575D01*
X14180008Y1803152D01*
X14096247Y1829454D01*
X14080466Y1912405D01*
X14094224Y2196461D01*
X13809359Y2183513D01*
X13726407Y2199293D01*
X13700106Y2283054D01*
X13719529Y2366410D01*
X13799647Y2390688D01*
X14103936Y2405255D01*
X14117693Y2710353D01*
X14142376Y2789257D01*
X14226137Y2810703D01*
X14309897Y2784402D01*
G37*
G36*
X13772941Y3291415D02*
G01*
X13821498Y3254188D01*
X13984163Y3091523D01*
X14013802Y3055409D01*
X14037979Y3011809D01*
X14055986Y2962241D01*
X14067113Y2908221D01*
X14067518Y2850561D01*
X14053355Y2790067D01*
X14024728Y2731091D01*
X13981735Y2677982D01*
X13913216Y2625289D01*
X13837143Y2596694D01*
X13753518Y2592199D01*
X13734096Y2456240D01*
X13700106Y2378549D01*
X13613513Y2369647D01*
X13533799Y2404851D01*
X13526111Y2487801D01*
X13556864Y2691740D01*
X13481601Y2767003D01*
X13403100Y2688503D01*
X13373967Y2661796D01*
X13344428Y2647634D01*
X13303559Y2652085D01*
X13255003Y2689312D01*
X13218585Y2737059D01*
X13214539Y2778332D01*
X13229106Y2808276D01*
X13255812Y2837410D01*
X13332693Y2914291D01*
X13628889Y2914291D01*
X13717910Y2825270D01*
X13771322Y2800992D01*
X13834446Y2826889D01*
X13859129Y2886371D01*
X13834446Y2945043D01*
X13747044Y3032446D01*
X13628889Y2914291D01*
X13332693Y2914291D01*
X13673399Y3254997D01*
X13701724Y3280894D01*
X13731668Y3295461D01*
X13772941Y3291415D01*
G37*
%TO.C,kibuzzard-68B65805*%
G36*
X18426066Y5788916D02*
G01*
X18458112Y5762593D01*
X18468984Y5731119D01*
X18470701Y5691634D01*
X18470701Y5101077D01*
X18468984Y5061592D01*
X18458112Y5030690D01*
X18426066Y5004939D01*
X18365408Y4996928D01*
X18306466Y5003222D01*
X18272704Y5027829D01*
X17976280Y5419245D01*
X17976280Y5101077D01*
X17974564Y5061592D01*
X17963691Y5030690D01*
X17931645Y5004939D01*
X17870987Y4996928D01*
X17812046Y5004939D01*
X17781144Y5030690D01*
X17770272Y5062164D01*
X17767983Y5102221D01*
X17767983Y5696212D01*
X17770272Y5734553D01*
X17781717Y5764882D01*
X17813190Y5789489D01*
X17873276Y5796928D01*
X17925351Y5790061D01*
X17954535Y5775755D01*
X17975136Y5752293D01*
X18261259Y5367743D01*
X18261259Y5696212D01*
X18263548Y5733981D01*
X18274993Y5764310D01*
X18307039Y5788916D01*
X18366552Y5796928D01*
X18426066Y5788916D01*
G37*
G36*
X17655250Y5796356D02*
G01*
X17686152Y5785483D01*
X17711903Y5753437D01*
X17719914Y5692779D01*
X17711903Y5633265D01*
X17685579Y5601220D01*
X17654106Y5590347D01*
X17614621Y5588630D01*
X17298741Y5588630D01*
X17298741Y5486770D01*
X17510472Y5486770D01*
X17547668Y5485054D01*
X17575136Y5475898D01*
X17596881Y5448430D01*
X17603176Y5396356D01*
X17596881Y5345426D01*
X17574564Y5319102D01*
X17545951Y5309946D01*
X17508183Y5308230D01*
X17298741Y5308230D01*
X17298741Y5206370D01*
X17615765Y5206370D01*
X17655250Y5204653D01*
X17686152Y5193780D01*
X17711903Y5161735D01*
X17719914Y5101077D01*
X17711903Y5041563D01*
X17685579Y5009517D01*
X17654106Y4998644D01*
X17614621Y4996928D01*
X17193448Y4996928D01*
X17133934Y5004939D01*
X17101888Y5031263D01*
X17091016Y5062736D01*
X17089299Y5102221D01*
X17089299Y5693923D01*
X17112761Y5775755D01*
X17196881Y5798072D01*
X17615765Y5798072D01*
X17655250Y5796356D01*
G37*
%TO.C,kibuzzard-68B65800*%
G36*
X16233419Y5889464D02*
G01*
X14246581Y5889464D01*
X14246581Y5984839D01*
X16233419Y5984839D01*
X16233419Y5889464D01*
G37*
G36*
X16179056Y5780928D02*
G01*
X16204807Y5771772D01*
X16226552Y5744877D01*
X16233419Y5694519D01*
X16226552Y5644162D01*
X16204235Y5617266D01*
X16177911Y5608110D01*
X16145293Y5606393D01*
X15987353Y5606393D01*
X15987353Y5082216D01*
X15985637Y5043875D01*
X15974764Y5013546D01*
X15942718Y4988368D01*
X15883205Y4980356D01*
X15824263Y4988368D01*
X15793362Y5014119D01*
X15783062Y5045020D01*
X15781345Y5083360D01*
X15781345Y5606393D01*
X15622260Y5606393D01*
X15589642Y5608110D01*
X15563891Y5617266D01*
X15542146Y5644162D01*
X15535279Y5695664D01*
X15542146Y5745449D01*
X15564464Y5771772D01*
X15590787Y5780928D01*
X15623405Y5782645D01*
X16146438Y5782645D01*
X16179056Y5780928D01*
G37*
G36*
X14628412Y5776923D02*
G01*
X14676338Y5763189D01*
X14724120Y5740871D01*
X14770186Y5710542D01*
X14811245Y5670056D01*
X14844006Y5617266D01*
X14865465Y5555320D01*
X14872618Y5487366D01*
X14861427Y5401656D01*
X14827856Y5327646D01*
X14771903Y5265335D01*
X14854306Y5155463D01*
X14885207Y5076494D01*
X14830272Y5008968D01*
X14749013Y4977495D01*
X14684921Y5030714D01*
X14562461Y5196665D01*
X14456023Y5196665D01*
X14456023Y5085649D01*
X14454306Y5046164D01*
X14443433Y5015263D01*
X14411388Y4989512D01*
X14350730Y4981501D01*
X14291216Y4989512D01*
X14259170Y5015835D01*
X14248298Y5047309D01*
X14246581Y5086794D01*
X14246581Y5404963D01*
X14456023Y5404963D01*
X14581917Y5404963D01*
X14636853Y5425564D01*
X14663176Y5488511D01*
X14638569Y5548024D01*
X14579628Y5572059D01*
X14456023Y5572059D01*
X14456023Y5404963D01*
X14246581Y5404963D01*
X14246581Y5677352D01*
X14248298Y5715692D01*
X14259170Y5747166D01*
X14291216Y5773489D01*
X14351874Y5781501D01*
X14581917Y5781501D01*
X14628412Y5776923D01*
G37*
G36*
X15283999Y5786460D02*
G01*
X15356865Y5763570D01*
X15416252Y5725421D01*
X15457454Y5666479D01*
X15429986Y5596093D01*
X15362461Y5540585D01*
X15285780Y5561758D01*
X15272618Y5572631D01*
X15256595Y5585793D01*
X15234278Y5594376D01*
X15196509Y5598382D01*
X15154163Y5584076D01*
X15135851Y5549169D01*
X15155880Y5511973D01*
X15201087Y5491944D01*
X15270901Y5477638D01*
X15344149Y5459898D01*
X15408956Y5430142D01*
X15459170Y5386651D01*
X15491359Y5324562D01*
X15502089Y5239011D01*
X15497225Y5184362D01*
X15482632Y5134863D01*
X15432847Y5057609D01*
X15362461Y5006679D01*
X15284063Y4977495D01*
X15207954Y4968911D01*
X15143863Y4974061D01*
X15090072Y4986651D01*
X15046009Y5005535D01*
X15010529Y5027280D01*
X14983062Y5049598D01*
X14963033Y5069627D01*
X14950443Y5085649D01*
X14943577Y5093661D01*
X14914964Y5168053D01*
X14963033Y5241300D01*
X15010593Y5267751D01*
X15060188Y5260121D01*
X15111817Y5218411D01*
X15158169Y5176637D01*
X15203376Y5165764D01*
X15270901Y5182359D01*
X15291502Y5235578D01*
X15261745Y5271057D01*
X15171903Y5297953D01*
X15117396Y5312688D01*
X15074049Y5328282D01*
X15009957Y5364906D01*
X14964177Y5414119D01*
X14936710Y5475921D01*
X14927554Y5550313D01*
X14936074Y5616503D01*
X14961634Y5674681D01*
X15004235Y5724848D01*
X15059806Y5763316D01*
X15124279Y5786397D01*
X15197654Y5794090D01*
X15283999Y5786460D01*
G37*
%TO.C,kibuzzard-68B657F6*%
G36*
X10729957Y5789489D02*
G01*
X10762003Y5763165D01*
X10772876Y5731692D01*
X10774592Y5692207D01*
X10774592Y5174896D01*
X11053848Y5174896D01*
X11086466Y5173180D01*
X11112790Y5164024D01*
X11135107Y5137128D01*
X11141974Y5085626D01*
X11135107Y5035268D01*
X11112790Y5007800D01*
X11085322Y4998072D01*
X11052704Y4996356D01*
X10669299Y4996356D01*
X10609785Y5004367D01*
X10577740Y5030690D01*
X10566867Y5062164D01*
X10565150Y5101649D01*
X10565150Y5693351D01*
X10566867Y5731692D01*
X10577740Y5763165D01*
X10609785Y5789489D01*
X10670443Y5797500D01*
X10729957Y5789489D01*
G37*
G36*
X9551639Y5802459D02*
G01*
X9624505Y5779570D01*
X9683891Y5741420D01*
X9725093Y5682479D01*
X9697625Y5612092D01*
X9630100Y5556584D01*
X9553419Y5577758D01*
X9540258Y5588630D01*
X9524235Y5601792D01*
X9501917Y5610376D01*
X9464149Y5614381D01*
X9421803Y5600075D01*
X9403491Y5565168D01*
X9423519Y5527972D01*
X9468727Y5507943D01*
X9538541Y5493637D01*
X9611788Y5475898D01*
X9676595Y5446141D01*
X9726810Y5402650D01*
X9758999Y5340562D01*
X9769728Y5255011D01*
X9764864Y5200361D01*
X9750272Y5150862D01*
X9700486Y5073609D01*
X9630100Y5022679D01*
X9551702Y4993494D01*
X9475594Y4984911D01*
X9411502Y4990061D01*
X9357711Y5002650D01*
X9313648Y5021534D01*
X9278169Y5043280D01*
X9250701Y5065597D01*
X9230672Y5085626D01*
X9218083Y5101649D01*
X9211216Y5109660D01*
X9182604Y5184052D01*
X9230672Y5257300D01*
X9278232Y5283750D01*
X9327827Y5276120D01*
X9379456Y5234410D01*
X9425808Y5192636D01*
X9471016Y5181763D01*
X9538541Y5198358D01*
X9559142Y5251577D01*
X9529385Y5287057D01*
X9439542Y5313952D01*
X9385036Y5328687D01*
X9341688Y5344281D01*
X9277597Y5380905D01*
X9231817Y5430118D01*
X9204349Y5491921D01*
X9195193Y5566313D01*
X9203713Y5632502D01*
X9229274Y5690681D01*
X9271874Y5740848D01*
X9327446Y5779315D01*
X9391919Y5802396D01*
X9465293Y5810089D01*
X9551639Y5802459D01*
G37*
G36*
X10287674Y5798390D02*
G01*
X10357870Y5777026D01*
X10430100Y5741420D01*
X10461001Y5719675D01*
X10482175Y5695640D01*
X10493047Y5661305D01*
X10467868Y5597214D01*
X10424950Y5550862D01*
X10385465Y5535411D01*
X10323662Y5561735D01*
X10316223Y5566885D01*
X10306495Y5573180D01*
X10295622Y5579474D01*
X10280172Y5585197D01*
X10261860Y5589775D01*
X10238970Y5593780D01*
X10211502Y5594925D01*
X10146266Y5583480D01*
X10081602Y5549717D01*
X10030672Y5487343D01*
X10016080Y5444424D01*
X10011216Y5395783D01*
X10019943Y5333265D01*
X10046123Y5280762D01*
X10083176Y5240562D01*
X10124521Y5214954D01*
X10211502Y5196642D01*
X10271874Y5206084D01*
X10329385Y5234410D01*
X10386609Y5257300D01*
X10425522Y5240991D01*
X10466724Y5192064D01*
X10491903Y5125683D01*
X10475880Y5083909D01*
X10428956Y5049002D01*
X10361049Y5013396D01*
X10290091Y4992032D01*
X10216080Y4984911D01*
X10167582Y4988344D01*
X10115937Y4998644D01*
X10061860Y5017099D01*
X10006066Y5044996D01*
X9952418Y5081048D01*
X9904778Y5123966D01*
X9864006Y5176756D01*
X9830959Y5242421D01*
X9809070Y5318244D01*
X9801774Y5401506D01*
X9808927Y5481620D01*
X9830386Y5554868D01*
X9863004Y5618530D01*
X9903634Y5669889D01*
X9951273Y5711663D01*
X10004921Y5746570D01*
X10061001Y5773609D01*
X10115937Y5791778D01*
X10169013Y5802078D01*
X10219514Y5805511D01*
X10287674Y5798390D01*
G37*
%TO.C,kibuzzard-68B657DC*%
G36*
X6923004Y5789489D02*
G01*
X6955050Y5763165D01*
X6965923Y5731692D01*
X6967639Y5692207D01*
X6967639Y5100504D01*
X6965923Y5061019D01*
X6955050Y5030118D01*
X6923004Y5004367D01*
X6862346Y4996356D01*
X6802833Y5004367D01*
X6770787Y5030690D01*
X6759914Y5062164D01*
X6758197Y5101649D01*
X6758197Y5693351D01*
X6759914Y5731692D01*
X6770787Y5763165D01*
X6802833Y5789489D01*
X6863491Y5797500D01*
X6923004Y5789489D01*
G37*
G36*
X8427439Y5796928D02*
G01*
X8453190Y5787772D01*
X8474936Y5760876D01*
X8481803Y5710519D01*
X8474936Y5660161D01*
X8452618Y5633265D01*
X8426295Y5624109D01*
X8393677Y5622393D01*
X8235737Y5622393D01*
X8235737Y5098215D01*
X8234020Y5059875D01*
X8223147Y5029546D01*
X8191102Y5004367D01*
X8131588Y4996356D01*
X8072647Y5004367D01*
X8041745Y5030118D01*
X8031445Y5061019D01*
X8029728Y5099360D01*
X8029728Y5622393D01*
X7870644Y5622393D01*
X7838026Y5624109D01*
X7812275Y5633265D01*
X7790529Y5660161D01*
X7783662Y5711663D01*
X7790529Y5761448D01*
X7812847Y5787772D01*
X7839170Y5796928D01*
X7871788Y5798644D01*
X8394821Y5798644D01*
X8427439Y5796928D01*
G37*
G36*
X7689814Y5788344D02*
G01*
X7721860Y5762021D01*
X7732732Y5730547D01*
X7734449Y5691062D01*
X7734449Y5100504D01*
X7732732Y5061019D01*
X7721860Y5030118D01*
X7689814Y5004367D01*
X7629156Y4996356D01*
X7570215Y5002650D01*
X7536452Y5027257D01*
X7240029Y5418673D01*
X7240029Y5100504D01*
X7238312Y5061019D01*
X7227439Y5030118D01*
X7195393Y5004367D01*
X7134735Y4996356D01*
X7075794Y5004367D01*
X7044893Y5030118D01*
X7034020Y5061592D01*
X7031731Y5101649D01*
X7031731Y5695640D01*
X7034020Y5733981D01*
X7045465Y5764310D01*
X7076938Y5788916D01*
X7137024Y5796356D01*
X7189099Y5789489D01*
X7218283Y5775182D01*
X7238884Y5751720D01*
X7525007Y5367171D01*
X7525007Y5695640D01*
X7527296Y5733408D01*
X7538741Y5763737D01*
X7570787Y5788344D01*
X7630300Y5796356D01*
X7689814Y5788344D01*
G37*
%TO.C,kibuzzard-68B2766E*%
G36*
X16872557Y2761742D02*
G01*
X16888337Y2678791D01*
X16875389Y2392307D01*
X17161064Y2406064D01*
X17244016Y2390284D01*
X17270317Y2306523D01*
X17249275Y2222358D01*
X17169967Y2198080D01*
X16864869Y2184322D01*
X16850302Y1880034D01*
X16826023Y1799915D01*
X16742668Y1780492D01*
X16658907Y1806794D01*
X16643126Y1889745D01*
X16656884Y2173801D01*
X16372018Y2160854D01*
X16289067Y2176634D01*
X16262766Y2260394D01*
X16282188Y2343750D01*
X16362307Y2368029D01*
X16666595Y2382596D01*
X16680353Y2687693D01*
X16705036Y2766598D01*
X16788796Y2788044D01*
X16872557Y2761742D01*
G37*
G36*
X16303230Y3311647D02*
G01*
X16327508Y3289796D01*
X16697347Y2919956D01*
X16719198Y2895678D01*
X16730933Y2870995D01*
X16727291Y2836600D01*
X16696539Y2796137D01*
X16656075Y2765384D01*
X16621275Y2762147D01*
X16596188Y2774286D01*
X16571910Y2796137D01*
X16460230Y2907817D01*
X16089580Y2537167D01*
X16061255Y2511271D01*
X16032122Y2497513D01*
X15991657Y2502368D01*
X15943910Y2538787D01*
X15907897Y2586129D01*
X15904256Y2626188D01*
X15918822Y2655322D01*
X15944719Y2683647D01*
X16314559Y3053488D01*
X16202070Y3165977D01*
X16180219Y3190255D01*
X16168484Y3214938D01*
X16172127Y3249332D01*
X16203688Y3290605D01*
X16243747Y3320953D01*
X16278142Y3323786D01*
X16303230Y3311647D01*
G37*
%TO.C,kibuzzard-68B2754E*%
G36*
X9167987Y2809085D02*
G01*
X9240823Y2760528D01*
X9231920Y2677173D01*
X9044977Y2234497D01*
X9487652Y2421441D01*
X9571412Y2429128D01*
X9619564Y2357508D01*
X9627253Y2272129D01*
X9562106Y2225596D01*
X8948672Y1995760D01*
X8891213Y1994142D01*
X8838611Y2024895D01*
X8803407Y2080330D01*
X8806240Y2138193D01*
X9036075Y2751626D01*
X9084227Y2815964D01*
X9167987Y2809085D01*
G37*
G36*
X8706294Y3216557D02*
G01*
X8746758Y3209273D01*
X8790864Y3193493D01*
X8837801Y3165976D01*
X8886358Y3124704D01*
X8939096Y3059736D01*
X8971063Y2991083D01*
X8982258Y2918742D01*
X8975469Y2849459D01*
X8953483Y2789977D01*
X8916302Y2740296D01*
X8843062Y2694977D01*
X8760920Y2696595D01*
X8762539Y2607575D01*
X8746556Y2558815D01*
X8713172Y2514507D01*
X8653915Y2469008D01*
X8587285Y2443651D01*
X8513281Y2438436D01*
X8438018Y2453003D01*
X8367611Y2486992D01*
X8302059Y2540404D01*
X8252828Y2601775D01*
X8220592Y2670429D01*
X8205351Y2746366D01*
X8207734Y2820685D01*
X8228370Y2884483D01*
X8267261Y2937760D01*
X8325731Y2955767D01*
X8399173Y2907817D01*
X8434781Y2854404D01*
X8420214Y2792900D01*
X8417381Y2786830D01*
X8413740Y2771049D01*
X8413740Y2746771D01*
X8423451Y2717637D01*
X8447729Y2684456D01*
X8510853Y2646420D01*
X8563456Y2660987D01*
X8583081Y2711770D01*
X8548080Y2770240D01*
X8525824Y2792495D01*
X8510853Y2814750D01*
X8502760Y2843074D01*
X8514090Y2873827D01*
X8544843Y2914291D01*
X8590566Y2949495D01*
X8628603Y2953541D01*
X8656118Y2939783D01*
X8683229Y2915100D01*
X8688895Y2909435D01*
X8731786Y2877064D01*
X8764158Y2885966D01*
X8778724Y2927240D01*
X8752018Y2974178D01*
X8709126Y3000884D01*
X8661379Y3000074D01*
X8603381Y2991353D01*
X8559949Y3015900D01*
X8531085Y3073719D01*
X8535536Y3158289D01*
X8603111Y3202394D01*
X8607157Y3204013D01*
X8620510Y3208463D01*
X8641956Y3213724D01*
X8671090Y3216961D01*
X8706294Y3216557D01*
G37*
%TD*%
M02*
