%TF.GenerationSoftware,KiCad,Pcbnew,9.0.1*%
%TF.CreationDate,2025-09-03T15:01:39-06:00*%
%TF.ProjectId,SparkFun_Qwiic_GNSS_SAM-M8Q,53706172-6b46-4756-9e5f-51776969635f,v10*%
%TF.SameCoordinates,Original*%
%TF.FileFunction,Copper,L3,Inr*%
%TF.FilePolarity,Positive*%
%FSLAX46Y46*%
G04 Gerber Fmt 4.6, Leading zero omitted, Abs format (unit mm)*
G04 Created by KiCad (PCBNEW 9.0.1) date 2025-09-03 15:01:39*
%MOMM*%
%LPD*%
G01*
G04 APERTURE LIST*
%TA.AperFunction,ComponentPad*%
%ADD10C,1.879600*%
%TD*%
%TA.AperFunction,ComponentPad*%
%ADD11O,1.000000X1.600000*%
%TD*%
%TA.AperFunction,ComponentPad*%
%ADD12O,1.000000X2.100000*%
%TD*%
%TA.AperFunction,ViaPad*%
%ADD13C,0.560000*%
%TD*%
%TA.AperFunction,Conductor*%
%ADD14C,0.177800*%
%TD*%
G04 APERTURE END LIST*
D10*
%TO.N,GND*%
%TO.C,J3*%
X7620000Y1270000D03*
%TD*%
D11*
%TO.N,unconnected-(J4-NC-PadNC1)*%
%TO.C,J4*%
X17018000Y24155000D03*
D12*
%TO.N,unconnected-(J4-NC-PadNC2)*%
X17018000Y19975000D03*
%TO.N,unconnected-(J4-NC-PadNC3)*%
X8382000Y19975000D03*
D11*
%TO.N,GND*%
X8382000Y24155000D03*
%TD*%
D13*
%TO.N,3.3V*%
X4445000Y18415000D03*
X4127500Y7302500D03*
X7620000Y16827500D03*
X11747500Y20955000D03*
X8572500Y13221300D03*
X20637500Y14932402D03*
X2540000Y20637500D03*
X24765000Y20320000D03*
X22225000Y12382500D03*
X3492500Y13652500D03*
%TO.N,GND*%
X18097500Y8890000D03*
X20955000Y16192500D03*
X5715000Y24447500D03*
X9207500Y21272500D03*
X21590000Y18097500D03*
X6032500Y7302500D03*
X16192500Y21272500D03*
X22860000Y16192500D03*
X3492500Y14605000D03*
X11747500Y16713800D03*
X9525000Y17780000D03*
X19300000Y16500000D03*
X21590000Y24765000D03*
X7620000Y8890000D03*
X17780000Y6350000D03*
X24447500Y8572500D03*
X4445000Y15557500D03*
X635000Y8255000D03*
X23926200Y12065000D03*
X8890000Y8255000D03*
X13335000Y13017500D03*
X4445000Y20320000D03*
X7620000Y15557500D03*
X6032500Y19050000D03*
X20637500Y8890000D03*
%TO.N,SDA*%
X3810000Y12065000D03*
X10795000Y8890000D03*
X10795000Y12065000D03*
X21906404Y13019692D03*
%TO.N,SCL*%
X3492500Y10477500D03*
X9842500Y11430000D03*
X21907500Y14200000D03*
%TO.N,Net-(JP1-A)*%
X1905000Y5397500D03*
%TO.N,VBUS*%
X10477500Y22542500D03*
X14980098Y22542500D03*
%TO.N,TX*%
X16827500Y9207500D03*
X16827500Y15944900D03*
%TO.N,V_BCKP*%
X8572500Y14922500D03*
X10477500Y13652500D03*
X6985000Y19050000D03*
%TO.N,RX*%
X17780000Y16192500D03*
X20637500Y20955000D03*
X19304400Y21272500D03*
%TO.N,Net-(U4-V3)*%
X9525000Y16510000D03*
X16193596Y16507808D03*
%TO.N,Net-(U1-RXD)*%
X15875000Y14605000D03*
%TO.N,Net-(U1-TXD)*%
X16192500Y12700000D03*
%TO.N,~{RST}*%
X12700000Y10795000D03*
X12700000Y17145000D03*
X15240000Y8890000D03*
%TO.N,Net-(JP2-C)*%
X3492500Y20637500D03*
%TO.N,Net-(JP2-A)*%
X1270000Y20637500D03*
%TO.N,Net-(JP3-A)*%
X24765000Y13970000D03*
%TO.N,Net-(JP4-A)*%
X15875000Y17145000D03*
%TO.N,Net-(JP5-A)*%
X16193596Y17782192D03*
%TO.N,EXTINT*%
X9525000Y15121300D03*
%TO.N,~{SAFE}*%
X7937500Y9842500D03*
%TD*%
D14*
%TO.N,TX*%
X16827500Y9207500D02*
X16827500Y15944900D01*
%TD*%
%TA.AperFunction,Conductor*%
%TO.N,GND*%
G36*
X7982604Y25303615D02*
G01*
X8028359Y25250811D01*
X8038303Y25181653D01*
X8009278Y25118097D01*
X7984456Y25096198D01*
X7901353Y25040671D01*
X7901349Y25040668D01*
X7796332Y24935651D01*
X7796329Y24935647D01*
X7713817Y24812160D01*
X7713812Y24812151D01*
X7656976Y24674935D01*
X7656974Y24674927D01*
X7628000Y24529267D01*
X7628000Y24358200D01*
X8082000Y24358200D01*
X8082000Y23951800D01*
X7628000Y23951800D01*
X7628000Y23780734D01*
X7656974Y23635074D01*
X7656976Y23635066D01*
X7713812Y23497850D01*
X7713817Y23497841D01*
X7796329Y23374354D01*
X7796332Y23374350D01*
X7901349Y23269333D01*
X7901353Y23269330D01*
X8024840Y23186818D01*
X8024850Y23186813D01*
X8162062Y23129978D01*
X8162071Y23129975D01*
X8178800Y23126648D01*
X8178800Y23633935D01*
X8197795Y23614940D01*
X8266204Y23575444D01*
X8342504Y23555000D01*
X8421496Y23555000D01*
X8497796Y23575444D01*
X8566205Y23614940D01*
X8585200Y23633935D01*
X8585200Y23126649D01*
X8601928Y23129975D01*
X8601937Y23129978D01*
X8739149Y23186813D01*
X8739159Y23186818D01*
X8862646Y23269330D01*
X8862650Y23269333D01*
X8967667Y23374350D01*
X8967670Y23374354D01*
X9050182Y23497841D01*
X9050187Y23497850D01*
X9107023Y23635066D01*
X9107025Y23635074D01*
X9135999Y23780734D01*
X9136000Y23780736D01*
X9136000Y23951800D01*
X8682000Y23951800D01*
X8682000Y24358200D01*
X9136000Y24358200D01*
X9136000Y24529265D01*
X9135999Y24529267D01*
X9107025Y24674927D01*
X9107023Y24674935D01*
X9050187Y24812151D01*
X9050182Y24812160D01*
X8967670Y24935647D01*
X8967667Y24935651D01*
X8862650Y25040668D01*
X8862646Y25040671D01*
X8779544Y25096198D01*
X8734739Y25149810D01*
X8726032Y25219135D01*
X8756186Y25282162D01*
X8815629Y25318882D01*
X8848435Y25323300D01*
X16718389Y25323300D01*
X16785428Y25303615D01*
X16831183Y25250811D01*
X16841127Y25181653D01*
X16812102Y25118097D01*
X16765841Y25084739D01*
X16696703Y25056102D01*
X16696701Y25056101D01*
X16585609Y24981871D01*
X16585605Y24981868D01*
X16491132Y24887395D01*
X16491129Y24887391D01*
X16416899Y24776299D01*
X16416898Y24776297D01*
X16365767Y24652855D01*
X16365765Y24652847D01*
X16339700Y24521810D01*
X16339700Y24521807D01*
X16339700Y23788193D01*
X16339700Y23788191D01*
X16339699Y23788191D01*
X16365765Y23657154D01*
X16365767Y23657146D01*
X16416898Y23533704D01*
X16416899Y23533702D01*
X16491129Y23422610D01*
X16491132Y23422606D01*
X16585605Y23328133D01*
X16585609Y23328130D01*
X16696704Y23253898D01*
X16820147Y23202767D01*
X16852237Y23196384D01*
X16951190Y23176700D01*
X16951193Y23176700D01*
X17084809Y23176700D01*
X17150777Y23189823D01*
X17215853Y23202767D01*
X17339296Y23253898D01*
X17450391Y23328130D01*
X17544870Y23422609D01*
X17619102Y23533704D01*
X17670233Y23657147D01*
X17686555Y23739204D01*
X17696300Y23788191D01*
X17696300Y24521810D01*
X17670234Y24652847D01*
X17670233Y24652853D01*
X17619102Y24776296D01*
X17544870Y24887391D01*
X17544867Y24887395D01*
X17450394Y24981868D01*
X17450390Y24981871D01*
X17339298Y25056101D01*
X17339296Y25056102D01*
X17270159Y25084739D01*
X17215755Y25128579D01*
X17193690Y25194873D01*
X17210969Y25262573D01*
X17262106Y25310184D01*
X17317611Y25323300D01*
X25199300Y25323300D01*
X25266339Y25303615D01*
X25312094Y25250811D01*
X25323300Y25199300D01*
X25323300Y20709197D01*
X25303615Y20642158D01*
X25250811Y20596403D01*
X25181653Y20586459D01*
X25118097Y20615484D01*
X25111619Y20621516D01*
X25046404Y20686731D01*
X25046403Y20686732D01*
X24941897Y20747068D01*
X24825336Y20778300D01*
X24704664Y20778300D01*
X24588103Y20747068D01*
X24588102Y20747068D01*
X24483598Y20686733D01*
X24483595Y20686731D01*
X24398269Y20601405D01*
X24398267Y20601402D01*
X24337932Y20496898D01*
X24337932Y20496897D01*
X24306700Y20380336D01*
X24306700Y20259664D01*
X24337932Y20143103D01*
X24398268Y20038597D01*
X24483597Y19953268D01*
X24588103Y19892932D01*
X24704664Y19861700D01*
X24704666Y19861700D01*
X24825334Y19861700D01*
X24825336Y19861700D01*
X24941897Y19892932D01*
X25046403Y19953268D01*
X25111619Y20018484D01*
X25172942Y20051969D01*
X25242634Y20046985D01*
X25298567Y20005113D01*
X25322984Y19939649D01*
X25323300Y19930803D01*
X25323300Y14359197D01*
X25303615Y14292158D01*
X25250811Y14246403D01*
X25181653Y14236459D01*
X25118097Y14265484D01*
X25111619Y14271516D01*
X25046404Y14336731D01*
X25046403Y14336732D01*
X24941897Y14397068D01*
X24825336Y14428300D01*
X24704664Y14428300D01*
X24588103Y14397068D01*
X24588102Y14397068D01*
X24483598Y14336733D01*
X24483595Y14336731D01*
X24398269Y14251405D01*
X24398267Y14251402D01*
X24337932Y14146898D01*
X24337932Y14146897D01*
X24306700Y14030336D01*
X24306700Y13909664D01*
X24337932Y13793103D01*
X24398268Y13688597D01*
X24483597Y13603268D01*
X24588103Y13542932D01*
X24704664Y13511700D01*
X24704666Y13511700D01*
X24825334Y13511700D01*
X24825336Y13511700D01*
X24941897Y13542932D01*
X25046403Y13603268D01*
X25111619Y13668484D01*
X25172942Y13701969D01*
X25242634Y13696985D01*
X25298567Y13655113D01*
X25322984Y13589649D01*
X25323300Y13580803D01*
X25323300Y200700D01*
X25303615Y133661D01*
X25250811Y87906D01*
X25199300Y76700D01*
X8390209Y76700D01*
X8323170Y96385D01*
X8277415Y149189D01*
X8267471Y218347D01*
X8296496Y281903D01*
X8317323Y301018D01*
X8397709Y359424D01*
X8397710Y359424D01*
X8530576Y492290D01*
X8530576Y492291D01*
X8641028Y644313D01*
X8726335Y811738D01*
X8784404Y990454D01*
X8796497Y1066800D01*
X8089271Y1066800D01*
X8093381Y1073919D01*
X8125903Y1195292D01*
X9401499Y1195292D01*
X9430647Y1048760D01*
X9430650Y1048750D01*
X9487822Y910723D01*
X9487829Y910710D01*
X9570834Y786485D01*
X9570837Y786481D01*
X9676480Y680838D01*
X9676484Y680835D01*
X9800709Y597830D01*
X9800722Y597823D01*
X9938749Y540651D01*
X9938754Y540649D01*
X9938758Y540649D01*
X9938759Y540648D01*
X10085291Y511500D01*
X10085294Y511500D01*
X10234708Y511500D01*
X10333292Y531111D01*
X10381246Y540649D01*
X10519284Y597826D01*
X10643516Y680835D01*
X10749165Y786484D01*
X10832174Y910716D01*
X10889351Y1048754D01*
X10903345Y1119106D01*
X10918500Y1195292D01*
X11941499Y1195292D01*
X11970647Y1048760D01*
X11970650Y1048750D01*
X12027822Y910723D01*
X12027829Y910710D01*
X12110834Y786485D01*
X12110837Y786481D01*
X12216480Y680838D01*
X12216484Y680835D01*
X12340709Y597830D01*
X12340722Y597823D01*
X12478749Y540651D01*
X12478754Y540649D01*
X12478758Y540649D01*
X12478759Y540648D01*
X12625291Y511500D01*
X12625294Y511500D01*
X12774708Y511500D01*
X12873292Y531111D01*
X12921246Y540649D01*
X13059284Y597826D01*
X13183516Y680835D01*
X13289165Y786484D01*
X13372174Y910716D01*
X13429351Y1048754D01*
X13443345Y1119106D01*
X13458500Y1195292D01*
X14481499Y1195292D01*
X14510647Y1048760D01*
X14510650Y1048750D01*
X14567822Y910723D01*
X14567829Y910710D01*
X14650834Y786485D01*
X14650837Y786481D01*
X14756480Y680838D01*
X14756484Y680835D01*
X14880709Y597830D01*
X14880722Y597823D01*
X15018749Y540651D01*
X15018754Y540649D01*
X15018758Y540649D01*
X15018759Y540648D01*
X15165291Y511500D01*
X15165294Y511500D01*
X15314708Y511500D01*
X15413292Y531111D01*
X15461246Y540649D01*
X15599284Y597826D01*
X15723516Y680835D01*
X15829165Y786484D01*
X15912174Y910716D01*
X15969351Y1048754D01*
X15983345Y1119106D01*
X15998500Y1195292D01*
X17021499Y1195292D01*
X17050647Y1048760D01*
X17050650Y1048750D01*
X17107822Y910723D01*
X17107829Y910710D01*
X17190834Y786485D01*
X17190837Y786481D01*
X17296480Y680838D01*
X17296484Y680835D01*
X17420709Y597830D01*
X17420722Y597823D01*
X17558749Y540651D01*
X17558754Y540649D01*
X17558758Y540649D01*
X17558759Y540648D01*
X17705291Y511500D01*
X17705294Y511500D01*
X17854708Y511500D01*
X17953292Y531111D01*
X18001246Y540649D01*
X18139284Y597826D01*
X18263516Y680835D01*
X18369165Y786484D01*
X18452174Y910716D01*
X18509351Y1048754D01*
X18523345Y1119106D01*
X18538500Y1195292D01*
X18538500Y1344709D01*
X18509352Y1491241D01*
X18509351Y1491242D01*
X18509351Y1491246D01*
X18490173Y1537546D01*
X18452177Y1629278D01*
X18452170Y1629291D01*
X18369165Y1753516D01*
X18369162Y1753520D01*
X18263519Y1859163D01*
X18263515Y1859166D01*
X18139290Y1942171D01*
X18139277Y1942178D01*
X18001250Y1999350D01*
X18001240Y1999353D01*
X17854708Y2028500D01*
X17854706Y2028500D01*
X17705294Y2028500D01*
X17705292Y2028500D01*
X17558759Y1999353D01*
X17558749Y1999350D01*
X17420722Y1942178D01*
X17420709Y1942171D01*
X17296484Y1859166D01*
X17296480Y1859163D01*
X17190837Y1753520D01*
X17190834Y1753516D01*
X17107829Y1629291D01*
X17107822Y1629278D01*
X17050650Y1491251D01*
X17050647Y1491241D01*
X17021500Y1344709D01*
X17021500Y1344706D01*
X17021500Y1195294D01*
X17021500Y1195292D01*
X17021499Y1195292D01*
X15998500Y1195292D01*
X15998500Y1344709D01*
X15969352Y1491241D01*
X15969351Y1491242D01*
X15969351Y1491246D01*
X15950173Y1537546D01*
X15912177Y1629278D01*
X15912170Y1629291D01*
X15829165Y1753516D01*
X15829162Y1753520D01*
X15723519Y1859163D01*
X15723515Y1859166D01*
X15599290Y1942171D01*
X15599277Y1942178D01*
X15461250Y1999350D01*
X15461240Y1999353D01*
X15314708Y2028500D01*
X15314706Y2028500D01*
X15165294Y2028500D01*
X15165292Y2028500D01*
X15018759Y1999353D01*
X15018749Y1999350D01*
X14880722Y1942178D01*
X14880709Y1942171D01*
X14756484Y1859166D01*
X14756480Y1859163D01*
X14650837Y1753520D01*
X14650834Y1753516D01*
X14567829Y1629291D01*
X14567822Y1629278D01*
X14510650Y1491251D01*
X14510647Y1491241D01*
X14481500Y1344709D01*
X14481500Y1344706D01*
X14481500Y1195294D01*
X14481500Y1195292D01*
X14481499Y1195292D01*
X13458500Y1195292D01*
X13458500Y1344709D01*
X13429352Y1491241D01*
X13429351Y1491242D01*
X13429351Y1491246D01*
X13410173Y1537546D01*
X13372177Y1629278D01*
X13372170Y1629291D01*
X13289165Y1753516D01*
X13289162Y1753520D01*
X13183519Y1859163D01*
X13183515Y1859166D01*
X13059290Y1942171D01*
X13059277Y1942178D01*
X12921250Y1999350D01*
X12921240Y1999353D01*
X12774708Y2028500D01*
X12774706Y2028500D01*
X12625294Y2028500D01*
X12625292Y2028500D01*
X12478759Y1999353D01*
X12478749Y1999350D01*
X12340722Y1942178D01*
X12340709Y1942171D01*
X12216484Y1859166D01*
X12216480Y1859163D01*
X12110837Y1753520D01*
X12110834Y1753516D01*
X12027829Y1629291D01*
X12027822Y1629278D01*
X11970650Y1491251D01*
X11970647Y1491241D01*
X11941500Y1344709D01*
X11941500Y1344706D01*
X11941500Y1195294D01*
X11941500Y1195292D01*
X11941499Y1195292D01*
X10918500Y1195292D01*
X10918500Y1344709D01*
X10889352Y1491241D01*
X10889351Y1491242D01*
X10889351Y1491246D01*
X10870173Y1537546D01*
X10832177Y1629278D01*
X10832170Y1629291D01*
X10749165Y1753516D01*
X10749162Y1753520D01*
X10643519Y1859163D01*
X10643515Y1859166D01*
X10519290Y1942171D01*
X10519277Y1942178D01*
X10381250Y1999350D01*
X10381240Y1999353D01*
X10234708Y2028500D01*
X10234706Y2028500D01*
X10085294Y2028500D01*
X10085292Y2028500D01*
X9938759Y1999353D01*
X9938749Y1999350D01*
X9800722Y1942178D01*
X9800709Y1942171D01*
X9676484Y1859166D01*
X9676480Y1859163D01*
X9570837Y1753520D01*
X9570834Y1753516D01*
X9487829Y1629291D01*
X9487822Y1629278D01*
X9430650Y1491251D01*
X9430647Y1491241D01*
X9401500Y1344709D01*
X9401500Y1344706D01*
X9401500Y1195294D01*
X9401500Y1195292D01*
X9401499Y1195292D01*
X8125903Y1195292D01*
X8128000Y1203120D01*
X8128000Y1336880D01*
X8093381Y1466081D01*
X8089271Y1473200D01*
X8796496Y1473200D01*
X8784404Y1549547D01*
X8726335Y1728263D01*
X8641028Y1895688D01*
X8530576Y2047710D01*
X8530576Y2047711D01*
X8397710Y2180577D01*
X8245687Y2291029D01*
X8078262Y2376336D01*
X7899545Y2434405D01*
X7899547Y2434405D01*
X7823200Y2446497D01*
X7823200Y1739271D01*
X7816081Y1743381D01*
X7686880Y1778000D01*
X7553120Y1778000D01*
X7423919Y1743381D01*
X7416800Y1739271D01*
X7416800Y2446497D01*
X7340453Y2434405D01*
X7161737Y2376336D01*
X6994312Y2291029D01*
X6842290Y2180577D01*
X6842289Y2180577D01*
X6709423Y2047711D01*
X6709423Y2047710D01*
X6598971Y1895688D01*
X6513664Y1728263D01*
X6455595Y1549547D01*
X6443503Y1473200D01*
X7150729Y1473200D01*
X7146619Y1466081D01*
X7112000Y1336880D01*
X7112000Y1203120D01*
X7146619Y1073919D01*
X7150729Y1066800D01*
X6443503Y1066800D01*
X6455595Y990454D01*
X6513664Y811738D01*
X6598971Y644313D01*
X6709423Y492291D01*
X6709423Y492290D01*
X6842289Y359424D01*
X6922677Y301018D01*
X6965342Y245688D01*
X6971321Y176074D01*
X6938715Y114279D01*
X6877876Y79922D01*
X6849791Y76700D01*
X200700Y76700D01*
X133661Y96385D01*
X87906Y149189D01*
X76700Y200700D01*
X76700Y2658005D01*
X739500Y2658005D01*
X739500Y2421996D01*
X739501Y2421980D01*
X770306Y2187990D01*
X831394Y1960007D01*
X921714Y1741955D01*
X921719Y1741944D01*
X959503Y1676502D01*
X1039727Y1537550D01*
X1039729Y1537547D01*
X1039730Y1537546D01*
X1183406Y1350303D01*
X1183412Y1350296D01*
X1350295Y1183413D01*
X1350301Y1183408D01*
X1537550Y1039727D01*
X1668918Y963882D01*
X1741943Y921720D01*
X1741948Y921718D01*
X1741951Y921716D01*
X1960007Y831394D01*
X2187986Y770307D01*
X2421989Y739500D01*
X2421996Y739500D01*
X2658004Y739500D01*
X2658011Y739500D01*
X2892014Y770307D01*
X3119993Y831394D01*
X3338049Y921716D01*
X3542450Y1039727D01*
X3729699Y1183408D01*
X3896592Y1350301D01*
X4040273Y1537550D01*
X4158284Y1741951D01*
X4248606Y1960007D01*
X4309693Y2187986D01*
X4340500Y2421989D01*
X4340500Y2658011D01*
X4330050Y2737386D01*
X21059500Y2737386D01*
X21059500Y2501364D01*
X21090307Y2267361D01*
X21111576Y2187986D01*
X21151394Y2039382D01*
X21241714Y1821330D01*
X21241719Y1821319D01*
X21287541Y1741955D01*
X21359727Y1616925D01*
X21359729Y1616922D01*
X21359730Y1616921D01*
X21503406Y1429678D01*
X21503412Y1429671D01*
X21670295Y1262788D01*
X21670302Y1262782D01*
X21758257Y1195292D01*
X21857550Y1119102D01*
X21948140Y1066800D01*
X22061943Y1001095D01*
X22061948Y1001093D01*
X22061951Y1001091D01*
X22280007Y910769D01*
X22507986Y849682D01*
X22741989Y818875D01*
X22741996Y818875D01*
X22978004Y818875D01*
X22978011Y818875D01*
X23212014Y849682D01*
X23439993Y910769D01*
X23658049Y1001091D01*
X23862450Y1119102D01*
X24049699Y1262783D01*
X24216592Y1429676D01*
X24360273Y1616925D01*
X24478284Y1821326D01*
X24568606Y2039382D01*
X24629693Y2267361D01*
X24660500Y2501364D01*
X24660500Y2737386D01*
X24629693Y2971389D01*
X24568606Y3199368D01*
X24478284Y3417424D01*
X24478282Y3417427D01*
X24478280Y3417432D01*
X24406097Y3542455D01*
X24360273Y3621825D01*
X24277499Y3729698D01*
X24216593Y3809073D01*
X24216587Y3809080D01*
X24049704Y3975963D01*
X24049697Y3975969D01*
X23862454Y4119645D01*
X23862453Y4119646D01*
X23862450Y4119648D01*
X23776466Y4169291D01*
X23658056Y4237656D01*
X23658045Y4237661D01*
X23439993Y4327981D01*
X23212010Y4389069D01*
X22978020Y4419874D01*
X22978017Y4419875D01*
X22978011Y4419875D01*
X22741989Y4419875D01*
X22741983Y4419875D01*
X22741979Y4419874D01*
X22507989Y4389069D01*
X22280006Y4327981D01*
X22061954Y4237661D01*
X22061943Y4237656D01*
X21857545Y4119645D01*
X21670302Y3975969D01*
X21670295Y3975963D01*
X21503412Y3809080D01*
X21503406Y3809073D01*
X21359730Y3621830D01*
X21241719Y3417432D01*
X21241714Y3417421D01*
X21151394Y3199369D01*
X21090306Y2971386D01*
X21059501Y2737396D01*
X21059500Y2737386D01*
X4330050Y2737386D01*
X4309693Y2892011D01*
X4309693Y2892014D01*
X4248606Y3119993D01*
X4158284Y3338049D01*
X4158282Y3338052D01*
X4158280Y3338057D01*
X4116118Y3411082D01*
X4040273Y3542450D01*
X3896592Y3729699D01*
X3896587Y3729705D01*
X3891000Y3735292D01*
X6861499Y3735292D01*
X6890647Y3588760D01*
X6890650Y3588750D01*
X6947822Y3450723D01*
X6947829Y3450710D01*
X7030834Y3326485D01*
X7030837Y3326481D01*
X7136480Y3220838D01*
X7136484Y3220835D01*
X7260709Y3137830D01*
X7260722Y3137823D01*
X7398749Y3080651D01*
X7398754Y3080649D01*
X7398758Y3080649D01*
X7398759Y3080648D01*
X7545291Y3051500D01*
X7545294Y3051500D01*
X7694708Y3051500D01*
X7793292Y3071111D01*
X7841246Y3080649D01*
X7979284Y3137826D01*
X8103516Y3220835D01*
X8209165Y3326484D01*
X8292174Y3450716D01*
X8349351Y3588754D01*
X8377387Y3729699D01*
X8378500Y3735292D01*
X9401499Y3735292D01*
X9430647Y3588760D01*
X9430650Y3588750D01*
X9487822Y3450723D01*
X9487829Y3450710D01*
X9570834Y3326485D01*
X9570837Y3326481D01*
X9676480Y3220838D01*
X9676484Y3220835D01*
X9800709Y3137830D01*
X9800722Y3137823D01*
X9938749Y3080651D01*
X9938754Y3080649D01*
X9938758Y3080649D01*
X9938759Y3080648D01*
X10085291Y3051500D01*
X10085294Y3051500D01*
X10234708Y3051500D01*
X10333292Y3071111D01*
X10381246Y3080649D01*
X10519284Y3137826D01*
X10643516Y3220835D01*
X10749165Y3326484D01*
X10832174Y3450716D01*
X10889351Y3588754D01*
X10917387Y3729699D01*
X10918500Y3735292D01*
X11941499Y3735292D01*
X11970647Y3588760D01*
X11970650Y3588750D01*
X12027822Y3450723D01*
X12027829Y3450710D01*
X12110834Y3326485D01*
X12110837Y3326481D01*
X12216480Y3220838D01*
X12216484Y3220835D01*
X12340709Y3137830D01*
X12340722Y3137823D01*
X12478749Y3080651D01*
X12478754Y3080649D01*
X12478758Y3080649D01*
X12478759Y3080648D01*
X12625291Y3051500D01*
X12625294Y3051500D01*
X12774708Y3051500D01*
X12873292Y3071111D01*
X12921246Y3080649D01*
X13059284Y3137826D01*
X13183516Y3220835D01*
X13289165Y3326484D01*
X13372174Y3450716D01*
X13429351Y3588754D01*
X13457387Y3729699D01*
X13458500Y3735292D01*
X14481499Y3735292D01*
X14510647Y3588760D01*
X14510650Y3588750D01*
X14567822Y3450723D01*
X14567829Y3450710D01*
X14650834Y3326485D01*
X14650837Y3326481D01*
X14756480Y3220838D01*
X14756484Y3220835D01*
X14880709Y3137830D01*
X14880722Y3137823D01*
X15018749Y3080651D01*
X15018754Y3080649D01*
X15018758Y3080649D01*
X15018759Y3080648D01*
X15165291Y3051500D01*
X15165294Y3051500D01*
X15314708Y3051500D01*
X15413292Y3071111D01*
X15461246Y3080649D01*
X15599284Y3137826D01*
X15723516Y3220835D01*
X15829165Y3326484D01*
X15912174Y3450716D01*
X15969351Y3588754D01*
X15997387Y3729699D01*
X15998500Y3735292D01*
X17021499Y3735292D01*
X17050647Y3588760D01*
X17050650Y3588750D01*
X17107822Y3450723D01*
X17107829Y3450710D01*
X17190834Y3326485D01*
X17190837Y3326481D01*
X17296480Y3220838D01*
X17296484Y3220835D01*
X17420709Y3137830D01*
X17420722Y3137823D01*
X17558749Y3080651D01*
X17558754Y3080649D01*
X17558758Y3080649D01*
X17558759Y3080648D01*
X17705291Y3051500D01*
X17705294Y3051500D01*
X17854708Y3051500D01*
X17953292Y3071111D01*
X18001246Y3080649D01*
X18139284Y3137826D01*
X18263516Y3220835D01*
X18369165Y3326484D01*
X18452174Y3450716D01*
X18509351Y3588754D01*
X18537387Y3729699D01*
X18538500Y3735292D01*
X18538500Y3884709D01*
X18509352Y4031241D01*
X18509351Y4031242D01*
X18509351Y4031246D01*
X18456732Y4158281D01*
X18452177Y4169278D01*
X18452170Y4169291D01*
X18369165Y4293516D01*
X18369162Y4293520D01*
X18263519Y4399163D01*
X18263515Y4399166D01*
X18139290Y4482171D01*
X18139277Y4482178D01*
X18001250Y4539350D01*
X18001240Y4539353D01*
X17854708Y4568500D01*
X17854706Y4568500D01*
X17705294Y4568500D01*
X17705292Y4568500D01*
X17558759Y4539353D01*
X17558749Y4539350D01*
X17420722Y4482178D01*
X17420709Y4482171D01*
X17296484Y4399166D01*
X17296480Y4399163D01*
X17190837Y4293520D01*
X17190834Y4293516D01*
X17107829Y4169291D01*
X17107822Y4169278D01*
X17050650Y4031251D01*
X17050647Y4031241D01*
X17021500Y3884709D01*
X17021500Y3884706D01*
X17021500Y3735294D01*
X17021500Y3735292D01*
X17021499Y3735292D01*
X15998500Y3735292D01*
X15998500Y3884709D01*
X15969352Y4031241D01*
X15969351Y4031242D01*
X15969351Y4031246D01*
X15916732Y4158281D01*
X15912177Y4169278D01*
X15912170Y4169291D01*
X15829165Y4293516D01*
X15829162Y4293520D01*
X15723519Y4399163D01*
X15723515Y4399166D01*
X15599290Y4482171D01*
X15599277Y4482178D01*
X15461250Y4539350D01*
X15461240Y4539353D01*
X15314708Y4568500D01*
X15314706Y4568500D01*
X15165294Y4568500D01*
X15165292Y4568500D01*
X15018759Y4539353D01*
X15018749Y4539350D01*
X14880722Y4482178D01*
X14880709Y4482171D01*
X14756484Y4399166D01*
X14756480Y4399163D01*
X14650837Y4293520D01*
X14650834Y4293516D01*
X14567829Y4169291D01*
X14567822Y4169278D01*
X14510650Y4031251D01*
X14510647Y4031241D01*
X14481500Y3884709D01*
X14481500Y3884706D01*
X14481500Y3735294D01*
X14481500Y3735292D01*
X14481499Y3735292D01*
X13458500Y3735292D01*
X13458500Y3884709D01*
X13429352Y4031241D01*
X13429351Y4031242D01*
X13429351Y4031246D01*
X13376732Y4158281D01*
X13372177Y4169278D01*
X13372170Y4169291D01*
X13289165Y4293516D01*
X13289162Y4293520D01*
X13183519Y4399163D01*
X13183515Y4399166D01*
X13059290Y4482171D01*
X13059277Y4482178D01*
X12921250Y4539350D01*
X12921240Y4539353D01*
X12774708Y4568500D01*
X12774706Y4568500D01*
X12625294Y4568500D01*
X12625292Y4568500D01*
X12478759Y4539353D01*
X12478749Y4539350D01*
X12340722Y4482178D01*
X12340709Y4482171D01*
X12216484Y4399166D01*
X12216480Y4399163D01*
X12110837Y4293520D01*
X12110834Y4293516D01*
X12027829Y4169291D01*
X12027822Y4169278D01*
X11970650Y4031251D01*
X11970647Y4031241D01*
X11941500Y3884709D01*
X11941500Y3884706D01*
X11941500Y3735294D01*
X11941500Y3735292D01*
X11941499Y3735292D01*
X10918500Y3735292D01*
X10918500Y3884709D01*
X10889352Y4031241D01*
X10889351Y4031242D01*
X10889351Y4031246D01*
X10836732Y4158281D01*
X10832177Y4169278D01*
X10832170Y4169291D01*
X10749165Y4293516D01*
X10749162Y4293520D01*
X10643519Y4399163D01*
X10643515Y4399166D01*
X10519290Y4482171D01*
X10519277Y4482178D01*
X10381250Y4539350D01*
X10381240Y4539353D01*
X10234708Y4568500D01*
X10234706Y4568500D01*
X10085294Y4568500D01*
X10085292Y4568500D01*
X9938759Y4539353D01*
X9938749Y4539350D01*
X9800722Y4482178D01*
X9800709Y4482171D01*
X9676484Y4399166D01*
X9676480Y4399163D01*
X9570837Y4293520D01*
X9570834Y4293516D01*
X9487829Y4169291D01*
X9487822Y4169278D01*
X9430650Y4031251D01*
X9430647Y4031241D01*
X9401500Y3884709D01*
X9401500Y3884706D01*
X9401500Y3735294D01*
X9401500Y3735292D01*
X9401499Y3735292D01*
X8378500Y3735292D01*
X8378500Y3884709D01*
X8349352Y4031241D01*
X8349351Y4031242D01*
X8349351Y4031246D01*
X8296732Y4158281D01*
X8292177Y4169278D01*
X8292170Y4169291D01*
X8209165Y4293516D01*
X8209162Y4293520D01*
X8103519Y4399163D01*
X8103515Y4399166D01*
X7979290Y4482171D01*
X7979277Y4482178D01*
X7841250Y4539350D01*
X7841240Y4539353D01*
X7694708Y4568500D01*
X7694706Y4568500D01*
X7545294Y4568500D01*
X7545292Y4568500D01*
X7398759Y4539353D01*
X7398749Y4539350D01*
X7260722Y4482178D01*
X7260709Y4482171D01*
X7136484Y4399166D01*
X7136480Y4399163D01*
X7030837Y4293520D01*
X7030834Y4293516D01*
X6947829Y4169291D01*
X6947822Y4169278D01*
X6890650Y4031251D01*
X6890647Y4031241D01*
X6861500Y3884709D01*
X6861500Y3884706D01*
X6861500Y3735294D01*
X6861500Y3735292D01*
X6861499Y3735292D01*
X3891000Y3735292D01*
X3729704Y3896588D01*
X3729697Y3896594D01*
X3542454Y4040270D01*
X3542453Y4040271D01*
X3542450Y4040273D01*
X3460957Y4087323D01*
X3338056Y4158281D01*
X3338045Y4158286D01*
X3119993Y4248606D01*
X2892010Y4309694D01*
X2658020Y4340499D01*
X2658017Y4340500D01*
X2658011Y4340500D01*
X2421989Y4340500D01*
X2421983Y4340500D01*
X2421979Y4340499D01*
X2187989Y4309694D01*
X1960006Y4248606D01*
X1741954Y4158286D01*
X1741943Y4158281D01*
X1537545Y4040270D01*
X1350302Y3896594D01*
X1350295Y3896588D01*
X1183412Y3729705D01*
X1183406Y3729698D01*
X1039730Y3542455D01*
X921719Y3338057D01*
X921714Y3338046D01*
X831394Y3119994D01*
X770306Y2892011D01*
X739501Y2658021D01*
X739500Y2658005D01*
X76700Y2658005D01*
X76700Y5457836D01*
X1446700Y5457836D01*
X1446700Y5337164D01*
X1477932Y5220603D01*
X1538268Y5116097D01*
X1623597Y5030768D01*
X1728103Y4970432D01*
X1844664Y4939200D01*
X1844666Y4939200D01*
X1965334Y4939200D01*
X1965336Y4939200D01*
X2081897Y4970432D01*
X2186403Y5030768D01*
X2271732Y5116097D01*
X2332068Y5220603D01*
X2363300Y5337164D01*
X2363300Y5457836D01*
X2332068Y5574397D01*
X2271732Y5678903D01*
X2186403Y5764232D01*
X2081897Y5824568D01*
X1965336Y5855800D01*
X1844664Y5855800D01*
X1728103Y5824568D01*
X1728102Y5824568D01*
X1623598Y5764233D01*
X1623595Y5764231D01*
X1538269Y5678905D01*
X1538267Y5678902D01*
X1477932Y5574398D01*
X1477932Y5574397D01*
X1446700Y5457836D01*
X76700Y5457836D01*
X76700Y7362836D01*
X3669200Y7362836D01*
X3669200Y7242164D01*
X3700432Y7125603D01*
X3760768Y7021097D01*
X3846097Y6935768D01*
X3950603Y6875432D01*
X4067164Y6844200D01*
X4067166Y6844200D01*
X4187834Y6844200D01*
X4187836Y6844200D01*
X4304397Y6875432D01*
X4408903Y6935768D01*
X4494232Y7021097D01*
X4554568Y7125603D01*
X4585800Y7242164D01*
X4585800Y7362836D01*
X4572433Y7412722D01*
X21142000Y7412722D01*
X21142000Y7192279D01*
X21176485Y6974548D01*
X21244603Y6764897D01*
X21244604Y6764894D01*
X21344687Y6568475D01*
X21474252Y6390142D01*
X21474256Y6390137D01*
X21630136Y6234257D01*
X21630141Y6234253D01*
X21785692Y6121240D01*
X21808478Y6104685D01*
X21936875Y6039263D01*
X22004893Y6004605D01*
X22004896Y6004604D01*
X22109721Y5970545D01*
X22214549Y5936485D01*
X22432278Y5902000D01*
X22432279Y5902000D01*
X22652721Y5902000D01*
X22652722Y5902000D01*
X22870451Y5936485D01*
X23080106Y6004605D01*
X23276522Y6104685D01*
X23454865Y6234258D01*
X23610742Y6390135D01*
X23740315Y6568478D01*
X23840395Y6764894D01*
X23908515Y6974549D01*
X23943000Y7192278D01*
X23943000Y7412722D01*
X23908515Y7630451D01*
X23840395Y7840106D01*
X23840395Y7840107D01*
X23805737Y7908125D01*
X23740315Y8036522D01*
X23723760Y8059308D01*
X23610747Y8214859D01*
X23610743Y8214864D01*
X23454863Y8370744D01*
X23454858Y8370748D01*
X23276525Y8500313D01*
X23276524Y8500314D01*
X23276522Y8500315D01*
X23213596Y8532378D01*
X23080106Y8600396D01*
X23080103Y8600397D01*
X22870452Y8668515D01*
X22761586Y8685758D01*
X22652722Y8703000D01*
X22432278Y8703000D01*
X22359701Y8691505D01*
X22214547Y8668515D01*
X22004896Y8600397D01*
X22004893Y8600396D01*
X21808474Y8500313D01*
X21630141Y8370748D01*
X21630136Y8370744D01*
X21474256Y8214864D01*
X21474252Y8214859D01*
X21344687Y8036526D01*
X21244604Y7840107D01*
X21244603Y7840104D01*
X21176485Y7630453D01*
X21142000Y7412722D01*
X4572433Y7412722D01*
X4554568Y7479397D01*
X4494232Y7583903D01*
X4408903Y7669232D01*
X4304397Y7729568D01*
X4187836Y7760800D01*
X4067164Y7760800D01*
X3950603Y7729568D01*
X3950602Y7729568D01*
X3846098Y7669233D01*
X3846095Y7669231D01*
X3760769Y7583905D01*
X3760767Y7583902D01*
X3700432Y7479398D01*
X3700432Y7479397D01*
X3669200Y7362836D01*
X76700Y7362836D01*
X76700Y8950336D01*
X10336700Y8950336D01*
X10336700Y8829664D01*
X10367932Y8713103D01*
X10428268Y8608597D01*
X10513597Y8523268D01*
X10618103Y8462932D01*
X10734664Y8431700D01*
X10734666Y8431700D01*
X10855334Y8431700D01*
X10855336Y8431700D01*
X10971897Y8462932D01*
X11076403Y8523268D01*
X11161732Y8608597D01*
X11222068Y8713103D01*
X11253300Y8829664D01*
X11253300Y8950336D01*
X14781700Y8950336D01*
X14781700Y8829664D01*
X14812932Y8713103D01*
X14873268Y8608597D01*
X14958597Y8523268D01*
X15063103Y8462932D01*
X15179664Y8431700D01*
X15179666Y8431700D01*
X15300334Y8431700D01*
X15300336Y8431700D01*
X15416897Y8462932D01*
X15521403Y8523268D01*
X15606732Y8608597D01*
X15667068Y8713103D01*
X15698300Y8829664D01*
X15698300Y8950336D01*
X15667068Y9066897D01*
X15606732Y9171403D01*
X15521403Y9256732D01*
X15416897Y9317068D01*
X15300336Y9348300D01*
X15179664Y9348300D01*
X15063103Y9317068D01*
X15063102Y9317068D01*
X14958598Y9256733D01*
X14958595Y9256731D01*
X14873269Y9171405D01*
X14873267Y9171402D01*
X14812932Y9066898D01*
X14812932Y9066897D01*
X14781700Y8950336D01*
X11253300Y8950336D01*
X11222068Y9066897D01*
X11161732Y9171403D01*
X11076403Y9256732D01*
X10971897Y9317068D01*
X10855336Y9348300D01*
X10734664Y9348300D01*
X10618103Y9317068D01*
X10618102Y9317068D01*
X10513598Y9256733D01*
X10513595Y9256731D01*
X10428269Y9171405D01*
X10428267Y9171402D01*
X10367932Y9066898D01*
X10367932Y9066897D01*
X10336700Y8950336D01*
X76700Y8950336D01*
X76700Y9902836D01*
X7479200Y9902836D01*
X7479200Y9782164D01*
X7510432Y9665603D01*
X7570768Y9561097D01*
X7656097Y9475768D01*
X7760603Y9415432D01*
X7877164Y9384200D01*
X7877166Y9384200D01*
X7997834Y9384200D01*
X7997836Y9384200D01*
X8114397Y9415432D01*
X8218903Y9475768D01*
X8304232Y9561097D01*
X8364568Y9665603D01*
X8395800Y9782164D01*
X8395800Y9902836D01*
X8364568Y10019397D01*
X8304232Y10123903D01*
X8218903Y10209232D01*
X8114397Y10269568D01*
X7997836Y10300800D01*
X7877164Y10300800D01*
X7760603Y10269568D01*
X7760602Y10269568D01*
X7656098Y10209233D01*
X7656095Y10209231D01*
X7570769Y10123905D01*
X7570767Y10123902D01*
X7510432Y10019398D01*
X7510432Y10019397D01*
X7479200Y9902836D01*
X76700Y9902836D01*
X76700Y10537836D01*
X3034200Y10537836D01*
X3034200Y10417164D01*
X3065432Y10300603D01*
X3125768Y10196097D01*
X3211097Y10110768D01*
X3315603Y10050432D01*
X3432164Y10019200D01*
X3432166Y10019200D01*
X3552834Y10019200D01*
X3552836Y10019200D01*
X3669397Y10050432D01*
X3773903Y10110768D01*
X3859232Y10196097D01*
X3919568Y10300603D01*
X3950800Y10417164D01*
X3950800Y10537836D01*
X3919568Y10654397D01*
X3859232Y10758903D01*
X3773903Y10844232D01*
X3754670Y10855336D01*
X12241700Y10855336D01*
X12241700Y10734664D01*
X12272932Y10618103D01*
X12333268Y10513597D01*
X12418597Y10428268D01*
X12523103Y10367932D01*
X12639664Y10336700D01*
X12639666Y10336700D01*
X12760334Y10336700D01*
X12760336Y10336700D01*
X12876897Y10367932D01*
X12981403Y10428268D01*
X13066732Y10513597D01*
X13127068Y10618103D01*
X13158300Y10734664D01*
X13158300Y10855336D01*
X13127068Y10971897D01*
X13066732Y11076403D01*
X12981403Y11161732D01*
X12876897Y11222068D01*
X12760336Y11253300D01*
X12639664Y11253300D01*
X12523103Y11222068D01*
X12523102Y11222068D01*
X12418598Y11161733D01*
X12418595Y11161731D01*
X12333269Y11076405D01*
X12333267Y11076402D01*
X12272932Y10971898D01*
X12272932Y10971897D01*
X12241700Y10855336D01*
X3754670Y10855336D01*
X3669397Y10904568D01*
X3552836Y10935800D01*
X3432164Y10935800D01*
X3315603Y10904568D01*
X3315602Y10904568D01*
X3211098Y10844233D01*
X3211095Y10844231D01*
X3125769Y10758905D01*
X3125767Y10758902D01*
X3065432Y10654398D01*
X3065432Y10654397D01*
X3034200Y10537836D01*
X76700Y10537836D01*
X76700Y11490336D01*
X9384200Y11490336D01*
X9384200Y11369664D01*
X9415432Y11253103D01*
X9475768Y11148597D01*
X9561097Y11063268D01*
X9665603Y11002932D01*
X9782164Y10971700D01*
X9782166Y10971700D01*
X9902834Y10971700D01*
X9902836Y10971700D01*
X10019397Y11002932D01*
X10123903Y11063268D01*
X10209232Y11148597D01*
X10269568Y11253103D01*
X10300800Y11369664D01*
X10300800Y11490336D01*
X10269568Y11606897D01*
X10209232Y11711403D01*
X10123903Y11796732D01*
X10019397Y11857068D01*
X9902836Y11888300D01*
X9782164Y11888300D01*
X9665603Y11857068D01*
X9665602Y11857068D01*
X9561098Y11796733D01*
X9561095Y11796731D01*
X9475769Y11711405D01*
X9475767Y11711402D01*
X9415432Y11606898D01*
X9415432Y11606897D01*
X9384200Y11490336D01*
X76700Y11490336D01*
X76700Y12125336D01*
X3351700Y12125336D01*
X3351700Y12004664D01*
X3382932Y11888103D01*
X3443268Y11783597D01*
X3528597Y11698268D01*
X3633103Y11637932D01*
X3749664Y11606700D01*
X3749666Y11606700D01*
X3870334Y11606700D01*
X3870336Y11606700D01*
X3986897Y11637932D01*
X4091403Y11698268D01*
X4176732Y11783597D01*
X4237068Y11888103D01*
X4268300Y12004664D01*
X4268300Y12125336D01*
X10336700Y12125336D01*
X10336700Y12004664D01*
X10367932Y11888103D01*
X10428268Y11783597D01*
X10513597Y11698268D01*
X10618103Y11637932D01*
X10734664Y11606700D01*
X10734666Y11606700D01*
X10855334Y11606700D01*
X10855336Y11606700D01*
X10971897Y11637932D01*
X11076403Y11698268D01*
X11161732Y11783597D01*
X11222068Y11888103D01*
X11253300Y12004664D01*
X11253300Y12125336D01*
X11222068Y12241897D01*
X11161732Y12346403D01*
X11076403Y12431732D01*
X10971897Y12492068D01*
X10855336Y12523300D01*
X10734664Y12523300D01*
X10618103Y12492068D01*
X10618102Y12492068D01*
X10513598Y12431733D01*
X10513595Y12431731D01*
X10428269Y12346405D01*
X10428267Y12346402D01*
X10367932Y12241898D01*
X10367932Y12241897D01*
X10336700Y12125336D01*
X4268300Y12125336D01*
X4237068Y12241897D01*
X4176732Y12346403D01*
X4091403Y12431732D01*
X3986897Y12492068D01*
X3870336Y12523300D01*
X3749664Y12523300D01*
X3633103Y12492068D01*
X3633102Y12492068D01*
X3528598Y12431733D01*
X3528595Y12431731D01*
X3443269Y12346405D01*
X3443267Y12346402D01*
X3382932Y12241898D01*
X3382932Y12241897D01*
X3351700Y12125336D01*
X76700Y12125336D01*
X76700Y13712836D01*
X3034200Y13712836D01*
X3034200Y13592164D01*
X3065432Y13475603D01*
X3125768Y13371097D01*
X3211097Y13285768D01*
X3315603Y13225432D01*
X3432164Y13194200D01*
X3432166Y13194200D01*
X3552834Y13194200D01*
X3552836Y13194200D01*
X3669397Y13225432D01*
X3766746Y13281636D01*
X8114200Y13281636D01*
X8114200Y13160964D01*
X8145432Y13044403D01*
X8205768Y12939897D01*
X8291097Y12854568D01*
X8395603Y12794232D01*
X8512164Y12763000D01*
X8512166Y12763000D01*
X8632834Y12763000D01*
X8632836Y12763000D01*
X8749397Y12794232D01*
X8853903Y12854568D01*
X8939232Y12939897D01*
X8999568Y13044403D01*
X9030800Y13160964D01*
X9030800Y13281636D01*
X8999568Y13398197D01*
X8939232Y13502703D01*
X8853903Y13588032D01*
X8853902Y13588033D01*
X8827510Y13603270D01*
X8749397Y13648368D01*
X8632836Y13679600D01*
X8512164Y13679600D01*
X8395603Y13648368D01*
X8395602Y13648368D01*
X8291098Y13588033D01*
X8291095Y13588031D01*
X8205769Y13502705D01*
X8205767Y13502702D01*
X8145432Y13398198D01*
X8145432Y13398197D01*
X8114200Y13281636D01*
X3766746Y13281636D01*
X3773903Y13285768D01*
X3859232Y13371097D01*
X3919568Y13475603D01*
X3950800Y13592164D01*
X3950800Y13712836D01*
X10019200Y13712836D01*
X10019200Y13592164D01*
X10050432Y13475603D01*
X10110768Y13371097D01*
X10196097Y13285768D01*
X10300603Y13225432D01*
X10417164Y13194200D01*
X10417166Y13194200D01*
X10537834Y13194200D01*
X10537836Y13194200D01*
X10654397Y13225432D01*
X10758903Y13285768D01*
X10844232Y13371097D01*
X10904568Y13475603D01*
X10935800Y13592164D01*
X10935800Y13712836D01*
X10904568Y13829397D01*
X10844232Y13933903D01*
X10758903Y14019232D01*
X10654397Y14079568D01*
X10537836Y14110800D01*
X10417164Y14110800D01*
X10300603Y14079568D01*
X10300602Y14079568D01*
X10196098Y14019233D01*
X10196095Y14019231D01*
X10110769Y13933905D01*
X10110767Y13933902D01*
X10050432Y13829398D01*
X10050432Y13829397D01*
X10019200Y13712836D01*
X3950800Y13712836D01*
X3919568Y13829397D01*
X3859232Y13933903D01*
X3773903Y14019232D01*
X3669397Y14079568D01*
X3552836Y14110800D01*
X3432164Y14110800D01*
X3315603Y14079568D01*
X3315602Y14079568D01*
X3211098Y14019233D01*
X3211095Y14019231D01*
X3125769Y13933905D01*
X3125767Y13933902D01*
X3065432Y13829398D01*
X3065432Y13829397D01*
X3034200Y13712836D01*
X76700Y13712836D01*
X76700Y14982836D01*
X8114200Y14982836D01*
X8114200Y14862164D01*
X8145432Y14745603D01*
X8205768Y14641097D01*
X8291097Y14555768D01*
X8395603Y14495432D01*
X8512164Y14464200D01*
X8512166Y14464200D01*
X8632834Y14464200D01*
X8632836Y14464200D01*
X8749397Y14495432D01*
X8853903Y14555768D01*
X8939232Y14641097D01*
X8999568Y14745603D01*
X8999569Y14745609D01*
X9002649Y14753042D01*
X9046488Y14807446D01*
X9112782Y14829513D01*
X9180481Y14812236D01*
X9204892Y14793273D01*
X9243597Y14754568D01*
X9348103Y14694232D01*
X9464664Y14663000D01*
X9464666Y14663000D01*
X9585334Y14663000D01*
X9585336Y14663000D01*
X9701897Y14694232D01*
X9806403Y14754568D01*
X9891732Y14839897D01*
X9952068Y14944403D01*
X9983300Y15060964D01*
X9983300Y15181636D01*
X9952068Y15298197D01*
X9891732Y15402703D01*
X9806403Y15488032D01*
X9701897Y15548368D01*
X9585336Y15579600D01*
X9464664Y15579600D01*
X9348103Y15548368D01*
X9348102Y15548368D01*
X9243598Y15488033D01*
X9243595Y15488031D01*
X9158269Y15402705D01*
X9158267Y15402702D01*
X9097931Y15298196D01*
X9094847Y15290750D01*
X9051003Y15236349D01*
X8984707Y15214288D01*
X8917009Y15231571D01*
X8892607Y15250528D01*
X8853904Y15289231D01*
X8853903Y15289232D01*
X8749397Y15349568D01*
X8632836Y15380800D01*
X8512164Y15380800D01*
X8395603Y15349568D01*
X8395602Y15349568D01*
X8291098Y15289233D01*
X8291095Y15289231D01*
X8205769Y15203905D01*
X8205767Y15203902D01*
X8145432Y15099398D01*
X8145432Y15099397D01*
X8114200Y14982836D01*
X76700Y14982836D01*
X76700Y16887836D01*
X7161700Y16887836D01*
X7161700Y16767164D01*
X7192932Y16650603D01*
X7253268Y16546097D01*
X7338597Y16460768D01*
X7443103Y16400432D01*
X7559664Y16369200D01*
X7559666Y16369200D01*
X7680334Y16369200D01*
X7680336Y16369200D01*
X7796897Y16400432D01*
X7901403Y16460768D01*
X7986732Y16546097D01*
X8000726Y16570336D01*
X9066700Y16570336D01*
X9066700Y16449664D01*
X9097932Y16333103D01*
X9158268Y16228597D01*
X9243597Y16143268D01*
X9348103Y16082932D01*
X9464664Y16051700D01*
X9464666Y16051700D01*
X9585334Y16051700D01*
X9585336Y16051700D01*
X9701897Y16082932D01*
X9806403Y16143268D01*
X9891732Y16228597D01*
X9952068Y16333103D01*
X9983300Y16449664D01*
X9983300Y16570336D01*
X9952068Y16686897D01*
X9891732Y16791403D01*
X9806403Y16876732D01*
X9701897Y16937068D01*
X9585336Y16968300D01*
X9464664Y16968300D01*
X9348103Y16937068D01*
X9348102Y16937068D01*
X9243598Y16876733D01*
X9243595Y16876731D01*
X9158269Y16791405D01*
X9158267Y16791402D01*
X9097932Y16686898D01*
X9097932Y16686897D01*
X9066700Y16570336D01*
X8000726Y16570336D01*
X8047068Y16650603D01*
X8078300Y16767164D01*
X8078300Y16887836D01*
X8047068Y17004397D01*
X7986732Y17108903D01*
X7901403Y17194232D01*
X7882170Y17205336D01*
X12241700Y17205336D01*
X12241700Y17084664D01*
X12272932Y16968103D01*
X12333268Y16863597D01*
X12418597Y16778268D01*
X12523103Y16717932D01*
X12639664Y16686700D01*
X12639666Y16686700D01*
X12760334Y16686700D01*
X12760336Y16686700D01*
X12876897Y16717932D01*
X12981403Y16778268D01*
X13066732Y16863597D01*
X13127068Y16968103D01*
X13158300Y17084664D01*
X13158300Y17205336D01*
X15416700Y17205336D01*
X15416700Y17084664D01*
X15447932Y16968103D01*
X15508268Y16863597D01*
X15593597Y16778268D01*
X15593599Y16778267D01*
X15593603Y16778264D01*
X15682669Y16726842D01*
X15730885Y16676276D01*
X15744109Y16607669D01*
X15740446Y16587365D01*
X15735296Y16568144D01*
X15735296Y16447472D01*
X15766528Y16330911D01*
X15826864Y16226405D01*
X15912193Y16141076D01*
X16016699Y16080740D01*
X16133260Y16049508D01*
X16133262Y16049508D01*
X16245200Y16049508D01*
X16312239Y16029823D01*
X16357994Y15977019D01*
X16369200Y15925508D01*
X16369200Y15884564D01*
X16377349Y15854153D01*
X16400432Y15768004D01*
X16400432Y15768003D01*
X16460767Y15663499D01*
X16460769Y15663496D01*
X16523981Y15600284D01*
X16557466Y15538961D01*
X16560300Y15512603D01*
X16560300Y14760034D01*
X16540615Y14692995D01*
X16487811Y14647240D01*
X16418653Y14637296D01*
X16355097Y14666321D01*
X16317323Y14725099D01*
X16316525Y14727941D01*
X16302068Y14781897D01*
X16241732Y14886403D01*
X16156403Y14971732D01*
X16051897Y15032068D01*
X15935336Y15063300D01*
X15814664Y15063300D01*
X15698103Y15032068D01*
X15698102Y15032068D01*
X15593598Y14971733D01*
X15593595Y14971731D01*
X15508269Y14886405D01*
X15508267Y14886402D01*
X15447932Y14781898D01*
X15447932Y14781897D01*
X15416700Y14665336D01*
X15416700Y14544664D01*
X15447932Y14428103D01*
X15508268Y14323597D01*
X15593597Y14238268D01*
X15698103Y14177932D01*
X15814664Y14146700D01*
X15814666Y14146700D01*
X15935334Y14146700D01*
X15935336Y14146700D01*
X16051897Y14177932D01*
X16156403Y14238268D01*
X16241732Y14323597D01*
X16302068Y14428103D01*
X16316525Y14482062D01*
X16352890Y14541720D01*
X16415736Y14572250D01*
X16485112Y14563956D01*
X16538990Y14519471D01*
X16560265Y14452919D01*
X16560300Y14449967D01*
X16560300Y13231625D01*
X16540615Y13164586D01*
X16487811Y13118831D01*
X16418653Y13108887D01*
X16374305Y13124235D01*
X16369401Y13127066D01*
X16369399Y13127067D01*
X16369397Y13127068D01*
X16252836Y13158300D01*
X16132164Y13158300D01*
X16015603Y13127068D01*
X16015602Y13127068D01*
X15911098Y13066733D01*
X15911095Y13066731D01*
X15825769Y12981405D01*
X15825767Y12981402D01*
X15765432Y12876898D01*
X15765432Y12876897D01*
X15734200Y12760336D01*
X15734200Y12639664D01*
X15765432Y12523103D01*
X15825768Y12418597D01*
X15911097Y12333268D01*
X16015603Y12272932D01*
X16132164Y12241700D01*
X16132166Y12241700D01*
X16252834Y12241700D01*
X16252836Y12241700D01*
X16369397Y12272932D01*
X16374299Y12275763D01*
X16442198Y12292236D01*
X16508225Y12269385D01*
X16551417Y12214464D01*
X16560300Y12168376D01*
X16560300Y9639797D01*
X16540615Y9572758D01*
X16523981Y9552116D01*
X16460769Y9488905D01*
X16460767Y9488902D01*
X16400432Y9384398D01*
X16400432Y9384397D01*
X16369200Y9267836D01*
X16369200Y9147164D01*
X16400432Y9030603D01*
X16460768Y8926097D01*
X16546097Y8840768D01*
X16650603Y8780432D01*
X16767164Y8749200D01*
X16767166Y8749200D01*
X16887834Y8749200D01*
X16887836Y8749200D01*
X17004397Y8780432D01*
X17108903Y8840768D01*
X17194232Y8926097D01*
X17254568Y9030603D01*
X17285800Y9147164D01*
X17285800Y9267836D01*
X17254568Y9384397D01*
X17194232Y9488903D01*
X17131019Y9552116D01*
X17097534Y9613439D01*
X17094700Y9639797D01*
X17094700Y13080028D01*
X21448104Y13080028D01*
X21448104Y12959356D01*
X21479336Y12842795D01*
X21539672Y12738289D01*
X21625001Y12652960D01*
X21625003Y12652959D01*
X21625007Y12652956D01*
X21714073Y12601534D01*
X21762289Y12550968D01*
X21775513Y12482361D01*
X21771850Y12462057D01*
X21766700Y12442836D01*
X21766700Y12322164D01*
X21797932Y12205603D01*
X21858268Y12101097D01*
X21943597Y12015768D01*
X22048103Y11955432D01*
X22164664Y11924200D01*
X22164666Y11924200D01*
X22285334Y11924200D01*
X22285336Y11924200D01*
X22401897Y11955432D01*
X22506403Y12015768D01*
X22591732Y12101097D01*
X22652068Y12205603D01*
X22683300Y12322164D01*
X22683300Y12442836D01*
X22652068Y12559397D01*
X22591732Y12663903D01*
X22506403Y12749232D01*
X22506402Y12749233D01*
X22506399Y12749235D01*
X22417329Y12800659D01*
X22369114Y12851226D01*
X22355890Y12919833D01*
X22359555Y12940141D01*
X22364704Y12959356D01*
X22364704Y13080028D01*
X22333472Y13196589D01*
X22273136Y13301095D01*
X22187807Y13386424D01*
X22083301Y13446760D01*
X21966740Y13477992D01*
X21846068Y13477992D01*
X21729507Y13446760D01*
X21729506Y13446760D01*
X21625002Y13386425D01*
X21624999Y13386423D01*
X21539673Y13301097D01*
X21539671Y13301094D01*
X21479336Y13196590D01*
X21479336Y13196589D01*
X21448104Y13080028D01*
X17094700Y13080028D01*
X17094700Y14260336D01*
X21449200Y14260336D01*
X21449200Y14139664D01*
X21480432Y14023103D01*
X21540768Y13918597D01*
X21626097Y13833268D01*
X21730603Y13772932D01*
X21847164Y13741700D01*
X21847166Y13741700D01*
X21967834Y13741700D01*
X21967836Y13741700D01*
X22084397Y13772932D01*
X22188903Y13833268D01*
X22274232Y13918597D01*
X22334568Y14023103D01*
X22365800Y14139664D01*
X22365800Y14260336D01*
X22334568Y14376897D01*
X22274232Y14481403D01*
X22188903Y14566732D01*
X22084397Y14627068D01*
X21967836Y14658300D01*
X21847164Y14658300D01*
X21730603Y14627068D01*
X21730602Y14627068D01*
X21626098Y14566733D01*
X21626095Y14566731D01*
X21540769Y14481405D01*
X21540767Y14481402D01*
X21480432Y14376898D01*
X21480432Y14376897D01*
X21449200Y14260336D01*
X17094700Y14260336D01*
X17094700Y14992738D01*
X20179200Y14992738D01*
X20179200Y14872066D01*
X20210432Y14755505D01*
X20270768Y14650999D01*
X20356097Y14565670D01*
X20460603Y14505334D01*
X20577164Y14474102D01*
X20577166Y14474102D01*
X20697834Y14474102D01*
X20697836Y14474102D01*
X20814397Y14505334D01*
X20918903Y14565670D01*
X21004232Y14650999D01*
X21064568Y14755505D01*
X21095800Y14872066D01*
X21095800Y14992738D01*
X21064568Y15109299D01*
X21004232Y15213805D01*
X20918903Y15299134D01*
X20814397Y15359470D01*
X20697836Y15390702D01*
X20577164Y15390702D01*
X20460603Y15359470D01*
X20460602Y15359470D01*
X20356098Y15299135D01*
X20356095Y15299133D01*
X20270769Y15213807D01*
X20270767Y15213804D01*
X20210432Y15109300D01*
X20210432Y15109299D01*
X20179200Y14992738D01*
X17094700Y14992738D01*
X17094700Y15512603D01*
X17114385Y15579642D01*
X17131019Y15600284D01*
X17194232Y15663497D01*
X17254568Y15768003D01*
X17262756Y15798565D01*
X17299119Y15858224D01*
X17361966Y15888755D01*
X17431342Y15880461D01*
X17470212Y15854153D01*
X17498597Y15825768D01*
X17603103Y15765432D01*
X17719664Y15734200D01*
X17719666Y15734200D01*
X17840334Y15734200D01*
X17840336Y15734200D01*
X17956897Y15765432D01*
X18061403Y15825768D01*
X18146732Y15911097D01*
X18207068Y16015603D01*
X18238300Y16132164D01*
X18238300Y16252836D01*
X18207068Y16369397D01*
X18146732Y16473903D01*
X18061403Y16559232D01*
X17956897Y16619568D01*
X17840336Y16650800D01*
X17719664Y16650800D01*
X17603103Y16619568D01*
X17603102Y16619568D01*
X17498598Y16559233D01*
X17498595Y16559231D01*
X17413269Y16473905D01*
X17413267Y16473902D01*
X17352932Y16369398D01*
X17352930Y16369393D01*
X17344742Y16338834D01*
X17308377Y16279174D01*
X17245529Y16248646D01*
X17176154Y16256941D01*
X17137287Y16283248D01*
X17108904Y16311631D01*
X17108903Y16311632D01*
X17004397Y16371968D01*
X16887836Y16403200D01*
X16775896Y16403200D01*
X16708857Y16422885D01*
X16663102Y16475689D01*
X16651896Y16527200D01*
X16651896Y16568142D01*
X16651896Y16568144D01*
X16620664Y16684705D01*
X16560328Y16789211D01*
X16474999Y16874540D01*
X16474998Y16874541D01*
X16474995Y16874543D01*
X16385925Y16925967D01*
X16337710Y16976534D01*
X16323925Y17033354D01*
X16323925Y17049676D01*
X16333300Y17084664D01*
X16333300Y17205336D01*
X16323925Y17240325D01*
X16323925Y17256647D01*
X16329354Y17275137D01*
X16329813Y17294403D01*
X16338995Y17307970D01*
X16343610Y17323686D01*
X16358172Y17336305D01*
X16368975Y17352265D01*
X16385918Y17364031D01*
X16474999Y17415460D01*
X16560328Y17500789D01*
X16620664Y17605295D01*
X16651896Y17721856D01*
X16651896Y17842528D01*
X16620664Y17959089D01*
X16560328Y18063595D01*
X16474999Y18148924D01*
X16370493Y18209260D01*
X16253932Y18240492D01*
X16133260Y18240492D01*
X16016699Y18209260D01*
X16016698Y18209260D01*
X15912194Y18148925D01*
X15912191Y18148923D01*
X15826865Y18063597D01*
X15826863Y18063594D01*
X15766528Y17959090D01*
X15766528Y17959089D01*
X15735296Y17842528D01*
X15735296Y17721852D01*
X15740445Y17702637D01*
X15738781Y17632787D01*
X15699618Y17574926D01*
X15682670Y17563159D01*
X15593600Y17511735D01*
X15593595Y17511731D01*
X15508269Y17426405D01*
X15508267Y17426402D01*
X15447932Y17321898D01*
X15447932Y17321897D01*
X15416700Y17205336D01*
X13158300Y17205336D01*
X13127068Y17321897D01*
X13066732Y17426403D01*
X12981403Y17511732D01*
X12876897Y17572068D01*
X12760336Y17603300D01*
X12639664Y17603300D01*
X12523103Y17572068D01*
X12523102Y17572068D01*
X12418598Y17511733D01*
X12418595Y17511731D01*
X12333269Y17426405D01*
X12333267Y17426402D01*
X12272932Y17321898D01*
X12272932Y17321897D01*
X12241700Y17205336D01*
X7882170Y17205336D01*
X7796897Y17254568D01*
X7680336Y17285800D01*
X7559664Y17285800D01*
X7443103Y17254568D01*
X7443102Y17254568D01*
X7338598Y17194233D01*
X7338595Y17194231D01*
X7253269Y17108905D01*
X7253267Y17108902D01*
X7192932Y17004398D01*
X7192932Y17004397D01*
X7161700Y16887836D01*
X76700Y16887836D01*
X76700Y18475336D01*
X3986700Y18475336D01*
X3986700Y18354664D01*
X4017932Y18238103D01*
X4078268Y18133597D01*
X4163597Y18048268D01*
X4268103Y17987932D01*
X4384664Y17956700D01*
X4384666Y17956700D01*
X4505334Y17956700D01*
X4505336Y17956700D01*
X4621897Y17987932D01*
X4726403Y18048268D01*
X4811732Y18133597D01*
X4872068Y18238103D01*
X4903300Y18354664D01*
X4903300Y18475336D01*
X4872068Y18591897D01*
X4811732Y18696403D01*
X4726403Y18781732D01*
X4621897Y18842068D01*
X4505336Y18873300D01*
X4384664Y18873300D01*
X4268103Y18842068D01*
X4268102Y18842068D01*
X4163598Y18781733D01*
X4163595Y18781731D01*
X4078269Y18696405D01*
X4078267Y18696402D01*
X4017932Y18591898D01*
X4017932Y18591897D01*
X3986700Y18475336D01*
X76700Y18475336D01*
X76700Y19110336D01*
X6526700Y19110336D01*
X6526700Y18989664D01*
X6557932Y18873103D01*
X6618268Y18768597D01*
X6703597Y18683268D01*
X6808103Y18622932D01*
X6924664Y18591700D01*
X6924666Y18591700D01*
X7045334Y18591700D01*
X7045336Y18591700D01*
X7161897Y18622932D01*
X7266403Y18683268D01*
X7351732Y18768597D01*
X7412068Y18873103D01*
X7443300Y18989664D01*
X7443300Y19110336D01*
X7412068Y19226897D01*
X7351732Y19331403D01*
X7324944Y19358191D01*
X7703699Y19358191D01*
X7729765Y19227154D01*
X7729767Y19227146D01*
X7780898Y19103704D01*
X7780899Y19103702D01*
X7855129Y18992610D01*
X7855132Y18992606D01*
X7949605Y18898133D01*
X7949609Y18898130D01*
X8060704Y18823898D01*
X8184147Y18772767D01*
X8205101Y18768599D01*
X8315190Y18746700D01*
X8315193Y18746700D01*
X8448809Y18746700D01*
X8514777Y18759823D01*
X8579853Y18772767D01*
X8703296Y18823898D01*
X8814391Y18898130D01*
X8908870Y18992609D01*
X8983102Y19103704D01*
X9034233Y19227147D01*
X9054971Y19331403D01*
X9060300Y19358191D01*
X9060300Y20189743D01*
X9079985Y20256782D01*
X9132789Y20302537D01*
X9201947Y20312481D01*
X9265503Y20283456D01*
X9291687Y20251743D01*
X9349482Y20151639D01*
X9349484Y20151637D01*
X9349485Y20151635D01*
X9456635Y20044485D01*
X9587865Y19968719D01*
X9734234Y19929500D01*
X9734236Y19929500D01*
X9885764Y19929500D01*
X9885766Y19929500D01*
X10032135Y19968719D01*
X10163365Y20044485D01*
X10270515Y20151635D01*
X10346281Y20282865D01*
X10385500Y20429234D01*
X10385500Y20580766D01*
X10346281Y20727135D01*
X10270515Y20858365D01*
X10163365Y20965515D01*
X10080830Y21013167D01*
X10077073Y21015336D01*
X11289200Y21015336D01*
X11289200Y20894664D01*
X11320432Y20778103D01*
X11380768Y20673597D01*
X11466097Y20588268D01*
X11570603Y20527932D01*
X11687164Y20496700D01*
X11687166Y20496700D01*
X11807834Y20496700D01*
X11807836Y20496700D01*
X11924397Y20527932D01*
X12015909Y20580766D01*
X15014500Y20580766D01*
X15014500Y20429234D01*
X15020189Y20408002D01*
X15053719Y20282864D01*
X15067114Y20259664D01*
X15129485Y20151635D01*
X15236635Y20044485D01*
X15367865Y19968719D01*
X15514234Y19929500D01*
X15514236Y19929500D01*
X15665764Y19929500D01*
X15665766Y19929500D01*
X15812135Y19968719D01*
X15943365Y20044485D01*
X16050515Y20151635D01*
X16108313Y20251743D01*
X16158880Y20299959D01*
X16227488Y20313181D01*
X16292352Y20287213D01*
X16332880Y20230299D01*
X16339700Y20189743D01*
X16339700Y19358193D01*
X16339700Y19358191D01*
X16339699Y19358191D01*
X16365765Y19227154D01*
X16365767Y19227146D01*
X16416898Y19103704D01*
X16416899Y19103702D01*
X16491129Y18992610D01*
X16491132Y18992606D01*
X16585605Y18898133D01*
X16585609Y18898130D01*
X16696704Y18823898D01*
X16820147Y18772767D01*
X16841101Y18768599D01*
X16951190Y18746700D01*
X16951193Y18746700D01*
X17084809Y18746700D01*
X17150777Y18759823D01*
X17215853Y18772767D01*
X17339296Y18823898D01*
X17450391Y18898130D01*
X17544870Y18992609D01*
X17619102Y19103704D01*
X17670233Y19227147D01*
X17690971Y19331403D01*
X17696300Y19358191D01*
X17696300Y20591810D01*
X17671348Y20717247D01*
X17670233Y20722853D01*
X17619102Y20846296D01*
X17544870Y20957391D01*
X17544867Y20957395D01*
X17450394Y21051868D01*
X17450390Y21051871D01*
X17339298Y21126101D01*
X17339296Y21126102D01*
X17215854Y21177233D01*
X17215846Y21177235D01*
X17084809Y21203300D01*
X17084807Y21203300D01*
X16951193Y21203300D01*
X16951191Y21203300D01*
X16820153Y21177235D01*
X16820145Y21177233D01*
X16696703Y21126102D01*
X16696701Y21126101D01*
X16585609Y21051871D01*
X16585605Y21051868D01*
X16491132Y20957395D01*
X16491129Y20957391D01*
X16416899Y20846299D01*
X16416898Y20846297D01*
X16365764Y20722846D01*
X16365258Y20721178D01*
X16364756Y20720413D01*
X16363436Y20717225D01*
X16362831Y20717476D01*
X16326954Y20662744D01*
X16263139Y20634295D01*
X16194073Y20644863D01*
X16141685Y20691093D01*
X16126826Y20725100D01*
X16126281Y20727135D01*
X16050515Y20858365D01*
X15943365Y20965515D01*
X15860830Y21013167D01*
X15812136Y21041281D01*
X15718504Y21066369D01*
X15665766Y21080500D01*
X15514234Y21080500D01*
X15367863Y21041281D01*
X15236635Y20965515D01*
X15236632Y20965513D01*
X15129487Y20858368D01*
X15129485Y20858365D01*
X15053719Y20727137D01*
X15020030Y20601405D01*
X15014500Y20580766D01*
X12015909Y20580766D01*
X12028903Y20588268D01*
X12114232Y20673597D01*
X12174568Y20778103D01*
X12205800Y20894664D01*
X12205800Y21015336D01*
X12174568Y21131897D01*
X12114232Y21236403D01*
X12028903Y21321732D01*
X12009670Y21332836D01*
X18846100Y21332836D01*
X18846100Y21212164D01*
X18877332Y21095603D01*
X18937668Y20991097D01*
X19022997Y20905768D01*
X19127503Y20845432D01*
X19244064Y20814200D01*
X19244066Y20814200D01*
X19364734Y20814200D01*
X19364736Y20814200D01*
X19481297Y20845432D01*
X19585803Y20905768D01*
X19671132Y20991097D01*
X19685126Y21015336D01*
X20179200Y21015336D01*
X20179200Y20894664D01*
X20210432Y20778103D01*
X20270768Y20673597D01*
X20356097Y20588268D01*
X20460603Y20527932D01*
X20577164Y20496700D01*
X20577166Y20496700D01*
X20697834Y20496700D01*
X20697836Y20496700D01*
X20814397Y20527932D01*
X20918903Y20588268D01*
X21004232Y20673597D01*
X21064568Y20778103D01*
X21095800Y20894664D01*
X21095800Y21015336D01*
X21064568Y21131897D01*
X21004232Y21236403D01*
X20918903Y21321732D01*
X20814397Y21382068D01*
X20697836Y21413300D01*
X20577164Y21413300D01*
X20460603Y21382068D01*
X20460602Y21382068D01*
X20356098Y21321733D01*
X20356095Y21321731D01*
X20270769Y21236405D01*
X20270767Y21236402D01*
X20210432Y21131898D01*
X20210432Y21131897D01*
X20179200Y21015336D01*
X19685126Y21015336D01*
X19714590Y21066369D01*
X19725614Y21085463D01*
X19728410Y21090307D01*
X19731468Y21095603D01*
X19762700Y21212164D01*
X19762700Y21332836D01*
X19731468Y21449397D01*
X19671132Y21553903D01*
X19585803Y21639232D01*
X19481297Y21699568D01*
X19364736Y21730800D01*
X19244064Y21730800D01*
X19127503Y21699568D01*
X19127502Y21699568D01*
X19022998Y21639233D01*
X19022995Y21639231D01*
X18937669Y21553905D01*
X18937667Y21553902D01*
X18877332Y21449398D01*
X18877332Y21449397D01*
X18846100Y21332836D01*
X12009670Y21332836D01*
X11924397Y21382068D01*
X11807836Y21413300D01*
X11687164Y21413300D01*
X11570603Y21382068D01*
X11570602Y21382068D01*
X11466098Y21321733D01*
X11466095Y21321731D01*
X11380769Y21236405D01*
X11380767Y21236402D01*
X11320432Y21131898D01*
X11320432Y21131897D01*
X11289200Y21015336D01*
X10077073Y21015336D01*
X10032136Y21041281D01*
X9938504Y21066369D01*
X9885766Y21080500D01*
X9734234Y21080500D01*
X9587863Y21041281D01*
X9456635Y20965515D01*
X9456632Y20965513D01*
X9349487Y20858368D01*
X9349485Y20858365D01*
X9273718Y20727135D01*
X9273717Y20727133D01*
X9273170Y20725088D01*
X9272237Y20723559D01*
X9270611Y20719631D01*
X9269998Y20719885D01*
X9236803Y20665430D01*
X9173955Y20634903D01*
X9104580Y20643201D01*
X9050704Y20687688D01*
X9036616Y20717247D01*
X9036564Y20717225D01*
X9036145Y20718237D01*
X9034736Y20721193D01*
X9034234Y20722847D01*
X9034233Y20722853D01*
X8983102Y20846296D01*
X8908870Y20957391D01*
X8908867Y20957395D01*
X8814394Y21051868D01*
X8814390Y21051871D01*
X8703298Y21126101D01*
X8703296Y21126102D01*
X8579854Y21177233D01*
X8579846Y21177235D01*
X8448809Y21203300D01*
X8448807Y21203300D01*
X8315193Y21203300D01*
X8315191Y21203300D01*
X8184153Y21177235D01*
X8184145Y21177233D01*
X8060703Y21126102D01*
X8060701Y21126101D01*
X7949609Y21051871D01*
X7949605Y21051868D01*
X7855132Y20957395D01*
X7855129Y20957391D01*
X7780899Y20846299D01*
X7780898Y20846297D01*
X7729767Y20722855D01*
X7729765Y20722847D01*
X7703700Y20591810D01*
X7703700Y20591807D01*
X7703700Y19358193D01*
X7703700Y19358191D01*
X7703699Y19358191D01*
X7324944Y19358191D01*
X7266403Y19416732D01*
X7161897Y19477068D01*
X7045336Y19508300D01*
X6924664Y19508300D01*
X6808103Y19477068D01*
X6808102Y19477068D01*
X6703598Y19416733D01*
X6703595Y19416731D01*
X6618269Y19331405D01*
X6618267Y19331402D01*
X6557932Y19226898D01*
X6557932Y19226897D01*
X6526700Y19110336D01*
X76700Y19110336D01*
X76700Y20697836D01*
X811700Y20697836D01*
X811700Y20577164D01*
X842932Y20460603D01*
X903268Y20356097D01*
X988597Y20270768D01*
X1093103Y20210432D01*
X1209664Y20179200D01*
X1209666Y20179200D01*
X1330334Y20179200D01*
X1330336Y20179200D01*
X1446897Y20210432D01*
X1551403Y20270768D01*
X1636732Y20356097D01*
X1697068Y20460603D01*
X1728300Y20577164D01*
X1728300Y20697836D01*
X1697068Y20814397D01*
X1636732Y20918903D01*
X1551403Y21004232D01*
X1446897Y21064568D01*
X1330336Y21095800D01*
X1209664Y21095800D01*
X1093103Y21064568D01*
X1093102Y21064568D01*
X988598Y21004233D01*
X988595Y21004231D01*
X903269Y20918905D01*
X903267Y20918902D01*
X842932Y20814398D01*
X842932Y20814397D01*
X811700Y20697836D01*
X76700Y20697836D01*
X76700Y22978005D01*
X739500Y22978005D01*
X739500Y22741996D01*
X739501Y22741980D01*
X757819Y22602836D01*
X770307Y22507986D01*
X777226Y22482165D01*
X831394Y22280007D01*
X921714Y22061955D01*
X921719Y22061944D01*
X992677Y21939043D01*
X1039727Y21857550D01*
X1039729Y21857547D01*
X1039730Y21857546D01*
X1183406Y21670303D01*
X1183412Y21670296D01*
X1350295Y21503413D01*
X1350302Y21503407D01*
X1460306Y21418999D01*
X1537550Y21359727D01*
X1639263Y21301003D01*
X1741943Y21241720D01*
X1741948Y21241718D01*
X1741951Y21241716D01*
X1960007Y21151394D01*
X2105616Y21112378D01*
X2165276Y21076014D01*
X2195805Y21013167D01*
X2187510Y20943792D01*
X2177130Y20926059D01*
X2177332Y20925942D01*
X2112932Y20814398D01*
X2112932Y20814397D01*
X2081700Y20697836D01*
X2081700Y20577164D01*
X2112932Y20460603D01*
X2173268Y20356097D01*
X2258597Y20270768D01*
X2363103Y20210432D01*
X2479664Y20179200D01*
X2479666Y20179200D01*
X2600334Y20179200D01*
X2600336Y20179200D01*
X2716897Y20210432D01*
X2821403Y20270768D01*
X2906732Y20356097D01*
X2908861Y20359786D01*
X2911473Y20362276D01*
X2911682Y20362548D01*
X2911724Y20362516D01*
X2959427Y20408002D01*
X3028034Y20421227D01*
X3092899Y20395261D01*
X3123639Y20359785D01*
X3125766Y20356099D01*
X3125768Y20356097D01*
X3211097Y20270768D01*
X3315603Y20210432D01*
X3432164Y20179200D01*
X3432166Y20179200D01*
X3552834Y20179200D01*
X3552836Y20179200D01*
X3669397Y20210432D01*
X3773903Y20270768D01*
X3859232Y20356097D01*
X3919568Y20460603D01*
X3950800Y20577164D01*
X3950800Y20697836D01*
X3919568Y20814397D01*
X3859232Y20918903D01*
X3773903Y21004232D01*
X3669397Y21064568D01*
X3552836Y21095800D01*
X3548089Y21095800D01*
X3481050Y21115485D01*
X3435295Y21168289D01*
X3425351Y21237447D01*
X3454376Y21301003D01*
X3486085Y21327185D01*
X3542450Y21359727D01*
X3729699Y21503408D01*
X3896592Y21670301D01*
X4040273Y21857550D01*
X4158284Y22061951D01*
X4248606Y22280007D01*
X4309693Y22507986D01*
X4322180Y22602836D01*
X10019200Y22602836D01*
X10019200Y22482164D01*
X10050432Y22365603D01*
X10110768Y22261097D01*
X10196097Y22175768D01*
X10300603Y22115432D01*
X10417164Y22084200D01*
X10417166Y22084200D01*
X10537834Y22084200D01*
X10537836Y22084200D01*
X10654397Y22115432D01*
X10758903Y22175768D01*
X10844232Y22261097D01*
X10904568Y22365603D01*
X10935800Y22482164D01*
X10935800Y22602836D01*
X14521798Y22602836D01*
X14521798Y22482164D01*
X14553030Y22365603D01*
X14613366Y22261097D01*
X14698695Y22175768D01*
X14803201Y22115432D01*
X14919762Y22084200D01*
X14919764Y22084200D01*
X15040432Y22084200D01*
X15040434Y22084200D01*
X15156995Y22115432D01*
X15261501Y22175768D01*
X15346830Y22261097D01*
X15407166Y22365603D01*
X15438398Y22482164D01*
X15438398Y22602836D01*
X15407166Y22719397D01*
X15346830Y22823903D01*
X15261501Y22909232D01*
X15156995Y22969568D01*
X15125507Y22978005D01*
X21059500Y22978005D01*
X21059500Y22741996D01*
X21059501Y22741980D01*
X21077819Y22602836D01*
X21090307Y22507986D01*
X21097226Y22482165D01*
X21151394Y22280007D01*
X21241714Y22061955D01*
X21241719Y22061944D01*
X21312677Y21939043D01*
X21359727Y21857550D01*
X21359729Y21857547D01*
X21359730Y21857546D01*
X21503406Y21670303D01*
X21503412Y21670296D01*
X21670295Y21503413D01*
X21670302Y21503407D01*
X21780306Y21418999D01*
X21857550Y21359727D01*
X21959263Y21301003D01*
X22061943Y21241720D01*
X22061948Y21241718D01*
X22061951Y21241716D01*
X22280007Y21151394D01*
X22507986Y21090307D01*
X22741989Y21059500D01*
X22741996Y21059500D01*
X22978004Y21059500D01*
X22978011Y21059500D01*
X23212014Y21090307D01*
X23439993Y21151394D01*
X23658049Y21241716D01*
X23862450Y21359727D01*
X24049699Y21503408D01*
X24216592Y21670301D01*
X24360273Y21857550D01*
X24478284Y22061951D01*
X24568606Y22280007D01*
X24629693Y22507986D01*
X24660500Y22741989D01*
X24660500Y22978011D01*
X24629693Y23212014D01*
X24568606Y23439993D01*
X24478284Y23658049D01*
X24478282Y23658052D01*
X24478280Y23658057D01*
X24431429Y23739204D01*
X24360273Y23862450D01*
X24216592Y24049699D01*
X24216587Y24049705D01*
X24049704Y24216588D01*
X24049697Y24216594D01*
X23862454Y24360270D01*
X23862453Y24360271D01*
X23862450Y24360273D01*
X23780957Y24407323D01*
X23658056Y24478281D01*
X23658045Y24478286D01*
X23439993Y24568606D01*
X23212010Y24629694D01*
X22978020Y24660499D01*
X22978017Y24660500D01*
X22978011Y24660500D01*
X22741989Y24660500D01*
X22741983Y24660500D01*
X22741979Y24660499D01*
X22507989Y24629694D01*
X22280006Y24568606D01*
X22061954Y24478286D01*
X22061943Y24478281D01*
X21857545Y24360270D01*
X21670302Y24216594D01*
X21670295Y24216588D01*
X21503412Y24049705D01*
X21503406Y24049698D01*
X21359730Y23862455D01*
X21241719Y23658057D01*
X21241714Y23658046D01*
X21151394Y23439994D01*
X21090306Y23212011D01*
X21059501Y22978021D01*
X21059500Y22978005D01*
X15125507Y22978005D01*
X15040434Y23000800D01*
X14919762Y23000800D01*
X14803201Y22969568D01*
X14803200Y22969568D01*
X14698696Y22909233D01*
X14698693Y22909231D01*
X14613367Y22823905D01*
X14613365Y22823902D01*
X14553030Y22719398D01*
X14553030Y22719397D01*
X14521798Y22602836D01*
X10935800Y22602836D01*
X10904568Y22719397D01*
X10844232Y22823903D01*
X10758903Y22909232D01*
X10654397Y22969568D01*
X10537836Y23000800D01*
X10417164Y23000800D01*
X10300603Y22969568D01*
X10300602Y22969568D01*
X10196098Y22909233D01*
X10196095Y22909231D01*
X10110769Y22823905D01*
X10110767Y22823902D01*
X10050432Y22719398D01*
X10050432Y22719397D01*
X10019200Y22602836D01*
X4322180Y22602836D01*
X4340500Y22741989D01*
X4340500Y22978011D01*
X4309693Y23212014D01*
X4248606Y23439993D01*
X4158284Y23658049D01*
X4158282Y23658052D01*
X4158280Y23658057D01*
X4111429Y23739204D01*
X4040273Y23862450D01*
X4029510Y23876477D01*
X3990224Y23927676D01*
X3896593Y24049698D01*
X3896587Y24049705D01*
X3729704Y24216588D01*
X3729697Y24216594D01*
X3542454Y24360270D01*
X3542453Y24360271D01*
X3542450Y24360273D01*
X3460957Y24407323D01*
X3338056Y24478281D01*
X3338045Y24478286D01*
X3119993Y24568606D01*
X2892010Y24629694D01*
X2658020Y24660499D01*
X2658017Y24660500D01*
X2658011Y24660500D01*
X2421989Y24660500D01*
X2421983Y24660500D01*
X2421979Y24660499D01*
X2187989Y24629694D01*
X1960006Y24568606D01*
X1741954Y24478286D01*
X1741943Y24478281D01*
X1537545Y24360270D01*
X1350302Y24216594D01*
X1350295Y24216588D01*
X1183412Y24049705D01*
X1183406Y24049698D01*
X1039730Y23862455D01*
X921719Y23658057D01*
X921714Y23658046D01*
X831394Y23439994D01*
X770306Y23212011D01*
X739501Y22978021D01*
X739500Y22978005D01*
X76700Y22978005D01*
X76700Y25199300D01*
X96385Y25266339D01*
X149189Y25312094D01*
X200700Y25323300D01*
X7915565Y25323300D01*
X7982604Y25303615D01*
G37*
%TD.AperFunction*%
%TD*%
M02*
