%TF.GenerationSoftware,KiCad,Pcbnew,9.0.1*%
%TF.CreationDate,2025-09-03T15:01:39-06:00*%
%TF.ProjectId,SparkFun_Qwiic_GNSS_SAM-M8Q,53706172-6b46-4756-9e5f-51776969635f,v10*%
%TF.SameCoordinates,Original*%
%TF.FileFunction,Copper,L2,Inr*%
%TF.FilePolarity,Positive*%
%FSLAX46Y46*%
G04 Gerber Fmt 4.6, Leading zero omitted, Abs format (unit mm)*
G04 Created by KiCad (PCBNEW 9.0.1) date 2025-09-03 15:01:39*
%MOMM*%
%LPD*%
G01*
G04 APERTURE LIST*
%TA.AperFunction,ComponentPad*%
%ADD10C,1.879600*%
%TD*%
%TA.AperFunction,ComponentPad*%
%ADD11O,1.000000X1.600000*%
%TD*%
%TA.AperFunction,ComponentPad*%
%ADD12O,1.000000X2.100000*%
%TD*%
%TA.AperFunction,ViaPad*%
%ADD13C,0.560000*%
%TD*%
%TA.AperFunction,Conductor*%
%ADD14C,0.177800*%
%TD*%
G04 APERTURE END LIST*
D10*
%TO.N,3.3V*%
%TO.C,J3*%
X10160000Y1270000D03*
%TD*%
D11*
%TO.N,unconnected-(J4-NC-PadNC1)*%
%TO.C,J4*%
X17018000Y24155000D03*
D12*
%TO.N,unconnected-(J4-NC-PadNC2)*%
X17018000Y19975000D03*
%TO.N,unconnected-(J4-NC-PadNC3)*%
X8382000Y19975000D03*
D11*
%TO.N,GND*%
X8382000Y24155000D03*
%TD*%
D13*
%TO.N,3.3V*%
X4445000Y18415000D03*
X4127500Y7302500D03*
X7620000Y16827500D03*
X11747500Y20955000D03*
X8572500Y13221300D03*
X20637500Y14932402D03*
X2540000Y20637500D03*
X24765000Y20320000D03*
X22225000Y12382500D03*
X3492500Y13652500D03*
%TO.N,GND*%
X18097500Y8890000D03*
X20955000Y16192500D03*
X5715000Y24447500D03*
X9207500Y21272500D03*
X21590000Y18097500D03*
X6032500Y7302500D03*
X16192500Y21272500D03*
X22860000Y16192500D03*
X3492500Y14605000D03*
X11747500Y16713800D03*
X9525000Y17780000D03*
X19300000Y16500000D03*
X21590000Y24765000D03*
X7620000Y8890000D03*
X17780000Y6350000D03*
X24447500Y8572500D03*
X4445000Y15557500D03*
X635000Y8255000D03*
X23926200Y12065000D03*
X8890000Y8255000D03*
X13335000Y13017500D03*
X4445000Y20320000D03*
X7620000Y15557500D03*
X6032500Y19050000D03*
X20637500Y8890000D03*
%TO.N,SDA*%
X3810000Y12065000D03*
X10795000Y8890000D03*
X10795000Y12065000D03*
X21906404Y13019692D03*
%TO.N,SCL*%
X3492500Y10477500D03*
X9842500Y11430000D03*
X21907500Y14200000D03*
%TO.N,Net-(JP1-A)*%
X1905000Y5397500D03*
%TO.N,VBUS*%
X10477500Y22542500D03*
X14980098Y22542500D03*
%TO.N,TX*%
X16827500Y9207500D03*
X16827500Y15944900D03*
%TO.N,V_BCKP*%
X8572500Y14922500D03*
X10477500Y13652500D03*
X6985000Y19050000D03*
%TO.N,RX*%
X17780000Y16192500D03*
X20637500Y20955000D03*
X19304400Y21272500D03*
%TO.N,Net-(U4-V3)*%
X9525000Y16510000D03*
X16193596Y16507808D03*
%TO.N,Net-(U1-RXD)*%
X15875000Y14605000D03*
%TO.N,Net-(U1-TXD)*%
X16192500Y12700000D03*
%TO.N,~{RST}*%
X12700000Y10795000D03*
X12700000Y17145000D03*
X15240000Y8890000D03*
%TO.N,Net-(JP2-C)*%
X3492500Y20637500D03*
%TO.N,Net-(JP2-A)*%
X1270000Y20637500D03*
%TO.N,Net-(JP3-A)*%
X24765000Y13970000D03*
%TO.N,Net-(JP4-A)*%
X15875000Y17145000D03*
%TO.N,Net-(JP5-A)*%
X16193596Y17782192D03*
%TO.N,EXTINT*%
X9525000Y15121300D03*
%TO.N,~{SAFE}*%
X7937500Y9842500D03*
%TD*%
D14*
%TO.N,SDA*%
X21906404Y13018596D02*
X21906404Y13019692D01*
X21067700Y12177700D02*
X21907500Y13017500D01*
X4014800Y12177700D02*
X21067700Y12177700D01*
X3902100Y12065000D02*
X4014800Y12177700D01*
X3810000Y12065000D02*
X3902100Y12065000D01*
X21907500Y13017500D02*
X21906404Y13018596D01*
%TO.N,SCL*%
X22947500Y14200000D02*
X21907500Y14200000D01*
X23495000Y13652500D02*
X22947500Y14200000D01*
X23495000Y12382500D02*
X23495000Y13652500D01*
X4445000Y11430000D02*
X22542500Y11430000D01*
X3492500Y10477500D02*
X4445000Y11430000D01*
X22542500Y11430000D02*
X23495000Y12382500D01*
%TD*%
%TA.AperFunction,Conductor*%
%TO.N,3.3V*%
G36*
X8149428Y25303615D02*
G01*
X8195183Y25250811D01*
X8205127Y25181653D01*
X8176102Y25118097D01*
X8129841Y25084739D01*
X8060703Y25056102D01*
X8060701Y25056101D01*
X7949609Y24981871D01*
X7949605Y24981868D01*
X7855132Y24887395D01*
X7855129Y24887391D01*
X7780899Y24776299D01*
X7780898Y24776297D01*
X7729767Y24652855D01*
X7729765Y24652847D01*
X7703700Y24521810D01*
X7703700Y24521807D01*
X7703700Y23788193D01*
X7703700Y23788191D01*
X7703699Y23788191D01*
X7729765Y23657154D01*
X7729767Y23657146D01*
X7780898Y23533704D01*
X7780899Y23533702D01*
X7855129Y23422610D01*
X7855132Y23422606D01*
X7949605Y23328133D01*
X7949609Y23328130D01*
X8060704Y23253898D01*
X8184147Y23202767D01*
X8216237Y23196384D01*
X8315190Y23176700D01*
X8315193Y23176700D01*
X8448809Y23176700D01*
X8514777Y23189823D01*
X8579853Y23202767D01*
X8703296Y23253898D01*
X8814391Y23328130D01*
X8908870Y23422609D01*
X8983102Y23533704D01*
X9034233Y23657147D01*
X9060300Y23788193D01*
X9060300Y24521807D01*
X9060300Y24521810D01*
X9034234Y24652847D01*
X9034233Y24652853D01*
X8983102Y24776296D01*
X8908870Y24887391D01*
X8908867Y24887395D01*
X8814394Y24981868D01*
X8814390Y24981871D01*
X8703298Y25056101D01*
X8703296Y25056102D01*
X8634159Y25084739D01*
X8579755Y25128579D01*
X8557690Y25194873D01*
X8574969Y25262573D01*
X8626106Y25310184D01*
X8681611Y25323300D01*
X16718389Y25323300D01*
X16785428Y25303615D01*
X16831183Y25250811D01*
X16841127Y25181653D01*
X16812102Y25118097D01*
X16765841Y25084739D01*
X16696703Y25056102D01*
X16696701Y25056101D01*
X16585609Y24981871D01*
X16585605Y24981868D01*
X16491132Y24887395D01*
X16491129Y24887391D01*
X16416899Y24776299D01*
X16416898Y24776297D01*
X16365767Y24652855D01*
X16365765Y24652847D01*
X16339700Y24521810D01*
X16339700Y24521807D01*
X16339700Y23788193D01*
X16339700Y23788191D01*
X16339699Y23788191D01*
X16365765Y23657154D01*
X16365767Y23657146D01*
X16416898Y23533704D01*
X16416899Y23533702D01*
X16491129Y23422610D01*
X16491132Y23422606D01*
X16585605Y23328133D01*
X16585609Y23328130D01*
X16696704Y23253898D01*
X16820147Y23202767D01*
X16852237Y23196384D01*
X16951190Y23176700D01*
X16951193Y23176700D01*
X17084809Y23176700D01*
X17150777Y23189823D01*
X17215853Y23202767D01*
X17339296Y23253898D01*
X17450391Y23328130D01*
X17544870Y23422609D01*
X17619102Y23533704D01*
X17670233Y23657147D01*
X17696300Y23788193D01*
X17696300Y24521807D01*
X17696300Y24521810D01*
X17670234Y24652847D01*
X17670233Y24652853D01*
X17619102Y24776296D01*
X17544870Y24887391D01*
X17544867Y24887395D01*
X17450394Y24981868D01*
X17450390Y24981871D01*
X17339298Y25056101D01*
X17339296Y25056102D01*
X17270159Y25084739D01*
X17215755Y25128579D01*
X17193690Y25194873D01*
X17210969Y25262573D01*
X17262106Y25310184D01*
X17317611Y25323300D01*
X21200803Y25323300D01*
X21267842Y25303615D01*
X21313597Y25250811D01*
X21323541Y25181653D01*
X21294516Y25118097D01*
X21288484Y25111619D01*
X21223269Y25046405D01*
X21223267Y25046402D01*
X21162932Y24941898D01*
X21162932Y24941897D01*
X21131700Y24825336D01*
X21131700Y24704664D01*
X21162932Y24588103D01*
X21223268Y24483597D01*
X21308597Y24398268D01*
X21413103Y24337932D01*
X21504192Y24313526D01*
X21563850Y24277163D01*
X21594380Y24214316D01*
X21586086Y24144941D01*
X21559779Y24106071D01*
X21503405Y24049697D01*
X21359730Y23862455D01*
X21241719Y23658057D01*
X21241714Y23658046D01*
X21151394Y23439994D01*
X21090306Y23212011D01*
X21059501Y22978021D01*
X21059500Y22978005D01*
X21059500Y22741996D01*
X21059501Y22741980D01*
X21077819Y22602836D01*
X21090307Y22507986D01*
X21097226Y22482165D01*
X21151394Y22280007D01*
X21241714Y22061955D01*
X21241719Y22061944D01*
X21312677Y21939043D01*
X21359727Y21857550D01*
X21359729Y21857547D01*
X21359730Y21857546D01*
X21503406Y21670303D01*
X21503412Y21670296D01*
X21670295Y21503413D01*
X21670302Y21503407D01*
X21780306Y21418999D01*
X21857550Y21359727D01*
X21959263Y21301003D01*
X22061943Y21241720D01*
X22061948Y21241718D01*
X22061951Y21241716D01*
X22280007Y21151394D01*
X22507986Y21090307D01*
X22741989Y21059500D01*
X22741996Y21059500D01*
X22978004Y21059500D01*
X22978011Y21059500D01*
X23212014Y21090307D01*
X23439993Y21151394D01*
X23658049Y21241716D01*
X23862450Y21359727D01*
X24049699Y21503408D01*
X24216592Y21670301D01*
X24360273Y21857550D01*
X24478284Y22061951D01*
X24568606Y22280007D01*
X24629693Y22507986D01*
X24660500Y22741989D01*
X24660500Y22978011D01*
X24629693Y23212014D01*
X24568606Y23439993D01*
X24478284Y23658049D01*
X24478282Y23658052D01*
X24478280Y23658057D01*
X24403145Y23788193D01*
X24360273Y23862450D01*
X24301001Y23939694D01*
X24216593Y24049698D01*
X24216587Y24049705D01*
X24049704Y24216588D01*
X24049697Y24216594D01*
X23862454Y24360270D01*
X23862453Y24360271D01*
X23862450Y24360273D01*
X23778783Y24408578D01*
X23658056Y24478281D01*
X23658045Y24478286D01*
X23439993Y24568606D01*
X23367226Y24588104D01*
X23212014Y24629693D01*
X23212013Y24629694D01*
X23212010Y24629694D01*
X22978020Y24660499D01*
X22978017Y24660500D01*
X22978011Y24660500D01*
X22741989Y24660500D01*
X22741983Y24660500D01*
X22741979Y24660499D01*
X22507989Y24629694D01*
X22280007Y24568606D01*
X22210669Y24539886D01*
X22141200Y24532419D01*
X22078721Y24563694D01*
X22043069Y24623784D01*
X22043443Y24686541D01*
X22048300Y24704664D01*
X22048300Y24825336D01*
X22017068Y24941897D01*
X21956732Y25046403D01*
X21891516Y25111619D01*
X21858031Y25172942D01*
X21863015Y25242634D01*
X21904887Y25298567D01*
X21970351Y25322984D01*
X21979197Y25323300D01*
X25199300Y25323300D01*
X25266339Y25303615D01*
X25312094Y25250811D01*
X25323300Y25199300D01*
X25323300Y14359197D01*
X25303615Y14292158D01*
X25250811Y14246403D01*
X25181653Y14236459D01*
X25118097Y14265484D01*
X25111619Y14271516D01*
X25046404Y14336731D01*
X25046403Y14336732D01*
X24941897Y14397068D01*
X24825336Y14428300D01*
X24704664Y14428300D01*
X24588103Y14397068D01*
X24588102Y14397068D01*
X24483598Y14336733D01*
X24483595Y14336731D01*
X24398269Y14251405D01*
X24398267Y14251402D01*
X24337932Y14146898D01*
X24337932Y14146897D01*
X24306700Y14030336D01*
X24306700Y13909664D01*
X24337932Y13793103D01*
X24398268Y13688597D01*
X24483597Y13603268D01*
X24588103Y13542932D01*
X24704664Y13511700D01*
X24704666Y13511700D01*
X24825334Y13511700D01*
X24825336Y13511700D01*
X24941897Y13542932D01*
X25046403Y13603268D01*
X25111619Y13668484D01*
X25172942Y13701969D01*
X25242634Y13696985D01*
X25298567Y13655113D01*
X25322984Y13589649D01*
X25323300Y13580803D01*
X25323300Y200700D01*
X25303615Y133661D01*
X25250811Y87906D01*
X25199300Y76700D01*
X11302247Y76700D01*
X11235208Y96385D01*
X11189453Y149189D01*
X11179509Y218347D01*
X11208534Y281903D01*
X11214566Y288381D01*
X11258219Y332035D01*
X11258223Y332040D01*
X11391424Y515377D01*
X11494316Y717312D01*
X11564346Y932842D01*
X11564346Y932845D01*
X11578151Y1020000D01*
X10602251Y1020000D01*
X10633381Y1073919D01*
X10665903Y1195292D01*
X11941499Y1195292D01*
X11970647Y1048760D01*
X11970650Y1048750D01*
X12027822Y910723D01*
X12027829Y910710D01*
X12110834Y786485D01*
X12110837Y786481D01*
X12216480Y680838D01*
X12216484Y680835D01*
X12340709Y597830D01*
X12340722Y597823D01*
X12478749Y540651D01*
X12478754Y540649D01*
X12478758Y540649D01*
X12478759Y540648D01*
X12625291Y511500D01*
X12625294Y511500D01*
X12774708Y511500D01*
X12873292Y531111D01*
X12921246Y540649D01*
X13059284Y597826D01*
X13183516Y680835D01*
X13289165Y786484D01*
X13372174Y910716D01*
X13429351Y1048754D01*
X13443345Y1119106D01*
X13458500Y1195292D01*
X14481499Y1195292D01*
X14510647Y1048760D01*
X14510650Y1048750D01*
X14567822Y910723D01*
X14567829Y910710D01*
X14650834Y786485D01*
X14650837Y786481D01*
X14756480Y680838D01*
X14756484Y680835D01*
X14880709Y597830D01*
X14880722Y597823D01*
X15018749Y540651D01*
X15018754Y540649D01*
X15018758Y540649D01*
X15018759Y540648D01*
X15165291Y511500D01*
X15165294Y511500D01*
X15314708Y511500D01*
X15413292Y531111D01*
X15461246Y540649D01*
X15599284Y597826D01*
X15723516Y680835D01*
X15829165Y786484D01*
X15912174Y910716D01*
X15969351Y1048754D01*
X15983345Y1119106D01*
X15998500Y1195292D01*
X17021499Y1195292D01*
X17050647Y1048760D01*
X17050650Y1048750D01*
X17107822Y910723D01*
X17107829Y910710D01*
X17190834Y786485D01*
X17190837Y786481D01*
X17296480Y680838D01*
X17296484Y680835D01*
X17420709Y597830D01*
X17420722Y597823D01*
X17558749Y540651D01*
X17558754Y540649D01*
X17558758Y540649D01*
X17558759Y540648D01*
X17705291Y511500D01*
X17705294Y511500D01*
X17854708Y511500D01*
X17953292Y531111D01*
X18001246Y540649D01*
X18139284Y597826D01*
X18263516Y680835D01*
X18369165Y786484D01*
X18452174Y910716D01*
X18509351Y1048754D01*
X18523345Y1119106D01*
X18538500Y1195292D01*
X18538500Y1344709D01*
X18509352Y1491241D01*
X18509351Y1491242D01*
X18509351Y1491246D01*
X18490173Y1537546D01*
X18452177Y1629278D01*
X18452170Y1629291D01*
X18369165Y1753516D01*
X18369162Y1753520D01*
X18263519Y1859163D01*
X18263515Y1859166D01*
X18139290Y1942171D01*
X18139277Y1942178D01*
X18001250Y1999350D01*
X18001240Y1999353D01*
X17854708Y2028500D01*
X17854706Y2028500D01*
X17705294Y2028500D01*
X17705292Y2028500D01*
X17558759Y1999353D01*
X17558749Y1999350D01*
X17420722Y1942178D01*
X17420709Y1942171D01*
X17296484Y1859166D01*
X17296480Y1859163D01*
X17190837Y1753520D01*
X17190834Y1753516D01*
X17107829Y1629291D01*
X17107822Y1629278D01*
X17050650Y1491251D01*
X17050647Y1491241D01*
X17021500Y1344709D01*
X17021500Y1344706D01*
X17021500Y1195294D01*
X17021500Y1195292D01*
X17021499Y1195292D01*
X15998500Y1195292D01*
X15998500Y1344709D01*
X15969352Y1491241D01*
X15969351Y1491242D01*
X15969351Y1491246D01*
X15950173Y1537546D01*
X15912177Y1629278D01*
X15912170Y1629291D01*
X15829165Y1753516D01*
X15829162Y1753520D01*
X15723519Y1859163D01*
X15723515Y1859166D01*
X15599290Y1942171D01*
X15599277Y1942178D01*
X15461250Y1999350D01*
X15461240Y1999353D01*
X15314708Y2028500D01*
X15314706Y2028500D01*
X15165294Y2028500D01*
X15165292Y2028500D01*
X15018759Y1999353D01*
X15018749Y1999350D01*
X14880722Y1942178D01*
X14880709Y1942171D01*
X14756484Y1859166D01*
X14756480Y1859163D01*
X14650837Y1753520D01*
X14650834Y1753516D01*
X14567829Y1629291D01*
X14567822Y1629278D01*
X14510650Y1491251D01*
X14510647Y1491241D01*
X14481500Y1344709D01*
X14481500Y1344706D01*
X14481500Y1195294D01*
X14481500Y1195292D01*
X14481499Y1195292D01*
X13458500Y1195292D01*
X13458500Y1344709D01*
X13429352Y1491241D01*
X13429351Y1491242D01*
X13429351Y1491246D01*
X13410173Y1537546D01*
X13372177Y1629278D01*
X13372170Y1629291D01*
X13289165Y1753516D01*
X13289162Y1753520D01*
X13183519Y1859163D01*
X13183515Y1859166D01*
X13059290Y1942171D01*
X13059277Y1942178D01*
X12921250Y1999350D01*
X12921240Y1999353D01*
X12774708Y2028500D01*
X12774706Y2028500D01*
X12625294Y2028500D01*
X12625292Y2028500D01*
X12478759Y1999353D01*
X12478749Y1999350D01*
X12340722Y1942178D01*
X12340709Y1942171D01*
X12216484Y1859166D01*
X12216480Y1859163D01*
X12110837Y1753520D01*
X12110834Y1753516D01*
X12027829Y1629291D01*
X12027822Y1629278D01*
X11970650Y1491251D01*
X11970647Y1491241D01*
X11941500Y1344709D01*
X11941500Y1344706D01*
X11941500Y1195294D01*
X11941500Y1195292D01*
X11941499Y1195292D01*
X10665903Y1195292D01*
X10668000Y1203120D01*
X10668000Y1336880D01*
X10633381Y1466081D01*
X10602251Y1520000D01*
X11578151Y1520000D01*
X11564346Y1607156D01*
X11564346Y1607159D01*
X11494316Y1822689D01*
X11391424Y2024624D01*
X11258223Y2207961D01*
X11258219Y2207966D01*
X11097965Y2368220D01*
X11097960Y2368224D01*
X10914623Y2501425D01*
X10712688Y2604317D01*
X10653604Y2623514D01*
X10497156Y2674347D01*
X10410000Y2688152D01*
X10410000Y1712252D01*
X10356081Y1743381D01*
X10226880Y1778000D01*
X10093120Y1778000D01*
X9963919Y1743381D01*
X9910000Y1712252D01*
X9910000Y2688152D01*
X9822844Y2674347D01*
X9822841Y2674347D01*
X9607311Y2604317D01*
X9405376Y2501425D01*
X9222039Y2368224D01*
X9222034Y2368220D01*
X9061780Y2207966D01*
X9061776Y2207961D01*
X8928575Y2024624D01*
X8825683Y1822689D01*
X8755653Y1607159D01*
X8755653Y1607156D01*
X8741849Y1520000D01*
X9717749Y1520000D01*
X9686619Y1466081D01*
X9652000Y1336880D01*
X9652000Y1203120D01*
X9686619Y1073919D01*
X9717749Y1020000D01*
X8741849Y1020000D01*
X8755653Y932845D01*
X8755653Y932842D01*
X8825683Y717312D01*
X8928575Y515377D01*
X9061776Y332040D01*
X9061780Y332035D01*
X9105434Y288381D01*
X9138919Y227058D01*
X9133935Y157366D01*
X9092063Y101433D01*
X9026599Y77016D01*
X9017753Y76700D01*
X200700Y76700D01*
X133661Y96385D01*
X87906Y149189D01*
X76700Y200700D01*
X76700Y2658005D01*
X739500Y2658005D01*
X739500Y2421996D01*
X739501Y2421980D01*
X770306Y2187990D01*
X831394Y1960007D01*
X921714Y1741955D01*
X921719Y1741944D01*
X959503Y1676502D01*
X1039727Y1537550D01*
X1039729Y1537547D01*
X1039730Y1537546D01*
X1183406Y1350303D01*
X1183412Y1350296D01*
X1350295Y1183413D01*
X1350301Y1183408D01*
X1537550Y1039727D01*
X1668918Y963882D01*
X1741943Y921720D01*
X1741948Y921718D01*
X1741951Y921716D01*
X1960007Y831394D01*
X2187986Y770307D01*
X2421989Y739500D01*
X2421996Y739500D01*
X2658004Y739500D01*
X2658011Y739500D01*
X2892014Y770307D01*
X3119993Y831394D01*
X3338049Y921716D01*
X3542450Y1039727D01*
X3729699Y1183408D01*
X3741583Y1195292D01*
X6861499Y1195292D01*
X6890647Y1048760D01*
X6890650Y1048750D01*
X6947822Y910723D01*
X6947829Y910710D01*
X7030834Y786485D01*
X7030837Y786481D01*
X7136480Y680838D01*
X7136484Y680835D01*
X7260709Y597830D01*
X7260722Y597823D01*
X7398749Y540651D01*
X7398754Y540649D01*
X7398758Y540649D01*
X7398759Y540648D01*
X7545291Y511500D01*
X7545294Y511500D01*
X7694708Y511500D01*
X7793292Y531111D01*
X7841246Y540649D01*
X7979284Y597826D01*
X8103516Y680835D01*
X8209165Y786484D01*
X8292174Y910716D01*
X8349351Y1048754D01*
X8363345Y1119106D01*
X8378500Y1195292D01*
X8378500Y1339142D01*
X8378500Y1344706D01*
X8349351Y1491246D01*
X8330173Y1537546D01*
X8292177Y1629278D01*
X8292170Y1629291D01*
X8209165Y1753516D01*
X8209162Y1753520D01*
X8103519Y1859163D01*
X8103515Y1859166D01*
X7979290Y1942171D01*
X7979277Y1942178D01*
X7841250Y1999350D01*
X7841240Y1999353D01*
X7694708Y2028500D01*
X7694706Y2028500D01*
X7545294Y2028500D01*
X7545292Y2028500D01*
X7398759Y1999353D01*
X7398749Y1999350D01*
X7260722Y1942178D01*
X7260709Y1942171D01*
X7136484Y1859166D01*
X7136480Y1859163D01*
X7030837Y1753520D01*
X7030834Y1753516D01*
X6947829Y1629291D01*
X6947822Y1629278D01*
X6890650Y1491251D01*
X6890647Y1491241D01*
X6861500Y1344709D01*
X6861500Y1344706D01*
X6861500Y1195294D01*
X6861500Y1195292D01*
X6861499Y1195292D01*
X3741583Y1195292D01*
X3896592Y1350301D01*
X3957499Y1429676D01*
X4004737Y1491239D01*
X4040273Y1537550D01*
X4158284Y1741951D01*
X4248606Y1960007D01*
X4309693Y2187986D01*
X4340500Y2421989D01*
X4340500Y2658011D01*
X4330051Y2737380D01*
X21059500Y2737380D01*
X21059500Y2501371D01*
X21059501Y2501355D01*
X21077028Y2368220D01*
X21090307Y2267361D01*
X21111576Y2187986D01*
X21151394Y2039382D01*
X21241714Y1821330D01*
X21241719Y1821319D01*
X21287541Y1741955D01*
X21359727Y1616925D01*
X21359729Y1616922D01*
X21359730Y1616921D01*
X21503406Y1429678D01*
X21503412Y1429671D01*
X21670295Y1262788D01*
X21670302Y1262782D01*
X21758257Y1195292D01*
X21857550Y1119102D01*
X21979386Y1048760D01*
X22061943Y1001095D01*
X22061948Y1001093D01*
X22061951Y1001091D01*
X22280007Y910769D01*
X22507986Y849682D01*
X22741989Y818875D01*
X22741996Y818875D01*
X22978004Y818875D01*
X22978011Y818875D01*
X23212014Y849682D01*
X23439993Y910769D01*
X23658049Y1001091D01*
X23862450Y1119102D01*
X24049699Y1262783D01*
X24216592Y1429676D01*
X24360273Y1616925D01*
X24478284Y1821326D01*
X24568606Y2039382D01*
X24629693Y2267361D01*
X24660500Y2501364D01*
X24660500Y2737386D01*
X24629693Y2971389D01*
X24568606Y3199368D01*
X24478284Y3417424D01*
X24478282Y3417427D01*
X24478280Y3417432D01*
X24406097Y3542455D01*
X24360273Y3621825D01*
X24277499Y3729698D01*
X24216593Y3809073D01*
X24216587Y3809080D01*
X24049704Y3975963D01*
X24049697Y3975969D01*
X23862454Y4119645D01*
X23862453Y4119646D01*
X23862450Y4119648D01*
X23776466Y4169291D01*
X23658056Y4237656D01*
X23658045Y4237661D01*
X23439993Y4327981D01*
X23212010Y4389069D01*
X22978020Y4419874D01*
X22978017Y4419875D01*
X22978011Y4419875D01*
X22741989Y4419875D01*
X22741983Y4419875D01*
X22741979Y4419874D01*
X22507989Y4389069D01*
X22280006Y4327981D01*
X22061954Y4237661D01*
X22061943Y4237656D01*
X21857545Y4119645D01*
X21670302Y3975969D01*
X21670295Y3975963D01*
X21503412Y3809080D01*
X21503406Y3809073D01*
X21359730Y3621830D01*
X21241719Y3417432D01*
X21241714Y3417421D01*
X21151394Y3199369D01*
X21090306Y2971386D01*
X21059501Y2737396D01*
X21059500Y2737380D01*
X4330051Y2737380D01*
X4309693Y2892014D01*
X4248606Y3119993D01*
X4158284Y3338049D01*
X4158282Y3338052D01*
X4158280Y3338057D01*
X4116118Y3411082D01*
X4040273Y3542450D01*
X3896592Y3729699D01*
X3896587Y3729705D01*
X3891000Y3735292D01*
X6861499Y3735292D01*
X6890647Y3588760D01*
X6890650Y3588750D01*
X6947822Y3450723D01*
X6947829Y3450710D01*
X7030834Y3326485D01*
X7030837Y3326481D01*
X7136480Y3220838D01*
X7136484Y3220835D01*
X7260709Y3137830D01*
X7260722Y3137823D01*
X7398749Y3080651D01*
X7398754Y3080649D01*
X7398758Y3080649D01*
X7398759Y3080648D01*
X7545291Y3051500D01*
X7545294Y3051500D01*
X7694708Y3051500D01*
X7793292Y3071111D01*
X7841246Y3080649D01*
X7979284Y3137826D01*
X8103516Y3220835D01*
X8209165Y3326484D01*
X8292174Y3450716D01*
X8349351Y3588754D01*
X8377387Y3729699D01*
X8378500Y3735292D01*
X9401499Y3735292D01*
X9430647Y3588760D01*
X9430650Y3588750D01*
X9487822Y3450723D01*
X9487829Y3450710D01*
X9570834Y3326485D01*
X9570837Y3326481D01*
X9676480Y3220838D01*
X9676484Y3220835D01*
X9800709Y3137830D01*
X9800722Y3137823D01*
X9938749Y3080651D01*
X9938754Y3080649D01*
X9938758Y3080649D01*
X9938759Y3080648D01*
X10085291Y3051500D01*
X10085294Y3051500D01*
X10234708Y3051500D01*
X10333292Y3071111D01*
X10381246Y3080649D01*
X10519284Y3137826D01*
X10643516Y3220835D01*
X10749165Y3326484D01*
X10832174Y3450716D01*
X10889351Y3588754D01*
X10917387Y3729699D01*
X10918500Y3735292D01*
X11941499Y3735292D01*
X11970647Y3588760D01*
X11970650Y3588750D01*
X12027822Y3450723D01*
X12027829Y3450710D01*
X12110834Y3326485D01*
X12110837Y3326481D01*
X12216480Y3220838D01*
X12216484Y3220835D01*
X12340709Y3137830D01*
X12340722Y3137823D01*
X12478749Y3080651D01*
X12478754Y3080649D01*
X12478758Y3080649D01*
X12478759Y3080648D01*
X12625291Y3051500D01*
X12625294Y3051500D01*
X12774708Y3051500D01*
X12873292Y3071111D01*
X12921246Y3080649D01*
X13059284Y3137826D01*
X13183516Y3220835D01*
X13289165Y3326484D01*
X13372174Y3450716D01*
X13429351Y3588754D01*
X13457387Y3729699D01*
X13458500Y3735292D01*
X14481499Y3735292D01*
X14510647Y3588760D01*
X14510650Y3588750D01*
X14567822Y3450723D01*
X14567829Y3450710D01*
X14650834Y3326485D01*
X14650837Y3326481D01*
X14756480Y3220838D01*
X14756484Y3220835D01*
X14880709Y3137830D01*
X14880722Y3137823D01*
X15018749Y3080651D01*
X15018754Y3080649D01*
X15018758Y3080649D01*
X15018759Y3080648D01*
X15165291Y3051500D01*
X15165294Y3051500D01*
X15314708Y3051500D01*
X15413292Y3071111D01*
X15461246Y3080649D01*
X15599284Y3137826D01*
X15723516Y3220835D01*
X15829165Y3326484D01*
X15912174Y3450716D01*
X15969351Y3588754D01*
X15997387Y3729699D01*
X15998500Y3735292D01*
X17021499Y3735292D01*
X17050647Y3588760D01*
X17050650Y3588750D01*
X17107822Y3450723D01*
X17107829Y3450710D01*
X17190834Y3326485D01*
X17190837Y3326481D01*
X17296480Y3220838D01*
X17296484Y3220835D01*
X17420709Y3137830D01*
X17420722Y3137823D01*
X17558749Y3080651D01*
X17558754Y3080649D01*
X17558758Y3080649D01*
X17558759Y3080648D01*
X17705291Y3051500D01*
X17705294Y3051500D01*
X17854708Y3051500D01*
X17953292Y3071111D01*
X18001246Y3080649D01*
X18139284Y3137826D01*
X18263516Y3220835D01*
X18369165Y3326484D01*
X18452174Y3450716D01*
X18509351Y3588754D01*
X18537387Y3729699D01*
X18538500Y3735292D01*
X18538500Y3884709D01*
X18509352Y4031241D01*
X18509351Y4031242D01*
X18509351Y4031246D01*
X18456732Y4158281D01*
X18452177Y4169278D01*
X18452170Y4169291D01*
X18369165Y4293516D01*
X18369162Y4293520D01*
X18263519Y4399163D01*
X18263515Y4399166D01*
X18139290Y4482171D01*
X18139277Y4482178D01*
X18001250Y4539350D01*
X18001240Y4539353D01*
X17854708Y4568500D01*
X17854706Y4568500D01*
X17705294Y4568500D01*
X17705292Y4568500D01*
X17558759Y4539353D01*
X17558749Y4539350D01*
X17420722Y4482178D01*
X17420709Y4482171D01*
X17296484Y4399166D01*
X17296480Y4399163D01*
X17190837Y4293520D01*
X17190834Y4293516D01*
X17107829Y4169291D01*
X17107822Y4169278D01*
X17050650Y4031251D01*
X17050647Y4031241D01*
X17021500Y3884709D01*
X17021500Y3884706D01*
X17021500Y3735294D01*
X17021500Y3735292D01*
X17021499Y3735292D01*
X15998500Y3735292D01*
X15998500Y3884709D01*
X15969352Y4031241D01*
X15969351Y4031242D01*
X15969351Y4031246D01*
X15916732Y4158281D01*
X15912177Y4169278D01*
X15912170Y4169291D01*
X15829165Y4293516D01*
X15829162Y4293520D01*
X15723519Y4399163D01*
X15723515Y4399166D01*
X15599290Y4482171D01*
X15599277Y4482178D01*
X15461250Y4539350D01*
X15461240Y4539353D01*
X15314708Y4568500D01*
X15314706Y4568500D01*
X15165294Y4568500D01*
X15165292Y4568500D01*
X15018759Y4539353D01*
X15018749Y4539350D01*
X14880722Y4482178D01*
X14880709Y4482171D01*
X14756484Y4399166D01*
X14756480Y4399163D01*
X14650837Y4293520D01*
X14650834Y4293516D01*
X14567829Y4169291D01*
X14567822Y4169278D01*
X14510650Y4031251D01*
X14510647Y4031241D01*
X14481500Y3884709D01*
X14481500Y3884706D01*
X14481500Y3735294D01*
X14481500Y3735292D01*
X14481499Y3735292D01*
X13458500Y3735292D01*
X13458500Y3884709D01*
X13429352Y4031241D01*
X13429351Y4031242D01*
X13429351Y4031246D01*
X13376732Y4158281D01*
X13372177Y4169278D01*
X13372170Y4169291D01*
X13289165Y4293516D01*
X13289162Y4293520D01*
X13183519Y4399163D01*
X13183515Y4399166D01*
X13059290Y4482171D01*
X13059277Y4482178D01*
X12921250Y4539350D01*
X12921240Y4539353D01*
X12774708Y4568500D01*
X12774706Y4568500D01*
X12625294Y4568500D01*
X12625292Y4568500D01*
X12478759Y4539353D01*
X12478749Y4539350D01*
X12340722Y4482178D01*
X12340709Y4482171D01*
X12216484Y4399166D01*
X12216480Y4399163D01*
X12110837Y4293520D01*
X12110834Y4293516D01*
X12027829Y4169291D01*
X12027822Y4169278D01*
X11970650Y4031251D01*
X11970647Y4031241D01*
X11941500Y3884709D01*
X11941500Y3884706D01*
X11941500Y3735294D01*
X11941500Y3735292D01*
X11941499Y3735292D01*
X10918500Y3735292D01*
X10918500Y3884709D01*
X10889352Y4031241D01*
X10889351Y4031242D01*
X10889351Y4031246D01*
X10836732Y4158281D01*
X10832177Y4169278D01*
X10832170Y4169291D01*
X10749165Y4293516D01*
X10749162Y4293520D01*
X10643519Y4399163D01*
X10643515Y4399166D01*
X10519290Y4482171D01*
X10519277Y4482178D01*
X10381250Y4539350D01*
X10381240Y4539353D01*
X10234708Y4568500D01*
X10234706Y4568500D01*
X10085294Y4568500D01*
X10085292Y4568500D01*
X9938759Y4539353D01*
X9938749Y4539350D01*
X9800722Y4482178D01*
X9800709Y4482171D01*
X9676484Y4399166D01*
X9676480Y4399163D01*
X9570837Y4293520D01*
X9570834Y4293516D01*
X9487829Y4169291D01*
X9487822Y4169278D01*
X9430650Y4031251D01*
X9430647Y4031241D01*
X9401500Y3884709D01*
X9401500Y3884706D01*
X9401500Y3735294D01*
X9401500Y3735292D01*
X9401499Y3735292D01*
X8378500Y3735292D01*
X8378500Y3884709D01*
X8349352Y4031241D01*
X8349351Y4031242D01*
X8349351Y4031246D01*
X8296732Y4158281D01*
X8292177Y4169278D01*
X8292170Y4169291D01*
X8209165Y4293516D01*
X8209162Y4293520D01*
X8103519Y4399163D01*
X8103515Y4399166D01*
X7979290Y4482171D01*
X7979277Y4482178D01*
X7841250Y4539350D01*
X7841240Y4539353D01*
X7694708Y4568500D01*
X7694706Y4568500D01*
X7545294Y4568500D01*
X7545292Y4568500D01*
X7398759Y4539353D01*
X7398749Y4539350D01*
X7260722Y4482178D01*
X7260709Y4482171D01*
X7136484Y4399166D01*
X7136480Y4399163D01*
X7030837Y4293520D01*
X7030834Y4293516D01*
X6947829Y4169291D01*
X6947822Y4169278D01*
X6890650Y4031251D01*
X6890647Y4031241D01*
X6861500Y3884709D01*
X6861500Y3884706D01*
X6861500Y3735294D01*
X6861500Y3735292D01*
X6861499Y3735292D01*
X3891000Y3735292D01*
X3729704Y3896588D01*
X3729697Y3896594D01*
X3542454Y4040270D01*
X3542453Y4040271D01*
X3542450Y4040273D01*
X3460957Y4087323D01*
X3338056Y4158281D01*
X3338045Y4158286D01*
X3119993Y4248606D01*
X2892010Y4309694D01*
X2658020Y4340499D01*
X2658017Y4340500D01*
X2658011Y4340500D01*
X2421989Y4340500D01*
X2421983Y4340500D01*
X2421979Y4340499D01*
X2187989Y4309694D01*
X1960006Y4248606D01*
X1741954Y4158286D01*
X1741943Y4158281D01*
X1537545Y4040270D01*
X1350302Y3896594D01*
X1350295Y3896588D01*
X1183412Y3729705D01*
X1183406Y3729698D01*
X1039730Y3542455D01*
X921719Y3338057D01*
X921714Y3338046D01*
X831394Y3119994D01*
X770306Y2892011D01*
X739501Y2658021D01*
X739500Y2658005D01*
X76700Y2658005D01*
X76700Y5457836D01*
X1446700Y5457836D01*
X1446700Y5337164D01*
X1477932Y5220603D01*
X1538268Y5116097D01*
X1623597Y5030768D01*
X1728103Y4970432D01*
X1844664Y4939200D01*
X1844666Y4939200D01*
X1965334Y4939200D01*
X1965336Y4939200D01*
X2081897Y4970432D01*
X2186403Y5030768D01*
X2271732Y5116097D01*
X2332068Y5220603D01*
X2363300Y5337164D01*
X2363300Y5457836D01*
X2332068Y5574397D01*
X2271732Y5678903D01*
X2186403Y5764232D01*
X2081897Y5824568D01*
X1965336Y5855800D01*
X1844664Y5855800D01*
X1728103Y5824568D01*
X1728102Y5824568D01*
X1623598Y5764233D01*
X1623595Y5764231D01*
X1538269Y5678905D01*
X1538267Y5678902D01*
X1477932Y5574398D01*
X1477932Y5574397D01*
X1446700Y5457836D01*
X76700Y5457836D01*
X76700Y6410336D01*
X17321700Y6410336D01*
X17321700Y6289664D01*
X17352932Y6173103D01*
X17413268Y6068597D01*
X17498597Y5983268D01*
X17603103Y5922932D01*
X17719664Y5891700D01*
X17719666Y5891700D01*
X17840334Y5891700D01*
X17840336Y5891700D01*
X17956897Y5922932D01*
X18061403Y5983268D01*
X18146732Y6068597D01*
X18207068Y6173103D01*
X18238300Y6289664D01*
X18238300Y6410336D01*
X18207068Y6526897D01*
X18146732Y6631403D01*
X18061403Y6716732D01*
X17956897Y6777068D01*
X17840336Y6808300D01*
X17719664Y6808300D01*
X17603103Y6777068D01*
X17603102Y6777068D01*
X17498598Y6716733D01*
X17498595Y6716731D01*
X17413269Y6631405D01*
X17413267Y6631402D01*
X17352932Y6526898D01*
X17352932Y6526897D01*
X17321700Y6410336D01*
X76700Y6410336D01*
X76700Y7362836D01*
X5574200Y7362836D01*
X5574200Y7242164D01*
X5605432Y7125603D01*
X5665768Y7021097D01*
X5751097Y6935768D01*
X5855603Y6875432D01*
X5972164Y6844200D01*
X5972166Y6844200D01*
X6092834Y6844200D01*
X6092836Y6844200D01*
X6209397Y6875432D01*
X6313903Y6935768D01*
X6399232Y7021097D01*
X6459568Y7125603D01*
X6490800Y7242164D01*
X6490800Y7362836D01*
X6477433Y7412722D01*
X21142000Y7412722D01*
X21142000Y7192279D01*
X21176485Y6974548D01*
X21244603Y6764897D01*
X21244604Y6764894D01*
X21344687Y6568475D01*
X21474252Y6390142D01*
X21474256Y6390137D01*
X21630136Y6234257D01*
X21630141Y6234253D01*
X21714308Y6173103D01*
X21808478Y6104685D01*
X21936875Y6039263D01*
X22004893Y6004605D01*
X22004896Y6004604D01*
X22109721Y5970545D01*
X22214549Y5936485D01*
X22432278Y5902000D01*
X22432279Y5902000D01*
X22652721Y5902000D01*
X22652722Y5902000D01*
X22870451Y5936485D01*
X23080106Y6004605D01*
X23276522Y6104685D01*
X23454865Y6234258D01*
X23610742Y6390135D01*
X23740315Y6568478D01*
X23840395Y6764894D01*
X23908515Y6974549D01*
X23943000Y7192278D01*
X23943000Y7412722D01*
X23908515Y7630451D01*
X23840395Y7840106D01*
X23840395Y7840107D01*
X23779552Y7959516D01*
X23740315Y8036522D01*
X23625419Y8194664D01*
X23610747Y8214859D01*
X23610743Y8214864D01*
X23454863Y8370744D01*
X23454858Y8370748D01*
X23276525Y8500313D01*
X23276524Y8500314D01*
X23276522Y8500315D01*
X23217323Y8530479D01*
X23217321Y8530481D01*
X23080116Y8600391D01*
X23080103Y8600397D01*
X22980263Y8632836D01*
X23989200Y8632836D01*
X23989200Y8512164D01*
X24020432Y8395603D01*
X24080768Y8291097D01*
X24166097Y8205768D01*
X24270603Y8145432D01*
X24387164Y8114200D01*
X24387166Y8114200D01*
X24507834Y8114200D01*
X24507836Y8114200D01*
X24624397Y8145432D01*
X24728903Y8205768D01*
X24814232Y8291097D01*
X24874568Y8395603D01*
X24905800Y8512164D01*
X24905800Y8632836D01*
X24874568Y8749397D01*
X24814232Y8853903D01*
X24728903Y8939232D01*
X24624397Y8999568D01*
X24507836Y9030800D01*
X24387164Y9030800D01*
X24270603Y8999568D01*
X24270602Y8999568D01*
X24166098Y8939233D01*
X24166095Y8939231D01*
X24080769Y8853905D01*
X24080767Y8853902D01*
X24020432Y8749398D01*
X24020432Y8749397D01*
X23989200Y8632836D01*
X22980263Y8632836D01*
X22870452Y8668515D01*
X22761586Y8685758D01*
X22652722Y8703000D01*
X22432278Y8703000D01*
X22359701Y8691505D01*
X22214547Y8668515D01*
X22004896Y8600397D01*
X22004893Y8600396D01*
X21808474Y8500313D01*
X21630141Y8370748D01*
X21630136Y8370744D01*
X21474256Y8214864D01*
X21474252Y8214859D01*
X21344687Y8036526D01*
X21244604Y7840107D01*
X21244603Y7840104D01*
X21176485Y7630453D01*
X21142000Y7412722D01*
X6477433Y7412722D01*
X6459568Y7479397D01*
X6399232Y7583903D01*
X6313903Y7669232D01*
X6209397Y7729568D01*
X6092836Y7760800D01*
X5972164Y7760800D01*
X5855603Y7729568D01*
X5855602Y7729568D01*
X5751098Y7669233D01*
X5751095Y7669231D01*
X5665769Y7583905D01*
X5665767Y7583902D01*
X5605432Y7479398D01*
X5605432Y7479397D01*
X5574200Y7362836D01*
X76700Y7362836D01*
X76700Y7865803D01*
X96385Y7932842D01*
X149189Y7978597D01*
X218347Y7988541D01*
X281903Y7959516D01*
X288381Y7953484D01*
X353597Y7888268D01*
X458103Y7827932D01*
X574664Y7796700D01*
X574666Y7796700D01*
X695334Y7796700D01*
X695336Y7796700D01*
X811897Y7827932D01*
X916403Y7888268D01*
X1001732Y7973597D01*
X1062068Y8078103D01*
X1093300Y8194664D01*
X1093300Y8315336D01*
X8431700Y8315336D01*
X8431700Y8194664D01*
X8462932Y8078103D01*
X8523268Y7973597D01*
X8608597Y7888268D01*
X8713103Y7827932D01*
X8829664Y7796700D01*
X8829666Y7796700D01*
X8950334Y7796700D01*
X8950336Y7796700D01*
X9066897Y7827932D01*
X9171403Y7888268D01*
X9256732Y7973597D01*
X9317068Y8078103D01*
X9348300Y8194664D01*
X9348300Y8315336D01*
X9317068Y8431897D01*
X9256732Y8536403D01*
X9171403Y8621732D01*
X9066897Y8682068D01*
X8950336Y8713300D01*
X8829664Y8713300D01*
X8713103Y8682068D01*
X8713102Y8682068D01*
X8608598Y8621733D01*
X8608595Y8621731D01*
X8523269Y8536405D01*
X8523267Y8536402D01*
X8462932Y8431898D01*
X8462932Y8431897D01*
X8431700Y8315336D01*
X1093300Y8315336D01*
X1062068Y8431897D01*
X1001732Y8536403D01*
X916403Y8621732D01*
X811897Y8682068D01*
X695336Y8713300D01*
X574664Y8713300D01*
X458103Y8682068D01*
X458102Y8682068D01*
X353598Y8621733D01*
X353595Y8621731D01*
X288381Y8556516D01*
X227058Y8523031D01*
X157366Y8528015D01*
X101433Y8569887D01*
X77016Y8635351D01*
X76700Y8644197D01*
X76700Y8950336D01*
X7161700Y8950336D01*
X7161700Y8829664D01*
X7192932Y8713103D01*
X7253268Y8608597D01*
X7338597Y8523268D01*
X7443103Y8462932D01*
X7559664Y8431700D01*
X7559666Y8431700D01*
X7680334Y8431700D01*
X7680336Y8431700D01*
X7796897Y8462932D01*
X7901403Y8523268D01*
X7986732Y8608597D01*
X8047068Y8713103D01*
X8078300Y8829664D01*
X8078300Y8950336D01*
X10336700Y8950336D01*
X10336700Y8829664D01*
X10367932Y8713103D01*
X10428268Y8608597D01*
X10513597Y8523268D01*
X10618103Y8462932D01*
X10734664Y8431700D01*
X10734666Y8431700D01*
X10855334Y8431700D01*
X10855336Y8431700D01*
X10971897Y8462932D01*
X11076403Y8523268D01*
X11161732Y8608597D01*
X11222068Y8713103D01*
X11253300Y8829664D01*
X11253300Y8950336D01*
X14781700Y8950336D01*
X14781700Y8829664D01*
X14812932Y8713103D01*
X14873268Y8608597D01*
X14958597Y8523268D01*
X15063103Y8462932D01*
X15179664Y8431700D01*
X15179666Y8431700D01*
X15300334Y8431700D01*
X15300336Y8431700D01*
X15416897Y8462932D01*
X15521403Y8523268D01*
X15606732Y8608597D01*
X15667068Y8713103D01*
X15698300Y8829664D01*
X15698300Y8950336D01*
X15667068Y9066897D01*
X15606732Y9171403D01*
X15521403Y9256732D01*
X15502170Y9267836D01*
X16369200Y9267836D01*
X16369200Y9147164D01*
X16400432Y9030603D01*
X16460768Y8926097D01*
X16546097Y8840768D01*
X16650603Y8780432D01*
X16767164Y8749200D01*
X16767166Y8749200D01*
X16887834Y8749200D01*
X16887836Y8749200D01*
X17004397Y8780432D01*
X17108903Y8840768D01*
X17194232Y8926097D01*
X17208226Y8950336D01*
X17639200Y8950336D01*
X17639200Y8829664D01*
X17670432Y8713103D01*
X17730768Y8608597D01*
X17816097Y8523268D01*
X17920603Y8462932D01*
X18037164Y8431700D01*
X18037166Y8431700D01*
X18157834Y8431700D01*
X18157836Y8431700D01*
X18274397Y8462932D01*
X18378903Y8523268D01*
X18464232Y8608597D01*
X18524568Y8713103D01*
X18555800Y8829664D01*
X18555800Y8950336D01*
X20179200Y8950336D01*
X20179200Y8829664D01*
X20210432Y8713103D01*
X20270768Y8608597D01*
X20356097Y8523268D01*
X20460603Y8462932D01*
X20577164Y8431700D01*
X20577166Y8431700D01*
X20697834Y8431700D01*
X20697836Y8431700D01*
X20814397Y8462932D01*
X20918903Y8523268D01*
X21004232Y8608597D01*
X21064568Y8713103D01*
X21095800Y8829664D01*
X21095800Y8950336D01*
X21064568Y9066897D01*
X21004232Y9171403D01*
X20918903Y9256732D01*
X20814397Y9317068D01*
X20697836Y9348300D01*
X20577164Y9348300D01*
X20460603Y9317068D01*
X20460602Y9317068D01*
X20356098Y9256733D01*
X20356095Y9256731D01*
X20270769Y9171405D01*
X20270767Y9171402D01*
X20210432Y9066898D01*
X20210432Y9066897D01*
X20179200Y8950336D01*
X18555800Y8950336D01*
X18524568Y9066897D01*
X18464232Y9171403D01*
X18378903Y9256732D01*
X18274397Y9317068D01*
X18157836Y9348300D01*
X18037164Y9348300D01*
X17920603Y9317068D01*
X17920602Y9317068D01*
X17816098Y9256733D01*
X17816095Y9256731D01*
X17730769Y9171405D01*
X17730767Y9171402D01*
X17670432Y9066898D01*
X17670432Y9066897D01*
X17639200Y8950336D01*
X17208226Y8950336D01*
X17254568Y9030603D01*
X17285800Y9147164D01*
X17285800Y9267836D01*
X17254568Y9384397D01*
X17194232Y9488903D01*
X17108903Y9574232D01*
X17004397Y9634568D01*
X16887836Y9665800D01*
X16767164Y9665800D01*
X16650603Y9634568D01*
X16650602Y9634568D01*
X16546098Y9574233D01*
X16546095Y9574231D01*
X16460769Y9488905D01*
X16460767Y9488902D01*
X16400432Y9384398D01*
X16400432Y9384397D01*
X16369200Y9267836D01*
X15502170Y9267836D01*
X15416897Y9317068D01*
X15300336Y9348300D01*
X15179664Y9348300D01*
X15063103Y9317068D01*
X15063102Y9317068D01*
X14958598Y9256733D01*
X14958595Y9256731D01*
X14873269Y9171405D01*
X14873267Y9171402D01*
X14812932Y9066898D01*
X14812932Y9066897D01*
X14781700Y8950336D01*
X11253300Y8950336D01*
X11222068Y9066897D01*
X11161732Y9171403D01*
X11076403Y9256732D01*
X10971897Y9317068D01*
X10855336Y9348300D01*
X10734664Y9348300D01*
X10618103Y9317068D01*
X10618102Y9317068D01*
X10513598Y9256733D01*
X10513595Y9256731D01*
X10428269Y9171405D01*
X10428267Y9171402D01*
X10367932Y9066898D01*
X10367932Y9066897D01*
X10336700Y8950336D01*
X8078300Y8950336D01*
X8047068Y9066897D01*
X7986732Y9171403D01*
X7973118Y9185017D01*
X7939633Y9246340D01*
X7944617Y9316032D01*
X7986489Y9371965D01*
X8028701Y9392471D01*
X8114397Y9415432D01*
X8218903Y9475768D01*
X8304232Y9561097D01*
X8364568Y9665603D01*
X8395800Y9782164D01*
X8395800Y9902836D01*
X8364568Y10019397D01*
X8304232Y10123903D01*
X8218903Y10209232D01*
X8114397Y10269568D01*
X7997836Y10300800D01*
X7877164Y10300800D01*
X7760603Y10269568D01*
X7760602Y10269568D01*
X7656098Y10209233D01*
X7656095Y10209231D01*
X7570769Y10123905D01*
X7570767Y10123902D01*
X7510432Y10019398D01*
X7510432Y10019397D01*
X7479200Y9902836D01*
X7479200Y9782165D01*
X7510432Y9665604D01*
X7510432Y9665603D01*
X7570767Y9561099D01*
X7570769Y9561096D01*
X7584381Y9547484D01*
X7617866Y9486161D01*
X7612882Y9416469D01*
X7571010Y9360536D01*
X7528794Y9340029D01*
X7443103Y9317068D01*
X7443102Y9317068D01*
X7338598Y9256733D01*
X7338595Y9256731D01*
X7253269Y9171405D01*
X7253267Y9171402D01*
X7192932Y9066898D01*
X7192932Y9066897D01*
X7161700Y8950336D01*
X76700Y8950336D01*
X76700Y10537836D01*
X3034200Y10537836D01*
X3034200Y10417164D01*
X3065432Y10300603D01*
X3125768Y10196097D01*
X3211097Y10110768D01*
X3315603Y10050432D01*
X3432164Y10019200D01*
X3432166Y10019200D01*
X3552834Y10019200D01*
X3552836Y10019200D01*
X3669397Y10050432D01*
X3773903Y10110768D01*
X3859232Y10196097D01*
X3919568Y10300603D01*
X3950800Y10417164D01*
X3950800Y10506561D01*
X3970485Y10573600D01*
X3987119Y10594242D01*
X4519359Y11126481D01*
X4580682Y11159966D01*
X4607040Y11162800D01*
X9410203Y11162800D01*
X9477242Y11143115D01*
X9497884Y11126481D01*
X9561097Y11063268D01*
X9665603Y11002932D01*
X9782164Y10971700D01*
X9782166Y10971700D01*
X9902834Y10971700D01*
X9902836Y10971700D01*
X10019397Y11002932D01*
X10123903Y11063268D01*
X10187116Y11126481D01*
X10248439Y11159966D01*
X10274797Y11162800D01*
X12168376Y11162800D01*
X12235415Y11143115D01*
X12281170Y11090311D01*
X12291114Y11021153D01*
X12275762Y10976798D01*
X12272932Y10971898D01*
X12272932Y10971897D01*
X12241700Y10855336D01*
X12241700Y10734664D01*
X12272932Y10618103D01*
X12333268Y10513597D01*
X12418597Y10428268D01*
X12523103Y10367932D01*
X12639664Y10336700D01*
X12639666Y10336700D01*
X12760334Y10336700D01*
X12760336Y10336700D01*
X12876897Y10367932D01*
X12981403Y10428268D01*
X13066732Y10513597D01*
X13127068Y10618103D01*
X13158300Y10734664D01*
X13158300Y10855336D01*
X13127068Y10971897D01*
X13124237Y10976800D01*
X13107764Y11044698D01*
X13130615Y11110725D01*
X13185536Y11153917D01*
X13231624Y11162800D01*
X22595647Y11162800D01*
X22595649Y11162800D01*
X22693857Y11203479D01*
X23340703Y11850327D01*
X23402024Y11883810D01*
X23471715Y11878826D01*
X23527649Y11836955D01*
X23535769Y11824644D01*
X23559465Y11783601D01*
X23559467Y11783599D01*
X23559468Y11783597D01*
X23644797Y11698268D01*
X23749303Y11637932D01*
X23865864Y11606700D01*
X23865866Y11606700D01*
X23986534Y11606700D01*
X23986536Y11606700D01*
X24103097Y11637932D01*
X24207603Y11698268D01*
X24292932Y11783597D01*
X24353268Y11888103D01*
X24384500Y12004664D01*
X24384500Y12125336D01*
X24353268Y12241897D01*
X24292932Y12346403D01*
X24207603Y12431732D01*
X24103097Y12492068D01*
X23986536Y12523300D01*
X23886200Y12523300D01*
X23819161Y12542985D01*
X23773406Y12595789D01*
X23762200Y12647300D01*
X23762200Y13705648D01*
X23762199Y13705651D01*
X23747267Y13741700D01*
X23721521Y13803857D01*
X23646357Y13879021D01*
X23098857Y14426521D01*
X23094562Y14428300D01*
X23000650Y14467200D01*
X23000649Y14467200D01*
X22339797Y14467200D01*
X22272758Y14486885D01*
X22252116Y14503519D01*
X22188904Y14566731D01*
X22188903Y14566732D01*
X22084397Y14627068D01*
X21967836Y14658300D01*
X21847164Y14658300D01*
X21730603Y14627068D01*
X21730602Y14627068D01*
X21626098Y14566733D01*
X21626095Y14566731D01*
X21540769Y14481405D01*
X21540767Y14481402D01*
X21480432Y14376898D01*
X21480432Y14376897D01*
X21449200Y14260336D01*
X21449200Y14139664D01*
X21480432Y14023103D01*
X21540768Y13918597D01*
X21626097Y13833268D01*
X21730603Y13772932D01*
X21847164Y13741700D01*
X21847166Y13741700D01*
X21967834Y13741700D01*
X21967836Y13741700D01*
X22084397Y13772932D01*
X22188903Y13833268D01*
X22252116Y13896481D01*
X22313439Y13929966D01*
X22339797Y13932800D01*
X22785460Y13932800D01*
X22852499Y13913115D01*
X22873141Y13896481D01*
X23191481Y13578141D01*
X23224966Y13516818D01*
X23227800Y13490460D01*
X23227800Y12544540D01*
X23208115Y12477501D01*
X23191481Y12456859D01*
X22468141Y11733519D01*
X22406818Y11700034D01*
X22380460Y11697200D01*
X21229287Y11697200D01*
X21162248Y11716885D01*
X21116493Y11769689D01*
X21106549Y11838847D01*
X21135574Y11902403D01*
X21181833Y11935761D01*
X21219057Y11951179D01*
X21792950Y12525074D01*
X21854273Y12558558D01*
X21880631Y12561392D01*
X21966738Y12561392D01*
X21966740Y12561392D01*
X22083301Y12592624D01*
X22187807Y12652960D01*
X22273136Y12738289D01*
X22333472Y12842795D01*
X22364704Y12959356D01*
X22364704Y13080028D01*
X22333472Y13196589D01*
X22273136Y13301095D01*
X22187807Y13386424D01*
X22083301Y13446760D01*
X21966740Y13477992D01*
X21846068Y13477992D01*
X21729507Y13446760D01*
X21729506Y13446760D01*
X21625002Y13386425D01*
X21624999Y13386423D01*
X21539673Y13301097D01*
X21539671Y13301094D01*
X21479336Y13196590D01*
X21479336Y13196589D01*
X21448104Y13080028D01*
X21448104Y12987345D01*
X21428419Y12920306D01*
X21411785Y12899664D01*
X20993341Y12481219D01*
X20932018Y12447734D01*
X20905660Y12444900D01*
X16760213Y12444900D01*
X16693174Y12464585D01*
X16647419Y12517389D01*
X16637475Y12586547D01*
X16640438Y12600993D01*
X16650800Y12639664D01*
X16650800Y12760336D01*
X16619568Y12876897D01*
X16559232Y12981403D01*
X16473903Y13066732D01*
X16369397Y13127068D01*
X16252836Y13158300D01*
X16132164Y13158300D01*
X16015603Y13127068D01*
X16015602Y13127068D01*
X15911098Y13066733D01*
X15911095Y13066731D01*
X15825769Y12981405D01*
X15825767Y12981402D01*
X15765432Y12876898D01*
X15765432Y12876897D01*
X15734200Y12760336D01*
X15734200Y12639665D01*
X15744562Y12600993D01*
X15742899Y12531143D01*
X15703736Y12473281D01*
X15639508Y12445777D01*
X15624787Y12444900D01*
X13709897Y12444900D01*
X13642858Y12464585D01*
X13597103Y12517389D01*
X13587159Y12586547D01*
X13616184Y12650103D01*
X13622216Y12656581D01*
X13701732Y12736097D01*
X13762068Y12840603D01*
X13793300Y12957164D01*
X13793300Y13077836D01*
X13762068Y13194397D01*
X13701732Y13298903D01*
X13616403Y13384232D01*
X13511897Y13444568D01*
X13395336Y13475800D01*
X13274664Y13475800D01*
X13158103Y13444568D01*
X13158102Y13444568D01*
X13053598Y13384233D01*
X13053595Y13384231D01*
X12968269Y13298905D01*
X12968267Y13298902D01*
X12907932Y13194398D01*
X12907932Y13194397D01*
X12876700Y13077836D01*
X12876700Y12957164D01*
X12907932Y12840603D01*
X12967002Y12738289D01*
X12968267Y12736099D01*
X12968269Y12736096D01*
X13047784Y12656581D01*
X13081269Y12595258D01*
X13076285Y12525566D01*
X13034413Y12469633D01*
X12968949Y12445216D01*
X12960103Y12444900D01*
X11086820Y12444900D01*
X11024820Y12461513D01*
X10971899Y12492067D01*
X10971898Y12492068D01*
X10971897Y12492068D01*
X10855336Y12523300D01*
X10734664Y12523300D01*
X10618103Y12492068D01*
X10618100Y12492067D01*
X10565180Y12461513D01*
X10503180Y12444900D01*
X4101820Y12444900D01*
X4039820Y12461513D01*
X3986899Y12492067D01*
X3986898Y12492068D01*
X3986897Y12492068D01*
X3870336Y12523300D01*
X3749664Y12523300D01*
X3633103Y12492068D01*
X3633102Y12492068D01*
X3528598Y12431733D01*
X3528595Y12431731D01*
X3443269Y12346405D01*
X3443267Y12346402D01*
X3382932Y12241898D01*
X3382932Y12241897D01*
X3351700Y12125336D01*
X3351700Y12004664D01*
X3382932Y11888103D01*
X3443268Y11783597D01*
X3528597Y11698268D01*
X3633103Y11637932D01*
X3749664Y11606700D01*
X3749666Y11606700D01*
X3870333Y11606700D01*
X3870336Y11606700D01*
X3933523Y11623631D01*
X4003371Y11621968D01*
X4061234Y11582806D01*
X4088738Y11518577D01*
X4077152Y11449675D01*
X4053296Y11416175D01*
X3609240Y10972119D01*
X3547917Y10938634D01*
X3521559Y10935800D01*
X3432164Y10935800D01*
X3315603Y10904568D01*
X3315602Y10904568D01*
X3211098Y10844233D01*
X3211095Y10844231D01*
X3125769Y10758905D01*
X3125767Y10758902D01*
X3065432Y10654398D01*
X3065432Y10654397D01*
X3034200Y10537836D01*
X76700Y10537836D01*
X76700Y13712836D01*
X10019200Y13712836D01*
X10019200Y13592164D01*
X10050432Y13475603D01*
X10110768Y13371097D01*
X10196097Y13285768D01*
X10300603Y13225432D01*
X10417164Y13194200D01*
X10417166Y13194200D01*
X10537834Y13194200D01*
X10537836Y13194200D01*
X10654397Y13225432D01*
X10758903Y13285768D01*
X10844232Y13371097D01*
X10904568Y13475603D01*
X10935800Y13592164D01*
X10935800Y13712836D01*
X10904568Y13829397D01*
X10844232Y13933903D01*
X10758903Y14019232D01*
X10654397Y14079568D01*
X10537836Y14110800D01*
X10417164Y14110800D01*
X10300603Y14079568D01*
X10300602Y14079568D01*
X10196098Y14019233D01*
X10196095Y14019231D01*
X10110769Y13933905D01*
X10110767Y13933902D01*
X10050432Y13829398D01*
X10050432Y13829397D01*
X10019200Y13712836D01*
X76700Y13712836D01*
X76700Y14665336D01*
X3034200Y14665336D01*
X3034200Y14544664D01*
X3065432Y14428103D01*
X3125768Y14323597D01*
X3211097Y14238268D01*
X3315603Y14177932D01*
X3432164Y14146700D01*
X3432166Y14146700D01*
X3552834Y14146700D01*
X3552836Y14146700D01*
X3669397Y14177932D01*
X3773903Y14238268D01*
X3859232Y14323597D01*
X3919568Y14428103D01*
X3950800Y14544664D01*
X3950800Y14665336D01*
X3919568Y14781897D01*
X3859232Y14886403D01*
X3773903Y14971732D01*
X3754670Y14982836D01*
X8114200Y14982836D01*
X8114200Y14862164D01*
X8145432Y14745603D01*
X8205768Y14641097D01*
X8291097Y14555768D01*
X8395603Y14495432D01*
X8512164Y14464200D01*
X8512166Y14464200D01*
X8632834Y14464200D01*
X8632836Y14464200D01*
X8749397Y14495432D01*
X8853903Y14555768D01*
X8939232Y14641097D01*
X8999568Y14745603D01*
X8999569Y14745609D01*
X9002649Y14753042D01*
X9046488Y14807446D01*
X9112782Y14829513D01*
X9180481Y14812236D01*
X9204892Y14793273D01*
X9243597Y14754568D01*
X9348103Y14694232D01*
X9464664Y14663000D01*
X9464666Y14663000D01*
X9585334Y14663000D01*
X9585336Y14663000D01*
X9594054Y14665336D01*
X15416700Y14665336D01*
X15416700Y14544664D01*
X15447932Y14428103D01*
X15508268Y14323597D01*
X15593597Y14238268D01*
X15698103Y14177932D01*
X15814664Y14146700D01*
X15814666Y14146700D01*
X15935334Y14146700D01*
X15935336Y14146700D01*
X16051897Y14177932D01*
X16156403Y14238268D01*
X16241732Y14323597D01*
X16302068Y14428103D01*
X16333300Y14544664D01*
X16333300Y14665336D01*
X16302068Y14781897D01*
X16241732Y14886403D01*
X16156403Y14971732D01*
X16051897Y15032068D01*
X15935336Y15063300D01*
X15814664Y15063300D01*
X15698103Y15032068D01*
X15698102Y15032068D01*
X15593598Y14971733D01*
X15593595Y14971731D01*
X15508269Y14886405D01*
X15508267Y14886402D01*
X15447932Y14781898D01*
X15447932Y14781897D01*
X15416700Y14665336D01*
X9594054Y14665336D01*
X9701897Y14694232D01*
X9806403Y14754568D01*
X9891732Y14839897D01*
X9952068Y14944403D01*
X9983300Y15060964D01*
X9983300Y15181636D01*
X9952068Y15298197D01*
X9891732Y15402703D01*
X9806403Y15488032D01*
X9701897Y15548368D01*
X9585336Y15579600D01*
X9464664Y15579600D01*
X9348103Y15548368D01*
X9348102Y15548368D01*
X9243598Y15488033D01*
X9243595Y15488031D01*
X9158269Y15402705D01*
X9158267Y15402702D01*
X9097931Y15298196D01*
X9094847Y15290750D01*
X9051003Y15236349D01*
X8984707Y15214288D01*
X8917009Y15231571D01*
X8892607Y15250528D01*
X8853904Y15289231D01*
X8853903Y15289232D01*
X8749397Y15349568D01*
X8632836Y15380800D01*
X8512164Y15380800D01*
X8395603Y15349568D01*
X8395602Y15349568D01*
X8291098Y15289233D01*
X8291095Y15289231D01*
X8258626Y15256763D01*
X8258621Y15256757D01*
X8205768Y15203903D01*
X8145432Y15099397D01*
X8114200Y14982836D01*
X3754670Y14982836D01*
X3669397Y15032068D01*
X3552836Y15063300D01*
X3432164Y15063300D01*
X3315603Y15032068D01*
X3315602Y15032068D01*
X3211098Y14971733D01*
X3211095Y14971731D01*
X3125769Y14886405D01*
X3125767Y14886402D01*
X3065432Y14781898D01*
X3065432Y14781897D01*
X3034200Y14665336D01*
X76700Y14665336D01*
X76700Y15617836D01*
X3986700Y15617836D01*
X3986700Y15497164D01*
X4017932Y15380603D01*
X4078268Y15276097D01*
X4163597Y15190768D01*
X4268103Y15130432D01*
X4384664Y15099200D01*
X4384666Y15099200D01*
X4505334Y15099200D01*
X4505336Y15099200D01*
X4621897Y15130432D01*
X4726403Y15190768D01*
X4811732Y15276097D01*
X4872068Y15380603D01*
X4903300Y15497164D01*
X4903300Y15617836D01*
X7161700Y15617836D01*
X7161700Y15497164D01*
X7192932Y15380603D01*
X7253268Y15276097D01*
X7338597Y15190768D01*
X7443103Y15130432D01*
X7559664Y15099200D01*
X7559666Y15099200D01*
X7680334Y15099200D01*
X7680336Y15099200D01*
X7796897Y15130432D01*
X7901403Y15190768D01*
X7986732Y15276097D01*
X8047068Y15380603D01*
X8078300Y15497164D01*
X8078300Y15617836D01*
X8047068Y15734397D01*
X7986732Y15838903D01*
X7901403Y15924232D01*
X7796897Y15984568D01*
X7680336Y16015800D01*
X7559664Y16015800D01*
X7443103Y15984568D01*
X7443102Y15984568D01*
X7338598Y15924233D01*
X7338595Y15924231D01*
X7253269Y15838905D01*
X7253267Y15838902D01*
X7192932Y15734398D01*
X7192932Y15734397D01*
X7161700Y15617836D01*
X4903300Y15617836D01*
X4872068Y15734397D01*
X4811732Y15838903D01*
X4726403Y15924232D01*
X4621897Y15984568D01*
X4505336Y16015800D01*
X4384664Y16015800D01*
X4268103Y15984568D01*
X4268102Y15984568D01*
X4163598Y15924233D01*
X4163595Y15924231D01*
X4078269Y15838905D01*
X4078267Y15838902D01*
X4017932Y15734398D01*
X4017932Y15734397D01*
X3986700Y15617836D01*
X76700Y15617836D01*
X76700Y16570336D01*
X9066700Y16570336D01*
X9066700Y16449664D01*
X9097932Y16333103D01*
X9158268Y16228597D01*
X9243597Y16143268D01*
X9348103Y16082932D01*
X9464664Y16051700D01*
X9464666Y16051700D01*
X9585334Y16051700D01*
X9585336Y16051700D01*
X9701897Y16082932D01*
X9806403Y16143268D01*
X9891732Y16228597D01*
X9952068Y16333103D01*
X9983300Y16449664D01*
X9983300Y16570336D01*
X9952068Y16686897D01*
X9901701Y16774136D01*
X11289200Y16774136D01*
X11289200Y16653464D01*
X11320432Y16536903D01*
X11380768Y16432397D01*
X11466097Y16347068D01*
X11570603Y16286732D01*
X11687164Y16255500D01*
X11687166Y16255500D01*
X11807834Y16255500D01*
X11807836Y16255500D01*
X11924397Y16286732D01*
X12028903Y16347068D01*
X12114232Y16432397D01*
X12174568Y16536903D01*
X12205800Y16653464D01*
X12205800Y16691703D01*
X12225485Y16758742D01*
X12278289Y16804497D01*
X12347447Y16814441D01*
X12411003Y16785416D01*
X12417481Y16779384D01*
X12418597Y16778268D01*
X12523103Y16717932D01*
X12639664Y16686700D01*
X12639666Y16686700D01*
X12760334Y16686700D01*
X12760336Y16686700D01*
X12876897Y16717932D01*
X12981403Y16778268D01*
X13066732Y16863597D01*
X13127068Y16968103D01*
X13158300Y17084664D01*
X13158300Y17205336D01*
X15416700Y17205336D01*
X15416700Y17084664D01*
X15447932Y16968103D01*
X15508268Y16863597D01*
X15593597Y16778268D01*
X15593599Y16778267D01*
X15593603Y16778264D01*
X15682669Y16726842D01*
X15730885Y16676276D01*
X15744109Y16607669D01*
X15740446Y16587365D01*
X15735296Y16568144D01*
X15735296Y16447472D01*
X15766528Y16330911D01*
X15826864Y16226405D01*
X15912193Y16141076D01*
X16016699Y16080740D01*
X16133260Y16049508D01*
X16133262Y16049508D01*
X16245200Y16049508D01*
X16312239Y16029823D01*
X16357994Y15977019D01*
X16369200Y15925508D01*
X16369200Y15884564D01*
X16400432Y15768003D01*
X16460768Y15663497D01*
X16546097Y15578168D01*
X16650603Y15517832D01*
X16767164Y15486600D01*
X16767166Y15486600D01*
X16887834Y15486600D01*
X16887836Y15486600D01*
X17004397Y15517832D01*
X17108903Y15578168D01*
X17194232Y15663497D01*
X17254568Y15768003D01*
X17262756Y15798565D01*
X17299119Y15858224D01*
X17361966Y15888755D01*
X17431342Y15880461D01*
X17470212Y15854153D01*
X17498597Y15825768D01*
X17603103Y15765432D01*
X17719664Y15734200D01*
X17719666Y15734200D01*
X17840334Y15734200D01*
X17840336Y15734200D01*
X17956897Y15765432D01*
X18061403Y15825768D01*
X18146732Y15911097D01*
X18207068Y16015603D01*
X18238300Y16132164D01*
X18238300Y16252836D01*
X18207068Y16369397D01*
X18146732Y16473903D01*
X18061403Y16559232D01*
X18059491Y16560336D01*
X18841700Y16560336D01*
X18841700Y16439664D01*
X18872932Y16323103D01*
X18933268Y16218597D01*
X19018597Y16133268D01*
X19123103Y16072932D01*
X19239664Y16041700D01*
X19239666Y16041700D01*
X19360334Y16041700D01*
X19360336Y16041700D01*
X19476897Y16072932D01*
X19581403Y16133268D01*
X19666732Y16218597D01*
X19686500Y16252836D01*
X20496700Y16252836D01*
X20496700Y16132164D01*
X20527932Y16015603D01*
X20588268Y15911097D01*
X20673597Y15825768D01*
X20778103Y15765432D01*
X20894664Y15734200D01*
X20894666Y15734200D01*
X21015334Y15734200D01*
X21015336Y15734200D01*
X21131897Y15765432D01*
X21236403Y15825768D01*
X21321732Y15911097D01*
X21382068Y16015603D01*
X21413300Y16132164D01*
X21413300Y16252836D01*
X22401700Y16252836D01*
X22401700Y16132164D01*
X22432932Y16015603D01*
X22493268Y15911097D01*
X22578597Y15825768D01*
X22683103Y15765432D01*
X22799664Y15734200D01*
X22799666Y15734200D01*
X22920334Y15734200D01*
X22920336Y15734200D01*
X23036897Y15765432D01*
X23141403Y15825768D01*
X23226732Y15911097D01*
X23287068Y16015603D01*
X23318300Y16132164D01*
X23318300Y16252836D01*
X23287068Y16369397D01*
X23226732Y16473903D01*
X23141403Y16559232D01*
X23036897Y16619568D01*
X22920336Y16650800D01*
X22799664Y16650800D01*
X22683103Y16619568D01*
X22683102Y16619568D01*
X22578598Y16559233D01*
X22578595Y16559231D01*
X22493269Y16473905D01*
X22493267Y16473902D01*
X22432932Y16369398D01*
X22432932Y16369397D01*
X22401700Y16252836D01*
X21413300Y16252836D01*
X21382068Y16369397D01*
X21321732Y16473903D01*
X21236403Y16559232D01*
X21131897Y16619568D01*
X21015336Y16650800D01*
X20894664Y16650800D01*
X20778103Y16619568D01*
X20778102Y16619568D01*
X20673598Y16559233D01*
X20673595Y16559231D01*
X20588269Y16473905D01*
X20588267Y16473902D01*
X20527932Y16369398D01*
X20527932Y16369397D01*
X20496700Y16252836D01*
X19686500Y16252836D01*
X19727068Y16323103D01*
X19758300Y16439664D01*
X19758300Y16560336D01*
X19727068Y16676897D01*
X19666732Y16781403D01*
X19581403Y16866732D01*
X19476897Y16927068D01*
X19360336Y16958300D01*
X19239664Y16958300D01*
X19123103Y16927068D01*
X19123102Y16927068D01*
X19018598Y16866733D01*
X19018595Y16866731D01*
X18933269Y16781405D01*
X18933267Y16781402D01*
X18872932Y16676898D01*
X18872932Y16676897D01*
X18841700Y16560336D01*
X18059491Y16560336D01*
X17956897Y16619568D01*
X17840336Y16650800D01*
X17719664Y16650800D01*
X17603103Y16619568D01*
X17603102Y16619568D01*
X17498598Y16559233D01*
X17498595Y16559231D01*
X17413269Y16473905D01*
X17413267Y16473902D01*
X17352932Y16369398D01*
X17352930Y16369393D01*
X17344742Y16338834D01*
X17308377Y16279174D01*
X17245529Y16248646D01*
X17176154Y16256941D01*
X17137287Y16283248D01*
X17108904Y16311631D01*
X17108903Y16311632D01*
X17004397Y16371968D01*
X16887836Y16403200D01*
X16775896Y16403200D01*
X16708857Y16422885D01*
X16663102Y16475689D01*
X16651896Y16527200D01*
X16651896Y16568142D01*
X16651896Y16568144D01*
X16620664Y16684705D01*
X16560328Y16789211D01*
X16474999Y16874540D01*
X16474998Y16874541D01*
X16474995Y16874543D01*
X16385925Y16925967D01*
X16337710Y16976534D01*
X16323925Y17033354D01*
X16323925Y17049676D01*
X16333300Y17084664D01*
X16333300Y17205336D01*
X16323925Y17240325D01*
X16323925Y17256647D01*
X16329354Y17275137D01*
X16329813Y17294403D01*
X16338995Y17307970D01*
X16343610Y17323686D01*
X16358172Y17336305D01*
X16368975Y17352265D01*
X16385918Y17364031D01*
X16474999Y17415460D01*
X16560328Y17500789D01*
X16620664Y17605295D01*
X16651896Y17721856D01*
X16651896Y17842528D01*
X16620664Y17959089D01*
X16560328Y18063595D01*
X16474999Y18148924D01*
X16459563Y18157836D01*
X21131700Y18157836D01*
X21131700Y18037164D01*
X21162932Y17920603D01*
X21223268Y17816097D01*
X21308597Y17730768D01*
X21413103Y17670432D01*
X21529664Y17639200D01*
X21529666Y17639200D01*
X21650334Y17639200D01*
X21650336Y17639200D01*
X21766897Y17670432D01*
X21871403Y17730768D01*
X21956732Y17816097D01*
X22017068Y17920603D01*
X22048300Y18037164D01*
X22048300Y18157836D01*
X22017068Y18274397D01*
X21956732Y18378903D01*
X21871403Y18464232D01*
X21766897Y18524568D01*
X21650336Y18555800D01*
X21529664Y18555800D01*
X21413103Y18524568D01*
X21413102Y18524568D01*
X21308598Y18464233D01*
X21308595Y18464231D01*
X21223269Y18378905D01*
X21223267Y18378902D01*
X21162932Y18274398D01*
X21162932Y18274397D01*
X21131700Y18157836D01*
X16459563Y18157836D01*
X16370493Y18209260D01*
X16253932Y18240492D01*
X16133260Y18240492D01*
X16016699Y18209260D01*
X16016698Y18209260D01*
X15912194Y18148925D01*
X15912191Y18148923D01*
X15826865Y18063597D01*
X15826863Y18063594D01*
X15766528Y17959090D01*
X15766528Y17959089D01*
X15735296Y17842528D01*
X15735296Y17721852D01*
X15740445Y17702637D01*
X15738781Y17632787D01*
X15699618Y17574926D01*
X15682670Y17563159D01*
X15593600Y17511735D01*
X15593595Y17511731D01*
X15508269Y17426405D01*
X15508267Y17426402D01*
X15447932Y17321898D01*
X15447932Y17321897D01*
X15416700Y17205336D01*
X13158300Y17205336D01*
X13127068Y17321897D01*
X13066732Y17426403D01*
X12981403Y17511732D01*
X12876897Y17572068D01*
X12760336Y17603300D01*
X12639664Y17603300D01*
X12523103Y17572068D01*
X12523102Y17572068D01*
X12418598Y17511733D01*
X12418595Y17511731D01*
X12333269Y17426405D01*
X12333267Y17426402D01*
X12272932Y17321898D01*
X12272932Y17321897D01*
X12241700Y17205336D01*
X12241700Y17167097D01*
X12222015Y17100058D01*
X12169211Y17054303D01*
X12100053Y17044359D01*
X12036497Y17073384D01*
X12030019Y17079416D01*
X12028904Y17080531D01*
X12028903Y17080532D01*
X11924397Y17140868D01*
X11807836Y17172100D01*
X11687164Y17172100D01*
X11570603Y17140868D01*
X11570602Y17140868D01*
X11466098Y17080533D01*
X11466095Y17080531D01*
X11380769Y16995205D01*
X11380767Y16995202D01*
X11320432Y16890698D01*
X11320432Y16890697D01*
X11289200Y16774136D01*
X9901701Y16774136D01*
X9891732Y16791403D01*
X9806403Y16876732D01*
X9701897Y16937068D01*
X9585336Y16968300D01*
X9464664Y16968300D01*
X9348103Y16937068D01*
X9348102Y16937068D01*
X9243598Y16876733D01*
X9243595Y16876731D01*
X9158269Y16791405D01*
X9158267Y16791402D01*
X9097932Y16686898D01*
X9097932Y16686897D01*
X9066700Y16570336D01*
X76700Y16570336D01*
X76700Y17840336D01*
X9066700Y17840336D01*
X9066700Y17719664D01*
X9097932Y17603103D01*
X9158268Y17498597D01*
X9243597Y17413268D01*
X9348103Y17352932D01*
X9464664Y17321700D01*
X9464666Y17321700D01*
X9585334Y17321700D01*
X9585336Y17321700D01*
X9701897Y17352932D01*
X9806403Y17413268D01*
X9891732Y17498597D01*
X9952068Y17603103D01*
X9983300Y17719664D01*
X9983300Y17840336D01*
X9952068Y17956897D01*
X9891732Y18061403D01*
X9806403Y18146732D01*
X9701897Y18207068D01*
X9585336Y18238300D01*
X9464664Y18238300D01*
X9348103Y18207068D01*
X9348102Y18207068D01*
X9243598Y18146733D01*
X9243595Y18146731D01*
X9158269Y18061405D01*
X9158267Y18061402D01*
X9097932Y17956898D01*
X9097932Y17956897D01*
X9066700Y17840336D01*
X76700Y17840336D01*
X76700Y19110336D01*
X5574200Y19110336D01*
X5574200Y18989664D01*
X5605432Y18873103D01*
X5665768Y18768597D01*
X5751097Y18683268D01*
X5855603Y18622932D01*
X5972164Y18591700D01*
X5972166Y18591700D01*
X6092834Y18591700D01*
X6092836Y18591700D01*
X6209397Y18622932D01*
X6313903Y18683268D01*
X6399232Y18768597D01*
X6401361Y18772286D01*
X6403973Y18774776D01*
X6404182Y18775048D01*
X6404224Y18775016D01*
X6451927Y18820502D01*
X6520534Y18833727D01*
X6585399Y18807761D01*
X6616139Y18772285D01*
X6618266Y18768599D01*
X6618268Y18768597D01*
X6703597Y18683268D01*
X6808103Y18622932D01*
X6924664Y18591700D01*
X6924666Y18591700D01*
X7045334Y18591700D01*
X7045336Y18591700D01*
X7161897Y18622932D01*
X7266403Y18683268D01*
X7351732Y18768597D01*
X7412068Y18873103D01*
X7443300Y18989664D01*
X7443300Y19110336D01*
X7412068Y19226897D01*
X7351732Y19331403D01*
X7324944Y19358191D01*
X7703699Y19358191D01*
X7729765Y19227154D01*
X7729767Y19227146D01*
X7780898Y19103704D01*
X7780899Y19103702D01*
X7855129Y18992610D01*
X7855132Y18992606D01*
X7949605Y18898133D01*
X7949609Y18898130D01*
X8060704Y18823898D01*
X8184147Y18772767D01*
X8205101Y18768599D01*
X8315190Y18746700D01*
X8315193Y18746700D01*
X8448809Y18746700D01*
X8514777Y18759823D01*
X8579853Y18772767D01*
X8703296Y18823898D01*
X8814391Y18898130D01*
X8908870Y18992609D01*
X8983102Y19103704D01*
X9034233Y19227147D01*
X9053688Y19324952D01*
X9060300Y19358191D01*
X9060300Y20189743D01*
X9079985Y20256782D01*
X9132789Y20302537D01*
X9201947Y20312481D01*
X9265503Y20283456D01*
X9291687Y20251743D01*
X9349482Y20151639D01*
X9349484Y20151637D01*
X9349485Y20151635D01*
X9456635Y20044485D01*
X9587865Y19968719D01*
X9734234Y19929500D01*
X9734236Y19929500D01*
X9885764Y19929500D01*
X9885766Y19929500D01*
X10032135Y19968719D01*
X10163365Y20044485D01*
X10270515Y20151635D01*
X10346281Y20282865D01*
X10385500Y20429234D01*
X10385500Y20580766D01*
X15014500Y20580766D01*
X15014500Y20429235D01*
X15053719Y20282864D01*
X15067114Y20259664D01*
X15129485Y20151635D01*
X15236635Y20044485D01*
X15367865Y19968719D01*
X15514234Y19929500D01*
X15514236Y19929500D01*
X15665764Y19929500D01*
X15665766Y19929500D01*
X15812135Y19968719D01*
X15943365Y20044485D01*
X16050515Y20151635D01*
X16108313Y20251743D01*
X16158880Y20299959D01*
X16227488Y20313181D01*
X16292352Y20287213D01*
X16332880Y20230299D01*
X16339700Y20189743D01*
X16339700Y19358193D01*
X16339700Y19358191D01*
X16339699Y19358191D01*
X16365765Y19227154D01*
X16365767Y19227146D01*
X16416898Y19103704D01*
X16416899Y19103702D01*
X16491129Y18992610D01*
X16491132Y18992606D01*
X16585605Y18898133D01*
X16585609Y18898130D01*
X16696704Y18823898D01*
X16820147Y18772767D01*
X16841101Y18768599D01*
X16951190Y18746700D01*
X16951193Y18746700D01*
X17084809Y18746700D01*
X17150777Y18759823D01*
X17215853Y18772767D01*
X17339296Y18823898D01*
X17450391Y18898130D01*
X17544870Y18992609D01*
X17619102Y19103704D01*
X17670233Y19227147D01*
X17689688Y19324952D01*
X17696300Y19358191D01*
X17696300Y20591810D01*
X17670234Y20722847D01*
X17670233Y20722853D01*
X17619102Y20846296D01*
X17544870Y20957391D01*
X17544867Y20957395D01*
X17450394Y21051868D01*
X17450390Y21051871D01*
X17339298Y21126101D01*
X17339296Y21126102D01*
X17215854Y21177233D01*
X17215846Y21177235D01*
X17084809Y21203300D01*
X17084807Y21203300D01*
X16951193Y21203300D01*
X16951191Y21203300D01*
X16820153Y21177235D01*
X16814324Y21175466D01*
X16813799Y21177195D01*
X16789630Y21174598D01*
X16757153Y21169928D01*
X16755060Y21170884D01*
X16752775Y21170638D01*
X16723447Y21185321D01*
X16693597Y21198953D01*
X16692353Y21200888D01*
X16690298Y21201917D01*
X16673563Y21230127D01*
X16655823Y21257731D01*
X16655386Y21260767D01*
X16654650Y21262008D01*
X16650800Y21292666D01*
X16650800Y21332834D01*
X16650800Y21332836D01*
X18846100Y21332836D01*
X18846100Y21212164D01*
X18877332Y21095603D01*
X18937668Y20991097D01*
X19022997Y20905768D01*
X19127503Y20845432D01*
X19244064Y20814200D01*
X19244066Y20814200D01*
X19364734Y20814200D01*
X19364736Y20814200D01*
X19481297Y20845432D01*
X19585803Y20905768D01*
X19671132Y20991097D01*
X19685126Y21015336D01*
X20179200Y21015336D01*
X20179200Y20894664D01*
X20210432Y20778103D01*
X20270768Y20673597D01*
X20356097Y20588268D01*
X20460603Y20527932D01*
X20577164Y20496700D01*
X20577166Y20496700D01*
X20697834Y20496700D01*
X20697836Y20496700D01*
X20814397Y20527932D01*
X20918903Y20588268D01*
X21004232Y20673597D01*
X21064568Y20778103D01*
X21095800Y20894664D01*
X21095800Y21015336D01*
X21064568Y21131897D01*
X21004232Y21236403D01*
X20918903Y21321732D01*
X20814397Y21382068D01*
X20697836Y21413300D01*
X20577164Y21413300D01*
X20460603Y21382068D01*
X20460602Y21382068D01*
X20356098Y21321733D01*
X20356095Y21321731D01*
X20270769Y21236405D01*
X20270767Y21236402D01*
X20210432Y21131898D01*
X20210432Y21131897D01*
X20179200Y21015336D01*
X19685126Y21015336D01*
X19713550Y21064568D01*
X19725614Y21085463D01*
X19729218Y21091706D01*
X19731468Y21095603D01*
X19762700Y21212164D01*
X19762700Y21332836D01*
X19731468Y21449397D01*
X19671132Y21553903D01*
X19585803Y21639232D01*
X19481297Y21699568D01*
X19364736Y21730800D01*
X19244064Y21730800D01*
X19127503Y21699568D01*
X19127502Y21699568D01*
X19022998Y21639233D01*
X19022995Y21639231D01*
X18937669Y21553905D01*
X18937667Y21553902D01*
X18877332Y21449398D01*
X18877332Y21449397D01*
X18846100Y21332836D01*
X16650800Y21332836D01*
X16619568Y21449397D01*
X16559232Y21553903D01*
X16473903Y21639232D01*
X16369397Y21699568D01*
X16252836Y21730800D01*
X16132164Y21730800D01*
X16015603Y21699568D01*
X16015602Y21699568D01*
X15911098Y21639233D01*
X15911095Y21639231D01*
X15825769Y21553905D01*
X15825767Y21553902D01*
X15765432Y21449398D01*
X15765432Y21449397D01*
X15734200Y21332836D01*
X15734200Y21204500D01*
X15714515Y21137461D01*
X15661711Y21091706D01*
X15610200Y21080500D01*
X15514234Y21080500D01*
X15367863Y21041281D01*
X15236635Y20965515D01*
X15236632Y20965513D01*
X15129487Y20858368D01*
X15129485Y20858365D01*
X15053719Y20727137D01*
X15014500Y20580766D01*
X10385500Y20580766D01*
X10346281Y20727135D01*
X10270515Y20858365D01*
X10163365Y20965515D01*
X10079531Y21013917D01*
X10032136Y21041281D01*
X9945226Y21064568D01*
X9885766Y21080500D01*
X9789800Y21080500D01*
X9722761Y21100185D01*
X9677006Y21152989D01*
X9665800Y21204500D01*
X9665800Y21332834D01*
X9665800Y21332836D01*
X9634568Y21449397D01*
X9574232Y21553903D01*
X9488903Y21639232D01*
X9384397Y21699568D01*
X9267836Y21730800D01*
X9147164Y21730800D01*
X9030603Y21699568D01*
X9030602Y21699568D01*
X8926098Y21639233D01*
X8926095Y21639231D01*
X8840769Y21553905D01*
X8840767Y21553902D01*
X8780432Y21449398D01*
X8780432Y21449397D01*
X8749200Y21332836D01*
X8749200Y21292666D01*
X8729515Y21225627D01*
X8676711Y21179872D01*
X8607553Y21169928D01*
X8585805Y21175894D01*
X8585676Y21175466D01*
X8579846Y21177235D01*
X8448809Y21203300D01*
X8448807Y21203300D01*
X8315193Y21203300D01*
X8315191Y21203300D01*
X8184153Y21177235D01*
X8184145Y21177233D01*
X8060703Y21126102D01*
X8060701Y21126101D01*
X7949609Y21051871D01*
X7949605Y21051868D01*
X7855132Y20957395D01*
X7855129Y20957391D01*
X7780899Y20846299D01*
X7780898Y20846297D01*
X7729767Y20722855D01*
X7729765Y20722847D01*
X7703700Y20591810D01*
X7703700Y20591807D01*
X7703700Y19358193D01*
X7703700Y19358191D01*
X7703699Y19358191D01*
X7324944Y19358191D01*
X7266403Y19416732D01*
X7161897Y19477068D01*
X7045336Y19508300D01*
X6924664Y19508300D01*
X6808103Y19477068D01*
X6808102Y19477068D01*
X6703598Y19416733D01*
X6703595Y19416731D01*
X6618269Y19331405D01*
X6618263Y19331397D01*
X6616136Y19327712D01*
X6613526Y19325225D01*
X6613318Y19324952D01*
X6613275Y19324985D01*
X6565569Y19279497D01*
X6496961Y19266275D01*
X6432097Y19292243D01*
X6401364Y19327712D01*
X6399236Y19331397D01*
X6399233Y19331401D01*
X6399232Y19331403D01*
X6313903Y19416732D01*
X6209397Y19477068D01*
X6092836Y19508300D01*
X5972164Y19508300D01*
X5855603Y19477068D01*
X5855602Y19477068D01*
X5751098Y19416733D01*
X5751095Y19416731D01*
X5665769Y19331405D01*
X5665767Y19331402D01*
X5605432Y19226898D01*
X5605432Y19226897D01*
X5574200Y19110336D01*
X76700Y19110336D01*
X76700Y20697836D01*
X811700Y20697836D01*
X811700Y20577164D01*
X842932Y20460603D01*
X903268Y20356097D01*
X988597Y20270768D01*
X1093103Y20210432D01*
X1209664Y20179200D01*
X1209666Y20179200D01*
X1330334Y20179200D01*
X1330336Y20179200D01*
X1446897Y20210432D01*
X1551403Y20270768D01*
X1636732Y20356097D01*
X1697068Y20460603D01*
X1728300Y20577164D01*
X1728300Y20697836D01*
X1697068Y20814397D01*
X1636732Y20918903D01*
X1551403Y21004232D01*
X1446897Y21064568D01*
X1330336Y21095800D01*
X1209664Y21095800D01*
X1093103Y21064568D01*
X1093102Y21064568D01*
X988598Y21004233D01*
X988595Y21004231D01*
X903269Y20918905D01*
X903267Y20918902D01*
X842932Y20814398D01*
X842932Y20814397D01*
X811700Y20697836D01*
X76700Y20697836D01*
X76700Y22978005D01*
X739500Y22978005D01*
X739500Y22741996D01*
X739501Y22741980D01*
X757819Y22602836D01*
X770307Y22507986D01*
X777226Y22482165D01*
X831394Y22280007D01*
X921714Y22061955D01*
X921719Y22061944D01*
X992677Y21939043D01*
X1039727Y21857550D01*
X1039729Y21857547D01*
X1039730Y21857546D01*
X1183406Y21670303D01*
X1183412Y21670296D01*
X1350295Y21503413D01*
X1350302Y21503407D01*
X1460306Y21418999D01*
X1537550Y21359727D01*
X1639263Y21301003D01*
X1741943Y21241720D01*
X1741948Y21241718D01*
X1741951Y21241716D01*
X1960007Y21151394D01*
X2187986Y21090307D01*
X2421989Y21059500D01*
X2421996Y21059500D01*
X2658004Y21059500D01*
X2658011Y21059500D01*
X2892014Y21090307D01*
X2998988Y21118971D01*
X3068836Y21117308D01*
X3126699Y21078146D01*
X3154203Y21013917D01*
X3142617Y20945015D01*
X3129457Y20923711D01*
X3125768Y20918905D01*
X3065432Y20814398D01*
X3065432Y20814397D01*
X3034200Y20697836D01*
X3034200Y20577164D01*
X3065432Y20460603D01*
X3125768Y20356097D01*
X3211097Y20270768D01*
X3315603Y20210432D01*
X3432164Y20179200D01*
X3432166Y20179200D01*
X3552834Y20179200D01*
X3552836Y20179200D01*
X3669397Y20210432D01*
X3773903Y20270768D01*
X3787517Y20284383D01*
X3848836Y20317867D01*
X3918528Y20312884D01*
X3974462Y20271014D01*
X3994970Y20228797D01*
X4017932Y20143103D01*
X4078268Y20038597D01*
X4163597Y19953268D01*
X4268103Y19892932D01*
X4384664Y19861700D01*
X4384666Y19861700D01*
X4505334Y19861700D01*
X4505336Y19861700D01*
X4621897Y19892932D01*
X4726403Y19953268D01*
X4811732Y20038597D01*
X4872068Y20143103D01*
X4903300Y20259664D01*
X4903300Y20380336D01*
X4872068Y20496897D01*
X4825726Y20577164D01*
X4811734Y20601400D01*
X4811730Y20601405D01*
X4726404Y20686731D01*
X4726403Y20686732D01*
X4621897Y20747068D01*
X4505336Y20778300D01*
X4384664Y20778300D01*
X4268103Y20747068D01*
X4268102Y20747068D01*
X4163598Y20686733D01*
X4149981Y20673116D01*
X4088657Y20639633D01*
X4018965Y20644619D01*
X3963033Y20686492D01*
X3942529Y20728704D01*
X3919568Y20814397D01*
X3859232Y20918903D01*
X3773903Y21004232D01*
X3669397Y21064568D01*
X3552836Y21095800D01*
X3548089Y21095800D01*
X3481050Y21115485D01*
X3435295Y21168289D01*
X3425351Y21237447D01*
X3454376Y21301003D01*
X3486085Y21327185D01*
X3542450Y21359727D01*
X3729699Y21503408D01*
X3896592Y21670301D01*
X4040273Y21857550D01*
X4158284Y22061951D01*
X4248606Y22280007D01*
X4309693Y22507986D01*
X4322180Y22602836D01*
X10019200Y22602836D01*
X10019200Y22482164D01*
X10050432Y22365603D01*
X10110768Y22261097D01*
X10196097Y22175768D01*
X10300603Y22115432D01*
X10417164Y22084200D01*
X10417166Y22084200D01*
X10537834Y22084200D01*
X10537836Y22084200D01*
X10654397Y22115432D01*
X10758903Y22175768D01*
X10844232Y22261097D01*
X10904568Y22365603D01*
X10935800Y22482164D01*
X10935800Y22602836D01*
X14521798Y22602836D01*
X14521798Y22482164D01*
X14553030Y22365603D01*
X14613366Y22261097D01*
X14698695Y22175768D01*
X14803201Y22115432D01*
X14919762Y22084200D01*
X14919764Y22084200D01*
X15040432Y22084200D01*
X15040434Y22084200D01*
X15156995Y22115432D01*
X15261501Y22175768D01*
X15346830Y22261097D01*
X15407166Y22365603D01*
X15438398Y22482164D01*
X15438398Y22602836D01*
X15407166Y22719397D01*
X15346830Y22823903D01*
X15261501Y22909232D01*
X15156995Y22969568D01*
X15040434Y23000800D01*
X14919762Y23000800D01*
X14803201Y22969568D01*
X14803200Y22969568D01*
X14698696Y22909233D01*
X14698693Y22909231D01*
X14613367Y22823905D01*
X14613365Y22823902D01*
X14553030Y22719398D01*
X14553030Y22719397D01*
X14521798Y22602836D01*
X10935800Y22602836D01*
X10904568Y22719397D01*
X10844232Y22823903D01*
X10758903Y22909232D01*
X10654397Y22969568D01*
X10537836Y23000800D01*
X10417164Y23000800D01*
X10300603Y22969568D01*
X10300602Y22969568D01*
X10196098Y22909233D01*
X10196095Y22909231D01*
X10110769Y22823905D01*
X10110767Y22823902D01*
X10050432Y22719398D01*
X10050432Y22719397D01*
X10019200Y22602836D01*
X4322180Y22602836D01*
X4340500Y22741989D01*
X4340500Y22978011D01*
X4309693Y23212014D01*
X4248606Y23439993D01*
X4158284Y23658049D01*
X4158282Y23658052D01*
X4158280Y23658057D01*
X4083145Y23788193D01*
X4040273Y23862450D01*
X3981001Y23939694D01*
X3896593Y24049698D01*
X3896587Y24049705D01*
X3729704Y24216588D01*
X3729697Y24216594D01*
X3542457Y24360268D01*
X3542455Y24360270D01*
X3542450Y24360273D01*
X3458784Y24408578D01*
X3338056Y24478281D01*
X3338045Y24478286D01*
X3266705Y24507836D01*
X5256700Y24507836D01*
X5256700Y24387164D01*
X5287932Y24270603D01*
X5348268Y24166097D01*
X5433597Y24080768D01*
X5538103Y24020432D01*
X5654664Y23989200D01*
X5654666Y23989200D01*
X5775334Y23989200D01*
X5775336Y23989200D01*
X5891897Y24020432D01*
X5996403Y24080768D01*
X6081732Y24166097D01*
X6142068Y24270603D01*
X6173300Y24387164D01*
X6173300Y24507836D01*
X6142068Y24624397D01*
X6081732Y24728903D01*
X5996403Y24814232D01*
X5891897Y24874568D01*
X5775336Y24905800D01*
X5654664Y24905800D01*
X5538103Y24874568D01*
X5538102Y24874568D01*
X5433598Y24814233D01*
X5433595Y24814231D01*
X5348269Y24728905D01*
X5348267Y24728902D01*
X5287932Y24624398D01*
X5287932Y24624397D01*
X5256700Y24507836D01*
X3266705Y24507836D01*
X3119993Y24568606D01*
X3047226Y24588104D01*
X2892014Y24629693D01*
X2892013Y24629694D01*
X2892010Y24629694D01*
X2658020Y24660499D01*
X2658017Y24660500D01*
X2658011Y24660500D01*
X2421989Y24660500D01*
X2421983Y24660500D01*
X2421979Y24660499D01*
X2187989Y24629694D01*
X1960006Y24568606D01*
X1741954Y24478286D01*
X1741943Y24478281D01*
X1537545Y24360270D01*
X1350302Y24216594D01*
X1350295Y24216588D01*
X1183412Y24049705D01*
X1183406Y24049698D01*
X1039730Y23862455D01*
X921719Y23658057D01*
X921714Y23658046D01*
X831394Y23439994D01*
X770306Y23212011D01*
X739501Y22978021D01*
X739500Y22978005D01*
X76700Y22978005D01*
X76700Y25199300D01*
X96385Y25266339D01*
X149189Y25312094D01*
X200700Y25323300D01*
X8082389Y25323300D01*
X8149428Y25303615D01*
G37*
%TD.AperFunction*%
%TD*%
M02*
