%TF.GenerationSoftware,KiCad,Pcbnew,9.0.1*%
%TF.CreationDate,2025-09-03T15:01:39-06:00*%
%TF.ProjectId,SparkFun_Qwiic_GNSS_SAM-M8Q,53706172-6b46-4756-9e5f-51776969635f,v10*%
%TF.SameCoordinates,Original*%
%TF.FileFunction,Copper,L4,Bot*%
%TF.FilePolarity,Positive*%
%FSLAX46Y46*%
G04 Gerber Fmt 4.6, Leading zero omitted, Abs format (unit mm)*
G04 Created by KiCad (PCBNEW 9.0.1) date 2025-09-03 15:01:39*
%MOMM*%
%LPD*%
G01*
G04 APERTURE LIST*
%ADD10C,0.254000*%
%TA.AperFunction,EtchedComponent*%
%ADD11C,0.000000*%
%TD*%
%TA.AperFunction,ComponentPad*%
%ADD12C,1.879600*%
%TD*%
%TA.AperFunction,ComponentPad*%
%ADD13O,1.000000X1.600000*%
%TD*%
%TA.AperFunction,ComponentPad*%
%ADD14O,1.000000X2.100000*%
%TD*%
%TA.AperFunction,SMDPad,CuDef*%
%ADD15R,0.660400X1.270000*%
%TD*%
%TA.AperFunction,SMDPad,CuDef*%
%ADD16C,0.500000*%
%TD*%
%TA.AperFunction,SMDPad,CuDef*%
%ADD17R,1.800000X1.500000*%
%TD*%
%TA.AperFunction,SMDPad,CuDef*%
%ADD18R,1.500000X1.800000*%
%TD*%
%TA.AperFunction,ViaPad*%
%ADD19C,0.560000*%
%TD*%
%TA.AperFunction,Conductor*%
%ADD20C,0.177800*%
%TD*%
%TA.AperFunction,Conductor*%
%ADD21C,0.406400*%
%TD*%
%TA.AperFunction,Conductor*%
%ADD22C,0.304800*%
%TD*%
G04 APERTURE END LIST*
D10*
G36*
X22059053Y20408933D02*
G01*
X22078292Y20389694D01*
X22111220Y20323838D01*
X22152428Y20159006D01*
X22152428Y19948369D01*
X22111220Y19783537D01*
X22078292Y19717681D01*
X22059054Y19698444D01*
X22007543Y19672688D01*
X21970741Y19672688D01*
X21919229Y19698444D01*
X21899992Y19717681D01*
X21867064Y19783537D01*
X21825856Y19948369D01*
X21825856Y20159006D01*
X21867064Y20323838D01*
X21899992Y20389694D01*
X21919231Y20408933D01*
X21970741Y20434688D01*
X22007543Y20434688D01*
X22059053Y20408933D01*
G37*
G36*
X24322159Y19291688D02*
G01*
X21444856Y19291688D01*
X21444856Y20174640D01*
X21571856Y20174640D01*
X21571856Y19932735D01*
X21572281Y19928414D01*
X21572006Y19926561D01*
X21573377Y19917289D01*
X21574296Y19907959D01*
X21575012Y19906229D01*
X21575648Y19901933D01*
X21624029Y19708409D01*
X21624681Y19706582D01*
X21624747Y19705666D01*
X21628689Y19695366D01*
X21632405Y19684964D01*
X21632952Y19684226D01*
X21633645Y19682415D01*
X21682026Y19585653D01*
X21688739Y19574989D01*
X21690022Y19571891D01*
X21692883Y19568405D01*
X21695288Y19564584D01*
X21697821Y19562387D01*
X21705815Y19552646D01*
X21754196Y19504265D01*
X21763939Y19496269D01*
X21766135Y19493738D01*
X21769951Y19491336D01*
X21773441Y19488472D01*
X21776538Y19487189D01*
X21787204Y19480475D01*
X21883966Y19432095D01*
X21907218Y19423198D01*
X21911768Y19422875D01*
X21915985Y19421128D01*
X21940761Y19418688D01*
X22037523Y19418688D01*
X22062299Y19421128D01*
X22066515Y19422875D01*
X22071067Y19423198D01*
X22094318Y19432095D01*
X22191080Y19480475D01*
X22201746Y19487190D01*
X22204843Y19488472D01*
X22208329Y19491334D01*
X22212150Y19493738D01*
X22214347Y19496272D01*
X22224088Y19504265D01*
X22272469Y19552646D01*
X22280462Y19562387D01*
X22282996Y19564584D01*
X22285400Y19568405D01*
X22287090Y19570464D01*
X22541915Y19570464D01*
X22541915Y19520912D01*
X22560878Y19475131D01*
X22595918Y19440091D01*
X22641699Y19421128D01*
X22666475Y19418688D01*
X23247047Y19418688D01*
X23271823Y19421128D01*
X23317604Y19440091D01*
X23352644Y19475131D01*
X23371607Y19520912D01*
X23371607Y19570464D01*
X23352644Y19616245D01*
X23317604Y19651285D01*
X23271823Y19670248D01*
X23247047Y19672688D01*
X23083761Y19672688D01*
X23083761Y20212315D01*
X23093489Y20206191D01*
X23190251Y20157810D01*
X23213502Y20148912D01*
X23262931Y20145399D01*
X23309942Y20161070D01*
X23347377Y20193537D01*
X23352838Y20204459D01*
X23460077Y20204459D01*
X23466112Y20180306D01*
X23708017Y19502974D01*
X23718648Y19480462D01*
X23722925Y19475738D01*
X23725655Y19469974D01*
X23739437Y19457498D01*
X23751904Y19443726D01*
X23757663Y19440998D01*
X23762391Y19436718D01*
X23779896Y19430467D01*
X23796688Y19422512D01*
X23803053Y19422196D01*
X23809056Y19420052D01*
X23827617Y19420975D01*
X23846179Y19420052D01*
X23852181Y19422196D01*
X23858548Y19422512D01*
X23875343Y19430468D01*
X23892845Y19436718D01*
X23897570Y19440997D01*
X23903332Y19443725D01*
X23915803Y19457503D01*
X23929581Y19469974D01*
X23932309Y19475736D01*
X23936588Y19480461D01*
X23947219Y19502973D01*
X24189124Y20180306D01*
X24195159Y20204459D01*
X24192699Y20253951D01*
X24171486Y20298735D01*
X24134750Y20331991D01*
X24088084Y20348657D01*
X24038593Y20346197D01*
X23993809Y20324983D01*
X23960553Y20288247D01*
X23949922Y20265735D01*
X23827618Y19923286D01*
X23705314Y20265736D01*
X23694683Y20288248D01*
X23661427Y20324984D01*
X23616643Y20346197D01*
X23567151Y20348657D01*
X23520486Y20331991D01*
X23483750Y20298735D01*
X23462537Y20253951D01*
X23460077Y20204459D01*
X23352838Y20204459D01*
X23369537Y20237857D01*
X23373050Y20287286D01*
X23357379Y20334297D01*
X23324912Y20371732D01*
X23303843Y20384994D01*
X23225515Y20424158D01*
X23152215Y20497459D01*
X23062431Y20632135D01*
X23062375Y20632203D01*
X23062358Y20632245D01*
X23062263Y20632340D01*
X23046658Y20651396D01*
X23036209Y20658394D01*
X23027318Y20667285D01*
X23015823Y20672047D01*
X23005485Y20678970D01*
X22993154Y20681437D01*
X22981537Y20686248D01*
X22969094Y20686248D01*
X22956893Y20688688D01*
X22944560Y20686248D01*
X22931985Y20686248D01*
X22920487Y20681486D01*
X22908282Y20679071D01*
X22897820Y20672097D01*
X22886204Y20667285D01*
X22877406Y20658487D01*
X22867053Y20651585D01*
X22860055Y20641137D01*
X22851164Y20632245D01*
X22846402Y20620751D01*
X22839479Y20610412D01*
X22837012Y20598082D01*
X22832201Y20586464D01*
X22829786Y20561949D01*
X22829761Y20561820D01*
X22829769Y20561777D01*
X22829761Y20561688D01*
X22829761Y19672688D01*
X22666475Y19672688D01*
X22641699Y19670248D01*
X22595918Y19651285D01*
X22560878Y19616245D01*
X22541915Y19570464D01*
X22287090Y19570464D01*
X22288262Y19571891D01*
X22289544Y19574989D01*
X22296258Y19585653D01*
X22344639Y19682415D01*
X22345332Y19684228D01*
X22345879Y19684965D01*
X22349591Y19695358D01*
X22353537Y19705666D01*
X22353602Y19706582D01*
X22354255Y19708409D01*
X22402636Y19901933D01*
X22403271Y19906229D01*
X22403988Y19907959D01*
X22404906Y19917289D01*
X22406278Y19926561D01*
X22406002Y19928414D01*
X22406428Y19932735D01*
X22406428Y20174640D01*
X22406002Y20178962D01*
X22406278Y20180814D01*
X22404906Y20190087D01*
X22403988Y20199416D01*
X22403271Y20201147D01*
X22402636Y20205442D01*
X22354255Y20398966D01*
X22353602Y20400794D01*
X22353537Y20401709D01*
X22349591Y20412018D01*
X22345879Y20422410D01*
X22345332Y20423148D01*
X22344639Y20424960D01*
X22296258Y20521722D01*
X22289544Y20532387D01*
X22288262Y20535484D01*
X22285400Y20538971D01*
X22282996Y20542791D01*
X22280462Y20544989D01*
X22272469Y20554729D01*
X22224088Y20603110D01*
X22214347Y20611104D01*
X22212150Y20613637D01*
X22208329Y20616042D01*
X22204843Y20618903D01*
X22201745Y20620186D01*
X22191081Y20626899D01*
X22094319Y20675280D01*
X22071068Y20684178D01*
X22066515Y20684502D01*
X22062299Y20686248D01*
X22037523Y20688688D01*
X21940761Y20688688D01*
X21915985Y20686248D01*
X21911768Y20684502D01*
X21907216Y20684178D01*
X21883965Y20675280D01*
X21787203Y20626899D01*
X21776538Y20620186D01*
X21773441Y20618903D01*
X21769954Y20616042D01*
X21766134Y20613637D01*
X21763936Y20611104D01*
X21754196Y20603110D01*
X21705815Y20554729D01*
X21697821Y20544989D01*
X21695288Y20542791D01*
X21692883Y20538971D01*
X21690022Y20535484D01*
X21688739Y20532387D01*
X21682026Y20521722D01*
X21633645Y20424960D01*
X21632952Y20423150D01*
X21632405Y20422411D01*
X21628689Y20412010D01*
X21624747Y20401709D01*
X21624681Y20400794D01*
X21624029Y20398966D01*
X21575648Y20205442D01*
X21575012Y20201147D01*
X21574296Y20199416D01*
X21573377Y20190087D01*
X21572006Y20180814D01*
X21572281Y20178962D01*
X21571856Y20174640D01*
X21444856Y20174640D01*
X21444856Y20815688D01*
X24322159Y20815688D01*
X24322159Y19291688D01*
G37*
D11*
%TA.AperFunction,EtchedComponent*%
%TO.C,JP3*%
G36*
X22792500Y9692500D02*
G01*
X22292500Y9692500D01*
X22292500Y9992500D01*
X22792500Y9992500D01*
X22792500Y9692500D01*
G37*
%TD.AperFunction*%
%TA.AperFunction,EtchedComponent*%
%TO.C,JP2*%
G36*
X2269300Y16677500D02*
G01*
X1769300Y16677500D01*
X1769300Y16977500D01*
X2269300Y16977500D01*
X2269300Y16677500D01*
G37*
%TD.AperFunction*%
%TA.AperFunction,EtchedComponent*%
G36*
X3302000Y16654500D02*
G01*
X2802000Y16654500D01*
X2802000Y16954500D01*
X3302000Y16954500D01*
X3302000Y16654500D01*
G37*
%TD.AperFunction*%
%TA.AperFunction,EtchedComponent*%
%TO.C,JP4*%
G36*
X18982500Y22075000D02*
G01*
X18482500Y22075000D01*
X18482500Y22375000D01*
X18982500Y22375000D01*
X18982500Y22075000D01*
G37*
%TD.AperFunction*%
%TA.AperFunction,EtchedComponent*%
%TO.C,JP1*%
G36*
X2790000Y7152500D02*
G01*
X2290000Y7152500D01*
X2290000Y7452500D01*
X2790000Y7452500D01*
X2790000Y7152500D01*
G37*
%TD.AperFunction*%
%TA.AperFunction,EtchedComponent*%
%TO.C,JP5*%
G36*
X18982500Y24138750D02*
G01*
X18482500Y24138750D01*
X18482500Y24438750D01*
X18982500Y24438750D01*
X18982500Y24138750D01*
G37*
%TD.AperFunction*%
%TD*%
D12*
%TO.P,J5,1,Pin_1*%
%TO.N,EXTINT*%
X7620000Y3810000D03*
%TO.P,J5,2,Pin_2*%
%TO.N,SCL*%
X10160000Y3810000D03*
%TO.P,J5,3,Pin_3*%
%TO.N,SDA*%
X12700000Y3810000D03*
%TO.P,J5,4,Pin_4*%
%TO.N,~{RST}*%
X15240000Y3810000D03*
%TO.P,J5,5,Pin_5*%
%TO.N,EN*%
X17780000Y3810000D03*
%TD*%
%TO.P,J3,1,Pin_1*%
%TO.N,TX*%
X17780000Y1270000D03*
%TO.P,J3,2,Pin_2*%
%TO.N,RX*%
X15240000Y1270000D03*
%TO.P,J3,3,Pin_3*%
%TO.N,PPS*%
X12700000Y1270000D03*
%TO.P,J3,4,Pin_4*%
%TO.N,3.3V*%
X10160000Y1270000D03*
%TO.P,J3,5,Pin_5*%
%TO.N,GND*%
X7620000Y1270000D03*
%TD*%
D13*
%TO.P,J4,NC1,NC*%
%TO.N,unconnected-(J4-NC-PadNC1)*%
X17018000Y24155000D03*
D14*
%TO.P,J4,NC2,NC*%
%TO.N,unconnected-(J4-NC-PadNC2)*%
X17018000Y19975000D03*
%TO.P,J4,NC3,NC*%
%TO.N,unconnected-(J4-NC-PadNC3)*%
X8382000Y19975000D03*
D13*
%TO.P,J4,S,SHIELD*%
%TO.N,GND*%
X8382000Y24155000D03*
%TD*%
D15*
%TO.P,JP3,1,A*%
%TO.N,Net-(JP3-A)*%
X23063200Y9842500D03*
%TO.P,JP3,2,B*%
%TO.N,PPS*%
X22021800Y9842500D03*
%TD*%
%TO.P,JP2,1,A*%
%TO.N,Net-(JP2-A)*%
X1498600Y16827500D03*
%TO.P,JP2,2,B*%
%TO.N,3.3V*%
X2540000Y16827500D03*
%TO.P,JP2,3,C*%
%TO.N,Net-(JP2-C)*%
X3581400Y16827500D03*
%TD*%
%TO.P,JP4,1,A*%
%TO.N,Net-(JP4-A)*%
X18211800Y22225000D03*
%TO.P,JP4,2,B*%
%TO.N,RX*%
X19253200Y22225000D03*
%TD*%
%TO.P,JP1,1,A*%
%TO.N,Net-(JP1-A)*%
X2019300Y7302500D03*
%TO.P,JP1,2,B*%
%TO.N,3.3V*%
X3060700Y7302500D03*
%TD*%
D16*
%TO.P,FID2,*%
%TO.N,*%
X635000Y24765000D03*
%TD*%
%TO.P,FID1,*%
%TO.N,*%
X24765000Y635000D03*
%TD*%
D15*
%TO.P,JP5,1,A*%
%TO.N,Net-(JP5-A)*%
X18211800Y24288750D03*
%TO.P,JP5,2,B*%
%TO.N,TX*%
X19253200Y24288750D03*
%TD*%
D17*
%TO.P,U1,1,GND*%
%TO.N,GND*%
X19300000Y16500000D03*
%TO.P,U1,2,VCC_IO*%
%TO.N,3.3V*%
X19300000Y14600000D03*
%TO.P,U1,3,V_BCKP*%
%TO.N,V_BCKP*%
X19300000Y12700000D03*
%TO.P,U1,4,GND*%
%TO.N,GND*%
X19300000Y10800000D03*
%TO.P,U1,5,GND*%
X19300000Y8900000D03*
D18*
%TO.P,U1,6,GND*%
X16500000Y6100000D03*
%TO.P,U1,7,TIMEPULSE*%
%TO.N,PPS*%
X14600000Y6100000D03*
%TO.P,U1,8,~{SAFEBOOT}*%
%TO.N,~{SAFE}*%
X12700000Y6100000D03*
%TO.P,U1,9,SDA*%
%TO.N,SDA*%
X10800000Y6100000D03*
%TO.P,U1,10,GND*%
%TO.N,GND*%
X8900000Y6100000D03*
D17*
%TO.P,U1,11,GND*%
X6100000Y8900000D03*
%TO.P,U1,12,SCL*%
%TO.N,SCL*%
X6100000Y10800000D03*
%TO.P,U1,13,TXD*%
%TO.N,Net-(U1-TXD)*%
X6100000Y12700000D03*
%TO.P,U1,14,RXD*%
%TO.N,Net-(U1-RXD)*%
X6100000Y14600000D03*
%TO.P,U1,15,GND*%
%TO.N,GND*%
X6100000Y16500000D03*
D18*
%TO.P,U1,16,GND*%
X8900000Y19300000D03*
%TO.P,U1,17,VCC*%
%TO.N,3.3V*%
X10800000Y19300000D03*
%TO.P,U1,18,~{RESET}*%
%TO.N,~{RST}*%
X12700000Y19300000D03*
%TO.P,U1,19,EXTINT*%
%TO.N,EXTINT*%
X14600000Y19300000D03*
%TO.P,U1,20,GND*%
%TO.N,GND*%
X16500000Y19300000D03*
%TD*%
D19*
%TO.N,3.3V*%
X4445000Y18415000D03*
X4127500Y7302500D03*
X7620000Y16827500D03*
X11747500Y20955000D03*
X8572500Y13221300D03*
X20637500Y14932402D03*
X2540000Y20637500D03*
X24765000Y20320000D03*
X22225000Y12382500D03*
X3492500Y13652500D03*
%TO.N,GND*%
X18097500Y8890000D03*
X20955000Y16192500D03*
X5715000Y24447500D03*
X9207500Y21272500D03*
X21590000Y18097500D03*
X6032500Y7302500D03*
X16192500Y21272500D03*
X22860000Y16192500D03*
X3492500Y14605000D03*
X11747500Y16713800D03*
X9525000Y17780000D03*
X19300000Y16500000D03*
X21590000Y24765000D03*
X7620000Y8890000D03*
X17780000Y6350000D03*
X24447500Y8572500D03*
X4445000Y15557500D03*
X635000Y8255000D03*
X23926200Y12065000D03*
X8890000Y8255000D03*
X13335000Y13017500D03*
X4445000Y20320000D03*
X7620000Y15557500D03*
X6032500Y19050000D03*
X20637500Y8890000D03*
%TO.N,SDA*%
X3810000Y12065000D03*
X10795000Y8890000D03*
X10795000Y12065000D03*
X21906404Y13019692D03*
%TO.N,SCL*%
X3492500Y10477500D03*
X9842500Y11430000D03*
X21907500Y14200000D03*
%TO.N,Net-(JP1-A)*%
X1905000Y5397500D03*
%TO.N,VBUS*%
X10477500Y22542500D03*
X14980098Y22542500D03*
%TO.N,TX*%
X16827500Y9207500D03*
X16827500Y15944900D03*
%TO.N,V_BCKP*%
X8572500Y14922500D03*
X10477500Y13652500D03*
X6985000Y19050000D03*
%TO.N,RX*%
X17780000Y16192500D03*
X20637500Y20955000D03*
X19304400Y21272500D03*
%TO.N,Net-(U4-V3)*%
X9525000Y16510000D03*
X16193596Y16507808D03*
%TO.N,Net-(U1-RXD)*%
X15875000Y14605000D03*
%TO.N,Net-(U1-TXD)*%
X16192500Y12700000D03*
%TO.N,~{RST}*%
X12700000Y10795000D03*
X12700000Y17145000D03*
X15240000Y8890000D03*
%TO.N,Net-(JP2-C)*%
X3492500Y20637500D03*
%TO.N,Net-(JP2-A)*%
X1270000Y20637500D03*
%TO.N,Net-(JP3-A)*%
X24765000Y13970000D03*
%TO.N,Net-(JP4-A)*%
X15875000Y17145000D03*
%TO.N,Net-(JP5-A)*%
X16193596Y17782192D03*
%TO.N,EXTINT*%
X9525000Y15121300D03*
%TO.N,~{SAFE}*%
X7937500Y9842500D03*
%TD*%
D20*
%TO.N,SCL*%
X3815000Y10800000D02*
X6100000Y10800000D01*
X3492500Y10477500D02*
X3815000Y10800000D01*
D21*
%TO.N,3.3V*%
X19300000Y14600000D02*
X20305098Y14600000D01*
D22*
X10800000Y19300000D02*
X10800000Y20007500D01*
D20*
X2540000Y16827500D02*
X2540000Y20637500D01*
D22*
X10800000Y20007500D02*
X11747500Y20955000D01*
D21*
X20305098Y14600000D02*
X20637500Y14932402D01*
D20*
X3060700Y7302500D02*
X4127500Y7302500D01*
%TO.N,GND*%
X9207500Y21272500D02*
X9207500Y20955000D01*
X16192500Y21272500D02*
X16192500Y20955000D01*
X16192500Y20955000D02*
X16275700Y20871800D01*
X16275700Y20871800D02*
X16275700Y19524300D01*
X9207500Y20955000D02*
X9124300Y20871800D01*
X9124300Y20871800D02*
X9124300Y19524300D01*
%TO.N,SDA*%
X10800000Y8250000D02*
X10800000Y6100000D01*
X10795000Y8890000D02*
X10795000Y8255000D01*
X10795000Y8255000D02*
X10800000Y8250000D01*
%TO.N,SCL*%
X6100000Y10800000D02*
X6241356Y10800000D01*
%TO.N,Net-(JP1-A)*%
X2019300Y5511800D02*
X1905000Y5397500D01*
X2019300Y7302500D02*
X2019300Y5511800D01*
D22*
%TO.N,VBUS*%
X10477500Y22542500D02*
X14980098Y22542500D01*
D20*
%TO.N,TX*%
X19253200Y24288750D02*
X19825700Y23716250D01*
X16827500Y16676612D02*
X16827500Y15944900D01*
X19825700Y23716250D02*
X19825700Y19674812D01*
X19825700Y19674812D02*
X16827500Y16676612D01*
%TO.N,V_BCKP*%
X8572500Y16827500D02*
X6985000Y18415000D01*
X17145000Y12700000D02*
X16192500Y13652500D01*
X6985000Y18415000D02*
X6985000Y19050000D01*
X19300000Y12700000D02*
X17145000Y12700000D01*
X8572500Y14922500D02*
X8572500Y16827500D01*
X16192500Y13652500D02*
X10477500Y13652500D01*
%TO.N,RX*%
X20637500Y20002500D02*
X20637500Y20955000D01*
X19253200Y21323700D02*
X19304400Y21272500D01*
X17780000Y17145000D02*
X20637500Y20002500D01*
X17780000Y16192500D02*
X17780000Y17145000D01*
X19253200Y22225000D02*
X19253200Y21323700D01*
%TO.N,Net-(U4-V3)*%
X9842500Y16192500D02*
X15878288Y16192500D01*
X9525000Y16510000D02*
X9842500Y16192500D01*
X15878288Y16192500D02*
X16193596Y16507808D01*
%TO.N,Net-(U1-RXD)*%
X6100000Y14600000D02*
X6412500Y14287500D01*
X6100000Y14600000D02*
X6105000Y14605000D01*
X15250000Y14287500D02*
X15567500Y14605000D01*
X6412500Y14287500D02*
X15250000Y14287500D01*
X15567500Y14605000D02*
X15875000Y14605000D01*
%TO.N,Net-(U1-TXD)*%
X15987700Y12495200D02*
X16192500Y12700000D01*
X6100000Y12700000D02*
X12913856Y12700000D01*
X12913856Y12700000D02*
X13118656Y12495200D01*
X13118656Y12495200D02*
X15987700Y12495200D01*
%TO.N,~{RST}*%
X12700000Y19300000D02*
X12700000Y17145000D01*
X15240000Y8890000D02*
X13652500Y8890000D01*
X13652500Y8890000D02*
X12700000Y9842500D01*
X12700000Y9842500D02*
X12700000Y10795000D01*
%TO.N,PPS*%
X22021800Y9842500D02*
X22021800Y9004300D01*
X13970000Y5470000D02*
X14600000Y6100000D01*
X13970000Y2540000D02*
X13970000Y5470000D01*
X22021800Y9004300D02*
X20637500Y7620000D01*
X20637500Y7620000D02*
X14922500Y7620000D01*
X14600000Y7297500D02*
X14600000Y6100000D01*
X14922500Y7620000D02*
X14600000Y7297500D01*
X12700000Y1270000D02*
X13970000Y2540000D01*
%TO.N,Net-(JP2-C)*%
X3492500Y20637500D02*
X3581400Y20548600D01*
X3581400Y20548600D02*
X3581400Y16827500D01*
%TO.N,Net-(JP2-A)*%
X1498600Y20408900D02*
X1498600Y16827500D01*
X1270000Y20637500D02*
X1498600Y20408900D01*
%TO.N,Net-(JP3-A)*%
X24447500Y10160000D02*
X24130000Y9842500D01*
X24130000Y9842500D02*
X23063200Y9842500D01*
X24447500Y13652500D02*
X24447500Y10160000D01*
X24765000Y13970000D02*
X24447500Y13652500D01*
%TO.N,Net-(JP4-A)*%
X18211800Y18529300D02*
X16827500Y17145000D01*
X18211800Y22225000D02*
X18211800Y18529300D01*
X16827500Y17145000D02*
X15875000Y17145000D01*
%TO.N,Net-(JP5-A)*%
X17639300Y23411450D02*
X18211800Y23983950D01*
X17780000Y18565888D02*
X17780000Y21207000D01*
X16193596Y17782192D02*
X16996304Y17782192D01*
X16996304Y17782192D02*
X17780000Y18565888D01*
X17780000Y21207000D02*
X17639300Y21347700D01*
X17639300Y21347700D02*
X17639300Y23411450D01*
X18211800Y23983950D02*
X18211800Y24288750D01*
%TO.N,EXTINT*%
X8572500Y21907500D02*
X11533644Y21907500D01*
X7639700Y18425700D02*
X7639700Y20974700D01*
X14600000Y19300000D02*
X14600000Y20960000D01*
X8903700Y15742600D02*
X8903700Y17161700D01*
X11963844Y21477300D02*
X12168644Y21272500D01*
X14600000Y20960000D02*
X14287500Y21272500D01*
X11533644Y21907500D02*
X11963844Y21477300D01*
X7639700Y20974700D02*
X8572500Y21907500D01*
X8903700Y17161700D02*
X7639700Y18425700D01*
X12168644Y21272500D02*
X14287500Y21272500D01*
X9525000Y15121300D02*
X8903700Y15742600D01*
%TO.N,~{SAFE}*%
X11747500Y9842500D02*
X7937500Y9842500D01*
X12700000Y8890000D02*
X11747500Y9842500D01*
X12700000Y6100000D02*
X12700000Y8890000D01*
%TD*%
%TA.AperFunction,Conductor*%
%TO.N,GND*%
G36*
X7982604Y25303615D02*
G01*
X8028359Y25250811D01*
X8038303Y25181653D01*
X8009278Y25118097D01*
X7984456Y25096198D01*
X7901353Y25040671D01*
X7901349Y25040668D01*
X7796332Y24935651D01*
X7796329Y24935647D01*
X7713817Y24812160D01*
X7713812Y24812151D01*
X7656976Y24674935D01*
X7656974Y24674927D01*
X7628000Y24529267D01*
X7628000Y24358200D01*
X8082000Y24358200D01*
X8082000Y23951800D01*
X7628000Y23951800D01*
X7628000Y23780734D01*
X7656974Y23635074D01*
X7656976Y23635066D01*
X7713812Y23497850D01*
X7713817Y23497841D01*
X7796329Y23374354D01*
X7796332Y23374350D01*
X7901349Y23269333D01*
X7901353Y23269330D01*
X8024840Y23186818D01*
X8024850Y23186813D01*
X8162062Y23129978D01*
X8162071Y23129975D01*
X8178800Y23126648D01*
X8178800Y23633935D01*
X8197795Y23614940D01*
X8266204Y23575444D01*
X8342504Y23555000D01*
X8421496Y23555000D01*
X8497796Y23575444D01*
X8566205Y23614940D01*
X8585200Y23633935D01*
X8585200Y23126649D01*
X8601928Y23129975D01*
X8601937Y23129978D01*
X8739149Y23186813D01*
X8739159Y23186818D01*
X8862646Y23269330D01*
X8862650Y23269333D01*
X8967667Y23374350D01*
X8967670Y23374354D01*
X9050182Y23497841D01*
X9050187Y23497850D01*
X9107023Y23635066D01*
X9107025Y23635074D01*
X9135999Y23780734D01*
X9136000Y23780736D01*
X9136000Y23951800D01*
X8682000Y23951800D01*
X8682000Y24358200D01*
X9136000Y24358200D01*
X9136000Y24529265D01*
X9135999Y24529267D01*
X9107025Y24674927D01*
X9107023Y24674935D01*
X9050187Y24812151D01*
X9050182Y24812160D01*
X8967670Y24935647D01*
X8967667Y24935651D01*
X8862650Y25040668D01*
X8862646Y25040671D01*
X8779544Y25096198D01*
X8734739Y25149810D01*
X8726032Y25219135D01*
X8756186Y25282162D01*
X8815629Y25318882D01*
X8848435Y25323300D01*
X16718389Y25323300D01*
X16785428Y25303615D01*
X16831183Y25250811D01*
X16841127Y25181653D01*
X16812102Y25118097D01*
X16765841Y25084739D01*
X16696703Y25056102D01*
X16696701Y25056101D01*
X16585609Y24981871D01*
X16585605Y24981868D01*
X16491132Y24887395D01*
X16491129Y24887391D01*
X16416899Y24776299D01*
X16416898Y24776297D01*
X16365767Y24652855D01*
X16365765Y24652847D01*
X16339700Y24521810D01*
X16339700Y24521807D01*
X16339700Y23788193D01*
X16339700Y23788191D01*
X16339699Y23788191D01*
X16365765Y23657154D01*
X16365767Y23657146D01*
X16416898Y23533704D01*
X16416899Y23533702D01*
X16491129Y23422610D01*
X16491132Y23422606D01*
X16585605Y23328133D01*
X16585609Y23328130D01*
X16696704Y23253898D01*
X16820147Y23202767D01*
X16852237Y23196384D01*
X16951190Y23176700D01*
X16951193Y23176700D01*
X17084809Y23176700D01*
X17221827Y23203955D01*
X17222272Y23201714D01*
X17281933Y23202265D01*
X17341058Y23165036D01*
X17370669Y23101751D01*
X17372100Y23082970D01*
X17372100Y21297031D01*
X17352415Y21229992D01*
X17299611Y21184237D01*
X17230453Y21174293D01*
X17221858Y21176203D01*
X17221827Y21176045D01*
X17084809Y21203300D01*
X17084807Y21203300D01*
X16951193Y21203300D01*
X16951191Y21203300D01*
X16820153Y21177235D01*
X16820145Y21177233D01*
X16696703Y21126102D01*
X16696701Y21126101D01*
X16585609Y21051871D01*
X16585605Y21051868D01*
X16491132Y20957395D01*
X16491129Y20957391D01*
X16416899Y20846299D01*
X16416898Y20846297D01*
X16365764Y20722846D01*
X16365258Y20721178D01*
X16364756Y20720413D01*
X16363436Y20717225D01*
X16362831Y20717476D01*
X16326954Y20662744D01*
X16263139Y20634295D01*
X16194073Y20644863D01*
X16141685Y20691093D01*
X16126826Y20725100D01*
X16126281Y20727135D01*
X16050515Y20858365D01*
X15943365Y20965515D01*
X15860861Y21013149D01*
X15812136Y21041281D01*
X15718504Y21066369D01*
X15665766Y21080500D01*
X15514234Y21080500D01*
X15367863Y21041281D01*
X15236635Y20965515D01*
X15236632Y20965513D01*
X15129487Y20858368D01*
X15129485Y20858365D01*
X15098587Y20804848D01*
X15048019Y20756633D01*
X14979412Y20743411D01*
X14914548Y20769379D01*
X14874020Y20826293D01*
X14867200Y20866849D01*
X14867200Y21013148D01*
X14867199Y21013151D01*
X14826521Y21111357D01*
X14751357Y21186521D01*
X14438857Y21499021D01*
X14387169Y21520431D01*
X14340650Y21539700D01*
X14340649Y21539700D01*
X12330684Y21539700D01*
X12263645Y21559385D01*
X12243003Y21576019D01*
X11818903Y22000119D01*
X11785418Y22061442D01*
X11790402Y22131134D01*
X11832274Y22187067D01*
X11897738Y22211484D01*
X11906584Y22211800D01*
X14611301Y22211800D01*
X14678340Y22192115D01*
X14697238Y22176887D01*
X14698691Y22175772D01*
X14698695Y22175768D01*
X14803201Y22115432D01*
X14919762Y22084200D01*
X14919764Y22084200D01*
X15040432Y22084200D01*
X15040434Y22084200D01*
X15156995Y22115432D01*
X15261501Y22175768D01*
X15346830Y22261097D01*
X15407166Y22365603D01*
X15438398Y22482164D01*
X15438398Y22602836D01*
X15407166Y22719397D01*
X15346830Y22823903D01*
X15261501Y22909232D01*
X15156995Y22969568D01*
X15040434Y23000800D01*
X14919762Y23000800D01*
X14803201Y22969568D01*
X14803200Y22969568D01*
X14698696Y22909233D01*
X14692250Y22904286D01*
X14691407Y22905384D01*
X14637659Y22876034D01*
X14611301Y22873200D01*
X10846297Y22873200D01*
X10779258Y22892885D01*
X10760359Y22908114D01*
X10758904Y22909231D01*
X10758903Y22909232D01*
X10654397Y22969568D01*
X10537836Y23000800D01*
X10417164Y23000800D01*
X10300603Y22969568D01*
X10300602Y22969568D01*
X10196098Y22909233D01*
X10196095Y22909231D01*
X10110769Y22823905D01*
X10110767Y22823902D01*
X10050432Y22719398D01*
X10050432Y22719397D01*
X10019200Y22602836D01*
X10019200Y22482165D01*
X10050432Y22365604D01*
X10050432Y22365603D01*
X10053262Y22360702D01*
X10069736Y22292802D01*
X10046885Y22226775D01*
X9991964Y22183583D01*
X9945876Y22174700D01*
X8519349Y22174700D01*
X8421142Y22134021D01*
X7413179Y21126058D01*
X7372500Y21027851D01*
X7372500Y19570251D01*
X7352815Y19503212D01*
X7300011Y19457457D01*
X7230853Y19447513D01*
X7186501Y19462863D01*
X7161897Y19477068D01*
X7045336Y19508300D01*
X6924664Y19508300D01*
X6808103Y19477068D01*
X6808102Y19477068D01*
X6703598Y19416733D01*
X6703595Y19416731D01*
X6618269Y19331405D01*
X6618267Y19331402D01*
X6557932Y19226898D01*
X6557932Y19226897D01*
X6526700Y19110336D01*
X6526700Y18989664D01*
X6557932Y18873103D01*
X6615860Y18772767D01*
X6618267Y18768599D01*
X6618269Y18768596D01*
X6681481Y18705384D01*
X6714966Y18644061D01*
X6717800Y18617703D01*
X6717800Y18361850D01*
X6758479Y18263643D01*
X7547121Y17475001D01*
X7580606Y17413678D01*
X7575622Y17343986D01*
X7533750Y17288053D01*
X7491535Y17267546D01*
X7443103Y17254568D01*
X7443102Y17254568D01*
X7443100Y17254567D01*
X7443096Y17254565D01*
X7426982Y17245262D01*
X7359081Y17228792D01*
X7293055Y17251646D01*
X7249867Y17306569D01*
X7243368Y17328464D01*
X7239262Y17349106D01*
X7239261Y17349110D01*
X7183123Y17433124D01*
X7099104Y17489264D01*
X7099103Y17489265D01*
X7025021Y17504000D01*
X6303200Y17504000D01*
X6303200Y16624000D01*
X6283515Y16556961D01*
X6230711Y16511206D01*
X6179200Y16500000D01*
X6100000Y16500000D01*
X6100000Y16420800D01*
X6080315Y16353761D01*
X6027511Y16308006D01*
X5976000Y16296800D01*
X4946001Y16296800D01*
X4946001Y15724986D01*
X4960737Y15650894D01*
X4960738Y15650891D01*
X5023661Y15556722D01*
X5021467Y15555257D01*
X5046499Y15509415D01*
X5041515Y15439723D01*
X5035630Y15428226D01*
X5032043Y15419567D01*
X5021700Y15367566D01*
X5021700Y13832442D01*
X5027386Y13803857D01*
X5032045Y13780431D01*
X5071453Y13721453D01*
X5071454Y13721453D01*
X5073165Y13718892D01*
X5094043Y13652214D01*
X5075559Y13584834D01*
X5073165Y13581109D01*
X5032044Y13519568D01*
X5032043Y13519567D01*
X5021700Y13467566D01*
X5021700Y11932442D01*
X5028488Y11898313D01*
X5032045Y11880431D01*
X5071453Y11821453D01*
X5071454Y11821453D01*
X5073165Y11818892D01*
X5094043Y11752214D01*
X5075559Y11684834D01*
X5073165Y11681109D01*
X5032044Y11619568D01*
X5032043Y11619567D01*
X5021700Y11567566D01*
X5021700Y11191200D01*
X5002015Y11124161D01*
X4949211Y11078406D01*
X4897700Y11067200D01*
X3761849Y11067200D01*
X3663643Y11026521D01*
X3609238Y10972118D01*
X3547916Y10938634D01*
X3521559Y10935800D01*
X3432164Y10935800D01*
X3315603Y10904568D01*
X3315602Y10904568D01*
X3211098Y10844233D01*
X3211095Y10844231D01*
X3125769Y10758905D01*
X3125767Y10758902D01*
X3065432Y10654398D01*
X3065432Y10654397D01*
X3034200Y10537836D01*
X3034200Y10417164D01*
X3065432Y10300603D01*
X3125768Y10196097D01*
X3211097Y10110768D01*
X3315603Y10050432D01*
X3432164Y10019200D01*
X3432166Y10019200D01*
X3552834Y10019200D01*
X3552836Y10019200D01*
X3669397Y10050432D01*
X3773903Y10110768D01*
X3859232Y10196097D01*
X3919568Y10300603D01*
X3950800Y10417164D01*
X3950800Y10417172D01*
X3951830Y10424989D01*
X3980099Y10488885D01*
X4038424Y10527354D01*
X4074769Y10532800D01*
X4897701Y10532800D01*
X4964740Y10513115D01*
X5010495Y10460311D01*
X5021701Y10408800D01*
X5021701Y10032440D01*
X5026434Y10008643D01*
X5032045Y9980430D01*
X5036720Y9969144D01*
X5034011Y9968023D01*
X5049312Y9919153D01*
X5030826Y9851773D01*
X5021252Y9839673D01*
X4960736Y9749105D01*
X4960735Y9749104D01*
X4946000Y9675022D01*
X4946000Y9103200D01*
X7253999Y9103200D01*
X7253999Y9668313D01*
X7236908Y9752630D01*
X7176339Y9843278D01*
X7178532Y9844744D01*
X7153500Y9890586D01*
X7158484Y9960278D01*
X7164367Y9971771D01*
X7167956Y9980434D01*
X7176817Y10024982D01*
X7178300Y10032439D01*
X7178299Y11490336D01*
X9384200Y11490336D01*
X9384200Y11369664D01*
X9415432Y11253103D01*
X9475768Y11148597D01*
X9561097Y11063268D01*
X9665603Y11002932D01*
X9782164Y10971700D01*
X9782166Y10971700D01*
X9902834Y10971700D01*
X9902836Y10971700D01*
X10019397Y11002932D01*
X10123903Y11063268D01*
X10209232Y11148597D01*
X10269568Y11253103D01*
X10300800Y11369664D01*
X10300800Y11490336D01*
X10269568Y11606897D01*
X10209232Y11711403D01*
X10123903Y11796732D01*
X10019397Y11857068D01*
X9902836Y11888300D01*
X9782164Y11888300D01*
X9665603Y11857068D01*
X9665602Y11857068D01*
X9561098Y11796733D01*
X9561095Y11796731D01*
X9475769Y11711405D01*
X9475767Y11711402D01*
X9415432Y11606898D01*
X9415432Y11606897D01*
X9384200Y11490336D01*
X7178299Y11490336D01*
X7178299Y11567560D01*
X7167955Y11619569D01*
X7167954Y11619571D01*
X7167953Y11619574D01*
X7126835Y11681109D01*
X7105956Y11747786D01*
X7124440Y11815167D01*
X7126835Y11818893D01*
X7128544Y11821452D01*
X7128547Y11821453D01*
X7167955Y11880431D01*
X7169482Y11888104D01*
X7178299Y11932435D01*
X7178300Y11932438D01*
X7178300Y12308800D01*
X7197985Y12375839D01*
X7250789Y12421594D01*
X7302300Y12432800D01*
X10263376Y12432800D01*
X10330415Y12413115D01*
X10376170Y12360311D01*
X10386114Y12291153D01*
X10370762Y12246798D01*
X10367932Y12241898D01*
X10367932Y12241897D01*
X10336700Y12125336D01*
X10336700Y12004664D01*
X10350735Y11952281D01*
X10356051Y11932442D01*
X10367932Y11888103D01*
X10428268Y11783597D01*
X10513597Y11698268D01*
X10618103Y11637932D01*
X10734664Y11606700D01*
X10734666Y11606700D01*
X10855334Y11606700D01*
X10855336Y11606700D01*
X10971897Y11637932D01*
X11076403Y11698268D01*
X11161732Y11783597D01*
X11222068Y11888103D01*
X11253300Y12004664D01*
X11253300Y12125336D01*
X11222068Y12241897D01*
X11219237Y12246800D01*
X11202764Y12314698D01*
X11225615Y12380725D01*
X11280536Y12423917D01*
X11326624Y12432800D01*
X12751816Y12432800D01*
X12818855Y12413115D01*
X12839497Y12396481D01*
X12892135Y12343843D01*
X12967299Y12268679D01*
X13065507Y12228000D01*
X13065509Y12228000D01*
X16040848Y12228000D01*
X16040849Y12228000D01*
X16057907Y12235067D01*
X16124030Y12242179D01*
X16124107Y12242761D01*
X16126508Y12242445D01*
X16127376Y12242538D01*
X16129626Y12242035D01*
X16132163Y12241701D01*
X16132164Y12241700D01*
X16132165Y12241700D01*
X16252834Y12241700D01*
X16252836Y12241700D01*
X16369397Y12272932D01*
X16473903Y12333268D01*
X16559232Y12418597D01*
X16619568Y12523103D01*
X16632545Y12571535D01*
X16668908Y12631194D01*
X16731755Y12661724D01*
X16801130Y12653430D01*
X16840000Y12627122D01*
X16918479Y12548643D01*
X16993643Y12473479D01*
X17091851Y12432800D01*
X18097701Y12432800D01*
X18164740Y12413115D01*
X18210495Y12360311D01*
X18221701Y12308800D01*
X18221701Y11932440D01*
X18221702Y11932435D01*
X18232045Y11880430D01*
X18236720Y11869144D01*
X18234011Y11868023D01*
X18249312Y11819153D01*
X18230826Y11751773D01*
X18221252Y11739673D01*
X18160736Y11649105D01*
X18160735Y11649104D01*
X18146000Y11575022D01*
X18146000Y11003200D01*
X20453999Y11003200D01*
X20453999Y11575015D01*
X20439262Y11649107D01*
X20439261Y11649110D01*
X20376339Y11743278D01*
X20378532Y11744744D01*
X20353500Y11790586D01*
X20358484Y11860278D01*
X20364367Y11871771D01*
X20367956Y11880434D01*
X20378299Y11932435D01*
X20378300Y11932439D01*
X20378299Y13080028D01*
X21448104Y13080028D01*
X21448104Y12959356D01*
X21479336Y12842795D01*
X21539672Y12738289D01*
X21625001Y12652960D01*
X21625003Y12652959D01*
X21625007Y12652956D01*
X21714073Y12601534D01*
X21762289Y12550968D01*
X21775513Y12482361D01*
X21771850Y12462057D01*
X21766700Y12442836D01*
X21766700Y12322164D01*
X21797932Y12205603D01*
X21858268Y12101097D01*
X21943597Y12015768D01*
X22048103Y11955432D01*
X22164664Y11924200D01*
X22164666Y11924200D01*
X22285334Y11924200D01*
X22285336Y11924200D01*
X22401897Y11955432D01*
X22506403Y12015768D01*
X22591732Y12101097D01*
X22652068Y12205603D01*
X22683300Y12322164D01*
X22683300Y12442836D01*
X22652068Y12559397D01*
X22591732Y12663903D01*
X22506403Y12749232D01*
X22506402Y12749233D01*
X22506399Y12749235D01*
X22417329Y12800659D01*
X22369114Y12851226D01*
X22355890Y12919833D01*
X22359555Y12940141D01*
X22364704Y12959356D01*
X22364704Y13080028D01*
X22333472Y13196589D01*
X22273136Y13301095D01*
X22187807Y13386424D01*
X22083301Y13446760D01*
X21966740Y13477992D01*
X21846068Y13477992D01*
X21729507Y13446760D01*
X21729506Y13446760D01*
X21625002Y13386425D01*
X21624999Y13386423D01*
X21539673Y13301097D01*
X21539671Y13301094D01*
X21479336Y13196590D01*
X21479336Y13196589D01*
X21448104Y13080028D01*
X20378299Y13080028D01*
X20378299Y13467560D01*
X20367955Y13519569D01*
X20367954Y13519571D01*
X20367953Y13519574D01*
X20326835Y13581109D01*
X20305956Y13647786D01*
X20324440Y13715167D01*
X20326835Y13718893D01*
X20328544Y13721452D01*
X20328547Y13721453D01*
X20367955Y13780431D01*
X20378300Y13832439D01*
X20378299Y14130973D01*
X20397983Y14198011D01*
X20428628Y14230714D01*
X20444410Y14242372D01*
X20452352Y14244499D01*
X20479783Y14260336D01*
X21449200Y14260336D01*
X21449200Y14139664D01*
X21480432Y14023103D01*
X21540768Y13918597D01*
X21626097Y13833268D01*
X21730603Y13772932D01*
X21847164Y13741700D01*
X21847166Y13741700D01*
X21967834Y13741700D01*
X21967836Y13741700D01*
X22084397Y13772932D01*
X22188903Y13833268D01*
X22274232Y13918597D01*
X22334568Y14023103D01*
X22365800Y14139664D01*
X22365800Y14260336D01*
X22334568Y14376897D01*
X22274232Y14481403D01*
X22188903Y14566732D01*
X22084397Y14627068D01*
X21967836Y14658300D01*
X21847164Y14658300D01*
X21730603Y14627068D01*
X21730602Y14627068D01*
X21626098Y14566733D01*
X21626095Y14566731D01*
X21540769Y14481405D01*
X21540767Y14481402D01*
X21480432Y14376898D01*
X21480432Y14376897D01*
X21449200Y14260336D01*
X20479783Y14260336D01*
X20539345Y14294724D01*
X20610374Y14365753D01*
X20610374Y14365754D01*
X20702873Y14458254D01*
X20758460Y14490346D01*
X20814394Y14505333D01*
X20814394Y14505334D01*
X20814397Y14505334D01*
X20918903Y14565670D01*
X21004232Y14650999D01*
X21064568Y14755505D01*
X21095800Y14872066D01*
X21095800Y14992738D01*
X21064568Y15109299D01*
X21004232Y15213805D01*
X20918903Y15299134D01*
X20814397Y15359470D01*
X20697836Y15390702D01*
X20577164Y15390702D01*
X20515651Y15374221D01*
X20445802Y15375883D01*
X20387940Y15415046D01*
X20360436Y15479275D01*
X20372023Y15548177D01*
X20380457Y15562886D01*
X20439263Y15650896D01*
X20439264Y15650897D01*
X20453999Y15724979D01*
X20454000Y15724982D01*
X20454000Y16296800D01*
X19424000Y16296800D01*
X19356961Y16316485D01*
X19311206Y16369289D01*
X19300000Y16420800D01*
X19300000Y16500000D01*
X19220800Y16500000D01*
X19153761Y16519685D01*
X19108006Y16572489D01*
X19096800Y16624000D01*
X19096800Y16703200D01*
X19503200Y16703200D01*
X20453999Y16703200D01*
X20453999Y17275015D01*
X20439262Y17349107D01*
X20439261Y17349110D01*
X20383123Y17433124D01*
X20299104Y17489264D01*
X20299103Y17489265D01*
X20225021Y17504000D01*
X19503200Y17504000D01*
X19503200Y16703200D01*
X19096800Y16703200D01*
X19096800Y17504000D01*
X18816239Y17504000D01*
X18749200Y17523685D01*
X18703445Y17576489D01*
X18693501Y17645647D01*
X18722526Y17709203D01*
X18728544Y17715667D01*
X20864021Y19851143D01*
X20904700Y19949351D01*
X20904700Y20055649D01*
X20904700Y20522703D01*
X20924385Y20589742D01*
X20941019Y20610384D01*
X20970419Y20639784D01*
X21004232Y20673597D01*
X21064568Y20778103D01*
X21095800Y20894664D01*
X21095800Y21015336D01*
X21064568Y21131897D01*
X21004232Y21236403D01*
X20918903Y21321732D01*
X20814397Y21382068D01*
X20697836Y21413300D01*
X20577164Y21413300D01*
X20460603Y21382068D01*
X20460602Y21382068D01*
X20356098Y21321733D01*
X20356095Y21321731D01*
X20304581Y21270216D01*
X20243258Y21236731D01*
X20173566Y21241715D01*
X20117633Y21283587D01*
X20093216Y21349051D01*
X20092900Y21357897D01*
X20092900Y22978005D01*
X21059500Y22978005D01*
X21059500Y22741996D01*
X21059501Y22741980D01*
X21077819Y22602836D01*
X21090307Y22507986D01*
X21097226Y22482165D01*
X21151394Y22280007D01*
X21241714Y22061955D01*
X21241719Y22061944D01*
X21312677Y21939043D01*
X21359727Y21857550D01*
X21359729Y21857547D01*
X21359730Y21857546D01*
X21503406Y21670303D01*
X21503412Y21670296D01*
X21670295Y21503413D01*
X21670302Y21503407D01*
X21718406Y21466496D01*
X21857550Y21359727D01*
X21959263Y21301003D01*
X22061943Y21241720D01*
X22061948Y21241718D01*
X22061951Y21241716D01*
X22280007Y21151394D01*
X22507986Y21090307D01*
X22741989Y21059500D01*
X22741996Y21059500D01*
X22978004Y21059500D01*
X22978011Y21059500D01*
X23212014Y21090307D01*
X23439993Y21151394D01*
X23658049Y21241716D01*
X23862450Y21359727D01*
X24049699Y21503408D01*
X24216592Y21670301D01*
X24360273Y21857550D01*
X24478284Y22061951D01*
X24568606Y22280007D01*
X24629693Y22507986D01*
X24660500Y22741989D01*
X24660500Y22978011D01*
X24629693Y23212014D01*
X24568606Y23439993D01*
X24478284Y23658049D01*
X24478282Y23658052D01*
X24478280Y23658057D01*
X24431429Y23739204D01*
X24360273Y23862450D01*
X24216592Y24049699D01*
X24216587Y24049705D01*
X24049704Y24216588D01*
X24049697Y24216594D01*
X23862454Y24360270D01*
X23862453Y24360271D01*
X23862450Y24360273D01*
X23776603Y24409837D01*
X23658056Y24478281D01*
X23658045Y24478286D01*
X23439993Y24568606D01*
X23212010Y24629694D01*
X22978020Y24660499D01*
X22978017Y24660500D01*
X22978011Y24660500D01*
X22741989Y24660500D01*
X22741983Y24660500D01*
X22741979Y24660499D01*
X22507989Y24629694D01*
X22280006Y24568606D01*
X22061954Y24478286D01*
X22061943Y24478281D01*
X21857545Y24360270D01*
X21670302Y24216594D01*
X21670295Y24216588D01*
X21503412Y24049705D01*
X21503406Y24049698D01*
X21359730Y23862455D01*
X21241719Y23658057D01*
X21241714Y23658046D01*
X21151394Y23439994D01*
X21090306Y23212011D01*
X21059501Y22978021D01*
X21059500Y22978005D01*
X20092900Y22978005D01*
X20092900Y23769398D01*
X20092899Y23769401D01*
X20085115Y23788193D01*
X20052221Y23867607D01*
X19977057Y23942771D01*
X19798018Y24121810D01*
X19764533Y24183133D01*
X19761699Y24209491D01*
X19761699Y24941309D01*
X19761699Y24941311D01*
X19751355Y24993319D01*
X19711947Y25052297D01*
X19652969Y25091705D01*
X19652967Y25091706D01*
X19646244Y25096198D01*
X19601439Y25149810D01*
X19592732Y25219135D01*
X19622886Y25282162D01*
X19682329Y25318882D01*
X19715135Y25323300D01*
X25199300Y25323300D01*
X25266339Y25303615D01*
X25312094Y25250811D01*
X25323300Y25199300D01*
X25323300Y20709197D01*
X25303615Y20642158D01*
X25250811Y20596403D01*
X25181653Y20586459D01*
X25118097Y20615484D01*
X25111619Y20621516D01*
X25046404Y20686731D01*
X25046403Y20686732D01*
X24941897Y20747068D01*
X24825336Y20778300D01*
X24704664Y20778300D01*
X24588103Y20747068D01*
X24588102Y20747068D01*
X24483598Y20686733D01*
X24483595Y20686731D01*
X24414296Y20617431D01*
X24352973Y20583946D01*
X24283281Y20588930D01*
X24227348Y20630802D01*
X24203229Y20695467D01*
X24202615Y20696081D01*
X21564575Y20696081D01*
X21564575Y19412230D01*
X24202615Y19412230D01*
X24202615Y19934888D01*
X24222300Y20001927D01*
X24275104Y20047682D01*
X24344262Y20057626D01*
X24407818Y20028601D01*
X24414296Y20022569D01*
X24483597Y19953268D01*
X24588103Y19892932D01*
X24704664Y19861700D01*
X24704666Y19861700D01*
X24825334Y19861700D01*
X24825336Y19861700D01*
X24941897Y19892932D01*
X25046403Y19953268D01*
X25111619Y20018484D01*
X25172942Y20051969D01*
X25242634Y20046985D01*
X25298567Y20005113D01*
X25322984Y19939649D01*
X25323300Y19930803D01*
X25323300Y14359197D01*
X25303615Y14292158D01*
X25250811Y14246403D01*
X25181653Y14236459D01*
X25118097Y14265484D01*
X25111619Y14271516D01*
X25046404Y14336731D01*
X25046403Y14336732D01*
X24941897Y14397068D01*
X24825336Y14428300D01*
X24704664Y14428300D01*
X24588103Y14397068D01*
X24588102Y14397068D01*
X24483598Y14336733D01*
X24483595Y14336731D01*
X24398269Y14251405D01*
X24398267Y14251402D01*
X24337932Y14146898D01*
X24337932Y14146897D01*
X24306700Y14030336D01*
X24306700Y13940940D01*
X24287015Y13873901D01*
X24270381Y13853259D01*
X24220980Y13803859D01*
X24220979Y13803858D01*
X24180300Y13705651D01*
X24180300Y10322040D01*
X24171655Y10292600D01*
X24165132Y10262613D01*
X24161377Y10257598D01*
X24160615Y10255001D01*
X24143981Y10234359D01*
X24055641Y10146019D01*
X23994318Y10112534D01*
X23967960Y10109700D01*
X23695699Y10109700D01*
X23628660Y10129385D01*
X23582905Y10182189D01*
X23571699Y10233700D01*
X23571699Y10495059D01*
X23568012Y10513597D01*
X23561355Y10547069D01*
X23521947Y10606047D01*
X23462969Y10645455D01*
X23462968Y10645456D01*
X23462967Y10645456D01*
X23462966Y10645457D01*
X23410963Y10655800D01*
X22715441Y10655800D01*
X22663429Y10645455D01*
X22663427Y10645454D01*
X22611390Y10610683D01*
X22544712Y10589805D01*
X22477332Y10608290D01*
X22473627Y10610671D01*
X22421569Y10645455D01*
X22421568Y10645456D01*
X22421567Y10645456D01*
X22421566Y10645457D01*
X22369563Y10655800D01*
X21674041Y10655800D01*
X21622030Y10645455D01*
X21582622Y10619123D01*
X21563055Y10606048D01*
X21563052Y10606046D01*
X21523644Y10547068D01*
X21523643Y10547067D01*
X21513300Y10495066D01*
X21513300Y9189942D01*
X21521808Y9147166D01*
X21523645Y9137931D01*
X21563053Y9078953D01*
X21563054Y9078952D01*
X21568809Y9070340D01*
X21589687Y9003663D01*
X21571203Y8936282D01*
X21553388Y8913767D01*
X20665118Y8025497D01*
X20603795Y7992012D01*
X20534103Y7996996D01*
X20478170Y8038868D01*
X20453753Y8104332D01*
X20454000Y8122732D01*
X20454000Y8696800D01*
X18146001Y8696800D01*
X18146001Y8124986D01*
X18163120Y8038915D01*
X18159719Y8038239D01*
X18164989Y7989168D01*
X18133706Y7926693D01*
X18073613Y7891048D01*
X18042962Y7887200D01*
X14869349Y7887200D01*
X14771142Y7846521D01*
X14373479Y7448858D01*
X14332800Y7350651D01*
X14332800Y7302300D01*
X14313115Y7235261D01*
X14260311Y7189506D01*
X14208800Y7178300D01*
X13832441Y7178300D01*
X13780429Y7167955D01*
X13780427Y7167954D01*
X13718890Y7126835D01*
X13652213Y7105957D01*
X13584832Y7124441D01*
X13581108Y7126835D01*
X13578547Y7128546D01*
X13578547Y7128547D01*
X13519569Y7167955D01*
X13519568Y7167956D01*
X13519567Y7167956D01*
X13519566Y7167957D01*
X13467565Y7178300D01*
X13467561Y7178300D01*
X13091200Y7178300D01*
X13024161Y7197985D01*
X12978406Y7250789D01*
X12967200Y7302300D01*
X12967200Y8898060D01*
X12986885Y8965099D01*
X13039689Y9010854D01*
X13108847Y9020798D01*
X13172403Y8991773D01*
X13178881Y8985741D01*
X13501143Y8663479D01*
X13599351Y8622800D01*
X13705649Y8622800D01*
X14807703Y8622800D01*
X14874742Y8603115D01*
X14895384Y8586481D01*
X14958597Y8523268D01*
X15063103Y8462932D01*
X15179664Y8431700D01*
X15179666Y8431700D01*
X15300334Y8431700D01*
X15300336Y8431700D01*
X15416897Y8462932D01*
X15521403Y8523268D01*
X15606732Y8608597D01*
X15667068Y8713103D01*
X15698300Y8829664D01*
X15698300Y8950336D01*
X15667068Y9066897D01*
X15606732Y9171403D01*
X15521403Y9256732D01*
X15502170Y9267836D01*
X16369200Y9267836D01*
X16369200Y9147164D01*
X16400432Y9030603D01*
X16460768Y8926097D01*
X16546097Y8840768D01*
X16650603Y8780432D01*
X16767164Y8749200D01*
X16767166Y8749200D01*
X16887834Y8749200D01*
X16887836Y8749200D01*
X17004397Y8780432D01*
X17108903Y8840768D01*
X17194232Y8926097D01*
X17254568Y9030603D01*
X17285800Y9147164D01*
X17285800Y9267836D01*
X17254568Y9384397D01*
X17194232Y9488903D01*
X17108903Y9574232D01*
X17004397Y9634568D01*
X16906706Y9660744D01*
X18146000Y9660744D01*
X18146000Y9103200D01*
X19096800Y9103200D01*
X19503200Y9103200D01*
X20453999Y9103200D01*
X20453999Y9675015D01*
X20439262Y9749107D01*
X20439261Y9749110D01*
X20417879Y9781110D01*
X20397001Y9847787D01*
X20415485Y9915167D01*
X20417879Y9918893D01*
X20439264Y9950898D01*
X20453999Y10024979D01*
X20454000Y10024982D01*
X20454000Y10596800D01*
X19503200Y10596800D01*
X19503200Y9103200D01*
X19096800Y9103200D01*
X19096800Y10596800D01*
X18146001Y10596800D01*
X18146001Y10024986D01*
X18160737Y9950894D01*
X18160738Y9950891D01*
X18182120Y9918891D01*
X18202998Y9852213D01*
X18196503Y9810337D01*
X18146000Y9660744D01*
X16906706Y9660744D01*
X16887836Y9665800D01*
X16767164Y9665800D01*
X16650603Y9634568D01*
X16650602Y9634568D01*
X16546098Y9574233D01*
X16546095Y9574231D01*
X16460769Y9488905D01*
X16460767Y9488902D01*
X16400432Y9384398D01*
X16400432Y9384397D01*
X16369200Y9267836D01*
X15502170Y9267836D01*
X15416897Y9317068D01*
X15300336Y9348300D01*
X15179664Y9348300D01*
X15063103Y9317068D01*
X15063102Y9317068D01*
X14958598Y9256733D01*
X14958595Y9256731D01*
X14895384Y9193519D01*
X14834061Y9160034D01*
X14807703Y9157200D01*
X13814540Y9157200D01*
X13747501Y9176885D01*
X13726859Y9193519D01*
X13003519Y9916859D01*
X12970034Y9978182D01*
X12967200Y10004540D01*
X12967200Y10362703D01*
X12986885Y10429742D01*
X13003519Y10450384D01*
X13013446Y10460311D01*
X13066732Y10513597D01*
X13127068Y10618103D01*
X13158300Y10734664D01*
X13158300Y10855336D01*
X13127068Y10971897D01*
X13066732Y11076403D01*
X12981403Y11161732D01*
X12876897Y11222068D01*
X12760336Y11253300D01*
X12639664Y11253300D01*
X12523103Y11222068D01*
X12523102Y11222068D01*
X12418598Y11161733D01*
X12418595Y11161731D01*
X12333269Y11076405D01*
X12333267Y11076402D01*
X12272932Y10971898D01*
X12272932Y10971897D01*
X12241700Y10855336D01*
X12241700Y10734664D01*
X12272932Y10618103D01*
X12325325Y10527354D01*
X12333267Y10513599D01*
X12333269Y10513596D01*
X12396481Y10450384D01*
X12429966Y10389061D01*
X12432800Y10362703D01*
X12432800Y9834440D01*
X12413115Y9767401D01*
X12360311Y9721646D01*
X12291153Y9711702D01*
X12227597Y9740727D01*
X12221119Y9746759D01*
X11898857Y10069021D01*
X11800650Y10109700D01*
X11800649Y10109700D01*
X8369797Y10109700D01*
X8302758Y10129385D01*
X8282116Y10146019D01*
X8218904Y10209231D01*
X8218903Y10209232D01*
X8114397Y10269568D01*
X7997836Y10300800D01*
X7877164Y10300800D01*
X7760603Y10269568D01*
X7760602Y10269568D01*
X7656098Y10209233D01*
X7656095Y10209231D01*
X7570769Y10123905D01*
X7570767Y10123902D01*
X7510432Y10019398D01*
X7510432Y10019397D01*
X7479200Y9902836D01*
X7479200Y9782164D01*
X7510432Y9665603D01*
X7570768Y9561097D01*
X7656097Y9475768D01*
X7760603Y9415432D01*
X7877164Y9384200D01*
X7877166Y9384200D01*
X7997834Y9384200D01*
X7997836Y9384200D01*
X8114397Y9415432D01*
X8218903Y9475768D01*
X8282116Y9538981D01*
X8343439Y9572466D01*
X8369797Y9575300D01*
X10639966Y9575300D01*
X10707005Y9555615D01*
X10752760Y9502811D01*
X10762704Y9433653D01*
X10733679Y9370097D01*
X10674901Y9332323D01*
X10672079Y9331531D01*
X10618103Y9317068D01*
X10618102Y9317068D01*
X10513598Y9256733D01*
X10513595Y9256731D01*
X10428269Y9171405D01*
X10428267Y9171402D01*
X10367932Y9066898D01*
X10367932Y9066897D01*
X10336700Y8950336D01*
X10336700Y8829664D01*
X10367932Y8713103D01*
X10420067Y8622801D01*
X10428267Y8608599D01*
X10428269Y8608596D01*
X10491481Y8545384D01*
X10524966Y8484061D01*
X10527800Y8457703D01*
X10527800Y8201853D01*
X10530183Y8189871D01*
X10527960Y8189429D01*
X10532800Y8165114D01*
X10532800Y7302300D01*
X10513115Y7235261D01*
X10460311Y7189506D01*
X10408800Y7178300D01*
X10032441Y7178300D01*
X9980429Y7167955D01*
X9969144Y7163280D01*
X9968022Y7165987D01*
X9919140Y7150687D01*
X9851762Y7169181D01*
X9839671Y7178750D01*
X9749104Y7239264D01*
X9749103Y7239265D01*
X9675021Y7254000D01*
X9103200Y7254000D01*
X9103200Y4946001D01*
X9439713Y4946001D01*
X9506752Y4926316D01*
X9552507Y4873512D01*
X9562451Y4804354D01*
X9533426Y4740798D01*
X9512600Y4721685D01*
X9431607Y4662839D01*
X9431605Y4662837D01*
X9431604Y4662837D01*
X9307163Y4538396D01*
X9307163Y4538395D01*
X9307161Y4538393D01*
X9262735Y4477247D01*
X9203715Y4396013D01*
X9123815Y4239202D01*
X9123814Y4239199D01*
X9069432Y4071824D01*
X9041900Y3897996D01*
X9041900Y3722005D01*
X9069432Y3548177D01*
X9123814Y3380802D01*
X9123815Y3380799D01*
X9203715Y3223988D01*
X9307161Y3081607D01*
X9431607Y2957161D01*
X9573988Y2853715D01*
X9650899Y2814527D01*
X9730798Y2773816D01*
X9730801Y2773815D01*
X9814488Y2746624D01*
X9898178Y2719432D01*
X10072004Y2691900D01*
X10072005Y2691900D01*
X10247995Y2691900D01*
X10247996Y2691900D01*
X10421822Y2719432D01*
X10589201Y2773816D01*
X10746012Y2853715D01*
X10888393Y2957161D01*
X11012839Y3081607D01*
X11116285Y3223988D01*
X11196184Y3380799D01*
X11250568Y3548178D01*
X11278100Y3722004D01*
X11278100Y3897996D01*
X11250568Y4071822D01*
X11196685Y4237659D01*
X11196185Y4239199D01*
X11196184Y4239202D01*
X11119823Y4389068D01*
X11116285Y4396012D01*
X11012839Y4538393D01*
X10888393Y4662839D01*
X10781092Y4740798D01*
X10746010Y4766287D01*
X10704932Y4787217D01*
X10654137Y4835191D01*
X10637342Y4903012D01*
X10659880Y4969147D01*
X10714595Y5012598D01*
X10761225Y5021701D01*
X11567560Y5021701D01*
X11619569Y5032045D01*
X11678547Y5071453D01*
X11678548Y5071456D01*
X11681107Y5073165D01*
X11747784Y5094044D01*
X11815165Y5075561D01*
X11818892Y5073166D01*
X11821450Y5071457D01*
X11821453Y5071453D01*
X11880431Y5032045D01*
X11880434Y5032045D01*
X11880435Y5032044D01*
X11880433Y5032044D01*
X11911578Y5025850D01*
X11932439Y5021700D01*
X12098772Y5021701D01*
X12165809Y5002017D01*
X12211564Y4949213D01*
X12221508Y4880055D01*
X12192483Y4816499D01*
X12155067Y4787218D01*
X12113992Y4766289D01*
X12019067Y4697321D01*
X11971607Y4662839D01*
X11971605Y4662837D01*
X11971604Y4662837D01*
X11847163Y4538396D01*
X11847163Y4538395D01*
X11847161Y4538393D01*
X11802735Y4477247D01*
X11743715Y4396013D01*
X11663815Y4239202D01*
X11663814Y4239199D01*
X11609432Y4071824D01*
X11581900Y3897996D01*
X11581900Y3722005D01*
X11609432Y3548177D01*
X11663814Y3380802D01*
X11663815Y3380799D01*
X11743715Y3223988D01*
X11847161Y3081607D01*
X11971607Y2957161D01*
X12113988Y2853715D01*
X12190899Y2814527D01*
X12270798Y2773816D01*
X12270801Y2773815D01*
X12354488Y2746624D01*
X12438178Y2719432D01*
X12612004Y2691900D01*
X12612005Y2691900D01*
X12787995Y2691900D01*
X12787996Y2691900D01*
X12961822Y2719432D01*
X13129201Y2773816D01*
X13286012Y2853715D01*
X13428393Y2957161D01*
X13491119Y3019887D01*
X13510555Y3030500D01*
X13527289Y3045000D01*
X13540620Y3046917D01*
X13552442Y3053372D01*
X13574528Y3051793D01*
X13596447Y3054944D01*
X13608698Y3049349D01*
X13622134Y3048388D01*
X13639860Y3035118D01*
X13660003Y3025919D01*
X13667285Y3014588D01*
X13678067Y3006516D01*
X13685804Y2985771D01*
X13697777Y2967141D01*
X13700928Y2945223D01*
X13702484Y2941052D01*
X13702800Y2932206D01*
X13702800Y2702041D01*
X13683115Y2635002D01*
X13666481Y2614360D01*
X13344677Y2292557D01*
X13283354Y2259072D01*
X13213662Y2264056D01*
X13200701Y2269753D01*
X13129201Y2306185D01*
X13129198Y2306186D01*
X12961823Y2360568D01*
X12862269Y2376336D01*
X12787996Y2388100D01*
X12612004Y2388100D01*
X12554062Y2378923D01*
X12438176Y2360568D01*
X12270801Y2306186D01*
X12270798Y2306185D01*
X12113987Y2226285D01*
X12061274Y2187986D01*
X11971607Y2122839D01*
X11971605Y2122837D01*
X11971604Y2122837D01*
X11847163Y1998396D01*
X11847163Y1998395D01*
X11847161Y1998393D01*
X11819272Y1960007D01*
X11743715Y1856013D01*
X11663815Y1699202D01*
X11663814Y1699199D01*
X11609432Y1531824D01*
X11581900Y1357996D01*
X11581900Y1182005D01*
X11609432Y1008177D01*
X11663814Y840802D01*
X11663815Y840799D01*
X11699733Y770307D01*
X11743715Y683988D01*
X11847161Y541607D01*
X11971607Y417161D01*
X12113988Y313715D01*
X12118952Y311186D01*
X12169749Y263212D01*
X12186545Y195391D01*
X12164009Y129256D01*
X12109294Y85804D01*
X12062659Y76700D01*
X10797341Y76700D01*
X10730302Y96385D01*
X10684547Y149189D01*
X10674603Y218347D01*
X10703628Y281903D01*
X10741046Y311186D01*
X10746012Y313715D01*
X10888393Y417161D01*
X11012839Y541607D01*
X11116285Y683988D01*
X11196184Y840799D01*
X11250568Y1008178D01*
X11278100Y1182004D01*
X11278100Y1357996D01*
X11250568Y1531822D01*
X11222917Y1616925D01*
X11196185Y1699199D01*
X11196184Y1699202D01*
X11116284Y1856013D01*
X11012839Y1998393D01*
X10888393Y2122839D01*
X10746012Y2226285D01*
X10740974Y2228852D01*
X10589201Y2306185D01*
X10589198Y2306186D01*
X10421823Y2360568D01*
X10322269Y2376336D01*
X10247996Y2388100D01*
X10072004Y2388100D01*
X10014062Y2378923D01*
X9898176Y2360568D01*
X9730801Y2306186D01*
X9730798Y2306185D01*
X9573987Y2226285D01*
X9521274Y2187986D01*
X9431607Y2122839D01*
X9431605Y2122837D01*
X9431604Y2122837D01*
X9307163Y1998396D01*
X9307163Y1998395D01*
X9307161Y1998393D01*
X9279272Y1960007D01*
X9203715Y1856013D01*
X9123815Y1699202D01*
X9123814Y1699199D01*
X9069432Y1531824D01*
X9050794Y1414154D01*
X9020864Y1351019D01*
X8961552Y1314089D01*
X8891690Y1315087D01*
X8833457Y1353698D01*
X8805848Y1414156D01*
X8784405Y1549545D01*
X8784404Y1549546D01*
X8726335Y1728263D01*
X8641028Y1895688D01*
X8530576Y2047710D01*
X8530576Y2047711D01*
X8397710Y2180577D01*
X8245687Y2291029D01*
X8078262Y2376336D01*
X7899545Y2434405D01*
X7764154Y2455849D01*
X7701019Y2485778D01*
X7664088Y2545090D01*
X7665086Y2614953D01*
X7703696Y2673185D01*
X7764153Y2700795D01*
X7881822Y2719432D01*
X8049201Y2773816D01*
X8206012Y2853715D01*
X8348393Y2957161D01*
X8472839Y3081607D01*
X8576285Y3223988D01*
X8656184Y3380799D01*
X8710568Y3548178D01*
X8738100Y3722004D01*
X8738100Y3897996D01*
X8710568Y4071822D01*
X8656685Y4237659D01*
X8656185Y4239199D01*
X8656184Y4239202D01*
X8579823Y4389068D01*
X8576285Y4396012D01*
X8472839Y4538393D01*
X8348393Y4662839D01*
X8267400Y4721684D01*
X8224736Y4777013D01*
X8218757Y4846627D01*
X8251363Y4908422D01*
X8312202Y4942779D01*
X8340287Y4946001D01*
X8696799Y4946001D01*
X8696800Y4946002D01*
X8696800Y5896800D01*
X7896001Y5896800D01*
X7896001Y5174986D01*
X7910737Y5100894D01*
X7915412Y5089607D01*
X7912342Y5088336D01*
X7927234Y5040761D01*
X7908744Y4973382D01*
X7856761Y4926696D01*
X7787790Y4915526D01*
X7783856Y4916085D01*
X7732376Y4924239D01*
X7707996Y4928100D01*
X7532004Y4928100D01*
X7496572Y4922488D01*
X7358176Y4900568D01*
X7190801Y4846186D01*
X7190798Y4846185D01*
X7033987Y4766285D01*
X6952753Y4707265D01*
X6891607Y4662839D01*
X6891605Y4662837D01*
X6891604Y4662837D01*
X6767163Y4538396D01*
X6767163Y4538395D01*
X6767161Y4538393D01*
X6722735Y4477247D01*
X6663715Y4396013D01*
X6583815Y4239202D01*
X6583814Y4239199D01*
X6529432Y4071824D01*
X6501900Y3897996D01*
X6501900Y3722005D01*
X6529432Y3548177D01*
X6583814Y3380802D01*
X6583815Y3380799D01*
X6663715Y3223988D01*
X6767161Y3081607D01*
X6891607Y2957161D01*
X7033988Y2853715D01*
X7110899Y2814527D01*
X7190798Y2773816D01*
X7190801Y2773815D01*
X7274488Y2746624D01*
X7358178Y2719432D01*
X7475845Y2700795D01*
X7538980Y2670866D01*
X7575911Y2611554D01*
X7574913Y2541692D01*
X7536303Y2483459D01*
X7475845Y2455849D01*
X7340454Y2434405D01*
X7161737Y2376336D01*
X6994312Y2291029D01*
X6842290Y2180577D01*
X6842289Y2180577D01*
X6709423Y2047711D01*
X6709423Y2047710D01*
X6598971Y1895688D01*
X6513664Y1728263D01*
X6455595Y1549547D01*
X6443503Y1473200D01*
X7150729Y1473200D01*
X7146619Y1466081D01*
X7112000Y1336880D01*
X7112000Y1203120D01*
X7146619Y1073919D01*
X7150729Y1066800D01*
X6443503Y1066800D01*
X6455595Y990454D01*
X6513664Y811738D01*
X6598971Y644313D01*
X6709423Y492291D01*
X6709423Y492290D01*
X6842289Y359424D01*
X6922677Y301018D01*
X6965342Y245688D01*
X6971321Y176074D01*
X6938715Y114279D01*
X6877876Y79922D01*
X6849791Y76700D01*
X200700Y76700D01*
X133661Y96385D01*
X87906Y149189D01*
X76700Y200700D01*
X76700Y2658005D01*
X739500Y2658005D01*
X739500Y2421996D01*
X739501Y2421980D01*
X770306Y2187990D01*
X831394Y1960007D01*
X921714Y1741955D01*
X921719Y1741944D01*
X959503Y1676502D01*
X1039727Y1537550D01*
X1039729Y1537547D01*
X1039730Y1537546D01*
X1183406Y1350303D01*
X1183412Y1350296D01*
X1350295Y1183413D01*
X1350302Y1183407D01*
X1412736Y1135500D01*
X1537550Y1039727D01*
X1656447Y971082D01*
X1741943Y921720D01*
X1741948Y921718D01*
X1741951Y921716D01*
X1960007Y831394D01*
X2187986Y770307D01*
X2421989Y739500D01*
X2421996Y739500D01*
X2658004Y739500D01*
X2658011Y739500D01*
X2892014Y770307D01*
X3119993Y831394D01*
X3338049Y921716D01*
X3542450Y1039727D01*
X3729699Y1183408D01*
X3896592Y1350301D01*
X4040273Y1537550D01*
X4158284Y1741951D01*
X4248606Y1960007D01*
X4309693Y2187986D01*
X4340500Y2421989D01*
X4340500Y2658011D01*
X4309693Y2892014D01*
X4248606Y3119993D01*
X4158284Y3338049D01*
X4158282Y3338052D01*
X4158280Y3338057D01*
X4116118Y3411082D01*
X4040273Y3542450D01*
X3896592Y3729699D01*
X3896587Y3729705D01*
X3729704Y3896588D01*
X3729697Y3896594D01*
X3542454Y4040270D01*
X3542453Y4040271D01*
X3542450Y4040273D01*
X3460957Y4087323D01*
X3338056Y4158281D01*
X3338045Y4158286D01*
X3119993Y4248606D01*
X2892014Y4309693D01*
X2892013Y4309694D01*
X2892010Y4309694D01*
X2658020Y4340499D01*
X2658017Y4340500D01*
X2658011Y4340500D01*
X2421989Y4340500D01*
X2421983Y4340500D01*
X2421979Y4340499D01*
X2187989Y4309694D01*
X1960006Y4248606D01*
X1741954Y4158286D01*
X1741943Y4158281D01*
X1537545Y4040270D01*
X1350302Y3896594D01*
X1350295Y3896588D01*
X1183412Y3729705D01*
X1183406Y3729698D01*
X1039730Y3542455D01*
X921719Y3338057D01*
X921714Y3338046D01*
X831394Y3119994D01*
X770306Y2892011D01*
X739501Y2658021D01*
X739500Y2658005D01*
X76700Y2658005D01*
X76700Y5457836D01*
X1446700Y5457836D01*
X1446700Y5337164D01*
X1477932Y5220603D01*
X1538268Y5116097D01*
X1623597Y5030768D01*
X1728103Y4970432D01*
X1844664Y4939200D01*
X1844666Y4939200D01*
X1965334Y4939200D01*
X1965336Y4939200D01*
X2081897Y4970432D01*
X2186403Y5030768D01*
X2271732Y5116097D01*
X2332068Y5220603D01*
X2363300Y5337164D01*
X2363300Y5457836D01*
X2332068Y5574397D01*
X2303112Y5624550D01*
X2286500Y5686549D01*
X2286500Y6371413D01*
X2306185Y6438452D01*
X2358513Y6483989D01*
X2371871Y6490158D01*
X2419069Y6499545D01*
X2478047Y6538953D01*
X2478275Y6539296D01*
X2488013Y6543792D01*
X2513345Y6547544D01*
X2537784Y6555196D01*
X2547333Y6552577D01*
X2557128Y6554027D01*
X2580465Y6543489D01*
X2605165Y6536713D01*
X2608857Y6534340D01*
X2660931Y6499545D01*
X2660932Y6499545D01*
X2660933Y6499544D01*
X2692078Y6493350D01*
X2712939Y6489200D01*
X3408460Y6489201D01*
X3460469Y6499545D01*
X3519447Y6538953D01*
X3558855Y6597931D01*
X3569200Y6649939D01*
X3569200Y6911300D01*
X3571750Y6919986D01*
X3570462Y6928947D01*
X3581440Y6952988D01*
X3588885Y6978339D01*
X3595725Y6984267D01*
X3599487Y6992503D01*
X3621721Y7006793D01*
X3641689Y7024094D01*
X3652203Y7026382D01*
X3658265Y7030277D01*
X3693200Y7035300D01*
X3695203Y7035300D01*
X3762242Y7015615D01*
X3782884Y6998981D01*
X3846097Y6935768D01*
X3950603Y6875432D01*
X4067164Y6844200D01*
X4067166Y6844200D01*
X4187834Y6844200D01*
X4187836Y6844200D01*
X4304397Y6875432D01*
X4408903Y6935768D01*
X4494232Y7021097D01*
X4496498Y7025022D01*
X7896000Y7025022D01*
X7896000Y6303200D01*
X8696800Y6303200D01*
X8696800Y7254000D01*
X8124985Y7254000D01*
X8050893Y7239263D01*
X8050890Y7239262D01*
X7966876Y7183124D01*
X7910736Y7099105D01*
X7910735Y7099104D01*
X7896000Y7025022D01*
X4496498Y7025022D01*
X4554568Y7125603D01*
X4585800Y7242164D01*
X4585800Y7362836D01*
X4554568Y7479397D01*
X4494232Y7583903D01*
X4408903Y7669232D01*
X4304397Y7729568D01*
X4187836Y7760800D01*
X4067164Y7760800D01*
X3950603Y7729568D01*
X3950602Y7729568D01*
X3846098Y7669233D01*
X3846095Y7669231D01*
X3782884Y7606019D01*
X3755956Y7591316D01*
X3730138Y7574723D01*
X3723937Y7573832D01*
X3721561Y7572534D01*
X3695203Y7569700D01*
X3693199Y7569700D01*
X3626160Y7589385D01*
X3580405Y7642189D01*
X3569199Y7693700D01*
X3569199Y7955059D01*
X3569198Y7955066D01*
X3558855Y8007069D01*
X3519447Y8066047D01*
X3460469Y8105455D01*
X3460468Y8105456D01*
X3460467Y8105456D01*
X3460466Y8105457D01*
X3408463Y8115800D01*
X2712941Y8115800D01*
X2660929Y8105455D01*
X2660927Y8105454D01*
X2608890Y8070683D01*
X2542212Y8049805D01*
X2474832Y8068290D01*
X2471127Y8070671D01*
X2419069Y8105455D01*
X2419068Y8105456D01*
X2419067Y8105456D01*
X2419066Y8105457D01*
X2367063Y8115800D01*
X1671541Y8115800D01*
X1619530Y8105455D01*
X1580122Y8079123D01*
X1560555Y8066048D01*
X1560552Y8066046D01*
X1521144Y8007068D01*
X1521143Y8007067D01*
X1510800Y7955066D01*
X1510800Y6649942D01*
X1521144Y6597934D01*
X1521145Y6597931D01*
X1560553Y6538953D01*
X1619531Y6499545D01*
X1652291Y6493029D01*
X1714200Y6460646D01*
X1748776Y6399931D01*
X1752100Y6371412D01*
X1752100Y5910015D01*
X1732415Y5842976D01*
X1690100Y5802628D01*
X1623600Y5764235D01*
X1623595Y5764231D01*
X1538269Y5678905D01*
X1538267Y5678902D01*
X1477932Y5574398D01*
X1477932Y5574397D01*
X1446700Y5457836D01*
X76700Y5457836D01*
X76700Y8124986D01*
X4946001Y8124986D01*
X4960737Y8050894D01*
X4960738Y8050891D01*
X5016876Y7966877D01*
X5100895Y7910737D01*
X5100896Y7910736D01*
X5174980Y7896001D01*
X5896799Y7896001D01*
X6303200Y7896001D01*
X7025015Y7896001D01*
X7099106Y7910738D01*
X7099109Y7910739D01*
X7183123Y7966877D01*
X7239263Y8050896D01*
X7239264Y8050897D01*
X7253999Y8124979D01*
X7254000Y8124982D01*
X7254000Y8696800D01*
X6303200Y8696800D01*
X6303200Y7896001D01*
X5896799Y7896001D01*
X5896800Y7896002D01*
X5896800Y8696800D01*
X4946001Y8696800D01*
X4946001Y8124986D01*
X76700Y8124986D01*
X76700Y12125336D01*
X3351700Y12125336D01*
X3351700Y12004664D01*
X3382932Y11888103D01*
X3443268Y11783597D01*
X3528597Y11698268D01*
X3633103Y11637932D01*
X3749664Y11606700D01*
X3749666Y11606700D01*
X3870334Y11606700D01*
X3870336Y11606700D01*
X3986897Y11637932D01*
X4091403Y11698268D01*
X4176732Y11783597D01*
X4237068Y11888103D01*
X4268300Y12004664D01*
X4268300Y12125336D01*
X4237068Y12241897D01*
X4176732Y12346403D01*
X4091403Y12431732D01*
X3986897Y12492068D01*
X3870336Y12523300D01*
X3749664Y12523300D01*
X3633103Y12492068D01*
X3633102Y12492068D01*
X3528598Y12431733D01*
X3528595Y12431731D01*
X3443269Y12346405D01*
X3443267Y12346402D01*
X3382932Y12241898D01*
X3382932Y12241897D01*
X3351700Y12125336D01*
X76700Y12125336D01*
X76700Y13712836D01*
X3034200Y13712836D01*
X3034200Y13592164D01*
X3065432Y13475603D01*
X3125768Y13371097D01*
X3211097Y13285768D01*
X3315603Y13225432D01*
X3432164Y13194200D01*
X3432166Y13194200D01*
X3552834Y13194200D01*
X3552836Y13194200D01*
X3669397Y13225432D01*
X3773903Y13285768D01*
X3859232Y13371097D01*
X3919568Y13475603D01*
X3950800Y13592164D01*
X3950800Y13712836D01*
X3919568Y13829397D01*
X3859232Y13933903D01*
X3773903Y14019232D01*
X3669397Y14079568D01*
X3552836Y14110800D01*
X3432164Y14110800D01*
X3315603Y14079568D01*
X3315602Y14079568D01*
X3211098Y14019233D01*
X3211095Y14019231D01*
X3125769Y13933905D01*
X3125767Y13933902D01*
X3065432Y13829398D01*
X3065432Y13829397D01*
X3034200Y13712836D01*
X76700Y13712836D01*
X76700Y22978005D01*
X739500Y22978005D01*
X739500Y22741996D01*
X739501Y22741980D01*
X757819Y22602836D01*
X770307Y22507986D01*
X777226Y22482165D01*
X831394Y22280007D01*
X921714Y22061955D01*
X921719Y22061944D01*
X992677Y21939043D01*
X1039727Y21857550D01*
X1039729Y21857547D01*
X1039730Y21857546D01*
X1183406Y21670303D01*
X1183412Y21670296D01*
X1350295Y21503413D01*
X1350302Y21503407D01*
X1398406Y21466496D01*
X1537550Y21359727D01*
X1639263Y21301003D01*
X1741943Y21241720D01*
X1741948Y21241718D01*
X1741951Y21241716D01*
X1960007Y21151394D01*
X2105616Y21112378D01*
X2165276Y21076014D01*
X2195805Y21013167D01*
X2187510Y20943792D01*
X2177130Y20926059D01*
X2177332Y20925942D01*
X2112932Y20814398D01*
X2112932Y20814397D01*
X2081700Y20697836D01*
X2081700Y20577164D01*
X2112932Y20460603D01*
X2173267Y20356098D01*
X2173269Y20356096D01*
X2236481Y20292884D01*
X2269966Y20231561D01*
X2272800Y20205203D01*
X2272800Y17758588D01*
X2253115Y17691549D01*
X2200787Y17646012D01*
X2187424Y17639842D01*
X2140231Y17630455D01*
X2081253Y17591047D01*
X2081025Y17590707D01*
X2071286Y17586209D01*
X2045951Y17582458D01*
X2021512Y17574805D01*
X2011964Y17577425D01*
X2002170Y17575974D01*
X1978828Y17586515D01*
X1954132Y17593290D01*
X1950427Y17595671D01*
X1898369Y17630455D01*
X1898368Y17630456D01*
X1898367Y17630456D01*
X1898366Y17630457D01*
X1865609Y17636972D01*
X1803698Y17669357D01*
X1769124Y17730073D01*
X1765800Y17758589D01*
X1765800Y20462048D01*
X1765799Y20462051D01*
X1751365Y20496897D01*
X1737738Y20529795D01*
X1728300Y20577247D01*
X1728300Y20697834D01*
X1728300Y20697836D01*
X1697068Y20814397D01*
X1636732Y20918903D01*
X1551403Y21004232D01*
X1446897Y21064568D01*
X1330336Y21095800D01*
X1209664Y21095800D01*
X1093103Y21064568D01*
X1093102Y21064568D01*
X988598Y21004233D01*
X988595Y21004231D01*
X903269Y20918905D01*
X903267Y20918902D01*
X842932Y20814398D01*
X842932Y20814397D01*
X811700Y20697836D01*
X811700Y20577164D01*
X842932Y20460603D01*
X903268Y20356097D01*
X988597Y20270768D01*
X1093103Y20210432D01*
X1139494Y20198002D01*
X1199153Y20161639D01*
X1229683Y20098793D01*
X1231400Y20078228D01*
X1231400Y17758588D01*
X1211715Y17691549D01*
X1158911Y17645794D01*
X1131590Y17636971D01*
X1115391Y17633749D01*
X1098830Y17630455D01*
X1061177Y17605295D01*
X1039855Y17591048D01*
X1039852Y17591046D01*
X1000444Y17532068D01*
X1000443Y17532067D01*
X990100Y17480066D01*
X990100Y16174942D01*
X996400Y16143268D01*
X1000445Y16122931D01*
X1039853Y16063953D01*
X1098831Y16024545D01*
X1098832Y16024545D01*
X1098833Y16024544D01*
X1129978Y16018350D01*
X1150839Y16014200D01*
X1846360Y16014201D01*
X1898369Y16024545D01*
X1950410Y16059319D01*
X2017084Y16080196D01*
X2084465Y16061713D01*
X2088157Y16059340D01*
X2140231Y16024545D01*
X2140232Y16024545D01*
X2140233Y16024544D01*
X2171378Y16018350D01*
X2192239Y16014200D01*
X2887760Y16014201D01*
X2939769Y16024545D01*
X2991810Y16059319D01*
X3058484Y16080196D01*
X3125865Y16061713D01*
X3129557Y16059340D01*
X3181631Y16024545D01*
X3181632Y16024545D01*
X3181633Y16024544D01*
X3212778Y16018350D01*
X3233639Y16014200D01*
X3929160Y16014201D01*
X3981169Y16024545D01*
X4040147Y16063953D01*
X4079555Y16122931D01*
X4089900Y16174939D01*
X4089899Y17275022D01*
X4946000Y17275022D01*
X4946000Y16703200D01*
X5896800Y16703200D01*
X5896800Y17504000D01*
X5174985Y17504000D01*
X5100893Y17489263D01*
X5100890Y17489262D01*
X5016876Y17433124D01*
X4960736Y17349105D01*
X4960735Y17349104D01*
X4946000Y17275022D01*
X4089899Y17275022D01*
X4089899Y17480060D01*
X4079555Y17532069D01*
X4040147Y17591047D01*
X3981169Y17630455D01*
X3981168Y17630456D01*
X3981167Y17630456D01*
X3981166Y17630457D01*
X3948409Y17636972D01*
X3886498Y17669357D01*
X3851924Y17730073D01*
X3848600Y17758589D01*
X3848600Y18068619D01*
X3868285Y18135658D01*
X3921089Y18181413D01*
X3990247Y18191357D01*
X4053803Y18162332D01*
X4072634Y18139524D01*
X4073318Y18140048D01*
X4078267Y18133599D01*
X4078268Y18133597D01*
X4163597Y18048268D01*
X4268103Y17987932D01*
X4384664Y17956700D01*
X4384666Y17956700D01*
X4505334Y17956700D01*
X4505336Y17956700D01*
X4621897Y17987932D01*
X4726403Y18048268D01*
X4811732Y18133597D01*
X4872068Y18238103D01*
X4903300Y18354664D01*
X4903300Y18475336D01*
X4872068Y18591897D01*
X4811732Y18696403D01*
X4726403Y18781732D01*
X4621897Y18842068D01*
X4505336Y18873300D01*
X4384664Y18873300D01*
X4268103Y18842068D01*
X4268102Y18842068D01*
X4163598Y18781733D01*
X4163595Y18781731D01*
X4078269Y18696405D01*
X4073318Y18689952D01*
X4071535Y18691320D01*
X4029409Y18651161D01*
X3960801Y18637945D01*
X3895939Y18663919D01*
X3855416Y18720837D01*
X3848600Y18761382D01*
X3848600Y20304456D01*
X3865212Y20366455D01*
X3919568Y20460603D01*
X3950800Y20577164D01*
X3950800Y20697836D01*
X3919568Y20814397D01*
X3859232Y20918903D01*
X3773903Y21004232D01*
X3669397Y21064568D01*
X3552836Y21095800D01*
X3548089Y21095800D01*
X3481050Y21115485D01*
X3435295Y21168289D01*
X3425351Y21237447D01*
X3454376Y21301003D01*
X3486085Y21327185D01*
X3542450Y21359727D01*
X3729699Y21503408D01*
X3896592Y21670301D01*
X4040273Y21857550D01*
X4158284Y22061951D01*
X4248606Y22280007D01*
X4309693Y22507986D01*
X4340500Y22741989D01*
X4340500Y22978011D01*
X4309693Y23212014D01*
X4248606Y23439993D01*
X4158284Y23658049D01*
X4158282Y23658052D01*
X4158280Y23658057D01*
X4111429Y23739204D01*
X4040273Y23862450D01*
X4029510Y23876477D01*
X3990224Y23927676D01*
X3896593Y24049698D01*
X3896587Y24049705D01*
X3729704Y24216588D01*
X3729697Y24216594D01*
X3542454Y24360270D01*
X3542453Y24360271D01*
X3542450Y24360273D01*
X3456603Y24409837D01*
X3338056Y24478281D01*
X3338045Y24478286D01*
X3119993Y24568606D01*
X2892010Y24629694D01*
X2658020Y24660499D01*
X2658017Y24660500D01*
X2658011Y24660500D01*
X2421989Y24660500D01*
X2421983Y24660500D01*
X2421979Y24660499D01*
X2187989Y24629694D01*
X1960006Y24568606D01*
X1741954Y24478286D01*
X1741943Y24478281D01*
X1537545Y24360270D01*
X1350302Y24216594D01*
X1350295Y24216588D01*
X1183412Y24049705D01*
X1183406Y24049698D01*
X1039730Y23862455D01*
X921719Y23658057D01*
X921714Y23658046D01*
X831394Y23439994D01*
X770306Y23212011D01*
X739501Y22978021D01*
X739500Y22978005D01*
X76700Y22978005D01*
X76700Y24316124D01*
X96385Y24383163D01*
X149189Y24428918D01*
X218347Y24438862D01*
X281903Y24409837D01*
X288381Y24403805D01*
X327686Y24364500D01*
X441814Y24298608D01*
X569108Y24264500D01*
X569110Y24264500D01*
X700890Y24264500D01*
X700892Y24264500D01*
X828186Y24298608D01*
X942314Y24364500D01*
X1035500Y24457686D01*
X1101392Y24571814D01*
X1135500Y24699108D01*
X1135500Y24830892D01*
X1101392Y24958186D01*
X1035500Y25072314D01*
X996195Y25111619D01*
X962710Y25172942D01*
X967694Y25242634D01*
X1009566Y25298567D01*
X1075030Y25322984D01*
X1083876Y25323300D01*
X7915565Y25323300D01*
X7982604Y25303615D01*
G37*
%TD.AperFunction*%
%TA.AperFunction,Conductor*%
G36*
X25242634Y13696985D02*
G01*
X25298567Y13655113D01*
X25322984Y13589649D01*
X25323300Y13580803D01*
X25323300Y1083876D01*
X25303615Y1016837D01*
X25250811Y971082D01*
X25181653Y961138D01*
X25118097Y990163D01*
X25111619Y996195D01*
X25072316Y1035498D01*
X25072314Y1035500D01*
X24988525Y1083876D01*
X24958187Y1101392D01*
X24866925Y1125845D01*
X24830892Y1135500D01*
X24699108Y1135500D01*
X24571812Y1101392D01*
X24457686Y1035500D01*
X24457683Y1035498D01*
X24364502Y942317D01*
X24364500Y942314D01*
X24298608Y828188D01*
X24264500Y700892D01*
X24264500Y569109D01*
X24298608Y441813D01*
X24312841Y417161D01*
X24364500Y327686D01*
X24364502Y327684D01*
X24403805Y288381D01*
X24437290Y227058D01*
X24432306Y157366D01*
X24390434Y101433D01*
X24324970Y77016D01*
X24316124Y76700D01*
X18417341Y76700D01*
X18350302Y96385D01*
X18304547Y149189D01*
X18294603Y218347D01*
X18323628Y281903D01*
X18361046Y311186D01*
X18366012Y313715D01*
X18508393Y417161D01*
X18632839Y541607D01*
X18736285Y683988D01*
X18816184Y840799D01*
X18870568Y1008178D01*
X18898100Y1182004D01*
X18898100Y1357996D01*
X18870568Y1531822D01*
X18842917Y1616925D01*
X18816185Y1699199D01*
X18816184Y1699202D01*
X18736284Y1856013D01*
X18632839Y1998393D01*
X18508393Y2122839D01*
X18366012Y2226285D01*
X18360974Y2228852D01*
X18209201Y2306185D01*
X18209198Y2306186D01*
X18041823Y2360568D01*
X17942269Y2376336D01*
X17867996Y2388100D01*
X17692004Y2388100D01*
X17634062Y2378923D01*
X17518176Y2360568D01*
X17350801Y2306186D01*
X17350798Y2306185D01*
X17193987Y2226285D01*
X17141274Y2187986D01*
X17051607Y2122839D01*
X17051605Y2122837D01*
X17051604Y2122837D01*
X16927163Y1998396D01*
X16927163Y1998395D01*
X16927161Y1998393D01*
X16899272Y1960007D01*
X16823715Y1856013D01*
X16743815Y1699202D01*
X16743814Y1699199D01*
X16689432Y1531824D01*
X16661900Y1357996D01*
X16661900Y1182005D01*
X16689432Y1008177D01*
X16743814Y840802D01*
X16743815Y840799D01*
X16779733Y770307D01*
X16823715Y683988D01*
X16927161Y541607D01*
X17051607Y417161D01*
X17193988Y313715D01*
X17198952Y311186D01*
X17249749Y263212D01*
X17266545Y195391D01*
X17244009Y129256D01*
X17189294Y85804D01*
X17142659Y76700D01*
X15877341Y76700D01*
X15810302Y96385D01*
X15764547Y149189D01*
X15754603Y218347D01*
X15783628Y281903D01*
X15821046Y311186D01*
X15826012Y313715D01*
X15968393Y417161D01*
X16092839Y541607D01*
X16196285Y683988D01*
X16276184Y840799D01*
X16330568Y1008178D01*
X16358100Y1182004D01*
X16358100Y1357996D01*
X16330568Y1531822D01*
X16302917Y1616925D01*
X16276185Y1699199D01*
X16276184Y1699202D01*
X16196284Y1856013D01*
X16092839Y1998393D01*
X15968393Y2122839D01*
X15826012Y2226285D01*
X15820974Y2228852D01*
X15669201Y2306185D01*
X15669198Y2306186D01*
X15501823Y2360568D01*
X15402269Y2376336D01*
X15327996Y2388100D01*
X15152004Y2388100D01*
X15094062Y2378923D01*
X14978176Y2360568D01*
X14810801Y2306186D01*
X14810798Y2306185D01*
X14653987Y2226285D01*
X14601274Y2187986D01*
X14511607Y2122839D01*
X14511605Y2122837D01*
X14511604Y2122837D01*
X14387163Y1998396D01*
X14387163Y1998395D01*
X14387161Y1998393D01*
X14359272Y1960007D01*
X14283715Y1856013D01*
X14203815Y1699202D01*
X14203814Y1699199D01*
X14149432Y1531824D01*
X14121900Y1357996D01*
X14121900Y1182005D01*
X14149432Y1008177D01*
X14203814Y840802D01*
X14203815Y840799D01*
X14239733Y770307D01*
X14283715Y683988D01*
X14387161Y541607D01*
X14511607Y417161D01*
X14653988Y313715D01*
X14658952Y311186D01*
X14709749Y263212D01*
X14726545Y195391D01*
X14704009Y129256D01*
X14649294Y85804D01*
X14602659Y76700D01*
X13337341Y76700D01*
X13270302Y96385D01*
X13224547Y149189D01*
X13214603Y218347D01*
X13243628Y281903D01*
X13281046Y311186D01*
X13286012Y313715D01*
X13428393Y417161D01*
X13552839Y541607D01*
X13656285Y683988D01*
X13736184Y840799D01*
X13790568Y1008178D01*
X13818100Y1182004D01*
X13818100Y1357996D01*
X13790568Y1531822D01*
X13762917Y1616925D01*
X13736185Y1699199D01*
X13736182Y1699206D01*
X13699752Y1770702D01*
X13686855Y1839371D01*
X13713131Y1904112D01*
X13722545Y1914669D01*
X14196521Y2388643D01*
X14237200Y2486851D01*
X14237200Y2593149D01*
X14237200Y2932206D01*
X14256885Y2999245D01*
X14309689Y3045000D01*
X14378847Y3054944D01*
X14442403Y3025919D01*
X14448881Y3019887D01*
X14511607Y2957161D01*
X14653988Y2853715D01*
X14730899Y2814527D01*
X14810798Y2773816D01*
X14810801Y2773815D01*
X14894488Y2746624D01*
X14978178Y2719432D01*
X15152004Y2691900D01*
X15152005Y2691900D01*
X15327995Y2691900D01*
X15327996Y2691900D01*
X15501822Y2719432D01*
X15669201Y2773816D01*
X15826012Y2853715D01*
X15968393Y2957161D01*
X16092839Y3081607D01*
X16196285Y3223988D01*
X16276184Y3380799D01*
X16330568Y3548178D01*
X16358100Y3722004D01*
X16358100Y3897996D01*
X16661900Y3897996D01*
X16661900Y3722005D01*
X16689432Y3548177D01*
X16743814Y3380802D01*
X16743815Y3380799D01*
X16823715Y3223988D01*
X16927161Y3081607D01*
X17051607Y2957161D01*
X17193988Y2853715D01*
X17270899Y2814527D01*
X17350798Y2773816D01*
X17350801Y2773815D01*
X17434488Y2746624D01*
X17518178Y2719432D01*
X17692004Y2691900D01*
X17692005Y2691900D01*
X17867995Y2691900D01*
X17867996Y2691900D01*
X18041822Y2719432D01*
X18097061Y2737380D01*
X21059500Y2737380D01*
X21059500Y2501371D01*
X21059501Y2501355D01*
X21086989Y2292557D01*
X21090307Y2267361D01*
X21111576Y2187986D01*
X21151394Y2039382D01*
X21241714Y1821330D01*
X21241719Y1821319D01*
X21287541Y1741955D01*
X21359727Y1616925D01*
X21359729Y1616922D01*
X21359730Y1616921D01*
X21503406Y1429678D01*
X21503412Y1429671D01*
X21670295Y1262788D01*
X21670301Y1262783D01*
X21857550Y1119102D01*
X21948140Y1066800D01*
X22061943Y1001095D01*
X22061948Y1001093D01*
X22061951Y1001091D01*
X22280007Y910769D01*
X22507986Y849682D01*
X22741989Y818875D01*
X22741996Y818875D01*
X22978004Y818875D01*
X22978011Y818875D01*
X23212014Y849682D01*
X23439993Y910769D01*
X23658049Y1001091D01*
X23862450Y1119102D01*
X24049699Y1262783D01*
X24216592Y1429676D01*
X24360273Y1616925D01*
X24478284Y1821326D01*
X24568606Y2039382D01*
X24629693Y2267361D01*
X24660500Y2501364D01*
X24660500Y2737386D01*
X24629693Y2971389D01*
X24568606Y3199368D01*
X24478284Y3417424D01*
X24478282Y3417427D01*
X24478280Y3417432D01*
X24406097Y3542455D01*
X24360273Y3621825D01*
X24277499Y3729698D01*
X24216593Y3809073D01*
X24216587Y3809080D01*
X24049704Y3975963D01*
X24049697Y3975969D01*
X23862454Y4119645D01*
X23862453Y4119646D01*
X23862450Y4119648D01*
X23780957Y4166698D01*
X23658056Y4237656D01*
X23658045Y4237661D01*
X23439993Y4327981D01*
X23212010Y4389069D01*
X22978020Y4419874D01*
X22978017Y4419875D01*
X22978011Y4419875D01*
X22741989Y4419875D01*
X22741983Y4419875D01*
X22741979Y4419874D01*
X22507989Y4389069D01*
X22280006Y4327981D01*
X22061954Y4237661D01*
X22061943Y4237656D01*
X21857545Y4119645D01*
X21670302Y3975969D01*
X21670295Y3975963D01*
X21503412Y3809080D01*
X21503406Y3809073D01*
X21359730Y3621830D01*
X21241719Y3417432D01*
X21241714Y3417421D01*
X21151394Y3199369D01*
X21090306Y2971386D01*
X21059501Y2737396D01*
X21059500Y2737380D01*
X18097061Y2737380D01*
X18209201Y2773816D01*
X18366012Y2853715D01*
X18508393Y2957161D01*
X18632839Y3081607D01*
X18736285Y3223988D01*
X18816184Y3380799D01*
X18870568Y3548178D01*
X18898100Y3722004D01*
X18898100Y3897996D01*
X18870568Y4071822D01*
X18816685Y4237659D01*
X18816185Y4239199D01*
X18816184Y4239202D01*
X18739823Y4389068D01*
X18736285Y4396012D01*
X18632839Y4538393D01*
X18508393Y4662839D01*
X18366012Y4766285D01*
X18344957Y4777013D01*
X18209201Y4846185D01*
X18209198Y4846186D01*
X18041823Y4900568D01*
X17943854Y4916085D01*
X17867996Y4928100D01*
X17692004Y4928100D01*
X17616141Y4916085D01*
X17546848Y4925040D01*
X17493396Y4970036D01*
X17472757Y5036788D01*
X17487155Y5088551D01*
X17484590Y5089613D01*
X17489264Y5100897D01*
X17503999Y5174979D01*
X17504000Y5174982D01*
X17504000Y5896800D01*
X16703200Y5896800D01*
X16703200Y4946001D01*
X17059713Y4946001D01*
X17126752Y4926316D01*
X17172507Y4873512D01*
X17182451Y4804354D01*
X17153426Y4740798D01*
X17132600Y4721685D01*
X17051607Y4662839D01*
X17051605Y4662837D01*
X17051604Y4662837D01*
X16927163Y4538396D01*
X16927163Y4538395D01*
X16927161Y4538393D01*
X16882735Y4477247D01*
X16823715Y4396013D01*
X16743815Y4239202D01*
X16743814Y4239199D01*
X16689432Y4071824D01*
X16661900Y3897996D01*
X16358100Y3897996D01*
X16330568Y4071822D01*
X16276685Y4237659D01*
X16276185Y4239199D01*
X16276184Y4239202D01*
X16199823Y4389068D01*
X16196285Y4396012D01*
X16092839Y4538393D01*
X15968393Y4662839D01*
X15887400Y4721684D01*
X15844736Y4777013D01*
X15838757Y4846627D01*
X15871363Y4908422D01*
X15932202Y4942779D01*
X15960287Y4946001D01*
X16296799Y4946001D01*
X16296800Y4946002D01*
X16296800Y5976000D01*
X16316485Y6043039D01*
X16369289Y6088794D01*
X16420800Y6100000D01*
X16500000Y6100000D01*
X16500000Y6179200D01*
X16519685Y6246239D01*
X16572489Y6291994D01*
X16624000Y6303200D01*
X17503999Y6303200D01*
X17503999Y7025015D01*
X17489262Y7099107D01*
X17489261Y7099110D01*
X17448636Y7159909D01*
X17427758Y7226586D01*
X17446242Y7293966D01*
X17498221Y7340657D01*
X17551738Y7352800D01*
X20690647Y7352800D01*
X20690649Y7352800D01*
X20788857Y7393479D01*
X20934986Y7539610D01*
X20996304Y7573091D01*
X21065996Y7568107D01*
X21121930Y7526236D01*
X21146347Y7460772D01*
X21145137Y7432532D01*
X21142649Y7416826D01*
X21142000Y7412722D01*
X21142000Y7192278D01*
X21145853Y7167954D01*
X21176485Y6974548D01*
X21244603Y6764897D01*
X21244604Y6764894D01*
X21303180Y6649935D01*
X21329676Y6597934D01*
X21344687Y6568475D01*
X21474252Y6390142D01*
X21474256Y6390137D01*
X21630136Y6234257D01*
X21630141Y6234253D01*
X21705916Y6179200D01*
X21808478Y6104685D01*
X21929464Y6043039D01*
X22004893Y6004605D01*
X22004896Y6004604D01*
X22092932Y5976000D01*
X22214549Y5936485D01*
X22432278Y5902000D01*
X22432279Y5902000D01*
X22652721Y5902000D01*
X22652722Y5902000D01*
X22870451Y5936485D01*
X23080106Y6004605D01*
X23276522Y6104685D01*
X23454865Y6234258D01*
X23610742Y6390135D01*
X23740315Y6568478D01*
X23840395Y6764894D01*
X23908515Y6974549D01*
X23943000Y7192278D01*
X23943000Y7412722D01*
X23908515Y7630451D01*
X23840395Y7840106D01*
X23840395Y7840107D01*
X23762994Y7992012D01*
X23740315Y8036522D01*
X23715496Y8070683D01*
X23610747Y8214859D01*
X23610743Y8214864D01*
X23454863Y8370744D01*
X23454858Y8370748D01*
X23276525Y8500313D01*
X23276524Y8500314D01*
X23276522Y8500315D01*
X23188070Y8545384D01*
X23080106Y8600396D01*
X23080103Y8600397D01*
X22870452Y8668515D01*
X22761586Y8685758D01*
X22652722Y8703000D01*
X22432278Y8703000D01*
X22387626Y8695928D01*
X22379975Y8696917D01*
X22372655Y8694480D01*
X22345807Y8701333D01*
X22318333Y8704883D01*
X22312431Y8709852D01*
X22304956Y8711759D01*
X22286076Y8732037D01*
X22264881Y8749879D01*
X22262602Y8757250D01*
X22257345Y8762896D01*
X22252424Y8790166D01*
X22244242Y8816631D01*
X22245996Y8825794D01*
X22244939Y8831656D01*
X22253666Y8865849D01*
X22289000Y8951151D01*
X22289000Y8951153D01*
X22291634Y8957512D01*
X22335475Y9011915D01*
X22382005Y9031677D01*
X22421569Y9039545D01*
X22473610Y9074319D01*
X22540284Y9095196D01*
X22607665Y9076713D01*
X22611357Y9074340D01*
X22663431Y9039545D01*
X22663432Y9039545D01*
X22663433Y9039544D01*
X22694578Y9033350D01*
X22715439Y9029200D01*
X23410960Y9029201D01*
X23462969Y9039545D01*
X23521947Y9078953D01*
X23561355Y9137931D01*
X23571700Y9189939D01*
X23571700Y9451300D01*
X23591385Y9518339D01*
X23644189Y9564094D01*
X23695700Y9575300D01*
X24183147Y9575300D01*
X24183149Y9575300D01*
X24281357Y9615979D01*
X24674021Y10008643D01*
X24714700Y10106851D01*
X24714700Y10213149D01*
X24714700Y13388390D01*
X24734385Y13455429D01*
X24787189Y13501184D01*
X24822518Y13511330D01*
X24825325Y13511700D01*
X24825336Y13511700D01*
X24941897Y13542932D01*
X25046403Y13603268D01*
X25111619Y13668484D01*
X25172942Y13701969D01*
X25242634Y13696985D01*
G37*
%TD.AperFunction*%
%TA.AperFunction,Conductor*%
G36*
X16097499Y13365615D02*
G01*
X16118141Y13348981D01*
X16119621Y13347501D01*
X16153106Y13286178D01*
X16148122Y13216486D01*
X16106250Y13160553D01*
X16064035Y13140046D01*
X16015603Y13127068D01*
X16015601Y13127068D01*
X16015601Y13127067D01*
X15911098Y13066733D01*
X15911095Y13066731D01*
X15825769Y12981405D01*
X15825767Y12981402D01*
X15765432Y12876898D01*
X15765430Y12876893D01*
X15759378Y12854305D01*
X15723013Y12794645D01*
X15660166Y12764117D01*
X15639604Y12762400D01*
X13280696Y12762400D01*
X13213657Y12782085D01*
X13193015Y12798719D01*
X13065213Y12926521D01*
X12967006Y12967200D01*
X12967005Y12967200D01*
X10632534Y12967200D01*
X10565495Y12986885D01*
X10519740Y13039689D01*
X10509796Y13108847D01*
X10538821Y13172403D01*
X10597599Y13210177D01*
X10600420Y13210970D01*
X10654397Y13225432D01*
X10758903Y13285768D01*
X10822116Y13348981D01*
X10883439Y13382466D01*
X10909797Y13385300D01*
X16030460Y13385300D01*
X16097499Y13365615D01*
G37*
%TD.AperFunction*%
%TA.AperFunction,Conductor*%
G36*
X8228630Y16780930D02*
G01*
X8267500Y16754622D01*
X8268981Y16753141D01*
X8302466Y16691818D01*
X8305300Y16665460D01*
X8305300Y15354797D01*
X8285615Y15287758D01*
X8268981Y15267116D01*
X8205769Y15203905D01*
X8205767Y15203902D01*
X8145432Y15099398D01*
X8145432Y15099397D01*
X8114200Y14982836D01*
X8114200Y14862164D01*
X8141601Y14759903D01*
X8145432Y14745604D01*
X8145432Y14745603D01*
X8148262Y14740702D01*
X8164736Y14672802D01*
X8141885Y14606775D01*
X8086964Y14563583D01*
X8040876Y14554700D01*
X7302300Y14554700D01*
X7235261Y14574385D01*
X7189506Y14627189D01*
X7178300Y14678700D01*
X7178299Y15367559D01*
X7176974Y15374220D01*
X7167955Y15419569D01*
X7167954Y15419571D01*
X7163280Y15430856D01*
X7165988Y15431978D01*
X7150687Y15480842D01*
X7169170Y15548223D01*
X7178744Y15560322D01*
X7239263Y15650896D01*
X7239264Y15650897D01*
X7253999Y15724979D01*
X7253999Y16294837D01*
X7273683Y16361876D01*
X7326487Y16407631D01*
X7395646Y16417575D01*
X7439998Y16402224D01*
X7443096Y16400435D01*
X7443099Y16400434D01*
X7443103Y16400432D01*
X7559664Y16369200D01*
X7559666Y16369200D01*
X7680334Y16369200D01*
X7680336Y16369200D01*
X7796897Y16400432D01*
X7901403Y16460768D01*
X7986732Y16546097D01*
X8047068Y16650603D01*
X8060045Y16699035D01*
X8096408Y16758694D01*
X8159255Y16789224D01*
X8228630Y16780930D01*
G37*
%TD.AperFunction*%
%TA.AperFunction,Conductor*%
G36*
X8992564Y19005902D02*
G01*
X9022534Y19003758D01*
X9026736Y19000612D01*
X9031922Y18999809D01*
X9054412Y18979894D01*
X9078467Y18961886D01*
X9080300Y18956970D01*
X9084231Y18953489D01*
X9092385Y18924570D01*
X9102884Y18896422D01*
X9103200Y18887576D01*
X9103200Y18146001D01*
X9675015Y18146001D01*
X9749106Y18160738D01*
X9749109Y18160739D01*
X9843278Y18223661D01*
X9844744Y18221467D01*
X9890572Y18246497D01*
X9960264Y18241520D01*
X9971758Y18235638D01*
X9980433Y18232044D01*
X10011578Y18225850D01*
X10032439Y18221700D01*
X11567560Y18221701D01*
X11619569Y18232045D01*
X11678547Y18271453D01*
X11678548Y18271456D01*
X11681107Y18273165D01*
X11747784Y18294044D01*
X11815165Y18275561D01*
X11818892Y18273166D01*
X11821450Y18271457D01*
X11821453Y18271453D01*
X11880431Y18232045D01*
X11880434Y18232045D01*
X11880435Y18232044D01*
X11880433Y18232044D01*
X11911578Y18225850D01*
X11932439Y18221700D01*
X12308800Y18221701D01*
X12375839Y18202017D01*
X12421594Y18149213D01*
X12432800Y18097701D01*
X12432800Y17577297D01*
X12413115Y17510258D01*
X12396481Y17489616D01*
X12333269Y17426405D01*
X12333267Y17426402D01*
X12272932Y17321898D01*
X12272932Y17321897D01*
X12241700Y17205336D01*
X12241700Y17084664D01*
X12272932Y16968103D01*
X12333268Y16863597D01*
X12418597Y16778268D01*
X12523103Y16717932D01*
X12577059Y16703475D01*
X12636720Y16667110D01*
X12667249Y16604263D01*
X12658954Y16534888D01*
X12614469Y16481010D01*
X12547917Y16459735D01*
X12544966Y16459700D01*
X10106610Y16459700D01*
X10039571Y16479385D01*
X9993816Y16532189D01*
X9983670Y16567518D01*
X9983300Y16570326D01*
X9983300Y16570336D01*
X9952068Y16686897D01*
X9891732Y16791403D01*
X9806403Y16876732D01*
X9701897Y16937068D01*
X9585336Y16968300D01*
X9464664Y16968300D01*
X9348096Y16937066D01*
X9342345Y16934684D01*
X9272875Y16927220D01*
X9210398Y16958499D01*
X9174750Y17018590D01*
X9170900Y17049248D01*
X9170900Y17214848D01*
X9170899Y17214851D01*
X9130221Y17313057D01*
X9055057Y17388221D01*
X8508958Y17934320D01*
X8475473Y17995643D01*
X8480457Y18065335D01*
X8522329Y18121268D01*
X8587793Y18145685D01*
X8596639Y18146001D01*
X8696800Y18146001D01*
X8696800Y18753279D01*
X8696995Y18753946D01*
X8696807Y18754614D01*
X8706834Y18787454D01*
X8716485Y18820318D01*
X8717076Y18820994D01*
X8717212Y18821437D01*
X8719361Y18823602D01*
X8740611Y18847860D01*
X8746017Y18852445D01*
X8814391Y18898130D01*
X8895113Y18978853D01*
X8899011Y18982157D01*
X8926473Y18994344D01*
X8952842Y19008742D01*
X8958076Y19008368D01*
X8962875Y19010497D01*
X8992564Y19005902D01*
G37*
%TD.AperFunction*%
%TA.AperFunction,Conductor*%
G36*
X11438643Y21620615D02*
G01*
X11459285Y21603981D01*
X11526448Y21536818D01*
X11559933Y21475495D01*
X11554949Y21405803D01*
X11513077Y21349870D01*
X11500769Y21341751D01*
X11466100Y21321735D01*
X11466095Y21321731D01*
X11380769Y21236405D01*
X11380767Y21236402D01*
X11320432Y21131898D01*
X11320432Y21131897D01*
X11289200Y21015336D01*
X11288139Y21007276D01*
X11286766Y21007457D01*
X11269515Y20948704D01*
X11252881Y20928062D01*
X10739438Y20414619D01*
X10712510Y20399916D01*
X10686692Y20383323D01*
X10680491Y20382432D01*
X10678115Y20381134D01*
X10651757Y20378300D01*
X10509500Y20378300D01*
X10442461Y20397985D01*
X10396706Y20450789D01*
X10385500Y20502300D01*
X10385500Y20580764D01*
X10385500Y20580766D01*
X10346281Y20727135D01*
X10270515Y20858365D01*
X10163365Y20965515D01*
X10080861Y21013149D01*
X10032136Y21041281D01*
X9938504Y21066369D01*
X9885766Y21080500D01*
X9734234Y21080500D01*
X9587863Y21041281D01*
X9456635Y20965515D01*
X9456632Y20965513D01*
X9349487Y20858368D01*
X9349485Y20858365D01*
X9273718Y20727135D01*
X9273717Y20727133D01*
X9273170Y20725088D01*
X9272237Y20723559D01*
X9270611Y20719631D01*
X9269998Y20719885D01*
X9236803Y20665430D01*
X9173955Y20634903D01*
X9104580Y20643201D01*
X9050704Y20687688D01*
X9036616Y20717247D01*
X9036564Y20717225D01*
X9036145Y20718237D01*
X9034736Y20721193D01*
X9034234Y20722846D01*
X9034233Y20722853D01*
X8983102Y20846296D01*
X8908870Y20957391D01*
X8908867Y20957395D01*
X8814394Y21051868D01*
X8814390Y21051871D01*
X8703298Y21126101D01*
X8703296Y21126102D01*
X8579854Y21177233D01*
X8579846Y21177235D01*
X8507324Y21191661D01*
X8445413Y21224047D01*
X8410839Y21284763D01*
X8414580Y21354532D01*
X8443830Y21400954D01*
X8646861Y21603984D01*
X8708183Y21637466D01*
X8734540Y21640300D01*
X11371604Y21640300D01*
X11438643Y21620615D01*
G37*
%TD.AperFunction*%
%TD*%
M02*
