M48
; DRILL file {KiCad 9.0.1} date 2025-09-03T15:01:39-0600
; FORMAT={-:-/ absolute / metric / decimal}
; #@! TF.CreationDate,2025-09-03T15:01:39-06:00
; #@! TF.GenerationSoftware,Kicad,Pcbnew,9.0.1
; #@! TF.FileFunction,MixedPlating,1,4
FMAT,2
METRIC
; #@! TA.AperFunction,Plated,PTH,ViaDrill
T1C0.300
; #@! TA.AperFunction,Plated,PTH,ComponentDrill
T2C0.600
; #@! TA.AperFunction,Plated,PTH,ComponentDrill
T3C1.016
; #@! TA.AperFunction,NonPlated,NPTH,ComponentDrill
T4C0.650
; #@! TA.AperFunction,NonPlated,NPTH,ComponentDrill
T5C2.300
; #@! TA.AperFunction,NonPlated,NPTH,ComponentDrill
T6C3.100
%
G90
G05
T1
X0.635Y8.255
X1.27Y20.637
X1.905Y5.397
X2.54Y20.637
X3.492Y20.637
X3.492Y14.605
X3.492Y13.652
X3.492Y10.477
X3.81Y12.065
X4.127Y7.302
X4.445Y20.32
X4.445Y18.415
X4.445Y15.557
X5.715Y24.447
X6.032Y19.05
X6.032Y7.302
X6.985Y19.05
X7.62Y16.828
X7.62Y15.557
X7.62Y8.89
X7.938Y9.842
X8.572Y14.922
X8.572Y13.221
X8.89Y8.255
X9.207Y21.272
X9.525Y17.78
X9.525Y16.51
X9.525Y15.121
X9.842Y11.43
X10.477Y22.543
X10.477Y13.652
X10.795Y12.065
X10.795Y8.89
X11.747Y20.955
X11.747Y16.714
X12.7Y17.145
X12.7Y10.795
X13.335Y13.018
X14.98Y22.543
X15.24Y8.89
X15.875Y17.145
X15.875Y14.605
X16.192Y21.272
X16.192Y12.7
X16.194Y17.782
X16.194Y16.508
X16.828Y15.945
X16.828Y9.207
X17.78Y16.192
X17.78Y6.35
X18.098Y8.89
X19.3Y16.5
X19.304Y21.272
X20.637Y20.955
X20.637Y14.932
X20.637Y8.89
X20.955Y16.192
X21.59Y24.765
X21.59Y18.098
X21.906Y13.02
X21.907Y14.2
X22.225Y12.383
X22.86Y16.192
X23.926Y12.065
X24.447Y8.572
X24.765Y20.32
X24.765Y13.97
T3
X7.62Y3.81
X7.62Y1.27
X10.16Y3.81
X10.16Y1.27
X12.7Y3.81
X12.7Y1.27
X15.24Y3.81
X15.24Y1.27
X17.78Y3.81
X17.78Y1.27
T4
X9.81Y20.505
X15.59Y20.505
T5
X22.543Y7.302
T6
X2.54Y22.86
X2.54Y2.54
X22.86Y22.86
X22.86Y2.619
T2
G00X8.382Y23.855
M15
G01X8.382Y24.455
M16
G05
G00X8.382Y19.425
M15
G01X8.382Y20.525
M16
G05
G00X17.018Y23.855
M15
G01X17.018Y24.455
M16
G05
G00X17.018Y19.425
M15
G01X17.018Y20.525
M16
G05
M30
