%TF.GenerationSoftware,KiCad,Pcbnew,9.0.1*%
%TF.CreationDate,2025-09-03T15:01:39-06:00*%
%TF.ProjectId,SparkFun_Qwiic_GNSS_SAM-M8Q,53706172-6b46-4756-9e5f-51776969635f,v10*%
%TF.SameCoordinates,Original*%
%TF.FileFunction,Paste,Bot*%
%TF.FilePolarity,Positive*%
%FSLAX46Y46*%
G04 Gerber Fmt 4.6, Leading zero omitted, Abs format (unit mm)*
G04 Created by KiCad (PCBNEW 9.0.1) date 2025-09-03 15:01:39*
%MOMM*%
%LPD*%
G01*
G04 APERTURE LIST*
%ADD10R,0.720000X0.580000*%
%ADD11R,0.580000X0.720000*%
G04 APERTURE END LIST*
D10*
%TO.C,U1*%
X19800000Y8475000D03*
X19800000Y9325000D03*
X19800000Y10375000D03*
X19800000Y11225000D03*
X19800000Y12275000D03*
X19800000Y13125000D03*
X19800000Y14175000D03*
X19800000Y15025000D03*
X19800000Y16075000D03*
X19800000Y16925000D03*
X18800000Y8475000D03*
X18800000Y9325000D03*
X18800000Y10375000D03*
X18800000Y11225000D03*
X18800000Y12275000D03*
X18800000Y13125000D03*
X18800000Y14175000D03*
X18800000Y15025000D03*
X18800000Y16075000D03*
X18800000Y16925000D03*
D11*
X16925000Y5600000D03*
X16925000Y6600000D03*
X16925000Y18800000D03*
X16925000Y19800000D03*
X16075000Y5600000D03*
X16075000Y6600000D03*
X16075000Y18800000D03*
X16075000Y19800000D03*
X15025000Y5600000D03*
X15025000Y6600000D03*
X15025000Y18800000D03*
X15025000Y19800000D03*
X14175000Y5600000D03*
X14175000Y6600000D03*
X14175000Y18800000D03*
X14175000Y19800000D03*
X13125000Y5600000D03*
X13125000Y6600000D03*
X13125000Y18800000D03*
X13125000Y19800000D03*
X12275000Y5600000D03*
X12275000Y6600000D03*
X12275000Y18800000D03*
X12275000Y19800000D03*
X11225000Y5600000D03*
X11225000Y6600000D03*
X11225000Y18800000D03*
X11225000Y19800000D03*
X10375000Y5600000D03*
X10375000Y6600000D03*
X10375000Y18800000D03*
X10375000Y19800000D03*
X9325000Y5600000D03*
X9325000Y6600000D03*
X9325000Y18800000D03*
X9325000Y19800000D03*
X8475000Y5600000D03*
X8475000Y6600000D03*
X8475000Y18800000D03*
X8475000Y19800000D03*
D10*
X6600000Y8475000D03*
X6600000Y9325000D03*
X6600000Y10375000D03*
X6600000Y11225000D03*
X6600000Y12275000D03*
X6600000Y13125000D03*
X6600000Y14175000D03*
X6600000Y15025000D03*
X6600000Y16075000D03*
X6600000Y16925000D03*
X5600000Y8475000D03*
X5600000Y9325000D03*
X5600000Y10375000D03*
X5600000Y11225000D03*
X5600000Y12275000D03*
X5600000Y13125000D03*
X5600000Y14175000D03*
X5600000Y15025000D03*
X5600000Y16075000D03*
X5600000Y16925000D03*
%TD*%
M02*
